<?xml version="1.0" encoding="utf-8" standalone="no"?>
<!DOCTYPE svg PUBLIC "-//W3C//DTD SVG 1.1//EN"
  "http://www.w3.org/Graphics/SVG/1.1/DTD/svg11.dtd">
<svg xmlns:xlink="http://www.w3.org/1999/xlink" width="667.965625pt" height="420.790938pt" viewBox="0 0 667.965625 420.790938" xmlns="http://www.w3.org/2000/svg" version="1.1">
 <metadata>
  <rdf:RDF xmlns:dc="http://purl.org/dc/elements/1.1/" xmlns:cc="http://creativecommons.org/ns#" xmlns:rdf="http://www.w3.org/1999/02/22-rdf-syntax-ns#">
   <cc:Work>
    <dc:type rdf:resource="http://purl.org/dc/dcmitype/StillImage"/>
    <dc:date>2024-12-21T00:16:57.710192</dc:date>
    <dc:format>image/svg+xml</dc:format>
    <dc:creator>
     <cc:Agent>
      <dc:title>Matplotlib v3.9.3, https://matplotlib.org/</dc:title>
     </cc:Agent>
    </dc:creator>
   </cc:Work>
  </rdf:RDF>
 </metadata>
 <defs>
  <style type="text/css">*{stroke-linejoin: round; stroke-linecap: butt}</style>
 </defs>
 <g id="figure_1">
  <g id="patch_1">
   <path d="M -0 420.790938 
L 667.965625 420.790938 
L 667.965625 0 
L -0 0 
z
" style="fill: #ffffff"/>
  </g>
  <g id="axes_1">
   <g id="patch_2">
    <path d="M 46.965625 383.234688 
L 660.765625 383.234688 
L 660.765625 50.594688 
L 46.965625 50.594688 
z
" style="fill: #ffffff"/>
   </g>
   <g id="line2d_1">
    <path d="M 298.065625 383.234688 
L 298.065625 50.594688 
" clip-path="url(#p62f47a0293)" style="fill: none; stroke-dasharray: 5.55,2.4; stroke-dashoffset: 0; stroke: #ff0000; stroke-width: 1.5"/>
   </g>
   <g id="line2d_2">
    <path d="M 365.025625 383.234688 
L 365.025625 50.594688 
" clip-path="url(#p62f47a0293)" style="fill: none; stroke-dasharray: 5.55,2.4; stroke-dashoffset: 0; stroke: #ff0000; stroke-width: 1.5"/>
   </g>
   <g id="line2d_3">
    <path d="M 489.681988 383.234688 
L 489.681988 50.594688 
" clip-path="url(#p62f47a0293)" style="fill: none; stroke-dasharray: 5.55,2.4; stroke-dashoffset: 0; stroke: #ff0000; stroke-width: 1.5"/>
   </g>
   <g id="axes_2">
    <g id="patch_3">
     <path d="M 46.965625 50.594688 
L 660.765625 50.594688 
L 660.765625 50.594688 
L 46.965625 50.594688 
z
" style="fill: #ffffff"/>
    </g>
    <g id="matplotlib.axis_1">
     <g id="xtick_1">
      <g id="line2d_4">
       <defs>
        <path id="m8068259165" d="M 0 0 
L 0 -3.5 
" style="stroke: #000000; stroke-width: 0.8"/>
       </defs>
       <g>
        <use xlink:href="#m8068259165" x="52.545625" y="50.594688" style="stroke: #000000; stroke-width: 0.8"/>
       </g>
      </g>
      <g id="text_1">
       <!-- $\mathdefault{2^{2}}$ -->
       <g transform="translate(46.945625 41.515) scale(0.1 -0.1)">
        <defs>
         <path id="DejaVuSans-32" d="M 1228 531 
L 3431 531 
L 3431 0 
L 469 0 
L 469 531 
Q 828 903 1448 1529 
Q 2069 2156 2228 2338 
Q 2531 2678 2651 2914 
Q 2772 3150 2772 3378 
Q 2772 3750 2511 3984 
Q 2250 4219 1831 4219 
Q 1534 4219 1204 4116 
Q 875 4013 500 3803 
L 500 4441 
Q 881 4594 1212 4672 
Q 1544 4750 1819 4750 
Q 2544 4750 2975 4387 
Q 3406 4025 3406 3419 
Q 3406 3131 3298 2873 
Q 3191 2616 2906 2266 
Q 2828 2175 2409 1742 
Q 1991 1309 1228 531 
z
" transform="scale(0.015625)"/>
        </defs>
        <use xlink:href="#DejaVuSans-32" transform="translate(0 0.765625)"/>
        <use xlink:href="#DejaVuSans-32" transform="translate(64.580078 39.046875) scale(0.7)"/>
       </g>
      </g>
     </g>
     <g id="xtick_2">
      <g id="line2d_5">
       <g>
        <use xlink:href="#m8068259165" x="97.185625" y="50.594688" style="stroke: #000000; stroke-width: 0.8"/>
       </g>
      </g>
      <g id="text_2">
       <!-- $\mathdefault{2^{4}}$ -->
       <g transform="translate(91.585625 41.515) scale(0.1 -0.1)">
        <defs>
         <path id="DejaVuSans-34" d="M 2419 4116 
L 825 1625 
L 2419 1625 
L 2419 4116 
z
M 2253 4666 
L 3047 4666 
L 3047 1625 
L 3713 1625 
L 3713 1100 
L 3047 1100 
L 3047 0 
L 2419 0 
L 2419 1100 
L 313 1100 
L 313 1709 
L 2253 4666 
z
" transform="scale(0.015625)"/>
        </defs>
        <use xlink:href="#DejaVuSans-32" transform="translate(0 0.684375)"/>
        <use xlink:href="#DejaVuSans-34" transform="translate(64.580078 38.965625) scale(0.7)"/>
       </g>
      </g>
     </g>
     <g id="xtick_3">
      <g id="line2d_6">
       <g>
        <use xlink:href="#m8068259165" x="141.825625" y="50.594688" style="stroke: #000000; stroke-width: 0.8"/>
       </g>
      </g>
      <g id="text_3">
       <!-- $\mathdefault{2^{6}}$ -->
       <g transform="translate(136.225625 41.515) scale(0.1 -0.1)">
        <defs>
         <path id="DejaVuSans-36" d="M 2113 2584 
Q 1688 2584 1439 2293 
Q 1191 2003 1191 1497 
Q 1191 994 1439 701 
Q 1688 409 2113 409 
Q 2538 409 2786 701 
Q 3034 994 3034 1497 
Q 3034 2003 2786 2293 
Q 2538 2584 2113 2584 
z
M 3366 4563 
L 3366 3988 
Q 3128 4100 2886 4159 
Q 2644 4219 2406 4219 
Q 1781 4219 1451 3797 
Q 1122 3375 1075 2522 
Q 1259 2794 1537 2939 
Q 1816 3084 2150 3084 
Q 2853 3084 3261 2657 
Q 3669 2231 3669 1497 
Q 3669 778 3244 343 
Q 2819 -91 2113 -91 
Q 1303 -91 875 529 
Q 447 1150 447 2328 
Q 447 3434 972 4092 
Q 1497 4750 2381 4750 
Q 2619 4750 2861 4703 
Q 3103 4656 3366 4563 
z
" transform="scale(0.015625)"/>
        </defs>
        <use xlink:href="#DejaVuSans-32" transform="translate(0 0.765625)"/>
        <use xlink:href="#DejaVuSans-36" transform="translate(64.580078 39.046875) scale(0.7)"/>
       </g>
      </g>
     </g>
     <g id="xtick_4">
      <g id="line2d_7">
       <g>
        <use xlink:href="#m8068259165" x="186.465625" y="50.594688" style="stroke: #000000; stroke-width: 0.8"/>
       </g>
      </g>
      <g id="text_4">
       <!-- $\mathdefault{2^{8}}$ -->
       <g transform="translate(180.865625 41.515) scale(0.1 -0.1)">
        <defs>
         <path id="DejaVuSans-38" d="M 2034 2216 
Q 1584 2216 1326 1975 
Q 1069 1734 1069 1313 
Q 1069 891 1326 650 
Q 1584 409 2034 409 
Q 2484 409 2743 651 
Q 3003 894 3003 1313 
Q 3003 1734 2745 1975 
Q 2488 2216 2034 2216 
z
M 1403 2484 
Q 997 2584 770 2862 
Q 544 3141 544 3541 
Q 544 4100 942 4425 
Q 1341 4750 2034 4750 
Q 2731 4750 3128 4425 
Q 3525 4100 3525 3541 
Q 3525 3141 3298 2862 
Q 3072 2584 2669 2484 
Q 3125 2378 3379 2068 
Q 3634 1759 3634 1313 
Q 3634 634 3220 271 
Q 2806 -91 2034 -91 
Q 1263 -91 848 271 
Q 434 634 434 1313 
Q 434 1759 690 2068 
Q 947 2378 1403 2484 
z
M 1172 3481 
Q 1172 3119 1398 2916 
Q 1625 2713 2034 2713 
Q 2441 2713 2670 2916 
Q 2900 3119 2900 3481 
Q 2900 3844 2670 4047 
Q 2441 4250 2034 4250 
Q 1625 4250 1398 4047 
Q 1172 3844 1172 3481 
z
" transform="scale(0.015625)"/>
        </defs>
        <use xlink:href="#DejaVuSans-32" transform="translate(0 0.765625)"/>
        <use xlink:href="#DejaVuSans-38" transform="translate(64.580078 39.046875) scale(0.7)"/>
       </g>
      </g>
     </g>
     <g id="xtick_5">
      <g id="line2d_8">
       <g>
        <use xlink:href="#m8068259165" x="231.105625" y="50.594688" style="stroke: #000000; stroke-width: 0.8"/>
       </g>
      </g>
      <g id="text_5">
       <!-- $\mathdefault{2^{10}}$ -->
       <g transform="translate(223.255625 41.515) scale(0.1 -0.1)">
        <defs>
         <path id="DejaVuSans-31" d="M 794 531 
L 1825 531 
L 1825 4091 
L 703 3866 
L 703 4441 
L 1819 4666 
L 2450 4666 
L 2450 531 
L 3481 531 
L 3481 0 
L 794 0 
L 794 531 
z
" transform="scale(0.015625)"/>
         <path id="DejaVuSans-30" d="M 2034 4250 
Q 1547 4250 1301 3770 
Q 1056 3291 1056 2328 
Q 1056 1369 1301 889 
Q 1547 409 2034 409 
Q 2525 409 2770 889 
Q 3016 1369 3016 2328 
Q 3016 3291 2770 3770 
Q 2525 4250 2034 4250 
z
M 2034 4750 
Q 2819 4750 3233 4129 
Q 3647 3509 3647 2328 
Q 3647 1150 3233 529 
Q 2819 -91 2034 -91 
Q 1250 -91 836 529 
Q 422 1150 422 2328 
Q 422 3509 836 4129 
Q 1250 4750 2034 4750 
z
" transform="scale(0.015625)"/>
        </defs>
        <use xlink:href="#DejaVuSans-32" transform="translate(0 0.765625)"/>
        <use xlink:href="#DejaVuSans-31" transform="translate(64.580078 39.046875) scale(0.7)"/>
        <use xlink:href="#DejaVuSans-30" transform="translate(109.116211 39.046875) scale(0.7)"/>
       </g>
      </g>
     </g>
     <g id="xtick_6">
      <g id="line2d_9">
       <g>
        <use xlink:href="#m8068259165" x="275.745625" y="50.594688" style="stroke: #000000; stroke-width: 0.8"/>
       </g>
      </g>
      <g id="text_6">
       <!-- $\mathdefault{2^{12}}$ -->
       <g transform="translate(267.895625 41.515) scale(0.1 -0.1)">
        <use xlink:href="#DejaVuSans-32" transform="translate(0 0.765625)"/>
        <use xlink:href="#DejaVuSans-31" transform="translate(64.580078 39.046875) scale(0.7)"/>
        <use xlink:href="#DejaVuSans-32" transform="translate(109.116211 39.046875) scale(0.7)"/>
       </g>
      </g>
     </g>
     <g id="xtick_7">
      <g id="line2d_10">
       <g>
        <use xlink:href="#m8068259165" x="320.385625" y="50.594688" style="stroke: #000000; stroke-width: 0.8"/>
       </g>
      </g>
      <g id="text_7">
       <!-- $\mathdefault{2^{14}}$ -->
       <g transform="translate(312.535625 41.515) scale(0.1 -0.1)">
        <use xlink:href="#DejaVuSans-32" transform="translate(0 0.684375)"/>
        <use xlink:href="#DejaVuSans-31" transform="translate(64.580078 38.965625) scale(0.7)"/>
        <use xlink:href="#DejaVuSans-34" transform="translate(109.116211 38.965625) scale(0.7)"/>
       </g>
      </g>
     </g>
     <g id="xtick_8">
      <g id="line2d_11">
       <g>
        <use xlink:href="#m8068259165" x="365.025625" y="50.594688" style="stroke: #000000; stroke-width: 0.8"/>
       </g>
      </g>
      <g id="text_8">
       <!-- $\mathdefault{2^{16}}$ -->
       <g transform="translate(357.175625 41.515) scale(0.1 -0.1)">
        <use xlink:href="#DejaVuSans-32" transform="translate(0 0.765625)"/>
        <use xlink:href="#DejaVuSans-31" transform="translate(64.580078 39.046875) scale(0.7)"/>
        <use xlink:href="#DejaVuSans-36" transform="translate(109.116211 39.046875) scale(0.7)"/>
       </g>
      </g>
     </g>
     <g id="xtick_9">
      <g id="line2d_12">
       <g>
        <use xlink:href="#m8068259165" x="409.665625" y="50.594688" style="stroke: #000000; stroke-width: 0.8"/>
       </g>
      </g>
      <g id="text_9">
       <!-- $\mathdefault{2^{18}}$ -->
       <g transform="translate(401.815625 41.515) scale(0.1 -0.1)">
        <use xlink:href="#DejaVuSans-32" transform="translate(0 0.765625)"/>
        <use xlink:href="#DejaVuSans-31" transform="translate(64.580078 39.046875) scale(0.7)"/>
        <use xlink:href="#DejaVuSans-38" transform="translate(109.116211 39.046875) scale(0.7)"/>
       </g>
      </g>
     </g>
     <g id="xtick_10">
      <g id="line2d_13">
       <g>
        <use xlink:href="#m8068259165" x="454.305625" y="50.594688" style="stroke: #000000; stroke-width: 0.8"/>
       </g>
      </g>
      <g id="text_10">
       <!-- $\mathdefault{2^{20}}$ -->
       <g transform="translate(446.455625 41.515) scale(0.1 -0.1)">
        <use xlink:href="#DejaVuSans-32" transform="translate(0 0.765625)"/>
        <use xlink:href="#DejaVuSans-32" transform="translate(64.580078 39.046875) scale(0.7)"/>
        <use xlink:href="#DejaVuSans-30" transform="translate(109.116211 39.046875) scale(0.7)"/>
       </g>
      </g>
     </g>
     <g id="xtick_11">
      <g id="line2d_14">
       <g>
        <use xlink:href="#m8068259165" x="498.945625" y="50.594688" style="stroke: #000000; stroke-width: 0.8"/>
       </g>
      </g>
      <g id="text_11">
       <!-- $\mathdefault{2^{22}}$ -->
       <g transform="translate(491.095625 41.515) scale(0.1 -0.1)">
        <use xlink:href="#DejaVuSans-32" transform="translate(0 0.765625)"/>
        <use xlink:href="#DejaVuSans-32" transform="translate(64.580078 39.046875) scale(0.7)"/>
        <use xlink:href="#DejaVuSans-32" transform="translate(109.116211 39.046875) scale(0.7)"/>
       </g>
      </g>
     </g>
     <g id="xtick_12">
      <g id="line2d_15">
       <g>
        <use xlink:href="#m8068259165" x="543.585625" y="50.594688" style="stroke: #000000; stroke-width: 0.8"/>
       </g>
      </g>
      <g id="text_12">
       <!-- $\mathdefault{2^{24}}$ -->
       <g transform="translate(535.735625 41.515) scale(0.1 -0.1)">
        <use xlink:href="#DejaVuSans-32" transform="translate(0 0.765625)"/>
        <use xlink:href="#DejaVuSans-32" transform="translate(64.580078 39.046875) scale(0.7)"/>
        <use xlink:href="#DejaVuSans-34" transform="translate(109.116211 39.046875) scale(0.7)"/>
       </g>
      </g>
     </g>
     <g id="xtick_13">
      <g id="line2d_16">
       <g>
        <use xlink:href="#m8068259165" x="588.225625" y="50.594688" style="stroke: #000000; stroke-width: 0.8"/>
       </g>
      </g>
      <g id="text_13">
       <!-- $\mathdefault{2^{26}}$ -->
       <g transform="translate(580.375625 41.515) scale(0.1 -0.1)">
        <use xlink:href="#DejaVuSans-32" transform="translate(0 0.765625)"/>
        <use xlink:href="#DejaVuSans-32" transform="translate(64.580078 39.046875) scale(0.7)"/>
        <use xlink:href="#DejaVuSans-36" transform="translate(109.116211 39.046875) scale(0.7)"/>
       </g>
      </g>
     </g>
     <g id="xtick_14">
      <g id="line2d_17">
       <g>
        <use xlink:href="#m8068259165" x="632.865625" y="50.594688" style="stroke: #000000; stroke-width: 0.8"/>
       </g>
      </g>
      <g id="text_14">
       <!-- $\mathdefault{2^{28}}$ -->
       <g transform="translate(625.015625 41.515) scale(0.1 -0.1)">
        <use xlink:href="#DejaVuSans-32" transform="translate(0 0.765625)"/>
        <use xlink:href="#DejaVuSans-32" transform="translate(64.580078 39.046875) scale(0.7)"/>
        <use xlink:href="#DejaVuSans-38" transform="translate(109.116211 39.046875) scale(0.7)"/>
       </g>
      </g>
     </g>
     <g id="text_15">
      <!-- Array length (u32) -->
      <g transform="translate(307.85 29.916562) scale(0.1 -0.1)">
       <defs>
        <path id="DejaVuSans-41" d="M 2188 4044 
L 1331 1722 
L 3047 1722 
L 2188 4044 
z
M 1831 4666 
L 2547 4666 
L 4325 0 
L 3669 0 
L 3244 1197 
L 1141 1197 
L 716 0 
L 50 0 
L 1831 4666 
z
" transform="scale(0.015625)"/>
        <path id="DejaVuSans-72" d="M 2631 2963 
Q 2534 3019 2420 3045 
Q 2306 3072 2169 3072 
Q 1681 3072 1420 2755 
Q 1159 2438 1159 1844 
L 1159 0 
L 581 0 
L 581 3500 
L 1159 3500 
L 1159 2956 
Q 1341 3275 1631 3429 
Q 1922 3584 2338 3584 
Q 2397 3584 2469 3576 
Q 2541 3569 2628 3553 
L 2631 2963 
z
" transform="scale(0.015625)"/>
        <path id="DejaVuSans-61" d="M 2194 1759 
Q 1497 1759 1228 1600 
Q 959 1441 959 1056 
Q 959 750 1161 570 
Q 1363 391 1709 391 
Q 2188 391 2477 730 
Q 2766 1069 2766 1631 
L 2766 1759 
L 2194 1759 
z
M 3341 1997 
L 3341 0 
L 2766 0 
L 2766 531 
Q 2569 213 2275 61 
Q 1981 -91 1556 -91 
Q 1019 -91 701 211 
Q 384 513 384 1019 
Q 384 1609 779 1909 
Q 1175 2209 1959 2209 
L 2766 2209 
L 2766 2266 
Q 2766 2663 2505 2880 
Q 2244 3097 1772 3097 
Q 1472 3097 1187 3025 
Q 903 2953 641 2809 
L 641 3341 
Q 956 3463 1253 3523 
Q 1550 3584 1831 3584 
Q 2591 3584 2966 3190 
Q 3341 2797 3341 1997 
z
" transform="scale(0.015625)"/>
        <path id="DejaVuSans-79" d="M 2059 -325 
Q 1816 -950 1584 -1140 
Q 1353 -1331 966 -1331 
L 506 -1331 
L 506 -850 
L 844 -850 
Q 1081 -850 1212 -737 
Q 1344 -625 1503 -206 
L 1606 56 
L 191 3500 
L 800 3500 
L 1894 763 
L 2988 3500 
L 3597 3500 
L 2059 -325 
z
" transform="scale(0.015625)"/>
        <path id="DejaVuSans-20" transform="scale(0.015625)"/>
        <path id="DejaVuSans-6c" d="M 603 4863 
L 1178 4863 
L 1178 0 
L 603 0 
L 603 4863 
z
" transform="scale(0.015625)"/>
        <path id="DejaVuSans-65" d="M 3597 1894 
L 3597 1613 
L 953 1613 
Q 991 1019 1311 708 
Q 1631 397 2203 397 
Q 2534 397 2845 478 
Q 3156 559 3463 722 
L 3463 178 
Q 3153 47 2828 -22 
Q 2503 -91 2169 -91 
Q 1331 -91 842 396 
Q 353 884 353 1716 
Q 353 2575 817 3079 
Q 1281 3584 2069 3584 
Q 2775 3584 3186 3129 
Q 3597 2675 3597 1894 
z
M 3022 2063 
Q 3016 2534 2758 2815 
Q 2500 3097 2075 3097 
Q 1594 3097 1305 2825 
Q 1016 2553 972 2059 
L 3022 2063 
z
" transform="scale(0.015625)"/>
        <path id="DejaVuSans-6e" d="M 3513 2113 
L 3513 0 
L 2938 0 
L 2938 2094 
Q 2938 2591 2744 2837 
Q 2550 3084 2163 3084 
Q 1697 3084 1428 2787 
Q 1159 2491 1159 1978 
L 1159 0 
L 581 0 
L 581 3500 
L 1159 3500 
L 1159 2956 
Q 1366 3272 1645 3428 
Q 1925 3584 2291 3584 
Q 2894 3584 3203 3211 
Q 3513 2838 3513 2113 
z
" transform="scale(0.015625)"/>
        <path id="DejaVuSans-67" d="M 2906 1791 
Q 2906 2416 2648 2759 
Q 2391 3103 1925 3103 
Q 1463 3103 1205 2759 
Q 947 2416 947 1791 
Q 947 1169 1205 825 
Q 1463 481 1925 481 
Q 2391 481 2648 825 
Q 2906 1169 2906 1791 
z
M 3481 434 
Q 3481 -459 3084 -895 
Q 2688 -1331 1869 -1331 
Q 1566 -1331 1297 -1286 
Q 1028 -1241 775 -1147 
L 775 -588 
Q 1028 -725 1275 -790 
Q 1522 -856 1778 -856 
Q 2344 -856 2625 -561 
Q 2906 -266 2906 331 
L 2906 616 
Q 2728 306 2450 153 
Q 2172 0 1784 0 
Q 1141 0 747 490 
Q 353 981 353 1791 
Q 353 2603 747 3093 
Q 1141 3584 1784 3584 
Q 2172 3584 2450 3431 
Q 2728 3278 2906 2969 
L 2906 3500 
L 3481 3500 
L 3481 434 
z
" transform="scale(0.015625)"/>
        <path id="DejaVuSans-74" d="M 1172 4494 
L 1172 3500 
L 2356 3500 
L 2356 3053 
L 1172 3053 
L 1172 1153 
Q 1172 725 1289 603 
Q 1406 481 1766 481 
L 2356 481 
L 2356 0 
L 1766 0 
Q 1100 0 847 248 
Q 594 497 594 1153 
L 594 3053 
L 172 3053 
L 172 3500 
L 594 3500 
L 594 4494 
L 1172 4494 
z
" transform="scale(0.015625)"/>
        <path id="DejaVuSans-68" d="M 3513 2113 
L 3513 0 
L 2938 0 
L 2938 2094 
Q 2938 2591 2744 2837 
Q 2550 3084 2163 3084 
Q 1697 3084 1428 2787 
Q 1159 2491 1159 1978 
L 1159 0 
L 581 0 
L 581 4863 
L 1159 4863 
L 1159 2956 
Q 1366 3272 1645 3428 
Q 1925 3584 2291 3584 
Q 2894 3584 3203 3211 
Q 3513 2838 3513 2113 
z
" transform="scale(0.015625)"/>
        <path id="DejaVuSans-28" d="M 1984 4856 
Q 1566 4138 1362 3434 
Q 1159 2731 1159 2009 
Q 1159 1288 1364 580 
Q 1569 -128 1984 -844 
L 1484 -844 
Q 1016 -109 783 600 
Q 550 1309 550 2009 
Q 550 2706 781 3412 
Q 1013 4119 1484 4856 
L 1984 4856 
z
" transform="scale(0.015625)"/>
        <path id="DejaVuSans-75" d="M 544 1381 
L 544 3500 
L 1119 3500 
L 1119 1403 
Q 1119 906 1312 657 
Q 1506 409 1894 409 
Q 2359 409 2629 706 
Q 2900 1003 2900 1516 
L 2900 3500 
L 3475 3500 
L 3475 0 
L 2900 0 
L 2900 538 
Q 2691 219 2414 64 
Q 2138 -91 1772 -91 
Q 1169 -91 856 284 
Q 544 659 544 1381 
z
M 1991 3584 
L 1991 3584 
z
" transform="scale(0.015625)"/>
        <path id="DejaVuSans-33" d="M 2597 2516 
Q 3050 2419 3304 2112 
Q 3559 1806 3559 1356 
Q 3559 666 3084 287 
Q 2609 -91 1734 -91 
Q 1441 -91 1130 -33 
Q 819 25 488 141 
L 488 750 
Q 750 597 1062 519 
Q 1375 441 1716 441 
Q 2309 441 2620 675 
Q 2931 909 2931 1356 
Q 2931 1769 2642 2001 
Q 2353 2234 1838 2234 
L 1294 2234 
L 1294 2753 
L 1863 2753 
Q 2328 2753 2575 2939 
Q 2822 3125 2822 3475 
Q 2822 3834 2567 4026 
Q 2313 4219 1838 4219 
Q 1578 4219 1281 4162 
Q 984 4106 628 3988 
L 628 4550 
Q 988 4650 1302 4700 
Q 1616 4750 1894 4750 
Q 2613 4750 3031 4423 
Q 3450 4097 3450 3541 
Q 3450 3153 3228 2886 
Q 3006 2619 2597 2516 
z
" transform="scale(0.015625)"/>
        <path id="DejaVuSans-29" d="M 513 4856 
L 1013 4856 
Q 1481 4119 1714 3412 
Q 1947 2706 1947 2009 
Q 1947 1309 1714 600 
Q 1481 -109 1013 -844 
L 513 -844 
Q 928 -128 1133 580 
Q 1338 1288 1338 2009 
Q 1338 2731 1133 3434 
Q 928 4138 513 4856 
z
" transform="scale(0.015625)"/>
       </defs>
       <use xlink:href="#DejaVuSans-41"/>
       <use xlink:href="#DejaVuSans-72" x="68.408203"/>
       <use xlink:href="#DejaVuSans-72" x="107.771484"/>
       <use xlink:href="#DejaVuSans-61" x="148.884766"/>
       <use xlink:href="#DejaVuSans-79" x="210.164062"/>
       <use xlink:href="#DejaVuSans-20" x="269.34375"/>
       <use xlink:href="#DejaVuSans-6c" x="301.130859"/>
       <use xlink:href="#DejaVuSans-65" x="328.914062"/>
       <use xlink:href="#DejaVuSans-6e" x="390.4375"/>
       <use xlink:href="#DejaVuSans-67" x="453.816406"/>
       <use xlink:href="#DejaVuSans-74" x="517.292969"/>
       <use xlink:href="#DejaVuSans-68" x="556.501953"/>
       <use xlink:href="#DejaVuSans-20" x="619.880859"/>
       <use xlink:href="#DejaVuSans-28" x="651.667969"/>
       <use xlink:href="#DejaVuSans-75" x="690.681641"/>
       <use xlink:href="#DejaVuSans-33" x="754.060547"/>
       <use xlink:href="#DejaVuSans-32" x="817.683594"/>
       <use xlink:href="#DejaVuSans-29" x="881.306641"/>
      </g>
     </g>
    </g>
    <g id="matplotlib.axis_2"/>
    <g id="patch_4">
     <path d="M 46.965625 50.594688 
L 660.765625 50.594688 
" style="fill: none; stroke: #000000; stroke-width: 0.8; stroke-linejoin: miter; stroke-linecap: square"/>
    </g>
   </g>
   <g id="PolyCollection_1">
    <defs>
     <path id="md386bce165" d="M 74.865625 -39.269338 
L 74.865625 -39.260929 
L 82.05106 -39.766717 
L 87.921988 -39.75896 
L 92.885787 -39.760413 
L 97.185625 -39.761893 
L 104.37106 -40.32381 
L 110.241988 -40.316555 
L 115.205787 -40.343715 
L 119.505625 -40.350399 
L 126.69106 -40.853734 
L 132.561988 -40.847999 
L 137.525787 -40.85103 
L 141.825625 -40.849314 
L 149.01106 -41.425911 
L 154.881988 -41.428165 
L 159.845787 -41.425123 
L 164.145625 -41.426177 
L 171.33106 -42.312904 
L 177.201988 -42.318737 
L 182.165787 -42.33167 
L 186.465625 -42.303996 
L 193.65106 -43.006856 
L 199.521988 -43.012748 
L 204.485787 -43.01269 
L 208.785625 -43.014981 
L 215.97106 -43.64519 
L 221.841988 -43.636992 
L 226.805787 -43.63623 
L 231.105625 -43.643751 
L 238.29106 -44.225089 
L 244.161988 -44.224164 
L 249.125787 -44.225324 
L 253.425625 -44.221318 
L 260.61106 -44.862298 
L 266.481988 -44.863235 
L 271.445787 -44.864028 
L 275.745625 -44.86435 
L 282.93106 -45.509647 
L 288.801988 -45.526494 
L 293.765787 -45.572616 
L 298.065625 -45.711826 
L 305.25106 -46.726573 
L 311.121988 -46.929201 
L 316.085787 -47.065701 
L 320.385625 -48.546391 
L 327.57106 -48.542584 
L 333.441988 -49.01978 
L 338.405787 -48.931294 
L 342.705625 -50.907944 
L 349.89106 -50.782782 
L 355.761988 -51.887755 
L 360.725787 -51.316427 
L 365.025625 -53.617773 
L 372.21106 -54.692392 
L 378.081988 -56.178838 
L 383.045787 -56.403601 
L 387.345625 -68.101156 
L 394.53106 -59.74476 
L 400.401988 -62.354851 
L 405.365787 -61.533362 
L 409.665625 -75.503126 
L 416.85106 -66.132023 
L 422.721988 -73.667977 
L 427.685787 -69.287262 
L 431.985625 -82.266426 
L 439.17106 -77.547487 
L 445.041988 -81.433318 
L 450.005787 -78.731296 
L 454.305625 -87.100162 
L 461.49106 -85.115909 
L 467.361988 -89.480013 
L 472.325787 -88.172586 
L 476.625625 -96.401852 
L 483.81106 -94.157469 
L 489.681988 -99.674271 
L 494.645787 -99.848709 
L 498.945625 -132.085319 
L 506.13106 -112.690698 
L 512.001988 -119.040963 
L 516.965787 -119.963252 
L 521.265625 -179.581519 
L 528.45106 -133.816437 
L 534.321988 -172.379639 
L 539.285787 -144.032393 
L 543.585625 -225.443559 
L 550.77106 -189.411204 
L 556.641988 -231.311066 
L 561.605787 -195.906018 
L 565.905625 -257.11782 
L 573.09106 -245.815816 
L 578.961988 -267.631068 
L 583.925787 -251.697825 
L 588.225625 -283.8323 
L 595.41106 -291.116576 
L 601.281988 -310.317783 
L 606.245787 -295.946985 
L 610.545625 -314.487422 
L 617.73106 -332.670833 
L 623.601988 -341.807201 
L 628.565787 -339.788045 
L 632.865625 -348.779966 
L 632.865625 -354.435385 
L 632.865625 -354.435385 
L 628.565787 -343.982397 
L 623.601988 -346.181096 
L 617.73106 -338.010638 
L 610.545625 -325.43805 
L 606.245787 -300.357172 
L 601.281988 -314.650722 
L 595.41106 -293.877447 
L 588.225625 -294.107082 
L 583.925787 -259.941712 
L 578.961988 -270.302461 
L 573.09106 -249.082079 
L 565.905625 -263.152486 
L 561.605787 -199.401184 
L 556.641988 -232.386114 
L 550.77106 -191.247605 
L 543.585625 -227.246848 
L 539.285787 -147.478806 
L 534.321988 -173.359808 
L 528.45106 -134.859955 
L 521.265625 -192.855787 
L 516.965787 -122.687192 
L 512.001988 -119.928325 
L 506.13106 -113.598415 
L 498.945625 -141.615864 
L 494.645787 -103.309961 
L 489.681988 -100.080599 
L 483.81106 -96.472814 
L 476.625625 -97.767621 
L 472.325787 -88.487219 
L 467.361988 -90.427386 
L 461.49106 -86.497122 
L 454.305625 -91.233211 
L 450.005787 -79.950844 
L 445.041988 -85.5182 
L 439.17106 -78.316845 
L 431.985625 -86.658939 
L 427.685787 -69.661469 
L 422.721988 -75.324225 
L 416.85106 -67.651411 
L 409.665625 -77.557529 
L 405.365787 -61.855497 
L 400.401988 -62.586395 
L 394.53106 -59.836147 
L 387.345625 -68.322642 
L 383.045787 -56.532163 
L 378.081988 -56.232865 
L 372.21106 -54.730485 
L 365.025625 -53.699364 
L 360.725787 -51.417918 
L 355.761988 -51.9401 
L 349.89106 -50.883345 
L 342.705625 -50.921661 
L 338.405787 -48.950116 
L 333.441988 -49.025784 
L 327.57106 -48.58552 
L 320.385625 -48.632903 
L 316.085787 -47.078873 
L 311.121988 -46.969188 
L 305.25106 -46.730236 
L 298.065625 -45.726006 
L 293.765787 -45.592063 
L 288.801988 -45.53352 
L 282.93106 -45.531773 
L 275.745625 -44.870464 
L 271.445787 -44.889279 
L 266.481988 -44.891805 
L 260.61106 -44.867888 
L 253.425625 -44.253902 
L 249.125787 -44.255267 
L 244.161988 -44.255179 
L 238.29106 -44.245686 
L 231.105625 -43.660189 
L 226.805787 -43.643789 
L 221.841988 -43.647918 
L 215.97106 -43.66118 
L 208.785625 -43.047689 
L 204.485787 -43.037352 
L 199.521988 -43.142142 
L 193.65106 -43.036504 
L 186.465625 -42.336145 
L 182.165787 -42.349838 
L 177.201988 -42.331981 
L 171.33106 -42.335163 
L 164.145625 -41.447473 
L 159.845787 -41.450932 
L 154.881988 -41.440789 
L 149.01106 -41.442718 
L 141.825625 -40.852348 
L 137.525787 -40.861117 
L 132.561988 -40.857444 
L 126.69106 -40.875744 
L 119.505625 -40.357262 
L 115.205787 -40.350179 
L 110.241988 -40.343181 
L 104.37106 -40.35131 
L 97.185625 -39.762722 
L 92.885787 -39.761088 
L 87.921988 -39.768275 
L 82.05106 -39.773667 
L 74.865625 -39.269338 
z
" style="stroke: #9467bd; stroke-opacity: 0.2"/>
    </defs>
    <g clip-path="url(#p62f47a0293)">
     <use xlink:href="#md386bce165" x="0" y="420.790938" style="fill: #9467bd; fill-opacity: 0.2; stroke: #9467bd; stroke-opacity: 0.2"/>
    </g>
   </g>
   <g id="PolyCollection_2">
    <defs>
     <path id="m313b6164f8" d="M 74.865625 -40.793077 
L 74.865625 -39.798736 
L 82.05106 -41.151472 
L 87.921988 -39.637079 
L 92.885787 -39.218075 
L 97.185625 -40.050637 
L 104.37106 -42.147055 
L 110.241988 -41.172285 
L 115.205787 -39.949787 
L 119.505625 -41.889548 
L 126.69106 -42.876512 
L 132.561988 -41.74215 
L 137.525787 -40.654082 
L 141.825625 -41.739778 
L 149.01106 -43.560325 
L 154.881988 -42.532174 
L 159.845787 -41.261798 
L 164.145625 -41.563434 
L 171.33106 -43.941532 
L 177.201988 -43.066327 
L 182.165787 -42.072001 
L 186.465625 -41.644758 
L 193.65106 -44.217735 
L 199.521988 -43.670801 
L 204.485787 -42.664021 
L 208.785625 -42.132287 
L 215.97106 -44.876698 
L 221.841988 -44.583808 
L 226.805787 -43.452988 
L 231.105625 -42.805335 
L 238.29106 -45.452047 
L 244.161988 -45.346266 
L 249.125787 -44.176625 
L 253.425625 -43.479285 
L 260.61106 -46.265528 
L 266.481988 -46.011866 
L 271.445787 -44.852581 
L 275.745625 -44.146693 
L 282.93106 -46.976405 
L 288.801988 -46.968127 
L 293.765787 -45.784406 
L 298.065625 -44.875396 
L 305.25106 -48.183227 
L 311.121988 -47.755615 
L 316.085787 -46.599266 
L 320.385625 -45.862504 
L 327.57106 -49.046149 
L 333.441988 -48.677763 
L 338.405787 -47.48336 
L 342.705625 -46.63944 
L 349.89106 -50.153064 
L 355.761988 -50.038743 
L 360.725787 -48.494818 
L 365.025625 -47.409714 
L 372.21106 -51.022435 
L 378.081988 -50.872818 
L 383.045787 -49.433508 
L 387.345625 -48.485622 
L 394.53106 -52.291618 
L 400.401988 -52.344028 
L 405.365787 -50.939888 
L 409.665625 -49.693665 
L 416.85106 -53.460081 
L 422.721988 -53.490935 
L 427.685787 -52.410127 
L 431.985625 -51.432343 
L 439.17106 -55.2559 
L 445.041988 -55.320061 
L 450.005787 -54.126107 
L 454.305625 -52.669601 
L 461.49106 -57.389867 
L 467.361988 -57.597985 
L 472.325787 -56.472333 
L 476.625625 -56.366738 
L 483.81106 -61.267993 
L 489.681988 -62.995008 
L 494.645787 -63.896049 
L 498.945625 -64.540001 
L 506.13106 -66.612757 
L 512.001988 -67.666562 
L 516.965787 -68.306592 
L 521.265625 -68.02436 
L 528.45106 -70.210362 
L 534.321988 -82.2629 
L 539.285787 -83.203882 
L 543.585625 -83.531758 
L 550.77106 -89.533458 
L 556.641988 -91.157926 
L 561.605787 -92.420955 
L 565.905625 -91.795628 
L 573.09106 -96.584196 
L 578.961988 -98.967806 
L 583.925787 -100.175376 
L 588.225625 -100.394309 
L 595.41106 -105.825507 
L 601.281988 -109.776325 
L 606.245787 -109.864456 
L 610.545625 -110.178298 
L 617.73106 -115.618112 
L 623.601988 -117.919982 
L 628.565787 -119.094493 
L 632.865625 -119.477729 
L 632.865625 -119.718679 
L 632.865625 -119.718679 
L 628.565787 -120.30048 
L 623.601988 -118.45703 
L 617.73106 -117.752431 
L 610.545625 -111.029466 
L 606.245787 -110.147062 
L 601.281988 -110.830821 
L 595.41106 -106.794832 
L 588.225625 -102.363862 
L 583.925787 -101.698254 
L 578.961988 -100.61364 
L 573.09106 -97.514315 
L 565.905625 -93.519088 
L 561.605787 -92.812212 
L 556.641988 -92.010502 
L 550.77106 -90.070316 
L 543.585625 -84.508313 
L 539.285787 -85.083999 
L 534.321988 -82.397239 
L 528.45106 -79.109344 
L 521.265625 -72.10904 
L 516.965787 -70.477321 
L 512.001988 -70.246368 
L 506.13106 -68.952181 
L 498.945625 -66.832613 
L 494.645787 -66.428042 
L 489.681988 -64.814718 
L 483.81106 -63.023197 
L 476.625625 -58.423283 
L 472.325787 -57.872512 
L 467.361988 -59.226354 
L 461.49106 -59.783254 
L 454.305625 -55.772283 
L 450.005787 -56.334088 
L 445.041988 -56.942807 
L 439.17106 -56.628632 
L 431.985625 -53.305962 
L 427.685787 -53.743331 
L 422.721988 -53.673741 
L 416.85106 -53.800258 
L 409.665625 -52.518497 
L 405.365787 -53.219161 
L 400.401988 -55.473055 
L 394.53106 -53.853237 
L 387.345625 -50.576112 
L 383.045787 -50.304097 
L 378.081988 -52.746707 
L 372.21106 -51.53253 
L 365.025625 -48.393513 
L 360.725787 -49.139584 
L 355.761988 -50.62949 
L 349.89106 -50.239424 
L 342.705625 -46.874693 
L 338.405787 -47.519379 
L 333.441988 -48.810816 
L 327.57106 -49.242467 
L 320.385625 -45.87804 
L 316.085787 -46.616407 
L 311.121988 -47.861426 
L 305.25106 -48.238318 
L 298.065625 -44.916548 
L 293.765787 -45.81071 
L 288.801988 -47.002027 
L 282.93106 -47.048213 
L 275.745625 -44.164564 
L 271.445787 -44.857289 
L 266.481988 -46.023579 
L 260.61106 -46.289584 
L 253.425625 -43.512682 
L 249.125787 -44.241295 
L 244.161988 -45.399036 
L 238.29106 -45.526521 
L 231.105625 -42.838658 
L 226.805787 -43.463206 
L 221.841988 -44.611263 
L 215.97106 -45.081926 
L 208.785625 -42.172543 
L 204.485787 -42.824358 
L 199.521988 -43.938671 
L 193.65106 -44.538505 
L 186.465625 -41.747016 
L 182.165787 -42.161695 
L 177.201988 -43.146901 
L 171.33106 -44.23065 
L 164.145625 -41.602278 
L 159.845787 -41.803214 
L 154.881988 -42.618324 
L 149.01106 -43.674603 
L 141.825625 -42.072198 
L 137.525787 -40.862974 
L 132.561988 -42.065245 
L 126.69106 -43.013739 
L 119.505625 -42.13548 
L 115.205787 -40.433605 
L 110.241988 -41.894106 
L 104.37106 -42.614438 
L 97.185625 -40.215649 
L 92.885787 -39.24136 
L 87.921988 -40.267482 
L 82.05106 -41.75003 
L 74.865625 -40.793077 
z
" style="stroke: #1f77b4; stroke-opacity: 0.2"/>
    </defs>
    <g clip-path="url(#p62f47a0293)">
     <use xlink:href="#m313b6164f8" x="0" y="420.790938" style="fill: #1f77b4; fill-opacity: 0.2; stroke: #1f77b4; stroke-opacity: 0.2"/>
    </g>
   </g>
   <g id="PolyCollection_3">
    <defs>
     <path id="me2fce2ab57" d="M 74.865625 -42.901204 
L 74.865625 -42.637946 
L 82.05106 -43.034941 
L 87.921988 -43.450401 
L 92.885787 -43.90113 
L 97.185625 -44.088501 
L 104.37106 -44.802893 
L 110.241988 -45.592148 
L 115.205787 -46.466572 
L 119.505625 -46.470647 
L 126.69106 -46.560301 
L 132.561988 -47.056088 
L 137.525787 -47.310204 
L 141.825625 -47.504674 
L 149.01106 -48.08634 
L 154.881988 -48.119569 
L 159.845787 -48.398688 
L 164.145625 -48.529749 
L 171.33106 -49.008781 
L 177.201988 -49.19008 
L 182.165787 -49.482908 
L 186.465625 -49.551664 
L 193.65106 -50.327042 
L 199.521988 -51.111449 
L 204.485787 -51.686796 
L 208.785625 -51.993602 
L 215.97106 -52.330831 
L 221.841988 -52.788522 
L 226.805787 -52.868363 
L 231.105625 -53.217009 
L 238.29106 -53.648281 
L 244.161988 -53.980039 
L 249.125787 -54.208561 
L 253.425625 -54.798441 
L 260.61106 -54.875392 
L 266.481988 -55.289059 
L 271.445787 -55.72494 
L 275.745625 -56.073925 
L 282.93106 -56.06499 
L 288.801988 -57.114926 
L 293.765787 -57.993176 
L 298.065625 -58.407809 
L 305.25106 -58.54596 
L 311.121988 -59.433949 
L 316.085787 -59.763766 
L 320.385625 -60.637283 
L 327.57106 -61.490303 
L 333.441988 -61.874446 
L 338.405787 -62.275461 
L 342.705625 -62.715001 
L 349.89106 -63.306395 
L 355.761988 -63.834798 
L 360.725787 -64.448667 
L 365.025625 -65.034113 
L 372.21106 -66.104059 
L 378.081988 -67.365536 
L 383.045787 -68.303095 
L 387.345625 -69.159267 
L 394.53106 -69.842054 
L 400.401988 -70.879681 
L 405.365787 -71.794086 
L 409.665625 -72.190984 
L 416.85106 -73.306307 
L 422.721988 -74.043981 
L 427.685787 -74.895597 
L 431.985625 -75.478916 
L 439.17106 -76.377316 
L 445.041988 -77.085933 
L 450.005787 -77.804213 
L 454.305625 -77.63097 
L 461.49106 -78.555105 
L 467.361988 -80.599752 
L 472.325787 -81.23453 
L 476.625625 -82.114142 
L 483.81106 -83.485705 
L 489.681988 -85.410849 
L 494.645787 -87.75202 
L 498.945625 -89.660544 
L 506.13106 -91.85208 
L 512.001988 -94.401846 
L 516.965787 -95.8708 
L 521.265625 -96.773942 
L 528.45106 -98.675376 
L 534.321988 -99.238673 
L 539.285787 -100.957415 
L 543.585625 -101.783857 
L 550.77106 -105.088397 
L 556.641988 -106.809233 
L 561.605787 -109.676448 
L 565.905625 -110.969132 
L 573.09106 -114.146578 
L 578.961988 -115.949867 
L 583.925787 -118.236075 
L 588.225625 -118.805513 
L 595.41106 -120.568801 
L 601.281988 -122.157237 
L 606.245787 -123.198827 
L 610.545625 -123.946578 
L 617.73106 -126.23339 
L 623.601988 -127.319125 
L 628.565787 -128.64353 
L 632.865625 -129.796663 
L 632.865625 -130.158251 
L 632.865625 -130.158251 
L 628.565787 -128.854413 
L 623.601988 -127.3736 
L 617.73106 -127.044774 
L 610.545625 -124.765551 
L 606.245787 -124.296876 
L 601.281988 -122.900969 
L 595.41106 -120.769273 
L 588.225625 -119.886049 
L 583.925787 -118.379698 
L 578.961988 -117.028327 
L 573.09106 -115.074996 
L 565.905625 -112.169155 
L 561.605787 -111.032292 
L 556.641988 -108.782029 
L 550.77106 -105.574373 
L 543.585625 -102.786255 
L 539.285787 -101.370308 
L 534.321988 -99.910219 
L 528.45106 -101.303493 
L 521.265625 -101.43417 
L 516.965787 -99.868218 
L 512.001988 -97.216115 
L 506.13106 -94.999932 
L 498.945625 -92.674617 
L 494.645787 -89.977011 
L 489.681988 -88.763405 
L 483.81106 -86.012422 
L 476.625625 -84.029326 
L 472.325787 -82.199258 
L 467.361988 -81.340214 
L 461.49106 -79.502774 
L 454.305625 -78.329072 
L 450.005787 -78.141945 
L 445.041988 -77.324956 
L 439.17106 -77.166829 
L 431.985625 -76.279263 
L 427.685787 -75.334129 
L 422.721988 -74.218992 
L 416.85106 -73.826749 
L 409.665625 -72.681486 
L 405.365787 -71.900963 
L 400.401988 -70.90664 
L 394.53106 -69.898805 
L 387.345625 -69.263094 
L 383.045787 -68.462718 
L 378.081988 -67.40062 
L 372.21106 -66.165092 
L 365.025625 -65.094794 
L 360.725787 -64.497153 
L 355.761988 -63.952663 
L 349.89106 -63.363732 
L 342.705625 -62.745283 
L 338.405787 -62.416352 
L 333.441988 -61.974009 
L 327.57106 -61.562176 
L 320.385625 -60.671315 
L 316.085787 -59.80806 
L 311.121988 -59.454588 
L 305.25106 -58.713142 
L 298.065625 -58.563103 
L 293.765787 -58.116794 
L 288.801988 -57.176158 
L 282.93106 -56.400188 
L 275.745625 -56.091644 
L 271.445787 -55.803255 
L 266.481988 -55.339004 
L 260.61106 -54.944276 
L 253.425625 -54.824573 
L 249.125787 -54.286809 
L 244.161988 -54.052427 
L 238.29106 -53.738719 
L 231.105625 -53.261015 
L 226.805787 -52.904287 
L 221.841988 -52.850616 
L 215.97106 -52.400144 
L 208.785625 -52.058914 
L 204.485787 -51.917292 
L 199.521988 -51.151009 
L 193.65106 -50.443905 
L 186.465625 -49.912947 
L 182.165787 -49.574298 
L 177.201988 -49.326686 
L 171.33106 -49.128044 
L 164.145625 -48.732254 
L 159.845787 -48.674837 
L 154.881988 -48.982951 
L 149.01106 -48.183028 
L 141.825625 -47.743059 
L 137.525787 -47.689389 
L 132.561988 -47.258586 
L 126.69106 -46.841006 
L 119.505625 -46.625251 
L 115.205787 -46.500678 
L 110.241988 -46.31077 
L 104.37106 -44.999848 
L 97.185625 -44.119483 
L 92.885787 -43.983776 
L 87.921988 -43.6363 
L 82.05106 -43.259323 
L 74.865625 -42.901204 
z
" style="stroke: #e377c2; stroke-opacity: 0.2"/>
    </defs>
    <g clip-path="url(#p62f47a0293)">
     <use xlink:href="#me2fce2ab57" x="0" y="420.790938" style="fill: #e377c2; fill-opacity: 0.2; stroke: #e377c2; stroke-opacity: 0.2"/>
    </g>
   </g>
   <g id="PolyCollection_4">
    <defs>
     <path id="ma72d9a0a1f" d="M 74.865625 -42.88659 
L 74.865625 -42.732605 
L 82.05106 -43.04122 
L 87.921988 -43.451787 
L 92.885787 -43.894818 
L 97.185625 -44.084482 
L 104.37106 -44.804415 
L 110.241988 -45.560045 
L 115.205787 -46.459623 
L 119.505625 -46.458339 
L 126.69106 -46.588771 
L 132.561988 -47.075821 
L 137.525787 -47.362122 
L 141.825625 -47.510479 
L 149.01106 -48.065911 
L 154.881988 -48.110305 
L 159.845787 -48.404975 
L 164.145625 -48.693459 
L 171.33106 -49.013405 
L 177.201988 -49.19106 
L 182.165787 -49.490319 
L 186.465625 -49.577343 
L 193.65106 -50.331935 
L 199.521988 -51.119685 
L 204.485787 -51.695924 
L 208.785625 -51.999331 
L 215.97106 -52.31848 
L 221.841988 -52.796117 
L 226.805787 -52.867237 
L 231.105625 -53.209458 
L 238.29106 -53.664023 
L 244.161988 -54.033138 
L 249.125787 -54.239377 
L 253.425625 -54.916502 
L 260.61106 -54.874554 
L 266.481988 -55.287555 
L 271.445787 -55.70606 
L 275.745625 -55.997609 
L 282.93106 -56.260665 
L 288.801988 -57.102882 
L 293.765787 -57.882254 
L 298.065625 -58.434152 
L 305.25106 -58.557083 
L 311.121988 -59.485131 
L 316.085787 -59.80843 
L 320.385625 -60.532426 
L 327.57106 -61.514972 
L 333.441988 -61.913755 
L 338.405787 -62.290795 
L 342.705625 -62.764952 
L 349.89106 -63.274099 
L 355.761988 -63.86219 
L 360.725787 -64.402873 
L 365.025625 -65.084235 
L 372.21106 -66.207689 
L 378.081988 -67.328122 
L 383.045787 -68.30162 
L 387.345625 -69.176906 
L 394.53106 -69.839071 
L 400.401988 -70.86011 
L 405.365787 -71.718717 
L 409.665625 -72.024694 
L 416.85106 -73.271861 
L 422.721988 -73.80467 
L 427.685787 -74.701361 
L 431.985625 -75.464626 
L 439.17106 -76.386154 
L 445.041988 -77.019051 
L 450.005787 -77.699227 
L 454.305625 -77.466002 
L 461.49106 -78.685377 
L 467.361988 -79.7333 
L 472.325787 -81.20378 
L 476.625625 -81.869608 
L 483.81106 -83.182664 
L 489.681988 -85.447883 
L 494.645787 -87.896639 
L 498.945625 -89.543813 
L 506.13106 -92.040365 
L 512.001988 -94.098912 
L 516.965787 -95.837896 
L 521.265625 -96.813044 
L 528.45106 -98.248459 
L 534.321988 -99.803125 
L 539.285787 -100.757563 
L 543.585625 -102.216454 
L 550.77106 -103.691007 
L 556.641988 -106.851599 
L 561.605787 -109.33617 
L 565.905625 -110.797928 
L 573.09106 -113.842345 
L 578.961988 -115.987618 
L 583.925787 -117.501609 
L 588.225625 -118.688768 
L 595.41106 -120.620049 
L 601.281988 -122.258646 
L 606.245787 -123.341302 
L 610.545625 -124.085398 
L 617.73106 -125.96852 
L 623.601988 -127.183105 
L 628.565787 -128.665004 
L 632.865625 -129.43573 
L 632.865625 -129.795813 
L 632.865625 -129.795813 
L 628.565787 -128.946693 
L 623.601988 -127.720338 
L 617.73106 -127.081572 
L 610.545625 -124.806155 
L 606.245787 -124.171172 
L 601.281988 -122.788158 
L 595.41106 -121.232866 
L 588.225625 -119.594259 
L 583.925787 -118.93988 
L 578.961988 -116.951151 
L 573.09106 -114.743929 
L 565.905625 -112.914153 
L 561.605787 -110.528741 
L 556.641988 -107.102379 
L 550.77106 -105.467471 
L 543.585625 -102.904449 
L 539.285787 -101.450958 
L 534.321988 -99.962936 
L 528.45106 -98.645498 
L 521.265625 -97.020471 
L 516.965787 -98.032312 
L 512.001988 -94.419426 
L 506.13106 -92.515266 
L 498.945625 -90.094879 
L 494.645787 -88.513572 
L 489.681988 -87.270637 
L 483.81106 -86.237964 
L 476.625625 -84.140077 
L 472.325787 -82.460009 
L 467.361988 -80.41153 
L 461.49106 -78.960327 
L 454.305625 -78.060701 
L 450.005787 -77.81148 
L 445.041988 -77.25797 
L 439.17106 -76.552459 
L 431.985625 -75.815518 
L 427.685787 -75.048316 
L 422.721988 -74.296582 
L 416.85106 -73.389222 
L 409.665625 -72.117759 
L 405.365787 -71.773353 
L 400.401988 -70.929904 
L 394.53106 -69.941357 
L 387.345625 -69.298209 
L 383.045787 -68.427121 
L 378.081988 -67.389332 
L 372.21106 -66.27383 
L 365.025625 -65.145656 
L 360.725787 -64.573505 
L 355.761988 -63.901171 
L 349.89106 -63.315602 
L 342.705625 -62.789417 
L 338.405787 -62.364019 
L 333.441988 -61.959269 
L 327.57106 -61.552454 
L 320.385625 -60.666482 
L 316.085787 -60.021056 
L 311.121988 -59.536352 
L 305.25106 -58.71903 
L 298.065625 -58.597988 
L 293.765787 -58.091026 
L 288.801988 -57.172464 
L 282.93106 -56.40605 
L 275.745625 -56.056184 
L 271.445787 -55.89077 
L 266.481988 -55.34945 
L 260.61106 -54.911355 
L 253.425625 -54.945726 
L 249.125787 -54.301108 
L 244.161988 -54.047767 
L 238.29106 -53.719553 
L 231.105625 -53.247878 
L 226.805787 -52.909357 
L 221.841988 -52.831311 
L 215.97106 -52.395358 
L 208.785625 -52.076299 
L 204.485787 -51.919226 
L 199.521988 -51.167088 
L 193.65106 -50.432812 
L 186.465625 -49.819518 
L 182.165787 -49.592668 
L 177.201988 -49.359972 
L 171.33106 -49.159024 
L 164.145625 -48.861573 
L 159.845787 -48.562044 
L 154.881988 -48.969551 
L 149.01106 -48.153901 
L 141.825625 -47.743739 
L 137.525787 -47.660794 
L 132.561988 -47.312538 
L 126.69106 -46.920895 
L 119.505625 -46.69096 
L 115.205787 -46.500658 
L 110.241988 -46.306503 
L 104.37106 -45.015551 
L 97.185625 -44.123347 
L 92.885787 -43.991282 
L 87.921988 -43.626525 
L 82.05106 -43.254723 
L 74.865625 -42.88659 
z
" style="stroke: #8c564b; stroke-opacity: 0.2"/>
    </defs>
    <g clip-path="url(#p62f47a0293)">
     <use xlink:href="#ma72d9a0a1f" x="0" y="420.790938" style="fill: #8c564b; fill-opacity: 0.2; stroke: #8c564b; stroke-opacity: 0.2"/>
    </g>
   </g>
   <g id="matplotlib.axis_3">
    <g id="xtick_15">
     <g id="line2d_18">
      <path d="M 52.545625 383.234688 
L 52.545625 50.594688 
" clip-path="url(#p62f47a0293)" style="fill: none; stroke: #b0b0b0; stroke-opacity: 0.4; stroke-width: 0.8; stroke-linecap: square"/>
     </g>
     <g id="line2d_19">
      <defs>
       <path id="m8c693a2bfa" d="M 0 0 
L 0 3.5 
" style="stroke: #000000; stroke-width: 0.8"/>
      </defs>
      <g>
       <use xlink:href="#m8c693a2bfa" x="52.545625" y="383.234688" style="stroke: #000000; stroke-width: 0.8"/>
      </g>
     </g>
     <g id="text_16">
      <!-- $\mathdefault{2^{4}}$ -->
      <g transform="translate(46.945625 397.833125) scale(0.1 -0.1)">
       <use xlink:href="#DejaVuSans-32" transform="translate(0 0.684375)"/>
       <use xlink:href="#DejaVuSans-34" transform="translate(64.580078 38.965625) scale(0.7)"/>
      </g>
     </g>
    </g>
    <g id="xtick_16">
     <g id="line2d_20">
      <path d="M 97.185625 383.234688 
L 97.185625 50.594688 
" clip-path="url(#p62f47a0293)" style="fill: none; stroke: #b0b0b0; stroke-opacity: 0.4; stroke-width: 0.8; stroke-linecap: square"/>
     </g>
     <g id="line2d_21">
      <g>
       <use xlink:href="#m8c693a2bfa" x="97.185625" y="383.234688" style="stroke: #000000; stroke-width: 0.8"/>
      </g>
     </g>
     <g id="text_17">
      <!-- $\mathdefault{2^{6}}$ -->
      <g transform="translate(91.585625 397.833125) scale(0.1 -0.1)">
       <use xlink:href="#DejaVuSans-32" transform="translate(0 0.765625)"/>
       <use xlink:href="#DejaVuSans-36" transform="translate(64.580078 39.046875) scale(0.7)"/>
      </g>
     </g>
    </g>
    <g id="xtick_17">
     <g id="line2d_22">
      <path d="M 141.825625 383.234688 
L 141.825625 50.594688 
" clip-path="url(#p62f47a0293)" style="fill: none; stroke: #b0b0b0; stroke-opacity: 0.4; stroke-width: 0.8; stroke-linecap: square"/>
     </g>
     <g id="line2d_23">
      <g>
       <use xlink:href="#m8c693a2bfa" x="141.825625" y="383.234688" style="stroke: #000000; stroke-width: 0.8"/>
      </g>
     </g>
     <g id="text_18">
      <!-- $\mathdefault{2^{8}}$ -->
      <g transform="translate(136.225625 397.833125) scale(0.1 -0.1)">
       <use xlink:href="#DejaVuSans-32" transform="translate(0 0.765625)"/>
       <use xlink:href="#DejaVuSans-38" transform="translate(64.580078 39.046875) scale(0.7)"/>
      </g>
     </g>
    </g>
    <g id="xtick_18">
     <g id="line2d_24">
      <path d="M 186.465625 383.234688 
L 186.465625 50.594688 
" clip-path="url(#p62f47a0293)" style="fill: none; stroke: #b0b0b0; stroke-opacity: 0.4; stroke-width: 0.8; stroke-linecap: square"/>
     </g>
     <g id="line2d_25">
      <g>
       <use xlink:href="#m8c693a2bfa" x="186.465625" y="383.234688" style="stroke: #000000; stroke-width: 0.8"/>
      </g>
     </g>
     <g id="text_19">
      <!-- $\mathdefault{2^{10}}$ -->
      <g transform="translate(178.615625 397.833125) scale(0.1 -0.1)">
       <use xlink:href="#DejaVuSans-32" transform="translate(0 0.765625)"/>
       <use xlink:href="#DejaVuSans-31" transform="translate(64.580078 39.046875) scale(0.7)"/>
       <use xlink:href="#DejaVuSans-30" transform="translate(109.116211 39.046875) scale(0.7)"/>
      </g>
     </g>
    </g>
    <g id="xtick_19">
     <g id="line2d_26">
      <path d="M 231.105625 383.234688 
L 231.105625 50.594688 
" clip-path="url(#p62f47a0293)" style="fill: none; stroke: #b0b0b0; stroke-opacity: 0.4; stroke-width: 0.8; stroke-linecap: square"/>
     </g>
     <g id="line2d_27">
      <g>
       <use xlink:href="#m8c693a2bfa" x="231.105625" y="383.234688" style="stroke: #000000; stroke-width: 0.8"/>
      </g>
     </g>
     <g id="text_20">
      <!-- $\mathdefault{2^{12}}$ -->
      <g transform="translate(223.255625 397.833125) scale(0.1 -0.1)">
       <use xlink:href="#DejaVuSans-32" transform="translate(0 0.765625)"/>
       <use xlink:href="#DejaVuSans-31" transform="translate(64.580078 39.046875) scale(0.7)"/>
       <use xlink:href="#DejaVuSans-32" transform="translate(109.116211 39.046875) scale(0.7)"/>
      </g>
     </g>
    </g>
    <g id="xtick_20">
     <g id="line2d_28">
      <path d="M 275.745625 383.234688 
L 275.745625 50.594688 
" clip-path="url(#p62f47a0293)" style="fill: none; stroke: #b0b0b0; stroke-opacity: 0.4; stroke-width: 0.8; stroke-linecap: square"/>
     </g>
     <g id="line2d_29">
      <g>
       <use xlink:href="#m8c693a2bfa" x="275.745625" y="383.234688" style="stroke: #000000; stroke-width: 0.8"/>
      </g>
     </g>
     <g id="text_21">
      <!-- $\mathdefault{2^{14}}$ -->
      <g transform="translate(267.895625 397.833125) scale(0.1 -0.1)">
       <use xlink:href="#DejaVuSans-32" transform="translate(0 0.684375)"/>
       <use xlink:href="#DejaVuSans-31" transform="translate(64.580078 38.965625) scale(0.7)"/>
       <use xlink:href="#DejaVuSans-34" transform="translate(109.116211 38.965625) scale(0.7)"/>
      </g>
     </g>
    </g>
    <g id="xtick_21">
     <g id="line2d_30">
      <path d="M 320.385625 383.234688 
L 320.385625 50.594688 
" clip-path="url(#p62f47a0293)" style="fill: none; stroke: #b0b0b0; stroke-opacity: 0.4; stroke-width: 0.8; stroke-linecap: square"/>
     </g>
     <g id="line2d_31">
      <g>
       <use xlink:href="#m8c693a2bfa" x="320.385625" y="383.234688" style="stroke: #000000; stroke-width: 0.8"/>
      </g>
     </g>
     <g id="text_22">
      <!-- $\mathdefault{2^{16}}$ -->
      <g transform="translate(312.535625 397.833125) scale(0.1 -0.1)">
       <use xlink:href="#DejaVuSans-32" transform="translate(0 0.765625)"/>
       <use xlink:href="#DejaVuSans-31" transform="translate(64.580078 39.046875) scale(0.7)"/>
       <use xlink:href="#DejaVuSans-36" transform="translate(109.116211 39.046875) scale(0.7)"/>
      </g>
     </g>
    </g>
    <g id="xtick_22">
     <g id="line2d_32">
      <path d="M 365.025625 383.234688 
L 365.025625 50.594688 
" clip-path="url(#p62f47a0293)" style="fill: none; stroke: #b0b0b0; stroke-opacity: 0.4; stroke-width: 0.8; stroke-linecap: square"/>
     </g>
     <g id="line2d_33">
      <g>
       <use xlink:href="#m8c693a2bfa" x="365.025625" y="383.234688" style="stroke: #000000; stroke-width: 0.8"/>
      </g>
     </g>
     <g id="text_23">
      <!-- $\mathdefault{2^{18}}$ -->
      <g transform="translate(357.175625 397.833125) scale(0.1 -0.1)">
       <use xlink:href="#DejaVuSans-32" transform="translate(0 0.765625)"/>
       <use xlink:href="#DejaVuSans-31" transform="translate(64.580078 39.046875) scale(0.7)"/>
       <use xlink:href="#DejaVuSans-38" transform="translate(109.116211 39.046875) scale(0.7)"/>
      </g>
     </g>
    </g>
    <g id="xtick_23">
     <g id="line2d_34">
      <path d="M 409.665625 383.234688 
L 409.665625 50.594688 
" clip-path="url(#p62f47a0293)" style="fill: none; stroke: #b0b0b0; stroke-opacity: 0.4; stroke-width: 0.8; stroke-linecap: square"/>
     </g>
     <g id="line2d_35">
      <g>
       <use xlink:href="#m8c693a2bfa" x="409.665625" y="383.234688" style="stroke: #000000; stroke-width: 0.8"/>
      </g>
     </g>
     <g id="text_24">
      <!-- $\mathdefault{2^{20}}$ -->
      <g transform="translate(401.815625 397.833125) scale(0.1 -0.1)">
       <use xlink:href="#DejaVuSans-32" transform="translate(0 0.765625)"/>
       <use xlink:href="#DejaVuSans-32" transform="translate(64.580078 39.046875) scale(0.7)"/>
       <use xlink:href="#DejaVuSans-30" transform="translate(109.116211 39.046875) scale(0.7)"/>
      </g>
     </g>
    </g>
    <g id="xtick_24">
     <g id="line2d_36">
      <path d="M 454.305625 383.234688 
L 454.305625 50.594688 
" clip-path="url(#p62f47a0293)" style="fill: none; stroke: #b0b0b0; stroke-opacity: 0.4; stroke-width: 0.8; stroke-linecap: square"/>
     </g>
     <g id="line2d_37">
      <g>
       <use xlink:href="#m8c693a2bfa" x="454.305625" y="383.234688" style="stroke: #000000; stroke-width: 0.8"/>
      </g>
     </g>
     <g id="text_25">
      <!-- $\mathdefault{2^{22}}$ -->
      <g transform="translate(446.455625 397.833125) scale(0.1 -0.1)">
       <use xlink:href="#DejaVuSans-32" transform="translate(0 0.765625)"/>
       <use xlink:href="#DejaVuSans-32" transform="translate(64.580078 39.046875) scale(0.7)"/>
       <use xlink:href="#DejaVuSans-32" transform="translate(109.116211 39.046875) scale(0.7)"/>
      </g>
     </g>
    </g>
    <g id="xtick_25">
     <g id="line2d_38">
      <path d="M 498.945625 383.234688 
L 498.945625 50.594688 
" clip-path="url(#p62f47a0293)" style="fill: none; stroke: #b0b0b0; stroke-opacity: 0.4; stroke-width: 0.8; stroke-linecap: square"/>
     </g>
     <g id="line2d_39">
      <g>
       <use xlink:href="#m8c693a2bfa" x="498.945625" y="383.234688" style="stroke: #000000; stroke-width: 0.8"/>
      </g>
     </g>
     <g id="text_26">
      <!-- $\mathdefault{2^{24}}$ -->
      <g transform="translate(491.095625 397.833125) scale(0.1 -0.1)">
       <use xlink:href="#DejaVuSans-32" transform="translate(0 0.765625)"/>
       <use xlink:href="#DejaVuSans-32" transform="translate(64.580078 39.046875) scale(0.7)"/>
       <use xlink:href="#DejaVuSans-34" transform="translate(109.116211 39.046875) scale(0.7)"/>
      </g>
     </g>
    </g>
    <g id="xtick_26">
     <g id="line2d_40">
      <path d="M 543.585625 383.234688 
L 543.585625 50.594688 
" clip-path="url(#p62f47a0293)" style="fill: none; stroke: #b0b0b0; stroke-opacity: 0.4; stroke-width: 0.8; stroke-linecap: square"/>
     </g>
     <g id="line2d_41">
      <g>
       <use xlink:href="#m8c693a2bfa" x="543.585625" y="383.234688" style="stroke: #000000; stroke-width: 0.8"/>
      </g>
     </g>
     <g id="text_27">
      <!-- $\mathdefault{2^{26}}$ -->
      <g transform="translate(535.735625 397.833125) scale(0.1 -0.1)">
       <use xlink:href="#DejaVuSans-32" transform="translate(0 0.765625)"/>
       <use xlink:href="#DejaVuSans-32" transform="translate(64.580078 39.046875) scale(0.7)"/>
       <use xlink:href="#DejaVuSans-36" transform="translate(109.116211 39.046875) scale(0.7)"/>
      </g>
     </g>
    </g>
    <g id="xtick_27">
     <g id="line2d_42">
      <path d="M 588.225625 383.234688 
L 588.225625 50.594688 
" clip-path="url(#p62f47a0293)" style="fill: none; stroke: #b0b0b0; stroke-opacity: 0.4; stroke-width: 0.8; stroke-linecap: square"/>
     </g>
     <g id="line2d_43">
      <g>
       <use xlink:href="#m8c693a2bfa" x="588.225625" y="383.234688" style="stroke: #000000; stroke-width: 0.8"/>
      </g>
     </g>
     <g id="text_28">
      <!-- $\mathdefault{2^{28}}$ -->
      <g transform="translate(580.375625 397.833125) scale(0.1 -0.1)">
       <use xlink:href="#DejaVuSans-32" transform="translate(0 0.765625)"/>
       <use xlink:href="#DejaVuSans-32" transform="translate(64.580078 39.046875) scale(0.7)"/>
       <use xlink:href="#DejaVuSans-38" transform="translate(109.116211 39.046875) scale(0.7)"/>
      </g>
     </g>
    </g>
    <g id="xtick_28">
     <g id="line2d_44">
      <path d="M 632.865625 383.234688 
L 632.865625 50.594688 
" clip-path="url(#p62f47a0293)" style="fill: none; stroke: #b0b0b0; stroke-opacity: 0.4; stroke-width: 0.8; stroke-linecap: square"/>
     </g>
     <g id="line2d_45">
      <g>
       <use xlink:href="#m8c693a2bfa" x="632.865625" y="383.234688" style="stroke: #000000; stroke-width: 0.8"/>
      </g>
     </g>
     <g id="text_29">
      <!-- $\mathdefault{2^{30}}$ -->
      <g transform="translate(625.015625 397.833125) scale(0.1 -0.1)">
       <use xlink:href="#DejaVuSans-32" transform="translate(0 0.765625)"/>
       <use xlink:href="#DejaVuSans-33" transform="translate(64.580078 39.046875) scale(0.7)"/>
       <use xlink:href="#DejaVuSans-30" transform="translate(109.116211 39.046875) scale(0.7)"/>
      </g>
     </g>
    </g>
    <g id="text_30">
     <!-- Array Size (bytes) -->
     <g transform="translate(309.279688 411.51125) scale(0.1 -0.1)">
      <defs>
       <path id="DejaVuSans-53" d="M 3425 4513 
L 3425 3897 
Q 3066 4069 2747 4153 
Q 2428 4238 2131 4238 
Q 1616 4238 1336 4038 
Q 1056 3838 1056 3469 
Q 1056 3159 1242 3001 
Q 1428 2844 1947 2747 
L 2328 2669 
Q 3034 2534 3370 2195 
Q 3706 1856 3706 1288 
Q 3706 609 3251 259 
Q 2797 -91 1919 -91 
Q 1588 -91 1214 -16 
Q 841 59 441 206 
L 441 856 
Q 825 641 1194 531 
Q 1563 422 1919 422 
Q 2459 422 2753 634 
Q 3047 847 3047 1241 
Q 3047 1584 2836 1778 
Q 2625 1972 2144 2069 
L 1759 2144 
Q 1053 2284 737 2584 
Q 422 2884 422 3419 
Q 422 4038 858 4394 
Q 1294 4750 2059 4750 
Q 2388 4750 2728 4690 
Q 3069 4631 3425 4513 
z
" transform="scale(0.015625)"/>
       <path id="DejaVuSans-69" d="M 603 3500 
L 1178 3500 
L 1178 0 
L 603 0 
L 603 3500 
z
M 603 4863 
L 1178 4863 
L 1178 4134 
L 603 4134 
L 603 4863 
z
" transform="scale(0.015625)"/>
       <path id="DejaVuSans-7a" d="M 353 3500 
L 3084 3500 
L 3084 2975 
L 922 459 
L 3084 459 
L 3084 0 
L 275 0 
L 275 525 
L 2438 3041 
L 353 3041 
L 353 3500 
z
" transform="scale(0.015625)"/>
       <path id="DejaVuSans-62" d="M 3116 1747 
Q 3116 2381 2855 2742 
Q 2594 3103 2138 3103 
Q 1681 3103 1420 2742 
Q 1159 2381 1159 1747 
Q 1159 1113 1420 752 
Q 1681 391 2138 391 
Q 2594 391 2855 752 
Q 3116 1113 3116 1747 
z
M 1159 2969 
Q 1341 3281 1617 3432 
Q 1894 3584 2278 3584 
Q 2916 3584 3314 3078 
Q 3713 2572 3713 1747 
Q 3713 922 3314 415 
Q 2916 -91 2278 -91 
Q 1894 -91 1617 61 
Q 1341 213 1159 525 
L 1159 0 
L 581 0 
L 581 4863 
L 1159 4863 
L 1159 2969 
z
" transform="scale(0.015625)"/>
       <path id="DejaVuSans-73" d="M 2834 3397 
L 2834 2853 
Q 2591 2978 2328 3040 
Q 2066 3103 1784 3103 
Q 1356 3103 1142 2972 
Q 928 2841 928 2578 
Q 928 2378 1081 2264 
Q 1234 2150 1697 2047 
L 1894 2003 
Q 2506 1872 2764 1633 
Q 3022 1394 3022 966 
Q 3022 478 2636 193 
Q 2250 -91 1575 -91 
Q 1294 -91 989 -36 
Q 684 19 347 128 
L 347 722 
Q 666 556 975 473 
Q 1284 391 1588 391 
Q 1994 391 2212 530 
Q 2431 669 2431 922 
Q 2431 1156 2273 1281 
Q 2116 1406 1581 1522 
L 1381 1569 
Q 847 1681 609 1914 
Q 372 2147 372 2553 
Q 372 3047 722 3315 
Q 1072 3584 1716 3584 
Q 2034 3584 2315 3537 
Q 2597 3491 2834 3397 
z
" transform="scale(0.015625)"/>
      </defs>
      <use xlink:href="#DejaVuSans-41"/>
      <use xlink:href="#DejaVuSans-72" x="68.408203"/>
      <use xlink:href="#DejaVuSans-72" x="107.771484"/>
      <use xlink:href="#DejaVuSans-61" x="148.884766"/>
      <use xlink:href="#DejaVuSans-79" x="210.164062"/>
      <use xlink:href="#DejaVuSans-20" x="269.34375"/>
      <use xlink:href="#DejaVuSans-53" x="301.130859"/>
      <use xlink:href="#DejaVuSans-69" x="364.607422"/>
      <use xlink:href="#DejaVuSans-7a" x="392.390625"/>
      <use xlink:href="#DejaVuSans-65" x="444.880859"/>
      <use xlink:href="#DejaVuSans-20" x="506.404297"/>
      <use xlink:href="#DejaVuSans-28" x="538.191406"/>
      <use xlink:href="#DejaVuSans-62" x="577.205078"/>
      <use xlink:href="#DejaVuSans-79" x="640.681641"/>
      <use xlink:href="#DejaVuSans-74" x="699.861328"/>
      <use xlink:href="#DejaVuSans-65" x="739.070312"/>
      <use xlink:href="#DejaVuSans-73" x="800.59375"/>
      <use xlink:href="#DejaVuSans-29" x="852.693359"/>
     </g>
    </g>
   </g>
   <g id="matplotlib.axis_4">
    <g id="ytick_1">
     <g id="line2d_46">
      <path d="M 46.965625 383.234688 
L 660.765625 383.234688 
" clip-path="url(#p62f47a0293)" style="fill: none; stroke: #b0b0b0; stroke-opacity: 0.4; stroke-width: 0.8; stroke-linecap: square"/>
     </g>
     <g id="line2d_47">
      <defs>
       <path id="mc3bbf77d27" d="M 0 0 
L -3.5 0 
" style="stroke: #000000; stroke-width: 0.8"/>
      </defs>
      <g>
       <use xlink:href="#mc3bbf77d27" x="46.965625" y="383.234688" style="stroke: #000000; stroke-width: 0.8"/>
      </g>
     </g>
     <g id="text_31">
      <!-- 0 -->
      <g transform="translate(33.603125 387.033906) scale(0.1 -0.1)">
       <use xlink:href="#DejaVuSans-30"/>
      </g>
     </g>
    </g>
    <g id="ytick_2">
     <g id="line2d_48">
      <path d="M 46.965625 314.272155 
L 660.765625 314.272155 
" clip-path="url(#p62f47a0293)" style="fill: none; stroke: #b0b0b0; stroke-opacity: 0.4; stroke-width: 0.8; stroke-linecap: square"/>
     </g>
     <g id="line2d_49">
      <g>
       <use xlink:href="#mc3bbf77d27" x="46.965625" y="314.272155" style="stroke: #000000; stroke-width: 0.8"/>
      </g>
     </g>
     <g id="text_32">
      <!-- 200 -->
      <g transform="translate(20.878125 318.071374) scale(0.1 -0.1)">
       <use xlink:href="#DejaVuSans-32"/>
       <use xlink:href="#DejaVuSans-30" x="63.623047"/>
       <use xlink:href="#DejaVuSans-30" x="127.246094"/>
      </g>
     </g>
    </g>
    <g id="ytick_3">
     <g id="line2d_50">
      <path d="M 46.965625 245.309622 
L 660.765625 245.309622 
" clip-path="url(#p62f47a0293)" style="fill: none; stroke: #b0b0b0; stroke-opacity: 0.4; stroke-width: 0.8; stroke-linecap: square"/>
     </g>
     <g id="line2d_51">
      <g>
       <use xlink:href="#mc3bbf77d27" x="46.965625" y="245.309622" style="stroke: #000000; stroke-width: 0.8"/>
      </g>
     </g>
     <g id="text_33">
      <!-- 400 -->
      <g transform="translate(20.878125 249.108841) scale(0.1 -0.1)">
       <use xlink:href="#DejaVuSans-34"/>
       <use xlink:href="#DejaVuSans-30" x="63.623047"/>
       <use xlink:href="#DejaVuSans-30" x="127.246094"/>
      </g>
     </g>
    </g>
    <g id="ytick_4">
     <g id="line2d_52">
      <path d="M 46.965625 176.34709 
L 660.765625 176.34709 
" clip-path="url(#p62f47a0293)" style="fill: none; stroke: #b0b0b0; stroke-opacity: 0.4; stroke-width: 0.8; stroke-linecap: square"/>
     </g>
     <g id="line2d_53">
      <g>
       <use xlink:href="#mc3bbf77d27" x="46.965625" y="176.34709" style="stroke: #000000; stroke-width: 0.8"/>
      </g>
     </g>
     <g id="text_34">
      <!-- 600 -->
      <g transform="translate(20.878125 180.146309) scale(0.1 -0.1)">
       <use xlink:href="#DejaVuSans-36"/>
       <use xlink:href="#DejaVuSans-30" x="63.623047"/>
       <use xlink:href="#DejaVuSans-30" x="127.246094"/>
      </g>
     </g>
    </g>
    <g id="ytick_5">
     <g id="line2d_54">
      <path d="M 46.965625 107.384557 
L 660.765625 107.384557 
" clip-path="url(#p62f47a0293)" style="fill: none; stroke: #b0b0b0; stroke-opacity: 0.4; stroke-width: 0.8; stroke-linecap: square"/>
     </g>
     <g id="line2d_55">
      <g>
       <use xlink:href="#mc3bbf77d27" x="46.965625" y="107.384557" style="stroke: #000000; stroke-width: 0.8"/>
      </g>
     </g>
     <g id="text_35">
      <!-- 800 -->
      <g transform="translate(20.878125 111.183776) scale(0.1 -0.1)">
       <use xlink:href="#DejaVuSans-38"/>
       <use xlink:href="#DejaVuSans-30" x="63.623047"/>
       <use xlink:href="#DejaVuSans-30" x="127.246094"/>
      </g>
     </g>
    </g>
    <g id="text_36">
     <!-- Inverse throughput (ns) -->
     <g transform="translate(14.798438 276.130313) rotate(-90) scale(0.1 -0.1)">
      <defs>
       <path id="DejaVuSans-49" d="M 628 4666 
L 1259 4666 
L 1259 0 
L 628 0 
L 628 4666 
z
" transform="scale(0.015625)"/>
       <path id="DejaVuSans-76" d="M 191 3500 
L 800 3500 
L 1894 563 
L 2988 3500 
L 3597 3500 
L 2284 0 
L 1503 0 
L 191 3500 
z
" transform="scale(0.015625)"/>
       <path id="DejaVuSans-6f" d="M 1959 3097 
Q 1497 3097 1228 2736 
Q 959 2375 959 1747 
Q 959 1119 1226 758 
Q 1494 397 1959 397 
Q 2419 397 2687 759 
Q 2956 1122 2956 1747 
Q 2956 2369 2687 2733 
Q 2419 3097 1959 3097 
z
M 1959 3584 
Q 2709 3584 3137 3096 
Q 3566 2609 3566 1747 
Q 3566 888 3137 398 
Q 2709 -91 1959 -91 
Q 1206 -91 779 398 
Q 353 888 353 1747 
Q 353 2609 779 3096 
Q 1206 3584 1959 3584 
z
" transform="scale(0.015625)"/>
       <path id="DejaVuSans-70" d="M 1159 525 
L 1159 -1331 
L 581 -1331 
L 581 3500 
L 1159 3500 
L 1159 2969 
Q 1341 3281 1617 3432 
Q 1894 3584 2278 3584 
Q 2916 3584 3314 3078 
Q 3713 2572 3713 1747 
Q 3713 922 3314 415 
Q 2916 -91 2278 -91 
Q 1894 -91 1617 61 
Q 1341 213 1159 525 
z
M 3116 1747 
Q 3116 2381 2855 2742 
Q 2594 3103 2138 3103 
Q 1681 3103 1420 2742 
Q 1159 2381 1159 1747 
Q 1159 1113 1420 752 
Q 1681 391 2138 391 
Q 2594 391 2855 752 
Q 3116 1113 3116 1747 
z
" transform="scale(0.015625)"/>
      </defs>
      <use xlink:href="#DejaVuSans-49"/>
      <use xlink:href="#DejaVuSans-6e" x="29.492188"/>
      <use xlink:href="#DejaVuSans-76" x="92.871094"/>
      <use xlink:href="#DejaVuSans-65" x="152.050781"/>
      <use xlink:href="#DejaVuSans-72" x="213.574219"/>
      <use xlink:href="#DejaVuSans-73" x="254.6875"/>
      <use xlink:href="#DejaVuSans-65" x="306.787109"/>
      <use xlink:href="#DejaVuSans-20" x="368.310547"/>
      <use xlink:href="#DejaVuSans-74" x="400.097656"/>
      <use xlink:href="#DejaVuSans-68" x="439.306641"/>
      <use xlink:href="#DejaVuSans-72" x="502.685547"/>
      <use xlink:href="#DejaVuSans-6f" x="541.548828"/>
      <use xlink:href="#DejaVuSans-75" x="602.730469"/>
      <use xlink:href="#DejaVuSans-67" x="666.109375"/>
      <use xlink:href="#DejaVuSans-68" x="729.585938"/>
      <use xlink:href="#DejaVuSans-70" x="792.964844"/>
      <use xlink:href="#DejaVuSans-75" x="856.441406"/>
      <use xlink:href="#DejaVuSans-74" x="919.820312"/>
      <use xlink:href="#DejaVuSans-20" x="959.029297"/>
      <use xlink:href="#DejaVuSans-28" x="990.816406"/>
      <use xlink:href="#DejaVuSans-6e" x="1029.830078"/>
      <use xlink:href="#DejaVuSans-73" x="1093.208984"/>
      <use xlink:href="#DejaVuSans-29" x="1145.308594"/>
     </g>
    </g>
   </g>
   <g id="line2d_56">
    <path d="M 74.865625 381.526575 
L 82.05106 381.02409 
L 87.921988 381.026765 
L 92.885787 381.030371 
L 97.185625 381.0287 
L 104.37106 380.441742 
L 110.241988 380.463081 
L 115.205787 380.445178 
L 119.505625 380.437273 
L 126.69106 379.935881 
L 132.561988 379.937487 
L 137.525787 379.938912 
L 141.825625 379.939085 
L 149.01106 379.358821 
L 154.881988 379.362016 
L 159.845787 379.35719 
L 164.145625 379.357156 
L 171.33106 378.462933 
L 177.201988 378.465318 
L 182.165787 378.457994 
L 186.465625 378.463301 
L 193.65106 377.77854 
L 199.521988 377.772427 
L 204.485787 377.777398 
L 208.785625 377.764946 
L 215.97106 377.14511 
L 221.841988 377.148491 
L 226.805787 377.147666 
L 231.105625 377.139243 
L 238.29106 376.561252 
L 244.161988 376.564347 
L 249.125787 376.564188 
L 253.425625 376.561374 
L 260.61106 375.923839 
L 266.481988 375.924895 
L 271.445787 375.925689 
L 275.745625 375.923733 
L 282.93106 375.269807 
L 288.801988 375.258587 
L 293.765787 375.215047 
L 298.065625 375.076783 
L 305.25106 374.061828 
L 311.121988 373.860792 
L 316.085787 373.7233 
L 320.385625 372.240617 
L 327.57106 372.22625 
L 333.441988 371.768129 
L 338.405787 371.856772 
L 342.705625 369.874848 
L 349.89106 369.997356 
L 355.761988 368.888613 
L 360.725787 369.416527 
L 365.025625 367.122063 
L 372.21106 366.073289 
L 378.081988 364.592518 
L 383.045787 364.265797 
L 387.345625 352.686894 
L 394.53106 360.99458 
L 400.401988 358.370249 
L 405.365787 359.235231 
L 409.665625 343.791254 
L 416.85106 353.660607 
L 422.721988 345.641468 
L 427.685787 351.30374 
L 431.985625 336.443562 
L 439.17106 342.488503 
L 445.041988 338.679622 
L 450.005787 341.238113 
L 454.305625 331.259303 
L 461.49106 334.825419 
L 467.361988 330.884989 
L 472.325787 332.506119 
L 476.625625 324.111723 
L 483.81106 325.499877 
L 489.681988 321.098192 
L 494.645787 318.682559 
L 498.945625 281.237919 
L 506.13106 307.919362 
L 512.001988 301.189134 
L 516.965787 299.520943 
L 521.265625 228.340361 
L 528.45106 286.973343 
L 534.321988 247.910815 
L 539.285787 273.99848 
L 543.585625 194.260032 
L 550.77106 229.845004 
L 556.641988 188.591376 
L 561.605787 222.534404 
L 565.905625 163.198295 
L 573.09106 173.1528 
L 578.961988 152.778148 
L 583.925787 163.224123 
L 588.225625 133.826778 
L 595.41106 128.446739 
L 601.281988 106.51801 
L 606.245787 121.407306 
L 610.545625 99.470485 
L 617.73106 85.689634 
L 623.601988 76.980264 
L 628.565787 80.827113 
L 632.865625 71.460026 
" clip-path="url(#p62f47a0293)" style="fill: none; stroke: #9467bd; stroke-opacity: 0.5; stroke-width: 0.5; stroke-linecap: square"/>
   </g>
   <g id="line2d_57">
    <path d="M 74.865625 380.215551 
L 82.05106 379.346895 
L 87.921988 380.779139 
L 92.885787 381.559391 
L 97.185625 380.718067 
L 104.37106 378.370935 
L 110.241988 378.953468 
L 115.205787 380.675163 
L 119.505625 378.663859 
L 126.69106 377.857784 
L 132.561988 378.763336 
L 137.525787 380.127242 
L 141.825625 379.009589 
L 149.01106 377.148422 
L 154.881988 378.181373 
L 159.845787 379.013541 
L 164.145625 379.226418 
L 171.33106 376.725437 
L 177.201988 377.654523 
L 182.165787 378.705443 
L 186.465625 379.05906 
L 193.65106 376.40021 
L 199.521988 377.070233 
L 204.485787 378.082441 
L 208.785625 378.621928 
L 215.97106 375.783445 
L 221.841988 376.194041 
L 226.805787 377.331872 
L 231.105625 377.983379 
L 238.29106 375.301978 
L 244.161988 375.405245 
L 249.125787 376.570779 
L 253.425625 377.294336 
L 260.61106 374.509091 
L 266.481988 374.772388 
L 271.445787 375.937513 
L 275.745625 376.62995 
L 282.93106 373.766057 
L 288.801988 373.794851 
L 293.765787 374.996577 
L 298.065625 375.886836 
L 305.25106 372.593504 
L 311.121988 372.99035 
L 316.085787 374.178535 
L 320.385625 374.917984 
L 327.57106 371.589902 
L 333.441988 372.046021 
L 338.405787 373.299626 
L 342.705625 373.930745 
L 349.89106 370.568549 
L 355.761988 370.524368 
L 360.725787 372.042425 
L 365.025625 372.852282 
L 372.21106 369.762585 
L 378.081988 368.790884 
L 383.045787 371.328935 
L 387.345625 372.302387 
L 394.53106 368.484483 
L 400.401988 368.391158 
L 405.365787 369.77035 
L 409.665625 370.868716 
L 416.85106 367.256428 
L 422.721988 367.118756 
L 427.685787 368.024332 
L 431.985625 368.884158 
L 439.17106 365.23156 
L 445.041988 365.213271 
L 450.005787 366.518163 
L 454.305625 366.963431 
L 461.49106 362.248972 
L 467.361988 362.326753 
L 472.325787 364.181269 
L 476.625625 363.971232 
L 483.81106 359.361397 
L 489.681988 357.652751 
L 494.645787 356.307708 
L 498.945625 355.091273 
L 506.13106 352.089069 
L 512.001988 351.444732 
L 516.965787 350.48996 
L 521.265625 349.639024 
L 528.45106 346.158558 
L 534.321988 338.43709 
L 539.285787 336.545633 
L 543.585625 336.960988 
L 550.77106 330.771981 
L 556.641988 328.863512 
L 561.605787 328.237422 
L 565.905625 328.974947 
L 573.09106 323.431447 
L 578.961988 321.572316 
L 583.925787 319.74166 
L 588.225625 320.002672 
L 595.41106 314.551568 
L 601.281988 310.759643 
L 606.245787 310.818651 
L 610.545625 310.469889 
L 617.73106 303.08044 
L 623.601988 302.820629 
L 628.565787 301.17353 
L 632.865625 301.306655 
" clip-path="url(#p62f47a0293)" style="fill: none; stroke: #1f77b4; stroke-width: 2; stroke-linecap: square"/>
   </g>
   <g id="line2d_58">
    <path d="M 74.865625 377.997528 
L 82.05106 377.537298 
L 87.921988 377.286895 
L 92.885787 376.879328 
L 97.185625 376.67315 
L 104.37106 375.961053 
L 110.241988 374.529882 
L 115.205787 374.30557 
L 119.505625 374.308076 
L 126.69106 374.187982 
L 132.561988 373.576416 
L 137.525787 373.379635 
L 141.825625 373.056754 
L 149.01106 372.680972 
L 154.881988 372.496865 
L 159.845787 372.292506 
L 164.145625 372.091052 
L 171.33106 371.692092 
L 177.201988 371.491848 
L 182.165787 371.27096 
L 186.465625 371.038469 
L 193.65106 370.364583 
L 199.521988 369.66678 
L 204.485787 369.013308 
L 208.785625 368.772107 
L 215.97106 368.412034 
L 221.841988 367.990779 
L 226.805787 367.895952 
L 231.105625 367.540864 
L 238.29106 367.070052 
L 244.161988 366.755867 
L 249.125787 366.506286 
L 253.425625 365.97788 
L 260.61106 365.868106 
L 266.481988 365.465035 
L 271.445787 365.020788 
L 275.745625 364.700823 
L 282.93106 364.429609 
L 288.801988 363.615313 
L 293.765787 362.785647 
L 298.065625 362.22984 
L 305.25106 362.223285 
L 311.121988 361.346784 
L 316.085787 360.987727 
L 320.385625 360.128774 
L 327.57106 359.241827 
L 333.441988 358.872518 
L 338.405787 358.452264 
L 342.705625 358.067191 
L 349.89106 357.43449 
L 355.761988 356.94679 
L 360.725787 356.317701 
L 365.025625 355.713392 
L 372.21106 354.681622 
L 378.081988 353.413398 
L 383.045787 352.475931 
L 387.345625 351.615609 
L 394.53106 350.905374 
L 400.401988 349.908959 
L 405.365787 348.972338 
L 409.665625 348.531834 
L 416.85106 347.419896 
L 422.721988 346.666821 
L 427.685787 345.625333 
L 431.985625 344.565194 
L 439.17106 344.078018 
L 445.041988 343.523507 
L 450.005787 342.716582 
L 454.305625 343.000219 
L 461.49106 342.09962 
L 467.361988 340.16391 
L 472.325787 339.150428 
L 476.625625 337.740727 
L 483.81106 337.128776 
L 489.681988 335.210793 
L 494.645787 332.302089 
L 498.945625 330.787914 
L 506.13106 328.502291 
L 512.001988 326.361162 
L 516.965787 324.820173 
L 521.265625 323.747656 
L 528.45106 321.972821 
L 534.321988 321.288438 
L 539.285787 319.599102 
L 543.585625 318.726618 
L 550.77106 315.550358 
L 556.641988 312.139645 
L 561.605787 310.102069 
L 565.905625 308.812007 
L 573.09106 306.239323 
L 578.961988 304.751036 
L 583.925787 302.433343 
L 588.225625 301.559829 
L 595.41106 300.039807 
L 601.281988 297.949322 
L 606.245787 297.416236 
L 610.545625 296.754335 
L 617.73106 294.365993 
L 623.601988 293.425323 
L 628.565787 292.073259 
L 632.865625 290.635085 
" clip-path="url(#p62f47a0293)" style="fill: none; stroke: #e377c2; stroke-linecap: square"/>
   </g>
   <g id="line2d_59">
    <path d="M 74.865625 377.997686 
L 82.05106 377.536648 
L 87.921988 377.281143 
L 92.885787 376.884418 
L 97.185625 376.682917 
L 104.37106 375.848777 
L 110.241988 374.516469 
L 115.205787 374.321042 
L 119.505625 374.320267 
L 126.69106 374.201857 
L 132.561988 373.66725 
L 137.525787 373.344115 
L 141.825625 373.082126 
L 149.01106 372.673744 
L 154.881988 372.510576 
L 159.845787 372.277353 
L 164.145625 372.033476 
L 171.33106 371.7172 
L 177.201988 371.507721 
L 182.165787 371.268873 
L 186.465625 371.043305 
L 193.65106 370.37977 
L 199.521988 369.668621 
L 204.485787 369.013202 
L 208.785625 368.762748 
L 215.97106 368.414987 
L 221.841988 367.990426 
L 226.805787 367.88576 
L 231.105625 367.555968 
L 238.29106 367.075947 
L 244.161988 366.744665 
L 249.125787 366.510967 
L 253.425625 365.870129 
L 260.61106 365.895355 
L 266.481988 365.489462 
L 271.445787 365.012726 
L 275.745625 364.771122 
L 282.93106 364.420721 
L 288.801988 363.652344 
L 293.765787 362.740144 
L 298.065625 362.230156 
L 305.25106 362.181328 
L 311.121988 361.268567 
L 316.085787 360.950942 
L 320.385625 360.204394 
L 327.57106 359.248735 
L 333.441988 358.840815 
L 338.405787 358.435922 
L 342.705625 358.018323 
L 349.89106 357.482282 
L 355.761988 356.921879 
L 360.725787 356.301273 
L 365.025625 355.656466 
L 372.21106 354.532832 
L 378.081988 353.428567 
L 383.045787 352.43919 
L 387.345625 351.608837 
L 394.53106 350.891393 
L 400.401988 349.903133 
L 405.365787 349.068302 
L 409.665625 348.675588 
L 416.85106 347.491817 
L 422.721988 346.650416 
L 427.685787 345.877622 
L 431.985625 345.191818 
L 439.17106 344.386395 
L 445.041988 343.730114 
L 450.005787 343.06858 
L 454.305625 342.836878 
L 461.49106 341.951966 
L 467.361988 340.949427 
L 472.325787 338.925008 
L 476.625625 337.242728 
L 483.81106 336.268128 
L 489.681988 335.101241 
L 494.645787 332.408258 
L 498.945625 330.701163 
L 506.13106 328.519602 
L 512.001988 326.567256 
L 516.965787 324.886426 
L 521.265625 323.848625 
L 528.45106 322.35448 
L 534.321988 320.868814 
L 539.285787 319.878745 
L 543.585625 318.531312 
L 550.77106 316.236335 
L 556.641988 313.827592 
L 561.605787 310.347509 
L 565.905625 309.792122 
L 573.09106 306.658434 
L 578.961988 304.390512 
L 583.925787 302.83513 
L 588.225625 301.501768 
L 595.41106 299.972185 
L 601.281988 298.236113 
L 606.245787 297.261729 
L 610.545625 296.637104 
L 617.73106 294.758695 
L 623.601988 293.161183 
L 628.565787 291.983403 
L 632.865625 291.310683 
" clip-path="url(#p62f47a0293)" style="fill: none; stroke: #8c564b; stroke-width: 1.5; stroke-linecap: square"/>
   </g>
   <g id="line2d_60"/>
   <g id="line2d_61"/>
   <g id="line2d_62"/>
   <g id="line2d_63"/>
   <g id="line2d_64"/>
   <g id="line2d_65"/>
   <g id="line2d_66"/>
   <g id="line2d_67"/>
   <g id="patch_5">
    <path d="M 46.965625 383.234688 
L 46.965625 50.594688 
" style="fill: none; stroke: #000000; stroke-width: 0.8; stroke-linejoin: miter; stroke-linecap: square"/>
   </g>
   <g id="patch_6">
    <path d="M 660.765625 383.234688 
L 660.765625 50.594688 
" style="fill: none; stroke: #000000; stroke-width: 0.8; stroke-linejoin: miter; stroke-linecap: square"/>
   </g>
   <g id="patch_7">
    <path d="M 46.965625 383.234688 
L 660.765625 383.234688 
" style="fill: none; stroke: #000000; stroke-width: 0.8; stroke-linejoin: miter; stroke-linecap: square"/>
   </g>
   <g id="patch_8">
    <path d="M 46.965625 50.594688 
L 660.765625 50.594688 
" style="fill: none; stroke: #000000; stroke-width: 0.8; stroke-linejoin: miter; stroke-linecap: square"/>
   </g>
   <g id="text_37">
    <!-- L1  -->
    <g style="fill: #ff0000" transform="translate(282.953125 381.155) scale(0.1 -0.1)">
     <defs>
      <path id="DejaVuSans-4c" d="M 628 4666 
L 1259 4666 
L 1259 531 
L 3531 531 
L 3531 0 
L 628 0 
L 628 4666 
z
" transform="scale(0.015625)"/>
     </defs>
     <use xlink:href="#DejaVuSans-4c"/>
     <use xlink:href="#DejaVuSans-31" x="55.712891"/>
     <use xlink:href="#DejaVuSans-20" x="119.335938"/>
    </g>
   </g>
   <g id="text_38">
    <!-- L2  -->
    <g style="fill: #ff0000" transform="translate(349.913125 381.155) scale(0.1 -0.1)">
     <use xlink:href="#DejaVuSans-4c"/>
     <use xlink:href="#DejaVuSans-32" x="55.712891"/>
     <use xlink:href="#DejaVuSans-20" x="119.335938"/>
    </g>
   </g>
   <g id="text_39">
    <!-- L3  -->
    <g style="fill: #ff0000" transform="translate(474.569488 381.155) scale(0.1 -0.1)">
     <use xlink:href="#DejaVuSans-4c"/>
     <use xlink:href="#DejaVuSans-33" x="55.712891"/>
     <use xlink:href="#DejaVuSans-20" x="119.335938"/>
    </g>
   </g>
   <g id="text_40">
    <!-- RAM -->
    <g style="fill: #ff0000" transform="translate(610.848438 381.155) scale(0.1 -0.1)">
     <defs>
      <path id="DejaVuSans-52" d="M 2841 2188 
Q 3044 2119 3236 1894 
Q 3428 1669 3622 1275 
L 4263 0 
L 3584 0 
L 2988 1197 
Q 2756 1666 2539 1819 
Q 2322 1972 1947 1972 
L 1259 1972 
L 1259 0 
L 628 0 
L 628 4666 
L 2053 4666 
Q 2853 4666 3247 4331 
Q 3641 3997 3641 3322 
Q 3641 2881 3436 2590 
Q 3231 2300 2841 2188 
z
M 1259 4147 
L 1259 2491 
L 2053 2491 
Q 2509 2491 2742 2702 
Q 2975 2913 2975 3322 
Q 2975 3731 2742 3939 
Q 2509 4147 2053 4147 
L 1259 4147 
z
" transform="scale(0.015625)"/>
      <path id="DejaVuSans-4d" d="M 628 4666 
L 1569 4666 
L 2759 1491 
L 3956 4666 
L 4897 4666 
L 4897 0 
L 4281 0 
L 4281 4097 
L 3078 897 
L 2444 897 
L 1241 4097 
L 1241 0 
L 628 0 
L 628 4666 
z
" transform="scale(0.015625)"/>
     </defs>
     <use xlink:href="#DejaVuSans-52"/>
     <use xlink:href="#DejaVuSans-41" x="65.482422"/>
     <use xlink:href="#DejaVuSans-4d" x="133.890625"/>
    </g>
   </g>
   <g id="text_41">
    <!-- Stree and hugepages -->
    <g transform="translate(289.668438 16.318125) scale(0.12 -0.12)">
     <defs>
      <path id="DejaVuSans-64" d="M 2906 2969 
L 2906 4863 
L 3481 4863 
L 3481 0 
L 2906 0 
L 2906 525 
Q 2725 213 2448 61 
Q 2172 -91 1784 -91 
Q 1150 -91 751 415 
Q 353 922 353 1747 
Q 353 2572 751 3078 
Q 1150 3584 1784 3584 
Q 2172 3584 2448 3432 
Q 2725 3281 2906 2969 
z
M 947 1747 
Q 947 1113 1208 752 
Q 1469 391 1925 391 
Q 2381 391 2643 752 
Q 2906 1113 2906 1747 
Q 2906 2381 2643 2742 
Q 2381 3103 1925 3103 
Q 1469 3103 1208 2742 
Q 947 2381 947 1747 
z
" transform="scale(0.015625)"/>
     </defs>
     <use xlink:href="#DejaVuSans-53"/>
     <use xlink:href="#DejaVuSans-74" x="63.476562"/>
     <use xlink:href="#DejaVuSans-72" x="102.685547"/>
     <use xlink:href="#DejaVuSans-65" x="141.548828"/>
     <use xlink:href="#DejaVuSans-65" x="203.072266"/>
     <use xlink:href="#DejaVuSans-20" x="264.595703"/>
     <use xlink:href="#DejaVuSans-61" x="296.382812"/>
     <use xlink:href="#DejaVuSans-6e" x="357.662109"/>
     <use xlink:href="#DejaVuSans-64" x="421.041016"/>
     <use xlink:href="#DejaVuSans-20" x="484.517578"/>
     <use xlink:href="#DejaVuSans-68" x="516.304688"/>
     <use xlink:href="#DejaVuSans-75" x="579.683594"/>
     <use xlink:href="#DejaVuSans-67" x="643.0625"/>
     <use xlink:href="#DejaVuSans-65" x="706.539062"/>
     <use xlink:href="#DejaVuSans-70" x="768.0625"/>
     <use xlink:href="#DejaVuSans-61" x="831.539062"/>
     <use xlink:href="#DejaVuSans-67" x="892.818359"/>
     <use xlink:href="#DejaVuSans-65" x="956.294922"/>
     <use xlink:href="#DejaVuSans-73" x="1017.818359"/>
    </g>
   </g>
   <g id="legend_1">
    <g id="patch_9">
     <path d="M 53.965625 118.419688 
L 282.015625 118.419688 
Q 284.015625 118.419688 284.015625 116.419688 
L 284.015625 57.594688 
Q 284.015625 55.594688 282.015625 55.594688 
L 53.965625 55.594688 
Q 51.965625 55.594688 51.965625 57.594688 
L 51.965625 116.419688 
Q 51.965625 118.419688 53.965625 118.419688 
z
" style="fill: #ffffff; opacity: 0.8; stroke: #cccccc; stroke-linejoin: miter"/>
    </g>
    <g id="line2d_68">
     <path d="M 55.965625 63.693125 
L 65.965625 63.693125 
L 75.965625 63.693125 
" style="fill: none; stroke: #9467bd; stroke-opacity: 0.5; stroke-width: 1.5; stroke-linecap: square"/>
    </g>
    <g id="text_42">
     <!-- SortedVec::binary_search_std -->
     <g transform="translate(83.965625 67.193125) scale(0.1 -0.1)">
      <defs>
       <path id="DejaVuSans-56" d="M 1831 0 
L 50 4666 
L 709 4666 
L 2188 738 
L 3669 4666 
L 4325 4666 
L 2547 0 
L 1831 0 
z
" transform="scale(0.015625)"/>
       <path id="DejaVuSans-63" d="M 3122 3366 
L 3122 2828 
Q 2878 2963 2633 3030 
Q 2388 3097 2138 3097 
Q 1578 3097 1268 2742 
Q 959 2388 959 1747 
Q 959 1106 1268 751 
Q 1578 397 2138 397 
Q 2388 397 2633 464 
Q 2878 531 3122 666 
L 3122 134 
Q 2881 22 2623 -34 
Q 2366 -91 2075 -91 
Q 1284 -91 818 406 
Q 353 903 353 1747 
Q 353 2603 823 3093 
Q 1294 3584 2113 3584 
Q 2378 3584 2631 3529 
Q 2884 3475 3122 3366 
z
" transform="scale(0.015625)"/>
       <path id="DejaVuSans-3a" d="M 750 794 
L 1409 794 
L 1409 0 
L 750 0 
L 750 794 
z
M 750 3309 
L 1409 3309 
L 1409 2516 
L 750 2516 
L 750 3309 
z
" transform="scale(0.015625)"/>
       <path id="DejaVuSans-5f" d="M 3263 -1063 
L 3263 -1509 
L -63 -1509 
L -63 -1063 
L 3263 -1063 
z
" transform="scale(0.015625)"/>
      </defs>
      <use xlink:href="#DejaVuSans-53"/>
      <use xlink:href="#DejaVuSans-6f" x="63.476562"/>
      <use xlink:href="#DejaVuSans-72" x="124.658203"/>
      <use xlink:href="#DejaVuSans-74" x="165.771484"/>
      <use xlink:href="#DejaVuSans-65" x="204.980469"/>
      <use xlink:href="#DejaVuSans-64" x="266.503906"/>
      <use xlink:href="#DejaVuSans-56" x="329.980469"/>
      <use xlink:href="#DejaVuSans-65" x="390.638672"/>
      <use xlink:href="#DejaVuSans-63" x="452.162109"/>
      <use xlink:href="#DejaVuSans-3a" x="507.142578"/>
      <use xlink:href="#DejaVuSans-3a" x="540.833984"/>
      <use xlink:href="#DejaVuSans-62" x="574.525391"/>
      <use xlink:href="#DejaVuSans-69" x="638.001953"/>
      <use xlink:href="#DejaVuSans-6e" x="665.785156"/>
      <use xlink:href="#DejaVuSans-61" x="729.164062"/>
      <use xlink:href="#DejaVuSans-72" x="790.443359"/>
      <use xlink:href="#DejaVuSans-79" x="831.556641"/>
      <use xlink:href="#DejaVuSans-5f" x="890.736328"/>
      <use xlink:href="#DejaVuSans-73" x="940.736328"/>
      <use xlink:href="#DejaVuSans-65" x="992.835938"/>
      <use xlink:href="#DejaVuSans-61" x="1054.359375"/>
      <use xlink:href="#DejaVuSans-72" x="1115.638672"/>
      <use xlink:href="#DejaVuSans-63" x="1154.501953"/>
      <use xlink:href="#DejaVuSans-68" x="1209.482422"/>
      <use xlink:href="#DejaVuSans-5f" x="1272.861328"/>
      <use xlink:href="#DejaVuSans-73" x="1322.861328"/>
      <use xlink:href="#DejaVuSans-74" x="1374.960938"/>
      <use xlink:href="#DejaVuSans-64" x="1414.169922"/>
     </g>
    </g>
    <g id="line2d_69">
     <path d="M 55.965625 78.649375 
L 65.965625 78.649375 
L 75.965625 78.649375 
" style="fill: none; stroke: #1f77b4; stroke-width: 1.5; stroke-linecap: square"/>
    </g>
    <g id="text_43">
     <!-- Eytzinger::search_prefetch&lt;4&gt; -->
     <g transform="translate(83.965625 82.149375) scale(0.1 -0.1)">
      <defs>
       <path id="DejaVuSans-45" d="M 628 4666 
L 3578 4666 
L 3578 4134 
L 1259 4134 
L 1259 2753 
L 3481 2753 
L 3481 2222 
L 1259 2222 
L 1259 531 
L 3634 531 
L 3634 0 
L 628 0 
L 628 4666 
z
" transform="scale(0.015625)"/>
       <path id="DejaVuSans-66" d="M 2375 4863 
L 2375 4384 
L 1825 4384 
Q 1516 4384 1395 4259 
Q 1275 4134 1275 3809 
L 1275 3500 
L 2222 3500 
L 2222 3053 
L 1275 3053 
L 1275 0 
L 697 0 
L 697 3053 
L 147 3053 
L 147 3500 
L 697 3500 
L 697 3744 
Q 697 4328 969 4595 
Q 1241 4863 1831 4863 
L 2375 4863 
z
" transform="scale(0.015625)"/>
       <path id="DejaVuSans-3c" d="M 4684 3150 
L 1459 2003 
L 4684 863 
L 4684 294 
L 678 1747 
L 678 2266 
L 4684 3719 
L 4684 3150 
z
" transform="scale(0.015625)"/>
       <path id="DejaVuSans-3e" d="M 678 3150 
L 678 3719 
L 4684 2266 
L 4684 1747 
L 678 294 
L 678 863 
L 3897 2003 
L 678 3150 
z
" transform="scale(0.015625)"/>
      </defs>
      <use xlink:href="#DejaVuSans-45"/>
      <use xlink:href="#DejaVuSans-79" x="63.183594"/>
      <use xlink:href="#DejaVuSans-74" x="122.363281"/>
      <use xlink:href="#DejaVuSans-7a" x="161.572266"/>
      <use xlink:href="#DejaVuSans-69" x="214.0625"/>
      <use xlink:href="#DejaVuSans-6e" x="241.845703"/>
      <use xlink:href="#DejaVuSans-67" x="305.224609"/>
      <use xlink:href="#DejaVuSans-65" x="368.701172"/>
      <use xlink:href="#DejaVuSans-72" x="430.224609"/>
      <use xlink:href="#DejaVuSans-3a" x="469.587891"/>
      <use xlink:href="#DejaVuSans-3a" x="503.279297"/>
      <use xlink:href="#DejaVuSans-73" x="536.970703"/>
      <use xlink:href="#DejaVuSans-65" x="589.070312"/>
      <use xlink:href="#DejaVuSans-61" x="650.59375"/>
      <use xlink:href="#DejaVuSans-72" x="711.873047"/>
      <use xlink:href="#DejaVuSans-63" x="750.736328"/>
      <use xlink:href="#DejaVuSans-68" x="805.716797"/>
      <use xlink:href="#DejaVuSans-5f" x="869.095703"/>
      <use xlink:href="#DejaVuSans-70" x="919.095703"/>
      <use xlink:href="#DejaVuSans-72" x="982.572266"/>
      <use xlink:href="#DejaVuSans-65" x="1021.435547"/>
      <use xlink:href="#DejaVuSans-66" x="1082.958984"/>
      <use xlink:href="#DejaVuSans-65" x="1118.164062"/>
      <use xlink:href="#DejaVuSans-74" x="1179.6875"/>
      <use xlink:href="#DejaVuSans-63" x="1218.896484"/>
      <use xlink:href="#DejaVuSans-68" x="1273.876953"/>
      <use xlink:href="#DejaVuSans-3c" x="1337.255859"/>
      <use xlink:href="#DejaVuSans-34" x="1421.044922"/>
      <use xlink:href="#DejaVuSans-3e" x="1484.667969"/>
     </g>
    </g>
    <g id="line2d_70">
     <path d="M 55.965625 93.605625 
L 65.965625 93.605625 
L 75.965625 93.605625 
" style="fill: none; stroke: #e377c2; stroke-width: 1.5; stroke-linecap: square"/>
    </g>
    <g id="text_44">
     <!-- STree&lt;&gt;::search&lt;find_linear&gt; NoHuge -->
     <g transform="translate(83.965625 97.105625) scale(0.1 -0.1)">
      <defs>
       <path id="DejaVuSans-54" d="M -19 4666 
L 3928 4666 
L 3928 4134 
L 2272 4134 
L 2272 0 
L 1638 0 
L 1638 4134 
L -19 4134 
L -19 4666 
z
" transform="scale(0.015625)"/>
       <path id="DejaVuSans-4e" d="M 628 4666 
L 1478 4666 
L 3547 763 
L 3547 4666 
L 4159 4666 
L 4159 0 
L 3309 0 
L 1241 3903 
L 1241 0 
L 628 0 
L 628 4666 
z
" transform="scale(0.015625)"/>
       <path id="DejaVuSans-48" d="M 628 4666 
L 1259 4666 
L 1259 2753 
L 3553 2753 
L 3553 4666 
L 4184 4666 
L 4184 0 
L 3553 0 
L 3553 2222 
L 1259 2222 
L 1259 0 
L 628 0 
L 628 4666 
z
" transform="scale(0.015625)"/>
      </defs>
      <use xlink:href="#DejaVuSans-53"/>
      <use xlink:href="#DejaVuSans-54" x="63.476562"/>
      <use xlink:href="#DejaVuSans-72" x="109.810547"/>
      <use xlink:href="#DejaVuSans-65" x="148.673828"/>
      <use xlink:href="#DejaVuSans-65" x="210.197266"/>
      <use xlink:href="#DejaVuSans-3c" x="271.720703"/>
      <use xlink:href="#DejaVuSans-3e" x="355.509766"/>
      <use xlink:href="#DejaVuSans-3a" x="439.298828"/>
      <use xlink:href="#DejaVuSans-3a" x="472.990234"/>
      <use xlink:href="#DejaVuSans-73" x="506.681641"/>
      <use xlink:href="#DejaVuSans-65" x="558.78125"/>
      <use xlink:href="#DejaVuSans-61" x="620.304688"/>
      <use xlink:href="#DejaVuSans-72" x="681.583984"/>
      <use xlink:href="#DejaVuSans-63" x="720.447266"/>
      <use xlink:href="#DejaVuSans-68" x="775.427734"/>
      <use xlink:href="#DejaVuSans-3c" x="838.806641"/>
      <use xlink:href="#DejaVuSans-66" x="922.595703"/>
      <use xlink:href="#DejaVuSans-69" x="957.800781"/>
      <use xlink:href="#DejaVuSans-6e" x="985.583984"/>
      <use xlink:href="#DejaVuSans-64" x="1048.962891"/>
      <use xlink:href="#DejaVuSans-5f" x="1112.439453"/>
      <use xlink:href="#DejaVuSans-6c" x="1162.439453"/>
      <use xlink:href="#DejaVuSans-69" x="1190.222656"/>
      <use xlink:href="#DejaVuSans-6e" x="1218.005859"/>
      <use xlink:href="#DejaVuSans-65" x="1281.384766"/>
      <use xlink:href="#DejaVuSans-61" x="1342.908203"/>
      <use xlink:href="#DejaVuSans-72" x="1404.1875"/>
      <use xlink:href="#DejaVuSans-3e" x="1445.300781"/>
      <use xlink:href="#DejaVuSans-20" x="1529.089844"/>
      <use xlink:href="#DejaVuSans-4e" x="1560.876953"/>
      <use xlink:href="#DejaVuSans-6f" x="1635.681641"/>
      <use xlink:href="#DejaVuSans-48" x="1696.863281"/>
      <use xlink:href="#DejaVuSans-75" x="1772.058594"/>
      <use xlink:href="#DejaVuSans-67" x="1835.4375"/>
      <use xlink:href="#DejaVuSans-65" x="1898.914062"/>
     </g>
    </g>
    <g id="line2d_71">
     <path d="M 55.965625 108.561875 
L 65.965625 108.561875 
L 75.965625 108.561875 
" style="fill: none; stroke: #8c564b; stroke-width: 1.5; stroke-linecap: square"/>
    </g>
    <g id="text_45">
     <!-- STree&lt;&gt;::search&lt;find_linear&gt; -->
     <g transform="translate(83.965625 112.061875) scale(0.1 -0.1)">
      <use xlink:href="#DejaVuSans-53"/>
      <use xlink:href="#DejaVuSans-54" x="63.476562"/>
      <use xlink:href="#DejaVuSans-72" x="109.810547"/>
      <use xlink:href="#DejaVuSans-65" x="148.673828"/>
      <use xlink:href="#DejaVuSans-65" x="210.197266"/>
      <use xlink:href="#DejaVuSans-3c" x="271.720703"/>
      <use xlink:href="#DejaVuSans-3e" x="355.509766"/>
      <use xlink:href="#DejaVuSans-3a" x="439.298828"/>
      <use xlink:href="#DejaVuSans-3a" x="472.990234"/>
      <use xlink:href="#DejaVuSans-73" x="506.681641"/>
      <use xlink:href="#DejaVuSans-65" x="558.78125"/>
      <use xlink:href="#DejaVuSans-61" x="620.304688"/>
      <use xlink:href="#DejaVuSans-72" x="681.583984"/>
      <use xlink:href="#DejaVuSans-63" x="720.447266"/>
      <use xlink:href="#DejaVuSans-68" x="775.427734"/>
      <use xlink:href="#DejaVuSans-3c" x="838.806641"/>
      <use xlink:href="#DejaVuSans-66" x="922.595703"/>
      <use xlink:href="#DejaVuSans-69" x="957.800781"/>
      <use xlink:href="#DejaVuSans-6e" x="985.583984"/>
      <use xlink:href="#DejaVuSans-64" x="1048.962891"/>
      <use xlink:href="#DejaVuSans-5f" x="1112.439453"/>
      <use xlink:href="#DejaVuSans-6c" x="1162.439453"/>
      <use xlink:href="#DejaVuSans-69" x="1190.222656"/>
      <use xlink:href="#DejaVuSans-6e" x="1218.005859"/>
      <use xlink:href="#DejaVuSans-65" x="1281.384766"/>
      <use xlink:href="#DejaVuSans-61" x="1342.908203"/>
      <use xlink:href="#DejaVuSans-72" x="1404.1875"/>
      <use xlink:href="#DejaVuSans-3e" x="1445.300781"/>
     </g>
    </g>
   </g>
  </g>
 </g>
 <defs>
  <clipPath id="p62f47a0293">
   <rect x="46.965625" y="50.594688" width="613.8" height="332.64"/>
  </clipPath>
 </defs>
</svg>
