<?xml version="1.0" encoding="utf-8" standalone="no"?>
<!DOCTYPE svg PUBLIC "-//W3C//DTD SVG 1.1//EN"
  "http://www.w3.org/Graphics/SVG/1.1/DTD/svg11.dtd">
<svg xmlns:xlink="http://www.w3.org/1999/xlink" width="667.965625pt" height="531.670938pt" viewBox="0 0 667.965625 531.670938" xmlns="http://www.w3.org/2000/svg" version="1.1">
 <metadata>
  <rdf:RDF xmlns:dc="http://purl.org/dc/elements/1.1/" xmlns:cc="http://creativecommons.org/ns#" xmlns:rdf="http://www.w3.org/1999/02/22-rdf-syntax-ns#">
   <cc:Work>
    <dc:type rdf:resource="http://purl.org/dc/dcmitype/StillImage"/>
    <dc:date>2024-12-29T00:04:13.610571</dc:date>
    <dc:format>image/svg+xml</dc:format>
    <dc:creator>
     <cc:Agent>
      <dc:title>Matplotlib v3.9.3, https://matplotlib.org/</dc:title>
     </cc:Agent>
    </dc:creator>
   </cc:Work>
  </rdf:RDF>
 </metadata>
 <defs>
  <style type="text/css">*{stroke-linejoin: round; stroke-linecap: butt}</style>
 </defs>
 <g id="figure_1">
  <g id="patch_1">
   <path d="M -0 531.670938 
L 667.965625 531.670938 
L 667.965625 0 
L -0 0 
z
" style="fill: #ffffff"/>
  </g>
  <g id="axes_1">
   <g id="patch_2">
    <path d="M 46.965625 494.114688 
L 660.765625 494.114688 
L 660.765625 50.594688 
L 46.965625 50.594688 
z
" style="fill: #ffffff"/>
   </g>
   <g id="line2d_1">
    <path d="M 294.079911 494.114688 
L 294.079911 50.594688 
" clip-path="url(#pecd6c1090a)" style="fill: none; stroke-dasharray: 5.55,2.4; stroke-dashoffset: 0; stroke: #ff0000; stroke-width: 1.5"/>
   </g>
   <g id="line2d_2">
    <path d="M 353.865625 494.114688 
L 353.865625 50.594688 
" clip-path="url(#pecd6c1090a)" style="fill: none; stroke-dasharray: 5.55,2.4; stroke-dashoffset: 0; stroke: #ff0000; stroke-width: 1.5"/>
   </g>
   <g id="line2d_3">
    <path d="M 465.165949 494.114688 
L 465.165949 50.594688 
" clip-path="url(#pecd6c1090a)" style="fill: none; stroke-dasharray: 5.55,2.4; stroke-dashoffset: 0; stroke: #ff0000; stroke-width: 1.5"/>
   </g>
   <g id="axes_2">
    <g id="patch_3">
     <path d="M 46.965625 50.594688 
L 660.765625 50.594688 
L 660.765625 50.594687 
L 46.965625 50.594687 
z
" style="fill: #ffffff"/>
    </g>
    <g id="matplotlib.axis_1">
     <g id="xtick_1">
      <g id="line2d_4">
       <defs>
        <path id="m0e4fa4acde" d="M 0 0 
L 0 -3.5 
" style="stroke: #000000; stroke-width: 0.8"/>
       </defs>
       <g>
        <use xlink:href="#m0e4fa4acde" x="74.865625" y="50.594687" style="stroke: #000000; stroke-width: 0.8"/>
       </g>
      </g>
      <g id="text_1">
       <!-- $\mathdefault{2^{2}}$ -->
       <g transform="translate(69.265625 41.515) scale(0.1 -0.1)">
        <defs>
         <path id="DejaVuSans-32" d="M 1228 531 
L 3431 531 
L 3431 0 
L 469 0 
L 469 531 
Q 828 903 1448 1529 
Q 2069 2156 2228 2338 
Q 2531 2678 2651 2914 
Q 2772 3150 2772 3378 
Q 2772 3750 2511 3984 
Q 2250 4219 1831 4219 
Q 1534 4219 1204 4116 
Q 875 4013 500 3803 
L 500 4441 
Q 881 4594 1212 4672 
Q 1544 4750 1819 4750 
Q 2544 4750 2975 4387 
Q 3406 4025 3406 3419 
Q 3406 3131 3298 2873 
Q 3191 2616 2906 2266 
Q 2828 2175 2409 1742 
Q 1991 1309 1228 531 
z
" transform="scale(0.015625)"/>
        </defs>
        <use xlink:href="#DejaVuSans-32" transform="translate(0 0.765625)"/>
        <use xlink:href="#DejaVuSans-32" transform="translate(64.580078 39.046875) scale(0.7)"/>
       </g>
      </g>
     </g>
     <g id="xtick_2">
      <g id="line2d_5">
       <g>
        <use xlink:href="#m0e4fa4acde" x="114.722768" y="50.594687" style="stroke: #000000; stroke-width: 0.8"/>
       </g>
      </g>
      <g id="text_2">
       <!-- $\mathdefault{2^{4}}$ -->
       <g transform="translate(109.122768 41.515) scale(0.1 -0.1)">
        <defs>
         <path id="DejaVuSans-34" d="M 2419 4116 
L 825 1625 
L 2419 1625 
L 2419 4116 
z
M 2253 4666 
L 3047 4666 
L 3047 1625 
L 3713 1625 
L 3713 1100 
L 3047 1100 
L 3047 0 
L 2419 0 
L 2419 1100 
L 313 1100 
L 313 1709 
L 2253 4666 
z
" transform="scale(0.015625)"/>
        </defs>
        <use xlink:href="#DejaVuSans-32" transform="translate(0 0.684375)"/>
        <use xlink:href="#DejaVuSans-34" transform="translate(64.580078 38.965625) scale(0.7)"/>
       </g>
      </g>
     </g>
     <g id="xtick_3">
      <g id="line2d_6">
       <g>
        <use xlink:href="#m0e4fa4acde" x="154.579911" y="50.594687" style="stroke: #000000; stroke-width: 0.8"/>
       </g>
      </g>
      <g id="text_3">
       <!-- $\mathdefault{2^{6}}$ -->
       <g transform="translate(148.979911 41.515) scale(0.1 -0.1)">
        <defs>
         <path id="DejaVuSans-36" d="M 2113 2584 
Q 1688 2584 1439 2293 
Q 1191 2003 1191 1497 
Q 1191 994 1439 701 
Q 1688 409 2113 409 
Q 2538 409 2786 701 
Q 3034 994 3034 1497 
Q 3034 2003 2786 2293 
Q 2538 2584 2113 2584 
z
M 3366 4563 
L 3366 3988 
Q 3128 4100 2886 4159 
Q 2644 4219 2406 4219 
Q 1781 4219 1451 3797 
Q 1122 3375 1075 2522 
Q 1259 2794 1537 2939 
Q 1816 3084 2150 3084 
Q 2853 3084 3261 2657 
Q 3669 2231 3669 1497 
Q 3669 778 3244 343 
Q 2819 -91 2113 -91 
Q 1303 -91 875 529 
Q 447 1150 447 2328 
Q 447 3434 972 4092 
Q 1497 4750 2381 4750 
Q 2619 4750 2861 4703 
Q 3103 4656 3366 4563 
z
" transform="scale(0.015625)"/>
        </defs>
        <use xlink:href="#DejaVuSans-32" transform="translate(0 0.765625)"/>
        <use xlink:href="#DejaVuSans-36" transform="translate(64.580078 39.046875) scale(0.7)"/>
       </g>
      </g>
     </g>
     <g id="xtick_4">
      <g id="line2d_7">
       <g>
        <use xlink:href="#m0e4fa4acde" x="194.437054" y="50.594687" style="stroke: #000000; stroke-width: 0.8"/>
       </g>
      </g>
      <g id="text_4">
       <!-- $\mathdefault{2^{8}}$ -->
       <g transform="translate(188.837054 41.515) scale(0.1 -0.1)">
        <defs>
         <path id="DejaVuSans-38" d="M 2034 2216 
Q 1584 2216 1326 1975 
Q 1069 1734 1069 1313 
Q 1069 891 1326 650 
Q 1584 409 2034 409 
Q 2484 409 2743 651 
Q 3003 894 3003 1313 
Q 3003 1734 2745 1975 
Q 2488 2216 2034 2216 
z
M 1403 2484 
Q 997 2584 770 2862 
Q 544 3141 544 3541 
Q 544 4100 942 4425 
Q 1341 4750 2034 4750 
Q 2731 4750 3128 4425 
Q 3525 4100 3525 3541 
Q 3525 3141 3298 2862 
Q 3072 2584 2669 2484 
Q 3125 2378 3379 2068 
Q 3634 1759 3634 1313 
Q 3634 634 3220 271 
Q 2806 -91 2034 -91 
Q 1263 -91 848 271 
Q 434 634 434 1313 
Q 434 1759 690 2068 
Q 947 2378 1403 2484 
z
M 1172 3481 
Q 1172 3119 1398 2916 
Q 1625 2713 2034 2713 
Q 2441 2713 2670 2916 
Q 2900 3119 2900 3481 
Q 2900 3844 2670 4047 
Q 2441 4250 2034 4250 
Q 1625 4250 1398 4047 
Q 1172 3844 1172 3481 
z
" transform="scale(0.015625)"/>
        </defs>
        <use xlink:href="#DejaVuSans-32" transform="translate(0 0.765625)"/>
        <use xlink:href="#DejaVuSans-38" transform="translate(64.580078 39.046875) scale(0.7)"/>
       </g>
      </g>
     </g>
     <g id="xtick_5">
      <g id="line2d_8">
       <g>
        <use xlink:href="#m0e4fa4acde" x="234.294196" y="50.594687" style="stroke: #000000; stroke-width: 0.8"/>
       </g>
      </g>
      <g id="text_5">
       <!-- $\mathdefault{2^{10}}$ -->
       <g transform="translate(226.444196 41.515) scale(0.1 -0.1)">
        <defs>
         <path id="DejaVuSans-31" d="M 794 531 
L 1825 531 
L 1825 4091 
L 703 3866 
L 703 4441 
L 1819 4666 
L 2450 4666 
L 2450 531 
L 3481 531 
L 3481 0 
L 794 0 
L 794 531 
z
" transform="scale(0.015625)"/>
         <path id="DejaVuSans-30" d="M 2034 4250 
Q 1547 4250 1301 3770 
Q 1056 3291 1056 2328 
Q 1056 1369 1301 889 
Q 1547 409 2034 409 
Q 2525 409 2770 889 
Q 3016 1369 3016 2328 
Q 3016 3291 2770 3770 
Q 2525 4250 2034 4250 
z
M 2034 4750 
Q 2819 4750 3233 4129 
Q 3647 3509 3647 2328 
Q 3647 1150 3233 529 
Q 2819 -91 2034 -91 
Q 1250 -91 836 529 
Q 422 1150 422 2328 
Q 422 3509 836 4129 
Q 1250 4750 2034 4750 
z
" transform="scale(0.015625)"/>
        </defs>
        <use xlink:href="#DejaVuSans-32" transform="translate(0 0.765625)"/>
        <use xlink:href="#DejaVuSans-31" transform="translate(64.580078 39.046875) scale(0.7)"/>
        <use xlink:href="#DejaVuSans-30" transform="translate(109.116211 39.046875) scale(0.7)"/>
       </g>
      </g>
     </g>
     <g id="xtick_6">
      <g id="line2d_9">
       <g>
        <use xlink:href="#m0e4fa4acde" x="274.151339" y="50.594687" style="stroke: #000000; stroke-width: 0.8"/>
       </g>
      </g>
      <g id="text_6">
       <!-- $\mathdefault{2^{12}}$ -->
       <g transform="translate(266.301339 41.515) scale(0.1 -0.1)">
        <use xlink:href="#DejaVuSans-32" transform="translate(0 0.765625)"/>
        <use xlink:href="#DejaVuSans-31" transform="translate(64.580078 39.046875) scale(0.7)"/>
        <use xlink:href="#DejaVuSans-32" transform="translate(109.116211 39.046875) scale(0.7)"/>
       </g>
      </g>
     </g>
     <g id="xtick_7">
      <g id="line2d_10">
       <g>
        <use xlink:href="#m0e4fa4acde" x="314.008482" y="50.594687" style="stroke: #000000; stroke-width: 0.8"/>
       </g>
      </g>
      <g id="text_7">
       <!-- $\mathdefault{2^{14}}$ -->
       <g transform="translate(306.158482 41.515) scale(0.1 -0.1)">
        <use xlink:href="#DejaVuSans-32" transform="translate(0 0.684375)"/>
        <use xlink:href="#DejaVuSans-31" transform="translate(64.580078 38.965625) scale(0.7)"/>
        <use xlink:href="#DejaVuSans-34" transform="translate(109.116211 38.965625) scale(0.7)"/>
       </g>
      </g>
     </g>
     <g id="xtick_8">
      <g id="line2d_11">
       <g>
        <use xlink:href="#m0e4fa4acde" x="353.865625" y="50.594687" style="stroke: #000000; stroke-width: 0.8"/>
       </g>
      </g>
      <g id="text_8">
       <!-- $\mathdefault{2^{16}}$ -->
       <g transform="translate(346.015625 41.515) scale(0.1 -0.1)">
        <use xlink:href="#DejaVuSans-32" transform="translate(0 0.765625)"/>
        <use xlink:href="#DejaVuSans-31" transform="translate(64.580078 39.046875) scale(0.7)"/>
        <use xlink:href="#DejaVuSans-36" transform="translate(109.116211 39.046875) scale(0.7)"/>
       </g>
      </g>
     </g>
     <g id="xtick_9">
      <g id="line2d_12">
       <g>
        <use xlink:href="#m0e4fa4acde" x="393.722768" y="50.594687" style="stroke: #000000; stroke-width: 0.8"/>
       </g>
      </g>
      <g id="text_9">
       <!-- $\mathdefault{2^{18}}$ -->
       <g transform="translate(385.872768 41.515) scale(0.1 -0.1)">
        <use xlink:href="#DejaVuSans-32" transform="translate(0 0.765625)"/>
        <use xlink:href="#DejaVuSans-31" transform="translate(64.580078 39.046875) scale(0.7)"/>
        <use xlink:href="#DejaVuSans-38" transform="translate(109.116211 39.046875) scale(0.7)"/>
       </g>
      </g>
     </g>
     <g id="xtick_10">
      <g id="line2d_13">
       <g>
        <use xlink:href="#m0e4fa4acde" x="433.579911" y="50.594687" style="stroke: #000000; stroke-width: 0.8"/>
       </g>
      </g>
      <g id="text_10">
       <!-- $\mathdefault{2^{20}}$ -->
       <g transform="translate(425.729911 41.515) scale(0.1 -0.1)">
        <use xlink:href="#DejaVuSans-32" transform="translate(0 0.765625)"/>
        <use xlink:href="#DejaVuSans-32" transform="translate(64.580078 39.046875) scale(0.7)"/>
        <use xlink:href="#DejaVuSans-30" transform="translate(109.116211 39.046875) scale(0.7)"/>
       </g>
      </g>
     </g>
     <g id="xtick_11">
      <g id="line2d_14">
       <g>
        <use xlink:href="#m0e4fa4acde" x="473.437054" y="50.594687" style="stroke: #000000; stroke-width: 0.8"/>
       </g>
      </g>
      <g id="text_11">
       <!-- $\mathdefault{2^{22}}$ -->
       <g transform="translate(465.587054 41.515) scale(0.1 -0.1)">
        <use xlink:href="#DejaVuSans-32" transform="translate(0 0.765625)"/>
        <use xlink:href="#DejaVuSans-32" transform="translate(64.580078 39.046875) scale(0.7)"/>
        <use xlink:href="#DejaVuSans-32" transform="translate(109.116211 39.046875) scale(0.7)"/>
       </g>
      </g>
     </g>
     <g id="xtick_12">
      <g id="line2d_15">
       <g>
        <use xlink:href="#m0e4fa4acde" x="513.294196" y="50.594687" style="stroke: #000000; stroke-width: 0.8"/>
       </g>
      </g>
      <g id="text_12">
       <!-- $\mathdefault{2^{24}}$ -->
       <g transform="translate(505.444196 41.515) scale(0.1 -0.1)">
        <use xlink:href="#DejaVuSans-32" transform="translate(0 0.765625)"/>
        <use xlink:href="#DejaVuSans-32" transform="translate(64.580078 39.046875) scale(0.7)"/>
        <use xlink:href="#DejaVuSans-34" transform="translate(109.116211 39.046875) scale(0.7)"/>
       </g>
      </g>
     </g>
     <g id="xtick_13">
      <g id="line2d_16">
       <g>
        <use xlink:href="#m0e4fa4acde" x="553.151339" y="50.594687" style="stroke: #000000; stroke-width: 0.8"/>
       </g>
      </g>
      <g id="text_13">
       <!-- $\mathdefault{2^{26}}$ -->
       <g transform="translate(545.301339 41.515) scale(0.1 -0.1)">
        <use xlink:href="#DejaVuSans-32" transform="translate(0 0.765625)"/>
        <use xlink:href="#DejaVuSans-32" transform="translate(64.580078 39.046875) scale(0.7)"/>
        <use xlink:href="#DejaVuSans-36" transform="translate(109.116211 39.046875) scale(0.7)"/>
       </g>
      </g>
     </g>
     <g id="xtick_14">
      <g id="line2d_17">
       <g>
        <use xlink:href="#m0e4fa4acde" x="593.008482" y="50.594687" style="stroke: #000000; stroke-width: 0.8"/>
       </g>
      </g>
      <g id="text_14">
       <!-- $\mathdefault{2^{28}}$ -->
       <g transform="translate(585.158482 41.515) scale(0.1 -0.1)">
        <use xlink:href="#DejaVuSans-32" transform="translate(0 0.765625)"/>
        <use xlink:href="#DejaVuSans-32" transform="translate(64.580078 39.046875) scale(0.7)"/>
        <use xlink:href="#DejaVuSans-38" transform="translate(109.116211 39.046875) scale(0.7)"/>
       </g>
      </g>
     </g>
     <g id="xtick_15">
      <g id="line2d_18">
       <g>
        <use xlink:href="#m0e4fa4acde" x="632.865625" y="50.594687" style="stroke: #000000; stroke-width: 0.8"/>
       </g>
      </g>
      <g id="text_15">
       <!-- $\mathdefault{2^{30}}$ -->
       <g transform="translate(625.015625 41.515) scale(0.1 -0.1)">
        <defs>
         <path id="DejaVuSans-33" d="M 2597 2516 
Q 3050 2419 3304 2112 
Q 3559 1806 3559 1356 
Q 3559 666 3084 287 
Q 2609 -91 1734 -91 
Q 1441 -91 1130 -33 
Q 819 25 488 141 
L 488 750 
Q 750 597 1062 519 
Q 1375 441 1716 441 
Q 2309 441 2620 675 
Q 2931 909 2931 1356 
Q 2931 1769 2642 2001 
Q 2353 2234 1838 2234 
L 1294 2234 
L 1294 2753 
L 1863 2753 
Q 2328 2753 2575 2939 
Q 2822 3125 2822 3475 
Q 2822 3834 2567 4026 
Q 2313 4219 1838 4219 
Q 1578 4219 1281 4162 
Q 984 4106 628 3988 
L 628 4550 
Q 988 4650 1302 4700 
Q 1616 4750 1894 4750 
Q 2613 4750 3031 4423 
Q 3450 4097 3450 3541 
Q 3450 3153 3228 2886 
Q 3006 2619 2597 2516 
z
" transform="scale(0.015625)"/>
        </defs>
        <use xlink:href="#DejaVuSans-32" transform="translate(0 0.765625)"/>
        <use xlink:href="#DejaVuSans-33" transform="translate(64.580078 39.046875) scale(0.7)"/>
        <use xlink:href="#DejaVuSans-30" transform="translate(109.116211 39.046875) scale(0.7)"/>
       </g>
      </g>
     </g>
     <g id="text_16">
      <!-- Array length (u32) -->
      <g transform="translate(307.85 29.916562) scale(0.1 -0.1)">
       <defs>
        <path id="DejaVuSans-41" d="M 2188 4044 
L 1331 1722 
L 3047 1722 
L 2188 4044 
z
M 1831 4666 
L 2547 4666 
L 4325 0 
L 3669 0 
L 3244 1197 
L 1141 1197 
L 716 0 
L 50 0 
L 1831 4666 
z
" transform="scale(0.015625)"/>
        <path id="DejaVuSans-72" d="M 2631 2963 
Q 2534 3019 2420 3045 
Q 2306 3072 2169 3072 
Q 1681 3072 1420 2755 
Q 1159 2438 1159 1844 
L 1159 0 
L 581 0 
L 581 3500 
L 1159 3500 
L 1159 2956 
Q 1341 3275 1631 3429 
Q 1922 3584 2338 3584 
Q 2397 3584 2469 3576 
Q 2541 3569 2628 3553 
L 2631 2963 
z
" transform="scale(0.015625)"/>
        <path id="DejaVuSans-61" d="M 2194 1759 
Q 1497 1759 1228 1600 
Q 959 1441 959 1056 
Q 959 750 1161 570 
Q 1363 391 1709 391 
Q 2188 391 2477 730 
Q 2766 1069 2766 1631 
L 2766 1759 
L 2194 1759 
z
M 3341 1997 
L 3341 0 
L 2766 0 
L 2766 531 
Q 2569 213 2275 61 
Q 1981 -91 1556 -91 
Q 1019 -91 701 211 
Q 384 513 384 1019 
Q 384 1609 779 1909 
Q 1175 2209 1959 2209 
L 2766 2209 
L 2766 2266 
Q 2766 2663 2505 2880 
Q 2244 3097 1772 3097 
Q 1472 3097 1187 3025 
Q 903 2953 641 2809 
L 641 3341 
Q 956 3463 1253 3523 
Q 1550 3584 1831 3584 
Q 2591 3584 2966 3190 
Q 3341 2797 3341 1997 
z
" transform="scale(0.015625)"/>
        <path id="DejaVuSans-79" d="M 2059 -325 
Q 1816 -950 1584 -1140 
Q 1353 -1331 966 -1331 
L 506 -1331 
L 506 -850 
L 844 -850 
Q 1081 -850 1212 -737 
Q 1344 -625 1503 -206 
L 1606 56 
L 191 3500 
L 800 3500 
L 1894 763 
L 2988 3500 
L 3597 3500 
L 2059 -325 
z
" transform="scale(0.015625)"/>
        <path id="DejaVuSans-20" transform="scale(0.015625)"/>
        <path id="DejaVuSans-6c" d="M 603 4863 
L 1178 4863 
L 1178 0 
L 603 0 
L 603 4863 
z
" transform="scale(0.015625)"/>
        <path id="DejaVuSans-65" d="M 3597 1894 
L 3597 1613 
L 953 1613 
Q 991 1019 1311 708 
Q 1631 397 2203 397 
Q 2534 397 2845 478 
Q 3156 559 3463 722 
L 3463 178 
Q 3153 47 2828 -22 
Q 2503 -91 2169 -91 
Q 1331 -91 842 396 
Q 353 884 353 1716 
Q 353 2575 817 3079 
Q 1281 3584 2069 3584 
Q 2775 3584 3186 3129 
Q 3597 2675 3597 1894 
z
M 3022 2063 
Q 3016 2534 2758 2815 
Q 2500 3097 2075 3097 
Q 1594 3097 1305 2825 
Q 1016 2553 972 2059 
L 3022 2063 
z
" transform="scale(0.015625)"/>
        <path id="DejaVuSans-6e" d="M 3513 2113 
L 3513 0 
L 2938 0 
L 2938 2094 
Q 2938 2591 2744 2837 
Q 2550 3084 2163 3084 
Q 1697 3084 1428 2787 
Q 1159 2491 1159 1978 
L 1159 0 
L 581 0 
L 581 3500 
L 1159 3500 
L 1159 2956 
Q 1366 3272 1645 3428 
Q 1925 3584 2291 3584 
Q 2894 3584 3203 3211 
Q 3513 2838 3513 2113 
z
" transform="scale(0.015625)"/>
        <path id="DejaVuSans-67" d="M 2906 1791 
Q 2906 2416 2648 2759 
Q 2391 3103 1925 3103 
Q 1463 3103 1205 2759 
Q 947 2416 947 1791 
Q 947 1169 1205 825 
Q 1463 481 1925 481 
Q 2391 481 2648 825 
Q 2906 1169 2906 1791 
z
M 3481 434 
Q 3481 -459 3084 -895 
Q 2688 -1331 1869 -1331 
Q 1566 -1331 1297 -1286 
Q 1028 -1241 775 -1147 
L 775 -588 
Q 1028 -725 1275 -790 
Q 1522 -856 1778 -856 
Q 2344 -856 2625 -561 
Q 2906 -266 2906 331 
L 2906 616 
Q 2728 306 2450 153 
Q 2172 0 1784 0 
Q 1141 0 747 490 
Q 353 981 353 1791 
Q 353 2603 747 3093 
Q 1141 3584 1784 3584 
Q 2172 3584 2450 3431 
Q 2728 3278 2906 2969 
L 2906 3500 
L 3481 3500 
L 3481 434 
z
" transform="scale(0.015625)"/>
        <path id="DejaVuSans-74" d="M 1172 4494 
L 1172 3500 
L 2356 3500 
L 2356 3053 
L 1172 3053 
L 1172 1153 
Q 1172 725 1289 603 
Q 1406 481 1766 481 
L 2356 481 
L 2356 0 
L 1766 0 
Q 1100 0 847 248 
Q 594 497 594 1153 
L 594 3053 
L 172 3053 
L 172 3500 
L 594 3500 
L 594 4494 
L 1172 4494 
z
" transform="scale(0.015625)"/>
        <path id="DejaVuSans-68" d="M 3513 2113 
L 3513 0 
L 2938 0 
L 2938 2094 
Q 2938 2591 2744 2837 
Q 2550 3084 2163 3084 
Q 1697 3084 1428 2787 
Q 1159 2491 1159 1978 
L 1159 0 
L 581 0 
L 581 4863 
L 1159 4863 
L 1159 2956 
Q 1366 3272 1645 3428 
Q 1925 3584 2291 3584 
Q 2894 3584 3203 3211 
Q 3513 2838 3513 2113 
z
" transform="scale(0.015625)"/>
        <path id="DejaVuSans-28" d="M 1984 4856 
Q 1566 4138 1362 3434 
Q 1159 2731 1159 2009 
Q 1159 1288 1364 580 
Q 1569 -128 1984 -844 
L 1484 -844 
Q 1016 -109 783 600 
Q 550 1309 550 2009 
Q 550 2706 781 3412 
Q 1013 4119 1484 4856 
L 1984 4856 
z
" transform="scale(0.015625)"/>
        <path id="DejaVuSans-75" d="M 544 1381 
L 544 3500 
L 1119 3500 
L 1119 1403 
Q 1119 906 1312 657 
Q 1506 409 1894 409 
Q 2359 409 2629 706 
Q 2900 1003 2900 1516 
L 2900 3500 
L 3475 3500 
L 3475 0 
L 2900 0 
L 2900 538 
Q 2691 219 2414 64 
Q 2138 -91 1772 -91 
Q 1169 -91 856 284 
Q 544 659 544 1381 
z
M 1991 3584 
L 1991 3584 
z
" transform="scale(0.015625)"/>
        <path id="DejaVuSans-29" d="M 513 4856 
L 1013 4856 
Q 1481 4119 1714 3412 
Q 1947 2706 1947 2009 
Q 1947 1309 1714 600 
Q 1481 -109 1013 -844 
L 513 -844 
Q 928 -128 1133 580 
Q 1338 1288 1338 2009 
Q 1338 2731 1133 3434 
Q 928 4138 513 4856 
z
" transform="scale(0.015625)"/>
       </defs>
       <use xlink:href="#DejaVuSans-41"/>
       <use xlink:href="#DejaVuSans-72" x="68.408203"/>
       <use xlink:href="#DejaVuSans-72" x="107.771484"/>
       <use xlink:href="#DejaVuSans-61" x="148.884766"/>
       <use xlink:href="#DejaVuSans-79" x="210.164062"/>
       <use xlink:href="#DejaVuSans-20" x="269.34375"/>
       <use xlink:href="#DejaVuSans-6c" x="301.130859"/>
       <use xlink:href="#DejaVuSans-65" x="328.914062"/>
       <use xlink:href="#DejaVuSans-6e" x="390.4375"/>
       <use xlink:href="#DejaVuSans-67" x="453.816406"/>
       <use xlink:href="#DejaVuSans-74" x="517.292969"/>
       <use xlink:href="#DejaVuSans-68" x="556.501953"/>
       <use xlink:href="#DejaVuSans-20" x="619.880859"/>
       <use xlink:href="#DejaVuSans-28" x="651.667969"/>
       <use xlink:href="#DejaVuSans-75" x="690.681641"/>
       <use xlink:href="#DejaVuSans-33" x="754.060547"/>
       <use xlink:href="#DejaVuSans-32" x="817.683594"/>
       <use xlink:href="#DejaVuSans-29" x="881.306641"/>
      </g>
     </g>
    </g>
    <g id="matplotlib.axis_2"/>
    <g id="patch_4">
     <path d="M 46.965625 50.594687 
L 660.765625 50.594687 
" style="fill: none; stroke: #000000; stroke-width: 0.8; stroke-linejoin: miter; stroke-linecap: square"/>
    </g>
   </g>
   <g id="matplotlib.axis_3">
    <g id="xtick_16">
     <g id="line2d_19">
      <path d="M 74.865625 494.114688 
L 74.865625 50.594688 
" clip-path="url(#pecd6c1090a)" style="fill: none; stroke: #b0b0b0; stroke-opacity: 0.4; stroke-width: 0.8; stroke-linecap: square"/>
     </g>
     <g id="line2d_20">
      <defs>
       <path id="m6cc88dd9eb" d="M 0 0 
L 0 3.5 
" style="stroke: #000000; stroke-width: 0.8"/>
      </defs>
      <g>
       <use xlink:href="#m6cc88dd9eb" x="74.865625" y="494.114688" style="stroke: #000000; stroke-width: 0.8"/>
      </g>
     </g>
     <g id="text_17">
      <!-- $\mathdefault{2^{4}}$ -->
      <g transform="translate(69.265625 508.713125) scale(0.1 -0.1)">
       <use xlink:href="#DejaVuSans-32" transform="translate(0 0.684375)"/>
       <use xlink:href="#DejaVuSans-34" transform="translate(64.580078 38.965625) scale(0.7)"/>
      </g>
     </g>
    </g>
    <g id="xtick_17">
     <g id="line2d_21">
      <path d="M 114.722768 494.114688 
L 114.722768 50.594688 
" clip-path="url(#pecd6c1090a)" style="fill: none; stroke: #b0b0b0; stroke-opacity: 0.4; stroke-width: 0.8; stroke-linecap: square"/>
     </g>
     <g id="line2d_22">
      <g>
       <use xlink:href="#m6cc88dd9eb" x="114.722768" y="494.114688" style="stroke: #000000; stroke-width: 0.8"/>
      </g>
     </g>
     <g id="text_18">
      <!-- $\mathdefault{2^{6}}$ -->
      <g transform="translate(109.122768 508.713125) scale(0.1 -0.1)">
       <use xlink:href="#DejaVuSans-32" transform="translate(0 0.765625)"/>
       <use xlink:href="#DejaVuSans-36" transform="translate(64.580078 39.046875) scale(0.7)"/>
      </g>
     </g>
    </g>
    <g id="xtick_18">
     <g id="line2d_23">
      <path d="M 154.579911 494.114688 
L 154.579911 50.594688 
" clip-path="url(#pecd6c1090a)" style="fill: none; stroke: #b0b0b0; stroke-opacity: 0.4; stroke-width: 0.8; stroke-linecap: square"/>
     </g>
     <g id="line2d_24">
      <g>
       <use xlink:href="#m6cc88dd9eb" x="154.579911" y="494.114688" style="stroke: #000000; stroke-width: 0.8"/>
      </g>
     </g>
     <g id="text_19">
      <!-- $\mathdefault{2^{8}}$ -->
      <g transform="translate(148.979911 508.713125) scale(0.1 -0.1)">
       <use xlink:href="#DejaVuSans-32" transform="translate(0 0.765625)"/>
       <use xlink:href="#DejaVuSans-38" transform="translate(64.580078 39.046875) scale(0.7)"/>
      </g>
     </g>
    </g>
    <g id="xtick_19">
     <g id="line2d_25">
      <path d="M 194.437054 494.114688 
L 194.437054 50.594688 
" clip-path="url(#pecd6c1090a)" style="fill: none; stroke: #b0b0b0; stroke-opacity: 0.4; stroke-width: 0.8; stroke-linecap: square"/>
     </g>
     <g id="line2d_26">
      <g>
       <use xlink:href="#m6cc88dd9eb" x="194.437054" y="494.114688" style="stroke: #000000; stroke-width: 0.8"/>
      </g>
     </g>
     <g id="text_20">
      <!-- $\mathdefault{2^{10}}$ -->
      <g transform="translate(186.587054 508.713125) scale(0.1 -0.1)">
       <use xlink:href="#DejaVuSans-32" transform="translate(0 0.765625)"/>
       <use xlink:href="#DejaVuSans-31" transform="translate(64.580078 39.046875) scale(0.7)"/>
       <use xlink:href="#DejaVuSans-30" transform="translate(109.116211 39.046875) scale(0.7)"/>
      </g>
     </g>
    </g>
    <g id="xtick_20">
     <g id="line2d_27">
      <path d="M 234.294196 494.114688 
L 234.294196 50.594688 
" clip-path="url(#pecd6c1090a)" style="fill: none; stroke: #b0b0b0; stroke-opacity: 0.4; stroke-width: 0.8; stroke-linecap: square"/>
     </g>
     <g id="line2d_28">
      <g>
       <use xlink:href="#m6cc88dd9eb" x="234.294196" y="494.114688" style="stroke: #000000; stroke-width: 0.8"/>
      </g>
     </g>
     <g id="text_21">
      <!-- $\mathdefault{2^{12}}$ -->
      <g transform="translate(226.444196 508.713125) scale(0.1 -0.1)">
       <use xlink:href="#DejaVuSans-32" transform="translate(0 0.765625)"/>
       <use xlink:href="#DejaVuSans-31" transform="translate(64.580078 39.046875) scale(0.7)"/>
       <use xlink:href="#DejaVuSans-32" transform="translate(109.116211 39.046875) scale(0.7)"/>
      </g>
     </g>
    </g>
    <g id="xtick_21">
     <g id="line2d_29">
      <path d="M 274.151339 494.114688 
L 274.151339 50.594688 
" clip-path="url(#pecd6c1090a)" style="fill: none; stroke: #b0b0b0; stroke-opacity: 0.4; stroke-width: 0.8; stroke-linecap: square"/>
     </g>
     <g id="line2d_30">
      <g>
       <use xlink:href="#m6cc88dd9eb" x="274.151339" y="494.114688" style="stroke: #000000; stroke-width: 0.8"/>
      </g>
     </g>
     <g id="text_22">
      <!-- $\mathdefault{2^{14}}$ -->
      <g transform="translate(266.301339 508.713125) scale(0.1 -0.1)">
       <use xlink:href="#DejaVuSans-32" transform="translate(0 0.684375)"/>
       <use xlink:href="#DejaVuSans-31" transform="translate(64.580078 38.965625) scale(0.7)"/>
       <use xlink:href="#DejaVuSans-34" transform="translate(109.116211 38.965625) scale(0.7)"/>
      </g>
     </g>
    </g>
    <g id="xtick_22">
     <g id="line2d_31">
      <path d="M 314.008482 494.114688 
L 314.008482 50.594688 
" clip-path="url(#pecd6c1090a)" style="fill: none; stroke: #b0b0b0; stroke-opacity: 0.4; stroke-width: 0.8; stroke-linecap: square"/>
     </g>
     <g id="line2d_32">
      <g>
       <use xlink:href="#m6cc88dd9eb" x="314.008482" y="494.114688" style="stroke: #000000; stroke-width: 0.8"/>
      </g>
     </g>
     <g id="text_23">
      <!-- $\mathdefault{2^{16}}$ -->
      <g transform="translate(306.158482 508.713125) scale(0.1 -0.1)">
       <use xlink:href="#DejaVuSans-32" transform="translate(0 0.765625)"/>
       <use xlink:href="#DejaVuSans-31" transform="translate(64.580078 39.046875) scale(0.7)"/>
       <use xlink:href="#DejaVuSans-36" transform="translate(109.116211 39.046875) scale(0.7)"/>
      </g>
     </g>
    </g>
    <g id="xtick_23">
     <g id="line2d_33">
      <path d="M 353.865625 494.114688 
L 353.865625 50.594688 
" clip-path="url(#pecd6c1090a)" style="fill: none; stroke: #b0b0b0; stroke-opacity: 0.4; stroke-width: 0.8; stroke-linecap: square"/>
     </g>
     <g id="line2d_34">
      <g>
       <use xlink:href="#m6cc88dd9eb" x="353.865625" y="494.114688" style="stroke: #000000; stroke-width: 0.8"/>
      </g>
     </g>
     <g id="text_24">
      <!-- $\mathdefault{2^{18}}$ -->
      <g transform="translate(346.015625 508.713125) scale(0.1 -0.1)">
       <use xlink:href="#DejaVuSans-32" transform="translate(0 0.765625)"/>
       <use xlink:href="#DejaVuSans-31" transform="translate(64.580078 39.046875) scale(0.7)"/>
       <use xlink:href="#DejaVuSans-38" transform="translate(109.116211 39.046875) scale(0.7)"/>
      </g>
     </g>
    </g>
    <g id="xtick_24">
     <g id="line2d_35">
      <path d="M 393.722768 494.114688 
L 393.722768 50.594688 
" clip-path="url(#pecd6c1090a)" style="fill: none; stroke: #b0b0b0; stroke-opacity: 0.4; stroke-width: 0.8; stroke-linecap: square"/>
     </g>
     <g id="line2d_36">
      <g>
       <use xlink:href="#m6cc88dd9eb" x="393.722768" y="494.114688" style="stroke: #000000; stroke-width: 0.8"/>
      </g>
     </g>
     <g id="text_25">
      <!-- $\mathdefault{2^{20}}$ -->
      <g transform="translate(385.872768 508.713125) scale(0.1 -0.1)">
       <use xlink:href="#DejaVuSans-32" transform="translate(0 0.765625)"/>
       <use xlink:href="#DejaVuSans-32" transform="translate(64.580078 39.046875) scale(0.7)"/>
       <use xlink:href="#DejaVuSans-30" transform="translate(109.116211 39.046875) scale(0.7)"/>
      </g>
     </g>
    </g>
    <g id="xtick_25">
     <g id="line2d_37">
      <path d="M 433.579911 494.114688 
L 433.579911 50.594688 
" clip-path="url(#pecd6c1090a)" style="fill: none; stroke: #b0b0b0; stroke-opacity: 0.4; stroke-width: 0.8; stroke-linecap: square"/>
     </g>
     <g id="line2d_38">
      <g>
       <use xlink:href="#m6cc88dd9eb" x="433.579911" y="494.114688" style="stroke: #000000; stroke-width: 0.8"/>
      </g>
     </g>
     <g id="text_26">
      <!-- $\mathdefault{2^{22}}$ -->
      <g transform="translate(425.729911 508.713125) scale(0.1 -0.1)">
       <use xlink:href="#DejaVuSans-32" transform="translate(0 0.765625)"/>
       <use xlink:href="#DejaVuSans-32" transform="translate(64.580078 39.046875) scale(0.7)"/>
       <use xlink:href="#DejaVuSans-32" transform="translate(109.116211 39.046875) scale(0.7)"/>
      </g>
     </g>
    </g>
    <g id="xtick_26">
     <g id="line2d_39">
      <path d="M 473.437054 494.114688 
L 473.437054 50.594688 
" clip-path="url(#pecd6c1090a)" style="fill: none; stroke: #b0b0b0; stroke-opacity: 0.4; stroke-width: 0.8; stroke-linecap: square"/>
     </g>
     <g id="line2d_40">
      <g>
       <use xlink:href="#m6cc88dd9eb" x="473.437054" y="494.114688" style="stroke: #000000; stroke-width: 0.8"/>
      </g>
     </g>
     <g id="text_27">
      <!-- $\mathdefault{2^{24}}$ -->
      <g transform="translate(465.587054 508.713125) scale(0.1 -0.1)">
       <use xlink:href="#DejaVuSans-32" transform="translate(0 0.765625)"/>
       <use xlink:href="#DejaVuSans-32" transform="translate(64.580078 39.046875) scale(0.7)"/>
       <use xlink:href="#DejaVuSans-34" transform="translate(109.116211 39.046875) scale(0.7)"/>
      </g>
     </g>
    </g>
    <g id="xtick_27">
     <g id="line2d_41">
      <path d="M 513.294196 494.114688 
L 513.294196 50.594688 
" clip-path="url(#pecd6c1090a)" style="fill: none; stroke: #b0b0b0; stroke-opacity: 0.4; stroke-width: 0.8; stroke-linecap: square"/>
     </g>
     <g id="line2d_42">
      <g>
       <use xlink:href="#m6cc88dd9eb" x="513.294196" y="494.114688" style="stroke: #000000; stroke-width: 0.8"/>
      </g>
     </g>
     <g id="text_28">
      <!-- $\mathdefault{2^{26}}$ -->
      <g transform="translate(505.444196 508.713125) scale(0.1 -0.1)">
       <use xlink:href="#DejaVuSans-32" transform="translate(0 0.765625)"/>
       <use xlink:href="#DejaVuSans-32" transform="translate(64.580078 39.046875) scale(0.7)"/>
       <use xlink:href="#DejaVuSans-36" transform="translate(109.116211 39.046875) scale(0.7)"/>
      </g>
     </g>
    </g>
    <g id="xtick_28">
     <g id="line2d_43">
      <path d="M 553.151339 494.114688 
L 553.151339 50.594688 
" clip-path="url(#pecd6c1090a)" style="fill: none; stroke: #b0b0b0; stroke-opacity: 0.4; stroke-width: 0.8; stroke-linecap: square"/>
     </g>
     <g id="line2d_44">
      <g>
       <use xlink:href="#m6cc88dd9eb" x="553.151339" y="494.114688" style="stroke: #000000; stroke-width: 0.8"/>
      </g>
     </g>
     <g id="text_29">
      <!-- $\mathdefault{2^{28}}$ -->
      <g transform="translate(545.301339 508.713125) scale(0.1 -0.1)">
       <use xlink:href="#DejaVuSans-32" transform="translate(0 0.765625)"/>
       <use xlink:href="#DejaVuSans-32" transform="translate(64.580078 39.046875) scale(0.7)"/>
       <use xlink:href="#DejaVuSans-38" transform="translate(109.116211 39.046875) scale(0.7)"/>
      </g>
     </g>
    </g>
    <g id="xtick_29">
     <g id="line2d_45">
      <path d="M 593.008482 494.114688 
L 593.008482 50.594688 
" clip-path="url(#pecd6c1090a)" style="fill: none; stroke: #b0b0b0; stroke-opacity: 0.4; stroke-width: 0.8; stroke-linecap: square"/>
     </g>
     <g id="line2d_46">
      <g>
       <use xlink:href="#m6cc88dd9eb" x="593.008482" y="494.114688" style="stroke: #000000; stroke-width: 0.8"/>
      </g>
     </g>
     <g id="text_30">
      <!-- $\mathdefault{2^{30}}$ -->
      <g transform="translate(585.158482 508.713125) scale(0.1 -0.1)">
       <use xlink:href="#DejaVuSans-32" transform="translate(0 0.765625)"/>
       <use xlink:href="#DejaVuSans-33" transform="translate(64.580078 39.046875) scale(0.7)"/>
       <use xlink:href="#DejaVuSans-30" transform="translate(109.116211 39.046875) scale(0.7)"/>
      </g>
     </g>
    </g>
    <g id="xtick_30">
     <g id="line2d_47">
      <path d="M 632.865625 494.114688 
L 632.865625 50.594688 
" clip-path="url(#pecd6c1090a)" style="fill: none; stroke: #b0b0b0; stroke-opacity: 0.4; stroke-width: 0.8; stroke-linecap: square"/>
     </g>
     <g id="line2d_48">
      <g>
       <use xlink:href="#m6cc88dd9eb" x="632.865625" y="494.114688" style="stroke: #000000; stroke-width: 0.8"/>
      </g>
     </g>
     <g id="text_31">
      <!-- $\mathdefault{2^{32}}$ -->
      <g transform="translate(625.015625 508.713125) scale(0.1 -0.1)">
       <use xlink:href="#DejaVuSans-32" transform="translate(0 0.765625)"/>
       <use xlink:href="#DejaVuSans-33" transform="translate(64.580078 39.046875) scale(0.7)"/>
       <use xlink:href="#DejaVuSans-32" transform="translate(109.116211 39.046875) scale(0.7)"/>
      </g>
     </g>
    </g>
    <g id="text_32">
     <!-- Input size (bytes) -->
     <g transform="translate(310.369531 522.39125) scale(0.1 -0.1)">
      <defs>
       <path id="DejaVuSans-49" d="M 628 4666 
L 1259 4666 
L 1259 0 
L 628 0 
L 628 4666 
z
" transform="scale(0.015625)"/>
       <path id="DejaVuSans-70" d="M 1159 525 
L 1159 -1331 
L 581 -1331 
L 581 3500 
L 1159 3500 
L 1159 2969 
Q 1341 3281 1617 3432 
Q 1894 3584 2278 3584 
Q 2916 3584 3314 3078 
Q 3713 2572 3713 1747 
Q 3713 922 3314 415 
Q 2916 -91 2278 -91 
Q 1894 -91 1617 61 
Q 1341 213 1159 525 
z
M 3116 1747 
Q 3116 2381 2855 2742 
Q 2594 3103 2138 3103 
Q 1681 3103 1420 2742 
Q 1159 2381 1159 1747 
Q 1159 1113 1420 752 
Q 1681 391 2138 391 
Q 2594 391 2855 752 
Q 3116 1113 3116 1747 
z
" transform="scale(0.015625)"/>
       <path id="DejaVuSans-73" d="M 2834 3397 
L 2834 2853 
Q 2591 2978 2328 3040 
Q 2066 3103 1784 3103 
Q 1356 3103 1142 2972 
Q 928 2841 928 2578 
Q 928 2378 1081 2264 
Q 1234 2150 1697 2047 
L 1894 2003 
Q 2506 1872 2764 1633 
Q 3022 1394 3022 966 
Q 3022 478 2636 193 
Q 2250 -91 1575 -91 
Q 1294 -91 989 -36 
Q 684 19 347 128 
L 347 722 
Q 666 556 975 473 
Q 1284 391 1588 391 
Q 1994 391 2212 530 
Q 2431 669 2431 922 
Q 2431 1156 2273 1281 
Q 2116 1406 1581 1522 
L 1381 1569 
Q 847 1681 609 1914 
Q 372 2147 372 2553 
Q 372 3047 722 3315 
Q 1072 3584 1716 3584 
Q 2034 3584 2315 3537 
Q 2597 3491 2834 3397 
z
" transform="scale(0.015625)"/>
       <path id="DejaVuSans-69" d="M 603 3500 
L 1178 3500 
L 1178 0 
L 603 0 
L 603 3500 
z
M 603 4863 
L 1178 4863 
L 1178 4134 
L 603 4134 
L 603 4863 
z
" transform="scale(0.015625)"/>
       <path id="DejaVuSans-7a" d="M 353 3500 
L 3084 3500 
L 3084 2975 
L 922 459 
L 3084 459 
L 3084 0 
L 275 0 
L 275 525 
L 2438 3041 
L 353 3041 
L 353 3500 
z
" transform="scale(0.015625)"/>
       <path id="DejaVuSans-62" d="M 3116 1747 
Q 3116 2381 2855 2742 
Q 2594 3103 2138 3103 
Q 1681 3103 1420 2742 
Q 1159 2381 1159 1747 
Q 1159 1113 1420 752 
Q 1681 391 2138 391 
Q 2594 391 2855 752 
Q 3116 1113 3116 1747 
z
M 1159 2969 
Q 1341 3281 1617 3432 
Q 1894 3584 2278 3584 
Q 2916 3584 3314 3078 
Q 3713 2572 3713 1747 
Q 3713 922 3314 415 
Q 2916 -91 2278 -91 
Q 1894 -91 1617 61 
Q 1341 213 1159 525 
L 1159 0 
L 581 0 
L 581 4863 
L 1159 4863 
L 1159 2969 
z
" transform="scale(0.015625)"/>
      </defs>
      <use xlink:href="#DejaVuSans-49"/>
      <use xlink:href="#DejaVuSans-6e" x="29.492188"/>
      <use xlink:href="#DejaVuSans-70" x="92.871094"/>
      <use xlink:href="#DejaVuSans-75" x="156.347656"/>
      <use xlink:href="#DejaVuSans-74" x="219.726562"/>
      <use xlink:href="#DejaVuSans-20" x="258.935547"/>
      <use xlink:href="#DejaVuSans-73" x="290.722656"/>
      <use xlink:href="#DejaVuSans-69" x="342.822266"/>
      <use xlink:href="#DejaVuSans-7a" x="370.605469"/>
      <use xlink:href="#DejaVuSans-65" x="423.095703"/>
      <use xlink:href="#DejaVuSans-20" x="484.619141"/>
      <use xlink:href="#DejaVuSans-28" x="516.40625"/>
      <use xlink:href="#DejaVuSans-62" x="555.419922"/>
      <use xlink:href="#DejaVuSans-79" x="618.896484"/>
      <use xlink:href="#DejaVuSans-74" x="678.076172"/>
      <use xlink:href="#DejaVuSans-65" x="717.285156"/>
      <use xlink:href="#DejaVuSans-73" x="778.808594"/>
      <use xlink:href="#DejaVuSans-29" x="830.908203"/>
     </g>
    </g>
   </g>
   <g id="matplotlib.axis_4">
    <g id="ytick_1">
     <g id="line2d_49">
      <path d="M 46.965625 494.114688 
L 660.765625 494.114688 
" clip-path="url(#pecd6c1090a)" style="fill: none; stroke: #b0b0b0; stroke-opacity: 0.4; stroke-width: 0.8; stroke-linecap: square"/>
     </g>
     <g id="line2d_50">
      <defs>
       <path id="m3440bfa902" d="M 0 0 
L -3.5 0 
" style="stroke: #000000; stroke-width: 0.8"/>
      </defs>
      <g>
       <use xlink:href="#m3440bfa902" x="46.965625" y="494.114688" style="stroke: #000000; stroke-width: 0.8"/>
      </g>
     </g>
     <g id="text_33">
      <!-- 0 -->
      <g transform="translate(33.603125 497.913906) scale(0.1 -0.1)">
       <use xlink:href="#DejaVuSans-30"/>
      </g>
     </g>
    </g>
    <g id="ytick_2">
     <g id="line2d_51">
      <path d="M 46.965625 420.194688 
L 660.765625 420.194688 
" clip-path="url(#pecd6c1090a)" style="fill: none; stroke: #b0b0b0; stroke-opacity: 0.4; stroke-width: 0.8; stroke-linecap: square"/>
     </g>
     <g id="line2d_52">
      <g>
       <use xlink:href="#m3440bfa902" x="46.965625" y="420.194688" style="stroke: #000000; stroke-width: 0.8"/>
      </g>
     </g>
     <g id="text_34">
      <!-- 20 -->
      <g transform="translate(27.240625 423.993906) scale(0.1 -0.1)">
       <use xlink:href="#DejaVuSans-32"/>
       <use xlink:href="#DejaVuSans-30" x="63.623047"/>
      </g>
     </g>
    </g>
    <g id="ytick_3">
     <g id="line2d_53">
      <path d="M 46.965625 346.274688 
L 660.765625 346.274688 
" clip-path="url(#pecd6c1090a)" style="fill: none; stroke: #b0b0b0; stroke-opacity: 0.4; stroke-width: 0.8; stroke-linecap: square"/>
     </g>
     <g id="line2d_54">
      <g>
       <use xlink:href="#m3440bfa902" x="46.965625" y="346.274688" style="stroke: #000000; stroke-width: 0.8"/>
      </g>
     </g>
     <g id="text_35">
      <!-- 40 -->
      <g transform="translate(27.240625 350.073906) scale(0.1 -0.1)">
       <use xlink:href="#DejaVuSans-34"/>
       <use xlink:href="#DejaVuSans-30" x="63.623047"/>
      </g>
     </g>
    </g>
    <g id="ytick_4">
     <g id="line2d_55">
      <path d="M 46.965625 272.354688 
L 660.765625 272.354688 
" clip-path="url(#pecd6c1090a)" style="fill: none; stroke: #b0b0b0; stroke-opacity: 0.4; stroke-width: 0.8; stroke-linecap: square"/>
     </g>
     <g id="line2d_56">
      <g>
       <use xlink:href="#m3440bfa902" x="46.965625" y="272.354688" style="stroke: #000000; stroke-width: 0.8"/>
      </g>
     </g>
     <g id="text_36">
      <!-- 60 -->
      <g transform="translate(27.240625 276.153906) scale(0.1 -0.1)">
       <use xlink:href="#DejaVuSans-36"/>
       <use xlink:href="#DejaVuSans-30" x="63.623047"/>
      </g>
     </g>
    </g>
    <g id="ytick_5">
     <g id="line2d_57">
      <path d="M 46.965625 198.434688 
L 660.765625 198.434688 
" clip-path="url(#pecd6c1090a)" style="fill: none; stroke: #b0b0b0; stroke-opacity: 0.4; stroke-width: 0.8; stroke-linecap: square"/>
     </g>
     <g id="line2d_58">
      <g>
       <use xlink:href="#m3440bfa902" x="46.965625" y="198.434688" style="stroke: #000000; stroke-width: 0.8"/>
      </g>
     </g>
     <g id="text_37">
      <!-- 80 -->
      <g transform="translate(27.240625 202.233906) scale(0.1 -0.1)">
       <use xlink:href="#DejaVuSans-38"/>
       <use xlink:href="#DejaVuSans-30" x="63.623047"/>
      </g>
     </g>
    </g>
    <g id="ytick_6">
     <g id="line2d_59">
      <path d="M 46.965625 124.514688 
L 660.765625 124.514688 
" clip-path="url(#pecd6c1090a)" style="fill: none; stroke: #b0b0b0; stroke-opacity: 0.4; stroke-width: 0.8; stroke-linecap: square"/>
     </g>
     <g id="line2d_60">
      <g>
       <use xlink:href="#m3440bfa902" x="46.965625" y="124.514688" style="stroke: #000000; stroke-width: 0.8"/>
      </g>
     </g>
     <g id="text_38">
      <!-- 100 -->
      <g transform="translate(20.878125 128.313906) scale(0.1 -0.1)">
       <use xlink:href="#DejaVuSans-31"/>
       <use xlink:href="#DejaVuSans-30" x="63.623047"/>
       <use xlink:href="#DejaVuSans-30" x="127.246094"/>
      </g>
     </g>
    </g>
    <g id="ytick_7">
     <g id="line2d_61">
      <path d="M 46.965625 50.594688 
L 660.765625 50.594688 
" clip-path="url(#pecd6c1090a)" style="fill: none; stroke: #b0b0b0; stroke-opacity: 0.4; stroke-width: 0.8; stroke-linecap: square"/>
     </g>
     <g id="line2d_62">
      <g>
       <use xlink:href="#m3440bfa902" x="46.965625" y="50.594688" style="stroke: #000000; stroke-width: 0.8"/>
      </g>
     </g>
     <g id="text_39">
      <!-- 120 -->
      <g transform="translate(20.878125 54.393906) scale(0.1 -0.1)">
       <use xlink:href="#DejaVuSans-31"/>
       <use xlink:href="#DejaVuSans-32" x="63.623047"/>
       <use xlink:href="#DejaVuSans-30" x="127.246094"/>
      </g>
     </g>
    </g>
    <g id="text_40">
     <!-- Inverse throughput (ns) -->
     <g transform="translate(14.798438 331.570313) rotate(-90) scale(0.1 -0.1)">
      <defs>
       <path id="DejaVuSans-76" d="M 191 3500 
L 800 3500 
L 1894 563 
L 2988 3500 
L 3597 3500 
L 2284 0 
L 1503 0 
L 191 3500 
z
" transform="scale(0.015625)"/>
       <path id="DejaVuSans-6f" d="M 1959 3097 
Q 1497 3097 1228 2736 
Q 959 2375 959 1747 
Q 959 1119 1226 758 
Q 1494 397 1959 397 
Q 2419 397 2687 759 
Q 2956 1122 2956 1747 
Q 2956 2369 2687 2733 
Q 2419 3097 1959 3097 
z
M 1959 3584 
Q 2709 3584 3137 3096 
Q 3566 2609 3566 1747 
Q 3566 888 3137 398 
Q 2709 -91 1959 -91 
Q 1206 -91 779 398 
Q 353 888 353 1747 
Q 353 2609 779 3096 
Q 1206 3584 1959 3584 
z
" transform="scale(0.015625)"/>
      </defs>
      <use xlink:href="#DejaVuSans-49"/>
      <use xlink:href="#DejaVuSans-6e" x="29.492188"/>
      <use xlink:href="#DejaVuSans-76" x="92.871094"/>
      <use xlink:href="#DejaVuSans-65" x="152.050781"/>
      <use xlink:href="#DejaVuSans-72" x="213.574219"/>
      <use xlink:href="#DejaVuSans-73" x="254.6875"/>
      <use xlink:href="#DejaVuSans-65" x="306.787109"/>
      <use xlink:href="#DejaVuSans-20" x="368.310547"/>
      <use xlink:href="#DejaVuSans-74" x="400.097656"/>
      <use xlink:href="#DejaVuSans-68" x="439.306641"/>
      <use xlink:href="#DejaVuSans-72" x="502.685547"/>
      <use xlink:href="#DejaVuSans-6f" x="541.548828"/>
      <use xlink:href="#DejaVuSans-75" x="602.730469"/>
      <use xlink:href="#DejaVuSans-67" x="666.109375"/>
      <use xlink:href="#DejaVuSans-68" x="729.585938"/>
      <use xlink:href="#DejaVuSans-70" x="792.964844"/>
      <use xlink:href="#DejaVuSans-75" x="856.441406"/>
      <use xlink:href="#DejaVuSans-74" x="919.820312"/>
      <use xlink:href="#DejaVuSans-20" x="959.029297"/>
      <use xlink:href="#DejaVuSans-28" x="990.816406"/>
      <use xlink:href="#DejaVuSans-6e" x="1029.830078"/>
      <use xlink:href="#DejaVuSans-73" x="1093.208984"/>
      <use xlink:href="#DejaVuSans-29" x="1145.308594"/>
     </g>
    </g>
   </g>
   <g id="line2d_63">
    <path d="M 74.865625 479.847099 
L 81.281192 475.70987 
L 86.523092 475.74471 
L 90.955055 475.720193 
L 94.794196 475.662299 
L 101.209763 470.217774 
L 106.451663 470.27231 
L 110.883627 470.181538 
L 114.722768 470.193648 
L 121.138335 463.979581 
L 126.380235 464.185115 
L 130.812198 464.30241 
L 134.651339 464.015226 
L 141.066906 458.528702 
L 146.308806 458.581263 
L 150.74077 458.599475 
L 154.579911 458.567443 
L 160.995478 452.421858 
L 166.237378 452.405426 
L 170.669341 452.388791 
L 174.508482 452.233653 
L 180.924049 442.824525 
L 186.165949 442.751211 
L 190.597912 442.660102 
L 194.437054 442.804714 
L 200.852621 435.303507 
L 206.094521 435.328076 
L 210.526484 435.408197 
L 214.365625 435.362203 
L 220.781192 428.656252 
L 226.023092 428.672913 
L 230.455055 428.70937 
L 234.294196 428.75518 
L 240.709763 422.443322 
L 245.951663 422.362868 
L 250.383627 422.431196 
L 254.222768 422.377786 
L 260.638335 415.622624 
L 265.880235 415.586373 
L 270.312198 415.565424 
L 274.151339 415.504188 
L 280.566906 408.559965 
L 285.808806 408.566583 
L 290.24077 408.378933 
L 294.079911 407.846551 
L 300.495478 397.161198 
L 305.737378 395.414907 
L 310.169341 393.484278 
L 314.008482 377.901658 
L 320.424049 377.614378 
L 325.665949 372.792567 
L 330.097912 373.398104 
L 333.937054 349.189755 
L 340.352621 354.761411 
L 345.594521 341.552927 
L 350.026484 349.479994 
L 353.865625 314.836568 
L 360.281192 314.072551 
L 365.523092 296.398329 
L 369.955055 298.513476 
L 373.794196 163.183457 
L 380.209763 258.008019 
L 385.451663 220.461836 
L 389.883627 244.642037 
L 393.722768 65.21945 
L 400.138335 183.143768 
L 405.380235 101.174846 
L 409.812198 173.785399 
L 413.170072 -1 
M 415.376083 -1 
L 420.066906 67.13207 
L 425.308806 7.548718 
L 429.74077 53.641192 
L 431.435541 -1 
" clip-path="url(#pecd6c1090a)" style="fill: none; stroke: #1f77b4; stroke-opacity: 0.3; stroke-width: 0.5; stroke-linecap: square"/>
   </g>
   <g id="line2d_64">
    <path d="M 74.865625 459.112156 
L 81.281192 468.358745 
L 86.523092 479.622968 
L 90.955055 479.886648 
L 94.794196 476.11617 
L 101.209763 458.706846 
L 106.451663 469.399863 
L 110.883627 475.953321 
L 114.722768 472.408403 
L 121.138335 451.004915 
L 126.380235 454.152194 
L 130.812198 463.991071 
L 134.651339 453.676569 
L 141.066906 443.920534 
L 146.308806 445.632355 
L 150.74077 457.135914 
L 154.579911 455.636117 
L 160.995478 434.427798 
L 166.237378 443.004239 
L 170.669341 450.526508 
L 174.508482 456.452979 
L 180.924049 425.890298 
L 186.165949 438.961417 
L 190.597912 448.407262 
L 194.437054 450.744083 
L 200.852621 423.288556 
L 206.094521 428.13686 
L 210.526484 441.148217 
L 214.365625 443.459594 
L 220.781192 414.355138 
L 226.023092 420.552548 
L 230.455055 432.603791 
L 234.294196 435.250477 
L 240.709763 405.517936 
L 245.951663 412.332448 
L 250.383627 424.758552 
L 254.222768 427.510762 
L 260.638335 396.765499 
L 265.880235 406.041694 
L 270.312198 414.527539 
L 274.151339 422.41287 
L 280.566906 391.834847 
L 285.808806 395.326291 
L 290.24077 406.547427 
L 294.079911 416.443497 
L 300.495478 382.57348 
L 305.737378 386.198663 
L 310.169341 399.822633 
L 314.008482 407.265406 
L 320.424049 375.215578 
L 325.665949 374.357712 
L 330.097912 391.093456 
L 333.937054 399.329553 
L 340.352621 362.767631 
L 345.594521 364.246321 
L 350.026484 381.055811 
L 353.865625 389.341868 
L 360.281192 354.191117 
L 365.523092 350.7961 
L 369.955055 368.932451 
L 373.794196 377.684069 
L 380.209763 340.463053 
L 385.451663 333.241366 
L 389.883627 352.560138 
L 393.722768 364.721934 
L 400.138335 326.907902 
L 405.380235 324.044901 
L 409.812198 340.031605 
L 413.651339 349.299316 
L 420.066906 315.026974 
L 425.308806 309.698022 
L 429.74077 326.712086 
L 433.579911 329.584697 
L 439.995478 292.076335 
L 445.237378 293.552993 
L 449.669341 310.995838 
L 453.508482 305.412153 
L 459.924049 265.181614 
L 465.165949 248.448189 
L 469.597912 255.824588 
L 473.437054 233.931292 
L 479.852621 214.465118 
L 485.094521 182.089668 
L 489.526484 188.849454 
L 493.365625 189.652477 
L 499.781192 162.649469 
L 505.023092 141.030486 
L 509.455055 139.07455 
L 513.294196 134.957894 
L 519.709763 108.227814 
L 524.951663 82.393652 
L 529.383627 79.936522 
L 533.222768 77.582098 
L 539.638335 47.232109 
L 544.880235 27.58371 
L 549.312198 30.351351 
L 553.151339 22.696027 
L 557.466786 -1 
" clip-path="url(#pecd6c1090a)" style="fill: none; stroke: #1f77b4; stroke-opacity: 0.3; stroke-width: 0.5; stroke-linecap: square"/>
   </g>
   <g id="line2d_65">
    <path d="M 74.865625 481.61661 
L 81.281192 481.606091 
L 86.523092 481.767168 
L 90.955055 481.77225 
L 94.794196 481.762326 
L 101.209763 481.805132 
L 106.451663 481.661943 
L 110.883627 481.647203 
L 114.722768 481.741285 
L 121.138335 471.582832 
L 126.380235 471.580635 
L 130.812198 471.673003 
L 134.651339 471.769895 
L 141.066906 471.568066 
L 146.308806 471.598983 
L 150.74077 471.58862 
L 154.579911 471.783923 
L 160.995478 471.720474 
L 166.237378 471.613968 
L 170.669341 471.714794 
L 174.508482 471.6342 
L 180.924049 471.616243 
L 186.165949 471.746162 
L 190.597912 471.574973 
L 194.437054 471.758631 
L 200.852621 459.3979 
L 206.094521 459.429194 
L 210.526484 459.328035 
L 214.365625 459.415861 
L 220.781192 459.266385 
L 226.023092 459.406642 
L 230.455055 459.217551 
L 234.294196 459.244613 
L 240.709763 459.402129 
L 245.951663 459.233628 
L 250.383627 459.320867 
L 254.222768 459.246692 
L 260.638335 459.227051 
L 265.880235 459.281931 
L 270.312198 459.130786 
L 274.151339 459.305554 
L 280.566906 444.501683 
L 285.808806 444.49303 
L 290.24077 444.281331 
L 294.079911 443.96268 
L 300.495478 443.14458 
L 305.737378 442.685912 
L 310.169341 442.234228 
L 314.008482 442.137907 
L 320.424049 441.454883 
L 325.665949 441.205771 
L 330.097912 440.81505 
L 333.937054 440.415217 
L 340.352621 439.701142 
L 345.594521 438.824219 
L 350.026484 437.63983 
L 353.865625 436.375975 
L 360.281192 414.830922 
L 365.523092 413.316133 
L 369.955055 411.851116 
L 373.794196 409.972764 
L 380.209763 408.397957 
L 385.451663 406.780256 
L 389.883627 405.902719 
L 393.722768 404.012041 
L 400.138335 401.867435 
L 405.380235 400.748055 
L 409.812198 399.360356 
L 413.651339 398.178084 
L 420.066906 395.846754 
L 425.308806 394.479247 
L 429.74077 393.141099 
L 433.579911 390.923689 
L 439.995478 389.844891 
L 445.237378 372.003491 
L 449.669341 372.981089 
L 453.508482 368.878767 
L 459.924049 358.150072 
L 465.165949 354.994306 
L 469.597912 349.273758 
L 473.437054 325.587312 
L 479.852621 325.10799 
L 485.094521 308.004369 
L 489.526484 298.715797 
L 493.365625 292.582138 
L 499.781192 285.114612 
L 505.023092 275.171356 
L 509.455055 266.708203 
L 513.294196 264.579128 
L 519.709763 246.173387 
L 524.951663 198.403423 
L 529.383627 186.765524 
L 533.222768 179.420153 
L 539.638335 165.83728 
L 544.880235 160.762231 
L 549.312198 152.259079 
L 553.151339 141.258671 
L 559.566906 137.497047 
L 564.808806 128.674608 
L 569.24077 116.254425 
L 573.079911 114.315201 
L 579.495478 108.863348 
L 584.737378 102.153944 
L 589.169341 93.118251 
L 593.008482 90.314015 
L 599.424049 72.489901 
L 604.665949 22.950727 
L 609.097912 12.814561 
L 612.937054 1.431159 
L 614.761885 -1 
" clip-path="url(#pecd6c1090a)" style="fill: none; stroke: #e377c2; stroke-width: 2; stroke-linecap: square"/>
   </g>
   <g id="line2d_66">
    <path d="M 74.865625 481.598291 
L 81.281192 481.658671 
L 86.523092 481.794795 
L 90.955055 481.773502 
L 94.794196 481.635328 
L 101.209763 481.660879 
L 106.451663 481.726267 
L 110.883627 481.836578 
L 114.722768 481.793912 
L 121.138335 472.30874 
L 126.380235 472.3154 
L 130.812198 472.326424 
L 134.651339 472.385829 
L 141.066906 472.370232 
L 146.308806 472.146918 
L 150.74077 472.286111 
L 154.579911 472.294214 
L 160.995478 472.160735 
L 166.237378 472.407439 
L 170.669341 472.182127 
L 174.508482 472.358117 
L 180.924049 472.184712 
L 186.165949 472.181285 
L 190.597912 472.286831 
L 194.437054 472.274026 
L 200.852621 459.92832 
L 206.094521 459.751949 
L 210.526484 459.933694 
L 214.365625 459.895334 
L 220.781192 459.742265 
L 226.023092 459.763498 
L 230.455055 459.760045 
L 234.294196 459.761231 
L 240.709763 459.7391 
L 245.951663 459.924394 
L 250.383627 459.866223 
L 254.222768 459.714011 
L 260.638335 459.678591 
L 265.880235 459.682096 
L 270.312198 459.768403 
L 274.151339 459.825123 
L 280.566906 445.367966 
L 285.808806 445.254243 
L 290.24077 445.04639 
L 294.079911 444.657002 
L 300.495478 443.747635 
L 305.737378 443.373996 
L 310.169341 442.811764 
L 314.008482 442.644926 
L 320.424049 442.060228 
L 325.665949 441.654947 
L 330.097912 441.206938 
L 333.937054 440.871703 
L 340.352621 439.942336 
L 345.594521 439.037952 
L 350.026484 438.171757 
L 353.865625 437.049758 
L 360.281192 415.692814 
L 365.523092 413.846668 
L 369.955055 412.74828 
L 373.794196 410.917624 
L 380.209763 409.430842 
L 385.451663 407.81676 
L 389.883627 406.629798 
L 393.722768 404.882369 
L 400.138335 403.314668 
L 405.380235 402.513119 
L 409.812198 399.281937 
L 413.651339 399.270285 
L 420.066906 396.718836 
L 425.308806 395.080108 
L 429.74077 393.909263 
L 433.579911 391.831434 
L 439.995478 390.863342 
L 445.237378 372.953171 
L 449.669341 373.513681 
L 453.508482 370.017287 
L 459.924049 360.084797 
L 465.165949 356.297105 
L 469.597912 349.759547 
L 473.437054 327.752173 
L 479.852621 325.978621 
L 485.094521 310.653102 
L 489.526484 304.324986 
L 493.365625 294.967406 
L 499.781192 287.233486 
L 505.023092 278.061408 
L 509.455055 269.650546 
L 513.294196 267.641547 
L 519.709763 249.814448 
L 524.951663 204.139535 
L 529.383627 195.652442 
L 533.222768 187.405062 
L 539.638335 175.357321 
L 544.880235 170.116567 
L 549.312198 163.004335 
L 553.151339 152.704385 
L 559.566906 149.563466 
L 564.808806 141.739981 
L 569.24077 130.191033 
L 573.079911 129.384483 
L 579.495478 126.268107 
L 584.737378 119.986963 
L 589.169341 113.357196 
L 593.008482 108.901774 
L 599.424049 92.72937 
L 604.665949 28.653119 
L 609.097912 19.142773 
L 612.937054 7.272795 
L 618.291316 -1 
" clip-path="url(#pecd6c1090a)" style="fill: none; stroke: #1f77b4; stroke-linecap: square"/>
   </g>
   <g id="line2d_67">
    <path d="M 74.865625 480.225148 
L 81.281192 480.367739 
L 86.523092 480.218267 
L 90.955055 480.221802 
L 94.794196 480.216564 
L 101.209763 480.246832 
L 106.451663 480.38122 
L 110.883627 480.245605 
L 114.722768 480.415897 
L 121.138335 472.849432 
L 126.380235 472.721592 
L 130.812198 472.885878 
L 134.651339 472.700577 
L 141.066906 472.70526 
L 146.308806 472.760761 
L 150.74077 472.88408 
L 154.579911 472.827091 
L 160.995478 472.858182 
L 166.237378 472.883105 
L 170.669341 472.766534 
L 174.508482 472.657246 
L 180.924049 472.865059 
L 186.165949 472.674361 
L 190.597912 472.747394 
L 194.437054 472.710512 
L 200.852621 462.240034 
L 206.094521 462.210856 
L 210.526484 462.353757 
L 214.365625 462.298759 
L 220.781192 462.397631 
L 226.023092 462.411696 
L 230.455055 462.402414 
L 234.294196 462.280321 
L 240.709763 462.417402 
L 245.951663 462.390115 
L 250.383627 462.229205 
L 254.222768 462.392697 
L 260.638335 462.338459 
L 265.880235 462.071644 
L 270.312198 462.36168 
L 274.151339 462.368863 
L 280.566906 450.349166 
L 285.808806 450.360409 
L 290.24077 450.206837 
L 294.079911 450.19449 
L 300.495478 449.667405 
L 305.737378 449.458728 
L 310.169341 448.951395 
L 314.008482 449.049765 
L 320.424049 448.701511 
L 325.665949 448.000382 
L 330.097912 447.870263 
L 333.937054 447.4245 
L 340.352621 446.778794 
L 345.594521 445.675353 
L 350.026484 444.419247 
L 353.865625 443.174815 
L 360.281192 428.357932 
L 365.523092 427.047787 
L 369.955055 426.057986 
L 373.794196 424.689463 
L 380.209763 423.70221 
L 385.451663 422.326511 
L 389.883627 421.892241 
L 393.722768 420.660182 
L 400.138335 419.194977 
L 405.380235 417.803628 
L 409.812198 415.667311 
L 413.651339 416.797284 
L 420.066906 414.816048 
L 425.308806 412.762939 
L 429.74077 411.907112 
L 433.579911 410.025177 
L 439.995478 409.632077 
L 445.237378 395.328212 
L 449.669341 396.11539 
L 453.508482 392.535499 
L 459.924049 380.893995 
L 465.165949 379.700795 
L 469.597912 374.282961 
L 473.437054 351.658398 
L 479.852621 351.092425 
L 485.094521 336.841061 
L 489.526484 332.212485 
L 493.365625 323.197343 
L 499.781192 318.219371 
L 505.023092 310.635606 
L 509.455055 303.849486 
L 513.294196 302.284393 
L 519.709763 288.952978 
L 524.951663 249.660389 
L 529.383627 241.35968 
L 533.222768 230.765827 
L 539.638335 221.847171 
L 544.880235 217.415431 
L 549.312198 208.600324 
L 553.151339 199.24766 
L 559.566906 195.221507 
L 564.808806 188.338417 
L 569.24077 178.534084 
L 573.079911 177.515496 
L 579.495478 175.28271 
L 584.737378 171.009236 
L 589.169341 166.955988 
L 593.008482 162.381975 
L 599.424049 156.673759 
L 604.665949 82.296383 
L 609.097912 70.070901 
L 612.937054 64.9506 
L 619.352621 57.825364 
L 624.594521 54.082295 
L 629.026484 43.633493 
L 632.865625 35.296238 
" clip-path="url(#pecd6c1090a)" style="fill: none; stroke: #ff7f0e; stroke-linecap: square"/>
   </g>
   <g id="line2d_68">
    <path d="M 74.865625 477.750588 
L 81.281192 477.572289 
L 86.523092 477.695453 
L 90.955055 477.712391 
L 94.794196 477.734105 
L 101.209763 477.698763 
L 106.451663 477.692931 
L 110.883627 477.739704 
L 114.722768 477.693485 
L 121.138335 471.369841 
L 126.380235 471.365952 
L 130.812198 471.237588 
L 134.651339 471.208502 
L 141.066906 471.381512 
L 146.308806 471.365527 
L 150.74077 471.194427 
L 154.579911 471.188979 
L 160.995478 471.388751 
L 166.237378 471.217444 
L 170.669341 471.24082 
L 174.508482 471.223664 
L 180.924049 471.377933 
L 186.165949 471.253931 
L 190.597912 471.380715 
L 194.437054 471.221965 
L 200.852621 465.987616 
L 206.094521 465.907366 
L 210.526484 466.012107 
L 214.365625 465.914967 
L 220.781192 466.00732 
L 226.023092 465.939653 
L 230.455055 465.976536 
L 234.294196 466.010013 
L 240.709763 465.90078 
L 245.951663 466.034762 
L 250.383627 465.962589 
L 254.222768 466.043859 
L 260.638335 466.044841 
L 265.880235 465.880998 
L 270.312198 465.867806 
L 274.151339 465.9097 
L 280.566906 459.7004 
L 285.808806 459.567667 
L 290.24077 459.426568 
L 294.079911 459.52072 
L 300.495478 458.963032 
L 305.737378 458.691681 
L 310.169341 458.564455 
L 314.008482 458.328812 
L 320.424049 458.045573 
L 325.665949 457.421706 
L 330.097912 457.267809 
L 333.937054 457.099907 
L 340.352621 456.584297 
L 345.594521 455.602606 
L 350.026484 454.427636 
L 353.865625 453.505745 
L 360.281192 443.561816 
L 365.523092 441.954401 
L 369.955055 441.288665 
L 373.794196 440.434833 
L 380.209763 438.947759 
L 385.451663 437.623232 
L 389.883627 436.786873 
L 393.722768 435.064596 
L 400.138335 434.21117 
L 405.380235 432.886317 
L 409.812198 430.507639 
L 413.651339 429.451648 
L 420.066906 429.415707 
L 425.308806 428.587119 
L 429.74077 427.463402 
L 433.579911 425.442972 
L 439.995478 425.520286 
L 445.237378 414.193367 
L 449.669341 413.141007 
L 453.508482 409.91774 
L 459.924049 401.145775 
L 465.165949 397.556459 
L 469.597912 392.190218 
L 473.437054 371.561782 
L 479.852621 369.910319 
L 485.094521 357.215055 
L 489.526484 352.741528 
L 493.365625 346.366228 
L 499.781192 340.955811 
L 505.023092 334.61544 
L 509.455055 327.65825 
L 513.294196 326.388695 
L 519.709763 312.764914 
L 524.951663 297.889872 
L 529.383627 292.1869 
L 533.222768 283.900115 
L 539.638335 277.779701 
L 544.880235 276.074019 
L 549.312198 271.829745 
L 553.151339 265.578411 
L 559.566906 263.580093 
L 564.808806 258.803818 
L 569.24077 252.579926 
L 573.079911 251.715024 
L 579.495478 250.133927 
L 584.737378 246.016887 
L 589.169341 242.134585 
L 593.008482 239.859129 
L 599.424049 227.760149 
L 604.665949 211.062207 
L 609.097912 204.744448 
L 612.937054 199.948823 
L 619.352621 195.435566 
L 624.594521 191.814878 
L 629.026484 185.036662 
L 632.865625 179.974536 
" clip-path="url(#pecd6c1090a)" style="fill: none; stroke: #d62728; stroke-linecap: square"/>
   </g>
   <g id="line2d_69">
    <path d="M 74.865625 481.007897 
L 81.281192 480.999321 
L 86.523092 480.786175 
L 90.955055 480.959096 
L 94.794196 481.0028 
L 101.209763 481.012702 
L 106.451663 480.865085 
L 110.883627 481.022021 
L 114.722768 480.787575 
L 121.138335 474.571531 
L 126.380235 474.524503 
L 130.812198 474.496932 
L 134.651339 474.354116 
L 141.066906 474.357979 
L 146.308806 474.350278 
L 150.74077 474.555362 
L 154.579911 474.354201 
L 160.995478 474.418706 
L 166.237378 474.450332 
L 170.669341 474.349466 
L 174.508482 474.264647 
L 180.924049 474.334378 
L 186.165949 474.335431 
L 190.597912 474.319811 
L 194.437054 473.641873 
L 200.852621 468.042188 
L 206.094521 468.269228 
L 210.526484 466.932188 
L 214.365625 468.261232 
L 220.781192 468.323499 
L 226.023092 468.46684 
L 230.455055 468.325449 
L 234.294196 468.296508 
L 240.709763 468.45874 
L 245.951663 468.314487 
L 250.383627 468.341242 
L 254.222768 468.523087 
L 260.638335 468.478404 
L 265.880235 468.228187 
L 270.312198 467.884154 
L 274.151339 467.524295 
L 280.566906 461.632857 
L 285.808806 461.412092 
L 290.24077 461.500065 
L 294.079911 460.980943 
L 300.495478 460.873757 
L 305.737378 460.747379 
L 310.169341 460.888611 
L 314.008482 460.449134 
L 320.424049 460.07849 
L 325.665949 459.908161 
L 330.097912 459.869927 
L 333.937054 459.643703 
L 340.352621 459.273979 
L 345.594521 458.995345 
L 350.026484 457.906837 
L 353.865625 456.884497 
L 360.281192 448.864556 
L 365.523092 448.022963 
L 369.955055 447.146449 
L 373.794196 446.115455 
L 380.209763 445.740335 
L 385.451663 443.962022 
L 389.883627 444.207541 
L 393.722768 442.679463 
L 400.138335 442.49664 
L 405.380235 441.882298 
L 409.812198 440.969489 
L 413.651339 438.521293 
L 420.066906 440.799803 
L 425.308806 439.136292 
L 429.74077 439.353184 
L 433.579911 437.901578 
L 439.995478 437.163263 
L 445.237378 427.16496 
L 449.669341 429.162488 
L 453.508482 426.500699 
L 459.924049 419.434885 
L 465.165949 417.165394 
L 469.597912 412.780361 
L 473.437054 400.606058 
L 479.852621 400.503998 
L 485.094521 392.819337 
L 489.526484 390.367064 
L 493.365625 387.560567 
L 499.781192 383.834407 
L 505.023092 379.765484 
L 509.455055 375.736982 
L 513.294196 372.937888 
L 519.709763 366.055388 
L 524.951663 357.022736 
L 529.383627 353.586153 
L 533.222768 349.330799 
L 539.638335 346.315415 
L 544.880235 344.289234 
L 549.312198 342.101814 
L 553.151339 340.410636 
L 559.566906 336.697705 
L 564.808806 333.683533 
L 569.24077 329.259811 
L 573.079911 329.23549 
L 579.495478 327.431508 
L 584.737378 325.291907 
L 589.169341 322.863064 
L 593.008482 321.003434 
L 599.424049 316.278379 
L 604.665949 304.833116 
L 609.097912 302.493336 
L 612.937054 298.598148 
L 619.352621 296.316107 
L 624.594521 292.893507 
L 629.026484 290.789488 
L 632.865625 289.415225 
" clip-path="url(#pecd6c1090a)" style="fill: none; stroke: #8c564b; stroke-linecap: square"/>
   </g>
   <g id="line2d_70">
    <path d="M 74.865625 482.450683 
L 81.281192 482.626426 
L 86.523092 482.625167 
L 90.955055 482.611003 
L 94.794196 482.547303 
L 101.209763 482.666444 
L 106.451663 482.534749 
L 110.883627 482.487071 
L 114.722768 482.662012 
L 121.138335 474.879716 
L 126.380235 474.893178 
L 130.812198 474.875073 
L 134.651339 475.115842 
L 141.066906 475.070731 
L 146.308806 475.11219 
L 150.74077 475.062059 
L 154.579911 475.09876 
L 160.995478 475.069701 
L 166.237378 475.082809 
L 170.669341 475.084895 
L 174.508482 475.080039 
L 180.924049 473.342213 
L 186.165949 473.535082 
L 190.597912 474.153354 
L 194.437054 474.618375 
L 200.852621 467.169943 
L 206.094521 467.374938 
L 210.526484 467.84445 
L 214.365625 468.662431 
L 220.781192 467.358946 
L 226.023092 468.344751 
L 230.455055 468.477972 
L 234.294196 468.663935 
L 240.709763 468.50524 
L 245.951663 468.507379 
L 250.383627 468.48349 
L 254.222768 468.053168 
L 260.638335 467.536218 
L 265.880235 466.947364 
L 270.312198 467.729914 
L 274.151339 467.546821 
L 280.566906 460.818887 
L 285.808806 460.853834 
L 290.24077 460.909642 
L 294.079911 460.800003 
L 300.495478 460.71586 
L 305.737378 460.473385 
L 310.169341 460.14489 
L 314.008482 460.293571 
L 320.424049 460.013002 
L 325.665949 459.696847 
L 330.097912 459.727218 
L 333.937054 459.388784 
L 340.352621 458.437845 
L 345.594521 458.163159 
L 350.026484 456.990058 
L 353.865625 456.338561 
L 360.281192 448.967439 
L 365.523092 447.852642 
L 369.955055 447.380578 
L 373.794196 446.91423 
L 380.209763 446.028557 
L 385.451663 444.403823 
L 389.883627 444.81317 
L 393.722768 443.255593 
L 400.138335 443.212465 
L 405.380235 442.410377 
L 409.812198 441.897456 
L 413.651339 439.856727 
L 420.066906 440.561254 
L 425.308806 438.080091 
L 429.74077 438.650762 
L 433.579911 438.799052 
L 439.995478 437.976218 
L 445.237378 428.578532 
L 449.669341 430.693897 
L 453.508482 429.423075 
L 459.924049 423.022133 
L 465.165949 420.824516 
L 469.597912 417.587819 
L 473.437054 408.988414 
L 479.852621 408.420579 
L 485.094521 402.086432 
L 489.526484 400.7357 
L 493.365625 395.739121 
L 499.781192 392.150743 
L 505.023092 387.731587 
L 509.455055 384.936909 
L 513.294196 383.109463 
L 519.709763 375.620991 
L 524.951663 365.876713 
L 529.383627 363.217247 
L 533.222768 359.459228 
L 539.638335 356.978677 
L 544.880235 355.607987 
L 549.312198 354.361412 
L 553.151339 352.700306 
L 559.566906 351.276851 
L 564.808806 348.537645 
L 569.24077 345.543335 
L 573.079911 345.027593 
L 579.495478 342.867138 
L 584.737378 341.419669 
L 589.169341 339.374176 
L 593.008482 337.704028 
L 599.424049 329.948357 
L 604.665949 321.787886 
L 609.097912 319.492837 
L 612.937054 315.95063 
L 619.352621 315.338157 
L 624.594521 313.461253 
L 629.026484 310.140779 
L 632.865625 310.423642 
" clip-path="url(#pecd6c1090a)" style="fill: none; stroke: #1f77b4; stroke-linecap: square"/>
   </g>
   <g id="line2d_71">
    <path d="M 74.865625 484.355104 
L 81.281192 484.368725 
L 86.523092 484.491671 
L 90.955055 484.28289 
L 94.794196 484.390361 
L 101.209763 484.249037 
L 106.451663 484.471546 
L 110.883627 484.282093 
L 114.722768 484.322144 
L 121.138335 477.120365 
L 126.380235 477.107202 
L 130.812198 476.873904 
L 134.651339 476.954712 
L 141.066906 477.117972 
L 146.308806 476.923485 
L 150.74077 476.945471 
L 154.579911 477.121181 
L 160.995478 477.131933 
L 166.237378 476.937859 
L 170.669341 477.144136 
L 174.508482 476.898495 
L 180.924049 476.473979 
L 186.165949 476.278517 
L 190.597912 476.891847 
L 194.437054 476.610554 
L 200.852621 469.410411 
L 206.094521 468.41784 
L 210.526484 469.660081 
L 214.365625 469.87493 
L 220.781192 469.354113 
L 226.023092 469.910143 
L 230.455055 469.853538 
L 234.294196 469.861442 
L 240.709763 469.721721 
L 245.951663 469.652458 
L 250.383627 469.487751 
L 254.222768 469.261497 
L 260.638335 469.083915 
L 265.880235 468.885406 
L 270.312198 469.202351 
L 274.151339 468.942542 
L 280.566906 461.796283 
L 285.808806 461.872496 
L 290.24077 461.899022 
L 294.079911 461.50008 
L 300.495478 461.237327 
L 305.737378 460.967838 
L 310.169341 460.761152 
L 314.008482 460.707177 
L 320.424049 460.479168 
L 325.665949 460.04351 
L 330.097912 459.909225 
L 333.937054 459.384892 
L 340.352621 458.916262 
L 345.594521 458.477844 
L 350.026484 457.878601 
L 353.865625 457.261464 
L 360.281192 447.868601 
L 365.523092 447.155834 
L 369.955055 446.805844 
L 373.794196 446.230693 
L 380.209763 445.058633 
L 385.451663 444.191659 
L 389.883627 443.994347 
L 393.722768 443.586954 
L 400.138335 442.66216 
L 405.380235 442.256477 
L 409.812198 440.400798 
L 413.651339 439.629387 
L 420.066906 439.391728 
L 425.308806 438.095056 
L 429.74077 438.34746 
L 433.579911 436.879969 
L 439.995478 437.375826 
L 445.237378 428.484405 
L 449.669341 428.770522 
L 453.508482 428.254853 
L 459.924049 421.46032 
L 465.165949 419.723402 
L 469.597912 418.20061 
L 473.437054 408.939502 
L 479.852621 408.174178 
L 485.094521 402.06634 
L 489.526484 396.809853 
L 493.365625 394.519693 
L 499.781192 392.566206 
L 505.023092 388.755201 
L 509.455055 382.915452 
L 513.294196 381.057905 
L 519.709763 377.473453 
L 524.951663 365.315427 
L 529.383627 362.997985 
L 533.222768 358.079285 
L 539.638335 355.410223 
L 544.880235 354.489078 
L 549.312198 353.81117 
L 553.151339 350.782855 
L 559.566906 349.549788 
L 564.808806 344.770255 
L 569.24077 343.022944 
L 573.079911 342.858138 
L 579.495478 342.246887 
L 584.737378 338.948522 
L 589.169341 335.994301 
L 593.008482 334.470689 
L 599.424049 327.351882 
L 604.665949 314.466341 
L 609.097912 312.630038 
L 612.937054 312.617979 
L 619.352621 312.400039 
L 624.594521 311.357053 
L 629.026484 306.265516 
L 632.865625 304.469867 
" clip-path="url(#pecd6c1090a)" style="fill: none; stroke: #2ca02c; stroke-linecap: square"/>
   </g>
   <g id="line2d_72">
    <path d="M 74.865625 483.032579 
L 81.281192 483.024944 
L 86.523092 482.908392 
L 90.955055 482.997536 
L 94.794196 483.040028 
L 101.209763 483.003607 
L 106.451663 483.094846 
L 110.883627 483.116965 
L 114.722768 483.072859 
L 121.138335 474.654873 
L 126.380235 473.558528 
L 130.812198 473.755803 
L 134.651339 474.301762 
L 141.066906 474.399411 
L 146.308806 474.051353 
L 150.74077 473.680809 
L 154.579911 473.927114 
L 160.995478 473.594003 
L 166.237378 473.021563 
L 170.669341 472.641209 
L 174.508482 473.443353 
L 180.924049 473.842185 
L 186.165949 473.352684 
L 190.597912 473.36376 
L 194.437054 472.592682 
L 200.852621 464.578499 
L 206.094521 464.883581 
L 210.526484 465.126474 
L 214.365625 466.351301 
L 220.781192 466.416224 
L 226.023092 464.910059 
L 230.455055 465.483153 
L 234.294196 464.927481 
L 240.709763 466.462953 
L 245.951663 466.43369 
L 250.383627 465.342623 
L 254.222768 465.213165 
L 260.638335 465.253807 
L 265.880235 466.640694 
L 270.312198 465.063324 
L 274.151339 465.510602 
L 280.566906 457.216888 
L 285.808806 457.286368 
L 290.24077 458.091991 
L 294.079911 457.647428 
L 300.495478 457.639653 
L 305.737378 456.947676 
L 310.169341 456.750316 
L 314.008482 456.487733 
L 320.424049 456.062608 
L 325.665949 455.737379 
L 330.097912 455.657476 
L 333.937054 455.582219 
L 340.352621 455.395292 
L 345.594521 454.734403 
L 350.026484 454.390868 
L 353.865625 453.711652 
L 360.281192 444.669947 
L 365.523092 443.783328 
L 369.955055 443.494441 
L 373.794196 442.613425 
L 380.209763 441.068476 
L 385.451663 440.780457 
L 389.883627 440.086298 
L 393.722768 439.958683 
L 400.138335 438.727514 
L 405.380235 438.680379 
L 409.812198 437.244544 
L 413.651339 436.151748 
L 420.066906 436.809262 
L 425.308806 434.831114 
L 429.74077 435.176007 
L 433.579911 433.561866 
L 439.995478 433.708764 
L 445.237378 424.052547 
L 449.669341 423.607178 
L 453.508482 422.331567 
L 459.924049 417.609034 
L 465.165949 414.880879 
L 469.597912 412.849206 
L 473.437054 405.203085 
L 479.852621 403.250968 
L 485.094521 401.69625 
L 489.526484 396.373119 
L 493.365625 395.88856 
L 499.781192 389.129623 
L 505.023092 383.458822 
L 509.455055 380.653193 
L 513.294196 380.480549 
L 519.709763 375.699125 
L 524.951663 362.33622 
L 529.383627 358.661745 
L 533.222768 354.661978 
L 539.638335 352.123245 
L 544.880235 350.512513 
L 549.312198 348.187887 
L 553.151339 343.487463 
L 559.566906 342.928582 
L 564.808806 342.789178 
L 569.24077 342.757337 
L 573.079911 342.348349 
L 579.495478 341.087525 
L 584.737378 334.24069 
L 589.169341 333.923031 
L 593.008482 333.262829 
L 599.424049 325.497182 
L 604.665949 312.956827 
L 609.097912 312.487728 
L 612.937054 310.239098 
L 619.352621 308.797848 
L 624.594521 306.378272 
L 629.026484 302.809909 
L 632.865625 302.313209 
" clip-path="url(#pecd6c1090a)" style="fill: none; stroke: #9467bd; stroke-linecap: square"/>
   </g>
   <g id="line2d_73">
    <path d="M 74.865625 484.111413 
L 81.281192 483.831657 
L 86.523092 483.965406 
L 90.955055 483.960789 
L 94.794196 483.924453 
L 101.209763 484.088507 
L 106.451663 483.934112 
L 110.883627 483.892214 
L 114.722768 483.801482 
L 121.138335 476.523482 
L 126.380235 476.349504 
L 130.812198 476.301099 
L 134.651339 476.349996 
L 141.066906 476.329815 
L 146.308806 476.500657 
L 150.74077 476.341663 
L 154.579911 476.288737 
L 160.995478 476.302824 
L 166.237378 476.39705 
L 170.669341 476.502348 
L 174.508482 476.465019 
L 180.924049 476.499187 
L 186.165949 476.28456 
L 190.597912 476.489946 
L 194.437054 476.457086 
L 200.852621 468.580017 
L 206.094521 468.553218 
L 210.526484 468.716809 
L 214.365625 468.692485 
L 220.781192 468.513495 
L 226.023092 468.599282 
L 230.455055 468.567167 
L 234.294196 468.457185 
L 240.709763 468.689408 
L 245.951663 468.546728 
L 250.383627 468.665685 
L 254.222768 468.47935 
L 260.638335 468.5847 
L 265.880235 468.694302 
L 270.312198 468.616847 
L 274.151339 468.485698 
L 280.566906 460.961748 
L 285.808806 460.927226 
L 290.24077 460.870185 
L 294.079911 460.784302 
L 300.495478 460.142371 
L 305.737378 459.790519 
L 310.169341 459.535859 
L 314.008482 459.370181 
L 320.424049 459.055666 
L 325.665949 458.827824 
L 330.097912 458.66927 
L 333.937054 458.646755 
L 340.352621 458.344524 
L 345.594521 457.686456 
L 350.026484 457.212862 
L 353.865625 456.761355 
L 360.281192 448.099383 
L 365.523092 447.266522 
L 369.955055 446.547276 
L 373.794196 446.210955 
L 380.209763 445.183415 
L 385.451663 444.051151 
L 389.883627 443.771044 
L 393.722768 442.666606 
L 400.138335 441.648524 
L 405.380235 441.745997 
L 409.812198 440.155327 
L 413.651339 439.33913 
L 420.066906 439.371529 
L 425.308806 438.000073 
L 429.74077 437.08732 
L 433.579911 436.680392 
L 439.995478 437.029049 
L 445.237378 427.756085 
L 449.669341 428.38728 
L 453.508482 427.308804 
L 459.924049 421.599539 
L 465.165949 419.08023 
L 469.597912 418.471004 
L 473.437054 411.877683 
L 479.852621 410.201969 
L 485.094521 405.445158 
L 489.526484 401.623335 
L 493.365625 400.087834 
L 499.781192 395.656596 
L 505.023092 391.485536 
L 509.455055 387.523375 
L 513.294196 384.873671 
L 519.709763 378.499409 
L 524.951663 368.232326 
L 529.383627 365.073192 
L 533.222768 361.546128 
L 539.638335 359.134245 
L 544.880235 357.804817 
L 549.312198 356.017333 
L 553.151339 353.041975 
L 559.566906 352.037307 
L 564.808806 349.248864 
L 569.24077 346.379122 
L 573.079911 345.994761 
L 579.495478 343.554044 
L 584.737378 342.133973 
L 589.169341 339.762474 
L 593.008482 337.894688 
L 599.424049 330.870832 
L 604.665949 319.940418 
L 609.097912 317.815055 
L 612.937054 314.524671 
L 619.352621 313.442819 
L 624.594521 311.371464 
L 629.026484 308.567875 
L 632.865625 307.59073 
" clip-path="url(#pecd6c1090a)" style="fill: none; stroke: #17becf; stroke-width: 1.5; stroke-linecap: square"/>
   </g>
   <g id="line2d_74"/>
   <g id="line2d_75"/>
   <g id="line2d_76"/>
   <g id="line2d_77"/>
   <g id="line2d_78"/>
   <g id="line2d_79"/>
   <g id="line2d_80"/>
   <g id="line2d_81"/>
   <g id="line2d_82"/>
   <g id="line2d_83"/>
   <g id="line2d_84"/>
   <g id="line2d_85"/>
   <g id="line2d_86"/>
   <g id="line2d_87"/>
   <g id="line2d_88"/>
   <g id="patch_5">
    <path d="M 46.965625 494.114688 
L 46.965625 50.594688 
" style="fill: none; stroke: #000000; stroke-width: 0.8; stroke-linejoin: miter; stroke-linecap: square"/>
   </g>
   <g id="patch_6">
    <path d="M 660.765625 494.114688 
L 660.765625 50.594688 
" style="fill: none; stroke: #000000; stroke-width: 0.8; stroke-linejoin: miter; stroke-linecap: square"/>
   </g>
   <g id="patch_7">
    <path d="M 46.965625 494.114688 
L 660.765625 494.114688 
" style="fill: none; stroke: #000000; stroke-width: 0.8; stroke-linejoin: miter; stroke-linecap: square"/>
   </g>
   <g id="patch_8">
    <path d="M 46.965625 50.594688 
L 660.765625 50.594688 
" style="fill: none; stroke: #000000; stroke-width: 0.8; stroke-linejoin: miter; stroke-linecap: square"/>
   </g>
   <g id="text_41">
    <!-- L1  -->
    <g style="fill: #ff0000" transform="translate(278.967411 492.035) scale(0.1 -0.1)">
     <defs>
      <path id="DejaVuSans-4c" d="M 628 4666 
L 1259 4666 
L 1259 531 
L 3531 531 
L 3531 0 
L 628 0 
L 628 4666 
z
" transform="scale(0.015625)"/>
     </defs>
     <use xlink:href="#DejaVuSans-4c"/>
     <use xlink:href="#DejaVuSans-31" x="55.712891"/>
     <use xlink:href="#DejaVuSans-20" x="119.335938"/>
    </g>
   </g>
   <g id="text_42">
    <!-- L2  -->
    <g style="fill: #ff0000" transform="translate(338.753125 492.035) scale(0.1 -0.1)">
     <use xlink:href="#DejaVuSans-4c"/>
     <use xlink:href="#DejaVuSans-32" x="55.712891"/>
     <use xlink:href="#DejaVuSans-20" x="119.335938"/>
    </g>
   </g>
   <g id="text_43">
    <!-- L3  -->
    <g style="fill: #ff0000" transform="translate(450.053449 492.035) scale(0.1 -0.1)">
     <use xlink:href="#DejaVuSans-4c"/>
     <use xlink:href="#DejaVuSans-33" x="55.712891"/>
     <use xlink:href="#DejaVuSans-20" x="119.335938"/>
    </g>
   </g>
   <g id="text_44">
    <!-- RAM -->
    <g style="fill: #ff0000" transform="translate(610.848438 492.035) scale(0.1 -0.1)">
     <defs>
      <path id="DejaVuSans-52" d="M 2841 2188 
Q 3044 2119 3236 1894 
Q 3428 1669 3622 1275 
L 4263 0 
L 3584 0 
L 2988 1197 
Q 2756 1666 2539 1819 
Q 2322 1972 1947 1972 
L 1259 1972 
L 1259 0 
L 628 0 
L 628 4666 
L 2053 4666 
Q 2853 4666 3247 4331 
Q 3641 3997 3641 3322 
Q 3641 2881 3436 2590 
Q 3231 2300 2841 2188 
z
M 1259 4147 
L 1259 2491 
L 2053 2491 
Q 2509 2491 2742 2702 
Q 2975 2913 2975 3322 
Q 2975 3731 2742 3939 
Q 2509 4147 2053 4147 
L 1259 4147 
z
" transform="scale(0.015625)"/>
      <path id="DejaVuSans-4d" d="M 628 4666 
L 1569 4666 
L 2759 1491 
L 3956 4666 
L 4897 4666 
L 4897 0 
L 4281 0 
L 4281 4097 
L 3078 897 
L 2444 897 
L 1241 4097 
L 1241 0 
L 628 0 
L 628 4666 
z
" transform="scale(0.015625)"/>
     </defs>
     <use xlink:href="#DejaVuSans-52"/>
     <use xlink:href="#DejaVuSans-41" x="65.482422"/>
     <use xlink:href="#DejaVuSans-4d" x="133.890625"/>
    </g>
   </g>
   <g id="text_45">
    <!-- Batch size -->
    <g transform="translate(323.078125 16.318125) scale(0.12 -0.12)">
     <defs>
      <path id="DejaVuSans-42" d="M 1259 2228 
L 1259 519 
L 2272 519 
Q 2781 519 3026 730 
Q 3272 941 3272 1375 
Q 3272 1813 3026 2020 
Q 2781 2228 2272 2228 
L 1259 2228 
z
M 1259 4147 
L 1259 2741 
L 2194 2741 
Q 2656 2741 2882 2914 
Q 3109 3088 3109 3444 
Q 3109 3797 2882 3972 
Q 2656 4147 2194 4147 
L 1259 4147 
z
M 628 4666 
L 2241 4666 
Q 2963 4666 3353 4366 
Q 3744 4066 3744 3513 
Q 3744 3084 3544 2831 
Q 3344 2578 2956 2516 
Q 3422 2416 3680 2098 
Q 3938 1781 3938 1306 
Q 3938 681 3513 340 
Q 3088 0 2303 0 
L 628 0 
L 628 4666 
z
" transform="scale(0.015625)"/>
      <path id="DejaVuSans-63" d="M 3122 3366 
L 3122 2828 
Q 2878 2963 2633 3030 
Q 2388 3097 2138 3097 
Q 1578 3097 1268 2742 
Q 959 2388 959 1747 
Q 959 1106 1268 751 
Q 1578 397 2138 397 
Q 2388 397 2633 464 
Q 2878 531 3122 666 
L 3122 134 
Q 2881 22 2623 -34 
Q 2366 -91 2075 -91 
Q 1284 -91 818 406 
Q 353 903 353 1747 
Q 353 2603 823 3093 
Q 1294 3584 2113 3584 
Q 2378 3584 2631 3529 
Q 2884 3475 3122 3366 
z
" transform="scale(0.015625)"/>
     </defs>
     <use xlink:href="#DejaVuSans-42"/>
     <use xlink:href="#DejaVuSans-61" x="68.603516"/>
     <use xlink:href="#DejaVuSans-74" x="129.882812"/>
     <use xlink:href="#DejaVuSans-63" x="169.091797"/>
     <use xlink:href="#DejaVuSans-68" x="224.072266"/>
     <use xlink:href="#DejaVuSans-20" x="287.451172"/>
     <use xlink:href="#DejaVuSans-73" x="319.238281"/>
     <use xlink:href="#DejaVuSans-69" x="371.337891"/>
     <use xlink:href="#DejaVuSans-7a" x="399.121094"/>
     <use xlink:href="#DejaVuSans-65" x="451.611328"/>
    </g>
   </g>
   <g id="legend_1">
    <g id="patch_9">
     <path d="M 53.965625 220.888438 
L 245.164063 220.888438 
Q 247.164063 220.888438 247.164063 218.888438 
L 247.164063 57.594688 
Q 247.164063 55.594688 245.164063 55.594688 
L 53.965625 55.594688 
Q 51.965625 55.594688 51.965625 57.594688 
L 51.965625 218.888438 
Q 51.965625 220.888438 53.965625 220.888438 
L 53.965625 220.888438 
z
" style="fill: none; opacity: 0"/>
    </g>
    <g id="line2d_89">
     <path d="M 55.965625 63.693125 
L 65.965625 63.693125 
L 75.965625 63.693125 
" style="fill: none; stroke: #1f77b4; stroke-opacity: 0.3; stroke-width: 1.5; stroke-linecap: square"/>
    </g>
    <g id="text_46">
     <!-- SortedVec::binary_search_std -->
     <g transform="translate(83.965625 67.193125) scale(0.1 -0.1)">
      <defs>
       <path id="DejaVuSans-53" d="M 3425 4513 
L 3425 3897 
Q 3066 4069 2747 4153 
Q 2428 4238 2131 4238 
Q 1616 4238 1336 4038 
Q 1056 3838 1056 3469 
Q 1056 3159 1242 3001 
Q 1428 2844 1947 2747 
L 2328 2669 
Q 3034 2534 3370 2195 
Q 3706 1856 3706 1288 
Q 3706 609 3251 259 
Q 2797 -91 1919 -91 
Q 1588 -91 1214 -16 
Q 841 59 441 206 
L 441 856 
Q 825 641 1194 531 
Q 1563 422 1919 422 
Q 2459 422 2753 634 
Q 3047 847 3047 1241 
Q 3047 1584 2836 1778 
Q 2625 1972 2144 2069 
L 1759 2144 
Q 1053 2284 737 2584 
Q 422 2884 422 3419 
Q 422 4038 858 4394 
Q 1294 4750 2059 4750 
Q 2388 4750 2728 4690 
Q 3069 4631 3425 4513 
z
" transform="scale(0.015625)"/>
       <path id="DejaVuSans-64" d="M 2906 2969 
L 2906 4863 
L 3481 4863 
L 3481 0 
L 2906 0 
L 2906 525 
Q 2725 213 2448 61 
Q 2172 -91 1784 -91 
Q 1150 -91 751 415 
Q 353 922 353 1747 
Q 353 2572 751 3078 
Q 1150 3584 1784 3584 
Q 2172 3584 2448 3432 
Q 2725 3281 2906 2969 
z
M 947 1747 
Q 947 1113 1208 752 
Q 1469 391 1925 391 
Q 2381 391 2643 752 
Q 2906 1113 2906 1747 
Q 2906 2381 2643 2742 
Q 2381 3103 1925 3103 
Q 1469 3103 1208 2742 
Q 947 2381 947 1747 
z
" transform="scale(0.015625)"/>
       <path id="DejaVuSans-56" d="M 1831 0 
L 50 4666 
L 709 4666 
L 2188 738 
L 3669 4666 
L 4325 4666 
L 2547 0 
L 1831 0 
z
" transform="scale(0.015625)"/>
       <path id="DejaVuSans-3a" d="M 750 794 
L 1409 794 
L 1409 0 
L 750 0 
L 750 794 
z
M 750 3309 
L 1409 3309 
L 1409 2516 
L 750 2516 
L 750 3309 
z
" transform="scale(0.015625)"/>
       <path id="DejaVuSans-5f" d="M 3263 -1063 
L 3263 -1509 
L -63 -1509 
L -63 -1063 
L 3263 -1063 
z
" transform="scale(0.015625)"/>
      </defs>
      <use xlink:href="#DejaVuSans-53"/>
      <use xlink:href="#DejaVuSans-6f" x="63.476562"/>
      <use xlink:href="#DejaVuSans-72" x="124.658203"/>
      <use xlink:href="#DejaVuSans-74" x="165.771484"/>
      <use xlink:href="#DejaVuSans-65" x="204.980469"/>
      <use xlink:href="#DejaVuSans-64" x="266.503906"/>
      <use xlink:href="#DejaVuSans-56" x="329.980469"/>
      <use xlink:href="#DejaVuSans-65" x="390.638672"/>
      <use xlink:href="#DejaVuSans-63" x="452.162109"/>
      <use xlink:href="#DejaVuSans-3a" x="507.142578"/>
      <use xlink:href="#DejaVuSans-3a" x="540.833984"/>
      <use xlink:href="#DejaVuSans-62" x="574.525391"/>
      <use xlink:href="#DejaVuSans-69" x="638.001953"/>
      <use xlink:href="#DejaVuSans-6e" x="665.785156"/>
      <use xlink:href="#DejaVuSans-61" x="729.164062"/>
      <use xlink:href="#DejaVuSans-72" x="790.443359"/>
      <use xlink:href="#DejaVuSans-79" x="831.556641"/>
      <use xlink:href="#DejaVuSans-5f" x="890.736328"/>
      <use xlink:href="#DejaVuSans-73" x="940.736328"/>
      <use xlink:href="#DejaVuSans-65" x="992.835938"/>
      <use xlink:href="#DejaVuSans-61" x="1054.359375"/>
      <use xlink:href="#DejaVuSans-72" x="1115.638672"/>
      <use xlink:href="#DejaVuSans-63" x="1154.501953"/>
      <use xlink:href="#DejaVuSans-68" x="1209.482422"/>
      <use xlink:href="#DejaVuSans-5f" x="1272.861328"/>
      <use xlink:href="#DejaVuSans-73" x="1322.861328"/>
      <use xlink:href="#DejaVuSans-74" x="1374.960938"/>
      <use xlink:href="#DejaVuSans-64" x="1414.169922"/>
     </g>
    </g>
    <g id="line2d_90">
     <path d="M 55.965625 78.649375 
L 65.965625 78.649375 
L 75.965625 78.649375 
" style="fill: none; stroke: #1f77b4; stroke-opacity: 0.3; stroke-width: 1.5; stroke-linecap: square"/>
    </g>
    <g id="text_47">
     <!-- Eytzinger::search_prefetch&lt;4&gt; -->
     <g transform="translate(83.965625 82.149375) scale(0.1 -0.1)">
      <defs>
       <path id="DejaVuSans-45" d="M 628 4666 
L 3578 4666 
L 3578 4134 
L 1259 4134 
L 1259 2753 
L 3481 2753 
L 3481 2222 
L 1259 2222 
L 1259 531 
L 3634 531 
L 3634 0 
L 628 0 
L 628 4666 
z
" transform="scale(0.015625)"/>
       <path id="DejaVuSans-66" d="M 2375 4863 
L 2375 4384 
L 1825 4384 
Q 1516 4384 1395 4259 
Q 1275 4134 1275 3809 
L 1275 3500 
L 2222 3500 
L 2222 3053 
L 1275 3053 
L 1275 0 
L 697 0 
L 697 3053 
L 147 3053 
L 147 3500 
L 697 3500 
L 697 3744 
Q 697 4328 969 4595 
Q 1241 4863 1831 4863 
L 2375 4863 
z
" transform="scale(0.015625)"/>
       <path id="DejaVuSans-3c" d="M 4684 3150 
L 1459 2003 
L 4684 863 
L 4684 294 
L 678 1747 
L 678 2266 
L 4684 3719 
L 4684 3150 
z
" transform="scale(0.015625)"/>
       <path id="DejaVuSans-3e" d="M 678 3150 
L 678 3719 
L 4684 2266 
L 4684 1747 
L 678 294 
L 678 863 
L 3897 2003 
L 678 3150 
z
" transform="scale(0.015625)"/>
      </defs>
      <use xlink:href="#DejaVuSans-45"/>
      <use xlink:href="#DejaVuSans-79" x="63.183594"/>
      <use xlink:href="#DejaVuSans-74" x="122.363281"/>
      <use xlink:href="#DejaVuSans-7a" x="161.572266"/>
      <use xlink:href="#DejaVuSans-69" x="214.0625"/>
      <use xlink:href="#DejaVuSans-6e" x="241.845703"/>
      <use xlink:href="#DejaVuSans-67" x="305.224609"/>
      <use xlink:href="#DejaVuSans-65" x="368.701172"/>
      <use xlink:href="#DejaVuSans-72" x="430.224609"/>
      <use xlink:href="#DejaVuSans-3a" x="469.587891"/>
      <use xlink:href="#DejaVuSans-3a" x="503.279297"/>
      <use xlink:href="#DejaVuSans-73" x="536.970703"/>
      <use xlink:href="#DejaVuSans-65" x="589.070312"/>
      <use xlink:href="#DejaVuSans-61" x="650.59375"/>
      <use xlink:href="#DejaVuSans-72" x="711.873047"/>
      <use xlink:href="#DejaVuSans-63" x="750.736328"/>
      <use xlink:href="#DejaVuSans-68" x="805.716797"/>
      <use xlink:href="#DejaVuSans-5f" x="869.095703"/>
      <use xlink:href="#DejaVuSans-70" x="919.095703"/>
      <use xlink:href="#DejaVuSans-72" x="982.572266"/>
      <use xlink:href="#DejaVuSans-65" x="1021.435547"/>
      <use xlink:href="#DejaVuSans-66" x="1082.958984"/>
      <use xlink:href="#DejaVuSans-65" x="1118.164062"/>
      <use xlink:href="#DejaVuSans-74" x="1179.6875"/>
      <use xlink:href="#DejaVuSans-63" x="1218.896484"/>
      <use xlink:href="#DejaVuSans-68" x="1273.876953"/>
      <use xlink:href="#DejaVuSans-3c" x="1337.255859"/>
      <use xlink:href="#DejaVuSans-34" x="1421.044922"/>
      <use xlink:href="#DejaVuSans-3e" x="1484.667969"/>
     </g>
    </g>
    <g id="line2d_91">
     <path d="M 55.965625 93.605625 
L 65.965625 93.605625 
L 75.965625 93.605625 
" style="fill: none; stroke: #e377c2; stroke-width: 1.5; stroke-linecap: square"/>
    </g>
    <g id="text_48">
     <!-- STree&lt;&gt;::search&lt;find_popcnt&gt; -->
     <g transform="translate(83.965625 97.105625) scale(0.1 -0.1)">
      <defs>
       <path id="DejaVuSans-54" d="M -19 4666 
L 3928 4666 
L 3928 4134 
L 2272 4134 
L 2272 0 
L 1638 0 
L 1638 4134 
L -19 4134 
L -19 4666 
z
" transform="scale(0.015625)"/>
      </defs>
      <use xlink:href="#DejaVuSans-53"/>
      <use xlink:href="#DejaVuSans-54" x="63.476562"/>
      <use xlink:href="#DejaVuSans-72" x="109.810547"/>
      <use xlink:href="#DejaVuSans-65" x="148.673828"/>
      <use xlink:href="#DejaVuSans-65" x="210.197266"/>
      <use xlink:href="#DejaVuSans-3c" x="271.720703"/>
      <use xlink:href="#DejaVuSans-3e" x="355.509766"/>
      <use xlink:href="#DejaVuSans-3a" x="439.298828"/>
      <use xlink:href="#DejaVuSans-3a" x="472.990234"/>
      <use xlink:href="#DejaVuSans-73" x="506.681641"/>
      <use xlink:href="#DejaVuSans-65" x="558.78125"/>
      <use xlink:href="#DejaVuSans-61" x="620.304688"/>
      <use xlink:href="#DejaVuSans-72" x="681.583984"/>
      <use xlink:href="#DejaVuSans-63" x="720.447266"/>
      <use xlink:href="#DejaVuSans-68" x="775.427734"/>
      <use xlink:href="#DejaVuSans-3c" x="838.806641"/>
      <use xlink:href="#DejaVuSans-66" x="922.595703"/>
      <use xlink:href="#DejaVuSans-69" x="957.800781"/>
      <use xlink:href="#DejaVuSans-6e" x="985.583984"/>
      <use xlink:href="#DejaVuSans-64" x="1048.962891"/>
      <use xlink:href="#DejaVuSans-5f" x="1112.439453"/>
      <use xlink:href="#DejaVuSans-70" x="1162.439453"/>
      <use xlink:href="#DejaVuSans-6f" x="1225.916016"/>
      <use xlink:href="#DejaVuSans-70" x="1287.097656"/>
      <use xlink:href="#DejaVuSans-63" x="1350.574219"/>
      <use xlink:href="#DejaVuSans-6e" x="1405.554688"/>
      <use xlink:href="#DejaVuSans-74" x="1468.933594"/>
      <use xlink:href="#DejaVuSans-3e" x="1508.142578"/>
     </g>
    </g>
    <g id="line2d_92">
     <path d="M 55.965625 108.561875 
L 65.965625 108.561875 
L 75.965625 108.561875 
" style="fill: none; stroke: #1f77b4; stroke-width: 1.5; stroke-linecap: square"/>
    </g>
    <g id="text_49">
     <!-- STree&lt;&gt;::batch&lt;1&gt; -->
     <g transform="translate(83.965625 112.061875) scale(0.1 -0.1)">
      <use xlink:href="#DejaVuSans-53"/>
      <use xlink:href="#DejaVuSans-54" x="63.476562"/>
      <use xlink:href="#DejaVuSans-72" x="109.810547"/>
      <use xlink:href="#DejaVuSans-65" x="148.673828"/>
      <use xlink:href="#DejaVuSans-65" x="210.197266"/>
      <use xlink:href="#DejaVuSans-3c" x="271.720703"/>
      <use xlink:href="#DejaVuSans-3e" x="355.509766"/>
      <use xlink:href="#DejaVuSans-3a" x="439.298828"/>
      <use xlink:href="#DejaVuSans-3a" x="472.990234"/>
      <use xlink:href="#DejaVuSans-62" x="506.681641"/>
      <use xlink:href="#DejaVuSans-61" x="570.158203"/>
      <use xlink:href="#DejaVuSans-74" x="631.4375"/>
      <use xlink:href="#DejaVuSans-63" x="670.646484"/>
      <use xlink:href="#DejaVuSans-68" x="725.626953"/>
      <use xlink:href="#DejaVuSans-3c" x="789.005859"/>
      <use xlink:href="#DejaVuSans-31" x="872.794922"/>
      <use xlink:href="#DejaVuSans-3e" x="936.417969"/>
     </g>
    </g>
    <g id="line2d_93">
     <path d="M 55.965625 123.24 
L 65.965625 123.24 
L 75.965625 123.24 
" style="fill: none; stroke: #ff7f0e; stroke-width: 1.5; stroke-linecap: square"/>
    </g>
    <g id="text_50">
     <!-- STree&lt;&gt;::batch&lt;2&gt; -->
     <g transform="translate(83.965625 126.74) scale(0.1 -0.1)">
      <use xlink:href="#DejaVuSans-53"/>
      <use xlink:href="#DejaVuSans-54" x="63.476562"/>
      <use xlink:href="#DejaVuSans-72" x="109.810547"/>
      <use xlink:href="#DejaVuSans-65" x="148.673828"/>
      <use xlink:href="#DejaVuSans-65" x="210.197266"/>
      <use xlink:href="#DejaVuSans-3c" x="271.720703"/>
      <use xlink:href="#DejaVuSans-3e" x="355.509766"/>
      <use xlink:href="#DejaVuSans-3a" x="439.298828"/>
      <use xlink:href="#DejaVuSans-3a" x="472.990234"/>
      <use xlink:href="#DejaVuSans-62" x="506.681641"/>
      <use xlink:href="#DejaVuSans-61" x="570.158203"/>
      <use xlink:href="#DejaVuSans-74" x="631.4375"/>
      <use xlink:href="#DejaVuSans-63" x="670.646484"/>
      <use xlink:href="#DejaVuSans-68" x="725.626953"/>
      <use xlink:href="#DejaVuSans-3c" x="789.005859"/>
      <use xlink:href="#DejaVuSans-32" x="872.794922"/>
      <use xlink:href="#DejaVuSans-3e" x="936.417969"/>
     </g>
    </g>
    <g id="line2d_94">
     <path d="M 55.965625 137.918125 
L 65.965625 137.918125 
L 75.965625 137.918125 
" style="fill: none; stroke: #d62728; stroke-width: 1.5; stroke-linecap: square"/>
    </g>
    <g id="text_51">
     <!-- STree&lt;&gt;::batch&lt;4&gt; -->
     <g transform="translate(83.965625 141.418125) scale(0.1 -0.1)">
      <use xlink:href="#DejaVuSans-53"/>
      <use xlink:href="#DejaVuSans-54" x="63.476562"/>
      <use xlink:href="#DejaVuSans-72" x="109.810547"/>
      <use xlink:href="#DejaVuSans-65" x="148.673828"/>
      <use xlink:href="#DejaVuSans-65" x="210.197266"/>
      <use xlink:href="#DejaVuSans-3c" x="271.720703"/>
      <use xlink:href="#DejaVuSans-3e" x="355.509766"/>
      <use xlink:href="#DejaVuSans-3a" x="439.298828"/>
      <use xlink:href="#DejaVuSans-3a" x="472.990234"/>
      <use xlink:href="#DejaVuSans-62" x="506.681641"/>
      <use xlink:href="#DejaVuSans-61" x="570.158203"/>
      <use xlink:href="#DejaVuSans-74" x="631.4375"/>
      <use xlink:href="#DejaVuSans-63" x="670.646484"/>
      <use xlink:href="#DejaVuSans-68" x="725.626953"/>
      <use xlink:href="#DejaVuSans-3c" x="789.005859"/>
      <use xlink:href="#DejaVuSans-34" x="872.794922"/>
      <use xlink:href="#DejaVuSans-3e" x="936.417969"/>
     </g>
    </g>
    <g id="line2d_95">
     <path d="M 55.965625 152.59625 
L 65.965625 152.59625 
L 75.965625 152.59625 
" style="fill: none; stroke: #8c564b; stroke-width: 1.5; stroke-linecap: square"/>
    </g>
    <g id="text_52">
     <!-- STree&lt;&gt;::batch&lt;8&gt; -->
     <g transform="translate(83.965625 156.09625) scale(0.1 -0.1)">
      <use xlink:href="#DejaVuSans-53"/>
      <use xlink:href="#DejaVuSans-54" x="63.476562"/>
      <use xlink:href="#DejaVuSans-72" x="109.810547"/>
      <use xlink:href="#DejaVuSans-65" x="148.673828"/>
      <use xlink:href="#DejaVuSans-65" x="210.197266"/>
      <use xlink:href="#DejaVuSans-3c" x="271.720703"/>
      <use xlink:href="#DejaVuSans-3e" x="355.509766"/>
      <use xlink:href="#DejaVuSans-3a" x="439.298828"/>
      <use xlink:href="#DejaVuSans-3a" x="472.990234"/>
      <use xlink:href="#DejaVuSans-62" x="506.681641"/>
      <use xlink:href="#DejaVuSans-61" x="570.158203"/>
      <use xlink:href="#DejaVuSans-74" x="631.4375"/>
      <use xlink:href="#DejaVuSans-63" x="670.646484"/>
      <use xlink:href="#DejaVuSans-68" x="725.626953"/>
      <use xlink:href="#DejaVuSans-3c" x="789.005859"/>
      <use xlink:href="#DejaVuSans-38" x="872.794922"/>
      <use xlink:href="#DejaVuSans-3e" x="936.417969"/>
     </g>
    </g>
    <g id="line2d_96">
     <path d="M 55.965625 167.274375 
L 65.965625 167.274375 
L 75.965625 167.274375 
" style="fill: none; stroke: #1f77b4; stroke-width: 1.5; stroke-linecap: square"/>
    </g>
    <g id="text_53">
     <!-- STree&lt;&gt;::batch&lt;16&gt; -->
     <g transform="translate(83.965625 170.774375) scale(0.1 -0.1)">
      <use xlink:href="#DejaVuSans-53"/>
      <use xlink:href="#DejaVuSans-54" x="63.476562"/>
      <use xlink:href="#DejaVuSans-72" x="109.810547"/>
      <use xlink:href="#DejaVuSans-65" x="148.673828"/>
      <use xlink:href="#DejaVuSans-65" x="210.197266"/>
      <use xlink:href="#DejaVuSans-3c" x="271.720703"/>
      <use xlink:href="#DejaVuSans-3e" x="355.509766"/>
      <use xlink:href="#DejaVuSans-3a" x="439.298828"/>
      <use xlink:href="#DejaVuSans-3a" x="472.990234"/>
      <use xlink:href="#DejaVuSans-62" x="506.681641"/>
      <use xlink:href="#DejaVuSans-61" x="570.158203"/>
      <use xlink:href="#DejaVuSans-74" x="631.4375"/>
      <use xlink:href="#DejaVuSans-63" x="670.646484"/>
      <use xlink:href="#DejaVuSans-68" x="725.626953"/>
      <use xlink:href="#DejaVuSans-3c" x="789.005859"/>
      <use xlink:href="#DejaVuSans-31" x="872.794922"/>
      <use xlink:href="#DejaVuSans-36" x="936.417969"/>
      <use xlink:href="#DejaVuSans-3e" x="1000.041016"/>
     </g>
    </g>
    <g id="line2d_97">
     <path d="M 55.965625 181.9525 
L 65.965625 181.9525 
L 75.965625 181.9525 
" style="fill: none; stroke: #2ca02c; stroke-width: 1.5; stroke-linecap: square"/>
    </g>
    <g id="text_54">
     <!-- STree&lt;&gt;::batch&lt;32&gt; -->
     <g transform="translate(83.965625 185.4525) scale(0.1 -0.1)">
      <use xlink:href="#DejaVuSans-53"/>
      <use xlink:href="#DejaVuSans-54" x="63.476562"/>
      <use xlink:href="#DejaVuSans-72" x="109.810547"/>
      <use xlink:href="#DejaVuSans-65" x="148.673828"/>
      <use xlink:href="#DejaVuSans-65" x="210.197266"/>
      <use xlink:href="#DejaVuSans-3c" x="271.720703"/>
      <use xlink:href="#DejaVuSans-3e" x="355.509766"/>
      <use xlink:href="#DejaVuSans-3a" x="439.298828"/>
      <use xlink:href="#DejaVuSans-3a" x="472.990234"/>
      <use xlink:href="#DejaVuSans-62" x="506.681641"/>
      <use xlink:href="#DejaVuSans-61" x="570.158203"/>
      <use xlink:href="#DejaVuSans-74" x="631.4375"/>
      <use xlink:href="#DejaVuSans-63" x="670.646484"/>
      <use xlink:href="#DejaVuSans-68" x="725.626953"/>
      <use xlink:href="#DejaVuSans-3c" x="789.005859"/>
      <use xlink:href="#DejaVuSans-33" x="872.794922"/>
      <use xlink:href="#DejaVuSans-32" x="936.417969"/>
      <use xlink:href="#DejaVuSans-3e" x="1000.041016"/>
     </g>
    </g>
    <g id="line2d_98">
     <path d="M 55.965625 196.630625 
L 65.965625 196.630625 
L 75.965625 196.630625 
" style="fill: none; stroke: #9467bd; stroke-width: 1.5; stroke-linecap: square"/>
    </g>
    <g id="text_55">
     <!-- STree&lt;&gt;::batch&lt;64&gt; -->
     <g transform="translate(83.965625 200.130625) scale(0.1 -0.1)">
      <use xlink:href="#DejaVuSans-53"/>
      <use xlink:href="#DejaVuSans-54" x="63.476562"/>
      <use xlink:href="#DejaVuSans-72" x="109.810547"/>
      <use xlink:href="#DejaVuSans-65" x="148.673828"/>
      <use xlink:href="#DejaVuSans-65" x="210.197266"/>
      <use xlink:href="#DejaVuSans-3c" x="271.720703"/>
      <use xlink:href="#DejaVuSans-3e" x="355.509766"/>
      <use xlink:href="#DejaVuSans-3a" x="439.298828"/>
      <use xlink:href="#DejaVuSans-3a" x="472.990234"/>
      <use xlink:href="#DejaVuSans-62" x="506.681641"/>
      <use xlink:href="#DejaVuSans-61" x="570.158203"/>
      <use xlink:href="#DejaVuSans-74" x="631.4375"/>
      <use xlink:href="#DejaVuSans-63" x="670.646484"/>
      <use xlink:href="#DejaVuSans-68" x="725.626953"/>
      <use xlink:href="#DejaVuSans-3c" x="789.005859"/>
      <use xlink:href="#DejaVuSans-36" x="872.794922"/>
      <use xlink:href="#DejaVuSans-34" x="936.417969"/>
      <use xlink:href="#DejaVuSans-3e" x="1000.041016"/>
     </g>
    </g>
    <g id="line2d_99">
     <path d="M 55.965625 211.30875 
L 65.965625 211.30875 
L 75.965625 211.30875 
" style="fill: none; stroke: #17becf; stroke-width: 1.5; stroke-linecap: square"/>
    </g>
    <g id="text_56">
     <!-- STree&lt;&gt;::batch&lt;128&gt; -->
     <g transform="translate(83.965625 214.80875) scale(0.1 -0.1)">
      <use xlink:href="#DejaVuSans-53"/>
      <use xlink:href="#DejaVuSans-54" x="63.476562"/>
      <use xlink:href="#DejaVuSans-72" x="109.810547"/>
      <use xlink:href="#DejaVuSans-65" x="148.673828"/>
      <use xlink:href="#DejaVuSans-65" x="210.197266"/>
      <use xlink:href="#DejaVuSans-3c" x="271.720703"/>
      <use xlink:href="#DejaVuSans-3e" x="355.509766"/>
      <use xlink:href="#DejaVuSans-3a" x="439.298828"/>
      <use xlink:href="#DejaVuSans-3a" x="472.990234"/>
      <use xlink:href="#DejaVuSans-62" x="506.681641"/>
      <use xlink:href="#DejaVuSans-61" x="570.158203"/>
      <use xlink:href="#DejaVuSans-74" x="631.4375"/>
      <use xlink:href="#DejaVuSans-63" x="670.646484"/>
      <use xlink:href="#DejaVuSans-68" x="725.626953"/>
      <use xlink:href="#DejaVuSans-3c" x="789.005859"/>
      <use xlink:href="#DejaVuSans-31" x="872.794922"/>
      <use xlink:href="#DejaVuSans-32" x="936.417969"/>
      <use xlink:href="#DejaVuSans-38" x="1000.041016"/>
      <use xlink:href="#DejaVuSans-3e" x="1063.664062"/>
     </g>
    </g>
   </g>
  </g>
 </g>
 <defs>
  <clipPath id="pecd6c1090a">
   <rect x="46.965625" y="50.594688" width="613.8" height="443.52"/>
  </clipPath>
 </defs>
</svg>
