<?xml version="1.0" encoding="utf-8" standalone="no"?>
<!DOCTYPE svg PUBLIC "-//W3C//DTD SVG 1.1//EN"
  "http://www.w3.org/Graphics/SVG/1.1/DTD/svg11.dtd">
<svg xmlns:xlink="http://www.w3.org/1999/xlink" width="661.603125pt" height="420.790938pt" viewBox="0 0 661.603125 420.790938" xmlns="http://www.w3.org/2000/svg" version="1.1">
 <metadata>
  <rdf:RDF xmlns:dc="http://purl.org/dc/elements/1.1/" xmlns:cc="http://creativecommons.org/ns#" xmlns:rdf="http://www.w3.org/1999/02/22-rdf-syntax-ns#">
   <cc:Work>
    <dc:type rdf:resource="http://purl.org/dc/dcmitype/StillImage"/>
    <dc:date>2024-12-21T00:16:59.990287</dc:date>
    <dc:format>image/svg+xml</dc:format>
    <dc:creator>
     <cc:Agent>
      <dc:title>Matplotlib v3.9.3, https://matplotlib.org/</dc:title>
     </cc:Agent>
    </dc:creator>
   </cc:Work>
  </rdf:RDF>
 </metadata>
 <defs>
  <style type="text/css">*{stroke-linejoin: round; stroke-linecap: butt}</style>
 </defs>
 <g id="figure_1">
  <g id="patch_1">
   <path d="M 0 420.790938 
L 661.603125 420.790938 
L 661.603125 0 
L 0 0 
z
" style="fill: #ffffff"/>
  </g>
  <g id="axes_1">
   <g id="patch_2">
    <path d="M 40.603125 383.234688 
L 654.403125 383.234688 
L 654.403125 50.594688 
L 40.603125 50.594688 
z
" style="fill: #ffffff"/>
   </g>
   <g id="line2d_1">
    <path d="M 291.703125 383.234688 
L 291.703125 50.594688 
" clip-path="url(#pfd8af475fa)" style="fill: none; stroke-dasharray: 5.55,2.4; stroke-dashoffset: 0; stroke: #ff0000; stroke-width: 1.5"/>
   </g>
   <g id="line2d_2">
    <path d="M 358.663125 383.234688 
L 358.663125 50.594688 
" clip-path="url(#pfd8af475fa)" style="fill: none; stroke-dasharray: 5.55,2.4; stroke-dashoffset: 0; stroke: #ff0000; stroke-width: 1.5"/>
   </g>
   <g id="line2d_3">
    <path d="M 483.319488 383.234688 
L 483.319488 50.594688 
" clip-path="url(#pfd8af475fa)" style="fill: none; stroke-dasharray: 5.55,2.4; stroke-dashoffset: 0; stroke: #ff0000; stroke-width: 1.5"/>
   </g>
   <g id="axes_2">
    <g id="patch_3">
     <path d="M 40.603125 50.594688 
L 654.403125 50.594688 
L 654.403125 50.594688 
L 40.603125 50.594688 
z
" style="fill: #ffffff"/>
    </g>
    <g id="matplotlib.axis_1">
     <g id="xtick_1">
      <g id="line2d_4">
       <defs>
        <path id="m33bec06153" d="M 0 0 
L 0 -3.5 
" style="stroke: #000000; stroke-width: 0.8"/>
       </defs>
       <g>
        <use xlink:href="#m33bec06153" x="46.183125" y="50.594688" style="stroke: #000000; stroke-width: 0.8"/>
       </g>
      </g>
      <g id="text_1">
       <!-- $\mathdefault{2^{2}}$ -->
       <g transform="translate(40.583125 41.515) scale(0.1 -0.1)">
        <defs>
         <path id="DejaVuSans-32" d="M 1228 531 
L 3431 531 
L 3431 0 
L 469 0 
L 469 531 
Q 828 903 1448 1529 
Q 2069 2156 2228 2338 
Q 2531 2678 2651 2914 
Q 2772 3150 2772 3378 
Q 2772 3750 2511 3984 
Q 2250 4219 1831 4219 
Q 1534 4219 1204 4116 
Q 875 4013 500 3803 
L 500 4441 
Q 881 4594 1212 4672 
Q 1544 4750 1819 4750 
Q 2544 4750 2975 4387 
Q 3406 4025 3406 3419 
Q 3406 3131 3298 2873 
Q 3191 2616 2906 2266 
Q 2828 2175 2409 1742 
Q 1991 1309 1228 531 
z
" transform="scale(0.015625)"/>
        </defs>
        <use xlink:href="#DejaVuSans-32" transform="translate(0 0.765625)"/>
        <use xlink:href="#DejaVuSans-32" transform="translate(64.580078 39.046875) scale(0.7)"/>
       </g>
      </g>
     </g>
     <g id="xtick_2">
      <g id="line2d_5">
       <g>
        <use xlink:href="#m33bec06153" x="90.823125" y="50.594688" style="stroke: #000000; stroke-width: 0.8"/>
       </g>
      </g>
      <g id="text_2">
       <!-- $\mathdefault{2^{4}}$ -->
       <g transform="translate(85.223125 41.515) scale(0.1 -0.1)">
        <defs>
         <path id="DejaVuSans-34" d="M 2419 4116 
L 825 1625 
L 2419 1625 
L 2419 4116 
z
M 2253 4666 
L 3047 4666 
L 3047 1625 
L 3713 1625 
L 3713 1100 
L 3047 1100 
L 3047 0 
L 2419 0 
L 2419 1100 
L 313 1100 
L 313 1709 
L 2253 4666 
z
" transform="scale(0.015625)"/>
        </defs>
        <use xlink:href="#DejaVuSans-32" transform="translate(0 0.684375)"/>
        <use xlink:href="#DejaVuSans-34" transform="translate(64.580078 38.965625) scale(0.7)"/>
       </g>
      </g>
     </g>
     <g id="xtick_3">
      <g id="line2d_6">
       <g>
        <use xlink:href="#m33bec06153" x="135.463125" y="50.594688" style="stroke: #000000; stroke-width: 0.8"/>
       </g>
      </g>
      <g id="text_3">
       <!-- $\mathdefault{2^{6}}$ -->
       <g transform="translate(129.863125 41.515) scale(0.1 -0.1)">
        <defs>
         <path id="DejaVuSans-36" d="M 2113 2584 
Q 1688 2584 1439 2293 
Q 1191 2003 1191 1497 
Q 1191 994 1439 701 
Q 1688 409 2113 409 
Q 2538 409 2786 701 
Q 3034 994 3034 1497 
Q 3034 2003 2786 2293 
Q 2538 2584 2113 2584 
z
M 3366 4563 
L 3366 3988 
Q 3128 4100 2886 4159 
Q 2644 4219 2406 4219 
Q 1781 4219 1451 3797 
Q 1122 3375 1075 2522 
Q 1259 2794 1537 2939 
Q 1816 3084 2150 3084 
Q 2853 3084 3261 2657 
Q 3669 2231 3669 1497 
Q 3669 778 3244 343 
Q 2819 -91 2113 -91 
Q 1303 -91 875 529 
Q 447 1150 447 2328 
Q 447 3434 972 4092 
Q 1497 4750 2381 4750 
Q 2619 4750 2861 4703 
Q 3103 4656 3366 4563 
z
" transform="scale(0.015625)"/>
        </defs>
        <use xlink:href="#DejaVuSans-32" transform="translate(0 0.765625)"/>
        <use xlink:href="#DejaVuSans-36" transform="translate(64.580078 39.046875) scale(0.7)"/>
       </g>
      </g>
     </g>
     <g id="xtick_4">
      <g id="line2d_7">
       <g>
        <use xlink:href="#m33bec06153" x="180.103125" y="50.594688" style="stroke: #000000; stroke-width: 0.8"/>
       </g>
      </g>
      <g id="text_4">
       <!-- $\mathdefault{2^{8}}$ -->
       <g transform="translate(174.503125 41.515) scale(0.1 -0.1)">
        <defs>
         <path id="DejaVuSans-38" d="M 2034 2216 
Q 1584 2216 1326 1975 
Q 1069 1734 1069 1313 
Q 1069 891 1326 650 
Q 1584 409 2034 409 
Q 2484 409 2743 651 
Q 3003 894 3003 1313 
Q 3003 1734 2745 1975 
Q 2488 2216 2034 2216 
z
M 1403 2484 
Q 997 2584 770 2862 
Q 544 3141 544 3541 
Q 544 4100 942 4425 
Q 1341 4750 2034 4750 
Q 2731 4750 3128 4425 
Q 3525 4100 3525 3541 
Q 3525 3141 3298 2862 
Q 3072 2584 2669 2484 
Q 3125 2378 3379 2068 
Q 3634 1759 3634 1313 
Q 3634 634 3220 271 
Q 2806 -91 2034 -91 
Q 1263 -91 848 271 
Q 434 634 434 1313 
Q 434 1759 690 2068 
Q 947 2378 1403 2484 
z
M 1172 3481 
Q 1172 3119 1398 2916 
Q 1625 2713 2034 2713 
Q 2441 2713 2670 2916 
Q 2900 3119 2900 3481 
Q 2900 3844 2670 4047 
Q 2441 4250 2034 4250 
Q 1625 4250 1398 4047 
Q 1172 3844 1172 3481 
z
" transform="scale(0.015625)"/>
        </defs>
        <use xlink:href="#DejaVuSans-32" transform="translate(0 0.765625)"/>
        <use xlink:href="#DejaVuSans-38" transform="translate(64.580078 39.046875) scale(0.7)"/>
       </g>
      </g>
     </g>
     <g id="xtick_5">
      <g id="line2d_8">
       <g>
        <use xlink:href="#m33bec06153" x="224.743125" y="50.594688" style="stroke: #000000; stroke-width: 0.8"/>
       </g>
      </g>
      <g id="text_5">
       <!-- $\mathdefault{2^{10}}$ -->
       <g transform="translate(216.893125 41.515) scale(0.1 -0.1)">
        <defs>
         <path id="DejaVuSans-31" d="M 794 531 
L 1825 531 
L 1825 4091 
L 703 3866 
L 703 4441 
L 1819 4666 
L 2450 4666 
L 2450 531 
L 3481 531 
L 3481 0 
L 794 0 
L 794 531 
z
" transform="scale(0.015625)"/>
         <path id="DejaVuSans-30" d="M 2034 4250 
Q 1547 4250 1301 3770 
Q 1056 3291 1056 2328 
Q 1056 1369 1301 889 
Q 1547 409 2034 409 
Q 2525 409 2770 889 
Q 3016 1369 3016 2328 
Q 3016 3291 2770 3770 
Q 2525 4250 2034 4250 
z
M 2034 4750 
Q 2819 4750 3233 4129 
Q 3647 3509 3647 2328 
Q 3647 1150 3233 529 
Q 2819 -91 2034 -91 
Q 1250 -91 836 529 
Q 422 1150 422 2328 
Q 422 3509 836 4129 
Q 1250 4750 2034 4750 
z
" transform="scale(0.015625)"/>
        </defs>
        <use xlink:href="#DejaVuSans-32" transform="translate(0 0.765625)"/>
        <use xlink:href="#DejaVuSans-31" transform="translate(64.580078 39.046875) scale(0.7)"/>
        <use xlink:href="#DejaVuSans-30" transform="translate(109.116211 39.046875) scale(0.7)"/>
       </g>
      </g>
     </g>
     <g id="xtick_6">
      <g id="line2d_9">
       <g>
        <use xlink:href="#m33bec06153" x="269.383125" y="50.594688" style="stroke: #000000; stroke-width: 0.8"/>
       </g>
      </g>
      <g id="text_6">
       <!-- $\mathdefault{2^{12}}$ -->
       <g transform="translate(261.533125 41.515) scale(0.1 -0.1)">
        <use xlink:href="#DejaVuSans-32" transform="translate(0 0.765625)"/>
        <use xlink:href="#DejaVuSans-31" transform="translate(64.580078 39.046875) scale(0.7)"/>
        <use xlink:href="#DejaVuSans-32" transform="translate(109.116211 39.046875) scale(0.7)"/>
       </g>
      </g>
     </g>
     <g id="xtick_7">
      <g id="line2d_10">
       <g>
        <use xlink:href="#m33bec06153" x="314.023125" y="50.594688" style="stroke: #000000; stroke-width: 0.8"/>
       </g>
      </g>
      <g id="text_7">
       <!-- $\mathdefault{2^{14}}$ -->
       <g transform="translate(306.173125 41.515) scale(0.1 -0.1)">
        <use xlink:href="#DejaVuSans-32" transform="translate(0 0.684375)"/>
        <use xlink:href="#DejaVuSans-31" transform="translate(64.580078 38.965625) scale(0.7)"/>
        <use xlink:href="#DejaVuSans-34" transform="translate(109.116211 38.965625) scale(0.7)"/>
       </g>
      </g>
     </g>
     <g id="xtick_8">
      <g id="line2d_11">
       <g>
        <use xlink:href="#m33bec06153" x="358.663125" y="50.594688" style="stroke: #000000; stroke-width: 0.8"/>
       </g>
      </g>
      <g id="text_8">
       <!-- $\mathdefault{2^{16}}$ -->
       <g transform="translate(350.813125 41.515) scale(0.1 -0.1)">
        <use xlink:href="#DejaVuSans-32" transform="translate(0 0.765625)"/>
        <use xlink:href="#DejaVuSans-31" transform="translate(64.580078 39.046875) scale(0.7)"/>
        <use xlink:href="#DejaVuSans-36" transform="translate(109.116211 39.046875) scale(0.7)"/>
       </g>
      </g>
     </g>
     <g id="xtick_9">
      <g id="line2d_12">
       <g>
        <use xlink:href="#m33bec06153" x="403.303125" y="50.594688" style="stroke: #000000; stroke-width: 0.8"/>
       </g>
      </g>
      <g id="text_9">
       <!-- $\mathdefault{2^{18}}$ -->
       <g transform="translate(395.453125 41.515) scale(0.1 -0.1)">
        <use xlink:href="#DejaVuSans-32" transform="translate(0 0.765625)"/>
        <use xlink:href="#DejaVuSans-31" transform="translate(64.580078 39.046875) scale(0.7)"/>
        <use xlink:href="#DejaVuSans-38" transform="translate(109.116211 39.046875) scale(0.7)"/>
       </g>
      </g>
     </g>
     <g id="xtick_10">
      <g id="line2d_13">
       <g>
        <use xlink:href="#m33bec06153" x="447.943125" y="50.594688" style="stroke: #000000; stroke-width: 0.8"/>
       </g>
      </g>
      <g id="text_10">
       <!-- $\mathdefault{2^{20}}$ -->
       <g transform="translate(440.093125 41.515) scale(0.1 -0.1)">
        <use xlink:href="#DejaVuSans-32" transform="translate(0 0.765625)"/>
        <use xlink:href="#DejaVuSans-32" transform="translate(64.580078 39.046875) scale(0.7)"/>
        <use xlink:href="#DejaVuSans-30" transform="translate(109.116211 39.046875) scale(0.7)"/>
       </g>
      </g>
     </g>
     <g id="xtick_11">
      <g id="line2d_14">
       <g>
        <use xlink:href="#m33bec06153" x="492.583125" y="50.594688" style="stroke: #000000; stroke-width: 0.8"/>
       </g>
      </g>
      <g id="text_11">
       <!-- $\mathdefault{2^{22}}$ -->
       <g transform="translate(484.733125 41.515) scale(0.1 -0.1)">
        <use xlink:href="#DejaVuSans-32" transform="translate(0 0.765625)"/>
        <use xlink:href="#DejaVuSans-32" transform="translate(64.580078 39.046875) scale(0.7)"/>
        <use xlink:href="#DejaVuSans-32" transform="translate(109.116211 39.046875) scale(0.7)"/>
       </g>
      </g>
     </g>
     <g id="xtick_12">
      <g id="line2d_15">
       <g>
        <use xlink:href="#m33bec06153" x="537.223125" y="50.594688" style="stroke: #000000; stroke-width: 0.8"/>
       </g>
      </g>
      <g id="text_12">
       <!-- $\mathdefault{2^{24}}$ -->
       <g transform="translate(529.373125 41.515) scale(0.1 -0.1)">
        <use xlink:href="#DejaVuSans-32" transform="translate(0 0.765625)"/>
        <use xlink:href="#DejaVuSans-32" transform="translate(64.580078 39.046875) scale(0.7)"/>
        <use xlink:href="#DejaVuSans-34" transform="translate(109.116211 39.046875) scale(0.7)"/>
       </g>
      </g>
     </g>
     <g id="xtick_13">
      <g id="line2d_16">
       <g>
        <use xlink:href="#m33bec06153" x="581.863125" y="50.594688" style="stroke: #000000; stroke-width: 0.8"/>
       </g>
      </g>
      <g id="text_13">
       <!-- $\mathdefault{2^{26}}$ -->
       <g transform="translate(574.013125 41.515) scale(0.1 -0.1)">
        <use xlink:href="#DejaVuSans-32" transform="translate(0 0.765625)"/>
        <use xlink:href="#DejaVuSans-32" transform="translate(64.580078 39.046875) scale(0.7)"/>
        <use xlink:href="#DejaVuSans-36" transform="translate(109.116211 39.046875) scale(0.7)"/>
       </g>
      </g>
     </g>
     <g id="xtick_14">
      <g id="line2d_17">
       <g>
        <use xlink:href="#m33bec06153" x="626.503125" y="50.594688" style="stroke: #000000; stroke-width: 0.8"/>
       </g>
      </g>
      <g id="text_14">
       <!-- $\mathdefault{2^{28}}$ -->
       <g transform="translate(618.653125 41.515) scale(0.1 -0.1)">
        <use xlink:href="#DejaVuSans-32" transform="translate(0 0.765625)"/>
        <use xlink:href="#DejaVuSans-32" transform="translate(64.580078 39.046875) scale(0.7)"/>
        <use xlink:href="#DejaVuSans-38" transform="translate(109.116211 39.046875) scale(0.7)"/>
       </g>
      </g>
     </g>
     <g id="text_15">
      <!-- Array length (u32) -->
      <g transform="translate(301.4875 29.916562) scale(0.1 -0.1)">
       <defs>
        <path id="DejaVuSans-41" d="M 2188 4044 
L 1331 1722 
L 3047 1722 
L 2188 4044 
z
M 1831 4666 
L 2547 4666 
L 4325 0 
L 3669 0 
L 3244 1197 
L 1141 1197 
L 716 0 
L 50 0 
L 1831 4666 
z
" transform="scale(0.015625)"/>
        <path id="DejaVuSans-72" d="M 2631 2963 
Q 2534 3019 2420 3045 
Q 2306 3072 2169 3072 
Q 1681 3072 1420 2755 
Q 1159 2438 1159 1844 
L 1159 0 
L 581 0 
L 581 3500 
L 1159 3500 
L 1159 2956 
Q 1341 3275 1631 3429 
Q 1922 3584 2338 3584 
Q 2397 3584 2469 3576 
Q 2541 3569 2628 3553 
L 2631 2963 
z
" transform="scale(0.015625)"/>
        <path id="DejaVuSans-61" d="M 2194 1759 
Q 1497 1759 1228 1600 
Q 959 1441 959 1056 
Q 959 750 1161 570 
Q 1363 391 1709 391 
Q 2188 391 2477 730 
Q 2766 1069 2766 1631 
L 2766 1759 
L 2194 1759 
z
M 3341 1997 
L 3341 0 
L 2766 0 
L 2766 531 
Q 2569 213 2275 61 
Q 1981 -91 1556 -91 
Q 1019 -91 701 211 
Q 384 513 384 1019 
Q 384 1609 779 1909 
Q 1175 2209 1959 2209 
L 2766 2209 
L 2766 2266 
Q 2766 2663 2505 2880 
Q 2244 3097 1772 3097 
Q 1472 3097 1187 3025 
Q 903 2953 641 2809 
L 641 3341 
Q 956 3463 1253 3523 
Q 1550 3584 1831 3584 
Q 2591 3584 2966 3190 
Q 3341 2797 3341 1997 
z
" transform="scale(0.015625)"/>
        <path id="DejaVuSans-79" d="M 2059 -325 
Q 1816 -950 1584 -1140 
Q 1353 -1331 966 -1331 
L 506 -1331 
L 506 -850 
L 844 -850 
Q 1081 -850 1212 -737 
Q 1344 -625 1503 -206 
L 1606 56 
L 191 3500 
L 800 3500 
L 1894 763 
L 2988 3500 
L 3597 3500 
L 2059 -325 
z
" transform="scale(0.015625)"/>
        <path id="DejaVuSans-20" transform="scale(0.015625)"/>
        <path id="DejaVuSans-6c" d="M 603 4863 
L 1178 4863 
L 1178 0 
L 603 0 
L 603 4863 
z
" transform="scale(0.015625)"/>
        <path id="DejaVuSans-65" d="M 3597 1894 
L 3597 1613 
L 953 1613 
Q 991 1019 1311 708 
Q 1631 397 2203 397 
Q 2534 397 2845 478 
Q 3156 559 3463 722 
L 3463 178 
Q 3153 47 2828 -22 
Q 2503 -91 2169 -91 
Q 1331 -91 842 396 
Q 353 884 353 1716 
Q 353 2575 817 3079 
Q 1281 3584 2069 3584 
Q 2775 3584 3186 3129 
Q 3597 2675 3597 1894 
z
M 3022 2063 
Q 3016 2534 2758 2815 
Q 2500 3097 2075 3097 
Q 1594 3097 1305 2825 
Q 1016 2553 972 2059 
L 3022 2063 
z
" transform="scale(0.015625)"/>
        <path id="DejaVuSans-6e" d="M 3513 2113 
L 3513 0 
L 2938 0 
L 2938 2094 
Q 2938 2591 2744 2837 
Q 2550 3084 2163 3084 
Q 1697 3084 1428 2787 
Q 1159 2491 1159 1978 
L 1159 0 
L 581 0 
L 581 3500 
L 1159 3500 
L 1159 2956 
Q 1366 3272 1645 3428 
Q 1925 3584 2291 3584 
Q 2894 3584 3203 3211 
Q 3513 2838 3513 2113 
z
" transform="scale(0.015625)"/>
        <path id="DejaVuSans-67" d="M 2906 1791 
Q 2906 2416 2648 2759 
Q 2391 3103 1925 3103 
Q 1463 3103 1205 2759 
Q 947 2416 947 1791 
Q 947 1169 1205 825 
Q 1463 481 1925 481 
Q 2391 481 2648 825 
Q 2906 1169 2906 1791 
z
M 3481 434 
Q 3481 -459 3084 -895 
Q 2688 -1331 1869 -1331 
Q 1566 -1331 1297 -1286 
Q 1028 -1241 775 -1147 
L 775 -588 
Q 1028 -725 1275 -790 
Q 1522 -856 1778 -856 
Q 2344 -856 2625 -561 
Q 2906 -266 2906 331 
L 2906 616 
Q 2728 306 2450 153 
Q 2172 0 1784 0 
Q 1141 0 747 490 
Q 353 981 353 1791 
Q 353 2603 747 3093 
Q 1141 3584 1784 3584 
Q 2172 3584 2450 3431 
Q 2728 3278 2906 2969 
L 2906 3500 
L 3481 3500 
L 3481 434 
z
" transform="scale(0.015625)"/>
        <path id="DejaVuSans-74" d="M 1172 4494 
L 1172 3500 
L 2356 3500 
L 2356 3053 
L 1172 3053 
L 1172 1153 
Q 1172 725 1289 603 
Q 1406 481 1766 481 
L 2356 481 
L 2356 0 
L 1766 0 
Q 1100 0 847 248 
Q 594 497 594 1153 
L 594 3053 
L 172 3053 
L 172 3500 
L 594 3500 
L 594 4494 
L 1172 4494 
z
" transform="scale(0.015625)"/>
        <path id="DejaVuSans-68" d="M 3513 2113 
L 3513 0 
L 2938 0 
L 2938 2094 
Q 2938 2591 2744 2837 
Q 2550 3084 2163 3084 
Q 1697 3084 1428 2787 
Q 1159 2491 1159 1978 
L 1159 0 
L 581 0 
L 581 4863 
L 1159 4863 
L 1159 2956 
Q 1366 3272 1645 3428 
Q 1925 3584 2291 3584 
Q 2894 3584 3203 3211 
Q 3513 2838 3513 2113 
z
" transform="scale(0.015625)"/>
        <path id="DejaVuSans-28" d="M 1984 4856 
Q 1566 4138 1362 3434 
Q 1159 2731 1159 2009 
Q 1159 1288 1364 580 
Q 1569 -128 1984 -844 
L 1484 -844 
Q 1016 -109 783 600 
Q 550 1309 550 2009 
Q 550 2706 781 3412 
Q 1013 4119 1484 4856 
L 1984 4856 
z
" transform="scale(0.015625)"/>
        <path id="DejaVuSans-75" d="M 544 1381 
L 544 3500 
L 1119 3500 
L 1119 1403 
Q 1119 906 1312 657 
Q 1506 409 1894 409 
Q 2359 409 2629 706 
Q 2900 1003 2900 1516 
L 2900 3500 
L 3475 3500 
L 3475 0 
L 2900 0 
L 2900 538 
Q 2691 219 2414 64 
Q 2138 -91 1772 -91 
Q 1169 -91 856 284 
Q 544 659 544 1381 
z
M 1991 3584 
L 1991 3584 
z
" transform="scale(0.015625)"/>
        <path id="DejaVuSans-33" d="M 2597 2516 
Q 3050 2419 3304 2112 
Q 3559 1806 3559 1356 
Q 3559 666 3084 287 
Q 2609 -91 1734 -91 
Q 1441 -91 1130 -33 
Q 819 25 488 141 
L 488 750 
Q 750 597 1062 519 
Q 1375 441 1716 441 
Q 2309 441 2620 675 
Q 2931 909 2931 1356 
Q 2931 1769 2642 2001 
Q 2353 2234 1838 2234 
L 1294 2234 
L 1294 2753 
L 1863 2753 
Q 2328 2753 2575 2939 
Q 2822 3125 2822 3475 
Q 2822 3834 2567 4026 
Q 2313 4219 1838 4219 
Q 1578 4219 1281 4162 
Q 984 4106 628 3988 
L 628 4550 
Q 988 4650 1302 4700 
Q 1616 4750 1894 4750 
Q 2613 4750 3031 4423 
Q 3450 4097 3450 3541 
Q 3450 3153 3228 2886 
Q 3006 2619 2597 2516 
z
" transform="scale(0.015625)"/>
        <path id="DejaVuSans-29" d="M 513 4856 
L 1013 4856 
Q 1481 4119 1714 3412 
Q 1947 2706 1947 2009 
Q 1947 1309 1714 600 
Q 1481 -109 1013 -844 
L 513 -844 
Q 928 -128 1133 580 
Q 1338 1288 1338 2009 
Q 1338 2731 1133 3434 
Q 928 4138 513 4856 
z
" transform="scale(0.015625)"/>
       </defs>
       <use xlink:href="#DejaVuSans-41"/>
       <use xlink:href="#DejaVuSans-72" x="68.408203"/>
       <use xlink:href="#DejaVuSans-72" x="107.771484"/>
       <use xlink:href="#DejaVuSans-61" x="148.884766"/>
       <use xlink:href="#DejaVuSans-79" x="210.164062"/>
       <use xlink:href="#DejaVuSans-20" x="269.34375"/>
       <use xlink:href="#DejaVuSans-6c" x="301.130859"/>
       <use xlink:href="#DejaVuSans-65" x="328.914062"/>
       <use xlink:href="#DejaVuSans-6e" x="390.4375"/>
       <use xlink:href="#DejaVuSans-67" x="453.816406"/>
       <use xlink:href="#DejaVuSans-74" x="517.292969"/>
       <use xlink:href="#DejaVuSans-68" x="556.501953"/>
       <use xlink:href="#DejaVuSans-20" x="619.880859"/>
       <use xlink:href="#DejaVuSans-28" x="651.667969"/>
       <use xlink:href="#DejaVuSans-75" x="690.681641"/>
       <use xlink:href="#DejaVuSans-33" x="754.060547"/>
       <use xlink:href="#DejaVuSans-32" x="817.683594"/>
       <use xlink:href="#DejaVuSans-29" x="881.306641"/>
      </g>
     </g>
    </g>
    <g id="matplotlib.axis_2"/>
    <g id="patch_4">
     <path d="M 40.603125 50.594688 
L 654.403125 50.594688 
" style="fill: none; stroke: #000000; stroke-width: 0.8; stroke-linejoin: miter; stroke-linecap: square"/>
    </g>
   </g>
   <g id="PolyCollection_1">
    <path d="M 68.503125 355.691158 
L 68.503125 355.826361 
L 75.68856 347.694148 
L 81.559488 347.81887 
L 86.523287 347.795507 
L 90.823125 347.7717 
L 98.00856 338.737036 
L 103.879488 338.853687 
L 108.843287 338.417003 
L 113.143125 338.309537 
L 120.32856 330.216762 
L 126.199488 330.308969 
L 131.163287 330.260235 
L 135.463125 330.287828 
L 142.64856 321.017129 
L 148.519488 320.980901 
L 153.483287 321.029806 
L 157.783125 321.012861 
L 164.96856 306.755799 
L 170.839488 306.662007 
L 175.803287 306.454069 
L 180.103125 306.899017 
L 187.28856 295.598229 
L 193.159488 295.503495 
L 198.123287 295.504437 
L 202.423125 295.467599 
L 209.60856 285.334913 
L 215.479488 285.466724 
L 220.443287 285.478974 
L 224.743125 285.358049 
L 231.92856 276.011124 
L 237.799488 276.026001 
L 242.763287 276.007338 
L 247.063125 276.071758 
L 254.24856 265.765888 
L 260.119488 265.750817 
L 265.083287 265.738063 
L 269.383125 265.732897 
L 276.56856 255.357624 
L 282.439488 255.086741 
L 287.403287 254.34519 
L 291.703125 252.106931 
L 298.88856 235.791516 
L 304.759488 232.533616 
L 309.723287 230.338919 
L 314.023125 206.531949 
L 321.20856 206.593154 
L 327.079488 198.920661 
L 332.043287 200.343372 
L 336.343125 168.562201 
L 343.52856 170.574597 
L 349.399488 152.808513 
L 354.363287 161.994493 
L 358.663125 124.992769 
L 365.84856 107.714724 
L 371.719488 83.815209 
L 376.683287 80.201409 
L 380.983125 -107.875346 
L 388.16856 26.48126 
L 394.039488 -15.484556 
L 399.003287 -2.276417 
L 403.303125 -226.886411 
L 410.48856 -76.215039 
L 416.359488 -197.38035 
L 421.323287 -126.945916 
L 425.623125 -335.628756 
L 432.80856 -259.756248 
L 438.679488 -322.233792 
L 443.643287 -278.789885 
L 447.943125 -413.346979 
L 455.12856 -381.443581 
L 460.999488 -451.610929 
L 465.963287 -430.589738 
L 470.263125 -562.902314 
L 477.44856 -526.816456 
L 483.319488 -615.517235 
L 488.283287 -618.321894 
L 492.583125 -1136.631651 
L 499.76856 -824.7992 
L 505.639488 -926.900642 
L 510.603287 -941.729464 
L 514.903125 -1900.289609 
L 522.08856 -1164.465082 
L 527.959488 -1784.495652 
L 532.923287 -1328.720233 
L 537.223125 -2637.673054 
L 544.40856 -2058.334195 
L 550.279488 -2732.012563 
L 555.243287 -2162.759734 
L 559.543125 -3146.941191 
L 566.72856 -2965.224218 
L 572.599488 -3315.976304 
L 577.563287 -3059.796912 
L 581.863125 -3576.464497 
L 589.04856 -3693.583254 
L 594.919488 -4002.30594 
L 599.883287 -3771.247998 
L 604.183125 -4069.346629 
L 611.36856 -4361.704878 
L 617.239488 -4508.602105 
L 622.203287 -4476.137518 
L 626.503125 -4620.712287 
L 626.503125 -4711.641781 
L 626.503125 -4711.641781 
L 622.203287 -4543.575551 
L 617.239488 -4578.926888 
L 611.36856 -4447.559848 
L 604.183125 -4245.414059 
L 599.883287 -3842.156281 
L 594.919488 -4071.972207 
L 589.04856 -3737.97335 
L 581.863125 -3741.665494 
L 577.563287 -3192.344553 
L 572.599488 -3358.927742 
L 566.72856 -3017.740175 
L 559.543125 -3243.96833 
L 555.243287 -2218.95604 
L 550.279488 -2749.297504 
L 544.40856 -2087.860382 
L 537.223125 -2666.666865 
L 532.923287 -1384.13269 
L 527.959488 -1800.2551 
L 522.08856 -1181.243071 
L 514.903125 -2113.717208 
L 510.603287 -985.525785 
L 505.639488 -941.167898 
L 499.76856 -839.393739 
L 492.583125 -1289.866564 
L 488.283287 -673.972936 
L 483.319488 -622.050294 
L 477.44856 -564.043255 
L 470.263125 -584.861541 
L 465.963287 -435.648493 
L 460.999488 -466.843077 
L 455.12856 -403.651132 
L 447.943125 -479.799379 
L 443.643287 -298.398137 
L 438.679488 -387.911727 
L 432.80856 -272.126212 
L 425.623125 -406.25288 
L 421.323287 -132.962529 
L 416.359488 -224.009994 
L 410.48856 -100.644209 
L 403.303125 -259.917713 
L 399.003287 -7.455797 
L 394.039488 -19.207386 
L 388.16856 25.011916 
L 380.983125 -111.436466 
L 376.683287 78.134343 
L 371.719488 82.946542 
L 365.84856 107.102257 
L 358.663125 123.680928 
L 354.363287 160.362686 
L 349.399488 151.966895 
L 343.52856 168.957712 
L 336.343125 168.341648 
L 332.043287 200.040738 
L 327.079488 198.824131 
L 321.20856 205.902814 
L 314.023125 205.140988 
L 309.723287 230.127134 
L 304.759488 231.89068 
L 298.88856 235.732627 
L 291.703125 251.878933 
L 287.403287 254.032508 
L 282.439488 254.973787 
L 276.56856 255.001868 
L 269.383125 265.634593 
L 265.083287 265.332071 
L 260.119488 265.291469 
L 254.24856 265.676004 
L 247.063125 275.547856 
L 242.763287 275.525912 
L 237.799488 275.52732 
L 231.92856 275.679956 
L 224.743125 285.093745 
L 220.443287 285.357439 
L 215.479488 285.291052 
L 209.60856 285.07782 
L 202.423125 294.941702 
L 198.123287 295.107907 
L 193.159488 293.423059 
L 187.28856 295.121537 
L 180.103125 306.382127 
L 175.803287 306.161962 
L 170.839488 306.449064 
L 164.96856 306.397908 
L 157.783125 320.670452 
L 153.483287 320.61484 
L 148.519488 320.777924 
L 142.64856 320.7469 
L 135.463125 330.239056 
L 131.163287 330.098066 
L 126.199488 330.157109 
L 120.32856 329.862884 
L 113.143125 338.199194 
L 108.843287 338.313073 
L 103.879488 338.425584 
L 98.00856 338.294881 
L 90.823125 347.75838 
L 86.523287 347.784653 
L 81.559488 347.6691 
L 75.68856 347.582403 
L 68.503125 355.691158 
z
" clip-path="url(#pfd8af475fa)" style="fill: #9467bd; fill-opacity: 0.2; stroke: #9467bd; stroke-opacity: 0.2"/>
   </g>
   <g id="PolyCollection_2">
    <path d="M 68.503125 331.19203 
L 68.503125 347.179332 
L 75.68856 325.42965 
L 81.559488 349.778503 
L 86.523287 356.515381 
L 90.823125 343.129203 
L 98.00856 309.422361 
L 103.879488 325.095001 
L 108.843287 344.750694 
L 113.143125 313.562646 
L 120.32856 297.693936 
L 126.199488 315.932544 
L 131.163287 333.42682 
L 135.463125 315.970691 
L 142.64856 286.699401 
L 148.519488 303.230309 
L 153.483287 323.655788 
L 157.783125 318.806002 
L 164.96856 280.570233 
L 170.839488 294.642045 
L 175.803287 310.629113 
L 180.103125 317.49844 
L 187.28856 276.12936 
L 193.159488 284.923123 
L 198.123287 301.110441 
L 202.423125 309.659804 
L 209.60856 265.534355 
L 215.479488 270.243539 
L 220.443287 288.425183 
L 224.743125 298.838347 
L 231.92856 256.283732 
L 237.799488 257.984499 
L 242.763287 276.790333 
L 247.063125 288.002379 
L 254.24856 243.204344 
L 260.119488 247.282792 
L 265.083287 265.922127 
L 269.383125 277.271599 
L 276.56856 231.77465 
L 282.439488 231.907752 
L 287.403287 250.939954 
L 291.703125 265.555296 
L 298.88856 212.37101 
L 304.759488 219.246279 
L 309.723287 237.838405 
L 314.023125 249.68428 
L 321.20856 198.496687 
L 327.079488 204.419719 
L 332.043287 223.623674 
L 336.343125 237.192476 
L 343.52856 180.699379 
L 349.399488 182.537472 
L 354.363287 207.36115 
L 358.663125 224.807778 
L 365.84856 166.721381 
L 371.719488 169.126965 
L 376.683287 192.268617 
L 380.983125 207.509018 
L 388.16856 146.315085 
L 394.039488 145.47242 
L 399.003287 168.048598 
L 403.303125 188.085735 
L 410.48856 127.52818 
L 416.359488 127.032115 
L 421.323287 144.409651 
L 425.623125 160.130758 
L 432.80856 98.654479 
L 438.679488 97.622872 
L 443.643287 116.819628 
L 447.943125 140.237755 
L 455.12856 64.343929 
L 460.999488 60.997747 
L 465.963287 79.096314 
L 470.263125 80.794093 
L 477.44856 1.990275 
L 483.319488 -25.777189 
L 488.283287 -40.264395 
L 492.583125 -50.618039 
L 499.76856 -83.94443 
L 505.639488 -100.887816 
L 510.603287 -111.178403 
L 514.903125 -106.640602 
L 522.08856 -141.787786 
L 527.959488 -335.572052 
L 532.923287 -350.701445 
L 537.223125 -355.973137 
L 544.40856 -452.470233 
L 550.279488 -478.588918 
L 555.243287 -498.896272 
L 559.543125 -488.84208 
L 566.72856 -565.834089 
L 572.599488 -604.158485 
L 577.563287 -623.574147 
L 581.863125 -627.094211 
L 589.04856 -714.418618 
L 594.919488 -777.941039 
L 599.883287 -779.358035 
L 604.183125 -784.40408 
L 611.36856 -871.867028 
L 617.239488 -908.877165 
L 622.203287 -927.761299 
L 626.503125 -933.923087 
L 626.503125 -937.797156 
L 626.503125 -937.797156 
L 622.203287 -947.151514 
L 617.239488 -917.511984 
L 611.36856 -906.183243 
L 604.183125 -798.089422 
L 599.883287 -783.901862 
L 594.919488 -794.895544 
L 589.04856 -730.003724 
L 581.863125 -658.761269 
L 577.563287 -648.059434 
L 572.599488 -630.620682 
L 566.72856 -580.788825 
L 559.543125 -516.552385 
L 555.243287 -505.187022 
L 550.279488 -492.296886 
L 544.40856 -461.101998 
L 537.223125 -371.674478 
L 532.923287 -380.930527 
L 527.959488 -337.732006 
L 522.08856 -284.868258 
L 514.903125 -172.3153 
L 510.603287 -146.080025 
L 505.639488 -142.366707 
L 499.76856 -121.558377 
L 492.583125 -87.479332 
L 488.283287 -80.974525 
L 483.319488 -55.035022 
L 477.44856 -26.230413 
L 470.263125 47.728363 
L 465.963287 56.583824 
L 460.999488 34.816344 
L 455.12856 25.862347 
L 447.943125 90.351921 
L 443.643287 81.319053 
L 438.679488 71.531897 
L 432.80856 76.583291 
L 425.623125 130.006161 
L 421.323287 122.974005 
L 416.359488 124.092902 
L 410.48856 122.058716 
L 403.303125 142.667246 
L 399.003287 131.401767 
L 394.039488 95.16299 
L 388.16856 121.206906 
L 380.983125 173.897493 
L 376.683287 178.271036 
L 371.719488 138.998033 
L 365.84856 158.51992 
L 358.663125 208.989974 
L 354.363287 196.994413 
L 349.399488 173.039269 
L 343.52856 179.310868 
L 336.343125 233.410004 
L 332.043287 223.044548 
L 327.079488 202.280445 
L 321.20856 195.340235 
L 314.023125 249.434493 
L 309.723287 237.562799 
L 304.759488 217.545025 
L 298.88856 211.485238 
L 291.703125 264.893647 
L 287.403287 250.517034 
L 282.439488 231.362693 
L 276.56856 230.620101 
L 269.383125 276.984253 
L 265.083287 265.846416 
L 260.119488 247.09446 
L 254.24856 242.817552 
L 247.063125 287.465418 
L 242.763287 275.750562 
L 237.799488 257.136059 
L 231.92856 255.086309 
L 224.743125 298.302567 
L 220.443287 288.260901 
L 215.479488 269.802099 
L 209.60856 262.234639 
L 202.423125 309.012561 
L 198.123287 298.532482 
L 193.159488 280.616239 
L 187.28856 270.97193 
L 180.103125 315.854312 
L 175.803287 309.186986 
L 170.839488 293.34655 
L 164.96856 275.921711 
L 157.783125 318.181452 
L 153.483287 314.950746 
L 148.519488 301.845157 
L 142.64856 284.862001 
L 135.463125 310.625943 
L 131.163287 330.068195 
L 126.199488 310.737733 
L 120.32856 295.487565 
L 113.143125 309.608471 
L 108.843287 336.971716 
L 103.879488 313.489351 
L 98.00856 301.907648 
L 90.823125 340.476082 
L 86.523287 356.140989 
L 81.559488 339.642691 
L 75.68856 315.805855 
L 68.503125 331.19203 
z
" clip-path="url(#pfd8af475fa)" style="fill: #1f77b4; fill-opacity: 0.2; stroke: #1f77b4; stroke-opacity: 0.2"/>
   </g>
   <g id="PolyCollection_3">
    <path d="M 68.503125 364.977233 
L 68.503125 365.021354 
L 75.68856 365.016759 
L 81.559488 365.015856 
L 86.523287 365.019658 
L 90.823125 365.026304 
L 98.00856 349.992621 
L 103.879488 349.990786 
L 108.843287 350.003707 
L 113.143125 349.979723 
L 120.32856 349.985997 
L 126.199488 349.985859 
L 131.163287 349.981014 
L 135.463125 349.979806 
L 142.64856 349.98955 
L 148.519488 350.005619 
L 153.483287 350.008768 
L 157.783125 349.969113 
L 164.96856 349.988608 
L 170.839488 349.985537 
L 175.803287 349.986158 
L 180.103125 349.979806 
L 187.28856 331.490035 
L 193.159488 331.463834 
L 198.123287 331.45124 
L 202.423125 331.435609 
L 209.60856 331.447094 
L 215.479488 331.437183 
L 220.443287 331.435266 
L 224.743125 331.437366 
L 231.92856 331.41055 
L 237.799488 331.419352 
L 242.763287 331.407113 
L 247.063125 331.43199 
L 254.24856 331.326857 
L 260.119488 331.30264 
L 265.083287 331.167126 
L 269.383125 330.983777 
L 276.56856 308.888754 
L 282.439488 308.366648 
L 287.403287 307.745883 
L 291.703125 307.15673 
L 298.88856 306.170365 
L 304.759488 305.590524 
L 309.723287 305.050747 
L 314.023125 304.691604 
L 321.20856 304.189042 
L 327.079488 303.638734 
L 332.043287 303.195809 
L 336.343125 302.689019 
L 343.52856 301.592997 
L 349.399488 299.310422 
L 354.363287 297.420104 
L 358.663125 295.05077 
L 365.84856 261.769648 
L 371.719488 258.794255 
L 376.683287 256.309945 
L 380.983125 254.918663 
L 388.16856 252.038004 
L 394.039488 249.953046 
L 399.003287 248.494256 
L 403.303125 246.983883 
L 410.48856 243.912521 
L 416.359488 241.469339 
L 421.323287 237.864052 
L 425.623125 236.101144 
L 432.80856 232.386451 
L 438.679488 230.011675 
L 443.643287 227.790083 
L 447.943125 225.906216 
L 455.12856 220.001864 
L 460.999488 192.006669 
L 465.963287 176.842638 
L 470.263125 171.582907 
L 477.44856 159.505726 
L 483.319488 133.007766 
L 488.283287 110.416705 
L 492.583125 92.074432 
L 499.76856 77.620806 
L 505.639488 65.088212 
L 510.603287 53.88687 
L 514.903125 54.630144 
L 522.08856 41.289285 
L 527.959488 19.085708 
L 532.923287 19.565627 
L 537.223125 6.759117 
L 544.40856 -22.44721 
L 550.279488 -99.717724 
L 555.243287 -118.656483 
L 559.543125 -142.375315 
L 566.72856 -160.81072 
L 572.599488 -178.036197 
L 577.563287 -192.144349 
L 581.863125 -197.826501 
L 589.04856 -212.528573 
L 594.919488 -216.097946 
L 599.883287 -233.563027 
L 604.183125 -224.876415 
L 611.36856 -234.980317 
L 617.239488 -243.598268 
L 622.203287 -253.495518 
L 626.503125 -256.614944 
L 626.503125 -263.14634 
L 626.503125 -263.14634 
L 622.203287 -264.22315 
L 617.239488 -263.314264 
L 611.36856 -252.422118 
L 604.183125 -251.208825 
L 599.883287 -247.155808 
L 594.919488 -235.796143 
L 589.04856 -215.790418 
L 581.863125 -205.680885 
L 577.563287 -192.574553 
L 572.599488 -180.621101 
L 566.72856 -162.598489 
L 559.543125 -148.640806 
L 555.243287 -139.909546 
L 550.279488 -120.930539 
L 544.40856 -31.038677 
L 537.223125 -13.708123 
L 532.923287 9.556665 
L 527.959488 13.717813 
L 522.08856 29.347634 
L 514.903125 42.704496 
L 510.603287 49.833642 
L 505.639488 59.742666 
L 499.76856 69.170135 
L 492.583125 88.594328 
L 488.283287 107.74189 
L 483.319488 120.253626 
L 477.44856 143.196652 
L 470.263125 147.092088 
L 465.963287 165.928603 
L 460.999488 187.242249 
L 455.12856 214.154344 
L 447.943125 219.249816 
L 443.643287 226.566685 
L 438.679488 228.212599 
L 432.80856 229.039483 
L 425.623125 233.475782 
L 421.323287 235.01806 
L 416.359488 237.374894 
L 410.48856 242.567355 
L 403.303125 246.190623 
L 399.003287 247.798762 
L 394.039488 249.515586 
L 388.16856 251.474166 
L 380.983125 254.331472 
L 376.683287 256.053939 
L 371.719488 258.188219 
L 365.84856 261.290833 
L 358.663125 294.433243 
L 354.363287 296.928711 
L 349.399488 299.046013 
L 343.52856 300.572155 
L 336.343125 301.030949 
L 332.043287 302.260622 
L 327.079488 303.226162 
L 321.20856 303.845569 
L 314.023125 304.634994 
L 309.723287 304.989925 
L 304.759488 305.457155 
L 298.88856 305.342793 
L 291.703125 307.05749 
L 287.403287 307.306306 
L 282.439488 308.331234 
L 276.56856 308.686941 
L 269.383125 330.909224 
L 265.083287 330.672541 
L 260.119488 330.826502 
L 254.24856 330.866106 
L 247.063125 331.383517 
L 242.763287 331.243513 
L 237.799488 331.320693 
L 231.92856 331.360874 
L 224.743125 331.38324 
L 220.443287 331.330011 
L 215.479488 331.371217 
L 209.60856 330.931474 
L 202.423125 330.964155 
L 198.123287 330.880107 
L 193.159488 330.967924 
L 187.28856 330.921208 
L 180.103125 349.866286 
L 175.803287 349.63871 
L 170.839488 349.437928 
L 164.96856 349.935551 
L 157.783125 349.702282 
L 153.483287 349.933949 
L 148.519488 349.861968 
L 142.64856 349.659524 
L 135.463125 349.912559 
L 131.163287 349.907271 
L 126.199488 349.933367 
L 120.32856 349.907315 
L 113.143125 349.415302 
L 108.843287 349.927902 
L 103.879488 349.942236 
L 98.00856 349.524093 
L 90.823125 365.005807 
L 86.523287 364.999127 
L 81.559488 364.826271 
L 75.68856 364.999016 
L 68.503125 364.977233 
z
" clip-path="url(#pfd8af475fa)" style="fill: #17becf; fill-opacity: 0.2; stroke: #17becf; stroke-opacity: 0.2"/>
   </g>
   <g id="PolyCollection_4">
    <defs>
     <path id="m095b464d55" d="M 68.503125 -52.49026 
L 68.503125 -52.382633 
L 75.68856 -52.300625 
L 81.559488 -52.463394 
L 86.523287 -52.470655 
L 90.823125 -52.461016 
L 98.00856 -64.602013 
L 103.879488 -64.646063 
L 108.843287 -64.623065 
L 113.143125 -64.615166 
L 120.32856 -64.628309 
L 126.199488 -64.61684 
L 131.163287 -64.635775 
L 135.463125 -64.48065 
L 142.64856 -64.588832 
L 148.519488 -64.63562 
L 153.483287 -64.560347 
L 157.783125 -64.622555 
L 164.96856 -64.575074 
L 170.839488 -64.61934 
L 175.803287 -64.655153 
L 180.103125 -64.511552 
L 187.28856 -77.787155 
L 193.159488 -77.726421 
L 198.123287 -77.970709 
L 202.423125 -77.905264 
L 209.60856 -77.271989 
L 215.479488 -77.430788 
L 220.443287 -77.298035 
L 224.743125 -77.438299 
L 231.92856 -77.847451 
L 237.799488 -77.637573 
L 242.763287 -77.414814 
L 247.063125 -77.332518 
L 254.24856 -77.449086 
L 260.119488 -77.484976 
L 265.083287 -77.479899 
L 269.383125 -77.548892 
L 276.56856 -90.349742 
L 282.439488 -90.731323 
L 287.403287 -91.217272 
L 291.703125 -91.606897 
L 298.88856 -91.433968 
L 304.759488 -91.793627 
L 309.723287 -92.063551 
L 314.023125 -92.311686 
L 321.20856 -92.65286 
L 327.079488 -93.469118 
L 332.043287 -93.001688 
L 336.343125 -93.704282 
L 343.52856 -94.379739 
L 349.399488 -94.662789 
L 354.363287 -96.014839 
L 358.663125 -96.935598 
L 365.84856 -111.617255 
L 371.719488 -113.30279 
L 376.683287 -113.813726 
L 380.983125 -114.638548 
L 388.16856 -116.030302 
L 394.039488 -117.137315 
L 399.003287 -118.314091 
L 403.303125 -118.904691 
L 410.48856 -120.134608 
L 416.359488 -121.1335 
L 421.323287 -122.871282 
L 425.623125 -123.552188 
L 432.80856 -124.695296 
L 438.679488 -125.509792 
L 443.643287 -126.153443 
L 447.943125 -127.337658 
L 455.12856 -129.78145 
L 460.999488 -144.506453 
L 465.963287 -148.805055 
L 470.263125 -151.982049 
L 477.44856 -157.365249 
L 483.319488 -165.636445 
L 488.283287 -170.974697 
L 492.583125 -178.089288 
L 499.76856 -183.618111 
L 505.639488 -190.107132 
L 510.603287 -196.394567 
L 514.903125 -194.840544 
L 522.08856 -203.488893 
L 527.959488 -211.074894 
L 532.923287 -214.409441 
L 537.223125 -221.184366 
L 544.40856 -231.635366 
L 550.279488 -247.146596 
L 555.243287 -253.53989 
L 559.543125 -255.28096 
L 566.72856 -260.114776 
L 572.599488 -263.900502 
L 577.563287 -264.130805 
L 581.863125 -264.175359 
L 589.04856 -264.137024 
L 594.919488 -270.316921 
L 599.883287 -275.86989 
L 604.183125 -272.311602 
L 611.36856 -277.99836 
L 617.239488 -280.885099 
L 622.203287 -282.388509 
L 626.503125 -286.011577 
L 626.503125 -288.86278 
L 626.503125 -288.86278 
L 622.203287 -286.792987 
L 617.239488 -286.606368 
L 611.36856 -285.608822 
L 604.183125 -282.319927 
L 599.883287 -281.408219 
L 594.919488 -278.356816 
L 589.04856 -272.37667 
L 581.863125 -268.027944 
L 577.563287 -267.85961 
L 572.599488 -266.117676 
L 566.72856 -260.884546 
L 559.543125 -256.894309 
L 555.243287 -256.000737 
L 550.279488 -251.143141 
L 544.40856 -237.081977 
L 537.223125 -228.721151 
L 532.923287 -219.016701 
L 527.959488 -214.126917 
L 522.08856 -210.801389 
L 514.903125 -200.05714 
L 510.603287 -197.602523 
L 505.639488 -193.918238 
L 499.76856 -187.283516 
L 492.583125 -179.367467 
L 488.283287 -174.629842 
L 483.319488 -169.862923 
L 477.44856 -163.066596 
L 470.263125 -157.948338 
L 465.963287 -151.438836 
L 460.999488 -145.234988 
L 455.12856 -131.424526 
L 447.943125 -129.774538 
L 443.643287 -127.212249 
L 438.679488 -127.798919 
L 432.80856 -125.116848 
L 425.623125 -123.827239 
L 421.323287 -124.4084 
L 416.359488 -123.361095 
L 410.48856 -121.232818 
L 403.303125 -119.807037 
L 399.003287 -119.717452 
L 394.039488 -118.042704 
L 388.16856 -116.817476 
L 380.983125 -115.436781 
L 376.683287 -114.548492 
L 371.719488 -114.506161 
L 365.84856 -112.852881 
L 358.663125 -98.49931 
L 354.363287 -96.582324 
L 349.399488 -96.665757 
L 343.52856 -94.66989 
L 336.343125 -94.857984 
L 332.043287 -93.384522 
L 327.079488 -93.713245 
L 321.20856 -92.926908 
L 314.023125 -92.351141 
L 309.723287 -92.234789 
L 304.759488 -92.584038 
L 298.88856 -91.575008 
L 291.703125 -91.697368 
L 287.403287 -91.528636 
L 282.439488 -91.052669 
L 276.56856 -90.509817 
L 269.383125 -77.657245 
L 265.083287 -77.740494 
L 260.119488 -77.713711 
L 254.24856 -77.605119 
L 247.063125 -77.49961 
L 242.763287 -77.447273 
L 237.799488 -77.690891 
L 231.92856 -78.194638 
L 224.743125 -77.566485 
L 220.443287 -77.549657 
L 215.479488 -77.680714 
L 209.60856 -77.37098 
L 202.423125 -78.408889 
L 198.123287 -78.023134 
L 193.159488 -77.991545 
L 187.28856 -78.28741 
L 180.103125 -64.660009 
L 175.803287 -64.81255 
L 170.839488 -64.665291 
L 164.96856 -64.636385 
L 157.783125 -64.789065 
L 153.483287 -64.679608 
L 148.519488 -64.714501 
L 142.64856 -64.656101 
L 135.463125 -64.639078 
L 131.163287 -64.735437 
L 126.199488 -64.699375 
L 120.32856 -64.882447 
L 113.143125 -64.991277 
L 108.843287 -64.81515 
L 103.879488 -64.715416 
L 98.00856 -64.672441 
L 90.823125 -52.586863 
L 86.523287 -52.655595 
L 81.559488 -52.56341 
L 75.68856 -52.483055 
L 68.503125 -52.49026 
z
" style="stroke: #ff7f0e; stroke-opacity: 0.2"/>
    </defs>
    <g clip-path="url(#pfd8af475fa)">
     <use xlink:href="#m095b464d55" x="0" y="420.790938" style="fill: #ff7f0e; fill-opacity: 0.2; stroke: #ff7f0e; stroke-opacity: 0.2"/>
    </g>
   </g>
   <g id="PolyCollection_5">
    <defs>
     <path id="m5fde60119b" d="M 68.503125 -52.569086 
L 68.503125 -52.495997 
L 75.68856 -52.493331 
L 81.559488 -52.566836 
L 86.523287 -52.511989 
L 90.823125 -52.461432 
L 98.00856 -65.727722 
L 103.879488 -65.764599 
L 108.843287 -65.728265 
L 113.143125 -65.717124 
L 120.32856 -65.719984 
L 126.199488 -65.729945 
L 131.163287 -65.617179 
L 135.463125 -65.729607 
L 142.64856 -65.607585 
L 148.519488 -65.72336 
L 153.483287 -65.720805 
L 157.783125 -65.628653 
L 164.96856 -65.629169 
L 170.839488 -65.756933 
L 175.803287 -65.598023 
L 180.103125 -65.718294 
L 187.28856 -80.002716 
L 193.159488 -79.819694 
L 198.123287 -79.914628 
L 202.423125 -80.133602 
L 209.60856 -79.291696 
L 215.479488 -79.578731 
L 220.443287 -79.532947 
L 224.743125 -79.596657 
L 231.92856 -79.929732 
L 237.799488 -79.581436 
L 242.763287 -79.525214 
L 247.063125 -79.516207 
L 254.24856 -79.621129 
L 260.119488 -79.473066 
L 265.083287 -79.566454 
L 269.383125 -79.479929 
L 276.56856 -93.083623 
L 282.439488 -93.231858 
L 287.403287 -93.357406 
L 291.703125 -93.408046 
L 298.88856 -92.762438 
L 304.759488 -92.728304 
L 309.723287 -92.799975 
L 314.023125 -92.793107 
L 321.20856 -92.826686 
L 327.079488 -93.435256 
L 332.043287 -92.893539 
L 336.343125 -93.061202 
L 343.52856 -93.854202 
L 349.399488 -93.336464 
L 354.363287 -94.319615 
L 358.663125 -93.814238 
L 365.84856 -107.610738 
L 371.719488 -107.289142 
L 376.683287 -107.389492 
L 380.983125 -107.975175 
L 388.16856 -107.677159 
L 394.039488 -108.312473 
L 399.003287 -108.263723 
L 403.303125 -108.0811 
L 410.48856 -108.092508 
L 416.359488 -108.163812 
L 421.323287 -108.502308 
L 425.623125 -108.552244 
L 432.80856 -109.171634 
L 438.679488 -109.494177 
L 443.643287 -108.931082 
L 447.943125 -109.884555 
L 455.12856 -109.469556 
L 460.999488 -123.137621 
L 465.963287 -124.914192 
L 470.263125 -128.105804 
L 477.44856 -131.38113 
L 483.319488 -135.130178 
L 488.283287 -139.821846 
L 492.583125 -143.427021 
L 499.76856 -147.487953 
L 505.639488 -151.344894 
L 510.603287 -154.237636 
L 514.903125 -150.814169 
L 522.08856 -153.30568 
L 527.959488 -156.508632 
L 532.923287 -159.266753 
L 537.223125 -159.524023 
L 544.40856 -165.515343 
L 550.279488 -179.953277 
L 555.243287 -182.878573 
L 559.543125 -188.121758 
L 566.72856 -189.764678 
L 572.599488 -195.467849 
L 577.563287 -196.653079 
L 581.863125 -196.842641 
L 589.04856 -201.632026 
L 594.919488 -201.349824 
L 599.883287 -205.749147 
L 604.183125 -204.579787 
L 611.36856 -207.098032 
L 617.239488 -207.306939 
L 622.203287 -207.316213 
L 626.503125 -207.722161 
L 626.503125 -209.380352 
L 626.503125 -209.380352 
L 622.203287 -209.941696 
L 617.239488 -211.095719 
L 611.36856 -211.677527 
L 604.183125 -209.419302 
L 599.883287 -210.107557 
L 594.919488 -208.42291 
L 589.04856 -206.943434 
L 581.863125 -204.722207 
L 577.563287 -201.343372 
L 572.599488 -199.365492 
L 566.72856 -195.382022 
L 559.543125 -190.302487 
L 555.243287 -191.040895 
L 550.279488 -184.815818 
L 544.40856 -171.567919 
L 537.223125 -166.858967 
L 532.923287 -162.426127 
L 527.959488 -160.448518 
L 522.08856 -158.40568 
L 514.903125 -155.182502 
L 510.603287 -154.653517 
L 505.639488 -152.446486 
L 499.76856 -148.626461 
L 492.583125 -144.005255 
L 488.283287 -140.275297 
L 483.319488 -137.106445 
L 477.44856 -132.955246 
L 470.263125 -130.604415 
L 465.963287 -127.729588 
L 460.999488 -126.73656 
L 455.12856 -112.84935 
L 447.943125 -111.587024 
L 443.643287 -110.644697 
L 438.679488 -110.048837 
L 432.80856 -110.207431 
L 425.623125 -110.014886 
L 421.323287 -109.578801 
L 416.359488 -109.553376 
L 410.48856 -108.693661 
L 403.303125 -108.629535 
L 399.003287 -109.116027 
L 394.039488 -108.417252 
L 388.16856 -108.406515 
L 380.983125 -109.03826 
L 376.683287 -109.073175 
L 371.719488 -108.327256 
L 365.84856 -108.21535 
L 358.663125 -93.993895 
L 354.363287 -94.396506 
L 349.399488 -93.63346 
L 343.52856 -94.137346 
L 336.343125 -93.453271 
L 332.043287 -93.015279 
L 327.079488 -93.592049 
L 321.20856 -93.260011 
L 314.023125 -92.864178 
L 309.723287 -92.863463 
L 304.759488 -92.845626 
L 298.88856 -92.851712 
L 291.703125 -93.903523 
L 287.403287 -93.677832 
L 282.439488 -93.352295 
L 276.56856 -93.242306 
L 269.383125 -79.55666 
L 265.083287 -79.741167 
L 260.119488 -79.987329 
L 254.24856 -79.900211 
L 247.063125 -79.699013 
L 242.763287 -79.654786 
L 237.799488 -79.791192 
L 231.92856 -80.157253 
L 224.743125 -79.715742 
L 220.443287 -79.748035 
L 215.479488 -79.75207 
L 209.60856 -79.676747 
L 202.423125 -80.226246 
L 198.123287 -79.980705 
L 193.159488 -80.075035 
L 187.28856 -80.27631 
L 180.103125 -65.948863 
L 175.803287 -65.820023 
L 170.839488 -65.809591 
L 164.96856 -65.771722 
L 157.783125 -65.777514 
L 153.483287 -65.809957 
L 148.519488 -67.329686 
L 142.64856 -65.758563 
L 135.463125 -65.976999 
L 131.163287 -65.833492 
L 126.199488 -65.749101 
L 120.32856 -65.810922 
L 113.143125 -65.870541 
L 108.843287 -65.798528 
L 103.879488 -65.800412 
L 98.00856 -65.789188 
L 90.823125 -52.550656 
L 86.523287 -52.616091 
L 81.559488 -52.612266 
L 75.68856 -52.561066 
L 68.503125 -52.569086 
z
" style="stroke: #1f77b4; stroke-opacity: 0.2"/>
    </defs>
    <g clip-path="url(#pfd8af475fa)">
     <use xlink:href="#m5fde60119b" x="0" y="420.790938" style="fill: #1f77b4; fill-opacity: 0.2; stroke: #1f77b4; stroke-opacity: 0.2"/>
    </g>
   </g>
   <g id="matplotlib.axis_3">
    <g id="xtick_15">
     <g id="line2d_18">
      <path d="M 46.183125 383.234688 
L 46.183125 50.594688 
" clip-path="url(#pfd8af475fa)" style="fill: none; stroke: #b0b0b0; stroke-opacity: 0.4; stroke-width: 0.8; stroke-linecap: square"/>
     </g>
     <g id="line2d_19">
      <defs>
       <path id="md2c9ebd9c7" d="M 0 0 
L 0 3.5 
" style="stroke: #000000; stroke-width: 0.8"/>
      </defs>
      <g>
       <use xlink:href="#md2c9ebd9c7" x="46.183125" y="383.234688" style="stroke: #000000; stroke-width: 0.8"/>
      </g>
     </g>
     <g id="text_16">
      <!-- $\mathdefault{2^{4}}$ -->
      <g transform="translate(40.583125 397.833125) scale(0.1 -0.1)">
       <use xlink:href="#DejaVuSans-32" transform="translate(0 0.684375)"/>
       <use xlink:href="#DejaVuSans-34" transform="translate(64.580078 38.965625) scale(0.7)"/>
      </g>
     </g>
    </g>
    <g id="xtick_16">
     <g id="line2d_20">
      <path d="M 90.823125 383.234688 
L 90.823125 50.594688 
" clip-path="url(#pfd8af475fa)" style="fill: none; stroke: #b0b0b0; stroke-opacity: 0.4; stroke-width: 0.8; stroke-linecap: square"/>
     </g>
     <g id="line2d_21">
      <g>
       <use xlink:href="#md2c9ebd9c7" x="90.823125" y="383.234688" style="stroke: #000000; stroke-width: 0.8"/>
      </g>
     </g>
     <g id="text_17">
      <!-- $\mathdefault{2^{6}}$ -->
      <g transform="translate(85.223125 397.833125) scale(0.1 -0.1)">
       <use xlink:href="#DejaVuSans-32" transform="translate(0 0.765625)"/>
       <use xlink:href="#DejaVuSans-36" transform="translate(64.580078 39.046875) scale(0.7)"/>
      </g>
     </g>
    </g>
    <g id="xtick_17">
     <g id="line2d_22">
      <path d="M 135.463125 383.234688 
L 135.463125 50.594688 
" clip-path="url(#pfd8af475fa)" style="fill: none; stroke: #b0b0b0; stroke-opacity: 0.4; stroke-width: 0.8; stroke-linecap: square"/>
     </g>
     <g id="line2d_23">
      <g>
       <use xlink:href="#md2c9ebd9c7" x="135.463125" y="383.234688" style="stroke: #000000; stroke-width: 0.8"/>
      </g>
     </g>
     <g id="text_18">
      <!-- $\mathdefault{2^{8}}$ -->
      <g transform="translate(129.863125 397.833125) scale(0.1 -0.1)">
       <use xlink:href="#DejaVuSans-32" transform="translate(0 0.765625)"/>
       <use xlink:href="#DejaVuSans-38" transform="translate(64.580078 39.046875) scale(0.7)"/>
      </g>
     </g>
    </g>
    <g id="xtick_18">
     <g id="line2d_24">
      <path d="M 180.103125 383.234688 
L 180.103125 50.594688 
" clip-path="url(#pfd8af475fa)" style="fill: none; stroke: #b0b0b0; stroke-opacity: 0.4; stroke-width: 0.8; stroke-linecap: square"/>
     </g>
     <g id="line2d_25">
      <g>
       <use xlink:href="#md2c9ebd9c7" x="180.103125" y="383.234688" style="stroke: #000000; stroke-width: 0.8"/>
      </g>
     </g>
     <g id="text_19">
      <!-- $\mathdefault{2^{10}}$ -->
      <g transform="translate(172.253125 397.833125) scale(0.1 -0.1)">
       <use xlink:href="#DejaVuSans-32" transform="translate(0 0.765625)"/>
       <use xlink:href="#DejaVuSans-31" transform="translate(64.580078 39.046875) scale(0.7)"/>
       <use xlink:href="#DejaVuSans-30" transform="translate(109.116211 39.046875) scale(0.7)"/>
      </g>
     </g>
    </g>
    <g id="xtick_19">
     <g id="line2d_26">
      <path d="M 224.743125 383.234688 
L 224.743125 50.594688 
" clip-path="url(#pfd8af475fa)" style="fill: none; stroke: #b0b0b0; stroke-opacity: 0.4; stroke-width: 0.8; stroke-linecap: square"/>
     </g>
     <g id="line2d_27">
      <g>
       <use xlink:href="#md2c9ebd9c7" x="224.743125" y="383.234688" style="stroke: #000000; stroke-width: 0.8"/>
      </g>
     </g>
     <g id="text_20">
      <!-- $\mathdefault{2^{12}}$ -->
      <g transform="translate(216.893125 397.833125) scale(0.1 -0.1)">
       <use xlink:href="#DejaVuSans-32" transform="translate(0 0.765625)"/>
       <use xlink:href="#DejaVuSans-31" transform="translate(64.580078 39.046875) scale(0.7)"/>
       <use xlink:href="#DejaVuSans-32" transform="translate(109.116211 39.046875) scale(0.7)"/>
      </g>
     </g>
    </g>
    <g id="xtick_20">
     <g id="line2d_28">
      <path d="M 269.383125 383.234688 
L 269.383125 50.594688 
" clip-path="url(#pfd8af475fa)" style="fill: none; stroke: #b0b0b0; stroke-opacity: 0.4; stroke-width: 0.8; stroke-linecap: square"/>
     </g>
     <g id="line2d_29">
      <g>
       <use xlink:href="#md2c9ebd9c7" x="269.383125" y="383.234688" style="stroke: #000000; stroke-width: 0.8"/>
      </g>
     </g>
     <g id="text_21">
      <!-- $\mathdefault{2^{14}}$ -->
      <g transform="translate(261.533125 397.833125) scale(0.1 -0.1)">
       <use xlink:href="#DejaVuSans-32" transform="translate(0 0.684375)"/>
       <use xlink:href="#DejaVuSans-31" transform="translate(64.580078 38.965625) scale(0.7)"/>
       <use xlink:href="#DejaVuSans-34" transform="translate(109.116211 38.965625) scale(0.7)"/>
      </g>
     </g>
    </g>
    <g id="xtick_21">
     <g id="line2d_30">
      <path d="M 314.023125 383.234688 
L 314.023125 50.594688 
" clip-path="url(#pfd8af475fa)" style="fill: none; stroke: #b0b0b0; stroke-opacity: 0.4; stroke-width: 0.8; stroke-linecap: square"/>
     </g>
     <g id="line2d_31">
      <g>
       <use xlink:href="#md2c9ebd9c7" x="314.023125" y="383.234688" style="stroke: #000000; stroke-width: 0.8"/>
      </g>
     </g>
     <g id="text_22">
      <!-- $\mathdefault{2^{16}}$ -->
      <g transform="translate(306.173125 397.833125) scale(0.1 -0.1)">
       <use xlink:href="#DejaVuSans-32" transform="translate(0 0.765625)"/>
       <use xlink:href="#DejaVuSans-31" transform="translate(64.580078 39.046875) scale(0.7)"/>
       <use xlink:href="#DejaVuSans-36" transform="translate(109.116211 39.046875) scale(0.7)"/>
      </g>
     </g>
    </g>
    <g id="xtick_22">
     <g id="line2d_32">
      <path d="M 358.663125 383.234688 
L 358.663125 50.594688 
" clip-path="url(#pfd8af475fa)" style="fill: none; stroke: #b0b0b0; stroke-opacity: 0.4; stroke-width: 0.8; stroke-linecap: square"/>
     </g>
     <g id="line2d_33">
      <g>
       <use xlink:href="#md2c9ebd9c7" x="358.663125" y="383.234688" style="stroke: #000000; stroke-width: 0.8"/>
      </g>
     </g>
     <g id="text_23">
      <!-- $\mathdefault{2^{18}}$ -->
      <g transform="translate(350.813125 397.833125) scale(0.1 -0.1)">
       <use xlink:href="#DejaVuSans-32" transform="translate(0 0.765625)"/>
       <use xlink:href="#DejaVuSans-31" transform="translate(64.580078 39.046875) scale(0.7)"/>
       <use xlink:href="#DejaVuSans-38" transform="translate(109.116211 39.046875) scale(0.7)"/>
      </g>
     </g>
    </g>
    <g id="xtick_23">
     <g id="line2d_34">
      <path d="M 403.303125 383.234688 
L 403.303125 50.594688 
" clip-path="url(#pfd8af475fa)" style="fill: none; stroke: #b0b0b0; stroke-opacity: 0.4; stroke-width: 0.8; stroke-linecap: square"/>
     </g>
     <g id="line2d_35">
      <g>
       <use xlink:href="#md2c9ebd9c7" x="403.303125" y="383.234688" style="stroke: #000000; stroke-width: 0.8"/>
      </g>
     </g>
     <g id="text_24">
      <!-- $\mathdefault{2^{20}}$ -->
      <g transform="translate(395.453125 397.833125) scale(0.1 -0.1)">
       <use xlink:href="#DejaVuSans-32" transform="translate(0 0.765625)"/>
       <use xlink:href="#DejaVuSans-32" transform="translate(64.580078 39.046875) scale(0.7)"/>
       <use xlink:href="#DejaVuSans-30" transform="translate(109.116211 39.046875) scale(0.7)"/>
      </g>
     </g>
    </g>
    <g id="xtick_24">
     <g id="line2d_36">
      <path d="M 447.943125 383.234688 
L 447.943125 50.594688 
" clip-path="url(#pfd8af475fa)" style="fill: none; stroke: #b0b0b0; stroke-opacity: 0.4; stroke-width: 0.8; stroke-linecap: square"/>
     </g>
     <g id="line2d_37">
      <g>
       <use xlink:href="#md2c9ebd9c7" x="447.943125" y="383.234688" style="stroke: #000000; stroke-width: 0.8"/>
      </g>
     </g>
     <g id="text_25">
      <!-- $\mathdefault{2^{22}}$ -->
      <g transform="translate(440.093125 397.833125) scale(0.1 -0.1)">
       <use xlink:href="#DejaVuSans-32" transform="translate(0 0.765625)"/>
       <use xlink:href="#DejaVuSans-32" transform="translate(64.580078 39.046875) scale(0.7)"/>
       <use xlink:href="#DejaVuSans-32" transform="translate(109.116211 39.046875) scale(0.7)"/>
      </g>
     </g>
    </g>
    <g id="xtick_25">
     <g id="line2d_38">
      <path d="M 492.583125 383.234688 
L 492.583125 50.594688 
" clip-path="url(#pfd8af475fa)" style="fill: none; stroke: #b0b0b0; stroke-opacity: 0.4; stroke-width: 0.8; stroke-linecap: square"/>
     </g>
     <g id="line2d_39">
      <g>
       <use xlink:href="#md2c9ebd9c7" x="492.583125" y="383.234688" style="stroke: #000000; stroke-width: 0.8"/>
      </g>
     </g>
     <g id="text_26">
      <!-- $\mathdefault{2^{24}}$ -->
      <g transform="translate(484.733125 397.833125) scale(0.1 -0.1)">
       <use xlink:href="#DejaVuSans-32" transform="translate(0 0.765625)"/>
       <use xlink:href="#DejaVuSans-32" transform="translate(64.580078 39.046875) scale(0.7)"/>
       <use xlink:href="#DejaVuSans-34" transform="translate(109.116211 39.046875) scale(0.7)"/>
      </g>
     </g>
    </g>
    <g id="xtick_26">
     <g id="line2d_40">
      <path d="M 537.223125 383.234688 
L 537.223125 50.594688 
" clip-path="url(#pfd8af475fa)" style="fill: none; stroke: #b0b0b0; stroke-opacity: 0.4; stroke-width: 0.8; stroke-linecap: square"/>
     </g>
     <g id="line2d_41">
      <g>
       <use xlink:href="#md2c9ebd9c7" x="537.223125" y="383.234688" style="stroke: #000000; stroke-width: 0.8"/>
      </g>
     </g>
     <g id="text_27">
      <!-- $\mathdefault{2^{26}}$ -->
      <g transform="translate(529.373125 397.833125) scale(0.1 -0.1)">
       <use xlink:href="#DejaVuSans-32" transform="translate(0 0.765625)"/>
       <use xlink:href="#DejaVuSans-32" transform="translate(64.580078 39.046875) scale(0.7)"/>
       <use xlink:href="#DejaVuSans-36" transform="translate(109.116211 39.046875) scale(0.7)"/>
      </g>
     </g>
    </g>
    <g id="xtick_27">
     <g id="line2d_42">
      <path d="M 581.863125 383.234688 
L 581.863125 50.594688 
" clip-path="url(#pfd8af475fa)" style="fill: none; stroke: #b0b0b0; stroke-opacity: 0.4; stroke-width: 0.8; stroke-linecap: square"/>
     </g>
     <g id="line2d_43">
      <g>
       <use xlink:href="#md2c9ebd9c7" x="581.863125" y="383.234688" style="stroke: #000000; stroke-width: 0.8"/>
      </g>
     </g>
     <g id="text_28">
      <!-- $\mathdefault{2^{28}}$ -->
      <g transform="translate(574.013125 397.833125) scale(0.1 -0.1)">
       <use xlink:href="#DejaVuSans-32" transform="translate(0 0.765625)"/>
       <use xlink:href="#DejaVuSans-32" transform="translate(64.580078 39.046875) scale(0.7)"/>
       <use xlink:href="#DejaVuSans-38" transform="translate(109.116211 39.046875) scale(0.7)"/>
      </g>
     </g>
    </g>
    <g id="xtick_28">
     <g id="line2d_44">
      <path d="M 626.503125 383.234688 
L 626.503125 50.594688 
" clip-path="url(#pfd8af475fa)" style="fill: none; stroke: #b0b0b0; stroke-opacity: 0.4; stroke-width: 0.8; stroke-linecap: square"/>
     </g>
     <g id="line2d_45">
      <g>
       <use xlink:href="#md2c9ebd9c7" x="626.503125" y="383.234688" style="stroke: #000000; stroke-width: 0.8"/>
      </g>
     </g>
     <g id="text_29">
      <!-- $\mathdefault{2^{30}}$ -->
      <g transform="translate(618.653125 397.833125) scale(0.1 -0.1)">
       <use xlink:href="#DejaVuSans-32" transform="translate(0 0.765625)"/>
       <use xlink:href="#DejaVuSans-33" transform="translate(64.580078 39.046875) scale(0.7)"/>
       <use xlink:href="#DejaVuSans-30" transform="translate(109.116211 39.046875) scale(0.7)"/>
      </g>
     </g>
    </g>
    <g id="text_30">
     <!-- Array Size (bytes) -->
     <g transform="translate(302.917188 411.51125) scale(0.1 -0.1)">
      <defs>
       <path id="DejaVuSans-53" d="M 3425 4513 
L 3425 3897 
Q 3066 4069 2747 4153 
Q 2428 4238 2131 4238 
Q 1616 4238 1336 4038 
Q 1056 3838 1056 3469 
Q 1056 3159 1242 3001 
Q 1428 2844 1947 2747 
L 2328 2669 
Q 3034 2534 3370 2195 
Q 3706 1856 3706 1288 
Q 3706 609 3251 259 
Q 2797 -91 1919 -91 
Q 1588 -91 1214 -16 
Q 841 59 441 206 
L 441 856 
Q 825 641 1194 531 
Q 1563 422 1919 422 
Q 2459 422 2753 634 
Q 3047 847 3047 1241 
Q 3047 1584 2836 1778 
Q 2625 1972 2144 2069 
L 1759 2144 
Q 1053 2284 737 2584 
Q 422 2884 422 3419 
Q 422 4038 858 4394 
Q 1294 4750 2059 4750 
Q 2388 4750 2728 4690 
Q 3069 4631 3425 4513 
z
" transform="scale(0.015625)"/>
       <path id="DejaVuSans-69" d="M 603 3500 
L 1178 3500 
L 1178 0 
L 603 0 
L 603 3500 
z
M 603 4863 
L 1178 4863 
L 1178 4134 
L 603 4134 
L 603 4863 
z
" transform="scale(0.015625)"/>
       <path id="DejaVuSans-7a" d="M 353 3500 
L 3084 3500 
L 3084 2975 
L 922 459 
L 3084 459 
L 3084 0 
L 275 0 
L 275 525 
L 2438 3041 
L 353 3041 
L 353 3500 
z
" transform="scale(0.015625)"/>
       <path id="DejaVuSans-62" d="M 3116 1747 
Q 3116 2381 2855 2742 
Q 2594 3103 2138 3103 
Q 1681 3103 1420 2742 
Q 1159 2381 1159 1747 
Q 1159 1113 1420 752 
Q 1681 391 2138 391 
Q 2594 391 2855 752 
Q 3116 1113 3116 1747 
z
M 1159 2969 
Q 1341 3281 1617 3432 
Q 1894 3584 2278 3584 
Q 2916 3584 3314 3078 
Q 3713 2572 3713 1747 
Q 3713 922 3314 415 
Q 2916 -91 2278 -91 
Q 1894 -91 1617 61 
Q 1341 213 1159 525 
L 1159 0 
L 581 0 
L 581 4863 
L 1159 4863 
L 1159 2969 
z
" transform="scale(0.015625)"/>
       <path id="DejaVuSans-73" d="M 2834 3397 
L 2834 2853 
Q 2591 2978 2328 3040 
Q 2066 3103 1784 3103 
Q 1356 3103 1142 2972 
Q 928 2841 928 2578 
Q 928 2378 1081 2264 
Q 1234 2150 1697 2047 
L 1894 2003 
Q 2506 1872 2764 1633 
Q 3022 1394 3022 966 
Q 3022 478 2636 193 
Q 2250 -91 1575 -91 
Q 1294 -91 989 -36 
Q 684 19 347 128 
L 347 722 
Q 666 556 975 473 
Q 1284 391 1588 391 
Q 1994 391 2212 530 
Q 2431 669 2431 922 
Q 2431 1156 2273 1281 
Q 2116 1406 1581 1522 
L 1381 1569 
Q 847 1681 609 1914 
Q 372 2147 372 2553 
Q 372 3047 722 3315 
Q 1072 3584 1716 3584 
Q 2034 3584 2315 3537 
Q 2597 3491 2834 3397 
z
" transform="scale(0.015625)"/>
      </defs>
      <use xlink:href="#DejaVuSans-41"/>
      <use xlink:href="#DejaVuSans-72" x="68.408203"/>
      <use xlink:href="#DejaVuSans-72" x="107.771484"/>
      <use xlink:href="#DejaVuSans-61" x="148.884766"/>
      <use xlink:href="#DejaVuSans-79" x="210.164062"/>
      <use xlink:href="#DejaVuSans-20" x="269.34375"/>
      <use xlink:href="#DejaVuSans-53" x="301.130859"/>
      <use xlink:href="#DejaVuSans-69" x="364.607422"/>
      <use xlink:href="#DejaVuSans-7a" x="392.390625"/>
      <use xlink:href="#DejaVuSans-65" x="444.880859"/>
      <use xlink:href="#DejaVuSans-20" x="506.404297"/>
      <use xlink:href="#DejaVuSans-28" x="538.191406"/>
      <use xlink:href="#DejaVuSans-62" x="577.205078"/>
      <use xlink:href="#DejaVuSans-79" x="640.681641"/>
      <use xlink:href="#DejaVuSans-74" x="699.861328"/>
      <use xlink:href="#DejaVuSans-65" x="739.070312"/>
      <use xlink:href="#DejaVuSans-73" x="800.59375"/>
      <use xlink:href="#DejaVuSans-29" x="852.693359"/>
     </g>
    </g>
   </g>
   <g id="matplotlib.axis_4">
    <g id="ytick_1">
     <g id="line2d_46">
      <path d="M 40.603125 383.234688 
L 654.403125 383.234688 
" clip-path="url(#pfd8af475fa)" style="fill: none; stroke: #b0b0b0; stroke-opacity: 0.4; stroke-width: 0.8; stroke-linecap: square"/>
     </g>
     <g id="line2d_47">
      <defs>
       <path id="mc5809f7f30" d="M 0 0 
L -3.5 0 
" style="stroke: #000000; stroke-width: 0.8"/>
      </defs>
      <g>
       <use xlink:href="#mc5809f7f30" x="40.603125" y="383.234688" style="stroke: #000000; stroke-width: 0.8"/>
      </g>
     </g>
     <g id="text_31">
      <!-- 0 -->
      <g transform="translate(27.240625 387.033906) scale(0.1 -0.1)">
       <use xlink:href="#DejaVuSans-30"/>
      </g>
     </g>
    </g>
    <g id="ytick_2">
     <g id="line2d_48">
      <path d="M 40.603125 327.794688 
L 654.403125 327.794688 
" clip-path="url(#pfd8af475fa)" style="fill: none; stroke: #b0b0b0; stroke-opacity: 0.4; stroke-width: 0.8; stroke-linecap: square"/>
     </g>
     <g id="line2d_49">
      <g>
       <use xlink:href="#mc5809f7f30" x="40.603125" y="327.794688" style="stroke: #000000; stroke-width: 0.8"/>
      </g>
     </g>
     <g id="text_32">
      <!-- 10 -->
      <g transform="translate(20.878125 331.593906) scale(0.1 -0.1)">
       <use xlink:href="#DejaVuSans-31"/>
       <use xlink:href="#DejaVuSans-30" x="63.623047"/>
      </g>
     </g>
    </g>
    <g id="ytick_3">
     <g id="line2d_50">
      <path d="M 40.603125 272.354688 
L 654.403125 272.354688 
" clip-path="url(#pfd8af475fa)" style="fill: none; stroke: #b0b0b0; stroke-opacity: 0.4; stroke-width: 0.8; stroke-linecap: square"/>
     </g>
     <g id="line2d_51">
      <g>
       <use xlink:href="#mc5809f7f30" x="40.603125" y="272.354688" style="stroke: #000000; stroke-width: 0.8"/>
      </g>
     </g>
     <g id="text_33">
      <!-- 20 -->
      <g transform="translate(20.878125 276.153906) scale(0.1 -0.1)">
       <use xlink:href="#DejaVuSans-32"/>
       <use xlink:href="#DejaVuSans-30" x="63.623047"/>
      </g>
     </g>
    </g>
    <g id="ytick_4">
     <g id="line2d_52">
      <path d="M 40.603125 216.914688 
L 654.403125 216.914688 
" clip-path="url(#pfd8af475fa)" style="fill: none; stroke: #b0b0b0; stroke-opacity: 0.4; stroke-width: 0.8; stroke-linecap: square"/>
     </g>
     <g id="line2d_53">
      <g>
       <use xlink:href="#mc5809f7f30" x="40.603125" y="216.914688" style="stroke: #000000; stroke-width: 0.8"/>
      </g>
     </g>
     <g id="text_34">
      <!-- 30 -->
      <g transform="translate(20.878125 220.713906) scale(0.1 -0.1)">
       <use xlink:href="#DejaVuSans-33"/>
       <use xlink:href="#DejaVuSans-30" x="63.623047"/>
      </g>
     </g>
    </g>
    <g id="ytick_5">
     <g id="line2d_54">
      <path d="M 40.603125 161.474688 
L 654.403125 161.474688 
" clip-path="url(#pfd8af475fa)" style="fill: none; stroke: #b0b0b0; stroke-opacity: 0.4; stroke-width: 0.8; stroke-linecap: square"/>
     </g>
     <g id="line2d_55">
      <g>
       <use xlink:href="#mc5809f7f30" x="40.603125" y="161.474688" style="stroke: #000000; stroke-width: 0.8"/>
      </g>
     </g>
     <g id="text_35">
      <!-- 40 -->
      <g transform="translate(20.878125 165.273906) scale(0.1 -0.1)">
       <use xlink:href="#DejaVuSans-34"/>
       <use xlink:href="#DejaVuSans-30" x="63.623047"/>
      </g>
     </g>
    </g>
    <g id="ytick_6">
     <g id="line2d_56">
      <path d="M 40.603125 106.034688 
L 654.403125 106.034688 
" clip-path="url(#pfd8af475fa)" style="fill: none; stroke: #b0b0b0; stroke-opacity: 0.4; stroke-width: 0.8; stroke-linecap: square"/>
     </g>
     <g id="line2d_57">
      <g>
       <use xlink:href="#mc5809f7f30" x="40.603125" y="106.034688" style="stroke: #000000; stroke-width: 0.8"/>
      </g>
     </g>
     <g id="text_36">
      <!-- 50 -->
      <g transform="translate(20.878125 109.833906) scale(0.1 -0.1)">
       <defs>
        <path id="DejaVuSans-35" d="M 691 4666 
L 3169 4666 
L 3169 4134 
L 1269 4134 
L 1269 2991 
Q 1406 3038 1543 3061 
Q 1681 3084 1819 3084 
Q 2600 3084 3056 2656 
Q 3513 2228 3513 1497 
Q 3513 744 3044 326 
Q 2575 -91 1722 -91 
Q 1428 -91 1123 -41 
Q 819 9 494 109 
L 494 744 
Q 775 591 1075 516 
Q 1375 441 1709 441 
Q 2250 441 2565 725 
Q 2881 1009 2881 1497 
Q 2881 1984 2565 2268 
Q 2250 2553 1709 2553 
Q 1456 2553 1204 2497 
Q 953 2441 691 2322 
L 691 4666 
z
" transform="scale(0.015625)"/>
       </defs>
       <use xlink:href="#DejaVuSans-35"/>
       <use xlink:href="#DejaVuSans-30" x="63.623047"/>
      </g>
     </g>
    </g>
    <g id="ytick_7">
     <g id="line2d_58">
      <path d="M 40.603125 50.594688 
L 654.403125 50.594688 
" clip-path="url(#pfd8af475fa)" style="fill: none; stroke: #b0b0b0; stroke-opacity: 0.4; stroke-width: 0.8; stroke-linecap: square"/>
     </g>
     <g id="line2d_59">
      <g>
       <use xlink:href="#mc5809f7f30" x="40.603125" y="50.594688" style="stroke: #000000; stroke-width: 0.8"/>
      </g>
     </g>
     <g id="text_37">
      <!-- 60 -->
      <g transform="translate(20.878125 54.393906) scale(0.1 -0.1)">
       <use xlink:href="#DejaVuSans-36"/>
       <use xlink:href="#DejaVuSans-30" x="63.623047"/>
      </g>
     </g>
    </g>
    <g id="text_38">
     <!-- Inverse throughput (ns) -->
     <g transform="translate(14.798438 276.130313) rotate(-90) scale(0.1 -0.1)">
      <defs>
       <path id="DejaVuSans-49" d="M 628 4666 
L 1259 4666 
L 1259 0 
L 628 0 
L 628 4666 
z
" transform="scale(0.015625)"/>
       <path id="DejaVuSans-76" d="M 191 3500 
L 800 3500 
L 1894 563 
L 2988 3500 
L 3597 3500 
L 2284 0 
L 1503 0 
L 191 3500 
z
" transform="scale(0.015625)"/>
       <path id="DejaVuSans-6f" d="M 1959 3097 
Q 1497 3097 1228 2736 
Q 959 2375 959 1747 
Q 959 1119 1226 758 
Q 1494 397 1959 397 
Q 2419 397 2687 759 
Q 2956 1122 2956 1747 
Q 2956 2369 2687 2733 
Q 2419 3097 1959 3097 
z
M 1959 3584 
Q 2709 3584 3137 3096 
Q 3566 2609 3566 1747 
Q 3566 888 3137 398 
Q 2709 -91 1959 -91 
Q 1206 -91 779 398 
Q 353 888 353 1747 
Q 353 2609 779 3096 
Q 1206 3584 1959 3584 
z
" transform="scale(0.015625)"/>
       <path id="DejaVuSans-70" d="M 1159 525 
L 1159 -1331 
L 581 -1331 
L 581 3500 
L 1159 3500 
L 1159 2969 
Q 1341 3281 1617 3432 
Q 1894 3584 2278 3584 
Q 2916 3584 3314 3078 
Q 3713 2572 3713 1747 
Q 3713 922 3314 415 
Q 2916 -91 2278 -91 
Q 1894 -91 1617 61 
Q 1341 213 1159 525 
z
M 3116 1747 
Q 3116 2381 2855 2742 
Q 2594 3103 2138 3103 
Q 1681 3103 1420 2742 
Q 1159 2381 1159 1747 
Q 1159 1113 1420 752 
Q 1681 391 2138 391 
Q 2594 391 2855 752 
Q 3116 1113 3116 1747 
z
" transform="scale(0.015625)"/>
      </defs>
      <use xlink:href="#DejaVuSans-49"/>
      <use xlink:href="#DejaVuSans-6e" x="29.492188"/>
      <use xlink:href="#DejaVuSans-76" x="92.871094"/>
      <use xlink:href="#DejaVuSans-65" x="152.050781"/>
      <use xlink:href="#DejaVuSans-72" x="213.574219"/>
      <use xlink:href="#DejaVuSans-73" x="254.6875"/>
      <use xlink:href="#DejaVuSans-65" x="306.787109"/>
      <use xlink:href="#DejaVuSans-20" x="368.310547"/>
      <use xlink:href="#DejaVuSans-74" x="400.097656"/>
      <use xlink:href="#DejaVuSans-68" x="439.306641"/>
      <use xlink:href="#DejaVuSans-72" x="502.685547"/>
      <use xlink:href="#DejaVuSans-6f" x="541.548828"/>
      <use xlink:href="#DejaVuSans-75" x="602.730469"/>
      <use xlink:href="#DejaVuSans-67" x="666.109375"/>
      <use xlink:href="#DejaVuSans-68" x="729.585938"/>
      <use xlink:href="#DejaVuSans-70" x="792.964844"/>
      <use xlink:href="#DejaVuSans-75" x="856.441406"/>
      <use xlink:href="#DejaVuSans-74" x="919.820312"/>
      <use xlink:href="#DejaVuSans-20" x="959.029297"/>
      <use xlink:href="#DejaVuSans-28" x="990.816406"/>
      <use xlink:href="#DejaVuSans-6e" x="1029.830078"/>
      <use xlink:href="#DejaVuSans-73" x="1093.208984"/>
      <use xlink:href="#DejaVuSans-29" x="1145.308594"/>
     </g>
    </g>
   </g>
   <g id="line2d_60">
    <path d="M 68.503125 355.771143 
L 75.68856 347.692048 
L 81.559488 347.735061 
L 86.523287 347.793034 
L 90.823125 347.766162 
L 98.00856 338.328887 
L 103.879488 338.671978 
L 108.843287 338.384128 
L 113.143125 338.257034 
L 120.32856 330.195494 
L 126.199488 330.221329 
L 131.163287 330.244227 
L 135.463125 330.247021 
L 142.64856 320.917362 
L 148.519488 320.968728 
L 153.483287 320.891133 
L 157.783125 320.89059 
L 164.96856 306.513001 
L 170.839488 306.551347 
L 175.803287 306.433599 
L 180.103125 306.518927 
L 187.28856 295.509138 
L 193.159488 295.41085 
L 198.123287 295.490779 
L 202.423125 295.290558 
L 209.60856 285.324658 
L 215.479488 285.379023 
L 220.443287 285.365754 
L 224.743125 285.230323 
L 231.92856 275.937209 
L 237.799488 275.986973 
L 242.763287 275.984424 
L 247.063125 275.939182 
L 254.24856 265.688709 
L 260.119488 265.705687 
L 265.083287 265.718441 
L 269.383125 265.687001 
L 276.56856 255.172989 
L 282.439488 254.992578 
L 287.403287 254.292538 
L 291.703125 252.069483 
L 298.88856 235.750742 
L 304.759488 232.518429 
L 309.723287 230.307784 
L 314.023125 206.468765 
L 321.20856 206.237779 
L 327.079488 198.87196 
L 332.043287 200.297193 
L 336.343125 168.431238 
L 343.52856 170.400948 
L 349.399488 152.574251 
L 354.363287 161.062221 
L 358.663125 124.17114 
L 365.84856 107.308648 
L 371.719488 83.500364 
L 376.683287 78.247252 
L 378.513615 -1 
M 386.734863 -1 
L 388.16856 25.651665 
L 391.876838 -1 
" clip-path="url(#pfd8af475fa)" style="fill: none; stroke: #9467bd; stroke-opacity: 0.5; stroke-width: 0.5; stroke-linecap: square"/>
   </g>
   <g id="line2d_61">
    <path d="M 68.503125 334.692123 
L 75.68856 320.725604 
L 81.559488 343.753648 
L 86.523287 356.298775 
L 90.823125 342.771711 
L 98.00856 305.03383 
L 103.879488 314.399973 
L 108.843287 342.081898 
L 113.143125 309.743552 
L 120.32856 296.783237 
L 126.199488 311.342983 
L 131.163287 333.272267 
L 135.463125 315.302296 
L 142.64856 285.377915 
L 148.519488 301.986003 
L 153.483287 315.365846 
L 157.783125 318.788548 
L 164.96856 278.577038 
L 170.839488 293.515155 
L 175.803287 310.412157 
L 180.103125 316.097713 
L 187.28856 273.347932 
L 193.159488 284.12076 
L 198.123287 300.395346 
L 202.423125 309.069381 
L 209.60856 263.431398 
L 215.479488 270.03309 
L 220.443287 288.327466 
L 224.743125 298.802595 
L 231.92856 255.690234 
L 237.799488 257.350587 
L 242.763287 276.090393 
L 247.063125 287.723951 
L 254.24856 242.941958 
L 260.119488 247.175331 
L 265.083287 265.908553 
L 269.383125 277.041761 
L 276.56856 230.995252 
L 282.439488 231.458209 
L 287.403287 250.779908 
L 291.703125 265.093752 
L 298.88856 212.142586 
L 304.759488 218.523203 
L 309.723287 237.627181 
L 314.023125 249.516268 
L 321.20856 196.006379 
L 327.079488 203.339999 
L 332.043287 223.495826 
L 336.343125 233.643151 
L 343.52856 179.584772 
L 349.399488 178.874406 
L 354.363287 203.282186 
L 358.663125 216.303302 
L 365.84856 166.626237 
L 371.719488 151.002946 
L 376.683287 191.810477 
L 380.983125 207.46192 
L 388.16856 146.076528 
L 394.039488 144.576034 
L 399.003287 166.751091 
L 403.303125 184.410934 
L 410.48856 126.331505 
L 416.359488 124.117972 
L 421.323287 138.678095 
L 425.623125 152.502631 
L 432.80856 93.775083 
L 438.679488 93.481013 
L 443.643287 114.461458 
L 447.943125 121.620614 
L 455.12856 45.820152 
L 460.999488 47.070727 
L 465.963287 76.888185 
L 470.263125 73.511152 
L 477.44856 -0.607134 
L 477.532518 -1 
" clip-path="url(#pfd8af475fa)" style="fill: none; stroke: #1f77b4; stroke-opacity: 0.5; stroke-width: 0.5; stroke-linecap: square"/>
   </g>
   <g id="line2d_62">
    <path d="M 68.503125 365.014836 
L 75.68856 365.00656 
L 81.559488 365.01258 
L 86.523287 365.002897 
L 90.823125 365.007414 
L 98.00856 349.978708 
L 103.879488 349.986385 
L 108.843287 349.935058 
L 113.143125 349.96392 
L 120.32856 349.983846 
L 126.199488 349.944203 
L 131.163287 349.978087 
L 135.463125 349.957983 
L 142.64856 349.985847 
L 148.519488 349.952008 
L 153.483287 349.944941 
L 157.783125 349.963315 
L 164.96856 349.982184 
L 170.839488 349.982062 
L 175.803287 349.952013 
L 180.103125 349.921699 
L 187.28856 331.393832 
L 193.159488 331.444733 
L 198.123287 331.41642 
L 202.423125 331.423587 
L 209.60856 331.435986 
L 215.479488 331.37594 
L 220.443287 331.417988 
L 224.743125 331.393272 
L 231.92856 331.408776 
L 237.799488 331.399397 
L 242.763287 331.381377 
L 247.063125 331.393317 
L 254.24856 331.267996 
L 260.119488 331.290212 
L 265.083287 331.167065 
L 269.383125 330.970579 
L 276.56856 308.765152 
L 282.439488 308.35707 
L 287.403287 307.727902 
L 291.703125 307.116378 
L 298.88856 306.170354 
L 304.759488 305.470475 
L 309.723287 305.035693 
L 314.023125 304.65042 
L 321.20856 304.081343 
L 327.079488 303.517582 
L 332.043287 303.046732 
L 336.343125 301.731177 
L 343.52856 300.942916 
L 349.399488 299.106836 
L 354.363287 297.033678 
L 358.663125 294.609187 
L 365.84856 261.60903 
L 371.719488 258.532551 
L 376.683287 256.064343 
L 380.983125 254.796579 
L 388.16856 252.024723 
L 394.039488 249.564519 
L 399.003287 248.399976 
L 403.303125 246.787492 
L 410.48856 243.794833 
L 416.359488 238.153056 
L 421.323287 237.822225 
L 425.623125 236.025998 
L 432.80856 230.021369 
L 438.679488 229.999464 
L 443.643287 227.718789 
L 447.943125 223.765579 
L 455.12856 219.046811 
L 460.999488 189.065681 
L 465.963287 166.507834 
L 470.263125 170.342187 
L 477.44856 149.15339 
L 483.319488 124.254517 
L 488.283287 109.392182 
L 492.583125 91.871555 
L 499.76856 71.678685 
L 505.639488 61.029985 
L 510.603287 51.125889 
L 514.903125 44.985259 
L 522.08856 32.85318 
L 527.959488 17.400673 
L 532.923287 12.439734 
L 535.648356 -1 
" clip-path="url(#pfd8af475fa)" style="fill: none; stroke: #17becf; stroke-opacity: 0.5; stroke-width: 0.5; stroke-linecap: square"/>
   </g>
   <g id="line2d_63">
    <path d="M 68.503125 368.32628 
L 75.68856 368.359903 
L 81.559488 368.296415 
L 86.523287 368.199192 
L 90.823125 368.305089 
L 98.00856 356.159952 
L 103.879488 356.087788 
L 108.843287 356.119073 
L 113.143125 356.1533 
L 120.32856 356.081469 
L 126.199488 356.12543 
L 131.163287 356.06948 
L 135.463125 356.186164 
L 142.64856 356.160129 
L 148.519488 356.131788 
L 153.483287 356.154985 
L 157.783125 356.13773 
L 164.96856 356.169003 
L 170.839488 356.15907 
L 175.803287 356.109206 
L 180.103125 356.165151 
L 187.28856 342.939063 
L 193.159488 342.884111 
L 198.123287 342.818554 
L 202.423125 342.728654 
L 209.60856 343.458902 
L 215.479488 343.351585 
L 220.443287 343.310684 
L 224.743125 343.328277 
L 231.92856 342.616082 
L 237.799488 343.11733 
L 242.763287 343.368342 
L 247.063125 343.333149 
L 254.24856 343.234225 
L 260.119488 343.205745 
L 265.083287 343.147494 
L 269.383125 343.170281 
L 276.56856 330.366477 
L 282.439488 329.959592 
L 287.403287 329.573094 
L 291.703125 329.163277 
L 298.88856 329.26882 
L 304.759488 328.8897 
L 309.723287 328.655977 
L 314.023125 328.440234 
L 321.20856 327.979655 
L 327.079488 327.204914 
L 332.043287 327.600258 
L 336.343125 326.651718 
L 343.52856 326.209585 
L 349.399488 325.85859 
L 354.363287 324.277734 
L 358.663125 323.590831 
L 365.84856 308.799934 
L 371.719488 306.574534 
L 376.683287 306.906445 
L 380.983125 305.409403 
L 388.16856 304.596276 
L 394.039488 303.277135 
L 399.003287 301.744491 
L 403.303125 301.523256 
L 410.48856 300.413195 
L 416.359488 297.540335 
L 421.323287 296.645495 
L 425.623125 297.201801 
L 432.80856 295.674478 
L 438.679488 294.427184 
L 443.643287 293.639794 
L 447.943125 293.080434 
L 455.12856 290.260715 
L 460.999488 275.641488 
L 465.963287 269.447362 
L 470.263125 267.622162 
L 477.44856 259.680543 
L 483.319488 254.18853 
L 488.283287 247.914559 
L 492.583125 242.156968 
L 499.76856 234.854028 
L 505.639488 229.40147 
L 510.603287 223.471737 
L 514.903125 222.255068 
L 522.08856 212.233773 
L 527.959488 206.868122 
L 532.923287 203.254361 
L 537.223125 196.66141 
L 544.40856 187.712507 
L 550.279488 169.76264 
L 555.243287 164.915282 
L 559.543125 165.144216 
L 566.72856 160.635648 
L 572.599488 156.735688 
L 577.563287 153.997289 
L 581.863125 153.331538 
L 589.04856 150.377043 
L 594.919488 145.732345 
L 599.883287 140.113954 
L 604.183125 140.034679 
L 611.36856 136.903358 
L 617.239488 137.736505 
L 622.203287 137.39082 
L 626.503125 131.98275 
" clip-path="url(#pfd8af475fa)" style="fill: none; stroke: #ff7f0e; stroke-width: 2; stroke-linecap: square"/>
   </g>
   <g id="line2d_64">
    <path d="M 68.503125 368.288017 
L 75.68856 368.270895 
L 81.559488 368.217954 
L 86.523287 368.256079 
L 90.823125 368.280529 
L 98.00856 355.006927 
L 103.879488 355.00476 
L 108.843287 355.026754 
L 113.143125 355.019349 
L 120.32856 355.018489 
L 126.199488 355.055306 
L 131.163287 355.077544 
L 135.463125 355.018905 
L 142.64856 355.044558 
L 148.519488 355.030429 
L 153.483287 355.01467 
L 157.783125 355.070732 
L 164.96856 355.063204 
L 170.839488 355.030734 
L 175.803287 355.055904 
L 180.103125 355.045112 
L 187.28856 340.716119 
L 193.159488 340.870573 
L 198.123287 340.865274 
L 202.423125 340.573499 
L 209.60856 341.149388 
L 215.479488 341.059099 
L 220.443287 341.252509 
L 224.743125 341.115903 
L 231.92856 340.644427 
L 237.799488 341.199125 
L 242.763287 341.222959 
L 247.063125 341.09224 
L 254.24856 341.007189 
L 260.119488 341.267231 
L 265.083287 341.058245 
L 269.383125 341.239217 
L 276.56856 327.641215 
L 282.439488 327.486595 
L 287.403287 327.422568 
L 291.703125 327.353852 
L 298.88856 327.980354 
L 304.759488 328.008506 
L 309.723287 327.981124 
L 314.023125 327.940389 
L 321.20856 327.891877 
L 327.079488 327.23974 
L 332.043287 327.797326 
L 336.343125 327.625356 
L 343.52856 326.713161 
L 349.399488 327.319752 
L 354.363287 326.406642 
L 358.663125 326.960066 
L 365.84856 313.080189 
L 371.719488 312.589822 
L 376.683287 312.487494 
L 380.983125 312.657274 
L 388.16856 312.451609 
L 394.039488 312.422303 
L 399.003287 312.229547 
L 403.303125 312.375338 
L 410.48856 312.694744 
L 416.359488 311.702824 
L 421.323287 312.246398 
L 425.623125 312.027674 
L 432.80856 311.133277 
L 438.679488 310.943719 
L 443.643287 311.737146 
L 447.943125 310.770109 
L 455.12856 309.319645 
L 460.999488 294.618249 
L 465.963287 293.138407 
L 470.263125 291.168271 
L 477.44856 288.824462 
L 483.319488 284.792531 
L 488.283287 280.918828 
L 492.583125 277.024118 
L 499.76856 272.483372 
L 505.639488 269.342573 
L 510.603287 266.282241 
L 514.903125 266.311845 
L 522.08856 263.866607 
L 527.959488 261.137659 
L 532.923287 259.384739 
L 537.223125 256.481377 
L 544.40856 252.806699 
L 550.279488 236.199415 
L 555.243287 230.305223 
L 559.543125 230.968469 
L 566.72856 226.423117 
L 572.599488 222.60118 
L 577.563287 219.46471 
L 581.863125 217.377262 
L 589.04856 215.228493 
L 594.919488 212.890865 
L 599.883287 210.714343 
L 604.183125 211.528922 
L 611.36856 213.559061 
L 617.239488 212.93139 
L 622.203287 213.447725 
L 626.503125 211.510048 
" clip-path="url(#pfd8af475fa)" style="fill: none; stroke: #1f77b4; stroke-width: 1.5; stroke-linecap: square"/>
   </g>
   <g id="line2d_65"/>
   <g id="line2d_66"/>
   <g id="line2d_67"/>
   <g id="line2d_68"/>
   <g id="line2d_69"/>
   <g id="line2d_70"/>
   <g id="line2d_71"/>
   <g id="line2d_72"/>
   <g id="patch_5">
    <path d="M 40.603125 383.234688 
L 40.603125 50.594688 
" style="fill: none; stroke: #000000; stroke-width: 0.8; stroke-linejoin: miter; stroke-linecap: square"/>
   </g>
   <g id="patch_6">
    <path d="M 654.403125 383.234688 
L 654.403125 50.594688 
" style="fill: none; stroke: #000000; stroke-width: 0.8; stroke-linejoin: miter; stroke-linecap: square"/>
   </g>
   <g id="patch_7">
    <path d="M 40.603125 383.234688 
L 654.403125 383.234688 
" style="fill: none; stroke: #000000; stroke-width: 0.8; stroke-linejoin: miter; stroke-linecap: square"/>
   </g>
   <g id="patch_8">
    <path d="M 40.603125 50.594688 
L 654.403125 50.594688 
" style="fill: none; stroke: #000000; stroke-width: 0.8; stroke-linejoin: miter; stroke-linecap: square"/>
   </g>
   <g id="text_39">
    <!-- L1  -->
    <g style="fill: #ff0000" transform="translate(276.590625 381.155) scale(0.1 -0.1)">
     <defs>
      <path id="DejaVuSans-4c" d="M 628 4666 
L 1259 4666 
L 1259 531 
L 3531 531 
L 3531 0 
L 628 0 
L 628 4666 
z
" transform="scale(0.015625)"/>
     </defs>
     <use xlink:href="#DejaVuSans-4c"/>
     <use xlink:href="#DejaVuSans-31" x="55.712891"/>
     <use xlink:href="#DejaVuSans-20" x="119.335938"/>
    </g>
   </g>
   <g id="text_40">
    <!-- L2  -->
    <g style="fill: #ff0000" transform="translate(343.550625 381.155) scale(0.1 -0.1)">
     <use xlink:href="#DejaVuSans-4c"/>
     <use xlink:href="#DejaVuSans-32" x="55.712891"/>
     <use xlink:href="#DejaVuSans-20" x="119.335938"/>
    </g>
   </g>
   <g id="text_41">
    <!-- L3  -->
    <g style="fill: #ff0000" transform="translate(468.206988 381.155) scale(0.1 -0.1)">
     <use xlink:href="#DejaVuSans-4c"/>
     <use xlink:href="#DejaVuSans-33" x="55.712891"/>
     <use xlink:href="#DejaVuSans-20" x="119.335938"/>
    </g>
   </g>
   <g id="text_42">
    <!-- RAM -->
    <g style="fill: #ff0000" transform="translate(604.485938 381.155) scale(0.1 -0.1)">
     <defs>
      <path id="DejaVuSans-52" d="M 2841 2188 
Q 3044 2119 3236 1894 
Q 3428 1669 3622 1275 
L 4263 0 
L 3584 0 
L 2988 1197 
Q 2756 1666 2539 1819 
Q 2322 1972 1947 1972 
L 1259 1972 
L 1259 0 
L 628 0 
L 628 4666 
L 2053 4666 
Q 2853 4666 3247 4331 
Q 3641 3997 3641 3322 
Q 3641 2881 3436 2590 
Q 3231 2300 2841 2188 
z
M 1259 4147 
L 1259 2491 
L 2053 2491 
Q 2509 2491 2742 2702 
Q 2975 2913 2975 3322 
Q 2975 3731 2742 3939 
Q 2509 4147 2053 4147 
L 1259 4147 
z
" transform="scale(0.015625)"/>
      <path id="DejaVuSans-4d" d="M 628 4666 
L 1569 4666 
L 2759 1491 
L 3956 4666 
L 4897 4666 
L 4897 0 
L 4281 0 
L 4281 4097 
L 3078 897 
L 2444 897 
L 1241 4097 
L 1241 0 
L 628 0 
L 628 4666 
z
" transform="scale(0.015625)"/>
     </defs>
     <use xlink:href="#DejaVuSans-52"/>
     <use xlink:href="#DejaVuSans-41" x="65.482422"/>
     <use xlink:href="#DejaVuSans-4d" x="133.890625"/>
    </g>
   </g>
   <g id="text_43">
    <!-- Prefetching -->
    <g transform="translate(313.430625 16.318125) scale(0.12 -0.12)">
     <defs>
      <path id="DejaVuSans-50" d="M 1259 4147 
L 1259 2394 
L 2053 2394 
Q 2494 2394 2734 2622 
Q 2975 2850 2975 3272 
Q 2975 3691 2734 3919 
Q 2494 4147 2053 4147 
L 1259 4147 
z
M 628 4666 
L 2053 4666 
Q 2838 4666 3239 4311 
Q 3641 3956 3641 3272 
Q 3641 2581 3239 2228 
Q 2838 1875 2053 1875 
L 1259 1875 
L 1259 0 
L 628 0 
L 628 4666 
z
" transform="scale(0.015625)"/>
      <path id="DejaVuSans-66" d="M 2375 4863 
L 2375 4384 
L 1825 4384 
Q 1516 4384 1395 4259 
Q 1275 4134 1275 3809 
L 1275 3500 
L 2222 3500 
L 2222 3053 
L 1275 3053 
L 1275 0 
L 697 0 
L 697 3053 
L 147 3053 
L 147 3500 
L 697 3500 
L 697 3744 
Q 697 4328 969 4595 
Q 1241 4863 1831 4863 
L 2375 4863 
z
" transform="scale(0.015625)"/>
      <path id="DejaVuSans-63" d="M 3122 3366 
L 3122 2828 
Q 2878 2963 2633 3030 
Q 2388 3097 2138 3097 
Q 1578 3097 1268 2742 
Q 959 2388 959 1747 
Q 959 1106 1268 751 
Q 1578 397 2138 397 
Q 2388 397 2633 464 
Q 2878 531 3122 666 
L 3122 134 
Q 2881 22 2623 -34 
Q 2366 -91 2075 -91 
Q 1284 -91 818 406 
Q 353 903 353 1747 
Q 353 2603 823 3093 
Q 1294 3584 2113 3584 
Q 2378 3584 2631 3529 
Q 2884 3475 3122 3366 
z
" transform="scale(0.015625)"/>
     </defs>
     <use xlink:href="#DejaVuSans-50"/>
     <use xlink:href="#DejaVuSans-72" x="58.552734"/>
     <use xlink:href="#DejaVuSans-65" x="97.416016"/>
     <use xlink:href="#DejaVuSans-66" x="158.939453"/>
     <use xlink:href="#DejaVuSans-65" x="194.144531"/>
     <use xlink:href="#DejaVuSans-74" x="255.667969"/>
     <use xlink:href="#DejaVuSans-63" x="294.876953"/>
     <use xlink:href="#DejaVuSans-68" x="349.857422"/>
     <use xlink:href="#DejaVuSans-69" x="413.236328"/>
     <use xlink:href="#DejaVuSans-6e" x="441.019531"/>
     <use xlink:href="#DejaVuSans-67" x="504.398438"/>
    </g>
   </g>
   <g id="legend_1">
    <g id="patch_9">
     <path d="M 47.603125 133.097813 
L 241.170313 133.097813 
Q 243.170313 133.097813 243.170313 131.097813 
L 243.170313 57.594688 
Q 243.170313 55.594688 241.170313 55.594688 
L 47.603125 55.594688 
Q 45.603125 55.594688 45.603125 57.594688 
L 45.603125 131.097813 
Q 45.603125 133.097813 47.603125 133.097813 
z
" style="fill: #ffffff; opacity: 0.8; stroke: #cccccc; stroke-linejoin: miter"/>
    </g>
    <g id="line2d_73">
     <path d="M 49.603125 63.693125 
L 59.603125 63.693125 
L 69.603125 63.693125 
" style="fill: none; stroke: #9467bd; stroke-opacity: 0.5; stroke-width: 1.5; stroke-linecap: square"/>
    </g>
    <g id="text_44">
     <!-- SortedVec::binary_search_std -->
     <g transform="translate(77.603125 67.193125) scale(0.1 -0.1)">
      <defs>
       <path id="DejaVuSans-64" d="M 2906 2969 
L 2906 4863 
L 3481 4863 
L 3481 0 
L 2906 0 
L 2906 525 
Q 2725 213 2448 61 
Q 2172 -91 1784 -91 
Q 1150 -91 751 415 
Q 353 922 353 1747 
Q 353 2572 751 3078 
Q 1150 3584 1784 3584 
Q 2172 3584 2448 3432 
Q 2725 3281 2906 2969 
z
M 947 1747 
Q 947 1113 1208 752 
Q 1469 391 1925 391 
Q 2381 391 2643 752 
Q 2906 1113 2906 1747 
Q 2906 2381 2643 2742 
Q 2381 3103 1925 3103 
Q 1469 3103 1208 2742 
Q 947 2381 947 1747 
z
" transform="scale(0.015625)"/>
       <path id="DejaVuSans-56" d="M 1831 0 
L 50 4666 
L 709 4666 
L 2188 738 
L 3669 4666 
L 4325 4666 
L 2547 0 
L 1831 0 
z
" transform="scale(0.015625)"/>
       <path id="DejaVuSans-3a" d="M 750 794 
L 1409 794 
L 1409 0 
L 750 0 
L 750 794 
z
M 750 3309 
L 1409 3309 
L 1409 2516 
L 750 2516 
L 750 3309 
z
" transform="scale(0.015625)"/>
       <path id="DejaVuSans-5f" d="M 3263 -1063 
L 3263 -1509 
L -63 -1509 
L -63 -1063 
L 3263 -1063 
z
" transform="scale(0.015625)"/>
      </defs>
      <use xlink:href="#DejaVuSans-53"/>
      <use xlink:href="#DejaVuSans-6f" x="63.476562"/>
      <use xlink:href="#DejaVuSans-72" x="124.658203"/>
      <use xlink:href="#DejaVuSans-74" x="165.771484"/>
      <use xlink:href="#DejaVuSans-65" x="204.980469"/>
      <use xlink:href="#DejaVuSans-64" x="266.503906"/>
      <use xlink:href="#DejaVuSans-56" x="329.980469"/>
      <use xlink:href="#DejaVuSans-65" x="390.638672"/>
      <use xlink:href="#DejaVuSans-63" x="452.162109"/>
      <use xlink:href="#DejaVuSans-3a" x="507.142578"/>
      <use xlink:href="#DejaVuSans-3a" x="540.833984"/>
      <use xlink:href="#DejaVuSans-62" x="574.525391"/>
      <use xlink:href="#DejaVuSans-69" x="638.001953"/>
      <use xlink:href="#DejaVuSans-6e" x="665.785156"/>
      <use xlink:href="#DejaVuSans-61" x="729.164062"/>
      <use xlink:href="#DejaVuSans-72" x="790.443359"/>
      <use xlink:href="#DejaVuSans-79" x="831.556641"/>
      <use xlink:href="#DejaVuSans-5f" x="890.736328"/>
      <use xlink:href="#DejaVuSans-73" x="940.736328"/>
      <use xlink:href="#DejaVuSans-65" x="992.835938"/>
      <use xlink:href="#DejaVuSans-61" x="1054.359375"/>
      <use xlink:href="#DejaVuSans-72" x="1115.638672"/>
      <use xlink:href="#DejaVuSans-63" x="1154.501953"/>
      <use xlink:href="#DejaVuSans-68" x="1209.482422"/>
      <use xlink:href="#DejaVuSans-5f" x="1272.861328"/>
      <use xlink:href="#DejaVuSans-73" x="1322.861328"/>
      <use xlink:href="#DejaVuSans-74" x="1374.960938"/>
      <use xlink:href="#DejaVuSans-64" x="1414.169922"/>
     </g>
    </g>
    <g id="line2d_74">
     <path d="M 49.603125 78.649375 
L 59.603125 78.649375 
L 69.603125 78.649375 
" style="fill: none; stroke: #1f77b4; stroke-opacity: 0.5; stroke-width: 1.5; stroke-linecap: square"/>
    </g>
    <g id="text_45">
     <!-- Eytzinger::search_prefetch&lt;4&gt; -->
     <g transform="translate(77.603125 82.149375) scale(0.1 -0.1)">
      <defs>
       <path id="DejaVuSans-45" d="M 628 4666 
L 3578 4666 
L 3578 4134 
L 1259 4134 
L 1259 2753 
L 3481 2753 
L 3481 2222 
L 1259 2222 
L 1259 531 
L 3634 531 
L 3634 0 
L 628 0 
L 628 4666 
z
" transform="scale(0.015625)"/>
       <path id="DejaVuSans-3c" d="M 4684 3150 
L 1459 2003 
L 4684 863 
L 4684 294 
L 678 1747 
L 678 2266 
L 4684 3719 
L 4684 3150 
z
" transform="scale(0.015625)"/>
       <path id="DejaVuSans-3e" d="M 678 3150 
L 678 3719 
L 4684 2266 
L 4684 1747 
L 678 294 
L 678 863 
L 3897 2003 
L 678 3150 
z
" transform="scale(0.015625)"/>
      </defs>
      <use xlink:href="#DejaVuSans-45"/>
      <use xlink:href="#DejaVuSans-79" x="63.183594"/>
      <use xlink:href="#DejaVuSans-74" x="122.363281"/>
      <use xlink:href="#DejaVuSans-7a" x="161.572266"/>
      <use xlink:href="#DejaVuSans-69" x="214.0625"/>
      <use xlink:href="#DejaVuSans-6e" x="241.845703"/>
      <use xlink:href="#DejaVuSans-67" x="305.224609"/>
      <use xlink:href="#DejaVuSans-65" x="368.701172"/>
      <use xlink:href="#DejaVuSans-72" x="430.224609"/>
      <use xlink:href="#DejaVuSans-3a" x="469.587891"/>
      <use xlink:href="#DejaVuSans-3a" x="503.279297"/>
      <use xlink:href="#DejaVuSans-73" x="536.970703"/>
      <use xlink:href="#DejaVuSans-65" x="589.070312"/>
      <use xlink:href="#DejaVuSans-61" x="650.59375"/>
      <use xlink:href="#DejaVuSans-72" x="711.873047"/>
      <use xlink:href="#DejaVuSans-63" x="750.736328"/>
      <use xlink:href="#DejaVuSans-68" x="805.716797"/>
      <use xlink:href="#DejaVuSans-5f" x="869.095703"/>
      <use xlink:href="#DejaVuSans-70" x="919.095703"/>
      <use xlink:href="#DejaVuSans-72" x="982.572266"/>
      <use xlink:href="#DejaVuSans-65" x="1021.435547"/>
      <use xlink:href="#DejaVuSans-66" x="1082.958984"/>
      <use xlink:href="#DejaVuSans-65" x="1118.164062"/>
      <use xlink:href="#DejaVuSans-74" x="1179.6875"/>
      <use xlink:href="#DejaVuSans-63" x="1218.896484"/>
      <use xlink:href="#DejaVuSans-68" x="1273.876953"/>
      <use xlink:href="#DejaVuSans-3c" x="1337.255859"/>
      <use xlink:href="#DejaVuSans-34" x="1421.044922"/>
      <use xlink:href="#DejaVuSans-3e" x="1484.667969"/>
     </g>
    </g>
    <g id="line2d_75">
     <path d="M 49.603125 93.605625 
L 59.603125 93.605625 
L 69.603125 93.605625 
" style="fill: none; stroke: #17becf; stroke-opacity: 0.5; stroke-width: 1.5; stroke-linecap: square"/>
    </g>
    <g id="text_46">
     <!-- STree&lt;&gt;::search&lt;find_popcnt&gt; -->
     <g transform="translate(77.603125 97.105625) scale(0.1 -0.1)">
      <defs>
       <path id="DejaVuSans-54" d="M -19 4666 
L 3928 4666 
L 3928 4134 
L 2272 4134 
L 2272 0 
L 1638 0 
L 1638 4134 
L -19 4134 
L -19 4666 
z
" transform="scale(0.015625)"/>
      </defs>
      <use xlink:href="#DejaVuSans-53"/>
      <use xlink:href="#DejaVuSans-54" x="63.476562"/>
      <use xlink:href="#DejaVuSans-72" x="109.810547"/>
      <use xlink:href="#DejaVuSans-65" x="148.673828"/>
      <use xlink:href="#DejaVuSans-65" x="210.197266"/>
      <use xlink:href="#DejaVuSans-3c" x="271.720703"/>
      <use xlink:href="#DejaVuSans-3e" x="355.509766"/>
      <use xlink:href="#DejaVuSans-3a" x="439.298828"/>
      <use xlink:href="#DejaVuSans-3a" x="472.990234"/>
      <use xlink:href="#DejaVuSans-73" x="506.681641"/>
      <use xlink:href="#DejaVuSans-65" x="558.78125"/>
      <use xlink:href="#DejaVuSans-61" x="620.304688"/>
      <use xlink:href="#DejaVuSans-72" x="681.583984"/>
      <use xlink:href="#DejaVuSans-63" x="720.447266"/>
      <use xlink:href="#DejaVuSans-68" x="775.427734"/>
      <use xlink:href="#DejaVuSans-3c" x="838.806641"/>
      <use xlink:href="#DejaVuSans-66" x="922.595703"/>
      <use xlink:href="#DejaVuSans-69" x="957.800781"/>
      <use xlink:href="#DejaVuSans-6e" x="985.583984"/>
      <use xlink:href="#DejaVuSans-64" x="1048.962891"/>
      <use xlink:href="#DejaVuSans-5f" x="1112.439453"/>
      <use xlink:href="#DejaVuSans-70" x="1162.439453"/>
      <use xlink:href="#DejaVuSans-6f" x="1225.916016"/>
      <use xlink:href="#DejaVuSans-70" x="1287.097656"/>
      <use xlink:href="#DejaVuSans-63" x="1350.574219"/>
      <use xlink:href="#DejaVuSans-6e" x="1405.554688"/>
      <use xlink:href="#DejaVuSans-74" x="1468.933594"/>
      <use xlink:href="#DejaVuSans-3e" x="1508.142578"/>
     </g>
    </g>
    <g id="line2d_76">
     <path d="M 49.603125 108.561875 
L 59.603125 108.561875 
L 69.603125 108.561875 
" style="fill: none; stroke: #ff7f0e; stroke-width: 1.5; stroke-linecap: square"/>
    </g>
    <g id="text_47">
     <!-- STree&lt;&gt;::batch&lt;128&gt; -->
     <g transform="translate(77.603125 112.061875) scale(0.1 -0.1)">
      <use xlink:href="#DejaVuSans-53"/>
      <use xlink:href="#DejaVuSans-54" x="63.476562"/>
      <use xlink:href="#DejaVuSans-72" x="109.810547"/>
      <use xlink:href="#DejaVuSans-65" x="148.673828"/>
      <use xlink:href="#DejaVuSans-65" x="210.197266"/>
      <use xlink:href="#DejaVuSans-3c" x="271.720703"/>
      <use xlink:href="#DejaVuSans-3e" x="355.509766"/>
      <use xlink:href="#DejaVuSans-3a" x="439.298828"/>
      <use xlink:href="#DejaVuSans-3a" x="472.990234"/>
      <use xlink:href="#DejaVuSans-62" x="506.681641"/>
      <use xlink:href="#DejaVuSans-61" x="570.158203"/>
      <use xlink:href="#DejaVuSans-74" x="631.4375"/>
      <use xlink:href="#DejaVuSans-63" x="670.646484"/>
      <use xlink:href="#DejaVuSans-68" x="725.626953"/>
      <use xlink:href="#DejaVuSans-3c" x="789.005859"/>
      <use xlink:href="#DejaVuSans-31" x="872.794922"/>
      <use xlink:href="#DejaVuSans-32" x="936.417969"/>
      <use xlink:href="#DejaVuSans-38" x="1000.041016"/>
      <use xlink:href="#DejaVuSans-3e" x="1063.664062"/>
     </g>
    </g>
    <g id="line2d_77">
     <path d="M 49.603125 123.24 
L 59.603125 123.24 
L 69.603125 123.24 
" style="fill: none; stroke: #1f77b4; stroke-width: 1.5; stroke-linecap: square"/>
    </g>
    <g id="text_48">
     <!-- STree&lt;&gt;::batch_prefetch&lt;128&gt; -->
     <g transform="translate(77.603125 126.74) scale(0.1 -0.1)">
      <use xlink:href="#DejaVuSans-53"/>
      <use xlink:href="#DejaVuSans-54" x="63.476562"/>
      <use xlink:href="#DejaVuSans-72" x="109.810547"/>
      <use xlink:href="#DejaVuSans-65" x="148.673828"/>
      <use xlink:href="#DejaVuSans-65" x="210.197266"/>
      <use xlink:href="#DejaVuSans-3c" x="271.720703"/>
      <use xlink:href="#DejaVuSans-3e" x="355.509766"/>
      <use xlink:href="#DejaVuSans-3a" x="439.298828"/>
      <use xlink:href="#DejaVuSans-3a" x="472.990234"/>
      <use xlink:href="#DejaVuSans-62" x="506.681641"/>
      <use xlink:href="#DejaVuSans-61" x="570.158203"/>
      <use xlink:href="#DejaVuSans-74" x="631.4375"/>
      <use xlink:href="#DejaVuSans-63" x="670.646484"/>
      <use xlink:href="#DejaVuSans-68" x="725.626953"/>
      <use xlink:href="#DejaVuSans-5f" x="789.005859"/>
      <use xlink:href="#DejaVuSans-70" x="839.005859"/>
      <use xlink:href="#DejaVuSans-72" x="902.482422"/>
      <use xlink:href="#DejaVuSans-65" x="941.345703"/>
      <use xlink:href="#DejaVuSans-66" x="1002.869141"/>
      <use xlink:href="#DejaVuSans-65" x="1038.074219"/>
      <use xlink:href="#DejaVuSans-74" x="1099.597656"/>
      <use xlink:href="#DejaVuSans-63" x="1138.806641"/>
      <use xlink:href="#DejaVuSans-68" x="1193.787109"/>
      <use xlink:href="#DejaVuSans-3c" x="1257.166016"/>
      <use xlink:href="#DejaVuSans-31" x="1340.955078"/>
      <use xlink:href="#DejaVuSans-32" x="1404.578125"/>
      <use xlink:href="#DejaVuSans-38" x="1468.201172"/>
      <use xlink:href="#DejaVuSans-3e" x="1531.824219"/>
     </g>
    </g>
   </g>
  </g>
 </g>
 <defs>
  <clipPath id="pfd8af475fa">
   <rect x="40.603125" y="50.594688" width="613.8" height="332.64"/>
  </clipPath>
 </defs>
</svg>
