<?xml version="1.0" encoding="utf-8" standalone="no"?>
<!DOCTYPE svg PUBLIC "-//W3C//DTD SVG 1.1//EN"
  "http://www.w3.org/Graphics/SVG/1.1/DTD/svg11.dtd">
<svg xmlns:xlink="http://www.w3.org/1999/xlink" width="661.603125pt" height="531.670938pt" viewBox="0 0 661.603125 531.670938" xmlns="http://www.w3.org/2000/svg" version="1.1">
 <metadata>
  <rdf:RDF xmlns:dc="http://purl.org/dc/elements/1.1/" xmlns:cc="http://creativecommons.org/ns#" xmlns:rdf="http://www.w3.org/1999/02/22-rdf-syntax-ns#">
   <cc:Work>
    <dc:type rdf:resource="http://purl.org/dc/dcmitype/StillImage"/>
    <dc:date>2024-12-29T00:03:42.919425</dc:date>
    <dc:format>image/svg+xml</dc:format>
    <dc:creator>
     <cc:Agent>
      <dc:title>Matplotlib v3.9.3, https://matplotlib.org/</dc:title>
     </cc:Agent>
    </dc:creator>
   </cc:Work>
  </rdf:RDF>
 </metadata>
 <defs>
  <style type="text/css">*{stroke-linejoin: round; stroke-linecap: butt}</style>
 </defs>
 <g id="figure_1">
  <g id="patch_1">
   <path d="M 0 531.670938 
L 661.603125 531.670938 
L 661.603125 0 
L 0 0 
z
" style="fill: #ffffff"/>
  </g>
  <g id="axes_1">
   <g id="patch_2">
    <path d="M 40.603125 494.114688 
L 654.403125 494.114688 
L 654.403125 50.594688 
L 40.603125 50.594688 
z
" style="fill: #ffffff"/>
   </g>
   <g id="line2d_1">
    <path d="M 287.717411 494.114688 
L 287.717411 50.594688 
" clip-path="url(#p9866bc1fde)" style="fill: none; stroke-dasharray: 5.55,2.4; stroke-dashoffset: 0; stroke: #ff0000; stroke-width: 1.5"/>
   </g>
   <g id="line2d_2">
    <path d="M 347.503125 494.114688 
L 347.503125 50.594688 
" clip-path="url(#p9866bc1fde)" style="fill: none; stroke-dasharray: 5.55,2.4; stroke-dashoffset: 0; stroke: #ff0000; stroke-width: 1.5"/>
   </g>
   <g id="line2d_3">
    <path d="M 458.803449 494.114688 
L 458.803449 50.594688 
" clip-path="url(#p9866bc1fde)" style="fill: none; stroke-dasharray: 5.55,2.4; stroke-dashoffset: 0; stroke: #ff0000; stroke-width: 1.5"/>
   </g>
   <g id="axes_2">
    <g id="patch_3">
     <path d="M 40.603125 50.594688 
L 654.403125 50.594688 
L 654.403125 50.594687 
L 40.603125 50.594687 
z
" style="fill: #ffffff"/>
    </g>
    <g id="matplotlib.axis_1">
     <g id="xtick_1">
      <g id="line2d_4">
       <defs>
        <path id="m4f004d5089" d="M 0 0 
L 0 -3.5 
" style="stroke: #000000; stroke-width: 0.8"/>
       </defs>
       <g>
        <use xlink:href="#m4f004d5089" x="68.503125" y="50.594687" style="stroke: #000000; stroke-width: 0.8"/>
       </g>
      </g>
      <g id="text_1">
       <!-- $\mathdefault{2^{2}}$ -->
       <g transform="translate(62.903125 41.515) scale(0.1 -0.1)">
        <defs>
         <path id="DejaVuSans-32" d="M 1228 531 
L 3431 531 
L 3431 0 
L 469 0 
L 469 531 
Q 828 903 1448 1529 
Q 2069 2156 2228 2338 
Q 2531 2678 2651 2914 
Q 2772 3150 2772 3378 
Q 2772 3750 2511 3984 
Q 2250 4219 1831 4219 
Q 1534 4219 1204 4116 
Q 875 4013 500 3803 
L 500 4441 
Q 881 4594 1212 4672 
Q 1544 4750 1819 4750 
Q 2544 4750 2975 4387 
Q 3406 4025 3406 3419 
Q 3406 3131 3298 2873 
Q 3191 2616 2906 2266 
Q 2828 2175 2409 1742 
Q 1991 1309 1228 531 
z
" transform="scale(0.015625)"/>
        </defs>
        <use xlink:href="#DejaVuSans-32" transform="translate(0 0.765625)"/>
        <use xlink:href="#DejaVuSans-32" transform="translate(64.580078 39.046875) scale(0.7)"/>
       </g>
      </g>
     </g>
     <g id="xtick_2">
      <g id="line2d_5">
       <g>
        <use xlink:href="#m4f004d5089" x="108.360268" y="50.594687" style="stroke: #000000; stroke-width: 0.8"/>
       </g>
      </g>
      <g id="text_2">
       <!-- $\mathdefault{2^{4}}$ -->
       <g transform="translate(102.760268 41.515) scale(0.1 -0.1)">
        <defs>
         <path id="DejaVuSans-34" d="M 2419 4116 
L 825 1625 
L 2419 1625 
L 2419 4116 
z
M 2253 4666 
L 3047 4666 
L 3047 1625 
L 3713 1625 
L 3713 1100 
L 3047 1100 
L 3047 0 
L 2419 0 
L 2419 1100 
L 313 1100 
L 313 1709 
L 2253 4666 
z
" transform="scale(0.015625)"/>
        </defs>
        <use xlink:href="#DejaVuSans-32" transform="translate(0 0.684375)"/>
        <use xlink:href="#DejaVuSans-34" transform="translate(64.580078 38.965625) scale(0.7)"/>
       </g>
      </g>
     </g>
     <g id="xtick_3">
      <g id="line2d_6">
       <g>
        <use xlink:href="#m4f004d5089" x="148.217411" y="50.594687" style="stroke: #000000; stroke-width: 0.8"/>
       </g>
      </g>
      <g id="text_3">
       <!-- $\mathdefault{2^{6}}$ -->
       <g transform="translate(142.617411 41.515) scale(0.1 -0.1)">
        <defs>
         <path id="DejaVuSans-36" d="M 2113 2584 
Q 1688 2584 1439 2293 
Q 1191 2003 1191 1497 
Q 1191 994 1439 701 
Q 1688 409 2113 409 
Q 2538 409 2786 701 
Q 3034 994 3034 1497 
Q 3034 2003 2786 2293 
Q 2538 2584 2113 2584 
z
M 3366 4563 
L 3366 3988 
Q 3128 4100 2886 4159 
Q 2644 4219 2406 4219 
Q 1781 4219 1451 3797 
Q 1122 3375 1075 2522 
Q 1259 2794 1537 2939 
Q 1816 3084 2150 3084 
Q 2853 3084 3261 2657 
Q 3669 2231 3669 1497 
Q 3669 778 3244 343 
Q 2819 -91 2113 -91 
Q 1303 -91 875 529 
Q 447 1150 447 2328 
Q 447 3434 972 4092 
Q 1497 4750 2381 4750 
Q 2619 4750 2861 4703 
Q 3103 4656 3366 4563 
z
" transform="scale(0.015625)"/>
        </defs>
        <use xlink:href="#DejaVuSans-32" transform="translate(0 0.765625)"/>
        <use xlink:href="#DejaVuSans-36" transform="translate(64.580078 39.046875) scale(0.7)"/>
       </g>
      </g>
     </g>
     <g id="xtick_4">
      <g id="line2d_7">
       <g>
        <use xlink:href="#m4f004d5089" x="188.074554" y="50.594687" style="stroke: #000000; stroke-width: 0.8"/>
       </g>
      </g>
      <g id="text_4">
       <!-- $\mathdefault{2^{8}}$ -->
       <g transform="translate(182.474554 41.515) scale(0.1 -0.1)">
        <defs>
         <path id="DejaVuSans-38" d="M 2034 2216 
Q 1584 2216 1326 1975 
Q 1069 1734 1069 1313 
Q 1069 891 1326 650 
Q 1584 409 2034 409 
Q 2484 409 2743 651 
Q 3003 894 3003 1313 
Q 3003 1734 2745 1975 
Q 2488 2216 2034 2216 
z
M 1403 2484 
Q 997 2584 770 2862 
Q 544 3141 544 3541 
Q 544 4100 942 4425 
Q 1341 4750 2034 4750 
Q 2731 4750 3128 4425 
Q 3525 4100 3525 3541 
Q 3525 3141 3298 2862 
Q 3072 2584 2669 2484 
Q 3125 2378 3379 2068 
Q 3634 1759 3634 1313 
Q 3634 634 3220 271 
Q 2806 -91 2034 -91 
Q 1263 -91 848 271 
Q 434 634 434 1313 
Q 434 1759 690 2068 
Q 947 2378 1403 2484 
z
M 1172 3481 
Q 1172 3119 1398 2916 
Q 1625 2713 2034 2713 
Q 2441 2713 2670 2916 
Q 2900 3119 2900 3481 
Q 2900 3844 2670 4047 
Q 2441 4250 2034 4250 
Q 1625 4250 1398 4047 
Q 1172 3844 1172 3481 
z
" transform="scale(0.015625)"/>
        </defs>
        <use xlink:href="#DejaVuSans-32" transform="translate(0 0.765625)"/>
        <use xlink:href="#DejaVuSans-38" transform="translate(64.580078 39.046875) scale(0.7)"/>
       </g>
      </g>
     </g>
     <g id="xtick_5">
      <g id="line2d_8">
       <g>
        <use xlink:href="#m4f004d5089" x="227.931696" y="50.594687" style="stroke: #000000; stroke-width: 0.8"/>
       </g>
      </g>
      <g id="text_5">
       <!-- $\mathdefault{2^{10}}$ -->
       <g transform="translate(220.081696 41.515) scale(0.1 -0.1)">
        <defs>
         <path id="DejaVuSans-31" d="M 794 531 
L 1825 531 
L 1825 4091 
L 703 3866 
L 703 4441 
L 1819 4666 
L 2450 4666 
L 2450 531 
L 3481 531 
L 3481 0 
L 794 0 
L 794 531 
z
" transform="scale(0.015625)"/>
         <path id="DejaVuSans-30" d="M 2034 4250 
Q 1547 4250 1301 3770 
Q 1056 3291 1056 2328 
Q 1056 1369 1301 889 
Q 1547 409 2034 409 
Q 2525 409 2770 889 
Q 3016 1369 3016 2328 
Q 3016 3291 2770 3770 
Q 2525 4250 2034 4250 
z
M 2034 4750 
Q 2819 4750 3233 4129 
Q 3647 3509 3647 2328 
Q 3647 1150 3233 529 
Q 2819 -91 2034 -91 
Q 1250 -91 836 529 
Q 422 1150 422 2328 
Q 422 3509 836 4129 
Q 1250 4750 2034 4750 
z
" transform="scale(0.015625)"/>
        </defs>
        <use xlink:href="#DejaVuSans-32" transform="translate(0 0.765625)"/>
        <use xlink:href="#DejaVuSans-31" transform="translate(64.580078 39.046875) scale(0.7)"/>
        <use xlink:href="#DejaVuSans-30" transform="translate(109.116211 39.046875) scale(0.7)"/>
       </g>
      </g>
     </g>
     <g id="xtick_6">
      <g id="line2d_9">
       <g>
        <use xlink:href="#m4f004d5089" x="267.788839" y="50.594687" style="stroke: #000000; stroke-width: 0.8"/>
       </g>
      </g>
      <g id="text_6">
       <!-- $\mathdefault{2^{12}}$ -->
       <g transform="translate(259.938839 41.515) scale(0.1 -0.1)">
        <use xlink:href="#DejaVuSans-32" transform="translate(0 0.765625)"/>
        <use xlink:href="#DejaVuSans-31" transform="translate(64.580078 39.046875) scale(0.7)"/>
        <use xlink:href="#DejaVuSans-32" transform="translate(109.116211 39.046875) scale(0.7)"/>
       </g>
      </g>
     </g>
     <g id="xtick_7">
      <g id="line2d_10">
       <g>
        <use xlink:href="#m4f004d5089" x="307.645982" y="50.594687" style="stroke: #000000; stroke-width: 0.8"/>
       </g>
      </g>
      <g id="text_7">
       <!-- $\mathdefault{2^{14}}$ -->
       <g transform="translate(299.795982 41.515) scale(0.1 -0.1)">
        <use xlink:href="#DejaVuSans-32" transform="translate(0 0.684375)"/>
        <use xlink:href="#DejaVuSans-31" transform="translate(64.580078 38.965625) scale(0.7)"/>
        <use xlink:href="#DejaVuSans-34" transform="translate(109.116211 38.965625) scale(0.7)"/>
       </g>
      </g>
     </g>
     <g id="xtick_8">
      <g id="line2d_11">
       <g>
        <use xlink:href="#m4f004d5089" x="347.503125" y="50.594687" style="stroke: #000000; stroke-width: 0.8"/>
       </g>
      </g>
      <g id="text_8">
       <!-- $\mathdefault{2^{16}}$ -->
       <g transform="translate(339.653125 41.515) scale(0.1 -0.1)">
        <use xlink:href="#DejaVuSans-32" transform="translate(0 0.765625)"/>
        <use xlink:href="#DejaVuSans-31" transform="translate(64.580078 39.046875) scale(0.7)"/>
        <use xlink:href="#DejaVuSans-36" transform="translate(109.116211 39.046875) scale(0.7)"/>
       </g>
      </g>
     </g>
     <g id="xtick_9">
      <g id="line2d_12">
       <g>
        <use xlink:href="#m4f004d5089" x="387.360268" y="50.594687" style="stroke: #000000; stroke-width: 0.8"/>
       </g>
      </g>
      <g id="text_9">
       <!-- $\mathdefault{2^{18}}$ -->
       <g transform="translate(379.510268 41.515) scale(0.1 -0.1)">
        <use xlink:href="#DejaVuSans-32" transform="translate(0 0.765625)"/>
        <use xlink:href="#DejaVuSans-31" transform="translate(64.580078 39.046875) scale(0.7)"/>
        <use xlink:href="#DejaVuSans-38" transform="translate(109.116211 39.046875) scale(0.7)"/>
       </g>
      </g>
     </g>
     <g id="xtick_10">
      <g id="line2d_13">
       <g>
        <use xlink:href="#m4f004d5089" x="427.217411" y="50.594687" style="stroke: #000000; stroke-width: 0.8"/>
       </g>
      </g>
      <g id="text_10">
       <!-- $\mathdefault{2^{20}}$ -->
       <g transform="translate(419.367411 41.515) scale(0.1 -0.1)">
        <use xlink:href="#DejaVuSans-32" transform="translate(0 0.765625)"/>
        <use xlink:href="#DejaVuSans-32" transform="translate(64.580078 39.046875) scale(0.7)"/>
        <use xlink:href="#DejaVuSans-30" transform="translate(109.116211 39.046875) scale(0.7)"/>
       </g>
      </g>
     </g>
     <g id="xtick_11">
      <g id="line2d_14">
       <g>
        <use xlink:href="#m4f004d5089" x="467.074554" y="50.594687" style="stroke: #000000; stroke-width: 0.8"/>
       </g>
      </g>
      <g id="text_11">
       <!-- $\mathdefault{2^{22}}$ -->
       <g transform="translate(459.224554 41.515) scale(0.1 -0.1)">
        <use xlink:href="#DejaVuSans-32" transform="translate(0 0.765625)"/>
        <use xlink:href="#DejaVuSans-32" transform="translate(64.580078 39.046875) scale(0.7)"/>
        <use xlink:href="#DejaVuSans-32" transform="translate(109.116211 39.046875) scale(0.7)"/>
       </g>
      </g>
     </g>
     <g id="xtick_12">
      <g id="line2d_15">
       <g>
        <use xlink:href="#m4f004d5089" x="506.931696" y="50.594687" style="stroke: #000000; stroke-width: 0.8"/>
       </g>
      </g>
      <g id="text_12">
       <!-- $\mathdefault{2^{24}}$ -->
       <g transform="translate(499.081696 41.515) scale(0.1 -0.1)">
        <use xlink:href="#DejaVuSans-32" transform="translate(0 0.765625)"/>
        <use xlink:href="#DejaVuSans-32" transform="translate(64.580078 39.046875) scale(0.7)"/>
        <use xlink:href="#DejaVuSans-34" transform="translate(109.116211 39.046875) scale(0.7)"/>
       </g>
      </g>
     </g>
     <g id="xtick_13">
      <g id="line2d_16">
       <g>
        <use xlink:href="#m4f004d5089" x="546.788839" y="50.594687" style="stroke: #000000; stroke-width: 0.8"/>
       </g>
      </g>
      <g id="text_13">
       <!-- $\mathdefault{2^{26}}$ -->
       <g transform="translate(538.938839 41.515) scale(0.1 -0.1)">
        <use xlink:href="#DejaVuSans-32" transform="translate(0 0.765625)"/>
        <use xlink:href="#DejaVuSans-32" transform="translate(64.580078 39.046875) scale(0.7)"/>
        <use xlink:href="#DejaVuSans-36" transform="translate(109.116211 39.046875) scale(0.7)"/>
       </g>
      </g>
     </g>
     <g id="xtick_14">
      <g id="line2d_17">
       <g>
        <use xlink:href="#m4f004d5089" x="586.645982" y="50.594687" style="stroke: #000000; stroke-width: 0.8"/>
       </g>
      </g>
      <g id="text_14">
       <!-- $\mathdefault{2^{28}}$ -->
       <g transform="translate(578.795982 41.515) scale(0.1 -0.1)">
        <use xlink:href="#DejaVuSans-32" transform="translate(0 0.765625)"/>
        <use xlink:href="#DejaVuSans-32" transform="translate(64.580078 39.046875) scale(0.7)"/>
        <use xlink:href="#DejaVuSans-38" transform="translate(109.116211 39.046875) scale(0.7)"/>
       </g>
      </g>
     </g>
     <g id="xtick_15">
      <g id="line2d_18">
       <g>
        <use xlink:href="#m4f004d5089" x="626.503125" y="50.594687" style="stroke: #000000; stroke-width: 0.8"/>
       </g>
      </g>
      <g id="text_15">
       <!-- $\mathdefault{2^{30}}$ -->
       <g transform="translate(618.653125 41.515) scale(0.1 -0.1)">
        <defs>
         <path id="DejaVuSans-33" d="M 2597 2516 
Q 3050 2419 3304 2112 
Q 3559 1806 3559 1356 
Q 3559 666 3084 287 
Q 2609 -91 1734 -91 
Q 1441 -91 1130 -33 
Q 819 25 488 141 
L 488 750 
Q 750 597 1062 519 
Q 1375 441 1716 441 
Q 2309 441 2620 675 
Q 2931 909 2931 1356 
Q 2931 1769 2642 2001 
Q 2353 2234 1838 2234 
L 1294 2234 
L 1294 2753 
L 1863 2753 
Q 2328 2753 2575 2939 
Q 2822 3125 2822 3475 
Q 2822 3834 2567 4026 
Q 2313 4219 1838 4219 
Q 1578 4219 1281 4162 
Q 984 4106 628 3988 
L 628 4550 
Q 988 4650 1302 4700 
Q 1616 4750 1894 4750 
Q 2613 4750 3031 4423 
Q 3450 4097 3450 3541 
Q 3450 3153 3228 2886 
Q 3006 2619 2597 2516 
z
" transform="scale(0.015625)"/>
        </defs>
        <use xlink:href="#DejaVuSans-32" transform="translate(0 0.765625)"/>
        <use xlink:href="#DejaVuSans-33" transform="translate(64.580078 39.046875) scale(0.7)"/>
        <use xlink:href="#DejaVuSans-30" transform="translate(109.116211 39.046875) scale(0.7)"/>
       </g>
      </g>
     </g>
     <g id="text_16">
      <!-- Array length (u32) -->
      <g transform="translate(301.4875 29.916562) scale(0.1 -0.1)">
       <defs>
        <path id="DejaVuSans-41" d="M 2188 4044 
L 1331 1722 
L 3047 1722 
L 2188 4044 
z
M 1831 4666 
L 2547 4666 
L 4325 0 
L 3669 0 
L 3244 1197 
L 1141 1197 
L 716 0 
L 50 0 
L 1831 4666 
z
" transform="scale(0.015625)"/>
        <path id="DejaVuSans-72" d="M 2631 2963 
Q 2534 3019 2420 3045 
Q 2306 3072 2169 3072 
Q 1681 3072 1420 2755 
Q 1159 2438 1159 1844 
L 1159 0 
L 581 0 
L 581 3500 
L 1159 3500 
L 1159 2956 
Q 1341 3275 1631 3429 
Q 1922 3584 2338 3584 
Q 2397 3584 2469 3576 
Q 2541 3569 2628 3553 
L 2631 2963 
z
" transform="scale(0.015625)"/>
        <path id="DejaVuSans-61" d="M 2194 1759 
Q 1497 1759 1228 1600 
Q 959 1441 959 1056 
Q 959 750 1161 570 
Q 1363 391 1709 391 
Q 2188 391 2477 730 
Q 2766 1069 2766 1631 
L 2766 1759 
L 2194 1759 
z
M 3341 1997 
L 3341 0 
L 2766 0 
L 2766 531 
Q 2569 213 2275 61 
Q 1981 -91 1556 -91 
Q 1019 -91 701 211 
Q 384 513 384 1019 
Q 384 1609 779 1909 
Q 1175 2209 1959 2209 
L 2766 2209 
L 2766 2266 
Q 2766 2663 2505 2880 
Q 2244 3097 1772 3097 
Q 1472 3097 1187 3025 
Q 903 2953 641 2809 
L 641 3341 
Q 956 3463 1253 3523 
Q 1550 3584 1831 3584 
Q 2591 3584 2966 3190 
Q 3341 2797 3341 1997 
z
" transform="scale(0.015625)"/>
        <path id="DejaVuSans-79" d="M 2059 -325 
Q 1816 -950 1584 -1140 
Q 1353 -1331 966 -1331 
L 506 -1331 
L 506 -850 
L 844 -850 
Q 1081 -850 1212 -737 
Q 1344 -625 1503 -206 
L 1606 56 
L 191 3500 
L 800 3500 
L 1894 763 
L 2988 3500 
L 3597 3500 
L 2059 -325 
z
" transform="scale(0.015625)"/>
        <path id="DejaVuSans-20" transform="scale(0.015625)"/>
        <path id="DejaVuSans-6c" d="M 603 4863 
L 1178 4863 
L 1178 0 
L 603 0 
L 603 4863 
z
" transform="scale(0.015625)"/>
        <path id="DejaVuSans-65" d="M 3597 1894 
L 3597 1613 
L 953 1613 
Q 991 1019 1311 708 
Q 1631 397 2203 397 
Q 2534 397 2845 478 
Q 3156 559 3463 722 
L 3463 178 
Q 3153 47 2828 -22 
Q 2503 -91 2169 -91 
Q 1331 -91 842 396 
Q 353 884 353 1716 
Q 353 2575 817 3079 
Q 1281 3584 2069 3584 
Q 2775 3584 3186 3129 
Q 3597 2675 3597 1894 
z
M 3022 2063 
Q 3016 2534 2758 2815 
Q 2500 3097 2075 3097 
Q 1594 3097 1305 2825 
Q 1016 2553 972 2059 
L 3022 2063 
z
" transform="scale(0.015625)"/>
        <path id="DejaVuSans-6e" d="M 3513 2113 
L 3513 0 
L 2938 0 
L 2938 2094 
Q 2938 2591 2744 2837 
Q 2550 3084 2163 3084 
Q 1697 3084 1428 2787 
Q 1159 2491 1159 1978 
L 1159 0 
L 581 0 
L 581 3500 
L 1159 3500 
L 1159 2956 
Q 1366 3272 1645 3428 
Q 1925 3584 2291 3584 
Q 2894 3584 3203 3211 
Q 3513 2838 3513 2113 
z
" transform="scale(0.015625)"/>
        <path id="DejaVuSans-67" d="M 2906 1791 
Q 2906 2416 2648 2759 
Q 2391 3103 1925 3103 
Q 1463 3103 1205 2759 
Q 947 2416 947 1791 
Q 947 1169 1205 825 
Q 1463 481 1925 481 
Q 2391 481 2648 825 
Q 2906 1169 2906 1791 
z
M 3481 434 
Q 3481 -459 3084 -895 
Q 2688 -1331 1869 -1331 
Q 1566 -1331 1297 -1286 
Q 1028 -1241 775 -1147 
L 775 -588 
Q 1028 -725 1275 -790 
Q 1522 -856 1778 -856 
Q 2344 -856 2625 -561 
Q 2906 -266 2906 331 
L 2906 616 
Q 2728 306 2450 153 
Q 2172 0 1784 0 
Q 1141 0 747 490 
Q 353 981 353 1791 
Q 353 2603 747 3093 
Q 1141 3584 1784 3584 
Q 2172 3584 2450 3431 
Q 2728 3278 2906 2969 
L 2906 3500 
L 3481 3500 
L 3481 434 
z
" transform="scale(0.015625)"/>
        <path id="DejaVuSans-74" d="M 1172 4494 
L 1172 3500 
L 2356 3500 
L 2356 3053 
L 1172 3053 
L 1172 1153 
Q 1172 725 1289 603 
Q 1406 481 1766 481 
L 2356 481 
L 2356 0 
L 1766 0 
Q 1100 0 847 248 
Q 594 497 594 1153 
L 594 3053 
L 172 3053 
L 172 3500 
L 594 3500 
L 594 4494 
L 1172 4494 
z
" transform="scale(0.015625)"/>
        <path id="DejaVuSans-68" d="M 3513 2113 
L 3513 0 
L 2938 0 
L 2938 2094 
Q 2938 2591 2744 2837 
Q 2550 3084 2163 3084 
Q 1697 3084 1428 2787 
Q 1159 2491 1159 1978 
L 1159 0 
L 581 0 
L 581 4863 
L 1159 4863 
L 1159 2956 
Q 1366 3272 1645 3428 
Q 1925 3584 2291 3584 
Q 2894 3584 3203 3211 
Q 3513 2838 3513 2113 
z
" transform="scale(0.015625)"/>
        <path id="DejaVuSans-28" d="M 1984 4856 
Q 1566 4138 1362 3434 
Q 1159 2731 1159 2009 
Q 1159 1288 1364 580 
Q 1569 -128 1984 -844 
L 1484 -844 
Q 1016 -109 783 600 
Q 550 1309 550 2009 
Q 550 2706 781 3412 
Q 1013 4119 1484 4856 
L 1984 4856 
z
" transform="scale(0.015625)"/>
        <path id="DejaVuSans-75" d="M 544 1381 
L 544 3500 
L 1119 3500 
L 1119 1403 
Q 1119 906 1312 657 
Q 1506 409 1894 409 
Q 2359 409 2629 706 
Q 2900 1003 2900 1516 
L 2900 3500 
L 3475 3500 
L 3475 0 
L 2900 0 
L 2900 538 
Q 2691 219 2414 64 
Q 2138 -91 1772 -91 
Q 1169 -91 856 284 
Q 544 659 544 1381 
z
M 1991 3584 
L 1991 3584 
z
" transform="scale(0.015625)"/>
        <path id="DejaVuSans-29" d="M 513 4856 
L 1013 4856 
Q 1481 4119 1714 3412 
Q 1947 2706 1947 2009 
Q 1947 1309 1714 600 
Q 1481 -109 1013 -844 
L 513 -844 
Q 928 -128 1133 580 
Q 1338 1288 1338 2009 
Q 1338 2731 1133 3434 
Q 928 4138 513 4856 
z
" transform="scale(0.015625)"/>
       </defs>
       <use xlink:href="#DejaVuSans-41"/>
       <use xlink:href="#DejaVuSans-72" x="68.408203"/>
       <use xlink:href="#DejaVuSans-72" x="107.771484"/>
       <use xlink:href="#DejaVuSans-61" x="148.884766"/>
       <use xlink:href="#DejaVuSans-79" x="210.164062"/>
       <use xlink:href="#DejaVuSans-20" x="269.34375"/>
       <use xlink:href="#DejaVuSans-6c" x="301.130859"/>
       <use xlink:href="#DejaVuSans-65" x="328.914062"/>
       <use xlink:href="#DejaVuSans-6e" x="390.4375"/>
       <use xlink:href="#DejaVuSans-67" x="453.816406"/>
       <use xlink:href="#DejaVuSans-74" x="517.292969"/>
       <use xlink:href="#DejaVuSans-68" x="556.501953"/>
       <use xlink:href="#DejaVuSans-20" x="619.880859"/>
       <use xlink:href="#DejaVuSans-28" x="651.667969"/>
       <use xlink:href="#DejaVuSans-75" x="690.681641"/>
       <use xlink:href="#DejaVuSans-33" x="754.060547"/>
       <use xlink:href="#DejaVuSans-32" x="817.683594"/>
       <use xlink:href="#DejaVuSans-29" x="881.306641"/>
      </g>
     </g>
    </g>
    <g id="matplotlib.axis_2"/>
    <g id="patch_4">
     <path d="M 40.603125 50.594687 
L 654.403125 50.594687 
" style="fill: none; stroke: #000000; stroke-width: 0.8; stroke-linejoin: miter; stroke-linecap: square"/>
    </g>
   </g>
   <g id="matplotlib.axis_3">
    <g id="xtick_16">
     <g id="line2d_19">
      <path d="M 68.503125 494.114688 
L 68.503125 50.594688 
" clip-path="url(#p9866bc1fde)" style="fill: none; stroke: #b0b0b0; stroke-opacity: 0.4; stroke-width: 0.8; stroke-linecap: square"/>
     </g>
     <g id="line2d_20">
      <defs>
       <path id="m063cbc3db2" d="M 0 0 
L 0 3.5 
" style="stroke: #000000; stroke-width: 0.8"/>
      </defs>
      <g>
       <use xlink:href="#m063cbc3db2" x="68.503125" y="494.114688" style="stroke: #000000; stroke-width: 0.8"/>
      </g>
     </g>
     <g id="text_17">
      <!-- $\mathdefault{2^{4}}$ -->
      <g transform="translate(62.903125 508.713125) scale(0.1 -0.1)">
       <use xlink:href="#DejaVuSans-32" transform="translate(0 0.684375)"/>
       <use xlink:href="#DejaVuSans-34" transform="translate(64.580078 38.965625) scale(0.7)"/>
      </g>
     </g>
    </g>
    <g id="xtick_17">
     <g id="line2d_21">
      <path d="M 108.360268 494.114688 
L 108.360268 50.594688 
" clip-path="url(#p9866bc1fde)" style="fill: none; stroke: #b0b0b0; stroke-opacity: 0.4; stroke-width: 0.8; stroke-linecap: square"/>
     </g>
     <g id="line2d_22">
      <g>
       <use xlink:href="#m063cbc3db2" x="108.360268" y="494.114688" style="stroke: #000000; stroke-width: 0.8"/>
      </g>
     </g>
     <g id="text_18">
      <!-- $\mathdefault{2^{6}}$ -->
      <g transform="translate(102.760268 508.713125) scale(0.1 -0.1)">
       <use xlink:href="#DejaVuSans-32" transform="translate(0 0.765625)"/>
       <use xlink:href="#DejaVuSans-36" transform="translate(64.580078 39.046875) scale(0.7)"/>
      </g>
     </g>
    </g>
    <g id="xtick_18">
     <g id="line2d_23">
      <path d="M 148.217411 494.114688 
L 148.217411 50.594688 
" clip-path="url(#p9866bc1fde)" style="fill: none; stroke: #b0b0b0; stroke-opacity: 0.4; stroke-width: 0.8; stroke-linecap: square"/>
     </g>
     <g id="line2d_24">
      <g>
       <use xlink:href="#m063cbc3db2" x="148.217411" y="494.114688" style="stroke: #000000; stroke-width: 0.8"/>
      </g>
     </g>
     <g id="text_19">
      <!-- $\mathdefault{2^{8}}$ -->
      <g transform="translate(142.617411 508.713125) scale(0.1 -0.1)">
       <use xlink:href="#DejaVuSans-32" transform="translate(0 0.765625)"/>
       <use xlink:href="#DejaVuSans-38" transform="translate(64.580078 39.046875) scale(0.7)"/>
      </g>
     </g>
    </g>
    <g id="xtick_19">
     <g id="line2d_25">
      <path d="M 188.074554 494.114688 
L 188.074554 50.594688 
" clip-path="url(#p9866bc1fde)" style="fill: none; stroke: #b0b0b0; stroke-opacity: 0.4; stroke-width: 0.8; stroke-linecap: square"/>
     </g>
     <g id="line2d_26">
      <g>
       <use xlink:href="#m063cbc3db2" x="188.074554" y="494.114688" style="stroke: #000000; stroke-width: 0.8"/>
      </g>
     </g>
     <g id="text_20">
      <!-- $\mathdefault{2^{10}}$ -->
      <g transform="translate(180.224554 508.713125) scale(0.1 -0.1)">
       <use xlink:href="#DejaVuSans-32" transform="translate(0 0.765625)"/>
       <use xlink:href="#DejaVuSans-31" transform="translate(64.580078 39.046875) scale(0.7)"/>
       <use xlink:href="#DejaVuSans-30" transform="translate(109.116211 39.046875) scale(0.7)"/>
      </g>
     </g>
    </g>
    <g id="xtick_20">
     <g id="line2d_27">
      <path d="M 227.931696 494.114688 
L 227.931696 50.594688 
" clip-path="url(#p9866bc1fde)" style="fill: none; stroke: #b0b0b0; stroke-opacity: 0.4; stroke-width: 0.8; stroke-linecap: square"/>
     </g>
     <g id="line2d_28">
      <g>
       <use xlink:href="#m063cbc3db2" x="227.931696" y="494.114688" style="stroke: #000000; stroke-width: 0.8"/>
      </g>
     </g>
     <g id="text_21">
      <!-- $\mathdefault{2^{12}}$ -->
      <g transform="translate(220.081696 508.713125) scale(0.1 -0.1)">
       <use xlink:href="#DejaVuSans-32" transform="translate(0 0.765625)"/>
       <use xlink:href="#DejaVuSans-31" transform="translate(64.580078 39.046875) scale(0.7)"/>
       <use xlink:href="#DejaVuSans-32" transform="translate(109.116211 39.046875) scale(0.7)"/>
      </g>
     </g>
    </g>
    <g id="xtick_21">
     <g id="line2d_29">
      <path d="M 267.788839 494.114688 
L 267.788839 50.594688 
" clip-path="url(#p9866bc1fde)" style="fill: none; stroke: #b0b0b0; stroke-opacity: 0.4; stroke-width: 0.8; stroke-linecap: square"/>
     </g>
     <g id="line2d_30">
      <g>
       <use xlink:href="#m063cbc3db2" x="267.788839" y="494.114688" style="stroke: #000000; stroke-width: 0.8"/>
      </g>
     </g>
     <g id="text_22">
      <!-- $\mathdefault{2^{14}}$ -->
      <g transform="translate(259.938839 508.713125) scale(0.1 -0.1)">
       <use xlink:href="#DejaVuSans-32" transform="translate(0 0.684375)"/>
       <use xlink:href="#DejaVuSans-31" transform="translate(64.580078 38.965625) scale(0.7)"/>
       <use xlink:href="#DejaVuSans-34" transform="translate(109.116211 38.965625) scale(0.7)"/>
      </g>
     </g>
    </g>
    <g id="xtick_22">
     <g id="line2d_31">
      <path d="M 307.645982 494.114688 
L 307.645982 50.594688 
" clip-path="url(#p9866bc1fde)" style="fill: none; stroke: #b0b0b0; stroke-opacity: 0.4; stroke-width: 0.8; stroke-linecap: square"/>
     </g>
     <g id="line2d_32">
      <g>
       <use xlink:href="#m063cbc3db2" x="307.645982" y="494.114688" style="stroke: #000000; stroke-width: 0.8"/>
      </g>
     </g>
     <g id="text_23">
      <!-- $\mathdefault{2^{16}}$ -->
      <g transform="translate(299.795982 508.713125) scale(0.1 -0.1)">
       <use xlink:href="#DejaVuSans-32" transform="translate(0 0.765625)"/>
       <use xlink:href="#DejaVuSans-31" transform="translate(64.580078 39.046875) scale(0.7)"/>
       <use xlink:href="#DejaVuSans-36" transform="translate(109.116211 39.046875) scale(0.7)"/>
      </g>
     </g>
    </g>
    <g id="xtick_23">
     <g id="line2d_33">
      <path d="M 347.503125 494.114688 
L 347.503125 50.594688 
" clip-path="url(#p9866bc1fde)" style="fill: none; stroke: #b0b0b0; stroke-opacity: 0.4; stroke-width: 0.8; stroke-linecap: square"/>
     </g>
     <g id="line2d_34">
      <g>
       <use xlink:href="#m063cbc3db2" x="347.503125" y="494.114688" style="stroke: #000000; stroke-width: 0.8"/>
      </g>
     </g>
     <g id="text_24">
      <!-- $\mathdefault{2^{18}}$ -->
      <g transform="translate(339.653125 508.713125) scale(0.1 -0.1)">
       <use xlink:href="#DejaVuSans-32" transform="translate(0 0.765625)"/>
       <use xlink:href="#DejaVuSans-31" transform="translate(64.580078 39.046875) scale(0.7)"/>
       <use xlink:href="#DejaVuSans-38" transform="translate(109.116211 39.046875) scale(0.7)"/>
      </g>
     </g>
    </g>
    <g id="xtick_24">
     <g id="line2d_35">
      <path d="M 387.360268 494.114688 
L 387.360268 50.594688 
" clip-path="url(#p9866bc1fde)" style="fill: none; stroke: #b0b0b0; stroke-opacity: 0.4; stroke-width: 0.8; stroke-linecap: square"/>
     </g>
     <g id="line2d_36">
      <g>
       <use xlink:href="#m063cbc3db2" x="387.360268" y="494.114688" style="stroke: #000000; stroke-width: 0.8"/>
      </g>
     </g>
     <g id="text_25">
      <!-- $\mathdefault{2^{20}}$ -->
      <g transform="translate(379.510268 508.713125) scale(0.1 -0.1)">
       <use xlink:href="#DejaVuSans-32" transform="translate(0 0.765625)"/>
       <use xlink:href="#DejaVuSans-32" transform="translate(64.580078 39.046875) scale(0.7)"/>
       <use xlink:href="#DejaVuSans-30" transform="translate(109.116211 39.046875) scale(0.7)"/>
      </g>
     </g>
    </g>
    <g id="xtick_25">
     <g id="line2d_37">
      <path d="M 427.217411 494.114688 
L 427.217411 50.594688 
" clip-path="url(#p9866bc1fde)" style="fill: none; stroke: #b0b0b0; stroke-opacity: 0.4; stroke-width: 0.8; stroke-linecap: square"/>
     </g>
     <g id="line2d_38">
      <g>
       <use xlink:href="#m063cbc3db2" x="427.217411" y="494.114688" style="stroke: #000000; stroke-width: 0.8"/>
      </g>
     </g>
     <g id="text_26">
      <!-- $\mathdefault{2^{22}}$ -->
      <g transform="translate(419.367411 508.713125) scale(0.1 -0.1)">
       <use xlink:href="#DejaVuSans-32" transform="translate(0 0.765625)"/>
       <use xlink:href="#DejaVuSans-32" transform="translate(64.580078 39.046875) scale(0.7)"/>
       <use xlink:href="#DejaVuSans-32" transform="translate(109.116211 39.046875) scale(0.7)"/>
      </g>
     </g>
    </g>
    <g id="xtick_26">
     <g id="line2d_39">
      <path d="M 467.074554 494.114688 
L 467.074554 50.594688 
" clip-path="url(#p9866bc1fde)" style="fill: none; stroke: #b0b0b0; stroke-opacity: 0.4; stroke-width: 0.8; stroke-linecap: square"/>
     </g>
     <g id="line2d_40">
      <g>
       <use xlink:href="#m063cbc3db2" x="467.074554" y="494.114688" style="stroke: #000000; stroke-width: 0.8"/>
      </g>
     </g>
     <g id="text_27">
      <!-- $\mathdefault{2^{24}}$ -->
      <g transform="translate(459.224554 508.713125) scale(0.1 -0.1)">
       <use xlink:href="#DejaVuSans-32" transform="translate(0 0.765625)"/>
       <use xlink:href="#DejaVuSans-32" transform="translate(64.580078 39.046875) scale(0.7)"/>
       <use xlink:href="#DejaVuSans-34" transform="translate(109.116211 39.046875) scale(0.7)"/>
      </g>
     </g>
    </g>
    <g id="xtick_27">
     <g id="line2d_41">
      <path d="M 506.931696 494.114688 
L 506.931696 50.594688 
" clip-path="url(#p9866bc1fde)" style="fill: none; stroke: #b0b0b0; stroke-opacity: 0.4; stroke-width: 0.8; stroke-linecap: square"/>
     </g>
     <g id="line2d_42">
      <g>
       <use xlink:href="#m063cbc3db2" x="506.931696" y="494.114688" style="stroke: #000000; stroke-width: 0.8"/>
      </g>
     </g>
     <g id="text_28">
      <!-- $\mathdefault{2^{26}}$ -->
      <g transform="translate(499.081696 508.713125) scale(0.1 -0.1)">
       <use xlink:href="#DejaVuSans-32" transform="translate(0 0.765625)"/>
       <use xlink:href="#DejaVuSans-32" transform="translate(64.580078 39.046875) scale(0.7)"/>
       <use xlink:href="#DejaVuSans-36" transform="translate(109.116211 39.046875) scale(0.7)"/>
      </g>
     </g>
    </g>
    <g id="xtick_28">
     <g id="line2d_43">
      <path d="M 546.788839 494.114688 
L 546.788839 50.594688 
" clip-path="url(#p9866bc1fde)" style="fill: none; stroke: #b0b0b0; stroke-opacity: 0.4; stroke-width: 0.8; stroke-linecap: square"/>
     </g>
     <g id="line2d_44">
      <g>
       <use xlink:href="#m063cbc3db2" x="546.788839" y="494.114688" style="stroke: #000000; stroke-width: 0.8"/>
      </g>
     </g>
     <g id="text_29">
      <!-- $\mathdefault{2^{28}}$ -->
      <g transform="translate(538.938839 508.713125) scale(0.1 -0.1)">
       <use xlink:href="#DejaVuSans-32" transform="translate(0 0.765625)"/>
       <use xlink:href="#DejaVuSans-32" transform="translate(64.580078 39.046875) scale(0.7)"/>
       <use xlink:href="#DejaVuSans-38" transform="translate(109.116211 39.046875) scale(0.7)"/>
      </g>
     </g>
    </g>
    <g id="xtick_29">
     <g id="line2d_45">
      <path d="M 586.645982 494.114688 
L 586.645982 50.594688 
" clip-path="url(#p9866bc1fde)" style="fill: none; stroke: #b0b0b0; stroke-opacity: 0.4; stroke-width: 0.8; stroke-linecap: square"/>
     </g>
     <g id="line2d_46">
      <g>
       <use xlink:href="#m063cbc3db2" x="586.645982" y="494.114688" style="stroke: #000000; stroke-width: 0.8"/>
      </g>
     </g>
     <g id="text_30">
      <!-- $\mathdefault{2^{30}}$ -->
      <g transform="translate(578.795982 508.713125) scale(0.1 -0.1)">
       <use xlink:href="#DejaVuSans-32" transform="translate(0 0.765625)"/>
       <use xlink:href="#DejaVuSans-33" transform="translate(64.580078 39.046875) scale(0.7)"/>
       <use xlink:href="#DejaVuSans-30" transform="translate(109.116211 39.046875) scale(0.7)"/>
      </g>
     </g>
    </g>
    <g id="xtick_30">
     <g id="line2d_47">
      <path d="M 626.503125 494.114688 
L 626.503125 50.594688 
" clip-path="url(#p9866bc1fde)" style="fill: none; stroke: #b0b0b0; stroke-opacity: 0.4; stroke-width: 0.8; stroke-linecap: square"/>
     </g>
     <g id="line2d_48">
      <g>
       <use xlink:href="#m063cbc3db2" x="626.503125" y="494.114688" style="stroke: #000000; stroke-width: 0.8"/>
      </g>
     </g>
     <g id="text_31">
      <!-- $\mathdefault{2^{32}}$ -->
      <g transform="translate(618.653125 508.713125) scale(0.1 -0.1)">
       <use xlink:href="#DejaVuSans-32" transform="translate(0 0.765625)"/>
       <use xlink:href="#DejaVuSans-33" transform="translate(64.580078 39.046875) scale(0.7)"/>
       <use xlink:href="#DejaVuSans-32" transform="translate(109.116211 39.046875) scale(0.7)"/>
      </g>
     </g>
    </g>
    <g id="text_32">
     <!-- Input size (bytes) -->
     <g transform="translate(304.007031 522.39125) scale(0.1 -0.1)">
      <defs>
       <path id="DejaVuSans-49" d="M 628 4666 
L 1259 4666 
L 1259 0 
L 628 0 
L 628 4666 
z
" transform="scale(0.015625)"/>
       <path id="DejaVuSans-70" d="M 1159 525 
L 1159 -1331 
L 581 -1331 
L 581 3500 
L 1159 3500 
L 1159 2969 
Q 1341 3281 1617 3432 
Q 1894 3584 2278 3584 
Q 2916 3584 3314 3078 
Q 3713 2572 3713 1747 
Q 3713 922 3314 415 
Q 2916 -91 2278 -91 
Q 1894 -91 1617 61 
Q 1341 213 1159 525 
z
M 3116 1747 
Q 3116 2381 2855 2742 
Q 2594 3103 2138 3103 
Q 1681 3103 1420 2742 
Q 1159 2381 1159 1747 
Q 1159 1113 1420 752 
Q 1681 391 2138 391 
Q 2594 391 2855 752 
Q 3116 1113 3116 1747 
z
" transform="scale(0.015625)"/>
       <path id="DejaVuSans-73" d="M 2834 3397 
L 2834 2853 
Q 2591 2978 2328 3040 
Q 2066 3103 1784 3103 
Q 1356 3103 1142 2972 
Q 928 2841 928 2578 
Q 928 2378 1081 2264 
Q 1234 2150 1697 2047 
L 1894 2003 
Q 2506 1872 2764 1633 
Q 3022 1394 3022 966 
Q 3022 478 2636 193 
Q 2250 -91 1575 -91 
Q 1294 -91 989 -36 
Q 684 19 347 128 
L 347 722 
Q 666 556 975 473 
Q 1284 391 1588 391 
Q 1994 391 2212 530 
Q 2431 669 2431 922 
Q 2431 1156 2273 1281 
Q 2116 1406 1581 1522 
L 1381 1569 
Q 847 1681 609 1914 
Q 372 2147 372 2553 
Q 372 3047 722 3315 
Q 1072 3584 1716 3584 
Q 2034 3584 2315 3537 
Q 2597 3491 2834 3397 
z
" transform="scale(0.015625)"/>
       <path id="DejaVuSans-69" d="M 603 3500 
L 1178 3500 
L 1178 0 
L 603 0 
L 603 3500 
z
M 603 4863 
L 1178 4863 
L 1178 4134 
L 603 4134 
L 603 4863 
z
" transform="scale(0.015625)"/>
       <path id="DejaVuSans-7a" d="M 353 3500 
L 3084 3500 
L 3084 2975 
L 922 459 
L 3084 459 
L 3084 0 
L 275 0 
L 275 525 
L 2438 3041 
L 353 3041 
L 353 3500 
z
" transform="scale(0.015625)"/>
       <path id="DejaVuSans-62" d="M 3116 1747 
Q 3116 2381 2855 2742 
Q 2594 3103 2138 3103 
Q 1681 3103 1420 2742 
Q 1159 2381 1159 1747 
Q 1159 1113 1420 752 
Q 1681 391 2138 391 
Q 2594 391 2855 752 
Q 3116 1113 3116 1747 
z
M 1159 2969 
Q 1341 3281 1617 3432 
Q 1894 3584 2278 3584 
Q 2916 3584 3314 3078 
Q 3713 2572 3713 1747 
Q 3713 922 3314 415 
Q 2916 -91 2278 -91 
Q 1894 -91 1617 61 
Q 1341 213 1159 525 
L 1159 0 
L 581 0 
L 581 4863 
L 1159 4863 
L 1159 2969 
z
" transform="scale(0.015625)"/>
      </defs>
      <use xlink:href="#DejaVuSans-49"/>
      <use xlink:href="#DejaVuSans-6e" x="29.492188"/>
      <use xlink:href="#DejaVuSans-70" x="92.871094"/>
      <use xlink:href="#DejaVuSans-75" x="156.347656"/>
      <use xlink:href="#DejaVuSans-74" x="219.726562"/>
      <use xlink:href="#DejaVuSans-20" x="258.935547"/>
      <use xlink:href="#DejaVuSans-73" x="290.722656"/>
      <use xlink:href="#DejaVuSans-69" x="342.822266"/>
      <use xlink:href="#DejaVuSans-7a" x="370.605469"/>
      <use xlink:href="#DejaVuSans-65" x="423.095703"/>
      <use xlink:href="#DejaVuSans-20" x="484.619141"/>
      <use xlink:href="#DejaVuSans-28" x="516.40625"/>
      <use xlink:href="#DejaVuSans-62" x="555.419922"/>
      <use xlink:href="#DejaVuSans-79" x="618.896484"/>
      <use xlink:href="#DejaVuSans-74" x="678.076172"/>
      <use xlink:href="#DejaVuSans-65" x="717.285156"/>
      <use xlink:href="#DejaVuSans-73" x="778.808594"/>
      <use xlink:href="#DejaVuSans-29" x="830.908203"/>
     </g>
    </g>
   </g>
   <g id="matplotlib.axis_4">
    <g id="ytick_1">
     <g id="line2d_49">
      <path d="M 40.603125 494.114688 
L 654.403125 494.114688 
" clip-path="url(#p9866bc1fde)" style="fill: none; stroke: #b0b0b0; stroke-opacity: 0.4; stroke-width: 0.8; stroke-linecap: square"/>
     </g>
     <g id="line2d_50">
      <defs>
       <path id="m93d4fe0aba" d="M 0 0 
L -3.5 0 
" style="stroke: #000000; stroke-width: 0.8"/>
      </defs>
      <g>
       <use xlink:href="#m93d4fe0aba" x="40.603125" y="494.114688" style="stroke: #000000; stroke-width: 0.8"/>
      </g>
     </g>
     <g id="text_33">
      <!-- 0 -->
      <g transform="translate(27.240625 497.913906) scale(0.1 -0.1)">
       <use xlink:href="#DejaVuSans-30"/>
      </g>
     </g>
    </g>
    <g id="ytick_2">
     <g id="line2d_51">
      <path d="M 40.603125 420.194688 
L 654.403125 420.194688 
" clip-path="url(#p9866bc1fde)" style="fill: none; stroke: #b0b0b0; stroke-opacity: 0.4; stroke-width: 0.8; stroke-linecap: square"/>
     </g>
     <g id="line2d_52">
      <g>
       <use xlink:href="#m93d4fe0aba" x="40.603125" y="420.194688" style="stroke: #000000; stroke-width: 0.8"/>
      </g>
     </g>
     <g id="text_34">
      <!-- 5 -->
      <g transform="translate(27.240625 423.993906) scale(0.1 -0.1)">
       <defs>
        <path id="DejaVuSans-35" d="M 691 4666 
L 3169 4666 
L 3169 4134 
L 1269 4134 
L 1269 2991 
Q 1406 3038 1543 3061 
Q 1681 3084 1819 3084 
Q 2600 3084 3056 2656 
Q 3513 2228 3513 1497 
Q 3513 744 3044 326 
Q 2575 -91 1722 -91 
Q 1428 -91 1123 -41 
Q 819 9 494 109 
L 494 744 
Q 775 591 1075 516 
Q 1375 441 1709 441 
Q 2250 441 2565 725 
Q 2881 1009 2881 1497 
Q 2881 1984 2565 2268 
Q 2250 2553 1709 2553 
Q 1456 2553 1204 2497 
Q 953 2441 691 2322 
L 691 4666 
z
" transform="scale(0.015625)"/>
       </defs>
       <use xlink:href="#DejaVuSans-35"/>
      </g>
     </g>
    </g>
    <g id="ytick_3">
     <g id="line2d_53">
      <path d="M 40.603125 346.274688 
L 654.403125 346.274688 
" clip-path="url(#p9866bc1fde)" style="fill: none; stroke: #b0b0b0; stroke-opacity: 0.4; stroke-width: 0.8; stroke-linecap: square"/>
     </g>
     <g id="line2d_54">
      <g>
       <use xlink:href="#m93d4fe0aba" x="40.603125" y="346.274688" style="stroke: #000000; stroke-width: 0.8"/>
      </g>
     </g>
     <g id="text_35">
      <!-- 10 -->
      <g transform="translate(20.878125 350.073906) scale(0.1 -0.1)">
       <use xlink:href="#DejaVuSans-31"/>
       <use xlink:href="#DejaVuSans-30" x="63.623047"/>
      </g>
     </g>
    </g>
    <g id="ytick_4">
     <g id="line2d_55">
      <path d="M 40.603125 272.354688 
L 654.403125 272.354688 
" clip-path="url(#p9866bc1fde)" style="fill: none; stroke: #b0b0b0; stroke-opacity: 0.4; stroke-width: 0.8; stroke-linecap: square"/>
     </g>
     <g id="line2d_56">
      <g>
       <use xlink:href="#m93d4fe0aba" x="40.603125" y="272.354688" style="stroke: #000000; stroke-width: 0.8"/>
      </g>
     </g>
     <g id="text_36">
      <!-- 15 -->
      <g transform="translate(20.878125 276.153906) scale(0.1 -0.1)">
       <use xlink:href="#DejaVuSans-31"/>
       <use xlink:href="#DejaVuSans-35" x="63.623047"/>
      </g>
     </g>
    </g>
    <g id="ytick_5">
     <g id="line2d_57">
      <path d="M 40.603125 198.434688 
L 654.403125 198.434688 
" clip-path="url(#p9866bc1fde)" style="fill: none; stroke: #b0b0b0; stroke-opacity: 0.4; stroke-width: 0.8; stroke-linecap: square"/>
     </g>
     <g id="line2d_58">
      <g>
       <use xlink:href="#m93d4fe0aba" x="40.603125" y="198.434688" style="stroke: #000000; stroke-width: 0.8"/>
      </g>
     </g>
     <g id="text_37">
      <!-- 20 -->
      <g transform="translate(20.878125 202.233906) scale(0.1 -0.1)">
       <use xlink:href="#DejaVuSans-32"/>
       <use xlink:href="#DejaVuSans-30" x="63.623047"/>
      </g>
     </g>
    </g>
    <g id="ytick_6">
     <g id="line2d_59">
      <path d="M 40.603125 124.514688 
L 654.403125 124.514688 
" clip-path="url(#p9866bc1fde)" style="fill: none; stroke: #b0b0b0; stroke-opacity: 0.4; stroke-width: 0.8; stroke-linecap: square"/>
     </g>
     <g id="line2d_60">
      <g>
       <use xlink:href="#m93d4fe0aba" x="40.603125" y="124.514688" style="stroke: #000000; stroke-width: 0.8"/>
      </g>
     </g>
     <g id="text_38">
      <!-- 25 -->
      <g transform="translate(20.878125 128.313906) scale(0.1 -0.1)">
       <use xlink:href="#DejaVuSans-32"/>
       <use xlink:href="#DejaVuSans-35" x="63.623047"/>
      </g>
     </g>
    </g>
    <g id="ytick_7">
     <g id="line2d_61">
      <path d="M 40.603125 50.594688 
L 654.403125 50.594688 
" clip-path="url(#p9866bc1fde)" style="fill: none; stroke: #b0b0b0; stroke-opacity: 0.4; stroke-width: 0.8; stroke-linecap: square"/>
     </g>
     <g id="line2d_62">
      <g>
       <use xlink:href="#m93d4fe0aba" x="40.603125" y="50.594688" style="stroke: #000000; stroke-width: 0.8"/>
      </g>
     </g>
     <g id="text_39">
      <!-- 30 -->
      <g transform="translate(20.878125 54.393906) scale(0.1 -0.1)">
       <use xlink:href="#DejaVuSans-33"/>
       <use xlink:href="#DejaVuSans-30" x="63.623047"/>
      </g>
     </g>
    </g>
    <g id="text_40">
     <!-- Inverse throughput (ns) -->
     <g transform="translate(14.798438 331.570313) rotate(-90) scale(0.1 -0.1)">
      <defs>
       <path id="DejaVuSans-76" d="M 191 3500 
L 800 3500 
L 1894 563 
L 2988 3500 
L 3597 3500 
L 2284 0 
L 1503 0 
L 191 3500 
z
" transform="scale(0.015625)"/>
       <path id="DejaVuSans-6f" d="M 1959 3097 
Q 1497 3097 1228 2736 
Q 959 2375 959 1747 
Q 959 1119 1226 758 
Q 1494 397 1959 397 
Q 2419 397 2687 759 
Q 2956 1122 2956 1747 
Q 2956 2369 2687 2733 
Q 2419 3097 1959 3097 
z
M 1959 3584 
Q 2709 3584 3137 3096 
Q 3566 2609 3566 1747 
Q 3566 888 3137 398 
Q 2709 -91 1959 -91 
Q 1206 -91 779 398 
Q 353 888 353 1747 
Q 353 2609 779 3096 
Q 1206 3584 1959 3584 
z
" transform="scale(0.015625)"/>
      </defs>
      <use xlink:href="#DejaVuSans-49"/>
      <use xlink:href="#DejaVuSans-6e" x="29.492188"/>
      <use xlink:href="#DejaVuSans-76" x="92.871094"/>
      <use xlink:href="#DejaVuSans-65" x="152.050781"/>
      <use xlink:href="#DejaVuSans-72" x="213.574219"/>
      <use xlink:href="#DejaVuSans-73" x="254.6875"/>
      <use xlink:href="#DejaVuSans-65" x="306.787109"/>
      <use xlink:href="#DejaVuSans-20" x="368.310547"/>
      <use xlink:href="#DejaVuSans-74" x="400.097656"/>
      <use xlink:href="#DejaVuSans-68" x="439.306641"/>
      <use xlink:href="#DejaVuSans-72" x="502.685547"/>
      <use xlink:href="#DejaVuSans-6f" x="541.548828"/>
      <use xlink:href="#DejaVuSans-75" x="602.730469"/>
      <use xlink:href="#DejaVuSans-67" x="666.109375"/>
      <use xlink:href="#DejaVuSans-68" x="729.585938"/>
      <use xlink:href="#DejaVuSans-70" x="792.964844"/>
      <use xlink:href="#DejaVuSans-75" x="856.441406"/>
      <use xlink:href="#DejaVuSans-74" x="919.820312"/>
      <use xlink:href="#DejaVuSans-20" x="959.029297"/>
      <use xlink:href="#DejaVuSans-28" x="990.816406"/>
      <use xlink:href="#DejaVuSans-6e" x="1029.830078"/>
      <use xlink:href="#DejaVuSans-73" x="1093.208984"/>
      <use xlink:href="#DejaVuSans-29" x="1145.308594"/>
     </g>
    </g>
   </g>
   <g id="line2d_63">
    <path d="M 68.503125 437.506229 
L 74.918692 420.707716 
L 80.160592 420.434788 
L 84.592555 420.568268 
L 88.431696 420.208043 
L 94.847263 398.612232 
L 100.089163 397.954097 
L 104.521127 398.418594 
L 108.360268 398.216536 
L 114.775835 374.123454 
L 120.017735 374.213189 
L 124.449698 373.435788 
L 128.288839 373.664985 
L 134.704406 351.592651 
L 139.946306 351.651362 
L 144.37827 351.929992 
L 148.217411 351.762223 
L 154.632978 327.032325 
L 159.874878 327.289046 
L 164.306841 327.241106 
L 168.145982 326.855589 
L 174.561549 289.093043 
L 179.803449 289.616693 
L 184.235412 289.498105 
L 188.074554 288.666647 
L 194.490121 259.275295 
L 199.732021 259.392154 
L 204.163984 259.535798 
L 208.003125 258.890265 
L 214.418692 232.198995 
L 219.660592 231.861818 
L 224.092555 232.58107 
L 227.931696 232.304243 
L 234.347263 207.359242 
L 239.589163 207.28626 
L 244.021127 207.175916 
L 247.860268 207.04876 
L 254.275835 180.219002 
L 259.517735 180.0299 
L 263.949698 179.837917 
L 267.788839 179.64558 
L 274.204406 152.166108 
L 279.446306 151.365956 
L 283.87827 148.987377 
L 287.717411 145.579861 
L 294.132978 100.389503 
L 299.374878 92.271351 
L 303.806841 85.414599 
L 307.645982 19.170207 
L 314.061549 21.58479 
L 319.303449 5.878489 
L 323.735412 6.390246 
L 324.023055 -1 
" clip-path="url(#p9866bc1fde)" style="fill: none; stroke: #1f77b4; stroke-opacity: 0.3; stroke-width: 0.5; stroke-linecap: square"/>
   </g>
   <g id="line2d_64">
    <path d="M 68.503125 331.537978 
L 74.918692 359.743202 
L 80.160592 436.757414 
L 84.592555 436.009205 
L 88.431696 356.334223 
L 94.847263 329.465434 
L 100.089163 356.804777 
L 104.521127 421.12928 
L 108.360268 391.232893 
L 114.775835 295.459622 
L 120.017735 318.627536 
L 124.449698 383.076049 
L 128.288839 305.421741 
L 134.704406 283.884344 
L 139.946306 290.612626 
L 144.37827 344.121701 
L 148.217411 308.431935 
L 154.632978 239.97307 
L 159.874878 284.107367 
L 164.306841 314.80076 
L 168.145982 327.450537 
L 174.561549 225.59592 
L 179.803449 260.878718 
L 184.235412 293.147627 
L 188.074554 317.693076 
L 194.490121 201.160225 
L 199.732021 229.872877 
L 204.163984 272.55942 
L 208.003125 297.735746 
L 214.418692 173.89503 
L 219.660592 197.564596 
L 224.092555 240.534408 
L 227.931696 267.344458 
L 234.347263 148.780797 
L 239.589163 169.243636 
L 244.021127 210.10267 
L 247.860268 238.595403 
L 254.275835 120.749163 
L 259.517735 139.439199 
L 263.949698 182.00906 
L 267.788839 210.509948 
L 274.204406 88.928086 
L 279.446306 96.631809 
L 283.87827 146.29932 
L 287.717411 182.950168 
L 294.132978 46.749415 
L 299.374878 59.318409 
L 303.806841 111.78246 
L 307.645982 145.737066 
L 314.061549 4.571306 
L 319.303449 19.402463 
L 323.735412 77.329421 
L 327.574554 114.026215 
L 332.430805 -1 
M 340.894204 -1 
L 343.663984 35.213391 
L 347.503125 72.755205 
L 350.696599 -1 
M 364.894925 -1 
L 367.431696 23.679391 
L 368.42161 -1 
" clip-path="url(#p9866bc1fde)" style="fill: none; stroke: #1f77b4; stroke-opacity: 0.3; stroke-width: 0.5; stroke-linecap: square"/>
   </g>
   <g id="line2d_65">
    <path d="M 68.503125 444.122349 
L 74.918692 444.014103 
L 80.160592 444.172904 
L 84.592555 444.820017 
L 88.431696 444.118094 
L 94.847263 444.212291 
L 100.089163 444.118493 
L 104.521127 444.017323 
L 108.360268 444.273276 
L 114.775835 403.949652 
L 120.017735 404.10219 
L 124.449698 404.71299 
L 128.288839 403.96187 
L 134.704406 404.142182 
L 139.946306 404.671638 
L 144.37827 404.732978 
L 148.217411 404.65128 
L 154.632978 403.908759 
L 159.874878 404.131752 
L 164.306841 404.717363 
L 168.145982 403.958738 
L 174.561549 403.977235 
L 179.803449 403.892405 
L 184.235412 404.618764 
L 188.074554 403.977412 
L 194.490121 355.192653 
L 199.732021 354.59184 
L 204.163984 355.071967 
L 208.003125 354.559235 
L 214.418692 354.497776 
L 219.660592 354.489252 
L 224.092555 354.535198 
L 227.931696 354.71449 
L 234.347263 354.660788 
L 239.589163 354.494881 
L 244.021127 354.619319 
L 247.860268 354.475424 
L 254.275835 354.613247 
L 259.517735 354.277369 
L 263.949698 354.096703 
L 267.788839 353.725546 
L 274.204406 294.857775 
L 279.446306 293.74098 
L 283.87827 292.10015 
L 287.717411 291.028458 
L 294.132978 287.601131 
L 299.374878 286.292456 
L 303.806841 284.548373 
L 307.645982 283.906859 
L 314.061549 282.511227 
L 319.303449 280.731525 
L 323.735412 279.349337 
L 327.574554 277.816118 
L 333.990121 273.732961 
L 339.232021 269.977482 
L 343.663984 265.670727 
L 347.503125 259.631472 
L 353.918692 169.951217 
L 359.160592 160.6285 
L 363.592555 154.309359 
L 367.431696 151.549976 
L 373.847263 143.646528 
L 379.089163 138.4486 
L 383.521127 134.82663 
L 387.360268 129.258032 
L 393.775835 120.81755 
L 399.017735 114.211107 
L 403.449698 105.725491 
L 407.288839 106.226597 
L 413.704406 96.519293 
L 418.946306 85.698178 
L 423.37827 84.724376 
L 427.217411 75.472808 
L 433.632978 66.852325 
L 438.874878 -0.277567 
L 439.088357 -1 
" clip-path="url(#p9866bc1fde)" style="fill: none; stroke: #e377c2; stroke-opacity: 0.3; stroke-width: 0.5; stroke-linecap: square"/>
   </g>
   <g id="line2d_66">
    <path d="M 68.503125 452.858421 
L 74.918692 452.701807 
L 80.160592 452.88788 
L 84.592555 453.492165 
L 88.431696 453.23506 
L 94.847263 453.240747 
L 100.089163 453.411826 
L 104.521127 452.93127 
L 108.360268 452.444391 
L 114.775835 423.549211 
L 120.017735 422.613347 
L 124.449698 423.737796 
L 128.288839 422.685369 
L 134.704406 423.268424 
L 139.946306 423.360138 
L 144.37827 423.220853 
L 148.217411 423.004567 
L 154.632978 423.029342 
L 159.874878 423.335141 
L 164.306841 423.120303 
L 168.145982 423.012028 
L 174.561549 423.910986 
L 179.803449 423.9049 
L 184.235412 423.473969 
L 188.074554 423.125637 
L 194.490121 392.208704 
L 199.732021 392.248651 
L 204.163984 392.906727 
L 208.003125 392.089584 
L 214.418692 391.943444 
L 219.660592 392.332034 
L 224.092555 391.761344 
L 227.931696 392.293696 
L 234.347263 391.765259 
L 239.589163 391.734146 
L 244.021127 391.97503 
L 247.860268 391.664415 
L 254.275835 391.338627 
L 259.517735 391.631647 
L 263.949698 392.2259 
L 267.788839 391.323159 
L 274.204406 361.729867 
L 279.446306 360.226151 
L 283.87827 360.110725 
L 287.717411 358.352858 
L 294.132978 357.204152 
L 299.374878 355.275001 
L 303.806841 355.392584 
L 307.645982 354.133474 
L 314.061549 353.614788 
L 319.303449 352.625622 
L 323.735412 351.394523 
L 327.574554 350.667351 
L 333.990121 349.035932 
L 339.232021 347.559976 
L 343.663984 345.399898 
L 347.503125 343.01179 
L 353.918692 307.107423 
L 359.160592 302.681991 
L 363.592555 299.253792 
L 367.431696 295.649389 
L 373.847263 293.523882 
L 379.089163 289.476211 
L 383.521127 284.954721 
L 387.360268 284.127621 
L 393.775835 284.586799 
L 399.017735 277.216384 
L 403.449698 274.140358 
L 407.288839 277.188048 
L 413.704406 273.016412 
L 418.946306 265.342679 
L 423.37827 264.178062 
L 427.217411 265.326458 
L 433.632978 256.834165 
L 438.874878 223.428899 
L 443.306841 218.555606 
L 447.145982 210.092284 
L 453.561549 182.432191 
L 458.803449 162.235543 
L 463.235412 159.71267 
L 467.074554 145.94991 
L 473.490121 123.421338 
L 478.732021 105.818047 
L 483.163984 99.465222 
L 487.003125 85.532551 
L 493.418692 69.524337 
L 498.660592 54.024364 
L 503.092555 49.184754 
L 506.931696 35.094242 
L 513.347263 6.620227 
L 514.093591 -1 
" clip-path="url(#p9866bc1fde)" style="fill: none; stroke: #17becf; stroke-opacity: 0.3; stroke-width: 0.5; stroke-linecap: square"/>
   </g>
   <g id="line2d_67">
    <path d="M 68.503125 453.616765 
L 74.918692 452.791128 
L 80.160592 453.068207 
L 84.592555 453.685388 
L 88.431696 452.706401 
L 94.847263 453.114862 
L 100.089163 452.604773 
L 104.521127 453.040979 
L 108.360268 453.187429 
L 114.775835 418.310241 
L 120.017735 417.630848 
L 124.449698 418.236284 
L 128.288839 418.218408 
L 134.704406 417.347224 
L 139.946306 417.26854 
L 144.37827 418.7857 
L 148.217411 417.743511 
L 154.632978 417.755862 
L 159.874878 417.48682 
L 164.306841 418.710679 
L 168.145982 417.809283 
L 174.561549 418.551789 
L 179.803449 418.810992 
L 184.235412 418.751839 
L 188.074554 417.83558 
L 194.490121 381.40155 
L 199.732021 381.436992 
L 204.163984 382.059182 
L 208.003125 381.655877 
L 214.418692 382.095599 
L 219.660592 381.415673 
L 224.092555 382.236524 
L 227.931696 381.889817 
L 234.347263 381.702946 
L 239.589163 381.799713 
L 244.021127 382.006381 
L 247.860268 381.611837 
L 254.275835 381.080549 
L 259.517735 381.110288 
L 263.949698 381.144563 
L 267.788839 381.775189 
L 274.204406 346.873698 
L 279.446306 346.505422 
L 283.87827 346.573557 
L 287.717411 346.249055 
L 294.132978 346.106003 
L 299.374878 345.615253 
L 303.806841 346.340932 
L 307.645982 345.259889 
L 314.061549 345.59977 
L 319.303449 345.54824 
L 323.735412 345.955135 
L 327.574554 344.583317 
L 333.990121 344.997539 
L 339.232021 344.5988 
L 343.663984 344.057879 
L 347.503125 343.969784 
L 353.918692 308.388634 
L 359.160592 306.871962 
L 363.592555 306.8368 
L 367.431696 306.044108 
L 373.847263 306.172387 
L 379.089163 305.527446 
L 383.521127 304.670488 
L 387.360268 304.273935 
L 393.775835 305.126535 
L 399.017735 304.456404 
L 403.449698 303.360351 
L 407.288839 304.196935 
L 413.704406 305.478885 
L 418.946306 302.709057 
L 423.37827 303.101414 
L 427.217411 303.055882 
L 433.632978 302.696366 
L 438.874878 267.082256 
L 443.306841 265.338676 
L 447.145982 263.95009 
L 453.561549 252.249621 
L 458.803449 238.149314 
L 463.235412 235.488529 
L 467.074554 228.362971 
L 473.490121 213.379395 
L 478.732021 200.394657 
L 483.163984 192.769367 
L 487.003125 190.477671 
L 493.418692 183.55952 
L 498.660592 177.099424 
L 503.092555 171.120016 
L 506.931696 166.321773 
L 513.347263 158.350057 
L 518.589163 111.85098 
L 523.021127 106.016117 
L 526.860268 97.246287 
L 533.275835 88.58717 
L 538.517735 81.79848 
L 542.949698 77.279472 
L 546.788839 72.431397 
L 553.204406 66.569233 
L 558.446306 60.153147 
L 562.87827 54.993423 
L 566.717411 49.960723 
L 573.132978 42.735635 
L 578.374878 41.540022 
L 582.806841 40.024207 
L 586.645982 39.990523 
L 593.061549 33.946097 
L 597.568537 -1 
" clip-path="url(#p9866bc1fde)" style="fill: none; stroke: #7f7f7f; stroke-opacity: 0.3; stroke-width: 0.5; stroke-linecap: square"/>
   </g>
   <g id="line2d_68">
    <path d="M 68.503125 456.175745 
L 74.918692 455.483986 
L 80.160592 455.37373 
L 84.592555 455.857566 
L 88.431696 455.63085 
L 94.847263 455.925938 
L 100.089163 455.457762 
L 104.521127 455.471768 
L 108.360268 455.479302 
L 114.775835 430.640243 
L 120.017735 431.027858 
L 124.449698 431.075591 
L 128.288839 431.161382 
L 134.704406 431.09685 
L 139.946306 430.480939 
L 144.37827 430.335404 
L 148.217411 430.46426 
L 154.632978 430.612498 
L 159.874878 431.258769 
L 164.306841 430.80553 
L 168.145982 430.593026 
L 174.561549 430.504444 
L 179.803449 430.437918 
L 184.235412 431.176081 
L 188.074554 430.495447 
L 194.490121 406.103835 
L 199.732021 405.995707 
L 204.163984 406.314344 
L 208.003125 406.065911 
L 214.418692 405.826446 
L 219.660592 405.735574 
L 224.092555 404.5952 
L 227.931696 405.360502 
L 234.347263 405.184622 
L 239.589163 405.848784 
L 244.021127 405.099585 
L 247.860268 404.983952 
L 254.275835 405.047877 
L 259.517735 405.09697 
L 263.949698 405.617828 
L 267.788839 404.803345 
L 274.204406 379.395 
L 279.446306 379.322446 
L 283.87827 378.815136 
L 287.717411 378.825462 
L 294.132978 378.041664 
L 299.374878 378.274319 
L 303.806841 378.004833 
L 307.645982 378.107436 
L 314.061549 378.095883 
L 319.303449 377.510479 
L 323.735412 377.594571 
L 327.574554 377.083241 
L 333.990121 376.935107 
L 339.232021 376.708332 
L 343.663984 376.88591 
L 347.503125 376.313759 
L 353.918692 349.941066 
L 359.160592 348.859299 
L 363.592555 347.734024 
L 367.431696 346.993689 
L 373.847263 344.898128 
L 379.089163 344.778019 
L 383.521127 342.467767 
L 387.360268 341.673288 
L 393.775835 342.716451 
L 399.017735 340.021865 
L 403.449698 340.679379 
L 407.288839 340.916421 
L 413.704406 339.943417 
L 418.946306 338.380518 
L 423.37827 336.320162 
L 427.217411 339.812582 
L 433.632978 335.442108 
L 438.874878 309.13179 
L 443.306841 309.563268 
L 447.145982 305.837898 
L 453.561549 290.812379 
L 458.803449 272.585023 
L 463.235412 270.896149 
L 467.074554 266.280744 
L 473.490121 251.622364 
L 478.732021 240.618869 
L 483.163984 233.777052 
L 487.003125 227.173076 
L 493.418692 218.202945 
L 498.660592 211.227014 
L 503.092555 205.91329 
L 506.931696 199.915032 
L 513.347263 190.655664 
L 518.589163 157.516855 
L 523.021127 146.857954 
L 526.860268 142.07054 
L 533.275835 133.796009 
L 538.517735 125.032414 
L 542.949698 125.081329 
L 546.788839 121.845556 
L 553.204406 110.716929 
L 558.446306 107.99804 
L 562.87827 100.874181 
L 566.717411 98.730827 
L 573.132978 88.167674 
L 578.374878 86.483646 
L 582.806841 81.602774 
L 586.645982 76.815285 
L 593.061549 68.344916 
L 598.303449 39.972573 
L 602.735412 37.975685 
L 606.574554 32.719947 
L 612.990121 25.742214 
L 618.232021 13.268657 
L 622.663984 4.166465 
L 625.143124 -1 
" clip-path="url(#p9866bc1fde)" style="fill: none; stroke: #7f7f7f; stroke-width: 2; stroke-linecap: square"/>
   </g>
   <g id="line2d_69">
    <path d="M 68.503125 455.952826 
L 74.918692 455.88794 
L 80.160592 455.93752 
L 84.592555 455.673546 
L 88.431696 455.24418 
L 94.847263 455.452784 
L 100.089163 455.274304 
L 104.521127 455.80246 
L 108.360268 455.968855 
L 114.775835 430.735961 
L 120.017735 431.120651 
L 124.449698 431.563371 
L 128.288839 430.815192 
L 134.704406 431.541166 
L 139.946306 430.637909 
L 144.37827 430.668431 
L 148.217411 431.119631 
L 154.632978 431.151971 
L 159.874878 431.143698 
L 164.306841 431.341871 
L 168.145982 431.293428 
L 174.561549 431.111048 
L 179.803449 430.65119 
L 184.235412 431.01109 
L 188.074554 431.200088 
L 194.490121 404.083383 
L 199.732021 404.085717 
L 204.163984 403.75402 
L 208.003125 404.20624 
L 214.418692 403.3961 
L 219.660592 403.14749 
L 224.092555 402.908852 
L 227.931696 403.362003 
L 234.347263 403.260494 
L 239.589163 403.089238 
L 244.021127 403.195903 
L 247.860268 402.629528 
L 254.275835 402.763436 
L 259.517735 403.366465 
L 263.949698 402.937114 
L 267.788839 402.825145 
L 274.204406 374.669974 
L 279.446306 375.056998 
L 283.87827 373.989709 
L 287.717411 374.115476 
L 294.132978 373.48095 
L 299.374878 373.532614 
L 303.806841 373.897152 
L 307.645982 373.623368 
L 314.061549 373.520928 
L 319.303449 373.371493 
L 323.735412 372.732801 
L 327.574554 373.072948 
L 333.990121 373.114048 
L 339.232021 372.307129 
L 343.663984 371.694881 
L 347.503125 371.326546 
L 353.918692 341.246153 
L 359.160592 339.653397 
L 363.592555 339.838746 
L 367.431696 338.062236 
L 373.847263 338.263851 
L 379.089163 337.223169 
L 383.521127 336.423016 
L 387.360268 336.252691 
L 393.775835 335.962095 
L 399.017735 333.286581 
L 403.449698 334.654129 
L 407.288839 334.073172 
L 413.704406 333.341982 
L 418.946306 331.671782 
L 423.37827 330.149289 
L 427.217411 331.939657 
L 433.632978 329.901078 
L 438.874878 299.90163 
L 443.306841 299.176807 
L 447.145982 297.159 
L 453.561549 282.919052 
L 458.803449 267.104638 
L 463.235412 267.928251 
L 467.074554 260.538571 
L 473.490121 242.225084 
L 478.732021 235.05779 
L 483.163984 226.619805 
L 487.003125 221.047055 
L 493.418692 210.694396 
L 498.660592 203.685993 
L 503.092555 198.054622 
L 506.931696 191.897665 
L 513.347263 190.201937 
L 518.589163 151.450032 
L 523.021127 139.18106 
L 526.860268 138.8907 
L 533.275835 127.736618 
L 538.517735 116.988189 
L 542.949698 117.813752 
L 546.788839 112.751106 
L 553.204406 100.797993 
L 558.446306 99.293819 
L 562.87827 94.922562 
L 566.717411 94.11913 
L 573.132978 81.830538 
L 578.374878 79.471963 
L 582.806841 75.882746 
L 586.645982 73.161302 
L 593.061549 63.272903 
L 598.303449 35.367642 
L 602.735412 31.140694 
L 606.574554 26.047333 
L 612.990121 16.576156 
L 618.232021 10.957564 
L 622.074263 -1 
" clip-path="url(#p9866bc1fde)" style="fill: none; stroke: #17becf; stroke-linecap: square"/>
   </g>
   <g id="line2d_70">
    <path d="M 68.503125 456.049711 
L 74.918692 455.471753 
L 80.160592 455.744562 
L 84.592555 455.850149 
L 88.431696 455.609428 
L 94.847263 455.948645 
L 100.089163 455.54766 
L 104.521127 456.114685 
L 108.360268 456.113991 
L 114.775835 431.253362 
L 120.017735 430.765789 
L 124.449698 430.646758 
L 128.288839 431.345786 
L 134.704406 431.278433 
L 139.946306 430.827144 
L 144.37827 431.094959 
L 148.217411 430.733967 
L 154.632978 431.037845 
L 159.874878 431.016645 
L 164.306841 431.31714 
L 168.145982 431.527457 
L 174.561549 431.349582 
L 179.803449 430.603782 
L 184.235412 430.485593 
L 188.074554 431.030783 
L 194.490121 407.04484 
L 199.732021 406.749235 
L 204.163984 406.970898 
L 208.003125 406.891416 
L 214.418692 406.571302 
L 219.660592 405.821881 
L 224.092555 405.47578 
L 227.931696 405.688549 
L 234.347263 406.074318 
L 239.589163 406.272638 
L 244.021127 405.979412 
L 247.860268 405.342626 
L 254.275835 405.81151 
L 259.517735 405.591457 
L 263.949698 405.450931 
L 267.788839 405.139031 
L 274.204406 378.769722 
L 279.446306 378.250252 
L 283.87827 378.420208 
L 287.717411 378.333945 
L 294.132978 378.080622 
L 299.374878 377.10815 
L 303.806841 377.59658 
L 307.645982 376.848105 
L 314.061549 376.63925 
L 319.303449 376.853807 
L 323.735412 375.933028 
L 327.574554 376.519776 
L 333.990121 376.263174 
L 339.232021 374.784528 
L 343.663984 374.333387 
L 347.503125 373.14853 
L 353.918692 346.49412 
L 359.160592 344.987242 
L 363.592555 344.257412 
L 367.431696 343.321061 
L 373.847263 342.899349 
L 379.089163 342.542123 
L 383.521127 341.014799 
L 387.360268 339.590432 
L 393.775835 338.217816 
L 399.017735 338.782065 
L 403.449698 336.243812 
L 407.288839 338.374771 
L 413.704406 333.958085 
L 418.946306 334.725618 
L 423.37827 334.347857 
L 427.217411 333.888206 
L 433.632978 329.556055 
L 438.874878 303.412132 
L 443.306841 299.208408 
L 447.145982 302.015554 
L 453.561549 285.191882 
L 458.803449 269.765407 
L 463.235412 269.06409 
L 467.074554 264.806693 
L 473.490121 245.185078 
L 478.732021 234.580249 
L 483.163984 229.297254 
L 487.003125 223.615431 
L 493.418692 212.933838 
L 498.660592 204.33157 
L 503.092555 196.942436 
L 506.931696 191.55703 
L 513.347263 189.118988 
L 518.589163 155.034255 
L 523.021127 143.008752 
L 526.860268 140.486204 
L 533.275835 130.994817 
L 538.517735 126.641377 
L 542.949698 122.224455 
L 546.788839 118.177567 
L 553.204406 106.870563 
L 558.446306 101.181959 
L 562.87827 96.571237 
L 566.717411 92.282284 
L 573.132978 85.226147 
L 578.374878 79.442312 
L 582.806841 74.216107 
L 586.645982 71.586894 
L 593.061549 60.371176 
L 598.303449 39.482016 
L 602.735412 39.753259 
L 606.574554 29.591283 
L 612.990121 21.192137 
L 618.232021 9.632741 
L 622.663984 0.573792 
L 623.597257 -1 
" clip-path="url(#p9866bc1fde)" style="fill: none; stroke: #1f77b4; stroke-linecap: square"/>
   </g>
   <g id="line2d_71">
    <path d="M 68.503125 455.429811 
L 74.918692 455.128193 
L 80.160592 455.797614 
L 84.592555 455.238079 
L 88.431696 456.011093 
L 94.847263 455.330547 
L 100.089163 455.658742 
L 104.521127 455.49839 
L 108.360268 455.32907 
L 114.775835 430.896727 
L 120.017735 431.185669 
L 124.449698 431.505148 
L 128.288839 431.247408 
L 134.704406 431.558983 
L 139.946306 430.940679 
L 144.37827 431.344589 
L 148.217411 430.605377 
L 154.632978 431.35041 
L 159.874878 431.088755 
L 164.306841 430.788629 
L 168.145982 430.608952 
L 174.561549 431.211464 
L 179.803449 431.346716 
L 184.235412 430.791982 
L 188.074554 430.732061 
L 194.490121 406.11137 
L 199.732021 406.298995 
L 204.163984 406.264055 
L 208.003125 406.360556 
L 214.418692 406.647075 
L 219.660592 406.51172 
L 224.092555 405.478395 
L 227.931696 405.778343 
L 234.347263 405.583317 
L 239.589163 406.093331 
L 244.021127 406.031164 
L 247.860268 405.476386 
L 254.275835 405.207122 
L 259.517735 405.561777 
L 263.949698 405.703013 
L 267.788839 405.439068 
L 274.204406 379.441965 
L 279.446306 379.522703 
L 283.87827 379.375602 
L 287.717411 378.753943 
L 294.132978 377.718033 
L 299.374878 377.112803 
L 303.806841 377.160345 
L 307.645982 376.383342 
L 314.061549 375.252394 
L 319.303449 375.379831 
L 323.735412 374.599785 
L 327.574554 373.546235 
L 333.990121 371.592545 
L 339.232021 370.43493 
L 343.663984 367.57609 
L 347.503125 366.317912 
L 353.918692 345.59624 
L 359.160592 343.094759 
L 363.592555 341.736223 
L 367.431696 340.614523 
L 373.847263 338.438179 
L 379.089163 336.964602 
L 383.521127 334.085212 
L 387.360268 335.180453 
L 393.775835 330.388459 
L 399.017735 326.558817 
L 403.449698 328.896 
L 407.288839 325.404659 
L 413.704406 319.506285 
L 418.946306 320.089975 
L 423.37827 313.824225 
L 427.217411 317.536432 
L 433.632978 312.885245 
L 438.874878 300.461889 
L 443.306841 300.020971 
L 447.145982 291.750488 
L 453.561549 278.490459 
L 458.803449 266.871658 
L 463.235412 265.88329 
L 467.074554 252.510951 
L 473.490121 234.294276 
L 478.732021 226.488305 
L 483.163984 214.195607 
L 487.003125 208.826009 
L 493.418692 197.181487 
L 498.660592 191.1897 
L 503.092555 190.556385 
L 506.931696 186.37522 
L 513.347263 168.477787 
L 518.589163 148.938771 
L 523.021127 138.870992 
L 526.860268 132.873339 
L 533.275835 122.284672 
L 538.517735 111.499206 
L 542.949698 110.410436 
L 546.788839 105.802166 
L 553.204406 94.157851 
L 558.446306 84.969766 
L 562.87827 84.371051 
L 566.717411 78.112112 
L 573.132978 64.384144 
L 578.374878 60.459241 
L 582.806841 54.264686 
L 586.645982 49.768252 
L 593.061549 41.047367 
L 598.303449 36.438211 
L 602.735412 26.377124 
L 606.574554 19.523237 
L 612.990121 11.104783 
L 618.232021 -0.833482 
L 618.305296 -1 
" clip-path="url(#p9866bc1fde)" style="fill: none; stroke: #1f77b4; stroke-linecap: square"/>
   </g>
   <g id="line2d_72"/>
   <g id="line2d_73"/>
   <g id="line2d_74"/>
   <g id="line2d_75"/>
   <g id="line2d_76"/>
   <g id="line2d_77"/>
   <g id="line2d_78"/>
   <g id="line2d_79"/>
   <g id="line2d_80"/>
   <g id="line2d_81"/>
   <g id="line2d_82"/>
   <g id="line2d_83"/>
   <g id="patch_5">
    <path d="M 40.603125 494.114688 
L 40.603125 50.594688 
" style="fill: none; stroke: #000000; stroke-width: 0.8; stroke-linejoin: miter; stroke-linecap: square"/>
   </g>
   <g id="patch_6">
    <path d="M 654.403125 494.114688 
L 654.403125 50.594688 
" style="fill: none; stroke: #000000; stroke-width: 0.8; stroke-linejoin: miter; stroke-linecap: square"/>
   </g>
   <g id="patch_7">
    <path d="M 40.603125 494.114688 
L 654.403125 494.114688 
" style="fill: none; stroke: #000000; stroke-width: 0.8; stroke-linejoin: miter; stroke-linecap: square"/>
   </g>
   <g id="patch_8">
    <path d="M 40.603125 50.594688 
L 654.403125 50.594688 
" style="fill: none; stroke: #000000; stroke-width: 0.8; stroke-linejoin: miter; stroke-linecap: square"/>
   </g>
   <g id="text_41">
    <!-- L1  -->
    <g style="fill: #ff0000" transform="translate(272.604911 492.035) scale(0.1 -0.1)">
     <defs>
      <path id="DejaVuSans-4c" d="M 628 4666 
L 1259 4666 
L 1259 531 
L 3531 531 
L 3531 0 
L 628 0 
L 628 4666 
z
" transform="scale(0.015625)"/>
     </defs>
     <use xlink:href="#DejaVuSans-4c"/>
     <use xlink:href="#DejaVuSans-31" x="55.712891"/>
     <use xlink:href="#DejaVuSans-20" x="119.335938"/>
    </g>
   </g>
   <g id="text_42">
    <!-- L2  -->
    <g style="fill: #ff0000" transform="translate(332.390625 492.035) scale(0.1 -0.1)">
     <use xlink:href="#DejaVuSans-4c"/>
     <use xlink:href="#DejaVuSans-32" x="55.712891"/>
     <use xlink:href="#DejaVuSans-20" x="119.335938"/>
    </g>
   </g>
   <g id="text_43">
    <!-- L3  -->
    <g style="fill: #ff0000" transform="translate(443.690949 492.035) scale(0.1 -0.1)">
     <use xlink:href="#DejaVuSans-4c"/>
     <use xlink:href="#DejaVuSans-33" x="55.712891"/>
     <use xlink:href="#DejaVuSans-20" x="119.335938"/>
    </g>
   </g>
   <g id="text_44">
    <!-- RAM -->
    <g style="fill: #ff0000" transform="translate(604.485938 492.035) scale(0.1 -0.1)">
     <defs>
      <path id="DejaVuSans-52" d="M 2841 2188 
Q 3044 2119 3236 1894 
Q 3428 1669 3622 1275 
L 4263 0 
L 3584 0 
L 2988 1197 
Q 2756 1666 2539 1819 
Q 2322 1972 1947 1972 
L 1259 1972 
L 1259 0 
L 628 0 
L 628 4666 
L 2053 4666 
Q 2853 4666 3247 4331 
Q 3641 3997 3641 3322 
Q 3641 2881 3436 2590 
Q 3231 2300 2841 2188 
z
M 1259 4147 
L 1259 2491 
L 2053 2491 
Q 2509 2491 2742 2702 
Q 2975 2913 2975 3322 
Q 2975 3731 2742 3939 
Q 2509 4147 2053 4147 
L 1259 4147 
z
" transform="scale(0.015625)"/>
      <path id="DejaVuSans-4d" d="M 628 4666 
L 1569 4666 
L 2759 1491 
L 3956 4666 
L 4897 4666 
L 4897 0 
L 4281 0 
L 4281 4097 
L 3078 897 
L 2444 897 
L 1241 4097 
L 1241 0 
L 628 0 
L 628 4666 
z
" transform="scale(0.015625)"/>
     </defs>
     <use xlink:href="#DejaVuSans-52"/>
     <use xlink:href="#DejaVuSans-41" x="65.482422"/>
     <use xlink:href="#DejaVuSans-4d" x="133.890625"/>
    </g>
   </g>
   <g id="text_45">
    <!-- Skip prefetch -->
    <g transform="translate(307.746563 16.318125) scale(0.12 -0.12)">
     <defs>
      <path id="DejaVuSans-53" d="M 3425 4513 
L 3425 3897 
Q 3066 4069 2747 4153 
Q 2428 4238 2131 4238 
Q 1616 4238 1336 4038 
Q 1056 3838 1056 3469 
Q 1056 3159 1242 3001 
Q 1428 2844 1947 2747 
L 2328 2669 
Q 3034 2534 3370 2195 
Q 3706 1856 3706 1288 
Q 3706 609 3251 259 
Q 2797 -91 1919 -91 
Q 1588 -91 1214 -16 
Q 841 59 441 206 
L 441 856 
Q 825 641 1194 531 
Q 1563 422 1919 422 
Q 2459 422 2753 634 
Q 3047 847 3047 1241 
Q 3047 1584 2836 1778 
Q 2625 1972 2144 2069 
L 1759 2144 
Q 1053 2284 737 2584 
Q 422 2884 422 3419 
Q 422 4038 858 4394 
Q 1294 4750 2059 4750 
Q 2388 4750 2728 4690 
Q 3069 4631 3425 4513 
z
" transform="scale(0.015625)"/>
      <path id="DejaVuSans-6b" d="M 581 4863 
L 1159 4863 
L 1159 1991 
L 2875 3500 
L 3609 3500 
L 1753 1863 
L 3688 0 
L 2938 0 
L 1159 1709 
L 1159 0 
L 581 0 
L 581 4863 
z
" transform="scale(0.015625)"/>
      <path id="DejaVuSans-66" d="M 2375 4863 
L 2375 4384 
L 1825 4384 
Q 1516 4384 1395 4259 
Q 1275 4134 1275 3809 
L 1275 3500 
L 2222 3500 
L 2222 3053 
L 1275 3053 
L 1275 0 
L 697 0 
L 697 3053 
L 147 3053 
L 147 3500 
L 697 3500 
L 697 3744 
Q 697 4328 969 4595 
Q 1241 4863 1831 4863 
L 2375 4863 
z
" transform="scale(0.015625)"/>
      <path id="DejaVuSans-63" d="M 3122 3366 
L 3122 2828 
Q 2878 2963 2633 3030 
Q 2388 3097 2138 3097 
Q 1578 3097 1268 2742 
Q 959 2388 959 1747 
Q 959 1106 1268 751 
Q 1578 397 2138 397 
Q 2388 397 2633 464 
Q 2878 531 3122 666 
L 3122 134 
Q 2881 22 2623 -34 
Q 2366 -91 2075 -91 
Q 1284 -91 818 406 
Q 353 903 353 1747 
Q 353 2603 823 3093 
Q 1294 3584 2113 3584 
Q 2378 3584 2631 3529 
Q 2884 3475 3122 3366 
z
" transform="scale(0.015625)"/>
     </defs>
     <use xlink:href="#DejaVuSans-53"/>
     <use xlink:href="#DejaVuSans-6b" x="63.476562"/>
     <use xlink:href="#DejaVuSans-69" x="121.386719"/>
     <use xlink:href="#DejaVuSans-70" x="149.169922"/>
     <use xlink:href="#DejaVuSans-20" x="212.646484"/>
     <use xlink:href="#DejaVuSans-70" x="244.433594"/>
     <use xlink:href="#DejaVuSans-72" x="307.910156"/>
     <use xlink:href="#DejaVuSans-65" x="346.773438"/>
     <use xlink:href="#DejaVuSans-66" x="408.296875"/>
     <use xlink:href="#DejaVuSans-65" x="443.501953"/>
     <use xlink:href="#DejaVuSans-74" x="505.025391"/>
     <use xlink:href="#DejaVuSans-63" x="544.234375"/>
     <use xlink:href="#DejaVuSans-68" x="599.214844"/>
    </g>
   </g>
   <g id="legend_1">
    <g id="patch_9">
     <path d="M 47.603125 192.922813 
L 283.8375 192.922813 
Q 285.8375 192.922813 285.8375 190.922813 
L 285.8375 57.594688 
Q 285.8375 55.594688 283.8375 55.594688 
L 47.603125 55.594688 
Q 45.603125 55.594688 45.603125 57.594688 
L 45.603125 190.922813 
Q 45.603125 192.922813 47.603125 192.922813 
L 47.603125 192.922813 
z
" style="fill: none; opacity: 0"/>
    </g>
    <g id="line2d_84">
     <path d="M 49.603125 63.693125 
L 59.603125 63.693125 
L 69.603125 63.693125 
" style="fill: none; stroke: #1f77b4; stroke-opacity: 0.3; stroke-width: 1.5; stroke-linecap: square"/>
    </g>
    <g id="text_46">
     <!-- SortedVec::binary_search_std -->
     <g transform="translate(77.603125 67.193125) scale(0.1 -0.1)">
      <defs>
       <path id="DejaVuSans-64" d="M 2906 2969 
L 2906 4863 
L 3481 4863 
L 3481 0 
L 2906 0 
L 2906 525 
Q 2725 213 2448 61 
Q 2172 -91 1784 -91 
Q 1150 -91 751 415 
Q 353 922 353 1747 
Q 353 2572 751 3078 
Q 1150 3584 1784 3584 
Q 2172 3584 2448 3432 
Q 2725 3281 2906 2969 
z
M 947 1747 
Q 947 1113 1208 752 
Q 1469 391 1925 391 
Q 2381 391 2643 752 
Q 2906 1113 2906 1747 
Q 2906 2381 2643 2742 
Q 2381 3103 1925 3103 
Q 1469 3103 1208 2742 
Q 947 2381 947 1747 
z
" transform="scale(0.015625)"/>
       <path id="DejaVuSans-56" d="M 1831 0 
L 50 4666 
L 709 4666 
L 2188 738 
L 3669 4666 
L 4325 4666 
L 2547 0 
L 1831 0 
z
" transform="scale(0.015625)"/>
       <path id="DejaVuSans-3a" d="M 750 794 
L 1409 794 
L 1409 0 
L 750 0 
L 750 794 
z
M 750 3309 
L 1409 3309 
L 1409 2516 
L 750 2516 
L 750 3309 
z
" transform="scale(0.015625)"/>
       <path id="DejaVuSans-5f" d="M 3263 -1063 
L 3263 -1509 
L -63 -1509 
L -63 -1063 
L 3263 -1063 
z
" transform="scale(0.015625)"/>
      </defs>
      <use xlink:href="#DejaVuSans-53"/>
      <use xlink:href="#DejaVuSans-6f" x="63.476562"/>
      <use xlink:href="#DejaVuSans-72" x="124.658203"/>
      <use xlink:href="#DejaVuSans-74" x="165.771484"/>
      <use xlink:href="#DejaVuSans-65" x="204.980469"/>
      <use xlink:href="#DejaVuSans-64" x="266.503906"/>
      <use xlink:href="#DejaVuSans-56" x="329.980469"/>
      <use xlink:href="#DejaVuSans-65" x="390.638672"/>
      <use xlink:href="#DejaVuSans-63" x="452.162109"/>
      <use xlink:href="#DejaVuSans-3a" x="507.142578"/>
      <use xlink:href="#DejaVuSans-3a" x="540.833984"/>
      <use xlink:href="#DejaVuSans-62" x="574.525391"/>
      <use xlink:href="#DejaVuSans-69" x="638.001953"/>
      <use xlink:href="#DejaVuSans-6e" x="665.785156"/>
      <use xlink:href="#DejaVuSans-61" x="729.164062"/>
      <use xlink:href="#DejaVuSans-72" x="790.443359"/>
      <use xlink:href="#DejaVuSans-79" x="831.556641"/>
      <use xlink:href="#DejaVuSans-5f" x="890.736328"/>
      <use xlink:href="#DejaVuSans-73" x="940.736328"/>
      <use xlink:href="#DejaVuSans-65" x="992.835938"/>
      <use xlink:href="#DejaVuSans-61" x="1054.359375"/>
      <use xlink:href="#DejaVuSans-72" x="1115.638672"/>
      <use xlink:href="#DejaVuSans-63" x="1154.501953"/>
      <use xlink:href="#DejaVuSans-68" x="1209.482422"/>
      <use xlink:href="#DejaVuSans-5f" x="1272.861328"/>
      <use xlink:href="#DejaVuSans-73" x="1322.861328"/>
      <use xlink:href="#DejaVuSans-74" x="1374.960938"/>
      <use xlink:href="#DejaVuSans-64" x="1414.169922"/>
     </g>
    </g>
    <g id="line2d_85">
     <path d="M 49.603125 78.649375 
L 59.603125 78.649375 
L 69.603125 78.649375 
" style="fill: none; stroke: #1f77b4; stroke-opacity: 0.3; stroke-width: 1.5; stroke-linecap: square"/>
    </g>
    <g id="text_47">
     <!-- Eytzinger::search_prefetch&lt;4&gt; -->
     <g transform="translate(77.603125 82.149375) scale(0.1 -0.1)">
      <defs>
       <path id="DejaVuSans-45" d="M 628 4666 
L 3578 4666 
L 3578 4134 
L 1259 4134 
L 1259 2753 
L 3481 2753 
L 3481 2222 
L 1259 2222 
L 1259 531 
L 3634 531 
L 3634 0 
L 628 0 
L 628 4666 
z
" transform="scale(0.015625)"/>
       <path id="DejaVuSans-3c" d="M 4684 3150 
L 1459 2003 
L 4684 863 
L 4684 294 
L 678 1747 
L 678 2266 
L 4684 3719 
L 4684 3150 
z
" transform="scale(0.015625)"/>
       <path id="DejaVuSans-3e" d="M 678 3150 
L 678 3719 
L 4684 2266 
L 4684 1747 
L 678 294 
L 678 863 
L 3897 2003 
L 678 3150 
z
" transform="scale(0.015625)"/>
      </defs>
      <use xlink:href="#DejaVuSans-45"/>
      <use xlink:href="#DejaVuSans-79" x="63.183594"/>
      <use xlink:href="#DejaVuSans-74" x="122.363281"/>
      <use xlink:href="#DejaVuSans-7a" x="161.572266"/>
      <use xlink:href="#DejaVuSans-69" x="214.0625"/>
      <use xlink:href="#DejaVuSans-6e" x="241.845703"/>
      <use xlink:href="#DejaVuSans-67" x="305.224609"/>
      <use xlink:href="#DejaVuSans-65" x="368.701172"/>
      <use xlink:href="#DejaVuSans-72" x="430.224609"/>
      <use xlink:href="#DejaVuSans-3a" x="469.587891"/>
      <use xlink:href="#DejaVuSans-3a" x="503.279297"/>
      <use xlink:href="#DejaVuSans-73" x="536.970703"/>
      <use xlink:href="#DejaVuSans-65" x="589.070312"/>
      <use xlink:href="#DejaVuSans-61" x="650.59375"/>
      <use xlink:href="#DejaVuSans-72" x="711.873047"/>
      <use xlink:href="#DejaVuSans-63" x="750.736328"/>
      <use xlink:href="#DejaVuSans-68" x="805.716797"/>
      <use xlink:href="#DejaVuSans-5f" x="869.095703"/>
      <use xlink:href="#DejaVuSans-70" x="919.095703"/>
      <use xlink:href="#DejaVuSans-72" x="982.572266"/>
      <use xlink:href="#DejaVuSans-65" x="1021.435547"/>
      <use xlink:href="#DejaVuSans-66" x="1082.958984"/>
      <use xlink:href="#DejaVuSans-65" x="1118.164062"/>
      <use xlink:href="#DejaVuSans-74" x="1179.6875"/>
      <use xlink:href="#DejaVuSans-63" x="1218.896484"/>
      <use xlink:href="#DejaVuSans-68" x="1273.876953"/>
      <use xlink:href="#DejaVuSans-3c" x="1337.255859"/>
      <use xlink:href="#DejaVuSans-34" x="1421.044922"/>
      <use xlink:href="#DejaVuSans-3e" x="1484.667969"/>
     </g>
    </g>
    <g id="line2d_86">
     <path d="M 49.603125 93.605625 
L 59.603125 93.605625 
L 69.603125 93.605625 
" style="fill: none; stroke: #e377c2; stroke-opacity: 0.3; stroke-width: 1.5; stroke-linecap: square"/>
    </g>
    <g id="text_48">
     <!-- STree&lt;&gt;::search&lt;find_popcnt&gt; -->
     <g transform="translate(77.603125 97.105625) scale(0.1 -0.1)">
      <defs>
       <path id="DejaVuSans-54" d="M -19 4666 
L 3928 4666 
L 3928 4134 
L 2272 4134 
L 2272 0 
L 1638 0 
L 1638 4134 
L -19 4134 
L -19 4666 
z
" transform="scale(0.015625)"/>
      </defs>
      <use xlink:href="#DejaVuSans-53"/>
      <use xlink:href="#DejaVuSans-54" x="63.476562"/>
      <use xlink:href="#DejaVuSans-72" x="109.810547"/>
      <use xlink:href="#DejaVuSans-65" x="148.673828"/>
      <use xlink:href="#DejaVuSans-65" x="210.197266"/>
      <use xlink:href="#DejaVuSans-3c" x="271.720703"/>
      <use xlink:href="#DejaVuSans-3e" x="355.509766"/>
      <use xlink:href="#DejaVuSans-3a" x="439.298828"/>
      <use xlink:href="#DejaVuSans-3a" x="472.990234"/>
      <use xlink:href="#DejaVuSans-73" x="506.681641"/>
      <use xlink:href="#DejaVuSans-65" x="558.78125"/>
      <use xlink:href="#DejaVuSans-61" x="620.304688"/>
      <use xlink:href="#DejaVuSans-72" x="681.583984"/>
      <use xlink:href="#DejaVuSans-63" x="720.447266"/>
      <use xlink:href="#DejaVuSans-68" x="775.427734"/>
      <use xlink:href="#DejaVuSans-3c" x="838.806641"/>
      <use xlink:href="#DejaVuSans-66" x="922.595703"/>
      <use xlink:href="#DejaVuSans-69" x="957.800781"/>
      <use xlink:href="#DejaVuSans-6e" x="985.583984"/>
      <use xlink:href="#DejaVuSans-64" x="1048.962891"/>
      <use xlink:href="#DejaVuSans-5f" x="1112.439453"/>
      <use xlink:href="#DejaVuSans-70" x="1162.439453"/>
      <use xlink:href="#DejaVuSans-6f" x="1225.916016"/>
      <use xlink:href="#DejaVuSans-70" x="1287.097656"/>
      <use xlink:href="#DejaVuSans-63" x="1350.574219"/>
      <use xlink:href="#DejaVuSans-6e" x="1405.554688"/>
      <use xlink:href="#DejaVuSans-74" x="1468.933594"/>
      <use xlink:href="#DejaVuSans-3e" x="1508.142578"/>
     </g>
    </g>
    <g id="line2d_87">
     <path d="M 49.603125 108.561875 
L 59.603125 108.561875 
L 69.603125 108.561875 
" style="fill: none; stroke: #17becf; stroke-opacity: 0.3; stroke-width: 1.5; stroke-linecap: square"/>
    </g>
    <g id="text_49">
     <!-- STree&lt;&gt;::batch&lt;128&gt; -->
     <g transform="translate(77.603125 112.061875) scale(0.1 -0.1)">
      <use xlink:href="#DejaVuSans-53"/>
      <use xlink:href="#DejaVuSans-54" x="63.476562"/>
      <use xlink:href="#DejaVuSans-72" x="109.810547"/>
      <use xlink:href="#DejaVuSans-65" x="148.673828"/>
      <use xlink:href="#DejaVuSans-65" x="210.197266"/>
      <use xlink:href="#DejaVuSans-3c" x="271.720703"/>
      <use xlink:href="#DejaVuSans-3e" x="355.509766"/>
      <use xlink:href="#DejaVuSans-3a" x="439.298828"/>
      <use xlink:href="#DejaVuSans-3a" x="472.990234"/>
      <use xlink:href="#DejaVuSans-62" x="506.681641"/>
      <use xlink:href="#DejaVuSans-61" x="570.158203"/>
      <use xlink:href="#DejaVuSans-74" x="631.4375"/>
      <use xlink:href="#DejaVuSans-63" x="670.646484"/>
      <use xlink:href="#DejaVuSans-68" x="725.626953"/>
      <use xlink:href="#DejaVuSans-3c" x="789.005859"/>
      <use xlink:href="#DejaVuSans-31" x="872.794922"/>
      <use xlink:href="#DejaVuSans-32" x="936.417969"/>
      <use xlink:href="#DejaVuSans-38" x="1000.041016"/>
      <use xlink:href="#DejaVuSans-3e" x="1063.664062"/>
     </g>
    </g>
    <g id="line2d_88">
     <path d="M 49.603125 123.24 
L 59.603125 123.24 
L 69.603125 123.24 
" style="fill: none; stroke: #7f7f7f; stroke-opacity: 0.3; stroke-width: 1.5; stroke-linecap: square"/>
    </g>
    <g id="text_50">
     <!-- STree&lt;&gt;::batch_prefetch&lt;128&gt; -->
     <g transform="translate(77.603125 126.74) scale(0.1 -0.1)">
      <use xlink:href="#DejaVuSans-53"/>
      <use xlink:href="#DejaVuSans-54" x="63.476562"/>
      <use xlink:href="#DejaVuSans-72" x="109.810547"/>
      <use xlink:href="#DejaVuSans-65" x="148.673828"/>
      <use xlink:href="#DejaVuSans-65" x="210.197266"/>
      <use xlink:href="#DejaVuSans-3c" x="271.720703"/>
      <use xlink:href="#DejaVuSans-3e" x="355.509766"/>
      <use xlink:href="#DejaVuSans-3a" x="439.298828"/>
      <use xlink:href="#DejaVuSans-3a" x="472.990234"/>
      <use xlink:href="#DejaVuSans-62" x="506.681641"/>
      <use xlink:href="#DejaVuSans-61" x="570.158203"/>
      <use xlink:href="#DejaVuSans-74" x="631.4375"/>
      <use xlink:href="#DejaVuSans-63" x="670.646484"/>
      <use xlink:href="#DejaVuSans-68" x="725.626953"/>
      <use xlink:href="#DejaVuSans-5f" x="789.005859"/>
      <use xlink:href="#DejaVuSans-70" x="839.005859"/>
      <use xlink:href="#DejaVuSans-72" x="902.482422"/>
      <use xlink:href="#DejaVuSans-65" x="941.345703"/>
      <use xlink:href="#DejaVuSans-66" x="1002.869141"/>
      <use xlink:href="#DejaVuSans-65" x="1038.074219"/>
      <use xlink:href="#DejaVuSans-74" x="1099.597656"/>
      <use xlink:href="#DejaVuSans-63" x="1138.806641"/>
      <use xlink:href="#DejaVuSans-68" x="1193.787109"/>
      <use xlink:href="#DejaVuSans-3c" x="1257.166016"/>
      <use xlink:href="#DejaVuSans-31" x="1340.955078"/>
      <use xlink:href="#DejaVuSans-32" x="1404.578125"/>
      <use xlink:href="#DejaVuSans-38" x="1468.201172"/>
      <use xlink:href="#DejaVuSans-3e" x="1531.824219"/>
     </g>
    </g>
    <g id="line2d_89">
     <path d="M 49.603125 138.19625 
L 59.603125 138.19625 
L 69.603125 138.19625 
" style="fill: none; stroke: #7f7f7f; stroke-width: 1.5; stroke-linecap: square"/>
    </g>
    <g id="text_51">
     <!-- STree&lt;&gt;::batch_final -->
     <g transform="translate(77.603125 141.69625) scale(0.1 -0.1)">
      <use xlink:href="#DejaVuSans-53"/>
      <use xlink:href="#DejaVuSans-54" x="63.476562"/>
      <use xlink:href="#DejaVuSans-72" x="109.810547"/>
      <use xlink:href="#DejaVuSans-65" x="148.673828"/>
      <use xlink:href="#DejaVuSans-65" x="210.197266"/>
      <use xlink:href="#DejaVuSans-3c" x="271.720703"/>
      <use xlink:href="#DejaVuSans-3e" x="355.509766"/>
      <use xlink:href="#DejaVuSans-3a" x="439.298828"/>
      <use xlink:href="#DejaVuSans-3a" x="472.990234"/>
      <use xlink:href="#DejaVuSans-62" x="506.681641"/>
      <use xlink:href="#DejaVuSans-61" x="570.158203"/>
      <use xlink:href="#DejaVuSans-74" x="631.4375"/>
      <use xlink:href="#DejaVuSans-63" x="670.646484"/>
      <use xlink:href="#DejaVuSans-68" x="725.626953"/>
      <use xlink:href="#DejaVuSans-5f" x="789.005859"/>
      <use xlink:href="#DejaVuSans-66" x="839.005859"/>
      <use xlink:href="#DejaVuSans-69" x="874.210938"/>
      <use xlink:href="#DejaVuSans-6e" x="901.994141"/>
      <use xlink:href="#DejaVuSans-61" x="965.373047"/>
      <use xlink:href="#DejaVuSans-6c" x="1026.652344"/>
     </g>
    </g>
    <g id="line2d_90">
     <path d="M 49.603125 153.1525 
L 59.603125 153.1525 
L 69.603125 153.1525 
" style="fill: none; stroke: #17becf; stroke-width: 1.5; stroke-linecap: square"/>
    </g>
    <g id="text_52">
     <!-- STree&lt;&gt;::batch_skip_prefetch&lt;SKIP=1&gt; -->
     <g transform="translate(77.603125 156.6525) scale(0.1 -0.1)">
      <defs>
       <path id="DejaVuSans-4b" d="M 628 4666 
L 1259 4666 
L 1259 2694 
L 3353 4666 
L 4166 4666 
L 1850 2491 
L 4331 0 
L 3500 0 
L 1259 2247 
L 1259 0 
L 628 0 
L 628 4666 
z
" transform="scale(0.015625)"/>
       <path id="DejaVuSans-50" d="M 1259 4147 
L 1259 2394 
L 2053 2394 
Q 2494 2394 2734 2622 
Q 2975 2850 2975 3272 
Q 2975 3691 2734 3919 
Q 2494 4147 2053 4147 
L 1259 4147 
z
M 628 4666 
L 2053 4666 
Q 2838 4666 3239 4311 
Q 3641 3956 3641 3272 
Q 3641 2581 3239 2228 
Q 2838 1875 2053 1875 
L 1259 1875 
L 1259 0 
L 628 0 
L 628 4666 
z
" transform="scale(0.015625)"/>
       <path id="DejaVuSans-3d" d="M 678 2906 
L 4684 2906 
L 4684 2381 
L 678 2381 
L 678 2906 
z
M 678 1631 
L 4684 1631 
L 4684 1100 
L 678 1100 
L 678 1631 
z
" transform="scale(0.015625)"/>
      </defs>
      <use xlink:href="#DejaVuSans-53"/>
      <use xlink:href="#DejaVuSans-54" x="63.476562"/>
      <use xlink:href="#DejaVuSans-72" x="109.810547"/>
      <use xlink:href="#DejaVuSans-65" x="148.673828"/>
      <use xlink:href="#DejaVuSans-65" x="210.197266"/>
      <use xlink:href="#DejaVuSans-3c" x="271.720703"/>
      <use xlink:href="#DejaVuSans-3e" x="355.509766"/>
      <use xlink:href="#DejaVuSans-3a" x="439.298828"/>
      <use xlink:href="#DejaVuSans-3a" x="472.990234"/>
      <use xlink:href="#DejaVuSans-62" x="506.681641"/>
      <use xlink:href="#DejaVuSans-61" x="570.158203"/>
      <use xlink:href="#DejaVuSans-74" x="631.4375"/>
      <use xlink:href="#DejaVuSans-63" x="670.646484"/>
      <use xlink:href="#DejaVuSans-68" x="725.626953"/>
      <use xlink:href="#DejaVuSans-5f" x="789.005859"/>
      <use xlink:href="#DejaVuSans-73" x="839.005859"/>
      <use xlink:href="#DejaVuSans-6b" x="891.105469"/>
      <use xlink:href="#DejaVuSans-69" x="949.015625"/>
      <use xlink:href="#DejaVuSans-70" x="976.798828"/>
      <use xlink:href="#DejaVuSans-5f" x="1040.275391"/>
      <use xlink:href="#DejaVuSans-70" x="1090.275391"/>
      <use xlink:href="#DejaVuSans-72" x="1153.751953"/>
      <use xlink:href="#DejaVuSans-65" x="1192.615234"/>
      <use xlink:href="#DejaVuSans-66" x="1254.138672"/>
      <use xlink:href="#DejaVuSans-65" x="1289.34375"/>
      <use xlink:href="#DejaVuSans-74" x="1350.867188"/>
      <use xlink:href="#DejaVuSans-63" x="1390.076172"/>
      <use xlink:href="#DejaVuSans-68" x="1445.056641"/>
      <use xlink:href="#DejaVuSans-3c" x="1508.435547"/>
      <use xlink:href="#DejaVuSans-53" x="1592.224609"/>
      <use xlink:href="#DejaVuSans-4b" x="1655.701172"/>
      <use xlink:href="#DejaVuSans-49" x="1721.277344"/>
      <use xlink:href="#DejaVuSans-50" x="1750.769531"/>
      <use xlink:href="#DejaVuSans-3d" x="1811.072266"/>
      <use xlink:href="#DejaVuSans-31" x="1894.861328"/>
      <use xlink:href="#DejaVuSans-3e" x="1958.484375"/>
     </g>
    </g>
    <g id="line2d_91">
     <path d="M 49.603125 168.10875 
L 59.603125 168.10875 
L 69.603125 168.10875 
" style="fill: none; stroke: #1f77b4; stroke-width: 1.5; stroke-linecap: square"/>
    </g>
    <g id="text_53">
     <!-- STree&lt;&gt;::batch_skip_prefetch&lt;SKIP=2&gt; -->
     <g transform="translate(77.603125 171.60875) scale(0.1 -0.1)">
      <use xlink:href="#DejaVuSans-53"/>
      <use xlink:href="#DejaVuSans-54" x="63.476562"/>
      <use xlink:href="#DejaVuSans-72" x="109.810547"/>
      <use xlink:href="#DejaVuSans-65" x="148.673828"/>
      <use xlink:href="#DejaVuSans-65" x="210.197266"/>
      <use xlink:href="#DejaVuSans-3c" x="271.720703"/>
      <use xlink:href="#DejaVuSans-3e" x="355.509766"/>
      <use xlink:href="#DejaVuSans-3a" x="439.298828"/>
      <use xlink:href="#DejaVuSans-3a" x="472.990234"/>
      <use xlink:href="#DejaVuSans-62" x="506.681641"/>
      <use xlink:href="#DejaVuSans-61" x="570.158203"/>
      <use xlink:href="#DejaVuSans-74" x="631.4375"/>
      <use xlink:href="#DejaVuSans-63" x="670.646484"/>
      <use xlink:href="#DejaVuSans-68" x="725.626953"/>
      <use xlink:href="#DejaVuSans-5f" x="789.005859"/>
      <use xlink:href="#DejaVuSans-73" x="839.005859"/>
      <use xlink:href="#DejaVuSans-6b" x="891.105469"/>
      <use xlink:href="#DejaVuSans-69" x="949.015625"/>
      <use xlink:href="#DejaVuSans-70" x="976.798828"/>
      <use xlink:href="#DejaVuSans-5f" x="1040.275391"/>
      <use xlink:href="#DejaVuSans-70" x="1090.275391"/>
      <use xlink:href="#DejaVuSans-72" x="1153.751953"/>
      <use xlink:href="#DejaVuSans-65" x="1192.615234"/>
      <use xlink:href="#DejaVuSans-66" x="1254.138672"/>
      <use xlink:href="#DejaVuSans-65" x="1289.34375"/>
      <use xlink:href="#DejaVuSans-74" x="1350.867188"/>
      <use xlink:href="#DejaVuSans-63" x="1390.076172"/>
      <use xlink:href="#DejaVuSans-68" x="1445.056641"/>
      <use xlink:href="#DejaVuSans-3c" x="1508.435547"/>
      <use xlink:href="#DejaVuSans-53" x="1592.224609"/>
      <use xlink:href="#DejaVuSans-4b" x="1655.701172"/>
      <use xlink:href="#DejaVuSans-49" x="1721.277344"/>
      <use xlink:href="#DejaVuSans-50" x="1750.769531"/>
      <use xlink:href="#DejaVuSans-3d" x="1811.072266"/>
      <use xlink:href="#DejaVuSans-32" x="1894.861328"/>
      <use xlink:href="#DejaVuSans-3e" x="1958.484375"/>
     </g>
    </g>
    <g id="line2d_92">
     <path d="M 49.603125 183.065 
L 59.603125 183.065 
L 69.603125 183.065 
" style="fill: none; stroke: #1f77b4; stroke-width: 1.5; stroke-linecap: square"/>
    </g>
    <g id="text_54">
     <!-- STree&lt;&gt;::batch_skip_prefetch&lt;SKIP=3&gt; -->
     <g transform="translate(77.603125 186.565) scale(0.1 -0.1)">
      <use xlink:href="#DejaVuSans-53"/>
      <use xlink:href="#DejaVuSans-54" x="63.476562"/>
      <use xlink:href="#DejaVuSans-72" x="109.810547"/>
      <use xlink:href="#DejaVuSans-65" x="148.673828"/>
      <use xlink:href="#DejaVuSans-65" x="210.197266"/>
      <use xlink:href="#DejaVuSans-3c" x="271.720703"/>
      <use xlink:href="#DejaVuSans-3e" x="355.509766"/>
      <use xlink:href="#DejaVuSans-3a" x="439.298828"/>
      <use xlink:href="#DejaVuSans-3a" x="472.990234"/>
      <use xlink:href="#DejaVuSans-62" x="506.681641"/>
      <use xlink:href="#DejaVuSans-61" x="570.158203"/>
      <use xlink:href="#DejaVuSans-74" x="631.4375"/>
      <use xlink:href="#DejaVuSans-63" x="670.646484"/>
      <use xlink:href="#DejaVuSans-68" x="725.626953"/>
      <use xlink:href="#DejaVuSans-5f" x="789.005859"/>
      <use xlink:href="#DejaVuSans-73" x="839.005859"/>
      <use xlink:href="#DejaVuSans-6b" x="891.105469"/>
      <use xlink:href="#DejaVuSans-69" x="949.015625"/>
      <use xlink:href="#DejaVuSans-70" x="976.798828"/>
      <use xlink:href="#DejaVuSans-5f" x="1040.275391"/>
      <use xlink:href="#DejaVuSans-70" x="1090.275391"/>
      <use xlink:href="#DejaVuSans-72" x="1153.751953"/>
      <use xlink:href="#DejaVuSans-65" x="1192.615234"/>
      <use xlink:href="#DejaVuSans-66" x="1254.138672"/>
      <use xlink:href="#DejaVuSans-65" x="1289.34375"/>
      <use xlink:href="#DejaVuSans-74" x="1350.867188"/>
      <use xlink:href="#DejaVuSans-63" x="1390.076172"/>
      <use xlink:href="#DejaVuSans-68" x="1445.056641"/>
      <use xlink:href="#DejaVuSans-3c" x="1508.435547"/>
      <use xlink:href="#DejaVuSans-53" x="1592.224609"/>
      <use xlink:href="#DejaVuSans-4b" x="1655.701172"/>
      <use xlink:href="#DejaVuSans-49" x="1721.277344"/>
      <use xlink:href="#DejaVuSans-50" x="1750.769531"/>
      <use xlink:href="#DejaVuSans-3d" x="1811.072266"/>
      <use xlink:href="#DejaVuSans-33" x="1894.861328"/>
      <use xlink:href="#DejaVuSans-3e" x="1958.484375"/>
     </g>
    </g>
   </g>
  </g>
 </g>
 <defs>
  <clipPath id="p9866bc1fde">
   <rect x="40.603125" y="50.594688" width="613.8" height="443.52"/>
  </clipPath>
 </defs>
</svg>
