<?xml version="1.0" encoding="utf-8" standalone="no"?>
<!DOCTYPE svg PUBLIC "-//W3C//DTD SVG 1.1//EN"
  "http://www.w3.org/Graphics/SVG/1.1/DTD/svg11.dtd">
<svg xmlns:xlink="http://www.w3.org/1999/xlink" width="661.603125pt" height="531.670938pt" viewBox="0 0 661.603125 531.670938" xmlns="http://www.w3.org/2000/svg" version="1.1">
 <metadata>
  <rdf:RDF xmlns:dc="http://purl.org/dc/elements/1.1/" xmlns:cc="http://creativecommons.org/ns#" xmlns:rdf="http://www.w3.org/1999/02/22-rdf-syntax-ns#">
   <cc:Work>
    <dc:type rdf:resource="http://purl.org/dc/dcmitype/StillImage"/>
    <dc:date>2024-12-29T00:04:16.624276</dc:date>
    <dc:format>image/svg+xml</dc:format>
    <dc:creator>
     <cc:Agent>
      <dc:title>Matplotlib v3.9.3, https://matplotlib.org/</dc:title>
     </cc:Agent>
    </dc:creator>
   </cc:Work>
  </rdf:RDF>
 </metadata>
 <defs>
  <style type="text/css">*{stroke-linejoin: round; stroke-linecap: butt}</style>
 </defs>
 <g id="figure_1">
  <g id="patch_1">
   <path d="M 0 531.670938 
L 661.603125 531.670938 
L 661.603125 0 
L 0 0 
z
" style="fill: #ffffff"/>
  </g>
  <g id="axes_1">
   <g id="patch_2">
    <path d="M 40.603125 494.114688 
L 654.403125 494.114688 
L 654.403125 50.594688 
L 40.603125 50.594688 
z
" style="fill: #ffffff"/>
   </g>
   <g id="line2d_1">
    <path d="M 287.717411 494.114688 
L 287.717411 50.594688 
" clip-path="url(#p1ee18a4026)" style="fill: none; stroke-dasharray: 5.55,2.4; stroke-dashoffset: 0; stroke: #ff0000; stroke-width: 1.5"/>
   </g>
   <g id="line2d_2">
    <path d="M 347.503125 494.114688 
L 347.503125 50.594688 
" clip-path="url(#p1ee18a4026)" style="fill: none; stroke-dasharray: 5.55,2.4; stroke-dashoffset: 0; stroke: #ff0000; stroke-width: 1.5"/>
   </g>
   <g id="line2d_3">
    <path d="M 458.803449 494.114688 
L 458.803449 50.594688 
" clip-path="url(#p1ee18a4026)" style="fill: none; stroke-dasharray: 5.55,2.4; stroke-dashoffset: 0; stroke: #ff0000; stroke-width: 1.5"/>
   </g>
   <g id="axes_2">
    <g id="patch_3">
     <path d="M 40.603125 50.594688 
L 654.403125 50.594688 
L 654.403125 50.594687 
L 40.603125 50.594687 
z
" style="fill: #ffffff"/>
    </g>
    <g id="matplotlib.axis_1">
     <g id="xtick_1">
      <g id="line2d_4">
       <defs>
        <path id="me3e6faadad" d="M 0 0 
L 0 -3.5 
" style="stroke: #000000; stroke-width: 0.8"/>
       </defs>
       <g>
        <use xlink:href="#me3e6faadad" x="68.503125" y="50.594687" style="stroke: #000000; stroke-width: 0.8"/>
       </g>
      </g>
      <g id="text_1">
       <!-- $\mathdefault{2^{2}}$ -->
       <g transform="translate(62.903125 41.515) scale(0.1 -0.1)">
        <defs>
         <path id="DejaVuSans-32" d="M 1228 531 
L 3431 531 
L 3431 0 
L 469 0 
L 469 531 
Q 828 903 1448 1529 
Q 2069 2156 2228 2338 
Q 2531 2678 2651 2914 
Q 2772 3150 2772 3378 
Q 2772 3750 2511 3984 
Q 2250 4219 1831 4219 
Q 1534 4219 1204 4116 
Q 875 4013 500 3803 
L 500 4441 
Q 881 4594 1212 4672 
Q 1544 4750 1819 4750 
Q 2544 4750 2975 4387 
Q 3406 4025 3406 3419 
Q 3406 3131 3298 2873 
Q 3191 2616 2906 2266 
Q 2828 2175 2409 1742 
Q 1991 1309 1228 531 
z
" transform="scale(0.015625)"/>
        </defs>
        <use xlink:href="#DejaVuSans-32" transform="translate(0 0.765625)"/>
        <use xlink:href="#DejaVuSans-32" transform="translate(64.580078 39.046875) scale(0.7)"/>
       </g>
      </g>
     </g>
     <g id="xtick_2">
      <g id="line2d_5">
       <g>
        <use xlink:href="#me3e6faadad" x="108.360268" y="50.594687" style="stroke: #000000; stroke-width: 0.8"/>
       </g>
      </g>
      <g id="text_2">
       <!-- $\mathdefault{2^{4}}$ -->
       <g transform="translate(102.760268 41.515) scale(0.1 -0.1)">
        <defs>
         <path id="DejaVuSans-34" d="M 2419 4116 
L 825 1625 
L 2419 1625 
L 2419 4116 
z
M 2253 4666 
L 3047 4666 
L 3047 1625 
L 3713 1625 
L 3713 1100 
L 3047 1100 
L 3047 0 
L 2419 0 
L 2419 1100 
L 313 1100 
L 313 1709 
L 2253 4666 
z
" transform="scale(0.015625)"/>
        </defs>
        <use xlink:href="#DejaVuSans-32" transform="translate(0 0.684375)"/>
        <use xlink:href="#DejaVuSans-34" transform="translate(64.580078 38.965625) scale(0.7)"/>
       </g>
      </g>
     </g>
     <g id="xtick_3">
      <g id="line2d_6">
       <g>
        <use xlink:href="#me3e6faadad" x="148.217411" y="50.594687" style="stroke: #000000; stroke-width: 0.8"/>
       </g>
      </g>
      <g id="text_3">
       <!-- $\mathdefault{2^{6}}$ -->
       <g transform="translate(142.617411 41.515) scale(0.1 -0.1)">
        <defs>
         <path id="DejaVuSans-36" d="M 2113 2584 
Q 1688 2584 1439 2293 
Q 1191 2003 1191 1497 
Q 1191 994 1439 701 
Q 1688 409 2113 409 
Q 2538 409 2786 701 
Q 3034 994 3034 1497 
Q 3034 2003 2786 2293 
Q 2538 2584 2113 2584 
z
M 3366 4563 
L 3366 3988 
Q 3128 4100 2886 4159 
Q 2644 4219 2406 4219 
Q 1781 4219 1451 3797 
Q 1122 3375 1075 2522 
Q 1259 2794 1537 2939 
Q 1816 3084 2150 3084 
Q 2853 3084 3261 2657 
Q 3669 2231 3669 1497 
Q 3669 778 3244 343 
Q 2819 -91 2113 -91 
Q 1303 -91 875 529 
Q 447 1150 447 2328 
Q 447 3434 972 4092 
Q 1497 4750 2381 4750 
Q 2619 4750 2861 4703 
Q 3103 4656 3366 4563 
z
" transform="scale(0.015625)"/>
        </defs>
        <use xlink:href="#DejaVuSans-32" transform="translate(0 0.765625)"/>
        <use xlink:href="#DejaVuSans-36" transform="translate(64.580078 39.046875) scale(0.7)"/>
       </g>
      </g>
     </g>
     <g id="xtick_4">
      <g id="line2d_7">
       <g>
        <use xlink:href="#me3e6faadad" x="188.074554" y="50.594687" style="stroke: #000000; stroke-width: 0.8"/>
       </g>
      </g>
      <g id="text_4">
       <!-- $\mathdefault{2^{8}}$ -->
       <g transform="translate(182.474554 41.515) scale(0.1 -0.1)">
        <defs>
         <path id="DejaVuSans-38" d="M 2034 2216 
Q 1584 2216 1326 1975 
Q 1069 1734 1069 1313 
Q 1069 891 1326 650 
Q 1584 409 2034 409 
Q 2484 409 2743 651 
Q 3003 894 3003 1313 
Q 3003 1734 2745 1975 
Q 2488 2216 2034 2216 
z
M 1403 2484 
Q 997 2584 770 2862 
Q 544 3141 544 3541 
Q 544 4100 942 4425 
Q 1341 4750 2034 4750 
Q 2731 4750 3128 4425 
Q 3525 4100 3525 3541 
Q 3525 3141 3298 2862 
Q 3072 2584 2669 2484 
Q 3125 2378 3379 2068 
Q 3634 1759 3634 1313 
Q 3634 634 3220 271 
Q 2806 -91 2034 -91 
Q 1263 -91 848 271 
Q 434 634 434 1313 
Q 434 1759 690 2068 
Q 947 2378 1403 2484 
z
M 1172 3481 
Q 1172 3119 1398 2916 
Q 1625 2713 2034 2713 
Q 2441 2713 2670 2916 
Q 2900 3119 2900 3481 
Q 2900 3844 2670 4047 
Q 2441 4250 2034 4250 
Q 1625 4250 1398 4047 
Q 1172 3844 1172 3481 
z
" transform="scale(0.015625)"/>
        </defs>
        <use xlink:href="#DejaVuSans-32" transform="translate(0 0.765625)"/>
        <use xlink:href="#DejaVuSans-38" transform="translate(64.580078 39.046875) scale(0.7)"/>
       </g>
      </g>
     </g>
     <g id="xtick_5">
      <g id="line2d_8">
       <g>
        <use xlink:href="#me3e6faadad" x="227.931696" y="50.594687" style="stroke: #000000; stroke-width: 0.8"/>
       </g>
      </g>
      <g id="text_5">
       <!-- $\mathdefault{2^{10}}$ -->
       <g transform="translate(220.081696 41.515) scale(0.1 -0.1)">
        <defs>
         <path id="DejaVuSans-31" d="M 794 531 
L 1825 531 
L 1825 4091 
L 703 3866 
L 703 4441 
L 1819 4666 
L 2450 4666 
L 2450 531 
L 3481 531 
L 3481 0 
L 794 0 
L 794 531 
z
" transform="scale(0.015625)"/>
         <path id="DejaVuSans-30" d="M 2034 4250 
Q 1547 4250 1301 3770 
Q 1056 3291 1056 2328 
Q 1056 1369 1301 889 
Q 1547 409 2034 409 
Q 2525 409 2770 889 
Q 3016 1369 3016 2328 
Q 3016 3291 2770 3770 
Q 2525 4250 2034 4250 
z
M 2034 4750 
Q 2819 4750 3233 4129 
Q 3647 3509 3647 2328 
Q 3647 1150 3233 529 
Q 2819 -91 2034 -91 
Q 1250 -91 836 529 
Q 422 1150 422 2328 
Q 422 3509 836 4129 
Q 1250 4750 2034 4750 
z
" transform="scale(0.015625)"/>
        </defs>
        <use xlink:href="#DejaVuSans-32" transform="translate(0 0.765625)"/>
        <use xlink:href="#DejaVuSans-31" transform="translate(64.580078 39.046875) scale(0.7)"/>
        <use xlink:href="#DejaVuSans-30" transform="translate(109.116211 39.046875) scale(0.7)"/>
       </g>
      </g>
     </g>
     <g id="xtick_6">
      <g id="line2d_9">
       <g>
        <use xlink:href="#me3e6faadad" x="267.788839" y="50.594687" style="stroke: #000000; stroke-width: 0.8"/>
       </g>
      </g>
      <g id="text_6">
       <!-- $\mathdefault{2^{12}}$ -->
       <g transform="translate(259.938839 41.515) scale(0.1 -0.1)">
        <use xlink:href="#DejaVuSans-32" transform="translate(0 0.765625)"/>
        <use xlink:href="#DejaVuSans-31" transform="translate(64.580078 39.046875) scale(0.7)"/>
        <use xlink:href="#DejaVuSans-32" transform="translate(109.116211 39.046875) scale(0.7)"/>
       </g>
      </g>
     </g>
     <g id="xtick_7">
      <g id="line2d_10">
       <g>
        <use xlink:href="#me3e6faadad" x="307.645982" y="50.594687" style="stroke: #000000; stroke-width: 0.8"/>
       </g>
      </g>
      <g id="text_7">
       <!-- $\mathdefault{2^{14}}$ -->
       <g transform="translate(299.795982 41.515) scale(0.1 -0.1)">
        <use xlink:href="#DejaVuSans-32" transform="translate(0 0.684375)"/>
        <use xlink:href="#DejaVuSans-31" transform="translate(64.580078 38.965625) scale(0.7)"/>
        <use xlink:href="#DejaVuSans-34" transform="translate(109.116211 38.965625) scale(0.7)"/>
       </g>
      </g>
     </g>
     <g id="xtick_8">
      <g id="line2d_11">
       <g>
        <use xlink:href="#me3e6faadad" x="347.503125" y="50.594687" style="stroke: #000000; stroke-width: 0.8"/>
       </g>
      </g>
      <g id="text_8">
       <!-- $\mathdefault{2^{16}}$ -->
       <g transform="translate(339.653125 41.515) scale(0.1 -0.1)">
        <use xlink:href="#DejaVuSans-32" transform="translate(0 0.765625)"/>
        <use xlink:href="#DejaVuSans-31" transform="translate(64.580078 39.046875) scale(0.7)"/>
        <use xlink:href="#DejaVuSans-36" transform="translate(109.116211 39.046875) scale(0.7)"/>
       </g>
      </g>
     </g>
     <g id="xtick_9">
      <g id="line2d_12">
       <g>
        <use xlink:href="#me3e6faadad" x="387.360268" y="50.594687" style="stroke: #000000; stroke-width: 0.8"/>
       </g>
      </g>
      <g id="text_9">
       <!-- $\mathdefault{2^{18}}$ -->
       <g transform="translate(379.510268 41.515) scale(0.1 -0.1)">
        <use xlink:href="#DejaVuSans-32" transform="translate(0 0.765625)"/>
        <use xlink:href="#DejaVuSans-31" transform="translate(64.580078 39.046875) scale(0.7)"/>
        <use xlink:href="#DejaVuSans-38" transform="translate(109.116211 39.046875) scale(0.7)"/>
       </g>
      </g>
     </g>
     <g id="xtick_10">
      <g id="line2d_13">
       <g>
        <use xlink:href="#me3e6faadad" x="427.217411" y="50.594687" style="stroke: #000000; stroke-width: 0.8"/>
       </g>
      </g>
      <g id="text_10">
       <!-- $\mathdefault{2^{20}}$ -->
       <g transform="translate(419.367411 41.515) scale(0.1 -0.1)">
        <use xlink:href="#DejaVuSans-32" transform="translate(0 0.765625)"/>
        <use xlink:href="#DejaVuSans-32" transform="translate(64.580078 39.046875) scale(0.7)"/>
        <use xlink:href="#DejaVuSans-30" transform="translate(109.116211 39.046875) scale(0.7)"/>
       </g>
      </g>
     </g>
     <g id="xtick_11">
      <g id="line2d_14">
       <g>
        <use xlink:href="#me3e6faadad" x="467.074554" y="50.594687" style="stroke: #000000; stroke-width: 0.8"/>
       </g>
      </g>
      <g id="text_11">
       <!-- $\mathdefault{2^{22}}$ -->
       <g transform="translate(459.224554 41.515) scale(0.1 -0.1)">
        <use xlink:href="#DejaVuSans-32" transform="translate(0 0.765625)"/>
        <use xlink:href="#DejaVuSans-32" transform="translate(64.580078 39.046875) scale(0.7)"/>
        <use xlink:href="#DejaVuSans-32" transform="translate(109.116211 39.046875) scale(0.7)"/>
       </g>
      </g>
     </g>
     <g id="xtick_12">
      <g id="line2d_15">
       <g>
        <use xlink:href="#me3e6faadad" x="506.931696" y="50.594687" style="stroke: #000000; stroke-width: 0.8"/>
       </g>
      </g>
      <g id="text_12">
       <!-- $\mathdefault{2^{24}}$ -->
       <g transform="translate(499.081696 41.515) scale(0.1 -0.1)">
        <use xlink:href="#DejaVuSans-32" transform="translate(0 0.765625)"/>
        <use xlink:href="#DejaVuSans-32" transform="translate(64.580078 39.046875) scale(0.7)"/>
        <use xlink:href="#DejaVuSans-34" transform="translate(109.116211 39.046875) scale(0.7)"/>
       </g>
      </g>
     </g>
     <g id="xtick_13">
      <g id="line2d_16">
       <g>
        <use xlink:href="#me3e6faadad" x="546.788839" y="50.594687" style="stroke: #000000; stroke-width: 0.8"/>
       </g>
      </g>
      <g id="text_13">
       <!-- $\mathdefault{2^{26}}$ -->
       <g transform="translate(538.938839 41.515) scale(0.1 -0.1)">
        <use xlink:href="#DejaVuSans-32" transform="translate(0 0.765625)"/>
        <use xlink:href="#DejaVuSans-32" transform="translate(64.580078 39.046875) scale(0.7)"/>
        <use xlink:href="#DejaVuSans-36" transform="translate(109.116211 39.046875) scale(0.7)"/>
       </g>
      </g>
     </g>
     <g id="xtick_14">
      <g id="line2d_17">
       <g>
        <use xlink:href="#me3e6faadad" x="586.645982" y="50.594687" style="stroke: #000000; stroke-width: 0.8"/>
       </g>
      </g>
      <g id="text_14">
       <!-- $\mathdefault{2^{28}}$ -->
       <g transform="translate(578.795982 41.515) scale(0.1 -0.1)">
        <use xlink:href="#DejaVuSans-32" transform="translate(0 0.765625)"/>
        <use xlink:href="#DejaVuSans-32" transform="translate(64.580078 39.046875) scale(0.7)"/>
        <use xlink:href="#DejaVuSans-38" transform="translate(109.116211 39.046875) scale(0.7)"/>
       </g>
      </g>
     </g>
     <g id="xtick_15">
      <g id="line2d_18">
       <g>
        <use xlink:href="#me3e6faadad" x="626.503125" y="50.594687" style="stroke: #000000; stroke-width: 0.8"/>
       </g>
      </g>
      <g id="text_15">
       <!-- $\mathdefault{2^{30}}$ -->
       <g transform="translate(618.653125 41.515) scale(0.1 -0.1)">
        <defs>
         <path id="DejaVuSans-33" d="M 2597 2516 
Q 3050 2419 3304 2112 
Q 3559 1806 3559 1356 
Q 3559 666 3084 287 
Q 2609 -91 1734 -91 
Q 1441 -91 1130 -33 
Q 819 25 488 141 
L 488 750 
Q 750 597 1062 519 
Q 1375 441 1716 441 
Q 2309 441 2620 675 
Q 2931 909 2931 1356 
Q 2931 1769 2642 2001 
Q 2353 2234 1838 2234 
L 1294 2234 
L 1294 2753 
L 1863 2753 
Q 2328 2753 2575 2939 
Q 2822 3125 2822 3475 
Q 2822 3834 2567 4026 
Q 2313 4219 1838 4219 
Q 1578 4219 1281 4162 
Q 984 4106 628 3988 
L 628 4550 
Q 988 4650 1302 4700 
Q 1616 4750 1894 4750 
Q 2613 4750 3031 4423 
Q 3450 4097 3450 3541 
Q 3450 3153 3228 2886 
Q 3006 2619 2597 2516 
z
" transform="scale(0.015625)"/>
        </defs>
        <use xlink:href="#DejaVuSans-32" transform="translate(0 0.765625)"/>
        <use xlink:href="#DejaVuSans-33" transform="translate(64.580078 39.046875) scale(0.7)"/>
        <use xlink:href="#DejaVuSans-30" transform="translate(109.116211 39.046875) scale(0.7)"/>
       </g>
      </g>
     </g>
     <g id="text_16">
      <!-- Array length (u32) -->
      <g transform="translate(301.4875 29.916562) scale(0.1 -0.1)">
       <defs>
        <path id="DejaVuSans-41" d="M 2188 4044 
L 1331 1722 
L 3047 1722 
L 2188 4044 
z
M 1831 4666 
L 2547 4666 
L 4325 0 
L 3669 0 
L 3244 1197 
L 1141 1197 
L 716 0 
L 50 0 
L 1831 4666 
z
" transform="scale(0.015625)"/>
        <path id="DejaVuSans-72" d="M 2631 2963 
Q 2534 3019 2420 3045 
Q 2306 3072 2169 3072 
Q 1681 3072 1420 2755 
Q 1159 2438 1159 1844 
L 1159 0 
L 581 0 
L 581 3500 
L 1159 3500 
L 1159 2956 
Q 1341 3275 1631 3429 
Q 1922 3584 2338 3584 
Q 2397 3584 2469 3576 
Q 2541 3569 2628 3553 
L 2631 2963 
z
" transform="scale(0.015625)"/>
        <path id="DejaVuSans-61" d="M 2194 1759 
Q 1497 1759 1228 1600 
Q 959 1441 959 1056 
Q 959 750 1161 570 
Q 1363 391 1709 391 
Q 2188 391 2477 730 
Q 2766 1069 2766 1631 
L 2766 1759 
L 2194 1759 
z
M 3341 1997 
L 3341 0 
L 2766 0 
L 2766 531 
Q 2569 213 2275 61 
Q 1981 -91 1556 -91 
Q 1019 -91 701 211 
Q 384 513 384 1019 
Q 384 1609 779 1909 
Q 1175 2209 1959 2209 
L 2766 2209 
L 2766 2266 
Q 2766 2663 2505 2880 
Q 2244 3097 1772 3097 
Q 1472 3097 1187 3025 
Q 903 2953 641 2809 
L 641 3341 
Q 956 3463 1253 3523 
Q 1550 3584 1831 3584 
Q 2591 3584 2966 3190 
Q 3341 2797 3341 1997 
z
" transform="scale(0.015625)"/>
        <path id="DejaVuSans-79" d="M 2059 -325 
Q 1816 -950 1584 -1140 
Q 1353 -1331 966 -1331 
L 506 -1331 
L 506 -850 
L 844 -850 
Q 1081 -850 1212 -737 
Q 1344 -625 1503 -206 
L 1606 56 
L 191 3500 
L 800 3500 
L 1894 763 
L 2988 3500 
L 3597 3500 
L 2059 -325 
z
" transform="scale(0.015625)"/>
        <path id="DejaVuSans-20" transform="scale(0.015625)"/>
        <path id="DejaVuSans-6c" d="M 603 4863 
L 1178 4863 
L 1178 0 
L 603 0 
L 603 4863 
z
" transform="scale(0.015625)"/>
        <path id="DejaVuSans-65" d="M 3597 1894 
L 3597 1613 
L 953 1613 
Q 991 1019 1311 708 
Q 1631 397 2203 397 
Q 2534 397 2845 478 
Q 3156 559 3463 722 
L 3463 178 
Q 3153 47 2828 -22 
Q 2503 -91 2169 -91 
Q 1331 -91 842 396 
Q 353 884 353 1716 
Q 353 2575 817 3079 
Q 1281 3584 2069 3584 
Q 2775 3584 3186 3129 
Q 3597 2675 3597 1894 
z
M 3022 2063 
Q 3016 2534 2758 2815 
Q 2500 3097 2075 3097 
Q 1594 3097 1305 2825 
Q 1016 2553 972 2059 
L 3022 2063 
z
" transform="scale(0.015625)"/>
        <path id="DejaVuSans-6e" d="M 3513 2113 
L 3513 0 
L 2938 0 
L 2938 2094 
Q 2938 2591 2744 2837 
Q 2550 3084 2163 3084 
Q 1697 3084 1428 2787 
Q 1159 2491 1159 1978 
L 1159 0 
L 581 0 
L 581 3500 
L 1159 3500 
L 1159 2956 
Q 1366 3272 1645 3428 
Q 1925 3584 2291 3584 
Q 2894 3584 3203 3211 
Q 3513 2838 3513 2113 
z
" transform="scale(0.015625)"/>
        <path id="DejaVuSans-67" d="M 2906 1791 
Q 2906 2416 2648 2759 
Q 2391 3103 1925 3103 
Q 1463 3103 1205 2759 
Q 947 2416 947 1791 
Q 947 1169 1205 825 
Q 1463 481 1925 481 
Q 2391 481 2648 825 
Q 2906 1169 2906 1791 
z
M 3481 434 
Q 3481 -459 3084 -895 
Q 2688 -1331 1869 -1331 
Q 1566 -1331 1297 -1286 
Q 1028 -1241 775 -1147 
L 775 -588 
Q 1028 -725 1275 -790 
Q 1522 -856 1778 -856 
Q 2344 -856 2625 -561 
Q 2906 -266 2906 331 
L 2906 616 
Q 2728 306 2450 153 
Q 2172 0 1784 0 
Q 1141 0 747 490 
Q 353 981 353 1791 
Q 353 2603 747 3093 
Q 1141 3584 1784 3584 
Q 2172 3584 2450 3431 
Q 2728 3278 2906 2969 
L 2906 3500 
L 3481 3500 
L 3481 434 
z
" transform="scale(0.015625)"/>
        <path id="DejaVuSans-74" d="M 1172 4494 
L 1172 3500 
L 2356 3500 
L 2356 3053 
L 1172 3053 
L 1172 1153 
Q 1172 725 1289 603 
Q 1406 481 1766 481 
L 2356 481 
L 2356 0 
L 1766 0 
Q 1100 0 847 248 
Q 594 497 594 1153 
L 594 3053 
L 172 3053 
L 172 3500 
L 594 3500 
L 594 4494 
L 1172 4494 
z
" transform="scale(0.015625)"/>
        <path id="DejaVuSans-68" d="M 3513 2113 
L 3513 0 
L 2938 0 
L 2938 2094 
Q 2938 2591 2744 2837 
Q 2550 3084 2163 3084 
Q 1697 3084 1428 2787 
Q 1159 2491 1159 1978 
L 1159 0 
L 581 0 
L 581 4863 
L 1159 4863 
L 1159 2956 
Q 1366 3272 1645 3428 
Q 1925 3584 2291 3584 
Q 2894 3584 3203 3211 
Q 3513 2838 3513 2113 
z
" transform="scale(0.015625)"/>
        <path id="DejaVuSans-28" d="M 1984 4856 
Q 1566 4138 1362 3434 
Q 1159 2731 1159 2009 
Q 1159 1288 1364 580 
Q 1569 -128 1984 -844 
L 1484 -844 
Q 1016 -109 783 600 
Q 550 1309 550 2009 
Q 550 2706 781 3412 
Q 1013 4119 1484 4856 
L 1984 4856 
z
" transform="scale(0.015625)"/>
        <path id="DejaVuSans-75" d="M 544 1381 
L 544 3500 
L 1119 3500 
L 1119 1403 
Q 1119 906 1312 657 
Q 1506 409 1894 409 
Q 2359 409 2629 706 
Q 2900 1003 2900 1516 
L 2900 3500 
L 3475 3500 
L 3475 0 
L 2900 0 
L 2900 538 
Q 2691 219 2414 64 
Q 2138 -91 1772 -91 
Q 1169 -91 856 284 
Q 544 659 544 1381 
z
M 1991 3584 
L 1991 3584 
z
" transform="scale(0.015625)"/>
        <path id="DejaVuSans-29" d="M 513 4856 
L 1013 4856 
Q 1481 4119 1714 3412 
Q 1947 2706 1947 2009 
Q 1947 1309 1714 600 
Q 1481 -109 1013 -844 
L 513 -844 
Q 928 -128 1133 580 
Q 1338 1288 1338 2009 
Q 1338 2731 1133 3434 
Q 928 4138 513 4856 
z
" transform="scale(0.015625)"/>
       </defs>
       <use xlink:href="#DejaVuSans-41"/>
       <use xlink:href="#DejaVuSans-72" x="68.408203"/>
       <use xlink:href="#DejaVuSans-72" x="107.771484"/>
       <use xlink:href="#DejaVuSans-61" x="148.884766"/>
       <use xlink:href="#DejaVuSans-79" x="210.164062"/>
       <use xlink:href="#DejaVuSans-20" x="269.34375"/>
       <use xlink:href="#DejaVuSans-6c" x="301.130859"/>
       <use xlink:href="#DejaVuSans-65" x="328.914062"/>
       <use xlink:href="#DejaVuSans-6e" x="390.4375"/>
       <use xlink:href="#DejaVuSans-67" x="453.816406"/>
       <use xlink:href="#DejaVuSans-74" x="517.292969"/>
       <use xlink:href="#DejaVuSans-68" x="556.501953"/>
       <use xlink:href="#DejaVuSans-20" x="619.880859"/>
       <use xlink:href="#DejaVuSans-28" x="651.667969"/>
       <use xlink:href="#DejaVuSans-75" x="690.681641"/>
       <use xlink:href="#DejaVuSans-33" x="754.060547"/>
       <use xlink:href="#DejaVuSans-32" x="817.683594"/>
       <use xlink:href="#DejaVuSans-29" x="881.306641"/>
      </g>
     </g>
    </g>
    <g id="matplotlib.axis_2"/>
    <g id="patch_4">
     <path d="M 40.603125 50.594687 
L 654.403125 50.594687 
" style="fill: none; stroke: #000000; stroke-width: 0.8; stroke-linejoin: miter; stroke-linecap: square"/>
    </g>
   </g>
   <g id="matplotlib.axis_3">
    <g id="xtick_16">
     <g id="line2d_19">
      <path d="M 68.503125 494.114688 
L 68.503125 50.594688 
" clip-path="url(#p1ee18a4026)" style="fill: none; stroke: #b0b0b0; stroke-opacity: 0.4; stroke-width: 0.8; stroke-linecap: square"/>
     </g>
     <g id="line2d_20">
      <defs>
       <path id="m64dc3724e3" d="M 0 0 
L 0 3.5 
" style="stroke: #000000; stroke-width: 0.8"/>
      </defs>
      <g>
       <use xlink:href="#m64dc3724e3" x="68.503125" y="494.114688" style="stroke: #000000; stroke-width: 0.8"/>
      </g>
     </g>
     <g id="text_17">
      <!-- $\mathdefault{2^{4}}$ -->
      <g transform="translate(62.903125 508.713125) scale(0.1 -0.1)">
       <use xlink:href="#DejaVuSans-32" transform="translate(0 0.684375)"/>
       <use xlink:href="#DejaVuSans-34" transform="translate(64.580078 38.965625) scale(0.7)"/>
      </g>
     </g>
    </g>
    <g id="xtick_17">
     <g id="line2d_21">
      <path d="M 108.360268 494.114688 
L 108.360268 50.594688 
" clip-path="url(#p1ee18a4026)" style="fill: none; stroke: #b0b0b0; stroke-opacity: 0.4; stroke-width: 0.8; stroke-linecap: square"/>
     </g>
     <g id="line2d_22">
      <g>
       <use xlink:href="#m64dc3724e3" x="108.360268" y="494.114688" style="stroke: #000000; stroke-width: 0.8"/>
      </g>
     </g>
     <g id="text_18">
      <!-- $\mathdefault{2^{6}}$ -->
      <g transform="translate(102.760268 508.713125) scale(0.1 -0.1)">
       <use xlink:href="#DejaVuSans-32" transform="translate(0 0.765625)"/>
       <use xlink:href="#DejaVuSans-36" transform="translate(64.580078 39.046875) scale(0.7)"/>
      </g>
     </g>
    </g>
    <g id="xtick_18">
     <g id="line2d_23">
      <path d="M 148.217411 494.114688 
L 148.217411 50.594688 
" clip-path="url(#p1ee18a4026)" style="fill: none; stroke: #b0b0b0; stroke-opacity: 0.4; stroke-width: 0.8; stroke-linecap: square"/>
     </g>
     <g id="line2d_24">
      <g>
       <use xlink:href="#m64dc3724e3" x="148.217411" y="494.114688" style="stroke: #000000; stroke-width: 0.8"/>
      </g>
     </g>
     <g id="text_19">
      <!-- $\mathdefault{2^{8}}$ -->
      <g transform="translate(142.617411 508.713125) scale(0.1 -0.1)">
       <use xlink:href="#DejaVuSans-32" transform="translate(0 0.765625)"/>
       <use xlink:href="#DejaVuSans-38" transform="translate(64.580078 39.046875) scale(0.7)"/>
      </g>
     </g>
    </g>
    <g id="xtick_19">
     <g id="line2d_25">
      <path d="M 188.074554 494.114688 
L 188.074554 50.594688 
" clip-path="url(#p1ee18a4026)" style="fill: none; stroke: #b0b0b0; stroke-opacity: 0.4; stroke-width: 0.8; stroke-linecap: square"/>
     </g>
     <g id="line2d_26">
      <g>
       <use xlink:href="#m64dc3724e3" x="188.074554" y="494.114688" style="stroke: #000000; stroke-width: 0.8"/>
      </g>
     </g>
     <g id="text_20">
      <!-- $\mathdefault{2^{10}}$ -->
      <g transform="translate(180.224554 508.713125) scale(0.1 -0.1)">
       <use xlink:href="#DejaVuSans-32" transform="translate(0 0.765625)"/>
       <use xlink:href="#DejaVuSans-31" transform="translate(64.580078 39.046875) scale(0.7)"/>
       <use xlink:href="#DejaVuSans-30" transform="translate(109.116211 39.046875) scale(0.7)"/>
      </g>
     </g>
    </g>
    <g id="xtick_20">
     <g id="line2d_27">
      <path d="M 227.931696 494.114688 
L 227.931696 50.594688 
" clip-path="url(#p1ee18a4026)" style="fill: none; stroke: #b0b0b0; stroke-opacity: 0.4; stroke-width: 0.8; stroke-linecap: square"/>
     </g>
     <g id="line2d_28">
      <g>
       <use xlink:href="#m64dc3724e3" x="227.931696" y="494.114688" style="stroke: #000000; stroke-width: 0.8"/>
      </g>
     </g>
     <g id="text_21">
      <!-- $\mathdefault{2^{12}}$ -->
      <g transform="translate(220.081696 508.713125) scale(0.1 -0.1)">
       <use xlink:href="#DejaVuSans-32" transform="translate(0 0.765625)"/>
       <use xlink:href="#DejaVuSans-31" transform="translate(64.580078 39.046875) scale(0.7)"/>
       <use xlink:href="#DejaVuSans-32" transform="translate(109.116211 39.046875) scale(0.7)"/>
      </g>
     </g>
    </g>
    <g id="xtick_21">
     <g id="line2d_29">
      <path d="M 267.788839 494.114688 
L 267.788839 50.594688 
" clip-path="url(#p1ee18a4026)" style="fill: none; stroke: #b0b0b0; stroke-opacity: 0.4; stroke-width: 0.8; stroke-linecap: square"/>
     </g>
     <g id="line2d_30">
      <g>
       <use xlink:href="#m64dc3724e3" x="267.788839" y="494.114688" style="stroke: #000000; stroke-width: 0.8"/>
      </g>
     </g>
     <g id="text_22">
      <!-- $\mathdefault{2^{14}}$ -->
      <g transform="translate(259.938839 508.713125) scale(0.1 -0.1)">
       <use xlink:href="#DejaVuSans-32" transform="translate(0 0.684375)"/>
       <use xlink:href="#DejaVuSans-31" transform="translate(64.580078 38.965625) scale(0.7)"/>
       <use xlink:href="#DejaVuSans-34" transform="translate(109.116211 38.965625) scale(0.7)"/>
      </g>
     </g>
    </g>
    <g id="xtick_22">
     <g id="line2d_31">
      <path d="M 307.645982 494.114688 
L 307.645982 50.594688 
" clip-path="url(#p1ee18a4026)" style="fill: none; stroke: #b0b0b0; stroke-opacity: 0.4; stroke-width: 0.8; stroke-linecap: square"/>
     </g>
     <g id="line2d_32">
      <g>
       <use xlink:href="#m64dc3724e3" x="307.645982" y="494.114688" style="stroke: #000000; stroke-width: 0.8"/>
      </g>
     </g>
     <g id="text_23">
      <!-- $\mathdefault{2^{16}}$ -->
      <g transform="translate(299.795982 508.713125) scale(0.1 -0.1)">
       <use xlink:href="#DejaVuSans-32" transform="translate(0 0.765625)"/>
       <use xlink:href="#DejaVuSans-31" transform="translate(64.580078 39.046875) scale(0.7)"/>
       <use xlink:href="#DejaVuSans-36" transform="translate(109.116211 39.046875) scale(0.7)"/>
      </g>
     </g>
    </g>
    <g id="xtick_23">
     <g id="line2d_33">
      <path d="M 347.503125 494.114688 
L 347.503125 50.594688 
" clip-path="url(#p1ee18a4026)" style="fill: none; stroke: #b0b0b0; stroke-opacity: 0.4; stroke-width: 0.8; stroke-linecap: square"/>
     </g>
     <g id="line2d_34">
      <g>
       <use xlink:href="#m64dc3724e3" x="347.503125" y="494.114688" style="stroke: #000000; stroke-width: 0.8"/>
      </g>
     </g>
     <g id="text_24">
      <!-- $\mathdefault{2^{18}}$ -->
      <g transform="translate(339.653125 508.713125) scale(0.1 -0.1)">
       <use xlink:href="#DejaVuSans-32" transform="translate(0 0.765625)"/>
       <use xlink:href="#DejaVuSans-31" transform="translate(64.580078 39.046875) scale(0.7)"/>
       <use xlink:href="#DejaVuSans-38" transform="translate(109.116211 39.046875) scale(0.7)"/>
      </g>
     </g>
    </g>
    <g id="xtick_24">
     <g id="line2d_35">
      <path d="M 387.360268 494.114688 
L 387.360268 50.594688 
" clip-path="url(#p1ee18a4026)" style="fill: none; stroke: #b0b0b0; stroke-opacity: 0.4; stroke-width: 0.8; stroke-linecap: square"/>
     </g>
     <g id="line2d_36">
      <g>
       <use xlink:href="#m64dc3724e3" x="387.360268" y="494.114688" style="stroke: #000000; stroke-width: 0.8"/>
      </g>
     </g>
     <g id="text_25">
      <!-- $\mathdefault{2^{20}}$ -->
      <g transform="translate(379.510268 508.713125) scale(0.1 -0.1)">
       <use xlink:href="#DejaVuSans-32" transform="translate(0 0.765625)"/>
       <use xlink:href="#DejaVuSans-32" transform="translate(64.580078 39.046875) scale(0.7)"/>
       <use xlink:href="#DejaVuSans-30" transform="translate(109.116211 39.046875) scale(0.7)"/>
      </g>
     </g>
    </g>
    <g id="xtick_25">
     <g id="line2d_37">
      <path d="M 427.217411 494.114688 
L 427.217411 50.594688 
" clip-path="url(#p1ee18a4026)" style="fill: none; stroke: #b0b0b0; stroke-opacity: 0.4; stroke-width: 0.8; stroke-linecap: square"/>
     </g>
     <g id="line2d_38">
      <g>
       <use xlink:href="#m64dc3724e3" x="427.217411" y="494.114688" style="stroke: #000000; stroke-width: 0.8"/>
      </g>
     </g>
     <g id="text_26">
      <!-- $\mathdefault{2^{22}}$ -->
      <g transform="translate(419.367411 508.713125) scale(0.1 -0.1)">
       <use xlink:href="#DejaVuSans-32" transform="translate(0 0.765625)"/>
       <use xlink:href="#DejaVuSans-32" transform="translate(64.580078 39.046875) scale(0.7)"/>
       <use xlink:href="#DejaVuSans-32" transform="translate(109.116211 39.046875) scale(0.7)"/>
      </g>
     </g>
    </g>
    <g id="xtick_26">
     <g id="line2d_39">
      <path d="M 467.074554 494.114688 
L 467.074554 50.594688 
" clip-path="url(#p1ee18a4026)" style="fill: none; stroke: #b0b0b0; stroke-opacity: 0.4; stroke-width: 0.8; stroke-linecap: square"/>
     </g>
     <g id="line2d_40">
      <g>
       <use xlink:href="#m64dc3724e3" x="467.074554" y="494.114688" style="stroke: #000000; stroke-width: 0.8"/>
      </g>
     </g>
     <g id="text_27">
      <!-- $\mathdefault{2^{24}}$ -->
      <g transform="translate(459.224554 508.713125) scale(0.1 -0.1)">
       <use xlink:href="#DejaVuSans-32" transform="translate(0 0.765625)"/>
       <use xlink:href="#DejaVuSans-32" transform="translate(64.580078 39.046875) scale(0.7)"/>
       <use xlink:href="#DejaVuSans-34" transform="translate(109.116211 39.046875) scale(0.7)"/>
      </g>
     </g>
    </g>
    <g id="xtick_27">
     <g id="line2d_41">
      <path d="M 506.931696 494.114688 
L 506.931696 50.594688 
" clip-path="url(#p1ee18a4026)" style="fill: none; stroke: #b0b0b0; stroke-opacity: 0.4; stroke-width: 0.8; stroke-linecap: square"/>
     </g>
     <g id="line2d_42">
      <g>
       <use xlink:href="#m64dc3724e3" x="506.931696" y="494.114688" style="stroke: #000000; stroke-width: 0.8"/>
      </g>
     </g>
     <g id="text_28">
      <!-- $\mathdefault{2^{26}}$ -->
      <g transform="translate(499.081696 508.713125) scale(0.1 -0.1)">
       <use xlink:href="#DejaVuSans-32" transform="translate(0 0.765625)"/>
       <use xlink:href="#DejaVuSans-32" transform="translate(64.580078 39.046875) scale(0.7)"/>
       <use xlink:href="#DejaVuSans-36" transform="translate(109.116211 39.046875) scale(0.7)"/>
      </g>
     </g>
    </g>
    <g id="xtick_28">
     <g id="line2d_43">
      <path d="M 546.788839 494.114688 
L 546.788839 50.594688 
" clip-path="url(#p1ee18a4026)" style="fill: none; stroke: #b0b0b0; stroke-opacity: 0.4; stroke-width: 0.8; stroke-linecap: square"/>
     </g>
     <g id="line2d_44">
      <g>
       <use xlink:href="#m64dc3724e3" x="546.788839" y="494.114688" style="stroke: #000000; stroke-width: 0.8"/>
      </g>
     </g>
     <g id="text_29">
      <!-- $\mathdefault{2^{28}}$ -->
      <g transform="translate(538.938839 508.713125) scale(0.1 -0.1)">
       <use xlink:href="#DejaVuSans-32" transform="translate(0 0.765625)"/>
       <use xlink:href="#DejaVuSans-32" transform="translate(64.580078 39.046875) scale(0.7)"/>
       <use xlink:href="#DejaVuSans-38" transform="translate(109.116211 39.046875) scale(0.7)"/>
      </g>
     </g>
    </g>
    <g id="xtick_29">
     <g id="line2d_45">
      <path d="M 586.645982 494.114688 
L 586.645982 50.594688 
" clip-path="url(#p1ee18a4026)" style="fill: none; stroke: #b0b0b0; stroke-opacity: 0.4; stroke-width: 0.8; stroke-linecap: square"/>
     </g>
     <g id="line2d_46">
      <g>
       <use xlink:href="#m64dc3724e3" x="586.645982" y="494.114688" style="stroke: #000000; stroke-width: 0.8"/>
      </g>
     </g>
     <g id="text_30">
      <!-- $\mathdefault{2^{30}}$ -->
      <g transform="translate(578.795982 508.713125) scale(0.1 -0.1)">
       <use xlink:href="#DejaVuSans-32" transform="translate(0 0.765625)"/>
       <use xlink:href="#DejaVuSans-33" transform="translate(64.580078 39.046875) scale(0.7)"/>
       <use xlink:href="#DejaVuSans-30" transform="translate(109.116211 39.046875) scale(0.7)"/>
      </g>
     </g>
    </g>
    <g id="xtick_30">
     <g id="line2d_47">
      <path d="M 626.503125 494.114688 
L 626.503125 50.594688 
" clip-path="url(#p1ee18a4026)" style="fill: none; stroke: #b0b0b0; stroke-opacity: 0.4; stroke-width: 0.8; stroke-linecap: square"/>
     </g>
     <g id="line2d_48">
      <g>
       <use xlink:href="#m64dc3724e3" x="626.503125" y="494.114688" style="stroke: #000000; stroke-width: 0.8"/>
      </g>
     </g>
     <g id="text_31">
      <!-- $\mathdefault{2^{32}}$ -->
      <g transform="translate(618.653125 508.713125) scale(0.1 -0.1)">
       <use xlink:href="#DejaVuSans-32" transform="translate(0 0.765625)"/>
       <use xlink:href="#DejaVuSans-33" transform="translate(64.580078 39.046875) scale(0.7)"/>
       <use xlink:href="#DejaVuSans-32" transform="translate(109.116211 39.046875) scale(0.7)"/>
      </g>
     </g>
    </g>
    <g id="text_32">
     <!-- Input size (bytes) -->
     <g transform="translate(304.007031 522.39125) scale(0.1 -0.1)">
      <defs>
       <path id="DejaVuSans-49" d="M 628 4666 
L 1259 4666 
L 1259 0 
L 628 0 
L 628 4666 
z
" transform="scale(0.015625)"/>
       <path id="DejaVuSans-70" d="M 1159 525 
L 1159 -1331 
L 581 -1331 
L 581 3500 
L 1159 3500 
L 1159 2969 
Q 1341 3281 1617 3432 
Q 1894 3584 2278 3584 
Q 2916 3584 3314 3078 
Q 3713 2572 3713 1747 
Q 3713 922 3314 415 
Q 2916 -91 2278 -91 
Q 1894 -91 1617 61 
Q 1341 213 1159 525 
z
M 3116 1747 
Q 3116 2381 2855 2742 
Q 2594 3103 2138 3103 
Q 1681 3103 1420 2742 
Q 1159 2381 1159 1747 
Q 1159 1113 1420 752 
Q 1681 391 2138 391 
Q 2594 391 2855 752 
Q 3116 1113 3116 1747 
z
" transform="scale(0.015625)"/>
       <path id="DejaVuSans-73" d="M 2834 3397 
L 2834 2853 
Q 2591 2978 2328 3040 
Q 2066 3103 1784 3103 
Q 1356 3103 1142 2972 
Q 928 2841 928 2578 
Q 928 2378 1081 2264 
Q 1234 2150 1697 2047 
L 1894 2003 
Q 2506 1872 2764 1633 
Q 3022 1394 3022 966 
Q 3022 478 2636 193 
Q 2250 -91 1575 -91 
Q 1294 -91 989 -36 
Q 684 19 347 128 
L 347 722 
Q 666 556 975 473 
Q 1284 391 1588 391 
Q 1994 391 2212 530 
Q 2431 669 2431 922 
Q 2431 1156 2273 1281 
Q 2116 1406 1581 1522 
L 1381 1569 
Q 847 1681 609 1914 
Q 372 2147 372 2553 
Q 372 3047 722 3315 
Q 1072 3584 1716 3584 
Q 2034 3584 2315 3537 
Q 2597 3491 2834 3397 
z
" transform="scale(0.015625)"/>
       <path id="DejaVuSans-69" d="M 603 3500 
L 1178 3500 
L 1178 0 
L 603 0 
L 603 3500 
z
M 603 4863 
L 1178 4863 
L 1178 4134 
L 603 4134 
L 603 4863 
z
" transform="scale(0.015625)"/>
       <path id="DejaVuSans-7a" d="M 353 3500 
L 3084 3500 
L 3084 2975 
L 922 459 
L 3084 459 
L 3084 0 
L 275 0 
L 275 525 
L 2438 3041 
L 353 3041 
L 353 3500 
z
" transform="scale(0.015625)"/>
       <path id="DejaVuSans-62" d="M 3116 1747 
Q 3116 2381 2855 2742 
Q 2594 3103 2138 3103 
Q 1681 3103 1420 2742 
Q 1159 2381 1159 1747 
Q 1159 1113 1420 752 
Q 1681 391 2138 391 
Q 2594 391 2855 752 
Q 3116 1113 3116 1747 
z
M 1159 2969 
Q 1341 3281 1617 3432 
Q 1894 3584 2278 3584 
Q 2916 3584 3314 3078 
Q 3713 2572 3713 1747 
Q 3713 922 3314 415 
Q 2916 -91 2278 -91 
Q 1894 -91 1617 61 
Q 1341 213 1159 525 
L 1159 0 
L 581 0 
L 581 4863 
L 1159 4863 
L 1159 2969 
z
" transform="scale(0.015625)"/>
      </defs>
      <use xlink:href="#DejaVuSans-49"/>
      <use xlink:href="#DejaVuSans-6e" x="29.492188"/>
      <use xlink:href="#DejaVuSans-70" x="92.871094"/>
      <use xlink:href="#DejaVuSans-75" x="156.347656"/>
      <use xlink:href="#DejaVuSans-74" x="219.726562"/>
      <use xlink:href="#DejaVuSans-20" x="258.935547"/>
      <use xlink:href="#DejaVuSans-73" x="290.722656"/>
      <use xlink:href="#DejaVuSans-69" x="342.822266"/>
      <use xlink:href="#DejaVuSans-7a" x="370.605469"/>
      <use xlink:href="#DejaVuSans-65" x="423.095703"/>
      <use xlink:href="#DejaVuSans-20" x="484.619141"/>
      <use xlink:href="#DejaVuSans-28" x="516.40625"/>
      <use xlink:href="#DejaVuSans-62" x="555.419922"/>
      <use xlink:href="#DejaVuSans-79" x="618.896484"/>
      <use xlink:href="#DejaVuSans-74" x="678.076172"/>
      <use xlink:href="#DejaVuSans-65" x="717.285156"/>
      <use xlink:href="#DejaVuSans-73" x="778.808594"/>
      <use xlink:href="#DejaVuSans-29" x="830.908203"/>
     </g>
    </g>
   </g>
   <g id="matplotlib.axis_4">
    <g id="ytick_1">
     <g id="line2d_49">
      <path d="M 40.603125 494.114688 
L 654.403125 494.114688 
" clip-path="url(#p1ee18a4026)" style="fill: none; stroke: #b0b0b0; stroke-opacity: 0.4; stroke-width: 0.8; stroke-linecap: square"/>
     </g>
     <g id="line2d_50">
      <defs>
       <path id="mf91c5f9811" d="M 0 0 
L -3.5 0 
" style="stroke: #000000; stroke-width: 0.8"/>
      </defs>
      <g>
       <use xlink:href="#mf91c5f9811" x="40.603125" y="494.114688" style="stroke: #000000; stroke-width: 0.8"/>
      </g>
     </g>
     <g id="text_33">
      <!-- 0 -->
      <g transform="translate(27.240625 497.913906) scale(0.1 -0.1)">
       <use xlink:href="#DejaVuSans-30"/>
      </g>
     </g>
    </g>
    <g id="ytick_2">
     <g id="line2d_51">
      <path d="M 40.603125 420.194688 
L 654.403125 420.194688 
" clip-path="url(#p1ee18a4026)" style="fill: none; stroke: #b0b0b0; stroke-opacity: 0.4; stroke-width: 0.8; stroke-linecap: square"/>
     </g>
     <g id="line2d_52">
      <g>
       <use xlink:href="#mf91c5f9811" x="40.603125" y="420.194688" style="stroke: #000000; stroke-width: 0.8"/>
      </g>
     </g>
     <g id="text_34">
      <!-- 5 -->
      <g transform="translate(27.240625 423.993906) scale(0.1 -0.1)">
       <defs>
        <path id="DejaVuSans-35" d="M 691 4666 
L 3169 4666 
L 3169 4134 
L 1269 4134 
L 1269 2991 
Q 1406 3038 1543 3061 
Q 1681 3084 1819 3084 
Q 2600 3084 3056 2656 
Q 3513 2228 3513 1497 
Q 3513 744 3044 326 
Q 2575 -91 1722 -91 
Q 1428 -91 1123 -41 
Q 819 9 494 109 
L 494 744 
Q 775 591 1075 516 
Q 1375 441 1709 441 
Q 2250 441 2565 725 
Q 2881 1009 2881 1497 
Q 2881 1984 2565 2268 
Q 2250 2553 1709 2553 
Q 1456 2553 1204 2497 
Q 953 2441 691 2322 
L 691 4666 
z
" transform="scale(0.015625)"/>
       </defs>
       <use xlink:href="#DejaVuSans-35"/>
      </g>
     </g>
    </g>
    <g id="ytick_3">
     <g id="line2d_53">
      <path d="M 40.603125 346.274688 
L 654.403125 346.274688 
" clip-path="url(#p1ee18a4026)" style="fill: none; stroke: #b0b0b0; stroke-opacity: 0.4; stroke-width: 0.8; stroke-linecap: square"/>
     </g>
     <g id="line2d_54">
      <g>
       <use xlink:href="#mf91c5f9811" x="40.603125" y="346.274688" style="stroke: #000000; stroke-width: 0.8"/>
      </g>
     </g>
     <g id="text_35">
      <!-- 10 -->
      <g transform="translate(20.878125 350.073906) scale(0.1 -0.1)">
       <use xlink:href="#DejaVuSans-31"/>
       <use xlink:href="#DejaVuSans-30" x="63.623047"/>
      </g>
     </g>
    </g>
    <g id="ytick_4">
     <g id="line2d_55">
      <path d="M 40.603125 272.354688 
L 654.403125 272.354688 
" clip-path="url(#p1ee18a4026)" style="fill: none; stroke: #b0b0b0; stroke-opacity: 0.4; stroke-width: 0.8; stroke-linecap: square"/>
     </g>
     <g id="line2d_56">
      <g>
       <use xlink:href="#mf91c5f9811" x="40.603125" y="272.354688" style="stroke: #000000; stroke-width: 0.8"/>
      </g>
     </g>
     <g id="text_36">
      <!-- 15 -->
      <g transform="translate(20.878125 276.153906) scale(0.1 -0.1)">
       <use xlink:href="#DejaVuSans-31"/>
       <use xlink:href="#DejaVuSans-35" x="63.623047"/>
      </g>
     </g>
    </g>
    <g id="ytick_5">
     <g id="line2d_57">
      <path d="M 40.603125 198.434688 
L 654.403125 198.434688 
" clip-path="url(#p1ee18a4026)" style="fill: none; stroke: #b0b0b0; stroke-opacity: 0.4; stroke-width: 0.8; stroke-linecap: square"/>
     </g>
     <g id="line2d_58">
      <g>
       <use xlink:href="#mf91c5f9811" x="40.603125" y="198.434688" style="stroke: #000000; stroke-width: 0.8"/>
      </g>
     </g>
     <g id="text_37">
      <!-- 20 -->
      <g transform="translate(20.878125 202.233906) scale(0.1 -0.1)">
       <use xlink:href="#DejaVuSans-32"/>
       <use xlink:href="#DejaVuSans-30" x="63.623047"/>
      </g>
     </g>
    </g>
    <g id="ytick_6">
     <g id="line2d_59">
      <path d="M 40.603125 124.514688 
L 654.403125 124.514688 
" clip-path="url(#p1ee18a4026)" style="fill: none; stroke: #b0b0b0; stroke-opacity: 0.4; stroke-width: 0.8; stroke-linecap: square"/>
     </g>
     <g id="line2d_60">
      <g>
       <use xlink:href="#mf91c5f9811" x="40.603125" y="124.514688" style="stroke: #000000; stroke-width: 0.8"/>
      </g>
     </g>
     <g id="text_38">
      <!-- 25 -->
      <g transform="translate(20.878125 128.313906) scale(0.1 -0.1)">
       <use xlink:href="#DejaVuSans-32"/>
       <use xlink:href="#DejaVuSans-35" x="63.623047"/>
      </g>
     </g>
    </g>
    <g id="ytick_7">
     <g id="line2d_61">
      <path d="M 40.603125 50.594688 
L 654.403125 50.594688 
" clip-path="url(#p1ee18a4026)" style="fill: none; stroke: #b0b0b0; stroke-opacity: 0.4; stroke-width: 0.8; stroke-linecap: square"/>
     </g>
     <g id="line2d_62">
      <g>
       <use xlink:href="#mf91c5f9811" x="40.603125" y="50.594688" style="stroke: #000000; stroke-width: 0.8"/>
      </g>
     </g>
     <g id="text_39">
      <!-- 30 -->
      <g transform="translate(20.878125 54.393906) scale(0.1 -0.1)">
       <use xlink:href="#DejaVuSans-33"/>
       <use xlink:href="#DejaVuSans-30" x="63.623047"/>
      </g>
     </g>
    </g>
    <g id="text_40">
     <!-- Inverse throughput (ns) -->
     <g transform="translate(14.798438 331.570313) rotate(-90) scale(0.1 -0.1)">
      <defs>
       <path id="DejaVuSans-76" d="M 191 3500 
L 800 3500 
L 1894 563 
L 2988 3500 
L 3597 3500 
L 2284 0 
L 1503 0 
L 191 3500 
z
" transform="scale(0.015625)"/>
       <path id="DejaVuSans-6f" d="M 1959 3097 
Q 1497 3097 1228 2736 
Q 959 2375 959 1747 
Q 959 1119 1226 758 
Q 1494 397 1959 397 
Q 2419 397 2687 759 
Q 2956 1122 2956 1747 
Q 2956 2369 2687 2733 
Q 2419 3097 1959 3097 
z
M 1959 3584 
Q 2709 3584 3137 3096 
Q 3566 2609 3566 1747 
Q 3566 888 3137 398 
Q 2709 -91 1959 -91 
Q 1206 -91 779 398 
Q 353 888 353 1747 
Q 353 2609 779 3096 
Q 1206 3584 1959 3584 
z
" transform="scale(0.015625)"/>
      </defs>
      <use xlink:href="#DejaVuSans-49"/>
      <use xlink:href="#DejaVuSans-6e" x="29.492188"/>
      <use xlink:href="#DejaVuSans-76" x="92.871094"/>
      <use xlink:href="#DejaVuSans-65" x="152.050781"/>
      <use xlink:href="#DejaVuSans-72" x="213.574219"/>
      <use xlink:href="#DejaVuSans-73" x="254.6875"/>
      <use xlink:href="#DejaVuSans-65" x="306.787109"/>
      <use xlink:href="#DejaVuSans-20" x="368.310547"/>
      <use xlink:href="#DejaVuSans-74" x="400.097656"/>
      <use xlink:href="#DejaVuSans-68" x="439.306641"/>
      <use xlink:href="#DejaVuSans-72" x="502.685547"/>
      <use xlink:href="#DejaVuSans-6f" x="541.548828"/>
      <use xlink:href="#DejaVuSans-75" x="602.730469"/>
      <use xlink:href="#DejaVuSans-67" x="666.109375"/>
      <use xlink:href="#DejaVuSans-68" x="729.585938"/>
      <use xlink:href="#DejaVuSans-70" x="792.964844"/>
      <use xlink:href="#DejaVuSans-75" x="856.441406"/>
      <use xlink:href="#DejaVuSans-74" x="919.820312"/>
      <use xlink:href="#DejaVuSans-20" x="959.029297"/>
      <use xlink:href="#DejaVuSans-28" x="990.816406"/>
      <use xlink:href="#DejaVuSans-6e" x="1029.830078"/>
      <use xlink:href="#DejaVuSans-73" x="1093.208984"/>
      <use xlink:href="#DejaVuSans-29" x="1145.308594"/>
     </g>
    </g>
   </g>
   <g id="line2d_63">
    <path d="M 68.503125 437.044332 
L 74.918692 420.495419 
L 80.160592 420.634778 
L 84.592555 420.536711 
L 88.431696 420.305135 
L 94.847263 398.527032 
L 100.089163 398.745179 
L 104.521127 398.382089 
L 108.360268 398.430531 
L 114.775835 373.57426 
L 120.017735 374.396396 
L 124.449698 374.865576 
L 128.288839 373.71684 
L 134.704406 351.770747 
L 139.946306 351.98099 
L 144.37827 352.053839 
L 148.217411 351.925707 
L 154.632978 327.343369 
L 159.874878 327.277641 
L 164.306841 327.211101 
L 168.145982 326.590551 
L 174.561549 288.954038 
L 179.803449 288.660782 
L 184.235412 288.296347 
L 188.074554 288.874792 
L 194.490121 258.869967 
L 199.732021 258.96824 
L 204.163984 259.288724 
L 208.003125 259.104749 
L 214.418692 232.280945 
L 219.660592 232.347588 
L 224.092555 232.493419 
L 227.931696 232.676656 
L 234.347263 207.429224 
L 239.589163 207.107411 
L 244.021127 207.380722 
L 247.860268 207.167081 
L 254.275835 180.146434 
L 259.517735 180.001431 
L 263.949698 179.917635 
L 267.788839 179.672689 
L 274.204406 151.895796 
L 279.446306 151.92227 
L 283.87827 151.171668 
L 287.717411 149.042142 
L 294.132978 106.300731 
L 299.374878 99.315566 
L 303.806841 91.593051 
L 307.645982 29.26257 
L 314.061549 28.11345 
L 319.303449 8.826206 
L 323.735412 11.248352 
L 324.221021 -1 
" clip-path="url(#p1ee18a4026)" style="fill: none; stroke: #1f77b4; stroke-opacity: 0.3; stroke-width: 0.5; stroke-linecap: square"/>
   </g>
   <g id="line2d_64">
    <path d="M 68.503125 354.104562 
L 74.918692 391.090918 
L 80.160592 436.147811 
L 84.592555 437.202528 
L 88.431696 422.120618 
L 94.847263 352.483322 
L 100.089163 395.255389 
L 104.521127 421.469221 
L 108.360268 407.28955 
L 114.775835 321.675596 
L 120.017735 334.264712 
L 124.449698 373.620221 
L 128.288839 332.362212 
L 134.704406 293.338074 
L 139.946306 300.185357 
L 144.37827 346.199593 
L 148.217411 340.200404 
L 154.632978 255.367131 
L 159.874878 289.672892 
L 164.306841 319.761971 
L 168.145982 343.467851 
L 174.561549 221.217129 
L 179.803449 273.501606 
L 184.235412 311.284983 
L 188.074554 320.632269 
L 194.490121 210.810162 
L 199.732021 230.203378 
L 204.163984 282.248803 
L 208.003125 291.494314 
L 214.418692 175.076489 
L 219.660592 199.866131 
L 224.092555 248.071101 
L 227.931696 258.657847 
L 234.347263 139.727683 
L 239.589163 166.985728 
L 244.021127 216.690144 
L 247.860268 227.698987 
L 254.275835 104.717931 
L 259.517735 141.822713 
L 263.949698 175.766091 
L 267.788839 207.307416 
L 274.204406 84.995324 
L 279.446306 98.961103 
L 283.87827 143.845647 
L 287.717411 183.429926 
L 294.132978 47.949859 
L 299.374878 62.45059 
L 303.806841 116.946468 
L 307.645982 146.717561 
L 314.061549 18.518249 
L 319.303449 15.086785 
L 323.735412 82.02976 
L 327.574554 114.974148 
L 332.662087 -1 
M 340.83762 -1 
L 343.663984 41.87918 
L 347.503125 75.02341 
L 350.971993 -1 
M 364.208268 -1 
L 367.431696 28.392213 
L 368.698237 -1 
" clip-path="url(#p1ee18a4026)" style="fill: none; stroke: #1f77b4; stroke-opacity: 0.3; stroke-width: 0.5; stroke-linecap: square"/>
   </g>
   <g id="line2d_65">
    <path d="M 68.503125 444.122378 
L 74.918692 444.080303 
L 80.160592 444.724609 
L 84.592555 444.744938 
L 88.431696 444.705241 
L 94.847263 444.876467 
L 100.089163 444.30371 
L 104.521127 444.244748 
L 108.360268 444.621076 
L 114.775835 403.987266 
L 120.017735 403.978476 
L 124.449698 404.347949 
L 128.288839 404.735519 
L 134.704406 403.928201 
L 139.946306 404.051871 
L 144.37827 404.010416 
L 148.217411 404.791629 
L 154.632978 404.537834 
L 159.874878 404.111807 
L 164.306841 404.515112 
L 168.145982 404.192737 
L 174.561549 404.120908 
L 179.803449 404.640584 
L 184.235412 403.955828 
L 188.074554 404.69046 
L 194.490121 355.247537 
L 199.732021 355.372713 
L 204.163984 354.968079 
L 208.003125 355.319381 
L 214.418692 354.721478 
L 219.660592 355.282506 
L 224.092555 354.526142 
L 227.931696 354.634388 
L 234.347263 355.264452 
L 239.589163 354.590451 
L 244.021127 354.939404 
L 247.860268 354.642705 
L 254.275835 354.564139 
L 259.517735 354.78366 
L 263.949698 354.17908 
L 267.788839 354.878152 
L 274.204406 295.66267 
L 279.446306 295.628056 
L 283.87827 294.781263 
L 287.717411 293.506656 
L 294.132978 290.234259 
L 299.374878 288.399585 
L 303.806841 286.592847 
L 307.645982 286.207567 
L 314.061549 283.47547 
L 319.303449 282.47902 
L 323.735412 280.916136 
L 327.574554 279.316805 
L 333.990121 276.460507 
L 339.232021 272.952811 
L 343.663984 268.215258 
L 347.503125 263.159836 
L 353.918692 176.979624 
L 359.160592 170.920469 
L 363.592555 165.060403 
L 367.431696 157.546993 
L 373.847263 151.247767 
L 379.089163 144.77696 
L 383.521127 141.266812 
L 387.360268 133.704103 
L 393.775835 125.125679 
L 399.017735 120.648156 
L 403.449698 115.09736 
L 407.288839 110.368272 
L 413.704406 101.042954 
L 418.946306 95.572926 
L 423.37827 90.220332 
L 427.217411 81.350692 
L 433.632978 77.035501 
L 438.874878 5.6699 
L 443.306841 9.580295 
L 445.782222 -1 
" clip-path="url(#p1ee18a4026)" style="fill: none; stroke: #e377c2; stroke-opacity: 0.3; stroke-width: 0.5; stroke-linecap: square"/>
   </g>
   <g id="line2d_66">
    <path d="M 68.503125 454.10159 
L 74.918692 452.982564 
L 80.160592 453.51756 
L 84.592555 453.499093 
L 88.431696 453.353751 
L 94.847263 454.009964 
L 100.089163 453.392384 
L 104.521127 453.224792 
L 108.360268 452.861864 
L 114.775835 423.749866 
L 120.017735 423.053955 
L 124.449698 422.860332 
L 128.288839 423.05592 
L 134.704406 422.975197 
L 139.946306 423.658565 
L 144.37827 423.022591 
L 148.217411 422.810885 
L 154.632978 422.867232 
L 159.874878 423.244136 
L 164.306841 423.665331 
L 168.145982 423.516014 
L 174.561549 423.652685 
L 179.803449 422.794176 
L 184.235412 423.615721 
L 188.074554 423.484281 
L 194.490121 391.976005 
L 199.732021 391.868807 
L 204.163984 392.523174 
L 208.003125 392.425876 
L 214.418692 391.709917 
L 219.660592 392.053064 
L 224.092555 391.924607 
L 227.931696 391.484679 
L 234.347263 392.413569 
L 239.589163 391.84285 
L 244.021127 392.318678 
L 247.860268 391.573335 
L 254.275835 391.994738 
L 259.517735 392.433144 
L 263.949698 392.123327 
L 267.788839 391.598731 
L 274.204406 361.50293 
L 279.446306 361.364841 
L 283.87827 361.136677 
L 287.717411 360.793147 
L 294.132978 358.225421 
L 299.374878 356.818014 
L 303.806841 355.799375 
L 307.645982 355.136661 
L 314.061549 353.8786 
L 319.303449 352.967231 
L 323.735412 352.333016 
L 327.574554 352.242956 
L 333.990121 351.034032 
L 339.232021 348.401761 
L 343.663984 346.507387 
L 347.503125 344.701358 
L 353.918692 310.053471 
L 359.160592 306.722024 
L 363.592555 303.845043 
L 367.431696 302.499759 
L 373.847263 298.389596 
L 379.089163 293.860542 
L 383.521127 292.740113 
L 387.360268 288.322363 
L 393.775835 284.250035 
L 399.017735 284.639925 
L 403.449698 278.277246 
L 407.288839 275.012458 
L 413.704406 275.142052 
L 418.946306 269.656231 
L 423.37827 266.005216 
L 427.217411 264.377505 
L 433.632978 265.772133 
L 438.874878 228.680279 
L 443.306841 231.205057 
L 447.145982 226.891151 
L 453.561549 204.054092 
L 458.803449 193.976857 
L 463.235412 191.539952 
L 467.074554 165.166669 
L 473.490121 158.463813 
L 478.732021 139.43657 
L 483.163984 124.149277 
L 487.003125 118.007272 
L 493.418692 100.282321 
L 498.660592 83.598081 
L 503.092555 67.749437 
L 506.931696 57.15062 
L 513.347263 31.653574 
L 517.515116 -1 
" clip-path="url(#p1ee18a4026)" style="fill: none; stroke: #17becf; stroke-opacity: 0.3; stroke-width: 0.5; stroke-linecap: square"/>
   </g>
   <g id="line2d_67">
    <path d="M 68.503125 452.807275 
L 74.918692 453.35511 
L 80.160592 454.347201 
L 84.592555 453.270501 
L 88.431696 454.07417 
L 94.847263 453.379634 
L 100.089163 453.744468 
L 104.521127 453.260692 
L 108.360268 453.448745 
L 114.775835 418.166863 
L 120.017735 418.125542 
L 124.449698 418.135115 
L 128.288839 417.66004 
L 134.704406 417.653806 
L 139.946306 418.749194 
L 144.37827 418.98863 
L 148.217411 418.389856 
L 154.632978 418.334928 
L 159.874878 418.835531 
L 164.306841 418.087455 
L 168.145982 418.097605 
L 174.561549 418.805452 
L 179.803449 417.411991 
L 184.235412 418.884136 
L 188.074554 418.793308 
L 194.490121 383.079934 
L 199.732021 381.485094 
L 204.163984 382.949986 
L 208.003125 382.858064 
L 214.418692 381.49972 
L 219.660592 381.983231 
L 224.092555 381.544529 
L 227.931696 381.874246 
L 234.347263 381.921063 
L 239.589163 381.759839 
L 244.021127 382.183162 
L 247.860268 380.911007 
L 254.275835 382.760824 
L 259.517735 381.448722 
L 263.949698 381.976627 
L 267.788839 380.939875 
L 274.204406 346.415923 
L 279.446306 345.768337 
L 283.87827 346.367776 
L 287.717411 347.013057 
L 294.132978 346.055994 
L 299.374878 345.052881 
L 303.806841 345.697778 
L 307.645982 345.282035 
L 314.061549 345.597613 
L 319.303449 346.26476 
L 323.735412 344.674175 
L 327.574554 345.905835 
L 333.990121 345.694617 
L 339.232021 344.916019 
L 343.663984 343.818148 
L 347.503125 344.310094 
L 353.918692 308.390111 
L 359.160592 307.370896 
L 363.592555 307.163548 
L 367.431696 308.249408 
L 373.847263 306.926151 
L 379.089163 306.118286 
L 383.521127 305.778848 
L 387.360268 305.353014 
L 393.775835 305.377065 
L 399.017735 305.623267 
L 403.449698 304.733838 
L 407.288839 303.922014 
L 413.704406 304.394976 
L 418.946306 303.555613 
L 423.37827 303.431338 
L 427.217411 303.135024 
L 433.632978 303.02694 
L 438.874878 267.665724 
L 443.306841 266.847725 
L 447.145982 265.265295 
L 453.561549 264.034906 
L 458.803449 260.830098 
L 463.235412 258.378183 
L 467.074554 245.039322 
L 473.490121 243.866963 
L 478.732021 234.623166 
L 483.163984 224.788883 
L 487.003125 219.809707 
L 493.418692 208.945128 
L 498.660592 199.295072 
L 503.092555 191.402011 
L 506.931696 190.622113 
L 513.347263 181.275817 
L 518.589163 138.17879 
L 523.021127 131.050838 
L 526.860268 123.959289 
L 533.275835 115.42365 
L 538.517735 109.142418 
L 542.949698 104.305009 
L 546.788839 97.803916 
L 553.204406 91.73179 
L 558.446306 88.497435 
L 562.87827 83.017892 
L 566.717411 80.855126 
L 573.132978 76.592381 
L 578.374878 70.456108 
L 582.806841 66.458313 
L 586.645982 60.35491 
L 593.061549 53.200839 
L 598.303449 15.636244 
L 602.735412 6.307352 
L 606.574554 3.903052 
L 611.847407 -1 
" clip-path="url(#p1ee18a4026)" style="fill: none; stroke: #7f7f7f; stroke-opacity: 0.3; stroke-width: 0.5; stroke-linecap: square"/>
   </g>
   <g id="line2d_68">
    <path d="M 68.503125 455.580457 
L 74.918692 455.556731 
L 80.160592 455.514729 
L 84.592555 455.073339 
L 88.431696 455.749999 
L 94.847263 456.372322 
L 100.089163 456.260235 
L 104.521127 455.716862 
L 108.360268 455.044456 
L 114.775835 431.512905 
L 120.017735 430.701021 
L 124.449698 431.498943 
L 128.288839 430.065668 
L 134.704406 430.655445 
L 139.946306 430.852347 
L 144.37827 430.837012 
L 148.217411 431.538744 
L 154.632978 430.850575 
L 159.874878 431.497038 
L 164.306841 431.664009 
L 168.145982 431.825041 
L 174.561549 430.758786 
L 179.803449 430.704981 
L 184.235412 430.898219 
L 188.074554 430.835904 
L 194.490121 405.881906 
L 199.732021 405.980402 
L 204.163984 405.8657 
L 208.003125 406.061982 
L 214.418692 406.883453 
L 219.660592 405.372232 
L 224.092555 405.359113 
L 227.931696 406.918954 
L 234.347263 406.160758 
L 239.589163 405.733668 
L 244.021127 405.478173 
L 247.860268 404.195648 
L 254.275835 405.324942 
L 259.517735 405.344812 
L 263.949698 405.503481 
L 267.788839 403.893601 
L 274.204406 379.556298 
L 279.446306 380.16695 
L 283.87827 379.65924 
L 287.717411 379.092156 
L 294.132978 379.115306 
L 299.374878 377.874161 
L 303.806841 378.234637 
L 307.645982 378.629047 
L 314.061549 377.898567 
L 319.303449 378.864184 
L 323.735412 378.115236 
L 327.574554 378.087462 
L 333.990121 377.367648 
L 339.232021 376.723652 
L 343.663984 376.815898 
L 347.503125 376.278583 
L 353.918692 350.656301 
L 359.160592 349.685675 
L 363.592555 348.516256 
L 367.431696 348.829737 
L 373.847263 346.052404 
L 379.089163 344.980993 
L 383.521127 343.969888 
L 387.360268 344.839861 
L 393.775835 342.754774 
L 399.017735 342.168912 
L 403.449698 342.174644 
L 407.288839 340.421417 
L 413.704406 341.177087 
L 418.946306 339.54716 
L 423.37827 338.7256 
L 427.217411 340.995297 
L 433.632978 336.079264 
L 438.874878 309.928043 
L 443.306841 312.558039 
L 447.145982 307.081333 
L 453.561549 304.383038 
L 458.803449 298.425983 
L 463.235412 296.949539 
L 467.074554 282.339218 
L 473.490121 278.807412 
L 478.732021 267.098197 
L 483.163984 263.964642 
L 487.003125 257.558987 
L 493.418692 248.18567 
L 498.660592 237.508642 
L 503.092555 231.43523 
L 506.931696 228.024021 
L 513.347263 212.870444 
L 518.589163 188.463646 
L 523.021127 180.332685 
L 526.860268 170.675124 
L 533.275835 160.045726 
L 538.517735 154.150897 
L 542.949698 150.154195 
L 546.788839 142.132737 
L 553.204406 137.214842 
L 558.446306 131.443609 
L 562.87827 128.184996 
L 566.717411 124.29106 
L 573.132978 120.374076 
L 578.374878 114.003478 
L 582.806841 109.223318 
L 586.645982 102.667932 
L 593.061549 93.124039 
L 598.303449 63.303174 
L 602.735412 54.353239 
L 606.574554 49.663316 
L 612.990121 41.710569 
L 618.232021 39.962364 
L 622.663984 31.64601 
L 626.503125 31.341792 
" clip-path="url(#p1ee18a4026)" style="fill: none; stroke: #7f7f7f; stroke-width: 2; stroke-linecap: square"/>
   </g>
   <g id="line2d_69">
    <path d="M 68.503125 455.439 
L 74.918692 456.299813 
L 80.160592 456.151782 
L 84.592555 455.671226 
L 88.431696 455.581831 
L 94.847263 455.684847 
L 100.089163 455.719019 
L 104.521127 456.317364 
L 108.360268 456.084119 
L 114.775835 431.112821 
L 120.017735 431.14123 
L 124.449698 431.18038 
L 128.288839 431.135055 
L 134.704406 430.695481 
L 139.946306 431.060463 
L 144.37827 431.128185 
L 148.217411 431.754645 
L 154.632978 431.006924 
L 159.874878 430.393863 
L 164.306841 430.645901 
L 168.145982 431.285879 
L 174.561549 431.839992 
L 179.803449 431.361712 
L 184.235412 431.703794 
L 188.074554 430.53046 
L 194.490121 402.37947 
L 199.732021 402.243302 
L 204.163984 402.581071 
L 208.003125 403.448739 
L 214.418692 402.090292 
L 219.660592 402.131761 
L 224.092555 402.051319 
L 227.931696 402.244676 
L 234.347263 403.521514 
L 239.589163 401.176234 
L 244.021127 401.762731 
L 247.860268 401.178495 
L 254.275835 402.06819 
L 259.517735 403.367395 
L 263.949698 402.816473 
L 267.788839 401.302209 
L 274.204406 375.313778 
L 279.446306 374.473352 
L 283.87827 375.462164 
L 287.717411 375.156055 
L 294.132978 374.714635 
L 299.374878 373.561274 
L 303.806841 374.611072 
L 307.645982 374.651433 
L 314.061549 373.792777 
L 319.303449 373.124626 
L 323.735412 374.239634 
L 327.574554 372.939616 
L 333.990121 372.829243 
L 339.232021 372.841106 
L 343.663984 373.022865 
L 347.503125 372.347239 
L 353.918692 341.989561 
L 359.160592 341.457105 
L 363.592555 340.227883 
L 367.431696 340.603561 
L 373.847263 338.998542 
L 379.089163 338.401955 
L 383.521127 337.025779 
L 387.360268 337.512185 
L 393.775835 336.56635 
L 399.017735 335.498292 
L 403.449698 335.609464 
L 407.288839 334.627743 
L 413.704406 333.574519 
L 418.946306 332.090688 
L 423.37827 332.498912 
L 427.217411 332.066902 
L 433.632978 331.458186 
L 438.874878 302.09449 
L 443.306841 299.831529 
L 447.145982 298.713773 
L 453.561549 296.129088 
L 458.803449 292.152773 
L 463.235412 290.196704 
L 467.074554 275.063205 
L 473.490121 267.92868 
L 478.732021 264.593717 
L 483.163984 255.514498 
L 487.003125 250.723316 
L 493.418692 242.041596 
L 498.660592 231.907306 
L 503.092555 223.967515 
L 506.931696 221.707051 
L 513.347263 207.856491 
L 518.589163 180.228871 
L 523.021127 170.561781 
L 526.860268 163.680992 
L 533.275835 153.145052 
L 538.517735 147.444377 
L 542.949698 142.380254 
L 546.788839 134.483026 
L 553.204406 130.957454 
L 558.446306 122.962795 
L 562.87827 118.085557 
L 566.717411 114.210516 
L 573.132978 112.972266 
L 578.374878 107.296456 
L 582.806841 102.138358 
L 586.645982 96.522691 
L 593.061549 86.894662 
L 598.303449 54.433002 
L 602.735412 44.23192 
L 606.574554 41.395093 
L 612.990121 40.000392 
L 618.232021 36.835901 
L 622.663984 26.187667 
L 626.503125 22.109075 
" clip-path="url(#p1ee18a4026)" style="fill: none; stroke: #17becf; stroke-linecap: square"/>
   </g>
   <g id="line2d_70">
    <path d="M 68.503125 456.383181 
L 74.918692 456.364344 
L 80.160592 454.898788 
L 84.592555 454.867114 
L 88.431696 455.342469 
L 94.847263 456.415446 
L 100.089163 455.303984 
L 104.521127 455.603622 
L 108.360268 456.380861 
L 114.775835 430.711274 
L 120.017735 431.811922 
L 124.449698 430.914648 
L 128.288839 431.015507 
L 134.704406 430.546061 
L 139.946306 431.01171 
L 144.37827 431.554389 
L 148.217411 431.739857 
L 154.632978 431.120739 
L 159.874878 431.333538 
L 164.306841 431.117238 
L 168.145982 430.436973 
L 174.561549 431.79932 
L 179.803449 430.480038 
L 184.235412 430.457715 
L 188.074554 431.773141 
L 194.490121 406.82099 
L 199.732021 406.378934 
L 204.163984 406.04969 
L 208.003125 407.323706 
L 214.418692 407.296744 
L 219.660592 406.205611 
L 224.092555 405.842328 
L 227.931696 406.547088 
L 234.347263 406.114487 
L 239.589163 405.077572 
L 244.021127 405.804626 
L 247.860268 406.33519 
L 254.275835 406.355755 
L 259.517735 407.123864 
L 263.949698 406.386927 
L 267.788839 404.294793 
L 274.204406 379.174356 
L 279.446306 378.306436 
L 283.87827 379.374656 
L 287.717411 377.85856 
L 294.132978 378.404577 
L 299.374878 377.64551 
L 303.806841 378.346458 
L 307.645982 377.597762 
L 314.061549 376.697665 
L 319.303449 377.362714 
L 323.735412 376.675963 
L 327.574554 376.043298 
L 333.990121 376.893105 
L 339.232021 375.816184 
L 343.663984 374.187897 
L 347.503125 374.490475 
L 353.918692 347.420557 
L 359.160592 346.446933 
L 363.592555 345.177674 
L 367.431696 345.18345 
L 373.847263 343.829036 
L 379.089163 342.997933 
L 383.521127 341.949096 
L 387.360268 341.779524 
L 393.775835 339.537852 
L 399.017735 339.548489 
L 403.449698 337.446561 
L 407.288839 338.568852 
L 413.704406 337.051884 
L 418.946306 334.836391 
L 423.37827 335.101872 
L 427.217411 332.951014 
L 433.632978 329.900768 
L 438.874878 307.943077 
L 443.306841 305.661531 
L 447.145982 303.915144 
L 453.561549 298.14202 
L 458.803449 294.434866 
L 463.235412 296.387522 
L 467.074554 279.011095 
L 473.490121 273.004416 
L 478.732021 264.901569 
L 483.163984 258.62669 
L 487.003125 251.987966 
L 493.418692 242.391228 
L 498.660592 233.484771 
L 503.092555 225.607015 
L 506.931696 219.563623 
L 513.347263 205.020802 
L 518.589163 184.550163 
L 523.021127 174.849316 
L 526.860268 166.032934 
L 533.275835 158.592816 
L 538.517735 151.584339 
L 542.949698 145.988055 
L 546.788839 141.101776 
L 553.204406 134.445028 
L 558.446306 126.456396 
L 562.87827 122.58595 
L 566.717411 120.853346 
L 573.132978 113.950545 
L 578.374878 104.665264 
L 582.806841 98.614825 
L 586.645982 94.571734 
L 593.061549 86.232391 
L 598.303449 57.238479 
L 602.735412 50.286525 
L 606.574554 43.79892 
L 612.990121 40.911302 
L 618.232021 39.228737 
L 622.663984 34.115786 
L 626.503125 27.395764 
" clip-path="url(#p1ee18a4026)" style="fill: none; stroke: #1f77b4; stroke-linecap: square"/>
   </g>
   <g id="line2d_71">
    <path d="M 68.503125 456.106176 
L 74.918692 454.779654 
L 80.160592 454.890737 
L 84.592555 455.591641 
L 88.431696 455.692781 
L 94.847263 455.933325 
L 100.089163 455.59594 
L 104.521127 455.5013 
L 108.360268 454.929458 
L 114.775835 430.498387 
L 120.017735 430.869071 
L 124.449698 431.282126 
L 128.288839 431.245547 
L 134.704406 431.215379 
L 139.946306 431.853406 
L 144.37827 431.8558 
L 148.217411 431.879541 
L 154.632978 431.146623 
L 159.874878 431.078901 
L 164.306841 431.161766 
L 168.145982 431.815276 
L 174.561549 431.640223 
L 179.803449 431.634373 
L 184.235412 430.781951 
L 188.074554 431.563327 
L 194.490121 406.039009 
L 199.732021 406.581732 
L 204.163984 407.301679 
L 208.003125 405.964579 
L 214.418692 405.890578 
L 219.660592 405.989709 
L 224.092555 405.823669 
L 227.931696 406.597259 
L 234.347263 406.562866 
L 239.589163 405.461627 
L 244.021127 405.406063 
L 247.860268 405.832267 
L 254.275835 406.658229 
L 259.517735 405.64547 
L 263.949698 406.944291 
L 267.788839 404.279562 
L 274.204406 379.500778 
L 279.446306 379.471793 
L 283.87827 379.67227 
L 287.717411 378.670798 
L 294.132978 378.289846 
L 299.374878 377.296424 
L 303.806841 377.224699 
L 307.645982 377.052128 
L 314.061549 377.309204 
L 319.303449 375.457776 
L 323.735412 374.60726 
L 327.574554 374.45001 
L 333.990121 372.237087 
L 339.232021 370.329948 
L 343.663984 367.892659 
L 347.503125 366.519113 
L 353.918692 347.23574 
L 359.160592 344.951933 
L 363.592555 343.804143 
L 367.431696 343.237974 
L 373.847263 341.633886 
L 379.089163 338.721714 
L 383.521127 336.6453 
L 387.360268 336.705325 
L 393.775835 332.989159 
L 399.017735 328.937425 
L 403.449698 326.962934 
L 407.288839 327.11101 
L 413.704406 322.519478 
L 418.946306 321.090044 
L 423.37827 320.213364 
L 427.217411 315.558055 
L 433.632978 312.520012 
L 438.874878 301.861023 
L 443.306841 301.657708 
L 447.145982 297.120278 
L 453.561549 293.139088 
L 458.803449 287.840566 
L 463.235412 285.441408 
L 467.074554 268.353568 
L 473.490121 265.235246 
L 478.732021 254.915916 
L 483.163984 245.506566 
L 487.003125 236.628505 
L 493.418692 230.803009 
L 498.660592 219.398248 
L 503.092555 206.144261 
L 506.931696 202.842509 
L 513.347263 191.49965 
L 518.589163 177.759109 
L 523.021127 168.425385 
L 526.860268 161.802647 
L 533.275835 148.153111 
L 538.517735 142.93549 
L 542.949698 136.915957 
L 546.788839 132.347798 
L 553.204406 124.248453 
L 558.446306 111.193673 
L 562.87827 105.332823 
L 566.717411 107.860764 
L 573.132978 98.022315 
L 578.374878 91.773466 
L 582.806841 86.055551 
L 586.645982 77.080206 
L 593.061549 70.654015 
L 598.303449 51.159748 
L 602.735412 45.563509 
L 606.574554 40.304728 
L 612.990121 38.088629 
L 618.232021 29.376401 
L 622.663984 20.759093 
L 626.503125 13.662255 
" clip-path="url(#p1ee18a4026)" style="fill: none; stroke: #1f77b4; stroke-linecap: square"/>
   </g>
   <g id="line2d_72"/>
   <g id="line2d_73"/>
   <g id="line2d_74"/>
   <g id="line2d_75"/>
   <g id="line2d_76"/>
   <g id="line2d_77"/>
   <g id="line2d_78"/>
   <g id="line2d_79"/>
   <g id="line2d_80"/>
   <g id="line2d_81"/>
   <g id="line2d_82"/>
   <g id="line2d_83"/>
   <g id="patch_5">
    <path d="M 40.603125 494.114688 
L 40.603125 50.594688 
" style="fill: none; stroke: #000000; stroke-width: 0.8; stroke-linejoin: miter; stroke-linecap: square"/>
   </g>
   <g id="patch_6">
    <path d="M 654.403125 494.114688 
L 654.403125 50.594688 
" style="fill: none; stroke: #000000; stroke-width: 0.8; stroke-linejoin: miter; stroke-linecap: square"/>
   </g>
   <g id="patch_7">
    <path d="M 40.603125 494.114688 
L 654.403125 494.114688 
" style="fill: none; stroke: #000000; stroke-width: 0.8; stroke-linejoin: miter; stroke-linecap: square"/>
   </g>
   <g id="patch_8">
    <path d="M 40.603125 50.594688 
L 654.403125 50.594688 
" style="fill: none; stroke: #000000; stroke-width: 0.8; stroke-linejoin: miter; stroke-linecap: square"/>
   </g>
   <g id="text_41">
    <!-- L1  -->
    <g style="fill: #ff0000" transform="translate(272.604911 492.035) scale(0.1 -0.1)">
     <defs>
      <path id="DejaVuSans-4c" d="M 628 4666 
L 1259 4666 
L 1259 531 
L 3531 531 
L 3531 0 
L 628 0 
L 628 4666 
z
" transform="scale(0.015625)"/>
     </defs>
     <use xlink:href="#DejaVuSans-4c"/>
     <use xlink:href="#DejaVuSans-31" x="55.712891"/>
     <use xlink:href="#DejaVuSans-20" x="119.335938"/>
    </g>
   </g>
   <g id="text_42">
    <!-- L2  -->
    <g style="fill: #ff0000" transform="translate(332.390625 492.035) scale(0.1 -0.1)">
     <use xlink:href="#DejaVuSans-4c"/>
     <use xlink:href="#DejaVuSans-32" x="55.712891"/>
     <use xlink:href="#DejaVuSans-20" x="119.335938"/>
    </g>
   </g>
   <g id="text_43">
    <!-- L3  -->
    <g style="fill: #ff0000" transform="translate(443.690949 492.035) scale(0.1 -0.1)">
     <use xlink:href="#DejaVuSans-4c"/>
     <use xlink:href="#DejaVuSans-33" x="55.712891"/>
     <use xlink:href="#DejaVuSans-20" x="119.335938"/>
    </g>
   </g>
   <g id="text_44">
    <!-- RAM -->
    <g style="fill: #ff0000" transform="translate(604.485938 492.035) scale(0.1 -0.1)">
     <defs>
      <path id="DejaVuSans-52" d="M 2841 2188 
Q 3044 2119 3236 1894 
Q 3428 1669 3622 1275 
L 4263 0 
L 3584 0 
L 2988 1197 
Q 2756 1666 2539 1819 
Q 2322 1972 1947 1972 
L 1259 1972 
L 1259 0 
L 628 0 
L 628 4666 
L 2053 4666 
Q 2853 4666 3247 4331 
Q 3641 3997 3641 3322 
Q 3641 2881 3436 2590 
Q 3231 2300 2841 2188 
z
M 1259 4147 
L 1259 2491 
L 2053 2491 
Q 2509 2491 2742 2702 
Q 2975 2913 2975 3322 
Q 2975 3731 2742 3939 
Q 2509 4147 2053 4147 
L 1259 4147 
z
" transform="scale(0.015625)"/>
      <path id="DejaVuSans-4d" d="M 628 4666 
L 1569 4666 
L 2759 1491 
L 3956 4666 
L 4897 4666 
L 4897 0 
L 4281 0 
L 4281 4097 
L 3078 897 
L 2444 897 
L 1241 4097 
L 1241 0 
L 628 0 
L 628 4666 
z
" transform="scale(0.015625)"/>
     </defs>
     <use xlink:href="#DejaVuSans-52"/>
     <use xlink:href="#DejaVuSans-41" x="65.482422"/>
     <use xlink:href="#DejaVuSans-4d" x="133.890625"/>
    </g>
   </g>
   <g id="text_45">
    <!-- Skip prefetch -->
    <g transform="translate(307.746563 16.318125) scale(0.12 -0.12)">
     <defs>
      <path id="DejaVuSans-53" d="M 3425 4513 
L 3425 3897 
Q 3066 4069 2747 4153 
Q 2428 4238 2131 4238 
Q 1616 4238 1336 4038 
Q 1056 3838 1056 3469 
Q 1056 3159 1242 3001 
Q 1428 2844 1947 2747 
L 2328 2669 
Q 3034 2534 3370 2195 
Q 3706 1856 3706 1288 
Q 3706 609 3251 259 
Q 2797 -91 1919 -91 
Q 1588 -91 1214 -16 
Q 841 59 441 206 
L 441 856 
Q 825 641 1194 531 
Q 1563 422 1919 422 
Q 2459 422 2753 634 
Q 3047 847 3047 1241 
Q 3047 1584 2836 1778 
Q 2625 1972 2144 2069 
L 1759 2144 
Q 1053 2284 737 2584 
Q 422 2884 422 3419 
Q 422 4038 858 4394 
Q 1294 4750 2059 4750 
Q 2388 4750 2728 4690 
Q 3069 4631 3425 4513 
z
" transform="scale(0.015625)"/>
      <path id="DejaVuSans-6b" d="M 581 4863 
L 1159 4863 
L 1159 1991 
L 2875 3500 
L 3609 3500 
L 1753 1863 
L 3688 0 
L 2938 0 
L 1159 1709 
L 1159 0 
L 581 0 
L 581 4863 
z
" transform="scale(0.015625)"/>
      <path id="DejaVuSans-66" d="M 2375 4863 
L 2375 4384 
L 1825 4384 
Q 1516 4384 1395 4259 
Q 1275 4134 1275 3809 
L 1275 3500 
L 2222 3500 
L 2222 3053 
L 1275 3053 
L 1275 0 
L 697 0 
L 697 3053 
L 147 3053 
L 147 3500 
L 697 3500 
L 697 3744 
Q 697 4328 969 4595 
Q 1241 4863 1831 4863 
L 2375 4863 
z
" transform="scale(0.015625)"/>
      <path id="DejaVuSans-63" d="M 3122 3366 
L 3122 2828 
Q 2878 2963 2633 3030 
Q 2388 3097 2138 3097 
Q 1578 3097 1268 2742 
Q 959 2388 959 1747 
Q 959 1106 1268 751 
Q 1578 397 2138 397 
Q 2388 397 2633 464 
Q 2878 531 3122 666 
L 3122 134 
Q 2881 22 2623 -34 
Q 2366 -91 2075 -91 
Q 1284 -91 818 406 
Q 353 903 353 1747 
Q 353 2603 823 3093 
Q 1294 3584 2113 3584 
Q 2378 3584 2631 3529 
Q 2884 3475 3122 3366 
z
" transform="scale(0.015625)"/>
     </defs>
     <use xlink:href="#DejaVuSans-53"/>
     <use xlink:href="#DejaVuSans-6b" x="63.476562"/>
     <use xlink:href="#DejaVuSans-69" x="121.386719"/>
     <use xlink:href="#DejaVuSans-70" x="149.169922"/>
     <use xlink:href="#DejaVuSans-20" x="212.646484"/>
     <use xlink:href="#DejaVuSans-70" x="244.433594"/>
     <use xlink:href="#DejaVuSans-72" x="307.910156"/>
     <use xlink:href="#DejaVuSans-65" x="346.773438"/>
     <use xlink:href="#DejaVuSans-66" x="408.296875"/>
     <use xlink:href="#DejaVuSans-65" x="443.501953"/>
     <use xlink:href="#DejaVuSans-74" x="505.025391"/>
     <use xlink:href="#DejaVuSans-63" x="544.234375"/>
     <use xlink:href="#DejaVuSans-68" x="599.214844"/>
    </g>
   </g>
   <g id="legend_1">
    <g id="patch_9">
     <path d="M 47.603125 192.922813 
L 283.8375 192.922813 
Q 285.8375 192.922813 285.8375 190.922813 
L 285.8375 57.594688 
Q 285.8375 55.594688 283.8375 55.594688 
L 47.603125 55.594688 
Q 45.603125 55.594688 45.603125 57.594688 
L 45.603125 190.922813 
Q 45.603125 192.922813 47.603125 192.922813 
L 47.603125 192.922813 
z
" style="fill: none; opacity: 0"/>
    </g>
    <g id="line2d_84">
     <path d="M 49.603125 63.693125 
L 59.603125 63.693125 
L 69.603125 63.693125 
" style="fill: none; stroke: #1f77b4; stroke-opacity: 0.3; stroke-width: 1.5; stroke-linecap: square"/>
    </g>
    <g id="text_46">
     <!-- SortedVec::binary_search_std -->
     <g transform="translate(77.603125 67.193125) scale(0.1 -0.1)">
      <defs>
       <path id="DejaVuSans-64" d="M 2906 2969 
L 2906 4863 
L 3481 4863 
L 3481 0 
L 2906 0 
L 2906 525 
Q 2725 213 2448 61 
Q 2172 -91 1784 -91 
Q 1150 -91 751 415 
Q 353 922 353 1747 
Q 353 2572 751 3078 
Q 1150 3584 1784 3584 
Q 2172 3584 2448 3432 
Q 2725 3281 2906 2969 
z
M 947 1747 
Q 947 1113 1208 752 
Q 1469 391 1925 391 
Q 2381 391 2643 752 
Q 2906 1113 2906 1747 
Q 2906 2381 2643 2742 
Q 2381 3103 1925 3103 
Q 1469 3103 1208 2742 
Q 947 2381 947 1747 
z
" transform="scale(0.015625)"/>
       <path id="DejaVuSans-56" d="M 1831 0 
L 50 4666 
L 709 4666 
L 2188 738 
L 3669 4666 
L 4325 4666 
L 2547 0 
L 1831 0 
z
" transform="scale(0.015625)"/>
       <path id="DejaVuSans-3a" d="M 750 794 
L 1409 794 
L 1409 0 
L 750 0 
L 750 794 
z
M 750 3309 
L 1409 3309 
L 1409 2516 
L 750 2516 
L 750 3309 
z
" transform="scale(0.015625)"/>
       <path id="DejaVuSans-5f" d="M 3263 -1063 
L 3263 -1509 
L -63 -1509 
L -63 -1063 
L 3263 -1063 
z
" transform="scale(0.015625)"/>
      </defs>
      <use xlink:href="#DejaVuSans-53"/>
      <use xlink:href="#DejaVuSans-6f" x="63.476562"/>
      <use xlink:href="#DejaVuSans-72" x="124.658203"/>
      <use xlink:href="#DejaVuSans-74" x="165.771484"/>
      <use xlink:href="#DejaVuSans-65" x="204.980469"/>
      <use xlink:href="#DejaVuSans-64" x="266.503906"/>
      <use xlink:href="#DejaVuSans-56" x="329.980469"/>
      <use xlink:href="#DejaVuSans-65" x="390.638672"/>
      <use xlink:href="#DejaVuSans-63" x="452.162109"/>
      <use xlink:href="#DejaVuSans-3a" x="507.142578"/>
      <use xlink:href="#DejaVuSans-3a" x="540.833984"/>
      <use xlink:href="#DejaVuSans-62" x="574.525391"/>
      <use xlink:href="#DejaVuSans-69" x="638.001953"/>
      <use xlink:href="#DejaVuSans-6e" x="665.785156"/>
      <use xlink:href="#DejaVuSans-61" x="729.164062"/>
      <use xlink:href="#DejaVuSans-72" x="790.443359"/>
      <use xlink:href="#DejaVuSans-79" x="831.556641"/>
      <use xlink:href="#DejaVuSans-5f" x="890.736328"/>
      <use xlink:href="#DejaVuSans-73" x="940.736328"/>
      <use xlink:href="#DejaVuSans-65" x="992.835938"/>
      <use xlink:href="#DejaVuSans-61" x="1054.359375"/>
      <use xlink:href="#DejaVuSans-72" x="1115.638672"/>
      <use xlink:href="#DejaVuSans-63" x="1154.501953"/>
      <use xlink:href="#DejaVuSans-68" x="1209.482422"/>
      <use xlink:href="#DejaVuSans-5f" x="1272.861328"/>
      <use xlink:href="#DejaVuSans-73" x="1322.861328"/>
      <use xlink:href="#DejaVuSans-74" x="1374.960938"/>
      <use xlink:href="#DejaVuSans-64" x="1414.169922"/>
     </g>
    </g>
    <g id="line2d_85">
     <path d="M 49.603125 78.649375 
L 59.603125 78.649375 
L 69.603125 78.649375 
" style="fill: none; stroke: #1f77b4; stroke-opacity: 0.3; stroke-width: 1.5; stroke-linecap: square"/>
    </g>
    <g id="text_47">
     <!-- Eytzinger::search_prefetch&lt;4&gt; -->
     <g transform="translate(77.603125 82.149375) scale(0.1 -0.1)">
      <defs>
       <path id="DejaVuSans-45" d="M 628 4666 
L 3578 4666 
L 3578 4134 
L 1259 4134 
L 1259 2753 
L 3481 2753 
L 3481 2222 
L 1259 2222 
L 1259 531 
L 3634 531 
L 3634 0 
L 628 0 
L 628 4666 
z
" transform="scale(0.015625)"/>
       <path id="DejaVuSans-3c" d="M 4684 3150 
L 1459 2003 
L 4684 863 
L 4684 294 
L 678 1747 
L 678 2266 
L 4684 3719 
L 4684 3150 
z
" transform="scale(0.015625)"/>
       <path id="DejaVuSans-3e" d="M 678 3150 
L 678 3719 
L 4684 2266 
L 4684 1747 
L 678 294 
L 678 863 
L 3897 2003 
L 678 3150 
z
" transform="scale(0.015625)"/>
      </defs>
      <use xlink:href="#DejaVuSans-45"/>
      <use xlink:href="#DejaVuSans-79" x="63.183594"/>
      <use xlink:href="#DejaVuSans-74" x="122.363281"/>
      <use xlink:href="#DejaVuSans-7a" x="161.572266"/>
      <use xlink:href="#DejaVuSans-69" x="214.0625"/>
      <use xlink:href="#DejaVuSans-6e" x="241.845703"/>
      <use xlink:href="#DejaVuSans-67" x="305.224609"/>
      <use xlink:href="#DejaVuSans-65" x="368.701172"/>
      <use xlink:href="#DejaVuSans-72" x="430.224609"/>
      <use xlink:href="#DejaVuSans-3a" x="469.587891"/>
      <use xlink:href="#DejaVuSans-3a" x="503.279297"/>
      <use xlink:href="#DejaVuSans-73" x="536.970703"/>
      <use xlink:href="#DejaVuSans-65" x="589.070312"/>
      <use xlink:href="#DejaVuSans-61" x="650.59375"/>
      <use xlink:href="#DejaVuSans-72" x="711.873047"/>
      <use xlink:href="#DejaVuSans-63" x="750.736328"/>
      <use xlink:href="#DejaVuSans-68" x="805.716797"/>
      <use xlink:href="#DejaVuSans-5f" x="869.095703"/>
      <use xlink:href="#DejaVuSans-70" x="919.095703"/>
      <use xlink:href="#DejaVuSans-72" x="982.572266"/>
      <use xlink:href="#DejaVuSans-65" x="1021.435547"/>
      <use xlink:href="#DejaVuSans-66" x="1082.958984"/>
      <use xlink:href="#DejaVuSans-65" x="1118.164062"/>
      <use xlink:href="#DejaVuSans-74" x="1179.6875"/>
      <use xlink:href="#DejaVuSans-63" x="1218.896484"/>
      <use xlink:href="#DejaVuSans-68" x="1273.876953"/>
      <use xlink:href="#DejaVuSans-3c" x="1337.255859"/>
      <use xlink:href="#DejaVuSans-34" x="1421.044922"/>
      <use xlink:href="#DejaVuSans-3e" x="1484.667969"/>
     </g>
    </g>
    <g id="line2d_86">
     <path d="M 49.603125 93.605625 
L 59.603125 93.605625 
L 69.603125 93.605625 
" style="fill: none; stroke: #e377c2; stroke-opacity: 0.3; stroke-width: 1.5; stroke-linecap: square"/>
    </g>
    <g id="text_48">
     <!-- STree&lt;&gt;::search&lt;find_popcnt&gt; -->
     <g transform="translate(77.603125 97.105625) scale(0.1 -0.1)">
      <defs>
       <path id="DejaVuSans-54" d="M -19 4666 
L 3928 4666 
L 3928 4134 
L 2272 4134 
L 2272 0 
L 1638 0 
L 1638 4134 
L -19 4134 
L -19 4666 
z
" transform="scale(0.015625)"/>
      </defs>
      <use xlink:href="#DejaVuSans-53"/>
      <use xlink:href="#DejaVuSans-54" x="63.476562"/>
      <use xlink:href="#DejaVuSans-72" x="109.810547"/>
      <use xlink:href="#DejaVuSans-65" x="148.673828"/>
      <use xlink:href="#DejaVuSans-65" x="210.197266"/>
      <use xlink:href="#DejaVuSans-3c" x="271.720703"/>
      <use xlink:href="#DejaVuSans-3e" x="355.509766"/>
      <use xlink:href="#DejaVuSans-3a" x="439.298828"/>
      <use xlink:href="#DejaVuSans-3a" x="472.990234"/>
      <use xlink:href="#DejaVuSans-73" x="506.681641"/>
      <use xlink:href="#DejaVuSans-65" x="558.78125"/>
      <use xlink:href="#DejaVuSans-61" x="620.304688"/>
      <use xlink:href="#DejaVuSans-72" x="681.583984"/>
      <use xlink:href="#DejaVuSans-63" x="720.447266"/>
      <use xlink:href="#DejaVuSans-68" x="775.427734"/>
      <use xlink:href="#DejaVuSans-3c" x="838.806641"/>
      <use xlink:href="#DejaVuSans-66" x="922.595703"/>
      <use xlink:href="#DejaVuSans-69" x="957.800781"/>
      <use xlink:href="#DejaVuSans-6e" x="985.583984"/>
      <use xlink:href="#DejaVuSans-64" x="1048.962891"/>
      <use xlink:href="#DejaVuSans-5f" x="1112.439453"/>
      <use xlink:href="#DejaVuSans-70" x="1162.439453"/>
      <use xlink:href="#DejaVuSans-6f" x="1225.916016"/>
      <use xlink:href="#DejaVuSans-70" x="1287.097656"/>
      <use xlink:href="#DejaVuSans-63" x="1350.574219"/>
      <use xlink:href="#DejaVuSans-6e" x="1405.554688"/>
      <use xlink:href="#DejaVuSans-74" x="1468.933594"/>
      <use xlink:href="#DejaVuSans-3e" x="1508.142578"/>
     </g>
    </g>
    <g id="line2d_87">
     <path d="M 49.603125 108.561875 
L 59.603125 108.561875 
L 69.603125 108.561875 
" style="fill: none; stroke: #17becf; stroke-opacity: 0.3; stroke-width: 1.5; stroke-linecap: square"/>
    </g>
    <g id="text_49">
     <!-- STree&lt;&gt;::batch&lt;128&gt; -->
     <g transform="translate(77.603125 112.061875) scale(0.1 -0.1)">
      <use xlink:href="#DejaVuSans-53"/>
      <use xlink:href="#DejaVuSans-54" x="63.476562"/>
      <use xlink:href="#DejaVuSans-72" x="109.810547"/>
      <use xlink:href="#DejaVuSans-65" x="148.673828"/>
      <use xlink:href="#DejaVuSans-65" x="210.197266"/>
      <use xlink:href="#DejaVuSans-3c" x="271.720703"/>
      <use xlink:href="#DejaVuSans-3e" x="355.509766"/>
      <use xlink:href="#DejaVuSans-3a" x="439.298828"/>
      <use xlink:href="#DejaVuSans-3a" x="472.990234"/>
      <use xlink:href="#DejaVuSans-62" x="506.681641"/>
      <use xlink:href="#DejaVuSans-61" x="570.158203"/>
      <use xlink:href="#DejaVuSans-74" x="631.4375"/>
      <use xlink:href="#DejaVuSans-63" x="670.646484"/>
      <use xlink:href="#DejaVuSans-68" x="725.626953"/>
      <use xlink:href="#DejaVuSans-3c" x="789.005859"/>
      <use xlink:href="#DejaVuSans-31" x="872.794922"/>
      <use xlink:href="#DejaVuSans-32" x="936.417969"/>
      <use xlink:href="#DejaVuSans-38" x="1000.041016"/>
      <use xlink:href="#DejaVuSans-3e" x="1063.664062"/>
     </g>
    </g>
    <g id="line2d_88">
     <path d="M 49.603125 123.24 
L 59.603125 123.24 
L 69.603125 123.24 
" style="fill: none; stroke: #7f7f7f; stroke-opacity: 0.3; stroke-width: 1.5; stroke-linecap: square"/>
    </g>
    <g id="text_50">
     <!-- STree&lt;&gt;::batch_prefetch&lt;128&gt; -->
     <g transform="translate(77.603125 126.74) scale(0.1 -0.1)">
      <use xlink:href="#DejaVuSans-53"/>
      <use xlink:href="#DejaVuSans-54" x="63.476562"/>
      <use xlink:href="#DejaVuSans-72" x="109.810547"/>
      <use xlink:href="#DejaVuSans-65" x="148.673828"/>
      <use xlink:href="#DejaVuSans-65" x="210.197266"/>
      <use xlink:href="#DejaVuSans-3c" x="271.720703"/>
      <use xlink:href="#DejaVuSans-3e" x="355.509766"/>
      <use xlink:href="#DejaVuSans-3a" x="439.298828"/>
      <use xlink:href="#DejaVuSans-3a" x="472.990234"/>
      <use xlink:href="#DejaVuSans-62" x="506.681641"/>
      <use xlink:href="#DejaVuSans-61" x="570.158203"/>
      <use xlink:href="#DejaVuSans-74" x="631.4375"/>
      <use xlink:href="#DejaVuSans-63" x="670.646484"/>
      <use xlink:href="#DejaVuSans-68" x="725.626953"/>
      <use xlink:href="#DejaVuSans-5f" x="789.005859"/>
      <use xlink:href="#DejaVuSans-70" x="839.005859"/>
      <use xlink:href="#DejaVuSans-72" x="902.482422"/>
      <use xlink:href="#DejaVuSans-65" x="941.345703"/>
      <use xlink:href="#DejaVuSans-66" x="1002.869141"/>
      <use xlink:href="#DejaVuSans-65" x="1038.074219"/>
      <use xlink:href="#DejaVuSans-74" x="1099.597656"/>
      <use xlink:href="#DejaVuSans-63" x="1138.806641"/>
      <use xlink:href="#DejaVuSans-68" x="1193.787109"/>
      <use xlink:href="#DejaVuSans-3c" x="1257.166016"/>
      <use xlink:href="#DejaVuSans-31" x="1340.955078"/>
      <use xlink:href="#DejaVuSans-32" x="1404.578125"/>
      <use xlink:href="#DejaVuSans-38" x="1468.201172"/>
      <use xlink:href="#DejaVuSans-3e" x="1531.824219"/>
     </g>
    </g>
    <g id="line2d_89">
     <path d="M 49.603125 138.19625 
L 59.603125 138.19625 
L 69.603125 138.19625 
" style="fill: none; stroke: #7f7f7f; stroke-width: 1.5; stroke-linecap: square"/>
    </g>
    <g id="text_51">
     <!-- STree&lt;&gt;::batch_final -->
     <g transform="translate(77.603125 141.69625) scale(0.1 -0.1)">
      <use xlink:href="#DejaVuSans-53"/>
      <use xlink:href="#DejaVuSans-54" x="63.476562"/>
      <use xlink:href="#DejaVuSans-72" x="109.810547"/>
      <use xlink:href="#DejaVuSans-65" x="148.673828"/>
      <use xlink:href="#DejaVuSans-65" x="210.197266"/>
      <use xlink:href="#DejaVuSans-3c" x="271.720703"/>
      <use xlink:href="#DejaVuSans-3e" x="355.509766"/>
      <use xlink:href="#DejaVuSans-3a" x="439.298828"/>
      <use xlink:href="#DejaVuSans-3a" x="472.990234"/>
      <use xlink:href="#DejaVuSans-62" x="506.681641"/>
      <use xlink:href="#DejaVuSans-61" x="570.158203"/>
      <use xlink:href="#DejaVuSans-74" x="631.4375"/>
      <use xlink:href="#DejaVuSans-63" x="670.646484"/>
      <use xlink:href="#DejaVuSans-68" x="725.626953"/>
      <use xlink:href="#DejaVuSans-5f" x="789.005859"/>
      <use xlink:href="#DejaVuSans-66" x="839.005859"/>
      <use xlink:href="#DejaVuSans-69" x="874.210938"/>
      <use xlink:href="#DejaVuSans-6e" x="901.994141"/>
      <use xlink:href="#DejaVuSans-61" x="965.373047"/>
      <use xlink:href="#DejaVuSans-6c" x="1026.652344"/>
     </g>
    </g>
    <g id="line2d_90">
     <path d="M 49.603125 153.1525 
L 59.603125 153.1525 
L 69.603125 153.1525 
" style="fill: none; stroke: #17becf; stroke-width: 1.5; stroke-linecap: square"/>
    </g>
    <g id="text_52">
     <!-- STree&lt;&gt;::batch_skip_prefetch&lt;SKIP=1&gt; -->
     <g transform="translate(77.603125 156.6525) scale(0.1 -0.1)">
      <defs>
       <path id="DejaVuSans-4b" d="M 628 4666 
L 1259 4666 
L 1259 2694 
L 3353 4666 
L 4166 4666 
L 1850 2491 
L 4331 0 
L 3500 0 
L 1259 2247 
L 1259 0 
L 628 0 
L 628 4666 
z
" transform="scale(0.015625)"/>
       <path id="DejaVuSans-50" d="M 1259 4147 
L 1259 2394 
L 2053 2394 
Q 2494 2394 2734 2622 
Q 2975 2850 2975 3272 
Q 2975 3691 2734 3919 
Q 2494 4147 2053 4147 
L 1259 4147 
z
M 628 4666 
L 2053 4666 
Q 2838 4666 3239 4311 
Q 3641 3956 3641 3272 
Q 3641 2581 3239 2228 
Q 2838 1875 2053 1875 
L 1259 1875 
L 1259 0 
L 628 0 
L 628 4666 
z
" transform="scale(0.015625)"/>
       <path id="DejaVuSans-3d" d="M 678 2906 
L 4684 2906 
L 4684 2381 
L 678 2381 
L 678 2906 
z
M 678 1631 
L 4684 1631 
L 4684 1100 
L 678 1100 
L 678 1631 
z
" transform="scale(0.015625)"/>
      </defs>
      <use xlink:href="#DejaVuSans-53"/>
      <use xlink:href="#DejaVuSans-54" x="63.476562"/>
      <use xlink:href="#DejaVuSans-72" x="109.810547"/>
      <use xlink:href="#DejaVuSans-65" x="148.673828"/>
      <use xlink:href="#DejaVuSans-65" x="210.197266"/>
      <use xlink:href="#DejaVuSans-3c" x="271.720703"/>
      <use xlink:href="#DejaVuSans-3e" x="355.509766"/>
      <use xlink:href="#DejaVuSans-3a" x="439.298828"/>
      <use xlink:href="#DejaVuSans-3a" x="472.990234"/>
      <use xlink:href="#DejaVuSans-62" x="506.681641"/>
      <use xlink:href="#DejaVuSans-61" x="570.158203"/>
      <use xlink:href="#DejaVuSans-74" x="631.4375"/>
      <use xlink:href="#DejaVuSans-63" x="670.646484"/>
      <use xlink:href="#DejaVuSans-68" x="725.626953"/>
      <use xlink:href="#DejaVuSans-5f" x="789.005859"/>
      <use xlink:href="#DejaVuSans-73" x="839.005859"/>
      <use xlink:href="#DejaVuSans-6b" x="891.105469"/>
      <use xlink:href="#DejaVuSans-69" x="949.015625"/>
      <use xlink:href="#DejaVuSans-70" x="976.798828"/>
      <use xlink:href="#DejaVuSans-5f" x="1040.275391"/>
      <use xlink:href="#DejaVuSans-70" x="1090.275391"/>
      <use xlink:href="#DejaVuSans-72" x="1153.751953"/>
      <use xlink:href="#DejaVuSans-65" x="1192.615234"/>
      <use xlink:href="#DejaVuSans-66" x="1254.138672"/>
      <use xlink:href="#DejaVuSans-65" x="1289.34375"/>
      <use xlink:href="#DejaVuSans-74" x="1350.867188"/>
      <use xlink:href="#DejaVuSans-63" x="1390.076172"/>
      <use xlink:href="#DejaVuSans-68" x="1445.056641"/>
      <use xlink:href="#DejaVuSans-3c" x="1508.435547"/>
      <use xlink:href="#DejaVuSans-53" x="1592.224609"/>
      <use xlink:href="#DejaVuSans-4b" x="1655.701172"/>
      <use xlink:href="#DejaVuSans-49" x="1721.277344"/>
      <use xlink:href="#DejaVuSans-50" x="1750.769531"/>
      <use xlink:href="#DejaVuSans-3d" x="1811.072266"/>
      <use xlink:href="#DejaVuSans-31" x="1894.861328"/>
      <use xlink:href="#DejaVuSans-3e" x="1958.484375"/>
     </g>
    </g>
    <g id="line2d_91">
     <path d="M 49.603125 168.10875 
L 59.603125 168.10875 
L 69.603125 168.10875 
" style="fill: none; stroke: #1f77b4; stroke-width: 1.5; stroke-linecap: square"/>
    </g>
    <g id="text_53">
     <!-- STree&lt;&gt;::batch_skip_prefetch&lt;SKIP=2&gt; -->
     <g transform="translate(77.603125 171.60875) scale(0.1 -0.1)">
      <use xlink:href="#DejaVuSans-53"/>
      <use xlink:href="#DejaVuSans-54" x="63.476562"/>
      <use xlink:href="#DejaVuSans-72" x="109.810547"/>
      <use xlink:href="#DejaVuSans-65" x="148.673828"/>
      <use xlink:href="#DejaVuSans-65" x="210.197266"/>
      <use xlink:href="#DejaVuSans-3c" x="271.720703"/>
      <use xlink:href="#DejaVuSans-3e" x="355.509766"/>
      <use xlink:href="#DejaVuSans-3a" x="439.298828"/>
      <use xlink:href="#DejaVuSans-3a" x="472.990234"/>
      <use xlink:href="#DejaVuSans-62" x="506.681641"/>
      <use xlink:href="#DejaVuSans-61" x="570.158203"/>
      <use xlink:href="#DejaVuSans-74" x="631.4375"/>
      <use xlink:href="#DejaVuSans-63" x="670.646484"/>
      <use xlink:href="#DejaVuSans-68" x="725.626953"/>
      <use xlink:href="#DejaVuSans-5f" x="789.005859"/>
      <use xlink:href="#DejaVuSans-73" x="839.005859"/>
      <use xlink:href="#DejaVuSans-6b" x="891.105469"/>
      <use xlink:href="#DejaVuSans-69" x="949.015625"/>
      <use xlink:href="#DejaVuSans-70" x="976.798828"/>
      <use xlink:href="#DejaVuSans-5f" x="1040.275391"/>
      <use xlink:href="#DejaVuSans-70" x="1090.275391"/>
      <use xlink:href="#DejaVuSans-72" x="1153.751953"/>
      <use xlink:href="#DejaVuSans-65" x="1192.615234"/>
      <use xlink:href="#DejaVuSans-66" x="1254.138672"/>
      <use xlink:href="#DejaVuSans-65" x="1289.34375"/>
      <use xlink:href="#DejaVuSans-74" x="1350.867188"/>
      <use xlink:href="#DejaVuSans-63" x="1390.076172"/>
      <use xlink:href="#DejaVuSans-68" x="1445.056641"/>
      <use xlink:href="#DejaVuSans-3c" x="1508.435547"/>
      <use xlink:href="#DejaVuSans-53" x="1592.224609"/>
      <use xlink:href="#DejaVuSans-4b" x="1655.701172"/>
      <use xlink:href="#DejaVuSans-49" x="1721.277344"/>
      <use xlink:href="#DejaVuSans-50" x="1750.769531"/>
      <use xlink:href="#DejaVuSans-3d" x="1811.072266"/>
      <use xlink:href="#DejaVuSans-32" x="1894.861328"/>
      <use xlink:href="#DejaVuSans-3e" x="1958.484375"/>
     </g>
    </g>
    <g id="line2d_92">
     <path d="M 49.603125 183.065 
L 59.603125 183.065 
L 69.603125 183.065 
" style="fill: none; stroke: #1f77b4; stroke-width: 1.5; stroke-linecap: square"/>
    </g>
    <g id="text_54">
     <!-- STree&lt;&gt;::batch_skip_prefetch&lt;SKIP=3&gt; -->
     <g transform="translate(77.603125 186.565) scale(0.1 -0.1)">
      <use xlink:href="#DejaVuSans-53"/>
      <use xlink:href="#DejaVuSans-54" x="63.476562"/>
      <use xlink:href="#DejaVuSans-72" x="109.810547"/>
      <use xlink:href="#DejaVuSans-65" x="148.673828"/>
      <use xlink:href="#DejaVuSans-65" x="210.197266"/>
      <use xlink:href="#DejaVuSans-3c" x="271.720703"/>
      <use xlink:href="#DejaVuSans-3e" x="355.509766"/>
      <use xlink:href="#DejaVuSans-3a" x="439.298828"/>
      <use xlink:href="#DejaVuSans-3a" x="472.990234"/>
      <use xlink:href="#DejaVuSans-62" x="506.681641"/>
      <use xlink:href="#DejaVuSans-61" x="570.158203"/>
      <use xlink:href="#DejaVuSans-74" x="631.4375"/>
      <use xlink:href="#DejaVuSans-63" x="670.646484"/>
      <use xlink:href="#DejaVuSans-68" x="725.626953"/>
      <use xlink:href="#DejaVuSans-5f" x="789.005859"/>
      <use xlink:href="#DejaVuSans-73" x="839.005859"/>
      <use xlink:href="#DejaVuSans-6b" x="891.105469"/>
      <use xlink:href="#DejaVuSans-69" x="949.015625"/>
      <use xlink:href="#DejaVuSans-70" x="976.798828"/>
      <use xlink:href="#DejaVuSans-5f" x="1040.275391"/>
      <use xlink:href="#DejaVuSans-70" x="1090.275391"/>
      <use xlink:href="#DejaVuSans-72" x="1153.751953"/>
      <use xlink:href="#DejaVuSans-65" x="1192.615234"/>
      <use xlink:href="#DejaVuSans-66" x="1254.138672"/>
      <use xlink:href="#DejaVuSans-65" x="1289.34375"/>
      <use xlink:href="#DejaVuSans-74" x="1350.867188"/>
      <use xlink:href="#DejaVuSans-63" x="1390.076172"/>
      <use xlink:href="#DejaVuSans-68" x="1445.056641"/>
      <use xlink:href="#DejaVuSans-3c" x="1508.435547"/>
      <use xlink:href="#DejaVuSans-53" x="1592.224609"/>
      <use xlink:href="#DejaVuSans-4b" x="1655.701172"/>
      <use xlink:href="#DejaVuSans-49" x="1721.277344"/>
      <use xlink:href="#DejaVuSans-50" x="1750.769531"/>
      <use xlink:href="#DejaVuSans-3d" x="1811.072266"/>
      <use xlink:href="#DejaVuSans-33" x="1894.861328"/>
      <use xlink:href="#DejaVuSans-3e" x="1958.484375"/>
     </g>
    </g>
   </g>
  </g>
 </g>
 <defs>
  <clipPath id="p1ee18a4026">
   <rect x="40.603125" y="50.594688" width="613.8" height="443.52"/>
  </clipPath>
 </defs>
</svg>
