<?xml version="1.0" encoding="utf-8" standalone="no"?>
<!DOCTYPE svg PUBLIC "-//W3C//DTD SVG 1.1//EN"
  "http://www.w3.org/Graphics/SVG/1.1/DTD/svg11.dtd">
<svg xmlns:xlink="http://www.w3.org/1999/xlink" width="420.82625pt" height="310.86825pt" viewBox="0 0 420.82625 310.86825" xmlns="http://www.w3.org/2000/svg" version="1.1">
 <metadata>
  <rdf:RDF xmlns:dc="http://purl.org/dc/elements/1.1/" xmlns:cc="http://creativecommons.org/ns#" xmlns:rdf="http://www.w3.org/1999/02/22-rdf-syntax-ns#">
   <cc:Work>
    <dc:type rdf:resource="http://purl.org/dc/dcmitype/StillImage"/>
    <dc:date>2025-04-09T13:30:39.879656</dc:date>
    <dc:format>image/svg+xml</dc:format>
    <dc:creator>
     <cc:Agent>
      <dc:title>Matplotlib v3.10.1, https://matplotlib.org/</dc:title>
     </cc:Agent>
    </dc:creator>
   </cc:Work>
  </rdf:RDF>
 </metadata>
 <defs>
  <style type="text/css">*{stroke-linejoin: round; stroke-linecap: butt}</style>
 </defs>
 <g id="figure_1">
  <g id="patch_1">
   <path d="M 0 310.86825 
L 420.82625 310.86825 
L 420.82625 0 
L 0 0 
z
" style="fill: #ffffff"/>
  </g>
  <g id="axes_1">
   <g id="patch_2">
    <path d="M 56.50625 273.312 
L 413.62625 273.312 
L 413.62625 7.2 
L 56.50625 7.2 
z
" style="fill: #ffffff"/>
   </g>
   <g id="matplotlib.axis_1">
    <g id="xtick_1">
     <g id="line2d_1">
      <path d="M 97.879909 273.312 
L 97.879909 7.2 
" clip-path="url(#p5d726c0718)" style="fill: none; stroke: #cccccc; stroke-width: 0.5; stroke-linecap: square"/>
     </g>
     <g id="line2d_2">
      <defs>
       <path id="m25f3758f65" d="M 0 0 
L 0 3.5 
" style="stroke: #000000; stroke-width: 0.8"/>
      </defs>
      <g>
       <use xlink:href="#m25f3758f65" x="97.879909" y="273.312" style="stroke: #000000; stroke-width: 0.8"/>
      </g>
     </g>
     <g id="text_1">
      <!-- 10 -->
      <g transform="translate(91.517409 287.910437) scale(0.1 -0.1)">
       <defs>
        <path id="DejaVuSans-31" d="M 794 531 
L 1825 531 
L 1825 4091 
L 703 3866 
L 703 4441 
L 1819 4666 
L 2450 4666 
L 2450 531 
L 3481 531 
L 3481 0 
L 794 0 
L 794 531 
z
" transform="scale(0.015625)"/>
        <path id="DejaVuSans-30" d="M 2034 4250 
Q 1547 4250 1301 3770 
Q 1056 3291 1056 2328 
Q 1056 1369 1301 889 
Q 1547 409 2034 409 
Q 2525 409 2770 889 
Q 3016 1369 3016 2328 
Q 3016 3291 2770 3770 
Q 2525 4250 2034 4250 
z
M 2034 4750 
Q 2819 4750 3233 4129 
Q 3647 3509 3647 2328 
Q 3647 1150 3233 529 
Q 2819 -91 2034 -91 
Q 1250 -91 836 529 
Q 422 1150 422 2328 
Q 422 3509 836 4129 
Q 1250 4750 2034 4750 
z
" transform="scale(0.015625)"/>
       </defs>
       <use xlink:href="#DejaVuSans-31"/>
       <use xlink:href="#DejaVuSans-30" transform="translate(63.623047 0)"/>
      </g>
     </g>
    </g>
    <g id="xtick_2">
     <g id="line2d_3">
      <path d="M 141.431128 273.312 
L 141.431128 7.2 
" clip-path="url(#p5d726c0718)" style="fill: none; stroke: #cccccc; stroke-width: 0.5; stroke-linecap: square"/>
     </g>
     <g id="line2d_4">
      <g>
       <use xlink:href="#m25f3758f65" x="141.431128" y="273.312" style="stroke: #000000; stroke-width: 0.8"/>
      </g>
     </g>
     <g id="text_2">
      <!-- 20 -->
      <g transform="translate(135.068628 287.910437) scale(0.1 -0.1)">
       <defs>
        <path id="DejaVuSans-32" d="M 1228 531 
L 3431 531 
L 3431 0 
L 469 0 
L 469 531 
Q 828 903 1448 1529 
Q 2069 2156 2228 2338 
Q 2531 2678 2651 2914 
Q 2772 3150 2772 3378 
Q 2772 3750 2511 3984 
Q 2250 4219 1831 4219 
Q 1534 4219 1204 4116 
Q 875 4013 500 3803 
L 500 4441 
Q 881 4594 1212 4672 
Q 1544 4750 1819 4750 
Q 2544 4750 2975 4387 
Q 3406 4025 3406 3419 
Q 3406 3131 3298 2873 
Q 3191 2616 2906 2266 
Q 2828 2175 2409 1742 
Q 1991 1309 1228 531 
z
" transform="scale(0.015625)"/>
       </defs>
       <use xlink:href="#DejaVuSans-32"/>
       <use xlink:href="#DejaVuSans-30" transform="translate(63.623047 0)"/>
      </g>
     </g>
    </g>
    <g id="xtick_3">
     <g id="line2d_5">
      <path d="M 184.982348 273.312 
L 184.982348 7.2 
" clip-path="url(#p5d726c0718)" style="fill: none; stroke: #cccccc; stroke-width: 0.5; stroke-linecap: square"/>
     </g>
     <g id="line2d_6">
      <g>
       <use xlink:href="#m25f3758f65" x="184.982348" y="273.312" style="stroke: #000000; stroke-width: 0.8"/>
      </g>
     </g>
     <g id="text_3">
      <!-- 30 -->
      <g transform="translate(178.619848 287.910437) scale(0.1 -0.1)">
       <defs>
        <path id="DejaVuSans-33" d="M 2597 2516 
Q 3050 2419 3304 2112 
Q 3559 1806 3559 1356 
Q 3559 666 3084 287 
Q 2609 -91 1734 -91 
Q 1441 -91 1130 -33 
Q 819 25 488 141 
L 488 750 
Q 750 597 1062 519 
Q 1375 441 1716 441 
Q 2309 441 2620 675 
Q 2931 909 2931 1356 
Q 2931 1769 2642 2001 
Q 2353 2234 1838 2234 
L 1294 2234 
L 1294 2753 
L 1863 2753 
Q 2328 2753 2575 2939 
Q 2822 3125 2822 3475 
Q 2822 3834 2567 4026 
Q 2313 4219 1838 4219 
Q 1578 4219 1281 4162 
Q 984 4106 628 3988 
L 628 4550 
Q 988 4650 1302 4700 
Q 1616 4750 1894 4750 
Q 2613 4750 3031 4423 
Q 3450 4097 3450 3541 
Q 3450 3153 3228 2886 
Q 3006 2619 2597 2516 
z
" transform="scale(0.015625)"/>
       </defs>
       <use xlink:href="#DejaVuSans-33"/>
       <use xlink:href="#DejaVuSans-30" transform="translate(63.623047 0)"/>
      </g>
     </g>
    </g>
    <g id="xtick_4">
     <g id="line2d_7">
      <path d="M 228.533567 273.312 
L 228.533567 7.2 
" clip-path="url(#p5d726c0718)" style="fill: none; stroke: #cccccc; stroke-width: 0.5; stroke-linecap: square"/>
     </g>
     <g id="line2d_8">
      <g>
       <use xlink:href="#m25f3758f65" x="228.533567" y="273.312" style="stroke: #000000; stroke-width: 0.8"/>
      </g>
     </g>
     <g id="text_4">
      <!-- 40 -->
      <g transform="translate(222.171067 287.910437) scale(0.1 -0.1)">
       <defs>
        <path id="DejaVuSans-34" d="M 2419 4116 
L 825 1625 
L 2419 1625 
L 2419 4116 
z
M 2253 4666 
L 3047 4666 
L 3047 1625 
L 3713 1625 
L 3713 1100 
L 3047 1100 
L 3047 0 
L 2419 0 
L 2419 1100 
L 313 1100 
L 313 1709 
L 2253 4666 
z
" transform="scale(0.015625)"/>
       </defs>
       <use xlink:href="#DejaVuSans-34"/>
       <use xlink:href="#DejaVuSans-30" transform="translate(63.623047 0)"/>
      </g>
     </g>
    </g>
    <g id="xtick_5">
     <g id="line2d_9">
      <path d="M 272.084787 273.312 
L 272.084787 7.2 
" clip-path="url(#p5d726c0718)" style="fill: none; stroke: #cccccc; stroke-width: 0.5; stroke-linecap: square"/>
     </g>
     <g id="line2d_10">
      <g>
       <use xlink:href="#m25f3758f65" x="272.084787" y="273.312" style="stroke: #000000; stroke-width: 0.8"/>
      </g>
     </g>
     <g id="text_5">
      <!-- 50 -->
      <g transform="translate(265.722287 287.910437) scale(0.1 -0.1)">
       <defs>
        <path id="DejaVuSans-35" d="M 691 4666 
L 3169 4666 
L 3169 4134 
L 1269 4134 
L 1269 2991 
Q 1406 3038 1543 3061 
Q 1681 3084 1819 3084 
Q 2600 3084 3056 2656 
Q 3513 2228 3513 1497 
Q 3513 744 3044 326 
Q 2575 -91 1722 -91 
Q 1428 -91 1123 -41 
Q 819 9 494 109 
L 494 744 
Q 775 591 1075 516 
Q 1375 441 1709 441 
Q 2250 441 2565 725 
Q 2881 1009 2881 1497 
Q 2881 1984 2565 2268 
Q 2250 2553 1709 2553 
Q 1456 2553 1204 2497 
Q 953 2441 691 2322 
L 691 4666 
z
" transform="scale(0.015625)"/>
       </defs>
       <use xlink:href="#DejaVuSans-35"/>
       <use xlink:href="#DejaVuSans-30" transform="translate(63.623047 0)"/>
      </g>
     </g>
    </g>
    <g id="xtick_6">
     <g id="line2d_11">
      <path d="M 315.636006 273.312 
L 315.636006 7.2 
" clip-path="url(#p5d726c0718)" style="fill: none; stroke: #cccccc; stroke-width: 0.5; stroke-linecap: square"/>
     </g>
     <g id="line2d_12">
      <g>
       <use xlink:href="#m25f3758f65" x="315.636006" y="273.312" style="stroke: #000000; stroke-width: 0.8"/>
      </g>
     </g>
     <g id="text_6">
      <!-- 60 -->
      <g transform="translate(309.273506 287.910437) scale(0.1 -0.1)">
       <defs>
        <path id="DejaVuSans-36" d="M 2113 2584 
Q 1688 2584 1439 2293 
Q 1191 2003 1191 1497 
Q 1191 994 1439 701 
Q 1688 409 2113 409 
Q 2538 409 2786 701 
Q 3034 994 3034 1497 
Q 3034 2003 2786 2293 
Q 2538 2584 2113 2584 
z
M 3366 4563 
L 3366 3988 
Q 3128 4100 2886 4159 
Q 2644 4219 2406 4219 
Q 1781 4219 1451 3797 
Q 1122 3375 1075 2522 
Q 1259 2794 1537 2939 
Q 1816 3084 2150 3084 
Q 2853 3084 3261 2657 
Q 3669 2231 3669 1497 
Q 3669 778 3244 343 
Q 2819 -91 2113 -91 
Q 1303 -91 875 529 
Q 447 1150 447 2328 
Q 447 3434 972 4092 
Q 1497 4750 2381 4750 
Q 2619 4750 2861 4703 
Q 3103 4656 3366 4563 
z
" transform="scale(0.015625)"/>
       </defs>
       <use xlink:href="#DejaVuSans-36"/>
       <use xlink:href="#DejaVuSans-30" transform="translate(63.623047 0)"/>
      </g>
     </g>
    </g>
    <g id="xtick_7">
     <g id="line2d_13">
      <path d="M 359.187226 273.312 
L 359.187226 7.2 
" clip-path="url(#p5d726c0718)" style="fill: none; stroke: #cccccc; stroke-width: 0.5; stroke-linecap: square"/>
     </g>
     <g id="line2d_14">
      <g>
       <use xlink:href="#m25f3758f65" x="359.187226" y="273.312" style="stroke: #000000; stroke-width: 0.8"/>
      </g>
     </g>
     <g id="text_7">
      <!-- 70 -->
      <g transform="translate(352.824726 287.910437) scale(0.1 -0.1)">
       <defs>
        <path id="DejaVuSans-37" d="M 525 4666 
L 3525 4666 
L 3525 4397 
L 1831 0 
L 1172 0 
L 2766 4134 
L 525 4134 
L 525 4666 
z
" transform="scale(0.015625)"/>
       </defs>
       <use xlink:href="#DejaVuSans-37"/>
       <use xlink:href="#DejaVuSans-30" transform="translate(63.623047 0)"/>
      </g>
     </g>
    </g>
    <g id="xtick_8">
     <g id="line2d_15">
      <path d="M 402.738445 273.312 
L 402.738445 7.2 
" clip-path="url(#p5d726c0718)" style="fill: none; stroke: #cccccc; stroke-width: 0.5; stroke-linecap: square"/>
     </g>
     <g id="line2d_16">
      <g>
       <use xlink:href="#m25f3758f65" x="402.738445" y="273.312" style="stroke: #000000; stroke-width: 0.8"/>
      </g>
     </g>
     <g id="text_8">
      <!-- 80 -->
      <g transform="translate(396.375945 287.910437) scale(0.1 -0.1)">
       <defs>
        <path id="DejaVuSans-38" d="M 2034 2216 
Q 1584 2216 1326 1975 
Q 1069 1734 1069 1313 
Q 1069 891 1326 650 
Q 1584 409 2034 409 
Q 2484 409 2743 651 
Q 3003 894 3003 1313 
Q 3003 1734 2745 1975 
Q 2488 2216 2034 2216 
z
M 1403 2484 
Q 997 2584 770 2862 
Q 544 3141 544 3541 
Q 544 4100 942 4425 
Q 1341 4750 2034 4750 
Q 2731 4750 3128 4425 
Q 3525 4100 3525 3541 
Q 3525 3141 3298 2862 
Q 3072 2584 2669 2484 
Q 3125 2378 3379 2068 
Q 3634 1759 3634 1313 
Q 3634 634 3220 271 
Q 2806 -91 2034 -91 
Q 1263 -91 848 271 
Q 434 634 434 1313 
Q 434 1759 690 2068 
Q 947 2378 1403 2484 
z
M 1172 3481 
Q 1172 3119 1398 2916 
Q 1625 2713 2034 2713 
Q 2441 2713 2670 2916 
Q 2900 3119 2900 3481 
Q 2900 3844 2670 4047 
Q 2441 4250 2034 4250 
Q 1625 4250 1398 4047 
Q 1172 3844 1172 3481 
z
" transform="scale(0.015625)"/>
       </defs>
       <use xlink:href="#DejaVuSans-38"/>
       <use xlink:href="#DejaVuSans-30" transform="translate(63.623047 0)"/>
      </g>
     </g>
    </g>
    <g id="text_9">
     <!-- k -->
     <g transform="translate(232.170938 301.588562) scale(0.1 -0.1)">
      <defs>
       <path id="DejaVuSans-6b" d="M 581 4863 
L 1159 4863 
L 1159 1991 
L 2875 3500 
L 3609 3500 
L 1753 1863 
L 3688 0 
L 2938 0 
L 1159 1709 
L 1159 0 
L 581 0 
L 581 4863 
z
" transform="scale(0.015625)"/>
      </defs>
      <use xlink:href="#DejaVuSans-6b"/>
     </g>
    </g>
   </g>
   <g id="matplotlib.axis_2">
    <g id="ytick_1">
     <g id="line2d_17">
      <path d="M 56.50625 273.312 
L 413.62625 273.312 
" clip-path="url(#p5d726c0718)" style="fill: none; stroke: #cccccc; stroke-width: 0.5; stroke-linecap: square"/>
     </g>
     <g id="line2d_18">
      <defs>
       <path id="mb31d83756a" d="M 0 0 
L -3.5 0 
" style="stroke: #000000; stroke-width: 0.8"/>
      </defs>
      <g>
       <use xlink:href="#mb31d83756a" x="56.50625" y="273.312" style="stroke: #000000; stroke-width: 0.8"/>
      </g>
     </g>
     <g id="text_10">
      <!-- 0.040 -->
      <g transform="translate(20.878125 277.111219) scale(0.1 -0.1)">
       <defs>
        <path id="DejaVuSans-2e" d="M 684 794 
L 1344 794 
L 1344 0 
L 684 0 
L 684 794 
z
" transform="scale(0.015625)"/>
       </defs>
       <use xlink:href="#DejaVuSans-30"/>
       <use xlink:href="#DejaVuSans-2e" transform="translate(63.623047 0)"/>
       <use xlink:href="#DejaVuSans-30" transform="translate(95.410156 0)"/>
       <use xlink:href="#DejaVuSans-34" transform="translate(159.033203 0)"/>
       <use xlink:href="#DejaVuSans-30" transform="translate(222.65625 0)"/>
      </g>
     </g>
    </g>
    <g id="ytick_2">
     <g id="line2d_19">
      <path d="M 56.50625 241.632 
L 413.62625 241.632 
" clip-path="url(#p5d726c0718)" style="fill: none; stroke: #cccccc; stroke-width: 0.5; stroke-linecap: square"/>
     </g>
     <g id="line2d_20">
      <g>
       <use xlink:href="#mb31d83756a" x="56.50625" y="241.632" style="stroke: #000000; stroke-width: 0.8"/>
      </g>
     </g>
     <g id="text_11">
      <!-- 0.045 -->
      <g transform="translate(20.878125 245.431219) scale(0.1 -0.1)">
       <use xlink:href="#DejaVuSans-30"/>
       <use xlink:href="#DejaVuSans-2e" transform="translate(63.623047 0)"/>
       <use xlink:href="#DejaVuSans-30" transform="translate(95.410156 0)"/>
       <use xlink:href="#DejaVuSans-34" transform="translate(159.033203 0)"/>
       <use xlink:href="#DejaVuSans-35" transform="translate(222.65625 0)"/>
      </g>
     </g>
    </g>
    <g id="ytick_3">
     <g id="line2d_21">
      <path d="M 56.50625 209.952 
L 413.62625 209.952 
" clip-path="url(#p5d726c0718)" style="fill: none; stroke: #cccccc; stroke-width: 0.5; stroke-linecap: square"/>
     </g>
     <g id="line2d_22">
      <g>
       <use xlink:href="#mb31d83756a" x="56.50625" y="209.952" style="stroke: #000000; stroke-width: 0.8"/>
      </g>
     </g>
     <g id="text_12">
      <!-- 0.050 -->
      <g transform="translate(20.878125 213.751219) scale(0.1 -0.1)">
       <use xlink:href="#DejaVuSans-30"/>
       <use xlink:href="#DejaVuSans-2e" transform="translate(63.623047 0)"/>
       <use xlink:href="#DejaVuSans-30" transform="translate(95.410156 0)"/>
       <use xlink:href="#DejaVuSans-35" transform="translate(159.033203 0)"/>
       <use xlink:href="#DejaVuSans-30" transform="translate(222.65625 0)"/>
      </g>
     </g>
    </g>
    <g id="ytick_4">
     <g id="line2d_23">
      <path d="M 56.50625 178.272 
L 413.62625 178.272 
" clip-path="url(#p5d726c0718)" style="fill: none; stroke: #cccccc; stroke-width: 0.5; stroke-linecap: square"/>
     </g>
     <g id="line2d_24">
      <g>
       <use xlink:href="#mb31d83756a" x="56.50625" y="178.272" style="stroke: #000000; stroke-width: 0.8"/>
      </g>
     </g>
     <g id="text_13">
      <!-- 0.055 -->
      <g transform="translate(20.878125 182.071219) scale(0.1 -0.1)">
       <use xlink:href="#DejaVuSans-30"/>
       <use xlink:href="#DejaVuSans-2e" transform="translate(63.623047 0)"/>
       <use xlink:href="#DejaVuSans-30" transform="translate(95.410156 0)"/>
       <use xlink:href="#DejaVuSans-35" transform="translate(159.033203 0)"/>
       <use xlink:href="#DejaVuSans-35" transform="translate(222.65625 0)"/>
      </g>
     </g>
    </g>
    <g id="ytick_5">
     <g id="line2d_25">
      <path d="M 56.50625 146.592 
L 413.62625 146.592 
" clip-path="url(#p5d726c0718)" style="fill: none; stroke: #cccccc; stroke-width: 0.5; stroke-linecap: square"/>
     </g>
     <g id="line2d_26">
      <g>
       <use xlink:href="#mb31d83756a" x="56.50625" y="146.592" style="stroke: #000000; stroke-width: 0.8"/>
      </g>
     </g>
     <g id="text_14">
      <!-- 0.060 -->
      <g transform="translate(20.878125 150.391219) scale(0.1 -0.1)">
       <use xlink:href="#DejaVuSans-30"/>
       <use xlink:href="#DejaVuSans-2e" transform="translate(63.623047 0)"/>
       <use xlink:href="#DejaVuSans-30" transform="translate(95.410156 0)"/>
       <use xlink:href="#DejaVuSans-36" transform="translate(159.033203 0)"/>
       <use xlink:href="#DejaVuSans-30" transform="translate(222.65625 0)"/>
      </g>
     </g>
    </g>
    <g id="ytick_6">
     <g id="line2d_27">
      <path d="M 56.50625 114.912 
L 413.62625 114.912 
" clip-path="url(#p5d726c0718)" style="fill: none; stroke: #cccccc; stroke-width: 0.5; stroke-linecap: square"/>
     </g>
     <g id="line2d_28">
      <g>
       <use xlink:href="#mb31d83756a" x="56.50625" y="114.912" style="stroke: #000000; stroke-width: 0.8"/>
      </g>
     </g>
     <g id="text_15">
      <!-- 0.065 -->
      <g transform="translate(20.878125 118.711219) scale(0.1 -0.1)">
       <use xlink:href="#DejaVuSans-30"/>
       <use xlink:href="#DejaVuSans-2e" transform="translate(63.623047 0)"/>
       <use xlink:href="#DejaVuSans-30" transform="translate(95.410156 0)"/>
       <use xlink:href="#DejaVuSans-36" transform="translate(159.033203 0)"/>
       <use xlink:href="#DejaVuSans-35" transform="translate(222.65625 0)"/>
      </g>
     </g>
    </g>
    <g id="ytick_7">
     <g id="line2d_29">
      <path d="M 56.50625 83.232 
L 413.62625 83.232 
" clip-path="url(#p5d726c0718)" style="fill: none; stroke: #cccccc; stroke-width: 0.5; stroke-linecap: square"/>
     </g>
     <g id="line2d_30">
      <g>
       <use xlink:href="#mb31d83756a" x="56.50625" y="83.232" style="stroke: #000000; stroke-width: 0.8"/>
      </g>
     </g>
     <g id="text_16">
      <!-- 0.070 -->
      <g transform="translate(20.878125 87.031219) scale(0.1 -0.1)">
       <use xlink:href="#DejaVuSans-30"/>
       <use xlink:href="#DejaVuSans-2e" transform="translate(63.623047 0)"/>
       <use xlink:href="#DejaVuSans-30" transform="translate(95.410156 0)"/>
       <use xlink:href="#DejaVuSans-37" transform="translate(159.033203 0)"/>
       <use xlink:href="#DejaVuSans-30" transform="translate(222.65625 0)"/>
      </g>
     </g>
    </g>
    <g id="ytick_8">
     <g id="line2d_31">
      <path d="M 56.50625 51.552 
L 413.62625 51.552 
" clip-path="url(#p5d726c0718)" style="fill: none; stroke: #cccccc; stroke-width: 0.5; stroke-linecap: square"/>
     </g>
     <g id="line2d_32">
      <g>
       <use xlink:href="#mb31d83756a" x="56.50625" y="51.552" style="stroke: #000000; stroke-width: 0.8"/>
      </g>
     </g>
     <g id="text_17">
      <!-- 0.075 -->
      <g transform="translate(20.878125 55.351219) scale(0.1 -0.1)">
       <use xlink:href="#DejaVuSans-30"/>
       <use xlink:href="#DejaVuSans-2e" transform="translate(63.623047 0)"/>
       <use xlink:href="#DejaVuSans-30" transform="translate(95.410156 0)"/>
       <use xlink:href="#DejaVuSans-37" transform="translate(159.033203 0)"/>
       <use xlink:href="#DejaVuSans-35" transform="translate(222.65625 0)"/>
      </g>
     </g>
    </g>
    <g id="ytick_9">
     <g id="line2d_33">
      <path d="M 56.50625 19.872 
L 413.62625 19.872 
" clip-path="url(#p5d726c0718)" style="fill: none; stroke: #cccccc; stroke-width: 0.5; stroke-linecap: square"/>
     </g>
     <g id="line2d_34">
      <g>
       <use xlink:href="#mb31d83756a" x="56.50625" y="19.872" style="stroke: #000000; stroke-width: 0.8"/>
      </g>
     </g>
     <g id="text_18">
      <!-- 0.080 -->
      <g transform="translate(20.878125 23.671219) scale(0.1 -0.1)">
       <use xlink:href="#DejaVuSans-30"/>
       <use xlink:href="#DejaVuSans-2e" transform="translate(63.623047 0)"/>
       <use xlink:href="#DejaVuSans-30" transform="translate(95.410156 0)"/>
       <use xlink:href="#DejaVuSans-38" transform="translate(159.033203 0)"/>
       <use xlink:href="#DejaVuSans-30" transform="translate(222.65625 0)"/>
      </g>
     </g>
    </g>
    <g id="text_19">
     <!-- Density -->
     <g transform="translate(14.798437 159.264594) rotate(-90) scale(0.1 -0.1)">
      <defs>
       <path id="DejaVuSans-44" d="M 1259 4147 
L 1259 519 
L 2022 519 
Q 2988 519 3436 956 
Q 3884 1394 3884 2338 
Q 3884 3275 3436 3711 
Q 2988 4147 2022 4147 
L 1259 4147 
z
M 628 4666 
L 1925 4666 
Q 3281 4666 3915 4102 
Q 4550 3538 4550 2338 
Q 4550 1131 3912 565 
Q 3275 0 1925 0 
L 628 0 
L 628 4666 
z
" transform="scale(0.015625)"/>
       <path id="DejaVuSans-65" d="M 3597 1894 
L 3597 1613 
L 953 1613 
Q 991 1019 1311 708 
Q 1631 397 2203 397 
Q 2534 397 2845 478 
Q 3156 559 3463 722 
L 3463 178 
Q 3153 47 2828 -22 
Q 2503 -91 2169 -91 
Q 1331 -91 842 396 
Q 353 884 353 1716 
Q 353 2575 817 3079 
Q 1281 3584 2069 3584 
Q 2775 3584 3186 3129 
Q 3597 2675 3597 1894 
z
M 3022 2063 
Q 3016 2534 2758 2815 
Q 2500 3097 2075 3097 
Q 1594 3097 1305 2825 
Q 1016 2553 972 2059 
L 3022 2063 
z
" transform="scale(0.015625)"/>
       <path id="DejaVuSans-6e" d="M 3513 2113 
L 3513 0 
L 2938 0 
L 2938 2094 
Q 2938 2591 2744 2837 
Q 2550 3084 2163 3084 
Q 1697 3084 1428 2787 
Q 1159 2491 1159 1978 
L 1159 0 
L 581 0 
L 581 3500 
L 1159 3500 
L 1159 2956 
Q 1366 3272 1645 3428 
Q 1925 3584 2291 3584 
Q 2894 3584 3203 3211 
Q 3513 2838 3513 2113 
z
" transform="scale(0.015625)"/>
       <path id="DejaVuSans-73" d="M 2834 3397 
L 2834 2853 
Q 2591 2978 2328 3040 
Q 2066 3103 1784 3103 
Q 1356 3103 1142 2972 
Q 928 2841 928 2578 
Q 928 2378 1081 2264 
Q 1234 2150 1697 2047 
L 1894 2003 
Q 2506 1872 2764 1633 
Q 3022 1394 3022 966 
Q 3022 478 2636 193 
Q 2250 -91 1575 -91 
Q 1294 -91 989 -36 
Q 684 19 347 128 
L 347 722 
Q 666 556 975 473 
Q 1284 391 1588 391 
Q 1994 391 2212 530 
Q 2431 669 2431 922 
Q 2431 1156 2273 1281 
Q 2116 1406 1581 1522 
L 1381 1569 
Q 847 1681 609 1914 
Q 372 2147 372 2553 
Q 372 3047 722 3315 
Q 1072 3584 1716 3584 
Q 2034 3584 2315 3537 
Q 2597 3491 2834 3397 
z
" transform="scale(0.015625)"/>
       <path id="DejaVuSans-69" d="M 603 3500 
L 1178 3500 
L 1178 0 
L 603 0 
L 603 3500 
z
M 603 4863 
L 1178 4863 
L 1178 4134 
L 603 4134 
L 603 4863 
z
" transform="scale(0.015625)"/>
       <path id="DejaVuSans-74" d="M 1172 4494 
L 1172 3500 
L 2356 3500 
L 2356 3053 
L 1172 3053 
L 1172 1153 
Q 1172 725 1289 603 
Q 1406 481 1766 481 
L 2356 481 
L 2356 0 
L 1766 0 
Q 1100 0 847 248 
Q 594 497 594 1153 
L 594 3053 
L 172 3053 
L 172 3500 
L 594 3500 
L 594 4494 
L 1172 4494 
z
" transform="scale(0.015625)"/>
       <path id="DejaVuSans-79" d="M 2059 -325 
Q 1816 -950 1584 -1140 
Q 1353 -1331 966 -1331 
L 506 -1331 
L 506 -850 
L 844 -850 
Q 1081 -850 1212 -737 
Q 1344 -625 1503 -206 
L 1606 56 
L 191 3500 
L 800 3500 
L 1894 763 
L 2988 3500 
L 3597 3500 
L 2059 -325 
z
" transform="scale(0.015625)"/>
      </defs>
      <use xlink:href="#DejaVuSans-44"/>
      <use xlink:href="#DejaVuSans-65" transform="translate(77.001953 0)"/>
      <use xlink:href="#DejaVuSans-6e" transform="translate(138.525391 0)"/>
      <use xlink:href="#DejaVuSans-73" transform="translate(201.904297 0)"/>
      <use xlink:href="#DejaVuSans-69" transform="translate(254.003906 0)"/>
      <use xlink:href="#DejaVuSans-74" transform="translate(281.787109 0)"/>
      <use xlink:href="#DejaVuSans-79" transform="translate(320.996094 0)"/>
     </g>
    </g>
   </g>
   <g id="line2d_35">
    <path d="M 67.234125 -1 
L 67.394055 3.29128 
L 71.749177 37.755356 
L 76.104299 46.313999 
L 80.459421 47.007745 
L 84.814543 64.071228 
L 89.169665 69.857234 
L 93.524787 77.401487 
L 97.879909 81.967812 
L 102.23503 91.546564 
L 106.590152 94.231093 
L 110.945274 103.904888 
L 115.300396 108.64229 
L 119.655518 114.235056 
L 124.01064 118.157014 
L 128.365762 122.084675 
L 132.720884 123.58057 
L 137.076006 126.256867 
L 141.431128 127.325714 
L 145.78625 128.442082 
L 150.141372 128.822838 
L 154.496494 128.758171 
L 158.851616 127.845109 
L 163.206738 126.510068 
L 167.56186 124.200545 
L 171.916982 121.35626 
L 176.272104 118.693185 
L 180.627226 115.918596 
L 184.982348 113.389211 
L 189.33747 111.297644 
L 193.692591 109.735137 
L 198.047713 108.476759 
L 202.402835 107.175929 
L 206.757957 106.150716 
L 211.113079 104.820106 
L 215.468201 104.026159 
L 219.823323 102.271034 
L 224.178445 100.810535 
L 228.533567 98.592245 
L 232.888689 96.911884 
L 237.243811 94.219024 
L 241.598933 91.588256 
L 245.954055 88.744597 
L 250.309177 85.674107 
L 254.664299 82.481331 
L 259.019421 79.619296 
L 263.374543 75.942444 
L 267.729665 73.114622 
L 272.084787 69.628485 
L 276.439909 66.675208 
L 280.79503 63.891736 
L 285.150152 60.818707 
L 289.505274 57.933858 
L 293.860396 55.376582 
L 298.215518 53.297043 
L 302.57064 50.752438 
L 306.925762 48.783146 
L 311.280884 47.012805 
L 315.636006 44.841392 
L 319.991128 43.516476 
L 324.34625 41.726492 
L 328.701372 40.277388 
L 333.056494 39.009495 
L 337.411616 38.509531 
L 341.766738 37.209958 
L 346.12186 35.604352 
L 350.476982 35.172184 
L 354.832104 34.056988 
L 359.187226 33.421433 
L 363.542348 32.012877 
L 367.89747 31.78473 
L 372.252591 31.028788 
L 376.607713 30.438851 
L 380.962835 30.149877 
L 385.317957 29.056857 
L 389.673079 29.238652 
L 394.028201 28.608164 
L 398.383323 27.555694 
L 402.738445 27.556278 
L 407.093567 27.222317 
L 411.448689 26.855409 
" clip-path="url(#p5d726c0718)" style="fill: none"/>
    <defs>
     <path id="m90bd7b5850" d="M 0 1 
C 0.265203 1 0.51958 0.894634 0.707107 0.707107 
C 0.894634 0.51958 1 0.265203 1 0 
C 1 -0.265203 0.894634 -0.51958 0.707107 -0.707107 
C 0.51958 -0.894634 0.265203 -1 0 -1 
C -0.265203 -1 -0.51958 -0.894634 -0.707107 -0.707107 
C -0.894634 -0.51958 -1 -0.265203 -1 0 
C -1 0.265203 -0.894634 0.51958 -0.707107 0.707107 
C -0.51958 0.894634 -0.265203 1 0 1 
z
" style="stroke: #00cc00"/>
    </defs>
    <g clip-path="url(#p5d726c0718)">
     <use xlink:href="#m90bd7b5850" x="67.234125" y="-1" style="fill: #00cc00; stroke: #00cc00"/>
     <use xlink:href="#m90bd7b5850" x="67.394055" y="3.29128" style="fill: #00cc00; stroke: #00cc00"/>
     <use xlink:href="#m90bd7b5850" x="71.749177" y="37.755356" style="fill: #00cc00; stroke: #00cc00"/>
     <use xlink:href="#m90bd7b5850" x="76.104299" y="46.313999" style="fill: #00cc00; stroke: #00cc00"/>
     <use xlink:href="#m90bd7b5850" x="80.459421" y="47.007745" style="fill: #00cc00; stroke: #00cc00"/>
     <use xlink:href="#m90bd7b5850" x="84.814543" y="64.071228" style="fill: #00cc00; stroke: #00cc00"/>
     <use xlink:href="#m90bd7b5850" x="89.169665" y="69.857234" style="fill: #00cc00; stroke: #00cc00"/>
     <use xlink:href="#m90bd7b5850" x="93.524787" y="77.401487" style="fill: #00cc00; stroke: #00cc00"/>
     <use xlink:href="#m90bd7b5850" x="97.879909" y="81.967812" style="fill: #00cc00; stroke: #00cc00"/>
     <use xlink:href="#m90bd7b5850" x="102.23503" y="91.546564" style="fill: #00cc00; stroke: #00cc00"/>
     <use xlink:href="#m90bd7b5850" x="106.590152" y="94.231093" style="fill: #00cc00; stroke: #00cc00"/>
     <use xlink:href="#m90bd7b5850" x="110.945274" y="103.904888" style="fill: #00cc00; stroke: #00cc00"/>
     <use xlink:href="#m90bd7b5850" x="115.300396" y="108.64229" style="fill: #00cc00; stroke: #00cc00"/>
     <use xlink:href="#m90bd7b5850" x="119.655518" y="114.235056" style="fill: #00cc00; stroke: #00cc00"/>
     <use xlink:href="#m90bd7b5850" x="124.01064" y="118.157014" style="fill: #00cc00; stroke: #00cc00"/>
     <use xlink:href="#m90bd7b5850" x="128.365762" y="122.084675" style="fill: #00cc00; stroke: #00cc00"/>
     <use xlink:href="#m90bd7b5850" x="132.720884" y="123.58057" style="fill: #00cc00; stroke: #00cc00"/>
     <use xlink:href="#m90bd7b5850" x="137.076006" y="126.256867" style="fill: #00cc00; stroke: #00cc00"/>
     <use xlink:href="#m90bd7b5850" x="141.431128" y="127.325714" style="fill: #00cc00; stroke: #00cc00"/>
     <use xlink:href="#m90bd7b5850" x="145.78625" y="128.442082" style="fill: #00cc00; stroke: #00cc00"/>
     <use xlink:href="#m90bd7b5850" x="150.141372" y="128.822838" style="fill: #00cc00; stroke: #00cc00"/>
     <use xlink:href="#m90bd7b5850" x="154.496494" y="128.758171" style="fill: #00cc00; stroke: #00cc00"/>
     <use xlink:href="#m90bd7b5850" x="158.851616" y="127.845109" style="fill: #00cc00; stroke: #00cc00"/>
     <use xlink:href="#m90bd7b5850" x="163.206738" y="126.510068" style="fill: #00cc00; stroke: #00cc00"/>
     <use xlink:href="#m90bd7b5850" x="167.56186" y="124.200545" style="fill: #00cc00; stroke: #00cc00"/>
     <use xlink:href="#m90bd7b5850" x="171.916982" y="121.35626" style="fill: #00cc00; stroke: #00cc00"/>
     <use xlink:href="#m90bd7b5850" x="176.272104" y="118.693185" style="fill: #00cc00; stroke: #00cc00"/>
     <use xlink:href="#m90bd7b5850" x="180.627226" y="115.918596" style="fill: #00cc00; stroke: #00cc00"/>
     <use xlink:href="#m90bd7b5850" x="184.982348" y="113.389211" style="fill: #00cc00; stroke: #00cc00"/>
     <use xlink:href="#m90bd7b5850" x="189.33747" y="111.297644" style="fill: #00cc00; stroke: #00cc00"/>
     <use xlink:href="#m90bd7b5850" x="193.692591" y="109.735137" style="fill: #00cc00; stroke: #00cc00"/>
     <use xlink:href="#m90bd7b5850" x="198.047713" y="108.476759" style="fill: #00cc00; stroke: #00cc00"/>
     <use xlink:href="#m90bd7b5850" x="202.402835" y="107.175929" style="fill: #00cc00; stroke: #00cc00"/>
     <use xlink:href="#m90bd7b5850" x="206.757957" y="106.150716" style="fill: #00cc00; stroke: #00cc00"/>
     <use xlink:href="#m90bd7b5850" x="211.113079" y="104.820106" style="fill: #00cc00; stroke: #00cc00"/>
     <use xlink:href="#m90bd7b5850" x="215.468201" y="104.026159" style="fill: #00cc00; stroke: #00cc00"/>
     <use xlink:href="#m90bd7b5850" x="219.823323" y="102.271034" style="fill: #00cc00; stroke: #00cc00"/>
     <use xlink:href="#m90bd7b5850" x="224.178445" y="100.810535" style="fill: #00cc00; stroke: #00cc00"/>
     <use xlink:href="#m90bd7b5850" x="228.533567" y="98.592245" style="fill: #00cc00; stroke: #00cc00"/>
     <use xlink:href="#m90bd7b5850" x="232.888689" y="96.911884" style="fill: #00cc00; stroke: #00cc00"/>
     <use xlink:href="#m90bd7b5850" x="237.243811" y="94.219024" style="fill: #00cc00; stroke: #00cc00"/>
     <use xlink:href="#m90bd7b5850" x="241.598933" y="91.588256" style="fill: #00cc00; stroke: #00cc00"/>
     <use xlink:href="#m90bd7b5850" x="245.954055" y="88.744597" style="fill: #00cc00; stroke: #00cc00"/>
     <use xlink:href="#m90bd7b5850" x="250.309177" y="85.674107" style="fill: #00cc00; stroke: #00cc00"/>
     <use xlink:href="#m90bd7b5850" x="254.664299" y="82.481331" style="fill: #00cc00; stroke: #00cc00"/>
     <use xlink:href="#m90bd7b5850" x="259.019421" y="79.619296" style="fill: #00cc00; stroke: #00cc00"/>
     <use xlink:href="#m90bd7b5850" x="263.374543" y="75.942444" style="fill: #00cc00; stroke: #00cc00"/>
     <use xlink:href="#m90bd7b5850" x="267.729665" y="73.114622" style="fill: #00cc00; stroke: #00cc00"/>
     <use xlink:href="#m90bd7b5850" x="272.084787" y="69.628485" style="fill: #00cc00; stroke: #00cc00"/>
     <use xlink:href="#m90bd7b5850" x="276.439909" y="66.675208" style="fill: #00cc00; stroke: #00cc00"/>
     <use xlink:href="#m90bd7b5850" x="280.79503" y="63.891736" style="fill: #00cc00; stroke: #00cc00"/>
     <use xlink:href="#m90bd7b5850" x="285.150152" y="60.818707" style="fill: #00cc00; stroke: #00cc00"/>
     <use xlink:href="#m90bd7b5850" x="289.505274" y="57.933858" style="fill: #00cc00; stroke: #00cc00"/>
     <use xlink:href="#m90bd7b5850" x="293.860396" y="55.376582" style="fill: #00cc00; stroke: #00cc00"/>
     <use xlink:href="#m90bd7b5850" x="298.215518" y="53.297043" style="fill: #00cc00; stroke: #00cc00"/>
     <use xlink:href="#m90bd7b5850" x="302.57064" y="50.752438" style="fill: #00cc00; stroke: #00cc00"/>
     <use xlink:href="#m90bd7b5850" x="306.925762" y="48.783146" style="fill: #00cc00; stroke: #00cc00"/>
     <use xlink:href="#m90bd7b5850" x="311.280884" y="47.012805" style="fill: #00cc00; stroke: #00cc00"/>
     <use xlink:href="#m90bd7b5850" x="315.636006" y="44.841392" style="fill: #00cc00; stroke: #00cc00"/>
     <use xlink:href="#m90bd7b5850" x="319.991128" y="43.516476" style="fill: #00cc00; stroke: #00cc00"/>
     <use xlink:href="#m90bd7b5850" x="324.34625" y="41.726492" style="fill: #00cc00; stroke: #00cc00"/>
     <use xlink:href="#m90bd7b5850" x="328.701372" y="40.277388" style="fill: #00cc00; stroke: #00cc00"/>
     <use xlink:href="#m90bd7b5850" x="333.056494" y="39.009495" style="fill: #00cc00; stroke: #00cc00"/>
     <use xlink:href="#m90bd7b5850" x="337.411616" y="38.509531" style="fill: #00cc00; stroke: #00cc00"/>
     <use xlink:href="#m90bd7b5850" x="341.766738" y="37.209958" style="fill: #00cc00; stroke: #00cc00"/>
     <use xlink:href="#m90bd7b5850" x="346.12186" y="35.604352" style="fill: #00cc00; stroke: #00cc00"/>
     <use xlink:href="#m90bd7b5850" x="350.476982" y="35.172184" style="fill: #00cc00; stroke: #00cc00"/>
     <use xlink:href="#m90bd7b5850" x="354.832104" y="34.056988" style="fill: #00cc00; stroke: #00cc00"/>
     <use xlink:href="#m90bd7b5850" x="359.187226" y="33.421433" style="fill: #00cc00; stroke: #00cc00"/>
     <use xlink:href="#m90bd7b5850" x="363.542348" y="32.012877" style="fill: #00cc00; stroke: #00cc00"/>
     <use xlink:href="#m90bd7b5850" x="367.89747" y="31.78473" style="fill: #00cc00; stroke: #00cc00"/>
     <use xlink:href="#m90bd7b5850" x="372.252591" y="31.028788" style="fill: #00cc00; stroke: #00cc00"/>
     <use xlink:href="#m90bd7b5850" x="376.607713" y="30.438851" style="fill: #00cc00; stroke: #00cc00"/>
     <use xlink:href="#m90bd7b5850" x="380.962835" y="30.149877" style="fill: #00cc00; stroke: #00cc00"/>
     <use xlink:href="#m90bd7b5850" x="385.317957" y="29.056857" style="fill: #00cc00; stroke: #00cc00"/>
     <use xlink:href="#m90bd7b5850" x="389.673079" y="29.238652" style="fill: #00cc00; stroke: #00cc00"/>
     <use xlink:href="#m90bd7b5850" x="394.028201" y="28.608164" style="fill: #00cc00; stroke: #00cc00"/>
     <use xlink:href="#m90bd7b5850" x="398.383323" y="27.555694" style="fill: #00cc00; stroke: #00cc00"/>
     <use xlink:href="#m90bd7b5850" x="402.738445" y="27.556278" style="fill: #00cc00; stroke: #00cc00"/>
     <use xlink:href="#m90bd7b5850" x="407.093567" y="27.222317" style="fill: #00cc00; stroke: #00cc00"/>
     <use xlink:href="#m90bd7b5850" x="411.448689" y="26.855409" style="fill: #00cc00; stroke: #00cc00"/>
    </g>
   </g>
   <g id="line2d_36">
    <path d="M 67.234125 -1 
L 67.394055 3.29128 
L 71.749177 37.755356 
L 76.104299 46.313999 
L 80.459421 47.007745 
L 84.814543 64.071228 
L 89.169665 69.857234 
L 93.524787 77.401487 
L 97.879909 81.967812 
L 102.23503 91.546564 
L 106.590152 94.231093 
L 110.945274 103.904888 
L 115.300396 108.64229 
L 119.655518 114.235056 
L 124.01064 118.157014 
L 128.365762 122.084675 
L 132.720884 123.58057 
L 137.076006 126.256867 
L 141.431128 127.325714 
L 145.78625 128.442082 
L 150.141372 128.822838 
L 154.496494 128.822838 
L 158.851616 128.822838 
L 163.206738 128.822838 
L 167.56186 128.822838 
L 171.916982 128.822838 
L 176.272104 128.822838 
L 180.627226 128.822838 
L 184.982348 128.822838 
L 189.33747 128.822838 
L 193.692591 128.822838 
L 198.047713 128.822838 
L 202.402835 128.822838 
L 206.757957 128.822838 
L 211.113079 128.822838 
L 215.468201 128.822838 
L 219.823323 128.822838 
L 224.178445 128.822838 
L 228.533567 128.822838 
L 232.888689 128.822838 
L 237.243811 128.822838 
L 241.598933 128.822838 
L 245.954055 128.822838 
L 250.309177 128.822838 
L 254.664299 128.822838 
L 259.019421 128.822838 
L 263.374543 128.822838 
L 267.729665 128.822838 
L 272.084787 128.822838 
L 276.439909 128.822838 
L 280.79503 128.822838 
L 285.150152 128.822838 
L 289.505274 128.822838 
L 293.860396 128.822838 
L 298.215518 128.822838 
L 302.57064 128.822838 
L 306.925762 128.822838 
L 311.280884 128.822838 
L 315.636006 128.822838 
L 319.991128 128.822838 
L 324.34625 128.822838 
L 328.701372 128.822838 
L 333.056494 128.822838 
L 337.411616 128.822838 
L 341.766738 128.822838 
L 346.12186 128.822838 
L 350.476982 128.822838 
L 354.832104 128.822838 
L 359.187226 128.822838 
L 363.542348 128.822838 
L 367.89747 128.822838 
L 372.252591 128.822838 
L 376.607713 128.822838 
L 380.962835 128.822838 
L 385.317957 128.822838 
L 389.673079 128.822838 
L 394.028201 128.822838 
L 398.383323 128.822838 
L 402.738445 128.822838 
L 407.093567 128.822838 
L 411.448689 128.822838 
" clip-path="url(#p5d726c0718)" style="fill: none; stroke: #00cc00; stroke-linecap: square"/>
   </g>
   <g id="line2d_37"/>
   <g id="line2d_38">
    <path d="M 66.986103 -1 
L 67.394055 10.685411 
L 71.749177 27.181178 
L 76.104299 17.985666 
L 80.459421 22.074881 
L 84.814543 20.450276 
L 89.169665 20.27345 
L 93.524787 19.621423 
L 97.879909 19.936906 
L 102.23503 19.822174 
L 106.590152 20.195315 
L 110.945274 19.890501 
L 115.300396 19.680728 
L 119.655518 19.731999 
L 124.01064 19.619801 
L 128.365762 20.033493 
L 132.720884 20.41297 
L 137.076006 20.170883 
L 141.431128 20.092899 
L 145.78625 19.861584 
L 150.141372 20.156158 
L 154.496494 20.099083 
L 158.851616 20.325862 
L 163.206738 19.782814 
L 167.56186 20.007692 
L 171.916982 20.11979 
L 176.272104 19.927123 
L 180.627226 20.165308 
L 184.982348 19.731872 
L 189.33747 20.732281 
L 193.692591 19.49607 
L 198.047713 20.030781 
L 202.402835 19.90401 
L 206.757957 20.590785 
L 211.113079 20.006552 
L 215.468201 20.035647 
L 219.823323 19.792293 
L 224.178445 20.318767 
L 228.533567 19.316355 
L 232.888689 19.922663 
L 237.243811 19.375812 
L 241.598933 20.155094 
L 245.954055 20.728455 
L 250.309177 19.978217 
L 254.664299 19.931914 
L 259.019421 20.168831 
L 263.374543 19.787984 
L 267.729665 19.848759 
L 272.084787 19.664963 
L 276.439909 19.651607 
L 280.79503 19.775109 
L 285.150152 19.992385 
L 289.505274 19.804787 
L 293.860396 19.724902 
L 298.215518 19.396011 
L 302.57064 19.746977 
L 306.925762 19.912931 
L 311.280884 20.333594 
L 315.636006 19.473741 
L 319.991128 19.87603 
L 324.34625 19.867742 
L 328.701372 19.748574 
L 333.056494 19.689598 
L 337.411616 19.998746 
L 341.766738 19.643877 
L 346.12186 20.17352 
L 350.476982 19.584216 
L 354.832104 19.856616 
L 359.187226 20.275379 
L 363.542348 19.608775 
L 367.89747 20.147923 
L 372.252591 20.332885 
L 376.607713 20.218152 
L 380.962835 20.047027 
L 385.317957 19.302489 
L 389.673079 19.964557 
L 394.028201 19.846656 
L 398.383323 19.681867 
L 402.738445 20.29198 
L 407.093567 19.956751 
L 411.448689 20.310887 
" clip-path="url(#p5d726c0718)" style="fill: none"/>
    <defs>
     <path id="m26ac3f8e1e" d="M 0 0.5 
C 0.132602 0.5 0.25979 0.447317 0.353553 0.353553 
C 0.447317 0.25979 0.5 0.132602 0.5 0 
C 0.5 -0.132602 0.447317 -0.25979 0.353553 -0.353553 
C 0.25979 -0.447317 0.132602 -0.5 0 -0.5 
C -0.132602 -0.5 -0.25979 -0.447317 -0.353553 -0.353553 
C -0.447317 -0.25979 -0.5 -0.132602 -0.5 0 
C -0.5 0.132602 -0.447317 0.25979 -0.353553 0.353553 
C -0.25979 0.447317 -0.132602 0.5 0 0.5 
z
" style="stroke: #0000cc; stroke-opacity: 0.4"/>
    </defs>
    <g clip-path="url(#p5d726c0718)">
     <use xlink:href="#m26ac3f8e1e" x="66.986103" y="-1" style="fill: #0000cc; fill-opacity: 0.4; stroke: #0000cc; stroke-opacity: 0.4"/>
     <use xlink:href="#m26ac3f8e1e" x="67.394055" y="10.685411" style="fill: #0000cc; fill-opacity: 0.4; stroke: #0000cc; stroke-opacity: 0.4"/>
     <use xlink:href="#m26ac3f8e1e" x="71.749177" y="27.181178" style="fill: #0000cc; fill-opacity: 0.4; stroke: #0000cc; stroke-opacity: 0.4"/>
     <use xlink:href="#m26ac3f8e1e" x="76.104299" y="17.985666" style="fill: #0000cc; fill-opacity: 0.4; stroke: #0000cc; stroke-opacity: 0.4"/>
     <use xlink:href="#m26ac3f8e1e" x="80.459421" y="22.074881" style="fill: #0000cc; fill-opacity: 0.4; stroke: #0000cc; stroke-opacity: 0.4"/>
     <use xlink:href="#m26ac3f8e1e" x="84.814543" y="20.450276" style="fill: #0000cc; fill-opacity: 0.4; stroke: #0000cc; stroke-opacity: 0.4"/>
     <use xlink:href="#m26ac3f8e1e" x="89.169665" y="20.27345" style="fill: #0000cc; fill-opacity: 0.4; stroke: #0000cc; stroke-opacity: 0.4"/>
     <use xlink:href="#m26ac3f8e1e" x="93.524787" y="19.621423" style="fill: #0000cc; fill-opacity: 0.4; stroke: #0000cc; stroke-opacity: 0.4"/>
     <use xlink:href="#m26ac3f8e1e" x="97.879909" y="19.936906" style="fill: #0000cc; fill-opacity: 0.4; stroke: #0000cc; stroke-opacity: 0.4"/>
     <use xlink:href="#m26ac3f8e1e" x="102.23503" y="19.822174" style="fill: #0000cc; fill-opacity: 0.4; stroke: #0000cc; stroke-opacity: 0.4"/>
     <use xlink:href="#m26ac3f8e1e" x="106.590152" y="20.195315" style="fill: #0000cc; fill-opacity: 0.4; stroke: #0000cc; stroke-opacity: 0.4"/>
     <use xlink:href="#m26ac3f8e1e" x="110.945274" y="19.890501" style="fill: #0000cc; fill-opacity: 0.4; stroke: #0000cc; stroke-opacity: 0.4"/>
     <use xlink:href="#m26ac3f8e1e" x="115.300396" y="19.680728" style="fill: #0000cc; fill-opacity: 0.4; stroke: #0000cc; stroke-opacity: 0.4"/>
     <use xlink:href="#m26ac3f8e1e" x="119.655518" y="19.731999" style="fill: #0000cc; fill-opacity: 0.4; stroke: #0000cc; stroke-opacity: 0.4"/>
     <use xlink:href="#m26ac3f8e1e" x="124.01064" y="19.619801" style="fill: #0000cc; fill-opacity: 0.4; stroke: #0000cc; stroke-opacity: 0.4"/>
     <use xlink:href="#m26ac3f8e1e" x="128.365762" y="20.033493" style="fill: #0000cc; fill-opacity: 0.4; stroke: #0000cc; stroke-opacity: 0.4"/>
     <use xlink:href="#m26ac3f8e1e" x="132.720884" y="20.41297" style="fill: #0000cc; fill-opacity: 0.4; stroke: #0000cc; stroke-opacity: 0.4"/>
     <use xlink:href="#m26ac3f8e1e" x="137.076006" y="20.170883" style="fill: #0000cc; fill-opacity: 0.4; stroke: #0000cc; stroke-opacity: 0.4"/>
     <use xlink:href="#m26ac3f8e1e" x="141.431128" y="20.092899" style="fill: #0000cc; fill-opacity: 0.4; stroke: #0000cc; stroke-opacity: 0.4"/>
     <use xlink:href="#m26ac3f8e1e" x="145.78625" y="19.861584" style="fill: #0000cc; fill-opacity: 0.4; stroke: #0000cc; stroke-opacity: 0.4"/>
     <use xlink:href="#m26ac3f8e1e" x="150.141372" y="20.156158" style="fill: #0000cc; fill-opacity: 0.4; stroke: #0000cc; stroke-opacity: 0.4"/>
     <use xlink:href="#m26ac3f8e1e" x="154.496494" y="20.099083" style="fill: #0000cc; fill-opacity: 0.4; stroke: #0000cc; stroke-opacity: 0.4"/>
     <use xlink:href="#m26ac3f8e1e" x="158.851616" y="20.325862" style="fill: #0000cc; fill-opacity: 0.4; stroke: #0000cc; stroke-opacity: 0.4"/>
     <use xlink:href="#m26ac3f8e1e" x="163.206738" y="19.782814" style="fill: #0000cc; fill-opacity: 0.4; stroke: #0000cc; stroke-opacity: 0.4"/>
     <use xlink:href="#m26ac3f8e1e" x="167.56186" y="20.007692" style="fill: #0000cc; fill-opacity: 0.4; stroke: #0000cc; stroke-opacity: 0.4"/>
     <use xlink:href="#m26ac3f8e1e" x="171.916982" y="20.11979" style="fill: #0000cc; fill-opacity: 0.4; stroke: #0000cc; stroke-opacity: 0.4"/>
     <use xlink:href="#m26ac3f8e1e" x="176.272104" y="19.927123" style="fill: #0000cc; fill-opacity: 0.4; stroke: #0000cc; stroke-opacity: 0.4"/>
     <use xlink:href="#m26ac3f8e1e" x="180.627226" y="20.165308" style="fill: #0000cc; fill-opacity: 0.4; stroke: #0000cc; stroke-opacity: 0.4"/>
     <use xlink:href="#m26ac3f8e1e" x="184.982348" y="19.731872" style="fill: #0000cc; fill-opacity: 0.4; stroke: #0000cc; stroke-opacity: 0.4"/>
     <use xlink:href="#m26ac3f8e1e" x="189.33747" y="20.732281" style="fill: #0000cc; fill-opacity: 0.4; stroke: #0000cc; stroke-opacity: 0.4"/>
     <use xlink:href="#m26ac3f8e1e" x="193.692591" y="19.49607" style="fill: #0000cc; fill-opacity: 0.4; stroke: #0000cc; stroke-opacity: 0.4"/>
     <use xlink:href="#m26ac3f8e1e" x="198.047713" y="20.030781" style="fill: #0000cc; fill-opacity: 0.4; stroke: #0000cc; stroke-opacity: 0.4"/>
     <use xlink:href="#m26ac3f8e1e" x="202.402835" y="19.90401" style="fill: #0000cc; fill-opacity: 0.4; stroke: #0000cc; stroke-opacity: 0.4"/>
     <use xlink:href="#m26ac3f8e1e" x="206.757957" y="20.590785" style="fill: #0000cc; fill-opacity: 0.4; stroke: #0000cc; stroke-opacity: 0.4"/>
     <use xlink:href="#m26ac3f8e1e" x="211.113079" y="20.006552" style="fill: #0000cc; fill-opacity: 0.4; stroke: #0000cc; stroke-opacity: 0.4"/>
     <use xlink:href="#m26ac3f8e1e" x="215.468201" y="20.035647" style="fill: #0000cc; fill-opacity: 0.4; stroke: #0000cc; stroke-opacity: 0.4"/>
     <use xlink:href="#m26ac3f8e1e" x="219.823323" y="19.792293" style="fill: #0000cc; fill-opacity: 0.4; stroke: #0000cc; stroke-opacity: 0.4"/>
     <use xlink:href="#m26ac3f8e1e" x="224.178445" y="20.318767" style="fill: #0000cc; fill-opacity: 0.4; stroke: #0000cc; stroke-opacity: 0.4"/>
     <use xlink:href="#m26ac3f8e1e" x="228.533567" y="19.316355" style="fill: #0000cc; fill-opacity: 0.4; stroke: #0000cc; stroke-opacity: 0.4"/>
     <use xlink:href="#m26ac3f8e1e" x="232.888689" y="19.922663" style="fill: #0000cc; fill-opacity: 0.4; stroke: #0000cc; stroke-opacity: 0.4"/>
     <use xlink:href="#m26ac3f8e1e" x="237.243811" y="19.375812" style="fill: #0000cc; fill-opacity: 0.4; stroke: #0000cc; stroke-opacity: 0.4"/>
     <use xlink:href="#m26ac3f8e1e" x="241.598933" y="20.155094" style="fill: #0000cc; fill-opacity: 0.4; stroke: #0000cc; stroke-opacity: 0.4"/>
     <use xlink:href="#m26ac3f8e1e" x="245.954055" y="20.728455" style="fill: #0000cc; fill-opacity: 0.4; stroke: #0000cc; stroke-opacity: 0.4"/>
     <use xlink:href="#m26ac3f8e1e" x="250.309177" y="19.978217" style="fill: #0000cc; fill-opacity: 0.4; stroke: #0000cc; stroke-opacity: 0.4"/>
     <use xlink:href="#m26ac3f8e1e" x="254.664299" y="19.931914" style="fill: #0000cc; fill-opacity: 0.4; stroke: #0000cc; stroke-opacity: 0.4"/>
     <use xlink:href="#m26ac3f8e1e" x="259.019421" y="20.168831" style="fill: #0000cc; fill-opacity: 0.4; stroke: #0000cc; stroke-opacity: 0.4"/>
     <use xlink:href="#m26ac3f8e1e" x="263.374543" y="19.787984" style="fill: #0000cc; fill-opacity: 0.4; stroke: #0000cc; stroke-opacity: 0.4"/>
     <use xlink:href="#m26ac3f8e1e" x="267.729665" y="19.848759" style="fill: #0000cc; fill-opacity: 0.4; stroke: #0000cc; stroke-opacity: 0.4"/>
     <use xlink:href="#m26ac3f8e1e" x="272.084787" y="19.664963" style="fill: #0000cc; fill-opacity: 0.4; stroke: #0000cc; stroke-opacity: 0.4"/>
     <use xlink:href="#m26ac3f8e1e" x="276.439909" y="19.651607" style="fill: #0000cc; fill-opacity: 0.4; stroke: #0000cc; stroke-opacity: 0.4"/>
     <use xlink:href="#m26ac3f8e1e" x="280.79503" y="19.775109" style="fill: #0000cc; fill-opacity: 0.4; stroke: #0000cc; stroke-opacity: 0.4"/>
     <use xlink:href="#m26ac3f8e1e" x="285.150152" y="19.992385" style="fill: #0000cc; fill-opacity: 0.4; stroke: #0000cc; stroke-opacity: 0.4"/>
     <use xlink:href="#m26ac3f8e1e" x="289.505274" y="19.804787" style="fill: #0000cc; fill-opacity: 0.4; stroke: #0000cc; stroke-opacity: 0.4"/>
     <use xlink:href="#m26ac3f8e1e" x="293.860396" y="19.724902" style="fill: #0000cc; fill-opacity: 0.4; stroke: #0000cc; stroke-opacity: 0.4"/>
     <use xlink:href="#m26ac3f8e1e" x="298.215518" y="19.396011" style="fill: #0000cc; fill-opacity: 0.4; stroke: #0000cc; stroke-opacity: 0.4"/>
     <use xlink:href="#m26ac3f8e1e" x="302.57064" y="19.746977" style="fill: #0000cc; fill-opacity: 0.4; stroke: #0000cc; stroke-opacity: 0.4"/>
     <use xlink:href="#m26ac3f8e1e" x="306.925762" y="19.912931" style="fill: #0000cc; fill-opacity: 0.4; stroke: #0000cc; stroke-opacity: 0.4"/>
     <use xlink:href="#m26ac3f8e1e" x="311.280884" y="20.333594" style="fill: #0000cc; fill-opacity: 0.4; stroke: #0000cc; stroke-opacity: 0.4"/>
     <use xlink:href="#m26ac3f8e1e" x="315.636006" y="19.473741" style="fill: #0000cc; fill-opacity: 0.4; stroke: #0000cc; stroke-opacity: 0.4"/>
     <use xlink:href="#m26ac3f8e1e" x="319.991128" y="19.87603" style="fill: #0000cc; fill-opacity: 0.4; stroke: #0000cc; stroke-opacity: 0.4"/>
     <use xlink:href="#m26ac3f8e1e" x="324.34625" y="19.867742" style="fill: #0000cc; fill-opacity: 0.4; stroke: #0000cc; stroke-opacity: 0.4"/>
     <use xlink:href="#m26ac3f8e1e" x="328.701372" y="19.748574" style="fill: #0000cc; fill-opacity: 0.4; stroke: #0000cc; stroke-opacity: 0.4"/>
     <use xlink:href="#m26ac3f8e1e" x="333.056494" y="19.689598" style="fill: #0000cc; fill-opacity: 0.4; stroke: #0000cc; stroke-opacity: 0.4"/>
     <use xlink:href="#m26ac3f8e1e" x="337.411616" y="19.998746" style="fill: #0000cc; fill-opacity: 0.4; stroke: #0000cc; stroke-opacity: 0.4"/>
     <use xlink:href="#m26ac3f8e1e" x="341.766738" y="19.643877" style="fill: #0000cc; fill-opacity: 0.4; stroke: #0000cc; stroke-opacity: 0.4"/>
     <use xlink:href="#m26ac3f8e1e" x="346.12186" y="20.17352" style="fill: #0000cc; fill-opacity: 0.4; stroke: #0000cc; stroke-opacity: 0.4"/>
     <use xlink:href="#m26ac3f8e1e" x="350.476982" y="19.584216" style="fill: #0000cc; fill-opacity: 0.4; stroke: #0000cc; stroke-opacity: 0.4"/>
     <use xlink:href="#m26ac3f8e1e" x="354.832104" y="19.856616" style="fill: #0000cc; fill-opacity: 0.4; stroke: #0000cc; stroke-opacity: 0.4"/>
     <use xlink:href="#m26ac3f8e1e" x="359.187226" y="20.275379" style="fill: #0000cc; fill-opacity: 0.4; stroke: #0000cc; stroke-opacity: 0.4"/>
     <use xlink:href="#m26ac3f8e1e" x="363.542348" y="19.608775" style="fill: #0000cc; fill-opacity: 0.4; stroke: #0000cc; stroke-opacity: 0.4"/>
     <use xlink:href="#m26ac3f8e1e" x="367.89747" y="20.147923" style="fill: #0000cc; fill-opacity: 0.4; stroke: #0000cc; stroke-opacity: 0.4"/>
     <use xlink:href="#m26ac3f8e1e" x="372.252591" y="20.332885" style="fill: #0000cc; fill-opacity: 0.4; stroke: #0000cc; stroke-opacity: 0.4"/>
     <use xlink:href="#m26ac3f8e1e" x="376.607713" y="20.218152" style="fill: #0000cc; fill-opacity: 0.4; stroke: #0000cc; stroke-opacity: 0.4"/>
     <use xlink:href="#m26ac3f8e1e" x="380.962835" y="20.047027" style="fill: #0000cc; fill-opacity: 0.4; stroke: #0000cc; stroke-opacity: 0.4"/>
     <use xlink:href="#m26ac3f8e1e" x="385.317957" y="19.302489" style="fill: #0000cc; fill-opacity: 0.4; stroke: #0000cc; stroke-opacity: 0.4"/>
     <use xlink:href="#m26ac3f8e1e" x="389.673079" y="19.964557" style="fill: #0000cc; fill-opacity: 0.4; stroke: #0000cc; stroke-opacity: 0.4"/>
     <use xlink:href="#m26ac3f8e1e" x="394.028201" y="19.846656" style="fill: #0000cc; fill-opacity: 0.4; stroke: #0000cc; stroke-opacity: 0.4"/>
     <use xlink:href="#m26ac3f8e1e" x="398.383323" y="19.681867" style="fill: #0000cc; fill-opacity: 0.4; stroke: #0000cc; stroke-opacity: 0.4"/>
     <use xlink:href="#m26ac3f8e1e" x="402.738445" y="20.29198" style="fill: #0000cc; fill-opacity: 0.4; stroke: #0000cc; stroke-opacity: 0.4"/>
     <use xlink:href="#m26ac3f8e1e" x="407.093567" y="19.956751" style="fill: #0000cc; fill-opacity: 0.4; stroke: #0000cc; stroke-opacity: 0.4"/>
     <use xlink:href="#m26ac3f8e1e" x="411.448689" y="20.310887" style="fill: #0000cc; fill-opacity: 0.4; stroke: #0000cc; stroke-opacity: 0.4"/>
    </g>
   </g>
   <g id="line2d_39">
    <path d="M 66.986103 -1 
L 67.394055 10.685411 
L 71.749177 27.181178 
L 76.104299 27.181178 
L 80.459421 27.181178 
L 84.814543 27.181178 
L 89.169665 27.181178 
L 93.524787 27.181178 
L 97.879909 27.181178 
L 102.23503 27.181178 
L 106.590152 27.181178 
L 110.945274 27.181178 
L 115.300396 27.181178 
L 119.655518 27.181178 
L 124.01064 27.181178 
L 128.365762 27.181178 
L 132.720884 27.181178 
L 137.076006 27.181178 
L 141.431128 27.181178 
L 145.78625 27.181178 
L 150.141372 27.181178 
L 154.496494 27.181178 
L 158.851616 27.181178 
L 163.206738 27.181178 
L 167.56186 27.181178 
L 171.916982 27.181178 
L 176.272104 27.181178 
L 180.627226 27.181178 
L 184.982348 27.181178 
L 189.33747 27.181178 
L 193.692591 27.181178 
L 198.047713 27.181178 
L 202.402835 27.181178 
L 206.757957 27.181178 
L 211.113079 27.181178 
L 215.468201 27.181178 
L 219.823323 27.181178 
L 224.178445 27.181178 
L 228.533567 27.181178 
L 232.888689 27.181178 
L 237.243811 27.181178 
L 241.598933 27.181178 
L 245.954055 27.181178 
L 250.309177 27.181178 
L 254.664299 27.181178 
L 259.019421 27.181178 
L 263.374543 27.181178 
L 267.729665 27.181178 
L 272.084787 27.181178 
L 276.439909 27.181178 
L 280.79503 27.181178 
L 285.150152 27.181178 
L 289.505274 27.181178 
L 293.860396 27.181178 
L 298.215518 27.181178 
L 302.57064 27.181178 
L 306.925762 27.181178 
L 311.280884 27.181178 
L 315.636006 27.181178 
L 319.991128 27.181178 
L 324.34625 27.181178 
L 328.701372 27.181178 
L 333.056494 27.181178 
L 337.411616 27.181178 
L 341.766738 27.181178 
L 346.12186 27.181178 
L 350.476982 27.181178 
L 354.832104 27.181178 
L 359.187226 27.181178 
L 363.542348 27.181178 
L 367.89747 27.181178 
L 372.252591 27.181178 
L 376.607713 27.181178 
L 380.962835 27.181178 
L 385.317957 27.181178 
L 389.673079 27.181178 
L 394.028201 27.181178 
L 398.383323 27.181178 
L 402.738445 27.181178 
L 407.093567 27.181178 
L 411.448689 27.181178 
" clip-path="url(#p5d726c0718)" style="fill: none; stroke: #0000cc; stroke-opacity: 0.4; stroke-width: 0.5; stroke-linecap: square"/>
   </g>
   <g id="line2d_40"/>
   <g id="line2d_41">
    <path d="M 66.986103 -1 
L 67.394055 10.685411 
L 71.749177 27.181178 
L 76.104299 17.985666 
L 80.459421 22.074881 
L 84.814543 20.450276 
L 89.169665 20.27345 
L 93.524787 19.621423 
L 97.879909 19.936906 
L 102.23503 19.822174 
L 106.590152 20.195315 
L 110.945274 19.890501 
L 115.300396 19.680728 
L 119.655518 19.731999 
L 124.01064 19.619801 
L 128.365762 20.033493 
L 132.720884 20.41297 
L 137.076006 20.170883 
L 141.431128 20.092899 
L 145.78625 19.861584 
L 150.141372 20.156158 
L 154.496494 20.099083 
L 158.851616 20.325862 
L 163.206738 19.782814 
L 167.56186 20.007692 
L 171.916982 20.11979 
L 176.272104 141.649895 
L 180.627226 138.549003 
L 184.982348 139.921982 
L 189.33747 138.672478 
L 193.692591 138.959461 
L 198.047713 138.833969 
L 202.402835 138.86561 
L 206.757957 138.692598 
L 211.113079 138.918122 
L 215.468201 138.895273 
L 219.823323 138.797659 
L 224.178445 138.643021 
L 228.533567 138.678464 
L 232.888689 138.99396 
L 237.243811 138.990754 
L 241.598933 139.142146 
L 245.954055 138.844313 
L 250.309177 138.63772 
L 254.664299 138.998835 
L 259.019421 139.014637 
L 263.374543 138.944268 
L 267.729665 138.802935 
L 272.084787 138.775018 
L 276.439909 138.999275 
L 280.79503 181.302487 
L 285.150152 179.285055 
L 289.505274 180.125814 
L 293.860396 179.42818 
L 298.215518 179.550431 
L 302.57064 179.694225 
L 306.925762 179.602951 
L 311.280884 179.462889 
L 315.636006 179.648501 
L 319.991128 179.604747 
L 324.34625 179.436807 
L 328.701372 179.469086 
L 333.056494 179.54255 
L 337.411616 179.636922 
L 341.766738 179.454409 
L 346.12186 179.550683 
L 350.476982 179.534174 
L 354.832104 179.584194 
L 359.187226 179.473279 
L 363.542348 179.547376 
L 367.89747 179.952849 
L 372.252591 179.517527 
L 376.607713 179.583387 
L 380.962835 179.60933 
L 385.317957 201.130364 
L 389.673079 200.024689 
L 394.028201 200.384544 
L 398.383323 200.030326 
L 402.738445 200.125334 
L 407.093567 200.28497 
L 411.448689 200.248822 
" clip-path="url(#p5d726c0718)" style="fill: none"/>
    <defs>
     <path id="maf8bee9666" d="M 0 1 
C 0.265203 1 0.51958 0.894634 0.707107 0.707107 
C 0.894634 0.51958 1 0.265203 1 0 
C 1 -0.265203 0.894634 -0.51958 0.707107 -0.707107 
C 0.51958 -0.894634 0.265203 -1 0 -1 
C -0.265203 -1 -0.51958 -0.894634 -0.707107 -0.707107 
C -0.894634 -0.51958 -1 -0.265203 -1 0 
C -1 0.265203 -0.894634 0.51958 -0.707107 0.707107 
C -0.51958 0.894634 -0.265203 1 0 1 
z
" style="stroke: #0000cc"/>
    </defs>
    <g clip-path="url(#p5d726c0718)">
     <use xlink:href="#maf8bee9666" x="66.986103" y="-1" style="fill: #0000cc; stroke: #0000cc"/>
     <use xlink:href="#maf8bee9666" x="67.394055" y="10.685411" style="fill: #0000cc; stroke: #0000cc"/>
     <use xlink:href="#maf8bee9666" x="71.749177" y="27.181178" style="fill: #0000cc; stroke: #0000cc"/>
     <use xlink:href="#maf8bee9666" x="76.104299" y="17.985666" style="fill: #0000cc; stroke: #0000cc"/>
     <use xlink:href="#maf8bee9666" x="80.459421" y="22.074881" style="fill: #0000cc; stroke: #0000cc"/>
     <use xlink:href="#maf8bee9666" x="84.814543" y="20.450276" style="fill: #0000cc; stroke: #0000cc"/>
     <use xlink:href="#maf8bee9666" x="89.169665" y="20.27345" style="fill: #0000cc; stroke: #0000cc"/>
     <use xlink:href="#maf8bee9666" x="93.524787" y="19.621423" style="fill: #0000cc; stroke: #0000cc"/>
     <use xlink:href="#maf8bee9666" x="97.879909" y="19.936906" style="fill: #0000cc; stroke: #0000cc"/>
     <use xlink:href="#maf8bee9666" x="102.23503" y="19.822174" style="fill: #0000cc; stroke: #0000cc"/>
     <use xlink:href="#maf8bee9666" x="106.590152" y="20.195315" style="fill: #0000cc; stroke: #0000cc"/>
     <use xlink:href="#maf8bee9666" x="110.945274" y="19.890501" style="fill: #0000cc; stroke: #0000cc"/>
     <use xlink:href="#maf8bee9666" x="115.300396" y="19.680728" style="fill: #0000cc; stroke: #0000cc"/>
     <use xlink:href="#maf8bee9666" x="119.655518" y="19.731999" style="fill: #0000cc; stroke: #0000cc"/>
     <use xlink:href="#maf8bee9666" x="124.01064" y="19.619801" style="fill: #0000cc; stroke: #0000cc"/>
     <use xlink:href="#maf8bee9666" x="128.365762" y="20.033493" style="fill: #0000cc; stroke: #0000cc"/>
     <use xlink:href="#maf8bee9666" x="132.720884" y="20.41297" style="fill: #0000cc; stroke: #0000cc"/>
     <use xlink:href="#maf8bee9666" x="137.076006" y="20.170883" style="fill: #0000cc; stroke: #0000cc"/>
     <use xlink:href="#maf8bee9666" x="141.431128" y="20.092899" style="fill: #0000cc; stroke: #0000cc"/>
     <use xlink:href="#maf8bee9666" x="145.78625" y="19.861584" style="fill: #0000cc; stroke: #0000cc"/>
     <use xlink:href="#maf8bee9666" x="150.141372" y="20.156158" style="fill: #0000cc; stroke: #0000cc"/>
     <use xlink:href="#maf8bee9666" x="154.496494" y="20.099083" style="fill: #0000cc; stroke: #0000cc"/>
     <use xlink:href="#maf8bee9666" x="158.851616" y="20.325862" style="fill: #0000cc; stroke: #0000cc"/>
     <use xlink:href="#maf8bee9666" x="163.206738" y="19.782814" style="fill: #0000cc; stroke: #0000cc"/>
     <use xlink:href="#maf8bee9666" x="167.56186" y="20.007692" style="fill: #0000cc; stroke: #0000cc"/>
     <use xlink:href="#maf8bee9666" x="171.916982" y="20.11979" style="fill: #0000cc; stroke: #0000cc"/>
     <use xlink:href="#maf8bee9666" x="176.272104" y="141.649895" style="fill: #0000cc; stroke: #0000cc"/>
     <use xlink:href="#maf8bee9666" x="180.627226" y="138.549003" style="fill: #0000cc; stroke: #0000cc"/>
     <use xlink:href="#maf8bee9666" x="184.982348" y="139.921982" style="fill: #0000cc; stroke: #0000cc"/>
     <use xlink:href="#maf8bee9666" x="189.33747" y="138.672478" style="fill: #0000cc; stroke: #0000cc"/>
     <use xlink:href="#maf8bee9666" x="193.692591" y="138.959461" style="fill: #0000cc; stroke: #0000cc"/>
     <use xlink:href="#maf8bee9666" x="198.047713" y="138.833969" style="fill: #0000cc; stroke: #0000cc"/>
     <use xlink:href="#maf8bee9666" x="202.402835" y="138.86561" style="fill: #0000cc; stroke: #0000cc"/>
     <use xlink:href="#maf8bee9666" x="206.757957" y="138.692598" style="fill: #0000cc; stroke: #0000cc"/>
     <use xlink:href="#maf8bee9666" x="211.113079" y="138.918122" style="fill: #0000cc; stroke: #0000cc"/>
     <use xlink:href="#maf8bee9666" x="215.468201" y="138.895273" style="fill: #0000cc; stroke: #0000cc"/>
     <use xlink:href="#maf8bee9666" x="219.823323" y="138.797659" style="fill: #0000cc; stroke: #0000cc"/>
     <use xlink:href="#maf8bee9666" x="224.178445" y="138.643021" style="fill: #0000cc; stroke: #0000cc"/>
     <use xlink:href="#maf8bee9666" x="228.533567" y="138.678464" style="fill: #0000cc; stroke: #0000cc"/>
     <use xlink:href="#maf8bee9666" x="232.888689" y="138.99396" style="fill: #0000cc; stroke: #0000cc"/>
     <use xlink:href="#maf8bee9666" x="237.243811" y="138.990754" style="fill: #0000cc; stroke: #0000cc"/>
     <use xlink:href="#maf8bee9666" x="241.598933" y="139.142146" style="fill: #0000cc; stroke: #0000cc"/>
     <use xlink:href="#maf8bee9666" x="245.954055" y="138.844313" style="fill: #0000cc; stroke: #0000cc"/>
     <use xlink:href="#maf8bee9666" x="250.309177" y="138.63772" style="fill: #0000cc; stroke: #0000cc"/>
     <use xlink:href="#maf8bee9666" x="254.664299" y="138.998835" style="fill: #0000cc; stroke: #0000cc"/>
     <use xlink:href="#maf8bee9666" x="259.019421" y="139.014637" style="fill: #0000cc; stroke: #0000cc"/>
     <use xlink:href="#maf8bee9666" x="263.374543" y="138.944268" style="fill: #0000cc; stroke: #0000cc"/>
     <use xlink:href="#maf8bee9666" x="267.729665" y="138.802935" style="fill: #0000cc; stroke: #0000cc"/>
     <use xlink:href="#maf8bee9666" x="272.084787" y="138.775018" style="fill: #0000cc; stroke: #0000cc"/>
     <use xlink:href="#maf8bee9666" x="276.439909" y="138.999275" style="fill: #0000cc; stroke: #0000cc"/>
     <use xlink:href="#maf8bee9666" x="280.79503" y="181.302487" style="fill: #0000cc; stroke: #0000cc"/>
     <use xlink:href="#maf8bee9666" x="285.150152" y="179.285055" style="fill: #0000cc; stroke: #0000cc"/>
     <use xlink:href="#maf8bee9666" x="289.505274" y="180.125814" style="fill: #0000cc; stroke: #0000cc"/>
     <use xlink:href="#maf8bee9666" x="293.860396" y="179.42818" style="fill: #0000cc; stroke: #0000cc"/>
     <use xlink:href="#maf8bee9666" x="298.215518" y="179.550431" style="fill: #0000cc; stroke: #0000cc"/>
     <use xlink:href="#maf8bee9666" x="302.57064" y="179.694225" style="fill: #0000cc; stroke: #0000cc"/>
     <use xlink:href="#maf8bee9666" x="306.925762" y="179.602951" style="fill: #0000cc; stroke: #0000cc"/>
     <use xlink:href="#maf8bee9666" x="311.280884" y="179.462889" style="fill: #0000cc; stroke: #0000cc"/>
     <use xlink:href="#maf8bee9666" x="315.636006" y="179.648501" style="fill: #0000cc; stroke: #0000cc"/>
     <use xlink:href="#maf8bee9666" x="319.991128" y="179.604747" style="fill: #0000cc; stroke: #0000cc"/>
     <use xlink:href="#maf8bee9666" x="324.34625" y="179.436807" style="fill: #0000cc; stroke: #0000cc"/>
     <use xlink:href="#maf8bee9666" x="328.701372" y="179.469086" style="fill: #0000cc; stroke: #0000cc"/>
     <use xlink:href="#maf8bee9666" x="333.056494" y="179.54255" style="fill: #0000cc; stroke: #0000cc"/>
     <use xlink:href="#maf8bee9666" x="337.411616" y="179.636922" style="fill: #0000cc; stroke: #0000cc"/>
     <use xlink:href="#maf8bee9666" x="341.766738" y="179.454409" style="fill: #0000cc; stroke: #0000cc"/>
     <use xlink:href="#maf8bee9666" x="346.12186" y="179.550683" style="fill: #0000cc; stroke: #0000cc"/>
     <use xlink:href="#maf8bee9666" x="350.476982" y="179.534174" style="fill: #0000cc; stroke: #0000cc"/>
     <use xlink:href="#maf8bee9666" x="354.832104" y="179.584194" style="fill: #0000cc; stroke: #0000cc"/>
     <use xlink:href="#maf8bee9666" x="359.187226" y="179.473279" style="fill: #0000cc; stroke: #0000cc"/>
     <use xlink:href="#maf8bee9666" x="363.542348" y="179.547376" style="fill: #0000cc; stroke: #0000cc"/>
     <use xlink:href="#maf8bee9666" x="367.89747" y="179.952849" style="fill: #0000cc; stroke: #0000cc"/>
     <use xlink:href="#maf8bee9666" x="372.252591" y="179.517527" style="fill: #0000cc; stroke: #0000cc"/>
     <use xlink:href="#maf8bee9666" x="376.607713" y="179.583387" style="fill: #0000cc; stroke: #0000cc"/>
     <use xlink:href="#maf8bee9666" x="380.962835" y="179.60933" style="fill: #0000cc; stroke: #0000cc"/>
     <use xlink:href="#maf8bee9666" x="385.317957" y="201.130364" style="fill: #0000cc; stroke: #0000cc"/>
     <use xlink:href="#maf8bee9666" x="389.673079" y="200.024689" style="fill: #0000cc; stroke: #0000cc"/>
     <use xlink:href="#maf8bee9666" x="394.028201" y="200.384544" style="fill: #0000cc; stroke: #0000cc"/>
     <use xlink:href="#maf8bee9666" x="398.383323" y="200.030326" style="fill: #0000cc; stroke: #0000cc"/>
     <use xlink:href="#maf8bee9666" x="402.738445" y="200.125334" style="fill: #0000cc; stroke: #0000cc"/>
     <use xlink:href="#maf8bee9666" x="407.093567" y="200.28497" style="fill: #0000cc; stroke: #0000cc"/>
     <use xlink:href="#maf8bee9666" x="411.448689" y="200.248822" style="fill: #0000cc; stroke: #0000cc"/>
    </g>
   </g>
   <g id="line2d_42">
    <path d="M 66.986103 -1 
L 67.394055 10.685411 
L 71.749177 27.181178 
L 76.104299 27.181178 
L 80.459421 27.181178 
L 84.814543 27.181178 
L 89.169665 27.181178 
L 93.524787 27.181178 
L 97.879909 27.181178 
L 102.23503 27.181178 
L 106.590152 27.181178 
L 110.945274 27.181178 
L 115.300396 27.181178 
L 119.655518 27.181178 
L 124.01064 27.181178 
L 128.365762 27.181178 
L 132.720884 27.181178 
L 137.076006 27.181178 
L 141.431128 27.181178 
L 145.78625 27.181178 
L 150.141372 27.181178 
L 154.496494 27.181178 
L 158.851616 27.181178 
L 163.206738 27.181178 
L 167.56186 27.181178 
L 171.916982 27.181178 
L 176.272104 141.649895 
L 180.627226 141.649895 
L 184.982348 141.649895 
L 189.33747 141.649895 
L 193.692591 141.649895 
L 198.047713 141.649895 
L 202.402835 141.649895 
L 206.757957 141.649895 
L 211.113079 141.649895 
L 215.468201 141.649895 
L 219.823323 141.649895 
L 224.178445 141.649895 
L 228.533567 141.649895 
L 232.888689 141.649895 
L 237.243811 141.649895 
L 241.598933 141.649895 
L 245.954055 141.649895 
L 250.309177 141.649895 
L 254.664299 141.649895 
L 259.019421 141.649895 
L 263.374543 141.649895 
L 267.729665 141.649895 
L 272.084787 141.649895 
L 276.439909 141.649895 
L 280.79503 181.302487 
L 285.150152 181.302487 
L 289.505274 181.302487 
L 293.860396 181.302487 
L 298.215518 181.302487 
L 302.57064 181.302487 
L 306.925762 181.302487 
L 311.280884 181.302487 
L 315.636006 181.302487 
L 319.991128 181.302487 
L 324.34625 181.302487 
L 328.701372 181.302487 
L 333.056494 181.302487 
L 337.411616 181.302487 
L 341.766738 181.302487 
L 346.12186 181.302487 
L 350.476982 181.302487 
L 354.832104 181.302487 
L 359.187226 181.302487 
L 363.542348 181.302487 
L 367.89747 181.302487 
L 372.252591 181.302487 
L 376.607713 181.302487 
L 380.962835 181.302487 
L 385.317957 201.130364 
L 389.673079 201.130364 
L 394.028201 201.130364 
L 398.383323 201.130364 
L 402.738445 201.130364 
L 407.093567 201.130364 
L 411.448689 201.130364 
" clip-path="url(#p5d726c0718)" style="fill: none; stroke: #0000cc; stroke-linecap: square"/>
   </g>
   <g id="line2d_43"/>
   <g id="line2d_44"/>
   <g id="line2d_45"/>
   <g id="line2d_46"/>
   <g id="line2d_47">
    <path d="M 58.683811 19.872 
L 63.038933 39.367385 
L 67.394055 57.418667 
L 71.749177 74.180571 
L 76.104299 89.786483 
L 80.459421 104.352 
L 84.814543 117.977806 
L 89.169665 130.752 
L 93.524787 138.833633 
L 97.879909 138.833633 
L 102.23503 138.833633 
L 106.590152 138.833633 
L 110.945274 138.833633 
L 115.300396 138.833633 
L 119.655518 138.833633 
L 124.01064 138.833633 
L 128.365762 138.833633 
L 132.720884 138.833633 
L 137.076006 138.833633 
L 141.431128 138.833633 
L 145.78625 138.833633 
L 150.141372 138.833633 
L 154.496494 138.833633 
L 158.851616 138.833633 
L 163.206738 138.833633 
L 167.56186 146.592 
L 171.916982 154.046118 
L 176.272104 161.213538 
L 180.627226 168.110491 
L 184.982348 174.752 
L 189.33747 179.573918 
L 193.692591 179.573918 
L 198.047713 179.573918 
L 202.402835 179.573918 
L 206.757957 179.573918 
L 211.113079 179.573918 
L 215.468201 179.573918 
L 219.823323 179.573918 
L 224.178445 179.573918 
L 228.533567 179.573918 
L 232.888689 179.573918 
L 237.243811 179.573918 
L 241.598933 179.573918 
L 245.954055 179.573918 
L 250.309177 179.573918 
L 254.664299 179.573918 
L 259.019421 179.573918 
L 263.374543 179.573918 
L 267.729665 179.573918 
L 272.084787 184.265514 
L 276.439909 188.832 
L 280.79503 193.278316 
L 285.150152 197.609143 
L 289.505274 200.154062 
L 293.860396 200.154062 
L 298.215518 200.154062 
L 302.57064 200.154062 
L 306.925762 200.154062 
L 311.280884 200.154062 
L 315.636006 200.154062 
L 319.991128 200.154062 
L 324.34625 200.154062 
L 328.701372 200.154062 
L 333.056494 200.154062 
L 337.411616 200.154062 
L 341.766738 200.154062 
L 346.12186 200.154062 
L 350.476982 200.154062 
L 354.832104 200.154062 
L 359.187226 200.154062 
L 363.542348 200.154062 
L 367.89747 200.154062 
L 372.252591 200.154062 
L 376.607713 203.486694 
L 380.962835 206.752 
L 385.317957 209.952 
L 389.673079 212.570182 
L 394.028201 212.570182 
L 398.383323 212.570182 
L 402.738445 212.570182 
L 407.093567 212.570182 
L 411.448689 212.570182 
" clip-path="url(#p5d726c0718)" style="fill: none; stroke: #ff0000; stroke-width: 1.5; stroke-linecap: square"/>
   </g>
   <g id="line2d_48">
    <path d="M 58.683811 138.833633 
L 63.038933 154.046118 
L 67.394055 168.110491 
L 71.749177 181.152 
L 76.104299 193.278316 
L 80.459421 204.582508 
L 84.814543 215.145443 
L 89.169665 225.037714 
L 93.524787 234.321231 
L 97.879909 243.050507 
L 102.23503 251.273739 
L 106.590152 259.03369 
L 110.945274 266.368438 
L 115.300396 273.312 
L 119.655518 279.894857 
L 124.01064 286.144405 
L 128.365762 292.085333 
L 132.720884 297.739952 
L 137.076006 303.128471 
L 141.431128 308.269241 
L 144.623592 311.86825 
" clip-path="url(#p5d726c0718)" style="fill: none; stroke: #808080; stroke-width: 1.5; stroke-linecap: square"/>
   </g>
   <g id="line2d_49">
    <path d="M 58.683811 262.752 
L 63.038933 262.752 
L 67.394055 262.752 
L 71.749177 262.752 
L 76.104299 262.752 
L 80.459421 262.752 
L 84.814543 262.752 
L 89.169665 262.752 
L 93.524787 262.752 
L 97.879909 262.752 
L 102.23503 262.752 
L 106.590152 262.752 
L 110.945274 262.752 
L 115.300396 262.752 
L 119.655518 262.752 
L 124.01064 262.752 
L 128.365762 262.752 
L 132.720884 262.752 
L 137.076006 262.752 
L 141.431128 262.752 
L 145.78625 262.752 
L 150.141372 262.752 
L 154.496494 262.752 
L 158.851616 262.752 
L 163.206738 262.752 
L 167.56186 262.752 
L 171.916982 262.752 
L 176.272104 262.752 
L 180.627226 262.752 
L 184.982348 262.752 
L 189.33747 262.752 
L 193.692591 262.752 
L 198.047713 262.752 
L 202.402835 262.752 
L 206.757957 262.752 
L 211.113079 262.752 
L 215.468201 262.752 
L 219.823323 262.752 
L 224.178445 262.752 
L 228.533567 262.752 
L 232.888689 262.752 
L 237.243811 262.752 
L 241.598933 262.752 
L 245.954055 262.752 
L 250.309177 262.752 
L 254.664299 262.752 
L 259.019421 262.752 
L 263.374543 262.752 
L 267.729665 262.752 
L 272.084787 262.752 
L 276.439909 262.752 
L 280.79503 262.752 
L 285.150152 262.752 
L 289.505274 262.752 
L 293.860396 262.752 
L 298.215518 262.752 
L 302.57064 262.752 
L 306.925762 262.752 
L 311.280884 262.752 
L 315.636006 262.752 
L 319.991128 262.752 
L 324.34625 262.752 
L 328.701372 262.752 
L 333.056494 262.752 
L 337.411616 262.752 
L 341.766738 262.752 
L 346.12186 262.752 
L 350.476982 262.752 
L 354.832104 262.752 
L 359.187226 262.752 
L 363.542348 262.752 
L 367.89747 262.752 
L 372.252591 262.752 
L 376.607713 262.752 
L 380.962835 262.752 
L 385.317957 262.752 
L 389.673079 262.752 
L 394.028201 262.752 
L 398.383323 262.752 
L 402.738445 262.752 
L 407.093567 262.752 
L 411.448689 262.752 
" clip-path="url(#p5d726c0718)" style="fill: none; stroke: #000000; stroke-width: 1.5; stroke-linecap: square"/>
   </g>
   <g id="patch_3">
    <path d="M 56.50625 273.312 
L 56.50625 7.2 
" style="fill: none; stroke: #000000; stroke-width: 0.8; stroke-linejoin: miter; stroke-linecap: square"/>
   </g>
   <g id="legend_1">
    <g id="patch_4">
     <path d="M 62.80625 252.84528 
L 407.32625 252.84528 
Q 409.12625 252.84528 409.12625 251.04528 
L 409.12625 225.524655 
Q 409.12625 223.724655 407.32625 223.724655 
L 62.80625 223.724655 
Q 61.00625 223.724655 61.00625 225.524655 
L 61.00625 251.04528 
Q 61.00625 252.84528 62.80625 252.84528 
z
" style="fill: #ffffff; opacity: 0.8; stroke: #cccccc; stroke-linejoin: miter"/>
    </g>
    <g id="line2d_50">
     <path d="M 64.60625 231.013249 
L 73.60625 231.013249 
L 82.60625 231.013249 
" style="fill: none; stroke: #00cc00; stroke-linecap: square"/>
     <g>
      <use xlink:href="#m90bd7b5850" x="73.60625" y="231.013249" style="fill: #00cc00; stroke: #00cc00"/>
     </g>
    </g>
    <g id="text_20">
     <!-- Double Decycling -->
     <g transform="translate(89.80625 234.163249) scale(0.09 -0.09)">
      <defs>
       <path id="DejaVuSans-6f" d="M 1959 3097 
Q 1497 3097 1228 2736 
Q 959 2375 959 1747 
Q 959 1119 1226 758 
Q 1494 397 1959 397 
Q 2419 397 2687 759 
Q 2956 1122 2956 1747 
Q 2956 2369 2687 2733 
Q 2419 3097 1959 3097 
z
M 1959 3584 
Q 2709 3584 3137 3096 
Q 3566 2609 3566 1747 
Q 3566 888 3137 398 
Q 2709 -91 1959 -91 
Q 1206 -91 779 398 
Q 353 888 353 1747 
Q 353 2609 779 3096 
Q 1206 3584 1959 3584 
z
" transform="scale(0.015625)"/>
       <path id="DejaVuSans-75" d="M 544 1381 
L 544 3500 
L 1119 3500 
L 1119 1403 
Q 1119 906 1312 657 
Q 1506 409 1894 409 
Q 2359 409 2629 706 
Q 2900 1003 2900 1516 
L 2900 3500 
L 3475 3500 
L 3475 0 
L 2900 0 
L 2900 538 
Q 2691 219 2414 64 
Q 2138 -91 1772 -91 
Q 1169 -91 856 284 
Q 544 659 544 1381 
z
M 1991 3584 
L 1991 3584 
z
" transform="scale(0.015625)"/>
       <path id="DejaVuSans-62" d="M 3116 1747 
Q 3116 2381 2855 2742 
Q 2594 3103 2138 3103 
Q 1681 3103 1420 2742 
Q 1159 2381 1159 1747 
Q 1159 1113 1420 752 
Q 1681 391 2138 391 
Q 2594 391 2855 752 
Q 3116 1113 3116 1747 
z
M 1159 2969 
Q 1341 3281 1617 3432 
Q 1894 3584 2278 3584 
Q 2916 3584 3314 3078 
Q 3713 2572 3713 1747 
Q 3713 922 3314 415 
Q 2916 -91 2278 -91 
Q 1894 -91 1617 61 
Q 1341 213 1159 525 
L 1159 0 
L 581 0 
L 581 4863 
L 1159 4863 
L 1159 2969 
z
" transform="scale(0.015625)"/>
       <path id="DejaVuSans-6c" d="M 603 4863 
L 1178 4863 
L 1178 0 
L 603 0 
L 603 4863 
z
" transform="scale(0.015625)"/>
       <path id="DejaVuSans-20" transform="scale(0.015625)"/>
       <path id="DejaVuSans-63" d="M 3122 3366 
L 3122 2828 
Q 2878 2963 2633 3030 
Q 2388 3097 2138 3097 
Q 1578 3097 1268 2742 
Q 959 2388 959 1747 
Q 959 1106 1268 751 
Q 1578 397 2138 397 
Q 2388 397 2633 464 
Q 2878 531 3122 666 
L 3122 134 
Q 2881 22 2623 -34 
Q 2366 -91 2075 -91 
Q 1284 -91 818 406 
Q 353 903 353 1747 
Q 353 2603 823 3093 
Q 1294 3584 2113 3584 
Q 2378 3584 2631 3529 
Q 2884 3475 3122 3366 
z
" transform="scale(0.015625)"/>
       <path id="DejaVuSans-67" d="M 2906 1791 
Q 2906 2416 2648 2759 
Q 2391 3103 1925 3103 
Q 1463 3103 1205 2759 
Q 947 2416 947 1791 
Q 947 1169 1205 825 
Q 1463 481 1925 481 
Q 2391 481 2648 825 
Q 2906 1169 2906 1791 
z
M 3481 434 
Q 3481 -459 3084 -895 
Q 2688 -1331 1869 -1331 
Q 1566 -1331 1297 -1286 
Q 1028 -1241 775 -1147 
L 775 -588 
Q 1028 -725 1275 -790 
Q 1522 -856 1778 -856 
Q 2344 -856 2625 -561 
Q 2906 -266 2906 331 
L 2906 616 
Q 2728 306 2450 153 
Q 2172 0 1784 0 
Q 1141 0 747 490 
Q 353 981 353 1791 
Q 353 2603 747 3093 
Q 1141 3584 1784 3584 
Q 2172 3584 2450 3431 
Q 2728 3278 2906 2969 
L 2906 3500 
L 3481 3500 
L 3481 434 
z
" transform="scale(0.015625)"/>
      </defs>
      <use xlink:href="#DejaVuSans-44"/>
      <use xlink:href="#DejaVuSans-6f" transform="translate(77.001953 0)"/>
      <use xlink:href="#DejaVuSans-75" transform="translate(138.183594 0)"/>
      <use xlink:href="#DejaVuSans-62" transform="translate(201.5625 0)"/>
      <use xlink:href="#DejaVuSans-6c" transform="translate(265.039062 0)"/>
      <use xlink:href="#DejaVuSans-65" transform="translate(292.822266 0)"/>
      <use xlink:href="#DejaVuSans-20" transform="translate(354.345703 0)"/>
      <use xlink:href="#DejaVuSans-44" transform="translate(386.132812 0)"/>
      <use xlink:href="#DejaVuSans-65" transform="translate(463.134766 0)"/>
      <use xlink:href="#DejaVuSans-63" transform="translate(524.658203 0)"/>
      <use xlink:href="#DejaVuSans-79" transform="translate(579.638672 0)"/>
      <use xlink:href="#DejaVuSans-63" transform="translate(638.818359 0)"/>
      <use xlink:href="#DejaVuSans-6c" transform="translate(693.798828 0)"/>
      <use xlink:href="#DejaVuSans-69" transform="translate(721.582031 0)"/>
      <use xlink:href="#DejaVuSans-6e" transform="translate(749.365234 0)"/>
      <use xlink:href="#DejaVuSans-67" transform="translate(812.744141 0)"/>
     </g>
    </g>
    <g id="line2d_51">
     <path d="M 64.60625 244.223561 
L 73.60625 244.223561 
L 82.60625 244.223561 
" style="fill: none; stroke: #0000cc; stroke-linecap: square"/>
     <g>
      <use xlink:href="#maf8bee9666" x="73.60625" y="244.223561" style="fill: #0000cc; stroke: #0000cc"/>
     </g>
    </g>
    <g id="text_21">
     <!-- Mod-mini -->
     <g transform="translate(89.80625 247.373561) scale(0.09 -0.09)">
      <defs>
       <path id="DejaVuSans-4d" d="M 628 4666 
L 1569 4666 
L 2759 1491 
L 3956 4666 
L 4897 4666 
L 4897 0 
L 4281 0 
L 4281 4097 
L 3078 897 
L 2444 897 
L 1241 4097 
L 1241 0 
L 628 0 
L 628 4666 
z
" transform="scale(0.015625)"/>
       <path id="DejaVuSans-64" d="M 2906 2969 
L 2906 4863 
L 3481 4863 
L 3481 0 
L 2906 0 
L 2906 525 
Q 2725 213 2448 61 
Q 2172 -91 1784 -91 
Q 1150 -91 751 415 
Q 353 922 353 1747 
Q 353 2572 751 3078 
Q 1150 3584 1784 3584 
Q 2172 3584 2448 3432 
Q 2725 3281 2906 2969 
z
M 947 1747 
Q 947 1113 1208 752 
Q 1469 391 1925 391 
Q 2381 391 2643 752 
Q 2906 1113 2906 1747 
Q 2906 2381 2643 2742 
Q 2381 3103 1925 3103 
Q 1469 3103 1208 2742 
Q 947 2381 947 1747 
z
" transform="scale(0.015625)"/>
       <path id="DejaVuSans-2d" d="M 313 2009 
L 1997 2009 
L 1997 1497 
L 313 1497 
L 313 2009 
z
" transform="scale(0.015625)"/>
       <path id="DejaVuSans-6d" d="M 3328 2828 
Q 3544 3216 3844 3400 
Q 4144 3584 4550 3584 
Q 5097 3584 5394 3201 
Q 5691 2819 5691 2113 
L 5691 0 
L 5113 0 
L 5113 2094 
Q 5113 2597 4934 2840 
Q 4756 3084 4391 3084 
Q 3944 3084 3684 2787 
Q 3425 2491 3425 1978 
L 3425 0 
L 2847 0 
L 2847 2094 
Q 2847 2600 2669 2842 
Q 2491 3084 2119 3084 
Q 1678 3084 1418 2786 
Q 1159 2488 1159 1978 
L 1159 0 
L 581 0 
L 581 3500 
L 1159 3500 
L 1159 2956 
Q 1356 3278 1631 3431 
Q 1906 3584 2284 3584 
Q 2666 3584 2933 3390 
Q 3200 3197 3328 2828 
z
" transform="scale(0.015625)"/>
      </defs>
      <use xlink:href="#DejaVuSans-4d"/>
      <use xlink:href="#DejaVuSans-6f" transform="translate(86.279297 0)"/>
      <use xlink:href="#DejaVuSans-64" transform="translate(147.460938 0)"/>
      <use xlink:href="#DejaVuSans-2d" transform="translate(210.9375 0)"/>
      <use xlink:href="#DejaVuSans-6d" transform="translate(247.021484 0)"/>
      <use xlink:href="#DejaVuSans-69" transform="translate(344.433594 0)"/>
      <use xlink:href="#DejaVuSans-6e" transform="translate(372.216797 0)"/>
      <use xlink:href="#DejaVuSans-69" transform="translate(435.595703 0)"/>
     </g>
    </g>
    <g id="line2d_52">
     <path d="M 188.645469 231.013249 
L 197.645469 231.013249 
L 206.645469 231.013249 
" style="fill: none; stroke: #1f77b4; stroke-opacity: 0; stroke-width: 1.5; stroke-linecap: square"/>
    </g>
    <g id="text_22">
     <!--   -->
     <g transform="translate(213.845469 234.163249) scale(0.09 -0.09)">
      <use xlink:href="#DejaVuSans-20"/>
     </g>
    </g>
    <g id="line2d_53">
     <path d="M 188.645469 244.223561 
L 197.645469 244.223561 
L 206.645469 244.223561 
" style="fill: none; stroke: #ff7f0e; stroke-opacity: 0; stroke-width: 1.5; stroke-linecap: square"/>
    </g>
    <g id="text_23">
     <!--   -->
     <g transform="translate(213.845469 247.373561) scale(0.09 -0.09)">
      <use xlink:href="#DejaVuSans-20"/>
     </g>
    </g>
    <g id="line2d_54">
     <path d="M 236.6825 231.013249 
L 245.6825 231.013249 
L 254.6825 231.013249 
" style="fill: none; stroke: #2ca02c; stroke-opacity: 0; stroke-width: 1.5; stroke-linecap: square"/>
    </g>
    <g id="text_24">
     <!--   -->
     <g transform="translate(261.8825 234.163249) scale(0.09 -0.09)">
      <use xlink:href="#DejaVuSans-20"/>
     </g>
    </g>
    <g id="line2d_55">
     <path d="M 236.6825 244.223561 
L 245.6825 244.223561 
L 254.6825 244.223561 
" style="fill: none; stroke: #ff0000; stroke-width: 1.5; stroke-linecap: square"/>
    </g>
    <g id="text_25">
     <!-- New l.b. -->
     <g transform="translate(261.8825 247.373561) scale(0.09 -0.09)">
      <defs>
       <path id="DejaVuSans-4e" d="M 628 4666 
L 1478 4666 
L 3547 763 
L 3547 4666 
L 4159 4666 
L 4159 0 
L 3309 0 
L 1241 3903 
L 1241 0 
L 628 0 
L 628 4666 
z
" transform="scale(0.015625)"/>
       <path id="DejaVuSans-77" d="M 269 3500 
L 844 3500 
L 1563 769 
L 2278 3500 
L 2956 3500 
L 3675 769 
L 4391 3500 
L 4966 3500 
L 4050 0 
L 3372 0 
L 2619 2869 
L 1863 0 
L 1184 0 
L 269 3500 
z
" transform="scale(0.015625)"/>
      </defs>
      <use xlink:href="#DejaVuSans-4e"/>
      <use xlink:href="#DejaVuSans-65" transform="translate(74.804688 0)"/>
      <use xlink:href="#DejaVuSans-77" transform="translate(136.328125 0)"/>
      <use xlink:href="#DejaVuSans-20" transform="translate(218.115234 0)"/>
      <use xlink:href="#DejaVuSans-6c" transform="translate(249.902344 0)"/>
      <use xlink:href="#DejaVuSans-2e" transform="translate(277.685547 0)"/>
      <use xlink:href="#DejaVuSans-62" transform="translate(309.472656 0)"/>
      <use xlink:href="#DejaVuSans-2e" transform="translate(372.949219 0)"/>
     </g>
    </g>
    <g id="line2d_56">
     <path d="M 318.285313 231.013249 
L 327.285313 231.013249 
L 336.285313 231.013249 
" style="fill: none; stroke: #808080; stroke-width: 1.5; stroke-linecap: square"/>
    </g>
    <g id="text_26">
     <!-- 1.5/(w+k-0.5) -->
     <g transform="translate(343.485313 234.163249) scale(0.09 -0.09)">
      <defs>
       <path id="DejaVuSans-2f" d="M 1625 4666 
L 2156 4666 
L 531 -594 
L 0 -594 
L 1625 4666 
z
" transform="scale(0.015625)"/>
       <path id="DejaVuSans-28" d="M 1984 4856 
Q 1566 4138 1362 3434 
Q 1159 2731 1159 2009 
Q 1159 1288 1364 580 
Q 1569 -128 1984 -844 
L 1484 -844 
Q 1016 -109 783 600 
Q 550 1309 550 2009 
Q 550 2706 781 3412 
Q 1013 4119 1484 4856 
L 1984 4856 
z
" transform="scale(0.015625)"/>
       <path id="DejaVuSans-2b" d="M 2944 4013 
L 2944 2272 
L 4684 2272 
L 4684 1741 
L 2944 1741 
L 2944 0 
L 2419 0 
L 2419 1741 
L 678 1741 
L 678 2272 
L 2419 2272 
L 2419 4013 
L 2944 4013 
z
" transform="scale(0.015625)"/>
       <path id="DejaVuSans-29" d="M 513 4856 
L 1013 4856 
Q 1481 4119 1714 3412 
Q 1947 2706 1947 2009 
Q 1947 1309 1714 600 
Q 1481 -109 1013 -844 
L 513 -844 
Q 928 -128 1133 580 
Q 1338 1288 1338 2009 
Q 1338 2731 1133 3434 
Q 928 4138 513 4856 
z
" transform="scale(0.015625)"/>
      </defs>
      <use xlink:href="#DejaVuSans-31"/>
      <use xlink:href="#DejaVuSans-2e" transform="translate(63.623047 0)"/>
      <use xlink:href="#DejaVuSans-35" transform="translate(95.410156 0)"/>
      <use xlink:href="#DejaVuSans-2f" transform="translate(159.033203 0)"/>
      <use xlink:href="#DejaVuSans-28" transform="translate(192.724609 0)"/>
      <use xlink:href="#DejaVuSans-77" transform="translate(231.738281 0)"/>
      <use xlink:href="#DejaVuSans-2b" transform="translate(313.525391 0)"/>
      <use xlink:href="#DejaVuSans-6b" transform="translate(397.314453 0)"/>
      <use xlink:href="#DejaVuSans-2d" transform="translate(455.224609 0)"/>
      <use xlink:href="#DejaVuSans-30" transform="translate(491.308594 0)"/>
      <use xlink:href="#DejaVuSans-2e" transform="translate(554.931641 0)"/>
      <use xlink:href="#DejaVuSans-35" transform="translate(586.71875 0)"/>
      <use xlink:href="#DejaVuSans-29" transform="translate(650.341797 0)"/>
     </g>
    </g>
    <g id="line2d_57">
     <path d="M 318.285313 244.223561 
L 327.285313 244.223561 
L 336.285313 244.223561 
" style="fill: none; stroke: #000000; stroke-width: 1.5; stroke-linecap: square"/>
    </g>
    <g id="text_27">
     <!-- 1/w -->
     <g transform="translate(343.485313 247.373561) scale(0.09 -0.09)">
      <use xlink:href="#DejaVuSans-31"/>
      <use xlink:href="#DejaVuSans-2f" transform="translate(63.623047 0)"/>
      <use xlink:href="#DejaVuSans-77" transform="translate(97.314453 0)"/>
     </g>
    </g>
   </g>
  </g>
 </g>
 <defs>
  <clipPath id="p5d726c0718">
   <rect x="56.50625" y="7.2" width="357.12" height="266.112"/>
  </clipPath>
 </defs>
</svg>
