<?xml version="1.0" encoding="utf-8" standalone="no"?>
<!DOCTYPE svg PUBLIC "-//W3C//DTD SVG 1.1//EN"
  "http://www.w3.org/Graphics/SVG/1.1/DTD/svg11.dtd">
<svg xmlns:xlink="http://www.w3.org/1999/xlink" width="551.31865pt" height="325.986375pt" viewBox="0 0 551.31865 325.986375" xmlns="http://www.w3.org/2000/svg" version="1.1">
 <metadata>
  <rdf:RDF xmlns:dc="http://purl.org/dc/elements/1.1/" xmlns:cc="http://creativecommons.org/ns#" xmlns:rdf="http://www.w3.org/1999/02/22-rdf-syntax-ns#">
   <cc:Work>
    <dc:type rdf:resource="http://purl.org/dc/dcmitype/StillImage"/>
    <dc:date>2024-01-23T11:52:56.715320</dc:date>
    <dc:format>image/svg+xml</dc:format>
    <dc:creator>
     <cc:Agent>
      <dc:title>Matplotlib v3.8.2, https://matplotlib.org/</dc:title>
     </cc:Agent>
    </dc:creator>
   </cc:Work>
  </rdf:RDF>
 </metadata>
 <defs>
  <style type="text/css">*{stroke-linejoin: round; stroke-linecap: butt}</style>
 </defs>
 <g id="figure_1">
  <g id="patch_1">
   <path d="M 0 325.986375 
L 551.31865 325.986375 
L 551.31865 0 
L 0 0 
z
" style="fill: #ffffff"/>
  </g>
  <g id="axes_1">
   <g id="patch_2">
    <path d="M 46.965625 288.430125 
L 404.085625 288.430125 
L 404.085625 22.318125 
L 46.965625 22.318125 
z
" style="fill: #ffffff"/>
   </g>
   <g id="PolyCollection_1"/>
   <g id="PolyCollection_2"/>
   <g id="PolyCollection_3"/>
   <g id="PolyCollection_4"/>
   <g id="PolyCollection_5"/>
   <g id="PolyCollection_6"/>
   <g id="PolyCollection_7"/>
   <g id="PolyCollection_8"/>
   <g id="PolyCollection_9"/>
   <g id="PolyCollection_10"/>
   <g id="PolyCollection_11"/>
   <g id="PolyCollection_12"/>
   <g id="PolyCollection_13"/>
   <g id="PolyCollection_14"/>
   <g id="PolyCollection_15"/>
   <g id="matplotlib.axis_1">
    <g id="xtick_1">
     <g id="line2d_1">
      <defs>
       <path id="m6ca291ddb9" d="M 0 0 
L 0 3.5 
" style="stroke: #000000; stroke-width: 0.8"/>
      </defs>
      <g>
       <use xlink:href="#m6ca291ddb9" x="63.198352" y="288.430125" style="stroke: #000000; stroke-width: 0.8"/>
      </g>
     </g>
     <g id="text_1">
      <!-- $\mathdefault{2^{2}}$ -->
      <g transform="translate(57.598352 303.028562) scale(0.1 -0.1)">
       <defs>
        <path id="DejaVuSans-32" d="M 1228 531 
L 3431 531 
L 3431 0 
L 469 0 
L 469 531 
Q 828 903 1448 1529 
Q 2069 2156 2228 2338 
Q 2531 2678 2651 2914 
Q 2772 3150 2772 3378 
Q 2772 3750 2511 3984 
Q 2250 4219 1831 4219 
Q 1534 4219 1204 4116 
Q 875 4013 500 3803 
L 500 4441 
Q 881 4594 1212 4672 
Q 1544 4750 1819 4750 
Q 2544 4750 2975 4387 
Q 3406 4025 3406 3419 
Q 3406 3131 3298 2873 
Q 3191 2616 2906 2266 
Q 2828 2175 2409 1742 
Q 1991 1309 1228 531 
z
" transform="scale(0.015625)"/>
       </defs>
       <use xlink:href="#DejaVuSans-32" transform="translate(0 0.765625)"/>
       <use xlink:href="#DejaVuSans-32" transform="translate(64.580078 39.046875) scale(0.7)"/>
      </g>
     </g>
    </g>
    <g id="xtick_2">
     <g id="line2d_2">
      <g>
       <use xlink:href="#m6ca291ddb9" x="128.129261" y="288.430125" style="stroke: #000000; stroke-width: 0.8"/>
      </g>
     </g>
     <g id="text_2">
      <!-- $\mathdefault{2^{3}}$ -->
      <g transform="translate(122.529261 303.028562) scale(0.1 -0.1)">
       <defs>
        <path id="DejaVuSans-33" d="M 2597 2516 
Q 3050 2419 3304 2112 
Q 3559 1806 3559 1356 
Q 3559 666 3084 287 
Q 2609 -91 1734 -91 
Q 1441 -91 1130 -33 
Q 819 25 488 141 
L 488 750 
Q 750 597 1062 519 
Q 1375 441 1716 441 
Q 2309 441 2620 675 
Q 2931 909 2931 1356 
Q 2931 1769 2642 2001 
Q 2353 2234 1838 2234 
L 1294 2234 
L 1294 2753 
L 1863 2753 
Q 2328 2753 2575 2939 
Q 2822 3125 2822 3475 
Q 2822 3834 2567 4026 
Q 2313 4219 1838 4219 
Q 1578 4219 1281 4162 
Q 984 4106 628 3988 
L 628 4550 
Q 988 4650 1302 4700 
Q 1616 4750 1894 4750 
Q 2613 4750 3031 4423 
Q 3450 4097 3450 3541 
Q 3450 3153 3228 2886 
Q 3006 2619 2597 2516 
z
" transform="scale(0.015625)"/>
       </defs>
       <use xlink:href="#DejaVuSans-32" transform="translate(0 0.765625)"/>
       <use xlink:href="#DejaVuSans-33" transform="translate(64.580078 39.046875) scale(0.7)"/>
      </g>
     </g>
    </g>
    <g id="xtick_3">
     <g id="line2d_3">
      <g>
       <use xlink:href="#m6ca291ddb9" x="193.06017" y="288.430125" style="stroke: #000000; stroke-width: 0.8"/>
      </g>
     </g>
     <g id="text_3">
      <!-- $\mathdefault{2^{4}}$ -->
      <g transform="translate(187.46017 303.028562) scale(0.1 -0.1)">
       <defs>
        <path id="DejaVuSans-34" d="M 2419 4116 
L 825 1625 
L 2419 1625 
L 2419 4116 
z
M 2253 4666 
L 3047 4666 
L 3047 1625 
L 3713 1625 
L 3713 1100 
L 3047 1100 
L 3047 0 
L 2419 0 
L 2419 1100 
L 313 1100 
L 313 1709 
L 2253 4666 
z
" transform="scale(0.015625)"/>
       </defs>
       <use xlink:href="#DejaVuSans-32" transform="translate(0 0.684375)"/>
       <use xlink:href="#DejaVuSans-34" transform="translate(64.580078 38.965625) scale(0.7)"/>
      </g>
     </g>
    </g>
    <g id="xtick_4">
     <g id="line2d_4">
      <g>
       <use xlink:href="#m6ca291ddb9" x="257.99108" y="288.430125" style="stroke: #000000; stroke-width: 0.8"/>
      </g>
     </g>
     <g id="text_4">
      <!-- $\mathdefault{2^{5}}$ -->
      <g transform="translate(252.39108 303.028562) scale(0.1 -0.1)">
       <defs>
        <path id="DejaVuSans-35" d="M 691 4666 
L 3169 4666 
L 3169 4134 
L 1269 4134 
L 1269 2991 
Q 1406 3038 1543 3061 
Q 1681 3084 1819 3084 
Q 2600 3084 3056 2656 
Q 3513 2228 3513 1497 
Q 3513 744 3044 326 
Q 2575 -91 1722 -91 
Q 1428 -91 1123 -41 
Q 819 9 494 109 
L 494 744 
Q 775 591 1075 516 
Q 1375 441 1709 441 
Q 2250 441 2565 725 
Q 2881 1009 2881 1497 
Q 2881 1984 2565 2268 
Q 2250 2553 1709 2553 
Q 1456 2553 1204 2497 
Q 953 2441 691 2322 
L 691 4666 
z
" transform="scale(0.015625)"/>
       </defs>
       <use xlink:href="#DejaVuSans-32" transform="translate(0 0.684375)"/>
       <use xlink:href="#DejaVuSans-35" transform="translate(64.580078 38.965625) scale(0.7)"/>
      </g>
     </g>
    </g>
    <g id="xtick_5">
     <g id="line2d_5">
      <g>
       <use xlink:href="#m6ca291ddb9" x="322.921989" y="288.430125" style="stroke: #000000; stroke-width: 0.8"/>
      </g>
     </g>
     <g id="text_5">
      <!-- $\mathdefault{2^{6}}$ -->
      <g transform="translate(317.321989 303.028562) scale(0.1 -0.1)">
       <defs>
        <path id="DejaVuSans-36" d="M 2113 2584 
Q 1688 2584 1439 2293 
Q 1191 2003 1191 1497 
Q 1191 994 1439 701 
Q 1688 409 2113 409 
Q 2538 409 2786 701 
Q 3034 994 3034 1497 
Q 3034 2003 2786 2293 
Q 2538 2584 2113 2584 
z
M 3366 4563 
L 3366 3988 
Q 3128 4100 2886 4159 
Q 2644 4219 2406 4219 
Q 1781 4219 1451 3797 
Q 1122 3375 1075 2522 
Q 1259 2794 1537 2939 
Q 1816 3084 2150 3084 
Q 2853 3084 3261 2657 
Q 3669 2231 3669 1497 
Q 3669 778 3244 343 
Q 2819 -91 2113 -91 
Q 1303 -91 875 529 
Q 447 1150 447 2328 
Q 447 3434 972 4092 
Q 1497 4750 2381 4750 
Q 2619 4750 2861 4703 
Q 3103 4656 3366 4563 
z
" transform="scale(0.015625)"/>
       </defs>
       <use xlink:href="#DejaVuSans-32" transform="translate(0 0.765625)"/>
       <use xlink:href="#DejaVuSans-36" transform="translate(64.580078 39.046875) scale(0.7)"/>
      </g>
     </g>
    </g>
    <g id="xtick_6">
     <g id="line2d_6">
      <g>
       <use xlink:href="#m6ca291ddb9" x="387.852898" y="288.430125" style="stroke: #000000; stroke-width: 0.8"/>
      </g>
     </g>
     <g id="text_6">
      <!-- $\mathdefault{2^{7}}$ -->
      <g transform="translate(382.252898 303.028562) scale(0.1 -0.1)">
       <defs>
        <path id="DejaVuSans-37" d="M 525 4666 
L 3525 4666 
L 3525 4397 
L 1831 0 
L 1172 0 
L 2766 4134 
L 525 4134 
L 525 4666 
z
" transform="scale(0.015625)"/>
       </defs>
       <use xlink:href="#DejaVuSans-32" transform="translate(0 0.684375)"/>
       <use xlink:href="#DejaVuSans-37" transform="translate(64.580078 38.965625) scale(0.7)"/>
      </g>
     </g>
    </g>
    <g id="text_7">
     <!-- k -->
     <g transform="translate(222.630313 316.706687) scale(0.1 -0.1)">
      <defs>
       <path id="DejaVuSans-6b" d="M 581 4863 
L 1159 4863 
L 1159 1991 
L 2875 3500 
L 3609 3500 
L 1753 1863 
L 3688 0 
L 2938 0 
L 1159 1709 
L 1159 0 
L 581 0 
L 581 4863 
z
" transform="scale(0.015625)"/>
      </defs>
      <use xlink:href="#DejaVuSans-6b"/>
     </g>
    </g>
   </g>
   <g id="matplotlib.axis_2">
    <g id="ytick_1">
     <g id="line2d_7">
      <defs>
       <path id="m547e134de6" d="M 0 0 
L -3.5 0 
" style="stroke: #000000; stroke-width: 0.8"/>
      </defs>
      <g>
       <use xlink:href="#m547e134de6" x="46.965625" y="276.334125" style="stroke: #000000; stroke-width: 0.8"/>
      </g>
     </g>
     <g id="text_8">
      <!-- 0 -->
      <g transform="translate(33.603125 280.133344) scale(0.1 -0.1)">
       <defs>
        <path id="DejaVuSans-30" d="M 2034 4250 
Q 1547 4250 1301 3770 
Q 1056 3291 1056 2328 
Q 1056 1369 1301 889 
Q 1547 409 2034 409 
Q 2525 409 2770 889 
Q 3016 1369 3016 2328 
Q 3016 3291 2770 3770 
Q 2525 4250 2034 4250 
z
M 2034 4750 
Q 2819 4750 3233 4129 
Q 3647 3509 3647 2328 
Q 3647 1150 3233 529 
Q 2819 -91 2034 -91 
Q 1250 -91 836 529 
Q 422 1150 422 2328 
Q 422 3509 836 4129 
Q 1250 4750 2034 4750 
z
" transform="scale(0.015625)"/>
       </defs>
       <use xlink:href="#DejaVuSans-30"/>
      </g>
     </g>
    </g>
    <g id="ytick_2">
     <g id="line2d_8">
      <g>
       <use xlink:href="#m547e134de6" x="46.965625" y="236.014125" style="stroke: #000000; stroke-width: 0.8"/>
      </g>
     </g>
     <g id="text_9">
      <!-- 20 -->
      <g transform="translate(27.240625 239.813344) scale(0.1 -0.1)">
       <use xlink:href="#DejaVuSans-32"/>
       <use xlink:href="#DejaVuSans-30" x="63.623047"/>
      </g>
     </g>
    </g>
    <g id="ytick_3">
     <g id="line2d_9">
      <g>
       <use xlink:href="#m547e134de6" x="46.965625" y="195.694125" style="stroke: #000000; stroke-width: 0.8"/>
      </g>
     </g>
     <g id="text_10">
      <!-- 40 -->
      <g transform="translate(27.240625 199.493344) scale(0.1 -0.1)">
       <use xlink:href="#DejaVuSans-34"/>
       <use xlink:href="#DejaVuSans-30" x="63.623047"/>
      </g>
     </g>
    </g>
    <g id="ytick_4">
     <g id="line2d_10">
      <g>
       <use xlink:href="#m547e134de6" x="46.965625" y="155.374125" style="stroke: #000000; stroke-width: 0.8"/>
      </g>
     </g>
     <g id="text_11">
      <!-- 60 -->
      <g transform="translate(27.240625 159.173344) scale(0.1 -0.1)">
       <use xlink:href="#DejaVuSans-36"/>
       <use xlink:href="#DejaVuSans-30" x="63.623047"/>
      </g>
     </g>
    </g>
    <g id="ytick_5">
     <g id="line2d_11">
      <g>
       <use xlink:href="#m547e134de6" x="46.965625" y="115.054125" style="stroke: #000000; stroke-width: 0.8"/>
      </g>
     </g>
     <g id="text_12">
      <!-- 80 -->
      <g transform="translate(27.240625 118.853344) scale(0.1 -0.1)">
       <defs>
        <path id="DejaVuSans-38" d="M 2034 2216 
Q 1584 2216 1326 1975 
Q 1069 1734 1069 1313 
Q 1069 891 1326 650 
Q 1584 409 2034 409 
Q 2484 409 2743 651 
Q 3003 894 3003 1313 
Q 3003 1734 2745 1975 
Q 2488 2216 2034 2216 
z
M 1403 2484 
Q 997 2584 770 2862 
Q 544 3141 544 3541 
Q 544 4100 942 4425 
Q 1341 4750 2034 4750 
Q 2731 4750 3128 4425 
Q 3525 4100 3525 3541 
Q 3525 3141 3298 2862 
Q 3072 2584 2669 2484 
Q 3125 2378 3379 2068 
Q 3634 1759 3634 1313 
Q 3634 634 3220 271 
Q 2806 -91 2034 -91 
Q 1263 -91 848 271 
Q 434 634 434 1313 
Q 434 1759 690 2068 
Q 947 2378 1403 2484 
z
M 1172 3481 
Q 1172 3119 1398 2916 
Q 1625 2713 2034 2713 
Q 2441 2713 2670 2916 
Q 2900 3119 2900 3481 
Q 2900 3844 2670 4047 
Q 2441 4250 2034 4250 
Q 1625 4250 1398 4047 
Q 1172 3844 1172 3481 
z
" transform="scale(0.015625)"/>
       </defs>
       <use xlink:href="#DejaVuSans-38"/>
       <use xlink:href="#DejaVuSans-30" x="63.623047"/>
      </g>
     </g>
    </g>
    <g id="ytick_6">
     <g id="line2d_12">
      <g>
       <use xlink:href="#m547e134de6" x="46.965625" y="74.734125" style="stroke: #000000; stroke-width: 0.8"/>
      </g>
     </g>
     <g id="text_13">
      <!-- 100 -->
      <g transform="translate(20.878125 78.533344) scale(0.1 -0.1)">
       <defs>
        <path id="DejaVuSans-31" d="M 794 531 
L 1825 531 
L 1825 4091 
L 703 3866 
L 703 4441 
L 1819 4666 
L 2450 4666 
L 2450 531 
L 3481 531 
L 3481 0 
L 794 0 
L 794 531 
z
" transform="scale(0.015625)"/>
       </defs>
       <use xlink:href="#DejaVuSans-31"/>
       <use xlink:href="#DejaVuSans-30" x="63.623047"/>
       <use xlink:href="#DejaVuSans-30" x="127.246094"/>
      </g>
     </g>
    </g>
    <g id="ytick_7">
     <g id="line2d_13">
      <g>
       <use xlink:href="#m547e134de6" x="46.965625" y="34.414125" style="stroke: #000000; stroke-width: 0.8"/>
      </g>
     </g>
     <g id="text_14">
      <!-- 120 -->
      <g transform="translate(20.878125 38.213344) scale(0.1 -0.1)">
       <use xlink:href="#DejaVuSans-31"/>
       <use xlink:href="#DejaVuSans-32" x="63.623047"/>
       <use xlink:href="#DejaVuSans-30" x="127.246094"/>
      </g>
     </g>
    </g>
    <g id="text_15">
     <!-- param -->
     <g transform="translate(14.798438 171.60225) rotate(-90) scale(0.1 -0.1)">
      <defs>
       <path id="DejaVuSans-70" d="M 1159 525 
L 1159 -1331 
L 581 -1331 
L 581 3500 
L 1159 3500 
L 1159 2969 
Q 1341 3281 1617 3432 
Q 1894 3584 2278 3584 
Q 2916 3584 3314 3078 
Q 3713 2572 3713 1747 
Q 3713 922 3314 415 
Q 2916 -91 2278 -91 
Q 1894 -91 1617 61 
Q 1341 213 1159 525 
z
M 3116 1747 
Q 3116 2381 2855 2742 
Q 2594 3103 2138 3103 
Q 1681 3103 1420 2742 
Q 1159 2381 1159 1747 
Q 1159 1113 1420 752 
Q 1681 391 2138 391 
Q 2594 391 2855 752 
Q 3116 1113 3116 1747 
z
" transform="scale(0.015625)"/>
       <path id="DejaVuSans-61" d="M 2194 1759 
Q 1497 1759 1228 1600 
Q 959 1441 959 1056 
Q 959 750 1161 570 
Q 1363 391 1709 391 
Q 2188 391 2477 730 
Q 2766 1069 2766 1631 
L 2766 1759 
L 2194 1759 
z
M 3341 1997 
L 3341 0 
L 2766 0 
L 2766 531 
Q 2569 213 2275 61 
Q 1981 -91 1556 -91 
Q 1019 -91 701 211 
Q 384 513 384 1019 
Q 384 1609 779 1909 
Q 1175 2209 1959 2209 
L 2766 2209 
L 2766 2266 
Q 2766 2663 2505 2880 
Q 2244 3097 1772 3097 
Q 1472 3097 1187 3025 
Q 903 2953 641 2809 
L 641 3341 
Q 956 3463 1253 3523 
Q 1550 3584 1831 3584 
Q 2591 3584 2966 3190 
Q 3341 2797 3341 1997 
z
" transform="scale(0.015625)"/>
       <path id="DejaVuSans-72" d="M 2631 2963 
Q 2534 3019 2420 3045 
Q 2306 3072 2169 3072 
Q 1681 3072 1420 2755 
Q 1159 2438 1159 1844 
L 1159 0 
L 581 0 
L 581 3500 
L 1159 3500 
L 1159 2956 
Q 1341 3275 1631 3429 
Q 1922 3584 2338 3584 
Q 2397 3584 2469 3576 
Q 2541 3569 2628 3553 
L 2631 2963 
z
" transform="scale(0.015625)"/>
       <path id="DejaVuSans-6d" d="M 3328 2828 
Q 3544 3216 3844 3400 
Q 4144 3584 4550 3584 
Q 5097 3584 5394 3201 
Q 5691 2819 5691 2113 
L 5691 0 
L 5113 0 
L 5113 2094 
Q 5113 2597 4934 2840 
Q 4756 3084 4391 3084 
Q 3944 3084 3684 2787 
Q 3425 2491 3425 1978 
L 3425 0 
L 2847 0 
L 2847 2094 
Q 2847 2600 2669 2842 
Q 2491 3084 2119 3084 
Q 1678 3084 1418 2786 
Q 1159 2488 1159 1978 
L 1159 0 
L 581 0 
L 581 3500 
L 1159 3500 
L 1159 2956 
Q 1356 3278 1631 3431 
Q 1906 3584 2284 3584 
Q 2666 3584 2933 3390 
Q 3200 3197 3328 2828 
z
" transform="scale(0.015625)"/>
      </defs>
      <use xlink:href="#DejaVuSans-70"/>
      <use xlink:href="#DejaVuSans-61" x="63.476562"/>
      <use xlink:href="#DejaVuSans-72" x="124.755859"/>
      <use xlink:href="#DejaVuSans-61" x="165.869141"/>
      <use xlink:href="#DejaVuSans-6d" x="227.148438"/>
     </g>
    </g>
   </g>
   <g id="line2d_14">
    <path d="M 63.198352 276.334125 
L 84.101436 276.334125 
L 101.180499 276.334125 
L 115.620641 276.334125 
L 128.129261 276.334125 
L 149.032345 276.334125 
L 166.111408 276.334125 
L 180.55155 276.334125 
L 193.06017 276.334125 
L 213.963254 276.334125 
L 231.042317 276.334125 
L 245.48246 276.334125 
L 257.99108 276.334125 
L 278.894163 276.334125 
L 295.973227 276.334125 
L 310.413369 276.334125 
L 322.921989 276.334125 
L 343.825072 276.334125 
L 360.904136 276.334125 
L 375.344278 276.334125 
L 387.852898 276.334125 
" clip-path="url(#p86cca2acb8)" style="fill: none; stroke: #1f77b4; stroke-width: 0.75; stroke-linecap: square"/>
   </g>
   <g id="line2d_15">
    <path d="M 63.198352 276.334125 
L 84.101436 276.334125 
L 101.180499 276.334125 
L 115.620641 276.334125 
L 128.129261 276.334125 
L 149.032345 276.334125 
L 166.111408 276.334125 
L 180.55155 276.334125 
L 193.06017 276.334125 
L 213.963254 276.334125 
L 231.042317 276.334125 
L 245.48246 276.334125 
L 257.99108 276.334125 
L 278.894163 276.334125 
L 295.973227 276.334125 
L 310.413369 276.334125 
L 322.921989 276.334125 
L 343.825072 276.334125 
L 360.904136 276.334125 
L 375.344278 276.334125 
L 387.852898 276.334125 
" clip-path="url(#p86cca2acb8)" style="fill: none; stroke: #1f77b4; stroke-width: 1.2; stroke-linecap: square"/>
   </g>
   <g id="line2d_16">
    <path d="M 63.198352 276.334125 
L 84.101436 276.334125 
L 101.180499 276.334125 
L 115.620641 276.334125 
L 128.129261 276.334125 
L 149.032345 276.334125 
L 166.111408 276.334125 
L 180.55155 276.334125 
L 193.06017 276.334125 
L 213.963254 276.334125 
L 231.042317 276.334125 
L 245.48246 276.334125 
L 257.99108 276.334125 
L 278.894163 276.334125 
L 295.973227 276.334125 
L 310.413369 276.334125 
L 322.921989 276.334125 
L 343.825072 276.334125 
L 360.904136 276.334125 
L 375.344278 276.334125 
L 387.852898 276.334125 
" clip-path="url(#p86cca2acb8)" style="fill: none; stroke: #1f77b4; stroke-width: 3; stroke-linecap: square"/>
   </g>
   <g id="line2d_17">
    <path d="M 63.198352 276.334125 
L 84.101436 276.334125 
L 101.180499 274.318125 
L 115.620641 274.318125 
L 128.129261 274.318125 
L 149.032345 274.318125 
L 166.111408 274.318125 
L 180.55155 274.318125 
L 193.06017 274.318125 
L 213.963254 274.318125 
L 231.042317 272.302125 
L 245.48246 272.302125 
L 257.99108 272.302125 
L 278.894163 272.302125 
L 295.973227 272.302125 
L 310.413369 272.302125 
L 322.921989 270.286125 
L 343.825072 270.286125 
L 360.904136 270.286125 
L 375.344278 270.286125 
L 387.852898 268.270125 
" clip-path="url(#p86cca2acb8)" style="fill: none; stroke: #ff7f0e; stroke-width: 0.75; stroke-linecap: square"/>
   </g>
   <g id="line2d_18">
    <path d="M 63.198352 272.302125 
L 84.101436 272.302125 
L 101.180499 272.302125 
L 115.620641 272.302125 
L 128.129261 272.302125 
L 149.032345 272.302125 
L 166.111408 272.302125 
L 180.55155 272.302125 
L 193.06017 272.302125 
L 213.963254 272.302125 
L 231.042317 272.302125 
L 245.48246 272.302125 
L 257.99108 272.302125 
L 278.894163 270.286125 
L 295.973227 270.286125 
L 310.413369 270.286125 
L 322.921989 270.286125 
L 343.825072 270.286125 
L 360.904136 270.286125 
L 375.344278 270.286125 
L 387.852898 268.270125 
" clip-path="url(#p86cca2acb8)" style="fill: none; stroke: #ff7f0e; stroke-width: 1.2; stroke-linecap: square"/>
   </g>
   <g id="line2d_19">
    <path d="M 63.198352 268.270125 
L 84.101436 268.270125 
L 101.180499 268.270125 
L 115.620641 268.270125 
L 128.129261 268.270125 
L 149.032345 270.286125 
L 166.111408 268.270125 
L 180.55155 268.270125 
L 193.06017 270.286125 
L 213.963254 268.270125 
L 231.042317 268.270125 
L 245.48246 268.270125 
L 257.99108 268.270125 
L 278.894163 268.270125 
L 295.973227 268.270125 
L 310.413369 268.270125 
L 322.921989 266.254125 
L 343.825072 268.270125 
L 360.904136 268.270125 
L 375.344278 268.270125 
L 387.852898 266.254125 
" clip-path="url(#p86cca2acb8)" style="fill: none; stroke: #ff7f0e; stroke-width: 3; stroke-linecap: square"/>
   </g>
   <g id="line2d_20">
    <path d="M 63.198352 272.302125 
L 84.101436 274.318125 
L 101.180499 272.302125 
L 115.620641 272.302125 
L 128.129261 272.302125 
L 149.032345 272.302125 
L 166.111408 268.270125 
L 180.55155 264.238125 
L 193.06017 260.206125 
L 213.963254 252.142125 
L 231.042317 244.078125 
L 245.48246 236.014125 
L 257.99108 227.950125 
L 278.894163 211.822125 
L 295.973227 195.694125 
L 310.413369 179.566125 
L 322.921989 163.438125 
L 343.825072 131.182125 
L 360.904136 98.926125 
L 375.344278 66.670125 
L 387.852898 34.414125 
" clip-path="url(#p86cca2acb8)" style="fill: none; stroke: #2ca02c; stroke-width: 0.75; stroke-linecap: square"/>
   </g>
   <g id="line2d_21">
    <path d="M 63.198352 272.302125 
L 84.101436 274.318125 
L 101.180499 272.302125 
L 115.620641 272.302125 
L 128.129261 272.302125 
L 149.032345 272.302125 
L 166.111408 272.302125 
L 180.55155 272.302125 
L 193.06017 272.302125 
L 213.963254 268.270125 
L 231.042317 270.286125 
L 245.48246 270.286125 
L 257.99108 270.286125 
L 278.894163 260.206125 
L 295.973227 244.078125 
L 310.413369 225.934125 
L 322.921989 211.822125 
L 343.825072 179.566125 
L 360.904136 147.310125 
L 375.344278 115.054125 
L 387.852898 82.798125 
" clip-path="url(#p86cca2acb8)" style="fill: none; stroke: #2ca02c; stroke-width: 1.2; stroke-linecap: square"/>
   </g>
   <g id="line2d_22">
    <path d="M 63.198352 268.270125 
L 84.101436 266.254125 
L 101.180499 272.302125 
L 115.620641 268.270125 
L 128.129261 260.206125 
L 149.032345 268.270125 
L 166.111408 268.270125 
L 180.55155 262.222125 
L 193.06017 270.286125 
L 213.963254 272.302125 
L 231.042317 268.270125 
L 245.48246 266.254125 
L 257.99108 260.206125 
L 278.894163 270.286125 
L 295.973227 258.190125 
L 310.413369 268.270125 
L 322.921989 256.174125 
L 343.825072 264.238125 
L 360.904136 264.238125 
L 375.344278 258.190125 
L 387.852898 258.190125 
" clip-path="url(#p86cca2acb8)" style="fill: none; stroke: #2ca02c; stroke-width: 3; stroke-linecap: square"/>
   </g>
   <g id="line2d_23">
    <path d="M 63.198352 276.334125 
L 84.101436 276.334125 
L 101.180499 276.334125 
L 115.620641 276.334125 
L 128.129261 276.334125 
L 149.032345 276.334125 
L 166.111408 276.334125 
L 180.55155 276.334125 
L 193.06017 276.334125 
L 213.963254 276.334125 
L 231.042317 276.334125 
L 245.48246 276.334125 
L 257.99108 276.334125 
L 278.894163 276.334125 
L 295.973227 276.334125 
L 310.413369 276.334125 
L 322.921989 276.334125 
L 343.825072 276.334125 
L 360.904136 276.334125 
L 375.344278 276.334125 
L 387.852898 276.334125 
" clip-path="url(#p86cca2acb8)" style="fill: none; stroke: #d62728; stroke-width: 0.75; stroke-linecap: square"/>
   </g>
   <g id="line2d_24">
    <path d="M 63.198352 276.334125 
L 84.101436 276.334125 
L 101.180499 276.334125 
L 115.620641 276.334125 
L 128.129261 276.334125 
L 149.032345 276.334125 
L 166.111408 276.334125 
L 180.55155 276.334125 
L 193.06017 276.334125 
L 213.963254 276.334125 
L 231.042317 276.334125 
L 245.48246 276.334125 
L 257.99108 276.334125 
L 278.894163 276.334125 
L 295.973227 276.334125 
L 310.413369 276.334125 
L 322.921989 276.334125 
L 343.825072 276.334125 
L 360.904136 276.334125 
L 375.344278 276.334125 
L 387.852898 276.334125 
" clip-path="url(#p86cca2acb8)" style="fill: none; stroke: #d62728; stroke-width: 1.2; stroke-linecap: square"/>
   </g>
   <g id="line2d_25">
    <path d="M 63.198352 276.334125 
L 84.101436 276.334125 
L 101.180499 276.334125 
L 115.620641 276.334125 
L 128.129261 276.334125 
L 149.032345 276.334125 
L 166.111408 276.334125 
L 180.55155 276.334125 
L 193.06017 276.334125 
L 213.963254 276.334125 
L 231.042317 276.334125 
L 245.48246 276.334125 
L 257.99108 276.334125 
L 278.894163 276.334125 
L 295.973227 276.334125 
L 310.413369 276.334125 
L 322.921989 276.334125 
L 343.825072 276.334125 
L 360.904136 276.334125 
L 375.344278 276.334125 
L 387.852898 276.334125 
" clip-path="url(#p86cca2acb8)" style="fill: none; stroke: #d62728; stroke-width: 3; stroke-linecap: square"/>
   </g>
   <g id="line2d_26">
    <path d="M 63.198352 268.270125 
L 84.101436 266.254125 
L 101.180499 264.238125 
L 115.620641 272.302125 
L 128.129261 272.302125 
L 149.032345 272.302125 
L 166.111408 268.270125 
L 180.55155 264.238125 
L 193.06017 260.206125 
L 213.963254 252.142125 
L 231.042317 244.078125 
L 245.48246 236.014125 
L 257.99108 227.950125 
L 278.894163 211.822125 
L 295.973227 195.694125 
L 310.413369 179.566125 
L 322.921989 163.438125 
L 343.825072 131.182125 
L 360.904136 98.926125 
L 375.344278 66.670125 
L 387.852898 34.414125 
" clip-path="url(#p86cca2acb8)" style="fill: none; stroke: #9467bd; stroke-width: 0.75; stroke-linecap: square"/>
   </g>
   <g id="line2d_27">
    <path d="M 63.198352 268.270125 
L 84.101436 266.254125 
L 101.180499 264.238125 
L 115.620641 262.222125 
L 128.129261 260.206125 
L 149.032345 256.174125 
L 166.111408 268.270125 
L 180.55155 268.270125 
L 193.06017 268.270125 
L 213.963254 268.270125 
L 231.042317 268.270125 
L 245.48246 268.270125 
L 257.99108 268.270125 
L 278.894163 260.206125 
L 295.973227 244.078125 
L 310.413369 227.950125 
L 322.921989 211.822125 
L 343.825072 179.566125 
L 360.904136 147.310125 
L 375.344278 115.054125 
L 387.852898 82.798125 
" clip-path="url(#p86cca2acb8)" style="fill: none; stroke: #9467bd; stroke-width: 1.2; stroke-linecap: square"/>
   </g>
   <g id="line2d_28">
    <path d="M 63.198352 268.270125 
L 84.101436 266.254125 
L 101.180499 264.238125 
L 115.620641 262.222125 
L 128.129261 260.206125 
L 149.032345 256.174125 
L 166.111408 262.222125 
L 180.55155 262.222125 
L 193.06017 262.222125 
L 213.963254 262.222125 
L 231.042317 262.222125 
L 245.48246 262.222125 
L 257.99108 264.238125 
L 278.894163 264.238125 
L 295.973227 262.222125 
L 310.413369 262.222125 
L 322.921989 258.190125 
L 343.825072 258.190125 
L 360.904136 258.190125 
L 375.344278 258.190125 
L 387.852898 258.190125 
" clip-path="url(#p86cca2acb8)" style="fill: none; stroke: #9467bd; stroke-width: 3; stroke-linecap: square"/>
   </g>
   <g id="line2d_29"/>
   <g id="line2d_30"/>
   <g id="line2d_31"/>
   <g id="line2d_32"/>
   <g id="line2d_33"/>
   <g id="line2d_34"/>
   <g id="line2d_35"/>
   <g id="line2d_36"/>
   <g id="patch_3">
    <path d="M 46.965625 288.430125 
L 46.965625 22.318125 
" style="fill: none; stroke: #000000; stroke-width: 0.8; stroke-linejoin: miter; stroke-linecap: square"/>
   </g>
   <g id="patch_4">
    <path d="M 404.085625 288.430125 
L 404.085625 22.318125 
" style="fill: none; stroke: #000000; stroke-width: 0.8; stroke-linejoin: miter; stroke-linecap: square"/>
   </g>
   <g id="patch_5">
    <path d="M 46.965625 288.430125 
L 404.085625 288.430125 
" style="fill: none; stroke: #000000; stroke-width: 0.8; stroke-linejoin: miter; stroke-linecap: square"/>
   </g>
   <g id="patch_6">
    <path d="M 46.965625 22.318125 
L 404.085625 22.318125 
" style="fill: none; stroke: #000000; stroke-width: 0.8; stroke-linejoin: miter; stroke-linecap: square"/>
   </g>
   <g id="text_16">
    <!-- Optimal parameter k0 or r (sigma=4) -->
    <g transform="translate(113.029375 16.318125) scale(0.12 -0.12)">
     <defs>
      <path id="DejaVuSans-4f" d="M 2522 4238 
Q 1834 4238 1429 3725 
Q 1025 3213 1025 2328 
Q 1025 1447 1429 934 
Q 1834 422 2522 422 
Q 3209 422 3611 934 
Q 4013 1447 4013 2328 
Q 4013 3213 3611 3725 
Q 3209 4238 2522 4238 
z
M 2522 4750 
Q 3503 4750 4090 4092 
Q 4678 3434 4678 2328 
Q 4678 1225 4090 567 
Q 3503 -91 2522 -91 
Q 1538 -91 948 565 
Q 359 1222 359 2328 
Q 359 3434 948 4092 
Q 1538 4750 2522 4750 
z
" transform="scale(0.015625)"/>
      <path id="DejaVuSans-74" d="M 1172 4494 
L 1172 3500 
L 2356 3500 
L 2356 3053 
L 1172 3053 
L 1172 1153 
Q 1172 725 1289 603 
Q 1406 481 1766 481 
L 2356 481 
L 2356 0 
L 1766 0 
Q 1100 0 847 248 
Q 594 497 594 1153 
L 594 3053 
L 172 3053 
L 172 3500 
L 594 3500 
L 594 4494 
L 1172 4494 
z
" transform="scale(0.015625)"/>
      <path id="DejaVuSans-69" d="M 603 3500 
L 1178 3500 
L 1178 0 
L 603 0 
L 603 3500 
z
M 603 4863 
L 1178 4863 
L 1178 4134 
L 603 4134 
L 603 4863 
z
" transform="scale(0.015625)"/>
      <path id="DejaVuSans-6c" d="M 603 4863 
L 1178 4863 
L 1178 0 
L 603 0 
L 603 4863 
z
" transform="scale(0.015625)"/>
      <path id="DejaVuSans-20" transform="scale(0.015625)"/>
      <path id="DejaVuSans-65" d="M 3597 1894 
L 3597 1613 
L 953 1613 
Q 991 1019 1311 708 
Q 1631 397 2203 397 
Q 2534 397 2845 478 
Q 3156 559 3463 722 
L 3463 178 
Q 3153 47 2828 -22 
Q 2503 -91 2169 -91 
Q 1331 -91 842 396 
Q 353 884 353 1716 
Q 353 2575 817 3079 
Q 1281 3584 2069 3584 
Q 2775 3584 3186 3129 
Q 3597 2675 3597 1894 
z
M 3022 2063 
Q 3016 2534 2758 2815 
Q 2500 3097 2075 3097 
Q 1594 3097 1305 2825 
Q 1016 2553 972 2059 
L 3022 2063 
z
" transform="scale(0.015625)"/>
      <path id="DejaVuSans-6f" d="M 1959 3097 
Q 1497 3097 1228 2736 
Q 959 2375 959 1747 
Q 959 1119 1226 758 
Q 1494 397 1959 397 
Q 2419 397 2687 759 
Q 2956 1122 2956 1747 
Q 2956 2369 2687 2733 
Q 2419 3097 1959 3097 
z
M 1959 3584 
Q 2709 3584 3137 3096 
Q 3566 2609 3566 1747 
Q 3566 888 3137 398 
Q 2709 -91 1959 -91 
Q 1206 -91 779 398 
Q 353 888 353 1747 
Q 353 2609 779 3096 
Q 1206 3584 1959 3584 
z
" transform="scale(0.015625)"/>
      <path id="DejaVuSans-28" d="M 1984 4856 
Q 1566 4138 1362 3434 
Q 1159 2731 1159 2009 
Q 1159 1288 1364 580 
Q 1569 -128 1984 -844 
L 1484 -844 
Q 1016 -109 783 600 
Q 550 1309 550 2009 
Q 550 2706 781 3412 
Q 1013 4119 1484 4856 
L 1984 4856 
z
" transform="scale(0.015625)"/>
      <path id="DejaVuSans-73" d="M 2834 3397 
L 2834 2853 
Q 2591 2978 2328 3040 
Q 2066 3103 1784 3103 
Q 1356 3103 1142 2972 
Q 928 2841 928 2578 
Q 928 2378 1081 2264 
Q 1234 2150 1697 2047 
L 1894 2003 
Q 2506 1872 2764 1633 
Q 3022 1394 3022 966 
Q 3022 478 2636 193 
Q 2250 -91 1575 -91 
Q 1294 -91 989 -36 
Q 684 19 347 128 
L 347 722 
Q 666 556 975 473 
Q 1284 391 1588 391 
Q 1994 391 2212 530 
Q 2431 669 2431 922 
Q 2431 1156 2273 1281 
Q 2116 1406 1581 1522 
L 1381 1569 
Q 847 1681 609 1914 
Q 372 2147 372 2553 
Q 372 3047 722 3315 
Q 1072 3584 1716 3584 
Q 2034 3584 2315 3537 
Q 2597 3491 2834 3397 
z
" transform="scale(0.015625)"/>
      <path id="DejaVuSans-67" d="M 2906 1791 
Q 2906 2416 2648 2759 
Q 2391 3103 1925 3103 
Q 1463 3103 1205 2759 
Q 947 2416 947 1791 
Q 947 1169 1205 825 
Q 1463 481 1925 481 
Q 2391 481 2648 825 
Q 2906 1169 2906 1791 
z
M 3481 434 
Q 3481 -459 3084 -895 
Q 2688 -1331 1869 -1331 
Q 1566 -1331 1297 -1286 
Q 1028 -1241 775 -1147 
L 775 -588 
Q 1028 -725 1275 -790 
Q 1522 -856 1778 -856 
Q 2344 -856 2625 -561 
Q 2906 -266 2906 331 
L 2906 616 
Q 2728 306 2450 153 
Q 2172 0 1784 0 
Q 1141 0 747 490 
Q 353 981 353 1791 
Q 353 2603 747 3093 
Q 1141 3584 1784 3584 
Q 2172 3584 2450 3431 
Q 2728 3278 2906 2969 
L 2906 3500 
L 3481 3500 
L 3481 434 
z
" transform="scale(0.015625)"/>
      <path id="DejaVuSans-3d" d="M 678 2906 
L 4684 2906 
L 4684 2381 
L 678 2381 
L 678 2906 
z
M 678 1631 
L 4684 1631 
L 4684 1100 
L 678 1100 
L 678 1631 
z
" transform="scale(0.015625)"/>
      <path id="DejaVuSans-29" d="M 513 4856 
L 1013 4856 
Q 1481 4119 1714 3412 
Q 1947 2706 1947 2009 
Q 1947 1309 1714 600 
Q 1481 -109 1013 -844 
L 513 -844 
Q 928 -128 1133 580 
Q 1338 1288 1338 2009 
Q 1338 2731 1133 3434 
Q 928 4138 513 4856 
z
" transform="scale(0.015625)"/>
     </defs>
     <use xlink:href="#DejaVuSans-4f"/>
     <use xlink:href="#DejaVuSans-70" x="78.710938"/>
     <use xlink:href="#DejaVuSans-74" x="142.1875"/>
     <use xlink:href="#DejaVuSans-69" x="181.396484"/>
     <use xlink:href="#DejaVuSans-6d" x="209.179688"/>
     <use xlink:href="#DejaVuSans-61" x="306.591797"/>
     <use xlink:href="#DejaVuSans-6c" x="367.871094"/>
     <use xlink:href="#DejaVuSans-20" x="395.654297"/>
     <use xlink:href="#DejaVuSans-70" x="427.441406"/>
     <use xlink:href="#DejaVuSans-61" x="490.917969"/>
     <use xlink:href="#DejaVuSans-72" x="552.197266"/>
     <use xlink:href="#DejaVuSans-61" x="593.310547"/>
     <use xlink:href="#DejaVuSans-6d" x="654.589844"/>
     <use xlink:href="#DejaVuSans-65" x="752.001953"/>
     <use xlink:href="#DejaVuSans-74" x="813.525391"/>
     <use xlink:href="#DejaVuSans-65" x="852.734375"/>
     <use xlink:href="#DejaVuSans-72" x="914.257812"/>
     <use xlink:href="#DejaVuSans-20" x="955.371094"/>
     <use xlink:href="#DejaVuSans-6b" x="987.158203"/>
     <use xlink:href="#DejaVuSans-30" x="1045.068359"/>
     <use xlink:href="#DejaVuSans-20" x="1108.691406"/>
     <use xlink:href="#DejaVuSans-6f" x="1140.478516"/>
     <use xlink:href="#DejaVuSans-72" x="1201.660156"/>
     <use xlink:href="#DejaVuSans-20" x="1242.773438"/>
     <use xlink:href="#DejaVuSans-72" x="1274.560547"/>
     <use xlink:href="#DejaVuSans-20" x="1315.673828"/>
     <use xlink:href="#DejaVuSans-28" x="1347.460938"/>
     <use xlink:href="#DejaVuSans-73" x="1386.474609"/>
     <use xlink:href="#DejaVuSans-69" x="1438.574219"/>
     <use xlink:href="#DejaVuSans-67" x="1466.357422"/>
     <use xlink:href="#DejaVuSans-6d" x="1529.833984"/>
     <use xlink:href="#DejaVuSans-61" x="1627.246094"/>
     <use xlink:href="#DejaVuSans-3d" x="1688.525391"/>
     <use xlink:href="#DejaVuSans-34" x="1772.314453"/>
     <use xlink:href="#DejaVuSans-29" x="1835.9375"/>
    </g>
   </g>
   <g id="legend_1">
    <g id="patch_7">
     <path d="M 418.228025 177.3775 
L 542.11865 177.3775 
Q 544.11865 177.3775 544.11865 175.3775 
L 544.11865 29.318125 
Q 544.11865 27.318125 542.11865 27.318125 
L 418.228025 27.318125 
Q 416.228025 27.318125 416.228025 29.318125 
L 416.228025 175.3775 
Q 416.228025 177.3775 418.228025 177.3775 
z
" style="fill: #ffffff; opacity: 0.8; stroke: #cccccc; stroke-linejoin: miter"/>
    </g>
    <g id="text_17">
     <!-- tp.minimizer_type -->
     <g transform="translate(448.228025 38.916562) scale(0.1 -0.1)">
      <defs>
       <path id="DejaVuSans-2e" d="M 684 794 
L 1344 794 
L 1344 0 
L 684 0 
L 684 794 
z
" transform="scale(0.015625)"/>
       <path id="DejaVuSans-6e" d="M 3513 2113 
L 3513 0 
L 2938 0 
L 2938 2094 
Q 2938 2591 2744 2837 
Q 2550 3084 2163 3084 
Q 1697 3084 1428 2787 
Q 1159 2491 1159 1978 
L 1159 0 
L 581 0 
L 581 3500 
L 1159 3500 
L 1159 2956 
Q 1366 3272 1645 3428 
Q 1925 3584 2291 3584 
Q 2894 3584 3203 3211 
Q 3513 2838 3513 2113 
z
" transform="scale(0.015625)"/>
       <path id="DejaVuSans-7a" d="M 353 3500 
L 3084 3500 
L 3084 2975 
L 922 459 
L 3084 459 
L 3084 0 
L 275 0 
L 275 525 
L 2438 3041 
L 353 3041 
L 353 3500 
z
" transform="scale(0.015625)"/>
       <path id="DejaVuSans-5f" d="M 3263 -1063 
L 3263 -1509 
L -63 -1509 
L -63 -1063 
L 3263 -1063 
z
" transform="scale(0.015625)"/>
       <path id="DejaVuSans-79" d="M 2059 -325 
Q 1816 -950 1584 -1140 
Q 1353 -1331 966 -1331 
L 506 -1331 
L 506 -850 
L 844 -850 
Q 1081 -850 1212 -737 
Q 1344 -625 1503 -206 
L 1606 56 
L 191 3500 
L 800 3500 
L 1894 763 
L 2988 3500 
L 3597 3500 
L 2059 -325 
z
" transform="scale(0.015625)"/>
      </defs>
      <use xlink:href="#DejaVuSans-74"/>
      <use xlink:href="#DejaVuSans-70" x="39.208984"/>
      <use xlink:href="#DejaVuSans-2e" x="102.685547"/>
      <use xlink:href="#DejaVuSans-6d" x="134.472656"/>
      <use xlink:href="#DejaVuSans-69" x="231.884766"/>
      <use xlink:href="#DejaVuSans-6e" x="259.667969"/>
      <use xlink:href="#DejaVuSans-69" x="323.046875"/>
      <use xlink:href="#DejaVuSans-6d" x="350.830078"/>
      <use xlink:href="#DejaVuSans-69" x="448.242188"/>
      <use xlink:href="#DejaVuSans-7a" x="476.025391"/>
      <use xlink:href="#DejaVuSans-65" x="528.515625"/>
      <use xlink:href="#DejaVuSans-72" x="590.039062"/>
      <use xlink:href="#DejaVuSans-5f" x="631.152344"/>
      <use xlink:href="#DejaVuSans-74" x="681.152344"/>
      <use xlink:href="#DejaVuSans-79" x="720.361328"/>
      <use xlink:href="#DejaVuSans-70" x="779.541016"/>
      <use xlink:href="#DejaVuSans-65" x="843.017578"/>
     </g>
    </g>
    <g id="line2d_37">
     <path d="M 420.228025 50.372813 
L 430.228025 50.372813 
L 440.228025 50.372813 
" style="fill: none; stroke: #1f77b4; stroke-width: 1.5; stroke-linecap: square"/>
    </g>
    <g id="text_18">
     <!-- Minimizer -->
     <g transform="translate(448.228025 53.872813) scale(0.1 -0.1)">
      <defs>
       <path id="DejaVuSans-4d" d="M 628 4666 
L 1569 4666 
L 2759 1491 
L 3956 4666 
L 4897 4666 
L 4897 0 
L 4281 0 
L 4281 4097 
L 3078 897 
L 2444 897 
L 1241 4097 
L 1241 0 
L 628 0 
L 628 4666 
z
" transform="scale(0.015625)"/>
      </defs>
      <use xlink:href="#DejaVuSans-4d"/>
      <use xlink:href="#DejaVuSans-69" x="86.279297"/>
      <use xlink:href="#DejaVuSans-6e" x="114.0625"/>
      <use xlink:href="#DejaVuSans-69" x="177.441406"/>
      <use xlink:href="#DejaVuSans-6d" x="205.224609"/>
      <use xlink:href="#DejaVuSans-69" x="302.636719"/>
      <use xlink:href="#DejaVuSans-7a" x="330.419922"/>
      <use xlink:href="#DejaVuSans-65" x="382.910156"/>
      <use xlink:href="#DejaVuSans-72" x="444.433594"/>
     </g>
    </g>
    <g id="line2d_38">
     <path d="M 420.228025 65.050938 
L 430.228025 65.050938 
L 440.228025 65.050938 
" style="fill: none; stroke: #ff7f0e; stroke-width: 1.5; stroke-linecap: square"/>
    </g>
    <g id="text_19">
     <!-- BdAnchor -->
     <g transform="translate(448.228025 68.550938) scale(0.1 -0.1)">
      <defs>
       <path id="DejaVuSans-42" d="M 1259 2228 
L 1259 519 
L 2272 519 
Q 2781 519 3026 730 
Q 3272 941 3272 1375 
Q 3272 1813 3026 2020 
Q 2781 2228 2272 2228 
L 1259 2228 
z
M 1259 4147 
L 1259 2741 
L 2194 2741 
Q 2656 2741 2882 2914 
Q 3109 3088 3109 3444 
Q 3109 3797 2882 3972 
Q 2656 4147 2194 4147 
L 1259 4147 
z
M 628 4666 
L 2241 4666 
Q 2963 4666 3353 4366 
Q 3744 4066 3744 3513 
Q 3744 3084 3544 2831 
Q 3344 2578 2956 2516 
Q 3422 2416 3680 2098 
Q 3938 1781 3938 1306 
Q 3938 681 3513 340 
Q 3088 0 2303 0 
L 628 0 
L 628 4666 
z
" transform="scale(0.015625)"/>
       <path id="DejaVuSans-64" d="M 2906 2969 
L 2906 4863 
L 3481 4863 
L 3481 0 
L 2906 0 
L 2906 525 
Q 2725 213 2448 61 
Q 2172 -91 1784 -91 
Q 1150 -91 751 415 
Q 353 922 353 1747 
Q 353 2572 751 3078 
Q 1150 3584 1784 3584 
Q 2172 3584 2448 3432 
Q 2725 3281 2906 2969 
z
M 947 1747 
Q 947 1113 1208 752 
Q 1469 391 1925 391 
Q 2381 391 2643 752 
Q 2906 1113 2906 1747 
Q 2906 2381 2643 2742 
Q 2381 3103 1925 3103 
Q 1469 3103 1208 2742 
Q 947 2381 947 1747 
z
" transform="scale(0.015625)"/>
       <path id="DejaVuSans-41" d="M 2188 4044 
L 1331 1722 
L 3047 1722 
L 2188 4044 
z
M 1831 4666 
L 2547 4666 
L 4325 0 
L 3669 0 
L 3244 1197 
L 1141 1197 
L 716 0 
L 50 0 
L 1831 4666 
z
" transform="scale(0.015625)"/>
       <path id="DejaVuSans-63" d="M 3122 3366 
L 3122 2828 
Q 2878 2963 2633 3030 
Q 2388 3097 2138 3097 
Q 1578 3097 1268 2742 
Q 959 2388 959 1747 
Q 959 1106 1268 751 
Q 1578 397 2138 397 
Q 2388 397 2633 464 
Q 2878 531 3122 666 
L 3122 134 
Q 2881 22 2623 -34 
Q 2366 -91 2075 -91 
Q 1284 -91 818 406 
Q 353 903 353 1747 
Q 353 2603 823 3093 
Q 1294 3584 2113 3584 
Q 2378 3584 2631 3529 
Q 2884 3475 3122 3366 
z
" transform="scale(0.015625)"/>
       <path id="DejaVuSans-68" d="M 3513 2113 
L 3513 0 
L 2938 0 
L 2938 2094 
Q 2938 2591 2744 2837 
Q 2550 3084 2163 3084 
Q 1697 3084 1428 2787 
Q 1159 2491 1159 1978 
L 1159 0 
L 581 0 
L 581 4863 
L 1159 4863 
L 1159 2956 
Q 1366 3272 1645 3428 
Q 1925 3584 2291 3584 
Q 2894 3584 3203 3211 
Q 3513 2838 3513 2113 
z
" transform="scale(0.015625)"/>
      </defs>
      <use xlink:href="#DejaVuSans-42"/>
      <use xlink:href="#DejaVuSans-64" x="68.603516"/>
      <use xlink:href="#DejaVuSans-41" x="132.080078"/>
      <use xlink:href="#DejaVuSans-6e" x="200.488281"/>
      <use xlink:href="#DejaVuSans-63" x="263.867188"/>
      <use xlink:href="#DejaVuSans-68" x="318.847656"/>
      <use xlink:href="#DejaVuSans-6f" x="382.226562"/>
      <use xlink:href="#DejaVuSans-72" x="443.408203"/>
     </g>
    </g>
    <g id="line2d_39">
     <path d="M 420.228025 79.729062 
L 430.228025 79.729062 
L 440.228025 79.729062 
" style="fill: none; stroke: #2ca02c; stroke-width: 1.5; stroke-linecap: square"/>
    </g>
    <g id="text_20">
     <!-- Miniception -->
     <g transform="translate(448.228025 83.229062) scale(0.1 -0.1)">
      <use xlink:href="#DejaVuSans-4d"/>
      <use xlink:href="#DejaVuSans-69" x="86.279297"/>
      <use xlink:href="#DejaVuSans-6e" x="114.0625"/>
      <use xlink:href="#DejaVuSans-69" x="177.441406"/>
      <use xlink:href="#DejaVuSans-63" x="205.224609"/>
      <use xlink:href="#DejaVuSans-65" x="260.205078"/>
      <use xlink:href="#DejaVuSans-70" x="321.728516"/>
      <use xlink:href="#DejaVuSans-74" x="385.205078"/>
      <use xlink:href="#DejaVuSans-69" x="424.414062"/>
      <use xlink:href="#DejaVuSans-6f" x="452.197266"/>
      <use xlink:href="#DejaVuSans-6e" x="513.378906"/>
     </g>
    </g>
    <g id="line2d_40">
     <path d="M 420.228025 94.407188 
L 430.228025 94.407188 
L 440.228025 94.407188 
" style="fill: none; stroke: #d62728; stroke-width: 1.5; stroke-linecap: square"/>
    </g>
    <g id="text_21">
     <!-- BiMinimizerBot -->
     <g transform="translate(448.228025 97.907188) scale(0.1 -0.1)">
      <use xlink:href="#DejaVuSans-42"/>
      <use xlink:href="#DejaVuSans-69" x="68.603516"/>
      <use xlink:href="#DejaVuSans-4d" x="96.386719"/>
      <use xlink:href="#DejaVuSans-69" x="182.666016"/>
      <use xlink:href="#DejaVuSans-6e" x="210.449219"/>
      <use xlink:href="#DejaVuSans-69" x="273.828125"/>
      <use xlink:href="#DejaVuSans-6d" x="301.611328"/>
      <use xlink:href="#DejaVuSans-69" x="399.023438"/>
      <use xlink:href="#DejaVuSans-7a" x="426.806641"/>
      <use xlink:href="#DejaVuSans-65" x="479.296875"/>
      <use xlink:href="#DejaVuSans-72" x="540.820312"/>
      <use xlink:href="#DejaVuSans-42" x="581.933594"/>
      <use xlink:href="#DejaVuSans-6f" x="650.537109"/>
      <use xlink:href="#DejaVuSans-74" x="711.71875"/>
     </g>
    </g>
    <g id="line2d_41">
     <path d="M 420.228025 109.085313 
L 430.228025 109.085313 
L 440.228025 109.085313 
" style="fill: none; stroke: #9467bd; stroke-width: 1.5; stroke-linecap: square"/>
    </g>
    <g id="text_22">
     <!-- ReducedMinimizer -->
     <g transform="translate(448.228025 112.585313) scale(0.1 -0.1)">
      <defs>
       <path id="DejaVuSans-52" d="M 2841 2188 
Q 3044 2119 3236 1894 
Q 3428 1669 3622 1275 
L 4263 0 
L 3584 0 
L 2988 1197 
Q 2756 1666 2539 1819 
Q 2322 1972 1947 1972 
L 1259 1972 
L 1259 0 
L 628 0 
L 628 4666 
L 2053 4666 
Q 2853 4666 3247 4331 
Q 3641 3997 3641 3322 
Q 3641 2881 3436 2590 
Q 3231 2300 2841 2188 
z
M 1259 4147 
L 1259 2491 
L 2053 2491 
Q 2509 2491 2742 2702 
Q 2975 2913 2975 3322 
Q 2975 3731 2742 3939 
Q 2509 4147 2053 4147 
L 1259 4147 
z
" transform="scale(0.015625)"/>
       <path id="DejaVuSans-75" d="M 544 1381 
L 544 3500 
L 1119 3500 
L 1119 1403 
Q 1119 906 1312 657 
Q 1506 409 1894 409 
Q 2359 409 2629 706 
Q 2900 1003 2900 1516 
L 2900 3500 
L 3475 3500 
L 3475 0 
L 2900 0 
L 2900 538 
Q 2691 219 2414 64 
Q 2138 -91 1772 -91 
Q 1169 -91 856 284 
Q 544 659 544 1381 
z
M 1991 3584 
L 1991 3584 
z
" transform="scale(0.015625)"/>
      </defs>
      <use xlink:href="#DejaVuSans-52"/>
      <use xlink:href="#DejaVuSans-65" x="64.982422"/>
      <use xlink:href="#DejaVuSans-64" x="126.505859"/>
      <use xlink:href="#DejaVuSans-75" x="189.982422"/>
      <use xlink:href="#DejaVuSans-63" x="253.361328"/>
      <use xlink:href="#DejaVuSans-65" x="308.341797"/>
      <use xlink:href="#DejaVuSans-64" x="369.865234"/>
      <use xlink:href="#DejaVuSans-4d" x="433.341797"/>
      <use xlink:href="#DejaVuSans-69" x="519.621094"/>
      <use xlink:href="#DejaVuSans-6e" x="547.404297"/>
      <use xlink:href="#DejaVuSans-69" x="610.783203"/>
      <use xlink:href="#DejaVuSans-6d" x="638.566406"/>
      <use xlink:href="#DejaVuSans-69" x="735.978516"/>
      <use xlink:href="#DejaVuSans-7a" x="763.761719"/>
      <use xlink:href="#DejaVuSans-65" x="816.251953"/>
      <use xlink:href="#DejaVuSans-72" x="877.775391"/>
     </g>
    </g>
    <g id="text_23">
     <!-- w -->
     <g transform="translate(448.228025 127.263438) scale(0.1 -0.1)">
      <defs>
       <path id="DejaVuSans-77" d="M 269 3500 
L 844 3500 
L 1563 769 
L 2278 3500 
L 2956 3500 
L 3675 769 
L 4391 3500 
L 4966 3500 
L 4050 0 
L 3372 0 
L 2619 2869 
L 1863 0 
L 1184 0 
L 269 3500 
z
" transform="scale(0.015625)"/>
      </defs>
      <use xlink:href="#DejaVuSans-77"/>
     </g>
    </g>
    <g id="line2d_42">
     <path d="M 420.228025 138.441563 
L 430.228025 138.441563 
L 440.228025 138.441563 
" style="fill: none; stroke: #333333; stroke-width: 0.75; stroke-linecap: square"/>
    </g>
    <g id="text_24">
     <!-- 8 -->
     <g transform="translate(448.228025 141.941563) scale(0.1 -0.1)">
      <use xlink:href="#DejaVuSans-38"/>
     </g>
    </g>
    <g id="line2d_43">
     <path d="M 420.228025 153.119687 
L 430.228025 153.119687 
L 440.228025 153.119687 
" style="fill: none; stroke: #333333; stroke-width: 1.2; stroke-linecap: square"/>
    </g>
    <g id="text_25">
     <!-- 32 -->
     <g transform="translate(448.228025 156.619687) scale(0.1 -0.1)">
      <use xlink:href="#DejaVuSans-33"/>
      <use xlink:href="#DejaVuSans-32" x="63.623047"/>
     </g>
    </g>
    <g id="line2d_44">
     <path d="M 420.228025 167.797812 
L 430.228025 167.797812 
L 440.228025 167.797812 
" style="fill: none; stroke: #333333; stroke-width: 3; stroke-linecap: square"/>
    </g>
    <g id="text_26">
     <!-- 128 -->
     <g transform="translate(448.228025 171.297812) scale(0.1 -0.1)">
      <use xlink:href="#DejaVuSans-31"/>
      <use xlink:href="#DejaVuSans-32" x="63.623047"/>
      <use xlink:href="#DejaVuSans-38" x="127.246094"/>
     </g>
    </g>
   </g>
  </g>
 </g>
 <defs>
  <clipPath id="p86cca2acb8">
   <rect x="46.965625" y="22.318125" width="357.12" height="266.112"/>
  </clipPath>
 </defs>
</svg>
