<?xml version="1.0" encoding="utf-8" standalone="no"?>
<!DOCTYPE svg PUBLIC "-//W3C//DTD SVG 1.1//EN"
  "http://www.w3.org/Graphics/SVG/1.1/DTD/svg11.dtd">
<svg xmlns:xlink="http://www.w3.org/1999/xlink" width="549.33115pt" height="325.986375pt" viewBox="0 0 549.33115 325.986375" xmlns="http://www.w3.org/2000/svg" version="1.1">
 <metadata>
  <rdf:RDF xmlns:dc="http://purl.org/dc/elements/1.1/" xmlns:cc="http://creativecommons.org/ns#" xmlns:rdf="http://www.w3.org/1999/02/22-rdf-syntax-ns#">
   <cc:Work>
    <dc:type rdf:resource="http://purl.org/dc/dcmitype/StillImage"/>
    <dc:date>2024-01-23T11:52:56.233006</dc:date>
    <dc:format>image/svg+xml</dc:format>
    <dc:creator>
     <cc:Agent>
      <dc:title>Matplotlib v3.8.2, https://matplotlib.org/</dc:title>
     </cc:Agent>
    </dc:creator>
   </cc:Work>
  </rdf:RDF>
 </metadata>
 <defs>
  <style type="text/css">*{stroke-linejoin: round; stroke-linecap: butt}</style>
 </defs>
 <g id="figure_1">
  <g id="patch_1">
   <path d="M 0 325.986375 
L 549.33115 325.986375 
L 549.33115 0 
L 0 0 
z
" style="fill: #ffffff"/>
  </g>
  <g id="axes_1">
   <g id="patch_2">
    <path d="M 44.978125 288.430125 
L 402.098125 288.430125 
L 402.098125 22.318125 
L 44.978125 22.318125 
z
" style="fill: #ffffff"/>
   </g>
   <g id="PolyCollection_1"/>
   <g id="PolyCollection_2"/>
   <g id="PolyCollection_3"/>
   <g id="PolyCollection_4"/>
   <g id="PolyCollection_5"/>
   <g id="PolyCollection_6"/>
   <g id="PolyCollection_7"/>
   <g id="PolyCollection_8"/>
   <g id="PolyCollection_9"/>
   <g id="PolyCollection_10"/>
   <g id="PolyCollection_11"/>
   <g id="PolyCollection_12"/>
   <g id="PolyCollection_13"/>
   <g id="PolyCollection_14"/>
   <g id="PolyCollection_15"/>
   <g id="matplotlib.axis_1">
    <g id="xtick_1">
     <g id="line2d_1">
      <defs>
       <path id="m0a9fac48d7" d="M 0 0 
L 0 3.5 
" style="stroke: #000000; stroke-width: 0.8"/>
      </defs>
      <g>
       <use xlink:href="#m0a9fac48d7" x="61.210852" y="288.430125" style="stroke: #000000; stroke-width: 0.8"/>
      </g>
     </g>
     <g id="text_1">
      <!-- $\mathdefault{2^{2}}$ -->
      <g transform="translate(55.610852 303.028562) scale(0.1 -0.1)">
       <defs>
        <path id="DejaVuSans-32" d="M 1228 531 
L 3431 531 
L 3431 0 
L 469 0 
L 469 531 
Q 828 903 1448 1529 
Q 2069 2156 2228 2338 
Q 2531 2678 2651 2914 
Q 2772 3150 2772 3378 
Q 2772 3750 2511 3984 
Q 2250 4219 1831 4219 
Q 1534 4219 1204 4116 
Q 875 4013 500 3803 
L 500 4441 
Q 881 4594 1212 4672 
Q 1544 4750 1819 4750 
Q 2544 4750 2975 4387 
Q 3406 4025 3406 3419 
Q 3406 3131 3298 2873 
Q 3191 2616 2906 2266 
Q 2828 2175 2409 1742 
Q 1991 1309 1228 531 
z
" transform="scale(0.015625)"/>
       </defs>
       <use xlink:href="#DejaVuSans-32" transform="translate(0 0.765625)"/>
       <use xlink:href="#DejaVuSans-32" transform="translate(64.580078 39.046875) scale(0.7)"/>
      </g>
     </g>
    </g>
    <g id="xtick_2">
     <g id="line2d_2">
      <g>
       <use xlink:href="#m0a9fac48d7" x="126.141761" y="288.430125" style="stroke: #000000; stroke-width: 0.8"/>
      </g>
     </g>
     <g id="text_2">
      <!-- $\mathdefault{2^{3}}$ -->
      <g transform="translate(120.541761 303.028562) scale(0.1 -0.1)">
       <defs>
        <path id="DejaVuSans-33" d="M 2597 2516 
Q 3050 2419 3304 2112 
Q 3559 1806 3559 1356 
Q 3559 666 3084 287 
Q 2609 -91 1734 -91 
Q 1441 -91 1130 -33 
Q 819 25 488 141 
L 488 750 
Q 750 597 1062 519 
Q 1375 441 1716 441 
Q 2309 441 2620 675 
Q 2931 909 2931 1356 
Q 2931 1769 2642 2001 
Q 2353 2234 1838 2234 
L 1294 2234 
L 1294 2753 
L 1863 2753 
Q 2328 2753 2575 2939 
Q 2822 3125 2822 3475 
Q 2822 3834 2567 4026 
Q 2313 4219 1838 4219 
Q 1578 4219 1281 4162 
Q 984 4106 628 3988 
L 628 4550 
Q 988 4650 1302 4700 
Q 1616 4750 1894 4750 
Q 2613 4750 3031 4423 
Q 3450 4097 3450 3541 
Q 3450 3153 3228 2886 
Q 3006 2619 2597 2516 
z
" transform="scale(0.015625)"/>
       </defs>
       <use xlink:href="#DejaVuSans-32" transform="translate(0 0.765625)"/>
       <use xlink:href="#DejaVuSans-33" transform="translate(64.580078 39.046875) scale(0.7)"/>
      </g>
     </g>
    </g>
    <g id="xtick_3">
     <g id="line2d_3">
      <g>
       <use xlink:href="#m0a9fac48d7" x="191.07267" y="288.430125" style="stroke: #000000; stroke-width: 0.8"/>
      </g>
     </g>
     <g id="text_3">
      <!-- $\mathdefault{2^{4}}$ -->
      <g transform="translate(185.47267 303.028562) scale(0.1 -0.1)">
       <defs>
        <path id="DejaVuSans-34" d="M 2419 4116 
L 825 1625 
L 2419 1625 
L 2419 4116 
z
M 2253 4666 
L 3047 4666 
L 3047 1625 
L 3713 1625 
L 3713 1100 
L 3047 1100 
L 3047 0 
L 2419 0 
L 2419 1100 
L 313 1100 
L 313 1709 
L 2253 4666 
z
" transform="scale(0.015625)"/>
       </defs>
       <use xlink:href="#DejaVuSans-32" transform="translate(0 0.684375)"/>
       <use xlink:href="#DejaVuSans-34" transform="translate(64.580078 38.965625) scale(0.7)"/>
      </g>
     </g>
    </g>
    <g id="xtick_4">
     <g id="line2d_4">
      <g>
       <use xlink:href="#m0a9fac48d7" x="256.00358" y="288.430125" style="stroke: #000000; stroke-width: 0.8"/>
      </g>
     </g>
     <g id="text_4">
      <!-- $\mathdefault{2^{5}}$ -->
      <g transform="translate(250.40358 303.028562) scale(0.1 -0.1)">
       <defs>
        <path id="DejaVuSans-35" d="M 691 4666 
L 3169 4666 
L 3169 4134 
L 1269 4134 
L 1269 2991 
Q 1406 3038 1543 3061 
Q 1681 3084 1819 3084 
Q 2600 3084 3056 2656 
Q 3513 2228 3513 1497 
Q 3513 744 3044 326 
Q 2575 -91 1722 -91 
Q 1428 -91 1123 -41 
Q 819 9 494 109 
L 494 744 
Q 775 591 1075 516 
Q 1375 441 1709 441 
Q 2250 441 2565 725 
Q 2881 1009 2881 1497 
Q 2881 1984 2565 2268 
Q 2250 2553 1709 2553 
Q 1456 2553 1204 2497 
Q 953 2441 691 2322 
L 691 4666 
z
" transform="scale(0.015625)"/>
       </defs>
       <use xlink:href="#DejaVuSans-32" transform="translate(0 0.684375)"/>
       <use xlink:href="#DejaVuSans-35" transform="translate(64.580078 38.965625) scale(0.7)"/>
      </g>
     </g>
    </g>
    <g id="xtick_5">
     <g id="line2d_5">
      <g>
       <use xlink:href="#m0a9fac48d7" x="320.934489" y="288.430125" style="stroke: #000000; stroke-width: 0.8"/>
      </g>
     </g>
     <g id="text_5">
      <!-- $\mathdefault{2^{6}}$ -->
      <g transform="translate(315.334489 303.028562) scale(0.1 -0.1)">
       <defs>
        <path id="DejaVuSans-36" d="M 2113 2584 
Q 1688 2584 1439 2293 
Q 1191 2003 1191 1497 
Q 1191 994 1439 701 
Q 1688 409 2113 409 
Q 2538 409 2786 701 
Q 3034 994 3034 1497 
Q 3034 2003 2786 2293 
Q 2538 2584 2113 2584 
z
M 3366 4563 
L 3366 3988 
Q 3128 4100 2886 4159 
Q 2644 4219 2406 4219 
Q 1781 4219 1451 3797 
Q 1122 3375 1075 2522 
Q 1259 2794 1537 2939 
Q 1816 3084 2150 3084 
Q 2853 3084 3261 2657 
Q 3669 2231 3669 1497 
Q 3669 778 3244 343 
Q 2819 -91 2113 -91 
Q 1303 -91 875 529 
Q 447 1150 447 2328 
Q 447 3434 972 4092 
Q 1497 4750 2381 4750 
Q 2619 4750 2861 4703 
Q 3103 4656 3366 4563 
z
" transform="scale(0.015625)"/>
       </defs>
       <use xlink:href="#DejaVuSans-32" transform="translate(0 0.765625)"/>
       <use xlink:href="#DejaVuSans-36" transform="translate(64.580078 39.046875) scale(0.7)"/>
      </g>
     </g>
    </g>
    <g id="xtick_6">
     <g id="line2d_6">
      <g>
       <use xlink:href="#m0a9fac48d7" x="385.865398" y="288.430125" style="stroke: #000000; stroke-width: 0.8"/>
      </g>
     </g>
     <g id="text_6">
      <!-- $\mathdefault{2^{7}}$ -->
      <g transform="translate(380.265398 303.028562) scale(0.1 -0.1)">
       <defs>
        <path id="DejaVuSans-37" d="M 525 4666 
L 3525 4666 
L 3525 4397 
L 1831 0 
L 1172 0 
L 2766 4134 
L 525 4134 
L 525 4666 
z
" transform="scale(0.015625)"/>
       </defs>
       <use xlink:href="#DejaVuSans-32" transform="translate(0 0.684375)"/>
       <use xlink:href="#DejaVuSans-37" transform="translate(64.580078 38.965625) scale(0.7)"/>
      </g>
     </g>
    </g>
    <g id="text_7">
     <!-- k -->
     <g transform="translate(220.642813 316.706687) scale(0.1 -0.1)">
      <defs>
       <path id="DejaVuSans-6b" d="M 581 4863 
L 1159 4863 
L 1159 1991 
L 2875 3500 
L 3609 3500 
L 1753 1863 
L 3688 0 
L 2938 0 
L 1159 1709 
L 1159 0 
L 581 0 
L 581 4863 
z
" transform="scale(0.015625)"/>
      </defs>
      <use xlink:href="#DejaVuSans-6b"/>
     </g>
    </g>
   </g>
   <g id="matplotlib.axis_2">
    <g id="ytick_1">
     <g id="line2d_7">
      <defs>
       <path id="m61014f65ff" d="M 0 0 
L -3.5 0 
" style="stroke: #000000; stroke-width: 0.8"/>
      </defs>
      <g>
       <use xlink:href="#m61014f65ff" x="44.978125" y="236.420037" style="stroke: #000000; stroke-width: 0.8"/>
      </g>
     </g>
     <g id="text_8">
      <!-- $\mathdefault{2^{-6}}$ -->
      <g transform="translate(20.878125 240.219256) scale(0.1 -0.1)">
       <defs>
        <path id="DejaVuSans-2212" d="M 678 2272 
L 4684 2272 
L 4684 1741 
L 678 1741 
L 678 2272 
z
" transform="scale(0.015625)"/>
       </defs>
       <use xlink:href="#DejaVuSans-32" transform="translate(0 0.765625)"/>
       <use xlink:href="#DejaVuSans-2212" transform="translate(64.580078 39.046875) scale(0.7)"/>
       <use xlink:href="#DejaVuSans-36" transform="translate(123.232422 39.046875) scale(0.7)"/>
      </g>
     </g>
    </g>
    <g id="ytick_2">
     <g id="line2d_8">
      <g>
       <use xlink:href="#m61014f65ff" x="44.978125" y="183.826348" style="stroke: #000000; stroke-width: 0.8"/>
      </g>
     </g>
     <g id="text_9">
      <!-- $\mathdefault{2^{-5}}$ -->
      <g transform="translate(20.878125 187.625566) scale(0.1 -0.1)">
       <use xlink:href="#DejaVuSans-32" transform="translate(0 0.684375)"/>
       <use xlink:href="#DejaVuSans-2212" transform="translate(64.580078 38.965625) scale(0.7)"/>
       <use xlink:href="#DejaVuSans-35" transform="translate(123.232422 38.965625) scale(0.7)"/>
      </g>
     </g>
    </g>
    <g id="ytick_3">
     <g id="line2d_9">
      <g>
       <use xlink:href="#m61014f65ff" x="44.978125" y="131.232658" style="stroke: #000000; stroke-width: 0.8"/>
      </g>
     </g>
     <g id="text_10">
      <!-- $\mathdefault{2^{-4}}$ -->
      <g transform="translate(20.878125 135.031877) scale(0.1 -0.1)">
       <use xlink:href="#DejaVuSans-32" transform="translate(0 0.684375)"/>
       <use xlink:href="#DejaVuSans-2212" transform="translate(64.580078 38.965625) scale(0.7)"/>
       <use xlink:href="#DejaVuSans-34" transform="translate(123.232422 38.965625) scale(0.7)"/>
      </g>
     </g>
    </g>
    <g id="ytick_4">
     <g id="line2d_10">
      <g>
       <use xlink:href="#m61014f65ff" x="44.978125" y="78.638969" style="stroke: #000000; stroke-width: 0.8"/>
      </g>
     </g>
     <g id="text_11">
      <!-- $\mathdefault{2^{-3}}$ -->
      <g transform="translate(20.878125 82.438188) scale(0.1 -0.1)">
       <use xlink:href="#DejaVuSans-32" transform="translate(0 0.765625)"/>
       <use xlink:href="#DejaVuSans-2212" transform="translate(64.580078 39.046875) scale(0.7)"/>
       <use xlink:href="#DejaVuSans-33" transform="translate(123.232422 39.046875) scale(0.7)"/>
      </g>
     </g>
    </g>
    <g id="ytick_5">
     <g id="line2d_11">
      <g>
       <use xlink:href="#m61014f65ff" x="44.978125" y="26.04528" style="stroke: #000000; stroke-width: 0.8"/>
      </g>
     </g>
     <g id="text_12">
      <!-- $\mathdefault{2^{-2}}$ -->
      <g transform="translate(20.878125 29.844499) scale(0.1 -0.1)">
       <use xlink:href="#DejaVuSans-32" transform="translate(0 0.765625)"/>
       <use xlink:href="#DejaVuSans-2212" transform="translate(64.580078 39.046875) scale(0.7)"/>
       <use xlink:href="#DejaVuSans-32" transform="translate(123.232422 39.046875) scale(0.7)"/>
      </g>
     </g>
    </g>
    <g id="text_13">
     <!-- density -->
     <g transform="translate(14.798438 173.706937) rotate(-90) scale(0.1 -0.1)">
      <defs>
       <path id="DejaVuSans-64" d="M 2906 2969 
L 2906 4863 
L 3481 4863 
L 3481 0 
L 2906 0 
L 2906 525 
Q 2725 213 2448 61 
Q 2172 -91 1784 -91 
Q 1150 -91 751 415 
Q 353 922 353 1747 
Q 353 2572 751 3078 
Q 1150 3584 1784 3584 
Q 2172 3584 2448 3432 
Q 2725 3281 2906 2969 
z
M 947 1747 
Q 947 1113 1208 752 
Q 1469 391 1925 391 
Q 2381 391 2643 752 
Q 2906 1113 2906 1747 
Q 2906 2381 2643 2742 
Q 2381 3103 1925 3103 
Q 1469 3103 1208 2742 
Q 947 2381 947 1747 
z
" transform="scale(0.015625)"/>
       <path id="DejaVuSans-65" d="M 3597 1894 
L 3597 1613 
L 953 1613 
Q 991 1019 1311 708 
Q 1631 397 2203 397 
Q 2534 397 2845 478 
Q 3156 559 3463 722 
L 3463 178 
Q 3153 47 2828 -22 
Q 2503 -91 2169 -91 
Q 1331 -91 842 396 
Q 353 884 353 1716 
Q 353 2575 817 3079 
Q 1281 3584 2069 3584 
Q 2775 3584 3186 3129 
Q 3597 2675 3597 1894 
z
M 3022 2063 
Q 3016 2534 2758 2815 
Q 2500 3097 2075 3097 
Q 1594 3097 1305 2825 
Q 1016 2553 972 2059 
L 3022 2063 
z
" transform="scale(0.015625)"/>
       <path id="DejaVuSans-6e" d="M 3513 2113 
L 3513 0 
L 2938 0 
L 2938 2094 
Q 2938 2591 2744 2837 
Q 2550 3084 2163 3084 
Q 1697 3084 1428 2787 
Q 1159 2491 1159 1978 
L 1159 0 
L 581 0 
L 581 3500 
L 1159 3500 
L 1159 2956 
Q 1366 3272 1645 3428 
Q 1925 3584 2291 3584 
Q 2894 3584 3203 3211 
Q 3513 2838 3513 2113 
z
" transform="scale(0.015625)"/>
       <path id="DejaVuSans-73" d="M 2834 3397 
L 2834 2853 
Q 2591 2978 2328 3040 
Q 2066 3103 1784 3103 
Q 1356 3103 1142 2972 
Q 928 2841 928 2578 
Q 928 2378 1081 2264 
Q 1234 2150 1697 2047 
L 1894 2003 
Q 2506 1872 2764 1633 
Q 3022 1394 3022 966 
Q 3022 478 2636 193 
Q 2250 -91 1575 -91 
Q 1294 -91 989 -36 
Q 684 19 347 128 
L 347 722 
Q 666 556 975 473 
Q 1284 391 1588 391 
Q 1994 391 2212 530 
Q 2431 669 2431 922 
Q 2431 1156 2273 1281 
Q 2116 1406 1581 1522 
L 1381 1569 
Q 847 1681 609 1914 
Q 372 2147 372 2553 
Q 372 3047 722 3315 
Q 1072 3584 1716 3584 
Q 2034 3584 2315 3537 
Q 2597 3491 2834 3397 
z
" transform="scale(0.015625)"/>
       <path id="DejaVuSans-69" d="M 603 3500 
L 1178 3500 
L 1178 0 
L 603 0 
L 603 3500 
z
M 603 4863 
L 1178 4863 
L 1178 4134 
L 603 4134 
L 603 4863 
z
" transform="scale(0.015625)"/>
       <path id="DejaVuSans-74" d="M 1172 4494 
L 1172 3500 
L 2356 3500 
L 2356 3053 
L 1172 3053 
L 1172 1153 
Q 1172 725 1289 603 
Q 1406 481 1766 481 
L 2356 481 
L 2356 0 
L 1766 0 
Q 1100 0 847 248 
Q 594 497 594 1153 
L 594 3053 
L 172 3053 
L 172 3500 
L 594 3500 
L 594 4494 
L 1172 4494 
z
" transform="scale(0.015625)"/>
       <path id="DejaVuSans-79" d="M 2059 -325 
Q 1816 -950 1584 -1140 
Q 1353 -1331 966 -1331 
L 506 -1331 
L 506 -850 
L 844 -850 
Q 1081 -850 1212 -737 
Q 1344 -625 1503 -206 
L 1606 56 
L 191 3500 
L 800 3500 
L 1894 763 
L 2988 3500 
L 3597 3500 
L 2059 -325 
z
" transform="scale(0.015625)"/>
      </defs>
      <use xlink:href="#DejaVuSans-64"/>
      <use xlink:href="#DejaVuSans-65" x="63.476562"/>
      <use xlink:href="#DejaVuSans-6e" x="125"/>
      <use xlink:href="#DejaVuSans-73" x="188.378906"/>
      <use xlink:href="#DejaVuSans-69" x="240.478516"/>
      <use xlink:href="#DejaVuSans-74" x="268.261719"/>
      <use xlink:href="#DejaVuSans-79" x="307.470703"/>
     </g>
    </g>
   </g>
   <g id="line2d_12">
    <path d="M 61.210852 34.414125 
L 82.113936 34.579625 
L 99.192999 34.72847 
L 113.633141 35.370274 
L 126.141761 35.198089 
L 147.044845 34.871925 
L 164.123908 35.020597 
L 178.56405 34.902997 
L 191.07267 35.007312 
L 211.975754 34.963291 
L 229.054817 35.01149 
L 243.49496 35.090501 
L 256.00358 35.097727 
L 276.906663 35.084813 
L 293.985727 35.030866 
L 308.425869 34.888176 
L 320.934489 35.042651 
L 341.837572 34.832425 
L 358.916636 35.03887 
L 373.356778 34.941252 
L 385.865398 35.01114 
" clip-path="url(#p093c85a09c)" style="fill: none; stroke: #1f77b4; stroke-width: 0.75; stroke-linecap: square"/>
   </g>
   <g id="line2d_13">
    <path d="M 61.210852 132.393696 
L 82.113936 132.504003 
L 99.192999 134.163794 
L 113.633141 134.83502 
L 126.141761 133.296253 
L 147.044845 132.735216 
L 164.123908 133.044032 
L 178.56405 132.695024 
L 191.07267 134.181454 
L 211.975754 132.901255 
L 229.054817 133.284107 
L 243.49496 133.556122 
L 256.00358 133.07862 
L 276.906663 133.684911 
L 293.985727 133.653745 
L 308.425869 133.949317 
L 320.934489 134.461345 
L 341.837572 132.88053 
L 358.916636 133.117192 
L 373.356778 133.017857 
L 385.865398 132.225564 
" clip-path="url(#p093c85a09c)" style="fill: none; stroke: #1f77b4; stroke-width: 1.2; stroke-linecap: square"/>
   </g>
   <g id="line2d_14">
    <path d="M 61.210852 233.954851 
L 82.113936 235.475478 
L 99.192999 236.247007 
L 113.633141 237.173667 
L 126.141761 235.185606 
L 147.044845 236.341059 
L 164.123908 236.973678 
L 178.56405 237.908614 
L 191.07267 235.611327 
L 211.975754 236.382053 
L 229.054817 235.749729 
L 243.49496 236.570654 
L 256.00358 236.22725 
L 276.906663 238.486313 
L 293.985727 237.093415 
L 308.425869 235.388713 
L 320.934489 236.592039 
L 341.837572 235.851919 
L 358.916636 235.839753 
L 373.356778 237.339802 
L 385.865398 237.376919 
" clip-path="url(#p093c85a09c)" style="fill: none; stroke: #1f77b4; stroke-width: 3; stroke-linecap: square"/>
   </g>
   <g id="line2d_15">
    <path d="M 61.210852 46.885007 
L 82.113936 51.432077 
L 99.192999 56.273731 
L 113.633141 61.557022 
L 126.141761 66.152015 
L 147.044845 74.913232 
L 164.123908 82.722017 
L 178.56405 89.680512 
L 191.07267 96.277935 
L 211.975754 108.051814 
L 229.054817 117.20415 
L 243.49496 126.146929 
L 256.00358 134.162276 
L 276.906663 147.826232 
L 293.985727 159.761348 
L 308.425869 169.925109 
L 320.934489 178.997748 
L 341.837572 194.265037 
L 358.916636 207.5367 
L 373.356778 218.977754 
L 385.865398 228.154117 
" clip-path="url(#p093c85a09c)" style="fill: none; stroke: #ff7f0e; stroke-width: 0.75; stroke-linecap: square"/>
   </g>
   <g id="line2d_16">
    <path d="M 61.210852 126.146929 
L 82.113936 128.300233 
L 99.192999 130.660983 
L 113.633141 132.428422 
L 126.141761 134.162276 
L 147.044845 137.727217 
L 164.123908 141.024616 
L 178.56405 144.443071 
L 191.07267 147.826232 
L 211.975754 153.404416 
L 229.054817 159.761348 
L 243.49496 165.16531 
L 256.00358 169.925109 
L 276.906663 178.997748 
L 293.985727 186.712975 
L 308.425869 194.265037 
L 320.934489 200.838281 
L 341.837572 213.363526 
L 358.916636 223.878947 
L 373.356778 233.196328 
L 385.865398 242.442256 
" clip-path="url(#p093c85a09c)" style="fill: none; stroke: #ff7f0e; stroke-width: 1.2; stroke-linecap: square"/>
   </g>
   <g id="line2d_17">
    <path d="M 61.210852 226.007532 
L 82.113936 226.602554 
L 99.192999 227.073212 
L 113.633141 227.763423 
L 126.141761 228.154117 
L 147.044845 229.427865 
L 164.123908 230.408292 
L 178.56405 231.310615 
L 191.07267 233.196328 
L 211.975754 235.368096 
L 229.054817 237.209877 
L 243.49496 240.367776 
L 256.00358 242.442256 
L 276.906663 245.553361 
L 293.985727 248.455216 
L 308.425869 251.770179 
L 320.934489 255.112588 
L 341.837572 260.384294 
L 358.916636 266.051681 
L 373.356778 271.867553 
L 385.865398 276.334125 
" clip-path="url(#p093c85a09c)" style="fill: none; stroke: #ff7f0e; stroke-width: 3; stroke-linecap: square"/>
   </g>
   <g id="line2d_18">
    <path d="M 61.210852 36.294582 
L 82.113936 37.731854 
L 99.192999 39.424672 
L 113.633141 40.569436 
L 126.141761 42.237343 
L 147.044845 47.841261 
L 164.123908 46.159306 
L 178.56405 45.822181 
L 191.07267 46.433771 
L 211.975754 46.462514 
L 229.054817 46.173944 
L 243.49496 46.400838 
L 256.00358 46.251042 
L 276.906663 46.205353 
L 293.985727 46.12011 
L 308.425869 46.224898 
L 320.934489 46.111919 
L 341.837572 46.544213 
L 358.916636 46.166792 
L 373.356778 46.031953 
L 385.865398 45.905207 
" clip-path="url(#p093c85a09c)" style="fill: none; stroke: #2ca02c; stroke-width: 0.75; stroke-linecap: square"/>
   </g>
   <g id="line2d_19">
    <path d="M 61.210852 134.190563 
L 82.113936 134.823803 
L 99.192999 134.886737 
L 113.633141 135.538712 
L 126.141761 136.521193 
L 147.044845 136.63696 
L 164.123908 138.030611 
L 178.56405 137.975977 
L 191.07267 138.360397 
L 211.975754 138.987046 
L 229.054817 140.108931 
L 243.49496 142.29453 
L 256.00358 144.733579 
L 276.906663 146.846774 
L 293.985727 147.530355 
L 308.425869 146.417882 
L 320.934489 146.709246 
L 341.837572 146.861183 
L 358.916636 147.659748 
L 373.356778 146.896629 
L 385.865398 146.229716 
" clip-path="url(#p093c85a09c)" style="fill: none; stroke: #2ca02c; stroke-width: 1.2; stroke-linecap: square"/>
   </g>
   <g id="line2d_20">
    <path d="M 61.210852 236.200027 
L 82.113936 237.371886 
L 99.192999 238.812652 
L 113.633141 238.411487 
L 126.141761 238.460662 
L 147.044845 240.381454 
L 164.123908 239.463292 
L 178.56405 238.156983 
L 191.07267 240.325679 
L 211.975754 240.11812 
L 229.054817 240.422067 
L 243.49496 240.265379 
L 256.00358 240.415987 
L 276.906663 241.442259 
L 293.985727 242.272293 
L 308.425869 242.266212 
L 320.934489 242.840351 
L 341.837572 244.002111 
L 358.916636 245.073141 
L 373.356778 248.349569 
L 385.865398 250.357817 
" clip-path="url(#p093c85a09c)" style="fill: none; stroke: #2ca02c; stroke-width: 3; stroke-linecap: square"/>
   </g>
   <g id="line2d_21">
    <path d="M 61.210852 49.345297 
L 82.113936 49.40233 
L 99.192999 48.956883 
L 113.633141 49.619995 
L 126.141761 49.710404 
L 147.044845 49.315989 
L 164.123908 49.405277 
L 178.56405 49.515352 
L 191.07267 49.497291 
L 211.975754 49.320776 
L 229.054817 49.449879 
L 243.49496 49.335336 
L 256.00358 49.398358 
L 276.906663 49.528713 
L 293.985727 49.373822 
L 308.425869 49.49588 
L 320.934489 49.31626 
L 341.837572 49.440434 
L 358.916636 49.56071 
L 373.356778 49.267424 
L 385.865398 49.12745 
" clip-path="url(#p093c85a09c)" style="fill: none; stroke: #d62728; stroke-width: 0.75; stroke-linecap: square"/>
   </g>
   <g id="line2d_22">
    <path d="M 61.210852 146.88903 
L 82.113936 147.142464 
L 99.192999 147.682825 
L 113.633141 147.036175 
L 126.141761 147.892788 
L 147.044845 147.243585 
L 164.123908 147.137151 
L 178.56405 146.896368 
L 191.07267 148.02298 
L 211.975754 147.235994 
L 229.054817 147.202966 
L 243.49496 147.334981 
L 256.00358 147.783862 
L 276.906663 147.416039 
L 293.985727 147.590623 
L 308.425869 148.220262 
L 320.934489 148.03201 
L 341.837572 147.145449 
L 358.916636 147.795714 
L 373.356778 148.238546 
L 385.865398 147.590165 
" clip-path="url(#p093c85a09c)" style="fill: none; stroke: #d62728; stroke-width: 1.2; stroke-linecap: square"/>
   </g>
   <g id="line2d_23">
    <path d="M 61.210852 248.946087 
L 82.113936 250.744399 
L 99.192999 250.450565 
L 113.633141 251.096068 
L 126.141761 251.213405 
L 147.044845 250.623235 
L 164.123908 251.151294 
L 178.56405 252.700767 
L 191.07267 250.560061 
L 211.975754 251.500333 
L 229.054817 251.260364 
L 243.49496 250.668217 
L 256.00358 249.848036 
L 276.906663 251.366577 
L 293.985727 250.360169 
L 308.425869 249.309099 
L 320.934489 250.99377 
L 341.837572 250.863784 
L 358.916636 252.157821 
L 373.356778 249.613252 
L 385.865398 252.013803 
" clip-path="url(#p093c85a09c)" style="fill: none; stroke: #d62728; stroke-width: 3; stroke-linecap: square"/>
   </g>
   <g id="line2d_24">
    <path d="M 61.210852 34.414125 
L 82.113936 34.579625 
L 99.192999 34.72847 
L 113.633141 35.952579 
L 126.141761 41.869992 
L 147.044845 52.435945 
L 164.123908 51.660409 
L 178.56405 52.218301 
L 191.07267 52.607824 
L 211.975754 52.656504 
L 229.054817 52.48982 
L 243.49496 52.486784 
L 256.00358 52.492352 
L 276.906663 52.301503 
L 293.985727 52.445795 
L 308.425869 52.302233 
L 320.934489 52.502486 
L 341.837572 52.236805 
L 358.916636 53.013807 
L 373.356778 52.101042 
L 385.865398 52.329152 
" clip-path="url(#p093c85a09c)" style="fill: none; stroke: #9467bd; stroke-width: 0.75; stroke-linecap: square"/>
   </g>
   <g id="line2d_25">
    <path d="M 61.210852 132.393696 
L 82.113936 132.504003 
L 99.192999 134.163794 
L 113.633141 134.83502 
L 126.141761 133.296253 
L 147.044845 132.735216 
L 164.123908 117.701428 
L 178.56405 121.577434 
L 191.07267 125.257099 
L 211.975754 131.742999 
L 229.054817 137.756291 
L 243.49496 143.541457 
L 256.00358 148.314523 
L 276.906663 154.042781 
L 293.985727 154.530589 
L 308.425869 154.112722 
L 320.934489 153.76246 
L 341.837572 154.308347 
L 358.916636 153.967437 
L 373.356778 154.267564 
L 385.865398 154.56898 
" clip-path="url(#p093c85a09c)" style="fill: none; stroke: #9467bd; stroke-width: 1.2; stroke-linecap: square"/>
   </g>
   <g id="line2d_26">
    <path d="M 61.210852 233.954851 
L 82.113936 235.475478 
L 99.192999 236.247007 
L 113.633141 237.173667 
L 126.141761 235.185606 
L 147.044845 236.341059 
L 164.123908 209.32483 
L 178.56405 210.55822 
L 191.07267 211.671529 
L 211.975754 213.767907 
L 229.054817 215.775689 
L 243.49496 217.800152 
L 256.00358 219.645975 
L 276.906663 223.807348 
L 293.985727 226.698155 
L 308.425869 230.509745 
L 320.934489 234.192198 
L 341.837572 240.842321 
L 358.916636 246.33824 
L 373.356778 251.489741 
L 385.865398 256.954631 
" clip-path="url(#p093c85a09c)" style="fill: none; stroke: #9467bd; stroke-width: 3; stroke-linecap: square"/>
   </g>
   <g id="line2d_27"/>
   <g id="line2d_28"/>
   <g id="line2d_29"/>
   <g id="line2d_30"/>
   <g id="line2d_31"/>
   <g id="line2d_32"/>
   <g id="line2d_33"/>
   <g id="line2d_34"/>
   <g id="patch_3">
    <path d="M 44.978125 288.430125 
L 44.978125 22.318125 
" style="fill: none; stroke: #000000; stroke-width: 0.8; stroke-linejoin: miter; stroke-linecap: square"/>
   </g>
   <g id="patch_4">
    <path d="M 402.098125 288.430125 
L 402.098125 22.318125 
" style="fill: none; stroke: #000000; stroke-width: 0.8; stroke-linejoin: miter; stroke-linecap: square"/>
   </g>
   <g id="patch_5">
    <path d="M 44.978125 288.430125 
L 402.098125 288.430125 
" style="fill: none; stroke: #000000; stroke-width: 0.8; stroke-linejoin: miter; stroke-linecap: square"/>
   </g>
   <g id="patch_6">
    <path d="M 44.978125 22.318125 
L 402.098125 22.318125 
" style="fill: none; stroke: #000000; stroke-width: 0.8; stroke-linejoin: miter; stroke-linecap: square"/>
   </g>
   <g id="text_14">
    <!-- Density (sigma=4) -->
    <g transform="translate(167.170938 16.318125) scale(0.12 -0.12)">
     <defs>
      <path id="DejaVuSans-44" d="M 1259 4147 
L 1259 519 
L 2022 519 
Q 2988 519 3436 956 
Q 3884 1394 3884 2338 
Q 3884 3275 3436 3711 
Q 2988 4147 2022 4147 
L 1259 4147 
z
M 628 4666 
L 1925 4666 
Q 3281 4666 3915 4102 
Q 4550 3538 4550 2338 
Q 4550 1131 3912 565 
Q 3275 0 1925 0 
L 628 0 
L 628 4666 
z
" transform="scale(0.015625)"/>
      <path id="DejaVuSans-20" transform="scale(0.015625)"/>
      <path id="DejaVuSans-28" d="M 1984 4856 
Q 1566 4138 1362 3434 
Q 1159 2731 1159 2009 
Q 1159 1288 1364 580 
Q 1569 -128 1984 -844 
L 1484 -844 
Q 1016 -109 783 600 
Q 550 1309 550 2009 
Q 550 2706 781 3412 
Q 1013 4119 1484 4856 
L 1984 4856 
z
" transform="scale(0.015625)"/>
      <path id="DejaVuSans-67" d="M 2906 1791 
Q 2906 2416 2648 2759 
Q 2391 3103 1925 3103 
Q 1463 3103 1205 2759 
Q 947 2416 947 1791 
Q 947 1169 1205 825 
Q 1463 481 1925 481 
Q 2391 481 2648 825 
Q 2906 1169 2906 1791 
z
M 3481 434 
Q 3481 -459 3084 -895 
Q 2688 -1331 1869 -1331 
Q 1566 -1331 1297 -1286 
Q 1028 -1241 775 -1147 
L 775 -588 
Q 1028 -725 1275 -790 
Q 1522 -856 1778 -856 
Q 2344 -856 2625 -561 
Q 2906 -266 2906 331 
L 2906 616 
Q 2728 306 2450 153 
Q 2172 0 1784 0 
Q 1141 0 747 490 
Q 353 981 353 1791 
Q 353 2603 747 3093 
Q 1141 3584 1784 3584 
Q 2172 3584 2450 3431 
Q 2728 3278 2906 2969 
L 2906 3500 
L 3481 3500 
L 3481 434 
z
" transform="scale(0.015625)"/>
      <path id="DejaVuSans-6d" d="M 3328 2828 
Q 3544 3216 3844 3400 
Q 4144 3584 4550 3584 
Q 5097 3584 5394 3201 
Q 5691 2819 5691 2113 
L 5691 0 
L 5113 0 
L 5113 2094 
Q 5113 2597 4934 2840 
Q 4756 3084 4391 3084 
Q 3944 3084 3684 2787 
Q 3425 2491 3425 1978 
L 3425 0 
L 2847 0 
L 2847 2094 
Q 2847 2600 2669 2842 
Q 2491 3084 2119 3084 
Q 1678 3084 1418 2786 
Q 1159 2488 1159 1978 
L 1159 0 
L 581 0 
L 581 3500 
L 1159 3500 
L 1159 2956 
Q 1356 3278 1631 3431 
Q 1906 3584 2284 3584 
Q 2666 3584 2933 3390 
Q 3200 3197 3328 2828 
z
" transform="scale(0.015625)"/>
      <path id="DejaVuSans-61" d="M 2194 1759 
Q 1497 1759 1228 1600 
Q 959 1441 959 1056 
Q 959 750 1161 570 
Q 1363 391 1709 391 
Q 2188 391 2477 730 
Q 2766 1069 2766 1631 
L 2766 1759 
L 2194 1759 
z
M 3341 1997 
L 3341 0 
L 2766 0 
L 2766 531 
Q 2569 213 2275 61 
Q 1981 -91 1556 -91 
Q 1019 -91 701 211 
Q 384 513 384 1019 
Q 384 1609 779 1909 
Q 1175 2209 1959 2209 
L 2766 2209 
L 2766 2266 
Q 2766 2663 2505 2880 
Q 2244 3097 1772 3097 
Q 1472 3097 1187 3025 
Q 903 2953 641 2809 
L 641 3341 
Q 956 3463 1253 3523 
Q 1550 3584 1831 3584 
Q 2591 3584 2966 3190 
Q 3341 2797 3341 1997 
z
" transform="scale(0.015625)"/>
      <path id="DejaVuSans-3d" d="M 678 2906 
L 4684 2906 
L 4684 2381 
L 678 2381 
L 678 2906 
z
M 678 1631 
L 4684 1631 
L 4684 1100 
L 678 1100 
L 678 1631 
z
" transform="scale(0.015625)"/>
      <path id="DejaVuSans-29" d="M 513 4856 
L 1013 4856 
Q 1481 4119 1714 3412 
Q 1947 2706 1947 2009 
Q 1947 1309 1714 600 
Q 1481 -109 1013 -844 
L 513 -844 
Q 928 -128 1133 580 
Q 1338 1288 1338 2009 
Q 1338 2731 1133 3434 
Q 928 4138 513 4856 
z
" transform="scale(0.015625)"/>
     </defs>
     <use xlink:href="#DejaVuSans-44"/>
     <use xlink:href="#DejaVuSans-65" x="77.001953"/>
     <use xlink:href="#DejaVuSans-6e" x="138.525391"/>
     <use xlink:href="#DejaVuSans-73" x="201.904297"/>
     <use xlink:href="#DejaVuSans-69" x="254.003906"/>
     <use xlink:href="#DejaVuSans-74" x="281.787109"/>
     <use xlink:href="#DejaVuSans-79" x="320.996094"/>
     <use xlink:href="#DejaVuSans-20" x="380.175781"/>
     <use xlink:href="#DejaVuSans-28" x="411.962891"/>
     <use xlink:href="#DejaVuSans-73" x="450.976562"/>
     <use xlink:href="#DejaVuSans-69" x="503.076172"/>
     <use xlink:href="#DejaVuSans-67" x="530.859375"/>
     <use xlink:href="#DejaVuSans-6d" x="594.335938"/>
     <use xlink:href="#DejaVuSans-61" x="691.748047"/>
     <use xlink:href="#DejaVuSans-3d" x="753.027344"/>
     <use xlink:href="#DejaVuSans-34" x="836.816406"/>
     <use xlink:href="#DejaVuSans-29" x="900.439453"/>
    </g>
   </g>
   <g id="legend_1">
    <g id="patch_7">
     <path d="M 416.240525 177.3775 
L 540.13115 177.3775 
Q 542.13115 177.3775 542.13115 175.3775 
L 542.13115 29.318125 
Q 542.13115 27.318125 540.13115 27.318125 
L 416.240525 27.318125 
Q 414.240525 27.318125 414.240525 29.318125 
L 414.240525 175.3775 
Q 414.240525 177.3775 416.240525 177.3775 
z
" style="fill: #ffffff; opacity: 0.8; stroke: #cccccc; stroke-linejoin: miter"/>
    </g>
    <g id="text_15">
     <!-- tp.minimizer_type -->
     <g transform="translate(446.240525 38.916562) scale(0.1 -0.1)">
      <defs>
       <path id="DejaVuSans-70" d="M 1159 525 
L 1159 -1331 
L 581 -1331 
L 581 3500 
L 1159 3500 
L 1159 2969 
Q 1341 3281 1617 3432 
Q 1894 3584 2278 3584 
Q 2916 3584 3314 3078 
Q 3713 2572 3713 1747 
Q 3713 922 3314 415 
Q 2916 -91 2278 -91 
Q 1894 -91 1617 61 
Q 1341 213 1159 525 
z
M 3116 1747 
Q 3116 2381 2855 2742 
Q 2594 3103 2138 3103 
Q 1681 3103 1420 2742 
Q 1159 2381 1159 1747 
Q 1159 1113 1420 752 
Q 1681 391 2138 391 
Q 2594 391 2855 752 
Q 3116 1113 3116 1747 
z
" transform="scale(0.015625)"/>
       <path id="DejaVuSans-2e" d="M 684 794 
L 1344 794 
L 1344 0 
L 684 0 
L 684 794 
z
" transform="scale(0.015625)"/>
       <path id="DejaVuSans-7a" d="M 353 3500 
L 3084 3500 
L 3084 2975 
L 922 459 
L 3084 459 
L 3084 0 
L 275 0 
L 275 525 
L 2438 3041 
L 353 3041 
L 353 3500 
z
" transform="scale(0.015625)"/>
       <path id="DejaVuSans-72" d="M 2631 2963 
Q 2534 3019 2420 3045 
Q 2306 3072 2169 3072 
Q 1681 3072 1420 2755 
Q 1159 2438 1159 1844 
L 1159 0 
L 581 0 
L 581 3500 
L 1159 3500 
L 1159 2956 
Q 1341 3275 1631 3429 
Q 1922 3584 2338 3584 
Q 2397 3584 2469 3576 
Q 2541 3569 2628 3553 
L 2631 2963 
z
" transform="scale(0.015625)"/>
       <path id="DejaVuSans-5f" d="M 3263 -1063 
L 3263 -1509 
L -63 -1509 
L -63 -1063 
L 3263 -1063 
z
" transform="scale(0.015625)"/>
      </defs>
      <use xlink:href="#DejaVuSans-74"/>
      <use xlink:href="#DejaVuSans-70" x="39.208984"/>
      <use xlink:href="#DejaVuSans-2e" x="102.685547"/>
      <use xlink:href="#DejaVuSans-6d" x="134.472656"/>
      <use xlink:href="#DejaVuSans-69" x="231.884766"/>
      <use xlink:href="#DejaVuSans-6e" x="259.667969"/>
      <use xlink:href="#DejaVuSans-69" x="323.046875"/>
      <use xlink:href="#DejaVuSans-6d" x="350.830078"/>
      <use xlink:href="#DejaVuSans-69" x="448.242188"/>
      <use xlink:href="#DejaVuSans-7a" x="476.025391"/>
      <use xlink:href="#DejaVuSans-65" x="528.515625"/>
      <use xlink:href="#DejaVuSans-72" x="590.039062"/>
      <use xlink:href="#DejaVuSans-5f" x="631.152344"/>
      <use xlink:href="#DejaVuSans-74" x="681.152344"/>
      <use xlink:href="#DejaVuSans-79" x="720.361328"/>
      <use xlink:href="#DejaVuSans-70" x="779.541016"/>
      <use xlink:href="#DejaVuSans-65" x="843.017578"/>
     </g>
    </g>
    <g id="line2d_35">
     <path d="M 418.240525 50.372813 
L 428.240525 50.372813 
L 438.240525 50.372813 
" style="fill: none; stroke: #1f77b4; stroke-width: 1.5; stroke-linecap: square"/>
    </g>
    <g id="text_16">
     <!-- Minimizer -->
     <g transform="translate(446.240525 53.872813) scale(0.1 -0.1)">
      <defs>
       <path id="DejaVuSans-4d" d="M 628 4666 
L 1569 4666 
L 2759 1491 
L 3956 4666 
L 4897 4666 
L 4897 0 
L 4281 0 
L 4281 4097 
L 3078 897 
L 2444 897 
L 1241 4097 
L 1241 0 
L 628 0 
L 628 4666 
z
" transform="scale(0.015625)"/>
      </defs>
      <use xlink:href="#DejaVuSans-4d"/>
      <use xlink:href="#DejaVuSans-69" x="86.279297"/>
      <use xlink:href="#DejaVuSans-6e" x="114.0625"/>
      <use xlink:href="#DejaVuSans-69" x="177.441406"/>
      <use xlink:href="#DejaVuSans-6d" x="205.224609"/>
      <use xlink:href="#DejaVuSans-69" x="302.636719"/>
      <use xlink:href="#DejaVuSans-7a" x="330.419922"/>
      <use xlink:href="#DejaVuSans-65" x="382.910156"/>
      <use xlink:href="#DejaVuSans-72" x="444.433594"/>
     </g>
    </g>
    <g id="line2d_36">
     <path d="M 418.240525 65.050938 
L 428.240525 65.050938 
L 438.240525 65.050938 
" style="fill: none; stroke: #ff7f0e; stroke-width: 1.5; stroke-linecap: square"/>
    </g>
    <g id="text_17">
     <!-- BdAnchor -->
     <g transform="translate(446.240525 68.550938) scale(0.1 -0.1)">
      <defs>
       <path id="DejaVuSans-42" d="M 1259 2228 
L 1259 519 
L 2272 519 
Q 2781 519 3026 730 
Q 3272 941 3272 1375 
Q 3272 1813 3026 2020 
Q 2781 2228 2272 2228 
L 1259 2228 
z
M 1259 4147 
L 1259 2741 
L 2194 2741 
Q 2656 2741 2882 2914 
Q 3109 3088 3109 3444 
Q 3109 3797 2882 3972 
Q 2656 4147 2194 4147 
L 1259 4147 
z
M 628 4666 
L 2241 4666 
Q 2963 4666 3353 4366 
Q 3744 4066 3744 3513 
Q 3744 3084 3544 2831 
Q 3344 2578 2956 2516 
Q 3422 2416 3680 2098 
Q 3938 1781 3938 1306 
Q 3938 681 3513 340 
Q 3088 0 2303 0 
L 628 0 
L 628 4666 
z
" transform="scale(0.015625)"/>
       <path id="DejaVuSans-41" d="M 2188 4044 
L 1331 1722 
L 3047 1722 
L 2188 4044 
z
M 1831 4666 
L 2547 4666 
L 4325 0 
L 3669 0 
L 3244 1197 
L 1141 1197 
L 716 0 
L 50 0 
L 1831 4666 
z
" transform="scale(0.015625)"/>
       <path id="DejaVuSans-63" d="M 3122 3366 
L 3122 2828 
Q 2878 2963 2633 3030 
Q 2388 3097 2138 3097 
Q 1578 3097 1268 2742 
Q 959 2388 959 1747 
Q 959 1106 1268 751 
Q 1578 397 2138 397 
Q 2388 397 2633 464 
Q 2878 531 3122 666 
L 3122 134 
Q 2881 22 2623 -34 
Q 2366 -91 2075 -91 
Q 1284 -91 818 406 
Q 353 903 353 1747 
Q 353 2603 823 3093 
Q 1294 3584 2113 3584 
Q 2378 3584 2631 3529 
Q 2884 3475 3122 3366 
z
" transform="scale(0.015625)"/>
       <path id="DejaVuSans-68" d="M 3513 2113 
L 3513 0 
L 2938 0 
L 2938 2094 
Q 2938 2591 2744 2837 
Q 2550 3084 2163 3084 
Q 1697 3084 1428 2787 
Q 1159 2491 1159 1978 
L 1159 0 
L 581 0 
L 581 4863 
L 1159 4863 
L 1159 2956 
Q 1366 3272 1645 3428 
Q 1925 3584 2291 3584 
Q 2894 3584 3203 3211 
Q 3513 2838 3513 2113 
z
" transform="scale(0.015625)"/>
       <path id="DejaVuSans-6f" d="M 1959 3097 
Q 1497 3097 1228 2736 
Q 959 2375 959 1747 
Q 959 1119 1226 758 
Q 1494 397 1959 397 
Q 2419 397 2687 759 
Q 2956 1122 2956 1747 
Q 2956 2369 2687 2733 
Q 2419 3097 1959 3097 
z
M 1959 3584 
Q 2709 3584 3137 3096 
Q 3566 2609 3566 1747 
Q 3566 888 3137 398 
Q 2709 -91 1959 -91 
Q 1206 -91 779 398 
Q 353 888 353 1747 
Q 353 2609 779 3096 
Q 1206 3584 1959 3584 
z
" transform="scale(0.015625)"/>
      </defs>
      <use xlink:href="#DejaVuSans-42"/>
      <use xlink:href="#DejaVuSans-64" x="68.603516"/>
      <use xlink:href="#DejaVuSans-41" x="132.080078"/>
      <use xlink:href="#DejaVuSans-6e" x="200.488281"/>
      <use xlink:href="#DejaVuSans-63" x="263.867188"/>
      <use xlink:href="#DejaVuSans-68" x="318.847656"/>
      <use xlink:href="#DejaVuSans-6f" x="382.226562"/>
      <use xlink:href="#DejaVuSans-72" x="443.408203"/>
     </g>
    </g>
    <g id="line2d_37">
     <path d="M 418.240525 79.729062 
L 428.240525 79.729062 
L 438.240525 79.729062 
" style="fill: none; stroke: #2ca02c; stroke-width: 1.5; stroke-linecap: square"/>
    </g>
    <g id="text_18">
     <!-- Miniception -->
     <g transform="translate(446.240525 83.229062) scale(0.1 -0.1)">
      <use xlink:href="#DejaVuSans-4d"/>
      <use xlink:href="#DejaVuSans-69" x="86.279297"/>
      <use xlink:href="#DejaVuSans-6e" x="114.0625"/>
      <use xlink:href="#DejaVuSans-69" x="177.441406"/>
      <use xlink:href="#DejaVuSans-63" x="205.224609"/>
      <use xlink:href="#DejaVuSans-65" x="260.205078"/>
      <use xlink:href="#DejaVuSans-70" x="321.728516"/>
      <use xlink:href="#DejaVuSans-74" x="385.205078"/>
      <use xlink:href="#DejaVuSans-69" x="424.414062"/>
      <use xlink:href="#DejaVuSans-6f" x="452.197266"/>
      <use xlink:href="#DejaVuSans-6e" x="513.378906"/>
     </g>
    </g>
    <g id="line2d_38">
     <path d="M 418.240525 94.407188 
L 428.240525 94.407188 
L 438.240525 94.407188 
" style="fill: none; stroke: #d62728; stroke-width: 1.5; stroke-linecap: square"/>
    </g>
    <g id="text_19">
     <!-- BiMinimizerBot -->
     <g transform="translate(446.240525 97.907188) scale(0.1 -0.1)">
      <use xlink:href="#DejaVuSans-42"/>
      <use xlink:href="#DejaVuSans-69" x="68.603516"/>
      <use xlink:href="#DejaVuSans-4d" x="96.386719"/>
      <use xlink:href="#DejaVuSans-69" x="182.666016"/>
      <use xlink:href="#DejaVuSans-6e" x="210.449219"/>
      <use xlink:href="#DejaVuSans-69" x="273.828125"/>
      <use xlink:href="#DejaVuSans-6d" x="301.611328"/>
      <use xlink:href="#DejaVuSans-69" x="399.023438"/>
      <use xlink:href="#DejaVuSans-7a" x="426.806641"/>
      <use xlink:href="#DejaVuSans-65" x="479.296875"/>
      <use xlink:href="#DejaVuSans-72" x="540.820312"/>
      <use xlink:href="#DejaVuSans-42" x="581.933594"/>
      <use xlink:href="#DejaVuSans-6f" x="650.537109"/>
      <use xlink:href="#DejaVuSans-74" x="711.71875"/>
     </g>
    </g>
    <g id="line2d_39">
     <path d="M 418.240525 109.085313 
L 428.240525 109.085313 
L 438.240525 109.085313 
" style="fill: none; stroke: #9467bd; stroke-width: 1.5; stroke-linecap: square"/>
    </g>
    <g id="text_20">
     <!-- ReducedMinimizer -->
     <g transform="translate(446.240525 112.585313) scale(0.1 -0.1)">
      <defs>
       <path id="DejaVuSans-52" d="M 2841 2188 
Q 3044 2119 3236 1894 
Q 3428 1669 3622 1275 
L 4263 0 
L 3584 0 
L 2988 1197 
Q 2756 1666 2539 1819 
Q 2322 1972 1947 1972 
L 1259 1972 
L 1259 0 
L 628 0 
L 628 4666 
L 2053 4666 
Q 2853 4666 3247 4331 
Q 3641 3997 3641 3322 
Q 3641 2881 3436 2590 
Q 3231 2300 2841 2188 
z
M 1259 4147 
L 1259 2491 
L 2053 2491 
Q 2509 2491 2742 2702 
Q 2975 2913 2975 3322 
Q 2975 3731 2742 3939 
Q 2509 4147 2053 4147 
L 1259 4147 
z
" transform="scale(0.015625)"/>
       <path id="DejaVuSans-75" d="M 544 1381 
L 544 3500 
L 1119 3500 
L 1119 1403 
Q 1119 906 1312 657 
Q 1506 409 1894 409 
Q 2359 409 2629 706 
Q 2900 1003 2900 1516 
L 2900 3500 
L 3475 3500 
L 3475 0 
L 2900 0 
L 2900 538 
Q 2691 219 2414 64 
Q 2138 -91 1772 -91 
Q 1169 -91 856 284 
Q 544 659 544 1381 
z
M 1991 3584 
L 1991 3584 
z
" transform="scale(0.015625)"/>
      </defs>
      <use xlink:href="#DejaVuSans-52"/>
      <use xlink:href="#DejaVuSans-65" x="64.982422"/>
      <use xlink:href="#DejaVuSans-64" x="126.505859"/>
      <use xlink:href="#DejaVuSans-75" x="189.982422"/>
      <use xlink:href="#DejaVuSans-63" x="253.361328"/>
      <use xlink:href="#DejaVuSans-65" x="308.341797"/>
      <use xlink:href="#DejaVuSans-64" x="369.865234"/>
      <use xlink:href="#DejaVuSans-4d" x="433.341797"/>
      <use xlink:href="#DejaVuSans-69" x="519.621094"/>
      <use xlink:href="#DejaVuSans-6e" x="547.404297"/>
      <use xlink:href="#DejaVuSans-69" x="610.783203"/>
      <use xlink:href="#DejaVuSans-6d" x="638.566406"/>
      <use xlink:href="#DejaVuSans-69" x="735.978516"/>
      <use xlink:href="#DejaVuSans-7a" x="763.761719"/>
      <use xlink:href="#DejaVuSans-65" x="816.251953"/>
      <use xlink:href="#DejaVuSans-72" x="877.775391"/>
     </g>
    </g>
    <g id="text_21">
     <!-- w -->
     <g transform="translate(446.240525 127.263438) scale(0.1 -0.1)">
      <defs>
       <path id="DejaVuSans-77" d="M 269 3500 
L 844 3500 
L 1563 769 
L 2278 3500 
L 2956 3500 
L 3675 769 
L 4391 3500 
L 4966 3500 
L 4050 0 
L 3372 0 
L 2619 2869 
L 1863 0 
L 1184 0 
L 269 3500 
z
" transform="scale(0.015625)"/>
      </defs>
      <use xlink:href="#DejaVuSans-77"/>
     </g>
    </g>
    <g id="line2d_40">
     <path d="M 418.240525 138.441563 
L 428.240525 138.441563 
L 438.240525 138.441563 
" style="fill: none; stroke: #333333; stroke-width: 0.75; stroke-linecap: square"/>
    </g>
    <g id="text_22">
     <!-- 8 -->
     <g transform="translate(446.240525 141.941563) scale(0.1 -0.1)">
      <defs>
       <path id="DejaVuSans-38" d="M 2034 2216 
Q 1584 2216 1326 1975 
Q 1069 1734 1069 1313 
Q 1069 891 1326 650 
Q 1584 409 2034 409 
Q 2484 409 2743 651 
Q 3003 894 3003 1313 
Q 3003 1734 2745 1975 
Q 2488 2216 2034 2216 
z
M 1403 2484 
Q 997 2584 770 2862 
Q 544 3141 544 3541 
Q 544 4100 942 4425 
Q 1341 4750 2034 4750 
Q 2731 4750 3128 4425 
Q 3525 4100 3525 3541 
Q 3525 3141 3298 2862 
Q 3072 2584 2669 2484 
Q 3125 2378 3379 2068 
Q 3634 1759 3634 1313 
Q 3634 634 3220 271 
Q 2806 -91 2034 -91 
Q 1263 -91 848 271 
Q 434 634 434 1313 
Q 434 1759 690 2068 
Q 947 2378 1403 2484 
z
M 1172 3481 
Q 1172 3119 1398 2916 
Q 1625 2713 2034 2713 
Q 2441 2713 2670 2916 
Q 2900 3119 2900 3481 
Q 2900 3844 2670 4047 
Q 2441 4250 2034 4250 
Q 1625 4250 1398 4047 
Q 1172 3844 1172 3481 
z
" transform="scale(0.015625)"/>
      </defs>
      <use xlink:href="#DejaVuSans-38"/>
     </g>
    </g>
    <g id="line2d_41">
     <path d="M 418.240525 153.119687 
L 428.240525 153.119687 
L 438.240525 153.119687 
" style="fill: none; stroke: #333333; stroke-width: 1.2; stroke-linecap: square"/>
    </g>
    <g id="text_23">
     <!-- 32 -->
     <g transform="translate(446.240525 156.619687) scale(0.1 -0.1)">
      <use xlink:href="#DejaVuSans-33"/>
      <use xlink:href="#DejaVuSans-32" x="63.623047"/>
     </g>
    </g>
    <g id="line2d_42">
     <path d="M 418.240525 167.797812 
L 428.240525 167.797812 
L 438.240525 167.797812 
" style="fill: none; stroke: #333333; stroke-width: 3; stroke-linecap: square"/>
    </g>
    <g id="text_24">
     <!-- 128 -->
     <g transform="translate(446.240525 171.297812) scale(0.1 -0.1)">
      <defs>
       <path id="DejaVuSans-31" d="M 794 531 
L 1825 531 
L 1825 4091 
L 703 3866 
L 703 4441 
L 1819 4666 
L 2450 4666 
L 2450 531 
L 3481 531 
L 3481 0 
L 794 0 
L 794 531 
z
" transform="scale(0.015625)"/>
      </defs>
      <use xlink:href="#DejaVuSans-31"/>
      <use xlink:href="#DejaVuSans-32" x="63.623047"/>
      <use xlink:href="#DejaVuSans-38" x="127.246094"/>
     </g>
    </g>
   </g>
  </g>
 </g>
 <defs>
  <clipPath id="p093c85a09c">
   <rect x="44.978125" y="22.318125" width="357.12" height="266.112"/>
  </clipPath>
 </defs>
</svg>
