<?xml version="1.0" encoding="utf-8" standalone="no"?>
<!DOCTYPE svg PUBLIC "-//W3C//DTD SVG 1.1//EN"
  "http://www.w3.org/Graphics/SVG/1.1/DTD/svg11.dtd">
<svg xmlns:xlink="http://www.w3.org/1999/xlink" width="667.965625pt" height="531.670938pt" viewBox="0 0 667.965625 531.670938" xmlns="http://www.w3.org/2000/svg" version="1.1">
 <metadata>
  <rdf:RDF xmlns:dc="http://purl.org/dc/elements/1.1/" xmlns:cc="http://creativecommons.org/ns#" xmlns:rdf="http://www.w3.org/1999/02/22-rdf-syntax-ns#">
   <cc:Work>
    <dc:type rdf:resource="http://purl.org/dc/dcmitype/StillImage"/>
    <dc:date>2025-03-01T20:56:17.292124</dc:date>
    <dc:format>image/svg+xml</dc:format>
    <dc:creator>
     <cc:Agent>
      <dc:title>Matplotlib v3.9.2, https://matplotlib.org/</dc:title>
     </cc:Agent>
    </dc:creator>
   </cc:Work>
  </rdf:RDF>
 </metadata>
 <defs>
  <style type="text/css">*{stroke-linejoin: round; stroke-linecap: butt}</style>
 </defs>
 <g id="figure_1">
  <g id="patch_1">
   <path d="M -0 531.670938 
L 667.965625 531.670938 
L 667.965625 0 
L -0 0 
z
" style="fill: #ffffff"/>
  </g>
  <g id="axes_1">
   <g id="patch_2">
    <path d="M 46.965625 494.114688 
L 660.765625 494.114688 
L 660.765625 50.594688 
L 46.965625 50.594688 
z
" style="fill: #ffffff"/>
   </g>
   <g id="line2d_1">
    <path d="M 298.818704 494.114688 
L 298.818704 50.594688 
" clip-path="url(#p9cd394436d)" style="fill: none; stroke-dasharray: 5.55,2.4; stroke-dashoffset: 0; stroke: #ff0000; stroke-width: 1.5"/>
   </g>
   <g id="line2d_2">
    <path d="M 388.399935 494.114688 
L 388.399935 50.594688 
" clip-path="url(#p9cd394436d)" style="fill: none; stroke-dasharray: 5.55,2.4; stroke-dashoffset: 0; stroke: #ff0000; stroke-width: 1.5"/>
   </g>
   <g id="line2d_3">
    <path d="M 455.585859 494.114688 
L 455.585859 50.594688 
" clip-path="url(#p9cd394436d)" style="fill: none; stroke-dasharray: 5.55,2.4; stroke-dashoffset: 0; stroke: #ff0000; stroke-width: 1.5"/>
   </g>
   <g id="axes_2">
    <g id="patch_3">
     <path d="M 46.965625 50.594688 
L 660.765625 50.594688 
L 660.765625 50.594687 
L 46.965625 50.594687 
z
" style="fill: #ffffff"/>
    </g>
    <g id="matplotlib.axis_1">
     <g id="xtick_1">
      <g id="line2d_4">
       <defs>
        <path id="m68529267ea" d="M 0 0 
L 0 -3.5 
" style="stroke: #000000; stroke-width: 0.8"/>
       </defs>
       <g>
        <use xlink:href="#m68529267ea" x="52.470317" y="50.594687" style="stroke: #000000; stroke-width: 0.8"/>
       </g>
      </g>
      <g id="text_1">
       <!-- $\mathdefault{2^{2}}$ -->
       <g transform="translate(46.870317 41.515) scale(0.1 -0.1)">
        <defs>
         <path id="DejaVuSans-32" d="M 1228 531 
L 3431 531 
L 3431 0 
L 469 0 
L 469 531 
Q 828 903 1448 1529 
Q 2069 2156 2228 2338 
Q 2531 2678 2651 2914 
Q 2772 3150 2772 3378 
Q 2772 3750 2511 3984 
Q 2250 4219 1831 4219 
Q 1534 4219 1204 4116 
Q 875 4013 500 3803 
L 500 4441 
Q 881 4594 1212 4672 
Q 1544 4750 1819 4750 
Q 2544 4750 2975 4387 
Q 3406 4025 3406 3419 
Q 3406 3131 3298 2873 
Q 3191 2616 2906 2266 
Q 2828 2175 2409 1742 
Q 1991 1309 1228 531 
z
" transform="scale(0.015625)"/>
        </defs>
        <use xlink:href="#DejaVuSans-32" transform="translate(0 0.765625)"/>
        <use xlink:href="#DejaVuSans-32" transform="translate(64.580078 39.046875) scale(0.7)"/>
       </g>
      </g>
     </g>
     <g id="xtick_2">
      <g id="line2d_5">
       <g>
        <use xlink:href="#m68529267ea" x="97.260933" y="50.594687" style="stroke: #000000; stroke-width: 0.8"/>
       </g>
      </g>
      <g id="text_2">
       <!-- $\mathdefault{2^{4}}$ -->
       <g transform="translate(91.660933 41.515) scale(0.1 -0.1)">
        <defs>
         <path id="DejaVuSans-34" d="M 2419 4116 
L 825 1625 
L 2419 1625 
L 2419 4116 
z
M 2253 4666 
L 3047 4666 
L 3047 1625 
L 3713 1625 
L 3713 1100 
L 3047 1100 
L 3047 0 
L 2419 0 
L 2419 1100 
L 313 1100 
L 313 1709 
L 2253 4666 
z
" transform="scale(0.015625)"/>
        </defs>
        <use xlink:href="#DejaVuSans-32" transform="translate(0 0.684375)"/>
        <use xlink:href="#DejaVuSans-34" transform="translate(64.580078 38.965625) scale(0.7)"/>
       </g>
      </g>
     </g>
     <g id="xtick_3">
      <g id="line2d_6">
       <g>
        <use xlink:href="#m68529267ea" x="142.051549" y="50.594687" style="stroke: #000000; stroke-width: 0.8"/>
       </g>
      </g>
      <g id="text_3">
       <!-- $\mathdefault{2^{6}}$ -->
       <g transform="translate(136.451549 41.515) scale(0.1 -0.1)">
        <defs>
         <path id="DejaVuSans-36" d="M 2113 2584 
Q 1688 2584 1439 2293 
Q 1191 2003 1191 1497 
Q 1191 994 1439 701 
Q 1688 409 2113 409 
Q 2538 409 2786 701 
Q 3034 994 3034 1497 
Q 3034 2003 2786 2293 
Q 2538 2584 2113 2584 
z
M 3366 4563 
L 3366 3988 
Q 3128 4100 2886 4159 
Q 2644 4219 2406 4219 
Q 1781 4219 1451 3797 
Q 1122 3375 1075 2522 
Q 1259 2794 1537 2939 
Q 1816 3084 2150 3084 
Q 2853 3084 3261 2657 
Q 3669 2231 3669 1497 
Q 3669 778 3244 343 
Q 2819 -91 2113 -91 
Q 1303 -91 875 529 
Q 447 1150 447 2328 
Q 447 3434 972 4092 
Q 1497 4750 2381 4750 
Q 2619 4750 2861 4703 
Q 3103 4656 3366 4563 
z
" transform="scale(0.015625)"/>
        </defs>
        <use xlink:href="#DejaVuSans-32" transform="translate(0 0.765625)"/>
        <use xlink:href="#DejaVuSans-36" transform="translate(64.580078 39.046875) scale(0.7)"/>
       </g>
      </g>
     </g>
     <g id="xtick_4">
      <g id="line2d_7">
       <g>
        <use xlink:href="#m68529267ea" x="186.842164" y="50.594687" style="stroke: #000000; stroke-width: 0.8"/>
       </g>
      </g>
      <g id="text_4">
       <!-- $\mathdefault{2^{8}}$ -->
       <g transform="translate(181.242164 41.515) scale(0.1 -0.1)">
        <defs>
         <path id="DejaVuSans-38" d="M 2034 2216 
Q 1584 2216 1326 1975 
Q 1069 1734 1069 1313 
Q 1069 891 1326 650 
Q 1584 409 2034 409 
Q 2484 409 2743 651 
Q 3003 894 3003 1313 
Q 3003 1734 2745 1975 
Q 2488 2216 2034 2216 
z
M 1403 2484 
Q 997 2584 770 2862 
Q 544 3141 544 3541 
Q 544 4100 942 4425 
Q 1341 4750 2034 4750 
Q 2731 4750 3128 4425 
Q 3525 4100 3525 3541 
Q 3525 3141 3298 2862 
Q 3072 2584 2669 2484 
Q 3125 2378 3379 2068 
Q 3634 1759 3634 1313 
Q 3634 634 3220 271 
Q 2806 -91 2034 -91 
Q 1263 -91 848 271 
Q 434 634 434 1313 
Q 434 1759 690 2068 
Q 947 2378 1403 2484 
z
M 1172 3481 
Q 1172 3119 1398 2916 
Q 1625 2713 2034 2713 
Q 2441 2713 2670 2916 
Q 2900 3119 2900 3481 
Q 2900 3844 2670 4047 
Q 2441 4250 2034 4250 
Q 1625 4250 1398 4047 
Q 1172 3844 1172 3481 
z
" transform="scale(0.015625)"/>
        </defs>
        <use xlink:href="#DejaVuSans-32" transform="translate(0 0.765625)"/>
        <use xlink:href="#DejaVuSans-38" transform="translate(64.580078 39.046875) scale(0.7)"/>
       </g>
      </g>
     </g>
     <g id="xtick_5">
      <g id="line2d_8">
       <g>
        <use xlink:href="#m68529267ea" x="231.63278" y="50.594687" style="stroke: #000000; stroke-width: 0.8"/>
       </g>
      </g>
      <g id="text_5">
       <!-- $\mathdefault{2^{10}}$ -->
       <g transform="translate(223.78278 41.515) scale(0.1 -0.1)">
        <defs>
         <path id="DejaVuSans-31" d="M 794 531 
L 1825 531 
L 1825 4091 
L 703 3866 
L 703 4441 
L 1819 4666 
L 2450 4666 
L 2450 531 
L 3481 531 
L 3481 0 
L 794 0 
L 794 531 
z
" transform="scale(0.015625)"/>
         <path id="DejaVuSans-30" d="M 2034 4250 
Q 1547 4250 1301 3770 
Q 1056 3291 1056 2328 
Q 1056 1369 1301 889 
Q 1547 409 2034 409 
Q 2525 409 2770 889 
Q 3016 1369 3016 2328 
Q 3016 3291 2770 3770 
Q 2525 4250 2034 4250 
z
M 2034 4750 
Q 2819 4750 3233 4129 
Q 3647 3509 3647 2328 
Q 3647 1150 3233 529 
Q 2819 -91 2034 -91 
Q 1250 -91 836 529 
Q 422 1150 422 2328 
Q 422 3509 836 4129 
Q 1250 4750 2034 4750 
z
" transform="scale(0.015625)"/>
        </defs>
        <use xlink:href="#DejaVuSans-32" transform="translate(0 0.765625)"/>
        <use xlink:href="#DejaVuSans-31" transform="translate(64.580078 39.046875) scale(0.7)"/>
        <use xlink:href="#DejaVuSans-30" transform="translate(109.116211 39.046875) scale(0.7)"/>
       </g>
      </g>
     </g>
     <g id="xtick_6">
      <g id="line2d_9">
       <g>
        <use xlink:href="#m68529267ea" x="276.423396" y="50.594687" style="stroke: #000000; stroke-width: 0.8"/>
       </g>
      </g>
      <g id="text_6">
       <!-- $\mathdefault{2^{12}}$ -->
       <g transform="translate(268.573396 41.515) scale(0.1 -0.1)">
        <use xlink:href="#DejaVuSans-32" transform="translate(0 0.765625)"/>
        <use xlink:href="#DejaVuSans-31" transform="translate(64.580078 39.046875) scale(0.7)"/>
        <use xlink:href="#DejaVuSans-32" transform="translate(109.116211 39.046875) scale(0.7)"/>
       </g>
      </g>
     </g>
     <g id="xtick_7">
      <g id="line2d_10">
       <g>
        <use xlink:href="#m68529267ea" x="321.214012" y="50.594687" style="stroke: #000000; stroke-width: 0.8"/>
       </g>
      </g>
      <g id="text_7">
       <!-- $\mathdefault{2^{14}}$ -->
       <g transform="translate(313.364012 41.515) scale(0.1 -0.1)">
        <use xlink:href="#DejaVuSans-32" transform="translate(0 0.684375)"/>
        <use xlink:href="#DejaVuSans-31" transform="translate(64.580078 38.965625) scale(0.7)"/>
        <use xlink:href="#DejaVuSans-34" transform="translate(109.116211 38.965625) scale(0.7)"/>
       </g>
      </g>
     </g>
     <g id="xtick_8">
      <g id="line2d_11">
       <g>
        <use xlink:href="#m68529267ea" x="366.004627" y="50.594687" style="stroke: #000000; stroke-width: 0.8"/>
       </g>
      </g>
      <g id="text_8">
       <!-- $\mathdefault{2^{16}}$ -->
       <g transform="translate(358.154627 41.515) scale(0.1 -0.1)">
        <use xlink:href="#DejaVuSans-32" transform="translate(0 0.765625)"/>
        <use xlink:href="#DejaVuSans-31" transform="translate(64.580078 39.046875) scale(0.7)"/>
        <use xlink:href="#DejaVuSans-36" transform="translate(109.116211 39.046875) scale(0.7)"/>
       </g>
      </g>
     </g>
     <g id="xtick_9">
      <g id="line2d_12">
       <g>
        <use xlink:href="#m68529267ea" x="410.795243" y="50.594687" style="stroke: #000000; stroke-width: 0.8"/>
       </g>
      </g>
      <g id="text_9">
       <!-- $\mathdefault{2^{18}}$ -->
       <g transform="translate(402.945243 41.515) scale(0.1 -0.1)">
        <use xlink:href="#DejaVuSans-32" transform="translate(0 0.765625)"/>
        <use xlink:href="#DejaVuSans-31" transform="translate(64.580078 39.046875) scale(0.7)"/>
        <use xlink:href="#DejaVuSans-38" transform="translate(109.116211 39.046875) scale(0.7)"/>
       </g>
      </g>
     </g>
     <g id="xtick_10">
      <g id="line2d_13">
       <g>
        <use xlink:href="#m68529267ea" x="455.585859" y="50.594687" style="stroke: #000000; stroke-width: 0.8"/>
       </g>
      </g>
      <g id="text_10">
       <!-- $\mathdefault{2^{20}}$ -->
       <g transform="translate(447.735859 41.515) scale(0.1 -0.1)">
        <use xlink:href="#DejaVuSans-32" transform="translate(0 0.765625)"/>
        <use xlink:href="#DejaVuSans-32" transform="translate(64.580078 39.046875) scale(0.7)"/>
        <use xlink:href="#DejaVuSans-30" transform="translate(109.116211 39.046875) scale(0.7)"/>
       </g>
      </g>
     </g>
     <g id="xtick_11">
      <g id="line2d_14">
       <g>
        <use xlink:href="#m68529267ea" x="500.376474" y="50.594687" style="stroke: #000000; stroke-width: 0.8"/>
       </g>
      </g>
      <g id="text_11">
       <!-- $\mathdefault{2^{22}}$ -->
       <g transform="translate(492.526474 41.515) scale(0.1 -0.1)">
        <use xlink:href="#DejaVuSans-32" transform="translate(0 0.765625)"/>
        <use xlink:href="#DejaVuSans-32" transform="translate(64.580078 39.046875) scale(0.7)"/>
        <use xlink:href="#DejaVuSans-32" transform="translate(109.116211 39.046875) scale(0.7)"/>
       </g>
      </g>
     </g>
     <g id="xtick_12">
      <g id="line2d_15">
       <g>
        <use xlink:href="#m68529267ea" x="545.16709" y="50.594687" style="stroke: #000000; stroke-width: 0.8"/>
       </g>
      </g>
      <g id="text_12">
       <!-- $\mathdefault{2^{24}}$ -->
       <g transform="translate(537.31709 41.515) scale(0.1 -0.1)">
        <use xlink:href="#DejaVuSans-32" transform="translate(0 0.765625)"/>
        <use xlink:href="#DejaVuSans-32" transform="translate(64.580078 39.046875) scale(0.7)"/>
        <use xlink:href="#DejaVuSans-34" transform="translate(109.116211 39.046875) scale(0.7)"/>
       </g>
      </g>
     </g>
     <g id="xtick_13">
      <g id="line2d_16">
       <g>
        <use xlink:href="#m68529267ea" x="589.957706" y="50.594687" style="stroke: #000000; stroke-width: 0.8"/>
       </g>
      </g>
      <g id="text_13">
       <!-- $\mathdefault{2^{26}}$ -->
       <g transform="translate(582.107706 41.515) scale(0.1 -0.1)">
        <use xlink:href="#DejaVuSans-32" transform="translate(0 0.765625)"/>
        <use xlink:href="#DejaVuSans-32" transform="translate(64.580078 39.046875) scale(0.7)"/>
        <use xlink:href="#DejaVuSans-36" transform="translate(109.116211 39.046875) scale(0.7)"/>
       </g>
      </g>
     </g>
     <g id="xtick_14">
      <g id="line2d_17">
       <g>
        <use xlink:href="#m68529267ea" x="634.748322" y="50.594687" style="stroke: #000000; stroke-width: 0.8"/>
       </g>
      </g>
      <g id="text_14">
       <!-- $\mathdefault{2^{28}}$ -->
       <g transform="translate(626.898322 41.515) scale(0.1 -0.1)">
        <use xlink:href="#DejaVuSans-32" transform="translate(0 0.765625)"/>
        <use xlink:href="#DejaVuSans-32" transform="translate(64.580078 39.046875) scale(0.7)"/>
        <use xlink:href="#DejaVuSans-38" transform="translate(109.116211 39.046875) scale(0.7)"/>
       </g>
      </g>
     </g>
     <g id="text_15">
      <!-- Array length (u32) -->
      <g transform="translate(307.85 29.916562) scale(0.1 -0.1)">
       <defs>
        <path id="DejaVuSans-41" d="M 2188 4044 
L 1331 1722 
L 3047 1722 
L 2188 4044 
z
M 1831 4666 
L 2547 4666 
L 4325 0 
L 3669 0 
L 3244 1197 
L 1141 1197 
L 716 0 
L 50 0 
L 1831 4666 
z
" transform="scale(0.015625)"/>
        <path id="DejaVuSans-72" d="M 2631 2963 
Q 2534 3019 2420 3045 
Q 2306 3072 2169 3072 
Q 1681 3072 1420 2755 
Q 1159 2438 1159 1844 
L 1159 0 
L 581 0 
L 581 3500 
L 1159 3500 
L 1159 2956 
Q 1341 3275 1631 3429 
Q 1922 3584 2338 3584 
Q 2397 3584 2469 3576 
Q 2541 3569 2628 3553 
L 2631 2963 
z
" transform="scale(0.015625)"/>
        <path id="DejaVuSans-61" d="M 2194 1759 
Q 1497 1759 1228 1600 
Q 959 1441 959 1056 
Q 959 750 1161 570 
Q 1363 391 1709 391 
Q 2188 391 2477 730 
Q 2766 1069 2766 1631 
L 2766 1759 
L 2194 1759 
z
M 3341 1997 
L 3341 0 
L 2766 0 
L 2766 531 
Q 2569 213 2275 61 
Q 1981 -91 1556 -91 
Q 1019 -91 701 211 
Q 384 513 384 1019 
Q 384 1609 779 1909 
Q 1175 2209 1959 2209 
L 2766 2209 
L 2766 2266 
Q 2766 2663 2505 2880 
Q 2244 3097 1772 3097 
Q 1472 3097 1187 3025 
Q 903 2953 641 2809 
L 641 3341 
Q 956 3463 1253 3523 
Q 1550 3584 1831 3584 
Q 2591 3584 2966 3190 
Q 3341 2797 3341 1997 
z
" transform="scale(0.015625)"/>
        <path id="DejaVuSans-79" d="M 2059 -325 
Q 1816 -950 1584 -1140 
Q 1353 -1331 966 -1331 
L 506 -1331 
L 506 -850 
L 844 -850 
Q 1081 -850 1212 -737 
Q 1344 -625 1503 -206 
L 1606 56 
L 191 3500 
L 800 3500 
L 1894 763 
L 2988 3500 
L 3597 3500 
L 2059 -325 
z
" transform="scale(0.015625)"/>
        <path id="DejaVuSans-20" transform="scale(0.015625)"/>
        <path id="DejaVuSans-6c" d="M 603 4863 
L 1178 4863 
L 1178 0 
L 603 0 
L 603 4863 
z
" transform="scale(0.015625)"/>
        <path id="DejaVuSans-65" d="M 3597 1894 
L 3597 1613 
L 953 1613 
Q 991 1019 1311 708 
Q 1631 397 2203 397 
Q 2534 397 2845 478 
Q 3156 559 3463 722 
L 3463 178 
Q 3153 47 2828 -22 
Q 2503 -91 2169 -91 
Q 1331 -91 842 396 
Q 353 884 353 1716 
Q 353 2575 817 3079 
Q 1281 3584 2069 3584 
Q 2775 3584 3186 3129 
Q 3597 2675 3597 1894 
z
M 3022 2063 
Q 3016 2534 2758 2815 
Q 2500 3097 2075 3097 
Q 1594 3097 1305 2825 
Q 1016 2553 972 2059 
L 3022 2063 
z
" transform="scale(0.015625)"/>
        <path id="DejaVuSans-6e" d="M 3513 2113 
L 3513 0 
L 2938 0 
L 2938 2094 
Q 2938 2591 2744 2837 
Q 2550 3084 2163 3084 
Q 1697 3084 1428 2787 
Q 1159 2491 1159 1978 
L 1159 0 
L 581 0 
L 581 3500 
L 1159 3500 
L 1159 2956 
Q 1366 3272 1645 3428 
Q 1925 3584 2291 3584 
Q 2894 3584 3203 3211 
Q 3513 2838 3513 2113 
z
" transform="scale(0.015625)"/>
        <path id="DejaVuSans-67" d="M 2906 1791 
Q 2906 2416 2648 2759 
Q 2391 3103 1925 3103 
Q 1463 3103 1205 2759 
Q 947 2416 947 1791 
Q 947 1169 1205 825 
Q 1463 481 1925 481 
Q 2391 481 2648 825 
Q 2906 1169 2906 1791 
z
M 3481 434 
Q 3481 -459 3084 -895 
Q 2688 -1331 1869 -1331 
Q 1566 -1331 1297 -1286 
Q 1028 -1241 775 -1147 
L 775 -588 
Q 1028 -725 1275 -790 
Q 1522 -856 1778 -856 
Q 2344 -856 2625 -561 
Q 2906 -266 2906 331 
L 2906 616 
Q 2728 306 2450 153 
Q 2172 0 1784 0 
Q 1141 0 747 490 
Q 353 981 353 1791 
Q 353 2603 747 3093 
Q 1141 3584 1784 3584 
Q 2172 3584 2450 3431 
Q 2728 3278 2906 2969 
L 2906 3500 
L 3481 3500 
L 3481 434 
z
" transform="scale(0.015625)"/>
        <path id="DejaVuSans-74" d="M 1172 4494 
L 1172 3500 
L 2356 3500 
L 2356 3053 
L 1172 3053 
L 1172 1153 
Q 1172 725 1289 603 
Q 1406 481 1766 481 
L 2356 481 
L 2356 0 
L 1766 0 
Q 1100 0 847 248 
Q 594 497 594 1153 
L 594 3053 
L 172 3053 
L 172 3500 
L 594 3500 
L 594 4494 
L 1172 4494 
z
" transform="scale(0.015625)"/>
        <path id="DejaVuSans-68" d="M 3513 2113 
L 3513 0 
L 2938 0 
L 2938 2094 
Q 2938 2591 2744 2837 
Q 2550 3084 2163 3084 
Q 1697 3084 1428 2787 
Q 1159 2491 1159 1978 
L 1159 0 
L 581 0 
L 581 4863 
L 1159 4863 
L 1159 2956 
Q 1366 3272 1645 3428 
Q 1925 3584 2291 3584 
Q 2894 3584 3203 3211 
Q 3513 2838 3513 2113 
z
" transform="scale(0.015625)"/>
        <path id="DejaVuSans-28" d="M 1984 4856 
Q 1566 4138 1362 3434 
Q 1159 2731 1159 2009 
Q 1159 1288 1364 580 
Q 1569 -128 1984 -844 
L 1484 -844 
Q 1016 -109 783 600 
Q 550 1309 550 2009 
Q 550 2706 781 3412 
Q 1013 4119 1484 4856 
L 1984 4856 
z
" transform="scale(0.015625)"/>
        <path id="DejaVuSans-75" d="M 544 1381 
L 544 3500 
L 1119 3500 
L 1119 1403 
Q 1119 906 1312 657 
Q 1506 409 1894 409 
Q 2359 409 2629 706 
Q 2900 1003 2900 1516 
L 2900 3500 
L 3475 3500 
L 3475 0 
L 2900 0 
L 2900 538 
Q 2691 219 2414 64 
Q 2138 -91 1772 -91 
Q 1169 -91 856 284 
Q 544 659 544 1381 
z
M 1991 3584 
L 1991 3584 
z
" transform="scale(0.015625)"/>
        <path id="DejaVuSans-33" d="M 2597 2516 
Q 3050 2419 3304 2112 
Q 3559 1806 3559 1356 
Q 3559 666 3084 287 
Q 2609 -91 1734 -91 
Q 1441 -91 1130 -33 
Q 819 25 488 141 
L 488 750 
Q 750 597 1062 519 
Q 1375 441 1716 441 
Q 2309 441 2620 675 
Q 2931 909 2931 1356 
Q 2931 1769 2642 2001 
Q 2353 2234 1838 2234 
L 1294 2234 
L 1294 2753 
L 1863 2753 
Q 2328 2753 2575 2939 
Q 2822 3125 2822 3475 
Q 2822 3834 2567 4026 
Q 2313 4219 1838 4219 
Q 1578 4219 1281 4162 
Q 984 4106 628 3988 
L 628 4550 
Q 988 4650 1302 4700 
Q 1616 4750 1894 4750 
Q 2613 4750 3031 4423 
Q 3450 4097 3450 3541 
Q 3450 3153 3228 2886 
Q 3006 2619 2597 2516 
z
" transform="scale(0.015625)"/>
        <path id="DejaVuSans-29" d="M 513 4856 
L 1013 4856 
Q 1481 4119 1714 3412 
Q 1947 2706 1947 2009 
Q 1947 1309 1714 600 
Q 1481 -109 1013 -844 
L 513 -844 
Q 928 -128 1133 580 
Q 1338 1288 1338 2009 
Q 1338 2731 1133 3434 
Q 928 4138 513 4856 
z
" transform="scale(0.015625)"/>
       </defs>
       <use xlink:href="#DejaVuSans-41"/>
       <use xlink:href="#DejaVuSans-72" x="68.408203"/>
       <use xlink:href="#DejaVuSans-72" x="107.771484"/>
       <use xlink:href="#DejaVuSans-61" x="148.884766"/>
       <use xlink:href="#DejaVuSans-79" x="210.164062"/>
       <use xlink:href="#DejaVuSans-20" x="269.34375"/>
       <use xlink:href="#DejaVuSans-6c" x="301.130859"/>
       <use xlink:href="#DejaVuSans-65" x="328.914062"/>
       <use xlink:href="#DejaVuSans-6e" x="390.4375"/>
       <use xlink:href="#DejaVuSans-67" x="453.816406"/>
       <use xlink:href="#DejaVuSans-74" x="517.292969"/>
       <use xlink:href="#DejaVuSans-68" x="556.501953"/>
       <use xlink:href="#DejaVuSans-20" x="619.880859"/>
       <use xlink:href="#DejaVuSans-28" x="651.667969"/>
       <use xlink:href="#DejaVuSans-75" x="690.681641"/>
       <use xlink:href="#DejaVuSans-33" x="754.060547"/>
       <use xlink:href="#DejaVuSans-32" x="817.683594"/>
       <use xlink:href="#DejaVuSans-29" x="881.306641"/>
      </g>
     </g>
    </g>
    <g id="matplotlib.axis_2"/>
    <g id="patch_4">
     <path d="M 46.965625 50.594687 
L 660.765625 50.594687 
" style="fill: none; stroke: #000000; stroke-width: 0.8; stroke-linejoin: miter; stroke-linecap: square"/>
    </g>
   </g>
   <g id="PolyCollection_1">
    <path d="M 74.865625 486.491289 
L 74.865625 486.553602 
L 79.556398 484.38709 
L 84.411955 484.600935 
L 89.924798 484.881172 
L 94.632688 487.12499 
L 100.156266 485.409057 
L 105.26842 481.538036 
L 110.361348 485.486917 
L 115.341895 485.334969 
L 120.404759 484.650379 
L 125.420521 482.26566 
L 130.491444 482.7305 
L 135.651989 482.482887 
L 140.764143 483.150321 
L 145.857071 479.091935 
L 150.933635 481.486749 
L 155.982591 481.175169 
L 161.056721 482.785064 
L 166.167165 479.655454 
L 171.198957 480.405696 
L 176.303617 479.992849 
L 181.390168 480.282856 
L 186.4613 480.393589 
L 191.532937 477.308285 
L 196.599134 477.437158 
L 201.682827 478.474597 
L 206.745843 475.045085 
L 211.828474 476.053761 
L 216.89834 476.710914 
L 221.967664 477.168993 
L 227.046847 476.856802 
L 232.118177 472.558486 
L 237.191835 474.589909 
L 242.264279 474.176583 
L 247.333903 475.477199 
L 252.410653 474.541099 
L 257.481113 474.07817 
L 262.55469 472.75048 
L 267.626848 472.869844 
L 272.700838 473.158163 
L 277.773245 472.33331 
L 282.847412 470.699671 
L 287.918813 470.418742 
L 292.992191 471.111117 
L 298.065555 470.068904 
L 303.138102 460.726159 
L 308.210573 459.349947 
L 313.283465 460.849415 
L 318.356064 462.325746 
L 323.42881 454.349233 
L 328.501688 455.919101 
L 333.574396 457.422377 
L 338.647337 453.77538 
L 343.720056 452.99224 
L 348.792838 453.859505 
L 353.865608 451.567467 
L 358.938341 453.346249 
L 364.011048 452.958308 
L 369.083792 445.418027 
L 374.156471 448.680815 
L 379.229205 446.87123 
L 384.301927 449.263326 
L 389.374668 447.052535 
L 394.447406 444.928747 
L 399.52014 443.614352 
L 404.592884 441.447836 
L 409.665598 440.207445 
L 414.73835 435.557566 
L 419.811079 433.102661 
L 424.883802 434.851608 
L 429.956533 431.938986 
L 435.029256 429.210667 
L 440.101982 430.2162 
L 445.17471 425.858359 
L 450.247443 421.933431 
L 455.320172 417.668888 
L 460.392898 405.957028 
L 465.465626 396.593096 
L 470.538352 378.514299 
L 475.611079 368.461166 
L 480.683809 348.484355 
L 485.756536 339.99526 
L 490.829264 336.721633 
L 495.901992 326.535584 
L 500.974718 297.456041 
L 506.047445 288.906863 
L 511.120172 284.223275 
L 516.192899 273.145985 
L 521.265626 263.005359 
L 526.338353 242.052872 
L 531.411082 234.170423 
L 536.48381 216.028794 
L 541.556538 216.423354 
L 546.629267 193.285666 
L 551.701993 150.704008 
L 556.774719 171.959376 
L 561.847446 171.907955 
L 566.920173 154.361356 
L 571.992901 141.373795 
L 577.065628 136.453792 
L 582.138356 113.75833 
L 587.211084 112.129479 
L 592.283809 92.098436 
L 597.356535 91.225723 
L 602.429262 72.466826 
L 607.50199 21.738672 
L 612.574716 51.617904 
L 617.647443 22.188009 
L 622.720171 23.994353 
L 627.792898 23.878474 
L 632.865625 21.095497 
L 632.865625 -173.653223 
L 632.865625 -173.653223 
L 627.792898 -23.380974 
L 622.720171 -50.82314 
L 617.647443 -100.918334 
L 612.574716 36.48516 
L 607.50199 -25.57381 
L 602.429262 38.388161 
L 597.356535 84.230005 
L 592.283809 87.434349 
L 587.211084 105.048497 
L 582.138356 106.609152 
L 577.065628 86.050757 
L 571.992901 133.758558 
L 566.920173 146.660775 
L 561.847446 44.102037 
L 556.774719 155.946355 
L 551.701993 101.64159 
L 546.629267 99.72974 
L 541.556538 214.246708 
L 536.48381 213.773197 
L 531.411082 231.843048 
L 526.338353 182.208399 
L 521.265626 258.485028 
L 516.192899 269.171436 
L 511.120172 280.094317 
L 506.047445 262.295561 
L 500.974718 273.398869 
L 495.901992 263.02287 
L 490.829264 335.834875 
L 485.756536 284.488922 
L 480.683809 291.813283 
L 475.611079 364.875153 
L 470.538352 351.890611 
L 465.465626 386.016525 
L 460.392898 378.761162 
L 455.320172 404.087169 
L 450.247443 418.434025 
L 445.17471 408.314208 
L 440.101982 423.751248 
L 435.029256 427.055996 
L 429.956533 406.709034 
L 424.883802 432.055713 
L 419.811079 416.515197 
L 414.73835 433.104784 
L 409.665598 438.960351 
L 404.592884 436.840649 
L 399.52014 441.777596 
L 394.447406 442.287176 
L 389.374668 444.926925 
L 384.301927 446.475083 
L 379.229205 445.791295 
L 374.156471 438.938535 
L 369.083792 440.618009 
L 364.011048 451.14491 
L 358.938341 440.14096 
L 353.865608 435.85112 
L 348.792838 452.754708 
L 343.720056 439.552473 
L 338.647337 451.906186 
L 333.574396 454.732631 
L 328.501688 443.511342 
L 323.42881 444.805707 
L 318.356064 459.934551 
L 313.283465 460.735495 
L 308.210573 449.993343 
L 303.138102 459.244809 
L 298.065555 463.821615 
L 292.992191 467.753884 
L 287.918813 455.055617 
L 282.847412 465.277965 
L 277.773245 456.464217 
L 272.700838 458.854877 
L 267.626848 458.270947 
L 262.55469 470.90187 
L 257.481113 468.622138 
L 252.410653 463.226744 
L 247.333903 463.373364 
L 242.264279 464.889013 
L 237.191835 463.441941 
L 232.118177 463.324935 
L 227.046847 466.733305 
L 221.967664 474.789089 
L 216.89834 471.170966 
L 211.828474 466.210727 
L 206.745843 469.422785 
L 201.682827 477.742864 
L 196.599134 469.176339 
L 191.532937 470.223597 
L 186.4613 472.569445 
L 181.390168 478.795903 
L 176.303617 473.519554 
L 171.198957 472.409451 
L 166.167165 477.002003 
L 161.056721 482.295722 
L 155.982591 475.700926 
L 150.933635 474.693221 
L 145.857071 475.793274 
L 140.764143 479.115937 
L 135.651989 478.69385 
L 130.491444 478.980755 
L 125.420521 478.689386 
L 120.404759 481.460841 
L 115.341895 484.730992 
L 110.361348 481.449292 
L 105.26842 481.083264 
L 100.156266 481.237992 
L 94.632688 486.829538 
L 89.924798 484.275967 
L 84.411955 483.746575 
L 79.556398 484.149723 
L 74.865625 486.491289 
z
" clip-path="url(#p9cd394436d)" style="fill: #1f77b4; fill-opacity: 0.2; stroke: #1f77b4; stroke-opacity: 0.2"/>
   </g>
   <g id="PolyCollection_2">
    <defs>
     <path id="m0e0680f431" d="M 74.865625 -47.515753 
L 74.865625 -43.791525 
L 79.556398 -46.427306 
L 84.411955 -47.798668 
L 89.924798 -45.97706 
L 94.632688 -46.153218 
L 100.156266 -48.918928 
L 105.26842 -46.68527 
L 110.361348 -46.264727 
L 115.341895 -46.2448 
L 120.404759 -46.927634 
L 125.420521 -47.588547 
L 130.491444 -48.561172 
L 135.651989 -48.166913 
L 140.764143 -46.986099 
L 145.857071 -47.713785 
L 150.933635 -49.463379 
L 155.982591 -48.249929 
L 161.056721 -48.15383 
L 166.167165 -50.222847 
L 171.198957 -50.008776 
L 176.303617 -49.178528 
L 181.390168 -49.584056 
L 186.4613 -49.677969 
L 191.532937 -50.564909 
L 196.599134 -50.885009 
L 201.682827 -51.177725 
L 206.745843 -50.028317 
L 211.828474 -50.716263 
L 216.89834 -52.862892 
L 221.967664 -50.864018 
L 227.046847 -51.751623 
L 232.118177 -53.688135 
L 237.191835 -53.782163 
L 242.264279 -52.992745 
L 247.333903 -51.392093 
L 252.410653 -52.168664 
L 257.481113 -62.115173 
L 262.55469 -53.194527 
L 267.626848 -62.125764 
L 272.700838 -53.242229 
L 277.773245 -63.957196 
L 282.847412 -54.084491 
L 287.918813 -54.919079 
L 292.992191 -54.037734 
L 298.065555 -54.330233 
L 303.138102 -56.959993 
L 308.210573 -54.75649 
L 313.283465 -55.683697 
L 318.356064 -55.508523 
L 323.42881 -55.692444 
L 328.501688 -66.036298 
L 333.574396 -62.352271 
L 338.647337 -56.156375 
L 343.720056 -57.292785 
L 348.792838 -57.947243 
L 353.865608 -62.108426 
L 358.938341 -57.897485 
L 364.011048 -57.1344 
L 369.083792 -58.166723 
L 374.156471 -59.178165 
L 379.229205 -58.312234 
L 384.301927 -61.172716 
L 389.374668 -58.947735 
L 394.447406 -59.778542 
L 399.52014 -74.633767 
L 404.592884 -59.854926 
L 409.665598 -60.090507 
L 414.73835 -62.25857 
L 419.811079 -61.556952 
L 424.883802 -61.515249 
L 429.956533 -61.493225 
L 435.029256 -66.415143 
L 440.101982 -62.993389 
L 445.17471 -65.555121 
L 450.247443 -68.276636 
L 455.320172 -73.018818 
L 460.392898 -76.349842 
L 465.465626 -78.336454 
L 470.538352 -78.542785 
L 475.611079 -82.748716 
L 480.683809 -86.356962 
L 485.756536 -84.571184 
L 490.829264 -86.972377 
L 495.901992 -87.518154 
L 500.974718 -94.253354 
L 506.047445 -95.593918 
L 511.120172 -98.550455 
L 516.192899 -99.477028 
L 521.265626 -103.805951 
L 526.338353 -105.731375 
L 531.411082 -110.333947 
L 536.48381 -114.515217 
L 541.556538 -115.067028 
L 546.629267 -119.167569 
L 551.701993 -125.278377 
L 556.774719 -131.999866 
L 561.847446 -129.018724 
L 566.920173 -133.577349 
L 571.992901 -136.678418 
L 577.065628 -138.178573 
L 582.138356 -142.064245 
L 587.211084 -147.68983 
L 592.283809 -150.554847 
L 597.356535 -150.852072 
L 602.429262 -159.161542 
L 607.50199 -159.807967 
L 612.574716 -164.633684 
L 617.647443 -170.503193 
L 622.720171 -168.220106 
L 627.792898 -174.126521 
L 632.865625 -177.074737 
L 632.865625 -200.563185 
L 632.865625 -200.563185 
L 627.792898 -196.252155 
L 622.720171 -185.85489 
L 617.647443 -202.559705 
L 612.574716 -166.697842 
L 607.50199 -171.862412 
L 602.429262 -169.158089 
L 597.356535 -162.981993 
L 592.283809 -166.375937 
L 587.211084 -150.477248 
L 582.138356 -146.375958 
L 577.065628 -147.542284 
L 571.992901 -143.591199 
L 566.920173 -137.50343 
L 561.847446 -130.489957 
L 556.774719 -142.751952 
L 551.701993 -134.8628 
L 546.629267 -127.327364 
L 541.556538 -116.78406 
L 536.48381 -118.610283 
L 531.411082 -116.521024 
L 526.338353 -113.711537 
L 521.265626 -105.177152 
L 516.192899 -101.43701 
L 511.120172 -101.592917 
L 506.047445 -99.596011 
L 500.974718 -96.672705 
L 495.901992 -88.177519 
L 490.829264 -88.449244 
L 485.756536 -99.899527 
L 480.683809 -93.081527 
L 475.611079 -85.928262 
L 470.538352 -79.242984 
L 465.465626 -83.062473 
L 460.392898 -82.394596 
L 455.320172 -76.113991 
L 450.247443 -73.279128 
L 445.17471 -82.772838 
L 440.101982 -72.976437 
L 435.029256 -70.274278 
L 429.956533 -74.614523 
L 424.883802 -77.97747 
L 419.811079 -77.961032 
L 414.73835 -78.328434 
L 409.665598 -75.923456 
L 404.592884 -69.010297 
L 399.52014 -76.907168 
L 394.447406 -68.737934 
L 389.374668 -60.099972 
L 384.301927 -72.440253 
L 379.229205 -59.303057 
L 374.156471 -68.50867 
L 369.083792 -72.123695 
L 364.011048 -58.174148 
L 358.938341 -70.645683 
L 353.865608 -70.863044 
L 348.792838 -58.823689 
L 343.720056 -62.111999 
L 338.647337 -68.482098 
L 333.574396 -68.183583 
L 328.501688 -68.025658 
L 323.42881 -57.856309 
L 318.356064 -58.154518 
L 313.283465 -66.022222 
L 308.210573 -54.83702 
L 303.138102 -66.248919 
L 298.065555 -64.718889 
L 292.992191 -64.304104 
L 287.918813 -58.945155 
L 282.847412 -55.785315 
L 277.773245 -64.244393 
L 272.700838 -63.430419 
L 267.626848 -62.354359 
L 262.55469 -53.982021 
L 257.481113 -62.198327 
L 252.410653 -53.553463 
L 247.333903 -51.850058 
L 242.264279 -60.363903 
L 237.191835 -60.671457 
L 232.118177 -60.523738 
L 227.046847 -58.863659 
L 221.967664 -51.933039 
L 216.89834 -58.9861 
L 211.828474 -55.976077 
L 206.745843 -51.823148 
L 201.682827 -56.926132 
L 196.599134 -56.818285 
L 191.532937 -56.788592 
L 186.4613 -54.988906 
L 181.390168 -50.647961 
L 176.303617 -55.220311 
L 171.198957 -55.353068 
L 166.167165 -54.953334 
L 161.056721 -53.522346 
L 155.982591 -51.15919 
L 150.933635 -53.445979 
L 145.857071 -50.099022 
L 140.764143 -51.499306 
L 135.651989 -52.245181 
L 130.491444 -52.10647 
L 125.420521 -50.827781 
L 120.404759 -50.839994 
L 115.341895 -48.707596 
L 110.361348 -47.430347 
L 105.26842 -50.045983 
L 100.156266 -49.527209 
L 94.632688 -47.273243 
L 89.924798 -47.881431 
L 84.411955 -47.94472 
L 79.556398 -47.793973 
L 74.865625 -47.515753 
z
" style="stroke: #ff7f0e; stroke-opacity: 0.2"/>
    </defs>
    <g clip-path="url(#p9cd394436d)">
     <use xlink:href="#m0e0680f431" x="0" y="531.670938" style="fill: #ff7f0e; fill-opacity: 0.2; stroke: #ff7f0e; stroke-opacity: 0.2"/>
    </g>
   </g>
   <g id="PolyCollection_3">
    <defs>
     <path id="m90da4cc461" d="M 74.865625 -44.910495 
L 74.865625 -44.170321 
L 79.556398 -46.067205 
L 84.411955 -46.270189 
L 89.924798 -44.896916 
L 94.632688 -44.009201 
L 100.156266 -47.49239 
L 105.26842 -45.044857 
L 110.361348 -44.933849 
L 115.341895 -46.063831 
L 120.404759 -45.934758 
L 125.420521 -47.012375 
L 130.491444 -48.954203 
L 135.651989 -46.849073 
L 140.764143 -49.005646 
L 145.857071 -46.819459 
L 150.933635 -48.003017 
L 155.982591 -46.990626 
L 161.056721 -50.421929 
L 166.167165 -46.396704 
L 171.198957 -48.341399 
L 176.303617 -48.076018 
L 181.390168 -52.161757 
L 186.4613 -47.829997 
L 191.532937 -48.209977 
L 196.599134 -48.46177 
L 201.682827 -47.987984 
L 206.745843 -49.348479 
L 211.828474 -53.774525 
L 216.89834 -50.349091 
L 221.967664 -49.824717 
L 227.046847 -49.125688 
L 232.118177 -56.134684 
L 237.191835 -52.51433 
L 242.264279 -50.000175 
L 247.333903 -49.744884 
L 252.410653 -51.143953 
L 257.481113 -57.51344 
L 262.55469 -57.435065 
L 267.626848 -51.123277 
L 272.700838 -57.636226 
L 277.773245 -50.927541 
L 282.847412 -51.7376 
L 287.918813 -51.227444 
L 292.992191 -52.180235 
L 298.065555 -54.503975 
L 303.138102 -52.916751 
L 308.210573 -51.997387 
L 313.283465 -53.198052 
L 318.356064 -52.482216 
L 323.42881 -53.768535 
L 328.501688 -54.008918 
L 333.574396 -53.697045 
L 338.647337 -54.234209 
L 343.720056 -55.821428 
L 348.792838 -57.903899 
L 353.865608 -56.967596 
L 358.938341 -56.722825 
L 364.011048 -55.605837 
L 369.083792 -57.869919 
L 374.156471 -57.760148 
L 379.229205 -57.448835 
L 384.301927 -57.043763 
L 389.374668 -58.517749 
L 394.447406 -59.279849 
L 399.52014 -59.461691 
L 404.592884 -66.82514 
L 409.665598 -60.466665 
L 414.73835 -62.218241 
L 419.811079 -65.559674 
L 424.883802 -75.713552 
L 429.956533 -62.757799 
L 435.029256 -72.042452 
L 440.101982 -68.438488 
L 445.17471 -75.539504 
L 450.247443 -76.37031 
L 455.320172 -76.213481 
L 460.392898 -80.418779 
L 465.465626 -81.509664 
L 470.538352 -83.236547 
L 475.611079 -87.78381 
L 480.683809 -90.612843 
L 485.756536 -95.180401 
L 490.829264 -97.023306 
L 495.901992 -95.778531 
L 500.974718 -98.554095 
L 506.047445 -99.78534 
L 511.120172 -101.98292 
L 516.192899 -104.148696 
L 521.265626 -106.503238 
L 526.338353 -109.879653 
L 531.411082 -113.511604 
L 536.48381 -115.654247 
L 541.556538 -117.879968 
L 546.629267 -121.259341 
L 551.701993 -125.9642 
L 556.774719 -130.194129 
L 561.847446 -129.368797 
L 566.920173 -136.965868 
L 571.992901 -138.373537 
L 577.065628 -139.631102 
L 582.138356 -143.815866 
L 587.211084 -150.693283 
L 592.283809 -153.120162 
L 597.356535 -155.407962 
L 602.429262 -156.993847 
L 607.50199 -163.677028 
L 612.574716 -167.091573 
L 617.647443 -168.868086 
L 622.720171 -169.419653 
L 627.792898 -173.073628 
L 632.865625 -178.783262 
L 632.865625 -219.951558 
L 632.865625 -219.951558 
L 627.792898 -198.139458 
L 622.720171 -177.59915 
L 617.647443 -183.229642 
L 612.574716 -188.013062 
L 607.50199 -179.64249 
L 602.429262 -160.266831 
L 597.356535 -164.666534 
L 592.283809 -154.668799 
L 587.211084 -167.041274 
L 582.138356 -144.55584 
L 577.065628 -140.639269 
L 571.992901 -141.499356 
L 566.920173 -153.531737 
L 561.847446 -133.465641 
L 556.774719 -151.950175 
L 551.701993 -150.397318 
L 546.629267 -146.848308 
L 541.556538 -119.38254 
L 536.48381 -139.010883 
L 531.411082 -117.674347 
L 526.338353 -115.207153 
L 521.265626 -111.074564 
L 516.192899 -105.843411 
L 511.120172 -105.033268 
L 506.047445 -102.221307 
L 500.974718 -99.934771 
L 495.901992 -97.312529 
L 490.829264 -99.309719 
L 485.756536 -98.230364 
L 480.683809 -101.23646 
L 475.611079 -91.367133 
L 470.538352 -85.979293 
L 465.465626 -88.115383 
L 460.392898 -87.556404 
L 455.320172 -77.547076 
L 450.247443 -86.943751 
L 445.17471 -80.058381 
L 440.101982 -81.686523 
L 435.029256 -81.59742 
L 429.956533 -79.660442 
L 424.883802 -80.486629 
L 419.811079 -76.142119 
L 414.73835 -79.021758 
L 409.665598 -73.90285 
L 404.592884 -76.486957 
L 399.52014 -75.898004 
L 394.447406 -60.392706 
L 389.374668 -71.164759 
L 384.301927 -57.691305 
L 379.229205 -65.772801 
L 374.156471 -69.783973 
L 369.083792 -69.435877 
L 364.011048 -67.747776 
L 358.938341 -67.624173 
L 353.865608 -67.054004 
L 348.792838 -67.076742 
L 343.720056 -56.680625 
L 338.647337 -65.294825 
L 333.574396 -54.312313 
L 328.501688 -64.947399 
L 323.42881 -63.312097 
L 318.356064 -53.032857 
L 313.283465 -61.114881 
L 308.210573 -52.839671 
L 303.138102 -61.091261 
L 298.065555 -59.439285 
L 292.992191 -59.148724 
L 287.918813 -52.346702 
L 282.847412 -52.328601 
L 277.773245 -59.712105 
L 272.700838 -57.692386 
L 267.626848 -57.971302 
L 262.55469 -57.719974 
L 257.481113 -57.987869 
L 252.410653 -56.105079 
L 247.333903 -51.57116 
L 242.264279 -51.436151 
L 237.191835 -56.257781 
L 232.118177 -56.316321 
L 227.046847 -53.661908 
L 221.967664 -49.987221 
L 216.89834 -54.750625 
L 211.828474 -56.492072 
L 206.745843 -53.300849 
L 201.682827 -48.689677 
L 196.599134 -53.602693 
L 191.532937 -53.226965 
L 186.4613 -52.139329 
L 181.390168 -52.201341 
L 176.303617 -52.20385 
L 171.198957 -50.682252 
L 166.167165 -51.937219 
L 161.056721 -50.53103 
L 155.982591 -50.531651 
L 150.933635 -50.481853 
L 145.857071 -50.719145 
L 140.764143 -49.872233 
L 135.651989 -49.312903 
L 130.491444 -49.323525 
L 125.420521 -49.541825 
L 120.404759 -48.073341 
L 115.341895 -46.746475 
L 110.361348 -47.53506 
L 105.26842 -47.091588 
L 100.156266 -47.591308 
L 94.632688 -45.015452 
L 89.924798 -46.15813 
L 84.411955 -47.037086 
L 79.556398 -46.441918 
L 74.865625 -44.910495 
z
" style="stroke: #1f77b4; stroke-opacity: 0.2"/>
    </defs>
    <g clip-path="url(#p9cd394436d)">
     <use xlink:href="#m90da4cc461" x="0" y="531.670938" style="fill: #1f77b4; fill-opacity: 0.2; stroke: #1f77b4; stroke-opacity: 0.2"/>
    </g>
   </g>
   <g id="matplotlib.axis_3">
    <g id="xtick_15">
     <g id="line2d_18">
      <path d="M 52.470317 494.114688 
L 52.470317 50.594688 
" clip-path="url(#p9cd394436d)" style="fill: none; stroke: #b0b0b0; stroke-opacity: 0.4; stroke-width: 0.8; stroke-linecap: square"/>
     </g>
     <g id="line2d_19">
      <defs>
       <path id="m9e13dd8fb5" d="M 0 0 
L 0 3.5 
" style="stroke: #000000; stroke-width: 0.8"/>
      </defs>
      <g>
       <use xlink:href="#m9e13dd8fb5" x="52.470317" y="494.114688" style="stroke: #000000; stroke-width: 0.8"/>
      </g>
     </g>
     <g id="text_16">
      <!-- $\mathdefault{2^{4}}$ -->
      <g transform="translate(46.870317 508.713125) scale(0.1 -0.1)">
       <use xlink:href="#DejaVuSans-32" transform="translate(0 0.684375)"/>
       <use xlink:href="#DejaVuSans-34" transform="translate(64.580078 38.965625) scale(0.7)"/>
      </g>
     </g>
    </g>
    <g id="xtick_16">
     <g id="line2d_20">
      <path d="M 97.260933 494.114688 
L 97.260933 50.594688 
" clip-path="url(#p9cd394436d)" style="fill: none; stroke: #b0b0b0; stroke-opacity: 0.4; stroke-width: 0.8; stroke-linecap: square"/>
     </g>
     <g id="line2d_21">
      <g>
       <use xlink:href="#m9e13dd8fb5" x="97.260933" y="494.114688" style="stroke: #000000; stroke-width: 0.8"/>
      </g>
     </g>
     <g id="text_17">
      <!-- $\mathdefault{2^{6}}$ -->
      <g transform="translate(91.660933 508.713125) scale(0.1 -0.1)">
       <use xlink:href="#DejaVuSans-32" transform="translate(0 0.765625)"/>
       <use xlink:href="#DejaVuSans-36" transform="translate(64.580078 39.046875) scale(0.7)"/>
      </g>
     </g>
    </g>
    <g id="xtick_17">
     <g id="line2d_22">
      <path d="M 142.051549 494.114688 
L 142.051549 50.594688 
" clip-path="url(#p9cd394436d)" style="fill: none; stroke: #b0b0b0; stroke-opacity: 0.4; stroke-width: 0.8; stroke-linecap: square"/>
     </g>
     <g id="line2d_23">
      <g>
       <use xlink:href="#m9e13dd8fb5" x="142.051549" y="494.114688" style="stroke: #000000; stroke-width: 0.8"/>
      </g>
     </g>
     <g id="text_18">
      <!-- $\mathdefault{2^{8}}$ -->
      <g transform="translate(136.451549 508.713125) scale(0.1 -0.1)">
       <use xlink:href="#DejaVuSans-32" transform="translate(0 0.765625)"/>
       <use xlink:href="#DejaVuSans-38" transform="translate(64.580078 39.046875) scale(0.7)"/>
      </g>
     </g>
    </g>
    <g id="xtick_18">
     <g id="line2d_24">
      <path d="M 186.842164 494.114688 
L 186.842164 50.594688 
" clip-path="url(#p9cd394436d)" style="fill: none; stroke: #b0b0b0; stroke-opacity: 0.4; stroke-width: 0.8; stroke-linecap: square"/>
     </g>
     <g id="line2d_25">
      <g>
       <use xlink:href="#m9e13dd8fb5" x="186.842164" y="494.114688" style="stroke: #000000; stroke-width: 0.8"/>
      </g>
     </g>
     <g id="text_19">
      <!-- $\mathdefault{2^{10}}$ -->
      <g transform="translate(178.992164 508.713125) scale(0.1 -0.1)">
       <use xlink:href="#DejaVuSans-32" transform="translate(0 0.765625)"/>
       <use xlink:href="#DejaVuSans-31" transform="translate(64.580078 39.046875) scale(0.7)"/>
       <use xlink:href="#DejaVuSans-30" transform="translate(109.116211 39.046875) scale(0.7)"/>
      </g>
     </g>
    </g>
    <g id="xtick_19">
     <g id="line2d_26">
      <path d="M 231.63278 494.114688 
L 231.63278 50.594688 
" clip-path="url(#p9cd394436d)" style="fill: none; stroke: #b0b0b0; stroke-opacity: 0.4; stroke-width: 0.8; stroke-linecap: square"/>
     </g>
     <g id="line2d_27">
      <g>
       <use xlink:href="#m9e13dd8fb5" x="231.63278" y="494.114688" style="stroke: #000000; stroke-width: 0.8"/>
      </g>
     </g>
     <g id="text_20">
      <!-- $\mathdefault{2^{12}}$ -->
      <g transform="translate(223.78278 508.713125) scale(0.1 -0.1)">
       <use xlink:href="#DejaVuSans-32" transform="translate(0 0.765625)"/>
       <use xlink:href="#DejaVuSans-31" transform="translate(64.580078 39.046875) scale(0.7)"/>
       <use xlink:href="#DejaVuSans-32" transform="translate(109.116211 39.046875) scale(0.7)"/>
      </g>
     </g>
    </g>
    <g id="xtick_20">
     <g id="line2d_28">
      <path d="M 276.423396 494.114688 
L 276.423396 50.594688 
" clip-path="url(#p9cd394436d)" style="fill: none; stroke: #b0b0b0; stroke-opacity: 0.4; stroke-width: 0.8; stroke-linecap: square"/>
     </g>
     <g id="line2d_29">
      <g>
       <use xlink:href="#m9e13dd8fb5" x="276.423396" y="494.114688" style="stroke: #000000; stroke-width: 0.8"/>
      </g>
     </g>
     <g id="text_21">
      <!-- $\mathdefault{2^{14}}$ -->
      <g transform="translate(268.573396 508.713125) scale(0.1 -0.1)">
       <use xlink:href="#DejaVuSans-32" transform="translate(0 0.684375)"/>
       <use xlink:href="#DejaVuSans-31" transform="translate(64.580078 38.965625) scale(0.7)"/>
       <use xlink:href="#DejaVuSans-34" transform="translate(109.116211 38.965625) scale(0.7)"/>
      </g>
     </g>
    </g>
    <g id="xtick_21">
     <g id="line2d_30">
      <path d="M 321.214012 494.114688 
L 321.214012 50.594688 
" clip-path="url(#p9cd394436d)" style="fill: none; stroke: #b0b0b0; stroke-opacity: 0.4; stroke-width: 0.8; stroke-linecap: square"/>
     </g>
     <g id="line2d_31">
      <g>
       <use xlink:href="#m9e13dd8fb5" x="321.214012" y="494.114688" style="stroke: #000000; stroke-width: 0.8"/>
      </g>
     </g>
     <g id="text_22">
      <!-- $\mathdefault{2^{16}}$ -->
      <g transform="translate(313.364012 508.713125) scale(0.1 -0.1)">
       <use xlink:href="#DejaVuSans-32" transform="translate(0 0.765625)"/>
       <use xlink:href="#DejaVuSans-31" transform="translate(64.580078 39.046875) scale(0.7)"/>
       <use xlink:href="#DejaVuSans-36" transform="translate(109.116211 39.046875) scale(0.7)"/>
      </g>
     </g>
    </g>
    <g id="xtick_22">
     <g id="line2d_32">
      <path d="M 366.004627 494.114688 
L 366.004627 50.594688 
" clip-path="url(#p9cd394436d)" style="fill: none; stroke: #b0b0b0; stroke-opacity: 0.4; stroke-width: 0.8; stroke-linecap: square"/>
     </g>
     <g id="line2d_33">
      <g>
       <use xlink:href="#m9e13dd8fb5" x="366.004627" y="494.114688" style="stroke: #000000; stroke-width: 0.8"/>
      </g>
     </g>
     <g id="text_23">
      <!-- $\mathdefault{2^{18}}$ -->
      <g transform="translate(358.154627 508.713125) scale(0.1 -0.1)">
       <use xlink:href="#DejaVuSans-32" transform="translate(0 0.765625)"/>
       <use xlink:href="#DejaVuSans-31" transform="translate(64.580078 39.046875) scale(0.7)"/>
       <use xlink:href="#DejaVuSans-38" transform="translate(109.116211 39.046875) scale(0.7)"/>
      </g>
     </g>
    </g>
    <g id="xtick_23">
     <g id="line2d_34">
      <path d="M 410.795243 494.114688 
L 410.795243 50.594688 
" clip-path="url(#p9cd394436d)" style="fill: none; stroke: #b0b0b0; stroke-opacity: 0.4; stroke-width: 0.8; stroke-linecap: square"/>
     </g>
     <g id="line2d_35">
      <g>
       <use xlink:href="#m9e13dd8fb5" x="410.795243" y="494.114688" style="stroke: #000000; stroke-width: 0.8"/>
      </g>
     </g>
     <g id="text_24">
      <!-- $\mathdefault{2^{20}}$ -->
      <g transform="translate(402.945243 508.713125) scale(0.1 -0.1)">
       <use xlink:href="#DejaVuSans-32" transform="translate(0 0.765625)"/>
       <use xlink:href="#DejaVuSans-32" transform="translate(64.580078 39.046875) scale(0.7)"/>
       <use xlink:href="#DejaVuSans-30" transform="translate(109.116211 39.046875) scale(0.7)"/>
      </g>
     </g>
    </g>
    <g id="xtick_24">
     <g id="line2d_36">
      <path d="M 455.585859 494.114688 
L 455.585859 50.594688 
" clip-path="url(#p9cd394436d)" style="fill: none; stroke: #b0b0b0; stroke-opacity: 0.4; stroke-width: 0.8; stroke-linecap: square"/>
     </g>
     <g id="line2d_37">
      <g>
       <use xlink:href="#m9e13dd8fb5" x="455.585859" y="494.114688" style="stroke: #000000; stroke-width: 0.8"/>
      </g>
     </g>
     <g id="text_25">
      <!-- $\mathdefault{2^{22}}$ -->
      <g transform="translate(447.735859 508.713125) scale(0.1 -0.1)">
       <use xlink:href="#DejaVuSans-32" transform="translate(0 0.765625)"/>
       <use xlink:href="#DejaVuSans-32" transform="translate(64.580078 39.046875) scale(0.7)"/>
       <use xlink:href="#DejaVuSans-32" transform="translate(109.116211 39.046875) scale(0.7)"/>
      </g>
     </g>
    </g>
    <g id="xtick_25">
     <g id="line2d_38">
      <path d="M 500.376474 494.114688 
L 500.376474 50.594688 
" clip-path="url(#p9cd394436d)" style="fill: none; stroke: #b0b0b0; stroke-opacity: 0.4; stroke-width: 0.8; stroke-linecap: square"/>
     </g>
     <g id="line2d_39">
      <g>
       <use xlink:href="#m9e13dd8fb5" x="500.376474" y="494.114688" style="stroke: #000000; stroke-width: 0.8"/>
      </g>
     </g>
     <g id="text_26">
      <!-- $\mathdefault{2^{24}}$ -->
      <g transform="translate(492.526474 508.713125) scale(0.1 -0.1)">
       <use xlink:href="#DejaVuSans-32" transform="translate(0 0.765625)"/>
       <use xlink:href="#DejaVuSans-32" transform="translate(64.580078 39.046875) scale(0.7)"/>
       <use xlink:href="#DejaVuSans-34" transform="translate(109.116211 39.046875) scale(0.7)"/>
      </g>
     </g>
    </g>
    <g id="xtick_26">
     <g id="line2d_40">
      <path d="M 545.16709 494.114688 
L 545.16709 50.594688 
" clip-path="url(#p9cd394436d)" style="fill: none; stroke: #b0b0b0; stroke-opacity: 0.4; stroke-width: 0.8; stroke-linecap: square"/>
     </g>
     <g id="line2d_41">
      <g>
       <use xlink:href="#m9e13dd8fb5" x="545.16709" y="494.114688" style="stroke: #000000; stroke-width: 0.8"/>
      </g>
     </g>
     <g id="text_27">
      <!-- $\mathdefault{2^{26}}$ -->
      <g transform="translate(537.31709 508.713125) scale(0.1 -0.1)">
       <use xlink:href="#DejaVuSans-32" transform="translate(0 0.765625)"/>
       <use xlink:href="#DejaVuSans-32" transform="translate(64.580078 39.046875) scale(0.7)"/>
       <use xlink:href="#DejaVuSans-36" transform="translate(109.116211 39.046875) scale(0.7)"/>
      </g>
     </g>
    </g>
    <g id="xtick_27">
     <g id="line2d_42">
      <path d="M 589.957706 494.114688 
L 589.957706 50.594688 
" clip-path="url(#p9cd394436d)" style="fill: none; stroke: #b0b0b0; stroke-opacity: 0.4; stroke-width: 0.8; stroke-linecap: square"/>
     </g>
     <g id="line2d_43">
      <g>
       <use xlink:href="#m9e13dd8fb5" x="589.957706" y="494.114688" style="stroke: #000000; stroke-width: 0.8"/>
      </g>
     </g>
     <g id="text_28">
      <!-- $\mathdefault{2^{28}}$ -->
      <g transform="translate(582.107706 508.713125) scale(0.1 -0.1)">
       <use xlink:href="#DejaVuSans-32" transform="translate(0 0.765625)"/>
       <use xlink:href="#DejaVuSans-32" transform="translate(64.580078 39.046875) scale(0.7)"/>
       <use xlink:href="#DejaVuSans-38" transform="translate(109.116211 39.046875) scale(0.7)"/>
      </g>
     </g>
    </g>
    <g id="xtick_28">
     <g id="line2d_44">
      <path d="M 634.748322 494.114688 
L 634.748322 50.594688 
" clip-path="url(#p9cd394436d)" style="fill: none; stroke: #b0b0b0; stroke-opacity: 0.4; stroke-width: 0.8; stroke-linecap: square"/>
     </g>
     <g id="line2d_45">
      <g>
       <use xlink:href="#m9e13dd8fb5" x="634.748322" y="494.114688" style="stroke: #000000; stroke-width: 0.8"/>
      </g>
     </g>
     <g id="text_29">
      <!-- $\mathdefault{2^{30}}$ -->
      <g transform="translate(626.898322 508.713125) scale(0.1 -0.1)">
       <use xlink:href="#DejaVuSans-32" transform="translate(0 0.765625)"/>
       <use xlink:href="#DejaVuSans-33" transform="translate(64.580078 39.046875) scale(0.7)"/>
       <use xlink:href="#DejaVuSans-30" transform="translate(109.116211 39.046875) scale(0.7)"/>
      </g>
     </g>
    </g>
    <g id="text_30">
     <!-- Input size (bytes) -->
     <g transform="translate(310.369531 522.39125) scale(0.1 -0.1)">
      <defs>
       <path id="DejaVuSans-49" d="M 628 4666 
L 1259 4666 
L 1259 0 
L 628 0 
L 628 4666 
z
" transform="scale(0.015625)"/>
       <path id="DejaVuSans-70" d="M 1159 525 
L 1159 -1331 
L 581 -1331 
L 581 3500 
L 1159 3500 
L 1159 2969 
Q 1341 3281 1617 3432 
Q 1894 3584 2278 3584 
Q 2916 3584 3314 3078 
Q 3713 2572 3713 1747 
Q 3713 922 3314 415 
Q 2916 -91 2278 -91 
Q 1894 -91 1617 61 
Q 1341 213 1159 525 
z
M 3116 1747 
Q 3116 2381 2855 2742 
Q 2594 3103 2138 3103 
Q 1681 3103 1420 2742 
Q 1159 2381 1159 1747 
Q 1159 1113 1420 752 
Q 1681 391 2138 391 
Q 2594 391 2855 752 
Q 3116 1113 3116 1747 
z
" transform="scale(0.015625)"/>
       <path id="DejaVuSans-73" d="M 2834 3397 
L 2834 2853 
Q 2591 2978 2328 3040 
Q 2066 3103 1784 3103 
Q 1356 3103 1142 2972 
Q 928 2841 928 2578 
Q 928 2378 1081 2264 
Q 1234 2150 1697 2047 
L 1894 2003 
Q 2506 1872 2764 1633 
Q 3022 1394 3022 966 
Q 3022 478 2636 193 
Q 2250 -91 1575 -91 
Q 1294 -91 989 -36 
Q 684 19 347 128 
L 347 722 
Q 666 556 975 473 
Q 1284 391 1588 391 
Q 1994 391 2212 530 
Q 2431 669 2431 922 
Q 2431 1156 2273 1281 
Q 2116 1406 1581 1522 
L 1381 1569 
Q 847 1681 609 1914 
Q 372 2147 372 2553 
Q 372 3047 722 3315 
Q 1072 3584 1716 3584 
Q 2034 3584 2315 3537 
Q 2597 3491 2834 3397 
z
" transform="scale(0.015625)"/>
       <path id="DejaVuSans-69" d="M 603 3500 
L 1178 3500 
L 1178 0 
L 603 0 
L 603 3500 
z
M 603 4863 
L 1178 4863 
L 1178 4134 
L 603 4134 
L 603 4863 
z
" transform="scale(0.015625)"/>
       <path id="DejaVuSans-7a" d="M 353 3500 
L 3084 3500 
L 3084 2975 
L 922 459 
L 3084 459 
L 3084 0 
L 275 0 
L 275 525 
L 2438 3041 
L 353 3041 
L 353 3500 
z
" transform="scale(0.015625)"/>
       <path id="DejaVuSans-62" d="M 3116 1747 
Q 3116 2381 2855 2742 
Q 2594 3103 2138 3103 
Q 1681 3103 1420 2742 
Q 1159 2381 1159 1747 
Q 1159 1113 1420 752 
Q 1681 391 2138 391 
Q 2594 391 2855 752 
Q 3116 1113 3116 1747 
z
M 1159 2969 
Q 1341 3281 1617 3432 
Q 1894 3584 2278 3584 
Q 2916 3584 3314 3078 
Q 3713 2572 3713 1747 
Q 3713 922 3314 415 
Q 2916 -91 2278 -91 
Q 1894 -91 1617 61 
Q 1341 213 1159 525 
L 1159 0 
L 581 0 
L 581 4863 
L 1159 4863 
L 1159 2969 
z
" transform="scale(0.015625)"/>
      </defs>
      <use xlink:href="#DejaVuSans-49"/>
      <use xlink:href="#DejaVuSans-6e" x="29.492188"/>
      <use xlink:href="#DejaVuSans-70" x="92.871094"/>
      <use xlink:href="#DejaVuSans-75" x="156.347656"/>
      <use xlink:href="#DejaVuSans-74" x="219.726562"/>
      <use xlink:href="#DejaVuSans-20" x="258.935547"/>
      <use xlink:href="#DejaVuSans-73" x="290.722656"/>
      <use xlink:href="#DejaVuSans-69" x="342.822266"/>
      <use xlink:href="#DejaVuSans-7a" x="370.605469"/>
      <use xlink:href="#DejaVuSans-65" x="423.095703"/>
      <use xlink:href="#DejaVuSans-20" x="484.619141"/>
      <use xlink:href="#DejaVuSans-28" x="516.40625"/>
      <use xlink:href="#DejaVuSans-62" x="555.419922"/>
      <use xlink:href="#DejaVuSans-79" x="618.896484"/>
      <use xlink:href="#DejaVuSans-74" x="678.076172"/>
      <use xlink:href="#DejaVuSans-65" x="717.285156"/>
      <use xlink:href="#DejaVuSans-73" x="778.808594"/>
      <use xlink:href="#DejaVuSans-29" x="830.908203"/>
     </g>
    </g>
   </g>
   <g id="matplotlib.axis_4">
    <g id="ytick_1">
     <g id="line2d_46">
      <path d="M 46.965625 494.114688 
L 660.765625 494.114688 
" clip-path="url(#p9cd394436d)" style="fill: none; stroke: #b0b0b0; stroke-opacity: 0.4; stroke-width: 0.8; stroke-linecap: square"/>
     </g>
     <g id="line2d_47">
      <defs>
       <path id="m5c70b1df4f" d="M 0 0 
L -3.5 0 
" style="stroke: #000000; stroke-width: 0.8"/>
      </defs>
      <g>
       <use xlink:href="#m5c70b1df4f" x="46.965625" y="494.114688" style="stroke: #000000; stroke-width: 0.8"/>
      </g>
     </g>
     <g id="text_31">
      <!-- 0 -->
      <g transform="translate(33.603125 497.913906) scale(0.1 -0.1)">
       <use xlink:href="#DejaVuSans-30"/>
      </g>
     </g>
    </g>
    <g id="ytick_2">
     <g id="line2d_48">
      <path d="M 46.965625 405.410688 
L 660.765625 405.410688 
" clip-path="url(#p9cd394436d)" style="fill: none; stroke: #b0b0b0; stroke-opacity: 0.4; stroke-width: 0.8; stroke-linecap: square"/>
     </g>
     <g id="line2d_49">
      <g>
       <use xlink:href="#m5c70b1df4f" x="46.965625" y="405.410688" style="stroke: #000000; stroke-width: 0.8"/>
      </g>
     </g>
     <g id="text_32">
      <!-- 20 -->
      <g transform="translate(27.240625 409.209906) scale(0.1 -0.1)">
       <use xlink:href="#DejaVuSans-32"/>
       <use xlink:href="#DejaVuSans-30" x="63.623047"/>
      </g>
     </g>
    </g>
    <g id="ytick_3">
     <g id="line2d_50">
      <path d="M 46.965625 316.706688 
L 660.765625 316.706688 
" clip-path="url(#p9cd394436d)" style="fill: none; stroke: #b0b0b0; stroke-opacity: 0.4; stroke-width: 0.8; stroke-linecap: square"/>
     </g>
     <g id="line2d_51">
      <g>
       <use xlink:href="#m5c70b1df4f" x="46.965625" y="316.706688" style="stroke: #000000; stroke-width: 0.8"/>
      </g>
     </g>
     <g id="text_33">
      <!-- 40 -->
      <g transform="translate(27.240625 320.505906) scale(0.1 -0.1)">
       <use xlink:href="#DejaVuSans-34"/>
       <use xlink:href="#DejaVuSans-30" x="63.623047"/>
      </g>
     </g>
    </g>
    <g id="ytick_4">
     <g id="line2d_52">
      <path d="M 46.965625 228.002688 
L 660.765625 228.002688 
" clip-path="url(#p9cd394436d)" style="fill: none; stroke: #b0b0b0; stroke-opacity: 0.4; stroke-width: 0.8; stroke-linecap: square"/>
     </g>
     <g id="line2d_53">
      <g>
       <use xlink:href="#m5c70b1df4f" x="46.965625" y="228.002688" style="stroke: #000000; stroke-width: 0.8"/>
      </g>
     </g>
     <g id="text_34">
      <!-- 60 -->
      <g transform="translate(27.240625 231.801906) scale(0.1 -0.1)">
       <use xlink:href="#DejaVuSans-36"/>
       <use xlink:href="#DejaVuSans-30" x="63.623047"/>
      </g>
     </g>
    </g>
    <g id="ytick_5">
     <g id="line2d_54">
      <path d="M 46.965625 139.298688 
L 660.765625 139.298688 
" clip-path="url(#p9cd394436d)" style="fill: none; stroke: #b0b0b0; stroke-opacity: 0.4; stroke-width: 0.8; stroke-linecap: square"/>
     </g>
     <g id="line2d_55">
      <g>
       <use xlink:href="#m5c70b1df4f" x="46.965625" y="139.298688" style="stroke: #000000; stroke-width: 0.8"/>
      </g>
     </g>
     <g id="text_35">
      <!-- 80 -->
      <g transform="translate(27.240625 143.097906) scale(0.1 -0.1)">
       <use xlink:href="#DejaVuSans-38"/>
       <use xlink:href="#DejaVuSans-30" x="63.623047"/>
      </g>
     </g>
    </g>
    <g id="ytick_6">
     <g id="line2d_56">
      <path d="M 46.965625 50.594688 
L 660.765625 50.594688 
" clip-path="url(#p9cd394436d)" style="fill: none; stroke: #b0b0b0; stroke-opacity: 0.4; stroke-width: 0.8; stroke-linecap: square"/>
     </g>
     <g id="line2d_57">
      <g>
       <use xlink:href="#m5c70b1df4f" x="46.965625" y="50.594688" style="stroke: #000000; stroke-width: 0.8"/>
      </g>
     </g>
     <g id="text_36">
      <!-- 100 -->
      <g transform="translate(20.878125 54.393906) scale(0.1 -0.1)">
       <use xlink:href="#DejaVuSans-31"/>
       <use xlink:href="#DejaVuSans-30" x="63.623047"/>
       <use xlink:href="#DejaVuSans-30" x="127.246094"/>
      </g>
     </g>
    </g>
    <g id="text_37">
     <!-- Inverse throughput (ns) -->
     <g transform="translate(14.798438 331.570313) rotate(-90) scale(0.1 -0.1)">
      <defs>
       <path id="DejaVuSans-76" d="M 191 3500 
L 800 3500 
L 1894 563 
L 2988 3500 
L 3597 3500 
L 2284 0 
L 1503 0 
L 191 3500 
z
" transform="scale(0.015625)"/>
       <path id="DejaVuSans-6f" d="M 1959 3097 
Q 1497 3097 1228 2736 
Q 959 2375 959 1747 
Q 959 1119 1226 758 
Q 1494 397 1959 397 
Q 2419 397 2687 759 
Q 2956 1122 2956 1747 
Q 2956 2369 2687 2733 
Q 2419 3097 1959 3097 
z
M 1959 3584 
Q 2709 3584 3137 3096 
Q 3566 2609 3566 1747 
Q 3566 888 3137 398 
Q 2709 -91 1959 -91 
Q 1206 -91 779 398 
Q 353 888 353 1747 
Q 353 2609 779 3096 
Q 1206 3584 1959 3584 
z
" transform="scale(0.015625)"/>
      </defs>
      <use xlink:href="#DejaVuSans-49"/>
      <use xlink:href="#DejaVuSans-6e" x="29.492188"/>
      <use xlink:href="#DejaVuSans-76" x="92.871094"/>
      <use xlink:href="#DejaVuSans-65" x="152.050781"/>
      <use xlink:href="#DejaVuSans-72" x="213.574219"/>
      <use xlink:href="#DejaVuSans-73" x="254.6875"/>
      <use xlink:href="#DejaVuSans-65" x="306.787109"/>
      <use xlink:href="#DejaVuSans-20" x="368.310547"/>
      <use xlink:href="#DejaVuSans-74" x="400.097656"/>
      <use xlink:href="#DejaVuSans-68" x="439.306641"/>
      <use xlink:href="#DejaVuSans-72" x="502.685547"/>
      <use xlink:href="#DejaVuSans-6f" x="541.548828"/>
      <use xlink:href="#DejaVuSans-75" x="602.730469"/>
      <use xlink:href="#DejaVuSans-67" x="666.109375"/>
      <use xlink:href="#DejaVuSans-68" x="729.585938"/>
      <use xlink:href="#DejaVuSans-70" x="792.964844"/>
      <use xlink:href="#DejaVuSans-75" x="856.441406"/>
      <use xlink:href="#DejaVuSans-74" x="919.820312"/>
      <use xlink:href="#DejaVuSans-20" x="959.029297"/>
      <use xlink:href="#DejaVuSans-28" x="990.816406"/>
      <use xlink:href="#DejaVuSans-6e" x="1029.830078"/>
      <use xlink:href="#DejaVuSans-73" x="1093.208984"/>
      <use xlink:href="#DejaVuSans-29" x="1145.308594"/>
     </g>
    </g>
   </g>
   <g id="line2d_58">
    <path d="M 74.865625 486.500949 
L 79.556398 484.254005 
L 84.411955 484.284665 
L 89.924798 484.374735 
L 94.632688 486.937793 
L 100.156266 484.048765 
L 105.26842 481.3761 
L 110.361348 485.02902 
L 115.341895 485.33136 
L 120.404759 481.512191 
L 125.420521 479.03605 
L 130.491444 480.543565 
L 135.651989 480.027246 
L 140.764143 480.206108 
L 145.857071 475.975195 
L 150.933635 480.865451 
L 155.982591 481.039721 
L 161.056721 482.346074 
L 166.167165 479.316766 
L 171.198957 472.454762 
L 176.303617 479.913361 
L 181.390168 480.108409 
L 186.4613 479.377563 
L 191.532937 470.256128 
L 196.599134 469.177912 
L 201.682827 478.222028 
L 206.745843 469.950857 
L 211.828474 474.96558 
L 216.89834 476.489355 
L 221.967664 477.128283 
L 227.046847 476.320609 
L 232.118177 466.807092 
L 237.191835 463.619389 
L 242.264279 473.142398 
L 247.333903 463.461212 
L 252.410653 474.502366 
L 257.481113 473.340891 
L 262.55469 471.549456 
L 267.626848 471.936493 
L 272.700838 472.859404 
L 277.773245 459.196168 
L 282.847412 467.755321 
L 287.918813 463.593455 
L 292.992191 470.514651 
L 298.065555 465.269321 
L 303.138102 460.451548 
L 308.210573 456.421774 
L 313.283465 460.834679 
L 318.356064 460.422448 
L 323.42881 446.521241 
L 328.501688 454.029443 
L 333.574396 456.283803 
L 338.647337 453.057492 
L 343.720056 452.857749 
L 348.792838 453.089256 
L 353.865608 450.037259 
L 358.938341 445.595879 
L 364.011048 451.147708 
L 369.083792 440.752171 
L 374.156471 440.090239 
L 379.229205 445.860732 
L 384.301927 446.686245 
L 389.374668 445.854965 
L 394.447406 443.798663 
L 399.52014 442.037498 
L 404.592884 440.350048 
L 409.665598 439.896158 
L 414.73835 433.702169 
L 419.811079 416.745347 
L 424.883802 434.298746 
L 429.956533 415.02671 
L 435.029256 429.136654 
L 440.101982 428.610609 
L 445.17471 424.724822 
L 450.247443 418.912475 
L 455.320172 415.401055 
L 460.392898 392.218547 
L 465.465626 393.995437 
L 470.538352 377.45082 
L 475.611079 366.393617 
L 480.683809 333.982293 
L 485.756536 329.807349 
L 490.829264 336.323061 
L 495.901992 296.467262 
L 500.974718 297.388754 
L 506.047445 285.665018 
L 511.120172 280.499579 
L 516.192899 272.392139 
L 521.265626 260.509122 
L 526.338353 223.994597 
L 531.411082 233.10396 
L 536.48381 215.67579 
L 541.556538 216.1799 
L 546.629267 176.18864 
L 551.701993 139.219479 
L 556.774719 159.497909 
L 561.847446 57.509938 
L 566.920173 153.827761 
L 571.992901 141.010609 
L 577.065628 134.95408 
L 582.138356 112.857408 
L 587.211084 109.828025 
L 592.283809 91.821782 
L 597.356535 89.731348 
L 602.429262 58.158087 
L 607.50199 2.20688 
L 612.574716 50.239858 
L 615.407003 -1 
" clip-path="url(#p9cd394436d)" style="fill: none; stroke: #1f77b4; stroke-linecap: square"/>
   </g>
   <g id="line2d_59">
    <path d="M 74.865625 485.182666 
L 79.556398 485.092938 
L 84.411955 483.831657 
L 89.924798 483.802088 
L 94.632688 485.385601 
L 100.156266 482.681203 
L 105.26842 481.997473 
L 110.361348 485.332243 
L 115.341895 484.133018 
L 120.404759 482.097539 
L 125.420521 483.46484 
L 130.491444 482.991049 
L 135.651989 480.242634 
L 140.764143 484.340603 
L 145.857071 483.563341 
L 150.933635 479.912998 
L 155.982591 483.315197 
L 161.056721 482.088238 
L 166.167165 480.958274 
L 171.198957 480.687085 
L 176.303617 482.074442 
L 181.390168 481.993265 
L 186.4613 480.866037 
L 191.532937 480.971241 
L 196.599134 474.905261 
L 201.682827 478.721345 
L 206.745843 481.257028 
L 211.828474 479.122134 
L 216.89834 473.07582 
L 221.967664 480.179474 
L 227.046847 478.723637 
L 232.118177 476.388854 
L 237.191835 471.113192 
L 242.264279 471.516779 
L 247.333903 480.095265 
L 252.410653 478.752551 
L 257.481113 469.503997 
L 262.55469 477.716176 
L 267.626848 469.526469 
L 272.700838 469.048072 
L 277.773245 467.444885 
L 282.847412 476.50715 
L 287.918813 476.258371 
L 292.992191 467.383782 
L 298.065555 467.027409 
L 303.138102 465.77449 
L 308.210573 476.910781 
L 313.283465 475.814979 
L 318.356064 475.706893 
L 323.42881 475.811561 
L 328.501688 463.826593 
L 333.574396 463.546037 
L 338.647337 475.432938 
L 343.720056 474.122373 
L 348.792838 473.3987 
L 353.865608 462.146826 
L 358.938341 473.722697 
L 364.011048 473.838528 
L 369.083792 473.357453 
L 374.156471 470.528939 
L 379.229205 472.927893 
L 384.301927 459.394013 
L 389.374668 472.64751 
L 394.447406 471.503488 
L 399.52014 455.99697 
L 404.592884 470.845821 
L 409.665598 458.194204 
L 414.73835 465.647221 
L 419.811079 453.794616 
L 424.883802 468.769587 
L 429.956533 466.384629 
L 435.029256 461.433136 
L 440.101982 458.750732 
L 445.17471 464.015599 
L 450.247443 460.531421 
L 455.320172 457.722997 
L 460.392898 454.75927 
L 465.465626 452.227488 
L 470.538352 452.939316 
L 475.611079 448.340202 
L 480.683809 439.175047 
L 485.756536 446.024003 
L 490.829264 444.15281 
L 495.901992 443.991725 
L 500.974718 435.397275 
L 506.047445 432.489308 
L 511.120172 430.18237 
L 516.192899 430.235431 
L 521.265626 427.326427 
L 526.338353 423.117928 
L 531.411082 420.691333 
L 536.48381 415.459334 
L 541.556538 416.240714 
L 546.629267 406.099574 
L 551.701993 404.842522 
L 556.774719 399.48716 
L 561.847446 402.055166 
L 566.920173 395.771143 
L 571.992901 389.604684 
L 577.065628 389.8511 
L 582.138356 388.855347 
L 587.211084 382.59349 
L 592.283809 366.391551 
L 597.356535 380.438362 
L 602.429262 371.68417 
L 607.50199 367.287553 
L 612.574716 366.230608 
L 617.647443 357.414697 
L 622.720171 350.125079 
L 627.792898 355.165842 
L 632.865625 339.860424 
" clip-path="url(#p9cd394436d)" style="fill: none; stroke: #ff7f0e; stroke-width: 1.5; stroke-linecap: square"/>
   </g>
   <g id="line2d_60">
    <path d="M 74.865625 487.042581 
L 79.556398 485.232535 
L 84.411955 484.971982 
L 89.924798 485.713619 
L 94.632688 487.20203 
L 100.156266 484.148269 
L 105.26842 484.665403 
L 110.361348 484.735164 
L 115.341895 485.36988 
L 120.404759 484.17184 
L 125.420521 482.877208 
L 130.491444 482.426089 
L 135.651989 482.621439 
L 140.764143 482.500053 
L 145.857071 484.554901 
L 150.933635 483.625211 
L 155.982591 481.186084 
L 161.056721 481.188704 
L 166.167165 481.917639 
L 171.198957 482.706742 
L 176.303617 479.684133 
L 181.390168 479.48674 
L 186.4613 479.535979 
L 191.532937 481.082772 
L 196.599134 482.832291 
L 201.682827 483.460783 
L 206.745843 481.595185 
L 211.828474 475.558753 
L 216.89834 480.97383 
L 221.967664 481.725872 
L 227.046847 481.78912 
L 232.118177 475.48404 
L 237.191835 476.23539 
L 242.264279 481.455064 
L 247.333903 481.391288 
L 252.410653 476.392831 
L 257.481113 474.040133 
L 262.55469 474.042731 
L 267.626848 473.735434 
L 272.700838 473.992201 
L 277.773245 478.353987 
L 282.847412 479.535297 
L 287.918813 479.813277 
L 292.992191 472.705523 
L 298.065555 472.350715 
L 303.138102 478.356017 
L 308.210573 479.602837 
L 313.283465 474.786934 
L 318.356064 478.975111 
L 323.42881 477.79679 
L 328.501688 467.823042 
L 333.574396 477.62436 
L 338.647337 466.718698 
L 343.720056 475.496794 
L 348.792838 464.861035 
L 353.865608 465.343391 
L 358.938341 472.681034 
L 364.011048 474.559573 
L 369.083792 466.967428 
L 374.156471 473.787808 
L 379.229205 473.683831 
L 384.301927 474.297791 
L 389.374668 470.180847 
L 394.447406 472.028806 
L 399.52014 456.69388 
L 404.592884 455.854553 
L 409.665598 464.321207 
L 414.73835 466.133332 
L 419.811079 464.446906 
L 424.883802 455.597795 
L 429.956533 461.653432 
L 435.029256 453.629208 
L 440.101982 463.060525 
L 445.17471 455.599364 
L 450.247443 450.641497 
L 455.320172 454.723764 
L 460.392898 447.977986 
L 465.465626 446.350953 
L 470.538352 447.77585 
L 475.611079 441.36579 
L 480.683809 439.719139 
L 485.756536 434.71761 
L 490.829264 434.554073 
L 495.901992 435.299363 
L 500.974718 433.029757 
L 506.047445 431.165333 
L 511.120172 428.619737 
L 516.192899 426.852445 
L 521.265626 423.397988 
L 526.338353 420.909877 
L 531.411082 415.067832 
L 536.48381 410.325295 
L 541.556538 413.580037 
L 546.629267 385.927231 
L 551.701993 397.584336 
L 556.774719 397.530016 
L 561.847446 401.23828 
L 566.920173 385.4351 
L 571.992901 391.900809 
L 577.065628 391.59897 
L 582.138356 387.69893 
L 587.211084 379.318643 
L 592.283809 378.19004 
L 597.356535 367.683536 
L 602.429262 373.350824 
L 607.50199 359.351253 
L 612.574716 358.606628 
L 617.647443 352.43856 
L 622.720171 358.256595 
L 627.792898 348.807527 
L 632.865625 334.789328 
" clip-path="url(#p9cd394436d)" style="fill: none; stroke: #1f77b4; stroke-linecap: square"/>
   </g>
   <g id="line2d_61"/>
   <g id="line2d_62"/>
   <g id="line2d_63"/>
   <g id="line2d_64"/>
   <g id="line2d_65"/>
   <g id="patch_5">
    <path d="M 46.965625 494.114688 
L 46.965625 50.594688 
" style="fill: none; stroke: #000000; stroke-width: 0.8; stroke-linejoin: miter; stroke-linecap: square"/>
   </g>
   <g id="patch_6">
    <path d="M 660.765625 494.114688 
L 660.765625 50.594688 
" style="fill: none; stroke: #000000; stroke-width: 0.8; stroke-linejoin: miter; stroke-linecap: square"/>
   </g>
   <g id="patch_7">
    <path d="M 46.965625 494.114688 
L 660.765625 494.114688 
" style="fill: none; stroke: #000000; stroke-width: 0.8; stroke-linejoin: miter; stroke-linecap: square"/>
   </g>
   <g id="patch_8">
    <path d="M 46.965625 50.594688 
L 660.765625 50.594688 
" style="fill: none; stroke: #000000; stroke-width: 0.8; stroke-linejoin: miter; stroke-linecap: square"/>
   </g>
   <g id="text_38">
    <!-- L1  -->
    <g style="fill: #ff0000" transform="translate(283.706204 492.035) scale(0.1 -0.1)">
     <defs>
      <path id="DejaVuSans-4c" d="M 628 4666 
L 1259 4666 
L 1259 531 
L 3531 531 
L 3531 0 
L 628 0 
L 628 4666 
z
" transform="scale(0.015625)"/>
     </defs>
     <use xlink:href="#DejaVuSans-4c"/>
     <use xlink:href="#DejaVuSans-31" x="55.712891"/>
     <use xlink:href="#DejaVuSans-20" x="119.335938"/>
    </g>
   </g>
   <g id="text_39">
    <!-- L2  -->
    <g style="fill: #ff0000" transform="translate(373.287435 492.035) scale(0.1 -0.1)">
     <use xlink:href="#DejaVuSans-4c"/>
     <use xlink:href="#DejaVuSans-32" x="55.712891"/>
     <use xlink:href="#DejaVuSans-20" x="119.335938"/>
    </g>
   </g>
   <g id="text_40">
    <!-- L3  -->
    <g style="fill: #ff0000" transform="translate(440.473359 492.035) scale(0.1 -0.1)">
     <use xlink:href="#DejaVuSans-4c"/>
     <use xlink:href="#DejaVuSans-33" x="55.712891"/>
     <use xlink:href="#DejaVuSans-20" x="119.335938"/>
    </g>
   </g>
   <g id="text_41">
    <!-- RAM -->
    <g style="fill: #ff0000" transform="translate(610.848438 492.035) scale(0.1 -0.1)">
     <defs>
      <path id="DejaVuSans-52" d="M 2841 2188 
Q 3044 2119 3236 1894 
Q 3428 1669 3622 1275 
L 4263 0 
L 3584 0 
L 2988 1197 
Q 2756 1666 2539 1819 
Q 2322 1972 1947 1972 
L 1259 1972 
L 1259 0 
L 628 0 
L 628 4666 
L 2053 4666 
Q 2853 4666 3247 4331 
Q 3641 3997 3641 3322 
Q 3641 2881 3436 2590 
Q 3231 2300 2841 2188 
z
M 1259 4147 
L 1259 2491 
L 2053 2491 
Q 2509 2491 2742 2702 
Q 2975 2913 2975 3322 
Q 2975 3731 2742 3939 
Q 2509 4147 2053 4147 
L 1259 4147 
z
" transform="scale(0.015625)"/>
      <path id="DejaVuSans-4d" d="M 628 4666 
L 1569 4666 
L 2759 1491 
L 3956 4666 
L 4897 4666 
L 4897 0 
L 4281 0 
L 4281 4097 
L 3078 897 
L 2444 897 
L 1241 4097 
L 1241 0 
L 628 0 
L 628 4666 
z
" transform="scale(0.015625)"/>
     </defs>
     <use xlink:href="#DejaVuSans-52"/>
     <use xlink:href="#DejaVuSans-41" x="65.482422"/>
     <use xlink:href="#DejaVuSans-4d" x="133.890625"/>
    </g>
   </g>
   <g id="text_42">
    <!-- Batched binsearch vs batched prefetched binsearch -->
    <g transform="translate(197.4625 16.318125) scale(0.12 -0.12)">
     <defs>
      <path id="DejaVuSans-42" d="M 1259 2228 
L 1259 519 
L 2272 519 
Q 2781 519 3026 730 
Q 3272 941 3272 1375 
Q 3272 1813 3026 2020 
Q 2781 2228 2272 2228 
L 1259 2228 
z
M 1259 4147 
L 1259 2741 
L 2194 2741 
Q 2656 2741 2882 2914 
Q 3109 3088 3109 3444 
Q 3109 3797 2882 3972 
Q 2656 4147 2194 4147 
L 1259 4147 
z
M 628 4666 
L 2241 4666 
Q 2963 4666 3353 4366 
Q 3744 4066 3744 3513 
Q 3744 3084 3544 2831 
Q 3344 2578 2956 2516 
Q 3422 2416 3680 2098 
Q 3938 1781 3938 1306 
Q 3938 681 3513 340 
Q 3088 0 2303 0 
L 628 0 
L 628 4666 
z
" transform="scale(0.015625)"/>
      <path id="DejaVuSans-63" d="M 3122 3366 
L 3122 2828 
Q 2878 2963 2633 3030 
Q 2388 3097 2138 3097 
Q 1578 3097 1268 2742 
Q 959 2388 959 1747 
Q 959 1106 1268 751 
Q 1578 397 2138 397 
Q 2388 397 2633 464 
Q 2878 531 3122 666 
L 3122 134 
Q 2881 22 2623 -34 
Q 2366 -91 2075 -91 
Q 1284 -91 818 406 
Q 353 903 353 1747 
Q 353 2603 823 3093 
Q 1294 3584 2113 3584 
Q 2378 3584 2631 3529 
Q 2884 3475 3122 3366 
z
" transform="scale(0.015625)"/>
      <path id="DejaVuSans-64" d="M 2906 2969 
L 2906 4863 
L 3481 4863 
L 3481 0 
L 2906 0 
L 2906 525 
Q 2725 213 2448 61 
Q 2172 -91 1784 -91 
Q 1150 -91 751 415 
Q 353 922 353 1747 
Q 353 2572 751 3078 
Q 1150 3584 1784 3584 
Q 2172 3584 2448 3432 
Q 2725 3281 2906 2969 
z
M 947 1747 
Q 947 1113 1208 752 
Q 1469 391 1925 391 
Q 2381 391 2643 752 
Q 2906 1113 2906 1747 
Q 2906 2381 2643 2742 
Q 2381 3103 1925 3103 
Q 1469 3103 1208 2742 
Q 947 2381 947 1747 
z
" transform="scale(0.015625)"/>
      <path id="DejaVuSans-66" d="M 2375 4863 
L 2375 4384 
L 1825 4384 
Q 1516 4384 1395 4259 
Q 1275 4134 1275 3809 
L 1275 3500 
L 2222 3500 
L 2222 3053 
L 1275 3053 
L 1275 0 
L 697 0 
L 697 3053 
L 147 3053 
L 147 3500 
L 697 3500 
L 697 3744 
Q 697 4328 969 4595 
Q 1241 4863 1831 4863 
L 2375 4863 
z
" transform="scale(0.015625)"/>
     </defs>
     <use xlink:href="#DejaVuSans-42"/>
     <use xlink:href="#DejaVuSans-61" x="68.603516"/>
     <use xlink:href="#DejaVuSans-74" x="129.882812"/>
     <use xlink:href="#DejaVuSans-63" x="169.091797"/>
     <use xlink:href="#DejaVuSans-68" x="224.072266"/>
     <use xlink:href="#DejaVuSans-65" x="287.451172"/>
     <use xlink:href="#DejaVuSans-64" x="348.974609"/>
     <use xlink:href="#DejaVuSans-20" x="412.451172"/>
     <use xlink:href="#DejaVuSans-62" x="444.238281"/>
     <use xlink:href="#DejaVuSans-69" x="507.714844"/>
     <use xlink:href="#DejaVuSans-6e" x="535.498047"/>
     <use xlink:href="#DejaVuSans-73" x="598.876953"/>
     <use xlink:href="#DejaVuSans-65" x="650.976562"/>
     <use xlink:href="#DejaVuSans-61" x="712.5"/>
     <use xlink:href="#DejaVuSans-72" x="773.779297"/>
     <use xlink:href="#DejaVuSans-63" x="812.642578"/>
     <use xlink:href="#DejaVuSans-68" x="867.623047"/>
     <use xlink:href="#DejaVuSans-20" x="931.001953"/>
     <use xlink:href="#DejaVuSans-76" x="962.789062"/>
     <use xlink:href="#DejaVuSans-73" x="1021.96875"/>
     <use xlink:href="#DejaVuSans-20" x="1074.068359"/>
     <use xlink:href="#DejaVuSans-62" x="1105.855469"/>
     <use xlink:href="#DejaVuSans-61" x="1169.332031"/>
     <use xlink:href="#DejaVuSans-74" x="1230.611328"/>
     <use xlink:href="#DejaVuSans-63" x="1269.820312"/>
     <use xlink:href="#DejaVuSans-68" x="1324.800781"/>
     <use xlink:href="#DejaVuSans-65" x="1388.179688"/>
     <use xlink:href="#DejaVuSans-64" x="1449.703125"/>
     <use xlink:href="#DejaVuSans-20" x="1513.179688"/>
     <use xlink:href="#DejaVuSans-70" x="1544.966797"/>
     <use xlink:href="#DejaVuSans-72" x="1608.443359"/>
     <use xlink:href="#DejaVuSans-65" x="1647.306641"/>
     <use xlink:href="#DejaVuSans-66" x="1708.830078"/>
     <use xlink:href="#DejaVuSans-65" x="1744.035156"/>
     <use xlink:href="#DejaVuSans-74" x="1805.558594"/>
     <use xlink:href="#DejaVuSans-63" x="1844.767578"/>
     <use xlink:href="#DejaVuSans-68" x="1899.748047"/>
     <use xlink:href="#DejaVuSans-65" x="1963.126953"/>
     <use xlink:href="#DejaVuSans-64" x="2024.650391"/>
     <use xlink:href="#DejaVuSans-20" x="2088.126953"/>
     <use xlink:href="#DejaVuSans-62" x="2119.914062"/>
     <use xlink:href="#DejaVuSans-69" x="2183.390625"/>
     <use xlink:href="#DejaVuSans-6e" x="2211.173828"/>
     <use xlink:href="#DejaVuSans-73" x="2274.552734"/>
     <use xlink:href="#DejaVuSans-65" x="2326.652344"/>
     <use xlink:href="#DejaVuSans-61" x="2388.175781"/>
     <use xlink:href="#DejaVuSans-72" x="2449.455078"/>
     <use xlink:href="#DejaVuSans-63" x="2488.318359"/>
     <use xlink:href="#DejaVuSans-68" x="2543.298828"/>
    </g>
   </g>
   <g id="legend_1">
    <g id="patch_9">
     <path d="M 53.965625 103.463438 
L 542.70625 103.463438 
Q 544.70625 103.463438 544.70625 101.463438 
L 544.70625 57.594688 
Q 544.70625 55.594688 542.70625 55.594688 
L 53.965625 55.594688 
Q 51.965625 55.594688 51.965625 57.594688 
L 51.965625 101.463438 
Q 51.965625 103.463438 53.965625 103.463438 
L 53.965625 103.463438 
z
" style="fill: none; opacity: 0"/>
    </g>
    <g id="line2d_66">
     <path d="M 55.965625 63.693125 
L 65.965625 63.693125 
L 75.965625 63.693125 
" style="fill: none; stroke: #1f77b4; stroke-width: 1.5; stroke-linecap: square"/>
    </g>
    <g id="text_43">
     <!-- SortedVec::binary_search_branchless_prefetch -->
     <g transform="translate(83.965625 67.193125) scale(0.1 -0.1)">
      <defs>
       <path id="DejaVuSans-53" d="M 3425 4513 
L 3425 3897 
Q 3066 4069 2747 4153 
Q 2428 4238 2131 4238 
Q 1616 4238 1336 4038 
Q 1056 3838 1056 3469 
Q 1056 3159 1242 3001 
Q 1428 2844 1947 2747 
L 2328 2669 
Q 3034 2534 3370 2195 
Q 3706 1856 3706 1288 
Q 3706 609 3251 259 
Q 2797 -91 1919 -91 
Q 1588 -91 1214 -16 
Q 841 59 441 206 
L 441 856 
Q 825 641 1194 531 
Q 1563 422 1919 422 
Q 2459 422 2753 634 
Q 3047 847 3047 1241 
Q 3047 1584 2836 1778 
Q 2625 1972 2144 2069 
L 1759 2144 
Q 1053 2284 737 2584 
Q 422 2884 422 3419 
Q 422 4038 858 4394 
Q 1294 4750 2059 4750 
Q 2388 4750 2728 4690 
Q 3069 4631 3425 4513 
z
" transform="scale(0.015625)"/>
       <path id="DejaVuSans-56" d="M 1831 0 
L 50 4666 
L 709 4666 
L 2188 738 
L 3669 4666 
L 4325 4666 
L 2547 0 
L 1831 0 
z
" transform="scale(0.015625)"/>
       <path id="DejaVuSans-3a" d="M 750 794 
L 1409 794 
L 1409 0 
L 750 0 
L 750 794 
z
M 750 3309 
L 1409 3309 
L 1409 2516 
L 750 2516 
L 750 3309 
z
" transform="scale(0.015625)"/>
       <path id="DejaVuSans-5f" d="M 3263 -1063 
L 3263 -1509 
L -63 -1509 
L -63 -1063 
L 3263 -1063 
z
" transform="scale(0.015625)"/>
      </defs>
      <use xlink:href="#DejaVuSans-53"/>
      <use xlink:href="#DejaVuSans-6f" x="63.476562"/>
      <use xlink:href="#DejaVuSans-72" x="124.658203"/>
      <use xlink:href="#DejaVuSans-74" x="165.771484"/>
      <use xlink:href="#DejaVuSans-65" x="204.980469"/>
      <use xlink:href="#DejaVuSans-64" x="266.503906"/>
      <use xlink:href="#DejaVuSans-56" x="329.980469"/>
      <use xlink:href="#DejaVuSans-65" x="390.638672"/>
      <use xlink:href="#DejaVuSans-63" x="452.162109"/>
      <use xlink:href="#DejaVuSans-3a" x="507.142578"/>
      <use xlink:href="#DejaVuSans-3a" x="540.833984"/>
      <use xlink:href="#DejaVuSans-62" x="574.525391"/>
      <use xlink:href="#DejaVuSans-69" x="638.001953"/>
      <use xlink:href="#DejaVuSans-6e" x="665.785156"/>
      <use xlink:href="#DejaVuSans-61" x="729.164062"/>
      <use xlink:href="#DejaVuSans-72" x="790.443359"/>
      <use xlink:href="#DejaVuSans-79" x="831.556641"/>
      <use xlink:href="#DejaVuSans-5f" x="890.736328"/>
      <use xlink:href="#DejaVuSans-73" x="940.736328"/>
      <use xlink:href="#DejaVuSans-65" x="992.835938"/>
      <use xlink:href="#DejaVuSans-61" x="1054.359375"/>
      <use xlink:href="#DejaVuSans-72" x="1115.638672"/>
      <use xlink:href="#DejaVuSans-63" x="1154.501953"/>
      <use xlink:href="#DejaVuSans-68" x="1209.482422"/>
      <use xlink:href="#DejaVuSans-5f" x="1272.861328"/>
      <use xlink:href="#DejaVuSans-62" x="1322.861328"/>
      <use xlink:href="#DejaVuSans-72" x="1386.337891"/>
      <use xlink:href="#DejaVuSans-61" x="1427.451172"/>
      <use xlink:href="#DejaVuSans-6e" x="1488.730469"/>
      <use xlink:href="#DejaVuSans-63" x="1552.109375"/>
      <use xlink:href="#DejaVuSans-68" x="1607.089844"/>
      <use xlink:href="#DejaVuSans-6c" x="1670.46875"/>
      <use xlink:href="#DejaVuSans-65" x="1698.251953"/>
      <use xlink:href="#DejaVuSans-73" x="1759.775391"/>
      <use xlink:href="#DejaVuSans-73" x="1811.875"/>
      <use xlink:href="#DejaVuSans-5f" x="1863.974609"/>
      <use xlink:href="#DejaVuSans-70" x="1913.974609"/>
      <use xlink:href="#DejaVuSans-72" x="1977.451172"/>
      <use xlink:href="#DejaVuSans-65" x="2016.314453"/>
      <use xlink:href="#DejaVuSans-66" x="2077.837891"/>
      <use xlink:href="#DejaVuSans-65" x="2113.042969"/>
      <use xlink:href="#DejaVuSans-74" x="2174.566406"/>
      <use xlink:href="#DejaVuSans-63" x="2213.775391"/>
      <use xlink:href="#DejaVuSans-68" x="2268.755859"/>
     </g>
    </g>
    <g id="line2d_67">
     <path d="M 55.965625 78.649375 
L 65.965625 78.649375 
L 75.965625 78.649375 
" style="fill: none; stroke: #ff7f0e; stroke-width: 1.5; stroke-linecap: square"/>
    </g>
    <g id="text_44">
     <!-- Batched&lt;32, SortedVec, SortedVec::batch_impl_binary_search_branchless_prefetch&lt;32&gt;&gt; -->
     <g transform="translate(83.965625 82.149375) scale(0.1 -0.1)">
      <defs>
       <path id="DejaVuSans-3c" d="M 4684 3150 
L 1459 2003 
L 4684 863 
L 4684 294 
L 678 1747 
L 678 2266 
L 4684 3719 
L 4684 3150 
z
" transform="scale(0.015625)"/>
       <path id="DejaVuSans-2c" d="M 750 794 
L 1409 794 
L 1409 256 
L 897 -744 
L 494 -744 
L 750 256 
L 750 794 
z
" transform="scale(0.015625)"/>
       <path id="DejaVuSans-6d" d="M 3328 2828 
Q 3544 3216 3844 3400 
Q 4144 3584 4550 3584 
Q 5097 3584 5394 3201 
Q 5691 2819 5691 2113 
L 5691 0 
L 5113 0 
L 5113 2094 
Q 5113 2597 4934 2840 
Q 4756 3084 4391 3084 
Q 3944 3084 3684 2787 
Q 3425 2491 3425 1978 
L 3425 0 
L 2847 0 
L 2847 2094 
Q 2847 2600 2669 2842 
Q 2491 3084 2119 3084 
Q 1678 3084 1418 2786 
Q 1159 2488 1159 1978 
L 1159 0 
L 581 0 
L 581 3500 
L 1159 3500 
L 1159 2956 
Q 1356 3278 1631 3431 
Q 1906 3584 2284 3584 
Q 2666 3584 2933 3390 
Q 3200 3197 3328 2828 
z
" transform="scale(0.015625)"/>
       <path id="DejaVuSans-3e" d="M 678 3150 
L 678 3719 
L 4684 2266 
L 4684 1747 
L 678 294 
L 678 863 
L 3897 2003 
L 678 3150 
z
" transform="scale(0.015625)"/>
      </defs>
      <use xlink:href="#DejaVuSans-42"/>
      <use xlink:href="#DejaVuSans-61" x="68.603516"/>
      <use xlink:href="#DejaVuSans-74" x="129.882812"/>
      <use xlink:href="#DejaVuSans-63" x="169.091797"/>
      <use xlink:href="#DejaVuSans-68" x="224.072266"/>
      <use xlink:href="#DejaVuSans-65" x="287.451172"/>
      <use xlink:href="#DejaVuSans-64" x="348.974609"/>
      <use xlink:href="#DejaVuSans-3c" x="412.451172"/>
      <use xlink:href="#DejaVuSans-33" x="496.240234"/>
      <use xlink:href="#DejaVuSans-32" x="559.863281"/>
      <use xlink:href="#DejaVuSans-2c" x="623.486328"/>
      <use xlink:href="#DejaVuSans-20" x="655.273438"/>
      <use xlink:href="#DejaVuSans-53" x="687.060547"/>
      <use xlink:href="#DejaVuSans-6f" x="750.537109"/>
      <use xlink:href="#DejaVuSans-72" x="811.71875"/>
      <use xlink:href="#DejaVuSans-74" x="852.832031"/>
      <use xlink:href="#DejaVuSans-65" x="892.041016"/>
      <use xlink:href="#DejaVuSans-64" x="953.564453"/>
      <use xlink:href="#DejaVuSans-56" x="1017.041016"/>
      <use xlink:href="#DejaVuSans-65" x="1077.699219"/>
      <use xlink:href="#DejaVuSans-63" x="1139.222656"/>
      <use xlink:href="#DejaVuSans-2c" x="1194.203125"/>
      <use xlink:href="#DejaVuSans-20" x="1225.990234"/>
      <use xlink:href="#DejaVuSans-53" x="1257.777344"/>
      <use xlink:href="#DejaVuSans-6f" x="1321.253906"/>
      <use xlink:href="#DejaVuSans-72" x="1382.435547"/>
      <use xlink:href="#DejaVuSans-74" x="1423.548828"/>
      <use xlink:href="#DejaVuSans-65" x="1462.757812"/>
      <use xlink:href="#DejaVuSans-64" x="1524.28125"/>
      <use xlink:href="#DejaVuSans-56" x="1587.757812"/>
      <use xlink:href="#DejaVuSans-65" x="1648.416016"/>
      <use xlink:href="#DejaVuSans-63" x="1709.939453"/>
      <use xlink:href="#DejaVuSans-3a" x="1764.919922"/>
      <use xlink:href="#DejaVuSans-3a" x="1798.611328"/>
      <use xlink:href="#DejaVuSans-62" x="1832.302734"/>
      <use xlink:href="#DejaVuSans-61" x="1895.779297"/>
      <use xlink:href="#DejaVuSans-74" x="1957.058594"/>
      <use xlink:href="#DejaVuSans-63" x="1996.267578"/>
      <use xlink:href="#DejaVuSans-68" x="2051.248047"/>
      <use xlink:href="#DejaVuSans-5f" x="2114.626953"/>
      <use xlink:href="#DejaVuSans-69" x="2164.626953"/>
      <use xlink:href="#DejaVuSans-6d" x="2192.410156"/>
      <use xlink:href="#DejaVuSans-70" x="2289.822266"/>
      <use xlink:href="#DejaVuSans-6c" x="2353.298828"/>
      <use xlink:href="#DejaVuSans-5f" x="2381.082031"/>
      <use xlink:href="#DejaVuSans-62" x="2431.082031"/>
      <use xlink:href="#DejaVuSans-69" x="2494.558594"/>
      <use xlink:href="#DejaVuSans-6e" x="2522.341797"/>
      <use xlink:href="#DejaVuSans-61" x="2585.720703"/>
      <use xlink:href="#DejaVuSans-72" x="2647"/>
      <use xlink:href="#DejaVuSans-79" x="2688.113281"/>
      <use xlink:href="#DejaVuSans-5f" x="2747.292969"/>
      <use xlink:href="#DejaVuSans-73" x="2797.292969"/>
      <use xlink:href="#DejaVuSans-65" x="2849.392578"/>
      <use xlink:href="#DejaVuSans-61" x="2910.916016"/>
      <use xlink:href="#DejaVuSans-72" x="2972.195312"/>
      <use xlink:href="#DejaVuSans-63" x="3011.058594"/>
      <use xlink:href="#DejaVuSans-68" x="3066.039062"/>
      <use xlink:href="#DejaVuSans-5f" x="3129.417969"/>
      <use xlink:href="#DejaVuSans-62" x="3179.417969"/>
      <use xlink:href="#DejaVuSans-72" x="3242.894531"/>
      <use xlink:href="#DejaVuSans-61" x="3284.007812"/>
      <use xlink:href="#DejaVuSans-6e" x="3345.287109"/>
      <use xlink:href="#DejaVuSans-63" x="3408.666016"/>
      <use xlink:href="#DejaVuSans-68" x="3463.646484"/>
      <use xlink:href="#DejaVuSans-6c" x="3527.025391"/>
      <use xlink:href="#DejaVuSans-65" x="3554.808594"/>
      <use xlink:href="#DejaVuSans-73" x="3616.332031"/>
      <use xlink:href="#DejaVuSans-73" x="3668.431641"/>
      <use xlink:href="#DejaVuSans-5f" x="3720.53125"/>
      <use xlink:href="#DejaVuSans-70" x="3770.53125"/>
      <use xlink:href="#DejaVuSans-72" x="3834.007812"/>
      <use xlink:href="#DejaVuSans-65" x="3872.871094"/>
      <use xlink:href="#DejaVuSans-66" x="3934.394531"/>
      <use xlink:href="#DejaVuSans-65" x="3969.599609"/>
      <use xlink:href="#DejaVuSans-74" x="4031.123047"/>
      <use xlink:href="#DejaVuSans-63" x="4070.332031"/>
      <use xlink:href="#DejaVuSans-68" x="4125.3125"/>
      <use xlink:href="#DejaVuSans-3c" x="4188.691406"/>
      <use xlink:href="#DejaVuSans-33" x="4272.480469"/>
      <use xlink:href="#DejaVuSans-32" x="4336.103516"/>
      <use xlink:href="#DejaVuSans-3e" x="4399.726562"/>
      <use xlink:href="#DejaVuSans-3e" x="4483.515625"/>
     </g>
    </g>
    <g id="line2d_68">
     <path d="M 55.965625 93.605625 
L 65.965625 93.605625 
L 75.965625 93.605625 
" style="fill: none; stroke: #1f77b4; stroke-width: 1.5; stroke-linecap: square"/>
    </g>
    <g id="text_45">
     <!-- Batched&lt;32, SortedVec, SortedVec::batch_impl_binary_search_branchless&lt;32&gt;&gt; -->
     <g transform="translate(83.965625 97.105625) scale(0.1 -0.1)">
      <use xlink:href="#DejaVuSans-42"/>
      <use xlink:href="#DejaVuSans-61" x="68.603516"/>
      <use xlink:href="#DejaVuSans-74" x="129.882812"/>
      <use xlink:href="#DejaVuSans-63" x="169.091797"/>
      <use xlink:href="#DejaVuSans-68" x="224.072266"/>
      <use xlink:href="#DejaVuSans-65" x="287.451172"/>
      <use xlink:href="#DejaVuSans-64" x="348.974609"/>
      <use xlink:href="#DejaVuSans-3c" x="412.451172"/>
      <use xlink:href="#DejaVuSans-33" x="496.240234"/>
      <use xlink:href="#DejaVuSans-32" x="559.863281"/>
      <use xlink:href="#DejaVuSans-2c" x="623.486328"/>
      <use xlink:href="#DejaVuSans-20" x="655.273438"/>
      <use xlink:href="#DejaVuSans-53" x="687.060547"/>
      <use xlink:href="#DejaVuSans-6f" x="750.537109"/>
      <use xlink:href="#DejaVuSans-72" x="811.71875"/>
      <use xlink:href="#DejaVuSans-74" x="852.832031"/>
      <use xlink:href="#DejaVuSans-65" x="892.041016"/>
      <use xlink:href="#DejaVuSans-64" x="953.564453"/>
      <use xlink:href="#DejaVuSans-56" x="1017.041016"/>
      <use xlink:href="#DejaVuSans-65" x="1077.699219"/>
      <use xlink:href="#DejaVuSans-63" x="1139.222656"/>
      <use xlink:href="#DejaVuSans-2c" x="1194.203125"/>
      <use xlink:href="#DejaVuSans-20" x="1225.990234"/>
      <use xlink:href="#DejaVuSans-53" x="1257.777344"/>
      <use xlink:href="#DejaVuSans-6f" x="1321.253906"/>
      <use xlink:href="#DejaVuSans-72" x="1382.435547"/>
      <use xlink:href="#DejaVuSans-74" x="1423.548828"/>
      <use xlink:href="#DejaVuSans-65" x="1462.757812"/>
      <use xlink:href="#DejaVuSans-64" x="1524.28125"/>
      <use xlink:href="#DejaVuSans-56" x="1587.757812"/>
      <use xlink:href="#DejaVuSans-65" x="1648.416016"/>
      <use xlink:href="#DejaVuSans-63" x="1709.939453"/>
      <use xlink:href="#DejaVuSans-3a" x="1764.919922"/>
      <use xlink:href="#DejaVuSans-3a" x="1798.611328"/>
      <use xlink:href="#DejaVuSans-62" x="1832.302734"/>
      <use xlink:href="#DejaVuSans-61" x="1895.779297"/>
      <use xlink:href="#DejaVuSans-74" x="1957.058594"/>
      <use xlink:href="#DejaVuSans-63" x="1996.267578"/>
      <use xlink:href="#DejaVuSans-68" x="2051.248047"/>
      <use xlink:href="#DejaVuSans-5f" x="2114.626953"/>
      <use xlink:href="#DejaVuSans-69" x="2164.626953"/>
      <use xlink:href="#DejaVuSans-6d" x="2192.410156"/>
      <use xlink:href="#DejaVuSans-70" x="2289.822266"/>
      <use xlink:href="#DejaVuSans-6c" x="2353.298828"/>
      <use xlink:href="#DejaVuSans-5f" x="2381.082031"/>
      <use xlink:href="#DejaVuSans-62" x="2431.082031"/>
      <use xlink:href="#DejaVuSans-69" x="2494.558594"/>
      <use xlink:href="#DejaVuSans-6e" x="2522.341797"/>
      <use xlink:href="#DejaVuSans-61" x="2585.720703"/>
      <use xlink:href="#DejaVuSans-72" x="2647"/>
      <use xlink:href="#DejaVuSans-79" x="2688.113281"/>
      <use xlink:href="#DejaVuSans-5f" x="2747.292969"/>
      <use xlink:href="#DejaVuSans-73" x="2797.292969"/>
      <use xlink:href="#DejaVuSans-65" x="2849.392578"/>
      <use xlink:href="#DejaVuSans-61" x="2910.916016"/>
      <use xlink:href="#DejaVuSans-72" x="2972.195312"/>
      <use xlink:href="#DejaVuSans-63" x="3011.058594"/>
      <use xlink:href="#DejaVuSans-68" x="3066.039062"/>
      <use xlink:href="#DejaVuSans-5f" x="3129.417969"/>
      <use xlink:href="#DejaVuSans-62" x="3179.417969"/>
      <use xlink:href="#DejaVuSans-72" x="3242.894531"/>
      <use xlink:href="#DejaVuSans-61" x="3284.007812"/>
      <use xlink:href="#DejaVuSans-6e" x="3345.287109"/>
      <use xlink:href="#DejaVuSans-63" x="3408.666016"/>
      <use xlink:href="#DejaVuSans-68" x="3463.646484"/>
      <use xlink:href="#DejaVuSans-6c" x="3527.025391"/>
      <use xlink:href="#DejaVuSans-65" x="3554.808594"/>
      <use xlink:href="#DejaVuSans-73" x="3616.332031"/>
      <use xlink:href="#DejaVuSans-73" x="3668.431641"/>
      <use xlink:href="#DejaVuSans-3c" x="3720.53125"/>
      <use xlink:href="#DejaVuSans-33" x="3804.320312"/>
      <use xlink:href="#DejaVuSans-32" x="3867.943359"/>
      <use xlink:href="#DejaVuSans-3e" x="3931.566406"/>
      <use xlink:href="#DejaVuSans-3e" x="4015.355469"/>
     </g>
    </g>
   </g>
  </g>
 </g>
 <defs>
  <clipPath id="p9cd394436d">
   <rect x="46.965625" y="50.594688" width="613.8" height="443.52"/>
  </clipPath>
 </defs>
</svg>
