<?xml version="1.0" encoding="utf-8" standalone="no"?>
<!DOCTYPE svg PUBLIC "-//W3C//DTD SVG 1.1//EN"
  "http://www.w3.org/Graphics/SVG/1.1/DTD/svg11.dtd">
<svg xmlns:xlink="http://www.w3.org/1999/xlink" width="674.328125pt" height="531.670938pt" viewBox="0 0 674.328125 531.670938" xmlns="http://www.w3.org/2000/svg" version="1.1">
 <metadata>
  <rdf:RDF xmlns:dc="http://purl.org/dc/elements/1.1/" xmlns:cc="http://creativecommons.org/ns#" xmlns:rdf="http://www.w3.org/1999/02/22-rdf-syntax-ns#">
   <cc:Work>
    <dc:type rdf:resource="http://purl.org/dc/dcmitype/StillImage"/>
    <dc:date>2025-02-28T22:31:30.331335</dc:date>
    <dc:format>image/svg+xml</dc:format>
    <dc:creator>
     <cc:Agent>
      <dc:title>Matplotlib v3.9.2, https://matplotlib.org/</dc:title>
     </cc:Agent>
    </dc:creator>
   </cc:Work>
  </rdf:RDF>
 </metadata>
 <defs>
  <style type="text/css">*{stroke-linejoin: round; stroke-linecap: butt}</style>
 </defs>
 <g id="figure_1">
  <g id="patch_1">
   <path d="M 0 531.670938 
L 674.328125 531.670938 
L 674.328125 0 
L 0 0 
z
" style="fill: #ffffff"/>
  </g>
  <g id="axes_1">
   <g id="patch_2">
    <path d="M 53.328125 494.114688 
L 667.128125 494.114688 
L 667.128125 50.594688 
L 53.328125 50.594688 
z
" style="fill: #ffffff"/>
   </g>
   <g id="line2d_1">
    <path d="M 305.181204 494.114688 
L 305.181204 50.594688 
" clip-path="url(#p7a1094a25d)" style="fill: none; stroke-dasharray: 5.55,2.4; stroke-dashoffset: 0; stroke: #ff0000; stroke-width: 1.5"/>
   </g>
   <g id="line2d_2">
    <path d="M 394.762435 494.114688 
L 394.762435 50.594688 
" clip-path="url(#p7a1094a25d)" style="fill: none; stroke-dasharray: 5.55,2.4; stroke-dashoffset: 0; stroke: #ff0000; stroke-width: 1.5"/>
   </g>
   <g id="line2d_3">
    <path d="M 461.948359 494.114688 
L 461.948359 50.594688 
" clip-path="url(#p7a1094a25d)" style="fill: none; stroke-dasharray: 5.55,2.4; stroke-dashoffset: 0; stroke: #ff0000; stroke-width: 1.5"/>
   </g>
   <g id="axes_2">
    <g id="patch_3">
     <path d="M 53.328125 50.594688 
L 667.128125 50.594688 
L 667.128125 50.594687 
L 53.328125 50.594687 
z
" style="fill: #ffffff"/>
    </g>
    <g id="matplotlib.axis_1">
     <g id="xtick_1">
      <g id="line2d_4">
       <defs>
        <path id="m8e253a18ff" d="M 0 0 
L 0 -3.5 
" style="stroke: #000000; stroke-width: 0.8"/>
       </defs>
       <g>
        <use xlink:href="#m8e253a18ff" x="58.832817" y="50.594687" style="stroke: #000000; stroke-width: 0.8"/>
       </g>
      </g>
      <g id="text_1">
       <!-- $\mathdefault{2^{2}}$ -->
       <g transform="translate(53.232817 41.515) scale(0.1 -0.1)">
        <defs>
         <path id="DejaVuSans-32" d="M 1228 531 
L 3431 531 
L 3431 0 
L 469 0 
L 469 531 
Q 828 903 1448 1529 
Q 2069 2156 2228 2338 
Q 2531 2678 2651 2914 
Q 2772 3150 2772 3378 
Q 2772 3750 2511 3984 
Q 2250 4219 1831 4219 
Q 1534 4219 1204 4116 
Q 875 4013 500 3803 
L 500 4441 
Q 881 4594 1212 4672 
Q 1544 4750 1819 4750 
Q 2544 4750 2975 4387 
Q 3406 4025 3406 3419 
Q 3406 3131 3298 2873 
Q 3191 2616 2906 2266 
Q 2828 2175 2409 1742 
Q 1991 1309 1228 531 
z
" transform="scale(0.015625)"/>
        </defs>
        <use xlink:href="#DejaVuSans-32" transform="translate(0 0.765625)"/>
        <use xlink:href="#DejaVuSans-32" transform="translate(64.580078 39.046875) scale(0.7)"/>
       </g>
      </g>
     </g>
     <g id="xtick_2">
      <g id="line2d_5">
       <g>
        <use xlink:href="#m8e253a18ff" x="103.623433" y="50.594687" style="stroke: #000000; stroke-width: 0.8"/>
       </g>
      </g>
      <g id="text_2">
       <!-- $\mathdefault{2^{4}}$ -->
       <g transform="translate(98.023433 41.515) scale(0.1 -0.1)">
        <defs>
         <path id="DejaVuSans-34" d="M 2419 4116 
L 825 1625 
L 2419 1625 
L 2419 4116 
z
M 2253 4666 
L 3047 4666 
L 3047 1625 
L 3713 1625 
L 3713 1100 
L 3047 1100 
L 3047 0 
L 2419 0 
L 2419 1100 
L 313 1100 
L 313 1709 
L 2253 4666 
z
" transform="scale(0.015625)"/>
        </defs>
        <use xlink:href="#DejaVuSans-32" transform="translate(0 0.684375)"/>
        <use xlink:href="#DejaVuSans-34" transform="translate(64.580078 38.965625) scale(0.7)"/>
       </g>
      </g>
     </g>
     <g id="xtick_3">
      <g id="line2d_6">
       <g>
        <use xlink:href="#m8e253a18ff" x="148.414049" y="50.594687" style="stroke: #000000; stroke-width: 0.8"/>
       </g>
      </g>
      <g id="text_3">
       <!-- $\mathdefault{2^{6}}$ -->
       <g transform="translate(142.814049 41.515) scale(0.1 -0.1)">
        <defs>
         <path id="DejaVuSans-36" d="M 2113 2584 
Q 1688 2584 1439 2293 
Q 1191 2003 1191 1497 
Q 1191 994 1439 701 
Q 1688 409 2113 409 
Q 2538 409 2786 701 
Q 3034 994 3034 1497 
Q 3034 2003 2786 2293 
Q 2538 2584 2113 2584 
z
M 3366 4563 
L 3366 3988 
Q 3128 4100 2886 4159 
Q 2644 4219 2406 4219 
Q 1781 4219 1451 3797 
Q 1122 3375 1075 2522 
Q 1259 2794 1537 2939 
Q 1816 3084 2150 3084 
Q 2853 3084 3261 2657 
Q 3669 2231 3669 1497 
Q 3669 778 3244 343 
Q 2819 -91 2113 -91 
Q 1303 -91 875 529 
Q 447 1150 447 2328 
Q 447 3434 972 4092 
Q 1497 4750 2381 4750 
Q 2619 4750 2861 4703 
Q 3103 4656 3366 4563 
z
" transform="scale(0.015625)"/>
        </defs>
        <use xlink:href="#DejaVuSans-32" transform="translate(0 0.765625)"/>
        <use xlink:href="#DejaVuSans-36" transform="translate(64.580078 39.046875) scale(0.7)"/>
       </g>
      </g>
     </g>
     <g id="xtick_4">
      <g id="line2d_7">
       <g>
        <use xlink:href="#m8e253a18ff" x="193.204664" y="50.594687" style="stroke: #000000; stroke-width: 0.8"/>
       </g>
      </g>
      <g id="text_4">
       <!-- $\mathdefault{2^{8}}$ -->
       <g transform="translate(187.604664 41.515) scale(0.1 -0.1)">
        <defs>
         <path id="DejaVuSans-38" d="M 2034 2216 
Q 1584 2216 1326 1975 
Q 1069 1734 1069 1313 
Q 1069 891 1326 650 
Q 1584 409 2034 409 
Q 2484 409 2743 651 
Q 3003 894 3003 1313 
Q 3003 1734 2745 1975 
Q 2488 2216 2034 2216 
z
M 1403 2484 
Q 997 2584 770 2862 
Q 544 3141 544 3541 
Q 544 4100 942 4425 
Q 1341 4750 2034 4750 
Q 2731 4750 3128 4425 
Q 3525 4100 3525 3541 
Q 3525 3141 3298 2862 
Q 3072 2584 2669 2484 
Q 3125 2378 3379 2068 
Q 3634 1759 3634 1313 
Q 3634 634 3220 271 
Q 2806 -91 2034 -91 
Q 1263 -91 848 271 
Q 434 634 434 1313 
Q 434 1759 690 2068 
Q 947 2378 1403 2484 
z
M 1172 3481 
Q 1172 3119 1398 2916 
Q 1625 2713 2034 2713 
Q 2441 2713 2670 2916 
Q 2900 3119 2900 3481 
Q 2900 3844 2670 4047 
Q 2441 4250 2034 4250 
Q 1625 4250 1398 4047 
Q 1172 3844 1172 3481 
z
" transform="scale(0.015625)"/>
        </defs>
        <use xlink:href="#DejaVuSans-32" transform="translate(0 0.765625)"/>
        <use xlink:href="#DejaVuSans-38" transform="translate(64.580078 39.046875) scale(0.7)"/>
       </g>
      </g>
     </g>
     <g id="xtick_5">
      <g id="line2d_8">
       <g>
        <use xlink:href="#m8e253a18ff" x="237.99528" y="50.594687" style="stroke: #000000; stroke-width: 0.8"/>
       </g>
      </g>
      <g id="text_5">
       <!-- $\mathdefault{2^{10}}$ -->
       <g transform="translate(230.14528 41.515) scale(0.1 -0.1)">
        <defs>
         <path id="DejaVuSans-31" d="M 794 531 
L 1825 531 
L 1825 4091 
L 703 3866 
L 703 4441 
L 1819 4666 
L 2450 4666 
L 2450 531 
L 3481 531 
L 3481 0 
L 794 0 
L 794 531 
z
" transform="scale(0.015625)"/>
         <path id="DejaVuSans-30" d="M 2034 4250 
Q 1547 4250 1301 3770 
Q 1056 3291 1056 2328 
Q 1056 1369 1301 889 
Q 1547 409 2034 409 
Q 2525 409 2770 889 
Q 3016 1369 3016 2328 
Q 3016 3291 2770 3770 
Q 2525 4250 2034 4250 
z
M 2034 4750 
Q 2819 4750 3233 4129 
Q 3647 3509 3647 2328 
Q 3647 1150 3233 529 
Q 2819 -91 2034 -91 
Q 1250 -91 836 529 
Q 422 1150 422 2328 
Q 422 3509 836 4129 
Q 1250 4750 2034 4750 
z
" transform="scale(0.015625)"/>
        </defs>
        <use xlink:href="#DejaVuSans-32" transform="translate(0 0.765625)"/>
        <use xlink:href="#DejaVuSans-31" transform="translate(64.580078 39.046875) scale(0.7)"/>
        <use xlink:href="#DejaVuSans-30" transform="translate(109.116211 39.046875) scale(0.7)"/>
       </g>
      </g>
     </g>
     <g id="xtick_6">
      <g id="line2d_9">
       <g>
        <use xlink:href="#m8e253a18ff" x="282.785896" y="50.594687" style="stroke: #000000; stroke-width: 0.8"/>
       </g>
      </g>
      <g id="text_6">
       <!-- $\mathdefault{2^{12}}$ -->
       <g transform="translate(274.935896 41.515) scale(0.1 -0.1)">
        <use xlink:href="#DejaVuSans-32" transform="translate(0 0.765625)"/>
        <use xlink:href="#DejaVuSans-31" transform="translate(64.580078 39.046875) scale(0.7)"/>
        <use xlink:href="#DejaVuSans-32" transform="translate(109.116211 39.046875) scale(0.7)"/>
       </g>
      </g>
     </g>
     <g id="xtick_7">
      <g id="line2d_10">
       <g>
        <use xlink:href="#m8e253a18ff" x="327.576512" y="50.594687" style="stroke: #000000; stroke-width: 0.8"/>
       </g>
      </g>
      <g id="text_7">
       <!-- $\mathdefault{2^{14}}$ -->
       <g transform="translate(319.726512 41.515) scale(0.1 -0.1)">
        <use xlink:href="#DejaVuSans-32" transform="translate(0 0.684375)"/>
        <use xlink:href="#DejaVuSans-31" transform="translate(64.580078 38.965625) scale(0.7)"/>
        <use xlink:href="#DejaVuSans-34" transform="translate(109.116211 38.965625) scale(0.7)"/>
       </g>
      </g>
     </g>
     <g id="xtick_8">
      <g id="line2d_11">
       <g>
        <use xlink:href="#m8e253a18ff" x="372.367127" y="50.594687" style="stroke: #000000; stroke-width: 0.8"/>
       </g>
      </g>
      <g id="text_8">
       <!-- $\mathdefault{2^{16}}$ -->
       <g transform="translate(364.517127 41.515) scale(0.1 -0.1)">
        <use xlink:href="#DejaVuSans-32" transform="translate(0 0.765625)"/>
        <use xlink:href="#DejaVuSans-31" transform="translate(64.580078 39.046875) scale(0.7)"/>
        <use xlink:href="#DejaVuSans-36" transform="translate(109.116211 39.046875) scale(0.7)"/>
       </g>
      </g>
     </g>
     <g id="xtick_9">
      <g id="line2d_12">
       <g>
        <use xlink:href="#m8e253a18ff" x="417.157743" y="50.594687" style="stroke: #000000; stroke-width: 0.8"/>
       </g>
      </g>
      <g id="text_9">
       <!-- $\mathdefault{2^{18}}$ -->
       <g transform="translate(409.307743 41.515) scale(0.1 -0.1)">
        <use xlink:href="#DejaVuSans-32" transform="translate(0 0.765625)"/>
        <use xlink:href="#DejaVuSans-31" transform="translate(64.580078 39.046875) scale(0.7)"/>
        <use xlink:href="#DejaVuSans-38" transform="translate(109.116211 39.046875) scale(0.7)"/>
       </g>
      </g>
     </g>
     <g id="xtick_10">
      <g id="line2d_13">
       <g>
        <use xlink:href="#m8e253a18ff" x="461.948359" y="50.594687" style="stroke: #000000; stroke-width: 0.8"/>
       </g>
      </g>
      <g id="text_10">
       <!-- $\mathdefault{2^{20}}$ -->
       <g transform="translate(454.098359 41.515) scale(0.1 -0.1)">
        <use xlink:href="#DejaVuSans-32" transform="translate(0 0.765625)"/>
        <use xlink:href="#DejaVuSans-32" transform="translate(64.580078 39.046875) scale(0.7)"/>
        <use xlink:href="#DejaVuSans-30" transform="translate(109.116211 39.046875) scale(0.7)"/>
       </g>
      </g>
     </g>
     <g id="xtick_11">
      <g id="line2d_14">
       <g>
        <use xlink:href="#m8e253a18ff" x="506.738974" y="50.594687" style="stroke: #000000; stroke-width: 0.8"/>
       </g>
      </g>
      <g id="text_11">
       <!-- $\mathdefault{2^{22}}$ -->
       <g transform="translate(498.888974 41.515) scale(0.1 -0.1)">
        <use xlink:href="#DejaVuSans-32" transform="translate(0 0.765625)"/>
        <use xlink:href="#DejaVuSans-32" transform="translate(64.580078 39.046875) scale(0.7)"/>
        <use xlink:href="#DejaVuSans-32" transform="translate(109.116211 39.046875) scale(0.7)"/>
       </g>
      </g>
     </g>
     <g id="xtick_12">
      <g id="line2d_15">
       <g>
        <use xlink:href="#m8e253a18ff" x="551.52959" y="50.594687" style="stroke: #000000; stroke-width: 0.8"/>
       </g>
      </g>
      <g id="text_12">
       <!-- $\mathdefault{2^{24}}$ -->
       <g transform="translate(543.67959 41.515) scale(0.1 -0.1)">
        <use xlink:href="#DejaVuSans-32" transform="translate(0 0.765625)"/>
        <use xlink:href="#DejaVuSans-32" transform="translate(64.580078 39.046875) scale(0.7)"/>
        <use xlink:href="#DejaVuSans-34" transform="translate(109.116211 39.046875) scale(0.7)"/>
       </g>
      </g>
     </g>
     <g id="xtick_13">
      <g id="line2d_16">
       <g>
        <use xlink:href="#m8e253a18ff" x="596.320206" y="50.594687" style="stroke: #000000; stroke-width: 0.8"/>
       </g>
      </g>
      <g id="text_13">
       <!-- $\mathdefault{2^{26}}$ -->
       <g transform="translate(588.470206 41.515) scale(0.1 -0.1)">
        <use xlink:href="#DejaVuSans-32" transform="translate(0 0.765625)"/>
        <use xlink:href="#DejaVuSans-32" transform="translate(64.580078 39.046875) scale(0.7)"/>
        <use xlink:href="#DejaVuSans-36" transform="translate(109.116211 39.046875) scale(0.7)"/>
       </g>
      </g>
     </g>
     <g id="xtick_14">
      <g id="line2d_17">
       <g>
        <use xlink:href="#m8e253a18ff" x="641.110822" y="50.594687" style="stroke: #000000; stroke-width: 0.8"/>
       </g>
      </g>
      <g id="text_14">
       <!-- $\mathdefault{2^{28}}$ -->
       <g transform="translate(633.260822 41.515) scale(0.1 -0.1)">
        <use xlink:href="#DejaVuSans-32" transform="translate(0 0.765625)"/>
        <use xlink:href="#DejaVuSans-32" transform="translate(64.580078 39.046875) scale(0.7)"/>
        <use xlink:href="#DejaVuSans-38" transform="translate(109.116211 39.046875) scale(0.7)"/>
       </g>
      </g>
     </g>
     <g id="text_15">
      <!-- Array length (u32) -->
      <g transform="translate(314.2125 29.916562) scale(0.1 -0.1)">
       <defs>
        <path id="DejaVuSans-41" d="M 2188 4044 
L 1331 1722 
L 3047 1722 
L 2188 4044 
z
M 1831 4666 
L 2547 4666 
L 4325 0 
L 3669 0 
L 3244 1197 
L 1141 1197 
L 716 0 
L 50 0 
L 1831 4666 
z
" transform="scale(0.015625)"/>
        <path id="DejaVuSans-72" d="M 2631 2963 
Q 2534 3019 2420 3045 
Q 2306 3072 2169 3072 
Q 1681 3072 1420 2755 
Q 1159 2438 1159 1844 
L 1159 0 
L 581 0 
L 581 3500 
L 1159 3500 
L 1159 2956 
Q 1341 3275 1631 3429 
Q 1922 3584 2338 3584 
Q 2397 3584 2469 3576 
Q 2541 3569 2628 3553 
L 2631 2963 
z
" transform="scale(0.015625)"/>
        <path id="DejaVuSans-61" d="M 2194 1759 
Q 1497 1759 1228 1600 
Q 959 1441 959 1056 
Q 959 750 1161 570 
Q 1363 391 1709 391 
Q 2188 391 2477 730 
Q 2766 1069 2766 1631 
L 2766 1759 
L 2194 1759 
z
M 3341 1997 
L 3341 0 
L 2766 0 
L 2766 531 
Q 2569 213 2275 61 
Q 1981 -91 1556 -91 
Q 1019 -91 701 211 
Q 384 513 384 1019 
Q 384 1609 779 1909 
Q 1175 2209 1959 2209 
L 2766 2209 
L 2766 2266 
Q 2766 2663 2505 2880 
Q 2244 3097 1772 3097 
Q 1472 3097 1187 3025 
Q 903 2953 641 2809 
L 641 3341 
Q 956 3463 1253 3523 
Q 1550 3584 1831 3584 
Q 2591 3584 2966 3190 
Q 3341 2797 3341 1997 
z
" transform="scale(0.015625)"/>
        <path id="DejaVuSans-79" d="M 2059 -325 
Q 1816 -950 1584 -1140 
Q 1353 -1331 966 -1331 
L 506 -1331 
L 506 -850 
L 844 -850 
Q 1081 -850 1212 -737 
Q 1344 -625 1503 -206 
L 1606 56 
L 191 3500 
L 800 3500 
L 1894 763 
L 2988 3500 
L 3597 3500 
L 2059 -325 
z
" transform="scale(0.015625)"/>
        <path id="DejaVuSans-20" transform="scale(0.015625)"/>
        <path id="DejaVuSans-6c" d="M 603 4863 
L 1178 4863 
L 1178 0 
L 603 0 
L 603 4863 
z
" transform="scale(0.015625)"/>
        <path id="DejaVuSans-65" d="M 3597 1894 
L 3597 1613 
L 953 1613 
Q 991 1019 1311 708 
Q 1631 397 2203 397 
Q 2534 397 2845 478 
Q 3156 559 3463 722 
L 3463 178 
Q 3153 47 2828 -22 
Q 2503 -91 2169 -91 
Q 1331 -91 842 396 
Q 353 884 353 1716 
Q 353 2575 817 3079 
Q 1281 3584 2069 3584 
Q 2775 3584 3186 3129 
Q 3597 2675 3597 1894 
z
M 3022 2063 
Q 3016 2534 2758 2815 
Q 2500 3097 2075 3097 
Q 1594 3097 1305 2825 
Q 1016 2553 972 2059 
L 3022 2063 
z
" transform="scale(0.015625)"/>
        <path id="DejaVuSans-6e" d="M 3513 2113 
L 3513 0 
L 2938 0 
L 2938 2094 
Q 2938 2591 2744 2837 
Q 2550 3084 2163 3084 
Q 1697 3084 1428 2787 
Q 1159 2491 1159 1978 
L 1159 0 
L 581 0 
L 581 3500 
L 1159 3500 
L 1159 2956 
Q 1366 3272 1645 3428 
Q 1925 3584 2291 3584 
Q 2894 3584 3203 3211 
Q 3513 2838 3513 2113 
z
" transform="scale(0.015625)"/>
        <path id="DejaVuSans-67" d="M 2906 1791 
Q 2906 2416 2648 2759 
Q 2391 3103 1925 3103 
Q 1463 3103 1205 2759 
Q 947 2416 947 1791 
Q 947 1169 1205 825 
Q 1463 481 1925 481 
Q 2391 481 2648 825 
Q 2906 1169 2906 1791 
z
M 3481 434 
Q 3481 -459 3084 -895 
Q 2688 -1331 1869 -1331 
Q 1566 -1331 1297 -1286 
Q 1028 -1241 775 -1147 
L 775 -588 
Q 1028 -725 1275 -790 
Q 1522 -856 1778 -856 
Q 2344 -856 2625 -561 
Q 2906 -266 2906 331 
L 2906 616 
Q 2728 306 2450 153 
Q 2172 0 1784 0 
Q 1141 0 747 490 
Q 353 981 353 1791 
Q 353 2603 747 3093 
Q 1141 3584 1784 3584 
Q 2172 3584 2450 3431 
Q 2728 3278 2906 2969 
L 2906 3500 
L 3481 3500 
L 3481 434 
z
" transform="scale(0.015625)"/>
        <path id="DejaVuSans-74" d="M 1172 4494 
L 1172 3500 
L 2356 3500 
L 2356 3053 
L 1172 3053 
L 1172 1153 
Q 1172 725 1289 603 
Q 1406 481 1766 481 
L 2356 481 
L 2356 0 
L 1766 0 
Q 1100 0 847 248 
Q 594 497 594 1153 
L 594 3053 
L 172 3053 
L 172 3500 
L 594 3500 
L 594 4494 
L 1172 4494 
z
" transform="scale(0.015625)"/>
        <path id="DejaVuSans-68" d="M 3513 2113 
L 3513 0 
L 2938 0 
L 2938 2094 
Q 2938 2591 2744 2837 
Q 2550 3084 2163 3084 
Q 1697 3084 1428 2787 
Q 1159 2491 1159 1978 
L 1159 0 
L 581 0 
L 581 4863 
L 1159 4863 
L 1159 2956 
Q 1366 3272 1645 3428 
Q 1925 3584 2291 3584 
Q 2894 3584 3203 3211 
Q 3513 2838 3513 2113 
z
" transform="scale(0.015625)"/>
        <path id="DejaVuSans-28" d="M 1984 4856 
Q 1566 4138 1362 3434 
Q 1159 2731 1159 2009 
Q 1159 1288 1364 580 
Q 1569 -128 1984 -844 
L 1484 -844 
Q 1016 -109 783 600 
Q 550 1309 550 2009 
Q 550 2706 781 3412 
Q 1013 4119 1484 4856 
L 1984 4856 
z
" transform="scale(0.015625)"/>
        <path id="DejaVuSans-75" d="M 544 1381 
L 544 3500 
L 1119 3500 
L 1119 1403 
Q 1119 906 1312 657 
Q 1506 409 1894 409 
Q 2359 409 2629 706 
Q 2900 1003 2900 1516 
L 2900 3500 
L 3475 3500 
L 3475 0 
L 2900 0 
L 2900 538 
Q 2691 219 2414 64 
Q 2138 -91 1772 -91 
Q 1169 -91 856 284 
Q 544 659 544 1381 
z
M 1991 3584 
L 1991 3584 
z
" transform="scale(0.015625)"/>
        <path id="DejaVuSans-33" d="M 2597 2516 
Q 3050 2419 3304 2112 
Q 3559 1806 3559 1356 
Q 3559 666 3084 287 
Q 2609 -91 1734 -91 
Q 1441 -91 1130 -33 
Q 819 25 488 141 
L 488 750 
Q 750 597 1062 519 
Q 1375 441 1716 441 
Q 2309 441 2620 675 
Q 2931 909 2931 1356 
Q 2931 1769 2642 2001 
Q 2353 2234 1838 2234 
L 1294 2234 
L 1294 2753 
L 1863 2753 
Q 2328 2753 2575 2939 
Q 2822 3125 2822 3475 
Q 2822 3834 2567 4026 
Q 2313 4219 1838 4219 
Q 1578 4219 1281 4162 
Q 984 4106 628 3988 
L 628 4550 
Q 988 4650 1302 4700 
Q 1616 4750 1894 4750 
Q 2613 4750 3031 4423 
Q 3450 4097 3450 3541 
Q 3450 3153 3228 2886 
Q 3006 2619 2597 2516 
z
" transform="scale(0.015625)"/>
        <path id="DejaVuSans-29" d="M 513 4856 
L 1013 4856 
Q 1481 4119 1714 3412 
Q 1947 2706 1947 2009 
Q 1947 1309 1714 600 
Q 1481 -109 1013 -844 
L 513 -844 
Q 928 -128 1133 580 
Q 1338 1288 1338 2009 
Q 1338 2731 1133 3434 
Q 928 4138 513 4856 
z
" transform="scale(0.015625)"/>
       </defs>
       <use xlink:href="#DejaVuSans-41"/>
       <use xlink:href="#DejaVuSans-72" x="68.408203"/>
       <use xlink:href="#DejaVuSans-72" x="107.771484"/>
       <use xlink:href="#DejaVuSans-61" x="148.884766"/>
       <use xlink:href="#DejaVuSans-79" x="210.164062"/>
       <use xlink:href="#DejaVuSans-20" x="269.34375"/>
       <use xlink:href="#DejaVuSans-6c" x="301.130859"/>
       <use xlink:href="#DejaVuSans-65" x="328.914062"/>
       <use xlink:href="#DejaVuSans-6e" x="390.4375"/>
       <use xlink:href="#DejaVuSans-67" x="453.816406"/>
       <use xlink:href="#DejaVuSans-74" x="517.292969"/>
       <use xlink:href="#DejaVuSans-68" x="556.501953"/>
       <use xlink:href="#DejaVuSans-20" x="619.880859"/>
       <use xlink:href="#DejaVuSans-28" x="651.667969"/>
       <use xlink:href="#DejaVuSans-75" x="690.681641"/>
       <use xlink:href="#DejaVuSans-33" x="754.060547"/>
       <use xlink:href="#DejaVuSans-32" x="817.683594"/>
       <use xlink:href="#DejaVuSans-29" x="881.306641"/>
      </g>
     </g>
    </g>
    <g id="matplotlib.axis_2"/>
    <g id="patch_4">
     <path d="M 53.328125 50.594687 
L 667.128125 50.594687 
" style="fill: none; stroke: #000000; stroke-width: 0.8; stroke-linejoin: miter; stroke-linecap: square"/>
    </g>
   </g>
   <g id="matplotlib.axis_3">
    <g id="xtick_15">
     <g id="line2d_18">
      <path d="M 58.832817 494.114688 
L 58.832817 50.594688 
" clip-path="url(#p7a1094a25d)" style="fill: none; stroke: #b0b0b0; stroke-opacity: 0.4; stroke-width: 0.8; stroke-linecap: square"/>
     </g>
     <g id="line2d_19">
      <defs>
       <path id="m9de1d7240f" d="M 0 0 
L 0 3.5 
" style="stroke: #000000; stroke-width: 0.8"/>
      </defs>
      <g>
       <use xlink:href="#m9de1d7240f" x="58.832817" y="494.114688" style="stroke: #000000; stroke-width: 0.8"/>
      </g>
     </g>
     <g id="text_16">
      <!-- $\mathdefault{2^{4}}$ -->
      <g transform="translate(53.232817 508.713125) scale(0.1 -0.1)">
       <use xlink:href="#DejaVuSans-32" transform="translate(0 0.684375)"/>
       <use xlink:href="#DejaVuSans-34" transform="translate(64.580078 38.965625) scale(0.7)"/>
      </g>
     </g>
    </g>
    <g id="xtick_16">
     <g id="line2d_20">
      <path d="M 103.623433 494.114688 
L 103.623433 50.594688 
" clip-path="url(#p7a1094a25d)" style="fill: none; stroke: #b0b0b0; stroke-opacity: 0.4; stroke-width: 0.8; stroke-linecap: square"/>
     </g>
     <g id="line2d_21">
      <g>
       <use xlink:href="#m9de1d7240f" x="103.623433" y="494.114688" style="stroke: #000000; stroke-width: 0.8"/>
      </g>
     </g>
     <g id="text_17">
      <!-- $\mathdefault{2^{6}}$ -->
      <g transform="translate(98.023433 508.713125) scale(0.1 -0.1)">
       <use xlink:href="#DejaVuSans-32" transform="translate(0 0.765625)"/>
       <use xlink:href="#DejaVuSans-36" transform="translate(64.580078 39.046875) scale(0.7)"/>
      </g>
     </g>
    </g>
    <g id="xtick_17">
     <g id="line2d_22">
      <path d="M 148.414049 494.114688 
L 148.414049 50.594688 
" clip-path="url(#p7a1094a25d)" style="fill: none; stroke: #b0b0b0; stroke-opacity: 0.4; stroke-width: 0.8; stroke-linecap: square"/>
     </g>
     <g id="line2d_23">
      <g>
       <use xlink:href="#m9de1d7240f" x="148.414049" y="494.114688" style="stroke: #000000; stroke-width: 0.8"/>
      </g>
     </g>
     <g id="text_18">
      <!-- $\mathdefault{2^{8}}$ -->
      <g transform="translate(142.814049 508.713125) scale(0.1 -0.1)">
       <use xlink:href="#DejaVuSans-32" transform="translate(0 0.765625)"/>
       <use xlink:href="#DejaVuSans-38" transform="translate(64.580078 39.046875) scale(0.7)"/>
      </g>
     </g>
    </g>
    <g id="xtick_18">
     <g id="line2d_24">
      <path d="M 193.204664 494.114688 
L 193.204664 50.594688 
" clip-path="url(#p7a1094a25d)" style="fill: none; stroke: #b0b0b0; stroke-opacity: 0.4; stroke-width: 0.8; stroke-linecap: square"/>
     </g>
     <g id="line2d_25">
      <g>
       <use xlink:href="#m9de1d7240f" x="193.204664" y="494.114688" style="stroke: #000000; stroke-width: 0.8"/>
      </g>
     </g>
     <g id="text_19">
      <!-- $\mathdefault{2^{10}}$ -->
      <g transform="translate(185.354664 508.713125) scale(0.1 -0.1)">
       <use xlink:href="#DejaVuSans-32" transform="translate(0 0.765625)"/>
       <use xlink:href="#DejaVuSans-31" transform="translate(64.580078 39.046875) scale(0.7)"/>
       <use xlink:href="#DejaVuSans-30" transform="translate(109.116211 39.046875) scale(0.7)"/>
      </g>
     </g>
    </g>
    <g id="xtick_19">
     <g id="line2d_26">
      <path d="M 237.99528 494.114688 
L 237.99528 50.594688 
" clip-path="url(#p7a1094a25d)" style="fill: none; stroke: #b0b0b0; stroke-opacity: 0.4; stroke-width: 0.8; stroke-linecap: square"/>
     </g>
     <g id="line2d_27">
      <g>
       <use xlink:href="#m9de1d7240f" x="237.99528" y="494.114688" style="stroke: #000000; stroke-width: 0.8"/>
      </g>
     </g>
     <g id="text_20">
      <!-- $\mathdefault{2^{12}}$ -->
      <g transform="translate(230.14528 508.713125) scale(0.1 -0.1)">
       <use xlink:href="#DejaVuSans-32" transform="translate(0 0.765625)"/>
       <use xlink:href="#DejaVuSans-31" transform="translate(64.580078 39.046875) scale(0.7)"/>
       <use xlink:href="#DejaVuSans-32" transform="translate(109.116211 39.046875) scale(0.7)"/>
      </g>
     </g>
    </g>
    <g id="xtick_20">
     <g id="line2d_28">
      <path d="M 282.785896 494.114688 
L 282.785896 50.594688 
" clip-path="url(#p7a1094a25d)" style="fill: none; stroke: #b0b0b0; stroke-opacity: 0.4; stroke-width: 0.8; stroke-linecap: square"/>
     </g>
     <g id="line2d_29">
      <g>
       <use xlink:href="#m9de1d7240f" x="282.785896" y="494.114688" style="stroke: #000000; stroke-width: 0.8"/>
      </g>
     </g>
     <g id="text_21">
      <!-- $\mathdefault{2^{14}}$ -->
      <g transform="translate(274.935896 508.713125) scale(0.1 -0.1)">
       <use xlink:href="#DejaVuSans-32" transform="translate(0 0.684375)"/>
       <use xlink:href="#DejaVuSans-31" transform="translate(64.580078 38.965625) scale(0.7)"/>
       <use xlink:href="#DejaVuSans-34" transform="translate(109.116211 38.965625) scale(0.7)"/>
      </g>
     </g>
    </g>
    <g id="xtick_21">
     <g id="line2d_30">
      <path d="M 327.576512 494.114688 
L 327.576512 50.594688 
" clip-path="url(#p7a1094a25d)" style="fill: none; stroke: #b0b0b0; stroke-opacity: 0.4; stroke-width: 0.8; stroke-linecap: square"/>
     </g>
     <g id="line2d_31">
      <g>
       <use xlink:href="#m9de1d7240f" x="327.576512" y="494.114688" style="stroke: #000000; stroke-width: 0.8"/>
      </g>
     </g>
     <g id="text_22">
      <!-- $\mathdefault{2^{16}}$ -->
      <g transform="translate(319.726512 508.713125) scale(0.1 -0.1)">
       <use xlink:href="#DejaVuSans-32" transform="translate(0 0.765625)"/>
       <use xlink:href="#DejaVuSans-31" transform="translate(64.580078 39.046875) scale(0.7)"/>
       <use xlink:href="#DejaVuSans-36" transform="translate(109.116211 39.046875) scale(0.7)"/>
      </g>
     </g>
    </g>
    <g id="xtick_22">
     <g id="line2d_32">
      <path d="M 372.367127 494.114688 
L 372.367127 50.594688 
" clip-path="url(#p7a1094a25d)" style="fill: none; stroke: #b0b0b0; stroke-opacity: 0.4; stroke-width: 0.8; stroke-linecap: square"/>
     </g>
     <g id="line2d_33">
      <g>
       <use xlink:href="#m9de1d7240f" x="372.367127" y="494.114688" style="stroke: #000000; stroke-width: 0.8"/>
      </g>
     </g>
     <g id="text_23">
      <!-- $\mathdefault{2^{18}}$ -->
      <g transform="translate(364.517127 508.713125) scale(0.1 -0.1)">
       <use xlink:href="#DejaVuSans-32" transform="translate(0 0.765625)"/>
       <use xlink:href="#DejaVuSans-31" transform="translate(64.580078 39.046875) scale(0.7)"/>
       <use xlink:href="#DejaVuSans-38" transform="translate(109.116211 39.046875) scale(0.7)"/>
      </g>
     </g>
    </g>
    <g id="xtick_23">
     <g id="line2d_34">
      <path d="M 417.157743 494.114688 
L 417.157743 50.594688 
" clip-path="url(#p7a1094a25d)" style="fill: none; stroke: #b0b0b0; stroke-opacity: 0.4; stroke-width: 0.8; stroke-linecap: square"/>
     </g>
     <g id="line2d_35">
      <g>
       <use xlink:href="#m9de1d7240f" x="417.157743" y="494.114688" style="stroke: #000000; stroke-width: 0.8"/>
      </g>
     </g>
     <g id="text_24">
      <!-- $\mathdefault{2^{20}}$ -->
      <g transform="translate(409.307743 508.713125) scale(0.1 -0.1)">
       <use xlink:href="#DejaVuSans-32" transform="translate(0 0.765625)"/>
       <use xlink:href="#DejaVuSans-32" transform="translate(64.580078 39.046875) scale(0.7)"/>
       <use xlink:href="#DejaVuSans-30" transform="translate(109.116211 39.046875) scale(0.7)"/>
      </g>
     </g>
    </g>
    <g id="xtick_24">
     <g id="line2d_36">
      <path d="M 461.948359 494.114688 
L 461.948359 50.594688 
" clip-path="url(#p7a1094a25d)" style="fill: none; stroke: #b0b0b0; stroke-opacity: 0.4; stroke-width: 0.8; stroke-linecap: square"/>
     </g>
     <g id="line2d_37">
      <g>
       <use xlink:href="#m9de1d7240f" x="461.948359" y="494.114688" style="stroke: #000000; stroke-width: 0.8"/>
      </g>
     </g>
     <g id="text_25">
      <!-- $\mathdefault{2^{22}}$ -->
      <g transform="translate(454.098359 508.713125) scale(0.1 -0.1)">
       <use xlink:href="#DejaVuSans-32" transform="translate(0 0.765625)"/>
       <use xlink:href="#DejaVuSans-32" transform="translate(64.580078 39.046875) scale(0.7)"/>
       <use xlink:href="#DejaVuSans-32" transform="translate(109.116211 39.046875) scale(0.7)"/>
      </g>
     </g>
    </g>
    <g id="xtick_25">
     <g id="line2d_38">
      <path d="M 506.738974 494.114688 
L 506.738974 50.594688 
" clip-path="url(#p7a1094a25d)" style="fill: none; stroke: #b0b0b0; stroke-opacity: 0.4; stroke-width: 0.8; stroke-linecap: square"/>
     </g>
     <g id="line2d_39">
      <g>
       <use xlink:href="#m9de1d7240f" x="506.738974" y="494.114688" style="stroke: #000000; stroke-width: 0.8"/>
      </g>
     </g>
     <g id="text_26">
      <!-- $\mathdefault{2^{24}}$ -->
      <g transform="translate(498.888974 508.713125) scale(0.1 -0.1)">
       <use xlink:href="#DejaVuSans-32" transform="translate(0 0.765625)"/>
       <use xlink:href="#DejaVuSans-32" transform="translate(64.580078 39.046875) scale(0.7)"/>
       <use xlink:href="#DejaVuSans-34" transform="translate(109.116211 39.046875) scale(0.7)"/>
      </g>
     </g>
    </g>
    <g id="xtick_26">
     <g id="line2d_40">
      <path d="M 551.52959 494.114688 
L 551.52959 50.594688 
" clip-path="url(#p7a1094a25d)" style="fill: none; stroke: #b0b0b0; stroke-opacity: 0.4; stroke-width: 0.8; stroke-linecap: square"/>
     </g>
     <g id="line2d_41">
      <g>
       <use xlink:href="#m9de1d7240f" x="551.52959" y="494.114688" style="stroke: #000000; stroke-width: 0.8"/>
      </g>
     </g>
     <g id="text_27">
      <!-- $\mathdefault{2^{26}}$ -->
      <g transform="translate(543.67959 508.713125) scale(0.1 -0.1)">
       <use xlink:href="#DejaVuSans-32" transform="translate(0 0.765625)"/>
       <use xlink:href="#DejaVuSans-32" transform="translate(64.580078 39.046875) scale(0.7)"/>
       <use xlink:href="#DejaVuSans-36" transform="translate(109.116211 39.046875) scale(0.7)"/>
      </g>
     </g>
    </g>
    <g id="xtick_27">
     <g id="line2d_42">
      <path d="M 596.320206 494.114688 
L 596.320206 50.594688 
" clip-path="url(#p7a1094a25d)" style="fill: none; stroke: #b0b0b0; stroke-opacity: 0.4; stroke-width: 0.8; stroke-linecap: square"/>
     </g>
     <g id="line2d_43">
      <g>
       <use xlink:href="#m9de1d7240f" x="596.320206" y="494.114688" style="stroke: #000000; stroke-width: 0.8"/>
      </g>
     </g>
     <g id="text_28">
      <!-- $\mathdefault{2^{28}}$ -->
      <g transform="translate(588.470206 508.713125) scale(0.1 -0.1)">
       <use xlink:href="#DejaVuSans-32" transform="translate(0 0.765625)"/>
       <use xlink:href="#DejaVuSans-32" transform="translate(64.580078 39.046875) scale(0.7)"/>
       <use xlink:href="#DejaVuSans-38" transform="translate(109.116211 39.046875) scale(0.7)"/>
      </g>
     </g>
    </g>
    <g id="xtick_28">
     <g id="line2d_44">
      <path d="M 641.110822 494.114688 
L 641.110822 50.594688 
" clip-path="url(#p7a1094a25d)" style="fill: none; stroke: #b0b0b0; stroke-opacity: 0.4; stroke-width: 0.8; stroke-linecap: square"/>
     </g>
     <g id="line2d_45">
      <g>
       <use xlink:href="#m9de1d7240f" x="641.110822" y="494.114688" style="stroke: #000000; stroke-width: 0.8"/>
      </g>
     </g>
     <g id="text_29">
      <!-- $\mathdefault{2^{30}}$ -->
      <g transform="translate(633.260822 508.713125) scale(0.1 -0.1)">
       <use xlink:href="#DejaVuSans-32" transform="translate(0 0.765625)"/>
       <use xlink:href="#DejaVuSans-33" transform="translate(64.580078 39.046875) scale(0.7)"/>
       <use xlink:href="#DejaVuSans-30" transform="translate(109.116211 39.046875) scale(0.7)"/>
      </g>
     </g>
    </g>
    <g id="text_30">
     <!-- Input size (bytes) -->
     <g transform="translate(316.732031 522.39125) scale(0.1 -0.1)">
      <defs>
       <path id="DejaVuSans-49" d="M 628 4666 
L 1259 4666 
L 1259 0 
L 628 0 
L 628 4666 
z
" transform="scale(0.015625)"/>
       <path id="DejaVuSans-70" d="M 1159 525 
L 1159 -1331 
L 581 -1331 
L 581 3500 
L 1159 3500 
L 1159 2969 
Q 1341 3281 1617 3432 
Q 1894 3584 2278 3584 
Q 2916 3584 3314 3078 
Q 3713 2572 3713 1747 
Q 3713 922 3314 415 
Q 2916 -91 2278 -91 
Q 1894 -91 1617 61 
Q 1341 213 1159 525 
z
M 3116 1747 
Q 3116 2381 2855 2742 
Q 2594 3103 2138 3103 
Q 1681 3103 1420 2742 
Q 1159 2381 1159 1747 
Q 1159 1113 1420 752 
Q 1681 391 2138 391 
Q 2594 391 2855 752 
Q 3116 1113 3116 1747 
z
" transform="scale(0.015625)"/>
       <path id="DejaVuSans-73" d="M 2834 3397 
L 2834 2853 
Q 2591 2978 2328 3040 
Q 2066 3103 1784 3103 
Q 1356 3103 1142 2972 
Q 928 2841 928 2578 
Q 928 2378 1081 2264 
Q 1234 2150 1697 2047 
L 1894 2003 
Q 2506 1872 2764 1633 
Q 3022 1394 3022 966 
Q 3022 478 2636 193 
Q 2250 -91 1575 -91 
Q 1294 -91 989 -36 
Q 684 19 347 128 
L 347 722 
Q 666 556 975 473 
Q 1284 391 1588 391 
Q 1994 391 2212 530 
Q 2431 669 2431 922 
Q 2431 1156 2273 1281 
Q 2116 1406 1581 1522 
L 1381 1569 
Q 847 1681 609 1914 
Q 372 2147 372 2553 
Q 372 3047 722 3315 
Q 1072 3584 1716 3584 
Q 2034 3584 2315 3537 
Q 2597 3491 2834 3397 
z
" transform="scale(0.015625)"/>
       <path id="DejaVuSans-69" d="M 603 3500 
L 1178 3500 
L 1178 0 
L 603 0 
L 603 3500 
z
M 603 4863 
L 1178 4863 
L 1178 4134 
L 603 4134 
L 603 4863 
z
" transform="scale(0.015625)"/>
       <path id="DejaVuSans-7a" d="M 353 3500 
L 3084 3500 
L 3084 2975 
L 922 459 
L 3084 459 
L 3084 0 
L 275 0 
L 275 525 
L 2438 3041 
L 353 3041 
L 353 3500 
z
" transform="scale(0.015625)"/>
       <path id="DejaVuSans-62" d="M 3116 1747 
Q 3116 2381 2855 2742 
Q 2594 3103 2138 3103 
Q 1681 3103 1420 2742 
Q 1159 2381 1159 1747 
Q 1159 1113 1420 752 
Q 1681 391 2138 391 
Q 2594 391 2855 752 
Q 3116 1113 3116 1747 
z
M 1159 2969 
Q 1341 3281 1617 3432 
Q 1894 3584 2278 3584 
Q 2916 3584 3314 3078 
Q 3713 2572 3713 1747 
Q 3713 922 3314 415 
Q 2916 -91 2278 -91 
Q 1894 -91 1617 61 
Q 1341 213 1159 525 
L 1159 0 
L 581 0 
L 581 4863 
L 1159 4863 
L 1159 2969 
z
" transform="scale(0.015625)"/>
      </defs>
      <use xlink:href="#DejaVuSans-49"/>
      <use xlink:href="#DejaVuSans-6e" x="29.492188"/>
      <use xlink:href="#DejaVuSans-70" x="92.871094"/>
      <use xlink:href="#DejaVuSans-75" x="156.347656"/>
      <use xlink:href="#DejaVuSans-74" x="219.726562"/>
      <use xlink:href="#DejaVuSans-20" x="258.935547"/>
      <use xlink:href="#DejaVuSans-73" x="290.722656"/>
      <use xlink:href="#DejaVuSans-69" x="342.822266"/>
      <use xlink:href="#DejaVuSans-7a" x="370.605469"/>
      <use xlink:href="#DejaVuSans-65" x="423.095703"/>
      <use xlink:href="#DejaVuSans-20" x="484.619141"/>
      <use xlink:href="#DejaVuSans-28" x="516.40625"/>
      <use xlink:href="#DejaVuSans-62" x="555.419922"/>
      <use xlink:href="#DejaVuSans-79" x="618.896484"/>
      <use xlink:href="#DejaVuSans-74" x="678.076172"/>
      <use xlink:href="#DejaVuSans-65" x="717.285156"/>
      <use xlink:href="#DejaVuSans-73" x="778.808594"/>
      <use xlink:href="#DejaVuSans-29" x="830.908203"/>
     </g>
    </g>
   </g>
   <g id="matplotlib.axis_4">
    <g id="ytick_1">
     <g id="line2d_46">
      <path d="M 53.328125 494.114688 
L 667.128125 494.114688 
" clip-path="url(#p7a1094a25d)" style="fill: none; stroke: #b0b0b0; stroke-opacity: 0.4; stroke-width: 0.8; stroke-linecap: square"/>
     </g>
     <g id="line2d_47">
      <defs>
       <path id="ma016c06118" d="M 0 0 
L -3.5 0 
" style="stroke: #000000; stroke-width: 0.8"/>
      </defs>
      <g>
       <use xlink:href="#ma016c06118" x="53.328125" y="494.114688" style="stroke: #000000; stroke-width: 0.8"/>
      </g>
     </g>
     <g id="text_31">
      <!-- 0 -->
      <g transform="translate(39.965625 497.913906) scale(0.1 -0.1)">
       <use xlink:href="#DejaVuSans-30"/>
      </g>
     </g>
    </g>
    <g id="ytick_2">
     <g id="line2d_48">
      <path d="M 53.328125 420.194688 
L 667.128125 420.194688 
" clip-path="url(#p7a1094a25d)" style="fill: none; stroke: #b0b0b0; stroke-opacity: 0.4; stroke-width: 0.8; stroke-linecap: square"/>
     </g>
     <g id="line2d_49">
      <g>
       <use xlink:href="#ma016c06118" x="53.328125" y="420.194688" style="stroke: #000000; stroke-width: 0.8"/>
      </g>
     </g>
     <g id="text_32">
      <!-- 200 -->
      <g transform="translate(27.240625 423.993906) scale(0.1 -0.1)">
       <use xlink:href="#DejaVuSans-32"/>
       <use xlink:href="#DejaVuSans-30" x="63.623047"/>
       <use xlink:href="#DejaVuSans-30" x="127.246094"/>
      </g>
     </g>
    </g>
    <g id="ytick_3">
     <g id="line2d_50">
      <path d="M 53.328125 346.274688 
L 667.128125 346.274688 
" clip-path="url(#p7a1094a25d)" style="fill: none; stroke: #b0b0b0; stroke-opacity: 0.4; stroke-width: 0.8; stroke-linecap: square"/>
     </g>
     <g id="line2d_51">
      <g>
       <use xlink:href="#ma016c06118" x="53.328125" y="346.274688" style="stroke: #000000; stroke-width: 0.8"/>
      </g>
     </g>
     <g id="text_33">
      <!-- 400 -->
      <g transform="translate(27.240625 350.073906) scale(0.1 -0.1)">
       <use xlink:href="#DejaVuSans-34"/>
       <use xlink:href="#DejaVuSans-30" x="63.623047"/>
       <use xlink:href="#DejaVuSans-30" x="127.246094"/>
      </g>
     </g>
    </g>
    <g id="ytick_4">
     <g id="line2d_52">
      <path d="M 53.328125 272.354688 
L 667.128125 272.354688 
" clip-path="url(#p7a1094a25d)" style="fill: none; stroke: #b0b0b0; stroke-opacity: 0.4; stroke-width: 0.8; stroke-linecap: square"/>
     </g>
     <g id="line2d_53">
      <g>
       <use xlink:href="#ma016c06118" x="53.328125" y="272.354688" style="stroke: #000000; stroke-width: 0.8"/>
      </g>
     </g>
     <g id="text_34">
      <!-- 600 -->
      <g transform="translate(27.240625 276.153906) scale(0.1 -0.1)">
       <use xlink:href="#DejaVuSans-36"/>
       <use xlink:href="#DejaVuSans-30" x="63.623047"/>
       <use xlink:href="#DejaVuSans-30" x="127.246094"/>
      </g>
     </g>
    </g>
    <g id="ytick_5">
     <g id="line2d_54">
      <path d="M 53.328125 198.434688 
L 667.128125 198.434688 
" clip-path="url(#p7a1094a25d)" style="fill: none; stroke: #b0b0b0; stroke-opacity: 0.4; stroke-width: 0.8; stroke-linecap: square"/>
     </g>
     <g id="line2d_55">
      <g>
       <use xlink:href="#ma016c06118" x="53.328125" y="198.434688" style="stroke: #000000; stroke-width: 0.8"/>
      </g>
     </g>
     <g id="text_35">
      <!-- 800 -->
      <g transform="translate(27.240625 202.233906) scale(0.1 -0.1)">
       <use xlink:href="#DejaVuSans-38"/>
       <use xlink:href="#DejaVuSans-30" x="63.623047"/>
       <use xlink:href="#DejaVuSans-30" x="127.246094"/>
      </g>
     </g>
    </g>
    <g id="ytick_6">
     <g id="line2d_56">
      <path d="M 53.328125 124.514688 
L 667.128125 124.514688 
" clip-path="url(#p7a1094a25d)" style="fill: none; stroke: #b0b0b0; stroke-opacity: 0.4; stroke-width: 0.8; stroke-linecap: square"/>
     </g>
     <g id="line2d_57">
      <g>
       <use xlink:href="#ma016c06118" x="53.328125" y="124.514688" style="stroke: #000000; stroke-width: 0.8"/>
      </g>
     </g>
     <g id="text_36">
      <!-- 1000 -->
      <g transform="translate(20.878125 128.313906) scale(0.1 -0.1)">
       <use xlink:href="#DejaVuSans-31"/>
       <use xlink:href="#DejaVuSans-30" x="63.623047"/>
       <use xlink:href="#DejaVuSans-30" x="127.246094"/>
       <use xlink:href="#DejaVuSans-30" x="190.869141"/>
      </g>
     </g>
    </g>
    <g id="ytick_7">
     <g id="line2d_58">
      <path d="M 53.328125 50.594688 
L 667.128125 50.594688 
" clip-path="url(#p7a1094a25d)" style="fill: none; stroke: #b0b0b0; stroke-opacity: 0.4; stroke-width: 0.8; stroke-linecap: square"/>
     </g>
     <g id="line2d_59">
      <g>
       <use xlink:href="#ma016c06118" x="53.328125" y="50.594688" style="stroke: #000000; stroke-width: 0.8"/>
      </g>
     </g>
     <g id="text_37">
      <!-- 1200 -->
      <g transform="translate(20.878125 54.393906) scale(0.1 -0.1)">
       <use xlink:href="#DejaVuSans-31"/>
       <use xlink:href="#DejaVuSans-32" x="63.623047"/>
       <use xlink:href="#DejaVuSans-30" x="127.246094"/>
       <use xlink:href="#DejaVuSans-30" x="190.869141"/>
      </g>
     </g>
    </g>
    <g id="text_38">
     <!-- Inverse throughput (ns) -->
     <g transform="translate(14.798438 331.570313) rotate(-90) scale(0.1 -0.1)">
      <defs>
       <path id="DejaVuSans-76" d="M 191 3500 
L 800 3500 
L 1894 563 
L 2988 3500 
L 3597 3500 
L 2284 0 
L 1503 0 
L 191 3500 
z
" transform="scale(0.015625)"/>
       <path id="DejaVuSans-6f" d="M 1959 3097 
Q 1497 3097 1228 2736 
Q 959 2375 959 1747 
Q 959 1119 1226 758 
Q 1494 397 1959 397 
Q 2419 397 2687 759 
Q 2956 1122 2956 1747 
Q 2956 2369 2687 2733 
Q 2419 3097 1959 3097 
z
M 1959 3584 
Q 2709 3584 3137 3096 
Q 3566 2609 3566 1747 
Q 3566 888 3137 398 
Q 2709 -91 1959 -91 
Q 1206 -91 779 398 
Q 353 888 353 1747 
Q 353 2609 779 3096 
Q 1206 3584 1959 3584 
z
" transform="scale(0.015625)"/>
      </defs>
      <use xlink:href="#DejaVuSans-49"/>
      <use xlink:href="#DejaVuSans-6e" x="29.492188"/>
      <use xlink:href="#DejaVuSans-76" x="92.871094"/>
      <use xlink:href="#DejaVuSans-65" x="152.050781"/>
      <use xlink:href="#DejaVuSans-72" x="213.574219"/>
      <use xlink:href="#DejaVuSans-73" x="254.6875"/>
      <use xlink:href="#DejaVuSans-65" x="306.787109"/>
      <use xlink:href="#DejaVuSans-20" x="368.310547"/>
      <use xlink:href="#DejaVuSans-74" x="400.097656"/>
      <use xlink:href="#DejaVuSans-68" x="439.306641"/>
      <use xlink:href="#DejaVuSans-72" x="502.685547"/>
      <use xlink:href="#DejaVuSans-6f" x="541.548828"/>
      <use xlink:href="#DejaVuSans-75" x="602.730469"/>
      <use xlink:href="#DejaVuSans-67" x="666.109375"/>
      <use xlink:href="#DejaVuSans-68" x="729.585938"/>
      <use xlink:href="#DejaVuSans-70" x="792.964844"/>
      <use xlink:href="#DejaVuSans-75" x="856.441406"/>
      <use xlink:href="#DejaVuSans-74" x="919.820312"/>
      <use xlink:href="#DejaVuSans-20" x="959.029297"/>
      <use xlink:href="#DejaVuSans-28" x="990.816406"/>
      <use xlink:href="#DejaVuSans-6e" x="1029.830078"/>
      <use xlink:href="#DejaVuSans-73" x="1093.208984"/>
      <use xlink:href="#DejaVuSans-29" x="1145.308594"/>
     </g>
    </g>
   </g>
   <g id="line2d_60">
    <path d="M 81.228125 491.182765 
L 85.918898 490.72728 
L 90.774455 492.017599 
L 96.287298 490.678823 
L 100.995188 490.609135 
L 106.518766 490.020715 
L 111.63092 491.820453 
L 116.723848 489.502005 
L 121.704395 489.528378 
L 126.767259 489.429474 
L 131.783021 488.70239 
L 136.853944 488.960908 
L 142.014489 488.495674 
L 147.126643 489.105887 
L 152.219571 487.253081 
L 157.296135 487.375601 
L 162.345091 487.336794 
L 167.419221 487.39892 
L 172.529665 486.057587 
L 177.561457 486.551922 
L 182.666117 486.599632 
L 187.752668 486.097498 
L 192.8238 489.338763 
L 197.895437 485.215627 
L 202.961634 485.217134 
L 208.045327 485.582506 
L 213.108343 485.52586 
L 218.190974 484.088934 
L 223.26084 484.975061 
L 228.330164 484.363119 
L 233.409347 484.226173 
L 238.480677 483.298003 
L 243.554335 483.810044 
L 248.626779 483.272964 
L 253.696403 483.286893 
L 258.773153 483.154936 
L 263.843613 482.643737 
L 268.91719 482.615971 
L 273.989348 482.104123 
L 279.063338 482.103426 
L 284.135745 480.955058 
L 289.209912 481.503637 
L 294.281313 480.976907 
L 299.354691 481.441364 
L 304.428055 480.670387 
L 309.500602 478.750825 
L 314.573073 486.582847 
L 319.645965 477.838604 
L 324.718564 477.556463 
L 329.79131 475.783614 
L 334.864188 475.537376 
L 339.936896 475.365043 
L 345.009837 473.865348 
L 350.082556 471.45331 
L 355.155338 471.700973 
L 360.228108 471.99401 
L 365.300841 470.936583 
L 370.373548 470.692937 
L 375.446292 469.23896 
L 380.518971 469.087612 
L 385.591705 468.122405 
L 390.664427 468.18986 
L 395.737168 465.506435 
L 400.809906 464.054027 
L 405.88264 464.042305 
L 410.955384 460.946403 
L 416.028098 458.949463 
L 421.10085 459.17337 
L 426.173579 477.282986 
L 431.246302 453.122569 
L 436.319033 451.888631 
L 441.391756 450.023046 
L 446.464482 447.721256 
L 451.53721 442.364198 
L 456.609943 443.5364 
L 461.682672 463.964859 
L 466.755398 423.357425 
L 471.828126 404.562309 
L 476.900852 399.427253 
L 481.973579 392.582489 
L 487.046309 377.668046 
L 492.119036 362.175751 
L 497.191764 355.007138 
L 502.264492 340.483751 
L 507.337218 310.636007 
L 512.409945 321.048337 
L 517.482672 299.829179 
L 522.555399 290.689909 
L 527.628126 292.941485 
L 532.700853 268.666252 
L 537.773582 257.914428 
L 542.84631 251.290271 
L 547.919038 242.998222 
L 552.991767 220.270553 
L 558.064493 204.092983 
L 563.137219 189.45666 
L 568.209946 197.517764 
L 573.282673 210.942466 
L 578.355401 176.684683 
L 583.428128 165.181446 
L 588.500856 142.71517 
L 593.573584 141.09948 
L 598.646309 133.871601 
L 603.719035 111.271472 
L 608.791762 109.224632 
L 613.86449 147.643447 
L 618.937216 68.019338 
L 624.009943 57.115691 
L 629.082671 75.344633 
L 634.155398 65.771403 
L 639.228125 52.827125 
" clip-path="url(#p7a1094a25d)" style="fill: none; stroke: #ff7f0e; stroke-opacity: 0.3; stroke-width: 0.5; stroke-linecap: square"/>
   </g>
   <g id="line2d_61">
    <path d="M 81.228125 489.74682 
L 85.918898 490.966433 
L 90.774455 487.137042 
L 96.287298 490.468899 
L 100.995188 490.996684 
L 106.518766 489.697648 
L 111.63092 486.778347 
L 116.723848 487.154536 
L 121.704395 492.095095 
L 126.767259 489.454872 
L 131.783021 485.568251 
L 136.853944 484.822677 
L 142.014489 486.430091 
L 147.126643 488.950009 
L 152.219571 486.254237 
L 157.296135 488.654331 
L 162.345091 484.982601 
L 167.419221 486.075566 
L 172.529665 486.08746 
L 177.561457 482.043626 
L 182.666117 482.17325 
L 187.752668 484.505771 
L 192.8238 486.710558 
L 197.895437 482.017917 
L 202.961634 479.20658 
L 208.045327 481.45448 
L 213.108343 483.91141 
L 218.190974 482.699057 
L 223.26084 486.314769 
L 228.330164 478.693323 
L 233.409347 481.893355 
L 238.480677 483.929095 
L 243.554335 479.014356 
L 248.626779 476.33726 
L 253.696403 479.02692 
L 258.773153 488.223178 
L 263.843613 479.504655 
L 268.91719 473.597488 
L 273.989348 476.042725 
L 279.063338 479.018244 
L 284.135745 479.377101 
L 289.209912 474.086719 
L 294.281313 472.579877 
L 299.354691 477.158179 
L 304.428055 479.119291 
L 309.500602 474.373561 
L 314.573073 470.042961 
L 319.645965 485.033625 
L 324.718564 475.634616 
L 329.79131 474.296746 
L 334.864188 467.982825 
L 339.936896 468.354698 
L 345.009837 470.811419 
L 350.082556 473.162558 
L 355.155338 467.410974 
L 360.228108 463.281567 
L 365.300841 466.245406 
L 370.373548 469.292024 
L 375.446292 465.435008 
L 380.518971 459.352764 
L 385.591705 460.499953 
L 390.664427 464.841543 
L 395.737168 464.465873 
L 400.809906 457.380984 
L 405.88264 453.066387 
L 410.955384 455.543116 
L 416.028098 458.261678 
L 421.10085 452.598602 
L 426.173579 442.071232 
L 431.246302 444.641465 
L 436.319033 445.539806 
L 441.391756 445.876925 
L 446.464482 435.563478 
L 451.53721 425.573816 
L 456.609943 431.10055 
L 461.682672 431.025818 
L 466.755398 414.840201 
L 471.828126 394.496379 
L 476.900852 390.881678 
L 481.973579 390.083701 
L 487.046309 373.056284 
L 492.119036 390.153998 
L 497.191764 338.264046 
L 502.264492 340.710828 
L 507.337218 284.306935 
L 512.409945 320.67834 
L 517.482672 308.150749 
L 522.555399 280.755873 
L 527.628126 286.264458 
L 532.700853 273.17278 
L 537.773582 262.537587 
L 542.84631 245.790037 
L 547.919038 240.819064 
L 552.991767 226.776699 
L 558.064493 213.410806 
L 563.137219 185.417402 
L 568.209946 191.651404 
L 573.282673 197.302304 
L 578.355401 179.4894 
L 583.428128 146.556198 
L 588.500856 141.171409 
L 593.573584 140.773098 
L 598.646309 149.49857 
L 603.719035 122.639239 
L 608.791762 95.863191 
L 613.86449 100.023487 
L 618.937216 133.235748 
L 624.009943 56.589342 
L 629.082671 68.45994 
L 634.155398 30.215694 
L 639.228125 67.659508 
" clip-path="url(#p7a1094a25d)" style="fill: none; stroke: #bcbd22; stroke-opacity: 0.3; stroke-width: 0.5; stroke-linecap: square"/>
   </g>
   <g id="line2d_62">
    <path d="M 81.228125 492.146827 
L 85.918898 491.535321 
L 90.774455 491.617797 
L 96.287298 491.652808 
L 100.995188 491.580259 
L 106.518766 491.134089 
L 111.63092 490.871147 
L 116.723848 490.812454 
L 121.704395 490.969102 
L 126.767259 490.789922 
L 131.783021 489.893412 
L 136.853944 490.043648 
L 142.014489 490.169358 
L 147.126643 490.262399 
L 152.219571 489.138907 
L 157.296135 491.696324 
L 162.345091 489.234577 
L 167.419221 489.124501 
L 172.529665 488.559799 
L 177.561457 488.636946 
L 182.666117 488.564219 
L 187.752668 488.333324 
L 192.8238 488.772974 
L 197.895437 487.324105 
L 202.961634 487.223344 
L 208.045327 487.773656 
L 213.108343 487.613278 
L 218.190974 486.077716 
L 223.26084 486.597341 
L 228.330164 486.101167 
L 233.409347 486.529174 
L 238.480677 485.186501 
L 243.554335 490.152604 
L 248.626779 485.392852 
L 253.696403 485.371167 
L 258.773153 485.253821 
L 263.843613 484.587361 
L 268.91719 484.858562 
L 273.989348 484.521398 
L 279.063338 484.570233 
L 284.135745 483.62987 
L 289.209912 483.441684 
L 294.281313 483.437447 
L 299.354691 483.567973 
L 304.428055 483.456563 
L 309.500602 482.112229 
L 314.573073 482.514445 
L 319.645965 487.683791 
L 324.718564 481.687509 
L 329.79131 480.030943 
L 334.864188 479.701788 
L 339.936896 479.329457 
L 345.009837 478.771413 
L 350.082556 476.823002 
L 355.155338 476.973161 
L 360.228108 477.194607 
L 365.300841 475.939148 
L 370.373548 476.518138 
L 375.446292 473.268692 
L 380.518971 473.113376 
L 385.591705 485.010453 
L 390.664427 473.147191 
L 395.737168 469.566728 
L 400.809906 468.910004 
L 405.88264 482.215429 
L 410.955384 465.500035 
L 416.028098 464.353661 
L 421.10085 462.000081 
L 426.173579 459.17247 
L 431.246302 457.486162 
L 436.319033 455.75923 
L 441.391756 451.929824 
L 446.464482 452.206567 
L 451.53721 446.040073 
L 456.609943 444.598992 
L 461.682672 438.503004 
L 466.755398 430.144205 
L 471.828126 424.282317 
L 476.900852 414.646166 
L 481.973579 408.279102 
L 487.046309 393.752332 
L 492.119036 387.613038 
L 497.191764 374.739538 
L 502.264492 374.657516 
L 507.337218 379.666363 
L 512.409945 354.846651 
L 517.482672 350.759219 
L 522.555399 340.888213 
L 527.628126 344.037399 
L 532.700853 320.872232 
L 537.773582 320.091986 
L 542.84631 320.948917 
L 547.919038 343.195037 
L 552.991767 300.31734 
L 558.064493 277.573931 
L 563.137219 282.98991 
L 568.209946 298.694659 
L 573.282673 281.675153 
L 578.355401 242.223034 
L 583.428128 255.850379 
L 588.500856 246.165027 
L 593.573584 251.107752 
L 598.646309 215.617808 
L 603.719035 203.475604 
L 608.791762 203.353048 
L 613.86449 195.621134 
L 618.937216 166.943994 
L 624.009943 145.315875 
L 629.082671 166.68295 
L 634.155398 137.737225 
L 639.228125 142.378093 
" clip-path="url(#p7a1094a25d)" style="fill: none; stroke: #17becf; stroke-opacity: 0.3; stroke-width: 0.5; stroke-linecap: square"/>
   </g>
   <g id="line2d_63">
    <path d="M 81.228125 491.686904 
L 85.918898 490.952135 
L 90.774455 490.939003 
L 96.287298 491.020302 
L 100.995188 490.97408 
L 106.518766 490.223029 
L 111.63092 490.337899 
L 116.723848 489.958209 
L 121.704395 490.250185 
L 126.767259 489.980561 
L 131.783021 488.983692 
L 136.853944 489.233517 
L 142.014489 489.0764 
L 147.126643 489.384285 
L 152.219571 487.853268 
L 157.296135 488.17453 
L 162.345091 487.939282 
L 167.419221 487.879666 
L 172.529665 486.939154 
L 177.561457 487.356399 
L 182.666117 487.146839 
L 187.752668 486.781016 
L 192.8238 490.793671 
L 197.895437 486.275138 
L 202.961634 486.124385 
L 208.045327 490.462044 
L 213.108343 490.223069 
L 218.190974 485.232916 
L 223.26084 485.534204 
L 228.330164 484.811699 
L 233.409347 484.958965 
L 238.480677 484.019717 
L 243.554335 484.011801 
L 248.626779 484.002881 
L 253.696403 484.064912 
L 258.773153 483.961696 
L 263.843613 482.997605 
L 268.91719 487.205957 
L 273.989348 482.748736 
L 279.063338 482.728424 
L 284.135745 481.589838 
L 289.209912 481.800887 
L 294.281313 481.75882 
L 299.354691 481.298255 
L 304.428055 487.577797 
L 309.500602 479.387542 
L 314.573073 479.423792 
L 319.645965 478.885217 
L 324.718564 478.537283 
L 329.79131 477.335719 
L 334.864188 477.153033 
L 339.936896 476.772559 
L 345.009837 476.354322 
L 350.082556 474.850654 
L 355.155338 474.361326 
L 360.228108 474.328017 
L 365.300841 473.801078 
L 370.373548 473.862923 
L 375.446292 471.799583 
L 380.518971 472.0364 
L 385.591705 472.125789 
L 390.664427 471.973864 
L 395.737168 469.299656 
L 400.809906 469.428362 
L 405.88264 468.360655 
L 410.955384 466.927754 
L 416.028098 466.532444 
L 421.10085 464.486646 
L 426.173579 463.032436 
L 431.246302 462.601238 
L 436.319033 462.248994 
L 441.391756 458.271151 
L 446.464482 458.664183 
L 451.53721 457.285476 
L 456.609943 455.955333 
L 461.682672 453.617166 
L 466.755398 442.027379 
L 471.828126 433.901034 
L 476.900852 429.636842 
L 481.973579 423.685669 
L 487.046309 410.007565 
L 492.119036 405.630108 
L 497.191764 397.172064 
L 502.264492 391.430791 
L 507.337218 382.143463 
L 512.409945 394.00223 
L 517.482672 375.968381 
L 522.555399 365.359152 
L 527.628126 364.295376 
L 532.700853 347.285669 
L 537.773582 343.175675 
L 542.84631 342.820197 
L 547.919038 342.139779 
L 552.991767 319.480717 
L 558.064493 328.706233 
L 563.137219 313.237293 
L 568.209946 325.968636 
L 573.282673 317.628454 
L 578.355401 299.279902 
L 583.428128 297.873818 
L 588.500856 295.719843 
L 593.573584 287.805946 
L 598.646309 278.909745 
L 603.719035 277.326744 
L 608.791762 259.801995 
L 613.86449 266.819678 
L 618.937216 260.039321 
L 624.009943 232.237967 
L 629.082671 286.98106 
L 634.155398 238.021731 
L 639.228125 239.048044 
" clip-path="url(#p7a1094a25d)" style="fill: none; stroke: #1f77b4; stroke-width: 2; stroke-linecap: square"/>
   </g>
   <g id="line2d_64">
    <path d="M 81.228125 491.719445 
L 85.918898 491.316843 
L 90.774455 491.324209 
L 96.287298 491.217994 
L 100.995188 491.213834 
L 106.518766 490.853046 
L 111.63092 490.900547 
L 116.723848 490.815036 
L 121.704395 490.680029 
L 126.767259 490.700941 
L 131.783021 490.2225 
L 136.853944 490.177724 
L 142.014489 490.217532 
L 147.126643 490.17996 
L 152.219571 489.744593 
L 157.296135 489.960206 
L 162.345091 489.645623 
L 167.419221 489.743001 
L 172.529665 489.614678 
L 177.561457 489.406393 
L 182.666117 489.258606 
L 187.752668 489.184574 
L 192.8238 489.554366 
L 197.895437 488.628622 
L 202.961634 488.940524 
L 208.045327 488.753726 
L 213.108343 488.67747 
L 218.190974 488.225812 
L 223.26084 488.218095 
L 228.330164 488.413955 
L 233.409347 488.263576 
L 238.480677 487.744933 
L 243.554335 487.793329 
L 248.626779 488.000454 
L 253.696403 487.760368 
L 258.773153 487.628633 
L 263.843613 487.19208 
L 268.91719 487.217828 
L 273.989348 487.281428 
L 279.063338 487.260565 
L 284.135745 486.720646 
L 289.209912 490.618484 
L 294.281313 486.737844 
L 299.354691 487.098712 
L 304.428055 486.693294 
L 309.500602 486.146314 
L 314.573073 486.045615 
L 319.645965 486.201083 
L 324.718564 486.460575 
L 329.79131 485.809532 
L 334.864188 485.414117 
L 339.936896 489.633635 
L 345.009837 485.183513 
L 350.082556 484.30937 
L 355.155338 483.894401 
L 360.228108 484.422443 
L 365.300841 484.302127 
L 370.373548 487.436494 
L 375.446292 483.311014 
L 380.518971 484.162089 
L 385.591705 483.615464 
L 390.664427 483.054594 
L 395.737168 482.701144 
L 400.809906 481.951938 
L 405.88264 481.521277 
L 410.955384 482.348624 
L 416.028098 481.316454 
L 421.10085 480.515671 
L 426.173579 480.156393 
L 431.246302 480.097596 
L 436.319033 479.962503 
L 441.391756 479.6952 
L 446.464482 478.431602 
L 451.53721 477.547156 
L 456.609943 477.520622 
L 461.682672 476.165001 
L 466.755398 470.581249 
L 471.828126 469.526536 
L 476.900852 467.68923 
L 481.973579 467.270244 
L 487.046309 464.293778 
L 492.119036 465.19765 
L 497.191764 461.568169 
L 502.264492 462.422953 
L 507.337218 462.766625 
L 512.409945 460.607145 
L 517.482672 458.802007 
L 522.555399 459.434889 
L 527.628126 457.279587 
L 532.700853 457.130343 
L 537.773582 455.236491 
L 542.84631 454.605257 
L 547.919038 453.284743 
L 552.991767 453.853728 
L 558.064493 454.009542 
L 563.137219 451.601818 
L 568.209946 448.565791 
L 573.282673 450.409242 
L 578.355401 446.491165 
L 583.428128 447.399227 
L 588.500856 445.863497 
L 593.573584 447.539199 
L 598.646309 445.238114 
L 603.719035 441.899701 
L 608.791762 441.554135 
L 613.86449 440.878215 
L 618.937216 439.241021 
L 624.009943 438.117192 
L 629.082671 450.702757 
L 634.155398 441.675864 
L 639.228125 432.784835 
" clip-path="url(#p7a1094a25d)" style="fill: none; stroke: #17becf; stroke-width: 1.5; stroke-linecap: square"/>
   </g>
   <g id="line2d_65"/>
   <g id="line2d_66"/>
   <g id="line2d_67"/>
   <g id="line2d_68"/>
   <g id="line2d_69"/>
   <g id="line2d_70"/>
   <g id="line2d_71"/>
   <g id="line2d_72"/>
   <g id="patch_5">
    <path d="M 53.328125 494.114688 
L 53.328125 50.594688 
" style="fill: none; stroke: #000000; stroke-width: 0.8; stroke-linejoin: miter; stroke-linecap: square"/>
   </g>
   <g id="patch_6">
    <path d="M 667.128125 494.114688 
L 667.128125 50.594688 
" style="fill: none; stroke: #000000; stroke-width: 0.8; stroke-linejoin: miter; stroke-linecap: square"/>
   </g>
   <g id="patch_7">
    <path d="M 53.328125 494.114688 
L 667.128125 494.114688 
" style="fill: none; stroke: #000000; stroke-width: 0.8; stroke-linejoin: miter; stroke-linecap: square"/>
   </g>
   <g id="patch_8">
    <path d="M 53.328125 50.594688 
L 667.128125 50.594688 
" style="fill: none; stroke: #000000; stroke-width: 0.8; stroke-linejoin: miter; stroke-linecap: square"/>
   </g>
   <g id="text_39">
    <!-- L1  -->
    <g style="fill: #ff0000" transform="translate(290.068704 492.035) scale(0.1 -0.1)">
     <defs>
      <path id="DejaVuSans-4c" d="M 628 4666 
L 1259 4666 
L 1259 531 
L 3531 531 
L 3531 0 
L 628 0 
L 628 4666 
z
" transform="scale(0.015625)"/>
     </defs>
     <use xlink:href="#DejaVuSans-4c"/>
     <use xlink:href="#DejaVuSans-31" x="55.712891"/>
     <use xlink:href="#DejaVuSans-20" x="119.335938"/>
    </g>
   </g>
   <g id="text_40">
    <!-- L2  -->
    <g style="fill: #ff0000" transform="translate(379.649935 492.035) scale(0.1 -0.1)">
     <use xlink:href="#DejaVuSans-4c"/>
     <use xlink:href="#DejaVuSans-32" x="55.712891"/>
     <use xlink:href="#DejaVuSans-20" x="119.335938"/>
    </g>
   </g>
   <g id="text_41">
    <!-- L3  -->
    <g style="fill: #ff0000" transform="translate(446.835859 492.035) scale(0.1 -0.1)">
     <use xlink:href="#DejaVuSans-4c"/>
     <use xlink:href="#DejaVuSans-33" x="55.712891"/>
     <use xlink:href="#DejaVuSans-20" x="119.335938"/>
    </g>
   </g>
   <g id="text_42">
    <!-- RAM -->
    <g style="fill: #ff0000" transform="translate(617.210938 492.035) scale(0.1 -0.1)">
     <defs>
      <path id="DejaVuSans-52" d="M 2841 2188 
Q 3044 2119 3236 1894 
Q 3428 1669 3622 1275 
L 4263 0 
L 3584 0 
L 2988 1197 
Q 2756 1666 2539 1819 
Q 2322 1972 1947 1972 
L 1259 1972 
L 1259 0 
L 628 0 
L 628 4666 
L 2053 4666 
Q 2853 4666 3247 4331 
Q 3641 3997 3641 3322 
Q 3641 2881 3436 2590 
Q 3231 2300 2841 2188 
z
M 1259 4147 
L 1259 2491 
L 2053 2491 
Q 2509 2491 2742 2702 
Q 2975 2913 2975 3322 
Q 2975 3731 2742 3939 
Q 2509 4147 2053 4147 
L 1259 4147 
z
" transform="scale(0.015625)"/>
      <path id="DejaVuSans-4d" d="M 628 4666 
L 1569 4666 
L 2759 1491 
L 3956 4666 
L 4897 4666 
L 4897 0 
L 4281 0 
L 4281 4097 
L 3078 897 
L 2444 897 
L 1241 4097 
L 1241 0 
L 628 0 
L 628 4666 
z
" transform="scale(0.015625)"/>
     </defs>
     <use xlink:href="#DejaVuSans-52"/>
     <use xlink:href="#DejaVuSans-41" x="65.482422"/>
     <use xlink:href="#DejaVuSans-4d" x="133.890625"/>
    </g>
   </g>
   <g id="text_43">
    <!-- Branchless binary search with batching -->
    <g transform="translate(241.979375 16.318125) scale(0.12 -0.12)">
     <defs>
      <path id="DejaVuSans-42" d="M 1259 2228 
L 1259 519 
L 2272 519 
Q 2781 519 3026 730 
Q 3272 941 3272 1375 
Q 3272 1813 3026 2020 
Q 2781 2228 2272 2228 
L 1259 2228 
z
M 1259 4147 
L 1259 2741 
L 2194 2741 
Q 2656 2741 2882 2914 
Q 3109 3088 3109 3444 
Q 3109 3797 2882 3972 
Q 2656 4147 2194 4147 
L 1259 4147 
z
M 628 4666 
L 2241 4666 
Q 2963 4666 3353 4366 
Q 3744 4066 3744 3513 
Q 3744 3084 3544 2831 
Q 3344 2578 2956 2516 
Q 3422 2416 3680 2098 
Q 3938 1781 3938 1306 
Q 3938 681 3513 340 
Q 3088 0 2303 0 
L 628 0 
L 628 4666 
z
" transform="scale(0.015625)"/>
      <path id="DejaVuSans-63" d="M 3122 3366 
L 3122 2828 
Q 2878 2963 2633 3030 
Q 2388 3097 2138 3097 
Q 1578 3097 1268 2742 
Q 959 2388 959 1747 
Q 959 1106 1268 751 
Q 1578 397 2138 397 
Q 2388 397 2633 464 
Q 2878 531 3122 666 
L 3122 134 
Q 2881 22 2623 -34 
Q 2366 -91 2075 -91 
Q 1284 -91 818 406 
Q 353 903 353 1747 
Q 353 2603 823 3093 
Q 1294 3584 2113 3584 
Q 2378 3584 2631 3529 
Q 2884 3475 3122 3366 
z
" transform="scale(0.015625)"/>
      <path id="DejaVuSans-77" d="M 269 3500 
L 844 3500 
L 1563 769 
L 2278 3500 
L 2956 3500 
L 3675 769 
L 4391 3500 
L 4966 3500 
L 4050 0 
L 3372 0 
L 2619 2869 
L 1863 0 
L 1184 0 
L 269 3500 
z
" transform="scale(0.015625)"/>
     </defs>
     <use xlink:href="#DejaVuSans-42"/>
     <use xlink:href="#DejaVuSans-72" x="68.603516"/>
     <use xlink:href="#DejaVuSans-61" x="109.716797"/>
     <use xlink:href="#DejaVuSans-6e" x="170.996094"/>
     <use xlink:href="#DejaVuSans-63" x="234.375"/>
     <use xlink:href="#DejaVuSans-68" x="289.355469"/>
     <use xlink:href="#DejaVuSans-6c" x="352.734375"/>
     <use xlink:href="#DejaVuSans-65" x="380.517578"/>
     <use xlink:href="#DejaVuSans-73" x="442.041016"/>
     <use xlink:href="#DejaVuSans-73" x="494.140625"/>
     <use xlink:href="#DejaVuSans-20" x="546.240234"/>
     <use xlink:href="#DejaVuSans-62" x="578.027344"/>
     <use xlink:href="#DejaVuSans-69" x="641.503906"/>
     <use xlink:href="#DejaVuSans-6e" x="669.287109"/>
     <use xlink:href="#DejaVuSans-61" x="732.666016"/>
     <use xlink:href="#DejaVuSans-72" x="793.945312"/>
     <use xlink:href="#DejaVuSans-79" x="835.058594"/>
     <use xlink:href="#DejaVuSans-20" x="894.238281"/>
     <use xlink:href="#DejaVuSans-73" x="926.025391"/>
     <use xlink:href="#DejaVuSans-65" x="978.125"/>
     <use xlink:href="#DejaVuSans-61" x="1039.648438"/>
     <use xlink:href="#DejaVuSans-72" x="1100.927734"/>
     <use xlink:href="#DejaVuSans-63" x="1139.791016"/>
     <use xlink:href="#DejaVuSans-68" x="1194.771484"/>
     <use xlink:href="#DejaVuSans-20" x="1258.150391"/>
     <use xlink:href="#DejaVuSans-77" x="1289.9375"/>
     <use xlink:href="#DejaVuSans-69" x="1371.724609"/>
     <use xlink:href="#DejaVuSans-74" x="1399.507812"/>
     <use xlink:href="#DejaVuSans-68" x="1438.716797"/>
     <use xlink:href="#DejaVuSans-20" x="1502.095703"/>
     <use xlink:href="#DejaVuSans-62" x="1533.882812"/>
     <use xlink:href="#DejaVuSans-61" x="1597.359375"/>
     <use xlink:href="#DejaVuSans-74" x="1658.638672"/>
     <use xlink:href="#DejaVuSans-63" x="1697.847656"/>
     <use xlink:href="#DejaVuSans-68" x="1752.828125"/>
     <use xlink:href="#DejaVuSans-69" x="1816.207031"/>
     <use xlink:href="#DejaVuSans-6e" x="1843.990234"/>
     <use xlink:href="#DejaVuSans-67" x="1907.369141"/>
    </g>
   </g>
   <g id="legend_1">
    <g id="patch_9">
     <path d="M 60.328125 133.375938 
L 502.251563 133.375938 
Q 504.251563 133.375938 504.251563 131.375938 
L 504.251563 57.594688 
Q 504.251563 55.594688 502.251563 55.594688 
L 60.328125 55.594688 
Q 58.328125 55.594688 58.328125 57.594688 
L 58.328125 131.375938 
Q 58.328125 133.375938 60.328125 133.375938 
L 60.328125 133.375938 
z
" style="fill: none; opacity: 0"/>
    </g>
    <g id="line2d_73">
     <path d="M 62.328125 63.693125 
L 72.328125 63.693125 
L 82.328125 63.693125 
" style="fill: none; stroke: #ff7f0e; stroke-opacity: 0.3; stroke-width: 1.5; stroke-linecap: square"/>
    </g>
    <g id="text_44">
     <!-- SortedVec::binary_search_std -->
     <g transform="translate(90.328125 67.193125) scale(0.1 -0.1)">
      <defs>
       <path id="DejaVuSans-53" d="M 3425 4513 
L 3425 3897 
Q 3066 4069 2747 4153 
Q 2428 4238 2131 4238 
Q 1616 4238 1336 4038 
Q 1056 3838 1056 3469 
Q 1056 3159 1242 3001 
Q 1428 2844 1947 2747 
L 2328 2669 
Q 3034 2534 3370 2195 
Q 3706 1856 3706 1288 
Q 3706 609 3251 259 
Q 2797 -91 1919 -91 
Q 1588 -91 1214 -16 
Q 841 59 441 206 
L 441 856 
Q 825 641 1194 531 
Q 1563 422 1919 422 
Q 2459 422 2753 634 
Q 3047 847 3047 1241 
Q 3047 1584 2836 1778 
Q 2625 1972 2144 2069 
L 1759 2144 
Q 1053 2284 737 2584 
Q 422 2884 422 3419 
Q 422 4038 858 4394 
Q 1294 4750 2059 4750 
Q 2388 4750 2728 4690 
Q 3069 4631 3425 4513 
z
" transform="scale(0.015625)"/>
       <path id="DejaVuSans-64" d="M 2906 2969 
L 2906 4863 
L 3481 4863 
L 3481 0 
L 2906 0 
L 2906 525 
Q 2725 213 2448 61 
Q 2172 -91 1784 -91 
Q 1150 -91 751 415 
Q 353 922 353 1747 
Q 353 2572 751 3078 
Q 1150 3584 1784 3584 
Q 2172 3584 2448 3432 
Q 2725 3281 2906 2969 
z
M 947 1747 
Q 947 1113 1208 752 
Q 1469 391 1925 391 
Q 2381 391 2643 752 
Q 2906 1113 2906 1747 
Q 2906 2381 2643 2742 
Q 2381 3103 1925 3103 
Q 1469 3103 1208 2742 
Q 947 2381 947 1747 
z
" transform="scale(0.015625)"/>
       <path id="DejaVuSans-56" d="M 1831 0 
L 50 4666 
L 709 4666 
L 2188 738 
L 3669 4666 
L 4325 4666 
L 2547 0 
L 1831 0 
z
" transform="scale(0.015625)"/>
       <path id="DejaVuSans-3a" d="M 750 794 
L 1409 794 
L 1409 0 
L 750 0 
L 750 794 
z
M 750 3309 
L 1409 3309 
L 1409 2516 
L 750 2516 
L 750 3309 
z
" transform="scale(0.015625)"/>
       <path id="DejaVuSans-5f" d="M 3263 -1063 
L 3263 -1509 
L -63 -1509 
L -63 -1063 
L 3263 -1063 
z
" transform="scale(0.015625)"/>
      </defs>
      <use xlink:href="#DejaVuSans-53"/>
      <use xlink:href="#DejaVuSans-6f" x="63.476562"/>
      <use xlink:href="#DejaVuSans-72" x="124.658203"/>
      <use xlink:href="#DejaVuSans-74" x="165.771484"/>
      <use xlink:href="#DejaVuSans-65" x="204.980469"/>
      <use xlink:href="#DejaVuSans-64" x="266.503906"/>
      <use xlink:href="#DejaVuSans-56" x="329.980469"/>
      <use xlink:href="#DejaVuSans-65" x="390.638672"/>
      <use xlink:href="#DejaVuSans-63" x="452.162109"/>
      <use xlink:href="#DejaVuSans-3a" x="507.142578"/>
      <use xlink:href="#DejaVuSans-3a" x="540.833984"/>
      <use xlink:href="#DejaVuSans-62" x="574.525391"/>
      <use xlink:href="#DejaVuSans-69" x="638.001953"/>
      <use xlink:href="#DejaVuSans-6e" x="665.785156"/>
      <use xlink:href="#DejaVuSans-61" x="729.164062"/>
      <use xlink:href="#DejaVuSans-72" x="790.443359"/>
      <use xlink:href="#DejaVuSans-79" x="831.556641"/>
      <use xlink:href="#DejaVuSans-5f" x="890.736328"/>
      <use xlink:href="#DejaVuSans-73" x="940.736328"/>
      <use xlink:href="#DejaVuSans-65" x="992.835938"/>
      <use xlink:href="#DejaVuSans-61" x="1054.359375"/>
      <use xlink:href="#DejaVuSans-72" x="1115.638672"/>
      <use xlink:href="#DejaVuSans-63" x="1154.501953"/>
      <use xlink:href="#DejaVuSans-68" x="1209.482422"/>
      <use xlink:href="#DejaVuSans-5f" x="1272.861328"/>
      <use xlink:href="#DejaVuSans-73" x="1322.861328"/>
      <use xlink:href="#DejaVuSans-74" x="1374.960938"/>
      <use xlink:href="#DejaVuSans-64" x="1414.169922"/>
     </g>
    </g>
    <g id="line2d_74">
     <path d="M 62.328125 78.649375 
L 72.328125 78.649375 
L 82.328125 78.649375 
" style="fill: none; stroke: #bcbd22; stroke-opacity: 0.3; stroke-width: 1.5; stroke-linecap: square"/>
    </g>
    <g id="text_45">
     <!-- SortedVec::binary_search -->
     <g transform="translate(90.328125 82.149375) scale(0.1 -0.1)">
      <use xlink:href="#DejaVuSans-53"/>
      <use xlink:href="#DejaVuSans-6f" x="63.476562"/>
      <use xlink:href="#DejaVuSans-72" x="124.658203"/>
      <use xlink:href="#DejaVuSans-74" x="165.771484"/>
      <use xlink:href="#DejaVuSans-65" x="204.980469"/>
      <use xlink:href="#DejaVuSans-64" x="266.503906"/>
      <use xlink:href="#DejaVuSans-56" x="329.980469"/>
      <use xlink:href="#DejaVuSans-65" x="390.638672"/>
      <use xlink:href="#DejaVuSans-63" x="452.162109"/>
      <use xlink:href="#DejaVuSans-3a" x="507.142578"/>
      <use xlink:href="#DejaVuSans-3a" x="540.833984"/>
      <use xlink:href="#DejaVuSans-62" x="574.525391"/>
      <use xlink:href="#DejaVuSans-69" x="638.001953"/>
      <use xlink:href="#DejaVuSans-6e" x="665.785156"/>
      <use xlink:href="#DejaVuSans-61" x="729.164062"/>
      <use xlink:href="#DejaVuSans-72" x="790.443359"/>
      <use xlink:href="#DejaVuSans-79" x="831.556641"/>
      <use xlink:href="#DejaVuSans-5f" x="890.736328"/>
      <use xlink:href="#DejaVuSans-73" x="940.736328"/>
      <use xlink:href="#DejaVuSans-65" x="992.835938"/>
      <use xlink:href="#DejaVuSans-61" x="1054.359375"/>
      <use xlink:href="#DejaVuSans-72" x="1115.638672"/>
      <use xlink:href="#DejaVuSans-63" x="1154.501953"/>
      <use xlink:href="#DejaVuSans-68" x="1209.482422"/>
     </g>
    </g>
    <g id="line2d_75">
     <path d="M 62.328125 93.605625 
L 72.328125 93.605625 
L 82.328125 93.605625 
" style="fill: none; stroke: #17becf; stroke-opacity: 0.3; stroke-width: 1.5; stroke-linecap: square"/>
    </g>
    <g id="text_46">
     <!-- SortedVec::binary_search_branchless -->
     <g transform="translate(90.328125 97.105625) scale(0.1 -0.1)">
      <use xlink:href="#DejaVuSans-53"/>
      <use xlink:href="#DejaVuSans-6f" x="63.476562"/>
      <use xlink:href="#DejaVuSans-72" x="124.658203"/>
      <use xlink:href="#DejaVuSans-74" x="165.771484"/>
      <use xlink:href="#DejaVuSans-65" x="204.980469"/>
      <use xlink:href="#DejaVuSans-64" x="266.503906"/>
      <use xlink:href="#DejaVuSans-56" x="329.980469"/>
      <use xlink:href="#DejaVuSans-65" x="390.638672"/>
      <use xlink:href="#DejaVuSans-63" x="452.162109"/>
      <use xlink:href="#DejaVuSans-3a" x="507.142578"/>
      <use xlink:href="#DejaVuSans-3a" x="540.833984"/>
      <use xlink:href="#DejaVuSans-62" x="574.525391"/>
      <use xlink:href="#DejaVuSans-69" x="638.001953"/>
      <use xlink:href="#DejaVuSans-6e" x="665.785156"/>
      <use xlink:href="#DejaVuSans-61" x="729.164062"/>
      <use xlink:href="#DejaVuSans-72" x="790.443359"/>
      <use xlink:href="#DejaVuSans-79" x="831.556641"/>
      <use xlink:href="#DejaVuSans-5f" x="890.736328"/>
      <use xlink:href="#DejaVuSans-73" x="940.736328"/>
      <use xlink:href="#DejaVuSans-65" x="992.835938"/>
      <use xlink:href="#DejaVuSans-61" x="1054.359375"/>
      <use xlink:href="#DejaVuSans-72" x="1115.638672"/>
      <use xlink:href="#DejaVuSans-63" x="1154.501953"/>
      <use xlink:href="#DejaVuSans-68" x="1209.482422"/>
      <use xlink:href="#DejaVuSans-5f" x="1272.861328"/>
      <use xlink:href="#DejaVuSans-62" x="1322.861328"/>
      <use xlink:href="#DejaVuSans-72" x="1386.337891"/>
      <use xlink:href="#DejaVuSans-61" x="1427.451172"/>
      <use xlink:href="#DejaVuSans-6e" x="1488.730469"/>
      <use xlink:href="#DejaVuSans-63" x="1552.109375"/>
      <use xlink:href="#DejaVuSans-68" x="1607.089844"/>
      <use xlink:href="#DejaVuSans-6c" x="1670.46875"/>
      <use xlink:href="#DejaVuSans-65" x="1698.251953"/>
      <use xlink:href="#DejaVuSans-73" x="1759.775391"/>
      <use xlink:href="#DejaVuSans-73" x="1811.875"/>
     </g>
    </g>
    <g id="line2d_76">
     <path d="M 62.328125 108.561875 
L 72.328125 108.561875 
L 82.328125 108.561875 
" style="fill: none; stroke: #1f77b4; stroke-width: 1.5; stroke-linecap: square"/>
    </g>
    <g id="text_47">
     <!-- SortedVec::binary_search_branchless_prefetch -->
     <g transform="translate(90.328125 112.061875) scale(0.1 -0.1)">
      <defs>
       <path id="DejaVuSans-66" d="M 2375 4863 
L 2375 4384 
L 1825 4384 
Q 1516 4384 1395 4259 
Q 1275 4134 1275 3809 
L 1275 3500 
L 2222 3500 
L 2222 3053 
L 1275 3053 
L 1275 0 
L 697 0 
L 697 3053 
L 147 3053 
L 147 3500 
L 697 3500 
L 697 3744 
Q 697 4328 969 4595 
Q 1241 4863 1831 4863 
L 2375 4863 
z
" transform="scale(0.015625)"/>
      </defs>
      <use xlink:href="#DejaVuSans-53"/>
      <use xlink:href="#DejaVuSans-6f" x="63.476562"/>
      <use xlink:href="#DejaVuSans-72" x="124.658203"/>
      <use xlink:href="#DejaVuSans-74" x="165.771484"/>
      <use xlink:href="#DejaVuSans-65" x="204.980469"/>
      <use xlink:href="#DejaVuSans-64" x="266.503906"/>
      <use xlink:href="#DejaVuSans-56" x="329.980469"/>
      <use xlink:href="#DejaVuSans-65" x="390.638672"/>
      <use xlink:href="#DejaVuSans-63" x="452.162109"/>
      <use xlink:href="#DejaVuSans-3a" x="507.142578"/>
      <use xlink:href="#DejaVuSans-3a" x="540.833984"/>
      <use xlink:href="#DejaVuSans-62" x="574.525391"/>
      <use xlink:href="#DejaVuSans-69" x="638.001953"/>
      <use xlink:href="#DejaVuSans-6e" x="665.785156"/>
      <use xlink:href="#DejaVuSans-61" x="729.164062"/>
      <use xlink:href="#DejaVuSans-72" x="790.443359"/>
      <use xlink:href="#DejaVuSans-79" x="831.556641"/>
      <use xlink:href="#DejaVuSans-5f" x="890.736328"/>
      <use xlink:href="#DejaVuSans-73" x="940.736328"/>
      <use xlink:href="#DejaVuSans-65" x="992.835938"/>
      <use xlink:href="#DejaVuSans-61" x="1054.359375"/>
      <use xlink:href="#DejaVuSans-72" x="1115.638672"/>
      <use xlink:href="#DejaVuSans-63" x="1154.501953"/>
      <use xlink:href="#DejaVuSans-68" x="1209.482422"/>
      <use xlink:href="#DejaVuSans-5f" x="1272.861328"/>
      <use xlink:href="#DejaVuSans-62" x="1322.861328"/>
      <use xlink:href="#DejaVuSans-72" x="1386.337891"/>
      <use xlink:href="#DejaVuSans-61" x="1427.451172"/>
      <use xlink:href="#DejaVuSans-6e" x="1488.730469"/>
      <use xlink:href="#DejaVuSans-63" x="1552.109375"/>
      <use xlink:href="#DejaVuSans-68" x="1607.089844"/>
      <use xlink:href="#DejaVuSans-6c" x="1670.46875"/>
      <use xlink:href="#DejaVuSans-65" x="1698.251953"/>
      <use xlink:href="#DejaVuSans-73" x="1759.775391"/>
      <use xlink:href="#DejaVuSans-73" x="1811.875"/>
      <use xlink:href="#DejaVuSans-5f" x="1863.974609"/>
      <use xlink:href="#DejaVuSans-70" x="1913.974609"/>
      <use xlink:href="#DejaVuSans-72" x="1977.451172"/>
      <use xlink:href="#DejaVuSans-65" x="2016.314453"/>
      <use xlink:href="#DejaVuSans-66" x="2077.837891"/>
      <use xlink:href="#DejaVuSans-65" x="2113.042969"/>
      <use xlink:href="#DejaVuSans-74" x="2174.566406"/>
      <use xlink:href="#DejaVuSans-63" x="2213.775391"/>
      <use xlink:href="#DejaVuSans-68" x="2268.755859"/>
     </g>
    </g>
    <g id="line2d_77">
     <path d="M 62.328125 123.518125 
L 72.328125 123.518125 
L 82.328125 123.518125 
" style="fill: none; stroke: #17becf; stroke-width: 1.5; stroke-linecap: square"/>
    </g>
    <g id="text_48">
     <!-- Batched&lt;16, SortedVec, SortedVec::batch_impl_binary_search_branchless&lt;16&gt;&gt; -->
     <g transform="translate(90.328125 127.018125) scale(0.1 -0.1)">
      <defs>
       <path id="DejaVuSans-3c" d="M 4684 3150 
L 1459 2003 
L 4684 863 
L 4684 294 
L 678 1747 
L 678 2266 
L 4684 3719 
L 4684 3150 
z
" transform="scale(0.015625)"/>
       <path id="DejaVuSans-2c" d="M 750 794 
L 1409 794 
L 1409 256 
L 897 -744 
L 494 -744 
L 750 256 
L 750 794 
z
" transform="scale(0.015625)"/>
       <path id="DejaVuSans-6d" d="M 3328 2828 
Q 3544 3216 3844 3400 
Q 4144 3584 4550 3584 
Q 5097 3584 5394 3201 
Q 5691 2819 5691 2113 
L 5691 0 
L 5113 0 
L 5113 2094 
Q 5113 2597 4934 2840 
Q 4756 3084 4391 3084 
Q 3944 3084 3684 2787 
Q 3425 2491 3425 1978 
L 3425 0 
L 2847 0 
L 2847 2094 
Q 2847 2600 2669 2842 
Q 2491 3084 2119 3084 
Q 1678 3084 1418 2786 
Q 1159 2488 1159 1978 
L 1159 0 
L 581 0 
L 581 3500 
L 1159 3500 
L 1159 2956 
Q 1356 3278 1631 3431 
Q 1906 3584 2284 3584 
Q 2666 3584 2933 3390 
Q 3200 3197 3328 2828 
z
" transform="scale(0.015625)"/>
       <path id="DejaVuSans-3e" d="M 678 3150 
L 678 3719 
L 4684 2266 
L 4684 1747 
L 678 294 
L 678 863 
L 3897 2003 
L 678 3150 
z
" transform="scale(0.015625)"/>
      </defs>
      <use xlink:href="#DejaVuSans-42"/>
      <use xlink:href="#DejaVuSans-61" x="68.603516"/>
      <use xlink:href="#DejaVuSans-74" x="129.882812"/>
      <use xlink:href="#DejaVuSans-63" x="169.091797"/>
      <use xlink:href="#DejaVuSans-68" x="224.072266"/>
      <use xlink:href="#DejaVuSans-65" x="287.451172"/>
      <use xlink:href="#DejaVuSans-64" x="348.974609"/>
      <use xlink:href="#DejaVuSans-3c" x="412.451172"/>
      <use xlink:href="#DejaVuSans-31" x="496.240234"/>
      <use xlink:href="#DejaVuSans-36" x="559.863281"/>
      <use xlink:href="#DejaVuSans-2c" x="623.486328"/>
      <use xlink:href="#DejaVuSans-20" x="655.273438"/>
      <use xlink:href="#DejaVuSans-53" x="687.060547"/>
      <use xlink:href="#DejaVuSans-6f" x="750.537109"/>
      <use xlink:href="#DejaVuSans-72" x="811.71875"/>
      <use xlink:href="#DejaVuSans-74" x="852.832031"/>
      <use xlink:href="#DejaVuSans-65" x="892.041016"/>
      <use xlink:href="#DejaVuSans-64" x="953.564453"/>
      <use xlink:href="#DejaVuSans-56" x="1017.041016"/>
      <use xlink:href="#DejaVuSans-65" x="1077.699219"/>
      <use xlink:href="#DejaVuSans-63" x="1139.222656"/>
      <use xlink:href="#DejaVuSans-2c" x="1194.203125"/>
      <use xlink:href="#DejaVuSans-20" x="1225.990234"/>
      <use xlink:href="#DejaVuSans-53" x="1257.777344"/>
      <use xlink:href="#DejaVuSans-6f" x="1321.253906"/>
      <use xlink:href="#DejaVuSans-72" x="1382.435547"/>
      <use xlink:href="#DejaVuSans-74" x="1423.548828"/>
      <use xlink:href="#DejaVuSans-65" x="1462.757812"/>
      <use xlink:href="#DejaVuSans-64" x="1524.28125"/>
      <use xlink:href="#DejaVuSans-56" x="1587.757812"/>
      <use xlink:href="#DejaVuSans-65" x="1648.416016"/>
      <use xlink:href="#DejaVuSans-63" x="1709.939453"/>
      <use xlink:href="#DejaVuSans-3a" x="1764.919922"/>
      <use xlink:href="#DejaVuSans-3a" x="1798.611328"/>
      <use xlink:href="#DejaVuSans-62" x="1832.302734"/>
      <use xlink:href="#DejaVuSans-61" x="1895.779297"/>
      <use xlink:href="#DejaVuSans-74" x="1957.058594"/>
      <use xlink:href="#DejaVuSans-63" x="1996.267578"/>
      <use xlink:href="#DejaVuSans-68" x="2051.248047"/>
      <use xlink:href="#DejaVuSans-5f" x="2114.626953"/>
      <use xlink:href="#DejaVuSans-69" x="2164.626953"/>
      <use xlink:href="#DejaVuSans-6d" x="2192.410156"/>
      <use xlink:href="#DejaVuSans-70" x="2289.822266"/>
      <use xlink:href="#DejaVuSans-6c" x="2353.298828"/>
      <use xlink:href="#DejaVuSans-5f" x="2381.082031"/>
      <use xlink:href="#DejaVuSans-62" x="2431.082031"/>
      <use xlink:href="#DejaVuSans-69" x="2494.558594"/>
      <use xlink:href="#DejaVuSans-6e" x="2522.341797"/>
      <use xlink:href="#DejaVuSans-61" x="2585.720703"/>
      <use xlink:href="#DejaVuSans-72" x="2647"/>
      <use xlink:href="#DejaVuSans-79" x="2688.113281"/>
      <use xlink:href="#DejaVuSans-5f" x="2747.292969"/>
      <use xlink:href="#DejaVuSans-73" x="2797.292969"/>
      <use xlink:href="#DejaVuSans-65" x="2849.392578"/>
      <use xlink:href="#DejaVuSans-61" x="2910.916016"/>
      <use xlink:href="#DejaVuSans-72" x="2972.195312"/>
      <use xlink:href="#DejaVuSans-63" x="3011.058594"/>
      <use xlink:href="#DejaVuSans-68" x="3066.039062"/>
      <use xlink:href="#DejaVuSans-5f" x="3129.417969"/>
      <use xlink:href="#DejaVuSans-62" x="3179.417969"/>
      <use xlink:href="#DejaVuSans-72" x="3242.894531"/>
      <use xlink:href="#DejaVuSans-61" x="3284.007812"/>
      <use xlink:href="#DejaVuSans-6e" x="3345.287109"/>
      <use xlink:href="#DejaVuSans-63" x="3408.666016"/>
      <use xlink:href="#DejaVuSans-68" x="3463.646484"/>
      <use xlink:href="#DejaVuSans-6c" x="3527.025391"/>
      <use xlink:href="#DejaVuSans-65" x="3554.808594"/>
      <use xlink:href="#DejaVuSans-73" x="3616.332031"/>
      <use xlink:href="#DejaVuSans-73" x="3668.431641"/>
      <use xlink:href="#DejaVuSans-3c" x="3720.53125"/>
      <use xlink:href="#DejaVuSans-31" x="3804.320312"/>
      <use xlink:href="#DejaVuSans-36" x="3867.943359"/>
      <use xlink:href="#DejaVuSans-3e" x="3931.566406"/>
      <use xlink:href="#DejaVuSans-3e" x="4015.355469"/>
     </g>
    </g>
   </g>
  </g>
 </g>
 <defs>
  <clipPath id="p7a1094a25d">
   <rect x="53.328125" y="50.594688" width="613.8" height="443.52"/>
  </clipPath>
 </defs>
</svg>
