<?xml version="1.0" encoding="utf-8" standalone="no"?>
<!DOCTYPE svg PUBLIC "-//W3C//DTD SVG 1.1//EN"
  "http://www.w3.org/Graphics/SVG/1.1/DTD/svg11.dtd">
<svg xmlns:xlink="http://www.w3.org/1999/xlink" width="667.965625pt" height="531.670938pt" viewBox="0 0 667.965625 531.670938" xmlns="http://www.w3.org/2000/svg" version="1.1">
 <metadata>
  <rdf:RDF xmlns:dc="http://purl.org/dc/elements/1.1/" xmlns:cc="http://creativecommons.org/ns#" xmlns:rdf="http://www.w3.org/1999/02/22-rdf-syntax-ns#">
   <cc:Work>
    <dc:type rdf:resource="http://purl.org/dc/dcmitype/StillImage"/>
    <dc:date>2025-02-28T22:31:45.871480</dc:date>
    <dc:format>image/svg+xml</dc:format>
    <dc:creator>
     <cc:Agent>
      <dc:title>Matplotlib v3.9.2, https://matplotlib.org/</dc:title>
     </cc:Agent>
    </dc:creator>
   </cc:Work>
  </rdf:RDF>
 </metadata>
 <defs>
  <style type="text/css">*{stroke-linejoin: round; stroke-linecap: butt}</style>
 </defs>
 <g id="figure_1">
  <g id="patch_1">
   <path d="M -0 531.670938 
L 667.965625 531.670938 
L 667.965625 0 
L -0 0 
z
" style="fill: #ffffff"/>
  </g>
  <g id="axes_1">
   <g id="patch_2">
    <path d="M 46.965625 494.114688 
L 660.765625 494.114688 
L 660.765625 50.594688 
L 46.965625 50.594688 
z
" style="fill: #ffffff"/>
   </g>
   <g id="line2d_1">
    <path d="M 298.818704 494.114688 
L 298.818704 50.594688 
" clip-path="url(#pce2b20b5cb)" style="fill: none; stroke-dasharray: 5.55,2.4; stroke-dashoffset: 0; stroke: #ff0000; stroke-width: 1.5"/>
   </g>
   <g id="line2d_2">
    <path d="M 388.399935 494.114688 
L 388.399935 50.594688 
" clip-path="url(#pce2b20b5cb)" style="fill: none; stroke-dasharray: 5.55,2.4; stroke-dashoffset: 0; stroke: #ff0000; stroke-width: 1.5"/>
   </g>
   <g id="line2d_3">
    <path d="M 455.585859 494.114688 
L 455.585859 50.594688 
" clip-path="url(#pce2b20b5cb)" style="fill: none; stroke-dasharray: 5.55,2.4; stroke-dashoffset: 0; stroke: #ff0000; stroke-width: 1.5"/>
   </g>
   <g id="axes_2">
    <g id="patch_3">
     <path d="M 46.965625 50.594688 
L 660.765625 50.594688 
L 660.765625 50.594687 
L 46.965625 50.594687 
z
" style="fill: #ffffff"/>
    </g>
    <g id="matplotlib.axis_1">
     <g id="xtick_1">
      <g id="line2d_4">
       <defs>
        <path id="m2c2e53386b" d="M 0 0 
L 0 -3.5 
" style="stroke: #000000; stroke-width: 0.8"/>
       </defs>
       <g>
        <use xlink:href="#m2c2e53386b" x="52.470317" y="50.594687" style="stroke: #000000; stroke-width: 0.8"/>
       </g>
      </g>
      <g id="text_1">
       <!-- $\mathdefault{2^{2}}$ -->
       <g transform="translate(46.870317 41.515) scale(0.1 -0.1)">
        <defs>
         <path id="DejaVuSans-32" d="M 1228 531 
L 3431 531 
L 3431 0 
L 469 0 
L 469 531 
Q 828 903 1448 1529 
Q 2069 2156 2228 2338 
Q 2531 2678 2651 2914 
Q 2772 3150 2772 3378 
Q 2772 3750 2511 3984 
Q 2250 4219 1831 4219 
Q 1534 4219 1204 4116 
Q 875 4013 500 3803 
L 500 4441 
Q 881 4594 1212 4672 
Q 1544 4750 1819 4750 
Q 2544 4750 2975 4387 
Q 3406 4025 3406 3419 
Q 3406 3131 3298 2873 
Q 3191 2616 2906 2266 
Q 2828 2175 2409 1742 
Q 1991 1309 1228 531 
z
" transform="scale(0.015625)"/>
        </defs>
        <use xlink:href="#DejaVuSans-32" transform="translate(0 0.765625)"/>
        <use xlink:href="#DejaVuSans-32" transform="translate(64.580078 39.046875) scale(0.7)"/>
       </g>
      </g>
     </g>
     <g id="xtick_2">
      <g id="line2d_5">
       <g>
        <use xlink:href="#m2c2e53386b" x="97.260933" y="50.594687" style="stroke: #000000; stroke-width: 0.8"/>
       </g>
      </g>
      <g id="text_2">
       <!-- $\mathdefault{2^{4}}$ -->
       <g transform="translate(91.660933 41.515) scale(0.1 -0.1)">
        <defs>
         <path id="DejaVuSans-34" d="M 2419 4116 
L 825 1625 
L 2419 1625 
L 2419 4116 
z
M 2253 4666 
L 3047 4666 
L 3047 1625 
L 3713 1625 
L 3713 1100 
L 3047 1100 
L 3047 0 
L 2419 0 
L 2419 1100 
L 313 1100 
L 313 1709 
L 2253 4666 
z
" transform="scale(0.015625)"/>
        </defs>
        <use xlink:href="#DejaVuSans-32" transform="translate(0 0.684375)"/>
        <use xlink:href="#DejaVuSans-34" transform="translate(64.580078 38.965625) scale(0.7)"/>
       </g>
      </g>
     </g>
     <g id="xtick_3">
      <g id="line2d_6">
       <g>
        <use xlink:href="#m2c2e53386b" x="142.051549" y="50.594687" style="stroke: #000000; stroke-width: 0.8"/>
       </g>
      </g>
      <g id="text_3">
       <!-- $\mathdefault{2^{6}}$ -->
       <g transform="translate(136.451549 41.515) scale(0.1 -0.1)">
        <defs>
         <path id="DejaVuSans-36" d="M 2113 2584 
Q 1688 2584 1439 2293 
Q 1191 2003 1191 1497 
Q 1191 994 1439 701 
Q 1688 409 2113 409 
Q 2538 409 2786 701 
Q 3034 994 3034 1497 
Q 3034 2003 2786 2293 
Q 2538 2584 2113 2584 
z
M 3366 4563 
L 3366 3988 
Q 3128 4100 2886 4159 
Q 2644 4219 2406 4219 
Q 1781 4219 1451 3797 
Q 1122 3375 1075 2522 
Q 1259 2794 1537 2939 
Q 1816 3084 2150 3084 
Q 2853 3084 3261 2657 
Q 3669 2231 3669 1497 
Q 3669 778 3244 343 
Q 2819 -91 2113 -91 
Q 1303 -91 875 529 
Q 447 1150 447 2328 
Q 447 3434 972 4092 
Q 1497 4750 2381 4750 
Q 2619 4750 2861 4703 
Q 3103 4656 3366 4563 
z
" transform="scale(0.015625)"/>
        </defs>
        <use xlink:href="#DejaVuSans-32" transform="translate(0 0.765625)"/>
        <use xlink:href="#DejaVuSans-36" transform="translate(64.580078 39.046875) scale(0.7)"/>
       </g>
      </g>
     </g>
     <g id="xtick_4">
      <g id="line2d_7">
       <g>
        <use xlink:href="#m2c2e53386b" x="186.842164" y="50.594687" style="stroke: #000000; stroke-width: 0.8"/>
       </g>
      </g>
      <g id="text_4">
       <!-- $\mathdefault{2^{8}}$ -->
       <g transform="translate(181.242164 41.515) scale(0.1 -0.1)">
        <defs>
         <path id="DejaVuSans-38" d="M 2034 2216 
Q 1584 2216 1326 1975 
Q 1069 1734 1069 1313 
Q 1069 891 1326 650 
Q 1584 409 2034 409 
Q 2484 409 2743 651 
Q 3003 894 3003 1313 
Q 3003 1734 2745 1975 
Q 2488 2216 2034 2216 
z
M 1403 2484 
Q 997 2584 770 2862 
Q 544 3141 544 3541 
Q 544 4100 942 4425 
Q 1341 4750 2034 4750 
Q 2731 4750 3128 4425 
Q 3525 4100 3525 3541 
Q 3525 3141 3298 2862 
Q 3072 2584 2669 2484 
Q 3125 2378 3379 2068 
Q 3634 1759 3634 1313 
Q 3634 634 3220 271 
Q 2806 -91 2034 -91 
Q 1263 -91 848 271 
Q 434 634 434 1313 
Q 434 1759 690 2068 
Q 947 2378 1403 2484 
z
M 1172 3481 
Q 1172 3119 1398 2916 
Q 1625 2713 2034 2713 
Q 2441 2713 2670 2916 
Q 2900 3119 2900 3481 
Q 2900 3844 2670 4047 
Q 2441 4250 2034 4250 
Q 1625 4250 1398 4047 
Q 1172 3844 1172 3481 
z
" transform="scale(0.015625)"/>
        </defs>
        <use xlink:href="#DejaVuSans-32" transform="translate(0 0.765625)"/>
        <use xlink:href="#DejaVuSans-38" transform="translate(64.580078 39.046875) scale(0.7)"/>
       </g>
      </g>
     </g>
     <g id="xtick_5">
      <g id="line2d_8">
       <g>
        <use xlink:href="#m2c2e53386b" x="231.63278" y="50.594687" style="stroke: #000000; stroke-width: 0.8"/>
       </g>
      </g>
      <g id="text_5">
       <!-- $\mathdefault{2^{10}}$ -->
       <g transform="translate(223.78278 41.515) scale(0.1 -0.1)">
        <defs>
         <path id="DejaVuSans-31" d="M 794 531 
L 1825 531 
L 1825 4091 
L 703 3866 
L 703 4441 
L 1819 4666 
L 2450 4666 
L 2450 531 
L 3481 531 
L 3481 0 
L 794 0 
L 794 531 
z
" transform="scale(0.015625)"/>
         <path id="DejaVuSans-30" d="M 2034 4250 
Q 1547 4250 1301 3770 
Q 1056 3291 1056 2328 
Q 1056 1369 1301 889 
Q 1547 409 2034 409 
Q 2525 409 2770 889 
Q 3016 1369 3016 2328 
Q 3016 3291 2770 3770 
Q 2525 4250 2034 4250 
z
M 2034 4750 
Q 2819 4750 3233 4129 
Q 3647 3509 3647 2328 
Q 3647 1150 3233 529 
Q 2819 -91 2034 -91 
Q 1250 -91 836 529 
Q 422 1150 422 2328 
Q 422 3509 836 4129 
Q 1250 4750 2034 4750 
z
" transform="scale(0.015625)"/>
        </defs>
        <use xlink:href="#DejaVuSans-32" transform="translate(0 0.765625)"/>
        <use xlink:href="#DejaVuSans-31" transform="translate(64.580078 39.046875) scale(0.7)"/>
        <use xlink:href="#DejaVuSans-30" transform="translate(109.116211 39.046875) scale(0.7)"/>
       </g>
      </g>
     </g>
     <g id="xtick_6">
      <g id="line2d_9">
       <g>
        <use xlink:href="#m2c2e53386b" x="276.423396" y="50.594687" style="stroke: #000000; stroke-width: 0.8"/>
       </g>
      </g>
      <g id="text_6">
       <!-- $\mathdefault{2^{12}}$ -->
       <g transform="translate(268.573396 41.515) scale(0.1 -0.1)">
        <use xlink:href="#DejaVuSans-32" transform="translate(0 0.765625)"/>
        <use xlink:href="#DejaVuSans-31" transform="translate(64.580078 39.046875) scale(0.7)"/>
        <use xlink:href="#DejaVuSans-32" transform="translate(109.116211 39.046875) scale(0.7)"/>
       </g>
      </g>
     </g>
     <g id="xtick_7">
      <g id="line2d_10">
       <g>
        <use xlink:href="#m2c2e53386b" x="321.214012" y="50.594687" style="stroke: #000000; stroke-width: 0.8"/>
       </g>
      </g>
      <g id="text_7">
       <!-- $\mathdefault{2^{14}}$ -->
       <g transform="translate(313.364012 41.515) scale(0.1 -0.1)">
        <use xlink:href="#DejaVuSans-32" transform="translate(0 0.684375)"/>
        <use xlink:href="#DejaVuSans-31" transform="translate(64.580078 38.965625) scale(0.7)"/>
        <use xlink:href="#DejaVuSans-34" transform="translate(109.116211 38.965625) scale(0.7)"/>
       </g>
      </g>
     </g>
     <g id="xtick_8">
      <g id="line2d_11">
       <g>
        <use xlink:href="#m2c2e53386b" x="366.004627" y="50.594687" style="stroke: #000000; stroke-width: 0.8"/>
       </g>
      </g>
      <g id="text_8">
       <!-- $\mathdefault{2^{16}}$ -->
       <g transform="translate(358.154627 41.515) scale(0.1 -0.1)">
        <use xlink:href="#DejaVuSans-32" transform="translate(0 0.765625)"/>
        <use xlink:href="#DejaVuSans-31" transform="translate(64.580078 39.046875) scale(0.7)"/>
        <use xlink:href="#DejaVuSans-36" transform="translate(109.116211 39.046875) scale(0.7)"/>
       </g>
      </g>
     </g>
     <g id="xtick_9">
      <g id="line2d_12">
       <g>
        <use xlink:href="#m2c2e53386b" x="410.795243" y="50.594687" style="stroke: #000000; stroke-width: 0.8"/>
       </g>
      </g>
      <g id="text_9">
       <!-- $\mathdefault{2^{18}}$ -->
       <g transform="translate(402.945243 41.515) scale(0.1 -0.1)">
        <use xlink:href="#DejaVuSans-32" transform="translate(0 0.765625)"/>
        <use xlink:href="#DejaVuSans-31" transform="translate(64.580078 39.046875) scale(0.7)"/>
        <use xlink:href="#DejaVuSans-38" transform="translate(109.116211 39.046875) scale(0.7)"/>
       </g>
      </g>
     </g>
     <g id="xtick_10">
      <g id="line2d_13">
       <g>
        <use xlink:href="#m2c2e53386b" x="455.585859" y="50.594687" style="stroke: #000000; stroke-width: 0.8"/>
       </g>
      </g>
      <g id="text_10">
       <!-- $\mathdefault{2^{20}}$ -->
       <g transform="translate(447.735859 41.515) scale(0.1 -0.1)">
        <use xlink:href="#DejaVuSans-32" transform="translate(0 0.765625)"/>
        <use xlink:href="#DejaVuSans-32" transform="translate(64.580078 39.046875) scale(0.7)"/>
        <use xlink:href="#DejaVuSans-30" transform="translate(109.116211 39.046875) scale(0.7)"/>
       </g>
      </g>
     </g>
     <g id="xtick_11">
      <g id="line2d_14">
       <g>
        <use xlink:href="#m2c2e53386b" x="500.376474" y="50.594687" style="stroke: #000000; stroke-width: 0.8"/>
       </g>
      </g>
      <g id="text_11">
       <!-- $\mathdefault{2^{22}}$ -->
       <g transform="translate(492.526474 41.515) scale(0.1 -0.1)">
        <use xlink:href="#DejaVuSans-32" transform="translate(0 0.765625)"/>
        <use xlink:href="#DejaVuSans-32" transform="translate(64.580078 39.046875) scale(0.7)"/>
        <use xlink:href="#DejaVuSans-32" transform="translate(109.116211 39.046875) scale(0.7)"/>
       </g>
      </g>
     </g>
     <g id="xtick_12">
      <g id="line2d_15">
       <g>
        <use xlink:href="#m2c2e53386b" x="545.16709" y="50.594687" style="stroke: #000000; stroke-width: 0.8"/>
       </g>
      </g>
      <g id="text_12">
       <!-- $\mathdefault{2^{24}}$ -->
       <g transform="translate(537.31709 41.515) scale(0.1 -0.1)">
        <use xlink:href="#DejaVuSans-32" transform="translate(0 0.765625)"/>
        <use xlink:href="#DejaVuSans-32" transform="translate(64.580078 39.046875) scale(0.7)"/>
        <use xlink:href="#DejaVuSans-34" transform="translate(109.116211 39.046875) scale(0.7)"/>
       </g>
      </g>
     </g>
     <g id="xtick_13">
      <g id="line2d_16">
       <g>
        <use xlink:href="#m2c2e53386b" x="589.957706" y="50.594687" style="stroke: #000000; stroke-width: 0.8"/>
       </g>
      </g>
      <g id="text_13">
       <!-- $\mathdefault{2^{26}}$ -->
       <g transform="translate(582.107706 41.515) scale(0.1 -0.1)">
        <use xlink:href="#DejaVuSans-32" transform="translate(0 0.765625)"/>
        <use xlink:href="#DejaVuSans-32" transform="translate(64.580078 39.046875) scale(0.7)"/>
        <use xlink:href="#DejaVuSans-36" transform="translate(109.116211 39.046875) scale(0.7)"/>
       </g>
      </g>
     </g>
     <g id="xtick_14">
      <g id="line2d_17">
       <g>
        <use xlink:href="#m2c2e53386b" x="634.748322" y="50.594687" style="stroke: #000000; stroke-width: 0.8"/>
       </g>
      </g>
      <g id="text_14">
       <!-- $\mathdefault{2^{28}}$ -->
       <g transform="translate(626.898322 41.515) scale(0.1 -0.1)">
        <use xlink:href="#DejaVuSans-32" transform="translate(0 0.765625)"/>
        <use xlink:href="#DejaVuSans-32" transform="translate(64.580078 39.046875) scale(0.7)"/>
        <use xlink:href="#DejaVuSans-38" transform="translate(109.116211 39.046875) scale(0.7)"/>
       </g>
      </g>
     </g>
     <g id="text_15">
      <!-- Array length (u32) -->
      <g transform="translate(307.85 29.916562) scale(0.1 -0.1)">
       <defs>
        <path id="DejaVuSans-41" d="M 2188 4044 
L 1331 1722 
L 3047 1722 
L 2188 4044 
z
M 1831 4666 
L 2547 4666 
L 4325 0 
L 3669 0 
L 3244 1197 
L 1141 1197 
L 716 0 
L 50 0 
L 1831 4666 
z
" transform="scale(0.015625)"/>
        <path id="DejaVuSans-72" d="M 2631 2963 
Q 2534 3019 2420 3045 
Q 2306 3072 2169 3072 
Q 1681 3072 1420 2755 
Q 1159 2438 1159 1844 
L 1159 0 
L 581 0 
L 581 3500 
L 1159 3500 
L 1159 2956 
Q 1341 3275 1631 3429 
Q 1922 3584 2338 3584 
Q 2397 3584 2469 3576 
Q 2541 3569 2628 3553 
L 2631 2963 
z
" transform="scale(0.015625)"/>
        <path id="DejaVuSans-61" d="M 2194 1759 
Q 1497 1759 1228 1600 
Q 959 1441 959 1056 
Q 959 750 1161 570 
Q 1363 391 1709 391 
Q 2188 391 2477 730 
Q 2766 1069 2766 1631 
L 2766 1759 
L 2194 1759 
z
M 3341 1997 
L 3341 0 
L 2766 0 
L 2766 531 
Q 2569 213 2275 61 
Q 1981 -91 1556 -91 
Q 1019 -91 701 211 
Q 384 513 384 1019 
Q 384 1609 779 1909 
Q 1175 2209 1959 2209 
L 2766 2209 
L 2766 2266 
Q 2766 2663 2505 2880 
Q 2244 3097 1772 3097 
Q 1472 3097 1187 3025 
Q 903 2953 641 2809 
L 641 3341 
Q 956 3463 1253 3523 
Q 1550 3584 1831 3584 
Q 2591 3584 2966 3190 
Q 3341 2797 3341 1997 
z
" transform="scale(0.015625)"/>
        <path id="DejaVuSans-79" d="M 2059 -325 
Q 1816 -950 1584 -1140 
Q 1353 -1331 966 -1331 
L 506 -1331 
L 506 -850 
L 844 -850 
Q 1081 -850 1212 -737 
Q 1344 -625 1503 -206 
L 1606 56 
L 191 3500 
L 800 3500 
L 1894 763 
L 2988 3500 
L 3597 3500 
L 2059 -325 
z
" transform="scale(0.015625)"/>
        <path id="DejaVuSans-20" transform="scale(0.015625)"/>
        <path id="DejaVuSans-6c" d="M 603 4863 
L 1178 4863 
L 1178 0 
L 603 0 
L 603 4863 
z
" transform="scale(0.015625)"/>
        <path id="DejaVuSans-65" d="M 3597 1894 
L 3597 1613 
L 953 1613 
Q 991 1019 1311 708 
Q 1631 397 2203 397 
Q 2534 397 2845 478 
Q 3156 559 3463 722 
L 3463 178 
Q 3153 47 2828 -22 
Q 2503 -91 2169 -91 
Q 1331 -91 842 396 
Q 353 884 353 1716 
Q 353 2575 817 3079 
Q 1281 3584 2069 3584 
Q 2775 3584 3186 3129 
Q 3597 2675 3597 1894 
z
M 3022 2063 
Q 3016 2534 2758 2815 
Q 2500 3097 2075 3097 
Q 1594 3097 1305 2825 
Q 1016 2553 972 2059 
L 3022 2063 
z
" transform="scale(0.015625)"/>
        <path id="DejaVuSans-6e" d="M 3513 2113 
L 3513 0 
L 2938 0 
L 2938 2094 
Q 2938 2591 2744 2837 
Q 2550 3084 2163 3084 
Q 1697 3084 1428 2787 
Q 1159 2491 1159 1978 
L 1159 0 
L 581 0 
L 581 3500 
L 1159 3500 
L 1159 2956 
Q 1366 3272 1645 3428 
Q 1925 3584 2291 3584 
Q 2894 3584 3203 3211 
Q 3513 2838 3513 2113 
z
" transform="scale(0.015625)"/>
        <path id="DejaVuSans-67" d="M 2906 1791 
Q 2906 2416 2648 2759 
Q 2391 3103 1925 3103 
Q 1463 3103 1205 2759 
Q 947 2416 947 1791 
Q 947 1169 1205 825 
Q 1463 481 1925 481 
Q 2391 481 2648 825 
Q 2906 1169 2906 1791 
z
M 3481 434 
Q 3481 -459 3084 -895 
Q 2688 -1331 1869 -1331 
Q 1566 -1331 1297 -1286 
Q 1028 -1241 775 -1147 
L 775 -588 
Q 1028 -725 1275 -790 
Q 1522 -856 1778 -856 
Q 2344 -856 2625 -561 
Q 2906 -266 2906 331 
L 2906 616 
Q 2728 306 2450 153 
Q 2172 0 1784 0 
Q 1141 0 747 490 
Q 353 981 353 1791 
Q 353 2603 747 3093 
Q 1141 3584 1784 3584 
Q 2172 3584 2450 3431 
Q 2728 3278 2906 2969 
L 2906 3500 
L 3481 3500 
L 3481 434 
z
" transform="scale(0.015625)"/>
        <path id="DejaVuSans-74" d="M 1172 4494 
L 1172 3500 
L 2356 3500 
L 2356 3053 
L 1172 3053 
L 1172 1153 
Q 1172 725 1289 603 
Q 1406 481 1766 481 
L 2356 481 
L 2356 0 
L 1766 0 
Q 1100 0 847 248 
Q 594 497 594 1153 
L 594 3053 
L 172 3053 
L 172 3500 
L 594 3500 
L 594 4494 
L 1172 4494 
z
" transform="scale(0.015625)"/>
        <path id="DejaVuSans-68" d="M 3513 2113 
L 3513 0 
L 2938 0 
L 2938 2094 
Q 2938 2591 2744 2837 
Q 2550 3084 2163 3084 
Q 1697 3084 1428 2787 
Q 1159 2491 1159 1978 
L 1159 0 
L 581 0 
L 581 4863 
L 1159 4863 
L 1159 2956 
Q 1366 3272 1645 3428 
Q 1925 3584 2291 3584 
Q 2894 3584 3203 3211 
Q 3513 2838 3513 2113 
z
" transform="scale(0.015625)"/>
        <path id="DejaVuSans-28" d="M 1984 4856 
Q 1566 4138 1362 3434 
Q 1159 2731 1159 2009 
Q 1159 1288 1364 580 
Q 1569 -128 1984 -844 
L 1484 -844 
Q 1016 -109 783 600 
Q 550 1309 550 2009 
Q 550 2706 781 3412 
Q 1013 4119 1484 4856 
L 1984 4856 
z
" transform="scale(0.015625)"/>
        <path id="DejaVuSans-75" d="M 544 1381 
L 544 3500 
L 1119 3500 
L 1119 1403 
Q 1119 906 1312 657 
Q 1506 409 1894 409 
Q 2359 409 2629 706 
Q 2900 1003 2900 1516 
L 2900 3500 
L 3475 3500 
L 3475 0 
L 2900 0 
L 2900 538 
Q 2691 219 2414 64 
Q 2138 -91 1772 -91 
Q 1169 -91 856 284 
Q 544 659 544 1381 
z
M 1991 3584 
L 1991 3584 
z
" transform="scale(0.015625)"/>
        <path id="DejaVuSans-33" d="M 2597 2516 
Q 3050 2419 3304 2112 
Q 3559 1806 3559 1356 
Q 3559 666 3084 287 
Q 2609 -91 1734 -91 
Q 1441 -91 1130 -33 
Q 819 25 488 141 
L 488 750 
Q 750 597 1062 519 
Q 1375 441 1716 441 
Q 2309 441 2620 675 
Q 2931 909 2931 1356 
Q 2931 1769 2642 2001 
Q 2353 2234 1838 2234 
L 1294 2234 
L 1294 2753 
L 1863 2753 
Q 2328 2753 2575 2939 
Q 2822 3125 2822 3475 
Q 2822 3834 2567 4026 
Q 2313 4219 1838 4219 
Q 1578 4219 1281 4162 
Q 984 4106 628 3988 
L 628 4550 
Q 988 4650 1302 4700 
Q 1616 4750 1894 4750 
Q 2613 4750 3031 4423 
Q 3450 4097 3450 3541 
Q 3450 3153 3228 2886 
Q 3006 2619 2597 2516 
z
" transform="scale(0.015625)"/>
        <path id="DejaVuSans-29" d="M 513 4856 
L 1013 4856 
Q 1481 4119 1714 3412 
Q 1947 2706 1947 2009 
Q 1947 1309 1714 600 
Q 1481 -109 1013 -844 
L 513 -844 
Q 928 -128 1133 580 
Q 1338 1288 1338 2009 
Q 1338 2731 1133 3434 
Q 928 4138 513 4856 
z
" transform="scale(0.015625)"/>
       </defs>
       <use xlink:href="#DejaVuSans-41"/>
       <use xlink:href="#DejaVuSans-72" x="68.408203"/>
       <use xlink:href="#DejaVuSans-72" x="107.771484"/>
       <use xlink:href="#DejaVuSans-61" x="148.884766"/>
       <use xlink:href="#DejaVuSans-79" x="210.164062"/>
       <use xlink:href="#DejaVuSans-20" x="269.34375"/>
       <use xlink:href="#DejaVuSans-6c" x="301.130859"/>
       <use xlink:href="#DejaVuSans-65" x="328.914062"/>
       <use xlink:href="#DejaVuSans-6e" x="390.4375"/>
       <use xlink:href="#DejaVuSans-67" x="453.816406"/>
       <use xlink:href="#DejaVuSans-74" x="517.292969"/>
       <use xlink:href="#DejaVuSans-68" x="556.501953"/>
       <use xlink:href="#DejaVuSans-20" x="619.880859"/>
       <use xlink:href="#DejaVuSans-28" x="651.667969"/>
       <use xlink:href="#DejaVuSans-75" x="690.681641"/>
       <use xlink:href="#DejaVuSans-33" x="754.060547"/>
       <use xlink:href="#DejaVuSans-32" x="817.683594"/>
       <use xlink:href="#DejaVuSans-29" x="881.306641"/>
      </g>
     </g>
    </g>
    <g id="matplotlib.axis_2"/>
    <g id="patch_4">
     <path d="M 46.965625 50.594687 
L 660.765625 50.594687 
" style="fill: none; stroke: #000000; stroke-width: 0.8; stroke-linejoin: miter; stroke-linecap: square"/>
    </g>
   </g>
   <g id="matplotlib.axis_3">
    <g id="xtick_15">
     <g id="line2d_18">
      <path d="M 52.470317 494.114688 
L 52.470317 50.594688 
" clip-path="url(#pce2b20b5cb)" style="fill: none; stroke: #b0b0b0; stroke-opacity: 0.4; stroke-width: 0.8; stroke-linecap: square"/>
     </g>
     <g id="line2d_19">
      <defs>
       <path id="m2e9411a753" d="M 0 0 
L 0 3.5 
" style="stroke: #000000; stroke-width: 0.8"/>
      </defs>
      <g>
       <use xlink:href="#m2e9411a753" x="52.470317" y="494.114688" style="stroke: #000000; stroke-width: 0.8"/>
      </g>
     </g>
     <g id="text_16">
      <!-- $\mathdefault{2^{4}}$ -->
      <g transform="translate(46.870317 508.713125) scale(0.1 -0.1)">
       <use xlink:href="#DejaVuSans-32" transform="translate(0 0.684375)"/>
       <use xlink:href="#DejaVuSans-34" transform="translate(64.580078 38.965625) scale(0.7)"/>
      </g>
     </g>
    </g>
    <g id="xtick_16">
     <g id="line2d_20">
      <path d="M 97.260933 494.114688 
L 97.260933 50.594688 
" clip-path="url(#pce2b20b5cb)" style="fill: none; stroke: #b0b0b0; stroke-opacity: 0.4; stroke-width: 0.8; stroke-linecap: square"/>
     </g>
     <g id="line2d_21">
      <g>
       <use xlink:href="#m2e9411a753" x="97.260933" y="494.114688" style="stroke: #000000; stroke-width: 0.8"/>
      </g>
     </g>
     <g id="text_17">
      <!-- $\mathdefault{2^{6}}$ -->
      <g transform="translate(91.660933 508.713125) scale(0.1 -0.1)">
       <use xlink:href="#DejaVuSans-32" transform="translate(0 0.765625)"/>
       <use xlink:href="#DejaVuSans-36" transform="translate(64.580078 39.046875) scale(0.7)"/>
      </g>
     </g>
    </g>
    <g id="xtick_17">
     <g id="line2d_22">
      <path d="M 142.051549 494.114688 
L 142.051549 50.594688 
" clip-path="url(#pce2b20b5cb)" style="fill: none; stroke: #b0b0b0; stroke-opacity: 0.4; stroke-width: 0.8; stroke-linecap: square"/>
     </g>
     <g id="line2d_23">
      <g>
       <use xlink:href="#m2e9411a753" x="142.051549" y="494.114688" style="stroke: #000000; stroke-width: 0.8"/>
      </g>
     </g>
     <g id="text_18">
      <!-- $\mathdefault{2^{8}}$ -->
      <g transform="translate(136.451549 508.713125) scale(0.1 -0.1)">
       <use xlink:href="#DejaVuSans-32" transform="translate(0 0.765625)"/>
       <use xlink:href="#DejaVuSans-38" transform="translate(64.580078 39.046875) scale(0.7)"/>
      </g>
     </g>
    </g>
    <g id="xtick_18">
     <g id="line2d_24">
      <path d="M 186.842164 494.114688 
L 186.842164 50.594688 
" clip-path="url(#pce2b20b5cb)" style="fill: none; stroke: #b0b0b0; stroke-opacity: 0.4; stroke-width: 0.8; stroke-linecap: square"/>
     </g>
     <g id="line2d_25">
      <g>
       <use xlink:href="#m2e9411a753" x="186.842164" y="494.114688" style="stroke: #000000; stroke-width: 0.8"/>
      </g>
     </g>
     <g id="text_19">
      <!-- $\mathdefault{2^{10}}$ -->
      <g transform="translate(178.992164 508.713125) scale(0.1 -0.1)">
       <use xlink:href="#DejaVuSans-32" transform="translate(0 0.765625)"/>
       <use xlink:href="#DejaVuSans-31" transform="translate(64.580078 39.046875) scale(0.7)"/>
       <use xlink:href="#DejaVuSans-30" transform="translate(109.116211 39.046875) scale(0.7)"/>
      </g>
     </g>
    </g>
    <g id="xtick_19">
     <g id="line2d_26">
      <path d="M 231.63278 494.114688 
L 231.63278 50.594688 
" clip-path="url(#pce2b20b5cb)" style="fill: none; stroke: #b0b0b0; stroke-opacity: 0.4; stroke-width: 0.8; stroke-linecap: square"/>
     </g>
     <g id="line2d_27">
      <g>
       <use xlink:href="#m2e9411a753" x="231.63278" y="494.114688" style="stroke: #000000; stroke-width: 0.8"/>
      </g>
     </g>
     <g id="text_20">
      <!-- $\mathdefault{2^{12}}$ -->
      <g transform="translate(223.78278 508.713125) scale(0.1 -0.1)">
       <use xlink:href="#DejaVuSans-32" transform="translate(0 0.765625)"/>
       <use xlink:href="#DejaVuSans-31" transform="translate(64.580078 39.046875) scale(0.7)"/>
       <use xlink:href="#DejaVuSans-32" transform="translate(109.116211 39.046875) scale(0.7)"/>
      </g>
     </g>
    </g>
    <g id="xtick_20">
     <g id="line2d_28">
      <path d="M 276.423396 494.114688 
L 276.423396 50.594688 
" clip-path="url(#pce2b20b5cb)" style="fill: none; stroke: #b0b0b0; stroke-opacity: 0.4; stroke-width: 0.8; stroke-linecap: square"/>
     </g>
     <g id="line2d_29">
      <g>
       <use xlink:href="#m2e9411a753" x="276.423396" y="494.114688" style="stroke: #000000; stroke-width: 0.8"/>
      </g>
     </g>
     <g id="text_21">
      <!-- $\mathdefault{2^{14}}$ -->
      <g transform="translate(268.573396 508.713125) scale(0.1 -0.1)">
       <use xlink:href="#DejaVuSans-32" transform="translate(0 0.684375)"/>
       <use xlink:href="#DejaVuSans-31" transform="translate(64.580078 38.965625) scale(0.7)"/>
       <use xlink:href="#DejaVuSans-34" transform="translate(109.116211 38.965625) scale(0.7)"/>
      </g>
     </g>
    </g>
    <g id="xtick_21">
     <g id="line2d_30">
      <path d="M 321.214012 494.114688 
L 321.214012 50.594688 
" clip-path="url(#pce2b20b5cb)" style="fill: none; stroke: #b0b0b0; stroke-opacity: 0.4; stroke-width: 0.8; stroke-linecap: square"/>
     </g>
     <g id="line2d_31">
      <g>
       <use xlink:href="#m2e9411a753" x="321.214012" y="494.114688" style="stroke: #000000; stroke-width: 0.8"/>
      </g>
     </g>
     <g id="text_22">
      <!-- $\mathdefault{2^{16}}$ -->
      <g transform="translate(313.364012 508.713125) scale(0.1 -0.1)">
       <use xlink:href="#DejaVuSans-32" transform="translate(0 0.765625)"/>
       <use xlink:href="#DejaVuSans-31" transform="translate(64.580078 39.046875) scale(0.7)"/>
       <use xlink:href="#DejaVuSans-36" transform="translate(109.116211 39.046875) scale(0.7)"/>
      </g>
     </g>
    </g>
    <g id="xtick_22">
     <g id="line2d_32">
      <path d="M 366.004627 494.114688 
L 366.004627 50.594688 
" clip-path="url(#pce2b20b5cb)" style="fill: none; stroke: #b0b0b0; stroke-opacity: 0.4; stroke-width: 0.8; stroke-linecap: square"/>
     </g>
     <g id="line2d_33">
      <g>
       <use xlink:href="#m2e9411a753" x="366.004627" y="494.114688" style="stroke: #000000; stroke-width: 0.8"/>
      </g>
     </g>
     <g id="text_23">
      <!-- $\mathdefault{2^{18}}$ -->
      <g transform="translate(358.154627 508.713125) scale(0.1 -0.1)">
       <use xlink:href="#DejaVuSans-32" transform="translate(0 0.765625)"/>
       <use xlink:href="#DejaVuSans-31" transform="translate(64.580078 39.046875) scale(0.7)"/>
       <use xlink:href="#DejaVuSans-38" transform="translate(109.116211 39.046875) scale(0.7)"/>
      </g>
     </g>
    </g>
    <g id="xtick_23">
     <g id="line2d_34">
      <path d="M 410.795243 494.114688 
L 410.795243 50.594688 
" clip-path="url(#pce2b20b5cb)" style="fill: none; stroke: #b0b0b0; stroke-opacity: 0.4; stroke-width: 0.8; stroke-linecap: square"/>
     </g>
     <g id="line2d_35">
      <g>
       <use xlink:href="#m2e9411a753" x="410.795243" y="494.114688" style="stroke: #000000; stroke-width: 0.8"/>
      </g>
     </g>
     <g id="text_24">
      <!-- $\mathdefault{2^{20}}$ -->
      <g transform="translate(402.945243 508.713125) scale(0.1 -0.1)">
       <use xlink:href="#DejaVuSans-32" transform="translate(0 0.765625)"/>
       <use xlink:href="#DejaVuSans-32" transform="translate(64.580078 39.046875) scale(0.7)"/>
       <use xlink:href="#DejaVuSans-30" transform="translate(109.116211 39.046875) scale(0.7)"/>
      </g>
     </g>
    </g>
    <g id="xtick_24">
     <g id="line2d_36">
      <path d="M 455.585859 494.114688 
L 455.585859 50.594688 
" clip-path="url(#pce2b20b5cb)" style="fill: none; stroke: #b0b0b0; stroke-opacity: 0.4; stroke-width: 0.8; stroke-linecap: square"/>
     </g>
     <g id="line2d_37">
      <g>
       <use xlink:href="#m2e9411a753" x="455.585859" y="494.114688" style="stroke: #000000; stroke-width: 0.8"/>
      </g>
     </g>
     <g id="text_25">
      <!-- $\mathdefault{2^{22}}$ -->
      <g transform="translate(447.735859 508.713125) scale(0.1 -0.1)">
       <use xlink:href="#DejaVuSans-32" transform="translate(0 0.765625)"/>
       <use xlink:href="#DejaVuSans-32" transform="translate(64.580078 39.046875) scale(0.7)"/>
       <use xlink:href="#DejaVuSans-32" transform="translate(109.116211 39.046875) scale(0.7)"/>
      </g>
     </g>
    </g>
    <g id="xtick_25">
     <g id="line2d_38">
      <path d="M 500.376474 494.114688 
L 500.376474 50.594688 
" clip-path="url(#pce2b20b5cb)" style="fill: none; stroke: #b0b0b0; stroke-opacity: 0.4; stroke-width: 0.8; stroke-linecap: square"/>
     </g>
     <g id="line2d_39">
      <g>
       <use xlink:href="#m2e9411a753" x="500.376474" y="494.114688" style="stroke: #000000; stroke-width: 0.8"/>
      </g>
     </g>
     <g id="text_26">
      <!-- $\mathdefault{2^{24}}$ -->
      <g transform="translate(492.526474 508.713125) scale(0.1 -0.1)">
       <use xlink:href="#DejaVuSans-32" transform="translate(0 0.765625)"/>
       <use xlink:href="#DejaVuSans-32" transform="translate(64.580078 39.046875) scale(0.7)"/>
       <use xlink:href="#DejaVuSans-34" transform="translate(109.116211 39.046875) scale(0.7)"/>
      </g>
     </g>
    </g>
    <g id="xtick_26">
     <g id="line2d_40">
      <path d="M 545.16709 494.114688 
L 545.16709 50.594688 
" clip-path="url(#pce2b20b5cb)" style="fill: none; stroke: #b0b0b0; stroke-opacity: 0.4; stroke-width: 0.8; stroke-linecap: square"/>
     </g>
     <g id="line2d_41">
      <g>
       <use xlink:href="#m2e9411a753" x="545.16709" y="494.114688" style="stroke: #000000; stroke-width: 0.8"/>
      </g>
     </g>
     <g id="text_27">
      <!-- $\mathdefault{2^{26}}$ -->
      <g transform="translate(537.31709 508.713125) scale(0.1 -0.1)">
       <use xlink:href="#DejaVuSans-32" transform="translate(0 0.765625)"/>
       <use xlink:href="#DejaVuSans-32" transform="translate(64.580078 39.046875) scale(0.7)"/>
       <use xlink:href="#DejaVuSans-36" transform="translate(109.116211 39.046875) scale(0.7)"/>
      </g>
     </g>
    </g>
    <g id="xtick_27">
     <g id="line2d_42">
      <path d="M 589.957706 494.114688 
L 589.957706 50.594688 
" clip-path="url(#pce2b20b5cb)" style="fill: none; stroke: #b0b0b0; stroke-opacity: 0.4; stroke-width: 0.8; stroke-linecap: square"/>
     </g>
     <g id="line2d_43">
      <g>
       <use xlink:href="#m2e9411a753" x="589.957706" y="494.114688" style="stroke: #000000; stroke-width: 0.8"/>
      </g>
     </g>
     <g id="text_28">
      <!-- $\mathdefault{2^{28}}$ -->
      <g transform="translate(582.107706 508.713125) scale(0.1 -0.1)">
       <use xlink:href="#DejaVuSans-32" transform="translate(0 0.765625)"/>
       <use xlink:href="#DejaVuSans-32" transform="translate(64.580078 39.046875) scale(0.7)"/>
       <use xlink:href="#DejaVuSans-38" transform="translate(109.116211 39.046875) scale(0.7)"/>
      </g>
     </g>
    </g>
    <g id="xtick_28">
     <g id="line2d_44">
      <path d="M 634.748322 494.114688 
L 634.748322 50.594688 
" clip-path="url(#pce2b20b5cb)" style="fill: none; stroke: #b0b0b0; stroke-opacity: 0.4; stroke-width: 0.8; stroke-linecap: square"/>
     </g>
     <g id="line2d_45">
      <g>
       <use xlink:href="#m2e9411a753" x="634.748322" y="494.114688" style="stroke: #000000; stroke-width: 0.8"/>
      </g>
     </g>
     <g id="text_29">
      <!-- $\mathdefault{2^{30}}$ -->
      <g transform="translate(626.898322 508.713125) scale(0.1 -0.1)">
       <use xlink:href="#DejaVuSans-32" transform="translate(0 0.765625)"/>
       <use xlink:href="#DejaVuSans-33" transform="translate(64.580078 39.046875) scale(0.7)"/>
       <use xlink:href="#DejaVuSans-30" transform="translate(109.116211 39.046875) scale(0.7)"/>
      </g>
     </g>
    </g>
    <g id="text_30">
     <!-- Input size (bytes) -->
     <g transform="translate(310.369531 522.39125) scale(0.1 -0.1)">
      <defs>
       <path id="DejaVuSans-49" d="M 628 4666 
L 1259 4666 
L 1259 0 
L 628 0 
L 628 4666 
z
" transform="scale(0.015625)"/>
       <path id="DejaVuSans-70" d="M 1159 525 
L 1159 -1331 
L 581 -1331 
L 581 3500 
L 1159 3500 
L 1159 2969 
Q 1341 3281 1617 3432 
Q 1894 3584 2278 3584 
Q 2916 3584 3314 3078 
Q 3713 2572 3713 1747 
Q 3713 922 3314 415 
Q 2916 -91 2278 -91 
Q 1894 -91 1617 61 
Q 1341 213 1159 525 
z
M 3116 1747 
Q 3116 2381 2855 2742 
Q 2594 3103 2138 3103 
Q 1681 3103 1420 2742 
Q 1159 2381 1159 1747 
Q 1159 1113 1420 752 
Q 1681 391 2138 391 
Q 2594 391 2855 752 
Q 3116 1113 3116 1747 
z
" transform="scale(0.015625)"/>
       <path id="DejaVuSans-73" d="M 2834 3397 
L 2834 2853 
Q 2591 2978 2328 3040 
Q 2066 3103 1784 3103 
Q 1356 3103 1142 2972 
Q 928 2841 928 2578 
Q 928 2378 1081 2264 
Q 1234 2150 1697 2047 
L 1894 2003 
Q 2506 1872 2764 1633 
Q 3022 1394 3022 966 
Q 3022 478 2636 193 
Q 2250 -91 1575 -91 
Q 1294 -91 989 -36 
Q 684 19 347 128 
L 347 722 
Q 666 556 975 473 
Q 1284 391 1588 391 
Q 1994 391 2212 530 
Q 2431 669 2431 922 
Q 2431 1156 2273 1281 
Q 2116 1406 1581 1522 
L 1381 1569 
Q 847 1681 609 1914 
Q 372 2147 372 2553 
Q 372 3047 722 3315 
Q 1072 3584 1716 3584 
Q 2034 3584 2315 3537 
Q 2597 3491 2834 3397 
z
" transform="scale(0.015625)"/>
       <path id="DejaVuSans-69" d="M 603 3500 
L 1178 3500 
L 1178 0 
L 603 0 
L 603 3500 
z
M 603 4863 
L 1178 4863 
L 1178 4134 
L 603 4134 
L 603 4863 
z
" transform="scale(0.015625)"/>
       <path id="DejaVuSans-7a" d="M 353 3500 
L 3084 3500 
L 3084 2975 
L 922 459 
L 3084 459 
L 3084 0 
L 275 0 
L 275 525 
L 2438 3041 
L 353 3041 
L 353 3500 
z
" transform="scale(0.015625)"/>
       <path id="DejaVuSans-62" d="M 3116 1747 
Q 3116 2381 2855 2742 
Q 2594 3103 2138 3103 
Q 1681 3103 1420 2742 
Q 1159 2381 1159 1747 
Q 1159 1113 1420 752 
Q 1681 391 2138 391 
Q 2594 391 2855 752 
Q 3116 1113 3116 1747 
z
M 1159 2969 
Q 1341 3281 1617 3432 
Q 1894 3584 2278 3584 
Q 2916 3584 3314 3078 
Q 3713 2572 3713 1747 
Q 3713 922 3314 415 
Q 2916 -91 2278 -91 
Q 1894 -91 1617 61 
Q 1341 213 1159 525 
L 1159 0 
L 581 0 
L 581 4863 
L 1159 4863 
L 1159 2969 
z
" transform="scale(0.015625)"/>
      </defs>
      <use xlink:href="#DejaVuSans-49"/>
      <use xlink:href="#DejaVuSans-6e" x="29.492188"/>
      <use xlink:href="#DejaVuSans-70" x="92.871094"/>
      <use xlink:href="#DejaVuSans-75" x="156.347656"/>
      <use xlink:href="#DejaVuSans-74" x="219.726562"/>
      <use xlink:href="#DejaVuSans-20" x="258.935547"/>
      <use xlink:href="#DejaVuSans-73" x="290.722656"/>
      <use xlink:href="#DejaVuSans-69" x="342.822266"/>
      <use xlink:href="#DejaVuSans-7a" x="370.605469"/>
      <use xlink:href="#DejaVuSans-65" x="423.095703"/>
      <use xlink:href="#DejaVuSans-20" x="484.619141"/>
      <use xlink:href="#DejaVuSans-28" x="516.40625"/>
      <use xlink:href="#DejaVuSans-62" x="555.419922"/>
      <use xlink:href="#DejaVuSans-79" x="618.896484"/>
      <use xlink:href="#DejaVuSans-74" x="678.076172"/>
      <use xlink:href="#DejaVuSans-65" x="717.285156"/>
      <use xlink:href="#DejaVuSans-73" x="778.808594"/>
      <use xlink:href="#DejaVuSans-29" x="830.908203"/>
     </g>
    </g>
   </g>
   <g id="matplotlib.axis_4">
    <g id="ytick_1">
     <g id="line2d_46">
      <path d="M 46.965625 494.114688 
L 660.765625 494.114688 
" clip-path="url(#pce2b20b5cb)" style="fill: none; stroke: #b0b0b0; stroke-opacity: 0.4; stroke-width: 0.8; stroke-linecap: square"/>
     </g>
     <g id="line2d_47">
      <defs>
       <path id="mb10a96ea3c" d="M 0 0 
L -3.5 0 
" style="stroke: #000000; stroke-width: 0.8"/>
      </defs>
      <g>
       <use xlink:href="#mb10a96ea3c" x="46.965625" y="494.114688" style="stroke: #000000; stroke-width: 0.8"/>
      </g>
     </g>
     <g id="text_31">
      <!-- 0 -->
      <g transform="translate(33.603125 497.913906) scale(0.1 -0.1)">
       <use xlink:href="#DejaVuSans-30"/>
      </g>
     </g>
    </g>
    <g id="ytick_2">
     <g id="line2d_48">
      <path d="M 46.965625 405.410688 
L 660.765625 405.410688 
" clip-path="url(#pce2b20b5cb)" style="fill: none; stroke: #b0b0b0; stroke-opacity: 0.4; stroke-width: 0.8; stroke-linecap: square"/>
     </g>
     <g id="line2d_49">
      <g>
       <use xlink:href="#mb10a96ea3c" x="46.965625" y="405.410688" style="stroke: #000000; stroke-width: 0.8"/>
      </g>
     </g>
     <g id="text_32">
      <!-- 20 -->
      <g transform="translate(27.240625 409.209906) scale(0.1 -0.1)">
       <use xlink:href="#DejaVuSans-32"/>
       <use xlink:href="#DejaVuSans-30" x="63.623047"/>
      </g>
     </g>
    </g>
    <g id="ytick_3">
     <g id="line2d_50">
      <path d="M 46.965625 316.706688 
L 660.765625 316.706688 
" clip-path="url(#pce2b20b5cb)" style="fill: none; stroke: #b0b0b0; stroke-opacity: 0.4; stroke-width: 0.8; stroke-linecap: square"/>
     </g>
     <g id="line2d_51">
      <g>
       <use xlink:href="#mb10a96ea3c" x="46.965625" y="316.706688" style="stroke: #000000; stroke-width: 0.8"/>
      </g>
     </g>
     <g id="text_33">
      <!-- 40 -->
      <g transform="translate(27.240625 320.505906) scale(0.1 -0.1)">
       <use xlink:href="#DejaVuSans-34"/>
       <use xlink:href="#DejaVuSans-30" x="63.623047"/>
      </g>
     </g>
    </g>
    <g id="ytick_4">
     <g id="line2d_52">
      <path d="M 46.965625 228.002688 
L 660.765625 228.002688 
" clip-path="url(#pce2b20b5cb)" style="fill: none; stroke: #b0b0b0; stroke-opacity: 0.4; stroke-width: 0.8; stroke-linecap: square"/>
     </g>
     <g id="line2d_53">
      <g>
       <use xlink:href="#mb10a96ea3c" x="46.965625" y="228.002688" style="stroke: #000000; stroke-width: 0.8"/>
      </g>
     </g>
     <g id="text_34">
      <!-- 60 -->
      <g transform="translate(27.240625 231.801906) scale(0.1 -0.1)">
       <use xlink:href="#DejaVuSans-36"/>
       <use xlink:href="#DejaVuSans-30" x="63.623047"/>
      </g>
     </g>
    </g>
    <g id="ytick_5">
     <g id="line2d_54">
      <path d="M 46.965625 139.298688 
L 660.765625 139.298688 
" clip-path="url(#pce2b20b5cb)" style="fill: none; stroke: #b0b0b0; stroke-opacity: 0.4; stroke-width: 0.8; stroke-linecap: square"/>
     </g>
     <g id="line2d_55">
      <g>
       <use xlink:href="#mb10a96ea3c" x="46.965625" y="139.298688" style="stroke: #000000; stroke-width: 0.8"/>
      </g>
     </g>
     <g id="text_35">
      <!-- 80 -->
      <g transform="translate(27.240625 143.097906) scale(0.1 -0.1)">
       <use xlink:href="#DejaVuSans-38"/>
       <use xlink:href="#DejaVuSans-30" x="63.623047"/>
      </g>
     </g>
    </g>
    <g id="ytick_6">
     <g id="line2d_56">
      <path d="M 46.965625 50.594688 
L 660.765625 50.594688 
" clip-path="url(#pce2b20b5cb)" style="fill: none; stroke: #b0b0b0; stroke-opacity: 0.4; stroke-width: 0.8; stroke-linecap: square"/>
     </g>
     <g id="line2d_57">
      <g>
       <use xlink:href="#mb10a96ea3c" x="46.965625" y="50.594688" style="stroke: #000000; stroke-width: 0.8"/>
      </g>
     </g>
     <g id="text_36">
      <!-- 100 -->
      <g transform="translate(20.878125 54.393906) scale(0.1 -0.1)">
       <use xlink:href="#DejaVuSans-31"/>
       <use xlink:href="#DejaVuSans-30" x="63.623047"/>
       <use xlink:href="#DejaVuSans-30" x="127.246094"/>
      </g>
     </g>
    </g>
    <g id="text_37">
     <!-- Inverse throughput (ns) -->
     <g transform="translate(14.798438 331.570313) rotate(-90) scale(0.1 -0.1)">
      <defs>
       <path id="DejaVuSans-76" d="M 191 3500 
L 800 3500 
L 1894 563 
L 2988 3500 
L 3597 3500 
L 2284 0 
L 1503 0 
L 191 3500 
z
" transform="scale(0.015625)"/>
       <path id="DejaVuSans-6f" d="M 1959 3097 
Q 1497 3097 1228 2736 
Q 959 2375 959 1747 
Q 959 1119 1226 758 
Q 1494 397 1959 397 
Q 2419 397 2687 759 
Q 2956 1122 2956 1747 
Q 2956 2369 2687 2733 
Q 2419 3097 1959 3097 
z
M 1959 3584 
Q 2709 3584 3137 3096 
Q 3566 2609 3566 1747 
Q 3566 888 3137 398 
Q 2709 -91 1959 -91 
Q 1206 -91 779 398 
Q 353 888 353 1747 
Q 353 2609 779 3096 
Q 1206 3584 1959 3584 
z
" transform="scale(0.015625)"/>
      </defs>
      <use xlink:href="#DejaVuSans-49"/>
      <use xlink:href="#DejaVuSans-6e" x="29.492188"/>
      <use xlink:href="#DejaVuSans-76" x="92.871094"/>
      <use xlink:href="#DejaVuSans-65" x="152.050781"/>
      <use xlink:href="#DejaVuSans-72" x="213.574219"/>
      <use xlink:href="#DejaVuSans-73" x="254.6875"/>
      <use xlink:href="#DejaVuSans-65" x="306.787109"/>
      <use xlink:href="#DejaVuSans-20" x="368.310547"/>
      <use xlink:href="#DejaVuSans-74" x="400.097656"/>
      <use xlink:href="#DejaVuSans-68" x="439.306641"/>
      <use xlink:href="#DejaVuSans-72" x="502.685547"/>
      <use xlink:href="#DejaVuSans-6f" x="541.548828"/>
      <use xlink:href="#DejaVuSans-75" x="602.730469"/>
      <use xlink:href="#DejaVuSans-67" x="666.109375"/>
      <use xlink:href="#DejaVuSans-68" x="729.585938"/>
      <use xlink:href="#DejaVuSans-70" x="792.964844"/>
      <use xlink:href="#DejaVuSans-75" x="856.441406"/>
      <use xlink:href="#DejaVuSans-74" x="919.820312"/>
      <use xlink:href="#DejaVuSans-20" x="959.029297"/>
      <use xlink:href="#DejaVuSans-28" x="990.816406"/>
      <use xlink:href="#DejaVuSans-6e" x="1029.830078"/>
      <use xlink:href="#DejaVuSans-73" x="1093.208984"/>
      <use xlink:href="#DejaVuSans-29" x="1145.308594"/>
     </g>
    </g>
   </g>
   <g id="line2d_58">
    <path d="M 74.865625 479.114341 
L 79.556398 484.154932 
L 84.411955 487.928195 
L 89.924798 485.010467 
L 94.632688 484.458997 
L 100.156266 483.95792 
L 105.26842 484.864818 
L 110.361348 484.137669 
L 115.341895 483.954661 
L 120.404759 485.418424 
L 125.420521 483.85936 
L 130.491444 483.720468 
L 135.651989 481.327397 
L 140.764143 480.89421 
L 145.857071 481.257485 
L 150.933635 476.1109 
L 155.982591 475.737455 
L 161.056721 475.534028 
L 166.167165 477.926661 
L 171.198957 469.877327 
L 176.303617 470.91704 
L 181.390168 481.190016 
L 186.4613 481.843352 
L 191.532937 467.892325 
L 196.599134 475.845524 
L 201.682827 475.997064 
L 206.745843 469.341627 
L 211.828474 476.013365 
L 216.89834 470.347944 
L 221.967664 476.028598 
L 227.046847 466.133305 
L 232.118177 469.222506 
L 237.191835 471.466856 
L 242.264279 464.772402 
L 247.333903 473.247816 
L 252.410653 465.69838 
L 257.481113 470.808781 
L 262.55469 471.001293 
L 267.626848 462.958725 
L 272.700838 458.437849 
L 277.773245 458.524062 
L 282.847412 454.854234 
L 287.918813 455.995618 
L 292.992191 466.783831 
L 298.065555 454.889101 
L 303.138102 450.005193 
L 308.210573 449.496141 
L 313.283465 467.847793 
L 318.356064 460.718445 
L 323.42881 457.875793 
L 328.501688 452.057284 
L 333.574396 450.214875 
L 338.647337 452.164638 
L 343.720056 441.507928 
L 348.792838 436.830723 
L 353.865608 448.979946 
L 358.938341 438.780757 
L 364.011048 443.532342 
L 369.083792 437.705401 
L 374.156471 437.071017 
L 379.229205 447.657682 
L 384.301927 436.448296 
L 389.374668 432.71381 
L 394.447406 442.266779 
L 399.52014 437.547592 
L 404.592884 439.768743 
L 409.665598 428.717623 
L 414.73835 430.507772 
L 419.811079 429.716643 
L 424.883802 425.006366 
L 429.956533 419.634535 
L 435.029256 411.004637 
L 440.101982 413.947914 
L 445.17471 405.032206 
L 450.247443 422.292916 
L 455.320172 410.760898 
L 460.392898 382.567502 
L 465.465626 378.051374 
L 470.538352 362.903787 
L 475.611079 330.228181 
L 480.683809 323.199967 
L 485.756536 290.756662 
L 490.829264 280.884231 
L 495.901992 283.530088 
L 500.974718 260.2468 
L 506.047445 258.718769 
L 511.120172 208.645618 
L 516.192899 205.190721 
L 521.265626 202.203635 
L 526.338353 160.557442 
L 531.411082 163.211803 
L 536.48381 177.881507 
L 541.556538 106.249614 
L 546.629267 86.090727 
L 551.701993 119.694089 
L 556.774719 16.22758 
L 561.847446 68.60309 
L 566.920173 43.490471 
L 571.992901 33.138797 
L 573.557699 -1 
M 579.521138 -1 
L 582.138356 80.571535 
L 587.211084 83.252694 
L 588.875301 -1 
M 596.877733 -1 
L 597.356535 16.98503 
L 598.540767 -1 
" clip-path="url(#pce2b20b5cb)" style="fill: none; stroke: #1f77b4; stroke-linecap: square"/>
   </g>
   <g id="line2d_59">
    <path d="M 74.865625 488.797251 
L 79.556398 485.273485 
L 84.411955 482.703741 
L 89.924798 480.749368 
L 94.632688 483.700563 
L 100.156266 483.732451 
L 105.26842 481.552001 
L 110.361348 480.209278 
L 115.341895 484.033426 
L 120.404759 484.526927 
L 125.420521 476.670102 
L 130.491444 479.857684 
L 135.651989 479.593008 
L 140.764143 485.324413 
L 145.857071 479.37004 
L 150.933635 477.872163 
L 155.982591 482.838063 
L 161.056721 478.301706 
L 166.167165 476.286748 
L 171.198957 482.587338 
L 176.303617 462.911698 
L 181.390168 476.230868 
L 186.4613 477.298386 
L 191.532937 481.62796 
L 196.599134 475.04106 
L 201.682827 479.009517 
L 206.745843 476.806489 
L 211.828474 469.871648 
L 216.89834 477.394338 
L 221.967664 473.088898 
L 227.046847 480.379483 
L 232.118177 478.544105 
L 237.191835 479.324418 
L 242.264279 471.218326 
L 247.333903 477.460118 
L 252.410653 477.891483 
L 257.481113 473.600252 
L 262.55469 470.262618 
L 267.626848 479.350534 
L 272.700838 474.907247 
L 277.773245 476.06734 
L 282.847412 465.659164 
L 287.918813 460.386317 
L 292.992191 468.558003 
L 298.065555 466.615125 
L 303.138102 475.734219 
L 308.210573 465.794408 
L 313.283465 470.947532 
L 318.356064 467.812239 
L 323.42881 466.807039 
L 328.501688 469.881415 
L 333.574396 463.471333 
L 338.647337 467.471905 
L 343.720056 468.319851 
L 348.792838 464.24688 
L 353.865608 460.542127 
L 358.938341 471.380533 
L 364.011048 464.563065 
L 369.083792 461.376671 
L 374.156471 473.850826 
L 379.229205 460.217957 
L 384.301927 457.036137 
L 389.374668 455.428938 
L 394.447406 460.866847 
L 399.52014 468.160259 
L 404.592884 467.252705 
L 409.665598 463.169662 
L 414.73835 464.348852 
L 419.811079 459.443803 
L 424.883802 459.22642 
L 429.956533 455.547628 
L 435.029256 458.626704 
L 440.101982 459.267529 
L 445.17471 453.211555 
L 450.247443 452.01034 
L 455.320172 446.807924 
L 460.392898 440.445406 
L 465.465626 448.530307 
L 470.538352 442.051484 
L 475.611079 447.335361 
L 480.683809 440.034416 
L 485.756536 437.832235 
L 490.829264 428.660408 
L 495.901992 437.656414 
L 500.974718 418.166174 
L 506.047445 415.394578 
L 511.120172 424.241513 
L 516.192899 417.631316 
L 521.265626 408.826412 
L 526.338353 409.875293 
L 531.411082 409.817803 
L 536.48381 399.620844 
L 541.556538 393.881077 
L 546.629267 390.85317 
L 551.701993 392.140163 
L 556.774719 371.182441 
L 561.847446 390.755218 
L 566.920173 382.709285 
L 571.992901 369.151989 
L 577.065628 369.293591 
L 582.138356 371.786032 
L 587.211084 359.85116 
L 592.283809 351.207922 
L 597.356535 354.389702 
L 602.429262 340.918433 
L 607.50199 333.711977 
L 612.574716 338.13218 
L 617.647443 339.616198 
L 622.720171 336.250059 
L 627.792898 338.128004 
L 632.865625 330.287896 
" clip-path="url(#pce2b20b5cb)" style="fill: none; stroke: #ff7f0e; stroke-width: 1.5; stroke-linecap: square"/>
   </g>
   <g id="line2d_60">
    <path d="M 74.865625 483.839996 
L 79.556398 483.6088 
L 84.411955 485.538852 
L 89.924798 485.146012 
L 94.632688 487.444172 
L 100.156266 484.208853 
L 105.26842 487.034397 
L 110.361348 481.652161 
L 115.341895 484.276411 
L 120.404759 484.090969 
L 125.420521 482.64708 
L 130.491444 484.301108 
L 135.651989 479.630668 
L 140.764143 486.976947 
L 145.857071 481.233457 
L 150.933635 485.141464 
L 155.982591 479.974092 
L 161.056721 484.93093 
L 166.167165 479.700181 
L 171.198957 479.897167 
L 176.303617 483.046823 
L 181.390168 483.366657 
L 186.4613 481.227991 
L 191.532937 480.274695 
L 196.599134 479.620552 
L 201.682827 480.957099 
L 206.745843 482.774376 
L 211.828474 476.847488 
L 216.89834 482.484749 
L 221.967664 481.616433 
L 227.046847 478.450964 
L 232.118177 482.319838 
L 237.191835 480.772194 
L 242.264279 478.422493 
L 247.333903 479.863767 
L 252.410653 475.46202 
L 257.481113 480.791288 
L 262.55469 476.423149 
L 267.626848 481.021993 
L 272.700838 472.656106 
L 277.773245 481.132943 
L 282.847412 475.837353 
L 287.918813 476.775138 
L 292.992191 478.596049 
L 298.065555 468.301018 
L 303.138102 479.204499 
L 308.210573 478.259901 
L 313.283465 476.894471 
L 318.356064 467.800672 
L 323.42881 466.555383 
L 328.501688 477.771959 
L 333.574396 469.820077 
L 338.647337 467.362015 
L 343.720056 470.637455 
L 348.792838 464.694359 
L 353.865608 464.367556 
L 358.938341 465.669112 
L 364.011048 467.548037 
L 369.083792 463.939627 
L 374.156471 474.36847 
L 379.229205 468.589492 
L 384.301927 460.883671 
L 389.374668 459.7518 
L 394.447406 459.621645 
L 399.52014 461.773452 
L 404.592884 471.227064 
L 409.665598 461.337446 
L 414.73835 451.315115 
L 419.811079 457.604014 
L 424.883802 462.677535 
L 429.956533 460.01844 
L 435.029256 466.381676 
L 440.101982 454.607508 
L 445.17471 453.990772 
L 450.247443 457.640034 
L 455.320172 456.629084 
L 460.392898 445.425847 
L 465.465626 444.927124 
L 470.538352 450.083905 
L 475.611079 436.660909 
L 480.683809 421.155699 
L 485.756536 429.337568 
L 490.829264 420.790624 
L 495.901992 432.014422 
L 500.974718 417.534282 
L 506.047445 414.646925 
L 511.120172 415.666999 
L 516.192899 413.877709 
L 521.265626 407.669335 
L 526.338353 406.027095 
L 531.411082 393.912832 
L 536.48381 390.177712 
L 541.556538 389.872437 
L 546.629267 389.91703 
L 551.701993 391.923583 
L 556.774719 376.180114 
L 561.847446 378.531012 
L 566.920173 368.094486 
L 571.992901 366.433122 
L 577.065628 356.68999 
L 582.138356 357.163608 
L 587.211084 343.857241 
L 592.283809 333.882253 
L 597.356535 339.400336 
L 602.429262 350.164769 
L 607.50199 341.697215 
L 612.574716 322.748303 
L 617.647443 323.800499 
L 622.720171 343.075032 
L 627.792898 335.455942 
L 632.865625 327.681281 
" clip-path="url(#pce2b20b5cb)" style="fill: none; stroke: #1f77b4; stroke-linecap: square"/>
   </g>
   <g id="line2d_61"/>
   <g id="line2d_62"/>
   <g id="line2d_63"/>
   <g id="line2d_64"/>
   <g id="line2d_65"/>
   <g id="patch_5">
    <path d="M 46.965625 494.114688 
L 46.965625 50.594688 
" style="fill: none; stroke: #000000; stroke-width: 0.8; stroke-linejoin: miter; stroke-linecap: square"/>
   </g>
   <g id="patch_6">
    <path d="M 660.765625 494.114688 
L 660.765625 50.594688 
" style="fill: none; stroke: #000000; stroke-width: 0.8; stroke-linejoin: miter; stroke-linecap: square"/>
   </g>
   <g id="patch_7">
    <path d="M 46.965625 494.114688 
L 660.765625 494.114688 
" style="fill: none; stroke: #000000; stroke-width: 0.8; stroke-linejoin: miter; stroke-linecap: square"/>
   </g>
   <g id="patch_8">
    <path d="M 46.965625 50.594688 
L 660.765625 50.594688 
" style="fill: none; stroke: #000000; stroke-width: 0.8; stroke-linejoin: miter; stroke-linecap: square"/>
   </g>
   <g id="text_38">
    <!-- L1  -->
    <g style="fill: #ff0000" transform="translate(283.706204 492.035) scale(0.1 -0.1)">
     <defs>
      <path id="DejaVuSans-4c" d="M 628 4666 
L 1259 4666 
L 1259 531 
L 3531 531 
L 3531 0 
L 628 0 
L 628 4666 
z
" transform="scale(0.015625)"/>
     </defs>
     <use xlink:href="#DejaVuSans-4c"/>
     <use xlink:href="#DejaVuSans-31" x="55.712891"/>
     <use xlink:href="#DejaVuSans-20" x="119.335938"/>
    </g>
   </g>
   <g id="text_39">
    <!-- L2  -->
    <g style="fill: #ff0000" transform="translate(373.287435 492.035) scale(0.1 -0.1)">
     <use xlink:href="#DejaVuSans-4c"/>
     <use xlink:href="#DejaVuSans-32" x="55.712891"/>
     <use xlink:href="#DejaVuSans-20" x="119.335938"/>
    </g>
   </g>
   <g id="text_40">
    <!-- L3  -->
    <g style="fill: #ff0000" transform="translate(440.473359 492.035) scale(0.1 -0.1)">
     <use xlink:href="#DejaVuSans-4c"/>
     <use xlink:href="#DejaVuSans-33" x="55.712891"/>
     <use xlink:href="#DejaVuSans-20" x="119.335938"/>
    </g>
   </g>
   <g id="text_41">
    <!-- RAM -->
    <g style="fill: #ff0000" transform="translate(610.848438 492.035) scale(0.1 -0.1)">
     <defs>
      <path id="DejaVuSans-52" d="M 2841 2188 
Q 3044 2119 3236 1894 
Q 3428 1669 3622 1275 
L 4263 0 
L 3584 0 
L 2988 1197 
Q 2756 1666 2539 1819 
Q 2322 1972 1947 1972 
L 1259 1972 
L 1259 0 
L 628 0 
L 628 4666 
L 2053 4666 
Q 2853 4666 3247 4331 
Q 3641 3997 3641 3322 
Q 3641 2881 3436 2590 
Q 3231 2300 2841 2188 
z
M 1259 4147 
L 1259 2491 
L 2053 2491 
Q 2509 2491 2742 2702 
Q 2975 2913 2975 3322 
Q 2975 3731 2742 3939 
Q 2509 4147 2053 4147 
L 1259 4147 
z
" transform="scale(0.015625)"/>
      <path id="DejaVuSans-4d" d="M 628 4666 
L 1569 4666 
L 2759 1491 
L 3956 4666 
L 4897 4666 
L 4897 0 
L 4281 0 
L 4281 4097 
L 3078 897 
L 2444 897 
L 1241 4097 
L 1241 0 
L 628 0 
L 628 4666 
z
" transform="scale(0.015625)"/>
     </defs>
     <use xlink:href="#DejaVuSans-52"/>
     <use xlink:href="#DejaVuSans-41" x="65.482422"/>
     <use xlink:href="#DejaVuSans-4d" x="133.890625"/>
    </g>
   </g>
   <g id="text_42">
    <!-- Batched binsearch vs batched prefetched binsearch -->
    <g transform="translate(197.4625 16.318125) scale(0.12 -0.12)">
     <defs>
      <path id="DejaVuSans-42" d="M 1259 2228 
L 1259 519 
L 2272 519 
Q 2781 519 3026 730 
Q 3272 941 3272 1375 
Q 3272 1813 3026 2020 
Q 2781 2228 2272 2228 
L 1259 2228 
z
M 1259 4147 
L 1259 2741 
L 2194 2741 
Q 2656 2741 2882 2914 
Q 3109 3088 3109 3444 
Q 3109 3797 2882 3972 
Q 2656 4147 2194 4147 
L 1259 4147 
z
M 628 4666 
L 2241 4666 
Q 2963 4666 3353 4366 
Q 3744 4066 3744 3513 
Q 3744 3084 3544 2831 
Q 3344 2578 2956 2516 
Q 3422 2416 3680 2098 
Q 3938 1781 3938 1306 
Q 3938 681 3513 340 
Q 3088 0 2303 0 
L 628 0 
L 628 4666 
z
" transform="scale(0.015625)"/>
      <path id="DejaVuSans-63" d="M 3122 3366 
L 3122 2828 
Q 2878 2963 2633 3030 
Q 2388 3097 2138 3097 
Q 1578 3097 1268 2742 
Q 959 2388 959 1747 
Q 959 1106 1268 751 
Q 1578 397 2138 397 
Q 2388 397 2633 464 
Q 2878 531 3122 666 
L 3122 134 
Q 2881 22 2623 -34 
Q 2366 -91 2075 -91 
Q 1284 -91 818 406 
Q 353 903 353 1747 
Q 353 2603 823 3093 
Q 1294 3584 2113 3584 
Q 2378 3584 2631 3529 
Q 2884 3475 3122 3366 
z
" transform="scale(0.015625)"/>
      <path id="DejaVuSans-64" d="M 2906 2969 
L 2906 4863 
L 3481 4863 
L 3481 0 
L 2906 0 
L 2906 525 
Q 2725 213 2448 61 
Q 2172 -91 1784 -91 
Q 1150 -91 751 415 
Q 353 922 353 1747 
Q 353 2572 751 3078 
Q 1150 3584 1784 3584 
Q 2172 3584 2448 3432 
Q 2725 3281 2906 2969 
z
M 947 1747 
Q 947 1113 1208 752 
Q 1469 391 1925 391 
Q 2381 391 2643 752 
Q 2906 1113 2906 1747 
Q 2906 2381 2643 2742 
Q 2381 3103 1925 3103 
Q 1469 3103 1208 2742 
Q 947 2381 947 1747 
z
" transform="scale(0.015625)"/>
      <path id="DejaVuSans-66" d="M 2375 4863 
L 2375 4384 
L 1825 4384 
Q 1516 4384 1395 4259 
Q 1275 4134 1275 3809 
L 1275 3500 
L 2222 3500 
L 2222 3053 
L 1275 3053 
L 1275 0 
L 697 0 
L 697 3053 
L 147 3053 
L 147 3500 
L 697 3500 
L 697 3744 
Q 697 4328 969 4595 
Q 1241 4863 1831 4863 
L 2375 4863 
z
" transform="scale(0.015625)"/>
     </defs>
     <use xlink:href="#DejaVuSans-42"/>
     <use xlink:href="#DejaVuSans-61" x="68.603516"/>
     <use xlink:href="#DejaVuSans-74" x="129.882812"/>
     <use xlink:href="#DejaVuSans-63" x="169.091797"/>
     <use xlink:href="#DejaVuSans-68" x="224.072266"/>
     <use xlink:href="#DejaVuSans-65" x="287.451172"/>
     <use xlink:href="#DejaVuSans-64" x="348.974609"/>
     <use xlink:href="#DejaVuSans-20" x="412.451172"/>
     <use xlink:href="#DejaVuSans-62" x="444.238281"/>
     <use xlink:href="#DejaVuSans-69" x="507.714844"/>
     <use xlink:href="#DejaVuSans-6e" x="535.498047"/>
     <use xlink:href="#DejaVuSans-73" x="598.876953"/>
     <use xlink:href="#DejaVuSans-65" x="650.976562"/>
     <use xlink:href="#DejaVuSans-61" x="712.5"/>
     <use xlink:href="#DejaVuSans-72" x="773.779297"/>
     <use xlink:href="#DejaVuSans-63" x="812.642578"/>
     <use xlink:href="#DejaVuSans-68" x="867.623047"/>
     <use xlink:href="#DejaVuSans-20" x="931.001953"/>
     <use xlink:href="#DejaVuSans-76" x="962.789062"/>
     <use xlink:href="#DejaVuSans-73" x="1021.96875"/>
     <use xlink:href="#DejaVuSans-20" x="1074.068359"/>
     <use xlink:href="#DejaVuSans-62" x="1105.855469"/>
     <use xlink:href="#DejaVuSans-61" x="1169.332031"/>
     <use xlink:href="#DejaVuSans-74" x="1230.611328"/>
     <use xlink:href="#DejaVuSans-63" x="1269.820312"/>
     <use xlink:href="#DejaVuSans-68" x="1324.800781"/>
     <use xlink:href="#DejaVuSans-65" x="1388.179688"/>
     <use xlink:href="#DejaVuSans-64" x="1449.703125"/>
     <use xlink:href="#DejaVuSans-20" x="1513.179688"/>
     <use xlink:href="#DejaVuSans-70" x="1544.966797"/>
     <use xlink:href="#DejaVuSans-72" x="1608.443359"/>
     <use xlink:href="#DejaVuSans-65" x="1647.306641"/>
     <use xlink:href="#DejaVuSans-66" x="1708.830078"/>
     <use xlink:href="#DejaVuSans-65" x="1744.035156"/>
     <use xlink:href="#DejaVuSans-74" x="1805.558594"/>
     <use xlink:href="#DejaVuSans-63" x="1844.767578"/>
     <use xlink:href="#DejaVuSans-68" x="1899.748047"/>
     <use xlink:href="#DejaVuSans-65" x="1963.126953"/>
     <use xlink:href="#DejaVuSans-64" x="2024.650391"/>
     <use xlink:href="#DejaVuSans-20" x="2088.126953"/>
     <use xlink:href="#DejaVuSans-62" x="2119.914062"/>
     <use xlink:href="#DejaVuSans-69" x="2183.390625"/>
     <use xlink:href="#DejaVuSans-6e" x="2211.173828"/>
     <use xlink:href="#DejaVuSans-73" x="2274.552734"/>
     <use xlink:href="#DejaVuSans-65" x="2326.652344"/>
     <use xlink:href="#DejaVuSans-61" x="2388.175781"/>
     <use xlink:href="#DejaVuSans-72" x="2449.455078"/>
     <use xlink:href="#DejaVuSans-63" x="2488.318359"/>
     <use xlink:href="#DejaVuSans-68" x="2543.298828"/>
    </g>
   </g>
   <g id="legend_1">
    <g id="patch_9">
     <path d="M 53.965625 103.463438 
L 542.70625 103.463438 
Q 544.70625 103.463438 544.70625 101.463438 
L 544.70625 57.594688 
Q 544.70625 55.594688 542.70625 55.594688 
L 53.965625 55.594688 
Q 51.965625 55.594688 51.965625 57.594688 
L 51.965625 101.463438 
Q 51.965625 103.463438 53.965625 103.463438 
L 53.965625 103.463438 
z
" style="fill: none; opacity: 0"/>
    </g>
    <g id="line2d_66">
     <path d="M 55.965625 63.693125 
L 65.965625 63.693125 
L 75.965625 63.693125 
" style="fill: none; stroke: #1f77b4; stroke-width: 1.5; stroke-linecap: square"/>
    </g>
    <g id="text_43">
     <!-- SortedVec::binary_search_branchless_prefetch -->
     <g transform="translate(83.965625 67.193125) scale(0.1 -0.1)">
      <defs>
       <path id="DejaVuSans-53" d="M 3425 4513 
L 3425 3897 
Q 3066 4069 2747 4153 
Q 2428 4238 2131 4238 
Q 1616 4238 1336 4038 
Q 1056 3838 1056 3469 
Q 1056 3159 1242 3001 
Q 1428 2844 1947 2747 
L 2328 2669 
Q 3034 2534 3370 2195 
Q 3706 1856 3706 1288 
Q 3706 609 3251 259 
Q 2797 -91 1919 -91 
Q 1588 -91 1214 -16 
Q 841 59 441 206 
L 441 856 
Q 825 641 1194 531 
Q 1563 422 1919 422 
Q 2459 422 2753 634 
Q 3047 847 3047 1241 
Q 3047 1584 2836 1778 
Q 2625 1972 2144 2069 
L 1759 2144 
Q 1053 2284 737 2584 
Q 422 2884 422 3419 
Q 422 4038 858 4394 
Q 1294 4750 2059 4750 
Q 2388 4750 2728 4690 
Q 3069 4631 3425 4513 
z
" transform="scale(0.015625)"/>
       <path id="DejaVuSans-56" d="M 1831 0 
L 50 4666 
L 709 4666 
L 2188 738 
L 3669 4666 
L 4325 4666 
L 2547 0 
L 1831 0 
z
" transform="scale(0.015625)"/>
       <path id="DejaVuSans-3a" d="M 750 794 
L 1409 794 
L 1409 0 
L 750 0 
L 750 794 
z
M 750 3309 
L 1409 3309 
L 1409 2516 
L 750 2516 
L 750 3309 
z
" transform="scale(0.015625)"/>
       <path id="DejaVuSans-5f" d="M 3263 -1063 
L 3263 -1509 
L -63 -1509 
L -63 -1063 
L 3263 -1063 
z
" transform="scale(0.015625)"/>
      </defs>
      <use xlink:href="#DejaVuSans-53"/>
      <use xlink:href="#DejaVuSans-6f" x="63.476562"/>
      <use xlink:href="#DejaVuSans-72" x="124.658203"/>
      <use xlink:href="#DejaVuSans-74" x="165.771484"/>
      <use xlink:href="#DejaVuSans-65" x="204.980469"/>
      <use xlink:href="#DejaVuSans-64" x="266.503906"/>
      <use xlink:href="#DejaVuSans-56" x="329.980469"/>
      <use xlink:href="#DejaVuSans-65" x="390.638672"/>
      <use xlink:href="#DejaVuSans-63" x="452.162109"/>
      <use xlink:href="#DejaVuSans-3a" x="507.142578"/>
      <use xlink:href="#DejaVuSans-3a" x="540.833984"/>
      <use xlink:href="#DejaVuSans-62" x="574.525391"/>
      <use xlink:href="#DejaVuSans-69" x="638.001953"/>
      <use xlink:href="#DejaVuSans-6e" x="665.785156"/>
      <use xlink:href="#DejaVuSans-61" x="729.164062"/>
      <use xlink:href="#DejaVuSans-72" x="790.443359"/>
      <use xlink:href="#DejaVuSans-79" x="831.556641"/>
      <use xlink:href="#DejaVuSans-5f" x="890.736328"/>
      <use xlink:href="#DejaVuSans-73" x="940.736328"/>
      <use xlink:href="#DejaVuSans-65" x="992.835938"/>
      <use xlink:href="#DejaVuSans-61" x="1054.359375"/>
      <use xlink:href="#DejaVuSans-72" x="1115.638672"/>
      <use xlink:href="#DejaVuSans-63" x="1154.501953"/>
      <use xlink:href="#DejaVuSans-68" x="1209.482422"/>
      <use xlink:href="#DejaVuSans-5f" x="1272.861328"/>
      <use xlink:href="#DejaVuSans-62" x="1322.861328"/>
      <use xlink:href="#DejaVuSans-72" x="1386.337891"/>
      <use xlink:href="#DejaVuSans-61" x="1427.451172"/>
      <use xlink:href="#DejaVuSans-6e" x="1488.730469"/>
      <use xlink:href="#DejaVuSans-63" x="1552.109375"/>
      <use xlink:href="#DejaVuSans-68" x="1607.089844"/>
      <use xlink:href="#DejaVuSans-6c" x="1670.46875"/>
      <use xlink:href="#DejaVuSans-65" x="1698.251953"/>
      <use xlink:href="#DejaVuSans-73" x="1759.775391"/>
      <use xlink:href="#DejaVuSans-73" x="1811.875"/>
      <use xlink:href="#DejaVuSans-5f" x="1863.974609"/>
      <use xlink:href="#DejaVuSans-70" x="1913.974609"/>
      <use xlink:href="#DejaVuSans-72" x="1977.451172"/>
      <use xlink:href="#DejaVuSans-65" x="2016.314453"/>
      <use xlink:href="#DejaVuSans-66" x="2077.837891"/>
      <use xlink:href="#DejaVuSans-65" x="2113.042969"/>
      <use xlink:href="#DejaVuSans-74" x="2174.566406"/>
      <use xlink:href="#DejaVuSans-63" x="2213.775391"/>
      <use xlink:href="#DejaVuSans-68" x="2268.755859"/>
     </g>
    </g>
    <g id="line2d_67">
     <path d="M 55.965625 78.649375 
L 65.965625 78.649375 
L 75.965625 78.649375 
" style="fill: none; stroke: #ff7f0e; stroke-width: 1.5; stroke-linecap: square"/>
    </g>
    <g id="text_44">
     <!-- Batched&lt;32, SortedVec, SortedVec::batch_impl_binary_search_branchless_prefetch&lt;32&gt;&gt; -->
     <g transform="translate(83.965625 82.149375) scale(0.1 -0.1)">
      <defs>
       <path id="DejaVuSans-3c" d="M 4684 3150 
L 1459 2003 
L 4684 863 
L 4684 294 
L 678 1747 
L 678 2266 
L 4684 3719 
L 4684 3150 
z
" transform="scale(0.015625)"/>
       <path id="DejaVuSans-2c" d="M 750 794 
L 1409 794 
L 1409 256 
L 897 -744 
L 494 -744 
L 750 256 
L 750 794 
z
" transform="scale(0.015625)"/>
       <path id="DejaVuSans-6d" d="M 3328 2828 
Q 3544 3216 3844 3400 
Q 4144 3584 4550 3584 
Q 5097 3584 5394 3201 
Q 5691 2819 5691 2113 
L 5691 0 
L 5113 0 
L 5113 2094 
Q 5113 2597 4934 2840 
Q 4756 3084 4391 3084 
Q 3944 3084 3684 2787 
Q 3425 2491 3425 1978 
L 3425 0 
L 2847 0 
L 2847 2094 
Q 2847 2600 2669 2842 
Q 2491 3084 2119 3084 
Q 1678 3084 1418 2786 
Q 1159 2488 1159 1978 
L 1159 0 
L 581 0 
L 581 3500 
L 1159 3500 
L 1159 2956 
Q 1356 3278 1631 3431 
Q 1906 3584 2284 3584 
Q 2666 3584 2933 3390 
Q 3200 3197 3328 2828 
z
" transform="scale(0.015625)"/>
       <path id="DejaVuSans-3e" d="M 678 3150 
L 678 3719 
L 4684 2266 
L 4684 1747 
L 678 294 
L 678 863 
L 3897 2003 
L 678 3150 
z
" transform="scale(0.015625)"/>
      </defs>
      <use xlink:href="#DejaVuSans-42"/>
      <use xlink:href="#DejaVuSans-61" x="68.603516"/>
      <use xlink:href="#DejaVuSans-74" x="129.882812"/>
      <use xlink:href="#DejaVuSans-63" x="169.091797"/>
      <use xlink:href="#DejaVuSans-68" x="224.072266"/>
      <use xlink:href="#DejaVuSans-65" x="287.451172"/>
      <use xlink:href="#DejaVuSans-64" x="348.974609"/>
      <use xlink:href="#DejaVuSans-3c" x="412.451172"/>
      <use xlink:href="#DejaVuSans-33" x="496.240234"/>
      <use xlink:href="#DejaVuSans-32" x="559.863281"/>
      <use xlink:href="#DejaVuSans-2c" x="623.486328"/>
      <use xlink:href="#DejaVuSans-20" x="655.273438"/>
      <use xlink:href="#DejaVuSans-53" x="687.060547"/>
      <use xlink:href="#DejaVuSans-6f" x="750.537109"/>
      <use xlink:href="#DejaVuSans-72" x="811.71875"/>
      <use xlink:href="#DejaVuSans-74" x="852.832031"/>
      <use xlink:href="#DejaVuSans-65" x="892.041016"/>
      <use xlink:href="#DejaVuSans-64" x="953.564453"/>
      <use xlink:href="#DejaVuSans-56" x="1017.041016"/>
      <use xlink:href="#DejaVuSans-65" x="1077.699219"/>
      <use xlink:href="#DejaVuSans-63" x="1139.222656"/>
      <use xlink:href="#DejaVuSans-2c" x="1194.203125"/>
      <use xlink:href="#DejaVuSans-20" x="1225.990234"/>
      <use xlink:href="#DejaVuSans-53" x="1257.777344"/>
      <use xlink:href="#DejaVuSans-6f" x="1321.253906"/>
      <use xlink:href="#DejaVuSans-72" x="1382.435547"/>
      <use xlink:href="#DejaVuSans-74" x="1423.548828"/>
      <use xlink:href="#DejaVuSans-65" x="1462.757812"/>
      <use xlink:href="#DejaVuSans-64" x="1524.28125"/>
      <use xlink:href="#DejaVuSans-56" x="1587.757812"/>
      <use xlink:href="#DejaVuSans-65" x="1648.416016"/>
      <use xlink:href="#DejaVuSans-63" x="1709.939453"/>
      <use xlink:href="#DejaVuSans-3a" x="1764.919922"/>
      <use xlink:href="#DejaVuSans-3a" x="1798.611328"/>
      <use xlink:href="#DejaVuSans-62" x="1832.302734"/>
      <use xlink:href="#DejaVuSans-61" x="1895.779297"/>
      <use xlink:href="#DejaVuSans-74" x="1957.058594"/>
      <use xlink:href="#DejaVuSans-63" x="1996.267578"/>
      <use xlink:href="#DejaVuSans-68" x="2051.248047"/>
      <use xlink:href="#DejaVuSans-5f" x="2114.626953"/>
      <use xlink:href="#DejaVuSans-69" x="2164.626953"/>
      <use xlink:href="#DejaVuSans-6d" x="2192.410156"/>
      <use xlink:href="#DejaVuSans-70" x="2289.822266"/>
      <use xlink:href="#DejaVuSans-6c" x="2353.298828"/>
      <use xlink:href="#DejaVuSans-5f" x="2381.082031"/>
      <use xlink:href="#DejaVuSans-62" x="2431.082031"/>
      <use xlink:href="#DejaVuSans-69" x="2494.558594"/>
      <use xlink:href="#DejaVuSans-6e" x="2522.341797"/>
      <use xlink:href="#DejaVuSans-61" x="2585.720703"/>
      <use xlink:href="#DejaVuSans-72" x="2647"/>
      <use xlink:href="#DejaVuSans-79" x="2688.113281"/>
      <use xlink:href="#DejaVuSans-5f" x="2747.292969"/>
      <use xlink:href="#DejaVuSans-73" x="2797.292969"/>
      <use xlink:href="#DejaVuSans-65" x="2849.392578"/>
      <use xlink:href="#DejaVuSans-61" x="2910.916016"/>
      <use xlink:href="#DejaVuSans-72" x="2972.195312"/>
      <use xlink:href="#DejaVuSans-63" x="3011.058594"/>
      <use xlink:href="#DejaVuSans-68" x="3066.039062"/>
      <use xlink:href="#DejaVuSans-5f" x="3129.417969"/>
      <use xlink:href="#DejaVuSans-62" x="3179.417969"/>
      <use xlink:href="#DejaVuSans-72" x="3242.894531"/>
      <use xlink:href="#DejaVuSans-61" x="3284.007812"/>
      <use xlink:href="#DejaVuSans-6e" x="3345.287109"/>
      <use xlink:href="#DejaVuSans-63" x="3408.666016"/>
      <use xlink:href="#DejaVuSans-68" x="3463.646484"/>
      <use xlink:href="#DejaVuSans-6c" x="3527.025391"/>
      <use xlink:href="#DejaVuSans-65" x="3554.808594"/>
      <use xlink:href="#DejaVuSans-73" x="3616.332031"/>
      <use xlink:href="#DejaVuSans-73" x="3668.431641"/>
      <use xlink:href="#DejaVuSans-5f" x="3720.53125"/>
      <use xlink:href="#DejaVuSans-70" x="3770.53125"/>
      <use xlink:href="#DejaVuSans-72" x="3834.007812"/>
      <use xlink:href="#DejaVuSans-65" x="3872.871094"/>
      <use xlink:href="#DejaVuSans-66" x="3934.394531"/>
      <use xlink:href="#DejaVuSans-65" x="3969.599609"/>
      <use xlink:href="#DejaVuSans-74" x="4031.123047"/>
      <use xlink:href="#DejaVuSans-63" x="4070.332031"/>
      <use xlink:href="#DejaVuSans-68" x="4125.3125"/>
      <use xlink:href="#DejaVuSans-3c" x="4188.691406"/>
      <use xlink:href="#DejaVuSans-33" x="4272.480469"/>
      <use xlink:href="#DejaVuSans-32" x="4336.103516"/>
      <use xlink:href="#DejaVuSans-3e" x="4399.726562"/>
      <use xlink:href="#DejaVuSans-3e" x="4483.515625"/>
     </g>
    </g>
    <g id="line2d_68">
     <path d="M 55.965625 93.605625 
L 65.965625 93.605625 
L 75.965625 93.605625 
" style="fill: none; stroke: #1f77b4; stroke-width: 1.5; stroke-linecap: square"/>
    </g>
    <g id="text_45">
     <!-- Batched&lt;32, SortedVec, SortedVec::batch_impl_binary_search_branchless&lt;32&gt;&gt; -->
     <g transform="translate(83.965625 97.105625) scale(0.1 -0.1)">
      <use xlink:href="#DejaVuSans-42"/>
      <use xlink:href="#DejaVuSans-61" x="68.603516"/>
      <use xlink:href="#DejaVuSans-74" x="129.882812"/>
      <use xlink:href="#DejaVuSans-63" x="169.091797"/>
      <use xlink:href="#DejaVuSans-68" x="224.072266"/>
      <use xlink:href="#DejaVuSans-65" x="287.451172"/>
      <use xlink:href="#DejaVuSans-64" x="348.974609"/>
      <use xlink:href="#DejaVuSans-3c" x="412.451172"/>
      <use xlink:href="#DejaVuSans-33" x="496.240234"/>
      <use xlink:href="#DejaVuSans-32" x="559.863281"/>
      <use xlink:href="#DejaVuSans-2c" x="623.486328"/>
      <use xlink:href="#DejaVuSans-20" x="655.273438"/>
      <use xlink:href="#DejaVuSans-53" x="687.060547"/>
      <use xlink:href="#DejaVuSans-6f" x="750.537109"/>
      <use xlink:href="#DejaVuSans-72" x="811.71875"/>
      <use xlink:href="#DejaVuSans-74" x="852.832031"/>
      <use xlink:href="#DejaVuSans-65" x="892.041016"/>
      <use xlink:href="#DejaVuSans-64" x="953.564453"/>
      <use xlink:href="#DejaVuSans-56" x="1017.041016"/>
      <use xlink:href="#DejaVuSans-65" x="1077.699219"/>
      <use xlink:href="#DejaVuSans-63" x="1139.222656"/>
      <use xlink:href="#DejaVuSans-2c" x="1194.203125"/>
      <use xlink:href="#DejaVuSans-20" x="1225.990234"/>
      <use xlink:href="#DejaVuSans-53" x="1257.777344"/>
      <use xlink:href="#DejaVuSans-6f" x="1321.253906"/>
      <use xlink:href="#DejaVuSans-72" x="1382.435547"/>
      <use xlink:href="#DejaVuSans-74" x="1423.548828"/>
      <use xlink:href="#DejaVuSans-65" x="1462.757812"/>
      <use xlink:href="#DejaVuSans-64" x="1524.28125"/>
      <use xlink:href="#DejaVuSans-56" x="1587.757812"/>
      <use xlink:href="#DejaVuSans-65" x="1648.416016"/>
      <use xlink:href="#DejaVuSans-63" x="1709.939453"/>
      <use xlink:href="#DejaVuSans-3a" x="1764.919922"/>
      <use xlink:href="#DejaVuSans-3a" x="1798.611328"/>
      <use xlink:href="#DejaVuSans-62" x="1832.302734"/>
      <use xlink:href="#DejaVuSans-61" x="1895.779297"/>
      <use xlink:href="#DejaVuSans-74" x="1957.058594"/>
      <use xlink:href="#DejaVuSans-63" x="1996.267578"/>
      <use xlink:href="#DejaVuSans-68" x="2051.248047"/>
      <use xlink:href="#DejaVuSans-5f" x="2114.626953"/>
      <use xlink:href="#DejaVuSans-69" x="2164.626953"/>
      <use xlink:href="#DejaVuSans-6d" x="2192.410156"/>
      <use xlink:href="#DejaVuSans-70" x="2289.822266"/>
      <use xlink:href="#DejaVuSans-6c" x="2353.298828"/>
      <use xlink:href="#DejaVuSans-5f" x="2381.082031"/>
      <use xlink:href="#DejaVuSans-62" x="2431.082031"/>
      <use xlink:href="#DejaVuSans-69" x="2494.558594"/>
      <use xlink:href="#DejaVuSans-6e" x="2522.341797"/>
      <use xlink:href="#DejaVuSans-61" x="2585.720703"/>
      <use xlink:href="#DejaVuSans-72" x="2647"/>
      <use xlink:href="#DejaVuSans-79" x="2688.113281"/>
      <use xlink:href="#DejaVuSans-5f" x="2747.292969"/>
      <use xlink:href="#DejaVuSans-73" x="2797.292969"/>
      <use xlink:href="#DejaVuSans-65" x="2849.392578"/>
      <use xlink:href="#DejaVuSans-61" x="2910.916016"/>
      <use xlink:href="#DejaVuSans-72" x="2972.195312"/>
      <use xlink:href="#DejaVuSans-63" x="3011.058594"/>
      <use xlink:href="#DejaVuSans-68" x="3066.039062"/>
      <use xlink:href="#DejaVuSans-5f" x="3129.417969"/>
      <use xlink:href="#DejaVuSans-62" x="3179.417969"/>
      <use xlink:href="#DejaVuSans-72" x="3242.894531"/>
      <use xlink:href="#DejaVuSans-61" x="3284.007812"/>
      <use xlink:href="#DejaVuSans-6e" x="3345.287109"/>
      <use xlink:href="#DejaVuSans-63" x="3408.666016"/>
      <use xlink:href="#DejaVuSans-68" x="3463.646484"/>
      <use xlink:href="#DejaVuSans-6c" x="3527.025391"/>
      <use xlink:href="#DejaVuSans-65" x="3554.808594"/>
      <use xlink:href="#DejaVuSans-73" x="3616.332031"/>
      <use xlink:href="#DejaVuSans-73" x="3668.431641"/>
      <use xlink:href="#DejaVuSans-3c" x="3720.53125"/>
      <use xlink:href="#DejaVuSans-33" x="3804.320312"/>
      <use xlink:href="#DejaVuSans-32" x="3867.943359"/>
      <use xlink:href="#DejaVuSans-3e" x="3931.566406"/>
      <use xlink:href="#DejaVuSans-3e" x="4015.355469"/>
     </g>
    </g>
   </g>
  </g>
 </g>
 <defs>
  <clipPath id="pce2b20b5cb">
   <rect x="46.965625" y="50.594688" width="613.8" height="443.52"/>
  </clipPath>
 </defs>
</svg>
