<?xml version="1.0" encoding="utf-8" standalone="no"?>
<!DOCTYPE svg PUBLIC "-//W3C//DTD SVG 1.1//EN"
  "http://www.w3.org/Graphics/SVG/1.1/DTD/svg11.dtd">
<svg xmlns:xlink="http://www.w3.org/1999/xlink" width="674.328125pt" height="531.670938pt" viewBox="0 0 674.328125 531.670938" xmlns="http://www.w3.org/2000/svg" version="1.1">
 <metadata>
  <rdf:RDF xmlns:dc="http://purl.org/dc/elements/1.1/" xmlns:cc="http://creativecommons.org/ns#" xmlns:rdf="http://www.w3.org/1999/02/22-rdf-syntax-ns#">
   <cc:Work>
    <dc:type rdf:resource="http://purl.org/dc/dcmitype/StillImage"/>
    <dc:date>2025-02-16T17:52:30.384096</dc:date>
    <dc:format>image/svg+xml</dc:format>
    <dc:creator>
     <cc:Agent>
      <dc:title>Matplotlib v3.9.2, https://matplotlib.org/</dc:title>
     </cc:Agent>
    </dc:creator>
   </cc:Work>
  </rdf:RDF>
 </metadata>
 <defs>
  <style type="text/css">*{stroke-linejoin: round; stroke-linecap: butt}</style>
 </defs>
 <g id="figure_1">
  <g id="patch_1">
   <path d="M 0 531.670938 
L 674.328125 531.670938 
L 674.328125 0 
L 0 0 
z
" style="fill: #ffffff"/>
  </g>
  <g id="axes_1">
   <g id="patch_2">
    <path d="M 53.328125 494.114688 
L 667.128125 494.114688 
L 667.128125 50.594688 
L 53.328125 50.594688 
z
" style="fill: #ffffff"/>
   </g>
   <g id="line2d_1">
    <path d="M 300.340447 494.114688 
L 300.340447 50.594688 
" clip-path="url(#p9e689bbd0d)" style="fill: none; stroke-dasharray: 5.55,2.4; stroke-dashoffset: 0; stroke: #ff0000; stroke-width: 1.5"/>
   </g>
   <g id="line2d_2">
    <path d="M 389.860401 494.114688 
L 389.860401 50.594688 
" clip-path="url(#p9e689bbd0d)" style="fill: none; stroke-dasharray: 5.55,2.4; stroke-dashoffset: 0; stroke: #ff0000; stroke-width: 1.5"/>
   </g>
   <g id="line2d_3">
    <path d="M 457.000367 494.114688 
L 457.000367 50.594688 
" clip-path="url(#p9e689bbd0d)" style="fill: none; stroke-dasharray: 5.55,2.4; stroke-dashoffset: 0; stroke: #ff0000; stroke-width: 1.5"/>
   </g>
   <g id="axes_2">
    <g id="patch_3">
     <path d="M 53.328125 50.594688 
L 667.128125 50.594688 
L 667.128125 50.594687 
L 53.328125 50.594687 
z
" style="fill: #ffffff"/>
    </g>
    <g id="matplotlib.axis_1">
     <g id="xtick_1">
      <g id="line2d_4">
       <defs>
        <path id="m42f1c4a759" d="M 0 0 
L 0 -3.5 
" style="stroke: #000000; stroke-width: 0.8"/>
       </defs>
       <g>
        <use xlink:href="#m42f1c4a759" x="54.160572" y="50.594687" style="stroke: #000000; stroke-width: 0.8"/>
       </g>
      </g>
      <g id="text_1">
       <!-- $\mathdefault{2^{2}}$ -->
       <g transform="translate(48.560572 41.515) scale(0.1 -0.1)">
        <defs>
         <path id="DejaVuSans-32" d="M 1228 531 
L 3431 531 
L 3431 0 
L 469 0 
L 469 531 
Q 828 903 1448 1529 
Q 2069 2156 2228 2338 
Q 2531 2678 2651 2914 
Q 2772 3150 2772 3378 
Q 2772 3750 2511 3984 
Q 2250 4219 1831 4219 
Q 1534 4219 1204 4116 
Q 875 4013 500 3803 
L 500 4441 
Q 881 4594 1212 4672 
Q 1544 4750 1819 4750 
Q 2544 4750 2975 4387 
Q 3406 4025 3406 3419 
Q 3406 3131 3298 2873 
Q 3191 2616 2906 2266 
Q 2828 2175 2409 1742 
Q 1991 1309 1228 531 
z
" transform="scale(0.015625)"/>
        </defs>
        <use xlink:href="#DejaVuSans-32" transform="translate(0 0.765625)"/>
        <use xlink:href="#DejaVuSans-32" transform="translate(64.580078 39.046875) scale(0.7)"/>
       </g>
      </g>
     </g>
     <g id="xtick_2">
      <g id="line2d_5">
       <g>
        <use xlink:href="#m42f1c4a759" x="98.92055" y="50.594687" style="stroke: #000000; stroke-width: 0.8"/>
       </g>
      </g>
      <g id="text_2">
       <!-- $\mathdefault{2^{4}}$ -->
       <g transform="translate(93.32055 41.515) scale(0.1 -0.1)">
        <defs>
         <path id="DejaVuSans-34" d="M 2419 4116 
L 825 1625 
L 2419 1625 
L 2419 4116 
z
M 2253 4666 
L 3047 4666 
L 3047 1625 
L 3713 1625 
L 3713 1100 
L 3047 1100 
L 3047 0 
L 2419 0 
L 2419 1100 
L 313 1100 
L 313 1709 
L 2253 4666 
z
" transform="scale(0.015625)"/>
        </defs>
        <use xlink:href="#DejaVuSans-32" transform="translate(0 0.684375)"/>
        <use xlink:href="#DejaVuSans-34" transform="translate(64.580078 38.965625) scale(0.7)"/>
       </g>
      </g>
     </g>
     <g id="xtick_3">
      <g id="line2d_6">
       <g>
        <use xlink:href="#m42f1c4a759" x="143.680527" y="50.594687" style="stroke: #000000; stroke-width: 0.8"/>
       </g>
      </g>
      <g id="text_3">
       <!-- $\mathdefault{2^{6}}$ -->
       <g transform="translate(138.080527 41.515) scale(0.1 -0.1)">
        <defs>
         <path id="DejaVuSans-36" d="M 2113 2584 
Q 1688 2584 1439 2293 
Q 1191 2003 1191 1497 
Q 1191 994 1439 701 
Q 1688 409 2113 409 
Q 2538 409 2786 701 
Q 3034 994 3034 1497 
Q 3034 2003 2786 2293 
Q 2538 2584 2113 2584 
z
M 3366 4563 
L 3366 3988 
Q 3128 4100 2886 4159 
Q 2644 4219 2406 4219 
Q 1781 4219 1451 3797 
Q 1122 3375 1075 2522 
Q 1259 2794 1537 2939 
Q 1816 3084 2150 3084 
Q 2853 3084 3261 2657 
Q 3669 2231 3669 1497 
Q 3669 778 3244 343 
Q 2819 -91 2113 -91 
Q 1303 -91 875 529 
Q 447 1150 447 2328 
Q 447 3434 972 4092 
Q 1497 4750 2381 4750 
Q 2619 4750 2861 4703 
Q 3103 4656 3366 4563 
z
" transform="scale(0.015625)"/>
        </defs>
        <use xlink:href="#DejaVuSans-32" transform="translate(0 0.765625)"/>
        <use xlink:href="#DejaVuSans-36" transform="translate(64.580078 39.046875) scale(0.7)"/>
       </g>
      </g>
     </g>
     <g id="xtick_4">
      <g id="line2d_7">
       <g>
        <use xlink:href="#m42f1c4a759" x="188.440504" y="50.594687" style="stroke: #000000; stroke-width: 0.8"/>
       </g>
      </g>
      <g id="text_4">
       <!-- $\mathdefault{2^{8}}$ -->
       <g transform="translate(182.840504 41.515) scale(0.1 -0.1)">
        <defs>
         <path id="DejaVuSans-38" d="M 2034 2216 
Q 1584 2216 1326 1975 
Q 1069 1734 1069 1313 
Q 1069 891 1326 650 
Q 1584 409 2034 409 
Q 2484 409 2743 651 
Q 3003 894 3003 1313 
Q 3003 1734 2745 1975 
Q 2488 2216 2034 2216 
z
M 1403 2484 
Q 997 2584 770 2862 
Q 544 3141 544 3541 
Q 544 4100 942 4425 
Q 1341 4750 2034 4750 
Q 2731 4750 3128 4425 
Q 3525 4100 3525 3541 
Q 3525 3141 3298 2862 
Q 3072 2584 2669 2484 
Q 3125 2378 3379 2068 
Q 3634 1759 3634 1313 
Q 3634 634 3220 271 
Q 2806 -91 2034 -91 
Q 1263 -91 848 271 
Q 434 634 434 1313 
Q 434 1759 690 2068 
Q 947 2378 1403 2484 
z
M 1172 3481 
Q 1172 3119 1398 2916 
Q 1625 2713 2034 2713 
Q 2441 2713 2670 2916 
Q 2900 3119 2900 3481 
Q 2900 3844 2670 4047 
Q 2441 4250 2034 4250 
Q 1625 4250 1398 4047 
Q 1172 3844 1172 3481 
z
" transform="scale(0.015625)"/>
        </defs>
        <use xlink:href="#DejaVuSans-32" transform="translate(0 0.765625)"/>
        <use xlink:href="#DejaVuSans-38" transform="translate(64.580078 39.046875) scale(0.7)"/>
       </g>
      </g>
     </g>
     <g id="xtick_5">
      <g id="line2d_8">
       <g>
        <use xlink:href="#m42f1c4a759" x="233.200481" y="50.594687" style="stroke: #000000; stroke-width: 0.8"/>
       </g>
      </g>
      <g id="text_5">
       <!-- $\mathdefault{2^{10}}$ -->
       <g transform="translate(225.350481 41.515) scale(0.1 -0.1)">
        <defs>
         <path id="DejaVuSans-31" d="M 794 531 
L 1825 531 
L 1825 4091 
L 703 3866 
L 703 4441 
L 1819 4666 
L 2450 4666 
L 2450 531 
L 3481 531 
L 3481 0 
L 794 0 
L 794 531 
z
" transform="scale(0.015625)"/>
         <path id="DejaVuSans-30" d="M 2034 4250 
Q 1547 4250 1301 3770 
Q 1056 3291 1056 2328 
Q 1056 1369 1301 889 
Q 1547 409 2034 409 
Q 2525 409 2770 889 
Q 3016 1369 3016 2328 
Q 3016 3291 2770 3770 
Q 2525 4250 2034 4250 
z
M 2034 4750 
Q 2819 4750 3233 4129 
Q 3647 3509 3647 2328 
Q 3647 1150 3233 529 
Q 2819 -91 2034 -91 
Q 1250 -91 836 529 
Q 422 1150 422 2328 
Q 422 3509 836 4129 
Q 1250 4750 2034 4750 
z
" transform="scale(0.015625)"/>
        </defs>
        <use xlink:href="#DejaVuSans-32" transform="translate(0 0.765625)"/>
        <use xlink:href="#DejaVuSans-31" transform="translate(64.580078 39.046875) scale(0.7)"/>
        <use xlink:href="#DejaVuSans-30" transform="translate(109.116211 39.046875) scale(0.7)"/>
       </g>
      </g>
     </g>
     <g id="xtick_6">
      <g id="line2d_9">
       <g>
        <use xlink:href="#m42f1c4a759" x="277.960458" y="50.594687" style="stroke: #000000; stroke-width: 0.8"/>
       </g>
      </g>
      <g id="text_6">
       <!-- $\mathdefault{2^{12}}$ -->
       <g transform="translate(270.110458 41.515) scale(0.1 -0.1)">
        <use xlink:href="#DejaVuSans-32" transform="translate(0 0.765625)"/>
        <use xlink:href="#DejaVuSans-31" transform="translate(64.580078 39.046875) scale(0.7)"/>
        <use xlink:href="#DejaVuSans-32" transform="translate(109.116211 39.046875) scale(0.7)"/>
       </g>
      </g>
     </g>
     <g id="xtick_7">
      <g id="line2d_10">
       <g>
        <use xlink:href="#m42f1c4a759" x="322.720436" y="50.594687" style="stroke: #000000; stroke-width: 0.8"/>
       </g>
      </g>
      <g id="text_7">
       <!-- $\mathdefault{2^{14}}$ -->
       <g transform="translate(314.870436 41.515) scale(0.1 -0.1)">
        <use xlink:href="#DejaVuSans-32" transform="translate(0 0.684375)"/>
        <use xlink:href="#DejaVuSans-31" transform="translate(64.580078 38.965625) scale(0.7)"/>
        <use xlink:href="#DejaVuSans-34" transform="translate(109.116211 38.965625) scale(0.7)"/>
       </g>
      </g>
     </g>
     <g id="xtick_8">
      <g id="line2d_11">
       <g>
        <use xlink:href="#m42f1c4a759" x="367.480413" y="50.594687" style="stroke: #000000; stroke-width: 0.8"/>
       </g>
      </g>
      <g id="text_8">
       <!-- $\mathdefault{2^{16}}$ -->
       <g transform="translate(359.630413 41.515) scale(0.1 -0.1)">
        <use xlink:href="#DejaVuSans-32" transform="translate(0 0.765625)"/>
        <use xlink:href="#DejaVuSans-31" transform="translate(64.580078 39.046875) scale(0.7)"/>
        <use xlink:href="#DejaVuSans-36" transform="translate(109.116211 39.046875) scale(0.7)"/>
       </g>
      </g>
     </g>
     <g id="xtick_9">
      <g id="line2d_12">
       <g>
        <use xlink:href="#m42f1c4a759" x="412.24039" y="50.594687" style="stroke: #000000; stroke-width: 0.8"/>
       </g>
      </g>
      <g id="text_9">
       <!-- $\mathdefault{2^{18}}$ -->
       <g transform="translate(404.39039 41.515) scale(0.1 -0.1)">
        <use xlink:href="#DejaVuSans-32" transform="translate(0 0.765625)"/>
        <use xlink:href="#DejaVuSans-31" transform="translate(64.580078 39.046875) scale(0.7)"/>
        <use xlink:href="#DejaVuSans-38" transform="translate(109.116211 39.046875) scale(0.7)"/>
       </g>
      </g>
     </g>
     <g id="xtick_10">
      <g id="line2d_13">
       <g>
        <use xlink:href="#m42f1c4a759" x="457.000367" y="50.594687" style="stroke: #000000; stroke-width: 0.8"/>
       </g>
      </g>
      <g id="text_10">
       <!-- $\mathdefault{2^{20}}$ -->
       <g transform="translate(449.150367 41.515) scale(0.1 -0.1)">
        <use xlink:href="#DejaVuSans-32" transform="translate(0 0.765625)"/>
        <use xlink:href="#DejaVuSans-32" transform="translate(64.580078 39.046875) scale(0.7)"/>
        <use xlink:href="#DejaVuSans-30" transform="translate(109.116211 39.046875) scale(0.7)"/>
       </g>
      </g>
     </g>
     <g id="xtick_11">
      <g id="line2d_14">
       <g>
        <use xlink:href="#m42f1c4a759" x="501.760344" y="50.594687" style="stroke: #000000; stroke-width: 0.8"/>
       </g>
      </g>
      <g id="text_11">
       <!-- $\mathdefault{2^{22}}$ -->
       <g transform="translate(493.910344 41.515) scale(0.1 -0.1)">
        <use xlink:href="#DejaVuSans-32" transform="translate(0 0.765625)"/>
        <use xlink:href="#DejaVuSans-32" transform="translate(64.580078 39.046875) scale(0.7)"/>
        <use xlink:href="#DejaVuSans-32" transform="translate(109.116211 39.046875) scale(0.7)"/>
       </g>
      </g>
     </g>
     <g id="xtick_12">
      <g id="line2d_15">
       <g>
        <use xlink:href="#m42f1c4a759" x="546.520322" y="50.594687" style="stroke: #000000; stroke-width: 0.8"/>
       </g>
      </g>
      <g id="text_12">
       <!-- $\mathdefault{2^{24}}$ -->
       <g transform="translate(538.670322 41.515) scale(0.1 -0.1)">
        <use xlink:href="#DejaVuSans-32" transform="translate(0 0.765625)"/>
        <use xlink:href="#DejaVuSans-32" transform="translate(64.580078 39.046875) scale(0.7)"/>
        <use xlink:href="#DejaVuSans-34" transform="translate(109.116211 39.046875) scale(0.7)"/>
       </g>
      </g>
     </g>
     <g id="xtick_13">
      <g id="line2d_16">
       <g>
        <use xlink:href="#m42f1c4a759" x="591.280299" y="50.594687" style="stroke: #000000; stroke-width: 0.8"/>
       </g>
      </g>
      <g id="text_13">
       <!-- $\mathdefault{2^{26}}$ -->
       <g transform="translate(583.430299 41.515) scale(0.1 -0.1)">
        <use xlink:href="#DejaVuSans-32" transform="translate(0 0.765625)"/>
        <use xlink:href="#DejaVuSans-32" transform="translate(64.580078 39.046875) scale(0.7)"/>
        <use xlink:href="#DejaVuSans-36" transform="translate(109.116211 39.046875) scale(0.7)"/>
       </g>
      </g>
     </g>
     <g id="xtick_14">
      <g id="line2d_17">
       <g>
        <use xlink:href="#m42f1c4a759" x="636.040276" y="50.594687" style="stroke: #000000; stroke-width: 0.8"/>
       </g>
      </g>
      <g id="text_14">
       <!-- $\mathdefault{2^{28}}$ -->
       <g transform="translate(628.190276 41.515) scale(0.1 -0.1)">
        <use xlink:href="#DejaVuSans-32" transform="translate(0 0.765625)"/>
        <use xlink:href="#DejaVuSans-32" transform="translate(64.580078 39.046875) scale(0.7)"/>
        <use xlink:href="#DejaVuSans-38" transform="translate(109.116211 39.046875) scale(0.7)"/>
       </g>
      </g>
     </g>
     <g id="text_15">
      <!-- Array length (u32) -->
      <g transform="translate(314.2125 29.916562) scale(0.1 -0.1)">
       <defs>
        <path id="DejaVuSans-41" d="M 2188 4044 
L 1331 1722 
L 3047 1722 
L 2188 4044 
z
M 1831 4666 
L 2547 4666 
L 4325 0 
L 3669 0 
L 3244 1197 
L 1141 1197 
L 716 0 
L 50 0 
L 1831 4666 
z
" transform="scale(0.015625)"/>
        <path id="DejaVuSans-72" d="M 2631 2963 
Q 2534 3019 2420 3045 
Q 2306 3072 2169 3072 
Q 1681 3072 1420 2755 
Q 1159 2438 1159 1844 
L 1159 0 
L 581 0 
L 581 3500 
L 1159 3500 
L 1159 2956 
Q 1341 3275 1631 3429 
Q 1922 3584 2338 3584 
Q 2397 3584 2469 3576 
Q 2541 3569 2628 3553 
L 2631 2963 
z
" transform="scale(0.015625)"/>
        <path id="DejaVuSans-61" d="M 2194 1759 
Q 1497 1759 1228 1600 
Q 959 1441 959 1056 
Q 959 750 1161 570 
Q 1363 391 1709 391 
Q 2188 391 2477 730 
Q 2766 1069 2766 1631 
L 2766 1759 
L 2194 1759 
z
M 3341 1997 
L 3341 0 
L 2766 0 
L 2766 531 
Q 2569 213 2275 61 
Q 1981 -91 1556 -91 
Q 1019 -91 701 211 
Q 384 513 384 1019 
Q 384 1609 779 1909 
Q 1175 2209 1959 2209 
L 2766 2209 
L 2766 2266 
Q 2766 2663 2505 2880 
Q 2244 3097 1772 3097 
Q 1472 3097 1187 3025 
Q 903 2953 641 2809 
L 641 3341 
Q 956 3463 1253 3523 
Q 1550 3584 1831 3584 
Q 2591 3584 2966 3190 
Q 3341 2797 3341 1997 
z
" transform="scale(0.015625)"/>
        <path id="DejaVuSans-79" d="M 2059 -325 
Q 1816 -950 1584 -1140 
Q 1353 -1331 966 -1331 
L 506 -1331 
L 506 -850 
L 844 -850 
Q 1081 -850 1212 -737 
Q 1344 -625 1503 -206 
L 1606 56 
L 191 3500 
L 800 3500 
L 1894 763 
L 2988 3500 
L 3597 3500 
L 2059 -325 
z
" transform="scale(0.015625)"/>
        <path id="DejaVuSans-20" transform="scale(0.015625)"/>
        <path id="DejaVuSans-6c" d="M 603 4863 
L 1178 4863 
L 1178 0 
L 603 0 
L 603 4863 
z
" transform="scale(0.015625)"/>
        <path id="DejaVuSans-65" d="M 3597 1894 
L 3597 1613 
L 953 1613 
Q 991 1019 1311 708 
Q 1631 397 2203 397 
Q 2534 397 2845 478 
Q 3156 559 3463 722 
L 3463 178 
Q 3153 47 2828 -22 
Q 2503 -91 2169 -91 
Q 1331 -91 842 396 
Q 353 884 353 1716 
Q 353 2575 817 3079 
Q 1281 3584 2069 3584 
Q 2775 3584 3186 3129 
Q 3597 2675 3597 1894 
z
M 3022 2063 
Q 3016 2534 2758 2815 
Q 2500 3097 2075 3097 
Q 1594 3097 1305 2825 
Q 1016 2553 972 2059 
L 3022 2063 
z
" transform="scale(0.015625)"/>
        <path id="DejaVuSans-6e" d="M 3513 2113 
L 3513 0 
L 2938 0 
L 2938 2094 
Q 2938 2591 2744 2837 
Q 2550 3084 2163 3084 
Q 1697 3084 1428 2787 
Q 1159 2491 1159 1978 
L 1159 0 
L 581 0 
L 581 3500 
L 1159 3500 
L 1159 2956 
Q 1366 3272 1645 3428 
Q 1925 3584 2291 3584 
Q 2894 3584 3203 3211 
Q 3513 2838 3513 2113 
z
" transform="scale(0.015625)"/>
        <path id="DejaVuSans-67" d="M 2906 1791 
Q 2906 2416 2648 2759 
Q 2391 3103 1925 3103 
Q 1463 3103 1205 2759 
Q 947 2416 947 1791 
Q 947 1169 1205 825 
Q 1463 481 1925 481 
Q 2391 481 2648 825 
Q 2906 1169 2906 1791 
z
M 3481 434 
Q 3481 -459 3084 -895 
Q 2688 -1331 1869 -1331 
Q 1566 -1331 1297 -1286 
Q 1028 -1241 775 -1147 
L 775 -588 
Q 1028 -725 1275 -790 
Q 1522 -856 1778 -856 
Q 2344 -856 2625 -561 
Q 2906 -266 2906 331 
L 2906 616 
Q 2728 306 2450 153 
Q 2172 0 1784 0 
Q 1141 0 747 490 
Q 353 981 353 1791 
Q 353 2603 747 3093 
Q 1141 3584 1784 3584 
Q 2172 3584 2450 3431 
Q 2728 3278 2906 2969 
L 2906 3500 
L 3481 3500 
L 3481 434 
z
" transform="scale(0.015625)"/>
        <path id="DejaVuSans-74" d="M 1172 4494 
L 1172 3500 
L 2356 3500 
L 2356 3053 
L 1172 3053 
L 1172 1153 
Q 1172 725 1289 603 
Q 1406 481 1766 481 
L 2356 481 
L 2356 0 
L 1766 0 
Q 1100 0 847 248 
Q 594 497 594 1153 
L 594 3053 
L 172 3053 
L 172 3500 
L 594 3500 
L 594 4494 
L 1172 4494 
z
" transform="scale(0.015625)"/>
        <path id="DejaVuSans-68" d="M 3513 2113 
L 3513 0 
L 2938 0 
L 2938 2094 
Q 2938 2591 2744 2837 
Q 2550 3084 2163 3084 
Q 1697 3084 1428 2787 
Q 1159 2491 1159 1978 
L 1159 0 
L 581 0 
L 581 4863 
L 1159 4863 
L 1159 2956 
Q 1366 3272 1645 3428 
Q 1925 3584 2291 3584 
Q 2894 3584 3203 3211 
Q 3513 2838 3513 2113 
z
" transform="scale(0.015625)"/>
        <path id="DejaVuSans-28" d="M 1984 4856 
Q 1566 4138 1362 3434 
Q 1159 2731 1159 2009 
Q 1159 1288 1364 580 
Q 1569 -128 1984 -844 
L 1484 -844 
Q 1016 -109 783 600 
Q 550 1309 550 2009 
Q 550 2706 781 3412 
Q 1013 4119 1484 4856 
L 1984 4856 
z
" transform="scale(0.015625)"/>
        <path id="DejaVuSans-75" d="M 544 1381 
L 544 3500 
L 1119 3500 
L 1119 1403 
Q 1119 906 1312 657 
Q 1506 409 1894 409 
Q 2359 409 2629 706 
Q 2900 1003 2900 1516 
L 2900 3500 
L 3475 3500 
L 3475 0 
L 2900 0 
L 2900 538 
Q 2691 219 2414 64 
Q 2138 -91 1772 -91 
Q 1169 -91 856 284 
Q 544 659 544 1381 
z
M 1991 3584 
L 1991 3584 
z
" transform="scale(0.015625)"/>
        <path id="DejaVuSans-33" d="M 2597 2516 
Q 3050 2419 3304 2112 
Q 3559 1806 3559 1356 
Q 3559 666 3084 287 
Q 2609 -91 1734 -91 
Q 1441 -91 1130 -33 
Q 819 25 488 141 
L 488 750 
Q 750 597 1062 519 
Q 1375 441 1716 441 
Q 2309 441 2620 675 
Q 2931 909 2931 1356 
Q 2931 1769 2642 2001 
Q 2353 2234 1838 2234 
L 1294 2234 
L 1294 2753 
L 1863 2753 
Q 2328 2753 2575 2939 
Q 2822 3125 2822 3475 
Q 2822 3834 2567 4026 
Q 2313 4219 1838 4219 
Q 1578 4219 1281 4162 
Q 984 4106 628 3988 
L 628 4550 
Q 988 4650 1302 4700 
Q 1616 4750 1894 4750 
Q 2613 4750 3031 4423 
Q 3450 4097 3450 3541 
Q 3450 3153 3228 2886 
Q 3006 2619 2597 2516 
z
" transform="scale(0.015625)"/>
        <path id="DejaVuSans-29" d="M 513 4856 
L 1013 4856 
Q 1481 4119 1714 3412 
Q 1947 2706 1947 2009 
Q 1947 1309 1714 600 
Q 1481 -109 1013 -844 
L 513 -844 
Q 928 -128 1133 580 
Q 1338 1288 1338 2009 
Q 1338 2731 1133 3434 
Q 928 4138 513 4856 
z
" transform="scale(0.015625)"/>
       </defs>
       <use xlink:href="#DejaVuSans-41"/>
       <use xlink:href="#DejaVuSans-72" x="68.408203"/>
       <use xlink:href="#DejaVuSans-72" x="107.771484"/>
       <use xlink:href="#DejaVuSans-61" x="148.884766"/>
       <use xlink:href="#DejaVuSans-79" x="210.164062"/>
       <use xlink:href="#DejaVuSans-20" x="269.34375"/>
       <use xlink:href="#DejaVuSans-6c" x="301.130859"/>
       <use xlink:href="#DejaVuSans-65" x="328.914062"/>
       <use xlink:href="#DejaVuSans-6e" x="390.4375"/>
       <use xlink:href="#DejaVuSans-67" x="453.816406"/>
       <use xlink:href="#DejaVuSans-74" x="517.292969"/>
       <use xlink:href="#DejaVuSans-68" x="556.501953"/>
       <use xlink:href="#DejaVuSans-20" x="619.880859"/>
       <use xlink:href="#DejaVuSans-28" x="651.667969"/>
       <use xlink:href="#DejaVuSans-75" x="690.681641"/>
       <use xlink:href="#DejaVuSans-33" x="754.060547"/>
       <use xlink:href="#DejaVuSans-32" x="817.683594"/>
       <use xlink:href="#DejaVuSans-29" x="881.306641"/>
      </g>
     </g>
    </g>
    <g id="matplotlib.axis_2"/>
    <g id="patch_4">
     <path d="M 53.328125 50.594687 
L 667.128125 50.594687 
" style="fill: none; stroke: #000000; stroke-width: 0.8; stroke-linejoin: miter; stroke-linecap: square"/>
    </g>
   </g>
   <g id="matplotlib.axis_3">
    <g id="xtick_15">
     <g id="line2d_18">
      <path d="M 54.160572 494.114688 
L 54.160572 50.594688 
" clip-path="url(#p9e689bbd0d)" style="fill: none; stroke: #b0b0b0; stroke-opacity: 0.4; stroke-width: 0.8; stroke-linecap: square"/>
     </g>
     <g id="line2d_19">
      <defs>
       <path id="m0b81f1317a" d="M 0 0 
L 0 3.5 
" style="stroke: #000000; stroke-width: 0.8"/>
      </defs>
      <g>
       <use xlink:href="#m0b81f1317a" x="54.160572" y="494.114688" style="stroke: #000000; stroke-width: 0.8"/>
      </g>
     </g>
     <g id="text_16">
      <!-- $\mathdefault{2^{4}}$ -->
      <g transform="translate(48.560572 508.713125) scale(0.1 -0.1)">
       <use xlink:href="#DejaVuSans-32" transform="translate(0 0.684375)"/>
       <use xlink:href="#DejaVuSans-34" transform="translate(64.580078 38.965625) scale(0.7)"/>
      </g>
     </g>
    </g>
    <g id="xtick_16">
     <g id="line2d_20">
      <path d="M 98.92055 494.114688 
L 98.92055 50.594688 
" clip-path="url(#p9e689bbd0d)" style="fill: none; stroke: #b0b0b0; stroke-opacity: 0.4; stroke-width: 0.8; stroke-linecap: square"/>
     </g>
     <g id="line2d_21">
      <g>
       <use xlink:href="#m0b81f1317a" x="98.92055" y="494.114688" style="stroke: #000000; stroke-width: 0.8"/>
      </g>
     </g>
     <g id="text_17">
      <!-- $\mathdefault{2^{6}}$ -->
      <g transform="translate(93.32055 508.713125) scale(0.1 -0.1)">
       <use xlink:href="#DejaVuSans-32" transform="translate(0 0.765625)"/>
       <use xlink:href="#DejaVuSans-36" transform="translate(64.580078 39.046875) scale(0.7)"/>
      </g>
     </g>
    </g>
    <g id="xtick_17">
     <g id="line2d_22">
      <path d="M 143.680527 494.114688 
L 143.680527 50.594688 
" clip-path="url(#p9e689bbd0d)" style="fill: none; stroke: #b0b0b0; stroke-opacity: 0.4; stroke-width: 0.8; stroke-linecap: square"/>
     </g>
     <g id="line2d_23">
      <g>
       <use xlink:href="#m0b81f1317a" x="143.680527" y="494.114688" style="stroke: #000000; stroke-width: 0.8"/>
      </g>
     </g>
     <g id="text_18">
      <!-- $\mathdefault{2^{8}}$ -->
      <g transform="translate(138.080527 508.713125) scale(0.1 -0.1)">
       <use xlink:href="#DejaVuSans-32" transform="translate(0 0.765625)"/>
       <use xlink:href="#DejaVuSans-38" transform="translate(64.580078 39.046875) scale(0.7)"/>
      </g>
     </g>
    </g>
    <g id="xtick_18">
     <g id="line2d_24">
      <path d="M 188.440504 494.114688 
L 188.440504 50.594688 
" clip-path="url(#p9e689bbd0d)" style="fill: none; stroke: #b0b0b0; stroke-opacity: 0.4; stroke-width: 0.8; stroke-linecap: square"/>
     </g>
     <g id="line2d_25">
      <g>
       <use xlink:href="#m0b81f1317a" x="188.440504" y="494.114688" style="stroke: #000000; stroke-width: 0.8"/>
      </g>
     </g>
     <g id="text_19">
      <!-- $\mathdefault{2^{10}}$ -->
      <g transform="translate(180.590504 508.713125) scale(0.1 -0.1)">
       <use xlink:href="#DejaVuSans-32" transform="translate(0 0.765625)"/>
       <use xlink:href="#DejaVuSans-31" transform="translate(64.580078 39.046875) scale(0.7)"/>
       <use xlink:href="#DejaVuSans-30" transform="translate(109.116211 39.046875) scale(0.7)"/>
      </g>
     </g>
    </g>
    <g id="xtick_19">
     <g id="line2d_26">
      <path d="M 233.200481 494.114688 
L 233.200481 50.594688 
" clip-path="url(#p9e689bbd0d)" style="fill: none; stroke: #b0b0b0; stroke-opacity: 0.4; stroke-width: 0.8; stroke-linecap: square"/>
     </g>
     <g id="line2d_27">
      <g>
       <use xlink:href="#m0b81f1317a" x="233.200481" y="494.114688" style="stroke: #000000; stroke-width: 0.8"/>
      </g>
     </g>
     <g id="text_20">
      <!-- $\mathdefault{2^{12}}$ -->
      <g transform="translate(225.350481 508.713125) scale(0.1 -0.1)">
       <use xlink:href="#DejaVuSans-32" transform="translate(0 0.765625)"/>
       <use xlink:href="#DejaVuSans-31" transform="translate(64.580078 39.046875) scale(0.7)"/>
       <use xlink:href="#DejaVuSans-32" transform="translate(109.116211 39.046875) scale(0.7)"/>
      </g>
     </g>
    </g>
    <g id="xtick_20">
     <g id="line2d_28">
      <path d="M 277.960458 494.114688 
L 277.960458 50.594688 
" clip-path="url(#p9e689bbd0d)" style="fill: none; stroke: #b0b0b0; stroke-opacity: 0.4; stroke-width: 0.8; stroke-linecap: square"/>
     </g>
     <g id="line2d_29">
      <g>
       <use xlink:href="#m0b81f1317a" x="277.960458" y="494.114688" style="stroke: #000000; stroke-width: 0.8"/>
      </g>
     </g>
     <g id="text_21">
      <!-- $\mathdefault{2^{14}}$ -->
      <g transform="translate(270.110458 508.713125) scale(0.1 -0.1)">
       <use xlink:href="#DejaVuSans-32" transform="translate(0 0.684375)"/>
       <use xlink:href="#DejaVuSans-31" transform="translate(64.580078 38.965625) scale(0.7)"/>
       <use xlink:href="#DejaVuSans-34" transform="translate(109.116211 38.965625) scale(0.7)"/>
      </g>
     </g>
    </g>
    <g id="xtick_21">
     <g id="line2d_30">
      <path d="M 322.720436 494.114688 
L 322.720436 50.594688 
" clip-path="url(#p9e689bbd0d)" style="fill: none; stroke: #b0b0b0; stroke-opacity: 0.4; stroke-width: 0.8; stroke-linecap: square"/>
     </g>
     <g id="line2d_31">
      <g>
       <use xlink:href="#m0b81f1317a" x="322.720436" y="494.114688" style="stroke: #000000; stroke-width: 0.8"/>
      </g>
     </g>
     <g id="text_22">
      <!-- $\mathdefault{2^{16}}$ -->
      <g transform="translate(314.870436 508.713125) scale(0.1 -0.1)">
       <use xlink:href="#DejaVuSans-32" transform="translate(0 0.765625)"/>
       <use xlink:href="#DejaVuSans-31" transform="translate(64.580078 39.046875) scale(0.7)"/>
       <use xlink:href="#DejaVuSans-36" transform="translate(109.116211 39.046875) scale(0.7)"/>
      </g>
     </g>
    </g>
    <g id="xtick_22">
     <g id="line2d_32">
      <path d="M 367.480413 494.114688 
L 367.480413 50.594688 
" clip-path="url(#p9e689bbd0d)" style="fill: none; stroke: #b0b0b0; stroke-opacity: 0.4; stroke-width: 0.8; stroke-linecap: square"/>
     </g>
     <g id="line2d_33">
      <g>
       <use xlink:href="#m0b81f1317a" x="367.480413" y="494.114688" style="stroke: #000000; stroke-width: 0.8"/>
      </g>
     </g>
     <g id="text_23">
      <!-- $\mathdefault{2^{18}}$ -->
      <g transform="translate(359.630413 508.713125) scale(0.1 -0.1)">
       <use xlink:href="#DejaVuSans-32" transform="translate(0 0.765625)"/>
       <use xlink:href="#DejaVuSans-31" transform="translate(64.580078 39.046875) scale(0.7)"/>
       <use xlink:href="#DejaVuSans-38" transform="translate(109.116211 39.046875) scale(0.7)"/>
      </g>
     </g>
    </g>
    <g id="xtick_23">
     <g id="line2d_34">
      <path d="M 412.24039 494.114688 
L 412.24039 50.594688 
" clip-path="url(#p9e689bbd0d)" style="fill: none; stroke: #b0b0b0; stroke-opacity: 0.4; stroke-width: 0.8; stroke-linecap: square"/>
     </g>
     <g id="line2d_35">
      <g>
       <use xlink:href="#m0b81f1317a" x="412.24039" y="494.114688" style="stroke: #000000; stroke-width: 0.8"/>
      </g>
     </g>
     <g id="text_24">
      <!-- $\mathdefault{2^{20}}$ -->
      <g transform="translate(404.39039 508.713125) scale(0.1 -0.1)">
       <use xlink:href="#DejaVuSans-32" transform="translate(0 0.765625)"/>
       <use xlink:href="#DejaVuSans-32" transform="translate(64.580078 39.046875) scale(0.7)"/>
       <use xlink:href="#DejaVuSans-30" transform="translate(109.116211 39.046875) scale(0.7)"/>
      </g>
     </g>
    </g>
    <g id="xtick_24">
     <g id="line2d_36">
      <path d="M 457.000367 494.114688 
L 457.000367 50.594688 
" clip-path="url(#p9e689bbd0d)" style="fill: none; stroke: #b0b0b0; stroke-opacity: 0.4; stroke-width: 0.8; stroke-linecap: square"/>
     </g>
     <g id="line2d_37">
      <g>
       <use xlink:href="#m0b81f1317a" x="457.000367" y="494.114688" style="stroke: #000000; stroke-width: 0.8"/>
      </g>
     </g>
     <g id="text_25">
      <!-- $\mathdefault{2^{22}}$ -->
      <g transform="translate(449.150367 508.713125) scale(0.1 -0.1)">
       <use xlink:href="#DejaVuSans-32" transform="translate(0 0.765625)"/>
       <use xlink:href="#DejaVuSans-32" transform="translate(64.580078 39.046875) scale(0.7)"/>
       <use xlink:href="#DejaVuSans-32" transform="translate(109.116211 39.046875) scale(0.7)"/>
      </g>
     </g>
    </g>
    <g id="xtick_25">
     <g id="line2d_38">
      <path d="M 501.760344 494.114688 
L 501.760344 50.594688 
" clip-path="url(#p9e689bbd0d)" style="fill: none; stroke: #b0b0b0; stroke-opacity: 0.4; stroke-width: 0.8; stroke-linecap: square"/>
     </g>
     <g id="line2d_39">
      <g>
       <use xlink:href="#m0b81f1317a" x="501.760344" y="494.114688" style="stroke: #000000; stroke-width: 0.8"/>
      </g>
     </g>
     <g id="text_26">
      <!-- $\mathdefault{2^{24}}$ -->
      <g transform="translate(493.910344 508.713125) scale(0.1 -0.1)">
       <use xlink:href="#DejaVuSans-32" transform="translate(0 0.765625)"/>
       <use xlink:href="#DejaVuSans-32" transform="translate(64.580078 39.046875) scale(0.7)"/>
       <use xlink:href="#DejaVuSans-34" transform="translate(109.116211 39.046875) scale(0.7)"/>
      </g>
     </g>
    </g>
    <g id="xtick_26">
     <g id="line2d_40">
      <path d="M 546.520322 494.114688 
L 546.520322 50.594688 
" clip-path="url(#p9e689bbd0d)" style="fill: none; stroke: #b0b0b0; stroke-opacity: 0.4; stroke-width: 0.8; stroke-linecap: square"/>
     </g>
     <g id="line2d_41">
      <g>
       <use xlink:href="#m0b81f1317a" x="546.520322" y="494.114688" style="stroke: #000000; stroke-width: 0.8"/>
      </g>
     </g>
     <g id="text_27">
      <!-- $\mathdefault{2^{26}}$ -->
      <g transform="translate(538.670322 508.713125) scale(0.1 -0.1)">
       <use xlink:href="#DejaVuSans-32" transform="translate(0 0.765625)"/>
       <use xlink:href="#DejaVuSans-32" transform="translate(64.580078 39.046875) scale(0.7)"/>
       <use xlink:href="#DejaVuSans-36" transform="translate(109.116211 39.046875) scale(0.7)"/>
      </g>
     </g>
    </g>
    <g id="xtick_27">
     <g id="line2d_42">
      <path d="M 591.280299 494.114688 
L 591.280299 50.594688 
" clip-path="url(#p9e689bbd0d)" style="fill: none; stroke: #b0b0b0; stroke-opacity: 0.4; stroke-width: 0.8; stroke-linecap: square"/>
     </g>
     <g id="line2d_43">
      <g>
       <use xlink:href="#m0b81f1317a" x="591.280299" y="494.114688" style="stroke: #000000; stroke-width: 0.8"/>
      </g>
     </g>
     <g id="text_28">
      <!-- $\mathdefault{2^{28}}$ -->
      <g transform="translate(583.430299 508.713125) scale(0.1 -0.1)">
       <use xlink:href="#DejaVuSans-32" transform="translate(0 0.765625)"/>
       <use xlink:href="#DejaVuSans-32" transform="translate(64.580078 39.046875) scale(0.7)"/>
       <use xlink:href="#DejaVuSans-38" transform="translate(109.116211 39.046875) scale(0.7)"/>
      </g>
     </g>
    </g>
    <g id="xtick_28">
     <g id="line2d_44">
      <path d="M 636.040276 494.114688 
L 636.040276 50.594688 
" clip-path="url(#p9e689bbd0d)" style="fill: none; stroke: #b0b0b0; stroke-opacity: 0.4; stroke-width: 0.8; stroke-linecap: square"/>
     </g>
     <g id="line2d_45">
      <g>
       <use xlink:href="#m0b81f1317a" x="636.040276" y="494.114688" style="stroke: #000000; stroke-width: 0.8"/>
      </g>
     </g>
     <g id="text_29">
      <!-- $\mathdefault{2^{30}}$ -->
      <g transform="translate(628.190276 508.713125) scale(0.1 -0.1)">
       <use xlink:href="#DejaVuSans-32" transform="translate(0 0.765625)"/>
       <use xlink:href="#DejaVuSans-33" transform="translate(64.580078 39.046875) scale(0.7)"/>
       <use xlink:href="#DejaVuSans-30" transform="translate(109.116211 39.046875) scale(0.7)"/>
      </g>
     </g>
    </g>
    <g id="text_30">
     <!-- Input size (bytes) -->
     <g transform="translate(316.732031 522.39125) scale(0.1 -0.1)">
      <defs>
       <path id="DejaVuSans-49" d="M 628 4666 
L 1259 4666 
L 1259 0 
L 628 0 
L 628 4666 
z
" transform="scale(0.015625)"/>
       <path id="DejaVuSans-70" d="M 1159 525 
L 1159 -1331 
L 581 -1331 
L 581 3500 
L 1159 3500 
L 1159 2969 
Q 1341 3281 1617 3432 
Q 1894 3584 2278 3584 
Q 2916 3584 3314 3078 
Q 3713 2572 3713 1747 
Q 3713 922 3314 415 
Q 2916 -91 2278 -91 
Q 1894 -91 1617 61 
Q 1341 213 1159 525 
z
M 3116 1747 
Q 3116 2381 2855 2742 
Q 2594 3103 2138 3103 
Q 1681 3103 1420 2742 
Q 1159 2381 1159 1747 
Q 1159 1113 1420 752 
Q 1681 391 2138 391 
Q 2594 391 2855 752 
Q 3116 1113 3116 1747 
z
" transform="scale(0.015625)"/>
       <path id="DejaVuSans-73" d="M 2834 3397 
L 2834 2853 
Q 2591 2978 2328 3040 
Q 2066 3103 1784 3103 
Q 1356 3103 1142 2972 
Q 928 2841 928 2578 
Q 928 2378 1081 2264 
Q 1234 2150 1697 2047 
L 1894 2003 
Q 2506 1872 2764 1633 
Q 3022 1394 3022 966 
Q 3022 478 2636 193 
Q 2250 -91 1575 -91 
Q 1294 -91 989 -36 
Q 684 19 347 128 
L 347 722 
Q 666 556 975 473 
Q 1284 391 1588 391 
Q 1994 391 2212 530 
Q 2431 669 2431 922 
Q 2431 1156 2273 1281 
Q 2116 1406 1581 1522 
L 1381 1569 
Q 847 1681 609 1914 
Q 372 2147 372 2553 
Q 372 3047 722 3315 
Q 1072 3584 1716 3584 
Q 2034 3584 2315 3537 
Q 2597 3491 2834 3397 
z
" transform="scale(0.015625)"/>
       <path id="DejaVuSans-69" d="M 603 3500 
L 1178 3500 
L 1178 0 
L 603 0 
L 603 3500 
z
M 603 4863 
L 1178 4863 
L 1178 4134 
L 603 4134 
L 603 4863 
z
" transform="scale(0.015625)"/>
       <path id="DejaVuSans-7a" d="M 353 3500 
L 3084 3500 
L 3084 2975 
L 922 459 
L 3084 459 
L 3084 0 
L 275 0 
L 275 525 
L 2438 3041 
L 353 3041 
L 353 3500 
z
" transform="scale(0.015625)"/>
       <path id="DejaVuSans-62" d="M 3116 1747 
Q 3116 2381 2855 2742 
Q 2594 3103 2138 3103 
Q 1681 3103 1420 2742 
Q 1159 2381 1159 1747 
Q 1159 1113 1420 752 
Q 1681 391 2138 391 
Q 2594 391 2855 752 
Q 3116 1113 3116 1747 
z
M 1159 2969 
Q 1341 3281 1617 3432 
Q 1894 3584 2278 3584 
Q 2916 3584 3314 3078 
Q 3713 2572 3713 1747 
Q 3713 922 3314 415 
Q 2916 -91 2278 -91 
Q 1894 -91 1617 61 
Q 1341 213 1159 525 
L 1159 0 
L 581 0 
L 581 4863 
L 1159 4863 
L 1159 2969 
z
" transform="scale(0.015625)"/>
      </defs>
      <use xlink:href="#DejaVuSans-49"/>
      <use xlink:href="#DejaVuSans-6e" x="29.492188"/>
      <use xlink:href="#DejaVuSans-70" x="92.871094"/>
      <use xlink:href="#DejaVuSans-75" x="156.347656"/>
      <use xlink:href="#DejaVuSans-74" x="219.726562"/>
      <use xlink:href="#DejaVuSans-20" x="258.935547"/>
      <use xlink:href="#DejaVuSans-73" x="290.722656"/>
      <use xlink:href="#DejaVuSans-69" x="342.822266"/>
      <use xlink:href="#DejaVuSans-7a" x="370.605469"/>
      <use xlink:href="#DejaVuSans-65" x="423.095703"/>
      <use xlink:href="#DejaVuSans-20" x="484.619141"/>
      <use xlink:href="#DejaVuSans-28" x="516.40625"/>
      <use xlink:href="#DejaVuSans-62" x="555.419922"/>
      <use xlink:href="#DejaVuSans-79" x="618.896484"/>
      <use xlink:href="#DejaVuSans-74" x="678.076172"/>
      <use xlink:href="#DejaVuSans-65" x="717.285156"/>
      <use xlink:href="#DejaVuSans-73" x="778.808594"/>
      <use xlink:href="#DejaVuSans-29" x="830.908203"/>
     </g>
    </g>
   </g>
   <g id="matplotlib.axis_4">
    <g id="ytick_1">
     <g id="line2d_46">
      <path d="M 53.328125 494.114688 
L 667.128125 494.114688 
" clip-path="url(#p9e689bbd0d)" style="fill: none; stroke: #b0b0b0; stroke-opacity: 0.4; stroke-width: 0.8; stroke-linecap: square"/>
     </g>
     <g id="line2d_47">
      <defs>
       <path id="mba5cc45872" d="M 0 0 
L -3.5 0 
" style="stroke: #000000; stroke-width: 0.8"/>
      </defs>
      <g>
       <use xlink:href="#mba5cc45872" x="53.328125" y="494.114688" style="stroke: #000000; stroke-width: 0.8"/>
      </g>
     </g>
     <g id="text_31">
      <!-- 0 -->
      <g transform="translate(39.965625 497.913906) scale(0.1 -0.1)">
       <use xlink:href="#DejaVuSans-30"/>
      </g>
     </g>
    </g>
    <g id="ytick_2">
     <g id="line2d_48">
      <path d="M 53.328125 420.194688 
L 667.128125 420.194688 
" clip-path="url(#p9e689bbd0d)" style="fill: none; stroke: #b0b0b0; stroke-opacity: 0.4; stroke-width: 0.8; stroke-linecap: square"/>
     </g>
     <g id="line2d_49">
      <g>
       <use xlink:href="#mba5cc45872" x="53.328125" y="420.194688" style="stroke: #000000; stroke-width: 0.8"/>
      </g>
     </g>
     <g id="text_32">
      <!-- 200 -->
      <g transform="translate(27.240625 423.993906) scale(0.1 -0.1)">
       <use xlink:href="#DejaVuSans-32"/>
       <use xlink:href="#DejaVuSans-30" x="63.623047"/>
       <use xlink:href="#DejaVuSans-30" x="127.246094"/>
      </g>
     </g>
    </g>
    <g id="ytick_3">
     <g id="line2d_50">
      <path d="M 53.328125 346.274688 
L 667.128125 346.274688 
" clip-path="url(#p9e689bbd0d)" style="fill: none; stroke: #b0b0b0; stroke-opacity: 0.4; stroke-width: 0.8; stroke-linecap: square"/>
     </g>
     <g id="line2d_51">
      <g>
       <use xlink:href="#mba5cc45872" x="53.328125" y="346.274688" style="stroke: #000000; stroke-width: 0.8"/>
      </g>
     </g>
     <g id="text_33">
      <!-- 400 -->
      <g transform="translate(27.240625 350.073906) scale(0.1 -0.1)">
       <use xlink:href="#DejaVuSans-34"/>
       <use xlink:href="#DejaVuSans-30" x="63.623047"/>
       <use xlink:href="#DejaVuSans-30" x="127.246094"/>
      </g>
     </g>
    </g>
    <g id="ytick_4">
     <g id="line2d_52">
      <path d="M 53.328125 272.354688 
L 667.128125 272.354688 
" clip-path="url(#p9e689bbd0d)" style="fill: none; stroke: #b0b0b0; stroke-opacity: 0.4; stroke-width: 0.8; stroke-linecap: square"/>
     </g>
     <g id="line2d_53">
      <g>
       <use xlink:href="#mba5cc45872" x="53.328125" y="272.354688" style="stroke: #000000; stroke-width: 0.8"/>
      </g>
     </g>
     <g id="text_34">
      <!-- 600 -->
      <g transform="translate(27.240625 276.153906) scale(0.1 -0.1)">
       <use xlink:href="#DejaVuSans-36"/>
       <use xlink:href="#DejaVuSans-30" x="63.623047"/>
       <use xlink:href="#DejaVuSans-30" x="127.246094"/>
      </g>
     </g>
    </g>
    <g id="ytick_5">
     <g id="line2d_54">
      <path d="M 53.328125 198.434688 
L 667.128125 198.434688 
" clip-path="url(#p9e689bbd0d)" style="fill: none; stroke: #b0b0b0; stroke-opacity: 0.4; stroke-width: 0.8; stroke-linecap: square"/>
     </g>
     <g id="line2d_55">
      <g>
       <use xlink:href="#mba5cc45872" x="53.328125" y="198.434688" style="stroke: #000000; stroke-width: 0.8"/>
      </g>
     </g>
     <g id="text_35">
      <!-- 800 -->
      <g transform="translate(27.240625 202.233906) scale(0.1 -0.1)">
       <use xlink:href="#DejaVuSans-38"/>
       <use xlink:href="#DejaVuSans-30" x="63.623047"/>
       <use xlink:href="#DejaVuSans-30" x="127.246094"/>
      </g>
     </g>
    </g>
    <g id="ytick_6">
     <g id="line2d_56">
      <path d="M 53.328125 124.514688 
L 667.128125 124.514688 
" clip-path="url(#p9e689bbd0d)" style="fill: none; stroke: #b0b0b0; stroke-opacity: 0.4; stroke-width: 0.8; stroke-linecap: square"/>
     </g>
     <g id="line2d_57">
      <g>
       <use xlink:href="#mba5cc45872" x="53.328125" y="124.514688" style="stroke: #000000; stroke-width: 0.8"/>
      </g>
     </g>
     <g id="text_36">
      <!-- 1000 -->
      <g transform="translate(20.878125 128.313906) scale(0.1 -0.1)">
       <use xlink:href="#DejaVuSans-31"/>
       <use xlink:href="#DejaVuSans-30" x="63.623047"/>
       <use xlink:href="#DejaVuSans-30" x="127.246094"/>
       <use xlink:href="#DejaVuSans-30" x="190.869141"/>
      </g>
     </g>
    </g>
    <g id="ytick_7">
     <g id="line2d_58">
      <path d="M 53.328125 50.594688 
L 667.128125 50.594688 
" clip-path="url(#p9e689bbd0d)" style="fill: none; stroke: #b0b0b0; stroke-opacity: 0.4; stroke-width: 0.8; stroke-linecap: square"/>
     </g>
     <g id="line2d_59">
      <g>
       <use xlink:href="#mba5cc45872" x="53.328125" y="50.594688" style="stroke: #000000; stroke-width: 0.8"/>
      </g>
     </g>
     <g id="text_37">
      <!-- 1200 -->
      <g transform="translate(20.878125 54.393906) scale(0.1 -0.1)">
       <use xlink:href="#DejaVuSans-31"/>
       <use xlink:href="#DejaVuSans-32" x="63.623047"/>
       <use xlink:href="#DejaVuSans-30" x="127.246094"/>
       <use xlink:href="#DejaVuSans-30" x="190.869141"/>
      </g>
     </g>
    </g>
    <g id="text_38">
     <!-- Inverse throughput (ns) -->
     <g transform="translate(14.798438 331.570313) rotate(-90) scale(0.1 -0.1)">
      <defs>
       <path id="DejaVuSans-76" d="M 191 3500 
L 800 3500 
L 1894 563 
L 2988 3500 
L 3597 3500 
L 2284 0 
L 1503 0 
L 191 3500 
z
" transform="scale(0.015625)"/>
       <path id="DejaVuSans-6f" d="M 1959 3097 
Q 1497 3097 1228 2736 
Q 959 2375 959 1747 
Q 959 1119 1226 758 
Q 1494 397 1959 397 
Q 2419 397 2687 759 
Q 2956 1122 2956 1747 
Q 2956 2369 2687 2733 
Q 2419 3097 1959 3097 
z
M 1959 3584 
Q 2709 3584 3137 3096 
Q 3566 2609 3566 1747 
Q 3566 888 3137 398 
Q 2709 -91 1959 -91 
Q 1206 -91 779 398 
Q 353 888 353 1747 
Q 353 2609 779 3096 
Q 1206 3584 1959 3584 
z
" transform="scale(0.015625)"/>
      </defs>
      <use xlink:href="#DejaVuSans-49"/>
      <use xlink:href="#DejaVuSans-6e" x="29.492188"/>
      <use xlink:href="#DejaVuSans-76" x="92.871094"/>
      <use xlink:href="#DejaVuSans-65" x="152.050781"/>
      <use xlink:href="#DejaVuSans-72" x="213.574219"/>
      <use xlink:href="#DejaVuSans-73" x="254.6875"/>
      <use xlink:href="#DejaVuSans-65" x="306.787109"/>
      <use xlink:href="#DejaVuSans-20" x="368.310547"/>
      <use xlink:href="#DejaVuSans-74" x="400.097656"/>
      <use xlink:href="#DejaVuSans-68" x="439.306641"/>
      <use xlink:href="#DejaVuSans-72" x="502.685547"/>
      <use xlink:href="#DejaVuSans-6f" x="541.548828"/>
      <use xlink:href="#DejaVuSans-75" x="602.730469"/>
      <use xlink:href="#DejaVuSans-67" x="666.109375"/>
      <use xlink:href="#DejaVuSans-68" x="729.585938"/>
      <use xlink:href="#DejaVuSans-70" x="792.964844"/>
      <use xlink:href="#DejaVuSans-75" x="856.441406"/>
      <use xlink:href="#DejaVuSans-74" x="919.820312"/>
      <use xlink:href="#DejaVuSans-20" x="959.029297"/>
      <use xlink:href="#DejaVuSans-28" x="990.816406"/>
      <use xlink:href="#DejaVuSans-6e" x="1029.830078"/>
      <use xlink:href="#DejaVuSans-73" x="1093.208984"/>
      <use xlink:href="#DejaVuSans-29" x="1145.308594"/>
     </g>
    </g>
   </g>
   <g id="line2d_60">
    <path d="M 81.228125 490.511768 
L 86.080361 490.578706 
L 91.589433 490.484041 
L 96.294102 490.559511 
L 101.813902 489.453545 
L 106.922559 489.494378 
L 112.012004 489.453981 
L 116.989144 489.461466 
L 122.048545 489.397626 
L 127.060875 488.651393 
L 132.12833 488.648606 
L 137.285345 488.610531 
L 142.394002 488.576631 
L 147.483446 487.346402 
L 152.556537 487.313521 
L 157.602039 487.375149 
L 162.672699 487.357022 
L 167.779648 486.034724 
L 172.807997 486.145049 
L 177.909165 486.133713 
L 182.992237 486.152403 
L 188.0599 486.075184 
L 193.128068 485.22739 
L 198.1908 485.271128 
L 203.271015 485.204417 
L 208.330568 485.228083 
L 213.409722 484.224292 
L 218.47612 484.192317 
L 223.541976 484.181816 
L 228.617685 484.136453 
L 233.685546 483.251689 
L 238.755734 483.303728 
L 243.824708 483.251017 
L 248.890864 483.237054 
L 253.964141 483.300004 
L 259.031133 482.117666 
L 264.101239 482.094136 
L 269.169928 482.080281 
L 274.240447 482.105245 
L 279.309384 481.009951 
L 284.38008 481.009881 
L 289.448013 480.936167 
L 294.51792 480.849068 
L 299.587814 480.752077 
L 304.656891 478.24773 
L 309.725892 478.304378 
L 314.795314 477.931456 
L 319.864443 477.523305 
L 324.933719 475.296767 
L 330.003127 474.949752 
L 335.072365 474.555542 
L 340.141836 473.90812 
L 345.211085 471.402994 
L 350.280398 471.456134 
L 355.349697 471.182881 
L 360.41896 470.826777 
L 365.488197 470.362785 
L 370.557471 468.159299 
L 375.62668 468.374469 
L 380.695945 468.059758 
L 385.765196 467.577816 
L 390.834468 465.338466 
L 395.903735 463.92095 
L 400.973 462.573499 
L 406.042273 461.153776 
L 411.111518 459.450891 
L 416.180799 457.067178 
L 421.250059 455.686957 
L 426.319312 454.293158 
L 431.388573 452.128349 
L 436.457826 449.658839 
L 441.527082 448.596262 
L 446.59634 446.398031 
L 451.665603 443.897963 
L 456.734862 441.823727 
L 461.804118 431.893696 
L 466.873376 420.317628 
L 471.942632 408.830125 
L 477.011889 399.017545 
L 482.081149 382.809948 
L 487.150407 372.014032 
L 492.219665 356.611134 
L 497.288923 351.862719 
L 502.358178 332.745611 
L 507.427436 325.106268 
L 512.496692 314.055109 
L 517.56595 307.532596 
L 522.635207 302.801315 
L 527.704464 274.852232 
L 532.773723 267.297261 
L 537.842981 259.107714 
L 542.912239 257.964612 
L 547.981498 233.563639 
L 553.050754 220.722978 
L 558.120011 212.306072 
L 563.189267 207.526768 
L 568.258524 208.807658 
L 573.327782 175.331719 
L 578.397039 168.423039 
L 583.466297 160.000666 
L 588.535556 159.646263 
L 593.604811 136.917662 
L 598.674067 129.167602 
L 603.743324 121.995492 
L 608.812582 117.507926 
L 613.881838 97.171807 
L 618.951095 89.213424 
L 624.020353 79.117944 
L 629.08961 75.060507 
L 634.158867 71.131262 
L 639.228125 45.369764 
" clip-path="url(#p9e689bbd0d)" style="fill: none; stroke: #8c564b; stroke-opacity: 0.3; stroke-width: 0.5; stroke-linecap: square"/>
   </g>
   <g id="line2d_61">
    <path d="M 81.228125 485.388879 
L 86.080361 485.398869 
L 91.589433 484.376068 
L 96.294102 483.847972 
L 101.813902 482.452683 
L 106.922559 481.956658 
L 112.012004 480.91302 
L 116.989144 479.878461 
L 122.048545 479.440222 
L 127.060875 478.114927 
L 132.12833 477.565611 
L 137.285345 476.319031 
L 142.394002 475.406837 
L 147.483446 474.506438 
L 152.556537 473.906429 
L 157.602039 473.268483 
L 162.672699 472.120218 
L 167.779648 471.104098 
L 172.807997 470.57088 
L 177.909165 469.993919 
L 182.992237 469.154457 
L 188.0599 468.099861 
L 193.128068 467.481139 
L 198.1908 466.882434 
L 203.271015 466.050132 
L 208.330568 465.015464 
L 213.409722 464.174798 
L 218.47612 463.240008 
L 223.541976 462.333294 
L 228.617685 461.089703 
L 233.685546 459.576969 
L 238.755734 458.60677 
L 243.824708 457.62479 
L 248.890864 456.287141 
L 253.964141 454.69904 
L 259.031133 453.985967 
L 264.101239 453.209762 
L 269.169928 452.342105 
L 274.240447 451.447871 
L 279.309384 450.469908 
L 284.38008 449.661543 
L 289.448013 449.000546 
L 294.51792 448.371986 
L 299.587814 447.364408 
L 304.656891 445.944617 
L 309.725892 445.220417 
L 314.795314 443.91406 
L 319.864443 442.831998 
L 324.933719 441.652814 
L 330.003127 440.198824 
L 335.072365 439.030665 
L 340.141836 437.617459 
L 345.211085 435.907498 
L 350.280398 435.654034 
L 355.349697 434.472729 
L 360.41896 433.190432 
L 365.488197 431.420486 
L 370.557471 429.731977 
L 375.62668 429.206259 
L 380.695945 427.945496 
L 385.765196 426.012392 
L 390.834468 424.245864 
L 395.903735 421.869973 
L 400.973 419.630365 
L 406.042273 416.425221 
L 411.111518 413.55511 
L 416.180799 411.581372 
L 421.250059 409.369224 
L 426.319312 407.054938 
L 431.388573 403.518403 
L 436.457826 402.06154 
L 441.527082 400.4201 
L 446.59634 397.207272 
L 451.665603 394.33879 
L 456.734862 392.086034 
L 461.804118 384.284284 
L 466.873376 376.157447 
L 471.942632 368.672189 
L 477.011889 359.918919 
L 482.081149 352.833731 
L 487.150407 345.006894 
L 492.219665 328.320078 
L 497.288923 329.930144 
L 502.358178 322.998678 
L 507.427436 317.057635 
L 512.496692 310.240922 
L 517.56595 304.552056 
L 522.635207 297.307549 
L 527.704464 290.886866 
L 532.773723 285.43466 
L 537.842981 277.576414 
L 542.912239 273.498722 
L 547.981498 267.808672 
L 553.050754 261.238258 
L 558.120011 254.473079 
L 563.189267 250.986358 
L 568.258524 245.179452 
L 573.327782 237.336794 
L 578.397039 233.228537 
L 583.466297 223.271082 
L 588.535556 220.897055 
L 593.604811 216.202119 
L 598.674067 210.435081 
L 603.743324 204.42136 
L 608.812582 199.271848 
L 613.881838 194.207714 
L 618.951095 187.026314 
L 624.020353 181.572407 
L 629.08961 176.389533 
L 634.158867 167.964864 
L 639.228125 164.728047 
" clip-path="url(#p9e689bbd0d)" style="fill: none; stroke: #2ca02c; stroke-opacity: 0.3; stroke-width: 0.5; stroke-linecap: square"/>
   </g>
   <g id="line2d_62">
    <path d="M 81.228125 491.59655 
L 86.080361 491.580665 
L 91.589433 491.556883 
L 96.294102 491.590438 
L 101.813902 490.879359 
L 106.922559 490.850433 
L 112.012004 490.869318 
L 116.989144 490.883676 
L 122.048545 490.780528 
L 127.060875 489.829901 
L 132.12833 489.908576 
L 137.285345 489.806321 
L 142.394002 489.797478 
L 147.483446 489.113321 
L 152.556537 489.081593 
L 157.602039 489.129491 
L 162.672699 489.097731 
L 167.779648 488.401452 
L 172.807997 488.417825 
L 177.909165 488.423145 
L 182.992237 488.426412 
L 188.0599 488.387665 
L 193.128068 487.126196 
L 198.1908 487.215034 
L 203.271015 487.120792 
L 208.330568 487.18974 
L 213.409722 486.02919 
L 218.47612 486.009718 
L 223.541976 486.034191 
L 228.617685 485.968352 
L 233.685546 485.255078 
L 238.755734 485.290416 
L 243.824708 485.275967 
L 248.890864 485.315131 
L 253.964141 485.280147 
L 259.031133 484.514793 
L 264.101239 484.447472 
L 269.169928 484.489104 
L 274.240447 484.493867 
L 279.309384 483.580759 
L 284.38008 483.591587 
L 289.448013 483.589569 
L 294.51792 483.508705 
L 299.587814 483.348339 
L 304.656891 481.937656 
L 309.725892 482.020226 
L 314.795314 481.776958 
L 319.864443 481.330608 
L 324.933719 479.843535 
L 330.003127 479.513507 
L 335.072365 479.199885 
L 340.141836 478.594146 
L 345.211085 476.431895 
L 350.280398 476.61091 
L 355.349697 476.250739 
L 360.41896 475.854391 
L 365.488197 475.569325 
L 370.557471 472.874724 
L 375.62668 473.117128 
L 380.695945 472.86277 
L 385.765196 472.228997 
L 390.834468 469.833085 
L 395.903735 468.255542 
L 400.973 466.922674 
L 406.042273 465.226533 
L 411.111518 463.605701 
L 416.180799 460.660897 
L 421.250059 459.289806 
L 426.319312 458.049528 
L 431.388573 456.006913 
L 436.457826 454.083897 
L 441.527082 452.555918 
L 446.59634 450.587916 
L 451.665603 448.513989 
L 456.734862 445.587909 
L 461.804118 434.905402 
L 466.873376 427.400262 
L 471.942632 418.347798 
L 477.011889 410.506524 
L 482.081149 400.590068 
L 487.150407 392.843872 
L 492.219665 374.291092 
L 497.288923 377.070131 
L 502.358178 369.553892 
L 507.427436 363.923643 
L 512.496692 355.862674 
L 517.56595 350.323082 
L 522.635207 345.53054 
L 527.704464 330.078548 
L 532.773723 326.58358 
L 537.842981 318.752294 
L 542.912239 316.528978 
L 547.981498 298.461697 
L 553.050754 294.556004 
L 558.120011 292.116196 
L 563.189267 287.072704 
L 568.258524 286.517113 
L 573.327782 256.526648 
L 578.397039 255.749188 
L 583.466297 249.764726 
L 588.535556 251.279576 
L 593.604811 220.763462 
L 598.674067 212.830542 
L 603.743324 209.966009 
L 608.812582 211.09555 
L 613.881838 177.870199 
L 618.951095 170.368121 
L 624.020353 169.234963 
L 629.08961 167.650192 
L 634.158867 170.178183 
L 639.228125 127.007885 
" clip-path="url(#p9e689bbd0d)" style="fill: none; stroke: #d62728; stroke-opacity: 0.3; stroke-width: 0.5; stroke-linecap: square"/>
   </g>
   <g id="line2d_63">
    <path d="M 81.228125 490.903973 
L 86.080361 490.906768 
L 91.589433 490.913063 
L 96.294102 490.907478 
L 101.813902 490.000757 
L 106.922559 490.010751 
L 112.012004 490.00139 
L 116.989144 490.009718 
L 122.048545 489.9928 
L 127.060875 489.149356 
L 132.12833 489.14647 
L 137.285345 489.111974 
L 142.394002 489.155699 
L 147.483446 487.890184 
L 152.556537 487.914611 
L 157.602039 487.887547 
L 162.672699 487.88737 
L 167.779648 486.992893 
L 172.807997 487.000081 
L 177.909165 486.999115 
L 182.992237 486.994562 
L 188.0599 486.991901 
L 193.128068 485.991171 
L 198.1908 485.965211 
L 203.271015 485.9868 
L 208.330568 485.999425 
L 213.409722 485.057909 
L 218.47612 485.06333 
L 223.541976 485.073035 
L 228.617685 485.059225 
L 233.685546 484.154967 
L 238.755734 484.151002 
L 243.824708 484.149866 
L 248.890864 484.15232 
L 253.964141 484.155494 
L 259.031133 482.833592 
L 264.101239 482.859306 
L 269.169928 482.826327 
L 274.240447 482.828553 
L 279.309384 481.186787 
L 284.38008 481.201278 
L 289.448013 481.184424 
L 294.51792 481.15163 
L 299.587814 481.055351 
L 304.656891 478.92721 
L 309.725892 478.922372 
L 314.795314 478.800229 
L 319.864443 478.575555 
L 324.933719 476.789589 
L 330.003127 476.614978 
L 335.072365 476.352291 
L 340.141836 475.798975 
L 345.211085 474.35432 
L 350.280398 474.387631 
L 355.349697 474.209732 
L 360.41896 473.791736 
L 365.488197 473.595615 
L 370.557471 471.848943 
L 375.62668 471.981006 
L 380.695945 471.741827 
L 385.765196 471.275887 
L 390.834468 469.295679 
L 395.903735 468.474575 
L 400.973 467.854626 
L 406.042273 466.506077 
L 411.111518 465.95242 
L 416.180799 463.972345 
L 421.250059 463.507325 
L 426.319312 462.65808 
L 431.388573 461.611903 
L 436.457826 459.076266 
L 441.527082 459.315164 
L 446.59634 457.873615 
L 451.665603 456.216556 
L 456.734862 455.09632 
L 461.804118 445.19101 
L 466.873376 438.765285 
L 471.942632 431.808716 
L 477.011889 426.236256 
L 482.081149 414.939109 
L 487.150407 409.230733 
L 492.219665 399.179988 
L 497.288923 397.233601 
L 502.358178 386.038633 
L 507.427436 383.246877 
L 512.496692 379.74559 
L 517.56595 373.177175 
L 522.635207 367.860543 
L 527.704464 357.636556 
L 532.773723 354.769907 
L 537.842981 346.485144 
L 542.912239 345.72883 
L 547.981498 333.983872 
L 553.050754 330.30003 
L 558.120011 325.404893 
L 563.189267 324.077375 
L 568.258524 320.552955 
L 573.327782 309.130136 
L 578.397039 307.473179 
L 583.466297 298.829083 
L 588.535556 298.031736 
L 593.604811 290.930978 
L 598.674067 287.405743 
L 603.743324 280.79126 
L 608.812582 280.055461 
L 613.881838 266.419465 
L 618.951095 263.604794 
L 624.020353 263.660494 
L 629.08961 259.378349 
L 634.158867 252.252039 
L 639.228125 242.581126 
" clip-path="url(#p9e689bbd0d)" style="fill: none; stroke: #9467bd; stroke-width: 2; stroke-linecap: square"/>
   </g>
   <g id="line2d_64">
    <path d="M 81.228125 491.249558 
L 86.080361 491.252144 
L 91.589433 491.249616 
L 96.294102 491.252462 
L 101.813902 490.745676 
L 106.922559 490.749377 
L 112.012004 490.756383 
L 116.989144 490.754936 
L 122.048545 490.742933 
L 127.060875 490.255141 
L 132.12833 490.256625 
L 137.285345 490.253135 
L 142.394002 490.255818 
L 147.483446 489.751818 
L 152.556537 489.72263 
L 157.602039 489.742022 
L 162.672699 489.753913 
L 167.779648 489.262086 
L 172.807997 489.255314 
L 177.909165 489.258349 
L 182.992237 489.234683 
L 188.0599 489.2599 
L 193.128068 488.759668 
L 198.1908 488.75335 
L 203.271015 488.759746 
L 208.330568 488.760635 
L 213.409722 488.259711 
L 218.47612 488.260965 
L 223.541976 488.261594 
L 228.617685 488.258804 
L 233.685546 487.756491 
L 238.755734 487.760733 
L 243.824708 487.763673 
L 248.890864 487.755903 
L 253.964141 487.757942 
L 259.031133 487.26217 
L 264.101239 487.260919 
L 269.169928 487.255926 
L 274.240447 487.255142 
L 279.309384 486.760377 
L 284.38008 486.759253 
L 289.448013 486.759001 
L 294.51792 486.727437 
L 299.587814 486.730619 
L 304.656891 486.145097 
L 309.725892 486.154666 
L 314.795314 486.116783 
L 319.864443 486.004047 
L 324.933719 485.372157 
L 330.003127 485.20264 
L 335.072365 485.082812 
L 340.141836 484.810206 
L 345.211085 483.95752 
L 350.280398 484.177439 
L 355.349697 484.0852 
L 360.41896 483.920808 
L 365.488197 483.752467 
L 370.557471 482.929434 
L 375.62668 483.125747 
L 380.695945 483.008514 
L 385.765196 482.527193 
L 390.834468 481.66554 
L 395.903735 481.280349 
L 400.973 480.956333 
L 406.042273 480.697087 
L 411.111518 480.486507 
L 416.180799 479.610102 
L 421.250059 479.42746 
L 426.319312 479.353585 
L 431.388573 478.943173 
L 436.457826 478.351554 
L 441.527082 478.303749 
L 446.59634 477.889874 
L 451.665603 477.29054 
L 456.734862 475.775392 
L 461.804118 471.356816 
L 466.873376 469.035166 
L 471.942632 467.928382 
L 477.011889 466.860914 
L 482.081149 465.026074 
L 487.150407 463.850961 
L 492.219665 459.92337 
L 497.288923 462.578596 
L 502.358178 461.239281 
L 507.427436 460.03464 
L 512.496692 459.20565 
L 517.56595 458.281697 
L 522.635207 457.677902 
L 527.704464 456.178559 
L 532.773723 455.444245 
L 537.842981 454.468814 
L 542.912239 454.52329 
L 547.981498 452.319217 
L 553.050754 451.792391 
L 558.120011 450.749037 
L 563.189267 450.832538 
L 568.258524 449.980201 
L 573.327782 448.343611 
L 578.397039 448.069235 
L 583.466297 446.183236 
L 588.535556 446.497912 
L 593.604811 445.479033 
L 598.674067 444.764879 
L 603.743324 444.062948 
L 608.812582 443.680909 
L 613.881838 442.497698 
L 618.951095 440.776127 
L 624.020353 440.856972 
L 629.08961 440.217006 
L 634.158867 438.409229 
L 639.228125 438.032678 
" clip-path="url(#p9e689bbd0d)" style="fill: none; stroke: #17becf; stroke-width: 1.5; stroke-linecap: square"/>
   </g>
   <g id="line2d_65"/>
   <g id="line2d_66"/>
   <g id="line2d_67"/>
   <g id="line2d_68"/>
   <g id="line2d_69"/>
   <g id="line2d_70"/>
   <g id="line2d_71"/>
   <g id="line2d_72"/>
   <g id="patch_5">
    <path d="M 53.328125 494.114688 
L 53.328125 50.594688 
" style="fill: none; stroke: #000000; stroke-width: 0.8; stroke-linejoin: miter; stroke-linecap: square"/>
   </g>
   <g id="patch_6">
    <path d="M 667.128125 494.114688 
L 667.128125 50.594688 
" style="fill: none; stroke: #000000; stroke-width: 0.8; stroke-linejoin: miter; stroke-linecap: square"/>
   </g>
   <g id="patch_7">
    <path d="M 53.328125 494.114688 
L 667.128125 494.114688 
" style="fill: none; stroke: #000000; stroke-width: 0.8; stroke-linejoin: miter; stroke-linecap: square"/>
   </g>
   <g id="patch_8">
    <path d="M 53.328125 50.594688 
L 667.128125 50.594688 
" style="fill: none; stroke: #000000; stroke-width: 0.8; stroke-linejoin: miter; stroke-linecap: square"/>
   </g>
   <g id="text_39">
    <!-- L1  -->
    <g style="fill: #ff0000" transform="translate(285.227947 492.035) scale(0.1 -0.1)">
     <defs>
      <path id="DejaVuSans-4c" d="M 628 4666 
L 1259 4666 
L 1259 531 
L 3531 531 
L 3531 0 
L 628 0 
L 628 4666 
z
" transform="scale(0.015625)"/>
     </defs>
     <use xlink:href="#DejaVuSans-4c"/>
     <use xlink:href="#DejaVuSans-31" x="55.712891"/>
     <use xlink:href="#DejaVuSans-20" x="119.335938"/>
    </g>
   </g>
   <g id="text_40">
    <!-- L2  -->
    <g style="fill: #ff0000" transform="translate(374.747901 492.035) scale(0.1 -0.1)">
     <use xlink:href="#DejaVuSans-4c"/>
     <use xlink:href="#DejaVuSans-32" x="55.712891"/>
     <use xlink:href="#DejaVuSans-20" x="119.335938"/>
    </g>
   </g>
   <g id="text_41">
    <!-- L3  -->
    <g style="fill: #ff0000" transform="translate(441.887867 492.035) scale(0.1 -0.1)">
     <use xlink:href="#DejaVuSans-4c"/>
     <use xlink:href="#DejaVuSans-33" x="55.712891"/>
     <use xlink:href="#DejaVuSans-20" x="119.335938"/>
    </g>
   </g>
   <g id="text_42">
    <!-- RAM -->
    <g style="fill: #ff0000" transform="translate(617.210938 492.035) scale(0.1 -0.1)">
     <defs>
      <path id="DejaVuSans-52" d="M 2841 2188 
Q 3044 2119 3236 1894 
Q 3428 1669 3622 1275 
L 4263 0 
L 3584 0 
L 2988 1197 
Q 2756 1666 2539 1819 
Q 2322 1972 1947 1972 
L 1259 1972 
L 1259 0 
L 628 0 
L 628 4666 
L 2053 4666 
Q 2853 4666 3247 4331 
Q 3641 3997 3641 3322 
Q 3641 2881 3436 2590 
Q 3231 2300 2841 2188 
z
M 1259 4147 
L 1259 2491 
L 2053 2491 
Q 2509 2491 2742 2702 
Q 2975 2913 2975 3322 
Q 2975 3731 2742 3939 
Q 2509 4147 2053 4147 
L 1259 4147 
z
" transform="scale(0.015625)"/>
      <path id="DejaVuSans-4d" d="M 628 4666 
L 1569 4666 
L 2759 1491 
L 3956 4666 
L 4897 4666 
L 4897 0 
L 4281 0 
L 4281 4097 
L 3078 897 
L 2444 897 
L 1241 4097 
L 1241 0 
L 628 0 
L 628 4666 
z
" transform="scale(0.015625)"/>
     </defs>
     <use xlink:href="#DejaVuSans-52"/>
     <use xlink:href="#DejaVuSans-41" x="65.482422"/>
     <use xlink:href="#DejaVuSans-4d" x="133.890625"/>
    </g>
   </g>
   <g id="text_43">
    <!-- Branchless binary search with batching -->
    <g transform="translate(241.979375 16.318125) scale(0.12 -0.12)">
     <defs>
      <path id="DejaVuSans-42" d="M 1259 2228 
L 1259 519 
L 2272 519 
Q 2781 519 3026 730 
Q 3272 941 3272 1375 
Q 3272 1813 3026 2020 
Q 2781 2228 2272 2228 
L 1259 2228 
z
M 1259 4147 
L 1259 2741 
L 2194 2741 
Q 2656 2741 2882 2914 
Q 3109 3088 3109 3444 
Q 3109 3797 2882 3972 
Q 2656 4147 2194 4147 
L 1259 4147 
z
M 628 4666 
L 2241 4666 
Q 2963 4666 3353 4366 
Q 3744 4066 3744 3513 
Q 3744 3084 3544 2831 
Q 3344 2578 2956 2516 
Q 3422 2416 3680 2098 
Q 3938 1781 3938 1306 
Q 3938 681 3513 340 
Q 3088 0 2303 0 
L 628 0 
L 628 4666 
z
" transform="scale(0.015625)"/>
      <path id="DejaVuSans-63" d="M 3122 3366 
L 3122 2828 
Q 2878 2963 2633 3030 
Q 2388 3097 2138 3097 
Q 1578 3097 1268 2742 
Q 959 2388 959 1747 
Q 959 1106 1268 751 
Q 1578 397 2138 397 
Q 2388 397 2633 464 
Q 2878 531 3122 666 
L 3122 134 
Q 2881 22 2623 -34 
Q 2366 -91 2075 -91 
Q 1284 -91 818 406 
Q 353 903 353 1747 
Q 353 2603 823 3093 
Q 1294 3584 2113 3584 
Q 2378 3584 2631 3529 
Q 2884 3475 3122 3366 
z
" transform="scale(0.015625)"/>
      <path id="DejaVuSans-77" d="M 269 3500 
L 844 3500 
L 1563 769 
L 2278 3500 
L 2956 3500 
L 3675 769 
L 4391 3500 
L 4966 3500 
L 4050 0 
L 3372 0 
L 2619 2869 
L 1863 0 
L 1184 0 
L 269 3500 
z
" transform="scale(0.015625)"/>
     </defs>
     <use xlink:href="#DejaVuSans-42"/>
     <use xlink:href="#DejaVuSans-72" x="68.603516"/>
     <use xlink:href="#DejaVuSans-61" x="109.716797"/>
     <use xlink:href="#DejaVuSans-6e" x="170.996094"/>
     <use xlink:href="#DejaVuSans-63" x="234.375"/>
     <use xlink:href="#DejaVuSans-68" x="289.355469"/>
     <use xlink:href="#DejaVuSans-6c" x="352.734375"/>
     <use xlink:href="#DejaVuSans-65" x="380.517578"/>
     <use xlink:href="#DejaVuSans-73" x="442.041016"/>
     <use xlink:href="#DejaVuSans-73" x="494.140625"/>
     <use xlink:href="#DejaVuSans-20" x="546.240234"/>
     <use xlink:href="#DejaVuSans-62" x="578.027344"/>
     <use xlink:href="#DejaVuSans-69" x="641.503906"/>
     <use xlink:href="#DejaVuSans-6e" x="669.287109"/>
     <use xlink:href="#DejaVuSans-61" x="732.666016"/>
     <use xlink:href="#DejaVuSans-72" x="793.945312"/>
     <use xlink:href="#DejaVuSans-79" x="835.058594"/>
     <use xlink:href="#DejaVuSans-20" x="894.238281"/>
     <use xlink:href="#DejaVuSans-73" x="926.025391"/>
     <use xlink:href="#DejaVuSans-65" x="978.125"/>
     <use xlink:href="#DejaVuSans-61" x="1039.648438"/>
     <use xlink:href="#DejaVuSans-72" x="1100.927734"/>
     <use xlink:href="#DejaVuSans-63" x="1139.791016"/>
     <use xlink:href="#DejaVuSans-68" x="1194.771484"/>
     <use xlink:href="#DejaVuSans-20" x="1258.150391"/>
     <use xlink:href="#DejaVuSans-77" x="1289.9375"/>
     <use xlink:href="#DejaVuSans-69" x="1371.724609"/>
     <use xlink:href="#DejaVuSans-74" x="1399.507812"/>
     <use xlink:href="#DejaVuSans-68" x="1438.716797"/>
     <use xlink:href="#DejaVuSans-20" x="1502.095703"/>
     <use xlink:href="#DejaVuSans-62" x="1533.882812"/>
     <use xlink:href="#DejaVuSans-61" x="1597.359375"/>
     <use xlink:href="#DejaVuSans-74" x="1658.638672"/>
     <use xlink:href="#DejaVuSans-63" x="1697.847656"/>
     <use xlink:href="#DejaVuSans-68" x="1752.828125"/>
     <use xlink:href="#DejaVuSans-69" x="1816.207031"/>
     <use xlink:href="#DejaVuSans-6e" x="1843.990234"/>
     <use xlink:href="#DejaVuSans-67" x="1907.369141"/>
    </g>
   </g>
   <g id="legend_1">
    <g id="patch_9">
     <path d="M 60.328125 133.375938 
L 502.251563 133.375938 
Q 504.251563 133.375938 504.251563 131.375938 
L 504.251563 57.594688 
Q 504.251563 55.594688 502.251563 55.594688 
L 60.328125 55.594688 
Q 58.328125 55.594688 58.328125 57.594688 
L 58.328125 131.375938 
Q 58.328125 133.375938 60.328125 133.375938 
L 60.328125 133.375938 
z
" style="fill: none; opacity: 0"/>
    </g>
    <g id="line2d_73">
     <path d="M 62.328125 63.693125 
L 72.328125 63.693125 
L 82.328125 63.693125 
" style="fill: none; stroke: #8c564b; stroke-opacity: 0.3; stroke-width: 1.5; stroke-linecap: square"/>
    </g>
    <g id="text_44">
     <!-- SortedVec::binary_search_std -->
     <g transform="translate(90.328125 67.193125) scale(0.1 -0.1)">
      <defs>
       <path id="DejaVuSans-53" d="M 3425 4513 
L 3425 3897 
Q 3066 4069 2747 4153 
Q 2428 4238 2131 4238 
Q 1616 4238 1336 4038 
Q 1056 3838 1056 3469 
Q 1056 3159 1242 3001 
Q 1428 2844 1947 2747 
L 2328 2669 
Q 3034 2534 3370 2195 
Q 3706 1856 3706 1288 
Q 3706 609 3251 259 
Q 2797 -91 1919 -91 
Q 1588 -91 1214 -16 
Q 841 59 441 206 
L 441 856 
Q 825 641 1194 531 
Q 1563 422 1919 422 
Q 2459 422 2753 634 
Q 3047 847 3047 1241 
Q 3047 1584 2836 1778 
Q 2625 1972 2144 2069 
L 1759 2144 
Q 1053 2284 737 2584 
Q 422 2884 422 3419 
Q 422 4038 858 4394 
Q 1294 4750 2059 4750 
Q 2388 4750 2728 4690 
Q 3069 4631 3425 4513 
z
" transform="scale(0.015625)"/>
       <path id="DejaVuSans-64" d="M 2906 2969 
L 2906 4863 
L 3481 4863 
L 3481 0 
L 2906 0 
L 2906 525 
Q 2725 213 2448 61 
Q 2172 -91 1784 -91 
Q 1150 -91 751 415 
Q 353 922 353 1747 
Q 353 2572 751 3078 
Q 1150 3584 1784 3584 
Q 2172 3584 2448 3432 
Q 2725 3281 2906 2969 
z
M 947 1747 
Q 947 1113 1208 752 
Q 1469 391 1925 391 
Q 2381 391 2643 752 
Q 2906 1113 2906 1747 
Q 2906 2381 2643 2742 
Q 2381 3103 1925 3103 
Q 1469 3103 1208 2742 
Q 947 2381 947 1747 
z
" transform="scale(0.015625)"/>
       <path id="DejaVuSans-56" d="M 1831 0 
L 50 4666 
L 709 4666 
L 2188 738 
L 3669 4666 
L 4325 4666 
L 2547 0 
L 1831 0 
z
" transform="scale(0.015625)"/>
       <path id="DejaVuSans-3a" d="M 750 794 
L 1409 794 
L 1409 0 
L 750 0 
L 750 794 
z
M 750 3309 
L 1409 3309 
L 1409 2516 
L 750 2516 
L 750 3309 
z
" transform="scale(0.015625)"/>
       <path id="DejaVuSans-5f" d="M 3263 -1063 
L 3263 -1509 
L -63 -1509 
L -63 -1063 
L 3263 -1063 
z
" transform="scale(0.015625)"/>
      </defs>
      <use xlink:href="#DejaVuSans-53"/>
      <use xlink:href="#DejaVuSans-6f" x="63.476562"/>
      <use xlink:href="#DejaVuSans-72" x="124.658203"/>
      <use xlink:href="#DejaVuSans-74" x="165.771484"/>
      <use xlink:href="#DejaVuSans-65" x="204.980469"/>
      <use xlink:href="#DejaVuSans-64" x="266.503906"/>
      <use xlink:href="#DejaVuSans-56" x="329.980469"/>
      <use xlink:href="#DejaVuSans-65" x="390.638672"/>
      <use xlink:href="#DejaVuSans-63" x="452.162109"/>
      <use xlink:href="#DejaVuSans-3a" x="507.142578"/>
      <use xlink:href="#DejaVuSans-3a" x="540.833984"/>
      <use xlink:href="#DejaVuSans-62" x="574.525391"/>
      <use xlink:href="#DejaVuSans-69" x="638.001953"/>
      <use xlink:href="#DejaVuSans-6e" x="665.785156"/>
      <use xlink:href="#DejaVuSans-61" x="729.164062"/>
      <use xlink:href="#DejaVuSans-72" x="790.443359"/>
      <use xlink:href="#DejaVuSans-79" x="831.556641"/>
      <use xlink:href="#DejaVuSans-5f" x="890.736328"/>
      <use xlink:href="#DejaVuSans-73" x="940.736328"/>
      <use xlink:href="#DejaVuSans-65" x="992.835938"/>
      <use xlink:href="#DejaVuSans-61" x="1054.359375"/>
      <use xlink:href="#DejaVuSans-72" x="1115.638672"/>
      <use xlink:href="#DejaVuSans-63" x="1154.501953"/>
      <use xlink:href="#DejaVuSans-68" x="1209.482422"/>
      <use xlink:href="#DejaVuSans-5f" x="1272.861328"/>
      <use xlink:href="#DejaVuSans-73" x="1322.861328"/>
      <use xlink:href="#DejaVuSans-74" x="1374.960938"/>
      <use xlink:href="#DejaVuSans-64" x="1414.169922"/>
     </g>
    </g>
    <g id="line2d_74">
     <path d="M 62.328125 78.649375 
L 72.328125 78.649375 
L 82.328125 78.649375 
" style="fill: none; stroke: #2ca02c; stroke-opacity: 0.3; stroke-width: 1.5; stroke-linecap: square"/>
    </g>
    <g id="text_45">
     <!-- SortedVec::binary_search -->
     <g transform="translate(90.328125 82.149375) scale(0.1 -0.1)">
      <use xlink:href="#DejaVuSans-53"/>
      <use xlink:href="#DejaVuSans-6f" x="63.476562"/>
      <use xlink:href="#DejaVuSans-72" x="124.658203"/>
      <use xlink:href="#DejaVuSans-74" x="165.771484"/>
      <use xlink:href="#DejaVuSans-65" x="204.980469"/>
      <use xlink:href="#DejaVuSans-64" x="266.503906"/>
      <use xlink:href="#DejaVuSans-56" x="329.980469"/>
      <use xlink:href="#DejaVuSans-65" x="390.638672"/>
      <use xlink:href="#DejaVuSans-63" x="452.162109"/>
      <use xlink:href="#DejaVuSans-3a" x="507.142578"/>
      <use xlink:href="#DejaVuSans-3a" x="540.833984"/>
      <use xlink:href="#DejaVuSans-62" x="574.525391"/>
      <use xlink:href="#DejaVuSans-69" x="638.001953"/>
      <use xlink:href="#DejaVuSans-6e" x="665.785156"/>
      <use xlink:href="#DejaVuSans-61" x="729.164062"/>
      <use xlink:href="#DejaVuSans-72" x="790.443359"/>
      <use xlink:href="#DejaVuSans-79" x="831.556641"/>
      <use xlink:href="#DejaVuSans-5f" x="890.736328"/>
      <use xlink:href="#DejaVuSans-73" x="940.736328"/>
      <use xlink:href="#DejaVuSans-65" x="992.835938"/>
      <use xlink:href="#DejaVuSans-61" x="1054.359375"/>
      <use xlink:href="#DejaVuSans-72" x="1115.638672"/>
      <use xlink:href="#DejaVuSans-63" x="1154.501953"/>
      <use xlink:href="#DejaVuSans-68" x="1209.482422"/>
     </g>
    </g>
    <g id="line2d_75">
     <path d="M 62.328125 93.605625 
L 72.328125 93.605625 
L 82.328125 93.605625 
" style="fill: none; stroke: #d62728; stroke-opacity: 0.3; stroke-width: 1.5; stroke-linecap: square"/>
    </g>
    <g id="text_46">
     <!-- SortedVec::binary_search_branchless -->
     <g transform="translate(90.328125 97.105625) scale(0.1 -0.1)">
      <use xlink:href="#DejaVuSans-53"/>
      <use xlink:href="#DejaVuSans-6f" x="63.476562"/>
      <use xlink:href="#DejaVuSans-72" x="124.658203"/>
      <use xlink:href="#DejaVuSans-74" x="165.771484"/>
      <use xlink:href="#DejaVuSans-65" x="204.980469"/>
      <use xlink:href="#DejaVuSans-64" x="266.503906"/>
      <use xlink:href="#DejaVuSans-56" x="329.980469"/>
      <use xlink:href="#DejaVuSans-65" x="390.638672"/>
      <use xlink:href="#DejaVuSans-63" x="452.162109"/>
      <use xlink:href="#DejaVuSans-3a" x="507.142578"/>
      <use xlink:href="#DejaVuSans-3a" x="540.833984"/>
      <use xlink:href="#DejaVuSans-62" x="574.525391"/>
      <use xlink:href="#DejaVuSans-69" x="638.001953"/>
      <use xlink:href="#DejaVuSans-6e" x="665.785156"/>
      <use xlink:href="#DejaVuSans-61" x="729.164062"/>
      <use xlink:href="#DejaVuSans-72" x="790.443359"/>
      <use xlink:href="#DejaVuSans-79" x="831.556641"/>
      <use xlink:href="#DejaVuSans-5f" x="890.736328"/>
      <use xlink:href="#DejaVuSans-73" x="940.736328"/>
      <use xlink:href="#DejaVuSans-65" x="992.835938"/>
      <use xlink:href="#DejaVuSans-61" x="1054.359375"/>
      <use xlink:href="#DejaVuSans-72" x="1115.638672"/>
      <use xlink:href="#DejaVuSans-63" x="1154.501953"/>
      <use xlink:href="#DejaVuSans-68" x="1209.482422"/>
      <use xlink:href="#DejaVuSans-5f" x="1272.861328"/>
      <use xlink:href="#DejaVuSans-62" x="1322.861328"/>
      <use xlink:href="#DejaVuSans-72" x="1386.337891"/>
      <use xlink:href="#DejaVuSans-61" x="1427.451172"/>
      <use xlink:href="#DejaVuSans-6e" x="1488.730469"/>
      <use xlink:href="#DejaVuSans-63" x="1552.109375"/>
      <use xlink:href="#DejaVuSans-68" x="1607.089844"/>
      <use xlink:href="#DejaVuSans-6c" x="1670.46875"/>
      <use xlink:href="#DejaVuSans-65" x="1698.251953"/>
      <use xlink:href="#DejaVuSans-73" x="1759.775391"/>
      <use xlink:href="#DejaVuSans-73" x="1811.875"/>
     </g>
    </g>
    <g id="line2d_76">
     <path d="M 62.328125 108.561875 
L 72.328125 108.561875 
L 82.328125 108.561875 
" style="fill: none; stroke: #9467bd; stroke-width: 1.5; stroke-linecap: square"/>
    </g>
    <g id="text_47">
     <!-- SortedVec::binary_search_branchless_prefetch -->
     <g transform="translate(90.328125 112.061875) scale(0.1 -0.1)">
      <defs>
       <path id="DejaVuSans-66" d="M 2375 4863 
L 2375 4384 
L 1825 4384 
Q 1516 4384 1395 4259 
Q 1275 4134 1275 3809 
L 1275 3500 
L 2222 3500 
L 2222 3053 
L 1275 3053 
L 1275 0 
L 697 0 
L 697 3053 
L 147 3053 
L 147 3500 
L 697 3500 
L 697 3744 
Q 697 4328 969 4595 
Q 1241 4863 1831 4863 
L 2375 4863 
z
" transform="scale(0.015625)"/>
      </defs>
      <use xlink:href="#DejaVuSans-53"/>
      <use xlink:href="#DejaVuSans-6f" x="63.476562"/>
      <use xlink:href="#DejaVuSans-72" x="124.658203"/>
      <use xlink:href="#DejaVuSans-74" x="165.771484"/>
      <use xlink:href="#DejaVuSans-65" x="204.980469"/>
      <use xlink:href="#DejaVuSans-64" x="266.503906"/>
      <use xlink:href="#DejaVuSans-56" x="329.980469"/>
      <use xlink:href="#DejaVuSans-65" x="390.638672"/>
      <use xlink:href="#DejaVuSans-63" x="452.162109"/>
      <use xlink:href="#DejaVuSans-3a" x="507.142578"/>
      <use xlink:href="#DejaVuSans-3a" x="540.833984"/>
      <use xlink:href="#DejaVuSans-62" x="574.525391"/>
      <use xlink:href="#DejaVuSans-69" x="638.001953"/>
      <use xlink:href="#DejaVuSans-6e" x="665.785156"/>
      <use xlink:href="#DejaVuSans-61" x="729.164062"/>
      <use xlink:href="#DejaVuSans-72" x="790.443359"/>
      <use xlink:href="#DejaVuSans-79" x="831.556641"/>
      <use xlink:href="#DejaVuSans-5f" x="890.736328"/>
      <use xlink:href="#DejaVuSans-73" x="940.736328"/>
      <use xlink:href="#DejaVuSans-65" x="992.835938"/>
      <use xlink:href="#DejaVuSans-61" x="1054.359375"/>
      <use xlink:href="#DejaVuSans-72" x="1115.638672"/>
      <use xlink:href="#DejaVuSans-63" x="1154.501953"/>
      <use xlink:href="#DejaVuSans-68" x="1209.482422"/>
      <use xlink:href="#DejaVuSans-5f" x="1272.861328"/>
      <use xlink:href="#DejaVuSans-62" x="1322.861328"/>
      <use xlink:href="#DejaVuSans-72" x="1386.337891"/>
      <use xlink:href="#DejaVuSans-61" x="1427.451172"/>
      <use xlink:href="#DejaVuSans-6e" x="1488.730469"/>
      <use xlink:href="#DejaVuSans-63" x="1552.109375"/>
      <use xlink:href="#DejaVuSans-68" x="1607.089844"/>
      <use xlink:href="#DejaVuSans-6c" x="1670.46875"/>
      <use xlink:href="#DejaVuSans-65" x="1698.251953"/>
      <use xlink:href="#DejaVuSans-73" x="1759.775391"/>
      <use xlink:href="#DejaVuSans-73" x="1811.875"/>
      <use xlink:href="#DejaVuSans-5f" x="1863.974609"/>
      <use xlink:href="#DejaVuSans-70" x="1913.974609"/>
      <use xlink:href="#DejaVuSans-72" x="1977.451172"/>
      <use xlink:href="#DejaVuSans-65" x="2016.314453"/>
      <use xlink:href="#DejaVuSans-66" x="2077.837891"/>
      <use xlink:href="#DejaVuSans-65" x="2113.042969"/>
      <use xlink:href="#DejaVuSans-74" x="2174.566406"/>
      <use xlink:href="#DejaVuSans-63" x="2213.775391"/>
      <use xlink:href="#DejaVuSans-68" x="2268.755859"/>
     </g>
    </g>
    <g id="line2d_77">
     <path d="M 62.328125 123.518125 
L 72.328125 123.518125 
L 82.328125 123.518125 
" style="fill: none; stroke: #17becf; stroke-width: 1.5; stroke-linecap: square"/>
    </g>
    <g id="text_48">
     <!-- Batched&lt;16, SortedVec, SortedVec::batch_impl_binary_search_branchless&lt;16&gt;&gt; -->
     <g transform="translate(90.328125 127.018125) scale(0.1 -0.1)">
      <defs>
       <path id="DejaVuSans-3c" d="M 4684 3150 
L 1459 2003 
L 4684 863 
L 4684 294 
L 678 1747 
L 678 2266 
L 4684 3719 
L 4684 3150 
z
" transform="scale(0.015625)"/>
       <path id="DejaVuSans-2c" d="M 750 794 
L 1409 794 
L 1409 256 
L 897 -744 
L 494 -744 
L 750 256 
L 750 794 
z
" transform="scale(0.015625)"/>
       <path id="DejaVuSans-6d" d="M 3328 2828 
Q 3544 3216 3844 3400 
Q 4144 3584 4550 3584 
Q 5097 3584 5394 3201 
Q 5691 2819 5691 2113 
L 5691 0 
L 5113 0 
L 5113 2094 
Q 5113 2597 4934 2840 
Q 4756 3084 4391 3084 
Q 3944 3084 3684 2787 
Q 3425 2491 3425 1978 
L 3425 0 
L 2847 0 
L 2847 2094 
Q 2847 2600 2669 2842 
Q 2491 3084 2119 3084 
Q 1678 3084 1418 2786 
Q 1159 2488 1159 1978 
L 1159 0 
L 581 0 
L 581 3500 
L 1159 3500 
L 1159 2956 
Q 1356 3278 1631 3431 
Q 1906 3584 2284 3584 
Q 2666 3584 2933 3390 
Q 3200 3197 3328 2828 
z
" transform="scale(0.015625)"/>
       <path id="DejaVuSans-3e" d="M 678 3150 
L 678 3719 
L 4684 2266 
L 4684 1747 
L 678 294 
L 678 863 
L 3897 2003 
L 678 3150 
z
" transform="scale(0.015625)"/>
      </defs>
      <use xlink:href="#DejaVuSans-42"/>
      <use xlink:href="#DejaVuSans-61" x="68.603516"/>
      <use xlink:href="#DejaVuSans-74" x="129.882812"/>
      <use xlink:href="#DejaVuSans-63" x="169.091797"/>
      <use xlink:href="#DejaVuSans-68" x="224.072266"/>
      <use xlink:href="#DejaVuSans-65" x="287.451172"/>
      <use xlink:href="#DejaVuSans-64" x="348.974609"/>
      <use xlink:href="#DejaVuSans-3c" x="412.451172"/>
      <use xlink:href="#DejaVuSans-31" x="496.240234"/>
      <use xlink:href="#DejaVuSans-36" x="559.863281"/>
      <use xlink:href="#DejaVuSans-2c" x="623.486328"/>
      <use xlink:href="#DejaVuSans-20" x="655.273438"/>
      <use xlink:href="#DejaVuSans-53" x="687.060547"/>
      <use xlink:href="#DejaVuSans-6f" x="750.537109"/>
      <use xlink:href="#DejaVuSans-72" x="811.71875"/>
      <use xlink:href="#DejaVuSans-74" x="852.832031"/>
      <use xlink:href="#DejaVuSans-65" x="892.041016"/>
      <use xlink:href="#DejaVuSans-64" x="953.564453"/>
      <use xlink:href="#DejaVuSans-56" x="1017.041016"/>
      <use xlink:href="#DejaVuSans-65" x="1077.699219"/>
      <use xlink:href="#DejaVuSans-63" x="1139.222656"/>
      <use xlink:href="#DejaVuSans-2c" x="1194.203125"/>
      <use xlink:href="#DejaVuSans-20" x="1225.990234"/>
      <use xlink:href="#DejaVuSans-53" x="1257.777344"/>
      <use xlink:href="#DejaVuSans-6f" x="1321.253906"/>
      <use xlink:href="#DejaVuSans-72" x="1382.435547"/>
      <use xlink:href="#DejaVuSans-74" x="1423.548828"/>
      <use xlink:href="#DejaVuSans-65" x="1462.757812"/>
      <use xlink:href="#DejaVuSans-64" x="1524.28125"/>
      <use xlink:href="#DejaVuSans-56" x="1587.757812"/>
      <use xlink:href="#DejaVuSans-65" x="1648.416016"/>
      <use xlink:href="#DejaVuSans-63" x="1709.939453"/>
      <use xlink:href="#DejaVuSans-3a" x="1764.919922"/>
      <use xlink:href="#DejaVuSans-3a" x="1798.611328"/>
      <use xlink:href="#DejaVuSans-62" x="1832.302734"/>
      <use xlink:href="#DejaVuSans-61" x="1895.779297"/>
      <use xlink:href="#DejaVuSans-74" x="1957.058594"/>
      <use xlink:href="#DejaVuSans-63" x="1996.267578"/>
      <use xlink:href="#DejaVuSans-68" x="2051.248047"/>
      <use xlink:href="#DejaVuSans-5f" x="2114.626953"/>
      <use xlink:href="#DejaVuSans-69" x="2164.626953"/>
      <use xlink:href="#DejaVuSans-6d" x="2192.410156"/>
      <use xlink:href="#DejaVuSans-70" x="2289.822266"/>
      <use xlink:href="#DejaVuSans-6c" x="2353.298828"/>
      <use xlink:href="#DejaVuSans-5f" x="2381.082031"/>
      <use xlink:href="#DejaVuSans-62" x="2431.082031"/>
      <use xlink:href="#DejaVuSans-69" x="2494.558594"/>
      <use xlink:href="#DejaVuSans-6e" x="2522.341797"/>
      <use xlink:href="#DejaVuSans-61" x="2585.720703"/>
      <use xlink:href="#DejaVuSans-72" x="2647"/>
      <use xlink:href="#DejaVuSans-79" x="2688.113281"/>
      <use xlink:href="#DejaVuSans-5f" x="2747.292969"/>
      <use xlink:href="#DejaVuSans-73" x="2797.292969"/>
      <use xlink:href="#DejaVuSans-65" x="2849.392578"/>
      <use xlink:href="#DejaVuSans-61" x="2910.916016"/>
      <use xlink:href="#DejaVuSans-72" x="2972.195312"/>
      <use xlink:href="#DejaVuSans-63" x="3011.058594"/>
      <use xlink:href="#DejaVuSans-68" x="3066.039062"/>
      <use xlink:href="#DejaVuSans-5f" x="3129.417969"/>
      <use xlink:href="#DejaVuSans-62" x="3179.417969"/>
      <use xlink:href="#DejaVuSans-72" x="3242.894531"/>
      <use xlink:href="#DejaVuSans-61" x="3284.007812"/>
      <use xlink:href="#DejaVuSans-6e" x="3345.287109"/>
      <use xlink:href="#DejaVuSans-63" x="3408.666016"/>
      <use xlink:href="#DejaVuSans-68" x="3463.646484"/>
      <use xlink:href="#DejaVuSans-6c" x="3527.025391"/>
      <use xlink:href="#DejaVuSans-65" x="3554.808594"/>
      <use xlink:href="#DejaVuSans-73" x="3616.332031"/>
      <use xlink:href="#DejaVuSans-73" x="3668.431641"/>
      <use xlink:href="#DejaVuSans-3c" x="3720.53125"/>
      <use xlink:href="#DejaVuSans-31" x="3804.320312"/>
      <use xlink:href="#DejaVuSans-36" x="3867.943359"/>
      <use xlink:href="#DejaVuSans-3e" x="3931.566406"/>
      <use xlink:href="#DejaVuSans-3e" x="4015.355469"/>
     </g>
    </g>
   </g>
  </g>
 </g>
 <defs>
  <clipPath id="p9e689bbd0d">
   <rect x="53.328125" y="50.594688" width="613.8" height="443.52"/>
  </clipPath>
 </defs>
</svg>
