<?xml version="1.0" encoding="utf-8" standalone="no"?>
<!DOCTYPE svg PUBLIC "-//W3C//DTD SVG 1.1//EN"
  "http://www.w3.org/Graphics/SVG/1.1/DTD/svg11.dtd">
<svg xmlns:xlink="http://www.w3.org/1999/xlink" width="674.328125pt" height="531.670938pt" viewBox="0 0 674.328125 531.670938" xmlns="http://www.w3.org/2000/svg" version="1.1">
 <metadata>
  <rdf:RDF xmlns:dc="http://purl.org/dc/elements/1.1/" xmlns:cc="http://creativecommons.org/ns#" xmlns:rdf="http://www.w3.org/1999/02/22-rdf-syntax-ns#">
   <cc:Work>
    <dc:type rdf:resource="http://purl.org/dc/dcmitype/StillImage"/>
    <dc:date>2025-03-01T18:56:53.939126</dc:date>
    <dc:format>image/svg+xml</dc:format>
    <dc:creator>
     <cc:Agent>
      <dc:title>Matplotlib v3.9.2, https://matplotlib.org/</dc:title>
     </cc:Agent>
    </dc:creator>
   </cc:Work>
  </rdf:RDF>
 </metadata>
 <defs>
  <style type="text/css">*{stroke-linejoin: round; stroke-linecap: butt}</style>
 </defs>
 <g id="figure_1">
  <g id="patch_1">
   <path d="M 0 531.670938 
L 674.328125 531.670938 
L 674.328125 0 
L 0 0 
z
" style="fill: #ffffff"/>
  </g>
  <g id="axes_1">
   <g id="patch_2">
    <path d="M 53.328125 494.114688 
L 667.128125 494.114688 
L 667.128125 50.594688 
L 53.328125 50.594688 
z
" style="fill: #ffffff"/>
   </g>
   <g id="line2d_1">
    <path d="M 305.181204 494.114688 
L 305.181204 50.594688 
" clip-path="url(#pfe0b4a5b5b)" style="fill: none; stroke-dasharray: 5.55,2.4; stroke-dashoffset: 0; stroke: #ff0000; stroke-width: 1.5"/>
   </g>
   <g id="line2d_2">
    <path d="M 394.762435 494.114688 
L 394.762435 50.594688 
" clip-path="url(#pfe0b4a5b5b)" style="fill: none; stroke-dasharray: 5.55,2.4; stroke-dashoffset: 0; stroke: #ff0000; stroke-width: 1.5"/>
   </g>
   <g id="line2d_3">
    <path d="M 461.948359 494.114688 
L 461.948359 50.594688 
" clip-path="url(#pfe0b4a5b5b)" style="fill: none; stroke-dasharray: 5.55,2.4; stroke-dashoffset: 0; stroke: #ff0000; stroke-width: 1.5"/>
   </g>
   <g id="axes_2">
    <g id="patch_3">
     <path d="M 53.328125 50.594688 
L 667.128125 50.594688 
L 667.128125 50.594687 
L 53.328125 50.594687 
z
" style="fill: #ffffff"/>
    </g>
    <g id="matplotlib.axis_1">
     <g id="xtick_1">
      <g id="line2d_4">
       <defs>
        <path id="m89aebc2a7d" d="M 0 0 
L 0 -3.5 
" style="stroke: #000000; stroke-width: 0.8"/>
       </defs>
       <g>
        <use xlink:href="#m89aebc2a7d" x="58.832817" y="50.594687" style="stroke: #000000; stroke-width: 0.8"/>
       </g>
      </g>
      <g id="text_1">
       <!-- $\mathdefault{2^{2}}$ -->
       <g transform="translate(53.232817 41.515) scale(0.1 -0.1)">
        <defs>
         <path id="DejaVuSans-32" d="M 1228 531 
L 3431 531 
L 3431 0 
L 469 0 
L 469 531 
Q 828 903 1448 1529 
Q 2069 2156 2228 2338 
Q 2531 2678 2651 2914 
Q 2772 3150 2772 3378 
Q 2772 3750 2511 3984 
Q 2250 4219 1831 4219 
Q 1534 4219 1204 4116 
Q 875 4013 500 3803 
L 500 4441 
Q 881 4594 1212 4672 
Q 1544 4750 1819 4750 
Q 2544 4750 2975 4387 
Q 3406 4025 3406 3419 
Q 3406 3131 3298 2873 
Q 3191 2616 2906 2266 
Q 2828 2175 2409 1742 
Q 1991 1309 1228 531 
z
" transform="scale(0.015625)"/>
        </defs>
        <use xlink:href="#DejaVuSans-32" transform="translate(0 0.765625)"/>
        <use xlink:href="#DejaVuSans-32" transform="translate(64.580078 39.046875) scale(0.7)"/>
       </g>
      </g>
     </g>
     <g id="xtick_2">
      <g id="line2d_5">
       <g>
        <use xlink:href="#m89aebc2a7d" x="103.623433" y="50.594687" style="stroke: #000000; stroke-width: 0.8"/>
       </g>
      </g>
      <g id="text_2">
       <!-- $\mathdefault{2^{4}}$ -->
       <g transform="translate(98.023433 41.515) scale(0.1 -0.1)">
        <defs>
         <path id="DejaVuSans-34" d="M 2419 4116 
L 825 1625 
L 2419 1625 
L 2419 4116 
z
M 2253 4666 
L 3047 4666 
L 3047 1625 
L 3713 1625 
L 3713 1100 
L 3047 1100 
L 3047 0 
L 2419 0 
L 2419 1100 
L 313 1100 
L 313 1709 
L 2253 4666 
z
" transform="scale(0.015625)"/>
        </defs>
        <use xlink:href="#DejaVuSans-32" transform="translate(0 0.684375)"/>
        <use xlink:href="#DejaVuSans-34" transform="translate(64.580078 38.965625) scale(0.7)"/>
       </g>
      </g>
     </g>
     <g id="xtick_3">
      <g id="line2d_6">
       <g>
        <use xlink:href="#m89aebc2a7d" x="148.414049" y="50.594687" style="stroke: #000000; stroke-width: 0.8"/>
       </g>
      </g>
      <g id="text_3">
       <!-- $\mathdefault{2^{6}}$ -->
       <g transform="translate(142.814049 41.515) scale(0.1 -0.1)">
        <defs>
         <path id="DejaVuSans-36" d="M 2113 2584 
Q 1688 2584 1439 2293 
Q 1191 2003 1191 1497 
Q 1191 994 1439 701 
Q 1688 409 2113 409 
Q 2538 409 2786 701 
Q 3034 994 3034 1497 
Q 3034 2003 2786 2293 
Q 2538 2584 2113 2584 
z
M 3366 4563 
L 3366 3988 
Q 3128 4100 2886 4159 
Q 2644 4219 2406 4219 
Q 1781 4219 1451 3797 
Q 1122 3375 1075 2522 
Q 1259 2794 1537 2939 
Q 1816 3084 2150 3084 
Q 2853 3084 3261 2657 
Q 3669 2231 3669 1497 
Q 3669 778 3244 343 
Q 2819 -91 2113 -91 
Q 1303 -91 875 529 
Q 447 1150 447 2328 
Q 447 3434 972 4092 
Q 1497 4750 2381 4750 
Q 2619 4750 2861 4703 
Q 3103 4656 3366 4563 
z
" transform="scale(0.015625)"/>
        </defs>
        <use xlink:href="#DejaVuSans-32" transform="translate(0 0.765625)"/>
        <use xlink:href="#DejaVuSans-36" transform="translate(64.580078 39.046875) scale(0.7)"/>
       </g>
      </g>
     </g>
     <g id="xtick_4">
      <g id="line2d_7">
       <g>
        <use xlink:href="#m89aebc2a7d" x="193.204664" y="50.594687" style="stroke: #000000; stroke-width: 0.8"/>
       </g>
      </g>
      <g id="text_4">
       <!-- $\mathdefault{2^{8}}$ -->
       <g transform="translate(187.604664 41.515) scale(0.1 -0.1)">
        <defs>
         <path id="DejaVuSans-38" d="M 2034 2216 
Q 1584 2216 1326 1975 
Q 1069 1734 1069 1313 
Q 1069 891 1326 650 
Q 1584 409 2034 409 
Q 2484 409 2743 651 
Q 3003 894 3003 1313 
Q 3003 1734 2745 1975 
Q 2488 2216 2034 2216 
z
M 1403 2484 
Q 997 2584 770 2862 
Q 544 3141 544 3541 
Q 544 4100 942 4425 
Q 1341 4750 2034 4750 
Q 2731 4750 3128 4425 
Q 3525 4100 3525 3541 
Q 3525 3141 3298 2862 
Q 3072 2584 2669 2484 
Q 3125 2378 3379 2068 
Q 3634 1759 3634 1313 
Q 3634 634 3220 271 
Q 2806 -91 2034 -91 
Q 1263 -91 848 271 
Q 434 634 434 1313 
Q 434 1759 690 2068 
Q 947 2378 1403 2484 
z
M 1172 3481 
Q 1172 3119 1398 2916 
Q 1625 2713 2034 2713 
Q 2441 2713 2670 2916 
Q 2900 3119 2900 3481 
Q 2900 3844 2670 4047 
Q 2441 4250 2034 4250 
Q 1625 4250 1398 4047 
Q 1172 3844 1172 3481 
z
" transform="scale(0.015625)"/>
        </defs>
        <use xlink:href="#DejaVuSans-32" transform="translate(0 0.765625)"/>
        <use xlink:href="#DejaVuSans-38" transform="translate(64.580078 39.046875) scale(0.7)"/>
       </g>
      </g>
     </g>
     <g id="xtick_5">
      <g id="line2d_8">
       <g>
        <use xlink:href="#m89aebc2a7d" x="237.99528" y="50.594687" style="stroke: #000000; stroke-width: 0.8"/>
       </g>
      </g>
      <g id="text_5">
       <!-- $\mathdefault{2^{10}}$ -->
       <g transform="translate(230.14528 41.515) scale(0.1 -0.1)">
        <defs>
         <path id="DejaVuSans-31" d="M 794 531 
L 1825 531 
L 1825 4091 
L 703 3866 
L 703 4441 
L 1819 4666 
L 2450 4666 
L 2450 531 
L 3481 531 
L 3481 0 
L 794 0 
L 794 531 
z
" transform="scale(0.015625)"/>
         <path id="DejaVuSans-30" d="M 2034 4250 
Q 1547 4250 1301 3770 
Q 1056 3291 1056 2328 
Q 1056 1369 1301 889 
Q 1547 409 2034 409 
Q 2525 409 2770 889 
Q 3016 1369 3016 2328 
Q 3016 3291 2770 3770 
Q 2525 4250 2034 4250 
z
M 2034 4750 
Q 2819 4750 3233 4129 
Q 3647 3509 3647 2328 
Q 3647 1150 3233 529 
Q 2819 -91 2034 -91 
Q 1250 -91 836 529 
Q 422 1150 422 2328 
Q 422 3509 836 4129 
Q 1250 4750 2034 4750 
z
" transform="scale(0.015625)"/>
        </defs>
        <use xlink:href="#DejaVuSans-32" transform="translate(0 0.765625)"/>
        <use xlink:href="#DejaVuSans-31" transform="translate(64.580078 39.046875) scale(0.7)"/>
        <use xlink:href="#DejaVuSans-30" transform="translate(109.116211 39.046875) scale(0.7)"/>
       </g>
      </g>
     </g>
     <g id="xtick_6">
      <g id="line2d_9">
       <g>
        <use xlink:href="#m89aebc2a7d" x="282.785896" y="50.594687" style="stroke: #000000; stroke-width: 0.8"/>
       </g>
      </g>
      <g id="text_6">
       <!-- $\mathdefault{2^{12}}$ -->
       <g transform="translate(274.935896 41.515) scale(0.1 -0.1)">
        <use xlink:href="#DejaVuSans-32" transform="translate(0 0.765625)"/>
        <use xlink:href="#DejaVuSans-31" transform="translate(64.580078 39.046875) scale(0.7)"/>
        <use xlink:href="#DejaVuSans-32" transform="translate(109.116211 39.046875) scale(0.7)"/>
       </g>
      </g>
     </g>
     <g id="xtick_7">
      <g id="line2d_10">
       <g>
        <use xlink:href="#m89aebc2a7d" x="327.576512" y="50.594687" style="stroke: #000000; stroke-width: 0.8"/>
       </g>
      </g>
      <g id="text_7">
       <!-- $\mathdefault{2^{14}}$ -->
       <g transform="translate(319.726512 41.515) scale(0.1 -0.1)">
        <use xlink:href="#DejaVuSans-32" transform="translate(0 0.684375)"/>
        <use xlink:href="#DejaVuSans-31" transform="translate(64.580078 38.965625) scale(0.7)"/>
        <use xlink:href="#DejaVuSans-34" transform="translate(109.116211 38.965625) scale(0.7)"/>
       </g>
      </g>
     </g>
     <g id="xtick_8">
      <g id="line2d_11">
       <g>
        <use xlink:href="#m89aebc2a7d" x="372.367127" y="50.594687" style="stroke: #000000; stroke-width: 0.8"/>
       </g>
      </g>
      <g id="text_8">
       <!-- $\mathdefault{2^{16}}$ -->
       <g transform="translate(364.517127 41.515) scale(0.1 -0.1)">
        <use xlink:href="#DejaVuSans-32" transform="translate(0 0.765625)"/>
        <use xlink:href="#DejaVuSans-31" transform="translate(64.580078 39.046875) scale(0.7)"/>
        <use xlink:href="#DejaVuSans-36" transform="translate(109.116211 39.046875) scale(0.7)"/>
       </g>
      </g>
     </g>
     <g id="xtick_9">
      <g id="line2d_12">
       <g>
        <use xlink:href="#m89aebc2a7d" x="417.157743" y="50.594687" style="stroke: #000000; stroke-width: 0.8"/>
       </g>
      </g>
      <g id="text_9">
       <!-- $\mathdefault{2^{18}}$ -->
       <g transform="translate(409.307743 41.515) scale(0.1 -0.1)">
        <use xlink:href="#DejaVuSans-32" transform="translate(0 0.765625)"/>
        <use xlink:href="#DejaVuSans-31" transform="translate(64.580078 39.046875) scale(0.7)"/>
        <use xlink:href="#DejaVuSans-38" transform="translate(109.116211 39.046875) scale(0.7)"/>
       </g>
      </g>
     </g>
     <g id="xtick_10">
      <g id="line2d_13">
       <g>
        <use xlink:href="#m89aebc2a7d" x="461.948359" y="50.594687" style="stroke: #000000; stroke-width: 0.8"/>
       </g>
      </g>
      <g id="text_10">
       <!-- $\mathdefault{2^{20}}$ -->
       <g transform="translate(454.098359 41.515) scale(0.1 -0.1)">
        <use xlink:href="#DejaVuSans-32" transform="translate(0 0.765625)"/>
        <use xlink:href="#DejaVuSans-32" transform="translate(64.580078 39.046875) scale(0.7)"/>
        <use xlink:href="#DejaVuSans-30" transform="translate(109.116211 39.046875) scale(0.7)"/>
       </g>
      </g>
     </g>
     <g id="xtick_11">
      <g id="line2d_14">
       <g>
        <use xlink:href="#m89aebc2a7d" x="506.738974" y="50.594687" style="stroke: #000000; stroke-width: 0.8"/>
       </g>
      </g>
      <g id="text_11">
       <!-- $\mathdefault{2^{22}}$ -->
       <g transform="translate(498.888974 41.515) scale(0.1 -0.1)">
        <use xlink:href="#DejaVuSans-32" transform="translate(0 0.765625)"/>
        <use xlink:href="#DejaVuSans-32" transform="translate(64.580078 39.046875) scale(0.7)"/>
        <use xlink:href="#DejaVuSans-32" transform="translate(109.116211 39.046875) scale(0.7)"/>
       </g>
      </g>
     </g>
     <g id="xtick_12">
      <g id="line2d_15">
       <g>
        <use xlink:href="#m89aebc2a7d" x="551.52959" y="50.594687" style="stroke: #000000; stroke-width: 0.8"/>
       </g>
      </g>
      <g id="text_12">
       <!-- $\mathdefault{2^{24}}$ -->
       <g transform="translate(543.67959 41.515) scale(0.1 -0.1)">
        <use xlink:href="#DejaVuSans-32" transform="translate(0 0.765625)"/>
        <use xlink:href="#DejaVuSans-32" transform="translate(64.580078 39.046875) scale(0.7)"/>
        <use xlink:href="#DejaVuSans-34" transform="translate(109.116211 39.046875) scale(0.7)"/>
       </g>
      </g>
     </g>
     <g id="xtick_13">
      <g id="line2d_16">
       <g>
        <use xlink:href="#m89aebc2a7d" x="596.320206" y="50.594687" style="stroke: #000000; stroke-width: 0.8"/>
       </g>
      </g>
      <g id="text_13">
       <!-- $\mathdefault{2^{26}}$ -->
       <g transform="translate(588.470206 41.515) scale(0.1 -0.1)">
        <use xlink:href="#DejaVuSans-32" transform="translate(0 0.765625)"/>
        <use xlink:href="#DejaVuSans-32" transform="translate(64.580078 39.046875) scale(0.7)"/>
        <use xlink:href="#DejaVuSans-36" transform="translate(109.116211 39.046875) scale(0.7)"/>
       </g>
      </g>
     </g>
     <g id="xtick_14">
      <g id="line2d_17">
       <g>
        <use xlink:href="#m89aebc2a7d" x="641.110822" y="50.594687" style="stroke: #000000; stroke-width: 0.8"/>
       </g>
      </g>
      <g id="text_14">
       <!-- $\mathdefault{2^{28}}$ -->
       <g transform="translate(633.260822 41.515) scale(0.1 -0.1)">
        <use xlink:href="#DejaVuSans-32" transform="translate(0 0.765625)"/>
        <use xlink:href="#DejaVuSans-32" transform="translate(64.580078 39.046875) scale(0.7)"/>
        <use xlink:href="#DejaVuSans-38" transform="translate(109.116211 39.046875) scale(0.7)"/>
       </g>
      </g>
     </g>
     <g id="text_15">
      <!-- Array length (u32) -->
      <g transform="translate(314.2125 29.916562) scale(0.1 -0.1)">
       <defs>
        <path id="DejaVuSans-41" d="M 2188 4044 
L 1331 1722 
L 3047 1722 
L 2188 4044 
z
M 1831 4666 
L 2547 4666 
L 4325 0 
L 3669 0 
L 3244 1197 
L 1141 1197 
L 716 0 
L 50 0 
L 1831 4666 
z
" transform="scale(0.015625)"/>
        <path id="DejaVuSans-72" d="M 2631 2963 
Q 2534 3019 2420 3045 
Q 2306 3072 2169 3072 
Q 1681 3072 1420 2755 
Q 1159 2438 1159 1844 
L 1159 0 
L 581 0 
L 581 3500 
L 1159 3500 
L 1159 2956 
Q 1341 3275 1631 3429 
Q 1922 3584 2338 3584 
Q 2397 3584 2469 3576 
Q 2541 3569 2628 3553 
L 2631 2963 
z
" transform="scale(0.015625)"/>
        <path id="DejaVuSans-61" d="M 2194 1759 
Q 1497 1759 1228 1600 
Q 959 1441 959 1056 
Q 959 750 1161 570 
Q 1363 391 1709 391 
Q 2188 391 2477 730 
Q 2766 1069 2766 1631 
L 2766 1759 
L 2194 1759 
z
M 3341 1997 
L 3341 0 
L 2766 0 
L 2766 531 
Q 2569 213 2275 61 
Q 1981 -91 1556 -91 
Q 1019 -91 701 211 
Q 384 513 384 1019 
Q 384 1609 779 1909 
Q 1175 2209 1959 2209 
L 2766 2209 
L 2766 2266 
Q 2766 2663 2505 2880 
Q 2244 3097 1772 3097 
Q 1472 3097 1187 3025 
Q 903 2953 641 2809 
L 641 3341 
Q 956 3463 1253 3523 
Q 1550 3584 1831 3584 
Q 2591 3584 2966 3190 
Q 3341 2797 3341 1997 
z
" transform="scale(0.015625)"/>
        <path id="DejaVuSans-79" d="M 2059 -325 
Q 1816 -950 1584 -1140 
Q 1353 -1331 966 -1331 
L 506 -1331 
L 506 -850 
L 844 -850 
Q 1081 -850 1212 -737 
Q 1344 -625 1503 -206 
L 1606 56 
L 191 3500 
L 800 3500 
L 1894 763 
L 2988 3500 
L 3597 3500 
L 2059 -325 
z
" transform="scale(0.015625)"/>
        <path id="DejaVuSans-20" transform="scale(0.015625)"/>
        <path id="DejaVuSans-6c" d="M 603 4863 
L 1178 4863 
L 1178 0 
L 603 0 
L 603 4863 
z
" transform="scale(0.015625)"/>
        <path id="DejaVuSans-65" d="M 3597 1894 
L 3597 1613 
L 953 1613 
Q 991 1019 1311 708 
Q 1631 397 2203 397 
Q 2534 397 2845 478 
Q 3156 559 3463 722 
L 3463 178 
Q 3153 47 2828 -22 
Q 2503 -91 2169 -91 
Q 1331 -91 842 396 
Q 353 884 353 1716 
Q 353 2575 817 3079 
Q 1281 3584 2069 3584 
Q 2775 3584 3186 3129 
Q 3597 2675 3597 1894 
z
M 3022 2063 
Q 3016 2534 2758 2815 
Q 2500 3097 2075 3097 
Q 1594 3097 1305 2825 
Q 1016 2553 972 2059 
L 3022 2063 
z
" transform="scale(0.015625)"/>
        <path id="DejaVuSans-6e" d="M 3513 2113 
L 3513 0 
L 2938 0 
L 2938 2094 
Q 2938 2591 2744 2837 
Q 2550 3084 2163 3084 
Q 1697 3084 1428 2787 
Q 1159 2491 1159 1978 
L 1159 0 
L 581 0 
L 581 3500 
L 1159 3500 
L 1159 2956 
Q 1366 3272 1645 3428 
Q 1925 3584 2291 3584 
Q 2894 3584 3203 3211 
Q 3513 2838 3513 2113 
z
" transform="scale(0.015625)"/>
        <path id="DejaVuSans-67" d="M 2906 1791 
Q 2906 2416 2648 2759 
Q 2391 3103 1925 3103 
Q 1463 3103 1205 2759 
Q 947 2416 947 1791 
Q 947 1169 1205 825 
Q 1463 481 1925 481 
Q 2391 481 2648 825 
Q 2906 1169 2906 1791 
z
M 3481 434 
Q 3481 -459 3084 -895 
Q 2688 -1331 1869 -1331 
Q 1566 -1331 1297 -1286 
Q 1028 -1241 775 -1147 
L 775 -588 
Q 1028 -725 1275 -790 
Q 1522 -856 1778 -856 
Q 2344 -856 2625 -561 
Q 2906 -266 2906 331 
L 2906 616 
Q 2728 306 2450 153 
Q 2172 0 1784 0 
Q 1141 0 747 490 
Q 353 981 353 1791 
Q 353 2603 747 3093 
Q 1141 3584 1784 3584 
Q 2172 3584 2450 3431 
Q 2728 3278 2906 2969 
L 2906 3500 
L 3481 3500 
L 3481 434 
z
" transform="scale(0.015625)"/>
        <path id="DejaVuSans-74" d="M 1172 4494 
L 1172 3500 
L 2356 3500 
L 2356 3053 
L 1172 3053 
L 1172 1153 
Q 1172 725 1289 603 
Q 1406 481 1766 481 
L 2356 481 
L 2356 0 
L 1766 0 
Q 1100 0 847 248 
Q 594 497 594 1153 
L 594 3053 
L 172 3053 
L 172 3500 
L 594 3500 
L 594 4494 
L 1172 4494 
z
" transform="scale(0.015625)"/>
        <path id="DejaVuSans-68" d="M 3513 2113 
L 3513 0 
L 2938 0 
L 2938 2094 
Q 2938 2591 2744 2837 
Q 2550 3084 2163 3084 
Q 1697 3084 1428 2787 
Q 1159 2491 1159 1978 
L 1159 0 
L 581 0 
L 581 4863 
L 1159 4863 
L 1159 2956 
Q 1366 3272 1645 3428 
Q 1925 3584 2291 3584 
Q 2894 3584 3203 3211 
Q 3513 2838 3513 2113 
z
" transform="scale(0.015625)"/>
        <path id="DejaVuSans-28" d="M 1984 4856 
Q 1566 4138 1362 3434 
Q 1159 2731 1159 2009 
Q 1159 1288 1364 580 
Q 1569 -128 1984 -844 
L 1484 -844 
Q 1016 -109 783 600 
Q 550 1309 550 2009 
Q 550 2706 781 3412 
Q 1013 4119 1484 4856 
L 1984 4856 
z
" transform="scale(0.015625)"/>
        <path id="DejaVuSans-75" d="M 544 1381 
L 544 3500 
L 1119 3500 
L 1119 1403 
Q 1119 906 1312 657 
Q 1506 409 1894 409 
Q 2359 409 2629 706 
Q 2900 1003 2900 1516 
L 2900 3500 
L 3475 3500 
L 3475 0 
L 2900 0 
L 2900 538 
Q 2691 219 2414 64 
Q 2138 -91 1772 -91 
Q 1169 -91 856 284 
Q 544 659 544 1381 
z
M 1991 3584 
L 1991 3584 
z
" transform="scale(0.015625)"/>
        <path id="DejaVuSans-33" d="M 2597 2516 
Q 3050 2419 3304 2112 
Q 3559 1806 3559 1356 
Q 3559 666 3084 287 
Q 2609 -91 1734 -91 
Q 1441 -91 1130 -33 
Q 819 25 488 141 
L 488 750 
Q 750 597 1062 519 
Q 1375 441 1716 441 
Q 2309 441 2620 675 
Q 2931 909 2931 1356 
Q 2931 1769 2642 2001 
Q 2353 2234 1838 2234 
L 1294 2234 
L 1294 2753 
L 1863 2753 
Q 2328 2753 2575 2939 
Q 2822 3125 2822 3475 
Q 2822 3834 2567 4026 
Q 2313 4219 1838 4219 
Q 1578 4219 1281 4162 
Q 984 4106 628 3988 
L 628 4550 
Q 988 4650 1302 4700 
Q 1616 4750 1894 4750 
Q 2613 4750 3031 4423 
Q 3450 4097 3450 3541 
Q 3450 3153 3228 2886 
Q 3006 2619 2597 2516 
z
" transform="scale(0.015625)"/>
        <path id="DejaVuSans-29" d="M 513 4856 
L 1013 4856 
Q 1481 4119 1714 3412 
Q 1947 2706 1947 2009 
Q 1947 1309 1714 600 
Q 1481 -109 1013 -844 
L 513 -844 
Q 928 -128 1133 580 
Q 1338 1288 1338 2009 
Q 1338 2731 1133 3434 
Q 928 4138 513 4856 
z
" transform="scale(0.015625)"/>
       </defs>
       <use xlink:href="#DejaVuSans-41"/>
       <use xlink:href="#DejaVuSans-72" x="68.408203"/>
       <use xlink:href="#DejaVuSans-72" x="107.771484"/>
       <use xlink:href="#DejaVuSans-61" x="148.884766"/>
       <use xlink:href="#DejaVuSans-79" x="210.164062"/>
       <use xlink:href="#DejaVuSans-20" x="269.34375"/>
       <use xlink:href="#DejaVuSans-6c" x="301.130859"/>
       <use xlink:href="#DejaVuSans-65" x="328.914062"/>
       <use xlink:href="#DejaVuSans-6e" x="390.4375"/>
       <use xlink:href="#DejaVuSans-67" x="453.816406"/>
       <use xlink:href="#DejaVuSans-74" x="517.292969"/>
       <use xlink:href="#DejaVuSans-68" x="556.501953"/>
       <use xlink:href="#DejaVuSans-20" x="619.880859"/>
       <use xlink:href="#DejaVuSans-28" x="651.667969"/>
       <use xlink:href="#DejaVuSans-75" x="690.681641"/>
       <use xlink:href="#DejaVuSans-33" x="754.060547"/>
       <use xlink:href="#DejaVuSans-32" x="817.683594"/>
       <use xlink:href="#DejaVuSans-29" x="881.306641"/>
      </g>
     </g>
    </g>
    <g id="matplotlib.axis_2"/>
    <g id="patch_4">
     <path d="M 53.328125 50.594687 
L 667.128125 50.594687 
" style="fill: none; stroke: #000000; stroke-width: 0.8; stroke-linejoin: miter; stroke-linecap: square"/>
    </g>
   </g>
   <g id="PolyCollection_1">
    <defs>
     <path id="mfb607259e2" d="M 81.228125 -39.932304 
L 81.228125 -39.88078 
L 85.918898 -40.383083 
L 90.774455 -40.376667 
L 96.287298 -40.417592 
L 100.995188 -40.335843 
L 106.518766 -41.244841 
L 111.63092 -41.204542 
L 116.723848 -41.26954 
L 121.704395 -41.206319 
L 126.767259 -41.243067 
L 131.783021 -41.924305 
L 136.853944 -41.930604 
L 142.014489 -41.896568 
L 147.126643 -41.921507 
L 152.219571 -42.976503 
L 157.296135 -42.925428 
L 162.345091 -42.970036 
L 167.419221 -42.876203 
L 172.529665 -43.850291 
L 177.561457 -43.861412 
L 182.666117 -43.84154 
L 187.752668 -43.861503 
L 192.8238 -43.857758 
L 197.895437 -44.624845 
L 202.961634 -44.619514 
L 208.045327 -44.674256 
L 213.108343 -44.667605 
L 218.190974 -45.351928 
L 223.26084 -45.427917 
L 228.330164 -45.306354 
L 233.409347 -45.359562 
L 238.480677 -46.239708 
L 243.554335 -46.228493 
L 248.626779 -46.241018 
L 253.696403 -46.192188 
L 258.773153 -46.225529 
L 263.843613 -47.127399 
L 268.91719 -47.123381 
L 273.989348 -47.116586 
L 279.063338 -47.111697 
L 284.135745 -48.091303 
L 289.209912 -47.99414 
L 294.281313 -48.028584 
L 299.354691 -48.076415 
L 304.428055 -48.236722 
L 309.500602 -50.200102 
L 314.573073 -50.260753 
L 319.645965 -50.373568 
L 324.718564 -50.849005 
L 329.79131 -52.588623 
L 334.864188 -52.858737 
L 339.936896 -53.107562 
L 345.009837 -53.666898 
L 350.082556 -55.784105 
L 355.155338 -55.647294 
L 360.228108 -55.906091 
L 365.300841 -56.182477 
L 370.373548 -56.451789 
L 375.446292 -58.288455 
L 380.518971 -57.95565 
L 385.591705 -58.360045 
L 390.664427 -58.85928 
L 395.737168 -60.376405 
L 400.809906 -61.75966 
L 405.88264 -62.748833 
L 410.955384 -63.882737 
L 416.028098 -65.232737 
L 421.10085 -67.2956 
L 426.173579 -68.311893 
L 431.246302 -69.297234 
L 436.319033 -71.26983 
L 441.391756 -72.89027 
L 446.464482 -74.191686 
L 451.53721 -77.851227 
L 456.609943 -78.145166 
L 461.682672 -79.700745 
L 466.755398 -91.13461 
L 471.828126 -100.675398 
L 476.900852 -104.472096 
L 481.973579 -113.599729 
L 487.046309 -129.027094 
L 492.119036 -135.404386 
L 497.191764 -147.790127 
L 502.264492 -151.686358 
L 507.337218 -165.913275 
L 512.409945 -172.276585 
L 517.482672 -181.081124 
L 522.555399 -187.888661 
L 527.628126 -184.520784 
L 532.700853 -212.585406 
L 537.773582 -217.912792 
L 542.84631 -225.442203 
L 547.919038 -227.408619 
L 552.991767 -244.690621 
L 558.064493 -253.177109 
L 563.137219 -260.326308 
L 568.209946 -265.413176 
L 573.282673 -264.751565 
L 578.355401 -290.826307 
L 583.428128 -300.219399 
L 588.500856 -304.65661 
L 593.573584 -301.677781 
L 598.646309 -324.942493 
L 603.719035 -331.201227 
L 608.791762 -335.411842 
L 613.86449 -338.836755 
L 618.937216 -356.108868 
L 624.009943 -366.20754 
L 629.082671 -369.848016 
L 634.155398 -374.352751 
L 639.228125 -374.211208 
L 639.228125 -379.140412 
L 639.228125 -379.140412 
L 634.155398 -376.184037 
L 629.082671 -376.393019 
L 624.009943 -374.410073 
L 618.937216 -361.642883 
L 613.86449 -343.596182 
L 608.791762 -338.534963 
L 603.719035 -333.607773 
L 598.646309 -326.74809 
L 593.573584 -303.844354 
L 588.500856 -308.422151 
L 583.428128 -304.577043 
L 578.355401 -294.382733 
L 573.282673 -267.590726 
L 568.209946 -268.602648 
L 563.137219 -264.344635 
L 558.064493 -261.746724 
L 552.991767 -246.55796 
L 547.919038 -228.073816 
L 542.84631 -227.115739 
L 537.773582 -223.710437 
L 532.700853 -217.113315 
L 527.628126 -190.20105 
L 522.555399 -191.133097 
L 517.482672 -181.49453 
L 512.409945 -174.120847 
L 507.337218 -171.585025 
L 502.264492 -151.933868 
L 497.191764 -151.010295 
L 492.119036 -138.890479 
L 487.046309 -130.974271 
L 481.973579 -114.33568 
L 476.900852 -104.690503 
L 471.828126 -106.376996 
L 466.755398 -95.230936 
L 461.682672 -84.172734 
L 456.609943 -79.184436 
L 451.53721 -78.720806 
L 446.464482 -78.010547 
L 441.391756 -72.980182 
L 436.319033 -72.262703 
L 431.246302 -69.356807 
L 426.173579 -68.751665 
L 421.10085 -67.659516 
L 416.028098 -66.034395 
L 410.955384 -64.071352 
L 405.88264 -62.90974 
L 400.809906 -61.824531 
L 395.737168 -60.442917 
L 390.664427 -58.922154 
L 385.591705 -58.429766 
L 380.518971 -58.269936 
L 375.446292 -58.426017 
L 370.373548 -56.549749 
L 365.300841 -56.299816 
L 360.228108 -56.112859 
L 355.155338 -55.808367 
L 350.082556 -55.829896 
L 345.009837 -53.763912 
L 339.936896 -53.252516 
L 334.864188 -53.020033 
L 329.79131 -52.660245 
L 324.718564 -50.888376 
L 319.645965 -50.453737 
L 314.573073 -50.34839 
L 309.500602 -50.275163 
L 304.428055 -48.325248 
L 299.354691 -48.111648 
L 294.281313 -48.042964 
L 289.209912 -48.046194 
L 284.135745 -48.124207 
L 279.063338 -47.212989 
L 273.989348 -47.229249 
L 268.91719 -47.172192 
L 263.843613 -47.232802 
L 258.773153 -46.257995 
L 253.696403 -46.294957 
L 248.626779 -46.318292 
L 243.554335 -46.289803 
L 238.480677 -46.298122 
L 233.409347 -45.495693 
L 228.330164 -45.551592 
L 223.26084 -45.461455 
L 218.190974 -45.362242 
L 213.108343 -44.732428 
L 208.045327 -44.712725 
L 202.961634 -44.7343 
L 197.895437 -44.669304 
L 192.8238 -43.937116 
L 187.752668 -43.880132 
L 182.666117 -43.900315 
L 177.561457 -44.008527 
L 172.529665 -43.910776 
L 167.419221 -42.974143 
L 162.345091 -43.064255 
L 157.296135 -43.06231 
L 152.219571 -43.012982 
L 147.126643 -42.016934 
L 142.014489 -41.961361 
L 136.853944 -42.034119 
L 131.783021 -41.952322 
L 126.767259 -41.352621 
L 121.704395 -41.262477 
L 116.723848 -41.306072 
L 111.63092 -41.280395 
L 106.518766 -41.302532 
L 100.995188 -40.44613 
L 96.287298 -40.431839 
L 90.774455 -40.448084 
L 85.918898 -40.430575 
L 81.228125 -39.932304 
z
" style="stroke: #ff7f0e; stroke-opacity: 0.2"/>
    </defs>
    <g clip-path="url(#pfe0b4a5b5b)">
     <use xlink:href="#mfb607259e2" x="0" y="531.670938" style="fill: #ff7f0e; fill-opacity: 0.2; stroke: #ff7f0e; stroke-opacity: 0.2"/>
    </g>
   </g>
   <g id="PolyCollection_2">
    <defs>
     <path id="md38931526a" d="M 81.228125 -41.084656 
L 81.228125 -40.220886 
L 85.918898 -42.491488 
L 90.774455 -42.389811 
L 96.287298 -41.08148 
L 100.995188 -40.067024 
L 106.518766 -41.451445 
L 111.63092 -44.028237 
L 116.723848 -42.643178 
L 121.704395 -41.30018 
L 126.767259 -41.015429 
L 131.783021 -43.983878 
L 136.853944 -45.067072 
L 142.014489 -43.249354 
L 147.126643 -41.846725 
L 152.219571 -43.962297 
L 157.296135 -46.81678 
L 162.345091 -45.170236 
L 167.419221 -43.302733 
L 172.529665 -43.698727 
L 177.561457 -46.695614 
L 182.666117 -47.259184 
L 187.752668 -45.165835 
L 192.8238 -43.685447 
L 197.895437 -46.863309 
L 202.961634 -49.453535 
L 208.045327 -47.340176 
L 213.108343 -45.536868 
L 218.190974 -46.34505 
L 223.26084 -50.186713 
L 228.330164 -49.575669 
L 233.409347 -47.339393 
L 238.480677 -46.110098 
L 243.554335 -50.362463 
L 248.626779 -52.102761 
L 253.696403 -49.525472 
L 258.773153 -47.441719 
L 263.843613 -50.103803 
L 268.91719 -54.356837 
L 273.989348 -52.23977 
L 279.063338 -49.500542 
L 284.135745 -49.365556 
L 289.209912 -53.64247 
L 294.281313 -54.763974 
L 299.354691 -51.630614 
L 304.428055 -49.514772 
L 309.500602 -53.621257 
L 314.573073 -57.45594 
L 319.645965 -54.664989 
L 324.718564 -52.374535 
L 329.79131 -53.442682 
L 334.864188 -58.456676 
L 339.936896 -58.832616 
L 345.009837 -56.241088 
L 350.082556 -54.448931 
L 355.155338 -59.030856 
L 360.228108 -62.907534 
L 365.300841 -59.940857 
L 370.373548 -57.472506 
L 375.446292 -61.276045 
L 380.518971 -65.388358 
L 385.591705 -64.408783 
L 390.664427 -61.668357 
L 395.737168 -61.142233 
L 400.809906 -67.303435 
L 405.88264 -71.001073 
L 410.955384 -68.817859 
L 416.028098 -67.414578 
L 421.10085 -71.696212 
L 426.173579 -78.24255 
L 431.246302 -77.377381 
L 436.319033 -76.212212 
L 441.391756 -76.260164 
L 446.464482 -83.021556 
L 451.53721 -87.544025 
L 456.609943 -86.349293 
L 461.682672 -85.102459 
L 466.755398 -99.635754 
L 471.828126 -112.484472 
L 476.900852 -113.836068 
L 481.973579 -117.084649 
L 487.046309 -127.883532 
L 492.119036 -142.507485 
L 497.191764 -161.209581 
L 502.264492 -156.709159 
L 507.337218 -185.372366 
L 512.409945 -174.463109 
L 517.482672 -189.754293 
L 522.555399 -192.938808 
L 527.628126 -192.127063 
L 532.700853 -202.231015 
L 537.773582 -215.279186 
L 542.84631 -233.466513 
L 547.919038 -231.907858 
L 552.991767 -232.965064 
L 558.064493 -246.37326 
L 563.137219 -267.725128 
L 568.209946 -269.794129 
L 573.282673 -268.358582 
L 578.355401 -276.49078 
L 583.428128 -302.691161 
L 588.500856 -312.659129 
L 593.573584 -306.388759 
L 598.646309 -311.65765 
L 603.719035 -322.298014 
L 608.791762 -344.556954 
L 613.86449 -344.765324 
L 618.937216 -343.28703 
L 624.009943 -363.266789 
L 629.082671 -381.15718 
L 634.155398 -382.244258 
L 639.228125 -382.560694 
L 639.228125 -384.905901 
L 639.228125 -384.905901 
L 634.155398 -400.865488 
L 629.082671 -383.68755 
L 624.009943 -370.479452 
L 618.937216 -343.754351 
L 613.86449 -353.033775 
L 608.791762 -351.752565 
L 603.719035 -329.033243 
L 598.646309 -315.496408 
L 593.573584 -306.572605 
L 588.500856 -316.217616 
L 583.428128 -305.29454 
L 578.355401 -277.750482 
L 573.282673 -268.819205 
L 568.209946 -275.714201 
L 563.137219 -275.308623 
L 558.064493 -248.832197 
L 552.991767 -238.389594 
L 547.919038 -236.546855 
L 542.84631 -235.788855 
L 537.773582 -216.467803 
L 532.700853 -203.044656 
L 527.628126 -193.584033 
L 522.555399 -194.529389 
L 517.482672 -197.138253 
L 512.409945 -177.163039 
L 507.337218 -186.149273 
L 502.264492 -157.799729 
L 497.191764 -163.682005 
L 492.119036 -142.778985 
L 487.046309 -128.823485 
L 481.973579 -123.646447 
L 476.900852 -114.35416 
L 471.828126 -117.717308 
L 466.755398 -102.766388 
L 461.682672 -86.455831 
L 456.609943 -88.033757 
L 451.53721 -91.801642 
L 446.464482 -85.672321 
L 441.391756 -76.313211 
L 436.319033 -76.829297 
L 431.246302 -77.538699 
L 426.173579 -78.53092 
L 421.10085 -71.79029 
L 416.028098 -67.719063 
L 410.955384 -68.954141 
L 405.88264 -71.059498 
L 400.809906 -67.416374 
L 395.737168 -61.180225 
L 390.664427 -61.725686 
L 385.591705 -64.458451 
L 380.518971 -65.445621 
L 375.446292 -61.473401 
L 370.373548 -57.550688 
L 365.300841 -60.008411 
L 360.228108 -62.93625 
L 355.155338 -59.06636 
L 350.082556 -54.514011 
L 345.009837 -56.278273 
L 339.936896 -58.907124 
L 334.864188 -58.57977 
L 329.79131 -53.487871 
L 324.718564 -52.452481 
L 319.645965 -54.7781 
L 314.573073 -57.512606 
L 309.500602 -53.715142 
L 304.428055 -49.558932 
L 299.354691 -51.665771 
L 294.281313 -54.792431 
L 289.209912 -53.760803 
L 284.135745 -49.413234 
L 279.063338 -49.639457 
L 273.989348 -52.317599 
L 268.91719 -54.412829 
L 263.843613 -50.15933 
L 258.773153 -47.490959 
L 253.696403 -49.764936 
L 248.626779 -52.249601 
L 243.554335 -50.427602 
L 238.480677 -46.248539 
L 233.409347 -47.367219 
L 228.330164 -49.595533 
L 223.26084 -50.246916 
L 218.190974 -46.772786 
L 213.108343 -45.583905 
L 208.045327 -47.555293 
L 202.961634 -49.459204 
L 197.895437 -47.309658 
L 192.8238 -43.729445 
L 187.752668 -45.366901 
L 182.666117 -47.757173 
L 177.561457 -46.877776 
L 172.529665 -43.800927 
L 167.419221 -43.4654 
L 162.345091 -45.547105 
L 157.296135 -46.993579 
L 152.219571 -44.925299 
L 147.126643 -42.003144 
L 142.014489 -43.55262 
L 136.853944 -45.714167 
L 131.783021 -44.647774 
L 126.767259 -41.751679 
L 121.704395 -41.652877 
L 116.723848 -42.975366 
L 111.63092 -44.504993 
L 106.518766 -42.90782 
L 100.995188 -40.08089 
L 96.287298 -41.156947 
L 90.774455 -43.187226 
L 85.918898 -42.811503 
L 81.228125 -41.084656 
z
" style="stroke: #bcbd22; stroke-opacity: 0.2"/>
    </defs>
    <g clip-path="url(#pfe0b4a5b5b)">
     <use xlink:href="#md38931526a" x="0" y="531.670938" style="fill: #bcbd22; fill-opacity: 0.2; stroke: #bcbd22; stroke-opacity: 0.2"/>
    </g>
   </g>
   <g id="PolyCollection_3">
    <defs>
     <path id="mb24fbcac92" d="M 81.228125 -39.113368 
L 81.228125 -39.09421 
L 85.918898 -39.566916 
L 90.774455 -39.582484 
L 96.287298 -39.578863 
L 100.995188 -39.587364 
L 106.518766 -40.155411 
L 111.63092 -40.141631 
L 116.723848 -40.143123 
L 121.704395 -40.158312 
L 126.767259 -40.150561 
L 131.783021 -40.89295 
L 136.853944 -40.904004 
L 142.014489 -40.932376 
L 147.126643 -40.895601 
L 152.219571 -41.476254 
L 157.296135 -41.488918 
L 162.345091 -41.470979 
L 167.419221 -41.469271 
L 172.529665 -42.03104 
L 177.561457 -42.027622 
L 182.666117 -42.029094 
L 187.752668 -42.023395 
L 192.8238 -42.01026 
L 197.895437 -43.025685 
L 202.961634 -42.984832 
L 208.045327 -43.040805 
L 213.108343 -43.048335 
L 218.190974 -43.936138 
L 223.26084 -43.925264 
L 228.330164 -43.8878 
L 233.409347 -43.935911 
L 238.480677 -44.550745 
L 243.554335 -44.589373 
L 248.626779 -44.531299 
L 253.696403 -44.542112 
L 258.773153 -44.550047 
L 263.843613 -45.235465 
L 268.91719 -45.231826 
L 273.989348 -45.23379 
L 279.063338 -45.259421 
L 284.135745 -45.942322 
L 289.209912 -45.933613 
L 294.281313 -45.9828 
L 299.354691 -46.039033 
L 304.428055 -46.09336 
L 309.500602 -47.249523 
L 314.573073 -47.266567 
L 319.645965 -47.42778 
L 324.718564 -47.730104 
L 329.79131 -49.024353 
L 334.864188 -49.18287 
L 339.936896 -49.407516 
L 345.009837 -50.05409 
L 350.082556 -51.764609 
L 355.155338 -51.589657 
L 360.228108 -51.865275 
L 365.300841 -52.099187 
L 370.373548 -52.432915 
L 375.446292 -54.202374 
L 380.518971 -54.238718 
L 385.591705 -54.530966 
L 390.664427 -55.007476 
L 395.737168 -56.764104 
L 400.809906 -58.291247 
L 405.88264 -59.344252 
L 410.955384 -60.594758 
L 416.028098 -61.97576 
L 421.10085 -64.273165 
L 426.173579 -65.43697 
L 431.246302 -66.465993 
L 436.319033 -68.18215 
L 441.391756 -69.433901 
L 446.464482 -71.235762 
L 451.53721 -74.610931 
L 456.609943 -74.230224 
L 461.682672 -75.988876 
L 466.755398 -85.84882 
L 471.828126 -92.476812 
L 476.900852 -97.918958 
L 481.973579 -103.735303 
L 487.046309 -113.378191 
L 492.119036 -119.340524 
L 497.191764 -133.369134 
L 502.264492 -131.096062 
L 507.337218 -137.390215 
L 512.409945 -141.848674 
L 517.482672 -148.284893 
L 522.555399 -153.230766 
L 527.628126 -155.131935 
L 532.700853 -168.7878 
L 537.773582 -170.54138 
L 542.84631 -177.464064 
L 547.919038 -178.730273 
L 552.991767 -192.991108 
L 558.064493 -196.545998 
L 563.137219 -199.931316 
L 568.209946 -203.824249 
L 573.282673 -204.001857 
L 578.355401 -225.445814 
L 583.428128 -229.933922 
L 588.500856 -230.178469 
L 593.573584 -231.932954 
L 598.646309 -258.9219 
L 603.719035 -263.444025 
L 608.791762 -262.462005 
L 613.86449 -264.650807 
L 618.937216 -289.579554 
L 624.009943 -298.082277 
L 629.082671 -297.885577 
L 634.155398 -300.758741 
L 639.228125 -293.255336 
L 639.228125 -295.81333 
L 639.228125 -295.81333 
L 634.155398 -309.192487 
L 629.082671 -302.17511 
L 624.009943 -299.626368 
L 618.937216 -292.212409 
L 613.86449 -270.142796 
L 608.791762 -272.819026 
L 603.719035 -263.955648 
L 598.646309 -262.388356 
L 593.573584 -233.846436 
L 588.500856 -234.160526 
L 583.428128 -232.516944 
L 578.355401 -226.639497 
L 573.282673 -204.486903 
L 568.209946 -207.727971 
L 563.137219 -205.969498 
L 558.064493 -198.334842 
L 552.991767 -194.081138 
L 547.919038 -183.006708 
L 542.84631 -178.818181 
L 537.773582 -175.608426 
L 532.700853 -171.12414 
L 527.628126 -155.797417 
L 522.555399 -159.718996 
L 517.482672 -148.890209 
L 512.409945 -142.725347 
L 507.337218 -140.778063 
L 502.264492 -131.465695 
L 497.191764 -136.737105 
L 492.119036 -121.468795 
L 487.046309 -114.339275 
L 481.973579 -108.504535 
L 476.900852 -99.873471 
L 471.828126 -96.089013 
L 466.755398 -86.507531 
L 461.682672 -77.685365 
L 456.609943 -79.861928 
L 451.53721 -75.773277 
L 446.464482 -72.658991 
L 441.391756 -69.650598 
L 436.319033 -68.75825 
L 431.246302 -66.890094 
L 426.173579 -65.637903 
L 421.10085 -64.439602 
L 416.028098 -62.372512 
L 410.955384 -60.767612 
L 405.88264 -59.470283 
L 400.809906 -58.402627 
L 395.737168 -56.979782 
L 390.664427 -55.155377 
L 385.591705 -54.582128 
L 380.518971 -54.33678 
L 375.446292 -54.490424 
L 370.373548 -52.466803 
L 365.300841 -52.203892 
L 360.228108 -51.907992 
L 355.155338 -51.600609 
L 350.082556 -51.871295 
L 345.009837 -50.084613 
L 339.936896 -49.470033 
L 334.864188 -49.271435 
L 329.79131 -49.033599 
L 324.718564 -47.748541 
L 319.645965 -47.464614 
L 314.573073 -47.332504 
L 309.500602 -47.292811 
L 304.428055 -46.128305 
L 299.354691 -46.066174 
L 294.281313 -46.039217 
L 289.209912 -46.02832 
L 284.135745 -46.00467 
L 279.063338 -45.345669 
L 273.989348 -45.345769 
L 268.91719 -45.263404 
L 263.843613 -45.267623 
L 258.773153 -44.56386 
L 253.696403 -44.634065 
L 248.626779 -44.65886 
L 243.554335 -44.698103 
L 238.480677 -44.577527 
L 233.409347 -43.951966 
L 228.330164 -43.939215 
L 223.26084 -43.993292 
L 218.190974 -43.946325 
L 213.108343 -43.054468 
L 208.045327 -43.092258 
L 202.961634 -43.042464 
L 197.895437 -43.09716 
L 192.8238 -42.054374 
L 187.752668 -42.040426 
L 182.666117 -42.064996 
L 177.561457 -42.04667 
L 172.529665 -42.041839 
L 167.419221 -41.478886 
L 162.345091 -41.475075 
L 157.296135 -41.574874 
L 152.219571 -41.505408 
L 147.126643 -40.938961 
L 142.014489 -40.939369 
L 136.853944 -40.932546 
L 131.783021 -40.938323 
L 126.767259 -40.22793 
L 121.704395 -40.197645 
L 116.723848 -40.159204 
L 111.63092 -40.147446 
L 106.518766 -40.188899 
L 100.995188 -39.605536 
L 96.287298 -39.596482 
L 90.774455 -39.665988 
L 85.918898 -39.579959 
L 81.228125 -39.113368 
z
" style="stroke: #17becf; stroke-opacity: 0.2"/>
    </defs>
    <g clip-path="url(#pfe0b4a5b5b)">
     <use xlink:href="#mb24fbcac92" x="0" y="531.670938" style="fill: #17becf; fill-opacity: 0.2; stroke: #17becf; stroke-opacity: 0.2"/>
    </g>
   </g>
   <g id="PolyCollection_4">
    <defs>
     <path id="maccf6d6e6a" d="M 81.228125 -39.538333 
L 81.228125 -39.513563 
L 85.918898 -40.114998 
L 90.774455 -40.104466 
L 96.287298 -40.108454 
L 100.995188 -40.112763 
L 106.518766 -40.854229 
L 111.63092 -40.85243 
L 116.723848 -40.851735 
L 121.704395 -40.852068 
L 126.767259 -40.853439 
L 131.783021 -41.532499 
L 136.853944 -41.555049 
L 142.014489 -41.527068 
L 147.126643 -41.529413 
L 152.219571 -42.48501 
L 157.296135 -42.542507 
L 162.345091 -42.505494 
L 167.419221 -42.503265 
L 172.529665 -43.264901 
L 177.561457 -43.250806 
L 182.666117 -43.257868 
L 187.752668 -43.25788 
L 192.8238 -43.258658 
L 197.895437 -44.051539 
L 202.961634 -44.043388 
L 208.045327 -44.078116 
L 213.108343 -44.081496 
L 218.190974 -44.823611 
L 223.26084 -44.824161 
L 228.330164 -44.827079 
L 233.409347 -44.801342 
L 238.480677 -45.595276 
L 243.554335 -45.58909 
L 248.626779 -45.601518 
L 253.696403 -45.585111 
L 258.773153 -45.595776 
L 263.843613 -46.6112 
L 268.91719 -46.603557 
L 273.989348 -46.660174 
L 279.063338 -46.654734 
L 284.135745 -47.86629 
L 289.209912 -47.895704 
L 294.281313 -47.831649 
L 299.354691 -47.925532 
L 304.428055 -47.966956 
L 309.500602 -49.687069 
L 314.573073 -49.658732 
L 319.645965 -49.796652 
L 324.718564 -49.990214 
L 329.79131 -51.444562 
L 334.864188 -51.68806 
L 339.936896 -51.762008 
L 345.009837 -52.208594 
L 350.082556 -53.370643 
L 355.155338 -53.327951 
L 360.228108 -53.493876 
L 365.300841 -53.777355 
L 370.373548 -53.975587 
L 375.446292 -55.420242 
L 380.518971 -55.299455 
L 385.591705 -55.469405 
L 390.664427 -55.830785 
L 395.737168 -57.423631 
L 400.809906 -58.040075 
L 405.88264 -58.598151 
L 410.955384 -59.591748 
L 416.028098 -60.149454 
L 421.10085 -61.776109 
L 426.173579 -62.124759 
L 431.246302 -62.767373 
L 436.319033 -63.674207 
L 441.391756 -65.424169 
L 446.464482 -65.615373 
L 451.53721 -67.144192 
L 456.609943 -67.975384 
L 461.682672 -69.539103 
L 466.755398 -77.501392 
L 471.828126 -83.028979 
L 476.900852 -87.039186 
L 481.973579 -91.927953 
L 487.046309 -101.303754 
L 492.119036 -105.336287 
L 497.191764 -112.826283 
L 502.264492 -115.616129 
L 507.337218 -123.265392 
L 512.409945 -125.677034 
L 517.482672 -128.99563 
L 522.555399 -134.684411 
L 527.628126 -137.194363 
L 532.700853 -147.28106 
L 537.773582 -147.719866 
L 542.84631 -154.58641 
L 547.919038 -155.45685 
L 552.991767 -165.782764 
L 558.064493 -168.144517 
L 563.137219 -173.169599 
L 568.209946 -174.032839 
L 573.282673 -177.333393 
L 578.355401 -183.238875 
L 583.428128 -186.460718 
L 588.500856 -193.310851 
L 593.573584 -193.976727 
L 598.646309 -202.360867 
L 603.719035 -202.736073 
L 608.791762 -207.44725 
L 613.86449 -209.784697 
L 618.937216 -219.007841 
L 624.009943 -223.918983 
L 629.082671 -225.236137 
L 634.155398 -226.383578 
L 639.228125 -229.868835 
L 639.228125 -234.88818 
L 639.228125 -234.88818 
L 634.155398 -234.756774 
L 629.082671 -228.054573 
L 624.009943 -230.589993 
L 618.937216 -220.461078 
L 613.86449 -213.905922 
L 608.791762 -210.836779 
L 603.719035 -210.101167 
L 598.646309 -203.655234 
L 593.573584 -195.490596 
L 588.500856 -193.876295 
L 583.428128 -190.623279 
L 578.355401 -185.314544 
L 573.282673 -182.288011 
L 568.209946 -178.332409 
L 563.137219 -175.402252 
L 558.064493 -171.052804 
L 552.991767 -172.773962 
L 547.919038 -157.055562 
L 542.84631 -155.461756 
L 537.773582 -149.042802 
L 532.700853 -150.990743 
L 527.628126 -138.745993 
L 522.555399 -135.815006 
L 517.482672 -129.32041 
L 512.409945 -125.981034 
L 507.337218 -126.533031 
L 502.264492 -116.04079 
L 497.191764 -114.158583 
L 492.119036 -106.802342 
L 487.046309 -104.854866 
L 481.973579 -92.261479 
L 476.900852 -90.480361 
L 471.828126 -85.076532 
L 466.755398 -80.128998 
L 461.682672 -70.786509 
L 456.609943 -72.225347 
L 451.53721 -69.083307 
L 446.464482 -65.718468 
L 441.391756 -65.573717 
L 436.319033 -64.319389 
L 431.246302 -62.991305 
L 426.173579 -62.21882 
L 421.10085 -61.881654 
L 416.028098 -60.286283 
L 410.955384 -59.6555 
L 405.88264 -58.705917 
L 400.809906 -58.230789 
L 395.737168 -57.498756 
L 390.664427 -55.865808 
L 385.591705 -55.494795 
L 380.518971 -55.372747 
L 375.446292 -55.522888 
L 370.373548 -53.998268 
L 365.300841 -53.877797 
L 360.228108 -53.566755 
L 355.155338 -53.384177 
L 350.082556 -53.410598 
L 345.009837 -52.31492 
L 339.936896 -51.847748 
L 334.864188 -51.698647 
L 329.79131 -51.493176 
L 324.718564 -50.018723 
L 319.645965 -49.811583 
L 314.573073 -49.703668 
L 309.500602 -49.740348 
L 304.428055 -48.053259 
L 299.354691 -47.956483 
L 294.281313 -47.95004 
L 289.209912 -47.955182 
L 284.135745 -47.917234 
L 279.063338 -46.676739 
L 273.989348 -46.69689 
L 268.91719 -46.669472 
L 263.843613 -46.675359 
L 258.773153 -45.614691 
L 253.696403 -45.597994 
L 248.626779 -45.653777 
L 243.554335 -45.625512 
L 238.480677 -45.627518 
L 233.409347 -44.865909 
L 228.330164 -44.844486 
L 223.26084 -45.043454 
L 218.190974 -44.834239 
L 213.108343 -44.099889 
L 208.045327 -44.086426 
L 202.961634 -44.179815 
L 197.895437 -44.09127 
L 192.8238 -43.263353 
L 187.752668 -43.267418 
L 182.666117 -43.268617 
L 177.561457 -43.281775 
L 172.529665 -43.275955 
L 167.419221 -42.582715 
L 162.345091 -42.54305 
L 157.296135 -42.566903 
L 152.219571 -42.513486 
L 147.126643 -41.535039 
L 142.014489 -41.53323 
L 136.853944 -41.558035 
L 131.783021 -41.562733 
L 126.767259 -40.864177 
L 121.704395 -40.86225 
L 116.723848 -40.859612 
L 111.63092 -40.861215 
L 106.518766 -40.865055 
L 100.995188 -40.116132 
L 96.287298 -40.110995 
L 90.774455 -40.112277 
L 85.918898 -40.126421 
L 81.228125 -39.538333 
z
" style="stroke: #1f77b4; stroke-opacity: 0.2"/>
    </defs>
    <g clip-path="url(#pfe0b4a5b5b)">
     <use xlink:href="#maccf6d6e6a" x="0" y="531.670938" style="fill: #1f77b4; fill-opacity: 0.2; stroke: #1f77b4; stroke-opacity: 0.2"/>
    </g>
   </g>
   <g id="matplotlib.axis_3">
    <g id="xtick_15">
     <g id="line2d_18">
      <path d="M 58.832817 494.114688 
L 58.832817 50.594688 
" clip-path="url(#pfe0b4a5b5b)" style="fill: none; stroke: #b0b0b0; stroke-opacity: 0.4; stroke-width: 0.8; stroke-linecap: square"/>
     </g>
     <g id="line2d_19">
      <defs>
       <path id="mf9d4d546a2" d="M 0 0 
L 0 3.5 
" style="stroke: #000000; stroke-width: 0.8"/>
      </defs>
      <g>
       <use xlink:href="#mf9d4d546a2" x="58.832817" y="494.114688" style="stroke: #000000; stroke-width: 0.8"/>
      </g>
     </g>
     <g id="text_16">
      <!-- $\mathdefault{2^{4}}$ -->
      <g transform="translate(53.232817 508.713125) scale(0.1 -0.1)">
       <use xlink:href="#DejaVuSans-32" transform="translate(0 0.684375)"/>
       <use xlink:href="#DejaVuSans-34" transform="translate(64.580078 38.965625) scale(0.7)"/>
      </g>
     </g>
    </g>
    <g id="xtick_16">
     <g id="line2d_20">
      <path d="M 103.623433 494.114688 
L 103.623433 50.594688 
" clip-path="url(#pfe0b4a5b5b)" style="fill: none; stroke: #b0b0b0; stroke-opacity: 0.4; stroke-width: 0.8; stroke-linecap: square"/>
     </g>
     <g id="line2d_21">
      <g>
       <use xlink:href="#mf9d4d546a2" x="103.623433" y="494.114688" style="stroke: #000000; stroke-width: 0.8"/>
      </g>
     </g>
     <g id="text_17">
      <!-- $\mathdefault{2^{6}}$ -->
      <g transform="translate(98.023433 508.713125) scale(0.1 -0.1)">
       <use xlink:href="#DejaVuSans-32" transform="translate(0 0.765625)"/>
       <use xlink:href="#DejaVuSans-36" transform="translate(64.580078 39.046875) scale(0.7)"/>
      </g>
     </g>
    </g>
    <g id="xtick_17">
     <g id="line2d_22">
      <path d="M 148.414049 494.114688 
L 148.414049 50.594688 
" clip-path="url(#pfe0b4a5b5b)" style="fill: none; stroke: #b0b0b0; stroke-opacity: 0.4; stroke-width: 0.8; stroke-linecap: square"/>
     </g>
     <g id="line2d_23">
      <g>
       <use xlink:href="#mf9d4d546a2" x="148.414049" y="494.114688" style="stroke: #000000; stroke-width: 0.8"/>
      </g>
     </g>
     <g id="text_18">
      <!-- $\mathdefault{2^{8}}$ -->
      <g transform="translate(142.814049 508.713125) scale(0.1 -0.1)">
       <use xlink:href="#DejaVuSans-32" transform="translate(0 0.765625)"/>
       <use xlink:href="#DejaVuSans-38" transform="translate(64.580078 39.046875) scale(0.7)"/>
      </g>
     </g>
    </g>
    <g id="xtick_18">
     <g id="line2d_24">
      <path d="M 193.204664 494.114688 
L 193.204664 50.594688 
" clip-path="url(#pfe0b4a5b5b)" style="fill: none; stroke: #b0b0b0; stroke-opacity: 0.4; stroke-width: 0.8; stroke-linecap: square"/>
     </g>
     <g id="line2d_25">
      <g>
       <use xlink:href="#mf9d4d546a2" x="193.204664" y="494.114688" style="stroke: #000000; stroke-width: 0.8"/>
      </g>
     </g>
     <g id="text_19">
      <!-- $\mathdefault{2^{10}}$ -->
      <g transform="translate(185.354664 508.713125) scale(0.1 -0.1)">
       <use xlink:href="#DejaVuSans-32" transform="translate(0 0.765625)"/>
       <use xlink:href="#DejaVuSans-31" transform="translate(64.580078 39.046875) scale(0.7)"/>
       <use xlink:href="#DejaVuSans-30" transform="translate(109.116211 39.046875) scale(0.7)"/>
      </g>
     </g>
    </g>
    <g id="xtick_19">
     <g id="line2d_26">
      <path d="M 237.99528 494.114688 
L 237.99528 50.594688 
" clip-path="url(#pfe0b4a5b5b)" style="fill: none; stroke: #b0b0b0; stroke-opacity: 0.4; stroke-width: 0.8; stroke-linecap: square"/>
     </g>
     <g id="line2d_27">
      <g>
       <use xlink:href="#mf9d4d546a2" x="237.99528" y="494.114688" style="stroke: #000000; stroke-width: 0.8"/>
      </g>
     </g>
     <g id="text_20">
      <!-- $\mathdefault{2^{12}}$ -->
      <g transform="translate(230.14528 508.713125) scale(0.1 -0.1)">
       <use xlink:href="#DejaVuSans-32" transform="translate(0 0.765625)"/>
       <use xlink:href="#DejaVuSans-31" transform="translate(64.580078 39.046875) scale(0.7)"/>
       <use xlink:href="#DejaVuSans-32" transform="translate(109.116211 39.046875) scale(0.7)"/>
      </g>
     </g>
    </g>
    <g id="xtick_20">
     <g id="line2d_28">
      <path d="M 282.785896 494.114688 
L 282.785896 50.594688 
" clip-path="url(#pfe0b4a5b5b)" style="fill: none; stroke: #b0b0b0; stroke-opacity: 0.4; stroke-width: 0.8; stroke-linecap: square"/>
     </g>
     <g id="line2d_29">
      <g>
       <use xlink:href="#mf9d4d546a2" x="282.785896" y="494.114688" style="stroke: #000000; stroke-width: 0.8"/>
      </g>
     </g>
     <g id="text_21">
      <!-- $\mathdefault{2^{14}}$ -->
      <g transform="translate(274.935896 508.713125) scale(0.1 -0.1)">
       <use xlink:href="#DejaVuSans-32" transform="translate(0 0.684375)"/>
       <use xlink:href="#DejaVuSans-31" transform="translate(64.580078 38.965625) scale(0.7)"/>
       <use xlink:href="#DejaVuSans-34" transform="translate(109.116211 38.965625) scale(0.7)"/>
      </g>
     </g>
    </g>
    <g id="xtick_21">
     <g id="line2d_30">
      <path d="M 327.576512 494.114688 
L 327.576512 50.594688 
" clip-path="url(#pfe0b4a5b5b)" style="fill: none; stroke: #b0b0b0; stroke-opacity: 0.4; stroke-width: 0.8; stroke-linecap: square"/>
     </g>
     <g id="line2d_31">
      <g>
       <use xlink:href="#mf9d4d546a2" x="327.576512" y="494.114688" style="stroke: #000000; stroke-width: 0.8"/>
      </g>
     </g>
     <g id="text_22">
      <!-- $\mathdefault{2^{16}}$ -->
      <g transform="translate(319.726512 508.713125) scale(0.1 -0.1)">
       <use xlink:href="#DejaVuSans-32" transform="translate(0 0.765625)"/>
       <use xlink:href="#DejaVuSans-31" transform="translate(64.580078 39.046875) scale(0.7)"/>
       <use xlink:href="#DejaVuSans-36" transform="translate(109.116211 39.046875) scale(0.7)"/>
      </g>
     </g>
    </g>
    <g id="xtick_22">
     <g id="line2d_32">
      <path d="M 372.367127 494.114688 
L 372.367127 50.594688 
" clip-path="url(#pfe0b4a5b5b)" style="fill: none; stroke: #b0b0b0; stroke-opacity: 0.4; stroke-width: 0.8; stroke-linecap: square"/>
     </g>
     <g id="line2d_33">
      <g>
       <use xlink:href="#mf9d4d546a2" x="372.367127" y="494.114688" style="stroke: #000000; stroke-width: 0.8"/>
      </g>
     </g>
     <g id="text_23">
      <!-- $\mathdefault{2^{18}}$ -->
      <g transform="translate(364.517127 508.713125) scale(0.1 -0.1)">
       <use xlink:href="#DejaVuSans-32" transform="translate(0 0.765625)"/>
       <use xlink:href="#DejaVuSans-31" transform="translate(64.580078 39.046875) scale(0.7)"/>
       <use xlink:href="#DejaVuSans-38" transform="translate(109.116211 39.046875) scale(0.7)"/>
      </g>
     </g>
    </g>
    <g id="xtick_23">
     <g id="line2d_34">
      <path d="M 417.157743 494.114688 
L 417.157743 50.594688 
" clip-path="url(#pfe0b4a5b5b)" style="fill: none; stroke: #b0b0b0; stroke-opacity: 0.4; stroke-width: 0.8; stroke-linecap: square"/>
     </g>
     <g id="line2d_35">
      <g>
       <use xlink:href="#mf9d4d546a2" x="417.157743" y="494.114688" style="stroke: #000000; stroke-width: 0.8"/>
      </g>
     </g>
     <g id="text_24">
      <!-- $\mathdefault{2^{20}}$ -->
      <g transform="translate(409.307743 508.713125) scale(0.1 -0.1)">
       <use xlink:href="#DejaVuSans-32" transform="translate(0 0.765625)"/>
       <use xlink:href="#DejaVuSans-32" transform="translate(64.580078 39.046875) scale(0.7)"/>
       <use xlink:href="#DejaVuSans-30" transform="translate(109.116211 39.046875) scale(0.7)"/>
      </g>
     </g>
    </g>
    <g id="xtick_24">
     <g id="line2d_36">
      <path d="M 461.948359 494.114688 
L 461.948359 50.594688 
" clip-path="url(#pfe0b4a5b5b)" style="fill: none; stroke: #b0b0b0; stroke-opacity: 0.4; stroke-width: 0.8; stroke-linecap: square"/>
     </g>
     <g id="line2d_37">
      <g>
       <use xlink:href="#mf9d4d546a2" x="461.948359" y="494.114688" style="stroke: #000000; stroke-width: 0.8"/>
      </g>
     </g>
     <g id="text_25">
      <!-- $\mathdefault{2^{22}}$ -->
      <g transform="translate(454.098359 508.713125) scale(0.1 -0.1)">
       <use xlink:href="#DejaVuSans-32" transform="translate(0 0.765625)"/>
       <use xlink:href="#DejaVuSans-32" transform="translate(64.580078 39.046875) scale(0.7)"/>
       <use xlink:href="#DejaVuSans-32" transform="translate(109.116211 39.046875) scale(0.7)"/>
      </g>
     </g>
    </g>
    <g id="xtick_25">
     <g id="line2d_38">
      <path d="M 506.738974 494.114688 
L 506.738974 50.594688 
" clip-path="url(#pfe0b4a5b5b)" style="fill: none; stroke: #b0b0b0; stroke-opacity: 0.4; stroke-width: 0.8; stroke-linecap: square"/>
     </g>
     <g id="line2d_39">
      <g>
       <use xlink:href="#mf9d4d546a2" x="506.738974" y="494.114688" style="stroke: #000000; stroke-width: 0.8"/>
      </g>
     </g>
     <g id="text_26">
      <!-- $\mathdefault{2^{24}}$ -->
      <g transform="translate(498.888974 508.713125) scale(0.1 -0.1)">
       <use xlink:href="#DejaVuSans-32" transform="translate(0 0.765625)"/>
       <use xlink:href="#DejaVuSans-32" transform="translate(64.580078 39.046875) scale(0.7)"/>
       <use xlink:href="#DejaVuSans-34" transform="translate(109.116211 39.046875) scale(0.7)"/>
      </g>
     </g>
    </g>
    <g id="xtick_26">
     <g id="line2d_40">
      <path d="M 551.52959 494.114688 
L 551.52959 50.594688 
" clip-path="url(#pfe0b4a5b5b)" style="fill: none; stroke: #b0b0b0; stroke-opacity: 0.4; stroke-width: 0.8; stroke-linecap: square"/>
     </g>
     <g id="line2d_41">
      <g>
       <use xlink:href="#mf9d4d546a2" x="551.52959" y="494.114688" style="stroke: #000000; stroke-width: 0.8"/>
      </g>
     </g>
     <g id="text_27">
      <!-- $\mathdefault{2^{26}}$ -->
      <g transform="translate(543.67959 508.713125) scale(0.1 -0.1)">
       <use xlink:href="#DejaVuSans-32" transform="translate(0 0.765625)"/>
       <use xlink:href="#DejaVuSans-32" transform="translate(64.580078 39.046875) scale(0.7)"/>
       <use xlink:href="#DejaVuSans-36" transform="translate(109.116211 39.046875) scale(0.7)"/>
      </g>
     </g>
    </g>
    <g id="xtick_27">
     <g id="line2d_42">
      <path d="M 596.320206 494.114688 
L 596.320206 50.594688 
" clip-path="url(#pfe0b4a5b5b)" style="fill: none; stroke: #b0b0b0; stroke-opacity: 0.4; stroke-width: 0.8; stroke-linecap: square"/>
     </g>
     <g id="line2d_43">
      <g>
       <use xlink:href="#mf9d4d546a2" x="596.320206" y="494.114688" style="stroke: #000000; stroke-width: 0.8"/>
      </g>
     </g>
     <g id="text_28">
      <!-- $\mathdefault{2^{28}}$ -->
      <g transform="translate(588.470206 508.713125) scale(0.1 -0.1)">
       <use xlink:href="#DejaVuSans-32" transform="translate(0 0.765625)"/>
       <use xlink:href="#DejaVuSans-32" transform="translate(64.580078 39.046875) scale(0.7)"/>
       <use xlink:href="#DejaVuSans-38" transform="translate(109.116211 39.046875) scale(0.7)"/>
      </g>
     </g>
    </g>
    <g id="xtick_28">
     <g id="line2d_44">
      <path d="M 641.110822 494.114688 
L 641.110822 50.594688 
" clip-path="url(#pfe0b4a5b5b)" style="fill: none; stroke: #b0b0b0; stroke-opacity: 0.4; stroke-width: 0.8; stroke-linecap: square"/>
     </g>
     <g id="line2d_45">
      <g>
       <use xlink:href="#mf9d4d546a2" x="641.110822" y="494.114688" style="stroke: #000000; stroke-width: 0.8"/>
      </g>
     </g>
     <g id="text_29">
      <!-- $\mathdefault{2^{30}}$ -->
      <g transform="translate(633.260822 508.713125) scale(0.1 -0.1)">
       <use xlink:href="#DejaVuSans-32" transform="translate(0 0.765625)"/>
       <use xlink:href="#DejaVuSans-33" transform="translate(64.580078 39.046875) scale(0.7)"/>
       <use xlink:href="#DejaVuSans-30" transform="translate(109.116211 39.046875) scale(0.7)"/>
      </g>
     </g>
    </g>
    <g id="text_30">
     <!-- Input size (bytes) -->
     <g transform="translate(316.732031 522.39125) scale(0.1 -0.1)">
      <defs>
       <path id="DejaVuSans-49" d="M 628 4666 
L 1259 4666 
L 1259 0 
L 628 0 
L 628 4666 
z
" transform="scale(0.015625)"/>
       <path id="DejaVuSans-70" d="M 1159 525 
L 1159 -1331 
L 581 -1331 
L 581 3500 
L 1159 3500 
L 1159 2969 
Q 1341 3281 1617 3432 
Q 1894 3584 2278 3584 
Q 2916 3584 3314 3078 
Q 3713 2572 3713 1747 
Q 3713 922 3314 415 
Q 2916 -91 2278 -91 
Q 1894 -91 1617 61 
Q 1341 213 1159 525 
z
M 3116 1747 
Q 3116 2381 2855 2742 
Q 2594 3103 2138 3103 
Q 1681 3103 1420 2742 
Q 1159 2381 1159 1747 
Q 1159 1113 1420 752 
Q 1681 391 2138 391 
Q 2594 391 2855 752 
Q 3116 1113 3116 1747 
z
" transform="scale(0.015625)"/>
       <path id="DejaVuSans-73" d="M 2834 3397 
L 2834 2853 
Q 2591 2978 2328 3040 
Q 2066 3103 1784 3103 
Q 1356 3103 1142 2972 
Q 928 2841 928 2578 
Q 928 2378 1081 2264 
Q 1234 2150 1697 2047 
L 1894 2003 
Q 2506 1872 2764 1633 
Q 3022 1394 3022 966 
Q 3022 478 2636 193 
Q 2250 -91 1575 -91 
Q 1294 -91 989 -36 
Q 684 19 347 128 
L 347 722 
Q 666 556 975 473 
Q 1284 391 1588 391 
Q 1994 391 2212 530 
Q 2431 669 2431 922 
Q 2431 1156 2273 1281 
Q 2116 1406 1581 1522 
L 1381 1569 
Q 847 1681 609 1914 
Q 372 2147 372 2553 
Q 372 3047 722 3315 
Q 1072 3584 1716 3584 
Q 2034 3584 2315 3537 
Q 2597 3491 2834 3397 
z
" transform="scale(0.015625)"/>
       <path id="DejaVuSans-69" d="M 603 3500 
L 1178 3500 
L 1178 0 
L 603 0 
L 603 3500 
z
M 603 4863 
L 1178 4863 
L 1178 4134 
L 603 4134 
L 603 4863 
z
" transform="scale(0.015625)"/>
       <path id="DejaVuSans-7a" d="M 353 3500 
L 3084 3500 
L 3084 2975 
L 922 459 
L 3084 459 
L 3084 0 
L 275 0 
L 275 525 
L 2438 3041 
L 353 3041 
L 353 3500 
z
" transform="scale(0.015625)"/>
       <path id="DejaVuSans-62" d="M 3116 1747 
Q 3116 2381 2855 2742 
Q 2594 3103 2138 3103 
Q 1681 3103 1420 2742 
Q 1159 2381 1159 1747 
Q 1159 1113 1420 752 
Q 1681 391 2138 391 
Q 2594 391 2855 752 
Q 3116 1113 3116 1747 
z
M 1159 2969 
Q 1341 3281 1617 3432 
Q 1894 3584 2278 3584 
Q 2916 3584 3314 3078 
Q 3713 2572 3713 1747 
Q 3713 922 3314 415 
Q 2916 -91 2278 -91 
Q 1894 -91 1617 61 
Q 1341 213 1159 525 
L 1159 0 
L 581 0 
L 581 4863 
L 1159 4863 
L 1159 2969 
z
" transform="scale(0.015625)"/>
      </defs>
      <use xlink:href="#DejaVuSans-49"/>
      <use xlink:href="#DejaVuSans-6e" x="29.492188"/>
      <use xlink:href="#DejaVuSans-70" x="92.871094"/>
      <use xlink:href="#DejaVuSans-75" x="156.347656"/>
      <use xlink:href="#DejaVuSans-74" x="219.726562"/>
      <use xlink:href="#DejaVuSans-20" x="258.935547"/>
      <use xlink:href="#DejaVuSans-73" x="290.722656"/>
      <use xlink:href="#DejaVuSans-69" x="342.822266"/>
      <use xlink:href="#DejaVuSans-7a" x="370.605469"/>
      <use xlink:href="#DejaVuSans-65" x="423.095703"/>
      <use xlink:href="#DejaVuSans-20" x="484.619141"/>
      <use xlink:href="#DejaVuSans-28" x="516.40625"/>
      <use xlink:href="#DejaVuSans-62" x="555.419922"/>
      <use xlink:href="#DejaVuSans-79" x="618.896484"/>
      <use xlink:href="#DejaVuSans-74" x="678.076172"/>
      <use xlink:href="#DejaVuSans-65" x="717.285156"/>
      <use xlink:href="#DejaVuSans-73" x="778.808594"/>
      <use xlink:href="#DejaVuSans-29" x="830.908203"/>
     </g>
    </g>
   </g>
   <g id="matplotlib.axis_4">
    <g id="ytick_1">
     <g id="line2d_46">
      <path d="M 53.328125 494.114688 
L 667.128125 494.114688 
" clip-path="url(#pfe0b4a5b5b)" style="fill: none; stroke: #b0b0b0; stroke-opacity: 0.4; stroke-width: 0.8; stroke-linecap: square"/>
     </g>
     <g id="line2d_47">
      <defs>
       <path id="m2e3414473f" d="M 0 0 
L -3.5 0 
" style="stroke: #000000; stroke-width: 0.8"/>
      </defs>
      <g>
       <use xlink:href="#m2e3414473f" x="53.328125" y="494.114688" style="stroke: #000000; stroke-width: 0.8"/>
      </g>
     </g>
     <g id="text_31">
      <!-- 0 -->
      <g transform="translate(39.965625 497.913906) scale(0.1 -0.1)">
       <use xlink:href="#DejaVuSans-30"/>
      </g>
     </g>
    </g>
    <g id="ytick_2">
     <g id="line2d_48">
      <path d="M 53.328125 434.978688 
L 667.128125 434.978688 
" clip-path="url(#pfe0b4a5b5b)" style="fill: none; stroke: #b0b0b0; stroke-opacity: 0.4; stroke-width: 0.8; stroke-linecap: square"/>
     </g>
     <g id="line2d_49">
      <g>
       <use xlink:href="#m2e3414473f" x="53.328125" y="434.978688" style="stroke: #000000; stroke-width: 0.8"/>
      </g>
     </g>
     <g id="text_32">
      <!-- 200 -->
      <g transform="translate(27.240625 438.777906) scale(0.1 -0.1)">
       <use xlink:href="#DejaVuSans-32"/>
       <use xlink:href="#DejaVuSans-30" x="63.623047"/>
       <use xlink:href="#DejaVuSans-30" x="127.246094"/>
      </g>
     </g>
    </g>
    <g id="ytick_3">
     <g id="line2d_50">
      <path d="M 53.328125 375.842688 
L 667.128125 375.842688 
" clip-path="url(#pfe0b4a5b5b)" style="fill: none; stroke: #b0b0b0; stroke-opacity: 0.4; stroke-width: 0.8; stroke-linecap: square"/>
     </g>
     <g id="line2d_51">
      <g>
       <use xlink:href="#m2e3414473f" x="53.328125" y="375.842688" style="stroke: #000000; stroke-width: 0.8"/>
      </g>
     </g>
     <g id="text_33">
      <!-- 400 -->
      <g transform="translate(27.240625 379.641906) scale(0.1 -0.1)">
       <use xlink:href="#DejaVuSans-34"/>
       <use xlink:href="#DejaVuSans-30" x="63.623047"/>
       <use xlink:href="#DejaVuSans-30" x="127.246094"/>
      </g>
     </g>
    </g>
    <g id="ytick_4">
     <g id="line2d_52">
      <path d="M 53.328125 316.706688 
L 667.128125 316.706688 
" clip-path="url(#pfe0b4a5b5b)" style="fill: none; stroke: #b0b0b0; stroke-opacity: 0.4; stroke-width: 0.8; stroke-linecap: square"/>
     </g>
     <g id="line2d_53">
      <g>
       <use xlink:href="#m2e3414473f" x="53.328125" y="316.706688" style="stroke: #000000; stroke-width: 0.8"/>
      </g>
     </g>
     <g id="text_34">
      <!-- 600 -->
      <g transform="translate(27.240625 320.505906) scale(0.1 -0.1)">
       <use xlink:href="#DejaVuSans-36"/>
       <use xlink:href="#DejaVuSans-30" x="63.623047"/>
       <use xlink:href="#DejaVuSans-30" x="127.246094"/>
      </g>
     </g>
    </g>
    <g id="ytick_5">
     <g id="line2d_54">
      <path d="M 53.328125 257.570688 
L 667.128125 257.570688 
" clip-path="url(#pfe0b4a5b5b)" style="fill: none; stroke: #b0b0b0; stroke-opacity: 0.4; stroke-width: 0.8; stroke-linecap: square"/>
     </g>
     <g id="line2d_55">
      <g>
       <use xlink:href="#m2e3414473f" x="53.328125" y="257.570688" style="stroke: #000000; stroke-width: 0.8"/>
      </g>
     </g>
     <g id="text_35">
      <!-- 800 -->
      <g transform="translate(27.240625 261.369906) scale(0.1 -0.1)">
       <use xlink:href="#DejaVuSans-38"/>
       <use xlink:href="#DejaVuSans-30" x="63.623047"/>
       <use xlink:href="#DejaVuSans-30" x="127.246094"/>
      </g>
     </g>
    </g>
    <g id="ytick_6">
     <g id="line2d_56">
      <path d="M 53.328125 198.434688 
L 667.128125 198.434688 
" clip-path="url(#pfe0b4a5b5b)" style="fill: none; stroke: #b0b0b0; stroke-opacity: 0.4; stroke-width: 0.8; stroke-linecap: square"/>
     </g>
     <g id="line2d_57">
      <g>
       <use xlink:href="#m2e3414473f" x="53.328125" y="198.434688" style="stroke: #000000; stroke-width: 0.8"/>
      </g>
     </g>
     <g id="text_36">
      <!-- 1000 -->
      <g transform="translate(20.878125 202.233906) scale(0.1 -0.1)">
       <use xlink:href="#DejaVuSans-31"/>
       <use xlink:href="#DejaVuSans-30" x="63.623047"/>
       <use xlink:href="#DejaVuSans-30" x="127.246094"/>
       <use xlink:href="#DejaVuSans-30" x="190.869141"/>
      </g>
     </g>
    </g>
    <g id="ytick_7">
     <g id="line2d_58">
      <path d="M 53.328125 139.298688 
L 667.128125 139.298688 
" clip-path="url(#pfe0b4a5b5b)" style="fill: none; stroke: #b0b0b0; stroke-opacity: 0.4; stroke-width: 0.8; stroke-linecap: square"/>
     </g>
     <g id="line2d_59">
      <g>
       <use xlink:href="#m2e3414473f" x="53.328125" y="139.298688" style="stroke: #000000; stroke-width: 0.8"/>
      </g>
     </g>
     <g id="text_37">
      <!-- 1200 -->
      <g transform="translate(20.878125 143.097906) scale(0.1 -0.1)">
       <use xlink:href="#DejaVuSans-31"/>
       <use xlink:href="#DejaVuSans-32" x="63.623047"/>
       <use xlink:href="#DejaVuSans-30" x="127.246094"/>
       <use xlink:href="#DejaVuSans-30" x="190.869141"/>
      </g>
     </g>
    </g>
    <g id="ytick_8">
     <g id="line2d_60">
      <path d="M 53.328125 80.162688 
L 667.128125 80.162688 
" clip-path="url(#pfe0b4a5b5b)" style="fill: none; stroke: #b0b0b0; stroke-opacity: 0.4; stroke-width: 0.8; stroke-linecap: square"/>
     </g>
     <g id="line2d_61">
      <g>
       <use xlink:href="#m2e3414473f" x="53.328125" y="80.162688" style="stroke: #000000; stroke-width: 0.8"/>
      </g>
     </g>
     <g id="text_38">
      <!-- 1400 -->
      <g transform="translate(20.878125 83.961906) scale(0.1 -0.1)">
       <use xlink:href="#DejaVuSans-31"/>
       <use xlink:href="#DejaVuSans-34" x="63.623047"/>
       <use xlink:href="#DejaVuSans-30" x="127.246094"/>
       <use xlink:href="#DejaVuSans-30" x="190.869141"/>
      </g>
     </g>
    </g>
    <g id="text_39">
     <!-- Inverse throughput (ns) -->
     <g transform="translate(14.798438 331.570313) rotate(-90) scale(0.1 -0.1)">
      <defs>
       <path id="DejaVuSans-76" d="M 191 3500 
L 800 3500 
L 1894 563 
L 2988 3500 
L 3597 3500 
L 2284 0 
L 1503 0 
L 191 3500 
z
" transform="scale(0.015625)"/>
       <path id="DejaVuSans-6f" d="M 1959 3097 
Q 1497 3097 1228 2736 
Q 959 2375 959 1747 
Q 959 1119 1226 758 
Q 1494 397 1959 397 
Q 2419 397 2687 759 
Q 2956 1122 2956 1747 
Q 2956 2369 2687 2733 
Q 2419 3097 1959 3097 
z
M 1959 3584 
Q 2709 3584 3137 3096 
Q 3566 2609 3566 1747 
Q 3566 888 3137 398 
Q 2709 -91 1959 -91 
Q 1206 -91 779 398 
Q 353 888 353 1747 
Q 353 2609 779 3096 
Q 1206 3584 1959 3584 
z
" transform="scale(0.015625)"/>
      </defs>
      <use xlink:href="#DejaVuSans-49"/>
      <use xlink:href="#DejaVuSans-6e" x="29.492188"/>
      <use xlink:href="#DejaVuSans-76" x="92.871094"/>
      <use xlink:href="#DejaVuSans-65" x="152.050781"/>
      <use xlink:href="#DejaVuSans-72" x="213.574219"/>
      <use xlink:href="#DejaVuSans-73" x="254.6875"/>
      <use xlink:href="#DejaVuSans-65" x="306.787109"/>
      <use xlink:href="#DejaVuSans-20" x="368.310547"/>
      <use xlink:href="#DejaVuSans-74" x="400.097656"/>
      <use xlink:href="#DejaVuSans-68" x="439.306641"/>
      <use xlink:href="#DejaVuSans-72" x="502.685547"/>
      <use xlink:href="#DejaVuSans-6f" x="541.548828"/>
      <use xlink:href="#DejaVuSans-75" x="602.730469"/>
      <use xlink:href="#DejaVuSans-67" x="666.109375"/>
      <use xlink:href="#DejaVuSans-68" x="729.585938"/>
      <use xlink:href="#DejaVuSans-70" x="792.964844"/>
      <use xlink:href="#DejaVuSans-75" x="856.441406"/>
      <use xlink:href="#DejaVuSans-74" x="919.820312"/>
      <use xlink:href="#DejaVuSans-20" x="959.029297"/>
      <use xlink:href="#DejaVuSans-28" x="990.816406"/>
      <use xlink:href="#DejaVuSans-6e" x="1029.830078"/>
      <use xlink:href="#DejaVuSans-73" x="1093.208984"/>
      <use xlink:href="#DejaVuSans-29" x="1145.308594"/>
     </g>
    </g>
   </g>
   <g id="line2d_62">
    <path d="M 81.228125 491.763516 
L 85.918898 491.274341 
L 90.774455 491.223242 
L 96.287298 491.251792 
L 100.995188 491.238965 
L 106.518766 490.419427 
L 111.63092 490.392905 
L 116.723848 490.376523 
L 121.704395 490.437253 
L 126.767259 490.352121 
L 131.783021 489.719876 
L 136.853944 489.637982 
L 142.014489 489.7137 
L 147.126643 489.728712 
L 152.219571 488.685072 
L 157.296135 488.679922 
L 162.345091 488.691284 
L 167.419221 488.739955 
L 172.529665 487.76182 
L 177.561457 487.718449 
L 182.666117 487.771448 
L 187.752668 487.800585 
L 192.8238 487.803603 
L 197.895437 487.034774 
L 202.961634 487.035597 
L 208.045327 486.980623 
L 213.108343 486.982945 
L 218.190974 486.310088 
L 223.26084 486.211137 
L 228.330164 486.144965 
L 233.409347 486.251865 
L 238.480677 485.37702 
L 243.554335 485.419087 
L 248.626779 485.425277 
L 253.696403 485.466053 
L 258.773153 485.423897 
L 263.843613 484.528824 
L 268.91719 484.547435 
L 273.989348 484.553369 
L 279.063338 484.519099 
L 284.135745 483.573772 
L 289.209912 483.66186 
L 294.281313 483.630505 
L 299.354691 483.570091 
L 304.428055 483.37302 
L 309.500602 481.413653 
L 314.573073 481.381831 
L 319.645965 481.262648 
L 324.718564 480.789428 
L 329.79131 479.022622 
L 334.864188 478.808436 
L 339.936896 478.534042 
L 345.009837 477.992644 
L 350.082556 475.879467 
L 355.155338 475.953724 
L 360.228108 475.642545 
L 365.300841 475.371401 
L 370.373548 475.197282 
L 375.446292 473.379255 
L 380.518971 473.415558 
L 385.591705 473.308375 
L 390.664427 472.802777 
L 395.737168 471.261334 
L 400.809906 469.898467 
L 405.88264 468.76258 
L 410.955384 467.724734 
L 416.028098 466.071875 
L 421.10085 464.28833 
L 426.173579 462.925922 
L 431.246302 462.350307 
L 436.319033 459.733073 
L 441.391756 458.724229 
L 446.464482 457.338649 
L 451.53721 453.4855 
L 456.609943 453.301874 
L 461.682672 447.721576 
L 466.755398 439.100461 
L 471.828126 426.475496 
L 476.900852 426.995831 
L 481.973579 417.514572 
L 487.046309 401.092483 
L 492.119036 394.239289 
L 497.191764 381.555096 
L 502.264492 379.883391 
L 507.337218 365.599 
L 512.409945 357.733232 
L 517.482672 350.439327 
L 522.555399 341.614704 
L 527.628126 342.477779 
L 532.700853 317.135478 
L 537.773582 313.160199 
L 542.84631 305.000853 
L 547.919038 303.775927 
L 552.991767 286.82307 
L 558.064493 274.664273 
L 563.137219 271.093365 
L 568.209946 265.586579 
L 573.282673 264.821464 
L 578.355401 239.346134 
L 583.428128 228.410678 
L 588.500856 226.489729 
L 593.573584 229.201565 
L 598.646309 206.150561 
L 603.719035 199.000263 
L 608.791762 195.867511 
L 613.86449 192.785515 
L 618.937216 175.022456 
L 624.009943 161.456276 
L 629.082671 158.560821 
L 634.155398 156.825433 
L 639.228125 156.081142 
" clip-path="url(#pfe0b4a5b5b)" style="fill: none; stroke: #ff7f0e; stroke-opacity: 0.3; stroke-width: 0.5; stroke-linecap: square"/>
   </g>
   <g id="line2d_63">
    <path d="M 81.228125 490.637072 
L 85.918898 489.112186 
L 90.774455 488.484507 
L 96.287298 490.5159 
L 100.995188 491.600696 
L 106.518766 490.211458 
L 111.63092 487.482161 
L 116.723848 489.011531 
L 121.704395 490.209942 
L 126.767259 490.574498 
L 131.783021 487.055287 
L 136.853944 486.591372 
L 142.014489 488.374859 
L 147.126643 489.786417 
L 152.219571 487.517266 
L 157.296135 484.736057 
L 162.345091 486.401034 
L 167.419221 488.303881 
L 172.529665 487.952919 
L 177.561457 484.864175 
L 182.666117 484.000862 
L 187.752668 486.324481 
L 192.8238 487.973473 
L 197.895437 484.621634 
L 202.961634 482.217308 
L 208.045327 484.216898 
L 213.108343 486.119459 
L 218.190974 485.035489 
L 223.26084 481.448228 
L 228.330164 482.091063 
L 233.409347 484.314514 
L 238.480677 485.43206 
L 243.554335 481.261805 
L 248.626779 479.481874 
L 253.696403 482.139062 
L 258.773153 484.211559 
L 263.843613 481.513457 
L 268.91719 477.289987 
L 273.989348 479.380523 
L 279.063338 482.150202 
L 284.135745 482.29003 
L 289.209912 477.911412 
L 294.281313 476.905129 
L 299.354691 480.025214 
L 304.428055 482.126539 
L 309.500602 478.009287 
L 314.573073 474.165449 
L 319.645965 476.986226 
L 324.718564 479.239462 
L 329.79131 478.195042 
L 334.864188 473.185955 
L 339.936896 472.808978 
L 345.009837 475.415082 
L 350.082556 477.173634 
L 355.155338 472.60515 
L 360.228108 468.737823 
L 365.300841 471.690888 
L 370.373548 474.154903 
L 375.446292 470.352325 
L 380.518971 466.275114 
L 385.591705 467.248227 
L 390.664427 469.960434 
L 395.737168 470.524809 
L 400.809906 464.282761 
L 405.88264 460.658952 
L 410.955384 462.824481 
L 416.028098 464.010253 
L 421.10085 459.929715 
L 426.173579 453.418539 
L 431.246302 454.293489 
L 436.319033 455.322174 
L 441.391756 455.375433 
L 446.464482 448.252405 
L 451.53721 442.162979 
L 456.609943 444.75623 
L 461.682672 445.686893 
L 466.755398 431.472694 
L 471.828126 418.991087 
L 476.900852 417.605974 
L 481.973579 408.919334 
L 487.046309 403.026541 
L 492.119036 389.084495 
L 497.191764 369.932249 
L 502.264492 374.487056 
L 507.337218 345.614299 
L 512.409945 355.640308 
L 517.482672 340.15215 
L 522.555399 338.391687 
L 527.628126 338.961197 
L 532.700853 329.418646 
L 537.773582 316.196667 
L 542.84631 296.359972 
L 547.919038 299.676573 
L 552.991767 297.838275 
L 558.064493 283.108221 
L 563.137219 256.76043 
L 568.209946 260.341729 
L 573.282673 263.049014 
L 578.355401 254.923717 
L 583.428128 228.427736 
L 588.500856 216.886839 
L 593.573584 225.099891 
L 598.646309 216.665255 
L 603.719035 207.543278 
L 608.791762 185.277241 
L 613.86449 182.060302 
L 618.937216 188.053247 
L 624.009943 167.784883 
L 629.082671 149.745343 
L 634.155398 147.885033 
L 639.228125 146.805087 
" clip-path="url(#pfe0b4a5b5b)" style="fill: none; stroke: #bcbd22; stroke-opacity: 0.3; stroke-width: 0.5; stroke-linecap: square"/>
   </g>
   <g id="line2d_64">
    <path d="M 81.228125 492.565931 
L 85.918898 492.094701 
L 90.774455 492.055511 
L 96.287298 492.081326 
L 100.995188 492.081207 
L 106.518766 491.511046 
L 111.63092 491.526367 
L 116.723848 491.518624 
L 121.704395 491.506261 
L 126.767259 491.512733 
L 131.783021 490.732921 
L 136.853944 490.741405 
L 142.014489 490.732792 
L 147.126643 490.733524 
L 152.219571 490.191992 
L 157.296135 490.181606 
L 162.345091 490.196108 
L 167.419221 490.199408 
L 172.529665 489.633762 
L 177.561457 489.638514 
L 182.666117 489.630592 
L 187.752668 489.636196 
L 192.8238 489.646735 
L 197.895437 488.622271 
L 202.961634 488.629238 
L 208.045327 488.620449 
L 213.108343 488.618605 
L 218.190974 487.725561 
L 223.26084 487.734886 
L 228.330164 487.779024 
L 233.409347 487.72295 
L 238.480677 487.105706 
L 243.554335 487.018513 
L 248.626779 487.088653 
L 253.696403 487.11811 
L 258.773153 487.114716 
L 263.843613 486.413661 
L 268.91719 486.425636 
L 273.989348 486.352355 
L 279.063338 486.36184 
L 284.135745 485.727966 
L 289.209912 485.72583 
L 294.281313 485.677949 
L 299.354691 485.619509 
L 304.428055 485.544677 
L 309.500602 484.409033 
L 314.573073 484.378753 
L 319.645965 484.234225 
L 324.718564 483.923729 
L 329.79131 482.641153 
L 334.864188 482.433429 
L 339.936896 482.226933 
L 345.009837 481.592379 
L 350.082556 479.857766 
L 355.155338 480.077856 
L 360.228108 479.765498 
L 365.300841 479.526426 
L 370.373548 479.209956 
L 375.446292 477.411224 
L 380.518971 477.367468 
L 385.591705 477.121926 
L 390.664427 476.588079 
L 395.737168 474.710335 
L 400.809906 473.343709 
L 405.88264 472.31277 
L 410.955384 471.033714 
L 416.028098 469.617272 
L 421.10085 467.247304 
L 426.173579 466.175257 
L 431.246302 465.187577 
L 436.319033 463.409893 
L 441.391756 462.098349 
L 446.464482 459.487089 
L 451.53721 456.810889 
L 456.609943 454.489381 
L 461.682672 454.291611 
L 466.755398 445.343101 
L 471.828126 438.811979 
L 476.900852 433.742864 
L 481.973579 427.809749 
L 487.046309 418.289921 
L 492.119036 411.633525 
L 497.191764 397.21706 
L 502.264492 400.495143 
L 507.337218 394.019076 
L 512.409945 389.708781 
L 517.482672 383.102667 
L 522.555399 372.697858 
L 527.628126 376.258772 
L 532.700853 361.612413 
L 537.773582 360.147678 
L 542.84631 353.057072 
L 547.919038 352.089906 
L 552.991767 338.069247 
L 558.064493 334.553612 
L 563.137219 331.59869 
L 568.209946 324.394784 
L 573.282673 327.636646 
L 578.355401 306.074214 
L 583.428128 300.789391 
L 588.500856 299.562243 
L 593.573584 299.037143 
L 598.646309 270.289697 
L 603.719035 267.934141 
L 608.791762 262.387123 
L 613.86449 262.421751 
L 618.937216 241.714102 
L 624.009943 232.409158 
L 629.082671 230.88204 
L 634.155398 230.291566 
L 639.228125 236.668476 
" clip-path="url(#pfe0b4a5b5b)" style="fill: none; stroke: #17becf; stroke-width: 2; stroke-linecap: square"/>
   </g>
   <g id="line2d_65">
    <path d="M 81.228125 492.155216 
L 85.918898 491.550549 
L 90.774455 491.559445 
L 96.287298 491.560291 
L 100.995188 491.556689 
L 106.518766 490.815686 
L 111.63092 490.810352 
L 116.723848 490.816426 
L 121.704395 490.808826 
L 126.767259 490.807147 
L 131.783021 490.125091 
L 136.853944 490.114073 
L 142.014489 490.140381 
L 147.126643 490.140059 
L 152.219571 489.171882 
L 157.296135 489.108369 
L 162.345091 489.132559 
L 167.419221 489.100327 
L 172.529665 488.400136 
L 177.561457 488.413889 
L 182.666117 488.411503 
L 187.752668 488.408524 
L 192.8238 488.41107 
L 197.895437 487.605702 
L 202.961634 487.614528 
L 208.045327 487.592316 
L 213.108343 487.574411 
L 218.190974 486.843469 
L 223.26084 486.845449 
L 228.330164 486.8403 
L 233.409347 486.845875 
L 238.480677 486.04956 
L 243.554335 486.055473 
L 248.626779 486.064543 
L 253.696403 486.078478 
L 258.773153 486.059989 
L 263.843613 485.021648 
L 268.91719 485.031289 
L 273.989348 484.980938 
L 279.063338 485.011879 
L 284.135745 483.796389 
L 289.209912 483.75266 
L 294.281313 483.781671 
L 299.354691 483.72483 
L 304.428055 483.677062 
L 309.500602 481.978569 
L 314.573073 481.982252 
L 319.645965 481.87056 
L 324.718564 481.659549 
L 329.79131 480.223003 
L 334.864188 479.97554 
L 339.936896 479.869445 
L 345.009837 479.415175 
L 350.082556 478.283138 
L 355.155338 478.306682 
L 360.228108 478.112411 
L 365.300841 477.831863 
L 370.373548 477.679067 
L 375.446292 476.205666 
L 380.518971 476.316486 
L 385.591705 476.180067 
L 390.664427 475.814186 
L 395.737168 474.235887 
L 400.809906 473.521145 
L 405.88264 473.004344 
L 410.955384 472.066826 
L 416.028098 471.479537 
L 421.10085 469.832772 
L 426.173579 469.466953 
L 431.246302 468.703146 
L 436.319033 467.899062 
L 441.391756 466.099139 
L 446.464482 466.055277 
L 451.53721 464.063442 
L 456.609943 462.796464 
L 461.682672 461.897032 
L 466.755398 453.006203 
L 471.828126 448.188334 
L 476.900852 444.614444 
L 481.973579 439.594694 
L 487.046309 429.719765 
L 492.119036 425.483816 
L 497.191764 418.539974 
L 502.264492 415.77364 
L 507.337218 408.009321 
L 512.409945 405.793831 
L 517.482672 402.473206 
L 522.555399 396.663586 
L 527.628126 393.17658 
L 532.700853 384.244361 
L 537.773582 383.918226 
L 542.84631 376.969068 
L 547.919038 374.874772 
L 552.991767 360.505826 
L 558.064493 363.261248 
L 563.137219 357.846773 
L 568.209946 357.370802 
L 573.282673 351.199935 
L 578.355401 348.114686 
L 583.428128 343.616261 
L 588.500856 338.073995 
L 593.573584 337.129548 
L 598.646309 328.080123 
L 603.719035 328.146042 
L 608.791762 323.309855 
L 613.86449 320.16025 
L 618.937216 311.346404 
L 624.009943 305.959869 
L 629.082671 304.920611 
L 634.155398 300.740118 
L 639.228125 297.689164 
" clip-path="url(#pfe0b4a5b5b)" style="fill: none; stroke: #1f77b4; stroke-width: 1.5; stroke-linecap: square"/>
   </g>
   <g id="line2d_66"/>
   <g id="line2d_67"/>
   <g id="line2d_68"/>
   <g id="line2d_69"/>
   <g id="line2d_70"/>
   <g id="line2d_71"/>
   <g id="line2d_72"/>
   <g id="patch_5">
    <path d="M 53.328125 494.114688 
L 53.328125 50.594688 
" style="fill: none; stroke: #000000; stroke-width: 0.8; stroke-linejoin: miter; stroke-linecap: square"/>
   </g>
   <g id="patch_6">
    <path d="M 667.128125 494.114688 
L 667.128125 50.594688 
" style="fill: none; stroke: #000000; stroke-width: 0.8; stroke-linejoin: miter; stroke-linecap: square"/>
   </g>
   <g id="patch_7">
    <path d="M 53.328125 494.114688 
L 667.128125 494.114688 
" style="fill: none; stroke: #000000; stroke-width: 0.8; stroke-linejoin: miter; stroke-linecap: square"/>
   </g>
   <g id="patch_8">
    <path d="M 53.328125 50.594688 
L 667.128125 50.594688 
" style="fill: none; stroke: #000000; stroke-width: 0.8; stroke-linejoin: miter; stroke-linecap: square"/>
   </g>
   <g id="text_40">
    <!-- L1  -->
    <g style="fill: #ff0000" transform="translate(290.068704 492.035) scale(0.1 -0.1)">
     <defs>
      <path id="DejaVuSans-4c" d="M 628 4666 
L 1259 4666 
L 1259 531 
L 3531 531 
L 3531 0 
L 628 0 
L 628 4666 
z
" transform="scale(0.015625)"/>
     </defs>
     <use xlink:href="#DejaVuSans-4c"/>
     <use xlink:href="#DejaVuSans-31" x="55.712891"/>
     <use xlink:href="#DejaVuSans-20" x="119.335938"/>
    </g>
   </g>
   <g id="text_41">
    <!-- L2  -->
    <g style="fill: #ff0000" transform="translate(379.649935 492.035) scale(0.1 -0.1)">
     <use xlink:href="#DejaVuSans-4c"/>
     <use xlink:href="#DejaVuSans-32" x="55.712891"/>
     <use xlink:href="#DejaVuSans-20" x="119.335938"/>
    </g>
   </g>
   <g id="text_42">
    <!-- L3  -->
    <g style="fill: #ff0000" transform="translate(446.835859 492.035) scale(0.1 -0.1)">
     <use xlink:href="#DejaVuSans-4c"/>
     <use xlink:href="#DejaVuSans-33" x="55.712891"/>
     <use xlink:href="#DejaVuSans-20" x="119.335938"/>
    </g>
   </g>
   <g id="text_43">
    <!-- RAM -->
    <g style="fill: #ff0000" transform="translate(617.210938 492.035) scale(0.1 -0.1)">
     <defs>
      <path id="DejaVuSans-52" d="M 2841 2188 
Q 3044 2119 3236 1894 
Q 3428 1669 3622 1275 
L 4263 0 
L 3584 0 
L 2988 1197 
Q 2756 1666 2539 1819 
Q 2322 1972 1947 1972 
L 1259 1972 
L 1259 0 
L 628 0 
L 628 4666 
L 2053 4666 
Q 2853 4666 3247 4331 
Q 3641 3997 3641 3322 
Q 3641 2881 3436 2590 
Q 3231 2300 2841 2188 
z
M 1259 4147 
L 1259 2491 
L 2053 2491 
Q 2509 2491 2742 2702 
Q 2975 2913 2975 3322 
Q 2975 3731 2742 3939 
Q 2509 4147 2053 4147 
L 1259 4147 
z
" transform="scale(0.015625)"/>
      <path id="DejaVuSans-4d" d="M 628 4666 
L 1569 4666 
L 2759 1491 
L 3956 4666 
L 4897 4666 
L 4897 0 
L 4281 0 
L 4281 4097 
L 3078 897 
L 2444 897 
L 1241 4097 
L 1241 0 
L 628 0 
L 628 4666 
z
" transform="scale(0.015625)"/>
     </defs>
     <use xlink:href="#DejaVuSans-52"/>
     <use xlink:href="#DejaVuSans-41" x="65.482422"/>
     <use xlink:href="#DejaVuSans-4d" x="133.890625"/>
    </g>
   </g>
   <g id="text_44">
    <!-- Branchless binary search with prefetch -->
    <g transform="translate(243.107188 16.318125) scale(0.12 -0.12)">
     <defs>
      <path id="DejaVuSans-42" d="M 1259 2228 
L 1259 519 
L 2272 519 
Q 2781 519 3026 730 
Q 3272 941 3272 1375 
Q 3272 1813 3026 2020 
Q 2781 2228 2272 2228 
L 1259 2228 
z
M 1259 4147 
L 1259 2741 
L 2194 2741 
Q 2656 2741 2882 2914 
Q 3109 3088 3109 3444 
Q 3109 3797 2882 3972 
Q 2656 4147 2194 4147 
L 1259 4147 
z
M 628 4666 
L 2241 4666 
Q 2963 4666 3353 4366 
Q 3744 4066 3744 3513 
Q 3744 3084 3544 2831 
Q 3344 2578 2956 2516 
Q 3422 2416 3680 2098 
Q 3938 1781 3938 1306 
Q 3938 681 3513 340 
Q 3088 0 2303 0 
L 628 0 
L 628 4666 
z
" transform="scale(0.015625)"/>
      <path id="DejaVuSans-63" d="M 3122 3366 
L 3122 2828 
Q 2878 2963 2633 3030 
Q 2388 3097 2138 3097 
Q 1578 3097 1268 2742 
Q 959 2388 959 1747 
Q 959 1106 1268 751 
Q 1578 397 2138 397 
Q 2388 397 2633 464 
Q 2878 531 3122 666 
L 3122 134 
Q 2881 22 2623 -34 
Q 2366 -91 2075 -91 
Q 1284 -91 818 406 
Q 353 903 353 1747 
Q 353 2603 823 3093 
Q 1294 3584 2113 3584 
Q 2378 3584 2631 3529 
Q 2884 3475 3122 3366 
z
" transform="scale(0.015625)"/>
      <path id="DejaVuSans-77" d="M 269 3500 
L 844 3500 
L 1563 769 
L 2278 3500 
L 2956 3500 
L 3675 769 
L 4391 3500 
L 4966 3500 
L 4050 0 
L 3372 0 
L 2619 2869 
L 1863 0 
L 1184 0 
L 269 3500 
z
" transform="scale(0.015625)"/>
      <path id="DejaVuSans-66" d="M 2375 4863 
L 2375 4384 
L 1825 4384 
Q 1516 4384 1395 4259 
Q 1275 4134 1275 3809 
L 1275 3500 
L 2222 3500 
L 2222 3053 
L 1275 3053 
L 1275 0 
L 697 0 
L 697 3053 
L 147 3053 
L 147 3500 
L 697 3500 
L 697 3744 
Q 697 4328 969 4595 
Q 1241 4863 1831 4863 
L 2375 4863 
z
" transform="scale(0.015625)"/>
     </defs>
     <use xlink:href="#DejaVuSans-42"/>
     <use xlink:href="#DejaVuSans-72" x="68.603516"/>
     <use xlink:href="#DejaVuSans-61" x="109.716797"/>
     <use xlink:href="#DejaVuSans-6e" x="170.996094"/>
     <use xlink:href="#DejaVuSans-63" x="234.375"/>
     <use xlink:href="#DejaVuSans-68" x="289.355469"/>
     <use xlink:href="#DejaVuSans-6c" x="352.734375"/>
     <use xlink:href="#DejaVuSans-65" x="380.517578"/>
     <use xlink:href="#DejaVuSans-73" x="442.041016"/>
     <use xlink:href="#DejaVuSans-73" x="494.140625"/>
     <use xlink:href="#DejaVuSans-20" x="546.240234"/>
     <use xlink:href="#DejaVuSans-62" x="578.027344"/>
     <use xlink:href="#DejaVuSans-69" x="641.503906"/>
     <use xlink:href="#DejaVuSans-6e" x="669.287109"/>
     <use xlink:href="#DejaVuSans-61" x="732.666016"/>
     <use xlink:href="#DejaVuSans-72" x="793.945312"/>
     <use xlink:href="#DejaVuSans-79" x="835.058594"/>
     <use xlink:href="#DejaVuSans-20" x="894.238281"/>
     <use xlink:href="#DejaVuSans-73" x="926.025391"/>
     <use xlink:href="#DejaVuSans-65" x="978.125"/>
     <use xlink:href="#DejaVuSans-61" x="1039.648438"/>
     <use xlink:href="#DejaVuSans-72" x="1100.927734"/>
     <use xlink:href="#DejaVuSans-63" x="1139.791016"/>
     <use xlink:href="#DejaVuSans-68" x="1194.771484"/>
     <use xlink:href="#DejaVuSans-20" x="1258.150391"/>
     <use xlink:href="#DejaVuSans-77" x="1289.9375"/>
     <use xlink:href="#DejaVuSans-69" x="1371.724609"/>
     <use xlink:href="#DejaVuSans-74" x="1399.507812"/>
     <use xlink:href="#DejaVuSans-68" x="1438.716797"/>
     <use xlink:href="#DejaVuSans-20" x="1502.095703"/>
     <use xlink:href="#DejaVuSans-70" x="1533.882812"/>
     <use xlink:href="#DejaVuSans-72" x="1597.359375"/>
     <use xlink:href="#DejaVuSans-65" x="1636.222656"/>
     <use xlink:href="#DejaVuSans-66" x="1697.746094"/>
     <use xlink:href="#DejaVuSans-65" x="1732.951172"/>
     <use xlink:href="#DejaVuSans-74" x="1794.474609"/>
     <use xlink:href="#DejaVuSans-63" x="1833.683594"/>
     <use xlink:href="#DejaVuSans-68" x="1888.664062"/>
    </g>
   </g>
   <g id="legend_1">
    <g id="patch_9">
     <path d="M 60.328125 118.419688 
L 325.545313 118.419688 
Q 327.545313 118.419688 327.545313 116.419688 
L 327.545313 57.594688 
Q 327.545313 55.594688 325.545313 55.594688 
L 60.328125 55.594688 
Q 58.328125 55.594688 58.328125 57.594688 
L 58.328125 116.419688 
Q 58.328125 118.419688 60.328125 118.419688 
L 60.328125 118.419688 
z
" style="fill: none; opacity: 0"/>
    </g>
    <g id="line2d_73">
     <path d="M 62.328125 63.693125 
L 72.328125 63.693125 
L 82.328125 63.693125 
" style="fill: none; stroke: #ff7f0e; stroke-opacity: 0.3; stroke-width: 1.5; stroke-linecap: square"/>
    </g>
    <g id="text_45">
     <!-- SortedVec::binary_search_std -->
     <g transform="translate(90.328125 67.193125) scale(0.1 -0.1)">
      <defs>
       <path id="DejaVuSans-53" d="M 3425 4513 
L 3425 3897 
Q 3066 4069 2747 4153 
Q 2428 4238 2131 4238 
Q 1616 4238 1336 4038 
Q 1056 3838 1056 3469 
Q 1056 3159 1242 3001 
Q 1428 2844 1947 2747 
L 2328 2669 
Q 3034 2534 3370 2195 
Q 3706 1856 3706 1288 
Q 3706 609 3251 259 
Q 2797 -91 1919 -91 
Q 1588 -91 1214 -16 
Q 841 59 441 206 
L 441 856 
Q 825 641 1194 531 
Q 1563 422 1919 422 
Q 2459 422 2753 634 
Q 3047 847 3047 1241 
Q 3047 1584 2836 1778 
Q 2625 1972 2144 2069 
L 1759 2144 
Q 1053 2284 737 2584 
Q 422 2884 422 3419 
Q 422 4038 858 4394 
Q 1294 4750 2059 4750 
Q 2388 4750 2728 4690 
Q 3069 4631 3425 4513 
z
" transform="scale(0.015625)"/>
       <path id="DejaVuSans-64" d="M 2906 2969 
L 2906 4863 
L 3481 4863 
L 3481 0 
L 2906 0 
L 2906 525 
Q 2725 213 2448 61 
Q 2172 -91 1784 -91 
Q 1150 -91 751 415 
Q 353 922 353 1747 
Q 353 2572 751 3078 
Q 1150 3584 1784 3584 
Q 2172 3584 2448 3432 
Q 2725 3281 2906 2969 
z
M 947 1747 
Q 947 1113 1208 752 
Q 1469 391 1925 391 
Q 2381 391 2643 752 
Q 2906 1113 2906 1747 
Q 2906 2381 2643 2742 
Q 2381 3103 1925 3103 
Q 1469 3103 1208 2742 
Q 947 2381 947 1747 
z
" transform="scale(0.015625)"/>
       <path id="DejaVuSans-56" d="M 1831 0 
L 50 4666 
L 709 4666 
L 2188 738 
L 3669 4666 
L 4325 4666 
L 2547 0 
L 1831 0 
z
" transform="scale(0.015625)"/>
       <path id="DejaVuSans-3a" d="M 750 794 
L 1409 794 
L 1409 0 
L 750 0 
L 750 794 
z
M 750 3309 
L 1409 3309 
L 1409 2516 
L 750 2516 
L 750 3309 
z
" transform="scale(0.015625)"/>
       <path id="DejaVuSans-5f" d="M 3263 -1063 
L 3263 -1509 
L -63 -1509 
L -63 -1063 
L 3263 -1063 
z
" transform="scale(0.015625)"/>
      </defs>
      <use xlink:href="#DejaVuSans-53"/>
      <use xlink:href="#DejaVuSans-6f" x="63.476562"/>
      <use xlink:href="#DejaVuSans-72" x="124.658203"/>
      <use xlink:href="#DejaVuSans-74" x="165.771484"/>
      <use xlink:href="#DejaVuSans-65" x="204.980469"/>
      <use xlink:href="#DejaVuSans-64" x="266.503906"/>
      <use xlink:href="#DejaVuSans-56" x="329.980469"/>
      <use xlink:href="#DejaVuSans-65" x="390.638672"/>
      <use xlink:href="#DejaVuSans-63" x="452.162109"/>
      <use xlink:href="#DejaVuSans-3a" x="507.142578"/>
      <use xlink:href="#DejaVuSans-3a" x="540.833984"/>
      <use xlink:href="#DejaVuSans-62" x="574.525391"/>
      <use xlink:href="#DejaVuSans-69" x="638.001953"/>
      <use xlink:href="#DejaVuSans-6e" x="665.785156"/>
      <use xlink:href="#DejaVuSans-61" x="729.164062"/>
      <use xlink:href="#DejaVuSans-72" x="790.443359"/>
      <use xlink:href="#DejaVuSans-79" x="831.556641"/>
      <use xlink:href="#DejaVuSans-5f" x="890.736328"/>
      <use xlink:href="#DejaVuSans-73" x="940.736328"/>
      <use xlink:href="#DejaVuSans-65" x="992.835938"/>
      <use xlink:href="#DejaVuSans-61" x="1054.359375"/>
      <use xlink:href="#DejaVuSans-72" x="1115.638672"/>
      <use xlink:href="#DejaVuSans-63" x="1154.501953"/>
      <use xlink:href="#DejaVuSans-68" x="1209.482422"/>
      <use xlink:href="#DejaVuSans-5f" x="1272.861328"/>
      <use xlink:href="#DejaVuSans-73" x="1322.861328"/>
      <use xlink:href="#DejaVuSans-74" x="1374.960938"/>
      <use xlink:href="#DejaVuSans-64" x="1414.169922"/>
     </g>
    </g>
    <g id="line2d_74">
     <path d="M 62.328125 78.649375 
L 72.328125 78.649375 
L 82.328125 78.649375 
" style="fill: none; stroke: #bcbd22; stroke-opacity: 0.3; stroke-width: 1.5; stroke-linecap: square"/>
    </g>
    <g id="text_46">
     <!-- SortedVec::binary_search -->
     <g transform="translate(90.328125 82.149375) scale(0.1 -0.1)">
      <use xlink:href="#DejaVuSans-53"/>
      <use xlink:href="#DejaVuSans-6f" x="63.476562"/>
      <use xlink:href="#DejaVuSans-72" x="124.658203"/>
      <use xlink:href="#DejaVuSans-74" x="165.771484"/>
      <use xlink:href="#DejaVuSans-65" x="204.980469"/>
      <use xlink:href="#DejaVuSans-64" x="266.503906"/>
      <use xlink:href="#DejaVuSans-56" x="329.980469"/>
      <use xlink:href="#DejaVuSans-65" x="390.638672"/>
      <use xlink:href="#DejaVuSans-63" x="452.162109"/>
      <use xlink:href="#DejaVuSans-3a" x="507.142578"/>
      <use xlink:href="#DejaVuSans-3a" x="540.833984"/>
      <use xlink:href="#DejaVuSans-62" x="574.525391"/>
      <use xlink:href="#DejaVuSans-69" x="638.001953"/>
      <use xlink:href="#DejaVuSans-6e" x="665.785156"/>
      <use xlink:href="#DejaVuSans-61" x="729.164062"/>
      <use xlink:href="#DejaVuSans-72" x="790.443359"/>
      <use xlink:href="#DejaVuSans-79" x="831.556641"/>
      <use xlink:href="#DejaVuSans-5f" x="890.736328"/>
      <use xlink:href="#DejaVuSans-73" x="940.736328"/>
      <use xlink:href="#DejaVuSans-65" x="992.835938"/>
      <use xlink:href="#DejaVuSans-61" x="1054.359375"/>
      <use xlink:href="#DejaVuSans-72" x="1115.638672"/>
      <use xlink:href="#DejaVuSans-63" x="1154.501953"/>
      <use xlink:href="#DejaVuSans-68" x="1209.482422"/>
     </g>
    </g>
    <g id="line2d_75">
     <path d="M 62.328125 93.605625 
L 72.328125 93.605625 
L 82.328125 93.605625 
" style="fill: none; stroke: #17becf; stroke-width: 1.5; stroke-linecap: square"/>
    </g>
    <g id="text_47">
     <!-- SortedVec::binary_search_branchless -->
     <g transform="translate(90.328125 97.105625) scale(0.1 -0.1)">
      <use xlink:href="#DejaVuSans-53"/>
      <use xlink:href="#DejaVuSans-6f" x="63.476562"/>
      <use xlink:href="#DejaVuSans-72" x="124.658203"/>
      <use xlink:href="#DejaVuSans-74" x="165.771484"/>
      <use xlink:href="#DejaVuSans-65" x="204.980469"/>
      <use xlink:href="#DejaVuSans-64" x="266.503906"/>
      <use xlink:href="#DejaVuSans-56" x="329.980469"/>
      <use xlink:href="#DejaVuSans-65" x="390.638672"/>
      <use xlink:href="#DejaVuSans-63" x="452.162109"/>
      <use xlink:href="#DejaVuSans-3a" x="507.142578"/>
      <use xlink:href="#DejaVuSans-3a" x="540.833984"/>
      <use xlink:href="#DejaVuSans-62" x="574.525391"/>
      <use xlink:href="#DejaVuSans-69" x="638.001953"/>
      <use xlink:href="#DejaVuSans-6e" x="665.785156"/>
      <use xlink:href="#DejaVuSans-61" x="729.164062"/>
      <use xlink:href="#DejaVuSans-72" x="790.443359"/>
      <use xlink:href="#DejaVuSans-79" x="831.556641"/>
      <use xlink:href="#DejaVuSans-5f" x="890.736328"/>
      <use xlink:href="#DejaVuSans-73" x="940.736328"/>
      <use xlink:href="#DejaVuSans-65" x="992.835938"/>
      <use xlink:href="#DejaVuSans-61" x="1054.359375"/>
      <use xlink:href="#DejaVuSans-72" x="1115.638672"/>
      <use xlink:href="#DejaVuSans-63" x="1154.501953"/>
      <use xlink:href="#DejaVuSans-68" x="1209.482422"/>
      <use xlink:href="#DejaVuSans-5f" x="1272.861328"/>
      <use xlink:href="#DejaVuSans-62" x="1322.861328"/>
      <use xlink:href="#DejaVuSans-72" x="1386.337891"/>
      <use xlink:href="#DejaVuSans-61" x="1427.451172"/>
      <use xlink:href="#DejaVuSans-6e" x="1488.730469"/>
      <use xlink:href="#DejaVuSans-63" x="1552.109375"/>
      <use xlink:href="#DejaVuSans-68" x="1607.089844"/>
      <use xlink:href="#DejaVuSans-6c" x="1670.46875"/>
      <use xlink:href="#DejaVuSans-65" x="1698.251953"/>
      <use xlink:href="#DejaVuSans-73" x="1759.775391"/>
      <use xlink:href="#DejaVuSans-73" x="1811.875"/>
     </g>
    </g>
    <g id="line2d_76">
     <path d="M 62.328125 108.561875 
L 72.328125 108.561875 
L 82.328125 108.561875 
" style="fill: none; stroke: #1f77b4; stroke-width: 1.5; stroke-linecap: square"/>
    </g>
    <g id="text_48">
     <!-- SortedVec::binary_search_branchless_prefetch -->
     <g transform="translate(90.328125 112.061875) scale(0.1 -0.1)">
      <use xlink:href="#DejaVuSans-53"/>
      <use xlink:href="#DejaVuSans-6f" x="63.476562"/>
      <use xlink:href="#DejaVuSans-72" x="124.658203"/>
      <use xlink:href="#DejaVuSans-74" x="165.771484"/>
      <use xlink:href="#DejaVuSans-65" x="204.980469"/>
      <use xlink:href="#DejaVuSans-64" x="266.503906"/>
      <use xlink:href="#DejaVuSans-56" x="329.980469"/>
      <use xlink:href="#DejaVuSans-65" x="390.638672"/>
      <use xlink:href="#DejaVuSans-63" x="452.162109"/>
      <use xlink:href="#DejaVuSans-3a" x="507.142578"/>
      <use xlink:href="#DejaVuSans-3a" x="540.833984"/>
      <use xlink:href="#DejaVuSans-62" x="574.525391"/>
      <use xlink:href="#DejaVuSans-69" x="638.001953"/>
      <use xlink:href="#DejaVuSans-6e" x="665.785156"/>
      <use xlink:href="#DejaVuSans-61" x="729.164062"/>
      <use xlink:href="#DejaVuSans-72" x="790.443359"/>
      <use xlink:href="#DejaVuSans-79" x="831.556641"/>
      <use xlink:href="#DejaVuSans-5f" x="890.736328"/>
      <use xlink:href="#DejaVuSans-73" x="940.736328"/>
      <use xlink:href="#DejaVuSans-65" x="992.835938"/>
      <use xlink:href="#DejaVuSans-61" x="1054.359375"/>
      <use xlink:href="#DejaVuSans-72" x="1115.638672"/>
      <use xlink:href="#DejaVuSans-63" x="1154.501953"/>
      <use xlink:href="#DejaVuSans-68" x="1209.482422"/>
      <use xlink:href="#DejaVuSans-5f" x="1272.861328"/>
      <use xlink:href="#DejaVuSans-62" x="1322.861328"/>
      <use xlink:href="#DejaVuSans-72" x="1386.337891"/>
      <use xlink:href="#DejaVuSans-61" x="1427.451172"/>
      <use xlink:href="#DejaVuSans-6e" x="1488.730469"/>
      <use xlink:href="#DejaVuSans-63" x="1552.109375"/>
      <use xlink:href="#DejaVuSans-68" x="1607.089844"/>
      <use xlink:href="#DejaVuSans-6c" x="1670.46875"/>
      <use xlink:href="#DejaVuSans-65" x="1698.251953"/>
      <use xlink:href="#DejaVuSans-73" x="1759.775391"/>
      <use xlink:href="#DejaVuSans-73" x="1811.875"/>
      <use xlink:href="#DejaVuSans-5f" x="1863.974609"/>
      <use xlink:href="#DejaVuSans-70" x="1913.974609"/>
      <use xlink:href="#DejaVuSans-72" x="1977.451172"/>
      <use xlink:href="#DejaVuSans-65" x="2016.314453"/>
      <use xlink:href="#DejaVuSans-66" x="2077.837891"/>
      <use xlink:href="#DejaVuSans-65" x="2113.042969"/>
      <use xlink:href="#DejaVuSans-74" x="2174.566406"/>
      <use xlink:href="#DejaVuSans-63" x="2213.775391"/>
      <use xlink:href="#DejaVuSans-68" x="2268.755859"/>
     </g>
    </g>
   </g>
  </g>
 </g>
 <defs>
  <clipPath id="pfe0b4a5b5b">
   <rect x="53.328125" y="50.594688" width="613.8" height="443.52"/>
  </clipPath>
 </defs>
</svg>
