<?xml version="1.0" encoding="utf-8" standalone="no"?>
<!DOCTYPE svg PUBLIC "-//W3C//DTD SVG 1.1//EN"
  "http://www.w3.org/Graphics/SVG/1.1/DTD/svg11.dtd">
<svg xmlns:xlink="http://www.w3.org/1999/xlink" width="667.965625pt" height="531.670938pt" viewBox="0 0 667.965625 531.670938" xmlns="http://www.w3.org/2000/svg" version="1.1">
 <metadata>
  <rdf:RDF xmlns:dc="http://purl.org/dc/elements/1.1/" xmlns:cc="http://creativecommons.org/ns#" xmlns:rdf="http://www.w3.org/1999/02/22-rdf-syntax-ns#">
   <cc:Work>
    <dc:type rdf:resource="http://purl.org/dc/dcmitype/StillImage"/>
    <dc:date>2025-03-02T13:12:30.634677</dc:date>
    <dc:format>image/svg+xml</dc:format>
    <dc:creator>
     <cc:Agent>
      <dc:title>Matplotlib v3.9.2, https://matplotlib.org/</dc:title>
     </cc:Agent>
    </dc:creator>
   </cc:Work>
  </rdf:RDF>
 </metadata>
 <defs>
  <style type="text/css">*{stroke-linejoin: round; stroke-linecap: butt}</style>
 </defs>
 <g id="figure_1">
  <g id="patch_1">
   <path d="M -0 531.670938 
L 667.965625 531.670938 
L 667.965625 0 
L -0 0 
z
" style="fill: #ffffff"/>
  </g>
  <g id="axes_1">
   <g id="patch_2">
    <path d="M 46.965625 494.114688 
L 660.765625 494.114688 
L 660.765625 50.594688 
L 46.965625 50.594688 
z
" style="fill: #ffffff"/>
   </g>
   <g id="line2d_1">
    <path d="M 298.818704 494.114688 
L 298.818704 50.594688 
" clip-path="url(#pc772c505e9)" style="fill: none; stroke-dasharray: 5.55,2.4; stroke-dashoffset: 0; stroke: #ff0000; stroke-width: 1.5"/>
   </g>
   <g id="line2d_2">
    <path d="M 388.399935 494.114688 
L 388.399935 50.594688 
" clip-path="url(#pc772c505e9)" style="fill: none; stroke-dasharray: 5.55,2.4; stroke-dashoffset: 0; stroke: #ff0000; stroke-width: 1.5"/>
   </g>
   <g id="line2d_3">
    <path d="M 455.585859 494.114688 
L 455.585859 50.594688 
" clip-path="url(#pc772c505e9)" style="fill: none; stroke-dasharray: 5.55,2.4; stroke-dashoffset: 0; stroke: #ff0000; stroke-width: 1.5"/>
   </g>
   <g id="axes_2">
    <g id="patch_3">
     <path d="M 46.965625 50.594688 
L 660.765625 50.594688 
L 660.765625 50.594687 
L 46.965625 50.594687 
z
" style="fill: #ffffff"/>
    </g>
    <g id="matplotlib.axis_1">
     <g id="xtick_1">
      <g id="line2d_4">
       <defs>
        <path id="m3b01926e47" d="M 0 0 
L 0 -3.5 
" style="stroke: #000000; stroke-width: 0.8"/>
       </defs>
       <g>
        <use xlink:href="#m3b01926e47" x="52.470317" y="50.594687" style="stroke: #000000; stroke-width: 0.8"/>
       </g>
      </g>
      <g id="text_1">
       <!-- $\mathdefault{2^{2}}$ -->
       <g transform="translate(46.870317 41.515) scale(0.1 -0.1)">
        <defs>
         <path id="DejaVuSans-32" d="M 1228 531 
L 3431 531 
L 3431 0 
L 469 0 
L 469 531 
Q 828 903 1448 1529 
Q 2069 2156 2228 2338 
Q 2531 2678 2651 2914 
Q 2772 3150 2772 3378 
Q 2772 3750 2511 3984 
Q 2250 4219 1831 4219 
Q 1534 4219 1204 4116 
Q 875 4013 500 3803 
L 500 4441 
Q 881 4594 1212 4672 
Q 1544 4750 1819 4750 
Q 2544 4750 2975 4387 
Q 3406 4025 3406 3419 
Q 3406 3131 3298 2873 
Q 3191 2616 2906 2266 
Q 2828 2175 2409 1742 
Q 1991 1309 1228 531 
z
" transform="scale(0.015625)"/>
        </defs>
        <use xlink:href="#DejaVuSans-32" transform="translate(0 0.765625)"/>
        <use xlink:href="#DejaVuSans-32" transform="translate(64.580078 39.046875) scale(0.7)"/>
       </g>
      </g>
     </g>
     <g id="xtick_2">
      <g id="line2d_5">
       <g>
        <use xlink:href="#m3b01926e47" x="97.260933" y="50.594687" style="stroke: #000000; stroke-width: 0.8"/>
       </g>
      </g>
      <g id="text_2">
       <!-- $\mathdefault{2^{4}}$ -->
       <g transform="translate(91.660933 41.515) scale(0.1 -0.1)">
        <defs>
         <path id="DejaVuSans-34" d="M 2419 4116 
L 825 1625 
L 2419 1625 
L 2419 4116 
z
M 2253 4666 
L 3047 4666 
L 3047 1625 
L 3713 1625 
L 3713 1100 
L 3047 1100 
L 3047 0 
L 2419 0 
L 2419 1100 
L 313 1100 
L 313 1709 
L 2253 4666 
z
" transform="scale(0.015625)"/>
        </defs>
        <use xlink:href="#DejaVuSans-32" transform="translate(0 0.684375)"/>
        <use xlink:href="#DejaVuSans-34" transform="translate(64.580078 38.965625) scale(0.7)"/>
       </g>
      </g>
     </g>
     <g id="xtick_3">
      <g id="line2d_6">
       <g>
        <use xlink:href="#m3b01926e47" x="142.051549" y="50.594687" style="stroke: #000000; stroke-width: 0.8"/>
       </g>
      </g>
      <g id="text_3">
       <!-- $\mathdefault{2^{6}}$ -->
       <g transform="translate(136.451549 41.515) scale(0.1 -0.1)">
        <defs>
         <path id="DejaVuSans-36" d="M 2113 2584 
Q 1688 2584 1439 2293 
Q 1191 2003 1191 1497 
Q 1191 994 1439 701 
Q 1688 409 2113 409 
Q 2538 409 2786 701 
Q 3034 994 3034 1497 
Q 3034 2003 2786 2293 
Q 2538 2584 2113 2584 
z
M 3366 4563 
L 3366 3988 
Q 3128 4100 2886 4159 
Q 2644 4219 2406 4219 
Q 1781 4219 1451 3797 
Q 1122 3375 1075 2522 
Q 1259 2794 1537 2939 
Q 1816 3084 2150 3084 
Q 2853 3084 3261 2657 
Q 3669 2231 3669 1497 
Q 3669 778 3244 343 
Q 2819 -91 2113 -91 
Q 1303 -91 875 529 
Q 447 1150 447 2328 
Q 447 3434 972 4092 
Q 1497 4750 2381 4750 
Q 2619 4750 2861 4703 
Q 3103 4656 3366 4563 
z
" transform="scale(0.015625)"/>
        </defs>
        <use xlink:href="#DejaVuSans-32" transform="translate(0 0.765625)"/>
        <use xlink:href="#DejaVuSans-36" transform="translate(64.580078 39.046875) scale(0.7)"/>
       </g>
      </g>
     </g>
     <g id="xtick_4">
      <g id="line2d_7">
       <g>
        <use xlink:href="#m3b01926e47" x="186.842164" y="50.594687" style="stroke: #000000; stroke-width: 0.8"/>
       </g>
      </g>
      <g id="text_4">
       <!-- $\mathdefault{2^{8}}$ -->
       <g transform="translate(181.242164 41.515) scale(0.1 -0.1)">
        <defs>
         <path id="DejaVuSans-38" d="M 2034 2216 
Q 1584 2216 1326 1975 
Q 1069 1734 1069 1313 
Q 1069 891 1326 650 
Q 1584 409 2034 409 
Q 2484 409 2743 651 
Q 3003 894 3003 1313 
Q 3003 1734 2745 1975 
Q 2488 2216 2034 2216 
z
M 1403 2484 
Q 997 2584 770 2862 
Q 544 3141 544 3541 
Q 544 4100 942 4425 
Q 1341 4750 2034 4750 
Q 2731 4750 3128 4425 
Q 3525 4100 3525 3541 
Q 3525 3141 3298 2862 
Q 3072 2584 2669 2484 
Q 3125 2378 3379 2068 
Q 3634 1759 3634 1313 
Q 3634 634 3220 271 
Q 2806 -91 2034 -91 
Q 1263 -91 848 271 
Q 434 634 434 1313 
Q 434 1759 690 2068 
Q 947 2378 1403 2484 
z
M 1172 3481 
Q 1172 3119 1398 2916 
Q 1625 2713 2034 2713 
Q 2441 2713 2670 2916 
Q 2900 3119 2900 3481 
Q 2900 3844 2670 4047 
Q 2441 4250 2034 4250 
Q 1625 4250 1398 4047 
Q 1172 3844 1172 3481 
z
" transform="scale(0.015625)"/>
        </defs>
        <use xlink:href="#DejaVuSans-32" transform="translate(0 0.765625)"/>
        <use xlink:href="#DejaVuSans-38" transform="translate(64.580078 39.046875) scale(0.7)"/>
       </g>
      </g>
     </g>
     <g id="xtick_5">
      <g id="line2d_8">
       <g>
        <use xlink:href="#m3b01926e47" x="231.63278" y="50.594687" style="stroke: #000000; stroke-width: 0.8"/>
       </g>
      </g>
      <g id="text_5">
       <!-- $\mathdefault{2^{10}}$ -->
       <g transform="translate(223.78278 41.515) scale(0.1 -0.1)">
        <defs>
         <path id="DejaVuSans-31" d="M 794 531 
L 1825 531 
L 1825 4091 
L 703 3866 
L 703 4441 
L 1819 4666 
L 2450 4666 
L 2450 531 
L 3481 531 
L 3481 0 
L 794 0 
L 794 531 
z
" transform="scale(0.015625)"/>
         <path id="DejaVuSans-30" d="M 2034 4250 
Q 1547 4250 1301 3770 
Q 1056 3291 1056 2328 
Q 1056 1369 1301 889 
Q 1547 409 2034 409 
Q 2525 409 2770 889 
Q 3016 1369 3016 2328 
Q 3016 3291 2770 3770 
Q 2525 4250 2034 4250 
z
M 2034 4750 
Q 2819 4750 3233 4129 
Q 3647 3509 3647 2328 
Q 3647 1150 3233 529 
Q 2819 -91 2034 -91 
Q 1250 -91 836 529 
Q 422 1150 422 2328 
Q 422 3509 836 4129 
Q 1250 4750 2034 4750 
z
" transform="scale(0.015625)"/>
        </defs>
        <use xlink:href="#DejaVuSans-32" transform="translate(0 0.765625)"/>
        <use xlink:href="#DejaVuSans-31" transform="translate(64.580078 39.046875) scale(0.7)"/>
        <use xlink:href="#DejaVuSans-30" transform="translate(109.116211 39.046875) scale(0.7)"/>
       </g>
      </g>
     </g>
     <g id="xtick_6">
      <g id="line2d_9">
       <g>
        <use xlink:href="#m3b01926e47" x="276.423396" y="50.594687" style="stroke: #000000; stroke-width: 0.8"/>
       </g>
      </g>
      <g id="text_6">
       <!-- $\mathdefault{2^{12}}$ -->
       <g transform="translate(268.573396 41.515) scale(0.1 -0.1)">
        <use xlink:href="#DejaVuSans-32" transform="translate(0 0.765625)"/>
        <use xlink:href="#DejaVuSans-31" transform="translate(64.580078 39.046875) scale(0.7)"/>
        <use xlink:href="#DejaVuSans-32" transform="translate(109.116211 39.046875) scale(0.7)"/>
       </g>
      </g>
     </g>
     <g id="xtick_7">
      <g id="line2d_10">
       <g>
        <use xlink:href="#m3b01926e47" x="321.214012" y="50.594687" style="stroke: #000000; stroke-width: 0.8"/>
       </g>
      </g>
      <g id="text_7">
       <!-- $\mathdefault{2^{14}}$ -->
       <g transform="translate(313.364012 41.515) scale(0.1 -0.1)">
        <use xlink:href="#DejaVuSans-32" transform="translate(0 0.684375)"/>
        <use xlink:href="#DejaVuSans-31" transform="translate(64.580078 38.965625) scale(0.7)"/>
        <use xlink:href="#DejaVuSans-34" transform="translate(109.116211 38.965625) scale(0.7)"/>
       </g>
      </g>
     </g>
     <g id="xtick_8">
      <g id="line2d_11">
       <g>
        <use xlink:href="#m3b01926e47" x="366.004627" y="50.594687" style="stroke: #000000; stroke-width: 0.8"/>
       </g>
      </g>
      <g id="text_8">
       <!-- $\mathdefault{2^{16}}$ -->
       <g transform="translate(358.154627 41.515) scale(0.1 -0.1)">
        <use xlink:href="#DejaVuSans-32" transform="translate(0 0.765625)"/>
        <use xlink:href="#DejaVuSans-31" transform="translate(64.580078 39.046875) scale(0.7)"/>
        <use xlink:href="#DejaVuSans-36" transform="translate(109.116211 39.046875) scale(0.7)"/>
       </g>
      </g>
     </g>
     <g id="xtick_9">
      <g id="line2d_12">
       <g>
        <use xlink:href="#m3b01926e47" x="410.795243" y="50.594687" style="stroke: #000000; stroke-width: 0.8"/>
       </g>
      </g>
      <g id="text_9">
       <!-- $\mathdefault{2^{18}}$ -->
       <g transform="translate(402.945243 41.515) scale(0.1 -0.1)">
        <use xlink:href="#DejaVuSans-32" transform="translate(0 0.765625)"/>
        <use xlink:href="#DejaVuSans-31" transform="translate(64.580078 39.046875) scale(0.7)"/>
        <use xlink:href="#DejaVuSans-38" transform="translate(109.116211 39.046875) scale(0.7)"/>
       </g>
      </g>
     </g>
     <g id="xtick_10">
      <g id="line2d_13">
       <g>
        <use xlink:href="#m3b01926e47" x="455.585859" y="50.594687" style="stroke: #000000; stroke-width: 0.8"/>
       </g>
      </g>
      <g id="text_10">
       <!-- $\mathdefault{2^{20}}$ -->
       <g transform="translate(447.735859 41.515) scale(0.1 -0.1)">
        <use xlink:href="#DejaVuSans-32" transform="translate(0 0.765625)"/>
        <use xlink:href="#DejaVuSans-32" transform="translate(64.580078 39.046875) scale(0.7)"/>
        <use xlink:href="#DejaVuSans-30" transform="translate(109.116211 39.046875) scale(0.7)"/>
       </g>
      </g>
     </g>
     <g id="xtick_11">
      <g id="line2d_14">
       <g>
        <use xlink:href="#m3b01926e47" x="500.376474" y="50.594687" style="stroke: #000000; stroke-width: 0.8"/>
       </g>
      </g>
      <g id="text_11">
       <!-- $\mathdefault{2^{22}}$ -->
       <g transform="translate(492.526474 41.515) scale(0.1 -0.1)">
        <use xlink:href="#DejaVuSans-32" transform="translate(0 0.765625)"/>
        <use xlink:href="#DejaVuSans-32" transform="translate(64.580078 39.046875) scale(0.7)"/>
        <use xlink:href="#DejaVuSans-32" transform="translate(109.116211 39.046875) scale(0.7)"/>
       </g>
      </g>
     </g>
     <g id="xtick_12">
      <g id="line2d_15">
       <g>
        <use xlink:href="#m3b01926e47" x="545.16709" y="50.594687" style="stroke: #000000; stroke-width: 0.8"/>
       </g>
      </g>
      <g id="text_12">
       <!-- $\mathdefault{2^{24}}$ -->
       <g transform="translate(537.31709 41.515) scale(0.1 -0.1)">
        <use xlink:href="#DejaVuSans-32" transform="translate(0 0.765625)"/>
        <use xlink:href="#DejaVuSans-32" transform="translate(64.580078 39.046875) scale(0.7)"/>
        <use xlink:href="#DejaVuSans-34" transform="translate(109.116211 39.046875) scale(0.7)"/>
       </g>
      </g>
     </g>
     <g id="xtick_13">
      <g id="line2d_16">
       <g>
        <use xlink:href="#m3b01926e47" x="589.957706" y="50.594687" style="stroke: #000000; stroke-width: 0.8"/>
       </g>
      </g>
      <g id="text_13">
       <!-- $\mathdefault{2^{26}}$ -->
       <g transform="translate(582.107706 41.515) scale(0.1 -0.1)">
        <use xlink:href="#DejaVuSans-32" transform="translate(0 0.765625)"/>
        <use xlink:href="#DejaVuSans-32" transform="translate(64.580078 39.046875) scale(0.7)"/>
        <use xlink:href="#DejaVuSans-36" transform="translate(109.116211 39.046875) scale(0.7)"/>
       </g>
      </g>
     </g>
     <g id="xtick_14">
      <g id="line2d_17">
       <g>
        <use xlink:href="#m3b01926e47" x="634.748322" y="50.594687" style="stroke: #000000; stroke-width: 0.8"/>
       </g>
      </g>
      <g id="text_14">
       <!-- $\mathdefault{2^{28}}$ -->
       <g transform="translate(626.898322 41.515) scale(0.1 -0.1)">
        <use xlink:href="#DejaVuSans-32" transform="translate(0 0.765625)"/>
        <use xlink:href="#DejaVuSans-32" transform="translate(64.580078 39.046875) scale(0.7)"/>
        <use xlink:href="#DejaVuSans-38" transform="translate(109.116211 39.046875) scale(0.7)"/>
       </g>
      </g>
     </g>
     <g id="text_15">
      <!-- Array length (u32) -->
      <g transform="translate(307.85 29.916562) scale(0.1 -0.1)">
       <defs>
        <path id="DejaVuSans-41" d="M 2188 4044 
L 1331 1722 
L 3047 1722 
L 2188 4044 
z
M 1831 4666 
L 2547 4666 
L 4325 0 
L 3669 0 
L 3244 1197 
L 1141 1197 
L 716 0 
L 50 0 
L 1831 4666 
z
" transform="scale(0.015625)"/>
        <path id="DejaVuSans-72" d="M 2631 2963 
Q 2534 3019 2420 3045 
Q 2306 3072 2169 3072 
Q 1681 3072 1420 2755 
Q 1159 2438 1159 1844 
L 1159 0 
L 581 0 
L 581 3500 
L 1159 3500 
L 1159 2956 
Q 1341 3275 1631 3429 
Q 1922 3584 2338 3584 
Q 2397 3584 2469 3576 
Q 2541 3569 2628 3553 
L 2631 2963 
z
" transform="scale(0.015625)"/>
        <path id="DejaVuSans-61" d="M 2194 1759 
Q 1497 1759 1228 1600 
Q 959 1441 959 1056 
Q 959 750 1161 570 
Q 1363 391 1709 391 
Q 2188 391 2477 730 
Q 2766 1069 2766 1631 
L 2766 1759 
L 2194 1759 
z
M 3341 1997 
L 3341 0 
L 2766 0 
L 2766 531 
Q 2569 213 2275 61 
Q 1981 -91 1556 -91 
Q 1019 -91 701 211 
Q 384 513 384 1019 
Q 384 1609 779 1909 
Q 1175 2209 1959 2209 
L 2766 2209 
L 2766 2266 
Q 2766 2663 2505 2880 
Q 2244 3097 1772 3097 
Q 1472 3097 1187 3025 
Q 903 2953 641 2809 
L 641 3341 
Q 956 3463 1253 3523 
Q 1550 3584 1831 3584 
Q 2591 3584 2966 3190 
Q 3341 2797 3341 1997 
z
" transform="scale(0.015625)"/>
        <path id="DejaVuSans-79" d="M 2059 -325 
Q 1816 -950 1584 -1140 
Q 1353 -1331 966 -1331 
L 506 -1331 
L 506 -850 
L 844 -850 
Q 1081 -850 1212 -737 
Q 1344 -625 1503 -206 
L 1606 56 
L 191 3500 
L 800 3500 
L 1894 763 
L 2988 3500 
L 3597 3500 
L 2059 -325 
z
" transform="scale(0.015625)"/>
        <path id="DejaVuSans-20" transform="scale(0.015625)"/>
        <path id="DejaVuSans-6c" d="M 603 4863 
L 1178 4863 
L 1178 0 
L 603 0 
L 603 4863 
z
" transform="scale(0.015625)"/>
        <path id="DejaVuSans-65" d="M 3597 1894 
L 3597 1613 
L 953 1613 
Q 991 1019 1311 708 
Q 1631 397 2203 397 
Q 2534 397 2845 478 
Q 3156 559 3463 722 
L 3463 178 
Q 3153 47 2828 -22 
Q 2503 -91 2169 -91 
Q 1331 -91 842 396 
Q 353 884 353 1716 
Q 353 2575 817 3079 
Q 1281 3584 2069 3584 
Q 2775 3584 3186 3129 
Q 3597 2675 3597 1894 
z
M 3022 2063 
Q 3016 2534 2758 2815 
Q 2500 3097 2075 3097 
Q 1594 3097 1305 2825 
Q 1016 2553 972 2059 
L 3022 2063 
z
" transform="scale(0.015625)"/>
        <path id="DejaVuSans-6e" d="M 3513 2113 
L 3513 0 
L 2938 0 
L 2938 2094 
Q 2938 2591 2744 2837 
Q 2550 3084 2163 3084 
Q 1697 3084 1428 2787 
Q 1159 2491 1159 1978 
L 1159 0 
L 581 0 
L 581 3500 
L 1159 3500 
L 1159 2956 
Q 1366 3272 1645 3428 
Q 1925 3584 2291 3584 
Q 2894 3584 3203 3211 
Q 3513 2838 3513 2113 
z
" transform="scale(0.015625)"/>
        <path id="DejaVuSans-67" d="M 2906 1791 
Q 2906 2416 2648 2759 
Q 2391 3103 1925 3103 
Q 1463 3103 1205 2759 
Q 947 2416 947 1791 
Q 947 1169 1205 825 
Q 1463 481 1925 481 
Q 2391 481 2648 825 
Q 2906 1169 2906 1791 
z
M 3481 434 
Q 3481 -459 3084 -895 
Q 2688 -1331 1869 -1331 
Q 1566 -1331 1297 -1286 
Q 1028 -1241 775 -1147 
L 775 -588 
Q 1028 -725 1275 -790 
Q 1522 -856 1778 -856 
Q 2344 -856 2625 -561 
Q 2906 -266 2906 331 
L 2906 616 
Q 2728 306 2450 153 
Q 2172 0 1784 0 
Q 1141 0 747 490 
Q 353 981 353 1791 
Q 353 2603 747 3093 
Q 1141 3584 1784 3584 
Q 2172 3584 2450 3431 
Q 2728 3278 2906 2969 
L 2906 3500 
L 3481 3500 
L 3481 434 
z
" transform="scale(0.015625)"/>
        <path id="DejaVuSans-74" d="M 1172 4494 
L 1172 3500 
L 2356 3500 
L 2356 3053 
L 1172 3053 
L 1172 1153 
Q 1172 725 1289 603 
Q 1406 481 1766 481 
L 2356 481 
L 2356 0 
L 1766 0 
Q 1100 0 847 248 
Q 594 497 594 1153 
L 594 3053 
L 172 3053 
L 172 3500 
L 594 3500 
L 594 4494 
L 1172 4494 
z
" transform="scale(0.015625)"/>
        <path id="DejaVuSans-68" d="M 3513 2113 
L 3513 0 
L 2938 0 
L 2938 2094 
Q 2938 2591 2744 2837 
Q 2550 3084 2163 3084 
Q 1697 3084 1428 2787 
Q 1159 2491 1159 1978 
L 1159 0 
L 581 0 
L 581 4863 
L 1159 4863 
L 1159 2956 
Q 1366 3272 1645 3428 
Q 1925 3584 2291 3584 
Q 2894 3584 3203 3211 
Q 3513 2838 3513 2113 
z
" transform="scale(0.015625)"/>
        <path id="DejaVuSans-28" d="M 1984 4856 
Q 1566 4138 1362 3434 
Q 1159 2731 1159 2009 
Q 1159 1288 1364 580 
Q 1569 -128 1984 -844 
L 1484 -844 
Q 1016 -109 783 600 
Q 550 1309 550 2009 
Q 550 2706 781 3412 
Q 1013 4119 1484 4856 
L 1984 4856 
z
" transform="scale(0.015625)"/>
        <path id="DejaVuSans-75" d="M 544 1381 
L 544 3500 
L 1119 3500 
L 1119 1403 
Q 1119 906 1312 657 
Q 1506 409 1894 409 
Q 2359 409 2629 706 
Q 2900 1003 2900 1516 
L 2900 3500 
L 3475 3500 
L 3475 0 
L 2900 0 
L 2900 538 
Q 2691 219 2414 64 
Q 2138 -91 1772 -91 
Q 1169 -91 856 284 
Q 544 659 544 1381 
z
M 1991 3584 
L 1991 3584 
z
" transform="scale(0.015625)"/>
        <path id="DejaVuSans-33" d="M 2597 2516 
Q 3050 2419 3304 2112 
Q 3559 1806 3559 1356 
Q 3559 666 3084 287 
Q 2609 -91 1734 -91 
Q 1441 -91 1130 -33 
Q 819 25 488 141 
L 488 750 
Q 750 597 1062 519 
Q 1375 441 1716 441 
Q 2309 441 2620 675 
Q 2931 909 2931 1356 
Q 2931 1769 2642 2001 
Q 2353 2234 1838 2234 
L 1294 2234 
L 1294 2753 
L 1863 2753 
Q 2328 2753 2575 2939 
Q 2822 3125 2822 3475 
Q 2822 3834 2567 4026 
Q 2313 4219 1838 4219 
Q 1578 4219 1281 4162 
Q 984 4106 628 3988 
L 628 4550 
Q 988 4650 1302 4700 
Q 1616 4750 1894 4750 
Q 2613 4750 3031 4423 
Q 3450 4097 3450 3541 
Q 3450 3153 3228 2886 
Q 3006 2619 2597 2516 
z
" transform="scale(0.015625)"/>
        <path id="DejaVuSans-29" d="M 513 4856 
L 1013 4856 
Q 1481 4119 1714 3412 
Q 1947 2706 1947 2009 
Q 1947 1309 1714 600 
Q 1481 -109 1013 -844 
L 513 -844 
Q 928 -128 1133 580 
Q 1338 1288 1338 2009 
Q 1338 2731 1133 3434 
Q 928 4138 513 4856 
z
" transform="scale(0.015625)"/>
       </defs>
       <use xlink:href="#DejaVuSans-41"/>
       <use xlink:href="#DejaVuSans-72" x="68.408203"/>
       <use xlink:href="#DejaVuSans-72" x="107.771484"/>
       <use xlink:href="#DejaVuSans-61" x="148.884766"/>
       <use xlink:href="#DejaVuSans-79" x="210.164062"/>
       <use xlink:href="#DejaVuSans-20" x="269.34375"/>
       <use xlink:href="#DejaVuSans-6c" x="301.130859"/>
       <use xlink:href="#DejaVuSans-65" x="328.914062"/>
       <use xlink:href="#DejaVuSans-6e" x="390.4375"/>
       <use xlink:href="#DejaVuSans-67" x="453.816406"/>
       <use xlink:href="#DejaVuSans-74" x="517.292969"/>
       <use xlink:href="#DejaVuSans-68" x="556.501953"/>
       <use xlink:href="#DejaVuSans-20" x="619.880859"/>
       <use xlink:href="#DejaVuSans-28" x="651.667969"/>
       <use xlink:href="#DejaVuSans-75" x="690.681641"/>
       <use xlink:href="#DejaVuSans-33" x="754.060547"/>
       <use xlink:href="#DejaVuSans-32" x="817.683594"/>
       <use xlink:href="#DejaVuSans-29" x="881.306641"/>
      </g>
     </g>
    </g>
    <g id="matplotlib.axis_2"/>
    <g id="patch_4">
     <path d="M 46.965625 50.594687 
L 660.765625 50.594687 
" style="fill: none; stroke: #000000; stroke-width: 0.8; stroke-linejoin: miter; stroke-linecap: square"/>
    </g>
   </g>
   <g id="PolyCollection_1">
    <defs>
     <path id="m7cbea13648" d="M 74.865625 -46.790933 
L 74.865625 -46.746839 
L 79.556398 -46.761832 
L 84.411955 -46.757837 
L 89.924798 -46.74155 
L 94.632688 -46.755374 
L 100.156266 -46.737248 
L 105.26842 -46.721824 
L 110.361348 -46.778737 
L 115.341895 -46.774122 
L 120.404759 -48.517712 
L 125.420521 -48.512051 
L 130.491444 -48.534374 
L 135.651989 -48.489086 
L 140.764143 -48.530808 
L 145.857071 -51.181338 
L 150.933635 -51.207321 
L 155.982591 -51.169808 
L 161.056721 -51.153656 
L 166.167165 -53.811487 
L 171.198957 -53.731053 
L 176.303617 -53.739229 
L 181.390168 -53.729602 
L 186.4613 -53.737837 
L 191.532937 -55.656268 
L 196.599134 -55.660528 
L 201.682827 -55.669611 
L 206.745843 -55.6489 
L 211.828474 -57.351261 
L 216.89834 -57.346133 
L 221.967664 -57.345657 
L 227.046847 -57.370634 
L 232.118177 -59.327647 
L 237.191835 -59.321907 
L 242.264279 -59.312099 
L 247.333903 -59.31129 
L 252.410653 -59.295581 
L 257.481113 -61.496857 
L 262.55469 -61.454961 
L 267.626848 -61.490974 
L 272.700838 -61.465872 
L 277.773245 -64.880791 
L 282.847412 -64.882776 
L 287.918813 -64.833741 
L 292.992191 -64.67015 
L 298.065555 -64.682917 
L 303.138102 -68.591643 
L 308.210573 -68.729278 
L 313.283465 -68.683145 
L 318.356064 -68.780978 
L 323.42881 -72.295414 
L 328.501688 -72.29789 
L 333.574396 -72.074523 
L 338.647337 -72.264656 
L 343.720056 -74.191966 
L 348.792838 -75.965115 
L 353.865608 -75.992903 
L 358.938341 -76.023996 
L 364.011048 -76.014131 
L 369.083792 -79.624399 
L 374.156471 -79.459657 
L 379.229205 -79.639817 
L 384.301927 -79.58184 
L 389.374668 -83.053325 
L 394.447406 -83.14334 
L 399.52014 -83.098983 
L 404.592884 -83.196041 
L 409.665598 -83.440587 
L 414.73835 -86.385777 
L 419.811079 -86.159752 
L 424.883802 -86.32777 
L 429.956533 -86.290582 
L 435.029256 -90.874856 
L 440.101982 -92.719283 
L 445.17471 -94.109603 
L 450.247443 -100.431694 
L 455.320172 -98.301284 
L 460.392898 -117.841229 
L 465.465626 -121.263214 
L 470.538352 -125.302073 
L 475.611079 -127.755868 
L 480.683809 -137.009618 
L 485.756536 -139.480632 
L 490.829264 -141.091429 
L 495.901992 -138.242989 
L 500.974718 -155.697984 
L 506.047445 -156.036841 
L 511.120172 -158.182173 
L 516.192899 -160.199731 
L 521.265626 -160.088939 
L 526.338353 -172.389945 
L 531.411082 -174.223902 
L 536.48381 -176.561526 
L 541.556538 -176.356666 
L 546.629267 -188.310511 
L 551.701993 -191.248192 
L 556.774719 -191.080323 
L 561.847446 -193.472686 
L 566.920173 -194.453607 
L 571.992901 -210.998003 
L 577.065628 -213.136628 
L 582.138356 -213.923917 
L 587.211084 -217.236488 
L 592.283809 -230.854131 
L 597.356535 -230.903681 
L 602.429262 -232.341586 
L 607.50199 -232.98839 
L 612.574716 -246.717499 
L 617.647443 -250.080875 
L 622.720171 -250.616521 
L 627.792898 -249.96529 
L 632.865625 -251.566289 
L 632.865625 -258.11416 
L 632.865625 -258.11416 
L 627.792898 -252.94003 
L 622.720171 -252.309931 
L 617.647443 -252.785612 
L 612.574716 -247.685418 
L 607.50199 -236.7037 
L 602.429262 -234.11931 
L 597.356535 -236.827594 
L 592.283809 -231.119253 
L 587.211084 -218.360071 
L 582.138356 -216.060484 
L 577.065628 -213.894425 
L 571.992901 -213.808229 
L 566.920173 -195.948452 
L 561.847446 -194.853732 
L 556.774719 -193.05716 
L 551.701993 -191.661932 
L 546.629267 -188.877385 
L 541.556538 -177.726693 
L 536.48381 -176.950249 
L 531.411082 -175.192676 
L 526.338353 -173.983773 
L 521.265626 -161.057073 
L 516.192899 -160.898456 
L 511.120172 -158.844641 
L 506.047445 -157.281279 
L 500.974718 -155.870578 
L 495.901992 -143.392023 
L 490.829264 -141.599513 
L 485.756536 -140.029252 
L 480.683809 -137.641283 
L 475.611079 -128.579959 
L 470.538352 -127.160869 
L 465.465626 -124.289649 
L 460.392898 -119.926389 
L 455.320172 -101.894284 
L 450.247443 -116.518511 
L 445.17471 -97.134999 
L 440.101982 -96.611721 
L 435.029256 -93.034911 
L 429.956533 -88.183684 
L 424.883802 -87.118548 
L 419.811079 -86.813196 
L 414.73835 -86.718168 
L 409.665598 -83.61564 
L 404.592884 -83.340759 
L 399.52014 -83.189921 
L 394.447406 -83.234993 
L 389.374668 -83.27003 
L 384.301927 -79.640114 
L 379.229205 -79.886274 
L 374.156471 -79.620202 
L 369.083792 -79.803053 
L 364.011048 -76.24979 
L 358.938341 -76.114559 
L 353.865608 -76.08953 
L 348.792838 -76.300865 
L 343.720056 -76.222712 
L 338.647337 -72.625781 
L 333.574396 -72.398643 
L 328.501688 -72.401757 
L 323.42881 -72.473258 
L 318.356064 -68.892717 
L 313.283465 -68.811577 
L 308.210573 -68.81211 
L 303.138102 -68.812672 
L 298.065555 -64.86883 
L 292.992191 -64.914682 
L 287.918813 -65.050568 
L 282.847412 -64.942957 
L 277.773245 -64.9761 
L 272.700838 -61.510524 
L 267.626848 -61.631711 
L 262.55469 -61.53036 
L 257.481113 -61.507452 
L 252.410653 -59.329648 
L 247.333903 -59.421501 
L 242.264279 -59.510427 
L 237.191835 -59.407704 
L 232.118177 -59.529446 
L 227.046847 -57.375811 
L 221.967664 -57.365269 
L 216.89834 -57.417892 
L 211.828474 -57.495628 
L 206.745843 -55.661819 
L 201.682827 -55.787058 
L 196.599134 -55.689281 
L 191.532937 -55.713227 
L 186.4613 -53.767486 
L 181.390168 -53.784841 
L 176.303617 -53.911071 
L 171.198957 -53.771243 
L 166.167165 -53.830329 
L 161.056721 -51.32475 
L 155.982591 -51.270925 
L 150.933635 -51.320568 
L 145.857071 -51.20271 
L 140.764143 -48.544515 
L 135.651989 -48.534876 
L 130.491444 -48.560156 
L 125.420521 -48.540525 
L 120.404759 -48.564334 
L 115.341895 -46.897834 
L 110.361348 -46.824996 
L 105.26842 -46.791854 
L 100.156266 -46.77273 
L 94.632688 -46.769136 
L 89.924798 -46.790825 
L 84.411955 -46.842666 
L 79.556398 -46.792972 
L 74.865625 -46.790933 
z
" style="stroke: #2ca02c; stroke-opacity: 0.2"/>
    </defs>
    <g clip-path="url(#pc772c505e9)">
     <use xlink:href="#m7cbea13648" x="0" y="531.670938" style="fill: #2ca02c; fill-opacity: 0.2; stroke: #2ca02c; stroke-opacity: 0.2"/>
    </g>
   </g>
   <g id="PolyCollection_2">
    <defs>
     <path id="m995b3c39d3" d="M 74.865625 -43.239623 
L 74.865625 -43.200312 
L 79.556398 -43.195564 
L 84.411955 -43.205813 
L 89.924798 -43.212011 
L 94.632688 -43.197926 
L 100.156266 -43.879627 
L 105.26842 -43.860985 
L 110.361348 -43.861926 
L 115.341895 -43.88038 
L 120.404759 -44.492795 
L 125.420521 -44.485904 
L 130.491444 -44.499848 
L 135.651989 -44.479079 
L 140.764143 -44.475066 
L 145.857071 -45.115395 
L 150.933635 -45.069905 
L 155.982591 -45.067436 
L 161.056721 -45.065415 
L 166.167165 -45.75833 
L 171.198957 -45.701805 
L 176.303617 -45.676875 
L 181.390168 -45.681194 
L 186.4613 -45.673972 
L 191.532937 -46.300992 
L 196.599134 -46.287189 
L 201.682827 -46.292453 
L 206.745843 -46.290794 
L 211.828474 -46.878474 
L 216.89834 -46.946721 
L 221.967664 -46.920582 
L 227.046847 -46.931702 
L 232.118177 -47.490106 
L 237.191835 -47.497875 
L 242.264279 -47.499949 
L 247.333903 -47.519477 
L 252.410653 -47.531072 
L 257.481113 -48.118037 
L 262.55469 -48.126528 
L 267.626848 -48.170742 
L 272.700838 -48.188481 
L 277.773245 -48.799028 
L 282.847412 -48.851493 
L 287.918813 -48.940296 
L 292.992191 -48.994237 
L 298.065555 -49.096632 
L 303.138102 -49.820976 
L 308.210573 -50.070949 
L 313.283465 -50.25742 
L 318.356064 -50.54473 
L 323.42881 -51.164426 
L 328.501688 -51.298139 
L 333.574396 -51.478669 
L 338.647337 -51.665965 
L 343.720056 -52.312209 
L 348.792838 -52.443293 
L 353.865608 -52.576591 
L 358.938341 -52.680139 
L 364.011048 -52.883542 
L 369.083792 -53.417285 
L 374.156471 -53.673354 
L 379.229205 -53.720834 
L 384.301927 -54.154213 
L 389.374668 -54.944199 
L 394.447406 -55.570132 
L 399.52014 -56.098134 
L 404.592884 -56.459275 
L 409.665598 -57.105323 
L 414.73835 -57.084633 
L 419.811079 -57.543405 
L 424.883802 -57.804275 
L 429.956533 -58.128182 
L 435.029256 -58.668253 
L 440.101982 -59.031136 
L 445.17471 -59.901247 
L 450.247443 -61.512677 
L 455.320172 -65.545322 
L 460.392898 -66.720134 
L 465.465626 -71.42297 
L 470.538352 -73.432827 
L 475.611079 -74.819264 
L 480.683809 -73.217849 
L 485.756536 -77.634563 
L 490.829264 -79.095062 
L 495.901992 -79.766436 
L 500.974718 -74.439254 
L 506.047445 -82.12399 
L 511.120172 -83.378542 
L 516.192899 -84.034281 
L 521.265626 -84.565549 
L 526.338353 -85.323241 
L 531.411082 -88.214469 
L 536.48381 -89.099807 
L 541.556538 -89.267316 
L 546.629267 -86.82212 
L 551.701993 -92.501491 
L 556.774719 -93.637159 
L 561.847446 -93.910897 
L 566.920173 -94.798648 
L 571.992901 -96.260685 
L 577.065628 -99.270638 
L 582.138356 -98.593315 
L 587.211084 -99.268892 
L 592.283809 -98.476116 
L 597.356535 -102.643933 
L 602.429262 -103.068683 
L 607.50199 -104.331699 
L 612.574716 -96.817324 
L 617.647443 -106.214216 
L 622.720171 -107.569982 
L 627.792898 -107.831455 
L 632.865625 -108.797991 
L 632.865625 -114.405146 
L 632.865625 -114.405146 
L 627.792898 -109.844827 
L 622.720171 -110.728774 
L 617.647443 -107.087203 
L 612.574716 -98.638989 
L 607.50199 -105.675238 
L 602.429262 -104.287412 
L 597.356535 -103.244211 
L 592.283809 -98.970239 
L 587.211084 -100.299317 
L 582.138356 -98.88185 
L 577.065628 -100.494518 
L 571.992901 -96.308533 
L 566.920173 -95.018721 
L 561.847446 -95.854616 
L 556.774719 -96.858469 
L 551.701993 -92.622458 
L 546.629267 -87.152438 
L 541.556538 -89.838424 
L 536.48381 -89.238886 
L 531.411082 -88.559253 
L 526.338353 -85.56115 
L 521.265626 -90.437407 
L 516.192899 -85.07984 
L 511.120172 -83.569684 
L 506.047445 -82.478191 
L 500.974718 -74.668773 
L 495.901992 -80.001067 
L 490.829264 -79.399198 
L 485.756536 -77.798882 
L 480.683809 -74.288759 
L 475.611079 -75.412794 
L 470.538352 -75.92618 
L 465.465626 -76.364342 
L 460.392898 -71.88977 
L 455.320172 -66.756154 
L 450.247443 -62.640991 
L 445.17471 -62.463943 
L 440.101982 -59.544683 
L 435.029256 -59.727539 
L 429.956533 -58.866551 
L 424.883802 -58.083261 
L 419.811079 -57.873992 
L 414.73835 -57.209787 
L 409.665598 -57.583196 
L 404.592884 -56.682854 
L 399.52014 -56.394387 
L 394.447406 -55.785544 
L 389.374668 -55.074557 
L 384.301927 -54.183174 
L 379.229205 -53.760725 
L 374.156471 -53.691636 
L 369.083792 -53.476102 
L 364.011048 -52.991131 
L 358.938341 -52.76329 
L 353.865608 -52.680351 
L 348.792838 -52.664534 
L 343.720056 -52.352714 
L 338.647337 -51.726203 
L 333.574396 -51.509106 
L 328.501688 -51.353298 
L 323.42881 -51.229451 
L 318.356064 -50.740853 
L 313.283465 -50.310542 
L 308.210573 -50.321276 
L 303.138102 -49.930551 
L 298.065555 -49.166245 
L 292.992191 -49.014907 
L 287.918813 -48.98494 
L 282.847412 -48.890331 
L 277.773245 -48.898891 
L 272.700838 -48.57711 
L 267.626848 -48.34307 
L 262.55469 -48.209556 
L 257.481113 -48.157024 
L 252.410653 -47.591931 
L 247.333903 -47.643488 
L 242.264279 -47.618787 
L 237.191835 -47.823901 
L 232.118177 -47.543461 
L 227.046847 -47.085602 
L 221.967664 -47.09892 
L 216.89834 -47.022023 
L 211.828474 -46.962799 
L 206.745843 -46.369115 
L 201.682827 -46.30045 
L 196.599134 -46.302861 
L 191.532937 -46.366612 
L 186.4613 -45.693164 
L 181.390168 -45.745493 
L 176.303617 -45.713845 
L 171.198957 -45.741014 
L 166.167165 -45.814771 
L 161.056721 -45.205642 
L 155.982591 -45.117392 
L 150.933635 -45.104431 
L 145.857071 -45.18352 
L 140.764143 -44.483454 
L 135.651989 -44.536996 
L 130.491444 -44.526314 
L 125.420521 -44.521081 
L 120.404759 -44.500965 
L 115.341895 -43.905745 
L 110.361348 -43.894758 
L 105.26842 -43.905285 
L 100.156266 -43.940918 
L 94.632688 -43.223427 
L 89.924798 -43.234524 
L 84.411955 -43.217977 
L 79.556398 -43.22691 
L 74.865625 -43.239623 
z
" style="stroke: #ff7f0e; stroke-opacity: 0.2"/>
    </defs>
    <g clip-path="url(#pc772c505e9)">
     <use xlink:href="#m995b3c39d3" x="0" y="531.670938" style="fill: #ff7f0e; fill-opacity: 0.2; stroke: #ff7f0e; stroke-opacity: 0.2"/>
    </g>
   </g>
   <g id="PolyCollection_3">
    <defs>
     <path id="mb815d910d6" d="M 74.865625 -45.140807 
L 74.865625 -45.044822 
L 79.556398 -45.04252 
L 84.411955 -45.054092 
L 89.924798 -45.034712 
L 94.632688 -45.056437 
L 100.156266 -45.057179 
L 105.26842 -45.053557 
L 110.361348 -45.050565 
L 115.341895 -45.048794 
L 120.404759 -46.373342 
L 125.420521 -46.354665 
L 130.491444 -46.366658 
L 135.651989 -46.382927 
L 140.764143 -46.369363 
L 145.857071 -47.466529 
L 150.933635 -47.459043 
L 155.982591 -47.474061 
L 161.056721 -47.448708 
L 166.167165 -48.546027 
L 171.198957 -48.544409 
L 176.303617 -48.533857 
L 181.390168 -48.533877 
L 186.4613 -48.541426 
L 191.532937 -49.614561 
L 196.599134 -49.624318 
L 201.682827 -49.632016 
L 206.745843 -49.635537 
L 211.828474 -50.700876 
L 216.89834 -50.718483 
L 221.967664 -50.705128 
L 227.046847 -50.711509 
L 232.118177 -51.803292 
L 237.191835 -51.829259 
L 242.264279 -51.787852 
L 247.333903 -51.792345 
L 252.410653 -51.798983 
L 257.481113 -52.903633 
L 262.55469 -52.898555 
L 267.626848 -52.908142 
L 272.700838 -52.908117 
L 277.773245 -54.006834 
L 282.847412 -54.009514 
L 287.918813 -54.013659 
L 292.992191 -54.022808 
L 298.065555 -54.014484 
L 303.138102 -55.143676 
L 308.210573 -55.138875 
L 313.283465 -55.154731 
L 318.356064 -55.162129 
L 323.42881 -56.300691 
L 328.501688 -56.295168 
L 333.574396 -56.327021 
L 338.647337 -56.329707 
L 343.720056 -57.478982 
L 348.792838 -57.472594 
L 353.865608 -57.480058 
L 358.938341 -57.539227 
L 364.011048 -57.545959 
L 369.083792 -58.821949 
L 374.156471 -58.893953 
L 379.229205 -58.954183 
L 384.301927 -59.022482 
L 389.374668 -60.488117 
L 394.447406 -60.738217 
L 399.52014 -60.90423 
L 404.592884 -61.037011 
L 409.665598 -61.1915 
L 414.73835 -62.481351 
L 419.811079 -62.632101 
L 424.883802 -62.736658 
L 429.956533 -62.863759 
L 435.029256 -64.430309 
L 440.101982 -65.293547 
L 445.17471 -66.028099 
L 450.247443 -66.260033 
L 455.320172 -68.08566 
L 460.392898 -72.198254 
L 465.465626 -73.890466 
L 470.538352 -77.838113 
L 475.611079 -78.972245 
L 480.683809 -81.959857 
L 485.756536 -84.804508 
L 490.829264 -86.51628 
L 495.901992 -87.677758 
L 500.974718 -86.561599 
L 506.047445 -89.055004 
L 511.120172 -91.184042 
L 516.192899 -92.637035 
L 521.265626 -94.037662 
L 526.338353 -94.983162 
L 531.411082 -97.674947 
L 536.48381 -98.926053 
L 541.556538 -99.987668 
L 546.629267 -99.591247 
L 551.701993 -101.490022 
L 556.774719 -102.963083 
L 561.847446 -103.337129 
L 566.920173 -104.215404 
L 571.992901 -106.391958 
L 577.065628 -107.49296 
L 582.138356 -108.38575 
L 587.211084 -109.16016 
L 592.283809 -112.087952 
L 597.356535 -114.034029 
L 602.429262 -115.162065 
L 607.50199 -116.357538 
L 612.574716 -116.521205 
L 617.647443 -119.363373 
L 622.720171 -119.983534 
L 627.792898 -121.942139 
L 632.865625 -122.057654 
L 632.865625 -122.570924 
L 632.865625 -122.570924 
L 627.792898 -122.416688 
L 622.720171 -122.568275 
L 617.647443 -121.144085 
L 612.574716 -118.627711 
L 607.50199 -117.65355 
L 602.429262 -115.940998 
L 597.356535 -114.914443 
L 592.283809 -112.662964 
L 587.211084 -109.687826 
L 582.138356 -108.650624 
L 577.065628 -107.884362 
L 571.992901 -108.983182 
L 566.920173 -104.398962 
L 561.847446 -104.094517 
L 556.774719 -104.167097 
L 551.701993 -102.788453 
L 546.629267 -99.736585 
L 541.556538 -100.094643 
L 536.48381 -99.227957 
L 531.411082 -97.7817 
L 526.338353 -95.130605 
L 521.265626 -98.408229 
L 516.192899 -93.160403 
L 511.120172 -91.240777 
L 506.047445 -89.280978 
L 500.974718 -86.99669 
L 495.901992 -87.887915 
L 490.829264 -87.867587 
L 485.756536 -85.435499 
L 480.683809 -83.603337 
L 475.611079 -83.036889 
L 470.538352 -78.788455 
L 465.465626 -74.578005 
L 460.392898 -73.847672 
L 455.320172 -69.779309 
L 450.247443 -68.76913 
L 445.17471 -67.858512 
L 440.101982 -65.743743 
L 435.029256 -65.641501 
L 429.956533 -63.421118 
L 424.883802 -62.83953 
L 419.811079 -62.938028 
L 414.73835 -62.706344 
L 409.665598 -61.260778 
L 404.592884 -61.152163 
L 399.52014 -61.00831 
L 394.447406 -60.817027 
L 389.374668 -60.514318 
L 384.301927 -59.049907 
L 379.229205 -58.967858 
L 374.156471 -58.902538 
L 369.083792 -58.89764 
L 364.011048 -57.613036 
L 358.938341 -57.701466 
L 353.865608 -57.542813 
L 348.792838 -57.654556 
L 343.720056 -57.624651 
L 338.647337 -56.46293 
L 333.574396 -56.403322 
L 328.501688 -56.346934 
L 323.42881 -56.342638 
L 318.356064 -55.176205 
L 313.283465 -55.171294 
L 308.210573 -55.146051 
L 303.138102 -55.15215 
L 298.065555 -54.021395 
L 292.992191 -54.058923 
L 287.918813 -54.053717 
L 282.847412 -54.277451 
L 277.773245 -54.019737 
L 272.700838 -53.103042 
L 267.626848 -52.91982 
L 262.55469 -52.971856 
L 257.481113 -52.927949 
L 252.410653 -51.826175 
L 247.333903 -51.848643 
L 242.264279 -51.812791 
L 237.191835 -51.843859 
L 232.118177 -51.846938 
L 227.046847 -50.747819 
L 221.967664 -50.7709 
L 216.89834 -50.738977 
L 211.828474 -50.738677 
L 206.745843 -49.653861 
L 201.682827 -49.730905 
L 196.599134 -49.633492 
L 191.532937 -49.628155 
L 186.4613 -48.575549 
L 181.390168 -48.573549 
L 176.303617 -48.609474 
L 171.198957 -48.579517 
L 166.167165 -48.56987 
L 161.056721 -47.483248 
L 155.982591 -47.523469 
L 150.933635 -47.468465 
L 145.857071 -47.476238 
L 140.764143 -46.378588 
L 135.651989 -46.440691 
L 130.491444 -46.386761 
L 125.420521 -46.38438 
L 120.404759 -46.434599 
L 115.341895 -45.073199 
L 110.361348 -45.054471 
L 105.26842 -45.096221 
L 100.156266 -45.109702 
L 94.632688 -45.068853 
L 89.924798 -45.10026 
L 84.411955 -45.174971 
L 79.556398 -45.050721 
L 74.865625 -45.140807 
z
" style="stroke: #e377c2; stroke-opacity: 0.2"/>
    </defs>
    <g clip-path="url(#pc772c505e9)">
     <use xlink:href="#mb815d910d6" x="0" y="531.670938" style="fill: #e377c2; fill-opacity: 0.2; stroke: #e377c2; stroke-opacity: 0.2"/>
    </g>
   </g>
   <g id="matplotlib.axis_3">
    <g id="xtick_15">
     <g id="line2d_18">
      <path d="M 52.470317 494.114688 
L 52.470317 50.594688 
" clip-path="url(#pc772c505e9)" style="fill: none; stroke: #b0b0b0; stroke-opacity: 0.4; stroke-width: 0.8; stroke-linecap: square"/>
     </g>
     <g id="line2d_19">
      <defs>
       <path id="m9e88b97b82" d="M 0 0 
L 0 3.5 
" style="stroke: #000000; stroke-width: 0.8"/>
      </defs>
      <g>
       <use xlink:href="#m9e88b97b82" x="52.470317" y="494.114688" style="stroke: #000000; stroke-width: 0.8"/>
      </g>
     </g>
     <g id="text_16">
      <!-- $\mathdefault{2^{4}}$ -->
      <g transform="translate(46.870317 508.713125) scale(0.1 -0.1)">
       <use xlink:href="#DejaVuSans-32" transform="translate(0 0.684375)"/>
       <use xlink:href="#DejaVuSans-34" transform="translate(64.580078 38.965625) scale(0.7)"/>
      </g>
     </g>
    </g>
    <g id="xtick_16">
     <g id="line2d_20">
      <path d="M 97.260933 494.114688 
L 97.260933 50.594688 
" clip-path="url(#pc772c505e9)" style="fill: none; stroke: #b0b0b0; stroke-opacity: 0.4; stroke-width: 0.8; stroke-linecap: square"/>
     </g>
     <g id="line2d_21">
      <g>
       <use xlink:href="#m9e88b97b82" x="97.260933" y="494.114688" style="stroke: #000000; stroke-width: 0.8"/>
      </g>
     </g>
     <g id="text_17">
      <!-- $\mathdefault{2^{6}}$ -->
      <g transform="translate(91.660933 508.713125) scale(0.1 -0.1)">
       <use xlink:href="#DejaVuSans-32" transform="translate(0 0.765625)"/>
       <use xlink:href="#DejaVuSans-36" transform="translate(64.580078 39.046875) scale(0.7)"/>
      </g>
     </g>
    </g>
    <g id="xtick_17">
     <g id="line2d_22">
      <path d="M 142.051549 494.114688 
L 142.051549 50.594688 
" clip-path="url(#pc772c505e9)" style="fill: none; stroke: #b0b0b0; stroke-opacity: 0.4; stroke-width: 0.8; stroke-linecap: square"/>
     </g>
     <g id="line2d_23">
      <g>
       <use xlink:href="#m9e88b97b82" x="142.051549" y="494.114688" style="stroke: #000000; stroke-width: 0.8"/>
      </g>
     </g>
     <g id="text_18">
      <!-- $\mathdefault{2^{8}}$ -->
      <g transform="translate(136.451549 508.713125) scale(0.1 -0.1)">
       <use xlink:href="#DejaVuSans-32" transform="translate(0 0.765625)"/>
       <use xlink:href="#DejaVuSans-38" transform="translate(64.580078 39.046875) scale(0.7)"/>
      </g>
     </g>
    </g>
    <g id="xtick_18">
     <g id="line2d_24">
      <path d="M 186.842164 494.114688 
L 186.842164 50.594688 
" clip-path="url(#pc772c505e9)" style="fill: none; stroke: #b0b0b0; stroke-opacity: 0.4; stroke-width: 0.8; stroke-linecap: square"/>
     </g>
     <g id="line2d_25">
      <g>
       <use xlink:href="#m9e88b97b82" x="186.842164" y="494.114688" style="stroke: #000000; stroke-width: 0.8"/>
      </g>
     </g>
     <g id="text_19">
      <!-- $\mathdefault{2^{10}}$ -->
      <g transform="translate(178.992164 508.713125) scale(0.1 -0.1)">
       <use xlink:href="#DejaVuSans-32" transform="translate(0 0.765625)"/>
       <use xlink:href="#DejaVuSans-31" transform="translate(64.580078 39.046875) scale(0.7)"/>
       <use xlink:href="#DejaVuSans-30" transform="translate(109.116211 39.046875) scale(0.7)"/>
      </g>
     </g>
    </g>
    <g id="xtick_19">
     <g id="line2d_26">
      <path d="M 231.63278 494.114688 
L 231.63278 50.594688 
" clip-path="url(#pc772c505e9)" style="fill: none; stroke: #b0b0b0; stroke-opacity: 0.4; stroke-width: 0.8; stroke-linecap: square"/>
     </g>
     <g id="line2d_27">
      <g>
       <use xlink:href="#m9e88b97b82" x="231.63278" y="494.114688" style="stroke: #000000; stroke-width: 0.8"/>
      </g>
     </g>
     <g id="text_20">
      <!-- $\mathdefault{2^{12}}$ -->
      <g transform="translate(223.78278 508.713125) scale(0.1 -0.1)">
       <use xlink:href="#DejaVuSans-32" transform="translate(0 0.765625)"/>
       <use xlink:href="#DejaVuSans-31" transform="translate(64.580078 39.046875) scale(0.7)"/>
       <use xlink:href="#DejaVuSans-32" transform="translate(109.116211 39.046875) scale(0.7)"/>
      </g>
     </g>
    </g>
    <g id="xtick_20">
     <g id="line2d_28">
      <path d="M 276.423396 494.114688 
L 276.423396 50.594688 
" clip-path="url(#pc772c505e9)" style="fill: none; stroke: #b0b0b0; stroke-opacity: 0.4; stroke-width: 0.8; stroke-linecap: square"/>
     </g>
     <g id="line2d_29">
      <g>
       <use xlink:href="#m9e88b97b82" x="276.423396" y="494.114688" style="stroke: #000000; stroke-width: 0.8"/>
      </g>
     </g>
     <g id="text_21">
      <!-- $\mathdefault{2^{14}}$ -->
      <g transform="translate(268.573396 508.713125) scale(0.1 -0.1)">
       <use xlink:href="#DejaVuSans-32" transform="translate(0 0.684375)"/>
       <use xlink:href="#DejaVuSans-31" transform="translate(64.580078 38.965625) scale(0.7)"/>
       <use xlink:href="#DejaVuSans-34" transform="translate(109.116211 38.965625) scale(0.7)"/>
      </g>
     </g>
    </g>
    <g id="xtick_21">
     <g id="line2d_30">
      <path d="M 321.214012 494.114688 
L 321.214012 50.594688 
" clip-path="url(#pc772c505e9)" style="fill: none; stroke: #b0b0b0; stroke-opacity: 0.4; stroke-width: 0.8; stroke-linecap: square"/>
     </g>
     <g id="line2d_31">
      <g>
       <use xlink:href="#m9e88b97b82" x="321.214012" y="494.114688" style="stroke: #000000; stroke-width: 0.8"/>
      </g>
     </g>
     <g id="text_22">
      <!-- $\mathdefault{2^{16}}$ -->
      <g transform="translate(313.364012 508.713125) scale(0.1 -0.1)">
       <use xlink:href="#DejaVuSans-32" transform="translate(0 0.765625)"/>
       <use xlink:href="#DejaVuSans-31" transform="translate(64.580078 39.046875) scale(0.7)"/>
       <use xlink:href="#DejaVuSans-36" transform="translate(109.116211 39.046875) scale(0.7)"/>
      </g>
     </g>
    </g>
    <g id="xtick_22">
     <g id="line2d_32">
      <path d="M 366.004627 494.114688 
L 366.004627 50.594688 
" clip-path="url(#pc772c505e9)" style="fill: none; stroke: #b0b0b0; stroke-opacity: 0.4; stroke-width: 0.8; stroke-linecap: square"/>
     </g>
     <g id="line2d_33">
      <g>
       <use xlink:href="#m9e88b97b82" x="366.004627" y="494.114688" style="stroke: #000000; stroke-width: 0.8"/>
      </g>
     </g>
     <g id="text_23">
      <!-- $\mathdefault{2^{18}}$ -->
      <g transform="translate(358.154627 508.713125) scale(0.1 -0.1)">
       <use xlink:href="#DejaVuSans-32" transform="translate(0 0.765625)"/>
       <use xlink:href="#DejaVuSans-31" transform="translate(64.580078 39.046875) scale(0.7)"/>
       <use xlink:href="#DejaVuSans-38" transform="translate(109.116211 39.046875) scale(0.7)"/>
      </g>
     </g>
    </g>
    <g id="xtick_23">
     <g id="line2d_34">
      <path d="M 410.795243 494.114688 
L 410.795243 50.594688 
" clip-path="url(#pc772c505e9)" style="fill: none; stroke: #b0b0b0; stroke-opacity: 0.4; stroke-width: 0.8; stroke-linecap: square"/>
     </g>
     <g id="line2d_35">
      <g>
       <use xlink:href="#m9e88b97b82" x="410.795243" y="494.114688" style="stroke: #000000; stroke-width: 0.8"/>
      </g>
     </g>
     <g id="text_24">
      <!-- $\mathdefault{2^{20}}$ -->
      <g transform="translate(402.945243 508.713125) scale(0.1 -0.1)">
       <use xlink:href="#DejaVuSans-32" transform="translate(0 0.765625)"/>
       <use xlink:href="#DejaVuSans-32" transform="translate(64.580078 39.046875) scale(0.7)"/>
       <use xlink:href="#DejaVuSans-30" transform="translate(109.116211 39.046875) scale(0.7)"/>
      </g>
     </g>
    </g>
    <g id="xtick_24">
     <g id="line2d_36">
      <path d="M 455.585859 494.114688 
L 455.585859 50.594688 
" clip-path="url(#pc772c505e9)" style="fill: none; stroke: #b0b0b0; stroke-opacity: 0.4; stroke-width: 0.8; stroke-linecap: square"/>
     </g>
     <g id="line2d_37">
      <g>
       <use xlink:href="#m9e88b97b82" x="455.585859" y="494.114688" style="stroke: #000000; stroke-width: 0.8"/>
      </g>
     </g>
     <g id="text_25">
      <!-- $\mathdefault{2^{22}}$ -->
      <g transform="translate(447.735859 508.713125) scale(0.1 -0.1)">
       <use xlink:href="#DejaVuSans-32" transform="translate(0 0.765625)"/>
       <use xlink:href="#DejaVuSans-32" transform="translate(64.580078 39.046875) scale(0.7)"/>
       <use xlink:href="#DejaVuSans-32" transform="translate(109.116211 39.046875) scale(0.7)"/>
      </g>
     </g>
    </g>
    <g id="xtick_25">
     <g id="line2d_38">
      <path d="M 500.376474 494.114688 
L 500.376474 50.594688 
" clip-path="url(#pc772c505e9)" style="fill: none; stroke: #b0b0b0; stroke-opacity: 0.4; stroke-width: 0.8; stroke-linecap: square"/>
     </g>
     <g id="line2d_39">
      <g>
       <use xlink:href="#m9e88b97b82" x="500.376474" y="494.114688" style="stroke: #000000; stroke-width: 0.8"/>
      </g>
     </g>
     <g id="text_26">
      <!-- $\mathdefault{2^{24}}$ -->
      <g transform="translate(492.526474 508.713125) scale(0.1 -0.1)">
       <use xlink:href="#DejaVuSans-32" transform="translate(0 0.765625)"/>
       <use xlink:href="#DejaVuSans-32" transform="translate(64.580078 39.046875) scale(0.7)"/>
       <use xlink:href="#DejaVuSans-34" transform="translate(109.116211 39.046875) scale(0.7)"/>
      </g>
     </g>
    </g>
    <g id="xtick_26">
     <g id="line2d_40">
      <path d="M 545.16709 494.114688 
L 545.16709 50.594688 
" clip-path="url(#pc772c505e9)" style="fill: none; stroke: #b0b0b0; stroke-opacity: 0.4; stroke-width: 0.8; stroke-linecap: square"/>
     </g>
     <g id="line2d_41">
      <g>
       <use xlink:href="#m9e88b97b82" x="545.16709" y="494.114688" style="stroke: #000000; stroke-width: 0.8"/>
      </g>
     </g>
     <g id="text_27">
      <!-- $\mathdefault{2^{26}}$ -->
      <g transform="translate(537.31709 508.713125) scale(0.1 -0.1)">
       <use xlink:href="#DejaVuSans-32" transform="translate(0 0.765625)"/>
       <use xlink:href="#DejaVuSans-32" transform="translate(64.580078 39.046875) scale(0.7)"/>
       <use xlink:href="#DejaVuSans-36" transform="translate(109.116211 39.046875) scale(0.7)"/>
      </g>
     </g>
    </g>
    <g id="xtick_27">
     <g id="line2d_42">
      <path d="M 589.957706 494.114688 
L 589.957706 50.594688 
" clip-path="url(#pc772c505e9)" style="fill: none; stroke: #b0b0b0; stroke-opacity: 0.4; stroke-width: 0.8; stroke-linecap: square"/>
     </g>
     <g id="line2d_43">
      <g>
       <use xlink:href="#m9e88b97b82" x="589.957706" y="494.114688" style="stroke: #000000; stroke-width: 0.8"/>
      </g>
     </g>
     <g id="text_28">
      <!-- $\mathdefault{2^{28}}$ -->
      <g transform="translate(582.107706 508.713125) scale(0.1 -0.1)">
       <use xlink:href="#DejaVuSans-32" transform="translate(0 0.765625)"/>
       <use xlink:href="#DejaVuSans-32" transform="translate(64.580078 39.046875) scale(0.7)"/>
       <use xlink:href="#DejaVuSans-38" transform="translate(109.116211 39.046875) scale(0.7)"/>
      </g>
     </g>
    </g>
    <g id="xtick_28">
     <g id="line2d_44">
      <path d="M 634.748322 494.114688 
L 634.748322 50.594688 
" clip-path="url(#pc772c505e9)" style="fill: none; stroke: #b0b0b0; stroke-opacity: 0.4; stroke-width: 0.8; stroke-linecap: square"/>
     </g>
     <g id="line2d_45">
      <g>
       <use xlink:href="#m9e88b97b82" x="634.748322" y="494.114688" style="stroke: #000000; stroke-width: 0.8"/>
      </g>
     </g>
     <g id="text_29">
      <!-- $\mathdefault{2^{30}}$ -->
      <g transform="translate(626.898322 508.713125) scale(0.1 -0.1)">
       <use xlink:href="#DejaVuSans-32" transform="translate(0 0.765625)"/>
       <use xlink:href="#DejaVuSans-33" transform="translate(64.580078 39.046875) scale(0.7)"/>
       <use xlink:href="#DejaVuSans-30" transform="translate(109.116211 39.046875) scale(0.7)"/>
      </g>
     </g>
    </g>
    <g id="text_30">
     <!-- Input size (bytes) -->
     <g transform="translate(310.369531 522.39125) scale(0.1 -0.1)">
      <defs>
       <path id="DejaVuSans-49" d="M 628 4666 
L 1259 4666 
L 1259 0 
L 628 0 
L 628 4666 
z
" transform="scale(0.015625)"/>
       <path id="DejaVuSans-70" d="M 1159 525 
L 1159 -1331 
L 581 -1331 
L 581 3500 
L 1159 3500 
L 1159 2969 
Q 1341 3281 1617 3432 
Q 1894 3584 2278 3584 
Q 2916 3584 3314 3078 
Q 3713 2572 3713 1747 
Q 3713 922 3314 415 
Q 2916 -91 2278 -91 
Q 1894 -91 1617 61 
Q 1341 213 1159 525 
z
M 3116 1747 
Q 3116 2381 2855 2742 
Q 2594 3103 2138 3103 
Q 1681 3103 1420 2742 
Q 1159 2381 1159 1747 
Q 1159 1113 1420 752 
Q 1681 391 2138 391 
Q 2594 391 2855 752 
Q 3116 1113 3116 1747 
z
" transform="scale(0.015625)"/>
       <path id="DejaVuSans-73" d="M 2834 3397 
L 2834 2853 
Q 2591 2978 2328 3040 
Q 2066 3103 1784 3103 
Q 1356 3103 1142 2972 
Q 928 2841 928 2578 
Q 928 2378 1081 2264 
Q 1234 2150 1697 2047 
L 1894 2003 
Q 2506 1872 2764 1633 
Q 3022 1394 3022 966 
Q 3022 478 2636 193 
Q 2250 -91 1575 -91 
Q 1294 -91 989 -36 
Q 684 19 347 128 
L 347 722 
Q 666 556 975 473 
Q 1284 391 1588 391 
Q 1994 391 2212 530 
Q 2431 669 2431 922 
Q 2431 1156 2273 1281 
Q 2116 1406 1581 1522 
L 1381 1569 
Q 847 1681 609 1914 
Q 372 2147 372 2553 
Q 372 3047 722 3315 
Q 1072 3584 1716 3584 
Q 2034 3584 2315 3537 
Q 2597 3491 2834 3397 
z
" transform="scale(0.015625)"/>
       <path id="DejaVuSans-69" d="M 603 3500 
L 1178 3500 
L 1178 0 
L 603 0 
L 603 3500 
z
M 603 4863 
L 1178 4863 
L 1178 4134 
L 603 4134 
L 603 4863 
z
" transform="scale(0.015625)"/>
       <path id="DejaVuSans-7a" d="M 353 3500 
L 3084 3500 
L 3084 2975 
L 922 459 
L 3084 459 
L 3084 0 
L 275 0 
L 275 525 
L 2438 3041 
L 353 3041 
L 353 3500 
z
" transform="scale(0.015625)"/>
       <path id="DejaVuSans-62" d="M 3116 1747 
Q 3116 2381 2855 2742 
Q 2594 3103 2138 3103 
Q 1681 3103 1420 2742 
Q 1159 2381 1159 1747 
Q 1159 1113 1420 752 
Q 1681 391 2138 391 
Q 2594 391 2855 752 
Q 3116 1113 3116 1747 
z
M 1159 2969 
Q 1341 3281 1617 3432 
Q 1894 3584 2278 3584 
Q 2916 3584 3314 3078 
Q 3713 2572 3713 1747 
Q 3713 922 3314 415 
Q 2916 -91 2278 -91 
Q 1894 -91 1617 61 
Q 1341 213 1159 525 
L 1159 0 
L 581 0 
L 581 4863 
L 1159 4863 
L 1159 2969 
z
" transform="scale(0.015625)"/>
      </defs>
      <use xlink:href="#DejaVuSans-49"/>
      <use xlink:href="#DejaVuSans-6e" x="29.492188"/>
      <use xlink:href="#DejaVuSans-70" x="92.871094"/>
      <use xlink:href="#DejaVuSans-75" x="156.347656"/>
      <use xlink:href="#DejaVuSans-74" x="219.726562"/>
      <use xlink:href="#DejaVuSans-20" x="258.935547"/>
      <use xlink:href="#DejaVuSans-73" x="290.722656"/>
      <use xlink:href="#DejaVuSans-69" x="342.822266"/>
      <use xlink:href="#DejaVuSans-7a" x="370.605469"/>
      <use xlink:href="#DejaVuSans-65" x="423.095703"/>
      <use xlink:href="#DejaVuSans-20" x="484.619141"/>
      <use xlink:href="#DejaVuSans-28" x="516.40625"/>
      <use xlink:href="#DejaVuSans-62" x="555.419922"/>
      <use xlink:href="#DejaVuSans-79" x="618.896484"/>
      <use xlink:href="#DejaVuSans-74" x="678.076172"/>
      <use xlink:href="#DejaVuSans-65" x="717.285156"/>
      <use xlink:href="#DejaVuSans-73" x="778.808594"/>
      <use xlink:href="#DejaVuSans-29" x="830.908203"/>
     </g>
    </g>
   </g>
   <g id="matplotlib.axis_4">
    <g id="ytick_1">
     <g id="line2d_46">
      <path d="M 46.965625 494.114688 
L 660.765625 494.114688 
" clip-path="url(#pc772c505e9)" style="fill: none; stroke: #b0b0b0; stroke-opacity: 0.4; stroke-width: 0.8; stroke-linecap: square"/>
     </g>
     <g id="line2d_47">
      <defs>
       <path id="m97ba58fabd" d="M 0 0 
L -3.5 0 
" style="stroke: #000000; stroke-width: 0.8"/>
      </defs>
      <g>
       <use xlink:href="#m97ba58fabd" x="46.965625" y="494.114688" style="stroke: #000000; stroke-width: 0.8"/>
      </g>
     </g>
     <g id="text_31">
      <!-- 0 -->
      <g transform="translate(33.603125 497.913906) scale(0.1 -0.1)">
       <use xlink:href="#DejaVuSans-30"/>
      </g>
     </g>
    </g>
    <g id="ytick_2">
     <g id="line2d_48">
      <path d="M 46.965625 420.194688 
L 660.765625 420.194688 
" clip-path="url(#pc772c505e9)" style="fill: none; stroke: #b0b0b0; stroke-opacity: 0.4; stroke-width: 0.8; stroke-linecap: square"/>
     </g>
     <g id="line2d_49">
      <g>
       <use xlink:href="#m97ba58fabd" x="46.965625" y="420.194688" style="stroke: #000000; stroke-width: 0.8"/>
      </g>
     </g>
     <g id="text_32">
      <!-- 100 -->
      <g transform="translate(20.878125 423.993906) scale(0.1 -0.1)">
       <use xlink:href="#DejaVuSans-31"/>
       <use xlink:href="#DejaVuSans-30" x="63.623047"/>
       <use xlink:href="#DejaVuSans-30" x="127.246094"/>
      </g>
     </g>
    </g>
    <g id="ytick_3">
     <g id="line2d_50">
      <path d="M 46.965625 346.274688 
L 660.765625 346.274688 
" clip-path="url(#pc772c505e9)" style="fill: none; stroke: #b0b0b0; stroke-opacity: 0.4; stroke-width: 0.8; stroke-linecap: square"/>
     </g>
     <g id="line2d_51">
      <g>
       <use xlink:href="#m97ba58fabd" x="46.965625" y="346.274688" style="stroke: #000000; stroke-width: 0.8"/>
      </g>
     </g>
     <g id="text_33">
      <!-- 200 -->
      <g transform="translate(20.878125 350.073906) scale(0.1 -0.1)">
       <use xlink:href="#DejaVuSans-32"/>
       <use xlink:href="#DejaVuSans-30" x="63.623047"/>
       <use xlink:href="#DejaVuSans-30" x="127.246094"/>
      </g>
     </g>
    </g>
    <g id="ytick_4">
     <g id="line2d_52">
      <path d="M 46.965625 272.354688 
L 660.765625 272.354688 
" clip-path="url(#pc772c505e9)" style="fill: none; stroke: #b0b0b0; stroke-opacity: 0.4; stroke-width: 0.8; stroke-linecap: square"/>
     </g>
     <g id="line2d_53">
      <g>
       <use xlink:href="#m97ba58fabd" x="46.965625" y="272.354688" style="stroke: #000000; stroke-width: 0.8"/>
      </g>
     </g>
     <g id="text_34">
      <!-- 300 -->
      <g transform="translate(20.878125 276.153906) scale(0.1 -0.1)">
       <use xlink:href="#DejaVuSans-33"/>
       <use xlink:href="#DejaVuSans-30" x="63.623047"/>
       <use xlink:href="#DejaVuSans-30" x="127.246094"/>
      </g>
     </g>
    </g>
    <g id="ytick_5">
     <g id="line2d_54">
      <path d="M 46.965625 198.434688 
L 660.765625 198.434688 
" clip-path="url(#pc772c505e9)" style="fill: none; stroke: #b0b0b0; stroke-opacity: 0.4; stroke-width: 0.8; stroke-linecap: square"/>
     </g>
     <g id="line2d_55">
      <g>
       <use xlink:href="#m97ba58fabd" x="46.965625" y="198.434688" style="stroke: #000000; stroke-width: 0.8"/>
      </g>
     </g>
     <g id="text_35">
      <!-- 400 -->
      <g transform="translate(20.878125 202.233906) scale(0.1 -0.1)">
       <use xlink:href="#DejaVuSans-34"/>
       <use xlink:href="#DejaVuSans-30" x="63.623047"/>
       <use xlink:href="#DejaVuSans-30" x="127.246094"/>
      </g>
     </g>
    </g>
    <g id="ytick_6">
     <g id="line2d_56">
      <path d="M 46.965625 124.514688 
L 660.765625 124.514688 
" clip-path="url(#pc772c505e9)" style="fill: none; stroke: #b0b0b0; stroke-opacity: 0.4; stroke-width: 0.8; stroke-linecap: square"/>
     </g>
     <g id="line2d_57">
      <g>
       <use xlink:href="#m97ba58fabd" x="46.965625" y="124.514688" style="stroke: #000000; stroke-width: 0.8"/>
      </g>
     </g>
     <g id="text_36">
      <!-- 500 -->
      <g transform="translate(20.878125 128.313906) scale(0.1 -0.1)">
       <defs>
        <path id="DejaVuSans-35" d="M 691 4666 
L 3169 4666 
L 3169 4134 
L 1269 4134 
L 1269 2991 
Q 1406 3038 1543 3061 
Q 1681 3084 1819 3084 
Q 2600 3084 3056 2656 
Q 3513 2228 3513 1497 
Q 3513 744 3044 326 
Q 2575 -91 1722 -91 
Q 1428 -91 1123 -41 
Q 819 9 494 109 
L 494 744 
Q 775 591 1075 516 
Q 1375 441 1709 441 
Q 2250 441 2565 725 
Q 2881 1009 2881 1497 
Q 2881 1984 2565 2268 
Q 2250 2553 1709 2553 
Q 1456 2553 1204 2497 
Q 953 2441 691 2322 
L 691 4666 
z
" transform="scale(0.015625)"/>
       </defs>
       <use xlink:href="#DejaVuSans-35"/>
       <use xlink:href="#DejaVuSans-30" x="63.623047"/>
       <use xlink:href="#DejaVuSans-30" x="127.246094"/>
      </g>
     </g>
    </g>
    <g id="ytick_7">
     <g id="line2d_58">
      <path d="M 46.965625 50.594688 
L 660.765625 50.594688 
" clip-path="url(#pc772c505e9)" style="fill: none; stroke: #b0b0b0; stroke-opacity: 0.4; stroke-width: 0.8; stroke-linecap: square"/>
     </g>
     <g id="line2d_59">
      <g>
       <use xlink:href="#m97ba58fabd" x="46.965625" y="50.594688" style="stroke: #000000; stroke-width: 0.8"/>
      </g>
     </g>
     <g id="text_37">
      <!-- 600 -->
      <g transform="translate(20.878125 54.393906) scale(0.1 -0.1)">
       <use xlink:href="#DejaVuSans-36"/>
       <use xlink:href="#DejaVuSans-30" x="63.623047"/>
       <use xlink:href="#DejaVuSans-30" x="127.246094"/>
      </g>
     </g>
    </g>
    <g id="text_38">
     <!-- Inverse throughput (ns) -->
     <g transform="translate(14.798438 331.570313) rotate(-90) scale(0.1 -0.1)">
      <defs>
       <path id="DejaVuSans-76" d="M 191 3500 
L 800 3500 
L 1894 563 
L 2988 3500 
L 3597 3500 
L 2284 0 
L 1503 0 
L 191 3500 
z
" transform="scale(0.015625)"/>
       <path id="DejaVuSans-6f" d="M 1959 3097 
Q 1497 3097 1228 2736 
Q 959 2375 959 1747 
Q 959 1119 1226 758 
Q 1494 397 1959 397 
Q 2419 397 2687 759 
Q 2956 1122 2956 1747 
Q 2956 2369 2687 2733 
Q 2419 3097 1959 3097 
z
M 1959 3584 
Q 2709 3584 3137 3096 
Q 3566 2609 3566 1747 
Q 3566 888 3137 398 
Q 2709 -91 1959 -91 
Q 1206 -91 779 398 
Q 353 888 353 1747 
Q 353 2609 779 3096 
Q 1206 3584 1959 3584 
z
" transform="scale(0.015625)"/>
      </defs>
      <use xlink:href="#DejaVuSans-49"/>
      <use xlink:href="#DejaVuSans-6e" x="29.492188"/>
      <use xlink:href="#DejaVuSans-76" x="92.871094"/>
      <use xlink:href="#DejaVuSans-65" x="152.050781"/>
      <use xlink:href="#DejaVuSans-72" x="213.574219"/>
      <use xlink:href="#DejaVuSans-73" x="254.6875"/>
      <use xlink:href="#DejaVuSans-65" x="306.787109"/>
      <use xlink:href="#DejaVuSans-20" x="368.310547"/>
      <use xlink:href="#DejaVuSans-74" x="400.097656"/>
      <use xlink:href="#DejaVuSans-68" x="439.306641"/>
      <use xlink:href="#DejaVuSans-72" x="502.685547"/>
      <use xlink:href="#DejaVuSans-6f" x="541.548828"/>
      <use xlink:href="#DejaVuSans-75" x="602.730469"/>
      <use xlink:href="#DejaVuSans-67" x="666.109375"/>
      <use xlink:href="#DejaVuSans-68" x="729.585938"/>
      <use xlink:href="#DejaVuSans-70" x="792.964844"/>
      <use xlink:href="#DejaVuSans-75" x="856.441406"/>
      <use xlink:href="#DejaVuSans-74" x="919.820312"/>
      <use xlink:href="#DejaVuSans-20" x="959.029297"/>
      <use xlink:href="#DejaVuSans-28" x="990.816406"/>
      <use xlink:href="#DejaVuSans-6e" x="1029.830078"/>
      <use xlink:href="#DejaVuSans-73" x="1093.208984"/>
      <use xlink:href="#DejaVuSans-29" x="1145.308594"/>
     </g>
    </g>
   </g>
   <g id="line2d_60">
    <path d="M 74.865625 484.902663 
L 79.556398 484.880497 
L 84.411955 484.901673 
L 89.924798 484.913567 
L 94.632688 484.91393 
L 100.156266 484.904163 
L 105.26842 484.938719 
L 110.361348 484.882255 
L 115.341895 484.893652 
L 120.404759 483.139938 
L 125.420521 483.132265 
L 130.491444 483.123528 
L 135.651989 483.172866 
L 140.764143 483.134424 
L 145.857071 480.481772 
L 150.933635 480.399599 
L 155.982591 480.498409 
L 161.056721 480.384414 
L 166.167165 477.852007 
L 171.198957 477.926836 
L 176.303617 477.880212 
L 181.390168 477.903977 
L 186.4613 477.930527 
L 191.532937 476.006165 
L 196.599134 476.010353 
L 201.682827 475.946645 
L 206.745843 476.015372 
L 211.828474 474.236456 
L 216.89834 474.259322 
L 221.967664 474.309423 
L 227.046847 474.299992 
L 232.118177 472.310635 
L 237.191835 472.3021 
L 242.264279 472.197147 
L 247.333903 472.323723 
L 252.410653 472.345011 
L 257.481113 470.172375 
L 262.55469 470.211699 
L 267.626848 470.162793 
L 272.700838 470.181684 
L 277.773245 466.780413 
L 282.847412 466.761735 
L 287.918813 466.818328 
L 292.992191 466.815081 
L 298.065555 466.833394 
L 303.138102 462.95115 
L 308.210573 462.907663 
L 313.283465 462.872281 
L 318.356064 462.85026 
L 323.42881 459.324922 
L 328.501688 459.272023 
L 333.574396 459.474203 
L 338.647337 459.365792 
L 343.720056 455.461744 
L 348.792838 455.684527 
L 353.865608 455.644116 
L 358.938341 455.563658 
L 364.011048 455.583124 
L 369.083792 452.014983 
L 374.156471 452.097078 
L 379.229205 452.022794 
L 384.301927 452.084099 
L 389.374668 448.485847 
L 394.447406 448.491079 
L 399.52014 448.543059 
L 404.592884 448.424729 
L 409.665598 448.136508 
L 414.73835 445.178651 
L 419.811079 444.944954 
L 424.883802 444.72817 
L 429.956533 445.247882 
L 435.029256 439.656869 
L 440.101982 435.180847 
L 445.17471 437.135236 
L 450.247443 427.204228 
L 455.320172 431.117479 
L 460.392898 412.882929 
L 465.465626 409.868625 
L 470.538352 406.029091 
L 475.611079 403.395672 
L 480.683809 394.3732 
L 485.756536 391.73185 
L 490.829264 390.406989 
L 495.901992 388.680068 
L 500.974718 375.883428 
L 506.047445 375.177232 
L 511.120172 373.481536 
L 516.192899 371.249718 
L 521.265626 370.645157 
L 526.338353 358.273935 
L 531.411082 357.259063 
L 536.48381 355.029854 
L 541.556538 354.760019 
L 546.629267 342.795498 
L 551.701993 340.146836 
L 556.774719 338.797704 
L 561.847446 337.026369 
L 566.920173 336.263002 
L 571.992901 318.700387 
L 577.065628 317.875116 
L 582.138356 316.083734 
L 587.211084 314.376151 
L 592.283809 300.620973 
L 597.356535 298.790627 
L 602.429262 298.78355 
L 607.50199 295.247728 
L 612.574716 284.320573 
L 617.647443 281.349174 
L 622.720171 281.026398 
L 627.792898 279.640185 
L 632.865625 276.518732 
" clip-path="url(#pc772c505e9)" style="fill: none; stroke: #2ca02c; stroke-linecap: square"/>
   </g>
   <g id="line2d_61">
    <path d="M 74.865625 488.444283 
L 79.556398 488.444942 
L 84.411955 488.46237 
L 89.924798 488.456564 
L 94.632688 488.472777 
L 100.156266 487.787289 
L 105.26842 487.803685 
L 110.361348 487.797579 
L 115.341895 487.783745 
L 120.404759 487.176779 
L 125.420521 487.165316 
L 130.491444 487.170192 
L 135.651989 487.175477 
L 140.764143 487.190097 
L 145.857071 486.553941 
L 150.933635 486.598905 
L 155.982591 486.566079 
L 161.056721 486.533602 
L 166.167165 485.888692 
L 171.198957 485.946834 
L 176.303617 485.969984 
L 181.390168 485.982442 
L 186.4613 485.984744 
L 191.532937 485.369821 
L 196.599134 485.375956 
L 201.682827 485.373069 
L 206.745843 485.357738 
L 211.828474 484.7156 
L 216.89834 484.674485 
L 221.967664 484.59372 
L 227.046847 484.729883 
L 232.118177 484.16986 
L 237.191835 484.083575 
L 242.264279 484.114015 
L 247.333903 484.067208 
L 252.410653 484.083494 
L 257.481113 483.550642 
L 262.55469 483.465711 
L 267.626848 483.488326 
L 272.700838 483.402903 
L 277.773245 482.864053 
L 282.847412 482.794024 
L 287.918813 482.718977 
L 292.992191 482.674557 
L 298.065555 482.553644 
L 303.138102 481.757376 
L 308.210573 481.562577 
L 313.283465 481.387015 
L 318.356064 481.109276 
L 323.42881 480.455542 
L 328.501688 480.332372 
L 333.574396 480.164721 
L 338.647337 479.984318 
L 343.720056 479.339831 
L 348.792838 479.204768 
L 353.865608 479.07523 
L 358.938341 478.914363 
L 364.011048 478.765289 
L 369.083792 478.205355 
L 374.156471 477.995732 
L 379.229205 477.941785 
L 384.301927 477.509287 
L 389.374668 476.646727 
L 394.447406 476.008468 
L 399.52014 475.474043 
L 404.592884 475.14437 
L 409.665598 474.44047 
L 414.73835 474.549673 
L 419.811079 473.973245 
L 424.883802 473.865317 
L 429.956533 473.501095 
L 435.029256 472.616905 
L 440.101982 472.224557 
L 445.17471 471.362031 
L 450.247443 469.460439 
L 455.320172 465.640675 
L 460.392898 464.119901 
L 465.465626 460.128566 
L 470.538352 456.164313 
L 475.611079 456.640044 
L 480.683809 457.604045 
L 485.756536 453.908027 
L 490.829264 452.544181 
L 495.901992 451.84968 
L 500.974718 457.002331 
L 506.047445 449.270252 
L 511.120172 448.272987 
L 516.192899 447.433041 
L 521.265626 446.93394 
L 526.338353 446.127762 
L 531.411082 443.323318 
L 536.48381 442.532267 
L 541.556538 442.094936 
L 546.629267 444.810104 
L 551.701993 439.09296 
L 556.774719 436.415095 
L 561.847446 437.372298 
L 566.920173 436.823744 
L 571.992901 435.371433 
L 577.065628 432.163336 
L 582.138356 432.868428 
L 587.211084 432.125347 
L 592.283809 433.081127 
L 597.356535 428.485879 
L 602.429262 428.387293 
L 607.50199 427.000022 
L 612.574716 434.632113 
L 617.647443 425.249759 
L 622.720171 423.852501 
L 627.792898 421.850769 
L 632.865625 422.871883 
" clip-path="url(#pc772c505e9)" style="fill: none; stroke: #ff7f0e; stroke-linecap: square"/>
   </g>
   <g id="line2d_62">
    <path d="M 74.865625 486.599218 
L 79.556398 486.622718 
L 84.411955 486.613265 
L 89.924798 486.599499 
L 94.632688 486.609609 
L 100.156266 486.570648 
L 105.26842 486.60648 
L 110.361348 486.617557 
L 115.341895 486.619031 
L 120.404759 485.285903 
L 125.420521 485.313913 
L 130.491444 485.30287 
L 135.651989 485.28424 
L 140.764143 485.296071 
L 145.857071 484.199318 
L 150.933635 484.207031 
L 155.982591 484.172053 
L 161.056721 484.206141 
L 166.167165 483.124718 
L 171.198957 483.122209 
L 176.303617 483.102196 
L 181.390168 483.117588 
L 186.4613 483.124083 
L 191.532937 482.054075 
L 196.599134 482.043187 
L 201.682827 481.968223 
L 206.745843 482.034177 
L 211.828474 480.960568 
L 216.89834 480.938894 
L 221.967664 480.959414 
L 227.046847 480.9459 
L 232.118177 479.860383 
L 237.191835 479.828982 
L 242.264279 479.871911 
L 247.333903 479.870896 
L 252.410653 479.862412 
L 257.481113 478.76161 
L 262.55469 478.71959 
L 267.626848 478.762211 
L 272.700838 478.702191 
L 277.773245 477.657049 
L 282.847412 477.651068 
L 287.918813 477.654965 
L 292.992191 477.640458 
L 298.065555 477.650949 
L 303.138102 476.526999 
L 308.210573 476.529756 
L 313.283465 476.509843 
L 318.356064 476.505546 
L 323.42881 475.328483 
L 328.501688 475.337311 
L 333.574396 475.335596 
L 338.647337 475.337732 
L 343.720056 474.140265 
L 348.792838 474.19508 
L 353.865608 474.187865 
L 358.938341 474.091532 
L 364.011048 474.107558 
L 369.083792 472.81118 
L 374.156471 472.776909 
L 379.229205 472.709961 
L 384.301927 472.623683 
L 389.374668 471.177156 
L 394.447406 470.923328 
L 399.52014 470.76576 
L 404.592884 470.622508 
L 409.665598 470.467359 
L 414.73835 469.16677 
L 419.811079 469.005926 
L 424.883802 468.881204 
L 429.956533 468.489047 
L 435.029256 466.506758 
L 440.101982 466.160453 
L 445.17471 465.204513 
L 450.247443 464.626979 
L 455.320172 463.103995 
L 460.392898 458.421559 
L 465.465626 457.466123 
L 470.538352 453.247686 
L 475.611079 450.898486 
L 480.683809 449.239489 
L 485.756536 446.664653 
L 490.829264 445.113649 
L 495.901992 443.835766 
L 500.974718 444.931006 
L 506.047445 442.524944 
L 511.120172 440.440238 
L 516.192899 438.706042 
L 521.265626 437.049573 
L 526.338353 436.62149 
L 531.411082 433.894129 
L 536.48381 432.639481 
L 541.556538 431.610721 
L 546.629267 432.051351 
L 551.701993 429.673857 
L 556.774719 428.397165 
L 561.847446 428.150974 
L 566.920173 427.310153 
L 571.992901 425.277342 
L 577.065628 423.885 
L 582.138356 423.058198 
L 587.211084 422.438901 
L 592.283809 419.284572 
L 597.356535 417.231952 
L 602.429262 416.470458 
L 607.50199 414.520203 
L 612.574716 414.556659 
L 617.647443 411.748205 
L 622.720171 411.451009 
L 627.792898 409.710689 
L 632.865625 409.122236 
" clip-path="url(#pc772c505e9)" style="fill: none; stroke: #e377c2; stroke-linecap: square"/>
   </g>
   <g id="line2d_63"/>
   <g id="line2d_64"/>
   <g id="line2d_65"/>
   <g id="line2d_66"/>
   <g id="line2d_67"/>
   <g id="line2d_68"/>
   <g id="line2d_69"/>
   <g id="patch_5">
    <path d="M 46.965625 494.114688 
L 46.965625 50.594688 
" style="fill: none; stroke: #000000; stroke-width: 0.8; stroke-linejoin: miter; stroke-linecap: square"/>
   </g>
   <g id="patch_6">
    <path d="M 660.765625 494.114688 
L 660.765625 50.594688 
" style="fill: none; stroke: #000000; stroke-width: 0.8; stroke-linejoin: miter; stroke-linecap: square"/>
   </g>
   <g id="patch_7">
    <path d="M 46.965625 494.114688 
L 660.765625 494.114688 
" style="fill: none; stroke: #000000; stroke-width: 0.8; stroke-linejoin: miter; stroke-linecap: square"/>
   </g>
   <g id="patch_8">
    <path d="M 46.965625 50.594688 
L 660.765625 50.594688 
" style="fill: none; stroke: #000000; stroke-width: 0.8; stroke-linejoin: miter; stroke-linecap: square"/>
   </g>
   <g id="text_39">
    <!-- L1  -->
    <g style="fill: #ff0000" transform="translate(283.706204 492.035) scale(0.1 -0.1)">
     <defs>
      <path id="DejaVuSans-4c" d="M 628 4666 
L 1259 4666 
L 1259 531 
L 3531 531 
L 3531 0 
L 628 0 
L 628 4666 
z
" transform="scale(0.015625)"/>
     </defs>
     <use xlink:href="#DejaVuSans-4c"/>
     <use xlink:href="#DejaVuSans-31" x="55.712891"/>
     <use xlink:href="#DejaVuSans-20" x="119.335938"/>
    </g>
   </g>
   <g id="text_40">
    <!-- L2  -->
    <g style="fill: #ff0000" transform="translate(373.287435 492.035) scale(0.1 -0.1)">
     <use xlink:href="#DejaVuSans-4c"/>
     <use xlink:href="#DejaVuSans-32" x="55.712891"/>
     <use xlink:href="#DejaVuSans-20" x="119.335938"/>
    </g>
   </g>
   <g id="text_41">
    <!-- L3  -->
    <g style="fill: #ff0000" transform="translate(440.473359 492.035) scale(0.1 -0.1)">
     <use xlink:href="#DejaVuSans-4c"/>
     <use xlink:href="#DejaVuSans-33" x="55.712891"/>
     <use xlink:href="#DejaVuSans-20" x="119.335938"/>
    </g>
   </g>
   <g id="text_42">
    <!-- RAM -->
    <g style="fill: #ff0000" transform="translate(610.848438 492.035) scale(0.1 -0.1)">
     <defs>
      <path id="DejaVuSans-52" d="M 2841 2188 
Q 3044 2119 3236 1894 
Q 3428 1669 3622 1275 
L 4263 0 
L 3584 0 
L 2988 1197 
Q 2756 1666 2539 1819 
Q 2322 1972 1947 1972 
L 1259 1972 
L 1259 0 
L 628 0 
L 628 4666 
L 2053 4666 
Q 2853 4666 3247 4331 
Q 3641 3997 3641 3322 
Q 3641 2881 3436 2590 
Q 3231 2300 2841 2188 
z
M 1259 4147 
L 1259 2491 
L 2053 2491 
Q 2509 2491 2742 2702 
Q 2975 2913 2975 3322 
Q 2975 3731 2742 3939 
Q 2509 4147 2053 4147 
L 1259 4147 
z
" transform="scale(0.015625)"/>
      <path id="DejaVuSans-4d" d="M 628 4666 
L 1569 4666 
L 2759 1491 
L 3956 4666 
L 4897 4666 
L 4897 0 
L 4281 0 
L 4281 4097 
L 3078 897 
L 2444 897 
L 1241 4097 
L 1241 0 
L 628 0 
L 628 4666 
z
" transform="scale(0.015625)"/>
     </defs>
     <use xlink:href="#DejaVuSans-52"/>
     <use xlink:href="#DejaVuSans-41" x="65.482422"/>
     <use xlink:href="#DejaVuSans-4d" x="133.890625"/>
    </g>
   </g>
   <g id="text_43">
    <!-- Comparison of batched Eytzinger - best prefetching &amp; non-prefetching -->
    <g transform="translate(142.180938 16.318125) scale(0.12 -0.12)">
     <defs>
      <path id="DejaVuSans-43" d="M 4122 4306 
L 4122 3641 
Q 3803 3938 3442 4084 
Q 3081 4231 2675 4231 
Q 1875 4231 1450 3742 
Q 1025 3253 1025 2328 
Q 1025 1406 1450 917 
Q 1875 428 2675 428 
Q 3081 428 3442 575 
Q 3803 722 4122 1019 
L 4122 359 
Q 3791 134 3420 21 
Q 3050 -91 2638 -91 
Q 1578 -91 968 557 
Q 359 1206 359 2328 
Q 359 3453 968 4101 
Q 1578 4750 2638 4750 
Q 3056 4750 3426 4639 
Q 3797 4528 4122 4306 
z
" transform="scale(0.015625)"/>
      <path id="DejaVuSans-6d" d="M 3328 2828 
Q 3544 3216 3844 3400 
Q 4144 3584 4550 3584 
Q 5097 3584 5394 3201 
Q 5691 2819 5691 2113 
L 5691 0 
L 5113 0 
L 5113 2094 
Q 5113 2597 4934 2840 
Q 4756 3084 4391 3084 
Q 3944 3084 3684 2787 
Q 3425 2491 3425 1978 
L 3425 0 
L 2847 0 
L 2847 2094 
Q 2847 2600 2669 2842 
Q 2491 3084 2119 3084 
Q 1678 3084 1418 2786 
Q 1159 2488 1159 1978 
L 1159 0 
L 581 0 
L 581 3500 
L 1159 3500 
L 1159 2956 
Q 1356 3278 1631 3431 
Q 1906 3584 2284 3584 
Q 2666 3584 2933 3390 
Q 3200 3197 3328 2828 
z
" transform="scale(0.015625)"/>
      <path id="DejaVuSans-66" d="M 2375 4863 
L 2375 4384 
L 1825 4384 
Q 1516 4384 1395 4259 
Q 1275 4134 1275 3809 
L 1275 3500 
L 2222 3500 
L 2222 3053 
L 1275 3053 
L 1275 0 
L 697 0 
L 697 3053 
L 147 3053 
L 147 3500 
L 697 3500 
L 697 3744 
Q 697 4328 969 4595 
Q 1241 4863 1831 4863 
L 2375 4863 
z
" transform="scale(0.015625)"/>
      <path id="DejaVuSans-63" d="M 3122 3366 
L 3122 2828 
Q 2878 2963 2633 3030 
Q 2388 3097 2138 3097 
Q 1578 3097 1268 2742 
Q 959 2388 959 1747 
Q 959 1106 1268 751 
Q 1578 397 2138 397 
Q 2388 397 2633 464 
Q 2878 531 3122 666 
L 3122 134 
Q 2881 22 2623 -34 
Q 2366 -91 2075 -91 
Q 1284 -91 818 406 
Q 353 903 353 1747 
Q 353 2603 823 3093 
Q 1294 3584 2113 3584 
Q 2378 3584 2631 3529 
Q 2884 3475 3122 3366 
z
" transform="scale(0.015625)"/>
      <path id="DejaVuSans-64" d="M 2906 2969 
L 2906 4863 
L 3481 4863 
L 3481 0 
L 2906 0 
L 2906 525 
Q 2725 213 2448 61 
Q 2172 -91 1784 -91 
Q 1150 -91 751 415 
Q 353 922 353 1747 
Q 353 2572 751 3078 
Q 1150 3584 1784 3584 
Q 2172 3584 2448 3432 
Q 2725 3281 2906 2969 
z
M 947 1747 
Q 947 1113 1208 752 
Q 1469 391 1925 391 
Q 2381 391 2643 752 
Q 2906 1113 2906 1747 
Q 2906 2381 2643 2742 
Q 2381 3103 1925 3103 
Q 1469 3103 1208 2742 
Q 947 2381 947 1747 
z
" transform="scale(0.015625)"/>
      <path id="DejaVuSans-45" d="M 628 4666 
L 3578 4666 
L 3578 4134 
L 1259 4134 
L 1259 2753 
L 3481 2753 
L 3481 2222 
L 1259 2222 
L 1259 531 
L 3634 531 
L 3634 0 
L 628 0 
L 628 4666 
z
" transform="scale(0.015625)"/>
      <path id="DejaVuSans-2d" d="M 313 2009 
L 1997 2009 
L 1997 1497 
L 313 1497 
L 313 2009 
z
" transform="scale(0.015625)"/>
      <path id="DejaVuSans-26" d="M 1556 2509 
Q 1272 2256 1139 2004 
Q 1006 1753 1006 1478 
Q 1006 1022 1337 719 
Q 1669 416 2169 416 
Q 2466 416 2725 514 
Q 2984 613 3213 813 
L 1556 2509 
z
M 1997 2859 
L 3584 1234 
Q 3769 1513 3872 1830 
Q 3975 2147 3994 2503 
L 4575 2503 
Q 4538 2091 4375 1687 
Q 4213 1284 3922 891 
L 4794 0 
L 4006 0 
L 3559 459 
Q 3234 181 2878 45 
Q 2522 -91 2113 -91 
Q 1359 -91 881 339 
Q 403 769 403 1441 
Q 403 1841 612 2192 
Q 822 2544 1241 2853 
Q 1091 3050 1012 3245 
Q 934 3441 934 3628 
Q 934 4134 1281 4442 
Q 1628 4750 2203 4750 
Q 2463 4750 2720 4694 
Q 2978 4638 3244 4525 
L 3244 3956 
Q 2972 4103 2725 4179 
Q 2478 4256 2266 4256 
Q 1938 4256 1733 4082 
Q 1528 3909 1528 3634 
Q 1528 3475 1620 3314 
Q 1713 3153 1997 2859 
z
" transform="scale(0.015625)"/>
     </defs>
     <use xlink:href="#DejaVuSans-43"/>
     <use xlink:href="#DejaVuSans-6f" x="69.824219"/>
     <use xlink:href="#DejaVuSans-6d" x="131.005859"/>
     <use xlink:href="#DejaVuSans-70" x="228.417969"/>
     <use xlink:href="#DejaVuSans-61" x="291.894531"/>
     <use xlink:href="#DejaVuSans-72" x="353.173828"/>
     <use xlink:href="#DejaVuSans-69" x="394.287109"/>
     <use xlink:href="#DejaVuSans-73" x="422.070312"/>
     <use xlink:href="#DejaVuSans-6f" x="474.169922"/>
     <use xlink:href="#DejaVuSans-6e" x="535.351562"/>
     <use xlink:href="#DejaVuSans-20" x="598.730469"/>
     <use xlink:href="#DejaVuSans-6f" x="630.517578"/>
     <use xlink:href="#DejaVuSans-66" x="691.699219"/>
     <use xlink:href="#DejaVuSans-20" x="726.904297"/>
     <use xlink:href="#DejaVuSans-62" x="758.691406"/>
     <use xlink:href="#DejaVuSans-61" x="822.167969"/>
     <use xlink:href="#DejaVuSans-74" x="883.447266"/>
     <use xlink:href="#DejaVuSans-63" x="922.65625"/>
     <use xlink:href="#DejaVuSans-68" x="977.636719"/>
     <use xlink:href="#DejaVuSans-65" x="1041.015625"/>
     <use xlink:href="#DejaVuSans-64" x="1102.539062"/>
     <use xlink:href="#DejaVuSans-20" x="1166.015625"/>
     <use xlink:href="#DejaVuSans-45" x="1197.802734"/>
     <use xlink:href="#DejaVuSans-79" x="1260.986328"/>
     <use xlink:href="#DejaVuSans-74" x="1320.166016"/>
     <use xlink:href="#DejaVuSans-7a" x="1359.375"/>
     <use xlink:href="#DejaVuSans-69" x="1411.865234"/>
     <use xlink:href="#DejaVuSans-6e" x="1439.648438"/>
     <use xlink:href="#DejaVuSans-67" x="1503.027344"/>
     <use xlink:href="#DejaVuSans-65" x="1566.503906"/>
     <use xlink:href="#DejaVuSans-72" x="1628.027344"/>
     <use xlink:href="#DejaVuSans-20" x="1669.140625"/>
     <use xlink:href="#DejaVuSans-2d" x="1700.927734"/>
     <use xlink:href="#DejaVuSans-20" x="1737.011719"/>
     <use xlink:href="#DejaVuSans-62" x="1768.798828"/>
     <use xlink:href="#DejaVuSans-65" x="1832.275391"/>
     <use xlink:href="#DejaVuSans-73" x="1893.798828"/>
     <use xlink:href="#DejaVuSans-74" x="1945.898438"/>
     <use xlink:href="#DejaVuSans-20" x="1985.107422"/>
     <use xlink:href="#DejaVuSans-70" x="2016.894531"/>
     <use xlink:href="#DejaVuSans-72" x="2080.371094"/>
     <use xlink:href="#DejaVuSans-65" x="2119.234375"/>
     <use xlink:href="#DejaVuSans-66" x="2180.757812"/>
     <use xlink:href="#DejaVuSans-65" x="2215.962891"/>
     <use xlink:href="#DejaVuSans-74" x="2277.486328"/>
     <use xlink:href="#DejaVuSans-63" x="2316.695312"/>
     <use xlink:href="#DejaVuSans-68" x="2371.675781"/>
     <use xlink:href="#DejaVuSans-69" x="2435.054688"/>
     <use xlink:href="#DejaVuSans-6e" x="2462.837891"/>
     <use xlink:href="#DejaVuSans-67" x="2526.216797"/>
     <use xlink:href="#DejaVuSans-20" x="2589.693359"/>
     <use xlink:href="#DejaVuSans-26" x="2621.480469"/>
     <use xlink:href="#DejaVuSans-20" x="2699.458984"/>
     <use xlink:href="#DejaVuSans-6e" x="2731.246094"/>
     <use xlink:href="#DejaVuSans-6f" x="2794.625"/>
     <use xlink:href="#DejaVuSans-6e" x="2855.806641"/>
     <use xlink:href="#DejaVuSans-2d" x="2919.185547"/>
     <use xlink:href="#DejaVuSans-70" x="2955.269531"/>
     <use xlink:href="#DejaVuSans-72" x="3018.746094"/>
     <use xlink:href="#DejaVuSans-65" x="3057.609375"/>
     <use xlink:href="#DejaVuSans-66" x="3119.132812"/>
     <use xlink:href="#DejaVuSans-65" x="3154.337891"/>
     <use xlink:href="#DejaVuSans-74" x="3215.861328"/>
     <use xlink:href="#DejaVuSans-63" x="3255.070312"/>
     <use xlink:href="#DejaVuSans-68" x="3310.050781"/>
     <use xlink:href="#DejaVuSans-69" x="3373.429688"/>
     <use xlink:href="#DejaVuSans-6e" x="3401.212891"/>
     <use xlink:href="#DejaVuSans-67" x="3464.591797"/>
    </g>
   </g>
   <g id="legend_1">
    <g id="patch_9">
     <path d="M 53.965625 118.141563 
L 426.640625 118.141563 
Q 428.640625 118.141563 428.640625 116.141563 
L 428.640625 57.594688 
Q 428.640625 55.594688 426.640625 55.594688 
L 53.965625 55.594688 
Q 51.965625 55.594688 51.965625 57.594688 
L 51.965625 116.141563 
Q 51.965625 118.141563 53.965625 118.141563 
L 53.965625 118.141563 
z
" style="fill: none; opacity: 0"/>
    </g>
    <g id="line2d_70">
     <path d="M 55.965625 63.693125 
L 65.965625 63.693125 
L 75.965625 63.693125 
" style="fill: none; stroke: #2ca02c; stroke-width: 1.5; stroke-linecap: square"/>
    </g>
    <g id="text_44">
     <!-- Eytzinger::search_branchless_prefetch&lt;4&gt; -->
     <g transform="translate(83.965625 67.193125) scale(0.1 -0.1)">
      <defs>
       <path id="DejaVuSans-3a" d="M 750 794 
L 1409 794 
L 1409 0 
L 750 0 
L 750 794 
z
M 750 3309 
L 1409 3309 
L 1409 2516 
L 750 2516 
L 750 3309 
z
" transform="scale(0.015625)"/>
       <path id="DejaVuSans-5f" d="M 3263 -1063 
L 3263 -1509 
L -63 -1509 
L -63 -1063 
L 3263 -1063 
z
" transform="scale(0.015625)"/>
       <path id="DejaVuSans-3c" d="M 4684 3150 
L 1459 2003 
L 4684 863 
L 4684 294 
L 678 1747 
L 678 2266 
L 4684 3719 
L 4684 3150 
z
" transform="scale(0.015625)"/>
       <path id="DejaVuSans-3e" d="M 678 3150 
L 678 3719 
L 4684 2266 
L 4684 1747 
L 678 294 
L 678 863 
L 3897 2003 
L 678 3150 
z
" transform="scale(0.015625)"/>
      </defs>
      <use xlink:href="#DejaVuSans-45"/>
      <use xlink:href="#DejaVuSans-79" x="63.183594"/>
      <use xlink:href="#DejaVuSans-74" x="122.363281"/>
      <use xlink:href="#DejaVuSans-7a" x="161.572266"/>
      <use xlink:href="#DejaVuSans-69" x="214.0625"/>
      <use xlink:href="#DejaVuSans-6e" x="241.845703"/>
      <use xlink:href="#DejaVuSans-67" x="305.224609"/>
      <use xlink:href="#DejaVuSans-65" x="368.701172"/>
      <use xlink:href="#DejaVuSans-72" x="430.224609"/>
      <use xlink:href="#DejaVuSans-3a" x="469.587891"/>
      <use xlink:href="#DejaVuSans-3a" x="503.279297"/>
      <use xlink:href="#DejaVuSans-73" x="536.970703"/>
      <use xlink:href="#DejaVuSans-65" x="589.070312"/>
      <use xlink:href="#DejaVuSans-61" x="650.59375"/>
      <use xlink:href="#DejaVuSans-72" x="711.873047"/>
      <use xlink:href="#DejaVuSans-63" x="750.736328"/>
      <use xlink:href="#DejaVuSans-68" x="805.716797"/>
      <use xlink:href="#DejaVuSans-5f" x="869.095703"/>
      <use xlink:href="#DejaVuSans-62" x="919.095703"/>
      <use xlink:href="#DejaVuSans-72" x="982.572266"/>
      <use xlink:href="#DejaVuSans-61" x="1023.685547"/>
      <use xlink:href="#DejaVuSans-6e" x="1084.964844"/>
      <use xlink:href="#DejaVuSans-63" x="1148.34375"/>
      <use xlink:href="#DejaVuSans-68" x="1203.324219"/>
      <use xlink:href="#DejaVuSans-6c" x="1266.703125"/>
      <use xlink:href="#DejaVuSans-65" x="1294.486328"/>
      <use xlink:href="#DejaVuSans-73" x="1356.009766"/>
      <use xlink:href="#DejaVuSans-73" x="1408.109375"/>
      <use xlink:href="#DejaVuSans-5f" x="1460.208984"/>
      <use xlink:href="#DejaVuSans-70" x="1510.208984"/>
      <use xlink:href="#DejaVuSans-72" x="1573.685547"/>
      <use xlink:href="#DejaVuSans-65" x="1612.548828"/>
      <use xlink:href="#DejaVuSans-66" x="1674.072266"/>
      <use xlink:href="#DejaVuSans-65" x="1709.277344"/>
      <use xlink:href="#DejaVuSans-74" x="1770.800781"/>
      <use xlink:href="#DejaVuSans-63" x="1810.009766"/>
      <use xlink:href="#DejaVuSans-68" x="1864.990234"/>
      <use xlink:href="#DejaVuSans-3c" x="1928.369141"/>
      <use xlink:href="#DejaVuSans-34" x="2012.158203"/>
      <use xlink:href="#DejaVuSans-3e" x="2075.78125"/>
     </g>
    </g>
    <g id="line2d_71">
     <path d="M 55.965625 78.649375 
L 65.965625 78.649375 
L 75.965625 78.649375 
" style="fill: none; stroke: #ff7f0e; stroke-width: 1.5; stroke-linecap: square"/>
    </g>
    <g id="text_45">
     <!-- Batched&lt;128, Eytzinger, Eytzinger::batch_impl&lt;128&gt;&gt; -->
     <g transform="translate(83.965625 82.149375) scale(0.1 -0.1)">
      <defs>
       <path id="DejaVuSans-42" d="M 1259 2228 
L 1259 519 
L 2272 519 
Q 2781 519 3026 730 
Q 3272 941 3272 1375 
Q 3272 1813 3026 2020 
Q 2781 2228 2272 2228 
L 1259 2228 
z
M 1259 4147 
L 1259 2741 
L 2194 2741 
Q 2656 2741 2882 2914 
Q 3109 3088 3109 3444 
Q 3109 3797 2882 3972 
Q 2656 4147 2194 4147 
L 1259 4147 
z
M 628 4666 
L 2241 4666 
Q 2963 4666 3353 4366 
Q 3744 4066 3744 3513 
Q 3744 3084 3544 2831 
Q 3344 2578 2956 2516 
Q 3422 2416 3680 2098 
Q 3938 1781 3938 1306 
Q 3938 681 3513 340 
Q 3088 0 2303 0 
L 628 0 
L 628 4666 
z
" transform="scale(0.015625)"/>
       <path id="DejaVuSans-2c" d="M 750 794 
L 1409 794 
L 1409 256 
L 897 -744 
L 494 -744 
L 750 256 
L 750 794 
z
" transform="scale(0.015625)"/>
      </defs>
      <use xlink:href="#DejaVuSans-42"/>
      <use xlink:href="#DejaVuSans-61" x="68.603516"/>
      <use xlink:href="#DejaVuSans-74" x="129.882812"/>
      <use xlink:href="#DejaVuSans-63" x="169.091797"/>
      <use xlink:href="#DejaVuSans-68" x="224.072266"/>
      <use xlink:href="#DejaVuSans-65" x="287.451172"/>
      <use xlink:href="#DejaVuSans-64" x="348.974609"/>
      <use xlink:href="#DejaVuSans-3c" x="412.451172"/>
      <use xlink:href="#DejaVuSans-31" x="496.240234"/>
      <use xlink:href="#DejaVuSans-32" x="559.863281"/>
      <use xlink:href="#DejaVuSans-38" x="623.486328"/>
      <use xlink:href="#DejaVuSans-2c" x="687.109375"/>
      <use xlink:href="#DejaVuSans-20" x="718.896484"/>
      <use xlink:href="#DejaVuSans-45" x="750.683594"/>
      <use xlink:href="#DejaVuSans-79" x="813.867188"/>
      <use xlink:href="#DejaVuSans-74" x="873.046875"/>
      <use xlink:href="#DejaVuSans-7a" x="912.255859"/>
      <use xlink:href="#DejaVuSans-69" x="964.746094"/>
      <use xlink:href="#DejaVuSans-6e" x="992.529297"/>
      <use xlink:href="#DejaVuSans-67" x="1055.908203"/>
      <use xlink:href="#DejaVuSans-65" x="1119.384766"/>
      <use xlink:href="#DejaVuSans-72" x="1180.908203"/>
      <use xlink:href="#DejaVuSans-2c" x="1222.021484"/>
      <use xlink:href="#DejaVuSans-20" x="1253.808594"/>
      <use xlink:href="#DejaVuSans-45" x="1285.595703"/>
      <use xlink:href="#DejaVuSans-79" x="1348.779297"/>
      <use xlink:href="#DejaVuSans-74" x="1407.958984"/>
      <use xlink:href="#DejaVuSans-7a" x="1447.167969"/>
      <use xlink:href="#DejaVuSans-69" x="1499.658203"/>
      <use xlink:href="#DejaVuSans-6e" x="1527.441406"/>
      <use xlink:href="#DejaVuSans-67" x="1590.820312"/>
      <use xlink:href="#DejaVuSans-65" x="1654.296875"/>
      <use xlink:href="#DejaVuSans-72" x="1715.820312"/>
      <use xlink:href="#DejaVuSans-3a" x="1755.183594"/>
      <use xlink:href="#DejaVuSans-3a" x="1788.875"/>
      <use xlink:href="#DejaVuSans-62" x="1822.566406"/>
      <use xlink:href="#DejaVuSans-61" x="1886.042969"/>
      <use xlink:href="#DejaVuSans-74" x="1947.322266"/>
      <use xlink:href="#DejaVuSans-63" x="1986.53125"/>
      <use xlink:href="#DejaVuSans-68" x="2041.511719"/>
      <use xlink:href="#DejaVuSans-5f" x="2104.890625"/>
      <use xlink:href="#DejaVuSans-69" x="2154.890625"/>
      <use xlink:href="#DejaVuSans-6d" x="2182.673828"/>
      <use xlink:href="#DejaVuSans-70" x="2280.085938"/>
      <use xlink:href="#DejaVuSans-6c" x="2343.5625"/>
      <use xlink:href="#DejaVuSans-3c" x="2371.345703"/>
      <use xlink:href="#DejaVuSans-31" x="2455.134766"/>
      <use xlink:href="#DejaVuSans-32" x="2518.757812"/>
      <use xlink:href="#DejaVuSans-38" x="2582.380859"/>
      <use xlink:href="#DejaVuSans-3e" x="2646.003906"/>
      <use xlink:href="#DejaVuSans-3e" x="2729.792969"/>
     </g>
    </g>
    <g id="line2d_72">
     <path d="M 55.965625 93.605625 
L 65.965625 93.605625 
L 75.965625 93.605625 
" style="fill: none; stroke: #e377c2; stroke-width: 1.5; stroke-linecap: square"/>
    </g>
    <g id="text_46">
     <!-- Batched&lt;16, Eytzinger, Eytzinger::batch_impl_prefetched&lt;16, 4&gt;&gt; -->
     <g transform="translate(83.965625 97.105625) scale(0.1 -0.1)">
      <use xlink:href="#DejaVuSans-42"/>
      <use xlink:href="#DejaVuSans-61" x="68.603516"/>
      <use xlink:href="#DejaVuSans-74" x="129.882812"/>
      <use xlink:href="#DejaVuSans-63" x="169.091797"/>
      <use xlink:href="#DejaVuSans-68" x="224.072266"/>
      <use xlink:href="#DejaVuSans-65" x="287.451172"/>
      <use xlink:href="#DejaVuSans-64" x="348.974609"/>
      <use xlink:href="#DejaVuSans-3c" x="412.451172"/>
      <use xlink:href="#DejaVuSans-31" x="496.240234"/>
      <use xlink:href="#DejaVuSans-36" x="559.863281"/>
      <use xlink:href="#DejaVuSans-2c" x="623.486328"/>
      <use xlink:href="#DejaVuSans-20" x="655.273438"/>
      <use xlink:href="#DejaVuSans-45" x="687.060547"/>
      <use xlink:href="#DejaVuSans-79" x="750.244141"/>
      <use xlink:href="#DejaVuSans-74" x="809.423828"/>
      <use xlink:href="#DejaVuSans-7a" x="848.632812"/>
      <use xlink:href="#DejaVuSans-69" x="901.123047"/>
      <use xlink:href="#DejaVuSans-6e" x="928.90625"/>
      <use xlink:href="#DejaVuSans-67" x="992.285156"/>
      <use xlink:href="#DejaVuSans-65" x="1055.761719"/>
      <use xlink:href="#DejaVuSans-72" x="1117.285156"/>
      <use xlink:href="#DejaVuSans-2c" x="1158.398438"/>
      <use xlink:href="#DejaVuSans-20" x="1190.185547"/>
      <use xlink:href="#DejaVuSans-45" x="1221.972656"/>
      <use xlink:href="#DejaVuSans-79" x="1285.15625"/>
      <use xlink:href="#DejaVuSans-74" x="1344.335938"/>
      <use xlink:href="#DejaVuSans-7a" x="1383.544922"/>
      <use xlink:href="#DejaVuSans-69" x="1436.035156"/>
      <use xlink:href="#DejaVuSans-6e" x="1463.818359"/>
      <use xlink:href="#DejaVuSans-67" x="1527.197266"/>
      <use xlink:href="#DejaVuSans-65" x="1590.673828"/>
      <use xlink:href="#DejaVuSans-72" x="1652.197266"/>
      <use xlink:href="#DejaVuSans-3a" x="1691.560547"/>
      <use xlink:href="#DejaVuSans-3a" x="1725.251953"/>
      <use xlink:href="#DejaVuSans-62" x="1758.943359"/>
      <use xlink:href="#DejaVuSans-61" x="1822.419922"/>
      <use xlink:href="#DejaVuSans-74" x="1883.699219"/>
      <use xlink:href="#DejaVuSans-63" x="1922.908203"/>
      <use xlink:href="#DejaVuSans-68" x="1977.888672"/>
      <use xlink:href="#DejaVuSans-5f" x="2041.267578"/>
      <use xlink:href="#DejaVuSans-69" x="2091.267578"/>
      <use xlink:href="#DejaVuSans-6d" x="2119.050781"/>
      <use xlink:href="#DejaVuSans-70" x="2216.462891"/>
      <use xlink:href="#DejaVuSans-6c" x="2279.939453"/>
      <use xlink:href="#DejaVuSans-5f" x="2307.722656"/>
      <use xlink:href="#DejaVuSans-70" x="2357.722656"/>
      <use xlink:href="#DejaVuSans-72" x="2421.199219"/>
      <use xlink:href="#DejaVuSans-65" x="2460.0625"/>
      <use xlink:href="#DejaVuSans-66" x="2521.585938"/>
      <use xlink:href="#DejaVuSans-65" x="2556.791016"/>
      <use xlink:href="#DejaVuSans-74" x="2618.314453"/>
      <use xlink:href="#DejaVuSans-63" x="2657.523438"/>
      <use xlink:href="#DejaVuSans-68" x="2712.503906"/>
      <use xlink:href="#DejaVuSans-65" x="2775.882812"/>
      <use xlink:href="#DejaVuSans-64" x="2837.40625"/>
      <use xlink:href="#DejaVuSans-3c" x="2900.882812"/>
      <use xlink:href="#DejaVuSans-31" x="2984.671875"/>
      <use xlink:href="#DejaVuSans-36" x="3048.294922"/>
      <use xlink:href="#DejaVuSans-2c" x="3111.917969"/>
      <use xlink:href="#DejaVuSans-20" x="3143.705078"/>
      <use xlink:href="#DejaVuSans-34" x="3175.492188"/>
      <use xlink:href="#DejaVuSans-3e" x="3239.115234"/>
      <use xlink:href="#DejaVuSans-3e" x="3322.904297"/>
     </g>
    </g>
    <g id="line2d_73">
     <path d="M 55.965625 108.561875 
L 65.965625 108.561875 
L 75.965625 108.561875 
" style="fill: none; stroke: #333333; stroke-width: 1.5; stroke-linecap: square"/>
    </g>
    <g id="text_47">
     <!-- Eytzinger -->
     <g transform="translate(83.965625 112.061875) scale(0.1 -0.1)">
      <use xlink:href="#DejaVuSans-45"/>
      <use xlink:href="#DejaVuSans-79" x="63.183594"/>
      <use xlink:href="#DejaVuSans-74" x="122.363281"/>
      <use xlink:href="#DejaVuSans-7a" x="161.572266"/>
      <use xlink:href="#DejaVuSans-69" x="214.0625"/>
      <use xlink:href="#DejaVuSans-6e" x="241.845703"/>
      <use xlink:href="#DejaVuSans-67" x="305.224609"/>
      <use xlink:href="#DejaVuSans-65" x="368.701172"/>
      <use xlink:href="#DejaVuSans-72" x="430.224609"/>
     </g>
    </g>
   </g>
  </g>
 </g>
 <defs>
  <clipPath id="pc772c505e9">
   <rect x="46.965625" y="50.594688" width="613.8" height="443.52"/>
  </clipPath>
 </defs>
</svg>
