<?xml version="1.0" encoding="utf-8" standalone="no"?>
<!DOCTYPE svg PUBLIC "-//W3C//DTD SVG 1.1//EN"
  "http://www.w3.org/Graphics/SVG/1.1/DTD/svg11.dtd">
<svg xmlns:xlink="http://www.w3.org/1999/xlink" width="674.328125pt" height="531.670938pt" viewBox="0 0 674.328125 531.670938" xmlns="http://www.w3.org/2000/svg" version="1.1">
 <metadata>
  <rdf:RDF xmlns:dc="http://purl.org/dc/elements/1.1/" xmlns:cc="http://creativecommons.org/ns#" xmlns:rdf="http://www.w3.org/1999/02/22-rdf-syntax-ns#">
   <cc:Work>
    <dc:type rdf:resource="http://purl.org/dc/dcmitype/StillImage"/>
    <dc:date>2025-02-12T11:28:35.803558</dc:date>
    <dc:format>image/svg+xml</dc:format>
    <dc:creator>
     <cc:Agent>
      <dc:title>Matplotlib v3.9.2, https://matplotlib.org/</dc:title>
     </cc:Agent>
    </dc:creator>
   </cc:Work>
  </rdf:RDF>
 </metadata>
 <defs>
  <style type="text/css">*{stroke-linejoin: round; stroke-linecap: butt}</style>
 </defs>
 <g id="figure_1">
  <g id="patch_1">
   <path d="M 0 531.670938 
L 674.328125 531.670938 
L 674.328125 0 
L 0 0 
z
" style="fill: #ffffff"/>
  </g>
  <g id="axes_1">
   <g id="patch_2">
    <path d="M 53.328125 494.114688 
L 667.128125 494.114688 
L 667.128125 50.594688 
L 53.328125 50.594688 
z
" style="fill: #ffffff"/>
   </g>
   <g id="line2d_1">
    <path d="M 305.181204 494.114688 
L 305.181204 50.594688 
" clip-path="url(#p249764c68c)" style="fill: none; stroke-dasharray: 5.55,2.4; stroke-dashoffset: 0; stroke: #ff0000; stroke-width: 1.5"/>
   </g>
   <g id="line2d_2">
    <path d="M 394.762435 494.114688 
L 394.762435 50.594688 
" clip-path="url(#p249764c68c)" style="fill: none; stroke-dasharray: 5.55,2.4; stroke-dashoffset: 0; stroke: #ff0000; stroke-width: 1.5"/>
   </g>
   <g id="line2d_3">
    <path d="M 461.948359 494.114688 
L 461.948359 50.594688 
" clip-path="url(#p249764c68c)" style="fill: none; stroke-dasharray: 5.55,2.4; stroke-dashoffset: 0; stroke: #ff0000; stroke-width: 1.5"/>
   </g>
   <g id="axes_2">
    <g id="patch_3">
     <path d="M 53.328125 50.594688 
L 667.128125 50.594688 
L 667.128125 50.594687 
L 53.328125 50.594687 
z
" style="fill: #ffffff"/>
    </g>
    <g id="matplotlib.axis_1">
     <g id="xtick_1">
      <g id="line2d_4">
       <defs>
        <path id="m505aa66663" d="M 0 0 
L 0 -3.5 
" style="stroke: #000000; stroke-width: 0.8"/>
       </defs>
       <g>
        <use xlink:href="#m505aa66663" x="58.832817" y="50.594687" style="stroke: #000000; stroke-width: 0.8"/>
       </g>
      </g>
      <g id="text_1">
       <!-- $\mathdefault{2^{2}}$ -->
       <g transform="translate(53.232817 41.515) scale(0.1 -0.1)">
        <defs>
         <path id="DejaVuSans-32" d="M 1228 531 
L 3431 531 
L 3431 0 
L 469 0 
L 469 531 
Q 828 903 1448 1529 
Q 2069 2156 2228 2338 
Q 2531 2678 2651 2914 
Q 2772 3150 2772 3378 
Q 2772 3750 2511 3984 
Q 2250 4219 1831 4219 
Q 1534 4219 1204 4116 
Q 875 4013 500 3803 
L 500 4441 
Q 881 4594 1212 4672 
Q 1544 4750 1819 4750 
Q 2544 4750 2975 4387 
Q 3406 4025 3406 3419 
Q 3406 3131 3298 2873 
Q 3191 2616 2906 2266 
Q 2828 2175 2409 1742 
Q 1991 1309 1228 531 
z
" transform="scale(0.015625)"/>
        </defs>
        <use xlink:href="#DejaVuSans-32" transform="translate(0 0.765625)"/>
        <use xlink:href="#DejaVuSans-32" transform="translate(64.580078 39.046875) scale(0.7)"/>
       </g>
      </g>
     </g>
     <g id="xtick_2">
      <g id="line2d_5">
       <g>
        <use xlink:href="#m505aa66663" x="103.623433" y="50.594687" style="stroke: #000000; stroke-width: 0.8"/>
       </g>
      </g>
      <g id="text_2">
       <!-- $\mathdefault{2^{4}}$ -->
       <g transform="translate(98.023433 41.515) scale(0.1 -0.1)">
        <defs>
         <path id="DejaVuSans-34" d="M 2419 4116 
L 825 1625 
L 2419 1625 
L 2419 4116 
z
M 2253 4666 
L 3047 4666 
L 3047 1625 
L 3713 1625 
L 3713 1100 
L 3047 1100 
L 3047 0 
L 2419 0 
L 2419 1100 
L 313 1100 
L 313 1709 
L 2253 4666 
z
" transform="scale(0.015625)"/>
        </defs>
        <use xlink:href="#DejaVuSans-32" transform="translate(0 0.684375)"/>
        <use xlink:href="#DejaVuSans-34" transform="translate(64.580078 38.965625) scale(0.7)"/>
       </g>
      </g>
     </g>
     <g id="xtick_3">
      <g id="line2d_6">
       <g>
        <use xlink:href="#m505aa66663" x="148.414049" y="50.594687" style="stroke: #000000; stroke-width: 0.8"/>
       </g>
      </g>
      <g id="text_3">
       <!-- $\mathdefault{2^{6}}$ -->
       <g transform="translate(142.814049 41.515) scale(0.1 -0.1)">
        <defs>
         <path id="DejaVuSans-36" d="M 2113 2584 
Q 1688 2584 1439 2293 
Q 1191 2003 1191 1497 
Q 1191 994 1439 701 
Q 1688 409 2113 409 
Q 2538 409 2786 701 
Q 3034 994 3034 1497 
Q 3034 2003 2786 2293 
Q 2538 2584 2113 2584 
z
M 3366 4563 
L 3366 3988 
Q 3128 4100 2886 4159 
Q 2644 4219 2406 4219 
Q 1781 4219 1451 3797 
Q 1122 3375 1075 2522 
Q 1259 2794 1537 2939 
Q 1816 3084 2150 3084 
Q 2853 3084 3261 2657 
Q 3669 2231 3669 1497 
Q 3669 778 3244 343 
Q 2819 -91 2113 -91 
Q 1303 -91 875 529 
Q 447 1150 447 2328 
Q 447 3434 972 4092 
Q 1497 4750 2381 4750 
Q 2619 4750 2861 4703 
Q 3103 4656 3366 4563 
z
" transform="scale(0.015625)"/>
        </defs>
        <use xlink:href="#DejaVuSans-32" transform="translate(0 0.765625)"/>
        <use xlink:href="#DejaVuSans-36" transform="translate(64.580078 39.046875) scale(0.7)"/>
       </g>
      </g>
     </g>
     <g id="xtick_4">
      <g id="line2d_7">
       <g>
        <use xlink:href="#m505aa66663" x="193.204664" y="50.594687" style="stroke: #000000; stroke-width: 0.8"/>
       </g>
      </g>
      <g id="text_4">
       <!-- $\mathdefault{2^{8}}$ -->
       <g transform="translate(187.604664 41.515) scale(0.1 -0.1)">
        <defs>
         <path id="DejaVuSans-38" d="M 2034 2216 
Q 1584 2216 1326 1975 
Q 1069 1734 1069 1313 
Q 1069 891 1326 650 
Q 1584 409 2034 409 
Q 2484 409 2743 651 
Q 3003 894 3003 1313 
Q 3003 1734 2745 1975 
Q 2488 2216 2034 2216 
z
M 1403 2484 
Q 997 2584 770 2862 
Q 544 3141 544 3541 
Q 544 4100 942 4425 
Q 1341 4750 2034 4750 
Q 2731 4750 3128 4425 
Q 3525 4100 3525 3541 
Q 3525 3141 3298 2862 
Q 3072 2584 2669 2484 
Q 3125 2378 3379 2068 
Q 3634 1759 3634 1313 
Q 3634 634 3220 271 
Q 2806 -91 2034 -91 
Q 1263 -91 848 271 
Q 434 634 434 1313 
Q 434 1759 690 2068 
Q 947 2378 1403 2484 
z
M 1172 3481 
Q 1172 3119 1398 2916 
Q 1625 2713 2034 2713 
Q 2441 2713 2670 2916 
Q 2900 3119 2900 3481 
Q 2900 3844 2670 4047 
Q 2441 4250 2034 4250 
Q 1625 4250 1398 4047 
Q 1172 3844 1172 3481 
z
" transform="scale(0.015625)"/>
        </defs>
        <use xlink:href="#DejaVuSans-32" transform="translate(0 0.765625)"/>
        <use xlink:href="#DejaVuSans-38" transform="translate(64.580078 39.046875) scale(0.7)"/>
       </g>
      </g>
     </g>
     <g id="xtick_5">
      <g id="line2d_8">
       <g>
        <use xlink:href="#m505aa66663" x="237.99528" y="50.594687" style="stroke: #000000; stroke-width: 0.8"/>
       </g>
      </g>
      <g id="text_5">
       <!-- $\mathdefault{2^{10}}$ -->
       <g transform="translate(230.14528 41.515) scale(0.1 -0.1)">
        <defs>
         <path id="DejaVuSans-31" d="M 794 531 
L 1825 531 
L 1825 4091 
L 703 3866 
L 703 4441 
L 1819 4666 
L 2450 4666 
L 2450 531 
L 3481 531 
L 3481 0 
L 794 0 
L 794 531 
z
" transform="scale(0.015625)"/>
         <path id="DejaVuSans-30" d="M 2034 4250 
Q 1547 4250 1301 3770 
Q 1056 3291 1056 2328 
Q 1056 1369 1301 889 
Q 1547 409 2034 409 
Q 2525 409 2770 889 
Q 3016 1369 3016 2328 
Q 3016 3291 2770 3770 
Q 2525 4250 2034 4250 
z
M 2034 4750 
Q 2819 4750 3233 4129 
Q 3647 3509 3647 2328 
Q 3647 1150 3233 529 
Q 2819 -91 2034 -91 
Q 1250 -91 836 529 
Q 422 1150 422 2328 
Q 422 3509 836 4129 
Q 1250 4750 2034 4750 
z
" transform="scale(0.015625)"/>
        </defs>
        <use xlink:href="#DejaVuSans-32" transform="translate(0 0.765625)"/>
        <use xlink:href="#DejaVuSans-31" transform="translate(64.580078 39.046875) scale(0.7)"/>
        <use xlink:href="#DejaVuSans-30" transform="translate(109.116211 39.046875) scale(0.7)"/>
       </g>
      </g>
     </g>
     <g id="xtick_6">
      <g id="line2d_9">
       <g>
        <use xlink:href="#m505aa66663" x="282.785896" y="50.594687" style="stroke: #000000; stroke-width: 0.8"/>
       </g>
      </g>
      <g id="text_6">
       <!-- $\mathdefault{2^{12}}$ -->
       <g transform="translate(274.935896 41.515) scale(0.1 -0.1)">
        <use xlink:href="#DejaVuSans-32" transform="translate(0 0.765625)"/>
        <use xlink:href="#DejaVuSans-31" transform="translate(64.580078 39.046875) scale(0.7)"/>
        <use xlink:href="#DejaVuSans-32" transform="translate(109.116211 39.046875) scale(0.7)"/>
       </g>
      </g>
     </g>
     <g id="xtick_7">
      <g id="line2d_10">
       <g>
        <use xlink:href="#m505aa66663" x="327.576512" y="50.594687" style="stroke: #000000; stroke-width: 0.8"/>
       </g>
      </g>
      <g id="text_7">
       <!-- $\mathdefault{2^{14}}$ -->
       <g transform="translate(319.726512 41.515) scale(0.1 -0.1)">
        <use xlink:href="#DejaVuSans-32" transform="translate(0 0.684375)"/>
        <use xlink:href="#DejaVuSans-31" transform="translate(64.580078 38.965625) scale(0.7)"/>
        <use xlink:href="#DejaVuSans-34" transform="translate(109.116211 38.965625) scale(0.7)"/>
       </g>
      </g>
     </g>
     <g id="xtick_8">
      <g id="line2d_11">
       <g>
        <use xlink:href="#m505aa66663" x="372.367127" y="50.594687" style="stroke: #000000; stroke-width: 0.8"/>
       </g>
      </g>
      <g id="text_8">
       <!-- $\mathdefault{2^{16}}$ -->
       <g transform="translate(364.517127 41.515) scale(0.1 -0.1)">
        <use xlink:href="#DejaVuSans-32" transform="translate(0 0.765625)"/>
        <use xlink:href="#DejaVuSans-31" transform="translate(64.580078 39.046875) scale(0.7)"/>
        <use xlink:href="#DejaVuSans-36" transform="translate(109.116211 39.046875) scale(0.7)"/>
       </g>
      </g>
     </g>
     <g id="xtick_9">
      <g id="line2d_12">
       <g>
        <use xlink:href="#m505aa66663" x="417.157743" y="50.594687" style="stroke: #000000; stroke-width: 0.8"/>
       </g>
      </g>
      <g id="text_9">
       <!-- $\mathdefault{2^{18}}$ -->
       <g transform="translate(409.307743 41.515) scale(0.1 -0.1)">
        <use xlink:href="#DejaVuSans-32" transform="translate(0 0.765625)"/>
        <use xlink:href="#DejaVuSans-31" transform="translate(64.580078 39.046875) scale(0.7)"/>
        <use xlink:href="#DejaVuSans-38" transform="translate(109.116211 39.046875) scale(0.7)"/>
       </g>
      </g>
     </g>
     <g id="xtick_10">
      <g id="line2d_13">
       <g>
        <use xlink:href="#m505aa66663" x="461.948359" y="50.594687" style="stroke: #000000; stroke-width: 0.8"/>
       </g>
      </g>
      <g id="text_10">
       <!-- $\mathdefault{2^{20}}$ -->
       <g transform="translate(454.098359 41.515) scale(0.1 -0.1)">
        <use xlink:href="#DejaVuSans-32" transform="translate(0 0.765625)"/>
        <use xlink:href="#DejaVuSans-32" transform="translate(64.580078 39.046875) scale(0.7)"/>
        <use xlink:href="#DejaVuSans-30" transform="translate(109.116211 39.046875) scale(0.7)"/>
       </g>
      </g>
     </g>
     <g id="xtick_11">
      <g id="line2d_14">
       <g>
        <use xlink:href="#m505aa66663" x="506.738974" y="50.594687" style="stroke: #000000; stroke-width: 0.8"/>
       </g>
      </g>
      <g id="text_11">
       <!-- $\mathdefault{2^{22}}$ -->
       <g transform="translate(498.888974 41.515) scale(0.1 -0.1)">
        <use xlink:href="#DejaVuSans-32" transform="translate(0 0.765625)"/>
        <use xlink:href="#DejaVuSans-32" transform="translate(64.580078 39.046875) scale(0.7)"/>
        <use xlink:href="#DejaVuSans-32" transform="translate(109.116211 39.046875) scale(0.7)"/>
       </g>
      </g>
     </g>
     <g id="xtick_12">
      <g id="line2d_15">
       <g>
        <use xlink:href="#m505aa66663" x="551.52959" y="50.594687" style="stroke: #000000; stroke-width: 0.8"/>
       </g>
      </g>
      <g id="text_12">
       <!-- $\mathdefault{2^{24}}$ -->
       <g transform="translate(543.67959 41.515) scale(0.1 -0.1)">
        <use xlink:href="#DejaVuSans-32" transform="translate(0 0.765625)"/>
        <use xlink:href="#DejaVuSans-32" transform="translate(64.580078 39.046875) scale(0.7)"/>
        <use xlink:href="#DejaVuSans-34" transform="translate(109.116211 39.046875) scale(0.7)"/>
       </g>
      </g>
     </g>
     <g id="xtick_13">
      <g id="line2d_16">
       <g>
        <use xlink:href="#m505aa66663" x="596.320206" y="50.594687" style="stroke: #000000; stroke-width: 0.8"/>
       </g>
      </g>
      <g id="text_13">
       <!-- $\mathdefault{2^{26}}$ -->
       <g transform="translate(588.470206 41.515) scale(0.1 -0.1)">
        <use xlink:href="#DejaVuSans-32" transform="translate(0 0.765625)"/>
        <use xlink:href="#DejaVuSans-32" transform="translate(64.580078 39.046875) scale(0.7)"/>
        <use xlink:href="#DejaVuSans-36" transform="translate(109.116211 39.046875) scale(0.7)"/>
       </g>
      </g>
     </g>
     <g id="xtick_14">
      <g id="line2d_17">
       <g>
        <use xlink:href="#m505aa66663" x="641.110822" y="50.594687" style="stroke: #000000; stroke-width: 0.8"/>
       </g>
      </g>
      <g id="text_14">
       <!-- $\mathdefault{2^{28}}$ -->
       <g transform="translate(633.260822 41.515) scale(0.1 -0.1)">
        <use xlink:href="#DejaVuSans-32" transform="translate(0 0.765625)"/>
        <use xlink:href="#DejaVuSans-32" transform="translate(64.580078 39.046875) scale(0.7)"/>
        <use xlink:href="#DejaVuSans-38" transform="translate(109.116211 39.046875) scale(0.7)"/>
       </g>
      </g>
     </g>
     <g id="text_15">
      <!-- Array length (u32) -->
      <g transform="translate(314.2125 29.916562) scale(0.1 -0.1)">
       <defs>
        <path id="DejaVuSans-41" d="M 2188 4044 
L 1331 1722 
L 3047 1722 
L 2188 4044 
z
M 1831 4666 
L 2547 4666 
L 4325 0 
L 3669 0 
L 3244 1197 
L 1141 1197 
L 716 0 
L 50 0 
L 1831 4666 
z
" transform="scale(0.015625)"/>
        <path id="DejaVuSans-72" d="M 2631 2963 
Q 2534 3019 2420 3045 
Q 2306 3072 2169 3072 
Q 1681 3072 1420 2755 
Q 1159 2438 1159 1844 
L 1159 0 
L 581 0 
L 581 3500 
L 1159 3500 
L 1159 2956 
Q 1341 3275 1631 3429 
Q 1922 3584 2338 3584 
Q 2397 3584 2469 3576 
Q 2541 3569 2628 3553 
L 2631 2963 
z
" transform="scale(0.015625)"/>
        <path id="DejaVuSans-61" d="M 2194 1759 
Q 1497 1759 1228 1600 
Q 959 1441 959 1056 
Q 959 750 1161 570 
Q 1363 391 1709 391 
Q 2188 391 2477 730 
Q 2766 1069 2766 1631 
L 2766 1759 
L 2194 1759 
z
M 3341 1997 
L 3341 0 
L 2766 0 
L 2766 531 
Q 2569 213 2275 61 
Q 1981 -91 1556 -91 
Q 1019 -91 701 211 
Q 384 513 384 1019 
Q 384 1609 779 1909 
Q 1175 2209 1959 2209 
L 2766 2209 
L 2766 2266 
Q 2766 2663 2505 2880 
Q 2244 3097 1772 3097 
Q 1472 3097 1187 3025 
Q 903 2953 641 2809 
L 641 3341 
Q 956 3463 1253 3523 
Q 1550 3584 1831 3584 
Q 2591 3584 2966 3190 
Q 3341 2797 3341 1997 
z
" transform="scale(0.015625)"/>
        <path id="DejaVuSans-79" d="M 2059 -325 
Q 1816 -950 1584 -1140 
Q 1353 -1331 966 -1331 
L 506 -1331 
L 506 -850 
L 844 -850 
Q 1081 -850 1212 -737 
Q 1344 -625 1503 -206 
L 1606 56 
L 191 3500 
L 800 3500 
L 1894 763 
L 2988 3500 
L 3597 3500 
L 2059 -325 
z
" transform="scale(0.015625)"/>
        <path id="DejaVuSans-20" transform="scale(0.015625)"/>
        <path id="DejaVuSans-6c" d="M 603 4863 
L 1178 4863 
L 1178 0 
L 603 0 
L 603 4863 
z
" transform="scale(0.015625)"/>
        <path id="DejaVuSans-65" d="M 3597 1894 
L 3597 1613 
L 953 1613 
Q 991 1019 1311 708 
Q 1631 397 2203 397 
Q 2534 397 2845 478 
Q 3156 559 3463 722 
L 3463 178 
Q 3153 47 2828 -22 
Q 2503 -91 2169 -91 
Q 1331 -91 842 396 
Q 353 884 353 1716 
Q 353 2575 817 3079 
Q 1281 3584 2069 3584 
Q 2775 3584 3186 3129 
Q 3597 2675 3597 1894 
z
M 3022 2063 
Q 3016 2534 2758 2815 
Q 2500 3097 2075 3097 
Q 1594 3097 1305 2825 
Q 1016 2553 972 2059 
L 3022 2063 
z
" transform="scale(0.015625)"/>
        <path id="DejaVuSans-6e" d="M 3513 2113 
L 3513 0 
L 2938 0 
L 2938 2094 
Q 2938 2591 2744 2837 
Q 2550 3084 2163 3084 
Q 1697 3084 1428 2787 
Q 1159 2491 1159 1978 
L 1159 0 
L 581 0 
L 581 3500 
L 1159 3500 
L 1159 2956 
Q 1366 3272 1645 3428 
Q 1925 3584 2291 3584 
Q 2894 3584 3203 3211 
Q 3513 2838 3513 2113 
z
" transform="scale(0.015625)"/>
        <path id="DejaVuSans-67" d="M 2906 1791 
Q 2906 2416 2648 2759 
Q 2391 3103 1925 3103 
Q 1463 3103 1205 2759 
Q 947 2416 947 1791 
Q 947 1169 1205 825 
Q 1463 481 1925 481 
Q 2391 481 2648 825 
Q 2906 1169 2906 1791 
z
M 3481 434 
Q 3481 -459 3084 -895 
Q 2688 -1331 1869 -1331 
Q 1566 -1331 1297 -1286 
Q 1028 -1241 775 -1147 
L 775 -588 
Q 1028 -725 1275 -790 
Q 1522 -856 1778 -856 
Q 2344 -856 2625 -561 
Q 2906 -266 2906 331 
L 2906 616 
Q 2728 306 2450 153 
Q 2172 0 1784 0 
Q 1141 0 747 490 
Q 353 981 353 1791 
Q 353 2603 747 3093 
Q 1141 3584 1784 3584 
Q 2172 3584 2450 3431 
Q 2728 3278 2906 2969 
L 2906 3500 
L 3481 3500 
L 3481 434 
z
" transform="scale(0.015625)"/>
        <path id="DejaVuSans-74" d="M 1172 4494 
L 1172 3500 
L 2356 3500 
L 2356 3053 
L 1172 3053 
L 1172 1153 
Q 1172 725 1289 603 
Q 1406 481 1766 481 
L 2356 481 
L 2356 0 
L 1766 0 
Q 1100 0 847 248 
Q 594 497 594 1153 
L 594 3053 
L 172 3053 
L 172 3500 
L 594 3500 
L 594 4494 
L 1172 4494 
z
" transform="scale(0.015625)"/>
        <path id="DejaVuSans-68" d="M 3513 2113 
L 3513 0 
L 2938 0 
L 2938 2094 
Q 2938 2591 2744 2837 
Q 2550 3084 2163 3084 
Q 1697 3084 1428 2787 
Q 1159 2491 1159 1978 
L 1159 0 
L 581 0 
L 581 4863 
L 1159 4863 
L 1159 2956 
Q 1366 3272 1645 3428 
Q 1925 3584 2291 3584 
Q 2894 3584 3203 3211 
Q 3513 2838 3513 2113 
z
" transform="scale(0.015625)"/>
        <path id="DejaVuSans-28" d="M 1984 4856 
Q 1566 4138 1362 3434 
Q 1159 2731 1159 2009 
Q 1159 1288 1364 580 
Q 1569 -128 1984 -844 
L 1484 -844 
Q 1016 -109 783 600 
Q 550 1309 550 2009 
Q 550 2706 781 3412 
Q 1013 4119 1484 4856 
L 1984 4856 
z
" transform="scale(0.015625)"/>
        <path id="DejaVuSans-75" d="M 544 1381 
L 544 3500 
L 1119 3500 
L 1119 1403 
Q 1119 906 1312 657 
Q 1506 409 1894 409 
Q 2359 409 2629 706 
Q 2900 1003 2900 1516 
L 2900 3500 
L 3475 3500 
L 3475 0 
L 2900 0 
L 2900 538 
Q 2691 219 2414 64 
Q 2138 -91 1772 -91 
Q 1169 -91 856 284 
Q 544 659 544 1381 
z
M 1991 3584 
L 1991 3584 
z
" transform="scale(0.015625)"/>
        <path id="DejaVuSans-33" d="M 2597 2516 
Q 3050 2419 3304 2112 
Q 3559 1806 3559 1356 
Q 3559 666 3084 287 
Q 2609 -91 1734 -91 
Q 1441 -91 1130 -33 
Q 819 25 488 141 
L 488 750 
Q 750 597 1062 519 
Q 1375 441 1716 441 
Q 2309 441 2620 675 
Q 2931 909 2931 1356 
Q 2931 1769 2642 2001 
Q 2353 2234 1838 2234 
L 1294 2234 
L 1294 2753 
L 1863 2753 
Q 2328 2753 2575 2939 
Q 2822 3125 2822 3475 
Q 2822 3834 2567 4026 
Q 2313 4219 1838 4219 
Q 1578 4219 1281 4162 
Q 984 4106 628 3988 
L 628 4550 
Q 988 4650 1302 4700 
Q 1616 4750 1894 4750 
Q 2613 4750 3031 4423 
Q 3450 4097 3450 3541 
Q 3450 3153 3228 2886 
Q 3006 2619 2597 2516 
z
" transform="scale(0.015625)"/>
        <path id="DejaVuSans-29" d="M 513 4856 
L 1013 4856 
Q 1481 4119 1714 3412 
Q 1947 2706 1947 2009 
Q 1947 1309 1714 600 
Q 1481 -109 1013 -844 
L 513 -844 
Q 928 -128 1133 580 
Q 1338 1288 1338 2009 
Q 1338 2731 1133 3434 
Q 928 4138 513 4856 
z
" transform="scale(0.015625)"/>
       </defs>
       <use xlink:href="#DejaVuSans-41"/>
       <use xlink:href="#DejaVuSans-72" x="68.408203"/>
       <use xlink:href="#DejaVuSans-72" x="107.771484"/>
       <use xlink:href="#DejaVuSans-61" x="148.884766"/>
       <use xlink:href="#DejaVuSans-79" x="210.164062"/>
       <use xlink:href="#DejaVuSans-20" x="269.34375"/>
       <use xlink:href="#DejaVuSans-6c" x="301.130859"/>
       <use xlink:href="#DejaVuSans-65" x="328.914062"/>
       <use xlink:href="#DejaVuSans-6e" x="390.4375"/>
       <use xlink:href="#DejaVuSans-67" x="453.816406"/>
       <use xlink:href="#DejaVuSans-74" x="517.292969"/>
       <use xlink:href="#DejaVuSans-68" x="556.501953"/>
       <use xlink:href="#DejaVuSans-20" x="619.880859"/>
       <use xlink:href="#DejaVuSans-28" x="651.667969"/>
       <use xlink:href="#DejaVuSans-75" x="690.681641"/>
       <use xlink:href="#DejaVuSans-33" x="754.060547"/>
       <use xlink:href="#DejaVuSans-32" x="817.683594"/>
       <use xlink:href="#DejaVuSans-29" x="881.306641"/>
      </g>
     </g>
    </g>
    <g id="matplotlib.axis_2"/>
    <g id="patch_4">
     <path d="M 53.328125 50.594687 
L 667.128125 50.594687 
" style="fill: none; stroke: #000000; stroke-width: 0.8; stroke-linejoin: miter; stroke-linecap: square"/>
    </g>
   </g>
   <g id="matplotlib.axis_3">
    <g id="xtick_15">
     <g id="line2d_18">
      <path d="M 58.832817 494.114688 
L 58.832817 50.594688 
" clip-path="url(#p249764c68c)" style="fill: none; stroke: #b0b0b0; stroke-opacity: 0.4; stroke-width: 0.8; stroke-linecap: square"/>
     </g>
     <g id="line2d_19">
      <defs>
       <path id="mcb525de2c3" d="M 0 0 
L 0 3.5 
" style="stroke: #000000; stroke-width: 0.8"/>
      </defs>
      <g>
       <use xlink:href="#mcb525de2c3" x="58.832817" y="494.114688" style="stroke: #000000; stroke-width: 0.8"/>
      </g>
     </g>
     <g id="text_16">
      <!-- $\mathdefault{2^{4}}$ -->
      <g transform="translate(53.232817 508.713125) scale(0.1 -0.1)">
       <use xlink:href="#DejaVuSans-32" transform="translate(0 0.684375)"/>
       <use xlink:href="#DejaVuSans-34" transform="translate(64.580078 38.965625) scale(0.7)"/>
      </g>
     </g>
    </g>
    <g id="xtick_16">
     <g id="line2d_20">
      <path d="M 103.623433 494.114688 
L 103.623433 50.594688 
" clip-path="url(#p249764c68c)" style="fill: none; stroke: #b0b0b0; stroke-opacity: 0.4; stroke-width: 0.8; stroke-linecap: square"/>
     </g>
     <g id="line2d_21">
      <g>
       <use xlink:href="#mcb525de2c3" x="103.623433" y="494.114688" style="stroke: #000000; stroke-width: 0.8"/>
      </g>
     </g>
     <g id="text_17">
      <!-- $\mathdefault{2^{6}}$ -->
      <g transform="translate(98.023433 508.713125) scale(0.1 -0.1)">
       <use xlink:href="#DejaVuSans-32" transform="translate(0 0.765625)"/>
       <use xlink:href="#DejaVuSans-36" transform="translate(64.580078 39.046875) scale(0.7)"/>
      </g>
     </g>
    </g>
    <g id="xtick_17">
     <g id="line2d_22">
      <path d="M 148.414049 494.114688 
L 148.414049 50.594688 
" clip-path="url(#p249764c68c)" style="fill: none; stroke: #b0b0b0; stroke-opacity: 0.4; stroke-width: 0.8; stroke-linecap: square"/>
     </g>
     <g id="line2d_23">
      <g>
       <use xlink:href="#mcb525de2c3" x="148.414049" y="494.114688" style="stroke: #000000; stroke-width: 0.8"/>
      </g>
     </g>
     <g id="text_18">
      <!-- $\mathdefault{2^{8}}$ -->
      <g transform="translate(142.814049 508.713125) scale(0.1 -0.1)">
       <use xlink:href="#DejaVuSans-32" transform="translate(0 0.765625)"/>
       <use xlink:href="#DejaVuSans-38" transform="translate(64.580078 39.046875) scale(0.7)"/>
      </g>
     </g>
    </g>
    <g id="xtick_18">
     <g id="line2d_24">
      <path d="M 193.204664 494.114688 
L 193.204664 50.594688 
" clip-path="url(#p249764c68c)" style="fill: none; stroke: #b0b0b0; stroke-opacity: 0.4; stroke-width: 0.8; stroke-linecap: square"/>
     </g>
     <g id="line2d_25">
      <g>
       <use xlink:href="#mcb525de2c3" x="193.204664" y="494.114688" style="stroke: #000000; stroke-width: 0.8"/>
      </g>
     </g>
     <g id="text_19">
      <!-- $\mathdefault{2^{10}}$ -->
      <g transform="translate(185.354664 508.713125) scale(0.1 -0.1)">
       <use xlink:href="#DejaVuSans-32" transform="translate(0 0.765625)"/>
       <use xlink:href="#DejaVuSans-31" transform="translate(64.580078 39.046875) scale(0.7)"/>
       <use xlink:href="#DejaVuSans-30" transform="translate(109.116211 39.046875) scale(0.7)"/>
      </g>
     </g>
    </g>
    <g id="xtick_19">
     <g id="line2d_26">
      <path d="M 237.99528 494.114688 
L 237.99528 50.594688 
" clip-path="url(#p249764c68c)" style="fill: none; stroke: #b0b0b0; stroke-opacity: 0.4; stroke-width: 0.8; stroke-linecap: square"/>
     </g>
     <g id="line2d_27">
      <g>
       <use xlink:href="#mcb525de2c3" x="237.99528" y="494.114688" style="stroke: #000000; stroke-width: 0.8"/>
      </g>
     </g>
     <g id="text_20">
      <!-- $\mathdefault{2^{12}}$ -->
      <g transform="translate(230.14528 508.713125) scale(0.1 -0.1)">
       <use xlink:href="#DejaVuSans-32" transform="translate(0 0.765625)"/>
       <use xlink:href="#DejaVuSans-31" transform="translate(64.580078 39.046875) scale(0.7)"/>
       <use xlink:href="#DejaVuSans-32" transform="translate(109.116211 39.046875) scale(0.7)"/>
      </g>
     </g>
    </g>
    <g id="xtick_20">
     <g id="line2d_28">
      <path d="M 282.785896 494.114688 
L 282.785896 50.594688 
" clip-path="url(#p249764c68c)" style="fill: none; stroke: #b0b0b0; stroke-opacity: 0.4; stroke-width: 0.8; stroke-linecap: square"/>
     </g>
     <g id="line2d_29">
      <g>
       <use xlink:href="#mcb525de2c3" x="282.785896" y="494.114688" style="stroke: #000000; stroke-width: 0.8"/>
      </g>
     </g>
     <g id="text_21">
      <!-- $\mathdefault{2^{14}}$ -->
      <g transform="translate(274.935896 508.713125) scale(0.1 -0.1)">
       <use xlink:href="#DejaVuSans-32" transform="translate(0 0.684375)"/>
       <use xlink:href="#DejaVuSans-31" transform="translate(64.580078 38.965625) scale(0.7)"/>
       <use xlink:href="#DejaVuSans-34" transform="translate(109.116211 38.965625) scale(0.7)"/>
      </g>
     </g>
    </g>
    <g id="xtick_21">
     <g id="line2d_30">
      <path d="M 327.576512 494.114688 
L 327.576512 50.594688 
" clip-path="url(#p249764c68c)" style="fill: none; stroke: #b0b0b0; stroke-opacity: 0.4; stroke-width: 0.8; stroke-linecap: square"/>
     </g>
     <g id="line2d_31">
      <g>
       <use xlink:href="#mcb525de2c3" x="327.576512" y="494.114688" style="stroke: #000000; stroke-width: 0.8"/>
      </g>
     </g>
     <g id="text_22">
      <!-- $\mathdefault{2^{16}}$ -->
      <g transform="translate(319.726512 508.713125) scale(0.1 -0.1)">
       <use xlink:href="#DejaVuSans-32" transform="translate(0 0.765625)"/>
       <use xlink:href="#DejaVuSans-31" transform="translate(64.580078 39.046875) scale(0.7)"/>
       <use xlink:href="#DejaVuSans-36" transform="translate(109.116211 39.046875) scale(0.7)"/>
      </g>
     </g>
    </g>
    <g id="xtick_22">
     <g id="line2d_32">
      <path d="M 372.367127 494.114688 
L 372.367127 50.594688 
" clip-path="url(#p249764c68c)" style="fill: none; stroke: #b0b0b0; stroke-opacity: 0.4; stroke-width: 0.8; stroke-linecap: square"/>
     </g>
     <g id="line2d_33">
      <g>
       <use xlink:href="#mcb525de2c3" x="372.367127" y="494.114688" style="stroke: #000000; stroke-width: 0.8"/>
      </g>
     </g>
     <g id="text_23">
      <!-- $\mathdefault{2^{18}}$ -->
      <g transform="translate(364.517127 508.713125) scale(0.1 -0.1)">
       <use xlink:href="#DejaVuSans-32" transform="translate(0 0.765625)"/>
       <use xlink:href="#DejaVuSans-31" transform="translate(64.580078 39.046875) scale(0.7)"/>
       <use xlink:href="#DejaVuSans-38" transform="translate(109.116211 39.046875) scale(0.7)"/>
      </g>
     </g>
    </g>
    <g id="xtick_23">
     <g id="line2d_34">
      <path d="M 417.157743 494.114688 
L 417.157743 50.594688 
" clip-path="url(#p249764c68c)" style="fill: none; stroke: #b0b0b0; stroke-opacity: 0.4; stroke-width: 0.8; stroke-linecap: square"/>
     </g>
     <g id="line2d_35">
      <g>
       <use xlink:href="#mcb525de2c3" x="417.157743" y="494.114688" style="stroke: #000000; stroke-width: 0.8"/>
      </g>
     </g>
     <g id="text_24">
      <!-- $\mathdefault{2^{20}}$ -->
      <g transform="translate(409.307743 508.713125) scale(0.1 -0.1)">
       <use xlink:href="#DejaVuSans-32" transform="translate(0 0.765625)"/>
       <use xlink:href="#DejaVuSans-32" transform="translate(64.580078 39.046875) scale(0.7)"/>
       <use xlink:href="#DejaVuSans-30" transform="translate(109.116211 39.046875) scale(0.7)"/>
      </g>
     </g>
    </g>
    <g id="xtick_24">
     <g id="line2d_36">
      <path d="M 461.948359 494.114688 
L 461.948359 50.594688 
" clip-path="url(#p249764c68c)" style="fill: none; stroke: #b0b0b0; stroke-opacity: 0.4; stroke-width: 0.8; stroke-linecap: square"/>
     </g>
     <g id="line2d_37">
      <g>
       <use xlink:href="#mcb525de2c3" x="461.948359" y="494.114688" style="stroke: #000000; stroke-width: 0.8"/>
      </g>
     </g>
     <g id="text_25">
      <!-- $\mathdefault{2^{22}}$ -->
      <g transform="translate(454.098359 508.713125) scale(0.1 -0.1)">
       <use xlink:href="#DejaVuSans-32" transform="translate(0 0.765625)"/>
       <use xlink:href="#DejaVuSans-32" transform="translate(64.580078 39.046875) scale(0.7)"/>
       <use xlink:href="#DejaVuSans-32" transform="translate(109.116211 39.046875) scale(0.7)"/>
      </g>
     </g>
    </g>
    <g id="xtick_25">
     <g id="line2d_38">
      <path d="M 506.738974 494.114688 
L 506.738974 50.594688 
" clip-path="url(#p249764c68c)" style="fill: none; stroke: #b0b0b0; stroke-opacity: 0.4; stroke-width: 0.8; stroke-linecap: square"/>
     </g>
     <g id="line2d_39">
      <g>
       <use xlink:href="#mcb525de2c3" x="506.738974" y="494.114688" style="stroke: #000000; stroke-width: 0.8"/>
      </g>
     </g>
     <g id="text_26">
      <!-- $\mathdefault{2^{24}}$ -->
      <g transform="translate(498.888974 508.713125) scale(0.1 -0.1)">
       <use xlink:href="#DejaVuSans-32" transform="translate(0 0.765625)"/>
       <use xlink:href="#DejaVuSans-32" transform="translate(64.580078 39.046875) scale(0.7)"/>
       <use xlink:href="#DejaVuSans-34" transform="translate(109.116211 39.046875) scale(0.7)"/>
      </g>
     </g>
    </g>
    <g id="xtick_26">
     <g id="line2d_40">
      <path d="M 551.52959 494.114688 
L 551.52959 50.594688 
" clip-path="url(#p249764c68c)" style="fill: none; stroke: #b0b0b0; stroke-opacity: 0.4; stroke-width: 0.8; stroke-linecap: square"/>
     </g>
     <g id="line2d_41">
      <g>
       <use xlink:href="#mcb525de2c3" x="551.52959" y="494.114688" style="stroke: #000000; stroke-width: 0.8"/>
      </g>
     </g>
     <g id="text_27">
      <!-- $\mathdefault{2^{26}}$ -->
      <g transform="translate(543.67959 508.713125) scale(0.1 -0.1)">
       <use xlink:href="#DejaVuSans-32" transform="translate(0 0.765625)"/>
       <use xlink:href="#DejaVuSans-32" transform="translate(64.580078 39.046875) scale(0.7)"/>
       <use xlink:href="#DejaVuSans-36" transform="translate(109.116211 39.046875) scale(0.7)"/>
      </g>
     </g>
    </g>
    <g id="xtick_27">
     <g id="line2d_42">
      <path d="M 596.320206 494.114688 
L 596.320206 50.594688 
" clip-path="url(#p249764c68c)" style="fill: none; stroke: #b0b0b0; stroke-opacity: 0.4; stroke-width: 0.8; stroke-linecap: square"/>
     </g>
     <g id="line2d_43">
      <g>
       <use xlink:href="#mcb525de2c3" x="596.320206" y="494.114688" style="stroke: #000000; stroke-width: 0.8"/>
      </g>
     </g>
     <g id="text_28">
      <!-- $\mathdefault{2^{28}}$ -->
      <g transform="translate(588.470206 508.713125) scale(0.1 -0.1)">
       <use xlink:href="#DejaVuSans-32" transform="translate(0 0.765625)"/>
       <use xlink:href="#DejaVuSans-32" transform="translate(64.580078 39.046875) scale(0.7)"/>
       <use xlink:href="#DejaVuSans-38" transform="translate(109.116211 39.046875) scale(0.7)"/>
      </g>
     </g>
    </g>
    <g id="xtick_28">
     <g id="line2d_44">
      <path d="M 641.110822 494.114688 
L 641.110822 50.594688 
" clip-path="url(#p249764c68c)" style="fill: none; stroke: #b0b0b0; stroke-opacity: 0.4; stroke-width: 0.8; stroke-linecap: square"/>
     </g>
     <g id="line2d_45">
      <g>
       <use xlink:href="#mcb525de2c3" x="641.110822" y="494.114688" style="stroke: #000000; stroke-width: 0.8"/>
      </g>
     </g>
     <g id="text_29">
      <!-- $\mathdefault{2^{30}}$ -->
      <g transform="translate(633.260822 508.713125) scale(0.1 -0.1)">
       <use xlink:href="#DejaVuSans-32" transform="translate(0 0.765625)"/>
       <use xlink:href="#DejaVuSans-33" transform="translate(64.580078 39.046875) scale(0.7)"/>
       <use xlink:href="#DejaVuSans-30" transform="translate(109.116211 39.046875) scale(0.7)"/>
      </g>
     </g>
    </g>
    <g id="text_30">
     <!-- Input size (bytes) -->
     <g transform="translate(316.732031 522.39125) scale(0.1 -0.1)">
      <defs>
       <path id="DejaVuSans-49" d="M 628 4666 
L 1259 4666 
L 1259 0 
L 628 0 
L 628 4666 
z
" transform="scale(0.015625)"/>
       <path id="DejaVuSans-70" d="M 1159 525 
L 1159 -1331 
L 581 -1331 
L 581 3500 
L 1159 3500 
L 1159 2969 
Q 1341 3281 1617 3432 
Q 1894 3584 2278 3584 
Q 2916 3584 3314 3078 
Q 3713 2572 3713 1747 
Q 3713 922 3314 415 
Q 2916 -91 2278 -91 
Q 1894 -91 1617 61 
Q 1341 213 1159 525 
z
M 3116 1747 
Q 3116 2381 2855 2742 
Q 2594 3103 2138 3103 
Q 1681 3103 1420 2742 
Q 1159 2381 1159 1747 
Q 1159 1113 1420 752 
Q 1681 391 2138 391 
Q 2594 391 2855 752 
Q 3116 1113 3116 1747 
z
" transform="scale(0.015625)"/>
       <path id="DejaVuSans-73" d="M 2834 3397 
L 2834 2853 
Q 2591 2978 2328 3040 
Q 2066 3103 1784 3103 
Q 1356 3103 1142 2972 
Q 928 2841 928 2578 
Q 928 2378 1081 2264 
Q 1234 2150 1697 2047 
L 1894 2003 
Q 2506 1872 2764 1633 
Q 3022 1394 3022 966 
Q 3022 478 2636 193 
Q 2250 -91 1575 -91 
Q 1294 -91 989 -36 
Q 684 19 347 128 
L 347 722 
Q 666 556 975 473 
Q 1284 391 1588 391 
Q 1994 391 2212 530 
Q 2431 669 2431 922 
Q 2431 1156 2273 1281 
Q 2116 1406 1581 1522 
L 1381 1569 
Q 847 1681 609 1914 
Q 372 2147 372 2553 
Q 372 3047 722 3315 
Q 1072 3584 1716 3584 
Q 2034 3584 2315 3537 
Q 2597 3491 2834 3397 
z
" transform="scale(0.015625)"/>
       <path id="DejaVuSans-69" d="M 603 3500 
L 1178 3500 
L 1178 0 
L 603 0 
L 603 3500 
z
M 603 4863 
L 1178 4863 
L 1178 4134 
L 603 4134 
L 603 4863 
z
" transform="scale(0.015625)"/>
       <path id="DejaVuSans-7a" d="M 353 3500 
L 3084 3500 
L 3084 2975 
L 922 459 
L 3084 459 
L 3084 0 
L 275 0 
L 275 525 
L 2438 3041 
L 353 3041 
L 353 3500 
z
" transform="scale(0.015625)"/>
       <path id="DejaVuSans-62" d="M 3116 1747 
Q 3116 2381 2855 2742 
Q 2594 3103 2138 3103 
Q 1681 3103 1420 2742 
Q 1159 2381 1159 1747 
Q 1159 1113 1420 752 
Q 1681 391 2138 391 
Q 2594 391 2855 752 
Q 3116 1113 3116 1747 
z
M 1159 2969 
Q 1341 3281 1617 3432 
Q 1894 3584 2278 3584 
Q 2916 3584 3314 3078 
Q 3713 2572 3713 1747 
Q 3713 922 3314 415 
Q 2916 -91 2278 -91 
Q 1894 -91 1617 61 
Q 1341 213 1159 525 
L 1159 0 
L 581 0 
L 581 4863 
L 1159 4863 
L 1159 2969 
z
" transform="scale(0.015625)"/>
      </defs>
      <use xlink:href="#DejaVuSans-49"/>
      <use xlink:href="#DejaVuSans-6e" x="29.492188"/>
      <use xlink:href="#DejaVuSans-70" x="92.871094"/>
      <use xlink:href="#DejaVuSans-75" x="156.347656"/>
      <use xlink:href="#DejaVuSans-74" x="219.726562"/>
      <use xlink:href="#DejaVuSans-20" x="258.935547"/>
      <use xlink:href="#DejaVuSans-73" x="290.722656"/>
      <use xlink:href="#DejaVuSans-69" x="342.822266"/>
      <use xlink:href="#DejaVuSans-7a" x="370.605469"/>
      <use xlink:href="#DejaVuSans-65" x="423.095703"/>
      <use xlink:href="#DejaVuSans-20" x="484.619141"/>
      <use xlink:href="#DejaVuSans-28" x="516.40625"/>
      <use xlink:href="#DejaVuSans-62" x="555.419922"/>
      <use xlink:href="#DejaVuSans-79" x="618.896484"/>
      <use xlink:href="#DejaVuSans-74" x="678.076172"/>
      <use xlink:href="#DejaVuSans-65" x="717.285156"/>
      <use xlink:href="#DejaVuSans-73" x="778.808594"/>
      <use xlink:href="#DejaVuSans-29" x="830.908203"/>
     </g>
    </g>
   </g>
   <g id="matplotlib.axis_4">
    <g id="ytick_1">
     <g id="line2d_46">
      <path d="M 53.328125 494.114688 
L 667.128125 494.114688 
" clip-path="url(#p249764c68c)" style="fill: none; stroke: #b0b0b0; stroke-opacity: 0.4; stroke-width: 0.8; stroke-linecap: square"/>
     </g>
     <g id="line2d_47">
      <defs>
       <path id="mace0d2d8a4" d="M 0 0 
L -3.5 0 
" style="stroke: #000000; stroke-width: 0.8"/>
      </defs>
      <g>
       <use xlink:href="#mace0d2d8a4" x="53.328125" y="494.114688" style="stroke: #000000; stroke-width: 0.8"/>
      </g>
     </g>
     <g id="text_31">
      <!-- 0 -->
      <g transform="translate(39.965625 497.913906) scale(0.1 -0.1)">
       <use xlink:href="#DejaVuSans-30"/>
      </g>
     </g>
    </g>
    <g id="ytick_2">
     <g id="line2d_48">
      <path d="M 53.328125 405.410688 
L 667.128125 405.410688 
" clip-path="url(#p249764c68c)" style="fill: none; stroke: #b0b0b0; stroke-opacity: 0.4; stroke-width: 0.8; stroke-linecap: square"/>
     </g>
     <g id="line2d_49">
      <g>
       <use xlink:href="#mace0d2d8a4" x="53.328125" y="405.410688" style="stroke: #000000; stroke-width: 0.8"/>
      </g>
     </g>
     <g id="text_32">
      <!-- 200 -->
      <g transform="translate(27.240625 409.209906) scale(0.1 -0.1)">
       <use xlink:href="#DejaVuSans-32"/>
       <use xlink:href="#DejaVuSans-30" x="63.623047"/>
       <use xlink:href="#DejaVuSans-30" x="127.246094"/>
      </g>
     </g>
    </g>
    <g id="ytick_3">
     <g id="line2d_50">
      <path d="M 53.328125 316.706688 
L 667.128125 316.706688 
" clip-path="url(#p249764c68c)" style="fill: none; stroke: #b0b0b0; stroke-opacity: 0.4; stroke-width: 0.8; stroke-linecap: square"/>
     </g>
     <g id="line2d_51">
      <g>
       <use xlink:href="#mace0d2d8a4" x="53.328125" y="316.706688" style="stroke: #000000; stroke-width: 0.8"/>
      </g>
     </g>
     <g id="text_33">
      <!-- 400 -->
      <g transform="translate(27.240625 320.505906) scale(0.1 -0.1)">
       <use xlink:href="#DejaVuSans-34"/>
       <use xlink:href="#DejaVuSans-30" x="63.623047"/>
       <use xlink:href="#DejaVuSans-30" x="127.246094"/>
      </g>
     </g>
    </g>
    <g id="ytick_4">
     <g id="line2d_52">
      <path d="M 53.328125 228.002688 
L 667.128125 228.002688 
" clip-path="url(#p249764c68c)" style="fill: none; stroke: #b0b0b0; stroke-opacity: 0.4; stroke-width: 0.8; stroke-linecap: square"/>
     </g>
     <g id="line2d_53">
      <g>
       <use xlink:href="#mace0d2d8a4" x="53.328125" y="228.002688" style="stroke: #000000; stroke-width: 0.8"/>
      </g>
     </g>
     <g id="text_34">
      <!-- 600 -->
      <g transform="translate(27.240625 231.801906) scale(0.1 -0.1)">
       <use xlink:href="#DejaVuSans-36"/>
       <use xlink:href="#DejaVuSans-30" x="63.623047"/>
       <use xlink:href="#DejaVuSans-30" x="127.246094"/>
      </g>
     </g>
    </g>
    <g id="ytick_5">
     <g id="line2d_54">
      <path d="M 53.328125 139.298688 
L 667.128125 139.298688 
" clip-path="url(#p249764c68c)" style="fill: none; stroke: #b0b0b0; stroke-opacity: 0.4; stroke-width: 0.8; stroke-linecap: square"/>
     </g>
     <g id="line2d_55">
      <g>
       <use xlink:href="#mace0d2d8a4" x="53.328125" y="139.298688" style="stroke: #000000; stroke-width: 0.8"/>
      </g>
     </g>
     <g id="text_35">
      <!-- 800 -->
      <g transform="translate(27.240625 143.097906) scale(0.1 -0.1)">
       <use xlink:href="#DejaVuSans-38"/>
       <use xlink:href="#DejaVuSans-30" x="63.623047"/>
       <use xlink:href="#DejaVuSans-30" x="127.246094"/>
      </g>
     </g>
    </g>
    <g id="ytick_6">
     <g id="line2d_56">
      <path d="M 53.328125 50.594688 
L 667.128125 50.594688 
" clip-path="url(#p249764c68c)" style="fill: none; stroke: #b0b0b0; stroke-opacity: 0.4; stroke-width: 0.8; stroke-linecap: square"/>
     </g>
     <g id="line2d_57">
      <g>
       <use xlink:href="#mace0d2d8a4" x="53.328125" y="50.594688" style="stroke: #000000; stroke-width: 0.8"/>
      </g>
     </g>
     <g id="text_36">
      <!-- 1000 -->
      <g transform="translate(20.878125 54.393906) scale(0.1 -0.1)">
       <use xlink:href="#DejaVuSans-31"/>
       <use xlink:href="#DejaVuSans-30" x="63.623047"/>
       <use xlink:href="#DejaVuSans-30" x="127.246094"/>
       <use xlink:href="#DejaVuSans-30" x="190.869141"/>
      </g>
     </g>
    </g>
    <g id="text_37">
     <!-- Inverse throughput (ns) -->
     <g transform="translate(14.798438 331.570313) rotate(-90) scale(0.1 -0.1)">
      <defs>
       <path id="DejaVuSans-76" d="M 191 3500 
L 800 3500 
L 1894 563 
L 2988 3500 
L 3597 3500 
L 2284 0 
L 1503 0 
L 191 3500 
z
" transform="scale(0.015625)"/>
       <path id="DejaVuSans-6f" d="M 1959 3097 
Q 1497 3097 1228 2736 
Q 959 2375 959 1747 
Q 959 1119 1226 758 
Q 1494 397 1959 397 
Q 2419 397 2687 759 
Q 2956 1122 2956 1747 
Q 2956 2369 2687 2733 
Q 2419 3097 1959 3097 
z
M 1959 3584 
Q 2709 3584 3137 3096 
Q 3566 2609 3566 1747 
Q 3566 888 3137 398 
Q 2709 -91 1959 -91 
Q 1206 -91 779 398 
Q 353 888 353 1747 
Q 353 2609 779 3096 
Q 1206 3584 1959 3584 
z
" transform="scale(0.015625)"/>
      </defs>
      <use xlink:href="#DejaVuSans-49"/>
      <use xlink:href="#DejaVuSans-6e" x="29.492188"/>
      <use xlink:href="#DejaVuSans-76" x="92.871094"/>
      <use xlink:href="#DejaVuSans-65" x="152.050781"/>
      <use xlink:href="#DejaVuSans-72" x="213.574219"/>
      <use xlink:href="#DejaVuSans-73" x="254.6875"/>
      <use xlink:href="#DejaVuSans-65" x="306.787109"/>
      <use xlink:href="#DejaVuSans-20" x="368.310547"/>
      <use xlink:href="#DejaVuSans-74" x="400.097656"/>
      <use xlink:href="#DejaVuSans-68" x="439.306641"/>
      <use xlink:href="#DejaVuSans-72" x="502.685547"/>
      <use xlink:href="#DejaVuSans-6f" x="541.548828"/>
      <use xlink:href="#DejaVuSans-75" x="602.730469"/>
      <use xlink:href="#DejaVuSans-67" x="666.109375"/>
      <use xlink:href="#DejaVuSans-68" x="729.585938"/>
      <use xlink:href="#DejaVuSans-70" x="792.964844"/>
      <use xlink:href="#DejaVuSans-75" x="856.441406"/>
      <use xlink:href="#DejaVuSans-74" x="919.820312"/>
      <use xlink:href="#DejaVuSans-20" x="959.029297"/>
      <use xlink:href="#DejaVuSans-28" x="990.816406"/>
      <use xlink:href="#DejaVuSans-6e" x="1029.830078"/>
      <use xlink:href="#DejaVuSans-73" x="1093.208984"/>
      <use xlink:href="#DejaVuSans-29" x="1145.308594"/>
     </g>
    </g>
   </g>
   <g id="line2d_58">
    <path d="M 81.228125 490.16398 
L 85.918898 485.776751 
L 90.774455 485.270036 
L 96.287298 488.189075 
L 100.995188 490.264023 
L 106.518766 488.643887 
L 111.63092 483.961782 
L 116.723848 485.502626 
L 121.704395 488.19412 
L 126.767259 488.085884 
L 131.783021 484.161557 
L 136.853944 482.912574 
L 142.014489 485.134074 
L 147.126643 488.048815 
L 152.219571 483.46821 
L 157.296135 480.680754 
L 162.345091 483.082931 
L 167.419221 486.311008 
L 172.529665 484.879558 
L 177.561457 480.751544 
L 182.666117 480.452819 
L 187.752668 483.757891 
L 192.8238 486.20421 
L 197.895437 481.089977 
L 202.961634 477.506263 
L 208.045327 480.732988 
L 213.108343 483.580717 
L 218.190974 482.117057 
L 223.26084 476.207385 
L 228.330164 477.446759 
L 233.409347 480.589472 
L 238.480677 482.464814 
L 243.554335 476.926225 
L 248.626779 474.668904 
L 253.696403 478.210088 
L 258.773153 480.15503 
L 263.843613 477.396791 
L 268.91719 471.434035 
L 273.989348 473.93714 
L 279.063338 478.767478 
L 284.135745 479.012151 
L 289.209912 472.186248 
L 294.281313 470.698667 
L 299.354691 475.807294 
L 304.428055 478.50043 
L 309.500602 473.877785 
L 314.573073 467.643813 
L 319.645965 471.551338 
L 324.718564 475.570974 
L 329.79131 474.080437 
L 334.864188 466.309383 
L 339.936896 466.030642 
L 345.009837 471.137518 
L 350.082556 474.514548 
L 355.155338 466.719329 
L 360.228108 460.447165 
L 365.300841 466.208159 
L 370.373548 470.397932 
L 375.446292 464.949556 
L 380.518971 457.637712 
L 385.591705 458.689699 
L 390.664427 463.949779 
L 395.737168 465.330319 
L 400.809906 455.422943 
L 405.88264 448.994537 
L 410.955384 454.1344 
L 416.028098 456.834646 
L 421.10085 451.537231 
L 426.173579 440.865231 
L 431.246302 442.559478 
L 436.319033 447.704728 
L 441.391756 441.787916 
L 446.464482 434.802874 
L 451.53721 428.789821 
L 456.609943 430.517781 
L 461.682672 426.047997 
L 466.755398 415.567141 
L 471.828126 403.493485 
L 476.900852 390.726341 
L 481.973579 393.496675 
L 487.046309 382.42726 
L 492.119036 365.473491 
L 497.191764 350.509944 
L 502.264492 358.170136 
L 507.337218 316.329512 
L 512.409945 328.886029 
L 517.482672 322.508816 
L 522.555399 325.397465 
L 527.628126 325.606507 
L 532.700853 312.853717 
L 537.773582 280.96329 
L 542.84631 271.797386 
L 547.919038 284.240505 
L 552.991767 282.079544 
L 558.064493 263.412715 
L 563.137219 230.290954 
L 568.209946 265.139541 
L 573.282673 252.367797 
L 578.355401 246.164653 
L 583.428128 207.178717 
L 588.500856 209.408858 
L 593.573584 188.107735 
L 598.646309 201.964356 
L 603.719035 195.197708 
L 608.791762 173.002663 
L 613.86449 173.956139 
L 618.937216 185.441106 
L 624.009943 153.833275 
L 629.082671 137.506916 
L 634.155398 151.816874 
L 639.228125 145.135434 
" clip-path="url(#p249764c68c)" style="fill: none; stroke: #e377c2; stroke-linecap: square"/>
   </g>
   <g id="line2d_59">
    <path d="M 81.228125 486.254777 
L 85.918898 484.793804 
L 90.774455 485.998902 
L 96.287298 487.361422 
L 100.995188 489.502648 
L 106.518766 485.391807 
L 111.63092 482.975162 
L 116.723848 484.728463 
L 121.704395 487.379988 
L 126.767259 486.834592 
L 131.783021 483.719166 
L 136.853944 481.580781 
L 142.014489 484.539584 
L 147.126643 486.391454 
L 152.219571 482.461648 
L 157.296135 479.866685 
L 162.345091 482.243472 
L 167.419221 484.726478 
L 172.529665 483.700031 
L 177.561457 479.0727 
L 182.666117 479.297705 
L 187.752668 481.521084 
L 192.8238 483.898604 
L 197.895437 479.122419 
L 202.961634 476.182484 
L 208.045327 478.777353 
L 213.108343 480.943344 
L 218.190974 479.630449 
L 223.26084 474.113179 
L 228.330164 475.151823 
L 233.409347 477.778204 
L 238.480677 479.348522 
L 243.554335 474.257742 
L 248.626779 471.58486 
L 253.696403 472.996876 
L 258.773153 477.614031 
L 263.843613 474.143019 
L 268.91719 468.993326 
L 273.989348 470.69389 
L 279.063338 474.111005 
L 284.135745 474.56343 
L 289.209912 468.61331 
L 294.281313 467.093726 
L 299.354691 470.708859 
L 304.428055 473.972539 
L 309.500602 468.930354 
L 314.573073 463.554298 
L 319.645965 466.667504 
L 324.718564 469.916298 
L 329.79131 469.091492 
L 334.864188 461.958769 
L 339.936896 462.726681 
L 345.009837 466.098977 
L 350.082556 468.52267 
L 355.155338 462.882856 
L 360.228108 458.883153 
L 365.300841 462.109465 
L 370.373548 465.414356 
L 375.446292 462.754223 
L 380.518971 456.678619 
L 385.591705 457.838034 
L 390.664427 461.201346 
L 395.737168 461.425829 
L 400.809906 456.228581 
L 405.88264 453.125308 
L 410.955384 456.503133 
L 416.028098 459.860492 
L 421.10085 454.221998 
L 426.173579 449.151603 
L 431.246302 451.707193 
L 436.319033 455.422922 
L 441.391756 452.059222 
L 446.464482 444.691099 
L 451.53721 443.901337 
L 456.609943 442.737486 
L 461.682672 446.632248 
L 466.755398 435.979208 
L 471.828126 427.725471 
L 476.900852 427.228928 
L 481.973579 425.661549 
L 487.046309 419.841254 
L 492.119036 412.530549 
L 497.191764 406.552079 
L 502.264492 404.652514 
L 507.337218 405.906035 
L 512.409945 393.892083 
L 517.482672 386.95807 
L 522.555399 385.585008 
L 527.628126 385.136555 
L 532.700853 377.275938 
L 537.773582 368.468821 
L 542.84631 360.628013 
L 547.919038 368.683268 
L 552.991767 365.782687 
L 558.064493 353.768215 
L 563.137219 338.879942 
L 568.209946 345.269131 
L 573.282673 342.255217 
L 578.355401 340.700501 
L 583.428128 328.842351 
L 588.500856 316.545249 
L 593.573584 320.815996 
L 598.646309 320.351003 
L 603.719035 317.623631 
L 608.791762 302.567906 
L 613.86449 303.357304 
L 618.937216 314.543919 
L 624.009943 302.016244 
L 629.082671 291.382329 
L 634.155398 290.151153 
L 639.228125 285.768572 
" clip-path="url(#p249764c68c)" style="fill: none; stroke: #1f77b4; stroke-linecap: square"/>
   </g>
   <g id="line2d_60">
    <path d="M 81.228125 489.485171 
L 85.918898 485.520606 
L 90.774455 484.873589 
L 96.287298 487.344065 
L 100.995188 489.775851 
L 106.518766 484.916493 
L 111.63092 485.107406 
L 116.723848 484.789292 
L 121.704395 487.562121 
L 126.767259 485.208549 
L 131.783021 484.873443 
L 136.853944 483.95411 
L 142.014489 485.593837 
L 147.126643 487.176074 
L 152.219571 482.666183 
L 157.296135 481.423958 
L 162.345091 482.95665 
L 167.419221 485.233434 
L 172.529665 484.486548 
L 177.561457 480.370869 
L 182.666117 480.392526 
L 187.752668 482.325864 
L 192.8238 484.137357 
L 197.895437 479.53682 
L 202.961634 477.189627 
L 208.045327 479.578613 
L 213.108343 481.581145 
L 218.190974 480.120941 
L 223.26084 475.505522 
L 228.330164 476.556532 
L 233.409347 478.924452 
L 238.480677 480.392601 
L 243.554335 475.78229 
L 248.626779 473.218871 
L 253.696403 475.939567 
L 258.773153 478.676041 
L 263.843613 476.099318 
L 268.91719 470.942252 
L 273.989348 472.872711 
L 279.063338 475.452818 
L 284.135745 475.554069 
L 289.209912 470.300003 
L 294.281313 468.971259 
L 299.354691 472.113701 
L 304.428055 474.778045 
L 309.500602 470.457096 
L 314.573073 466.088807 
L 319.645965 468.907685 
L 324.718564 471.679923 
L 329.79131 470.554618 
L 334.864188 464.696584 
L 339.936896 464.959413 
L 345.009837 468.066276 
L 350.082556 470.640125 
L 355.155338 465.129764 
L 360.228108 460.9018 
L 365.300841 463.942121 
L 370.373548 466.619663 
L 375.446292 464.582143 
L 380.518971 458.368257 
L 385.591705 459.87408 
L 390.664427 463.11766 
L 395.737168 463.870189 
L 400.809906 458.442186 
L 405.88264 455.596524 
L 410.955384 458.597387 
L 416.028098 460.637717 
L 421.10085 457.172559 
L 426.173579 451.81018 
L 431.246302 454.084233 
L 436.319033 456.802764 
L 441.391756 454.086368 
L 446.464482 448.223122 
L 451.53721 447.426389 
L 456.609943 447.266276 
L 461.682672 447.271333 
L 466.755398 439.166423 
L 471.828126 435.163753 
L 476.900852 434.11264 
L 481.973579 431.972259 
L 487.046309 428.956066 
L 492.119036 424.170135 
L 497.191764 418.68205 
L 502.264492 418.218802 
L 507.337218 420.190517 
L 512.409945 413.247485 
L 517.482672 408.222777 
L 522.555399 407.83496 
L 527.628126 408.782078 
L 532.700853 401.413027 
L 537.773582 396.534145 
L 542.84631 392.982126 
L 547.919038 394.383251 
L 552.991767 390.696253 
L 558.064493 375.678035 
L 563.137219 370.633189 
L 568.209946 380.881122 
L 573.282673 376.806044 
L 578.355401 374.942834 
L 583.428128 360.869315 
L 588.500856 356.872476 
L 593.573584 356.996577 
L 598.646309 359.729509 
L 603.719035 350.452027 
L 608.791762 340.503591 
L 613.86449 349.600587 
L 618.937216 352.587849 
L 624.009943 341.960847 
L 629.082671 327.305996 
L 634.155398 331.36886 
L 639.228125 338.140706 
" clip-path="url(#p249764c68c)" style="fill: none; stroke: #ff7f0e; stroke-linecap: square"/>
   </g>
   <g id="line2d_61">
    <path d="M 81.228125 490.245764 
L 85.918898 485.91433 
L 90.774455 485.399444 
L 96.287298 487.452376 
L 100.995188 489.939912 
L 106.518766 488.303536 
L 111.63092 483.911365 
L 116.723848 485.419234 
L 121.704395 487.974092 
L 126.767259 484.742757 
L 131.783021 483.630477 
L 136.853944 485.221787 
L 142.014489 484.965196 
L 147.126643 487.290629 
L 152.219571 484.099143 
L 157.296135 482.870243 
L 162.345091 484.287138 
L 167.419221 485.788865 
L 172.529665 484.353406 
L 177.561457 482.525492 
L 182.666117 482.582188 
L 187.752668 483.860021 
L 192.8238 485.25426 
L 197.895437 481.66233 
L 202.961634 480.205047 
L 208.045327 481.612468 
L 213.108343 483.120404 
L 218.190974 481.90952 
L 223.26084 478.586003 
L 228.330164 479.56093 
L 233.409347 481.098794 
L 238.480677 482.038511 
L 243.554335 478.62831 
L 248.626779 476.862786 
L 253.696403 478.800284 
L 258.773153 480.763897 
L 263.843613 478.81247 
L 268.91719 474.737548 
L 273.989348 476.617896 
L 279.063338 478.653851 
L 284.135745 478.686977 
L 289.209912 474.516606 
L 294.281313 473.387297 
L 299.354691 476.066292 
L 304.428055 477.765042 
L 309.500602 474.662354 
L 314.573073 470.77717 
L 319.645965 473.267632 
L 324.718564 475.608047 
L 329.79131 474.816127 
L 334.864188 469.964846 
L 339.936896 470.108698 
L 345.009837 472.312892 
L 350.082556 473.766678 
L 355.155338 469.708568 
L 360.228108 466.613688 
L 365.300841 469.272777 
L 370.373548 471.672639 
L 375.446292 469.491844 
L 380.518971 464.549834 
L 385.591705 465.749151 
L 390.664427 467.691286 
L 395.737168 468.416695 
L 400.809906 463.886987 
L 405.88264 461.867042 
L 410.955384 464.337604 
L 416.028098 466.394635 
L 421.10085 463.29674 
L 426.173579 458.898857 
L 431.246302 460.711211 
L 436.319033 462.591874 
L 441.391756 460.473174 
L 446.464482 455.404152 
L 451.53721 453.693289 
L 456.609943 455.704303 
L 461.682672 454.0637 
L 466.755398 445.061756 
L 471.828126 442.655742 
L 476.900852 440.896482 
L 481.973579 437.326328 
L 487.046309 434.727908 
L 492.119036 431.943208 
L 497.191764 429.521497 
L 502.264492 428.650658 
L 507.337218 427.772482 
L 512.409945 424.625542 
L 517.482672 419.92215 
L 522.555399 418.082856 
L 527.628126 420.428957 
L 532.700853 414.155806 
L 537.773582 408.175905 
L 542.84631 408.620188 
L 547.919038 406.813944 
L 552.991767 406.685762 
L 558.064493 402.72251 
L 563.137219 393.558574 
L 568.209946 395.441744 
L 573.282673 396.74931 
L 578.355401 393.306029 
L 583.428128 380.770002 
L 588.500856 377.63512 
L 593.573584 376.653085 
L 598.646309 376.199966 
L 603.719035 370.344237 
L 608.791762 369.684513 
L 613.86449 371.532954 
L 618.937216 370.662236 
L 624.009943 365.966618 
L 629.082671 355.47144 
L 634.155398 357.419827 
L 639.228125 350.451818 
" clip-path="url(#p249764c68c)" style="fill: none; stroke: #2ca02c; stroke-linecap: square"/>
   </g>
   <g id="line2d_62"/>
   <g id="line2d_63"/>
   <g id="line2d_64"/>
   <g id="line2d_65"/>
   <g id="line2d_66"/>
   <g id="patch_5">
    <path d="M 53.328125 494.114688 
L 53.328125 50.594688 
" style="fill: none; stroke: #000000; stroke-width: 0.8; stroke-linejoin: miter; stroke-linecap: square"/>
   </g>
   <g id="patch_6">
    <path d="M 667.128125 494.114688 
L 667.128125 50.594688 
" style="fill: none; stroke: #000000; stroke-width: 0.8; stroke-linejoin: miter; stroke-linecap: square"/>
   </g>
   <g id="patch_7">
    <path d="M 53.328125 494.114688 
L 667.128125 494.114688 
" style="fill: none; stroke: #000000; stroke-width: 0.8; stroke-linejoin: miter; stroke-linecap: square"/>
   </g>
   <g id="patch_8">
    <path d="M 53.328125 50.594688 
L 667.128125 50.594688 
" style="fill: none; stroke: #000000; stroke-width: 0.8; stroke-linejoin: miter; stroke-linecap: square"/>
   </g>
   <g id="text_38">
    <!-- L1  -->
    <g style="fill: #ff0000" transform="translate(290.068704 492.035) scale(0.1 -0.1)">
     <defs>
      <path id="DejaVuSans-4c" d="M 628 4666 
L 1259 4666 
L 1259 531 
L 3531 531 
L 3531 0 
L 628 0 
L 628 4666 
z
" transform="scale(0.015625)"/>
     </defs>
     <use xlink:href="#DejaVuSans-4c"/>
     <use xlink:href="#DejaVuSans-31" x="55.712891"/>
     <use xlink:href="#DejaVuSans-20" x="119.335938"/>
    </g>
   </g>
   <g id="text_39">
    <!-- L2  -->
    <g style="fill: #ff0000" transform="translate(379.649935 492.035) scale(0.1 -0.1)">
     <use xlink:href="#DejaVuSans-4c"/>
     <use xlink:href="#DejaVuSans-32" x="55.712891"/>
     <use xlink:href="#DejaVuSans-20" x="119.335938"/>
    </g>
   </g>
   <g id="text_40">
    <!-- L3  -->
    <g style="fill: #ff0000" transform="translate(446.835859 492.035) scale(0.1 -0.1)">
     <use xlink:href="#DejaVuSans-4c"/>
     <use xlink:href="#DejaVuSans-33" x="55.712891"/>
     <use xlink:href="#DejaVuSans-20" x="119.335938"/>
    </g>
   </g>
   <g id="text_41">
    <!-- RAM -->
    <g style="fill: #ff0000" transform="translate(617.210938 492.035) scale(0.1 -0.1)">
     <defs>
      <path id="DejaVuSans-52" d="M 2841 2188 
Q 3044 2119 3236 1894 
Q 3428 1669 3622 1275 
L 4263 0 
L 3584 0 
L 2988 1197 
Q 2756 1666 2539 1819 
Q 2322 1972 1947 1972 
L 1259 1972 
L 1259 0 
L 628 0 
L 628 4666 
L 2053 4666 
Q 2853 4666 3247 4331 
Q 3641 3997 3641 3322 
Q 3641 2881 3436 2590 
Q 3231 2300 2841 2188 
z
M 1259 4147 
L 1259 2491 
L 2053 2491 
Q 2509 2491 2742 2702 
Q 2975 2913 2975 3322 
Q 2975 3731 2742 3939 
Q 2509 4147 2053 4147 
L 1259 4147 
z
" transform="scale(0.015625)"/>
      <path id="DejaVuSans-4d" d="M 628 4666 
L 1569 4666 
L 2759 1491 
L 3956 4666 
L 4897 4666 
L 4897 0 
L 4281 0 
L 4281 4097 
L 3078 897 
L 2444 897 
L 1241 4097 
L 1241 0 
L 628 0 
L 628 4666 
z
" transform="scale(0.015625)"/>
     </defs>
     <use xlink:href="#DejaVuSans-52"/>
     <use xlink:href="#DejaVuSans-41" x="65.482422"/>
     <use xlink:href="#DejaVuSans-4d" x="133.890625"/>
    </g>
   </g>
   <g id="text_42">
    <!-- Eytzinger layout with prefetching -->
    <g transform="translate(260.40875 16.318125) scale(0.12 -0.12)">
     <defs>
      <path id="DejaVuSans-45" d="M 628 4666 
L 3578 4666 
L 3578 4134 
L 1259 4134 
L 1259 2753 
L 3481 2753 
L 3481 2222 
L 1259 2222 
L 1259 531 
L 3634 531 
L 3634 0 
L 628 0 
L 628 4666 
z
" transform="scale(0.015625)"/>
      <path id="DejaVuSans-77" d="M 269 3500 
L 844 3500 
L 1563 769 
L 2278 3500 
L 2956 3500 
L 3675 769 
L 4391 3500 
L 4966 3500 
L 4050 0 
L 3372 0 
L 2619 2869 
L 1863 0 
L 1184 0 
L 269 3500 
z
" transform="scale(0.015625)"/>
      <path id="DejaVuSans-66" d="M 2375 4863 
L 2375 4384 
L 1825 4384 
Q 1516 4384 1395 4259 
Q 1275 4134 1275 3809 
L 1275 3500 
L 2222 3500 
L 2222 3053 
L 1275 3053 
L 1275 0 
L 697 0 
L 697 3053 
L 147 3053 
L 147 3500 
L 697 3500 
L 697 3744 
Q 697 4328 969 4595 
Q 1241 4863 1831 4863 
L 2375 4863 
z
" transform="scale(0.015625)"/>
      <path id="DejaVuSans-63" d="M 3122 3366 
L 3122 2828 
Q 2878 2963 2633 3030 
Q 2388 3097 2138 3097 
Q 1578 3097 1268 2742 
Q 959 2388 959 1747 
Q 959 1106 1268 751 
Q 1578 397 2138 397 
Q 2388 397 2633 464 
Q 2878 531 3122 666 
L 3122 134 
Q 2881 22 2623 -34 
Q 2366 -91 2075 -91 
Q 1284 -91 818 406 
Q 353 903 353 1747 
Q 353 2603 823 3093 
Q 1294 3584 2113 3584 
Q 2378 3584 2631 3529 
Q 2884 3475 3122 3366 
z
" transform="scale(0.015625)"/>
     </defs>
     <use xlink:href="#DejaVuSans-45"/>
     <use xlink:href="#DejaVuSans-79" x="63.183594"/>
     <use xlink:href="#DejaVuSans-74" x="122.363281"/>
     <use xlink:href="#DejaVuSans-7a" x="161.572266"/>
     <use xlink:href="#DejaVuSans-69" x="214.0625"/>
     <use xlink:href="#DejaVuSans-6e" x="241.845703"/>
     <use xlink:href="#DejaVuSans-67" x="305.224609"/>
     <use xlink:href="#DejaVuSans-65" x="368.701172"/>
     <use xlink:href="#DejaVuSans-72" x="430.224609"/>
     <use xlink:href="#DejaVuSans-20" x="471.337891"/>
     <use xlink:href="#DejaVuSans-6c" x="503.125"/>
     <use xlink:href="#DejaVuSans-61" x="530.908203"/>
     <use xlink:href="#DejaVuSans-79" x="592.1875"/>
     <use xlink:href="#DejaVuSans-6f" x="651.367188"/>
     <use xlink:href="#DejaVuSans-75" x="712.548828"/>
     <use xlink:href="#DejaVuSans-74" x="775.927734"/>
     <use xlink:href="#DejaVuSans-20" x="815.136719"/>
     <use xlink:href="#DejaVuSans-77" x="846.923828"/>
     <use xlink:href="#DejaVuSans-69" x="928.710938"/>
     <use xlink:href="#DejaVuSans-74" x="956.494141"/>
     <use xlink:href="#DejaVuSans-68" x="995.703125"/>
     <use xlink:href="#DejaVuSans-20" x="1059.082031"/>
     <use xlink:href="#DejaVuSans-70" x="1090.869141"/>
     <use xlink:href="#DejaVuSans-72" x="1154.345703"/>
     <use xlink:href="#DejaVuSans-65" x="1193.208984"/>
     <use xlink:href="#DejaVuSans-66" x="1254.732422"/>
     <use xlink:href="#DejaVuSans-65" x="1289.9375"/>
     <use xlink:href="#DejaVuSans-74" x="1351.460938"/>
     <use xlink:href="#DejaVuSans-63" x="1390.669922"/>
     <use xlink:href="#DejaVuSans-68" x="1445.650391"/>
     <use xlink:href="#DejaVuSans-69" x="1509.029297"/>
     <use xlink:href="#DejaVuSans-6e" x="1536.8125"/>
     <use xlink:href="#DejaVuSans-67" x="1600.191406"/>
    </g>
   </g>
   <g id="legend_1">
    <g id="patch_9">
     <path d="M 60.328125 118.141563 
L 249.176563 118.141563 
Q 251.176563 118.141563 251.176563 116.141563 
L 251.176563 57.594688 
Q 251.176563 55.594688 249.176563 55.594688 
L 60.328125 55.594688 
Q 58.328125 55.594688 58.328125 57.594688 
L 58.328125 116.141563 
Q 58.328125 118.141563 60.328125 118.141563 
L 60.328125 118.141563 
z
" style="fill: none; opacity: 0"/>
    </g>
    <g id="line2d_67">
     <path d="M 62.328125 63.693125 
L 72.328125 63.693125 
L 82.328125 63.693125 
" style="fill: none; stroke: #e377c2; stroke-width: 1.5; stroke-linecap: square"/>
    </g>
    <g id="text_43">
     <!-- Eytzinger::search -->
     <g transform="translate(90.328125 67.193125) scale(0.1 -0.1)">
      <defs>
       <path id="DejaVuSans-3a" d="M 750 794 
L 1409 794 
L 1409 0 
L 750 0 
L 750 794 
z
M 750 3309 
L 1409 3309 
L 1409 2516 
L 750 2516 
L 750 3309 
z
" transform="scale(0.015625)"/>
      </defs>
      <use xlink:href="#DejaVuSans-45"/>
      <use xlink:href="#DejaVuSans-79" x="63.183594"/>
      <use xlink:href="#DejaVuSans-74" x="122.363281"/>
      <use xlink:href="#DejaVuSans-7a" x="161.572266"/>
      <use xlink:href="#DejaVuSans-69" x="214.0625"/>
      <use xlink:href="#DejaVuSans-6e" x="241.845703"/>
      <use xlink:href="#DejaVuSans-67" x="305.224609"/>
      <use xlink:href="#DejaVuSans-65" x="368.701172"/>
      <use xlink:href="#DejaVuSans-72" x="430.224609"/>
      <use xlink:href="#DejaVuSans-3a" x="469.587891"/>
      <use xlink:href="#DejaVuSans-3a" x="503.279297"/>
      <use xlink:href="#DejaVuSans-73" x="536.970703"/>
      <use xlink:href="#DejaVuSans-65" x="589.070312"/>
      <use xlink:href="#DejaVuSans-61" x="650.59375"/>
      <use xlink:href="#DejaVuSans-72" x="711.873047"/>
      <use xlink:href="#DejaVuSans-63" x="750.736328"/>
      <use xlink:href="#DejaVuSans-68" x="805.716797"/>
     </g>
    </g>
    <g id="line2d_68">
     <path d="M 62.328125 78.37125 
L 72.328125 78.37125 
L 82.328125 78.37125 
" style="fill: none; stroke: #1f77b4; stroke-width: 1.5; stroke-linecap: square"/>
    </g>
    <g id="text_44">
     <!-- Eytzinger::search_prefetch&lt;2&gt; -->
     <g transform="translate(90.328125 81.87125) scale(0.1 -0.1)">
      <defs>
       <path id="DejaVuSans-5f" d="M 3263 -1063 
L 3263 -1509 
L -63 -1509 
L -63 -1063 
L 3263 -1063 
z
" transform="scale(0.015625)"/>
       <path id="DejaVuSans-3c" d="M 4684 3150 
L 1459 2003 
L 4684 863 
L 4684 294 
L 678 1747 
L 678 2266 
L 4684 3719 
L 4684 3150 
z
" transform="scale(0.015625)"/>
       <path id="DejaVuSans-3e" d="M 678 3150 
L 678 3719 
L 4684 2266 
L 4684 1747 
L 678 294 
L 678 863 
L 3897 2003 
L 678 3150 
z
" transform="scale(0.015625)"/>
      </defs>
      <use xlink:href="#DejaVuSans-45"/>
      <use xlink:href="#DejaVuSans-79" x="63.183594"/>
      <use xlink:href="#DejaVuSans-74" x="122.363281"/>
      <use xlink:href="#DejaVuSans-7a" x="161.572266"/>
      <use xlink:href="#DejaVuSans-69" x="214.0625"/>
      <use xlink:href="#DejaVuSans-6e" x="241.845703"/>
      <use xlink:href="#DejaVuSans-67" x="305.224609"/>
      <use xlink:href="#DejaVuSans-65" x="368.701172"/>
      <use xlink:href="#DejaVuSans-72" x="430.224609"/>
      <use xlink:href="#DejaVuSans-3a" x="469.587891"/>
      <use xlink:href="#DejaVuSans-3a" x="503.279297"/>
      <use xlink:href="#DejaVuSans-73" x="536.970703"/>
      <use xlink:href="#DejaVuSans-65" x="589.070312"/>
      <use xlink:href="#DejaVuSans-61" x="650.59375"/>
      <use xlink:href="#DejaVuSans-72" x="711.873047"/>
      <use xlink:href="#DejaVuSans-63" x="750.736328"/>
      <use xlink:href="#DejaVuSans-68" x="805.716797"/>
      <use xlink:href="#DejaVuSans-5f" x="869.095703"/>
      <use xlink:href="#DejaVuSans-70" x="919.095703"/>
      <use xlink:href="#DejaVuSans-72" x="982.572266"/>
      <use xlink:href="#DejaVuSans-65" x="1021.435547"/>
      <use xlink:href="#DejaVuSans-66" x="1082.958984"/>
      <use xlink:href="#DejaVuSans-65" x="1118.164062"/>
      <use xlink:href="#DejaVuSans-74" x="1179.6875"/>
      <use xlink:href="#DejaVuSans-63" x="1218.896484"/>
      <use xlink:href="#DejaVuSans-68" x="1273.876953"/>
      <use xlink:href="#DejaVuSans-3c" x="1337.255859"/>
      <use xlink:href="#DejaVuSans-32" x="1421.044922"/>
      <use xlink:href="#DejaVuSans-3e" x="1484.667969"/>
     </g>
    </g>
    <g id="line2d_69">
     <path d="M 62.328125 93.3275 
L 72.328125 93.3275 
L 82.328125 93.3275 
" style="fill: none; stroke: #ff7f0e; stroke-width: 1.5; stroke-linecap: square"/>
    </g>
    <g id="text_45">
     <!-- Eytzinger::search_prefetch&lt;3&gt; -->
     <g transform="translate(90.328125 96.8275) scale(0.1 -0.1)">
      <use xlink:href="#DejaVuSans-45"/>
      <use xlink:href="#DejaVuSans-79" x="63.183594"/>
      <use xlink:href="#DejaVuSans-74" x="122.363281"/>
      <use xlink:href="#DejaVuSans-7a" x="161.572266"/>
      <use xlink:href="#DejaVuSans-69" x="214.0625"/>
      <use xlink:href="#DejaVuSans-6e" x="241.845703"/>
      <use xlink:href="#DejaVuSans-67" x="305.224609"/>
      <use xlink:href="#DejaVuSans-65" x="368.701172"/>
      <use xlink:href="#DejaVuSans-72" x="430.224609"/>
      <use xlink:href="#DejaVuSans-3a" x="469.587891"/>
      <use xlink:href="#DejaVuSans-3a" x="503.279297"/>
      <use xlink:href="#DejaVuSans-73" x="536.970703"/>
      <use xlink:href="#DejaVuSans-65" x="589.070312"/>
      <use xlink:href="#DejaVuSans-61" x="650.59375"/>
      <use xlink:href="#DejaVuSans-72" x="711.873047"/>
      <use xlink:href="#DejaVuSans-63" x="750.736328"/>
      <use xlink:href="#DejaVuSans-68" x="805.716797"/>
      <use xlink:href="#DejaVuSans-5f" x="869.095703"/>
      <use xlink:href="#DejaVuSans-70" x="919.095703"/>
      <use xlink:href="#DejaVuSans-72" x="982.572266"/>
      <use xlink:href="#DejaVuSans-65" x="1021.435547"/>
      <use xlink:href="#DejaVuSans-66" x="1082.958984"/>
      <use xlink:href="#DejaVuSans-65" x="1118.164062"/>
      <use xlink:href="#DejaVuSans-74" x="1179.6875"/>
      <use xlink:href="#DejaVuSans-63" x="1218.896484"/>
      <use xlink:href="#DejaVuSans-68" x="1273.876953"/>
      <use xlink:href="#DejaVuSans-3c" x="1337.255859"/>
      <use xlink:href="#DejaVuSans-33" x="1421.044922"/>
      <use xlink:href="#DejaVuSans-3e" x="1484.667969"/>
     </g>
    </g>
    <g id="line2d_70">
     <path d="M 62.328125 108.28375 
L 72.328125 108.28375 
L 82.328125 108.28375 
" style="fill: none; stroke: #2ca02c; stroke-width: 1.5; stroke-linecap: square"/>
    </g>
    <g id="text_46">
     <!-- Eytzinger::search_prefetch&lt;4&gt; -->
     <g transform="translate(90.328125 111.78375) scale(0.1 -0.1)">
      <use xlink:href="#DejaVuSans-45"/>
      <use xlink:href="#DejaVuSans-79" x="63.183594"/>
      <use xlink:href="#DejaVuSans-74" x="122.363281"/>
      <use xlink:href="#DejaVuSans-7a" x="161.572266"/>
      <use xlink:href="#DejaVuSans-69" x="214.0625"/>
      <use xlink:href="#DejaVuSans-6e" x="241.845703"/>
      <use xlink:href="#DejaVuSans-67" x="305.224609"/>
      <use xlink:href="#DejaVuSans-65" x="368.701172"/>
      <use xlink:href="#DejaVuSans-72" x="430.224609"/>
      <use xlink:href="#DejaVuSans-3a" x="469.587891"/>
      <use xlink:href="#DejaVuSans-3a" x="503.279297"/>
      <use xlink:href="#DejaVuSans-73" x="536.970703"/>
      <use xlink:href="#DejaVuSans-65" x="589.070312"/>
      <use xlink:href="#DejaVuSans-61" x="650.59375"/>
      <use xlink:href="#DejaVuSans-72" x="711.873047"/>
      <use xlink:href="#DejaVuSans-63" x="750.736328"/>
      <use xlink:href="#DejaVuSans-68" x="805.716797"/>
      <use xlink:href="#DejaVuSans-5f" x="869.095703"/>
      <use xlink:href="#DejaVuSans-70" x="919.095703"/>
      <use xlink:href="#DejaVuSans-72" x="982.572266"/>
      <use xlink:href="#DejaVuSans-65" x="1021.435547"/>
      <use xlink:href="#DejaVuSans-66" x="1082.958984"/>
      <use xlink:href="#DejaVuSans-65" x="1118.164062"/>
      <use xlink:href="#DejaVuSans-74" x="1179.6875"/>
      <use xlink:href="#DejaVuSans-63" x="1218.896484"/>
      <use xlink:href="#DejaVuSans-68" x="1273.876953"/>
      <use xlink:href="#DejaVuSans-3c" x="1337.255859"/>
      <use xlink:href="#DejaVuSans-34" x="1421.044922"/>
      <use xlink:href="#DejaVuSans-3e" x="1484.667969"/>
     </g>
    </g>
   </g>
  </g>
 </g>
 <defs>
  <clipPath id="p249764c68c">
   <rect x="53.328125" y="50.594688" width="613.8" height="443.52"/>
  </clipPath>
 </defs>
</svg>
