<?xml version="1.0" encoding="utf-8" standalone="no"?>
<!DOCTYPE svg PUBLIC "-//W3C//DTD SVG 1.1//EN"
  "http://www.w3.org/Graphics/SVG/1.1/DTD/svg11.dtd">
<svg xmlns:xlink="http://www.w3.org/1999/xlink" width="667.965625pt" height="531.670938pt" viewBox="0 0 667.965625 531.670938" xmlns="http://www.w3.org/2000/svg" version="1.1">
 <metadata>
  <rdf:RDF xmlns:dc="http://purl.org/dc/elements/1.1/" xmlns:cc="http://creativecommons.org/ns#" xmlns:rdf="http://www.w3.org/1999/02/22-rdf-syntax-ns#">
   <cc:Work>
    <dc:type rdf:resource="http://purl.org/dc/dcmitype/StillImage"/>
    <dc:date>2025-02-16T17:53:04.002152</dc:date>
    <dc:format>image/svg+xml</dc:format>
    <dc:creator>
     <cc:Agent>
      <dc:title>Matplotlib v3.9.2, https://matplotlib.org/</dc:title>
     </cc:Agent>
    </dc:creator>
   </cc:Work>
  </rdf:RDF>
 </metadata>
 <defs>
  <style type="text/css">*{stroke-linejoin: round; stroke-linecap: butt}</style>
 </defs>
 <g id="figure_1">
  <g id="patch_1">
   <path d="M -0 531.670938 
L 667.965625 531.670938 
L 667.965625 0 
L -0 0 
z
" style="fill: #ffffff"/>
  </g>
  <g id="axes_1">
   <g id="patch_2">
    <path d="M 46.965625 494.114688 
L 660.765625 494.114688 
L 660.765625 50.594688 
L 46.965625 50.594688 
z
" style="fill: #ffffff"/>
   </g>
   <g id="line2d_1">
    <path d="M 293.977947 494.114688 
L 293.977947 50.594688 
" clip-path="url(#p55021bef23)" style="fill: none; stroke-dasharray: 5.55,2.4; stroke-dashoffset: 0; stroke: #ff0000; stroke-width: 1.5"/>
   </g>
   <g id="line2d_2">
    <path d="M 383.497901 494.114688 
L 383.497901 50.594688 
" clip-path="url(#p55021bef23)" style="fill: none; stroke-dasharray: 5.55,2.4; stroke-dashoffset: 0; stroke: #ff0000; stroke-width: 1.5"/>
   </g>
   <g id="line2d_3">
    <path d="M 450.637867 494.114688 
L 450.637867 50.594688 
" clip-path="url(#p55021bef23)" style="fill: none; stroke-dasharray: 5.55,2.4; stroke-dashoffset: 0; stroke: #ff0000; stroke-width: 1.5"/>
   </g>
   <g id="axes_2">
    <g id="patch_3">
     <path d="M 46.965625 50.594688 
L 660.765625 50.594688 
L 660.765625 50.594687 
L 46.965625 50.594687 
z
" style="fill: #ffffff"/>
    </g>
    <g id="matplotlib.axis_1">
     <g id="xtick_1">
      <g id="line2d_4">
       <defs>
        <path id="mea6396e87f" d="M 0 0 
L 0 -3.5 
" style="stroke: #000000; stroke-width: 0.8"/>
       </defs>
       <g>
        <use xlink:href="#mea6396e87f" x="47.798072" y="50.594687" style="stroke: #000000; stroke-width: 0.8"/>
       </g>
      </g>
      <g id="text_1">
       <!-- $\mathdefault{2^{2}}$ -->
       <g transform="translate(42.198072 41.515) scale(0.1 -0.1)">
        <defs>
         <path id="DejaVuSans-32" d="M 1228 531 
L 3431 531 
L 3431 0 
L 469 0 
L 469 531 
Q 828 903 1448 1529 
Q 2069 2156 2228 2338 
Q 2531 2678 2651 2914 
Q 2772 3150 2772 3378 
Q 2772 3750 2511 3984 
Q 2250 4219 1831 4219 
Q 1534 4219 1204 4116 
Q 875 4013 500 3803 
L 500 4441 
Q 881 4594 1212 4672 
Q 1544 4750 1819 4750 
Q 2544 4750 2975 4387 
Q 3406 4025 3406 3419 
Q 3406 3131 3298 2873 
Q 3191 2616 2906 2266 
Q 2828 2175 2409 1742 
Q 1991 1309 1228 531 
z
" transform="scale(0.015625)"/>
        </defs>
        <use xlink:href="#DejaVuSans-32" transform="translate(0 0.765625)"/>
        <use xlink:href="#DejaVuSans-32" transform="translate(64.580078 39.046875) scale(0.7)"/>
       </g>
      </g>
     </g>
     <g id="xtick_2">
      <g id="line2d_5">
       <g>
        <use xlink:href="#mea6396e87f" x="92.55805" y="50.594687" style="stroke: #000000; stroke-width: 0.8"/>
       </g>
      </g>
      <g id="text_2">
       <!-- $\mathdefault{2^{4}}$ -->
       <g transform="translate(86.95805 41.515) scale(0.1 -0.1)">
        <defs>
         <path id="DejaVuSans-34" d="M 2419 4116 
L 825 1625 
L 2419 1625 
L 2419 4116 
z
M 2253 4666 
L 3047 4666 
L 3047 1625 
L 3713 1625 
L 3713 1100 
L 3047 1100 
L 3047 0 
L 2419 0 
L 2419 1100 
L 313 1100 
L 313 1709 
L 2253 4666 
z
" transform="scale(0.015625)"/>
        </defs>
        <use xlink:href="#DejaVuSans-32" transform="translate(0 0.684375)"/>
        <use xlink:href="#DejaVuSans-34" transform="translate(64.580078 38.965625) scale(0.7)"/>
       </g>
      </g>
     </g>
     <g id="xtick_3">
      <g id="line2d_6">
       <g>
        <use xlink:href="#mea6396e87f" x="137.318027" y="50.594687" style="stroke: #000000; stroke-width: 0.8"/>
       </g>
      </g>
      <g id="text_3">
       <!-- $\mathdefault{2^{6}}$ -->
       <g transform="translate(131.718027 41.515) scale(0.1 -0.1)">
        <defs>
         <path id="DejaVuSans-36" d="M 2113 2584 
Q 1688 2584 1439 2293 
Q 1191 2003 1191 1497 
Q 1191 994 1439 701 
Q 1688 409 2113 409 
Q 2538 409 2786 701 
Q 3034 994 3034 1497 
Q 3034 2003 2786 2293 
Q 2538 2584 2113 2584 
z
M 3366 4563 
L 3366 3988 
Q 3128 4100 2886 4159 
Q 2644 4219 2406 4219 
Q 1781 4219 1451 3797 
Q 1122 3375 1075 2522 
Q 1259 2794 1537 2939 
Q 1816 3084 2150 3084 
Q 2853 3084 3261 2657 
Q 3669 2231 3669 1497 
Q 3669 778 3244 343 
Q 2819 -91 2113 -91 
Q 1303 -91 875 529 
Q 447 1150 447 2328 
Q 447 3434 972 4092 
Q 1497 4750 2381 4750 
Q 2619 4750 2861 4703 
Q 3103 4656 3366 4563 
z
" transform="scale(0.015625)"/>
        </defs>
        <use xlink:href="#DejaVuSans-32" transform="translate(0 0.765625)"/>
        <use xlink:href="#DejaVuSans-36" transform="translate(64.580078 39.046875) scale(0.7)"/>
       </g>
      </g>
     </g>
     <g id="xtick_4">
      <g id="line2d_7">
       <g>
        <use xlink:href="#mea6396e87f" x="182.078004" y="50.594687" style="stroke: #000000; stroke-width: 0.8"/>
       </g>
      </g>
      <g id="text_4">
       <!-- $\mathdefault{2^{8}}$ -->
       <g transform="translate(176.478004 41.515) scale(0.1 -0.1)">
        <defs>
         <path id="DejaVuSans-38" d="M 2034 2216 
Q 1584 2216 1326 1975 
Q 1069 1734 1069 1313 
Q 1069 891 1326 650 
Q 1584 409 2034 409 
Q 2484 409 2743 651 
Q 3003 894 3003 1313 
Q 3003 1734 2745 1975 
Q 2488 2216 2034 2216 
z
M 1403 2484 
Q 997 2584 770 2862 
Q 544 3141 544 3541 
Q 544 4100 942 4425 
Q 1341 4750 2034 4750 
Q 2731 4750 3128 4425 
Q 3525 4100 3525 3541 
Q 3525 3141 3298 2862 
Q 3072 2584 2669 2484 
Q 3125 2378 3379 2068 
Q 3634 1759 3634 1313 
Q 3634 634 3220 271 
Q 2806 -91 2034 -91 
Q 1263 -91 848 271 
Q 434 634 434 1313 
Q 434 1759 690 2068 
Q 947 2378 1403 2484 
z
M 1172 3481 
Q 1172 3119 1398 2916 
Q 1625 2713 2034 2713 
Q 2441 2713 2670 2916 
Q 2900 3119 2900 3481 
Q 2900 3844 2670 4047 
Q 2441 4250 2034 4250 
Q 1625 4250 1398 4047 
Q 1172 3844 1172 3481 
z
" transform="scale(0.015625)"/>
        </defs>
        <use xlink:href="#DejaVuSans-32" transform="translate(0 0.765625)"/>
        <use xlink:href="#DejaVuSans-38" transform="translate(64.580078 39.046875) scale(0.7)"/>
       </g>
      </g>
     </g>
     <g id="xtick_5">
      <g id="line2d_8">
       <g>
        <use xlink:href="#mea6396e87f" x="226.837981" y="50.594687" style="stroke: #000000; stroke-width: 0.8"/>
       </g>
      </g>
      <g id="text_5">
       <!-- $\mathdefault{2^{10}}$ -->
       <g transform="translate(218.987981 41.515) scale(0.1 -0.1)">
        <defs>
         <path id="DejaVuSans-31" d="M 794 531 
L 1825 531 
L 1825 4091 
L 703 3866 
L 703 4441 
L 1819 4666 
L 2450 4666 
L 2450 531 
L 3481 531 
L 3481 0 
L 794 0 
L 794 531 
z
" transform="scale(0.015625)"/>
         <path id="DejaVuSans-30" d="M 2034 4250 
Q 1547 4250 1301 3770 
Q 1056 3291 1056 2328 
Q 1056 1369 1301 889 
Q 1547 409 2034 409 
Q 2525 409 2770 889 
Q 3016 1369 3016 2328 
Q 3016 3291 2770 3770 
Q 2525 4250 2034 4250 
z
M 2034 4750 
Q 2819 4750 3233 4129 
Q 3647 3509 3647 2328 
Q 3647 1150 3233 529 
Q 2819 -91 2034 -91 
Q 1250 -91 836 529 
Q 422 1150 422 2328 
Q 422 3509 836 4129 
Q 1250 4750 2034 4750 
z
" transform="scale(0.015625)"/>
        </defs>
        <use xlink:href="#DejaVuSans-32" transform="translate(0 0.765625)"/>
        <use xlink:href="#DejaVuSans-31" transform="translate(64.580078 39.046875) scale(0.7)"/>
        <use xlink:href="#DejaVuSans-30" transform="translate(109.116211 39.046875) scale(0.7)"/>
       </g>
      </g>
     </g>
     <g id="xtick_6">
      <g id="line2d_9">
       <g>
        <use xlink:href="#mea6396e87f" x="271.597958" y="50.594687" style="stroke: #000000; stroke-width: 0.8"/>
       </g>
      </g>
      <g id="text_6">
       <!-- $\mathdefault{2^{12}}$ -->
       <g transform="translate(263.747958 41.515) scale(0.1 -0.1)">
        <use xlink:href="#DejaVuSans-32" transform="translate(0 0.765625)"/>
        <use xlink:href="#DejaVuSans-31" transform="translate(64.580078 39.046875) scale(0.7)"/>
        <use xlink:href="#DejaVuSans-32" transform="translate(109.116211 39.046875) scale(0.7)"/>
       </g>
      </g>
     </g>
     <g id="xtick_7">
      <g id="line2d_10">
       <g>
        <use xlink:href="#mea6396e87f" x="316.357936" y="50.594687" style="stroke: #000000; stroke-width: 0.8"/>
       </g>
      </g>
      <g id="text_7">
       <!-- $\mathdefault{2^{14}}$ -->
       <g transform="translate(308.507936 41.515) scale(0.1 -0.1)">
        <use xlink:href="#DejaVuSans-32" transform="translate(0 0.684375)"/>
        <use xlink:href="#DejaVuSans-31" transform="translate(64.580078 38.965625) scale(0.7)"/>
        <use xlink:href="#DejaVuSans-34" transform="translate(109.116211 38.965625) scale(0.7)"/>
       </g>
      </g>
     </g>
     <g id="xtick_8">
      <g id="line2d_11">
       <g>
        <use xlink:href="#mea6396e87f" x="361.117913" y="50.594687" style="stroke: #000000; stroke-width: 0.8"/>
       </g>
      </g>
      <g id="text_8">
       <!-- $\mathdefault{2^{16}}$ -->
       <g transform="translate(353.267913 41.515) scale(0.1 -0.1)">
        <use xlink:href="#DejaVuSans-32" transform="translate(0 0.765625)"/>
        <use xlink:href="#DejaVuSans-31" transform="translate(64.580078 39.046875) scale(0.7)"/>
        <use xlink:href="#DejaVuSans-36" transform="translate(109.116211 39.046875) scale(0.7)"/>
       </g>
      </g>
     </g>
     <g id="xtick_9">
      <g id="line2d_12">
       <g>
        <use xlink:href="#mea6396e87f" x="405.87789" y="50.594687" style="stroke: #000000; stroke-width: 0.8"/>
       </g>
      </g>
      <g id="text_9">
       <!-- $\mathdefault{2^{18}}$ -->
       <g transform="translate(398.02789 41.515) scale(0.1 -0.1)">
        <use xlink:href="#DejaVuSans-32" transform="translate(0 0.765625)"/>
        <use xlink:href="#DejaVuSans-31" transform="translate(64.580078 39.046875) scale(0.7)"/>
        <use xlink:href="#DejaVuSans-38" transform="translate(109.116211 39.046875) scale(0.7)"/>
       </g>
      </g>
     </g>
     <g id="xtick_10">
      <g id="line2d_13">
       <g>
        <use xlink:href="#mea6396e87f" x="450.637867" y="50.594687" style="stroke: #000000; stroke-width: 0.8"/>
       </g>
      </g>
      <g id="text_10">
       <!-- $\mathdefault{2^{20}}$ -->
       <g transform="translate(442.787867 41.515) scale(0.1 -0.1)">
        <use xlink:href="#DejaVuSans-32" transform="translate(0 0.765625)"/>
        <use xlink:href="#DejaVuSans-32" transform="translate(64.580078 39.046875) scale(0.7)"/>
        <use xlink:href="#DejaVuSans-30" transform="translate(109.116211 39.046875) scale(0.7)"/>
       </g>
      </g>
     </g>
     <g id="xtick_11">
      <g id="line2d_14">
       <g>
        <use xlink:href="#mea6396e87f" x="495.397844" y="50.594687" style="stroke: #000000; stroke-width: 0.8"/>
       </g>
      </g>
      <g id="text_11">
       <!-- $\mathdefault{2^{22}}$ -->
       <g transform="translate(487.547844 41.515) scale(0.1 -0.1)">
        <use xlink:href="#DejaVuSans-32" transform="translate(0 0.765625)"/>
        <use xlink:href="#DejaVuSans-32" transform="translate(64.580078 39.046875) scale(0.7)"/>
        <use xlink:href="#DejaVuSans-32" transform="translate(109.116211 39.046875) scale(0.7)"/>
       </g>
      </g>
     </g>
     <g id="xtick_12">
      <g id="line2d_15">
       <g>
        <use xlink:href="#mea6396e87f" x="540.157822" y="50.594687" style="stroke: #000000; stroke-width: 0.8"/>
       </g>
      </g>
      <g id="text_12">
       <!-- $\mathdefault{2^{24}}$ -->
       <g transform="translate(532.307822 41.515) scale(0.1 -0.1)">
        <use xlink:href="#DejaVuSans-32" transform="translate(0 0.765625)"/>
        <use xlink:href="#DejaVuSans-32" transform="translate(64.580078 39.046875) scale(0.7)"/>
        <use xlink:href="#DejaVuSans-34" transform="translate(109.116211 39.046875) scale(0.7)"/>
       </g>
      </g>
     </g>
     <g id="xtick_13">
      <g id="line2d_16">
       <g>
        <use xlink:href="#mea6396e87f" x="584.917799" y="50.594687" style="stroke: #000000; stroke-width: 0.8"/>
       </g>
      </g>
      <g id="text_13">
       <!-- $\mathdefault{2^{26}}$ -->
       <g transform="translate(577.067799 41.515) scale(0.1 -0.1)">
        <use xlink:href="#DejaVuSans-32" transform="translate(0 0.765625)"/>
        <use xlink:href="#DejaVuSans-32" transform="translate(64.580078 39.046875) scale(0.7)"/>
        <use xlink:href="#DejaVuSans-36" transform="translate(109.116211 39.046875) scale(0.7)"/>
       </g>
      </g>
     </g>
     <g id="xtick_14">
      <g id="line2d_17">
       <g>
        <use xlink:href="#mea6396e87f" x="629.677776" y="50.594687" style="stroke: #000000; stroke-width: 0.8"/>
       </g>
      </g>
      <g id="text_14">
       <!-- $\mathdefault{2^{28}}$ -->
       <g transform="translate(621.827776 41.515) scale(0.1 -0.1)">
        <use xlink:href="#DejaVuSans-32" transform="translate(0 0.765625)"/>
        <use xlink:href="#DejaVuSans-32" transform="translate(64.580078 39.046875) scale(0.7)"/>
        <use xlink:href="#DejaVuSans-38" transform="translate(109.116211 39.046875) scale(0.7)"/>
       </g>
      </g>
     </g>
     <g id="text_15">
      <!-- Array length (u32) -->
      <g transform="translate(307.85 29.916562) scale(0.1 -0.1)">
       <defs>
        <path id="DejaVuSans-41" d="M 2188 4044 
L 1331 1722 
L 3047 1722 
L 2188 4044 
z
M 1831 4666 
L 2547 4666 
L 4325 0 
L 3669 0 
L 3244 1197 
L 1141 1197 
L 716 0 
L 50 0 
L 1831 4666 
z
" transform="scale(0.015625)"/>
        <path id="DejaVuSans-72" d="M 2631 2963 
Q 2534 3019 2420 3045 
Q 2306 3072 2169 3072 
Q 1681 3072 1420 2755 
Q 1159 2438 1159 1844 
L 1159 0 
L 581 0 
L 581 3500 
L 1159 3500 
L 1159 2956 
Q 1341 3275 1631 3429 
Q 1922 3584 2338 3584 
Q 2397 3584 2469 3576 
Q 2541 3569 2628 3553 
L 2631 2963 
z
" transform="scale(0.015625)"/>
        <path id="DejaVuSans-61" d="M 2194 1759 
Q 1497 1759 1228 1600 
Q 959 1441 959 1056 
Q 959 750 1161 570 
Q 1363 391 1709 391 
Q 2188 391 2477 730 
Q 2766 1069 2766 1631 
L 2766 1759 
L 2194 1759 
z
M 3341 1997 
L 3341 0 
L 2766 0 
L 2766 531 
Q 2569 213 2275 61 
Q 1981 -91 1556 -91 
Q 1019 -91 701 211 
Q 384 513 384 1019 
Q 384 1609 779 1909 
Q 1175 2209 1959 2209 
L 2766 2209 
L 2766 2266 
Q 2766 2663 2505 2880 
Q 2244 3097 1772 3097 
Q 1472 3097 1187 3025 
Q 903 2953 641 2809 
L 641 3341 
Q 956 3463 1253 3523 
Q 1550 3584 1831 3584 
Q 2591 3584 2966 3190 
Q 3341 2797 3341 1997 
z
" transform="scale(0.015625)"/>
        <path id="DejaVuSans-79" d="M 2059 -325 
Q 1816 -950 1584 -1140 
Q 1353 -1331 966 -1331 
L 506 -1331 
L 506 -850 
L 844 -850 
Q 1081 -850 1212 -737 
Q 1344 -625 1503 -206 
L 1606 56 
L 191 3500 
L 800 3500 
L 1894 763 
L 2988 3500 
L 3597 3500 
L 2059 -325 
z
" transform="scale(0.015625)"/>
        <path id="DejaVuSans-20" transform="scale(0.015625)"/>
        <path id="DejaVuSans-6c" d="M 603 4863 
L 1178 4863 
L 1178 0 
L 603 0 
L 603 4863 
z
" transform="scale(0.015625)"/>
        <path id="DejaVuSans-65" d="M 3597 1894 
L 3597 1613 
L 953 1613 
Q 991 1019 1311 708 
Q 1631 397 2203 397 
Q 2534 397 2845 478 
Q 3156 559 3463 722 
L 3463 178 
Q 3153 47 2828 -22 
Q 2503 -91 2169 -91 
Q 1331 -91 842 396 
Q 353 884 353 1716 
Q 353 2575 817 3079 
Q 1281 3584 2069 3584 
Q 2775 3584 3186 3129 
Q 3597 2675 3597 1894 
z
M 3022 2063 
Q 3016 2534 2758 2815 
Q 2500 3097 2075 3097 
Q 1594 3097 1305 2825 
Q 1016 2553 972 2059 
L 3022 2063 
z
" transform="scale(0.015625)"/>
        <path id="DejaVuSans-6e" d="M 3513 2113 
L 3513 0 
L 2938 0 
L 2938 2094 
Q 2938 2591 2744 2837 
Q 2550 3084 2163 3084 
Q 1697 3084 1428 2787 
Q 1159 2491 1159 1978 
L 1159 0 
L 581 0 
L 581 3500 
L 1159 3500 
L 1159 2956 
Q 1366 3272 1645 3428 
Q 1925 3584 2291 3584 
Q 2894 3584 3203 3211 
Q 3513 2838 3513 2113 
z
" transform="scale(0.015625)"/>
        <path id="DejaVuSans-67" d="M 2906 1791 
Q 2906 2416 2648 2759 
Q 2391 3103 1925 3103 
Q 1463 3103 1205 2759 
Q 947 2416 947 1791 
Q 947 1169 1205 825 
Q 1463 481 1925 481 
Q 2391 481 2648 825 
Q 2906 1169 2906 1791 
z
M 3481 434 
Q 3481 -459 3084 -895 
Q 2688 -1331 1869 -1331 
Q 1566 -1331 1297 -1286 
Q 1028 -1241 775 -1147 
L 775 -588 
Q 1028 -725 1275 -790 
Q 1522 -856 1778 -856 
Q 2344 -856 2625 -561 
Q 2906 -266 2906 331 
L 2906 616 
Q 2728 306 2450 153 
Q 2172 0 1784 0 
Q 1141 0 747 490 
Q 353 981 353 1791 
Q 353 2603 747 3093 
Q 1141 3584 1784 3584 
Q 2172 3584 2450 3431 
Q 2728 3278 2906 2969 
L 2906 3500 
L 3481 3500 
L 3481 434 
z
" transform="scale(0.015625)"/>
        <path id="DejaVuSans-74" d="M 1172 4494 
L 1172 3500 
L 2356 3500 
L 2356 3053 
L 1172 3053 
L 1172 1153 
Q 1172 725 1289 603 
Q 1406 481 1766 481 
L 2356 481 
L 2356 0 
L 1766 0 
Q 1100 0 847 248 
Q 594 497 594 1153 
L 594 3053 
L 172 3053 
L 172 3500 
L 594 3500 
L 594 4494 
L 1172 4494 
z
" transform="scale(0.015625)"/>
        <path id="DejaVuSans-68" d="M 3513 2113 
L 3513 0 
L 2938 0 
L 2938 2094 
Q 2938 2591 2744 2837 
Q 2550 3084 2163 3084 
Q 1697 3084 1428 2787 
Q 1159 2491 1159 1978 
L 1159 0 
L 581 0 
L 581 4863 
L 1159 4863 
L 1159 2956 
Q 1366 3272 1645 3428 
Q 1925 3584 2291 3584 
Q 2894 3584 3203 3211 
Q 3513 2838 3513 2113 
z
" transform="scale(0.015625)"/>
        <path id="DejaVuSans-28" d="M 1984 4856 
Q 1566 4138 1362 3434 
Q 1159 2731 1159 2009 
Q 1159 1288 1364 580 
Q 1569 -128 1984 -844 
L 1484 -844 
Q 1016 -109 783 600 
Q 550 1309 550 2009 
Q 550 2706 781 3412 
Q 1013 4119 1484 4856 
L 1984 4856 
z
" transform="scale(0.015625)"/>
        <path id="DejaVuSans-75" d="M 544 1381 
L 544 3500 
L 1119 3500 
L 1119 1403 
Q 1119 906 1312 657 
Q 1506 409 1894 409 
Q 2359 409 2629 706 
Q 2900 1003 2900 1516 
L 2900 3500 
L 3475 3500 
L 3475 0 
L 2900 0 
L 2900 538 
Q 2691 219 2414 64 
Q 2138 -91 1772 -91 
Q 1169 -91 856 284 
Q 544 659 544 1381 
z
M 1991 3584 
L 1991 3584 
z
" transform="scale(0.015625)"/>
        <path id="DejaVuSans-33" d="M 2597 2516 
Q 3050 2419 3304 2112 
Q 3559 1806 3559 1356 
Q 3559 666 3084 287 
Q 2609 -91 1734 -91 
Q 1441 -91 1130 -33 
Q 819 25 488 141 
L 488 750 
Q 750 597 1062 519 
Q 1375 441 1716 441 
Q 2309 441 2620 675 
Q 2931 909 2931 1356 
Q 2931 1769 2642 2001 
Q 2353 2234 1838 2234 
L 1294 2234 
L 1294 2753 
L 1863 2753 
Q 2328 2753 2575 2939 
Q 2822 3125 2822 3475 
Q 2822 3834 2567 4026 
Q 2313 4219 1838 4219 
Q 1578 4219 1281 4162 
Q 984 4106 628 3988 
L 628 4550 
Q 988 4650 1302 4700 
Q 1616 4750 1894 4750 
Q 2613 4750 3031 4423 
Q 3450 4097 3450 3541 
Q 3450 3153 3228 2886 
Q 3006 2619 2597 2516 
z
" transform="scale(0.015625)"/>
        <path id="DejaVuSans-29" d="M 513 4856 
L 1013 4856 
Q 1481 4119 1714 3412 
Q 1947 2706 1947 2009 
Q 1947 1309 1714 600 
Q 1481 -109 1013 -844 
L 513 -844 
Q 928 -128 1133 580 
Q 1338 1288 1338 2009 
Q 1338 2731 1133 3434 
Q 928 4138 513 4856 
z
" transform="scale(0.015625)"/>
       </defs>
       <use xlink:href="#DejaVuSans-41"/>
       <use xlink:href="#DejaVuSans-72" x="68.408203"/>
       <use xlink:href="#DejaVuSans-72" x="107.771484"/>
       <use xlink:href="#DejaVuSans-61" x="148.884766"/>
       <use xlink:href="#DejaVuSans-79" x="210.164062"/>
       <use xlink:href="#DejaVuSans-20" x="269.34375"/>
       <use xlink:href="#DejaVuSans-6c" x="301.130859"/>
       <use xlink:href="#DejaVuSans-65" x="328.914062"/>
       <use xlink:href="#DejaVuSans-6e" x="390.4375"/>
       <use xlink:href="#DejaVuSans-67" x="453.816406"/>
       <use xlink:href="#DejaVuSans-74" x="517.292969"/>
       <use xlink:href="#DejaVuSans-68" x="556.501953"/>
       <use xlink:href="#DejaVuSans-20" x="619.880859"/>
       <use xlink:href="#DejaVuSans-28" x="651.667969"/>
       <use xlink:href="#DejaVuSans-75" x="690.681641"/>
       <use xlink:href="#DejaVuSans-33" x="754.060547"/>
       <use xlink:href="#DejaVuSans-32" x="817.683594"/>
       <use xlink:href="#DejaVuSans-29" x="881.306641"/>
      </g>
     </g>
    </g>
    <g id="matplotlib.axis_2"/>
    <g id="patch_4">
     <path d="M 46.965625 50.594687 
L 660.765625 50.594687 
" style="fill: none; stroke: #000000; stroke-width: 0.8; stroke-linejoin: miter; stroke-linecap: square"/>
    </g>
   </g>
   <g id="matplotlib.axis_3">
    <g id="xtick_15">
     <g id="line2d_18">
      <path d="M 47.798072 494.114688 
L 47.798072 50.594688 
" clip-path="url(#p55021bef23)" style="fill: none; stroke: #b0b0b0; stroke-opacity: 0.4; stroke-width: 0.8; stroke-linecap: square"/>
     </g>
     <g id="line2d_19">
      <defs>
       <path id="mbe60081449" d="M 0 0 
L 0 3.5 
" style="stroke: #000000; stroke-width: 0.8"/>
      </defs>
      <g>
       <use xlink:href="#mbe60081449" x="47.798072" y="494.114688" style="stroke: #000000; stroke-width: 0.8"/>
      </g>
     </g>
     <g id="text_16">
      <!-- $\mathdefault{2^{4}}$ -->
      <g transform="translate(42.198072 508.713125) scale(0.1 -0.1)">
       <use xlink:href="#DejaVuSans-32" transform="translate(0 0.684375)"/>
       <use xlink:href="#DejaVuSans-34" transform="translate(64.580078 38.965625) scale(0.7)"/>
      </g>
     </g>
    </g>
    <g id="xtick_16">
     <g id="line2d_20">
      <path d="M 92.55805 494.114688 
L 92.55805 50.594688 
" clip-path="url(#p55021bef23)" style="fill: none; stroke: #b0b0b0; stroke-opacity: 0.4; stroke-width: 0.8; stroke-linecap: square"/>
     </g>
     <g id="line2d_21">
      <g>
       <use xlink:href="#mbe60081449" x="92.55805" y="494.114688" style="stroke: #000000; stroke-width: 0.8"/>
      </g>
     </g>
     <g id="text_17">
      <!-- $\mathdefault{2^{6}}$ -->
      <g transform="translate(86.95805 508.713125) scale(0.1 -0.1)">
       <use xlink:href="#DejaVuSans-32" transform="translate(0 0.765625)"/>
       <use xlink:href="#DejaVuSans-36" transform="translate(64.580078 39.046875) scale(0.7)"/>
      </g>
     </g>
    </g>
    <g id="xtick_17">
     <g id="line2d_22">
      <path d="M 137.318027 494.114688 
L 137.318027 50.594688 
" clip-path="url(#p55021bef23)" style="fill: none; stroke: #b0b0b0; stroke-opacity: 0.4; stroke-width: 0.8; stroke-linecap: square"/>
     </g>
     <g id="line2d_23">
      <g>
       <use xlink:href="#mbe60081449" x="137.318027" y="494.114688" style="stroke: #000000; stroke-width: 0.8"/>
      </g>
     </g>
     <g id="text_18">
      <!-- $\mathdefault{2^{8}}$ -->
      <g transform="translate(131.718027 508.713125) scale(0.1 -0.1)">
       <use xlink:href="#DejaVuSans-32" transform="translate(0 0.765625)"/>
       <use xlink:href="#DejaVuSans-38" transform="translate(64.580078 39.046875) scale(0.7)"/>
      </g>
     </g>
    </g>
    <g id="xtick_18">
     <g id="line2d_24">
      <path d="M 182.078004 494.114688 
L 182.078004 50.594688 
" clip-path="url(#p55021bef23)" style="fill: none; stroke: #b0b0b0; stroke-opacity: 0.4; stroke-width: 0.8; stroke-linecap: square"/>
     </g>
     <g id="line2d_25">
      <g>
       <use xlink:href="#mbe60081449" x="182.078004" y="494.114688" style="stroke: #000000; stroke-width: 0.8"/>
      </g>
     </g>
     <g id="text_19">
      <!-- $\mathdefault{2^{10}}$ -->
      <g transform="translate(174.228004 508.713125) scale(0.1 -0.1)">
       <use xlink:href="#DejaVuSans-32" transform="translate(0 0.765625)"/>
       <use xlink:href="#DejaVuSans-31" transform="translate(64.580078 39.046875) scale(0.7)"/>
       <use xlink:href="#DejaVuSans-30" transform="translate(109.116211 39.046875) scale(0.7)"/>
      </g>
     </g>
    </g>
    <g id="xtick_19">
     <g id="line2d_26">
      <path d="M 226.837981 494.114688 
L 226.837981 50.594688 
" clip-path="url(#p55021bef23)" style="fill: none; stroke: #b0b0b0; stroke-opacity: 0.4; stroke-width: 0.8; stroke-linecap: square"/>
     </g>
     <g id="line2d_27">
      <g>
       <use xlink:href="#mbe60081449" x="226.837981" y="494.114688" style="stroke: #000000; stroke-width: 0.8"/>
      </g>
     </g>
     <g id="text_20">
      <!-- $\mathdefault{2^{12}}$ -->
      <g transform="translate(218.987981 508.713125) scale(0.1 -0.1)">
       <use xlink:href="#DejaVuSans-32" transform="translate(0 0.765625)"/>
       <use xlink:href="#DejaVuSans-31" transform="translate(64.580078 39.046875) scale(0.7)"/>
       <use xlink:href="#DejaVuSans-32" transform="translate(109.116211 39.046875) scale(0.7)"/>
      </g>
     </g>
    </g>
    <g id="xtick_20">
     <g id="line2d_28">
      <path d="M 271.597958 494.114688 
L 271.597958 50.594688 
" clip-path="url(#p55021bef23)" style="fill: none; stroke: #b0b0b0; stroke-opacity: 0.4; stroke-width: 0.8; stroke-linecap: square"/>
     </g>
     <g id="line2d_29">
      <g>
       <use xlink:href="#mbe60081449" x="271.597958" y="494.114688" style="stroke: #000000; stroke-width: 0.8"/>
      </g>
     </g>
     <g id="text_21">
      <!-- $\mathdefault{2^{14}}$ -->
      <g transform="translate(263.747958 508.713125) scale(0.1 -0.1)">
       <use xlink:href="#DejaVuSans-32" transform="translate(0 0.684375)"/>
       <use xlink:href="#DejaVuSans-31" transform="translate(64.580078 38.965625) scale(0.7)"/>
       <use xlink:href="#DejaVuSans-34" transform="translate(109.116211 38.965625) scale(0.7)"/>
      </g>
     </g>
    </g>
    <g id="xtick_21">
     <g id="line2d_30">
      <path d="M 316.357936 494.114688 
L 316.357936 50.594688 
" clip-path="url(#p55021bef23)" style="fill: none; stroke: #b0b0b0; stroke-opacity: 0.4; stroke-width: 0.8; stroke-linecap: square"/>
     </g>
     <g id="line2d_31">
      <g>
       <use xlink:href="#mbe60081449" x="316.357936" y="494.114688" style="stroke: #000000; stroke-width: 0.8"/>
      </g>
     </g>
     <g id="text_22">
      <!-- $\mathdefault{2^{16}}$ -->
      <g transform="translate(308.507936 508.713125) scale(0.1 -0.1)">
       <use xlink:href="#DejaVuSans-32" transform="translate(0 0.765625)"/>
       <use xlink:href="#DejaVuSans-31" transform="translate(64.580078 39.046875) scale(0.7)"/>
       <use xlink:href="#DejaVuSans-36" transform="translate(109.116211 39.046875) scale(0.7)"/>
      </g>
     </g>
    </g>
    <g id="xtick_22">
     <g id="line2d_32">
      <path d="M 361.117913 494.114688 
L 361.117913 50.594688 
" clip-path="url(#p55021bef23)" style="fill: none; stroke: #b0b0b0; stroke-opacity: 0.4; stroke-width: 0.8; stroke-linecap: square"/>
     </g>
     <g id="line2d_33">
      <g>
       <use xlink:href="#mbe60081449" x="361.117913" y="494.114688" style="stroke: #000000; stroke-width: 0.8"/>
      </g>
     </g>
     <g id="text_23">
      <!-- $\mathdefault{2^{18}}$ -->
      <g transform="translate(353.267913 508.713125) scale(0.1 -0.1)">
       <use xlink:href="#DejaVuSans-32" transform="translate(0 0.765625)"/>
       <use xlink:href="#DejaVuSans-31" transform="translate(64.580078 39.046875) scale(0.7)"/>
       <use xlink:href="#DejaVuSans-38" transform="translate(109.116211 39.046875) scale(0.7)"/>
      </g>
     </g>
    </g>
    <g id="xtick_23">
     <g id="line2d_34">
      <path d="M 405.87789 494.114688 
L 405.87789 50.594688 
" clip-path="url(#p55021bef23)" style="fill: none; stroke: #b0b0b0; stroke-opacity: 0.4; stroke-width: 0.8; stroke-linecap: square"/>
     </g>
     <g id="line2d_35">
      <g>
       <use xlink:href="#mbe60081449" x="405.87789" y="494.114688" style="stroke: #000000; stroke-width: 0.8"/>
      </g>
     </g>
     <g id="text_24">
      <!-- $\mathdefault{2^{20}}$ -->
      <g transform="translate(398.02789 508.713125) scale(0.1 -0.1)">
       <use xlink:href="#DejaVuSans-32" transform="translate(0 0.765625)"/>
       <use xlink:href="#DejaVuSans-32" transform="translate(64.580078 39.046875) scale(0.7)"/>
       <use xlink:href="#DejaVuSans-30" transform="translate(109.116211 39.046875) scale(0.7)"/>
      </g>
     </g>
    </g>
    <g id="xtick_24">
     <g id="line2d_36">
      <path d="M 450.637867 494.114688 
L 450.637867 50.594688 
" clip-path="url(#p55021bef23)" style="fill: none; stroke: #b0b0b0; stroke-opacity: 0.4; stroke-width: 0.8; stroke-linecap: square"/>
     </g>
     <g id="line2d_37">
      <g>
       <use xlink:href="#mbe60081449" x="450.637867" y="494.114688" style="stroke: #000000; stroke-width: 0.8"/>
      </g>
     </g>
     <g id="text_25">
      <!-- $\mathdefault{2^{22}}$ -->
      <g transform="translate(442.787867 508.713125) scale(0.1 -0.1)">
       <use xlink:href="#DejaVuSans-32" transform="translate(0 0.765625)"/>
       <use xlink:href="#DejaVuSans-32" transform="translate(64.580078 39.046875) scale(0.7)"/>
       <use xlink:href="#DejaVuSans-32" transform="translate(109.116211 39.046875) scale(0.7)"/>
      </g>
     </g>
    </g>
    <g id="xtick_25">
     <g id="line2d_38">
      <path d="M 495.397844 494.114688 
L 495.397844 50.594688 
" clip-path="url(#p55021bef23)" style="fill: none; stroke: #b0b0b0; stroke-opacity: 0.4; stroke-width: 0.8; stroke-linecap: square"/>
     </g>
     <g id="line2d_39">
      <g>
       <use xlink:href="#mbe60081449" x="495.397844" y="494.114688" style="stroke: #000000; stroke-width: 0.8"/>
      </g>
     </g>
     <g id="text_26">
      <!-- $\mathdefault{2^{24}}$ -->
      <g transform="translate(487.547844 508.713125) scale(0.1 -0.1)">
       <use xlink:href="#DejaVuSans-32" transform="translate(0 0.765625)"/>
       <use xlink:href="#DejaVuSans-32" transform="translate(64.580078 39.046875) scale(0.7)"/>
       <use xlink:href="#DejaVuSans-34" transform="translate(109.116211 39.046875) scale(0.7)"/>
      </g>
     </g>
    </g>
    <g id="xtick_26">
     <g id="line2d_40">
      <path d="M 540.157822 494.114688 
L 540.157822 50.594688 
" clip-path="url(#p55021bef23)" style="fill: none; stroke: #b0b0b0; stroke-opacity: 0.4; stroke-width: 0.8; stroke-linecap: square"/>
     </g>
     <g id="line2d_41">
      <g>
       <use xlink:href="#mbe60081449" x="540.157822" y="494.114688" style="stroke: #000000; stroke-width: 0.8"/>
      </g>
     </g>
     <g id="text_27">
      <!-- $\mathdefault{2^{26}}$ -->
      <g transform="translate(532.307822 508.713125) scale(0.1 -0.1)">
       <use xlink:href="#DejaVuSans-32" transform="translate(0 0.765625)"/>
       <use xlink:href="#DejaVuSans-32" transform="translate(64.580078 39.046875) scale(0.7)"/>
       <use xlink:href="#DejaVuSans-36" transform="translate(109.116211 39.046875) scale(0.7)"/>
      </g>
     </g>
    </g>
    <g id="xtick_27">
     <g id="line2d_42">
      <path d="M 584.917799 494.114688 
L 584.917799 50.594688 
" clip-path="url(#p55021bef23)" style="fill: none; stroke: #b0b0b0; stroke-opacity: 0.4; stroke-width: 0.8; stroke-linecap: square"/>
     </g>
     <g id="line2d_43">
      <g>
       <use xlink:href="#mbe60081449" x="584.917799" y="494.114688" style="stroke: #000000; stroke-width: 0.8"/>
      </g>
     </g>
     <g id="text_28">
      <!-- $\mathdefault{2^{28}}$ -->
      <g transform="translate(577.067799 508.713125) scale(0.1 -0.1)">
       <use xlink:href="#DejaVuSans-32" transform="translate(0 0.765625)"/>
       <use xlink:href="#DejaVuSans-32" transform="translate(64.580078 39.046875) scale(0.7)"/>
       <use xlink:href="#DejaVuSans-38" transform="translate(109.116211 39.046875) scale(0.7)"/>
      </g>
     </g>
    </g>
    <g id="xtick_28">
     <g id="line2d_44">
      <path d="M 629.677776 494.114688 
L 629.677776 50.594688 
" clip-path="url(#p55021bef23)" style="fill: none; stroke: #b0b0b0; stroke-opacity: 0.4; stroke-width: 0.8; stroke-linecap: square"/>
     </g>
     <g id="line2d_45">
      <g>
       <use xlink:href="#mbe60081449" x="629.677776" y="494.114688" style="stroke: #000000; stroke-width: 0.8"/>
      </g>
     </g>
     <g id="text_29">
      <!-- $\mathdefault{2^{30}}$ -->
      <g transform="translate(621.827776 508.713125) scale(0.1 -0.1)">
       <use xlink:href="#DejaVuSans-32" transform="translate(0 0.765625)"/>
       <use xlink:href="#DejaVuSans-33" transform="translate(64.580078 39.046875) scale(0.7)"/>
       <use xlink:href="#DejaVuSans-30" transform="translate(109.116211 39.046875) scale(0.7)"/>
      </g>
     </g>
    </g>
    <g id="text_30">
     <!-- Input size (bytes) -->
     <g transform="translate(310.369531 522.39125) scale(0.1 -0.1)">
      <defs>
       <path id="DejaVuSans-49" d="M 628 4666 
L 1259 4666 
L 1259 0 
L 628 0 
L 628 4666 
z
" transform="scale(0.015625)"/>
       <path id="DejaVuSans-70" d="M 1159 525 
L 1159 -1331 
L 581 -1331 
L 581 3500 
L 1159 3500 
L 1159 2969 
Q 1341 3281 1617 3432 
Q 1894 3584 2278 3584 
Q 2916 3584 3314 3078 
Q 3713 2572 3713 1747 
Q 3713 922 3314 415 
Q 2916 -91 2278 -91 
Q 1894 -91 1617 61 
Q 1341 213 1159 525 
z
M 3116 1747 
Q 3116 2381 2855 2742 
Q 2594 3103 2138 3103 
Q 1681 3103 1420 2742 
Q 1159 2381 1159 1747 
Q 1159 1113 1420 752 
Q 1681 391 2138 391 
Q 2594 391 2855 752 
Q 3116 1113 3116 1747 
z
" transform="scale(0.015625)"/>
       <path id="DejaVuSans-73" d="M 2834 3397 
L 2834 2853 
Q 2591 2978 2328 3040 
Q 2066 3103 1784 3103 
Q 1356 3103 1142 2972 
Q 928 2841 928 2578 
Q 928 2378 1081 2264 
Q 1234 2150 1697 2047 
L 1894 2003 
Q 2506 1872 2764 1633 
Q 3022 1394 3022 966 
Q 3022 478 2636 193 
Q 2250 -91 1575 -91 
Q 1294 -91 989 -36 
Q 684 19 347 128 
L 347 722 
Q 666 556 975 473 
Q 1284 391 1588 391 
Q 1994 391 2212 530 
Q 2431 669 2431 922 
Q 2431 1156 2273 1281 
Q 2116 1406 1581 1522 
L 1381 1569 
Q 847 1681 609 1914 
Q 372 2147 372 2553 
Q 372 3047 722 3315 
Q 1072 3584 1716 3584 
Q 2034 3584 2315 3537 
Q 2597 3491 2834 3397 
z
" transform="scale(0.015625)"/>
       <path id="DejaVuSans-69" d="M 603 3500 
L 1178 3500 
L 1178 0 
L 603 0 
L 603 3500 
z
M 603 4863 
L 1178 4863 
L 1178 4134 
L 603 4134 
L 603 4863 
z
" transform="scale(0.015625)"/>
       <path id="DejaVuSans-7a" d="M 353 3500 
L 3084 3500 
L 3084 2975 
L 922 459 
L 3084 459 
L 3084 0 
L 275 0 
L 275 525 
L 2438 3041 
L 353 3041 
L 353 3500 
z
" transform="scale(0.015625)"/>
       <path id="DejaVuSans-62" d="M 3116 1747 
Q 3116 2381 2855 2742 
Q 2594 3103 2138 3103 
Q 1681 3103 1420 2742 
Q 1159 2381 1159 1747 
Q 1159 1113 1420 752 
Q 1681 391 2138 391 
Q 2594 391 2855 752 
Q 3116 1113 3116 1747 
z
M 1159 2969 
Q 1341 3281 1617 3432 
Q 1894 3584 2278 3584 
Q 2916 3584 3314 3078 
Q 3713 2572 3713 1747 
Q 3713 922 3314 415 
Q 2916 -91 2278 -91 
Q 1894 -91 1617 61 
Q 1341 213 1159 525 
L 1159 0 
L 581 0 
L 581 4863 
L 1159 4863 
L 1159 2969 
z
" transform="scale(0.015625)"/>
      </defs>
      <use xlink:href="#DejaVuSans-49"/>
      <use xlink:href="#DejaVuSans-6e" x="29.492188"/>
      <use xlink:href="#DejaVuSans-70" x="92.871094"/>
      <use xlink:href="#DejaVuSans-75" x="156.347656"/>
      <use xlink:href="#DejaVuSans-74" x="219.726562"/>
      <use xlink:href="#DejaVuSans-20" x="258.935547"/>
      <use xlink:href="#DejaVuSans-73" x="290.722656"/>
      <use xlink:href="#DejaVuSans-69" x="342.822266"/>
      <use xlink:href="#DejaVuSans-7a" x="370.605469"/>
      <use xlink:href="#DejaVuSans-65" x="423.095703"/>
      <use xlink:href="#DejaVuSans-20" x="484.619141"/>
      <use xlink:href="#DejaVuSans-28" x="516.40625"/>
      <use xlink:href="#DejaVuSans-62" x="555.419922"/>
      <use xlink:href="#DejaVuSans-79" x="618.896484"/>
      <use xlink:href="#DejaVuSans-74" x="678.076172"/>
      <use xlink:href="#DejaVuSans-65" x="717.285156"/>
      <use xlink:href="#DejaVuSans-73" x="778.808594"/>
      <use xlink:href="#DejaVuSans-29" x="830.908203"/>
     </g>
    </g>
   </g>
   <g id="matplotlib.axis_4">
    <g id="ytick_1">
     <g id="line2d_46">
      <path d="M 46.965625 494.114688 
L 660.765625 494.114688 
" clip-path="url(#p55021bef23)" style="fill: none; stroke: #b0b0b0; stroke-opacity: 0.4; stroke-width: 0.8; stroke-linecap: square"/>
     </g>
     <g id="line2d_47">
      <defs>
       <path id="m3222d5f9c5" d="M 0 0 
L -3.5 0 
" style="stroke: #000000; stroke-width: 0.8"/>
      </defs>
      <g>
       <use xlink:href="#m3222d5f9c5" x="46.965625" y="494.114688" style="stroke: #000000; stroke-width: 0.8"/>
      </g>
     </g>
     <g id="text_31">
      <!-- 0 -->
      <g transform="translate(33.603125 497.913906) scale(0.1 -0.1)">
       <use xlink:href="#DejaVuSans-30"/>
      </g>
     </g>
    </g>
    <g id="ytick_2">
     <g id="line2d_48">
      <path d="M 46.965625 405.410688 
L 660.765625 405.410688 
" clip-path="url(#p55021bef23)" style="fill: none; stroke: #b0b0b0; stroke-opacity: 0.4; stroke-width: 0.8; stroke-linecap: square"/>
     </g>
     <g id="line2d_49">
      <g>
       <use xlink:href="#m3222d5f9c5" x="46.965625" y="405.410688" style="stroke: #000000; stroke-width: 0.8"/>
      </g>
     </g>
     <g id="text_32">
      <!-- 20 -->
      <g transform="translate(27.240625 409.209906) scale(0.1 -0.1)">
       <use xlink:href="#DejaVuSans-32"/>
       <use xlink:href="#DejaVuSans-30" x="63.623047"/>
      </g>
     </g>
    </g>
    <g id="ytick_3">
     <g id="line2d_50">
      <path d="M 46.965625 316.706688 
L 660.765625 316.706688 
" clip-path="url(#p55021bef23)" style="fill: none; stroke: #b0b0b0; stroke-opacity: 0.4; stroke-width: 0.8; stroke-linecap: square"/>
     </g>
     <g id="line2d_51">
      <g>
       <use xlink:href="#m3222d5f9c5" x="46.965625" y="316.706688" style="stroke: #000000; stroke-width: 0.8"/>
      </g>
     </g>
     <g id="text_33">
      <!-- 40 -->
      <g transform="translate(27.240625 320.505906) scale(0.1 -0.1)">
       <use xlink:href="#DejaVuSans-34"/>
       <use xlink:href="#DejaVuSans-30" x="63.623047"/>
      </g>
     </g>
    </g>
    <g id="ytick_4">
     <g id="line2d_52">
      <path d="M 46.965625 228.002688 
L 660.765625 228.002688 
" clip-path="url(#p55021bef23)" style="fill: none; stroke: #b0b0b0; stroke-opacity: 0.4; stroke-width: 0.8; stroke-linecap: square"/>
     </g>
     <g id="line2d_53">
      <g>
       <use xlink:href="#m3222d5f9c5" x="46.965625" y="228.002688" style="stroke: #000000; stroke-width: 0.8"/>
      </g>
     </g>
     <g id="text_34">
      <!-- 60 -->
      <g transform="translate(27.240625 231.801906) scale(0.1 -0.1)">
       <use xlink:href="#DejaVuSans-36"/>
       <use xlink:href="#DejaVuSans-30" x="63.623047"/>
      </g>
     </g>
    </g>
    <g id="ytick_5">
     <g id="line2d_54">
      <path d="M 46.965625 139.298688 
L 660.765625 139.298688 
" clip-path="url(#p55021bef23)" style="fill: none; stroke: #b0b0b0; stroke-opacity: 0.4; stroke-width: 0.8; stroke-linecap: square"/>
     </g>
     <g id="line2d_55">
      <g>
       <use xlink:href="#m3222d5f9c5" x="46.965625" y="139.298688" style="stroke: #000000; stroke-width: 0.8"/>
      </g>
     </g>
     <g id="text_35">
      <!-- 80 -->
      <g transform="translate(27.240625 143.097906) scale(0.1 -0.1)">
       <use xlink:href="#DejaVuSans-38"/>
       <use xlink:href="#DejaVuSans-30" x="63.623047"/>
      </g>
     </g>
    </g>
    <g id="ytick_6">
     <g id="line2d_56">
      <path d="M 46.965625 50.594688 
L 660.765625 50.594688 
" clip-path="url(#p55021bef23)" style="fill: none; stroke: #b0b0b0; stroke-opacity: 0.4; stroke-width: 0.8; stroke-linecap: square"/>
     </g>
     <g id="line2d_57">
      <g>
       <use xlink:href="#m3222d5f9c5" x="46.965625" y="50.594688" style="stroke: #000000; stroke-width: 0.8"/>
      </g>
     </g>
     <g id="text_36">
      <!-- 100 -->
      <g transform="translate(20.878125 54.393906) scale(0.1 -0.1)">
       <use xlink:href="#DejaVuSans-31"/>
       <use xlink:href="#DejaVuSans-30" x="63.623047"/>
       <use xlink:href="#DejaVuSans-30" x="127.246094"/>
      </g>
     </g>
    </g>
    <g id="text_37">
     <!-- Inverse throughput (ns) -->
     <g transform="translate(14.798438 331.570313) rotate(-90) scale(0.1 -0.1)">
      <defs>
       <path id="DejaVuSans-76" d="M 191 3500 
L 800 3500 
L 1894 563 
L 2988 3500 
L 3597 3500 
L 2284 0 
L 1503 0 
L 191 3500 
z
" transform="scale(0.015625)"/>
       <path id="DejaVuSans-6f" d="M 1959 3097 
Q 1497 3097 1228 2736 
Q 959 2375 959 1747 
Q 959 1119 1226 758 
Q 1494 397 1959 397 
Q 2419 397 2687 759 
Q 2956 1122 2956 1747 
Q 2956 2369 2687 2733 
Q 2419 3097 1959 3097 
z
M 1959 3584 
Q 2709 3584 3137 3096 
Q 3566 2609 3566 1747 
Q 3566 888 3137 398 
Q 2709 -91 1959 -91 
Q 1206 -91 779 398 
Q 353 888 353 1747 
Q 353 2609 779 3096 
Q 1206 3584 1959 3584 
z
" transform="scale(0.015625)"/>
      </defs>
      <use xlink:href="#DejaVuSans-49"/>
      <use xlink:href="#DejaVuSans-6e" x="29.492188"/>
      <use xlink:href="#DejaVuSans-76" x="92.871094"/>
      <use xlink:href="#DejaVuSans-65" x="152.050781"/>
      <use xlink:href="#DejaVuSans-72" x="213.574219"/>
      <use xlink:href="#DejaVuSans-73" x="254.6875"/>
      <use xlink:href="#DejaVuSans-65" x="306.787109"/>
      <use xlink:href="#DejaVuSans-20" x="368.310547"/>
      <use xlink:href="#DejaVuSans-74" x="400.097656"/>
      <use xlink:href="#DejaVuSans-68" x="439.306641"/>
      <use xlink:href="#DejaVuSans-72" x="502.685547"/>
      <use xlink:href="#DejaVuSans-6f" x="541.548828"/>
      <use xlink:href="#DejaVuSans-75" x="602.730469"/>
      <use xlink:href="#DejaVuSans-67" x="666.109375"/>
      <use xlink:href="#DejaVuSans-68" x="729.585938"/>
      <use xlink:href="#DejaVuSans-70" x="792.964844"/>
      <use xlink:href="#DejaVuSans-75" x="856.441406"/>
      <use xlink:href="#DejaVuSans-74" x="919.820312"/>
      <use xlink:href="#DejaVuSans-20" x="959.029297"/>
      <use xlink:href="#DejaVuSans-28" x="990.816406"/>
      <use xlink:href="#DejaVuSans-6e" x="1029.830078"/>
      <use xlink:href="#DejaVuSans-73" x="1093.208984"/>
      <use xlink:href="#DejaVuSans-29" x="1145.308594"/>
     </g>
    </g>
   </g>
   <g id="line2d_58">
    <path d="M 74.865625 485.06836 
L 79.717861 481.94442 
L 85.226933 481.90516 
L 89.931602 483.258372 
L 95.451402 481.952418 
L 100.560059 483.360136 
L 105.649504 484.097615 
L 110.626644 485.07356 
L 115.686045 483.904264 
L 120.698375 482.766963 
L 125.76583 479.811588 
L 130.922845 479.851518 
L 136.031502 482.303919 
L 141.120946 477.391421 
L 146.194037 482.318087 
L 151.239539 480.697938 
L 156.310199 481.96343 
L 161.417148 481.176038 
L 166.445497 481.424134 
L 171.546665 480.374016 
L 176.629737 480.8025 
L 181.6974 481.018096 
L 186.765568 480.284248 
L 191.8283 479.288194 
L 196.908515 479.913835 
L 201.968068 479.143263 
L 207.047222 477.766156 
L 212.11362 476.267153 
L 217.179476 478.919931 
L 222.255185 469.644925 
L 227.323046 477.701888 
L 232.393234 477.004202 
L 237.462208 478.296377 
L 242.528364 477.432459 
L 247.601641 477.675758 
L 252.668633 476.118069 
L 257.738739 476.276543 
L 262.807428 476.627853 
L 267.877947 475.90105 
L 272.946884 474.902344 
L 278.01758 475.503914 
L 283.085513 463.084034 
L 288.15542 474.306702 
L 293.225314 475.303315 
L 298.294391 474.236959 
L 303.363392 473.152488 
L 308.432814 472.694936 
L 313.501943 473.96917 
L 318.571219 460.402547 
L 323.640627 471.097224 
L 328.709865 468.76596 
L 333.779336 472.075807 
L 338.848585 457.113258 
L 343.917898 466.649039 
L 348.987197 461.819469 
L 354.05646 469.73562 
L 359.125697 470.809428 
L 364.194971 466.521788 
L 369.26418 461.562928 
L 374.333445 453.638797 
L 379.402696 461.572016 
L 384.471968 452.780243 
L 389.541235 458.296979 
L 394.6105 459.70773 
L 399.679773 455.409915 
L 404.749018 459.208669 
L 409.818299 443.783776 
L 414.887559 457.184823 
L 419.956812 457.091774 
L 425.026073 455.159416 
L 430.095326 447.200392 
L 435.164582 446.520244 
L 440.23384 448.941749 
L 445.303103 447.080664 
L 450.372362 447.42411 
L 455.441618 434.819312 
L 460.510876 432.055451 
L 465.580132 428.956883 
L 470.649389 426.776801 
L 475.718649 420.682852 
L 480.787907 415.121944 
L 485.857165 415.694374 
L 490.926423 412.45447 
L 495.995678 405.937797 
L 501.064936 405.369104 
L 506.134192 402.386721 
L 511.20345 400.091181 
L 516.272707 397.720006 
L 521.341964 393.554434 
L 526.411223 393.816627 
L 531.480481 385.812508 
L 536.549739 386.994634 
L 541.618998 380.98383 
L 546.688254 379.808753 
L 551.757511 375.476718 
L 556.826767 372.879702 
L 561.896024 369.851595 
L 566.965282 366.126325 
L 572.034539 363.172227 
L 577.103797 360.477928 
L 582.173056 357.697469 
L 587.242311 352.936419 
L 592.311567 350.978526 
L 597.380824 348.861653 
L 602.450082 346.13375 
L 607.519338 338.841756 
L 612.588595 337.554302 
L 617.657853 335.027653 
L 622.72711 333.918033 
L 627.796367 330.498731 
L 632.865625 326.285715 
" clip-path="url(#p55021bef23)" style="fill: none; stroke: #ff7f0e; stroke-linecap: square"/>
   </g>
   <g id="line2d_59">
    <path d="M 74.865625 485.666369 
L 79.717861 485.034565 
L 85.226933 482.444544 
L 89.931602 484.246987 
L 95.451402 485.372926 
L 100.560059 484.479979 
L 105.649504 483.087733 
L 110.626644 484.782502 
L 115.686045 483.063084 
L 120.698375 483.105147 
L 125.76583 483.664521 
L 130.922845 480.957636 
L 136.031502 483.018256 
L 141.120946 479.567123 
L 146.194037 482.593075 
L 151.239539 482.419009 
L 156.310199 482.305302 
L 161.417148 478.40426 
L 166.445497 482.699578 
L 171.546665 481.871188 
L 176.629737 482.051252 
L 181.6974 481.370669 
L 186.765568 481.29374 
L 191.8283 480.607696 
L 196.908515 480.794764 
L 201.968068 476.35889 
L 207.047222 479.684164 
L 212.11362 480.417865 
L 217.179476 479.785294 
L 222.255185 474.325273 
L 227.323046 479.289559 
L 232.393234 479.318743 
L 237.462208 472.637238 
L 242.528364 479.668395 
L 247.601641 479.313999 
L 252.668633 479.188837 
L 257.738739 477.988588 
L 262.807428 477.973888 
L 267.877947 470.968182 
L 272.946884 469.68552 
L 278.01758 477.38529 
L 283.085513 469.2795 
L 288.15542 477.715081 
L 293.225314 476.971924 
L 298.294391 477.204636 
L 303.363392 476.010626 
L 308.432814 476.944469 
L 313.501943 476.656704 
L 318.571219 476.023008 
L 323.640627 474.85111 
L 328.709865 475.372429 
L 333.779336 476.065243 
L 338.848585 464.870659 
L 343.917898 464.841923 
L 348.987197 476.577948 
L 354.05646 475.323562 
L 359.125697 475.204149 
L 364.194971 462.672765 
L 369.26418 462.379406 
L 374.333445 472.337225 
L 379.402696 471.704773 
L 384.471968 470.827698 
L 389.541235 472.820343 
L 394.6105 473.04313 
L 399.679773 464.800038 
L 404.749018 472.55994 
L 409.818299 458.904205 
L 414.887559 470.953809 
L 419.956812 470.212509 
L 425.026073 470.679876 
L 430.095326 452.165126 
L 435.164582 455.37843 
L 440.23384 456.296695 
L 445.303103 452.960981 
L 450.372362 454.553852 
L 455.441618 446.88727 
L 460.510876 442.926525 
L 465.580132 441.442214 
L 470.649389 439.834031 
L 475.718649 432.504536 
L 480.787907 432.867966 
L 485.857165 432.131313 
L 490.926423 428.602856 
L 495.995678 429.129215 
L 501.064936 427.71213 
L 506.134192 426.999566 
L 511.20345 423.695993 
L 516.272707 420.8535 
L 521.341964 417.711021 
L 526.411223 402.161714 
L 531.480481 413.548827 
L 536.549739 410.730296 
L 541.618998 404.995238 
L 546.688254 401.854922 
L 551.757511 400.305935 
L 556.826767 397.639246 
L 561.896024 395.353357 
L 566.965282 392.882239 
L 572.034539 387.620861 
L 577.103797 383.446538 
L 582.173056 384.08844 
L 587.242311 378.280097 
L 592.311567 376.830533 
L 597.380824 374.856388 
L 602.450082 371.213846 
L 607.519338 365.814161 
L 612.588595 363.30583 
L 617.657853 360.823222 
L 622.72711 358.183819 
L 627.796367 355.683744 
L 632.865625 348.766915 
" clip-path="url(#p55021bef23)" style="fill: none; stroke: #ff7f0e; stroke-linecap: square"/>
   </g>
   <g id="line2d_60">
    <path d="M 74.865625 486.483752 
L 79.717861 483.480462 
L 85.226933 483.817529 
L 89.931602 485.028603 
L 95.451402 483.441282 
L 100.560059 485.678938 
L 105.649504 483.601263 
L 110.626644 484.815862 
L 115.686045 485.010271 
L 120.698375 484.981398 
L 125.76583 484.122933 
L 130.922845 481.659458 
L 136.031502 485.08498 
L 141.120946 480.202345 
L 146.194037 484.031919 
L 151.239539 483.24145 
L 156.310199 482.655836 
L 161.417148 478.766608 
L 166.445497 482.933391 
L 171.546665 483.349523 
L 176.629737 483.477337 
L 181.6974 482.118038 
L 186.765568 482.962796 
L 191.8283 482.425012 
L 196.908515 482.772917 
L 201.968068 477.413809 
L 207.047222 478.614895 
L 212.11362 481.713148 
L 217.179476 482.339677 
L 222.255185 476.247585 
L 227.323046 480.581712 
L 232.393234 481.111366 
L 237.462208 476.417151 
L 242.528364 480.721487 
L 247.601641 482.08967 
L 252.668633 479.960947 
L 257.738739 480.448406 
L 262.807428 480.440213 
L 267.877947 473.629972 
L 272.946884 479.063057 
L 278.01758 479.072544 
L 283.085513 472.602796 
L 288.15542 478.240563 
L 293.225314 479.814727 
L 298.294391 478.176556 
L 303.363392 471.274047 
L 308.432814 478.159577 
L 313.501943 479.185414 
L 318.571219 478.629715 
L 323.640627 469.601972 
L 328.709865 478.33742 
L 333.779336 478.26077 
L 338.848585 477.168262 
L 343.917898 476.933568 
L 348.987197 477.409393 
L 354.05646 478.309894 
L 359.125697 476.731271 
L 364.194971 476.485813 
L 369.26418 471.186526 
L 374.333445 469.317372 
L 379.402696 473.472633 
L 384.471968 475.032552 
L 389.541235 474.928447 
L 394.6105 474.354723 
L 399.679773 474.821039 
L 404.749018 473.852541 
L 409.818299 473.31986 
L 414.887559 473.37973 
L 419.956812 472.28227 
L 425.026073 471.783281 
L 430.095326 470.420272 
L 435.164582 470.604902 
L 440.23384 470.083139 
L 445.303103 460.418737 
L 450.372362 457.915678 
L 455.441618 452.405504 
L 460.510876 451.938606 
L 465.580132 445.836553 
L 470.649389 443.691304 
L 475.718649 443.796539 
L 480.787907 442.577348 
L 485.857165 442.397426 
L 490.926423 437.217858 
L 495.995678 437.714826 
L 501.064936 433.252721 
L 506.134192 428.199034 
L 511.20345 424.659928 
L 516.272707 421.592889 
L 521.341964 421.958541 
L 526.411223 417.5684 
L 531.480481 414.021926 
L 536.549739 410.91329 
L 541.618998 404.428983 
L 546.688254 404.016335 
L 551.757511 399.902308 
L 556.826767 398.005651 
L 561.896024 395.04645 
L 566.965282 392.936067 
L 572.034539 390.073855 
L 577.103797 386.697865 
L 582.173056 383.924256 
L 587.242311 380.291432 
L 592.311567 377.344068 
L 597.380824 375.020824 
L 602.450082 371.319933 
L 607.519338 366.652872 
L 612.588595 363.357003 
L 617.657853 363.258559 
L 622.72711 360.64795 
L 627.796367 357.89156 
L 632.865625 352.464579 
" clip-path="url(#p55021bef23)" style="fill: none; stroke: #1f77b4; stroke-linecap: square"/>
   </g>
   <g id="line2d_61">
    <path d="M 74.865625 485.252068 
L 79.717861 484.882932 
L 85.226933 483.577466 
L 89.931602 481.96445 
L 95.451402 481.977523 
L 100.560059 484.630336 
L 105.649504 482.160504 
L 110.626644 483.869273 
L 115.686045 479.967043 
L 120.698375 481.786607 
L 125.76583 483.097318 
L 130.922845 479.922986 
L 136.031502 483.342151 
L 141.120946 480.885419 
L 146.194037 483.294134 
L 151.239539 482.222565 
L 156.310199 482.994596 
L 161.417148 479.679584 
L 166.445497 481.661754 
L 171.546665 481.98275 
L 176.629737 482.232686 
L 181.6974 481.539136 
L 186.765568 475.498319 
L 191.8283 480.173533 
L 196.908515 480.069286 
L 201.968068 479.635478 
L 207.047222 479.578259 
L 212.11362 480.665438 
L 217.179476 481.108307 
L 222.255185 473.907057 
L 227.323046 479.207789 
L 232.393234 479.57223 
L 237.462208 479.832286 
L 242.528364 479.77974 
L 247.601641 478.933266 
L 252.668633 479.00672 
L 257.738739 478.920343 
L 262.807428 478.756944 
L 267.877947 470.573178 
L 272.946884 478.668816 
L 278.01758 478.212966 
L 283.085513 469.403479 
L 288.15542 478.369641 
L 293.225314 472.663217 
L 298.294391 477.408019 
L 303.363392 474.539933 
L 308.432814 476.86839 
L 313.501943 477.249523 
L 318.571219 475.801901 
L 323.640627 475.83456 
L 328.709865 476.063837 
L 333.779336 475.829795 
L 338.848585 475.906472 
L 343.917898 475.297845 
L 348.987197 475.632721 
L 354.05646 475.30132 
L 359.125697 475.602579 
L 364.194971 474.296936 
L 369.26418 474.587932 
L 374.333445 462.550581 
L 379.402696 474.223677 
L 384.471968 473.378666 
L 389.541235 472.82784 
L 394.6105 473.044885 
L 399.679773 472.088459 
L 404.749018 473.024971 
L 409.818299 472.567277 
L 414.887559 470.849456 
L 419.956812 462.062688 
L 425.026073 471.409122 
L 430.095326 470.317315 
L 435.164582 468.946352 
L 440.23384 469.450276 
L 445.303103 469.121278 
L 450.372362 467.23045 
L 455.441618 450.555191 
L 460.510876 453.449002 
L 465.580132 449.056113 
L 470.649389 448.559327 
L 475.718649 448.043212 
L 480.787907 444.314782 
L 485.857165 441.529872 
L 490.926423 438.262731 
L 495.995678 439.460413 
L 501.064936 435.408136 
L 506.134192 431.627704 
L 511.20345 427.969398 
L 516.272707 425.121581 
L 521.341964 425.231667 
L 526.411223 418.740621 
L 531.480481 414.750179 
L 536.549739 412.807616 
L 541.618998 411.148406 
L 546.688254 406.695708 
L 551.757511 403.970895 
L 556.826767 402.343418 
L 561.896024 398.215058 
L 566.965282 396.617235 
L 572.034539 392.252386 
L 577.103797 390.133682 
L 582.173056 387.616844 
L 587.242311 383.476014 
L 592.311567 380.76443 
L 597.380824 378.326233 
L 602.450082 371.583505 
L 607.519338 369.38433 
L 612.588595 364.754414 
L 617.657853 363.931827 
L 622.72711 362.024024 
L 627.796367 357.093014 
L 632.865625 352.496298 
" clip-path="url(#p55021bef23)" style="fill: none; stroke: #e377c2; stroke-linecap: square"/>
   </g>
   <g id="line2d_62">
    <path d="M 74.865625 483.224582 
L 79.717861 482.35815 
L 85.226933 479.348233 
L 89.931602 483.659099 
L 95.451402 483.871091 
L 100.560059 484.057365 
L 105.649504 483.7553 
L 110.626644 482.90602 
L 115.686045 476.625433 
L 120.698375 481.902544 
L 125.76583 482.617896 
L 130.922845 476.562756 
L 136.031502 481.941991 
L 141.120946 479.340856 
L 146.194037 480.511579 
L 151.239539 479.294356 
L 156.310199 478.966267 
L 161.417148 478.991457 
L 166.445497 478.973866 
L 171.546665 479.321549 
L 176.629737 479.105071 
L 181.6974 479.236316 
L 186.765568 477.481672 
L 191.8283 477.393983 
L 196.908515 477.230416 
L 201.968068 477.982763 
L 207.047222 476.249452 
L 212.11362 475.356469 
L 217.179476 475.135061 
L 222.255185 464.593898 
L 227.323046 474.661457 
L 232.393234 474.084181 
L 237.462208 461.979007 
L 242.528364 474.878511 
L 247.601641 474.180963 
L 252.668633 472.12232 
L 257.738739 472.623841 
L 262.807428 472.710461 
L 267.877947 471.155605 
L 272.946884 471.147084 
L 278.01758 471.164764 
L 283.085513 471.235203 
L 288.15542 471.222435 
L 293.225314 471.506298 
L 298.294391 470.46921 
L 303.363392 469.18599 
L 308.432814 463.71094 
L 313.501943 469.647634 
L 318.571219 458.159509 
L 323.640627 460.906976 
L 328.709865 459.381844 
L 333.779336 468.596111 
L 338.848585 466.930255 
L 343.917898 459.25947 
L 348.987197 460.398863 
L 354.05646 465.656349 
L 359.125697 461.219797 
L 364.194971 455.796132 
L 369.26418 463.068084 
L 374.333445 451.394735 
L 379.402696 457.642668 
L 384.471968 455.754903 
L 389.541235 455.795636 
L 394.6105 456.044986 
L 399.679773 455.544911 
L 404.749018 450.504209 
L 409.818299 453.992395 
L 414.887559 454.440548 
L 419.956812 453.989868 
L 425.026073 453.574582 
L 430.095326 448.753289 
L 435.164582 450.983772 
L 440.23384 451.133881 
L 445.303103 450.168881 
L 450.372362 446.699838 
L 455.441618 446.390102 
L 460.510876 446.987159 
L 465.580132 442.708398 
L 470.649389 440.909967 
L 475.718649 439.93877 
L 480.787907 437.140689 
L 485.857165 430.162163 
L 490.926423 432.097132 
L 495.995678 430.799956 
L 501.064936 430.236632 
L 506.134192 424.680689 
L 511.20345 422.215964 
L 516.272707 418.597469 
L 521.341964 420.986191 
L 526.411223 415.518265 
L 531.480481 412.16664 
L 536.549739 407.847399 
L 541.618998 405.961275 
L 546.688254 401.379686 
L 551.757511 399.52568 
L 556.826767 396.687612 
L 561.896024 394.9669 
L 566.965282 390.833221 
L 572.034539 387.843373 
L 577.103797 383.955502 
L 582.173056 383.082841 
L 587.242311 378.2613 
L 592.311567 375.981489 
L 597.380824 373.46579 
L 602.450082 370.15531 
L 607.519338 364.063125 
L 612.588595 363.753931 
L 617.657853 359.323084 
L 622.72711 357.948948 
L 627.796367 354.601335 
L 632.865625 349.970679 
" clip-path="url(#p55021bef23)" style="fill: none; stroke: #e377c2; stroke-linecap: square"/>
   </g>
   <g id="line2d_63">
    <path d="M 74.865625 483.210715 
L 79.717861 482.939832 
L 85.226933 483.408817 
L 89.931602 482.357099 
L 95.451402 482.860673 
L 100.560059 479.614429 
L 105.649504 483.627384 
L 110.626644 482.520858 
L 115.686045 477.399578 
L 120.698375 481.554905 
L 125.76583 482.181123 
L 130.922845 481.39851 
L 136.031502 481.194059 
L 141.120946 473.620423 
L 146.194037 480.580675 
L 151.239539 473.823907 
L 156.310199 473.781047 
L 161.417148 478.582337 
L 166.445497 479.9005 
L 171.546665 478.308028 
L 176.629737 479.385197 
L 181.6974 477.170057 
L 186.765568 477.092104 
L 191.8283 476.391252 
L 196.908515 476.551877 
L 201.968068 476.287028 
L 207.047222 475.725344 
L 212.11362 475.875116 
L 217.179476 476.454071 
L 222.255185 473.504233 
L 227.323046 474.276769 
L 232.393234 473.844096 
L 237.462208 462.619602 
L 242.528364 473.308085 
L 247.601641 474.822573 
L 252.668633 472.898642 
L 257.738739 473.322631 
L 262.807428 469.685183 
L 267.877947 463.104582 
L 272.946884 464.180639 
L 278.01758 465.688131 
L 283.085513 458.109055 
L 288.15542 469.296616 
L 293.225314 467.553543 
L 298.294391 469.654607 
L 303.363392 458.475327 
L 308.432814 469.837468 
L 313.501943 462.2714 
L 318.571219 460.405367 
L 323.640627 459.667782 
L 328.709865 448.903469 
L 333.779336 465.738501 
L 338.848585 463.531412 
L 343.917898 458.196332 
L 348.987197 457.244077 
L 354.05646 462.013706 
L 359.125697 453.054881 
L 364.194971 455.702365 
L 369.26418 454.657297 
L 374.333445 455.211608 
L 379.402696 451.335406 
L 384.471968 453.872374 
L 389.541235 454.801643 
L 394.6105 452.590364 
L 399.679773 453.606953 
L 404.749018 453.542025 
L 409.818299 451.564222 
L 414.887559 452.493139 
L 419.956812 450.088835 
L 425.026073 451.559216 
L 430.095326 448.320767 
L 435.164582 447.64276 
L 440.23384 448.470494 
L 445.303103 447.63177 
L 450.372362 446.224078 
L 455.441618 444.04151 
L 460.510876 443.656587 
L 465.580132 439.613132 
L 470.649389 437.221586 
L 475.718649 438.0392 
L 480.787907 428.43864 
L 485.857165 432.845184 
L 490.926423 430.727531 
L 495.995678 429.673902 
L 501.064936 429.451515 
L 506.134192 424.815969 
L 511.20345 420.302412 
L 516.272707 416.623638 
L 521.341964 419.609922 
L 526.411223 415.186478 
L 531.480481 409.002469 
L 536.549739 408.35506 
L 541.618998 397.806028 
L 546.688254 400.973665 
L 551.757511 399.551619 
L 556.826767 395.37402 
L 561.896024 394.312243 
L 566.965282 389.8245 
L 572.034539 388.502095 
L 577.103797 384.881658 
L 582.173056 382.725839 
L 587.242311 378.285904 
L 592.311567 373.19274 
L 597.380824 372.002714 
L 602.450082 369.271154 
L 607.519338 364.210033 
L 612.588595 361.979533 
L 617.657853 359.650845 
L 622.72711 357.394503 
L 627.796367 354.050894 
L 632.865625 350.114904 
" clip-path="url(#p55021bef23)" style="fill: none; stroke: #7f7f7f; stroke-linecap: square"/>
   </g>
   <g id="line2d_64">
    <path d="M 74.865625 482.277448 
L 79.717861 481.97379 
L 85.226933 483.204105 
L 89.931602 484.417542 
L 95.451402 483.828767 
L 100.560059 479.941729 
L 105.649504 479.976725 
L 110.626644 483.801538 
L 115.686045 481.927109 
L 120.698375 481.425819 
L 125.76583 481.627614 
L 130.922845 481.898993 
L 136.031502 476.974668 
L 141.120946 480.171002 
L 146.194037 479.376051 
L 151.239539 473.913746 
L 156.310199 478.528017 
L 161.417148 478.505989 
L 166.445497 477.944979 
L 171.546665 478.992946 
L 176.629737 478.439455 
L 181.6974 479.501923 
L 186.765568 477.792751 
L 191.8283 477.337815 
L 196.908515 476.736999 
L 201.968068 468.396887 
L 207.047222 475.093664 
L 212.11362 475.516061 
L 217.179476 476.033944 
L 222.255185 476.097623 
L 227.323046 474.051256 
L 232.393234 473.829147 
L 237.462208 473.730234 
L 242.528364 474.130801 
L 247.601641 474.096914 
L 252.668633 458.881582 
L 257.738739 471.731311 
L 262.807428 468.970739 
L 267.877947 472.373244 
L 272.946884 471.053455 
L 278.01758 469.249105 
L 283.085513 455.543647 
L 288.15542 470.190037 
L 293.225314 465.100309 
L 298.294391 469.36655 
L 303.363392 466.951668 
L 308.432814 469.356114 
L 313.501943 468.811445 
L 318.571219 462.12572 
L 323.640627 466.059155 
L 328.709865 457.140615 
L 333.779336 466.298886 
L 338.848585 460.43866 
L 343.917898 458.344592 
L 348.987197 455.118431 
L 354.05646 459.914752 
L 359.125697 451.721414 
L 364.194971 455.972104 
L 369.26418 454.090684 
L 374.333445 453.399683 
L 379.402696 449.880828 
L 384.471968 453.712482 
L 389.541235 450.553959 
L 394.6105 453.055045 
L 399.679773 442.791818 
L 404.749018 454.507401 
L 409.818299 451.671399 
L 414.887559 452.329824 
L 419.956812 449.520754 
L 425.026073 452.242109 
L 430.095326 449.772897 
L 435.164582 447.20256 
L 440.23384 449.994731 
L 445.303103 444.507839 
L 450.372362 448.533473 
L 455.441618 445.638588 
L 460.510876 444.321817 
L 465.580132 440.110011 
L 470.649389 435.627004 
L 475.718649 438.003712 
L 480.787907 435.513855 
L 485.857165 434.68847 
L 490.926423 430.976305 
L 495.995678 430.853403 
L 501.064936 427.75757 
L 506.134192 422.823753 
L 511.20345 420.351705 
L 516.272707 416.005852 
L 521.341964 419.562929 
L 526.411223 413.969136 
L 531.480481 409.687635 
L 536.549739 402.828345 
L 541.618998 404.496541 
L 546.688254 400.513183 
L 551.757511 398.092786 
L 556.826767 397.149757 
L 561.896024 392.832622 
L 566.965282 388.541147 
L 572.034539 387.589903 
L 577.103797 383.074023 
L 582.173056 379.768739 
L 587.242311 377.540384 
L 592.311567 374.321844 
L 597.380824 371.616041 
L 602.450082 366.552473 
L 607.519338 363.373876 
L 612.588595 360.63055 
L 617.657853 359.808991 
L 622.72711 357.372679 
L 627.796367 352.982471 
L 632.865625 349.631977 
" clip-path="url(#p55021bef23)" style="fill: none; stroke: #2ca02c; stroke-linecap: square"/>
   </g>
   <g id="line2d_65"/>
   <g id="line2d_66"/>
   <g id="line2d_67"/>
   <g id="line2d_68"/>
   <g id="line2d_69"/>
   <g id="line2d_70"/>
   <g id="line2d_71"/>
   <g id="line2d_72"/>
   <g id="patch_5">
    <path d="M 46.965625 494.114688 
L 46.965625 50.594688 
" style="fill: none; stroke: #000000; stroke-width: 0.8; stroke-linejoin: miter; stroke-linecap: square"/>
   </g>
   <g id="patch_6">
    <path d="M 660.765625 494.114688 
L 660.765625 50.594688 
" style="fill: none; stroke: #000000; stroke-width: 0.8; stroke-linejoin: miter; stroke-linecap: square"/>
   </g>
   <g id="patch_7">
    <path d="M 46.965625 494.114688 
L 660.765625 494.114688 
" style="fill: none; stroke: #000000; stroke-width: 0.8; stroke-linejoin: miter; stroke-linecap: square"/>
   </g>
   <g id="patch_8">
    <path d="M 46.965625 50.594688 
L 660.765625 50.594688 
" style="fill: none; stroke: #000000; stroke-width: 0.8; stroke-linejoin: miter; stroke-linecap: square"/>
   </g>
   <g id="text_38">
    <!-- L1  -->
    <g style="fill: #ff0000" transform="translate(278.865447 492.035) scale(0.1 -0.1)">
     <defs>
      <path id="DejaVuSans-4c" d="M 628 4666 
L 1259 4666 
L 1259 531 
L 3531 531 
L 3531 0 
L 628 0 
L 628 4666 
z
" transform="scale(0.015625)"/>
     </defs>
     <use xlink:href="#DejaVuSans-4c"/>
     <use xlink:href="#DejaVuSans-31" x="55.712891"/>
     <use xlink:href="#DejaVuSans-20" x="119.335938"/>
    </g>
   </g>
   <g id="text_39">
    <!-- L2  -->
    <g style="fill: #ff0000" transform="translate(368.385401 492.035) scale(0.1 -0.1)">
     <use xlink:href="#DejaVuSans-4c"/>
     <use xlink:href="#DejaVuSans-32" x="55.712891"/>
     <use xlink:href="#DejaVuSans-20" x="119.335938"/>
    </g>
   </g>
   <g id="text_40">
    <!-- L3  -->
    <g style="fill: #ff0000" transform="translate(435.525367 492.035) scale(0.1 -0.1)">
     <use xlink:href="#DejaVuSans-4c"/>
     <use xlink:href="#DejaVuSans-33" x="55.712891"/>
     <use xlink:href="#DejaVuSans-20" x="119.335938"/>
    </g>
   </g>
   <g id="text_41">
    <!-- RAM -->
    <g style="fill: #ff0000" transform="translate(610.848438 492.035) scale(0.1 -0.1)">
     <defs>
      <path id="DejaVuSans-52" d="M 2841 2188 
Q 3044 2119 3236 1894 
Q 3428 1669 3622 1275 
L 4263 0 
L 3584 0 
L 2988 1197 
Q 2756 1666 2539 1819 
Q 2322 1972 1947 1972 
L 1259 1972 
L 1259 0 
L 628 0 
L 628 4666 
L 2053 4666 
Q 2853 4666 3247 4331 
Q 3641 3997 3641 3322 
Q 3641 2881 3436 2590 
Q 3231 2300 2841 2188 
z
M 1259 4147 
L 1259 2491 
L 2053 2491 
Q 2509 2491 2742 2702 
Q 2975 2913 2975 3322 
Q 2975 3731 2742 3939 
Q 2509 4147 2053 4147 
L 1259 4147 
z
" transform="scale(0.015625)"/>
      <path id="DejaVuSans-4d" d="M 628 4666 
L 1569 4666 
L 2759 1491 
L 3956 4666 
L 4897 4666 
L 4897 0 
L 4281 0 
L 4281 4097 
L 3078 897 
L 2444 897 
L 1241 4097 
L 1241 0 
L 628 0 
L 628 4666 
z
" transform="scale(0.015625)"/>
     </defs>
     <use xlink:href="#DejaVuSans-52"/>
     <use xlink:href="#DejaVuSans-41" x="65.482422"/>
     <use xlink:href="#DejaVuSans-4d" x="133.890625"/>
    </g>
   </g>
   <g id="text_42">
    <!-- Eytzinger layout with batching -->
    <g transform="translate(262.196875 16.318125) scale(0.12 -0.12)">
     <defs>
      <path id="DejaVuSans-45" d="M 628 4666 
L 3578 4666 
L 3578 4134 
L 1259 4134 
L 1259 2753 
L 3481 2753 
L 3481 2222 
L 1259 2222 
L 1259 531 
L 3634 531 
L 3634 0 
L 628 0 
L 628 4666 
z
" transform="scale(0.015625)"/>
      <path id="DejaVuSans-77" d="M 269 3500 
L 844 3500 
L 1563 769 
L 2278 3500 
L 2956 3500 
L 3675 769 
L 4391 3500 
L 4966 3500 
L 4050 0 
L 3372 0 
L 2619 2869 
L 1863 0 
L 1184 0 
L 269 3500 
z
" transform="scale(0.015625)"/>
      <path id="DejaVuSans-63" d="M 3122 3366 
L 3122 2828 
Q 2878 2963 2633 3030 
Q 2388 3097 2138 3097 
Q 1578 3097 1268 2742 
Q 959 2388 959 1747 
Q 959 1106 1268 751 
Q 1578 397 2138 397 
Q 2388 397 2633 464 
Q 2878 531 3122 666 
L 3122 134 
Q 2881 22 2623 -34 
Q 2366 -91 2075 -91 
Q 1284 -91 818 406 
Q 353 903 353 1747 
Q 353 2603 823 3093 
Q 1294 3584 2113 3584 
Q 2378 3584 2631 3529 
Q 2884 3475 3122 3366 
z
" transform="scale(0.015625)"/>
     </defs>
     <use xlink:href="#DejaVuSans-45"/>
     <use xlink:href="#DejaVuSans-79" x="63.183594"/>
     <use xlink:href="#DejaVuSans-74" x="122.363281"/>
     <use xlink:href="#DejaVuSans-7a" x="161.572266"/>
     <use xlink:href="#DejaVuSans-69" x="214.0625"/>
     <use xlink:href="#DejaVuSans-6e" x="241.845703"/>
     <use xlink:href="#DejaVuSans-67" x="305.224609"/>
     <use xlink:href="#DejaVuSans-65" x="368.701172"/>
     <use xlink:href="#DejaVuSans-72" x="430.224609"/>
     <use xlink:href="#DejaVuSans-20" x="471.337891"/>
     <use xlink:href="#DejaVuSans-6c" x="503.125"/>
     <use xlink:href="#DejaVuSans-61" x="530.908203"/>
     <use xlink:href="#DejaVuSans-79" x="592.1875"/>
     <use xlink:href="#DejaVuSans-6f" x="651.367188"/>
     <use xlink:href="#DejaVuSans-75" x="712.548828"/>
     <use xlink:href="#DejaVuSans-74" x="775.927734"/>
     <use xlink:href="#DejaVuSans-20" x="815.136719"/>
     <use xlink:href="#DejaVuSans-77" x="846.923828"/>
     <use xlink:href="#DejaVuSans-69" x="928.710938"/>
     <use xlink:href="#DejaVuSans-74" x="956.494141"/>
     <use xlink:href="#DejaVuSans-68" x="995.703125"/>
     <use xlink:href="#DejaVuSans-20" x="1059.082031"/>
     <use xlink:href="#DejaVuSans-62" x="1090.869141"/>
     <use xlink:href="#DejaVuSans-61" x="1154.345703"/>
     <use xlink:href="#DejaVuSans-74" x="1215.625"/>
     <use xlink:href="#DejaVuSans-63" x="1254.833984"/>
     <use xlink:href="#DejaVuSans-68" x="1309.814453"/>
     <use xlink:href="#DejaVuSans-69" x="1373.193359"/>
     <use xlink:href="#DejaVuSans-6e" x="1400.976562"/>
     <use xlink:href="#DejaVuSans-67" x="1464.355469"/>
    </g>
   </g>
   <g id="legend_1">
    <g id="patch_9">
     <path d="M 53.965625 163.288438 
L 439.365625 163.288438 
Q 441.365625 163.288438 441.365625 161.288438 
L 441.365625 57.594688 
Q 441.365625 55.594688 439.365625 55.594688 
L 53.965625 55.594688 
Q 51.965625 55.594688 51.965625 57.594688 
L 51.965625 161.288438 
Q 51.965625 163.288438 53.965625 163.288438 
L 53.965625 163.288438 
z
" style="fill: none; opacity: 0"/>
    </g>
    <g id="line2d_73">
     <path d="M 55.965625 63.693125 
L 65.965625 63.693125 
L 75.965625 63.693125 
" style="fill: none; stroke: #ff7f0e; stroke-width: 1.5; stroke-linecap: square"/>
    </g>
    <g id="text_43">
     <!-- Batched&lt;2, Eytzinger, Eytzinger::batch_impl_prefetched&lt;2, 4&gt;&gt; -->
     <g transform="translate(83.965625 67.193125) scale(0.1 -0.1)">
      <defs>
       <path id="DejaVuSans-42" d="M 1259 2228 
L 1259 519 
L 2272 519 
Q 2781 519 3026 730 
Q 3272 941 3272 1375 
Q 3272 1813 3026 2020 
Q 2781 2228 2272 2228 
L 1259 2228 
z
M 1259 4147 
L 1259 2741 
L 2194 2741 
Q 2656 2741 2882 2914 
Q 3109 3088 3109 3444 
Q 3109 3797 2882 3972 
Q 2656 4147 2194 4147 
L 1259 4147 
z
M 628 4666 
L 2241 4666 
Q 2963 4666 3353 4366 
Q 3744 4066 3744 3513 
Q 3744 3084 3544 2831 
Q 3344 2578 2956 2516 
Q 3422 2416 3680 2098 
Q 3938 1781 3938 1306 
Q 3938 681 3513 340 
Q 3088 0 2303 0 
L 628 0 
L 628 4666 
z
" transform="scale(0.015625)"/>
       <path id="DejaVuSans-64" d="M 2906 2969 
L 2906 4863 
L 3481 4863 
L 3481 0 
L 2906 0 
L 2906 525 
Q 2725 213 2448 61 
Q 2172 -91 1784 -91 
Q 1150 -91 751 415 
Q 353 922 353 1747 
Q 353 2572 751 3078 
Q 1150 3584 1784 3584 
Q 2172 3584 2448 3432 
Q 2725 3281 2906 2969 
z
M 947 1747 
Q 947 1113 1208 752 
Q 1469 391 1925 391 
Q 2381 391 2643 752 
Q 2906 1113 2906 1747 
Q 2906 2381 2643 2742 
Q 2381 3103 1925 3103 
Q 1469 3103 1208 2742 
Q 947 2381 947 1747 
z
" transform="scale(0.015625)"/>
       <path id="DejaVuSans-3c" d="M 4684 3150 
L 1459 2003 
L 4684 863 
L 4684 294 
L 678 1747 
L 678 2266 
L 4684 3719 
L 4684 3150 
z
" transform="scale(0.015625)"/>
       <path id="DejaVuSans-2c" d="M 750 794 
L 1409 794 
L 1409 256 
L 897 -744 
L 494 -744 
L 750 256 
L 750 794 
z
" transform="scale(0.015625)"/>
       <path id="DejaVuSans-3a" d="M 750 794 
L 1409 794 
L 1409 0 
L 750 0 
L 750 794 
z
M 750 3309 
L 1409 3309 
L 1409 2516 
L 750 2516 
L 750 3309 
z
" transform="scale(0.015625)"/>
       <path id="DejaVuSans-5f" d="M 3263 -1063 
L 3263 -1509 
L -63 -1509 
L -63 -1063 
L 3263 -1063 
z
" transform="scale(0.015625)"/>
       <path id="DejaVuSans-6d" d="M 3328 2828 
Q 3544 3216 3844 3400 
Q 4144 3584 4550 3584 
Q 5097 3584 5394 3201 
Q 5691 2819 5691 2113 
L 5691 0 
L 5113 0 
L 5113 2094 
Q 5113 2597 4934 2840 
Q 4756 3084 4391 3084 
Q 3944 3084 3684 2787 
Q 3425 2491 3425 1978 
L 3425 0 
L 2847 0 
L 2847 2094 
Q 2847 2600 2669 2842 
Q 2491 3084 2119 3084 
Q 1678 3084 1418 2786 
Q 1159 2488 1159 1978 
L 1159 0 
L 581 0 
L 581 3500 
L 1159 3500 
L 1159 2956 
Q 1356 3278 1631 3431 
Q 1906 3584 2284 3584 
Q 2666 3584 2933 3390 
Q 3200 3197 3328 2828 
z
" transform="scale(0.015625)"/>
       <path id="DejaVuSans-66" d="M 2375 4863 
L 2375 4384 
L 1825 4384 
Q 1516 4384 1395 4259 
Q 1275 4134 1275 3809 
L 1275 3500 
L 2222 3500 
L 2222 3053 
L 1275 3053 
L 1275 0 
L 697 0 
L 697 3053 
L 147 3053 
L 147 3500 
L 697 3500 
L 697 3744 
Q 697 4328 969 4595 
Q 1241 4863 1831 4863 
L 2375 4863 
z
" transform="scale(0.015625)"/>
       <path id="DejaVuSans-3e" d="M 678 3150 
L 678 3719 
L 4684 2266 
L 4684 1747 
L 678 294 
L 678 863 
L 3897 2003 
L 678 3150 
z
" transform="scale(0.015625)"/>
      </defs>
      <use xlink:href="#DejaVuSans-42"/>
      <use xlink:href="#DejaVuSans-61" x="68.603516"/>
      <use xlink:href="#DejaVuSans-74" x="129.882812"/>
      <use xlink:href="#DejaVuSans-63" x="169.091797"/>
      <use xlink:href="#DejaVuSans-68" x="224.072266"/>
      <use xlink:href="#DejaVuSans-65" x="287.451172"/>
      <use xlink:href="#DejaVuSans-64" x="348.974609"/>
      <use xlink:href="#DejaVuSans-3c" x="412.451172"/>
      <use xlink:href="#DejaVuSans-32" x="496.240234"/>
      <use xlink:href="#DejaVuSans-2c" x="559.863281"/>
      <use xlink:href="#DejaVuSans-20" x="591.650391"/>
      <use xlink:href="#DejaVuSans-45" x="623.4375"/>
      <use xlink:href="#DejaVuSans-79" x="686.621094"/>
      <use xlink:href="#DejaVuSans-74" x="745.800781"/>
      <use xlink:href="#DejaVuSans-7a" x="785.009766"/>
      <use xlink:href="#DejaVuSans-69" x="837.5"/>
      <use xlink:href="#DejaVuSans-6e" x="865.283203"/>
      <use xlink:href="#DejaVuSans-67" x="928.662109"/>
      <use xlink:href="#DejaVuSans-65" x="992.138672"/>
      <use xlink:href="#DejaVuSans-72" x="1053.662109"/>
      <use xlink:href="#DejaVuSans-2c" x="1094.775391"/>
      <use xlink:href="#DejaVuSans-20" x="1126.5625"/>
      <use xlink:href="#DejaVuSans-45" x="1158.349609"/>
      <use xlink:href="#DejaVuSans-79" x="1221.533203"/>
      <use xlink:href="#DejaVuSans-74" x="1280.712891"/>
      <use xlink:href="#DejaVuSans-7a" x="1319.921875"/>
      <use xlink:href="#DejaVuSans-69" x="1372.412109"/>
      <use xlink:href="#DejaVuSans-6e" x="1400.195312"/>
      <use xlink:href="#DejaVuSans-67" x="1463.574219"/>
      <use xlink:href="#DejaVuSans-65" x="1527.050781"/>
      <use xlink:href="#DejaVuSans-72" x="1588.574219"/>
      <use xlink:href="#DejaVuSans-3a" x="1627.9375"/>
      <use xlink:href="#DejaVuSans-3a" x="1661.628906"/>
      <use xlink:href="#DejaVuSans-62" x="1695.320312"/>
      <use xlink:href="#DejaVuSans-61" x="1758.796875"/>
      <use xlink:href="#DejaVuSans-74" x="1820.076172"/>
      <use xlink:href="#DejaVuSans-63" x="1859.285156"/>
      <use xlink:href="#DejaVuSans-68" x="1914.265625"/>
      <use xlink:href="#DejaVuSans-5f" x="1977.644531"/>
      <use xlink:href="#DejaVuSans-69" x="2027.644531"/>
      <use xlink:href="#DejaVuSans-6d" x="2055.427734"/>
      <use xlink:href="#DejaVuSans-70" x="2152.839844"/>
      <use xlink:href="#DejaVuSans-6c" x="2216.316406"/>
      <use xlink:href="#DejaVuSans-5f" x="2244.099609"/>
      <use xlink:href="#DejaVuSans-70" x="2294.099609"/>
      <use xlink:href="#DejaVuSans-72" x="2357.576172"/>
      <use xlink:href="#DejaVuSans-65" x="2396.439453"/>
      <use xlink:href="#DejaVuSans-66" x="2457.962891"/>
      <use xlink:href="#DejaVuSans-65" x="2493.167969"/>
      <use xlink:href="#DejaVuSans-74" x="2554.691406"/>
      <use xlink:href="#DejaVuSans-63" x="2593.900391"/>
      <use xlink:href="#DejaVuSans-68" x="2648.880859"/>
      <use xlink:href="#DejaVuSans-65" x="2712.259766"/>
      <use xlink:href="#DejaVuSans-64" x="2773.783203"/>
      <use xlink:href="#DejaVuSans-3c" x="2837.259766"/>
      <use xlink:href="#DejaVuSans-32" x="2921.048828"/>
      <use xlink:href="#DejaVuSans-2c" x="2984.671875"/>
      <use xlink:href="#DejaVuSans-20" x="3016.458984"/>
      <use xlink:href="#DejaVuSans-34" x="3048.246094"/>
      <use xlink:href="#DejaVuSans-3e" x="3111.869141"/>
      <use xlink:href="#DejaVuSans-3e" x="3195.658203"/>
     </g>
    </g>
    <g id="line2d_74">
     <path d="M 55.965625 78.649375 
L 65.965625 78.649375 
L 75.965625 78.649375 
" style="fill: none; stroke: #ff7f0e; stroke-width: 1.5; stroke-linecap: square"/>
    </g>
    <g id="text_44">
     <!-- Batched&lt;4, Eytzinger, Eytzinger::batch_impl_prefetched&lt;4, 4&gt;&gt; -->
     <g transform="translate(83.965625 82.149375) scale(0.1 -0.1)">
      <use xlink:href="#DejaVuSans-42"/>
      <use xlink:href="#DejaVuSans-61" x="68.603516"/>
      <use xlink:href="#DejaVuSans-74" x="129.882812"/>
      <use xlink:href="#DejaVuSans-63" x="169.091797"/>
      <use xlink:href="#DejaVuSans-68" x="224.072266"/>
      <use xlink:href="#DejaVuSans-65" x="287.451172"/>
      <use xlink:href="#DejaVuSans-64" x="348.974609"/>
      <use xlink:href="#DejaVuSans-3c" x="412.451172"/>
      <use xlink:href="#DejaVuSans-34" x="496.240234"/>
      <use xlink:href="#DejaVuSans-2c" x="559.863281"/>
      <use xlink:href="#DejaVuSans-20" x="591.650391"/>
      <use xlink:href="#DejaVuSans-45" x="623.4375"/>
      <use xlink:href="#DejaVuSans-79" x="686.621094"/>
      <use xlink:href="#DejaVuSans-74" x="745.800781"/>
      <use xlink:href="#DejaVuSans-7a" x="785.009766"/>
      <use xlink:href="#DejaVuSans-69" x="837.5"/>
      <use xlink:href="#DejaVuSans-6e" x="865.283203"/>
      <use xlink:href="#DejaVuSans-67" x="928.662109"/>
      <use xlink:href="#DejaVuSans-65" x="992.138672"/>
      <use xlink:href="#DejaVuSans-72" x="1053.662109"/>
      <use xlink:href="#DejaVuSans-2c" x="1094.775391"/>
      <use xlink:href="#DejaVuSans-20" x="1126.5625"/>
      <use xlink:href="#DejaVuSans-45" x="1158.349609"/>
      <use xlink:href="#DejaVuSans-79" x="1221.533203"/>
      <use xlink:href="#DejaVuSans-74" x="1280.712891"/>
      <use xlink:href="#DejaVuSans-7a" x="1319.921875"/>
      <use xlink:href="#DejaVuSans-69" x="1372.412109"/>
      <use xlink:href="#DejaVuSans-6e" x="1400.195312"/>
      <use xlink:href="#DejaVuSans-67" x="1463.574219"/>
      <use xlink:href="#DejaVuSans-65" x="1527.050781"/>
      <use xlink:href="#DejaVuSans-72" x="1588.574219"/>
      <use xlink:href="#DejaVuSans-3a" x="1627.9375"/>
      <use xlink:href="#DejaVuSans-3a" x="1661.628906"/>
      <use xlink:href="#DejaVuSans-62" x="1695.320312"/>
      <use xlink:href="#DejaVuSans-61" x="1758.796875"/>
      <use xlink:href="#DejaVuSans-74" x="1820.076172"/>
      <use xlink:href="#DejaVuSans-63" x="1859.285156"/>
      <use xlink:href="#DejaVuSans-68" x="1914.265625"/>
      <use xlink:href="#DejaVuSans-5f" x="1977.644531"/>
      <use xlink:href="#DejaVuSans-69" x="2027.644531"/>
      <use xlink:href="#DejaVuSans-6d" x="2055.427734"/>
      <use xlink:href="#DejaVuSans-70" x="2152.839844"/>
      <use xlink:href="#DejaVuSans-6c" x="2216.316406"/>
      <use xlink:href="#DejaVuSans-5f" x="2244.099609"/>
      <use xlink:href="#DejaVuSans-70" x="2294.099609"/>
      <use xlink:href="#DejaVuSans-72" x="2357.576172"/>
      <use xlink:href="#DejaVuSans-65" x="2396.439453"/>
      <use xlink:href="#DejaVuSans-66" x="2457.962891"/>
      <use xlink:href="#DejaVuSans-65" x="2493.167969"/>
      <use xlink:href="#DejaVuSans-74" x="2554.691406"/>
      <use xlink:href="#DejaVuSans-63" x="2593.900391"/>
      <use xlink:href="#DejaVuSans-68" x="2648.880859"/>
      <use xlink:href="#DejaVuSans-65" x="2712.259766"/>
      <use xlink:href="#DejaVuSans-64" x="2773.783203"/>
      <use xlink:href="#DejaVuSans-3c" x="2837.259766"/>
      <use xlink:href="#DejaVuSans-34" x="2921.048828"/>
      <use xlink:href="#DejaVuSans-2c" x="2984.671875"/>
      <use xlink:href="#DejaVuSans-20" x="3016.458984"/>
      <use xlink:href="#DejaVuSans-34" x="3048.246094"/>
      <use xlink:href="#DejaVuSans-3e" x="3111.869141"/>
      <use xlink:href="#DejaVuSans-3e" x="3195.658203"/>
     </g>
    </g>
    <g id="line2d_75">
     <path d="M 55.965625 93.605625 
L 65.965625 93.605625 
L 75.965625 93.605625 
" style="fill: none; stroke: #1f77b4; stroke-width: 1.5; stroke-linecap: square"/>
    </g>
    <g id="text_45">
     <!-- Batched&lt;8, Eytzinger, Eytzinger::batch_impl_prefetched&lt;8, 4&gt;&gt; -->
     <g transform="translate(83.965625 97.105625) scale(0.1 -0.1)">
      <use xlink:href="#DejaVuSans-42"/>
      <use xlink:href="#DejaVuSans-61" x="68.603516"/>
      <use xlink:href="#DejaVuSans-74" x="129.882812"/>
      <use xlink:href="#DejaVuSans-63" x="169.091797"/>
      <use xlink:href="#DejaVuSans-68" x="224.072266"/>
      <use xlink:href="#DejaVuSans-65" x="287.451172"/>
      <use xlink:href="#DejaVuSans-64" x="348.974609"/>
      <use xlink:href="#DejaVuSans-3c" x="412.451172"/>
      <use xlink:href="#DejaVuSans-38" x="496.240234"/>
      <use xlink:href="#DejaVuSans-2c" x="559.863281"/>
      <use xlink:href="#DejaVuSans-20" x="591.650391"/>
      <use xlink:href="#DejaVuSans-45" x="623.4375"/>
      <use xlink:href="#DejaVuSans-79" x="686.621094"/>
      <use xlink:href="#DejaVuSans-74" x="745.800781"/>
      <use xlink:href="#DejaVuSans-7a" x="785.009766"/>
      <use xlink:href="#DejaVuSans-69" x="837.5"/>
      <use xlink:href="#DejaVuSans-6e" x="865.283203"/>
      <use xlink:href="#DejaVuSans-67" x="928.662109"/>
      <use xlink:href="#DejaVuSans-65" x="992.138672"/>
      <use xlink:href="#DejaVuSans-72" x="1053.662109"/>
      <use xlink:href="#DejaVuSans-2c" x="1094.775391"/>
      <use xlink:href="#DejaVuSans-20" x="1126.5625"/>
      <use xlink:href="#DejaVuSans-45" x="1158.349609"/>
      <use xlink:href="#DejaVuSans-79" x="1221.533203"/>
      <use xlink:href="#DejaVuSans-74" x="1280.712891"/>
      <use xlink:href="#DejaVuSans-7a" x="1319.921875"/>
      <use xlink:href="#DejaVuSans-69" x="1372.412109"/>
      <use xlink:href="#DejaVuSans-6e" x="1400.195312"/>
      <use xlink:href="#DejaVuSans-67" x="1463.574219"/>
      <use xlink:href="#DejaVuSans-65" x="1527.050781"/>
      <use xlink:href="#DejaVuSans-72" x="1588.574219"/>
      <use xlink:href="#DejaVuSans-3a" x="1627.9375"/>
      <use xlink:href="#DejaVuSans-3a" x="1661.628906"/>
      <use xlink:href="#DejaVuSans-62" x="1695.320312"/>
      <use xlink:href="#DejaVuSans-61" x="1758.796875"/>
      <use xlink:href="#DejaVuSans-74" x="1820.076172"/>
      <use xlink:href="#DejaVuSans-63" x="1859.285156"/>
      <use xlink:href="#DejaVuSans-68" x="1914.265625"/>
      <use xlink:href="#DejaVuSans-5f" x="1977.644531"/>
      <use xlink:href="#DejaVuSans-69" x="2027.644531"/>
      <use xlink:href="#DejaVuSans-6d" x="2055.427734"/>
      <use xlink:href="#DejaVuSans-70" x="2152.839844"/>
      <use xlink:href="#DejaVuSans-6c" x="2216.316406"/>
      <use xlink:href="#DejaVuSans-5f" x="2244.099609"/>
      <use xlink:href="#DejaVuSans-70" x="2294.099609"/>
      <use xlink:href="#DejaVuSans-72" x="2357.576172"/>
      <use xlink:href="#DejaVuSans-65" x="2396.439453"/>
      <use xlink:href="#DejaVuSans-66" x="2457.962891"/>
      <use xlink:href="#DejaVuSans-65" x="2493.167969"/>
      <use xlink:href="#DejaVuSans-74" x="2554.691406"/>
      <use xlink:href="#DejaVuSans-63" x="2593.900391"/>
      <use xlink:href="#DejaVuSans-68" x="2648.880859"/>
      <use xlink:href="#DejaVuSans-65" x="2712.259766"/>
      <use xlink:href="#DejaVuSans-64" x="2773.783203"/>
      <use xlink:href="#DejaVuSans-3c" x="2837.259766"/>
      <use xlink:href="#DejaVuSans-38" x="2921.048828"/>
      <use xlink:href="#DejaVuSans-2c" x="2984.671875"/>
      <use xlink:href="#DejaVuSans-20" x="3016.458984"/>
      <use xlink:href="#DejaVuSans-34" x="3048.246094"/>
      <use xlink:href="#DejaVuSans-3e" x="3111.869141"/>
      <use xlink:href="#DejaVuSans-3e" x="3195.658203"/>
     </g>
    </g>
    <g id="line2d_76">
     <path d="M 55.965625 108.561875 
L 65.965625 108.561875 
L 75.965625 108.561875 
" style="fill: none; stroke: #e377c2; stroke-width: 1.5; stroke-linecap: square"/>
    </g>
    <g id="text_46">
     <!-- Batched&lt;16, Eytzinger, Eytzinger::batch_impl_prefetched&lt;16, 4&gt;&gt; -->
     <g transform="translate(83.965625 112.061875) scale(0.1 -0.1)">
      <use xlink:href="#DejaVuSans-42"/>
      <use xlink:href="#DejaVuSans-61" x="68.603516"/>
      <use xlink:href="#DejaVuSans-74" x="129.882812"/>
      <use xlink:href="#DejaVuSans-63" x="169.091797"/>
      <use xlink:href="#DejaVuSans-68" x="224.072266"/>
      <use xlink:href="#DejaVuSans-65" x="287.451172"/>
      <use xlink:href="#DejaVuSans-64" x="348.974609"/>
      <use xlink:href="#DejaVuSans-3c" x="412.451172"/>
      <use xlink:href="#DejaVuSans-31" x="496.240234"/>
      <use xlink:href="#DejaVuSans-36" x="559.863281"/>
      <use xlink:href="#DejaVuSans-2c" x="623.486328"/>
      <use xlink:href="#DejaVuSans-20" x="655.273438"/>
      <use xlink:href="#DejaVuSans-45" x="687.060547"/>
      <use xlink:href="#DejaVuSans-79" x="750.244141"/>
      <use xlink:href="#DejaVuSans-74" x="809.423828"/>
      <use xlink:href="#DejaVuSans-7a" x="848.632812"/>
      <use xlink:href="#DejaVuSans-69" x="901.123047"/>
      <use xlink:href="#DejaVuSans-6e" x="928.90625"/>
      <use xlink:href="#DejaVuSans-67" x="992.285156"/>
      <use xlink:href="#DejaVuSans-65" x="1055.761719"/>
      <use xlink:href="#DejaVuSans-72" x="1117.285156"/>
      <use xlink:href="#DejaVuSans-2c" x="1158.398438"/>
      <use xlink:href="#DejaVuSans-20" x="1190.185547"/>
      <use xlink:href="#DejaVuSans-45" x="1221.972656"/>
      <use xlink:href="#DejaVuSans-79" x="1285.15625"/>
      <use xlink:href="#DejaVuSans-74" x="1344.335938"/>
      <use xlink:href="#DejaVuSans-7a" x="1383.544922"/>
      <use xlink:href="#DejaVuSans-69" x="1436.035156"/>
      <use xlink:href="#DejaVuSans-6e" x="1463.818359"/>
      <use xlink:href="#DejaVuSans-67" x="1527.197266"/>
      <use xlink:href="#DejaVuSans-65" x="1590.673828"/>
      <use xlink:href="#DejaVuSans-72" x="1652.197266"/>
      <use xlink:href="#DejaVuSans-3a" x="1691.560547"/>
      <use xlink:href="#DejaVuSans-3a" x="1725.251953"/>
      <use xlink:href="#DejaVuSans-62" x="1758.943359"/>
      <use xlink:href="#DejaVuSans-61" x="1822.419922"/>
      <use xlink:href="#DejaVuSans-74" x="1883.699219"/>
      <use xlink:href="#DejaVuSans-63" x="1922.908203"/>
      <use xlink:href="#DejaVuSans-68" x="1977.888672"/>
      <use xlink:href="#DejaVuSans-5f" x="2041.267578"/>
      <use xlink:href="#DejaVuSans-69" x="2091.267578"/>
      <use xlink:href="#DejaVuSans-6d" x="2119.050781"/>
      <use xlink:href="#DejaVuSans-70" x="2216.462891"/>
      <use xlink:href="#DejaVuSans-6c" x="2279.939453"/>
      <use xlink:href="#DejaVuSans-5f" x="2307.722656"/>
      <use xlink:href="#DejaVuSans-70" x="2357.722656"/>
      <use xlink:href="#DejaVuSans-72" x="2421.199219"/>
      <use xlink:href="#DejaVuSans-65" x="2460.0625"/>
      <use xlink:href="#DejaVuSans-66" x="2521.585938"/>
      <use xlink:href="#DejaVuSans-65" x="2556.791016"/>
      <use xlink:href="#DejaVuSans-74" x="2618.314453"/>
      <use xlink:href="#DejaVuSans-63" x="2657.523438"/>
      <use xlink:href="#DejaVuSans-68" x="2712.503906"/>
      <use xlink:href="#DejaVuSans-65" x="2775.882812"/>
      <use xlink:href="#DejaVuSans-64" x="2837.40625"/>
      <use xlink:href="#DejaVuSans-3c" x="2900.882812"/>
      <use xlink:href="#DejaVuSans-31" x="2984.671875"/>
      <use xlink:href="#DejaVuSans-36" x="3048.294922"/>
      <use xlink:href="#DejaVuSans-2c" x="3111.917969"/>
      <use xlink:href="#DejaVuSans-20" x="3143.705078"/>
      <use xlink:href="#DejaVuSans-34" x="3175.492188"/>
      <use xlink:href="#DejaVuSans-3e" x="3239.115234"/>
      <use xlink:href="#DejaVuSans-3e" x="3322.904297"/>
     </g>
    </g>
    <g id="line2d_77">
     <path d="M 55.965625 123.518125 
L 65.965625 123.518125 
L 75.965625 123.518125 
" style="fill: none; stroke: #e377c2; stroke-width: 1.5; stroke-linecap: square"/>
    </g>
    <g id="text_47">
     <!-- Batched&lt;32, Eytzinger, Eytzinger::batch_impl_prefetched&lt;32, 4&gt;&gt; -->
     <g transform="translate(83.965625 127.018125) scale(0.1 -0.1)">
      <use xlink:href="#DejaVuSans-42"/>
      <use xlink:href="#DejaVuSans-61" x="68.603516"/>
      <use xlink:href="#DejaVuSans-74" x="129.882812"/>
      <use xlink:href="#DejaVuSans-63" x="169.091797"/>
      <use xlink:href="#DejaVuSans-68" x="224.072266"/>
      <use xlink:href="#DejaVuSans-65" x="287.451172"/>
      <use xlink:href="#DejaVuSans-64" x="348.974609"/>
      <use xlink:href="#DejaVuSans-3c" x="412.451172"/>
      <use xlink:href="#DejaVuSans-33" x="496.240234"/>
      <use xlink:href="#DejaVuSans-32" x="559.863281"/>
      <use xlink:href="#DejaVuSans-2c" x="623.486328"/>
      <use xlink:href="#DejaVuSans-20" x="655.273438"/>
      <use xlink:href="#DejaVuSans-45" x="687.060547"/>
      <use xlink:href="#DejaVuSans-79" x="750.244141"/>
      <use xlink:href="#DejaVuSans-74" x="809.423828"/>
      <use xlink:href="#DejaVuSans-7a" x="848.632812"/>
      <use xlink:href="#DejaVuSans-69" x="901.123047"/>
      <use xlink:href="#DejaVuSans-6e" x="928.90625"/>
      <use xlink:href="#DejaVuSans-67" x="992.285156"/>
      <use xlink:href="#DejaVuSans-65" x="1055.761719"/>
      <use xlink:href="#DejaVuSans-72" x="1117.285156"/>
      <use xlink:href="#DejaVuSans-2c" x="1158.398438"/>
      <use xlink:href="#DejaVuSans-20" x="1190.185547"/>
      <use xlink:href="#DejaVuSans-45" x="1221.972656"/>
      <use xlink:href="#DejaVuSans-79" x="1285.15625"/>
      <use xlink:href="#DejaVuSans-74" x="1344.335938"/>
      <use xlink:href="#DejaVuSans-7a" x="1383.544922"/>
      <use xlink:href="#DejaVuSans-69" x="1436.035156"/>
      <use xlink:href="#DejaVuSans-6e" x="1463.818359"/>
      <use xlink:href="#DejaVuSans-67" x="1527.197266"/>
      <use xlink:href="#DejaVuSans-65" x="1590.673828"/>
      <use xlink:href="#DejaVuSans-72" x="1652.197266"/>
      <use xlink:href="#DejaVuSans-3a" x="1691.560547"/>
      <use xlink:href="#DejaVuSans-3a" x="1725.251953"/>
      <use xlink:href="#DejaVuSans-62" x="1758.943359"/>
      <use xlink:href="#DejaVuSans-61" x="1822.419922"/>
      <use xlink:href="#DejaVuSans-74" x="1883.699219"/>
      <use xlink:href="#DejaVuSans-63" x="1922.908203"/>
      <use xlink:href="#DejaVuSans-68" x="1977.888672"/>
      <use xlink:href="#DejaVuSans-5f" x="2041.267578"/>
      <use xlink:href="#DejaVuSans-69" x="2091.267578"/>
      <use xlink:href="#DejaVuSans-6d" x="2119.050781"/>
      <use xlink:href="#DejaVuSans-70" x="2216.462891"/>
      <use xlink:href="#DejaVuSans-6c" x="2279.939453"/>
      <use xlink:href="#DejaVuSans-5f" x="2307.722656"/>
      <use xlink:href="#DejaVuSans-70" x="2357.722656"/>
      <use xlink:href="#DejaVuSans-72" x="2421.199219"/>
      <use xlink:href="#DejaVuSans-65" x="2460.0625"/>
      <use xlink:href="#DejaVuSans-66" x="2521.585938"/>
      <use xlink:href="#DejaVuSans-65" x="2556.791016"/>
      <use xlink:href="#DejaVuSans-74" x="2618.314453"/>
      <use xlink:href="#DejaVuSans-63" x="2657.523438"/>
      <use xlink:href="#DejaVuSans-68" x="2712.503906"/>
      <use xlink:href="#DejaVuSans-65" x="2775.882812"/>
      <use xlink:href="#DejaVuSans-64" x="2837.40625"/>
      <use xlink:href="#DejaVuSans-3c" x="2900.882812"/>
      <use xlink:href="#DejaVuSans-33" x="2984.671875"/>
      <use xlink:href="#DejaVuSans-32" x="3048.294922"/>
      <use xlink:href="#DejaVuSans-2c" x="3111.917969"/>
      <use xlink:href="#DejaVuSans-20" x="3143.705078"/>
      <use xlink:href="#DejaVuSans-34" x="3175.492188"/>
      <use xlink:href="#DejaVuSans-3e" x="3239.115234"/>
      <use xlink:href="#DejaVuSans-3e" x="3322.904297"/>
     </g>
    </g>
    <g id="line2d_78">
     <path d="M 55.965625 138.474375 
L 65.965625 138.474375 
L 75.965625 138.474375 
" style="fill: none; stroke: #7f7f7f; stroke-width: 1.5; stroke-linecap: square"/>
    </g>
    <g id="text_48">
     <!-- Batched&lt;64, Eytzinger, Eytzinger::batch_impl_prefetched&lt;64, 4&gt;&gt; -->
     <g transform="translate(83.965625 141.974375) scale(0.1 -0.1)">
      <use xlink:href="#DejaVuSans-42"/>
      <use xlink:href="#DejaVuSans-61" x="68.603516"/>
      <use xlink:href="#DejaVuSans-74" x="129.882812"/>
      <use xlink:href="#DejaVuSans-63" x="169.091797"/>
      <use xlink:href="#DejaVuSans-68" x="224.072266"/>
      <use xlink:href="#DejaVuSans-65" x="287.451172"/>
      <use xlink:href="#DejaVuSans-64" x="348.974609"/>
      <use xlink:href="#DejaVuSans-3c" x="412.451172"/>
      <use xlink:href="#DejaVuSans-36" x="496.240234"/>
      <use xlink:href="#DejaVuSans-34" x="559.863281"/>
      <use xlink:href="#DejaVuSans-2c" x="623.486328"/>
      <use xlink:href="#DejaVuSans-20" x="655.273438"/>
      <use xlink:href="#DejaVuSans-45" x="687.060547"/>
      <use xlink:href="#DejaVuSans-79" x="750.244141"/>
      <use xlink:href="#DejaVuSans-74" x="809.423828"/>
      <use xlink:href="#DejaVuSans-7a" x="848.632812"/>
      <use xlink:href="#DejaVuSans-69" x="901.123047"/>
      <use xlink:href="#DejaVuSans-6e" x="928.90625"/>
      <use xlink:href="#DejaVuSans-67" x="992.285156"/>
      <use xlink:href="#DejaVuSans-65" x="1055.761719"/>
      <use xlink:href="#DejaVuSans-72" x="1117.285156"/>
      <use xlink:href="#DejaVuSans-2c" x="1158.398438"/>
      <use xlink:href="#DejaVuSans-20" x="1190.185547"/>
      <use xlink:href="#DejaVuSans-45" x="1221.972656"/>
      <use xlink:href="#DejaVuSans-79" x="1285.15625"/>
      <use xlink:href="#DejaVuSans-74" x="1344.335938"/>
      <use xlink:href="#DejaVuSans-7a" x="1383.544922"/>
      <use xlink:href="#DejaVuSans-69" x="1436.035156"/>
      <use xlink:href="#DejaVuSans-6e" x="1463.818359"/>
      <use xlink:href="#DejaVuSans-67" x="1527.197266"/>
      <use xlink:href="#DejaVuSans-65" x="1590.673828"/>
      <use xlink:href="#DejaVuSans-72" x="1652.197266"/>
      <use xlink:href="#DejaVuSans-3a" x="1691.560547"/>
      <use xlink:href="#DejaVuSans-3a" x="1725.251953"/>
      <use xlink:href="#DejaVuSans-62" x="1758.943359"/>
      <use xlink:href="#DejaVuSans-61" x="1822.419922"/>
      <use xlink:href="#DejaVuSans-74" x="1883.699219"/>
      <use xlink:href="#DejaVuSans-63" x="1922.908203"/>
      <use xlink:href="#DejaVuSans-68" x="1977.888672"/>
      <use xlink:href="#DejaVuSans-5f" x="2041.267578"/>
      <use xlink:href="#DejaVuSans-69" x="2091.267578"/>
      <use xlink:href="#DejaVuSans-6d" x="2119.050781"/>
      <use xlink:href="#DejaVuSans-70" x="2216.462891"/>
      <use xlink:href="#DejaVuSans-6c" x="2279.939453"/>
      <use xlink:href="#DejaVuSans-5f" x="2307.722656"/>
      <use xlink:href="#DejaVuSans-70" x="2357.722656"/>
      <use xlink:href="#DejaVuSans-72" x="2421.199219"/>
      <use xlink:href="#DejaVuSans-65" x="2460.0625"/>
      <use xlink:href="#DejaVuSans-66" x="2521.585938"/>
      <use xlink:href="#DejaVuSans-65" x="2556.791016"/>
      <use xlink:href="#DejaVuSans-74" x="2618.314453"/>
      <use xlink:href="#DejaVuSans-63" x="2657.523438"/>
      <use xlink:href="#DejaVuSans-68" x="2712.503906"/>
      <use xlink:href="#DejaVuSans-65" x="2775.882812"/>
      <use xlink:href="#DejaVuSans-64" x="2837.40625"/>
      <use xlink:href="#DejaVuSans-3c" x="2900.882812"/>
      <use xlink:href="#DejaVuSans-36" x="2984.671875"/>
      <use xlink:href="#DejaVuSans-34" x="3048.294922"/>
      <use xlink:href="#DejaVuSans-2c" x="3111.917969"/>
      <use xlink:href="#DejaVuSans-20" x="3143.705078"/>
      <use xlink:href="#DejaVuSans-34" x="3175.492188"/>
      <use xlink:href="#DejaVuSans-3e" x="3239.115234"/>
      <use xlink:href="#DejaVuSans-3e" x="3322.904297"/>
     </g>
    </g>
    <g id="line2d_79">
     <path d="M 55.965625 153.430625 
L 65.965625 153.430625 
L 75.965625 153.430625 
" style="fill: none; stroke: #2ca02c; stroke-width: 1.5; stroke-linecap: square"/>
    </g>
    <g id="text_49">
     <!-- Batched&lt;128, Eytzinger, Eytzinger::batch_impl_prefetched&lt;128, 4&gt;&gt; -->
     <g transform="translate(83.965625 156.930625) scale(0.1 -0.1)">
      <use xlink:href="#DejaVuSans-42"/>
      <use xlink:href="#DejaVuSans-61" x="68.603516"/>
      <use xlink:href="#DejaVuSans-74" x="129.882812"/>
      <use xlink:href="#DejaVuSans-63" x="169.091797"/>
      <use xlink:href="#DejaVuSans-68" x="224.072266"/>
      <use xlink:href="#DejaVuSans-65" x="287.451172"/>
      <use xlink:href="#DejaVuSans-64" x="348.974609"/>
      <use xlink:href="#DejaVuSans-3c" x="412.451172"/>
      <use xlink:href="#DejaVuSans-31" x="496.240234"/>
      <use xlink:href="#DejaVuSans-32" x="559.863281"/>
      <use xlink:href="#DejaVuSans-38" x="623.486328"/>
      <use xlink:href="#DejaVuSans-2c" x="687.109375"/>
      <use xlink:href="#DejaVuSans-20" x="718.896484"/>
      <use xlink:href="#DejaVuSans-45" x="750.683594"/>
      <use xlink:href="#DejaVuSans-79" x="813.867188"/>
      <use xlink:href="#DejaVuSans-74" x="873.046875"/>
      <use xlink:href="#DejaVuSans-7a" x="912.255859"/>
      <use xlink:href="#DejaVuSans-69" x="964.746094"/>
      <use xlink:href="#DejaVuSans-6e" x="992.529297"/>
      <use xlink:href="#DejaVuSans-67" x="1055.908203"/>
      <use xlink:href="#DejaVuSans-65" x="1119.384766"/>
      <use xlink:href="#DejaVuSans-72" x="1180.908203"/>
      <use xlink:href="#DejaVuSans-2c" x="1222.021484"/>
      <use xlink:href="#DejaVuSans-20" x="1253.808594"/>
      <use xlink:href="#DejaVuSans-45" x="1285.595703"/>
      <use xlink:href="#DejaVuSans-79" x="1348.779297"/>
      <use xlink:href="#DejaVuSans-74" x="1407.958984"/>
      <use xlink:href="#DejaVuSans-7a" x="1447.167969"/>
      <use xlink:href="#DejaVuSans-69" x="1499.658203"/>
      <use xlink:href="#DejaVuSans-6e" x="1527.441406"/>
      <use xlink:href="#DejaVuSans-67" x="1590.820312"/>
      <use xlink:href="#DejaVuSans-65" x="1654.296875"/>
      <use xlink:href="#DejaVuSans-72" x="1715.820312"/>
      <use xlink:href="#DejaVuSans-3a" x="1755.183594"/>
      <use xlink:href="#DejaVuSans-3a" x="1788.875"/>
      <use xlink:href="#DejaVuSans-62" x="1822.566406"/>
      <use xlink:href="#DejaVuSans-61" x="1886.042969"/>
      <use xlink:href="#DejaVuSans-74" x="1947.322266"/>
      <use xlink:href="#DejaVuSans-63" x="1986.53125"/>
      <use xlink:href="#DejaVuSans-68" x="2041.511719"/>
      <use xlink:href="#DejaVuSans-5f" x="2104.890625"/>
      <use xlink:href="#DejaVuSans-69" x="2154.890625"/>
      <use xlink:href="#DejaVuSans-6d" x="2182.673828"/>
      <use xlink:href="#DejaVuSans-70" x="2280.085938"/>
      <use xlink:href="#DejaVuSans-6c" x="2343.5625"/>
      <use xlink:href="#DejaVuSans-5f" x="2371.345703"/>
      <use xlink:href="#DejaVuSans-70" x="2421.345703"/>
      <use xlink:href="#DejaVuSans-72" x="2484.822266"/>
      <use xlink:href="#DejaVuSans-65" x="2523.685547"/>
      <use xlink:href="#DejaVuSans-66" x="2585.208984"/>
      <use xlink:href="#DejaVuSans-65" x="2620.414062"/>
      <use xlink:href="#DejaVuSans-74" x="2681.9375"/>
      <use xlink:href="#DejaVuSans-63" x="2721.146484"/>
      <use xlink:href="#DejaVuSans-68" x="2776.126953"/>
      <use xlink:href="#DejaVuSans-65" x="2839.505859"/>
      <use xlink:href="#DejaVuSans-64" x="2901.029297"/>
      <use xlink:href="#DejaVuSans-3c" x="2964.505859"/>
      <use xlink:href="#DejaVuSans-31" x="3048.294922"/>
      <use xlink:href="#DejaVuSans-32" x="3111.917969"/>
      <use xlink:href="#DejaVuSans-38" x="3175.541016"/>
      <use xlink:href="#DejaVuSans-2c" x="3239.164062"/>
      <use xlink:href="#DejaVuSans-20" x="3270.951172"/>
      <use xlink:href="#DejaVuSans-34" x="3302.738281"/>
      <use xlink:href="#DejaVuSans-3e" x="3366.361328"/>
      <use xlink:href="#DejaVuSans-3e" x="3450.150391"/>
     </g>
    </g>
   </g>
  </g>
 </g>
 <defs>
  <clipPath id="p55021bef23">
   <rect x="46.965625" y="50.594688" width="613.8" height="443.52"/>
  </clipPath>
 </defs>
</svg>
