<?xml version="1.0" encoding="utf-8" standalone="no"?>
<!DOCTYPE svg PUBLIC "-//W3C//DTD SVG 1.1//EN"
  "http://www.w3.org/Graphics/SVG/1.1/DTD/svg11.dtd">
<svg xmlns:xlink="http://www.w3.org/1999/xlink" width="674.328125pt" height="531.670938pt" viewBox="0 0 674.328125 531.670938" xmlns="http://www.w3.org/2000/svg" version="1.1">
 <metadata>
  <rdf:RDF xmlns:dc="http://purl.org/dc/elements/1.1/" xmlns:cc="http://creativecommons.org/ns#" xmlns:rdf="http://www.w3.org/1999/02/22-rdf-syntax-ns#">
   <cc:Work>
    <dc:type rdf:resource="http://purl.org/dc/dcmitype/StillImage"/>
    <dc:date>2025-03-01T18:57:01.999597</dc:date>
    <dc:format>image/svg+xml</dc:format>
    <dc:creator>
     <cc:Agent>
      <dc:title>Matplotlib v3.9.2, https://matplotlib.org/</dc:title>
     </cc:Agent>
    </dc:creator>
   </cc:Work>
  </rdf:RDF>
 </metadata>
 <defs>
  <style type="text/css">*{stroke-linejoin: round; stroke-linecap: butt}</style>
 </defs>
 <g id="figure_1">
  <g id="patch_1">
   <path d="M 0 531.670938 
L 674.328125 531.670938 
L 674.328125 0 
L 0 0 
z
" style="fill: #ffffff"/>
  </g>
  <g id="axes_1">
   <g id="patch_2">
    <path d="M 53.328125 494.114688 
L 667.128125 494.114688 
L 667.128125 50.594688 
L 53.328125 50.594688 
z
" style="fill: #ffffff"/>
   </g>
   <g id="line2d_1">
    <path d="M 305.181204 494.114688 
L 305.181204 50.594688 
" clip-path="url(#pfa9fc462a0)" style="fill: none; stroke-dasharray: 5.55,2.4; stroke-dashoffset: 0; stroke: #ff0000; stroke-width: 1.5"/>
   </g>
   <g id="line2d_2">
    <path d="M 394.762435 494.114688 
L 394.762435 50.594688 
" clip-path="url(#pfa9fc462a0)" style="fill: none; stroke-dasharray: 5.55,2.4; stroke-dashoffset: 0; stroke: #ff0000; stroke-width: 1.5"/>
   </g>
   <g id="line2d_3">
    <path d="M 461.948359 494.114688 
L 461.948359 50.594688 
" clip-path="url(#pfa9fc462a0)" style="fill: none; stroke-dasharray: 5.55,2.4; stroke-dashoffset: 0; stroke: #ff0000; stroke-width: 1.5"/>
   </g>
   <g id="axes_2">
    <g id="patch_3">
     <path d="M 53.328125 50.594688 
L 667.128125 50.594688 
L 667.128125 50.594687 
L 53.328125 50.594687 
z
" style="fill: #ffffff"/>
    </g>
    <g id="matplotlib.axis_1">
     <g id="xtick_1">
      <g id="line2d_4">
       <defs>
        <path id="m9a1fe428de" d="M 0 0 
L 0 -3.5 
" style="stroke: #000000; stroke-width: 0.8"/>
       </defs>
       <g>
        <use xlink:href="#m9a1fe428de" x="58.832817" y="50.594687" style="stroke: #000000; stroke-width: 0.8"/>
       </g>
      </g>
      <g id="text_1">
       <!-- $\mathdefault{2^{2}}$ -->
       <g transform="translate(53.232817 41.515) scale(0.1 -0.1)">
        <defs>
         <path id="DejaVuSans-32" d="M 1228 531 
L 3431 531 
L 3431 0 
L 469 0 
L 469 531 
Q 828 903 1448 1529 
Q 2069 2156 2228 2338 
Q 2531 2678 2651 2914 
Q 2772 3150 2772 3378 
Q 2772 3750 2511 3984 
Q 2250 4219 1831 4219 
Q 1534 4219 1204 4116 
Q 875 4013 500 3803 
L 500 4441 
Q 881 4594 1212 4672 
Q 1544 4750 1819 4750 
Q 2544 4750 2975 4387 
Q 3406 4025 3406 3419 
Q 3406 3131 3298 2873 
Q 3191 2616 2906 2266 
Q 2828 2175 2409 1742 
Q 1991 1309 1228 531 
z
" transform="scale(0.015625)"/>
        </defs>
        <use xlink:href="#DejaVuSans-32" transform="translate(0 0.765625)"/>
        <use xlink:href="#DejaVuSans-32" transform="translate(64.580078 39.046875) scale(0.7)"/>
       </g>
      </g>
     </g>
     <g id="xtick_2">
      <g id="line2d_5">
       <g>
        <use xlink:href="#m9a1fe428de" x="103.623433" y="50.594687" style="stroke: #000000; stroke-width: 0.8"/>
       </g>
      </g>
      <g id="text_2">
       <!-- $\mathdefault{2^{4}}$ -->
       <g transform="translate(98.023433 41.515) scale(0.1 -0.1)">
        <defs>
         <path id="DejaVuSans-34" d="M 2419 4116 
L 825 1625 
L 2419 1625 
L 2419 4116 
z
M 2253 4666 
L 3047 4666 
L 3047 1625 
L 3713 1625 
L 3713 1100 
L 3047 1100 
L 3047 0 
L 2419 0 
L 2419 1100 
L 313 1100 
L 313 1709 
L 2253 4666 
z
" transform="scale(0.015625)"/>
        </defs>
        <use xlink:href="#DejaVuSans-32" transform="translate(0 0.684375)"/>
        <use xlink:href="#DejaVuSans-34" transform="translate(64.580078 38.965625) scale(0.7)"/>
       </g>
      </g>
     </g>
     <g id="xtick_3">
      <g id="line2d_6">
       <g>
        <use xlink:href="#m9a1fe428de" x="148.414049" y="50.594687" style="stroke: #000000; stroke-width: 0.8"/>
       </g>
      </g>
      <g id="text_3">
       <!-- $\mathdefault{2^{6}}$ -->
       <g transform="translate(142.814049 41.515) scale(0.1 -0.1)">
        <defs>
         <path id="DejaVuSans-36" d="M 2113 2584 
Q 1688 2584 1439 2293 
Q 1191 2003 1191 1497 
Q 1191 994 1439 701 
Q 1688 409 2113 409 
Q 2538 409 2786 701 
Q 3034 994 3034 1497 
Q 3034 2003 2786 2293 
Q 2538 2584 2113 2584 
z
M 3366 4563 
L 3366 3988 
Q 3128 4100 2886 4159 
Q 2644 4219 2406 4219 
Q 1781 4219 1451 3797 
Q 1122 3375 1075 2522 
Q 1259 2794 1537 2939 
Q 1816 3084 2150 3084 
Q 2853 3084 3261 2657 
Q 3669 2231 3669 1497 
Q 3669 778 3244 343 
Q 2819 -91 2113 -91 
Q 1303 -91 875 529 
Q 447 1150 447 2328 
Q 447 3434 972 4092 
Q 1497 4750 2381 4750 
Q 2619 4750 2861 4703 
Q 3103 4656 3366 4563 
z
" transform="scale(0.015625)"/>
        </defs>
        <use xlink:href="#DejaVuSans-32" transform="translate(0 0.765625)"/>
        <use xlink:href="#DejaVuSans-36" transform="translate(64.580078 39.046875) scale(0.7)"/>
       </g>
      </g>
     </g>
     <g id="xtick_4">
      <g id="line2d_7">
       <g>
        <use xlink:href="#m9a1fe428de" x="193.204664" y="50.594687" style="stroke: #000000; stroke-width: 0.8"/>
       </g>
      </g>
      <g id="text_4">
       <!-- $\mathdefault{2^{8}}$ -->
       <g transform="translate(187.604664 41.515) scale(0.1 -0.1)">
        <defs>
         <path id="DejaVuSans-38" d="M 2034 2216 
Q 1584 2216 1326 1975 
Q 1069 1734 1069 1313 
Q 1069 891 1326 650 
Q 1584 409 2034 409 
Q 2484 409 2743 651 
Q 3003 894 3003 1313 
Q 3003 1734 2745 1975 
Q 2488 2216 2034 2216 
z
M 1403 2484 
Q 997 2584 770 2862 
Q 544 3141 544 3541 
Q 544 4100 942 4425 
Q 1341 4750 2034 4750 
Q 2731 4750 3128 4425 
Q 3525 4100 3525 3541 
Q 3525 3141 3298 2862 
Q 3072 2584 2669 2484 
Q 3125 2378 3379 2068 
Q 3634 1759 3634 1313 
Q 3634 634 3220 271 
Q 2806 -91 2034 -91 
Q 1263 -91 848 271 
Q 434 634 434 1313 
Q 434 1759 690 2068 
Q 947 2378 1403 2484 
z
M 1172 3481 
Q 1172 3119 1398 2916 
Q 1625 2713 2034 2713 
Q 2441 2713 2670 2916 
Q 2900 3119 2900 3481 
Q 2900 3844 2670 4047 
Q 2441 4250 2034 4250 
Q 1625 4250 1398 4047 
Q 1172 3844 1172 3481 
z
" transform="scale(0.015625)"/>
        </defs>
        <use xlink:href="#DejaVuSans-32" transform="translate(0 0.765625)"/>
        <use xlink:href="#DejaVuSans-38" transform="translate(64.580078 39.046875) scale(0.7)"/>
       </g>
      </g>
     </g>
     <g id="xtick_5">
      <g id="line2d_8">
       <g>
        <use xlink:href="#m9a1fe428de" x="237.99528" y="50.594687" style="stroke: #000000; stroke-width: 0.8"/>
       </g>
      </g>
      <g id="text_5">
       <!-- $\mathdefault{2^{10}}$ -->
       <g transform="translate(230.14528 41.515) scale(0.1 -0.1)">
        <defs>
         <path id="DejaVuSans-31" d="M 794 531 
L 1825 531 
L 1825 4091 
L 703 3866 
L 703 4441 
L 1819 4666 
L 2450 4666 
L 2450 531 
L 3481 531 
L 3481 0 
L 794 0 
L 794 531 
z
" transform="scale(0.015625)"/>
         <path id="DejaVuSans-30" d="M 2034 4250 
Q 1547 4250 1301 3770 
Q 1056 3291 1056 2328 
Q 1056 1369 1301 889 
Q 1547 409 2034 409 
Q 2525 409 2770 889 
Q 3016 1369 3016 2328 
Q 3016 3291 2770 3770 
Q 2525 4250 2034 4250 
z
M 2034 4750 
Q 2819 4750 3233 4129 
Q 3647 3509 3647 2328 
Q 3647 1150 3233 529 
Q 2819 -91 2034 -91 
Q 1250 -91 836 529 
Q 422 1150 422 2328 
Q 422 3509 836 4129 
Q 1250 4750 2034 4750 
z
" transform="scale(0.015625)"/>
        </defs>
        <use xlink:href="#DejaVuSans-32" transform="translate(0 0.765625)"/>
        <use xlink:href="#DejaVuSans-31" transform="translate(64.580078 39.046875) scale(0.7)"/>
        <use xlink:href="#DejaVuSans-30" transform="translate(109.116211 39.046875) scale(0.7)"/>
       </g>
      </g>
     </g>
     <g id="xtick_6">
      <g id="line2d_9">
       <g>
        <use xlink:href="#m9a1fe428de" x="282.785896" y="50.594687" style="stroke: #000000; stroke-width: 0.8"/>
       </g>
      </g>
      <g id="text_6">
       <!-- $\mathdefault{2^{12}}$ -->
       <g transform="translate(274.935896 41.515) scale(0.1 -0.1)">
        <use xlink:href="#DejaVuSans-32" transform="translate(0 0.765625)"/>
        <use xlink:href="#DejaVuSans-31" transform="translate(64.580078 39.046875) scale(0.7)"/>
        <use xlink:href="#DejaVuSans-32" transform="translate(109.116211 39.046875) scale(0.7)"/>
       </g>
      </g>
     </g>
     <g id="xtick_7">
      <g id="line2d_10">
       <g>
        <use xlink:href="#m9a1fe428de" x="327.576512" y="50.594687" style="stroke: #000000; stroke-width: 0.8"/>
       </g>
      </g>
      <g id="text_7">
       <!-- $\mathdefault{2^{14}}$ -->
       <g transform="translate(319.726512 41.515) scale(0.1 -0.1)">
        <use xlink:href="#DejaVuSans-32" transform="translate(0 0.684375)"/>
        <use xlink:href="#DejaVuSans-31" transform="translate(64.580078 38.965625) scale(0.7)"/>
        <use xlink:href="#DejaVuSans-34" transform="translate(109.116211 38.965625) scale(0.7)"/>
       </g>
      </g>
     </g>
     <g id="xtick_8">
      <g id="line2d_11">
       <g>
        <use xlink:href="#m9a1fe428de" x="372.367127" y="50.594687" style="stroke: #000000; stroke-width: 0.8"/>
       </g>
      </g>
      <g id="text_8">
       <!-- $\mathdefault{2^{16}}$ -->
       <g transform="translate(364.517127 41.515) scale(0.1 -0.1)">
        <use xlink:href="#DejaVuSans-32" transform="translate(0 0.765625)"/>
        <use xlink:href="#DejaVuSans-31" transform="translate(64.580078 39.046875) scale(0.7)"/>
        <use xlink:href="#DejaVuSans-36" transform="translate(109.116211 39.046875) scale(0.7)"/>
       </g>
      </g>
     </g>
     <g id="xtick_9">
      <g id="line2d_12">
       <g>
        <use xlink:href="#m9a1fe428de" x="417.157743" y="50.594687" style="stroke: #000000; stroke-width: 0.8"/>
       </g>
      </g>
      <g id="text_9">
       <!-- $\mathdefault{2^{18}}$ -->
       <g transform="translate(409.307743 41.515) scale(0.1 -0.1)">
        <use xlink:href="#DejaVuSans-32" transform="translate(0 0.765625)"/>
        <use xlink:href="#DejaVuSans-31" transform="translate(64.580078 39.046875) scale(0.7)"/>
        <use xlink:href="#DejaVuSans-38" transform="translate(109.116211 39.046875) scale(0.7)"/>
       </g>
      </g>
     </g>
     <g id="xtick_10">
      <g id="line2d_13">
       <g>
        <use xlink:href="#m9a1fe428de" x="461.948359" y="50.594687" style="stroke: #000000; stroke-width: 0.8"/>
       </g>
      </g>
      <g id="text_10">
       <!-- $\mathdefault{2^{20}}$ -->
       <g transform="translate(454.098359 41.515) scale(0.1 -0.1)">
        <use xlink:href="#DejaVuSans-32" transform="translate(0 0.765625)"/>
        <use xlink:href="#DejaVuSans-32" transform="translate(64.580078 39.046875) scale(0.7)"/>
        <use xlink:href="#DejaVuSans-30" transform="translate(109.116211 39.046875) scale(0.7)"/>
       </g>
      </g>
     </g>
     <g id="xtick_11">
      <g id="line2d_14">
       <g>
        <use xlink:href="#m9a1fe428de" x="506.738974" y="50.594687" style="stroke: #000000; stroke-width: 0.8"/>
       </g>
      </g>
      <g id="text_11">
       <!-- $\mathdefault{2^{22}}$ -->
       <g transform="translate(498.888974 41.515) scale(0.1 -0.1)">
        <use xlink:href="#DejaVuSans-32" transform="translate(0 0.765625)"/>
        <use xlink:href="#DejaVuSans-32" transform="translate(64.580078 39.046875) scale(0.7)"/>
        <use xlink:href="#DejaVuSans-32" transform="translate(109.116211 39.046875) scale(0.7)"/>
       </g>
      </g>
     </g>
     <g id="xtick_12">
      <g id="line2d_15">
       <g>
        <use xlink:href="#m9a1fe428de" x="551.52959" y="50.594687" style="stroke: #000000; stroke-width: 0.8"/>
       </g>
      </g>
      <g id="text_12">
       <!-- $\mathdefault{2^{24}}$ -->
       <g transform="translate(543.67959 41.515) scale(0.1 -0.1)">
        <use xlink:href="#DejaVuSans-32" transform="translate(0 0.765625)"/>
        <use xlink:href="#DejaVuSans-32" transform="translate(64.580078 39.046875) scale(0.7)"/>
        <use xlink:href="#DejaVuSans-34" transform="translate(109.116211 39.046875) scale(0.7)"/>
       </g>
      </g>
     </g>
     <g id="xtick_13">
      <g id="line2d_16">
       <g>
        <use xlink:href="#m9a1fe428de" x="596.320206" y="50.594687" style="stroke: #000000; stroke-width: 0.8"/>
       </g>
      </g>
      <g id="text_13">
       <!-- $\mathdefault{2^{26}}$ -->
       <g transform="translate(588.470206 41.515) scale(0.1 -0.1)">
        <use xlink:href="#DejaVuSans-32" transform="translate(0 0.765625)"/>
        <use xlink:href="#DejaVuSans-32" transform="translate(64.580078 39.046875) scale(0.7)"/>
        <use xlink:href="#DejaVuSans-36" transform="translate(109.116211 39.046875) scale(0.7)"/>
       </g>
      </g>
     </g>
     <g id="xtick_14">
      <g id="line2d_17">
       <g>
        <use xlink:href="#m9a1fe428de" x="641.110822" y="50.594687" style="stroke: #000000; stroke-width: 0.8"/>
       </g>
      </g>
      <g id="text_14">
       <!-- $\mathdefault{2^{28}}$ -->
       <g transform="translate(633.260822 41.515) scale(0.1 -0.1)">
        <use xlink:href="#DejaVuSans-32" transform="translate(0 0.765625)"/>
        <use xlink:href="#DejaVuSans-32" transform="translate(64.580078 39.046875) scale(0.7)"/>
        <use xlink:href="#DejaVuSans-38" transform="translate(109.116211 39.046875) scale(0.7)"/>
       </g>
      </g>
     </g>
     <g id="text_15">
      <!-- Array length (u32) -->
      <g transform="translate(314.2125 29.916562) scale(0.1 -0.1)">
       <defs>
        <path id="DejaVuSans-41" d="M 2188 4044 
L 1331 1722 
L 3047 1722 
L 2188 4044 
z
M 1831 4666 
L 2547 4666 
L 4325 0 
L 3669 0 
L 3244 1197 
L 1141 1197 
L 716 0 
L 50 0 
L 1831 4666 
z
" transform="scale(0.015625)"/>
        <path id="DejaVuSans-72" d="M 2631 2963 
Q 2534 3019 2420 3045 
Q 2306 3072 2169 3072 
Q 1681 3072 1420 2755 
Q 1159 2438 1159 1844 
L 1159 0 
L 581 0 
L 581 3500 
L 1159 3500 
L 1159 2956 
Q 1341 3275 1631 3429 
Q 1922 3584 2338 3584 
Q 2397 3584 2469 3576 
Q 2541 3569 2628 3553 
L 2631 2963 
z
" transform="scale(0.015625)"/>
        <path id="DejaVuSans-61" d="M 2194 1759 
Q 1497 1759 1228 1600 
Q 959 1441 959 1056 
Q 959 750 1161 570 
Q 1363 391 1709 391 
Q 2188 391 2477 730 
Q 2766 1069 2766 1631 
L 2766 1759 
L 2194 1759 
z
M 3341 1997 
L 3341 0 
L 2766 0 
L 2766 531 
Q 2569 213 2275 61 
Q 1981 -91 1556 -91 
Q 1019 -91 701 211 
Q 384 513 384 1019 
Q 384 1609 779 1909 
Q 1175 2209 1959 2209 
L 2766 2209 
L 2766 2266 
Q 2766 2663 2505 2880 
Q 2244 3097 1772 3097 
Q 1472 3097 1187 3025 
Q 903 2953 641 2809 
L 641 3341 
Q 956 3463 1253 3523 
Q 1550 3584 1831 3584 
Q 2591 3584 2966 3190 
Q 3341 2797 3341 1997 
z
" transform="scale(0.015625)"/>
        <path id="DejaVuSans-79" d="M 2059 -325 
Q 1816 -950 1584 -1140 
Q 1353 -1331 966 -1331 
L 506 -1331 
L 506 -850 
L 844 -850 
Q 1081 -850 1212 -737 
Q 1344 -625 1503 -206 
L 1606 56 
L 191 3500 
L 800 3500 
L 1894 763 
L 2988 3500 
L 3597 3500 
L 2059 -325 
z
" transform="scale(0.015625)"/>
        <path id="DejaVuSans-20" transform="scale(0.015625)"/>
        <path id="DejaVuSans-6c" d="M 603 4863 
L 1178 4863 
L 1178 0 
L 603 0 
L 603 4863 
z
" transform="scale(0.015625)"/>
        <path id="DejaVuSans-65" d="M 3597 1894 
L 3597 1613 
L 953 1613 
Q 991 1019 1311 708 
Q 1631 397 2203 397 
Q 2534 397 2845 478 
Q 3156 559 3463 722 
L 3463 178 
Q 3153 47 2828 -22 
Q 2503 -91 2169 -91 
Q 1331 -91 842 396 
Q 353 884 353 1716 
Q 353 2575 817 3079 
Q 1281 3584 2069 3584 
Q 2775 3584 3186 3129 
Q 3597 2675 3597 1894 
z
M 3022 2063 
Q 3016 2534 2758 2815 
Q 2500 3097 2075 3097 
Q 1594 3097 1305 2825 
Q 1016 2553 972 2059 
L 3022 2063 
z
" transform="scale(0.015625)"/>
        <path id="DejaVuSans-6e" d="M 3513 2113 
L 3513 0 
L 2938 0 
L 2938 2094 
Q 2938 2591 2744 2837 
Q 2550 3084 2163 3084 
Q 1697 3084 1428 2787 
Q 1159 2491 1159 1978 
L 1159 0 
L 581 0 
L 581 3500 
L 1159 3500 
L 1159 2956 
Q 1366 3272 1645 3428 
Q 1925 3584 2291 3584 
Q 2894 3584 3203 3211 
Q 3513 2838 3513 2113 
z
" transform="scale(0.015625)"/>
        <path id="DejaVuSans-67" d="M 2906 1791 
Q 2906 2416 2648 2759 
Q 2391 3103 1925 3103 
Q 1463 3103 1205 2759 
Q 947 2416 947 1791 
Q 947 1169 1205 825 
Q 1463 481 1925 481 
Q 2391 481 2648 825 
Q 2906 1169 2906 1791 
z
M 3481 434 
Q 3481 -459 3084 -895 
Q 2688 -1331 1869 -1331 
Q 1566 -1331 1297 -1286 
Q 1028 -1241 775 -1147 
L 775 -588 
Q 1028 -725 1275 -790 
Q 1522 -856 1778 -856 
Q 2344 -856 2625 -561 
Q 2906 -266 2906 331 
L 2906 616 
Q 2728 306 2450 153 
Q 2172 0 1784 0 
Q 1141 0 747 490 
Q 353 981 353 1791 
Q 353 2603 747 3093 
Q 1141 3584 1784 3584 
Q 2172 3584 2450 3431 
Q 2728 3278 2906 2969 
L 2906 3500 
L 3481 3500 
L 3481 434 
z
" transform="scale(0.015625)"/>
        <path id="DejaVuSans-74" d="M 1172 4494 
L 1172 3500 
L 2356 3500 
L 2356 3053 
L 1172 3053 
L 1172 1153 
Q 1172 725 1289 603 
Q 1406 481 1766 481 
L 2356 481 
L 2356 0 
L 1766 0 
Q 1100 0 847 248 
Q 594 497 594 1153 
L 594 3053 
L 172 3053 
L 172 3500 
L 594 3500 
L 594 4494 
L 1172 4494 
z
" transform="scale(0.015625)"/>
        <path id="DejaVuSans-68" d="M 3513 2113 
L 3513 0 
L 2938 0 
L 2938 2094 
Q 2938 2591 2744 2837 
Q 2550 3084 2163 3084 
Q 1697 3084 1428 2787 
Q 1159 2491 1159 1978 
L 1159 0 
L 581 0 
L 581 4863 
L 1159 4863 
L 1159 2956 
Q 1366 3272 1645 3428 
Q 1925 3584 2291 3584 
Q 2894 3584 3203 3211 
Q 3513 2838 3513 2113 
z
" transform="scale(0.015625)"/>
        <path id="DejaVuSans-28" d="M 1984 4856 
Q 1566 4138 1362 3434 
Q 1159 2731 1159 2009 
Q 1159 1288 1364 580 
Q 1569 -128 1984 -844 
L 1484 -844 
Q 1016 -109 783 600 
Q 550 1309 550 2009 
Q 550 2706 781 3412 
Q 1013 4119 1484 4856 
L 1984 4856 
z
" transform="scale(0.015625)"/>
        <path id="DejaVuSans-75" d="M 544 1381 
L 544 3500 
L 1119 3500 
L 1119 1403 
Q 1119 906 1312 657 
Q 1506 409 1894 409 
Q 2359 409 2629 706 
Q 2900 1003 2900 1516 
L 2900 3500 
L 3475 3500 
L 3475 0 
L 2900 0 
L 2900 538 
Q 2691 219 2414 64 
Q 2138 -91 1772 -91 
Q 1169 -91 856 284 
Q 544 659 544 1381 
z
M 1991 3584 
L 1991 3584 
z
" transform="scale(0.015625)"/>
        <path id="DejaVuSans-33" d="M 2597 2516 
Q 3050 2419 3304 2112 
Q 3559 1806 3559 1356 
Q 3559 666 3084 287 
Q 2609 -91 1734 -91 
Q 1441 -91 1130 -33 
Q 819 25 488 141 
L 488 750 
Q 750 597 1062 519 
Q 1375 441 1716 441 
Q 2309 441 2620 675 
Q 2931 909 2931 1356 
Q 2931 1769 2642 2001 
Q 2353 2234 1838 2234 
L 1294 2234 
L 1294 2753 
L 1863 2753 
Q 2328 2753 2575 2939 
Q 2822 3125 2822 3475 
Q 2822 3834 2567 4026 
Q 2313 4219 1838 4219 
Q 1578 4219 1281 4162 
Q 984 4106 628 3988 
L 628 4550 
Q 988 4650 1302 4700 
Q 1616 4750 1894 4750 
Q 2613 4750 3031 4423 
Q 3450 4097 3450 3541 
Q 3450 3153 3228 2886 
Q 3006 2619 2597 2516 
z
" transform="scale(0.015625)"/>
        <path id="DejaVuSans-29" d="M 513 4856 
L 1013 4856 
Q 1481 4119 1714 3412 
Q 1947 2706 1947 2009 
Q 1947 1309 1714 600 
Q 1481 -109 1013 -844 
L 513 -844 
Q 928 -128 1133 580 
Q 1338 1288 1338 2009 
Q 1338 2731 1133 3434 
Q 928 4138 513 4856 
z
" transform="scale(0.015625)"/>
       </defs>
       <use xlink:href="#DejaVuSans-41"/>
       <use xlink:href="#DejaVuSans-72" x="68.408203"/>
       <use xlink:href="#DejaVuSans-72" x="107.771484"/>
       <use xlink:href="#DejaVuSans-61" x="148.884766"/>
       <use xlink:href="#DejaVuSans-79" x="210.164062"/>
       <use xlink:href="#DejaVuSans-20" x="269.34375"/>
       <use xlink:href="#DejaVuSans-6c" x="301.130859"/>
       <use xlink:href="#DejaVuSans-65" x="328.914062"/>
       <use xlink:href="#DejaVuSans-6e" x="390.4375"/>
       <use xlink:href="#DejaVuSans-67" x="453.816406"/>
       <use xlink:href="#DejaVuSans-74" x="517.292969"/>
       <use xlink:href="#DejaVuSans-68" x="556.501953"/>
       <use xlink:href="#DejaVuSans-20" x="619.880859"/>
       <use xlink:href="#DejaVuSans-28" x="651.667969"/>
       <use xlink:href="#DejaVuSans-75" x="690.681641"/>
       <use xlink:href="#DejaVuSans-33" x="754.060547"/>
       <use xlink:href="#DejaVuSans-32" x="817.683594"/>
       <use xlink:href="#DejaVuSans-29" x="881.306641"/>
      </g>
     </g>
    </g>
    <g id="matplotlib.axis_2"/>
    <g id="patch_4">
     <path d="M 53.328125 50.594687 
L 667.128125 50.594687 
" style="fill: none; stroke: #000000; stroke-width: 0.8; stroke-linejoin: miter; stroke-linecap: square"/>
    </g>
   </g>
   <g id="PolyCollection_1">
    <defs>
     <path id="me5acfcf2ac" d="M 81.228125 -43.079449 
L 81.228125 -41.471279 
L 85.918898 -45.675259 
L 90.774455 -43.531155 
L 96.287298 -42.343122 
L 100.995188 -41.142439 
L 106.518766 -42.602474 
L 111.63092 -47.435236 
L 116.723848 -44.666532 
L 121.704395 -42.119072 
L 126.767259 -42.199878 
L 131.783021 -46.288451 
L 136.853944 -48.345007 
L 142.014489 -45.706489 
L 147.126643 -43.312739 
L 152.219571 -46.867835 
L 157.296135 -51.114389 
L 162.345091 -49.147141 
L 167.419221 -45.345519 
L 172.529665 -45.763576 
L 177.561457 -51.656145 
L 182.666117 -51.001127 
L 187.752668 -47.906195 
L 192.8238 -44.923538 
L 197.895437 -50.220713 
L 202.961634 -54.308864 
L 208.045327 -50.74424 
L 213.108343 -47.478352 
L 218.190974 -49.076822 
L 223.26084 -55.315398 
L 228.330164 -53.983262 
L 233.409347 -50.16851 
L 238.480677 -48.275647 
L 243.554335 -54.584572 
L 248.626779 -57.340035 
L 253.696403 -53.178788 
L 258.773153 -50.037018 
L 263.843613 -53.705429 
L 268.91719 -60.479245 
L 273.989348 -56.889785 
L 279.063338 -52.719026 
L 284.135745 -52.388173 
L 289.209912 -58.820829 
L 294.281313 -60.247186 
L 299.354691 -55.658061 
L 304.428055 -52.148001 
L 309.500602 -58.047185 
L 314.573073 -64.614108 
L 319.645965 -60.148433 
L 324.718564 -55.965316 
L 329.79131 -57.457447 
L 334.864188 -65.430674 
L 339.936896 -65.307529 
L 345.009837 -60.184934 
L 350.082556 -56.366296 
L 355.155338 -64.983091 
L 360.228108 -70.942542 
L 365.300841 -65.214278 
L 370.373548 -60.620436 
L 375.446292 -66.081299 
L 380.518971 -73.960613 
L 385.591705 -71.662097 
L 390.664427 -66.528377 
L 395.737168 -65.007535 
L 400.809906 -75.083217 
L 405.88264 -81.502722 
L 410.955384 -76.707034 
L 416.028098 -73.057428 
L 421.10085 -79.694959 
L 426.173579 -90.219802 
L 431.246302 -87.312804 
L 436.319033 -83.085657 
L 441.391756 -84.715272 
L 446.464482 -97.030598 
L 451.53721 -100.425583 
L 456.609943 -96.892628 
L 461.682672 -97.404319 
L 466.755398 -109.307638 
L 471.828126 -125.657503 
L 476.900852 -129.604726 
L 481.973579 -130.109587 
L 487.046309 -139.013907 
L 492.119036 -154.974431 
L 497.191764 -161.480158 
L 502.264492 -163.878025 
L 507.337218 -195.140181 
L 512.409945 -185.099358 
L 517.482672 -194.378096 
L 522.555399 -196.397109 
L 527.628126 -198.624871 
L 532.700853 -208.552303 
L 537.773582 -222.546406 
L 542.84631 -229.497014 
L 547.919038 -229.333382 
L 552.991767 -235.29791 
L 558.064493 -249.445718 
L 563.137219 -262.211873 
L 568.209946 -262.086435 
L 573.282673 -262.654875 
L 578.355401 -273.056642 
L 583.428128 -292.272735 
L 588.500856 -295.789106 
L 593.573584 -292.543325 
L 598.646309 -301.439945 
L 603.719035 -318.989165 
L 608.791762 -329.646786 
L 613.86449 -330.234362 
L 618.937216 -328.276265 
L 624.009943 -354.440992 
L 629.082671 -362.799658 
L 634.155398 -364.323122 
L 639.228125 -362.175347 
L 639.228125 -368.035538 
L 639.228125 -368.035538 
L 634.155398 -387.625187 
L 629.082671 -364.243703 
L 624.009943 -367.815155 
L 618.937216 -333.588344 
L 613.86449 -335.735341 
L 608.791762 -331.758822 
L 603.719035 -323.244342 
L 598.646309 -302.979646 
L 593.573584 -295.719974 
L 588.500856 -296.420089 
L 583.428128 -294.094506 
L 578.355401 -277.303216 
L 573.282673 -264.840785 
L 568.209946 -264.386477 
L 563.137219 -266.192564 
L 558.064493 -253.467359 
L 552.991767 -241.379945 
L 547.919038 -236.403556 
L 542.84631 -230.516654 
L 537.773582 -223.575767 
L 532.700853 -209.178728 
L 527.628126 -210.842517 
L 522.555399 -197.224512 
L 517.482672 -199.900888 
L 512.409945 -189.535609 
L 507.337218 -196.275048 
L 502.264492 -164.059497 
L 497.191764 -162.236963 
L 492.119036 -157.614521 
L 487.046309 -142.844115 
L 481.973579 -142.259133 
L 476.900852 -132.506796 
L 471.828126 -126.423976 
L 466.755398 -113.610324 
L 461.682672 -98.418548 
L 456.609943 -99.508558 
L 451.53721 -103.711377 
L 446.464482 -99.448703 
L 441.391756 -85.437702 
L 436.319033 -84.014218 
L 431.246302 -87.554881 
L 426.173579 -90.732681 
L 421.10085 -80.159982 
L 416.028098 -73.160792 
L 410.955384 -77.229283 
L 405.88264 -81.533029 
L 400.809906 -75.244464 
L 395.737168 -65.426155 
L 390.664427 -66.664805 
L 385.591705 -71.823162 
L 380.518971 -74.224437 
L 375.446292 -66.210726 
L 370.373548 -60.669963 
L 365.300841 -65.481319 
L 360.228108 -71.044298 
L 355.155338 -65.04408 
L 350.082556 -56.513416 
L 345.009837 -60.261277 
L 339.936896 -65.41309 
L 334.864188 -65.629948 
L 329.79131 -57.742666 
L 324.718564 -56.065442 
L 319.645965 -60.197758 
L 314.573073 -64.646086 
L 309.500602 -58.083118 
L 304.428055 -52.440068 
L 299.354691 -55.825483 
L 294.281313 -60.314629 
L 289.209912 -59.038075 
L 284.135745 -52.520969 
L 279.063338 -52.772908 
L 273.989348 -57.167092 
L 268.91719 -60.566311 
L 263.843613 -54.048261 
L 258.773153 -50.098667 
L 253.696403 -53.44382 
L 248.626779 -57.723857 
L 243.554335 -54.822147 
L 238.480677 -48.327707 
L 233.409347 -50.563164 
L 228.330164 -54.043681 
L 223.26084 -55.723433 
L 218.190974 -49.38208 
L 213.108343 -47.572402 
L 208.045327 -51.418087 
L 202.961634 -54.435627 
L 197.895437 -50.519057 
L 192.8238 -44.956678 
L 187.752668 -48.237229 
L 182.666117 -52.409323 
L 177.561457 -51.963792 
L 172.529665 -46.30884 
L 167.419221 -46.27939 
L 162.345091 -49.743518 
L 157.296135 -51.194819 
L 152.219571 -47.698646 
L 147.126643 -43.614109 
L 142.014489 -47.131038 
L 136.853944 -49.637862 
L 131.783021 -47.240503 
L 126.767259 -43.352561 
L 121.704395 -42.962174 
L 116.723848 -45.90969 
L 111.63092 -48.075058 
L 106.518766 -43.52112 
L 100.995188 -41.263687 
L 96.287298 -43.55317 
L 90.774455 -46.169434 
L 85.918898 -46.080304 
L 81.228125 -43.079449 
z
" style="stroke: #bcbd22; stroke-opacity: 0.2"/>
    </defs>
    <g clip-path="url(#pfa9fc462a0)">
     <use xlink:href="#me5acfcf2ac" x="0" y="531.670938" style="fill: #bcbd22; fill-opacity: 0.2; stroke: #bcbd22; stroke-opacity: 0.2"/>
    </g>
   </g>
   <g id="PolyCollection_2">
    <defs>
     <path id="meff8066cf2" d="M 81.228125 -46.95403 
L 81.228125 -44.143672 
L 85.918898 -47.405525 
L 90.774455 -43.502248 
L 96.287298 -42.816233 
L 100.995188 -41.607203 
L 106.518766 -45.348007 
L 111.63092 -47.336892 
L 116.723848 -44.940865 
L 121.704395 -43.132148 
L 126.767259 -44.0096 
L 131.783021 -46.694288 
L 136.853944 -47.950769 
L 142.014489 -45.993286 
L 147.126643 -44.243282 
L 152.219571 -47.505807 
L 157.296135 -51.115028 
L 162.345091 -49.254858 
L 167.419221 -46.482374 
L 172.529665 -46.96575 
L 177.561457 -51.689754 
L 182.666117 -51.758854 
L 187.752668 -49.5688 
L 192.8238 -47.31913 
L 197.895437 -51.615098 
L 202.961634 -54.836895 
L 208.045327 -52.269505 
L 213.108343 -50.160477 
L 218.190974 -51.536189 
L 223.26084 -56.215786 
L 228.330164 -55.605902 
L 233.409347 -52.96497 
L 238.480677 -51.353707 
L 243.554335 -56.541394 
L 248.626779 -59.163583 
L 253.696403 -56.231553 
L 258.773153 -53.716745 
L 263.843613 -56.260379 
L 268.91719 -61.734669 
L 273.989348 -59.669456 
L 279.063338 -56.839143 
L 284.135745 -56.650916 
L 289.209912 -62.012991 
L 294.281313 -63.634746 
L 299.354691 -59.93024 
L 304.428055 -56.939017 
L 309.500602 -61.730942 
L 314.573073 -67.090648 
L 319.645965 -64.253937 
L 324.718564 -60.851572 
L 329.79131 -61.945524 
L 334.864188 -67.886882 
L 339.936896 -68.54497 
L 345.009837 -65.106928 
L 350.082556 -62.376861 
L 355.155338 -68.232854 
L 360.228108 -72.202481 
L 365.300841 -68.699533 
L 370.373548 -65.605662 
L 375.446292 -68.148771 
L 380.518971 -74.073366 
L 385.591705 -72.950879 
L 390.664427 -69.733935 
L 395.737168 -68.683907 
L 400.809906 -74.335438 
L 405.88264 -77.595713 
L 410.955384 -74.066723 
L 416.028098 -71.094543 
L 421.10085 -75.393197 
L 426.173579 -81.603092 
L 431.246302 -78.958155 
L 436.319033 -75.551152 
L 441.391756 -77.182561 
L 446.464482 -83.949268 
L 451.53721 -85.852934 
L 456.609943 -83.042966 
L 461.682672 -84.866057 
L 466.755398 -93.366708 
L 471.828126 -99.227226 
L 476.900852 -100.607362 
L 481.973579 -100.008075 
L 487.046309 -104.810393 
L 492.119036 -112.357379 
L 497.191764 -117.086322 
L 502.264492 -117.34771 
L 507.337218 -118.198438 
L 512.409945 -126.304729 
L 517.482672 -138.448239 
L 522.555399 -139.165726 
L 527.628126 -137.626098 
L 532.700853 -142.353453 
L 537.773582 -153.414537 
L 542.84631 -157.803309 
L 547.919038 -155.021036 
L 552.991767 -154.766216 
L 558.064493 -164.392776 
L 563.137219 -172.764448 
L 568.209946 -170.131271 
L 573.282673 -167.965952 
L 578.355401 -175.818715 
L 583.428128 -192.247668 
L 588.500856 -191.268855 
L 593.573584 -188.063221 
L 598.646309 -192.278247 
L 603.719035 -201.966904 
L 608.791762 -211.311909 
L 613.86449 -209.799014 
L 618.937216 -205.478977 
L 624.009943 -213.555327 
L 629.082671 -227.265577 
L 634.155398 -226.826149 
L 639.228125 -224.832765 
L 639.228125 -230.65955 
L 639.228125 -230.65955 
L 634.155398 -236.532549 
L 629.082671 -227.957261 
L 624.009943 -214.730383 
L 618.937216 -206.591332 
L 613.86449 -212.510396 
L 608.791762 -212.736632 
L 603.719035 -209.83177 
L 598.646309 -192.638758 
L 593.573584 -191.786321 
L 588.500856 -192.363115 
L 583.428128 -195.502141 
L 578.355401 -176.454135 
L 573.282673 -169.239727 
L 568.209946 -171.495158 
L 563.137219 -173.244779 
L 558.064493 -166.050874 
L 552.991767 -155.93151 
L 547.919038 -155.486907 
L 542.84631 -158.4673 
L 537.773582 -154.056976 
L 532.700853 -143.210772 
L 527.628126 -143.90374 
L 522.555399 -140.553923 
L 517.482672 -139.093682 
L 512.409945 -126.853841 
L 507.337218 -118.600798 
L 502.264492 -117.541867 
L 497.191764 -117.201645 
L 492.119036 -112.930053 
L 487.046309 -105.832436 
L 481.973579 -101.249058 
L 476.900852 -101.244029 
L 471.828126 -102.145872 
L 466.755398 -96.429978 
L 461.682672 -88.293114 
L 456.609943 -87.447557 
L 451.53721 -87.696918 
L 446.464482 -85.838126 
L 441.391756 -77.779477 
L 436.319033 -76.24449 
L 431.246302 -79.67379 
L 426.173579 -81.971965 
L 421.10085 -76.074652 
L 416.028098 -71.255182 
L 410.955384 -74.318038 
L 405.88264 -77.822057 
L 400.809906 -74.644476 
L 395.737168 -69.013561 
L 390.664427 -69.808182 
L 385.591705 -73.047876 
L 380.518971 -74.262898 
L 375.446292 -68.212541 
L 370.373548 -65.644795 
L 365.300841 -68.80387 
L 360.228108 -72.248672 
L 355.155338 -68.390304 
L 350.082556 -62.406271 
L 345.009837 -65.159386 
L 339.936896 -68.62906 
L 334.864188 -68.044024 
L 329.79131 -62.080754 
L 324.718564 -60.932413 
L 319.645965 -64.28165 
L 314.573073 -67.144924 
L 309.500602 -61.929459 
L 304.428055 -56.96943 
L 299.354691 -59.97534 
L 294.281313 -63.71573 
L 289.209912 -62.162285 
L 284.135745 -56.711117 
L 279.063338 -56.984691 
L 273.989348 -59.80346 
L 268.91719 -61.83645 
L 263.843613 -56.496793 
L 258.773153 -53.955888 
L 253.696403 -56.382936 
L 248.626779 -59.375929 
L 243.554335 -56.811843 
L 238.480677 -51.393212 
L 233.409347 -53.320069 
L 228.330164 -55.755381 
L 223.26084 -56.397244 
L 218.190974 -51.622607 
L 213.108343 -50.197248 
L 208.045327 -52.72312 
L 202.961634 -55.005204 
L 197.895437 -51.899743 
L 192.8238 -47.369783 
L 187.752668 -49.835659 
L 182.666117 -52.769033 
L 177.561457 -52.010819 
L 172.529665 -47.662816 
L 167.419221 -47.255845 
L 162.345091 -49.679257 
L 157.296135 -51.207876 
L 152.219571 -48.099541 
L 147.126643 -44.539581 
L 142.014489 -47.140801 
L 136.853944 -49.220496 
L 131.783021 -48.45278 
L 126.767259 -44.757871 
L 121.704395 -43.890666 
L 116.723848 -45.923735 
L 111.63092 -48.901992 
L 106.518766 -47.005677 
L 100.995188 -41.664927 
L 96.287298 -43.910366 
L 90.774455 -45.453785 
L 85.918898 -47.727243 
L 81.228125 -46.95403 
z
" style="stroke: #d62728; stroke-opacity: 0.2"/>
    </defs>
    <g clip-path="url(#pfa9fc462a0)">
     <use xlink:href="#meff8066cf2" x="0" y="531.670938" style="fill: #d62728; fill-opacity: 0.2; stroke: #d62728; stroke-opacity: 0.2"/>
    </g>
   </g>
   <g id="PolyCollection_3">
    <defs>
     <path id="m784d091a79" d="M 81.228125 -42.932477 
L 81.228125 -41.591415 
L 85.918898 -45.109043 
L 90.774455 -43.367208 
L 96.287298 -42.41317 
L 100.995188 -41.43027 
L 106.518766 -45.935376 
L 111.63092 -45.94673 
L 116.723848 -44.996737 
L 121.704395 -42.85649 
L 126.767259 -44.661282 
L 131.783021 -45.510889 
L 136.853944 -46.441707 
L 142.014489 -45.357909 
L 147.126643 -43.772838 
L 152.219571 -47.358045 
L 157.296135 -49.141431 
L 162.345091 -47.803989 
L 167.419221 -45.81879 
L 172.529665 -46.110156 
L 177.561457 -50.089868 
L 182.666117 -50.391606 
L 187.752668 -48.691114 
L 192.8238 -47.023725 
L 197.895437 -50.442255 
L 202.961634 -53.379372 
L 208.045327 -51.220149 
L 213.108343 -49.448163 
L 218.190974 -50.759917 
L 223.26084 -54.78312 
L 228.330164 -54.051578 
L 233.409347 -51.991205 
L 238.480677 -50.693718 
L 243.554335 -54.924975 
L 248.626779 -57.260687 
L 253.696403 -54.795954 
L 258.773153 -52.616534 
L 263.843613 -54.953012 
L 268.91719 -59.565684 
L 273.989348 -58.025749 
L 279.063338 -55.642643 
L 284.135745 -55.378044 
L 289.209912 -59.906203 
L 294.281313 -61.817061 
L 299.354691 -58.816823 
L 304.428055 -56.480748 
L 309.500602 -60.380355 
L 314.573073 -65.042492 
L 319.645965 -62.360448 
L 324.718564 -59.519794 
L 329.79131 -60.601906 
L 334.864188 -66.030567 
L 339.936896 -66.185741 
L 345.009837 -62.921779 
L 350.082556 -60.560409 
L 355.155338 -65.870737 
L 360.228108 -69.828266 
L 365.300841 -66.840403 
L 370.373548 -63.921453 
L 375.446292 -66.292375 
L 380.518971 -71.807759 
L 385.591705 -70.944423 
L 390.664427 -68.030872 
L 395.737168 -67.068961 
L 400.809906 -72.268926 
L 405.88264 -75.138431 
L 410.955384 -72.069873 
L 416.028098 -69.589028 
L 421.10085 -73.207101 
L 426.173579 -78.493195 
L 431.246302 -76.493556 
L 436.319033 -73.463295 
L 441.391756 -74.897121 
L 446.464482 -81.046653 
L 451.53721 -82.573809 
L 456.609943 -80.847833 
L 461.682672 -82.728397 
L 466.755398 -89.839477 
L 471.828126 -93.430149 
L 476.900852 -94.20524 
L 481.973579 -94.421408 
L 487.046309 -97.073949 
L 492.119036 -101.564565 
L 497.191764 -104.147134 
L 502.264492 -105.280711 
L 507.337218 -105.832437 
L 512.409945 -110.831024 
L 517.482672 -118.080793 
L 522.555399 -118.19515 
L 527.628126 -117.394241 
L 532.700853 -120.254239 
L 537.773582 -129.688648 
L 542.84631 -132.851615 
L 547.919038 -129.681594 
L 552.991767 -129.569298 
L 558.064493 -138.95012 
L 563.137219 -147.138001 
L 568.209946 -145.097615 
L 573.282673 -143.03778 
L 578.355401 -148.209817 
L 583.428128 -160.151888 
L 588.500856 -159.464261 
L 593.573584 -155.422408 
L 598.646309 -157.008997 
L 603.719035 -167.904169 
L 608.791762 -174.538007 
L 613.86449 -171.238465 
L 618.937216 -168.584131 
L 624.009943 -175.204421 
L 629.082671 -188.019527 
L 634.155398 -186.481756 
L 639.228125 -183.11875 
L 639.228125 -190.258717 
L 639.228125 -190.258717 
L 634.155398 -195.397663 
L 629.082671 -189.208553 
L 624.009943 -184.364536 
L 618.937216 -172.172904 
L 613.86449 -171.87218 
L 608.791762 -178.063912 
L 603.719035 -171.811087 
L 598.646309 -159.808955 
L 593.573584 -157.680388 
L 588.500856 -160.412319 
L 583.428128 -162.187397 
L 578.355401 -149.942815 
L 573.282673 -143.32094 
L 568.209946 -146.290816 
L 563.137219 -147.927587 
L 558.064493 -140.047648 
L 552.991767 -130.835086 
L 547.919038 -130.37004 
L 542.84631 -133.086716 
L 537.773582 -130.028454 
L 532.700853 -120.757675 
L 527.628126 -118.912859 
L 522.555399 -119.251405 
L 517.482672 -118.935387 
L 512.409945 -111.208516 
L 507.337218 -105.914334 
L 502.264492 -105.430879 
L 497.191764 -104.76742 
L 492.119036 -102.550012 
L 487.046309 -98.022369 
L 481.973579 -96.489021 
L 476.900852 -94.303664 
L 471.828126 -94.054753 
L 466.755398 -91.99546 
L 461.682672 -85.98723 
L 456.609943 -83.52067 
L 451.53721 -83.644649 
L 446.464482 -82.535264 
L 441.391756 -75.464973 
L 436.319033 -74.883651 
L 431.246302 -76.828358 
L 426.173579 -78.675903 
L 421.10085 -73.851477 
L 416.028098 -69.832932 
L 410.955384 -72.162029 
L 405.88264 -75.314944 
L 400.809906 -72.382961 
L 395.737168 -67.145201 
L 390.664427 -68.299876 
L 385.591705 -70.982682 
L 380.518971 -71.875399 
L 375.446292 -66.385706 
L 370.373548 -63.981591 
L 365.300841 -66.864389 
L 360.228108 -69.94829 
L 355.155338 -66.071444 
L 350.082556 -60.64211 
L 345.009837 -62.976032 
L 339.936896 -66.212632 
L 334.864188 -66.209058 
L 329.79131 -60.80894 
L 324.718564 -59.607165 
L 319.645965 -62.460962 
L 314.573073 -65.092533 
L 309.500602 -60.476724 
L 304.428055 -56.577212 
L 299.354691 -59.022232 
L 294.281313 -61.934388 
L 289.209912 -59.965374 
L 284.135745 -55.460996 
L 279.063338 -55.725694 
L 273.989348 -58.216301 
L 268.91719 -59.771459 
L 263.843613 -55.157548 
L 258.773153 -52.661149 
L 253.696403 -54.882672 
L 248.626779 -57.363819 
L 243.554335 -55.293229 
L 238.480677 -50.94785 
L 233.409347 -52.2828 
L 228.330164 -54.395684 
L 223.26084 -54.9979 
L 218.190974 -51.146461 
L 213.108343 -49.552602 
L 208.045327 -51.445367 
L 202.961634 -53.52034 
L 197.895437 -51.100677 
L 192.8238 -47.162016 
L 187.752668 -49.004884 
L 182.666117 -51.079323 
L 177.561457 -50.306053 
L 172.529665 -46.35124 
L 167.419221 -46.574768 
L 162.345091 -48.230815 
L 157.296135 -49.239662 
L 152.219571 -49.025522 
L 147.126643 -44.108686 
L 142.014489 -45.984354 
L 136.853944 -47.308401 
L 131.783021 -47.152725 
L 126.767259 -44.895761 
L 121.704395 -43.668837 
L 116.723848 -46.046407 
L 111.63092 -47.312895 
L 106.518766 -46.735666 
L 100.995188 -41.452664 
L 96.287298 -43.346699 
L 90.774455 -45.560008 
L 85.918898 -45.518661 
L 81.228125 -42.932477 
z
" style="stroke: #9467bd; stroke-opacity: 0.2"/>
    </defs>
    <g clip-path="url(#pfa9fc462a0)">
     <use xlink:href="#m784d091a79" x="0" y="531.670938" style="fill: #9467bd; fill-opacity: 0.2; stroke: #9467bd; stroke-opacity: 0.2"/>
    </g>
   </g>
   <g id="PolyCollection_4">
    <defs>
     <path id="m0f5f7ff555" d="M 81.228125 -42.836317 
L 81.228125 -41.389566 
L 85.918898 -45.046314 
L 90.774455 -43.188971 
L 96.287298 -42.202551 
L 100.995188 -41.245218 
L 106.518766 -42.583886 
L 111.63092 -46.732307 
L 116.723848 -44.479693 
L 121.704395 -42.399465 
L 126.767259 -45.821898 
L 131.783021 -47.809674 
L 136.853944 -45.496197 
L 142.014489 -45.434881 
L 147.126643 -43.507516 
L 152.219571 -46.513382 
L 157.296135 -48.449586 
L 162.345091 -47.35088 
L 167.419221 -45.487917 
L 172.529665 -46.038545 
L 177.561457 -48.399902 
L 182.666117 -48.618048 
L 187.752668 -47.233046 
L 192.8238 -46.064373 
L 197.895437 -48.862158 
L 202.961634 -50.994176 
L 208.045327 -49.452889 
L 213.108343 -48.15084 
L 218.190974 -49.267544 
L 223.26084 -52.422612 
L 228.330164 -51.559222 
L 233.409347 -49.938704 
L 238.480677 -49.064778 
L 243.554335 -52.880275 
L 248.626779 -54.350179 
L 253.696403 -52.165075 
L 258.773153 -50.500537 
L 263.843613 -52.619272 
L 268.91719 -56.371292 
L 273.989348 -54.740495 
L 279.063338 -52.581923 
L 284.135745 -52.523893 
L 289.209912 -56.587032 
L 294.281313 -57.759969 
L 299.354691 -55.164293 
L 304.428055 -53.298471 
L 309.500602 -56.66757 
L 314.573073 -60.391328 
L 319.645965 -57.99412 
L 324.718564 -55.607579 
L 329.79131 -56.592952 
L 334.864188 -61.213272 
L 339.936896 -61.298105 
L 345.009837 -58.532386 
L 350.082556 -56.616387 
L 355.155338 -61.451328 
L 360.228108 -64.72645 
L 365.300841 -61.964766 
L 370.373548 -59.587232 
L 375.446292 -61.748023 
L 380.518971 -66.59008 
L 385.591705 -65.680948 
L 390.664427 -63.321353 
L 395.737168 -62.734062 
L 400.809906 -67.185516 
L 405.88264 -69.532938 
L 410.955384 -66.729736 
L 416.028098 -64.86455 
L 421.10085 -68.046084 
L 426.173579 -72.103181 
L 431.246302 -70.049816 
L 436.319033 -67.415406 
L 441.391756 -69.024914 
L 446.464482 -75.64679 
L 451.53721 -75.293075 
L 456.609943 -74.57176 
L 461.682672 -76.537767 
L 466.755398 -84.148007 
L 471.828126 -87.53998 
L 476.900852 -89.066746 
L 481.973579 -89.719496 
L 487.046309 -92.29124 
L 492.119036 -94.950375 
L 497.191764 -96.261908 
L 502.264492 -97.382894 
L 507.337218 -98.332647 
L 512.409945 -101.313568 
L 517.482672 -106.352918 
L 522.555399 -106.561743 
L 527.628126 -106.949881 
L 532.700853 -109.311935 
L 537.773582 -114.916365 
L 542.84631 -118.015084 
L 547.919038 -116.585265 
L 552.991767 -116.505872 
L 558.064493 -122.860925 
L 563.137219 -128.282118 
L 568.209946 -127.350705 
L 573.282673 -124.366959 
L 578.355401 -130.086495 
L 583.428128 -138.975058 
L 588.500856 -138.495015 
L 593.573584 -137.273623 
L 598.646309 -138.201285 
L 603.719035 -145.639361 
L 608.791762 -151.522643 
L 613.86449 -149.600743 
L 618.937216 -147.718911 
L 624.009943 -153.654419 
L 629.082671 -161.943258 
L 634.155398 -163.543503 
L 639.228125 -158.571095 
L 639.228125 -164.238961 
L 639.228125 -164.238961 
L 634.155398 -164.368876 
L 629.082671 -163.089551 
L 624.009943 -154.731469 
L 618.937216 -152.304336 
L 613.86449 -151.076734 
L 608.791762 -154.818386 
L 603.719035 -147.790041 
L 598.646309 -139.190233 
L 593.573584 -138.426683 
L 588.500856 -139.490688 
L 583.428128 -141.598895 
L 578.355401 -138.15086 
L 573.282673 -125.605599 
L 568.209946 -127.811926 
L 563.137219 -130.45405 
L 558.064493 -125.348595 
L 552.991767 -117.307258 
L 547.919038 -117.296872 
L 542.84631 -119.431424 
L 537.773582 -115.292271 
L 532.700853 -110.024525 
L 527.628126 -108.400399 
L 522.555399 -107.568948 
L 517.482672 -106.688864 
L 512.409945 -101.780646 
L 507.337218 -98.458499 
L 502.264492 -97.444184 
L 497.191764 -96.61795 
L 492.119036 -95.567077 
L 487.046309 -92.741185 
L 481.973579 -92.245532 
L 476.900852 -89.134566 
L 471.828126 -88.356171 
L 466.755398 -86.379488 
L 461.682672 -77.938242 
L 456.609943 -78.069859 
L 451.53721 -76.203178 
L 446.464482 -76.088498 
L 441.391756 -69.344467 
L 436.319033 -68.514663 
L 431.246302 -70.191452 
L 426.173579 -72.385477 
L 421.10085 -68.460638 
L 416.028098 -64.913782 
L 410.955384 -66.851015 
L 405.88264 -69.579006 
L 400.809906 -67.34942 
L 395.737168 -62.80468 
L 390.664427 -63.480621 
L 385.591705 -65.935966 
L 380.518971 -66.733228 
L 375.446292 -61.850219 
L 370.373548 -59.613329 
L 365.300841 -62.048462 
L 360.228108 -64.812277 
L 355.155338 -61.695368 
L 350.082556 -56.725424 
L 345.009837 -58.681823 
L 339.936896 -61.389552 
L 334.864188 -61.414725 
L 329.79131 -56.648357 
L 324.718564 -55.715799 
L 319.645965 -58.150023 
L 314.573073 -60.584734 
L 309.500602 -56.745349 
L 304.428055 -53.353629 
L 299.354691 -55.236321 
L 294.281313 -57.811425 
L 289.209912 -56.833207 
L 284.135745 -52.574075 
L 279.063338 -52.713598 
L 273.989348 -54.829603 
L 268.91719 -56.468689 
L 263.843613 -52.853136 
L 258.773153 -50.688401 
L 253.696403 -52.375753 
L 248.626779 -54.46421 
L 243.554335 -53.035475 
L 238.480677 -49.135889 
L 233.409347 -50.177531 
L 228.330164 -51.737217 
L 223.26084 -52.476898 
L 218.190974 -49.530963 
L 213.108343 -48.218129 
L 208.045327 -49.801419 
L 202.961634 -51.202242 
L 197.895437 -49.408042 
L 192.8238 -46.163628 
L 187.752668 -47.524142 
L 182.666117 -49.178332 
L 177.561457 -48.563532 
L 172.529665 -46.397749 
L 167.419221 -46.258985 
L 162.345091 -47.810212 
L 157.296135 -48.701904 
L 152.219571 -47.846908 
L 147.126643 -43.832138 
L 142.014489 -46.880639 
L 136.853944 -46.354199 
L 131.783021 -49.017034 
L 126.767259 -46.043018 
L 121.704395 -43.051966 
L 116.723848 -45.55666 
L 111.63092 -47.179644 
L 106.518766 -43.350679 
L 100.995188 -41.258105 
L 96.287298 -43.167668 
L 90.774455 -45.318226 
L 85.918898 -45.393204 
L 81.228125 -42.836317 
z
" style="stroke: #8c564b; stroke-opacity: 0.2"/>
    </defs>
    <g clip-path="url(#pfa9fc462a0)">
     <use xlink:href="#m0f5f7ff555" x="0" y="531.670938" style="fill: #8c564b; fill-opacity: 0.2; stroke: #8c564b; stroke-opacity: 0.2"/>
    </g>
   </g>
   <g id="matplotlib.axis_3">
    <g id="xtick_15">
     <g id="line2d_18">
      <path d="M 58.832817 494.114688 
L 58.832817 50.594688 
" clip-path="url(#pfa9fc462a0)" style="fill: none; stroke: #b0b0b0; stroke-opacity: 0.4; stroke-width: 0.8; stroke-linecap: square"/>
     </g>
     <g id="line2d_19">
      <defs>
       <path id="m90e41f69d4" d="M 0 0 
L 0 3.5 
" style="stroke: #000000; stroke-width: 0.8"/>
      </defs>
      <g>
       <use xlink:href="#m90e41f69d4" x="58.832817" y="494.114688" style="stroke: #000000; stroke-width: 0.8"/>
      </g>
     </g>
     <g id="text_16">
      <!-- $\mathdefault{2^{4}}$ -->
      <g transform="translate(53.232817 508.713125) scale(0.1 -0.1)">
       <use xlink:href="#DejaVuSans-32" transform="translate(0 0.684375)"/>
       <use xlink:href="#DejaVuSans-34" transform="translate(64.580078 38.965625) scale(0.7)"/>
      </g>
     </g>
    </g>
    <g id="xtick_16">
     <g id="line2d_20">
      <path d="M 103.623433 494.114688 
L 103.623433 50.594688 
" clip-path="url(#pfa9fc462a0)" style="fill: none; stroke: #b0b0b0; stroke-opacity: 0.4; stroke-width: 0.8; stroke-linecap: square"/>
     </g>
     <g id="line2d_21">
      <g>
       <use xlink:href="#m90e41f69d4" x="103.623433" y="494.114688" style="stroke: #000000; stroke-width: 0.8"/>
      </g>
     </g>
     <g id="text_17">
      <!-- $\mathdefault{2^{6}}$ -->
      <g transform="translate(98.023433 508.713125) scale(0.1 -0.1)">
       <use xlink:href="#DejaVuSans-32" transform="translate(0 0.765625)"/>
       <use xlink:href="#DejaVuSans-36" transform="translate(64.580078 39.046875) scale(0.7)"/>
      </g>
     </g>
    </g>
    <g id="xtick_17">
     <g id="line2d_22">
      <path d="M 148.414049 494.114688 
L 148.414049 50.594688 
" clip-path="url(#pfa9fc462a0)" style="fill: none; stroke: #b0b0b0; stroke-opacity: 0.4; stroke-width: 0.8; stroke-linecap: square"/>
     </g>
     <g id="line2d_23">
      <g>
       <use xlink:href="#m90e41f69d4" x="148.414049" y="494.114688" style="stroke: #000000; stroke-width: 0.8"/>
      </g>
     </g>
     <g id="text_18">
      <!-- $\mathdefault{2^{8}}$ -->
      <g transform="translate(142.814049 508.713125) scale(0.1 -0.1)">
       <use xlink:href="#DejaVuSans-32" transform="translate(0 0.765625)"/>
       <use xlink:href="#DejaVuSans-38" transform="translate(64.580078 39.046875) scale(0.7)"/>
      </g>
     </g>
    </g>
    <g id="xtick_18">
     <g id="line2d_24">
      <path d="M 193.204664 494.114688 
L 193.204664 50.594688 
" clip-path="url(#pfa9fc462a0)" style="fill: none; stroke: #b0b0b0; stroke-opacity: 0.4; stroke-width: 0.8; stroke-linecap: square"/>
     </g>
     <g id="line2d_25">
      <g>
       <use xlink:href="#m90e41f69d4" x="193.204664" y="494.114688" style="stroke: #000000; stroke-width: 0.8"/>
      </g>
     </g>
     <g id="text_19">
      <!-- $\mathdefault{2^{10}}$ -->
      <g transform="translate(185.354664 508.713125) scale(0.1 -0.1)">
       <use xlink:href="#DejaVuSans-32" transform="translate(0 0.765625)"/>
       <use xlink:href="#DejaVuSans-31" transform="translate(64.580078 39.046875) scale(0.7)"/>
       <use xlink:href="#DejaVuSans-30" transform="translate(109.116211 39.046875) scale(0.7)"/>
      </g>
     </g>
    </g>
    <g id="xtick_19">
     <g id="line2d_26">
      <path d="M 237.99528 494.114688 
L 237.99528 50.594688 
" clip-path="url(#pfa9fc462a0)" style="fill: none; stroke: #b0b0b0; stroke-opacity: 0.4; stroke-width: 0.8; stroke-linecap: square"/>
     </g>
     <g id="line2d_27">
      <g>
       <use xlink:href="#m90e41f69d4" x="237.99528" y="494.114688" style="stroke: #000000; stroke-width: 0.8"/>
      </g>
     </g>
     <g id="text_20">
      <!-- $\mathdefault{2^{12}}$ -->
      <g transform="translate(230.14528 508.713125) scale(0.1 -0.1)">
       <use xlink:href="#DejaVuSans-32" transform="translate(0 0.765625)"/>
       <use xlink:href="#DejaVuSans-31" transform="translate(64.580078 39.046875) scale(0.7)"/>
       <use xlink:href="#DejaVuSans-32" transform="translate(109.116211 39.046875) scale(0.7)"/>
      </g>
     </g>
    </g>
    <g id="xtick_20">
     <g id="line2d_28">
      <path d="M 282.785896 494.114688 
L 282.785896 50.594688 
" clip-path="url(#pfa9fc462a0)" style="fill: none; stroke: #b0b0b0; stroke-opacity: 0.4; stroke-width: 0.8; stroke-linecap: square"/>
     </g>
     <g id="line2d_29">
      <g>
       <use xlink:href="#m90e41f69d4" x="282.785896" y="494.114688" style="stroke: #000000; stroke-width: 0.8"/>
      </g>
     </g>
     <g id="text_21">
      <!-- $\mathdefault{2^{14}}$ -->
      <g transform="translate(274.935896 508.713125) scale(0.1 -0.1)">
       <use xlink:href="#DejaVuSans-32" transform="translate(0 0.684375)"/>
       <use xlink:href="#DejaVuSans-31" transform="translate(64.580078 38.965625) scale(0.7)"/>
       <use xlink:href="#DejaVuSans-34" transform="translate(109.116211 38.965625) scale(0.7)"/>
      </g>
     </g>
    </g>
    <g id="xtick_21">
     <g id="line2d_30">
      <path d="M 327.576512 494.114688 
L 327.576512 50.594688 
" clip-path="url(#pfa9fc462a0)" style="fill: none; stroke: #b0b0b0; stroke-opacity: 0.4; stroke-width: 0.8; stroke-linecap: square"/>
     </g>
     <g id="line2d_31">
      <g>
       <use xlink:href="#m90e41f69d4" x="327.576512" y="494.114688" style="stroke: #000000; stroke-width: 0.8"/>
      </g>
     </g>
     <g id="text_22">
      <!-- $\mathdefault{2^{16}}$ -->
      <g transform="translate(319.726512 508.713125) scale(0.1 -0.1)">
       <use xlink:href="#DejaVuSans-32" transform="translate(0 0.765625)"/>
       <use xlink:href="#DejaVuSans-31" transform="translate(64.580078 39.046875) scale(0.7)"/>
       <use xlink:href="#DejaVuSans-36" transform="translate(109.116211 39.046875) scale(0.7)"/>
      </g>
     </g>
    </g>
    <g id="xtick_22">
     <g id="line2d_32">
      <path d="M 372.367127 494.114688 
L 372.367127 50.594688 
" clip-path="url(#pfa9fc462a0)" style="fill: none; stroke: #b0b0b0; stroke-opacity: 0.4; stroke-width: 0.8; stroke-linecap: square"/>
     </g>
     <g id="line2d_33">
      <g>
       <use xlink:href="#m90e41f69d4" x="372.367127" y="494.114688" style="stroke: #000000; stroke-width: 0.8"/>
      </g>
     </g>
     <g id="text_23">
      <!-- $\mathdefault{2^{18}}$ -->
      <g transform="translate(364.517127 508.713125) scale(0.1 -0.1)">
       <use xlink:href="#DejaVuSans-32" transform="translate(0 0.765625)"/>
       <use xlink:href="#DejaVuSans-31" transform="translate(64.580078 39.046875) scale(0.7)"/>
       <use xlink:href="#DejaVuSans-38" transform="translate(109.116211 39.046875) scale(0.7)"/>
      </g>
     </g>
    </g>
    <g id="xtick_23">
     <g id="line2d_34">
      <path d="M 417.157743 494.114688 
L 417.157743 50.594688 
" clip-path="url(#pfa9fc462a0)" style="fill: none; stroke: #b0b0b0; stroke-opacity: 0.4; stroke-width: 0.8; stroke-linecap: square"/>
     </g>
     <g id="line2d_35">
      <g>
       <use xlink:href="#m90e41f69d4" x="417.157743" y="494.114688" style="stroke: #000000; stroke-width: 0.8"/>
      </g>
     </g>
     <g id="text_24">
      <!-- $\mathdefault{2^{20}}$ -->
      <g transform="translate(409.307743 508.713125) scale(0.1 -0.1)">
       <use xlink:href="#DejaVuSans-32" transform="translate(0 0.765625)"/>
       <use xlink:href="#DejaVuSans-32" transform="translate(64.580078 39.046875) scale(0.7)"/>
       <use xlink:href="#DejaVuSans-30" transform="translate(109.116211 39.046875) scale(0.7)"/>
      </g>
     </g>
    </g>
    <g id="xtick_24">
     <g id="line2d_36">
      <path d="M 461.948359 494.114688 
L 461.948359 50.594688 
" clip-path="url(#pfa9fc462a0)" style="fill: none; stroke: #b0b0b0; stroke-opacity: 0.4; stroke-width: 0.8; stroke-linecap: square"/>
     </g>
     <g id="line2d_37">
      <g>
       <use xlink:href="#m90e41f69d4" x="461.948359" y="494.114688" style="stroke: #000000; stroke-width: 0.8"/>
      </g>
     </g>
     <g id="text_25">
      <!-- $\mathdefault{2^{22}}$ -->
      <g transform="translate(454.098359 508.713125) scale(0.1 -0.1)">
       <use xlink:href="#DejaVuSans-32" transform="translate(0 0.765625)"/>
       <use xlink:href="#DejaVuSans-32" transform="translate(64.580078 39.046875) scale(0.7)"/>
       <use xlink:href="#DejaVuSans-32" transform="translate(109.116211 39.046875) scale(0.7)"/>
      </g>
     </g>
    </g>
    <g id="xtick_25">
     <g id="line2d_38">
      <path d="M 506.738974 494.114688 
L 506.738974 50.594688 
" clip-path="url(#pfa9fc462a0)" style="fill: none; stroke: #b0b0b0; stroke-opacity: 0.4; stroke-width: 0.8; stroke-linecap: square"/>
     </g>
     <g id="line2d_39">
      <g>
       <use xlink:href="#m90e41f69d4" x="506.738974" y="494.114688" style="stroke: #000000; stroke-width: 0.8"/>
      </g>
     </g>
     <g id="text_26">
      <!-- $\mathdefault{2^{24}}$ -->
      <g transform="translate(498.888974 508.713125) scale(0.1 -0.1)">
       <use xlink:href="#DejaVuSans-32" transform="translate(0 0.765625)"/>
       <use xlink:href="#DejaVuSans-32" transform="translate(64.580078 39.046875) scale(0.7)"/>
       <use xlink:href="#DejaVuSans-34" transform="translate(109.116211 39.046875) scale(0.7)"/>
      </g>
     </g>
    </g>
    <g id="xtick_26">
     <g id="line2d_40">
      <path d="M 551.52959 494.114688 
L 551.52959 50.594688 
" clip-path="url(#pfa9fc462a0)" style="fill: none; stroke: #b0b0b0; stroke-opacity: 0.4; stroke-width: 0.8; stroke-linecap: square"/>
     </g>
     <g id="line2d_41">
      <g>
       <use xlink:href="#m90e41f69d4" x="551.52959" y="494.114688" style="stroke: #000000; stroke-width: 0.8"/>
      </g>
     </g>
     <g id="text_27">
      <!-- $\mathdefault{2^{26}}$ -->
      <g transform="translate(543.67959 508.713125) scale(0.1 -0.1)">
       <use xlink:href="#DejaVuSans-32" transform="translate(0 0.765625)"/>
       <use xlink:href="#DejaVuSans-32" transform="translate(64.580078 39.046875) scale(0.7)"/>
       <use xlink:href="#DejaVuSans-36" transform="translate(109.116211 39.046875) scale(0.7)"/>
      </g>
     </g>
    </g>
    <g id="xtick_27">
     <g id="line2d_42">
      <path d="M 596.320206 494.114688 
L 596.320206 50.594688 
" clip-path="url(#pfa9fc462a0)" style="fill: none; stroke: #b0b0b0; stroke-opacity: 0.4; stroke-width: 0.8; stroke-linecap: square"/>
     </g>
     <g id="line2d_43">
      <g>
       <use xlink:href="#m90e41f69d4" x="596.320206" y="494.114688" style="stroke: #000000; stroke-width: 0.8"/>
      </g>
     </g>
     <g id="text_28">
      <!-- $\mathdefault{2^{28}}$ -->
      <g transform="translate(588.470206 508.713125) scale(0.1 -0.1)">
       <use xlink:href="#DejaVuSans-32" transform="translate(0 0.765625)"/>
       <use xlink:href="#DejaVuSans-32" transform="translate(64.580078 39.046875) scale(0.7)"/>
       <use xlink:href="#DejaVuSans-38" transform="translate(109.116211 39.046875) scale(0.7)"/>
      </g>
     </g>
    </g>
    <g id="xtick_28">
     <g id="line2d_44">
      <path d="M 641.110822 494.114688 
L 641.110822 50.594688 
" clip-path="url(#pfa9fc462a0)" style="fill: none; stroke: #b0b0b0; stroke-opacity: 0.4; stroke-width: 0.8; stroke-linecap: square"/>
     </g>
     <g id="line2d_45">
      <g>
       <use xlink:href="#m90e41f69d4" x="641.110822" y="494.114688" style="stroke: #000000; stroke-width: 0.8"/>
      </g>
     </g>
     <g id="text_29">
      <!-- $\mathdefault{2^{30}}$ -->
      <g transform="translate(633.260822 508.713125) scale(0.1 -0.1)">
       <use xlink:href="#DejaVuSans-32" transform="translate(0 0.765625)"/>
       <use xlink:href="#DejaVuSans-33" transform="translate(64.580078 39.046875) scale(0.7)"/>
       <use xlink:href="#DejaVuSans-30" transform="translate(109.116211 39.046875) scale(0.7)"/>
      </g>
     </g>
    </g>
    <g id="text_30">
     <!-- Input size (bytes) -->
     <g transform="translate(316.732031 522.39125) scale(0.1 -0.1)">
      <defs>
       <path id="DejaVuSans-49" d="M 628 4666 
L 1259 4666 
L 1259 0 
L 628 0 
L 628 4666 
z
" transform="scale(0.015625)"/>
       <path id="DejaVuSans-70" d="M 1159 525 
L 1159 -1331 
L 581 -1331 
L 581 3500 
L 1159 3500 
L 1159 2969 
Q 1341 3281 1617 3432 
Q 1894 3584 2278 3584 
Q 2916 3584 3314 3078 
Q 3713 2572 3713 1747 
Q 3713 922 3314 415 
Q 2916 -91 2278 -91 
Q 1894 -91 1617 61 
Q 1341 213 1159 525 
z
M 3116 1747 
Q 3116 2381 2855 2742 
Q 2594 3103 2138 3103 
Q 1681 3103 1420 2742 
Q 1159 2381 1159 1747 
Q 1159 1113 1420 752 
Q 1681 391 2138 391 
Q 2594 391 2855 752 
Q 3116 1113 3116 1747 
z
" transform="scale(0.015625)"/>
       <path id="DejaVuSans-73" d="M 2834 3397 
L 2834 2853 
Q 2591 2978 2328 3040 
Q 2066 3103 1784 3103 
Q 1356 3103 1142 2972 
Q 928 2841 928 2578 
Q 928 2378 1081 2264 
Q 1234 2150 1697 2047 
L 1894 2003 
Q 2506 1872 2764 1633 
Q 3022 1394 3022 966 
Q 3022 478 2636 193 
Q 2250 -91 1575 -91 
Q 1294 -91 989 -36 
Q 684 19 347 128 
L 347 722 
Q 666 556 975 473 
Q 1284 391 1588 391 
Q 1994 391 2212 530 
Q 2431 669 2431 922 
Q 2431 1156 2273 1281 
Q 2116 1406 1581 1522 
L 1381 1569 
Q 847 1681 609 1914 
Q 372 2147 372 2553 
Q 372 3047 722 3315 
Q 1072 3584 1716 3584 
Q 2034 3584 2315 3537 
Q 2597 3491 2834 3397 
z
" transform="scale(0.015625)"/>
       <path id="DejaVuSans-69" d="M 603 3500 
L 1178 3500 
L 1178 0 
L 603 0 
L 603 3500 
z
M 603 4863 
L 1178 4863 
L 1178 4134 
L 603 4134 
L 603 4863 
z
" transform="scale(0.015625)"/>
       <path id="DejaVuSans-7a" d="M 353 3500 
L 3084 3500 
L 3084 2975 
L 922 459 
L 3084 459 
L 3084 0 
L 275 0 
L 275 525 
L 2438 3041 
L 353 3041 
L 353 3500 
z
" transform="scale(0.015625)"/>
       <path id="DejaVuSans-62" d="M 3116 1747 
Q 3116 2381 2855 2742 
Q 2594 3103 2138 3103 
Q 1681 3103 1420 2742 
Q 1159 2381 1159 1747 
Q 1159 1113 1420 752 
Q 1681 391 2138 391 
Q 2594 391 2855 752 
Q 3116 1113 3116 1747 
z
M 1159 2969 
Q 1341 3281 1617 3432 
Q 1894 3584 2278 3584 
Q 2916 3584 3314 3078 
Q 3713 2572 3713 1747 
Q 3713 922 3314 415 
Q 2916 -91 2278 -91 
Q 1894 -91 1617 61 
Q 1341 213 1159 525 
L 1159 0 
L 581 0 
L 581 4863 
L 1159 4863 
L 1159 2969 
z
" transform="scale(0.015625)"/>
      </defs>
      <use xlink:href="#DejaVuSans-49"/>
      <use xlink:href="#DejaVuSans-6e" x="29.492188"/>
      <use xlink:href="#DejaVuSans-70" x="92.871094"/>
      <use xlink:href="#DejaVuSans-75" x="156.347656"/>
      <use xlink:href="#DejaVuSans-74" x="219.726562"/>
      <use xlink:href="#DejaVuSans-20" x="258.935547"/>
      <use xlink:href="#DejaVuSans-73" x="290.722656"/>
      <use xlink:href="#DejaVuSans-69" x="342.822266"/>
      <use xlink:href="#DejaVuSans-7a" x="370.605469"/>
      <use xlink:href="#DejaVuSans-65" x="423.095703"/>
      <use xlink:href="#DejaVuSans-20" x="484.619141"/>
      <use xlink:href="#DejaVuSans-28" x="516.40625"/>
      <use xlink:href="#DejaVuSans-62" x="555.419922"/>
      <use xlink:href="#DejaVuSans-79" x="618.896484"/>
      <use xlink:href="#DejaVuSans-74" x="678.076172"/>
      <use xlink:href="#DejaVuSans-65" x="717.285156"/>
      <use xlink:href="#DejaVuSans-73" x="778.808594"/>
      <use xlink:href="#DejaVuSans-29" x="830.908203"/>
     </g>
    </g>
   </g>
   <g id="matplotlib.axis_4">
    <g id="ytick_1">
     <g id="line2d_46">
      <path d="M 53.328125 494.114688 
L 667.128125 494.114688 
" clip-path="url(#pfa9fc462a0)" style="fill: none; stroke: #b0b0b0; stroke-opacity: 0.4; stroke-width: 0.8; stroke-linecap: square"/>
     </g>
     <g id="line2d_47">
      <defs>
       <path id="mc4ecfa2e97" d="M 0 0 
L -3.5 0 
" style="stroke: #000000; stroke-width: 0.8"/>
      </defs>
      <g>
       <use xlink:href="#mc4ecfa2e97" x="53.328125" y="494.114688" style="stroke: #000000; stroke-width: 0.8"/>
      </g>
     </g>
     <g id="text_31">
      <!-- 0 -->
      <g transform="translate(39.965625 497.913906) scale(0.1 -0.1)">
       <use xlink:href="#DejaVuSans-30"/>
      </g>
     </g>
    </g>
    <g id="ytick_2">
     <g id="line2d_48">
      <path d="M 53.328125 405.410688 
L 667.128125 405.410688 
" clip-path="url(#pfa9fc462a0)" style="fill: none; stroke: #b0b0b0; stroke-opacity: 0.4; stroke-width: 0.8; stroke-linecap: square"/>
     </g>
     <g id="line2d_49">
      <g>
       <use xlink:href="#mc4ecfa2e97" x="53.328125" y="405.410688" style="stroke: #000000; stroke-width: 0.8"/>
      </g>
     </g>
     <g id="text_32">
      <!-- 200 -->
      <g transform="translate(27.240625 409.209906) scale(0.1 -0.1)">
       <use xlink:href="#DejaVuSans-32"/>
       <use xlink:href="#DejaVuSans-30" x="63.623047"/>
       <use xlink:href="#DejaVuSans-30" x="127.246094"/>
      </g>
     </g>
    </g>
    <g id="ytick_3">
     <g id="line2d_50">
      <path d="M 53.328125 316.706688 
L 667.128125 316.706688 
" clip-path="url(#pfa9fc462a0)" style="fill: none; stroke: #b0b0b0; stroke-opacity: 0.4; stroke-width: 0.8; stroke-linecap: square"/>
     </g>
     <g id="line2d_51">
      <g>
       <use xlink:href="#mc4ecfa2e97" x="53.328125" y="316.706688" style="stroke: #000000; stroke-width: 0.8"/>
      </g>
     </g>
     <g id="text_33">
      <!-- 400 -->
      <g transform="translate(27.240625 320.505906) scale(0.1 -0.1)">
       <use xlink:href="#DejaVuSans-34"/>
       <use xlink:href="#DejaVuSans-30" x="63.623047"/>
       <use xlink:href="#DejaVuSans-30" x="127.246094"/>
      </g>
     </g>
    </g>
    <g id="ytick_4">
     <g id="line2d_52">
      <path d="M 53.328125 228.002688 
L 667.128125 228.002688 
" clip-path="url(#pfa9fc462a0)" style="fill: none; stroke: #b0b0b0; stroke-opacity: 0.4; stroke-width: 0.8; stroke-linecap: square"/>
     </g>
     <g id="line2d_53">
      <g>
       <use xlink:href="#mc4ecfa2e97" x="53.328125" y="228.002688" style="stroke: #000000; stroke-width: 0.8"/>
      </g>
     </g>
     <g id="text_34">
      <!-- 600 -->
      <g transform="translate(27.240625 231.801906) scale(0.1 -0.1)">
       <use xlink:href="#DejaVuSans-36"/>
       <use xlink:href="#DejaVuSans-30" x="63.623047"/>
       <use xlink:href="#DejaVuSans-30" x="127.246094"/>
      </g>
     </g>
    </g>
    <g id="ytick_5">
     <g id="line2d_54">
      <path d="M 53.328125 139.298688 
L 667.128125 139.298688 
" clip-path="url(#pfa9fc462a0)" style="fill: none; stroke: #b0b0b0; stroke-opacity: 0.4; stroke-width: 0.8; stroke-linecap: square"/>
     </g>
     <g id="line2d_55">
      <g>
       <use xlink:href="#mc4ecfa2e97" x="53.328125" y="139.298688" style="stroke: #000000; stroke-width: 0.8"/>
      </g>
     </g>
     <g id="text_35">
      <!-- 800 -->
      <g transform="translate(27.240625 143.097906) scale(0.1 -0.1)">
       <use xlink:href="#DejaVuSans-38"/>
       <use xlink:href="#DejaVuSans-30" x="63.623047"/>
       <use xlink:href="#DejaVuSans-30" x="127.246094"/>
      </g>
     </g>
    </g>
    <g id="ytick_6">
     <g id="line2d_56">
      <path d="M 53.328125 50.594688 
L 667.128125 50.594688 
" clip-path="url(#pfa9fc462a0)" style="fill: none; stroke: #b0b0b0; stroke-opacity: 0.4; stroke-width: 0.8; stroke-linecap: square"/>
     </g>
     <g id="line2d_57">
      <g>
       <use xlink:href="#mc4ecfa2e97" x="53.328125" y="50.594688" style="stroke: #000000; stroke-width: 0.8"/>
      </g>
     </g>
     <g id="text_36">
      <!-- 1000 -->
      <g transform="translate(20.878125 54.393906) scale(0.1 -0.1)">
       <use xlink:href="#DejaVuSans-31"/>
       <use xlink:href="#DejaVuSans-30" x="63.623047"/>
       <use xlink:href="#DejaVuSans-30" x="127.246094"/>
       <use xlink:href="#DejaVuSans-30" x="190.869141"/>
      </g>
     </g>
    </g>
    <g id="text_37">
     <!-- Inverse throughput (ns) -->
     <g transform="translate(14.798438 331.570313) rotate(-90) scale(0.1 -0.1)">
      <defs>
       <path id="DejaVuSans-76" d="M 191 3500 
L 800 3500 
L 1894 563 
L 2988 3500 
L 3597 3500 
L 2284 0 
L 1503 0 
L 191 3500 
z
" transform="scale(0.015625)"/>
       <path id="DejaVuSans-6f" d="M 1959 3097 
Q 1497 3097 1228 2736 
Q 959 2375 959 1747 
Q 959 1119 1226 758 
Q 1494 397 1959 397 
Q 2419 397 2687 759 
Q 2956 1122 2956 1747 
Q 2956 2369 2687 2733 
Q 2419 3097 1959 3097 
z
M 1959 3584 
Q 2709 3584 3137 3096 
Q 3566 2609 3566 1747 
Q 3566 888 3137 398 
Q 2709 -91 1959 -91 
Q 1206 -91 779 398 
Q 353 888 353 1747 
Q 353 2609 779 3096 
Q 1206 3584 1959 3584 
z
" transform="scale(0.015625)"/>
      </defs>
      <use xlink:href="#DejaVuSans-49"/>
      <use xlink:href="#DejaVuSans-6e" x="29.492188"/>
      <use xlink:href="#DejaVuSans-76" x="92.871094"/>
      <use xlink:href="#DejaVuSans-65" x="152.050781"/>
      <use xlink:href="#DejaVuSans-72" x="213.574219"/>
      <use xlink:href="#DejaVuSans-73" x="254.6875"/>
      <use xlink:href="#DejaVuSans-65" x="306.787109"/>
      <use xlink:href="#DejaVuSans-20" x="368.310547"/>
      <use xlink:href="#DejaVuSans-74" x="400.097656"/>
      <use xlink:href="#DejaVuSans-68" x="439.306641"/>
      <use xlink:href="#DejaVuSans-72" x="502.685547"/>
      <use xlink:href="#DejaVuSans-6f" x="541.548828"/>
      <use xlink:href="#DejaVuSans-75" x="602.730469"/>
      <use xlink:href="#DejaVuSans-67" x="666.109375"/>
      <use xlink:href="#DejaVuSans-68" x="729.585938"/>
      <use xlink:href="#DejaVuSans-70" x="792.964844"/>
      <use xlink:href="#DejaVuSans-75" x="856.441406"/>
      <use xlink:href="#DejaVuSans-74" x="919.820312"/>
      <use xlink:href="#DejaVuSans-20" x="959.029297"/>
      <use xlink:href="#DejaVuSans-28" x="990.816406"/>
      <use xlink:href="#DejaVuSans-6e" x="1029.830078"/>
      <use xlink:href="#DejaVuSans-73" x="1093.208984"/>
      <use xlink:href="#DejaVuSans-29" x="1145.308594"/>
     </g>
    </g>
   </g>
   <g id="line2d_58">
    <path d="M 81.228125 490.083823 
L 85.918898 485.874099 
L 90.774455 485.549206 
L 96.287298 488.967394 
L 100.995188 490.513404 
L 106.518766 488.896014 
L 111.63092 483.63776 
L 116.723848 486.18582 
L 121.704395 488.833974 
L 126.767259 489.470378 
L 131.783021 484.904714 
L 136.853944 482.235955 
L 142.014489 485.683591 
L 147.126643 488.154074 
L 152.219571 484.432118 
L 157.296135 480.526259 
L 162.345091 482.136404 
L 167.419221 485.541566 
L 172.529665 485.471642 
L 177.561457 479.79016 
L 182.666117 479.877746 
L 187.752668 483.745979 
L 192.8238 486.747006 
L 197.895437 481.347524 
L 202.961634 477.239564 
L 208.045327 480.754329 
L 213.108343 484.164868 
L 218.190974 482.421173 
L 223.26084 476.215467 
L 228.330164 477.684335 
L 233.409347 481.396002 
L 238.480677 483.377941 
L 243.554335 476.901793 
L 248.626779 474.286328 
L 253.696403 478.39918 
L 258.773153 481.583637 
L 263.843613 477.627404 
L 268.91719 471.115602 
L 273.989348 474.64661 
L 279.063338 478.924632 
L 284.135745 479.181879 
L 289.209912 472.831394 
L 294.281313 471.374763 
L 299.354691 475.856402 
L 304.428055 479.33256 
L 309.500602 473.599424 
L 314.573073 467.042662 
L 319.645965 471.499176 
L 324.718564 475.627541 
L 329.79131 474.149614 
L 334.864188 466.181533 
L 339.936896 466.308075 
L 345.009837 471.432974 
L 350.082556 475.205451 
L 355.155338 466.66106 
L 360.228108 460.723294 
L 365.300841 466.346957 
L 370.373548 471.011433 
L 375.446292 465.584154 
L 380.518971 457.617218 
L 385.591705 459.902962 
L 390.664427 465.020887 
L 395.737168 466.316275 
L 400.809906 456.542699 
L 405.88264 450.156728 
L 410.955384 454.71624 
L 416.028098 458.541019 
L 421.10085 451.913851 
L 426.173579 441.058539 
L 431.246302 444.195418 
L 436.319033 447.771175 
L 441.391756 446.550787 
L 446.464482 433.514807 
L 451.53721 429.746819 
L 456.609943 433.559571 
L 461.682672 433.459085 
L 466.755398 419.169355 
L 471.828126 405.777281 
L 476.900852 401.813717 
L 481.973579 390.88105 
L 487.046309 389.521283 
L 492.119036 374.096691 
L 497.191764 369.502868 
L 502.264492 367.63829 
L 507.337218 336.056024 
L 512.409945 346.225614 
L 517.482672 335.627202 
L 522.555399 335.21092 
L 527.628126 332.491987 
L 532.700853 322.77097 
L 537.773582 308.421223 
L 542.84631 302.040617 
L 547.919038 302.024438 
L 552.991767 295.297805 
L 558.064493 280.209846 
L 563.137219 267.236414 
L 568.209946 269.099751 
L 573.282673 269.001467 
L 578.355401 258.334357 
L 583.428128 239.352604 
L 588.500856 235.871132 
L 593.573584 236.440008 
L 598.646309 229.416739 
L 603.719035 211.331211 
L 608.791762 200.653179 
L 613.86449 200.337043 
L 618.937216 202.938472 
L 624.009943 174.312734 
L 629.082671 167.700403 
L 634.155398 167.297214 
L 639.228125 166.172121 
" clip-path="url(#pfa9fc462a0)" style="fill: none; stroke: #bcbd22; stroke-linecap: square"/>
   </g>
   <g id="line2d_59">
    <path d="M 81.228125 486.634549 
L 85.918898 484.203049 
L 90.774455 486.782766 
L 96.287298 488.575068 
L 100.995188 490.057137 
L 106.518766 485.099442 
L 111.63092 484.294527 
L 116.723848 486.003387 
L 121.704395 487.952758 
L 126.767259 487.604727 
L 131.783021 483.564287 
L 136.853944 482.645995 
L 142.014489 485.41011 
L 147.126643 487.425811 
L 152.219571 483.883863 
L 157.296135 480.465542 
L 162.345091 482.1348 
L 167.419221 484.448024 
L 172.529665 484.475927 
L 177.561457 479.664944 
L 182.666117 479.367148 
L 187.752668 482.101377 
L 192.8238 484.315325 
L 197.895437 479.985903 
L 202.961634 476.716489 
L 208.045327 479.302421 
L 213.108343 481.493544 
L 218.190974 480.103405 
L 223.26084 475.281083 
L 228.330164 475.956463 
L 233.409347 478.469144 
L 238.480677 480.289196 
L 243.554335 475.048992 
L 248.626779 472.328299 
L 253.696403 475.398733 
L 258.773153 477.911562 
L 263.843613 475.216731 
L 268.91719 469.891608 
L 273.989348 471.952519 
L 279.063338 474.758758 
L 284.135745 475.001459 
L 289.209912 469.589224 
L 294.281313 467.981367 
L 299.354691 471.705524 
L 304.428055 474.723628 
L 309.500602 469.835686 
L 314.573073 464.557901 
L 319.645965 467.404022 
L 324.718564 470.786251 
L 329.79131 469.629902 
L 334.864188 463.711844 
L 339.936896 463.050706 
L 345.009837 466.557452 
L 350.082556 469.276387 
L 355.155338 463.423807 
L 360.228108 459.444406 
L 365.300841 462.962629 
L 370.373548 466.044149 
L 375.446292 463.52207 
L 380.518971 457.534555 
L 385.591705 458.627306 
L 390.664427 461.921931 
L 395.737168 462.761702 
L 400.809906 457.271731 
L 405.88264 453.993047 
L 410.955384 457.468818 
L 416.028098 460.524684 
L 421.10085 456.068496 
L 426.173579 449.809659 
L 431.246302 452.397672 
L 436.319033 455.477131 
L 441.391756 454.358695 
L 446.464482 447.588385 
L 451.53721 444.941449 
L 456.609943 448.560135 
L 461.682672 444.273799 
L 466.755398 437.838168 
L 471.828126 432.387554 
L 476.900852 430.824299 
L 481.973579 431.572992 
L 487.046309 426.537621 
L 492.119036 419.240652 
L 497.191764 414.526071 
L 502.264492 414.302664 
L 507.337218 413.41616 
L 512.409945 405.017681 
L 517.482672 392.836526 
L 522.555399 392.062116 
L 527.628126 393.295158 
L 532.700853 388.619543 
L 537.773582 378.248821 
L 542.84631 373.241474 
L 547.919038 376.534856 
L 552.991767 376.381875 
L 558.064493 366.934128 
L 563.137219 358.462758 
L 568.209946 360.947918 
L 573.282673 363.171466 
L 578.355401 355.615475 
L 583.428128 337.445433 
L 588.500856 340.358487 
L 593.573584 341.304845 
L 598.646309 339.327535 
L 603.719035 327.497552 
L 608.791762 320.11202 
L 613.86449 321.135788 
L 618.937216 325.701096 
L 624.009943 317.538409 
L 629.082671 303.963467 
L 634.155398 304.596823 
L 639.228125 305.132669 
" clip-path="url(#pfa9fc462a0)" style="fill: none; stroke: #d62728; stroke-linecap: square"/>
   </g>
   <g id="line2d_60">
    <path d="M 81.228125 490.003 
L 85.918898 486.442902 
L 90.774455 486.450531 
L 96.287298 488.992249 
L 100.995188 490.225647 
L 106.518766 485.516833 
L 111.63092 485.604123 
L 116.723848 486.03677 
L 121.704395 488.1486 
L 126.767259 486.815058 
L 131.783021 484.999166 
L 136.853944 484.37941 
L 142.014489 486.301663 
L 147.126643 487.881428 
L 152.219571 484.292365 
L 157.296135 482.438225 
L 162.345091 483.475404 
L 167.419221 485.173607 
L 172.529665 485.383913 
L 177.561457 481.475889 
L 182.666117 480.941733 
L 187.752668 482.932079 
L 192.8238 484.622995 
L 197.895437 480.789969 
L 202.961634 478.27768 
L 208.045327 480.353229 
L 213.108343 482.13711 
L 218.190974 480.90797 
L 223.26084 476.83139 
L 228.330164 477.363204 
L 233.409347 479.639767 
L 238.480677 480.952312 
L 243.554335 476.414002 
L 248.626779 474.313777 
L 253.696403 476.792293 
L 258.773153 479.015001 
L 263.843613 476.631029 
L 268.91719 471.972034 
L 273.989348 473.638458 
L 279.063338 475.978801 
L 284.135745 476.266699 
L 289.209912 471.722779 
L 294.281313 469.747147 
L 299.354691 472.710903 
L 304.428055 475.140017 
L 309.500602 471.21713 
L 314.573073 466.603598 
L 319.645965 469.304177 
L 324.718564 472.108789 
L 329.79131 471.021231 
L 334.864188 465.562907 
L 339.936896 465.460112 
L 345.009837 468.731989 
L 350.082556 471.104232 
L 355.155338 465.699102 
L 360.228108 461.753702 
L 365.300841 464.828157 
L 370.373548 467.69369 
L 375.446292 465.334086 
L 380.518971 459.825072 
L 385.591705 460.724665 
L 390.664427 463.597948 
L 395.737168 464.573942 
L 400.809906 459.293553 
L 405.88264 456.463086 
L 410.955384 459.518147 
L 416.028098 462.036932 
L 421.10085 458.214959 
L 426.173579 453.126386 
L 431.246302 455.140752 
L 436.319033 457.429354 
L 441.391756 456.326989 
L 446.464482 450.503874 
L 451.53721 448.610561 
L 456.609943 448.555405 
L 461.682672 445.716033 
L 466.755398 440.819863 
L 471.828126 437.697545 
L 476.900852 437.388021 
L 481.973579 435.491864 
L 487.046309 433.795374 
L 492.119036 430.016084 
L 497.191764 427.18841 
L 502.264492 426.348696 
L 507.337218 425.789667 
L 512.409945 420.540603 
L 517.482672 412.948618 
L 522.555399 412.548174 
L 527.628126 414.236918 
L 532.700853 411.259689 
L 537.773582 401.887185 
L 542.84631 398.712861 
L 547.919038 401.425881 
L 552.991767 401.333088 
L 558.064493 391.72718 
L 563.137219 384.304483 
L 568.209946 385.973134 
L 573.282673 388.416217 
L 578.355401 383.32207 
L 583.428128 369.713265 
L 588.500856 371.98744 
L 593.573584 374.572176 
L 598.646309 372.771667 
L 603.719035 360.443105 
L 608.791762 356.361043 
L 613.86449 360.313112 
L 618.937216 362.499122 
L 624.009943 355.128043 
L 629.082671 343.30285 
L 634.155398 340.281435 
L 639.228125 347.566974 
" clip-path="url(#pfa9fc462a0)" style="fill: none; stroke: #9467bd; stroke-linecap: square"/>
   </g>
   <g id="line2d_61">
    <path d="M 81.228125 490.178051 
L 85.918898 486.496663 
L 90.774455 486.615576 
L 96.287298 489.173546 
L 100.995188 490.418899 
L 106.518766 488.911631 
L 111.63092 484.585772 
L 116.723848 486.391762 
L 121.704395 488.686172 
L 126.767259 485.835796 
L 131.783021 483.367591 
L 136.853944 485.531295 
L 142.014489 485.921557 
L 147.126643 488.065389 
L 152.219571 484.942969 
L 157.296135 483.051399 
L 162.345091 484.226078 
L 167.419221 485.461667 
L 172.529665 485.336198 
L 177.561457 483.194951 
L 182.666117 482.795124 
L 187.752668 484.333739 
L 192.8238 485.518177 
L 197.895437 482.489872 
L 202.961634 480.613181 
L 208.045327 482.080901 
L 213.108343 483.500353 
L 218.190974 482.397516 
L 223.26084 479.246413 
L 228.330164 480.090235 
L 233.409347 481.70315 
L 238.480677 482.547944 
L 243.554335 478.679777 
L 248.626779 477.246631 
L 253.696403 479.435408 
L 258.773153 481.148157 
L 263.843613 478.945906 
L 268.91719 475.236211 
L 273.989348 476.919986 
L 279.063338 479.029591 
L 284.135745 479.131644 
L 289.209912 474.967928 
L 294.281313 473.885237 
L 299.354691 476.446447 
L 304.428055 478.355915 
L 309.500602 474.968246 
L 314.573073 471.235058 
L 319.645965 473.660063 
L 324.718564 475.961432 
L 329.79131 475.058365 
L 334.864188 470.448674 
L 339.936896 470.324542 
L 345.009837 472.993882 
L 350.082556 474.965943 
L 355.155338 470.093071 
L 360.228108 466.887255 
L 365.300841 469.650849 
L 370.373548 472.071707 
L 375.446292 469.873039 
L 380.518971 464.944416 
L 385.591705 465.794241 
L 390.664427 468.227636 
L 395.737168 468.917512 
L 400.809906 464.401339 
L 405.88264 462.137864 
L 410.955384 464.93894 
L 416.028098 466.765345 
L 421.10085 463.275069 
L 426.173579 459.426013 
L 431.246302 461.487327 
L 436.319033 463.886114 
L 441.391756 462.519228 
L 446.464482 455.732982 
L 451.53721 456.099229 
L 456.609943 454.698785 
L 461.682672 454.734864 
L 466.755398 445.437615 
L 471.828126 443.692341 
L 476.900852 442.574315 
L 481.973579 441.00557 
L 487.046309 439.32891 
L 492.119036 436.693321 
L 497.191764 435.129848 
L 502.264492 434.227524 
L 507.337218 433.316749 
L 512.409945 430.264808 
L 517.482672 425.214484 
L 522.555399 424.589934 
L 527.628126 424.270863 
L 532.700853 422.118982 
L 537.773582 416.629574 
L 542.84631 413.412958 
L 547.919038 414.82017 
L 552.991767 415.100957 
L 558.064493 408.794893 
L 563.137219 402.089293 
L 568.209946 403.922367 
L 573.282673 406.136526 
L 578.355401 401.514602 
L 583.428128 392.163673 
L 588.500856 392.321646 
L 593.573584 393.420402 
L 598.646309 392.624823 
L 603.719035 385.134269 
L 608.791762 379.823273 
L 613.86449 381.819281 
L 618.937216 382.96136 
L 624.009943 377.817668 
L 629.082671 369.546284 
L 634.155398 367.413528 
L 639.228125 372.474526 
" clip-path="url(#pfa9fc462a0)" style="fill: none; stroke: #8c564b; stroke-linecap: square"/>
   </g>
   <g id="line2d_62"/>
   <g id="line2d_63"/>
   <g id="line2d_64"/>
   <g id="line2d_65"/>
   <g id="line2d_66"/>
   <g id="patch_5">
    <path d="M 53.328125 494.114688 
L 53.328125 50.594688 
" style="fill: none; stroke: #000000; stroke-width: 0.8; stroke-linejoin: miter; stroke-linecap: square"/>
   </g>
   <g id="patch_6">
    <path d="M 667.128125 494.114688 
L 667.128125 50.594688 
" style="fill: none; stroke: #000000; stroke-width: 0.8; stroke-linejoin: miter; stroke-linecap: square"/>
   </g>
   <g id="patch_7">
    <path d="M 53.328125 494.114688 
L 667.128125 494.114688 
" style="fill: none; stroke: #000000; stroke-width: 0.8; stroke-linejoin: miter; stroke-linecap: square"/>
   </g>
   <g id="patch_8">
    <path d="M 53.328125 50.594688 
L 667.128125 50.594688 
" style="fill: none; stroke: #000000; stroke-width: 0.8; stroke-linejoin: miter; stroke-linecap: square"/>
   </g>
   <g id="text_38">
    <!-- L1  -->
    <g style="fill: #ff0000" transform="translate(290.068704 492.035) scale(0.1 -0.1)">
     <defs>
      <path id="DejaVuSans-4c" d="M 628 4666 
L 1259 4666 
L 1259 531 
L 3531 531 
L 3531 0 
L 628 0 
L 628 4666 
z
" transform="scale(0.015625)"/>
     </defs>
     <use xlink:href="#DejaVuSans-4c"/>
     <use xlink:href="#DejaVuSans-31" x="55.712891"/>
     <use xlink:href="#DejaVuSans-20" x="119.335938"/>
    </g>
   </g>
   <g id="text_39">
    <!-- L2  -->
    <g style="fill: #ff0000" transform="translate(379.649935 492.035) scale(0.1 -0.1)">
     <use xlink:href="#DejaVuSans-4c"/>
     <use xlink:href="#DejaVuSans-32" x="55.712891"/>
     <use xlink:href="#DejaVuSans-20" x="119.335938"/>
    </g>
   </g>
   <g id="text_40">
    <!-- L3  -->
    <g style="fill: #ff0000" transform="translate(446.835859 492.035) scale(0.1 -0.1)">
     <use xlink:href="#DejaVuSans-4c"/>
     <use xlink:href="#DejaVuSans-33" x="55.712891"/>
     <use xlink:href="#DejaVuSans-20" x="119.335938"/>
    </g>
   </g>
   <g id="text_41">
    <!-- RAM -->
    <g style="fill: #ff0000" transform="translate(617.210938 492.035) scale(0.1 -0.1)">
     <defs>
      <path id="DejaVuSans-52" d="M 2841 2188 
Q 3044 2119 3236 1894 
Q 3428 1669 3622 1275 
L 4263 0 
L 3584 0 
L 2988 1197 
Q 2756 1666 2539 1819 
Q 2322 1972 1947 1972 
L 1259 1972 
L 1259 0 
L 628 0 
L 628 4666 
L 2053 4666 
Q 2853 4666 3247 4331 
Q 3641 3997 3641 3322 
Q 3641 2881 3436 2590 
Q 3231 2300 2841 2188 
z
M 1259 4147 
L 1259 2491 
L 2053 2491 
Q 2509 2491 2742 2702 
Q 2975 2913 2975 3322 
Q 2975 3731 2742 3939 
Q 2509 4147 2053 4147 
L 1259 4147 
z
" transform="scale(0.015625)"/>
      <path id="DejaVuSans-4d" d="M 628 4666 
L 1569 4666 
L 2759 1491 
L 3956 4666 
L 4897 4666 
L 4897 0 
L 4281 0 
L 4281 4097 
L 3078 897 
L 2444 897 
L 1241 4097 
L 1241 0 
L 628 0 
L 628 4666 
z
" transform="scale(0.015625)"/>
     </defs>
     <use xlink:href="#DejaVuSans-52"/>
     <use xlink:href="#DejaVuSans-41" x="65.482422"/>
     <use xlink:href="#DejaVuSans-4d" x="133.890625"/>
    </g>
   </g>
   <g id="text_42">
    <!-- Eytzinger layout with prefetching -->
    <g transform="translate(260.40875 16.318125) scale(0.12 -0.12)">
     <defs>
      <path id="DejaVuSans-45" d="M 628 4666 
L 3578 4666 
L 3578 4134 
L 1259 4134 
L 1259 2753 
L 3481 2753 
L 3481 2222 
L 1259 2222 
L 1259 531 
L 3634 531 
L 3634 0 
L 628 0 
L 628 4666 
z
" transform="scale(0.015625)"/>
      <path id="DejaVuSans-77" d="M 269 3500 
L 844 3500 
L 1563 769 
L 2278 3500 
L 2956 3500 
L 3675 769 
L 4391 3500 
L 4966 3500 
L 4050 0 
L 3372 0 
L 2619 2869 
L 1863 0 
L 1184 0 
L 269 3500 
z
" transform="scale(0.015625)"/>
      <path id="DejaVuSans-66" d="M 2375 4863 
L 2375 4384 
L 1825 4384 
Q 1516 4384 1395 4259 
Q 1275 4134 1275 3809 
L 1275 3500 
L 2222 3500 
L 2222 3053 
L 1275 3053 
L 1275 0 
L 697 0 
L 697 3053 
L 147 3053 
L 147 3500 
L 697 3500 
L 697 3744 
Q 697 4328 969 4595 
Q 1241 4863 1831 4863 
L 2375 4863 
z
" transform="scale(0.015625)"/>
      <path id="DejaVuSans-63" d="M 3122 3366 
L 3122 2828 
Q 2878 2963 2633 3030 
Q 2388 3097 2138 3097 
Q 1578 3097 1268 2742 
Q 959 2388 959 1747 
Q 959 1106 1268 751 
Q 1578 397 2138 397 
Q 2388 397 2633 464 
Q 2878 531 3122 666 
L 3122 134 
Q 2881 22 2623 -34 
Q 2366 -91 2075 -91 
Q 1284 -91 818 406 
Q 353 903 353 1747 
Q 353 2603 823 3093 
Q 1294 3584 2113 3584 
Q 2378 3584 2631 3529 
Q 2884 3475 3122 3366 
z
" transform="scale(0.015625)"/>
     </defs>
     <use xlink:href="#DejaVuSans-45"/>
     <use xlink:href="#DejaVuSans-79" x="63.183594"/>
     <use xlink:href="#DejaVuSans-74" x="122.363281"/>
     <use xlink:href="#DejaVuSans-7a" x="161.572266"/>
     <use xlink:href="#DejaVuSans-69" x="214.0625"/>
     <use xlink:href="#DejaVuSans-6e" x="241.845703"/>
     <use xlink:href="#DejaVuSans-67" x="305.224609"/>
     <use xlink:href="#DejaVuSans-65" x="368.701172"/>
     <use xlink:href="#DejaVuSans-72" x="430.224609"/>
     <use xlink:href="#DejaVuSans-20" x="471.337891"/>
     <use xlink:href="#DejaVuSans-6c" x="503.125"/>
     <use xlink:href="#DejaVuSans-61" x="530.908203"/>
     <use xlink:href="#DejaVuSans-79" x="592.1875"/>
     <use xlink:href="#DejaVuSans-6f" x="651.367188"/>
     <use xlink:href="#DejaVuSans-75" x="712.548828"/>
     <use xlink:href="#DejaVuSans-74" x="775.927734"/>
     <use xlink:href="#DejaVuSans-20" x="815.136719"/>
     <use xlink:href="#DejaVuSans-77" x="846.923828"/>
     <use xlink:href="#DejaVuSans-69" x="928.710938"/>
     <use xlink:href="#DejaVuSans-74" x="956.494141"/>
     <use xlink:href="#DejaVuSans-68" x="995.703125"/>
     <use xlink:href="#DejaVuSans-20" x="1059.082031"/>
     <use xlink:href="#DejaVuSans-70" x="1090.869141"/>
     <use xlink:href="#DejaVuSans-72" x="1154.345703"/>
     <use xlink:href="#DejaVuSans-65" x="1193.208984"/>
     <use xlink:href="#DejaVuSans-66" x="1254.732422"/>
     <use xlink:href="#DejaVuSans-65" x="1289.9375"/>
     <use xlink:href="#DejaVuSans-74" x="1351.460938"/>
     <use xlink:href="#DejaVuSans-63" x="1390.669922"/>
     <use xlink:href="#DejaVuSans-68" x="1445.650391"/>
     <use xlink:href="#DejaVuSans-69" x="1509.029297"/>
     <use xlink:href="#DejaVuSans-6e" x="1536.8125"/>
     <use xlink:href="#DejaVuSans-67" x="1600.191406"/>
    </g>
   </g>
   <g id="legend_1">
    <g id="patch_9">
     <path d="M 60.328125 118.141563 
L 249.176563 118.141563 
Q 251.176563 118.141563 251.176563 116.141563 
L 251.176563 57.594688 
Q 251.176563 55.594688 249.176563 55.594688 
L 60.328125 55.594688 
Q 58.328125 55.594688 58.328125 57.594688 
L 58.328125 116.141563 
Q 58.328125 118.141563 60.328125 118.141563 
L 60.328125 118.141563 
z
" style="fill: none; opacity: 0"/>
    </g>
    <g id="line2d_67">
     <path d="M 62.328125 63.693125 
L 72.328125 63.693125 
L 82.328125 63.693125 
" style="fill: none; stroke: #bcbd22; stroke-width: 1.5; stroke-linecap: square"/>
    </g>
    <g id="text_43">
     <!-- Eytzinger::search -->
     <g transform="translate(90.328125 67.193125) scale(0.1 -0.1)">
      <defs>
       <path id="DejaVuSans-3a" d="M 750 794 
L 1409 794 
L 1409 0 
L 750 0 
L 750 794 
z
M 750 3309 
L 1409 3309 
L 1409 2516 
L 750 2516 
L 750 3309 
z
" transform="scale(0.015625)"/>
      </defs>
      <use xlink:href="#DejaVuSans-45"/>
      <use xlink:href="#DejaVuSans-79" x="63.183594"/>
      <use xlink:href="#DejaVuSans-74" x="122.363281"/>
      <use xlink:href="#DejaVuSans-7a" x="161.572266"/>
      <use xlink:href="#DejaVuSans-69" x="214.0625"/>
      <use xlink:href="#DejaVuSans-6e" x="241.845703"/>
      <use xlink:href="#DejaVuSans-67" x="305.224609"/>
      <use xlink:href="#DejaVuSans-65" x="368.701172"/>
      <use xlink:href="#DejaVuSans-72" x="430.224609"/>
      <use xlink:href="#DejaVuSans-3a" x="469.587891"/>
      <use xlink:href="#DejaVuSans-3a" x="503.279297"/>
      <use xlink:href="#DejaVuSans-73" x="536.970703"/>
      <use xlink:href="#DejaVuSans-65" x="589.070312"/>
      <use xlink:href="#DejaVuSans-61" x="650.59375"/>
      <use xlink:href="#DejaVuSans-72" x="711.873047"/>
      <use xlink:href="#DejaVuSans-63" x="750.736328"/>
      <use xlink:href="#DejaVuSans-68" x="805.716797"/>
     </g>
    </g>
    <g id="line2d_68">
     <path d="M 62.328125 78.37125 
L 72.328125 78.37125 
L 82.328125 78.37125 
" style="fill: none; stroke: #d62728; stroke-width: 1.5; stroke-linecap: square"/>
    </g>
    <g id="text_44">
     <!-- Eytzinger::search_prefetch&lt;2&gt; -->
     <g transform="translate(90.328125 81.87125) scale(0.1 -0.1)">
      <defs>
       <path id="DejaVuSans-5f" d="M 3263 -1063 
L 3263 -1509 
L -63 -1509 
L -63 -1063 
L 3263 -1063 
z
" transform="scale(0.015625)"/>
       <path id="DejaVuSans-3c" d="M 4684 3150 
L 1459 2003 
L 4684 863 
L 4684 294 
L 678 1747 
L 678 2266 
L 4684 3719 
L 4684 3150 
z
" transform="scale(0.015625)"/>
       <path id="DejaVuSans-3e" d="M 678 3150 
L 678 3719 
L 4684 2266 
L 4684 1747 
L 678 294 
L 678 863 
L 3897 2003 
L 678 3150 
z
" transform="scale(0.015625)"/>
      </defs>
      <use xlink:href="#DejaVuSans-45"/>
      <use xlink:href="#DejaVuSans-79" x="63.183594"/>
      <use xlink:href="#DejaVuSans-74" x="122.363281"/>
      <use xlink:href="#DejaVuSans-7a" x="161.572266"/>
      <use xlink:href="#DejaVuSans-69" x="214.0625"/>
      <use xlink:href="#DejaVuSans-6e" x="241.845703"/>
      <use xlink:href="#DejaVuSans-67" x="305.224609"/>
      <use xlink:href="#DejaVuSans-65" x="368.701172"/>
      <use xlink:href="#DejaVuSans-72" x="430.224609"/>
      <use xlink:href="#DejaVuSans-3a" x="469.587891"/>
      <use xlink:href="#DejaVuSans-3a" x="503.279297"/>
      <use xlink:href="#DejaVuSans-73" x="536.970703"/>
      <use xlink:href="#DejaVuSans-65" x="589.070312"/>
      <use xlink:href="#DejaVuSans-61" x="650.59375"/>
      <use xlink:href="#DejaVuSans-72" x="711.873047"/>
      <use xlink:href="#DejaVuSans-63" x="750.736328"/>
      <use xlink:href="#DejaVuSans-68" x="805.716797"/>
      <use xlink:href="#DejaVuSans-5f" x="869.095703"/>
      <use xlink:href="#DejaVuSans-70" x="919.095703"/>
      <use xlink:href="#DejaVuSans-72" x="982.572266"/>
      <use xlink:href="#DejaVuSans-65" x="1021.435547"/>
      <use xlink:href="#DejaVuSans-66" x="1082.958984"/>
      <use xlink:href="#DejaVuSans-65" x="1118.164062"/>
      <use xlink:href="#DejaVuSans-74" x="1179.6875"/>
      <use xlink:href="#DejaVuSans-63" x="1218.896484"/>
      <use xlink:href="#DejaVuSans-68" x="1273.876953"/>
      <use xlink:href="#DejaVuSans-3c" x="1337.255859"/>
      <use xlink:href="#DejaVuSans-32" x="1421.044922"/>
      <use xlink:href="#DejaVuSans-3e" x="1484.667969"/>
     </g>
    </g>
    <g id="line2d_69">
     <path d="M 62.328125 93.3275 
L 72.328125 93.3275 
L 82.328125 93.3275 
" style="fill: none; stroke: #9467bd; stroke-width: 1.5; stroke-linecap: square"/>
    </g>
    <g id="text_45">
     <!-- Eytzinger::search_prefetch&lt;3&gt; -->
     <g transform="translate(90.328125 96.8275) scale(0.1 -0.1)">
      <use xlink:href="#DejaVuSans-45"/>
      <use xlink:href="#DejaVuSans-79" x="63.183594"/>
      <use xlink:href="#DejaVuSans-74" x="122.363281"/>
      <use xlink:href="#DejaVuSans-7a" x="161.572266"/>
      <use xlink:href="#DejaVuSans-69" x="214.0625"/>
      <use xlink:href="#DejaVuSans-6e" x="241.845703"/>
      <use xlink:href="#DejaVuSans-67" x="305.224609"/>
      <use xlink:href="#DejaVuSans-65" x="368.701172"/>
      <use xlink:href="#DejaVuSans-72" x="430.224609"/>
      <use xlink:href="#DejaVuSans-3a" x="469.587891"/>
      <use xlink:href="#DejaVuSans-3a" x="503.279297"/>
      <use xlink:href="#DejaVuSans-73" x="536.970703"/>
      <use xlink:href="#DejaVuSans-65" x="589.070312"/>
      <use xlink:href="#DejaVuSans-61" x="650.59375"/>
      <use xlink:href="#DejaVuSans-72" x="711.873047"/>
      <use xlink:href="#DejaVuSans-63" x="750.736328"/>
      <use xlink:href="#DejaVuSans-68" x="805.716797"/>
      <use xlink:href="#DejaVuSans-5f" x="869.095703"/>
      <use xlink:href="#DejaVuSans-70" x="919.095703"/>
      <use xlink:href="#DejaVuSans-72" x="982.572266"/>
      <use xlink:href="#DejaVuSans-65" x="1021.435547"/>
      <use xlink:href="#DejaVuSans-66" x="1082.958984"/>
      <use xlink:href="#DejaVuSans-65" x="1118.164062"/>
      <use xlink:href="#DejaVuSans-74" x="1179.6875"/>
      <use xlink:href="#DejaVuSans-63" x="1218.896484"/>
      <use xlink:href="#DejaVuSans-68" x="1273.876953"/>
      <use xlink:href="#DejaVuSans-3c" x="1337.255859"/>
      <use xlink:href="#DejaVuSans-33" x="1421.044922"/>
      <use xlink:href="#DejaVuSans-3e" x="1484.667969"/>
     </g>
    </g>
    <g id="line2d_70">
     <path d="M 62.328125 108.28375 
L 72.328125 108.28375 
L 82.328125 108.28375 
" style="fill: none; stroke: #8c564b; stroke-width: 1.5; stroke-linecap: square"/>
    </g>
    <g id="text_46">
     <!-- Eytzinger::search_prefetch&lt;4&gt; -->
     <g transform="translate(90.328125 111.78375) scale(0.1 -0.1)">
      <use xlink:href="#DejaVuSans-45"/>
      <use xlink:href="#DejaVuSans-79" x="63.183594"/>
      <use xlink:href="#DejaVuSans-74" x="122.363281"/>
      <use xlink:href="#DejaVuSans-7a" x="161.572266"/>
      <use xlink:href="#DejaVuSans-69" x="214.0625"/>
      <use xlink:href="#DejaVuSans-6e" x="241.845703"/>
      <use xlink:href="#DejaVuSans-67" x="305.224609"/>
      <use xlink:href="#DejaVuSans-65" x="368.701172"/>
      <use xlink:href="#DejaVuSans-72" x="430.224609"/>
      <use xlink:href="#DejaVuSans-3a" x="469.587891"/>
      <use xlink:href="#DejaVuSans-3a" x="503.279297"/>
      <use xlink:href="#DejaVuSans-73" x="536.970703"/>
      <use xlink:href="#DejaVuSans-65" x="589.070312"/>
      <use xlink:href="#DejaVuSans-61" x="650.59375"/>
      <use xlink:href="#DejaVuSans-72" x="711.873047"/>
      <use xlink:href="#DejaVuSans-63" x="750.736328"/>
      <use xlink:href="#DejaVuSans-68" x="805.716797"/>
      <use xlink:href="#DejaVuSans-5f" x="869.095703"/>
      <use xlink:href="#DejaVuSans-70" x="919.095703"/>
      <use xlink:href="#DejaVuSans-72" x="982.572266"/>
      <use xlink:href="#DejaVuSans-65" x="1021.435547"/>
      <use xlink:href="#DejaVuSans-66" x="1082.958984"/>
      <use xlink:href="#DejaVuSans-65" x="1118.164062"/>
      <use xlink:href="#DejaVuSans-74" x="1179.6875"/>
      <use xlink:href="#DejaVuSans-63" x="1218.896484"/>
      <use xlink:href="#DejaVuSans-68" x="1273.876953"/>
      <use xlink:href="#DejaVuSans-3c" x="1337.255859"/>
      <use xlink:href="#DejaVuSans-34" x="1421.044922"/>
      <use xlink:href="#DejaVuSans-3e" x="1484.667969"/>
     </g>
    </g>
   </g>
  </g>
 </g>
 <defs>
  <clipPath id="pfa9fc462a0">
   <rect x="53.328125" y="50.594688" width="613.8" height="443.52"/>
  </clipPath>
 </defs>
</svg>
