<?xml version="1.0" encoding="utf-8" standalone="no"?>
<!DOCTYPE svg PUBLIC "-//W3C//DTD SVG 1.1//EN"
  "http://www.w3.org/Graphics/SVG/1.1/DTD/svg11.dtd">
<svg xmlns:xlink="http://www.w3.org/1999/xlink" width="667.965625pt" height="531.670938pt" viewBox="0 0 667.965625 531.670938" xmlns="http://www.w3.org/2000/svg" version="1.1">
 <metadata>
  <rdf:RDF xmlns:dc="http://purl.org/dc/elements/1.1/" xmlns:cc="http://creativecommons.org/ns#" xmlns:rdf="http://www.w3.org/1999/02/22-rdf-syntax-ns#">
   <cc:Work>
    <dc:type rdf:resource="http://purl.org/dc/dcmitype/StillImage"/>
    <dc:date>2025-02-21T19:22:34.487592</dc:date>
    <dc:format>image/svg+xml</dc:format>
    <dc:creator>
     <cc:Agent>
      <dc:title>Matplotlib v3.9.2, https://matplotlib.org/</dc:title>
     </cc:Agent>
    </dc:creator>
   </cc:Work>
  </rdf:RDF>
 </metadata>
 <defs>
  <style type="text/css">*{stroke-linejoin: round; stroke-linecap: butt}</style>
 </defs>
 <g id="figure_1">
  <g id="patch_1">
   <path d="M -0 531.670938 
L 667.965625 531.670938 
L 667.965625 0 
L -0 0 
z
" style="fill: #ffffff"/>
  </g>
  <g id="axes_1">
   <g id="patch_2">
    <path d="M 46.965625 494.114688 
L 660.765625 494.114688 
L 660.765625 50.594688 
L 46.965625 50.594688 
z
" style="fill: #ffffff"/>
   </g>
   <g id="line2d_1">
    <path d="M 293.977947 494.114688 
L 293.977947 50.594688 
" clip-path="url(#pb16221f3ca)" style="fill: none; stroke-dasharray: 5.55,2.4; stroke-dashoffset: 0; stroke: #ff0000; stroke-width: 1.5"/>
   </g>
   <g id="line2d_2">
    <path d="M 383.497901 494.114688 
L 383.497901 50.594688 
" clip-path="url(#pb16221f3ca)" style="fill: none; stroke-dasharray: 5.55,2.4; stroke-dashoffset: 0; stroke: #ff0000; stroke-width: 1.5"/>
   </g>
   <g id="line2d_3">
    <path d="M 450.637867 494.114688 
L 450.637867 50.594688 
" clip-path="url(#pb16221f3ca)" style="fill: none; stroke-dasharray: 5.55,2.4; stroke-dashoffset: 0; stroke: #ff0000; stroke-width: 1.5"/>
   </g>
   <g id="axes_2">
    <g id="patch_3">
     <path d="M 46.965625 50.594688 
L 660.765625 50.594688 
L 660.765625 50.594687 
L 46.965625 50.594687 
z
" style="fill: #ffffff"/>
    </g>
    <g id="matplotlib.axis_1">
     <g id="xtick_1">
      <g id="line2d_4">
       <defs>
        <path id="mdbb61b34dc" d="M 0 0 
L 0 -3.5 
" style="stroke: #000000; stroke-width: 0.8"/>
       </defs>
       <g>
        <use xlink:href="#mdbb61b34dc" x="47.798072" y="50.594687" style="stroke: #000000; stroke-width: 0.8"/>
       </g>
      </g>
      <g id="text_1">
       <!-- $\mathdefault{2^{2}}$ -->
       <g transform="translate(42.198072 41.515) scale(0.1 -0.1)">
        <defs>
         <path id="DejaVuSans-32" d="M 1228 531 
L 3431 531 
L 3431 0 
L 469 0 
L 469 531 
Q 828 903 1448 1529 
Q 2069 2156 2228 2338 
Q 2531 2678 2651 2914 
Q 2772 3150 2772 3378 
Q 2772 3750 2511 3984 
Q 2250 4219 1831 4219 
Q 1534 4219 1204 4116 
Q 875 4013 500 3803 
L 500 4441 
Q 881 4594 1212 4672 
Q 1544 4750 1819 4750 
Q 2544 4750 2975 4387 
Q 3406 4025 3406 3419 
Q 3406 3131 3298 2873 
Q 3191 2616 2906 2266 
Q 2828 2175 2409 1742 
Q 1991 1309 1228 531 
z
" transform="scale(0.015625)"/>
        </defs>
        <use xlink:href="#DejaVuSans-32" transform="translate(0 0.765625)"/>
        <use xlink:href="#DejaVuSans-32" transform="translate(64.580078 39.046875) scale(0.7)"/>
       </g>
      </g>
     </g>
     <g id="xtick_2">
      <g id="line2d_5">
       <g>
        <use xlink:href="#mdbb61b34dc" x="92.55805" y="50.594687" style="stroke: #000000; stroke-width: 0.8"/>
       </g>
      </g>
      <g id="text_2">
       <!-- $\mathdefault{2^{4}}$ -->
       <g transform="translate(86.95805 41.515) scale(0.1 -0.1)">
        <defs>
         <path id="DejaVuSans-34" d="M 2419 4116 
L 825 1625 
L 2419 1625 
L 2419 4116 
z
M 2253 4666 
L 3047 4666 
L 3047 1625 
L 3713 1625 
L 3713 1100 
L 3047 1100 
L 3047 0 
L 2419 0 
L 2419 1100 
L 313 1100 
L 313 1709 
L 2253 4666 
z
" transform="scale(0.015625)"/>
        </defs>
        <use xlink:href="#DejaVuSans-32" transform="translate(0 0.684375)"/>
        <use xlink:href="#DejaVuSans-34" transform="translate(64.580078 38.965625) scale(0.7)"/>
       </g>
      </g>
     </g>
     <g id="xtick_3">
      <g id="line2d_6">
       <g>
        <use xlink:href="#mdbb61b34dc" x="137.318027" y="50.594687" style="stroke: #000000; stroke-width: 0.8"/>
       </g>
      </g>
      <g id="text_3">
       <!-- $\mathdefault{2^{6}}$ -->
       <g transform="translate(131.718027 41.515) scale(0.1 -0.1)">
        <defs>
         <path id="DejaVuSans-36" d="M 2113 2584 
Q 1688 2584 1439 2293 
Q 1191 2003 1191 1497 
Q 1191 994 1439 701 
Q 1688 409 2113 409 
Q 2538 409 2786 701 
Q 3034 994 3034 1497 
Q 3034 2003 2786 2293 
Q 2538 2584 2113 2584 
z
M 3366 4563 
L 3366 3988 
Q 3128 4100 2886 4159 
Q 2644 4219 2406 4219 
Q 1781 4219 1451 3797 
Q 1122 3375 1075 2522 
Q 1259 2794 1537 2939 
Q 1816 3084 2150 3084 
Q 2853 3084 3261 2657 
Q 3669 2231 3669 1497 
Q 3669 778 3244 343 
Q 2819 -91 2113 -91 
Q 1303 -91 875 529 
Q 447 1150 447 2328 
Q 447 3434 972 4092 
Q 1497 4750 2381 4750 
Q 2619 4750 2861 4703 
Q 3103 4656 3366 4563 
z
" transform="scale(0.015625)"/>
        </defs>
        <use xlink:href="#DejaVuSans-32" transform="translate(0 0.765625)"/>
        <use xlink:href="#DejaVuSans-36" transform="translate(64.580078 39.046875) scale(0.7)"/>
       </g>
      </g>
     </g>
     <g id="xtick_4">
      <g id="line2d_7">
       <g>
        <use xlink:href="#mdbb61b34dc" x="182.078004" y="50.594687" style="stroke: #000000; stroke-width: 0.8"/>
       </g>
      </g>
      <g id="text_4">
       <!-- $\mathdefault{2^{8}}$ -->
       <g transform="translate(176.478004 41.515) scale(0.1 -0.1)">
        <defs>
         <path id="DejaVuSans-38" d="M 2034 2216 
Q 1584 2216 1326 1975 
Q 1069 1734 1069 1313 
Q 1069 891 1326 650 
Q 1584 409 2034 409 
Q 2484 409 2743 651 
Q 3003 894 3003 1313 
Q 3003 1734 2745 1975 
Q 2488 2216 2034 2216 
z
M 1403 2484 
Q 997 2584 770 2862 
Q 544 3141 544 3541 
Q 544 4100 942 4425 
Q 1341 4750 2034 4750 
Q 2731 4750 3128 4425 
Q 3525 4100 3525 3541 
Q 3525 3141 3298 2862 
Q 3072 2584 2669 2484 
Q 3125 2378 3379 2068 
Q 3634 1759 3634 1313 
Q 3634 634 3220 271 
Q 2806 -91 2034 -91 
Q 1263 -91 848 271 
Q 434 634 434 1313 
Q 434 1759 690 2068 
Q 947 2378 1403 2484 
z
M 1172 3481 
Q 1172 3119 1398 2916 
Q 1625 2713 2034 2713 
Q 2441 2713 2670 2916 
Q 2900 3119 2900 3481 
Q 2900 3844 2670 4047 
Q 2441 4250 2034 4250 
Q 1625 4250 1398 4047 
Q 1172 3844 1172 3481 
z
" transform="scale(0.015625)"/>
        </defs>
        <use xlink:href="#DejaVuSans-32" transform="translate(0 0.765625)"/>
        <use xlink:href="#DejaVuSans-38" transform="translate(64.580078 39.046875) scale(0.7)"/>
       </g>
      </g>
     </g>
     <g id="xtick_5">
      <g id="line2d_8">
       <g>
        <use xlink:href="#mdbb61b34dc" x="226.837981" y="50.594687" style="stroke: #000000; stroke-width: 0.8"/>
       </g>
      </g>
      <g id="text_5">
       <!-- $\mathdefault{2^{10}}$ -->
       <g transform="translate(218.987981 41.515) scale(0.1 -0.1)">
        <defs>
         <path id="DejaVuSans-31" d="M 794 531 
L 1825 531 
L 1825 4091 
L 703 3866 
L 703 4441 
L 1819 4666 
L 2450 4666 
L 2450 531 
L 3481 531 
L 3481 0 
L 794 0 
L 794 531 
z
" transform="scale(0.015625)"/>
         <path id="DejaVuSans-30" d="M 2034 4250 
Q 1547 4250 1301 3770 
Q 1056 3291 1056 2328 
Q 1056 1369 1301 889 
Q 1547 409 2034 409 
Q 2525 409 2770 889 
Q 3016 1369 3016 2328 
Q 3016 3291 2770 3770 
Q 2525 4250 2034 4250 
z
M 2034 4750 
Q 2819 4750 3233 4129 
Q 3647 3509 3647 2328 
Q 3647 1150 3233 529 
Q 2819 -91 2034 -91 
Q 1250 -91 836 529 
Q 422 1150 422 2328 
Q 422 3509 836 4129 
Q 1250 4750 2034 4750 
z
" transform="scale(0.015625)"/>
        </defs>
        <use xlink:href="#DejaVuSans-32" transform="translate(0 0.765625)"/>
        <use xlink:href="#DejaVuSans-31" transform="translate(64.580078 39.046875) scale(0.7)"/>
        <use xlink:href="#DejaVuSans-30" transform="translate(109.116211 39.046875) scale(0.7)"/>
       </g>
      </g>
     </g>
     <g id="xtick_6">
      <g id="line2d_9">
       <g>
        <use xlink:href="#mdbb61b34dc" x="271.597958" y="50.594687" style="stroke: #000000; stroke-width: 0.8"/>
       </g>
      </g>
      <g id="text_6">
       <!-- $\mathdefault{2^{12}}$ -->
       <g transform="translate(263.747958 41.515) scale(0.1 -0.1)">
        <use xlink:href="#DejaVuSans-32" transform="translate(0 0.765625)"/>
        <use xlink:href="#DejaVuSans-31" transform="translate(64.580078 39.046875) scale(0.7)"/>
        <use xlink:href="#DejaVuSans-32" transform="translate(109.116211 39.046875) scale(0.7)"/>
       </g>
      </g>
     </g>
     <g id="xtick_7">
      <g id="line2d_10">
       <g>
        <use xlink:href="#mdbb61b34dc" x="316.357936" y="50.594687" style="stroke: #000000; stroke-width: 0.8"/>
       </g>
      </g>
      <g id="text_7">
       <!-- $\mathdefault{2^{14}}$ -->
       <g transform="translate(308.507936 41.515) scale(0.1 -0.1)">
        <use xlink:href="#DejaVuSans-32" transform="translate(0 0.684375)"/>
        <use xlink:href="#DejaVuSans-31" transform="translate(64.580078 38.965625) scale(0.7)"/>
        <use xlink:href="#DejaVuSans-34" transform="translate(109.116211 38.965625) scale(0.7)"/>
       </g>
      </g>
     </g>
     <g id="xtick_8">
      <g id="line2d_11">
       <g>
        <use xlink:href="#mdbb61b34dc" x="361.117913" y="50.594687" style="stroke: #000000; stroke-width: 0.8"/>
       </g>
      </g>
      <g id="text_8">
       <!-- $\mathdefault{2^{16}}$ -->
       <g transform="translate(353.267913 41.515) scale(0.1 -0.1)">
        <use xlink:href="#DejaVuSans-32" transform="translate(0 0.765625)"/>
        <use xlink:href="#DejaVuSans-31" transform="translate(64.580078 39.046875) scale(0.7)"/>
        <use xlink:href="#DejaVuSans-36" transform="translate(109.116211 39.046875) scale(0.7)"/>
       </g>
      </g>
     </g>
     <g id="xtick_9">
      <g id="line2d_12">
       <g>
        <use xlink:href="#mdbb61b34dc" x="405.87789" y="50.594687" style="stroke: #000000; stroke-width: 0.8"/>
       </g>
      </g>
      <g id="text_9">
       <!-- $\mathdefault{2^{18}}$ -->
       <g transform="translate(398.02789 41.515) scale(0.1 -0.1)">
        <use xlink:href="#DejaVuSans-32" transform="translate(0 0.765625)"/>
        <use xlink:href="#DejaVuSans-31" transform="translate(64.580078 39.046875) scale(0.7)"/>
        <use xlink:href="#DejaVuSans-38" transform="translate(109.116211 39.046875) scale(0.7)"/>
       </g>
      </g>
     </g>
     <g id="xtick_10">
      <g id="line2d_13">
       <g>
        <use xlink:href="#mdbb61b34dc" x="450.637867" y="50.594687" style="stroke: #000000; stroke-width: 0.8"/>
       </g>
      </g>
      <g id="text_10">
       <!-- $\mathdefault{2^{20}}$ -->
       <g transform="translate(442.787867 41.515) scale(0.1 -0.1)">
        <use xlink:href="#DejaVuSans-32" transform="translate(0 0.765625)"/>
        <use xlink:href="#DejaVuSans-32" transform="translate(64.580078 39.046875) scale(0.7)"/>
        <use xlink:href="#DejaVuSans-30" transform="translate(109.116211 39.046875) scale(0.7)"/>
       </g>
      </g>
     </g>
     <g id="xtick_11">
      <g id="line2d_14">
       <g>
        <use xlink:href="#mdbb61b34dc" x="495.397844" y="50.594687" style="stroke: #000000; stroke-width: 0.8"/>
       </g>
      </g>
      <g id="text_11">
       <!-- $\mathdefault{2^{22}}$ -->
       <g transform="translate(487.547844 41.515) scale(0.1 -0.1)">
        <use xlink:href="#DejaVuSans-32" transform="translate(0 0.765625)"/>
        <use xlink:href="#DejaVuSans-32" transform="translate(64.580078 39.046875) scale(0.7)"/>
        <use xlink:href="#DejaVuSans-32" transform="translate(109.116211 39.046875) scale(0.7)"/>
       </g>
      </g>
     </g>
     <g id="xtick_12">
      <g id="line2d_15">
       <g>
        <use xlink:href="#mdbb61b34dc" x="540.157822" y="50.594687" style="stroke: #000000; stroke-width: 0.8"/>
       </g>
      </g>
      <g id="text_12">
       <!-- $\mathdefault{2^{24}}$ -->
       <g transform="translate(532.307822 41.515) scale(0.1 -0.1)">
        <use xlink:href="#DejaVuSans-32" transform="translate(0 0.765625)"/>
        <use xlink:href="#DejaVuSans-32" transform="translate(64.580078 39.046875) scale(0.7)"/>
        <use xlink:href="#DejaVuSans-34" transform="translate(109.116211 39.046875) scale(0.7)"/>
       </g>
      </g>
     </g>
     <g id="xtick_13">
      <g id="line2d_16">
       <g>
        <use xlink:href="#mdbb61b34dc" x="584.917799" y="50.594687" style="stroke: #000000; stroke-width: 0.8"/>
       </g>
      </g>
      <g id="text_13">
       <!-- $\mathdefault{2^{26}}$ -->
       <g transform="translate(577.067799 41.515) scale(0.1 -0.1)">
        <use xlink:href="#DejaVuSans-32" transform="translate(0 0.765625)"/>
        <use xlink:href="#DejaVuSans-32" transform="translate(64.580078 39.046875) scale(0.7)"/>
        <use xlink:href="#DejaVuSans-36" transform="translate(109.116211 39.046875) scale(0.7)"/>
       </g>
      </g>
     </g>
     <g id="xtick_14">
      <g id="line2d_17">
       <g>
        <use xlink:href="#mdbb61b34dc" x="629.677776" y="50.594687" style="stroke: #000000; stroke-width: 0.8"/>
       </g>
      </g>
      <g id="text_14">
       <!-- $\mathdefault{2^{28}}$ -->
       <g transform="translate(621.827776 41.515) scale(0.1 -0.1)">
        <use xlink:href="#DejaVuSans-32" transform="translate(0 0.765625)"/>
        <use xlink:href="#DejaVuSans-32" transform="translate(64.580078 39.046875) scale(0.7)"/>
        <use xlink:href="#DejaVuSans-38" transform="translate(109.116211 39.046875) scale(0.7)"/>
       </g>
      </g>
     </g>
     <g id="text_15">
      <!-- Array length (u32) -->
      <g transform="translate(307.85 29.916562) scale(0.1 -0.1)">
       <defs>
        <path id="DejaVuSans-41" d="M 2188 4044 
L 1331 1722 
L 3047 1722 
L 2188 4044 
z
M 1831 4666 
L 2547 4666 
L 4325 0 
L 3669 0 
L 3244 1197 
L 1141 1197 
L 716 0 
L 50 0 
L 1831 4666 
z
" transform="scale(0.015625)"/>
        <path id="DejaVuSans-72" d="M 2631 2963 
Q 2534 3019 2420 3045 
Q 2306 3072 2169 3072 
Q 1681 3072 1420 2755 
Q 1159 2438 1159 1844 
L 1159 0 
L 581 0 
L 581 3500 
L 1159 3500 
L 1159 2956 
Q 1341 3275 1631 3429 
Q 1922 3584 2338 3584 
Q 2397 3584 2469 3576 
Q 2541 3569 2628 3553 
L 2631 2963 
z
" transform="scale(0.015625)"/>
        <path id="DejaVuSans-61" d="M 2194 1759 
Q 1497 1759 1228 1600 
Q 959 1441 959 1056 
Q 959 750 1161 570 
Q 1363 391 1709 391 
Q 2188 391 2477 730 
Q 2766 1069 2766 1631 
L 2766 1759 
L 2194 1759 
z
M 3341 1997 
L 3341 0 
L 2766 0 
L 2766 531 
Q 2569 213 2275 61 
Q 1981 -91 1556 -91 
Q 1019 -91 701 211 
Q 384 513 384 1019 
Q 384 1609 779 1909 
Q 1175 2209 1959 2209 
L 2766 2209 
L 2766 2266 
Q 2766 2663 2505 2880 
Q 2244 3097 1772 3097 
Q 1472 3097 1187 3025 
Q 903 2953 641 2809 
L 641 3341 
Q 956 3463 1253 3523 
Q 1550 3584 1831 3584 
Q 2591 3584 2966 3190 
Q 3341 2797 3341 1997 
z
" transform="scale(0.015625)"/>
        <path id="DejaVuSans-79" d="M 2059 -325 
Q 1816 -950 1584 -1140 
Q 1353 -1331 966 -1331 
L 506 -1331 
L 506 -850 
L 844 -850 
Q 1081 -850 1212 -737 
Q 1344 -625 1503 -206 
L 1606 56 
L 191 3500 
L 800 3500 
L 1894 763 
L 2988 3500 
L 3597 3500 
L 2059 -325 
z
" transform="scale(0.015625)"/>
        <path id="DejaVuSans-20" transform="scale(0.015625)"/>
        <path id="DejaVuSans-6c" d="M 603 4863 
L 1178 4863 
L 1178 0 
L 603 0 
L 603 4863 
z
" transform="scale(0.015625)"/>
        <path id="DejaVuSans-65" d="M 3597 1894 
L 3597 1613 
L 953 1613 
Q 991 1019 1311 708 
Q 1631 397 2203 397 
Q 2534 397 2845 478 
Q 3156 559 3463 722 
L 3463 178 
Q 3153 47 2828 -22 
Q 2503 -91 2169 -91 
Q 1331 -91 842 396 
Q 353 884 353 1716 
Q 353 2575 817 3079 
Q 1281 3584 2069 3584 
Q 2775 3584 3186 3129 
Q 3597 2675 3597 1894 
z
M 3022 2063 
Q 3016 2534 2758 2815 
Q 2500 3097 2075 3097 
Q 1594 3097 1305 2825 
Q 1016 2553 972 2059 
L 3022 2063 
z
" transform="scale(0.015625)"/>
        <path id="DejaVuSans-6e" d="M 3513 2113 
L 3513 0 
L 2938 0 
L 2938 2094 
Q 2938 2591 2744 2837 
Q 2550 3084 2163 3084 
Q 1697 3084 1428 2787 
Q 1159 2491 1159 1978 
L 1159 0 
L 581 0 
L 581 3500 
L 1159 3500 
L 1159 2956 
Q 1366 3272 1645 3428 
Q 1925 3584 2291 3584 
Q 2894 3584 3203 3211 
Q 3513 2838 3513 2113 
z
" transform="scale(0.015625)"/>
        <path id="DejaVuSans-67" d="M 2906 1791 
Q 2906 2416 2648 2759 
Q 2391 3103 1925 3103 
Q 1463 3103 1205 2759 
Q 947 2416 947 1791 
Q 947 1169 1205 825 
Q 1463 481 1925 481 
Q 2391 481 2648 825 
Q 2906 1169 2906 1791 
z
M 3481 434 
Q 3481 -459 3084 -895 
Q 2688 -1331 1869 -1331 
Q 1566 -1331 1297 -1286 
Q 1028 -1241 775 -1147 
L 775 -588 
Q 1028 -725 1275 -790 
Q 1522 -856 1778 -856 
Q 2344 -856 2625 -561 
Q 2906 -266 2906 331 
L 2906 616 
Q 2728 306 2450 153 
Q 2172 0 1784 0 
Q 1141 0 747 490 
Q 353 981 353 1791 
Q 353 2603 747 3093 
Q 1141 3584 1784 3584 
Q 2172 3584 2450 3431 
Q 2728 3278 2906 2969 
L 2906 3500 
L 3481 3500 
L 3481 434 
z
" transform="scale(0.015625)"/>
        <path id="DejaVuSans-74" d="M 1172 4494 
L 1172 3500 
L 2356 3500 
L 2356 3053 
L 1172 3053 
L 1172 1153 
Q 1172 725 1289 603 
Q 1406 481 1766 481 
L 2356 481 
L 2356 0 
L 1766 0 
Q 1100 0 847 248 
Q 594 497 594 1153 
L 594 3053 
L 172 3053 
L 172 3500 
L 594 3500 
L 594 4494 
L 1172 4494 
z
" transform="scale(0.015625)"/>
        <path id="DejaVuSans-68" d="M 3513 2113 
L 3513 0 
L 2938 0 
L 2938 2094 
Q 2938 2591 2744 2837 
Q 2550 3084 2163 3084 
Q 1697 3084 1428 2787 
Q 1159 2491 1159 1978 
L 1159 0 
L 581 0 
L 581 4863 
L 1159 4863 
L 1159 2956 
Q 1366 3272 1645 3428 
Q 1925 3584 2291 3584 
Q 2894 3584 3203 3211 
Q 3513 2838 3513 2113 
z
" transform="scale(0.015625)"/>
        <path id="DejaVuSans-28" d="M 1984 4856 
Q 1566 4138 1362 3434 
Q 1159 2731 1159 2009 
Q 1159 1288 1364 580 
Q 1569 -128 1984 -844 
L 1484 -844 
Q 1016 -109 783 600 
Q 550 1309 550 2009 
Q 550 2706 781 3412 
Q 1013 4119 1484 4856 
L 1984 4856 
z
" transform="scale(0.015625)"/>
        <path id="DejaVuSans-75" d="M 544 1381 
L 544 3500 
L 1119 3500 
L 1119 1403 
Q 1119 906 1312 657 
Q 1506 409 1894 409 
Q 2359 409 2629 706 
Q 2900 1003 2900 1516 
L 2900 3500 
L 3475 3500 
L 3475 0 
L 2900 0 
L 2900 538 
Q 2691 219 2414 64 
Q 2138 -91 1772 -91 
Q 1169 -91 856 284 
Q 544 659 544 1381 
z
M 1991 3584 
L 1991 3584 
z
" transform="scale(0.015625)"/>
        <path id="DejaVuSans-33" d="M 2597 2516 
Q 3050 2419 3304 2112 
Q 3559 1806 3559 1356 
Q 3559 666 3084 287 
Q 2609 -91 1734 -91 
Q 1441 -91 1130 -33 
Q 819 25 488 141 
L 488 750 
Q 750 597 1062 519 
Q 1375 441 1716 441 
Q 2309 441 2620 675 
Q 2931 909 2931 1356 
Q 2931 1769 2642 2001 
Q 2353 2234 1838 2234 
L 1294 2234 
L 1294 2753 
L 1863 2753 
Q 2328 2753 2575 2939 
Q 2822 3125 2822 3475 
Q 2822 3834 2567 4026 
Q 2313 4219 1838 4219 
Q 1578 4219 1281 4162 
Q 984 4106 628 3988 
L 628 4550 
Q 988 4650 1302 4700 
Q 1616 4750 1894 4750 
Q 2613 4750 3031 4423 
Q 3450 4097 3450 3541 
Q 3450 3153 3228 2886 
Q 3006 2619 2597 2516 
z
" transform="scale(0.015625)"/>
        <path id="DejaVuSans-29" d="M 513 4856 
L 1013 4856 
Q 1481 4119 1714 3412 
Q 1947 2706 1947 2009 
Q 1947 1309 1714 600 
Q 1481 -109 1013 -844 
L 513 -844 
Q 928 -128 1133 580 
Q 1338 1288 1338 2009 
Q 1338 2731 1133 3434 
Q 928 4138 513 4856 
z
" transform="scale(0.015625)"/>
       </defs>
       <use xlink:href="#DejaVuSans-41"/>
       <use xlink:href="#DejaVuSans-72" x="68.408203"/>
       <use xlink:href="#DejaVuSans-72" x="107.771484"/>
       <use xlink:href="#DejaVuSans-61" x="148.884766"/>
       <use xlink:href="#DejaVuSans-79" x="210.164062"/>
       <use xlink:href="#DejaVuSans-20" x="269.34375"/>
       <use xlink:href="#DejaVuSans-6c" x="301.130859"/>
       <use xlink:href="#DejaVuSans-65" x="328.914062"/>
       <use xlink:href="#DejaVuSans-6e" x="390.4375"/>
       <use xlink:href="#DejaVuSans-67" x="453.816406"/>
       <use xlink:href="#DejaVuSans-74" x="517.292969"/>
       <use xlink:href="#DejaVuSans-68" x="556.501953"/>
       <use xlink:href="#DejaVuSans-20" x="619.880859"/>
       <use xlink:href="#DejaVuSans-28" x="651.667969"/>
       <use xlink:href="#DejaVuSans-75" x="690.681641"/>
       <use xlink:href="#DejaVuSans-33" x="754.060547"/>
       <use xlink:href="#DejaVuSans-32" x="817.683594"/>
       <use xlink:href="#DejaVuSans-29" x="881.306641"/>
      </g>
     </g>
    </g>
    <g id="matplotlib.axis_2"/>
    <g id="patch_4">
     <path d="M 46.965625 50.594687 
L 660.765625 50.594687 
" style="fill: none; stroke: #000000; stroke-width: 0.8; stroke-linejoin: miter; stroke-linecap: square"/>
    </g>
   </g>
   <g id="matplotlib.axis_3">
    <g id="xtick_15">
     <g id="line2d_18">
      <path d="M 47.798072 494.114688 
L 47.798072 50.594688 
" clip-path="url(#pb16221f3ca)" style="fill: none; stroke: #b0b0b0; stroke-opacity: 0.4; stroke-width: 0.8; stroke-linecap: square"/>
     </g>
     <g id="line2d_19">
      <defs>
       <path id="me0a37b713a" d="M 0 0 
L 0 3.5 
" style="stroke: #000000; stroke-width: 0.8"/>
      </defs>
      <g>
       <use xlink:href="#me0a37b713a" x="47.798072" y="494.114688" style="stroke: #000000; stroke-width: 0.8"/>
      </g>
     </g>
     <g id="text_16">
      <!-- $\mathdefault{2^{4}}$ -->
      <g transform="translate(42.198072 508.713125) scale(0.1 -0.1)">
       <use xlink:href="#DejaVuSans-32" transform="translate(0 0.684375)"/>
       <use xlink:href="#DejaVuSans-34" transform="translate(64.580078 38.965625) scale(0.7)"/>
      </g>
     </g>
    </g>
    <g id="xtick_16">
     <g id="line2d_20">
      <path d="M 92.55805 494.114688 
L 92.55805 50.594688 
" clip-path="url(#pb16221f3ca)" style="fill: none; stroke: #b0b0b0; stroke-opacity: 0.4; stroke-width: 0.8; stroke-linecap: square"/>
     </g>
     <g id="line2d_21">
      <g>
       <use xlink:href="#me0a37b713a" x="92.55805" y="494.114688" style="stroke: #000000; stroke-width: 0.8"/>
      </g>
     </g>
     <g id="text_17">
      <!-- $\mathdefault{2^{6}}$ -->
      <g transform="translate(86.95805 508.713125) scale(0.1 -0.1)">
       <use xlink:href="#DejaVuSans-32" transform="translate(0 0.765625)"/>
       <use xlink:href="#DejaVuSans-36" transform="translate(64.580078 39.046875) scale(0.7)"/>
      </g>
     </g>
    </g>
    <g id="xtick_17">
     <g id="line2d_22">
      <path d="M 137.318027 494.114688 
L 137.318027 50.594688 
" clip-path="url(#pb16221f3ca)" style="fill: none; stroke: #b0b0b0; stroke-opacity: 0.4; stroke-width: 0.8; stroke-linecap: square"/>
     </g>
     <g id="line2d_23">
      <g>
       <use xlink:href="#me0a37b713a" x="137.318027" y="494.114688" style="stroke: #000000; stroke-width: 0.8"/>
      </g>
     </g>
     <g id="text_18">
      <!-- $\mathdefault{2^{8}}$ -->
      <g transform="translate(131.718027 508.713125) scale(0.1 -0.1)">
       <use xlink:href="#DejaVuSans-32" transform="translate(0 0.765625)"/>
       <use xlink:href="#DejaVuSans-38" transform="translate(64.580078 39.046875) scale(0.7)"/>
      </g>
     </g>
    </g>
    <g id="xtick_18">
     <g id="line2d_24">
      <path d="M 182.078004 494.114688 
L 182.078004 50.594688 
" clip-path="url(#pb16221f3ca)" style="fill: none; stroke: #b0b0b0; stroke-opacity: 0.4; stroke-width: 0.8; stroke-linecap: square"/>
     </g>
     <g id="line2d_25">
      <g>
       <use xlink:href="#me0a37b713a" x="182.078004" y="494.114688" style="stroke: #000000; stroke-width: 0.8"/>
      </g>
     </g>
     <g id="text_19">
      <!-- $\mathdefault{2^{10}}$ -->
      <g transform="translate(174.228004 508.713125) scale(0.1 -0.1)">
       <use xlink:href="#DejaVuSans-32" transform="translate(0 0.765625)"/>
       <use xlink:href="#DejaVuSans-31" transform="translate(64.580078 39.046875) scale(0.7)"/>
       <use xlink:href="#DejaVuSans-30" transform="translate(109.116211 39.046875) scale(0.7)"/>
      </g>
     </g>
    </g>
    <g id="xtick_19">
     <g id="line2d_26">
      <path d="M 226.837981 494.114688 
L 226.837981 50.594688 
" clip-path="url(#pb16221f3ca)" style="fill: none; stroke: #b0b0b0; stroke-opacity: 0.4; stroke-width: 0.8; stroke-linecap: square"/>
     </g>
     <g id="line2d_27">
      <g>
       <use xlink:href="#me0a37b713a" x="226.837981" y="494.114688" style="stroke: #000000; stroke-width: 0.8"/>
      </g>
     </g>
     <g id="text_20">
      <!-- $\mathdefault{2^{12}}$ -->
      <g transform="translate(218.987981 508.713125) scale(0.1 -0.1)">
       <use xlink:href="#DejaVuSans-32" transform="translate(0 0.765625)"/>
       <use xlink:href="#DejaVuSans-31" transform="translate(64.580078 39.046875) scale(0.7)"/>
       <use xlink:href="#DejaVuSans-32" transform="translate(109.116211 39.046875) scale(0.7)"/>
      </g>
     </g>
    </g>
    <g id="xtick_20">
     <g id="line2d_28">
      <path d="M 271.597958 494.114688 
L 271.597958 50.594688 
" clip-path="url(#pb16221f3ca)" style="fill: none; stroke: #b0b0b0; stroke-opacity: 0.4; stroke-width: 0.8; stroke-linecap: square"/>
     </g>
     <g id="line2d_29">
      <g>
       <use xlink:href="#me0a37b713a" x="271.597958" y="494.114688" style="stroke: #000000; stroke-width: 0.8"/>
      </g>
     </g>
     <g id="text_21">
      <!-- $\mathdefault{2^{14}}$ -->
      <g transform="translate(263.747958 508.713125) scale(0.1 -0.1)">
       <use xlink:href="#DejaVuSans-32" transform="translate(0 0.684375)"/>
       <use xlink:href="#DejaVuSans-31" transform="translate(64.580078 38.965625) scale(0.7)"/>
       <use xlink:href="#DejaVuSans-34" transform="translate(109.116211 38.965625) scale(0.7)"/>
      </g>
     </g>
    </g>
    <g id="xtick_21">
     <g id="line2d_30">
      <path d="M 316.357936 494.114688 
L 316.357936 50.594688 
" clip-path="url(#pb16221f3ca)" style="fill: none; stroke: #b0b0b0; stroke-opacity: 0.4; stroke-width: 0.8; stroke-linecap: square"/>
     </g>
     <g id="line2d_31">
      <g>
       <use xlink:href="#me0a37b713a" x="316.357936" y="494.114688" style="stroke: #000000; stroke-width: 0.8"/>
      </g>
     </g>
     <g id="text_22">
      <!-- $\mathdefault{2^{16}}$ -->
      <g transform="translate(308.507936 508.713125) scale(0.1 -0.1)">
       <use xlink:href="#DejaVuSans-32" transform="translate(0 0.765625)"/>
       <use xlink:href="#DejaVuSans-31" transform="translate(64.580078 39.046875) scale(0.7)"/>
       <use xlink:href="#DejaVuSans-36" transform="translate(109.116211 39.046875) scale(0.7)"/>
      </g>
     </g>
    </g>
    <g id="xtick_22">
     <g id="line2d_32">
      <path d="M 361.117913 494.114688 
L 361.117913 50.594688 
" clip-path="url(#pb16221f3ca)" style="fill: none; stroke: #b0b0b0; stroke-opacity: 0.4; stroke-width: 0.8; stroke-linecap: square"/>
     </g>
     <g id="line2d_33">
      <g>
       <use xlink:href="#me0a37b713a" x="361.117913" y="494.114688" style="stroke: #000000; stroke-width: 0.8"/>
      </g>
     </g>
     <g id="text_23">
      <!-- $\mathdefault{2^{18}}$ -->
      <g transform="translate(353.267913 508.713125) scale(0.1 -0.1)">
       <use xlink:href="#DejaVuSans-32" transform="translate(0 0.765625)"/>
       <use xlink:href="#DejaVuSans-31" transform="translate(64.580078 39.046875) scale(0.7)"/>
       <use xlink:href="#DejaVuSans-38" transform="translate(109.116211 39.046875) scale(0.7)"/>
      </g>
     </g>
    </g>
    <g id="xtick_23">
     <g id="line2d_34">
      <path d="M 405.87789 494.114688 
L 405.87789 50.594688 
" clip-path="url(#pb16221f3ca)" style="fill: none; stroke: #b0b0b0; stroke-opacity: 0.4; stroke-width: 0.8; stroke-linecap: square"/>
     </g>
     <g id="line2d_35">
      <g>
       <use xlink:href="#me0a37b713a" x="405.87789" y="494.114688" style="stroke: #000000; stroke-width: 0.8"/>
      </g>
     </g>
     <g id="text_24">
      <!-- $\mathdefault{2^{20}}$ -->
      <g transform="translate(398.02789 508.713125) scale(0.1 -0.1)">
       <use xlink:href="#DejaVuSans-32" transform="translate(0 0.765625)"/>
       <use xlink:href="#DejaVuSans-32" transform="translate(64.580078 39.046875) scale(0.7)"/>
       <use xlink:href="#DejaVuSans-30" transform="translate(109.116211 39.046875) scale(0.7)"/>
      </g>
     </g>
    </g>
    <g id="xtick_24">
     <g id="line2d_36">
      <path d="M 450.637867 494.114688 
L 450.637867 50.594688 
" clip-path="url(#pb16221f3ca)" style="fill: none; stroke: #b0b0b0; stroke-opacity: 0.4; stroke-width: 0.8; stroke-linecap: square"/>
     </g>
     <g id="line2d_37">
      <g>
       <use xlink:href="#me0a37b713a" x="450.637867" y="494.114688" style="stroke: #000000; stroke-width: 0.8"/>
      </g>
     </g>
     <g id="text_25">
      <!-- $\mathdefault{2^{22}}$ -->
      <g transform="translate(442.787867 508.713125) scale(0.1 -0.1)">
       <use xlink:href="#DejaVuSans-32" transform="translate(0 0.765625)"/>
       <use xlink:href="#DejaVuSans-32" transform="translate(64.580078 39.046875) scale(0.7)"/>
       <use xlink:href="#DejaVuSans-32" transform="translate(109.116211 39.046875) scale(0.7)"/>
      </g>
     </g>
    </g>
    <g id="xtick_25">
     <g id="line2d_38">
      <path d="M 495.397844 494.114688 
L 495.397844 50.594688 
" clip-path="url(#pb16221f3ca)" style="fill: none; stroke: #b0b0b0; stroke-opacity: 0.4; stroke-width: 0.8; stroke-linecap: square"/>
     </g>
     <g id="line2d_39">
      <g>
       <use xlink:href="#me0a37b713a" x="495.397844" y="494.114688" style="stroke: #000000; stroke-width: 0.8"/>
      </g>
     </g>
     <g id="text_26">
      <!-- $\mathdefault{2^{24}}$ -->
      <g transform="translate(487.547844 508.713125) scale(0.1 -0.1)">
       <use xlink:href="#DejaVuSans-32" transform="translate(0 0.765625)"/>
       <use xlink:href="#DejaVuSans-32" transform="translate(64.580078 39.046875) scale(0.7)"/>
       <use xlink:href="#DejaVuSans-34" transform="translate(109.116211 39.046875) scale(0.7)"/>
      </g>
     </g>
    </g>
    <g id="xtick_26">
     <g id="line2d_40">
      <path d="M 540.157822 494.114688 
L 540.157822 50.594688 
" clip-path="url(#pb16221f3ca)" style="fill: none; stroke: #b0b0b0; stroke-opacity: 0.4; stroke-width: 0.8; stroke-linecap: square"/>
     </g>
     <g id="line2d_41">
      <g>
       <use xlink:href="#me0a37b713a" x="540.157822" y="494.114688" style="stroke: #000000; stroke-width: 0.8"/>
      </g>
     </g>
     <g id="text_27">
      <!-- $\mathdefault{2^{26}}$ -->
      <g transform="translate(532.307822 508.713125) scale(0.1 -0.1)">
       <use xlink:href="#DejaVuSans-32" transform="translate(0 0.765625)"/>
       <use xlink:href="#DejaVuSans-32" transform="translate(64.580078 39.046875) scale(0.7)"/>
       <use xlink:href="#DejaVuSans-36" transform="translate(109.116211 39.046875) scale(0.7)"/>
      </g>
     </g>
    </g>
    <g id="xtick_27">
     <g id="line2d_42">
      <path d="M 584.917799 494.114688 
L 584.917799 50.594688 
" clip-path="url(#pb16221f3ca)" style="fill: none; stroke: #b0b0b0; stroke-opacity: 0.4; stroke-width: 0.8; stroke-linecap: square"/>
     </g>
     <g id="line2d_43">
      <g>
       <use xlink:href="#me0a37b713a" x="584.917799" y="494.114688" style="stroke: #000000; stroke-width: 0.8"/>
      </g>
     </g>
     <g id="text_28">
      <!-- $\mathdefault{2^{28}}$ -->
      <g transform="translate(577.067799 508.713125) scale(0.1 -0.1)">
       <use xlink:href="#DejaVuSans-32" transform="translate(0 0.765625)"/>
       <use xlink:href="#DejaVuSans-32" transform="translate(64.580078 39.046875) scale(0.7)"/>
       <use xlink:href="#DejaVuSans-38" transform="translate(109.116211 39.046875) scale(0.7)"/>
      </g>
     </g>
    </g>
    <g id="xtick_28">
     <g id="line2d_44">
      <path d="M 629.677776 494.114688 
L 629.677776 50.594688 
" clip-path="url(#pb16221f3ca)" style="fill: none; stroke: #b0b0b0; stroke-opacity: 0.4; stroke-width: 0.8; stroke-linecap: square"/>
     </g>
     <g id="line2d_45">
      <g>
       <use xlink:href="#me0a37b713a" x="629.677776" y="494.114688" style="stroke: #000000; stroke-width: 0.8"/>
      </g>
     </g>
     <g id="text_29">
      <!-- $\mathdefault{2^{30}}$ -->
      <g transform="translate(621.827776 508.713125) scale(0.1 -0.1)">
       <use xlink:href="#DejaVuSans-32" transform="translate(0 0.765625)"/>
       <use xlink:href="#DejaVuSans-33" transform="translate(64.580078 39.046875) scale(0.7)"/>
       <use xlink:href="#DejaVuSans-30" transform="translate(109.116211 39.046875) scale(0.7)"/>
      </g>
     </g>
    </g>
    <g id="text_30">
     <!-- Input size (bytes) -->
     <g transform="translate(310.369531 522.39125) scale(0.1 -0.1)">
      <defs>
       <path id="DejaVuSans-49" d="M 628 4666 
L 1259 4666 
L 1259 0 
L 628 0 
L 628 4666 
z
" transform="scale(0.015625)"/>
       <path id="DejaVuSans-70" d="M 1159 525 
L 1159 -1331 
L 581 -1331 
L 581 3500 
L 1159 3500 
L 1159 2969 
Q 1341 3281 1617 3432 
Q 1894 3584 2278 3584 
Q 2916 3584 3314 3078 
Q 3713 2572 3713 1747 
Q 3713 922 3314 415 
Q 2916 -91 2278 -91 
Q 1894 -91 1617 61 
Q 1341 213 1159 525 
z
M 3116 1747 
Q 3116 2381 2855 2742 
Q 2594 3103 2138 3103 
Q 1681 3103 1420 2742 
Q 1159 2381 1159 1747 
Q 1159 1113 1420 752 
Q 1681 391 2138 391 
Q 2594 391 2855 752 
Q 3116 1113 3116 1747 
z
" transform="scale(0.015625)"/>
       <path id="DejaVuSans-73" d="M 2834 3397 
L 2834 2853 
Q 2591 2978 2328 3040 
Q 2066 3103 1784 3103 
Q 1356 3103 1142 2972 
Q 928 2841 928 2578 
Q 928 2378 1081 2264 
Q 1234 2150 1697 2047 
L 1894 2003 
Q 2506 1872 2764 1633 
Q 3022 1394 3022 966 
Q 3022 478 2636 193 
Q 2250 -91 1575 -91 
Q 1294 -91 989 -36 
Q 684 19 347 128 
L 347 722 
Q 666 556 975 473 
Q 1284 391 1588 391 
Q 1994 391 2212 530 
Q 2431 669 2431 922 
Q 2431 1156 2273 1281 
Q 2116 1406 1581 1522 
L 1381 1569 
Q 847 1681 609 1914 
Q 372 2147 372 2553 
Q 372 3047 722 3315 
Q 1072 3584 1716 3584 
Q 2034 3584 2315 3537 
Q 2597 3491 2834 3397 
z
" transform="scale(0.015625)"/>
       <path id="DejaVuSans-69" d="M 603 3500 
L 1178 3500 
L 1178 0 
L 603 0 
L 603 3500 
z
M 603 4863 
L 1178 4863 
L 1178 4134 
L 603 4134 
L 603 4863 
z
" transform="scale(0.015625)"/>
       <path id="DejaVuSans-7a" d="M 353 3500 
L 3084 3500 
L 3084 2975 
L 922 459 
L 3084 459 
L 3084 0 
L 275 0 
L 275 525 
L 2438 3041 
L 353 3041 
L 353 3500 
z
" transform="scale(0.015625)"/>
       <path id="DejaVuSans-62" d="M 3116 1747 
Q 3116 2381 2855 2742 
Q 2594 3103 2138 3103 
Q 1681 3103 1420 2742 
Q 1159 2381 1159 1747 
Q 1159 1113 1420 752 
Q 1681 391 2138 391 
Q 2594 391 2855 752 
Q 3116 1113 3116 1747 
z
M 1159 2969 
Q 1341 3281 1617 3432 
Q 1894 3584 2278 3584 
Q 2916 3584 3314 3078 
Q 3713 2572 3713 1747 
Q 3713 922 3314 415 
Q 2916 -91 2278 -91 
Q 1894 -91 1617 61 
Q 1341 213 1159 525 
L 1159 0 
L 581 0 
L 581 4863 
L 1159 4863 
L 1159 2969 
z
" transform="scale(0.015625)"/>
      </defs>
      <use xlink:href="#DejaVuSans-49"/>
      <use xlink:href="#DejaVuSans-6e" x="29.492188"/>
      <use xlink:href="#DejaVuSans-70" x="92.871094"/>
      <use xlink:href="#DejaVuSans-75" x="156.347656"/>
      <use xlink:href="#DejaVuSans-74" x="219.726562"/>
      <use xlink:href="#DejaVuSans-20" x="258.935547"/>
      <use xlink:href="#DejaVuSans-73" x="290.722656"/>
      <use xlink:href="#DejaVuSans-69" x="342.822266"/>
      <use xlink:href="#DejaVuSans-7a" x="370.605469"/>
      <use xlink:href="#DejaVuSans-65" x="423.095703"/>
      <use xlink:href="#DejaVuSans-20" x="484.619141"/>
      <use xlink:href="#DejaVuSans-28" x="516.40625"/>
      <use xlink:href="#DejaVuSans-62" x="555.419922"/>
      <use xlink:href="#DejaVuSans-79" x="618.896484"/>
      <use xlink:href="#DejaVuSans-74" x="678.076172"/>
      <use xlink:href="#DejaVuSans-65" x="717.285156"/>
      <use xlink:href="#DejaVuSans-73" x="778.808594"/>
      <use xlink:href="#DejaVuSans-29" x="830.908203"/>
     </g>
    </g>
   </g>
   <g id="matplotlib.axis_4">
    <g id="ytick_1">
     <g id="line2d_46">
      <path d="M 46.965625 494.114688 
L 660.765625 494.114688 
" clip-path="url(#pb16221f3ca)" style="fill: none; stroke: #b0b0b0; stroke-opacity: 0.4; stroke-width: 0.8; stroke-linecap: square"/>
     </g>
     <g id="line2d_47">
      <defs>
       <path id="m3f35242453" d="M 0 0 
L -3.5 0 
" style="stroke: #000000; stroke-width: 0.8"/>
      </defs>
      <g>
       <use xlink:href="#m3f35242453" x="46.965625" y="494.114688" style="stroke: #000000; stroke-width: 0.8"/>
      </g>
     </g>
     <g id="text_31">
      <!-- 0 -->
      <g transform="translate(33.603125 497.913906) scale(0.1 -0.1)">
       <use xlink:href="#DejaVuSans-30"/>
      </g>
     </g>
    </g>
    <g id="ytick_2">
     <g id="line2d_48">
      <path d="M 46.965625 405.410688 
L 660.765625 405.410688 
" clip-path="url(#pb16221f3ca)" style="fill: none; stroke: #b0b0b0; stroke-opacity: 0.4; stroke-width: 0.8; stroke-linecap: square"/>
     </g>
     <g id="line2d_49">
      <g>
       <use xlink:href="#m3f35242453" x="46.965625" y="405.410688" style="stroke: #000000; stroke-width: 0.8"/>
      </g>
     </g>
     <g id="text_32">
      <!-- 100 -->
      <g transform="translate(20.878125 409.209906) scale(0.1 -0.1)">
       <use xlink:href="#DejaVuSans-31"/>
       <use xlink:href="#DejaVuSans-30" x="63.623047"/>
       <use xlink:href="#DejaVuSans-30" x="127.246094"/>
      </g>
     </g>
    </g>
    <g id="ytick_3">
     <g id="line2d_50">
      <path d="M 46.965625 316.706688 
L 660.765625 316.706688 
" clip-path="url(#pb16221f3ca)" style="fill: none; stroke: #b0b0b0; stroke-opacity: 0.4; stroke-width: 0.8; stroke-linecap: square"/>
     </g>
     <g id="line2d_51">
      <g>
       <use xlink:href="#m3f35242453" x="46.965625" y="316.706688" style="stroke: #000000; stroke-width: 0.8"/>
      </g>
     </g>
     <g id="text_33">
      <!-- 200 -->
      <g transform="translate(20.878125 320.505906) scale(0.1 -0.1)">
       <use xlink:href="#DejaVuSans-32"/>
       <use xlink:href="#DejaVuSans-30" x="63.623047"/>
       <use xlink:href="#DejaVuSans-30" x="127.246094"/>
      </g>
     </g>
    </g>
    <g id="ytick_4">
     <g id="line2d_52">
      <path d="M 46.965625 228.002688 
L 660.765625 228.002688 
" clip-path="url(#pb16221f3ca)" style="fill: none; stroke: #b0b0b0; stroke-opacity: 0.4; stroke-width: 0.8; stroke-linecap: square"/>
     </g>
     <g id="line2d_53">
      <g>
       <use xlink:href="#m3f35242453" x="46.965625" y="228.002688" style="stroke: #000000; stroke-width: 0.8"/>
      </g>
     </g>
     <g id="text_34">
      <!-- 300 -->
      <g transform="translate(20.878125 231.801906) scale(0.1 -0.1)">
       <use xlink:href="#DejaVuSans-33"/>
       <use xlink:href="#DejaVuSans-30" x="63.623047"/>
       <use xlink:href="#DejaVuSans-30" x="127.246094"/>
      </g>
     </g>
    </g>
    <g id="ytick_5">
     <g id="line2d_54">
      <path d="M 46.965625 139.298688 
L 660.765625 139.298688 
" clip-path="url(#pb16221f3ca)" style="fill: none; stroke: #b0b0b0; stroke-opacity: 0.4; stroke-width: 0.8; stroke-linecap: square"/>
     </g>
     <g id="line2d_55">
      <g>
       <use xlink:href="#m3f35242453" x="46.965625" y="139.298688" style="stroke: #000000; stroke-width: 0.8"/>
      </g>
     </g>
     <g id="text_35">
      <!-- 400 -->
      <g transform="translate(20.878125 143.097906) scale(0.1 -0.1)">
       <use xlink:href="#DejaVuSans-34"/>
       <use xlink:href="#DejaVuSans-30" x="63.623047"/>
       <use xlink:href="#DejaVuSans-30" x="127.246094"/>
      </g>
     </g>
    </g>
    <g id="ytick_6">
     <g id="line2d_56">
      <path d="M 46.965625 50.594688 
L 660.765625 50.594688 
" clip-path="url(#pb16221f3ca)" style="fill: none; stroke: #b0b0b0; stroke-opacity: 0.4; stroke-width: 0.8; stroke-linecap: square"/>
     </g>
     <g id="line2d_57">
      <g>
       <use xlink:href="#m3f35242453" x="46.965625" y="50.594688" style="stroke: #000000; stroke-width: 0.8"/>
      </g>
     </g>
     <g id="text_36">
      <!-- 500 -->
      <g transform="translate(20.878125 54.393906) scale(0.1 -0.1)">
       <defs>
        <path id="DejaVuSans-35" d="M 691 4666 
L 3169 4666 
L 3169 4134 
L 1269 4134 
L 1269 2991 
Q 1406 3038 1543 3061 
Q 1681 3084 1819 3084 
Q 2600 3084 3056 2656 
Q 3513 2228 3513 1497 
Q 3513 744 3044 326 
Q 2575 -91 1722 -91 
Q 1428 -91 1123 -41 
Q 819 9 494 109 
L 494 744 
Q 775 591 1075 516 
Q 1375 441 1709 441 
Q 2250 441 2565 725 
Q 2881 1009 2881 1497 
Q 2881 1984 2565 2268 
Q 2250 2553 1709 2553 
Q 1456 2553 1204 2497 
Q 953 2441 691 2322 
L 691 4666 
z
" transform="scale(0.015625)"/>
       </defs>
       <use xlink:href="#DejaVuSans-35"/>
       <use xlink:href="#DejaVuSans-30" x="63.623047"/>
       <use xlink:href="#DejaVuSans-30" x="127.246094"/>
      </g>
     </g>
    </g>
    <g id="text_37">
     <!-- Inverse throughput (ns) -->
     <g transform="translate(14.798438 331.570313) rotate(-90) scale(0.1 -0.1)">
      <defs>
       <path id="DejaVuSans-76" d="M 191 3500 
L 800 3500 
L 1894 563 
L 2988 3500 
L 3597 3500 
L 2284 0 
L 1503 0 
L 191 3500 
z
" transform="scale(0.015625)"/>
       <path id="DejaVuSans-6f" d="M 1959 3097 
Q 1497 3097 1228 2736 
Q 959 2375 959 1747 
Q 959 1119 1226 758 
Q 1494 397 1959 397 
Q 2419 397 2687 759 
Q 2956 1122 2956 1747 
Q 2956 2369 2687 2733 
Q 2419 3097 1959 3097 
z
M 1959 3584 
Q 2709 3584 3137 3096 
Q 3566 2609 3566 1747 
Q 3566 888 3137 398 
Q 2709 -91 1959 -91 
Q 1206 -91 779 398 
Q 353 888 353 1747 
Q 353 2609 779 3096 
Q 1206 3584 1959 3584 
z
" transform="scale(0.015625)"/>
      </defs>
      <use xlink:href="#DejaVuSans-49"/>
      <use xlink:href="#DejaVuSans-6e" x="29.492188"/>
      <use xlink:href="#DejaVuSans-76" x="92.871094"/>
      <use xlink:href="#DejaVuSans-65" x="152.050781"/>
      <use xlink:href="#DejaVuSans-72" x="213.574219"/>
      <use xlink:href="#DejaVuSans-73" x="254.6875"/>
      <use xlink:href="#DejaVuSans-65" x="306.787109"/>
      <use xlink:href="#DejaVuSans-20" x="368.310547"/>
      <use xlink:href="#DejaVuSans-74" x="400.097656"/>
      <use xlink:href="#DejaVuSans-68" x="439.306641"/>
      <use xlink:href="#DejaVuSans-72" x="502.685547"/>
      <use xlink:href="#DejaVuSans-6f" x="541.548828"/>
      <use xlink:href="#DejaVuSans-75" x="602.730469"/>
      <use xlink:href="#DejaVuSans-67" x="666.109375"/>
      <use xlink:href="#DejaVuSans-68" x="729.585938"/>
      <use xlink:href="#DejaVuSans-70" x="792.964844"/>
      <use xlink:href="#DejaVuSans-75" x="856.441406"/>
      <use xlink:href="#DejaVuSans-74" x="919.820312"/>
      <use xlink:href="#DejaVuSans-20" x="959.029297"/>
      <use xlink:href="#DejaVuSans-28" x="990.816406"/>
      <use xlink:href="#DejaVuSans-6e" x="1029.830078"/>
      <use xlink:href="#DejaVuSans-73" x="1093.208984"/>
      <use xlink:href="#DejaVuSans-29" x="1145.308594"/>
     </g>
    </g>
   </g>
   <g id="line2d_58">
    <path d="M 74.865625 482.884044 
L 79.717861 482.878404 
L 85.226933 482.863106 
L 89.931602 482.865008 
L 95.451402 482.877418 
L 100.560059 482.874771 
L 105.649504 482.872023 
L 110.626644 482.87135 
L 115.686045 480.960001 
L 120.698375 480.819954 
L 125.76583 480.828724 
L 130.922845 480.83854 
L 136.031502 480.796684 
L 141.120946 477.950624 
L 146.194037 477.937744 
L 151.239539 477.936014 
L 156.310199 477.942415 
L 161.417148 475.280281 
L 166.445497 475.269337 
L 171.546665 475.295746 
L 176.629737 475.282032 
L 181.6974 475.27321 
L 186.765568 472.887075 
L 191.8283 472.899289 
L 196.908515 472.902378 
L 201.968068 472.889518 
L 207.047222 470.605022 
L 212.11362 470.615602 
L 217.179476 470.604029 
L 222.255185 470.609096 
L 227.323046 468.250422 
L 232.393234 467.792217 
L 237.462208 468.256206 
L 242.528364 468.234885 
L 247.601641 468.269847 
L 252.668633 465.824906 
L 257.738739 465.826123 
L 262.807428 465.802264 
L 267.877947 465.84788 
L 272.946884 463.379862 
L 278.01758 463.410982 
L 283.085513 463.346616 
L 288.15542 463.298593 
L 293.225314 463.355232 
L 298.294391 459.733528 
L 303.363392 459.864617 
L 308.432814 459.860679 
L 313.501943 459.863929 
L 318.571219 455.337134 
L 323.640627 455.272799 
L 328.709865 455.283301 
L 333.779336 455.46171 
L 338.848585 451.301533 
L 343.917898 451.421263 
L 348.987197 451.570416 
L 354.05646 451.37543 
L 359.125697 451.426717 
L 364.194971 446.143599 
L 369.26418 446.212896 
L 374.333445 446.18091 
L 379.402696 446.223751 
L 384.471968 442.140547 
L 389.541235 442.071405 
L 394.6105 441.940356 
L 399.679773 441.833358 
L 404.749018 441.716851 
L 409.818299 436.860293 
L 414.887559 436.782548 
L 419.956812 436.562415 
L 425.026073 436.541132 
L 430.095326 431.499941 
L 435.164582 429.263275 
L 440.23384 426.995032 
L 445.303103 423.886426 
L 450.372362 418.211178 
L 455.441618 401.982192 
L 460.510876 397.713723 
L 465.580132 391.597565 
L 470.649389 389.272638 
L 475.718649 383.156608 
L 480.787907 380.475092 
L 485.857165 379.69795 
L 490.926423 378.111261 
L 495.995678 372.878945 
L 501.064936 371.000783 
L 506.134192 369.170122 
L 511.20345 367.16057 
L 516.272707 364.722156 
L 521.341964 357.138111 
L 526.411223 355.000063 
L 531.480481 352.69439 
L 536.549739 349.848447 
L 541.618998 342.879664 
L 546.688254 341.295887 
L 551.757511 339.08151 
L 556.826767 337.939167 
L 561.896024 337.009671 
L 566.965282 330.174649 
L 572.034539 329.473308 
L 577.103797 327.588626 
L 582.173056 327.207007 
L 587.242311 313.845811 
L 592.311567 312.672243 
L 597.380824 311.454997 
L 602.450082 310.157241 
L 607.519338 295.71639 
L 612.588595 292.879117 
L 617.657853 293.394575 
L 622.72711 295.201519 
L 627.796367 293.770553 
L 632.865625 268.238384 
" clip-path="url(#pb16221f3ca)" style="fill: none; stroke: #17becf; stroke-linecap: square"/>
   </g>
   <g id="line2d_59">
    <path d="M 74.865625 486.606862 
L 79.717861 486.629549 
L 85.226933 486.58587 
L 89.931602 486.610699 
L 95.451402 485.839733 
L 100.560059 485.851778 
L 105.649504 485.854789 
L 110.626644 485.860626 
L 115.686045 484.965836 
L 120.698375 485.077009 
L 125.76583 485.053876 
L 130.922845 485.082817 
L 136.031502 485.09815 
L 141.120946 484.247358 
L 146.194037 484.222387 
L 151.239539 484.303144 
L 156.310199 484.207864 
L 161.417148 483.552661 
L 166.445497 483.519829 
L 171.546665 483.549862 
L 176.629737 483.513984 
L 181.6974 483.584968 
L 186.765568 482.781771 
L 191.8283 482.766325 
L 196.908515 482.78831 
L 201.968068 482.795531 
L 207.047222 482.069432 
L 212.11362 482.068589 
L 217.179476 482.087109 
L 222.255185 482.062328 
L 227.323046 481.269276 
L 232.393234 481.289912 
L 237.462208 481.221885 
L 242.528364 481.261521 
L 247.601641 481.250097 
L 252.668633 480.554876 
L 257.738739 480.531212 
L 262.807428 480.539936 
L 267.877947 480.551767 
L 272.946884 479.793376 
L 278.01758 479.809633 
L 283.085513 479.816624 
L 288.15542 479.729986 
L 293.225314 479.630035 
L 298.294391 478.835891 
L 303.363392 478.611144 
L 308.432814 478.306122 
L 313.501943 478.009512 
L 318.571219 476.811583 
L 323.640627 476.445065 
L 328.709865 476.083201 
L 333.779336 475.695155 
L 338.848585 474.164711 
L 343.917898 473.935329 
L 348.987197 473.835662 
L 354.05646 473.83934 
L 359.125697 473.893791 
L 364.194971 473.212838 
L 369.26418 473.094214 
L 374.333445 472.784421 
L 379.402696 472.242319 
L 384.471968 470.923243 
L 389.541235 469.464657 
L 394.6105 468.055448 
L 399.679773 467.250438 
L 404.749018 466.607493 
L 409.818299 464.974115 
L 414.887559 463.858428 
L 419.956812 463.156419 
L 425.026073 462.40649 
L 430.095326 461.224029 
L 435.164582 459.885464 
L 440.23384 457.895025 
L 445.303103 455.909137 
L 450.372362 449.676213 
L 455.441618 441.813656 
L 460.510876 435.036352 
L 465.580132 429.289666 
L 470.649389 427.029657 
L 475.718649 421.61923 
L 480.787907 414.67797 
L 485.857165 411.102119 
L 490.926423 409.297143 
L 495.995678 407.731234 
L 501.064936 399.90241 
L 506.134192 395.327788 
L 511.20345 393.354261 
L 516.272707 391.498219 
L 521.341964 386.073556 
L 526.411223 381.290101 
L 531.480481 379.017634 
L 536.549739 377.052142 
L 541.618998 373.886923 
L 546.688254 368.112787 
L 551.757511 364.360197 
L 556.826767 362.821442 
L 561.896024 361.308316 
L 566.965282 354.817609 
L 572.034539 351.348063 
L 577.103797 348.398563 
L 582.173056 346.364616 
L 587.242311 343.894189 
L 592.311567 337.199095 
L 597.380824 334.205545 
L 602.450082 331.629176 
L 607.519338 332.719351 
L 612.588595 323.110273 
L 617.657853 320.006117 
L 622.72711 318.348348 
L 627.796367 317.92917 
L 632.865625 312.495171 
" clip-path="url(#pb16221f3ca)" style="fill: none; stroke: #1f77b4; stroke-linecap: square"/>
   </g>
   <g id="line2d_60">
    <path d="M 74.865625 485.409612 
L 79.717861 485.426251 
L 85.226933 485.339008 
L 89.931602 485.435327 
L 95.451402 484.472021 
L 100.560059 484.466833 
L 105.649504 484.471755 
L 110.626644 484.467792 
L 115.686045 483.519162 
L 120.698375 483.505909 
L 125.76583 483.520911 
L 130.922845 483.504889 
L 136.031502 483.479195 
L 141.120946 482.556275 
L 146.194037 482.54192 
L 151.239539 482.538198 
L 156.310199 482.545988 
L 161.417148 481.602866 
L 166.445497 481.594063 
L 171.546665 481.602199 
L 176.629737 481.614645 
L 181.6974 481.610549 
L 186.765568 480.650238 
L 191.8283 480.641709 
L 196.908515 480.632621 
L 201.968068 480.642266 
L 207.047222 479.690054 
L 212.11362 479.694713 
L 217.179476 479.697216 
L 222.255185 479.690723 
L 227.323046 478.723458 
L 232.393234 478.734534 
L 237.462208 478.730981 
L 242.528364 478.729862 
L 247.601641 478.73134 
L 252.668633 477.78503 
L 257.738739 477.776274 
L 262.807428 477.780885 
L 267.877947 477.772722 
L 272.946884 476.798259 
L 278.01758 476.811747 
L 283.085513 476.815679 
L 288.15542 476.75709 
L 293.225314 476.715699 
L 298.294391 475.735027 
L 303.363392 475.612803 
L 308.432814 475.484673 
L 313.501943 475.326282 
L 318.571219 474.177725 
L 323.640627 473.914488 
L 328.709865 473.858996 
L 333.779336 473.774722 
L 338.848585 472.730972 
L 343.917898 472.449012 
L 348.987197 472.255625 
L 354.05646 472.103188 
L 359.125697 471.919534 
L 364.194971 470.664424 
L 369.26418 470.406448 
L 374.333445 470.09525 
L 379.402696 469.602303 
L 384.471968 468.102118 
L 389.541235 466.605077 
L 394.6105 464.755227 
L 399.679773 463.931555 
L 404.749018 463.553966 
L 409.818299 463.999625 
L 414.887559 462.188664 
L 419.956812 461.532519 
L 425.026073 460.861126 
L 430.095326 462.133029 
L 435.164582 460.030056 
L 440.23384 457.842954 
L 445.303103 456.325946 
L 450.372362 450.102977 
L 455.441618 447.077794 
L 460.510876 440.39047 
L 465.580132 436.890352 
L 470.649389 435.236311 
L 475.718649 435.584698 
L 480.787907 429.65538 
L 485.857165 426.893913 
L 490.926423 425.517401 
L 495.995678 430.785086 
L 501.064936 421.693058 
L 506.134192 418.718246 
L 511.20345 417.174169 
L 516.272707 415.997064 
L 521.341964 414.911997 
L 526.411223 410.902318 
L 531.480481 409.037347 
L 536.549739 408.381914 
L 541.618998 411.651486 
L 546.688254 403.896286 
L 551.757511 401.924434 
L 556.826767 400.730177 
L 561.896024 399.660639 
L 566.965282 397.918614 
L 572.034539 394.590134 
L 577.103797 392.661758 
L 582.173056 391.178599 
L 587.242311 393.232987 
L 592.311567 386.686023 
L 597.380824 384.880945 
L 602.450082 383.751637 
L 607.519338 391.966519 
L 612.588595 380.453955 
L 617.657853 377.304413 
L 622.72711 376.018408 
L 627.796367 375.156698 
L 632.865625 375.520961 
" clip-path="url(#pb16221f3ca)" style="fill: none; stroke: #8c564b; stroke-linecap: square"/>
   </g>
   <g id="line2d_61">
    <path d="M 74.865625 484.105718 
L 79.717861 484.112628 
L 85.226933 484.11754 
L 89.931602 484.113382 
L 95.451402 482.706736 
L 100.560059 482.700999 
L 105.649504 482.689602 
L 110.626644 482.696965 
L 115.686045 481.262597 
L 120.698375 481.269898 
L 125.76583 481.270659 
L 130.922845 481.26542 
L 136.031502 481.276737 
L 141.120946 479.869845 
L 146.194037 479.870843 
L 151.239539 479.859262 
L 156.310199 479.868213 
L 161.417148 478.194648 
L 166.445497 478.179044 
L 171.546665 478.182826 
L 176.629737 478.196164 
L 181.6974 478.182334 
L 186.765568 476.73904 
L 191.8283 476.725621 
L 196.908515 476.738068 
L 201.968068 476.73279 
L 207.047222 475.313425 
L 212.11362 475.304204 
L 217.179476 475.317049 
L 222.255185 475.292824 
L 227.323046 473.8884 
L 232.393234 473.885238 
L 237.462208 473.893828 
L 242.528364 473.896315 
L 247.601641 473.893037 
L 252.668633 472.511829 
L 257.738739 472.505782 
L 262.807428 472.500764 
L 267.877947 472.481239 
L 272.946884 471.1064 
L 278.01758 471.097916 
L 283.085513 471.063822 
L 288.15542 471.010138 
L 293.225314 470.937251 
L 298.294391 469.47641 
L 303.363392 469.347597 
L 308.432814 469.187834 
L 313.501943 469.038089 
L 318.571219 467.56625 
L 323.640627 467.425339 
L 328.709865 467.236421 
L 333.779336 467.026544 
L 338.848585 465.487648 
L 343.917898 465.273662 
L 348.987197 465.108473 
L 354.05646 464.907079 
L 359.125697 464.741591 
L 364.194971 463.217793 
L 369.26418 462.951807 
L 374.333445 462.668644 
L 379.402696 462.209385 
L 384.471968 460.316917 
L 389.541235 459.022562 
L 394.6105 458.62744 
L 399.679773 458.116832 
L 404.749018 457.718218 
L 409.818299 456.80716 
L 414.887559 456.203067 
L 419.956812 455.747395 
L 425.026073 454.856866 
L 430.095326 454.658209 
L 435.164582 453.646099 
L 440.23384 451.581759 
L 445.303103 449.242045 
L 450.372362 443.553089 
L 455.441618 439.633617 
L 460.510876 434.159591 
L 465.580132 430.530947 
L 470.649389 428.872373 
L 475.718649 428.685804 
L 480.787907 423.259904 
L 485.857165 420.960085 
L 490.926423 420.428814 
L 495.995678 424.532527 
L 501.064936 415.985978 
L 506.134192 413.465243 
L 511.20345 411.756486 
L 516.272707 410.89092 
L 521.341964 409.415156 
L 526.411223 405.65525 
L 531.480481 405.025031 
L 536.549739 403.504939 
L 541.618998 405.583714 
L 546.688254 398.989597 
L 551.757511 397.108524 
L 556.826767 396.111957 
L 561.896024 394.875575 
L 566.965282 392.570482 
L 572.034539 389.631558 
L 577.103797 388.797671 
L 582.173056 387.477945 
L 587.242311 387.342629 
L 592.311567 383.320736 
L 597.380824 382.105889 
L 602.450082 380.890716 
L 607.519338 386.504764 
L 612.588595 376.397146 
L 617.657853 374.315776 
L 622.72711 373.80473 
L 627.796367 372.373915 
L 632.865625 371.330348 
" clip-path="url(#pb16221f3ca)" style="fill: none; stroke: #8c564b; stroke-linecap: square"/>
   </g>
   <g id="line2d_62">
    <path d="M 74.865625 484.174995 
L 79.717861 484.195338 
L 85.226933 484.204772 
L 89.931602 484.197452 
L 95.451402 482.62504 
L 100.560059 482.631693 
L 105.649504 482.630278 
L 110.626644 482.611288 
L 115.686045 481.274082 
L 120.698375 481.274251 
L 125.76583 481.261121 
L 130.922845 481.260007 
L 136.031502 481.272906 
L 141.120946 479.830816 
L 146.194037 479.817451 
L 151.239539 479.820316 
L 156.310199 479.831482 
L 161.417148 478.385163 
L 166.445497 478.329798 
L 171.546665 478.397198 
L 176.629737 478.384811 
L 181.6974 478.387178 
L 186.765568 476.996762 
L 191.8283 476.956774 
L 196.908515 477.01579 
L 201.968068 476.986209 
L 207.047222 475.563921 
L 212.11362 475.565554 
L 217.179476 475.554521 
L 222.255185 475.569778 
L 227.323046 474.20966 
L 232.393234 474.209392 
L 237.462208 474.171648 
L 242.528364 474.186056 
L 247.601641 474.206807 
L 252.668633 472.760047 
L 257.738739 472.764746 
L 262.807428 472.75954 
L 267.877947 472.748323 
L 272.946884 471.324094 
L 278.01758 471.302634 
L 283.085513 471.263795 
L 288.15542 471.073874 
L 293.225314 471.053239 
L 298.294391 469.545356 
L 303.363392 469.379735 
L 308.432814 469.255034 
L 313.501943 469.110149 
L 318.571219 467.56141 
L 323.640627 467.372053 
L 328.709865 467.165152 
L 333.779336 467.03628 
L 338.848585 465.473122 
L 343.917898 465.40617 
L 348.987197 465.183886 
L 354.05646 465.089425 
L 359.125697 464.95617 
L 364.194971 463.50133 
L 369.26418 463.330359 
L 374.333445 463.10218 
L 379.402696 462.558789 
L 384.471968 460.128798 
L 389.541235 459.452383 
L 394.6105 458.756152 
L 399.679773 458.178587 
L 404.749018 457.75231 
L 409.818299 457.208131 
L 414.887559 456.307852 
L 419.956812 455.741924 
L 425.026073 454.772029 
L 430.095326 454.807521 
L 435.164582 453.687522 
L 440.23384 452.314091 
L 445.303103 449.561282 
L 450.372362 443.577295 
L 455.441618 440.583998 
L 460.510876 435.304594 
L 465.580132 431.993711 
L 470.649389 430.27314 
L 475.718649 430.366361 
L 480.787907 425.107788 
L 485.857165 423.21313 
L 490.926423 421.827859 
L 495.995678 426.070092 
L 501.064936 417.730387 
L 506.134192 415.391794 
L 511.20345 414.56776 
L 516.272707 412.957903 
L 521.341964 410.990102 
L 526.411223 408.449407 
L 531.480481 407.157117 
L 536.549739 405.931155 
L 541.618998 407.892016 
L 546.688254 401.66478 
L 551.757511 400.460062 
L 556.826767 399.221687 
L 561.896024 397.553773 
L 566.965282 395.922803 
L 572.034539 393.26432 
L 577.103797 392.158066 
L 582.173056 390.969945 
L 587.242311 391.323831 
L 592.311567 386.48957 
L 597.380824 385.458334 
L 602.450082 384.532112 
L 607.519338 390.476885 
L 612.588595 379.981757 
L 617.657853 378.734634 
L 622.72711 378.114769 
L 627.796367 376.216035 
L 632.865625 375.565372 
" clip-path="url(#pb16221f3ca)" style="fill: none; stroke: #e377c2; stroke-linecap: square"/>
   </g>
   <g id="line2d_63">
    <path d="M 74.865625 484.527035 
L 79.717861 484.523153 
L 85.226933 484.538682 
L 89.931602 484.537446 
L 95.451402 483.110379 
L 100.560059 483.102755 
L 105.649504 483.103875 
L 110.626644 483.103324 
L 115.686045 481.713058 
L 120.698375 481.71107 
L 125.76583 481.693053 
L 130.922845 481.701092 
L 136.031502 481.701403 
L 141.120946 480.197089 
L 146.194037 480.265411 
L 151.239539 480.275906 
L 156.310199 480.193493 
L 161.417148 478.800519 
L 166.445497 478.856368 
L 171.546665 478.871105 
L 176.629737 478.836188 
L 181.6974 478.79757 
L 186.765568 477.417973 
L 191.8283 477.418666 
L 196.908515 477.40052 
L 201.968068 477.37538 
L 207.047222 475.97132 
L 212.11362 476.021961 
L 217.179476 476.017892 
L 222.255185 476.01021 
L 227.323046 474.519647 
L 232.393234 474.526167 
L 237.462208 474.587371 
L 242.528364 474.574151 
L 247.601641 474.323265 
L 252.668633 473.102677 
L 257.738739 473.077015 
L 262.807428 473.145815 
L 267.877947 473.150626 
L 272.946884 471.70556 
L 278.01758 471.689044 
L 283.085513 471.599711 
L 288.15542 471.392133 
L 293.225314 471.369372 
L 298.294391 469.950762 
L 303.363392 469.811536 
L 308.432814 469.556833 
L 313.501943 469.451373 
L 318.571219 467.968268 
L 323.640627 467.794624 
L 328.709865 467.648864 
L 333.779336 467.47917 
L 338.848585 466.088994 
L 343.917898 465.904133 
L 348.987197 465.759142 
L 354.05646 465.682767 
L 359.125697 465.574364 
L 364.194971 464.19507 
L 369.26418 464.063566 
L 374.333445 463.721262 
L 379.402696 463.278153 
L 384.471968 461.607609 
L 389.541235 461.044436 
L 394.6105 460.378791 
L 399.679773 459.923725 
L 404.749018 459.30854 
L 409.818299 458.612863 
L 414.887559 457.94209 
L 419.956812 457.575278 
L 425.026073 457.028017 
L 430.095326 456.095699 
L 435.164582 455.23666 
L 440.23384 453.870524 
L 445.303103 451.908264 
L 450.372362 446.340599 
L 455.441618 442.296369 
L 460.510876 437.79018 
L 465.580132 434.637375 
L 470.649389 433.320103 
L 475.718649 433.079429 
L 480.787907 427.64 
L 485.857165 425.406358 
L 490.926423 424.489784 
L 495.995678 428.788847 
L 501.064936 419.64633 
L 506.134192 417.858979 
L 511.20345 416.808104 
L 516.272707 415.108315 
L 521.341964 413.550755 
L 526.411223 410.72413 
L 531.480481 409.422857 
L 536.549739 408.308538 
L 541.618998 410.107134 
L 546.688254 403.607283 
L 551.757511 402.409595 
L 556.826767 401.392201 
L 561.896024 399.451574 
L 566.965282 396.67827 
L 572.034539 395.119863 
L 577.103797 394.140053 
L 582.173056 392.874562 
L 587.242311 392.782515 
L 592.311567 388.058246 
L 597.380824 387.064784 
L 602.450082 386.068269 
L 607.519338 392.716158 
L 612.588595 381.61299 
L 617.657853 380.179504 
L 622.72711 379.258977 
L 627.796367 377.743433 
L 632.865625 376.818326 
" clip-path="url(#pb16221f3ca)" style="fill: none; stroke: #ff7f0e; stroke-linecap: square"/>
   </g>
   <g id="line2d_64"/>
   <g id="line2d_65"/>
   <g id="line2d_66"/>
   <g id="line2d_67"/>
   <g id="line2d_68"/>
   <g id="line2d_69"/>
   <g id="line2d_70"/>
   <g id="patch_5">
    <path d="M 46.965625 494.114688 
L 46.965625 50.594688 
" style="fill: none; stroke: #000000; stroke-width: 0.8; stroke-linejoin: miter; stroke-linecap: square"/>
   </g>
   <g id="patch_6">
    <path d="M 660.765625 494.114688 
L 660.765625 50.594688 
" style="fill: none; stroke: #000000; stroke-width: 0.8; stroke-linejoin: miter; stroke-linecap: square"/>
   </g>
   <g id="patch_7">
    <path d="M 46.965625 494.114688 
L 660.765625 494.114688 
" style="fill: none; stroke: #000000; stroke-width: 0.8; stroke-linejoin: miter; stroke-linecap: square"/>
   </g>
   <g id="patch_8">
    <path d="M 46.965625 50.594688 
L 660.765625 50.594688 
" style="fill: none; stroke: #000000; stroke-width: 0.8; stroke-linejoin: miter; stroke-linecap: square"/>
   </g>
   <g id="text_38">
    <!-- L1  -->
    <g style="fill: #ff0000" transform="translate(278.865447 492.035) scale(0.1 -0.1)">
     <defs>
      <path id="DejaVuSans-4c" d="M 628 4666 
L 1259 4666 
L 1259 531 
L 3531 531 
L 3531 0 
L 628 0 
L 628 4666 
z
" transform="scale(0.015625)"/>
     </defs>
     <use xlink:href="#DejaVuSans-4c"/>
     <use xlink:href="#DejaVuSans-31" x="55.712891"/>
     <use xlink:href="#DejaVuSans-20" x="119.335938"/>
    </g>
   </g>
   <g id="text_39">
    <!-- L2  -->
    <g style="fill: #ff0000" transform="translate(368.385401 492.035) scale(0.1 -0.1)">
     <use xlink:href="#DejaVuSans-4c"/>
     <use xlink:href="#DejaVuSans-32" x="55.712891"/>
     <use xlink:href="#DejaVuSans-20" x="119.335938"/>
    </g>
   </g>
   <g id="text_40">
    <!-- L3  -->
    <g style="fill: #ff0000" transform="translate(435.525367 492.035) scale(0.1 -0.1)">
     <use xlink:href="#DejaVuSans-4c"/>
     <use xlink:href="#DejaVuSans-33" x="55.712891"/>
     <use xlink:href="#DejaVuSans-20" x="119.335938"/>
    </g>
   </g>
   <g id="text_41">
    <!-- RAM -->
    <g style="fill: #ff0000" transform="translate(610.848438 492.035) scale(0.1 -0.1)">
     <defs>
      <path id="DejaVuSans-52" d="M 2841 2188 
Q 3044 2119 3236 1894 
Q 3428 1669 3622 1275 
L 4263 0 
L 3584 0 
L 2988 1197 
Q 2756 1666 2539 1819 
Q 2322 1972 1947 1972 
L 1259 1972 
L 1259 0 
L 628 0 
L 628 4666 
L 2053 4666 
Q 2853 4666 3247 4331 
Q 3641 3997 3641 3322 
Q 3641 2881 3436 2590 
Q 3231 2300 2841 2188 
z
M 1259 4147 
L 1259 2491 
L 2053 2491 
Q 2509 2491 2742 2702 
Q 2975 2913 2975 3322 
Q 2975 3731 2742 3939 
Q 2509 4147 2053 4147 
L 1259 4147 
z
" transform="scale(0.015625)"/>
      <path id="DejaVuSans-4d" d="M 628 4666 
L 1569 4666 
L 2759 1491 
L 3956 4666 
L 4897 4666 
L 4897 0 
L 4281 0 
L 4281 4097 
L 3078 897 
L 2444 897 
L 1241 4097 
L 1241 0 
L 628 0 
L 628 4666 
z
" transform="scale(0.015625)"/>
     </defs>
     <use xlink:href="#DejaVuSans-52"/>
     <use xlink:href="#DejaVuSans-41" x="65.482422"/>
     <use xlink:href="#DejaVuSans-4d" x="133.890625"/>
    </g>
   </g>
   <g id="text_42">
    <!-- Eytzinger layout with batching -->
    <g transform="translate(262.196875 16.318125) scale(0.12 -0.12)">
     <defs>
      <path id="DejaVuSans-45" d="M 628 4666 
L 3578 4666 
L 3578 4134 
L 1259 4134 
L 1259 2753 
L 3481 2753 
L 3481 2222 
L 1259 2222 
L 1259 531 
L 3634 531 
L 3634 0 
L 628 0 
L 628 4666 
z
" transform="scale(0.015625)"/>
      <path id="DejaVuSans-77" d="M 269 3500 
L 844 3500 
L 1563 769 
L 2278 3500 
L 2956 3500 
L 3675 769 
L 4391 3500 
L 4966 3500 
L 4050 0 
L 3372 0 
L 2619 2869 
L 1863 0 
L 1184 0 
L 269 3500 
z
" transform="scale(0.015625)"/>
      <path id="DejaVuSans-63" d="M 3122 3366 
L 3122 2828 
Q 2878 2963 2633 3030 
Q 2388 3097 2138 3097 
Q 1578 3097 1268 2742 
Q 959 2388 959 1747 
Q 959 1106 1268 751 
Q 1578 397 2138 397 
Q 2388 397 2633 464 
Q 2878 531 3122 666 
L 3122 134 
Q 2881 22 2623 -34 
Q 2366 -91 2075 -91 
Q 1284 -91 818 406 
Q 353 903 353 1747 
Q 353 2603 823 3093 
Q 1294 3584 2113 3584 
Q 2378 3584 2631 3529 
Q 2884 3475 3122 3366 
z
" transform="scale(0.015625)"/>
     </defs>
     <use xlink:href="#DejaVuSans-45"/>
     <use xlink:href="#DejaVuSans-79" x="63.183594"/>
     <use xlink:href="#DejaVuSans-74" x="122.363281"/>
     <use xlink:href="#DejaVuSans-7a" x="161.572266"/>
     <use xlink:href="#DejaVuSans-69" x="214.0625"/>
     <use xlink:href="#DejaVuSans-6e" x="241.845703"/>
     <use xlink:href="#DejaVuSans-67" x="305.224609"/>
     <use xlink:href="#DejaVuSans-65" x="368.701172"/>
     <use xlink:href="#DejaVuSans-72" x="430.224609"/>
     <use xlink:href="#DejaVuSans-20" x="471.337891"/>
     <use xlink:href="#DejaVuSans-6c" x="503.125"/>
     <use xlink:href="#DejaVuSans-61" x="530.908203"/>
     <use xlink:href="#DejaVuSans-79" x="592.1875"/>
     <use xlink:href="#DejaVuSans-6f" x="651.367188"/>
     <use xlink:href="#DejaVuSans-75" x="712.548828"/>
     <use xlink:href="#DejaVuSans-74" x="775.927734"/>
     <use xlink:href="#DejaVuSans-20" x="815.136719"/>
     <use xlink:href="#DejaVuSans-77" x="846.923828"/>
     <use xlink:href="#DejaVuSans-69" x="928.710938"/>
     <use xlink:href="#DejaVuSans-74" x="956.494141"/>
     <use xlink:href="#DejaVuSans-68" x="995.703125"/>
     <use xlink:href="#DejaVuSans-20" x="1059.082031"/>
     <use xlink:href="#DejaVuSans-62" x="1090.869141"/>
     <use xlink:href="#DejaVuSans-61" x="1154.345703"/>
     <use xlink:href="#DejaVuSans-74" x="1215.625"/>
     <use xlink:href="#DejaVuSans-63" x="1254.833984"/>
     <use xlink:href="#DejaVuSans-68" x="1309.814453"/>
     <use xlink:href="#DejaVuSans-69" x="1373.193359"/>
     <use xlink:href="#DejaVuSans-6e" x="1400.976562"/>
     <use xlink:href="#DejaVuSans-67" x="1464.355469"/>
    </g>
   </g>
   <g id="legend_1">
    <g id="patch_9">
     <path d="M 53.965625 148.332188 
L 367.328125 148.332188 
Q 369.328125 148.332188 369.328125 146.332188 
L 369.328125 57.594688 
Q 369.328125 55.594688 367.328125 55.594688 
L 53.965625 55.594688 
Q 51.965625 55.594688 51.965625 57.594688 
L 51.965625 146.332188 
Q 51.965625 148.332188 53.965625 148.332188 
L 53.965625 148.332188 
z
" style="fill: none; opacity: 0"/>
    </g>
    <g id="line2d_71">
     <path d="M 55.965625 63.693125 
L 65.965625 63.693125 
L 75.965625 63.693125 
" style="fill: none; stroke: #17becf; stroke-width: 1.5; stroke-linecap: square"/>
    </g>
    <g id="text_43">
     <!-- Eytzinger::search_branchless_prefetch&lt;4&gt; -->
     <g transform="translate(83.965625 67.193125) scale(0.1 -0.1)">
      <defs>
       <path id="DejaVuSans-3a" d="M 750 794 
L 1409 794 
L 1409 0 
L 750 0 
L 750 794 
z
M 750 3309 
L 1409 3309 
L 1409 2516 
L 750 2516 
L 750 3309 
z
" transform="scale(0.015625)"/>
       <path id="DejaVuSans-5f" d="M 3263 -1063 
L 3263 -1509 
L -63 -1509 
L -63 -1063 
L 3263 -1063 
z
" transform="scale(0.015625)"/>
       <path id="DejaVuSans-66" d="M 2375 4863 
L 2375 4384 
L 1825 4384 
Q 1516 4384 1395 4259 
Q 1275 4134 1275 3809 
L 1275 3500 
L 2222 3500 
L 2222 3053 
L 1275 3053 
L 1275 0 
L 697 0 
L 697 3053 
L 147 3053 
L 147 3500 
L 697 3500 
L 697 3744 
Q 697 4328 969 4595 
Q 1241 4863 1831 4863 
L 2375 4863 
z
" transform="scale(0.015625)"/>
       <path id="DejaVuSans-3c" d="M 4684 3150 
L 1459 2003 
L 4684 863 
L 4684 294 
L 678 1747 
L 678 2266 
L 4684 3719 
L 4684 3150 
z
" transform="scale(0.015625)"/>
       <path id="DejaVuSans-3e" d="M 678 3150 
L 678 3719 
L 4684 2266 
L 4684 1747 
L 678 294 
L 678 863 
L 3897 2003 
L 678 3150 
z
" transform="scale(0.015625)"/>
      </defs>
      <use xlink:href="#DejaVuSans-45"/>
      <use xlink:href="#DejaVuSans-79" x="63.183594"/>
      <use xlink:href="#DejaVuSans-74" x="122.363281"/>
      <use xlink:href="#DejaVuSans-7a" x="161.572266"/>
      <use xlink:href="#DejaVuSans-69" x="214.0625"/>
      <use xlink:href="#DejaVuSans-6e" x="241.845703"/>
      <use xlink:href="#DejaVuSans-67" x="305.224609"/>
      <use xlink:href="#DejaVuSans-65" x="368.701172"/>
      <use xlink:href="#DejaVuSans-72" x="430.224609"/>
      <use xlink:href="#DejaVuSans-3a" x="469.587891"/>
      <use xlink:href="#DejaVuSans-3a" x="503.279297"/>
      <use xlink:href="#DejaVuSans-73" x="536.970703"/>
      <use xlink:href="#DejaVuSans-65" x="589.070312"/>
      <use xlink:href="#DejaVuSans-61" x="650.59375"/>
      <use xlink:href="#DejaVuSans-72" x="711.873047"/>
      <use xlink:href="#DejaVuSans-63" x="750.736328"/>
      <use xlink:href="#DejaVuSans-68" x="805.716797"/>
      <use xlink:href="#DejaVuSans-5f" x="869.095703"/>
      <use xlink:href="#DejaVuSans-62" x="919.095703"/>
      <use xlink:href="#DejaVuSans-72" x="982.572266"/>
      <use xlink:href="#DejaVuSans-61" x="1023.685547"/>
      <use xlink:href="#DejaVuSans-6e" x="1084.964844"/>
      <use xlink:href="#DejaVuSans-63" x="1148.34375"/>
      <use xlink:href="#DejaVuSans-68" x="1203.324219"/>
      <use xlink:href="#DejaVuSans-6c" x="1266.703125"/>
      <use xlink:href="#DejaVuSans-65" x="1294.486328"/>
      <use xlink:href="#DejaVuSans-73" x="1356.009766"/>
      <use xlink:href="#DejaVuSans-73" x="1408.109375"/>
      <use xlink:href="#DejaVuSans-5f" x="1460.208984"/>
      <use xlink:href="#DejaVuSans-70" x="1510.208984"/>
      <use xlink:href="#DejaVuSans-72" x="1573.685547"/>
      <use xlink:href="#DejaVuSans-65" x="1612.548828"/>
      <use xlink:href="#DejaVuSans-66" x="1674.072266"/>
      <use xlink:href="#DejaVuSans-65" x="1709.277344"/>
      <use xlink:href="#DejaVuSans-74" x="1770.800781"/>
      <use xlink:href="#DejaVuSans-63" x="1810.009766"/>
      <use xlink:href="#DejaVuSans-68" x="1864.990234"/>
      <use xlink:href="#DejaVuSans-3c" x="1928.369141"/>
      <use xlink:href="#DejaVuSans-34" x="2012.158203"/>
      <use xlink:href="#DejaVuSans-3e" x="2075.78125"/>
     </g>
    </g>
    <g id="line2d_72">
     <path d="M 55.965625 78.649375 
L 65.965625 78.649375 
L 75.965625 78.649375 
" style="fill: none; stroke: #1f77b4; stroke-width: 1.5; stroke-linecap: square"/>
    </g>
    <g id="text_44">
     <!-- Batched&lt;8, Eytzinger, Eytzinger::batch_impl&lt;8&gt;&gt; -->
     <g transform="translate(83.965625 82.149375) scale(0.1 -0.1)">
      <defs>
       <path id="DejaVuSans-42" d="M 1259 2228 
L 1259 519 
L 2272 519 
Q 2781 519 3026 730 
Q 3272 941 3272 1375 
Q 3272 1813 3026 2020 
Q 2781 2228 2272 2228 
L 1259 2228 
z
M 1259 4147 
L 1259 2741 
L 2194 2741 
Q 2656 2741 2882 2914 
Q 3109 3088 3109 3444 
Q 3109 3797 2882 3972 
Q 2656 4147 2194 4147 
L 1259 4147 
z
M 628 4666 
L 2241 4666 
Q 2963 4666 3353 4366 
Q 3744 4066 3744 3513 
Q 3744 3084 3544 2831 
Q 3344 2578 2956 2516 
Q 3422 2416 3680 2098 
Q 3938 1781 3938 1306 
Q 3938 681 3513 340 
Q 3088 0 2303 0 
L 628 0 
L 628 4666 
z
" transform="scale(0.015625)"/>
       <path id="DejaVuSans-64" d="M 2906 2969 
L 2906 4863 
L 3481 4863 
L 3481 0 
L 2906 0 
L 2906 525 
Q 2725 213 2448 61 
Q 2172 -91 1784 -91 
Q 1150 -91 751 415 
Q 353 922 353 1747 
Q 353 2572 751 3078 
Q 1150 3584 1784 3584 
Q 2172 3584 2448 3432 
Q 2725 3281 2906 2969 
z
M 947 1747 
Q 947 1113 1208 752 
Q 1469 391 1925 391 
Q 2381 391 2643 752 
Q 2906 1113 2906 1747 
Q 2906 2381 2643 2742 
Q 2381 3103 1925 3103 
Q 1469 3103 1208 2742 
Q 947 2381 947 1747 
z
" transform="scale(0.015625)"/>
       <path id="DejaVuSans-2c" d="M 750 794 
L 1409 794 
L 1409 256 
L 897 -744 
L 494 -744 
L 750 256 
L 750 794 
z
" transform="scale(0.015625)"/>
       <path id="DejaVuSans-6d" d="M 3328 2828 
Q 3544 3216 3844 3400 
Q 4144 3584 4550 3584 
Q 5097 3584 5394 3201 
Q 5691 2819 5691 2113 
L 5691 0 
L 5113 0 
L 5113 2094 
Q 5113 2597 4934 2840 
Q 4756 3084 4391 3084 
Q 3944 3084 3684 2787 
Q 3425 2491 3425 1978 
L 3425 0 
L 2847 0 
L 2847 2094 
Q 2847 2600 2669 2842 
Q 2491 3084 2119 3084 
Q 1678 3084 1418 2786 
Q 1159 2488 1159 1978 
L 1159 0 
L 581 0 
L 581 3500 
L 1159 3500 
L 1159 2956 
Q 1356 3278 1631 3431 
Q 1906 3584 2284 3584 
Q 2666 3584 2933 3390 
Q 3200 3197 3328 2828 
z
" transform="scale(0.015625)"/>
      </defs>
      <use xlink:href="#DejaVuSans-42"/>
      <use xlink:href="#DejaVuSans-61" x="68.603516"/>
      <use xlink:href="#DejaVuSans-74" x="129.882812"/>
      <use xlink:href="#DejaVuSans-63" x="169.091797"/>
      <use xlink:href="#DejaVuSans-68" x="224.072266"/>
      <use xlink:href="#DejaVuSans-65" x="287.451172"/>
      <use xlink:href="#DejaVuSans-64" x="348.974609"/>
      <use xlink:href="#DejaVuSans-3c" x="412.451172"/>
      <use xlink:href="#DejaVuSans-38" x="496.240234"/>
      <use xlink:href="#DejaVuSans-2c" x="559.863281"/>
      <use xlink:href="#DejaVuSans-20" x="591.650391"/>
      <use xlink:href="#DejaVuSans-45" x="623.4375"/>
      <use xlink:href="#DejaVuSans-79" x="686.621094"/>
      <use xlink:href="#DejaVuSans-74" x="745.800781"/>
      <use xlink:href="#DejaVuSans-7a" x="785.009766"/>
      <use xlink:href="#DejaVuSans-69" x="837.5"/>
      <use xlink:href="#DejaVuSans-6e" x="865.283203"/>
      <use xlink:href="#DejaVuSans-67" x="928.662109"/>
      <use xlink:href="#DejaVuSans-65" x="992.138672"/>
      <use xlink:href="#DejaVuSans-72" x="1053.662109"/>
      <use xlink:href="#DejaVuSans-2c" x="1094.775391"/>
      <use xlink:href="#DejaVuSans-20" x="1126.5625"/>
      <use xlink:href="#DejaVuSans-45" x="1158.349609"/>
      <use xlink:href="#DejaVuSans-79" x="1221.533203"/>
      <use xlink:href="#DejaVuSans-74" x="1280.712891"/>
      <use xlink:href="#DejaVuSans-7a" x="1319.921875"/>
      <use xlink:href="#DejaVuSans-69" x="1372.412109"/>
      <use xlink:href="#DejaVuSans-6e" x="1400.195312"/>
      <use xlink:href="#DejaVuSans-67" x="1463.574219"/>
      <use xlink:href="#DejaVuSans-65" x="1527.050781"/>
      <use xlink:href="#DejaVuSans-72" x="1588.574219"/>
      <use xlink:href="#DejaVuSans-3a" x="1627.9375"/>
      <use xlink:href="#DejaVuSans-3a" x="1661.628906"/>
      <use xlink:href="#DejaVuSans-62" x="1695.320312"/>
      <use xlink:href="#DejaVuSans-61" x="1758.796875"/>
      <use xlink:href="#DejaVuSans-74" x="1820.076172"/>
      <use xlink:href="#DejaVuSans-63" x="1859.285156"/>
      <use xlink:href="#DejaVuSans-68" x="1914.265625"/>
      <use xlink:href="#DejaVuSans-5f" x="1977.644531"/>
      <use xlink:href="#DejaVuSans-69" x="2027.644531"/>
      <use xlink:href="#DejaVuSans-6d" x="2055.427734"/>
      <use xlink:href="#DejaVuSans-70" x="2152.839844"/>
      <use xlink:href="#DejaVuSans-6c" x="2216.316406"/>
      <use xlink:href="#DejaVuSans-3c" x="2244.099609"/>
      <use xlink:href="#DejaVuSans-38" x="2327.888672"/>
      <use xlink:href="#DejaVuSans-3e" x="2391.511719"/>
      <use xlink:href="#DejaVuSans-3e" x="2475.300781"/>
     </g>
    </g>
    <g id="line2d_73">
     <path d="M 55.965625 93.605625 
L 65.965625 93.605625 
L 75.965625 93.605625 
" style="fill: none; stroke: #8c564b; stroke-width: 1.5; stroke-linecap: square"/>
    </g>
    <g id="text_45">
     <!-- Batched&lt;16, Eytzinger, Eytzinger::batch_impl&lt;16&gt;&gt; -->
     <g transform="translate(83.965625 97.105625) scale(0.1 -0.1)">
      <use xlink:href="#DejaVuSans-42"/>
      <use xlink:href="#DejaVuSans-61" x="68.603516"/>
      <use xlink:href="#DejaVuSans-74" x="129.882812"/>
      <use xlink:href="#DejaVuSans-63" x="169.091797"/>
      <use xlink:href="#DejaVuSans-68" x="224.072266"/>
      <use xlink:href="#DejaVuSans-65" x="287.451172"/>
      <use xlink:href="#DejaVuSans-64" x="348.974609"/>
      <use xlink:href="#DejaVuSans-3c" x="412.451172"/>
      <use xlink:href="#DejaVuSans-31" x="496.240234"/>
      <use xlink:href="#DejaVuSans-36" x="559.863281"/>
      <use xlink:href="#DejaVuSans-2c" x="623.486328"/>
      <use xlink:href="#DejaVuSans-20" x="655.273438"/>
      <use xlink:href="#DejaVuSans-45" x="687.060547"/>
      <use xlink:href="#DejaVuSans-79" x="750.244141"/>
      <use xlink:href="#DejaVuSans-74" x="809.423828"/>
      <use xlink:href="#DejaVuSans-7a" x="848.632812"/>
      <use xlink:href="#DejaVuSans-69" x="901.123047"/>
      <use xlink:href="#DejaVuSans-6e" x="928.90625"/>
      <use xlink:href="#DejaVuSans-67" x="992.285156"/>
      <use xlink:href="#DejaVuSans-65" x="1055.761719"/>
      <use xlink:href="#DejaVuSans-72" x="1117.285156"/>
      <use xlink:href="#DejaVuSans-2c" x="1158.398438"/>
      <use xlink:href="#DejaVuSans-20" x="1190.185547"/>
      <use xlink:href="#DejaVuSans-45" x="1221.972656"/>
      <use xlink:href="#DejaVuSans-79" x="1285.15625"/>
      <use xlink:href="#DejaVuSans-74" x="1344.335938"/>
      <use xlink:href="#DejaVuSans-7a" x="1383.544922"/>
      <use xlink:href="#DejaVuSans-69" x="1436.035156"/>
      <use xlink:href="#DejaVuSans-6e" x="1463.818359"/>
      <use xlink:href="#DejaVuSans-67" x="1527.197266"/>
      <use xlink:href="#DejaVuSans-65" x="1590.673828"/>
      <use xlink:href="#DejaVuSans-72" x="1652.197266"/>
      <use xlink:href="#DejaVuSans-3a" x="1691.560547"/>
      <use xlink:href="#DejaVuSans-3a" x="1725.251953"/>
      <use xlink:href="#DejaVuSans-62" x="1758.943359"/>
      <use xlink:href="#DejaVuSans-61" x="1822.419922"/>
      <use xlink:href="#DejaVuSans-74" x="1883.699219"/>
      <use xlink:href="#DejaVuSans-63" x="1922.908203"/>
      <use xlink:href="#DejaVuSans-68" x="1977.888672"/>
      <use xlink:href="#DejaVuSans-5f" x="2041.267578"/>
      <use xlink:href="#DejaVuSans-69" x="2091.267578"/>
      <use xlink:href="#DejaVuSans-6d" x="2119.050781"/>
      <use xlink:href="#DejaVuSans-70" x="2216.462891"/>
      <use xlink:href="#DejaVuSans-6c" x="2279.939453"/>
      <use xlink:href="#DejaVuSans-3c" x="2307.722656"/>
      <use xlink:href="#DejaVuSans-31" x="2391.511719"/>
      <use xlink:href="#DejaVuSans-36" x="2455.134766"/>
      <use xlink:href="#DejaVuSans-3e" x="2518.757812"/>
      <use xlink:href="#DejaVuSans-3e" x="2602.546875"/>
     </g>
    </g>
    <g id="line2d_74">
     <path d="M 55.965625 108.561875 
L 65.965625 108.561875 
L 75.965625 108.561875 
" style="fill: none; stroke: #8c564b; stroke-width: 1.5; stroke-linecap: square"/>
    </g>
    <g id="text_46">
     <!-- Batched&lt;32, Eytzinger, Eytzinger::batch_impl&lt;32&gt;&gt; -->
     <g transform="translate(83.965625 112.061875) scale(0.1 -0.1)">
      <use xlink:href="#DejaVuSans-42"/>
      <use xlink:href="#DejaVuSans-61" x="68.603516"/>
      <use xlink:href="#DejaVuSans-74" x="129.882812"/>
      <use xlink:href="#DejaVuSans-63" x="169.091797"/>
      <use xlink:href="#DejaVuSans-68" x="224.072266"/>
      <use xlink:href="#DejaVuSans-65" x="287.451172"/>
      <use xlink:href="#DejaVuSans-64" x="348.974609"/>
      <use xlink:href="#DejaVuSans-3c" x="412.451172"/>
      <use xlink:href="#DejaVuSans-33" x="496.240234"/>
      <use xlink:href="#DejaVuSans-32" x="559.863281"/>
      <use xlink:href="#DejaVuSans-2c" x="623.486328"/>
      <use xlink:href="#DejaVuSans-20" x="655.273438"/>
      <use xlink:href="#DejaVuSans-45" x="687.060547"/>
      <use xlink:href="#DejaVuSans-79" x="750.244141"/>
      <use xlink:href="#DejaVuSans-74" x="809.423828"/>
      <use xlink:href="#DejaVuSans-7a" x="848.632812"/>
      <use xlink:href="#DejaVuSans-69" x="901.123047"/>
      <use xlink:href="#DejaVuSans-6e" x="928.90625"/>
      <use xlink:href="#DejaVuSans-67" x="992.285156"/>
      <use xlink:href="#DejaVuSans-65" x="1055.761719"/>
      <use xlink:href="#DejaVuSans-72" x="1117.285156"/>
      <use xlink:href="#DejaVuSans-2c" x="1158.398438"/>
      <use xlink:href="#DejaVuSans-20" x="1190.185547"/>
      <use xlink:href="#DejaVuSans-45" x="1221.972656"/>
      <use xlink:href="#DejaVuSans-79" x="1285.15625"/>
      <use xlink:href="#DejaVuSans-74" x="1344.335938"/>
      <use xlink:href="#DejaVuSans-7a" x="1383.544922"/>
      <use xlink:href="#DejaVuSans-69" x="1436.035156"/>
      <use xlink:href="#DejaVuSans-6e" x="1463.818359"/>
      <use xlink:href="#DejaVuSans-67" x="1527.197266"/>
      <use xlink:href="#DejaVuSans-65" x="1590.673828"/>
      <use xlink:href="#DejaVuSans-72" x="1652.197266"/>
      <use xlink:href="#DejaVuSans-3a" x="1691.560547"/>
      <use xlink:href="#DejaVuSans-3a" x="1725.251953"/>
      <use xlink:href="#DejaVuSans-62" x="1758.943359"/>
      <use xlink:href="#DejaVuSans-61" x="1822.419922"/>
      <use xlink:href="#DejaVuSans-74" x="1883.699219"/>
      <use xlink:href="#DejaVuSans-63" x="1922.908203"/>
      <use xlink:href="#DejaVuSans-68" x="1977.888672"/>
      <use xlink:href="#DejaVuSans-5f" x="2041.267578"/>
      <use xlink:href="#DejaVuSans-69" x="2091.267578"/>
      <use xlink:href="#DejaVuSans-6d" x="2119.050781"/>
      <use xlink:href="#DejaVuSans-70" x="2216.462891"/>
      <use xlink:href="#DejaVuSans-6c" x="2279.939453"/>
      <use xlink:href="#DejaVuSans-3c" x="2307.722656"/>
      <use xlink:href="#DejaVuSans-33" x="2391.511719"/>
      <use xlink:href="#DejaVuSans-32" x="2455.134766"/>
      <use xlink:href="#DejaVuSans-3e" x="2518.757812"/>
      <use xlink:href="#DejaVuSans-3e" x="2602.546875"/>
     </g>
    </g>
    <g id="line2d_75">
     <path d="M 55.965625 123.518125 
L 65.965625 123.518125 
L 75.965625 123.518125 
" style="fill: none; stroke: #e377c2; stroke-width: 1.5; stroke-linecap: square"/>
    </g>
    <g id="text_47">
     <!-- Batched&lt;64, Eytzinger, Eytzinger::batch_impl&lt;64&gt;&gt; -->
     <g transform="translate(83.965625 127.018125) scale(0.1 -0.1)">
      <use xlink:href="#DejaVuSans-42"/>
      <use xlink:href="#DejaVuSans-61" x="68.603516"/>
      <use xlink:href="#DejaVuSans-74" x="129.882812"/>
      <use xlink:href="#DejaVuSans-63" x="169.091797"/>
      <use xlink:href="#DejaVuSans-68" x="224.072266"/>
      <use xlink:href="#DejaVuSans-65" x="287.451172"/>
      <use xlink:href="#DejaVuSans-64" x="348.974609"/>
      <use xlink:href="#DejaVuSans-3c" x="412.451172"/>
      <use xlink:href="#DejaVuSans-36" x="496.240234"/>
      <use xlink:href="#DejaVuSans-34" x="559.863281"/>
      <use xlink:href="#DejaVuSans-2c" x="623.486328"/>
      <use xlink:href="#DejaVuSans-20" x="655.273438"/>
      <use xlink:href="#DejaVuSans-45" x="687.060547"/>
      <use xlink:href="#DejaVuSans-79" x="750.244141"/>
      <use xlink:href="#DejaVuSans-74" x="809.423828"/>
      <use xlink:href="#DejaVuSans-7a" x="848.632812"/>
      <use xlink:href="#DejaVuSans-69" x="901.123047"/>
      <use xlink:href="#DejaVuSans-6e" x="928.90625"/>
      <use xlink:href="#DejaVuSans-67" x="992.285156"/>
      <use xlink:href="#DejaVuSans-65" x="1055.761719"/>
      <use xlink:href="#DejaVuSans-72" x="1117.285156"/>
      <use xlink:href="#DejaVuSans-2c" x="1158.398438"/>
      <use xlink:href="#DejaVuSans-20" x="1190.185547"/>
      <use xlink:href="#DejaVuSans-45" x="1221.972656"/>
      <use xlink:href="#DejaVuSans-79" x="1285.15625"/>
      <use xlink:href="#DejaVuSans-74" x="1344.335938"/>
      <use xlink:href="#DejaVuSans-7a" x="1383.544922"/>
      <use xlink:href="#DejaVuSans-69" x="1436.035156"/>
      <use xlink:href="#DejaVuSans-6e" x="1463.818359"/>
      <use xlink:href="#DejaVuSans-67" x="1527.197266"/>
      <use xlink:href="#DejaVuSans-65" x="1590.673828"/>
      <use xlink:href="#DejaVuSans-72" x="1652.197266"/>
      <use xlink:href="#DejaVuSans-3a" x="1691.560547"/>
      <use xlink:href="#DejaVuSans-3a" x="1725.251953"/>
      <use xlink:href="#DejaVuSans-62" x="1758.943359"/>
      <use xlink:href="#DejaVuSans-61" x="1822.419922"/>
      <use xlink:href="#DejaVuSans-74" x="1883.699219"/>
      <use xlink:href="#DejaVuSans-63" x="1922.908203"/>
      <use xlink:href="#DejaVuSans-68" x="1977.888672"/>
      <use xlink:href="#DejaVuSans-5f" x="2041.267578"/>
      <use xlink:href="#DejaVuSans-69" x="2091.267578"/>
      <use xlink:href="#DejaVuSans-6d" x="2119.050781"/>
      <use xlink:href="#DejaVuSans-70" x="2216.462891"/>
      <use xlink:href="#DejaVuSans-6c" x="2279.939453"/>
      <use xlink:href="#DejaVuSans-3c" x="2307.722656"/>
      <use xlink:href="#DejaVuSans-36" x="2391.511719"/>
      <use xlink:href="#DejaVuSans-34" x="2455.134766"/>
      <use xlink:href="#DejaVuSans-3e" x="2518.757812"/>
      <use xlink:href="#DejaVuSans-3e" x="2602.546875"/>
     </g>
    </g>
    <g id="line2d_76">
     <path d="M 55.965625 138.474375 
L 65.965625 138.474375 
L 75.965625 138.474375 
" style="fill: none; stroke: #ff7f0e; stroke-width: 1.5; stroke-linecap: square"/>
    </g>
    <g id="text_48">
     <!-- Batched&lt;128, Eytzinger, Eytzinger::batch_impl&lt;128&gt;&gt; -->
     <g transform="translate(83.965625 141.974375) scale(0.1 -0.1)">
      <use xlink:href="#DejaVuSans-42"/>
      <use xlink:href="#DejaVuSans-61" x="68.603516"/>
      <use xlink:href="#DejaVuSans-74" x="129.882812"/>
      <use xlink:href="#DejaVuSans-63" x="169.091797"/>
      <use xlink:href="#DejaVuSans-68" x="224.072266"/>
      <use xlink:href="#DejaVuSans-65" x="287.451172"/>
      <use xlink:href="#DejaVuSans-64" x="348.974609"/>
      <use xlink:href="#DejaVuSans-3c" x="412.451172"/>
      <use xlink:href="#DejaVuSans-31" x="496.240234"/>
      <use xlink:href="#DejaVuSans-32" x="559.863281"/>
      <use xlink:href="#DejaVuSans-38" x="623.486328"/>
      <use xlink:href="#DejaVuSans-2c" x="687.109375"/>
      <use xlink:href="#DejaVuSans-20" x="718.896484"/>
      <use xlink:href="#DejaVuSans-45" x="750.683594"/>
      <use xlink:href="#DejaVuSans-79" x="813.867188"/>
      <use xlink:href="#DejaVuSans-74" x="873.046875"/>
      <use xlink:href="#DejaVuSans-7a" x="912.255859"/>
      <use xlink:href="#DejaVuSans-69" x="964.746094"/>
      <use xlink:href="#DejaVuSans-6e" x="992.529297"/>
      <use xlink:href="#DejaVuSans-67" x="1055.908203"/>
      <use xlink:href="#DejaVuSans-65" x="1119.384766"/>
      <use xlink:href="#DejaVuSans-72" x="1180.908203"/>
      <use xlink:href="#DejaVuSans-2c" x="1222.021484"/>
      <use xlink:href="#DejaVuSans-20" x="1253.808594"/>
      <use xlink:href="#DejaVuSans-45" x="1285.595703"/>
      <use xlink:href="#DejaVuSans-79" x="1348.779297"/>
      <use xlink:href="#DejaVuSans-74" x="1407.958984"/>
      <use xlink:href="#DejaVuSans-7a" x="1447.167969"/>
      <use xlink:href="#DejaVuSans-69" x="1499.658203"/>
      <use xlink:href="#DejaVuSans-6e" x="1527.441406"/>
      <use xlink:href="#DejaVuSans-67" x="1590.820312"/>
      <use xlink:href="#DejaVuSans-65" x="1654.296875"/>
      <use xlink:href="#DejaVuSans-72" x="1715.820312"/>
      <use xlink:href="#DejaVuSans-3a" x="1755.183594"/>
      <use xlink:href="#DejaVuSans-3a" x="1788.875"/>
      <use xlink:href="#DejaVuSans-62" x="1822.566406"/>
      <use xlink:href="#DejaVuSans-61" x="1886.042969"/>
      <use xlink:href="#DejaVuSans-74" x="1947.322266"/>
      <use xlink:href="#DejaVuSans-63" x="1986.53125"/>
      <use xlink:href="#DejaVuSans-68" x="2041.511719"/>
      <use xlink:href="#DejaVuSans-5f" x="2104.890625"/>
      <use xlink:href="#DejaVuSans-69" x="2154.890625"/>
      <use xlink:href="#DejaVuSans-6d" x="2182.673828"/>
      <use xlink:href="#DejaVuSans-70" x="2280.085938"/>
      <use xlink:href="#DejaVuSans-6c" x="2343.5625"/>
      <use xlink:href="#DejaVuSans-3c" x="2371.345703"/>
      <use xlink:href="#DejaVuSans-31" x="2455.134766"/>
      <use xlink:href="#DejaVuSans-32" x="2518.757812"/>
      <use xlink:href="#DejaVuSans-38" x="2582.380859"/>
      <use xlink:href="#DejaVuSans-3e" x="2646.003906"/>
      <use xlink:href="#DejaVuSans-3e" x="2729.792969"/>
     </g>
    </g>
   </g>
  </g>
 </g>
 <defs>
  <clipPath id="pb16221f3ca">
   <rect x="46.965625" y="50.594688" width="613.8" height="443.52"/>
  </clipPath>
 </defs>
</svg>
