<?xml version="1.0" encoding="utf-8" standalone="no"?>
<!DOCTYPE svg PUBLIC "-//W3C//DTD SVG 1.1//EN"
  "http://www.w3.org/Graphics/SVG/1.1/DTD/svg11.dtd">
<svg xmlns:xlink="http://www.w3.org/1999/xlink" width="667.965625pt" height="531.670938pt" viewBox="0 0 667.965625 531.670938" xmlns="http://www.w3.org/2000/svg" version="1.1">
 <metadata>
  <rdf:RDF xmlns:dc="http://purl.org/dc/elements/1.1/" xmlns:cc="http://creativecommons.org/ns#" xmlns:rdf="http://www.w3.org/1999/02/22-rdf-syntax-ns#">
   <cc:Work>
    <dc:type rdf:resource="http://purl.org/dc/dcmitype/StillImage"/>
    <dc:date>2025-02-16T17:52:39.496086</dc:date>
    <dc:format>image/svg+xml</dc:format>
    <dc:creator>
     <cc:Agent>
      <dc:title>Matplotlib v3.9.2, https://matplotlib.org/</dc:title>
     </cc:Agent>
    </dc:creator>
   </cc:Work>
  </rdf:RDF>
 </metadata>
 <defs>
  <style type="text/css">*{stroke-linejoin: round; stroke-linecap: butt}</style>
 </defs>
 <g id="figure_1">
  <g id="patch_1">
   <path d="M -0 531.670938 
L 667.965625 531.670938 
L 667.965625 0 
L -0 0 
z
" style="fill: #ffffff"/>
  </g>
  <g id="axes_1">
   <g id="patch_2">
    <path d="M 46.965625 494.114688 
L 660.765625 494.114688 
L 660.765625 50.594688 
L 46.965625 50.594688 
z
" style="fill: #ffffff"/>
   </g>
   <g id="line2d_1">
    <path d="M 293.977947 494.114688 
L 293.977947 50.594688 
" clip-path="url(#p39d0e6f651)" style="fill: none; stroke-dasharray: 5.55,2.4; stroke-dashoffset: 0; stroke: #ff0000; stroke-width: 1.5"/>
   </g>
   <g id="line2d_2">
    <path d="M 383.497901 494.114688 
L 383.497901 50.594688 
" clip-path="url(#p39d0e6f651)" style="fill: none; stroke-dasharray: 5.55,2.4; stroke-dashoffset: 0; stroke: #ff0000; stroke-width: 1.5"/>
   </g>
   <g id="line2d_3">
    <path d="M 450.637867 494.114688 
L 450.637867 50.594688 
" clip-path="url(#p39d0e6f651)" style="fill: none; stroke-dasharray: 5.55,2.4; stroke-dashoffset: 0; stroke: #ff0000; stroke-width: 1.5"/>
   </g>
   <g id="axes_2">
    <g id="patch_3">
     <path d="M 46.965625 50.594688 
L 660.765625 50.594688 
L 660.765625 50.594687 
L 46.965625 50.594687 
z
" style="fill: #ffffff"/>
    </g>
    <g id="matplotlib.axis_1">
     <g id="xtick_1">
      <g id="line2d_4">
       <defs>
        <path id="m9603eaae7b" d="M 0 0 
L 0 -3.5 
" style="stroke: #000000; stroke-width: 0.8"/>
       </defs>
       <g>
        <use xlink:href="#m9603eaae7b" x="47.798072" y="50.594687" style="stroke: #000000; stroke-width: 0.8"/>
       </g>
      </g>
      <g id="text_1">
       <!-- $\mathdefault{2^{2}}$ -->
       <g transform="translate(42.198072 41.515) scale(0.1 -0.1)">
        <defs>
         <path id="DejaVuSans-32" d="M 1228 531 
L 3431 531 
L 3431 0 
L 469 0 
L 469 531 
Q 828 903 1448 1529 
Q 2069 2156 2228 2338 
Q 2531 2678 2651 2914 
Q 2772 3150 2772 3378 
Q 2772 3750 2511 3984 
Q 2250 4219 1831 4219 
Q 1534 4219 1204 4116 
Q 875 4013 500 3803 
L 500 4441 
Q 881 4594 1212 4672 
Q 1544 4750 1819 4750 
Q 2544 4750 2975 4387 
Q 3406 4025 3406 3419 
Q 3406 3131 3298 2873 
Q 3191 2616 2906 2266 
Q 2828 2175 2409 1742 
Q 1991 1309 1228 531 
z
" transform="scale(0.015625)"/>
        </defs>
        <use xlink:href="#DejaVuSans-32" transform="translate(0 0.765625)"/>
        <use xlink:href="#DejaVuSans-32" transform="translate(64.580078 39.046875) scale(0.7)"/>
       </g>
      </g>
     </g>
     <g id="xtick_2">
      <g id="line2d_5">
       <g>
        <use xlink:href="#m9603eaae7b" x="92.55805" y="50.594687" style="stroke: #000000; stroke-width: 0.8"/>
       </g>
      </g>
      <g id="text_2">
       <!-- $\mathdefault{2^{4}}$ -->
       <g transform="translate(86.95805 41.515) scale(0.1 -0.1)">
        <defs>
         <path id="DejaVuSans-34" d="M 2419 4116 
L 825 1625 
L 2419 1625 
L 2419 4116 
z
M 2253 4666 
L 3047 4666 
L 3047 1625 
L 3713 1625 
L 3713 1100 
L 3047 1100 
L 3047 0 
L 2419 0 
L 2419 1100 
L 313 1100 
L 313 1709 
L 2253 4666 
z
" transform="scale(0.015625)"/>
        </defs>
        <use xlink:href="#DejaVuSans-32" transform="translate(0 0.684375)"/>
        <use xlink:href="#DejaVuSans-34" transform="translate(64.580078 38.965625) scale(0.7)"/>
       </g>
      </g>
     </g>
     <g id="xtick_3">
      <g id="line2d_6">
       <g>
        <use xlink:href="#m9603eaae7b" x="137.318027" y="50.594687" style="stroke: #000000; stroke-width: 0.8"/>
       </g>
      </g>
      <g id="text_3">
       <!-- $\mathdefault{2^{6}}$ -->
       <g transform="translate(131.718027 41.515) scale(0.1 -0.1)">
        <defs>
         <path id="DejaVuSans-36" d="M 2113 2584 
Q 1688 2584 1439 2293 
Q 1191 2003 1191 1497 
Q 1191 994 1439 701 
Q 1688 409 2113 409 
Q 2538 409 2786 701 
Q 3034 994 3034 1497 
Q 3034 2003 2786 2293 
Q 2538 2584 2113 2584 
z
M 3366 4563 
L 3366 3988 
Q 3128 4100 2886 4159 
Q 2644 4219 2406 4219 
Q 1781 4219 1451 3797 
Q 1122 3375 1075 2522 
Q 1259 2794 1537 2939 
Q 1816 3084 2150 3084 
Q 2853 3084 3261 2657 
Q 3669 2231 3669 1497 
Q 3669 778 3244 343 
Q 2819 -91 2113 -91 
Q 1303 -91 875 529 
Q 447 1150 447 2328 
Q 447 3434 972 4092 
Q 1497 4750 2381 4750 
Q 2619 4750 2861 4703 
Q 3103 4656 3366 4563 
z
" transform="scale(0.015625)"/>
        </defs>
        <use xlink:href="#DejaVuSans-32" transform="translate(0 0.765625)"/>
        <use xlink:href="#DejaVuSans-36" transform="translate(64.580078 39.046875) scale(0.7)"/>
       </g>
      </g>
     </g>
     <g id="xtick_4">
      <g id="line2d_7">
       <g>
        <use xlink:href="#m9603eaae7b" x="182.078004" y="50.594687" style="stroke: #000000; stroke-width: 0.8"/>
       </g>
      </g>
      <g id="text_4">
       <!-- $\mathdefault{2^{8}}$ -->
       <g transform="translate(176.478004 41.515) scale(0.1 -0.1)">
        <defs>
         <path id="DejaVuSans-38" d="M 2034 2216 
Q 1584 2216 1326 1975 
Q 1069 1734 1069 1313 
Q 1069 891 1326 650 
Q 1584 409 2034 409 
Q 2484 409 2743 651 
Q 3003 894 3003 1313 
Q 3003 1734 2745 1975 
Q 2488 2216 2034 2216 
z
M 1403 2484 
Q 997 2584 770 2862 
Q 544 3141 544 3541 
Q 544 4100 942 4425 
Q 1341 4750 2034 4750 
Q 2731 4750 3128 4425 
Q 3525 4100 3525 3541 
Q 3525 3141 3298 2862 
Q 3072 2584 2669 2484 
Q 3125 2378 3379 2068 
Q 3634 1759 3634 1313 
Q 3634 634 3220 271 
Q 2806 -91 2034 -91 
Q 1263 -91 848 271 
Q 434 634 434 1313 
Q 434 1759 690 2068 
Q 947 2378 1403 2484 
z
M 1172 3481 
Q 1172 3119 1398 2916 
Q 1625 2713 2034 2713 
Q 2441 2713 2670 2916 
Q 2900 3119 2900 3481 
Q 2900 3844 2670 4047 
Q 2441 4250 2034 4250 
Q 1625 4250 1398 4047 
Q 1172 3844 1172 3481 
z
" transform="scale(0.015625)"/>
        </defs>
        <use xlink:href="#DejaVuSans-32" transform="translate(0 0.765625)"/>
        <use xlink:href="#DejaVuSans-38" transform="translate(64.580078 39.046875) scale(0.7)"/>
       </g>
      </g>
     </g>
     <g id="xtick_5">
      <g id="line2d_8">
       <g>
        <use xlink:href="#m9603eaae7b" x="226.837981" y="50.594687" style="stroke: #000000; stroke-width: 0.8"/>
       </g>
      </g>
      <g id="text_5">
       <!-- $\mathdefault{2^{10}}$ -->
       <g transform="translate(218.987981 41.515) scale(0.1 -0.1)">
        <defs>
         <path id="DejaVuSans-31" d="M 794 531 
L 1825 531 
L 1825 4091 
L 703 3866 
L 703 4441 
L 1819 4666 
L 2450 4666 
L 2450 531 
L 3481 531 
L 3481 0 
L 794 0 
L 794 531 
z
" transform="scale(0.015625)"/>
         <path id="DejaVuSans-30" d="M 2034 4250 
Q 1547 4250 1301 3770 
Q 1056 3291 1056 2328 
Q 1056 1369 1301 889 
Q 1547 409 2034 409 
Q 2525 409 2770 889 
Q 3016 1369 3016 2328 
Q 3016 3291 2770 3770 
Q 2525 4250 2034 4250 
z
M 2034 4750 
Q 2819 4750 3233 4129 
Q 3647 3509 3647 2328 
Q 3647 1150 3233 529 
Q 2819 -91 2034 -91 
Q 1250 -91 836 529 
Q 422 1150 422 2328 
Q 422 3509 836 4129 
Q 1250 4750 2034 4750 
z
" transform="scale(0.015625)"/>
        </defs>
        <use xlink:href="#DejaVuSans-32" transform="translate(0 0.765625)"/>
        <use xlink:href="#DejaVuSans-31" transform="translate(64.580078 39.046875) scale(0.7)"/>
        <use xlink:href="#DejaVuSans-30" transform="translate(109.116211 39.046875) scale(0.7)"/>
       </g>
      </g>
     </g>
     <g id="xtick_6">
      <g id="line2d_9">
       <g>
        <use xlink:href="#m9603eaae7b" x="271.597958" y="50.594687" style="stroke: #000000; stroke-width: 0.8"/>
       </g>
      </g>
      <g id="text_6">
       <!-- $\mathdefault{2^{12}}$ -->
       <g transform="translate(263.747958 41.515) scale(0.1 -0.1)">
        <use xlink:href="#DejaVuSans-32" transform="translate(0 0.765625)"/>
        <use xlink:href="#DejaVuSans-31" transform="translate(64.580078 39.046875) scale(0.7)"/>
        <use xlink:href="#DejaVuSans-32" transform="translate(109.116211 39.046875) scale(0.7)"/>
       </g>
      </g>
     </g>
     <g id="xtick_7">
      <g id="line2d_10">
       <g>
        <use xlink:href="#m9603eaae7b" x="316.357936" y="50.594687" style="stroke: #000000; stroke-width: 0.8"/>
       </g>
      </g>
      <g id="text_7">
       <!-- $\mathdefault{2^{14}}$ -->
       <g transform="translate(308.507936 41.515) scale(0.1 -0.1)">
        <use xlink:href="#DejaVuSans-32" transform="translate(0 0.684375)"/>
        <use xlink:href="#DejaVuSans-31" transform="translate(64.580078 38.965625) scale(0.7)"/>
        <use xlink:href="#DejaVuSans-34" transform="translate(109.116211 38.965625) scale(0.7)"/>
       </g>
      </g>
     </g>
     <g id="xtick_8">
      <g id="line2d_11">
       <g>
        <use xlink:href="#m9603eaae7b" x="361.117913" y="50.594687" style="stroke: #000000; stroke-width: 0.8"/>
       </g>
      </g>
      <g id="text_8">
       <!-- $\mathdefault{2^{16}}$ -->
       <g transform="translate(353.267913 41.515) scale(0.1 -0.1)">
        <use xlink:href="#DejaVuSans-32" transform="translate(0 0.765625)"/>
        <use xlink:href="#DejaVuSans-31" transform="translate(64.580078 39.046875) scale(0.7)"/>
        <use xlink:href="#DejaVuSans-36" transform="translate(109.116211 39.046875) scale(0.7)"/>
       </g>
      </g>
     </g>
     <g id="xtick_9">
      <g id="line2d_12">
       <g>
        <use xlink:href="#m9603eaae7b" x="405.87789" y="50.594687" style="stroke: #000000; stroke-width: 0.8"/>
       </g>
      </g>
      <g id="text_9">
       <!-- $\mathdefault{2^{18}}$ -->
       <g transform="translate(398.02789 41.515) scale(0.1 -0.1)">
        <use xlink:href="#DejaVuSans-32" transform="translate(0 0.765625)"/>
        <use xlink:href="#DejaVuSans-31" transform="translate(64.580078 39.046875) scale(0.7)"/>
        <use xlink:href="#DejaVuSans-38" transform="translate(109.116211 39.046875) scale(0.7)"/>
       </g>
      </g>
     </g>
     <g id="xtick_10">
      <g id="line2d_13">
       <g>
        <use xlink:href="#m9603eaae7b" x="450.637867" y="50.594687" style="stroke: #000000; stroke-width: 0.8"/>
       </g>
      </g>
      <g id="text_10">
       <!-- $\mathdefault{2^{20}}$ -->
       <g transform="translate(442.787867 41.515) scale(0.1 -0.1)">
        <use xlink:href="#DejaVuSans-32" transform="translate(0 0.765625)"/>
        <use xlink:href="#DejaVuSans-32" transform="translate(64.580078 39.046875) scale(0.7)"/>
        <use xlink:href="#DejaVuSans-30" transform="translate(109.116211 39.046875) scale(0.7)"/>
       </g>
      </g>
     </g>
     <g id="xtick_11">
      <g id="line2d_14">
       <g>
        <use xlink:href="#m9603eaae7b" x="495.397844" y="50.594687" style="stroke: #000000; stroke-width: 0.8"/>
       </g>
      </g>
      <g id="text_11">
       <!-- $\mathdefault{2^{22}}$ -->
       <g transform="translate(487.547844 41.515) scale(0.1 -0.1)">
        <use xlink:href="#DejaVuSans-32" transform="translate(0 0.765625)"/>
        <use xlink:href="#DejaVuSans-32" transform="translate(64.580078 39.046875) scale(0.7)"/>
        <use xlink:href="#DejaVuSans-32" transform="translate(109.116211 39.046875) scale(0.7)"/>
       </g>
      </g>
     </g>
     <g id="xtick_12">
      <g id="line2d_15">
       <g>
        <use xlink:href="#m9603eaae7b" x="540.157822" y="50.594687" style="stroke: #000000; stroke-width: 0.8"/>
       </g>
      </g>
      <g id="text_12">
       <!-- $\mathdefault{2^{24}}$ -->
       <g transform="translate(532.307822 41.515) scale(0.1 -0.1)">
        <use xlink:href="#DejaVuSans-32" transform="translate(0 0.765625)"/>
        <use xlink:href="#DejaVuSans-32" transform="translate(64.580078 39.046875) scale(0.7)"/>
        <use xlink:href="#DejaVuSans-34" transform="translate(109.116211 39.046875) scale(0.7)"/>
       </g>
      </g>
     </g>
     <g id="xtick_13">
      <g id="line2d_16">
       <g>
        <use xlink:href="#m9603eaae7b" x="584.917799" y="50.594687" style="stroke: #000000; stroke-width: 0.8"/>
       </g>
      </g>
      <g id="text_13">
       <!-- $\mathdefault{2^{26}}$ -->
       <g transform="translate(577.067799 41.515) scale(0.1 -0.1)">
        <use xlink:href="#DejaVuSans-32" transform="translate(0 0.765625)"/>
        <use xlink:href="#DejaVuSans-32" transform="translate(64.580078 39.046875) scale(0.7)"/>
        <use xlink:href="#DejaVuSans-36" transform="translate(109.116211 39.046875) scale(0.7)"/>
       </g>
      </g>
     </g>
     <g id="xtick_14">
      <g id="line2d_17">
       <g>
        <use xlink:href="#m9603eaae7b" x="629.677776" y="50.594687" style="stroke: #000000; stroke-width: 0.8"/>
       </g>
      </g>
      <g id="text_14">
       <!-- $\mathdefault{2^{28}}$ -->
       <g transform="translate(621.827776 41.515) scale(0.1 -0.1)">
        <use xlink:href="#DejaVuSans-32" transform="translate(0 0.765625)"/>
        <use xlink:href="#DejaVuSans-32" transform="translate(64.580078 39.046875) scale(0.7)"/>
        <use xlink:href="#DejaVuSans-38" transform="translate(109.116211 39.046875) scale(0.7)"/>
       </g>
      </g>
     </g>
     <g id="text_15">
      <!-- Array length (u32) -->
      <g transform="translate(307.85 29.916562) scale(0.1 -0.1)">
       <defs>
        <path id="DejaVuSans-41" d="M 2188 4044 
L 1331 1722 
L 3047 1722 
L 2188 4044 
z
M 1831 4666 
L 2547 4666 
L 4325 0 
L 3669 0 
L 3244 1197 
L 1141 1197 
L 716 0 
L 50 0 
L 1831 4666 
z
" transform="scale(0.015625)"/>
        <path id="DejaVuSans-72" d="M 2631 2963 
Q 2534 3019 2420 3045 
Q 2306 3072 2169 3072 
Q 1681 3072 1420 2755 
Q 1159 2438 1159 1844 
L 1159 0 
L 581 0 
L 581 3500 
L 1159 3500 
L 1159 2956 
Q 1341 3275 1631 3429 
Q 1922 3584 2338 3584 
Q 2397 3584 2469 3576 
Q 2541 3569 2628 3553 
L 2631 2963 
z
" transform="scale(0.015625)"/>
        <path id="DejaVuSans-61" d="M 2194 1759 
Q 1497 1759 1228 1600 
Q 959 1441 959 1056 
Q 959 750 1161 570 
Q 1363 391 1709 391 
Q 2188 391 2477 730 
Q 2766 1069 2766 1631 
L 2766 1759 
L 2194 1759 
z
M 3341 1997 
L 3341 0 
L 2766 0 
L 2766 531 
Q 2569 213 2275 61 
Q 1981 -91 1556 -91 
Q 1019 -91 701 211 
Q 384 513 384 1019 
Q 384 1609 779 1909 
Q 1175 2209 1959 2209 
L 2766 2209 
L 2766 2266 
Q 2766 2663 2505 2880 
Q 2244 3097 1772 3097 
Q 1472 3097 1187 3025 
Q 903 2953 641 2809 
L 641 3341 
Q 956 3463 1253 3523 
Q 1550 3584 1831 3584 
Q 2591 3584 2966 3190 
Q 3341 2797 3341 1997 
z
" transform="scale(0.015625)"/>
        <path id="DejaVuSans-79" d="M 2059 -325 
Q 1816 -950 1584 -1140 
Q 1353 -1331 966 -1331 
L 506 -1331 
L 506 -850 
L 844 -850 
Q 1081 -850 1212 -737 
Q 1344 -625 1503 -206 
L 1606 56 
L 191 3500 
L 800 3500 
L 1894 763 
L 2988 3500 
L 3597 3500 
L 2059 -325 
z
" transform="scale(0.015625)"/>
        <path id="DejaVuSans-20" transform="scale(0.015625)"/>
        <path id="DejaVuSans-6c" d="M 603 4863 
L 1178 4863 
L 1178 0 
L 603 0 
L 603 4863 
z
" transform="scale(0.015625)"/>
        <path id="DejaVuSans-65" d="M 3597 1894 
L 3597 1613 
L 953 1613 
Q 991 1019 1311 708 
Q 1631 397 2203 397 
Q 2534 397 2845 478 
Q 3156 559 3463 722 
L 3463 178 
Q 3153 47 2828 -22 
Q 2503 -91 2169 -91 
Q 1331 -91 842 396 
Q 353 884 353 1716 
Q 353 2575 817 3079 
Q 1281 3584 2069 3584 
Q 2775 3584 3186 3129 
Q 3597 2675 3597 1894 
z
M 3022 2063 
Q 3016 2534 2758 2815 
Q 2500 3097 2075 3097 
Q 1594 3097 1305 2825 
Q 1016 2553 972 2059 
L 3022 2063 
z
" transform="scale(0.015625)"/>
        <path id="DejaVuSans-6e" d="M 3513 2113 
L 3513 0 
L 2938 0 
L 2938 2094 
Q 2938 2591 2744 2837 
Q 2550 3084 2163 3084 
Q 1697 3084 1428 2787 
Q 1159 2491 1159 1978 
L 1159 0 
L 581 0 
L 581 3500 
L 1159 3500 
L 1159 2956 
Q 1366 3272 1645 3428 
Q 1925 3584 2291 3584 
Q 2894 3584 3203 3211 
Q 3513 2838 3513 2113 
z
" transform="scale(0.015625)"/>
        <path id="DejaVuSans-67" d="M 2906 1791 
Q 2906 2416 2648 2759 
Q 2391 3103 1925 3103 
Q 1463 3103 1205 2759 
Q 947 2416 947 1791 
Q 947 1169 1205 825 
Q 1463 481 1925 481 
Q 2391 481 2648 825 
Q 2906 1169 2906 1791 
z
M 3481 434 
Q 3481 -459 3084 -895 
Q 2688 -1331 1869 -1331 
Q 1566 -1331 1297 -1286 
Q 1028 -1241 775 -1147 
L 775 -588 
Q 1028 -725 1275 -790 
Q 1522 -856 1778 -856 
Q 2344 -856 2625 -561 
Q 2906 -266 2906 331 
L 2906 616 
Q 2728 306 2450 153 
Q 2172 0 1784 0 
Q 1141 0 747 490 
Q 353 981 353 1791 
Q 353 2603 747 3093 
Q 1141 3584 1784 3584 
Q 2172 3584 2450 3431 
Q 2728 3278 2906 2969 
L 2906 3500 
L 3481 3500 
L 3481 434 
z
" transform="scale(0.015625)"/>
        <path id="DejaVuSans-74" d="M 1172 4494 
L 1172 3500 
L 2356 3500 
L 2356 3053 
L 1172 3053 
L 1172 1153 
Q 1172 725 1289 603 
Q 1406 481 1766 481 
L 2356 481 
L 2356 0 
L 1766 0 
Q 1100 0 847 248 
Q 594 497 594 1153 
L 594 3053 
L 172 3053 
L 172 3500 
L 594 3500 
L 594 4494 
L 1172 4494 
z
" transform="scale(0.015625)"/>
        <path id="DejaVuSans-68" d="M 3513 2113 
L 3513 0 
L 2938 0 
L 2938 2094 
Q 2938 2591 2744 2837 
Q 2550 3084 2163 3084 
Q 1697 3084 1428 2787 
Q 1159 2491 1159 1978 
L 1159 0 
L 581 0 
L 581 4863 
L 1159 4863 
L 1159 2956 
Q 1366 3272 1645 3428 
Q 1925 3584 2291 3584 
Q 2894 3584 3203 3211 
Q 3513 2838 3513 2113 
z
" transform="scale(0.015625)"/>
        <path id="DejaVuSans-28" d="M 1984 4856 
Q 1566 4138 1362 3434 
Q 1159 2731 1159 2009 
Q 1159 1288 1364 580 
Q 1569 -128 1984 -844 
L 1484 -844 
Q 1016 -109 783 600 
Q 550 1309 550 2009 
Q 550 2706 781 3412 
Q 1013 4119 1484 4856 
L 1984 4856 
z
" transform="scale(0.015625)"/>
        <path id="DejaVuSans-75" d="M 544 1381 
L 544 3500 
L 1119 3500 
L 1119 1403 
Q 1119 906 1312 657 
Q 1506 409 1894 409 
Q 2359 409 2629 706 
Q 2900 1003 2900 1516 
L 2900 3500 
L 3475 3500 
L 3475 0 
L 2900 0 
L 2900 538 
Q 2691 219 2414 64 
Q 2138 -91 1772 -91 
Q 1169 -91 856 284 
Q 544 659 544 1381 
z
M 1991 3584 
L 1991 3584 
z
" transform="scale(0.015625)"/>
        <path id="DejaVuSans-33" d="M 2597 2516 
Q 3050 2419 3304 2112 
Q 3559 1806 3559 1356 
Q 3559 666 3084 287 
Q 2609 -91 1734 -91 
Q 1441 -91 1130 -33 
Q 819 25 488 141 
L 488 750 
Q 750 597 1062 519 
Q 1375 441 1716 441 
Q 2309 441 2620 675 
Q 2931 909 2931 1356 
Q 2931 1769 2642 2001 
Q 2353 2234 1838 2234 
L 1294 2234 
L 1294 2753 
L 1863 2753 
Q 2328 2753 2575 2939 
Q 2822 3125 2822 3475 
Q 2822 3834 2567 4026 
Q 2313 4219 1838 4219 
Q 1578 4219 1281 4162 
Q 984 4106 628 3988 
L 628 4550 
Q 988 4650 1302 4700 
Q 1616 4750 1894 4750 
Q 2613 4750 3031 4423 
Q 3450 4097 3450 3541 
Q 3450 3153 3228 2886 
Q 3006 2619 2597 2516 
z
" transform="scale(0.015625)"/>
        <path id="DejaVuSans-29" d="M 513 4856 
L 1013 4856 
Q 1481 4119 1714 3412 
Q 1947 2706 1947 2009 
Q 1947 1309 1714 600 
Q 1481 -109 1013 -844 
L 513 -844 
Q 928 -128 1133 580 
Q 1338 1288 1338 2009 
Q 1338 2731 1133 3434 
Q 928 4138 513 4856 
z
" transform="scale(0.015625)"/>
       </defs>
       <use xlink:href="#DejaVuSans-41"/>
       <use xlink:href="#DejaVuSans-72" x="68.408203"/>
       <use xlink:href="#DejaVuSans-72" x="107.771484"/>
       <use xlink:href="#DejaVuSans-61" x="148.884766"/>
       <use xlink:href="#DejaVuSans-79" x="210.164062"/>
       <use xlink:href="#DejaVuSans-20" x="269.34375"/>
       <use xlink:href="#DejaVuSans-6c" x="301.130859"/>
       <use xlink:href="#DejaVuSans-65" x="328.914062"/>
       <use xlink:href="#DejaVuSans-6e" x="390.4375"/>
       <use xlink:href="#DejaVuSans-67" x="453.816406"/>
       <use xlink:href="#DejaVuSans-74" x="517.292969"/>
       <use xlink:href="#DejaVuSans-68" x="556.501953"/>
       <use xlink:href="#DejaVuSans-20" x="619.880859"/>
       <use xlink:href="#DejaVuSans-28" x="651.667969"/>
       <use xlink:href="#DejaVuSans-75" x="690.681641"/>
       <use xlink:href="#DejaVuSans-33" x="754.060547"/>
       <use xlink:href="#DejaVuSans-32" x="817.683594"/>
       <use xlink:href="#DejaVuSans-29" x="881.306641"/>
      </g>
     </g>
    </g>
    <g id="matplotlib.axis_2"/>
    <g id="patch_4">
     <path d="M 46.965625 50.594687 
L 660.765625 50.594687 
" style="fill: none; stroke: #000000; stroke-width: 0.8; stroke-linejoin: miter; stroke-linecap: square"/>
    </g>
   </g>
   <g id="matplotlib.axis_3">
    <g id="xtick_15">
     <g id="line2d_18">
      <path d="M 47.798072 494.114688 
L 47.798072 50.594688 
" clip-path="url(#p39d0e6f651)" style="fill: none; stroke: #b0b0b0; stroke-opacity: 0.4; stroke-width: 0.8; stroke-linecap: square"/>
     </g>
     <g id="line2d_19">
      <defs>
       <path id="m8b539a9fdf" d="M 0 0 
L 0 3.5 
" style="stroke: #000000; stroke-width: 0.8"/>
      </defs>
      <g>
       <use xlink:href="#m8b539a9fdf" x="47.798072" y="494.114688" style="stroke: #000000; stroke-width: 0.8"/>
      </g>
     </g>
     <g id="text_16">
      <!-- $\mathdefault{2^{4}}$ -->
      <g transform="translate(42.198072 508.713125) scale(0.1 -0.1)">
       <use xlink:href="#DejaVuSans-32" transform="translate(0 0.684375)"/>
       <use xlink:href="#DejaVuSans-34" transform="translate(64.580078 38.965625) scale(0.7)"/>
      </g>
     </g>
    </g>
    <g id="xtick_16">
     <g id="line2d_20">
      <path d="M 92.55805 494.114688 
L 92.55805 50.594688 
" clip-path="url(#p39d0e6f651)" style="fill: none; stroke: #b0b0b0; stroke-opacity: 0.4; stroke-width: 0.8; stroke-linecap: square"/>
     </g>
     <g id="line2d_21">
      <g>
       <use xlink:href="#m8b539a9fdf" x="92.55805" y="494.114688" style="stroke: #000000; stroke-width: 0.8"/>
      </g>
     </g>
     <g id="text_17">
      <!-- $\mathdefault{2^{6}}$ -->
      <g transform="translate(86.95805 508.713125) scale(0.1 -0.1)">
       <use xlink:href="#DejaVuSans-32" transform="translate(0 0.765625)"/>
       <use xlink:href="#DejaVuSans-36" transform="translate(64.580078 39.046875) scale(0.7)"/>
      </g>
     </g>
    </g>
    <g id="xtick_17">
     <g id="line2d_22">
      <path d="M 137.318027 494.114688 
L 137.318027 50.594688 
" clip-path="url(#p39d0e6f651)" style="fill: none; stroke: #b0b0b0; stroke-opacity: 0.4; stroke-width: 0.8; stroke-linecap: square"/>
     </g>
     <g id="line2d_23">
      <g>
       <use xlink:href="#m8b539a9fdf" x="137.318027" y="494.114688" style="stroke: #000000; stroke-width: 0.8"/>
      </g>
     </g>
     <g id="text_18">
      <!-- $\mathdefault{2^{8}}$ -->
      <g transform="translate(131.718027 508.713125) scale(0.1 -0.1)">
       <use xlink:href="#DejaVuSans-32" transform="translate(0 0.765625)"/>
       <use xlink:href="#DejaVuSans-38" transform="translate(64.580078 39.046875) scale(0.7)"/>
      </g>
     </g>
    </g>
    <g id="xtick_18">
     <g id="line2d_24">
      <path d="M 182.078004 494.114688 
L 182.078004 50.594688 
" clip-path="url(#p39d0e6f651)" style="fill: none; stroke: #b0b0b0; stroke-opacity: 0.4; stroke-width: 0.8; stroke-linecap: square"/>
     </g>
     <g id="line2d_25">
      <g>
       <use xlink:href="#m8b539a9fdf" x="182.078004" y="494.114688" style="stroke: #000000; stroke-width: 0.8"/>
      </g>
     </g>
     <g id="text_19">
      <!-- $\mathdefault{2^{10}}$ -->
      <g transform="translate(174.228004 508.713125) scale(0.1 -0.1)">
       <use xlink:href="#DejaVuSans-32" transform="translate(0 0.765625)"/>
       <use xlink:href="#DejaVuSans-31" transform="translate(64.580078 39.046875) scale(0.7)"/>
       <use xlink:href="#DejaVuSans-30" transform="translate(109.116211 39.046875) scale(0.7)"/>
      </g>
     </g>
    </g>
    <g id="xtick_19">
     <g id="line2d_26">
      <path d="M 226.837981 494.114688 
L 226.837981 50.594688 
" clip-path="url(#p39d0e6f651)" style="fill: none; stroke: #b0b0b0; stroke-opacity: 0.4; stroke-width: 0.8; stroke-linecap: square"/>
     </g>
     <g id="line2d_27">
      <g>
       <use xlink:href="#m8b539a9fdf" x="226.837981" y="494.114688" style="stroke: #000000; stroke-width: 0.8"/>
      </g>
     </g>
     <g id="text_20">
      <!-- $\mathdefault{2^{12}}$ -->
      <g transform="translate(218.987981 508.713125) scale(0.1 -0.1)">
       <use xlink:href="#DejaVuSans-32" transform="translate(0 0.765625)"/>
       <use xlink:href="#DejaVuSans-31" transform="translate(64.580078 39.046875) scale(0.7)"/>
       <use xlink:href="#DejaVuSans-32" transform="translate(109.116211 39.046875) scale(0.7)"/>
      </g>
     </g>
    </g>
    <g id="xtick_20">
     <g id="line2d_28">
      <path d="M 271.597958 494.114688 
L 271.597958 50.594688 
" clip-path="url(#p39d0e6f651)" style="fill: none; stroke: #b0b0b0; stroke-opacity: 0.4; stroke-width: 0.8; stroke-linecap: square"/>
     </g>
     <g id="line2d_29">
      <g>
       <use xlink:href="#m8b539a9fdf" x="271.597958" y="494.114688" style="stroke: #000000; stroke-width: 0.8"/>
      </g>
     </g>
     <g id="text_21">
      <!-- $\mathdefault{2^{14}}$ -->
      <g transform="translate(263.747958 508.713125) scale(0.1 -0.1)">
       <use xlink:href="#DejaVuSans-32" transform="translate(0 0.684375)"/>
       <use xlink:href="#DejaVuSans-31" transform="translate(64.580078 38.965625) scale(0.7)"/>
       <use xlink:href="#DejaVuSans-34" transform="translate(109.116211 38.965625) scale(0.7)"/>
      </g>
     </g>
    </g>
    <g id="xtick_21">
     <g id="line2d_30">
      <path d="M 316.357936 494.114688 
L 316.357936 50.594688 
" clip-path="url(#p39d0e6f651)" style="fill: none; stroke: #b0b0b0; stroke-opacity: 0.4; stroke-width: 0.8; stroke-linecap: square"/>
     </g>
     <g id="line2d_31">
      <g>
       <use xlink:href="#m8b539a9fdf" x="316.357936" y="494.114688" style="stroke: #000000; stroke-width: 0.8"/>
      </g>
     </g>
     <g id="text_22">
      <!-- $\mathdefault{2^{16}}$ -->
      <g transform="translate(308.507936 508.713125) scale(0.1 -0.1)">
       <use xlink:href="#DejaVuSans-32" transform="translate(0 0.765625)"/>
       <use xlink:href="#DejaVuSans-31" transform="translate(64.580078 39.046875) scale(0.7)"/>
       <use xlink:href="#DejaVuSans-36" transform="translate(109.116211 39.046875) scale(0.7)"/>
      </g>
     </g>
    </g>
    <g id="xtick_22">
     <g id="line2d_32">
      <path d="M 361.117913 494.114688 
L 361.117913 50.594688 
" clip-path="url(#p39d0e6f651)" style="fill: none; stroke: #b0b0b0; stroke-opacity: 0.4; stroke-width: 0.8; stroke-linecap: square"/>
     </g>
     <g id="line2d_33">
      <g>
       <use xlink:href="#m8b539a9fdf" x="361.117913" y="494.114688" style="stroke: #000000; stroke-width: 0.8"/>
      </g>
     </g>
     <g id="text_23">
      <!-- $\mathdefault{2^{18}}$ -->
      <g transform="translate(353.267913 508.713125) scale(0.1 -0.1)">
       <use xlink:href="#DejaVuSans-32" transform="translate(0 0.765625)"/>
       <use xlink:href="#DejaVuSans-31" transform="translate(64.580078 39.046875) scale(0.7)"/>
       <use xlink:href="#DejaVuSans-38" transform="translate(109.116211 39.046875) scale(0.7)"/>
      </g>
     </g>
    </g>
    <g id="xtick_23">
     <g id="line2d_34">
      <path d="M 405.87789 494.114688 
L 405.87789 50.594688 
" clip-path="url(#p39d0e6f651)" style="fill: none; stroke: #b0b0b0; stroke-opacity: 0.4; stroke-width: 0.8; stroke-linecap: square"/>
     </g>
     <g id="line2d_35">
      <g>
       <use xlink:href="#m8b539a9fdf" x="405.87789" y="494.114688" style="stroke: #000000; stroke-width: 0.8"/>
      </g>
     </g>
     <g id="text_24">
      <!-- $\mathdefault{2^{20}}$ -->
      <g transform="translate(398.02789 508.713125) scale(0.1 -0.1)">
       <use xlink:href="#DejaVuSans-32" transform="translate(0 0.765625)"/>
       <use xlink:href="#DejaVuSans-32" transform="translate(64.580078 39.046875) scale(0.7)"/>
       <use xlink:href="#DejaVuSans-30" transform="translate(109.116211 39.046875) scale(0.7)"/>
      </g>
     </g>
    </g>
    <g id="xtick_24">
     <g id="line2d_36">
      <path d="M 450.637867 494.114688 
L 450.637867 50.594688 
" clip-path="url(#p39d0e6f651)" style="fill: none; stroke: #b0b0b0; stroke-opacity: 0.4; stroke-width: 0.8; stroke-linecap: square"/>
     </g>
     <g id="line2d_37">
      <g>
       <use xlink:href="#m8b539a9fdf" x="450.637867" y="494.114688" style="stroke: #000000; stroke-width: 0.8"/>
      </g>
     </g>
     <g id="text_25">
      <!-- $\mathdefault{2^{22}}$ -->
      <g transform="translate(442.787867 508.713125) scale(0.1 -0.1)">
       <use xlink:href="#DejaVuSans-32" transform="translate(0 0.765625)"/>
       <use xlink:href="#DejaVuSans-32" transform="translate(64.580078 39.046875) scale(0.7)"/>
       <use xlink:href="#DejaVuSans-32" transform="translate(109.116211 39.046875) scale(0.7)"/>
      </g>
     </g>
    </g>
    <g id="xtick_25">
     <g id="line2d_38">
      <path d="M 495.397844 494.114688 
L 495.397844 50.594688 
" clip-path="url(#p39d0e6f651)" style="fill: none; stroke: #b0b0b0; stroke-opacity: 0.4; stroke-width: 0.8; stroke-linecap: square"/>
     </g>
     <g id="line2d_39">
      <g>
       <use xlink:href="#m8b539a9fdf" x="495.397844" y="494.114688" style="stroke: #000000; stroke-width: 0.8"/>
      </g>
     </g>
     <g id="text_26">
      <!-- $\mathdefault{2^{24}}$ -->
      <g transform="translate(487.547844 508.713125) scale(0.1 -0.1)">
       <use xlink:href="#DejaVuSans-32" transform="translate(0 0.765625)"/>
       <use xlink:href="#DejaVuSans-32" transform="translate(64.580078 39.046875) scale(0.7)"/>
       <use xlink:href="#DejaVuSans-34" transform="translate(109.116211 39.046875) scale(0.7)"/>
      </g>
     </g>
    </g>
    <g id="xtick_26">
     <g id="line2d_40">
      <path d="M 540.157822 494.114688 
L 540.157822 50.594688 
" clip-path="url(#p39d0e6f651)" style="fill: none; stroke: #b0b0b0; stroke-opacity: 0.4; stroke-width: 0.8; stroke-linecap: square"/>
     </g>
     <g id="line2d_41">
      <g>
       <use xlink:href="#m8b539a9fdf" x="540.157822" y="494.114688" style="stroke: #000000; stroke-width: 0.8"/>
      </g>
     </g>
     <g id="text_27">
      <!-- $\mathdefault{2^{26}}$ -->
      <g transform="translate(532.307822 508.713125) scale(0.1 -0.1)">
       <use xlink:href="#DejaVuSans-32" transform="translate(0 0.765625)"/>
       <use xlink:href="#DejaVuSans-32" transform="translate(64.580078 39.046875) scale(0.7)"/>
       <use xlink:href="#DejaVuSans-36" transform="translate(109.116211 39.046875) scale(0.7)"/>
      </g>
     </g>
    </g>
    <g id="xtick_27">
     <g id="line2d_42">
      <path d="M 584.917799 494.114688 
L 584.917799 50.594688 
" clip-path="url(#p39d0e6f651)" style="fill: none; stroke: #b0b0b0; stroke-opacity: 0.4; stroke-width: 0.8; stroke-linecap: square"/>
     </g>
     <g id="line2d_43">
      <g>
       <use xlink:href="#m8b539a9fdf" x="584.917799" y="494.114688" style="stroke: #000000; stroke-width: 0.8"/>
      </g>
     </g>
     <g id="text_28">
      <!-- $\mathdefault{2^{28}}$ -->
      <g transform="translate(577.067799 508.713125) scale(0.1 -0.1)">
       <use xlink:href="#DejaVuSans-32" transform="translate(0 0.765625)"/>
       <use xlink:href="#DejaVuSans-32" transform="translate(64.580078 39.046875) scale(0.7)"/>
       <use xlink:href="#DejaVuSans-38" transform="translate(109.116211 39.046875) scale(0.7)"/>
      </g>
     </g>
    </g>
    <g id="xtick_28">
     <g id="line2d_44">
      <path d="M 629.677776 494.114688 
L 629.677776 50.594688 
" clip-path="url(#p39d0e6f651)" style="fill: none; stroke: #b0b0b0; stroke-opacity: 0.4; stroke-width: 0.8; stroke-linecap: square"/>
     </g>
     <g id="line2d_45">
      <g>
       <use xlink:href="#m8b539a9fdf" x="629.677776" y="494.114688" style="stroke: #000000; stroke-width: 0.8"/>
      </g>
     </g>
     <g id="text_29">
      <!-- $\mathdefault{2^{30}}$ -->
      <g transform="translate(621.827776 508.713125) scale(0.1 -0.1)">
       <use xlink:href="#DejaVuSans-32" transform="translate(0 0.765625)"/>
       <use xlink:href="#DejaVuSans-33" transform="translate(64.580078 39.046875) scale(0.7)"/>
       <use xlink:href="#DejaVuSans-30" transform="translate(109.116211 39.046875) scale(0.7)"/>
      </g>
     </g>
    </g>
    <g id="text_30">
     <!-- Input size (bytes) -->
     <g transform="translate(310.369531 522.39125) scale(0.1 -0.1)">
      <defs>
       <path id="DejaVuSans-49" d="M 628 4666 
L 1259 4666 
L 1259 0 
L 628 0 
L 628 4666 
z
" transform="scale(0.015625)"/>
       <path id="DejaVuSans-70" d="M 1159 525 
L 1159 -1331 
L 581 -1331 
L 581 3500 
L 1159 3500 
L 1159 2969 
Q 1341 3281 1617 3432 
Q 1894 3584 2278 3584 
Q 2916 3584 3314 3078 
Q 3713 2572 3713 1747 
Q 3713 922 3314 415 
Q 2916 -91 2278 -91 
Q 1894 -91 1617 61 
Q 1341 213 1159 525 
z
M 3116 1747 
Q 3116 2381 2855 2742 
Q 2594 3103 2138 3103 
Q 1681 3103 1420 2742 
Q 1159 2381 1159 1747 
Q 1159 1113 1420 752 
Q 1681 391 2138 391 
Q 2594 391 2855 752 
Q 3116 1113 3116 1747 
z
" transform="scale(0.015625)"/>
       <path id="DejaVuSans-73" d="M 2834 3397 
L 2834 2853 
Q 2591 2978 2328 3040 
Q 2066 3103 1784 3103 
Q 1356 3103 1142 2972 
Q 928 2841 928 2578 
Q 928 2378 1081 2264 
Q 1234 2150 1697 2047 
L 1894 2003 
Q 2506 1872 2764 1633 
Q 3022 1394 3022 966 
Q 3022 478 2636 193 
Q 2250 -91 1575 -91 
Q 1294 -91 989 -36 
Q 684 19 347 128 
L 347 722 
Q 666 556 975 473 
Q 1284 391 1588 391 
Q 1994 391 2212 530 
Q 2431 669 2431 922 
Q 2431 1156 2273 1281 
Q 2116 1406 1581 1522 
L 1381 1569 
Q 847 1681 609 1914 
Q 372 2147 372 2553 
Q 372 3047 722 3315 
Q 1072 3584 1716 3584 
Q 2034 3584 2315 3537 
Q 2597 3491 2834 3397 
z
" transform="scale(0.015625)"/>
       <path id="DejaVuSans-69" d="M 603 3500 
L 1178 3500 
L 1178 0 
L 603 0 
L 603 3500 
z
M 603 4863 
L 1178 4863 
L 1178 4134 
L 603 4134 
L 603 4863 
z
" transform="scale(0.015625)"/>
       <path id="DejaVuSans-7a" d="M 353 3500 
L 3084 3500 
L 3084 2975 
L 922 459 
L 3084 459 
L 3084 0 
L 275 0 
L 275 525 
L 2438 3041 
L 353 3041 
L 353 3500 
z
" transform="scale(0.015625)"/>
       <path id="DejaVuSans-62" d="M 3116 1747 
Q 3116 2381 2855 2742 
Q 2594 3103 2138 3103 
Q 1681 3103 1420 2742 
Q 1159 2381 1159 1747 
Q 1159 1113 1420 752 
Q 1681 391 2138 391 
Q 2594 391 2855 752 
Q 3116 1113 3116 1747 
z
M 1159 2969 
Q 1341 3281 1617 3432 
Q 1894 3584 2278 3584 
Q 2916 3584 3314 3078 
Q 3713 2572 3713 1747 
Q 3713 922 3314 415 
Q 2916 -91 2278 -91 
Q 1894 -91 1617 61 
Q 1341 213 1159 525 
L 1159 0 
L 581 0 
L 581 4863 
L 1159 4863 
L 1159 2969 
z
" transform="scale(0.015625)"/>
      </defs>
      <use xlink:href="#DejaVuSans-49"/>
      <use xlink:href="#DejaVuSans-6e" x="29.492188"/>
      <use xlink:href="#DejaVuSans-70" x="92.871094"/>
      <use xlink:href="#DejaVuSans-75" x="156.347656"/>
      <use xlink:href="#DejaVuSans-74" x="219.726562"/>
      <use xlink:href="#DejaVuSans-20" x="258.935547"/>
      <use xlink:href="#DejaVuSans-73" x="290.722656"/>
      <use xlink:href="#DejaVuSans-69" x="342.822266"/>
      <use xlink:href="#DejaVuSans-7a" x="370.605469"/>
      <use xlink:href="#DejaVuSans-65" x="423.095703"/>
      <use xlink:href="#DejaVuSans-20" x="484.619141"/>
      <use xlink:href="#DejaVuSans-28" x="516.40625"/>
      <use xlink:href="#DejaVuSans-62" x="555.419922"/>
      <use xlink:href="#DejaVuSans-79" x="618.896484"/>
      <use xlink:href="#DejaVuSans-74" x="678.076172"/>
      <use xlink:href="#DejaVuSans-65" x="717.285156"/>
      <use xlink:href="#DejaVuSans-73" x="778.808594"/>
      <use xlink:href="#DejaVuSans-29" x="830.908203"/>
     </g>
    </g>
   </g>
   <g id="matplotlib.axis_4">
    <g id="ytick_1">
     <g id="line2d_46">
      <path d="M 46.965625 494.114688 
L 660.765625 494.114688 
" clip-path="url(#p39d0e6f651)" style="fill: none; stroke: #b0b0b0; stroke-opacity: 0.4; stroke-width: 0.8; stroke-linecap: square"/>
     </g>
     <g id="line2d_47">
      <defs>
       <path id="m776b890868" d="M 0 0 
L -3.5 0 
" style="stroke: #000000; stroke-width: 0.8"/>
      </defs>
      <g>
       <use xlink:href="#m776b890868" x="46.965625" y="494.114688" style="stroke: #000000; stroke-width: 0.8"/>
      </g>
     </g>
     <g id="text_31">
      <!-- 0 -->
      <g transform="translate(33.603125 497.913906) scale(0.1 -0.1)">
       <use xlink:href="#DejaVuSans-30"/>
      </g>
     </g>
    </g>
    <g id="ytick_2">
     <g id="line2d_48">
      <path d="M 46.965625 405.410688 
L 660.765625 405.410688 
" clip-path="url(#p39d0e6f651)" style="fill: none; stroke: #b0b0b0; stroke-opacity: 0.4; stroke-width: 0.8; stroke-linecap: square"/>
     </g>
     <g id="line2d_49">
      <g>
       <use xlink:href="#m776b890868" x="46.965625" y="405.410688" style="stroke: #000000; stroke-width: 0.8"/>
      </g>
     </g>
     <g id="text_32">
      <!-- 100 -->
      <g transform="translate(20.878125 409.209906) scale(0.1 -0.1)">
       <use xlink:href="#DejaVuSans-31"/>
       <use xlink:href="#DejaVuSans-30" x="63.623047"/>
       <use xlink:href="#DejaVuSans-30" x="127.246094"/>
      </g>
     </g>
    </g>
    <g id="ytick_3">
     <g id="line2d_50">
      <path d="M 46.965625 316.706688 
L 660.765625 316.706688 
" clip-path="url(#p39d0e6f651)" style="fill: none; stroke: #b0b0b0; stroke-opacity: 0.4; stroke-width: 0.8; stroke-linecap: square"/>
     </g>
     <g id="line2d_51">
      <g>
       <use xlink:href="#m776b890868" x="46.965625" y="316.706688" style="stroke: #000000; stroke-width: 0.8"/>
      </g>
     </g>
     <g id="text_33">
      <!-- 200 -->
      <g transform="translate(20.878125 320.505906) scale(0.1 -0.1)">
       <use xlink:href="#DejaVuSans-32"/>
       <use xlink:href="#DejaVuSans-30" x="63.623047"/>
       <use xlink:href="#DejaVuSans-30" x="127.246094"/>
      </g>
     </g>
    </g>
    <g id="ytick_4">
     <g id="line2d_52">
      <path d="M 46.965625 228.002688 
L 660.765625 228.002688 
" clip-path="url(#p39d0e6f651)" style="fill: none; stroke: #b0b0b0; stroke-opacity: 0.4; stroke-width: 0.8; stroke-linecap: square"/>
     </g>
     <g id="line2d_53">
      <g>
       <use xlink:href="#m776b890868" x="46.965625" y="228.002688" style="stroke: #000000; stroke-width: 0.8"/>
      </g>
     </g>
     <g id="text_34">
      <!-- 300 -->
      <g transform="translate(20.878125 231.801906) scale(0.1 -0.1)">
       <use xlink:href="#DejaVuSans-33"/>
       <use xlink:href="#DejaVuSans-30" x="63.623047"/>
       <use xlink:href="#DejaVuSans-30" x="127.246094"/>
      </g>
     </g>
    </g>
    <g id="ytick_5">
     <g id="line2d_54">
      <path d="M 46.965625 139.298688 
L 660.765625 139.298688 
" clip-path="url(#p39d0e6f651)" style="fill: none; stroke: #b0b0b0; stroke-opacity: 0.4; stroke-width: 0.8; stroke-linecap: square"/>
     </g>
     <g id="line2d_55">
      <g>
       <use xlink:href="#m776b890868" x="46.965625" y="139.298688" style="stroke: #000000; stroke-width: 0.8"/>
      </g>
     </g>
     <g id="text_35">
      <!-- 400 -->
      <g transform="translate(20.878125 143.097906) scale(0.1 -0.1)">
       <use xlink:href="#DejaVuSans-34"/>
       <use xlink:href="#DejaVuSans-30" x="63.623047"/>
       <use xlink:href="#DejaVuSans-30" x="127.246094"/>
      </g>
     </g>
    </g>
    <g id="ytick_6">
     <g id="line2d_56">
      <path d="M 46.965625 50.594688 
L 660.765625 50.594688 
" clip-path="url(#p39d0e6f651)" style="fill: none; stroke: #b0b0b0; stroke-opacity: 0.4; stroke-width: 0.8; stroke-linecap: square"/>
     </g>
     <g id="line2d_57">
      <g>
       <use xlink:href="#m776b890868" x="46.965625" y="50.594688" style="stroke: #000000; stroke-width: 0.8"/>
      </g>
     </g>
     <g id="text_36">
      <!-- 500 -->
      <g transform="translate(20.878125 54.393906) scale(0.1 -0.1)">
       <defs>
        <path id="DejaVuSans-35" d="M 691 4666 
L 3169 4666 
L 3169 4134 
L 1269 4134 
L 1269 2991 
Q 1406 3038 1543 3061 
Q 1681 3084 1819 3084 
Q 2600 3084 3056 2656 
Q 3513 2228 3513 1497 
Q 3513 744 3044 326 
Q 2575 -91 1722 -91 
Q 1428 -91 1123 -41 
Q 819 9 494 109 
L 494 744 
Q 775 591 1075 516 
Q 1375 441 1709 441 
Q 2250 441 2565 725 
Q 2881 1009 2881 1497 
Q 2881 1984 2565 2268 
Q 2250 2553 1709 2553 
Q 1456 2553 1204 2497 
Q 953 2441 691 2322 
L 691 4666 
z
" transform="scale(0.015625)"/>
       </defs>
       <use xlink:href="#DejaVuSans-35"/>
       <use xlink:href="#DejaVuSans-30" x="63.623047"/>
       <use xlink:href="#DejaVuSans-30" x="127.246094"/>
      </g>
     </g>
    </g>
    <g id="text_37">
     <!-- Inverse throughput (ns) -->
     <g transform="translate(14.798438 331.570313) rotate(-90) scale(0.1 -0.1)">
      <defs>
       <path id="DejaVuSans-76" d="M 191 3500 
L 800 3500 
L 1894 563 
L 2988 3500 
L 3597 3500 
L 2284 0 
L 1503 0 
L 191 3500 
z
" transform="scale(0.015625)"/>
       <path id="DejaVuSans-6f" d="M 1959 3097 
Q 1497 3097 1228 2736 
Q 959 2375 959 1747 
Q 959 1119 1226 758 
Q 1494 397 1959 397 
Q 2419 397 2687 759 
Q 2956 1122 2956 1747 
Q 2956 2369 2687 2733 
Q 2419 3097 1959 3097 
z
M 1959 3584 
Q 2709 3584 3137 3096 
Q 3566 2609 3566 1747 
Q 3566 888 3137 398 
Q 2709 -91 1959 -91 
Q 1206 -91 779 398 
Q 353 888 353 1747 
Q 353 2609 779 3096 
Q 1206 3584 1959 3584 
z
" transform="scale(0.015625)"/>
      </defs>
      <use xlink:href="#DejaVuSans-49"/>
      <use xlink:href="#DejaVuSans-6e" x="29.492188"/>
      <use xlink:href="#DejaVuSans-76" x="92.871094"/>
      <use xlink:href="#DejaVuSans-65" x="152.050781"/>
      <use xlink:href="#DejaVuSans-72" x="213.574219"/>
      <use xlink:href="#DejaVuSans-73" x="254.6875"/>
      <use xlink:href="#DejaVuSans-65" x="306.787109"/>
      <use xlink:href="#DejaVuSans-20" x="368.310547"/>
      <use xlink:href="#DejaVuSans-74" x="400.097656"/>
      <use xlink:href="#DejaVuSans-68" x="439.306641"/>
      <use xlink:href="#DejaVuSans-72" x="502.685547"/>
      <use xlink:href="#DejaVuSans-6f" x="541.548828"/>
      <use xlink:href="#DejaVuSans-75" x="602.730469"/>
      <use xlink:href="#DejaVuSans-67" x="666.109375"/>
      <use xlink:href="#DejaVuSans-68" x="729.585938"/>
      <use xlink:href="#DejaVuSans-70" x="792.964844"/>
      <use xlink:href="#DejaVuSans-75" x="856.441406"/>
      <use xlink:href="#DejaVuSans-74" x="919.820312"/>
      <use xlink:href="#DejaVuSans-20" x="959.029297"/>
      <use xlink:href="#DejaVuSans-28" x="990.816406"/>
      <use xlink:href="#DejaVuSans-6e" x="1029.830078"/>
      <use xlink:href="#DejaVuSans-73" x="1093.208984"/>
      <use xlink:href="#DejaVuSans-29" x="1145.308594"/>
     </g>
    </g>
   </g>
   <g id="line2d_58">
    <path d="M 74.865625 484.586819 
L 79.717861 484.609551 
L 85.226933 484.617323 
L 89.931602 484.626828 
L 95.451402 484.607338 
L 100.560059 484.580095 
L 105.649504 484.602471 
L 110.626644 484.375657 
L 115.686045 482.84185 
L 120.698375 482.615197 
L 125.76583 482.844879 
L 130.922845 482.843582 
L 136.031502 482.861366 
L 141.120946 480.806961 
L 146.194037 480.800992 
L 151.239539 480.841554 
L 156.310199 480.81176 
L 161.417148 478.495448 
L 166.445497 478.555045 
L 171.546665 478.483035 
L 176.629737 478.58257 
L 181.6974 478.578662 
L 186.765568 476.64907 
L 191.8283 476.630315 
L 196.908515 476.660171 
L 201.968068 476.582212 
L 207.047222 475.080224 
L 212.11362 475.088867 
L 217.179476 475.064662 
L 222.255185 475.079904 
L 227.323046 473.270864 
L 232.393234 473.270411 
L 237.462208 473.275179 
L 242.528364 473.26587 
L 247.601641 473.25363 
L 252.668633 471.436317 
L 257.738739 471.443161 
L 262.807428 471.430946 
L 267.877947 471.452177 
L 272.946884 469.580248 
L 278.01758 469.566356 
L 283.085513 469.572242 
L 288.15542 469.560812 
L 293.225314 469.492892 
L 298.294391 467.091341 
L 303.363392 467.292545 
L 308.432814 467.312426 
L 313.501943 467.294793 
L 318.571219 464.729501 
L 323.640627 464.778531 
L 328.709865 464.788778 
L 333.779336 464.727804 
L 338.848585 462.299641 
L 343.917898 462.2987 
L 348.987197 462.060081 
L 354.05646 462.305049 
L 359.125697 462.123836 
L 364.194971 459.562186 
L 369.26418 459.47117 
L 374.333445 459.526663 
L 379.402696 459.46531 
L 384.471968 456.493016 
L 389.541235 456.430177 
L 394.6105 456.437643 
L 399.679773 456.570474 
L 404.749018 456.252969 
L 409.818299 453.792585 
L 414.887559 453.711573 
L 419.956812 453.642324 
L 425.026073 453.521132 
L 430.095326 448.465712 
L 435.164582 448.017727 
L 440.23384 446.824261 
L 445.303103 445.098088 
L 450.372362 442.334268 
L 455.441618 416.957197 
L 460.510876 411.954297 
L 465.580132 403.331422 
L 470.649389 400.314251 
L 475.718649 393.102407 
L 480.787907 390.32789 
L 485.857165 388.415726 
L 490.926423 386.021615 
L 495.995678 381.559527 
L 501.064936 380.20103 
L 506.134192 378.314837 
L 511.20345 376.686754 
L 516.272707 375.19973 
L 521.341964 370.280655 
L 526.411223 367.817227 
L 531.480481 364.727593 
L 536.549739 361.519963 
L 541.618998 356.352965 
L 546.688254 352.858364 
L 551.757511 350.455703 
L 556.826767 348.700531 
L 561.896024 346.452661 
L 566.965282 342.143625 
L 572.034539 340.515196 
L 577.103797 338.793172 
L 582.173056 337.101244 
L 587.242311 333.322764 
L 592.311567 331.973816 
L 597.380824 329.991196 
L 602.450082 327.949326 
L 607.519338 322.125053 
L 612.588595 318.660236 
L 617.657853 316.923715 
L 622.72711 314.813365 
L 627.796367 312.084455 
L 632.865625 305.360827 
" clip-path="url(#p39d0e6f651)" style="fill: none; stroke: #ff7f0e; stroke-linecap: square"/>
   </g>
   <g id="line2d_59">
    <path d="M 74.865625 485.049843 
L 79.717861 485.087295 
L 85.226933 485.025237 
L 89.931602 485.069787 
L 95.451402 485.065521 
L 100.560059 485.071047 
L 105.649504 485.066704 
L 110.626644 485.062955 
L 115.686045 483.810716 
L 120.698375 483.817005 
L 125.76583 483.804365 
L 130.922845 483.802916 
L 136.031502 483.80687 
L 141.120946 482.774407 
L 146.194037 482.758144 
L 151.239539 482.746167 
L 156.310199 482.783629 
L 161.417148 481.624718 
L 166.445497 481.617576 
L 171.546665 481.606648 
L 176.629737 481.592569 
L 181.6974 481.628484 
L 186.765568 480.040801 
L 191.8283 480.024215 
L 196.908515 480.028537 
L 201.968068 480.026186 
L 207.047222 478.271449 
L 212.11362 478.302024 
L 217.179476 478.301585 
L 222.255185 478.205961 
L 227.323046 477.143769 
L 232.393234 477.174239 
L 237.462208 477.127157 
L 242.528364 477.151542 
L 247.601641 477.161024 
L 252.668633 475.974978 
L 257.738739 475.973212 
L 262.807428 475.978362 
L 267.877947 475.982183 
L 272.946884 474.641496 
L 278.01758 474.646832 
L 283.085513 474.590328 
L 288.15542 474.638522 
L 293.225314 474.624867 
L 298.294391 473.469489 
L 303.363392 473.47459 
L 308.432814 473.461645 
L 313.501943 473.478603 
L 318.571219 472.095669 
L 323.640627 472.202202 
L 328.709865 472.187636 
L 333.779336 472.19698 
L 338.848585 470.714925 
L 343.917898 470.634002 
L 348.987197 470.867128 
L 354.05646 470.847874 
L 359.125697 470.823983 
L 364.194971 469.170768 
L 369.26418 469.110491 
L 374.333445 469.003365 
L 379.402696 468.72742 
L 384.471968 466.18515 
L 389.541235 465.742098 
L 394.6105 465.570333 
L 399.679773 465.283797 
L 404.749018 464.952759 
L 409.818299 463.420497 
L 414.887559 463.109464 
L 419.956812 462.980774 
L 425.026073 462.739789 
L 430.095326 457.490045 
L 435.164582 457.290059 
L 440.23384 454.961296 
L 445.303103 453.704963 
L 450.372362 450.865583 
L 455.441618 437.10667 
L 460.510876 435.057502 
L 465.580132 429.910381 
L 470.649389 428.244943 
L 475.718649 424.069885 
L 480.787907 421.270201 
L 485.857165 418.239364 
L 490.926423 415.859532 
L 495.995678 411.586054 
L 501.064936 409.883493 
L 506.134192 406.931832 
L 511.20345 404.513824 
L 516.272707 402.526915 
L 521.341964 399.051042 
L 526.411223 396.98057 
L 531.480481 395.45013 
L 536.549739 393.710269 
L 541.618998 390.543475 
L 546.688254 388.15423 
L 551.757511 386.195614 
L 556.826767 384.947299 
L 561.896024 383.615564 
L 566.965282 380.898597 
L 572.034539 378.384192 
L 577.103797 377.135232 
L 582.173056 375.561567 
L 587.242311 372.651517 
L 592.311567 370.243614 
L 597.380824 367.899067 
L 602.450082 366.085879 
L 607.519338 361.582946 
L 612.588595 359.499702 
L 617.657853 358.548124 
L 622.72711 357.218654 
L 627.796367 356.274 
L 632.865625 351.301932 
" clip-path="url(#p39d0e6f651)" style="fill: none; stroke: #ff7f0e; stroke-linecap: square"/>
   </g>
   <g id="line2d_60">
    <path d="M 74.865625 486.050351 
L 79.717861 486.055849 
L 85.226933 486.04455 
L 89.931602 486.040722 
L 95.451402 486.036805 
L 100.560059 486.061775 
L 105.649504 485.996191 
L 110.626644 486.060862 
L 115.686045 484.559982 
L 120.698375 484.571523 
L 125.76583 484.578379 
L 130.922845 484.53178 
L 136.031502 484.53806 
L 141.120946 483.3423 
L 146.194037 483.329108 
L 151.239539 483.35827 
L 156.310199 483.326708 
L 161.417148 481.918853 
L 166.445497 481.941624 
L 171.546665 481.884184 
L 176.629737 481.873383 
L 181.6974 481.871331 
L 186.765568 481.093111 
L 191.8283 481.073296 
L 196.908515 481.083032 
L 201.968068 481.095265 
L 207.047222 480.00062 
L 212.11362 480.027945 
L 217.179476 480.024163 
L 222.255185 480.001954 
L 227.323046 478.893529 
L 232.393234 478.849198 
L 237.462208 478.835122 
L 242.528364 478.961242 
L 247.601641 478.952047 
L 252.668633 478.206904 
L 257.738739 478.219242 
L 262.807428 478.183354 
L 267.877947 478.250268 
L 272.946884 477.091834 
L 278.01758 477.155273 
L 283.085513 477.154117 
L 288.15542 477.087956 
L 293.225314 477.013161 
L 298.294391 476.049943 
L 303.363392 476.052794 
L 308.432814 476.043308 
L 313.501943 476.047344 
L 318.571219 474.977649 
L 323.640627 474.94801 
L 328.709865 474.969824 
L 333.779336 474.919727 
L 338.848585 473.925027 
L 343.917898 473.826015 
L 348.987197 473.838265 
L 354.05646 473.817656 
L 359.125697 473.775842 
L 364.194971 472.436975 
L 369.26418 472.333465 
L 374.333445 472.221586 
L 379.402696 471.994115 
L 384.471968 470.421648 
L 389.541235 469.793938 
L 394.6105 469.492399 
L 399.679773 469.168932 
L 404.749018 468.801513 
L 409.818299 467.613938 
L 414.887559 466.917872 
L 419.956812 466.587339 
L 425.026073 465.948391 
L 430.095326 463.049368 
L 435.164582 462.410123 
L 440.23384 460.918291 
L 445.303103 458.913072 
L 450.372362 457.417432 
L 455.441618 449.355403 
L 460.510876 446.050752 
L 465.580132 439.376505 
L 470.649389 437.836765 
L 475.718649 436.720746 
L 480.787907 432.187176 
L 485.857165 428.351301 
L 490.926423 425.168552 
L 495.995678 424.837663 
L 501.064936 420.080119 
L 506.134192 415.492031 
L 511.20345 412.711787 
L 516.272707 410.588938 
L 521.341964 410.00186 
L 526.411223 406.767866 
L 531.480481 404.809229 
L 536.549739 403.657112 
L 541.618998 403.512381 
L 546.688254 402.06453 
L 551.757511 400.603982 
L 556.826767 399.829347 
L 561.896024 399.108063 
L 566.965282 398.182085 
L 572.034539 397.508156 
L 577.103797 396.562103 
L 582.173056 396.182472 
L 587.242311 395.003476 
L 592.311567 394.034549 
L 597.380824 393.730355 
L 602.450082 393.525481 
L 607.519338 390.613582 
L 612.588595 390.21915 
L 617.657853 390.566181 
L 622.72711 389.638633 
L 627.796367 389.413743 
L 632.865625 384.776722 
" clip-path="url(#p39d0e6f651)" style="fill: none; stroke: #1f77b4; stroke-linecap: square"/>
   </g>
   <g id="line2d_61">
    <path d="M 74.865625 484.719382 
L 79.717861 484.711369 
L 85.226933 484.712177 
L 89.931602 484.726515 
L 95.451402 484.71884 
L 100.560059 484.693869 
L 105.649504 484.724356 
L 110.626644 484.710606 
L 115.686045 483.051002 
L 120.698375 483.058021 
L 125.76583 483.04617 
L 130.922845 483.043158 
L 136.031502 483.06527 
L 141.120946 481.859944 
L 146.194037 481.858921 
L 151.239539 481.852596 
L 156.310199 481.788155 
L 161.417148 480.639618 
L 166.445497 480.624895 
L 171.546665 480.65053 
L 176.629737 480.649749 
L 181.6974 480.649002 
L 186.765568 479.462298 
L 191.8283 479.46249 
L 196.908515 479.46667 
L 201.968068 479.435821 
L 207.047222 478.243388 
L 212.11362 478.259956 
L 217.179476 478.258869 
L 222.255185 478.232418 
L 227.323046 477.060934 
L 232.393234 477.050984 
L 237.462208 477.044829 
L 242.528364 477.054483 
L 247.601641 477.049857 
L 252.668633 475.847159 
L 257.738739 475.852906 
L 262.807428 475.836473 
L 267.877947 475.83196 
L 272.946884 474.637214 
L 278.01758 474.633926 
L 283.085513 474.580974 
L 288.15542 474.611524 
L 293.225314 474.611362 
L 298.294391 473.406534 
L 303.363392 473.403947 
L 308.432814 473.391954 
L 313.501943 473.410949 
L 318.571219 472.174176 
L 323.640627 472.150662 
L 328.709865 472.138181 
L 333.779336 472.125099 
L 338.848585 470.862021 
L 343.917898 470.858769 
L 348.987197 470.828317 
L 354.05646 470.812213 
L 359.125697 470.76045 
L 364.194971 469.292644 
L 369.26418 469.071685 
L 374.333445 469.052667 
L 379.402696 468.894733 
L 384.471968 467.225209 
L 389.541235 466.848091 
L 394.6105 466.456489 
L 399.679773 466.255949 
L 404.749018 465.997902 
L 409.818299 464.781139 
L 414.887559 464.489095 
L 419.956812 464.321797 
L 425.026073 463.852581 
L 430.095326 461.817733 
L 435.164582 460.975277 
L 440.23384 460.385512 
L 445.303103 459.607935 
L 450.372362 458.324278 
L 455.441618 452.866205 
L 460.510876 450.363383 
L 465.580132 443.380149 
L 470.649389 441.821285 
L 475.718649 441.323088 
L 480.787907 435.775393 
L 485.857165 432.416425 
L 490.926423 430.970702 
L 495.995678 434.839625 
L 501.064936 430.975425 
L 506.134192 428.339326 
L 511.20345 425.925435 
L 516.272707 424.21581 
L 521.341964 425.393812 
L 526.411223 421.48986 
L 531.480481 418.915261 
L 536.549739 417.486224 
L 541.618998 420.302843 
L 546.688254 417.554782 
L 551.757511 415.713124 
L 556.826767 414.707657 
L 561.896024 412.74843 
L 566.965282 413.127234 
L 572.034539 411.334288 
L 577.103797 409.091854 
L 582.173056 407.116625 
L 587.242311 405.430611 
L 592.311567 403.621293 
L 597.380824 401.695076 
L 602.450082 399.459187 
L 607.519338 398.626907 
L 612.588595 396.411337 
L 617.657853 395.404856 
L 622.72711 393.556537 
L 627.796367 391.38429 
L 632.865625 390.259453 
" clip-path="url(#p39d0e6f651)" style="fill: none; stroke: #e377c2; stroke-linecap: square"/>
   </g>
   <g id="line2d_62">
    <path d="M 74.865625 482.712271 
L 79.717861 482.611696 
L 85.226933 482.687728 
L 89.931602 482.713682 
L 95.451402 482.700899 
L 100.560059 482.701353 
L 105.649504 482.702331 
L 110.626644 482.692842 
L 115.686045 480.414727 
L 120.698375 480.415456 
L 125.76583 480.377392 
L 130.922845 480.402979 
L 136.031502 480.387136 
L 141.120946 477.992842 
L 146.194037 478.068346 
L 151.239539 478.073603 
L 156.310199 478.064648 
L 161.417148 475.723107 
L 166.445497 475.719571 
L 171.546665 475.729129 
L 176.629737 475.735417 
L 181.6974 475.713034 
L 186.765568 473.377041 
L 191.8283 473.374208 
L 196.908515 473.365527 
L 201.968068 473.365316 
L 207.047222 471.012221 
L 212.11362 471.027509 
L 217.179476 471.040376 
L 222.255185 471.024449 
L 227.323046 468.700462 
L 232.393234 468.693381 
L 237.462208 468.685182 
L 242.528364 468.664866 
L 247.601641 468.679956 
L 252.668633 466.138703 
L 257.738739 466.117278 
L 262.807428 466.182024 
L 267.877947 466.161534 
L 272.946884 463.792623 
L 278.01758 463.805337 
L 283.085513 463.804401 
L 288.15542 463.816027 
L 293.225314 463.774638 
L 298.294391 461.428819 
L 303.363392 461.406064 
L 308.432814 461.451986 
L 313.501943 461.441162 
L 318.571219 458.961677 
L 323.640627 458.945928 
L 328.709865 458.926181 
L 333.779336 458.90408 
L 338.848585 456.506138 
L 343.917898 456.512639 
L 348.987197 456.51279 
L 354.05646 456.502453 
L 359.125697 456.514985 
L 364.194971 453.945817 
L 369.26418 453.942139 
L 374.333445 453.896528 
L 379.402696 453.952227 
L 384.471968 451.235016 
L 389.541235 451.144722 
L 394.6105 451.129869 
L 399.679773 451.11098 
L 404.749018 451.033987 
L 409.818299 448.602361 
L 414.887559 448.506371 
L 419.956812 448.51242 
L 425.026073 448.435768 
L 430.095326 445.797156 
L 435.164582 445.452809 
L 440.23384 444.890455 
L 445.303103 444.669583 
L 450.372362 444.32093 
L 455.441618 439.045801 
L 460.510876 437.501514 
L 465.580132 430.334954 
L 470.649389 428.343901 
L 475.718649 428.320928 
L 480.787907 425.034433 
L 485.857165 422.835985 
L 490.926423 419.223546 
L 495.995678 419.795974 
L 501.064936 419.029066 
L 506.134192 414.921041 
L 511.20345 410.510153 
L 516.272707 408.071165 
L 521.341964 411.552562 
L 526.411223 409.109327 
L 531.480481 405.524565 
L 536.549739 403.501843 
L 541.618998 405.367627 
L 546.688254 403.338572 
L 551.757511 401.987616 
L 556.826767 400.563522 
L 561.896024 398.407691 
L 566.965282 396.450835 
L 572.034539 395.28866 
L 577.103797 393.635419 
L 582.173056 391.427168 
L 587.242311 388.536214 
L 592.311567 387.363264 
L 597.380824 386.398443 
L 602.450082 384.633922 
L 607.519338 380.357346 
L 612.588595 379.972426 
L 617.657853 380.117944 
L 622.72711 378.518336 
L 627.796367 376.007386 
L 632.865625 371.769035 
" clip-path="url(#p39d0e6f651)" style="fill: none; stroke: #e377c2; stroke-linecap: square"/>
   </g>
   <g id="line2d_63">
    <path d="M 74.865625 482.777063 
L 79.717861 482.777785 
L 85.226933 482.785546 
L 89.931602 482.780663 
L 95.451402 482.788684 
L 100.560059 482.698281 
L 105.649504 482.78395 
L 110.626644 482.788088 
L 115.686045 480.438215 
L 120.698375 480.486504 
L 125.76583 480.473854 
L 130.922845 480.452843 
L 136.031502 480.481227 
L 141.120946 478.135002 
L 146.194037 478.136329 
L 151.239539 478.075141 
L 156.310199 478.136417 
L 161.417148 475.758221 
L 166.445497 475.779247 
L 171.546665 475.779665 
L 176.629737 475.769325 
L 181.6974 475.767232 
L 186.765568 473.293986 
L 191.8283 473.27141 
L 196.908515 473.317416 
L 201.968068 473.313057 
L 207.047222 470.962321 
L 212.11362 470.941846 
L 217.179476 470.914165 
L 222.255185 470.929266 
L 227.323046 468.594181 
L 232.393234 468.513062 
L 237.462208 468.596892 
L 242.528364 468.621648 
L 247.601641 468.613016 
L 252.668633 466.266426 
L 257.738739 466.24587 
L 262.807428 466.268237 
L 267.877947 466.271095 
L 272.946884 463.73984 
L 278.01758 463.650807 
L 283.085513 463.714957 
L 288.15542 463.773604 
L 293.225314 463.751725 
L 298.294391 461.203062 
L 303.363392 461.176617 
L 308.432814 461.137691 
L 313.501943 461.10588 
L 318.571219 458.370204 
L 323.640627 458.322208 
L 328.709865 458.267301 
L 333.779336 458.181986 
L 338.848585 455.5477 
L 343.917898 455.414494 
L 348.987197 455.446938 
L 354.05646 455.35095 
L 359.125697 455.226253 
L 364.194971 452.065216 
L 369.26418 452.127945 
L 374.333445 451.821081 
L 379.402696 451.878782 
L 384.471968 448.83478 
L 389.541235 448.795804 
L 394.6105 448.341277 
L 399.679773 448.177071 
L 404.749018 447.94121 
L 409.818299 445.955978 
L 414.887559 445.551892 
L 419.956812 445.290694 
L 425.026073 445.181296 
L 430.095326 442.3347 
L 435.164582 442.40099 
L 440.23384 441.452813 
L 445.303103 440.265167 
L 450.372362 440.203623 
L 455.441618 434.21512 
L 460.510876 432.681395 
L 465.580132 425.625411 
L 470.649389 424.154356 
L 475.718649 425.312628 
L 480.787907 422.044671 
L 485.857165 419.505416 
L 490.926423 415.469077 
L 495.995678 417.12156 
L 501.064936 416.702216 
L 506.134192 413.059997 
L 511.20345 409.753292 
L 516.272707 407.816796 
L 521.341964 410.217027 
L 526.411223 409.296451 
L 531.480481 407.456965 
L 536.549739 404.60578 
L 541.618998 402.850244 
L 546.688254 402.49491 
L 551.757511 401.312125 
L 556.826767 399.232722 
L 561.896024 395.665856 
L 566.965282 395.363165 
L 572.034539 394.487552 
L 577.103797 391.610445 
L 582.173056 388.815059 
L 587.242311 387.298983 
L 592.311567 386.183764 
L 597.380824 384.822971 
L 602.450082 384.272858 
L 607.519338 379.421511 
L 612.588595 379.930954 
L 617.657853 380.227339 
L 622.72711 378.042264 
L 627.796367 374.526006 
L 632.865625 371.392374 
" clip-path="url(#p39d0e6f651)" style="fill: none; stroke: #7f7f7f; stroke-linecap: square"/>
   </g>
   <g id="line2d_64">
    <path d="M 74.865625 483.05835 
L 79.717861 483.051678 
L 85.226933 483.06686 
L 89.931602 483.06917 
L 95.451402 483.053625 
L 100.560059 483.068894 
L 105.649504 483.080681 
L 110.626644 483.074508 
L 115.686045 480.676051 
L 120.698375 480.633661 
L 125.76583 480.671237 
L 130.922845 480.656878 
L 136.031502 480.645934 
L 141.120946 478.22005 
L 146.194037 478.200657 
L 151.239539 478.208514 
L 156.310199 478.230924 
L 161.417148 475.7844 
L 166.445497 475.755725 
L 171.546665 475.759953 
L 176.629737 475.786335 
L 181.6974 475.769902 
L 186.765568 473.410484 
L 191.8283 473.394388 
L 196.908515 473.40917 
L 201.968068 473.390314 
L 207.047222 470.998084 
L 212.11362 471.044213 
L 217.179476 471.022517 
L 222.255185 471.016196 
L 227.323046 468.621987 
L 232.393234 468.613389 
L 237.462208 468.548702 
L 242.528364 468.602433 
L 247.601641 468.661064 
L 252.668633 466.212373 
L 257.738739 466.237406 
L 262.807428 466.247637 
L 267.877947 466.252396 
L 272.946884 463.44005 
L 278.01758 463.448444 
L 283.085513 463.623709 
L 288.15542 463.669485 
L 293.225314 463.663684 
L 298.294391 460.957767 
L 303.363392 460.656136 
L 308.432814 460.828336 
L 313.501943 460.599142 
L 318.571219 457.87146 
L 323.640627 457.831439 
L 328.709865 457.736133 
L 333.779336 457.604208 
L 338.848585 455.054502 
L 343.917898 455.123305 
L 348.987197 454.867957 
L 354.05646 454.722782 
L 359.125697 454.608219 
L 364.194971 451.985677 
L 369.26418 451.86866 
L 374.333445 451.834427 
L 379.402696 451.582632 
L 384.471968 449.218347 
L 389.541235 448.9612 
L 394.6105 448.743827 
L 399.679773 448.551816 
L 404.749018 448.360847 
L 409.818299 446.165565 
L 414.887559 446.078165 
L 419.956812 445.860004 
L 425.026073 445.829561 
L 430.095326 443.32489 
L 435.164582 442.969192 
L 440.23384 441.859283 
L 445.303103 441.292215 
L 450.372362 440.7515 
L 455.441618 435.865402 
L 460.510876 434.341566 
L 465.580132 426.912779 
L 470.649389 425.362756 
L 475.718649 426.933778 
L 480.787907 424.025685 
L 485.857165 421.359402 
L 490.926423 417.04107 
L 495.995678 418.333391 
L 501.064936 418.570439 
L 506.134192 414.628945 
L 511.20345 411.467045 
L 516.272707 409.088391 
L 521.341964 411.245456 
L 526.411223 410.46573 
L 531.480481 408.846316 
L 536.549739 405.861627 
L 541.618998 403.974659 
L 546.688254 403.647354 
L 551.757511 402.422751 
L 556.826767 400.136641 
L 561.896024 396.393449 
L 566.965282 396.607814 
L 572.034539 395.801111 
L 577.103797 393.387189 
L 582.173056 389.954569 
L 587.242311 388.433436 
L 592.311567 388.325983 
L 597.380824 386.976791 
L 602.450082 384.618394 
L 607.519338 380.264197 
L 612.588595 380.346815 
L 617.657853 380.851554 
L 622.72711 378.589791 
L 627.796367 375.403535 
L 632.865625 372.415372 
" clip-path="url(#p39d0e6f651)" style="fill: none; stroke: #2ca02c; stroke-linecap: square"/>
   </g>
   <g id="line2d_65"/>
   <g id="line2d_66"/>
   <g id="line2d_67"/>
   <g id="line2d_68"/>
   <g id="line2d_69"/>
   <g id="line2d_70"/>
   <g id="line2d_71"/>
   <g id="line2d_72"/>
   <g id="patch_5">
    <path d="M 46.965625 494.114688 
L 46.965625 50.594688 
" style="fill: none; stroke: #000000; stroke-width: 0.8; stroke-linejoin: miter; stroke-linecap: square"/>
   </g>
   <g id="patch_6">
    <path d="M 660.765625 494.114688 
L 660.765625 50.594688 
" style="fill: none; stroke: #000000; stroke-width: 0.8; stroke-linejoin: miter; stroke-linecap: square"/>
   </g>
   <g id="patch_7">
    <path d="M 46.965625 494.114688 
L 660.765625 494.114688 
" style="fill: none; stroke: #000000; stroke-width: 0.8; stroke-linejoin: miter; stroke-linecap: square"/>
   </g>
   <g id="patch_8">
    <path d="M 46.965625 50.594688 
L 660.765625 50.594688 
" style="fill: none; stroke: #000000; stroke-width: 0.8; stroke-linejoin: miter; stroke-linecap: square"/>
   </g>
   <g id="text_38">
    <!-- L1  -->
    <g style="fill: #ff0000" transform="translate(278.865447 492.035) scale(0.1 -0.1)">
     <defs>
      <path id="DejaVuSans-4c" d="M 628 4666 
L 1259 4666 
L 1259 531 
L 3531 531 
L 3531 0 
L 628 0 
L 628 4666 
z
" transform="scale(0.015625)"/>
     </defs>
     <use xlink:href="#DejaVuSans-4c"/>
     <use xlink:href="#DejaVuSans-31" x="55.712891"/>
     <use xlink:href="#DejaVuSans-20" x="119.335938"/>
    </g>
   </g>
   <g id="text_39">
    <!-- L2  -->
    <g style="fill: #ff0000" transform="translate(368.385401 492.035) scale(0.1 -0.1)">
     <use xlink:href="#DejaVuSans-4c"/>
     <use xlink:href="#DejaVuSans-32" x="55.712891"/>
     <use xlink:href="#DejaVuSans-20" x="119.335938"/>
    </g>
   </g>
   <g id="text_40">
    <!-- L3  -->
    <g style="fill: #ff0000" transform="translate(435.525367 492.035) scale(0.1 -0.1)">
     <use xlink:href="#DejaVuSans-4c"/>
     <use xlink:href="#DejaVuSans-33" x="55.712891"/>
     <use xlink:href="#DejaVuSans-20" x="119.335938"/>
    </g>
   </g>
   <g id="text_41">
    <!-- RAM -->
    <g style="fill: #ff0000" transform="translate(610.848438 492.035) scale(0.1 -0.1)">
     <defs>
      <path id="DejaVuSans-52" d="M 2841 2188 
Q 3044 2119 3236 1894 
Q 3428 1669 3622 1275 
L 4263 0 
L 3584 0 
L 2988 1197 
Q 2756 1666 2539 1819 
Q 2322 1972 1947 1972 
L 1259 1972 
L 1259 0 
L 628 0 
L 628 4666 
L 2053 4666 
Q 2853 4666 3247 4331 
Q 3641 3997 3641 3322 
Q 3641 2881 3436 2590 
Q 3231 2300 2841 2188 
z
M 1259 4147 
L 1259 2491 
L 2053 2491 
Q 2509 2491 2742 2702 
Q 2975 2913 2975 3322 
Q 2975 3731 2742 3939 
Q 2509 4147 2053 4147 
L 1259 4147 
z
" transform="scale(0.015625)"/>
      <path id="DejaVuSans-4d" d="M 628 4666 
L 1569 4666 
L 2759 1491 
L 3956 4666 
L 4897 4666 
L 4897 0 
L 4281 0 
L 4281 4097 
L 3078 897 
L 2444 897 
L 1241 4097 
L 1241 0 
L 628 0 
L 628 4666 
z
" transform="scale(0.015625)"/>
     </defs>
     <use xlink:href="#DejaVuSans-52"/>
     <use xlink:href="#DejaVuSans-41" x="65.482422"/>
     <use xlink:href="#DejaVuSans-4d" x="133.890625"/>
    </g>
   </g>
   <g id="text_42">
    <!-- Eytzinger layout with batching -->
    <g transform="translate(262.196875 16.318125) scale(0.12 -0.12)">
     <defs>
      <path id="DejaVuSans-45" d="M 628 4666 
L 3578 4666 
L 3578 4134 
L 1259 4134 
L 1259 2753 
L 3481 2753 
L 3481 2222 
L 1259 2222 
L 1259 531 
L 3634 531 
L 3634 0 
L 628 0 
L 628 4666 
z
" transform="scale(0.015625)"/>
      <path id="DejaVuSans-77" d="M 269 3500 
L 844 3500 
L 1563 769 
L 2278 3500 
L 2956 3500 
L 3675 769 
L 4391 3500 
L 4966 3500 
L 4050 0 
L 3372 0 
L 2619 2869 
L 1863 0 
L 1184 0 
L 269 3500 
z
" transform="scale(0.015625)"/>
      <path id="DejaVuSans-63" d="M 3122 3366 
L 3122 2828 
Q 2878 2963 2633 3030 
Q 2388 3097 2138 3097 
Q 1578 3097 1268 2742 
Q 959 2388 959 1747 
Q 959 1106 1268 751 
Q 1578 397 2138 397 
Q 2388 397 2633 464 
Q 2878 531 3122 666 
L 3122 134 
Q 2881 22 2623 -34 
Q 2366 -91 2075 -91 
Q 1284 -91 818 406 
Q 353 903 353 1747 
Q 353 2603 823 3093 
Q 1294 3584 2113 3584 
Q 2378 3584 2631 3529 
Q 2884 3475 3122 3366 
z
" transform="scale(0.015625)"/>
     </defs>
     <use xlink:href="#DejaVuSans-45"/>
     <use xlink:href="#DejaVuSans-79" x="63.183594"/>
     <use xlink:href="#DejaVuSans-74" x="122.363281"/>
     <use xlink:href="#DejaVuSans-7a" x="161.572266"/>
     <use xlink:href="#DejaVuSans-69" x="214.0625"/>
     <use xlink:href="#DejaVuSans-6e" x="241.845703"/>
     <use xlink:href="#DejaVuSans-67" x="305.224609"/>
     <use xlink:href="#DejaVuSans-65" x="368.701172"/>
     <use xlink:href="#DejaVuSans-72" x="430.224609"/>
     <use xlink:href="#DejaVuSans-20" x="471.337891"/>
     <use xlink:href="#DejaVuSans-6c" x="503.125"/>
     <use xlink:href="#DejaVuSans-61" x="530.908203"/>
     <use xlink:href="#DejaVuSans-79" x="592.1875"/>
     <use xlink:href="#DejaVuSans-6f" x="651.367188"/>
     <use xlink:href="#DejaVuSans-75" x="712.548828"/>
     <use xlink:href="#DejaVuSans-74" x="775.927734"/>
     <use xlink:href="#DejaVuSans-20" x="815.136719"/>
     <use xlink:href="#DejaVuSans-77" x="846.923828"/>
     <use xlink:href="#DejaVuSans-69" x="928.710938"/>
     <use xlink:href="#DejaVuSans-74" x="956.494141"/>
     <use xlink:href="#DejaVuSans-68" x="995.703125"/>
     <use xlink:href="#DejaVuSans-20" x="1059.082031"/>
     <use xlink:href="#DejaVuSans-62" x="1090.869141"/>
     <use xlink:href="#DejaVuSans-61" x="1154.345703"/>
     <use xlink:href="#DejaVuSans-74" x="1215.625"/>
     <use xlink:href="#DejaVuSans-63" x="1254.833984"/>
     <use xlink:href="#DejaVuSans-68" x="1309.814453"/>
     <use xlink:href="#DejaVuSans-69" x="1373.193359"/>
     <use xlink:href="#DejaVuSans-6e" x="1400.976562"/>
     <use xlink:href="#DejaVuSans-67" x="1464.355469"/>
    </g>
   </g>
   <g id="legend_1">
    <g id="patch_9">
     <path d="M 53.965625 163.288438 
L 439.365625 163.288438 
Q 441.365625 163.288438 441.365625 161.288438 
L 441.365625 57.594688 
Q 441.365625 55.594688 439.365625 55.594688 
L 53.965625 55.594688 
Q 51.965625 55.594688 51.965625 57.594688 
L 51.965625 161.288438 
Q 51.965625 163.288438 53.965625 163.288438 
L 53.965625 163.288438 
z
" style="fill: none; opacity: 0"/>
    </g>
    <g id="line2d_73">
     <path d="M 55.965625 63.693125 
L 65.965625 63.693125 
L 75.965625 63.693125 
" style="fill: none; stroke: #ff7f0e; stroke-width: 1.5; stroke-linecap: square"/>
    </g>
    <g id="text_43">
     <!-- Batched&lt;2, Eytzinger, Eytzinger::batch_impl_prefetched&lt;2, 4&gt;&gt; -->
     <g transform="translate(83.965625 67.193125) scale(0.1 -0.1)">
      <defs>
       <path id="DejaVuSans-42" d="M 1259 2228 
L 1259 519 
L 2272 519 
Q 2781 519 3026 730 
Q 3272 941 3272 1375 
Q 3272 1813 3026 2020 
Q 2781 2228 2272 2228 
L 1259 2228 
z
M 1259 4147 
L 1259 2741 
L 2194 2741 
Q 2656 2741 2882 2914 
Q 3109 3088 3109 3444 
Q 3109 3797 2882 3972 
Q 2656 4147 2194 4147 
L 1259 4147 
z
M 628 4666 
L 2241 4666 
Q 2963 4666 3353 4366 
Q 3744 4066 3744 3513 
Q 3744 3084 3544 2831 
Q 3344 2578 2956 2516 
Q 3422 2416 3680 2098 
Q 3938 1781 3938 1306 
Q 3938 681 3513 340 
Q 3088 0 2303 0 
L 628 0 
L 628 4666 
z
" transform="scale(0.015625)"/>
       <path id="DejaVuSans-64" d="M 2906 2969 
L 2906 4863 
L 3481 4863 
L 3481 0 
L 2906 0 
L 2906 525 
Q 2725 213 2448 61 
Q 2172 -91 1784 -91 
Q 1150 -91 751 415 
Q 353 922 353 1747 
Q 353 2572 751 3078 
Q 1150 3584 1784 3584 
Q 2172 3584 2448 3432 
Q 2725 3281 2906 2969 
z
M 947 1747 
Q 947 1113 1208 752 
Q 1469 391 1925 391 
Q 2381 391 2643 752 
Q 2906 1113 2906 1747 
Q 2906 2381 2643 2742 
Q 2381 3103 1925 3103 
Q 1469 3103 1208 2742 
Q 947 2381 947 1747 
z
" transform="scale(0.015625)"/>
       <path id="DejaVuSans-3c" d="M 4684 3150 
L 1459 2003 
L 4684 863 
L 4684 294 
L 678 1747 
L 678 2266 
L 4684 3719 
L 4684 3150 
z
" transform="scale(0.015625)"/>
       <path id="DejaVuSans-2c" d="M 750 794 
L 1409 794 
L 1409 256 
L 897 -744 
L 494 -744 
L 750 256 
L 750 794 
z
" transform="scale(0.015625)"/>
       <path id="DejaVuSans-3a" d="M 750 794 
L 1409 794 
L 1409 0 
L 750 0 
L 750 794 
z
M 750 3309 
L 1409 3309 
L 1409 2516 
L 750 2516 
L 750 3309 
z
" transform="scale(0.015625)"/>
       <path id="DejaVuSans-5f" d="M 3263 -1063 
L 3263 -1509 
L -63 -1509 
L -63 -1063 
L 3263 -1063 
z
" transform="scale(0.015625)"/>
       <path id="DejaVuSans-6d" d="M 3328 2828 
Q 3544 3216 3844 3400 
Q 4144 3584 4550 3584 
Q 5097 3584 5394 3201 
Q 5691 2819 5691 2113 
L 5691 0 
L 5113 0 
L 5113 2094 
Q 5113 2597 4934 2840 
Q 4756 3084 4391 3084 
Q 3944 3084 3684 2787 
Q 3425 2491 3425 1978 
L 3425 0 
L 2847 0 
L 2847 2094 
Q 2847 2600 2669 2842 
Q 2491 3084 2119 3084 
Q 1678 3084 1418 2786 
Q 1159 2488 1159 1978 
L 1159 0 
L 581 0 
L 581 3500 
L 1159 3500 
L 1159 2956 
Q 1356 3278 1631 3431 
Q 1906 3584 2284 3584 
Q 2666 3584 2933 3390 
Q 3200 3197 3328 2828 
z
" transform="scale(0.015625)"/>
       <path id="DejaVuSans-66" d="M 2375 4863 
L 2375 4384 
L 1825 4384 
Q 1516 4384 1395 4259 
Q 1275 4134 1275 3809 
L 1275 3500 
L 2222 3500 
L 2222 3053 
L 1275 3053 
L 1275 0 
L 697 0 
L 697 3053 
L 147 3053 
L 147 3500 
L 697 3500 
L 697 3744 
Q 697 4328 969 4595 
Q 1241 4863 1831 4863 
L 2375 4863 
z
" transform="scale(0.015625)"/>
       <path id="DejaVuSans-3e" d="M 678 3150 
L 678 3719 
L 4684 2266 
L 4684 1747 
L 678 294 
L 678 863 
L 3897 2003 
L 678 3150 
z
" transform="scale(0.015625)"/>
      </defs>
      <use xlink:href="#DejaVuSans-42"/>
      <use xlink:href="#DejaVuSans-61" x="68.603516"/>
      <use xlink:href="#DejaVuSans-74" x="129.882812"/>
      <use xlink:href="#DejaVuSans-63" x="169.091797"/>
      <use xlink:href="#DejaVuSans-68" x="224.072266"/>
      <use xlink:href="#DejaVuSans-65" x="287.451172"/>
      <use xlink:href="#DejaVuSans-64" x="348.974609"/>
      <use xlink:href="#DejaVuSans-3c" x="412.451172"/>
      <use xlink:href="#DejaVuSans-32" x="496.240234"/>
      <use xlink:href="#DejaVuSans-2c" x="559.863281"/>
      <use xlink:href="#DejaVuSans-20" x="591.650391"/>
      <use xlink:href="#DejaVuSans-45" x="623.4375"/>
      <use xlink:href="#DejaVuSans-79" x="686.621094"/>
      <use xlink:href="#DejaVuSans-74" x="745.800781"/>
      <use xlink:href="#DejaVuSans-7a" x="785.009766"/>
      <use xlink:href="#DejaVuSans-69" x="837.5"/>
      <use xlink:href="#DejaVuSans-6e" x="865.283203"/>
      <use xlink:href="#DejaVuSans-67" x="928.662109"/>
      <use xlink:href="#DejaVuSans-65" x="992.138672"/>
      <use xlink:href="#DejaVuSans-72" x="1053.662109"/>
      <use xlink:href="#DejaVuSans-2c" x="1094.775391"/>
      <use xlink:href="#DejaVuSans-20" x="1126.5625"/>
      <use xlink:href="#DejaVuSans-45" x="1158.349609"/>
      <use xlink:href="#DejaVuSans-79" x="1221.533203"/>
      <use xlink:href="#DejaVuSans-74" x="1280.712891"/>
      <use xlink:href="#DejaVuSans-7a" x="1319.921875"/>
      <use xlink:href="#DejaVuSans-69" x="1372.412109"/>
      <use xlink:href="#DejaVuSans-6e" x="1400.195312"/>
      <use xlink:href="#DejaVuSans-67" x="1463.574219"/>
      <use xlink:href="#DejaVuSans-65" x="1527.050781"/>
      <use xlink:href="#DejaVuSans-72" x="1588.574219"/>
      <use xlink:href="#DejaVuSans-3a" x="1627.9375"/>
      <use xlink:href="#DejaVuSans-3a" x="1661.628906"/>
      <use xlink:href="#DejaVuSans-62" x="1695.320312"/>
      <use xlink:href="#DejaVuSans-61" x="1758.796875"/>
      <use xlink:href="#DejaVuSans-74" x="1820.076172"/>
      <use xlink:href="#DejaVuSans-63" x="1859.285156"/>
      <use xlink:href="#DejaVuSans-68" x="1914.265625"/>
      <use xlink:href="#DejaVuSans-5f" x="1977.644531"/>
      <use xlink:href="#DejaVuSans-69" x="2027.644531"/>
      <use xlink:href="#DejaVuSans-6d" x="2055.427734"/>
      <use xlink:href="#DejaVuSans-70" x="2152.839844"/>
      <use xlink:href="#DejaVuSans-6c" x="2216.316406"/>
      <use xlink:href="#DejaVuSans-5f" x="2244.099609"/>
      <use xlink:href="#DejaVuSans-70" x="2294.099609"/>
      <use xlink:href="#DejaVuSans-72" x="2357.576172"/>
      <use xlink:href="#DejaVuSans-65" x="2396.439453"/>
      <use xlink:href="#DejaVuSans-66" x="2457.962891"/>
      <use xlink:href="#DejaVuSans-65" x="2493.167969"/>
      <use xlink:href="#DejaVuSans-74" x="2554.691406"/>
      <use xlink:href="#DejaVuSans-63" x="2593.900391"/>
      <use xlink:href="#DejaVuSans-68" x="2648.880859"/>
      <use xlink:href="#DejaVuSans-65" x="2712.259766"/>
      <use xlink:href="#DejaVuSans-64" x="2773.783203"/>
      <use xlink:href="#DejaVuSans-3c" x="2837.259766"/>
      <use xlink:href="#DejaVuSans-32" x="2921.048828"/>
      <use xlink:href="#DejaVuSans-2c" x="2984.671875"/>
      <use xlink:href="#DejaVuSans-20" x="3016.458984"/>
      <use xlink:href="#DejaVuSans-34" x="3048.246094"/>
      <use xlink:href="#DejaVuSans-3e" x="3111.869141"/>
      <use xlink:href="#DejaVuSans-3e" x="3195.658203"/>
     </g>
    </g>
    <g id="line2d_74">
     <path d="M 55.965625 78.649375 
L 65.965625 78.649375 
L 75.965625 78.649375 
" style="fill: none; stroke: #ff7f0e; stroke-width: 1.5; stroke-linecap: square"/>
    </g>
    <g id="text_44">
     <!-- Batched&lt;4, Eytzinger, Eytzinger::batch_impl_prefetched&lt;4, 4&gt;&gt; -->
     <g transform="translate(83.965625 82.149375) scale(0.1 -0.1)">
      <use xlink:href="#DejaVuSans-42"/>
      <use xlink:href="#DejaVuSans-61" x="68.603516"/>
      <use xlink:href="#DejaVuSans-74" x="129.882812"/>
      <use xlink:href="#DejaVuSans-63" x="169.091797"/>
      <use xlink:href="#DejaVuSans-68" x="224.072266"/>
      <use xlink:href="#DejaVuSans-65" x="287.451172"/>
      <use xlink:href="#DejaVuSans-64" x="348.974609"/>
      <use xlink:href="#DejaVuSans-3c" x="412.451172"/>
      <use xlink:href="#DejaVuSans-34" x="496.240234"/>
      <use xlink:href="#DejaVuSans-2c" x="559.863281"/>
      <use xlink:href="#DejaVuSans-20" x="591.650391"/>
      <use xlink:href="#DejaVuSans-45" x="623.4375"/>
      <use xlink:href="#DejaVuSans-79" x="686.621094"/>
      <use xlink:href="#DejaVuSans-74" x="745.800781"/>
      <use xlink:href="#DejaVuSans-7a" x="785.009766"/>
      <use xlink:href="#DejaVuSans-69" x="837.5"/>
      <use xlink:href="#DejaVuSans-6e" x="865.283203"/>
      <use xlink:href="#DejaVuSans-67" x="928.662109"/>
      <use xlink:href="#DejaVuSans-65" x="992.138672"/>
      <use xlink:href="#DejaVuSans-72" x="1053.662109"/>
      <use xlink:href="#DejaVuSans-2c" x="1094.775391"/>
      <use xlink:href="#DejaVuSans-20" x="1126.5625"/>
      <use xlink:href="#DejaVuSans-45" x="1158.349609"/>
      <use xlink:href="#DejaVuSans-79" x="1221.533203"/>
      <use xlink:href="#DejaVuSans-74" x="1280.712891"/>
      <use xlink:href="#DejaVuSans-7a" x="1319.921875"/>
      <use xlink:href="#DejaVuSans-69" x="1372.412109"/>
      <use xlink:href="#DejaVuSans-6e" x="1400.195312"/>
      <use xlink:href="#DejaVuSans-67" x="1463.574219"/>
      <use xlink:href="#DejaVuSans-65" x="1527.050781"/>
      <use xlink:href="#DejaVuSans-72" x="1588.574219"/>
      <use xlink:href="#DejaVuSans-3a" x="1627.9375"/>
      <use xlink:href="#DejaVuSans-3a" x="1661.628906"/>
      <use xlink:href="#DejaVuSans-62" x="1695.320312"/>
      <use xlink:href="#DejaVuSans-61" x="1758.796875"/>
      <use xlink:href="#DejaVuSans-74" x="1820.076172"/>
      <use xlink:href="#DejaVuSans-63" x="1859.285156"/>
      <use xlink:href="#DejaVuSans-68" x="1914.265625"/>
      <use xlink:href="#DejaVuSans-5f" x="1977.644531"/>
      <use xlink:href="#DejaVuSans-69" x="2027.644531"/>
      <use xlink:href="#DejaVuSans-6d" x="2055.427734"/>
      <use xlink:href="#DejaVuSans-70" x="2152.839844"/>
      <use xlink:href="#DejaVuSans-6c" x="2216.316406"/>
      <use xlink:href="#DejaVuSans-5f" x="2244.099609"/>
      <use xlink:href="#DejaVuSans-70" x="2294.099609"/>
      <use xlink:href="#DejaVuSans-72" x="2357.576172"/>
      <use xlink:href="#DejaVuSans-65" x="2396.439453"/>
      <use xlink:href="#DejaVuSans-66" x="2457.962891"/>
      <use xlink:href="#DejaVuSans-65" x="2493.167969"/>
      <use xlink:href="#DejaVuSans-74" x="2554.691406"/>
      <use xlink:href="#DejaVuSans-63" x="2593.900391"/>
      <use xlink:href="#DejaVuSans-68" x="2648.880859"/>
      <use xlink:href="#DejaVuSans-65" x="2712.259766"/>
      <use xlink:href="#DejaVuSans-64" x="2773.783203"/>
      <use xlink:href="#DejaVuSans-3c" x="2837.259766"/>
      <use xlink:href="#DejaVuSans-34" x="2921.048828"/>
      <use xlink:href="#DejaVuSans-2c" x="2984.671875"/>
      <use xlink:href="#DejaVuSans-20" x="3016.458984"/>
      <use xlink:href="#DejaVuSans-34" x="3048.246094"/>
      <use xlink:href="#DejaVuSans-3e" x="3111.869141"/>
      <use xlink:href="#DejaVuSans-3e" x="3195.658203"/>
     </g>
    </g>
    <g id="line2d_75">
     <path d="M 55.965625 93.605625 
L 65.965625 93.605625 
L 75.965625 93.605625 
" style="fill: none; stroke: #1f77b4; stroke-width: 1.5; stroke-linecap: square"/>
    </g>
    <g id="text_45">
     <!-- Batched&lt;8, Eytzinger, Eytzinger::batch_impl_prefetched&lt;8, 4&gt;&gt; -->
     <g transform="translate(83.965625 97.105625) scale(0.1 -0.1)">
      <use xlink:href="#DejaVuSans-42"/>
      <use xlink:href="#DejaVuSans-61" x="68.603516"/>
      <use xlink:href="#DejaVuSans-74" x="129.882812"/>
      <use xlink:href="#DejaVuSans-63" x="169.091797"/>
      <use xlink:href="#DejaVuSans-68" x="224.072266"/>
      <use xlink:href="#DejaVuSans-65" x="287.451172"/>
      <use xlink:href="#DejaVuSans-64" x="348.974609"/>
      <use xlink:href="#DejaVuSans-3c" x="412.451172"/>
      <use xlink:href="#DejaVuSans-38" x="496.240234"/>
      <use xlink:href="#DejaVuSans-2c" x="559.863281"/>
      <use xlink:href="#DejaVuSans-20" x="591.650391"/>
      <use xlink:href="#DejaVuSans-45" x="623.4375"/>
      <use xlink:href="#DejaVuSans-79" x="686.621094"/>
      <use xlink:href="#DejaVuSans-74" x="745.800781"/>
      <use xlink:href="#DejaVuSans-7a" x="785.009766"/>
      <use xlink:href="#DejaVuSans-69" x="837.5"/>
      <use xlink:href="#DejaVuSans-6e" x="865.283203"/>
      <use xlink:href="#DejaVuSans-67" x="928.662109"/>
      <use xlink:href="#DejaVuSans-65" x="992.138672"/>
      <use xlink:href="#DejaVuSans-72" x="1053.662109"/>
      <use xlink:href="#DejaVuSans-2c" x="1094.775391"/>
      <use xlink:href="#DejaVuSans-20" x="1126.5625"/>
      <use xlink:href="#DejaVuSans-45" x="1158.349609"/>
      <use xlink:href="#DejaVuSans-79" x="1221.533203"/>
      <use xlink:href="#DejaVuSans-74" x="1280.712891"/>
      <use xlink:href="#DejaVuSans-7a" x="1319.921875"/>
      <use xlink:href="#DejaVuSans-69" x="1372.412109"/>
      <use xlink:href="#DejaVuSans-6e" x="1400.195312"/>
      <use xlink:href="#DejaVuSans-67" x="1463.574219"/>
      <use xlink:href="#DejaVuSans-65" x="1527.050781"/>
      <use xlink:href="#DejaVuSans-72" x="1588.574219"/>
      <use xlink:href="#DejaVuSans-3a" x="1627.9375"/>
      <use xlink:href="#DejaVuSans-3a" x="1661.628906"/>
      <use xlink:href="#DejaVuSans-62" x="1695.320312"/>
      <use xlink:href="#DejaVuSans-61" x="1758.796875"/>
      <use xlink:href="#DejaVuSans-74" x="1820.076172"/>
      <use xlink:href="#DejaVuSans-63" x="1859.285156"/>
      <use xlink:href="#DejaVuSans-68" x="1914.265625"/>
      <use xlink:href="#DejaVuSans-5f" x="1977.644531"/>
      <use xlink:href="#DejaVuSans-69" x="2027.644531"/>
      <use xlink:href="#DejaVuSans-6d" x="2055.427734"/>
      <use xlink:href="#DejaVuSans-70" x="2152.839844"/>
      <use xlink:href="#DejaVuSans-6c" x="2216.316406"/>
      <use xlink:href="#DejaVuSans-5f" x="2244.099609"/>
      <use xlink:href="#DejaVuSans-70" x="2294.099609"/>
      <use xlink:href="#DejaVuSans-72" x="2357.576172"/>
      <use xlink:href="#DejaVuSans-65" x="2396.439453"/>
      <use xlink:href="#DejaVuSans-66" x="2457.962891"/>
      <use xlink:href="#DejaVuSans-65" x="2493.167969"/>
      <use xlink:href="#DejaVuSans-74" x="2554.691406"/>
      <use xlink:href="#DejaVuSans-63" x="2593.900391"/>
      <use xlink:href="#DejaVuSans-68" x="2648.880859"/>
      <use xlink:href="#DejaVuSans-65" x="2712.259766"/>
      <use xlink:href="#DejaVuSans-64" x="2773.783203"/>
      <use xlink:href="#DejaVuSans-3c" x="2837.259766"/>
      <use xlink:href="#DejaVuSans-38" x="2921.048828"/>
      <use xlink:href="#DejaVuSans-2c" x="2984.671875"/>
      <use xlink:href="#DejaVuSans-20" x="3016.458984"/>
      <use xlink:href="#DejaVuSans-34" x="3048.246094"/>
      <use xlink:href="#DejaVuSans-3e" x="3111.869141"/>
      <use xlink:href="#DejaVuSans-3e" x="3195.658203"/>
     </g>
    </g>
    <g id="line2d_76">
     <path d="M 55.965625 108.561875 
L 65.965625 108.561875 
L 75.965625 108.561875 
" style="fill: none; stroke: #e377c2; stroke-width: 1.5; stroke-linecap: square"/>
    </g>
    <g id="text_46">
     <!-- Batched&lt;16, Eytzinger, Eytzinger::batch_impl_prefetched&lt;16, 4&gt;&gt; -->
     <g transform="translate(83.965625 112.061875) scale(0.1 -0.1)">
      <use xlink:href="#DejaVuSans-42"/>
      <use xlink:href="#DejaVuSans-61" x="68.603516"/>
      <use xlink:href="#DejaVuSans-74" x="129.882812"/>
      <use xlink:href="#DejaVuSans-63" x="169.091797"/>
      <use xlink:href="#DejaVuSans-68" x="224.072266"/>
      <use xlink:href="#DejaVuSans-65" x="287.451172"/>
      <use xlink:href="#DejaVuSans-64" x="348.974609"/>
      <use xlink:href="#DejaVuSans-3c" x="412.451172"/>
      <use xlink:href="#DejaVuSans-31" x="496.240234"/>
      <use xlink:href="#DejaVuSans-36" x="559.863281"/>
      <use xlink:href="#DejaVuSans-2c" x="623.486328"/>
      <use xlink:href="#DejaVuSans-20" x="655.273438"/>
      <use xlink:href="#DejaVuSans-45" x="687.060547"/>
      <use xlink:href="#DejaVuSans-79" x="750.244141"/>
      <use xlink:href="#DejaVuSans-74" x="809.423828"/>
      <use xlink:href="#DejaVuSans-7a" x="848.632812"/>
      <use xlink:href="#DejaVuSans-69" x="901.123047"/>
      <use xlink:href="#DejaVuSans-6e" x="928.90625"/>
      <use xlink:href="#DejaVuSans-67" x="992.285156"/>
      <use xlink:href="#DejaVuSans-65" x="1055.761719"/>
      <use xlink:href="#DejaVuSans-72" x="1117.285156"/>
      <use xlink:href="#DejaVuSans-2c" x="1158.398438"/>
      <use xlink:href="#DejaVuSans-20" x="1190.185547"/>
      <use xlink:href="#DejaVuSans-45" x="1221.972656"/>
      <use xlink:href="#DejaVuSans-79" x="1285.15625"/>
      <use xlink:href="#DejaVuSans-74" x="1344.335938"/>
      <use xlink:href="#DejaVuSans-7a" x="1383.544922"/>
      <use xlink:href="#DejaVuSans-69" x="1436.035156"/>
      <use xlink:href="#DejaVuSans-6e" x="1463.818359"/>
      <use xlink:href="#DejaVuSans-67" x="1527.197266"/>
      <use xlink:href="#DejaVuSans-65" x="1590.673828"/>
      <use xlink:href="#DejaVuSans-72" x="1652.197266"/>
      <use xlink:href="#DejaVuSans-3a" x="1691.560547"/>
      <use xlink:href="#DejaVuSans-3a" x="1725.251953"/>
      <use xlink:href="#DejaVuSans-62" x="1758.943359"/>
      <use xlink:href="#DejaVuSans-61" x="1822.419922"/>
      <use xlink:href="#DejaVuSans-74" x="1883.699219"/>
      <use xlink:href="#DejaVuSans-63" x="1922.908203"/>
      <use xlink:href="#DejaVuSans-68" x="1977.888672"/>
      <use xlink:href="#DejaVuSans-5f" x="2041.267578"/>
      <use xlink:href="#DejaVuSans-69" x="2091.267578"/>
      <use xlink:href="#DejaVuSans-6d" x="2119.050781"/>
      <use xlink:href="#DejaVuSans-70" x="2216.462891"/>
      <use xlink:href="#DejaVuSans-6c" x="2279.939453"/>
      <use xlink:href="#DejaVuSans-5f" x="2307.722656"/>
      <use xlink:href="#DejaVuSans-70" x="2357.722656"/>
      <use xlink:href="#DejaVuSans-72" x="2421.199219"/>
      <use xlink:href="#DejaVuSans-65" x="2460.0625"/>
      <use xlink:href="#DejaVuSans-66" x="2521.585938"/>
      <use xlink:href="#DejaVuSans-65" x="2556.791016"/>
      <use xlink:href="#DejaVuSans-74" x="2618.314453"/>
      <use xlink:href="#DejaVuSans-63" x="2657.523438"/>
      <use xlink:href="#DejaVuSans-68" x="2712.503906"/>
      <use xlink:href="#DejaVuSans-65" x="2775.882812"/>
      <use xlink:href="#DejaVuSans-64" x="2837.40625"/>
      <use xlink:href="#DejaVuSans-3c" x="2900.882812"/>
      <use xlink:href="#DejaVuSans-31" x="2984.671875"/>
      <use xlink:href="#DejaVuSans-36" x="3048.294922"/>
      <use xlink:href="#DejaVuSans-2c" x="3111.917969"/>
      <use xlink:href="#DejaVuSans-20" x="3143.705078"/>
      <use xlink:href="#DejaVuSans-34" x="3175.492188"/>
      <use xlink:href="#DejaVuSans-3e" x="3239.115234"/>
      <use xlink:href="#DejaVuSans-3e" x="3322.904297"/>
     </g>
    </g>
    <g id="line2d_77">
     <path d="M 55.965625 123.518125 
L 65.965625 123.518125 
L 75.965625 123.518125 
" style="fill: none; stroke: #e377c2; stroke-width: 1.5; stroke-linecap: square"/>
    </g>
    <g id="text_47">
     <!-- Batched&lt;32, Eytzinger, Eytzinger::batch_impl_prefetched&lt;32, 4&gt;&gt; -->
     <g transform="translate(83.965625 127.018125) scale(0.1 -0.1)">
      <use xlink:href="#DejaVuSans-42"/>
      <use xlink:href="#DejaVuSans-61" x="68.603516"/>
      <use xlink:href="#DejaVuSans-74" x="129.882812"/>
      <use xlink:href="#DejaVuSans-63" x="169.091797"/>
      <use xlink:href="#DejaVuSans-68" x="224.072266"/>
      <use xlink:href="#DejaVuSans-65" x="287.451172"/>
      <use xlink:href="#DejaVuSans-64" x="348.974609"/>
      <use xlink:href="#DejaVuSans-3c" x="412.451172"/>
      <use xlink:href="#DejaVuSans-33" x="496.240234"/>
      <use xlink:href="#DejaVuSans-32" x="559.863281"/>
      <use xlink:href="#DejaVuSans-2c" x="623.486328"/>
      <use xlink:href="#DejaVuSans-20" x="655.273438"/>
      <use xlink:href="#DejaVuSans-45" x="687.060547"/>
      <use xlink:href="#DejaVuSans-79" x="750.244141"/>
      <use xlink:href="#DejaVuSans-74" x="809.423828"/>
      <use xlink:href="#DejaVuSans-7a" x="848.632812"/>
      <use xlink:href="#DejaVuSans-69" x="901.123047"/>
      <use xlink:href="#DejaVuSans-6e" x="928.90625"/>
      <use xlink:href="#DejaVuSans-67" x="992.285156"/>
      <use xlink:href="#DejaVuSans-65" x="1055.761719"/>
      <use xlink:href="#DejaVuSans-72" x="1117.285156"/>
      <use xlink:href="#DejaVuSans-2c" x="1158.398438"/>
      <use xlink:href="#DejaVuSans-20" x="1190.185547"/>
      <use xlink:href="#DejaVuSans-45" x="1221.972656"/>
      <use xlink:href="#DejaVuSans-79" x="1285.15625"/>
      <use xlink:href="#DejaVuSans-74" x="1344.335938"/>
      <use xlink:href="#DejaVuSans-7a" x="1383.544922"/>
      <use xlink:href="#DejaVuSans-69" x="1436.035156"/>
      <use xlink:href="#DejaVuSans-6e" x="1463.818359"/>
      <use xlink:href="#DejaVuSans-67" x="1527.197266"/>
      <use xlink:href="#DejaVuSans-65" x="1590.673828"/>
      <use xlink:href="#DejaVuSans-72" x="1652.197266"/>
      <use xlink:href="#DejaVuSans-3a" x="1691.560547"/>
      <use xlink:href="#DejaVuSans-3a" x="1725.251953"/>
      <use xlink:href="#DejaVuSans-62" x="1758.943359"/>
      <use xlink:href="#DejaVuSans-61" x="1822.419922"/>
      <use xlink:href="#DejaVuSans-74" x="1883.699219"/>
      <use xlink:href="#DejaVuSans-63" x="1922.908203"/>
      <use xlink:href="#DejaVuSans-68" x="1977.888672"/>
      <use xlink:href="#DejaVuSans-5f" x="2041.267578"/>
      <use xlink:href="#DejaVuSans-69" x="2091.267578"/>
      <use xlink:href="#DejaVuSans-6d" x="2119.050781"/>
      <use xlink:href="#DejaVuSans-70" x="2216.462891"/>
      <use xlink:href="#DejaVuSans-6c" x="2279.939453"/>
      <use xlink:href="#DejaVuSans-5f" x="2307.722656"/>
      <use xlink:href="#DejaVuSans-70" x="2357.722656"/>
      <use xlink:href="#DejaVuSans-72" x="2421.199219"/>
      <use xlink:href="#DejaVuSans-65" x="2460.0625"/>
      <use xlink:href="#DejaVuSans-66" x="2521.585938"/>
      <use xlink:href="#DejaVuSans-65" x="2556.791016"/>
      <use xlink:href="#DejaVuSans-74" x="2618.314453"/>
      <use xlink:href="#DejaVuSans-63" x="2657.523438"/>
      <use xlink:href="#DejaVuSans-68" x="2712.503906"/>
      <use xlink:href="#DejaVuSans-65" x="2775.882812"/>
      <use xlink:href="#DejaVuSans-64" x="2837.40625"/>
      <use xlink:href="#DejaVuSans-3c" x="2900.882812"/>
      <use xlink:href="#DejaVuSans-33" x="2984.671875"/>
      <use xlink:href="#DejaVuSans-32" x="3048.294922"/>
      <use xlink:href="#DejaVuSans-2c" x="3111.917969"/>
      <use xlink:href="#DejaVuSans-20" x="3143.705078"/>
      <use xlink:href="#DejaVuSans-34" x="3175.492188"/>
      <use xlink:href="#DejaVuSans-3e" x="3239.115234"/>
      <use xlink:href="#DejaVuSans-3e" x="3322.904297"/>
     </g>
    </g>
    <g id="line2d_78">
     <path d="M 55.965625 138.474375 
L 65.965625 138.474375 
L 75.965625 138.474375 
" style="fill: none; stroke: #7f7f7f; stroke-width: 1.5; stroke-linecap: square"/>
    </g>
    <g id="text_48">
     <!-- Batched&lt;64, Eytzinger, Eytzinger::batch_impl_prefetched&lt;64, 4&gt;&gt; -->
     <g transform="translate(83.965625 141.974375) scale(0.1 -0.1)">
      <use xlink:href="#DejaVuSans-42"/>
      <use xlink:href="#DejaVuSans-61" x="68.603516"/>
      <use xlink:href="#DejaVuSans-74" x="129.882812"/>
      <use xlink:href="#DejaVuSans-63" x="169.091797"/>
      <use xlink:href="#DejaVuSans-68" x="224.072266"/>
      <use xlink:href="#DejaVuSans-65" x="287.451172"/>
      <use xlink:href="#DejaVuSans-64" x="348.974609"/>
      <use xlink:href="#DejaVuSans-3c" x="412.451172"/>
      <use xlink:href="#DejaVuSans-36" x="496.240234"/>
      <use xlink:href="#DejaVuSans-34" x="559.863281"/>
      <use xlink:href="#DejaVuSans-2c" x="623.486328"/>
      <use xlink:href="#DejaVuSans-20" x="655.273438"/>
      <use xlink:href="#DejaVuSans-45" x="687.060547"/>
      <use xlink:href="#DejaVuSans-79" x="750.244141"/>
      <use xlink:href="#DejaVuSans-74" x="809.423828"/>
      <use xlink:href="#DejaVuSans-7a" x="848.632812"/>
      <use xlink:href="#DejaVuSans-69" x="901.123047"/>
      <use xlink:href="#DejaVuSans-6e" x="928.90625"/>
      <use xlink:href="#DejaVuSans-67" x="992.285156"/>
      <use xlink:href="#DejaVuSans-65" x="1055.761719"/>
      <use xlink:href="#DejaVuSans-72" x="1117.285156"/>
      <use xlink:href="#DejaVuSans-2c" x="1158.398438"/>
      <use xlink:href="#DejaVuSans-20" x="1190.185547"/>
      <use xlink:href="#DejaVuSans-45" x="1221.972656"/>
      <use xlink:href="#DejaVuSans-79" x="1285.15625"/>
      <use xlink:href="#DejaVuSans-74" x="1344.335938"/>
      <use xlink:href="#DejaVuSans-7a" x="1383.544922"/>
      <use xlink:href="#DejaVuSans-69" x="1436.035156"/>
      <use xlink:href="#DejaVuSans-6e" x="1463.818359"/>
      <use xlink:href="#DejaVuSans-67" x="1527.197266"/>
      <use xlink:href="#DejaVuSans-65" x="1590.673828"/>
      <use xlink:href="#DejaVuSans-72" x="1652.197266"/>
      <use xlink:href="#DejaVuSans-3a" x="1691.560547"/>
      <use xlink:href="#DejaVuSans-3a" x="1725.251953"/>
      <use xlink:href="#DejaVuSans-62" x="1758.943359"/>
      <use xlink:href="#DejaVuSans-61" x="1822.419922"/>
      <use xlink:href="#DejaVuSans-74" x="1883.699219"/>
      <use xlink:href="#DejaVuSans-63" x="1922.908203"/>
      <use xlink:href="#DejaVuSans-68" x="1977.888672"/>
      <use xlink:href="#DejaVuSans-5f" x="2041.267578"/>
      <use xlink:href="#DejaVuSans-69" x="2091.267578"/>
      <use xlink:href="#DejaVuSans-6d" x="2119.050781"/>
      <use xlink:href="#DejaVuSans-70" x="2216.462891"/>
      <use xlink:href="#DejaVuSans-6c" x="2279.939453"/>
      <use xlink:href="#DejaVuSans-5f" x="2307.722656"/>
      <use xlink:href="#DejaVuSans-70" x="2357.722656"/>
      <use xlink:href="#DejaVuSans-72" x="2421.199219"/>
      <use xlink:href="#DejaVuSans-65" x="2460.0625"/>
      <use xlink:href="#DejaVuSans-66" x="2521.585938"/>
      <use xlink:href="#DejaVuSans-65" x="2556.791016"/>
      <use xlink:href="#DejaVuSans-74" x="2618.314453"/>
      <use xlink:href="#DejaVuSans-63" x="2657.523438"/>
      <use xlink:href="#DejaVuSans-68" x="2712.503906"/>
      <use xlink:href="#DejaVuSans-65" x="2775.882812"/>
      <use xlink:href="#DejaVuSans-64" x="2837.40625"/>
      <use xlink:href="#DejaVuSans-3c" x="2900.882812"/>
      <use xlink:href="#DejaVuSans-36" x="2984.671875"/>
      <use xlink:href="#DejaVuSans-34" x="3048.294922"/>
      <use xlink:href="#DejaVuSans-2c" x="3111.917969"/>
      <use xlink:href="#DejaVuSans-20" x="3143.705078"/>
      <use xlink:href="#DejaVuSans-34" x="3175.492188"/>
      <use xlink:href="#DejaVuSans-3e" x="3239.115234"/>
      <use xlink:href="#DejaVuSans-3e" x="3322.904297"/>
     </g>
    </g>
    <g id="line2d_79">
     <path d="M 55.965625 153.430625 
L 65.965625 153.430625 
L 75.965625 153.430625 
" style="fill: none; stroke: #2ca02c; stroke-width: 1.5; stroke-linecap: square"/>
    </g>
    <g id="text_49">
     <!-- Batched&lt;128, Eytzinger, Eytzinger::batch_impl_prefetched&lt;128, 4&gt;&gt; -->
     <g transform="translate(83.965625 156.930625) scale(0.1 -0.1)">
      <use xlink:href="#DejaVuSans-42"/>
      <use xlink:href="#DejaVuSans-61" x="68.603516"/>
      <use xlink:href="#DejaVuSans-74" x="129.882812"/>
      <use xlink:href="#DejaVuSans-63" x="169.091797"/>
      <use xlink:href="#DejaVuSans-68" x="224.072266"/>
      <use xlink:href="#DejaVuSans-65" x="287.451172"/>
      <use xlink:href="#DejaVuSans-64" x="348.974609"/>
      <use xlink:href="#DejaVuSans-3c" x="412.451172"/>
      <use xlink:href="#DejaVuSans-31" x="496.240234"/>
      <use xlink:href="#DejaVuSans-32" x="559.863281"/>
      <use xlink:href="#DejaVuSans-38" x="623.486328"/>
      <use xlink:href="#DejaVuSans-2c" x="687.109375"/>
      <use xlink:href="#DejaVuSans-20" x="718.896484"/>
      <use xlink:href="#DejaVuSans-45" x="750.683594"/>
      <use xlink:href="#DejaVuSans-79" x="813.867188"/>
      <use xlink:href="#DejaVuSans-74" x="873.046875"/>
      <use xlink:href="#DejaVuSans-7a" x="912.255859"/>
      <use xlink:href="#DejaVuSans-69" x="964.746094"/>
      <use xlink:href="#DejaVuSans-6e" x="992.529297"/>
      <use xlink:href="#DejaVuSans-67" x="1055.908203"/>
      <use xlink:href="#DejaVuSans-65" x="1119.384766"/>
      <use xlink:href="#DejaVuSans-72" x="1180.908203"/>
      <use xlink:href="#DejaVuSans-2c" x="1222.021484"/>
      <use xlink:href="#DejaVuSans-20" x="1253.808594"/>
      <use xlink:href="#DejaVuSans-45" x="1285.595703"/>
      <use xlink:href="#DejaVuSans-79" x="1348.779297"/>
      <use xlink:href="#DejaVuSans-74" x="1407.958984"/>
      <use xlink:href="#DejaVuSans-7a" x="1447.167969"/>
      <use xlink:href="#DejaVuSans-69" x="1499.658203"/>
      <use xlink:href="#DejaVuSans-6e" x="1527.441406"/>
      <use xlink:href="#DejaVuSans-67" x="1590.820312"/>
      <use xlink:href="#DejaVuSans-65" x="1654.296875"/>
      <use xlink:href="#DejaVuSans-72" x="1715.820312"/>
      <use xlink:href="#DejaVuSans-3a" x="1755.183594"/>
      <use xlink:href="#DejaVuSans-3a" x="1788.875"/>
      <use xlink:href="#DejaVuSans-62" x="1822.566406"/>
      <use xlink:href="#DejaVuSans-61" x="1886.042969"/>
      <use xlink:href="#DejaVuSans-74" x="1947.322266"/>
      <use xlink:href="#DejaVuSans-63" x="1986.53125"/>
      <use xlink:href="#DejaVuSans-68" x="2041.511719"/>
      <use xlink:href="#DejaVuSans-5f" x="2104.890625"/>
      <use xlink:href="#DejaVuSans-69" x="2154.890625"/>
      <use xlink:href="#DejaVuSans-6d" x="2182.673828"/>
      <use xlink:href="#DejaVuSans-70" x="2280.085938"/>
      <use xlink:href="#DejaVuSans-6c" x="2343.5625"/>
      <use xlink:href="#DejaVuSans-5f" x="2371.345703"/>
      <use xlink:href="#DejaVuSans-70" x="2421.345703"/>
      <use xlink:href="#DejaVuSans-72" x="2484.822266"/>
      <use xlink:href="#DejaVuSans-65" x="2523.685547"/>
      <use xlink:href="#DejaVuSans-66" x="2585.208984"/>
      <use xlink:href="#DejaVuSans-65" x="2620.414062"/>
      <use xlink:href="#DejaVuSans-74" x="2681.9375"/>
      <use xlink:href="#DejaVuSans-63" x="2721.146484"/>
      <use xlink:href="#DejaVuSans-68" x="2776.126953"/>
      <use xlink:href="#DejaVuSans-65" x="2839.505859"/>
      <use xlink:href="#DejaVuSans-64" x="2901.029297"/>
      <use xlink:href="#DejaVuSans-3c" x="2964.505859"/>
      <use xlink:href="#DejaVuSans-31" x="3048.294922"/>
      <use xlink:href="#DejaVuSans-32" x="3111.917969"/>
      <use xlink:href="#DejaVuSans-38" x="3175.541016"/>
      <use xlink:href="#DejaVuSans-2c" x="3239.164062"/>
      <use xlink:href="#DejaVuSans-20" x="3270.951172"/>
      <use xlink:href="#DejaVuSans-34" x="3302.738281"/>
      <use xlink:href="#DejaVuSans-3e" x="3366.361328"/>
      <use xlink:href="#DejaVuSans-3e" x="3450.150391"/>
     </g>
    </g>
   </g>
  </g>
 </g>
 <defs>
  <clipPath id="p39d0e6f651">
   <rect x="46.965625" y="50.594688" width="613.8" height="443.52"/>
  </clipPath>
 </defs>
</svg>
