<?xml version="1.0" encoding="utf-8" standalone="no"?>
<!DOCTYPE svg PUBLIC "-//W3C//DTD SVG 1.1//EN"
  "http://www.w3.org/Graphics/SVG/1.1/DTD/svg11.dtd">
<svg xmlns:xlink="http://www.w3.org/1999/xlink" width="667.965625pt" height="531.670938pt" viewBox="0 0 667.965625 531.670938" xmlns="http://www.w3.org/2000/svg" version="1.1">
 <metadata>
  <rdf:RDF xmlns:dc="http://purl.org/dc/elements/1.1/" xmlns:cc="http://creativecommons.org/ns#" xmlns:rdf="http://www.w3.org/1999/02/22-rdf-syntax-ns#">
   <cc:Work>
    <dc:type rdf:resource="http://purl.org/dc/dcmitype/StillImage"/>
    <dc:date>2025-02-28T22:31:39.639540</dc:date>
    <dc:format>image/svg+xml</dc:format>
    <dc:creator>
     <cc:Agent>
      <dc:title>Matplotlib v3.9.2, https://matplotlib.org/</dc:title>
     </cc:Agent>
    </dc:creator>
   </cc:Work>
  </rdf:RDF>
 </metadata>
 <defs>
  <style type="text/css">*{stroke-linejoin: round; stroke-linecap: butt}</style>
 </defs>
 <g id="figure_1">
  <g id="patch_1">
   <path d="M -0 531.670938 
L 667.965625 531.670938 
L 667.965625 0 
L -0 0 
z
" style="fill: #ffffff"/>
  </g>
  <g id="axes_1">
   <g id="patch_2">
    <path d="M 46.965625 494.114688 
L 660.765625 494.114688 
L 660.765625 50.594688 
L 46.965625 50.594688 
z
" style="fill: #ffffff"/>
   </g>
   <g id="line2d_1">
    <path d="M 298.818704 494.114688 
L 298.818704 50.594688 
" clip-path="url(#p965ef9a0ab)" style="fill: none; stroke-dasharray: 5.55,2.4; stroke-dashoffset: 0; stroke: #ff0000; stroke-width: 1.5"/>
   </g>
   <g id="line2d_2">
    <path d="M 388.399935 494.114688 
L 388.399935 50.594688 
" clip-path="url(#p965ef9a0ab)" style="fill: none; stroke-dasharray: 5.55,2.4; stroke-dashoffset: 0; stroke: #ff0000; stroke-width: 1.5"/>
   </g>
   <g id="line2d_3">
    <path d="M 455.585859 494.114688 
L 455.585859 50.594688 
" clip-path="url(#p965ef9a0ab)" style="fill: none; stroke-dasharray: 5.55,2.4; stroke-dashoffset: 0; stroke: #ff0000; stroke-width: 1.5"/>
   </g>
   <g id="axes_2">
    <g id="patch_3">
     <path d="M 46.965625 50.594688 
L 660.765625 50.594688 
L 660.765625 50.594687 
L 46.965625 50.594687 
z
" style="fill: #ffffff"/>
    </g>
    <g id="matplotlib.axis_1">
     <g id="xtick_1">
      <g id="line2d_4">
       <defs>
        <path id="md44cfe3635" d="M 0 0 
L 0 -3.5 
" style="stroke: #000000; stroke-width: 0.8"/>
       </defs>
       <g>
        <use xlink:href="#md44cfe3635" x="52.470317" y="50.594687" style="stroke: #000000; stroke-width: 0.8"/>
       </g>
      </g>
      <g id="text_1">
       <!-- $\mathdefault{2^{2}}$ -->
       <g transform="translate(46.870317 41.515) scale(0.1 -0.1)">
        <defs>
         <path id="DejaVuSans-32" d="M 1228 531 
L 3431 531 
L 3431 0 
L 469 0 
L 469 531 
Q 828 903 1448 1529 
Q 2069 2156 2228 2338 
Q 2531 2678 2651 2914 
Q 2772 3150 2772 3378 
Q 2772 3750 2511 3984 
Q 2250 4219 1831 4219 
Q 1534 4219 1204 4116 
Q 875 4013 500 3803 
L 500 4441 
Q 881 4594 1212 4672 
Q 1544 4750 1819 4750 
Q 2544 4750 2975 4387 
Q 3406 4025 3406 3419 
Q 3406 3131 3298 2873 
Q 3191 2616 2906 2266 
Q 2828 2175 2409 1742 
Q 1991 1309 1228 531 
z
" transform="scale(0.015625)"/>
        </defs>
        <use xlink:href="#DejaVuSans-32" transform="translate(0 0.765625)"/>
        <use xlink:href="#DejaVuSans-32" transform="translate(64.580078 39.046875) scale(0.7)"/>
       </g>
      </g>
     </g>
     <g id="xtick_2">
      <g id="line2d_5">
       <g>
        <use xlink:href="#md44cfe3635" x="97.260933" y="50.594687" style="stroke: #000000; stroke-width: 0.8"/>
       </g>
      </g>
      <g id="text_2">
       <!-- $\mathdefault{2^{4}}$ -->
       <g transform="translate(91.660933 41.515) scale(0.1 -0.1)">
        <defs>
         <path id="DejaVuSans-34" d="M 2419 4116 
L 825 1625 
L 2419 1625 
L 2419 4116 
z
M 2253 4666 
L 3047 4666 
L 3047 1625 
L 3713 1625 
L 3713 1100 
L 3047 1100 
L 3047 0 
L 2419 0 
L 2419 1100 
L 313 1100 
L 313 1709 
L 2253 4666 
z
" transform="scale(0.015625)"/>
        </defs>
        <use xlink:href="#DejaVuSans-32" transform="translate(0 0.684375)"/>
        <use xlink:href="#DejaVuSans-34" transform="translate(64.580078 38.965625) scale(0.7)"/>
       </g>
      </g>
     </g>
     <g id="xtick_3">
      <g id="line2d_6">
       <g>
        <use xlink:href="#md44cfe3635" x="142.051549" y="50.594687" style="stroke: #000000; stroke-width: 0.8"/>
       </g>
      </g>
      <g id="text_3">
       <!-- $\mathdefault{2^{6}}$ -->
       <g transform="translate(136.451549 41.515) scale(0.1 -0.1)">
        <defs>
         <path id="DejaVuSans-36" d="M 2113 2584 
Q 1688 2584 1439 2293 
Q 1191 2003 1191 1497 
Q 1191 994 1439 701 
Q 1688 409 2113 409 
Q 2538 409 2786 701 
Q 3034 994 3034 1497 
Q 3034 2003 2786 2293 
Q 2538 2584 2113 2584 
z
M 3366 4563 
L 3366 3988 
Q 3128 4100 2886 4159 
Q 2644 4219 2406 4219 
Q 1781 4219 1451 3797 
Q 1122 3375 1075 2522 
Q 1259 2794 1537 2939 
Q 1816 3084 2150 3084 
Q 2853 3084 3261 2657 
Q 3669 2231 3669 1497 
Q 3669 778 3244 343 
Q 2819 -91 2113 -91 
Q 1303 -91 875 529 
Q 447 1150 447 2328 
Q 447 3434 972 4092 
Q 1497 4750 2381 4750 
Q 2619 4750 2861 4703 
Q 3103 4656 3366 4563 
z
" transform="scale(0.015625)"/>
        </defs>
        <use xlink:href="#DejaVuSans-32" transform="translate(0 0.765625)"/>
        <use xlink:href="#DejaVuSans-36" transform="translate(64.580078 39.046875) scale(0.7)"/>
       </g>
      </g>
     </g>
     <g id="xtick_4">
      <g id="line2d_7">
       <g>
        <use xlink:href="#md44cfe3635" x="186.842164" y="50.594687" style="stroke: #000000; stroke-width: 0.8"/>
       </g>
      </g>
      <g id="text_4">
       <!-- $\mathdefault{2^{8}}$ -->
       <g transform="translate(181.242164 41.515) scale(0.1 -0.1)">
        <defs>
         <path id="DejaVuSans-38" d="M 2034 2216 
Q 1584 2216 1326 1975 
Q 1069 1734 1069 1313 
Q 1069 891 1326 650 
Q 1584 409 2034 409 
Q 2484 409 2743 651 
Q 3003 894 3003 1313 
Q 3003 1734 2745 1975 
Q 2488 2216 2034 2216 
z
M 1403 2484 
Q 997 2584 770 2862 
Q 544 3141 544 3541 
Q 544 4100 942 4425 
Q 1341 4750 2034 4750 
Q 2731 4750 3128 4425 
Q 3525 4100 3525 3541 
Q 3525 3141 3298 2862 
Q 3072 2584 2669 2484 
Q 3125 2378 3379 2068 
Q 3634 1759 3634 1313 
Q 3634 634 3220 271 
Q 2806 -91 2034 -91 
Q 1263 -91 848 271 
Q 434 634 434 1313 
Q 434 1759 690 2068 
Q 947 2378 1403 2484 
z
M 1172 3481 
Q 1172 3119 1398 2916 
Q 1625 2713 2034 2713 
Q 2441 2713 2670 2916 
Q 2900 3119 2900 3481 
Q 2900 3844 2670 4047 
Q 2441 4250 2034 4250 
Q 1625 4250 1398 4047 
Q 1172 3844 1172 3481 
z
" transform="scale(0.015625)"/>
        </defs>
        <use xlink:href="#DejaVuSans-32" transform="translate(0 0.765625)"/>
        <use xlink:href="#DejaVuSans-38" transform="translate(64.580078 39.046875) scale(0.7)"/>
       </g>
      </g>
     </g>
     <g id="xtick_5">
      <g id="line2d_8">
       <g>
        <use xlink:href="#md44cfe3635" x="231.63278" y="50.594687" style="stroke: #000000; stroke-width: 0.8"/>
       </g>
      </g>
      <g id="text_5">
       <!-- $\mathdefault{2^{10}}$ -->
       <g transform="translate(223.78278 41.515) scale(0.1 -0.1)">
        <defs>
         <path id="DejaVuSans-31" d="M 794 531 
L 1825 531 
L 1825 4091 
L 703 3866 
L 703 4441 
L 1819 4666 
L 2450 4666 
L 2450 531 
L 3481 531 
L 3481 0 
L 794 0 
L 794 531 
z
" transform="scale(0.015625)"/>
         <path id="DejaVuSans-30" d="M 2034 4250 
Q 1547 4250 1301 3770 
Q 1056 3291 1056 2328 
Q 1056 1369 1301 889 
Q 1547 409 2034 409 
Q 2525 409 2770 889 
Q 3016 1369 3016 2328 
Q 3016 3291 2770 3770 
Q 2525 4250 2034 4250 
z
M 2034 4750 
Q 2819 4750 3233 4129 
Q 3647 3509 3647 2328 
Q 3647 1150 3233 529 
Q 2819 -91 2034 -91 
Q 1250 -91 836 529 
Q 422 1150 422 2328 
Q 422 3509 836 4129 
Q 1250 4750 2034 4750 
z
" transform="scale(0.015625)"/>
        </defs>
        <use xlink:href="#DejaVuSans-32" transform="translate(0 0.765625)"/>
        <use xlink:href="#DejaVuSans-31" transform="translate(64.580078 39.046875) scale(0.7)"/>
        <use xlink:href="#DejaVuSans-30" transform="translate(109.116211 39.046875) scale(0.7)"/>
       </g>
      </g>
     </g>
     <g id="xtick_6">
      <g id="line2d_9">
       <g>
        <use xlink:href="#md44cfe3635" x="276.423396" y="50.594687" style="stroke: #000000; stroke-width: 0.8"/>
       </g>
      </g>
      <g id="text_6">
       <!-- $\mathdefault{2^{12}}$ -->
       <g transform="translate(268.573396 41.515) scale(0.1 -0.1)">
        <use xlink:href="#DejaVuSans-32" transform="translate(0 0.765625)"/>
        <use xlink:href="#DejaVuSans-31" transform="translate(64.580078 39.046875) scale(0.7)"/>
        <use xlink:href="#DejaVuSans-32" transform="translate(109.116211 39.046875) scale(0.7)"/>
       </g>
      </g>
     </g>
     <g id="xtick_7">
      <g id="line2d_10">
       <g>
        <use xlink:href="#md44cfe3635" x="321.214012" y="50.594687" style="stroke: #000000; stroke-width: 0.8"/>
       </g>
      </g>
      <g id="text_7">
       <!-- $\mathdefault{2^{14}}$ -->
       <g transform="translate(313.364012 41.515) scale(0.1 -0.1)">
        <use xlink:href="#DejaVuSans-32" transform="translate(0 0.684375)"/>
        <use xlink:href="#DejaVuSans-31" transform="translate(64.580078 38.965625) scale(0.7)"/>
        <use xlink:href="#DejaVuSans-34" transform="translate(109.116211 38.965625) scale(0.7)"/>
       </g>
      </g>
     </g>
     <g id="xtick_8">
      <g id="line2d_11">
       <g>
        <use xlink:href="#md44cfe3635" x="366.004627" y="50.594687" style="stroke: #000000; stroke-width: 0.8"/>
       </g>
      </g>
      <g id="text_8">
       <!-- $\mathdefault{2^{16}}$ -->
       <g transform="translate(358.154627 41.515) scale(0.1 -0.1)">
        <use xlink:href="#DejaVuSans-32" transform="translate(0 0.765625)"/>
        <use xlink:href="#DejaVuSans-31" transform="translate(64.580078 39.046875) scale(0.7)"/>
        <use xlink:href="#DejaVuSans-36" transform="translate(109.116211 39.046875) scale(0.7)"/>
       </g>
      </g>
     </g>
     <g id="xtick_9">
      <g id="line2d_12">
       <g>
        <use xlink:href="#md44cfe3635" x="410.795243" y="50.594687" style="stroke: #000000; stroke-width: 0.8"/>
       </g>
      </g>
      <g id="text_9">
       <!-- $\mathdefault{2^{18}}$ -->
       <g transform="translate(402.945243 41.515) scale(0.1 -0.1)">
        <use xlink:href="#DejaVuSans-32" transform="translate(0 0.765625)"/>
        <use xlink:href="#DejaVuSans-31" transform="translate(64.580078 39.046875) scale(0.7)"/>
        <use xlink:href="#DejaVuSans-38" transform="translate(109.116211 39.046875) scale(0.7)"/>
       </g>
      </g>
     </g>
     <g id="xtick_10">
      <g id="line2d_13">
       <g>
        <use xlink:href="#md44cfe3635" x="455.585859" y="50.594687" style="stroke: #000000; stroke-width: 0.8"/>
       </g>
      </g>
      <g id="text_10">
       <!-- $\mathdefault{2^{20}}$ -->
       <g transform="translate(447.735859 41.515) scale(0.1 -0.1)">
        <use xlink:href="#DejaVuSans-32" transform="translate(0 0.765625)"/>
        <use xlink:href="#DejaVuSans-32" transform="translate(64.580078 39.046875) scale(0.7)"/>
        <use xlink:href="#DejaVuSans-30" transform="translate(109.116211 39.046875) scale(0.7)"/>
       </g>
      </g>
     </g>
     <g id="xtick_11">
      <g id="line2d_14">
       <g>
        <use xlink:href="#md44cfe3635" x="500.376474" y="50.594687" style="stroke: #000000; stroke-width: 0.8"/>
       </g>
      </g>
      <g id="text_11">
       <!-- $\mathdefault{2^{22}}$ -->
       <g transform="translate(492.526474 41.515) scale(0.1 -0.1)">
        <use xlink:href="#DejaVuSans-32" transform="translate(0 0.765625)"/>
        <use xlink:href="#DejaVuSans-32" transform="translate(64.580078 39.046875) scale(0.7)"/>
        <use xlink:href="#DejaVuSans-32" transform="translate(109.116211 39.046875) scale(0.7)"/>
       </g>
      </g>
     </g>
     <g id="xtick_12">
      <g id="line2d_15">
       <g>
        <use xlink:href="#md44cfe3635" x="545.16709" y="50.594687" style="stroke: #000000; stroke-width: 0.8"/>
       </g>
      </g>
      <g id="text_12">
       <!-- $\mathdefault{2^{24}}$ -->
       <g transform="translate(537.31709 41.515) scale(0.1 -0.1)">
        <use xlink:href="#DejaVuSans-32" transform="translate(0 0.765625)"/>
        <use xlink:href="#DejaVuSans-32" transform="translate(64.580078 39.046875) scale(0.7)"/>
        <use xlink:href="#DejaVuSans-34" transform="translate(109.116211 39.046875) scale(0.7)"/>
       </g>
      </g>
     </g>
     <g id="xtick_13">
      <g id="line2d_16">
       <g>
        <use xlink:href="#md44cfe3635" x="589.957706" y="50.594687" style="stroke: #000000; stroke-width: 0.8"/>
       </g>
      </g>
      <g id="text_13">
       <!-- $\mathdefault{2^{26}}$ -->
       <g transform="translate(582.107706 41.515) scale(0.1 -0.1)">
        <use xlink:href="#DejaVuSans-32" transform="translate(0 0.765625)"/>
        <use xlink:href="#DejaVuSans-32" transform="translate(64.580078 39.046875) scale(0.7)"/>
        <use xlink:href="#DejaVuSans-36" transform="translate(109.116211 39.046875) scale(0.7)"/>
       </g>
      </g>
     </g>
     <g id="xtick_14">
      <g id="line2d_17">
       <g>
        <use xlink:href="#md44cfe3635" x="634.748322" y="50.594687" style="stroke: #000000; stroke-width: 0.8"/>
       </g>
      </g>
      <g id="text_14">
       <!-- $\mathdefault{2^{28}}$ -->
       <g transform="translate(626.898322 41.515) scale(0.1 -0.1)">
        <use xlink:href="#DejaVuSans-32" transform="translate(0 0.765625)"/>
        <use xlink:href="#DejaVuSans-32" transform="translate(64.580078 39.046875) scale(0.7)"/>
        <use xlink:href="#DejaVuSans-38" transform="translate(109.116211 39.046875) scale(0.7)"/>
       </g>
      </g>
     </g>
     <g id="text_15">
      <!-- Array length (u32) -->
      <g transform="translate(307.85 29.916562) scale(0.1 -0.1)">
       <defs>
        <path id="DejaVuSans-41" d="M 2188 4044 
L 1331 1722 
L 3047 1722 
L 2188 4044 
z
M 1831 4666 
L 2547 4666 
L 4325 0 
L 3669 0 
L 3244 1197 
L 1141 1197 
L 716 0 
L 50 0 
L 1831 4666 
z
" transform="scale(0.015625)"/>
        <path id="DejaVuSans-72" d="M 2631 2963 
Q 2534 3019 2420 3045 
Q 2306 3072 2169 3072 
Q 1681 3072 1420 2755 
Q 1159 2438 1159 1844 
L 1159 0 
L 581 0 
L 581 3500 
L 1159 3500 
L 1159 2956 
Q 1341 3275 1631 3429 
Q 1922 3584 2338 3584 
Q 2397 3584 2469 3576 
Q 2541 3569 2628 3553 
L 2631 2963 
z
" transform="scale(0.015625)"/>
        <path id="DejaVuSans-61" d="M 2194 1759 
Q 1497 1759 1228 1600 
Q 959 1441 959 1056 
Q 959 750 1161 570 
Q 1363 391 1709 391 
Q 2188 391 2477 730 
Q 2766 1069 2766 1631 
L 2766 1759 
L 2194 1759 
z
M 3341 1997 
L 3341 0 
L 2766 0 
L 2766 531 
Q 2569 213 2275 61 
Q 1981 -91 1556 -91 
Q 1019 -91 701 211 
Q 384 513 384 1019 
Q 384 1609 779 1909 
Q 1175 2209 1959 2209 
L 2766 2209 
L 2766 2266 
Q 2766 2663 2505 2880 
Q 2244 3097 1772 3097 
Q 1472 3097 1187 3025 
Q 903 2953 641 2809 
L 641 3341 
Q 956 3463 1253 3523 
Q 1550 3584 1831 3584 
Q 2591 3584 2966 3190 
Q 3341 2797 3341 1997 
z
" transform="scale(0.015625)"/>
        <path id="DejaVuSans-79" d="M 2059 -325 
Q 1816 -950 1584 -1140 
Q 1353 -1331 966 -1331 
L 506 -1331 
L 506 -850 
L 844 -850 
Q 1081 -850 1212 -737 
Q 1344 -625 1503 -206 
L 1606 56 
L 191 3500 
L 800 3500 
L 1894 763 
L 2988 3500 
L 3597 3500 
L 2059 -325 
z
" transform="scale(0.015625)"/>
        <path id="DejaVuSans-20" transform="scale(0.015625)"/>
        <path id="DejaVuSans-6c" d="M 603 4863 
L 1178 4863 
L 1178 0 
L 603 0 
L 603 4863 
z
" transform="scale(0.015625)"/>
        <path id="DejaVuSans-65" d="M 3597 1894 
L 3597 1613 
L 953 1613 
Q 991 1019 1311 708 
Q 1631 397 2203 397 
Q 2534 397 2845 478 
Q 3156 559 3463 722 
L 3463 178 
Q 3153 47 2828 -22 
Q 2503 -91 2169 -91 
Q 1331 -91 842 396 
Q 353 884 353 1716 
Q 353 2575 817 3079 
Q 1281 3584 2069 3584 
Q 2775 3584 3186 3129 
Q 3597 2675 3597 1894 
z
M 3022 2063 
Q 3016 2534 2758 2815 
Q 2500 3097 2075 3097 
Q 1594 3097 1305 2825 
Q 1016 2553 972 2059 
L 3022 2063 
z
" transform="scale(0.015625)"/>
        <path id="DejaVuSans-6e" d="M 3513 2113 
L 3513 0 
L 2938 0 
L 2938 2094 
Q 2938 2591 2744 2837 
Q 2550 3084 2163 3084 
Q 1697 3084 1428 2787 
Q 1159 2491 1159 1978 
L 1159 0 
L 581 0 
L 581 3500 
L 1159 3500 
L 1159 2956 
Q 1366 3272 1645 3428 
Q 1925 3584 2291 3584 
Q 2894 3584 3203 3211 
Q 3513 2838 3513 2113 
z
" transform="scale(0.015625)"/>
        <path id="DejaVuSans-67" d="M 2906 1791 
Q 2906 2416 2648 2759 
Q 2391 3103 1925 3103 
Q 1463 3103 1205 2759 
Q 947 2416 947 1791 
Q 947 1169 1205 825 
Q 1463 481 1925 481 
Q 2391 481 2648 825 
Q 2906 1169 2906 1791 
z
M 3481 434 
Q 3481 -459 3084 -895 
Q 2688 -1331 1869 -1331 
Q 1566 -1331 1297 -1286 
Q 1028 -1241 775 -1147 
L 775 -588 
Q 1028 -725 1275 -790 
Q 1522 -856 1778 -856 
Q 2344 -856 2625 -561 
Q 2906 -266 2906 331 
L 2906 616 
Q 2728 306 2450 153 
Q 2172 0 1784 0 
Q 1141 0 747 490 
Q 353 981 353 1791 
Q 353 2603 747 3093 
Q 1141 3584 1784 3584 
Q 2172 3584 2450 3431 
Q 2728 3278 2906 2969 
L 2906 3500 
L 3481 3500 
L 3481 434 
z
" transform="scale(0.015625)"/>
        <path id="DejaVuSans-74" d="M 1172 4494 
L 1172 3500 
L 2356 3500 
L 2356 3053 
L 1172 3053 
L 1172 1153 
Q 1172 725 1289 603 
Q 1406 481 1766 481 
L 2356 481 
L 2356 0 
L 1766 0 
Q 1100 0 847 248 
Q 594 497 594 1153 
L 594 3053 
L 172 3053 
L 172 3500 
L 594 3500 
L 594 4494 
L 1172 4494 
z
" transform="scale(0.015625)"/>
        <path id="DejaVuSans-68" d="M 3513 2113 
L 3513 0 
L 2938 0 
L 2938 2094 
Q 2938 2591 2744 2837 
Q 2550 3084 2163 3084 
Q 1697 3084 1428 2787 
Q 1159 2491 1159 1978 
L 1159 0 
L 581 0 
L 581 4863 
L 1159 4863 
L 1159 2956 
Q 1366 3272 1645 3428 
Q 1925 3584 2291 3584 
Q 2894 3584 3203 3211 
Q 3513 2838 3513 2113 
z
" transform="scale(0.015625)"/>
        <path id="DejaVuSans-28" d="M 1984 4856 
Q 1566 4138 1362 3434 
Q 1159 2731 1159 2009 
Q 1159 1288 1364 580 
Q 1569 -128 1984 -844 
L 1484 -844 
Q 1016 -109 783 600 
Q 550 1309 550 2009 
Q 550 2706 781 3412 
Q 1013 4119 1484 4856 
L 1984 4856 
z
" transform="scale(0.015625)"/>
        <path id="DejaVuSans-75" d="M 544 1381 
L 544 3500 
L 1119 3500 
L 1119 1403 
Q 1119 906 1312 657 
Q 1506 409 1894 409 
Q 2359 409 2629 706 
Q 2900 1003 2900 1516 
L 2900 3500 
L 3475 3500 
L 3475 0 
L 2900 0 
L 2900 538 
Q 2691 219 2414 64 
Q 2138 -91 1772 -91 
Q 1169 -91 856 284 
Q 544 659 544 1381 
z
M 1991 3584 
L 1991 3584 
z
" transform="scale(0.015625)"/>
        <path id="DejaVuSans-33" d="M 2597 2516 
Q 3050 2419 3304 2112 
Q 3559 1806 3559 1356 
Q 3559 666 3084 287 
Q 2609 -91 1734 -91 
Q 1441 -91 1130 -33 
Q 819 25 488 141 
L 488 750 
Q 750 597 1062 519 
Q 1375 441 1716 441 
Q 2309 441 2620 675 
Q 2931 909 2931 1356 
Q 2931 1769 2642 2001 
Q 2353 2234 1838 2234 
L 1294 2234 
L 1294 2753 
L 1863 2753 
Q 2328 2753 2575 2939 
Q 2822 3125 2822 3475 
Q 2822 3834 2567 4026 
Q 2313 4219 1838 4219 
Q 1578 4219 1281 4162 
Q 984 4106 628 3988 
L 628 4550 
Q 988 4650 1302 4700 
Q 1616 4750 1894 4750 
Q 2613 4750 3031 4423 
Q 3450 4097 3450 3541 
Q 3450 3153 3228 2886 
Q 3006 2619 2597 2516 
z
" transform="scale(0.015625)"/>
        <path id="DejaVuSans-29" d="M 513 4856 
L 1013 4856 
Q 1481 4119 1714 3412 
Q 1947 2706 1947 2009 
Q 1947 1309 1714 600 
Q 1481 -109 1013 -844 
L 513 -844 
Q 928 -128 1133 580 
Q 1338 1288 1338 2009 
Q 1338 2731 1133 3434 
Q 928 4138 513 4856 
z
" transform="scale(0.015625)"/>
       </defs>
       <use xlink:href="#DejaVuSans-41"/>
       <use xlink:href="#DejaVuSans-72" x="68.408203"/>
       <use xlink:href="#DejaVuSans-72" x="107.771484"/>
       <use xlink:href="#DejaVuSans-61" x="148.884766"/>
       <use xlink:href="#DejaVuSans-79" x="210.164062"/>
       <use xlink:href="#DejaVuSans-20" x="269.34375"/>
       <use xlink:href="#DejaVuSans-6c" x="301.130859"/>
       <use xlink:href="#DejaVuSans-65" x="328.914062"/>
       <use xlink:href="#DejaVuSans-6e" x="390.4375"/>
       <use xlink:href="#DejaVuSans-67" x="453.816406"/>
       <use xlink:href="#DejaVuSans-74" x="517.292969"/>
       <use xlink:href="#DejaVuSans-68" x="556.501953"/>
       <use xlink:href="#DejaVuSans-20" x="619.880859"/>
       <use xlink:href="#DejaVuSans-28" x="651.667969"/>
       <use xlink:href="#DejaVuSans-75" x="690.681641"/>
       <use xlink:href="#DejaVuSans-33" x="754.060547"/>
       <use xlink:href="#DejaVuSans-32" x="817.683594"/>
       <use xlink:href="#DejaVuSans-29" x="881.306641"/>
      </g>
     </g>
    </g>
    <g id="matplotlib.axis_2"/>
    <g id="patch_4">
     <path d="M 46.965625 50.594687 
L 660.765625 50.594687 
" style="fill: none; stroke: #000000; stroke-width: 0.8; stroke-linejoin: miter; stroke-linecap: square"/>
    </g>
   </g>
   <g id="matplotlib.axis_3">
    <g id="xtick_15">
     <g id="line2d_18">
      <path d="M 52.470317 494.114688 
L 52.470317 50.594688 
" clip-path="url(#p965ef9a0ab)" style="fill: none; stroke: #b0b0b0; stroke-opacity: 0.4; stroke-width: 0.8; stroke-linecap: square"/>
     </g>
     <g id="line2d_19">
      <defs>
       <path id="m650238936b" d="M 0 0 
L 0 3.5 
" style="stroke: #000000; stroke-width: 0.8"/>
      </defs>
      <g>
       <use xlink:href="#m650238936b" x="52.470317" y="494.114688" style="stroke: #000000; stroke-width: 0.8"/>
      </g>
     </g>
     <g id="text_16">
      <!-- $\mathdefault{2^{4}}$ -->
      <g transform="translate(46.870317 508.713125) scale(0.1 -0.1)">
       <use xlink:href="#DejaVuSans-32" transform="translate(0 0.684375)"/>
       <use xlink:href="#DejaVuSans-34" transform="translate(64.580078 38.965625) scale(0.7)"/>
      </g>
     </g>
    </g>
    <g id="xtick_16">
     <g id="line2d_20">
      <path d="M 97.260933 494.114688 
L 97.260933 50.594688 
" clip-path="url(#p965ef9a0ab)" style="fill: none; stroke: #b0b0b0; stroke-opacity: 0.4; stroke-width: 0.8; stroke-linecap: square"/>
     </g>
     <g id="line2d_21">
      <g>
       <use xlink:href="#m650238936b" x="97.260933" y="494.114688" style="stroke: #000000; stroke-width: 0.8"/>
      </g>
     </g>
     <g id="text_17">
      <!-- $\mathdefault{2^{6}}$ -->
      <g transform="translate(91.660933 508.713125) scale(0.1 -0.1)">
       <use xlink:href="#DejaVuSans-32" transform="translate(0 0.765625)"/>
       <use xlink:href="#DejaVuSans-36" transform="translate(64.580078 39.046875) scale(0.7)"/>
      </g>
     </g>
    </g>
    <g id="xtick_17">
     <g id="line2d_22">
      <path d="M 142.051549 494.114688 
L 142.051549 50.594688 
" clip-path="url(#p965ef9a0ab)" style="fill: none; stroke: #b0b0b0; stroke-opacity: 0.4; stroke-width: 0.8; stroke-linecap: square"/>
     </g>
     <g id="line2d_23">
      <g>
       <use xlink:href="#m650238936b" x="142.051549" y="494.114688" style="stroke: #000000; stroke-width: 0.8"/>
      </g>
     </g>
     <g id="text_18">
      <!-- $\mathdefault{2^{8}}$ -->
      <g transform="translate(136.451549 508.713125) scale(0.1 -0.1)">
       <use xlink:href="#DejaVuSans-32" transform="translate(0 0.765625)"/>
       <use xlink:href="#DejaVuSans-38" transform="translate(64.580078 39.046875) scale(0.7)"/>
      </g>
     </g>
    </g>
    <g id="xtick_18">
     <g id="line2d_24">
      <path d="M 186.842164 494.114688 
L 186.842164 50.594688 
" clip-path="url(#p965ef9a0ab)" style="fill: none; stroke: #b0b0b0; stroke-opacity: 0.4; stroke-width: 0.8; stroke-linecap: square"/>
     </g>
     <g id="line2d_25">
      <g>
       <use xlink:href="#m650238936b" x="186.842164" y="494.114688" style="stroke: #000000; stroke-width: 0.8"/>
      </g>
     </g>
     <g id="text_19">
      <!-- $\mathdefault{2^{10}}$ -->
      <g transform="translate(178.992164 508.713125) scale(0.1 -0.1)">
       <use xlink:href="#DejaVuSans-32" transform="translate(0 0.765625)"/>
       <use xlink:href="#DejaVuSans-31" transform="translate(64.580078 39.046875) scale(0.7)"/>
       <use xlink:href="#DejaVuSans-30" transform="translate(109.116211 39.046875) scale(0.7)"/>
      </g>
     </g>
    </g>
    <g id="xtick_19">
     <g id="line2d_26">
      <path d="M 231.63278 494.114688 
L 231.63278 50.594688 
" clip-path="url(#p965ef9a0ab)" style="fill: none; stroke: #b0b0b0; stroke-opacity: 0.4; stroke-width: 0.8; stroke-linecap: square"/>
     </g>
     <g id="line2d_27">
      <g>
       <use xlink:href="#m650238936b" x="231.63278" y="494.114688" style="stroke: #000000; stroke-width: 0.8"/>
      </g>
     </g>
     <g id="text_20">
      <!-- $\mathdefault{2^{12}}$ -->
      <g transform="translate(223.78278 508.713125) scale(0.1 -0.1)">
       <use xlink:href="#DejaVuSans-32" transform="translate(0 0.765625)"/>
       <use xlink:href="#DejaVuSans-31" transform="translate(64.580078 39.046875) scale(0.7)"/>
       <use xlink:href="#DejaVuSans-32" transform="translate(109.116211 39.046875) scale(0.7)"/>
      </g>
     </g>
    </g>
    <g id="xtick_20">
     <g id="line2d_28">
      <path d="M 276.423396 494.114688 
L 276.423396 50.594688 
" clip-path="url(#p965ef9a0ab)" style="fill: none; stroke: #b0b0b0; stroke-opacity: 0.4; stroke-width: 0.8; stroke-linecap: square"/>
     </g>
     <g id="line2d_29">
      <g>
       <use xlink:href="#m650238936b" x="276.423396" y="494.114688" style="stroke: #000000; stroke-width: 0.8"/>
      </g>
     </g>
     <g id="text_21">
      <!-- $\mathdefault{2^{14}}$ -->
      <g transform="translate(268.573396 508.713125) scale(0.1 -0.1)">
       <use xlink:href="#DejaVuSans-32" transform="translate(0 0.684375)"/>
       <use xlink:href="#DejaVuSans-31" transform="translate(64.580078 38.965625) scale(0.7)"/>
       <use xlink:href="#DejaVuSans-34" transform="translate(109.116211 38.965625) scale(0.7)"/>
      </g>
     </g>
    </g>
    <g id="xtick_21">
     <g id="line2d_30">
      <path d="M 321.214012 494.114688 
L 321.214012 50.594688 
" clip-path="url(#p965ef9a0ab)" style="fill: none; stroke: #b0b0b0; stroke-opacity: 0.4; stroke-width: 0.8; stroke-linecap: square"/>
     </g>
     <g id="line2d_31">
      <g>
       <use xlink:href="#m650238936b" x="321.214012" y="494.114688" style="stroke: #000000; stroke-width: 0.8"/>
      </g>
     </g>
     <g id="text_22">
      <!-- $\mathdefault{2^{16}}$ -->
      <g transform="translate(313.364012 508.713125) scale(0.1 -0.1)">
       <use xlink:href="#DejaVuSans-32" transform="translate(0 0.765625)"/>
       <use xlink:href="#DejaVuSans-31" transform="translate(64.580078 39.046875) scale(0.7)"/>
       <use xlink:href="#DejaVuSans-36" transform="translate(109.116211 39.046875) scale(0.7)"/>
      </g>
     </g>
    </g>
    <g id="xtick_22">
     <g id="line2d_32">
      <path d="M 366.004627 494.114688 
L 366.004627 50.594688 
" clip-path="url(#p965ef9a0ab)" style="fill: none; stroke: #b0b0b0; stroke-opacity: 0.4; stroke-width: 0.8; stroke-linecap: square"/>
     </g>
     <g id="line2d_33">
      <g>
       <use xlink:href="#m650238936b" x="366.004627" y="494.114688" style="stroke: #000000; stroke-width: 0.8"/>
      </g>
     </g>
     <g id="text_23">
      <!-- $\mathdefault{2^{18}}$ -->
      <g transform="translate(358.154627 508.713125) scale(0.1 -0.1)">
       <use xlink:href="#DejaVuSans-32" transform="translate(0 0.765625)"/>
       <use xlink:href="#DejaVuSans-31" transform="translate(64.580078 39.046875) scale(0.7)"/>
       <use xlink:href="#DejaVuSans-38" transform="translate(109.116211 39.046875) scale(0.7)"/>
      </g>
     </g>
    </g>
    <g id="xtick_23">
     <g id="line2d_34">
      <path d="M 410.795243 494.114688 
L 410.795243 50.594688 
" clip-path="url(#p965ef9a0ab)" style="fill: none; stroke: #b0b0b0; stroke-opacity: 0.4; stroke-width: 0.8; stroke-linecap: square"/>
     </g>
     <g id="line2d_35">
      <g>
       <use xlink:href="#m650238936b" x="410.795243" y="494.114688" style="stroke: #000000; stroke-width: 0.8"/>
      </g>
     </g>
     <g id="text_24">
      <!-- $\mathdefault{2^{20}}$ -->
      <g transform="translate(402.945243 508.713125) scale(0.1 -0.1)">
       <use xlink:href="#DejaVuSans-32" transform="translate(0 0.765625)"/>
       <use xlink:href="#DejaVuSans-32" transform="translate(64.580078 39.046875) scale(0.7)"/>
       <use xlink:href="#DejaVuSans-30" transform="translate(109.116211 39.046875) scale(0.7)"/>
      </g>
     </g>
    </g>
    <g id="xtick_24">
     <g id="line2d_36">
      <path d="M 455.585859 494.114688 
L 455.585859 50.594688 
" clip-path="url(#p965ef9a0ab)" style="fill: none; stroke: #b0b0b0; stroke-opacity: 0.4; stroke-width: 0.8; stroke-linecap: square"/>
     </g>
     <g id="line2d_37">
      <g>
       <use xlink:href="#m650238936b" x="455.585859" y="494.114688" style="stroke: #000000; stroke-width: 0.8"/>
      </g>
     </g>
     <g id="text_25">
      <!-- $\mathdefault{2^{22}}$ -->
      <g transform="translate(447.735859 508.713125) scale(0.1 -0.1)">
       <use xlink:href="#DejaVuSans-32" transform="translate(0 0.765625)"/>
       <use xlink:href="#DejaVuSans-32" transform="translate(64.580078 39.046875) scale(0.7)"/>
       <use xlink:href="#DejaVuSans-32" transform="translate(109.116211 39.046875) scale(0.7)"/>
      </g>
     </g>
    </g>
    <g id="xtick_25">
     <g id="line2d_38">
      <path d="M 500.376474 494.114688 
L 500.376474 50.594688 
" clip-path="url(#p965ef9a0ab)" style="fill: none; stroke: #b0b0b0; stroke-opacity: 0.4; stroke-width: 0.8; stroke-linecap: square"/>
     </g>
     <g id="line2d_39">
      <g>
       <use xlink:href="#m650238936b" x="500.376474" y="494.114688" style="stroke: #000000; stroke-width: 0.8"/>
      </g>
     </g>
     <g id="text_26">
      <!-- $\mathdefault{2^{24}}$ -->
      <g transform="translate(492.526474 508.713125) scale(0.1 -0.1)">
       <use xlink:href="#DejaVuSans-32" transform="translate(0 0.765625)"/>
       <use xlink:href="#DejaVuSans-32" transform="translate(64.580078 39.046875) scale(0.7)"/>
       <use xlink:href="#DejaVuSans-34" transform="translate(109.116211 39.046875) scale(0.7)"/>
      </g>
     </g>
    </g>
    <g id="xtick_26">
     <g id="line2d_40">
      <path d="M 545.16709 494.114688 
L 545.16709 50.594688 
" clip-path="url(#p965ef9a0ab)" style="fill: none; stroke: #b0b0b0; stroke-opacity: 0.4; stroke-width: 0.8; stroke-linecap: square"/>
     </g>
     <g id="line2d_41">
      <g>
       <use xlink:href="#m650238936b" x="545.16709" y="494.114688" style="stroke: #000000; stroke-width: 0.8"/>
      </g>
     </g>
     <g id="text_27">
      <!-- $\mathdefault{2^{26}}$ -->
      <g transform="translate(537.31709 508.713125) scale(0.1 -0.1)">
       <use xlink:href="#DejaVuSans-32" transform="translate(0 0.765625)"/>
       <use xlink:href="#DejaVuSans-32" transform="translate(64.580078 39.046875) scale(0.7)"/>
       <use xlink:href="#DejaVuSans-36" transform="translate(109.116211 39.046875) scale(0.7)"/>
      </g>
     </g>
    </g>
    <g id="xtick_27">
     <g id="line2d_42">
      <path d="M 589.957706 494.114688 
L 589.957706 50.594688 
" clip-path="url(#p965ef9a0ab)" style="fill: none; stroke: #b0b0b0; stroke-opacity: 0.4; stroke-width: 0.8; stroke-linecap: square"/>
     </g>
     <g id="line2d_43">
      <g>
       <use xlink:href="#m650238936b" x="589.957706" y="494.114688" style="stroke: #000000; stroke-width: 0.8"/>
      </g>
     </g>
     <g id="text_28">
      <!-- $\mathdefault{2^{28}}$ -->
      <g transform="translate(582.107706 508.713125) scale(0.1 -0.1)">
       <use xlink:href="#DejaVuSans-32" transform="translate(0 0.765625)"/>
       <use xlink:href="#DejaVuSans-32" transform="translate(64.580078 39.046875) scale(0.7)"/>
       <use xlink:href="#DejaVuSans-38" transform="translate(109.116211 39.046875) scale(0.7)"/>
      </g>
     </g>
    </g>
    <g id="xtick_28">
     <g id="line2d_44">
      <path d="M 634.748322 494.114688 
L 634.748322 50.594688 
" clip-path="url(#p965ef9a0ab)" style="fill: none; stroke: #b0b0b0; stroke-opacity: 0.4; stroke-width: 0.8; stroke-linecap: square"/>
     </g>
     <g id="line2d_45">
      <g>
       <use xlink:href="#m650238936b" x="634.748322" y="494.114688" style="stroke: #000000; stroke-width: 0.8"/>
      </g>
     </g>
     <g id="text_29">
      <!-- $\mathdefault{2^{30}}$ -->
      <g transform="translate(626.898322 508.713125) scale(0.1 -0.1)">
       <use xlink:href="#DejaVuSans-32" transform="translate(0 0.765625)"/>
       <use xlink:href="#DejaVuSans-33" transform="translate(64.580078 39.046875) scale(0.7)"/>
       <use xlink:href="#DejaVuSans-30" transform="translate(109.116211 39.046875) scale(0.7)"/>
      </g>
     </g>
    </g>
    <g id="text_30">
     <!-- Input size (bytes) -->
     <g transform="translate(310.369531 522.39125) scale(0.1 -0.1)">
      <defs>
       <path id="DejaVuSans-49" d="M 628 4666 
L 1259 4666 
L 1259 0 
L 628 0 
L 628 4666 
z
" transform="scale(0.015625)"/>
       <path id="DejaVuSans-70" d="M 1159 525 
L 1159 -1331 
L 581 -1331 
L 581 3500 
L 1159 3500 
L 1159 2969 
Q 1341 3281 1617 3432 
Q 1894 3584 2278 3584 
Q 2916 3584 3314 3078 
Q 3713 2572 3713 1747 
Q 3713 922 3314 415 
Q 2916 -91 2278 -91 
Q 1894 -91 1617 61 
Q 1341 213 1159 525 
z
M 3116 1747 
Q 3116 2381 2855 2742 
Q 2594 3103 2138 3103 
Q 1681 3103 1420 2742 
Q 1159 2381 1159 1747 
Q 1159 1113 1420 752 
Q 1681 391 2138 391 
Q 2594 391 2855 752 
Q 3116 1113 3116 1747 
z
" transform="scale(0.015625)"/>
       <path id="DejaVuSans-73" d="M 2834 3397 
L 2834 2853 
Q 2591 2978 2328 3040 
Q 2066 3103 1784 3103 
Q 1356 3103 1142 2972 
Q 928 2841 928 2578 
Q 928 2378 1081 2264 
Q 1234 2150 1697 2047 
L 1894 2003 
Q 2506 1872 2764 1633 
Q 3022 1394 3022 966 
Q 3022 478 2636 193 
Q 2250 -91 1575 -91 
Q 1294 -91 989 -36 
Q 684 19 347 128 
L 347 722 
Q 666 556 975 473 
Q 1284 391 1588 391 
Q 1994 391 2212 530 
Q 2431 669 2431 922 
Q 2431 1156 2273 1281 
Q 2116 1406 1581 1522 
L 1381 1569 
Q 847 1681 609 1914 
Q 372 2147 372 2553 
Q 372 3047 722 3315 
Q 1072 3584 1716 3584 
Q 2034 3584 2315 3537 
Q 2597 3491 2834 3397 
z
" transform="scale(0.015625)"/>
       <path id="DejaVuSans-69" d="M 603 3500 
L 1178 3500 
L 1178 0 
L 603 0 
L 603 3500 
z
M 603 4863 
L 1178 4863 
L 1178 4134 
L 603 4134 
L 603 4863 
z
" transform="scale(0.015625)"/>
       <path id="DejaVuSans-7a" d="M 353 3500 
L 3084 3500 
L 3084 2975 
L 922 459 
L 3084 459 
L 3084 0 
L 275 0 
L 275 525 
L 2438 3041 
L 353 3041 
L 353 3500 
z
" transform="scale(0.015625)"/>
       <path id="DejaVuSans-62" d="M 3116 1747 
Q 3116 2381 2855 2742 
Q 2594 3103 2138 3103 
Q 1681 3103 1420 2742 
Q 1159 2381 1159 1747 
Q 1159 1113 1420 752 
Q 1681 391 2138 391 
Q 2594 391 2855 752 
Q 3116 1113 3116 1747 
z
M 1159 2969 
Q 1341 3281 1617 3432 
Q 1894 3584 2278 3584 
Q 2916 3584 3314 3078 
Q 3713 2572 3713 1747 
Q 3713 922 3314 415 
Q 2916 -91 2278 -91 
Q 1894 -91 1617 61 
Q 1341 213 1159 525 
L 1159 0 
L 581 0 
L 581 4863 
L 1159 4863 
L 1159 2969 
z
" transform="scale(0.015625)"/>
      </defs>
      <use xlink:href="#DejaVuSans-49"/>
      <use xlink:href="#DejaVuSans-6e" x="29.492188"/>
      <use xlink:href="#DejaVuSans-70" x="92.871094"/>
      <use xlink:href="#DejaVuSans-75" x="156.347656"/>
      <use xlink:href="#DejaVuSans-74" x="219.726562"/>
      <use xlink:href="#DejaVuSans-20" x="258.935547"/>
      <use xlink:href="#DejaVuSans-73" x="290.722656"/>
      <use xlink:href="#DejaVuSans-69" x="342.822266"/>
      <use xlink:href="#DejaVuSans-7a" x="370.605469"/>
      <use xlink:href="#DejaVuSans-65" x="423.095703"/>
      <use xlink:href="#DejaVuSans-20" x="484.619141"/>
      <use xlink:href="#DejaVuSans-28" x="516.40625"/>
      <use xlink:href="#DejaVuSans-62" x="555.419922"/>
      <use xlink:href="#DejaVuSans-79" x="618.896484"/>
      <use xlink:href="#DejaVuSans-74" x="678.076172"/>
      <use xlink:href="#DejaVuSans-65" x="717.285156"/>
      <use xlink:href="#DejaVuSans-73" x="778.808594"/>
      <use xlink:href="#DejaVuSans-29" x="830.908203"/>
     </g>
    </g>
   </g>
   <g id="matplotlib.axis_4">
    <g id="ytick_1">
     <g id="line2d_46">
      <path d="M 46.965625 494.114688 
L 660.765625 494.114688 
" clip-path="url(#p965ef9a0ab)" style="fill: none; stroke: #b0b0b0; stroke-opacity: 0.4; stroke-width: 0.8; stroke-linecap: square"/>
     </g>
     <g id="line2d_47">
      <defs>
       <path id="mb24c52405f" d="M 0 0 
L -3.5 0 
" style="stroke: #000000; stroke-width: 0.8"/>
      </defs>
      <g>
       <use xlink:href="#mb24c52405f" x="46.965625" y="494.114688" style="stroke: #000000; stroke-width: 0.8"/>
      </g>
     </g>
     <g id="text_31">
      <!-- 0 -->
      <g transform="translate(33.603125 497.913906) scale(0.1 -0.1)">
       <use xlink:href="#DejaVuSans-30"/>
      </g>
     </g>
    </g>
    <g id="ytick_2">
     <g id="line2d_48">
      <path d="M 46.965625 405.410688 
L 660.765625 405.410688 
" clip-path="url(#p965ef9a0ab)" style="fill: none; stroke: #b0b0b0; stroke-opacity: 0.4; stroke-width: 0.8; stroke-linecap: square"/>
     </g>
     <g id="line2d_49">
      <g>
       <use xlink:href="#mb24c52405f" x="46.965625" y="405.410688" style="stroke: #000000; stroke-width: 0.8"/>
      </g>
     </g>
     <g id="text_32">
      <!-- 100 -->
      <g transform="translate(20.878125 409.209906) scale(0.1 -0.1)">
       <use xlink:href="#DejaVuSans-31"/>
       <use xlink:href="#DejaVuSans-30" x="63.623047"/>
       <use xlink:href="#DejaVuSans-30" x="127.246094"/>
      </g>
     </g>
    </g>
    <g id="ytick_3">
     <g id="line2d_50">
      <path d="M 46.965625 316.706688 
L 660.765625 316.706688 
" clip-path="url(#p965ef9a0ab)" style="fill: none; stroke: #b0b0b0; stroke-opacity: 0.4; stroke-width: 0.8; stroke-linecap: square"/>
     </g>
     <g id="line2d_51">
      <g>
       <use xlink:href="#mb24c52405f" x="46.965625" y="316.706688" style="stroke: #000000; stroke-width: 0.8"/>
      </g>
     </g>
     <g id="text_33">
      <!-- 200 -->
      <g transform="translate(20.878125 320.505906) scale(0.1 -0.1)">
       <use xlink:href="#DejaVuSans-32"/>
       <use xlink:href="#DejaVuSans-30" x="63.623047"/>
       <use xlink:href="#DejaVuSans-30" x="127.246094"/>
      </g>
     </g>
    </g>
    <g id="ytick_4">
     <g id="line2d_52">
      <path d="M 46.965625 228.002688 
L 660.765625 228.002688 
" clip-path="url(#p965ef9a0ab)" style="fill: none; stroke: #b0b0b0; stroke-opacity: 0.4; stroke-width: 0.8; stroke-linecap: square"/>
     </g>
     <g id="line2d_53">
      <g>
       <use xlink:href="#mb24c52405f" x="46.965625" y="228.002688" style="stroke: #000000; stroke-width: 0.8"/>
      </g>
     </g>
     <g id="text_34">
      <!-- 300 -->
      <g transform="translate(20.878125 231.801906) scale(0.1 -0.1)">
       <use xlink:href="#DejaVuSans-33"/>
       <use xlink:href="#DejaVuSans-30" x="63.623047"/>
       <use xlink:href="#DejaVuSans-30" x="127.246094"/>
      </g>
     </g>
    </g>
    <g id="ytick_5">
     <g id="line2d_54">
      <path d="M 46.965625 139.298688 
L 660.765625 139.298688 
" clip-path="url(#p965ef9a0ab)" style="fill: none; stroke: #b0b0b0; stroke-opacity: 0.4; stroke-width: 0.8; stroke-linecap: square"/>
     </g>
     <g id="line2d_55">
      <g>
       <use xlink:href="#mb24c52405f" x="46.965625" y="139.298688" style="stroke: #000000; stroke-width: 0.8"/>
      </g>
     </g>
     <g id="text_35">
      <!-- 400 -->
      <g transform="translate(20.878125 143.097906) scale(0.1 -0.1)">
       <use xlink:href="#DejaVuSans-34"/>
       <use xlink:href="#DejaVuSans-30" x="63.623047"/>
       <use xlink:href="#DejaVuSans-30" x="127.246094"/>
      </g>
     </g>
    </g>
    <g id="ytick_6">
     <g id="line2d_56">
      <path d="M 46.965625 50.594688 
L 660.765625 50.594688 
" clip-path="url(#p965ef9a0ab)" style="fill: none; stroke: #b0b0b0; stroke-opacity: 0.4; stroke-width: 0.8; stroke-linecap: square"/>
     </g>
     <g id="line2d_57">
      <g>
       <use xlink:href="#mb24c52405f" x="46.965625" y="50.594688" style="stroke: #000000; stroke-width: 0.8"/>
      </g>
     </g>
     <g id="text_36">
      <!-- 500 -->
      <g transform="translate(20.878125 54.393906) scale(0.1 -0.1)">
       <defs>
        <path id="DejaVuSans-35" d="M 691 4666 
L 3169 4666 
L 3169 4134 
L 1269 4134 
L 1269 2991 
Q 1406 3038 1543 3061 
Q 1681 3084 1819 3084 
Q 2600 3084 3056 2656 
Q 3513 2228 3513 1497 
Q 3513 744 3044 326 
Q 2575 -91 1722 -91 
Q 1428 -91 1123 -41 
Q 819 9 494 109 
L 494 744 
Q 775 591 1075 516 
Q 1375 441 1709 441 
Q 2250 441 2565 725 
Q 2881 1009 2881 1497 
Q 2881 1984 2565 2268 
Q 2250 2553 1709 2553 
Q 1456 2553 1204 2497 
Q 953 2441 691 2322 
L 691 4666 
z
" transform="scale(0.015625)"/>
       </defs>
       <use xlink:href="#DejaVuSans-35"/>
       <use xlink:href="#DejaVuSans-30" x="63.623047"/>
       <use xlink:href="#DejaVuSans-30" x="127.246094"/>
      </g>
     </g>
    </g>
    <g id="text_37">
     <!-- Inverse throughput (ns) -->
     <g transform="translate(14.798438 331.570313) rotate(-90) scale(0.1 -0.1)">
      <defs>
       <path id="DejaVuSans-76" d="M 191 3500 
L 800 3500 
L 1894 563 
L 2988 3500 
L 3597 3500 
L 2284 0 
L 1503 0 
L 191 3500 
z
" transform="scale(0.015625)"/>
       <path id="DejaVuSans-6f" d="M 1959 3097 
Q 1497 3097 1228 2736 
Q 959 2375 959 1747 
Q 959 1119 1226 758 
Q 1494 397 1959 397 
Q 2419 397 2687 759 
Q 2956 1122 2956 1747 
Q 2956 2369 2687 2733 
Q 2419 3097 1959 3097 
z
M 1959 3584 
Q 2709 3584 3137 3096 
Q 3566 2609 3566 1747 
Q 3566 888 3137 398 
Q 2709 -91 1959 -91 
Q 1206 -91 779 398 
Q 353 888 353 1747 
Q 353 2609 779 3096 
Q 1206 3584 1959 3584 
z
" transform="scale(0.015625)"/>
      </defs>
      <use xlink:href="#DejaVuSans-49"/>
      <use xlink:href="#DejaVuSans-6e" x="29.492188"/>
      <use xlink:href="#DejaVuSans-76" x="92.871094"/>
      <use xlink:href="#DejaVuSans-65" x="152.050781"/>
      <use xlink:href="#DejaVuSans-72" x="213.574219"/>
      <use xlink:href="#DejaVuSans-73" x="254.6875"/>
      <use xlink:href="#DejaVuSans-65" x="306.787109"/>
      <use xlink:href="#DejaVuSans-20" x="368.310547"/>
      <use xlink:href="#DejaVuSans-74" x="400.097656"/>
      <use xlink:href="#DejaVuSans-68" x="439.306641"/>
      <use xlink:href="#DejaVuSans-72" x="502.685547"/>
      <use xlink:href="#DejaVuSans-6f" x="541.548828"/>
      <use xlink:href="#DejaVuSans-75" x="602.730469"/>
      <use xlink:href="#DejaVuSans-67" x="666.109375"/>
      <use xlink:href="#DejaVuSans-68" x="729.585938"/>
      <use xlink:href="#DejaVuSans-70" x="792.964844"/>
      <use xlink:href="#DejaVuSans-75" x="856.441406"/>
      <use xlink:href="#DejaVuSans-74" x="919.820312"/>
      <use xlink:href="#DejaVuSans-20" x="959.029297"/>
      <use xlink:href="#DejaVuSans-28" x="990.816406"/>
      <use xlink:href="#DejaVuSans-6e" x="1029.830078"/>
      <use xlink:href="#DejaVuSans-73" x="1093.208984"/>
      <use xlink:href="#DejaVuSans-29" x="1145.308594"/>
     </g>
    </g>
   </g>
   <g id="line2d_58">
    <path d="M 74.865625 485.121957 
L 79.556398 485.245379 
L 84.411955 484.82638 
L 89.924798 484.593498 
L 94.632688 484.873478 
L 100.156266 484.845167 
L 105.26842 484.650125 
L 110.361348 485.350441 
L 115.341895 484.836142 
L 120.404759 483.384934 
L 125.420521 483.091144 
L 130.491444 483.157537 
L 135.651989 483.152013 
L 140.764143 483.774461 
L 145.857071 481.155133 
L 150.933635 481.047582 
L 155.982591 481.181081 
L 161.056721 480.993546 
L 166.167165 478.840763 
L 171.198957 478.384901 
L 176.303617 478.934985 
L 181.390168 478.932329 
L 186.4613 478.839627 
L 191.532937 477.256658 
L 196.599134 476.811701 
L 201.682827 476.170502 
L 206.745843 477.367537 
L 211.828474 474.997985 
L 216.89834 482.488049 
L 221.967664 475.073429 
L 227.046847 475.25681 
L 232.118177 474.289866 
L 237.191835 473.461678 
L 242.264279 473.326743 
L 247.333903 473.351216 
L 252.410653 473.338484 
L 257.481113 471.879486 
L 262.55469 471.580539 
L 267.626848 472.801824 
L 272.700838 471.526322 
L 277.773245 469.181366 
L 282.847412 469.417754 
L 287.918813 469.145833 
L 292.992191 469.292096 
L 298.065555 469.147414 
L 303.138102 466.852025 
L 308.210573 466.711583 
L 313.283465 466.505695 
L 318.356064 466.680332 
L 323.42881 465.134952 
L 328.501688 463.902287 
L 333.574396 464.236088 
L 338.647337 464.004358 
L 343.720056 461.991493 
L 348.792838 461.308139 
L 353.865608 461.428378 
L 358.938341 461.598614 
L 364.011048 461.444626 
L 369.083792 458.697984 
L 374.156471 476.593485 
L 379.229205 458.796107 
L 384.301927 459.974292 
L 389.374668 456.067549 
L 394.447406 455.36939 
L 399.52014 476.285667 
L 404.592884 456.240779 
L 409.665598 457.23671 
L 414.73835 452.213001 
L 419.811079 452.047884 
L 424.883802 452.99804 
L 429.956533 464.822283 
L 435.029256 437.375974 
L 440.101982 440.463468 
L 445.17471 439.878402 
L 450.247443 459.77185 
L 455.320172 429.364992 
L 460.392898 411.087531 
L 465.465626 407.21478 
L 470.538352 406.777337 
L 475.611079 402.411938 
L 480.683809 389.798338 
L 485.756536 391.142678 
L 490.829264 389.635572 
L 495.901992 385.656316 
L 500.974718 384.66771 
L 506.047445 380.863624 
L 511.120172 378.827166 
L 516.192899 376.94777 
L 521.265626 370.070853 
L 526.338353 368.161069 
L 531.411082 362.924517 
L 536.48381 363.194675 
L 541.556538 388.678468 
L 546.629267 352.029091 
L 551.701993 350.261326 
L 556.774719 343.841116 
L 561.847446 345.409161 
L 566.920173 345.494875 
L 571.992901 341.999852 
L 577.065628 340.237521 
L 582.138356 339.190463 
L 587.211084 335.805476 
L 592.283809 329.050872 
L 597.356535 326.29882 
L 602.429262 325.368679 
L 607.50199 354.987888 
L 612.574716 308.601672 
L 617.647443 305.875046 
L 622.720171 313.240773 
L 627.792898 312.168478 
L 632.865625 307.98089 
" clip-path="url(#p965ef9a0ab)" style="fill: none; stroke: #2ca02c; stroke-linecap: square"/>
   </g>
   <g id="line2d_59">
    <path d="M 74.865625 486.001254 
L 79.556398 485.459131 
L 84.411955 485.423536 
L 89.924798 484.724837 
L 94.632688 485.451921 
L 100.156266 485.361402 
L 105.26842 485.347864 
L 110.361348 486.037862 
L 115.341895 485.463336 
L 120.404759 484.15889 
L 125.420521 484.328487 
L 130.491444 484.17257 
L 135.651989 483.918566 
L 140.764143 483.825008 
L 145.857071 483.177693 
L 150.933635 482.465681 
L 155.982591 482.843687 
L 161.056721 482.701876 
L 166.167165 481.73539 
L 171.198957 481.493554 
L 176.303617 481.618158 
L 181.390168 481.42853 
L 186.4613 481.603812 
L 191.532937 478.830217 
L 196.599134 479.66531 
L 201.682827 480.137 
L 206.745843 480.895445 
L 211.828474 479.039524 
L 216.89834 479.140768 
L 221.967664 478.080222 
L 227.046847 478.833101 
L 232.118177 478.629211 
L 237.191835 477.695137 
L 242.264279 477.7641 
L 247.333903 477.683514 
L 252.410653 477.642767 
L 257.481113 476.343601 
L 262.55469 476.414271 
L 267.626848 476.182244 
L 272.700838 477.124395 
L 277.773245 475.049439 
L 282.847412 475.231423 
L 287.918813 474.767196 
L 292.992191 474.117627 
L 298.065555 474.82692 
L 303.138102 473.591755 
L 308.210573 473.539843 
L 313.283465 473.603141 
L 318.356064 473.433218 
L 323.42881 473.087964 
L 328.501688 472.016769 
L 333.574396 472.292478 
L 338.647337 472.002263 
L 343.720056 471.289002 
L 348.792838 483.178741 
L 353.865608 470.870566 
L 358.938341 470.885708 
L 364.011048 470.846861 
L 369.083792 469.097605 
L 374.156471 469.959128 
L 379.229205 468.893633 
L 384.301927 470.126368 
L 389.374668 466.958521 
L 394.447406 465.831354 
L 399.52014 465.917519 
L 404.592884 466.063268 
L 409.665598 467.033371 
L 414.73835 463.259903 
L 419.811079 464.183574 
L 424.883802 463.214164 
L 429.956533 461.699253 
L 435.029256 456.985695 
L 440.101982 447.287466 
L 445.17471 451.082204 
L 450.247443 446.522264 
L 455.320172 445.264547 
L 460.392898 432.69332 
L 465.465626 430.249786 
L 470.538352 429.467459 
L 475.611079 428.993735 
L 480.683809 421.714656 
L 485.756536 418.615016 
L 490.829264 417.984747 
L 495.901992 414.127768 
L 500.974718 412.645403 
L 506.047445 408.789388 
L 511.120172 405.279781 
L 516.192899 405.332198 
L 521.265626 402.143553 
L 526.338353 398.827622 
L 531.411082 395.09357 
L 536.48381 394.050224 
L 541.556538 412.711427 
L 546.629267 390.487976 
L 551.701993 383.281237 
L 556.774719 384.603884 
L 561.847446 383.62081 
L 566.920173 380.52386 
L 571.992901 376.996897 
L 577.065628 376.575091 
L 582.138356 376.495861 
L 587.211084 373.302905 
L 592.283809 367.517026 
L 597.356535 362.799209 
L 602.429262 364.589258 
L 607.50199 363.895873 
L 612.574716 352.383564 
L 617.647443 355.609323 
L 622.720171 355.413485 
L 627.792898 346.050019 
L 632.865625 352.585841 
" clip-path="url(#p965ef9a0ab)" style="fill: none; stroke: #d62728; stroke-linecap: square"/>
   </g>
   <g id="line2d_60">
    <path d="M 74.865625 486.907314 
L 79.556398 485.937276 
L 84.411955 486.915015 
L 89.924798 486.376264 
L 94.632688 486.48163 
L 100.156266 486.436005 
L 105.26842 486.060791 
L 110.361348 486.737348 
L 115.341895 486.453381 
L 120.404759 485.185711 
L 125.420521 485.529052 
L 130.491444 485.166684 
L 135.651989 485.199693 
L 140.764143 484.588431 
L 145.857071 484.067983 
L 150.933635 483.999139 
L 155.982591 484.121413 
L 161.056721 483.983911 
L 166.167165 482.913188 
L 171.198957 482.310767 
L 176.303617 482.832654 
L 181.390168 482.110285 
L 186.4613 482.973647 
L 191.532937 481.866364 
L 196.599134 481.877467 
L 201.682827 481.512662 
L 206.745843 481.685108 
L 211.828474 480.579365 
L 216.89834 480.779895 
L 221.967664 480.911059 
L 227.046847 480.924332 
L 232.118177 479.624857 
L 237.191835 479.646286 
L 242.264279 479.516528 
L 247.333903 479.642892 
L 252.410653 479.732355 
L 257.481113 477.823455 
L 262.55469 478.746928 
L 267.626848 478.828113 
L 272.700838 478.286308 
L 277.773245 477.785546 
L 282.847412 477.365793 
L 287.918813 477.188718 
L 292.992191 477.621949 
L 298.065555 477.701896 
L 303.138102 476.780751 
L 308.210573 476.565895 
L 313.283465 476.641739 
L 318.356064 476.78473 
L 323.42881 475.984193 
L 328.501688 475.536617 
L 333.574396 475.753907 
L 338.647337 474.154448 
L 343.720056 474.96961 
L 348.792838 484.584504 
L 353.865608 474.377272 
L 358.938341 473.840251 
L 364.011048 474.194741 
L 369.083792 472.896402 
L 374.156471 473.874635 
L 379.229205 472.646063 
L 384.301927 472.453611 
L 389.374668 470.671793 
L 394.447406 469.468712 
L 399.52014 483.013161 
L 404.592884 469.42941 
L 409.665598 469.435502 
L 414.73835 467.267887 
L 419.811079 466.695739 
L 424.883802 465.720063 
L 429.956533 465.894062 
L 435.029256 459.334003 
L 440.101982 456.698194 
L 445.17471 459.347144 
L 450.247443 457.0457 
L 455.320172 454.721048 
L 460.392898 445.952378 
L 465.465626 446.561745 
L 470.538352 440.988975 
L 475.611079 436.966594 
L 480.683809 436.772763 
L 485.756536 428.245061 
L 490.829264 428.702636 
L 495.901992 424.11785 
L 500.974718 424.358603 
L 506.047445 418.377862 
L 511.120172 411.283466 
L 516.192899 411.290146 
L 521.265626 408.697861 
L 526.338353 409.646253 
L 531.411082 406.023462 
L 536.48381 420.603895 
L 541.556538 418.518881 
L 546.629267 397.657647 
L 551.701993 397.941798 
L 556.774719 397.104518 
L 561.847446 402.975255 
L 566.920173 398.056496 
L 571.992901 395.373464 
L 577.065628 392.830917 
L 582.138356 398.98833 
L 587.211084 393.363021 
L 592.283809 393.770386 
L 597.356535 390.458838 
L 602.429262 388.05523 
L 607.50199 396.236126 
L 612.574716 378.733222 
L 617.647443 379.514139 
L 622.720171 390.634405 
L 627.792898 380.888248 
L 632.865625 386.173016 
" clip-path="url(#p965ef9a0ab)" style="fill: none; stroke: #d62728; stroke-linecap: square"/>
   </g>
   <g id="line2d_61">
    <path d="M 74.865625 485.09195 
L 79.556398 485.649722 
L 84.411955 485.000347 
L 89.924798 484.735376 
L 94.632688 485.017758 
L 100.156266 484.997202 
L 105.26842 485.08805 
L 110.361348 484.967096 
L 115.341895 484.940464 
L 120.404759 483.711762 
L 125.420521 483.387344 
L 130.491444 483.51074 
L 135.651989 483.553912 
L 140.764143 483.3053 
L 145.857071 481.769004 
L 150.933635 481.979019 
L 155.982591 482.121133 
L 161.056721 482.286608 
L 166.167165 480.669227 
L 171.198957 480.375807 
L 176.303617 480.816447 
L 181.390168 480.79318 
L 186.4613 481.005005 
L 191.532937 479.57786 
L 196.599134 479.409303 
L 201.682827 478.951723 
L 206.745843 479.455495 
L 211.828474 478.341911 
L 216.89834 478.143481 
L 221.967664 478.241514 
L 227.046847 478.30634 
L 232.118177 476.928085 
L 237.191835 476.933698 
L 242.264279 476.499066 
L 247.333903 476.635769 
L 252.410653 476.890934 
L 257.481113 484.656648 
L 262.55469 475.503007 
L 267.626848 475.712678 
L 272.700838 476.508438 
L 277.773245 474.30952 
L 282.847412 474.145298 
L 287.918813 473.934608 
L 292.992191 474.294548 
L 298.065555 474.288779 
L 303.138102 473.010914 
L 308.210573 472.96975 
L 313.283465 472.921743 
L 318.356064 473.021672 
L 323.42881 472.179384 
L 328.501688 471.445157 
L 333.574396 471.434899 
L 338.647337 468.895063 
L 343.720056 469.899483 
L 348.792838 481.932413 
L 353.865608 470.085788 
L 358.938341 469.877949 
L 364.011048 470.020587 
L 369.083792 468.066771 
L 374.156471 470.051303 
L 379.229205 468.071321 
L 384.301927 467.938553 
L 389.374668 466.890063 
L 394.447406 466.194819 
L 399.52014 468.096859 
L 404.592884 465.642349 
L 409.665598 465.731034 
L 414.73835 464.166012 
L 419.811079 462.752722 
L 424.883802 464.81508 
L 429.956533 462.253817 
L 435.029256 460.686252 
L 440.101982 457.419481 
L 445.17471 458.082168 
L 450.247443 454.242168 
L 455.320172 455.729775 
L 460.392898 451.362146 
L 465.465626 445.697183 
L 470.538352 441.137448 
L 475.611079 439.005765 
L 480.683809 437.593611 
L 485.756536 435.269387 
L 490.829264 433.674767 
L 495.901992 431.111872 
L 500.974718 433.403429 
L 506.047445 429.283476 
L 511.120172 426.453241 
L 516.192899 420.73482 
L 521.265626 420.183176 
L 526.338353 422.361564 
L 531.411082 416.997344 
L 536.48381 436.931701 
L 541.556538 416.840397 
L 546.629267 416.205377 
L 551.701993 413.110725 
L 556.774719 412.119213 
L 561.847446 415.92145 
L 566.920173 409.866339 
L 571.992901 411.012457 
L 577.065628 403.731795 
L 582.138356 409.216518 
L 587.211084 405.056411 
L 592.283809 403.023471 
L 597.356535 397.856591 
L 602.429262 396.854247 
L 607.50199 399.46144 
L 612.574716 386.552273 
L 617.647443 390.319632 
L 622.720171 394.353437 
L 627.792898 385.907949 
L 632.865625 387.603429 
" clip-path="url(#p965ef9a0ab)" style="fill: none; stroke: #e377c2; stroke-linecap: square"/>
   </g>
   <g id="line2d_62">
    <path d="M 74.865625 485.234586 
L 79.556398 484.601472 
L 84.411955 484.696224 
L 89.924798 484.56947 
L 94.632688 484.784042 
L 100.156266 484.704107 
L 105.26842 484.638693 
L 110.361348 484.572499 
L 115.341895 484.620707 
L 120.404759 482.221316 
L 125.420521 482.318009 
L 130.491444 482.599133 
L 135.651989 482.461444 
L 140.764143 481.765121 
L 145.857071 480.033903 
L 150.933635 479.752062 
L 155.982591 480.084582 
L 161.056721 479.568212 
L 166.167165 477.783196 
L 171.198957 477.823002 
L 176.303617 477.667099 
L 181.390168 477.744671 
L 186.4613 477.823162 
L 191.532937 474.77816 
L 196.599134 475.357344 
L 201.682827 474.854862 
L 206.745843 475.004932 
L 211.828474 472.695009 
L 216.89834 472.411889 
L 221.967664 472.796925 
L 227.046847 472.941956 
L 232.118177 470.526002 
L 237.191835 470.477984 
L 242.264279 470.484976 
L 247.333903 470.209709 
L 252.410653 470.244922 
L 257.481113 480.249295 
L 262.55469 467.877983 
L 267.626848 468.253594 
L 272.700838 469.353103 
L 277.773245 465.775757 
L 282.847412 465.765007 
L 287.918813 465.116183 
L 292.992191 465.677783 
L 298.065555 465.645564 
L 303.138102 463.042091 
L 308.210573 463.280206 
L 313.283465 462.791764 
L 318.356064 463.308867 
L 323.42881 460.69031 
L 328.501688 460.274794 
L 333.574396 460.235434 
L 338.647337 460.301088 
L 343.720056 458.084882 
L 348.792838 463.669149 
L 353.865608 458.166198 
L 358.938341 458.598438 
L 364.011048 458.025794 
L 369.083792 455.044097 
L 374.156471 457.434326 
L 379.229205 455.122541 
L 384.301927 455.195924 
L 389.374668 452.569071 
L 394.447406 452.75839 
L 399.52014 453.030934 
L 404.592884 451.614986 
L 409.665598 450.483212 
L 414.73835 448.448105 
L 419.811079 448.5783 
L 424.883802 448.034254 
L 429.956533 447.45221 
L 435.029256 445.809919 
L 440.101982 445.749773 
L 445.17471 442.67031 
L 450.247443 458.813774 
L 455.320172 439.602198 
L 460.392898 435.436232 
L 465.465626 425.219989 
L 470.538352 426.993969 
L 475.611079 424.611068 
L 480.683809 428.245468 
L 485.756536 422.67217 
L 490.829264 439.799093 
L 495.901992 417.481339 
L 500.974718 419.908583 
L 506.047445 420.565049 
L 511.120172 411.326256 
L 516.192899 407.445456 
L 521.265626 405.585558 
L 526.338353 413.100412 
L 531.411082 407.332523 
L 536.48381 408.596705 
L 541.556538 405.536523 
L 546.629267 406.795838 
L 551.701993 403.220562 
L 556.774719 396.734403 
L 561.847446 401.716723 
L 566.920173 398.50922 
L 571.992901 396.616372 
L 577.065628 397.481399 
L 582.138356 394.788454 
L 587.211084 390.282271 
L 592.283809 389.494882 
L 597.356535 383.962068 
L 602.429262 383.656177 
L 607.50199 386.830505 
L 612.574716 376.287071 
L 617.647443 375.535759 
L 622.720171 404.211335 
L 627.792898 371.334226 
L 632.865625 376.489662 
" clip-path="url(#p965ef9a0ab)" style="fill: none; stroke: #7f7f7f; stroke-linecap: square"/>
   </g>
   <g id="line2d_63">
    <path d="M 74.865625 484.101872 
L 79.556398 483.416615 
L 84.411955 483.599128 
L 89.924798 483.580349 
L 94.632688 483.588086 
L 100.156266 483.458251 
L 105.26842 483.556311 
L 110.361348 483.478147 
L 115.341895 483.425738 
L 120.404759 481.14235 
L 125.420521 481.640216 
L 130.491444 481.194424 
L 135.651989 481.028328 
L 140.764143 480.988254 
L 145.857071 478.618328 
L 150.933635 478.759596 
L 155.982591 478.753007 
L 161.056721 478.804236 
L 166.167165 476.438173 
L 171.198957 476.32017 
L 176.303617 476.51271 
L 181.390168 476.43598 
L 186.4613 476.470509 
L 191.532937 475.226105 
L 196.599134 483.996284 
L 201.682827 472.866173 
L 206.745843 473.928132 
L 211.828474 471.807878 
L 216.89834 471.805421 
L 221.967664 471.80704 
L 227.046847 471.780628 
L 232.118177 469.338852 
L 237.191835 470.201376 
L 242.264279 469.489375 
L 247.333903 469.25526 
L 252.410653 469.220512 
L 257.481113 466.683562 
L 262.55469 467.103866 
L 267.626848 466.738977 
L 272.700838 467.095553 
L 277.773245 464.440156 
L 282.847412 464.744165 
L 287.918813 464.269786 
L 292.992191 464.596322 
L 298.065555 464.473826 
L 303.138102 462.001121 
L 308.210573 461.987513 
L 313.283465 461.74198 
L 318.356064 461.800307 
L 323.42881 478.492785 
L 328.501688 458.611826 
L 333.574396 458.792624 
L 338.647337 458.378743 
L 343.720056 455.826321 
L 348.792838 454.618029 
L 353.865608 455.788388 
L 358.938341 456.9539 
L 364.011048 455.739032 
L 369.083792 452.236017 
L 374.156471 452.213667 
L 379.229205 451.991762 
L 384.301927 452.768525 
L 389.374668 449.348876 
L 394.447406 449.537588 
L 399.52014 468.494506 
L 404.592884 450.047377 
L 409.665598 450.523168 
L 414.73835 446.09062 
L 419.811079 445.544891 
L 424.883802 445.757635 
L 429.956533 445.505391 
L 435.029256 444.097219 
L 440.101982 441.481292 
L 445.17471 439.465552 
L 450.247443 438.892024 
L 455.320172 437.38667 
L 460.392898 432.506933 
L 465.465626 430.170412 
L 470.538352 423.456095 
L 475.611079 420.888374 
L 480.683809 424.936728 
L 485.756536 418.779789 
L 490.829264 416.817443 
L 495.901992 412.952258 
L 500.974718 412.884974 
L 506.047445 413.014704 
L 511.120172 409.418417 
L 516.192899 407.321944 
L 521.265626 400.99184 
L 526.338353 405.145761 
L 531.411082 404.979104 
L 536.48381 404.967838 
L 541.556538 401.941342 
L 546.629267 395.451232 
L 551.701993 394.418583 
L 556.774719 391.616892 
L 561.847446 396.544708 
L 566.920173 392.053222 
L 571.992901 391.187968 
L 577.065628 406.153268 
L 582.138356 388.828565 
L 587.211084 384.126995 
L 592.283809 380.886896 
L 597.356535 406.501117 
L 602.429262 384.101059 
L 607.50199 378.430374 
L 612.574716 375.720681 
L 617.647443 372.833313 
L 622.720171 397.7036 
L 627.792898 365.778404 
L 632.865625 371.081323 
" clip-path="url(#p965ef9a0ab)" style="fill: none; stroke: #17becf; stroke-linecap: square"/>
   </g>
   <g id="line2d_64">
    <path d="M 74.865625 486.27523 
L 79.556398 486.550656 
L 84.411955 486.237649 
L 89.924798 486.288154 
L 94.632688 485.966015 
L 100.156266 486.493911 
L 105.26842 486.248983 
L 110.361348 486.216521 
L 115.341895 486.243712 
L 120.404759 483.690473 
L 125.420521 484.458795 
L 130.491444 484.582062 
L 135.651989 483.806852 
L 140.764143 483.715853 
L 145.857071 481.213744 
L 150.933635 481.663141 
L 155.982591 481.38422 
L 161.056721 481.97193 
L 166.167165 485.698821 
L 171.198957 479.116372 
L 176.303617 479.125547 
L 181.390168 479.096332 
L 186.4613 478.765806 
L 191.532937 473.997234 
L 196.599134 476.702004 
L 201.682827 476.434861 
L 206.745843 476.770857 
L 211.828474 484.049959 
L 216.89834 474.286705 
L 221.967664 474.367671 
L 227.046847 474.398069 
L 232.118177 471.86429 
L 237.191835 472.527926 
L 242.264279 472.069356 
L 247.333903 471.98362 
L 252.410653 471.750578 
L 257.481113 483.286184 
L 262.55469 469.546279 
L 267.626848 469.662094 
L 272.700838 468.890256 
L 277.773245 467.187795 
L 282.847412 468.145354 
L 287.918813 467.122072 
L 292.992191 467.141131 
L 298.065555 466.877404 
L 303.138102 464.279145 
L 308.210573 464.13455 
L 313.283465 464.125426 
L 318.356064 463.698864 
L 323.42881 461.490224 
L 328.501688 460.846174 
L 333.574396 460.736416 
L 338.647337 459.903488 
L 343.720056 458.016485 
L 348.792838 458.185133 
L 353.865608 457.952549 
L 358.938341 456.892051 
L 364.011048 457.574706 
L 369.083792 454.844861 
L 374.156471 454.605459 
L 379.229205 454.926427 
L 384.301927 454.116272 
L 389.374668 451.795541 
L 394.447406 452.871526 
L 399.52014 450.573054 
L 404.592884 450.809632 
L 409.665598 450.967749 
L 414.73835 448.240818 
L 419.811079 447.482928 
L 424.883802 448.255877 
L 429.956533 447.408317 
L 435.029256 444.871467 
L 440.101982 443.025237 
L 445.17471 442.570505 
L 450.247443 441.541528 
L 455.320172 438.755087 
L 460.392898 436.384632 
L 465.465626 435.862662 
L 470.538352 429.716982 
L 475.611079 427.628398 
L 480.683809 434.037944 
L 485.756536 428.579813 
L 490.829264 424.976772 
L 495.901992 422.46246 
L 500.974718 424.430688 
L 506.047445 424.115223 
L 511.120172 420.974919 
L 516.192899 417.395719 
L 521.265626 412.699115 
L 526.338353 415.955872 
L 531.411082 416.729437 
L 536.48381 412.888607 
L 541.556538 412.348838 
L 546.629267 407.299632 
L 551.701993 408.519802 
L 556.774719 400.55801 
L 561.847446 403.413027 
L 566.920173 404.113513 
L 571.992901 400.211068 
L 577.065628 401.217266 
L 582.138356 424.386201 
L 587.211084 396.181361 
L 592.283809 389.066146 
L 597.356535 385.235894 
L 602.429262 409.821495 
L 607.50199 387.017391 
L 612.574716 385.310684 
L 617.647443 378.219604 
L 622.720171 384.048013 
L 627.792898 377.546979 
L 632.865625 378.157208 
" clip-path="url(#p965ef9a0ab)" style="fill: none; stroke: #2ca02c; stroke-linecap: square"/>
   </g>
   <g id="line2d_65"/>
   <g id="line2d_66"/>
   <g id="line2d_67"/>
   <g id="line2d_68"/>
   <g id="line2d_69"/>
   <g id="line2d_70"/>
   <g id="line2d_71"/>
   <g id="line2d_72"/>
   <g id="patch_5">
    <path d="M 46.965625 494.114688 
L 46.965625 50.594688 
" style="fill: none; stroke: #000000; stroke-width: 0.8; stroke-linejoin: miter; stroke-linecap: square"/>
   </g>
   <g id="patch_6">
    <path d="M 660.765625 494.114688 
L 660.765625 50.594688 
" style="fill: none; stroke: #000000; stroke-width: 0.8; stroke-linejoin: miter; stroke-linecap: square"/>
   </g>
   <g id="patch_7">
    <path d="M 46.965625 494.114688 
L 660.765625 494.114688 
" style="fill: none; stroke: #000000; stroke-width: 0.8; stroke-linejoin: miter; stroke-linecap: square"/>
   </g>
   <g id="patch_8">
    <path d="M 46.965625 50.594688 
L 660.765625 50.594688 
" style="fill: none; stroke: #000000; stroke-width: 0.8; stroke-linejoin: miter; stroke-linecap: square"/>
   </g>
   <g id="text_38">
    <!-- L1  -->
    <g style="fill: #ff0000" transform="translate(283.706204 492.035) scale(0.1 -0.1)">
     <defs>
      <path id="DejaVuSans-4c" d="M 628 4666 
L 1259 4666 
L 1259 531 
L 3531 531 
L 3531 0 
L 628 0 
L 628 4666 
z
" transform="scale(0.015625)"/>
     </defs>
     <use xlink:href="#DejaVuSans-4c"/>
     <use xlink:href="#DejaVuSans-31" x="55.712891"/>
     <use xlink:href="#DejaVuSans-20" x="119.335938"/>
    </g>
   </g>
   <g id="text_39">
    <!-- L2  -->
    <g style="fill: #ff0000" transform="translate(373.287435 492.035) scale(0.1 -0.1)">
     <use xlink:href="#DejaVuSans-4c"/>
     <use xlink:href="#DejaVuSans-32" x="55.712891"/>
     <use xlink:href="#DejaVuSans-20" x="119.335938"/>
    </g>
   </g>
   <g id="text_40">
    <!-- L3  -->
    <g style="fill: #ff0000" transform="translate(440.473359 492.035) scale(0.1 -0.1)">
     <use xlink:href="#DejaVuSans-4c"/>
     <use xlink:href="#DejaVuSans-33" x="55.712891"/>
     <use xlink:href="#DejaVuSans-20" x="119.335938"/>
    </g>
   </g>
   <g id="text_41">
    <!-- RAM -->
    <g style="fill: #ff0000" transform="translate(610.848438 492.035) scale(0.1 -0.1)">
     <defs>
      <path id="DejaVuSans-52" d="M 2841 2188 
Q 3044 2119 3236 1894 
Q 3428 1669 3622 1275 
L 4263 0 
L 3584 0 
L 2988 1197 
Q 2756 1666 2539 1819 
Q 2322 1972 1947 1972 
L 1259 1972 
L 1259 0 
L 628 0 
L 628 4666 
L 2053 4666 
Q 2853 4666 3247 4331 
Q 3641 3997 3641 3322 
Q 3641 2881 3436 2590 
Q 3231 2300 2841 2188 
z
M 1259 4147 
L 1259 2491 
L 2053 2491 
Q 2509 2491 2742 2702 
Q 2975 2913 2975 3322 
Q 2975 3731 2742 3939 
Q 2509 4147 2053 4147 
L 1259 4147 
z
" transform="scale(0.015625)"/>
      <path id="DejaVuSans-4d" d="M 628 4666 
L 1569 4666 
L 2759 1491 
L 3956 4666 
L 4897 4666 
L 4897 0 
L 4281 0 
L 4281 4097 
L 3078 897 
L 2444 897 
L 1241 4097 
L 1241 0 
L 628 0 
L 628 4666 
z
" transform="scale(0.015625)"/>
     </defs>
     <use xlink:href="#DejaVuSans-52"/>
     <use xlink:href="#DejaVuSans-41" x="65.482422"/>
     <use xlink:href="#DejaVuSans-4d" x="133.890625"/>
    </g>
   </g>
   <g id="text_42">
    <!-- Eytzinger layout with batching -->
    <g transform="translate(262.196875 16.318125) scale(0.12 -0.12)">
     <defs>
      <path id="DejaVuSans-45" d="M 628 4666 
L 3578 4666 
L 3578 4134 
L 1259 4134 
L 1259 2753 
L 3481 2753 
L 3481 2222 
L 1259 2222 
L 1259 531 
L 3634 531 
L 3634 0 
L 628 0 
L 628 4666 
z
" transform="scale(0.015625)"/>
      <path id="DejaVuSans-77" d="M 269 3500 
L 844 3500 
L 1563 769 
L 2278 3500 
L 2956 3500 
L 3675 769 
L 4391 3500 
L 4966 3500 
L 4050 0 
L 3372 0 
L 2619 2869 
L 1863 0 
L 1184 0 
L 269 3500 
z
" transform="scale(0.015625)"/>
      <path id="DejaVuSans-63" d="M 3122 3366 
L 3122 2828 
Q 2878 2963 2633 3030 
Q 2388 3097 2138 3097 
Q 1578 3097 1268 2742 
Q 959 2388 959 1747 
Q 959 1106 1268 751 
Q 1578 397 2138 397 
Q 2388 397 2633 464 
Q 2878 531 3122 666 
L 3122 134 
Q 2881 22 2623 -34 
Q 2366 -91 2075 -91 
Q 1284 -91 818 406 
Q 353 903 353 1747 
Q 353 2603 823 3093 
Q 1294 3584 2113 3584 
Q 2378 3584 2631 3529 
Q 2884 3475 3122 3366 
z
" transform="scale(0.015625)"/>
     </defs>
     <use xlink:href="#DejaVuSans-45"/>
     <use xlink:href="#DejaVuSans-79" x="63.183594"/>
     <use xlink:href="#DejaVuSans-74" x="122.363281"/>
     <use xlink:href="#DejaVuSans-7a" x="161.572266"/>
     <use xlink:href="#DejaVuSans-69" x="214.0625"/>
     <use xlink:href="#DejaVuSans-6e" x="241.845703"/>
     <use xlink:href="#DejaVuSans-67" x="305.224609"/>
     <use xlink:href="#DejaVuSans-65" x="368.701172"/>
     <use xlink:href="#DejaVuSans-72" x="430.224609"/>
     <use xlink:href="#DejaVuSans-20" x="471.337891"/>
     <use xlink:href="#DejaVuSans-6c" x="503.125"/>
     <use xlink:href="#DejaVuSans-61" x="530.908203"/>
     <use xlink:href="#DejaVuSans-79" x="592.1875"/>
     <use xlink:href="#DejaVuSans-6f" x="651.367188"/>
     <use xlink:href="#DejaVuSans-75" x="712.548828"/>
     <use xlink:href="#DejaVuSans-74" x="775.927734"/>
     <use xlink:href="#DejaVuSans-20" x="815.136719"/>
     <use xlink:href="#DejaVuSans-77" x="846.923828"/>
     <use xlink:href="#DejaVuSans-69" x="928.710938"/>
     <use xlink:href="#DejaVuSans-74" x="956.494141"/>
     <use xlink:href="#DejaVuSans-68" x="995.703125"/>
     <use xlink:href="#DejaVuSans-20" x="1059.082031"/>
     <use xlink:href="#DejaVuSans-62" x="1090.869141"/>
     <use xlink:href="#DejaVuSans-61" x="1154.345703"/>
     <use xlink:href="#DejaVuSans-74" x="1215.625"/>
     <use xlink:href="#DejaVuSans-63" x="1254.833984"/>
     <use xlink:href="#DejaVuSans-68" x="1309.814453"/>
     <use xlink:href="#DejaVuSans-69" x="1373.193359"/>
     <use xlink:href="#DejaVuSans-6e" x="1400.976562"/>
     <use xlink:href="#DejaVuSans-67" x="1464.355469"/>
    </g>
   </g>
   <g id="legend_1">
    <g id="patch_9">
     <path d="M 53.965625 163.288438 
L 439.365625 163.288438 
Q 441.365625 163.288438 441.365625 161.288438 
L 441.365625 57.594688 
Q 441.365625 55.594688 439.365625 55.594688 
L 53.965625 55.594688 
Q 51.965625 55.594688 51.965625 57.594688 
L 51.965625 161.288438 
Q 51.965625 163.288438 53.965625 163.288438 
L 53.965625 163.288438 
z
" style="fill: none; opacity: 0"/>
    </g>
    <g id="line2d_73">
     <path d="M 55.965625 63.693125 
L 65.965625 63.693125 
L 75.965625 63.693125 
" style="fill: none; stroke: #2ca02c; stroke-width: 1.5; stroke-linecap: square"/>
    </g>
    <g id="text_43">
     <!-- Batched&lt;2, Eytzinger, Eytzinger::batch_impl_prefetched&lt;2, 4&gt;&gt; -->
     <g transform="translate(83.965625 67.193125) scale(0.1 -0.1)">
      <defs>
       <path id="DejaVuSans-42" d="M 1259 2228 
L 1259 519 
L 2272 519 
Q 2781 519 3026 730 
Q 3272 941 3272 1375 
Q 3272 1813 3026 2020 
Q 2781 2228 2272 2228 
L 1259 2228 
z
M 1259 4147 
L 1259 2741 
L 2194 2741 
Q 2656 2741 2882 2914 
Q 3109 3088 3109 3444 
Q 3109 3797 2882 3972 
Q 2656 4147 2194 4147 
L 1259 4147 
z
M 628 4666 
L 2241 4666 
Q 2963 4666 3353 4366 
Q 3744 4066 3744 3513 
Q 3744 3084 3544 2831 
Q 3344 2578 2956 2516 
Q 3422 2416 3680 2098 
Q 3938 1781 3938 1306 
Q 3938 681 3513 340 
Q 3088 0 2303 0 
L 628 0 
L 628 4666 
z
" transform="scale(0.015625)"/>
       <path id="DejaVuSans-64" d="M 2906 2969 
L 2906 4863 
L 3481 4863 
L 3481 0 
L 2906 0 
L 2906 525 
Q 2725 213 2448 61 
Q 2172 -91 1784 -91 
Q 1150 -91 751 415 
Q 353 922 353 1747 
Q 353 2572 751 3078 
Q 1150 3584 1784 3584 
Q 2172 3584 2448 3432 
Q 2725 3281 2906 2969 
z
M 947 1747 
Q 947 1113 1208 752 
Q 1469 391 1925 391 
Q 2381 391 2643 752 
Q 2906 1113 2906 1747 
Q 2906 2381 2643 2742 
Q 2381 3103 1925 3103 
Q 1469 3103 1208 2742 
Q 947 2381 947 1747 
z
" transform="scale(0.015625)"/>
       <path id="DejaVuSans-3c" d="M 4684 3150 
L 1459 2003 
L 4684 863 
L 4684 294 
L 678 1747 
L 678 2266 
L 4684 3719 
L 4684 3150 
z
" transform="scale(0.015625)"/>
       <path id="DejaVuSans-2c" d="M 750 794 
L 1409 794 
L 1409 256 
L 897 -744 
L 494 -744 
L 750 256 
L 750 794 
z
" transform="scale(0.015625)"/>
       <path id="DejaVuSans-3a" d="M 750 794 
L 1409 794 
L 1409 0 
L 750 0 
L 750 794 
z
M 750 3309 
L 1409 3309 
L 1409 2516 
L 750 2516 
L 750 3309 
z
" transform="scale(0.015625)"/>
       <path id="DejaVuSans-5f" d="M 3263 -1063 
L 3263 -1509 
L -63 -1509 
L -63 -1063 
L 3263 -1063 
z
" transform="scale(0.015625)"/>
       <path id="DejaVuSans-6d" d="M 3328 2828 
Q 3544 3216 3844 3400 
Q 4144 3584 4550 3584 
Q 5097 3584 5394 3201 
Q 5691 2819 5691 2113 
L 5691 0 
L 5113 0 
L 5113 2094 
Q 5113 2597 4934 2840 
Q 4756 3084 4391 3084 
Q 3944 3084 3684 2787 
Q 3425 2491 3425 1978 
L 3425 0 
L 2847 0 
L 2847 2094 
Q 2847 2600 2669 2842 
Q 2491 3084 2119 3084 
Q 1678 3084 1418 2786 
Q 1159 2488 1159 1978 
L 1159 0 
L 581 0 
L 581 3500 
L 1159 3500 
L 1159 2956 
Q 1356 3278 1631 3431 
Q 1906 3584 2284 3584 
Q 2666 3584 2933 3390 
Q 3200 3197 3328 2828 
z
" transform="scale(0.015625)"/>
       <path id="DejaVuSans-66" d="M 2375 4863 
L 2375 4384 
L 1825 4384 
Q 1516 4384 1395 4259 
Q 1275 4134 1275 3809 
L 1275 3500 
L 2222 3500 
L 2222 3053 
L 1275 3053 
L 1275 0 
L 697 0 
L 697 3053 
L 147 3053 
L 147 3500 
L 697 3500 
L 697 3744 
Q 697 4328 969 4595 
Q 1241 4863 1831 4863 
L 2375 4863 
z
" transform="scale(0.015625)"/>
       <path id="DejaVuSans-3e" d="M 678 3150 
L 678 3719 
L 4684 2266 
L 4684 1747 
L 678 294 
L 678 863 
L 3897 2003 
L 678 3150 
z
" transform="scale(0.015625)"/>
      </defs>
      <use xlink:href="#DejaVuSans-42"/>
      <use xlink:href="#DejaVuSans-61" x="68.603516"/>
      <use xlink:href="#DejaVuSans-74" x="129.882812"/>
      <use xlink:href="#DejaVuSans-63" x="169.091797"/>
      <use xlink:href="#DejaVuSans-68" x="224.072266"/>
      <use xlink:href="#DejaVuSans-65" x="287.451172"/>
      <use xlink:href="#DejaVuSans-64" x="348.974609"/>
      <use xlink:href="#DejaVuSans-3c" x="412.451172"/>
      <use xlink:href="#DejaVuSans-32" x="496.240234"/>
      <use xlink:href="#DejaVuSans-2c" x="559.863281"/>
      <use xlink:href="#DejaVuSans-20" x="591.650391"/>
      <use xlink:href="#DejaVuSans-45" x="623.4375"/>
      <use xlink:href="#DejaVuSans-79" x="686.621094"/>
      <use xlink:href="#DejaVuSans-74" x="745.800781"/>
      <use xlink:href="#DejaVuSans-7a" x="785.009766"/>
      <use xlink:href="#DejaVuSans-69" x="837.5"/>
      <use xlink:href="#DejaVuSans-6e" x="865.283203"/>
      <use xlink:href="#DejaVuSans-67" x="928.662109"/>
      <use xlink:href="#DejaVuSans-65" x="992.138672"/>
      <use xlink:href="#DejaVuSans-72" x="1053.662109"/>
      <use xlink:href="#DejaVuSans-2c" x="1094.775391"/>
      <use xlink:href="#DejaVuSans-20" x="1126.5625"/>
      <use xlink:href="#DejaVuSans-45" x="1158.349609"/>
      <use xlink:href="#DejaVuSans-79" x="1221.533203"/>
      <use xlink:href="#DejaVuSans-74" x="1280.712891"/>
      <use xlink:href="#DejaVuSans-7a" x="1319.921875"/>
      <use xlink:href="#DejaVuSans-69" x="1372.412109"/>
      <use xlink:href="#DejaVuSans-6e" x="1400.195312"/>
      <use xlink:href="#DejaVuSans-67" x="1463.574219"/>
      <use xlink:href="#DejaVuSans-65" x="1527.050781"/>
      <use xlink:href="#DejaVuSans-72" x="1588.574219"/>
      <use xlink:href="#DejaVuSans-3a" x="1627.9375"/>
      <use xlink:href="#DejaVuSans-3a" x="1661.628906"/>
      <use xlink:href="#DejaVuSans-62" x="1695.320312"/>
      <use xlink:href="#DejaVuSans-61" x="1758.796875"/>
      <use xlink:href="#DejaVuSans-74" x="1820.076172"/>
      <use xlink:href="#DejaVuSans-63" x="1859.285156"/>
      <use xlink:href="#DejaVuSans-68" x="1914.265625"/>
      <use xlink:href="#DejaVuSans-5f" x="1977.644531"/>
      <use xlink:href="#DejaVuSans-69" x="2027.644531"/>
      <use xlink:href="#DejaVuSans-6d" x="2055.427734"/>
      <use xlink:href="#DejaVuSans-70" x="2152.839844"/>
      <use xlink:href="#DejaVuSans-6c" x="2216.316406"/>
      <use xlink:href="#DejaVuSans-5f" x="2244.099609"/>
      <use xlink:href="#DejaVuSans-70" x="2294.099609"/>
      <use xlink:href="#DejaVuSans-72" x="2357.576172"/>
      <use xlink:href="#DejaVuSans-65" x="2396.439453"/>
      <use xlink:href="#DejaVuSans-66" x="2457.962891"/>
      <use xlink:href="#DejaVuSans-65" x="2493.167969"/>
      <use xlink:href="#DejaVuSans-74" x="2554.691406"/>
      <use xlink:href="#DejaVuSans-63" x="2593.900391"/>
      <use xlink:href="#DejaVuSans-68" x="2648.880859"/>
      <use xlink:href="#DejaVuSans-65" x="2712.259766"/>
      <use xlink:href="#DejaVuSans-64" x="2773.783203"/>
      <use xlink:href="#DejaVuSans-3c" x="2837.259766"/>
      <use xlink:href="#DejaVuSans-32" x="2921.048828"/>
      <use xlink:href="#DejaVuSans-2c" x="2984.671875"/>
      <use xlink:href="#DejaVuSans-20" x="3016.458984"/>
      <use xlink:href="#DejaVuSans-34" x="3048.246094"/>
      <use xlink:href="#DejaVuSans-3e" x="3111.869141"/>
      <use xlink:href="#DejaVuSans-3e" x="3195.658203"/>
     </g>
    </g>
    <g id="line2d_74">
     <path d="M 55.965625 78.649375 
L 65.965625 78.649375 
L 75.965625 78.649375 
" style="fill: none; stroke: #d62728; stroke-width: 1.5; stroke-linecap: square"/>
    </g>
    <g id="text_44">
     <!-- Batched&lt;4, Eytzinger, Eytzinger::batch_impl_prefetched&lt;4, 4&gt;&gt; -->
     <g transform="translate(83.965625 82.149375) scale(0.1 -0.1)">
      <use xlink:href="#DejaVuSans-42"/>
      <use xlink:href="#DejaVuSans-61" x="68.603516"/>
      <use xlink:href="#DejaVuSans-74" x="129.882812"/>
      <use xlink:href="#DejaVuSans-63" x="169.091797"/>
      <use xlink:href="#DejaVuSans-68" x="224.072266"/>
      <use xlink:href="#DejaVuSans-65" x="287.451172"/>
      <use xlink:href="#DejaVuSans-64" x="348.974609"/>
      <use xlink:href="#DejaVuSans-3c" x="412.451172"/>
      <use xlink:href="#DejaVuSans-34" x="496.240234"/>
      <use xlink:href="#DejaVuSans-2c" x="559.863281"/>
      <use xlink:href="#DejaVuSans-20" x="591.650391"/>
      <use xlink:href="#DejaVuSans-45" x="623.4375"/>
      <use xlink:href="#DejaVuSans-79" x="686.621094"/>
      <use xlink:href="#DejaVuSans-74" x="745.800781"/>
      <use xlink:href="#DejaVuSans-7a" x="785.009766"/>
      <use xlink:href="#DejaVuSans-69" x="837.5"/>
      <use xlink:href="#DejaVuSans-6e" x="865.283203"/>
      <use xlink:href="#DejaVuSans-67" x="928.662109"/>
      <use xlink:href="#DejaVuSans-65" x="992.138672"/>
      <use xlink:href="#DejaVuSans-72" x="1053.662109"/>
      <use xlink:href="#DejaVuSans-2c" x="1094.775391"/>
      <use xlink:href="#DejaVuSans-20" x="1126.5625"/>
      <use xlink:href="#DejaVuSans-45" x="1158.349609"/>
      <use xlink:href="#DejaVuSans-79" x="1221.533203"/>
      <use xlink:href="#DejaVuSans-74" x="1280.712891"/>
      <use xlink:href="#DejaVuSans-7a" x="1319.921875"/>
      <use xlink:href="#DejaVuSans-69" x="1372.412109"/>
      <use xlink:href="#DejaVuSans-6e" x="1400.195312"/>
      <use xlink:href="#DejaVuSans-67" x="1463.574219"/>
      <use xlink:href="#DejaVuSans-65" x="1527.050781"/>
      <use xlink:href="#DejaVuSans-72" x="1588.574219"/>
      <use xlink:href="#DejaVuSans-3a" x="1627.9375"/>
      <use xlink:href="#DejaVuSans-3a" x="1661.628906"/>
      <use xlink:href="#DejaVuSans-62" x="1695.320312"/>
      <use xlink:href="#DejaVuSans-61" x="1758.796875"/>
      <use xlink:href="#DejaVuSans-74" x="1820.076172"/>
      <use xlink:href="#DejaVuSans-63" x="1859.285156"/>
      <use xlink:href="#DejaVuSans-68" x="1914.265625"/>
      <use xlink:href="#DejaVuSans-5f" x="1977.644531"/>
      <use xlink:href="#DejaVuSans-69" x="2027.644531"/>
      <use xlink:href="#DejaVuSans-6d" x="2055.427734"/>
      <use xlink:href="#DejaVuSans-70" x="2152.839844"/>
      <use xlink:href="#DejaVuSans-6c" x="2216.316406"/>
      <use xlink:href="#DejaVuSans-5f" x="2244.099609"/>
      <use xlink:href="#DejaVuSans-70" x="2294.099609"/>
      <use xlink:href="#DejaVuSans-72" x="2357.576172"/>
      <use xlink:href="#DejaVuSans-65" x="2396.439453"/>
      <use xlink:href="#DejaVuSans-66" x="2457.962891"/>
      <use xlink:href="#DejaVuSans-65" x="2493.167969"/>
      <use xlink:href="#DejaVuSans-74" x="2554.691406"/>
      <use xlink:href="#DejaVuSans-63" x="2593.900391"/>
      <use xlink:href="#DejaVuSans-68" x="2648.880859"/>
      <use xlink:href="#DejaVuSans-65" x="2712.259766"/>
      <use xlink:href="#DejaVuSans-64" x="2773.783203"/>
      <use xlink:href="#DejaVuSans-3c" x="2837.259766"/>
      <use xlink:href="#DejaVuSans-34" x="2921.048828"/>
      <use xlink:href="#DejaVuSans-2c" x="2984.671875"/>
      <use xlink:href="#DejaVuSans-20" x="3016.458984"/>
      <use xlink:href="#DejaVuSans-34" x="3048.246094"/>
      <use xlink:href="#DejaVuSans-3e" x="3111.869141"/>
      <use xlink:href="#DejaVuSans-3e" x="3195.658203"/>
     </g>
    </g>
    <g id="line2d_75">
     <path d="M 55.965625 93.605625 
L 65.965625 93.605625 
L 75.965625 93.605625 
" style="fill: none; stroke: #d62728; stroke-width: 1.5; stroke-linecap: square"/>
    </g>
    <g id="text_45">
     <!-- Batched&lt;8, Eytzinger, Eytzinger::batch_impl_prefetched&lt;8, 4&gt;&gt; -->
     <g transform="translate(83.965625 97.105625) scale(0.1 -0.1)">
      <use xlink:href="#DejaVuSans-42"/>
      <use xlink:href="#DejaVuSans-61" x="68.603516"/>
      <use xlink:href="#DejaVuSans-74" x="129.882812"/>
      <use xlink:href="#DejaVuSans-63" x="169.091797"/>
      <use xlink:href="#DejaVuSans-68" x="224.072266"/>
      <use xlink:href="#DejaVuSans-65" x="287.451172"/>
      <use xlink:href="#DejaVuSans-64" x="348.974609"/>
      <use xlink:href="#DejaVuSans-3c" x="412.451172"/>
      <use xlink:href="#DejaVuSans-38" x="496.240234"/>
      <use xlink:href="#DejaVuSans-2c" x="559.863281"/>
      <use xlink:href="#DejaVuSans-20" x="591.650391"/>
      <use xlink:href="#DejaVuSans-45" x="623.4375"/>
      <use xlink:href="#DejaVuSans-79" x="686.621094"/>
      <use xlink:href="#DejaVuSans-74" x="745.800781"/>
      <use xlink:href="#DejaVuSans-7a" x="785.009766"/>
      <use xlink:href="#DejaVuSans-69" x="837.5"/>
      <use xlink:href="#DejaVuSans-6e" x="865.283203"/>
      <use xlink:href="#DejaVuSans-67" x="928.662109"/>
      <use xlink:href="#DejaVuSans-65" x="992.138672"/>
      <use xlink:href="#DejaVuSans-72" x="1053.662109"/>
      <use xlink:href="#DejaVuSans-2c" x="1094.775391"/>
      <use xlink:href="#DejaVuSans-20" x="1126.5625"/>
      <use xlink:href="#DejaVuSans-45" x="1158.349609"/>
      <use xlink:href="#DejaVuSans-79" x="1221.533203"/>
      <use xlink:href="#DejaVuSans-74" x="1280.712891"/>
      <use xlink:href="#DejaVuSans-7a" x="1319.921875"/>
      <use xlink:href="#DejaVuSans-69" x="1372.412109"/>
      <use xlink:href="#DejaVuSans-6e" x="1400.195312"/>
      <use xlink:href="#DejaVuSans-67" x="1463.574219"/>
      <use xlink:href="#DejaVuSans-65" x="1527.050781"/>
      <use xlink:href="#DejaVuSans-72" x="1588.574219"/>
      <use xlink:href="#DejaVuSans-3a" x="1627.9375"/>
      <use xlink:href="#DejaVuSans-3a" x="1661.628906"/>
      <use xlink:href="#DejaVuSans-62" x="1695.320312"/>
      <use xlink:href="#DejaVuSans-61" x="1758.796875"/>
      <use xlink:href="#DejaVuSans-74" x="1820.076172"/>
      <use xlink:href="#DejaVuSans-63" x="1859.285156"/>
      <use xlink:href="#DejaVuSans-68" x="1914.265625"/>
      <use xlink:href="#DejaVuSans-5f" x="1977.644531"/>
      <use xlink:href="#DejaVuSans-69" x="2027.644531"/>
      <use xlink:href="#DejaVuSans-6d" x="2055.427734"/>
      <use xlink:href="#DejaVuSans-70" x="2152.839844"/>
      <use xlink:href="#DejaVuSans-6c" x="2216.316406"/>
      <use xlink:href="#DejaVuSans-5f" x="2244.099609"/>
      <use xlink:href="#DejaVuSans-70" x="2294.099609"/>
      <use xlink:href="#DejaVuSans-72" x="2357.576172"/>
      <use xlink:href="#DejaVuSans-65" x="2396.439453"/>
      <use xlink:href="#DejaVuSans-66" x="2457.962891"/>
      <use xlink:href="#DejaVuSans-65" x="2493.167969"/>
      <use xlink:href="#DejaVuSans-74" x="2554.691406"/>
      <use xlink:href="#DejaVuSans-63" x="2593.900391"/>
      <use xlink:href="#DejaVuSans-68" x="2648.880859"/>
      <use xlink:href="#DejaVuSans-65" x="2712.259766"/>
      <use xlink:href="#DejaVuSans-64" x="2773.783203"/>
      <use xlink:href="#DejaVuSans-3c" x="2837.259766"/>
      <use xlink:href="#DejaVuSans-38" x="2921.048828"/>
      <use xlink:href="#DejaVuSans-2c" x="2984.671875"/>
      <use xlink:href="#DejaVuSans-20" x="3016.458984"/>
      <use xlink:href="#DejaVuSans-34" x="3048.246094"/>
      <use xlink:href="#DejaVuSans-3e" x="3111.869141"/>
      <use xlink:href="#DejaVuSans-3e" x="3195.658203"/>
     </g>
    </g>
    <g id="line2d_76">
     <path d="M 55.965625 108.561875 
L 65.965625 108.561875 
L 75.965625 108.561875 
" style="fill: none; stroke: #e377c2; stroke-width: 1.5; stroke-linecap: square"/>
    </g>
    <g id="text_46">
     <!-- Batched&lt;16, Eytzinger, Eytzinger::batch_impl_prefetched&lt;16, 4&gt;&gt; -->
     <g transform="translate(83.965625 112.061875) scale(0.1 -0.1)">
      <use xlink:href="#DejaVuSans-42"/>
      <use xlink:href="#DejaVuSans-61" x="68.603516"/>
      <use xlink:href="#DejaVuSans-74" x="129.882812"/>
      <use xlink:href="#DejaVuSans-63" x="169.091797"/>
      <use xlink:href="#DejaVuSans-68" x="224.072266"/>
      <use xlink:href="#DejaVuSans-65" x="287.451172"/>
      <use xlink:href="#DejaVuSans-64" x="348.974609"/>
      <use xlink:href="#DejaVuSans-3c" x="412.451172"/>
      <use xlink:href="#DejaVuSans-31" x="496.240234"/>
      <use xlink:href="#DejaVuSans-36" x="559.863281"/>
      <use xlink:href="#DejaVuSans-2c" x="623.486328"/>
      <use xlink:href="#DejaVuSans-20" x="655.273438"/>
      <use xlink:href="#DejaVuSans-45" x="687.060547"/>
      <use xlink:href="#DejaVuSans-79" x="750.244141"/>
      <use xlink:href="#DejaVuSans-74" x="809.423828"/>
      <use xlink:href="#DejaVuSans-7a" x="848.632812"/>
      <use xlink:href="#DejaVuSans-69" x="901.123047"/>
      <use xlink:href="#DejaVuSans-6e" x="928.90625"/>
      <use xlink:href="#DejaVuSans-67" x="992.285156"/>
      <use xlink:href="#DejaVuSans-65" x="1055.761719"/>
      <use xlink:href="#DejaVuSans-72" x="1117.285156"/>
      <use xlink:href="#DejaVuSans-2c" x="1158.398438"/>
      <use xlink:href="#DejaVuSans-20" x="1190.185547"/>
      <use xlink:href="#DejaVuSans-45" x="1221.972656"/>
      <use xlink:href="#DejaVuSans-79" x="1285.15625"/>
      <use xlink:href="#DejaVuSans-74" x="1344.335938"/>
      <use xlink:href="#DejaVuSans-7a" x="1383.544922"/>
      <use xlink:href="#DejaVuSans-69" x="1436.035156"/>
      <use xlink:href="#DejaVuSans-6e" x="1463.818359"/>
      <use xlink:href="#DejaVuSans-67" x="1527.197266"/>
      <use xlink:href="#DejaVuSans-65" x="1590.673828"/>
      <use xlink:href="#DejaVuSans-72" x="1652.197266"/>
      <use xlink:href="#DejaVuSans-3a" x="1691.560547"/>
      <use xlink:href="#DejaVuSans-3a" x="1725.251953"/>
      <use xlink:href="#DejaVuSans-62" x="1758.943359"/>
      <use xlink:href="#DejaVuSans-61" x="1822.419922"/>
      <use xlink:href="#DejaVuSans-74" x="1883.699219"/>
      <use xlink:href="#DejaVuSans-63" x="1922.908203"/>
      <use xlink:href="#DejaVuSans-68" x="1977.888672"/>
      <use xlink:href="#DejaVuSans-5f" x="2041.267578"/>
      <use xlink:href="#DejaVuSans-69" x="2091.267578"/>
      <use xlink:href="#DejaVuSans-6d" x="2119.050781"/>
      <use xlink:href="#DejaVuSans-70" x="2216.462891"/>
      <use xlink:href="#DejaVuSans-6c" x="2279.939453"/>
      <use xlink:href="#DejaVuSans-5f" x="2307.722656"/>
      <use xlink:href="#DejaVuSans-70" x="2357.722656"/>
      <use xlink:href="#DejaVuSans-72" x="2421.199219"/>
      <use xlink:href="#DejaVuSans-65" x="2460.0625"/>
      <use xlink:href="#DejaVuSans-66" x="2521.585938"/>
      <use xlink:href="#DejaVuSans-65" x="2556.791016"/>
      <use xlink:href="#DejaVuSans-74" x="2618.314453"/>
      <use xlink:href="#DejaVuSans-63" x="2657.523438"/>
      <use xlink:href="#DejaVuSans-68" x="2712.503906"/>
      <use xlink:href="#DejaVuSans-65" x="2775.882812"/>
      <use xlink:href="#DejaVuSans-64" x="2837.40625"/>
      <use xlink:href="#DejaVuSans-3c" x="2900.882812"/>
      <use xlink:href="#DejaVuSans-31" x="2984.671875"/>
      <use xlink:href="#DejaVuSans-36" x="3048.294922"/>
      <use xlink:href="#DejaVuSans-2c" x="3111.917969"/>
      <use xlink:href="#DejaVuSans-20" x="3143.705078"/>
      <use xlink:href="#DejaVuSans-34" x="3175.492188"/>
      <use xlink:href="#DejaVuSans-3e" x="3239.115234"/>
      <use xlink:href="#DejaVuSans-3e" x="3322.904297"/>
     </g>
    </g>
    <g id="line2d_77">
     <path d="M 55.965625 123.518125 
L 65.965625 123.518125 
L 75.965625 123.518125 
" style="fill: none; stroke: #7f7f7f; stroke-width: 1.5; stroke-linecap: square"/>
    </g>
    <g id="text_47">
     <!-- Batched&lt;32, Eytzinger, Eytzinger::batch_impl_prefetched&lt;32, 4&gt;&gt; -->
     <g transform="translate(83.965625 127.018125) scale(0.1 -0.1)">
      <use xlink:href="#DejaVuSans-42"/>
      <use xlink:href="#DejaVuSans-61" x="68.603516"/>
      <use xlink:href="#DejaVuSans-74" x="129.882812"/>
      <use xlink:href="#DejaVuSans-63" x="169.091797"/>
      <use xlink:href="#DejaVuSans-68" x="224.072266"/>
      <use xlink:href="#DejaVuSans-65" x="287.451172"/>
      <use xlink:href="#DejaVuSans-64" x="348.974609"/>
      <use xlink:href="#DejaVuSans-3c" x="412.451172"/>
      <use xlink:href="#DejaVuSans-33" x="496.240234"/>
      <use xlink:href="#DejaVuSans-32" x="559.863281"/>
      <use xlink:href="#DejaVuSans-2c" x="623.486328"/>
      <use xlink:href="#DejaVuSans-20" x="655.273438"/>
      <use xlink:href="#DejaVuSans-45" x="687.060547"/>
      <use xlink:href="#DejaVuSans-79" x="750.244141"/>
      <use xlink:href="#DejaVuSans-74" x="809.423828"/>
      <use xlink:href="#DejaVuSans-7a" x="848.632812"/>
      <use xlink:href="#DejaVuSans-69" x="901.123047"/>
      <use xlink:href="#DejaVuSans-6e" x="928.90625"/>
      <use xlink:href="#DejaVuSans-67" x="992.285156"/>
      <use xlink:href="#DejaVuSans-65" x="1055.761719"/>
      <use xlink:href="#DejaVuSans-72" x="1117.285156"/>
      <use xlink:href="#DejaVuSans-2c" x="1158.398438"/>
      <use xlink:href="#DejaVuSans-20" x="1190.185547"/>
      <use xlink:href="#DejaVuSans-45" x="1221.972656"/>
      <use xlink:href="#DejaVuSans-79" x="1285.15625"/>
      <use xlink:href="#DejaVuSans-74" x="1344.335938"/>
      <use xlink:href="#DejaVuSans-7a" x="1383.544922"/>
      <use xlink:href="#DejaVuSans-69" x="1436.035156"/>
      <use xlink:href="#DejaVuSans-6e" x="1463.818359"/>
      <use xlink:href="#DejaVuSans-67" x="1527.197266"/>
      <use xlink:href="#DejaVuSans-65" x="1590.673828"/>
      <use xlink:href="#DejaVuSans-72" x="1652.197266"/>
      <use xlink:href="#DejaVuSans-3a" x="1691.560547"/>
      <use xlink:href="#DejaVuSans-3a" x="1725.251953"/>
      <use xlink:href="#DejaVuSans-62" x="1758.943359"/>
      <use xlink:href="#DejaVuSans-61" x="1822.419922"/>
      <use xlink:href="#DejaVuSans-74" x="1883.699219"/>
      <use xlink:href="#DejaVuSans-63" x="1922.908203"/>
      <use xlink:href="#DejaVuSans-68" x="1977.888672"/>
      <use xlink:href="#DejaVuSans-5f" x="2041.267578"/>
      <use xlink:href="#DejaVuSans-69" x="2091.267578"/>
      <use xlink:href="#DejaVuSans-6d" x="2119.050781"/>
      <use xlink:href="#DejaVuSans-70" x="2216.462891"/>
      <use xlink:href="#DejaVuSans-6c" x="2279.939453"/>
      <use xlink:href="#DejaVuSans-5f" x="2307.722656"/>
      <use xlink:href="#DejaVuSans-70" x="2357.722656"/>
      <use xlink:href="#DejaVuSans-72" x="2421.199219"/>
      <use xlink:href="#DejaVuSans-65" x="2460.0625"/>
      <use xlink:href="#DejaVuSans-66" x="2521.585938"/>
      <use xlink:href="#DejaVuSans-65" x="2556.791016"/>
      <use xlink:href="#DejaVuSans-74" x="2618.314453"/>
      <use xlink:href="#DejaVuSans-63" x="2657.523438"/>
      <use xlink:href="#DejaVuSans-68" x="2712.503906"/>
      <use xlink:href="#DejaVuSans-65" x="2775.882812"/>
      <use xlink:href="#DejaVuSans-64" x="2837.40625"/>
      <use xlink:href="#DejaVuSans-3c" x="2900.882812"/>
      <use xlink:href="#DejaVuSans-33" x="2984.671875"/>
      <use xlink:href="#DejaVuSans-32" x="3048.294922"/>
      <use xlink:href="#DejaVuSans-2c" x="3111.917969"/>
      <use xlink:href="#DejaVuSans-20" x="3143.705078"/>
      <use xlink:href="#DejaVuSans-34" x="3175.492188"/>
      <use xlink:href="#DejaVuSans-3e" x="3239.115234"/>
      <use xlink:href="#DejaVuSans-3e" x="3322.904297"/>
     </g>
    </g>
    <g id="line2d_78">
     <path d="M 55.965625 138.474375 
L 65.965625 138.474375 
L 75.965625 138.474375 
" style="fill: none; stroke: #17becf; stroke-width: 1.5; stroke-linecap: square"/>
    </g>
    <g id="text_48">
     <!-- Batched&lt;64, Eytzinger, Eytzinger::batch_impl_prefetched&lt;64, 4&gt;&gt; -->
     <g transform="translate(83.965625 141.974375) scale(0.1 -0.1)">
      <use xlink:href="#DejaVuSans-42"/>
      <use xlink:href="#DejaVuSans-61" x="68.603516"/>
      <use xlink:href="#DejaVuSans-74" x="129.882812"/>
      <use xlink:href="#DejaVuSans-63" x="169.091797"/>
      <use xlink:href="#DejaVuSans-68" x="224.072266"/>
      <use xlink:href="#DejaVuSans-65" x="287.451172"/>
      <use xlink:href="#DejaVuSans-64" x="348.974609"/>
      <use xlink:href="#DejaVuSans-3c" x="412.451172"/>
      <use xlink:href="#DejaVuSans-36" x="496.240234"/>
      <use xlink:href="#DejaVuSans-34" x="559.863281"/>
      <use xlink:href="#DejaVuSans-2c" x="623.486328"/>
      <use xlink:href="#DejaVuSans-20" x="655.273438"/>
      <use xlink:href="#DejaVuSans-45" x="687.060547"/>
      <use xlink:href="#DejaVuSans-79" x="750.244141"/>
      <use xlink:href="#DejaVuSans-74" x="809.423828"/>
      <use xlink:href="#DejaVuSans-7a" x="848.632812"/>
      <use xlink:href="#DejaVuSans-69" x="901.123047"/>
      <use xlink:href="#DejaVuSans-6e" x="928.90625"/>
      <use xlink:href="#DejaVuSans-67" x="992.285156"/>
      <use xlink:href="#DejaVuSans-65" x="1055.761719"/>
      <use xlink:href="#DejaVuSans-72" x="1117.285156"/>
      <use xlink:href="#DejaVuSans-2c" x="1158.398438"/>
      <use xlink:href="#DejaVuSans-20" x="1190.185547"/>
      <use xlink:href="#DejaVuSans-45" x="1221.972656"/>
      <use xlink:href="#DejaVuSans-79" x="1285.15625"/>
      <use xlink:href="#DejaVuSans-74" x="1344.335938"/>
      <use xlink:href="#DejaVuSans-7a" x="1383.544922"/>
      <use xlink:href="#DejaVuSans-69" x="1436.035156"/>
      <use xlink:href="#DejaVuSans-6e" x="1463.818359"/>
      <use xlink:href="#DejaVuSans-67" x="1527.197266"/>
      <use xlink:href="#DejaVuSans-65" x="1590.673828"/>
      <use xlink:href="#DejaVuSans-72" x="1652.197266"/>
      <use xlink:href="#DejaVuSans-3a" x="1691.560547"/>
      <use xlink:href="#DejaVuSans-3a" x="1725.251953"/>
      <use xlink:href="#DejaVuSans-62" x="1758.943359"/>
      <use xlink:href="#DejaVuSans-61" x="1822.419922"/>
      <use xlink:href="#DejaVuSans-74" x="1883.699219"/>
      <use xlink:href="#DejaVuSans-63" x="1922.908203"/>
      <use xlink:href="#DejaVuSans-68" x="1977.888672"/>
      <use xlink:href="#DejaVuSans-5f" x="2041.267578"/>
      <use xlink:href="#DejaVuSans-69" x="2091.267578"/>
      <use xlink:href="#DejaVuSans-6d" x="2119.050781"/>
      <use xlink:href="#DejaVuSans-70" x="2216.462891"/>
      <use xlink:href="#DejaVuSans-6c" x="2279.939453"/>
      <use xlink:href="#DejaVuSans-5f" x="2307.722656"/>
      <use xlink:href="#DejaVuSans-70" x="2357.722656"/>
      <use xlink:href="#DejaVuSans-72" x="2421.199219"/>
      <use xlink:href="#DejaVuSans-65" x="2460.0625"/>
      <use xlink:href="#DejaVuSans-66" x="2521.585938"/>
      <use xlink:href="#DejaVuSans-65" x="2556.791016"/>
      <use xlink:href="#DejaVuSans-74" x="2618.314453"/>
      <use xlink:href="#DejaVuSans-63" x="2657.523438"/>
      <use xlink:href="#DejaVuSans-68" x="2712.503906"/>
      <use xlink:href="#DejaVuSans-65" x="2775.882812"/>
      <use xlink:href="#DejaVuSans-64" x="2837.40625"/>
      <use xlink:href="#DejaVuSans-3c" x="2900.882812"/>
      <use xlink:href="#DejaVuSans-36" x="2984.671875"/>
      <use xlink:href="#DejaVuSans-34" x="3048.294922"/>
      <use xlink:href="#DejaVuSans-2c" x="3111.917969"/>
      <use xlink:href="#DejaVuSans-20" x="3143.705078"/>
      <use xlink:href="#DejaVuSans-34" x="3175.492188"/>
      <use xlink:href="#DejaVuSans-3e" x="3239.115234"/>
      <use xlink:href="#DejaVuSans-3e" x="3322.904297"/>
     </g>
    </g>
    <g id="line2d_79">
     <path d="M 55.965625 153.430625 
L 65.965625 153.430625 
L 75.965625 153.430625 
" style="fill: none; stroke: #2ca02c; stroke-width: 1.5; stroke-linecap: square"/>
    </g>
    <g id="text_49">
     <!-- Batched&lt;128, Eytzinger, Eytzinger::batch_impl_prefetched&lt;128, 4&gt;&gt; -->
     <g transform="translate(83.965625 156.930625) scale(0.1 -0.1)">
      <use xlink:href="#DejaVuSans-42"/>
      <use xlink:href="#DejaVuSans-61" x="68.603516"/>
      <use xlink:href="#DejaVuSans-74" x="129.882812"/>
      <use xlink:href="#DejaVuSans-63" x="169.091797"/>
      <use xlink:href="#DejaVuSans-68" x="224.072266"/>
      <use xlink:href="#DejaVuSans-65" x="287.451172"/>
      <use xlink:href="#DejaVuSans-64" x="348.974609"/>
      <use xlink:href="#DejaVuSans-3c" x="412.451172"/>
      <use xlink:href="#DejaVuSans-31" x="496.240234"/>
      <use xlink:href="#DejaVuSans-32" x="559.863281"/>
      <use xlink:href="#DejaVuSans-38" x="623.486328"/>
      <use xlink:href="#DejaVuSans-2c" x="687.109375"/>
      <use xlink:href="#DejaVuSans-20" x="718.896484"/>
      <use xlink:href="#DejaVuSans-45" x="750.683594"/>
      <use xlink:href="#DejaVuSans-79" x="813.867188"/>
      <use xlink:href="#DejaVuSans-74" x="873.046875"/>
      <use xlink:href="#DejaVuSans-7a" x="912.255859"/>
      <use xlink:href="#DejaVuSans-69" x="964.746094"/>
      <use xlink:href="#DejaVuSans-6e" x="992.529297"/>
      <use xlink:href="#DejaVuSans-67" x="1055.908203"/>
      <use xlink:href="#DejaVuSans-65" x="1119.384766"/>
      <use xlink:href="#DejaVuSans-72" x="1180.908203"/>
      <use xlink:href="#DejaVuSans-2c" x="1222.021484"/>
      <use xlink:href="#DejaVuSans-20" x="1253.808594"/>
      <use xlink:href="#DejaVuSans-45" x="1285.595703"/>
      <use xlink:href="#DejaVuSans-79" x="1348.779297"/>
      <use xlink:href="#DejaVuSans-74" x="1407.958984"/>
      <use xlink:href="#DejaVuSans-7a" x="1447.167969"/>
      <use xlink:href="#DejaVuSans-69" x="1499.658203"/>
      <use xlink:href="#DejaVuSans-6e" x="1527.441406"/>
      <use xlink:href="#DejaVuSans-67" x="1590.820312"/>
      <use xlink:href="#DejaVuSans-65" x="1654.296875"/>
      <use xlink:href="#DejaVuSans-72" x="1715.820312"/>
      <use xlink:href="#DejaVuSans-3a" x="1755.183594"/>
      <use xlink:href="#DejaVuSans-3a" x="1788.875"/>
      <use xlink:href="#DejaVuSans-62" x="1822.566406"/>
      <use xlink:href="#DejaVuSans-61" x="1886.042969"/>
      <use xlink:href="#DejaVuSans-74" x="1947.322266"/>
      <use xlink:href="#DejaVuSans-63" x="1986.53125"/>
      <use xlink:href="#DejaVuSans-68" x="2041.511719"/>
      <use xlink:href="#DejaVuSans-5f" x="2104.890625"/>
      <use xlink:href="#DejaVuSans-69" x="2154.890625"/>
      <use xlink:href="#DejaVuSans-6d" x="2182.673828"/>
      <use xlink:href="#DejaVuSans-70" x="2280.085938"/>
      <use xlink:href="#DejaVuSans-6c" x="2343.5625"/>
      <use xlink:href="#DejaVuSans-5f" x="2371.345703"/>
      <use xlink:href="#DejaVuSans-70" x="2421.345703"/>
      <use xlink:href="#DejaVuSans-72" x="2484.822266"/>
      <use xlink:href="#DejaVuSans-65" x="2523.685547"/>
      <use xlink:href="#DejaVuSans-66" x="2585.208984"/>
      <use xlink:href="#DejaVuSans-65" x="2620.414062"/>
      <use xlink:href="#DejaVuSans-74" x="2681.9375"/>
      <use xlink:href="#DejaVuSans-63" x="2721.146484"/>
      <use xlink:href="#DejaVuSans-68" x="2776.126953"/>
      <use xlink:href="#DejaVuSans-65" x="2839.505859"/>
      <use xlink:href="#DejaVuSans-64" x="2901.029297"/>
      <use xlink:href="#DejaVuSans-3c" x="2964.505859"/>
      <use xlink:href="#DejaVuSans-31" x="3048.294922"/>
      <use xlink:href="#DejaVuSans-32" x="3111.917969"/>
      <use xlink:href="#DejaVuSans-38" x="3175.541016"/>
      <use xlink:href="#DejaVuSans-2c" x="3239.164062"/>
      <use xlink:href="#DejaVuSans-20" x="3270.951172"/>
      <use xlink:href="#DejaVuSans-34" x="3302.738281"/>
      <use xlink:href="#DejaVuSans-3e" x="3366.361328"/>
      <use xlink:href="#DejaVuSans-3e" x="3450.150391"/>
     </g>
    </g>
   </g>
  </g>
 </g>
 <defs>
  <clipPath id="p965ef9a0ab">
   <rect x="46.965625" y="50.594688" width="613.8" height="443.52"/>
  </clipPath>
 </defs>
</svg>
