<?xml version="1.0" encoding="utf-8" standalone="no"?>
<!DOCTYPE svg PUBLIC "-//W3C//DTD SVG 1.1//EN"
  "http://www.w3.org/Graphics/SVG/1.1/DTD/svg11.dtd">
<svg xmlns:xlink="http://www.w3.org/1999/xlink" width="661.603125pt" height="531.670938pt" viewBox="0 0 661.603125 531.670938" xmlns="http://www.w3.org/2000/svg" version="1.1">
 <metadata>
  <rdf:RDF xmlns:dc="http://purl.org/dc/elements/1.1/" xmlns:cc="http://creativecommons.org/ns#" xmlns:rdf="http://www.w3.org/1999/02/22-rdf-syntax-ns#">
   <cc:Work>
    <dc:type rdf:resource="http://purl.org/dc/dcmitype/StillImage"/>
    <dc:date>2025-03-01T18:57:16.661103</dc:date>
    <dc:format>image/svg+xml</dc:format>
    <dc:creator>
     <cc:Agent>
      <dc:title>Matplotlib v3.9.2, https://matplotlib.org/</dc:title>
     </cc:Agent>
    </dc:creator>
   </cc:Work>
  </rdf:RDF>
 </metadata>
 <defs>
  <style type="text/css">*{stroke-linejoin: round; stroke-linecap: butt}</style>
 </defs>
 <g id="figure_1">
  <g id="patch_1">
   <path d="M 0 531.670938 
L 661.603125 531.670938 
L 661.603125 0 
L 0 0 
z
" style="fill: #ffffff"/>
  </g>
  <g id="axes_1">
   <g id="patch_2">
    <path d="M 40.603125 494.114688 
L 654.403125 494.114688 
L 654.403125 50.594688 
L 40.603125 50.594688 
z
" style="fill: #ffffff"/>
   </g>
   <g id="line2d_1">
    <path d="M 292.456204 494.114688 
L 292.456204 50.594688 
" clip-path="url(#pd6fc3a9c9b)" style="fill: none; stroke-dasharray: 5.55,2.4; stroke-dashoffset: 0; stroke: #ff0000; stroke-width: 1.5"/>
   </g>
   <g id="line2d_2">
    <path d="M 382.037435 494.114688 
L 382.037435 50.594688 
" clip-path="url(#pd6fc3a9c9b)" style="fill: none; stroke-dasharray: 5.55,2.4; stroke-dashoffset: 0; stroke: #ff0000; stroke-width: 1.5"/>
   </g>
   <g id="line2d_3">
    <path d="M 449.223359 494.114688 
L 449.223359 50.594688 
" clip-path="url(#pd6fc3a9c9b)" style="fill: none; stroke-dasharray: 5.55,2.4; stroke-dashoffset: 0; stroke: #ff0000; stroke-width: 1.5"/>
   </g>
   <g id="axes_2">
    <g id="patch_3">
     <path d="M 40.603125 50.594688 
L 654.403125 50.594688 
L 654.403125 50.594687 
L 40.603125 50.594687 
z
" style="fill: #ffffff"/>
    </g>
    <g id="matplotlib.axis_1">
     <g id="xtick_1">
      <g id="line2d_4">
       <defs>
        <path id="m0a8180b0dc" d="M 0 0 
L 0 -3.5 
" style="stroke: #000000; stroke-width: 0.8"/>
       </defs>
       <g>
        <use xlink:href="#m0a8180b0dc" x="46.107817" y="50.594687" style="stroke: #000000; stroke-width: 0.8"/>
       </g>
      </g>
      <g id="text_1">
       <!-- $\mathdefault{2^{2}}$ -->
       <g transform="translate(40.507817 41.515) scale(0.1 -0.1)">
        <defs>
         <path id="DejaVuSans-32" d="M 1228 531 
L 3431 531 
L 3431 0 
L 469 0 
L 469 531 
Q 828 903 1448 1529 
Q 2069 2156 2228 2338 
Q 2531 2678 2651 2914 
Q 2772 3150 2772 3378 
Q 2772 3750 2511 3984 
Q 2250 4219 1831 4219 
Q 1534 4219 1204 4116 
Q 875 4013 500 3803 
L 500 4441 
Q 881 4594 1212 4672 
Q 1544 4750 1819 4750 
Q 2544 4750 2975 4387 
Q 3406 4025 3406 3419 
Q 3406 3131 3298 2873 
Q 3191 2616 2906 2266 
Q 2828 2175 2409 1742 
Q 1991 1309 1228 531 
z
" transform="scale(0.015625)"/>
        </defs>
        <use xlink:href="#DejaVuSans-32" transform="translate(0 0.765625)"/>
        <use xlink:href="#DejaVuSans-32" transform="translate(64.580078 39.046875) scale(0.7)"/>
       </g>
      </g>
     </g>
     <g id="xtick_2">
      <g id="line2d_5">
       <g>
        <use xlink:href="#m0a8180b0dc" x="90.898433" y="50.594687" style="stroke: #000000; stroke-width: 0.8"/>
       </g>
      </g>
      <g id="text_2">
       <!-- $\mathdefault{2^{4}}$ -->
       <g transform="translate(85.298433 41.515) scale(0.1 -0.1)">
        <defs>
         <path id="DejaVuSans-34" d="M 2419 4116 
L 825 1625 
L 2419 1625 
L 2419 4116 
z
M 2253 4666 
L 3047 4666 
L 3047 1625 
L 3713 1625 
L 3713 1100 
L 3047 1100 
L 3047 0 
L 2419 0 
L 2419 1100 
L 313 1100 
L 313 1709 
L 2253 4666 
z
" transform="scale(0.015625)"/>
        </defs>
        <use xlink:href="#DejaVuSans-32" transform="translate(0 0.684375)"/>
        <use xlink:href="#DejaVuSans-34" transform="translate(64.580078 38.965625) scale(0.7)"/>
       </g>
      </g>
     </g>
     <g id="xtick_3">
      <g id="line2d_6">
       <g>
        <use xlink:href="#m0a8180b0dc" x="135.689049" y="50.594687" style="stroke: #000000; stroke-width: 0.8"/>
       </g>
      </g>
      <g id="text_3">
       <!-- $\mathdefault{2^{6}}$ -->
       <g transform="translate(130.089049 41.515) scale(0.1 -0.1)">
        <defs>
         <path id="DejaVuSans-36" d="M 2113 2584 
Q 1688 2584 1439 2293 
Q 1191 2003 1191 1497 
Q 1191 994 1439 701 
Q 1688 409 2113 409 
Q 2538 409 2786 701 
Q 3034 994 3034 1497 
Q 3034 2003 2786 2293 
Q 2538 2584 2113 2584 
z
M 3366 4563 
L 3366 3988 
Q 3128 4100 2886 4159 
Q 2644 4219 2406 4219 
Q 1781 4219 1451 3797 
Q 1122 3375 1075 2522 
Q 1259 2794 1537 2939 
Q 1816 3084 2150 3084 
Q 2853 3084 3261 2657 
Q 3669 2231 3669 1497 
Q 3669 778 3244 343 
Q 2819 -91 2113 -91 
Q 1303 -91 875 529 
Q 447 1150 447 2328 
Q 447 3434 972 4092 
Q 1497 4750 2381 4750 
Q 2619 4750 2861 4703 
Q 3103 4656 3366 4563 
z
" transform="scale(0.015625)"/>
        </defs>
        <use xlink:href="#DejaVuSans-32" transform="translate(0 0.765625)"/>
        <use xlink:href="#DejaVuSans-36" transform="translate(64.580078 39.046875) scale(0.7)"/>
       </g>
      </g>
     </g>
     <g id="xtick_4">
      <g id="line2d_7">
       <g>
        <use xlink:href="#m0a8180b0dc" x="180.479664" y="50.594687" style="stroke: #000000; stroke-width: 0.8"/>
       </g>
      </g>
      <g id="text_4">
       <!-- $\mathdefault{2^{8}}$ -->
       <g transform="translate(174.879664 41.515) scale(0.1 -0.1)">
        <defs>
         <path id="DejaVuSans-38" d="M 2034 2216 
Q 1584 2216 1326 1975 
Q 1069 1734 1069 1313 
Q 1069 891 1326 650 
Q 1584 409 2034 409 
Q 2484 409 2743 651 
Q 3003 894 3003 1313 
Q 3003 1734 2745 1975 
Q 2488 2216 2034 2216 
z
M 1403 2484 
Q 997 2584 770 2862 
Q 544 3141 544 3541 
Q 544 4100 942 4425 
Q 1341 4750 2034 4750 
Q 2731 4750 3128 4425 
Q 3525 4100 3525 3541 
Q 3525 3141 3298 2862 
Q 3072 2584 2669 2484 
Q 3125 2378 3379 2068 
Q 3634 1759 3634 1313 
Q 3634 634 3220 271 
Q 2806 -91 2034 -91 
Q 1263 -91 848 271 
Q 434 634 434 1313 
Q 434 1759 690 2068 
Q 947 2378 1403 2484 
z
M 1172 3481 
Q 1172 3119 1398 2916 
Q 1625 2713 2034 2713 
Q 2441 2713 2670 2916 
Q 2900 3119 2900 3481 
Q 2900 3844 2670 4047 
Q 2441 4250 2034 4250 
Q 1625 4250 1398 4047 
Q 1172 3844 1172 3481 
z
" transform="scale(0.015625)"/>
        </defs>
        <use xlink:href="#DejaVuSans-32" transform="translate(0 0.765625)"/>
        <use xlink:href="#DejaVuSans-38" transform="translate(64.580078 39.046875) scale(0.7)"/>
       </g>
      </g>
     </g>
     <g id="xtick_5">
      <g id="line2d_8">
       <g>
        <use xlink:href="#m0a8180b0dc" x="225.27028" y="50.594687" style="stroke: #000000; stroke-width: 0.8"/>
       </g>
      </g>
      <g id="text_5">
       <!-- $\mathdefault{2^{10}}$ -->
       <g transform="translate(217.42028 41.515) scale(0.1 -0.1)">
        <defs>
         <path id="DejaVuSans-31" d="M 794 531 
L 1825 531 
L 1825 4091 
L 703 3866 
L 703 4441 
L 1819 4666 
L 2450 4666 
L 2450 531 
L 3481 531 
L 3481 0 
L 794 0 
L 794 531 
z
" transform="scale(0.015625)"/>
         <path id="DejaVuSans-30" d="M 2034 4250 
Q 1547 4250 1301 3770 
Q 1056 3291 1056 2328 
Q 1056 1369 1301 889 
Q 1547 409 2034 409 
Q 2525 409 2770 889 
Q 3016 1369 3016 2328 
Q 3016 3291 2770 3770 
Q 2525 4250 2034 4250 
z
M 2034 4750 
Q 2819 4750 3233 4129 
Q 3647 3509 3647 2328 
Q 3647 1150 3233 529 
Q 2819 -91 2034 -91 
Q 1250 -91 836 529 
Q 422 1150 422 2328 
Q 422 3509 836 4129 
Q 1250 4750 2034 4750 
z
" transform="scale(0.015625)"/>
        </defs>
        <use xlink:href="#DejaVuSans-32" transform="translate(0 0.765625)"/>
        <use xlink:href="#DejaVuSans-31" transform="translate(64.580078 39.046875) scale(0.7)"/>
        <use xlink:href="#DejaVuSans-30" transform="translate(109.116211 39.046875) scale(0.7)"/>
       </g>
      </g>
     </g>
     <g id="xtick_6">
      <g id="line2d_9">
       <g>
        <use xlink:href="#m0a8180b0dc" x="270.060896" y="50.594687" style="stroke: #000000; stroke-width: 0.8"/>
       </g>
      </g>
      <g id="text_6">
       <!-- $\mathdefault{2^{12}}$ -->
       <g transform="translate(262.210896 41.515) scale(0.1 -0.1)">
        <use xlink:href="#DejaVuSans-32" transform="translate(0 0.765625)"/>
        <use xlink:href="#DejaVuSans-31" transform="translate(64.580078 39.046875) scale(0.7)"/>
        <use xlink:href="#DejaVuSans-32" transform="translate(109.116211 39.046875) scale(0.7)"/>
       </g>
      </g>
     </g>
     <g id="xtick_7">
      <g id="line2d_10">
       <g>
        <use xlink:href="#m0a8180b0dc" x="314.851512" y="50.594687" style="stroke: #000000; stroke-width: 0.8"/>
       </g>
      </g>
      <g id="text_7">
       <!-- $\mathdefault{2^{14}}$ -->
       <g transform="translate(307.001512 41.515) scale(0.1 -0.1)">
        <use xlink:href="#DejaVuSans-32" transform="translate(0 0.684375)"/>
        <use xlink:href="#DejaVuSans-31" transform="translate(64.580078 38.965625) scale(0.7)"/>
        <use xlink:href="#DejaVuSans-34" transform="translate(109.116211 38.965625) scale(0.7)"/>
       </g>
      </g>
     </g>
     <g id="xtick_8">
      <g id="line2d_11">
       <g>
        <use xlink:href="#m0a8180b0dc" x="359.642127" y="50.594687" style="stroke: #000000; stroke-width: 0.8"/>
       </g>
      </g>
      <g id="text_8">
       <!-- $\mathdefault{2^{16}}$ -->
       <g transform="translate(351.792127 41.515) scale(0.1 -0.1)">
        <use xlink:href="#DejaVuSans-32" transform="translate(0 0.765625)"/>
        <use xlink:href="#DejaVuSans-31" transform="translate(64.580078 39.046875) scale(0.7)"/>
        <use xlink:href="#DejaVuSans-36" transform="translate(109.116211 39.046875) scale(0.7)"/>
       </g>
      </g>
     </g>
     <g id="xtick_9">
      <g id="line2d_12">
       <g>
        <use xlink:href="#m0a8180b0dc" x="404.432743" y="50.594687" style="stroke: #000000; stroke-width: 0.8"/>
       </g>
      </g>
      <g id="text_9">
       <!-- $\mathdefault{2^{18}}$ -->
       <g transform="translate(396.582743 41.515) scale(0.1 -0.1)">
        <use xlink:href="#DejaVuSans-32" transform="translate(0 0.765625)"/>
        <use xlink:href="#DejaVuSans-31" transform="translate(64.580078 39.046875) scale(0.7)"/>
        <use xlink:href="#DejaVuSans-38" transform="translate(109.116211 39.046875) scale(0.7)"/>
       </g>
      </g>
     </g>
     <g id="xtick_10">
      <g id="line2d_13">
       <g>
        <use xlink:href="#m0a8180b0dc" x="449.223359" y="50.594687" style="stroke: #000000; stroke-width: 0.8"/>
       </g>
      </g>
      <g id="text_10">
       <!-- $\mathdefault{2^{20}}$ -->
       <g transform="translate(441.373359 41.515) scale(0.1 -0.1)">
        <use xlink:href="#DejaVuSans-32" transform="translate(0 0.765625)"/>
        <use xlink:href="#DejaVuSans-32" transform="translate(64.580078 39.046875) scale(0.7)"/>
        <use xlink:href="#DejaVuSans-30" transform="translate(109.116211 39.046875) scale(0.7)"/>
       </g>
      </g>
     </g>
     <g id="xtick_11">
      <g id="line2d_14">
       <g>
        <use xlink:href="#m0a8180b0dc" x="494.013974" y="50.594687" style="stroke: #000000; stroke-width: 0.8"/>
       </g>
      </g>
      <g id="text_11">
       <!-- $\mathdefault{2^{22}}$ -->
       <g transform="translate(486.163974 41.515) scale(0.1 -0.1)">
        <use xlink:href="#DejaVuSans-32" transform="translate(0 0.765625)"/>
        <use xlink:href="#DejaVuSans-32" transform="translate(64.580078 39.046875) scale(0.7)"/>
        <use xlink:href="#DejaVuSans-32" transform="translate(109.116211 39.046875) scale(0.7)"/>
       </g>
      </g>
     </g>
     <g id="xtick_12">
      <g id="line2d_15">
       <g>
        <use xlink:href="#m0a8180b0dc" x="538.80459" y="50.594687" style="stroke: #000000; stroke-width: 0.8"/>
       </g>
      </g>
      <g id="text_12">
       <!-- $\mathdefault{2^{24}}$ -->
       <g transform="translate(530.95459 41.515) scale(0.1 -0.1)">
        <use xlink:href="#DejaVuSans-32" transform="translate(0 0.765625)"/>
        <use xlink:href="#DejaVuSans-32" transform="translate(64.580078 39.046875) scale(0.7)"/>
        <use xlink:href="#DejaVuSans-34" transform="translate(109.116211 39.046875) scale(0.7)"/>
       </g>
      </g>
     </g>
     <g id="xtick_13">
      <g id="line2d_16">
       <g>
        <use xlink:href="#m0a8180b0dc" x="583.595206" y="50.594687" style="stroke: #000000; stroke-width: 0.8"/>
       </g>
      </g>
      <g id="text_13">
       <!-- $\mathdefault{2^{26}}$ -->
       <g transform="translate(575.745206 41.515) scale(0.1 -0.1)">
        <use xlink:href="#DejaVuSans-32" transform="translate(0 0.765625)"/>
        <use xlink:href="#DejaVuSans-32" transform="translate(64.580078 39.046875) scale(0.7)"/>
        <use xlink:href="#DejaVuSans-36" transform="translate(109.116211 39.046875) scale(0.7)"/>
       </g>
      </g>
     </g>
     <g id="xtick_14">
      <g id="line2d_17">
       <g>
        <use xlink:href="#m0a8180b0dc" x="628.385822" y="50.594687" style="stroke: #000000; stroke-width: 0.8"/>
       </g>
      </g>
      <g id="text_14">
       <!-- $\mathdefault{2^{28}}$ -->
       <g transform="translate(620.535822 41.515) scale(0.1 -0.1)">
        <use xlink:href="#DejaVuSans-32" transform="translate(0 0.765625)"/>
        <use xlink:href="#DejaVuSans-32" transform="translate(64.580078 39.046875) scale(0.7)"/>
        <use xlink:href="#DejaVuSans-38" transform="translate(109.116211 39.046875) scale(0.7)"/>
       </g>
      </g>
     </g>
     <g id="text_15">
      <!-- Array length (u32) -->
      <g transform="translate(301.4875 29.916562) scale(0.1 -0.1)">
       <defs>
        <path id="DejaVuSans-41" d="M 2188 4044 
L 1331 1722 
L 3047 1722 
L 2188 4044 
z
M 1831 4666 
L 2547 4666 
L 4325 0 
L 3669 0 
L 3244 1197 
L 1141 1197 
L 716 0 
L 50 0 
L 1831 4666 
z
" transform="scale(0.015625)"/>
        <path id="DejaVuSans-72" d="M 2631 2963 
Q 2534 3019 2420 3045 
Q 2306 3072 2169 3072 
Q 1681 3072 1420 2755 
Q 1159 2438 1159 1844 
L 1159 0 
L 581 0 
L 581 3500 
L 1159 3500 
L 1159 2956 
Q 1341 3275 1631 3429 
Q 1922 3584 2338 3584 
Q 2397 3584 2469 3576 
Q 2541 3569 2628 3553 
L 2631 2963 
z
" transform="scale(0.015625)"/>
        <path id="DejaVuSans-61" d="M 2194 1759 
Q 1497 1759 1228 1600 
Q 959 1441 959 1056 
Q 959 750 1161 570 
Q 1363 391 1709 391 
Q 2188 391 2477 730 
Q 2766 1069 2766 1631 
L 2766 1759 
L 2194 1759 
z
M 3341 1997 
L 3341 0 
L 2766 0 
L 2766 531 
Q 2569 213 2275 61 
Q 1981 -91 1556 -91 
Q 1019 -91 701 211 
Q 384 513 384 1019 
Q 384 1609 779 1909 
Q 1175 2209 1959 2209 
L 2766 2209 
L 2766 2266 
Q 2766 2663 2505 2880 
Q 2244 3097 1772 3097 
Q 1472 3097 1187 3025 
Q 903 2953 641 2809 
L 641 3341 
Q 956 3463 1253 3523 
Q 1550 3584 1831 3584 
Q 2591 3584 2966 3190 
Q 3341 2797 3341 1997 
z
" transform="scale(0.015625)"/>
        <path id="DejaVuSans-79" d="M 2059 -325 
Q 1816 -950 1584 -1140 
Q 1353 -1331 966 -1331 
L 506 -1331 
L 506 -850 
L 844 -850 
Q 1081 -850 1212 -737 
Q 1344 -625 1503 -206 
L 1606 56 
L 191 3500 
L 800 3500 
L 1894 763 
L 2988 3500 
L 3597 3500 
L 2059 -325 
z
" transform="scale(0.015625)"/>
        <path id="DejaVuSans-20" transform="scale(0.015625)"/>
        <path id="DejaVuSans-6c" d="M 603 4863 
L 1178 4863 
L 1178 0 
L 603 0 
L 603 4863 
z
" transform="scale(0.015625)"/>
        <path id="DejaVuSans-65" d="M 3597 1894 
L 3597 1613 
L 953 1613 
Q 991 1019 1311 708 
Q 1631 397 2203 397 
Q 2534 397 2845 478 
Q 3156 559 3463 722 
L 3463 178 
Q 3153 47 2828 -22 
Q 2503 -91 2169 -91 
Q 1331 -91 842 396 
Q 353 884 353 1716 
Q 353 2575 817 3079 
Q 1281 3584 2069 3584 
Q 2775 3584 3186 3129 
Q 3597 2675 3597 1894 
z
M 3022 2063 
Q 3016 2534 2758 2815 
Q 2500 3097 2075 3097 
Q 1594 3097 1305 2825 
Q 1016 2553 972 2059 
L 3022 2063 
z
" transform="scale(0.015625)"/>
        <path id="DejaVuSans-6e" d="M 3513 2113 
L 3513 0 
L 2938 0 
L 2938 2094 
Q 2938 2591 2744 2837 
Q 2550 3084 2163 3084 
Q 1697 3084 1428 2787 
Q 1159 2491 1159 1978 
L 1159 0 
L 581 0 
L 581 3500 
L 1159 3500 
L 1159 2956 
Q 1366 3272 1645 3428 
Q 1925 3584 2291 3584 
Q 2894 3584 3203 3211 
Q 3513 2838 3513 2113 
z
" transform="scale(0.015625)"/>
        <path id="DejaVuSans-67" d="M 2906 1791 
Q 2906 2416 2648 2759 
Q 2391 3103 1925 3103 
Q 1463 3103 1205 2759 
Q 947 2416 947 1791 
Q 947 1169 1205 825 
Q 1463 481 1925 481 
Q 2391 481 2648 825 
Q 2906 1169 2906 1791 
z
M 3481 434 
Q 3481 -459 3084 -895 
Q 2688 -1331 1869 -1331 
Q 1566 -1331 1297 -1286 
Q 1028 -1241 775 -1147 
L 775 -588 
Q 1028 -725 1275 -790 
Q 1522 -856 1778 -856 
Q 2344 -856 2625 -561 
Q 2906 -266 2906 331 
L 2906 616 
Q 2728 306 2450 153 
Q 2172 0 1784 0 
Q 1141 0 747 490 
Q 353 981 353 1791 
Q 353 2603 747 3093 
Q 1141 3584 1784 3584 
Q 2172 3584 2450 3431 
Q 2728 3278 2906 2969 
L 2906 3500 
L 3481 3500 
L 3481 434 
z
" transform="scale(0.015625)"/>
        <path id="DejaVuSans-74" d="M 1172 4494 
L 1172 3500 
L 2356 3500 
L 2356 3053 
L 1172 3053 
L 1172 1153 
Q 1172 725 1289 603 
Q 1406 481 1766 481 
L 2356 481 
L 2356 0 
L 1766 0 
Q 1100 0 847 248 
Q 594 497 594 1153 
L 594 3053 
L 172 3053 
L 172 3500 
L 594 3500 
L 594 4494 
L 1172 4494 
z
" transform="scale(0.015625)"/>
        <path id="DejaVuSans-68" d="M 3513 2113 
L 3513 0 
L 2938 0 
L 2938 2094 
Q 2938 2591 2744 2837 
Q 2550 3084 2163 3084 
Q 1697 3084 1428 2787 
Q 1159 2491 1159 1978 
L 1159 0 
L 581 0 
L 581 4863 
L 1159 4863 
L 1159 2956 
Q 1366 3272 1645 3428 
Q 1925 3584 2291 3584 
Q 2894 3584 3203 3211 
Q 3513 2838 3513 2113 
z
" transform="scale(0.015625)"/>
        <path id="DejaVuSans-28" d="M 1984 4856 
Q 1566 4138 1362 3434 
Q 1159 2731 1159 2009 
Q 1159 1288 1364 580 
Q 1569 -128 1984 -844 
L 1484 -844 
Q 1016 -109 783 600 
Q 550 1309 550 2009 
Q 550 2706 781 3412 
Q 1013 4119 1484 4856 
L 1984 4856 
z
" transform="scale(0.015625)"/>
        <path id="DejaVuSans-75" d="M 544 1381 
L 544 3500 
L 1119 3500 
L 1119 1403 
Q 1119 906 1312 657 
Q 1506 409 1894 409 
Q 2359 409 2629 706 
Q 2900 1003 2900 1516 
L 2900 3500 
L 3475 3500 
L 3475 0 
L 2900 0 
L 2900 538 
Q 2691 219 2414 64 
Q 2138 -91 1772 -91 
Q 1169 -91 856 284 
Q 544 659 544 1381 
z
M 1991 3584 
L 1991 3584 
z
" transform="scale(0.015625)"/>
        <path id="DejaVuSans-33" d="M 2597 2516 
Q 3050 2419 3304 2112 
Q 3559 1806 3559 1356 
Q 3559 666 3084 287 
Q 2609 -91 1734 -91 
Q 1441 -91 1130 -33 
Q 819 25 488 141 
L 488 750 
Q 750 597 1062 519 
Q 1375 441 1716 441 
Q 2309 441 2620 675 
Q 2931 909 2931 1356 
Q 2931 1769 2642 2001 
Q 2353 2234 1838 2234 
L 1294 2234 
L 1294 2753 
L 1863 2753 
Q 2328 2753 2575 2939 
Q 2822 3125 2822 3475 
Q 2822 3834 2567 4026 
Q 2313 4219 1838 4219 
Q 1578 4219 1281 4162 
Q 984 4106 628 3988 
L 628 4550 
Q 988 4650 1302 4700 
Q 1616 4750 1894 4750 
Q 2613 4750 3031 4423 
Q 3450 4097 3450 3541 
Q 3450 3153 3228 2886 
Q 3006 2619 2597 2516 
z
" transform="scale(0.015625)"/>
        <path id="DejaVuSans-29" d="M 513 4856 
L 1013 4856 
Q 1481 4119 1714 3412 
Q 1947 2706 1947 2009 
Q 1947 1309 1714 600 
Q 1481 -109 1013 -844 
L 513 -844 
Q 928 -128 1133 580 
Q 1338 1288 1338 2009 
Q 1338 2731 1133 3434 
Q 928 4138 513 4856 
z
" transform="scale(0.015625)"/>
       </defs>
       <use xlink:href="#DejaVuSans-41"/>
       <use xlink:href="#DejaVuSans-72" x="68.408203"/>
       <use xlink:href="#DejaVuSans-72" x="107.771484"/>
       <use xlink:href="#DejaVuSans-61" x="148.884766"/>
       <use xlink:href="#DejaVuSans-79" x="210.164062"/>
       <use xlink:href="#DejaVuSans-20" x="269.34375"/>
       <use xlink:href="#DejaVuSans-6c" x="301.130859"/>
       <use xlink:href="#DejaVuSans-65" x="328.914062"/>
       <use xlink:href="#DejaVuSans-6e" x="390.4375"/>
       <use xlink:href="#DejaVuSans-67" x="453.816406"/>
       <use xlink:href="#DejaVuSans-74" x="517.292969"/>
       <use xlink:href="#DejaVuSans-68" x="556.501953"/>
       <use xlink:href="#DejaVuSans-20" x="619.880859"/>
       <use xlink:href="#DejaVuSans-28" x="651.667969"/>
       <use xlink:href="#DejaVuSans-75" x="690.681641"/>
       <use xlink:href="#DejaVuSans-33" x="754.060547"/>
       <use xlink:href="#DejaVuSans-32" x="817.683594"/>
       <use xlink:href="#DejaVuSans-29" x="881.306641"/>
      </g>
     </g>
    </g>
    <g id="matplotlib.axis_2"/>
    <g id="patch_4">
     <path d="M 40.603125 50.594687 
L 654.403125 50.594687 
" style="fill: none; stroke: #000000; stroke-width: 0.8; stroke-linejoin: miter; stroke-linecap: square"/>
    </g>
   </g>
   <g id="PolyCollection_1">
    <defs>
     <path id="mb28c32bca9" d="M 68.503125 -61.254121 
L 68.503125 -55.301053 
L 73.193898 -53.543084 
L 78.049455 -56.027384 
L 83.562298 -54.981337 
L 88.270188 -59.65127 
L 93.793766 -54.321682 
L 98.90592 -53.937862 
L 103.998848 -54.441837 
L 108.979395 -53.866354 
L 114.042259 -56.404488 
L 119.058021 -55.824793 
L 124.128944 -56.759935 
L 129.289489 -65.539531 
L 134.401643 -57.350912 
L 139.494571 -61.605076 
L 144.571135 -61.496699 
L 149.620091 -67.977791 
L 154.694221 -59.656582 
L 159.804665 -63.431383 
L 164.836457 -69.611187 
L 169.941117 -63.519101 
L 175.027668 -63.003725 
L 180.0988 -64.688169 
L 185.170437 -67.732103 
L 190.236634 -67.705171 
L 195.320327 -67.519057 
L 200.383343 -65.814605 
L 205.465974 -69.737253 
L 210.53584 -69.84942 
L 215.605164 -69.122388 
L 220.684347 -68.975745 
L 225.755677 -72.485794 
L 230.829335 -71.426677 
L 235.901779 -79.763505 
L 240.971403 -72.401688 
L 246.048153 -71.525441 
L 251.118613 -75.675454 
L 256.19219 -73.039583 
L 261.264348 -76.378111 
L 266.338338 -91.122035 
L 271.410745 -78.181166 
L 276.484912 -76.563811 
L 281.556313 -90.284335 
L 286.629691 -89.249002 
L 291.703055 -92.583082 
L 296.775602 -94.672456 
L 301.848073 -93.033445 
L 306.920965 -92.411044 
L 311.993564 -99.263374 
L 317.06631 -109.046923 
L 322.139188 -99.463171 
L 327.211896 -99.243424 
L 332.284837 -99.363055 
L 337.357556 -102.788747 
L 342.430338 -104.490554 
L 347.503108 -104.244237 
L 352.575841 -105.152337 
L 357.648548 -105.956869 
L 362.721292 -108.819521 
L 367.793971 -106.981821 
L 372.866705 -109.669737 
L 377.939427 -107.651325 
L 383.012168 -113.652382 
L 388.084906 -116.930551 
L 393.15764 -111.448498 
L 398.230384 -117.157694 
L 403.303098 -112.822336 
L 408.37585 -120.020863 
L 413.448579 -119.04252 
L 418.521302 -119.958473 
L 423.594033 -121.807079 
L 428.666756 -123.160621 
L 433.739482 -125.510069 
L 438.81221 -128.071018 
L 443.884943 -136.737412 
L 448.957672 -130.975815 
L 454.030398 -156.464106 
L 459.103126 -164.356631 
L 464.175852 -177.049343 
L 469.248579 -174.477732 
L 474.321309 -185.350691 
L 479.394036 -189.941048 
L 484.466764 -194.614158 
L 489.539492 -196.087248 
L 494.612218 -213.755741 
L 499.684945 -221.892196 
L 504.757672 -227.833959 
L 509.830399 -232.259045 
L 514.903126 -237.219538 
L 519.975853 -250.453576 
L 525.048582 -256.4749 
L 530.12131 -251.276868 
L 535.194038 -265.682308 
L 540.266767 -290.398052 
L 545.339493 -291.309188 
L 550.412219 -320.890636 
L 555.484946 -300.201831 
L 560.557673 -304.809108 
L 565.630401 -330.095384 
L 570.703128 -331.875726 
L 575.775856 -339.083689 
L 580.848584 -341.82903 
L 585.921309 -372.052865 
L 590.994035 -367.296743 
L 596.066762 -372.031106 
L 601.13949 -385.054588 
L 606.212216 -400.352781 
L 611.284943 -404.587927 
L 616.357671 -406.067859 
L 621.430398 -409.133766 
L 626.503125 -415.379153 
L 626.503125 -535.377742 
L 626.503125 -535.377742 
L 621.430398 -510.603058 
L 616.357671 -412.44837 
L 611.284943 -457.422039 
L 606.212216 -402.833955 
L 601.13949 -466.619495 
L 596.066762 -373.452904 
L 590.994035 -423.496279 
L 585.921309 -377.810007 
L 580.848584 -362.715778 
L 575.775856 -385.921392 
L 570.703128 -338.605648 
L 565.630401 -445.936565 
L 560.557673 -371.258234 
L 555.484946 -378.013624 
L 550.412219 -367.727408 
L 545.339493 -296.232886 
L 540.266767 -354.172243 
L 535.194038 -267.998404 
L 530.12131 -261.315969 
L 525.048582 -259.168373 
L 519.975853 -263.890285 
L 514.903126 -294.056821 
L 509.830399 -236.518625 
L 504.757672 -232.628945 
L 499.684945 -226.159563 
L 494.612218 -215.712931 
L 489.539492 -201.242618 
L 484.466764 -243.024196 
L 479.394036 -197.152018 
L 474.321309 -195.758769 
L 469.248579 -185.247021 
L 464.175852 -196.449139 
L 459.103126 -168.238973 
L 454.030398 -194.317184 
L 448.957672 -140.533692 
L 443.884943 -169.14575 
L 438.81221 -150.498071 
L 433.739482 -135.29811 
L 428.666756 -125.774318 
L 423.594033 -142.706875 
L 418.521302 -139.084888 
L 413.448579 -134.688403 
L 408.37585 -144.071322 
L 403.303098 -119.381468 
L 398.230384 -119.311734 
L 393.15764 -113.127763 
L 388.084906 -121.881321 
L 383.012168 -116.608848 
L 377.939427 -117.624128 
L 372.866705 -128.971751 
L 367.793971 -107.688712 
L 362.721292 -128.557054 
L 357.648548 -114.94244 
L 352.575841 -118.958525 
L 347.503108 -121.025378 
L 342.430338 -119.100735 
L 337.357556 -106.894479 
L 332.284837 -122.514384 
L 327.211896 -99.833049 
L 322.139188 -100.7751 
L 317.06631 -120.730237 
L 311.993564 -114.679144 
L 306.920965 -98.599914 
L 301.848073 -95.757692 
L 296.775602 -109.4215 
L 291.703055 -101.598274 
L 286.629691 -103.785584 
L 281.556313 -92.986379 
L 276.484912 -105.872616 
L 271.410745 -104.162149 
L 266.338338 -97.927713 
L 261.264348 -82.401371 
L 256.19219 -97.463533 
L 251.118613 -98.219485 
L 246.048153 -72.794323 
L 240.971403 -88.658402 
L 235.901779 -92.113442 
L 230.829335 -93.043198 
L 225.755677 -92.830381 
L 220.684347 -87.581818 
L 215.605164 -87.316239 
L 210.53584 -87.515785 
L 205.465974 -87.973958 
L 200.383343 -67.608423 
L 195.320327 -85.752585 
L 190.236634 -83.251381 
L 185.170437 -83.400418 
L 180.0988 -78.449242 
L 175.027668 -65.022138 
L 169.941117 -71.404769 
L 164.836457 -78.024681 
L 159.804665 -78.199549 
L 154.694221 -70.516013 
L 149.620091 -71.294774 
L 144.571135 -62.906778 
L 139.494571 -63.354932 
L 134.401643 -59.32783 
L 129.289489 -66.094289 
L 124.128944 -58.889245 
L 119.058021 -59.417374 
L 114.042259 -58.502447 
L 108.979395 -55.737518 
L 103.998848 -61.541984 
L 98.90592 -55.248557 
L 93.793766 -61.386622 
L 88.270188 -61.118908 
L 83.562298 -60.116972 
L 78.049455 -60.840901 
L 73.193898 -60.749998 
L 68.503125 -61.254121 
z
" style="stroke: #2ca02c; stroke-opacity: 0.2"/>
    </defs>
    <g clip-path="url(#pd6fc3a9c9b)">
     <use xlink:href="#mb28c32bca9" x="0" y="531.670938" style="fill: #2ca02c; fill-opacity: 0.2; stroke: #2ca02c; stroke-opacity: 0.2"/>
    </g>
   </g>
   <g id="PolyCollection_2">
    <defs>
     <path id="mf3876f5dbf" d="M 68.503125 -54.901288 
L 68.503125 -49.780113 
L 73.193898 -54.040461 
L 78.049455 -51.171692 
L 83.562298 -51.997629 
L 88.270188 -50.732567 
L 93.793766 -50.736749 
L 98.90592 -50.432431 
L 103.998848 -50.720132 
L 108.979395 -51.242335 
L 114.042259 -54.502166 
L 119.058021 -52.40578 
L 124.128944 -52.195779 
L 129.289489 -58.026992 
L 134.401643 -57.988032 
L 139.494571 -56.489103 
L 144.571135 -54.105238 
L 149.620091 -52.538104 
L 154.694221 -55.506917 
L 159.804665 -56.296701 
L 164.836457 -55.985985 
L 169.941117 -54.697479 
L 175.027668 -55.046254 
L 180.0988 -56.908537 
L 185.170437 -63.652379 
L 190.236634 -55.99794 
L 195.320327 -56.531787 
L 200.383343 -55.50674 
L 205.465974 -57.658614 
L 210.53584 -58.033213 
L 215.605164 -65.591718 
L 220.684347 -56.48628 
L 225.755677 -57.971333 
L 230.829335 -65.284695 
L 235.901779 -58.188657 
L 240.971403 -59.93753 
L 246.048153 -57.768351 
L 251.118613 -59.855338 
L 256.19219 -57.894173 
L 261.264348 -59.507671 
L 266.338338 -61.282449 
L 271.410745 -59.435638 
L 276.484912 -59.591163 
L 281.556313 -60.913125 
L 286.629691 -59.727071 
L 291.703055 -60.466508 
L 296.775602 -62.778659 
L 301.848073 -61.420514 
L 306.920965 -62.055875 
L 311.993564 -61.457938 
L 317.06631 -65.07029 
L 322.139188 -63.731083 
L 327.211896 -75.459823 
L 332.284837 -64.010929 
L 337.357556 -79.118059 
L 342.430338 -64.662265 
L 347.503108 -68.179591 
L 352.575841 -65.564365 
L 357.648548 -64.36057 
L 362.721292 -67.468851 
L 367.793971 -65.715389 
L 372.866705 -67.755628 
L 377.939427 -68.045886 
L 383.012168 -69.360459 
L 388.084906 -91.827751 
L 393.15764 -69.975154 
L 398.230384 -72.478893 
L 403.303098 -71.46031 
L 408.37585 -74.156517 
L 413.448579 -73.412712 
L 418.521302 -73.848497 
L 423.594033 -88.758519 
L 428.666756 -76.359359 
L 433.739482 -75.433445 
L 438.81221 -76.483518 
L 443.884943 -84.523647 
L 448.957672 -101.880669 
L 454.030398 -105.121519 
L 459.103126 -109.61484 
L 464.175852 -112.729778 
L 469.248579 -123.469601 
L 474.321309 -121.784536 
L 479.394036 -126.789893 
L 484.466764 -133.119378 
L 489.539492 -134.342553 
L 494.612218 -130.853665 
L 499.684945 -142.949172 
L 504.757672 -144.176508 
L 509.830399 -151.767781 
L 514.903126 -160.257097 
L 519.975853 -157.236305 
L 525.048582 -168.057241 
L 530.12131 -170.144893 
L 535.194038 -185.320863 
L 540.266767 -177.547828 
L 545.339493 -185.16593 
L 550.412219 -187.858368 
L 555.484946 -195.182969 
L 560.557673 -202.204101 
L 565.630401 -204.91872 
L 570.703128 -210.219507 
L 575.775856 -217.634589 
L 580.848584 -222.731366 
L 585.921309 -225.210117 
L 590.994035 -234.391835 
L 596.066762 -243.29562 
L 601.13949 -241.252906 
L 606.212216 -244.984467 
L 611.284943 -250.454521 
L 616.357671 -260.044147 
L 621.430398 -263.162595 
L 626.503125 -269.54114 
L 626.503125 -280.780091 
L 626.503125 -280.780091 
L 621.430398 -293.525492 
L 616.357671 -268.169991 
L 611.284943 -251.967289 
L 606.212216 -262.515294 
L 601.13949 -272.667849 
L 596.066762 -252.716864 
L 590.994035 -259.585575 
L 585.921309 -227.646766 
L 580.848584 -223.021166 
L 575.775856 -223.626765 
L 570.703128 -221.981185 
L 565.630401 -240.385037 
L 560.557673 -205.004156 
L 555.484946 -199.844537 
L 550.412219 -192.60272 
L 545.339493 -188.568562 
L 540.266767 -184.191051 
L 535.194038 -198.528161 
L 530.12131 -172.675527 
L 525.048582 -181.975301 
L 519.975853 -164.301563 
L 514.903126 -203.957437 
L 509.830399 -158.187281 
L 504.757672 -150.137274 
L 499.684945 -150.339251 
L 494.612218 -142.516801 
L 489.539492 -137.915192 
L 484.466764 -152.997761 
L 479.394036 -141.41152 
L 474.321309 -142.975373 
L 469.248579 -142.886679 
L 464.175852 -116.605951 
L 459.103126 -135.23439 
L 454.030398 -115.466564 
L 448.957672 -105.617869 
L 443.884943 -109.70555 
L 438.81221 -109.380286 
L 433.739482 -93.441212 
L 428.666756 -101.376495 
L 423.594033 -99.71834 
L 418.521302 -74.348881 
L 413.448579 -79.180375 
L 408.37585 -97.378933 
L 403.303098 -73.27512 
L 398.230384 -73.675158 
L 393.15764 -73.497653 
L 388.084906 -92.473212 
L 383.012168 -88.069494 
L 377.939427 -69.491586 
L 372.866705 -68.658268 
L 367.793971 -68.077642 
L 362.721292 -85.24997 
L 357.648548 -82.438004 
L 352.575841 -81.714105 
L 347.503108 -81.863992 
L 342.430338 -67.046831 
L 337.357556 -84.031294 
L 332.284837 -79.667061 
L 327.211896 -78.492119 
L 322.139188 -77.734756 
L 317.06631 -78.801299 
L 311.993564 -74.830787 
L 306.920965 -63.666461 
L 301.848073 -61.706833 
L 296.775602 -74.148884 
L 291.703055 -72.700539 
L 286.629691 -71.830956 
L 281.556313 -62.124634 
L 276.484912 -71.472139 
L 271.410745 -60.138643 
L 266.338338 -69.73398 
L 261.264348 -72.139641 
L 256.19219 -66.847758 
L 251.118613 -68.958884 
L 246.048153 -67.939902 
L 240.971403 -63.806832 
L 235.901779 -67.856846 
L 230.829335 -67.531278 
L 225.755677 -68.021843 
L 220.684347 -65.735442 
L 215.605164 -65.747966 
L 210.53584 -67.729443 
L 205.465974 -65.659287 
L 200.383343 -57.784643 
L 195.320327 -63.712685 
L 190.236634 -58.306388 
L 185.170437 -63.673451 
L 180.0988 -62.221352 
L 175.027668 -61.720184 
L 169.941117 -61.776228 
L 164.836457 -61.719785 
L 159.804665 -62.343539 
L 154.694221 -59.957273 
L 149.620091 -60.521081 
L 144.571135 -58.097835 
L 139.494571 -59.854865 
L 134.401643 -59.505373 
L 129.289489 -58.426506 
L 124.128944 -57.845696 
L 119.058021 -57.870426 
L 114.042259 -58.389274 
L 108.979395 -54.136175 
L 103.998848 -53.600598 
L 98.90592 -51.625697 
L 93.793766 -51.644309 
L 88.270188 -54.161185 
L 83.562298 -54.479556 
L 78.049455 -52.320833 
L 73.193898 -54.091606 
L 68.503125 -54.901288 
z
" style="stroke: #8c564b; stroke-opacity: 0.2"/>
    </defs>
    <g clip-path="url(#pd6fc3a9c9b)">
     <use xlink:href="#mf3876f5dbf" x="0" y="531.670938" style="fill: #8c564b; fill-opacity: 0.2; stroke: #8c564b; stroke-opacity: 0.2"/>
    </g>
   </g>
   <g id="PolyCollection_3">
    <defs>
     <path id="m9dec0b2120" d="M 68.503125 -54.035201 
L 68.503125 -53.190984 
L 73.193898 -55.253138 
L 78.049455 -51.552704 
L 83.562298 -52.633271 
L 88.270188 -51.712773 
L 93.793766 -51.62617 
L 98.90592 -50.994193 
L 103.998848 -50.961306 
L 108.979395 -50.933643 
L 114.042259 -55.95745 
L 119.058021 -55.777868 
L 124.128944 -52.889946 
L 129.289489 -59.039797 
L 134.401643 -57.589574 
L 139.494571 -55.773641 
L 144.571135 -58.668205 
L 149.620091 -63.129873 
L 154.694221 -62.897099 
L 159.804665 -57.20056 
L 164.836457 -56.256211 
L 169.941117 -56.713202 
L 175.027668 -58.307725 
L 180.0988 -57.972168 
L 185.170437 -57.689743 
L 190.236634 -60.623673 
L 195.320327 -57.455876 
L 200.383343 -60.517875 
L 205.465974 -59.547511 
L 210.53584 -71.029948 
L 215.605164 -60.345053 
L 220.684347 -60.037684 
L 225.755677 -60.716534 
L 230.829335 -61.659708 
L 235.901779 -67.237024 
L 240.971403 -61.758805 
L 246.048153 -59.997962 
L 251.118613 -61.523941 
L 256.19219 -60.368002 
L 261.264348 -62.365077 
L 266.338338 -62.386194 
L 271.410745 -64.287621 
L 276.484912 -64.937117 
L 281.556313 -64.518983 
L 286.629691 -63.990367 
L 291.703055 -65.444202 
L 296.775602 -66.960997 
L 301.848073 -64.736181 
L 306.920965 -65.103687 
L 311.993564 -65.48136 
L 317.06631 -67.017476 
L 322.139188 -66.525567 
L 327.211896 -77.796267 
L 332.284837 -66.942414 
L 337.357556 -69.624524 
L 342.430338 -68.422916 
L 347.503108 -70.048982 
L 352.575841 -88.068179 
L 357.648548 -67.803707 
L 362.721292 -70.298594 
L 367.793971 -71.340635 
L 372.866705 -70.366991 
L 377.939427 -70.870375 
L 383.012168 -73.61381 
L 388.084906 -74.771271 
L 393.15764 -73.74838 
L 398.230384 -77.16279 
L 403.303098 -72.905198 
L 408.37585 -74.297582 
L 413.448579 -76.881687 
L 418.521302 -87.577496 
L 423.594033 -74.715323 
L 428.666756 -92.451371 
L 433.739482 -87.470899 
L 438.81221 -79.153606 
L 443.884943 -99.123218 
L 448.957672 -81.194399 
L 454.030398 -99.551584 
L 459.103126 -105.063739 
L 464.175852 -108.988655 
L 469.248579 -117.855586 
L 474.321309 -113.231175 
L 479.394036 -117.492705 
L 484.466764 -121.173085 
L 489.539492 -126.914844 
L 494.612218 -134.177726 
L 499.684945 -137.245422 
L 504.757672 -140.293042 
L 509.830399 -149.050945 
L 514.903126 -157.679361 
L 519.975853 -151.709358 
L 525.048582 -158.042714 
L 530.12131 -167.488002 
L 535.194038 -172.619683 
L 540.266767 -178.844204 
L 545.339493 -186.53784 
L 550.412219 -189.164667 
L 555.484946 -197.590765 
L 560.557673 -197.79405 
L 565.630401 -211.539422 
L 570.703128 -210.507909 
L 575.775856 -217.747267 
L 580.848584 -215.578893 
L 585.921309 -236.456124 
L 590.994035 -239.681368 
L 596.066762 -238.02523 
L 601.13949 -239.822344 
L 606.212216 -260.203513 
L 611.284943 -263.667797 
L 616.357671 -260.599289 
L 621.430398 -275.755619 
L 626.503125 -266.102488 
L 626.503125 -276.51166 
L 626.503125 -276.51166 
L 621.430398 -315.192212 
L 616.357671 -265.821563 
L 611.284943 -273.998205 
L 606.212216 -291.061002 
L 601.13949 -244.552074 
L 596.066762 -239.245339 
L 590.994035 -257.307413 
L 585.921309 -240.808528 
L 580.848584 -222.66837 
L 575.775856 -239.480802 
L 570.703128 -217.0512 
L 565.630401 -226.701782 
L 560.557673 -218.316403 
L 555.484946 -205.671857 
L 550.412219 -191.048132 
L 545.339493 -194.443501 
L 540.266767 -198.902664 
L 535.194038 -195.267311 
L 530.12131 -183.638148 
L 525.048582 -160.870551 
L 519.975853 -152.804791 
L 514.903126 -184.08942 
L 509.830399 -162.594354 
L 504.757672 -141.532229 
L 499.684945 -152.955705 
L 494.612218 -136.331241 
L 489.539492 -135.786333 
L 484.466764 -123.816699 
L 479.394036 -139.726647 
L 474.321309 -130.645489 
L 469.248579 -128.784138 
L 464.175852 -112.086659 
L 459.103126 -118.737633 
L 454.030398 -110.61815 
L 448.957672 -101.616671 
L 443.884943 -109.114211 
L 438.81221 -83.051908 
L 433.739482 -93.6156 
L 428.666756 -97.809257 
L 423.594033 -94.452095 
L 418.521302 -91.155794 
L 413.448579 -86.403514 
L 408.37585 -78.046263 
L 403.303098 -76.709294 
L 398.230384 -79.351054 
L 393.15764 -74.380416 
L 388.084906 -97.231469 
L 383.012168 -90.709923 
L 377.939427 -72.491852 
L 372.866705 -72.044667 
L 367.793971 -92.151782 
L 362.721292 -91.232038 
L 357.648548 -70.034219 
L 352.575841 -88.684196 
L 347.503108 -84.078722 
L 342.430338 -88.24366 
L 337.357556 -88.087796 
L 332.284837 -85.223555 
L 327.211896 -87.095908 
L 322.139188 -85.617949 
L 317.06631 -71.578485 
L 311.993564 -82.17258 
L 306.920965 -65.429794 
L 301.848073 -66.998302 
L 296.775602 -76.192973 
L 291.703055 -79.579889 
L 286.629691 -79.345542 
L 281.556313 -73.468999 
L 276.484912 -66.934715 
L 271.410745 -79.457008 
L 266.338338 -76.595981 
L 261.264348 -64.856528 
L 256.19219 -77.002086 
L 251.118613 -64.611135 
L 246.048153 -62.841935 
L 240.971403 -74.257764 
L 235.901779 -74.764628 
L 230.829335 -68.932669 
L 225.755677 -73.422665 
L 220.684347 -71.358176 
L 215.605164 -71.157788 
L 210.53584 -72.478368 
L 205.465974 -71.787895 
L 200.383343 -68.759382 
L 195.320327 -58.377164 
L 190.236634 -67.805073 
L 185.170437 -64.51056 
L 180.0988 -65.639759 
L 175.027668 -65.563049 
L 169.941117 -57.400439 
L 164.836457 -60.289926 
L 159.804665 -66.090787 
L 154.694221 -64.024798 
L 149.620091 -63.81657 
L 144.571135 -63.348615 
L 139.494571 -63.328628 
L 134.401643 -60.23655 
L 129.289489 -61.041334 
L 124.128944 -60.197582 
L 119.058021 -63.890752 
L 114.042259 -60.138517 
L 108.979395 -52.148499 
L 103.998848 -52.027915 
L 98.90592 -57.319976 
L 93.793766 -52.132111 
L 88.270188 -56.874549 
L 83.562298 -53.486273 
L 78.049455 -56.528492 
L 73.193898 -57.016301 
L 68.503125 -54.035201 
z
" style="stroke: #e377c2; stroke-opacity: 0.2"/>
    </defs>
    <g clip-path="url(#pd6fc3a9c9b)">
     <use xlink:href="#m9dec0b2120" x="0" y="531.670938" style="fill: #e377c2; fill-opacity: 0.2; stroke: #e377c2; stroke-opacity: 0.2"/>
    </g>
   </g>
   <g id="matplotlib.axis_3">
    <g id="xtick_15">
     <g id="line2d_18">
      <path d="M 46.107817 494.114688 
L 46.107817 50.594688 
" clip-path="url(#pd6fc3a9c9b)" style="fill: none; stroke: #b0b0b0; stroke-opacity: 0.4; stroke-width: 0.8; stroke-linecap: square"/>
     </g>
     <g id="line2d_19">
      <defs>
       <path id="m38c64c7d67" d="M 0 0 
L 0 3.5 
" style="stroke: #000000; stroke-width: 0.8"/>
      </defs>
      <g>
       <use xlink:href="#m38c64c7d67" x="46.107817" y="494.114688" style="stroke: #000000; stroke-width: 0.8"/>
      </g>
     </g>
     <g id="text_16">
      <!-- $\mathdefault{2^{4}}$ -->
      <g transform="translate(40.507817 508.713125) scale(0.1 -0.1)">
       <use xlink:href="#DejaVuSans-32" transform="translate(0 0.684375)"/>
       <use xlink:href="#DejaVuSans-34" transform="translate(64.580078 38.965625) scale(0.7)"/>
      </g>
     </g>
    </g>
    <g id="xtick_16">
     <g id="line2d_20">
      <path d="M 90.898433 494.114688 
L 90.898433 50.594688 
" clip-path="url(#pd6fc3a9c9b)" style="fill: none; stroke: #b0b0b0; stroke-opacity: 0.4; stroke-width: 0.8; stroke-linecap: square"/>
     </g>
     <g id="line2d_21">
      <g>
       <use xlink:href="#m38c64c7d67" x="90.898433" y="494.114688" style="stroke: #000000; stroke-width: 0.8"/>
      </g>
     </g>
     <g id="text_17">
      <!-- $\mathdefault{2^{6}}$ -->
      <g transform="translate(85.298433 508.713125) scale(0.1 -0.1)">
       <use xlink:href="#DejaVuSans-32" transform="translate(0 0.765625)"/>
       <use xlink:href="#DejaVuSans-36" transform="translate(64.580078 39.046875) scale(0.7)"/>
      </g>
     </g>
    </g>
    <g id="xtick_17">
     <g id="line2d_22">
      <path d="M 135.689049 494.114688 
L 135.689049 50.594688 
" clip-path="url(#pd6fc3a9c9b)" style="fill: none; stroke: #b0b0b0; stroke-opacity: 0.4; stroke-width: 0.8; stroke-linecap: square"/>
     </g>
     <g id="line2d_23">
      <g>
       <use xlink:href="#m38c64c7d67" x="135.689049" y="494.114688" style="stroke: #000000; stroke-width: 0.8"/>
      </g>
     </g>
     <g id="text_18">
      <!-- $\mathdefault{2^{8}}$ -->
      <g transform="translate(130.089049 508.713125) scale(0.1 -0.1)">
       <use xlink:href="#DejaVuSans-32" transform="translate(0 0.765625)"/>
       <use xlink:href="#DejaVuSans-38" transform="translate(64.580078 39.046875) scale(0.7)"/>
      </g>
     </g>
    </g>
    <g id="xtick_18">
     <g id="line2d_24">
      <path d="M 180.479664 494.114688 
L 180.479664 50.594688 
" clip-path="url(#pd6fc3a9c9b)" style="fill: none; stroke: #b0b0b0; stroke-opacity: 0.4; stroke-width: 0.8; stroke-linecap: square"/>
     </g>
     <g id="line2d_25">
      <g>
       <use xlink:href="#m38c64c7d67" x="180.479664" y="494.114688" style="stroke: #000000; stroke-width: 0.8"/>
      </g>
     </g>
     <g id="text_19">
      <!-- $\mathdefault{2^{10}}$ -->
      <g transform="translate(172.629664 508.713125) scale(0.1 -0.1)">
       <use xlink:href="#DejaVuSans-32" transform="translate(0 0.765625)"/>
       <use xlink:href="#DejaVuSans-31" transform="translate(64.580078 39.046875) scale(0.7)"/>
       <use xlink:href="#DejaVuSans-30" transform="translate(109.116211 39.046875) scale(0.7)"/>
      </g>
     </g>
    </g>
    <g id="xtick_19">
     <g id="line2d_26">
      <path d="M 225.27028 494.114688 
L 225.27028 50.594688 
" clip-path="url(#pd6fc3a9c9b)" style="fill: none; stroke: #b0b0b0; stroke-opacity: 0.4; stroke-width: 0.8; stroke-linecap: square"/>
     </g>
     <g id="line2d_27">
      <g>
       <use xlink:href="#m38c64c7d67" x="225.27028" y="494.114688" style="stroke: #000000; stroke-width: 0.8"/>
      </g>
     </g>
     <g id="text_20">
      <!-- $\mathdefault{2^{12}}$ -->
      <g transform="translate(217.42028 508.713125) scale(0.1 -0.1)">
       <use xlink:href="#DejaVuSans-32" transform="translate(0 0.765625)"/>
       <use xlink:href="#DejaVuSans-31" transform="translate(64.580078 39.046875) scale(0.7)"/>
       <use xlink:href="#DejaVuSans-32" transform="translate(109.116211 39.046875) scale(0.7)"/>
      </g>
     </g>
    </g>
    <g id="xtick_20">
     <g id="line2d_28">
      <path d="M 270.060896 494.114688 
L 270.060896 50.594688 
" clip-path="url(#pd6fc3a9c9b)" style="fill: none; stroke: #b0b0b0; stroke-opacity: 0.4; stroke-width: 0.8; stroke-linecap: square"/>
     </g>
     <g id="line2d_29">
      <g>
       <use xlink:href="#m38c64c7d67" x="270.060896" y="494.114688" style="stroke: #000000; stroke-width: 0.8"/>
      </g>
     </g>
     <g id="text_21">
      <!-- $\mathdefault{2^{14}}$ -->
      <g transform="translate(262.210896 508.713125) scale(0.1 -0.1)">
       <use xlink:href="#DejaVuSans-32" transform="translate(0 0.684375)"/>
       <use xlink:href="#DejaVuSans-31" transform="translate(64.580078 38.965625) scale(0.7)"/>
       <use xlink:href="#DejaVuSans-34" transform="translate(109.116211 38.965625) scale(0.7)"/>
      </g>
     </g>
    </g>
    <g id="xtick_21">
     <g id="line2d_30">
      <path d="M 314.851512 494.114688 
L 314.851512 50.594688 
" clip-path="url(#pd6fc3a9c9b)" style="fill: none; stroke: #b0b0b0; stroke-opacity: 0.4; stroke-width: 0.8; stroke-linecap: square"/>
     </g>
     <g id="line2d_31">
      <g>
       <use xlink:href="#m38c64c7d67" x="314.851512" y="494.114688" style="stroke: #000000; stroke-width: 0.8"/>
      </g>
     </g>
     <g id="text_22">
      <!-- $\mathdefault{2^{16}}$ -->
      <g transform="translate(307.001512 508.713125) scale(0.1 -0.1)">
       <use xlink:href="#DejaVuSans-32" transform="translate(0 0.765625)"/>
       <use xlink:href="#DejaVuSans-31" transform="translate(64.580078 39.046875) scale(0.7)"/>
       <use xlink:href="#DejaVuSans-36" transform="translate(109.116211 39.046875) scale(0.7)"/>
      </g>
     </g>
    </g>
    <g id="xtick_22">
     <g id="line2d_32">
      <path d="M 359.642127 494.114688 
L 359.642127 50.594688 
" clip-path="url(#pd6fc3a9c9b)" style="fill: none; stroke: #b0b0b0; stroke-opacity: 0.4; stroke-width: 0.8; stroke-linecap: square"/>
     </g>
     <g id="line2d_33">
      <g>
       <use xlink:href="#m38c64c7d67" x="359.642127" y="494.114688" style="stroke: #000000; stroke-width: 0.8"/>
      </g>
     </g>
     <g id="text_23">
      <!-- $\mathdefault{2^{18}}$ -->
      <g transform="translate(351.792127 508.713125) scale(0.1 -0.1)">
       <use xlink:href="#DejaVuSans-32" transform="translate(0 0.765625)"/>
       <use xlink:href="#DejaVuSans-31" transform="translate(64.580078 39.046875) scale(0.7)"/>
       <use xlink:href="#DejaVuSans-38" transform="translate(109.116211 39.046875) scale(0.7)"/>
      </g>
     </g>
    </g>
    <g id="xtick_23">
     <g id="line2d_34">
      <path d="M 404.432743 494.114688 
L 404.432743 50.594688 
" clip-path="url(#pd6fc3a9c9b)" style="fill: none; stroke: #b0b0b0; stroke-opacity: 0.4; stroke-width: 0.8; stroke-linecap: square"/>
     </g>
     <g id="line2d_35">
      <g>
       <use xlink:href="#m38c64c7d67" x="404.432743" y="494.114688" style="stroke: #000000; stroke-width: 0.8"/>
      </g>
     </g>
     <g id="text_24">
      <!-- $\mathdefault{2^{20}}$ -->
      <g transform="translate(396.582743 508.713125) scale(0.1 -0.1)">
       <use xlink:href="#DejaVuSans-32" transform="translate(0 0.765625)"/>
       <use xlink:href="#DejaVuSans-32" transform="translate(64.580078 39.046875) scale(0.7)"/>
       <use xlink:href="#DejaVuSans-30" transform="translate(109.116211 39.046875) scale(0.7)"/>
      </g>
     </g>
    </g>
    <g id="xtick_24">
     <g id="line2d_36">
      <path d="M 449.223359 494.114688 
L 449.223359 50.594688 
" clip-path="url(#pd6fc3a9c9b)" style="fill: none; stroke: #b0b0b0; stroke-opacity: 0.4; stroke-width: 0.8; stroke-linecap: square"/>
     </g>
     <g id="line2d_37">
      <g>
       <use xlink:href="#m38c64c7d67" x="449.223359" y="494.114688" style="stroke: #000000; stroke-width: 0.8"/>
      </g>
     </g>
     <g id="text_25">
      <!-- $\mathdefault{2^{22}}$ -->
      <g transform="translate(441.373359 508.713125) scale(0.1 -0.1)">
       <use xlink:href="#DejaVuSans-32" transform="translate(0 0.765625)"/>
       <use xlink:href="#DejaVuSans-32" transform="translate(64.580078 39.046875) scale(0.7)"/>
       <use xlink:href="#DejaVuSans-32" transform="translate(109.116211 39.046875) scale(0.7)"/>
      </g>
     </g>
    </g>
    <g id="xtick_25">
     <g id="line2d_38">
      <path d="M 494.013974 494.114688 
L 494.013974 50.594688 
" clip-path="url(#pd6fc3a9c9b)" style="fill: none; stroke: #b0b0b0; stroke-opacity: 0.4; stroke-width: 0.8; stroke-linecap: square"/>
     </g>
     <g id="line2d_39">
      <g>
       <use xlink:href="#m38c64c7d67" x="494.013974" y="494.114688" style="stroke: #000000; stroke-width: 0.8"/>
      </g>
     </g>
     <g id="text_26">
      <!-- $\mathdefault{2^{24}}$ -->
      <g transform="translate(486.163974 508.713125) scale(0.1 -0.1)">
       <use xlink:href="#DejaVuSans-32" transform="translate(0 0.765625)"/>
       <use xlink:href="#DejaVuSans-32" transform="translate(64.580078 39.046875) scale(0.7)"/>
       <use xlink:href="#DejaVuSans-34" transform="translate(109.116211 39.046875) scale(0.7)"/>
      </g>
     </g>
    </g>
    <g id="xtick_26">
     <g id="line2d_40">
      <path d="M 538.80459 494.114688 
L 538.80459 50.594688 
" clip-path="url(#pd6fc3a9c9b)" style="fill: none; stroke: #b0b0b0; stroke-opacity: 0.4; stroke-width: 0.8; stroke-linecap: square"/>
     </g>
     <g id="line2d_41">
      <g>
       <use xlink:href="#m38c64c7d67" x="538.80459" y="494.114688" style="stroke: #000000; stroke-width: 0.8"/>
      </g>
     </g>
     <g id="text_27">
      <!-- $\mathdefault{2^{26}}$ -->
      <g transform="translate(530.95459 508.713125) scale(0.1 -0.1)">
       <use xlink:href="#DejaVuSans-32" transform="translate(0 0.765625)"/>
       <use xlink:href="#DejaVuSans-32" transform="translate(64.580078 39.046875) scale(0.7)"/>
       <use xlink:href="#DejaVuSans-36" transform="translate(109.116211 39.046875) scale(0.7)"/>
      </g>
     </g>
    </g>
    <g id="xtick_27">
     <g id="line2d_42">
      <path d="M 583.595206 494.114688 
L 583.595206 50.594688 
" clip-path="url(#pd6fc3a9c9b)" style="fill: none; stroke: #b0b0b0; stroke-opacity: 0.4; stroke-width: 0.8; stroke-linecap: square"/>
     </g>
     <g id="line2d_43">
      <g>
       <use xlink:href="#m38c64c7d67" x="583.595206" y="494.114688" style="stroke: #000000; stroke-width: 0.8"/>
      </g>
     </g>
     <g id="text_28">
      <!-- $\mathdefault{2^{28}}$ -->
      <g transform="translate(575.745206 508.713125) scale(0.1 -0.1)">
       <use xlink:href="#DejaVuSans-32" transform="translate(0 0.765625)"/>
       <use xlink:href="#DejaVuSans-32" transform="translate(64.580078 39.046875) scale(0.7)"/>
       <use xlink:href="#DejaVuSans-38" transform="translate(109.116211 39.046875) scale(0.7)"/>
      </g>
     </g>
    </g>
    <g id="xtick_28">
     <g id="line2d_44">
      <path d="M 628.385822 494.114688 
L 628.385822 50.594688 
" clip-path="url(#pd6fc3a9c9b)" style="fill: none; stroke: #b0b0b0; stroke-opacity: 0.4; stroke-width: 0.8; stroke-linecap: square"/>
     </g>
     <g id="line2d_45">
      <g>
       <use xlink:href="#m38c64c7d67" x="628.385822" y="494.114688" style="stroke: #000000; stroke-width: 0.8"/>
      </g>
     </g>
     <g id="text_29">
      <!-- $\mathdefault{2^{30}}$ -->
      <g transform="translate(620.535822 508.713125) scale(0.1 -0.1)">
       <use xlink:href="#DejaVuSans-32" transform="translate(0 0.765625)"/>
       <use xlink:href="#DejaVuSans-33" transform="translate(64.580078 39.046875) scale(0.7)"/>
       <use xlink:href="#DejaVuSans-30" transform="translate(109.116211 39.046875) scale(0.7)"/>
      </g>
     </g>
    </g>
    <g id="text_30">
     <!-- Input size (bytes) -->
     <g transform="translate(304.007031 522.39125) scale(0.1 -0.1)">
      <defs>
       <path id="DejaVuSans-49" d="M 628 4666 
L 1259 4666 
L 1259 0 
L 628 0 
L 628 4666 
z
" transform="scale(0.015625)"/>
       <path id="DejaVuSans-70" d="M 1159 525 
L 1159 -1331 
L 581 -1331 
L 581 3500 
L 1159 3500 
L 1159 2969 
Q 1341 3281 1617 3432 
Q 1894 3584 2278 3584 
Q 2916 3584 3314 3078 
Q 3713 2572 3713 1747 
Q 3713 922 3314 415 
Q 2916 -91 2278 -91 
Q 1894 -91 1617 61 
Q 1341 213 1159 525 
z
M 3116 1747 
Q 3116 2381 2855 2742 
Q 2594 3103 2138 3103 
Q 1681 3103 1420 2742 
Q 1159 2381 1159 1747 
Q 1159 1113 1420 752 
Q 1681 391 2138 391 
Q 2594 391 2855 752 
Q 3116 1113 3116 1747 
z
" transform="scale(0.015625)"/>
       <path id="DejaVuSans-73" d="M 2834 3397 
L 2834 2853 
Q 2591 2978 2328 3040 
Q 2066 3103 1784 3103 
Q 1356 3103 1142 2972 
Q 928 2841 928 2578 
Q 928 2378 1081 2264 
Q 1234 2150 1697 2047 
L 1894 2003 
Q 2506 1872 2764 1633 
Q 3022 1394 3022 966 
Q 3022 478 2636 193 
Q 2250 -91 1575 -91 
Q 1294 -91 989 -36 
Q 684 19 347 128 
L 347 722 
Q 666 556 975 473 
Q 1284 391 1588 391 
Q 1994 391 2212 530 
Q 2431 669 2431 922 
Q 2431 1156 2273 1281 
Q 2116 1406 1581 1522 
L 1381 1569 
Q 847 1681 609 1914 
Q 372 2147 372 2553 
Q 372 3047 722 3315 
Q 1072 3584 1716 3584 
Q 2034 3584 2315 3537 
Q 2597 3491 2834 3397 
z
" transform="scale(0.015625)"/>
       <path id="DejaVuSans-69" d="M 603 3500 
L 1178 3500 
L 1178 0 
L 603 0 
L 603 3500 
z
M 603 4863 
L 1178 4863 
L 1178 4134 
L 603 4134 
L 603 4863 
z
" transform="scale(0.015625)"/>
       <path id="DejaVuSans-7a" d="M 353 3500 
L 3084 3500 
L 3084 2975 
L 922 459 
L 3084 459 
L 3084 0 
L 275 0 
L 275 525 
L 2438 3041 
L 353 3041 
L 353 3500 
z
" transform="scale(0.015625)"/>
       <path id="DejaVuSans-62" d="M 3116 1747 
Q 3116 2381 2855 2742 
Q 2594 3103 2138 3103 
Q 1681 3103 1420 2742 
Q 1159 2381 1159 1747 
Q 1159 1113 1420 752 
Q 1681 391 2138 391 
Q 2594 391 2855 752 
Q 3116 1113 3116 1747 
z
M 1159 2969 
Q 1341 3281 1617 3432 
Q 1894 3584 2278 3584 
Q 2916 3584 3314 3078 
Q 3713 2572 3713 1747 
Q 3713 922 3314 415 
Q 2916 -91 2278 -91 
Q 1894 -91 1617 61 
Q 1341 213 1159 525 
L 1159 0 
L 581 0 
L 581 4863 
L 1159 4863 
L 1159 2969 
z
" transform="scale(0.015625)"/>
      </defs>
      <use xlink:href="#DejaVuSans-49"/>
      <use xlink:href="#DejaVuSans-6e" x="29.492188"/>
      <use xlink:href="#DejaVuSans-70" x="92.871094"/>
      <use xlink:href="#DejaVuSans-75" x="156.347656"/>
      <use xlink:href="#DejaVuSans-74" x="219.726562"/>
      <use xlink:href="#DejaVuSans-20" x="258.935547"/>
      <use xlink:href="#DejaVuSans-73" x="290.722656"/>
      <use xlink:href="#DejaVuSans-69" x="342.822266"/>
      <use xlink:href="#DejaVuSans-7a" x="370.605469"/>
      <use xlink:href="#DejaVuSans-65" x="423.095703"/>
      <use xlink:href="#DejaVuSans-20" x="484.619141"/>
      <use xlink:href="#DejaVuSans-28" x="516.40625"/>
      <use xlink:href="#DejaVuSans-62" x="555.419922"/>
      <use xlink:href="#DejaVuSans-79" x="618.896484"/>
      <use xlink:href="#DejaVuSans-74" x="678.076172"/>
      <use xlink:href="#DejaVuSans-65" x="717.285156"/>
      <use xlink:href="#DejaVuSans-73" x="778.808594"/>
      <use xlink:href="#DejaVuSans-29" x="830.908203"/>
     </g>
    </g>
   </g>
   <g id="matplotlib.axis_4">
    <g id="ytick_1">
     <g id="line2d_46">
      <path d="M 40.603125 494.114688 
L 654.403125 494.114688 
" clip-path="url(#pd6fc3a9c9b)" style="fill: none; stroke: #b0b0b0; stroke-opacity: 0.4; stroke-width: 0.8; stroke-linecap: square"/>
     </g>
     <g id="line2d_47">
      <defs>
       <path id="m39089da565" d="M 0 0 
L -3.5 0 
" style="stroke: #000000; stroke-width: 0.8"/>
      </defs>
      <g>
       <use xlink:href="#m39089da565" x="40.603125" y="494.114688" style="stroke: #000000; stroke-width: 0.8"/>
      </g>
     </g>
     <g id="text_31">
      <!-- 0 -->
      <g transform="translate(27.240625 497.913906) scale(0.1 -0.1)">
       <use xlink:href="#DejaVuSans-30"/>
      </g>
     </g>
    </g>
    <g id="ytick_2">
     <g id="line2d_48">
      <path d="M 40.603125 420.194688 
L 654.403125 420.194688 
" clip-path="url(#pd6fc3a9c9b)" style="fill: none; stroke: #b0b0b0; stroke-opacity: 0.4; stroke-width: 0.8; stroke-linecap: square"/>
     </g>
     <g id="line2d_49">
      <g>
       <use xlink:href="#m39089da565" x="40.603125" y="420.194688" style="stroke: #000000; stroke-width: 0.8"/>
      </g>
     </g>
     <g id="text_32">
      <!-- 10 -->
      <g transform="translate(20.878125 423.993906) scale(0.1 -0.1)">
       <use xlink:href="#DejaVuSans-31"/>
       <use xlink:href="#DejaVuSans-30" x="63.623047"/>
      </g>
     </g>
    </g>
    <g id="ytick_3">
     <g id="line2d_50">
      <path d="M 40.603125 346.274688 
L 654.403125 346.274688 
" clip-path="url(#pd6fc3a9c9b)" style="fill: none; stroke: #b0b0b0; stroke-opacity: 0.4; stroke-width: 0.8; stroke-linecap: square"/>
     </g>
     <g id="line2d_51">
      <g>
       <use xlink:href="#m39089da565" x="40.603125" y="346.274688" style="stroke: #000000; stroke-width: 0.8"/>
      </g>
     </g>
     <g id="text_33">
      <!-- 20 -->
      <g transform="translate(20.878125 350.073906) scale(0.1 -0.1)">
       <use xlink:href="#DejaVuSans-32"/>
       <use xlink:href="#DejaVuSans-30" x="63.623047"/>
      </g>
     </g>
    </g>
    <g id="ytick_4">
     <g id="line2d_52">
      <path d="M 40.603125 272.354688 
L 654.403125 272.354688 
" clip-path="url(#pd6fc3a9c9b)" style="fill: none; stroke: #b0b0b0; stroke-opacity: 0.4; stroke-width: 0.8; stroke-linecap: square"/>
     </g>
     <g id="line2d_53">
      <g>
       <use xlink:href="#m39089da565" x="40.603125" y="272.354688" style="stroke: #000000; stroke-width: 0.8"/>
      </g>
     </g>
     <g id="text_34">
      <!-- 30 -->
      <g transform="translate(20.878125 276.153906) scale(0.1 -0.1)">
       <use xlink:href="#DejaVuSans-33"/>
       <use xlink:href="#DejaVuSans-30" x="63.623047"/>
      </g>
     </g>
    </g>
    <g id="ytick_5">
     <g id="line2d_54">
      <path d="M 40.603125 198.434688 
L 654.403125 198.434688 
" clip-path="url(#pd6fc3a9c9b)" style="fill: none; stroke: #b0b0b0; stroke-opacity: 0.4; stroke-width: 0.8; stroke-linecap: square"/>
     </g>
     <g id="line2d_55">
      <g>
       <use xlink:href="#m39089da565" x="40.603125" y="198.434688" style="stroke: #000000; stroke-width: 0.8"/>
      </g>
     </g>
     <g id="text_35">
      <!-- 40 -->
      <g transform="translate(20.878125 202.233906) scale(0.1 -0.1)">
       <use xlink:href="#DejaVuSans-34"/>
       <use xlink:href="#DejaVuSans-30" x="63.623047"/>
      </g>
     </g>
    </g>
    <g id="ytick_6">
     <g id="line2d_56">
      <path d="M 40.603125 124.514688 
L 654.403125 124.514688 
" clip-path="url(#pd6fc3a9c9b)" style="fill: none; stroke: #b0b0b0; stroke-opacity: 0.4; stroke-width: 0.8; stroke-linecap: square"/>
     </g>
     <g id="line2d_57">
      <g>
       <use xlink:href="#m39089da565" x="40.603125" y="124.514688" style="stroke: #000000; stroke-width: 0.8"/>
      </g>
     </g>
     <g id="text_36">
      <!-- 50 -->
      <g transform="translate(20.878125 128.313906) scale(0.1 -0.1)">
       <defs>
        <path id="DejaVuSans-35" d="M 691 4666 
L 3169 4666 
L 3169 4134 
L 1269 4134 
L 1269 2991 
Q 1406 3038 1543 3061 
Q 1681 3084 1819 3084 
Q 2600 3084 3056 2656 
Q 3513 2228 3513 1497 
Q 3513 744 3044 326 
Q 2575 -91 1722 -91 
Q 1428 -91 1123 -41 
Q 819 9 494 109 
L 494 744 
Q 775 591 1075 516 
Q 1375 441 1709 441 
Q 2250 441 2565 725 
Q 2881 1009 2881 1497 
Q 2881 1984 2565 2268 
Q 2250 2553 1709 2553 
Q 1456 2553 1204 2497 
Q 953 2441 691 2322 
L 691 4666 
z
" transform="scale(0.015625)"/>
       </defs>
       <use xlink:href="#DejaVuSans-35"/>
       <use xlink:href="#DejaVuSans-30" x="63.623047"/>
      </g>
     </g>
    </g>
    <g id="ytick_7">
     <g id="line2d_58">
      <path d="M 40.603125 50.594688 
L 654.403125 50.594688 
" clip-path="url(#pd6fc3a9c9b)" style="fill: none; stroke: #b0b0b0; stroke-opacity: 0.4; stroke-width: 0.8; stroke-linecap: square"/>
     </g>
     <g id="line2d_59">
      <g>
       <use xlink:href="#m39089da565" x="40.603125" y="50.594688" style="stroke: #000000; stroke-width: 0.8"/>
      </g>
     </g>
     <g id="text_37">
      <!-- 60 -->
      <g transform="translate(20.878125 54.393906) scale(0.1 -0.1)">
       <use xlink:href="#DejaVuSans-36"/>
       <use xlink:href="#DejaVuSans-30" x="63.623047"/>
      </g>
     </g>
    </g>
    <g id="text_38">
     <!-- Inverse throughput (ns) -->
     <g transform="translate(14.798438 331.570313) rotate(-90) scale(0.1 -0.1)">
      <defs>
       <path id="DejaVuSans-76" d="M 191 3500 
L 800 3500 
L 1894 563 
L 2988 3500 
L 3597 3500 
L 2284 0 
L 1503 0 
L 191 3500 
z
" transform="scale(0.015625)"/>
       <path id="DejaVuSans-6f" d="M 1959 3097 
Q 1497 3097 1228 2736 
Q 959 2375 959 1747 
Q 959 1119 1226 758 
Q 1494 397 1959 397 
Q 2419 397 2687 759 
Q 2956 1122 2956 1747 
Q 2956 2369 2687 2733 
Q 2419 3097 1959 3097 
z
M 1959 3584 
Q 2709 3584 3137 3096 
Q 3566 2609 3566 1747 
Q 3566 888 3137 398 
Q 2709 -91 1959 -91 
Q 1206 -91 779 398 
Q 353 888 353 1747 
Q 353 2609 779 3096 
Q 1206 3584 1959 3584 
z
" transform="scale(0.015625)"/>
      </defs>
      <use xlink:href="#DejaVuSans-49"/>
      <use xlink:href="#DejaVuSans-6e" x="29.492188"/>
      <use xlink:href="#DejaVuSans-76" x="92.871094"/>
      <use xlink:href="#DejaVuSans-65" x="152.050781"/>
      <use xlink:href="#DejaVuSans-72" x="213.574219"/>
      <use xlink:href="#DejaVuSans-73" x="254.6875"/>
      <use xlink:href="#DejaVuSans-65" x="306.787109"/>
      <use xlink:href="#DejaVuSans-20" x="368.310547"/>
      <use xlink:href="#DejaVuSans-74" x="400.097656"/>
      <use xlink:href="#DejaVuSans-68" x="439.306641"/>
      <use xlink:href="#DejaVuSans-72" x="502.685547"/>
      <use xlink:href="#DejaVuSans-6f" x="541.548828"/>
      <use xlink:href="#DejaVuSans-75" x="602.730469"/>
      <use xlink:href="#DejaVuSans-67" x="666.109375"/>
      <use xlink:href="#DejaVuSans-68" x="729.585938"/>
      <use xlink:href="#DejaVuSans-70" x="792.964844"/>
      <use xlink:href="#DejaVuSans-75" x="856.441406"/>
      <use xlink:href="#DejaVuSans-74" x="919.820312"/>
      <use xlink:href="#DejaVuSans-20" x="959.029297"/>
      <use xlink:href="#DejaVuSans-28" x="990.816406"/>
      <use xlink:href="#DejaVuSans-6e" x="1029.830078"/>
      <use xlink:href="#DejaVuSans-73" x="1093.208984"/>
      <use xlink:href="#DejaVuSans-29" x="1145.308594"/>
     </g>
    </g>
   </g>
   <g id="line2d_60">
    <path d="M 68.503125 470.904175 
L 73.193898 470.952135 
L 78.049455 470.926666 
L 83.562298 475.084585 
L 88.270188 470.992034 
L 93.793766 475.699797 
L 98.90592 476.680815 
L 103.998848 470.360892 
L 108.979395 477.088265 
L 114.042259 473.281493 
L 119.058021 475.266819 
L 124.128944 474.890403 
L 129.289489 465.846188 
L 134.401643 474.159292 
L 139.494571 468.952696 
L 144.571135 469.548269 
L 149.620091 461.437963 
L 154.694221 471.71365 
L 159.804665 465.041375 
L 164.836457 454.359465 
L 169.941117 465.874531 
L 175.027668 468.368192 
L 180.0988 463.515256 
L 185.170437 448.56767 
L 190.236634 448.579551 
L 195.320327 450.417111 
L 200.383343 464.325478 
L 205.465974 458.449112 
L 210.53584 459.346528 
L 215.605164 462.396276 
L 220.684347 447.066717 
L 225.755677 458.952422 
L 230.829335 455.301855 
L 235.901779 442.619893 
L 240.971403 458.960779 
L 246.048153 459.450974 
L 251.118613 451.621224 
L 256.19219 458.575954 
L 261.264348 450.595031 
L 266.338338 436.629232 
L 271.410745 449.453227 
L 276.484912 444.868981 
L 281.556313 441.105589 
L 286.629691 441.542201 
L 291.703055 434.769743 
L 296.775602 435.500492 
L 301.848073 437.717564 
L 306.920965 436.047661 
L 311.993564 420.349998 
L 317.06631 418.132689 
L 322.139188 432.141024 
L 327.211896 432.114824 
L 332.284837 430.642325 
L 337.357556 426.515956 
L 342.430338 423.27719 
L 347.503108 419.332383 
L 352.575841 412.752252 
L 357.648548 421.878932 
L 362.721292 417.808983 
L 367.793971 424.500129 
L 372.866705 421.331659 
L 377.939427 423.716713 
L 383.012168 416.186057 
L 388.084906 412.214452 
L 393.15764 419.055403 
L 398.230384 412.449929 
L 403.303098 416.825947 
L 408.37585 402.606754 
L 413.448579 405.836416 
L 418.521302 408.771588 
L 423.594033 408.797338 
L 428.666756 406.803382 
L 433.739482 403.706523 
L 438.81221 392.766282 
L 443.884943 376.819982 
L 448.957672 398.611054 
L 454.030398 372.639424 
L 459.103126 365.58811 
L 464.175852 353.645452 
L 469.248579 354.618484 
L 474.321309 344.983263 
L 479.394036 335.018152 
L 484.466764 334.045157 
L 489.539492 333.908429 
L 494.612218 317.311792 
L 499.684945 305.780093 
L 504.757672 302.469288 
L 509.830399 297.2921 
L 514.903126 242.264396 
L 519.975853 281.015658 
L 525.048582 272.921311 
L 530.12131 272.490868 
L 535.194038 265.082222 
L 540.266767 241.103411 
L 545.339493 239.693353 
L 550.412219 176.01277 
L 555.484946 169.723436 
L 560.557673 219.108944 
L 565.630401 197.488558 
L 570.703128 198.649972 
L 575.775856 188.214068 
L 580.848584 180.32993 
L 585.921309 156.483251 
L 590.994035 156.217982 
L 596.066762 159.18709 
L 601.13949 127.769235 
L 606.212216 130.91565 
L 611.284943 104.926074 
L 616.357671 123.705582 
L 621.430398 46.68214 
L 626.503125 80.168768 
" clip-path="url(#pd6fc3a9c9b)" style="fill: none; stroke: #2ca02c; stroke-linecap: square"/>
   </g>
   <g id="line2d_61">
    <path d="M 68.503125 477.913869 
L 73.193898 477.596895 
L 78.049455 480.144411 
L 83.562298 477.780548 
L 88.270188 479.041339 
L 93.793766 480.585627 
L 98.90592 480.841357 
L 103.998848 480.764921 
L 108.979395 478.964053 
L 114.042259 473.772324 
L 119.058021 478.305825 
L 124.128944 479.205538 
L 129.289489 473.567207 
L 134.401643 473.506235 
L 139.494571 471.93868 
L 144.571135 475.521323 
L 149.620091 471.524005 
L 154.694221 474.914231 
L 159.804665 469.803785 
L 164.836457 473.731147 
L 169.941117 476.37632 
L 175.027668 474.694669 
L 180.0988 470.919122 
L 185.170437 468.008703 
L 190.236634 475.121462 
L 195.320327 470.90764 
L 200.383343 474.895257 
L 205.465974 469.958231 
L 210.53584 472.84839 
L 215.605164 465.926503 
L 220.684347 474.02965 
L 225.755677 463.725738 
L 230.829335 464.153587 
L 235.901779 464.194439 
L 240.971403 470.572873 
L 246.048153 464.102383 
L 251.118613 464.924959 
L 256.19219 471.992204 
L 261.264348 467.547774 
L 266.338338 462.076841 
L 271.410745 471.773151 
L 276.484912 469.983714 
L 281.556313 470.390853 
L 286.629691 470.871909 
L 291.703055 459.683541 
L 296.775602 459.77615 
L 301.848073 470.220928 
L 306.920965 469.301273 
L 311.993564 456.851079 
L 317.06631 454.403058 
L 322.139188 454.031607 
L 327.211896 453.327538 
L 332.284837 452.965441 
L 337.357556 448.687279 
L 342.430338 465.091729 
L 347.503108 450.3749 
L 352.575841 450.021765 
L 357.648548 466.320379 
L 362.721292 462.669066 
L 367.793971 464.897052 
L 372.866705 463.712911 
L 377.939427 462.72842 
L 383.012168 443.692805 
L 388.084906 439.623587 
L 393.15764 460.970813 
L 398.230384 459.153779 
L 403.303098 458.990976 
L 408.37585 436.292773 
L 413.448579 457.95639 
L 418.521302 457.65089 
L 423.594033 435.888405 
L 428.666756 430.839765 
L 433.739482 454.552147 
L 438.81221 431.364192 
L 443.884943 444.653312 
L 448.957672 427.146625 
L 454.030398 424.169182 
L 459.103126 415.965823 
L 464.175852 417.133206 
L 469.248579 394.168537 
L 474.321309 390.878878 
L 479.394036 401.27645 
L 484.466764 397.790377 
L 489.539492 395.080619 
L 494.612218 400.079873 
L 499.684945 383.114119 
L 504.757672 382.987144 
L 509.830399 377.527782 
L 514.903126 371.203514 
L 519.975853 373.925973 
L 525.048582 361.143325 
L 530.12131 361.489537 
L 535.194038 334.149434 
L 540.266767 353.8504 
L 545.339493 344.545919 
L 550.412219 340.541175 
L 555.484946 333.278987 
L 560.557673 328.417111 
L 565.630401 325.242021 
L 570.703128 319.690802 
L 575.775856 311.376819 
L 580.848584 308.783323 
L 585.921309 304.708438 
L 590.994035 294.582231 
L 596.066762 284.725054 
L 601.13949 281.89509 
L 606.212216 282.687763 
L 611.284943 280.568044 
L 616.357671 267.809587 
L 621.430398 261.669984 
L 626.503125 253.712713 
" clip-path="url(#pd6fc3a9c9b)" style="fill: none; stroke: #8c564b; stroke-linecap: square"/>
   </g>
   <g id="line2d_62">
    <path d="M 68.503125 478.163755 
L 73.193898 474.727844 
L 78.049455 480.097353 
L 83.562298 478.992559 
L 88.270188 479.90685 
L 93.793766 479.672703 
L 98.90592 474.564923 
L 103.998848 479.776373 
L 108.979395 480.420704 
L 114.042259 474.124979 
L 119.058021 475.189859 
L 124.128944 477.612485 
L 129.289489 471.526436 
L 134.401643 471.522254 
L 139.494571 468.56414 
L 144.571135 468.775286 
L 149.620091 468.296241 
L 154.694221 468.328603 
L 159.804665 473.515042 
L 164.836457 474.923563 
L 169.941117 474.79234 
L 175.027668 472.40781 
L 180.0988 473.626286 
L 185.170437 473.708648 
L 190.236634 471.012759 
L 195.320327 473.322434 
L 200.383343 463.388991 
L 205.465974 464.57775 
L 210.53584 460.425764 
L 215.605164 465.771422 
L 220.684347 469.514414 
L 225.755677 467.265186 
L 230.829335 468.271075 
L 235.901779 458.205234 
L 240.971403 468.840928 
L 246.048153 468.98415 
L 251.118613 469.511089 
L 256.19219 455.188853 
L 261.264348 468.906192 
L 266.338338 468.538908 
L 271.410745 452.333368 
L 276.484912 466.374856 
L 281.556313 463.16798 
L 286.629691 467.344511 
L 291.703055 464.936544 
L 296.775602 464.593118 
L 301.848073 466.832874 
L 306.920965 466.350658 
L 311.993564 465.111383 
L 317.06631 464.577764 
L 322.139188 446.562631 
L 327.211896 448.077468 
L 332.284837 448.878099 
L 337.357556 443.778905 
L 342.430338 443.552383 
L 347.503108 460.806363 
L 352.575841 443.483003 
L 357.648548 461.907248 
L 362.721292 459.876703 
L 367.793971 439.894834 
L 372.866705 460.963121 
L 377.939427 460.591167 
L 383.012168 446.692946 
L 388.084906 434.932479 
L 393.15764 457.642156 
L 398.230384 454.296905 
L 403.303098 456.902859 
L 408.37585 456.781138 
L 413.448579 453.695569 
L 418.521302 442.663472 
L 423.594033 455.593162 
L 428.666756 438.67765 
L 433.739482 438.670166 
L 438.81221 451.376592 
L 443.884943 427.632726 
L 448.957672 436.139864 
L 454.030398 430.78919 
L 459.103126 420.616434 
L 464.175852 420.165849 
L 469.248579 408.44854 
L 474.321309 404.16938 
L 479.394036 413.178498 
L 484.466764 410.435839 
L 489.539492 396.283321 
L 494.612218 395.49709 
L 499.684945 390.676436 
L 504.757672 390.509407 
L 509.830399 376.628925 
L 514.903126 373.523267 
L 519.975853 379.703448 
L 525.048582 371.761907 
L 530.12131 361.799854 
L 535.194038 352.792199 
L 540.266767 352.320845 
L 545.339493 339.974344 
L 550.412219 341.208632 
L 555.484946 332.184788 
L 560.557673 328.29171 
L 565.630401 312.772173 
L 570.703128 320.708432 
L 575.775856 298.561181 
L 580.848584 316.089806 
L 585.921309 293.35828 
L 590.994035 285.23324 
L 596.066762 293.506031 
L 601.13949 289.82025 
L 606.212216 261.194219 
L 611.284943 266.95756 
L 616.357671 271.044111 
L 621.430398 247.410781 
L 626.503125 262.207608 
" clip-path="url(#pd6fc3a9c9b)" style="fill: none; stroke: #e377c2; stroke-linecap: square"/>
   </g>
   <g id="line2d_63"/>
   <g id="line2d_64"/>
   <g id="line2d_65"/>
   <g id="line2d_66"/>
   <g id="patch_5">
    <path d="M 40.603125 494.114688 
L 40.603125 50.594688 
" style="fill: none; stroke: #000000; stroke-width: 0.8; stroke-linejoin: miter; stroke-linecap: square"/>
   </g>
   <g id="patch_6">
    <path d="M 654.403125 494.114688 
L 654.403125 50.594688 
" style="fill: none; stroke: #000000; stroke-width: 0.8; stroke-linejoin: miter; stroke-linecap: square"/>
   </g>
   <g id="patch_7">
    <path d="M 40.603125 494.114688 
L 654.403125 494.114688 
" style="fill: none; stroke: #000000; stroke-width: 0.8; stroke-linejoin: miter; stroke-linecap: square"/>
   </g>
   <g id="patch_8">
    <path d="M 40.603125 50.594688 
L 654.403125 50.594688 
" style="fill: none; stroke: #000000; stroke-width: 0.8; stroke-linejoin: miter; stroke-linecap: square"/>
   </g>
   <g id="text_39">
    <!-- L1  -->
    <g style="fill: #ff0000" transform="translate(277.343704 492.035) scale(0.1 -0.1)">
     <defs>
      <path id="DejaVuSans-4c" d="M 628 4666 
L 1259 4666 
L 1259 531 
L 3531 531 
L 3531 0 
L 628 0 
L 628 4666 
z
" transform="scale(0.015625)"/>
     </defs>
     <use xlink:href="#DejaVuSans-4c"/>
     <use xlink:href="#DejaVuSans-31" x="55.712891"/>
     <use xlink:href="#DejaVuSans-20" x="119.335938"/>
    </g>
   </g>
   <g id="text_40">
    <!-- L2  -->
    <g style="fill: #ff0000" transform="translate(366.924935 492.035) scale(0.1 -0.1)">
     <use xlink:href="#DejaVuSans-4c"/>
     <use xlink:href="#DejaVuSans-32" x="55.712891"/>
     <use xlink:href="#DejaVuSans-20" x="119.335938"/>
    </g>
   </g>
   <g id="text_41">
    <!-- L3  -->
    <g style="fill: #ff0000" transform="translate(434.110859 492.035) scale(0.1 -0.1)">
     <use xlink:href="#DejaVuSans-4c"/>
     <use xlink:href="#DejaVuSans-33" x="55.712891"/>
     <use xlink:href="#DejaVuSans-20" x="119.335938"/>
    </g>
   </g>
   <g id="text_42">
    <!-- RAM -->
    <g style="fill: #ff0000" transform="translate(604.485938 492.035) scale(0.1 -0.1)">
     <defs>
      <path id="DejaVuSans-52" d="M 2841 2188 
Q 3044 2119 3236 1894 
Q 3428 1669 3622 1275 
L 4263 0 
L 3584 0 
L 2988 1197 
Q 2756 1666 2539 1819 
Q 2322 1972 1947 1972 
L 1259 1972 
L 1259 0 
L 628 0 
L 628 4666 
L 2053 4666 
Q 2853 4666 3247 4331 
Q 3641 3997 3641 3322 
Q 3641 2881 3436 2590 
Q 3231 2300 2841 2188 
z
M 1259 4147 
L 1259 2491 
L 2053 2491 
Q 2509 2491 2742 2702 
Q 2975 2913 2975 3322 
Q 2975 3731 2742 3939 
Q 2509 4147 2053 4147 
L 1259 4147 
z
" transform="scale(0.015625)"/>
      <path id="DejaVuSans-4d" d="M 628 4666 
L 1569 4666 
L 2759 1491 
L 3956 4666 
L 4897 4666 
L 4897 0 
L 4281 0 
L 4281 4097 
L 3078 897 
L 2444 897 
L 1241 4097 
L 1241 0 
L 628 0 
L 628 4666 
z
" transform="scale(0.015625)"/>
     </defs>
     <use xlink:href="#DejaVuSans-52"/>
     <use xlink:href="#DejaVuSans-41" x="65.482422"/>
     <use xlink:href="#DejaVuSans-4d" x="133.890625"/>
    </g>
   </g>
   <g id="text_43">
    <!-- Comparison of batched Eytzinger - best prefetching &amp; non-prefetching -->
    <g transform="translate(135.818438 16.318125) scale(0.12 -0.12)">
     <defs>
      <path id="DejaVuSans-43" d="M 4122 4306 
L 4122 3641 
Q 3803 3938 3442 4084 
Q 3081 4231 2675 4231 
Q 1875 4231 1450 3742 
Q 1025 3253 1025 2328 
Q 1025 1406 1450 917 
Q 1875 428 2675 428 
Q 3081 428 3442 575 
Q 3803 722 4122 1019 
L 4122 359 
Q 3791 134 3420 21 
Q 3050 -91 2638 -91 
Q 1578 -91 968 557 
Q 359 1206 359 2328 
Q 359 3453 968 4101 
Q 1578 4750 2638 4750 
Q 3056 4750 3426 4639 
Q 3797 4528 4122 4306 
z
" transform="scale(0.015625)"/>
      <path id="DejaVuSans-6d" d="M 3328 2828 
Q 3544 3216 3844 3400 
Q 4144 3584 4550 3584 
Q 5097 3584 5394 3201 
Q 5691 2819 5691 2113 
L 5691 0 
L 5113 0 
L 5113 2094 
Q 5113 2597 4934 2840 
Q 4756 3084 4391 3084 
Q 3944 3084 3684 2787 
Q 3425 2491 3425 1978 
L 3425 0 
L 2847 0 
L 2847 2094 
Q 2847 2600 2669 2842 
Q 2491 3084 2119 3084 
Q 1678 3084 1418 2786 
Q 1159 2488 1159 1978 
L 1159 0 
L 581 0 
L 581 3500 
L 1159 3500 
L 1159 2956 
Q 1356 3278 1631 3431 
Q 1906 3584 2284 3584 
Q 2666 3584 2933 3390 
Q 3200 3197 3328 2828 
z
" transform="scale(0.015625)"/>
      <path id="DejaVuSans-66" d="M 2375 4863 
L 2375 4384 
L 1825 4384 
Q 1516 4384 1395 4259 
Q 1275 4134 1275 3809 
L 1275 3500 
L 2222 3500 
L 2222 3053 
L 1275 3053 
L 1275 0 
L 697 0 
L 697 3053 
L 147 3053 
L 147 3500 
L 697 3500 
L 697 3744 
Q 697 4328 969 4595 
Q 1241 4863 1831 4863 
L 2375 4863 
z
" transform="scale(0.015625)"/>
      <path id="DejaVuSans-63" d="M 3122 3366 
L 3122 2828 
Q 2878 2963 2633 3030 
Q 2388 3097 2138 3097 
Q 1578 3097 1268 2742 
Q 959 2388 959 1747 
Q 959 1106 1268 751 
Q 1578 397 2138 397 
Q 2388 397 2633 464 
Q 2878 531 3122 666 
L 3122 134 
Q 2881 22 2623 -34 
Q 2366 -91 2075 -91 
Q 1284 -91 818 406 
Q 353 903 353 1747 
Q 353 2603 823 3093 
Q 1294 3584 2113 3584 
Q 2378 3584 2631 3529 
Q 2884 3475 3122 3366 
z
" transform="scale(0.015625)"/>
      <path id="DejaVuSans-64" d="M 2906 2969 
L 2906 4863 
L 3481 4863 
L 3481 0 
L 2906 0 
L 2906 525 
Q 2725 213 2448 61 
Q 2172 -91 1784 -91 
Q 1150 -91 751 415 
Q 353 922 353 1747 
Q 353 2572 751 3078 
Q 1150 3584 1784 3584 
Q 2172 3584 2448 3432 
Q 2725 3281 2906 2969 
z
M 947 1747 
Q 947 1113 1208 752 
Q 1469 391 1925 391 
Q 2381 391 2643 752 
Q 2906 1113 2906 1747 
Q 2906 2381 2643 2742 
Q 2381 3103 1925 3103 
Q 1469 3103 1208 2742 
Q 947 2381 947 1747 
z
" transform="scale(0.015625)"/>
      <path id="DejaVuSans-45" d="M 628 4666 
L 3578 4666 
L 3578 4134 
L 1259 4134 
L 1259 2753 
L 3481 2753 
L 3481 2222 
L 1259 2222 
L 1259 531 
L 3634 531 
L 3634 0 
L 628 0 
L 628 4666 
z
" transform="scale(0.015625)"/>
      <path id="DejaVuSans-2d" d="M 313 2009 
L 1997 2009 
L 1997 1497 
L 313 1497 
L 313 2009 
z
" transform="scale(0.015625)"/>
      <path id="DejaVuSans-26" d="M 1556 2509 
Q 1272 2256 1139 2004 
Q 1006 1753 1006 1478 
Q 1006 1022 1337 719 
Q 1669 416 2169 416 
Q 2466 416 2725 514 
Q 2984 613 3213 813 
L 1556 2509 
z
M 1997 2859 
L 3584 1234 
Q 3769 1513 3872 1830 
Q 3975 2147 3994 2503 
L 4575 2503 
Q 4538 2091 4375 1687 
Q 4213 1284 3922 891 
L 4794 0 
L 4006 0 
L 3559 459 
Q 3234 181 2878 45 
Q 2522 -91 2113 -91 
Q 1359 -91 881 339 
Q 403 769 403 1441 
Q 403 1841 612 2192 
Q 822 2544 1241 2853 
Q 1091 3050 1012 3245 
Q 934 3441 934 3628 
Q 934 4134 1281 4442 
Q 1628 4750 2203 4750 
Q 2463 4750 2720 4694 
Q 2978 4638 3244 4525 
L 3244 3956 
Q 2972 4103 2725 4179 
Q 2478 4256 2266 4256 
Q 1938 4256 1733 4082 
Q 1528 3909 1528 3634 
Q 1528 3475 1620 3314 
Q 1713 3153 1997 2859 
z
" transform="scale(0.015625)"/>
     </defs>
     <use xlink:href="#DejaVuSans-43"/>
     <use xlink:href="#DejaVuSans-6f" x="69.824219"/>
     <use xlink:href="#DejaVuSans-6d" x="131.005859"/>
     <use xlink:href="#DejaVuSans-70" x="228.417969"/>
     <use xlink:href="#DejaVuSans-61" x="291.894531"/>
     <use xlink:href="#DejaVuSans-72" x="353.173828"/>
     <use xlink:href="#DejaVuSans-69" x="394.287109"/>
     <use xlink:href="#DejaVuSans-73" x="422.070312"/>
     <use xlink:href="#DejaVuSans-6f" x="474.169922"/>
     <use xlink:href="#DejaVuSans-6e" x="535.351562"/>
     <use xlink:href="#DejaVuSans-20" x="598.730469"/>
     <use xlink:href="#DejaVuSans-6f" x="630.517578"/>
     <use xlink:href="#DejaVuSans-66" x="691.699219"/>
     <use xlink:href="#DejaVuSans-20" x="726.904297"/>
     <use xlink:href="#DejaVuSans-62" x="758.691406"/>
     <use xlink:href="#DejaVuSans-61" x="822.167969"/>
     <use xlink:href="#DejaVuSans-74" x="883.447266"/>
     <use xlink:href="#DejaVuSans-63" x="922.65625"/>
     <use xlink:href="#DejaVuSans-68" x="977.636719"/>
     <use xlink:href="#DejaVuSans-65" x="1041.015625"/>
     <use xlink:href="#DejaVuSans-64" x="1102.539062"/>
     <use xlink:href="#DejaVuSans-20" x="1166.015625"/>
     <use xlink:href="#DejaVuSans-45" x="1197.802734"/>
     <use xlink:href="#DejaVuSans-79" x="1260.986328"/>
     <use xlink:href="#DejaVuSans-74" x="1320.166016"/>
     <use xlink:href="#DejaVuSans-7a" x="1359.375"/>
     <use xlink:href="#DejaVuSans-69" x="1411.865234"/>
     <use xlink:href="#DejaVuSans-6e" x="1439.648438"/>
     <use xlink:href="#DejaVuSans-67" x="1503.027344"/>
     <use xlink:href="#DejaVuSans-65" x="1566.503906"/>
     <use xlink:href="#DejaVuSans-72" x="1628.027344"/>
     <use xlink:href="#DejaVuSans-20" x="1669.140625"/>
     <use xlink:href="#DejaVuSans-2d" x="1700.927734"/>
     <use xlink:href="#DejaVuSans-20" x="1737.011719"/>
     <use xlink:href="#DejaVuSans-62" x="1768.798828"/>
     <use xlink:href="#DejaVuSans-65" x="1832.275391"/>
     <use xlink:href="#DejaVuSans-73" x="1893.798828"/>
     <use xlink:href="#DejaVuSans-74" x="1945.898438"/>
     <use xlink:href="#DejaVuSans-20" x="1985.107422"/>
     <use xlink:href="#DejaVuSans-70" x="2016.894531"/>
     <use xlink:href="#DejaVuSans-72" x="2080.371094"/>
     <use xlink:href="#DejaVuSans-65" x="2119.234375"/>
     <use xlink:href="#DejaVuSans-66" x="2180.757812"/>
     <use xlink:href="#DejaVuSans-65" x="2215.962891"/>
     <use xlink:href="#DejaVuSans-74" x="2277.486328"/>
     <use xlink:href="#DejaVuSans-63" x="2316.695312"/>
     <use xlink:href="#DejaVuSans-68" x="2371.675781"/>
     <use xlink:href="#DejaVuSans-69" x="2435.054688"/>
     <use xlink:href="#DejaVuSans-6e" x="2462.837891"/>
     <use xlink:href="#DejaVuSans-67" x="2526.216797"/>
     <use xlink:href="#DejaVuSans-20" x="2589.693359"/>
     <use xlink:href="#DejaVuSans-26" x="2621.480469"/>
     <use xlink:href="#DejaVuSans-20" x="2699.458984"/>
     <use xlink:href="#DejaVuSans-6e" x="2731.246094"/>
     <use xlink:href="#DejaVuSans-6f" x="2794.625"/>
     <use xlink:href="#DejaVuSans-6e" x="2855.806641"/>
     <use xlink:href="#DejaVuSans-2d" x="2919.185547"/>
     <use xlink:href="#DejaVuSans-70" x="2955.269531"/>
     <use xlink:href="#DejaVuSans-72" x="3018.746094"/>
     <use xlink:href="#DejaVuSans-65" x="3057.609375"/>
     <use xlink:href="#DejaVuSans-66" x="3119.132812"/>
     <use xlink:href="#DejaVuSans-65" x="3154.337891"/>
     <use xlink:href="#DejaVuSans-74" x="3215.861328"/>
     <use xlink:href="#DejaVuSans-63" x="3255.070312"/>
     <use xlink:href="#DejaVuSans-68" x="3310.050781"/>
     <use xlink:href="#DejaVuSans-69" x="3373.429688"/>
     <use xlink:href="#DejaVuSans-6e" x="3401.212891"/>
     <use xlink:href="#DejaVuSans-67" x="3464.591797"/>
    </g>
   </g>
   <g id="legend_1">
    <g id="patch_9">
     <path d="M 47.603125 103.463438 
L 420.278125 103.463438 
Q 422.278125 103.463438 422.278125 101.463438 
L 422.278125 57.594688 
Q 422.278125 55.594688 420.278125 55.594688 
L 47.603125 55.594688 
Q 45.603125 55.594688 45.603125 57.594688 
L 45.603125 101.463438 
Q 45.603125 103.463438 47.603125 103.463438 
L 47.603125 103.463438 
z
" style="fill: none; opacity: 0"/>
    </g>
    <g id="line2d_67">
     <path d="M 49.603125 63.693125 
L 59.603125 63.693125 
L 69.603125 63.693125 
" style="fill: none; stroke: #2ca02c; stroke-width: 1.5; stroke-linecap: square"/>
    </g>
    <g id="text_44">
     <!-- Eytzinger::search_branchless_prefetch&lt;4&gt; -->
     <g transform="translate(77.603125 67.193125) scale(0.1 -0.1)">
      <defs>
       <path id="DejaVuSans-3a" d="M 750 794 
L 1409 794 
L 1409 0 
L 750 0 
L 750 794 
z
M 750 3309 
L 1409 3309 
L 1409 2516 
L 750 2516 
L 750 3309 
z
" transform="scale(0.015625)"/>
       <path id="DejaVuSans-5f" d="M 3263 -1063 
L 3263 -1509 
L -63 -1509 
L -63 -1063 
L 3263 -1063 
z
" transform="scale(0.015625)"/>
       <path id="DejaVuSans-3c" d="M 4684 3150 
L 1459 2003 
L 4684 863 
L 4684 294 
L 678 1747 
L 678 2266 
L 4684 3719 
L 4684 3150 
z
" transform="scale(0.015625)"/>
       <path id="DejaVuSans-3e" d="M 678 3150 
L 678 3719 
L 4684 2266 
L 4684 1747 
L 678 294 
L 678 863 
L 3897 2003 
L 678 3150 
z
" transform="scale(0.015625)"/>
      </defs>
      <use xlink:href="#DejaVuSans-45"/>
      <use xlink:href="#DejaVuSans-79" x="63.183594"/>
      <use xlink:href="#DejaVuSans-74" x="122.363281"/>
      <use xlink:href="#DejaVuSans-7a" x="161.572266"/>
      <use xlink:href="#DejaVuSans-69" x="214.0625"/>
      <use xlink:href="#DejaVuSans-6e" x="241.845703"/>
      <use xlink:href="#DejaVuSans-67" x="305.224609"/>
      <use xlink:href="#DejaVuSans-65" x="368.701172"/>
      <use xlink:href="#DejaVuSans-72" x="430.224609"/>
      <use xlink:href="#DejaVuSans-3a" x="469.587891"/>
      <use xlink:href="#DejaVuSans-3a" x="503.279297"/>
      <use xlink:href="#DejaVuSans-73" x="536.970703"/>
      <use xlink:href="#DejaVuSans-65" x="589.070312"/>
      <use xlink:href="#DejaVuSans-61" x="650.59375"/>
      <use xlink:href="#DejaVuSans-72" x="711.873047"/>
      <use xlink:href="#DejaVuSans-63" x="750.736328"/>
      <use xlink:href="#DejaVuSans-68" x="805.716797"/>
      <use xlink:href="#DejaVuSans-5f" x="869.095703"/>
      <use xlink:href="#DejaVuSans-62" x="919.095703"/>
      <use xlink:href="#DejaVuSans-72" x="982.572266"/>
      <use xlink:href="#DejaVuSans-61" x="1023.685547"/>
      <use xlink:href="#DejaVuSans-6e" x="1084.964844"/>
      <use xlink:href="#DejaVuSans-63" x="1148.34375"/>
      <use xlink:href="#DejaVuSans-68" x="1203.324219"/>
      <use xlink:href="#DejaVuSans-6c" x="1266.703125"/>
      <use xlink:href="#DejaVuSans-65" x="1294.486328"/>
      <use xlink:href="#DejaVuSans-73" x="1356.009766"/>
      <use xlink:href="#DejaVuSans-73" x="1408.109375"/>
      <use xlink:href="#DejaVuSans-5f" x="1460.208984"/>
      <use xlink:href="#DejaVuSans-70" x="1510.208984"/>
      <use xlink:href="#DejaVuSans-72" x="1573.685547"/>
      <use xlink:href="#DejaVuSans-65" x="1612.548828"/>
      <use xlink:href="#DejaVuSans-66" x="1674.072266"/>
      <use xlink:href="#DejaVuSans-65" x="1709.277344"/>
      <use xlink:href="#DejaVuSans-74" x="1770.800781"/>
      <use xlink:href="#DejaVuSans-63" x="1810.009766"/>
      <use xlink:href="#DejaVuSans-68" x="1864.990234"/>
      <use xlink:href="#DejaVuSans-3c" x="1928.369141"/>
      <use xlink:href="#DejaVuSans-34" x="2012.158203"/>
      <use xlink:href="#DejaVuSans-3e" x="2075.78125"/>
     </g>
    </g>
    <g id="line2d_68">
     <path d="M 49.603125 78.649375 
L 59.603125 78.649375 
L 69.603125 78.649375 
" style="fill: none; stroke: #8c564b; stroke-width: 1.5; stroke-linecap: square"/>
    </g>
    <g id="text_45">
     <!-- Batched&lt;16, Eytzinger, Eytzinger::batch_impl&lt;16&gt;&gt; -->
     <g transform="translate(77.603125 82.149375) scale(0.1 -0.1)">
      <defs>
       <path id="DejaVuSans-42" d="M 1259 2228 
L 1259 519 
L 2272 519 
Q 2781 519 3026 730 
Q 3272 941 3272 1375 
Q 3272 1813 3026 2020 
Q 2781 2228 2272 2228 
L 1259 2228 
z
M 1259 4147 
L 1259 2741 
L 2194 2741 
Q 2656 2741 2882 2914 
Q 3109 3088 3109 3444 
Q 3109 3797 2882 3972 
Q 2656 4147 2194 4147 
L 1259 4147 
z
M 628 4666 
L 2241 4666 
Q 2963 4666 3353 4366 
Q 3744 4066 3744 3513 
Q 3744 3084 3544 2831 
Q 3344 2578 2956 2516 
Q 3422 2416 3680 2098 
Q 3938 1781 3938 1306 
Q 3938 681 3513 340 
Q 3088 0 2303 0 
L 628 0 
L 628 4666 
z
" transform="scale(0.015625)"/>
       <path id="DejaVuSans-2c" d="M 750 794 
L 1409 794 
L 1409 256 
L 897 -744 
L 494 -744 
L 750 256 
L 750 794 
z
" transform="scale(0.015625)"/>
      </defs>
      <use xlink:href="#DejaVuSans-42"/>
      <use xlink:href="#DejaVuSans-61" x="68.603516"/>
      <use xlink:href="#DejaVuSans-74" x="129.882812"/>
      <use xlink:href="#DejaVuSans-63" x="169.091797"/>
      <use xlink:href="#DejaVuSans-68" x="224.072266"/>
      <use xlink:href="#DejaVuSans-65" x="287.451172"/>
      <use xlink:href="#DejaVuSans-64" x="348.974609"/>
      <use xlink:href="#DejaVuSans-3c" x="412.451172"/>
      <use xlink:href="#DejaVuSans-31" x="496.240234"/>
      <use xlink:href="#DejaVuSans-36" x="559.863281"/>
      <use xlink:href="#DejaVuSans-2c" x="623.486328"/>
      <use xlink:href="#DejaVuSans-20" x="655.273438"/>
      <use xlink:href="#DejaVuSans-45" x="687.060547"/>
      <use xlink:href="#DejaVuSans-79" x="750.244141"/>
      <use xlink:href="#DejaVuSans-74" x="809.423828"/>
      <use xlink:href="#DejaVuSans-7a" x="848.632812"/>
      <use xlink:href="#DejaVuSans-69" x="901.123047"/>
      <use xlink:href="#DejaVuSans-6e" x="928.90625"/>
      <use xlink:href="#DejaVuSans-67" x="992.285156"/>
      <use xlink:href="#DejaVuSans-65" x="1055.761719"/>
      <use xlink:href="#DejaVuSans-72" x="1117.285156"/>
      <use xlink:href="#DejaVuSans-2c" x="1158.398438"/>
      <use xlink:href="#DejaVuSans-20" x="1190.185547"/>
      <use xlink:href="#DejaVuSans-45" x="1221.972656"/>
      <use xlink:href="#DejaVuSans-79" x="1285.15625"/>
      <use xlink:href="#DejaVuSans-74" x="1344.335938"/>
      <use xlink:href="#DejaVuSans-7a" x="1383.544922"/>
      <use xlink:href="#DejaVuSans-69" x="1436.035156"/>
      <use xlink:href="#DejaVuSans-6e" x="1463.818359"/>
      <use xlink:href="#DejaVuSans-67" x="1527.197266"/>
      <use xlink:href="#DejaVuSans-65" x="1590.673828"/>
      <use xlink:href="#DejaVuSans-72" x="1652.197266"/>
      <use xlink:href="#DejaVuSans-3a" x="1691.560547"/>
      <use xlink:href="#DejaVuSans-3a" x="1725.251953"/>
      <use xlink:href="#DejaVuSans-62" x="1758.943359"/>
      <use xlink:href="#DejaVuSans-61" x="1822.419922"/>
      <use xlink:href="#DejaVuSans-74" x="1883.699219"/>
      <use xlink:href="#DejaVuSans-63" x="1922.908203"/>
      <use xlink:href="#DejaVuSans-68" x="1977.888672"/>
      <use xlink:href="#DejaVuSans-5f" x="2041.267578"/>
      <use xlink:href="#DejaVuSans-69" x="2091.267578"/>
      <use xlink:href="#DejaVuSans-6d" x="2119.050781"/>
      <use xlink:href="#DejaVuSans-70" x="2216.462891"/>
      <use xlink:href="#DejaVuSans-6c" x="2279.939453"/>
      <use xlink:href="#DejaVuSans-3c" x="2307.722656"/>
      <use xlink:href="#DejaVuSans-31" x="2391.511719"/>
      <use xlink:href="#DejaVuSans-36" x="2455.134766"/>
      <use xlink:href="#DejaVuSans-3e" x="2518.757812"/>
      <use xlink:href="#DejaVuSans-3e" x="2602.546875"/>
     </g>
    </g>
    <g id="line2d_69">
     <path d="M 49.603125 93.605625 
L 59.603125 93.605625 
L 69.603125 93.605625 
" style="fill: none; stroke: #e377c2; stroke-width: 1.5; stroke-linecap: square"/>
    </g>
    <g id="text_46">
     <!-- Batched&lt;16, Eytzinger, Eytzinger::batch_impl_prefetched&lt;16, 4&gt;&gt; -->
     <g transform="translate(77.603125 97.105625) scale(0.1 -0.1)">
      <use xlink:href="#DejaVuSans-42"/>
      <use xlink:href="#DejaVuSans-61" x="68.603516"/>
      <use xlink:href="#DejaVuSans-74" x="129.882812"/>
      <use xlink:href="#DejaVuSans-63" x="169.091797"/>
      <use xlink:href="#DejaVuSans-68" x="224.072266"/>
      <use xlink:href="#DejaVuSans-65" x="287.451172"/>
      <use xlink:href="#DejaVuSans-64" x="348.974609"/>
      <use xlink:href="#DejaVuSans-3c" x="412.451172"/>
      <use xlink:href="#DejaVuSans-31" x="496.240234"/>
      <use xlink:href="#DejaVuSans-36" x="559.863281"/>
      <use xlink:href="#DejaVuSans-2c" x="623.486328"/>
      <use xlink:href="#DejaVuSans-20" x="655.273438"/>
      <use xlink:href="#DejaVuSans-45" x="687.060547"/>
      <use xlink:href="#DejaVuSans-79" x="750.244141"/>
      <use xlink:href="#DejaVuSans-74" x="809.423828"/>
      <use xlink:href="#DejaVuSans-7a" x="848.632812"/>
      <use xlink:href="#DejaVuSans-69" x="901.123047"/>
      <use xlink:href="#DejaVuSans-6e" x="928.90625"/>
      <use xlink:href="#DejaVuSans-67" x="992.285156"/>
      <use xlink:href="#DejaVuSans-65" x="1055.761719"/>
      <use xlink:href="#DejaVuSans-72" x="1117.285156"/>
      <use xlink:href="#DejaVuSans-2c" x="1158.398438"/>
      <use xlink:href="#DejaVuSans-20" x="1190.185547"/>
      <use xlink:href="#DejaVuSans-45" x="1221.972656"/>
      <use xlink:href="#DejaVuSans-79" x="1285.15625"/>
      <use xlink:href="#DejaVuSans-74" x="1344.335938"/>
      <use xlink:href="#DejaVuSans-7a" x="1383.544922"/>
      <use xlink:href="#DejaVuSans-69" x="1436.035156"/>
      <use xlink:href="#DejaVuSans-6e" x="1463.818359"/>
      <use xlink:href="#DejaVuSans-67" x="1527.197266"/>
      <use xlink:href="#DejaVuSans-65" x="1590.673828"/>
      <use xlink:href="#DejaVuSans-72" x="1652.197266"/>
      <use xlink:href="#DejaVuSans-3a" x="1691.560547"/>
      <use xlink:href="#DejaVuSans-3a" x="1725.251953"/>
      <use xlink:href="#DejaVuSans-62" x="1758.943359"/>
      <use xlink:href="#DejaVuSans-61" x="1822.419922"/>
      <use xlink:href="#DejaVuSans-74" x="1883.699219"/>
      <use xlink:href="#DejaVuSans-63" x="1922.908203"/>
      <use xlink:href="#DejaVuSans-68" x="1977.888672"/>
      <use xlink:href="#DejaVuSans-5f" x="2041.267578"/>
      <use xlink:href="#DejaVuSans-69" x="2091.267578"/>
      <use xlink:href="#DejaVuSans-6d" x="2119.050781"/>
      <use xlink:href="#DejaVuSans-70" x="2216.462891"/>
      <use xlink:href="#DejaVuSans-6c" x="2279.939453"/>
      <use xlink:href="#DejaVuSans-5f" x="2307.722656"/>
      <use xlink:href="#DejaVuSans-70" x="2357.722656"/>
      <use xlink:href="#DejaVuSans-72" x="2421.199219"/>
      <use xlink:href="#DejaVuSans-65" x="2460.0625"/>
      <use xlink:href="#DejaVuSans-66" x="2521.585938"/>
      <use xlink:href="#DejaVuSans-65" x="2556.791016"/>
      <use xlink:href="#DejaVuSans-74" x="2618.314453"/>
      <use xlink:href="#DejaVuSans-63" x="2657.523438"/>
      <use xlink:href="#DejaVuSans-68" x="2712.503906"/>
      <use xlink:href="#DejaVuSans-65" x="2775.882812"/>
      <use xlink:href="#DejaVuSans-64" x="2837.40625"/>
      <use xlink:href="#DejaVuSans-3c" x="2900.882812"/>
      <use xlink:href="#DejaVuSans-31" x="2984.671875"/>
      <use xlink:href="#DejaVuSans-36" x="3048.294922"/>
      <use xlink:href="#DejaVuSans-2c" x="3111.917969"/>
      <use xlink:href="#DejaVuSans-20" x="3143.705078"/>
      <use xlink:href="#DejaVuSans-34" x="3175.492188"/>
      <use xlink:href="#DejaVuSans-3e" x="3239.115234"/>
      <use xlink:href="#DejaVuSans-3e" x="3322.904297"/>
     </g>
    </g>
   </g>
  </g>
 </g>
 <defs>
  <clipPath id="pd6fc3a9c9b">
   <rect x="40.603125" y="50.594688" width="613.8" height="443.52"/>
  </clipPath>
 </defs>
</svg>
