<?xml version="1.0" encoding="utf-8" standalone="no"?>
<!DOCTYPE svg PUBLIC "-//W3C//DTD SVG 1.1//EN"
  "http://www.w3.org/Graphics/SVG/1.1/DTD/svg11.dtd">
<svg xmlns:xlink="http://www.w3.org/1999/xlink" width="667.965625pt" height="531.670938pt" viewBox="0 0 667.965625 531.670938" xmlns="http://www.w3.org/2000/svg" version="1.1">
 <metadata>
  <rdf:RDF xmlns:dc="http://purl.org/dc/elements/1.1/" xmlns:cc="http://creativecommons.org/ns#" xmlns:rdf="http://www.w3.org/1999/02/22-rdf-syntax-ns#">
   <cc:Work>
    <dc:type rdf:resource="http://purl.org/dc/dcmitype/StillImage"/>
    <dc:date>2025-02-12T11:28:36.848804</dc:date>
    <dc:format>image/svg+xml</dc:format>
    <dc:creator>
     <cc:Agent>
      <dc:title>Matplotlib v3.9.2, https://matplotlib.org/</dc:title>
     </cc:Agent>
    </dc:creator>
   </cc:Work>
  </rdf:RDF>
 </metadata>
 <defs>
  <style type="text/css">*{stroke-linejoin: round; stroke-linecap: butt}</style>
 </defs>
 <g id="figure_1">
  <g id="patch_1">
   <path d="M -0 531.670938 
L 667.965625 531.670938 
L 667.965625 0 
L -0 0 
z
" style="fill: #ffffff"/>
  </g>
  <g id="axes_1">
   <g id="patch_2">
    <path d="M 46.965625 494.114688 
L 660.765625 494.114688 
L 660.765625 50.594688 
L 46.965625 50.594688 
z
" style="fill: #ffffff"/>
   </g>
   <g id="line2d_1">
    <path d="M 298.818704 494.114688 
L 298.818704 50.594688 
" clip-path="url(#pdb29454f14)" style="fill: none; stroke-dasharray: 5.55,2.4; stroke-dashoffset: 0; stroke: #ff0000; stroke-width: 1.5"/>
   </g>
   <g id="line2d_2">
    <path d="M 388.399935 494.114688 
L 388.399935 50.594688 
" clip-path="url(#pdb29454f14)" style="fill: none; stroke-dasharray: 5.55,2.4; stroke-dashoffset: 0; stroke: #ff0000; stroke-width: 1.5"/>
   </g>
   <g id="line2d_3">
    <path d="M 455.585859 494.114688 
L 455.585859 50.594688 
" clip-path="url(#pdb29454f14)" style="fill: none; stroke-dasharray: 5.55,2.4; stroke-dashoffset: 0; stroke: #ff0000; stroke-width: 1.5"/>
   </g>
   <g id="axes_2">
    <g id="patch_3">
     <path d="M 46.965625 50.594688 
L 660.765625 50.594688 
L 660.765625 50.594687 
L 46.965625 50.594687 
z
" style="fill: #ffffff"/>
    </g>
    <g id="matplotlib.axis_1">
     <g id="xtick_1">
      <g id="line2d_4">
       <defs>
        <path id="ma966857009" d="M 0 0 
L 0 -3.5 
" style="stroke: #000000; stroke-width: 0.8"/>
       </defs>
       <g>
        <use xlink:href="#ma966857009" x="52.470317" y="50.594687" style="stroke: #000000; stroke-width: 0.8"/>
       </g>
      </g>
      <g id="text_1">
       <!-- $\mathdefault{2^{2}}$ -->
       <g transform="translate(46.870317 41.515) scale(0.1 -0.1)">
        <defs>
         <path id="DejaVuSans-32" d="M 1228 531 
L 3431 531 
L 3431 0 
L 469 0 
L 469 531 
Q 828 903 1448 1529 
Q 2069 2156 2228 2338 
Q 2531 2678 2651 2914 
Q 2772 3150 2772 3378 
Q 2772 3750 2511 3984 
Q 2250 4219 1831 4219 
Q 1534 4219 1204 4116 
Q 875 4013 500 3803 
L 500 4441 
Q 881 4594 1212 4672 
Q 1544 4750 1819 4750 
Q 2544 4750 2975 4387 
Q 3406 4025 3406 3419 
Q 3406 3131 3298 2873 
Q 3191 2616 2906 2266 
Q 2828 2175 2409 1742 
Q 1991 1309 1228 531 
z
" transform="scale(0.015625)"/>
        </defs>
        <use xlink:href="#DejaVuSans-32" transform="translate(0 0.765625)"/>
        <use xlink:href="#DejaVuSans-32" transform="translate(64.580078 39.046875) scale(0.7)"/>
       </g>
      </g>
     </g>
     <g id="xtick_2">
      <g id="line2d_5">
       <g>
        <use xlink:href="#ma966857009" x="97.260933" y="50.594687" style="stroke: #000000; stroke-width: 0.8"/>
       </g>
      </g>
      <g id="text_2">
       <!-- $\mathdefault{2^{4}}$ -->
       <g transform="translate(91.660933 41.515) scale(0.1 -0.1)">
        <defs>
         <path id="DejaVuSans-34" d="M 2419 4116 
L 825 1625 
L 2419 1625 
L 2419 4116 
z
M 2253 4666 
L 3047 4666 
L 3047 1625 
L 3713 1625 
L 3713 1100 
L 3047 1100 
L 3047 0 
L 2419 0 
L 2419 1100 
L 313 1100 
L 313 1709 
L 2253 4666 
z
" transform="scale(0.015625)"/>
        </defs>
        <use xlink:href="#DejaVuSans-32" transform="translate(0 0.684375)"/>
        <use xlink:href="#DejaVuSans-34" transform="translate(64.580078 38.965625) scale(0.7)"/>
       </g>
      </g>
     </g>
     <g id="xtick_3">
      <g id="line2d_6">
       <g>
        <use xlink:href="#ma966857009" x="142.051549" y="50.594687" style="stroke: #000000; stroke-width: 0.8"/>
       </g>
      </g>
      <g id="text_3">
       <!-- $\mathdefault{2^{6}}$ -->
       <g transform="translate(136.451549 41.515) scale(0.1 -0.1)">
        <defs>
         <path id="DejaVuSans-36" d="M 2113 2584 
Q 1688 2584 1439 2293 
Q 1191 2003 1191 1497 
Q 1191 994 1439 701 
Q 1688 409 2113 409 
Q 2538 409 2786 701 
Q 3034 994 3034 1497 
Q 3034 2003 2786 2293 
Q 2538 2584 2113 2584 
z
M 3366 4563 
L 3366 3988 
Q 3128 4100 2886 4159 
Q 2644 4219 2406 4219 
Q 1781 4219 1451 3797 
Q 1122 3375 1075 2522 
Q 1259 2794 1537 2939 
Q 1816 3084 2150 3084 
Q 2853 3084 3261 2657 
Q 3669 2231 3669 1497 
Q 3669 778 3244 343 
Q 2819 -91 2113 -91 
Q 1303 -91 875 529 
Q 447 1150 447 2328 
Q 447 3434 972 4092 
Q 1497 4750 2381 4750 
Q 2619 4750 2861 4703 
Q 3103 4656 3366 4563 
z
" transform="scale(0.015625)"/>
        </defs>
        <use xlink:href="#DejaVuSans-32" transform="translate(0 0.765625)"/>
        <use xlink:href="#DejaVuSans-36" transform="translate(64.580078 39.046875) scale(0.7)"/>
       </g>
      </g>
     </g>
     <g id="xtick_4">
      <g id="line2d_7">
       <g>
        <use xlink:href="#ma966857009" x="186.842164" y="50.594687" style="stroke: #000000; stroke-width: 0.8"/>
       </g>
      </g>
      <g id="text_4">
       <!-- $\mathdefault{2^{8}}$ -->
       <g transform="translate(181.242164 41.515) scale(0.1 -0.1)">
        <defs>
         <path id="DejaVuSans-38" d="M 2034 2216 
Q 1584 2216 1326 1975 
Q 1069 1734 1069 1313 
Q 1069 891 1326 650 
Q 1584 409 2034 409 
Q 2484 409 2743 651 
Q 3003 894 3003 1313 
Q 3003 1734 2745 1975 
Q 2488 2216 2034 2216 
z
M 1403 2484 
Q 997 2584 770 2862 
Q 544 3141 544 3541 
Q 544 4100 942 4425 
Q 1341 4750 2034 4750 
Q 2731 4750 3128 4425 
Q 3525 4100 3525 3541 
Q 3525 3141 3298 2862 
Q 3072 2584 2669 2484 
Q 3125 2378 3379 2068 
Q 3634 1759 3634 1313 
Q 3634 634 3220 271 
Q 2806 -91 2034 -91 
Q 1263 -91 848 271 
Q 434 634 434 1313 
Q 434 1759 690 2068 
Q 947 2378 1403 2484 
z
M 1172 3481 
Q 1172 3119 1398 2916 
Q 1625 2713 2034 2713 
Q 2441 2713 2670 2916 
Q 2900 3119 2900 3481 
Q 2900 3844 2670 4047 
Q 2441 4250 2034 4250 
Q 1625 4250 1398 4047 
Q 1172 3844 1172 3481 
z
" transform="scale(0.015625)"/>
        </defs>
        <use xlink:href="#DejaVuSans-32" transform="translate(0 0.765625)"/>
        <use xlink:href="#DejaVuSans-38" transform="translate(64.580078 39.046875) scale(0.7)"/>
       </g>
      </g>
     </g>
     <g id="xtick_5">
      <g id="line2d_8">
       <g>
        <use xlink:href="#ma966857009" x="231.63278" y="50.594687" style="stroke: #000000; stroke-width: 0.8"/>
       </g>
      </g>
      <g id="text_5">
       <!-- $\mathdefault{2^{10}}$ -->
       <g transform="translate(223.78278 41.515) scale(0.1 -0.1)">
        <defs>
         <path id="DejaVuSans-31" d="M 794 531 
L 1825 531 
L 1825 4091 
L 703 3866 
L 703 4441 
L 1819 4666 
L 2450 4666 
L 2450 531 
L 3481 531 
L 3481 0 
L 794 0 
L 794 531 
z
" transform="scale(0.015625)"/>
         <path id="DejaVuSans-30" d="M 2034 4250 
Q 1547 4250 1301 3770 
Q 1056 3291 1056 2328 
Q 1056 1369 1301 889 
Q 1547 409 2034 409 
Q 2525 409 2770 889 
Q 3016 1369 3016 2328 
Q 3016 3291 2770 3770 
Q 2525 4250 2034 4250 
z
M 2034 4750 
Q 2819 4750 3233 4129 
Q 3647 3509 3647 2328 
Q 3647 1150 3233 529 
Q 2819 -91 2034 -91 
Q 1250 -91 836 529 
Q 422 1150 422 2328 
Q 422 3509 836 4129 
Q 1250 4750 2034 4750 
z
" transform="scale(0.015625)"/>
        </defs>
        <use xlink:href="#DejaVuSans-32" transform="translate(0 0.765625)"/>
        <use xlink:href="#DejaVuSans-31" transform="translate(64.580078 39.046875) scale(0.7)"/>
        <use xlink:href="#DejaVuSans-30" transform="translate(109.116211 39.046875) scale(0.7)"/>
       </g>
      </g>
     </g>
     <g id="xtick_6">
      <g id="line2d_9">
       <g>
        <use xlink:href="#ma966857009" x="276.423396" y="50.594687" style="stroke: #000000; stroke-width: 0.8"/>
       </g>
      </g>
      <g id="text_6">
       <!-- $\mathdefault{2^{12}}$ -->
       <g transform="translate(268.573396 41.515) scale(0.1 -0.1)">
        <use xlink:href="#DejaVuSans-32" transform="translate(0 0.765625)"/>
        <use xlink:href="#DejaVuSans-31" transform="translate(64.580078 39.046875) scale(0.7)"/>
        <use xlink:href="#DejaVuSans-32" transform="translate(109.116211 39.046875) scale(0.7)"/>
       </g>
      </g>
     </g>
     <g id="xtick_7">
      <g id="line2d_10">
       <g>
        <use xlink:href="#ma966857009" x="321.214012" y="50.594687" style="stroke: #000000; stroke-width: 0.8"/>
       </g>
      </g>
      <g id="text_7">
       <!-- $\mathdefault{2^{14}}$ -->
       <g transform="translate(313.364012 41.515) scale(0.1 -0.1)">
        <use xlink:href="#DejaVuSans-32" transform="translate(0 0.684375)"/>
        <use xlink:href="#DejaVuSans-31" transform="translate(64.580078 38.965625) scale(0.7)"/>
        <use xlink:href="#DejaVuSans-34" transform="translate(109.116211 38.965625) scale(0.7)"/>
       </g>
      </g>
     </g>
     <g id="xtick_8">
      <g id="line2d_11">
       <g>
        <use xlink:href="#ma966857009" x="366.004627" y="50.594687" style="stroke: #000000; stroke-width: 0.8"/>
       </g>
      </g>
      <g id="text_8">
       <!-- $\mathdefault{2^{16}}$ -->
       <g transform="translate(358.154627 41.515) scale(0.1 -0.1)">
        <use xlink:href="#DejaVuSans-32" transform="translate(0 0.765625)"/>
        <use xlink:href="#DejaVuSans-31" transform="translate(64.580078 39.046875) scale(0.7)"/>
        <use xlink:href="#DejaVuSans-36" transform="translate(109.116211 39.046875) scale(0.7)"/>
       </g>
      </g>
     </g>
     <g id="xtick_9">
      <g id="line2d_12">
       <g>
        <use xlink:href="#ma966857009" x="410.795243" y="50.594687" style="stroke: #000000; stroke-width: 0.8"/>
       </g>
      </g>
      <g id="text_9">
       <!-- $\mathdefault{2^{18}}$ -->
       <g transform="translate(402.945243 41.515) scale(0.1 -0.1)">
        <use xlink:href="#DejaVuSans-32" transform="translate(0 0.765625)"/>
        <use xlink:href="#DejaVuSans-31" transform="translate(64.580078 39.046875) scale(0.7)"/>
        <use xlink:href="#DejaVuSans-38" transform="translate(109.116211 39.046875) scale(0.7)"/>
       </g>
      </g>
     </g>
     <g id="xtick_10">
      <g id="line2d_13">
       <g>
        <use xlink:href="#ma966857009" x="455.585859" y="50.594687" style="stroke: #000000; stroke-width: 0.8"/>
       </g>
      </g>
      <g id="text_10">
       <!-- $\mathdefault{2^{20}}$ -->
       <g transform="translate(447.735859 41.515) scale(0.1 -0.1)">
        <use xlink:href="#DejaVuSans-32" transform="translate(0 0.765625)"/>
        <use xlink:href="#DejaVuSans-32" transform="translate(64.580078 39.046875) scale(0.7)"/>
        <use xlink:href="#DejaVuSans-30" transform="translate(109.116211 39.046875) scale(0.7)"/>
       </g>
      </g>
     </g>
     <g id="xtick_11">
      <g id="line2d_14">
       <g>
        <use xlink:href="#ma966857009" x="500.376474" y="50.594687" style="stroke: #000000; stroke-width: 0.8"/>
       </g>
      </g>
      <g id="text_11">
       <!-- $\mathdefault{2^{22}}$ -->
       <g transform="translate(492.526474 41.515) scale(0.1 -0.1)">
        <use xlink:href="#DejaVuSans-32" transform="translate(0 0.765625)"/>
        <use xlink:href="#DejaVuSans-32" transform="translate(64.580078 39.046875) scale(0.7)"/>
        <use xlink:href="#DejaVuSans-32" transform="translate(109.116211 39.046875) scale(0.7)"/>
       </g>
      </g>
     </g>
     <g id="xtick_12">
      <g id="line2d_15">
       <g>
        <use xlink:href="#ma966857009" x="545.16709" y="50.594687" style="stroke: #000000; stroke-width: 0.8"/>
       </g>
      </g>
      <g id="text_12">
       <!-- $\mathdefault{2^{24}}$ -->
       <g transform="translate(537.31709 41.515) scale(0.1 -0.1)">
        <use xlink:href="#DejaVuSans-32" transform="translate(0 0.765625)"/>
        <use xlink:href="#DejaVuSans-32" transform="translate(64.580078 39.046875) scale(0.7)"/>
        <use xlink:href="#DejaVuSans-34" transform="translate(109.116211 39.046875) scale(0.7)"/>
       </g>
      </g>
     </g>
     <g id="xtick_13">
      <g id="line2d_16">
       <g>
        <use xlink:href="#ma966857009" x="589.957706" y="50.594687" style="stroke: #000000; stroke-width: 0.8"/>
       </g>
      </g>
      <g id="text_13">
       <!-- $\mathdefault{2^{26}}$ -->
       <g transform="translate(582.107706 41.515) scale(0.1 -0.1)">
        <use xlink:href="#DejaVuSans-32" transform="translate(0 0.765625)"/>
        <use xlink:href="#DejaVuSans-32" transform="translate(64.580078 39.046875) scale(0.7)"/>
        <use xlink:href="#DejaVuSans-36" transform="translate(109.116211 39.046875) scale(0.7)"/>
       </g>
      </g>
     </g>
     <g id="xtick_14">
      <g id="line2d_17">
       <g>
        <use xlink:href="#ma966857009" x="634.748322" y="50.594687" style="stroke: #000000; stroke-width: 0.8"/>
       </g>
      </g>
      <g id="text_14">
       <!-- $\mathdefault{2^{28}}$ -->
       <g transform="translate(626.898322 41.515) scale(0.1 -0.1)">
        <use xlink:href="#DejaVuSans-32" transform="translate(0 0.765625)"/>
        <use xlink:href="#DejaVuSans-32" transform="translate(64.580078 39.046875) scale(0.7)"/>
        <use xlink:href="#DejaVuSans-38" transform="translate(109.116211 39.046875) scale(0.7)"/>
       </g>
      </g>
     </g>
     <g id="text_15">
      <!-- Array length (u32) -->
      <g transform="translate(307.85 29.916562) scale(0.1 -0.1)">
       <defs>
        <path id="DejaVuSans-41" d="M 2188 4044 
L 1331 1722 
L 3047 1722 
L 2188 4044 
z
M 1831 4666 
L 2547 4666 
L 4325 0 
L 3669 0 
L 3244 1197 
L 1141 1197 
L 716 0 
L 50 0 
L 1831 4666 
z
" transform="scale(0.015625)"/>
        <path id="DejaVuSans-72" d="M 2631 2963 
Q 2534 3019 2420 3045 
Q 2306 3072 2169 3072 
Q 1681 3072 1420 2755 
Q 1159 2438 1159 1844 
L 1159 0 
L 581 0 
L 581 3500 
L 1159 3500 
L 1159 2956 
Q 1341 3275 1631 3429 
Q 1922 3584 2338 3584 
Q 2397 3584 2469 3576 
Q 2541 3569 2628 3553 
L 2631 2963 
z
" transform="scale(0.015625)"/>
        <path id="DejaVuSans-61" d="M 2194 1759 
Q 1497 1759 1228 1600 
Q 959 1441 959 1056 
Q 959 750 1161 570 
Q 1363 391 1709 391 
Q 2188 391 2477 730 
Q 2766 1069 2766 1631 
L 2766 1759 
L 2194 1759 
z
M 3341 1997 
L 3341 0 
L 2766 0 
L 2766 531 
Q 2569 213 2275 61 
Q 1981 -91 1556 -91 
Q 1019 -91 701 211 
Q 384 513 384 1019 
Q 384 1609 779 1909 
Q 1175 2209 1959 2209 
L 2766 2209 
L 2766 2266 
Q 2766 2663 2505 2880 
Q 2244 3097 1772 3097 
Q 1472 3097 1187 3025 
Q 903 2953 641 2809 
L 641 3341 
Q 956 3463 1253 3523 
Q 1550 3584 1831 3584 
Q 2591 3584 2966 3190 
Q 3341 2797 3341 1997 
z
" transform="scale(0.015625)"/>
        <path id="DejaVuSans-79" d="M 2059 -325 
Q 1816 -950 1584 -1140 
Q 1353 -1331 966 -1331 
L 506 -1331 
L 506 -850 
L 844 -850 
Q 1081 -850 1212 -737 
Q 1344 -625 1503 -206 
L 1606 56 
L 191 3500 
L 800 3500 
L 1894 763 
L 2988 3500 
L 3597 3500 
L 2059 -325 
z
" transform="scale(0.015625)"/>
        <path id="DejaVuSans-20" transform="scale(0.015625)"/>
        <path id="DejaVuSans-6c" d="M 603 4863 
L 1178 4863 
L 1178 0 
L 603 0 
L 603 4863 
z
" transform="scale(0.015625)"/>
        <path id="DejaVuSans-65" d="M 3597 1894 
L 3597 1613 
L 953 1613 
Q 991 1019 1311 708 
Q 1631 397 2203 397 
Q 2534 397 2845 478 
Q 3156 559 3463 722 
L 3463 178 
Q 3153 47 2828 -22 
Q 2503 -91 2169 -91 
Q 1331 -91 842 396 
Q 353 884 353 1716 
Q 353 2575 817 3079 
Q 1281 3584 2069 3584 
Q 2775 3584 3186 3129 
Q 3597 2675 3597 1894 
z
M 3022 2063 
Q 3016 2534 2758 2815 
Q 2500 3097 2075 3097 
Q 1594 3097 1305 2825 
Q 1016 2553 972 2059 
L 3022 2063 
z
" transform="scale(0.015625)"/>
        <path id="DejaVuSans-6e" d="M 3513 2113 
L 3513 0 
L 2938 0 
L 2938 2094 
Q 2938 2591 2744 2837 
Q 2550 3084 2163 3084 
Q 1697 3084 1428 2787 
Q 1159 2491 1159 1978 
L 1159 0 
L 581 0 
L 581 3500 
L 1159 3500 
L 1159 2956 
Q 1366 3272 1645 3428 
Q 1925 3584 2291 3584 
Q 2894 3584 3203 3211 
Q 3513 2838 3513 2113 
z
" transform="scale(0.015625)"/>
        <path id="DejaVuSans-67" d="M 2906 1791 
Q 2906 2416 2648 2759 
Q 2391 3103 1925 3103 
Q 1463 3103 1205 2759 
Q 947 2416 947 1791 
Q 947 1169 1205 825 
Q 1463 481 1925 481 
Q 2391 481 2648 825 
Q 2906 1169 2906 1791 
z
M 3481 434 
Q 3481 -459 3084 -895 
Q 2688 -1331 1869 -1331 
Q 1566 -1331 1297 -1286 
Q 1028 -1241 775 -1147 
L 775 -588 
Q 1028 -725 1275 -790 
Q 1522 -856 1778 -856 
Q 2344 -856 2625 -561 
Q 2906 -266 2906 331 
L 2906 616 
Q 2728 306 2450 153 
Q 2172 0 1784 0 
Q 1141 0 747 490 
Q 353 981 353 1791 
Q 353 2603 747 3093 
Q 1141 3584 1784 3584 
Q 2172 3584 2450 3431 
Q 2728 3278 2906 2969 
L 2906 3500 
L 3481 3500 
L 3481 434 
z
" transform="scale(0.015625)"/>
        <path id="DejaVuSans-74" d="M 1172 4494 
L 1172 3500 
L 2356 3500 
L 2356 3053 
L 1172 3053 
L 1172 1153 
Q 1172 725 1289 603 
Q 1406 481 1766 481 
L 2356 481 
L 2356 0 
L 1766 0 
Q 1100 0 847 248 
Q 594 497 594 1153 
L 594 3053 
L 172 3053 
L 172 3500 
L 594 3500 
L 594 4494 
L 1172 4494 
z
" transform="scale(0.015625)"/>
        <path id="DejaVuSans-68" d="M 3513 2113 
L 3513 0 
L 2938 0 
L 2938 2094 
Q 2938 2591 2744 2837 
Q 2550 3084 2163 3084 
Q 1697 3084 1428 2787 
Q 1159 2491 1159 1978 
L 1159 0 
L 581 0 
L 581 4863 
L 1159 4863 
L 1159 2956 
Q 1366 3272 1645 3428 
Q 1925 3584 2291 3584 
Q 2894 3584 3203 3211 
Q 3513 2838 3513 2113 
z
" transform="scale(0.015625)"/>
        <path id="DejaVuSans-28" d="M 1984 4856 
Q 1566 4138 1362 3434 
Q 1159 2731 1159 2009 
Q 1159 1288 1364 580 
Q 1569 -128 1984 -844 
L 1484 -844 
Q 1016 -109 783 600 
Q 550 1309 550 2009 
Q 550 2706 781 3412 
Q 1013 4119 1484 4856 
L 1984 4856 
z
" transform="scale(0.015625)"/>
        <path id="DejaVuSans-75" d="M 544 1381 
L 544 3500 
L 1119 3500 
L 1119 1403 
Q 1119 906 1312 657 
Q 1506 409 1894 409 
Q 2359 409 2629 706 
Q 2900 1003 2900 1516 
L 2900 3500 
L 3475 3500 
L 3475 0 
L 2900 0 
L 2900 538 
Q 2691 219 2414 64 
Q 2138 -91 1772 -91 
Q 1169 -91 856 284 
Q 544 659 544 1381 
z
M 1991 3584 
L 1991 3584 
z
" transform="scale(0.015625)"/>
        <path id="DejaVuSans-33" d="M 2597 2516 
Q 3050 2419 3304 2112 
Q 3559 1806 3559 1356 
Q 3559 666 3084 287 
Q 2609 -91 1734 -91 
Q 1441 -91 1130 -33 
Q 819 25 488 141 
L 488 750 
Q 750 597 1062 519 
Q 1375 441 1716 441 
Q 2309 441 2620 675 
Q 2931 909 2931 1356 
Q 2931 1769 2642 2001 
Q 2353 2234 1838 2234 
L 1294 2234 
L 1294 2753 
L 1863 2753 
Q 2328 2753 2575 2939 
Q 2822 3125 2822 3475 
Q 2822 3834 2567 4026 
Q 2313 4219 1838 4219 
Q 1578 4219 1281 4162 
Q 984 4106 628 3988 
L 628 4550 
Q 988 4650 1302 4700 
Q 1616 4750 1894 4750 
Q 2613 4750 3031 4423 
Q 3450 4097 3450 3541 
Q 3450 3153 3228 2886 
Q 3006 2619 2597 2516 
z
" transform="scale(0.015625)"/>
        <path id="DejaVuSans-29" d="M 513 4856 
L 1013 4856 
Q 1481 4119 1714 3412 
Q 1947 2706 1947 2009 
Q 1947 1309 1714 600 
Q 1481 -109 1013 -844 
L 513 -844 
Q 928 -128 1133 580 
Q 1338 1288 1338 2009 
Q 1338 2731 1133 3434 
Q 928 4138 513 4856 
z
" transform="scale(0.015625)"/>
       </defs>
       <use xlink:href="#DejaVuSans-41"/>
       <use xlink:href="#DejaVuSans-72" x="68.408203"/>
       <use xlink:href="#DejaVuSans-72" x="107.771484"/>
       <use xlink:href="#DejaVuSans-61" x="148.884766"/>
       <use xlink:href="#DejaVuSans-79" x="210.164062"/>
       <use xlink:href="#DejaVuSans-20" x="269.34375"/>
       <use xlink:href="#DejaVuSans-6c" x="301.130859"/>
       <use xlink:href="#DejaVuSans-65" x="328.914062"/>
       <use xlink:href="#DejaVuSans-6e" x="390.4375"/>
       <use xlink:href="#DejaVuSans-67" x="453.816406"/>
       <use xlink:href="#DejaVuSans-74" x="517.292969"/>
       <use xlink:href="#DejaVuSans-68" x="556.501953"/>
       <use xlink:href="#DejaVuSans-20" x="619.880859"/>
       <use xlink:href="#DejaVuSans-28" x="651.667969"/>
       <use xlink:href="#DejaVuSans-75" x="690.681641"/>
       <use xlink:href="#DejaVuSans-33" x="754.060547"/>
       <use xlink:href="#DejaVuSans-32" x="817.683594"/>
       <use xlink:href="#DejaVuSans-29" x="881.306641"/>
      </g>
     </g>
    </g>
    <g id="matplotlib.axis_2"/>
    <g id="patch_4">
     <path d="M 46.965625 50.594687 
L 660.765625 50.594687 
" style="fill: none; stroke: #000000; stroke-width: 0.8; stroke-linejoin: miter; stroke-linecap: square"/>
    </g>
   </g>
   <g id="matplotlib.axis_3">
    <g id="xtick_15">
     <g id="line2d_18">
      <path d="M 52.470317 494.114688 
L 52.470317 50.594688 
" clip-path="url(#pdb29454f14)" style="fill: none; stroke: #b0b0b0; stroke-opacity: 0.4; stroke-width: 0.8; stroke-linecap: square"/>
     </g>
     <g id="line2d_19">
      <defs>
       <path id="m380743d139" d="M 0 0 
L 0 3.5 
" style="stroke: #000000; stroke-width: 0.8"/>
      </defs>
      <g>
       <use xlink:href="#m380743d139" x="52.470317" y="494.114688" style="stroke: #000000; stroke-width: 0.8"/>
      </g>
     </g>
     <g id="text_16">
      <!-- $\mathdefault{2^{4}}$ -->
      <g transform="translate(46.870317 508.713125) scale(0.1 -0.1)">
       <use xlink:href="#DejaVuSans-32" transform="translate(0 0.684375)"/>
       <use xlink:href="#DejaVuSans-34" transform="translate(64.580078 38.965625) scale(0.7)"/>
      </g>
     </g>
    </g>
    <g id="xtick_16">
     <g id="line2d_20">
      <path d="M 97.260933 494.114688 
L 97.260933 50.594688 
" clip-path="url(#pdb29454f14)" style="fill: none; stroke: #b0b0b0; stroke-opacity: 0.4; stroke-width: 0.8; stroke-linecap: square"/>
     </g>
     <g id="line2d_21">
      <g>
       <use xlink:href="#m380743d139" x="97.260933" y="494.114688" style="stroke: #000000; stroke-width: 0.8"/>
      </g>
     </g>
     <g id="text_17">
      <!-- $\mathdefault{2^{6}}$ -->
      <g transform="translate(91.660933 508.713125) scale(0.1 -0.1)">
       <use xlink:href="#DejaVuSans-32" transform="translate(0 0.765625)"/>
       <use xlink:href="#DejaVuSans-36" transform="translate(64.580078 39.046875) scale(0.7)"/>
      </g>
     </g>
    </g>
    <g id="xtick_17">
     <g id="line2d_22">
      <path d="M 142.051549 494.114688 
L 142.051549 50.594688 
" clip-path="url(#pdb29454f14)" style="fill: none; stroke: #b0b0b0; stroke-opacity: 0.4; stroke-width: 0.8; stroke-linecap: square"/>
     </g>
     <g id="line2d_23">
      <g>
       <use xlink:href="#m380743d139" x="142.051549" y="494.114688" style="stroke: #000000; stroke-width: 0.8"/>
      </g>
     </g>
     <g id="text_18">
      <!-- $\mathdefault{2^{8}}$ -->
      <g transform="translate(136.451549 508.713125) scale(0.1 -0.1)">
       <use xlink:href="#DejaVuSans-32" transform="translate(0 0.765625)"/>
       <use xlink:href="#DejaVuSans-38" transform="translate(64.580078 39.046875) scale(0.7)"/>
      </g>
     </g>
    </g>
    <g id="xtick_18">
     <g id="line2d_24">
      <path d="M 186.842164 494.114688 
L 186.842164 50.594688 
" clip-path="url(#pdb29454f14)" style="fill: none; stroke: #b0b0b0; stroke-opacity: 0.4; stroke-width: 0.8; stroke-linecap: square"/>
     </g>
     <g id="line2d_25">
      <g>
       <use xlink:href="#m380743d139" x="186.842164" y="494.114688" style="stroke: #000000; stroke-width: 0.8"/>
      </g>
     </g>
     <g id="text_19">
      <!-- $\mathdefault{2^{10}}$ -->
      <g transform="translate(178.992164 508.713125) scale(0.1 -0.1)">
       <use xlink:href="#DejaVuSans-32" transform="translate(0 0.765625)"/>
       <use xlink:href="#DejaVuSans-31" transform="translate(64.580078 39.046875) scale(0.7)"/>
       <use xlink:href="#DejaVuSans-30" transform="translate(109.116211 39.046875) scale(0.7)"/>
      </g>
     </g>
    </g>
    <g id="xtick_19">
     <g id="line2d_26">
      <path d="M 231.63278 494.114688 
L 231.63278 50.594688 
" clip-path="url(#pdb29454f14)" style="fill: none; stroke: #b0b0b0; stroke-opacity: 0.4; stroke-width: 0.8; stroke-linecap: square"/>
     </g>
     <g id="line2d_27">
      <g>
       <use xlink:href="#m380743d139" x="231.63278" y="494.114688" style="stroke: #000000; stroke-width: 0.8"/>
      </g>
     </g>
     <g id="text_20">
      <!-- $\mathdefault{2^{12}}$ -->
      <g transform="translate(223.78278 508.713125) scale(0.1 -0.1)">
       <use xlink:href="#DejaVuSans-32" transform="translate(0 0.765625)"/>
       <use xlink:href="#DejaVuSans-31" transform="translate(64.580078 39.046875) scale(0.7)"/>
       <use xlink:href="#DejaVuSans-32" transform="translate(109.116211 39.046875) scale(0.7)"/>
      </g>
     </g>
    </g>
    <g id="xtick_20">
     <g id="line2d_28">
      <path d="M 276.423396 494.114688 
L 276.423396 50.594688 
" clip-path="url(#pdb29454f14)" style="fill: none; stroke: #b0b0b0; stroke-opacity: 0.4; stroke-width: 0.8; stroke-linecap: square"/>
     </g>
     <g id="line2d_29">
      <g>
       <use xlink:href="#m380743d139" x="276.423396" y="494.114688" style="stroke: #000000; stroke-width: 0.8"/>
      </g>
     </g>
     <g id="text_21">
      <!-- $\mathdefault{2^{14}}$ -->
      <g transform="translate(268.573396 508.713125) scale(0.1 -0.1)">
       <use xlink:href="#DejaVuSans-32" transform="translate(0 0.684375)"/>
       <use xlink:href="#DejaVuSans-31" transform="translate(64.580078 38.965625) scale(0.7)"/>
       <use xlink:href="#DejaVuSans-34" transform="translate(109.116211 38.965625) scale(0.7)"/>
      </g>
     </g>
    </g>
    <g id="xtick_21">
     <g id="line2d_30">
      <path d="M 321.214012 494.114688 
L 321.214012 50.594688 
" clip-path="url(#pdb29454f14)" style="fill: none; stroke: #b0b0b0; stroke-opacity: 0.4; stroke-width: 0.8; stroke-linecap: square"/>
     </g>
     <g id="line2d_31">
      <g>
       <use xlink:href="#m380743d139" x="321.214012" y="494.114688" style="stroke: #000000; stroke-width: 0.8"/>
      </g>
     </g>
     <g id="text_22">
      <!-- $\mathdefault{2^{16}}$ -->
      <g transform="translate(313.364012 508.713125) scale(0.1 -0.1)">
       <use xlink:href="#DejaVuSans-32" transform="translate(0 0.765625)"/>
       <use xlink:href="#DejaVuSans-31" transform="translate(64.580078 39.046875) scale(0.7)"/>
       <use xlink:href="#DejaVuSans-36" transform="translate(109.116211 39.046875) scale(0.7)"/>
      </g>
     </g>
    </g>
    <g id="xtick_22">
     <g id="line2d_32">
      <path d="M 366.004627 494.114688 
L 366.004627 50.594688 
" clip-path="url(#pdb29454f14)" style="fill: none; stroke: #b0b0b0; stroke-opacity: 0.4; stroke-width: 0.8; stroke-linecap: square"/>
     </g>
     <g id="line2d_33">
      <g>
       <use xlink:href="#m380743d139" x="366.004627" y="494.114688" style="stroke: #000000; stroke-width: 0.8"/>
      </g>
     </g>
     <g id="text_23">
      <!-- $\mathdefault{2^{18}}$ -->
      <g transform="translate(358.154627 508.713125) scale(0.1 -0.1)">
       <use xlink:href="#DejaVuSans-32" transform="translate(0 0.765625)"/>
       <use xlink:href="#DejaVuSans-31" transform="translate(64.580078 39.046875) scale(0.7)"/>
       <use xlink:href="#DejaVuSans-38" transform="translate(109.116211 39.046875) scale(0.7)"/>
      </g>
     </g>
    </g>
    <g id="xtick_23">
     <g id="line2d_34">
      <path d="M 410.795243 494.114688 
L 410.795243 50.594688 
" clip-path="url(#pdb29454f14)" style="fill: none; stroke: #b0b0b0; stroke-opacity: 0.4; stroke-width: 0.8; stroke-linecap: square"/>
     </g>
     <g id="line2d_35">
      <g>
       <use xlink:href="#m380743d139" x="410.795243" y="494.114688" style="stroke: #000000; stroke-width: 0.8"/>
      </g>
     </g>
     <g id="text_24">
      <!-- $\mathdefault{2^{20}}$ -->
      <g transform="translate(402.945243 508.713125) scale(0.1 -0.1)">
       <use xlink:href="#DejaVuSans-32" transform="translate(0 0.765625)"/>
       <use xlink:href="#DejaVuSans-32" transform="translate(64.580078 39.046875) scale(0.7)"/>
       <use xlink:href="#DejaVuSans-30" transform="translate(109.116211 39.046875) scale(0.7)"/>
      </g>
     </g>
    </g>
    <g id="xtick_24">
     <g id="line2d_36">
      <path d="M 455.585859 494.114688 
L 455.585859 50.594688 
" clip-path="url(#pdb29454f14)" style="fill: none; stroke: #b0b0b0; stroke-opacity: 0.4; stroke-width: 0.8; stroke-linecap: square"/>
     </g>
     <g id="line2d_37">
      <g>
       <use xlink:href="#m380743d139" x="455.585859" y="494.114688" style="stroke: #000000; stroke-width: 0.8"/>
      </g>
     </g>
     <g id="text_25">
      <!-- $\mathdefault{2^{22}}$ -->
      <g transform="translate(447.735859 508.713125) scale(0.1 -0.1)">
       <use xlink:href="#DejaVuSans-32" transform="translate(0 0.765625)"/>
       <use xlink:href="#DejaVuSans-32" transform="translate(64.580078 39.046875) scale(0.7)"/>
       <use xlink:href="#DejaVuSans-32" transform="translate(109.116211 39.046875) scale(0.7)"/>
      </g>
     </g>
    </g>
    <g id="xtick_25">
     <g id="line2d_38">
      <path d="M 500.376474 494.114688 
L 500.376474 50.594688 
" clip-path="url(#pdb29454f14)" style="fill: none; stroke: #b0b0b0; stroke-opacity: 0.4; stroke-width: 0.8; stroke-linecap: square"/>
     </g>
     <g id="line2d_39">
      <g>
       <use xlink:href="#m380743d139" x="500.376474" y="494.114688" style="stroke: #000000; stroke-width: 0.8"/>
      </g>
     </g>
     <g id="text_26">
      <!-- $\mathdefault{2^{24}}$ -->
      <g transform="translate(492.526474 508.713125) scale(0.1 -0.1)">
       <use xlink:href="#DejaVuSans-32" transform="translate(0 0.765625)"/>
       <use xlink:href="#DejaVuSans-32" transform="translate(64.580078 39.046875) scale(0.7)"/>
       <use xlink:href="#DejaVuSans-34" transform="translate(109.116211 39.046875) scale(0.7)"/>
      </g>
     </g>
    </g>
    <g id="xtick_26">
     <g id="line2d_40">
      <path d="M 545.16709 494.114688 
L 545.16709 50.594688 
" clip-path="url(#pdb29454f14)" style="fill: none; stroke: #b0b0b0; stroke-opacity: 0.4; stroke-width: 0.8; stroke-linecap: square"/>
     </g>
     <g id="line2d_41">
      <g>
       <use xlink:href="#m380743d139" x="545.16709" y="494.114688" style="stroke: #000000; stroke-width: 0.8"/>
      </g>
     </g>
     <g id="text_27">
      <!-- $\mathdefault{2^{26}}$ -->
      <g transform="translate(537.31709 508.713125) scale(0.1 -0.1)">
       <use xlink:href="#DejaVuSans-32" transform="translate(0 0.765625)"/>
       <use xlink:href="#DejaVuSans-32" transform="translate(64.580078 39.046875) scale(0.7)"/>
       <use xlink:href="#DejaVuSans-36" transform="translate(109.116211 39.046875) scale(0.7)"/>
      </g>
     </g>
    </g>
    <g id="xtick_27">
     <g id="line2d_42">
      <path d="M 589.957706 494.114688 
L 589.957706 50.594688 
" clip-path="url(#pdb29454f14)" style="fill: none; stroke: #b0b0b0; stroke-opacity: 0.4; stroke-width: 0.8; stroke-linecap: square"/>
     </g>
     <g id="line2d_43">
      <g>
       <use xlink:href="#m380743d139" x="589.957706" y="494.114688" style="stroke: #000000; stroke-width: 0.8"/>
      </g>
     </g>
     <g id="text_28">
      <!-- $\mathdefault{2^{28}}$ -->
      <g transform="translate(582.107706 508.713125) scale(0.1 -0.1)">
       <use xlink:href="#DejaVuSans-32" transform="translate(0 0.765625)"/>
       <use xlink:href="#DejaVuSans-32" transform="translate(64.580078 39.046875) scale(0.7)"/>
       <use xlink:href="#DejaVuSans-38" transform="translate(109.116211 39.046875) scale(0.7)"/>
      </g>
     </g>
    </g>
    <g id="xtick_28">
     <g id="line2d_44">
      <path d="M 634.748322 494.114688 
L 634.748322 50.594688 
" clip-path="url(#pdb29454f14)" style="fill: none; stroke: #b0b0b0; stroke-opacity: 0.4; stroke-width: 0.8; stroke-linecap: square"/>
     </g>
     <g id="line2d_45">
      <g>
       <use xlink:href="#m380743d139" x="634.748322" y="494.114688" style="stroke: #000000; stroke-width: 0.8"/>
      </g>
     </g>
     <g id="text_29">
      <!-- $\mathdefault{2^{30}}$ -->
      <g transform="translate(626.898322 508.713125) scale(0.1 -0.1)">
       <use xlink:href="#DejaVuSans-32" transform="translate(0 0.765625)"/>
       <use xlink:href="#DejaVuSans-33" transform="translate(64.580078 39.046875) scale(0.7)"/>
       <use xlink:href="#DejaVuSans-30" transform="translate(109.116211 39.046875) scale(0.7)"/>
      </g>
     </g>
    </g>
    <g id="text_30">
     <!-- Input size (bytes) -->
     <g transform="translate(310.369531 522.39125) scale(0.1 -0.1)">
      <defs>
       <path id="DejaVuSans-49" d="M 628 4666 
L 1259 4666 
L 1259 0 
L 628 0 
L 628 4666 
z
" transform="scale(0.015625)"/>
       <path id="DejaVuSans-70" d="M 1159 525 
L 1159 -1331 
L 581 -1331 
L 581 3500 
L 1159 3500 
L 1159 2969 
Q 1341 3281 1617 3432 
Q 1894 3584 2278 3584 
Q 2916 3584 3314 3078 
Q 3713 2572 3713 1747 
Q 3713 922 3314 415 
Q 2916 -91 2278 -91 
Q 1894 -91 1617 61 
Q 1341 213 1159 525 
z
M 3116 1747 
Q 3116 2381 2855 2742 
Q 2594 3103 2138 3103 
Q 1681 3103 1420 2742 
Q 1159 2381 1159 1747 
Q 1159 1113 1420 752 
Q 1681 391 2138 391 
Q 2594 391 2855 752 
Q 3116 1113 3116 1747 
z
" transform="scale(0.015625)"/>
       <path id="DejaVuSans-73" d="M 2834 3397 
L 2834 2853 
Q 2591 2978 2328 3040 
Q 2066 3103 1784 3103 
Q 1356 3103 1142 2972 
Q 928 2841 928 2578 
Q 928 2378 1081 2264 
Q 1234 2150 1697 2047 
L 1894 2003 
Q 2506 1872 2764 1633 
Q 3022 1394 3022 966 
Q 3022 478 2636 193 
Q 2250 -91 1575 -91 
Q 1294 -91 989 -36 
Q 684 19 347 128 
L 347 722 
Q 666 556 975 473 
Q 1284 391 1588 391 
Q 1994 391 2212 530 
Q 2431 669 2431 922 
Q 2431 1156 2273 1281 
Q 2116 1406 1581 1522 
L 1381 1569 
Q 847 1681 609 1914 
Q 372 2147 372 2553 
Q 372 3047 722 3315 
Q 1072 3584 1716 3584 
Q 2034 3584 2315 3537 
Q 2597 3491 2834 3397 
z
" transform="scale(0.015625)"/>
       <path id="DejaVuSans-69" d="M 603 3500 
L 1178 3500 
L 1178 0 
L 603 0 
L 603 3500 
z
M 603 4863 
L 1178 4863 
L 1178 4134 
L 603 4134 
L 603 4863 
z
" transform="scale(0.015625)"/>
       <path id="DejaVuSans-7a" d="M 353 3500 
L 3084 3500 
L 3084 2975 
L 922 459 
L 3084 459 
L 3084 0 
L 275 0 
L 275 525 
L 2438 3041 
L 353 3041 
L 353 3500 
z
" transform="scale(0.015625)"/>
       <path id="DejaVuSans-62" d="M 3116 1747 
Q 3116 2381 2855 2742 
Q 2594 3103 2138 3103 
Q 1681 3103 1420 2742 
Q 1159 2381 1159 1747 
Q 1159 1113 1420 752 
Q 1681 391 2138 391 
Q 2594 391 2855 752 
Q 3116 1113 3116 1747 
z
M 1159 2969 
Q 1341 3281 1617 3432 
Q 1894 3584 2278 3584 
Q 2916 3584 3314 3078 
Q 3713 2572 3713 1747 
Q 3713 922 3314 415 
Q 2916 -91 2278 -91 
Q 1894 -91 1617 61 
Q 1341 213 1159 525 
L 1159 0 
L 581 0 
L 581 4863 
L 1159 4863 
L 1159 2969 
z
" transform="scale(0.015625)"/>
      </defs>
      <use xlink:href="#DejaVuSans-49"/>
      <use xlink:href="#DejaVuSans-6e" x="29.492188"/>
      <use xlink:href="#DejaVuSans-70" x="92.871094"/>
      <use xlink:href="#DejaVuSans-75" x="156.347656"/>
      <use xlink:href="#DejaVuSans-74" x="219.726562"/>
      <use xlink:href="#DejaVuSans-20" x="258.935547"/>
      <use xlink:href="#DejaVuSans-73" x="290.722656"/>
      <use xlink:href="#DejaVuSans-69" x="342.822266"/>
      <use xlink:href="#DejaVuSans-7a" x="370.605469"/>
      <use xlink:href="#DejaVuSans-65" x="423.095703"/>
      <use xlink:href="#DejaVuSans-20" x="484.619141"/>
      <use xlink:href="#DejaVuSans-28" x="516.40625"/>
      <use xlink:href="#DejaVuSans-62" x="555.419922"/>
      <use xlink:href="#DejaVuSans-79" x="618.896484"/>
      <use xlink:href="#DejaVuSans-74" x="678.076172"/>
      <use xlink:href="#DejaVuSans-65" x="717.285156"/>
      <use xlink:href="#DejaVuSans-73" x="778.808594"/>
      <use xlink:href="#DejaVuSans-29" x="830.908203"/>
     </g>
    </g>
   </g>
   <g id="matplotlib.axis_4">
    <g id="ytick_1">
     <g id="line2d_46">
      <path d="M 46.965625 494.114688 
L 660.765625 494.114688 
" clip-path="url(#pdb29454f14)" style="fill: none; stroke: #b0b0b0; stroke-opacity: 0.4; stroke-width: 0.8; stroke-linecap: square"/>
     </g>
     <g id="line2d_47">
      <defs>
       <path id="m92ef366445" d="M 0 0 
L -3.5 0 
" style="stroke: #000000; stroke-width: 0.8"/>
      </defs>
      <g>
       <use xlink:href="#m92ef366445" x="46.965625" y="494.114688" style="stroke: #000000; stroke-width: 0.8"/>
      </g>
     </g>
     <g id="text_31">
      <!-- 0 -->
      <g transform="translate(33.603125 497.913906) scale(0.1 -0.1)">
       <use xlink:href="#DejaVuSans-30"/>
      </g>
     </g>
    </g>
    <g id="ytick_2">
     <g id="line2d_48">
      <path d="M 46.965625 405.410688 
L 660.765625 405.410688 
" clip-path="url(#pdb29454f14)" style="fill: none; stroke: #b0b0b0; stroke-opacity: 0.4; stroke-width: 0.8; stroke-linecap: square"/>
     </g>
     <g id="line2d_49">
      <g>
       <use xlink:href="#m92ef366445" x="46.965625" y="405.410688" style="stroke: #000000; stroke-width: 0.8"/>
      </g>
     </g>
     <g id="text_32">
      <!-- 100 -->
      <g transform="translate(20.878125 409.209906) scale(0.1 -0.1)">
       <use xlink:href="#DejaVuSans-31"/>
       <use xlink:href="#DejaVuSans-30" x="63.623047"/>
       <use xlink:href="#DejaVuSans-30" x="127.246094"/>
      </g>
     </g>
    </g>
    <g id="ytick_3">
     <g id="line2d_50">
      <path d="M 46.965625 316.706688 
L 660.765625 316.706688 
" clip-path="url(#pdb29454f14)" style="fill: none; stroke: #b0b0b0; stroke-opacity: 0.4; stroke-width: 0.8; stroke-linecap: square"/>
     </g>
     <g id="line2d_51">
      <g>
       <use xlink:href="#m92ef366445" x="46.965625" y="316.706688" style="stroke: #000000; stroke-width: 0.8"/>
      </g>
     </g>
     <g id="text_33">
      <!-- 200 -->
      <g transform="translate(20.878125 320.505906) scale(0.1 -0.1)">
       <use xlink:href="#DejaVuSans-32"/>
       <use xlink:href="#DejaVuSans-30" x="63.623047"/>
       <use xlink:href="#DejaVuSans-30" x="127.246094"/>
      </g>
     </g>
    </g>
    <g id="ytick_4">
     <g id="line2d_52">
      <path d="M 46.965625 228.002688 
L 660.765625 228.002688 
" clip-path="url(#pdb29454f14)" style="fill: none; stroke: #b0b0b0; stroke-opacity: 0.4; stroke-width: 0.8; stroke-linecap: square"/>
     </g>
     <g id="line2d_53">
      <g>
       <use xlink:href="#m92ef366445" x="46.965625" y="228.002688" style="stroke: #000000; stroke-width: 0.8"/>
      </g>
     </g>
     <g id="text_34">
      <!-- 300 -->
      <g transform="translate(20.878125 231.801906) scale(0.1 -0.1)">
       <use xlink:href="#DejaVuSans-33"/>
       <use xlink:href="#DejaVuSans-30" x="63.623047"/>
       <use xlink:href="#DejaVuSans-30" x="127.246094"/>
      </g>
     </g>
    </g>
    <g id="ytick_5">
     <g id="line2d_54">
      <path d="M 46.965625 139.298688 
L 660.765625 139.298688 
" clip-path="url(#pdb29454f14)" style="fill: none; stroke: #b0b0b0; stroke-opacity: 0.4; stroke-width: 0.8; stroke-linecap: square"/>
     </g>
     <g id="line2d_55">
      <g>
       <use xlink:href="#m92ef366445" x="46.965625" y="139.298688" style="stroke: #000000; stroke-width: 0.8"/>
      </g>
     </g>
     <g id="text_35">
      <!-- 400 -->
      <g transform="translate(20.878125 143.097906) scale(0.1 -0.1)">
       <use xlink:href="#DejaVuSans-34"/>
       <use xlink:href="#DejaVuSans-30" x="63.623047"/>
       <use xlink:href="#DejaVuSans-30" x="127.246094"/>
      </g>
     </g>
    </g>
    <g id="ytick_6">
     <g id="line2d_56">
      <path d="M 46.965625 50.594688 
L 660.765625 50.594688 
" clip-path="url(#pdb29454f14)" style="fill: none; stroke: #b0b0b0; stroke-opacity: 0.4; stroke-width: 0.8; stroke-linecap: square"/>
     </g>
     <g id="line2d_57">
      <g>
       <use xlink:href="#m92ef366445" x="46.965625" y="50.594688" style="stroke: #000000; stroke-width: 0.8"/>
      </g>
     </g>
     <g id="text_36">
      <!-- 500 -->
      <g transform="translate(20.878125 54.393906) scale(0.1 -0.1)">
       <defs>
        <path id="DejaVuSans-35" d="M 691 4666 
L 3169 4666 
L 3169 4134 
L 1269 4134 
L 1269 2991 
Q 1406 3038 1543 3061 
Q 1681 3084 1819 3084 
Q 2600 3084 3056 2656 
Q 3513 2228 3513 1497 
Q 3513 744 3044 326 
Q 2575 -91 1722 -91 
Q 1428 -91 1123 -41 
Q 819 9 494 109 
L 494 744 
Q 775 591 1075 516 
Q 1375 441 1709 441 
Q 2250 441 2565 725 
Q 2881 1009 2881 1497 
Q 2881 1984 2565 2268 
Q 2250 2553 1709 2553 
Q 1456 2553 1204 2497 
Q 953 2441 691 2322 
L 691 4666 
z
" transform="scale(0.015625)"/>
       </defs>
       <use xlink:href="#DejaVuSans-35"/>
       <use xlink:href="#DejaVuSans-30" x="63.623047"/>
       <use xlink:href="#DejaVuSans-30" x="127.246094"/>
      </g>
     </g>
    </g>
    <g id="text_37">
     <!-- Inverse throughput (ns) -->
     <g transform="translate(14.798438 331.570313) rotate(-90) scale(0.1 -0.1)">
      <defs>
       <path id="DejaVuSans-76" d="M 191 3500 
L 800 3500 
L 1894 563 
L 2988 3500 
L 3597 3500 
L 2284 0 
L 1503 0 
L 191 3500 
z
" transform="scale(0.015625)"/>
       <path id="DejaVuSans-6f" d="M 1959 3097 
Q 1497 3097 1228 2736 
Q 959 2375 959 1747 
Q 959 1119 1226 758 
Q 1494 397 1959 397 
Q 2419 397 2687 759 
Q 2956 1122 2956 1747 
Q 2956 2369 2687 2733 
Q 2419 3097 1959 3097 
z
M 1959 3584 
Q 2709 3584 3137 3096 
Q 3566 2609 3566 1747 
Q 3566 888 3137 398 
Q 2709 -91 1959 -91 
Q 1206 -91 779 398 
Q 353 888 353 1747 
Q 353 2609 779 3096 
Q 1206 3584 1959 3584 
z
" transform="scale(0.015625)"/>
      </defs>
      <use xlink:href="#DejaVuSans-49"/>
      <use xlink:href="#DejaVuSans-6e" x="29.492188"/>
      <use xlink:href="#DejaVuSans-76" x="92.871094"/>
      <use xlink:href="#DejaVuSans-65" x="152.050781"/>
      <use xlink:href="#DejaVuSans-72" x="213.574219"/>
      <use xlink:href="#DejaVuSans-73" x="254.6875"/>
      <use xlink:href="#DejaVuSans-65" x="306.787109"/>
      <use xlink:href="#DejaVuSans-20" x="368.310547"/>
      <use xlink:href="#DejaVuSans-74" x="400.097656"/>
      <use xlink:href="#DejaVuSans-68" x="439.306641"/>
      <use xlink:href="#DejaVuSans-72" x="502.685547"/>
      <use xlink:href="#DejaVuSans-6f" x="541.548828"/>
      <use xlink:href="#DejaVuSans-75" x="602.730469"/>
      <use xlink:href="#DejaVuSans-67" x="666.109375"/>
      <use xlink:href="#DejaVuSans-68" x="729.585938"/>
      <use xlink:href="#DejaVuSans-70" x="792.964844"/>
      <use xlink:href="#DejaVuSans-75" x="856.441406"/>
      <use xlink:href="#DejaVuSans-74" x="919.820312"/>
      <use xlink:href="#DejaVuSans-20" x="959.029297"/>
      <use xlink:href="#DejaVuSans-28" x="990.816406"/>
      <use xlink:href="#DejaVuSans-6e" x="1029.830078"/>
      <use xlink:href="#DejaVuSans-73" x="1093.208984"/>
      <use xlink:href="#DejaVuSans-29" x="1145.308594"/>
     </g>
    </g>
   </g>
   <g id="line2d_58">
    <path d="M 74.865625 481.251168 
L 79.556398 482.168898 
L 84.411955 481.805653 
L 89.924798 481.944373 
L 94.632688 481.857429 
L 100.156266 481.801133 
L 105.26842 481.712078 
L 110.361348 481.921595 
L 115.341895 482.199804 
L 120.404759 479.964544 
L 125.420521 480.077438 
L 130.491444 479.253728 
L 135.651989 480.118273 
L 140.764143 479.865239 
L 145.857071 475.373224 
L 150.933635 475.900525 
L 155.982591 476.840557 
L 161.056721 476.203284 
L 166.167165 474.600127 
L 171.198957 474.567675 
L 176.303617 474.545757 
L 181.390168 474.428823 
L 186.4613 474.598767 
L 191.532937 471.815434 
L 196.599134 472.115783 
L 201.682827 472.261243 
L 206.745843 471.44804 
L 211.828474 469.874414 
L 216.89834 468.866274 
L 221.967664 469.71153 
L 227.046847 469.713286 
L 232.118177 467.229985 
L 237.191835 467.150454 
L 242.264279 466.928415 
L 247.333903 466.911472 
L 252.410653 467.032845 
L 257.481113 465.031994 
L 262.55469 464.546232 
L 267.626848 464.891262 
L 272.700838 465.061037 
L 277.773245 461.67381 
L 282.847412 461.983415 
L 287.918813 458.103692 
L 292.992191 461.501538 
L 298.065555 461.214607 
L 303.138102 458.170085 
L 308.210573 458.153726 
L 313.283465 458.251363 
L 318.356064 458.176009 
L 323.42881 454.406311 
L 328.501688 453.13231 
L 333.574396 454.004838 
L 338.647337 454.800679 
L 343.720056 449.330722 
L 348.792838 449.568219 
L 353.865608 450.243142 
L 358.938341 449.337706 
L 364.011048 449.467105 
L 369.083792 445.664154 
L 374.156471 445.617032 
L 379.229205 445.559732 
L 384.301927 445.217326 
L 389.374668 440.701276 
L 394.447406 440.833103 
L 399.52014 440.335265 
L 404.592884 440.31181 
L 409.665598 439.962663 
L 414.73835 434.92047 
L 419.811079 433.12055 
L 424.883802 435.44728 
L 429.956533 434.441321 
L 435.029256 427.085686 
L 440.101982 425.66952 
L 445.17471 417.839524 
L 450.247443 408.796189 
L 455.320172 409.590014 
L 460.392898 398.78032 
L 465.465626 392.31211 
L 470.538352 385.634771 
L 475.611079 383.943668 
L 480.683809 375.003966 
L 485.756536 372.733241 
L 490.829264 371.701269 
L 495.901992 371.866211 
L 500.974718 365.985637 
L 506.047445 363.242728 
L 511.120172 365.327556 
L 516.192899 359.123839 
L 521.265626 345.565742 
L 526.338353 350.244059 
L 531.411082 342.631859 
L 536.48381 349.083921 
L 541.556538 345.13256 
L 546.629267 324.313877 
L 551.701993 333.173723 
L 556.774719 321.810735 
L 561.847446 323.215529 
L 566.920173 324.236926 
L 571.992901 301.831731 
L 577.065628 311.002088 
L 582.138356 302.064969 
L 587.211084 297.899682 
L 592.283809 295.861186 
L 597.356535 284.819427 
L 602.429262 288.941827 
L 607.50199 284.147747 
L 612.574716 279.406191 
L 617.647443 269.765753 
L 622.720171 270.441646 
L 627.792898 280.602036 
L 632.865625 276.575468 
" clip-path="url(#pdb29454f14)" style="fill: none; stroke: #1f77b4; stroke-linecap: square"/>
   </g>
   <g id="line2d_59">
    <path d="M 74.865625 486.028595 
L 79.556398 485.937148 
L 84.411955 486.042778 
L 89.924798 486.263201 
L 94.632688 486.038613 
L 100.156266 484.786038 
L 105.26842 485.650669 
L 110.361348 485.521542 
L 115.341895 485.274023 
L 120.404759 484.099725 
L 125.420521 484.563493 
L 130.491444 483.897179 
L 135.651989 484.267634 
L 140.764143 484.344268 
L 145.857071 483.600415 
L 150.933635 483.335836 
L 155.982591 483.983331 
L 161.056721 483.738388 
L 166.167165 482.978373 
L 171.198957 483.05308 
L 176.303617 482.708953 
L 181.390168 483.334086 
L 186.4613 482.303408 
L 191.532937 481.955962 
L 196.599134 481.848575 
L 201.682827 482.358115 
L 206.745843 481.695221 
L 211.828474 481.074147 
L 216.89834 480.815446 
L 221.967664 481.441201 
L 227.046847 481.484238 
L 232.118177 480.600227 
L 237.191835 480.081638 
L 242.264279 480.736966 
L 247.333903 480.293694 
L 252.410653 480.236786 
L 257.481113 479.659467 
L 262.55469 479.70525 
L 267.626848 479.392704 
L 272.700838 479.717852 
L 277.773245 479.175408 
L 282.847412 478.857161 
L 287.918813 479.042452 
L 292.992191 476.698337 
L 298.065555 478.852846 
L 303.138102 477.994687 
L 308.210573 477.762018 
L 313.283465 477.657784 
L 318.356064 477.365025 
L 323.42881 476.323336 
L 328.501688 475.483133 
L 333.574396 475.235073 
L 338.647337 474.91227 
L 343.720056 473.384639 
L 348.792838 473.126496 
L 353.865608 473.468268 
L 358.938341 473.183166 
L 364.011048 473.33282 
L 369.083792 472.550741 
L 374.156471 472.177887 
L 379.229205 471.759396 
L 384.301927 470.99462 
L 389.374668 468.653977 
L 394.447406 467.907042 
L 399.52014 467.249372 
L 404.592884 466.297145 
L 409.665598 465.529616 
L 414.73835 463.981337 
L 419.811079 463.074642 
L 424.883802 460.72317 
L 429.956533 460.909623 
L 435.029256 459.562511 
L 440.101982 457.524023 
L 445.17471 450.147979 
L 450.247443 447.842106 
L 455.320172 441.00704 
L 460.392898 436.119219 
L 465.465626 432.080277 
L 470.538352 427.612698 
L 475.611079 416.948791 
L 480.683809 414.812037 
L 485.756536 407.500835 
L 490.829264 404.578381 
L 495.901992 400.211188 
L 500.974718 402.780849 
L 506.047445 393.042001 
L 511.120172 392.133311 
L 516.192899 386.881566 
L 521.265626 382.956896 
L 526.338353 377.993751 
L 531.411082 374.446733 
L 536.48381 366.07801 
L 541.556538 371.534405 
L 546.629267 358.222027 
L 551.701993 362.090675 
L 556.774719 354.293339 
L 561.847446 348.815288 
L 566.920173 351.350895 
L 571.992901 339.633017 
L 577.065628 331.453712 
L 582.138356 334.084545 
L 587.211084 326.115131 
L 592.283809 334.460942 
L 597.356535 319.274687 
L 602.429262 315.965419 
L 607.50199 320.63638 
L 612.574716 315.927071 
L 617.647443 310.139943 
L 622.720171 309.056752 
L 627.792898 303.033533 
L 632.865625 313.464841 
" clip-path="url(#pdb29454f14)" style="fill: none; stroke: #2ca02c; stroke-linecap: square"/>
   </g>
   <g id="line2d_60">
    <path d="M 74.865625 484.821632 
L 79.556398 485.193243 
L 84.411955 485.113706 
L 89.924798 484.891169 
L 94.632688 484.785772 
L 100.156266 483.875481 
L 105.26842 483.56205 
L 110.361348 483.954939 
L 115.341895 483.83916 
L 120.404759 482.772105 
L 125.420521 482.5536 
L 130.491444 482.877264 
L 135.651989 482.933435 
L 140.764143 483.010131 
L 145.857071 482.006441 
L 150.933635 481.822687 
L 155.982591 481.920536 
L 161.056721 481.871993 
L 166.167165 480.966449 
L 171.198957 480.742916 
L 176.303617 480.679249 
L 181.390168 480.761371 
L 186.4613 479.667691 
L 191.532937 479.874591 
L 196.599134 479.430972 
L 201.682827 480.128637 
L 206.745843 480.000511 
L 211.828474 479.159538 
L 216.89834 478.760013 
L 221.967664 478.768148 
L 227.046847 478.696417 
L 232.118177 477.705865 
L 237.191835 477.305993 
L 242.264279 477.839857 
L 247.333903 477.963408 
L 252.410653 477.542855 
L 257.481113 476.795655 
L 262.55469 476.906647 
L 267.626848 477.103953 
L 272.700838 476.865477 
L 277.773245 476.180344 
L 282.847412 474.878577 
L 287.918813 474.615366 
L 292.992191 475.933839 
L 298.065555 475.313633 
L 303.138102 475.056088 
L 308.210573 474.775995 
L 313.283465 474.939632 
L 318.356064 474.821892 
L 323.42881 473.688099 
L 328.501688 472.683131 
L 333.574396 472.86762 
L 338.647337 473.281053 
L 343.720056 472.070899 
L 348.792838 471.389426 
L 353.865608 471.739457 
L 358.938341 471.555375 
L 364.011048 471.141029 
L 369.083792 470.188626 
L 374.156471 469.745017 
L 379.229205 469.414773 
L 384.301927 468.78546 
L 389.374668 467.421021 
L 394.447406 465.927286 
L 399.52014 465.182614 
L 404.592884 465.380115 
L 409.665598 464.659737 
L 414.73835 463.518153 
L 419.811079 462.3411 
L 424.883802 462.444947 
L 429.956533 461.623822 
L 435.029256 461.043298 
L 440.101982 459.928471 
L 445.17471 455.197756 
L 450.247443 453.188807 
L 455.320172 447.168804 
L 460.392898 444.481657 
L 465.465626 439.232088 
L 470.538352 434.051034 
L 475.611079 430.568692 
L 480.683809 432.520895 
L 485.756536 424.840508 
L 490.829264 421.796109 
L 495.901992 420.467604 
L 500.974718 427.004269 
L 506.047445 415.632699 
L 511.120172 411.824148 
L 516.192899 413.310575 
L 521.265626 411.994536 
L 526.338353 411.364323 
L 531.411082 406.592739 
L 536.48381 405.529851 
L 541.556538 401.913197 
L 546.629267 396.905117 
L 551.701993 395.478449 
L 556.774719 392.310093 
L 561.847446 386.243474 
L 566.920173 387.273939 
L 571.992901 387.765016 
L 577.065628 383.821184 
L 582.138356 381.686756 
L 587.211084 376.301558 
L 592.283809 387.562285 
L 597.356535 376.079865 
L 602.429262 371.731419 
L 607.50199 377.143038 
L 612.574716 382.406559 
L 617.647443 369.831366 
L 622.720171 368.205573 
L 627.792898 363.047504 
L 632.865625 372.9571 
" clip-path="url(#pdb29454f14)" style="fill: none; stroke: #9467bd; stroke-linecap: square"/>
   </g>
   <g id="line2d_61">
    <path d="M 74.865625 483.512193 
L 79.556398 483.046214 
L 84.411955 483.611924 
L 89.924798 483.522272 
L 94.632688 483.20479 
L 100.156266 481.590942 
L 105.26842 481.946327 
L 110.361348 481.251453 
L 115.341895 481.879926 
L 120.404759 480.612038 
L 125.420521 480.65964 
L 130.491444 480.577262 
L 135.651989 480.563504 
L 140.764143 480.498852 
L 145.857071 478.791061 
L 150.933635 479.269553 
L 155.982591 478.975935 
L 161.056721 478.979647 
L 166.167165 477.504658 
L 171.198957 477.437698 
L 176.303617 476.847005 
L 181.390168 477.64059 
L 186.4613 477.021558 
L 191.532937 475.536685 
L 196.599134 476.008721 
L 201.682827 475.653583 
L 206.745843 475.963881 
L 211.828474 474.707016 
L 216.89834 474.434011 
L 221.967664 474.228054 
L 227.046847 473.941352 
L 232.118177 473.087804 
L 237.191835 472.711991 
L 242.264279 472.893633 
L 247.333903 473.272074 
L 252.410653 473.258733 
L 257.481113 471.567675 
L 262.55469 471.477755 
L 267.626848 471.67658 
L 272.700838 470.751433 
L 277.773245 470.363916 
L 282.847412 470.044641 
L 287.918813 470.343901 
L 292.992191 469.482455 
L 298.065555 469.97434 
L 303.138102 468.972657 
L 308.210573 468.612034 
L 313.283465 468.598311 
L 318.356064 468.492392 
L 323.42881 466.253318 
L 328.501688 466.316233 
L 333.574396 466.451133 
L 338.647337 466.208454 
L 343.720056 464.649951 
L 348.792838 463.597485 
L 353.865608 464.060039 
L 358.938341 464.182068 
L 364.011048 463.958298 
L 369.083792 462.804273 
L 374.156471 462.198838 
L 379.229205 461.948131 
L 384.301927 461.054941 
L 389.374668 459.397759 
L 394.447406 458.117203 
L 399.52014 457.287931 
L 404.592884 455.697146 
L 409.665598 456.12206 
L 414.73835 455.235909 
L 419.811079 454.196421 
L 424.883802 450.075299 
L 429.956533 453.008635 
L 435.029256 453.029874 
L 440.101982 452.027109 
L 445.17471 444.939875 
L 450.247443 443.525593 
L 455.320172 434.850116 
L 460.392898 436.159707 
L 465.465626 432.183573 
L 470.538352 427.871264 
L 475.611079 424.392101 
L 480.683809 423.323692 
L 485.756536 414.871909 
L 490.829264 414.965266 
L 495.901992 413.445902 
L 500.974718 420.037131 
L 506.047445 410.392446 
L 511.120172 407.761587 
L 516.192899 408.135133 
L 521.265626 402.664225 
L 526.338353 405.059937 
L 531.411082 400.790104 
L 536.48381 398.417421 
L 541.556538 396.923518 
L 546.629267 393.122861 
L 551.701993 396.012074 
L 556.774719 384.335839 
L 561.847446 382.60089 
L 566.920173 388.018076 
L 571.992901 376.266761 
L 577.065628 378.495683 
L 582.138356 378.414734 
L 587.211084 373.710112 
L 592.283809 382.205478 
L 597.356535 368.222216 
L 602.429262 366.485447 
L 607.50199 364.898868 
L 612.574716 374.397143 
L 617.647443 364.168159 
L 622.720171 359.456037 
L 627.792898 359.50576 
L 632.865625 365.5292 
" clip-path="url(#pdb29454f14)" style="fill: none; stroke: #ff7f0e; stroke-linecap: square"/>
   </g>
   <g id="line2d_62">
    <path d="M 74.865625 483.245305 
L 79.556398 483.689597 
L 84.411955 483.680076 
L 89.924798 483.724446 
L 94.632688 483.387382 
L 100.156266 482.090331 
L 105.26842 482.072221 
L 110.361348 481.174394 
L 115.341895 481.838069 
L 120.404759 479.708499 
L 125.420521 480.651595 
L 130.491444 480.568479 
L 135.651989 480.450558 
L 140.764143 480.567865 
L 145.857071 478.89615 
L 150.933635 479.200096 
L 155.982591 478.645736 
L 161.056721 479.228666 
L 166.167165 477.649274 
L 171.198957 477.889617 
L 176.303617 477.572233 
L 181.390168 477.542732 
L 186.4613 477.452582 
L 191.532937 476.458092 
L 196.599134 476.403378 
L 201.682827 476.468956 
L 206.745843 476.156747 
L 211.828474 474.770898 
L 216.89834 474.85206 
L 221.967664 474.952288 
L 227.046847 474.860737 
L 232.118177 473.497389 
L 237.191835 473.45365 
L 242.264279 473.487426 
L 247.333903 473.629367 
L 252.410653 473.151141 
L 257.481113 471.711527 
L 262.55469 472.354894 
L 267.626848 472.143802 
L 272.700838 472.195969 
L 277.773245 470.63885 
L 282.847412 470.770998 
L 287.918813 470.447609 
L 292.992191 470.293706 
L 298.065555 470.009963 
L 303.138102 468.848912 
L 308.210573 468.054458 
L 313.283465 468.655007 
L 318.356064 468.48445 
L 323.42881 466.963095 
L 328.501688 466.034511 
L 333.574396 466.551842 
L 338.647337 465.908447 
L 343.720056 464.355796 
L 348.792838 464.294882 
L 353.865608 464.450955 
L 358.938341 464.280078 
L 364.011048 464.384547 
L 369.083792 462.841922 
L 374.156471 462.253437 
L 379.229205 462.160831 
L 384.301927 461.720233 
L 389.374668 459.634007 
L 394.447406 458.4579 
L 399.52014 458.292361 
L 404.592884 456.814368 
L 409.665598 457.100376 
L 414.73835 455.705368 
L 419.811079 454.304404 
L 424.883802 453.6911 
L 429.956533 453.811018 
L 435.029256 452.411251 
L 440.101982 450.20087 
L 445.17471 444.884155 
L 450.247443 444.53909 
L 455.320172 438.564096 
L 460.392898 437.912905 
L 465.465626 431.609372 
L 470.538352 430.004786 
L 475.611079 426.321399 
L 480.683809 423.815683 
L 485.756536 418.901666 
L 490.829264 417.78741 
L 495.901992 418.30553 
L 500.974718 420.720264 
L 506.047445 411.767976 
L 511.120172 411.545467 
L 516.192899 412.257045 
L 521.265626 408.083508 
L 526.338353 407.349798 
L 531.411082 400.789324 
L 536.48381 400.757752 
L 541.556538 402.830519 
L 546.629267 402.702866 
L 551.701993 397.286025 
L 556.774719 387.759625 
L 561.847446 387.539318 
L 566.920173 385.319402 
L 571.992901 383.164798 
L 577.065628 381.504236 
L 582.138356 380.596513 
L 587.211084 379.041065 
L 592.283809 384.59459 
L 597.356535 374.838941 
L 602.429262 374.943966 
L 607.50199 373.250883 
L 612.574716 372.406996 
L 617.647443 369.634594 
L 622.720171 356.05886 
L 627.792898 364.018102 
L 632.865625 368.518153 
" clip-path="url(#pdb29454f14)" style="fill: none; stroke: #17becf; stroke-linecap: square"/>
   </g>
   <g id="line2d_63">
    <path d="M 74.865625 484.076553 
L 79.556398 483.890331 
L 84.411955 483.995721 
L 89.924798 484.258416 
L 94.632688 483.965367 
L 100.156266 482.185257 
L 105.26842 482.112399 
L 110.361348 482.945949 
L 115.341895 482.502084 
L 120.404759 480.980727 
L 125.420521 480.96166 
L 130.491444 481.162155 
L 135.651989 480.673539 
L 140.764143 481.092973 
L 145.857071 479.38686 
L 150.933635 479.629859 
L 155.982591 479.30727 
L 161.056721 479.238932 
L 166.167165 477.774309 
L 171.198957 478.254416 
L 176.303617 478.266912 
L 181.390168 478.30432 
L 186.4613 478.189641 
L 191.532937 476.88575 
L 196.599134 476.762939 
L 201.682827 476.637007 
L 206.745843 476.691437 
L 211.828474 475.179744 
L 216.89834 475.268582 
L 221.967664 475.351866 
L 227.046847 475.342807 
L 232.118177 473.786676 
L 237.191835 473.805947 
L 242.264279 474.035223 
L 247.333903 474.121574 
L 252.410653 473.802198 
L 257.481113 472.061636 
L 262.55469 472.267096 
L 267.626848 472.160924 
L 272.700838 471.567798 
L 277.773245 470.803584 
L 282.847412 470.871398 
L 287.918813 470.904959 
L 292.992191 471.176578 
L 298.065555 470.130235 
L 303.138102 469.229519 
L 308.210573 468.964791 
L 313.283465 469.032185 
L 318.356064 468.570923 
L 323.42881 467.333738 
L 328.501688 466.786401 
L 333.574396 466.892829 
L 338.647337 466.173443 
L 343.720056 465.368224 
L 348.792838 464.904261 
L 353.865608 464.846351 
L 358.938341 465.000843 
L 364.011048 464.952824 
L 369.083792 463.423651 
L 374.156471 463.111827 
L 379.229205 462.810978 
L 384.301927 462.462955 
L 389.374668 460.731594 
L 394.447406 459.639765 
L 399.52014 459.570491 
L 404.592884 458.872616 
L 409.665598 458.255067 
L 414.73835 457.089639 
L 419.811079 455.901849 
L 424.883802 454.70691 
L 429.956533 455.562823 
L 435.029256 453.084234 
L 440.101982 451.881667 
L 445.17471 446.103827 
L 450.247443 445.526251 
L 455.320172 440.570176 
L 460.392898 440.879115 
L 465.465626 433.625228 
L 470.538352 430.94567 
L 475.611079 427.796425 
L 480.683809 427.50054 
L 485.756536 418.868808 
L 490.829264 419.321847 
L 495.901992 416.55661 
L 500.974718 418.354541 
L 506.047445 414.933927 
L 511.120172 415.812438 
L 516.192899 413.044459 
L 521.265626 408.731315 
L 526.338353 410.308753 
L 531.411082 406.1612 
L 536.48381 403.509515 
L 541.556538 401.978436 
L 546.629267 403.101156 
L 551.701993 397.781613 
L 556.774719 390.198312 
L 561.847446 392.877127 
L 566.920173 392.093586 
L 571.992901 386.600291 
L 577.065628 384.485881 
L 582.138356 382.943363 
L 587.211084 375.556826 
L 592.283809 384.917046 
L 597.356535 377.619958 
L 602.429262 365.074926 
L 607.50199 370.988313 
L 612.574716 376.564509 
L 617.647443 367.867558 
L 622.720171 371.477178 
L 627.792898 367.39491 
L 632.865625 370.415523 
" clip-path="url(#pdb29454f14)" style="fill: none; stroke: #1f77b4; stroke-linecap: square"/>
   </g>
   <g id="line2d_64"/>
   <g id="line2d_65"/>
   <g id="line2d_66"/>
   <g id="line2d_67"/>
   <g id="line2d_68"/>
   <g id="line2d_69"/>
   <g id="line2d_70"/>
   <g id="patch_5">
    <path d="M 46.965625 494.114688 
L 46.965625 50.594688 
" style="fill: none; stroke: #000000; stroke-width: 0.8; stroke-linejoin: miter; stroke-linecap: square"/>
   </g>
   <g id="patch_6">
    <path d="M 660.765625 494.114688 
L 660.765625 50.594688 
" style="fill: none; stroke: #000000; stroke-width: 0.8; stroke-linejoin: miter; stroke-linecap: square"/>
   </g>
   <g id="patch_7">
    <path d="M 46.965625 494.114688 
L 660.765625 494.114688 
" style="fill: none; stroke: #000000; stroke-width: 0.8; stroke-linejoin: miter; stroke-linecap: square"/>
   </g>
   <g id="patch_8">
    <path d="M 46.965625 50.594688 
L 660.765625 50.594688 
" style="fill: none; stroke: #000000; stroke-width: 0.8; stroke-linejoin: miter; stroke-linecap: square"/>
   </g>
   <g id="text_38">
    <!-- L1  -->
    <g style="fill: #ff0000" transform="translate(283.706204 492.035) scale(0.1 -0.1)">
     <defs>
      <path id="DejaVuSans-4c" d="M 628 4666 
L 1259 4666 
L 1259 531 
L 3531 531 
L 3531 0 
L 628 0 
L 628 4666 
z
" transform="scale(0.015625)"/>
     </defs>
     <use xlink:href="#DejaVuSans-4c"/>
     <use xlink:href="#DejaVuSans-31" x="55.712891"/>
     <use xlink:href="#DejaVuSans-20" x="119.335938"/>
    </g>
   </g>
   <g id="text_39">
    <!-- L2  -->
    <g style="fill: #ff0000" transform="translate(373.287435 492.035) scale(0.1 -0.1)">
     <use xlink:href="#DejaVuSans-4c"/>
     <use xlink:href="#DejaVuSans-32" x="55.712891"/>
     <use xlink:href="#DejaVuSans-20" x="119.335938"/>
    </g>
   </g>
   <g id="text_40">
    <!-- L3  -->
    <g style="fill: #ff0000" transform="translate(440.473359 492.035) scale(0.1 -0.1)">
     <use xlink:href="#DejaVuSans-4c"/>
     <use xlink:href="#DejaVuSans-33" x="55.712891"/>
     <use xlink:href="#DejaVuSans-20" x="119.335938"/>
    </g>
   </g>
   <g id="text_41">
    <!-- RAM -->
    <g style="fill: #ff0000" transform="translate(610.848438 492.035) scale(0.1 -0.1)">
     <defs>
      <path id="DejaVuSans-52" d="M 2841 2188 
Q 3044 2119 3236 1894 
Q 3428 1669 3622 1275 
L 4263 0 
L 3584 0 
L 2988 1197 
Q 2756 1666 2539 1819 
Q 2322 1972 1947 1972 
L 1259 1972 
L 1259 0 
L 628 0 
L 628 4666 
L 2053 4666 
Q 2853 4666 3247 4331 
Q 3641 3997 3641 3322 
Q 3641 2881 3436 2590 
Q 3231 2300 2841 2188 
z
M 1259 4147 
L 1259 2491 
L 2053 2491 
Q 2509 2491 2742 2702 
Q 2975 2913 2975 3322 
Q 2975 3731 2742 3939 
Q 2509 4147 2053 4147 
L 1259 4147 
z
" transform="scale(0.015625)"/>
      <path id="DejaVuSans-4d" d="M 628 4666 
L 1569 4666 
L 2759 1491 
L 3956 4666 
L 4897 4666 
L 4897 0 
L 4281 0 
L 4281 4097 
L 3078 897 
L 2444 897 
L 1241 4097 
L 1241 0 
L 628 0 
L 628 4666 
z
" transform="scale(0.015625)"/>
     </defs>
     <use xlink:href="#DejaVuSans-52"/>
     <use xlink:href="#DejaVuSans-41" x="65.482422"/>
     <use xlink:href="#DejaVuSans-4d" x="133.890625"/>
    </g>
   </g>
   <g id="text_42">
    <!-- Eytzinger layout with batching -->
    <g transform="translate(262.196875 16.318125) scale(0.12 -0.12)">
     <defs>
      <path id="DejaVuSans-45" d="M 628 4666 
L 3578 4666 
L 3578 4134 
L 1259 4134 
L 1259 2753 
L 3481 2753 
L 3481 2222 
L 1259 2222 
L 1259 531 
L 3634 531 
L 3634 0 
L 628 0 
L 628 4666 
z
" transform="scale(0.015625)"/>
      <path id="DejaVuSans-77" d="M 269 3500 
L 844 3500 
L 1563 769 
L 2278 3500 
L 2956 3500 
L 3675 769 
L 4391 3500 
L 4966 3500 
L 4050 0 
L 3372 0 
L 2619 2869 
L 1863 0 
L 1184 0 
L 269 3500 
z
" transform="scale(0.015625)"/>
      <path id="DejaVuSans-63" d="M 3122 3366 
L 3122 2828 
Q 2878 2963 2633 3030 
Q 2388 3097 2138 3097 
Q 1578 3097 1268 2742 
Q 959 2388 959 1747 
Q 959 1106 1268 751 
Q 1578 397 2138 397 
Q 2388 397 2633 464 
Q 2878 531 3122 666 
L 3122 134 
Q 2881 22 2623 -34 
Q 2366 -91 2075 -91 
Q 1284 -91 818 406 
Q 353 903 353 1747 
Q 353 2603 823 3093 
Q 1294 3584 2113 3584 
Q 2378 3584 2631 3529 
Q 2884 3475 3122 3366 
z
" transform="scale(0.015625)"/>
     </defs>
     <use xlink:href="#DejaVuSans-45"/>
     <use xlink:href="#DejaVuSans-79" x="63.183594"/>
     <use xlink:href="#DejaVuSans-74" x="122.363281"/>
     <use xlink:href="#DejaVuSans-7a" x="161.572266"/>
     <use xlink:href="#DejaVuSans-69" x="214.0625"/>
     <use xlink:href="#DejaVuSans-6e" x="241.845703"/>
     <use xlink:href="#DejaVuSans-67" x="305.224609"/>
     <use xlink:href="#DejaVuSans-65" x="368.701172"/>
     <use xlink:href="#DejaVuSans-72" x="430.224609"/>
     <use xlink:href="#DejaVuSans-20" x="471.337891"/>
     <use xlink:href="#DejaVuSans-6c" x="503.125"/>
     <use xlink:href="#DejaVuSans-61" x="530.908203"/>
     <use xlink:href="#DejaVuSans-79" x="592.1875"/>
     <use xlink:href="#DejaVuSans-6f" x="651.367188"/>
     <use xlink:href="#DejaVuSans-75" x="712.548828"/>
     <use xlink:href="#DejaVuSans-74" x="775.927734"/>
     <use xlink:href="#DejaVuSans-20" x="815.136719"/>
     <use xlink:href="#DejaVuSans-77" x="846.923828"/>
     <use xlink:href="#DejaVuSans-69" x="928.710938"/>
     <use xlink:href="#DejaVuSans-74" x="956.494141"/>
     <use xlink:href="#DejaVuSans-68" x="995.703125"/>
     <use xlink:href="#DejaVuSans-20" x="1059.082031"/>
     <use xlink:href="#DejaVuSans-62" x="1090.869141"/>
     <use xlink:href="#DejaVuSans-61" x="1154.345703"/>
     <use xlink:href="#DejaVuSans-74" x="1215.625"/>
     <use xlink:href="#DejaVuSans-63" x="1254.833984"/>
     <use xlink:href="#DejaVuSans-68" x="1309.814453"/>
     <use xlink:href="#DejaVuSans-69" x="1373.193359"/>
     <use xlink:href="#DejaVuSans-6e" x="1400.976562"/>
     <use xlink:href="#DejaVuSans-67" x="1464.355469"/>
    </g>
   </g>
   <g id="legend_1">
    <g id="patch_9">
     <path d="M 53.965625 148.332188 
L 367.328125 148.332188 
Q 369.328125 148.332188 369.328125 146.332188 
L 369.328125 57.594688 
Q 369.328125 55.594688 367.328125 55.594688 
L 53.965625 55.594688 
Q 51.965625 55.594688 51.965625 57.594688 
L 51.965625 146.332188 
Q 51.965625 148.332188 53.965625 148.332188 
L 53.965625 148.332188 
z
" style="fill: none; opacity: 0"/>
    </g>
    <g id="line2d_71">
     <path d="M 55.965625 63.693125 
L 65.965625 63.693125 
L 75.965625 63.693125 
" style="fill: none; stroke: #1f77b4; stroke-width: 1.5; stroke-linecap: square"/>
    </g>
    <g id="text_43">
     <!-- Eytzinger::search_branchless_prefetch&lt;4&gt; -->
     <g transform="translate(83.965625 67.193125) scale(0.1 -0.1)">
      <defs>
       <path id="DejaVuSans-3a" d="M 750 794 
L 1409 794 
L 1409 0 
L 750 0 
L 750 794 
z
M 750 3309 
L 1409 3309 
L 1409 2516 
L 750 2516 
L 750 3309 
z
" transform="scale(0.015625)"/>
       <path id="DejaVuSans-5f" d="M 3263 -1063 
L 3263 -1509 
L -63 -1509 
L -63 -1063 
L 3263 -1063 
z
" transform="scale(0.015625)"/>
       <path id="DejaVuSans-66" d="M 2375 4863 
L 2375 4384 
L 1825 4384 
Q 1516 4384 1395 4259 
Q 1275 4134 1275 3809 
L 1275 3500 
L 2222 3500 
L 2222 3053 
L 1275 3053 
L 1275 0 
L 697 0 
L 697 3053 
L 147 3053 
L 147 3500 
L 697 3500 
L 697 3744 
Q 697 4328 969 4595 
Q 1241 4863 1831 4863 
L 2375 4863 
z
" transform="scale(0.015625)"/>
       <path id="DejaVuSans-3c" d="M 4684 3150 
L 1459 2003 
L 4684 863 
L 4684 294 
L 678 1747 
L 678 2266 
L 4684 3719 
L 4684 3150 
z
" transform="scale(0.015625)"/>
       <path id="DejaVuSans-3e" d="M 678 3150 
L 678 3719 
L 4684 2266 
L 4684 1747 
L 678 294 
L 678 863 
L 3897 2003 
L 678 3150 
z
" transform="scale(0.015625)"/>
      </defs>
      <use xlink:href="#DejaVuSans-45"/>
      <use xlink:href="#DejaVuSans-79" x="63.183594"/>
      <use xlink:href="#DejaVuSans-74" x="122.363281"/>
      <use xlink:href="#DejaVuSans-7a" x="161.572266"/>
      <use xlink:href="#DejaVuSans-69" x="214.0625"/>
      <use xlink:href="#DejaVuSans-6e" x="241.845703"/>
      <use xlink:href="#DejaVuSans-67" x="305.224609"/>
      <use xlink:href="#DejaVuSans-65" x="368.701172"/>
      <use xlink:href="#DejaVuSans-72" x="430.224609"/>
      <use xlink:href="#DejaVuSans-3a" x="469.587891"/>
      <use xlink:href="#DejaVuSans-3a" x="503.279297"/>
      <use xlink:href="#DejaVuSans-73" x="536.970703"/>
      <use xlink:href="#DejaVuSans-65" x="589.070312"/>
      <use xlink:href="#DejaVuSans-61" x="650.59375"/>
      <use xlink:href="#DejaVuSans-72" x="711.873047"/>
      <use xlink:href="#DejaVuSans-63" x="750.736328"/>
      <use xlink:href="#DejaVuSans-68" x="805.716797"/>
      <use xlink:href="#DejaVuSans-5f" x="869.095703"/>
      <use xlink:href="#DejaVuSans-62" x="919.095703"/>
      <use xlink:href="#DejaVuSans-72" x="982.572266"/>
      <use xlink:href="#DejaVuSans-61" x="1023.685547"/>
      <use xlink:href="#DejaVuSans-6e" x="1084.964844"/>
      <use xlink:href="#DejaVuSans-63" x="1148.34375"/>
      <use xlink:href="#DejaVuSans-68" x="1203.324219"/>
      <use xlink:href="#DejaVuSans-6c" x="1266.703125"/>
      <use xlink:href="#DejaVuSans-65" x="1294.486328"/>
      <use xlink:href="#DejaVuSans-73" x="1356.009766"/>
      <use xlink:href="#DejaVuSans-73" x="1408.109375"/>
      <use xlink:href="#DejaVuSans-5f" x="1460.208984"/>
      <use xlink:href="#DejaVuSans-70" x="1510.208984"/>
      <use xlink:href="#DejaVuSans-72" x="1573.685547"/>
      <use xlink:href="#DejaVuSans-65" x="1612.548828"/>
      <use xlink:href="#DejaVuSans-66" x="1674.072266"/>
      <use xlink:href="#DejaVuSans-65" x="1709.277344"/>
      <use xlink:href="#DejaVuSans-74" x="1770.800781"/>
      <use xlink:href="#DejaVuSans-63" x="1810.009766"/>
      <use xlink:href="#DejaVuSans-68" x="1864.990234"/>
      <use xlink:href="#DejaVuSans-3c" x="1928.369141"/>
      <use xlink:href="#DejaVuSans-34" x="2012.158203"/>
      <use xlink:href="#DejaVuSans-3e" x="2075.78125"/>
     </g>
    </g>
    <g id="line2d_72">
     <path d="M 55.965625 78.649375 
L 65.965625 78.649375 
L 75.965625 78.649375 
" style="fill: none; stroke: #2ca02c; stroke-width: 1.5; stroke-linecap: square"/>
    </g>
    <g id="text_44">
     <!-- Batched&lt;8, Eytzinger, Eytzinger::batch_impl&lt;8&gt;&gt; -->
     <g transform="translate(83.965625 82.149375) scale(0.1 -0.1)">
      <defs>
       <path id="DejaVuSans-42" d="M 1259 2228 
L 1259 519 
L 2272 519 
Q 2781 519 3026 730 
Q 3272 941 3272 1375 
Q 3272 1813 3026 2020 
Q 2781 2228 2272 2228 
L 1259 2228 
z
M 1259 4147 
L 1259 2741 
L 2194 2741 
Q 2656 2741 2882 2914 
Q 3109 3088 3109 3444 
Q 3109 3797 2882 3972 
Q 2656 4147 2194 4147 
L 1259 4147 
z
M 628 4666 
L 2241 4666 
Q 2963 4666 3353 4366 
Q 3744 4066 3744 3513 
Q 3744 3084 3544 2831 
Q 3344 2578 2956 2516 
Q 3422 2416 3680 2098 
Q 3938 1781 3938 1306 
Q 3938 681 3513 340 
Q 3088 0 2303 0 
L 628 0 
L 628 4666 
z
" transform="scale(0.015625)"/>
       <path id="DejaVuSans-64" d="M 2906 2969 
L 2906 4863 
L 3481 4863 
L 3481 0 
L 2906 0 
L 2906 525 
Q 2725 213 2448 61 
Q 2172 -91 1784 -91 
Q 1150 -91 751 415 
Q 353 922 353 1747 
Q 353 2572 751 3078 
Q 1150 3584 1784 3584 
Q 2172 3584 2448 3432 
Q 2725 3281 2906 2969 
z
M 947 1747 
Q 947 1113 1208 752 
Q 1469 391 1925 391 
Q 2381 391 2643 752 
Q 2906 1113 2906 1747 
Q 2906 2381 2643 2742 
Q 2381 3103 1925 3103 
Q 1469 3103 1208 2742 
Q 947 2381 947 1747 
z
" transform="scale(0.015625)"/>
       <path id="DejaVuSans-2c" d="M 750 794 
L 1409 794 
L 1409 256 
L 897 -744 
L 494 -744 
L 750 256 
L 750 794 
z
" transform="scale(0.015625)"/>
       <path id="DejaVuSans-6d" d="M 3328 2828 
Q 3544 3216 3844 3400 
Q 4144 3584 4550 3584 
Q 5097 3584 5394 3201 
Q 5691 2819 5691 2113 
L 5691 0 
L 5113 0 
L 5113 2094 
Q 5113 2597 4934 2840 
Q 4756 3084 4391 3084 
Q 3944 3084 3684 2787 
Q 3425 2491 3425 1978 
L 3425 0 
L 2847 0 
L 2847 2094 
Q 2847 2600 2669 2842 
Q 2491 3084 2119 3084 
Q 1678 3084 1418 2786 
Q 1159 2488 1159 1978 
L 1159 0 
L 581 0 
L 581 3500 
L 1159 3500 
L 1159 2956 
Q 1356 3278 1631 3431 
Q 1906 3584 2284 3584 
Q 2666 3584 2933 3390 
Q 3200 3197 3328 2828 
z
" transform="scale(0.015625)"/>
      </defs>
      <use xlink:href="#DejaVuSans-42"/>
      <use xlink:href="#DejaVuSans-61" x="68.603516"/>
      <use xlink:href="#DejaVuSans-74" x="129.882812"/>
      <use xlink:href="#DejaVuSans-63" x="169.091797"/>
      <use xlink:href="#DejaVuSans-68" x="224.072266"/>
      <use xlink:href="#DejaVuSans-65" x="287.451172"/>
      <use xlink:href="#DejaVuSans-64" x="348.974609"/>
      <use xlink:href="#DejaVuSans-3c" x="412.451172"/>
      <use xlink:href="#DejaVuSans-38" x="496.240234"/>
      <use xlink:href="#DejaVuSans-2c" x="559.863281"/>
      <use xlink:href="#DejaVuSans-20" x="591.650391"/>
      <use xlink:href="#DejaVuSans-45" x="623.4375"/>
      <use xlink:href="#DejaVuSans-79" x="686.621094"/>
      <use xlink:href="#DejaVuSans-74" x="745.800781"/>
      <use xlink:href="#DejaVuSans-7a" x="785.009766"/>
      <use xlink:href="#DejaVuSans-69" x="837.5"/>
      <use xlink:href="#DejaVuSans-6e" x="865.283203"/>
      <use xlink:href="#DejaVuSans-67" x="928.662109"/>
      <use xlink:href="#DejaVuSans-65" x="992.138672"/>
      <use xlink:href="#DejaVuSans-72" x="1053.662109"/>
      <use xlink:href="#DejaVuSans-2c" x="1094.775391"/>
      <use xlink:href="#DejaVuSans-20" x="1126.5625"/>
      <use xlink:href="#DejaVuSans-45" x="1158.349609"/>
      <use xlink:href="#DejaVuSans-79" x="1221.533203"/>
      <use xlink:href="#DejaVuSans-74" x="1280.712891"/>
      <use xlink:href="#DejaVuSans-7a" x="1319.921875"/>
      <use xlink:href="#DejaVuSans-69" x="1372.412109"/>
      <use xlink:href="#DejaVuSans-6e" x="1400.195312"/>
      <use xlink:href="#DejaVuSans-67" x="1463.574219"/>
      <use xlink:href="#DejaVuSans-65" x="1527.050781"/>
      <use xlink:href="#DejaVuSans-72" x="1588.574219"/>
      <use xlink:href="#DejaVuSans-3a" x="1627.9375"/>
      <use xlink:href="#DejaVuSans-3a" x="1661.628906"/>
      <use xlink:href="#DejaVuSans-62" x="1695.320312"/>
      <use xlink:href="#DejaVuSans-61" x="1758.796875"/>
      <use xlink:href="#DejaVuSans-74" x="1820.076172"/>
      <use xlink:href="#DejaVuSans-63" x="1859.285156"/>
      <use xlink:href="#DejaVuSans-68" x="1914.265625"/>
      <use xlink:href="#DejaVuSans-5f" x="1977.644531"/>
      <use xlink:href="#DejaVuSans-69" x="2027.644531"/>
      <use xlink:href="#DejaVuSans-6d" x="2055.427734"/>
      <use xlink:href="#DejaVuSans-70" x="2152.839844"/>
      <use xlink:href="#DejaVuSans-6c" x="2216.316406"/>
      <use xlink:href="#DejaVuSans-3c" x="2244.099609"/>
      <use xlink:href="#DejaVuSans-38" x="2327.888672"/>
      <use xlink:href="#DejaVuSans-3e" x="2391.511719"/>
      <use xlink:href="#DejaVuSans-3e" x="2475.300781"/>
     </g>
    </g>
    <g id="line2d_73">
     <path d="M 55.965625 93.605625 
L 65.965625 93.605625 
L 75.965625 93.605625 
" style="fill: none; stroke: #9467bd; stroke-width: 1.5; stroke-linecap: square"/>
    </g>
    <g id="text_45">
     <!-- Batched&lt;16, Eytzinger, Eytzinger::batch_impl&lt;16&gt;&gt; -->
     <g transform="translate(83.965625 97.105625) scale(0.1 -0.1)">
      <use xlink:href="#DejaVuSans-42"/>
      <use xlink:href="#DejaVuSans-61" x="68.603516"/>
      <use xlink:href="#DejaVuSans-74" x="129.882812"/>
      <use xlink:href="#DejaVuSans-63" x="169.091797"/>
      <use xlink:href="#DejaVuSans-68" x="224.072266"/>
      <use xlink:href="#DejaVuSans-65" x="287.451172"/>
      <use xlink:href="#DejaVuSans-64" x="348.974609"/>
      <use xlink:href="#DejaVuSans-3c" x="412.451172"/>
      <use xlink:href="#DejaVuSans-31" x="496.240234"/>
      <use xlink:href="#DejaVuSans-36" x="559.863281"/>
      <use xlink:href="#DejaVuSans-2c" x="623.486328"/>
      <use xlink:href="#DejaVuSans-20" x="655.273438"/>
      <use xlink:href="#DejaVuSans-45" x="687.060547"/>
      <use xlink:href="#DejaVuSans-79" x="750.244141"/>
      <use xlink:href="#DejaVuSans-74" x="809.423828"/>
      <use xlink:href="#DejaVuSans-7a" x="848.632812"/>
      <use xlink:href="#DejaVuSans-69" x="901.123047"/>
      <use xlink:href="#DejaVuSans-6e" x="928.90625"/>
      <use xlink:href="#DejaVuSans-67" x="992.285156"/>
      <use xlink:href="#DejaVuSans-65" x="1055.761719"/>
      <use xlink:href="#DejaVuSans-72" x="1117.285156"/>
      <use xlink:href="#DejaVuSans-2c" x="1158.398438"/>
      <use xlink:href="#DejaVuSans-20" x="1190.185547"/>
      <use xlink:href="#DejaVuSans-45" x="1221.972656"/>
      <use xlink:href="#DejaVuSans-79" x="1285.15625"/>
      <use xlink:href="#DejaVuSans-74" x="1344.335938"/>
      <use xlink:href="#DejaVuSans-7a" x="1383.544922"/>
      <use xlink:href="#DejaVuSans-69" x="1436.035156"/>
      <use xlink:href="#DejaVuSans-6e" x="1463.818359"/>
      <use xlink:href="#DejaVuSans-67" x="1527.197266"/>
      <use xlink:href="#DejaVuSans-65" x="1590.673828"/>
      <use xlink:href="#DejaVuSans-72" x="1652.197266"/>
      <use xlink:href="#DejaVuSans-3a" x="1691.560547"/>
      <use xlink:href="#DejaVuSans-3a" x="1725.251953"/>
      <use xlink:href="#DejaVuSans-62" x="1758.943359"/>
      <use xlink:href="#DejaVuSans-61" x="1822.419922"/>
      <use xlink:href="#DejaVuSans-74" x="1883.699219"/>
      <use xlink:href="#DejaVuSans-63" x="1922.908203"/>
      <use xlink:href="#DejaVuSans-68" x="1977.888672"/>
      <use xlink:href="#DejaVuSans-5f" x="2041.267578"/>
      <use xlink:href="#DejaVuSans-69" x="2091.267578"/>
      <use xlink:href="#DejaVuSans-6d" x="2119.050781"/>
      <use xlink:href="#DejaVuSans-70" x="2216.462891"/>
      <use xlink:href="#DejaVuSans-6c" x="2279.939453"/>
      <use xlink:href="#DejaVuSans-3c" x="2307.722656"/>
      <use xlink:href="#DejaVuSans-31" x="2391.511719"/>
      <use xlink:href="#DejaVuSans-36" x="2455.134766"/>
      <use xlink:href="#DejaVuSans-3e" x="2518.757812"/>
      <use xlink:href="#DejaVuSans-3e" x="2602.546875"/>
     </g>
    </g>
    <g id="line2d_74">
     <path d="M 55.965625 108.561875 
L 65.965625 108.561875 
L 75.965625 108.561875 
" style="fill: none; stroke: #ff7f0e; stroke-width: 1.5; stroke-linecap: square"/>
    </g>
    <g id="text_46">
     <!-- Batched&lt;32, Eytzinger, Eytzinger::batch_impl&lt;32&gt;&gt; -->
     <g transform="translate(83.965625 112.061875) scale(0.1 -0.1)">
      <use xlink:href="#DejaVuSans-42"/>
      <use xlink:href="#DejaVuSans-61" x="68.603516"/>
      <use xlink:href="#DejaVuSans-74" x="129.882812"/>
      <use xlink:href="#DejaVuSans-63" x="169.091797"/>
      <use xlink:href="#DejaVuSans-68" x="224.072266"/>
      <use xlink:href="#DejaVuSans-65" x="287.451172"/>
      <use xlink:href="#DejaVuSans-64" x="348.974609"/>
      <use xlink:href="#DejaVuSans-3c" x="412.451172"/>
      <use xlink:href="#DejaVuSans-33" x="496.240234"/>
      <use xlink:href="#DejaVuSans-32" x="559.863281"/>
      <use xlink:href="#DejaVuSans-2c" x="623.486328"/>
      <use xlink:href="#DejaVuSans-20" x="655.273438"/>
      <use xlink:href="#DejaVuSans-45" x="687.060547"/>
      <use xlink:href="#DejaVuSans-79" x="750.244141"/>
      <use xlink:href="#DejaVuSans-74" x="809.423828"/>
      <use xlink:href="#DejaVuSans-7a" x="848.632812"/>
      <use xlink:href="#DejaVuSans-69" x="901.123047"/>
      <use xlink:href="#DejaVuSans-6e" x="928.90625"/>
      <use xlink:href="#DejaVuSans-67" x="992.285156"/>
      <use xlink:href="#DejaVuSans-65" x="1055.761719"/>
      <use xlink:href="#DejaVuSans-72" x="1117.285156"/>
      <use xlink:href="#DejaVuSans-2c" x="1158.398438"/>
      <use xlink:href="#DejaVuSans-20" x="1190.185547"/>
      <use xlink:href="#DejaVuSans-45" x="1221.972656"/>
      <use xlink:href="#DejaVuSans-79" x="1285.15625"/>
      <use xlink:href="#DejaVuSans-74" x="1344.335938"/>
      <use xlink:href="#DejaVuSans-7a" x="1383.544922"/>
      <use xlink:href="#DejaVuSans-69" x="1436.035156"/>
      <use xlink:href="#DejaVuSans-6e" x="1463.818359"/>
      <use xlink:href="#DejaVuSans-67" x="1527.197266"/>
      <use xlink:href="#DejaVuSans-65" x="1590.673828"/>
      <use xlink:href="#DejaVuSans-72" x="1652.197266"/>
      <use xlink:href="#DejaVuSans-3a" x="1691.560547"/>
      <use xlink:href="#DejaVuSans-3a" x="1725.251953"/>
      <use xlink:href="#DejaVuSans-62" x="1758.943359"/>
      <use xlink:href="#DejaVuSans-61" x="1822.419922"/>
      <use xlink:href="#DejaVuSans-74" x="1883.699219"/>
      <use xlink:href="#DejaVuSans-63" x="1922.908203"/>
      <use xlink:href="#DejaVuSans-68" x="1977.888672"/>
      <use xlink:href="#DejaVuSans-5f" x="2041.267578"/>
      <use xlink:href="#DejaVuSans-69" x="2091.267578"/>
      <use xlink:href="#DejaVuSans-6d" x="2119.050781"/>
      <use xlink:href="#DejaVuSans-70" x="2216.462891"/>
      <use xlink:href="#DejaVuSans-6c" x="2279.939453"/>
      <use xlink:href="#DejaVuSans-3c" x="2307.722656"/>
      <use xlink:href="#DejaVuSans-33" x="2391.511719"/>
      <use xlink:href="#DejaVuSans-32" x="2455.134766"/>
      <use xlink:href="#DejaVuSans-3e" x="2518.757812"/>
      <use xlink:href="#DejaVuSans-3e" x="2602.546875"/>
     </g>
    </g>
    <g id="line2d_75">
     <path d="M 55.965625 123.518125 
L 65.965625 123.518125 
L 75.965625 123.518125 
" style="fill: none; stroke: #17becf; stroke-width: 1.5; stroke-linecap: square"/>
    </g>
    <g id="text_47">
     <!-- Batched&lt;64, Eytzinger, Eytzinger::batch_impl&lt;64&gt;&gt; -->
     <g transform="translate(83.965625 127.018125) scale(0.1 -0.1)">
      <use xlink:href="#DejaVuSans-42"/>
      <use xlink:href="#DejaVuSans-61" x="68.603516"/>
      <use xlink:href="#DejaVuSans-74" x="129.882812"/>
      <use xlink:href="#DejaVuSans-63" x="169.091797"/>
      <use xlink:href="#DejaVuSans-68" x="224.072266"/>
      <use xlink:href="#DejaVuSans-65" x="287.451172"/>
      <use xlink:href="#DejaVuSans-64" x="348.974609"/>
      <use xlink:href="#DejaVuSans-3c" x="412.451172"/>
      <use xlink:href="#DejaVuSans-36" x="496.240234"/>
      <use xlink:href="#DejaVuSans-34" x="559.863281"/>
      <use xlink:href="#DejaVuSans-2c" x="623.486328"/>
      <use xlink:href="#DejaVuSans-20" x="655.273438"/>
      <use xlink:href="#DejaVuSans-45" x="687.060547"/>
      <use xlink:href="#DejaVuSans-79" x="750.244141"/>
      <use xlink:href="#DejaVuSans-74" x="809.423828"/>
      <use xlink:href="#DejaVuSans-7a" x="848.632812"/>
      <use xlink:href="#DejaVuSans-69" x="901.123047"/>
      <use xlink:href="#DejaVuSans-6e" x="928.90625"/>
      <use xlink:href="#DejaVuSans-67" x="992.285156"/>
      <use xlink:href="#DejaVuSans-65" x="1055.761719"/>
      <use xlink:href="#DejaVuSans-72" x="1117.285156"/>
      <use xlink:href="#DejaVuSans-2c" x="1158.398438"/>
      <use xlink:href="#DejaVuSans-20" x="1190.185547"/>
      <use xlink:href="#DejaVuSans-45" x="1221.972656"/>
      <use xlink:href="#DejaVuSans-79" x="1285.15625"/>
      <use xlink:href="#DejaVuSans-74" x="1344.335938"/>
      <use xlink:href="#DejaVuSans-7a" x="1383.544922"/>
      <use xlink:href="#DejaVuSans-69" x="1436.035156"/>
      <use xlink:href="#DejaVuSans-6e" x="1463.818359"/>
      <use xlink:href="#DejaVuSans-67" x="1527.197266"/>
      <use xlink:href="#DejaVuSans-65" x="1590.673828"/>
      <use xlink:href="#DejaVuSans-72" x="1652.197266"/>
      <use xlink:href="#DejaVuSans-3a" x="1691.560547"/>
      <use xlink:href="#DejaVuSans-3a" x="1725.251953"/>
      <use xlink:href="#DejaVuSans-62" x="1758.943359"/>
      <use xlink:href="#DejaVuSans-61" x="1822.419922"/>
      <use xlink:href="#DejaVuSans-74" x="1883.699219"/>
      <use xlink:href="#DejaVuSans-63" x="1922.908203"/>
      <use xlink:href="#DejaVuSans-68" x="1977.888672"/>
      <use xlink:href="#DejaVuSans-5f" x="2041.267578"/>
      <use xlink:href="#DejaVuSans-69" x="2091.267578"/>
      <use xlink:href="#DejaVuSans-6d" x="2119.050781"/>
      <use xlink:href="#DejaVuSans-70" x="2216.462891"/>
      <use xlink:href="#DejaVuSans-6c" x="2279.939453"/>
      <use xlink:href="#DejaVuSans-3c" x="2307.722656"/>
      <use xlink:href="#DejaVuSans-36" x="2391.511719"/>
      <use xlink:href="#DejaVuSans-34" x="2455.134766"/>
      <use xlink:href="#DejaVuSans-3e" x="2518.757812"/>
      <use xlink:href="#DejaVuSans-3e" x="2602.546875"/>
     </g>
    </g>
    <g id="line2d_76">
     <path d="M 55.965625 138.474375 
L 65.965625 138.474375 
L 75.965625 138.474375 
" style="fill: none; stroke: #1f77b4; stroke-width: 1.5; stroke-linecap: square"/>
    </g>
    <g id="text_48">
     <!-- Batched&lt;128, Eytzinger, Eytzinger::batch_impl&lt;128&gt;&gt; -->
     <g transform="translate(83.965625 141.974375) scale(0.1 -0.1)">
      <use xlink:href="#DejaVuSans-42"/>
      <use xlink:href="#DejaVuSans-61" x="68.603516"/>
      <use xlink:href="#DejaVuSans-74" x="129.882812"/>
      <use xlink:href="#DejaVuSans-63" x="169.091797"/>
      <use xlink:href="#DejaVuSans-68" x="224.072266"/>
      <use xlink:href="#DejaVuSans-65" x="287.451172"/>
      <use xlink:href="#DejaVuSans-64" x="348.974609"/>
      <use xlink:href="#DejaVuSans-3c" x="412.451172"/>
      <use xlink:href="#DejaVuSans-31" x="496.240234"/>
      <use xlink:href="#DejaVuSans-32" x="559.863281"/>
      <use xlink:href="#DejaVuSans-38" x="623.486328"/>
      <use xlink:href="#DejaVuSans-2c" x="687.109375"/>
      <use xlink:href="#DejaVuSans-20" x="718.896484"/>
      <use xlink:href="#DejaVuSans-45" x="750.683594"/>
      <use xlink:href="#DejaVuSans-79" x="813.867188"/>
      <use xlink:href="#DejaVuSans-74" x="873.046875"/>
      <use xlink:href="#DejaVuSans-7a" x="912.255859"/>
      <use xlink:href="#DejaVuSans-69" x="964.746094"/>
      <use xlink:href="#DejaVuSans-6e" x="992.529297"/>
      <use xlink:href="#DejaVuSans-67" x="1055.908203"/>
      <use xlink:href="#DejaVuSans-65" x="1119.384766"/>
      <use xlink:href="#DejaVuSans-72" x="1180.908203"/>
      <use xlink:href="#DejaVuSans-2c" x="1222.021484"/>
      <use xlink:href="#DejaVuSans-20" x="1253.808594"/>
      <use xlink:href="#DejaVuSans-45" x="1285.595703"/>
      <use xlink:href="#DejaVuSans-79" x="1348.779297"/>
      <use xlink:href="#DejaVuSans-74" x="1407.958984"/>
      <use xlink:href="#DejaVuSans-7a" x="1447.167969"/>
      <use xlink:href="#DejaVuSans-69" x="1499.658203"/>
      <use xlink:href="#DejaVuSans-6e" x="1527.441406"/>
      <use xlink:href="#DejaVuSans-67" x="1590.820312"/>
      <use xlink:href="#DejaVuSans-65" x="1654.296875"/>
      <use xlink:href="#DejaVuSans-72" x="1715.820312"/>
      <use xlink:href="#DejaVuSans-3a" x="1755.183594"/>
      <use xlink:href="#DejaVuSans-3a" x="1788.875"/>
      <use xlink:href="#DejaVuSans-62" x="1822.566406"/>
      <use xlink:href="#DejaVuSans-61" x="1886.042969"/>
      <use xlink:href="#DejaVuSans-74" x="1947.322266"/>
      <use xlink:href="#DejaVuSans-63" x="1986.53125"/>
      <use xlink:href="#DejaVuSans-68" x="2041.511719"/>
      <use xlink:href="#DejaVuSans-5f" x="2104.890625"/>
      <use xlink:href="#DejaVuSans-69" x="2154.890625"/>
      <use xlink:href="#DejaVuSans-6d" x="2182.673828"/>
      <use xlink:href="#DejaVuSans-70" x="2280.085938"/>
      <use xlink:href="#DejaVuSans-6c" x="2343.5625"/>
      <use xlink:href="#DejaVuSans-3c" x="2371.345703"/>
      <use xlink:href="#DejaVuSans-31" x="2455.134766"/>
      <use xlink:href="#DejaVuSans-32" x="2518.757812"/>
      <use xlink:href="#DejaVuSans-38" x="2582.380859"/>
      <use xlink:href="#DejaVuSans-3e" x="2646.003906"/>
      <use xlink:href="#DejaVuSans-3e" x="2729.792969"/>
     </g>
    </g>
   </g>
  </g>
 </g>
 <defs>
  <clipPath id="pdb29454f14">
   <rect x="46.965625" y="50.594688" width="613.8" height="443.52"/>
  </clipPath>
 </defs>
</svg>
