<?xml version="1.0" encoding="utf-8" standalone="no"?>
<!DOCTYPE svg PUBLIC "-//W3C//DTD SVG 1.1//EN"
  "http://www.w3.org/Graphics/SVG/1.1/DTD/svg11.dtd">
<svg xmlns:xlink="http://www.w3.org/1999/xlink" width="667.965625pt" height="531.670938pt" viewBox="0 0 667.965625 531.670938" xmlns="http://www.w3.org/2000/svg" version="1.1">
 <metadata>
  <rdf:RDF xmlns:dc="http://purl.org/dc/elements/1.1/" xmlns:cc="http://creativecommons.org/ns#" xmlns:rdf="http://www.w3.org/1999/02/22-rdf-syntax-ns#">
   <cc:Work>
    <dc:type rdf:resource="http://purl.org/dc/dcmitype/StillImage"/>
    <dc:date>2025-03-01T18:57:03.107278</dc:date>
    <dc:format>image/svg+xml</dc:format>
    <dc:creator>
     <cc:Agent>
      <dc:title>Matplotlib v3.9.2, https://matplotlib.org/</dc:title>
     </cc:Agent>
    </dc:creator>
   </cc:Work>
  </rdf:RDF>
 </metadata>
 <defs>
  <style type="text/css">*{stroke-linejoin: round; stroke-linecap: butt}</style>
 </defs>
 <g id="figure_1">
  <g id="patch_1">
   <path d="M -0 531.670938 
L 667.965625 531.670938 
L 667.965625 0 
L -0 0 
z
" style="fill: #ffffff"/>
  </g>
  <g id="axes_1">
   <g id="patch_2">
    <path d="M 46.965625 494.114688 
L 660.765625 494.114688 
L 660.765625 50.594688 
L 46.965625 50.594688 
z
" style="fill: #ffffff"/>
   </g>
   <g id="line2d_1">
    <path d="M 298.818704 494.114688 
L 298.818704 50.594688 
" clip-path="url(#p258bb04c9f)" style="fill: none; stroke-dasharray: 5.55,2.4; stroke-dashoffset: 0; stroke: #ff0000; stroke-width: 1.5"/>
   </g>
   <g id="line2d_2">
    <path d="M 388.399935 494.114688 
L 388.399935 50.594688 
" clip-path="url(#p258bb04c9f)" style="fill: none; stroke-dasharray: 5.55,2.4; stroke-dashoffset: 0; stroke: #ff0000; stroke-width: 1.5"/>
   </g>
   <g id="line2d_3">
    <path d="M 455.585859 494.114688 
L 455.585859 50.594688 
" clip-path="url(#p258bb04c9f)" style="fill: none; stroke-dasharray: 5.55,2.4; stroke-dashoffset: 0; stroke: #ff0000; stroke-width: 1.5"/>
   </g>
   <g id="axes_2">
    <g id="patch_3">
     <path d="M 46.965625 50.594688 
L 660.765625 50.594688 
L 660.765625 50.594687 
L 46.965625 50.594687 
z
" style="fill: #ffffff"/>
    </g>
    <g id="matplotlib.axis_1">
     <g id="xtick_1">
      <g id="line2d_4">
       <defs>
        <path id="m4186f26641" d="M 0 0 
L 0 -3.5 
" style="stroke: #000000; stroke-width: 0.8"/>
       </defs>
       <g>
        <use xlink:href="#m4186f26641" x="52.470317" y="50.594687" style="stroke: #000000; stroke-width: 0.8"/>
       </g>
      </g>
      <g id="text_1">
       <!-- $\mathdefault{2^{2}}$ -->
       <g transform="translate(46.870317 41.515) scale(0.1 -0.1)">
        <defs>
         <path id="DejaVuSans-32" d="M 1228 531 
L 3431 531 
L 3431 0 
L 469 0 
L 469 531 
Q 828 903 1448 1529 
Q 2069 2156 2228 2338 
Q 2531 2678 2651 2914 
Q 2772 3150 2772 3378 
Q 2772 3750 2511 3984 
Q 2250 4219 1831 4219 
Q 1534 4219 1204 4116 
Q 875 4013 500 3803 
L 500 4441 
Q 881 4594 1212 4672 
Q 1544 4750 1819 4750 
Q 2544 4750 2975 4387 
Q 3406 4025 3406 3419 
Q 3406 3131 3298 2873 
Q 3191 2616 2906 2266 
Q 2828 2175 2409 1742 
Q 1991 1309 1228 531 
z
" transform="scale(0.015625)"/>
        </defs>
        <use xlink:href="#DejaVuSans-32" transform="translate(0 0.765625)"/>
        <use xlink:href="#DejaVuSans-32" transform="translate(64.580078 39.046875) scale(0.7)"/>
       </g>
      </g>
     </g>
     <g id="xtick_2">
      <g id="line2d_5">
       <g>
        <use xlink:href="#m4186f26641" x="97.260933" y="50.594687" style="stroke: #000000; stroke-width: 0.8"/>
       </g>
      </g>
      <g id="text_2">
       <!-- $\mathdefault{2^{4}}$ -->
       <g transform="translate(91.660933 41.515) scale(0.1 -0.1)">
        <defs>
         <path id="DejaVuSans-34" d="M 2419 4116 
L 825 1625 
L 2419 1625 
L 2419 4116 
z
M 2253 4666 
L 3047 4666 
L 3047 1625 
L 3713 1625 
L 3713 1100 
L 3047 1100 
L 3047 0 
L 2419 0 
L 2419 1100 
L 313 1100 
L 313 1709 
L 2253 4666 
z
" transform="scale(0.015625)"/>
        </defs>
        <use xlink:href="#DejaVuSans-32" transform="translate(0 0.684375)"/>
        <use xlink:href="#DejaVuSans-34" transform="translate(64.580078 38.965625) scale(0.7)"/>
       </g>
      </g>
     </g>
     <g id="xtick_3">
      <g id="line2d_6">
       <g>
        <use xlink:href="#m4186f26641" x="142.051549" y="50.594687" style="stroke: #000000; stroke-width: 0.8"/>
       </g>
      </g>
      <g id="text_3">
       <!-- $\mathdefault{2^{6}}$ -->
       <g transform="translate(136.451549 41.515) scale(0.1 -0.1)">
        <defs>
         <path id="DejaVuSans-36" d="M 2113 2584 
Q 1688 2584 1439 2293 
Q 1191 2003 1191 1497 
Q 1191 994 1439 701 
Q 1688 409 2113 409 
Q 2538 409 2786 701 
Q 3034 994 3034 1497 
Q 3034 2003 2786 2293 
Q 2538 2584 2113 2584 
z
M 3366 4563 
L 3366 3988 
Q 3128 4100 2886 4159 
Q 2644 4219 2406 4219 
Q 1781 4219 1451 3797 
Q 1122 3375 1075 2522 
Q 1259 2794 1537 2939 
Q 1816 3084 2150 3084 
Q 2853 3084 3261 2657 
Q 3669 2231 3669 1497 
Q 3669 778 3244 343 
Q 2819 -91 2113 -91 
Q 1303 -91 875 529 
Q 447 1150 447 2328 
Q 447 3434 972 4092 
Q 1497 4750 2381 4750 
Q 2619 4750 2861 4703 
Q 3103 4656 3366 4563 
z
" transform="scale(0.015625)"/>
        </defs>
        <use xlink:href="#DejaVuSans-32" transform="translate(0 0.765625)"/>
        <use xlink:href="#DejaVuSans-36" transform="translate(64.580078 39.046875) scale(0.7)"/>
       </g>
      </g>
     </g>
     <g id="xtick_4">
      <g id="line2d_7">
       <g>
        <use xlink:href="#m4186f26641" x="186.842164" y="50.594687" style="stroke: #000000; stroke-width: 0.8"/>
       </g>
      </g>
      <g id="text_4">
       <!-- $\mathdefault{2^{8}}$ -->
       <g transform="translate(181.242164 41.515) scale(0.1 -0.1)">
        <defs>
         <path id="DejaVuSans-38" d="M 2034 2216 
Q 1584 2216 1326 1975 
Q 1069 1734 1069 1313 
Q 1069 891 1326 650 
Q 1584 409 2034 409 
Q 2484 409 2743 651 
Q 3003 894 3003 1313 
Q 3003 1734 2745 1975 
Q 2488 2216 2034 2216 
z
M 1403 2484 
Q 997 2584 770 2862 
Q 544 3141 544 3541 
Q 544 4100 942 4425 
Q 1341 4750 2034 4750 
Q 2731 4750 3128 4425 
Q 3525 4100 3525 3541 
Q 3525 3141 3298 2862 
Q 3072 2584 2669 2484 
Q 3125 2378 3379 2068 
Q 3634 1759 3634 1313 
Q 3634 634 3220 271 
Q 2806 -91 2034 -91 
Q 1263 -91 848 271 
Q 434 634 434 1313 
Q 434 1759 690 2068 
Q 947 2378 1403 2484 
z
M 1172 3481 
Q 1172 3119 1398 2916 
Q 1625 2713 2034 2713 
Q 2441 2713 2670 2916 
Q 2900 3119 2900 3481 
Q 2900 3844 2670 4047 
Q 2441 4250 2034 4250 
Q 1625 4250 1398 4047 
Q 1172 3844 1172 3481 
z
" transform="scale(0.015625)"/>
        </defs>
        <use xlink:href="#DejaVuSans-32" transform="translate(0 0.765625)"/>
        <use xlink:href="#DejaVuSans-38" transform="translate(64.580078 39.046875) scale(0.7)"/>
       </g>
      </g>
     </g>
     <g id="xtick_5">
      <g id="line2d_8">
       <g>
        <use xlink:href="#m4186f26641" x="231.63278" y="50.594687" style="stroke: #000000; stroke-width: 0.8"/>
       </g>
      </g>
      <g id="text_5">
       <!-- $\mathdefault{2^{10}}$ -->
       <g transform="translate(223.78278 41.515) scale(0.1 -0.1)">
        <defs>
         <path id="DejaVuSans-31" d="M 794 531 
L 1825 531 
L 1825 4091 
L 703 3866 
L 703 4441 
L 1819 4666 
L 2450 4666 
L 2450 531 
L 3481 531 
L 3481 0 
L 794 0 
L 794 531 
z
" transform="scale(0.015625)"/>
         <path id="DejaVuSans-30" d="M 2034 4250 
Q 1547 4250 1301 3770 
Q 1056 3291 1056 2328 
Q 1056 1369 1301 889 
Q 1547 409 2034 409 
Q 2525 409 2770 889 
Q 3016 1369 3016 2328 
Q 3016 3291 2770 3770 
Q 2525 4250 2034 4250 
z
M 2034 4750 
Q 2819 4750 3233 4129 
Q 3647 3509 3647 2328 
Q 3647 1150 3233 529 
Q 2819 -91 2034 -91 
Q 1250 -91 836 529 
Q 422 1150 422 2328 
Q 422 3509 836 4129 
Q 1250 4750 2034 4750 
z
" transform="scale(0.015625)"/>
        </defs>
        <use xlink:href="#DejaVuSans-32" transform="translate(0 0.765625)"/>
        <use xlink:href="#DejaVuSans-31" transform="translate(64.580078 39.046875) scale(0.7)"/>
        <use xlink:href="#DejaVuSans-30" transform="translate(109.116211 39.046875) scale(0.7)"/>
       </g>
      </g>
     </g>
     <g id="xtick_6">
      <g id="line2d_9">
       <g>
        <use xlink:href="#m4186f26641" x="276.423396" y="50.594687" style="stroke: #000000; stroke-width: 0.8"/>
       </g>
      </g>
      <g id="text_6">
       <!-- $\mathdefault{2^{12}}$ -->
       <g transform="translate(268.573396 41.515) scale(0.1 -0.1)">
        <use xlink:href="#DejaVuSans-32" transform="translate(0 0.765625)"/>
        <use xlink:href="#DejaVuSans-31" transform="translate(64.580078 39.046875) scale(0.7)"/>
        <use xlink:href="#DejaVuSans-32" transform="translate(109.116211 39.046875) scale(0.7)"/>
       </g>
      </g>
     </g>
     <g id="xtick_7">
      <g id="line2d_10">
       <g>
        <use xlink:href="#m4186f26641" x="321.214012" y="50.594687" style="stroke: #000000; stroke-width: 0.8"/>
       </g>
      </g>
      <g id="text_7">
       <!-- $\mathdefault{2^{14}}$ -->
       <g transform="translate(313.364012 41.515) scale(0.1 -0.1)">
        <use xlink:href="#DejaVuSans-32" transform="translate(0 0.684375)"/>
        <use xlink:href="#DejaVuSans-31" transform="translate(64.580078 38.965625) scale(0.7)"/>
        <use xlink:href="#DejaVuSans-34" transform="translate(109.116211 38.965625) scale(0.7)"/>
       </g>
      </g>
     </g>
     <g id="xtick_8">
      <g id="line2d_11">
       <g>
        <use xlink:href="#m4186f26641" x="366.004627" y="50.594687" style="stroke: #000000; stroke-width: 0.8"/>
       </g>
      </g>
      <g id="text_8">
       <!-- $\mathdefault{2^{16}}$ -->
       <g transform="translate(358.154627 41.515) scale(0.1 -0.1)">
        <use xlink:href="#DejaVuSans-32" transform="translate(0 0.765625)"/>
        <use xlink:href="#DejaVuSans-31" transform="translate(64.580078 39.046875) scale(0.7)"/>
        <use xlink:href="#DejaVuSans-36" transform="translate(109.116211 39.046875) scale(0.7)"/>
       </g>
      </g>
     </g>
     <g id="xtick_9">
      <g id="line2d_12">
       <g>
        <use xlink:href="#m4186f26641" x="410.795243" y="50.594687" style="stroke: #000000; stroke-width: 0.8"/>
       </g>
      </g>
      <g id="text_9">
       <!-- $\mathdefault{2^{18}}$ -->
       <g transform="translate(402.945243 41.515) scale(0.1 -0.1)">
        <use xlink:href="#DejaVuSans-32" transform="translate(0 0.765625)"/>
        <use xlink:href="#DejaVuSans-31" transform="translate(64.580078 39.046875) scale(0.7)"/>
        <use xlink:href="#DejaVuSans-38" transform="translate(109.116211 39.046875) scale(0.7)"/>
       </g>
      </g>
     </g>
     <g id="xtick_10">
      <g id="line2d_13">
       <g>
        <use xlink:href="#m4186f26641" x="455.585859" y="50.594687" style="stroke: #000000; stroke-width: 0.8"/>
       </g>
      </g>
      <g id="text_10">
       <!-- $\mathdefault{2^{20}}$ -->
       <g transform="translate(447.735859 41.515) scale(0.1 -0.1)">
        <use xlink:href="#DejaVuSans-32" transform="translate(0 0.765625)"/>
        <use xlink:href="#DejaVuSans-32" transform="translate(64.580078 39.046875) scale(0.7)"/>
        <use xlink:href="#DejaVuSans-30" transform="translate(109.116211 39.046875) scale(0.7)"/>
       </g>
      </g>
     </g>
     <g id="xtick_11">
      <g id="line2d_14">
       <g>
        <use xlink:href="#m4186f26641" x="500.376474" y="50.594687" style="stroke: #000000; stroke-width: 0.8"/>
       </g>
      </g>
      <g id="text_11">
       <!-- $\mathdefault{2^{22}}$ -->
       <g transform="translate(492.526474 41.515) scale(0.1 -0.1)">
        <use xlink:href="#DejaVuSans-32" transform="translate(0 0.765625)"/>
        <use xlink:href="#DejaVuSans-32" transform="translate(64.580078 39.046875) scale(0.7)"/>
        <use xlink:href="#DejaVuSans-32" transform="translate(109.116211 39.046875) scale(0.7)"/>
       </g>
      </g>
     </g>
     <g id="xtick_12">
      <g id="line2d_15">
       <g>
        <use xlink:href="#m4186f26641" x="545.16709" y="50.594687" style="stroke: #000000; stroke-width: 0.8"/>
       </g>
      </g>
      <g id="text_12">
       <!-- $\mathdefault{2^{24}}$ -->
       <g transform="translate(537.31709 41.515) scale(0.1 -0.1)">
        <use xlink:href="#DejaVuSans-32" transform="translate(0 0.765625)"/>
        <use xlink:href="#DejaVuSans-32" transform="translate(64.580078 39.046875) scale(0.7)"/>
        <use xlink:href="#DejaVuSans-34" transform="translate(109.116211 39.046875) scale(0.7)"/>
       </g>
      </g>
     </g>
     <g id="xtick_13">
      <g id="line2d_16">
       <g>
        <use xlink:href="#m4186f26641" x="589.957706" y="50.594687" style="stroke: #000000; stroke-width: 0.8"/>
       </g>
      </g>
      <g id="text_13">
       <!-- $\mathdefault{2^{26}}$ -->
       <g transform="translate(582.107706 41.515) scale(0.1 -0.1)">
        <use xlink:href="#DejaVuSans-32" transform="translate(0 0.765625)"/>
        <use xlink:href="#DejaVuSans-32" transform="translate(64.580078 39.046875) scale(0.7)"/>
        <use xlink:href="#DejaVuSans-36" transform="translate(109.116211 39.046875) scale(0.7)"/>
       </g>
      </g>
     </g>
     <g id="xtick_14">
      <g id="line2d_17">
       <g>
        <use xlink:href="#m4186f26641" x="634.748322" y="50.594687" style="stroke: #000000; stroke-width: 0.8"/>
       </g>
      </g>
      <g id="text_14">
       <!-- $\mathdefault{2^{28}}$ -->
       <g transform="translate(626.898322 41.515) scale(0.1 -0.1)">
        <use xlink:href="#DejaVuSans-32" transform="translate(0 0.765625)"/>
        <use xlink:href="#DejaVuSans-32" transform="translate(64.580078 39.046875) scale(0.7)"/>
        <use xlink:href="#DejaVuSans-38" transform="translate(109.116211 39.046875) scale(0.7)"/>
       </g>
      </g>
     </g>
     <g id="text_15">
      <!-- Array length (u32) -->
      <g transform="translate(307.85 29.916562) scale(0.1 -0.1)">
       <defs>
        <path id="DejaVuSans-41" d="M 2188 4044 
L 1331 1722 
L 3047 1722 
L 2188 4044 
z
M 1831 4666 
L 2547 4666 
L 4325 0 
L 3669 0 
L 3244 1197 
L 1141 1197 
L 716 0 
L 50 0 
L 1831 4666 
z
" transform="scale(0.015625)"/>
        <path id="DejaVuSans-72" d="M 2631 2963 
Q 2534 3019 2420 3045 
Q 2306 3072 2169 3072 
Q 1681 3072 1420 2755 
Q 1159 2438 1159 1844 
L 1159 0 
L 581 0 
L 581 3500 
L 1159 3500 
L 1159 2956 
Q 1341 3275 1631 3429 
Q 1922 3584 2338 3584 
Q 2397 3584 2469 3576 
Q 2541 3569 2628 3553 
L 2631 2963 
z
" transform="scale(0.015625)"/>
        <path id="DejaVuSans-61" d="M 2194 1759 
Q 1497 1759 1228 1600 
Q 959 1441 959 1056 
Q 959 750 1161 570 
Q 1363 391 1709 391 
Q 2188 391 2477 730 
Q 2766 1069 2766 1631 
L 2766 1759 
L 2194 1759 
z
M 3341 1997 
L 3341 0 
L 2766 0 
L 2766 531 
Q 2569 213 2275 61 
Q 1981 -91 1556 -91 
Q 1019 -91 701 211 
Q 384 513 384 1019 
Q 384 1609 779 1909 
Q 1175 2209 1959 2209 
L 2766 2209 
L 2766 2266 
Q 2766 2663 2505 2880 
Q 2244 3097 1772 3097 
Q 1472 3097 1187 3025 
Q 903 2953 641 2809 
L 641 3341 
Q 956 3463 1253 3523 
Q 1550 3584 1831 3584 
Q 2591 3584 2966 3190 
Q 3341 2797 3341 1997 
z
" transform="scale(0.015625)"/>
        <path id="DejaVuSans-79" d="M 2059 -325 
Q 1816 -950 1584 -1140 
Q 1353 -1331 966 -1331 
L 506 -1331 
L 506 -850 
L 844 -850 
Q 1081 -850 1212 -737 
Q 1344 -625 1503 -206 
L 1606 56 
L 191 3500 
L 800 3500 
L 1894 763 
L 2988 3500 
L 3597 3500 
L 2059 -325 
z
" transform="scale(0.015625)"/>
        <path id="DejaVuSans-20" transform="scale(0.015625)"/>
        <path id="DejaVuSans-6c" d="M 603 4863 
L 1178 4863 
L 1178 0 
L 603 0 
L 603 4863 
z
" transform="scale(0.015625)"/>
        <path id="DejaVuSans-65" d="M 3597 1894 
L 3597 1613 
L 953 1613 
Q 991 1019 1311 708 
Q 1631 397 2203 397 
Q 2534 397 2845 478 
Q 3156 559 3463 722 
L 3463 178 
Q 3153 47 2828 -22 
Q 2503 -91 2169 -91 
Q 1331 -91 842 396 
Q 353 884 353 1716 
Q 353 2575 817 3079 
Q 1281 3584 2069 3584 
Q 2775 3584 3186 3129 
Q 3597 2675 3597 1894 
z
M 3022 2063 
Q 3016 2534 2758 2815 
Q 2500 3097 2075 3097 
Q 1594 3097 1305 2825 
Q 1016 2553 972 2059 
L 3022 2063 
z
" transform="scale(0.015625)"/>
        <path id="DejaVuSans-6e" d="M 3513 2113 
L 3513 0 
L 2938 0 
L 2938 2094 
Q 2938 2591 2744 2837 
Q 2550 3084 2163 3084 
Q 1697 3084 1428 2787 
Q 1159 2491 1159 1978 
L 1159 0 
L 581 0 
L 581 3500 
L 1159 3500 
L 1159 2956 
Q 1366 3272 1645 3428 
Q 1925 3584 2291 3584 
Q 2894 3584 3203 3211 
Q 3513 2838 3513 2113 
z
" transform="scale(0.015625)"/>
        <path id="DejaVuSans-67" d="M 2906 1791 
Q 2906 2416 2648 2759 
Q 2391 3103 1925 3103 
Q 1463 3103 1205 2759 
Q 947 2416 947 1791 
Q 947 1169 1205 825 
Q 1463 481 1925 481 
Q 2391 481 2648 825 
Q 2906 1169 2906 1791 
z
M 3481 434 
Q 3481 -459 3084 -895 
Q 2688 -1331 1869 -1331 
Q 1566 -1331 1297 -1286 
Q 1028 -1241 775 -1147 
L 775 -588 
Q 1028 -725 1275 -790 
Q 1522 -856 1778 -856 
Q 2344 -856 2625 -561 
Q 2906 -266 2906 331 
L 2906 616 
Q 2728 306 2450 153 
Q 2172 0 1784 0 
Q 1141 0 747 490 
Q 353 981 353 1791 
Q 353 2603 747 3093 
Q 1141 3584 1784 3584 
Q 2172 3584 2450 3431 
Q 2728 3278 2906 2969 
L 2906 3500 
L 3481 3500 
L 3481 434 
z
" transform="scale(0.015625)"/>
        <path id="DejaVuSans-74" d="M 1172 4494 
L 1172 3500 
L 2356 3500 
L 2356 3053 
L 1172 3053 
L 1172 1153 
Q 1172 725 1289 603 
Q 1406 481 1766 481 
L 2356 481 
L 2356 0 
L 1766 0 
Q 1100 0 847 248 
Q 594 497 594 1153 
L 594 3053 
L 172 3053 
L 172 3500 
L 594 3500 
L 594 4494 
L 1172 4494 
z
" transform="scale(0.015625)"/>
        <path id="DejaVuSans-68" d="M 3513 2113 
L 3513 0 
L 2938 0 
L 2938 2094 
Q 2938 2591 2744 2837 
Q 2550 3084 2163 3084 
Q 1697 3084 1428 2787 
Q 1159 2491 1159 1978 
L 1159 0 
L 581 0 
L 581 4863 
L 1159 4863 
L 1159 2956 
Q 1366 3272 1645 3428 
Q 1925 3584 2291 3584 
Q 2894 3584 3203 3211 
Q 3513 2838 3513 2113 
z
" transform="scale(0.015625)"/>
        <path id="DejaVuSans-28" d="M 1984 4856 
Q 1566 4138 1362 3434 
Q 1159 2731 1159 2009 
Q 1159 1288 1364 580 
Q 1569 -128 1984 -844 
L 1484 -844 
Q 1016 -109 783 600 
Q 550 1309 550 2009 
Q 550 2706 781 3412 
Q 1013 4119 1484 4856 
L 1984 4856 
z
" transform="scale(0.015625)"/>
        <path id="DejaVuSans-75" d="M 544 1381 
L 544 3500 
L 1119 3500 
L 1119 1403 
Q 1119 906 1312 657 
Q 1506 409 1894 409 
Q 2359 409 2629 706 
Q 2900 1003 2900 1516 
L 2900 3500 
L 3475 3500 
L 3475 0 
L 2900 0 
L 2900 538 
Q 2691 219 2414 64 
Q 2138 -91 1772 -91 
Q 1169 -91 856 284 
Q 544 659 544 1381 
z
M 1991 3584 
L 1991 3584 
z
" transform="scale(0.015625)"/>
        <path id="DejaVuSans-33" d="M 2597 2516 
Q 3050 2419 3304 2112 
Q 3559 1806 3559 1356 
Q 3559 666 3084 287 
Q 2609 -91 1734 -91 
Q 1441 -91 1130 -33 
Q 819 25 488 141 
L 488 750 
Q 750 597 1062 519 
Q 1375 441 1716 441 
Q 2309 441 2620 675 
Q 2931 909 2931 1356 
Q 2931 1769 2642 2001 
Q 2353 2234 1838 2234 
L 1294 2234 
L 1294 2753 
L 1863 2753 
Q 2328 2753 2575 2939 
Q 2822 3125 2822 3475 
Q 2822 3834 2567 4026 
Q 2313 4219 1838 4219 
Q 1578 4219 1281 4162 
Q 984 4106 628 3988 
L 628 4550 
Q 988 4650 1302 4700 
Q 1616 4750 1894 4750 
Q 2613 4750 3031 4423 
Q 3450 4097 3450 3541 
Q 3450 3153 3228 2886 
Q 3006 2619 2597 2516 
z
" transform="scale(0.015625)"/>
        <path id="DejaVuSans-29" d="M 513 4856 
L 1013 4856 
Q 1481 4119 1714 3412 
Q 1947 2706 1947 2009 
Q 1947 1309 1714 600 
Q 1481 -109 1013 -844 
L 513 -844 
Q 928 -128 1133 580 
Q 1338 1288 1338 2009 
Q 1338 2731 1133 3434 
Q 928 4138 513 4856 
z
" transform="scale(0.015625)"/>
       </defs>
       <use xlink:href="#DejaVuSans-41"/>
       <use xlink:href="#DejaVuSans-72" x="68.408203"/>
       <use xlink:href="#DejaVuSans-72" x="107.771484"/>
       <use xlink:href="#DejaVuSans-61" x="148.884766"/>
       <use xlink:href="#DejaVuSans-79" x="210.164062"/>
       <use xlink:href="#DejaVuSans-20" x="269.34375"/>
       <use xlink:href="#DejaVuSans-6c" x="301.130859"/>
       <use xlink:href="#DejaVuSans-65" x="328.914062"/>
       <use xlink:href="#DejaVuSans-6e" x="390.4375"/>
       <use xlink:href="#DejaVuSans-67" x="453.816406"/>
       <use xlink:href="#DejaVuSans-74" x="517.292969"/>
       <use xlink:href="#DejaVuSans-68" x="556.501953"/>
       <use xlink:href="#DejaVuSans-20" x="619.880859"/>
       <use xlink:href="#DejaVuSans-28" x="651.667969"/>
       <use xlink:href="#DejaVuSans-75" x="690.681641"/>
       <use xlink:href="#DejaVuSans-33" x="754.060547"/>
       <use xlink:href="#DejaVuSans-32" x="817.683594"/>
       <use xlink:href="#DejaVuSans-29" x="881.306641"/>
      </g>
     </g>
    </g>
    <g id="matplotlib.axis_2"/>
    <g id="patch_4">
     <path d="M 46.965625 50.594687 
L 660.765625 50.594687 
" style="fill: none; stroke: #000000; stroke-width: 0.8; stroke-linejoin: miter; stroke-linecap: square"/>
    </g>
   </g>
   <g id="PolyCollection_1">
    <path d="M 74.865625 484.182313 
L 74.865625 484.219811 
L 79.556398 484.299633 
L 84.411955 484.211754 
L 89.924798 484.25249 
L 94.632688 484.168635 
L 100.156266 482.388941 
L 105.26842 482.409301 
L 110.361348 482.383034 
L 115.341895 482.396072 
L 120.404759 480.684738 
L 125.420521 480.670488 
L 130.491444 480.688662 
L 135.651989 480.683178 
L 140.764143 480.683886 
L 145.857071 478.547719 
L 150.933635 478.649707 
L 155.982591 478.584082 
L 161.056721 478.568684 
L 166.167165 474.976037 
L 171.198957 474.914549 
L 176.303617 474.882054 
L 181.390168 474.893445 
L 186.4613 475.037085 
L 191.532937 472.638123 
L 196.599134 472.668761 
L 201.682827 472.654814 
L 206.745843 472.702318 
L 211.828474 470.575899 
L 216.89834 470.413847 
L 221.967664 470.58634 
L 227.046847 470.574819 
L 232.118177 468.475393 
L 237.191835 468.219036 
L 242.264279 468.467524 
L 247.333903 468.285181 
L 252.410653 468.399984 
L 257.481113 466.277775 
L 262.55469 466.17843 
L 267.626848 466.198914 
L 272.700838 466.216267 
L 277.773245 463.863816 
L 282.847412 463.615222 
L 287.918813 463.583639 
L 292.992191 463.512204 
L 298.065555 463.430909 
L 303.138102 460.476333 
L 308.210573 459.726564 
L 313.283465 459.140933 
L 318.356064 458.822364 
L 323.42881 454.016037 
L 328.501688 453.273664 
L 333.574396 452.96726 
L 338.647337 452.241708 
L 343.720056 446.312689 
L 348.792838 446.104483 
L 353.865608 445.65046 
L 358.938341 445.365181 
L 364.011048 445.067544 
L 369.083792 439.386061 
L 374.156471 438.713372 
L 379.229205 438.178613 
L 384.301927 437.00955 
L 389.374668 430.754027 
L 394.447406 428.25838 
L 399.52014 425.304098 
L 404.592884 422.635669 
L 409.665598 419.566609 
L 414.73835 411.95792 
L 419.811079 408.467749 
L 424.883802 406.437861 
L 429.956533 403.874895 
L 435.029256 396.275284 
L 440.101982 390.665518 
L 445.17471 389.213251 
L 450.247443 381.614127 
L 455.320172 370.235557 
L 460.392898 351.219637 
L 465.465626 335.867919 
L 470.538352 319.134161 
L 475.611079 308.798418 
L 480.683809 276.834086 
L 485.756536 267.040008 
L 490.829264 253.223868 
L 495.901992 240.022859 
L 500.974718 213.097704 
L 506.047445 201.481725 
L 511.120172 188.860742 
L 516.192899 174.209048 
L 521.265626 161.425235 
L 526.338353 129.744768 
L 531.411082 119.024224 
L 536.48381 105.288809 
L 541.556538 95.785337 
L 546.629267 53.874774 
L 551.701993 40.508726 
L 556.774719 33.48016 
L 561.847446 26.905891 
L 566.920173 12.491606 
L 571.992901 -28.044412 
L 577.065628 -52.871605 
L 582.138356 -53.932739 
L 587.211084 -58.92714 
L 592.283809 -99.780208 
L 597.356535 -100.560484 
L 602.429262 -109.008213 
L 607.50199 -127.172117 
L 612.574716 -197.658332 
L 617.647443 -190.552432 
L 622.720171 -194.22686 
L 627.792898 -199.697435 
L 632.865625 -201.80073 
L 632.865625 -215.767198 
L 632.865625 -215.767198 
L 627.792898 -270.733159 
L 622.720171 -207.230878 
L 617.647443 -237.103228 
L 612.574716 -208.235132 
L 607.50199 -154.731672 
L 602.429262 -141.202142 
L 597.356535 -138.598317 
L 592.283809 -116.517467 
L 587.211084 -63.954606 
L 582.138356 -56.089565 
L 577.065628 -58.227411 
L 571.992901 -36.773613 
L 566.920173 10.583724 
L 561.847446 22.525217 
L 556.774719 27.843044 
L 551.701993 29.343601 
L 546.629267 50.934061 
L 541.556538 94.91526 
L 536.48381 103.181737 
L 531.411082 116.424314 
L 526.338353 126.407471 
L 521.265626 151.003716 
L 516.192899 170.776644 
L 511.120172 182.211361 
L 506.047445 199.764034 
L 500.974718 210.378611 
L 495.901992 238.533896 
L 490.829264 252.796035 
L 485.756536 258.470335 
L 480.683809 271.460875 
L 475.611079 247.149363 
L 470.538352 299.892271 
L 465.465626 318.855234 
L 460.392898 347.554734 
L 455.320172 355.833881 
L 450.247443 368.767983 
L 445.17471 385.084247 
L 440.101982 382.173184 
L 435.029256 395.228654 
L 429.956533 401.081905 
L 424.883802 406.087853 
L 419.811079 407.784588 
L 414.73835 410.604631 
L 409.665598 418.812018 
L 404.592884 422.182628 
L 399.52014 425.228217 
L 394.447406 427.866815 
L 389.374668 430.481105 
L 384.301927 436.759513 
L 379.229205 438.000762 
L 374.156471 438.559097 
L 369.083792 439.016456 
L 364.011048 444.962761 
L 358.938341 445.20834 
L 353.865608 445.402443 
L 348.792838 445.928872 
L 343.720056 445.97629 
L 338.647337 452.033586 
L 333.574396 452.752019 
L 328.501688 453.219818 
L 323.42881 453.467356 
L 318.356064 458.611999 
L 313.283465 459.034227 
L 308.210573 459.393871 
L 303.138102 460.095833 
L 298.065555 463.34712 
L 292.992191 463.300984 
L 287.918813 463.504159 
L 282.847412 463.273727 
L 277.773245 463.841525 
L 272.700838 465.948056 
L 267.626848 466.186168 
L 262.55469 465.976172 
L 257.481113 466.030117 
L 252.410653 468.05429 
L 247.333903 468.113289 
L 242.264279 468.22458 
L 237.191835 468.128995 
L 232.118177 468.377494 
L 227.046847 470.410518 
L 221.967664 470.432012 
L 216.89834 470.250716 
L 211.828474 470.108694 
L 206.745843 472.699184 
L 201.682827 472.609836 
L 196.599134 472.627137 
L 191.532937 472.515148 
L 186.4613 474.801635 
L 181.390168 474.695952 
L 176.303617 474.572712 
L 171.198957 474.868196 
L 166.167165 474.855768 
L 161.056721 478.522723 
L 155.982591 478.506173 
L 150.933635 478.571394 
L 145.857071 478.386122 
L 140.764143 480.638774 
L 135.651989 480.422792 
L 130.491444 480.659049 
L 125.420521 480.572341 
L 120.404759 480.617656 
L 115.341895 482.313665 
L 110.361348 482.321599 
L 105.26842 482.368365 
L 100.156266 482.340102 
L 94.632688 484.104982 
L 89.924798 484.177304 
L 84.411955 484.142692 
L 79.556398 484.195119 
L 74.865625 484.182313 
z
" clip-path="url(#p258bb04c9f)" style="fill: #17becf; fill-opacity: 0.2; stroke: #17becf; stroke-opacity: 0.2"/>
   </g>
   <g id="PolyCollection_2">
    <defs>
     <path id="m35c7b1b908" d="M 74.865625 -48.116384 
L 74.865625 -45.222883 
L 79.556398 -52.536378 
L 84.411955 -48.821693 
L 89.924798 -46.848852 
L 94.632688 -44.934186 
L 100.156266 -47.611521 
L 105.26842 -55.908364 
L 110.361348 -51.403136 
L 115.341895 -47.242681 
L 120.404759 -54.087545 
L 125.420521 -58.063098 
L 130.491444 -53.436145 
L 135.651989 -53.313512 
L 140.764143 -49.458782 
L 145.857071 -55.470515 
L 150.933635 -59.342922 
L 155.982591 -57.14551 
L 161.056721 -53.419583 
L 166.167165 -54.520839 
L 171.198957 -59.243554 
L 176.303617 -59.679847 
L 181.390168 -56.909843 
L 186.4613 -54.572496 
L 191.532937 -60.168067 
L 196.599134 -64.432101 
L 201.682827 -61.349528 
L 206.745843 -58.74543 
L 211.828474 -60.978838 
L 216.89834 -67.288973 
L 221.967664 -65.562194 
L 227.046847 -62.321158 
L 232.118177 -60.573307 
L 237.191835 -68.204299 
L 242.264279 -71.144109 
L 247.333903 -66.7739 
L 252.410653 -63.444825 
L 257.481113 -67.682294 
L 262.55469 -75.186334 
L 267.626848 -71.92474 
L 272.700838 -67.607597 
L 277.773245 -67.491537 
L 282.847412 -75.617815 
L 287.918813 -77.963689 
L 292.992191 -72.772337 
L 298.065555 -69.040692 
L 303.138102 -75.778889 
L 308.210573 -83.226406 
L 313.283465 -78.43199 
L 318.356064 -73.658909 
L 323.42881 -75.629653 
L 328.501688 -84.870293 
L 333.574396 -85.039961 
L 338.647337 -79.508521 
L 343.720056 -75.676524 
L 348.792838 -85.346406 
L 353.865608 -91.89665 
L 358.938341 -86.373281 
L 364.011048 -81.618214 
L 369.083792 -85.939795 
L 374.156471 -95.62391 
L 379.229205 -93.805647 
L 384.301927 -89.086455 
L 389.374668 -87.911874 
L 394.447406 -96.814783 
L 399.52014 -101.509626 
L 404.592884 -95.903223 
L 409.665598 -92.17285 
L 414.73835 -98.535919 
L 419.811079 -106.650112 
L 424.883802 -102.543383 
L 429.956533 -97.274563 
L 435.029256 -100.493577 
L 440.101982 -113.737329 
L 445.17471 -113.029899 
L 450.247443 -111.587269 
L 455.320172 -115.519284 
L 460.392898 -130.739764 
L 465.465626 -137.52371 
L 470.538352 -140.577243 
L 475.611079 -141.882742 
L 480.683809 -147.026231 
L 485.756536 -152.3445 
L 490.829264 -154.967566 
L 495.901992 -157.209539 
L 500.974718 -159.109044 
L 506.047445 -165.070885 
L 511.120172 -175.149586 
L 516.192899 -175.567235 
L 521.265626 -176.343513 
L 526.338353 -181.06762 
L 531.411082 -192.27648 
L 536.48381 -198.473918 
L 541.556538 -195.614279 
L 546.629267 -195.455495 
L 551.701993 -208.165599 
L 556.774719 -219.007987 
L 561.847446 -217.14516 
L 566.920173 -211.177667 
L 571.992901 -222.61674 
L 577.065628 -240.393866 
L 582.138356 -239.433779 
L 587.211084 -236.990995 
L 592.283809 -238.846319 
L 597.356535 -253.722473 
L 602.429262 -265.489037 
L 607.50199 -261.645236 
L 612.574716 -257.881572 
L 617.647443 -269.752589 
L 622.720171 -286.330267 
L 627.792898 -289.530757 
L 632.865625 -279.58594 
L 632.865625 -290.921673 
L 632.865625 -290.921673 
L 627.792898 -291.181502 
L 622.720171 -288.622851 
L 617.647443 -271.906687 
L 612.574716 -267.052422 
L 607.50199 -264.597218 
L 602.429262 -272.080522 
L 597.356535 -258.023832 
L 592.283809 -240.824216 
L 587.211084 -239.297116 
L 582.138356 -241.425126 
L 577.065628 -245.641541 
L 571.992901 -238.745471 
L 566.920173 -213.654948 
L 561.847446 -218.067602 
L 556.774719 -223.35185 
L 551.701993 -213.140941 
L 546.629267 -197.058267 
L 541.556538 -197.037494 
L 536.48381 -201.306598 
L 531.411082 -193.028293 
L 526.338353 -182.4928 
L 521.265626 -179.244547 
L 516.192899 -177.581645 
L 511.120172 -175.821478 
L 506.047445 -166.005042 
L 500.974718 -159.360748 
L 495.901992 -157.332118 
L 490.829264 -155.679651 
L 485.756536 -153.577903 
L 480.683809 -147.92612 
L 475.611079 -146.934814 
L 470.538352 -140.712883 
L 465.465626 -139.156092 
L 460.392898 -135.202727 
L 455.320172 -118.320234 
L 450.247443 -118.583469 
L 445.17471 -114.850106 
L 440.101982 -114.620746 
L 435.029256 -101.132684 
L 429.956533 -99.473075 
L 424.883802 -102.826654 
L 419.811079 -107.214704 
L 414.73835 -99.365026 
L 409.665598 -92.271314 
L 404.592884 -96.14578 
L 399.52014 -101.601761 
L 394.447406 -97.14259 
L 389.374668 -88.05311 
L 384.301927 -89.404991 
L 379.229205 -94.315682 
L 374.156471 -95.910205 
L 369.083792 -86.144188 
L 364.011048 -81.670407 
L 358.938341 -86.540674 
L 353.865608 -92.068304 
L 348.792838 -85.834485 
L 343.720056 -75.894597 
L 338.647337 -79.807396 
L 333.574396 -85.222855 
L 328.501688 -85.273199 
L 323.42881 -75.740465 
L 318.356064 -73.875349 
L 313.283465 -78.743796 
L 308.210573 -83.613219 
L 303.138102 -75.934447 
L 298.065555 -69.151008 
L 292.992191 -72.916391 
L 287.918813 -78.0666 
L 282.847412 -76.110164 
L 277.773245 -67.5919 
L 272.700838 -67.870945 
L 267.626848 -72.102956 
L 262.55469 -75.381127 
L 257.481113 -68.150022 
L 252.410653 -63.820551 
L 247.333903 -67.195256 
L 242.264279 -71.37217 
L 237.191835 -68.5147 
L 232.118177 -60.715529 
L 227.046847 -62.798812 
L 221.967664 -65.918184 
L 216.89834 -67.397546 
L 211.828474 -61.505676 
L 206.745843 -58.880007 
L 201.682827 -62.046587 
L 196.599134 -64.848234 
L 191.532937 -61.259834 
L 186.4613 -54.771006 
L 181.390168 -57.492034 
L 176.303617 -60.800414 
L 171.198957 -59.570814 
L 166.167165 -55.239249 
L 161.056721 -54.96172 
L 155.982591 -58.064173 
L 150.933635 -59.847557 
L 145.857071 -58.137566 
L 140.764143 -50.108026 
L 135.651989 -56.205028 
L 130.491444 -55.152148 
L 125.420521 -60.477817 
L 120.404759 -54.529787 
L 115.341895 -48.547681 
L 110.361348 -53.557069 
L 105.26842 -56.803038 
L 100.156266 -49.145107 
L 94.632688 -44.959959 
L 89.924798 -48.779085 
L 84.411955 -53.080202 
L 79.556398 -53.230159 
L 74.865625 -48.116384 
z
" style="stroke: #8c564b; stroke-opacity: 0.2"/>
    </defs>
    <g clip-path="url(#p258bb04c9f)">
     <use xlink:href="#m35c7b1b908" x="0" y="531.670938" style="fill: #8c564b; fill-opacity: 0.2; stroke: #8c564b; stroke-opacity: 0.2"/>
    </g>
   </g>
   <g id="PolyCollection_3">
    <defs>
     <path id="m5fd5adf690" d="M 74.865625 -48.63787 
L 74.865625 -48.584957 
L 79.556398 -48.602948 
L 84.411955 -48.598154 
L 89.924798 -48.57861 
L 94.632688 -48.595199 
L 100.156266 -48.573448 
L 105.26842 -48.554938 
L 110.361348 -48.623234 
L 115.341895 -48.617696 
L 120.404759 -50.710004 
L 125.420521 -50.703211 
L 130.491444 -50.729998 
L 135.651989 -50.675653 
L 140.764143 -50.725719 
L 145.857071 -53.906356 
L 150.933635 -53.937535 
L 155.982591 -53.89252 
L 161.056721 -53.873137 
L 166.167165 -57.062535 
L 171.198957 -56.966013 
L 176.303617 -56.975825 
L 181.390168 -56.964272 
L 186.4613 -56.974154 
L 191.532937 -59.276272 
L 196.599134 -59.281383 
L 201.682827 -59.292284 
L 206.745843 -59.26743 
L 211.828474 -61.310263 
L 216.89834 -61.30411 
L 221.967664 -61.303539 
L 227.046847 -61.333511 
L 232.118177 -63.681926 
L 237.191835 -63.675038 
L 242.264279 -63.663269 
L 247.333903 -63.662298 
L 252.410653 -63.643448 
L 257.481113 -66.284978 
L 262.55469 -66.234703 
L 267.626848 -66.277919 
L 272.700838 -66.247797 
L 277.773245 -70.345699 
L 282.847412 -70.348081 
L 287.918813 -70.289239 
L 292.992191 -70.09293 
L 298.065555 -70.10825 
L 303.138102 -74.798722 
L 308.210573 -74.963884 
L 313.283465 -74.908524 
L 318.356064 -75.025924 
L 323.42881 -79.243247 
L 328.501688 -79.246218 
L 333.574396 -78.978178 
L 338.647337 -79.206337 
L 343.720056 -81.51911 
L 348.792838 -83.646888 
L 353.865608 -83.680233 
L 358.938341 -83.717546 
L 364.011048 -83.705707 
L 369.083792 -88.038028 
L 374.156471 -87.840338 
L 379.229205 -88.05653 
L 384.301927 -87.986959 
L 389.374668 -92.15274 
L 394.447406 -92.260758 
L 399.52014 -92.20753 
L 404.592884 -92.323999 
L 409.665598 -92.617455 
L 414.73835 -96.151682 
L 419.811079 -95.880453 
L 424.883802 -96.082074 
L 429.956533 -96.037449 
L 435.029256 -101.538577 
L 440.101982 -103.75189 
L 445.17471 -105.420273 
L 450.247443 -113.006783 
L 455.320172 -110.45029 
L 460.392898 -133.898225 
L 465.465626 -138.004607 
L 470.538352 -142.851237 
L 475.611079 -145.795791 
L 480.683809 -156.900292 
L 485.756536 -159.865508 
L 490.829264 -161.798465 
L 495.901992 -158.380336 
L 500.974718 -179.32633 
L 506.047445 -179.732959 
L 511.120172 -182.307357 
L 516.192899 -184.728427 
L 521.265626 -184.595477 
L 526.338353 -199.356684 
L 531.411082 -201.557433 
L 536.48381 -204.362582 
L 541.556538 -204.116749 
L 546.629267 -218.461363 
L 551.701993 -221.986581 
L 556.774719 -221.785138 
L 561.847446 -224.655973 
L 566.920173 -225.833078 
L 571.992901 -245.686354 
L 577.065628 -248.252704 
L 582.138356 -249.19745 
L 587.211084 -253.172535 
L 592.283809 -269.513707 
L 597.356535 -269.573168 
L 602.429262 -271.298653 
L 607.50199 -272.074818 
L 612.574716 -288.549748 
L 617.647443 -292.585799 
L 622.720171 -293.228575 
L 627.792898 -292.447098 
L 632.865625 -294.368297 
L 632.865625 -302.225742 
L 632.865625 -302.225742 
L 627.792898 -296.016786 
L 622.720171 -295.260667 
L 617.647443 -295.831484 
L 612.574716 -289.711251 
L 607.50199 -276.53319 
L 602.429262 -273.431921 
L 597.356535 -276.681863 
L 592.283809 -269.831854 
L 587.211084 -254.520835 
L 582.138356 -251.761331 
L 577.065628 -249.16206 
L 571.992901 -249.058625 
L 566.920173 -227.626892 
L 561.847446 -226.313229 
L 556.774719 -224.157342 
L 551.701993 -222.483069 
L 546.629267 -219.141612 
L 541.556538 -205.760782 
L 536.48381 -204.829049 
L 531.411082 -202.719961 
L 526.338353 -201.269278 
L 521.265626 -185.757237 
L 516.192899 -185.566897 
L 511.120172 -183.10232 
L 506.047445 -181.226285 
L 500.974718 -179.533444 
L 495.901992 -164.559178 
L 490.829264 -162.408166 
L 485.756536 -160.523853 
L 480.683809 -157.65829 
L 475.611079 -146.784701 
L 470.538352 -145.081793 
L 465.465626 -141.636328 
L 460.392898 -136.400417 
L 455.320172 -114.76189 
L 450.247443 -132.310963 
L 445.17471 -109.050749 
L 440.101982 -108.422815 
L 435.029256 -104.130644 
L 429.956533 -98.30917 
L 424.883802 -97.031008 
L 419.811079 -96.664585 
L 414.73835 -96.550552 
L 409.665598 -92.827518 
L 404.592884 -92.497661 
L 399.52014 -92.316655 
L 394.447406 -92.370742 
L 389.374668 -92.412786 
L 384.301927 -88.056887 
L 379.229205 -88.352279 
L 374.156471 -88.032992 
L 369.083792 -88.252414 
L 364.011048 -83.988498 
L 358.938341 -83.826221 
L 353.865608 -83.796186 
L 348.792838 -84.049788 
L 343.720056 -83.956004 
L 338.647337 -79.639688 
L 333.574396 -79.367121 
L 328.501688 -79.370858 
L 323.42881 -79.45666 
L 318.356064 -75.16001 
L 313.283465 -75.062642 
L 308.210573 -75.063282 
L 303.138102 -75.063956 
L 298.065555 -70.331345 
L 292.992191 -70.386368 
L 287.918813 -70.549432 
L 282.847412 -70.420298 
L 277.773245 -70.46007 
L 272.700838 -66.301379 
L 267.626848 -66.446803 
L 262.55469 -66.325182 
L 257.481113 -66.297693 
L 252.410653 -63.684327 
L 247.333903 -63.794551 
L 242.264279 -63.901263 
L 237.191835 -63.777995 
L 232.118177 -63.924085 
L 227.046847 -61.339723 
L 221.967664 -61.327073 
L 216.89834 -61.390221 
L 211.828474 -61.483503 
L 206.745843 -59.282933 
L 201.682827 -59.43322 
L 196.599134 -59.315887 
L 191.532937 -59.344622 
L 186.4613 -57.009734 
L 181.390168 -57.030559 
L 176.303617 -57.182035 
L 171.198957 -57.014241 
L 166.167165 -57.085145 
L 161.056721 -54.07845 
L 155.982591 -54.01386 
L 150.933635 -54.073432 
L 145.857071 -53.932002 
L 140.764143 -50.742167 
L 135.651989 -50.730601 
L 130.491444 -50.760937 
L 125.420521 -50.73738 
L 120.404759 -50.765951 
L 115.341895 -48.766151 
L 110.361348 -48.678745 
L 105.26842 -48.638974 
L 100.156266 -48.616026 
L 94.632688 -48.611713 
L 89.924798 -48.63774 
L 84.411955 -48.699949 
L 79.556398 -48.640316 
L 74.865625 -48.63787 
z
" style="stroke: #2ca02c; stroke-opacity: 0.2"/>
    </defs>
    <g clip-path="url(#p258bb04c9f)">
     <use xlink:href="#m5fd5adf690" x="0" y="531.670938" style="fill: #2ca02c; fill-opacity: 0.2; stroke: #2ca02c; stroke-opacity: 0.2"/>
    </g>
   </g>
   <g id="matplotlib.axis_3">
    <g id="xtick_15">
     <g id="line2d_18">
      <path d="M 52.470317 494.114688 
L 52.470317 50.594688 
" clip-path="url(#p258bb04c9f)" style="fill: none; stroke: #b0b0b0; stroke-opacity: 0.4; stroke-width: 0.8; stroke-linecap: square"/>
     </g>
     <g id="line2d_19">
      <defs>
       <path id="me30fd87d1b" d="M 0 0 
L 0 3.5 
" style="stroke: #000000; stroke-width: 0.8"/>
      </defs>
      <g>
       <use xlink:href="#me30fd87d1b" x="52.470317" y="494.114688" style="stroke: #000000; stroke-width: 0.8"/>
      </g>
     </g>
     <g id="text_16">
      <!-- $\mathdefault{2^{4}}$ -->
      <g transform="translate(46.870317 508.713125) scale(0.1 -0.1)">
       <use xlink:href="#DejaVuSans-32" transform="translate(0 0.684375)"/>
       <use xlink:href="#DejaVuSans-34" transform="translate(64.580078 38.965625) scale(0.7)"/>
      </g>
     </g>
    </g>
    <g id="xtick_16">
     <g id="line2d_20">
      <path d="M 97.260933 494.114688 
L 97.260933 50.594688 
" clip-path="url(#p258bb04c9f)" style="fill: none; stroke: #b0b0b0; stroke-opacity: 0.4; stroke-width: 0.8; stroke-linecap: square"/>
     </g>
     <g id="line2d_21">
      <g>
       <use xlink:href="#me30fd87d1b" x="97.260933" y="494.114688" style="stroke: #000000; stroke-width: 0.8"/>
      </g>
     </g>
     <g id="text_17">
      <!-- $\mathdefault{2^{6}}$ -->
      <g transform="translate(91.660933 508.713125) scale(0.1 -0.1)">
       <use xlink:href="#DejaVuSans-32" transform="translate(0 0.765625)"/>
       <use xlink:href="#DejaVuSans-36" transform="translate(64.580078 39.046875) scale(0.7)"/>
      </g>
     </g>
    </g>
    <g id="xtick_17">
     <g id="line2d_22">
      <path d="M 142.051549 494.114688 
L 142.051549 50.594688 
" clip-path="url(#p258bb04c9f)" style="fill: none; stroke: #b0b0b0; stroke-opacity: 0.4; stroke-width: 0.8; stroke-linecap: square"/>
     </g>
     <g id="line2d_23">
      <g>
       <use xlink:href="#me30fd87d1b" x="142.051549" y="494.114688" style="stroke: #000000; stroke-width: 0.8"/>
      </g>
     </g>
     <g id="text_18">
      <!-- $\mathdefault{2^{8}}$ -->
      <g transform="translate(136.451549 508.713125) scale(0.1 -0.1)">
       <use xlink:href="#DejaVuSans-32" transform="translate(0 0.765625)"/>
       <use xlink:href="#DejaVuSans-38" transform="translate(64.580078 39.046875) scale(0.7)"/>
      </g>
     </g>
    </g>
    <g id="xtick_18">
     <g id="line2d_24">
      <path d="M 186.842164 494.114688 
L 186.842164 50.594688 
" clip-path="url(#p258bb04c9f)" style="fill: none; stroke: #b0b0b0; stroke-opacity: 0.4; stroke-width: 0.8; stroke-linecap: square"/>
     </g>
     <g id="line2d_25">
      <g>
       <use xlink:href="#me30fd87d1b" x="186.842164" y="494.114688" style="stroke: #000000; stroke-width: 0.8"/>
      </g>
     </g>
     <g id="text_19">
      <!-- $\mathdefault{2^{10}}$ -->
      <g transform="translate(178.992164 508.713125) scale(0.1 -0.1)">
       <use xlink:href="#DejaVuSans-32" transform="translate(0 0.765625)"/>
       <use xlink:href="#DejaVuSans-31" transform="translate(64.580078 39.046875) scale(0.7)"/>
       <use xlink:href="#DejaVuSans-30" transform="translate(109.116211 39.046875) scale(0.7)"/>
      </g>
     </g>
    </g>
    <g id="xtick_19">
     <g id="line2d_26">
      <path d="M 231.63278 494.114688 
L 231.63278 50.594688 
" clip-path="url(#p258bb04c9f)" style="fill: none; stroke: #b0b0b0; stroke-opacity: 0.4; stroke-width: 0.8; stroke-linecap: square"/>
     </g>
     <g id="line2d_27">
      <g>
       <use xlink:href="#me30fd87d1b" x="231.63278" y="494.114688" style="stroke: #000000; stroke-width: 0.8"/>
      </g>
     </g>
     <g id="text_20">
      <!-- $\mathdefault{2^{12}}$ -->
      <g transform="translate(223.78278 508.713125) scale(0.1 -0.1)">
       <use xlink:href="#DejaVuSans-32" transform="translate(0 0.765625)"/>
       <use xlink:href="#DejaVuSans-31" transform="translate(64.580078 39.046875) scale(0.7)"/>
       <use xlink:href="#DejaVuSans-32" transform="translate(109.116211 39.046875) scale(0.7)"/>
      </g>
     </g>
    </g>
    <g id="xtick_20">
     <g id="line2d_28">
      <path d="M 276.423396 494.114688 
L 276.423396 50.594688 
" clip-path="url(#p258bb04c9f)" style="fill: none; stroke: #b0b0b0; stroke-opacity: 0.4; stroke-width: 0.8; stroke-linecap: square"/>
     </g>
     <g id="line2d_29">
      <g>
       <use xlink:href="#me30fd87d1b" x="276.423396" y="494.114688" style="stroke: #000000; stroke-width: 0.8"/>
      </g>
     </g>
     <g id="text_21">
      <!-- $\mathdefault{2^{14}}$ -->
      <g transform="translate(268.573396 508.713125) scale(0.1 -0.1)">
       <use xlink:href="#DejaVuSans-32" transform="translate(0 0.684375)"/>
       <use xlink:href="#DejaVuSans-31" transform="translate(64.580078 38.965625) scale(0.7)"/>
       <use xlink:href="#DejaVuSans-34" transform="translate(109.116211 38.965625) scale(0.7)"/>
      </g>
     </g>
    </g>
    <g id="xtick_21">
     <g id="line2d_30">
      <path d="M 321.214012 494.114688 
L 321.214012 50.594688 
" clip-path="url(#p258bb04c9f)" style="fill: none; stroke: #b0b0b0; stroke-opacity: 0.4; stroke-width: 0.8; stroke-linecap: square"/>
     </g>
     <g id="line2d_31">
      <g>
       <use xlink:href="#me30fd87d1b" x="321.214012" y="494.114688" style="stroke: #000000; stroke-width: 0.8"/>
      </g>
     </g>
     <g id="text_22">
      <!-- $\mathdefault{2^{16}}$ -->
      <g transform="translate(313.364012 508.713125) scale(0.1 -0.1)">
       <use xlink:href="#DejaVuSans-32" transform="translate(0 0.765625)"/>
       <use xlink:href="#DejaVuSans-31" transform="translate(64.580078 39.046875) scale(0.7)"/>
       <use xlink:href="#DejaVuSans-36" transform="translate(109.116211 39.046875) scale(0.7)"/>
      </g>
     </g>
    </g>
    <g id="xtick_22">
     <g id="line2d_32">
      <path d="M 366.004627 494.114688 
L 366.004627 50.594688 
" clip-path="url(#p258bb04c9f)" style="fill: none; stroke: #b0b0b0; stroke-opacity: 0.4; stroke-width: 0.8; stroke-linecap: square"/>
     </g>
     <g id="line2d_33">
      <g>
       <use xlink:href="#me30fd87d1b" x="366.004627" y="494.114688" style="stroke: #000000; stroke-width: 0.8"/>
      </g>
     </g>
     <g id="text_23">
      <!-- $\mathdefault{2^{18}}$ -->
      <g transform="translate(358.154627 508.713125) scale(0.1 -0.1)">
       <use xlink:href="#DejaVuSans-32" transform="translate(0 0.765625)"/>
       <use xlink:href="#DejaVuSans-31" transform="translate(64.580078 39.046875) scale(0.7)"/>
       <use xlink:href="#DejaVuSans-38" transform="translate(109.116211 39.046875) scale(0.7)"/>
      </g>
     </g>
    </g>
    <g id="xtick_23">
     <g id="line2d_34">
      <path d="M 410.795243 494.114688 
L 410.795243 50.594688 
" clip-path="url(#p258bb04c9f)" style="fill: none; stroke: #b0b0b0; stroke-opacity: 0.4; stroke-width: 0.8; stroke-linecap: square"/>
     </g>
     <g id="line2d_35">
      <g>
       <use xlink:href="#me30fd87d1b" x="410.795243" y="494.114688" style="stroke: #000000; stroke-width: 0.8"/>
      </g>
     </g>
     <g id="text_24">
      <!-- $\mathdefault{2^{20}}$ -->
      <g transform="translate(402.945243 508.713125) scale(0.1 -0.1)">
       <use xlink:href="#DejaVuSans-32" transform="translate(0 0.765625)"/>
       <use xlink:href="#DejaVuSans-32" transform="translate(64.580078 39.046875) scale(0.7)"/>
       <use xlink:href="#DejaVuSans-30" transform="translate(109.116211 39.046875) scale(0.7)"/>
      </g>
     </g>
    </g>
    <g id="xtick_24">
     <g id="line2d_36">
      <path d="M 455.585859 494.114688 
L 455.585859 50.594688 
" clip-path="url(#p258bb04c9f)" style="fill: none; stroke: #b0b0b0; stroke-opacity: 0.4; stroke-width: 0.8; stroke-linecap: square"/>
     </g>
     <g id="line2d_37">
      <g>
       <use xlink:href="#me30fd87d1b" x="455.585859" y="494.114688" style="stroke: #000000; stroke-width: 0.8"/>
      </g>
     </g>
     <g id="text_25">
      <!-- $\mathdefault{2^{22}}$ -->
      <g transform="translate(447.735859 508.713125) scale(0.1 -0.1)">
       <use xlink:href="#DejaVuSans-32" transform="translate(0 0.765625)"/>
       <use xlink:href="#DejaVuSans-32" transform="translate(64.580078 39.046875) scale(0.7)"/>
       <use xlink:href="#DejaVuSans-32" transform="translate(109.116211 39.046875) scale(0.7)"/>
      </g>
     </g>
    </g>
    <g id="xtick_25">
     <g id="line2d_38">
      <path d="M 500.376474 494.114688 
L 500.376474 50.594688 
" clip-path="url(#p258bb04c9f)" style="fill: none; stroke: #b0b0b0; stroke-opacity: 0.4; stroke-width: 0.8; stroke-linecap: square"/>
     </g>
     <g id="line2d_39">
      <g>
       <use xlink:href="#me30fd87d1b" x="500.376474" y="494.114688" style="stroke: #000000; stroke-width: 0.8"/>
      </g>
     </g>
     <g id="text_26">
      <!-- $\mathdefault{2^{24}}$ -->
      <g transform="translate(492.526474 508.713125) scale(0.1 -0.1)">
       <use xlink:href="#DejaVuSans-32" transform="translate(0 0.765625)"/>
       <use xlink:href="#DejaVuSans-32" transform="translate(64.580078 39.046875) scale(0.7)"/>
       <use xlink:href="#DejaVuSans-34" transform="translate(109.116211 39.046875) scale(0.7)"/>
      </g>
     </g>
    </g>
    <g id="xtick_26">
     <g id="line2d_40">
      <path d="M 545.16709 494.114688 
L 545.16709 50.594688 
" clip-path="url(#p258bb04c9f)" style="fill: none; stroke: #b0b0b0; stroke-opacity: 0.4; stroke-width: 0.8; stroke-linecap: square"/>
     </g>
     <g id="line2d_41">
      <g>
       <use xlink:href="#me30fd87d1b" x="545.16709" y="494.114688" style="stroke: #000000; stroke-width: 0.8"/>
      </g>
     </g>
     <g id="text_27">
      <!-- $\mathdefault{2^{26}}$ -->
      <g transform="translate(537.31709 508.713125) scale(0.1 -0.1)">
       <use xlink:href="#DejaVuSans-32" transform="translate(0 0.765625)"/>
       <use xlink:href="#DejaVuSans-32" transform="translate(64.580078 39.046875) scale(0.7)"/>
       <use xlink:href="#DejaVuSans-36" transform="translate(109.116211 39.046875) scale(0.7)"/>
      </g>
     </g>
    </g>
    <g id="xtick_27">
     <g id="line2d_42">
      <path d="M 589.957706 494.114688 
L 589.957706 50.594688 
" clip-path="url(#p258bb04c9f)" style="fill: none; stroke: #b0b0b0; stroke-opacity: 0.4; stroke-width: 0.8; stroke-linecap: square"/>
     </g>
     <g id="line2d_43">
      <g>
       <use xlink:href="#me30fd87d1b" x="589.957706" y="494.114688" style="stroke: #000000; stroke-width: 0.8"/>
      </g>
     </g>
     <g id="text_28">
      <!-- $\mathdefault{2^{28}}$ -->
      <g transform="translate(582.107706 508.713125) scale(0.1 -0.1)">
       <use xlink:href="#DejaVuSans-32" transform="translate(0 0.765625)"/>
       <use xlink:href="#DejaVuSans-32" transform="translate(64.580078 39.046875) scale(0.7)"/>
       <use xlink:href="#DejaVuSans-38" transform="translate(109.116211 39.046875) scale(0.7)"/>
      </g>
     </g>
    </g>
    <g id="xtick_28">
     <g id="line2d_44">
      <path d="M 634.748322 494.114688 
L 634.748322 50.594688 
" clip-path="url(#p258bb04c9f)" style="fill: none; stroke: #b0b0b0; stroke-opacity: 0.4; stroke-width: 0.8; stroke-linecap: square"/>
     </g>
     <g id="line2d_45">
      <g>
       <use xlink:href="#me30fd87d1b" x="634.748322" y="494.114688" style="stroke: #000000; stroke-width: 0.8"/>
      </g>
     </g>
     <g id="text_29">
      <!-- $\mathdefault{2^{30}}$ -->
      <g transform="translate(626.898322 508.713125) scale(0.1 -0.1)">
       <use xlink:href="#DejaVuSans-32" transform="translate(0 0.765625)"/>
       <use xlink:href="#DejaVuSans-33" transform="translate(64.580078 39.046875) scale(0.7)"/>
       <use xlink:href="#DejaVuSans-30" transform="translate(109.116211 39.046875) scale(0.7)"/>
      </g>
     </g>
    </g>
    <g id="text_30">
     <!-- Input size (bytes) -->
     <g transform="translate(310.369531 522.39125) scale(0.1 -0.1)">
      <defs>
       <path id="DejaVuSans-49" d="M 628 4666 
L 1259 4666 
L 1259 0 
L 628 0 
L 628 4666 
z
" transform="scale(0.015625)"/>
       <path id="DejaVuSans-70" d="M 1159 525 
L 1159 -1331 
L 581 -1331 
L 581 3500 
L 1159 3500 
L 1159 2969 
Q 1341 3281 1617 3432 
Q 1894 3584 2278 3584 
Q 2916 3584 3314 3078 
Q 3713 2572 3713 1747 
Q 3713 922 3314 415 
Q 2916 -91 2278 -91 
Q 1894 -91 1617 61 
Q 1341 213 1159 525 
z
M 3116 1747 
Q 3116 2381 2855 2742 
Q 2594 3103 2138 3103 
Q 1681 3103 1420 2742 
Q 1159 2381 1159 1747 
Q 1159 1113 1420 752 
Q 1681 391 2138 391 
Q 2594 391 2855 752 
Q 3116 1113 3116 1747 
z
" transform="scale(0.015625)"/>
       <path id="DejaVuSans-73" d="M 2834 3397 
L 2834 2853 
Q 2591 2978 2328 3040 
Q 2066 3103 1784 3103 
Q 1356 3103 1142 2972 
Q 928 2841 928 2578 
Q 928 2378 1081 2264 
Q 1234 2150 1697 2047 
L 1894 2003 
Q 2506 1872 2764 1633 
Q 3022 1394 3022 966 
Q 3022 478 2636 193 
Q 2250 -91 1575 -91 
Q 1294 -91 989 -36 
Q 684 19 347 128 
L 347 722 
Q 666 556 975 473 
Q 1284 391 1588 391 
Q 1994 391 2212 530 
Q 2431 669 2431 922 
Q 2431 1156 2273 1281 
Q 2116 1406 1581 1522 
L 1381 1569 
Q 847 1681 609 1914 
Q 372 2147 372 2553 
Q 372 3047 722 3315 
Q 1072 3584 1716 3584 
Q 2034 3584 2315 3537 
Q 2597 3491 2834 3397 
z
" transform="scale(0.015625)"/>
       <path id="DejaVuSans-69" d="M 603 3500 
L 1178 3500 
L 1178 0 
L 603 0 
L 603 3500 
z
M 603 4863 
L 1178 4863 
L 1178 4134 
L 603 4134 
L 603 4863 
z
" transform="scale(0.015625)"/>
       <path id="DejaVuSans-7a" d="M 353 3500 
L 3084 3500 
L 3084 2975 
L 922 459 
L 3084 459 
L 3084 0 
L 275 0 
L 275 525 
L 2438 3041 
L 353 3041 
L 353 3500 
z
" transform="scale(0.015625)"/>
       <path id="DejaVuSans-62" d="M 3116 1747 
Q 3116 2381 2855 2742 
Q 2594 3103 2138 3103 
Q 1681 3103 1420 2742 
Q 1159 2381 1159 1747 
Q 1159 1113 1420 752 
Q 1681 391 2138 391 
Q 2594 391 2855 752 
Q 3116 1113 3116 1747 
z
M 1159 2969 
Q 1341 3281 1617 3432 
Q 1894 3584 2278 3584 
Q 2916 3584 3314 3078 
Q 3713 2572 3713 1747 
Q 3713 922 3314 415 
Q 2916 -91 2278 -91 
Q 1894 -91 1617 61 
Q 1341 213 1159 525 
L 1159 0 
L 581 0 
L 581 4863 
L 1159 4863 
L 1159 2969 
z
" transform="scale(0.015625)"/>
      </defs>
      <use xlink:href="#DejaVuSans-49"/>
      <use xlink:href="#DejaVuSans-6e" x="29.492188"/>
      <use xlink:href="#DejaVuSans-70" x="92.871094"/>
      <use xlink:href="#DejaVuSans-75" x="156.347656"/>
      <use xlink:href="#DejaVuSans-74" x="219.726562"/>
      <use xlink:href="#DejaVuSans-20" x="258.935547"/>
      <use xlink:href="#DejaVuSans-73" x="290.722656"/>
      <use xlink:href="#DejaVuSans-69" x="342.822266"/>
      <use xlink:href="#DejaVuSans-7a" x="370.605469"/>
      <use xlink:href="#DejaVuSans-65" x="423.095703"/>
      <use xlink:href="#DejaVuSans-20" x="484.619141"/>
      <use xlink:href="#DejaVuSans-28" x="516.40625"/>
      <use xlink:href="#DejaVuSans-62" x="555.419922"/>
      <use xlink:href="#DejaVuSans-79" x="618.896484"/>
      <use xlink:href="#DejaVuSans-74" x="678.076172"/>
      <use xlink:href="#DejaVuSans-65" x="717.285156"/>
      <use xlink:href="#DejaVuSans-73" x="778.808594"/>
      <use xlink:href="#DejaVuSans-29" x="830.908203"/>
     </g>
    </g>
   </g>
   <g id="matplotlib.axis_4">
    <g id="ytick_1">
     <g id="line2d_46">
      <path d="M 46.965625 494.114688 
L 660.765625 494.114688 
" clip-path="url(#p258bb04c9f)" style="fill: none; stroke: #b0b0b0; stroke-opacity: 0.4; stroke-width: 0.8; stroke-linecap: square"/>
     </g>
     <g id="line2d_47">
      <defs>
       <path id="m4b0f45ef15" d="M 0 0 
L -3.5 0 
" style="stroke: #000000; stroke-width: 0.8"/>
      </defs>
      <g>
       <use xlink:href="#m4b0f45ef15" x="46.965625" y="494.114688" style="stroke: #000000; stroke-width: 0.8"/>
      </g>
     </g>
     <g id="text_31">
      <!-- 0 -->
      <g transform="translate(33.603125 497.913906) scale(0.1 -0.1)">
       <use xlink:href="#DejaVuSans-30"/>
      </g>
     </g>
    </g>
    <g id="ytick_2">
     <g id="line2d_48">
      <path d="M 46.965625 405.410688 
L 660.765625 405.410688 
" clip-path="url(#p258bb04c9f)" style="fill: none; stroke: #b0b0b0; stroke-opacity: 0.4; stroke-width: 0.8; stroke-linecap: square"/>
     </g>
     <g id="line2d_49">
      <g>
       <use xlink:href="#m4b0f45ef15" x="46.965625" y="405.410688" style="stroke: #000000; stroke-width: 0.8"/>
      </g>
     </g>
     <g id="text_32">
      <!-- 100 -->
      <g transform="translate(20.878125 409.209906) scale(0.1 -0.1)">
       <use xlink:href="#DejaVuSans-31"/>
       <use xlink:href="#DejaVuSans-30" x="63.623047"/>
       <use xlink:href="#DejaVuSans-30" x="127.246094"/>
      </g>
     </g>
    </g>
    <g id="ytick_3">
     <g id="line2d_50">
      <path d="M 46.965625 316.706688 
L 660.765625 316.706688 
" clip-path="url(#p258bb04c9f)" style="fill: none; stroke: #b0b0b0; stroke-opacity: 0.4; stroke-width: 0.8; stroke-linecap: square"/>
     </g>
     <g id="line2d_51">
      <g>
       <use xlink:href="#m4b0f45ef15" x="46.965625" y="316.706688" style="stroke: #000000; stroke-width: 0.8"/>
      </g>
     </g>
     <g id="text_33">
      <!-- 200 -->
      <g transform="translate(20.878125 320.505906) scale(0.1 -0.1)">
       <use xlink:href="#DejaVuSans-32"/>
       <use xlink:href="#DejaVuSans-30" x="63.623047"/>
       <use xlink:href="#DejaVuSans-30" x="127.246094"/>
      </g>
     </g>
    </g>
    <g id="ytick_4">
     <g id="line2d_52">
      <path d="M 46.965625 228.002688 
L 660.765625 228.002688 
" clip-path="url(#p258bb04c9f)" style="fill: none; stroke: #b0b0b0; stroke-opacity: 0.4; stroke-width: 0.8; stroke-linecap: square"/>
     </g>
     <g id="line2d_53">
      <g>
       <use xlink:href="#m4b0f45ef15" x="46.965625" y="228.002688" style="stroke: #000000; stroke-width: 0.8"/>
      </g>
     </g>
     <g id="text_34">
      <!-- 300 -->
      <g transform="translate(20.878125 231.801906) scale(0.1 -0.1)">
       <use xlink:href="#DejaVuSans-33"/>
       <use xlink:href="#DejaVuSans-30" x="63.623047"/>
       <use xlink:href="#DejaVuSans-30" x="127.246094"/>
      </g>
     </g>
    </g>
    <g id="ytick_5">
     <g id="line2d_54">
      <path d="M 46.965625 139.298688 
L 660.765625 139.298688 
" clip-path="url(#p258bb04c9f)" style="fill: none; stroke: #b0b0b0; stroke-opacity: 0.4; stroke-width: 0.8; stroke-linecap: square"/>
     </g>
     <g id="line2d_55">
      <g>
       <use xlink:href="#m4b0f45ef15" x="46.965625" y="139.298688" style="stroke: #000000; stroke-width: 0.8"/>
      </g>
     </g>
     <g id="text_35">
      <!-- 400 -->
      <g transform="translate(20.878125 143.097906) scale(0.1 -0.1)">
       <use xlink:href="#DejaVuSans-34"/>
       <use xlink:href="#DejaVuSans-30" x="63.623047"/>
       <use xlink:href="#DejaVuSans-30" x="127.246094"/>
      </g>
     </g>
    </g>
    <g id="ytick_6">
     <g id="line2d_56">
      <path d="M 46.965625 50.594688 
L 660.765625 50.594688 
" clip-path="url(#p258bb04c9f)" style="fill: none; stroke: #b0b0b0; stroke-opacity: 0.4; stroke-width: 0.8; stroke-linecap: square"/>
     </g>
     <g id="line2d_57">
      <g>
       <use xlink:href="#m4b0f45ef15" x="46.965625" y="50.594688" style="stroke: #000000; stroke-width: 0.8"/>
      </g>
     </g>
     <g id="text_36">
      <!-- 500 -->
      <g transform="translate(20.878125 54.393906) scale(0.1 -0.1)">
       <defs>
        <path id="DejaVuSans-35" d="M 691 4666 
L 3169 4666 
L 3169 4134 
L 1269 4134 
L 1269 2991 
Q 1406 3038 1543 3061 
Q 1681 3084 1819 3084 
Q 2600 3084 3056 2656 
Q 3513 2228 3513 1497 
Q 3513 744 3044 326 
Q 2575 -91 1722 -91 
Q 1428 -91 1123 -41 
Q 819 9 494 109 
L 494 744 
Q 775 591 1075 516 
Q 1375 441 1709 441 
Q 2250 441 2565 725 
Q 2881 1009 2881 1497 
Q 2881 1984 2565 2268 
Q 2250 2553 1709 2553 
Q 1456 2553 1204 2497 
Q 953 2441 691 2322 
L 691 4666 
z
" transform="scale(0.015625)"/>
       </defs>
       <use xlink:href="#DejaVuSans-35"/>
       <use xlink:href="#DejaVuSans-30" x="63.623047"/>
       <use xlink:href="#DejaVuSans-30" x="127.246094"/>
      </g>
     </g>
    </g>
    <g id="text_37">
     <!-- Inverse throughput (ns) -->
     <g transform="translate(14.798438 331.570313) rotate(-90) scale(0.1 -0.1)">
      <defs>
       <path id="DejaVuSans-76" d="M 191 3500 
L 800 3500 
L 1894 563 
L 2988 3500 
L 3597 3500 
L 2284 0 
L 1503 0 
L 191 3500 
z
" transform="scale(0.015625)"/>
       <path id="DejaVuSans-6f" d="M 1959 3097 
Q 1497 3097 1228 2736 
Q 959 2375 959 1747 
Q 959 1119 1226 758 
Q 1494 397 1959 397 
Q 2419 397 2687 759 
Q 2956 1122 2956 1747 
Q 2956 2369 2687 2733 
Q 2419 3097 1959 3097 
z
M 1959 3584 
Q 2709 3584 3137 3096 
Q 3566 2609 3566 1747 
Q 3566 888 3137 398 
Q 2709 -91 1959 -91 
Q 1206 -91 779 398 
Q 353 888 353 1747 
Q 353 2609 779 3096 
Q 1206 3584 1959 3584 
z
" transform="scale(0.015625)"/>
      </defs>
      <use xlink:href="#DejaVuSans-49"/>
      <use xlink:href="#DejaVuSans-6e" x="29.492188"/>
      <use xlink:href="#DejaVuSans-76" x="92.871094"/>
      <use xlink:href="#DejaVuSans-65" x="152.050781"/>
      <use xlink:href="#DejaVuSans-72" x="213.574219"/>
      <use xlink:href="#DejaVuSans-73" x="254.6875"/>
      <use xlink:href="#DejaVuSans-65" x="306.787109"/>
      <use xlink:href="#DejaVuSans-20" x="368.310547"/>
      <use xlink:href="#DejaVuSans-74" x="400.097656"/>
      <use xlink:href="#DejaVuSans-68" x="439.306641"/>
      <use xlink:href="#DejaVuSans-72" x="502.685547"/>
      <use xlink:href="#DejaVuSans-6f" x="541.548828"/>
      <use xlink:href="#DejaVuSans-75" x="602.730469"/>
      <use xlink:href="#DejaVuSans-67" x="666.109375"/>
      <use xlink:href="#DejaVuSans-68" x="729.585938"/>
      <use xlink:href="#DejaVuSans-70" x="792.964844"/>
      <use xlink:href="#DejaVuSans-75" x="856.441406"/>
      <use xlink:href="#DejaVuSans-74" x="919.820312"/>
      <use xlink:href="#DejaVuSans-20" x="959.029297"/>
      <use xlink:href="#DejaVuSans-28" x="990.816406"/>
      <use xlink:href="#DejaVuSans-6e" x="1029.830078"/>
      <use xlink:href="#DejaVuSans-73" x="1093.208984"/>
      <use xlink:href="#DejaVuSans-29" x="1145.308594"/>
     </g>
    </g>
   </g>
   <g id="line2d_58">
    <path d="M 74.865625 484.189984 
L 79.556398 484.293805 
L 84.411955 484.17434 
L 89.924798 484.194774 
L 94.632688 484.168507 
L 100.156266 482.380135 
L 105.26842 482.398988 
L 110.361348 482.375872 
L 115.341895 482.380471 
L 120.404759 480.677754 
L 125.420521 480.63328 
L 130.491444 480.666236 
L 135.651989 480.66549 
L 140.764143 480.661651 
L 145.857071 478.467177 
L 150.933635 478.596126 
L 155.982591 478.57637 
L 161.056721 478.554693 
L 166.167165 474.906505 
L 171.198957 474.911468 
L 176.303617 474.878421 
L 181.390168 474.869436 
L 186.4613 474.952324 
L 191.532937 472.52526 
L 196.599134 472.660524 
L 201.682827 472.610632 
L 206.745843 472.699858 
L 211.828474 470.569693 
L 216.89834 470.322884 
L 221.967664 470.502973 
L 227.046847 470.509082 
L 232.118177 468.434923 
L 237.191835 468.184731 
L 242.264279 468.231407 
L 247.333903 468.189985 
L 252.410653 468.246686 
L 257.481113 466.209698 
L 262.55469 466.036269 
L 267.626848 466.195134 
L 272.700838 466.148495 
L 277.773245 463.851808 
L 282.847412 463.491182 
L 287.918813 463.520883 
L 292.992191 463.349833 
L 298.065555 463.382652 
L 303.138102 460.311281 
L 308.210573 459.413617 
L 313.283465 459.044848 
L 318.356064 458.82185 
L 323.42881 453.702543 
L 328.501688 453.23875 
L 333.574396 452.868685 
L 338.647337 452.132624 
L 343.720056 446.165736 
L 348.792838 445.986856 
L 353.865608 445.610872 
L 358.938341 445.312559 
L 364.011048 445.027805 
L 369.083792 439.033495 
L 374.156471 438.650397 
L 379.229205 438.064528 
L 384.301927 436.889012 
L 389.374668 430.626805 
L 394.447406 427.936581 
L 399.52014 425.232051 
L 404.592884 422.380175 
L 409.665598 419.526544 
L 414.73835 411.851229 
L 419.811079 407.987715 
L 424.883802 406.366913 
L 429.956533 402.923596 
L 435.029256 395.554975 
L 440.101982 386.751336 
L 445.17471 388.953985 
L 450.247443 369.360257 
L 455.320172 359.436875 
L 460.392898 349.106489 
L 465.465626 325.597151 
L 470.538352 318.186187 
L 475.611079 307.900316 
L 480.683809 273.991781 
L 485.756536 261.413113 
L 490.829264 253.0127 
L 495.901992 239.593535 
L 500.974718 212.014826 
L 506.047445 199.838432 
L 511.120172 188.091101 
L 516.192899 173.868725 
L 521.265626 160.337061 
L 526.338353 127.719589 
L 531.411082 117.451903 
L 536.48381 104.087936 
L 541.556538 95.266568 
L 546.629267 53.869125 
L 551.701993 40.179544 
L 556.774719 29.02467 
L 561.847446 24.937671 
L 566.920173 12.171613 
L 568.341272 -1 
" clip-path="url(#p258bb04c9f)" style="fill: none; stroke: #17becf; stroke-linecap: square"/>
   </g>
   <g id="line2d_59">
    <path d="M 74.865625 486.241415 
L 79.556398 478.878638 
L 84.411955 479.116464 
L 89.924798 484.232405 
L 94.632688 486.72311 
L 100.156266 483.708573 
L 105.26842 475.056856 
L 110.361348 478.668836 
L 115.341895 483.257656 
L 120.404759 477.556904 
L 125.420521 472.620495 
L 130.491444 476.947903 
L 135.651989 477.728427 
L 140.764143 482.01609 
L 145.857071 475.771251 
L 150.933635 471.988111 
L 155.982591 474.337468 
L 161.056721 476.808646 
L 166.167165 476.557709 
L 171.198957 472.275214 
L 176.303617 471.47556 
L 181.390168 474.552791 
L 186.4613 476.921666 
L 191.532937 470.865057 
L 196.599134 467.111675 
L 201.682827 470.047115 
L 206.745843 472.886019 
L 211.828474 470.680344 
L 216.89834 464.378138 
L 221.967664 466.065783 
L 227.046847 469.291613 
L 232.118177 470.9812 
L 237.191835 463.244866 
L 242.264279 460.378575 
L 247.333903 464.756128 
L 252.410653 468.181627 
L 257.481113 463.777124 
L 262.55469 456.357734 
L 267.626848 459.725284 
L 272.700838 463.944495 
L 277.773245 464.1486 
L 282.847412 455.821169 
L 287.918813 453.655786 
L 292.992191 458.778206 
L 298.065555 462.597143 
L 303.138102 455.821805 
L 308.210573 448.355429 
L 313.283465 453.205439 
L 318.356064 457.808175 
L 323.42881 456.002043 
L 328.501688 446.782661 
L 333.574396 446.534396 
L 338.647337 451.873076 
L 343.720056 455.817199 
L 348.792838 446.071455 
L 353.865608 439.659823 
L 358.938341 445.187011 
L 364.011048 450.028726 
L 369.083792 445.631391 
L 374.156471 435.774145 
L 379.229205 437.473794 
L 384.301927 442.340584 
L 389.374668 443.720337 
L 394.447406 434.68799 
L 399.52014 430.161041 
L 404.592884 435.763192 
L 409.665598 439.416002 
L 414.73835 432.435451 
L 419.811079 424.737338 
L 424.883802 428.859967 
L 429.956533 433.657541 
L 435.029256 430.923768 
L 440.101982 417.351277 
L 445.17471 418.08377 
L 450.247443 415.282882 
L 455.320172 415.35504 
L 460.392898 396.760542 
L 465.465626 393.269995 
L 470.538352 391.033943 
L 475.611079 387.896453 
L 480.683809 384.543133 
L 485.756536 379.271955 
L 490.829264 376.145008 
L 495.901992 374.34036 
L 500.974718 372.51881 
L 506.047445 366.414928 
L 511.120172 356.314281 
L 516.192899 355.06518 
L 521.265626 354.427038 
L 526.338353 350.123277 
L 531.411082 339.14446 
L 536.48381 332.711228 
L 541.556538 335.525652 
L 546.629267 336.087227 
L 551.701993 323.475098 
L 556.774719 310.063898 
L 561.847446 313.730046 
L 566.920173 318.158365 
L 571.992901 308.914517 
L 577.065628 290.212659 
L 582.138356 290.528605 
L 587.211084 292.726117 
L 592.283809 291.134959 
L 597.356535 276.15385 
L 602.429262 265.531859 
L 607.50199 269.523875 
L 612.574716 271.808031 
L 617.647443 261.520648 
L 622.720171 244.97788 
L 627.792898 240.712369 
L 632.865625 250.834364 
" clip-path="url(#p258bb04c9f)" style="fill: none; stroke: #8c564b; stroke-linecap: square"/>
   </g>
   <g id="line2d_60">
    <path d="M 74.865625 483.060258 
L 79.556398 483.033659 
L 84.411955 483.05907 
L 89.924798 483.073343 
L 94.632688 483.073778 
L 100.156266 483.062058 
L 105.26842 483.103526 
L 110.361348 483.035769 
L 115.341895 483.049445 
L 120.404759 480.944989 
L 125.420521 480.93578 
L 130.491444 480.925296 
L 135.651989 480.984502 
L 140.764143 480.938371 
L 145.857071 477.755188 
L 150.933635 477.656581 
L 155.982591 477.775153 
L 161.056721 477.63836 
L 166.167165 474.599471 
L 171.198957 474.689266 
L 176.303617 474.633316 
L 181.390168 474.661835 
L 186.4613 474.693695 
L 191.532937 472.384461 
L 196.599134 472.389486 
L 201.682827 472.313036 
L 206.745843 472.395509 
L 211.828474 470.260809 
L 216.89834 470.288249 
L 221.967664 470.34837 
L 227.046847 470.337053 
L 232.118177 467.949824 
L 237.191835 467.939583 
L 242.264279 467.813639 
L 247.333903 467.96553 
L 252.410653 467.991075 
L 257.481113 465.383913 
L 262.55469 465.431101 
L 267.626848 465.372414 
L 272.700838 465.395084 
L 277.773245 461.313559 
L 282.847412 461.291145 
L 287.918813 461.359056 
L 292.992191 461.35516 
L 298.065555 461.377135 
L 303.138102 456.718443 
L 308.210573 456.666258 
L 313.283465 456.6238 
L 318.356064 456.597374 
L 323.42881 452.366968 
L 328.501688 452.30349 
L 333.574396 452.546107 
L 338.647337 452.416013 
L 343.720056 447.731156 
L 348.792838 447.998495 
L 353.865608 447.950002 
L 358.938341 447.853452 
L 364.011048 447.876811 
L 369.083792 443.595042 
L 374.156471 443.693557 
L 379.229205 443.604415 
L 384.301927 443.677981 
L 389.374668 439.360078 
L 394.447406 439.366357 
L 399.52014 439.428734 
L 404.592884 439.286737 
L 409.665598 438.940872 
L 414.73835 435.391443 
L 419.811079 435.111008 
L 424.883802 434.850867 
L 429.956533 435.474521 
L 435.029256 428.765305 
L 440.101982 423.394078 
L 445.17471 425.739345 
L 450.247443 413.822136 
L 455.320172 418.518037 
L 460.392898 396.636578 
L 465.465626 393.019412 
L 470.538352 388.411971 
L 475.611079 385.251869 
L 480.683809 374.424902 
L 485.756536 371.255283 
L 490.829264 369.665449 
L 495.901992 367.593144 
L 500.974718 352.237176 
L 506.047445 351.389741 
L 511.120172 349.354905 
L 516.192899 346.676724 
L 521.265626 345.951251 
L 526.338353 331.105785 
L 531.411082 329.887938 
L 536.48381 327.212887 
L 541.556538 326.889086 
L 546.629267 312.53166 
L 551.701993 309.353266 
L 556.774719 307.734307 
L 561.847446 305.608705 
L 566.920173 304.692665 
L 571.992901 283.617527 
L 577.065628 282.627202 
L 582.138356 280.477543 
L 587.211084 278.428443 
L 592.283809 261.92223 
L 597.356535 259.725815 
L 602.429262 259.717323 
L 607.50199 255.474336 
L 612.574716 242.36175 
L 617.647443 238.796071 
L 622.720171 238.40874 
L 627.792898 236.745284 
L 632.865625 232.999541 
" clip-path="url(#p258bb04c9f)" style="fill: none; stroke: #2ca02c; stroke-linecap: square"/>
   </g>
   <g id="line2d_61"/>
   <g id="line2d_62"/>
   <g id="line2d_63"/>
   <g id="line2d_64"/>
   <g id="patch_5">
    <path d="M 46.965625 494.114688 
L 46.965625 50.594688 
" style="fill: none; stroke: #000000; stroke-width: 0.8; stroke-linejoin: miter; stroke-linecap: square"/>
   </g>
   <g id="patch_6">
    <path d="M 660.765625 494.114688 
L 660.765625 50.594688 
" style="fill: none; stroke: #000000; stroke-width: 0.8; stroke-linejoin: miter; stroke-linecap: square"/>
   </g>
   <g id="patch_7">
    <path d="M 46.965625 494.114688 
L 660.765625 494.114688 
" style="fill: none; stroke: #000000; stroke-width: 0.8; stroke-linejoin: miter; stroke-linecap: square"/>
   </g>
   <g id="patch_8">
    <path d="M 46.965625 50.594688 
L 660.765625 50.594688 
" style="fill: none; stroke: #000000; stroke-width: 0.8; stroke-linejoin: miter; stroke-linecap: square"/>
   </g>
   <g id="text_38">
    <!-- L1  -->
    <g style="fill: #ff0000" transform="translate(283.706204 492.035) scale(0.1 -0.1)">
     <defs>
      <path id="DejaVuSans-4c" d="M 628 4666 
L 1259 4666 
L 1259 531 
L 3531 531 
L 3531 0 
L 628 0 
L 628 4666 
z
" transform="scale(0.015625)"/>
     </defs>
     <use xlink:href="#DejaVuSans-4c"/>
     <use xlink:href="#DejaVuSans-31" x="55.712891"/>
     <use xlink:href="#DejaVuSans-20" x="119.335938"/>
    </g>
   </g>
   <g id="text_39">
    <!-- L2  -->
    <g style="fill: #ff0000" transform="translate(373.287435 492.035) scale(0.1 -0.1)">
     <use xlink:href="#DejaVuSans-4c"/>
     <use xlink:href="#DejaVuSans-32" x="55.712891"/>
     <use xlink:href="#DejaVuSans-20" x="119.335938"/>
    </g>
   </g>
   <g id="text_40">
    <!-- L3  -->
    <g style="fill: #ff0000" transform="translate(440.473359 492.035) scale(0.1 -0.1)">
     <use xlink:href="#DejaVuSans-4c"/>
     <use xlink:href="#DejaVuSans-33" x="55.712891"/>
     <use xlink:href="#DejaVuSans-20" x="119.335938"/>
    </g>
   </g>
   <g id="text_41">
    <!-- RAM -->
    <g style="fill: #ff0000" transform="translate(610.848438 492.035) scale(0.1 -0.1)">
     <defs>
      <path id="DejaVuSans-52" d="M 2841 2188 
Q 3044 2119 3236 1894 
Q 3428 1669 3622 1275 
L 4263 0 
L 3584 0 
L 2988 1197 
Q 2756 1666 2539 1819 
Q 2322 1972 1947 1972 
L 1259 1972 
L 1259 0 
L 628 0 
L 628 4666 
L 2053 4666 
Q 2853 4666 3247 4331 
Q 3641 3997 3641 3322 
Q 3641 2881 3436 2590 
Q 3231 2300 2841 2188 
z
M 1259 4147 
L 1259 2491 
L 2053 2491 
Q 2509 2491 2742 2702 
Q 2975 2913 2975 3322 
Q 2975 3731 2742 3939 
Q 2509 4147 2053 4147 
L 1259 4147 
z
" transform="scale(0.015625)"/>
      <path id="DejaVuSans-4d" d="M 628 4666 
L 1569 4666 
L 2759 1491 
L 3956 4666 
L 4897 4666 
L 4897 0 
L 4281 0 
L 4281 4097 
L 3078 897 
L 2444 897 
L 1241 4097 
L 1241 0 
L 628 0 
L 628 4666 
z
" transform="scale(0.015625)"/>
     </defs>
     <use xlink:href="#DejaVuSans-52"/>
     <use xlink:href="#DejaVuSans-41" x="65.482422"/>
     <use xlink:href="#DejaVuSans-4d" x="133.890625"/>
    </g>
   </g>
   <g id="text_42">
    <!-- Eytzinger layout with prefetching -->
    <g transform="translate(254.04625 16.318125) scale(0.12 -0.12)">
     <defs>
      <path id="DejaVuSans-45" d="M 628 4666 
L 3578 4666 
L 3578 4134 
L 1259 4134 
L 1259 2753 
L 3481 2753 
L 3481 2222 
L 1259 2222 
L 1259 531 
L 3634 531 
L 3634 0 
L 628 0 
L 628 4666 
z
" transform="scale(0.015625)"/>
      <path id="DejaVuSans-77" d="M 269 3500 
L 844 3500 
L 1563 769 
L 2278 3500 
L 2956 3500 
L 3675 769 
L 4391 3500 
L 4966 3500 
L 4050 0 
L 3372 0 
L 2619 2869 
L 1863 0 
L 1184 0 
L 269 3500 
z
" transform="scale(0.015625)"/>
      <path id="DejaVuSans-66" d="M 2375 4863 
L 2375 4384 
L 1825 4384 
Q 1516 4384 1395 4259 
Q 1275 4134 1275 3809 
L 1275 3500 
L 2222 3500 
L 2222 3053 
L 1275 3053 
L 1275 0 
L 697 0 
L 697 3053 
L 147 3053 
L 147 3500 
L 697 3500 
L 697 3744 
Q 697 4328 969 4595 
Q 1241 4863 1831 4863 
L 2375 4863 
z
" transform="scale(0.015625)"/>
      <path id="DejaVuSans-63" d="M 3122 3366 
L 3122 2828 
Q 2878 2963 2633 3030 
Q 2388 3097 2138 3097 
Q 1578 3097 1268 2742 
Q 959 2388 959 1747 
Q 959 1106 1268 751 
Q 1578 397 2138 397 
Q 2388 397 2633 464 
Q 2878 531 3122 666 
L 3122 134 
Q 2881 22 2623 -34 
Q 2366 -91 2075 -91 
Q 1284 -91 818 406 
Q 353 903 353 1747 
Q 353 2603 823 3093 
Q 1294 3584 2113 3584 
Q 2378 3584 2631 3529 
Q 2884 3475 3122 3366 
z
" transform="scale(0.015625)"/>
     </defs>
     <use xlink:href="#DejaVuSans-45"/>
     <use xlink:href="#DejaVuSans-79" x="63.183594"/>
     <use xlink:href="#DejaVuSans-74" x="122.363281"/>
     <use xlink:href="#DejaVuSans-7a" x="161.572266"/>
     <use xlink:href="#DejaVuSans-69" x="214.0625"/>
     <use xlink:href="#DejaVuSans-6e" x="241.845703"/>
     <use xlink:href="#DejaVuSans-67" x="305.224609"/>
     <use xlink:href="#DejaVuSans-65" x="368.701172"/>
     <use xlink:href="#DejaVuSans-72" x="430.224609"/>
     <use xlink:href="#DejaVuSans-20" x="471.337891"/>
     <use xlink:href="#DejaVuSans-6c" x="503.125"/>
     <use xlink:href="#DejaVuSans-61" x="530.908203"/>
     <use xlink:href="#DejaVuSans-79" x="592.1875"/>
     <use xlink:href="#DejaVuSans-6f" x="651.367188"/>
     <use xlink:href="#DejaVuSans-75" x="712.548828"/>
     <use xlink:href="#DejaVuSans-74" x="775.927734"/>
     <use xlink:href="#DejaVuSans-20" x="815.136719"/>
     <use xlink:href="#DejaVuSans-77" x="846.923828"/>
     <use xlink:href="#DejaVuSans-69" x="928.710938"/>
     <use xlink:href="#DejaVuSans-74" x="956.494141"/>
     <use xlink:href="#DejaVuSans-68" x="995.703125"/>
     <use xlink:href="#DejaVuSans-20" x="1059.082031"/>
     <use xlink:href="#DejaVuSans-70" x="1090.869141"/>
     <use xlink:href="#DejaVuSans-72" x="1154.345703"/>
     <use xlink:href="#DejaVuSans-65" x="1193.208984"/>
     <use xlink:href="#DejaVuSans-66" x="1254.732422"/>
     <use xlink:href="#DejaVuSans-65" x="1289.9375"/>
     <use xlink:href="#DejaVuSans-74" x="1351.460938"/>
     <use xlink:href="#DejaVuSans-63" x="1390.669922"/>
     <use xlink:href="#DejaVuSans-68" x="1445.650391"/>
     <use xlink:href="#DejaVuSans-69" x="1509.029297"/>
     <use xlink:href="#DejaVuSans-6e" x="1536.8125"/>
     <use xlink:href="#DejaVuSans-67" x="1600.191406"/>
    </g>
   </g>
   <g id="legend_1">
    <g id="patch_9">
     <path d="M 53.965625 103.463438 
L 301.925 103.463438 
Q 303.925 103.463438 303.925 101.463438 
L 303.925 57.594688 
Q 303.925 55.594688 301.925 55.594688 
L 53.965625 55.594688 
Q 51.965625 55.594688 51.965625 57.594688 
L 51.965625 101.463438 
Q 51.965625 103.463438 53.965625 103.463438 
L 53.965625 103.463438 
z
" style="fill: none; opacity: 0"/>
    </g>
    <g id="line2d_65">
     <path d="M 55.965625 63.693125 
L 65.965625 63.693125 
L 75.965625 63.693125 
" style="fill: none; stroke: #17becf; stroke-width: 1.5; stroke-linecap: square"/>
    </g>
    <g id="text_43">
     <!-- Eytzinger::search_branchless -->
     <g transform="translate(83.965625 67.193125) scale(0.1 -0.1)">
      <defs>
       <path id="DejaVuSans-3a" d="M 750 794 
L 1409 794 
L 1409 0 
L 750 0 
L 750 794 
z
M 750 3309 
L 1409 3309 
L 1409 2516 
L 750 2516 
L 750 3309 
z
" transform="scale(0.015625)"/>
       <path id="DejaVuSans-5f" d="M 3263 -1063 
L 3263 -1509 
L -63 -1509 
L -63 -1063 
L 3263 -1063 
z
" transform="scale(0.015625)"/>
      </defs>
      <use xlink:href="#DejaVuSans-45"/>
      <use xlink:href="#DejaVuSans-79" x="63.183594"/>
      <use xlink:href="#DejaVuSans-74" x="122.363281"/>
      <use xlink:href="#DejaVuSans-7a" x="161.572266"/>
      <use xlink:href="#DejaVuSans-69" x="214.0625"/>
      <use xlink:href="#DejaVuSans-6e" x="241.845703"/>
      <use xlink:href="#DejaVuSans-67" x="305.224609"/>
      <use xlink:href="#DejaVuSans-65" x="368.701172"/>
      <use xlink:href="#DejaVuSans-72" x="430.224609"/>
      <use xlink:href="#DejaVuSans-3a" x="469.587891"/>
      <use xlink:href="#DejaVuSans-3a" x="503.279297"/>
      <use xlink:href="#DejaVuSans-73" x="536.970703"/>
      <use xlink:href="#DejaVuSans-65" x="589.070312"/>
      <use xlink:href="#DejaVuSans-61" x="650.59375"/>
      <use xlink:href="#DejaVuSans-72" x="711.873047"/>
      <use xlink:href="#DejaVuSans-63" x="750.736328"/>
      <use xlink:href="#DejaVuSans-68" x="805.716797"/>
      <use xlink:href="#DejaVuSans-5f" x="869.095703"/>
      <use xlink:href="#DejaVuSans-62" x="919.095703"/>
      <use xlink:href="#DejaVuSans-72" x="982.572266"/>
      <use xlink:href="#DejaVuSans-61" x="1023.685547"/>
      <use xlink:href="#DejaVuSans-6e" x="1084.964844"/>
      <use xlink:href="#DejaVuSans-63" x="1148.34375"/>
      <use xlink:href="#DejaVuSans-68" x="1203.324219"/>
      <use xlink:href="#DejaVuSans-6c" x="1266.703125"/>
      <use xlink:href="#DejaVuSans-65" x="1294.486328"/>
      <use xlink:href="#DejaVuSans-73" x="1356.009766"/>
      <use xlink:href="#DejaVuSans-73" x="1408.109375"/>
     </g>
    </g>
    <g id="line2d_66">
     <path d="M 55.965625 78.649375 
L 65.965625 78.649375 
L 75.965625 78.649375 
" style="fill: none; stroke: #8c564b; stroke-width: 1.5; stroke-linecap: square"/>
    </g>
    <g id="text_44">
     <!-- Eytzinger::search_prefetch&lt;4&gt; -->
     <g transform="translate(83.965625 82.149375) scale(0.1 -0.1)">
      <defs>
       <path id="DejaVuSans-3c" d="M 4684 3150 
L 1459 2003 
L 4684 863 
L 4684 294 
L 678 1747 
L 678 2266 
L 4684 3719 
L 4684 3150 
z
" transform="scale(0.015625)"/>
       <path id="DejaVuSans-3e" d="M 678 3150 
L 678 3719 
L 4684 2266 
L 4684 1747 
L 678 294 
L 678 863 
L 3897 2003 
L 678 3150 
z
" transform="scale(0.015625)"/>
      </defs>
      <use xlink:href="#DejaVuSans-45"/>
      <use xlink:href="#DejaVuSans-79" x="63.183594"/>
      <use xlink:href="#DejaVuSans-74" x="122.363281"/>
      <use xlink:href="#DejaVuSans-7a" x="161.572266"/>
      <use xlink:href="#DejaVuSans-69" x="214.0625"/>
      <use xlink:href="#DejaVuSans-6e" x="241.845703"/>
      <use xlink:href="#DejaVuSans-67" x="305.224609"/>
      <use xlink:href="#DejaVuSans-65" x="368.701172"/>
      <use xlink:href="#DejaVuSans-72" x="430.224609"/>
      <use xlink:href="#DejaVuSans-3a" x="469.587891"/>
      <use xlink:href="#DejaVuSans-3a" x="503.279297"/>
      <use xlink:href="#DejaVuSans-73" x="536.970703"/>
      <use xlink:href="#DejaVuSans-65" x="589.070312"/>
      <use xlink:href="#DejaVuSans-61" x="650.59375"/>
      <use xlink:href="#DejaVuSans-72" x="711.873047"/>
      <use xlink:href="#DejaVuSans-63" x="750.736328"/>
      <use xlink:href="#DejaVuSans-68" x="805.716797"/>
      <use xlink:href="#DejaVuSans-5f" x="869.095703"/>
      <use xlink:href="#DejaVuSans-70" x="919.095703"/>
      <use xlink:href="#DejaVuSans-72" x="982.572266"/>
      <use xlink:href="#DejaVuSans-65" x="1021.435547"/>
      <use xlink:href="#DejaVuSans-66" x="1082.958984"/>
      <use xlink:href="#DejaVuSans-65" x="1118.164062"/>
      <use xlink:href="#DejaVuSans-74" x="1179.6875"/>
      <use xlink:href="#DejaVuSans-63" x="1218.896484"/>
      <use xlink:href="#DejaVuSans-68" x="1273.876953"/>
      <use xlink:href="#DejaVuSans-3c" x="1337.255859"/>
      <use xlink:href="#DejaVuSans-34" x="1421.044922"/>
      <use xlink:href="#DejaVuSans-3e" x="1484.667969"/>
     </g>
    </g>
    <g id="line2d_67">
     <path d="M 55.965625 93.605625 
L 65.965625 93.605625 
L 75.965625 93.605625 
" style="fill: none; stroke: #2ca02c; stroke-width: 1.5; stroke-linecap: square"/>
    </g>
    <g id="text_45">
     <!-- Eytzinger::search_branchless_prefetch&lt;4&gt; -->
     <g transform="translate(83.965625 97.105625) scale(0.1 -0.1)">
      <use xlink:href="#DejaVuSans-45"/>
      <use xlink:href="#DejaVuSans-79" x="63.183594"/>
      <use xlink:href="#DejaVuSans-74" x="122.363281"/>
      <use xlink:href="#DejaVuSans-7a" x="161.572266"/>
      <use xlink:href="#DejaVuSans-69" x="214.0625"/>
      <use xlink:href="#DejaVuSans-6e" x="241.845703"/>
      <use xlink:href="#DejaVuSans-67" x="305.224609"/>
      <use xlink:href="#DejaVuSans-65" x="368.701172"/>
      <use xlink:href="#DejaVuSans-72" x="430.224609"/>
      <use xlink:href="#DejaVuSans-3a" x="469.587891"/>
      <use xlink:href="#DejaVuSans-3a" x="503.279297"/>
      <use xlink:href="#DejaVuSans-73" x="536.970703"/>
      <use xlink:href="#DejaVuSans-65" x="589.070312"/>
      <use xlink:href="#DejaVuSans-61" x="650.59375"/>
      <use xlink:href="#DejaVuSans-72" x="711.873047"/>
      <use xlink:href="#DejaVuSans-63" x="750.736328"/>
      <use xlink:href="#DejaVuSans-68" x="805.716797"/>
      <use xlink:href="#DejaVuSans-5f" x="869.095703"/>
      <use xlink:href="#DejaVuSans-62" x="919.095703"/>
      <use xlink:href="#DejaVuSans-72" x="982.572266"/>
      <use xlink:href="#DejaVuSans-61" x="1023.685547"/>
      <use xlink:href="#DejaVuSans-6e" x="1084.964844"/>
      <use xlink:href="#DejaVuSans-63" x="1148.34375"/>
      <use xlink:href="#DejaVuSans-68" x="1203.324219"/>
      <use xlink:href="#DejaVuSans-6c" x="1266.703125"/>
      <use xlink:href="#DejaVuSans-65" x="1294.486328"/>
      <use xlink:href="#DejaVuSans-73" x="1356.009766"/>
      <use xlink:href="#DejaVuSans-73" x="1408.109375"/>
      <use xlink:href="#DejaVuSans-5f" x="1460.208984"/>
      <use xlink:href="#DejaVuSans-70" x="1510.208984"/>
      <use xlink:href="#DejaVuSans-72" x="1573.685547"/>
      <use xlink:href="#DejaVuSans-65" x="1612.548828"/>
      <use xlink:href="#DejaVuSans-66" x="1674.072266"/>
      <use xlink:href="#DejaVuSans-65" x="1709.277344"/>
      <use xlink:href="#DejaVuSans-74" x="1770.800781"/>
      <use xlink:href="#DejaVuSans-63" x="1810.009766"/>
      <use xlink:href="#DejaVuSans-68" x="1864.990234"/>
      <use xlink:href="#DejaVuSans-3c" x="1928.369141"/>
      <use xlink:href="#DejaVuSans-34" x="2012.158203"/>
      <use xlink:href="#DejaVuSans-3e" x="2075.78125"/>
     </g>
    </g>
   </g>
  </g>
 </g>
 <defs>
  <clipPath id="p258bb04c9f">
   <rect x="46.965625" y="50.594688" width="613.8" height="443.52"/>
  </clipPath>
 </defs>
</svg>
