<?xml version="1.0" encoding="utf-8" standalone="no"?>
<!DOCTYPE svg PUBLIC "-//W3C//DTD SVG 1.1//EN"
  "http://www.w3.org/Graphics/SVG/1.1/DTD/svg11.dtd">
<svg xmlns:xlink="http://www.w3.org/1999/xlink" width="674.328125pt" height="531.670938pt" viewBox="0 0 674.328125 531.670938" xmlns="http://www.w3.org/2000/svg" version="1.1">
 <metadata>
  <rdf:RDF xmlns:dc="http://purl.org/dc/elements/1.1/" xmlns:cc="http://creativecommons.org/ns#" xmlns:rdf="http://www.w3.org/1999/02/22-rdf-syntax-ns#">
   <cc:Work>
    <dc:type rdf:resource="http://purl.org/dc/dcmitype/StillImage"/>
    <dc:date>2025-02-20T23:00:37.352194</dc:date>
    <dc:format>image/svg+xml</dc:format>
    <dc:creator>
     <cc:Agent>
      <dc:title>Matplotlib v3.9.2, https://matplotlib.org/</dc:title>
     </cc:Agent>
    </dc:creator>
   </cc:Work>
  </rdf:RDF>
 </metadata>
 <defs>
  <style type="text/css">*{stroke-linejoin: round; stroke-linecap: butt}</style>
 </defs>
 <g id="figure_1">
  <g id="patch_1">
   <path d="M 0 531.670938 
L 674.328125 531.670938 
L 674.328125 0 
L 0 0 
z
" style="fill: #ffffff"/>
  </g>
  <g id="axes_1">
   <g id="patch_2">
    <path d="M 53.328125 494.114688 
L 667.128125 494.114688 
L 667.128125 50.594688 
L 53.328125 50.594688 
z
" style="fill: #ffffff"/>
   </g>
   <g id="line2d_1">
    <path d="M 304.428125 494.114688 
L 304.428125 50.594688 
" clip-path="url(#p6c94592af6)" style="fill: none; stroke-dasharray: 5.55,2.4; stroke-dashoffset: 0; stroke: #ff0000; stroke-width: 1.5"/>
   </g>
   <g id="line2d_2">
    <path d="M 393.708125 494.114688 
L 393.708125 50.594688 
" clip-path="url(#p6c94592af6)" style="fill: none; stroke-dasharray: 5.55,2.4; stroke-dashoffset: 0; stroke: #ff0000; stroke-width: 1.5"/>
   </g>
   <g id="line2d_3">
    <path d="M 460.668125 494.114688 
L 460.668125 50.594688 
" clip-path="url(#p6c94592af6)" style="fill: none; stroke-dasharray: 5.55,2.4; stroke-dashoffset: 0; stroke: #ff0000; stroke-width: 1.5"/>
   </g>
   <g id="axes_2">
    <g id="patch_3">
     <path d="M 53.328125 50.594688 
L 667.128125 50.594688 
L 667.128125 50.594687 
L 53.328125 50.594687 
z
" style="fill: #ffffff"/>
    </g>
    <g id="matplotlib.axis_1">
     <g id="xtick_1">
      <g id="line2d_4">
       <defs>
        <path id="ma410f9f5f4" d="M 0 0 
L 0 -3.5 
" style="stroke: #000000; stroke-width: 0.8"/>
       </defs>
       <g>
        <use xlink:href="#ma410f9f5f4" x="58.908125" y="50.594687" style="stroke: #000000; stroke-width: 0.8"/>
       </g>
      </g>
      <g id="text_1">
       <!-- $\mathdefault{2^{2}}$ -->
       <g transform="translate(53.308125 41.515) scale(0.1 -0.1)">
        <defs>
         <path id="DejaVuSans-32" d="M 1228 531 
L 3431 531 
L 3431 0 
L 469 0 
L 469 531 
Q 828 903 1448 1529 
Q 2069 2156 2228 2338 
Q 2531 2678 2651 2914 
Q 2772 3150 2772 3378 
Q 2772 3750 2511 3984 
Q 2250 4219 1831 4219 
Q 1534 4219 1204 4116 
Q 875 4013 500 3803 
L 500 4441 
Q 881 4594 1212 4672 
Q 1544 4750 1819 4750 
Q 2544 4750 2975 4387 
Q 3406 4025 3406 3419 
Q 3406 3131 3298 2873 
Q 3191 2616 2906 2266 
Q 2828 2175 2409 1742 
Q 1991 1309 1228 531 
z
" transform="scale(0.015625)"/>
        </defs>
        <use xlink:href="#DejaVuSans-32" transform="translate(0 0.765625)"/>
        <use xlink:href="#DejaVuSans-32" transform="translate(64.580078 39.046875) scale(0.7)"/>
       </g>
      </g>
     </g>
     <g id="xtick_2">
      <g id="line2d_5">
       <g>
        <use xlink:href="#ma410f9f5f4" x="103.548125" y="50.594687" style="stroke: #000000; stroke-width: 0.8"/>
       </g>
      </g>
      <g id="text_2">
       <!-- $\mathdefault{2^{4}}$ -->
       <g transform="translate(97.948125 41.515) scale(0.1 -0.1)">
        <defs>
         <path id="DejaVuSans-34" d="M 2419 4116 
L 825 1625 
L 2419 1625 
L 2419 4116 
z
M 2253 4666 
L 3047 4666 
L 3047 1625 
L 3713 1625 
L 3713 1100 
L 3047 1100 
L 3047 0 
L 2419 0 
L 2419 1100 
L 313 1100 
L 313 1709 
L 2253 4666 
z
" transform="scale(0.015625)"/>
        </defs>
        <use xlink:href="#DejaVuSans-32" transform="translate(0 0.684375)"/>
        <use xlink:href="#DejaVuSans-34" transform="translate(64.580078 38.965625) scale(0.7)"/>
       </g>
      </g>
     </g>
     <g id="xtick_3">
      <g id="line2d_6">
       <g>
        <use xlink:href="#ma410f9f5f4" x="148.188125" y="50.594687" style="stroke: #000000; stroke-width: 0.8"/>
       </g>
      </g>
      <g id="text_3">
       <!-- $\mathdefault{2^{6}}$ -->
       <g transform="translate(142.588125 41.515) scale(0.1 -0.1)">
        <defs>
         <path id="DejaVuSans-36" d="M 2113 2584 
Q 1688 2584 1439 2293 
Q 1191 2003 1191 1497 
Q 1191 994 1439 701 
Q 1688 409 2113 409 
Q 2538 409 2786 701 
Q 3034 994 3034 1497 
Q 3034 2003 2786 2293 
Q 2538 2584 2113 2584 
z
M 3366 4563 
L 3366 3988 
Q 3128 4100 2886 4159 
Q 2644 4219 2406 4219 
Q 1781 4219 1451 3797 
Q 1122 3375 1075 2522 
Q 1259 2794 1537 2939 
Q 1816 3084 2150 3084 
Q 2853 3084 3261 2657 
Q 3669 2231 3669 1497 
Q 3669 778 3244 343 
Q 2819 -91 2113 -91 
Q 1303 -91 875 529 
Q 447 1150 447 2328 
Q 447 3434 972 4092 
Q 1497 4750 2381 4750 
Q 2619 4750 2861 4703 
Q 3103 4656 3366 4563 
z
" transform="scale(0.015625)"/>
        </defs>
        <use xlink:href="#DejaVuSans-32" transform="translate(0 0.765625)"/>
        <use xlink:href="#DejaVuSans-36" transform="translate(64.580078 39.046875) scale(0.7)"/>
       </g>
      </g>
     </g>
     <g id="xtick_4">
      <g id="line2d_7">
       <g>
        <use xlink:href="#ma410f9f5f4" x="192.828125" y="50.594687" style="stroke: #000000; stroke-width: 0.8"/>
       </g>
      </g>
      <g id="text_4">
       <!-- $\mathdefault{2^{8}}$ -->
       <g transform="translate(187.228125 41.515) scale(0.1 -0.1)">
        <defs>
         <path id="DejaVuSans-38" d="M 2034 2216 
Q 1584 2216 1326 1975 
Q 1069 1734 1069 1313 
Q 1069 891 1326 650 
Q 1584 409 2034 409 
Q 2484 409 2743 651 
Q 3003 894 3003 1313 
Q 3003 1734 2745 1975 
Q 2488 2216 2034 2216 
z
M 1403 2484 
Q 997 2584 770 2862 
Q 544 3141 544 3541 
Q 544 4100 942 4425 
Q 1341 4750 2034 4750 
Q 2731 4750 3128 4425 
Q 3525 4100 3525 3541 
Q 3525 3141 3298 2862 
Q 3072 2584 2669 2484 
Q 3125 2378 3379 2068 
Q 3634 1759 3634 1313 
Q 3634 634 3220 271 
Q 2806 -91 2034 -91 
Q 1263 -91 848 271 
Q 434 634 434 1313 
Q 434 1759 690 2068 
Q 947 2378 1403 2484 
z
M 1172 3481 
Q 1172 3119 1398 2916 
Q 1625 2713 2034 2713 
Q 2441 2713 2670 2916 
Q 2900 3119 2900 3481 
Q 2900 3844 2670 4047 
Q 2441 4250 2034 4250 
Q 1625 4250 1398 4047 
Q 1172 3844 1172 3481 
z
" transform="scale(0.015625)"/>
        </defs>
        <use xlink:href="#DejaVuSans-32" transform="translate(0 0.765625)"/>
        <use xlink:href="#DejaVuSans-38" transform="translate(64.580078 39.046875) scale(0.7)"/>
       </g>
      </g>
     </g>
     <g id="xtick_5">
      <g id="line2d_8">
       <g>
        <use xlink:href="#ma410f9f5f4" x="237.468125" y="50.594687" style="stroke: #000000; stroke-width: 0.8"/>
       </g>
      </g>
      <g id="text_5">
       <!-- $\mathdefault{2^{10}}$ -->
       <g transform="translate(229.618125 41.515) scale(0.1 -0.1)">
        <defs>
         <path id="DejaVuSans-31" d="M 794 531 
L 1825 531 
L 1825 4091 
L 703 3866 
L 703 4441 
L 1819 4666 
L 2450 4666 
L 2450 531 
L 3481 531 
L 3481 0 
L 794 0 
L 794 531 
z
" transform="scale(0.015625)"/>
         <path id="DejaVuSans-30" d="M 2034 4250 
Q 1547 4250 1301 3770 
Q 1056 3291 1056 2328 
Q 1056 1369 1301 889 
Q 1547 409 2034 409 
Q 2525 409 2770 889 
Q 3016 1369 3016 2328 
Q 3016 3291 2770 3770 
Q 2525 4250 2034 4250 
z
M 2034 4750 
Q 2819 4750 3233 4129 
Q 3647 3509 3647 2328 
Q 3647 1150 3233 529 
Q 2819 -91 2034 -91 
Q 1250 -91 836 529 
Q 422 1150 422 2328 
Q 422 3509 836 4129 
Q 1250 4750 2034 4750 
z
" transform="scale(0.015625)"/>
        </defs>
        <use xlink:href="#DejaVuSans-32" transform="translate(0 0.765625)"/>
        <use xlink:href="#DejaVuSans-31" transform="translate(64.580078 39.046875) scale(0.7)"/>
        <use xlink:href="#DejaVuSans-30" transform="translate(109.116211 39.046875) scale(0.7)"/>
       </g>
      </g>
     </g>
     <g id="xtick_6">
      <g id="line2d_9">
       <g>
        <use xlink:href="#ma410f9f5f4" x="282.108125" y="50.594687" style="stroke: #000000; stroke-width: 0.8"/>
       </g>
      </g>
      <g id="text_6">
       <!-- $\mathdefault{2^{12}}$ -->
       <g transform="translate(274.258125 41.515) scale(0.1 -0.1)">
        <use xlink:href="#DejaVuSans-32" transform="translate(0 0.765625)"/>
        <use xlink:href="#DejaVuSans-31" transform="translate(64.580078 39.046875) scale(0.7)"/>
        <use xlink:href="#DejaVuSans-32" transform="translate(109.116211 39.046875) scale(0.7)"/>
       </g>
      </g>
     </g>
     <g id="xtick_7">
      <g id="line2d_10">
       <g>
        <use xlink:href="#ma410f9f5f4" x="326.748125" y="50.594687" style="stroke: #000000; stroke-width: 0.8"/>
       </g>
      </g>
      <g id="text_7">
       <!-- $\mathdefault{2^{14}}$ -->
       <g transform="translate(318.898125 41.515) scale(0.1 -0.1)">
        <use xlink:href="#DejaVuSans-32" transform="translate(0 0.684375)"/>
        <use xlink:href="#DejaVuSans-31" transform="translate(64.580078 38.965625) scale(0.7)"/>
        <use xlink:href="#DejaVuSans-34" transform="translate(109.116211 38.965625) scale(0.7)"/>
       </g>
      </g>
     </g>
     <g id="xtick_8">
      <g id="line2d_11">
       <g>
        <use xlink:href="#ma410f9f5f4" x="371.388125" y="50.594687" style="stroke: #000000; stroke-width: 0.8"/>
       </g>
      </g>
      <g id="text_8">
       <!-- $\mathdefault{2^{16}}$ -->
       <g transform="translate(363.538125 41.515) scale(0.1 -0.1)">
        <use xlink:href="#DejaVuSans-32" transform="translate(0 0.765625)"/>
        <use xlink:href="#DejaVuSans-31" transform="translate(64.580078 39.046875) scale(0.7)"/>
        <use xlink:href="#DejaVuSans-36" transform="translate(109.116211 39.046875) scale(0.7)"/>
       </g>
      </g>
     </g>
     <g id="xtick_9">
      <g id="line2d_12">
       <g>
        <use xlink:href="#ma410f9f5f4" x="416.028125" y="50.594687" style="stroke: #000000; stroke-width: 0.8"/>
       </g>
      </g>
      <g id="text_9">
       <!-- $\mathdefault{2^{18}}$ -->
       <g transform="translate(408.178125 41.515) scale(0.1 -0.1)">
        <use xlink:href="#DejaVuSans-32" transform="translate(0 0.765625)"/>
        <use xlink:href="#DejaVuSans-31" transform="translate(64.580078 39.046875) scale(0.7)"/>
        <use xlink:href="#DejaVuSans-38" transform="translate(109.116211 39.046875) scale(0.7)"/>
       </g>
      </g>
     </g>
     <g id="xtick_10">
      <g id="line2d_13">
       <g>
        <use xlink:href="#ma410f9f5f4" x="460.668125" y="50.594687" style="stroke: #000000; stroke-width: 0.8"/>
       </g>
      </g>
      <g id="text_10">
       <!-- $\mathdefault{2^{20}}$ -->
       <g transform="translate(452.818125 41.515) scale(0.1 -0.1)">
        <use xlink:href="#DejaVuSans-32" transform="translate(0 0.765625)"/>
        <use xlink:href="#DejaVuSans-32" transform="translate(64.580078 39.046875) scale(0.7)"/>
        <use xlink:href="#DejaVuSans-30" transform="translate(109.116211 39.046875) scale(0.7)"/>
       </g>
      </g>
     </g>
     <g id="xtick_11">
      <g id="line2d_14">
       <g>
        <use xlink:href="#ma410f9f5f4" x="505.308125" y="50.594687" style="stroke: #000000; stroke-width: 0.8"/>
       </g>
      </g>
      <g id="text_11">
       <!-- $\mathdefault{2^{22}}$ -->
       <g transform="translate(497.458125 41.515) scale(0.1 -0.1)">
        <use xlink:href="#DejaVuSans-32" transform="translate(0 0.765625)"/>
        <use xlink:href="#DejaVuSans-32" transform="translate(64.580078 39.046875) scale(0.7)"/>
        <use xlink:href="#DejaVuSans-32" transform="translate(109.116211 39.046875) scale(0.7)"/>
       </g>
      </g>
     </g>
     <g id="xtick_12">
      <g id="line2d_15">
       <g>
        <use xlink:href="#ma410f9f5f4" x="549.948125" y="50.594687" style="stroke: #000000; stroke-width: 0.8"/>
       </g>
      </g>
      <g id="text_12">
       <!-- $\mathdefault{2^{24}}$ -->
       <g transform="translate(542.098125 41.515) scale(0.1 -0.1)">
        <use xlink:href="#DejaVuSans-32" transform="translate(0 0.765625)"/>
        <use xlink:href="#DejaVuSans-32" transform="translate(64.580078 39.046875) scale(0.7)"/>
        <use xlink:href="#DejaVuSans-34" transform="translate(109.116211 39.046875) scale(0.7)"/>
       </g>
      </g>
     </g>
     <g id="xtick_13">
      <g id="line2d_16">
       <g>
        <use xlink:href="#ma410f9f5f4" x="594.588125" y="50.594687" style="stroke: #000000; stroke-width: 0.8"/>
       </g>
      </g>
      <g id="text_13">
       <!-- $\mathdefault{2^{26}}$ -->
       <g transform="translate(586.738125 41.515) scale(0.1 -0.1)">
        <use xlink:href="#DejaVuSans-32" transform="translate(0 0.765625)"/>
        <use xlink:href="#DejaVuSans-32" transform="translate(64.580078 39.046875) scale(0.7)"/>
        <use xlink:href="#DejaVuSans-36" transform="translate(109.116211 39.046875) scale(0.7)"/>
       </g>
      </g>
     </g>
     <g id="xtick_14">
      <g id="line2d_17">
       <g>
        <use xlink:href="#ma410f9f5f4" x="639.228125" y="50.594687" style="stroke: #000000; stroke-width: 0.8"/>
       </g>
      </g>
      <g id="text_14">
       <!-- $\mathdefault{2^{28}}$ -->
       <g transform="translate(631.378125 41.515) scale(0.1 -0.1)">
        <use xlink:href="#DejaVuSans-32" transform="translate(0 0.765625)"/>
        <use xlink:href="#DejaVuSans-32" transform="translate(64.580078 39.046875) scale(0.7)"/>
        <use xlink:href="#DejaVuSans-38" transform="translate(109.116211 39.046875) scale(0.7)"/>
       </g>
      </g>
     </g>
     <g id="text_15">
      <!-- Array length (u32) -->
      <g transform="translate(314.2125 29.916562) scale(0.1 -0.1)">
       <defs>
        <path id="DejaVuSans-41" d="M 2188 4044 
L 1331 1722 
L 3047 1722 
L 2188 4044 
z
M 1831 4666 
L 2547 4666 
L 4325 0 
L 3669 0 
L 3244 1197 
L 1141 1197 
L 716 0 
L 50 0 
L 1831 4666 
z
" transform="scale(0.015625)"/>
        <path id="DejaVuSans-72" d="M 2631 2963 
Q 2534 3019 2420 3045 
Q 2306 3072 2169 3072 
Q 1681 3072 1420 2755 
Q 1159 2438 1159 1844 
L 1159 0 
L 581 0 
L 581 3500 
L 1159 3500 
L 1159 2956 
Q 1341 3275 1631 3429 
Q 1922 3584 2338 3584 
Q 2397 3584 2469 3576 
Q 2541 3569 2628 3553 
L 2631 2963 
z
" transform="scale(0.015625)"/>
        <path id="DejaVuSans-61" d="M 2194 1759 
Q 1497 1759 1228 1600 
Q 959 1441 959 1056 
Q 959 750 1161 570 
Q 1363 391 1709 391 
Q 2188 391 2477 730 
Q 2766 1069 2766 1631 
L 2766 1759 
L 2194 1759 
z
M 3341 1997 
L 3341 0 
L 2766 0 
L 2766 531 
Q 2569 213 2275 61 
Q 1981 -91 1556 -91 
Q 1019 -91 701 211 
Q 384 513 384 1019 
Q 384 1609 779 1909 
Q 1175 2209 1959 2209 
L 2766 2209 
L 2766 2266 
Q 2766 2663 2505 2880 
Q 2244 3097 1772 3097 
Q 1472 3097 1187 3025 
Q 903 2953 641 2809 
L 641 3341 
Q 956 3463 1253 3523 
Q 1550 3584 1831 3584 
Q 2591 3584 2966 3190 
Q 3341 2797 3341 1997 
z
" transform="scale(0.015625)"/>
        <path id="DejaVuSans-79" d="M 2059 -325 
Q 1816 -950 1584 -1140 
Q 1353 -1331 966 -1331 
L 506 -1331 
L 506 -850 
L 844 -850 
Q 1081 -850 1212 -737 
Q 1344 -625 1503 -206 
L 1606 56 
L 191 3500 
L 800 3500 
L 1894 763 
L 2988 3500 
L 3597 3500 
L 2059 -325 
z
" transform="scale(0.015625)"/>
        <path id="DejaVuSans-20" transform="scale(0.015625)"/>
        <path id="DejaVuSans-6c" d="M 603 4863 
L 1178 4863 
L 1178 0 
L 603 0 
L 603 4863 
z
" transform="scale(0.015625)"/>
        <path id="DejaVuSans-65" d="M 3597 1894 
L 3597 1613 
L 953 1613 
Q 991 1019 1311 708 
Q 1631 397 2203 397 
Q 2534 397 2845 478 
Q 3156 559 3463 722 
L 3463 178 
Q 3153 47 2828 -22 
Q 2503 -91 2169 -91 
Q 1331 -91 842 396 
Q 353 884 353 1716 
Q 353 2575 817 3079 
Q 1281 3584 2069 3584 
Q 2775 3584 3186 3129 
Q 3597 2675 3597 1894 
z
M 3022 2063 
Q 3016 2534 2758 2815 
Q 2500 3097 2075 3097 
Q 1594 3097 1305 2825 
Q 1016 2553 972 2059 
L 3022 2063 
z
" transform="scale(0.015625)"/>
        <path id="DejaVuSans-6e" d="M 3513 2113 
L 3513 0 
L 2938 0 
L 2938 2094 
Q 2938 2591 2744 2837 
Q 2550 3084 2163 3084 
Q 1697 3084 1428 2787 
Q 1159 2491 1159 1978 
L 1159 0 
L 581 0 
L 581 3500 
L 1159 3500 
L 1159 2956 
Q 1366 3272 1645 3428 
Q 1925 3584 2291 3584 
Q 2894 3584 3203 3211 
Q 3513 2838 3513 2113 
z
" transform="scale(0.015625)"/>
        <path id="DejaVuSans-67" d="M 2906 1791 
Q 2906 2416 2648 2759 
Q 2391 3103 1925 3103 
Q 1463 3103 1205 2759 
Q 947 2416 947 1791 
Q 947 1169 1205 825 
Q 1463 481 1925 481 
Q 2391 481 2648 825 
Q 2906 1169 2906 1791 
z
M 3481 434 
Q 3481 -459 3084 -895 
Q 2688 -1331 1869 -1331 
Q 1566 -1331 1297 -1286 
Q 1028 -1241 775 -1147 
L 775 -588 
Q 1028 -725 1275 -790 
Q 1522 -856 1778 -856 
Q 2344 -856 2625 -561 
Q 2906 -266 2906 331 
L 2906 616 
Q 2728 306 2450 153 
Q 2172 0 1784 0 
Q 1141 0 747 490 
Q 353 981 353 1791 
Q 353 2603 747 3093 
Q 1141 3584 1784 3584 
Q 2172 3584 2450 3431 
Q 2728 3278 2906 2969 
L 2906 3500 
L 3481 3500 
L 3481 434 
z
" transform="scale(0.015625)"/>
        <path id="DejaVuSans-74" d="M 1172 4494 
L 1172 3500 
L 2356 3500 
L 2356 3053 
L 1172 3053 
L 1172 1153 
Q 1172 725 1289 603 
Q 1406 481 1766 481 
L 2356 481 
L 2356 0 
L 1766 0 
Q 1100 0 847 248 
Q 594 497 594 1153 
L 594 3053 
L 172 3053 
L 172 3500 
L 594 3500 
L 594 4494 
L 1172 4494 
z
" transform="scale(0.015625)"/>
        <path id="DejaVuSans-68" d="M 3513 2113 
L 3513 0 
L 2938 0 
L 2938 2094 
Q 2938 2591 2744 2837 
Q 2550 3084 2163 3084 
Q 1697 3084 1428 2787 
Q 1159 2491 1159 1978 
L 1159 0 
L 581 0 
L 581 4863 
L 1159 4863 
L 1159 2956 
Q 1366 3272 1645 3428 
Q 1925 3584 2291 3584 
Q 2894 3584 3203 3211 
Q 3513 2838 3513 2113 
z
" transform="scale(0.015625)"/>
        <path id="DejaVuSans-28" d="M 1984 4856 
Q 1566 4138 1362 3434 
Q 1159 2731 1159 2009 
Q 1159 1288 1364 580 
Q 1569 -128 1984 -844 
L 1484 -844 
Q 1016 -109 783 600 
Q 550 1309 550 2009 
Q 550 2706 781 3412 
Q 1013 4119 1484 4856 
L 1984 4856 
z
" transform="scale(0.015625)"/>
        <path id="DejaVuSans-75" d="M 544 1381 
L 544 3500 
L 1119 3500 
L 1119 1403 
Q 1119 906 1312 657 
Q 1506 409 1894 409 
Q 2359 409 2629 706 
Q 2900 1003 2900 1516 
L 2900 3500 
L 3475 3500 
L 3475 0 
L 2900 0 
L 2900 538 
Q 2691 219 2414 64 
Q 2138 -91 1772 -91 
Q 1169 -91 856 284 
Q 544 659 544 1381 
z
M 1991 3584 
L 1991 3584 
z
" transform="scale(0.015625)"/>
        <path id="DejaVuSans-33" d="M 2597 2516 
Q 3050 2419 3304 2112 
Q 3559 1806 3559 1356 
Q 3559 666 3084 287 
Q 2609 -91 1734 -91 
Q 1441 -91 1130 -33 
Q 819 25 488 141 
L 488 750 
Q 750 597 1062 519 
Q 1375 441 1716 441 
Q 2309 441 2620 675 
Q 2931 909 2931 1356 
Q 2931 1769 2642 2001 
Q 2353 2234 1838 2234 
L 1294 2234 
L 1294 2753 
L 1863 2753 
Q 2328 2753 2575 2939 
Q 2822 3125 2822 3475 
Q 2822 3834 2567 4026 
Q 2313 4219 1838 4219 
Q 1578 4219 1281 4162 
Q 984 4106 628 3988 
L 628 4550 
Q 988 4650 1302 4700 
Q 1616 4750 1894 4750 
Q 2613 4750 3031 4423 
Q 3450 4097 3450 3541 
Q 3450 3153 3228 2886 
Q 3006 2619 2597 2516 
z
" transform="scale(0.015625)"/>
        <path id="DejaVuSans-29" d="M 513 4856 
L 1013 4856 
Q 1481 4119 1714 3412 
Q 1947 2706 1947 2009 
Q 1947 1309 1714 600 
Q 1481 -109 1013 -844 
L 513 -844 
Q 928 -128 1133 580 
Q 1338 1288 1338 2009 
Q 1338 2731 1133 3434 
Q 928 4138 513 4856 
z
" transform="scale(0.015625)"/>
       </defs>
       <use xlink:href="#DejaVuSans-41"/>
       <use xlink:href="#DejaVuSans-72" x="68.408203"/>
       <use xlink:href="#DejaVuSans-72" x="107.771484"/>
       <use xlink:href="#DejaVuSans-61" x="148.884766"/>
       <use xlink:href="#DejaVuSans-79" x="210.164062"/>
       <use xlink:href="#DejaVuSans-20" x="269.34375"/>
       <use xlink:href="#DejaVuSans-6c" x="301.130859"/>
       <use xlink:href="#DejaVuSans-65" x="328.914062"/>
       <use xlink:href="#DejaVuSans-6e" x="390.4375"/>
       <use xlink:href="#DejaVuSans-67" x="453.816406"/>
       <use xlink:href="#DejaVuSans-74" x="517.292969"/>
       <use xlink:href="#DejaVuSans-68" x="556.501953"/>
       <use xlink:href="#DejaVuSans-20" x="619.880859"/>
       <use xlink:href="#DejaVuSans-28" x="651.667969"/>
       <use xlink:href="#DejaVuSans-75" x="690.681641"/>
       <use xlink:href="#DejaVuSans-33" x="754.060547"/>
       <use xlink:href="#DejaVuSans-32" x="817.683594"/>
       <use xlink:href="#DejaVuSans-29" x="881.306641"/>
      </g>
     </g>
    </g>
    <g id="matplotlib.axis_2"/>
    <g id="patch_4">
     <path d="M 53.328125 50.594687 
L 667.128125 50.594687 
" style="fill: none; stroke: #000000; stroke-width: 0.8; stroke-linejoin: miter; stroke-linecap: square"/>
    </g>
   </g>
   <g id="matplotlib.axis_3">
    <g id="xtick_15">
     <g id="line2d_18">
      <path d="M 58.908125 494.114688 
L 58.908125 50.594688 
" clip-path="url(#p6c94592af6)" style="fill: none; stroke: #b0b0b0; stroke-opacity: 0.4; stroke-width: 0.8; stroke-linecap: square"/>
     </g>
     <g id="line2d_19">
      <defs>
       <path id="mac41130445" d="M 0 0 
L 0 3.5 
" style="stroke: #000000; stroke-width: 0.8"/>
      </defs>
      <g>
       <use xlink:href="#mac41130445" x="58.908125" y="494.114688" style="stroke: #000000; stroke-width: 0.8"/>
      </g>
     </g>
     <g id="text_16">
      <!-- $\mathdefault{2^{4}}$ -->
      <g transform="translate(53.308125 508.713125) scale(0.1 -0.1)">
       <use xlink:href="#DejaVuSans-32" transform="translate(0 0.684375)"/>
       <use xlink:href="#DejaVuSans-34" transform="translate(64.580078 38.965625) scale(0.7)"/>
      </g>
     </g>
    </g>
    <g id="xtick_16">
     <g id="line2d_20">
      <path d="M 103.548125 494.114688 
L 103.548125 50.594688 
" clip-path="url(#p6c94592af6)" style="fill: none; stroke: #b0b0b0; stroke-opacity: 0.4; stroke-width: 0.8; stroke-linecap: square"/>
     </g>
     <g id="line2d_21">
      <g>
       <use xlink:href="#mac41130445" x="103.548125" y="494.114688" style="stroke: #000000; stroke-width: 0.8"/>
      </g>
     </g>
     <g id="text_17">
      <!-- $\mathdefault{2^{6}}$ -->
      <g transform="translate(97.948125 508.713125) scale(0.1 -0.1)">
       <use xlink:href="#DejaVuSans-32" transform="translate(0 0.765625)"/>
       <use xlink:href="#DejaVuSans-36" transform="translate(64.580078 39.046875) scale(0.7)"/>
      </g>
     </g>
    </g>
    <g id="xtick_17">
     <g id="line2d_22">
      <path d="M 148.188125 494.114688 
L 148.188125 50.594688 
" clip-path="url(#p6c94592af6)" style="fill: none; stroke: #b0b0b0; stroke-opacity: 0.4; stroke-width: 0.8; stroke-linecap: square"/>
     </g>
     <g id="line2d_23">
      <g>
       <use xlink:href="#mac41130445" x="148.188125" y="494.114688" style="stroke: #000000; stroke-width: 0.8"/>
      </g>
     </g>
     <g id="text_18">
      <!-- $\mathdefault{2^{8}}$ -->
      <g transform="translate(142.588125 508.713125) scale(0.1 -0.1)">
       <use xlink:href="#DejaVuSans-32" transform="translate(0 0.765625)"/>
       <use xlink:href="#DejaVuSans-38" transform="translate(64.580078 39.046875) scale(0.7)"/>
      </g>
     </g>
    </g>
    <g id="xtick_18">
     <g id="line2d_24">
      <path d="M 192.828125 494.114688 
L 192.828125 50.594688 
" clip-path="url(#p6c94592af6)" style="fill: none; stroke: #b0b0b0; stroke-opacity: 0.4; stroke-width: 0.8; stroke-linecap: square"/>
     </g>
     <g id="line2d_25">
      <g>
       <use xlink:href="#mac41130445" x="192.828125" y="494.114688" style="stroke: #000000; stroke-width: 0.8"/>
      </g>
     </g>
     <g id="text_19">
      <!-- $\mathdefault{2^{10}}$ -->
      <g transform="translate(184.978125 508.713125) scale(0.1 -0.1)">
       <use xlink:href="#DejaVuSans-32" transform="translate(0 0.765625)"/>
       <use xlink:href="#DejaVuSans-31" transform="translate(64.580078 39.046875) scale(0.7)"/>
       <use xlink:href="#DejaVuSans-30" transform="translate(109.116211 39.046875) scale(0.7)"/>
      </g>
     </g>
    </g>
    <g id="xtick_19">
     <g id="line2d_26">
      <path d="M 237.468125 494.114688 
L 237.468125 50.594688 
" clip-path="url(#p6c94592af6)" style="fill: none; stroke: #b0b0b0; stroke-opacity: 0.4; stroke-width: 0.8; stroke-linecap: square"/>
     </g>
     <g id="line2d_27">
      <g>
       <use xlink:href="#mac41130445" x="237.468125" y="494.114688" style="stroke: #000000; stroke-width: 0.8"/>
      </g>
     </g>
     <g id="text_20">
      <!-- $\mathdefault{2^{12}}$ -->
      <g transform="translate(229.618125 508.713125) scale(0.1 -0.1)">
       <use xlink:href="#DejaVuSans-32" transform="translate(0 0.765625)"/>
       <use xlink:href="#DejaVuSans-31" transform="translate(64.580078 39.046875) scale(0.7)"/>
       <use xlink:href="#DejaVuSans-32" transform="translate(109.116211 39.046875) scale(0.7)"/>
      </g>
     </g>
    </g>
    <g id="xtick_20">
     <g id="line2d_28">
      <path d="M 282.108125 494.114688 
L 282.108125 50.594688 
" clip-path="url(#p6c94592af6)" style="fill: none; stroke: #b0b0b0; stroke-opacity: 0.4; stroke-width: 0.8; stroke-linecap: square"/>
     </g>
     <g id="line2d_29">
      <g>
       <use xlink:href="#mac41130445" x="282.108125" y="494.114688" style="stroke: #000000; stroke-width: 0.8"/>
      </g>
     </g>
     <g id="text_21">
      <!-- $\mathdefault{2^{14}}$ -->
      <g transform="translate(274.258125 508.713125) scale(0.1 -0.1)">
       <use xlink:href="#DejaVuSans-32" transform="translate(0 0.684375)"/>
       <use xlink:href="#DejaVuSans-31" transform="translate(64.580078 38.965625) scale(0.7)"/>
       <use xlink:href="#DejaVuSans-34" transform="translate(109.116211 38.965625) scale(0.7)"/>
      </g>
     </g>
    </g>
    <g id="xtick_21">
     <g id="line2d_30">
      <path d="M 326.748125 494.114688 
L 326.748125 50.594688 
" clip-path="url(#p6c94592af6)" style="fill: none; stroke: #b0b0b0; stroke-opacity: 0.4; stroke-width: 0.8; stroke-linecap: square"/>
     </g>
     <g id="line2d_31">
      <g>
       <use xlink:href="#mac41130445" x="326.748125" y="494.114688" style="stroke: #000000; stroke-width: 0.8"/>
      </g>
     </g>
     <g id="text_22">
      <!-- $\mathdefault{2^{16}}$ -->
      <g transform="translate(318.898125 508.713125) scale(0.1 -0.1)">
       <use xlink:href="#DejaVuSans-32" transform="translate(0 0.765625)"/>
       <use xlink:href="#DejaVuSans-31" transform="translate(64.580078 39.046875) scale(0.7)"/>
       <use xlink:href="#DejaVuSans-36" transform="translate(109.116211 39.046875) scale(0.7)"/>
      </g>
     </g>
    </g>
    <g id="xtick_22">
     <g id="line2d_32">
      <path d="M 371.388125 494.114688 
L 371.388125 50.594688 
" clip-path="url(#p6c94592af6)" style="fill: none; stroke: #b0b0b0; stroke-opacity: 0.4; stroke-width: 0.8; stroke-linecap: square"/>
     </g>
     <g id="line2d_33">
      <g>
       <use xlink:href="#mac41130445" x="371.388125" y="494.114688" style="stroke: #000000; stroke-width: 0.8"/>
      </g>
     </g>
     <g id="text_23">
      <!-- $\mathdefault{2^{18}}$ -->
      <g transform="translate(363.538125 508.713125) scale(0.1 -0.1)">
       <use xlink:href="#DejaVuSans-32" transform="translate(0 0.765625)"/>
       <use xlink:href="#DejaVuSans-31" transform="translate(64.580078 39.046875) scale(0.7)"/>
       <use xlink:href="#DejaVuSans-38" transform="translate(109.116211 39.046875) scale(0.7)"/>
      </g>
     </g>
    </g>
    <g id="xtick_23">
     <g id="line2d_34">
      <path d="M 416.028125 494.114688 
L 416.028125 50.594688 
" clip-path="url(#p6c94592af6)" style="fill: none; stroke: #b0b0b0; stroke-opacity: 0.4; stroke-width: 0.8; stroke-linecap: square"/>
     </g>
     <g id="line2d_35">
      <g>
       <use xlink:href="#mac41130445" x="416.028125" y="494.114688" style="stroke: #000000; stroke-width: 0.8"/>
      </g>
     </g>
     <g id="text_24">
      <!-- $\mathdefault{2^{20}}$ -->
      <g transform="translate(408.178125 508.713125) scale(0.1 -0.1)">
       <use xlink:href="#DejaVuSans-32" transform="translate(0 0.765625)"/>
       <use xlink:href="#DejaVuSans-32" transform="translate(64.580078 39.046875) scale(0.7)"/>
       <use xlink:href="#DejaVuSans-30" transform="translate(109.116211 39.046875) scale(0.7)"/>
      </g>
     </g>
    </g>
    <g id="xtick_24">
     <g id="line2d_36">
      <path d="M 460.668125 494.114688 
L 460.668125 50.594688 
" clip-path="url(#p6c94592af6)" style="fill: none; stroke: #b0b0b0; stroke-opacity: 0.4; stroke-width: 0.8; stroke-linecap: square"/>
     </g>
     <g id="line2d_37">
      <g>
       <use xlink:href="#mac41130445" x="460.668125" y="494.114688" style="stroke: #000000; stroke-width: 0.8"/>
      </g>
     </g>
     <g id="text_25">
      <!-- $\mathdefault{2^{22}}$ -->
      <g transform="translate(452.818125 508.713125) scale(0.1 -0.1)">
       <use xlink:href="#DejaVuSans-32" transform="translate(0 0.765625)"/>
       <use xlink:href="#DejaVuSans-32" transform="translate(64.580078 39.046875) scale(0.7)"/>
       <use xlink:href="#DejaVuSans-32" transform="translate(109.116211 39.046875) scale(0.7)"/>
      </g>
     </g>
    </g>
    <g id="xtick_25">
     <g id="line2d_38">
      <path d="M 505.308125 494.114688 
L 505.308125 50.594688 
" clip-path="url(#p6c94592af6)" style="fill: none; stroke: #b0b0b0; stroke-opacity: 0.4; stroke-width: 0.8; stroke-linecap: square"/>
     </g>
     <g id="line2d_39">
      <g>
       <use xlink:href="#mac41130445" x="505.308125" y="494.114688" style="stroke: #000000; stroke-width: 0.8"/>
      </g>
     </g>
     <g id="text_26">
      <!-- $\mathdefault{2^{24}}$ -->
      <g transform="translate(497.458125 508.713125) scale(0.1 -0.1)">
       <use xlink:href="#DejaVuSans-32" transform="translate(0 0.765625)"/>
       <use xlink:href="#DejaVuSans-32" transform="translate(64.580078 39.046875) scale(0.7)"/>
       <use xlink:href="#DejaVuSans-34" transform="translate(109.116211 39.046875) scale(0.7)"/>
      </g>
     </g>
    </g>
    <g id="xtick_26">
     <g id="line2d_40">
      <path d="M 549.948125 494.114688 
L 549.948125 50.594688 
" clip-path="url(#p6c94592af6)" style="fill: none; stroke: #b0b0b0; stroke-opacity: 0.4; stroke-width: 0.8; stroke-linecap: square"/>
     </g>
     <g id="line2d_41">
      <g>
       <use xlink:href="#mac41130445" x="549.948125" y="494.114688" style="stroke: #000000; stroke-width: 0.8"/>
      </g>
     </g>
     <g id="text_27">
      <!-- $\mathdefault{2^{26}}$ -->
      <g transform="translate(542.098125 508.713125) scale(0.1 -0.1)">
       <use xlink:href="#DejaVuSans-32" transform="translate(0 0.765625)"/>
       <use xlink:href="#DejaVuSans-32" transform="translate(64.580078 39.046875) scale(0.7)"/>
       <use xlink:href="#DejaVuSans-36" transform="translate(109.116211 39.046875) scale(0.7)"/>
      </g>
     </g>
    </g>
    <g id="xtick_27">
     <g id="line2d_42">
      <path d="M 594.588125 494.114688 
L 594.588125 50.594688 
" clip-path="url(#p6c94592af6)" style="fill: none; stroke: #b0b0b0; stroke-opacity: 0.4; stroke-width: 0.8; stroke-linecap: square"/>
     </g>
     <g id="line2d_43">
      <g>
       <use xlink:href="#mac41130445" x="594.588125" y="494.114688" style="stroke: #000000; stroke-width: 0.8"/>
      </g>
     </g>
     <g id="text_28">
      <!-- $\mathdefault{2^{28}}$ -->
      <g transform="translate(586.738125 508.713125) scale(0.1 -0.1)">
       <use xlink:href="#DejaVuSans-32" transform="translate(0 0.765625)"/>
       <use xlink:href="#DejaVuSans-32" transform="translate(64.580078 39.046875) scale(0.7)"/>
       <use xlink:href="#DejaVuSans-38" transform="translate(109.116211 39.046875) scale(0.7)"/>
      </g>
     </g>
    </g>
    <g id="xtick_28">
     <g id="line2d_44">
      <path d="M 639.228125 494.114688 
L 639.228125 50.594688 
" clip-path="url(#p6c94592af6)" style="fill: none; stroke: #b0b0b0; stroke-opacity: 0.4; stroke-width: 0.8; stroke-linecap: square"/>
     </g>
     <g id="line2d_45">
      <g>
       <use xlink:href="#mac41130445" x="639.228125" y="494.114688" style="stroke: #000000; stroke-width: 0.8"/>
      </g>
     </g>
     <g id="text_29">
      <!-- $\mathdefault{2^{30}}$ -->
      <g transform="translate(631.378125 508.713125) scale(0.1 -0.1)">
       <use xlink:href="#DejaVuSans-32" transform="translate(0 0.765625)"/>
       <use xlink:href="#DejaVuSans-33" transform="translate(64.580078 39.046875) scale(0.7)"/>
       <use xlink:href="#DejaVuSans-30" transform="translate(109.116211 39.046875) scale(0.7)"/>
      </g>
     </g>
    </g>
    <g id="text_30">
     <!-- Input size (bytes) -->
     <g transform="translate(316.732031 522.39125) scale(0.1 -0.1)">
      <defs>
       <path id="DejaVuSans-49" d="M 628 4666 
L 1259 4666 
L 1259 0 
L 628 0 
L 628 4666 
z
" transform="scale(0.015625)"/>
       <path id="DejaVuSans-70" d="M 1159 525 
L 1159 -1331 
L 581 -1331 
L 581 3500 
L 1159 3500 
L 1159 2969 
Q 1341 3281 1617 3432 
Q 1894 3584 2278 3584 
Q 2916 3584 3314 3078 
Q 3713 2572 3713 1747 
Q 3713 922 3314 415 
Q 2916 -91 2278 -91 
Q 1894 -91 1617 61 
Q 1341 213 1159 525 
z
M 3116 1747 
Q 3116 2381 2855 2742 
Q 2594 3103 2138 3103 
Q 1681 3103 1420 2742 
Q 1159 2381 1159 1747 
Q 1159 1113 1420 752 
Q 1681 391 2138 391 
Q 2594 391 2855 752 
Q 3116 1113 3116 1747 
z
" transform="scale(0.015625)"/>
       <path id="DejaVuSans-73" d="M 2834 3397 
L 2834 2853 
Q 2591 2978 2328 3040 
Q 2066 3103 1784 3103 
Q 1356 3103 1142 2972 
Q 928 2841 928 2578 
Q 928 2378 1081 2264 
Q 1234 2150 1697 2047 
L 1894 2003 
Q 2506 1872 2764 1633 
Q 3022 1394 3022 966 
Q 3022 478 2636 193 
Q 2250 -91 1575 -91 
Q 1294 -91 989 -36 
Q 684 19 347 128 
L 347 722 
Q 666 556 975 473 
Q 1284 391 1588 391 
Q 1994 391 2212 530 
Q 2431 669 2431 922 
Q 2431 1156 2273 1281 
Q 2116 1406 1581 1522 
L 1381 1569 
Q 847 1681 609 1914 
Q 372 2147 372 2553 
Q 372 3047 722 3315 
Q 1072 3584 1716 3584 
Q 2034 3584 2315 3537 
Q 2597 3491 2834 3397 
z
" transform="scale(0.015625)"/>
       <path id="DejaVuSans-69" d="M 603 3500 
L 1178 3500 
L 1178 0 
L 603 0 
L 603 3500 
z
M 603 4863 
L 1178 4863 
L 1178 4134 
L 603 4134 
L 603 4863 
z
" transform="scale(0.015625)"/>
       <path id="DejaVuSans-7a" d="M 353 3500 
L 3084 3500 
L 3084 2975 
L 922 459 
L 3084 459 
L 3084 0 
L 275 0 
L 275 525 
L 2438 3041 
L 353 3041 
L 353 3500 
z
" transform="scale(0.015625)"/>
       <path id="DejaVuSans-62" d="M 3116 1747 
Q 3116 2381 2855 2742 
Q 2594 3103 2138 3103 
Q 1681 3103 1420 2742 
Q 1159 2381 1159 1747 
Q 1159 1113 1420 752 
Q 1681 391 2138 391 
Q 2594 391 2855 752 
Q 3116 1113 3116 1747 
z
M 1159 2969 
Q 1341 3281 1617 3432 
Q 1894 3584 2278 3584 
Q 2916 3584 3314 3078 
Q 3713 2572 3713 1747 
Q 3713 922 3314 415 
Q 2916 -91 2278 -91 
Q 1894 -91 1617 61 
Q 1341 213 1159 525 
L 1159 0 
L 581 0 
L 581 4863 
L 1159 4863 
L 1159 2969 
z
" transform="scale(0.015625)"/>
      </defs>
      <use xlink:href="#DejaVuSans-49"/>
      <use xlink:href="#DejaVuSans-6e" x="29.492188"/>
      <use xlink:href="#DejaVuSans-70" x="92.871094"/>
      <use xlink:href="#DejaVuSans-75" x="156.347656"/>
      <use xlink:href="#DejaVuSans-74" x="219.726562"/>
      <use xlink:href="#DejaVuSans-20" x="258.935547"/>
      <use xlink:href="#DejaVuSans-73" x="290.722656"/>
      <use xlink:href="#DejaVuSans-69" x="342.822266"/>
      <use xlink:href="#DejaVuSans-7a" x="370.605469"/>
      <use xlink:href="#DejaVuSans-65" x="423.095703"/>
      <use xlink:href="#DejaVuSans-20" x="484.619141"/>
      <use xlink:href="#DejaVuSans-28" x="516.40625"/>
      <use xlink:href="#DejaVuSans-62" x="555.419922"/>
      <use xlink:href="#DejaVuSans-79" x="618.896484"/>
      <use xlink:href="#DejaVuSans-74" x="678.076172"/>
      <use xlink:href="#DejaVuSans-65" x="717.285156"/>
      <use xlink:href="#DejaVuSans-73" x="778.808594"/>
      <use xlink:href="#DejaVuSans-29" x="830.908203"/>
     </g>
    </g>
   </g>
   <g id="matplotlib.axis_4">
    <g id="ytick_1">
     <g id="line2d_46">
      <path d="M 53.328125 494.114688 
L 667.128125 494.114688 
" clip-path="url(#p6c94592af6)" style="fill: none; stroke: #b0b0b0; stroke-opacity: 0.4; stroke-width: 0.8; stroke-linecap: square"/>
     </g>
     <g id="line2d_47">
      <defs>
       <path id="mdb4e806bcd" d="M 0 0 
L -3.5 0 
" style="stroke: #000000; stroke-width: 0.8"/>
      </defs>
      <g>
       <use xlink:href="#mdb4e806bcd" x="53.328125" y="494.114688" style="stroke: #000000; stroke-width: 0.8"/>
      </g>
     </g>
     <g id="text_31">
      <!-- 0 -->
      <g transform="translate(39.965625 497.913906) scale(0.1 -0.1)">
       <use xlink:href="#DejaVuSans-30"/>
      </g>
     </g>
    </g>
    <g id="ytick_2">
     <g id="line2d_48">
      <path d="M 53.328125 434.978688 
L 667.128125 434.978688 
" clip-path="url(#p6c94592af6)" style="fill: none; stroke: #b0b0b0; stroke-opacity: 0.4; stroke-width: 0.8; stroke-linecap: square"/>
     </g>
     <g id="line2d_49">
      <g>
       <use xlink:href="#mdb4e806bcd" x="53.328125" y="434.978688" style="stroke: #000000; stroke-width: 0.8"/>
      </g>
     </g>
     <g id="text_32">
      <!-- 200 -->
      <g transform="translate(27.240625 438.777906) scale(0.1 -0.1)">
       <use xlink:href="#DejaVuSans-32"/>
       <use xlink:href="#DejaVuSans-30" x="63.623047"/>
       <use xlink:href="#DejaVuSans-30" x="127.246094"/>
      </g>
     </g>
    </g>
    <g id="ytick_3">
     <g id="line2d_50">
      <path d="M 53.328125 375.842688 
L 667.128125 375.842688 
" clip-path="url(#p6c94592af6)" style="fill: none; stroke: #b0b0b0; stroke-opacity: 0.4; stroke-width: 0.8; stroke-linecap: square"/>
     </g>
     <g id="line2d_51">
      <g>
       <use xlink:href="#mdb4e806bcd" x="53.328125" y="375.842688" style="stroke: #000000; stroke-width: 0.8"/>
      </g>
     </g>
     <g id="text_33">
      <!-- 400 -->
      <g transform="translate(27.240625 379.641906) scale(0.1 -0.1)">
       <use xlink:href="#DejaVuSans-34"/>
       <use xlink:href="#DejaVuSans-30" x="63.623047"/>
       <use xlink:href="#DejaVuSans-30" x="127.246094"/>
      </g>
     </g>
    </g>
    <g id="ytick_4">
     <g id="line2d_52">
      <path d="M 53.328125 316.706688 
L 667.128125 316.706688 
" clip-path="url(#p6c94592af6)" style="fill: none; stroke: #b0b0b0; stroke-opacity: 0.4; stroke-width: 0.8; stroke-linecap: square"/>
     </g>
     <g id="line2d_53">
      <g>
       <use xlink:href="#mdb4e806bcd" x="53.328125" y="316.706688" style="stroke: #000000; stroke-width: 0.8"/>
      </g>
     </g>
     <g id="text_34">
      <!-- 600 -->
      <g transform="translate(27.240625 320.505906) scale(0.1 -0.1)">
       <use xlink:href="#DejaVuSans-36"/>
       <use xlink:href="#DejaVuSans-30" x="63.623047"/>
       <use xlink:href="#DejaVuSans-30" x="127.246094"/>
      </g>
     </g>
    </g>
    <g id="ytick_5">
     <g id="line2d_54">
      <path d="M 53.328125 257.570688 
L 667.128125 257.570688 
" clip-path="url(#p6c94592af6)" style="fill: none; stroke: #b0b0b0; stroke-opacity: 0.4; stroke-width: 0.8; stroke-linecap: square"/>
     </g>
     <g id="line2d_55">
      <g>
       <use xlink:href="#mdb4e806bcd" x="53.328125" y="257.570688" style="stroke: #000000; stroke-width: 0.8"/>
      </g>
     </g>
     <g id="text_35">
      <!-- 800 -->
      <g transform="translate(27.240625 261.369906) scale(0.1 -0.1)">
       <use xlink:href="#DejaVuSans-38"/>
       <use xlink:href="#DejaVuSans-30" x="63.623047"/>
       <use xlink:href="#DejaVuSans-30" x="127.246094"/>
      </g>
     </g>
    </g>
    <g id="ytick_6">
     <g id="line2d_56">
      <path d="M 53.328125 198.434688 
L 667.128125 198.434688 
" clip-path="url(#p6c94592af6)" style="fill: none; stroke: #b0b0b0; stroke-opacity: 0.4; stroke-width: 0.8; stroke-linecap: square"/>
     </g>
     <g id="line2d_57">
      <g>
       <use xlink:href="#mdb4e806bcd" x="53.328125" y="198.434688" style="stroke: #000000; stroke-width: 0.8"/>
      </g>
     </g>
     <g id="text_36">
      <!-- 1000 -->
      <g transform="translate(20.878125 202.233906) scale(0.1 -0.1)">
       <use xlink:href="#DejaVuSans-31"/>
       <use xlink:href="#DejaVuSans-30" x="63.623047"/>
       <use xlink:href="#DejaVuSans-30" x="127.246094"/>
       <use xlink:href="#DejaVuSans-30" x="190.869141"/>
      </g>
     </g>
    </g>
    <g id="ytick_7">
     <g id="line2d_58">
      <path d="M 53.328125 139.298688 
L 667.128125 139.298688 
" clip-path="url(#p6c94592af6)" style="fill: none; stroke: #b0b0b0; stroke-opacity: 0.4; stroke-width: 0.8; stroke-linecap: square"/>
     </g>
     <g id="line2d_59">
      <g>
       <use xlink:href="#mdb4e806bcd" x="53.328125" y="139.298688" style="stroke: #000000; stroke-width: 0.8"/>
      </g>
     </g>
     <g id="text_37">
      <!-- 1200 -->
      <g transform="translate(20.878125 143.097906) scale(0.1 -0.1)">
       <use xlink:href="#DejaVuSans-31"/>
       <use xlink:href="#DejaVuSans-32" x="63.623047"/>
       <use xlink:href="#DejaVuSans-30" x="127.246094"/>
       <use xlink:href="#DejaVuSans-30" x="190.869141"/>
      </g>
     </g>
    </g>
    <g id="ytick_8">
     <g id="line2d_60">
      <path d="M 53.328125 80.162688 
L 667.128125 80.162688 
" clip-path="url(#p6c94592af6)" style="fill: none; stroke: #b0b0b0; stroke-opacity: 0.4; stroke-width: 0.8; stroke-linecap: square"/>
     </g>
     <g id="line2d_61">
      <g>
       <use xlink:href="#mdb4e806bcd" x="53.328125" y="80.162688" style="stroke: #000000; stroke-width: 0.8"/>
      </g>
     </g>
     <g id="text_38">
      <!-- 1400 -->
      <g transform="translate(20.878125 83.961906) scale(0.1 -0.1)">
       <use xlink:href="#DejaVuSans-31"/>
       <use xlink:href="#DejaVuSans-34" x="63.623047"/>
       <use xlink:href="#DejaVuSans-30" x="127.246094"/>
       <use xlink:href="#DejaVuSans-30" x="190.869141"/>
      </g>
     </g>
    </g>
    <g id="text_39">
     <!-- Inverse throughput (ns) -->
     <g transform="translate(14.798438 331.570313) rotate(-90) scale(0.1 -0.1)">
      <defs>
       <path id="DejaVuSans-76" d="M 191 3500 
L 800 3500 
L 1894 563 
L 2988 3500 
L 3597 3500 
L 2284 0 
L 1503 0 
L 191 3500 
z
" transform="scale(0.015625)"/>
       <path id="DejaVuSans-6f" d="M 1959 3097 
Q 1497 3097 1228 2736 
Q 959 2375 959 1747 
Q 959 1119 1226 758 
Q 1494 397 1959 397 
Q 2419 397 2687 759 
Q 2956 1122 2956 1747 
Q 2956 2369 2687 2733 
Q 2419 3097 1959 3097 
z
M 1959 3584 
Q 2709 3584 3137 3096 
Q 3566 2609 3566 1747 
Q 3566 888 3137 398 
Q 2709 -91 1959 -91 
Q 1206 -91 779 398 
Q 353 888 353 1747 
Q 353 2609 779 3096 
Q 1206 3584 1959 3584 
z
" transform="scale(0.015625)"/>
      </defs>
      <use xlink:href="#DejaVuSans-49"/>
      <use xlink:href="#DejaVuSans-6e" x="29.492188"/>
      <use xlink:href="#DejaVuSans-76" x="92.871094"/>
      <use xlink:href="#DejaVuSans-65" x="152.050781"/>
      <use xlink:href="#DejaVuSans-72" x="213.574219"/>
      <use xlink:href="#DejaVuSans-73" x="254.6875"/>
      <use xlink:href="#DejaVuSans-65" x="306.787109"/>
      <use xlink:href="#DejaVuSans-20" x="368.310547"/>
      <use xlink:href="#DejaVuSans-74" x="400.097656"/>
      <use xlink:href="#DejaVuSans-68" x="439.306641"/>
      <use xlink:href="#DejaVuSans-72" x="502.685547"/>
      <use xlink:href="#DejaVuSans-6f" x="541.548828"/>
      <use xlink:href="#DejaVuSans-75" x="602.730469"/>
      <use xlink:href="#DejaVuSans-67" x="666.109375"/>
      <use xlink:href="#DejaVuSans-68" x="729.585938"/>
      <use xlink:href="#DejaVuSans-70" x="792.964844"/>
      <use xlink:href="#DejaVuSans-75" x="856.441406"/>
      <use xlink:href="#DejaVuSans-74" x="919.820312"/>
      <use xlink:href="#DejaVuSans-20" x="959.029297"/>
      <use xlink:href="#DejaVuSans-28" x="990.816406"/>
      <use xlink:href="#DejaVuSans-6e" x="1029.830078"/>
      <use xlink:href="#DejaVuSans-73" x="1093.208984"/>
      <use xlink:href="#DejaVuSans-29" x="1145.308594"/>
     </g>
    </g>
   </g>
   <g id="line2d_62">
    <path d="M 81.228125 490.973217 
L 88.41356 490.982292 
L 94.284488 490.982119 
L 99.248287 490.983588 
L 103.548125 490.984676 
L 110.73356 490.955128 
L 116.604488 490.98451 
L 121.568287 490.977731 
L 125.868125 490.428849 
L 133.05356 490.428892 
L 138.924488 490.430538 
L 143.888287 490.42832 
L 148.188125 490.02596 
L 155.37356 490.02951 
L 161.244488 490.012134 
L 166.208287 490.029988 
L 170.508125 489.621895 
L 177.69356 489.62307 
L 183.564488 489.617903 
L 188.528287 489.619369 
L 192.828125 489.228276 
L 200.01356 489.226014 
L 205.884488 489.21187 
L 210.848287 489.232834 
L 215.148125 488.807746 
L 222.33356 488.830524 
L 228.204488 488.81518 
L 233.168287 488.827397 
L 237.468125 488.426883 
L 244.65356 488.423937 
L 250.524488 488.427129 
L 255.488287 488.426226 
L 259.788125 488.022064 
L 266.97356 488.028909 
L 272.844488 488.023396 
L 277.808287 488.027865 
L 282.108125 487.617014 
L 289.29356 487.60821 
L 295.164488 487.613833 
L 300.128287 487.618835 
L 304.428125 487.217411 
L 311.61356 487.216345 
L 317.484488 487.216703 
L 322.448287 487.216586 
L 326.748125 486.799333 
L 333.93356 486.767012 
L 339.804488 486.789718 
L 344.768287 486.785208 
L 349.068125 486.377946 
L 356.25356 486.352014 
L 362.124488 486.353805 
L 367.088287 486.31583 
L 371.388125 485.871966 
L 378.57356 485.825421 
L 384.444488 485.802233 
L 389.408287 485.77318 
L 393.708125 485.233812 
L 400.89356 485.060805 
L 406.764488 484.923899 
L 411.728287 484.81437 
L 416.028125 484.50484 
L 423.21356 484.335405 
L 429.084488 484.127851 
L 434.048287 484.116938 
L 438.348125 483.613274 
L 445.53356 483.224966 
L 451.404488 482.856637 
L 456.368287 482.5673 
L 460.668125 481.426939 
L 467.85356 480.827911 
L 473.724488 479.228495 
L 478.688287 478.643322 
L 482.988125 478.512956 
L 490.17356 476.55159 
L 496.044488 475.074037 
L 501.008287 474.082326 
L 505.308125 475.458203 
L 512.49356 473.324873 
L 518.364488 472.293972 
L 523.328287 471.67978 
L 527.628125 472.737469 
L 534.81356 471.106838 
L 540.684488 470.011079 
L 545.648287 469.395819 
L 549.948125 470.225761 
L 557.13356 469.120149 
L 563.004488 468.604332 
L 567.968287 468.024153 
L 572.268125 468.139498 
L 579.45356 467.561362 
L 585.324488 466.601959 
L 590.288287 466.138613 
L 594.588125 465.524424 
L 601.77356 464.789265 
L 607.644488 464.083057 
L 612.608287 463.541945 
L 616.908125 463.388189 
L 624.09356 462.408719 
L 629.964488 461.785036 
L 634.928287 461.198262 
L 639.228125 460.583737 
" clip-path="url(#p6c94592af6)" style="fill: none; stroke: #e377c2; stroke-linecap: square"/>
   </g>
   <g id="line2d_63">
    <path d="M 81.228125 482.839121 
L 88.41356 480.97636 
L 94.284488 478.507032 
L 99.248287 478.535999 
L 103.548125 477.274048 
L 110.73356 475.558861 
L 116.604488 473.149616 
L 121.568287 472.967814 
L 125.868125 471.107161 
L 133.05356 468.648182 
L 138.924488 466.956896 
L 143.888287 465.495477 
L 148.188125 464.096435 
L 155.37356 461.690177 
L 161.244488 458.946357 
L 166.208287 457.615054 
L 170.508125 456.272668 
L 177.69356 452.706994 
L 183.564488 450.521104 
L 188.528287 448.930806 
L 192.828125 446.888357 
L 200.01356 444.282406 
L 205.884488 441.645213 
L 210.848287 439.912576 
L 215.148125 437.907283 
L 222.33356 434.541949 
L 228.204488 432.016853 
L 233.168287 430.981371 
L 237.468125 431.80676 
L 244.65356 429.201789 
L 250.524488 426.069213 
L 255.488287 424.863099 
L 259.788125 423.2332 
L 266.97356 422.456611 
L 272.844488 425.735657 
L 277.808287 430.913963 
L 282.108125 435.030264 
L 289.29356 441.292567 
L 295.164488 443.318026 
L 300.128287 445.034994 
L 304.428125 445.11982 
L 311.61356 443.697452 
L 317.484488 442.504614 
L 322.448287 441.207181 
L 326.748125 440.139713 
L 333.93356 440.213289 
L 339.804488 438.051194 
L 344.768287 436.772788 
L 349.068125 435.978038 
L 356.25356 435.200122 
L 362.124488 433.756052 
L 367.088287 432.007968 
L 371.388125 430.54785 
L 378.57356 427.903965 
L 384.444488 423.891865 
L 389.408287 422.196876 
L 393.708125 420.462666 
L 400.89356 414.820786 
L 406.764488 409.635342 
L 411.728287 405.633469 
L 416.028125 403.144302 
L 423.21356 399.372055 
L 429.084488 396.481887 
L 434.048287 394.263323 
L 438.348125 392.68758 
L 445.53356 389.333711 
L 451.404488 383.202488 
L 456.368287 377.284498 
L 460.668125 368.961818 
L 467.85356 342.060359 
L 473.724488 314.649105 
L 478.688287 298.713516 
L 482.988125 284.741395 
L 490.17356 259.88352 
L 496.044488 244.252091 
L 501.008287 228.208751 
L 505.308125 221.067713 
L 512.49356 204.811531 
L 518.364488 189.156599 
L 523.328287 182.005663 
L 527.628125 167.99374 
L 534.81356 154.185101 
L 540.684488 141.07909 
L 545.648287 138.182337 
L 549.948125 129.692301 
L 557.13356 117.167214 
L 563.004488 104.757745 
L 567.968287 100.492772 
L 572.268125 95.709888 
L 579.45356 86.768699 
L 585.324488 77.417532 
L 590.288287 71.611476 
L 594.588125 63.605971 
L 601.77356 48.362431 
L 607.644488 39.024822 
L 612.608287 32.896118 
L 616.908125 21.469514 
L 624.09356 14.097366 
L 629.964488 6.434346 
L 634.928287 4.810247 
L 637.152235 -1 
" clip-path="url(#p6c94592af6)" style="fill: none; stroke: #1f77b4; stroke-linecap: square"/>
   </g>
   <g id="line2d_64">
    <path d="M 81.228125 478.479902 
L 88.41356 477.613317 
L 94.284488 476.069564 
L 99.248287 476.040197 
L 103.548125 474.816405 
L 110.73356 472.411677 
L 116.604488 469.110766 
L 121.568287 468.809859 
L 125.868125 466.739241 
L 133.05356 463.259956 
L 138.924488 461.599773 
L 143.888287 458.96972 
L 148.188125 456.733007 
L 155.37356 454.461053 
L 161.244488 451.774446 
L 166.208287 449.892453 
L 170.508125 448.222029 
L 177.69356 444.78201 
L 183.564488 441.685743 
L 188.528287 439.976555 
L 192.828125 437.836571 
L 200.01356 434.696492 
L 205.884488 431.956491 
L 210.848287 430.156434 
L 215.148125 428.280532 
L 222.33356 425.116309 
L 228.204488 422.363405 
L 233.168287 421.83751 
L 237.468125 422.155636 
L 244.65356 419.563667 
L 250.524488 416.508941 
L 255.488287 415.651969 
L 259.788125 413.57553 
L 266.97356 412.605964 
L 272.844488 416.353523 
L 277.808287 420.77171 
L 282.108125 423.700698 
L 289.29356 428.885408 
L 295.164488 431.5744 
L 300.128287 434.447286 
L 304.428125 434.991761 
L 311.61356 434.671611 
L 317.484488 434.467266 
L 322.448287 433.892956 
L 326.748125 433.158892 
L 333.93356 433.677228 
L 339.804488 431.676686 
L 344.768287 430.371218 
L 349.068125 429.901257 
L 356.25356 429.234776 
L 362.124488 427.97407 
L 367.088287 426.573089 
L 371.388125 424.874871 
L 378.57356 422.67614 
L 384.444488 417.2865 
L 389.408287 415.848729 
L 393.708125 414.456405 
L 400.89356 411.448107 
L 406.764488 408.571388 
L 411.728287 406.034345 
L 416.028125 405.194554 
L 423.21356 404.09523 
L 429.084488 403.380019 
L 434.048287 402.896895 
L 438.348125 402.89422 
L 445.53356 400.239657 
L 451.404488 395.688662 
L 456.368287 390.855612 
L 460.668125 387.367833 
L 467.85356 372.121485 
L 473.724488 354.41684 
L 478.688287 342.545248 
L 482.988125 333.714481 
L 490.17356 318.712444 
L 496.044488 309.489261 
L 501.008287 302.091231 
L 505.308125 298.023193 
L 512.49356 291.238742 
L 518.364488 285.314776 
L 523.328287 279.987051 
L 527.628125 275.332265 
L 534.81356 266.915101 
L 540.684488 260.924391 
L 545.648287 258.578415 
L 549.948125 254.413648 
L 557.13356 248.867426 
L 563.004488 244.13462 
L 567.968287 239.870274 
L 572.268125 236.768656 
L 579.45356 232.868238 
L 585.324488 227.748487 
L 590.288287 224.101257 
L 594.588125 222.439832 
L 601.77356 215.816261 
L 607.644488 209.346561 
L 612.608287 205.697341 
L 616.908125 200.348526 
L 624.09356 193.476662 
L 629.964488 191.024661 
L 634.928287 186.687185 
L 639.228125 185.214878 
" clip-path="url(#p6c94592af6)" style="fill: none; stroke: #2ca02c; stroke-linecap: square"/>
   </g>
   <g id="line2d_65">
    <path d="M 81.228125 475.733879 
L 88.41356 474.476943 
L 94.284488 471.219454 
L 99.248287 472.060203 
L 103.548125 470.666184 
L 110.73356 464.448077 
L 116.604488 460.418634 
L 121.568287 459.693811 
L 125.868125 456.965634 
L 133.05356 452.52832 
L 138.924488 449.279301 
L 143.888287 447.046453 
L 148.188125 445.014522 
L 155.37356 441.058312 
L 161.244488 437.559704 
L 166.208287 435.384327 
L 170.508125 433.997826 
L 177.69356 430.058788 
L 183.564488 426.690935 
L 188.528287 424.509186 
L 192.828125 421.317875 
L 200.01356 417.352082 
L 205.884488 413.535461 
L 210.848287 410.074615 
L 215.148125 406.333655 
L 222.33356 401.816757 
L 228.204488 397.916317 
L 233.168287 396.705578 
L 237.468125 397.573585 
L 244.65356 393.954644 
L 250.524488 389.305661 
L 255.488287 388.237235 
L 259.788125 386.067474 
L 266.97356 384.552117 
L 272.844488 391.171067 
L 277.808287 398.820719 
L 282.108125 404.723531 
L 289.29356 412.990471 
L 295.164488 416.317316 
L 300.128287 420.44493 
L 304.428125 421.267604 
L 311.61356 420.294984 
L 317.484488 420.57239 
L 322.448287 420.486563 
L 326.748125 419.91071 
L 333.93356 421.26913 
L 339.804488 418.917948 
L 344.768287 417.867755 
L 349.068125 417.375874 
L 356.25356 416.701064 
L 362.124488 415.383146 
L 367.088287 413.961051 
L 371.388125 412.030453 
L 378.57356 409.639447 
L 384.444488 403.178896 
L 389.408287 401.68582 
L 393.708125 399.633123 
L 400.89356 396.875117 
L 406.764488 393.895512 
L 411.728287 391.723308 
L 416.028125 391.1582 
L 423.21356 390.594265 
L 429.084488 390.168572 
L 434.048287 389.99197 
L 438.348125 389.889001 
L 445.53356 386.945173 
L 451.404488 384.072107 
L 456.368287 379.810287 
L 460.668125 376.029233 
L 467.85356 364.604765 
L 473.724488 354.144983 
L 478.688287 346.238515 
L 482.988125 339.791686 
L 490.17356 329.4316 
L 496.044488 323.168747 
L 501.008287 320.702082 
L 505.308125 317.881595 
L 512.49356 314.778301 
L 518.364488 310.127341 
L 523.328287 307.043593 
L 527.628125 303.98886 
L 534.81356 297.612141 
L 540.684488 293.808465 
L 545.648287 291.387792 
L 549.948125 288.588648 
L 557.13356 283.75394 
L 563.004488 279.034148 
L 567.968287 276.470286 
L 572.268125 273.581235 
L 579.45356 269.645669 
L 585.324488 265.766576 
L 590.288287 263.395534 
L 594.588125 260.172442 
L 601.77356 255.495185 
L 607.644488 250.777761 
L 612.608287 247.455896 
L 616.908125 240.846584 
L 624.09356 235.492886 
L 629.964488 231.674992 
L 634.928287 231.28519 
L 639.228125 228.323203 
" clip-path="url(#p6c94592af6)" style="fill: none; stroke: #2ca02c; stroke-linecap: square"/>
   </g>
   <g id="line2d_66">
    <path d="M 81.228125 471.360299 
L 88.41356 469.603001 
L 94.284488 466.345816 
L 99.248287 467.533174 
L 103.548125 465.915081 
L 110.73356 459.420253 
L 116.604488 455.39268 
L 121.568287 455.448247 
L 125.868125 452.488653 
L 133.05356 447.227673 
L 138.924488 443.101901 
L 143.888287 440.669801 
L 148.188125 438.057127 
L 155.37356 432.332488 
L 161.244488 427.87107 
L 166.208287 425.034234 
L 170.508125 422.814315 
L 177.69356 417.484154 
L 183.564488 413.346843 
L 188.528287 411.036306 
L 192.828125 406.505447 
L 200.01356 401.234196 
L 205.884488 397.076894 
L 210.848287 393.717572 
L 215.148125 388.998816 
L 222.33356 382.961073 
L 228.204488 378.303151 
L 233.168287 377.170365 
L 237.468125 380.312723 
L 244.65356 376.209463 
L 250.524488 368.559742 
L 255.488287 368.726618 
L 259.788125 366.274407 
L 266.97356 366.046765 
L 272.844488 373.94927 
L 277.808287 384.145658 
L 282.108125 392.366193 
L 289.29356 402.37016 
L 295.164488 407.166058 
L 300.128287 411.406235 
L 304.428125 412.124459 
L 311.61356 409.905604 
L 317.484488 410.110751 
L 322.448287 410.166974 
L 326.748125 409.594306 
L 333.93356 412.862039 
L 339.804488 409.508415 
L 344.768287 407.874995 
L 349.068125 407.912312 
L 356.25356 407.74463 
L 362.124488 406.225182 
L 367.088287 404.858538 
L 371.388125 402.261154 
L 378.57356 400.733004 
L 384.444488 392.957533 
L 389.408287 391.316221 
L 393.708125 389.219165 
L 400.89356 386.652092 
L 406.764488 383.72154 
L 411.728287 381.49153 
L 416.028125 380.900583 
L 423.21356 380.674384 
L 429.084488 380.690316 
L 434.048287 380.454322 
L 438.348125 380.423341 
L 445.53356 377.000191 
L 451.404488 372.71338 
L 456.368287 369.193224 
L 460.668125 364.561047 
L 467.85356 354.76088 
L 473.724488 343.100074 
L 478.688287 334.333559 
L 482.988125 328.969976 
L 490.17356 318.58577 
L 496.044488 312.736524 
L 501.008287 310.737333 
L 505.308125 307.645572 
L 512.49356 304.16544 
L 518.364488 299.438544 
L 523.328287 295.89669 
L 527.628125 293.287699 
L 534.81356 286.602274 
L 540.684488 282.982918 
L 545.648287 280.295312 
L 549.948125 277.169069 
L 557.13356 272.255681 
L 563.004488 268.266718 
L 567.968287 265.354493 
L 572.268125 262.069785 
L 579.45356 258.824057 
L 585.324488 255.366541 
L 590.288287 252.797744 
L 594.588125 249.94276 
L 601.77356 244.678338 
L 607.644488 241.288088 
L 612.608287 237.647649 
L 616.908125 231.438267 
L 624.09356 225.599331 
L 629.964488 222.939498 
L 634.928287 221.368074 
L 639.228125 218.833753 
" clip-path="url(#p6c94592af6)" style="fill: none; stroke: #ff7f0e; stroke-linecap: square"/>
   </g>
   <g id="line2d_67">
    <path d="M 81.228125 471.810368 
L 88.41356 470.30916 
L 94.284488 466.715217 
L 99.248287 467.615314 
L 103.548125 466.259024 
L 110.73356 459.96974 
L 116.604488 455.597013 
L 121.568287 455.712698 
L 125.868125 452.958062 
L 133.05356 447.846296 
L 138.924488 443.814551 
L 143.888287 441.12731 
L 148.188125 438.64341 
L 155.37356 433.193436 
L 161.244488 427.918423 
L 166.208287 425.407835 
L 170.508125 422.433129 
L 177.69356 416.137655 
L 183.564488 411.755889 
L 188.528287 409.124123 
L 192.828125 405.057527 
L 200.01356 399.902493 
L 205.884488 394.801963 
L 210.848287 390.599458 
L 215.148125 386.738871 
L 222.33356 379.773747 
L 228.204488 375.056588 
L 233.168287 373.137495 
L 237.468125 377.977178 
L 244.65356 373.503075 
L 250.524488 366.590158 
L 255.488287 366.275801 
L 259.788125 363.358275 
L 266.97356 363.05186 
L 272.844488 372.467789 
L 277.808287 383.074275 
L 282.108125 390.972944 
L 289.29356 402.435489 
L 295.164488 406.556522 
L 300.128287 410.114319 
L 304.428125 410.607072 
L 311.61356 409.776915 
L 317.484488 409.983164 
L 322.448287 410.206936 
L 326.748125 409.509108 
L 333.93356 412.42124 
L 339.804488 410.032039 
L 344.768287 408.564697 
L 349.068125 408.157309 
L 356.25356 408.240898 
L 362.124488 406.832164 
L 367.088287 405.290072 
L 371.388125 402.67999 
L 378.57356 401.326575 
L 384.444488 393.411415 
L 389.408287 391.400815 
L 393.708125 389.381654 
L 400.89356 386.937222 
L 406.764488 383.84173 
L 411.728287 381.641857 
L 416.028125 381.195232 
L 423.21356 381.229588 
L 429.084488 381.454358 
L 434.048287 381.006325 
L 438.348125 381.140945 
L 445.53356 377.458273 
L 451.404488 372.858063 
L 456.368287 369.566861 
L 460.668125 365.302505 
L 467.85356 355.261637 
L 473.724488 343.763558 
L 478.688287 335.061238 
L 482.988125 330.113574 
L 490.17356 319.72781 
L 496.044488 313.894616 
L 501.008287 312.117651 
L 505.308125 308.740087 
L 512.49356 305.417666 
L 518.364488 301.350412 
L 523.328287 296.832919 
L 527.628125 295.10715 
L 534.81356 288.253098 
L 540.684488 284.415353 
L 545.648287 282.012767 
L 549.948125 279.145215 
L 557.13356 274.805873 
L 563.004488 270.912666 
L 567.968287 267.320992 
L 572.268125 265.413922 
L 579.45356 261.285691 
L 585.324488 257.649628 
L 590.288287 255.336047 
L 594.588125 252.233188 
L 601.77356 248.001756 
L 607.644488 243.986713 
L 612.608287 240.975905 
L 616.908125 234.804919 
L 624.09356 229.869547 
L 629.964488 226.944517 
L 634.928287 225.438891 
L 639.228125 223.290194 
" clip-path="url(#p6c94592af6)" style="fill: none; stroke: #7f7f7f; stroke-linecap: square"/>
   </g>
   <g id="line2d_68">
    <path d="M 81.228125 470.987512 
L 88.41356 469.291186 
L 94.284488 465.745846 
L 99.248287 466.722859 
L 103.548125 465.706535 
L 110.73356 459.045515 
L 116.604488 454.840623 
L 121.568287 455.22376 
L 125.868125 452.322965 
L 133.05356 447.439347 
L 138.924488 442.893354 
L 143.888287 440.469185 
L 148.188125 437.403309 
L 155.37356 431.404549 
L 161.244488 426.721655 
L 166.208287 423.022788 
L 170.508125 419.969024 
L 177.69356 413.89945 
L 183.564488 409.714383 
L 188.528287 406.127214 
L 192.828125 401.517827 
L 200.01356 395.484753 
L 205.884488 389.912616 
L 210.848287 385.738831 
L 215.148125 381.143919 
L 222.33356 373.883164 
L 228.204488 368.6057 
L 233.168287 366.890389 
L 237.468125 373.912318 
L 244.65356 369.379202 
L 250.524488 362.285331 
L 255.488287 361.769832 
L 259.788125 358.348439 
L 266.97356 356.514838 
L 272.844488 368.262144 
L 277.808287 377.380008 
L 282.108125 387.692908 
L 289.29356 399.073053 
L 295.164488 403.854683 
L 300.128287 406.854429 
L 304.428125 407.764661 
L 311.61356 407.218326 
L 317.484488 407.204141 
L 322.448287 407.638302 
L 326.748125 407.457906 
L 333.93356 409.54915 
L 339.804488 407.481885 
L 344.768287 406.22805 
L 349.068125 405.902895 
L 356.25356 406.275606 
L 362.124488 405.003249 
L 367.088287 403.579108 
L 371.388125 400.998776 
L 378.57356 399.077685 
L 384.444488 391.090817 
L 389.408287 388.857859 
L 393.708125 386.887278 
L 400.89356 384.505921 
L 406.764488 381.25494 
L 411.728287 379.205186 
L 416.028125 378.796923 
L 423.21356 379.102494 
L 429.084488 379.548697 
L 434.048287 378.805039 
L 438.348125 379.288074 
L 445.53356 375.659753 
L 451.404488 372.0245 
L 456.368287 368.128159 
L 460.668125 362.963847 
L 467.85356 353.65332 
L 473.724488 343.698445 
L 478.688287 335.033925 
L 482.988125 329.921899 
L 490.17356 320.128731 
L 496.044488 314.173378 
L 501.008287 312.750736 
L 505.308125 310.52057 
L 512.49356 306.890383 
L 518.364488 302.765327 
L 523.328287 299.192362 
L 527.628125 296.79643 
L 534.81356 290.586826 
L 540.684488 286.891365 
L 545.648287 284.520278 
L 549.948125 281.682516 
L 557.13356 277.753592 
L 563.004488 273.464959 
L 567.968287 270.634362 
L 572.268125 267.921393 
L 579.45356 263.908186 
L 585.324488 260.225892 
L 590.288287 258.272468 
L 594.588125 255.155317 
L 601.77356 251.30725 
L 607.644488 247.147463 
L 612.608287 244.270927 
L 616.908125 237.07391 
L 624.09356 232.352356 
L 629.964488 229.166406 
L 634.928287 228.051805 
L 639.228125 225.442941 
" clip-path="url(#p6c94592af6)" style="fill: none; stroke: #7f7f7f; stroke-linecap: square"/>
   </g>
   <g id="line2d_69"/>
   <g id="line2d_70"/>
   <g id="line2d_71"/>
   <g id="line2d_72"/>
   <g id="line2d_73"/>
   <g id="line2d_74"/>
   <g id="line2d_75"/>
   <g id="line2d_76"/>
   <g id="patch_5">
    <path d="M 53.328125 494.114688 
L 53.328125 50.594688 
" style="fill: none; stroke: #000000; stroke-width: 0.8; stroke-linejoin: miter; stroke-linecap: square"/>
   </g>
   <g id="patch_6">
    <path d="M 667.128125 494.114688 
L 667.128125 50.594688 
" style="fill: none; stroke: #000000; stroke-width: 0.8; stroke-linejoin: miter; stroke-linecap: square"/>
   </g>
   <g id="patch_7">
    <path d="M 53.328125 494.114688 
L 667.128125 494.114688 
" style="fill: none; stroke: #000000; stroke-width: 0.8; stroke-linejoin: miter; stroke-linecap: square"/>
   </g>
   <g id="patch_8">
    <path d="M 53.328125 50.594688 
L 667.128125 50.594688 
" style="fill: none; stroke: #000000; stroke-width: 0.8; stroke-linejoin: miter; stroke-linecap: square"/>
   </g>
   <g id="text_40">
    <!-- L1  -->
    <g style="fill: #ff0000" transform="translate(289.315625 492.035) scale(0.1 -0.1)">
     <defs>
      <path id="DejaVuSans-4c" d="M 628 4666 
L 1259 4666 
L 1259 531 
L 3531 531 
L 3531 0 
L 628 0 
L 628 4666 
z
" transform="scale(0.015625)"/>
     </defs>
     <use xlink:href="#DejaVuSans-4c"/>
     <use xlink:href="#DejaVuSans-31" x="55.712891"/>
     <use xlink:href="#DejaVuSans-20" x="119.335938"/>
    </g>
   </g>
   <g id="text_41">
    <!-- L2  -->
    <g style="fill: #ff0000" transform="translate(378.595625 492.035) scale(0.1 -0.1)">
     <use xlink:href="#DejaVuSans-4c"/>
     <use xlink:href="#DejaVuSans-32" x="55.712891"/>
     <use xlink:href="#DejaVuSans-20" x="119.335938"/>
    </g>
   </g>
   <g id="text_42">
    <!-- L3  -->
    <g style="fill: #ff0000" transform="translate(445.555625 492.035) scale(0.1 -0.1)">
     <use xlink:href="#DejaVuSans-4c"/>
     <use xlink:href="#DejaVuSans-33" x="55.712891"/>
     <use xlink:href="#DejaVuSans-20" x="119.335938"/>
    </g>
   </g>
   <g id="text_43">
    <!-- RAM -->
    <g style="fill: #ff0000" transform="translate(617.210938 492.035) scale(0.1 -0.1)">
     <defs>
      <path id="DejaVuSans-52" d="M 2841 2188 
Q 3044 2119 3236 1894 
Q 3428 1669 3622 1275 
L 4263 0 
L 3584 0 
L 2988 1197 
Q 2756 1666 2539 1819 
Q 2322 1972 1947 1972 
L 1259 1972 
L 1259 0 
L 628 0 
L 628 4666 
L 2053 4666 
Q 2853 4666 3247 4331 
Q 3641 3997 3641 3322 
Q 3641 2881 3436 2590 
Q 3231 2300 2841 2188 
z
M 1259 4147 
L 1259 2491 
L 2053 2491 
Q 2509 2491 2742 2702 
Q 2975 2913 2975 3322 
Q 2975 3731 2742 3939 
Q 2509 4147 2053 4147 
L 1259 4147 
z
" transform="scale(0.015625)"/>
      <path id="DejaVuSans-4d" d="M 628 4666 
L 1569 4666 
L 2759 1491 
L 3956 4666 
L 4897 4666 
L 4897 0 
L 4281 0 
L 4281 4097 
L 3078 897 
L 2444 897 
L 1241 4097 
L 1241 0 
L 628 0 
L 628 4666 
z
" transform="scale(0.015625)"/>
     </defs>
     <use xlink:href="#DejaVuSans-52"/>
     <use xlink:href="#DejaVuSans-41" x="65.482422"/>
     <use xlink:href="#DejaVuSans-4d" x="133.890625"/>
    </g>
   </g>
   <g id="text_44">
    <!-- Interpolation search with batching -->
    <g transform="translate(257.233438 16.318125) scale(0.12 -0.12)">
     <defs>
      <path id="DejaVuSans-63" d="M 3122 3366 
L 3122 2828 
Q 2878 2963 2633 3030 
Q 2388 3097 2138 3097 
Q 1578 3097 1268 2742 
Q 959 2388 959 1747 
Q 959 1106 1268 751 
Q 1578 397 2138 397 
Q 2388 397 2633 464 
Q 2878 531 3122 666 
L 3122 134 
Q 2881 22 2623 -34 
Q 2366 -91 2075 -91 
Q 1284 -91 818 406 
Q 353 903 353 1747 
Q 353 2603 823 3093 
Q 1294 3584 2113 3584 
Q 2378 3584 2631 3529 
Q 2884 3475 3122 3366 
z
" transform="scale(0.015625)"/>
      <path id="DejaVuSans-77" d="M 269 3500 
L 844 3500 
L 1563 769 
L 2278 3500 
L 2956 3500 
L 3675 769 
L 4391 3500 
L 4966 3500 
L 4050 0 
L 3372 0 
L 2619 2869 
L 1863 0 
L 1184 0 
L 269 3500 
z
" transform="scale(0.015625)"/>
     </defs>
     <use xlink:href="#DejaVuSans-49"/>
     <use xlink:href="#DejaVuSans-6e" x="29.492188"/>
     <use xlink:href="#DejaVuSans-74" x="92.871094"/>
     <use xlink:href="#DejaVuSans-65" x="132.080078"/>
     <use xlink:href="#DejaVuSans-72" x="193.603516"/>
     <use xlink:href="#DejaVuSans-70" x="234.716797"/>
     <use xlink:href="#DejaVuSans-6f" x="298.193359"/>
     <use xlink:href="#DejaVuSans-6c" x="359.375"/>
     <use xlink:href="#DejaVuSans-61" x="387.158203"/>
     <use xlink:href="#DejaVuSans-74" x="448.4375"/>
     <use xlink:href="#DejaVuSans-69" x="487.646484"/>
     <use xlink:href="#DejaVuSans-6f" x="515.429688"/>
     <use xlink:href="#DejaVuSans-6e" x="576.611328"/>
     <use xlink:href="#DejaVuSans-20" x="639.990234"/>
     <use xlink:href="#DejaVuSans-73" x="671.777344"/>
     <use xlink:href="#DejaVuSans-65" x="723.876953"/>
     <use xlink:href="#DejaVuSans-61" x="785.400391"/>
     <use xlink:href="#DejaVuSans-72" x="846.679688"/>
     <use xlink:href="#DejaVuSans-63" x="885.542969"/>
     <use xlink:href="#DejaVuSans-68" x="940.523438"/>
     <use xlink:href="#DejaVuSans-20" x="1003.902344"/>
     <use xlink:href="#DejaVuSans-77" x="1035.689453"/>
     <use xlink:href="#DejaVuSans-69" x="1117.476562"/>
     <use xlink:href="#DejaVuSans-74" x="1145.259766"/>
     <use xlink:href="#DejaVuSans-68" x="1184.46875"/>
     <use xlink:href="#DejaVuSans-20" x="1247.847656"/>
     <use xlink:href="#DejaVuSans-62" x="1279.634766"/>
     <use xlink:href="#DejaVuSans-61" x="1343.111328"/>
     <use xlink:href="#DejaVuSans-74" x="1404.390625"/>
     <use xlink:href="#DejaVuSans-63" x="1443.599609"/>
     <use xlink:href="#DejaVuSans-68" x="1498.580078"/>
     <use xlink:href="#DejaVuSans-69" x="1561.958984"/>
     <use xlink:href="#DejaVuSans-6e" x="1589.742188"/>
     <use xlink:href="#DejaVuSans-67" x="1653.121094"/>
    </g>
   </g>
   <g id="legend_1">
    <g id="patch_9">
     <path d="M 60.328125 163.288438 
L 468.60625 163.288438 
Q 470.60625 163.288438 470.60625 161.288438 
L 470.60625 57.594688 
Q 470.60625 55.594688 468.60625 55.594688 
L 60.328125 55.594688 
Q 58.328125 55.594688 58.328125 57.594688 
L 58.328125 161.288438 
Q 58.328125 163.288438 60.328125 163.288438 
L 60.328125 163.288438 
z
" style="fill: none; opacity: 0"/>
    </g>
    <g id="line2d_77">
     <path d="M 62.328125 63.693125 
L 72.328125 63.693125 
L 82.328125 63.693125 
" style="fill: none; stroke: #e377c2; stroke-width: 1.5; stroke-linecap: square"/>
    </g>
    <g id="text_45">
     <!-- Batched&lt;16, Eytzinger, Eytzinger::batch_impl_prefetched&lt;16, 4&gt;&gt; -->
     <g transform="translate(90.328125 67.193125) scale(0.1 -0.1)">
      <defs>
       <path id="DejaVuSans-42" d="M 1259 2228 
L 1259 519 
L 2272 519 
Q 2781 519 3026 730 
Q 3272 941 3272 1375 
Q 3272 1813 3026 2020 
Q 2781 2228 2272 2228 
L 1259 2228 
z
M 1259 4147 
L 1259 2741 
L 2194 2741 
Q 2656 2741 2882 2914 
Q 3109 3088 3109 3444 
Q 3109 3797 2882 3972 
Q 2656 4147 2194 4147 
L 1259 4147 
z
M 628 4666 
L 2241 4666 
Q 2963 4666 3353 4366 
Q 3744 4066 3744 3513 
Q 3744 3084 3544 2831 
Q 3344 2578 2956 2516 
Q 3422 2416 3680 2098 
Q 3938 1781 3938 1306 
Q 3938 681 3513 340 
Q 3088 0 2303 0 
L 628 0 
L 628 4666 
z
" transform="scale(0.015625)"/>
       <path id="DejaVuSans-64" d="M 2906 2969 
L 2906 4863 
L 3481 4863 
L 3481 0 
L 2906 0 
L 2906 525 
Q 2725 213 2448 61 
Q 2172 -91 1784 -91 
Q 1150 -91 751 415 
Q 353 922 353 1747 
Q 353 2572 751 3078 
Q 1150 3584 1784 3584 
Q 2172 3584 2448 3432 
Q 2725 3281 2906 2969 
z
M 947 1747 
Q 947 1113 1208 752 
Q 1469 391 1925 391 
Q 2381 391 2643 752 
Q 2906 1113 2906 1747 
Q 2906 2381 2643 2742 
Q 2381 3103 1925 3103 
Q 1469 3103 1208 2742 
Q 947 2381 947 1747 
z
" transform="scale(0.015625)"/>
       <path id="DejaVuSans-3c" d="M 4684 3150 
L 1459 2003 
L 4684 863 
L 4684 294 
L 678 1747 
L 678 2266 
L 4684 3719 
L 4684 3150 
z
" transform="scale(0.015625)"/>
       <path id="DejaVuSans-2c" d="M 750 794 
L 1409 794 
L 1409 256 
L 897 -744 
L 494 -744 
L 750 256 
L 750 794 
z
" transform="scale(0.015625)"/>
       <path id="DejaVuSans-45" d="M 628 4666 
L 3578 4666 
L 3578 4134 
L 1259 4134 
L 1259 2753 
L 3481 2753 
L 3481 2222 
L 1259 2222 
L 1259 531 
L 3634 531 
L 3634 0 
L 628 0 
L 628 4666 
z
" transform="scale(0.015625)"/>
       <path id="DejaVuSans-3a" d="M 750 794 
L 1409 794 
L 1409 0 
L 750 0 
L 750 794 
z
M 750 3309 
L 1409 3309 
L 1409 2516 
L 750 2516 
L 750 3309 
z
" transform="scale(0.015625)"/>
       <path id="DejaVuSans-5f" d="M 3263 -1063 
L 3263 -1509 
L -63 -1509 
L -63 -1063 
L 3263 -1063 
z
" transform="scale(0.015625)"/>
       <path id="DejaVuSans-6d" d="M 3328 2828 
Q 3544 3216 3844 3400 
Q 4144 3584 4550 3584 
Q 5097 3584 5394 3201 
Q 5691 2819 5691 2113 
L 5691 0 
L 5113 0 
L 5113 2094 
Q 5113 2597 4934 2840 
Q 4756 3084 4391 3084 
Q 3944 3084 3684 2787 
Q 3425 2491 3425 1978 
L 3425 0 
L 2847 0 
L 2847 2094 
Q 2847 2600 2669 2842 
Q 2491 3084 2119 3084 
Q 1678 3084 1418 2786 
Q 1159 2488 1159 1978 
L 1159 0 
L 581 0 
L 581 3500 
L 1159 3500 
L 1159 2956 
Q 1356 3278 1631 3431 
Q 1906 3584 2284 3584 
Q 2666 3584 2933 3390 
Q 3200 3197 3328 2828 
z
" transform="scale(0.015625)"/>
       <path id="DejaVuSans-66" d="M 2375 4863 
L 2375 4384 
L 1825 4384 
Q 1516 4384 1395 4259 
Q 1275 4134 1275 3809 
L 1275 3500 
L 2222 3500 
L 2222 3053 
L 1275 3053 
L 1275 0 
L 697 0 
L 697 3053 
L 147 3053 
L 147 3500 
L 697 3500 
L 697 3744 
Q 697 4328 969 4595 
Q 1241 4863 1831 4863 
L 2375 4863 
z
" transform="scale(0.015625)"/>
       <path id="DejaVuSans-3e" d="M 678 3150 
L 678 3719 
L 4684 2266 
L 4684 1747 
L 678 294 
L 678 863 
L 3897 2003 
L 678 3150 
z
" transform="scale(0.015625)"/>
      </defs>
      <use xlink:href="#DejaVuSans-42"/>
      <use xlink:href="#DejaVuSans-61" x="68.603516"/>
      <use xlink:href="#DejaVuSans-74" x="129.882812"/>
      <use xlink:href="#DejaVuSans-63" x="169.091797"/>
      <use xlink:href="#DejaVuSans-68" x="224.072266"/>
      <use xlink:href="#DejaVuSans-65" x="287.451172"/>
      <use xlink:href="#DejaVuSans-64" x="348.974609"/>
      <use xlink:href="#DejaVuSans-3c" x="412.451172"/>
      <use xlink:href="#DejaVuSans-31" x="496.240234"/>
      <use xlink:href="#DejaVuSans-36" x="559.863281"/>
      <use xlink:href="#DejaVuSans-2c" x="623.486328"/>
      <use xlink:href="#DejaVuSans-20" x="655.273438"/>
      <use xlink:href="#DejaVuSans-45" x="687.060547"/>
      <use xlink:href="#DejaVuSans-79" x="750.244141"/>
      <use xlink:href="#DejaVuSans-74" x="809.423828"/>
      <use xlink:href="#DejaVuSans-7a" x="848.632812"/>
      <use xlink:href="#DejaVuSans-69" x="901.123047"/>
      <use xlink:href="#DejaVuSans-6e" x="928.90625"/>
      <use xlink:href="#DejaVuSans-67" x="992.285156"/>
      <use xlink:href="#DejaVuSans-65" x="1055.761719"/>
      <use xlink:href="#DejaVuSans-72" x="1117.285156"/>
      <use xlink:href="#DejaVuSans-2c" x="1158.398438"/>
      <use xlink:href="#DejaVuSans-20" x="1190.185547"/>
      <use xlink:href="#DejaVuSans-45" x="1221.972656"/>
      <use xlink:href="#DejaVuSans-79" x="1285.15625"/>
      <use xlink:href="#DejaVuSans-74" x="1344.335938"/>
      <use xlink:href="#DejaVuSans-7a" x="1383.544922"/>
      <use xlink:href="#DejaVuSans-69" x="1436.035156"/>
      <use xlink:href="#DejaVuSans-6e" x="1463.818359"/>
      <use xlink:href="#DejaVuSans-67" x="1527.197266"/>
      <use xlink:href="#DejaVuSans-65" x="1590.673828"/>
      <use xlink:href="#DejaVuSans-72" x="1652.197266"/>
      <use xlink:href="#DejaVuSans-3a" x="1691.560547"/>
      <use xlink:href="#DejaVuSans-3a" x="1725.251953"/>
      <use xlink:href="#DejaVuSans-62" x="1758.943359"/>
      <use xlink:href="#DejaVuSans-61" x="1822.419922"/>
      <use xlink:href="#DejaVuSans-74" x="1883.699219"/>
      <use xlink:href="#DejaVuSans-63" x="1922.908203"/>
      <use xlink:href="#DejaVuSans-68" x="1977.888672"/>
      <use xlink:href="#DejaVuSans-5f" x="2041.267578"/>
      <use xlink:href="#DejaVuSans-69" x="2091.267578"/>
      <use xlink:href="#DejaVuSans-6d" x="2119.050781"/>
      <use xlink:href="#DejaVuSans-70" x="2216.462891"/>
      <use xlink:href="#DejaVuSans-6c" x="2279.939453"/>
      <use xlink:href="#DejaVuSans-5f" x="2307.722656"/>
      <use xlink:href="#DejaVuSans-70" x="2357.722656"/>
      <use xlink:href="#DejaVuSans-72" x="2421.199219"/>
      <use xlink:href="#DejaVuSans-65" x="2460.0625"/>
      <use xlink:href="#DejaVuSans-66" x="2521.585938"/>
      <use xlink:href="#DejaVuSans-65" x="2556.791016"/>
      <use xlink:href="#DejaVuSans-74" x="2618.314453"/>
      <use xlink:href="#DejaVuSans-63" x="2657.523438"/>
      <use xlink:href="#DejaVuSans-68" x="2712.503906"/>
      <use xlink:href="#DejaVuSans-65" x="2775.882812"/>
      <use xlink:href="#DejaVuSans-64" x="2837.40625"/>
      <use xlink:href="#DejaVuSans-3c" x="2900.882812"/>
      <use xlink:href="#DejaVuSans-31" x="2984.671875"/>
      <use xlink:href="#DejaVuSans-36" x="3048.294922"/>
      <use xlink:href="#DejaVuSans-2c" x="3111.917969"/>
      <use xlink:href="#DejaVuSans-20" x="3143.705078"/>
      <use xlink:href="#DejaVuSans-34" x="3175.492188"/>
      <use xlink:href="#DejaVuSans-3e" x="3239.115234"/>
      <use xlink:href="#DejaVuSans-3e" x="3322.904297"/>
     </g>
    </g>
    <g id="line2d_78">
     <path d="M 62.328125 78.649375 
L 72.328125 78.649375 
L 82.328125 78.649375 
" style="fill: none; stroke: #1f77b4; stroke-width: 1.5; stroke-linecap: square"/>
    </g>
    <g id="text_46">
     <!-- &lt;impl SortedVec&gt;::interpolation_search -->
     <g transform="translate(90.328125 82.149375) scale(0.1 -0.1)">
      <defs>
       <path id="DejaVuSans-53" d="M 3425 4513 
L 3425 3897 
Q 3066 4069 2747 4153 
Q 2428 4238 2131 4238 
Q 1616 4238 1336 4038 
Q 1056 3838 1056 3469 
Q 1056 3159 1242 3001 
Q 1428 2844 1947 2747 
L 2328 2669 
Q 3034 2534 3370 2195 
Q 3706 1856 3706 1288 
Q 3706 609 3251 259 
Q 2797 -91 1919 -91 
Q 1588 -91 1214 -16 
Q 841 59 441 206 
L 441 856 
Q 825 641 1194 531 
Q 1563 422 1919 422 
Q 2459 422 2753 634 
Q 3047 847 3047 1241 
Q 3047 1584 2836 1778 
Q 2625 1972 2144 2069 
L 1759 2144 
Q 1053 2284 737 2584 
Q 422 2884 422 3419 
Q 422 4038 858 4394 
Q 1294 4750 2059 4750 
Q 2388 4750 2728 4690 
Q 3069 4631 3425 4513 
z
" transform="scale(0.015625)"/>
       <path id="DejaVuSans-56" d="M 1831 0 
L 50 4666 
L 709 4666 
L 2188 738 
L 3669 4666 
L 4325 4666 
L 2547 0 
L 1831 0 
z
" transform="scale(0.015625)"/>
      </defs>
      <use xlink:href="#DejaVuSans-3c"/>
      <use xlink:href="#DejaVuSans-69" x="83.789062"/>
      <use xlink:href="#DejaVuSans-6d" x="111.572266"/>
      <use xlink:href="#DejaVuSans-70" x="208.984375"/>
      <use xlink:href="#DejaVuSans-6c" x="272.460938"/>
      <use xlink:href="#DejaVuSans-20" x="300.244141"/>
      <use xlink:href="#DejaVuSans-53" x="332.03125"/>
      <use xlink:href="#DejaVuSans-6f" x="395.507812"/>
      <use xlink:href="#DejaVuSans-72" x="456.689453"/>
      <use xlink:href="#DejaVuSans-74" x="497.802734"/>
      <use xlink:href="#DejaVuSans-65" x="537.011719"/>
      <use xlink:href="#DejaVuSans-64" x="598.535156"/>
      <use xlink:href="#DejaVuSans-56" x="662.011719"/>
      <use xlink:href="#DejaVuSans-65" x="722.669922"/>
      <use xlink:href="#DejaVuSans-63" x="784.193359"/>
      <use xlink:href="#DejaVuSans-3e" x="839.173828"/>
      <use xlink:href="#DejaVuSans-3a" x="922.962891"/>
      <use xlink:href="#DejaVuSans-3a" x="956.654297"/>
      <use xlink:href="#DejaVuSans-69" x="990.345703"/>
      <use xlink:href="#DejaVuSans-6e" x="1018.128906"/>
      <use xlink:href="#DejaVuSans-74" x="1081.507812"/>
      <use xlink:href="#DejaVuSans-65" x="1120.716797"/>
      <use xlink:href="#DejaVuSans-72" x="1182.240234"/>
      <use xlink:href="#DejaVuSans-70" x="1223.353516"/>
      <use xlink:href="#DejaVuSans-6f" x="1286.830078"/>
      <use xlink:href="#DejaVuSans-6c" x="1348.011719"/>
      <use xlink:href="#DejaVuSans-61" x="1375.794922"/>
      <use xlink:href="#DejaVuSans-74" x="1437.074219"/>
      <use xlink:href="#DejaVuSans-69" x="1476.283203"/>
      <use xlink:href="#DejaVuSans-6f" x="1504.066406"/>
      <use xlink:href="#DejaVuSans-6e" x="1565.248047"/>
      <use xlink:href="#DejaVuSans-5f" x="1628.626953"/>
      <use xlink:href="#DejaVuSans-73" x="1678.626953"/>
      <use xlink:href="#DejaVuSans-65" x="1730.726562"/>
      <use xlink:href="#DejaVuSans-61" x="1792.25"/>
      <use xlink:href="#DejaVuSans-72" x="1853.529297"/>
      <use xlink:href="#DejaVuSans-63" x="1892.392578"/>
      <use xlink:href="#DejaVuSans-68" x="1947.373047"/>
     </g>
    </g>
    <g id="line2d_79">
     <path d="M 62.328125 93.605625 
L 72.328125 93.605625 
L 82.328125 93.605625 
" style="fill: none; stroke: #2ca02c; stroke-width: 1.5; stroke-linecap: square"/>
    </g>
    <g id="text_47">
     <!-- Batched&lt;2, SortedVec, &lt;impl SortedVec&gt;::interp_search_batched&lt;2&gt;&gt; -->
     <g transform="translate(90.328125 97.105625) scale(0.1 -0.1)">
      <use xlink:href="#DejaVuSans-42"/>
      <use xlink:href="#DejaVuSans-61" x="68.603516"/>
      <use xlink:href="#DejaVuSans-74" x="129.882812"/>
      <use xlink:href="#DejaVuSans-63" x="169.091797"/>
      <use xlink:href="#DejaVuSans-68" x="224.072266"/>
      <use xlink:href="#DejaVuSans-65" x="287.451172"/>
      <use xlink:href="#DejaVuSans-64" x="348.974609"/>
      <use xlink:href="#DejaVuSans-3c" x="412.451172"/>
      <use xlink:href="#DejaVuSans-32" x="496.240234"/>
      <use xlink:href="#DejaVuSans-2c" x="559.863281"/>
      <use xlink:href="#DejaVuSans-20" x="591.650391"/>
      <use xlink:href="#DejaVuSans-53" x="623.4375"/>
      <use xlink:href="#DejaVuSans-6f" x="686.914062"/>
      <use xlink:href="#DejaVuSans-72" x="748.095703"/>
      <use xlink:href="#DejaVuSans-74" x="789.208984"/>
      <use xlink:href="#DejaVuSans-65" x="828.417969"/>
      <use xlink:href="#DejaVuSans-64" x="889.941406"/>
      <use xlink:href="#DejaVuSans-56" x="953.417969"/>
      <use xlink:href="#DejaVuSans-65" x="1014.076172"/>
      <use xlink:href="#DejaVuSans-63" x="1075.599609"/>
      <use xlink:href="#DejaVuSans-2c" x="1130.580078"/>
      <use xlink:href="#DejaVuSans-20" x="1162.367188"/>
      <use xlink:href="#DejaVuSans-3c" x="1194.154297"/>
      <use xlink:href="#DejaVuSans-69" x="1277.943359"/>
      <use xlink:href="#DejaVuSans-6d" x="1305.726562"/>
      <use xlink:href="#DejaVuSans-70" x="1403.138672"/>
      <use xlink:href="#DejaVuSans-6c" x="1466.615234"/>
      <use xlink:href="#DejaVuSans-20" x="1494.398438"/>
      <use xlink:href="#DejaVuSans-53" x="1526.185547"/>
      <use xlink:href="#DejaVuSans-6f" x="1589.662109"/>
      <use xlink:href="#DejaVuSans-72" x="1650.84375"/>
      <use xlink:href="#DejaVuSans-74" x="1691.957031"/>
      <use xlink:href="#DejaVuSans-65" x="1731.166016"/>
      <use xlink:href="#DejaVuSans-64" x="1792.689453"/>
      <use xlink:href="#DejaVuSans-56" x="1856.166016"/>
      <use xlink:href="#DejaVuSans-65" x="1916.824219"/>
      <use xlink:href="#DejaVuSans-63" x="1978.347656"/>
      <use xlink:href="#DejaVuSans-3e" x="2033.328125"/>
      <use xlink:href="#DejaVuSans-3a" x="2117.117188"/>
      <use xlink:href="#DejaVuSans-3a" x="2150.808594"/>
      <use xlink:href="#DejaVuSans-69" x="2184.5"/>
      <use xlink:href="#DejaVuSans-6e" x="2212.283203"/>
      <use xlink:href="#DejaVuSans-74" x="2275.662109"/>
      <use xlink:href="#DejaVuSans-65" x="2314.871094"/>
      <use xlink:href="#DejaVuSans-72" x="2376.394531"/>
      <use xlink:href="#DejaVuSans-70" x="2417.507812"/>
      <use xlink:href="#DejaVuSans-5f" x="2480.984375"/>
      <use xlink:href="#DejaVuSans-73" x="2530.984375"/>
      <use xlink:href="#DejaVuSans-65" x="2583.083984"/>
      <use xlink:href="#DejaVuSans-61" x="2644.607422"/>
      <use xlink:href="#DejaVuSans-72" x="2705.886719"/>
      <use xlink:href="#DejaVuSans-63" x="2744.75"/>
      <use xlink:href="#DejaVuSans-68" x="2799.730469"/>
      <use xlink:href="#DejaVuSans-5f" x="2863.109375"/>
      <use xlink:href="#DejaVuSans-62" x="2913.109375"/>
      <use xlink:href="#DejaVuSans-61" x="2976.585938"/>
      <use xlink:href="#DejaVuSans-74" x="3037.865234"/>
      <use xlink:href="#DejaVuSans-63" x="3077.074219"/>
      <use xlink:href="#DejaVuSans-68" x="3132.054688"/>
      <use xlink:href="#DejaVuSans-65" x="3195.433594"/>
      <use xlink:href="#DejaVuSans-64" x="3256.957031"/>
      <use xlink:href="#DejaVuSans-3c" x="3320.433594"/>
      <use xlink:href="#DejaVuSans-32" x="3404.222656"/>
      <use xlink:href="#DejaVuSans-3e" x="3467.845703"/>
      <use xlink:href="#DejaVuSans-3e" x="3551.634766"/>
     </g>
    </g>
    <g id="line2d_80">
     <path d="M 62.328125 108.561875 
L 72.328125 108.561875 
L 82.328125 108.561875 
" style="fill: none; stroke: #2ca02c; stroke-width: 1.5; stroke-linecap: square"/>
    </g>
    <g id="text_48">
     <!-- Batched&lt;4, SortedVec, &lt;impl SortedVec&gt;::interp_search_batched&lt;4&gt;&gt; -->
     <g transform="translate(90.328125 112.061875) scale(0.1 -0.1)">
      <use xlink:href="#DejaVuSans-42"/>
      <use xlink:href="#DejaVuSans-61" x="68.603516"/>
      <use xlink:href="#DejaVuSans-74" x="129.882812"/>
      <use xlink:href="#DejaVuSans-63" x="169.091797"/>
      <use xlink:href="#DejaVuSans-68" x="224.072266"/>
      <use xlink:href="#DejaVuSans-65" x="287.451172"/>
      <use xlink:href="#DejaVuSans-64" x="348.974609"/>
      <use xlink:href="#DejaVuSans-3c" x="412.451172"/>
      <use xlink:href="#DejaVuSans-34" x="496.240234"/>
      <use xlink:href="#DejaVuSans-2c" x="559.863281"/>
      <use xlink:href="#DejaVuSans-20" x="591.650391"/>
      <use xlink:href="#DejaVuSans-53" x="623.4375"/>
      <use xlink:href="#DejaVuSans-6f" x="686.914062"/>
      <use xlink:href="#DejaVuSans-72" x="748.095703"/>
      <use xlink:href="#DejaVuSans-74" x="789.208984"/>
      <use xlink:href="#DejaVuSans-65" x="828.417969"/>
      <use xlink:href="#DejaVuSans-64" x="889.941406"/>
      <use xlink:href="#DejaVuSans-56" x="953.417969"/>
      <use xlink:href="#DejaVuSans-65" x="1014.076172"/>
      <use xlink:href="#DejaVuSans-63" x="1075.599609"/>
      <use xlink:href="#DejaVuSans-2c" x="1130.580078"/>
      <use xlink:href="#DejaVuSans-20" x="1162.367188"/>
      <use xlink:href="#DejaVuSans-3c" x="1194.154297"/>
      <use xlink:href="#DejaVuSans-69" x="1277.943359"/>
      <use xlink:href="#DejaVuSans-6d" x="1305.726562"/>
      <use xlink:href="#DejaVuSans-70" x="1403.138672"/>
      <use xlink:href="#DejaVuSans-6c" x="1466.615234"/>
      <use xlink:href="#DejaVuSans-20" x="1494.398438"/>
      <use xlink:href="#DejaVuSans-53" x="1526.185547"/>
      <use xlink:href="#DejaVuSans-6f" x="1589.662109"/>
      <use xlink:href="#DejaVuSans-72" x="1650.84375"/>
      <use xlink:href="#DejaVuSans-74" x="1691.957031"/>
      <use xlink:href="#DejaVuSans-65" x="1731.166016"/>
      <use xlink:href="#DejaVuSans-64" x="1792.689453"/>
      <use xlink:href="#DejaVuSans-56" x="1856.166016"/>
      <use xlink:href="#DejaVuSans-65" x="1916.824219"/>
      <use xlink:href="#DejaVuSans-63" x="1978.347656"/>
      <use xlink:href="#DejaVuSans-3e" x="2033.328125"/>
      <use xlink:href="#DejaVuSans-3a" x="2117.117188"/>
      <use xlink:href="#DejaVuSans-3a" x="2150.808594"/>
      <use xlink:href="#DejaVuSans-69" x="2184.5"/>
      <use xlink:href="#DejaVuSans-6e" x="2212.283203"/>
      <use xlink:href="#DejaVuSans-74" x="2275.662109"/>
      <use xlink:href="#DejaVuSans-65" x="2314.871094"/>
      <use xlink:href="#DejaVuSans-72" x="2376.394531"/>
      <use xlink:href="#DejaVuSans-70" x="2417.507812"/>
      <use xlink:href="#DejaVuSans-5f" x="2480.984375"/>
      <use xlink:href="#DejaVuSans-73" x="2530.984375"/>
      <use xlink:href="#DejaVuSans-65" x="2583.083984"/>
      <use xlink:href="#DejaVuSans-61" x="2644.607422"/>
      <use xlink:href="#DejaVuSans-72" x="2705.886719"/>
      <use xlink:href="#DejaVuSans-63" x="2744.75"/>
      <use xlink:href="#DejaVuSans-68" x="2799.730469"/>
      <use xlink:href="#DejaVuSans-5f" x="2863.109375"/>
      <use xlink:href="#DejaVuSans-62" x="2913.109375"/>
      <use xlink:href="#DejaVuSans-61" x="2976.585938"/>
      <use xlink:href="#DejaVuSans-74" x="3037.865234"/>
      <use xlink:href="#DejaVuSans-63" x="3077.074219"/>
      <use xlink:href="#DejaVuSans-68" x="3132.054688"/>
      <use xlink:href="#DejaVuSans-65" x="3195.433594"/>
      <use xlink:href="#DejaVuSans-64" x="3256.957031"/>
      <use xlink:href="#DejaVuSans-3c" x="3320.433594"/>
      <use xlink:href="#DejaVuSans-34" x="3404.222656"/>
      <use xlink:href="#DejaVuSans-3e" x="3467.845703"/>
      <use xlink:href="#DejaVuSans-3e" x="3551.634766"/>
     </g>
    </g>
    <g id="line2d_81">
     <path d="M 62.328125 123.518125 
L 72.328125 123.518125 
L 82.328125 123.518125 
" style="fill: none; stroke: #ff7f0e; stroke-width: 1.5; stroke-linecap: square"/>
    </g>
    <g id="text_49">
     <!-- Batched&lt;8, SortedVec, &lt;impl SortedVec&gt;::interp_search_batched&lt;8&gt;&gt; -->
     <g transform="translate(90.328125 127.018125) scale(0.1 -0.1)">
      <use xlink:href="#DejaVuSans-42"/>
      <use xlink:href="#DejaVuSans-61" x="68.603516"/>
      <use xlink:href="#DejaVuSans-74" x="129.882812"/>
      <use xlink:href="#DejaVuSans-63" x="169.091797"/>
      <use xlink:href="#DejaVuSans-68" x="224.072266"/>
      <use xlink:href="#DejaVuSans-65" x="287.451172"/>
      <use xlink:href="#DejaVuSans-64" x="348.974609"/>
      <use xlink:href="#DejaVuSans-3c" x="412.451172"/>
      <use xlink:href="#DejaVuSans-38" x="496.240234"/>
      <use xlink:href="#DejaVuSans-2c" x="559.863281"/>
      <use xlink:href="#DejaVuSans-20" x="591.650391"/>
      <use xlink:href="#DejaVuSans-53" x="623.4375"/>
      <use xlink:href="#DejaVuSans-6f" x="686.914062"/>
      <use xlink:href="#DejaVuSans-72" x="748.095703"/>
      <use xlink:href="#DejaVuSans-74" x="789.208984"/>
      <use xlink:href="#DejaVuSans-65" x="828.417969"/>
      <use xlink:href="#DejaVuSans-64" x="889.941406"/>
      <use xlink:href="#DejaVuSans-56" x="953.417969"/>
      <use xlink:href="#DejaVuSans-65" x="1014.076172"/>
      <use xlink:href="#DejaVuSans-63" x="1075.599609"/>
      <use xlink:href="#DejaVuSans-2c" x="1130.580078"/>
      <use xlink:href="#DejaVuSans-20" x="1162.367188"/>
      <use xlink:href="#DejaVuSans-3c" x="1194.154297"/>
      <use xlink:href="#DejaVuSans-69" x="1277.943359"/>
      <use xlink:href="#DejaVuSans-6d" x="1305.726562"/>
      <use xlink:href="#DejaVuSans-70" x="1403.138672"/>
      <use xlink:href="#DejaVuSans-6c" x="1466.615234"/>
      <use xlink:href="#DejaVuSans-20" x="1494.398438"/>
      <use xlink:href="#DejaVuSans-53" x="1526.185547"/>
      <use xlink:href="#DejaVuSans-6f" x="1589.662109"/>
      <use xlink:href="#DejaVuSans-72" x="1650.84375"/>
      <use xlink:href="#DejaVuSans-74" x="1691.957031"/>
      <use xlink:href="#DejaVuSans-65" x="1731.166016"/>
      <use xlink:href="#DejaVuSans-64" x="1792.689453"/>
      <use xlink:href="#DejaVuSans-56" x="1856.166016"/>
      <use xlink:href="#DejaVuSans-65" x="1916.824219"/>
      <use xlink:href="#DejaVuSans-63" x="1978.347656"/>
      <use xlink:href="#DejaVuSans-3e" x="2033.328125"/>
      <use xlink:href="#DejaVuSans-3a" x="2117.117188"/>
      <use xlink:href="#DejaVuSans-3a" x="2150.808594"/>
      <use xlink:href="#DejaVuSans-69" x="2184.5"/>
      <use xlink:href="#DejaVuSans-6e" x="2212.283203"/>
      <use xlink:href="#DejaVuSans-74" x="2275.662109"/>
      <use xlink:href="#DejaVuSans-65" x="2314.871094"/>
      <use xlink:href="#DejaVuSans-72" x="2376.394531"/>
      <use xlink:href="#DejaVuSans-70" x="2417.507812"/>
      <use xlink:href="#DejaVuSans-5f" x="2480.984375"/>
      <use xlink:href="#DejaVuSans-73" x="2530.984375"/>
      <use xlink:href="#DejaVuSans-65" x="2583.083984"/>
      <use xlink:href="#DejaVuSans-61" x="2644.607422"/>
      <use xlink:href="#DejaVuSans-72" x="2705.886719"/>
      <use xlink:href="#DejaVuSans-63" x="2744.75"/>
      <use xlink:href="#DejaVuSans-68" x="2799.730469"/>
      <use xlink:href="#DejaVuSans-5f" x="2863.109375"/>
      <use xlink:href="#DejaVuSans-62" x="2913.109375"/>
      <use xlink:href="#DejaVuSans-61" x="2976.585938"/>
      <use xlink:href="#DejaVuSans-74" x="3037.865234"/>
      <use xlink:href="#DejaVuSans-63" x="3077.074219"/>
      <use xlink:href="#DejaVuSans-68" x="3132.054688"/>
      <use xlink:href="#DejaVuSans-65" x="3195.433594"/>
      <use xlink:href="#DejaVuSans-64" x="3256.957031"/>
      <use xlink:href="#DejaVuSans-3c" x="3320.433594"/>
      <use xlink:href="#DejaVuSans-38" x="3404.222656"/>
      <use xlink:href="#DejaVuSans-3e" x="3467.845703"/>
      <use xlink:href="#DejaVuSans-3e" x="3551.634766"/>
     </g>
    </g>
    <g id="line2d_82">
     <path d="M 62.328125 138.474375 
L 72.328125 138.474375 
L 82.328125 138.474375 
" style="fill: none; stroke: #7f7f7f; stroke-width: 1.5; stroke-linecap: square"/>
    </g>
    <g id="text_50">
     <!-- Batched&lt;16, SortedVec, &lt;impl SortedVec&gt;::interp_search_batched&lt;16&gt;&gt; -->
     <g transform="translate(90.328125 141.974375) scale(0.1 -0.1)">
      <use xlink:href="#DejaVuSans-42"/>
      <use xlink:href="#DejaVuSans-61" x="68.603516"/>
      <use xlink:href="#DejaVuSans-74" x="129.882812"/>
      <use xlink:href="#DejaVuSans-63" x="169.091797"/>
      <use xlink:href="#DejaVuSans-68" x="224.072266"/>
      <use xlink:href="#DejaVuSans-65" x="287.451172"/>
      <use xlink:href="#DejaVuSans-64" x="348.974609"/>
      <use xlink:href="#DejaVuSans-3c" x="412.451172"/>
      <use xlink:href="#DejaVuSans-31" x="496.240234"/>
      <use xlink:href="#DejaVuSans-36" x="559.863281"/>
      <use xlink:href="#DejaVuSans-2c" x="623.486328"/>
      <use xlink:href="#DejaVuSans-20" x="655.273438"/>
      <use xlink:href="#DejaVuSans-53" x="687.060547"/>
      <use xlink:href="#DejaVuSans-6f" x="750.537109"/>
      <use xlink:href="#DejaVuSans-72" x="811.71875"/>
      <use xlink:href="#DejaVuSans-74" x="852.832031"/>
      <use xlink:href="#DejaVuSans-65" x="892.041016"/>
      <use xlink:href="#DejaVuSans-64" x="953.564453"/>
      <use xlink:href="#DejaVuSans-56" x="1017.041016"/>
      <use xlink:href="#DejaVuSans-65" x="1077.699219"/>
      <use xlink:href="#DejaVuSans-63" x="1139.222656"/>
      <use xlink:href="#DejaVuSans-2c" x="1194.203125"/>
      <use xlink:href="#DejaVuSans-20" x="1225.990234"/>
      <use xlink:href="#DejaVuSans-3c" x="1257.777344"/>
      <use xlink:href="#DejaVuSans-69" x="1341.566406"/>
      <use xlink:href="#DejaVuSans-6d" x="1369.349609"/>
      <use xlink:href="#DejaVuSans-70" x="1466.761719"/>
      <use xlink:href="#DejaVuSans-6c" x="1530.238281"/>
      <use xlink:href="#DejaVuSans-20" x="1558.021484"/>
      <use xlink:href="#DejaVuSans-53" x="1589.808594"/>
      <use xlink:href="#DejaVuSans-6f" x="1653.285156"/>
      <use xlink:href="#DejaVuSans-72" x="1714.466797"/>
      <use xlink:href="#DejaVuSans-74" x="1755.580078"/>
      <use xlink:href="#DejaVuSans-65" x="1794.789062"/>
      <use xlink:href="#DejaVuSans-64" x="1856.3125"/>
      <use xlink:href="#DejaVuSans-56" x="1919.789062"/>
      <use xlink:href="#DejaVuSans-65" x="1980.447266"/>
      <use xlink:href="#DejaVuSans-63" x="2041.970703"/>
      <use xlink:href="#DejaVuSans-3e" x="2096.951172"/>
      <use xlink:href="#DejaVuSans-3a" x="2180.740234"/>
      <use xlink:href="#DejaVuSans-3a" x="2214.431641"/>
      <use xlink:href="#DejaVuSans-69" x="2248.123047"/>
      <use xlink:href="#DejaVuSans-6e" x="2275.90625"/>
      <use xlink:href="#DejaVuSans-74" x="2339.285156"/>
      <use xlink:href="#DejaVuSans-65" x="2378.494141"/>
      <use xlink:href="#DejaVuSans-72" x="2440.017578"/>
      <use xlink:href="#DejaVuSans-70" x="2481.130859"/>
      <use xlink:href="#DejaVuSans-5f" x="2544.607422"/>
      <use xlink:href="#DejaVuSans-73" x="2594.607422"/>
      <use xlink:href="#DejaVuSans-65" x="2646.707031"/>
      <use xlink:href="#DejaVuSans-61" x="2708.230469"/>
      <use xlink:href="#DejaVuSans-72" x="2769.509766"/>
      <use xlink:href="#DejaVuSans-63" x="2808.373047"/>
      <use xlink:href="#DejaVuSans-68" x="2863.353516"/>
      <use xlink:href="#DejaVuSans-5f" x="2926.732422"/>
      <use xlink:href="#DejaVuSans-62" x="2976.732422"/>
      <use xlink:href="#DejaVuSans-61" x="3040.208984"/>
      <use xlink:href="#DejaVuSans-74" x="3101.488281"/>
      <use xlink:href="#DejaVuSans-63" x="3140.697266"/>
      <use xlink:href="#DejaVuSans-68" x="3195.677734"/>
      <use xlink:href="#DejaVuSans-65" x="3259.056641"/>
      <use xlink:href="#DejaVuSans-64" x="3320.580078"/>
      <use xlink:href="#DejaVuSans-3c" x="3384.056641"/>
      <use xlink:href="#DejaVuSans-31" x="3467.845703"/>
      <use xlink:href="#DejaVuSans-36" x="3531.46875"/>
      <use xlink:href="#DejaVuSans-3e" x="3595.091797"/>
      <use xlink:href="#DejaVuSans-3e" x="3678.880859"/>
     </g>
    </g>
    <g id="line2d_83">
     <path d="M 62.328125 153.430625 
L 72.328125 153.430625 
L 82.328125 153.430625 
" style="fill: none; stroke: #7f7f7f; stroke-width: 1.5; stroke-linecap: square"/>
    </g>
    <g id="text_51">
     <!-- Batched&lt;32, SortedVec, &lt;impl SortedVec&gt;::interp_search_batched&lt;32&gt;&gt; -->
     <g transform="translate(90.328125 156.930625) scale(0.1 -0.1)">
      <use xlink:href="#DejaVuSans-42"/>
      <use xlink:href="#DejaVuSans-61" x="68.603516"/>
      <use xlink:href="#DejaVuSans-74" x="129.882812"/>
      <use xlink:href="#DejaVuSans-63" x="169.091797"/>
      <use xlink:href="#DejaVuSans-68" x="224.072266"/>
      <use xlink:href="#DejaVuSans-65" x="287.451172"/>
      <use xlink:href="#DejaVuSans-64" x="348.974609"/>
      <use xlink:href="#DejaVuSans-3c" x="412.451172"/>
      <use xlink:href="#DejaVuSans-33" x="496.240234"/>
      <use xlink:href="#DejaVuSans-32" x="559.863281"/>
      <use xlink:href="#DejaVuSans-2c" x="623.486328"/>
      <use xlink:href="#DejaVuSans-20" x="655.273438"/>
      <use xlink:href="#DejaVuSans-53" x="687.060547"/>
      <use xlink:href="#DejaVuSans-6f" x="750.537109"/>
      <use xlink:href="#DejaVuSans-72" x="811.71875"/>
      <use xlink:href="#DejaVuSans-74" x="852.832031"/>
      <use xlink:href="#DejaVuSans-65" x="892.041016"/>
      <use xlink:href="#DejaVuSans-64" x="953.564453"/>
      <use xlink:href="#DejaVuSans-56" x="1017.041016"/>
      <use xlink:href="#DejaVuSans-65" x="1077.699219"/>
      <use xlink:href="#DejaVuSans-63" x="1139.222656"/>
      <use xlink:href="#DejaVuSans-2c" x="1194.203125"/>
      <use xlink:href="#DejaVuSans-20" x="1225.990234"/>
      <use xlink:href="#DejaVuSans-3c" x="1257.777344"/>
      <use xlink:href="#DejaVuSans-69" x="1341.566406"/>
      <use xlink:href="#DejaVuSans-6d" x="1369.349609"/>
      <use xlink:href="#DejaVuSans-70" x="1466.761719"/>
      <use xlink:href="#DejaVuSans-6c" x="1530.238281"/>
      <use xlink:href="#DejaVuSans-20" x="1558.021484"/>
      <use xlink:href="#DejaVuSans-53" x="1589.808594"/>
      <use xlink:href="#DejaVuSans-6f" x="1653.285156"/>
      <use xlink:href="#DejaVuSans-72" x="1714.466797"/>
      <use xlink:href="#DejaVuSans-74" x="1755.580078"/>
      <use xlink:href="#DejaVuSans-65" x="1794.789062"/>
      <use xlink:href="#DejaVuSans-64" x="1856.3125"/>
      <use xlink:href="#DejaVuSans-56" x="1919.789062"/>
      <use xlink:href="#DejaVuSans-65" x="1980.447266"/>
      <use xlink:href="#DejaVuSans-63" x="2041.970703"/>
      <use xlink:href="#DejaVuSans-3e" x="2096.951172"/>
      <use xlink:href="#DejaVuSans-3a" x="2180.740234"/>
      <use xlink:href="#DejaVuSans-3a" x="2214.431641"/>
      <use xlink:href="#DejaVuSans-69" x="2248.123047"/>
      <use xlink:href="#DejaVuSans-6e" x="2275.90625"/>
      <use xlink:href="#DejaVuSans-74" x="2339.285156"/>
      <use xlink:href="#DejaVuSans-65" x="2378.494141"/>
      <use xlink:href="#DejaVuSans-72" x="2440.017578"/>
      <use xlink:href="#DejaVuSans-70" x="2481.130859"/>
      <use xlink:href="#DejaVuSans-5f" x="2544.607422"/>
      <use xlink:href="#DejaVuSans-73" x="2594.607422"/>
      <use xlink:href="#DejaVuSans-65" x="2646.707031"/>
      <use xlink:href="#DejaVuSans-61" x="2708.230469"/>
      <use xlink:href="#DejaVuSans-72" x="2769.509766"/>
      <use xlink:href="#DejaVuSans-63" x="2808.373047"/>
      <use xlink:href="#DejaVuSans-68" x="2863.353516"/>
      <use xlink:href="#DejaVuSans-5f" x="2926.732422"/>
      <use xlink:href="#DejaVuSans-62" x="2976.732422"/>
      <use xlink:href="#DejaVuSans-61" x="3040.208984"/>
      <use xlink:href="#DejaVuSans-74" x="3101.488281"/>
      <use xlink:href="#DejaVuSans-63" x="3140.697266"/>
      <use xlink:href="#DejaVuSans-68" x="3195.677734"/>
      <use xlink:href="#DejaVuSans-65" x="3259.056641"/>
      <use xlink:href="#DejaVuSans-64" x="3320.580078"/>
      <use xlink:href="#DejaVuSans-3c" x="3384.056641"/>
      <use xlink:href="#DejaVuSans-33" x="3467.845703"/>
      <use xlink:href="#DejaVuSans-32" x="3531.46875"/>
      <use xlink:href="#DejaVuSans-3e" x="3595.091797"/>
      <use xlink:href="#DejaVuSans-3e" x="3678.880859"/>
     </g>
    </g>
   </g>
  </g>
 </g>
 <defs>
  <clipPath id="p6c94592af6">
   <rect x="53.328125" y="50.594688" width="613.8" height="443.52"/>
  </clipPath>
 </defs>
</svg>
