<?xml version="1.0" encoding="utf-8" standalone="no"?>
<!DOCTYPE svg PUBLIC "-//W3C//DTD SVG 1.1//EN"
  "http://www.w3.org/Graphics/SVG/1.1/DTD/svg11.dtd">
<svg xmlns:xlink="http://www.w3.org/1999/xlink" width="667.965625pt" height="531.670938pt" viewBox="0 0 667.965625 531.670938" xmlns="http://www.w3.org/2000/svg" version="1.1">
 <metadata>
  <rdf:RDF xmlns:dc="http://purl.org/dc/elements/1.1/" xmlns:cc="http://creativecommons.org/ns#" xmlns:rdf="http://www.w3.org/1999/02/22-rdf-syntax-ns#">
   <cc:Work>
    <dc:type rdf:resource="http://purl.org/dc/dcmitype/StillImage"/>
    <dc:date>2025-02-25T09:39:56.607415</dc:date>
    <dc:format>image/svg+xml</dc:format>
    <dc:creator>
     <cc:Agent>
      <dc:title>Matplotlib v3.9.2, https://matplotlib.org/</dc:title>
     </cc:Agent>
    </dc:creator>
   </cc:Work>
  </rdf:RDF>
 </metadata>
 <defs>
  <style type="text/css">*{stroke-linejoin: round; stroke-linecap: butt}</style>
 </defs>
 <g id="figure_1">
  <g id="patch_1">
   <path d="M -0 531.670938 
L 667.965625 531.670938 
L 667.965625 0 
L -0 0 
z
" style="fill: #ffffff"/>
  </g>
  <g id="axes_1">
   <g id="patch_2">
    <path d="M 46.965625 494.114688 
L 660.765625 494.114688 
L 660.765625 50.594688 
L 46.965625 50.594688 
z
" style="fill: #ffffff"/>
   </g>
   <g id="line2d_1">
    <path d="M 298.818704 494.114688 
L 298.818704 50.594688 
" clip-path="url(#p7d6e563f17)" style="fill: none; stroke-dasharray: 5.55,2.4; stroke-dashoffset: 0; stroke: #ff0000; stroke-width: 1.5"/>
   </g>
   <g id="line2d_2">
    <path d="M 388.399935 494.114688 
L 388.399935 50.594688 
" clip-path="url(#p7d6e563f17)" style="fill: none; stroke-dasharray: 5.55,2.4; stroke-dashoffset: 0; stroke: #ff0000; stroke-width: 1.5"/>
   </g>
   <g id="line2d_3">
    <path d="M 455.585859 494.114688 
L 455.585859 50.594688 
" clip-path="url(#p7d6e563f17)" style="fill: none; stroke-dasharray: 5.55,2.4; stroke-dashoffset: 0; stroke: #ff0000; stroke-width: 1.5"/>
   </g>
   <g id="axes_2">
    <g id="patch_3">
     <path d="M 46.965625 50.594688 
L 660.765625 50.594688 
L 660.765625 50.594687 
L 46.965625 50.594687 
z
" style="fill: #ffffff"/>
    </g>
    <g id="matplotlib.axis_1">
     <g id="xtick_1">
      <g id="line2d_4">
       <defs>
        <path id="md328759393" d="M 0 0 
L 0 -3.5 
" style="stroke: #000000; stroke-width: 0.8"/>
       </defs>
       <g>
        <use xlink:href="#md328759393" x="52.470317" y="50.594687" style="stroke: #000000; stroke-width: 0.8"/>
       </g>
      </g>
      <g id="text_1">
       <!-- $\mathdefault{2^{2}}$ -->
       <g transform="translate(46.870317 41.515) scale(0.1 -0.1)">
        <defs>
         <path id="DejaVuSans-32" d="M 1228 531 
L 3431 531 
L 3431 0 
L 469 0 
L 469 531 
Q 828 903 1448 1529 
Q 2069 2156 2228 2338 
Q 2531 2678 2651 2914 
Q 2772 3150 2772 3378 
Q 2772 3750 2511 3984 
Q 2250 4219 1831 4219 
Q 1534 4219 1204 4116 
Q 875 4013 500 3803 
L 500 4441 
Q 881 4594 1212 4672 
Q 1544 4750 1819 4750 
Q 2544 4750 2975 4387 
Q 3406 4025 3406 3419 
Q 3406 3131 3298 2873 
Q 3191 2616 2906 2266 
Q 2828 2175 2409 1742 
Q 1991 1309 1228 531 
z
" transform="scale(0.015625)"/>
        </defs>
        <use xlink:href="#DejaVuSans-32" transform="translate(0 0.765625)"/>
        <use xlink:href="#DejaVuSans-32" transform="translate(64.580078 39.046875) scale(0.7)"/>
       </g>
      </g>
     </g>
     <g id="xtick_2">
      <g id="line2d_5">
       <g>
        <use xlink:href="#md328759393" x="97.260933" y="50.594687" style="stroke: #000000; stroke-width: 0.8"/>
       </g>
      </g>
      <g id="text_2">
       <!-- $\mathdefault{2^{4}}$ -->
       <g transform="translate(91.660933 41.515) scale(0.1 -0.1)">
        <defs>
         <path id="DejaVuSans-34" d="M 2419 4116 
L 825 1625 
L 2419 1625 
L 2419 4116 
z
M 2253 4666 
L 3047 4666 
L 3047 1625 
L 3713 1625 
L 3713 1100 
L 3047 1100 
L 3047 0 
L 2419 0 
L 2419 1100 
L 313 1100 
L 313 1709 
L 2253 4666 
z
" transform="scale(0.015625)"/>
        </defs>
        <use xlink:href="#DejaVuSans-32" transform="translate(0 0.684375)"/>
        <use xlink:href="#DejaVuSans-34" transform="translate(64.580078 38.965625) scale(0.7)"/>
       </g>
      </g>
     </g>
     <g id="xtick_3">
      <g id="line2d_6">
       <g>
        <use xlink:href="#md328759393" x="142.051549" y="50.594687" style="stroke: #000000; stroke-width: 0.8"/>
       </g>
      </g>
      <g id="text_3">
       <!-- $\mathdefault{2^{6}}$ -->
       <g transform="translate(136.451549 41.515) scale(0.1 -0.1)">
        <defs>
         <path id="DejaVuSans-36" d="M 2113 2584 
Q 1688 2584 1439 2293 
Q 1191 2003 1191 1497 
Q 1191 994 1439 701 
Q 1688 409 2113 409 
Q 2538 409 2786 701 
Q 3034 994 3034 1497 
Q 3034 2003 2786 2293 
Q 2538 2584 2113 2584 
z
M 3366 4563 
L 3366 3988 
Q 3128 4100 2886 4159 
Q 2644 4219 2406 4219 
Q 1781 4219 1451 3797 
Q 1122 3375 1075 2522 
Q 1259 2794 1537 2939 
Q 1816 3084 2150 3084 
Q 2853 3084 3261 2657 
Q 3669 2231 3669 1497 
Q 3669 778 3244 343 
Q 2819 -91 2113 -91 
Q 1303 -91 875 529 
Q 447 1150 447 2328 
Q 447 3434 972 4092 
Q 1497 4750 2381 4750 
Q 2619 4750 2861 4703 
Q 3103 4656 3366 4563 
z
" transform="scale(0.015625)"/>
        </defs>
        <use xlink:href="#DejaVuSans-32" transform="translate(0 0.765625)"/>
        <use xlink:href="#DejaVuSans-36" transform="translate(64.580078 39.046875) scale(0.7)"/>
       </g>
      </g>
     </g>
     <g id="xtick_4">
      <g id="line2d_7">
       <g>
        <use xlink:href="#md328759393" x="186.842164" y="50.594687" style="stroke: #000000; stroke-width: 0.8"/>
       </g>
      </g>
      <g id="text_4">
       <!-- $\mathdefault{2^{8}}$ -->
       <g transform="translate(181.242164 41.515) scale(0.1 -0.1)">
        <defs>
         <path id="DejaVuSans-38" d="M 2034 2216 
Q 1584 2216 1326 1975 
Q 1069 1734 1069 1313 
Q 1069 891 1326 650 
Q 1584 409 2034 409 
Q 2484 409 2743 651 
Q 3003 894 3003 1313 
Q 3003 1734 2745 1975 
Q 2488 2216 2034 2216 
z
M 1403 2484 
Q 997 2584 770 2862 
Q 544 3141 544 3541 
Q 544 4100 942 4425 
Q 1341 4750 2034 4750 
Q 2731 4750 3128 4425 
Q 3525 4100 3525 3541 
Q 3525 3141 3298 2862 
Q 3072 2584 2669 2484 
Q 3125 2378 3379 2068 
Q 3634 1759 3634 1313 
Q 3634 634 3220 271 
Q 2806 -91 2034 -91 
Q 1263 -91 848 271 
Q 434 634 434 1313 
Q 434 1759 690 2068 
Q 947 2378 1403 2484 
z
M 1172 3481 
Q 1172 3119 1398 2916 
Q 1625 2713 2034 2713 
Q 2441 2713 2670 2916 
Q 2900 3119 2900 3481 
Q 2900 3844 2670 4047 
Q 2441 4250 2034 4250 
Q 1625 4250 1398 4047 
Q 1172 3844 1172 3481 
z
" transform="scale(0.015625)"/>
        </defs>
        <use xlink:href="#DejaVuSans-32" transform="translate(0 0.765625)"/>
        <use xlink:href="#DejaVuSans-38" transform="translate(64.580078 39.046875) scale(0.7)"/>
       </g>
      </g>
     </g>
     <g id="xtick_5">
      <g id="line2d_8">
       <g>
        <use xlink:href="#md328759393" x="231.63278" y="50.594687" style="stroke: #000000; stroke-width: 0.8"/>
       </g>
      </g>
      <g id="text_5">
       <!-- $\mathdefault{2^{10}}$ -->
       <g transform="translate(223.78278 41.515) scale(0.1 -0.1)">
        <defs>
         <path id="DejaVuSans-31" d="M 794 531 
L 1825 531 
L 1825 4091 
L 703 3866 
L 703 4441 
L 1819 4666 
L 2450 4666 
L 2450 531 
L 3481 531 
L 3481 0 
L 794 0 
L 794 531 
z
" transform="scale(0.015625)"/>
         <path id="DejaVuSans-30" d="M 2034 4250 
Q 1547 4250 1301 3770 
Q 1056 3291 1056 2328 
Q 1056 1369 1301 889 
Q 1547 409 2034 409 
Q 2525 409 2770 889 
Q 3016 1369 3016 2328 
Q 3016 3291 2770 3770 
Q 2525 4250 2034 4250 
z
M 2034 4750 
Q 2819 4750 3233 4129 
Q 3647 3509 3647 2328 
Q 3647 1150 3233 529 
Q 2819 -91 2034 -91 
Q 1250 -91 836 529 
Q 422 1150 422 2328 
Q 422 3509 836 4129 
Q 1250 4750 2034 4750 
z
" transform="scale(0.015625)"/>
        </defs>
        <use xlink:href="#DejaVuSans-32" transform="translate(0 0.765625)"/>
        <use xlink:href="#DejaVuSans-31" transform="translate(64.580078 39.046875) scale(0.7)"/>
        <use xlink:href="#DejaVuSans-30" transform="translate(109.116211 39.046875) scale(0.7)"/>
       </g>
      </g>
     </g>
     <g id="xtick_6">
      <g id="line2d_9">
       <g>
        <use xlink:href="#md328759393" x="276.423396" y="50.594687" style="stroke: #000000; stroke-width: 0.8"/>
       </g>
      </g>
      <g id="text_6">
       <!-- $\mathdefault{2^{12}}$ -->
       <g transform="translate(268.573396 41.515) scale(0.1 -0.1)">
        <use xlink:href="#DejaVuSans-32" transform="translate(0 0.765625)"/>
        <use xlink:href="#DejaVuSans-31" transform="translate(64.580078 39.046875) scale(0.7)"/>
        <use xlink:href="#DejaVuSans-32" transform="translate(109.116211 39.046875) scale(0.7)"/>
       </g>
      </g>
     </g>
     <g id="xtick_7">
      <g id="line2d_10">
       <g>
        <use xlink:href="#md328759393" x="321.214012" y="50.594687" style="stroke: #000000; stroke-width: 0.8"/>
       </g>
      </g>
      <g id="text_7">
       <!-- $\mathdefault{2^{14}}$ -->
       <g transform="translate(313.364012 41.515) scale(0.1 -0.1)">
        <use xlink:href="#DejaVuSans-32" transform="translate(0 0.684375)"/>
        <use xlink:href="#DejaVuSans-31" transform="translate(64.580078 38.965625) scale(0.7)"/>
        <use xlink:href="#DejaVuSans-34" transform="translate(109.116211 38.965625) scale(0.7)"/>
       </g>
      </g>
     </g>
     <g id="xtick_8">
      <g id="line2d_11">
       <g>
        <use xlink:href="#md328759393" x="366.004627" y="50.594687" style="stroke: #000000; stroke-width: 0.8"/>
       </g>
      </g>
      <g id="text_8">
       <!-- $\mathdefault{2^{16}}$ -->
       <g transform="translate(358.154627 41.515) scale(0.1 -0.1)">
        <use xlink:href="#DejaVuSans-32" transform="translate(0 0.765625)"/>
        <use xlink:href="#DejaVuSans-31" transform="translate(64.580078 39.046875) scale(0.7)"/>
        <use xlink:href="#DejaVuSans-36" transform="translate(109.116211 39.046875) scale(0.7)"/>
       </g>
      </g>
     </g>
     <g id="xtick_9">
      <g id="line2d_12">
       <g>
        <use xlink:href="#md328759393" x="410.795243" y="50.594687" style="stroke: #000000; stroke-width: 0.8"/>
       </g>
      </g>
      <g id="text_9">
       <!-- $\mathdefault{2^{18}}$ -->
       <g transform="translate(402.945243 41.515) scale(0.1 -0.1)">
        <use xlink:href="#DejaVuSans-32" transform="translate(0 0.765625)"/>
        <use xlink:href="#DejaVuSans-31" transform="translate(64.580078 39.046875) scale(0.7)"/>
        <use xlink:href="#DejaVuSans-38" transform="translate(109.116211 39.046875) scale(0.7)"/>
       </g>
      </g>
     </g>
     <g id="xtick_10">
      <g id="line2d_13">
       <g>
        <use xlink:href="#md328759393" x="455.585859" y="50.594687" style="stroke: #000000; stroke-width: 0.8"/>
       </g>
      </g>
      <g id="text_10">
       <!-- $\mathdefault{2^{20}}$ -->
       <g transform="translate(447.735859 41.515) scale(0.1 -0.1)">
        <use xlink:href="#DejaVuSans-32" transform="translate(0 0.765625)"/>
        <use xlink:href="#DejaVuSans-32" transform="translate(64.580078 39.046875) scale(0.7)"/>
        <use xlink:href="#DejaVuSans-30" transform="translate(109.116211 39.046875) scale(0.7)"/>
       </g>
      </g>
     </g>
     <g id="xtick_11">
      <g id="line2d_14">
       <g>
        <use xlink:href="#md328759393" x="500.376474" y="50.594687" style="stroke: #000000; stroke-width: 0.8"/>
       </g>
      </g>
      <g id="text_11">
       <!-- $\mathdefault{2^{22}}$ -->
       <g transform="translate(492.526474 41.515) scale(0.1 -0.1)">
        <use xlink:href="#DejaVuSans-32" transform="translate(0 0.765625)"/>
        <use xlink:href="#DejaVuSans-32" transform="translate(64.580078 39.046875) scale(0.7)"/>
        <use xlink:href="#DejaVuSans-32" transform="translate(109.116211 39.046875) scale(0.7)"/>
       </g>
      </g>
     </g>
     <g id="xtick_12">
      <g id="line2d_15">
       <g>
        <use xlink:href="#md328759393" x="545.16709" y="50.594687" style="stroke: #000000; stroke-width: 0.8"/>
       </g>
      </g>
      <g id="text_12">
       <!-- $\mathdefault{2^{24}}$ -->
       <g transform="translate(537.31709 41.515) scale(0.1 -0.1)">
        <use xlink:href="#DejaVuSans-32" transform="translate(0 0.765625)"/>
        <use xlink:href="#DejaVuSans-32" transform="translate(64.580078 39.046875) scale(0.7)"/>
        <use xlink:href="#DejaVuSans-34" transform="translate(109.116211 39.046875) scale(0.7)"/>
       </g>
      </g>
     </g>
     <g id="xtick_13">
      <g id="line2d_16">
       <g>
        <use xlink:href="#md328759393" x="589.957706" y="50.594687" style="stroke: #000000; stroke-width: 0.8"/>
       </g>
      </g>
      <g id="text_13">
       <!-- $\mathdefault{2^{26}}$ -->
       <g transform="translate(582.107706 41.515) scale(0.1 -0.1)">
        <use xlink:href="#DejaVuSans-32" transform="translate(0 0.765625)"/>
        <use xlink:href="#DejaVuSans-32" transform="translate(64.580078 39.046875) scale(0.7)"/>
        <use xlink:href="#DejaVuSans-36" transform="translate(109.116211 39.046875) scale(0.7)"/>
       </g>
      </g>
     </g>
     <g id="xtick_14">
      <g id="line2d_17">
       <g>
        <use xlink:href="#md328759393" x="634.748322" y="50.594687" style="stroke: #000000; stroke-width: 0.8"/>
       </g>
      </g>
      <g id="text_14">
       <!-- $\mathdefault{2^{28}}$ -->
       <g transform="translate(626.898322 41.515) scale(0.1 -0.1)">
        <use xlink:href="#DejaVuSans-32" transform="translate(0 0.765625)"/>
        <use xlink:href="#DejaVuSans-32" transform="translate(64.580078 39.046875) scale(0.7)"/>
        <use xlink:href="#DejaVuSans-38" transform="translate(109.116211 39.046875) scale(0.7)"/>
       </g>
      </g>
     </g>
     <g id="text_15">
      <!-- Array length (u32) -->
      <g transform="translate(307.85 29.916562) scale(0.1 -0.1)">
       <defs>
        <path id="DejaVuSans-41" d="M 2188 4044 
L 1331 1722 
L 3047 1722 
L 2188 4044 
z
M 1831 4666 
L 2547 4666 
L 4325 0 
L 3669 0 
L 3244 1197 
L 1141 1197 
L 716 0 
L 50 0 
L 1831 4666 
z
" transform="scale(0.015625)"/>
        <path id="DejaVuSans-72" d="M 2631 2963 
Q 2534 3019 2420 3045 
Q 2306 3072 2169 3072 
Q 1681 3072 1420 2755 
Q 1159 2438 1159 1844 
L 1159 0 
L 581 0 
L 581 3500 
L 1159 3500 
L 1159 2956 
Q 1341 3275 1631 3429 
Q 1922 3584 2338 3584 
Q 2397 3584 2469 3576 
Q 2541 3569 2628 3553 
L 2631 2963 
z
" transform="scale(0.015625)"/>
        <path id="DejaVuSans-61" d="M 2194 1759 
Q 1497 1759 1228 1600 
Q 959 1441 959 1056 
Q 959 750 1161 570 
Q 1363 391 1709 391 
Q 2188 391 2477 730 
Q 2766 1069 2766 1631 
L 2766 1759 
L 2194 1759 
z
M 3341 1997 
L 3341 0 
L 2766 0 
L 2766 531 
Q 2569 213 2275 61 
Q 1981 -91 1556 -91 
Q 1019 -91 701 211 
Q 384 513 384 1019 
Q 384 1609 779 1909 
Q 1175 2209 1959 2209 
L 2766 2209 
L 2766 2266 
Q 2766 2663 2505 2880 
Q 2244 3097 1772 3097 
Q 1472 3097 1187 3025 
Q 903 2953 641 2809 
L 641 3341 
Q 956 3463 1253 3523 
Q 1550 3584 1831 3584 
Q 2591 3584 2966 3190 
Q 3341 2797 3341 1997 
z
" transform="scale(0.015625)"/>
        <path id="DejaVuSans-79" d="M 2059 -325 
Q 1816 -950 1584 -1140 
Q 1353 -1331 966 -1331 
L 506 -1331 
L 506 -850 
L 844 -850 
Q 1081 -850 1212 -737 
Q 1344 -625 1503 -206 
L 1606 56 
L 191 3500 
L 800 3500 
L 1894 763 
L 2988 3500 
L 3597 3500 
L 2059 -325 
z
" transform="scale(0.015625)"/>
        <path id="DejaVuSans-20" transform="scale(0.015625)"/>
        <path id="DejaVuSans-6c" d="M 603 4863 
L 1178 4863 
L 1178 0 
L 603 0 
L 603 4863 
z
" transform="scale(0.015625)"/>
        <path id="DejaVuSans-65" d="M 3597 1894 
L 3597 1613 
L 953 1613 
Q 991 1019 1311 708 
Q 1631 397 2203 397 
Q 2534 397 2845 478 
Q 3156 559 3463 722 
L 3463 178 
Q 3153 47 2828 -22 
Q 2503 -91 2169 -91 
Q 1331 -91 842 396 
Q 353 884 353 1716 
Q 353 2575 817 3079 
Q 1281 3584 2069 3584 
Q 2775 3584 3186 3129 
Q 3597 2675 3597 1894 
z
M 3022 2063 
Q 3016 2534 2758 2815 
Q 2500 3097 2075 3097 
Q 1594 3097 1305 2825 
Q 1016 2553 972 2059 
L 3022 2063 
z
" transform="scale(0.015625)"/>
        <path id="DejaVuSans-6e" d="M 3513 2113 
L 3513 0 
L 2938 0 
L 2938 2094 
Q 2938 2591 2744 2837 
Q 2550 3084 2163 3084 
Q 1697 3084 1428 2787 
Q 1159 2491 1159 1978 
L 1159 0 
L 581 0 
L 581 3500 
L 1159 3500 
L 1159 2956 
Q 1366 3272 1645 3428 
Q 1925 3584 2291 3584 
Q 2894 3584 3203 3211 
Q 3513 2838 3513 2113 
z
" transform="scale(0.015625)"/>
        <path id="DejaVuSans-67" d="M 2906 1791 
Q 2906 2416 2648 2759 
Q 2391 3103 1925 3103 
Q 1463 3103 1205 2759 
Q 947 2416 947 1791 
Q 947 1169 1205 825 
Q 1463 481 1925 481 
Q 2391 481 2648 825 
Q 2906 1169 2906 1791 
z
M 3481 434 
Q 3481 -459 3084 -895 
Q 2688 -1331 1869 -1331 
Q 1566 -1331 1297 -1286 
Q 1028 -1241 775 -1147 
L 775 -588 
Q 1028 -725 1275 -790 
Q 1522 -856 1778 -856 
Q 2344 -856 2625 -561 
Q 2906 -266 2906 331 
L 2906 616 
Q 2728 306 2450 153 
Q 2172 0 1784 0 
Q 1141 0 747 490 
Q 353 981 353 1791 
Q 353 2603 747 3093 
Q 1141 3584 1784 3584 
Q 2172 3584 2450 3431 
Q 2728 3278 2906 2969 
L 2906 3500 
L 3481 3500 
L 3481 434 
z
" transform="scale(0.015625)"/>
        <path id="DejaVuSans-74" d="M 1172 4494 
L 1172 3500 
L 2356 3500 
L 2356 3053 
L 1172 3053 
L 1172 1153 
Q 1172 725 1289 603 
Q 1406 481 1766 481 
L 2356 481 
L 2356 0 
L 1766 0 
Q 1100 0 847 248 
Q 594 497 594 1153 
L 594 3053 
L 172 3053 
L 172 3500 
L 594 3500 
L 594 4494 
L 1172 4494 
z
" transform="scale(0.015625)"/>
        <path id="DejaVuSans-68" d="M 3513 2113 
L 3513 0 
L 2938 0 
L 2938 2094 
Q 2938 2591 2744 2837 
Q 2550 3084 2163 3084 
Q 1697 3084 1428 2787 
Q 1159 2491 1159 1978 
L 1159 0 
L 581 0 
L 581 4863 
L 1159 4863 
L 1159 2956 
Q 1366 3272 1645 3428 
Q 1925 3584 2291 3584 
Q 2894 3584 3203 3211 
Q 3513 2838 3513 2113 
z
" transform="scale(0.015625)"/>
        <path id="DejaVuSans-28" d="M 1984 4856 
Q 1566 4138 1362 3434 
Q 1159 2731 1159 2009 
Q 1159 1288 1364 580 
Q 1569 -128 1984 -844 
L 1484 -844 
Q 1016 -109 783 600 
Q 550 1309 550 2009 
Q 550 2706 781 3412 
Q 1013 4119 1484 4856 
L 1984 4856 
z
" transform="scale(0.015625)"/>
        <path id="DejaVuSans-75" d="M 544 1381 
L 544 3500 
L 1119 3500 
L 1119 1403 
Q 1119 906 1312 657 
Q 1506 409 1894 409 
Q 2359 409 2629 706 
Q 2900 1003 2900 1516 
L 2900 3500 
L 3475 3500 
L 3475 0 
L 2900 0 
L 2900 538 
Q 2691 219 2414 64 
Q 2138 -91 1772 -91 
Q 1169 -91 856 284 
Q 544 659 544 1381 
z
M 1991 3584 
L 1991 3584 
z
" transform="scale(0.015625)"/>
        <path id="DejaVuSans-33" d="M 2597 2516 
Q 3050 2419 3304 2112 
Q 3559 1806 3559 1356 
Q 3559 666 3084 287 
Q 2609 -91 1734 -91 
Q 1441 -91 1130 -33 
Q 819 25 488 141 
L 488 750 
Q 750 597 1062 519 
Q 1375 441 1716 441 
Q 2309 441 2620 675 
Q 2931 909 2931 1356 
Q 2931 1769 2642 2001 
Q 2353 2234 1838 2234 
L 1294 2234 
L 1294 2753 
L 1863 2753 
Q 2328 2753 2575 2939 
Q 2822 3125 2822 3475 
Q 2822 3834 2567 4026 
Q 2313 4219 1838 4219 
Q 1578 4219 1281 4162 
Q 984 4106 628 3988 
L 628 4550 
Q 988 4650 1302 4700 
Q 1616 4750 1894 4750 
Q 2613 4750 3031 4423 
Q 3450 4097 3450 3541 
Q 3450 3153 3228 2886 
Q 3006 2619 2597 2516 
z
" transform="scale(0.015625)"/>
        <path id="DejaVuSans-29" d="M 513 4856 
L 1013 4856 
Q 1481 4119 1714 3412 
Q 1947 2706 1947 2009 
Q 1947 1309 1714 600 
Q 1481 -109 1013 -844 
L 513 -844 
Q 928 -128 1133 580 
Q 1338 1288 1338 2009 
Q 1338 2731 1133 3434 
Q 928 4138 513 4856 
z
" transform="scale(0.015625)"/>
       </defs>
       <use xlink:href="#DejaVuSans-41"/>
       <use xlink:href="#DejaVuSans-72" x="68.408203"/>
       <use xlink:href="#DejaVuSans-72" x="107.771484"/>
       <use xlink:href="#DejaVuSans-61" x="148.884766"/>
       <use xlink:href="#DejaVuSans-79" x="210.164062"/>
       <use xlink:href="#DejaVuSans-20" x="269.34375"/>
       <use xlink:href="#DejaVuSans-6c" x="301.130859"/>
       <use xlink:href="#DejaVuSans-65" x="328.914062"/>
       <use xlink:href="#DejaVuSans-6e" x="390.4375"/>
       <use xlink:href="#DejaVuSans-67" x="453.816406"/>
       <use xlink:href="#DejaVuSans-74" x="517.292969"/>
       <use xlink:href="#DejaVuSans-68" x="556.501953"/>
       <use xlink:href="#DejaVuSans-20" x="619.880859"/>
       <use xlink:href="#DejaVuSans-28" x="651.667969"/>
       <use xlink:href="#DejaVuSans-75" x="690.681641"/>
       <use xlink:href="#DejaVuSans-33" x="754.060547"/>
       <use xlink:href="#DejaVuSans-32" x="817.683594"/>
       <use xlink:href="#DejaVuSans-29" x="881.306641"/>
      </g>
     </g>
    </g>
    <g id="matplotlib.axis_2"/>
    <g id="patch_4">
     <path d="M 46.965625 50.594687 
L 660.765625 50.594687 
" style="fill: none; stroke: #000000; stroke-width: 0.8; stroke-linejoin: miter; stroke-linecap: square"/>
    </g>
   </g>
   <g id="matplotlib.axis_3">
    <g id="xtick_15">
     <g id="line2d_18">
      <path d="M 52.470317 494.114688 
L 52.470317 50.594688 
" clip-path="url(#p7d6e563f17)" style="fill: none; stroke: #b0b0b0; stroke-opacity: 0.4; stroke-width: 0.8; stroke-linecap: square"/>
     </g>
     <g id="line2d_19">
      <defs>
       <path id="mb77fc6061b" d="M 0 0 
L 0 3.5 
" style="stroke: #000000; stroke-width: 0.8"/>
      </defs>
      <g>
       <use xlink:href="#mb77fc6061b" x="52.470317" y="494.114688" style="stroke: #000000; stroke-width: 0.8"/>
      </g>
     </g>
     <g id="text_16">
      <!-- $\mathdefault{2^{4}}$ -->
      <g transform="translate(46.870317 508.713125) scale(0.1 -0.1)">
       <use xlink:href="#DejaVuSans-32" transform="translate(0 0.684375)"/>
       <use xlink:href="#DejaVuSans-34" transform="translate(64.580078 38.965625) scale(0.7)"/>
      </g>
     </g>
    </g>
    <g id="xtick_16">
     <g id="line2d_20">
      <path d="M 97.260933 494.114688 
L 97.260933 50.594688 
" clip-path="url(#p7d6e563f17)" style="fill: none; stroke: #b0b0b0; stroke-opacity: 0.4; stroke-width: 0.8; stroke-linecap: square"/>
     </g>
     <g id="line2d_21">
      <g>
       <use xlink:href="#mb77fc6061b" x="97.260933" y="494.114688" style="stroke: #000000; stroke-width: 0.8"/>
      </g>
     </g>
     <g id="text_17">
      <!-- $\mathdefault{2^{6}}$ -->
      <g transform="translate(91.660933 508.713125) scale(0.1 -0.1)">
       <use xlink:href="#DejaVuSans-32" transform="translate(0 0.765625)"/>
       <use xlink:href="#DejaVuSans-36" transform="translate(64.580078 39.046875) scale(0.7)"/>
      </g>
     </g>
    </g>
    <g id="xtick_17">
     <g id="line2d_22">
      <path d="M 142.051549 494.114688 
L 142.051549 50.594688 
" clip-path="url(#p7d6e563f17)" style="fill: none; stroke: #b0b0b0; stroke-opacity: 0.4; stroke-width: 0.8; stroke-linecap: square"/>
     </g>
     <g id="line2d_23">
      <g>
       <use xlink:href="#mb77fc6061b" x="142.051549" y="494.114688" style="stroke: #000000; stroke-width: 0.8"/>
      </g>
     </g>
     <g id="text_18">
      <!-- $\mathdefault{2^{8}}$ -->
      <g transform="translate(136.451549 508.713125) scale(0.1 -0.1)">
       <use xlink:href="#DejaVuSans-32" transform="translate(0 0.765625)"/>
       <use xlink:href="#DejaVuSans-38" transform="translate(64.580078 39.046875) scale(0.7)"/>
      </g>
     </g>
    </g>
    <g id="xtick_18">
     <g id="line2d_24">
      <path d="M 186.842164 494.114688 
L 186.842164 50.594688 
" clip-path="url(#p7d6e563f17)" style="fill: none; stroke: #b0b0b0; stroke-opacity: 0.4; stroke-width: 0.8; stroke-linecap: square"/>
     </g>
     <g id="line2d_25">
      <g>
       <use xlink:href="#mb77fc6061b" x="186.842164" y="494.114688" style="stroke: #000000; stroke-width: 0.8"/>
      </g>
     </g>
     <g id="text_19">
      <!-- $\mathdefault{2^{10}}$ -->
      <g transform="translate(178.992164 508.713125) scale(0.1 -0.1)">
       <use xlink:href="#DejaVuSans-32" transform="translate(0 0.765625)"/>
       <use xlink:href="#DejaVuSans-31" transform="translate(64.580078 39.046875) scale(0.7)"/>
       <use xlink:href="#DejaVuSans-30" transform="translate(109.116211 39.046875) scale(0.7)"/>
      </g>
     </g>
    </g>
    <g id="xtick_19">
     <g id="line2d_26">
      <path d="M 231.63278 494.114688 
L 231.63278 50.594688 
" clip-path="url(#p7d6e563f17)" style="fill: none; stroke: #b0b0b0; stroke-opacity: 0.4; stroke-width: 0.8; stroke-linecap: square"/>
     </g>
     <g id="line2d_27">
      <g>
       <use xlink:href="#mb77fc6061b" x="231.63278" y="494.114688" style="stroke: #000000; stroke-width: 0.8"/>
      </g>
     </g>
     <g id="text_20">
      <!-- $\mathdefault{2^{12}}$ -->
      <g transform="translate(223.78278 508.713125) scale(0.1 -0.1)">
       <use xlink:href="#DejaVuSans-32" transform="translate(0 0.765625)"/>
       <use xlink:href="#DejaVuSans-31" transform="translate(64.580078 39.046875) scale(0.7)"/>
       <use xlink:href="#DejaVuSans-32" transform="translate(109.116211 39.046875) scale(0.7)"/>
      </g>
     </g>
    </g>
    <g id="xtick_20">
     <g id="line2d_28">
      <path d="M 276.423396 494.114688 
L 276.423396 50.594688 
" clip-path="url(#p7d6e563f17)" style="fill: none; stroke: #b0b0b0; stroke-opacity: 0.4; stroke-width: 0.8; stroke-linecap: square"/>
     </g>
     <g id="line2d_29">
      <g>
       <use xlink:href="#mb77fc6061b" x="276.423396" y="494.114688" style="stroke: #000000; stroke-width: 0.8"/>
      </g>
     </g>
     <g id="text_21">
      <!-- $\mathdefault{2^{14}}$ -->
      <g transform="translate(268.573396 508.713125) scale(0.1 -0.1)">
       <use xlink:href="#DejaVuSans-32" transform="translate(0 0.684375)"/>
       <use xlink:href="#DejaVuSans-31" transform="translate(64.580078 38.965625) scale(0.7)"/>
       <use xlink:href="#DejaVuSans-34" transform="translate(109.116211 38.965625) scale(0.7)"/>
      </g>
     </g>
    </g>
    <g id="xtick_21">
     <g id="line2d_30">
      <path d="M 321.214012 494.114688 
L 321.214012 50.594688 
" clip-path="url(#p7d6e563f17)" style="fill: none; stroke: #b0b0b0; stroke-opacity: 0.4; stroke-width: 0.8; stroke-linecap: square"/>
     </g>
     <g id="line2d_31">
      <g>
       <use xlink:href="#mb77fc6061b" x="321.214012" y="494.114688" style="stroke: #000000; stroke-width: 0.8"/>
      </g>
     </g>
     <g id="text_22">
      <!-- $\mathdefault{2^{16}}$ -->
      <g transform="translate(313.364012 508.713125) scale(0.1 -0.1)">
       <use xlink:href="#DejaVuSans-32" transform="translate(0 0.765625)"/>
       <use xlink:href="#DejaVuSans-31" transform="translate(64.580078 39.046875) scale(0.7)"/>
       <use xlink:href="#DejaVuSans-36" transform="translate(109.116211 39.046875) scale(0.7)"/>
      </g>
     </g>
    </g>
    <g id="xtick_22">
     <g id="line2d_32">
      <path d="M 366.004627 494.114688 
L 366.004627 50.594688 
" clip-path="url(#p7d6e563f17)" style="fill: none; stroke: #b0b0b0; stroke-opacity: 0.4; stroke-width: 0.8; stroke-linecap: square"/>
     </g>
     <g id="line2d_33">
      <g>
       <use xlink:href="#mb77fc6061b" x="366.004627" y="494.114688" style="stroke: #000000; stroke-width: 0.8"/>
      </g>
     </g>
     <g id="text_23">
      <!-- $\mathdefault{2^{18}}$ -->
      <g transform="translate(358.154627 508.713125) scale(0.1 -0.1)">
       <use xlink:href="#DejaVuSans-32" transform="translate(0 0.765625)"/>
       <use xlink:href="#DejaVuSans-31" transform="translate(64.580078 39.046875) scale(0.7)"/>
       <use xlink:href="#DejaVuSans-38" transform="translate(109.116211 39.046875) scale(0.7)"/>
      </g>
     </g>
    </g>
    <g id="xtick_23">
     <g id="line2d_34">
      <path d="M 410.795243 494.114688 
L 410.795243 50.594688 
" clip-path="url(#p7d6e563f17)" style="fill: none; stroke: #b0b0b0; stroke-opacity: 0.4; stroke-width: 0.8; stroke-linecap: square"/>
     </g>
     <g id="line2d_35">
      <g>
       <use xlink:href="#mb77fc6061b" x="410.795243" y="494.114688" style="stroke: #000000; stroke-width: 0.8"/>
      </g>
     </g>
     <g id="text_24">
      <!-- $\mathdefault{2^{20}}$ -->
      <g transform="translate(402.945243 508.713125) scale(0.1 -0.1)">
       <use xlink:href="#DejaVuSans-32" transform="translate(0 0.765625)"/>
       <use xlink:href="#DejaVuSans-32" transform="translate(64.580078 39.046875) scale(0.7)"/>
       <use xlink:href="#DejaVuSans-30" transform="translate(109.116211 39.046875) scale(0.7)"/>
      </g>
     </g>
    </g>
    <g id="xtick_24">
     <g id="line2d_36">
      <path d="M 455.585859 494.114688 
L 455.585859 50.594688 
" clip-path="url(#p7d6e563f17)" style="fill: none; stroke: #b0b0b0; stroke-opacity: 0.4; stroke-width: 0.8; stroke-linecap: square"/>
     </g>
     <g id="line2d_37">
      <g>
       <use xlink:href="#mb77fc6061b" x="455.585859" y="494.114688" style="stroke: #000000; stroke-width: 0.8"/>
      </g>
     </g>
     <g id="text_25">
      <!-- $\mathdefault{2^{22}}$ -->
      <g transform="translate(447.735859 508.713125) scale(0.1 -0.1)">
       <use xlink:href="#DejaVuSans-32" transform="translate(0 0.765625)"/>
       <use xlink:href="#DejaVuSans-32" transform="translate(64.580078 39.046875) scale(0.7)"/>
       <use xlink:href="#DejaVuSans-32" transform="translate(109.116211 39.046875) scale(0.7)"/>
      </g>
     </g>
    </g>
    <g id="xtick_25">
     <g id="line2d_38">
      <path d="M 500.376474 494.114688 
L 500.376474 50.594688 
" clip-path="url(#p7d6e563f17)" style="fill: none; stroke: #b0b0b0; stroke-opacity: 0.4; stroke-width: 0.8; stroke-linecap: square"/>
     </g>
     <g id="line2d_39">
      <g>
       <use xlink:href="#mb77fc6061b" x="500.376474" y="494.114688" style="stroke: #000000; stroke-width: 0.8"/>
      </g>
     </g>
     <g id="text_26">
      <!-- $\mathdefault{2^{24}}$ -->
      <g transform="translate(492.526474 508.713125) scale(0.1 -0.1)">
       <use xlink:href="#DejaVuSans-32" transform="translate(0 0.765625)"/>
       <use xlink:href="#DejaVuSans-32" transform="translate(64.580078 39.046875) scale(0.7)"/>
       <use xlink:href="#DejaVuSans-34" transform="translate(109.116211 39.046875) scale(0.7)"/>
      </g>
     </g>
    </g>
    <g id="xtick_26">
     <g id="line2d_40">
      <path d="M 545.16709 494.114688 
L 545.16709 50.594688 
" clip-path="url(#p7d6e563f17)" style="fill: none; stroke: #b0b0b0; stroke-opacity: 0.4; stroke-width: 0.8; stroke-linecap: square"/>
     </g>
     <g id="line2d_41">
      <g>
       <use xlink:href="#mb77fc6061b" x="545.16709" y="494.114688" style="stroke: #000000; stroke-width: 0.8"/>
      </g>
     </g>
     <g id="text_27">
      <!-- $\mathdefault{2^{26}}$ -->
      <g transform="translate(537.31709 508.713125) scale(0.1 -0.1)">
       <use xlink:href="#DejaVuSans-32" transform="translate(0 0.765625)"/>
       <use xlink:href="#DejaVuSans-32" transform="translate(64.580078 39.046875) scale(0.7)"/>
       <use xlink:href="#DejaVuSans-36" transform="translate(109.116211 39.046875) scale(0.7)"/>
      </g>
     </g>
    </g>
    <g id="xtick_27">
     <g id="line2d_42">
      <path d="M 589.957706 494.114688 
L 589.957706 50.594688 
" clip-path="url(#p7d6e563f17)" style="fill: none; stroke: #b0b0b0; stroke-opacity: 0.4; stroke-width: 0.8; stroke-linecap: square"/>
     </g>
     <g id="line2d_43">
      <g>
       <use xlink:href="#mb77fc6061b" x="589.957706" y="494.114688" style="stroke: #000000; stroke-width: 0.8"/>
      </g>
     </g>
     <g id="text_28">
      <!-- $\mathdefault{2^{28}}$ -->
      <g transform="translate(582.107706 508.713125) scale(0.1 -0.1)">
       <use xlink:href="#DejaVuSans-32" transform="translate(0 0.765625)"/>
       <use xlink:href="#DejaVuSans-32" transform="translate(64.580078 39.046875) scale(0.7)"/>
       <use xlink:href="#DejaVuSans-38" transform="translate(109.116211 39.046875) scale(0.7)"/>
      </g>
     </g>
    </g>
    <g id="xtick_28">
     <g id="line2d_44">
      <path d="M 634.748322 494.114688 
L 634.748322 50.594688 
" clip-path="url(#p7d6e563f17)" style="fill: none; stroke: #b0b0b0; stroke-opacity: 0.4; stroke-width: 0.8; stroke-linecap: square"/>
     </g>
     <g id="line2d_45">
      <g>
       <use xlink:href="#mb77fc6061b" x="634.748322" y="494.114688" style="stroke: #000000; stroke-width: 0.8"/>
      </g>
     </g>
     <g id="text_29">
      <!-- $\mathdefault{2^{30}}$ -->
      <g transform="translate(626.898322 508.713125) scale(0.1 -0.1)">
       <use xlink:href="#DejaVuSans-32" transform="translate(0 0.765625)"/>
       <use xlink:href="#DejaVuSans-33" transform="translate(64.580078 39.046875) scale(0.7)"/>
       <use xlink:href="#DejaVuSans-30" transform="translate(109.116211 39.046875) scale(0.7)"/>
      </g>
     </g>
    </g>
    <g id="text_30">
     <!-- Input size (bytes) -->
     <g transform="translate(310.369531 522.39125) scale(0.1 -0.1)">
      <defs>
       <path id="DejaVuSans-49" d="M 628 4666 
L 1259 4666 
L 1259 0 
L 628 0 
L 628 4666 
z
" transform="scale(0.015625)"/>
       <path id="DejaVuSans-70" d="M 1159 525 
L 1159 -1331 
L 581 -1331 
L 581 3500 
L 1159 3500 
L 1159 2969 
Q 1341 3281 1617 3432 
Q 1894 3584 2278 3584 
Q 2916 3584 3314 3078 
Q 3713 2572 3713 1747 
Q 3713 922 3314 415 
Q 2916 -91 2278 -91 
Q 1894 -91 1617 61 
Q 1341 213 1159 525 
z
M 3116 1747 
Q 3116 2381 2855 2742 
Q 2594 3103 2138 3103 
Q 1681 3103 1420 2742 
Q 1159 2381 1159 1747 
Q 1159 1113 1420 752 
Q 1681 391 2138 391 
Q 2594 391 2855 752 
Q 3116 1113 3116 1747 
z
" transform="scale(0.015625)"/>
       <path id="DejaVuSans-73" d="M 2834 3397 
L 2834 2853 
Q 2591 2978 2328 3040 
Q 2066 3103 1784 3103 
Q 1356 3103 1142 2972 
Q 928 2841 928 2578 
Q 928 2378 1081 2264 
Q 1234 2150 1697 2047 
L 1894 2003 
Q 2506 1872 2764 1633 
Q 3022 1394 3022 966 
Q 3022 478 2636 193 
Q 2250 -91 1575 -91 
Q 1294 -91 989 -36 
Q 684 19 347 128 
L 347 722 
Q 666 556 975 473 
Q 1284 391 1588 391 
Q 1994 391 2212 530 
Q 2431 669 2431 922 
Q 2431 1156 2273 1281 
Q 2116 1406 1581 1522 
L 1381 1569 
Q 847 1681 609 1914 
Q 372 2147 372 2553 
Q 372 3047 722 3315 
Q 1072 3584 1716 3584 
Q 2034 3584 2315 3537 
Q 2597 3491 2834 3397 
z
" transform="scale(0.015625)"/>
       <path id="DejaVuSans-69" d="M 603 3500 
L 1178 3500 
L 1178 0 
L 603 0 
L 603 3500 
z
M 603 4863 
L 1178 4863 
L 1178 4134 
L 603 4134 
L 603 4863 
z
" transform="scale(0.015625)"/>
       <path id="DejaVuSans-7a" d="M 353 3500 
L 3084 3500 
L 3084 2975 
L 922 459 
L 3084 459 
L 3084 0 
L 275 0 
L 275 525 
L 2438 3041 
L 353 3041 
L 353 3500 
z
" transform="scale(0.015625)"/>
       <path id="DejaVuSans-62" d="M 3116 1747 
Q 3116 2381 2855 2742 
Q 2594 3103 2138 3103 
Q 1681 3103 1420 2742 
Q 1159 2381 1159 1747 
Q 1159 1113 1420 752 
Q 1681 391 2138 391 
Q 2594 391 2855 752 
Q 3116 1113 3116 1747 
z
M 1159 2969 
Q 1341 3281 1617 3432 
Q 1894 3584 2278 3584 
Q 2916 3584 3314 3078 
Q 3713 2572 3713 1747 
Q 3713 922 3314 415 
Q 2916 -91 2278 -91 
Q 1894 -91 1617 61 
Q 1341 213 1159 525 
L 1159 0 
L 581 0 
L 581 4863 
L 1159 4863 
L 1159 2969 
z
" transform="scale(0.015625)"/>
      </defs>
      <use xlink:href="#DejaVuSans-49"/>
      <use xlink:href="#DejaVuSans-6e" x="29.492188"/>
      <use xlink:href="#DejaVuSans-70" x="92.871094"/>
      <use xlink:href="#DejaVuSans-75" x="156.347656"/>
      <use xlink:href="#DejaVuSans-74" x="219.726562"/>
      <use xlink:href="#DejaVuSans-20" x="258.935547"/>
      <use xlink:href="#DejaVuSans-73" x="290.722656"/>
      <use xlink:href="#DejaVuSans-69" x="342.822266"/>
      <use xlink:href="#DejaVuSans-7a" x="370.605469"/>
      <use xlink:href="#DejaVuSans-65" x="423.095703"/>
      <use xlink:href="#DejaVuSans-20" x="484.619141"/>
      <use xlink:href="#DejaVuSans-28" x="516.40625"/>
      <use xlink:href="#DejaVuSans-62" x="555.419922"/>
      <use xlink:href="#DejaVuSans-79" x="618.896484"/>
      <use xlink:href="#DejaVuSans-74" x="678.076172"/>
      <use xlink:href="#DejaVuSans-65" x="717.285156"/>
      <use xlink:href="#DejaVuSans-73" x="778.808594"/>
      <use xlink:href="#DejaVuSans-29" x="830.908203"/>
     </g>
    </g>
   </g>
   <g id="matplotlib.axis_4">
    <g id="ytick_1">
     <g id="line2d_46">
      <path d="M 46.965625 494.114688 
L 660.765625 494.114688 
" clip-path="url(#p7d6e563f17)" style="fill: none; stroke: #b0b0b0; stroke-opacity: 0.4; stroke-width: 0.8; stroke-linecap: square"/>
     </g>
     <g id="line2d_47">
      <defs>
       <path id="ma62e59695a" d="M 0 0 
L -3.5 0 
" style="stroke: #000000; stroke-width: 0.8"/>
      </defs>
      <g>
       <use xlink:href="#ma62e59695a" x="46.965625" y="494.114688" style="stroke: #000000; stroke-width: 0.8"/>
      </g>
     </g>
     <g id="text_31">
      <!-- 0 -->
      <g transform="translate(33.603125 497.913906) scale(0.1 -0.1)">
       <use xlink:href="#DejaVuSans-30"/>
      </g>
     </g>
    </g>
    <g id="ytick_2">
     <g id="line2d_48">
      <path d="M 46.965625 434.978688 
L 660.765625 434.978688 
" clip-path="url(#p7d6e563f17)" style="fill: none; stroke: #b0b0b0; stroke-opacity: 0.4; stroke-width: 0.8; stroke-linecap: square"/>
     </g>
     <g id="line2d_49">
      <g>
       <use xlink:href="#ma62e59695a" x="46.965625" y="434.978688" style="stroke: #000000; stroke-width: 0.8"/>
      </g>
     </g>
     <g id="text_32">
      <!-- 20 -->
      <g transform="translate(27.240625 438.777906) scale(0.1 -0.1)">
       <use xlink:href="#DejaVuSans-32"/>
       <use xlink:href="#DejaVuSans-30" x="63.623047"/>
      </g>
     </g>
    </g>
    <g id="ytick_3">
     <g id="line2d_50">
      <path d="M 46.965625 375.842688 
L 660.765625 375.842688 
" clip-path="url(#p7d6e563f17)" style="fill: none; stroke: #b0b0b0; stroke-opacity: 0.4; stroke-width: 0.8; stroke-linecap: square"/>
     </g>
     <g id="line2d_51">
      <g>
       <use xlink:href="#ma62e59695a" x="46.965625" y="375.842688" style="stroke: #000000; stroke-width: 0.8"/>
      </g>
     </g>
     <g id="text_33">
      <!-- 40 -->
      <g transform="translate(27.240625 379.641906) scale(0.1 -0.1)">
       <use xlink:href="#DejaVuSans-34"/>
       <use xlink:href="#DejaVuSans-30" x="63.623047"/>
      </g>
     </g>
    </g>
    <g id="ytick_4">
     <g id="line2d_52">
      <path d="M 46.965625 316.706688 
L 660.765625 316.706688 
" clip-path="url(#p7d6e563f17)" style="fill: none; stroke: #b0b0b0; stroke-opacity: 0.4; stroke-width: 0.8; stroke-linecap: square"/>
     </g>
     <g id="line2d_53">
      <g>
       <use xlink:href="#ma62e59695a" x="46.965625" y="316.706688" style="stroke: #000000; stroke-width: 0.8"/>
      </g>
     </g>
     <g id="text_34">
      <!-- 60 -->
      <g transform="translate(27.240625 320.505906) scale(0.1 -0.1)">
       <use xlink:href="#DejaVuSans-36"/>
       <use xlink:href="#DejaVuSans-30" x="63.623047"/>
      </g>
     </g>
    </g>
    <g id="ytick_5">
     <g id="line2d_54">
      <path d="M 46.965625 257.570688 
L 660.765625 257.570688 
" clip-path="url(#p7d6e563f17)" style="fill: none; stroke: #b0b0b0; stroke-opacity: 0.4; stroke-width: 0.8; stroke-linecap: square"/>
     </g>
     <g id="line2d_55">
      <g>
       <use xlink:href="#ma62e59695a" x="46.965625" y="257.570688" style="stroke: #000000; stroke-width: 0.8"/>
      </g>
     </g>
     <g id="text_35">
      <!-- 80 -->
      <g transform="translate(27.240625 261.369906) scale(0.1 -0.1)">
       <use xlink:href="#DejaVuSans-38"/>
       <use xlink:href="#DejaVuSans-30" x="63.623047"/>
      </g>
     </g>
    </g>
    <g id="ytick_6">
     <g id="line2d_56">
      <path d="M 46.965625 198.434688 
L 660.765625 198.434688 
" clip-path="url(#p7d6e563f17)" style="fill: none; stroke: #b0b0b0; stroke-opacity: 0.4; stroke-width: 0.8; stroke-linecap: square"/>
     </g>
     <g id="line2d_57">
      <g>
       <use xlink:href="#ma62e59695a" x="46.965625" y="198.434688" style="stroke: #000000; stroke-width: 0.8"/>
      </g>
     </g>
     <g id="text_36">
      <!-- 100 -->
      <g transform="translate(20.878125 202.233906) scale(0.1 -0.1)">
       <use xlink:href="#DejaVuSans-31"/>
       <use xlink:href="#DejaVuSans-30" x="63.623047"/>
       <use xlink:href="#DejaVuSans-30" x="127.246094"/>
      </g>
     </g>
    </g>
    <g id="ytick_7">
     <g id="line2d_58">
      <path d="M 46.965625 139.298688 
L 660.765625 139.298688 
" clip-path="url(#p7d6e563f17)" style="fill: none; stroke: #b0b0b0; stroke-opacity: 0.4; stroke-width: 0.8; stroke-linecap: square"/>
     </g>
     <g id="line2d_59">
      <g>
       <use xlink:href="#ma62e59695a" x="46.965625" y="139.298688" style="stroke: #000000; stroke-width: 0.8"/>
      </g>
     </g>
     <g id="text_37">
      <!-- 120 -->
      <g transform="translate(20.878125 143.097906) scale(0.1 -0.1)">
       <use xlink:href="#DejaVuSans-31"/>
       <use xlink:href="#DejaVuSans-32" x="63.623047"/>
       <use xlink:href="#DejaVuSans-30" x="127.246094"/>
      </g>
     </g>
    </g>
    <g id="ytick_8">
     <g id="line2d_60">
      <path d="M 46.965625 80.162688 
L 660.765625 80.162688 
" clip-path="url(#p7d6e563f17)" style="fill: none; stroke: #b0b0b0; stroke-opacity: 0.4; stroke-width: 0.8; stroke-linecap: square"/>
     </g>
     <g id="line2d_61">
      <g>
       <use xlink:href="#ma62e59695a" x="46.965625" y="80.162688" style="stroke: #000000; stroke-width: 0.8"/>
      </g>
     </g>
     <g id="text_38">
      <!-- 140 -->
      <g transform="translate(20.878125 83.961906) scale(0.1 -0.1)">
       <use xlink:href="#DejaVuSans-31"/>
       <use xlink:href="#DejaVuSans-34" x="63.623047"/>
       <use xlink:href="#DejaVuSans-30" x="127.246094"/>
      </g>
     </g>
    </g>
    <g id="text_39">
     <!-- Inverse throughput (ns) -->
     <g transform="translate(14.798438 331.570313) rotate(-90) scale(0.1 -0.1)">
      <defs>
       <path id="DejaVuSans-76" d="M 191 3500 
L 800 3500 
L 1894 563 
L 2988 3500 
L 3597 3500 
L 2284 0 
L 1503 0 
L 191 3500 
z
" transform="scale(0.015625)"/>
       <path id="DejaVuSans-6f" d="M 1959 3097 
Q 1497 3097 1228 2736 
Q 959 2375 959 1747 
Q 959 1119 1226 758 
Q 1494 397 1959 397 
Q 2419 397 2687 759 
Q 2956 1122 2956 1747 
Q 2956 2369 2687 2733 
Q 2419 3097 1959 3097 
z
M 1959 3584 
Q 2709 3584 3137 3096 
Q 3566 2609 3566 1747 
Q 3566 888 3137 398 
Q 2709 -91 1959 -91 
Q 1206 -91 779 398 
Q 353 888 353 1747 
Q 353 2609 779 3096 
Q 1206 3584 1959 3584 
z
" transform="scale(0.015625)"/>
      </defs>
      <use xlink:href="#DejaVuSans-49"/>
      <use xlink:href="#DejaVuSans-6e" x="29.492188"/>
      <use xlink:href="#DejaVuSans-76" x="92.871094"/>
      <use xlink:href="#DejaVuSans-65" x="152.050781"/>
      <use xlink:href="#DejaVuSans-72" x="213.574219"/>
      <use xlink:href="#DejaVuSans-73" x="254.6875"/>
      <use xlink:href="#DejaVuSans-65" x="306.787109"/>
      <use xlink:href="#DejaVuSans-20" x="368.310547"/>
      <use xlink:href="#DejaVuSans-74" x="400.097656"/>
      <use xlink:href="#DejaVuSans-68" x="439.306641"/>
      <use xlink:href="#DejaVuSans-72" x="502.685547"/>
      <use xlink:href="#DejaVuSans-6f" x="541.548828"/>
      <use xlink:href="#DejaVuSans-75" x="602.730469"/>
      <use xlink:href="#DejaVuSans-67" x="666.109375"/>
      <use xlink:href="#DejaVuSans-68" x="729.585938"/>
      <use xlink:href="#DejaVuSans-70" x="792.964844"/>
      <use xlink:href="#DejaVuSans-75" x="856.441406"/>
      <use xlink:href="#DejaVuSans-74" x="919.820312"/>
      <use xlink:href="#DejaVuSans-20" x="959.029297"/>
      <use xlink:href="#DejaVuSans-28" x="990.816406"/>
      <use xlink:href="#DejaVuSans-6e" x="1029.830078"/>
      <use xlink:href="#DejaVuSans-73" x="1093.208984"/>
      <use xlink:href="#DejaVuSans-29" x="1145.308594"/>
     </g>
    </g>
   </g>
   <g id="line2d_62">
    <path d="M 74.865625 475.501307 
L 79.556398 472.228995 
L 84.411955 472.370326 
L 89.924798 474.096176 
L 94.632688 471.935992 
L 100.156266 468.010511 
L 105.26842 468.218166 
L 110.361348 468.155158 
L 115.341895 468.365207 
L 120.404759 467.983823 
L 125.420521 464.174179 
L 130.491444 463.598722 
L 135.651989 463.386589 
L 140.764143 463.61912 
L 145.857071 458.893817 
L 150.933635 457.973493 
L 155.982591 460.460981 
L 161.056721 459.169832 
L 166.167165 454.94823 
L 171.198957 456.721979 
L 176.303617 454.661046 
L 181.390168 455.26772 
L 186.4613 454.718651 
L 191.532937 450.808057 
L 196.599134 450.015369 
L 201.682827 450.495516 
L 206.745843 450.213495 
L 211.828474 448.771965 
L 216.89834 446.987827 
L 221.967664 448.093562 
L 227.046847 446.721905 
L 232.118177 444.957598 
L 237.191835 442.967564 
L 242.264279 442.323429 
L 247.333903 442.551527 
L 252.410653 442.396784 
L 257.481113 438.944647 
L 262.55469 438.268085 
L 267.626848 441.260253 
L 272.700838 438.64633 
L 277.773245 434.900113 
L 282.847412 436.893449 
L 287.918813 434.853151 
L 292.992191 434.723565 
L 298.065555 435.212392 
L 303.138102 429.303379 
L 308.210573 432.009365 
L 313.283465 429.717589 
L 318.356064 430.254602 
L 323.42881 422.813313 
L 328.501688 421.756988 
L 333.574396 425.16782 
L 338.647337 418.861673 
L 343.720056 413.302396 
L 348.792838 413.797187 
L 353.865608 413.304117 
L 358.938341 412.372465 
L 364.011048 413.888538 
L 369.083792 409.950237 
L 374.156471 409.499911 
L 379.229205 407.994811 
L 384.301927 407.344724 
L 389.374668 397.470615 
L 394.447406 391.655066 
L 399.52014 388.390991 
L 404.592884 388.540113 
L 409.665598 385.487694 
L 414.73835 379.841955 
L 419.811079 376.878673 
L 424.883802 373.815633 
L 429.956533 372.234226 
L 435.029256 359.0764 
L 440.101982 348.277351 
L 445.17471 349.251088 
L 450.247443 354.578221 
L 455.320172 340.602639 
L 460.392898 316.513417 
L 465.465626 323.687176 
L 470.538352 296.699918 
L 475.611079 290.445304 
L 480.683809 267.888653 
L 485.756536 264.108017 
L 490.829264 237.206595 
L 495.901992 258.846114 
L 500.974718 244.727025 
L 506.047445 234.154242 
L 511.120172 235.477095 
L 516.192899 223.367573 
L 521.265626 222.12343 
L 526.338353 193.226947 
L 531.411082 196.306198 
L 536.48381 182.967181 
L 541.556538 181.537268 
L 546.629267 180.326197 
L 551.701993 164.858982 
L 556.774719 158.785603 
L 561.847446 143.647277 
L 566.920173 150.97958 
L 571.992901 124.339014 
L 577.065628 142.217681 
L 582.138356 115.854682 
L 587.211084 110.090874 
L 592.283809 102.642212 
L 597.356535 99.466866 
L 602.429262 143.484732 
L 607.50199 93.506197 
L 612.574716 77.168649 
L 617.647443 79.573035 
L 622.720171 75.460348 
L 627.792898 76.319703 
L 632.865625 54.478538 
" clip-path="url(#p7d6e563f17)" style="fill: none; stroke: #1f77b4; stroke-linecap: square"/>
   </g>
   <g id="line2d_63">
    <path d="M 74.865625 488.461456 
L 79.556398 488.549163 
L 84.411955 489.406712 
L 89.924798 488.751167 
L 94.632688 485.999406 
L 100.156266 489.357556 
L 105.26842 487.340163 
L 110.361348 486.99911 
L 115.341895 488.636305 
L 120.404759 487.037549 
L 125.420521 486.139522 
L 130.491444 486.380727 
L 135.651989 486.327195 
L 140.764143 486.441693 
L 145.857071 485.236577 
L 150.933635 483.050763 
L 155.982591 487.790247 
L 161.056721 487.146157 
L 166.167165 484.284396 
L 171.198957 484.728935 
L 176.303617 484.018726 
L 181.390168 487.464267 
L 186.4613 484.085827 
L 191.532937 484.363689 
L 196.599134 483.063288 
L 201.682827 485.835802 
L 206.745843 487.010867 
L 211.828474 482.584814 
L 216.89834 486.039287 
L 221.967664 486.335009 
L 227.046847 486.555192 
L 232.118177 481.023067 
L 237.191835 480.05214 
L 242.264279 481.627683 
L 247.333903 484.331504 
L 252.410653 482.51703 
L 257.481113 479.33711 
L 262.55469 480.196045 
L 267.626848 479.356619 
L 272.700838 485.109698 
L 277.773245 477.424237 
L 282.847412 483.753655 
L 287.918813 484.152629 
L 292.992191 478.262451 
L 298.065555 481.241914 
L 303.138102 479.194056 
L 308.210573 483.682889 
L 313.283465 482.864843 
L 318.356064 477.992377 
L 323.42881 480.119238 
L 328.501688 476.580398 
L 333.574396 477.751261 
L 338.647337 476.908959 
L 343.720056 477.024408 
L 348.792838 473.651835 
L 353.865608 476.288495 
L 358.938341 477.003123 
L 364.011048 477.999662 
L 369.083792 479.935653 
L 374.156471 472.505459 
L 379.229205 474.660929 
L 384.301927 473.549209 
L 389.374668 472.466997 
L 394.447406 476.398202 
L 399.52014 472.710079 
L 404.592884 470.557895 
L 409.665598 471.80067 
L 414.73835 471.230966 
L 419.811079 467.186241 
L 424.883802 469.293439 
L 429.956533 469.356861 
L 435.029256 467.756899 
L 440.101982 464.686044 
L 445.17471 468.466453 
L 450.247443 461.5073 
L 455.320172 465.299128 
L 460.392898 458.913317 
L 465.465626 458.269109 
L 470.538352 452.59544 
L 475.611079 459.75902 
L 480.683809 456.570597 
L 485.756536 449.65606 
L 490.829264 445.39221 
L 495.901992 447.173318 
L 500.974718 440.81958 
L 506.047445 441.553309 
L 511.120172 441.395041 
L 516.192899 437.302111 
L 521.265626 430.818078 
L 526.338353 433.26802 
L 531.411082 422.644963 
L 536.48381 429.135898 
L 541.556538 421.449287 
L 546.629267 428.097151 
L 551.701993 419.362213 
L 556.774719 416.063621 
L 561.847446 411.127391 
L 566.920173 415.099562 
L 571.992901 403.883629 
L 577.065628 401.917152 
L 582.138356 399.521151 
L 587.211084 401.853075 
L 592.283809 401.565797 
L 597.356535 398.087128 
L 602.429262 395.777804 
L 607.50199 395.730579 
L 612.574716 393.903941 
L 617.647443 385.070638 
L 622.720171 383.056688 
L 627.792898 388.680604 
L 632.865625 382.592442 
" clip-path="url(#p7d6e563f17)" style="fill: none; stroke: #ff7f0e; stroke-linecap: square"/>
   </g>
   <g id="line2d_64">
    <path d="M 74.865625 462.268146 
L 79.556398 462.800601 
L 84.411955 462.933429 
L 89.924798 462.670132 
L 94.632688 463.551883 
L 100.156266 462.711245 
L 105.26842 462.712416 
L 110.361348 463.792308 
L 115.341895 464.445932 
L 120.404759 456.963705 
L 125.420521 457.155843 
L 130.491444 457.073048 
L 135.651989 457.000624 
L 140.764143 457.194013 
L 145.857071 453.266177 
L 150.933635 453.042817 
L 155.982591 453.094517 
L 161.056721 453.235254 
L 166.167165 448.885833 
L 171.198957 449.160367 
L 176.303617 449.196888 
L 181.390168 448.757468 
L 186.4613 450.946128 
L 191.532937 445.197151 
L 196.599134 445.267211 
L 201.682827 445.778496 
L 206.745843 445.189003 
L 211.828474 442.333466 
L 216.89834 441.303841 
L 221.967664 440.947378 
L 227.046847 443.238114 
L 232.118177 436.656813 
L 237.191835 437.075178 
L 242.264279 438.795685 
L 247.333903 438.046667 
L 252.410653 439.300575 
L 257.481113 433.043306 
L 262.55469 433.082835 
L 267.626848 432.579663 
L 272.700838 434.601855 
L 277.773245 428.442531 
L 282.847412 461.422856 
L 287.918813 431.532798 
L 292.992191 430.596071 
L 298.065555 428.902262 
L 303.138102 424.690037 
L 308.210573 424.264804 
L 313.283465 424.44155 
L 318.356064 427.252884 
L 323.42881 420.467868 
L 328.501688 420.484906 
L 333.574396 420.451492 
L 338.647337 420.387163 
L 343.720056 416.164828 
L 348.792838 415.812491 
L 353.865608 414.529764 
L 358.938341 416.32086 
L 364.011048 416.337354 
L 369.083792 410.614787 
L 374.156471 410.266407 
L 379.229205 409.670362 
L 384.301927 410.322352 
L 389.374668 406.479863 
L 394.447406 402.83549 
L 399.52014 401.833282 
L 404.592884 406.648272 
L 409.665598 400.300347 
L 414.73835 446.128519 
L 419.811079 392.445555 
L 424.883802 393.13495 
L 429.956533 389.444349 
L 435.029256 390.191837 
L 440.101982 386.233248 
L 445.17471 427.32999 
L 450.247443 369.936479 
L 455.320172 360.403606 
L 460.392898 359.478158 
L 465.465626 336.47023 
L 470.538352 316.772577 
L 475.611079 358.434916 
L 480.683809 307.819424 
L 485.756536 290.805269 
L 490.829264 283.606578 
L 495.901992 282.572176 
L 500.974718 290.015678 
L 506.047445 284.658618 
L 511.120172 266.674966 
L 516.192899 267.915832 
L 521.265626 243.253124 
L 526.338353 254.102561 
L 531.411082 242.82997 
L 536.48381 233.76195 
L 541.556538 225.806748 
L 546.629267 235.748301 
L 551.701993 223.717067 
L 556.774719 211.956324 
L 561.847446 211.956318 
L 566.920173 221.095176 
L 571.992901 193.24708 
L 577.065628 202.287511 
L 582.138356 185.431412 
L 587.211084 197.719193 
L 592.283809 188.145523 
L 597.356535 171.520185 
L 602.429262 165.815312 
L 607.50199 171.470607 
L 612.574716 163.16986 
L 617.647443 156.760035 
L 622.720171 155.983954 
L 627.792898 147.6356 
L 632.865625 134.12581 
" clip-path="url(#p7d6e563f17)" style="fill: none; stroke: #2ca02c; stroke-linecap: square"/>
   </g>
   <g id="line2d_65">
    <path d="M 74.865625 485.329169 
L 79.556398 485.712331 
L 84.411955 486.135257 
L 89.924798 487.895719 
L 94.632688 485.99132 
L 100.156266 488.046702 
L 105.26842 485.215138 
L 110.361348 488.458409 
L 115.341895 486.809664 
L 120.404759 487.321035 
L 125.420521 484.354426 
L 130.491444 484.90559 
L 135.651989 483.741455 
L 140.764143 483.843673 
L 145.857071 482.840912 
L 150.933635 482.714388 
L 155.982591 487.916948 
L 161.056721 483.748149 
L 166.167165 486.780204 
L 171.198957 482.589933 
L 176.303617 486.659452 
L 181.390168 483.819095 
L 186.4613 483.340651 
L 191.532937 485.759941 
L 196.599134 481.529878 
L 201.682827 481.400862 
L 206.745843 482.318195 
L 211.828474 483.583366 
L 216.89834 481.190843 
L 221.967664 485.284071 
L 227.046847 483.986304 
L 232.118177 484.639721 
L 237.191835 484.627521 
L 242.264279 484.303967 
L 247.333903 483.614192 
L 252.410653 480.062623 
L 257.481113 477.304404 
L 262.55469 478.773471 
L 267.626848 483.886223 
L 272.700838 484.335089 
L 277.773245 478.684047 
L 282.847412 481.895952 
L 287.918813 478.885871 
L 292.992191 482.484937 
L 298.065555 480.974177 
L 303.138102 479.140284 
L 308.210573 478.537266 
L 313.283465 480.005946 
L 318.356064 482.468561 
L 323.42881 476.465271 
L 328.501688 474.114553 
L 333.574396 477.015468 
L 338.647337 478.870532 
L 343.720056 476.691554 
L 348.792838 476.990944 
L 353.865608 474.557171 
L 358.938341 477.138558 
L 364.011048 479.777647 
L 369.083792 480.799006 
L 374.156471 472.130569 
L 379.229205 474.825304 
L 384.301927 475.06189 
L 389.374668 474.967932 
L 394.447406 475.227056 
L 399.52014 476.357458 
L 404.592884 475.475006 
L 409.665598 473.584415 
L 414.73835 476.556087 
L 419.811079 469.971812 
L 424.883802 469.430768 
L 429.956533 470.922252 
L 435.029256 471.72123 
L 440.101982 472.289491 
L 445.17471 468.538933 
L 450.247443 471.098262 
L 455.320172 467.194945 
L 460.392898 463.900479 
L 465.465626 467.476871 
L 470.538352 459.66988 
L 475.611079 460.122476 
L 480.683809 465.320863 
L 485.756536 457.138669 
L 490.829264 449.188953 
L 495.901992 453.025229 
L 500.974718 453.017332 
L 506.047445 442.691277 
L 511.120172 447.72958 
L 516.192899 444.045701 
L 521.265626 437.706098 
L 526.338353 440.554536 
L 531.411082 437.466105 
L 536.48381 435.301943 
L 541.556538 427.582937 
L 546.629267 427.158265 
L 551.701993 423.542627 
L 556.774719 423.856129 
L 561.847446 419.606645 
L 566.920173 420.276463 
L 571.992901 413.868979 
L 577.065628 409.416616 
L 582.138356 410.986636 
L 587.211084 412.393248 
L 592.283809 406.774155 
L 597.356535 395.622515 
L 602.429262 402.654754 
L 607.50199 392.23115 
L 612.574716 394.811624 
L 617.647443 384.19749 
L 622.720171 383.995043 
L 627.792898 391.757651 
L 632.865625 390.405713 
" clip-path="url(#p7d6e563f17)" style="fill: none; stroke: #d62728; stroke-linecap: square"/>
   </g>
   <g id="line2d_66"/>
   <g id="line2d_67"/>
   <g id="line2d_68"/>
   <g id="line2d_69"/>
   <g id="line2d_70"/>
   <g id="patch_5">
    <path d="M 46.965625 494.114688 
L 46.965625 50.594688 
" style="fill: none; stroke: #000000; stroke-width: 0.8; stroke-linejoin: miter; stroke-linecap: square"/>
   </g>
   <g id="patch_6">
    <path d="M 660.765625 494.114688 
L 660.765625 50.594688 
" style="fill: none; stroke: #000000; stroke-width: 0.8; stroke-linejoin: miter; stroke-linecap: square"/>
   </g>
   <g id="patch_7">
    <path d="M 46.965625 494.114688 
L 660.765625 494.114688 
" style="fill: none; stroke: #000000; stroke-width: 0.8; stroke-linejoin: miter; stroke-linecap: square"/>
   </g>
   <g id="patch_8">
    <path d="M 46.965625 50.594688 
L 660.765625 50.594688 
" style="fill: none; stroke: #000000; stroke-width: 0.8; stroke-linejoin: miter; stroke-linecap: square"/>
   </g>
   <g id="text_40">
    <!-- L1  -->
    <g style="fill: #ff0000" transform="translate(283.706204 492.035) scale(0.1 -0.1)">
     <defs>
      <path id="DejaVuSans-4c" d="M 628 4666 
L 1259 4666 
L 1259 531 
L 3531 531 
L 3531 0 
L 628 0 
L 628 4666 
z
" transform="scale(0.015625)"/>
     </defs>
     <use xlink:href="#DejaVuSans-4c"/>
     <use xlink:href="#DejaVuSans-31" x="55.712891"/>
     <use xlink:href="#DejaVuSans-20" x="119.335938"/>
    </g>
   </g>
   <g id="text_41">
    <!-- L2  -->
    <g style="fill: #ff0000" transform="translate(373.287435 492.035) scale(0.1 -0.1)">
     <use xlink:href="#DejaVuSans-4c"/>
     <use xlink:href="#DejaVuSans-32" x="55.712891"/>
     <use xlink:href="#DejaVuSans-20" x="119.335938"/>
    </g>
   </g>
   <g id="text_42">
    <!-- L3  -->
    <g style="fill: #ff0000" transform="translate(440.473359 492.035) scale(0.1 -0.1)">
     <use xlink:href="#DejaVuSans-4c"/>
     <use xlink:href="#DejaVuSans-33" x="55.712891"/>
     <use xlink:href="#DejaVuSans-20" x="119.335938"/>
    </g>
   </g>
   <g id="text_43">
    <!-- RAM -->
    <g style="fill: #ff0000" transform="translate(610.848438 492.035) scale(0.1 -0.1)">
     <defs>
      <path id="DejaVuSans-52" d="M 2841 2188 
Q 3044 2119 3236 1894 
Q 3428 1669 3622 1275 
L 4263 0 
L 3584 0 
L 2988 1197 
Q 2756 1666 2539 1819 
Q 2322 1972 1947 1972 
L 1259 1972 
L 1259 0 
L 628 0 
L 628 4666 
L 2053 4666 
Q 2853 4666 3247 4331 
Q 3641 3997 3641 3322 
Q 3641 2881 3436 2590 
Q 3231 2300 2841 2188 
z
M 1259 4147 
L 1259 2491 
L 2053 2491 
Q 2509 2491 2742 2702 
Q 2975 2913 2975 3322 
Q 2975 3731 2742 3939 
Q 2509 4147 2053 4147 
L 1259 4147 
z
" transform="scale(0.015625)"/>
      <path id="DejaVuSans-4d" d="M 628 4666 
L 1569 4666 
L 2759 1491 
L 3956 4666 
L 4897 4666 
L 4897 0 
L 4281 0 
L 4281 4097 
L 3078 897 
L 2444 897 
L 1241 4097 
L 1241 0 
L 628 0 
L 628 4666 
z
" transform="scale(0.015625)"/>
     </defs>
     <use xlink:href="#DejaVuSans-52"/>
     <use xlink:href="#DejaVuSans-41" x="65.482422"/>
     <use xlink:href="#DejaVuSans-4d" x="133.890625"/>
    </g>
   </g>
   <g id="text_44">
    <!-- Single vs. multithreaded search -->
    <g transform="translate(258.689687 16.318125) scale(0.12 -0.12)">
     <defs>
      <path id="DejaVuSans-53" d="M 3425 4513 
L 3425 3897 
Q 3066 4069 2747 4153 
Q 2428 4238 2131 4238 
Q 1616 4238 1336 4038 
Q 1056 3838 1056 3469 
Q 1056 3159 1242 3001 
Q 1428 2844 1947 2747 
L 2328 2669 
Q 3034 2534 3370 2195 
Q 3706 1856 3706 1288 
Q 3706 609 3251 259 
Q 2797 -91 1919 -91 
Q 1588 -91 1214 -16 
Q 841 59 441 206 
L 441 856 
Q 825 641 1194 531 
Q 1563 422 1919 422 
Q 2459 422 2753 634 
Q 3047 847 3047 1241 
Q 3047 1584 2836 1778 
Q 2625 1972 2144 2069 
L 1759 2144 
Q 1053 2284 737 2584 
Q 422 2884 422 3419 
Q 422 4038 858 4394 
Q 1294 4750 2059 4750 
Q 2388 4750 2728 4690 
Q 3069 4631 3425 4513 
z
" transform="scale(0.015625)"/>
      <path id="DejaVuSans-2e" d="M 684 794 
L 1344 794 
L 1344 0 
L 684 0 
L 684 794 
z
" transform="scale(0.015625)"/>
      <path id="DejaVuSans-6d" d="M 3328 2828 
Q 3544 3216 3844 3400 
Q 4144 3584 4550 3584 
Q 5097 3584 5394 3201 
Q 5691 2819 5691 2113 
L 5691 0 
L 5113 0 
L 5113 2094 
Q 5113 2597 4934 2840 
Q 4756 3084 4391 3084 
Q 3944 3084 3684 2787 
Q 3425 2491 3425 1978 
L 3425 0 
L 2847 0 
L 2847 2094 
Q 2847 2600 2669 2842 
Q 2491 3084 2119 3084 
Q 1678 3084 1418 2786 
Q 1159 2488 1159 1978 
L 1159 0 
L 581 0 
L 581 3500 
L 1159 3500 
L 1159 2956 
Q 1356 3278 1631 3431 
Q 1906 3584 2284 3584 
Q 2666 3584 2933 3390 
Q 3200 3197 3328 2828 
z
" transform="scale(0.015625)"/>
      <path id="DejaVuSans-64" d="M 2906 2969 
L 2906 4863 
L 3481 4863 
L 3481 0 
L 2906 0 
L 2906 525 
Q 2725 213 2448 61 
Q 2172 -91 1784 -91 
Q 1150 -91 751 415 
Q 353 922 353 1747 
Q 353 2572 751 3078 
Q 1150 3584 1784 3584 
Q 2172 3584 2448 3432 
Q 2725 3281 2906 2969 
z
M 947 1747 
Q 947 1113 1208 752 
Q 1469 391 1925 391 
Q 2381 391 2643 752 
Q 2906 1113 2906 1747 
Q 2906 2381 2643 2742 
Q 2381 3103 1925 3103 
Q 1469 3103 1208 2742 
Q 947 2381 947 1747 
z
" transform="scale(0.015625)"/>
      <path id="DejaVuSans-63" d="M 3122 3366 
L 3122 2828 
Q 2878 2963 2633 3030 
Q 2388 3097 2138 3097 
Q 1578 3097 1268 2742 
Q 959 2388 959 1747 
Q 959 1106 1268 751 
Q 1578 397 2138 397 
Q 2388 397 2633 464 
Q 2878 531 3122 666 
L 3122 134 
Q 2881 22 2623 -34 
Q 2366 -91 2075 -91 
Q 1284 -91 818 406 
Q 353 903 353 1747 
Q 353 2603 823 3093 
Q 1294 3584 2113 3584 
Q 2378 3584 2631 3529 
Q 2884 3475 3122 3366 
z
" transform="scale(0.015625)"/>
     </defs>
     <use xlink:href="#DejaVuSans-53"/>
     <use xlink:href="#DejaVuSans-69" x="63.476562"/>
     <use xlink:href="#DejaVuSans-6e" x="91.259766"/>
     <use xlink:href="#DejaVuSans-67" x="154.638672"/>
     <use xlink:href="#DejaVuSans-6c" x="218.115234"/>
     <use xlink:href="#DejaVuSans-65" x="245.898438"/>
     <use xlink:href="#DejaVuSans-20" x="307.421875"/>
     <use xlink:href="#DejaVuSans-76" x="339.208984"/>
     <use xlink:href="#DejaVuSans-73" x="398.388672"/>
     <use xlink:href="#DejaVuSans-2e" x="450.488281"/>
     <use xlink:href="#DejaVuSans-20" x="482.275391"/>
     <use xlink:href="#DejaVuSans-6d" x="514.0625"/>
     <use xlink:href="#DejaVuSans-75" x="611.474609"/>
     <use xlink:href="#DejaVuSans-6c" x="674.853516"/>
     <use xlink:href="#DejaVuSans-74" x="702.636719"/>
     <use xlink:href="#DejaVuSans-69" x="741.845703"/>
     <use xlink:href="#DejaVuSans-74" x="769.628906"/>
     <use xlink:href="#DejaVuSans-68" x="808.837891"/>
     <use xlink:href="#DejaVuSans-72" x="872.216797"/>
     <use xlink:href="#DejaVuSans-65" x="911.080078"/>
     <use xlink:href="#DejaVuSans-61" x="972.603516"/>
     <use xlink:href="#DejaVuSans-64" x="1033.882812"/>
     <use xlink:href="#DejaVuSans-65" x="1097.359375"/>
     <use xlink:href="#DejaVuSans-64" x="1158.882812"/>
     <use xlink:href="#DejaVuSans-20" x="1222.359375"/>
     <use xlink:href="#DejaVuSans-73" x="1254.146484"/>
     <use xlink:href="#DejaVuSans-65" x="1306.246094"/>
     <use xlink:href="#DejaVuSans-61" x="1367.769531"/>
     <use xlink:href="#DejaVuSans-72" x="1429.048828"/>
     <use xlink:href="#DejaVuSans-63" x="1467.912109"/>
     <use xlink:href="#DejaVuSans-68" x="1522.892578"/>
    </g>
   </g>
   <g id="legend_1">
    <g id="patch_9">
     <path d="M 53.965625 118.419688 
L 514.90625 118.419688 
Q 516.90625 118.419688 516.90625 116.419688 
L 516.90625 57.594688 
Q 516.90625 55.594688 514.90625 55.594688 
L 53.965625 55.594688 
Q 51.965625 55.594688 51.965625 57.594688 
L 51.965625 116.419688 
Q 51.965625 118.419688 53.965625 118.419688 
L 53.965625 118.419688 
z
" style="fill: none; opacity: 0"/>
    </g>
    <g id="line2d_71">
     <path d="M 55.965625 63.693125 
L 65.965625 63.693125 
L 75.965625 63.693125 
" style="fill: none; stroke: #1f77b4; stroke-width: 1.5; stroke-linecap: square"/>
    </g>
    <g id="text_45">
     <!-- T1: Batched&lt;32, SortedVec, SortedVec::batch_impl_binary_search_branchless&lt;32&gt;&gt; -->
     <g transform="translate(83.965625 67.193125) scale(0.1 -0.1)">
      <defs>
       <path id="DejaVuSans-54" d="M -19 4666 
L 3928 4666 
L 3928 4134 
L 2272 4134 
L 2272 0 
L 1638 0 
L 1638 4134 
L -19 4134 
L -19 4666 
z
" transform="scale(0.015625)"/>
       <path id="DejaVuSans-3a" d="M 750 794 
L 1409 794 
L 1409 0 
L 750 0 
L 750 794 
z
M 750 3309 
L 1409 3309 
L 1409 2516 
L 750 2516 
L 750 3309 
z
" transform="scale(0.015625)"/>
       <path id="DejaVuSans-42" d="M 1259 2228 
L 1259 519 
L 2272 519 
Q 2781 519 3026 730 
Q 3272 941 3272 1375 
Q 3272 1813 3026 2020 
Q 2781 2228 2272 2228 
L 1259 2228 
z
M 1259 4147 
L 1259 2741 
L 2194 2741 
Q 2656 2741 2882 2914 
Q 3109 3088 3109 3444 
Q 3109 3797 2882 3972 
Q 2656 4147 2194 4147 
L 1259 4147 
z
M 628 4666 
L 2241 4666 
Q 2963 4666 3353 4366 
Q 3744 4066 3744 3513 
Q 3744 3084 3544 2831 
Q 3344 2578 2956 2516 
Q 3422 2416 3680 2098 
Q 3938 1781 3938 1306 
Q 3938 681 3513 340 
Q 3088 0 2303 0 
L 628 0 
L 628 4666 
z
" transform="scale(0.015625)"/>
       <path id="DejaVuSans-3c" d="M 4684 3150 
L 1459 2003 
L 4684 863 
L 4684 294 
L 678 1747 
L 678 2266 
L 4684 3719 
L 4684 3150 
z
" transform="scale(0.015625)"/>
       <path id="DejaVuSans-2c" d="M 750 794 
L 1409 794 
L 1409 256 
L 897 -744 
L 494 -744 
L 750 256 
L 750 794 
z
" transform="scale(0.015625)"/>
       <path id="DejaVuSans-56" d="M 1831 0 
L 50 4666 
L 709 4666 
L 2188 738 
L 3669 4666 
L 4325 4666 
L 2547 0 
L 1831 0 
z
" transform="scale(0.015625)"/>
       <path id="DejaVuSans-5f" d="M 3263 -1063 
L 3263 -1509 
L -63 -1509 
L -63 -1063 
L 3263 -1063 
z
" transform="scale(0.015625)"/>
       <path id="DejaVuSans-3e" d="M 678 3150 
L 678 3719 
L 4684 2266 
L 4684 1747 
L 678 294 
L 678 863 
L 3897 2003 
L 678 3150 
z
" transform="scale(0.015625)"/>
      </defs>
      <use xlink:href="#DejaVuSans-54"/>
      <use xlink:href="#DejaVuSans-31" x="61.083984"/>
      <use xlink:href="#DejaVuSans-3a" x="124.707031"/>
      <use xlink:href="#DejaVuSans-20" x="158.398438"/>
      <use xlink:href="#DejaVuSans-42" x="190.185547"/>
      <use xlink:href="#DejaVuSans-61" x="258.789062"/>
      <use xlink:href="#DejaVuSans-74" x="320.068359"/>
      <use xlink:href="#DejaVuSans-63" x="359.277344"/>
      <use xlink:href="#DejaVuSans-68" x="414.257812"/>
      <use xlink:href="#DejaVuSans-65" x="477.636719"/>
      <use xlink:href="#DejaVuSans-64" x="539.160156"/>
      <use xlink:href="#DejaVuSans-3c" x="602.636719"/>
      <use xlink:href="#DejaVuSans-33" x="686.425781"/>
      <use xlink:href="#DejaVuSans-32" x="750.048828"/>
      <use xlink:href="#DejaVuSans-2c" x="813.671875"/>
      <use xlink:href="#DejaVuSans-20" x="845.458984"/>
      <use xlink:href="#DejaVuSans-53" x="877.246094"/>
      <use xlink:href="#DejaVuSans-6f" x="940.722656"/>
      <use xlink:href="#DejaVuSans-72" x="1001.904297"/>
      <use xlink:href="#DejaVuSans-74" x="1043.017578"/>
      <use xlink:href="#DejaVuSans-65" x="1082.226562"/>
      <use xlink:href="#DejaVuSans-64" x="1143.75"/>
      <use xlink:href="#DejaVuSans-56" x="1207.226562"/>
      <use xlink:href="#DejaVuSans-65" x="1267.884766"/>
      <use xlink:href="#DejaVuSans-63" x="1329.408203"/>
      <use xlink:href="#DejaVuSans-2c" x="1384.388672"/>
      <use xlink:href="#DejaVuSans-20" x="1416.175781"/>
      <use xlink:href="#DejaVuSans-53" x="1447.962891"/>
      <use xlink:href="#DejaVuSans-6f" x="1511.439453"/>
      <use xlink:href="#DejaVuSans-72" x="1572.621094"/>
      <use xlink:href="#DejaVuSans-74" x="1613.734375"/>
      <use xlink:href="#DejaVuSans-65" x="1652.943359"/>
      <use xlink:href="#DejaVuSans-64" x="1714.466797"/>
      <use xlink:href="#DejaVuSans-56" x="1777.943359"/>
      <use xlink:href="#DejaVuSans-65" x="1838.601562"/>
      <use xlink:href="#DejaVuSans-63" x="1900.125"/>
      <use xlink:href="#DejaVuSans-3a" x="1955.105469"/>
      <use xlink:href="#DejaVuSans-3a" x="1988.796875"/>
      <use xlink:href="#DejaVuSans-62" x="2022.488281"/>
      <use xlink:href="#DejaVuSans-61" x="2085.964844"/>
      <use xlink:href="#DejaVuSans-74" x="2147.244141"/>
      <use xlink:href="#DejaVuSans-63" x="2186.453125"/>
      <use xlink:href="#DejaVuSans-68" x="2241.433594"/>
      <use xlink:href="#DejaVuSans-5f" x="2304.8125"/>
      <use xlink:href="#DejaVuSans-69" x="2354.8125"/>
      <use xlink:href="#DejaVuSans-6d" x="2382.595703"/>
      <use xlink:href="#DejaVuSans-70" x="2480.007812"/>
      <use xlink:href="#DejaVuSans-6c" x="2543.484375"/>
      <use xlink:href="#DejaVuSans-5f" x="2571.267578"/>
      <use xlink:href="#DejaVuSans-62" x="2621.267578"/>
      <use xlink:href="#DejaVuSans-69" x="2684.744141"/>
      <use xlink:href="#DejaVuSans-6e" x="2712.527344"/>
      <use xlink:href="#DejaVuSans-61" x="2775.90625"/>
      <use xlink:href="#DejaVuSans-72" x="2837.185547"/>
      <use xlink:href="#DejaVuSans-79" x="2878.298828"/>
      <use xlink:href="#DejaVuSans-5f" x="2937.478516"/>
      <use xlink:href="#DejaVuSans-73" x="2987.478516"/>
      <use xlink:href="#DejaVuSans-65" x="3039.578125"/>
      <use xlink:href="#DejaVuSans-61" x="3101.101562"/>
      <use xlink:href="#DejaVuSans-72" x="3162.380859"/>
      <use xlink:href="#DejaVuSans-63" x="3201.244141"/>
      <use xlink:href="#DejaVuSans-68" x="3256.224609"/>
      <use xlink:href="#DejaVuSans-5f" x="3319.603516"/>
      <use xlink:href="#DejaVuSans-62" x="3369.603516"/>
      <use xlink:href="#DejaVuSans-72" x="3433.080078"/>
      <use xlink:href="#DejaVuSans-61" x="3474.193359"/>
      <use xlink:href="#DejaVuSans-6e" x="3535.472656"/>
      <use xlink:href="#DejaVuSans-63" x="3598.851562"/>
      <use xlink:href="#DejaVuSans-68" x="3653.832031"/>
      <use xlink:href="#DejaVuSans-6c" x="3717.210938"/>
      <use xlink:href="#DejaVuSans-65" x="3744.994141"/>
      <use xlink:href="#DejaVuSans-73" x="3806.517578"/>
      <use xlink:href="#DejaVuSans-73" x="3858.617188"/>
      <use xlink:href="#DejaVuSans-3c" x="3910.716797"/>
      <use xlink:href="#DejaVuSans-33" x="3994.505859"/>
      <use xlink:href="#DejaVuSans-32" x="4058.128906"/>
      <use xlink:href="#DejaVuSans-3e" x="4121.751953"/>
      <use xlink:href="#DejaVuSans-3e" x="4205.541016"/>
     </g>
    </g>
    <g id="line2d_72">
     <path d="M 55.965625 78.649375 
L 65.965625 78.649375 
L 75.965625 78.649375 
" style="fill: none; stroke: #ff7f0e; stroke-width: 1.5; stroke-linecap: square"/>
    </g>
    <g id="text_46">
     <!-- T8: Batched&lt;32, SortedVec, SortedVec::batch_impl_binary_search_branchless&lt;32&gt;&gt; -->
     <g transform="translate(83.965625 82.149375) scale(0.1 -0.1)">
      <use xlink:href="#DejaVuSans-54"/>
      <use xlink:href="#DejaVuSans-38" x="61.083984"/>
      <use xlink:href="#DejaVuSans-3a" x="124.707031"/>
      <use xlink:href="#DejaVuSans-20" x="158.398438"/>
      <use xlink:href="#DejaVuSans-42" x="190.185547"/>
      <use xlink:href="#DejaVuSans-61" x="258.789062"/>
      <use xlink:href="#DejaVuSans-74" x="320.068359"/>
      <use xlink:href="#DejaVuSans-63" x="359.277344"/>
      <use xlink:href="#DejaVuSans-68" x="414.257812"/>
      <use xlink:href="#DejaVuSans-65" x="477.636719"/>
      <use xlink:href="#DejaVuSans-64" x="539.160156"/>
      <use xlink:href="#DejaVuSans-3c" x="602.636719"/>
      <use xlink:href="#DejaVuSans-33" x="686.425781"/>
      <use xlink:href="#DejaVuSans-32" x="750.048828"/>
      <use xlink:href="#DejaVuSans-2c" x="813.671875"/>
      <use xlink:href="#DejaVuSans-20" x="845.458984"/>
      <use xlink:href="#DejaVuSans-53" x="877.246094"/>
      <use xlink:href="#DejaVuSans-6f" x="940.722656"/>
      <use xlink:href="#DejaVuSans-72" x="1001.904297"/>
      <use xlink:href="#DejaVuSans-74" x="1043.017578"/>
      <use xlink:href="#DejaVuSans-65" x="1082.226562"/>
      <use xlink:href="#DejaVuSans-64" x="1143.75"/>
      <use xlink:href="#DejaVuSans-56" x="1207.226562"/>
      <use xlink:href="#DejaVuSans-65" x="1267.884766"/>
      <use xlink:href="#DejaVuSans-63" x="1329.408203"/>
      <use xlink:href="#DejaVuSans-2c" x="1384.388672"/>
      <use xlink:href="#DejaVuSans-20" x="1416.175781"/>
      <use xlink:href="#DejaVuSans-53" x="1447.962891"/>
      <use xlink:href="#DejaVuSans-6f" x="1511.439453"/>
      <use xlink:href="#DejaVuSans-72" x="1572.621094"/>
      <use xlink:href="#DejaVuSans-74" x="1613.734375"/>
      <use xlink:href="#DejaVuSans-65" x="1652.943359"/>
      <use xlink:href="#DejaVuSans-64" x="1714.466797"/>
      <use xlink:href="#DejaVuSans-56" x="1777.943359"/>
      <use xlink:href="#DejaVuSans-65" x="1838.601562"/>
      <use xlink:href="#DejaVuSans-63" x="1900.125"/>
      <use xlink:href="#DejaVuSans-3a" x="1955.105469"/>
      <use xlink:href="#DejaVuSans-3a" x="1988.796875"/>
      <use xlink:href="#DejaVuSans-62" x="2022.488281"/>
      <use xlink:href="#DejaVuSans-61" x="2085.964844"/>
      <use xlink:href="#DejaVuSans-74" x="2147.244141"/>
      <use xlink:href="#DejaVuSans-63" x="2186.453125"/>
      <use xlink:href="#DejaVuSans-68" x="2241.433594"/>
      <use xlink:href="#DejaVuSans-5f" x="2304.8125"/>
      <use xlink:href="#DejaVuSans-69" x="2354.8125"/>
      <use xlink:href="#DejaVuSans-6d" x="2382.595703"/>
      <use xlink:href="#DejaVuSans-70" x="2480.007812"/>
      <use xlink:href="#DejaVuSans-6c" x="2543.484375"/>
      <use xlink:href="#DejaVuSans-5f" x="2571.267578"/>
      <use xlink:href="#DejaVuSans-62" x="2621.267578"/>
      <use xlink:href="#DejaVuSans-69" x="2684.744141"/>
      <use xlink:href="#DejaVuSans-6e" x="2712.527344"/>
      <use xlink:href="#DejaVuSans-61" x="2775.90625"/>
      <use xlink:href="#DejaVuSans-72" x="2837.185547"/>
      <use xlink:href="#DejaVuSans-79" x="2878.298828"/>
      <use xlink:href="#DejaVuSans-5f" x="2937.478516"/>
      <use xlink:href="#DejaVuSans-73" x="2987.478516"/>
      <use xlink:href="#DejaVuSans-65" x="3039.578125"/>
      <use xlink:href="#DejaVuSans-61" x="3101.101562"/>
      <use xlink:href="#DejaVuSans-72" x="3162.380859"/>
      <use xlink:href="#DejaVuSans-63" x="3201.244141"/>
      <use xlink:href="#DejaVuSans-68" x="3256.224609"/>
      <use xlink:href="#DejaVuSans-5f" x="3319.603516"/>
      <use xlink:href="#DejaVuSans-62" x="3369.603516"/>
      <use xlink:href="#DejaVuSans-72" x="3433.080078"/>
      <use xlink:href="#DejaVuSans-61" x="3474.193359"/>
      <use xlink:href="#DejaVuSans-6e" x="3535.472656"/>
      <use xlink:href="#DejaVuSans-63" x="3598.851562"/>
      <use xlink:href="#DejaVuSans-68" x="3653.832031"/>
      <use xlink:href="#DejaVuSans-6c" x="3717.210938"/>
      <use xlink:href="#DejaVuSans-65" x="3744.994141"/>
      <use xlink:href="#DejaVuSans-73" x="3806.517578"/>
      <use xlink:href="#DejaVuSans-73" x="3858.617188"/>
      <use xlink:href="#DejaVuSans-3c" x="3910.716797"/>
      <use xlink:href="#DejaVuSans-33" x="3994.505859"/>
      <use xlink:href="#DejaVuSans-32" x="4058.128906"/>
      <use xlink:href="#DejaVuSans-3e" x="4121.751953"/>
      <use xlink:href="#DejaVuSans-3e" x="4205.541016"/>
     </g>
    </g>
    <g id="line2d_73">
     <path d="M 55.965625 93.605625 
L 65.965625 93.605625 
L 75.965625 93.605625 
" style="fill: none; stroke: #2ca02c; stroke-width: 1.5; stroke-linecap: square"/>
    </g>
    <g id="text_47">
     <!-- T1: Batched&lt;16, Eytzinger, Eytzinger::batch_impl_prefetched&lt;16, 4&gt;&gt; -->
     <g transform="translate(83.965625 97.105625) scale(0.1 -0.1)">
      <defs>
       <path id="DejaVuSans-45" d="M 628 4666 
L 3578 4666 
L 3578 4134 
L 1259 4134 
L 1259 2753 
L 3481 2753 
L 3481 2222 
L 1259 2222 
L 1259 531 
L 3634 531 
L 3634 0 
L 628 0 
L 628 4666 
z
" transform="scale(0.015625)"/>
       <path id="DejaVuSans-66" d="M 2375 4863 
L 2375 4384 
L 1825 4384 
Q 1516 4384 1395 4259 
Q 1275 4134 1275 3809 
L 1275 3500 
L 2222 3500 
L 2222 3053 
L 1275 3053 
L 1275 0 
L 697 0 
L 697 3053 
L 147 3053 
L 147 3500 
L 697 3500 
L 697 3744 
Q 697 4328 969 4595 
Q 1241 4863 1831 4863 
L 2375 4863 
z
" transform="scale(0.015625)"/>
      </defs>
      <use xlink:href="#DejaVuSans-54"/>
      <use xlink:href="#DejaVuSans-31" x="61.083984"/>
      <use xlink:href="#DejaVuSans-3a" x="124.707031"/>
      <use xlink:href="#DejaVuSans-20" x="158.398438"/>
      <use xlink:href="#DejaVuSans-42" x="190.185547"/>
      <use xlink:href="#DejaVuSans-61" x="258.789062"/>
      <use xlink:href="#DejaVuSans-74" x="320.068359"/>
      <use xlink:href="#DejaVuSans-63" x="359.277344"/>
      <use xlink:href="#DejaVuSans-68" x="414.257812"/>
      <use xlink:href="#DejaVuSans-65" x="477.636719"/>
      <use xlink:href="#DejaVuSans-64" x="539.160156"/>
      <use xlink:href="#DejaVuSans-3c" x="602.636719"/>
      <use xlink:href="#DejaVuSans-31" x="686.425781"/>
      <use xlink:href="#DejaVuSans-36" x="750.048828"/>
      <use xlink:href="#DejaVuSans-2c" x="813.671875"/>
      <use xlink:href="#DejaVuSans-20" x="845.458984"/>
      <use xlink:href="#DejaVuSans-45" x="877.246094"/>
      <use xlink:href="#DejaVuSans-79" x="940.429688"/>
      <use xlink:href="#DejaVuSans-74" x="999.609375"/>
      <use xlink:href="#DejaVuSans-7a" x="1038.818359"/>
      <use xlink:href="#DejaVuSans-69" x="1091.308594"/>
      <use xlink:href="#DejaVuSans-6e" x="1119.091797"/>
      <use xlink:href="#DejaVuSans-67" x="1182.470703"/>
      <use xlink:href="#DejaVuSans-65" x="1245.947266"/>
      <use xlink:href="#DejaVuSans-72" x="1307.470703"/>
      <use xlink:href="#DejaVuSans-2c" x="1348.583984"/>
      <use xlink:href="#DejaVuSans-20" x="1380.371094"/>
      <use xlink:href="#DejaVuSans-45" x="1412.158203"/>
      <use xlink:href="#DejaVuSans-79" x="1475.341797"/>
      <use xlink:href="#DejaVuSans-74" x="1534.521484"/>
      <use xlink:href="#DejaVuSans-7a" x="1573.730469"/>
      <use xlink:href="#DejaVuSans-69" x="1626.220703"/>
      <use xlink:href="#DejaVuSans-6e" x="1654.003906"/>
      <use xlink:href="#DejaVuSans-67" x="1717.382812"/>
      <use xlink:href="#DejaVuSans-65" x="1780.859375"/>
      <use xlink:href="#DejaVuSans-72" x="1842.382812"/>
      <use xlink:href="#DejaVuSans-3a" x="1881.746094"/>
      <use xlink:href="#DejaVuSans-3a" x="1915.4375"/>
      <use xlink:href="#DejaVuSans-62" x="1949.128906"/>
      <use xlink:href="#DejaVuSans-61" x="2012.605469"/>
      <use xlink:href="#DejaVuSans-74" x="2073.884766"/>
      <use xlink:href="#DejaVuSans-63" x="2113.09375"/>
      <use xlink:href="#DejaVuSans-68" x="2168.074219"/>
      <use xlink:href="#DejaVuSans-5f" x="2231.453125"/>
      <use xlink:href="#DejaVuSans-69" x="2281.453125"/>
      <use xlink:href="#DejaVuSans-6d" x="2309.236328"/>
      <use xlink:href="#DejaVuSans-70" x="2406.648438"/>
      <use xlink:href="#DejaVuSans-6c" x="2470.125"/>
      <use xlink:href="#DejaVuSans-5f" x="2497.908203"/>
      <use xlink:href="#DejaVuSans-70" x="2547.908203"/>
      <use xlink:href="#DejaVuSans-72" x="2611.384766"/>
      <use xlink:href="#DejaVuSans-65" x="2650.248047"/>
      <use xlink:href="#DejaVuSans-66" x="2711.771484"/>
      <use xlink:href="#DejaVuSans-65" x="2746.976562"/>
      <use xlink:href="#DejaVuSans-74" x="2808.5"/>
      <use xlink:href="#DejaVuSans-63" x="2847.708984"/>
      <use xlink:href="#DejaVuSans-68" x="2902.689453"/>
      <use xlink:href="#DejaVuSans-65" x="2966.068359"/>
      <use xlink:href="#DejaVuSans-64" x="3027.591797"/>
      <use xlink:href="#DejaVuSans-3c" x="3091.068359"/>
      <use xlink:href="#DejaVuSans-31" x="3174.857422"/>
      <use xlink:href="#DejaVuSans-36" x="3238.480469"/>
      <use xlink:href="#DejaVuSans-2c" x="3302.103516"/>
      <use xlink:href="#DejaVuSans-20" x="3333.890625"/>
      <use xlink:href="#DejaVuSans-34" x="3365.677734"/>
      <use xlink:href="#DejaVuSans-3e" x="3429.300781"/>
      <use xlink:href="#DejaVuSans-3e" x="3513.089844"/>
     </g>
    </g>
    <g id="line2d_74">
     <path d="M 55.965625 108.561875 
L 65.965625 108.561875 
L 75.965625 108.561875 
" style="fill: none; stroke: #d62728; stroke-width: 1.5; stroke-linecap: square"/>
    </g>
    <g id="text_48">
     <!-- T8: Batched&lt;16, Eytzinger, Eytzinger::batch_impl_prefetched&lt;16, 4&gt;&gt; -->
     <g transform="translate(83.965625 112.061875) scale(0.1 -0.1)">
      <use xlink:href="#DejaVuSans-54"/>
      <use xlink:href="#DejaVuSans-38" x="61.083984"/>
      <use xlink:href="#DejaVuSans-3a" x="124.707031"/>
      <use xlink:href="#DejaVuSans-20" x="158.398438"/>
      <use xlink:href="#DejaVuSans-42" x="190.185547"/>
      <use xlink:href="#DejaVuSans-61" x="258.789062"/>
      <use xlink:href="#DejaVuSans-74" x="320.068359"/>
      <use xlink:href="#DejaVuSans-63" x="359.277344"/>
      <use xlink:href="#DejaVuSans-68" x="414.257812"/>
      <use xlink:href="#DejaVuSans-65" x="477.636719"/>
      <use xlink:href="#DejaVuSans-64" x="539.160156"/>
      <use xlink:href="#DejaVuSans-3c" x="602.636719"/>
      <use xlink:href="#DejaVuSans-31" x="686.425781"/>
      <use xlink:href="#DejaVuSans-36" x="750.048828"/>
      <use xlink:href="#DejaVuSans-2c" x="813.671875"/>
      <use xlink:href="#DejaVuSans-20" x="845.458984"/>
      <use xlink:href="#DejaVuSans-45" x="877.246094"/>
      <use xlink:href="#DejaVuSans-79" x="940.429688"/>
      <use xlink:href="#DejaVuSans-74" x="999.609375"/>
      <use xlink:href="#DejaVuSans-7a" x="1038.818359"/>
      <use xlink:href="#DejaVuSans-69" x="1091.308594"/>
      <use xlink:href="#DejaVuSans-6e" x="1119.091797"/>
      <use xlink:href="#DejaVuSans-67" x="1182.470703"/>
      <use xlink:href="#DejaVuSans-65" x="1245.947266"/>
      <use xlink:href="#DejaVuSans-72" x="1307.470703"/>
      <use xlink:href="#DejaVuSans-2c" x="1348.583984"/>
      <use xlink:href="#DejaVuSans-20" x="1380.371094"/>
      <use xlink:href="#DejaVuSans-45" x="1412.158203"/>
      <use xlink:href="#DejaVuSans-79" x="1475.341797"/>
      <use xlink:href="#DejaVuSans-74" x="1534.521484"/>
      <use xlink:href="#DejaVuSans-7a" x="1573.730469"/>
      <use xlink:href="#DejaVuSans-69" x="1626.220703"/>
      <use xlink:href="#DejaVuSans-6e" x="1654.003906"/>
      <use xlink:href="#DejaVuSans-67" x="1717.382812"/>
      <use xlink:href="#DejaVuSans-65" x="1780.859375"/>
      <use xlink:href="#DejaVuSans-72" x="1842.382812"/>
      <use xlink:href="#DejaVuSans-3a" x="1881.746094"/>
      <use xlink:href="#DejaVuSans-3a" x="1915.4375"/>
      <use xlink:href="#DejaVuSans-62" x="1949.128906"/>
      <use xlink:href="#DejaVuSans-61" x="2012.605469"/>
      <use xlink:href="#DejaVuSans-74" x="2073.884766"/>
      <use xlink:href="#DejaVuSans-63" x="2113.09375"/>
      <use xlink:href="#DejaVuSans-68" x="2168.074219"/>
      <use xlink:href="#DejaVuSans-5f" x="2231.453125"/>
      <use xlink:href="#DejaVuSans-69" x="2281.453125"/>
      <use xlink:href="#DejaVuSans-6d" x="2309.236328"/>
      <use xlink:href="#DejaVuSans-70" x="2406.648438"/>
      <use xlink:href="#DejaVuSans-6c" x="2470.125"/>
      <use xlink:href="#DejaVuSans-5f" x="2497.908203"/>
      <use xlink:href="#DejaVuSans-70" x="2547.908203"/>
      <use xlink:href="#DejaVuSans-72" x="2611.384766"/>
      <use xlink:href="#DejaVuSans-65" x="2650.248047"/>
      <use xlink:href="#DejaVuSans-66" x="2711.771484"/>
      <use xlink:href="#DejaVuSans-65" x="2746.976562"/>
      <use xlink:href="#DejaVuSans-74" x="2808.5"/>
      <use xlink:href="#DejaVuSans-63" x="2847.708984"/>
      <use xlink:href="#DejaVuSans-68" x="2902.689453"/>
      <use xlink:href="#DejaVuSans-65" x="2966.068359"/>
      <use xlink:href="#DejaVuSans-64" x="3027.591797"/>
      <use xlink:href="#DejaVuSans-3c" x="3091.068359"/>
      <use xlink:href="#DejaVuSans-31" x="3174.857422"/>
      <use xlink:href="#DejaVuSans-36" x="3238.480469"/>
      <use xlink:href="#DejaVuSans-2c" x="3302.103516"/>
      <use xlink:href="#DejaVuSans-20" x="3333.890625"/>
      <use xlink:href="#DejaVuSans-34" x="3365.677734"/>
      <use xlink:href="#DejaVuSans-3e" x="3429.300781"/>
      <use xlink:href="#DejaVuSans-3e" x="3513.089844"/>
     </g>
    </g>
   </g>
  </g>
 </g>
 <defs>
  <clipPath id="p7d6e563f17">
   <rect x="46.965625" y="50.594688" width="613.8" height="443.52"/>
  </clipPath>
 </defs>
</svg>
