<?xml version="1.0" encoding="utf-8" standalone="no"?>
<!DOCTYPE svg PUBLIC "-//W3C//DTD SVG 1.1//EN"
  "http://www.w3.org/Graphics/SVG/1.1/DTD/svg11.dtd">
<svg xmlns:xlink="http://www.w3.org/1999/xlink" width="290.42pt" height="216.415312pt" viewBox="0 0 290.42 216.415312" xmlns="http://www.w3.org/2000/svg" version="1.1">
 <metadata>
  <rdf:RDF xmlns:dc="http://purl.org/dc/elements/1.1/" xmlns:cc="http://creativecommons.org/ns#" xmlns:rdf="http://www.w3.org/1999/02/22-rdf-syntax-ns#">
   <cc:Work>
    <dc:type rdf:resource="http://purl.org/dc/dcmitype/StillImage"/>
    <dc:date>2024-03-23T16:05:48.466607</dc:date>
    <dc:format>image/svg+xml</dc:format>
    <dc:creator>
     <cc:Agent>
      <dc:title>Matplotlib v3.8.2, https://matplotlib.org/</dc:title>
     </cc:Agent>
    </dc:creator>
   </cc:Work>
  </rdf:RDF>
 </metadata>
 <defs>
  <style type="text/css">*{stroke-linejoin: round; stroke-linecap: butt}</style>
 </defs>
 <g id="figure_1">
  <g id="patch_1">
   <path d="M 0 216.415312 
L 290.42 216.415312 
L 290.42 0 
L 0 0 
z
" style="fill: #ffffff"/>
  </g>
  <g id="axes_1">
   <g id="patch_2">
    <path d="M 37.7 178.859062 
L 283.22 178.859062 
L 283.22 12.539062 
L 37.7 12.539062 
z
" style="fill: #f8f8f8"/>
   </g>
   <g id="PolyCollection_1">
    <defs>
     <path id="mde45258a4a" d="M 81.986039 -54.262079 
L 81.986039 -54.262079 
L 283.22 -121.986117 
L 283.22 -189.710156 
L 283.22 -189.710156 
L 81.986039 -54.262079 
z
" style="stroke: #808080; stroke-opacity: 0.15"/>
    </defs>
    <g clip-path="url(#pe6d24c76b6)">
     <use xlink:href="#mde45258a4a" x="0" y="216.415312" style="fill: #808080; fill-opacity: 0.15; stroke: #808080; stroke-opacity: 0.15"/>
    </g>
   </g>
   <g id="matplotlib.axis_1">
    <g id="xtick_1">
     <g id="line2d_1">
      <defs>
       <path id="m2c91238334" d="M 0 0 
L 0 3.5 
" style="stroke: #000000; stroke-width: 0.8"/>
      </defs>
      <g>
       <use xlink:href="#m2c91238334" x="81.986039" y="178.859062" style="stroke: #000000; stroke-width: 0.8"/>
      </g>
     </g>
     <g id="text_1">
      <!-- $\mathdefault{10^{4}}$ -->
      <g transform="translate(73.186039 193.4575) scale(0.1 -0.1)">
       <defs>
        <path id="DejaVuSans-31" d="M 794 531 
L 1825 531 
L 1825 4091 
L 703 3866 
L 703 4441 
L 1819 4666 
L 2450 4666 
L 2450 531 
L 3481 531 
L 3481 0 
L 794 0 
L 794 531 
z
" transform="scale(0.015625)"/>
        <path id="DejaVuSans-30" d="M 2034 4250 
Q 1547 4250 1301 3770 
Q 1056 3291 1056 2328 
Q 1056 1369 1301 889 
Q 1547 409 2034 409 
Q 2525 409 2770 889 
Q 3016 1369 3016 2328 
Q 3016 3291 2770 3770 
Q 2525 4250 2034 4250 
z
M 2034 4750 
Q 2819 4750 3233 4129 
Q 3647 3509 3647 2328 
Q 3647 1150 3233 529 
Q 2819 -91 2034 -91 
Q 1250 -91 836 529 
Q 422 1150 422 2328 
Q 422 3509 836 4129 
Q 1250 4750 2034 4750 
z
" transform="scale(0.015625)"/>
        <path id="DejaVuSans-34" d="M 2419 4116 
L 825 1625 
L 2419 1625 
L 2419 4116 
z
M 2253 4666 
L 3047 4666 
L 3047 1625 
L 3713 1625 
L 3713 1100 
L 3047 1100 
L 3047 0 
L 2419 0 
L 2419 1100 
L 313 1100 
L 313 1709 
L 2253 4666 
z
" transform="scale(0.015625)"/>
       </defs>
       <use xlink:href="#DejaVuSans-31" transform="translate(0 0.684375)"/>
       <use xlink:href="#DejaVuSans-30" transform="translate(63.623047 0.684375)"/>
       <use xlink:href="#DejaVuSans-34" transform="translate(128.203125 38.965625) scale(0.7)"/>
      </g>
     </g>
    </g>
    <g id="xtick_2">
     <g id="line2d_2">
      <g>
       <use xlink:href="#m2c91238334" x="145.345038" y="178.859062" style="stroke: #000000; stroke-width: 0.8"/>
      </g>
     </g>
     <g id="text_2">
      <!-- $\mathdefault{10^{5}}$ -->
      <g transform="translate(136.545038 193.4575) scale(0.1 -0.1)">
       <defs>
        <path id="DejaVuSans-35" d="M 691 4666 
L 3169 4666 
L 3169 4134 
L 1269 4134 
L 1269 2991 
Q 1406 3038 1543 3061 
Q 1681 3084 1819 3084 
Q 2600 3084 3056 2656 
Q 3513 2228 3513 1497 
Q 3513 744 3044 326 
Q 2575 -91 1722 -91 
Q 1428 -91 1123 -41 
Q 819 9 494 109 
L 494 744 
Q 775 591 1075 516 
Q 1375 441 1709 441 
Q 2250 441 2565 725 
Q 2881 1009 2881 1497 
Q 2881 1984 2565 2268 
Q 2250 2553 1709 2553 
Q 1456 2553 1204 2497 
Q 953 2441 691 2322 
L 691 4666 
z
" transform="scale(0.015625)"/>
       </defs>
       <use xlink:href="#DejaVuSans-31" transform="translate(0 0.684375)"/>
       <use xlink:href="#DejaVuSans-30" transform="translate(63.623047 0.684375)"/>
       <use xlink:href="#DejaVuSans-35" transform="translate(128.203125 38.965625) scale(0.7)"/>
      </g>
     </g>
    </g>
    <g id="xtick_3">
     <g id="line2d_3">
      <g>
       <use xlink:href="#m2c91238334" x="208.704036" y="178.859062" style="stroke: #000000; stroke-width: 0.8"/>
      </g>
     </g>
     <g id="text_3">
      <!-- $\mathdefault{10^{6}}$ -->
      <g transform="translate(199.904036 193.4575) scale(0.1 -0.1)">
       <defs>
        <path id="DejaVuSans-36" d="M 2113 2584 
Q 1688 2584 1439 2293 
Q 1191 2003 1191 1497 
Q 1191 994 1439 701 
Q 1688 409 2113 409 
Q 2538 409 2786 701 
Q 3034 994 3034 1497 
Q 3034 2003 2786 2293 
Q 2538 2584 2113 2584 
z
M 3366 4563 
L 3366 3988 
Q 3128 4100 2886 4159 
Q 2644 4219 2406 4219 
Q 1781 4219 1451 3797 
Q 1122 3375 1075 2522 
Q 1259 2794 1537 2939 
Q 1816 3084 2150 3084 
Q 2853 3084 3261 2657 
Q 3669 2231 3669 1497 
Q 3669 778 3244 343 
Q 2819 -91 2113 -91 
Q 1303 -91 875 529 
Q 447 1150 447 2328 
Q 447 3434 972 4092 
Q 1497 4750 2381 4750 
Q 2619 4750 2861 4703 
Q 3103 4656 3366 4563 
z
" transform="scale(0.015625)"/>
       </defs>
       <use xlink:href="#DejaVuSans-31" transform="translate(0 0.765625)"/>
       <use xlink:href="#DejaVuSans-30" transform="translate(63.623047 0.765625)"/>
       <use xlink:href="#DejaVuSans-36" transform="translate(128.203125 39.046875) scale(0.7)"/>
      </g>
     </g>
    </g>
    <g id="xtick_4">
     <g id="line2d_4">
      <g>
       <use xlink:href="#m2c91238334" x="272.063034" y="178.859062" style="stroke: #000000; stroke-width: 0.8"/>
      </g>
     </g>
     <g id="text_4">
      <!-- $\mathdefault{10^{7}}$ -->
      <g transform="translate(263.263034 193.4575) scale(0.1 -0.1)">
       <defs>
        <path id="DejaVuSans-37" d="M 525 4666 
L 3525 4666 
L 3525 4397 
L 1831 0 
L 1172 0 
L 2766 4134 
L 525 4134 
L 525 4666 
z
" transform="scale(0.015625)"/>
       </defs>
       <use xlink:href="#DejaVuSans-31" transform="translate(0 0.684375)"/>
       <use xlink:href="#DejaVuSans-30" transform="translate(63.623047 0.684375)"/>
       <use xlink:href="#DejaVuSans-37" transform="translate(128.203125 38.965625) scale(0.7)"/>
      </g>
     </g>
    </g>
    <g id="xtick_5"/>
    <g id="xtick_6"/>
    <g id="xtick_7"/>
    <g id="xtick_8"/>
    <g id="xtick_9"/>
    <g id="xtick_10"/>
    <g id="xtick_11"/>
    <g id="xtick_12"/>
    <g id="xtick_13"/>
    <g id="xtick_14"/>
    <g id="xtick_15"/>
    <g id="xtick_16"/>
    <g id="xtick_17"/>
    <g id="xtick_18"/>
    <g id="xtick_19"/>
    <g id="xtick_20"/>
    <g id="xtick_21"/>
    <g id="xtick_22"/>
    <g id="xtick_23"/>
    <g id="xtick_24"/>
    <g id="xtick_25"/>
    <g id="xtick_26"/>
    <g id="xtick_27"/>
    <g id="xtick_28"/>
    <g id="xtick_29"/>
    <g id="xtick_30"/>
    <g id="xtick_31"/>
    <g id="xtick_32"/>
    <g id="xtick_33"/>
    <g id="xtick_34"/>
    <g id="xtick_35"/>
    <g id="xtick_36"/>
    <g id="text_5">
     <!-- Sequence length [bp] -->
     <g transform="translate(106.429531 207.135625) scale(0.1 -0.1)">
      <defs>
       <path id="DejaVuSans-53" d="M 3425 4513 
L 3425 3897 
Q 3066 4069 2747 4153 
Q 2428 4238 2131 4238 
Q 1616 4238 1336 4038 
Q 1056 3838 1056 3469 
Q 1056 3159 1242 3001 
Q 1428 2844 1947 2747 
L 2328 2669 
Q 3034 2534 3370 2195 
Q 3706 1856 3706 1288 
Q 3706 609 3251 259 
Q 2797 -91 1919 -91 
Q 1588 -91 1214 -16 
Q 841 59 441 206 
L 441 856 
Q 825 641 1194 531 
Q 1563 422 1919 422 
Q 2459 422 2753 634 
Q 3047 847 3047 1241 
Q 3047 1584 2836 1778 
Q 2625 1972 2144 2069 
L 1759 2144 
Q 1053 2284 737 2584 
Q 422 2884 422 3419 
Q 422 4038 858 4394 
Q 1294 4750 2059 4750 
Q 2388 4750 2728 4690 
Q 3069 4631 3425 4513 
z
" transform="scale(0.015625)"/>
       <path id="DejaVuSans-65" d="M 3597 1894 
L 3597 1613 
L 953 1613 
Q 991 1019 1311 708 
Q 1631 397 2203 397 
Q 2534 397 2845 478 
Q 3156 559 3463 722 
L 3463 178 
Q 3153 47 2828 -22 
Q 2503 -91 2169 -91 
Q 1331 -91 842 396 
Q 353 884 353 1716 
Q 353 2575 817 3079 
Q 1281 3584 2069 3584 
Q 2775 3584 3186 3129 
Q 3597 2675 3597 1894 
z
M 3022 2063 
Q 3016 2534 2758 2815 
Q 2500 3097 2075 3097 
Q 1594 3097 1305 2825 
Q 1016 2553 972 2059 
L 3022 2063 
z
" transform="scale(0.015625)"/>
       <path id="DejaVuSans-71" d="M 947 1747 
Q 947 1113 1208 752 
Q 1469 391 1925 391 
Q 2381 391 2643 752 
Q 2906 1113 2906 1747 
Q 2906 2381 2643 2742 
Q 2381 3103 1925 3103 
Q 1469 3103 1208 2742 
Q 947 2381 947 1747 
z
M 2906 525 
Q 2725 213 2448 61 
Q 2172 -91 1784 -91 
Q 1150 -91 751 415 
Q 353 922 353 1747 
Q 353 2572 751 3078 
Q 1150 3584 1784 3584 
Q 2172 3584 2448 3432 
Q 2725 3281 2906 2969 
L 2906 3500 
L 3481 3500 
L 3481 -1331 
L 2906 -1331 
L 2906 525 
z
" transform="scale(0.015625)"/>
       <path id="DejaVuSans-75" d="M 544 1381 
L 544 3500 
L 1119 3500 
L 1119 1403 
Q 1119 906 1312 657 
Q 1506 409 1894 409 
Q 2359 409 2629 706 
Q 2900 1003 2900 1516 
L 2900 3500 
L 3475 3500 
L 3475 0 
L 2900 0 
L 2900 538 
Q 2691 219 2414 64 
Q 2138 -91 1772 -91 
Q 1169 -91 856 284 
Q 544 659 544 1381 
z
M 1991 3584 
L 1991 3584 
z
" transform="scale(0.015625)"/>
       <path id="DejaVuSans-6e" d="M 3513 2113 
L 3513 0 
L 2938 0 
L 2938 2094 
Q 2938 2591 2744 2837 
Q 2550 3084 2163 3084 
Q 1697 3084 1428 2787 
Q 1159 2491 1159 1978 
L 1159 0 
L 581 0 
L 581 3500 
L 1159 3500 
L 1159 2956 
Q 1366 3272 1645 3428 
Q 1925 3584 2291 3584 
Q 2894 3584 3203 3211 
Q 3513 2838 3513 2113 
z
" transform="scale(0.015625)"/>
       <path id="DejaVuSans-63" d="M 3122 3366 
L 3122 2828 
Q 2878 2963 2633 3030 
Q 2388 3097 2138 3097 
Q 1578 3097 1268 2742 
Q 959 2388 959 1747 
Q 959 1106 1268 751 
Q 1578 397 2138 397 
Q 2388 397 2633 464 
Q 2878 531 3122 666 
L 3122 134 
Q 2881 22 2623 -34 
Q 2366 -91 2075 -91 
Q 1284 -91 818 406 
Q 353 903 353 1747 
Q 353 2603 823 3093 
Q 1294 3584 2113 3584 
Q 2378 3584 2631 3529 
Q 2884 3475 3122 3366 
z
" transform="scale(0.015625)"/>
       <path id="DejaVuSans-20" transform="scale(0.015625)"/>
       <path id="DejaVuSans-6c" d="M 603 4863 
L 1178 4863 
L 1178 0 
L 603 0 
L 603 4863 
z
" transform="scale(0.015625)"/>
       <path id="DejaVuSans-67" d="M 2906 1791 
Q 2906 2416 2648 2759 
Q 2391 3103 1925 3103 
Q 1463 3103 1205 2759 
Q 947 2416 947 1791 
Q 947 1169 1205 825 
Q 1463 481 1925 481 
Q 2391 481 2648 825 
Q 2906 1169 2906 1791 
z
M 3481 434 
Q 3481 -459 3084 -895 
Q 2688 -1331 1869 -1331 
Q 1566 -1331 1297 -1286 
Q 1028 -1241 775 -1147 
L 775 -588 
Q 1028 -725 1275 -790 
Q 1522 -856 1778 -856 
Q 2344 -856 2625 -561 
Q 2906 -266 2906 331 
L 2906 616 
Q 2728 306 2450 153 
Q 2172 0 1784 0 
Q 1141 0 747 490 
Q 353 981 353 1791 
Q 353 2603 747 3093 
Q 1141 3584 1784 3584 
Q 2172 3584 2450 3431 
Q 2728 3278 2906 2969 
L 2906 3500 
L 3481 3500 
L 3481 434 
z
" transform="scale(0.015625)"/>
       <path id="DejaVuSans-74" d="M 1172 4494 
L 1172 3500 
L 2356 3500 
L 2356 3053 
L 1172 3053 
L 1172 1153 
Q 1172 725 1289 603 
Q 1406 481 1766 481 
L 2356 481 
L 2356 0 
L 1766 0 
Q 1100 0 847 248 
Q 594 497 594 1153 
L 594 3053 
L 172 3053 
L 172 3500 
L 594 3500 
L 594 4494 
L 1172 4494 
z
" transform="scale(0.015625)"/>
       <path id="DejaVuSans-68" d="M 3513 2113 
L 3513 0 
L 2938 0 
L 2938 2094 
Q 2938 2591 2744 2837 
Q 2550 3084 2163 3084 
Q 1697 3084 1428 2787 
Q 1159 2491 1159 1978 
L 1159 0 
L 581 0 
L 581 4863 
L 1159 4863 
L 1159 2956 
Q 1366 3272 1645 3428 
Q 1925 3584 2291 3584 
Q 2894 3584 3203 3211 
Q 3513 2838 3513 2113 
z
" transform="scale(0.015625)"/>
       <path id="DejaVuSans-5b" d="M 550 4863 
L 1875 4863 
L 1875 4416 
L 1125 4416 
L 1125 -397 
L 1875 -397 
L 1875 -844 
L 550 -844 
L 550 4863 
z
" transform="scale(0.015625)"/>
       <path id="DejaVuSans-62" d="M 3116 1747 
Q 3116 2381 2855 2742 
Q 2594 3103 2138 3103 
Q 1681 3103 1420 2742 
Q 1159 2381 1159 1747 
Q 1159 1113 1420 752 
Q 1681 391 2138 391 
Q 2594 391 2855 752 
Q 3116 1113 3116 1747 
z
M 1159 2969 
Q 1341 3281 1617 3432 
Q 1894 3584 2278 3584 
Q 2916 3584 3314 3078 
Q 3713 2572 3713 1747 
Q 3713 922 3314 415 
Q 2916 -91 2278 -91 
Q 1894 -91 1617 61 
Q 1341 213 1159 525 
L 1159 0 
L 581 0 
L 581 4863 
L 1159 4863 
L 1159 2969 
z
" transform="scale(0.015625)"/>
       <path id="DejaVuSans-70" d="M 1159 525 
L 1159 -1331 
L 581 -1331 
L 581 3500 
L 1159 3500 
L 1159 2969 
Q 1341 3281 1617 3432 
Q 1894 3584 2278 3584 
Q 2916 3584 3314 3078 
Q 3713 2572 3713 1747 
Q 3713 922 3314 415 
Q 2916 -91 2278 -91 
Q 1894 -91 1617 61 
Q 1341 213 1159 525 
z
M 3116 1747 
Q 3116 2381 2855 2742 
Q 2594 3103 2138 3103 
Q 1681 3103 1420 2742 
Q 1159 2381 1159 1747 
Q 1159 1113 1420 752 
Q 1681 391 2138 391 
Q 2594 391 2855 752 
Q 3116 1113 3116 1747 
z
" transform="scale(0.015625)"/>
       <path id="DejaVuSans-5d" d="M 1947 4863 
L 1947 -844 
L 622 -844 
L 622 -397 
L 1369 -397 
L 1369 4416 
L 622 4416 
L 622 4863 
L 1947 4863 
z
" transform="scale(0.015625)"/>
      </defs>
      <use xlink:href="#DejaVuSans-53"/>
      <use xlink:href="#DejaVuSans-65" x="63.476562"/>
      <use xlink:href="#DejaVuSans-71" x="125"/>
      <use xlink:href="#DejaVuSans-75" x="188.476562"/>
      <use xlink:href="#DejaVuSans-65" x="251.855469"/>
      <use xlink:href="#DejaVuSans-6e" x="313.378906"/>
      <use xlink:href="#DejaVuSans-63" x="376.757812"/>
      <use xlink:href="#DejaVuSans-65" x="431.738281"/>
      <use xlink:href="#DejaVuSans-20" x="493.261719"/>
      <use xlink:href="#DejaVuSans-6c" x="525.048828"/>
      <use xlink:href="#DejaVuSans-65" x="552.832031"/>
      <use xlink:href="#DejaVuSans-6e" x="614.355469"/>
      <use xlink:href="#DejaVuSans-67" x="677.734375"/>
      <use xlink:href="#DejaVuSans-74" x="741.210938"/>
      <use xlink:href="#DejaVuSans-68" x="780.419922"/>
      <use xlink:href="#DejaVuSans-20" x="843.798828"/>
      <use xlink:href="#DejaVuSans-5b" x="875.585938"/>
      <use xlink:href="#DejaVuSans-62" x="914.599609"/>
      <use xlink:href="#DejaVuSans-70" x="978.076172"/>
      <use xlink:href="#DejaVuSans-5d" x="1041.552734"/>
     </g>
    </g>
   </g>
   <g id="matplotlib.axis_2">
    <g id="ytick_1">
     <g id="line2d_5">
      <path d="M 37.7 138.345216 
L 283.22 138.345216 
" clip-path="url(#pe6d24c76b6)" style="fill: none; stroke: #ffffff; stroke-width: 0.8; stroke-linecap: square"/>
     </g>
     <g id="line2d_6">
      <defs>
       <path id="mc33340cf46" d="M 0 0 
L -3.5 0 
" style="stroke: #000000; stroke-width: 0.8"/>
      </defs>
      <g>
       <use xlink:href="#mc33340cf46" x="37.7" y="138.345216" style="stroke: #000000; stroke-width: 0.8"/>
      </g>
     </g>
     <g id="text_6">
      <!-- $\mathdefault{10^{-2}}$ -->
      <g transform="translate(7.2 142.144435) scale(0.1 -0.1)">
       <defs>
        <path id="DejaVuSans-2212" d="M 678 2272 
L 4684 2272 
L 4684 1741 
L 678 1741 
L 678 2272 
z
" transform="scale(0.015625)"/>
        <path id="DejaVuSans-32" d="M 1228 531 
L 3431 531 
L 3431 0 
L 469 0 
L 469 531 
Q 828 903 1448 1529 
Q 2069 2156 2228 2338 
Q 2531 2678 2651 2914 
Q 2772 3150 2772 3378 
Q 2772 3750 2511 3984 
Q 2250 4219 1831 4219 
Q 1534 4219 1204 4116 
Q 875 4013 500 3803 
L 500 4441 
Q 881 4594 1212 4672 
Q 1544 4750 1819 4750 
Q 2544 4750 2975 4387 
Q 3406 4025 3406 3419 
Q 3406 3131 3298 2873 
Q 3191 2616 2906 2266 
Q 2828 2175 2409 1742 
Q 1991 1309 1228 531 
z
" transform="scale(0.015625)"/>
       </defs>
       <use xlink:href="#DejaVuSans-31" transform="translate(0 0.765625)"/>
       <use xlink:href="#DejaVuSans-30" transform="translate(63.623047 0.765625)"/>
       <use xlink:href="#DejaVuSans-2212" transform="translate(128.203125 39.046875) scale(0.7)"/>
       <use xlink:href="#DejaVuSans-32" transform="translate(186.855469 39.046875) scale(0.7)"/>
      </g>
     </g>
    </g>
    <g id="ytick_2">
     <g id="line2d_7">
      <path d="M 37.7 95.699062 
L 283.22 95.699062 
" clip-path="url(#pe6d24c76b6)" style="fill: none; stroke: #ffffff; stroke-width: 0.8; stroke-linecap: square"/>
     </g>
     <g id="line2d_8">
      <g>
       <use xlink:href="#mc33340cf46" x="37.7" y="95.699062" style="stroke: #000000; stroke-width: 0.8"/>
      </g>
     </g>
     <g id="text_7">
      <!-- $\mathdefault{10^{0}}$ -->
      <g transform="translate(13.1 99.498281) scale(0.1 -0.1)">
       <use xlink:href="#DejaVuSans-31" transform="translate(0 0.765625)"/>
       <use xlink:href="#DejaVuSans-30" transform="translate(63.623047 0.765625)"/>
       <use xlink:href="#DejaVuSans-30" transform="translate(128.203125 39.046875) scale(0.7)"/>
      </g>
     </g>
    </g>
    <g id="ytick_3">
     <g id="line2d_9">
      <path d="M 37.7 53.052909 
L 283.22 53.052909 
" clip-path="url(#pe6d24c76b6)" style="fill: none; stroke: #ffffff; stroke-width: 0.8; stroke-linecap: square"/>
     </g>
     <g id="line2d_10">
      <g>
       <use xlink:href="#mc33340cf46" x="37.7" y="53.052909" style="stroke: #000000; stroke-width: 0.8"/>
      </g>
     </g>
     <g id="text_8">
      <!-- $\mathdefault{10^{2}}$ -->
      <g transform="translate(13.1 56.852127) scale(0.1 -0.1)">
       <use xlink:href="#DejaVuSans-31" transform="translate(0 0.765625)"/>
       <use xlink:href="#DejaVuSans-30" transform="translate(63.623047 0.765625)"/>
       <use xlink:href="#DejaVuSans-32" transform="translate(128.203125 39.046875) scale(0.7)"/>
      </g>
     </g>
    </g>
    <g id="ytick_4"/>
    <g id="ytick_5"/>
    <g id="ytick_6"/>
    <g id="ytick_7"/>
    <g id="ytick_8"/>
    <g id="ytick_9"/>
    <g id="ytick_10"/>
    <g id="ytick_11"/>
    <g id="ytick_12"/>
    <g id="ytick_13"/>
    <g id="ytick_14"/>
    <g id="ytick_15"/>
    <g id="ytick_16"/>
    <g id="ytick_17"/>
    <g id="ytick_18"/>
    <g id="ytick_19"/>
    <g id="ytick_20"/>
    <g id="ytick_21"/>
    <g id="ytick_22"/>
    <g id="ytick_23"/>
    <g id="ytick_24"/>
    <g id="ytick_25"/>
    <g id="ytick_26"/>
    <g id="ytick_27"/>
    <g id="ytick_28"/>
    <g id="ytick_29"/>
    <g id="ytick_30"/>
    <g id="ytick_31"/>
    <g id="ytick_32"/>
    <g id="ytick_33"/>
    <g id="ytick_34"/>
    <g id="ytick_35"/>
    <g id="ytick_36"/>
    <g id="ytick_37"/>
    <g id="ytick_38"/>
    <g id="ytick_39"/>
    <g id="ytick_40"/>
    <g id="ytick_41"/>
    <g id="ytick_42"/>
    <g id="ytick_43"/>
    <g id="ytick_44"/>
    <g id="ytick_45"/>
    <g id="ytick_46"/>
    <g id="ytick_47"/>
    <g id="ytick_48"/>
    <g id="ytick_49"/>
    <g id="ytick_50"/>
    <g id="ytick_51"/>
    <g id="ytick_52"/>
    <g id="ytick_53"/>
    <g id="ytick_54"/>
    <g id="ytick_55"/>
    <g id="ytick_56"/>
    <g id="ytick_57"/>
    <g id="ytick_58"/>
    <g id="ytick_59"/>
    <g id="ytick_60"/>
    <g id="ytick_61"/>
    <g id="ytick_62"/>
    <g id="ytick_63"/>
    <g id="ytick_64"/>
    <g id="ytick_65"/>
    <g id="text_9">
     <!-- Avg. runtime per alignment [s] -->
     <g transform="translate(9.8 10.459375) scale(0.1 -0.1)">
      <defs>
       <path id="DejaVuSans-41" d="M 2188 4044 
L 1331 1722 
L 3047 1722 
L 2188 4044 
z
M 1831 4666 
L 2547 4666 
L 4325 0 
L 3669 0 
L 3244 1197 
L 1141 1197 
L 716 0 
L 50 0 
L 1831 4666 
z
" transform="scale(0.015625)"/>
       <path id="DejaVuSans-76" d="M 191 3500 
L 800 3500 
L 1894 563 
L 2988 3500 
L 3597 3500 
L 2284 0 
L 1503 0 
L 191 3500 
z
" transform="scale(0.015625)"/>
       <path id="DejaVuSans-2e" d="M 684 794 
L 1344 794 
L 1344 0 
L 684 0 
L 684 794 
z
" transform="scale(0.015625)"/>
       <path id="DejaVuSans-72" d="M 2631 2963 
Q 2534 3019 2420 3045 
Q 2306 3072 2169 3072 
Q 1681 3072 1420 2755 
Q 1159 2438 1159 1844 
L 1159 0 
L 581 0 
L 581 3500 
L 1159 3500 
L 1159 2956 
Q 1341 3275 1631 3429 
Q 1922 3584 2338 3584 
Q 2397 3584 2469 3576 
Q 2541 3569 2628 3553 
L 2631 2963 
z
" transform="scale(0.015625)"/>
       <path id="DejaVuSans-69" d="M 603 3500 
L 1178 3500 
L 1178 0 
L 603 0 
L 603 3500 
z
M 603 4863 
L 1178 4863 
L 1178 4134 
L 603 4134 
L 603 4863 
z
" transform="scale(0.015625)"/>
       <path id="DejaVuSans-6d" d="M 3328 2828 
Q 3544 3216 3844 3400 
Q 4144 3584 4550 3584 
Q 5097 3584 5394 3201 
Q 5691 2819 5691 2113 
L 5691 0 
L 5113 0 
L 5113 2094 
Q 5113 2597 4934 2840 
Q 4756 3084 4391 3084 
Q 3944 3084 3684 2787 
Q 3425 2491 3425 1978 
L 3425 0 
L 2847 0 
L 2847 2094 
Q 2847 2600 2669 2842 
Q 2491 3084 2119 3084 
Q 1678 3084 1418 2786 
Q 1159 2488 1159 1978 
L 1159 0 
L 581 0 
L 581 3500 
L 1159 3500 
L 1159 2956 
Q 1356 3278 1631 3431 
Q 1906 3584 2284 3584 
Q 2666 3584 2933 3390 
Q 3200 3197 3328 2828 
z
" transform="scale(0.015625)"/>
       <path id="DejaVuSans-61" d="M 2194 1759 
Q 1497 1759 1228 1600 
Q 959 1441 959 1056 
Q 959 750 1161 570 
Q 1363 391 1709 391 
Q 2188 391 2477 730 
Q 2766 1069 2766 1631 
L 2766 1759 
L 2194 1759 
z
M 3341 1997 
L 3341 0 
L 2766 0 
L 2766 531 
Q 2569 213 2275 61 
Q 1981 -91 1556 -91 
Q 1019 -91 701 211 
Q 384 513 384 1019 
Q 384 1609 779 1909 
Q 1175 2209 1959 2209 
L 2766 2209 
L 2766 2266 
Q 2766 2663 2505 2880 
Q 2244 3097 1772 3097 
Q 1472 3097 1187 3025 
Q 903 2953 641 2809 
L 641 3341 
Q 956 3463 1253 3523 
Q 1550 3584 1831 3584 
Q 2591 3584 2966 3190 
Q 3341 2797 3341 1997 
z
" transform="scale(0.015625)"/>
       <path id="DejaVuSans-73" d="M 2834 3397 
L 2834 2853 
Q 2591 2978 2328 3040 
Q 2066 3103 1784 3103 
Q 1356 3103 1142 2972 
Q 928 2841 928 2578 
Q 928 2378 1081 2264 
Q 1234 2150 1697 2047 
L 1894 2003 
Q 2506 1872 2764 1633 
Q 3022 1394 3022 966 
Q 3022 478 2636 193 
Q 2250 -91 1575 -91 
Q 1294 -91 989 -36 
Q 684 19 347 128 
L 347 722 
Q 666 556 975 473 
Q 1284 391 1588 391 
Q 1994 391 2212 530 
Q 2431 669 2431 922 
Q 2431 1156 2273 1281 
Q 2116 1406 1581 1522 
L 1381 1569 
Q 847 1681 609 1914 
Q 372 2147 372 2553 
Q 372 3047 722 3315 
Q 1072 3584 1716 3584 
Q 2034 3584 2315 3537 
Q 2597 3491 2834 3397 
z
" transform="scale(0.015625)"/>
      </defs>
      <use xlink:href="#DejaVuSans-41"/>
      <use xlink:href="#DejaVuSans-76" x="62.533203"/>
      <use xlink:href="#DejaVuSans-67" x="121.712891"/>
      <use xlink:href="#DejaVuSans-2e" x="185.189453"/>
      <use xlink:href="#DejaVuSans-20" x="216.976562"/>
      <use xlink:href="#DejaVuSans-72" x="248.763672"/>
      <use xlink:href="#DejaVuSans-75" x="289.876953"/>
      <use xlink:href="#DejaVuSans-6e" x="353.255859"/>
      <use xlink:href="#DejaVuSans-74" x="416.634766"/>
      <use xlink:href="#DejaVuSans-69" x="455.84375"/>
      <use xlink:href="#DejaVuSans-6d" x="483.626953"/>
      <use xlink:href="#DejaVuSans-65" x="581.039062"/>
      <use xlink:href="#DejaVuSans-20" x="642.5625"/>
      <use xlink:href="#DejaVuSans-70" x="674.349609"/>
      <use xlink:href="#DejaVuSans-65" x="737.826172"/>
      <use xlink:href="#DejaVuSans-72" x="799.349609"/>
      <use xlink:href="#DejaVuSans-20" x="840.462891"/>
      <use xlink:href="#DejaVuSans-61" x="872.25"/>
      <use xlink:href="#DejaVuSans-6c" x="933.529297"/>
      <use xlink:href="#DejaVuSans-69" x="961.3125"/>
      <use xlink:href="#DejaVuSans-67" x="989.095703"/>
      <use xlink:href="#DejaVuSans-6e" x="1052.572266"/>
      <use xlink:href="#DejaVuSans-6d" x="1115.951172"/>
      <use xlink:href="#DejaVuSans-65" x="1213.363281"/>
      <use xlink:href="#DejaVuSans-6e" x="1274.886719"/>
      <use xlink:href="#DejaVuSans-74" x="1338.265625"/>
      <use xlink:href="#DejaVuSans-20" x="1377.474609"/>
      <use xlink:href="#DejaVuSans-5b" x="1409.261719"/>
      <use xlink:href="#DejaVuSans-73" x="1448.275391"/>
      <use xlink:href="#DejaVuSans-5d" x="1500.375"/>
     </g>
    </g>
   </g>
   <g id="line2d_11">
    <defs>
     <path id="mc057885734" d="M 0 2 
C 0.530406 2 1.03916 1.789267 1.414214 1.414214 
C 1.789267 1.03916 2 0.530406 2 0 
C 2 -0.530406 1.789267 -1.03916 1.414214 -1.414214 
C 1.03916 -1.789267 0.530406 -2 0 -2 
C -0.530406 -2 -1.03916 -1.789267 -1.414214 -1.414214 
C -1.789267 -1.03916 -2 -0.530406 -2 0 
C -2 0.530406 -1.789267 1.03916 -1.414214 1.414214 
C -1.03916 1.789267 -0.530406 2 0 2 
z
" style="stroke: #de4aff"/>
    </defs>
    <g clip-path="url(#pe6d24c76b6)">
     <use xlink:href="#mc057885734" x="48.856966" y="163.215489" style="fill: #de4aff; stroke: #de4aff"/>
     <use xlink:href="#mc057885734" x="81.986039" y="147.608908" style="fill: #de4aff; stroke: #de4aff"/>
     <use xlink:href="#mc057885734" x="112.215964" y="133.101867" style="fill: #de4aff; stroke: #de4aff"/>
     <use xlink:href="#mc057885734" x="145.345038" y="114.513014" style="fill: #de4aff; stroke: #de4aff"/>
     <use xlink:href="#mc057885734" x="175.574962" y="99.209133" style="fill: #de4aff; stroke: #de4aff"/>
     <use xlink:href="#mc057885734" x="208.704036" y="77.054251" style="fill: #de4aff; stroke: #de4aff"/>
     <use xlink:href="#mc057885734" x="238.933961" y="54.998368" style="fill: #de4aff; stroke: #de4aff"/>
     <use xlink:href="#mc057885734" x="272.063034" y="36.528709" style="fill: #de4aff; stroke: #de4aff"/>
    </g>
   </g>
   <g id="line2d_12">
    <defs>
     <path id="m09d5eb0340" d="M 0 2 
C 0.530406 2 1.03916 1.789267 1.414214 1.414214 
C 1.789267 1.03916 2 0.530406 2 0 
C 2 -0.530406 1.789267 -1.03916 1.414214 -1.414214 
C 1.03916 -1.789267 0.530406 -2 0 -2 
C -0.530406 -2 -1.03916 -1.789267 -1.414214 -1.414214 
C -1.789267 -1.03916 -2 -0.530406 -2 0 
C -2 0.530406 -1.789267 1.03916 -1.414214 1.414214 
C -1.03916 1.789267 -0.530406 2 0 2 
z
" style="stroke: #625aff"/>
    </defs>
    <g clip-path="url(#pe6d24c76b6)">
     <use xlink:href="#m09d5eb0340" x="48.856966" y="183.46148" style="fill: #625aff; stroke: #625aff"/>
     <use xlink:href="#m09d5eb0340" x="81.986039" y="165.797515" style="fill: #625aff; stroke: #625aff"/>
     <use xlink:href="#m09d5eb0340" x="112.215964" y="145.684133" style="fill: #625aff; stroke: #625aff"/>
     <use xlink:href="#m09d5eb0340" x="145.345038" y="123.602032" style="fill: #625aff; stroke: #625aff"/>
     <use xlink:href="#m09d5eb0340" x="175.574962" y="103.487578" style="fill: #625aff; stroke: #625aff"/>
     <use xlink:href="#m09d5eb0340" x="208.704036" y="80.908321" style="fill: #625aff; stroke: #625aff"/>
     <use xlink:href="#m09d5eb0340" x="238.933961" y="60.352939" style="fill: #625aff; stroke: #625aff"/>
     <use xlink:href="#m09d5eb0340" x="272.063034" y="35.610921" style="fill: #625aff; stroke: #625aff"/>
    </g>
   </g>
   <g id="line2d_13">
    <defs>
     <path id="m0e66752c3a" d="M 0 2 
C 0.530406 2 1.03916 1.789267 1.414214 1.414214 
C 1.789267 1.03916 2 0.530406 2 0 
C 2 -0.530406 1.789267 -1.03916 1.414214 -1.414214 
C 1.03916 -1.789267 0.530406 -2 0 -2 
C -0.530406 -2 -1.03916 -1.789267 -1.414214 -1.414214 
C -1.789267 -1.03916 -2 -0.530406 -2 0 
C -2 0.530406 -1.789267 1.03916 -1.414214 1.414214 
C -1.03916 1.789267 -0.530406 2 0 2 
z
" style="stroke: #0f7a10"/>
    </defs>
    <g clip-path="url(#pe6d24c76b6)">
     <use xlink:href="#m0e66752c3a" x="48.856966" y="173.5707" style="fill: #0f7a10; stroke: #0f7a10"/>
     <use xlink:href="#m0e66752c3a" x="81.986039" y="162.153233" style="fill: #0f7a10; stroke: #0f7a10"/>
     <use xlink:href="#m0e66752c3a" x="112.215964" y="151.914632" style="fill: #0f7a10; stroke: #0f7a10"/>
     <use xlink:href="#m0e66752c3a" x="145.345038" y="139.607881" style="fill: #0f7a10; stroke: #0f7a10"/>
     <use xlink:href="#m0e66752c3a" x="175.574962" y="129.104728" style="fill: #0f7a10; stroke: #0f7a10"/>
     <use xlink:href="#m0e66752c3a" x="208.704036" y="116.866711" style="fill: #0f7a10; stroke: #0f7a10"/>
     <use xlink:href="#m0e66752c3a" x="238.933961" y="104.839449" style="fill: #0f7a10; stroke: #0f7a10"/>
     <use xlink:href="#m0e66752c3a" x="272.063034" y="91.790683" style="fill: #0f7a10; stroke: #0f7a10"/>
    </g>
   </g>
   <g id="line2d_14">
    <defs>
     <path id="m6c589503cd" d="M 0 2 
C 0.530406 2 1.03916 1.789267 1.414214 1.414214 
C 1.789267 1.03916 2 0.530406 2 0 
C 2 -0.530406 1.789267 -1.03916 1.414214 -1.414214 
C 1.03916 -1.789267 0.530406 -2 0 -2 
C -0.530406 -2 -1.03916 -1.789267 -1.414214 -1.414214 
C -1.789267 -1.03916 -2 -0.530406 -2 0 
C -2 0.530406 -1.789267 1.03916 -1.414214 1.414214 
C -1.03916 1.789267 -0.530406 2 0 2 
z
" style="stroke: #aa0000"/>
    </defs>
    <g clip-path="url(#pe6d24c76b6)">
     <use xlink:href="#m6c589503cd" x="48.856966" y="183.497028" style="fill: #aa0000; stroke: #aa0000"/>
     <use xlink:href="#m6c589503cd" x="81.986039" y="168.883771" style="fill: #aa0000; stroke: #aa0000"/>
     <use xlink:href="#m6c589503cd" x="112.215964" y="152.364658" style="fill: #aa0000; stroke: #aa0000"/>
     <use xlink:href="#m6c589503cd" x="145.345038" y="132.466321" style="fill: #aa0000; stroke: #aa0000"/>
     <use xlink:href="#m6c589503cd" x="175.574962" y="119.402244" style="fill: #aa0000; stroke: #aa0000"/>
     <use xlink:href="#m6c589503cd" x="208.704036" y="95.359785" style="fill: #aa0000; stroke: #aa0000"/>
     <use xlink:href="#m6c589503cd" x="238.933961" y="71.114776" style="fill: #aa0000; stroke: #aa0000"/>
     <use xlink:href="#m6c589503cd" x="272.063034" y="56.60335" style="fill: #aa0000; stroke: #aa0000"/>
    </g>
   </g>
   <g id="line2d_15">
    <defs>
     <path id="md659f42388" d="M 0 2 
C 0.530406 2 1.03916 1.789267 1.414214 1.414214 
C 1.789267 1.03916 2 0.530406 2 0 
C 2 -0.530406 1.789267 -1.03916 1.414214 -1.414214 
C 1.03916 -1.789267 0.530406 -2 0 -2 
C -0.530406 -2 -1.03916 -1.789267 -1.414214 -1.414214 
C -1.789267 -1.03916 -2 -0.530406 -2 0 
C -2 0.530406 -1.789267 1.03916 -1.414214 1.414214 
C -1.03916 1.789267 -0.530406 2 0 2 
z
" style="stroke: #00aaaa"/>
    </defs>
    <g clip-path="url(#pe6d24c76b6)">
     <use xlink:href="#md659f42388" x="48.856966" y="175.012364" style="fill: #00aaaa; stroke: #00aaaa"/>
     <use xlink:href="#md659f42388" x="81.986039" y="163.048488" style="fill: #00aaaa; stroke: #00aaaa"/>
     <use xlink:href="#md659f42388" x="112.215964" y="153.513781" style="fill: #00aaaa; stroke: #00aaaa"/>
     <use xlink:href="#md659f42388" x="145.345038" y="142.347529" style="fill: #00aaaa; stroke: #00aaaa"/>
     <use xlink:href="#md659f42388" x="175.574962" y="131.776793" style="fill: #00aaaa; stroke: #00aaaa"/>
     <use xlink:href="#md659f42388" x="208.704036" y="117.030472" style="fill: #00aaaa; stroke: #00aaaa"/>
     <use xlink:href="#md659f42388" x="238.933961" y="103.041143" style="fill: #00aaaa; stroke: #00aaaa"/>
     <use xlink:href="#md659f42388" x="272.063034" y="80.273241" style="fill: #00aaaa; stroke: #00aaaa"/>
    </g>
   </g>
   <g id="line2d_16">
    <path d="M 48.856966 167.441696 
L 272.063034 39.115739 
" clip-path="url(#pe6d24c76b6)" style="fill: none; stroke: #de4aff; stroke-width: 0.75; stroke-linecap: square"/>
   </g>
   <g id="line2d_17">
    <path d="M 48.856966 186.708469 
L 272.063034 38.01776 
" clip-path="url(#pe6d24c76b6)" style="fill: none; stroke: #625aff; stroke-width: 0.75; stroke-linecap: square"/>
   </g>
   <g id="line2d_18">
    <path d="M 48.856966 174.520202 
L 272.063034 92.941802 
" clip-path="url(#pe6d24c76b6)" style="fill: none; stroke: #0f7a10; stroke-width: 0.75; stroke-linecap: square"/>
   </g>
   <g id="line2d_19">
    <path d="M 48.856966 187.784878 
L 272.063034 57.138105 
" clip-path="url(#pe6d24c76b6)" style="fill: none; stroke: #aa0000; stroke-width: 0.75; stroke-linecap: square"/>
   </g>
   <g id="line2d_20">
    <path d="M 48.856966 178.599402 
L 272.063034 87.911551 
" clip-path="url(#pe6d24c76b6)" style="fill: none; stroke: #00aaaa; stroke-width: 0.75; stroke-linecap: square"/>
   </g>
   <g id="patch_3">
    <path d="M 37.7 178.859062 
L 283.22 178.859062 
" style="fill: none; stroke: #000000; stroke-width: 0.8; stroke-linejoin: miter; stroke-linecap: square"/>
   </g>
   <g id="text_10">
    <!-- Edlib $\sim n^{1.71}$ -->
    <g style="fill: #de4aff" transform="translate(217.103074 68.314504) rotate(-29.89552) scale(0.1 -0.1)">
     <defs>
      <path id="DejaVuSans-45" d="M 628 4666 
L 3578 4666 
L 3578 4134 
L 1259 4134 
L 1259 2753 
L 3481 2753 
L 3481 2222 
L 1259 2222 
L 1259 531 
L 3634 531 
L 3634 0 
L 628 0 
L 628 4666 
z
" transform="scale(0.015625)"/>
      <path id="DejaVuSans-64" d="M 2906 2969 
L 2906 4863 
L 3481 4863 
L 3481 0 
L 2906 0 
L 2906 525 
Q 2725 213 2448 61 
Q 2172 -91 1784 -91 
Q 1150 -91 751 415 
Q 353 922 353 1747 
Q 353 2572 751 3078 
Q 1150 3584 1784 3584 
Q 2172 3584 2448 3432 
Q 2725 3281 2906 2969 
z
M 947 1747 
Q 947 1113 1208 752 
Q 1469 391 1925 391 
Q 2381 391 2643 752 
Q 2906 1113 2906 1747 
Q 2906 2381 2643 2742 
Q 2381 3103 1925 3103 
Q 1469 3103 1208 2742 
Q 947 2381 947 1747 
z
" transform="scale(0.015625)"/>
      <path id="DejaVuSans-223c" d="M 4684 2556 
L 4684 1997 
Q 4356 1753 4076 1645 
Q 3797 1538 3494 1538 
Q 3150 1538 2694 1722 
Q 2663 1734 2641 1744 
Q 2622 1750 2575 1769 
Q 2091 1959 1797 1959 
Q 1522 1959 1253 1840 
Q 984 1722 678 1459 
L 678 2019 
Q 1006 2263 1286 2370 
Q 1566 2478 1869 2478 
Q 2213 2478 2672 2294 
Q 2706 2278 2722 2272 
Q 2741 2266 2788 2247 
Q 3272 2056 3566 2056 
Q 3834 2056 4098 2173 
Q 4363 2291 4684 2556 
z
" transform="scale(0.015625)"/>
      <path id="DejaVuSans-Oblique-6e" d="M 3566 2113 
L 3156 0 
L 2578 0 
L 2988 2091 
Q 3016 2238 3031 2350 
Q 3047 2463 3047 2528 
Q 3047 2791 2881 2937 
Q 2716 3084 2419 3084 
Q 1956 3084 1622 2776 
Q 1288 2469 1184 1941 
L 800 0 
L 225 0 
L 903 3500 
L 1478 3500 
L 1363 2950 
Q 1603 3253 1940 3418 
Q 2278 3584 2650 3584 
Q 3113 3584 3367 3334 
Q 3622 3084 3622 2631 
Q 3622 2519 3608 2391 
Q 3594 2263 3566 2113 
z
" transform="scale(0.015625)"/>
     </defs>
     <use xlink:href="#DejaVuSans-45" transform="translate(0 0.684375)"/>
     <use xlink:href="#DejaVuSans-64" transform="translate(63.183594 0.684375)"/>
     <use xlink:href="#DejaVuSans-6c" transform="translate(126.660156 0.684375)"/>
     <use xlink:href="#DejaVuSans-69" transform="translate(154.443359 0.684375)"/>
     <use xlink:href="#DejaVuSans-62" transform="translate(182.226562 0.684375)"/>
     <use xlink:href="#DejaVuSans-20" transform="translate(245.703125 0.684375)"/>
     <use xlink:href="#DejaVuSans-223c" transform="translate(296.972656 0.684375)"/>
     <use xlink:href="#DejaVuSans-Oblique-6e" transform="translate(400.244141 0.684375)"/>
     <use xlink:href="#DejaVuSans-31" transform="translate(468.272943 38.965625) scale(0.7)"/>
     <use xlink:href="#DejaVuSans-2e" transform="translate(512.809076 38.965625) scale(0.7)"/>
     <use xlink:href="#DejaVuSans-37" transform="translate(529.635052 38.965625) scale(0.7)"/>
     <use xlink:href="#DejaVuSans-31" transform="translate(574.171185 38.965625) scale(0.7)"/>
    </g>
   </g>
   <g id="text_11">
    <!-- BiWFA $\sim n^{1.98}$ -->
    <g style="fill: #625aff" transform="translate(212.403196 75.261805) rotate(-33.669922) scale(0.1 -0.1)">
     <defs>
      <path id="DejaVuSans-42" d="M 1259 2228 
L 1259 519 
L 2272 519 
Q 2781 519 3026 730 
Q 3272 941 3272 1375 
Q 3272 1813 3026 2020 
Q 2781 2228 2272 2228 
L 1259 2228 
z
M 1259 4147 
L 1259 2741 
L 2194 2741 
Q 2656 2741 2882 2914 
Q 3109 3088 3109 3444 
Q 3109 3797 2882 3972 
Q 2656 4147 2194 4147 
L 1259 4147 
z
M 628 4666 
L 2241 4666 
Q 2963 4666 3353 4366 
Q 3744 4066 3744 3513 
Q 3744 3084 3544 2831 
Q 3344 2578 2956 2516 
Q 3422 2416 3680 2098 
Q 3938 1781 3938 1306 
Q 3938 681 3513 340 
Q 3088 0 2303 0 
L 628 0 
L 628 4666 
z
" transform="scale(0.015625)"/>
      <path id="DejaVuSans-57" d="M 213 4666 
L 850 4666 
L 1831 722 
L 2809 4666 
L 3519 4666 
L 4500 722 
L 5478 4666 
L 6119 4666 
L 4947 0 
L 4153 0 
L 3169 4050 
L 2175 0 
L 1381 0 
L 213 4666 
z
" transform="scale(0.015625)"/>
      <path id="DejaVuSans-46" d="M 628 4666 
L 3309 4666 
L 3309 4134 
L 1259 4134 
L 1259 2759 
L 3109 2759 
L 3109 2228 
L 1259 2228 
L 1259 0 
L 628 0 
L 628 4666 
z
" transform="scale(0.015625)"/>
      <path id="DejaVuSans-39" d="M 703 97 
L 703 672 
Q 941 559 1184 500 
Q 1428 441 1663 441 
Q 2288 441 2617 861 
Q 2947 1281 2994 2138 
Q 2813 1869 2534 1725 
Q 2256 1581 1919 1581 
Q 1219 1581 811 2004 
Q 403 2428 403 3163 
Q 403 3881 828 4315 
Q 1253 4750 1959 4750 
Q 2769 4750 3195 4129 
Q 3622 3509 3622 2328 
Q 3622 1225 3098 567 
Q 2575 -91 1691 -91 
Q 1453 -91 1209 -44 
Q 966 3 703 97 
z
M 1959 2075 
Q 2384 2075 2632 2365 
Q 2881 2656 2881 3163 
Q 2881 3666 2632 3958 
Q 2384 4250 1959 4250 
Q 1534 4250 1286 3958 
Q 1038 3666 1038 3163 
Q 1038 2656 1286 2365 
Q 1534 2075 1959 2075 
z
" transform="scale(0.015625)"/>
      <path id="DejaVuSans-38" d="M 2034 2216 
Q 1584 2216 1326 1975 
Q 1069 1734 1069 1313 
Q 1069 891 1326 650 
Q 1584 409 2034 409 
Q 2484 409 2743 651 
Q 3003 894 3003 1313 
Q 3003 1734 2745 1975 
Q 2488 2216 2034 2216 
z
M 1403 2484 
Q 997 2584 770 2862 
Q 544 3141 544 3541 
Q 544 4100 942 4425 
Q 1341 4750 2034 4750 
Q 2731 4750 3128 4425 
Q 3525 4100 3525 3541 
Q 3525 3141 3298 2862 
Q 3072 2584 2669 2484 
Q 3125 2378 3379 2068 
Q 3634 1759 3634 1313 
Q 3634 634 3220 271 
Q 2806 -91 2034 -91 
Q 1263 -91 848 271 
Q 434 634 434 1313 
Q 434 1759 690 2068 
Q 947 2378 1403 2484 
z
M 1172 3481 
Q 1172 3119 1398 2916 
Q 1625 2713 2034 2713 
Q 2441 2713 2670 2916 
Q 2900 3119 2900 3481 
Q 2900 3844 2670 4047 
Q 2441 4250 2034 4250 
Q 1625 4250 1398 4047 
Q 1172 3844 1172 3481 
z
" transform="scale(0.015625)"/>
     </defs>
     <use xlink:href="#DejaVuSans-42" transform="translate(0 0.765625)"/>
     <use xlink:href="#DejaVuSans-69" transform="translate(68.603516 0.765625)"/>
     <use xlink:href="#DejaVuSans-57" transform="translate(96.386719 0.765625)"/>
     <use xlink:href="#DejaVuSans-46" transform="translate(195.263672 0.765625)"/>
     <use xlink:href="#DejaVuSans-41" transform="translate(252.783203 0.765625)"/>
     <use xlink:href="#DejaVuSans-20" transform="translate(321.191406 0.765625)"/>
     <use xlink:href="#DejaVuSans-223c" transform="translate(372.460938 0.765625)"/>
     <use xlink:href="#DejaVuSans-Oblique-6e" transform="translate(475.732422 0.765625)"/>
     <use xlink:href="#DejaVuSans-31" transform="translate(543.761224 39.046875) scale(0.7)"/>
     <use xlink:href="#DejaVuSans-2e" transform="translate(588.297357 39.046875) scale(0.7)"/>
     <use xlink:href="#DejaVuSans-39" transform="translate(610.548333 39.046875) scale(0.7)"/>
     <use xlink:href="#DejaVuSans-38" transform="translate(655.084466 39.046875) scale(0.7)"/>
    </g>
   </g>
   <g id="text_12">
    <!-- A*PA (r=1) $\sim n^{1.09}$ -->
    <g style="fill: #0f7a10" transform="translate(184.282078 122.810161) rotate(-20.076584) scale(0.1 -0.1)">
     <defs>
      <path id="DejaVuSans-2a" d="M 3009 3897 
L 1888 3291 
L 3009 2681 
L 2828 2375 
L 1778 3009 
L 1778 1831 
L 1422 1831 
L 1422 3009 
L 372 2375 
L 191 2681 
L 1313 3291 
L 191 3897 
L 372 4206 
L 1422 3572 
L 1422 4750 
L 1778 4750 
L 1778 3572 
L 2828 4206 
L 3009 3897 
z
" transform="scale(0.015625)"/>
      <path id="DejaVuSans-50" d="M 1259 4147 
L 1259 2394 
L 2053 2394 
Q 2494 2394 2734 2622 
Q 2975 2850 2975 3272 
Q 2975 3691 2734 3919 
Q 2494 4147 2053 4147 
L 1259 4147 
z
M 628 4666 
L 2053 4666 
Q 2838 4666 3239 4311 
Q 3641 3956 3641 3272 
Q 3641 2581 3239 2228 
Q 2838 1875 2053 1875 
L 1259 1875 
L 1259 0 
L 628 0 
L 628 4666 
z
" transform="scale(0.015625)"/>
      <path id="DejaVuSans-28" d="M 1984 4856 
Q 1566 4138 1362 3434 
Q 1159 2731 1159 2009 
Q 1159 1288 1364 580 
Q 1569 -128 1984 -844 
L 1484 -844 
Q 1016 -109 783 600 
Q 550 1309 550 2009 
Q 550 2706 781 3412 
Q 1013 4119 1484 4856 
L 1984 4856 
z
" transform="scale(0.015625)"/>
      <path id="DejaVuSans-3d" d="M 678 2906 
L 4684 2906 
L 4684 2381 
L 678 2381 
L 678 2906 
z
M 678 1631 
L 4684 1631 
L 4684 1100 
L 678 1100 
L 678 1631 
z
" transform="scale(0.015625)"/>
      <path id="DejaVuSans-29" d="M 513 4856 
L 1013 4856 
Q 1481 4119 1714 3412 
Q 1947 2706 1947 2009 
Q 1947 1309 1714 600 
Q 1481 -109 1013 -844 
L 513 -844 
Q 928 -128 1133 580 
Q 1338 1288 1338 2009 
Q 1338 2731 1133 3434 
Q 928 4138 513 4856 
z
" transform="scale(0.015625)"/>
     </defs>
     <use xlink:href="#DejaVuSans-41" transform="translate(0 0.765625)"/>
     <use xlink:href="#DejaVuSans-2a" transform="translate(68.408203 0.765625)"/>
     <use xlink:href="#DejaVuSans-50" transform="translate(118.408203 0.765625)"/>
     <use xlink:href="#DejaVuSans-41" transform="translate(178.710938 0.765625)"/>
     <use xlink:href="#DejaVuSans-20" transform="translate(247.119141 0.765625)"/>
     <use xlink:href="#DejaVuSans-28" transform="translate(278.90625 0.765625)"/>
     <use xlink:href="#DejaVuSans-72" transform="translate(317.919922 0.765625)"/>
     <use xlink:href="#DejaVuSans-3d" transform="translate(359.033203 0.765625)"/>
     <use xlink:href="#DejaVuSans-31" transform="translate(442.822266 0.765625)"/>
     <use xlink:href="#DejaVuSans-29" transform="translate(506.445312 0.765625)"/>
     <use xlink:href="#DejaVuSans-20" transform="translate(545.458984 0.765625)"/>
     <use xlink:href="#DejaVuSans-223c" transform="translate(596.728516 0.765625)"/>
     <use xlink:href="#DejaVuSans-Oblique-6e" transform="translate(700 0.765625)"/>
     <use xlink:href="#DejaVuSans-31" transform="translate(768.028802 39.046875) scale(0.7)"/>
     <use xlink:href="#DejaVuSans-2e" transform="translate(812.564935 39.046875) scale(0.7)"/>
     <use xlink:href="#DejaVuSans-30" transform="translate(834.815911 39.046875) scale(0.7)"/>
     <use xlink:href="#DejaVuSans-39" transform="translate(879.352044 39.046875) scale(0.7)"/>
    </g>
   </g>
   <g id="text_13">
    <!-- A*PA2 simple $\sim n^{1.74}$ -->
    <g style="fill: #aa0000" transform="translate(180.470157 108.315883) rotate(-30.341253) scale(0.1 -0.1)">
     <use xlink:href="#DejaVuSans-41" transform="translate(0 0.684375)"/>
     <use xlink:href="#DejaVuSans-2a" transform="translate(68.408203 0.684375)"/>
     <use xlink:href="#DejaVuSans-50" transform="translate(118.408203 0.684375)"/>
     <use xlink:href="#DejaVuSans-41" transform="translate(178.710938 0.684375)"/>
     <use xlink:href="#DejaVuSans-32" transform="translate(247.119141 0.684375)"/>
     <use xlink:href="#DejaVuSans-20" transform="translate(310.742188 0.684375)"/>
     <use xlink:href="#DejaVuSans-73" transform="translate(342.529297 0.684375)"/>
     <use xlink:href="#DejaVuSans-69" transform="translate(394.628906 0.684375)"/>
     <use xlink:href="#DejaVuSans-6d" transform="translate(422.412109 0.684375)"/>
     <use xlink:href="#DejaVuSans-70" transform="translate(519.824219 0.684375)"/>
     <use xlink:href="#DejaVuSans-6c" transform="translate(583.300781 0.684375)"/>
     <use xlink:href="#DejaVuSans-65" transform="translate(611.083984 0.684375)"/>
     <use xlink:href="#DejaVuSans-20" transform="translate(672.607422 0.684375)"/>
     <use xlink:href="#DejaVuSans-223c" transform="translate(723.876953 0.684375)"/>
     <use xlink:href="#DejaVuSans-Oblique-6e" transform="translate(827.148438 0.684375)"/>
     <use xlink:href="#DejaVuSans-31" transform="translate(895.17724 38.965625) scale(0.7)"/>
     <use xlink:href="#DejaVuSans-2e" transform="translate(939.713372 38.965625) scale(0.7)"/>
     <use xlink:href="#DejaVuSans-37" transform="translate(956.539349 38.965625) scale(0.7)"/>
     <use xlink:href="#DejaVuSans-34" transform="translate(1001.075482 38.965625) scale(0.7)"/>
    </g>
   </g>
   <g id="text_14">
    <!-- A*PA2 full $\sim n^{1.21}$ -->
    <g style="fill: #00aaaa" transform="translate(190.308346 118.883409) rotate(-22.111737) scale(0.1 -0.1)">
     <defs>
      <path id="DejaVuSans-66" d="M 2375 4863 
L 2375 4384 
L 1825 4384 
Q 1516 4384 1395 4259 
Q 1275 4134 1275 3809 
L 1275 3500 
L 2222 3500 
L 2222 3053 
L 1275 3053 
L 1275 0 
L 697 0 
L 697 3053 
L 147 3053 
L 147 3500 
L 697 3500 
L 697 3744 
Q 697 4328 969 4595 
Q 1241 4863 1831 4863 
L 2375 4863 
z
" transform="scale(0.015625)"/>
     </defs>
     <use xlink:href="#DejaVuSans-41" transform="translate(0 0.765625)"/>
     <use xlink:href="#DejaVuSans-2a" transform="translate(68.408203 0.765625)"/>
     <use xlink:href="#DejaVuSans-50" transform="translate(118.408203 0.765625)"/>
     <use xlink:href="#DejaVuSans-41" transform="translate(178.710938 0.765625)"/>
     <use xlink:href="#DejaVuSans-32" transform="translate(247.119141 0.765625)"/>
     <use xlink:href="#DejaVuSans-20" transform="translate(310.742188 0.765625)"/>
     <use xlink:href="#DejaVuSans-66" transform="translate(342.529297 0.765625)"/>
     <use xlink:href="#DejaVuSans-75" transform="translate(377.734375 0.765625)"/>
     <use xlink:href="#DejaVuSans-6c" transform="translate(441.113281 0.765625)"/>
     <use xlink:href="#DejaVuSans-6c" transform="translate(468.896484 0.765625)"/>
     <use xlink:href="#DejaVuSans-20" transform="translate(496.679688 0.765625)"/>
     <use xlink:href="#DejaVuSans-223c" transform="translate(547.949219 0.765625)"/>
     <use xlink:href="#DejaVuSans-Oblique-6e" transform="translate(651.220703 0.765625)"/>
     <use xlink:href="#DejaVuSans-31" transform="translate(719.249505 39.046875) scale(0.7)"/>
     <use xlink:href="#DejaVuSans-2e" transform="translate(763.785638 39.046875) scale(0.7)"/>
     <use xlink:href="#DejaVuSans-32" transform="translate(782.186615 39.046875) scale(0.7)"/>
     <use xlink:href="#DejaVuSans-31" transform="translate(826.722747 39.046875) scale(0.7)"/>
    </g>
   </g>
  </g>
 </g>
 <defs>
  <clipPath id="pe6d24c76b6">
   <rect x="37.7" y="12.539062" width="245.52" height="166.32"/>
  </clipPath>
 </defs>
</svg>
