<?xml version="1.0" encoding="utf-8" standalone="no"?>
<!DOCTYPE svg PUBLIC "-//W3C//DTD SVG 1.1//EN"
  "http://www.w3.org/Graphics/SVG/1.1/DTD/svg11.dtd">
<svg xmlns:xlink="http://www.w3.org/1999/xlink" width="289.185625pt" height="219.208125pt" viewBox="0 0 289.185625 219.208125" xmlns="http://www.w3.org/2000/svg" version="1.1">
 <metadata>
  <rdf:RDF xmlns:dc="http://purl.org/dc/elements/1.1/" xmlns:cc="http://creativecommons.org/ns#" xmlns:rdf="http://www.w3.org/1999/02/22-rdf-syntax-ns#">
   <cc:Work>
    <dc:type rdf:resource="http://purl.org/dc/dcmitype/StillImage"/>
    <dc:date>2024-03-12T14:06:32.220326</dc:date>
    <dc:format>image/svg+xml</dc:format>
    <dc:creator>
     <cc:Agent>
      <dc:title>Matplotlib v3.8.2, https://matplotlib.org/</dc:title>
     </cc:Agent>
    </dc:creator>
   </cc:Work>
  </rdf:RDF>
 </metadata>
 <defs>
  <style type="text/css">*{stroke-linejoin: round; stroke-linecap: butt}</style>
 </defs>
 <g id="figure_1">
  <g id="patch_1">
   <path d="M 0 219.208125 
L 289.185625 219.208125 
L 289.185625 0 
L 0 0 
z
" style="fill: #ffffff"/>
  </g>
  <g id="axes_1">
   <g id="patch_2">
    <path d="M 36.465625 181.651875 
L 281.985625 181.651875 
L 281.985625 15.331875 
L 36.465625 15.331875 
z
" style="fill: #f8f8f8"/>
   </g>
   <g id="matplotlib.axis_1">
    <g id="xtick_1">
     <g id="line2d_1">
      <defs>
       <path id="m0748ddba7a" d="M 0 0 
L 0 3.5 
" style="stroke: #000000; stroke-width: 0.8"/>
      </defs>
      <g>
       <use xlink:href="#m0748ddba7a" x="36.465625" y="181.651875" style="stroke: #000000; stroke-width: 0.8"/>
      </g>
     </g>
     <g id="text_1">
      <!-- 0% -->
      <g transform="translate(28.533594 196.250313) scale(0.1 -0.1)">
       <defs>
        <path id="DejaVuSans-30" d="M 2034 4250 
Q 1547 4250 1301 3770 
Q 1056 3291 1056 2328 
Q 1056 1369 1301 889 
Q 1547 409 2034 409 
Q 2525 409 2770 889 
Q 3016 1369 3016 2328 
Q 3016 3291 2770 3770 
Q 2525 4250 2034 4250 
z
M 2034 4750 
Q 2819 4750 3233 4129 
Q 3647 3509 3647 2328 
Q 3647 1150 3233 529 
Q 2819 -91 2034 -91 
Q 1250 -91 836 529 
Q 422 1150 422 2328 
Q 422 3509 836 4129 
Q 1250 4750 2034 4750 
z
" transform="scale(0.015625)"/>
        <path id="DejaVuSans-25" d="M 4653 2053 
Q 4381 2053 4226 1822 
Q 4072 1591 4072 1178 
Q 4072 772 4226 539 
Q 4381 306 4653 306 
Q 4919 306 5073 539 
Q 5228 772 5228 1178 
Q 5228 1588 5073 1820 
Q 4919 2053 4653 2053 
z
M 4653 2450 
Q 5147 2450 5437 2106 
Q 5728 1763 5728 1178 
Q 5728 594 5436 251 
Q 5144 -91 4653 -91 
Q 4153 -91 3862 251 
Q 3572 594 3572 1178 
Q 3572 1766 3864 2108 
Q 4156 2450 4653 2450 
z
M 1428 4353 
Q 1159 4353 1004 4120 
Q 850 3888 850 3481 
Q 850 3069 1003 2837 
Q 1156 2606 1428 2606 
Q 1700 2606 1854 2837 
Q 2009 3069 2009 3481 
Q 2009 3884 1853 4118 
Q 1697 4353 1428 4353 
z
M 4250 4750 
L 4750 4750 
L 1831 -91 
L 1331 -91 
L 4250 4750 
z
M 1428 4750 
Q 1922 4750 2215 4408 
Q 2509 4066 2509 3481 
Q 2509 2891 2217 2550 
Q 1925 2209 1428 2209 
Q 931 2209 642 2551 
Q 353 2894 353 3481 
Q 353 4063 643 4406 
Q 934 4750 1428 4750 
z
" transform="scale(0.015625)"/>
       </defs>
       <use xlink:href="#DejaVuSans-30"/>
       <use xlink:href="#DejaVuSans-25" x="63.623047"/>
      </g>
     </g>
    </g>
    <g id="xtick_2">
     <g id="line2d_2">
      <g>
       <use xlink:href="#m0748ddba7a" x="105.981269" y="181.651875" style="stroke: #000000; stroke-width: 0.8"/>
      </g>
     </g>
     <g id="text_2">
      <!-- 5% -->
      <g transform="translate(98.049238 196.250313) scale(0.1 -0.1)">
       <defs>
        <path id="DejaVuSans-35" d="M 691 4666 
L 3169 4666 
L 3169 4134 
L 1269 4134 
L 1269 2991 
Q 1406 3038 1543 3061 
Q 1681 3084 1819 3084 
Q 2600 3084 3056 2656 
Q 3513 2228 3513 1497 
Q 3513 744 3044 326 
Q 2575 -91 1722 -91 
Q 1428 -91 1123 -41 
Q 819 9 494 109 
L 494 744 
Q 775 591 1075 516 
Q 1375 441 1709 441 
Q 2250 441 2565 725 
Q 2881 1009 2881 1497 
Q 2881 1984 2565 2268 
Q 2250 2553 1709 2553 
Q 1456 2553 1204 2497 
Q 953 2441 691 2322 
L 691 4666 
z
" transform="scale(0.015625)"/>
       </defs>
       <use xlink:href="#DejaVuSans-35"/>
       <use xlink:href="#DejaVuSans-25" x="63.623047"/>
      </g>
     </g>
    </g>
    <g id="xtick_3">
     <g id="line2d_3">
      <g>
       <use xlink:href="#m0748ddba7a" x="175.496913" y="181.651875" style="stroke: #000000; stroke-width: 0.8"/>
      </g>
     </g>
     <g id="text_3">
      <!-- 10% -->
      <g transform="translate(164.383631 196.250313) scale(0.1 -0.1)">
       <defs>
        <path id="DejaVuSans-31" d="M 794 531 
L 1825 531 
L 1825 4091 
L 703 3866 
L 703 4441 
L 1819 4666 
L 2450 4666 
L 2450 531 
L 3481 531 
L 3481 0 
L 794 0 
L 794 531 
z
" transform="scale(0.015625)"/>
       </defs>
       <use xlink:href="#DejaVuSans-31"/>
       <use xlink:href="#DejaVuSans-30" x="63.623047"/>
       <use xlink:href="#DejaVuSans-25" x="127.246094"/>
      </g>
     </g>
    </g>
    <g id="xtick_4">
     <g id="line2d_4">
      <g>
       <use xlink:href="#m0748ddba7a" x="245.012556" y="181.651875" style="stroke: #000000; stroke-width: 0.8"/>
      </g>
     </g>
     <g id="text_4">
      <!-- 15% -->
      <g transform="translate(233.899275 196.250313) scale(0.1 -0.1)">
       <use xlink:href="#DejaVuSans-31"/>
       <use xlink:href="#DejaVuSans-35" x="63.623047"/>
       <use xlink:href="#DejaVuSans-25" x="127.246094"/>
      </g>
     </g>
    </g>
    <g id="text_5">
     <!-- Divergence -->
     <g transform="translate(130.737344 209.928438) scale(0.1 -0.1)">
      <defs>
       <path id="DejaVuSans-44" d="M 1259 4147 
L 1259 519 
L 2022 519 
Q 2988 519 3436 956 
Q 3884 1394 3884 2338 
Q 3884 3275 3436 3711 
Q 2988 4147 2022 4147 
L 1259 4147 
z
M 628 4666 
L 1925 4666 
Q 3281 4666 3915 4102 
Q 4550 3538 4550 2338 
Q 4550 1131 3912 565 
Q 3275 0 1925 0 
L 628 0 
L 628 4666 
z
" transform="scale(0.015625)"/>
       <path id="DejaVuSans-69" d="M 603 3500 
L 1178 3500 
L 1178 0 
L 603 0 
L 603 3500 
z
M 603 4863 
L 1178 4863 
L 1178 4134 
L 603 4134 
L 603 4863 
z
" transform="scale(0.015625)"/>
       <path id="DejaVuSans-76" d="M 191 3500 
L 800 3500 
L 1894 563 
L 2988 3500 
L 3597 3500 
L 2284 0 
L 1503 0 
L 191 3500 
z
" transform="scale(0.015625)"/>
       <path id="DejaVuSans-65" d="M 3597 1894 
L 3597 1613 
L 953 1613 
Q 991 1019 1311 708 
Q 1631 397 2203 397 
Q 2534 397 2845 478 
Q 3156 559 3463 722 
L 3463 178 
Q 3153 47 2828 -22 
Q 2503 -91 2169 -91 
Q 1331 -91 842 396 
Q 353 884 353 1716 
Q 353 2575 817 3079 
Q 1281 3584 2069 3584 
Q 2775 3584 3186 3129 
Q 3597 2675 3597 1894 
z
M 3022 2063 
Q 3016 2534 2758 2815 
Q 2500 3097 2075 3097 
Q 1594 3097 1305 2825 
Q 1016 2553 972 2059 
L 3022 2063 
z
" transform="scale(0.015625)"/>
       <path id="DejaVuSans-72" d="M 2631 2963 
Q 2534 3019 2420 3045 
Q 2306 3072 2169 3072 
Q 1681 3072 1420 2755 
Q 1159 2438 1159 1844 
L 1159 0 
L 581 0 
L 581 3500 
L 1159 3500 
L 1159 2956 
Q 1341 3275 1631 3429 
Q 1922 3584 2338 3584 
Q 2397 3584 2469 3576 
Q 2541 3569 2628 3553 
L 2631 2963 
z
" transform="scale(0.015625)"/>
       <path id="DejaVuSans-67" d="M 2906 1791 
Q 2906 2416 2648 2759 
Q 2391 3103 1925 3103 
Q 1463 3103 1205 2759 
Q 947 2416 947 1791 
Q 947 1169 1205 825 
Q 1463 481 1925 481 
Q 2391 481 2648 825 
Q 2906 1169 2906 1791 
z
M 3481 434 
Q 3481 -459 3084 -895 
Q 2688 -1331 1869 -1331 
Q 1566 -1331 1297 -1286 
Q 1028 -1241 775 -1147 
L 775 -588 
Q 1028 -725 1275 -790 
Q 1522 -856 1778 -856 
Q 2344 -856 2625 -561 
Q 2906 -266 2906 331 
L 2906 616 
Q 2728 306 2450 153 
Q 2172 0 1784 0 
Q 1141 0 747 490 
Q 353 981 353 1791 
Q 353 2603 747 3093 
Q 1141 3584 1784 3584 
Q 2172 3584 2450 3431 
Q 2728 3278 2906 2969 
L 2906 3500 
L 3481 3500 
L 3481 434 
z
" transform="scale(0.015625)"/>
       <path id="DejaVuSans-6e" d="M 3513 2113 
L 3513 0 
L 2938 0 
L 2938 2094 
Q 2938 2591 2744 2837 
Q 2550 3084 2163 3084 
Q 1697 3084 1428 2787 
Q 1159 2491 1159 1978 
L 1159 0 
L 581 0 
L 581 3500 
L 1159 3500 
L 1159 2956 
Q 1366 3272 1645 3428 
Q 1925 3584 2291 3584 
Q 2894 3584 3203 3211 
Q 3513 2838 3513 2113 
z
" transform="scale(0.015625)"/>
       <path id="DejaVuSans-63" d="M 3122 3366 
L 3122 2828 
Q 2878 2963 2633 3030 
Q 2388 3097 2138 3097 
Q 1578 3097 1268 2742 
Q 959 2388 959 1747 
Q 959 1106 1268 751 
Q 1578 397 2138 397 
Q 2388 397 2633 464 
Q 2878 531 3122 666 
L 3122 134 
Q 2881 22 2623 -34 
Q 2366 -91 2075 -91 
Q 1284 -91 818 406 
Q 353 903 353 1747 
Q 353 2603 823 3093 
Q 1294 3584 2113 3584 
Q 2378 3584 2631 3529 
Q 2884 3475 3122 3366 
z
" transform="scale(0.015625)"/>
      </defs>
      <use xlink:href="#DejaVuSans-44"/>
      <use xlink:href="#DejaVuSans-69" x="77.001953"/>
      <use xlink:href="#DejaVuSans-76" x="104.785156"/>
      <use xlink:href="#DejaVuSans-65" x="163.964844"/>
      <use xlink:href="#DejaVuSans-72" x="225.488281"/>
      <use xlink:href="#DejaVuSans-67" x="264.851562"/>
      <use xlink:href="#DejaVuSans-65" x="328.328125"/>
      <use xlink:href="#DejaVuSans-6e" x="389.851562"/>
      <use xlink:href="#DejaVuSans-63" x="453.230469"/>
      <use xlink:href="#DejaVuSans-65" x="508.210938"/>
     </g>
    </g>
   </g>
   <g id="matplotlib.axis_2">
    <g id="ytick_1">
     <g id="line2d_5">
      <path d="M 36.465625 181.651875 
L 281.985625 181.651875 
" clip-path="url(#p21f48f762c)" style="fill: none; stroke: #ffffff; stroke-width: 0.8; stroke-linecap: square"/>
     </g>
     <g id="line2d_6">
      <defs>
       <path id="mdcfc2a656b" d="M 0 0 
L -3.5 0 
" style="stroke: #000000; stroke-width: 0.8"/>
      </defs>
      <g>
       <use xlink:href="#mdcfc2a656b" x="36.465625" y="181.651875" style="stroke: #000000; stroke-width: 0.8"/>
      </g>
     </g>
     <g id="text_6">
      <!-- 0.00 -->
      <g transform="translate(7.2 185.451094) scale(0.1 -0.1)">
       <defs>
        <path id="DejaVuSans-2e" d="M 684 794 
L 1344 794 
L 1344 0 
L 684 0 
L 684 794 
z
" transform="scale(0.015625)"/>
       </defs>
       <use xlink:href="#DejaVuSans-30"/>
       <use xlink:href="#DejaVuSans-2e" x="63.623047"/>
       <use xlink:href="#DejaVuSans-30" x="95.410156"/>
       <use xlink:href="#DejaVuSans-30" x="159.033203"/>
      </g>
     </g>
    </g>
    <g id="ytick_2">
     <g id="line2d_7">
      <path d="M 36.465625 139.545546 
L 281.985625 139.545546 
" clip-path="url(#p21f48f762c)" style="fill: none; stroke: #ffffff; stroke-width: 0.8; stroke-linecap: square"/>
     </g>
     <g id="line2d_8">
      <g>
       <use xlink:href="#mdcfc2a656b" x="36.465625" y="139.545546" style="stroke: #000000; stroke-width: 0.8"/>
      </g>
     </g>
     <g id="text_7">
      <!-- 0.02 -->
      <g transform="translate(7.2 143.344765) scale(0.1 -0.1)">
       <defs>
        <path id="DejaVuSans-32" d="M 1228 531 
L 3431 531 
L 3431 0 
L 469 0 
L 469 531 
Q 828 903 1448 1529 
Q 2069 2156 2228 2338 
Q 2531 2678 2651 2914 
Q 2772 3150 2772 3378 
Q 2772 3750 2511 3984 
Q 2250 4219 1831 4219 
Q 1534 4219 1204 4116 
Q 875 4013 500 3803 
L 500 4441 
Q 881 4594 1212 4672 
Q 1544 4750 1819 4750 
Q 2544 4750 2975 4387 
Q 3406 4025 3406 3419 
Q 3406 3131 3298 2873 
Q 3191 2616 2906 2266 
Q 2828 2175 2409 1742 
Q 1991 1309 1228 531 
z
" transform="scale(0.015625)"/>
       </defs>
       <use xlink:href="#DejaVuSans-30"/>
       <use xlink:href="#DejaVuSans-2e" x="63.623047"/>
       <use xlink:href="#DejaVuSans-30" x="95.410156"/>
       <use xlink:href="#DejaVuSans-32" x="159.033203"/>
      </g>
     </g>
    </g>
    <g id="ytick_3">
     <g id="line2d_9">
      <path d="M 36.465625 97.439217 
L 281.985625 97.439217 
" clip-path="url(#p21f48f762c)" style="fill: none; stroke: #ffffff; stroke-width: 0.8; stroke-linecap: square"/>
     </g>
     <g id="line2d_10">
      <g>
       <use xlink:href="#mdcfc2a656b" x="36.465625" y="97.439217" style="stroke: #000000; stroke-width: 0.8"/>
      </g>
     </g>
     <g id="text_8">
      <!-- 0.04 -->
      <g transform="translate(7.2 101.238436) scale(0.1 -0.1)">
       <defs>
        <path id="DejaVuSans-34" d="M 2419 4116 
L 825 1625 
L 2419 1625 
L 2419 4116 
z
M 2253 4666 
L 3047 4666 
L 3047 1625 
L 3713 1625 
L 3713 1100 
L 3047 1100 
L 3047 0 
L 2419 0 
L 2419 1100 
L 313 1100 
L 313 1709 
L 2253 4666 
z
" transform="scale(0.015625)"/>
       </defs>
       <use xlink:href="#DejaVuSans-30"/>
       <use xlink:href="#DejaVuSans-2e" x="63.623047"/>
       <use xlink:href="#DejaVuSans-30" x="95.410156"/>
       <use xlink:href="#DejaVuSans-34" x="159.033203"/>
      </g>
     </g>
    </g>
    <g id="ytick_4">
     <g id="line2d_11">
      <path d="M 36.465625 55.332888 
L 281.985625 55.332888 
" clip-path="url(#p21f48f762c)" style="fill: none; stroke: #ffffff; stroke-width: 0.8; stroke-linecap: square"/>
     </g>
     <g id="line2d_12">
      <g>
       <use xlink:href="#mdcfc2a656b" x="36.465625" y="55.332888" style="stroke: #000000; stroke-width: 0.8"/>
      </g>
     </g>
     <g id="text_9">
      <!-- 0.06 -->
      <g transform="translate(7.2 59.132107) scale(0.1 -0.1)">
       <defs>
        <path id="DejaVuSans-36" d="M 2113 2584 
Q 1688 2584 1439 2293 
Q 1191 2003 1191 1497 
Q 1191 994 1439 701 
Q 1688 409 2113 409 
Q 2538 409 2786 701 
Q 3034 994 3034 1497 
Q 3034 2003 2786 2293 
Q 2538 2584 2113 2584 
z
M 3366 4563 
L 3366 3988 
Q 3128 4100 2886 4159 
Q 2644 4219 2406 4219 
Q 1781 4219 1451 3797 
Q 1122 3375 1075 2522 
Q 1259 2794 1537 2939 
Q 1816 3084 2150 3084 
Q 2853 3084 3261 2657 
Q 3669 2231 3669 1497 
Q 3669 778 3244 343 
Q 2819 -91 2113 -91 
Q 1303 -91 875 529 
Q 447 1150 447 2328 
Q 447 3434 972 4092 
Q 1497 4750 2381 4750 
Q 2619 4750 2861 4703 
Q 3103 4656 3366 4563 
z
" transform="scale(0.015625)"/>
       </defs>
       <use xlink:href="#DejaVuSans-30"/>
       <use xlink:href="#DejaVuSans-2e" x="63.623047"/>
       <use xlink:href="#DejaVuSans-30" x="95.410156"/>
       <use xlink:href="#DejaVuSans-36" x="159.033203"/>
      </g>
     </g>
    </g>
    <g id="text_10">
     <!-- Avg. runtime per alignment [s] -->
     <g transform="translate(8.565625 13.252188) scale(0.1 -0.1)">
      <defs>
       <path id="DejaVuSans-41" d="M 2188 4044 
L 1331 1722 
L 3047 1722 
L 2188 4044 
z
M 1831 4666 
L 2547 4666 
L 4325 0 
L 3669 0 
L 3244 1197 
L 1141 1197 
L 716 0 
L 50 0 
L 1831 4666 
z
" transform="scale(0.015625)"/>
       <path id="DejaVuSans-20" transform="scale(0.015625)"/>
       <path id="DejaVuSans-75" d="M 544 1381 
L 544 3500 
L 1119 3500 
L 1119 1403 
Q 1119 906 1312 657 
Q 1506 409 1894 409 
Q 2359 409 2629 706 
Q 2900 1003 2900 1516 
L 2900 3500 
L 3475 3500 
L 3475 0 
L 2900 0 
L 2900 538 
Q 2691 219 2414 64 
Q 2138 -91 1772 -91 
Q 1169 -91 856 284 
Q 544 659 544 1381 
z
M 1991 3584 
L 1991 3584 
z
" transform="scale(0.015625)"/>
       <path id="DejaVuSans-74" d="M 1172 4494 
L 1172 3500 
L 2356 3500 
L 2356 3053 
L 1172 3053 
L 1172 1153 
Q 1172 725 1289 603 
Q 1406 481 1766 481 
L 2356 481 
L 2356 0 
L 1766 0 
Q 1100 0 847 248 
Q 594 497 594 1153 
L 594 3053 
L 172 3053 
L 172 3500 
L 594 3500 
L 594 4494 
L 1172 4494 
z
" transform="scale(0.015625)"/>
       <path id="DejaVuSans-6d" d="M 3328 2828 
Q 3544 3216 3844 3400 
Q 4144 3584 4550 3584 
Q 5097 3584 5394 3201 
Q 5691 2819 5691 2113 
L 5691 0 
L 5113 0 
L 5113 2094 
Q 5113 2597 4934 2840 
Q 4756 3084 4391 3084 
Q 3944 3084 3684 2787 
Q 3425 2491 3425 1978 
L 3425 0 
L 2847 0 
L 2847 2094 
Q 2847 2600 2669 2842 
Q 2491 3084 2119 3084 
Q 1678 3084 1418 2786 
Q 1159 2488 1159 1978 
L 1159 0 
L 581 0 
L 581 3500 
L 1159 3500 
L 1159 2956 
Q 1356 3278 1631 3431 
Q 1906 3584 2284 3584 
Q 2666 3584 2933 3390 
Q 3200 3197 3328 2828 
z
" transform="scale(0.015625)"/>
       <path id="DejaVuSans-70" d="M 1159 525 
L 1159 -1331 
L 581 -1331 
L 581 3500 
L 1159 3500 
L 1159 2969 
Q 1341 3281 1617 3432 
Q 1894 3584 2278 3584 
Q 2916 3584 3314 3078 
Q 3713 2572 3713 1747 
Q 3713 922 3314 415 
Q 2916 -91 2278 -91 
Q 1894 -91 1617 61 
Q 1341 213 1159 525 
z
M 3116 1747 
Q 3116 2381 2855 2742 
Q 2594 3103 2138 3103 
Q 1681 3103 1420 2742 
Q 1159 2381 1159 1747 
Q 1159 1113 1420 752 
Q 1681 391 2138 391 
Q 2594 391 2855 752 
Q 3116 1113 3116 1747 
z
" transform="scale(0.015625)"/>
       <path id="DejaVuSans-61" d="M 2194 1759 
Q 1497 1759 1228 1600 
Q 959 1441 959 1056 
Q 959 750 1161 570 
Q 1363 391 1709 391 
Q 2188 391 2477 730 
Q 2766 1069 2766 1631 
L 2766 1759 
L 2194 1759 
z
M 3341 1997 
L 3341 0 
L 2766 0 
L 2766 531 
Q 2569 213 2275 61 
Q 1981 -91 1556 -91 
Q 1019 -91 701 211 
Q 384 513 384 1019 
Q 384 1609 779 1909 
Q 1175 2209 1959 2209 
L 2766 2209 
L 2766 2266 
Q 2766 2663 2505 2880 
Q 2244 3097 1772 3097 
Q 1472 3097 1187 3025 
Q 903 2953 641 2809 
L 641 3341 
Q 956 3463 1253 3523 
Q 1550 3584 1831 3584 
Q 2591 3584 2966 3190 
Q 3341 2797 3341 1997 
z
" transform="scale(0.015625)"/>
       <path id="DejaVuSans-6c" d="M 603 4863 
L 1178 4863 
L 1178 0 
L 603 0 
L 603 4863 
z
" transform="scale(0.015625)"/>
       <path id="DejaVuSans-5b" d="M 550 4863 
L 1875 4863 
L 1875 4416 
L 1125 4416 
L 1125 -397 
L 1875 -397 
L 1875 -844 
L 550 -844 
L 550 4863 
z
" transform="scale(0.015625)"/>
       <path id="DejaVuSans-73" d="M 2834 3397 
L 2834 2853 
Q 2591 2978 2328 3040 
Q 2066 3103 1784 3103 
Q 1356 3103 1142 2972 
Q 928 2841 928 2578 
Q 928 2378 1081 2264 
Q 1234 2150 1697 2047 
L 1894 2003 
Q 2506 1872 2764 1633 
Q 3022 1394 3022 966 
Q 3022 478 2636 193 
Q 2250 -91 1575 -91 
Q 1294 -91 989 -36 
Q 684 19 347 128 
L 347 722 
Q 666 556 975 473 
Q 1284 391 1588 391 
Q 1994 391 2212 530 
Q 2431 669 2431 922 
Q 2431 1156 2273 1281 
Q 2116 1406 1581 1522 
L 1381 1569 
Q 847 1681 609 1914 
Q 372 2147 372 2553 
Q 372 3047 722 3315 
Q 1072 3584 1716 3584 
Q 2034 3584 2315 3537 
Q 2597 3491 2834 3397 
z
" transform="scale(0.015625)"/>
       <path id="DejaVuSans-5d" d="M 1947 4863 
L 1947 -844 
L 622 -844 
L 622 -397 
L 1369 -397 
L 1369 4416 
L 622 4416 
L 622 4863 
L 1947 4863 
z
" transform="scale(0.015625)"/>
      </defs>
      <use xlink:href="#DejaVuSans-41"/>
      <use xlink:href="#DejaVuSans-76" x="62.533203"/>
      <use xlink:href="#DejaVuSans-67" x="121.712891"/>
      <use xlink:href="#DejaVuSans-2e" x="185.189453"/>
      <use xlink:href="#DejaVuSans-20" x="216.976562"/>
      <use xlink:href="#DejaVuSans-72" x="248.763672"/>
      <use xlink:href="#DejaVuSans-75" x="289.876953"/>
      <use xlink:href="#DejaVuSans-6e" x="353.255859"/>
      <use xlink:href="#DejaVuSans-74" x="416.634766"/>
      <use xlink:href="#DejaVuSans-69" x="455.84375"/>
      <use xlink:href="#DejaVuSans-6d" x="483.626953"/>
      <use xlink:href="#DejaVuSans-65" x="581.039062"/>
      <use xlink:href="#DejaVuSans-20" x="642.5625"/>
      <use xlink:href="#DejaVuSans-70" x="674.349609"/>
      <use xlink:href="#DejaVuSans-65" x="737.826172"/>
      <use xlink:href="#DejaVuSans-72" x="799.349609"/>
      <use xlink:href="#DejaVuSans-20" x="840.462891"/>
      <use xlink:href="#DejaVuSans-61" x="872.25"/>
      <use xlink:href="#DejaVuSans-6c" x="933.529297"/>
      <use xlink:href="#DejaVuSans-69" x="961.3125"/>
      <use xlink:href="#DejaVuSans-67" x="989.095703"/>
      <use xlink:href="#DejaVuSans-6e" x="1052.572266"/>
      <use xlink:href="#DejaVuSans-6d" x="1115.951172"/>
      <use xlink:href="#DejaVuSans-65" x="1213.363281"/>
      <use xlink:href="#DejaVuSans-6e" x="1274.886719"/>
      <use xlink:href="#DejaVuSans-74" x="1338.265625"/>
      <use xlink:href="#DejaVuSans-20" x="1377.474609"/>
      <use xlink:href="#DejaVuSans-5b" x="1409.261719"/>
      <use xlink:href="#DejaVuSans-73" x="1448.275391"/>
      <use xlink:href="#DejaVuSans-5d" x="1500.375"/>
     </g>
    </g>
   </g>
   <g id="line2d_13">
    <path d="M 44.827012 57.459291 
L 53.218106 34.958014 
L 61.392199 31.326701 
L 67.628479 -1 
" clip-path="url(#p21f48f762c)" style="fill: none; stroke: #de4aff; stroke-width: 0.75; stroke-linecap: square"/>
    <defs>
     <path id="m8fe3a9073d" d="M 0 2 
C 0.530406 2 1.03916 1.789267 1.414214 1.414214 
C 1.789267 1.03916 2 0.530406 2 0 
C 2 -0.530406 1.789267 -1.03916 1.414214 -1.414214 
C 1.03916 -1.789267 0.530406 -2 0 -2 
C -0.530406 -2 -1.03916 -1.789267 -1.414214 -1.414214 
C -1.789267 -1.03916 -2 -0.530406 -2 0 
C -2 0.530406 -1.789267 1.03916 -1.414214 1.414214 
C -1.03916 1.789267 -0.530406 2 0 2 
z
" style="stroke: #de4aff"/>
    </defs>
    <g clip-path="url(#p21f48f762c)">
     <use xlink:href="#m8fe3a9073d" x="44.827012" y="57.459291" style="fill: #de4aff; stroke: #de4aff"/>
     <use xlink:href="#m8fe3a9073d" x="53.218106" y="34.958014" style="fill: #de4aff; stroke: #de4aff"/>
     <use xlink:href="#m8fe3a9073d" x="61.392199" y="31.326701" style="fill: #de4aff; stroke: #de4aff"/>
     <use xlink:href="#m8fe3a9073d" x="67.628479" y="-1" style="fill: #de4aff; stroke: #de4aff"/>
    </g>
   </g>
   <g id="line2d_14">
    <path d="M 44.827012 177.531245 
L 53.218106 168.996562 
L 61.392199 156.238533 
L 69.435454 137.82081 
L 77.409822 115.900821 
L 85.270846 89.906597 
L 93.031947 58.104537 
L 100.702603 23.657728 
L 105.491657 -1 
" clip-path="url(#p21f48f762c)" style="fill: none; stroke: #625aff; stroke-width: 0.75; stroke-linecap: square"/>
    <defs>
     <path id="m00f8795709" d="M 0 2 
C 0.530406 2 1.03916 1.789267 1.414214 1.414214 
C 1.789267 1.03916 2 0.530406 2 0 
C 2 -0.530406 1.789267 -1.03916 1.414214 -1.414214 
C 1.03916 -1.789267 0.530406 -2 0 -2 
C -0.530406 -2 -1.03916 -1.789267 -1.414214 -1.414214 
C -1.789267 -1.03916 -2 -0.530406 -2 0 
C -2 0.530406 -1.789267 1.03916 -1.414214 1.414214 
C -1.03916 1.789267 -0.530406 2 0 2 
z
" style="stroke: #625aff"/>
    </defs>
    <g clip-path="url(#p21f48f762c)">
     <use xlink:href="#m00f8795709" x="44.827012" y="177.531245" style="fill: #625aff; stroke: #625aff"/>
     <use xlink:href="#m00f8795709" x="53.218106" y="168.996562" style="fill: #625aff; stroke: #625aff"/>
     <use xlink:href="#m00f8795709" x="61.392199" y="156.238533" style="fill: #625aff; stroke: #625aff"/>
     <use xlink:href="#m00f8795709" x="69.435454" y="137.82081" style="fill: #625aff; stroke: #625aff"/>
     <use xlink:href="#m00f8795709" x="77.409822" y="115.900821" style="fill: #625aff; stroke: #625aff"/>
     <use xlink:href="#m00f8795709" x="85.270846" y="89.906597" style="fill: #625aff; stroke: #625aff"/>
     <use xlink:href="#m00f8795709" x="93.031947" y="58.104537" style="fill: #625aff; stroke: #625aff"/>
     <use xlink:href="#m00f8795709" x="100.702603" y="23.657728" style="fill: #625aff; stroke: #625aff"/>
     <use xlink:href="#m00f8795709" x="105.491657" y="-1" style="fill: #625aff; stroke: #625aff"/>
    </g>
   </g>
   <g id="line2d_15">
    <path d="M 44.827012 109.558465 
L 53.218106 108.840649 
L 61.392199 111.19326 
L 69.435454 110.903505 
L 77.409822 111.257104 
L 85.270846 112.894225 
L 93.031947 113.048254 
L 100.702603 112.893179 
L 108.078031 114.080577 
L 115.614688 113.484133 
L 122.748885 113.575065 
L 130.018636 113.285229 
L 136.97507 112.680824 
L 143.959569 109.06728 
L 150.969049 103.666364 
L 157.755923 98.774956 
L 164.561828 93.2441 
L 171.068078 88.046642 
L 177.426795 79.689012 
L 184.19314 69.895278 
L 190.103578 53.860093 
L 196.705429 23.634612 
L 199.152453 -1 
" clip-path="url(#p21f48f762c)" style="fill: none; stroke: #0f7a10; stroke-width: 0.75; stroke-linecap: square"/>
    <defs>
     <path id="m228e44347b" d="M 0 2 
C 0.530406 2 1.03916 1.789267 1.414214 1.414214 
C 1.789267 1.03916 2 0.530406 2 0 
C 2 -0.530406 1.789267 -1.03916 1.414214 -1.414214 
C 1.03916 -1.789267 0.530406 -2 0 -2 
C -0.530406 -2 -1.03916 -1.789267 -1.414214 -1.414214 
C -1.789267 -1.03916 -2 -0.530406 -2 0 
C -2 0.530406 -1.789267 1.03916 -1.414214 1.414214 
C -1.03916 1.789267 -0.530406 2 0 2 
z
" style="stroke: #0f7a10"/>
    </defs>
    <g clip-path="url(#p21f48f762c)">
     <use xlink:href="#m228e44347b" x="44.827012" y="109.558465" style="fill: #0f7a10; stroke: #0f7a10"/>
     <use xlink:href="#m228e44347b" x="53.218106" y="108.840649" style="fill: #0f7a10; stroke: #0f7a10"/>
     <use xlink:href="#m228e44347b" x="61.392199" y="111.19326" style="fill: #0f7a10; stroke: #0f7a10"/>
     <use xlink:href="#m228e44347b" x="69.435454" y="110.903505" style="fill: #0f7a10; stroke: #0f7a10"/>
     <use xlink:href="#m228e44347b" x="77.409822" y="111.257104" style="fill: #0f7a10; stroke: #0f7a10"/>
     <use xlink:href="#m228e44347b" x="85.270846" y="112.894225" style="fill: #0f7a10; stroke: #0f7a10"/>
     <use xlink:href="#m228e44347b" x="93.031947" y="113.048254" style="fill: #0f7a10; stroke: #0f7a10"/>
     <use xlink:href="#m228e44347b" x="100.702603" y="112.893179" style="fill: #0f7a10; stroke: #0f7a10"/>
     <use xlink:href="#m228e44347b" x="108.078031" y="114.080577" style="fill: #0f7a10; stroke: #0f7a10"/>
     <use xlink:href="#m228e44347b" x="115.614688" y="113.484133" style="fill: #0f7a10; stroke: #0f7a10"/>
     <use xlink:href="#m228e44347b" x="122.748885" y="113.575065" style="fill: #0f7a10; stroke: #0f7a10"/>
     <use xlink:href="#m228e44347b" x="130.018636" y="113.285229" style="fill: #0f7a10; stroke: #0f7a10"/>
     <use xlink:href="#m228e44347b" x="136.97507" y="112.680824" style="fill: #0f7a10; stroke: #0f7a10"/>
     <use xlink:href="#m228e44347b" x="143.959569" y="109.06728" style="fill: #0f7a10; stroke: #0f7a10"/>
     <use xlink:href="#m228e44347b" x="150.969049" y="103.666364" style="fill: #0f7a10; stroke: #0f7a10"/>
     <use xlink:href="#m228e44347b" x="157.755923" y="98.774956" style="fill: #0f7a10; stroke: #0f7a10"/>
     <use xlink:href="#m228e44347b" x="164.561828" y="93.2441" style="fill: #0f7a10; stroke: #0f7a10"/>
     <use xlink:href="#m228e44347b" x="171.068078" y="88.046642" style="fill: #0f7a10; stroke: #0f7a10"/>
     <use xlink:href="#m228e44347b" x="177.426795" y="79.689012" style="fill: #0f7a10; stroke: #0f7a10"/>
     <use xlink:href="#m228e44347b" x="184.19314" y="69.895278" style="fill: #0f7a10; stroke: #0f7a10"/>
     <use xlink:href="#m228e44347b" x="190.103578" y="53.860093" style="fill: #0f7a10; stroke: #0f7a10"/>
     <use xlink:href="#m228e44347b" x="196.705429" y="23.634612" style="fill: #0f7a10; stroke: #0f7a10"/>
     <use xlink:href="#m228e44347b" x="199.152453" y="-1" style="fill: #0f7a10; stroke: #0f7a10"/>
    </g>
   </g>
   <g id="line2d_16">
    <path d="M 44.827012 169.554183 
L 53.218106 169.231101 
L 61.392199 169.016371 
L 69.435454 168.93135 
L 77.409822 168.305539 
L 85.270846 166.286215 
L 93.031947 164.112683 
L 100.702603 159.608667 
L 108.078031 152.053292 
L 115.614688 138.616217 
L 122.748885 86.517793 
L 123.412533 -1 
" clip-path="url(#p21f48f762c)" style="fill: none; stroke: #0f7a10; stroke-width: 0.75; stroke-linecap: square"/>
    <g clip-path="url(#p21f48f762c)">
     <use xlink:href="#m228e44347b" x="44.827012" y="169.554183" style="fill: #0f7a10; stroke: #0f7a10"/>
     <use xlink:href="#m228e44347b" x="53.218106" y="169.231101" style="fill: #0f7a10; stroke: #0f7a10"/>
     <use xlink:href="#m228e44347b" x="61.392199" y="169.016371" style="fill: #0f7a10; stroke: #0f7a10"/>
     <use xlink:href="#m228e44347b" x="69.435454" y="168.93135" style="fill: #0f7a10; stroke: #0f7a10"/>
     <use xlink:href="#m228e44347b" x="77.409822" y="168.305539" style="fill: #0f7a10; stroke: #0f7a10"/>
     <use xlink:href="#m228e44347b" x="85.270846" y="166.286215" style="fill: #0f7a10; stroke: #0f7a10"/>
     <use xlink:href="#m228e44347b" x="93.031947" y="164.112683" style="fill: #0f7a10; stroke: #0f7a10"/>
     <use xlink:href="#m228e44347b" x="100.702603" y="159.608667" style="fill: #0f7a10; stroke: #0f7a10"/>
     <use xlink:href="#m228e44347b" x="108.078031" y="152.053292" style="fill: #0f7a10; stroke: #0f7a10"/>
     <use xlink:href="#m228e44347b" x="115.614688" y="138.616217" style="fill: #0f7a10; stroke: #0f7a10"/>
     <use xlink:href="#m228e44347b" x="122.748885" y="86.517793" style="fill: #0f7a10; stroke: #0f7a10"/>
     <use xlink:href="#m228e44347b" x="123.412533" y="-1" style="fill: #0f7a10; stroke: #0f7a10"/>
    </g>
   </g>
   <g id="line2d_17">
    <path d="M 44.827012 171.21507 
L 53.218106 167.252354 
L 61.392199 169.890303 
L 69.435454 160.35416 
L 77.409822 162.859454 
L 85.270846 164.346566 
L 93.031947 161.431266 
L 100.702603 146.97205 
L 108.078031 148.854399 
L 115.614688 150.265662 
L 122.748885 151.602451 
L 130.018636 153.352226 
L 136.97507 154.54198 
L 143.959569 155.670563 
L 150.969049 117.065476 
L 157.755923 118.28705 
L 164.561828 120.393219 
L 171.068078 121.61992 
L 177.426795 122.882535 
L 184.19314 124.569434 
L 190.103578 124.961103 
L 196.705429 125.859945 
L 202.807342 126.621693 
L 209.022757 127.78137 
L 214.822327 128.046335 
L 220.921173 128.471954 
L 226.469266 128.954358 
L 232.187858 129.091401 
L 237.811699 129.54571 
L 243.769967 129.849105 
L 248.679227 130.136965 
L 254.108269 76.421226 
L 259.622568 54.130457 
L 265.200634 55.119756 
L 270.692358 55.694602 
" clip-path="url(#p21f48f762c)" style="fill: none; stroke: #aa0000; stroke-width: 0.75; stroke-linecap: square"/>
    <defs>
     <path id="m5017c83aa0" d="M 0 2 
C 0.530406 2 1.03916 1.789267 1.414214 1.414214 
C 1.789267 1.03916 2 0.530406 2 0 
C 2 -0.530406 1.789267 -1.03916 1.414214 -1.414214 
C 1.03916 -1.789267 0.530406 -2 0 -2 
C -0.530406 -2 -1.03916 -1.789267 -1.414214 -1.414214 
C -1.789267 -1.03916 -2 -0.530406 -2 0 
C -2 0.530406 -1.789267 1.03916 -1.414214 1.414214 
C -1.03916 1.789267 -0.530406 2 0 2 
z
" style="stroke: #aa0000"/>
    </defs>
    <g clip-path="url(#p21f48f762c)">
     <use xlink:href="#m5017c83aa0" x="44.827012" y="171.21507" style="fill: #aa0000; stroke: #aa0000"/>
     <use xlink:href="#m5017c83aa0" x="53.218106" y="167.252354" style="fill: #aa0000; stroke: #aa0000"/>
     <use xlink:href="#m5017c83aa0" x="61.392199" y="169.890303" style="fill: #aa0000; stroke: #aa0000"/>
     <use xlink:href="#m5017c83aa0" x="69.435454" y="160.35416" style="fill: #aa0000; stroke: #aa0000"/>
     <use xlink:href="#m5017c83aa0" x="77.409822" y="162.859454" style="fill: #aa0000; stroke: #aa0000"/>
     <use xlink:href="#m5017c83aa0" x="85.270846" y="164.346566" style="fill: #aa0000; stroke: #aa0000"/>
     <use xlink:href="#m5017c83aa0" x="93.031947" y="161.431266" style="fill: #aa0000; stroke: #aa0000"/>
     <use xlink:href="#m5017c83aa0" x="100.702603" y="146.97205" style="fill: #aa0000; stroke: #aa0000"/>
     <use xlink:href="#m5017c83aa0" x="108.078031" y="148.854399" style="fill: #aa0000; stroke: #aa0000"/>
     <use xlink:href="#m5017c83aa0" x="115.614688" y="150.265662" style="fill: #aa0000; stroke: #aa0000"/>
     <use xlink:href="#m5017c83aa0" x="122.748885" y="151.602451" style="fill: #aa0000; stroke: #aa0000"/>
     <use xlink:href="#m5017c83aa0" x="130.018636" y="153.352226" style="fill: #aa0000; stroke: #aa0000"/>
     <use xlink:href="#m5017c83aa0" x="136.97507" y="154.54198" style="fill: #aa0000; stroke: #aa0000"/>
     <use xlink:href="#m5017c83aa0" x="143.959569" y="155.670563" style="fill: #aa0000; stroke: #aa0000"/>
     <use xlink:href="#m5017c83aa0" x="150.969049" y="117.065476" style="fill: #aa0000; stroke: #aa0000"/>
     <use xlink:href="#m5017c83aa0" x="157.755923" y="118.28705" style="fill: #aa0000; stroke: #aa0000"/>
     <use xlink:href="#m5017c83aa0" x="164.561828" y="120.393219" style="fill: #aa0000; stroke: #aa0000"/>
     <use xlink:href="#m5017c83aa0" x="171.068078" y="121.61992" style="fill: #aa0000; stroke: #aa0000"/>
     <use xlink:href="#m5017c83aa0" x="177.426795" y="122.882535" style="fill: #aa0000; stroke: #aa0000"/>
     <use xlink:href="#m5017c83aa0" x="184.19314" y="124.569434" style="fill: #aa0000; stroke: #aa0000"/>
     <use xlink:href="#m5017c83aa0" x="190.103578" y="124.961103" style="fill: #aa0000; stroke: #aa0000"/>
     <use xlink:href="#m5017c83aa0" x="196.705429" y="125.859945" style="fill: #aa0000; stroke: #aa0000"/>
     <use xlink:href="#m5017c83aa0" x="202.807342" y="126.621693" style="fill: #aa0000; stroke: #aa0000"/>
     <use xlink:href="#m5017c83aa0" x="209.022757" y="127.78137" style="fill: #aa0000; stroke: #aa0000"/>
     <use xlink:href="#m5017c83aa0" x="214.822327" y="128.046335" style="fill: #aa0000; stroke: #aa0000"/>
     <use xlink:href="#m5017c83aa0" x="220.921173" y="128.471954" style="fill: #aa0000; stroke: #aa0000"/>
     <use xlink:href="#m5017c83aa0" x="226.469266" y="128.954358" style="fill: #aa0000; stroke: #aa0000"/>
     <use xlink:href="#m5017c83aa0" x="232.187858" y="129.091401" style="fill: #aa0000; stroke: #aa0000"/>
     <use xlink:href="#m5017c83aa0" x="237.811699" y="129.54571" style="fill: #aa0000; stroke: #aa0000"/>
     <use xlink:href="#m5017c83aa0" x="243.769967" y="129.849105" style="fill: #aa0000; stroke: #aa0000"/>
     <use xlink:href="#m5017c83aa0" x="248.679227" y="130.136965" style="fill: #aa0000; stroke: #aa0000"/>
     <use xlink:href="#m5017c83aa0" x="254.108269" y="76.421226" style="fill: #aa0000; stroke: #aa0000"/>
     <use xlink:href="#m5017c83aa0" x="259.622568" y="54.130457" style="fill: #aa0000; stroke: #aa0000"/>
     <use xlink:href="#m5017c83aa0" x="265.200634" y="55.119756" style="fill: #aa0000; stroke: #aa0000"/>
     <use xlink:href="#m5017c83aa0" x="270.692358" y="55.694602" style="fill: #aa0000; stroke: #aa0000"/>
    </g>
   </g>
   <g id="line2d_18">
    <path d="M 44.827012 167.79096 
L 53.218106 167.628777 
L 61.392199 167.469963 
L 69.435454 167.264231 
L 77.409822 166.920245 
L 85.270846 166.785126 
L 93.031947 167.279023 
L 100.702603 167.269736 
L 108.078031 167.480288 
L 115.614688 167.357782 
L 122.748885 167.389221 
L 130.018636 160.058566 
L 136.97507 162.131149 
L 143.959569 155.83723 
L 150.969049 158.647382 
L 157.755923 148.772889 
L 164.561828 152.067145 
L 171.068078 155.215094 
L 177.426795 138.89417 
L 184.19314 141.51376 
L 190.103578 143.6686 
L 196.705429 145.465321 
L 202.807342 121.958339 
L 209.022757 123.654466 
L 214.822327 124.582929 
L 220.921173 125.785492 
L 226.469266 126.800044 
L 232.187858 127.412376 
L 237.811699 128.039672 
L 243.769967 128.550842 
L 248.679227 129.128598 
L 254.108269 106.735147 
L 259.622568 97.789468 
L 265.200634 98.487092 
L 270.692358 99.288287 
" clip-path="url(#p21f48f762c)" style="fill: none; stroke: #00aaaa; stroke-width: 0.75; stroke-linecap: square"/>
    <defs>
     <path id="ma157091195" d="M 0 2 
C 0.530406 2 1.03916 1.789267 1.414214 1.414214 
C 1.789267 1.03916 2 0.530406 2 0 
C 2 -0.530406 1.789267 -1.03916 1.414214 -1.414214 
C 1.03916 -1.789267 0.530406 -2 0 -2 
C -0.530406 -2 -1.03916 -1.789267 -1.414214 -1.414214 
C -1.789267 -1.03916 -2 -0.530406 -2 0 
C -2 0.530406 -1.789267 1.03916 -1.414214 1.414214 
C -1.03916 1.789267 -0.530406 2 0 2 
z
" style="stroke: #00aaaa"/>
    </defs>
    <g clip-path="url(#p21f48f762c)">
     <use xlink:href="#ma157091195" x="44.827012" y="167.79096" style="fill: #00aaaa; stroke: #00aaaa"/>
     <use xlink:href="#ma157091195" x="53.218106" y="167.628777" style="fill: #00aaaa; stroke: #00aaaa"/>
     <use xlink:href="#ma157091195" x="61.392199" y="167.469963" style="fill: #00aaaa; stroke: #00aaaa"/>
     <use xlink:href="#ma157091195" x="69.435454" y="167.264231" style="fill: #00aaaa; stroke: #00aaaa"/>
     <use xlink:href="#ma157091195" x="77.409822" y="166.920245" style="fill: #00aaaa; stroke: #00aaaa"/>
     <use xlink:href="#ma157091195" x="85.270846" y="166.785126" style="fill: #00aaaa; stroke: #00aaaa"/>
     <use xlink:href="#ma157091195" x="93.031947" y="167.279023" style="fill: #00aaaa; stroke: #00aaaa"/>
     <use xlink:href="#ma157091195" x="100.702603" y="167.269736" style="fill: #00aaaa; stroke: #00aaaa"/>
     <use xlink:href="#ma157091195" x="108.078031" y="167.480288" style="fill: #00aaaa; stroke: #00aaaa"/>
     <use xlink:href="#ma157091195" x="115.614688" y="167.357782" style="fill: #00aaaa; stroke: #00aaaa"/>
     <use xlink:href="#ma157091195" x="122.748885" y="167.389221" style="fill: #00aaaa; stroke: #00aaaa"/>
     <use xlink:href="#ma157091195" x="130.018636" y="160.058566" style="fill: #00aaaa; stroke: #00aaaa"/>
     <use xlink:href="#ma157091195" x="136.97507" y="162.131149" style="fill: #00aaaa; stroke: #00aaaa"/>
     <use xlink:href="#ma157091195" x="143.959569" y="155.83723" style="fill: #00aaaa; stroke: #00aaaa"/>
     <use xlink:href="#ma157091195" x="150.969049" y="158.647382" style="fill: #00aaaa; stroke: #00aaaa"/>
     <use xlink:href="#ma157091195" x="157.755923" y="148.772889" style="fill: #00aaaa; stroke: #00aaaa"/>
     <use xlink:href="#ma157091195" x="164.561828" y="152.067145" style="fill: #00aaaa; stroke: #00aaaa"/>
     <use xlink:href="#ma157091195" x="171.068078" y="155.215094" style="fill: #00aaaa; stroke: #00aaaa"/>
     <use xlink:href="#ma157091195" x="177.426795" y="138.89417" style="fill: #00aaaa; stroke: #00aaaa"/>
     <use xlink:href="#ma157091195" x="184.19314" y="141.51376" style="fill: #00aaaa; stroke: #00aaaa"/>
     <use xlink:href="#ma157091195" x="190.103578" y="143.6686" style="fill: #00aaaa; stroke: #00aaaa"/>
     <use xlink:href="#ma157091195" x="196.705429" y="145.465321" style="fill: #00aaaa; stroke: #00aaaa"/>
     <use xlink:href="#ma157091195" x="202.807342" y="121.958339" style="fill: #00aaaa; stroke: #00aaaa"/>
     <use xlink:href="#ma157091195" x="209.022757" y="123.654466" style="fill: #00aaaa; stroke: #00aaaa"/>
     <use xlink:href="#ma157091195" x="214.822327" y="124.582929" style="fill: #00aaaa; stroke: #00aaaa"/>
     <use xlink:href="#ma157091195" x="220.921173" y="125.785492" style="fill: #00aaaa; stroke: #00aaaa"/>
     <use xlink:href="#ma157091195" x="226.469266" y="126.800044" style="fill: #00aaaa; stroke: #00aaaa"/>
     <use xlink:href="#ma157091195" x="232.187858" y="127.412376" style="fill: #00aaaa; stroke: #00aaaa"/>
     <use xlink:href="#ma157091195" x="237.811699" y="128.039672" style="fill: #00aaaa; stroke: #00aaaa"/>
     <use xlink:href="#ma157091195" x="243.769967" y="128.550842" style="fill: #00aaaa; stroke: #00aaaa"/>
     <use xlink:href="#ma157091195" x="248.679227" y="129.128598" style="fill: #00aaaa; stroke: #00aaaa"/>
     <use xlink:href="#ma157091195" x="254.108269" y="106.735147" style="fill: #00aaaa; stroke: #00aaaa"/>
     <use xlink:href="#ma157091195" x="259.622568" y="97.789468" style="fill: #00aaaa; stroke: #00aaaa"/>
     <use xlink:href="#ma157091195" x="265.200634" y="98.487092" style="fill: #00aaaa; stroke: #00aaaa"/>
     <use xlink:href="#ma157091195" x="270.692358" y="99.288287" style="fill: #00aaaa; stroke: #00aaaa"/>
    </g>
   </g>
   <g id="patch_3">
    <path d="M 36.465625 181.651875 
L 36.465625 15.331875 
" style="fill: none; stroke: #000000; stroke-width: 0.8; stroke-linejoin: miter; stroke-linecap: square"/>
   </g>
   <g id="patch_4">
    <path d="M 36.465625 181.651875 
L 281.985625 181.651875 
" style="fill: none; stroke: #000000; stroke-width: 0.8; stroke-linejoin: miter; stroke-linecap: square"/>
   </g>
   <g id="text_11">
    <!-- Edlib -->
    <g style="fill: #de4aff" transform="translate(248.918609 26.907971) rotate(-32.835321) scale(0.1 -0.1)">
     <defs>
      <path id="DejaVuSans-45" d="M 628 4666 
L 3578 4666 
L 3578 4134 
L 1259 4134 
L 1259 2753 
L 3481 2753 
L 3481 2222 
L 1259 2222 
L 1259 531 
L 3634 531 
L 3634 0 
L 628 0 
L 628 4666 
z
" transform="scale(0.015625)"/>
      <path id="DejaVuSans-64" d="M 2906 2969 
L 2906 4863 
L 3481 4863 
L 3481 0 
L 2906 0 
L 2906 525 
Q 2725 213 2448 61 
Q 2172 -91 1784 -91 
Q 1150 -91 751 415 
Q 353 922 353 1747 
Q 353 2572 751 3078 
Q 1150 3584 1784 3584 
Q 2172 3584 2448 3432 
Q 2725 3281 2906 2969 
z
M 947 1747 
Q 947 1113 1208 752 
Q 1469 391 1925 391 
Q 2381 391 2643 752 
Q 2906 1113 2906 1747 
Q 2906 2381 2643 2742 
Q 2381 3103 1925 3103 
Q 1469 3103 1208 2742 
Q 947 2381 947 1747 
z
" transform="scale(0.015625)"/>
      <path id="DejaVuSans-62" d="M 3116 1747 
Q 3116 2381 2855 2742 
Q 2594 3103 2138 3103 
Q 1681 3103 1420 2742 
Q 1159 2381 1159 1747 
Q 1159 1113 1420 752 
Q 1681 391 2138 391 
Q 2594 391 2855 752 
Q 3116 1113 3116 1747 
z
M 1159 2969 
Q 1341 3281 1617 3432 
Q 1894 3584 2278 3584 
Q 2916 3584 3314 3078 
Q 3713 2572 3713 1747 
Q 3713 922 3314 415 
Q 2916 -91 2278 -91 
Q 1894 -91 1617 61 
Q 1341 213 1159 525 
L 1159 0 
L 581 0 
L 581 4863 
L 1159 4863 
L 1159 2969 
z
" transform="scale(0.015625)"/>
     </defs>
     <use xlink:href="#DejaVuSans-45"/>
     <use xlink:href="#DejaVuSans-64" x="63.183594"/>
     <use xlink:href="#DejaVuSans-6c" x="126.660156"/>
     <use xlink:href="#DejaVuSans-69" x="154.443359"/>
     <use xlink:href="#DejaVuSans-62" x="182.226562"/>
    </g>
   </g>
   <g id="text_12">
    <!-- BiWFA -->
    <g style="fill: #625aff" transform="translate(266.937599 46.381141) rotate(-86.917498) scale(0.1 -0.1)">
     <defs>
      <path id="DejaVuSans-42" d="M 1259 2228 
L 1259 519 
L 2272 519 
Q 2781 519 3026 730 
Q 3272 941 3272 1375 
Q 3272 1813 3026 2020 
Q 2781 2228 2272 2228 
L 1259 2228 
z
M 1259 4147 
L 1259 2741 
L 2194 2741 
Q 2656 2741 2882 2914 
Q 3109 3088 3109 3444 
Q 3109 3797 2882 3972 
Q 2656 4147 2194 4147 
L 1259 4147 
z
M 628 4666 
L 2241 4666 
Q 2963 4666 3353 4366 
Q 3744 4066 3744 3513 
Q 3744 3084 3544 2831 
Q 3344 2578 2956 2516 
Q 3422 2416 3680 2098 
Q 3938 1781 3938 1306 
Q 3938 681 3513 340 
Q 3088 0 2303 0 
L 628 0 
L 628 4666 
z
" transform="scale(0.015625)"/>
      <path id="DejaVuSans-57" d="M 213 4666 
L 850 4666 
L 1831 722 
L 2809 4666 
L 3519 4666 
L 4500 722 
L 5478 4666 
L 6119 4666 
L 4947 0 
L 4153 0 
L 3169 4050 
L 2175 0 
L 1381 0 
L 213 4666 
z
" transform="scale(0.015625)"/>
      <path id="DejaVuSans-46" d="M 628 4666 
L 3309 4666 
L 3309 4134 
L 1259 4134 
L 1259 2759 
L 3109 2759 
L 3109 2228 
L 1259 2228 
L 1259 0 
L 628 0 
L 628 4666 
z
" transform="scale(0.015625)"/>
     </defs>
     <use xlink:href="#DejaVuSans-42"/>
     <use xlink:href="#DejaVuSans-69" x="68.603516"/>
     <use xlink:href="#DejaVuSans-57" x="96.386719"/>
     <use xlink:href="#DejaVuSans-46" x="195.263672"/>
     <use xlink:href="#DejaVuSans-41" x="243.658203"/>
    </g>
   </g>
   <g id="text_13">
    <!-- A*PA (r=2) -->
    <g style="fill: #0f7a10" transform="translate(230.058464 69.237747) rotate(-89.947169) scale(0.1 -0.1)">
     <defs>
      <path id="DejaVuSans-2a" d="M 3009 3897 
L 1888 3291 
L 3009 2681 
L 2828 2375 
L 1778 3009 
L 1778 1831 
L 1422 1831 
L 1422 3009 
L 372 2375 
L 191 2681 
L 1313 3291 
L 191 3897 
L 372 4206 
L 1422 3572 
L 1422 4750 
L 1778 4750 
L 1778 3572 
L 2828 4206 
L 3009 3897 
z
" transform="scale(0.015625)"/>
      <path id="DejaVuSans-50" d="M 1259 4147 
L 1259 2394 
L 2053 2394 
Q 2494 2394 2734 2622 
Q 2975 2850 2975 3272 
Q 2975 3691 2734 3919 
Q 2494 4147 2053 4147 
L 1259 4147 
z
M 628 4666 
L 2053 4666 
Q 2838 4666 3239 4311 
Q 3641 3956 3641 3272 
Q 3641 2581 3239 2228 
Q 2838 1875 2053 1875 
L 1259 1875 
L 1259 0 
L 628 0 
L 628 4666 
z
" transform="scale(0.015625)"/>
      <path id="DejaVuSans-28" d="M 1984 4856 
Q 1566 4138 1362 3434 
Q 1159 2731 1159 2009 
Q 1159 1288 1364 580 
Q 1569 -128 1984 -844 
L 1484 -844 
Q 1016 -109 783 600 
Q 550 1309 550 2009 
Q 550 2706 781 3412 
Q 1013 4119 1484 4856 
L 1984 4856 
z
" transform="scale(0.015625)"/>
      <path id="DejaVuSans-3d" d="M 678 2906 
L 4684 2906 
L 4684 2381 
L 678 2381 
L 678 2906 
z
M 678 1631 
L 4684 1631 
L 4684 1100 
L 678 1100 
L 678 1631 
z
" transform="scale(0.015625)"/>
      <path id="DejaVuSans-29" d="M 513 4856 
L 1013 4856 
Q 1481 4119 1714 3412 
Q 1947 2706 1947 2009 
Q 1947 1309 1714 600 
Q 1481 -109 1013 -844 
L 513 -844 
Q 928 -128 1133 580 
Q 1338 1288 1338 2009 
Q 1338 2731 1133 3434 
Q 928 4138 513 4856 
z
" transform="scale(0.015625)"/>
     </defs>
     <use xlink:href="#DejaVuSans-41"/>
     <use xlink:href="#DejaVuSans-2a" x="68.408203"/>
     <use xlink:href="#DejaVuSans-50" x="118.408203"/>
     <use xlink:href="#DejaVuSans-41" x="172.335938"/>
     <use xlink:href="#DejaVuSans-20" x="240.744141"/>
     <use xlink:href="#DejaVuSans-28" x="272.53125"/>
     <use xlink:href="#DejaVuSans-72" x="311.544922"/>
     <use xlink:href="#DejaVuSans-3d" x="352.658203"/>
     <use xlink:href="#DejaVuSans-32" x="436.447266"/>
     <use xlink:href="#DejaVuSans-29" x="500.070312"/>
    </g>
   </g>
   <g id="text_14">
    <!-- A*PA (r=1) (r=1) -->
    <g style="fill: #0f7a10" transform="translate(162.337078 99.070334) rotate(-89.900747) scale(0.1 -0.1)">
     <use xlink:href="#DejaVuSans-41"/>
     <use xlink:href="#DejaVuSans-2a" x="68.408203"/>
     <use xlink:href="#DejaVuSans-50" x="118.408203"/>
     <use xlink:href="#DejaVuSans-41" x="172.335938"/>
     <use xlink:href="#DejaVuSans-20" x="240.744141"/>
     <use xlink:href="#DejaVuSans-28" x="272.53125"/>
     <use xlink:href="#DejaVuSans-72" x="311.544922"/>
     <use xlink:href="#DejaVuSans-3d" x="352.658203"/>
     <use xlink:href="#DejaVuSans-31" x="436.447266"/>
     <use xlink:href="#DejaVuSans-29" x="500.070312"/>
     <use xlink:href="#DejaVuSans-20" x="539.083984"/>
     <use xlink:href="#DejaVuSans-28" x="570.871094"/>
     <use xlink:href="#DejaVuSans-72" x="609.884766"/>
     <use xlink:href="#DejaVuSans-3d" x="650.998047"/>
     <use xlink:href="#DejaVuSans-31" x="734.787109"/>
     <use xlink:href="#DejaVuSans-29" x="798.410156"/>
    </g>
   </g>
   <g id="text_15">
    <!-- A*PA2 simple -->
    <g style="fill: #aa0000" transform="translate(205.016715 44.314385) rotate(-351.957433) scale(0.1 -0.1)">
     <use xlink:href="#DejaVuSans-41"/>
     <use xlink:href="#DejaVuSans-2a" x="68.408203"/>
     <use xlink:href="#DejaVuSans-50" x="118.408203"/>
     <use xlink:href="#DejaVuSans-41" x="172.335938"/>
     <use xlink:href="#DejaVuSans-32" x="240.744141"/>
     <use xlink:href="#DejaVuSans-20" x="304.367188"/>
     <use xlink:href="#DejaVuSans-73" x="336.154297"/>
     <use xlink:href="#DejaVuSans-69" x="388.253906"/>
     <use xlink:href="#DejaVuSans-6d" x="416.037109"/>
     <use xlink:href="#DejaVuSans-70" x="513.449219"/>
     <use xlink:href="#DejaVuSans-6c" x="576.925781"/>
     <use xlink:href="#DejaVuSans-65" x="604.708984"/>
    </g>
   </g>
   <g id="text_16">
    <!-- A*PA2 full -->
    <g style="fill: #00aaaa" transform="translate(222.386586 90.649155) rotate(-352.2892) scale(0.1 -0.1)">
     <defs>
      <path id="DejaVuSans-66" d="M 2375 4863 
L 2375 4384 
L 1825 4384 
Q 1516 4384 1395 4259 
Q 1275 4134 1275 3809 
L 1275 3500 
L 2222 3500 
L 2222 3053 
L 1275 3053 
L 1275 0 
L 697 0 
L 697 3053 
L 147 3053 
L 147 3500 
L 697 3500 
L 697 3744 
Q 697 4328 969 4595 
Q 1241 4863 1831 4863 
L 2375 4863 
z
" transform="scale(0.015625)"/>
     </defs>
     <use xlink:href="#DejaVuSans-41"/>
     <use xlink:href="#DejaVuSans-2a" x="68.408203"/>
     <use xlink:href="#DejaVuSans-50" x="118.408203"/>
     <use xlink:href="#DejaVuSans-41" x="172.335938"/>
     <use xlink:href="#DejaVuSans-32" x="240.744141"/>
     <use xlink:href="#DejaVuSans-20" x="304.367188"/>
     <use xlink:href="#DejaVuSans-66" x="336.154297"/>
     <use xlink:href="#DejaVuSans-75" x="371.359375"/>
     <use xlink:href="#DejaVuSans-6c" x="434.738281"/>
     <use xlink:href="#DejaVuSans-6c" x="462.521484"/>
    </g>
   </g>
  </g>
 </g>
 <defs>
  <clipPath id="p21f48f762c">
   <rect x="36.465625" y="15.331875" width="245.52" height="166.32"/>
  </clipPath>
 </defs>
</svg>
