<?xml version="1.0" encoding="utf-8" standalone="no"?>
<!DOCTYPE svg PUBLIC "-//W3C//DTD SVG 1.1//EN"
  "http://www.w3.org/Graphics/SVG/1.1/DTD/svg11.dtd">
<svg xmlns:xlink="http://www.w3.org/1999/xlink" width="289.185625pt" height="220.597835pt" viewBox="0 0 289.185625 220.597835" xmlns="http://www.w3.org/2000/svg" version="1.1">
 <metadata>
  <rdf:RDF xmlns:dc="http://purl.org/dc/elements/1.1/" xmlns:cc="http://creativecommons.org/ns#" xmlns:rdf="http://www.w3.org/1999/02/22-rdf-syntax-ns#">
   <cc:Work>
    <dc:type rdf:resource="http://purl.org/dc/dcmitype/StillImage"/>
    <dc:date>2024-03-12T14:06:32.024236</dc:date>
    <dc:format>image/svg+xml</dc:format>
    <dc:creator>
     <cc:Agent>
      <dc:title>Matplotlib v3.8.2, https://matplotlib.org/</dc:title>
     </cc:Agent>
    </dc:creator>
   </cc:Work>
  </rdf:RDF>
 </metadata>
 <defs>
  <style type="text/css">*{stroke-linejoin: round; stroke-linecap: butt}</style>
 </defs>
 <g id="figure_1">
  <g id="patch_1">
   <path d="M 0 220.597835 
L 289.185625 220.597835 
L 289.185625 0 
L 0 0 
z
" style="fill: #ffffff"/>
  </g>
  <g id="axes_1">
   <g id="patch_2">
    <path d="M 36.465625 183.041585 
L 281.985625 183.041585 
L 281.985625 16.721585 
L 36.465625 16.721585 
z
" style="fill: #f8f8f8"/>
   </g>
   <g id="matplotlib.axis_1">
    <g id="xtick_1">
     <g id="line2d_1">
      <defs>
       <path id="ma388096975" d="M 0 0 
L 0 3.5 
" style="stroke: #000000; stroke-width: 0.8"/>
      </defs>
      <g>
       <use xlink:href="#ma388096975" x="36.465625" y="183.041585" style="stroke: #000000; stroke-width: 0.8"/>
      </g>
     </g>
     <g id="text_1">
      <!-- 0% -->
      <g transform="translate(28.533594 197.640023) scale(0.1 -0.1)">
       <defs>
        <path id="DejaVuSans-30" d="M 2034 4250 
Q 1547 4250 1301 3770 
Q 1056 3291 1056 2328 
Q 1056 1369 1301 889 
Q 1547 409 2034 409 
Q 2525 409 2770 889 
Q 3016 1369 3016 2328 
Q 3016 3291 2770 3770 
Q 2525 4250 2034 4250 
z
M 2034 4750 
Q 2819 4750 3233 4129 
Q 3647 3509 3647 2328 
Q 3647 1150 3233 529 
Q 2819 -91 2034 -91 
Q 1250 -91 836 529 
Q 422 1150 422 2328 
Q 422 3509 836 4129 
Q 1250 4750 2034 4750 
z
" transform="scale(0.015625)"/>
        <path id="DejaVuSans-25" d="M 4653 2053 
Q 4381 2053 4226 1822 
Q 4072 1591 4072 1178 
Q 4072 772 4226 539 
Q 4381 306 4653 306 
Q 4919 306 5073 539 
Q 5228 772 5228 1178 
Q 5228 1588 5073 1820 
Q 4919 2053 4653 2053 
z
M 4653 2450 
Q 5147 2450 5437 2106 
Q 5728 1763 5728 1178 
Q 5728 594 5436 251 
Q 5144 -91 4653 -91 
Q 4153 -91 3862 251 
Q 3572 594 3572 1178 
Q 3572 1766 3864 2108 
Q 4156 2450 4653 2450 
z
M 1428 4353 
Q 1159 4353 1004 4120 
Q 850 3888 850 3481 
Q 850 3069 1003 2837 
Q 1156 2606 1428 2606 
Q 1700 2606 1854 2837 
Q 2009 3069 2009 3481 
Q 2009 3884 1853 4118 
Q 1697 4353 1428 4353 
z
M 4250 4750 
L 4750 4750 
L 1831 -91 
L 1331 -91 
L 4250 4750 
z
M 1428 4750 
Q 1922 4750 2215 4408 
Q 2509 4066 2509 3481 
Q 2509 2891 2217 2550 
Q 1925 2209 1428 2209 
Q 931 2209 642 2551 
Q 353 2894 353 3481 
Q 353 4063 643 4406 
Q 934 4750 1428 4750 
z
" transform="scale(0.015625)"/>
       </defs>
       <use xlink:href="#DejaVuSans-30"/>
       <use xlink:href="#DejaVuSans-25" x="63.623047"/>
      </g>
     </g>
    </g>
    <g id="xtick_2">
     <g id="line2d_2">
      <g>
       <use xlink:href="#ma388096975" x="105.981269" y="183.041585" style="stroke: #000000; stroke-width: 0.8"/>
      </g>
     </g>
     <g id="text_2">
      <!-- 5% -->
      <g transform="translate(98.049238 197.640023) scale(0.1 -0.1)">
       <defs>
        <path id="DejaVuSans-35" d="M 691 4666 
L 3169 4666 
L 3169 4134 
L 1269 4134 
L 1269 2991 
Q 1406 3038 1543 3061 
Q 1681 3084 1819 3084 
Q 2600 3084 3056 2656 
Q 3513 2228 3513 1497 
Q 3513 744 3044 326 
Q 2575 -91 1722 -91 
Q 1428 -91 1123 -41 
Q 819 9 494 109 
L 494 744 
Q 775 591 1075 516 
Q 1375 441 1709 441 
Q 2250 441 2565 725 
Q 2881 1009 2881 1497 
Q 2881 1984 2565 2268 
Q 2250 2553 1709 2553 
Q 1456 2553 1204 2497 
Q 953 2441 691 2322 
L 691 4666 
z
" transform="scale(0.015625)"/>
       </defs>
       <use xlink:href="#DejaVuSans-35"/>
       <use xlink:href="#DejaVuSans-25" x="63.623047"/>
      </g>
     </g>
    </g>
    <g id="xtick_3">
     <g id="line2d_3">
      <g>
       <use xlink:href="#ma388096975" x="175.496913" y="183.041585" style="stroke: #000000; stroke-width: 0.8"/>
      </g>
     </g>
     <g id="text_3">
      <!-- 10% -->
      <g transform="translate(164.383631 197.640023) scale(0.1 -0.1)">
       <defs>
        <path id="DejaVuSans-31" d="M 794 531 
L 1825 531 
L 1825 4091 
L 703 3866 
L 703 4441 
L 1819 4666 
L 2450 4666 
L 2450 531 
L 3481 531 
L 3481 0 
L 794 0 
L 794 531 
z
" transform="scale(0.015625)"/>
       </defs>
       <use xlink:href="#DejaVuSans-31"/>
       <use xlink:href="#DejaVuSans-30" x="63.623047"/>
       <use xlink:href="#DejaVuSans-25" x="127.246094"/>
      </g>
     </g>
    </g>
    <g id="xtick_4">
     <g id="line2d_4">
      <g>
       <use xlink:href="#ma388096975" x="245.012556" y="183.041585" style="stroke: #000000; stroke-width: 0.8"/>
      </g>
     </g>
     <g id="text_4">
      <!-- 15% -->
      <g transform="translate(233.899275 197.640023) scale(0.1 -0.1)">
       <use xlink:href="#DejaVuSans-31"/>
       <use xlink:href="#DejaVuSans-35" x="63.623047"/>
       <use xlink:href="#DejaVuSans-25" x="127.246094"/>
      </g>
     </g>
    </g>
    <g id="text_5">
     <!-- Divergence -->
     <g transform="translate(130.737344 211.318148) scale(0.1 -0.1)">
      <defs>
       <path id="DejaVuSans-44" d="M 1259 4147 
L 1259 519 
L 2022 519 
Q 2988 519 3436 956 
Q 3884 1394 3884 2338 
Q 3884 3275 3436 3711 
Q 2988 4147 2022 4147 
L 1259 4147 
z
M 628 4666 
L 1925 4666 
Q 3281 4666 3915 4102 
Q 4550 3538 4550 2338 
Q 4550 1131 3912 565 
Q 3275 0 1925 0 
L 628 0 
L 628 4666 
z
" transform="scale(0.015625)"/>
       <path id="DejaVuSans-69" d="M 603 3500 
L 1178 3500 
L 1178 0 
L 603 0 
L 603 3500 
z
M 603 4863 
L 1178 4863 
L 1178 4134 
L 603 4134 
L 603 4863 
z
" transform="scale(0.015625)"/>
       <path id="DejaVuSans-76" d="M 191 3500 
L 800 3500 
L 1894 563 
L 2988 3500 
L 3597 3500 
L 2284 0 
L 1503 0 
L 191 3500 
z
" transform="scale(0.015625)"/>
       <path id="DejaVuSans-65" d="M 3597 1894 
L 3597 1613 
L 953 1613 
Q 991 1019 1311 708 
Q 1631 397 2203 397 
Q 2534 397 2845 478 
Q 3156 559 3463 722 
L 3463 178 
Q 3153 47 2828 -22 
Q 2503 -91 2169 -91 
Q 1331 -91 842 396 
Q 353 884 353 1716 
Q 353 2575 817 3079 
Q 1281 3584 2069 3584 
Q 2775 3584 3186 3129 
Q 3597 2675 3597 1894 
z
M 3022 2063 
Q 3016 2534 2758 2815 
Q 2500 3097 2075 3097 
Q 1594 3097 1305 2825 
Q 1016 2553 972 2059 
L 3022 2063 
z
" transform="scale(0.015625)"/>
       <path id="DejaVuSans-72" d="M 2631 2963 
Q 2534 3019 2420 3045 
Q 2306 3072 2169 3072 
Q 1681 3072 1420 2755 
Q 1159 2438 1159 1844 
L 1159 0 
L 581 0 
L 581 3500 
L 1159 3500 
L 1159 2956 
Q 1341 3275 1631 3429 
Q 1922 3584 2338 3584 
Q 2397 3584 2469 3576 
Q 2541 3569 2628 3553 
L 2631 2963 
z
" transform="scale(0.015625)"/>
       <path id="DejaVuSans-67" d="M 2906 1791 
Q 2906 2416 2648 2759 
Q 2391 3103 1925 3103 
Q 1463 3103 1205 2759 
Q 947 2416 947 1791 
Q 947 1169 1205 825 
Q 1463 481 1925 481 
Q 2391 481 2648 825 
Q 2906 1169 2906 1791 
z
M 3481 434 
Q 3481 -459 3084 -895 
Q 2688 -1331 1869 -1331 
Q 1566 -1331 1297 -1286 
Q 1028 -1241 775 -1147 
L 775 -588 
Q 1028 -725 1275 -790 
Q 1522 -856 1778 -856 
Q 2344 -856 2625 -561 
Q 2906 -266 2906 331 
L 2906 616 
Q 2728 306 2450 153 
Q 2172 0 1784 0 
Q 1141 0 747 490 
Q 353 981 353 1791 
Q 353 2603 747 3093 
Q 1141 3584 1784 3584 
Q 2172 3584 2450 3431 
Q 2728 3278 2906 2969 
L 2906 3500 
L 3481 3500 
L 3481 434 
z
" transform="scale(0.015625)"/>
       <path id="DejaVuSans-6e" d="M 3513 2113 
L 3513 0 
L 2938 0 
L 2938 2094 
Q 2938 2591 2744 2837 
Q 2550 3084 2163 3084 
Q 1697 3084 1428 2787 
Q 1159 2491 1159 1978 
L 1159 0 
L 581 0 
L 581 3500 
L 1159 3500 
L 1159 2956 
Q 1366 3272 1645 3428 
Q 1925 3584 2291 3584 
Q 2894 3584 3203 3211 
Q 3513 2838 3513 2113 
z
" transform="scale(0.015625)"/>
       <path id="DejaVuSans-63" d="M 3122 3366 
L 3122 2828 
Q 2878 2963 2633 3030 
Q 2388 3097 2138 3097 
Q 1578 3097 1268 2742 
Q 959 2388 959 1747 
Q 959 1106 1268 751 
Q 1578 397 2138 397 
Q 2388 397 2633 464 
Q 2878 531 3122 666 
L 3122 134 
Q 2881 22 2623 -34 
Q 2366 -91 2075 -91 
Q 1284 -91 818 406 
Q 353 903 353 1747 
Q 353 2603 823 3093 
Q 1294 3584 2113 3584 
Q 2378 3584 2631 3529 
Q 2884 3475 3122 3366 
z
" transform="scale(0.015625)"/>
      </defs>
      <use xlink:href="#DejaVuSans-44"/>
      <use xlink:href="#DejaVuSans-69" x="77.001953"/>
      <use xlink:href="#DejaVuSans-76" x="104.785156"/>
      <use xlink:href="#DejaVuSans-65" x="163.964844"/>
      <use xlink:href="#DejaVuSans-72" x="225.488281"/>
      <use xlink:href="#DejaVuSans-67" x="264.851562"/>
      <use xlink:href="#DejaVuSans-65" x="328.328125"/>
      <use xlink:href="#DejaVuSans-6e" x="389.851562"/>
      <use xlink:href="#DejaVuSans-63" x="453.230469"/>
      <use xlink:href="#DejaVuSans-65" x="508.210938"/>
     </g>
    </g>
   </g>
   <g id="matplotlib.axis_2">
    <g id="ytick_1">
     <g id="line2d_5">
      <path d="M 36.465625 183.041585 
L 281.985625 183.041585 
" clip-path="url(#p7244dd7ab4)" style="fill: none; stroke: #ffffff; stroke-width: 0.8; stroke-linecap: square"/>
     </g>
     <g id="line2d_6">
      <defs>
       <path id="mb62557e0d4" d="M 0 0 
L -3.5 0 
" style="stroke: #000000; stroke-width: 0.8"/>
      </defs>
      <g>
       <use xlink:href="#mb62557e0d4" x="36.465625" y="183.041585" style="stroke: #000000; stroke-width: 0.8"/>
      </g>
     </g>
     <g id="text_6">
      <!-- 0.00 -->
      <g transform="translate(7.2 186.840804) scale(0.1 -0.1)">
       <defs>
        <path id="DejaVuSans-2e" d="M 684 794 
L 1344 794 
L 1344 0 
L 684 0 
L 684 794 
z
" transform="scale(0.015625)"/>
       </defs>
       <use xlink:href="#DejaVuSans-30"/>
       <use xlink:href="#DejaVuSans-2e" x="63.623047"/>
       <use xlink:href="#DejaVuSans-30" x="95.410156"/>
       <use xlink:href="#DejaVuSans-30" x="159.033203"/>
      </g>
     </g>
    </g>
    <g id="ytick_2">
     <g id="line2d_7">
      <path d="M 36.465625 153.341585 
L 281.985625 153.341585 
" clip-path="url(#p7244dd7ab4)" style="fill: none; stroke: #ffffff; stroke-width: 0.8; stroke-linecap: square"/>
     </g>
     <g id="line2d_8">
      <g>
       <use xlink:href="#mb62557e0d4" x="36.465625" y="153.341585" style="stroke: #000000; stroke-width: 0.8"/>
      </g>
     </g>
     <g id="text_7">
      <!-- 0.05 -->
      <g transform="translate(7.2 157.140804) scale(0.1 -0.1)">
       <use xlink:href="#DejaVuSans-30"/>
       <use xlink:href="#DejaVuSans-2e" x="63.623047"/>
       <use xlink:href="#DejaVuSans-30" x="95.410156"/>
       <use xlink:href="#DejaVuSans-35" x="159.033203"/>
      </g>
     </g>
    </g>
    <g id="ytick_3">
     <g id="line2d_9">
      <path d="M 36.465625 123.641585 
L 281.985625 123.641585 
" clip-path="url(#p7244dd7ab4)" style="fill: none; stroke: #ffffff; stroke-width: 0.8; stroke-linecap: square"/>
     </g>
     <g id="line2d_10">
      <g>
       <use xlink:href="#mb62557e0d4" x="36.465625" y="123.641585" style="stroke: #000000; stroke-width: 0.8"/>
      </g>
     </g>
     <g id="text_8">
      <!-- 0.10 -->
      <g transform="translate(7.2 127.440804) scale(0.1 -0.1)">
       <use xlink:href="#DejaVuSans-30"/>
       <use xlink:href="#DejaVuSans-2e" x="63.623047"/>
       <use xlink:href="#DejaVuSans-31" x="95.410156"/>
       <use xlink:href="#DejaVuSans-30" x="159.033203"/>
      </g>
     </g>
    </g>
    <g id="ytick_4">
     <g id="line2d_11">
      <path d="M 36.465625 93.941585 
L 281.985625 93.941585 
" clip-path="url(#p7244dd7ab4)" style="fill: none; stroke: #ffffff; stroke-width: 0.8; stroke-linecap: square"/>
     </g>
     <g id="line2d_12">
      <g>
       <use xlink:href="#mb62557e0d4" x="36.465625" y="93.941585" style="stroke: #000000; stroke-width: 0.8"/>
      </g>
     </g>
     <g id="text_9">
      <!-- 0.15 -->
      <g transform="translate(7.2 97.740804) scale(0.1 -0.1)">
       <use xlink:href="#DejaVuSans-30"/>
       <use xlink:href="#DejaVuSans-2e" x="63.623047"/>
       <use xlink:href="#DejaVuSans-31" x="95.410156"/>
       <use xlink:href="#DejaVuSans-35" x="159.033203"/>
      </g>
     </g>
    </g>
    <g id="ytick_5">
     <g id="line2d_13">
      <path d="M 36.465625 64.241585 
L 281.985625 64.241585 
" clip-path="url(#p7244dd7ab4)" style="fill: none; stroke: #ffffff; stroke-width: 0.8; stroke-linecap: square"/>
     </g>
     <g id="line2d_14">
      <g>
       <use xlink:href="#mb62557e0d4" x="36.465625" y="64.241585" style="stroke: #000000; stroke-width: 0.8"/>
      </g>
     </g>
     <g id="text_10">
      <!-- 0.20 -->
      <g transform="translate(7.2 68.040804) scale(0.1 -0.1)">
       <defs>
        <path id="DejaVuSans-32" d="M 1228 531 
L 3431 531 
L 3431 0 
L 469 0 
L 469 531 
Q 828 903 1448 1529 
Q 2069 2156 2228 2338 
Q 2531 2678 2651 2914 
Q 2772 3150 2772 3378 
Q 2772 3750 2511 3984 
Q 2250 4219 1831 4219 
Q 1534 4219 1204 4116 
Q 875 4013 500 3803 
L 500 4441 
Q 881 4594 1212 4672 
Q 1544 4750 1819 4750 
Q 2544 4750 2975 4387 
Q 3406 4025 3406 3419 
Q 3406 3131 3298 2873 
Q 3191 2616 2906 2266 
Q 2828 2175 2409 1742 
Q 1991 1309 1228 531 
z
" transform="scale(0.015625)"/>
       </defs>
       <use xlink:href="#DejaVuSans-30"/>
       <use xlink:href="#DejaVuSans-2e" x="63.623047"/>
       <use xlink:href="#DejaVuSans-32" x="95.410156"/>
       <use xlink:href="#DejaVuSans-30" x="159.033203"/>
      </g>
     </g>
    </g>
    <g id="ytick_6">
     <g id="line2d_15">
      <path d="M 36.465625 34.541585 
L 281.985625 34.541585 
" clip-path="url(#p7244dd7ab4)" style="fill: none; stroke: #ffffff; stroke-width: 0.8; stroke-linecap: square"/>
     </g>
     <g id="line2d_16">
      <g>
       <use xlink:href="#mb62557e0d4" x="36.465625" y="34.541585" style="stroke: #000000; stroke-width: 0.8"/>
      </g>
     </g>
     <g id="text_11">
      <!-- 0.25 -->
      <g transform="translate(7.2 38.340804) scale(0.1 -0.1)">
       <use xlink:href="#DejaVuSans-30"/>
       <use xlink:href="#DejaVuSans-2e" x="63.623047"/>
       <use xlink:href="#DejaVuSans-32" x="95.410156"/>
       <use xlink:href="#DejaVuSans-35" x="159.033203"/>
      </g>
     </g>
    </g>
    <g id="text_12">
     <!-- Avg. runtime per alignment [s] -->
     <g transform="translate(8.565625 14.641898) scale(0.1 -0.1)">
      <defs>
       <path id="DejaVuSans-41" d="M 2188 4044 
L 1331 1722 
L 3047 1722 
L 2188 4044 
z
M 1831 4666 
L 2547 4666 
L 4325 0 
L 3669 0 
L 3244 1197 
L 1141 1197 
L 716 0 
L 50 0 
L 1831 4666 
z
" transform="scale(0.015625)"/>
       <path id="DejaVuSans-20" transform="scale(0.015625)"/>
       <path id="DejaVuSans-75" d="M 544 1381 
L 544 3500 
L 1119 3500 
L 1119 1403 
Q 1119 906 1312 657 
Q 1506 409 1894 409 
Q 2359 409 2629 706 
Q 2900 1003 2900 1516 
L 2900 3500 
L 3475 3500 
L 3475 0 
L 2900 0 
L 2900 538 
Q 2691 219 2414 64 
Q 2138 -91 1772 -91 
Q 1169 -91 856 284 
Q 544 659 544 1381 
z
M 1991 3584 
L 1991 3584 
z
" transform="scale(0.015625)"/>
       <path id="DejaVuSans-74" d="M 1172 4494 
L 1172 3500 
L 2356 3500 
L 2356 3053 
L 1172 3053 
L 1172 1153 
Q 1172 725 1289 603 
Q 1406 481 1766 481 
L 2356 481 
L 2356 0 
L 1766 0 
Q 1100 0 847 248 
Q 594 497 594 1153 
L 594 3053 
L 172 3053 
L 172 3500 
L 594 3500 
L 594 4494 
L 1172 4494 
z
" transform="scale(0.015625)"/>
       <path id="DejaVuSans-6d" d="M 3328 2828 
Q 3544 3216 3844 3400 
Q 4144 3584 4550 3584 
Q 5097 3584 5394 3201 
Q 5691 2819 5691 2113 
L 5691 0 
L 5113 0 
L 5113 2094 
Q 5113 2597 4934 2840 
Q 4756 3084 4391 3084 
Q 3944 3084 3684 2787 
Q 3425 2491 3425 1978 
L 3425 0 
L 2847 0 
L 2847 2094 
Q 2847 2600 2669 2842 
Q 2491 3084 2119 3084 
Q 1678 3084 1418 2786 
Q 1159 2488 1159 1978 
L 1159 0 
L 581 0 
L 581 3500 
L 1159 3500 
L 1159 2956 
Q 1356 3278 1631 3431 
Q 1906 3584 2284 3584 
Q 2666 3584 2933 3390 
Q 3200 3197 3328 2828 
z
" transform="scale(0.015625)"/>
       <path id="DejaVuSans-70" d="M 1159 525 
L 1159 -1331 
L 581 -1331 
L 581 3500 
L 1159 3500 
L 1159 2969 
Q 1341 3281 1617 3432 
Q 1894 3584 2278 3584 
Q 2916 3584 3314 3078 
Q 3713 2572 3713 1747 
Q 3713 922 3314 415 
Q 2916 -91 2278 -91 
Q 1894 -91 1617 61 
Q 1341 213 1159 525 
z
M 3116 1747 
Q 3116 2381 2855 2742 
Q 2594 3103 2138 3103 
Q 1681 3103 1420 2742 
Q 1159 2381 1159 1747 
Q 1159 1113 1420 752 
Q 1681 391 2138 391 
Q 2594 391 2855 752 
Q 3116 1113 3116 1747 
z
" transform="scale(0.015625)"/>
       <path id="DejaVuSans-61" d="M 2194 1759 
Q 1497 1759 1228 1600 
Q 959 1441 959 1056 
Q 959 750 1161 570 
Q 1363 391 1709 391 
Q 2188 391 2477 730 
Q 2766 1069 2766 1631 
L 2766 1759 
L 2194 1759 
z
M 3341 1997 
L 3341 0 
L 2766 0 
L 2766 531 
Q 2569 213 2275 61 
Q 1981 -91 1556 -91 
Q 1019 -91 701 211 
Q 384 513 384 1019 
Q 384 1609 779 1909 
Q 1175 2209 1959 2209 
L 2766 2209 
L 2766 2266 
Q 2766 2663 2505 2880 
Q 2244 3097 1772 3097 
Q 1472 3097 1187 3025 
Q 903 2953 641 2809 
L 641 3341 
Q 956 3463 1253 3523 
Q 1550 3584 1831 3584 
Q 2591 3584 2966 3190 
Q 3341 2797 3341 1997 
z
" transform="scale(0.015625)"/>
       <path id="DejaVuSans-6c" d="M 603 4863 
L 1178 4863 
L 1178 0 
L 603 0 
L 603 4863 
z
" transform="scale(0.015625)"/>
       <path id="DejaVuSans-5b" d="M 550 4863 
L 1875 4863 
L 1875 4416 
L 1125 4416 
L 1125 -397 
L 1875 -397 
L 1875 -844 
L 550 -844 
L 550 4863 
z
" transform="scale(0.015625)"/>
       <path id="DejaVuSans-73" d="M 2834 3397 
L 2834 2853 
Q 2591 2978 2328 3040 
Q 2066 3103 1784 3103 
Q 1356 3103 1142 2972 
Q 928 2841 928 2578 
Q 928 2378 1081 2264 
Q 1234 2150 1697 2047 
L 1894 2003 
Q 2506 1872 2764 1633 
Q 3022 1394 3022 966 
Q 3022 478 2636 193 
Q 2250 -91 1575 -91 
Q 1294 -91 989 -36 
Q 684 19 347 128 
L 347 722 
Q 666 556 975 473 
Q 1284 391 1588 391 
Q 1994 391 2212 530 
Q 2431 669 2431 922 
Q 2431 1156 2273 1281 
Q 2116 1406 1581 1522 
L 1381 1569 
Q 847 1681 609 1914 
Q 372 2147 372 2553 
Q 372 3047 722 3315 
Q 1072 3584 1716 3584 
Q 2034 3584 2315 3537 
Q 2597 3491 2834 3397 
z
" transform="scale(0.015625)"/>
       <path id="DejaVuSans-5d" d="M 1947 4863 
L 1947 -844 
L 622 -844 
L 622 -397 
L 1369 -397 
L 1369 4416 
L 622 4416 
L 622 4863 
L 1947 4863 
z
" transform="scale(0.015625)"/>
      </defs>
      <use xlink:href="#DejaVuSans-41"/>
      <use xlink:href="#DejaVuSans-76" x="62.533203"/>
      <use xlink:href="#DejaVuSans-67" x="121.712891"/>
      <use xlink:href="#DejaVuSans-2e" x="185.189453"/>
      <use xlink:href="#DejaVuSans-20" x="216.976562"/>
      <use xlink:href="#DejaVuSans-72" x="248.763672"/>
      <use xlink:href="#DejaVuSans-75" x="289.876953"/>
      <use xlink:href="#DejaVuSans-6e" x="353.255859"/>
      <use xlink:href="#DejaVuSans-74" x="416.634766"/>
      <use xlink:href="#DejaVuSans-69" x="455.84375"/>
      <use xlink:href="#DejaVuSans-6d" x="483.626953"/>
      <use xlink:href="#DejaVuSans-65" x="581.039062"/>
      <use xlink:href="#DejaVuSans-20" x="642.5625"/>
      <use xlink:href="#DejaVuSans-70" x="674.349609"/>
      <use xlink:href="#DejaVuSans-65" x="737.826172"/>
      <use xlink:href="#DejaVuSans-72" x="799.349609"/>
      <use xlink:href="#DejaVuSans-20" x="840.462891"/>
      <use xlink:href="#DejaVuSans-61" x="872.25"/>
      <use xlink:href="#DejaVuSans-6c" x="933.529297"/>
      <use xlink:href="#DejaVuSans-69" x="961.3125"/>
      <use xlink:href="#DejaVuSans-67" x="989.095703"/>
      <use xlink:href="#DejaVuSans-6e" x="1052.572266"/>
      <use xlink:href="#DejaVuSans-6d" x="1115.951172"/>
      <use xlink:href="#DejaVuSans-65" x="1213.363281"/>
      <use xlink:href="#DejaVuSans-6e" x="1274.886719"/>
      <use xlink:href="#DejaVuSans-74" x="1338.265625"/>
      <use xlink:href="#DejaVuSans-20" x="1377.474609"/>
      <use xlink:href="#DejaVuSans-5b" x="1409.261719"/>
      <use xlink:href="#DejaVuSans-73" x="1448.275391"/>
      <use xlink:href="#DejaVuSans-5d" x="1500.375"/>
     </g>
    </g>
   </g>
   <g id="line2d_17">
    <path d="M 44.827012 148.001535 
L 53.218106 141.65296 
L 61.392199 140.628411 
L 69.435454 128.864908 
L 77.409822 128.099254 
L 85.270846 126.921501 
L 93.031947 108.935975 
L 100.702603 103.935855 
L 108.078031 103.303827 
L 115.614688 102.244874 
L 122.748885 101.061673 
L 130.018636 99.543772 
L 136.97507 98.106874 
L 143.959569 96.826822 
L 150.969049 55.179521 
L 157.755923 54.826222 
L 164.561828 53.482452 
L 171.068078 52.564763 
L 177.426795 51.738622 
L 184.19314 50.787753 
L 190.103578 49.563044 
L 196.705429 48.352923 
L 202.807342 47.063004 
L 209.022757 45.798313 
L 214.822327 44.546007 
L 220.921173 43.504244 
L 226.469266 42.607452 
L 232.187858 41.149152 
L 237.811699 40.02392 
L 243.769967 38.633574 
L 248.679227 37.428099 
L 251.281964 -1 
" clip-path="url(#p7244dd7ab4)" style="fill: none; stroke: #de4aff; stroke-width: 0.75; stroke-linecap: square"/>
    <defs>
     <path id="me9c4b129bf" d="M 0 2 
C 0.530406 2 1.03916 1.789267 1.414214 1.414214 
C 1.789267 1.03916 2 0.530406 2 0 
C 2 -0.530406 1.789267 -1.03916 1.414214 -1.414214 
C 1.03916 -1.789267 0.530406 -2 0 -2 
C -0.530406 -2 -1.03916 -1.789267 -1.414214 -1.414214 
C -1.789267 -1.03916 -2 -0.530406 -2 0 
C -2 0.530406 -1.789267 1.03916 -1.414214 1.414214 
C -1.03916 1.789267 -0.530406 2 0 2 
z
" style="stroke: #de4aff"/>
    </defs>
    <g clip-path="url(#p7244dd7ab4)">
     <use xlink:href="#me9c4b129bf" x="44.827012" y="148.001535" style="fill: #de4aff; stroke: #de4aff"/>
     <use xlink:href="#me9c4b129bf" x="53.218106" y="141.65296" style="fill: #de4aff; stroke: #de4aff"/>
     <use xlink:href="#me9c4b129bf" x="61.392199" y="140.628411" style="fill: #de4aff; stroke: #de4aff"/>
     <use xlink:href="#me9c4b129bf" x="69.435454" y="128.864908" style="fill: #de4aff; stroke: #de4aff"/>
     <use xlink:href="#me9c4b129bf" x="77.409822" y="128.099254" style="fill: #de4aff; stroke: #de4aff"/>
     <use xlink:href="#me9c4b129bf" x="85.270846" y="126.921501" style="fill: #de4aff; stroke: #de4aff"/>
     <use xlink:href="#me9c4b129bf" x="93.031947" y="108.935975" style="fill: #de4aff; stroke: #de4aff"/>
     <use xlink:href="#me9c4b129bf" x="100.702603" y="103.935855" style="fill: #de4aff; stroke: #de4aff"/>
     <use xlink:href="#me9c4b129bf" x="108.078031" y="103.303827" style="fill: #de4aff; stroke: #de4aff"/>
     <use xlink:href="#me9c4b129bf" x="115.614688" y="102.244874" style="fill: #de4aff; stroke: #de4aff"/>
     <use xlink:href="#me9c4b129bf" x="122.748885" y="101.061673" style="fill: #de4aff; stroke: #de4aff"/>
     <use xlink:href="#me9c4b129bf" x="130.018636" y="99.543772" style="fill: #de4aff; stroke: #de4aff"/>
     <use xlink:href="#me9c4b129bf" x="136.97507" y="98.106874" style="fill: #de4aff; stroke: #de4aff"/>
     <use xlink:href="#me9c4b129bf" x="143.959569" y="96.826822" style="fill: #de4aff; stroke: #de4aff"/>
     <use xlink:href="#me9c4b129bf" x="150.969049" y="55.179521" style="fill: #de4aff; stroke: #de4aff"/>
     <use xlink:href="#me9c4b129bf" x="157.755923" y="54.826222" style="fill: #de4aff; stroke: #de4aff"/>
     <use xlink:href="#me9c4b129bf" x="164.561828" y="53.482452" style="fill: #de4aff; stroke: #de4aff"/>
     <use xlink:href="#me9c4b129bf" x="171.068078" y="52.564763" style="fill: #de4aff; stroke: #de4aff"/>
     <use xlink:href="#me9c4b129bf" x="177.426795" y="51.738622" style="fill: #de4aff; stroke: #de4aff"/>
     <use xlink:href="#me9c4b129bf" x="184.19314" y="50.787753" style="fill: #de4aff; stroke: #de4aff"/>
     <use xlink:href="#me9c4b129bf" x="190.103578" y="49.563044" style="fill: #de4aff; stroke: #de4aff"/>
     <use xlink:href="#me9c4b129bf" x="196.705429" y="48.352923" style="fill: #de4aff; stroke: #de4aff"/>
     <use xlink:href="#me9c4b129bf" x="202.807342" y="47.063004" style="fill: #de4aff; stroke: #de4aff"/>
     <use xlink:href="#me9c4b129bf" x="209.022757" y="45.798313" style="fill: #de4aff; stroke: #de4aff"/>
     <use xlink:href="#me9c4b129bf" x="214.822327" y="44.546007" style="fill: #de4aff; stroke: #de4aff"/>
     <use xlink:href="#me9c4b129bf" x="220.921173" y="43.504244" style="fill: #de4aff; stroke: #de4aff"/>
     <use xlink:href="#me9c4b129bf" x="226.469266" y="42.607452" style="fill: #de4aff; stroke: #de4aff"/>
     <use xlink:href="#me9c4b129bf" x="232.187858" y="41.149152" style="fill: #de4aff; stroke: #de4aff"/>
     <use xlink:href="#me9c4b129bf" x="237.811699" y="40.02392" style="fill: #de4aff; stroke: #de4aff"/>
     <use xlink:href="#me9c4b129bf" x="243.769967" y="38.633574" style="fill: #de4aff; stroke: #de4aff"/>
     <use xlink:href="#me9c4b129bf" x="248.679227" y="37.428099" style="fill: #de4aff; stroke: #de4aff"/>
     <use xlink:href="#me9c4b129bf" x="251.281964" y="-1" style="fill: #de4aff; stroke: #de4aff"/>
    </g>
   </g>
   <g id="line2d_18">
    <path d="M 44.827012 181.878979 
L 53.218106 179.470979 
L 61.392199 175.871392 
L 69.435454 170.674963 
L 77.409822 164.490395 
L 85.270846 157.15631 
L 93.031947 148.183586 
L 100.702603 138.464665 
L 108.078031 127.750468 
L 115.614688 115.771252 
L 122.748885 103.24909 
L 130.018636 89.396963 
L 136.97507 75.063594 
L 143.959569 59.759143 
L 150.969049 42.471206 
L 157.755923 25.205414 
L 164.561828 6.906329 
L 167.332673 -1 
" clip-path="url(#p7244dd7ab4)" style="fill: none; stroke: #625aff; stroke-width: 0.75; stroke-linecap: square"/>
    <defs>
     <path id="mfe88b172b6" d="M 0 2 
C 0.530406 2 1.03916 1.789267 1.414214 1.414214 
C 1.789267 1.03916 2 0.530406 2 0 
C 2 -0.530406 1.789267 -1.03916 1.414214 -1.414214 
C 1.03916 -1.789267 0.530406 -2 0 -2 
C -0.530406 -2 -1.03916 -1.789267 -1.414214 -1.414214 
C -1.789267 -1.03916 -2 -0.530406 -2 0 
C -2 0.530406 -1.789267 1.03916 -1.414214 1.414214 
C -1.03916 1.789267 -0.530406 2 0 2 
z
" style="stroke: #625aff"/>
    </defs>
    <g clip-path="url(#p7244dd7ab4)">
     <use xlink:href="#mfe88b172b6" x="44.827012" y="181.878979" style="fill: #625aff; stroke: #625aff"/>
     <use xlink:href="#mfe88b172b6" x="53.218106" y="179.470979" style="fill: #625aff; stroke: #625aff"/>
     <use xlink:href="#mfe88b172b6" x="61.392199" y="175.871392" style="fill: #625aff; stroke: #625aff"/>
     <use xlink:href="#mfe88b172b6" x="69.435454" y="170.674963" style="fill: #625aff; stroke: #625aff"/>
     <use xlink:href="#mfe88b172b6" x="77.409822" y="164.490395" style="fill: #625aff; stroke: #625aff"/>
     <use xlink:href="#mfe88b172b6" x="85.270846" y="157.15631" style="fill: #625aff; stroke: #625aff"/>
     <use xlink:href="#mfe88b172b6" x="93.031947" y="148.183586" style="fill: #625aff; stroke: #625aff"/>
     <use xlink:href="#mfe88b172b6" x="100.702603" y="138.464665" style="fill: #625aff; stroke: #625aff"/>
     <use xlink:href="#mfe88b172b6" x="108.078031" y="127.750468" style="fill: #625aff; stroke: #625aff"/>
     <use xlink:href="#mfe88b172b6" x="115.614688" y="115.771252" style="fill: #625aff; stroke: #625aff"/>
     <use xlink:href="#mfe88b172b6" x="122.748885" y="103.24909" style="fill: #625aff; stroke: #625aff"/>
     <use xlink:href="#mfe88b172b6" x="130.018636" y="89.396963" style="fill: #625aff; stroke: #625aff"/>
     <use xlink:href="#mfe88b172b6" x="136.97507" y="75.063594" style="fill: #625aff; stroke: #625aff"/>
     <use xlink:href="#mfe88b172b6" x="143.959569" y="59.759143" style="fill: #625aff; stroke: #625aff"/>
     <use xlink:href="#mfe88b172b6" x="150.969049" y="42.471206" style="fill: #625aff; stroke: #625aff"/>
     <use xlink:href="#mfe88b172b6" x="157.755923" y="25.205414" style="fill: #625aff; stroke: #625aff"/>
     <use xlink:href="#mfe88b172b6" x="164.561828" y="6.906329" style="fill: #625aff; stroke: #625aff"/>
     <use xlink:href="#mfe88b172b6" x="167.332673" y="-1" style="fill: #625aff; stroke: #625aff"/>
    </g>
   </g>
   <g id="line2d_19">
    <path d="M 44.827012 162.700945 
L 53.218106 162.498418 
L 61.392199 163.16219 
L 69.435454 163.080438 
L 77.409822 163.180203 
L 85.270846 163.642106 
L 93.031947 163.685564 
L 100.702603 163.64181 
L 108.078031 163.976826 
L 115.614688 163.808544 
L 122.748885 163.8342 
L 130.018636 163.752424 
L 136.97507 163.581896 
L 143.959569 162.56236 
L 150.969049 161.038531 
L 157.755923 159.658455 
L 164.561828 158.097963 
L 171.068078 156.631538 
L 177.426795 154.273492 
L 184.19314 151.51026 
L 190.103578 146.986047 
L 196.705429 138.458143 
L 202.807342 121.126387 
L 209.022757 64.532176 
L 209.692471 -1 
" clip-path="url(#p7244dd7ab4)" style="fill: none; stroke: #0f7a10; stroke-width: 0.75; stroke-linecap: square"/>
    <defs>
     <path id="m50b7ee0023" d="M 0 2 
C 0.530406 2 1.03916 1.789267 1.414214 1.414214 
C 1.789267 1.03916 2 0.530406 2 0 
C 2 -0.530406 1.789267 -1.03916 1.414214 -1.414214 
C 1.03916 -1.789267 0.530406 -2 0 -2 
C -0.530406 -2 -1.03916 -1.789267 -1.414214 -1.414214 
C -1.789267 -1.03916 -2 -0.530406 -2 0 
C -2 0.530406 -1.789267 1.03916 -1.414214 1.414214 
C -1.03916 1.789267 -0.530406 2 0 2 
z
" style="stroke: #0f7a10"/>
    </defs>
    <g clip-path="url(#p7244dd7ab4)">
     <use xlink:href="#m50b7ee0023" x="44.827012" y="162.700945" style="fill: #0f7a10; stroke: #0f7a10"/>
     <use xlink:href="#m50b7ee0023" x="53.218106" y="162.498418" style="fill: #0f7a10; stroke: #0f7a10"/>
     <use xlink:href="#m50b7ee0023" x="61.392199" y="163.16219" style="fill: #0f7a10; stroke: #0f7a10"/>
     <use xlink:href="#m50b7ee0023" x="69.435454" y="163.080438" style="fill: #0f7a10; stroke: #0f7a10"/>
     <use xlink:href="#m50b7ee0023" x="77.409822" y="163.180203" style="fill: #0f7a10; stroke: #0f7a10"/>
     <use xlink:href="#m50b7ee0023" x="85.270846" y="163.642106" style="fill: #0f7a10; stroke: #0f7a10"/>
     <use xlink:href="#m50b7ee0023" x="93.031947" y="163.685564" style="fill: #0f7a10; stroke: #0f7a10"/>
     <use xlink:href="#m50b7ee0023" x="100.702603" y="163.64181" style="fill: #0f7a10; stroke: #0f7a10"/>
     <use xlink:href="#m50b7ee0023" x="108.078031" y="163.976826" style="fill: #0f7a10; stroke: #0f7a10"/>
     <use xlink:href="#m50b7ee0023" x="115.614688" y="163.808544" style="fill: #0f7a10; stroke: #0f7a10"/>
     <use xlink:href="#m50b7ee0023" x="122.748885" y="163.8342" style="fill: #0f7a10; stroke: #0f7a10"/>
     <use xlink:href="#m50b7ee0023" x="130.018636" y="163.752424" style="fill: #0f7a10; stroke: #0f7a10"/>
     <use xlink:href="#m50b7ee0023" x="136.97507" y="163.581896" style="fill: #0f7a10; stroke: #0f7a10"/>
     <use xlink:href="#m50b7ee0023" x="143.959569" y="162.56236" style="fill: #0f7a10; stroke: #0f7a10"/>
     <use xlink:href="#m50b7ee0023" x="150.969049" y="161.038531" style="fill: #0f7a10; stroke: #0f7a10"/>
     <use xlink:href="#m50b7ee0023" x="157.755923" y="159.658455" style="fill: #0f7a10; stroke: #0f7a10"/>
     <use xlink:href="#m50b7ee0023" x="164.561828" y="158.097963" style="fill: #0f7a10; stroke: #0f7a10"/>
     <use xlink:href="#m50b7ee0023" x="171.068078" y="156.631538" style="fill: #0f7a10; stroke: #0f7a10"/>
     <use xlink:href="#m50b7ee0023" x="177.426795" y="154.273492" style="fill: #0f7a10; stroke: #0f7a10"/>
     <use xlink:href="#m50b7ee0023" x="184.19314" y="151.51026" style="fill: #0f7a10; stroke: #0f7a10"/>
     <use xlink:href="#m50b7ee0023" x="190.103578" y="146.986047" style="fill: #0f7a10; stroke: #0f7a10"/>
     <use xlink:href="#m50b7ee0023" x="196.705429" y="138.458143" style="fill: #0f7a10; stroke: #0f7a10"/>
     <use xlink:href="#m50b7ee0023" x="202.807342" y="121.126387" style="fill: #0f7a10; stroke: #0f7a10"/>
     <use xlink:href="#m50b7ee0023" x="209.022757" y="64.532176" style="fill: #0f7a10; stroke: #0f7a10"/>
     <use xlink:href="#m50b7ee0023" x="209.692471" y="-1" style="fill: #0f7a10; stroke: #0f7a10"/>
    </g>
   </g>
   <g id="line2d_20">
    <path d="M 44.827012 179.628308 
L 53.218106 179.537153 
L 61.392199 179.476568 
L 69.435454 179.45258 
L 77.409822 179.276012 
L 85.270846 178.706274 
L 93.031947 178.093028 
L 100.702603 176.822252 
L 108.078031 174.690557 
L 115.614688 170.899382 
L 122.748885 156.200184 
L 126.973874 -1 
" clip-path="url(#p7244dd7ab4)" style="fill: none; stroke: #0f7a10; stroke-width: 0.75; stroke-linecap: square"/>
    <g clip-path="url(#p7244dd7ab4)">
     <use xlink:href="#m50b7ee0023" x="44.827012" y="179.628308" style="fill: #0f7a10; stroke: #0f7a10"/>
     <use xlink:href="#m50b7ee0023" x="53.218106" y="179.537153" style="fill: #0f7a10; stroke: #0f7a10"/>
     <use xlink:href="#m50b7ee0023" x="61.392199" y="179.476568" style="fill: #0f7a10; stroke: #0f7a10"/>
     <use xlink:href="#m50b7ee0023" x="69.435454" y="179.45258" style="fill: #0f7a10; stroke: #0f7a10"/>
     <use xlink:href="#m50b7ee0023" x="77.409822" y="179.276012" style="fill: #0f7a10; stroke: #0f7a10"/>
     <use xlink:href="#m50b7ee0023" x="85.270846" y="178.706274" style="fill: #0f7a10; stroke: #0f7a10"/>
     <use xlink:href="#m50b7ee0023" x="93.031947" y="178.093028" style="fill: #0f7a10; stroke: #0f7a10"/>
     <use xlink:href="#m50b7ee0023" x="100.702603" y="176.822252" style="fill: #0f7a10; stroke: #0f7a10"/>
     <use xlink:href="#m50b7ee0023" x="108.078031" y="174.690557" style="fill: #0f7a10; stroke: #0f7a10"/>
     <use xlink:href="#m50b7ee0023" x="115.614688" y="170.899382" style="fill: #0f7a10; stroke: #0f7a10"/>
     <use xlink:href="#m50b7ee0023" x="122.748885" y="156.200184" style="fill: #0f7a10; stroke: #0f7a10"/>
     <use xlink:href="#m50b7ee0023" x="126.973874" y="-1" style="fill: #0f7a10; stroke: #0f7a10"/>
    </g>
   </g>
   <g id="line2d_21">
    <path d="M 44.827012 180.096915 
L 53.218106 178.978863 
L 61.392199 179.723142 
L 69.435454 177.032587 
L 77.409822 177.739438 
L 85.270846 178.159016 
L 93.031947 177.336485 
L 100.702603 173.25692 
L 108.078031 173.788012 
L 115.614688 174.186189 
L 122.748885 174.563355 
L 130.018636 175.057042 
L 136.97507 175.392722 
L 143.959569 175.711144 
L 150.969049 164.818994 
L 157.755923 165.163653 
L 164.561828 165.757893 
L 171.068078 166.103998 
L 177.426795 166.460236 
L 184.19314 166.936182 
L 190.103578 167.046689 
L 196.705429 167.300291 
L 202.807342 167.515212 
L 209.022757 167.842407 
L 214.822327 167.917165 
L 220.921173 168.037251 
L 226.469266 168.173357 
L 232.187858 168.212023 
L 237.811699 168.340203 
L 243.769967 168.425804 
L 248.679227 168.507021 
L 254.108269 153.351509 
L 259.622568 147.062328 
L 265.200634 147.341452 
L 270.692358 147.503641 
" clip-path="url(#p7244dd7ab4)" style="fill: none; stroke: #aa0000; stroke-width: 0.75; stroke-linecap: square"/>
    <defs>
     <path id="md9d8bc869b" d="M 0 2 
C 0.530406 2 1.03916 1.789267 1.414214 1.414214 
C 1.789267 1.03916 2 0.530406 2 0 
C 2 -0.530406 1.789267 -1.03916 1.414214 -1.414214 
C 1.03916 -1.789267 0.530406 -2 0 -2 
C -0.530406 -2 -1.03916 -1.789267 -1.414214 -1.414214 
C -1.789267 -1.03916 -2 -0.530406 -2 0 
C -2 0.530406 -1.789267 1.03916 -1.414214 1.414214 
C -1.03916 1.789267 -0.530406 2 0 2 
z
" style="stroke: #aa0000"/>
    </defs>
    <g clip-path="url(#p7244dd7ab4)">
     <use xlink:href="#md9d8bc869b" x="44.827012" y="180.096915" style="fill: #aa0000; stroke: #aa0000"/>
     <use xlink:href="#md9d8bc869b" x="53.218106" y="178.978863" style="fill: #aa0000; stroke: #aa0000"/>
     <use xlink:href="#md9d8bc869b" x="61.392199" y="179.723142" style="fill: #aa0000; stroke: #aa0000"/>
     <use xlink:href="#md9d8bc869b" x="69.435454" y="177.032587" style="fill: #aa0000; stroke: #aa0000"/>
     <use xlink:href="#md9d8bc869b" x="77.409822" y="177.739438" style="fill: #aa0000; stroke: #aa0000"/>
     <use xlink:href="#md9d8bc869b" x="85.270846" y="178.159016" style="fill: #aa0000; stroke: #aa0000"/>
     <use xlink:href="#md9d8bc869b" x="93.031947" y="177.336485" style="fill: #aa0000; stroke: #aa0000"/>
     <use xlink:href="#md9d8bc869b" x="100.702603" y="173.25692" style="fill: #aa0000; stroke: #aa0000"/>
     <use xlink:href="#md9d8bc869b" x="108.078031" y="173.788012" style="fill: #aa0000; stroke: #aa0000"/>
     <use xlink:href="#md9d8bc869b" x="115.614688" y="174.186189" style="fill: #aa0000; stroke: #aa0000"/>
     <use xlink:href="#md9d8bc869b" x="122.748885" y="174.563355" style="fill: #aa0000; stroke: #aa0000"/>
     <use xlink:href="#md9d8bc869b" x="130.018636" y="175.057042" style="fill: #aa0000; stroke: #aa0000"/>
     <use xlink:href="#md9d8bc869b" x="136.97507" y="175.392722" style="fill: #aa0000; stroke: #aa0000"/>
     <use xlink:href="#md9d8bc869b" x="143.959569" y="175.711144" style="fill: #aa0000; stroke: #aa0000"/>
     <use xlink:href="#md9d8bc869b" x="150.969049" y="164.818994" style="fill: #aa0000; stroke: #aa0000"/>
     <use xlink:href="#md9d8bc869b" x="157.755923" y="165.163653" style="fill: #aa0000; stroke: #aa0000"/>
     <use xlink:href="#md9d8bc869b" x="164.561828" y="165.757893" style="fill: #aa0000; stroke: #aa0000"/>
     <use xlink:href="#md9d8bc869b" x="171.068078" y="166.103998" style="fill: #aa0000; stroke: #aa0000"/>
     <use xlink:href="#md9d8bc869b" x="177.426795" y="166.460236" style="fill: #aa0000; stroke: #aa0000"/>
     <use xlink:href="#md9d8bc869b" x="184.19314" y="166.936182" style="fill: #aa0000; stroke: #aa0000"/>
     <use xlink:href="#md9d8bc869b" x="190.103578" y="167.046689" style="fill: #aa0000; stroke: #aa0000"/>
     <use xlink:href="#md9d8bc869b" x="196.705429" y="167.300291" style="fill: #aa0000; stroke: #aa0000"/>
     <use xlink:href="#md9d8bc869b" x="202.807342" y="167.515212" style="fill: #aa0000; stroke: #aa0000"/>
     <use xlink:href="#md9d8bc869b" x="209.022757" y="167.842407" style="fill: #aa0000; stroke: #aa0000"/>
     <use xlink:href="#md9d8bc869b" x="214.822327" y="167.917165" style="fill: #aa0000; stroke: #aa0000"/>
     <use xlink:href="#md9d8bc869b" x="220.921173" y="168.037251" style="fill: #aa0000; stroke: #aa0000"/>
     <use xlink:href="#md9d8bc869b" x="226.469266" y="168.173357" style="fill: #aa0000; stroke: #aa0000"/>
     <use xlink:href="#md9d8bc869b" x="232.187858" y="168.212023" style="fill: #aa0000; stroke: #aa0000"/>
     <use xlink:href="#md9d8bc869b" x="237.811699" y="168.340203" style="fill: #aa0000; stroke: #aa0000"/>
     <use xlink:href="#md9d8bc869b" x="243.769967" y="168.425804" style="fill: #aa0000; stroke: #aa0000"/>
     <use xlink:href="#md9d8bc869b" x="248.679227" y="168.507021" style="fill: #aa0000; stroke: #aa0000"/>
     <use xlink:href="#md9d8bc869b" x="254.108269" y="153.351509" style="fill: #aa0000; stroke: #aa0000"/>
     <use xlink:href="#md9d8bc869b" x="259.622568" y="147.062328" style="fill: #aa0000; stroke: #aa0000"/>
     <use xlink:href="#md9d8bc869b" x="265.200634" y="147.341452" style="fill: #aa0000; stroke: #aa0000"/>
     <use xlink:href="#md9d8bc869b" x="270.692358" y="147.503641" style="fill: #aa0000; stroke: #aa0000"/>
    </g>
   </g>
   <g id="line2d_22">
    <path d="M 44.827012 179.130827 
L 53.218106 179.085068 
L 61.392199 179.04026 
L 69.435454 178.982214 
L 77.409822 178.885161 
L 85.270846 178.847038 
L 93.031947 178.986388 
L 100.702603 178.983768 
L 108.078031 179.043173 
L 115.614688 179.008609 
L 122.748885 179.017479 
L 130.018636 176.949187 
L 136.97507 177.533952 
L 143.959569 175.758168 
L 150.969049 176.551032 
L 157.755923 173.765014 
L 164.561828 174.694465 
L 171.068078 175.582637 
L 177.426795 170.977804 
L 184.19314 171.716903 
L 190.103578 172.324876 
L 196.705429 172.831808 
L 202.807342 166.19948 
L 209.022757 166.678031 
L 214.822327 166.93999 
L 220.921173 167.279285 
L 226.469266 167.565533 
L 232.187858 167.738298 
L 237.811699 167.915285 
L 243.769967 168.059508 
L 248.679227 168.222518 
L 254.108269 161.904366 
L 259.622568 159.380406 
L 265.200634 159.577236 
L 270.692358 159.803287 
" clip-path="url(#p7244dd7ab4)" style="fill: none; stroke: #00aaaa; stroke-width: 0.75; stroke-linecap: square"/>
    <defs>
     <path id="mfd5f4215f9" d="M 0 2 
C 0.530406 2 1.03916 1.789267 1.414214 1.414214 
C 1.789267 1.03916 2 0.530406 2 0 
C 2 -0.530406 1.789267 -1.03916 1.414214 -1.414214 
C 1.03916 -1.789267 0.530406 -2 0 -2 
C -0.530406 -2 -1.03916 -1.789267 -1.414214 -1.414214 
C -1.789267 -1.03916 -2 -0.530406 -2 0 
C -2 0.530406 -1.789267 1.03916 -1.414214 1.414214 
C -1.03916 1.789267 -0.530406 2 0 2 
z
" style="stroke: #00aaaa"/>
    </defs>
    <g clip-path="url(#p7244dd7ab4)">
     <use xlink:href="#mfd5f4215f9" x="44.827012" y="179.130827" style="fill: #00aaaa; stroke: #00aaaa"/>
     <use xlink:href="#mfd5f4215f9" x="53.218106" y="179.085068" style="fill: #00aaaa; stroke: #00aaaa"/>
     <use xlink:href="#mfd5f4215f9" x="61.392199" y="179.04026" style="fill: #00aaaa; stroke: #00aaaa"/>
     <use xlink:href="#mfd5f4215f9" x="69.435454" y="178.982214" style="fill: #00aaaa; stroke: #00aaaa"/>
     <use xlink:href="#mfd5f4215f9" x="77.409822" y="178.885161" style="fill: #00aaaa; stroke: #00aaaa"/>
     <use xlink:href="#mfd5f4215f9" x="85.270846" y="178.847038" style="fill: #00aaaa; stroke: #00aaaa"/>
     <use xlink:href="#mfd5f4215f9" x="93.031947" y="178.986388" style="fill: #00aaaa; stroke: #00aaaa"/>
     <use xlink:href="#mfd5f4215f9" x="100.702603" y="178.983768" style="fill: #00aaaa; stroke: #00aaaa"/>
     <use xlink:href="#mfd5f4215f9" x="108.078031" y="179.043173" style="fill: #00aaaa; stroke: #00aaaa"/>
     <use xlink:href="#mfd5f4215f9" x="115.614688" y="179.008609" style="fill: #00aaaa; stroke: #00aaaa"/>
     <use xlink:href="#mfd5f4215f9" x="122.748885" y="179.017479" style="fill: #00aaaa; stroke: #00aaaa"/>
     <use xlink:href="#mfd5f4215f9" x="130.018636" y="176.949187" style="fill: #00aaaa; stroke: #00aaaa"/>
     <use xlink:href="#mfd5f4215f9" x="136.97507" y="177.533952" style="fill: #00aaaa; stroke: #00aaaa"/>
     <use xlink:href="#mfd5f4215f9" x="143.959569" y="175.758168" style="fill: #00aaaa; stroke: #00aaaa"/>
     <use xlink:href="#mfd5f4215f9" x="150.969049" y="176.551032" style="fill: #00aaaa; stroke: #00aaaa"/>
     <use xlink:href="#mfd5f4215f9" x="157.755923" y="173.765014" style="fill: #00aaaa; stroke: #00aaaa"/>
     <use xlink:href="#mfd5f4215f9" x="164.561828" y="174.694465" style="fill: #00aaaa; stroke: #00aaaa"/>
     <use xlink:href="#mfd5f4215f9" x="171.068078" y="175.582637" style="fill: #00aaaa; stroke: #00aaaa"/>
     <use xlink:href="#mfd5f4215f9" x="177.426795" y="170.977804" style="fill: #00aaaa; stroke: #00aaaa"/>
     <use xlink:href="#mfd5f4215f9" x="184.19314" y="171.716903" style="fill: #00aaaa; stroke: #00aaaa"/>
     <use xlink:href="#mfd5f4215f9" x="190.103578" y="172.324876" style="fill: #00aaaa; stroke: #00aaaa"/>
     <use xlink:href="#mfd5f4215f9" x="196.705429" y="172.831808" style="fill: #00aaaa; stroke: #00aaaa"/>
     <use xlink:href="#mfd5f4215f9" x="202.807342" y="166.19948" style="fill: #00aaaa; stroke: #00aaaa"/>
     <use xlink:href="#mfd5f4215f9" x="209.022757" y="166.678031" style="fill: #00aaaa; stroke: #00aaaa"/>
     <use xlink:href="#mfd5f4215f9" x="214.822327" y="166.93999" style="fill: #00aaaa; stroke: #00aaaa"/>
     <use xlink:href="#mfd5f4215f9" x="220.921173" y="167.279285" style="fill: #00aaaa; stroke: #00aaaa"/>
     <use xlink:href="#mfd5f4215f9" x="226.469266" y="167.565533" style="fill: #00aaaa; stroke: #00aaaa"/>
     <use xlink:href="#mfd5f4215f9" x="232.187858" y="167.738298" style="fill: #00aaaa; stroke: #00aaaa"/>
     <use xlink:href="#mfd5f4215f9" x="237.811699" y="167.915285" style="fill: #00aaaa; stroke: #00aaaa"/>
     <use xlink:href="#mfd5f4215f9" x="243.769967" y="168.059508" style="fill: #00aaaa; stroke: #00aaaa"/>
     <use xlink:href="#mfd5f4215f9" x="248.679227" y="168.222518" style="fill: #00aaaa; stroke: #00aaaa"/>
     <use xlink:href="#mfd5f4215f9" x="254.108269" y="161.904366" style="fill: #00aaaa; stroke: #00aaaa"/>
     <use xlink:href="#mfd5f4215f9" x="259.622568" y="159.380406" style="fill: #00aaaa; stroke: #00aaaa"/>
     <use xlink:href="#mfd5f4215f9" x="265.200634" y="159.577236" style="fill: #00aaaa; stroke: #00aaaa"/>
     <use xlink:href="#mfd5f4215f9" x="270.692358" y="159.803287" style="fill: #00aaaa; stroke: #00aaaa"/>
    </g>
   </g>
   <g id="patch_3">
    <path d="M 36.465625 183.041585 
L 36.465625 16.721585 
" style="fill: none; stroke: #000000; stroke-width: 0.8; stroke-linejoin: miter; stroke-linecap: square"/>
   </g>
   <g id="patch_4">
    <path d="M 36.465625 183.041585 
L 281.985625 183.041585 
" style="fill: none; stroke: #000000; stroke-width: 0.8; stroke-linejoin: miter; stroke-linecap: square"/>
   </g>
   <g id="text_13">
    <!-- Edlib -->
    <g style="fill: #de4aff" transform="translate(246.145388 19.077095) rotate(-10.319086) scale(0.1 -0.1)">
     <defs>
      <path id="DejaVuSans-45" d="M 628 4666 
L 3578 4666 
L 3578 4134 
L 1259 4134 
L 1259 2753 
L 3481 2753 
L 3481 2222 
L 1259 2222 
L 1259 531 
L 3634 531 
L 3634 0 
L 628 0 
L 628 4666 
z
" transform="scale(0.015625)"/>
      <path id="DejaVuSans-64" d="M 2906 2969 
L 2906 4863 
L 3481 4863 
L 3481 0 
L 2906 0 
L 2906 525 
Q 2725 213 2448 61 
Q 2172 -91 1784 -91 
Q 1150 -91 751 415 
Q 353 922 353 1747 
Q 353 2572 751 3078 
Q 1150 3584 1784 3584 
Q 2172 3584 2448 3432 
Q 2725 3281 2906 2969 
z
M 947 1747 
Q 947 1113 1208 752 
Q 1469 391 1925 391 
Q 2381 391 2643 752 
Q 2906 1113 2906 1747 
Q 2906 2381 2643 2742 
Q 2381 3103 1925 3103 
Q 1469 3103 1208 2742 
Q 947 2381 947 1747 
z
" transform="scale(0.015625)"/>
      <path id="DejaVuSans-62" d="M 3116 1747 
Q 3116 2381 2855 2742 
Q 2594 3103 2138 3103 
Q 1681 3103 1420 2742 
Q 1159 2381 1159 1747 
Q 1159 1113 1420 752 
Q 1681 391 2138 391 
Q 2594 391 2855 752 
Q 3116 1113 3116 1747 
z
M 1159 2969 
Q 1341 3281 1617 3432 
Q 1894 3584 2278 3584 
Q 2916 3584 3314 3078 
Q 3713 2572 3713 1747 
Q 3713 922 3314 415 
Q 2916 -91 2278 -91 
Q 1894 -91 1617 61 
Q 1341 213 1159 525 
L 1159 0 
L 581 0 
L 581 4863 
L 1159 4863 
L 1159 2969 
z
" transform="scale(0.015625)"/>
     </defs>
     <use xlink:href="#DejaVuSans-45"/>
     <use xlink:href="#DejaVuSans-64" x="63.183594"/>
     <use xlink:href="#DejaVuSans-6c" x="126.660156"/>
     <use xlink:href="#DejaVuSans-69" x="154.443359"/>
     <use xlink:href="#DejaVuSans-62" x="182.226562"/>
    </g>
   </g>
   <g id="text_14">
    <!-- BiWFA -->
    <g style="fill: #625aff" transform="translate(262.79892 46.984579) rotate(-79.194094) scale(0.1 -0.1)">
     <defs>
      <path id="DejaVuSans-42" d="M 1259 2228 
L 1259 519 
L 2272 519 
Q 2781 519 3026 730 
Q 3272 941 3272 1375 
Q 3272 1813 3026 2020 
Q 2781 2228 2272 2228 
L 1259 2228 
z
M 1259 4147 
L 1259 2741 
L 2194 2741 
Q 2656 2741 2882 2914 
Q 3109 3088 3109 3444 
Q 3109 3797 2882 3972 
Q 2656 4147 2194 4147 
L 1259 4147 
z
M 628 4666 
L 2241 4666 
Q 2963 4666 3353 4366 
Q 3744 4066 3744 3513 
Q 3744 3084 3544 2831 
Q 3344 2578 2956 2516 
Q 3422 2416 3680 2098 
Q 3938 1781 3938 1306 
Q 3938 681 3513 340 
Q 3088 0 2303 0 
L 628 0 
L 628 4666 
z
" transform="scale(0.015625)"/>
      <path id="DejaVuSans-57" d="M 213 4666 
L 850 4666 
L 1831 722 
L 2809 4666 
L 3519 4666 
L 4500 722 
L 5478 4666 
L 6119 4666 
L 4947 0 
L 4153 0 
L 3169 4050 
L 2175 0 
L 1381 0 
L 213 4666 
z
" transform="scale(0.015625)"/>
      <path id="DejaVuSans-46" d="M 628 4666 
L 3309 4666 
L 3309 4134 
L 1259 4134 
L 1259 2759 
L 3109 2759 
L 3109 2228 
L 1259 2228 
L 1259 0 
L 628 0 
L 628 4666 
z
" transform="scale(0.015625)"/>
     </defs>
     <use xlink:href="#DejaVuSans-42"/>
     <use xlink:href="#DejaVuSans-69" x="68.603516"/>
     <use xlink:href="#DejaVuSans-57" x="96.386719"/>
     <use xlink:href="#DejaVuSans-46" x="195.263672"/>
     <use xlink:href="#DejaVuSans-41" x="243.658203"/>
    </g>
   </g>
   <g id="text_15">
    <!-- A*PA (r=2) -->
    <g style="fill: #0f7a10" transform="translate(229.932004 70.622313) rotate(-89.81275) scale(0.1 -0.1)">
     <defs>
      <path id="DejaVuSans-2a" d="M 3009 3897 
L 1888 3291 
L 3009 2681 
L 2828 2375 
L 1778 3009 
L 1778 1831 
L 1422 1831 
L 1422 3009 
L 372 2375 
L 191 2681 
L 1313 3291 
L 191 3897 
L 372 4206 
L 1422 3572 
L 1422 4750 
L 1778 4750 
L 1778 3572 
L 2828 4206 
L 3009 3897 
z
" transform="scale(0.015625)"/>
      <path id="DejaVuSans-50" d="M 1259 4147 
L 1259 2394 
L 2053 2394 
Q 2494 2394 2734 2622 
Q 2975 2850 2975 3272 
Q 2975 3691 2734 3919 
Q 2494 4147 2053 4147 
L 1259 4147 
z
M 628 4666 
L 2053 4666 
Q 2838 4666 3239 4311 
Q 3641 3956 3641 3272 
Q 3641 2581 3239 2228 
Q 2838 1875 2053 1875 
L 1259 1875 
L 1259 0 
L 628 0 
L 628 4666 
z
" transform="scale(0.015625)"/>
      <path id="DejaVuSans-28" d="M 1984 4856 
Q 1566 4138 1362 3434 
Q 1159 2731 1159 2009 
Q 1159 1288 1364 580 
Q 1569 -128 1984 -844 
L 1484 -844 
Q 1016 -109 783 600 
Q 550 1309 550 2009 
Q 550 2706 781 3412 
Q 1013 4119 1484 4856 
L 1984 4856 
z
" transform="scale(0.015625)"/>
      <path id="DejaVuSans-3d" d="M 678 2906 
L 4684 2906 
L 4684 2381 
L 678 2381 
L 678 2906 
z
M 678 1631 
L 4684 1631 
L 4684 1100 
L 678 1100 
L 678 1631 
z
" transform="scale(0.015625)"/>
      <path id="DejaVuSans-29" d="M 513 4856 
L 1013 4856 
Q 1481 4119 1714 3412 
Q 1947 2706 1947 2009 
Q 1947 1309 1714 600 
Q 1481 -109 1013 -844 
L 513 -844 
Q 928 -128 1133 580 
Q 1338 1288 1338 2009 
Q 1338 2731 1133 3434 
Q 928 4138 513 4856 
z
" transform="scale(0.015625)"/>
     </defs>
     <use xlink:href="#DejaVuSans-41"/>
     <use xlink:href="#DejaVuSans-2a" x="68.408203"/>
     <use xlink:href="#DejaVuSans-50" x="118.408203"/>
     <use xlink:href="#DejaVuSans-41" x="172.335938"/>
     <use xlink:href="#DejaVuSans-20" x="240.744141"/>
     <use xlink:href="#DejaVuSans-28" x="272.53125"/>
     <use xlink:href="#DejaVuSans-72" x="311.544922"/>
     <use xlink:href="#DejaVuSans-3d" x="352.658203"/>
     <use xlink:href="#DejaVuSans-32" x="436.447266"/>
     <use xlink:href="#DejaVuSans-29" x="500.070312"/>
    </g>
   </g>
   <g id="text_16">
    <!-- A*PA (r=1) (r=1) -->
    <g style="fill: #0f7a10" transform="translate(161.968029 100.449426) rotate(-89.64822) scale(0.1 -0.1)">
     <use xlink:href="#DejaVuSans-41"/>
     <use xlink:href="#DejaVuSans-2a" x="68.408203"/>
     <use xlink:href="#DejaVuSans-50" x="118.408203"/>
     <use xlink:href="#DejaVuSans-41" x="172.335938"/>
     <use xlink:href="#DejaVuSans-20" x="240.744141"/>
     <use xlink:href="#DejaVuSans-28" x="272.53125"/>
     <use xlink:href="#DejaVuSans-72" x="311.544922"/>
     <use xlink:href="#DejaVuSans-3d" x="352.658203"/>
     <use xlink:href="#DejaVuSans-31" x="436.447266"/>
     <use xlink:href="#DejaVuSans-29" x="500.070312"/>
     <use xlink:href="#DejaVuSans-20" x="539.083984"/>
     <use xlink:href="#DejaVuSans-28" x="570.871094"/>
     <use xlink:href="#DejaVuSans-72" x="609.884766"/>
     <use xlink:href="#DejaVuSans-3d" x="650.998047"/>
     <use xlink:href="#DejaVuSans-31" x="734.787109"/>
     <use xlink:href="#DejaVuSans-29" x="798.410156"/>
    </g>
   </g>
   <g id="text_17">
    <!-- A*PA2 simple -->
    <g style="fill: #aa0000" transform="translate(204.206205 142.77174) rotate(-357.717034) scale(0.1 -0.1)">
     <use xlink:href="#DejaVuSans-41"/>
     <use xlink:href="#DejaVuSans-2a" x="68.408203"/>
     <use xlink:href="#DejaVuSans-50" x="118.408203"/>
     <use xlink:href="#DejaVuSans-41" x="172.335938"/>
     <use xlink:href="#DejaVuSans-32" x="240.744141"/>
     <use xlink:href="#DejaVuSans-20" x="304.367188"/>
     <use xlink:href="#DejaVuSans-73" x="336.154297"/>
     <use xlink:href="#DejaVuSans-69" x="388.253906"/>
     <use xlink:href="#DejaVuSans-6d" x="416.037109"/>
     <use xlink:href="#DejaVuSans-70" x="513.449219"/>
     <use xlink:href="#DejaVuSans-6c" x="576.925781"/>
     <use xlink:href="#DejaVuSans-65" x="604.708984"/>
    </g>
   </g>
   <g id="text_18">
    <!-- A*PA2 full -->
    <g style="fill: #00aaaa" transform="translate(221.779357 155.853539) rotate(-357.812287) scale(0.1 -0.1)">
     <defs>
      <path id="DejaVuSans-66" d="M 2375 4863 
L 2375 4384 
L 1825 4384 
Q 1516 4384 1395 4259 
Q 1275 4134 1275 3809 
L 1275 3500 
L 2222 3500 
L 2222 3053 
L 1275 3053 
L 1275 0 
L 697 0 
L 697 3053 
L 147 3053 
L 147 3500 
L 697 3500 
L 697 3744 
Q 697 4328 969 4595 
Q 1241 4863 1831 4863 
L 2375 4863 
z
" transform="scale(0.015625)"/>
     </defs>
     <use xlink:href="#DejaVuSans-41"/>
     <use xlink:href="#DejaVuSans-2a" x="68.408203"/>
     <use xlink:href="#DejaVuSans-50" x="118.408203"/>
     <use xlink:href="#DejaVuSans-41" x="172.335938"/>
     <use xlink:href="#DejaVuSans-32" x="240.744141"/>
     <use xlink:href="#DejaVuSans-20" x="304.367188"/>
     <use xlink:href="#DejaVuSans-66" x="336.154297"/>
     <use xlink:href="#DejaVuSans-75" x="371.359375"/>
     <use xlink:href="#DejaVuSans-6c" x="434.738281"/>
     <use xlink:href="#DejaVuSans-6c" x="462.521484"/>
    </g>
   </g>
  </g>
 </g>
 <defs>
  <clipPath id="p7244dd7ab4">
   <rect x="36.465625" y="16.721585" width="245.52" height="166.32"/>
  </clipPath>
 </defs>
</svg>
