<?xml version="1.0" encoding="UTF-8"?>
<svg xmlns="http://www.w3.org/2000/svg" xmlns:xlink="http://www.w3.org/1999/xlink" width="90" height="96" viewBox="0 0 90 96">
<defs>
<g>
<g id="glyph-0-0">
<path d="M 3.40625 -2.265625 C 3.40625 -2.59375 3.40625 -3.421875 3.078125 -3.984375 C 2.71875 -4.609375 2.1875 -4.71875 1.84375 -4.71875 C 1.53125 -4.71875 0.984375 -4.625 0.640625 -4.015625 C 0.3125 -3.46875 0.296875 -2.703125 0.296875 -2.265625 C 0.296875 -1.75 0.328125 -1.109375 0.609375 -0.578125 C 0.921875 -0.015625 1.4375 0.140625 1.84375 0.140625 C 2.546875 0.140625 2.921875 -0.265625 3.140625 -0.703125 C 3.375 -1.1875 3.40625 -1.828125 3.40625 -2.265625 Z M 1.84375 -0.3125 C 1.546875 -0.3125 1.21875 -0.484375 1.046875 -0.984375 C 0.90625 -1.40625 0.90625 -1.84375 0.90625 -2.359375 C 0.90625 -3 0.90625 -4.265625 1.84375 -4.265625 C 2.796875 -4.265625 2.796875 -3 2.796875 -2.359375 C 2.796875 -1.890625 2.796875 -1.375 2.625 -0.921875 C 2.4375 -0.421875 2.078125 -0.3125 1.84375 -0.3125 Z M 1.84375 -0.3125 "/>
</g>
<g id="glyph-0-1">
<path d="M 2.234375 -4.71875 L 2.078125 -4.71875 C 1.625 -4.296875 1.0625 -4.265625 0.640625 -4.265625 L 0.640625 -3.8125 C 0.90625 -3.828125 1.265625 -3.84375 1.609375 -3.984375 L 1.609375 -0.4375 L 0.6875 -0.4375 L 0.6875 0 L 3.15625 0 L 3.15625 -0.4375 L 2.234375 -0.4375 Z M 2.234375 -4.71875 "/>
</g>
<g id="glyph-0-2">
<path d="M 1.96875 -0.53125 C 1.890625 -0.53125 1.8125 -0.53125 1.71875 -0.53125 L 0.921875 -0.53125 L 2 -1.484375 C 2.125 -1.59375 2.46875 -1.859375 2.609375 -1.96875 C 2.90625 -2.25 3.328125 -2.609375 3.328125 -3.21875 C 3.328125 -4 2.734375 -4.71875 1.734375 -4.71875 C 1 -4.71875 0.546875 -4.328125 0.3125 -3.609375 L 0.640625 -3.203125 C 0.796875 -3.78125 1.03125 -4.234375 1.640625 -4.234375 C 2.234375 -4.234375 2.671875 -3.828125 2.671875 -3.203125 C 2.671875 -2.625 2.328125 -2.296875 1.921875 -1.890625 C 1.78125 -1.75 1.40625 -1.4375 1.25 -1.296875 C 1.046875 -1.125 0.578125 -0.65625 0.375 -0.484375 L 0.375 0 L 3.328125 0 L 3.328125 -0.53125 Z M 1.96875 -0.53125 "/>
</g>
<g id="glyph-0-3">
<path d="M 0.703125 -3.578125 C 0.984375 -4.125 1.484375 -4.28125 1.8125 -4.28125 C 2.234375 -4.28125 2.53125 -4.046875 2.53125 -3.65625 C 2.53125 -3.28125 2.28125 -2.828125 1.75 -2.734375 C 1.71875 -2.734375 1.6875 -2.734375 1.234375 -2.703125 L 1.234375 -2.234375 L 1.78125 -2.234375 C 2.4375 -2.234375 2.6875 -1.71875 2.6875 -1.28125 C 2.6875 -0.734375 2.34375 -0.3125 1.8125 -0.3125 C 1.3125 -0.3125 0.75 -0.546875 0.390625 -1 L 0.3125 -0.546875 C 0.703125 -0.09375 1.28125 0.140625 1.8125 0.140625 C 2.734375 0.140625 3.390625 -0.53125 3.390625 -1.265625 C 3.390625 -1.84375 2.921875 -2.296875 2.375 -2.453125 C 2.90625 -2.734375 3.171875 -3.203125 3.171875 -3.65625 C 3.171875 -4.25 2.578125 -4.71875 1.828125 -4.71875 C 1.21875 -4.71875 0.703125 -4.390625 0.40625 -3.984375 Z M 0.703125 -3.578125 "/>
</g>
<g id="glyph-0-4">
<path d="M 2.765625 -1.15625 L 3.484375 -1.15625 L 3.484375 -1.625 L 2.765625 -1.625 L 2.765625 -4.578125 L 2.0625 -4.578125 L 0.203125 -1.625 L 0.203125 -1.15625 L 2.15625 -1.15625 L 2.15625 0 L 2.765625 0 Z M 0.796875 -1.625 C 1.015625 -1.953125 2.203125 -3.8125 2.203125 -4.234375 L 2.203125 -1.625 Z M 0.796875 -1.625 "/>
</g>
<g id="glyph-0-5">
<path d="M 1.140625 -4.09375 L 3.078125 -4.09375 L 3.078125 -4.578125 L 0.578125 -4.578125 L 0.578125 -1.96875 L 1.09375 -1.96875 C 1.265625 -2.34375 1.59375 -2.515625 1.90625 -2.515625 C 2.1875 -2.515625 2.625 -2.3125 2.625 -1.421875 C 2.625 -0.515625 2.046875 -0.3125 1.6875 -0.3125 C 1.21875 -0.3125 0.78125 -0.5625 0.546875 -0.953125 L 0.28125 -0.53125 C 0.625 -0.109375 1.140625 0.140625 1.6875 0.140625 C 2.609375 0.140625 3.328125 -0.5625 3.328125 -1.421875 C 3.328125 -2.28125 2.6875 -2.96875 1.921875 -2.96875 C 1.609375 -2.96875 1.359375 -2.859375 1.140625 -2.6875 Z M 1.140625 -4.09375 "/>
</g>
<g id="glyph-0-6">
<path d="M 3.0625 -4.578125 C 2.6875 -4.71875 2.421875 -4.71875 2.28125 -4.71875 C 1.21875 -4.71875 0.3125 -3.71875 0.3125 -2.25 C 0.3125 -0.359375 1.15625 0.140625 1.859375 0.140625 C 2.421875 0.140625 2.71875 -0.125 2.9375 -0.34375 C 3.375 -0.8125 3.390625 -1.3125 3.390625 -1.546875 C 3.390625 -2.46875 2.890625 -3.21875 2.21875 -3.21875 C 1.53125 -3.21875 1.15625 -2.875 0.96875 -2.671875 C 1.046875 -3.625 1.546875 -4.28125 2.296875 -4.28125 C 2.4375 -4.28125 2.703125 -4.265625 3.0625 -4.140625 Z M 0.96875 -1.53125 C 0.96875 -1.578125 0.96875 -1.671875 0.96875 -1.71875 C 0.96875 -2.1875 1.28125 -2.765625 1.890625 -2.765625 C 2.75 -2.765625 2.75 -1.796875 2.75 -1.546875 C 2.75 -1.296875 2.75 -1 2.5625 -0.703125 C 2.390625 -0.453125 2.1875 -0.3125 1.859375 -0.3125 C 1.125 -0.3125 1 -1.21875 0.96875 -1.53125 Z M 0.96875 -1.53125 "/>
</g>
<g id="glyph-0-7">
<path d="M 1.71875 -4.03125 C 1.8125 -4.03125 1.890625 -4.046875 1.96875 -4.046875 L 2.84375 -4.046875 C 1.796875 -3 1.109375 -1.546875 1.109375 0.0625 L 1.765625 0.0625 C 1.765625 -1.96875 2.765625 -3.421875 3.390625 -4.078125 L 3.390625 -4.578125 L 0.3125 -4.578125 L 0.3125 -4.03125 Z M 1.71875 -4.03125 "/>
</g>
</g>
<clipPath id="clip-0">
<path clip-rule="nonzero" d="M 27.351562 69.597656 L 31 69.597656 L 31 74.175781 L 27.351562 74.175781 Z M 27.351562 69.597656 "/>
</clipPath>
<clipPath id="clip-1">
<path clip-rule="nonzero" d="M 22 23.632812 L 25.652344 23.632812 L 25.652344 28.210938 L 22 28.210938 Z M 22 23.632812 "/>
</clipPath>
<clipPath id="clip-2">
<path clip-rule="nonzero" d="M 45 16.726562 L 48.703125 16.726562 L 48.703125 21.304688 L 45 21.304688 Z M 45 16.726562 "/>
</clipPath>
<clipPath id="clip-3">
<path clip-rule="nonzero" d="M 49 51.421875 L 52.703125 51.421875 L 52.703125 56 L 49 56 Z M 49 51.421875 "/>
</clipPath>
<clipPath id="clip-4">
<path clip-rule="nonzero" d="M 59.121094 39.535156 L 62.824219 39.535156 L 62.824219 44.113281 L 59.121094 44.113281 Z M 59.121094 39.535156 "/>
</clipPath>
<clipPath id="clip-5">
<path clip-rule="nonzero" d="M 85 55.660156 L 88.703125 55.660156 L 88.703125 60.238281 L 85 60.238281 Z M 85 55.660156 "/>
</clipPath>
<clipPath id="clip-6">
<path clip-rule="nonzero" d="M 80.664062 11.421875 L 84.367188 11.421875 L 84.367188 16 L 80.664062 16 Z M 80.664062 11.421875 "/>
</clipPath>
<clipPath id="clip-7">
<path clip-rule="nonzero" d="M 65 76.082031 L 68.589844 76.082031 L 68.589844 80.660156 L 65 80.660156 Z M 65 76.082031 "/>
</clipPath>
</defs>
<path fill="none" stroke-width="0.1" stroke-linecap="butt" stroke-linejoin="round" stroke="rgb(31%, 31%, 33%)" stroke-opacity="1" stroke-miterlimit="10" d="M 196 712 L 172 728 " transform="matrix(1, 0, 0, -1, -163, 764)"/>
<path fill="none" stroke-width="0.2" stroke-linecap="butt" stroke-linejoin="round" stroke="rgb(99%, 75.4%, 2.7%)" stroke-opacity="1" stroke-miterlimit="10" d="M 196 712 L 208 728 " transform="matrix(1, 0, 0, -1, -163, 764)"/>
<path fill="none" stroke-width="0.2" stroke-linecap="butt" stroke-linejoin="round" stroke="rgb(99%, 75.4%, 2.7%)" stroke-opacity="1" stroke-miterlimit="10" d="M 208 728 L 232 736 " transform="matrix(1, 0, 0, -1, -163, 764)"/>
<path fill="none" stroke-width="0.1" stroke-linecap="butt" stroke-linejoin="round" stroke="rgb(31%, 31%, 33%)" stroke-opacity="1" stroke-miterlimit="10" d="M 208 728 L 196 744 " transform="matrix(1, 0, 0, -1, -163, 764)"/>
<path fill="none" stroke-width="0.1" stroke-linecap="butt" stroke-linejoin="round" stroke="rgb(31%, 31%, 33%)" stroke-opacity="1" stroke-miterlimit="10" d="M 208 728 L 224 708 " transform="matrix(1, 0, 0, -1, -163, 764)"/>
<path fill="none" stroke-width="0.2" stroke-linecap="butt" stroke-linejoin="round" stroke="rgb(99%, 75.4%, 2.7%)" stroke-opacity="1" stroke-miterlimit="10" d="M 224 708 L 232 736 " transform="matrix(1, 0, 0, -1, -163, 764)"/>
<path fill="none" stroke-width="0.1" stroke-linecap="butt" stroke-linejoin="round" stroke="rgb(31%, 31%, 33%)" stroke-opacity="1" stroke-miterlimit="10" d="M 224 708 L 224 696 " transform="matrix(1, 0, 0, -1, -163, 764)"/>
<path fill="none" stroke-width="0.2" stroke-linecap="butt" stroke-linejoin="round" stroke="rgb(99%, 75.4%, 2.7%)" stroke-opacity="1" stroke-miterlimit="10" d="M 180 688 L 172 728 " transform="matrix(1, 0, 0, -1, -163, 764)"/>
<path fill="none" stroke-width="0.2" stroke-linecap="butt" stroke-linejoin="round" stroke="rgb(99%, 75.4%, 2.7%)" stroke-opacity="1" stroke-miterlimit="10" d="M 196 744 C 182.667969 744 174.667969 738.667969 172 728 " transform="matrix(1, 0, 0, -1, -163, 764)"/>
<path fill="none" stroke-width="0.2" stroke-linecap="butt" stroke-linejoin="round" stroke="rgb(99%, 75.4%, 2.7%)" stroke-opacity="1" stroke-miterlimit="10" d="M 172 728 C 180 756 198 758 208 758 C 218 758 220 756 232 736 " transform="matrix(1, 0, 0, -1, -163, 764)"/>
<path fill="none" stroke-width="0.1" stroke-linecap="butt" stroke-linejoin="round" stroke="rgb(31%, 31%, 33%)" stroke-opacity="1" stroke-miterlimit="10" d="M 196 712 C 201.332031 704 210.667969 702.667969 224 708 " transform="matrix(1, 0, 0, -1, -163, 764)"/>
<path fill="none" stroke-width="0.2" stroke-linecap="butt" stroke-linejoin="round" stroke="rgb(99%, 75.4%, 2.7%)" stroke-opacity="1" stroke-miterlimit="10" d="M 224 696 C 200 676 186 676 177 678 C 168 680 164 684 172 728 " transform="matrix(1, 0, 0, -1, -163, 764)"/>
<path fill="none" stroke-width="0.1" stroke-linecap="butt" stroke-linejoin="round" stroke="rgb(31%, 31%, 33%)" stroke-opacity="1" stroke-miterlimit="10" d="M 224 696 C 240 688 238 682 232.332031 677.667969 C 226.667969 673.332031 217.332031 670.667969 206 669.332031 C 194.667969 668 181.332031 668 174 671.332031 C 166.667969 674.667969 165.332031 681.332031 164.667969 691.667969 C 164 702 164 716 172 728 " transform="matrix(1, 0, 0, -1, -163, 764)"/>
<path fill="none" stroke-width="0.1" stroke-linecap="butt" stroke-linejoin="round" stroke="rgb(31%, 31%, 33%)" stroke-opacity="1" stroke-miterlimit="10" d="M 172 728 C 176 764 196 764 212 763.332031 C 228 762.667969 240 761.332031 247 756.667969 C 254 752 256 744 232 736 " transform="matrix(1, 0, 0, -1, -163, 764)"/>
<path fill="none" stroke-width="1" stroke-linecap="butt" stroke-linejoin="round" stroke="rgb(0%, 58.6%, 50.8%)" stroke-opacity="1" stroke-miterlimit="10" d="M 192 736 L 208 740 " transform="matrix(1, 0, 0, -1, -163, 764)"/>
<path fill="none" stroke-width="1" stroke-linecap="butt" stroke-linejoin="round" stroke="rgb(0%, 58.6%, 50.8%)" stroke-opacity="1" stroke-miterlimit="10" d="M 240 748 L 244 704 " transform="matrix(1, 0, 0, -1, -163, 764)"/>
<path fill="none" stroke-width="1" stroke-linecap="butt" stroke-linejoin="round" stroke="rgb(0%, 58.6%, 50.8%)" stroke-opacity="1" stroke-miterlimit="10" d="M 244 704 L 224 688 " transform="matrix(1, 0, 0, -1, -163, 764)"/>
<path fill="none" stroke-width="1" stroke-linecap="butt" stroke-linejoin="round" stroke="rgb(0%, 58.6%, 50.8%)" stroke-opacity="1" stroke-miterlimit="10" d="M 188 696 L 208 708 " transform="matrix(1, 0, 0, -1, -163, 764)"/>
<path fill="none" stroke-width="1" stroke-linecap="butt" stroke-linejoin="round" stroke="rgb(0%, 58.6%, 50.8%)" stroke-opacity="1" stroke-miterlimit="10" d="M 208 708 L 224 728 " transform="matrix(1, 0, 0, -1, -163, 764)"/>
<path fill="none" stroke-width="1" stroke-linecap="butt" stroke-linejoin="round" stroke="rgb(0%, 58.6%, 50.8%)" stroke-opacity="1" stroke-miterlimit="10" d="M 244 704 L 188 696 " transform="matrix(1, 0, 0, -1, -163, 764)"/>
<path fill="none" stroke-width="1" stroke-linecap="butt" stroke-linejoin="round" stroke="rgb(0%, 58.6%, 50.8%)" stroke-opacity="1" stroke-miterlimit="10" d="M 188 696 L 192 736 " transform="matrix(1, 0, 0, -1, -163, 764)"/>
<path fill-rule="evenodd" fill="rgb(0%, 0%, 0%)" fill-opacity="1" d="M 30.800781 28 C 30.800781 25.601562 27.199219 25.601562 27.199219 28 C 27.199219 30.398438 30.800781 30.398438 30.800781 28 Z M 30.800781 28 "/>
<path fill-rule="evenodd" fill="rgb(0%, 0%, 0%)" fill-opacity="1" d="M 46.800781 24 C 46.800781 21.601562 43.199219 21.601562 43.199219 24 C 43.199219 26.398438 46.800781 26.398438 46.800781 24 Z M 46.800781 24 "/>
<path fill-rule="evenodd" fill="rgb(0%, 0%, 0%)" fill-opacity="1" d="M 78.800781 16 C 78.800781 13.601562 75.199219 13.601562 75.199219 16 C 75.199219 18.398438 78.800781 18.398438 78.800781 16 Z M 78.800781 16 "/>
<path fill-rule="evenodd" fill="rgb(0%, 0%, 0%)" fill-opacity="1" d="M 62.800781 36 C 62.800781 33.601562 59.199219 33.601562 59.199219 36 C 59.199219 38.398438 62.800781 38.398438 62.800781 36 Z M 62.800781 36 "/>
<path fill-rule="evenodd" fill="rgb(0%, 0%, 0%)" fill-opacity="1" d="M 82.800781 60 C 82.800781 57.601562 79.199219 57.601562 79.199219 60 C 79.199219 62.398438 82.800781 62.398438 82.800781 60 Z M 82.800781 60 "/>
<path fill-rule="evenodd" fill="rgb(0%, 0%, 0%)" fill-opacity="1" d="M 62.800781 76 C 62.800781 73.601562 59.199219 73.601562 59.199219 76 C 59.199219 78.398438 62.800781 78.398438 62.800781 76 Z M 62.800781 76 "/>
<path fill-rule="evenodd" fill="rgb(0%, 0%, 0%)" fill-opacity="1" d="M 26.800781 68 C 26.800781 65.601562 23.199219 65.601562 23.199219 68 C 23.199219 70.398438 26.800781 70.398438 26.800781 68 Z M 26.800781 68 "/>
<path fill-rule="evenodd" fill="rgb(0%, 0%, 0%)" fill-opacity="1" d="M 46.800781 56 C 46.800781 53.601562 43.199219 53.601562 43.199219 56 C 43.199219 58.398438 46.800781 58.398438 46.800781 56 Z M 46.800781 56 "/>
<path fill="none" stroke-width="0.4" stroke-linecap="butt" stroke-linejoin="round" stroke="rgb(0%, 0%, 0%)" stroke-opacity="1" stroke-miterlimit="10" d="M 224 728 L 208 740 " transform="matrix(1, 0, 0, -1, -163, 764)"/>
<path fill="none" stroke-width="0.4" stroke-linecap="butt" stroke-linejoin="round" stroke="rgb(0%, 0%, 0%)" stroke-opacity="1" stroke-miterlimit="10" d="M 208 740 C 200 756 184 752 192 736 " transform="matrix(1, 0, 0, -1, -163, 764)"/>
<path fill="none" stroke-width="0.4" stroke-linecap="butt" stroke-linejoin="round" stroke="rgb(0%, 0%, 0%)" stroke-opacity="1" stroke-miterlimit="10" d="M 188 696 C 188 680 180 680 176 684 C 172 688 172 696 188 696 " transform="matrix(1, 0, 0, -1, -163, 764)"/>
<g clip-path="url(#clip-0)">
<g fill="rgb(0%, 0%, 0%)" fill-opacity="1">
<use xlink:href="#glyph-0-0" x="27.35051" y="74.1774"/>
</g>
</g>
<g clip-path="url(#clip-1)">
<g fill="rgb(0%, 0%, 0%)" fill-opacity="1">
<use xlink:href="#glyph-0-1" x="21.950903" y="28.2125"/>
</g>
</g>
<path fill="none" stroke-width="0.4" stroke-linecap="butt" stroke-linejoin="round" stroke="rgb(0%, 0%, 0%)" stroke-opacity="1" stroke-miterlimit="10" d="M 208 740 L 240 748 " transform="matrix(1, 0, 0, -1, -163, 764)"/>
<path fill="none" stroke-width="0.4" stroke-linecap="butt" stroke-linejoin="round" stroke="rgb(0%, 0%, 0%)" stroke-opacity="1" stroke-miterlimit="10" d="M 224 688 L 188 696 " transform="matrix(1, 0, 0, -1, -163, 764)"/>
<path fill="none" stroke-width="0.4" stroke-linecap="butt" stroke-linejoin="round" stroke="rgb(0%, 0%, 0%)" stroke-opacity="1" stroke-miterlimit="10" d="M 224 728 L 244 704 " transform="matrix(1, 0, 0, -1, -163, 764)"/>
<path fill="none" stroke-width="0.4" stroke-linecap="butt" stroke-linejoin="round" stroke="rgb(0%, 0%, 0%)" stroke-opacity="1" stroke-miterlimit="10" d="M 192 736 L 208 708 " transform="matrix(1, 0, 0, -1, -163, 764)"/>
<path fill-rule="evenodd" fill="rgb(99%, 75.4%, 2.7%)" fill-opacity="1" d="M 34.800781 20 C 34.800781 17.601562 31.199219 17.601562 31.199219 20 C 31.199219 22.398438 34.800781 22.398438 34.800781 20 Z M 34.800781 20 "/>
<path fill-rule="evenodd" fill="rgb(99%, 75.4%, 2.7%)" fill-opacity="1" d="M 10.800781 36 C 10.800781 33.601562 7.199219 33.601562 7.199219 36 C 7.199219 38.398438 10.800781 38.398438 10.800781 36 Z M 10.800781 36 "/>
<path fill-rule="evenodd" fill="rgb(99%, 75.4%, 2.7%)" fill-opacity="1" d="M 34.800781 52 C 34.800781 49.601562 31.199219 49.601562 31.199219 52 C 31.199219 54.398438 34.800781 54.398438 34.800781 52 Z M 34.800781 52 "/>
<path fill-rule="evenodd" fill="rgb(99%, 75.4%, 2.7%)" fill-opacity="1" d="M 46.800781 36 C 46.800781 33.601562 43.199219 33.601562 43.199219 36 C 43.199219 38.398438 46.800781 38.398438 46.800781 36 Z M 46.800781 36 "/>
<path fill-rule="evenodd" fill="rgb(99%, 75.4%, 2.7%)" fill-opacity="1" d="M 70.800781 28 C 70.800781 25.601562 67.199219 25.601562 67.199219 28 C 67.199219 30.398438 70.800781 30.398438 70.800781 28 Z M 70.800781 28 "/>
<path fill-rule="evenodd" fill="rgb(99%, 75.4%, 2.7%)" fill-opacity="1" d="M 62.800781 56 C 62.800781 53.601562 59.199219 53.601562 59.199219 56 C 59.199219 58.398438 62.800781 58.398438 62.800781 56 Z M 62.800781 56 "/>
<path fill-rule="evenodd" fill="rgb(99%, 75.4%, 2.7%)" fill-opacity="1" d="M 62.800781 68 C 62.800781 65.601562 59.199219 65.601562 59.199219 68 C 59.199219 70.398438 62.800781 70.398438 62.800781 68 Z M 62.800781 68 "/>
<path fill-rule="evenodd" fill="rgb(99%, 75.4%, 2.7%)" fill-opacity="1" d="M 18.800781 76 C 18.800781 73.601562 15.199219 73.601562 15.199219 76 C 15.199219 78.398438 18.800781 78.398438 18.800781 76 Z M 18.800781 76 "/>
<g clip-path="url(#clip-2)">
<g fill="rgb(0%, 0%, 0%)" fill-opacity="1">
<use xlink:href="#glyph-0-2" x="45" y="21.303"/>
</g>
</g>
<g clip-path="url(#clip-3)">
<g fill="rgb(0%, 0%, 0%)" fill-opacity="1">
<use xlink:href="#glyph-0-3" x="49" y="56"/>
</g>
</g>
<g clip-path="url(#clip-4)">
<g fill="rgb(0%, 0%, 0%)" fill-opacity="1">
<use xlink:href="#glyph-0-4" x="59.122" y="44.1114"/>
</g>
</g>
<g clip-path="url(#clip-5)">
<g fill="rgb(0%, 0%, 0%)" fill-opacity="1">
<use xlink:href="#glyph-0-5" x="85" y="60.23847"/>
</g>
</g>
<g clip-path="url(#clip-6)">
<g fill="rgb(0%, 0%, 0%)" fill-opacity="1">
<use xlink:href="#glyph-0-6" x="80.665" y="16"/>
</g>
</g>
<g clip-path="url(#clip-7)">
<g fill="rgb(0%, 0%, 0%)" fill-opacity="1">
<use xlink:href="#glyph-0-7" x="64.8886" y="80.6589"/>
</g>
</g>
<path fill="none" stroke-width="0.2" stroke-linecap="butt" stroke-linejoin="round" stroke="rgb(54.5%, 0%, 0%)" stroke-opacity="1" stroke-miterlimit="10" d="M 188 736 C 188 738.210938 189.789062 740 192 740 " transform="matrix(1, 0, 0, -1, -163, 764)"/>
<path fill="none" stroke-width="0.2" stroke-linecap="butt" stroke-linejoin="round" stroke="rgb(54.5%, 0%, 0%)" stroke-opacity="1" stroke-miterlimit="10" d="M 206 744 C 211.332031 746.667969 215.332031 738.667969 210 736 " transform="matrix(1, 0, 0, -1, -163, 764)"/>
<path fill="none" stroke-width="0.2" stroke-linecap="butt" stroke-linejoin="round" stroke="rgb(54.5%, 0%, 0%)" stroke-opacity="1" stroke-miterlimit="10" d="M 196 734 C 195.566406 733.132812 194.867188 732.433594 194 732 " transform="matrix(1, 0, 0, -1, -163, 764)"/>
<path fill="none" stroke-width="0.2" stroke-linecap="butt" stroke-linejoin="round" stroke="rgb(54.5%, 0%, 0%)" stroke-opacity="1" stroke-miterlimit="10" d="M 190 702 C 190.535156 701.820312 191.039062 701.574219 191.507812 701.261719 " transform="matrix(1, 0, 0, -1, -163, 764)"/>
<path fill="none" stroke-width="0.2" stroke-linecap="butt" stroke-linejoin="round" stroke="rgb(54.5%, 0%, 0%)" stroke-opacity="1" stroke-miterlimit="10" d="M 204 710 C 204.757812 711.515625 206.304688 712.472656 208 712.472656 " transform="matrix(1, 0, 0, -1, -163, 764)"/>
<path fill="none" stroke-width="0.2" stroke-linecap="butt" stroke-linejoin="round" stroke="rgb(54.5%, 0%, 0%)" stroke-opacity="1" stroke-miterlimit="10" d="M 220 730 C 221.363281 732.730469 225.003906 733.320312 227.164062 731.164062 C 229.320312 729.003906 228.730469 725.363281 226 724 " transform="matrix(1, 0, 0, -1, -163, 764)"/>
<path fill="none" stroke-width="0.2" stroke-linecap="butt" stroke-linejoin="round" stroke="rgb(54.5%, 0%, 0%)" stroke-opacity="1" stroke-miterlimit="10" d="M 212 708 C 212 705.789062 210.210938 704 208 704 " transform="matrix(1, 0, 0, -1, -163, 764)"/>
<path fill="none" stroke-width="0.2" stroke-linecap="butt" stroke-linejoin="round" stroke="rgb(54.5%, 0%, 0%)" stroke-opacity="1" stroke-miterlimit="10" d="M 196 700 C 196.292969 699.417969 196.519531 698.800781 196.675781 698.167969 " transform="matrix(1, 0, 0, -1, -163, 764)"/>
<path fill="none" stroke-width="0.2" stroke-linecap="butt" stroke-linejoin="round" stroke="rgb(54.5%, 0%, 0%)" stroke-opacity="1" stroke-miterlimit="10" d="M 240 706 C 240.433594 706.867188 241.132812 707.566406 242 708 " transform="matrix(1, 0, 0, -1, -163, 764)"/>
<path fill="none" stroke-width="0.2" stroke-linecap="butt" stroke-linejoin="round" stroke="rgb(54.5%, 0%, 0%)" stroke-opacity="1" stroke-miterlimit="10" d="M 236 746 C 234.511719 748.972656 236.675781 752.472656 240 752.472656 C 243.324219 752.472656 245.488281 748.972656 244 746 " transform="matrix(1, 0, 0, -1, -163, 764)"/>
<path fill="none" stroke-width="0.2" stroke-linecap="butt" stroke-linejoin="round" stroke="rgb(54.5%, 0%, 0%)" stroke-opacity="1" stroke-miterlimit="10" d="M 248 706 C 249.488281 703.027344 247.324219 699.527344 244 699.527344 " transform="matrix(1, 0, 0, -1, -163, 764)"/>
<path fill="none" stroke-width="0.2" stroke-linecap="butt" stroke-linejoin="round" stroke="rgb(54.5%, 0%, 0%)" stroke-opacity="1" stroke-miterlimit="10" d="M 228 686 C 226.433594 682.867188 222.039062 682.667969 220.195312 685.648438 C 218.355469 688.628906 220.496094 692.472656 224 692.472656 " transform="matrix(1, 0, 0, -1, -163, 764)"/>
<path fill="none" stroke-width="0.2" stroke-linecap="butt" stroke-linejoin="round" stroke="rgb(54.5%, 0%, 0%)" stroke-opacity="1" stroke-miterlimit="10" d="M 238 700 C 237.644531 700.535156 237.363281 701.113281 237.160156 701.71875 " transform="matrix(1, 0, 0, -1, -163, 764)"/>
<path fill="none" stroke-width="0.2" stroke-linecap="butt" stroke-linejoin="round" stroke="rgb(54.5%, 0%, 0%)" stroke-opacity="1" stroke-miterlimit="10" d="M 190 692 C 186.15625 690.078125 182.078125 694.15625 184 698 " transform="matrix(1, 0, 0, -1, -163, 764)"/>
<path fill="none" stroke-width="0.2" stroke-linecap="butt" stroke-linejoin="round" stroke="rgb(54.5%, 0%, 0%)" stroke-opacity="1" stroke-miterlimit="10" d="M 192 740 L 206 744 " transform="matrix(1, 0, 0, -1, -163, 764)"/>
<path fill="none" stroke-width="0.2" stroke-linecap="butt" stroke-linejoin="round" stroke="rgb(54.5%, 0%, 0%)" stroke-opacity="1" stroke-miterlimit="10" d="M 210 736 L 196 734 " transform="matrix(1, 0, 0, -1, -163, 764)"/>
<path fill="none" stroke-width="0.2" stroke-linecap="butt" stroke-linejoin="round" stroke="rgb(54.5%, 0%, 0%)" stroke-opacity="1" stroke-miterlimit="10" d="M 194 732 L 190 702 " transform="matrix(1, 0, 0, -1, -163, 764)"/>
<path fill="none" stroke-width="0.2" stroke-linecap="butt" stroke-linejoin="round" stroke="rgb(54.5%, 0%, 0%)" stroke-opacity="1" stroke-miterlimit="10" d="M 191.507812 701.261719 L 204 710 " transform="matrix(1, 0, 0, -1, -163, 764)"/>
<path fill="none" stroke-width="0.2" stroke-linecap="butt" stroke-linejoin="round" stroke="rgb(54.5%, 0%, 0%)" stroke-opacity="1" stroke-miterlimit="10" d="M 208 712.472656 L 220 730 " transform="matrix(1, 0, 0, -1, -163, 764)"/>
<path fill="none" stroke-width="0.2" stroke-linecap="butt" stroke-linejoin="round" stroke="rgb(54.5%, 0%, 0%)" stroke-opacity="1" stroke-miterlimit="10" d="M 226 724 L 212 708 " transform="matrix(1, 0, 0, -1, -163, 764)"/>
<path fill="none" stroke-width="0.2" stroke-linecap="butt" stroke-linejoin="round" stroke="rgb(54.5%, 0%, 0%)" stroke-opacity="1" stroke-miterlimit="10" d="M 208 704 L 196 700 " transform="matrix(1, 0, 0, -1, -163, 764)"/>
<path fill="none" stroke-width="0.2" stroke-linecap="butt" stroke-linejoin="round" stroke="rgb(54.5%, 0%, 0%)" stroke-opacity="1" stroke-miterlimit="10" d="M 196.675781 698.167969 L 240 706 " transform="matrix(1, 0, 0, -1, -163, 764)"/>
<path fill="none" stroke-width="0.2" stroke-linecap="butt" stroke-linejoin="round" stroke="rgb(54.5%, 0%, 0%)" stroke-opacity="1" stroke-miterlimit="10" d="M 242 708 L 236 746 " transform="matrix(1, 0, 0, -1, -163, 764)"/>
<path fill="none" stroke-width="0.2" stroke-linecap="butt" stroke-linejoin="round" stroke="rgb(54.5%, 0%, 0%)" stroke-opacity="1" stroke-miterlimit="10" d="M 244 746 L 248 706 " transform="matrix(1, 0, 0, -1, -163, 764)"/>
<path fill="none" stroke-width="0.2" stroke-linecap="butt" stroke-linejoin="round" stroke="rgb(54.5%, 0%, 0%)" stroke-opacity="1" stroke-miterlimit="10" d="M 244 699.527344 L 228 686 " transform="matrix(1, 0, 0, -1, -163, 764)"/>
<path fill="none" stroke-width="0.2" stroke-linecap="butt" stroke-linejoin="round" stroke="rgb(54.5%, 0%, 0%)" stroke-opacity="1" stroke-miterlimit="10" d="M 224 692.472656 L 238 700 " transform="matrix(1, 0, 0, -1, -163, 764)"/>
<path fill="none" stroke-width="0.2" stroke-linecap="butt" stroke-linejoin="round" stroke="rgb(54.5%, 0%, 0%)" stroke-opacity="1" stroke-miterlimit="10" d="M 237.160156 701.71875 L 190 692 " transform="matrix(1, 0, 0, -1, -163, 764)"/>
<path fill="none" stroke-width="0.2" stroke-linecap="butt" stroke-linejoin="round" stroke="rgb(54.5%, 0%, 0%)" stroke-opacity="1" stroke-miterlimit="10" d="M 184 698 L 184.304688 700.761719 " transform="matrix(1, 0, 0, -1, -163, 764)"/>
<path fill-rule="evenodd" fill="rgb(54.5%, 0%, 0%)" fill-opacity="1" stroke-width="0.2" stroke-linecap="butt" stroke-linejoin="round" stroke="rgb(54.5%, 0%, 0%)" stroke-opacity="1" stroke-miterlimit="10" d="M 184.304688 700.761719 L 182.984375 697.890625 L 184.96875 697.671875 Z M 184.304688 700.761719 " transform="matrix(1, 0, 0, -1, -163, 764)"/>
<path fill="none" stroke-width="0.2" stroke-linecap="butt" stroke-linejoin="round" stroke="rgb(54.5%, 0%, 0%)" stroke-opacity="1" stroke-miterlimit="10" d="M 184 698 L 188 736 " transform="matrix(1, 0, 0, -1, -163, 764)"/>
<path fill-rule="evenodd" fill="rgb(54.5%, 0%, 0%)" fill-opacity="1" d="M 28.394531 24.277344 C 28.394531 23.078125 26.59375 23.078125 26.59375 24.277344 C 26.59375 25.476562 28.394531 25.476562 28.394531 24.277344 Z M 28.394531 24.277344 "/>
<path fill-rule="evenodd" fill="rgb(54.5%, 0%, 0%)" fill-opacity="1" d="M 43.308594 20.164062 C 43.308594 18.964844 41.507812 18.964844 41.507812 20.164062 C 41.507812 21.363281 43.308594 21.363281 43.308594 20.164062 Z M 43.308594 20.164062 "/>
<path fill-rule="evenodd" fill="rgb(54.5%, 0%, 0%)" fill-opacity="1" d="M 50.222656 22.914062 C 50.222656 21.714844 48.421875 21.714844 48.421875 22.914062 C 48.421875 24.113281 50.222656 24.113281 50.222656 22.914062 Z M 50.222656 22.914062 "/>
<path fill-rule="evenodd" fill="rgb(54.5%, 0%, 0%)" fill-opacity="1" d="M 49.566406 26.757812 C 49.566406 25.558594 47.765625 25.558594 47.765625 26.757812 C 47.765625 27.957031 49.566406 27.957031 49.566406 26.757812 Z M 49.566406 26.757812 "/>
<path fill-rule="evenodd" fill="rgb(54.5%, 0%, 0%)" fill-opacity="1" d="M 32.332031 32.015625 C 32.332031 30.8125 30.53125 30.8125 30.53125 32.015625 C 30.53125 33.214844 32.332031 33.214844 32.332031 32.015625 Z M 32.332031 32.015625 "/>
<path fill-rule="evenodd" fill="rgb(54.5%, 0%, 0%)" fill-opacity="1" d="M 32.523438 26.304688 C 32.523438 25.101562 30.726562 25.101562 30.726562 26.304688 C 30.726562 27.503906 32.523438 27.503906 32.523438 26.304688 Z M 32.523438 26.304688 "/>
<path fill-rule="evenodd" fill="rgb(54.5%, 0%, 0%)" fill-opacity="1" d="M 43.011719 25.539062 C 43.011719 24.339844 41.210938 24.339844 41.210938 25.539062 C 41.210938 26.738281 43.011719 26.738281 43.011719 25.539062 Z M 43.011719 25.539062 "/>
<path fill-rule="evenodd" fill="rgb(54.5%, 0%, 0%)" fill-opacity="1" d="M 30.347656 33.039062 C 30.347656 31.839844 28.546875 31.839844 28.546875 33.039062 C 28.546875 34.242188 30.347656 34.242188 30.347656 33.039062 Z M 30.347656 33.039062 "/>
<path fill-rule="evenodd" fill="rgb(54.5%, 0%, 0%)" fill-opacity="1" d="M 25.429688 63.53125 C 25.429688 62.332031 23.628906 62.332031 23.628906 63.53125 C 23.628906 64.730469 25.429688 64.730469 25.429688 63.53125 Z M 25.429688 63.53125 "/>
<path fill-rule="evenodd" fill="rgb(54.5%, 0%, 0%)" fill-opacity="1" d="M 29.59375 64.917969 C 29.59375 63.71875 27.796875 63.71875 27.796875 64.917969 C 27.796875 66.117188 29.59375 66.117188 29.59375 64.917969 Z M 29.59375 64.917969 "/>
<path fill-rule="evenodd" fill="rgb(54.5%, 0%, 0%)" fill-opacity="1" d="M 43.816406 51.890625 C 43.816406 50.691406 42.019531 50.691406 42.019531 51.890625 C 42.019531 53.09375 43.816406 53.09375 43.816406 51.890625 Z M 43.816406 51.890625 "/>
<path fill-rule="evenodd" fill="rgb(54.5%, 0%, 0%)" fill-opacity="1" d="M 47.949219 51.863281 C 47.949219 50.664062 46.148438 50.664062 46.148438 51.863281 C 46.148438 53.0625 47.949219 53.0625 47.949219 51.863281 Z M 47.949219 51.863281 "/>
<path fill-rule="evenodd" fill="rgb(54.5%, 0%, 0%)" fill-opacity="1" d="M 58.523438 33.546875 C 58.523438 32.347656 56.722656 32.347656 56.722656 33.546875 C 56.722656 34.746094 58.523438 34.746094 58.523438 33.546875 Z M 58.523438 33.546875 "/>
<path fill-rule="evenodd" fill="rgb(54.5%, 0%, 0%)" fill-opacity="1" d="M 64.675781 39.488281 C 64.675781 38.285156 62.875 38.285156 62.875 39.488281 C 62.875 40.6875 64.675781 40.6875 64.675781 39.488281 Z M 64.675781 39.488281 "/>
<path fill-rule="evenodd" fill="rgb(54.5%, 0%, 0%)" fill-opacity="1" d="M 59.570312 40.4375 C 59.570312 39.238281 57.769531 39.238281 57.769531 40.4375 C 57.769531 41.636719 59.570312 41.636719 59.570312 40.4375 Z M 59.570312 40.4375 "/>
<path fill-rule="evenodd" fill="rgb(54.5%, 0%, 0%)" fill-opacity="1" d="M 43.636719 58.570312 C 43.636719 57.371094 41.839844 57.371094 41.839844 58.570312 C 41.839844 59.769531 43.636719 59.769531 43.636719 58.570312 Z M 43.636719 58.570312 "/>
<path fill-rule="evenodd" fill="rgb(54.5%, 0%, 0%)" fill-opacity="1" d="M 34.59375 65.484375 C 34.59375 64.285156 32.792969 64.285156 32.792969 65.484375 C 32.792969 66.6875 34.59375 66.6875 34.59375 65.484375 Z M 34.59375 65.484375 "/>
<path fill-rule="evenodd" fill="rgb(54.5%, 0%, 0%)" fill-opacity="1" d="M 78.992188 56.621094 C 78.992188 55.421875 77.191406 55.421875 77.191406 56.621094 C 77.191406 57.820312 78.992188 57.820312 78.992188 56.621094 Z M 78.992188 56.621094 "/>
<path fill-rule="evenodd" fill="rgb(54.5%, 0%, 0%)" fill-opacity="1" d="M 80.765625 54.730469 C 80.765625 53.53125 78.96875 53.53125 78.96875 54.730469 C 78.96875 55.933594 80.765625 55.933594 80.765625 54.730469 Z M 80.765625 54.730469 "/>
<path fill-rule="evenodd" fill="rgb(54.5%, 0%, 0%)" fill-opacity="1" d="M 73.652344 17.183594 C 73.652344 15.984375 71.855469 15.984375 71.855469 17.183594 C 71.855469 18.382812 73.652344 18.382812 73.652344 17.183594 Z M 73.652344 17.183594 "/>
<path fill-rule="evenodd" fill="rgb(54.5%, 0%, 0%)" fill-opacity="1" d="M 78.894531 19.480469 C 78.894531 18.28125 77.09375 18.28125 77.09375 19.480469 C 77.09375 20.679688 78.894531 20.679688 78.894531 19.480469 Z M 78.894531 19.480469 "/>
<path fill-rule="evenodd" fill="rgb(54.5%, 0%, 0%)" fill-opacity="1" d="M 78.871094 63.160156 C 78.871094 61.960938 77.070312 61.960938 77.070312 63.160156 C 77.070312 64.359375 78.871094 64.359375 78.871094 63.160156 Z M 78.871094 63.160156 "/>
<path fill-rule="evenodd" fill="rgb(54.5%, 0%, 0%)" fill-opacity="1" d="M 57.445312 75.042969 C 57.445312 73.84375 55.644531 73.84375 55.644531 75.042969 C 55.644531 76.242188 57.445312 76.242188 57.445312 75.042969 Z M 57.445312 75.042969 "/>
<path fill-rule="evenodd" fill="rgb(54.5%, 0%, 0%)" fill-opacity="1" d="M 64.886719 72.554688 C 64.886719 71.355469 63.085938 71.355469 63.085938 72.554688 C 63.085938 73.757812 64.886719 73.757812 64.886719 72.554688 Z M 64.886719 72.554688 "/>
<path fill-rule="evenodd" fill="rgb(54.5%, 0%, 0%)" fill-opacity="1" d="M 74.296875 61.710938 C 74.296875 60.511719 72.496094 60.511719 72.496094 61.710938 C 72.496094 62.910156 74.296875 62.910156 74.296875 61.710938 Z M 74.296875 61.710938 "/>
<path fill-rule="evenodd" fill="rgb(54.5%, 0%, 0%)" fill-opacity="1" d="M 36.191406 70.359375 C 36.191406 69.15625 34.390625 69.15625 34.390625 70.359375 C 34.390625 71.558594 36.191406 71.558594 36.191406 70.359375 Z M 36.191406 70.359375 "/>
<path fill-rule="evenodd" fill="rgb(54.5%, 0%, 0%)" fill-opacity="1" d="M 25.738281 72.59375 C 25.738281 71.394531 23.9375 71.394531 23.9375 72.59375 C 23.9375 73.796875 25.738281 73.796875 25.738281 72.59375 Z M 25.738281 72.59375 "/>
<path fill-rule="evenodd" fill="rgb(54.5%, 0%, 0%)" fill-opacity="1" d="M 21.300781 68.070312 C 21.300781 66.871094 19.5 66.871094 19.5 68.070312 C 19.5 69.273438 21.300781 69.273438 21.300781 68.070312 Z M 21.300781 68.070312 "/>
</svg>
