<?xml version="1.0" encoding="utf-8" standalone="no"?>
<!DOCTYPE svg PUBLIC "-//W3C//DTD SVG 1.1//EN"
  "http://www.w3.org/Graphics/SVG/1.1/DTD/svg11.dtd">
<svg xmlns:xlink="http://www.w3.org/1999/xlink" width="676.908125pt" height="311.4976pt" viewBox="0 0 676.908125 311.4976" xmlns="http://www.w3.org/2000/svg" version="1.1">
 <metadata>
  <rdf:RDF xmlns:dc="http://purl.org/dc/elements/1.1/" xmlns:cc="http://creativecommons.org/ns#" xmlns:rdf="http://www.w3.org/1999/02/22-rdf-syntax-ns#">
   <cc:Work>
    <dc:type rdf:resource="http://purl.org/dc/dcmitype/StillImage"/>
    <dc:date>2026-02-03T23:59:26.258550</dc:date>
    <dc:format>image/svg+xml</dc:format>
    <dc:creator>
     <cc:Agent>
      <dc:title>Matplotlib v3.10.8, https://matplotlib.org/</dc:title>
     </cc:Agent>
    </dc:creator>
   </cc:Work>
  </rdf:RDF>
 </metadata>
 <defs>
  <style type="text/css">*{stroke-linejoin: round; stroke-linecap: butt}</style>
 </defs>
 <g id="figure_1">
  <g id="patch_1">
   <path d="M 0 311.4976 
L 676.908125 311.4976 
L 676.908125 0 
L 0 0 
z
" style="fill: #ffffff"/>
  </g>
  <g id="axes_1">
   <g id="patch_2">
    <path d="M 40.603125 202.2776 
L 332.190625 202.2776 
L 332.190625 43.5576 
L 40.603125 43.5576 
z
" style="fill: #ffffff"/>
   </g>
   <g id="matplotlib.axis_1">
    <g id="xtick_1">
     <g id="line2d_1">
      <defs>
       <path id="m1c1bd35903" d="M 0 0 
L 0 3.5 
" style="stroke: #000000; stroke-width: 0.8"/>
      </defs>
      <g>
       <use xlink:href="#m1c1bd35903" x="318.476751" y="202.2776" style="stroke: #000000; stroke-width: 0.8"/>
      </g>
     </g>
     <g id="text_1">
      <!-- 50 -->
      <g transform="translate(312.114251 216.876037) scale(0.1 -0.1)">
       <defs>
        <path id="DejaVuSans-35" d="M 691 4666 
L 3169 4666 
L 3169 4134 
L 1269 4134 
L 1269 2991 
Q 1406 3038 1543 3061 
Q 1681 3084 1819 3084 
Q 2600 3084 3056 2656 
Q 3513 2228 3513 1497 
Q 3513 744 3044 326 
Q 2575 -91 1722 -91 
Q 1428 -91 1123 -41 
Q 819 9 494 109 
L 494 744 
Q 775 591 1075 516 
Q 1375 441 1709 441 
Q 2250 441 2565 725 
Q 2881 1009 2881 1497 
Q 2881 1984 2565 2268 
Q 2250 2553 1709 2553 
Q 1456 2553 1204 2497 
Q 953 2441 691 2322 
L 691 4666 
z
" transform="scale(0.015625)"/>
        <path id="DejaVuSans-30" d="M 2034 4250 
Q 1547 4250 1301 3770 
Q 1056 3291 1056 2328 
Q 1056 1369 1301 889 
Q 1547 409 2034 409 
Q 2525 409 2770 889 
Q 3016 1369 3016 2328 
Q 3016 3291 2770 3770 
Q 2525 4250 2034 4250 
z
M 2034 4750 
Q 2819 4750 3233 4129 
Q 3647 3509 3647 2328 
Q 3647 1150 3233 529 
Q 2819 -91 2034 -91 
Q 1250 -91 836 529 
Q 422 1150 422 2328 
Q 422 3509 836 4129 
Q 1250 4750 2034 4750 
z
" transform="scale(0.015625)"/>
       </defs>
       <use xlink:href="#DejaVuSans-35"/>
       <use xlink:href="#DejaVuSans-30" transform="translate(63.623047 0)"/>
      </g>
     </g>
    </g>
    <g id="xtick_2">
     <g id="line2d_2">
      <g>
       <use xlink:href="#m1c1bd35903" x="265.18816" y="202.2776" style="stroke: #000000; stroke-width: 0.8"/>
      </g>
     </g>
     <g id="text_2">
      <!-- 25 -->
      <g transform="translate(258.82566 216.876037) scale(0.1 -0.1)">
       <defs>
        <path id="DejaVuSans-32" d="M 1228 531 
L 3431 531 
L 3431 0 
L 469 0 
L 469 531 
Q 828 903 1448 1529 
Q 2069 2156 2228 2338 
Q 2531 2678 2651 2914 
Q 2772 3150 2772 3378 
Q 2772 3750 2511 3984 
Q 2250 4219 1831 4219 
Q 1534 4219 1204 4116 
Q 875 4013 500 3803 
L 500 4441 
Q 881 4594 1212 4672 
Q 1544 4750 1819 4750 
Q 2544 4750 2975 4387 
Q 3406 4025 3406 3419 
Q 3406 3131 3298 2873 
Q 3191 2616 2906 2266 
Q 2828 2175 2409 1742 
Q 1991 1309 1228 531 
z
" transform="scale(0.015625)"/>
       </defs>
       <use xlink:href="#DejaVuSans-32"/>
       <use xlink:href="#DejaVuSans-35" transform="translate(63.623047 0)"/>
      </g>
     </g>
    </g>
    <g id="xtick_3">
     <g id="line2d_3">
      <g>
       <use xlink:href="#m1c1bd35903" x="211.899569" y="202.2776" style="stroke: #000000; stroke-width: 0.8"/>
      </g>
     </g>
     <g id="text_3">
      <!-- 12.5 -->
      <g transform="translate(200.766756 216.876037) scale(0.1 -0.1)">
       <defs>
        <path id="DejaVuSans-31" d="M 794 531 
L 1825 531 
L 1825 4091 
L 703 3866 
L 703 4441 
L 1819 4666 
L 2450 4666 
L 2450 531 
L 3481 531 
L 3481 0 
L 794 0 
L 794 531 
z
" transform="scale(0.015625)"/>
        <path id="DejaVuSans-2e" d="M 684 794 
L 1344 794 
L 1344 0 
L 684 0 
L 684 794 
z
" transform="scale(0.015625)"/>
       </defs>
       <use xlink:href="#DejaVuSans-31"/>
       <use xlink:href="#DejaVuSans-32" transform="translate(63.623047 0)"/>
       <use xlink:href="#DejaVuSans-2e" transform="translate(127.246094 0)"/>
       <use xlink:href="#DejaVuSans-35" transform="translate(159.033203 0)"/>
      </g>
     </g>
    </g>
    <g id="xtick_4">
     <g id="line2d_4">
      <g>
       <use xlink:href="#m1c1bd35903" x="158.610977" y="202.2776" style="stroke: #000000; stroke-width: 0.8"/>
      </g>
     </g>
     <g id="text_4">
      <!-- 6.25 -->
      <g transform="translate(147.478165 216.876037) scale(0.1 -0.1)">
       <defs>
        <path id="DejaVuSans-36" d="M 2113 2584 
Q 1688 2584 1439 2293 
Q 1191 2003 1191 1497 
Q 1191 994 1439 701 
Q 1688 409 2113 409 
Q 2538 409 2786 701 
Q 3034 994 3034 1497 
Q 3034 2003 2786 2293 
Q 2538 2584 2113 2584 
z
M 3366 4563 
L 3366 3988 
Q 3128 4100 2886 4159 
Q 2644 4219 2406 4219 
Q 1781 4219 1451 3797 
Q 1122 3375 1075 2522 
Q 1259 2794 1537 2939 
Q 1816 3084 2150 3084 
Q 2853 3084 3261 2657 
Q 3669 2231 3669 1497 
Q 3669 778 3244 343 
Q 2819 -91 2113 -91 
Q 1303 -91 875 529 
Q 447 1150 447 2328 
Q 447 3434 972 4092 
Q 1497 4750 2381 4750 
Q 2619 4750 2861 4703 
Q 3103 4656 3366 4563 
z
" transform="scale(0.015625)"/>
       </defs>
       <use xlink:href="#DejaVuSans-36"/>
       <use xlink:href="#DejaVuSans-2e" transform="translate(63.623047 0)"/>
       <use xlink:href="#DejaVuSans-32" transform="translate(95.410156 0)"/>
       <use xlink:href="#DejaVuSans-35" transform="translate(159.033203 0)"/>
      </g>
     </g>
    </g>
    <g id="xtick_5">
     <g id="line2d_5">
      <g>
       <use xlink:href="#m1c1bd35903" x="105.322386" y="202.2776" style="stroke: #000000; stroke-width: 0.8"/>
      </g>
     </g>
     <g id="text_5">
      <!-- 3.12 -->
      <g transform="translate(94.189574 216.876037) scale(0.1 -0.1)">
       <defs>
        <path id="DejaVuSans-33" d="M 2597 2516 
Q 3050 2419 3304 2112 
Q 3559 1806 3559 1356 
Q 3559 666 3084 287 
Q 2609 -91 1734 -91 
Q 1441 -91 1130 -33 
Q 819 25 488 141 
L 488 750 
Q 750 597 1062 519 
Q 1375 441 1716 441 
Q 2309 441 2620 675 
Q 2931 909 2931 1356 
Q 2931 1769 2642 2001 
Q 2353 2234 1838 2234 
L 1294 2234 
L 1294 2753 
L 1863 2753 
Q 2328 2753 2575 2939 
Q 2822 3125 2822 3475 
Q 2822 3834 2567 4026 
Q 2313 4219 1838 4219 
Q 1578 4219 1281 4162 
Q 984 4106 628 3988 
L 628 4550 
Q 988 4650 1302 4700 
Q 1616 4750 1894 4750 
Q 2613 4750 3031 4423 
Q 3450 4097 3450 3541 
Q 3450 3153 3228 2886 
Q 3006 2619 2597 2516 
z
" transform="scale(0.015625)"/>
       </defs>
       <use xlink:href="#DejaVuSans-33"/>
       <use xlink:href="#DejaVuSans-2e" transform="translate(63.623047 0)"/>
       <use xlink:href="#DejaVuSans-31" transform="translate(95.410156 0)"/>
       <use xlink:href="#DejaVuSans-32" transform="translate(159.033203 0)"/>
      </g>
     </g>
    </g>
    <g id="xtick_6">
     <g id="line2d_6">
      <g>
       <use xlink:href="#m1c1bd35903" x="52.033795" y="202.2776" style="stroke: #000000; stroke-width: 0.8"/>
      </g>
     </g>
     <g id="text_6">
      <!-- 1.56 -->
      <g transform="translate(40.900983 216.876037) scale(0.1 -0.1)">
       <use xlink:href="#DejaVuSans-31"/>
       <use xlink:href="#DejaVuSans-2e" transform="translate(63.623047 0)"/>
       <use xlink:href="#DejaVuSans-35" transform="translate(95.410156 0)"/>
       <use xlink:href="#DejaVuSans-36" transform="translate(159.033203 0)"/>
      </g>
     </g>
    </g>
    <g id="text_7">
     <!-- Overhead [%] -->
     <g transform="translate(151.732031 230.554162) scale(0.1 -0.1)">
      <defs>
       <path id="DejaVuSans-4f" d="M 2522 4238 
Q 1834 4238 1429 3725 
Q 1025 3213 1025 2328 
Q 1025 1447 1429 934 
Q 1834 422 2522 422 
Q 3209 422 3611 934 
Q 4013 1447 4013 2328 
Q 4013 3213 3611 3725 
Q 3209 4238 2522 4238 
z
M 2522 4750 
Q 3503 4750 4090 4092 
Q 4678 3434 4678 2328 
Q 4678 1225 4090 567 
Q 3503 -91 2522 -91 
Q 1538 -91 948 565 
Q 359 1222 359 2328 
Q 359 3434 948 4092 
Q 1538 4750 2522 4750 
z
" transform="scale(0.015625)"/>
       <path id="DejaVuSans-76" d="M 191 3500 
L 800 3500 
L 1894 563 
L 2988 3500 
L 3597 3500 
L 2284 0 
L 1503 0 
L 191 3500 
z
" transform="scale(0.015625)"/>
       <path id="DejaVuSans-65" d="M 3597 1894 
L 3597 1613 
L 953 1613 
Q 991 1019 1311 708 
Q 1631 397 2203 397 
Q 2534 397 2845 478 
Q 3156 559 3463 722 
L 3463 178 
Q 3153 47 2828 -22 
Q 2503 -91 2169 -91 
Q 1331 -91 842 396 
Q 353 884 353 1716 
Q 353 2575 817 3079 
Q 1281 3584 2069 3584 
Q 2775 3584 3186 3129 
Q 3597 2675 3597 1894 
z
M 3022 2063 
Q 3016 2534 2758 2815 
Q 2500 3097 2075 3097 
Q 1594 3097 1305 2825 
Q 1016 2553 972 2059 
L 3022 2063 
z
" transform="scale(0.015625)"/>
       <path id="DejaVuSans-72" d="M 2631 2963 
Q 2534 3019 2420 3045 
Q 2306 3072 2169 3072 
Q 1681 3072 1420 2755 
Q 1159 2438 1159 1844 
L 1159 0 
L 581 0 
L 581 3500 
L 1159 3500 
L 1159 2956 
Q 1341 3275 1631 3429 
Q 1922 3584 2338 3584 
Q 2397 3584 2469 3576 
Q 2541 3569 2628 3553 
L 2631 2963 
z
" transform="scale(0.015625)"/>
       <path id="DejaVuSans-68" d="M 3513 2113 
L 3513 0 
L 2938 0 
L 2938 2094 
Q 2938 2591 2744 2837 
Q 2550 3084 2163 3084 
Q 1697 3084 1428 2787 
Q 1159 2491 1159 1978 
L 1159 0 
L 581 0 
L 581 4863 
L 1159 4863 
L 1159 2956 
Q 1366 3272 1645 3428 
Q 1925 3584 2291 3584 
Q 2894 3584 3203 3211 
Q 3513 2838 3513 2113 
z
" transform="scale(0.015625)"/>
       <path id="DejaVuSans-61" d="M 2194 1759 
Q 1497 1759 1228 1600 
Q 959 1441 959 1056 
Q 959 750 1161 570 
Q 1363 391 1709 391 
Q 2188 391 2477 730 
Q 2766 1069 2766 1631 
L 2766 1759 
L 2194 1759 
z
M 3341 1997 
L 3341 0 
L 2766 0 
L 2766 531 
Q 2569 213 2275 61 
Q 1981 -91 1556 -91 
Q 1019 -91 701 211 
Q 384 513 384 1019 
Q 384 1609 779 1909 
Q 1175 2209 1959 2209 
L 2766 2209 
L 2766 2266 
Q 2766 2663 2505 2880 
Q 2244 3097 1772 3097 
Q 1472 3097 1187 3025 
Q 903 2953 641 2809 
L 641 3341 
Q 956 3463 1253 3523 
Q 1550 3584 1831 3584 
Q 2591 3584 2966 3190 
Q 3341 2797 3341 1997 
z
" transform="scale(0.015625)"/>
       <path id="DejaVuSans-64" d="M 2906 2969 
L 2906 4863 
L 3481 4863 
L 3481 0 
L 2906 0 
L 2906 525 
Q 2725 213 2448 61 
Q 2172 -91 1784 -91 
Q 1150 -91 751 415 
Q 353 922 353 1747 
Q 353 2572 751 3078 
Q 1150 3584 1784 3584 
Q 2172 3584 2448 3432 
Q 2725 3281 2906 2969 
z
M 947 1747 
Q 947 1113 1208 752 
Q 1469 391 1925 391 
Q 2381 391 2643 752 
Q 2906 1113 2906 1747 
Q 2906 2381 2643 2742 
Q 2381 3103 1925 3103 
Q 1469 3103 1208 2742 
Q 947 2381 947 1747 
z
" transform="scale(0.015625)"/>
       <path id="DejaVuSans-20" transform="scale(0.015625)"/>
       <path id="DejaVuSans-5b" d="M 550 4863 
L 1875 4863 
L 1875 4416 
L 1125 4416 
L 1125 -397 
L 1875 -397 
L 1875 -844 
L 550 -844 
L 550 4863 
z
" transform="scale(0.015625)"/>
       <path id="DejaVuSans-25" d="M 4653 2053 
Q 4381 2053 4226 1822 
Q 4072 1591 4072 1178 
Q 4072 772 4226 539 
Q 4381 306 4653 306 
Q 4919 306 5073 539 
Q 5228 772 5228 1178 
Q 5228 1588 5073 1820 
Q 4919 2053 4653 2053 
z
M 4653 2450 
Q 5147 2450 5437 2106 
Q 5728 1763 5728 1178 
Q 5728 594 5436 251 
Q 5144 -91 4653 -91 
Q 4153 -91 3862 251 
Q 3572 594 3572 1178 
Q 3572 1766 3864 2108 
Q 4156 2450 4653 2450 
z
M 1428 4353 
Q 1159 4353 1004 4120 
Q 850 3888 850 3481 
Q 850 3069 1003 2837 
Q 1156 2606 1428 2606 
Q 1700 2606 1854 2837 
Q 2009 3069 2009 3481 
Q 2009 3884 1853 4118 
Q 1697 4353 1428 4353 
z
M 4250 4750 
L 4750 4750 
L 1831 -91 
L 1331 -91 
L 4250 4750 
z
M 1428 4750 
Q 1922 4750 2215 4408 
Q 2509 4066 2509 3481 
Q 2509 2891 2217 2550 
Q 1925 2209 1428 2209 
Q 931 2209 642 2551 
Q 353 2894 353 3481 
Q 353 4063 643 4406 
Q 934 4750 1428 4750 
z
" transform="scale(0.015625)"/>
       <path id="DejaVuSans-5d" d="M 1947 4863 
L 1947 -844 
L 622 -844 
L 622 -397 
L 1369 -397 
L 1369 4416 
L 622 4416 
L 622 4863 
L 1947 4863 
z
" transform="scale(0.015625)"/>
      </defs>
      <use xlink:href="#DejaVuSans-4f"/>
      <use xlink:href="#DejaVuSans-76" transform="translate(78.710938 0)"/>
      <use xlink:href="#DejaVuSans-65" transform="translate(137.890625 0)"/>
      <use xlink:href="#DejaVuSans-72" transform="translate(199.414062 0)"/>
      <use xlink:href="#DejaVuSans-68" transform="translate(238.777344 0)"/>
      <use xlink:href="#DejaVuSans-65" transform="translate(302.15625 0)"/>
      <use xlink:href="#DejaVuSans-61" transform="translate(363.679688 0)"/>
      <use xlink:href="#DejaVuSans-64" transform="translate(424.958984 0)"/>
      <use xlink:href="#DejaVuSans-20" transform="translate(488.435547 0)"/>
      <use xlink:href="#DejaVuSans-5b" transform="translate(520.222656 0)"/>
      <use xlink:href="#DejaVuSans-25" transform="translate(559.236328 0)"/>
      <use xlink:href="#DejaVuSans-5d" transform="translate(654.255859 0)"/>
     </g>
    </g>
   </g>
   <g id="matplotlib.axis_2">
    <g id="ytick_1">
     <g id="line2d_7">
      <path d="M 40.603125 182.965426 
L 332.190625 182.965426 
" clip-path="url(#pb90d132fd6)" style="fill: none; stroke: #000000; stroke-opacity: 0.5; stroke-width: 0.5; stroke-linecap: square"/>
     </g>
     <g id="line2d_8">
      <defs>
       <path id="m212e5c034f" d="M 0 0 
L -3.5 0 
" style="stroke: #000000; stroke-width: 0.8"/>
      </defs>
      <g>
       <use xlink:href="#m212e5c034f" x="40.603125" y="182.965426" style="stroke: #000000; stroke-width: 0.8"/>
      </g>
     </g>
     <g id="text_8">
      <!-- 2 -->
      <g transform="translate(27.240625 186.764645) scale(0.1 -0.1)">
       <use xlink:href="#DejaVuSans-32"/>
      </g>
     </g>
    </g>
    <g id="ytick_2">
     <g id="line2d_9">
      <path d="M 40.603125 139.983187 
L 332.190625 139.983187 
" clip-path="url(#pb90d132fd6)" style="fill: none; stroke: #000000; stroke-opacity: 0.5; stroke-width: 0.5; stroke-linecap: square"/>
     </g>
     <g id="line2d_10">
      <g>
       <use xlink:href="#m212e5c034f" x="40.603125" y="139.983187" style="stroke: #000000; stroke-width: 0.8"/>
      </g>
     </g>
     <g id="text_9">
      <!-- 4 -->
      <g transform="translate(27.240625 143.782405) scale(0.1 -0.1)">
       <defs>
        <path id="DejaVuSans-34" d="M 2419 4116 
L 825 1625 
L 2419 1625 
L 2419 4116 
z
M 2253 4666 
L 3047 4666 
L 3047 1625 
L 3713 1625 
L 3713 1100 
L 3047 1100 
L 3047 0 
L 2419 0 
L 2419 1100 
L 313 1100 
L 313 1709 
L 2253 4666 
z
" transform="scale(0.015625)"/>
       </defs>
       <use xlink:href="#DejaVuSans-34"/>
      </g>
     </g>
    </g>
    <g id="ytick_3">
     <g id="line2d_11">
      <path d="M 40.603125 97.000947 
L 332.190625 97.000947 
" clip-path="url(#pb90d132fd6)" style="fill: none; stroke: #000000; stroke-opacity: 0.5; stroke-width: 0.5; stroke-linecap: square"/>
     </g>
     <g id="line2d_12">
      <g>
       <use xlink:href="#m212e5c034f" x="40.603125" y="97.000947" style="stroke: #000000; stroke-width: 0.8"/>
      </g>
     </g>
     <g id="text_10">
      <!-- 8 -->
      <g transform="translate(27.240625 100.800166) scale(0.1 -0.1)">
       <defs>
        <path id="DejaVuSans-38" d="M 2034 2216 
Q 1584 2216 1326 1975 
Q 1069 1734 1069 1313 
Q 1069 891 1326 650 
Q 1584 409 2034 409 
Q 2484 409 2743 651 
Q 3003 894 3003 1313 
Q 3003 1734 2745 1975 
Q 2488 2216 2034 2216 
z
M 1403 2484 
Q 997 2584 770 2862 
Q 544 3141 544 3541 
Q 544 4100 942 4425 
Q 1341 4750 2034 4750 
Q 2731 4750 3128 4425 
Q 3525 4100 3525 3541 
Q 3525 3141 3298 2862 
Q 3072 2584 2669 2484 
Q 3125 2378 3379 2068 
Q 3634 1759 3634 1313 
Q 3634 634 3220 271 
Q 2806 -91 2034 -91 
Q 1263 -91 848 271 
Q 434 634 434 1313 
Q 434 1759 690 2068 
Q 947 2378 1403 2484 
z
M 1172 3481 
Q 1172 3119 1398 2916 
Q 1625 2713 2034 2713 
Q 2441 2713 2670 2916 
Q 2900 3119 2900 3481 
Q 2900 3844 2670 4047 
Q 2441 4250 2034 4250 
Q 1625 4250 1398 4047 
Q 1172 3844 1172 3481 
z
" transform="scale(0.015625)"/>
       </defs>
       <use xlink:href="#DejaVuSans-38"/>
      </g>
     </g>
    </g>
    <g id="ytick_4">
     <g id="line2d_13">
      <path d="M 40.603125 54.018707 
L 332.190625 54.018707 
" clip-path="url(#pb90d132fd6)" style="fill: none; stroke: #000000; stroke-opacity: 0.5; stroke-width: 0.5; stroke-linecap: square"/>
     </g>
     <g id="line2d_14">
      <g>
       <use xlink:href="#m212e5c034f" x="40.603125" y="54.018707" style="stroke: #000000; stroke-width: 0.8"/>
      </g>
     </g>
     <g id="text_11">
      <!-- 16 -->
      <g transform="translate(20.878125 57.817926) scale(0.1 -0.1)">
       <use xlink:href="#DejaVuSans-31"/>
       <use xlink:href="#DejaVuSans-36" transform="translate(63.623047 0)"/>
      </g>
     </g>
    </g>
    <g id="ytick_5">
     <g id="line2d_15">
      <path d="M 40.603125 161.474307 
L 332.190625 161.474307 
" clip-path="url(#pb90d132fd6)" style="fill: none; stroke-dasharray: 1.85,0.8; stroke-dashoffset: 0; stroke: #000000; stroke-opacity: 0.3; stroke-width: 0.5"/>
     </g>
     <g id="line2d_16">
      <defs>
       <path id="md5d5c276ea" d="M 0 0 
L -2 0 
" style="stroke: #000000; stroke-width: 0.6"/>
      </defs>
      <g>
       <use xlink:href="#md5d5c276ea" x="40.603125" y="161.474307" style="stroke: #000000; stroke-width: 0.6"/>
      </g>
     </g>
    </g>
    <g id="ytick_6">
     <g id="line2d_17">
      <path d="M 40.603125 118.492067 
L 332.190625 118.492067 
" clip-path="url(#pb90d132fd6)" style="fill: none; stroke-dasharray: 1.85,0.8; stroke-dashoffset: 0; stroke: #000000; stroke-opacity: 0.3; stroke-width: 0.5"/>
     </g>
     <g id="line2d_18">
      <g>
       <use xlink:href="#md5d5c276ea" x="40.603125" y="118.492067" style="stroke: #000000; stroke-width: 0.6"/>
      </g>
     </g>
    </g>
    <g id="ytick_7">
     <g id="line2d_19">
      <path d="M 40.603125 75.509827 
L 332.190625 75.509827 
" clip-path="url(#pb90d132fd6)" style="fill: none; stroke-dasharray: 1.85,0.8; stroke-dashoffset: 0; stroke: #000000; stroke-opacity: 0.3; stroke-width: 0.5"/>
     </g>
     <g id="line2d_20">
      <g>
       <use xlink:href="#md5d5c276ea" x="40.603125" y="75.509827" style="stroke: #000000; stroke-width: 0.6"/>
      </g>
     </g>
    </g>
    <g id="text_12">
     <!-- ns/query -->
     <g transform="translate(14.798438 144.809787) rotate(-90) scale(0.1 -0.1)">
      <defs>
       <path id="DejaVuSans-6e" d="M 3513 2113 
L 3513 0 
L 2938 0 
L 2938 2094 
Q 2938 2591 2744 2837 
Q 2550 3084 2163 3084 
Q 1697 3084 1428 2787 
Q 1159 2491 1159 1978 
L 1159 0 
L 581 0 
L 581 3500 
L 1159 3500 
L 1159 2956 
Q 1366 3272 1645 3428 
Q 1925 3584 2291 3584 
Q 2894 3584 3203 3211 
Q 3513 2838 3513 2113 
z
" transform="scale(0.015625)"/>
       <path id="DejaVuSans-73" d="M 2834 3397 
L 2834 2853 
Q 2591 2978 2328 3040 
Q 2066 3103 1784 3103 
Q 1356 3103 1142 2972 
Q 928 2841 928 2578 
Q 928 2378 1081 2264 
Q 1234 2150 1697 2047 
L 1894 2003 
Q 2506 1872 2764 1633 
Q 3022 1394 3022 966 
Q 3022 478 2636 193 
Q 2250 -91 1575 -91 
Q 1294 -91 989 -36 
Q 684 19 347 128 
L 347 722 
Q 666 556 975 473 
Q 1284 391 1588 391 
Q 1994 391 2212 530 
Q 2431 669 2431 922 
Q 2431 1156 2273 1281 
Q 2116 1406 1581 1522 
L 1381 1569 
Q 847 1681 609 1914 
Q 372 2147 372 2553 
Q 372 3047 722 3315 
Q 1072 3584 1716 3584 
Q 2034 3584 2315 3537 
Q 2597 3491 2834 3397 
z
" transform="scale(0.015625)"/>
       <path id="DejaVuSans-2f" d="M 1625 4666 
L 2156 4666 
L 531 -594 
L 0 -594 
L 1625 4666 
z
" transform="scale(0.015625)"/>
       <path id="DejaVuSans-71" d="M 947 1747 
Q 947 1113 1208 752 
Q 1469 391 1925 391 
Q 2381 391 2643 752 
Q 2906 1113 2906 1747 
Q 2906 2381 2643 2742 
Q 2381 3103 1925 3103 
Q 1469 3103 1208 2742 
Q 947 2381 947 1747 
z
M 2906 525 
Q 2725 213 2448 61 
Q 2172 -91 1784 -91 
Q 1150 -91 751 415 
Q 353 922 353 1747 
Q 353 2572 751 3078 
Q 1150 3584 1784 3584 
Q 2172 3584 2448 3432 
Q 2725 3281 2906 2969 
L 2906 3500 
L 3481 3500 
L 3481 -1331 
L 2906 -1331 
L 2906 525 
z
" transform="scale(0.015625)"/>
       <path id="DejaVuSans-75" d="M 544 1381 
L 544 3500 
L 1119 3500 
L 1119 1403 
Q 1119 906 1312 657 
Q 1506 409 1894 409 
Q 2359 409 2629 706 
Q 2900 1003 2900 1516 
L 2900 3500 
L 3475 3500 
L 3475 0 
L 2900 0 
L 2900 538 
Q 2691 219 2414 64 
Q 2138 -91 1772 -91 
Q 1169 -91 856 284 
Q 544 659 544 1381 
z
M 1991 3584 
L 1991 3584 
z
" transform="scale(0.015625)"/>
       <path id="DejaVuSans-79" d="M 2059 -325 
Q 1816 -950 1584 -1140 
Q 1353 -1331 966 -1331 
L 506 -1331 
L 506 -850 
L 844 -850 
Q 1081 -850 1212 -737 
Q 1344 -625 1503 -206 
L 1606 56 
L 191 3500 
L 800 3500 
L 1894 763 
L 2988 3500 
L 3597 3500 
L 2059 -325 
z
" transform="scale(0.015625)"/>
      </defs>
      <use xlink:href="#DejaVuSans-6e"/>
      <use xlink:href="#DejaVuSans-73" transform="translate(63.378906 0)"/>
      <use xlink:href="#DejaVuSans-2f" transform="translate(115.478516 0)"/>
      <use xlink:href="#DejaVuSans-71" transform="translate(149.169922 0)"/>
      <use xlink:href="#DejaVuSans-75" transform="translate(212.646484 0)"/>
      <use xlink:href="#DejaVuSans-65" transform="translate(276.025391 0)"/>
      <use xlink:href="#DejaVuSans-72" transform="translate(337.548828 0)"/>
      <use xlink:href="#DejaVuSans-79" transform="translate(378.662109 0)"/>
     </g>
    </g>
   </g>
   <g id="PathCollection_1">
    <defs>
     <path id="m7818ecf962" d="M -3.872983 0 
L 3.872983 0 
M 0 3.872983 
L 0 -3.872983 
" style="stroke: #0000ff; stroke-width: 1.5"/>
    </defs>
    <g clip-path="url(#pb90d132fd6)">
     <use xlink:href="#m7818ecf962" x="53.857102" y="51.810619" style="fill: #0000ff; stroke: #0000ff; stroke-width: 1.5"/>
    </g>
   </g>
   <g id="PathCollection_2">
    <defs>
     <path id="m83b4b9f158" d="M 0 -4.743416 
L -1.064963 -1.465796 
L -4.511257 -1.465796 
L -1.723147 0.559884 
L -2.78811 3.837505 
L -0 1.811824 
L 2.78811 3.837505 
L 1.723147 0.559884 
L 4.511257 -1.465796 
L 1.064963 -1.465796 
z
" style="stroke: #fcc007"/>
    </defs>
    <g clip-path="url(#pb90d132fd6)">
     <use xlink:href="#m83b4b9f158" x="109.511394" y="110.259499" style="fill: #fcc007; stroke: #fcc007"/>
    </g>
   </g>
   <g id="PathCollection_3">
    <defs>
     <path id="mf020372322" d="M 0 -3.872983 
L -0.869539 -1.196818 
L -3.683426 -1.196818 
L -1.406944 0.457144 
L -2.276482 3.133309 
L -0 1.479348 
L 2.276482 3.133309 
L 1.406944 0.457144 
L 3.683426 -1.196818 
L 0.869539 -1.196818 
z
" style="stroke: #0000ff"/>
    </defs>
    <g clip-path="url(#pb90d132fd6)">
     <use xlink:href="#mf020372322" x="107.145693" y="66.561473" style="fill: #0000ff; stroke: #0000ff"/>
    </g>
   </g>
   <g id="PathCollection_4">
    <defs>
     <path id="m66bfab4cf6" d="M 0 -3.872983 
L -0.869539 -1.196818 
L -3.683426 -1.196818 
L -1.406944 0.457144 
L -2.276482 3.133309 
L -0 1.479348 
L 2.276482 3.133309 
L 1.406944 0.457144 
L 3.683426 -1.196818 
L 0.869539 -1.196818 
z
" style="stroke: #800080"/>
    </defs>
    <g clip-path="url(#pb90d132fd6)">
     <use xlink:href="#m66bfab4cf6" x="109.511394" y="50.772145" style="fill: #800080; stroke: #800080"/>
    </g>
   </g>
   <g id="PathCollection_5">
    <defs>
     <path id="mfac720e453" d="M 0 -3.872983 
L -0.869539 -1.196818 
L -3.683426 -1.196818 
L -1.406944 0.457144 
L -2.276482 3.133309 
L -0 1.479348 
L 2.276482 3.133309 
L 1.406944 0.457144 
L 3.683426 -1.196818 
L 0.869539 -1.196818 
z
" style="stroke: #008080"/>
    </defs>
    <g clip-path="url(#pb90d132fd6)">
     <use xlink:href="#mfac720e453" x="107.145693" y="73.427912" style="fill: #008080; stroke: #008080"/>
    </g>
   </g>
   <g id="PathCollection_6">
    <defs>
     <path id="ma4ade05583" d="M 0 -3.872983 
L -0.869539 -1.196818 
L -3.683426 -1.196818 
L -1.406944 0.457144 
L -2.276482 3.133309 
L -0 1.479348 
L 2.276482 3.133309 
L 1.406944 0.457144 
L 3.683426 -1.196818 
L 0.869539 -1.196818 
z
" style="stroke: #ff0000"/>
    </defs>
    <g clip-path="url(#pb90d132fd6)">
     <use xlink:href="#ma4ade05583" x="107.145693" y="63.914433" style="fill: #ff0000; stroke: #ff0000"/>
    </g>
   </g>
   <g id="PathCollection_7">
    <defs>
     <path id="ma2f9aabc3d" d="M -4.743416 4.743416 
L 4.743416 -4.743416 
M -4.743416 -4.743416 
L 4.743416 4.743416 
" style="stroke: #fcc007; stroke-width: 1.5"/>
    </defs>
    <g clip-path="url(#pb90d132fd6)">
     <use xlink:href="#ma2f9aabc3d" x="163.956084" y="126.270141" style="fill: #fcc007; stroke: #fcc007; stroke-width: 1.5"/>
    </g>
   </g>
   <g id="PathCollection_8">
    <defs>
     <path id="m75b1458d2b" d="M -3.872983 3.872983 
L 3.872983 -3.872983 
M -3.872983 -3.872983 
L 3.872983 3.872983 
" style="stroke: #0000ff; stroke-width: 1.5"/>
    </defs>
    <g clip-path="url(#pb90d132fd6)">
     <use xlink:href="#m75b1458d2b" x="159.223564" y="79.200474" style="fill: #0000ff; stroke: #0000ff; stroke-width: 1.5"/>
    </g>
   </g>
   <g id="PathCollection_9">
    <defs>
     <path id="mbec44e0b9d" d="M -3.872983 3.872983 
L 3.872983 -3.872983 
M -3.872983 -3.872983 
L 3.872983 3.872983 
" style="stroke: #000000; stroke-width: 1.5"/>
    </defs>
    <g clip-path="url(#pb90d132fd6)">
     <use xlink:href="#mbec44e0b9d" x="162.799985" y="100.590968" style="stroke: #000000; stroke-width: 1.5"/>
    </g>
   </g>
   <g id="PathCollection_10">
    <defs>
     <path id="m89e9b931e6" d="M -0 5.477226 
L 3.286335 0 
L 0 -5.477226 
L -3.286335 -0 
z
" style="stroke: #0000ff"/>
    </defs>
    <g clip-path="url(#pb90d132fd6)">
     <use xlink:href="#m89e9b931e6" x="212.512155" y="101.751622" style="fill: #0000ff; stroke: #0000ff"/>
    </g>
   </g>
   <g id="PathCollection_11">
    <defs>
     <path id="m17f74a672f" d="M -0 6.708204 
L 4.024922 0 
L 0 -6.708204 
L -4.024922 -0 
z
" style="stroke: #fcc007"/>
    </defs>
    <g clip-path="url(#pb90d132fd6)">
     <use xlink:href="#m17f74a672f" x="222.242194" y="123.713909" style="fill: #fcc007; stroke: #fcc007"/>
    </g>
   </g>
   <g id="PathCollection_12">
    <defs>
     <path id="me1ca091743" d="M -0 3.872983 
L 3.872983 -3.872983 
L -3.872983 -3.872983 
z
" style="stroke: #0000ff"/>
    </defs>
    <g clip-path="url(#pb90d132fd6)">
     <use xlink:href="#me1ca091743" x="243.276134" y="146.173072" style="fill: #0000ff; stroke: #0000ff"/>
    </g>
   </g>
   <g id="PathCollection_13">
    <defs>
     <path id="m45a0cdb3a2" d="M -0 3.872983 
L 3.872983 -3.872983 
L -3.872983 -3.872983 
z
" style="stroke: #008000"/>
    </defs>
    <g clip-path="url(#pb90d132fd6)">
     <use xlink:href="#m45a0cdb3a2" x="265.18816" y="154.014463" style="fill: #008000; stroke: #008000"/>
    </g>
   </g>
   <g id="PathCollection_14">
    <defs>
     <path id="mef8f112256" d="M -0 3.872983 
L 3.872983 -3.872983 
L -3.872983 -3.872983 
z
" style="stroke: #ff0000"/>
    </defs>
    <g clip-path="url(#pb90d132fd6)">
     <use xlink:href="#mef8f112256" x="265.495063" y="136.078103" style="fill: #ff0000; stroke: #ff0000"/>
    </g>
   </g>
   <g id="PathCollection_15">
    <defs>
     <path id="m563fd273d9" d="M 0 4.743416 
C 1.257969 4.743416 2.464584 4.24362 3.354102 3.354102 
C 4.24362 2.464584 4.743416 1.257969 4.743416 0 
C 4.743416 -1.257969 4.24362 -2.464584 3.354102 -3.354102 
C 2.464584 -4.24362 1.257969 -4.743416 0 -4.743416 
C -1.257969 -4.743416 -2.464584 -4.24362 -3.354102 -3.354102 
C -4.24362 -2.464584 -4.743416 -1.257969 -4.743416 0 
C -4.743416 1.257969 -4.24362 2.464584 -3.354102 3.354102 
C -2.464584 4.24362 -1.257969 4.743416 0 4.743416 
z
" style="stroke: #fcc007"/>
    </defs>
    <g clip-path="url(#pb90d132fd6)">
     <use xlink:href="#m563fd273d9" x="287.228006" y="130.91341" style="fill: #fcc007; stroke: #fcc007"/>
    </g>
   </g>
   <g id="PathCollection_16">
    <defs>
     <path id="mbcadb10cb6" d="M -3.872983 3.872983 
L 3.872983 3.872983 
L 3.872983 -3.872983 
L -3.872983 -3.872983 
z
" style="stroke: #000000"/>
    </defs>
    <g clip-path="url(#pb90d132fd6)">
     <use xlink:href="#mbcadb10cb6" x="318.936648" y="140.294016" style="stroke: #000000"/>
    </g>
   </g>
   <g id="patch_3">
    <path d="M 40.603125 202.2776 
L 40.603125 43.5576 
" style="fill: none; stroke: #000000; stroke-width: 0.8; stroke-linejoin: miter; stroke-linecap: square"/>
   </g>
   <g id="patch_4">
    <path d="M 332.190625 202.2776 
L 332.190625 43.5576 
" style="fill: none; stroke: #000000; stroke-width: 0.8; stroke-linejoin: miter; stroke-linecap: square"/>
   </g>
   <g id="patch_5">
    <path d="M 40.603125 202.2776 
L 332.190625 202.2776 
" style="fill: none; stroke: #000000; stroke-width: 0.8; stroke-linejoin: miter; stroke-linecap: square"/>
   </g>
   <g id="patch_6">
    <path d="M 40.603125 43.5576 
L 332.190625 43.5576 
" style="fill: none; stroke: #000000; stroke-width: 0.8; stroke-linejoin: miter; stroke-linecap: square"/>
   </g>
   <g id="text_13">
    <!-- Laptop (i7-10750H @ 3.0 GHz) -->
    <g transform="translate(94.325 37.5576) scale(0.12 -0.12)">
     <defs>
      <path id="DejaVuSans-4c" d="M 628 4666 
L 1259 4666 
L 1259 531 
L 3531 531 
L 3531 0 
L 628 0 
L 628 4666 
z
" transform="scale(0.015625)"/>
      <path id="DejaVuSans-70" d="M 1159 525 
L 1159 -1331 
L 581 -1331 
L 581 3500 
L 1159 3500 
L 1159 2969 
Q 1341 3281 1617 3432 
Q 1894 3584 2278 3584 
Q 2916 3584 3314 3078 
Q 3713 2572 3713 1747 
Q 3713 922 3314 415 
Q 2916 -91 2278 -91 
Q 1894 -91 1617 61 
Q 1341 213 1159 525 
z
M 3116 1747 
Q 3116 2381 2855 2742 
Q 2594 3103 2138 3103 
Q 1681 3103 1420 2742 
Q 1159 2381 1159 1747 
Q 1159 1113 1420 752 
Q 1681 391 2138 391 
Q 2594 391 2855 752 
Q 3116 1113 3116 1747 
z
" transform="scale(0.015625)"/>
      <path id="DejaVuSans-74" d="M 1172 4494 
L 1172 3500 
L 2356 3500 
L 2356 3053 
L 1172 3053 
L 1172 1153 
Q 1172 725 1289 603 
Q 1406 481 1766 481 
L 2356 481 
L 2356 0 
L 1766 0 
Q 1100 0 847 248 
Q 594 497 594 1153 
L 594 3053 
L 172 3053 
L 172 3500 
L 594 3500 
L 594 4494 
L 1172 4494 
z
" transform="scale(0.015625)"/>
      <path id="DejaVuSans-6f" d="M 1959 3097 
Q 1497 3097 1228 2736 
Q 959 2375 959 1747 
Q 959 1119 1226 758 
Q 1494 397 1959 397 
Q 2419 397 2687 759 
Q 2956 1122 2956 1747 
Q 2956 2369 2687 2733 
Q 2419 3097 1959 3097 
z
M 1959 3584 
Q 2709 3584 3137 3096 
Q 3566 2609 3566 1747 
Q 3566 888 3137 398 
Q 2709 -91 1959 -91 
Q 1206 -91 779 398 
Q 353 888 353 1747 
Q 353 2609 779 3096 
Q 1206 3584 1959 3584 
z
" transform="scale(0.015625)"/>
      <path id="DejaVuSans-28" d="M 1984 4856 
Q 1566 4138 1362 3434 
Q 1159 2731 1159 2009 
Q 1159 1288 1364 580 
Q 1569 -128 1984 -844 
L 1484 -844 
Q 1016 -109 783 600 
Q 550 1309 550 2009 
Q 550 2706 781 3412 
Q 1013 4119 1484 4856 
L 1984 4856 
z
" transform="scale(0.015625)"/>
      <path id="DejaVuSans-69" d="M 603 3500 
L 1178 3500 
L 1178 0 
L 603 0 
L 603 3500 
z
M 603 4863 
L 1178 4863 
L 1178 4134 
L 603 4134 
L 603 4863 
z
" transform="scale(0.015625)"/>
      <path id="DejaVuSans-37" d="M 525 4666 
L 3525 4666 
L 3525 4397 
L 1831 0 
L 1172 0 
L 2766 4134 
L 525 4134 
L 525 4666 
z
" transform="scale(0.015625)"/>
      <path id="DejaVuSans-2d" d="M 313 2009 
L 1997 2009 
L 1997 1497 
L 313 1497 
L 313 2009 
z
" transform="scale(0.015625)"/>
      <path id="DejaVuSans-48" d="M 628 4666 
L 1259 4666 
L 1259 2753 
L 3553 2753 
L 3553 4666 
L 4184 4666 
L 4184 0 
L 3553 0 
L 3553 2222 
L 1259 2222 
L 1259 0 
L 628 0 
L 628 4666 
z
" transform="scale(0.015625)"/>
      <path id="DejaVuSans-40" d="M 2381 1678 
Q 2381 1231 2603 976 
Q 2825 722 3213 722 
Q 3597 722 3817 978 
Q 4038 1234 4038 1678 
Q 4038 2116 3813 2373 
Q 3588 2631 3206 2631 
Q 2828 2631 2604 2375 
Q 2381 2119 2381 1678 
z
M 4084 744 
Q 3897 503 3655 389 
Q 3413 275 3091 275 
Q 2553 275 2217 664 
Q 1881 1053 1881 1678 
Q 1881 2303 2218 2693 
Q 2556 3084 3091 3084 
Q 3413 3084 3656 2967 
Q 3900 2850 4084 2613 
L 4084 3022 
L 4531 3022 
L 4531 722 
Q 4988 791 5245 1139 
Q 5503 1488 5503 2041 
Q 5503 2375 5404 2669 
Q 5306 2963 5106 3213 
Q 4781 3622 4314 3839 
Q 3847 4056 3297 4056 
Q 2913 4056 2559 3954 
Q 2206 3853 1906 3653 
Q 1416 3334 1139 2817 
Q 863 2300 863 1697 
Q 863 1200 1042 765 
Q 1222 331 1563 0 
Q 1891 -325 2322 -495 
Q 2753 -666 3244 -666 
Q 3647 -666 4036 -530 
Q 4425 -394 4750 -141 
L 5031 -488 
Q 4641 -791 4180 -952 
Q 3719 -1113 3244 -1113 
Q 2666 -1113 2153 -908 
Q 1641 -703 1241 -313 
Q 841 78 631 592 
Q 422 1106 422 1697 
Q 422 2266 634 2781 
Q 847 3297 1241 3688 
Q 1644 4084 2172 4295 
Q 2700 4506 3291 4506 
Q 3953 4506 4520 4234 
Q 5088 3963 5472 3463 
Q 5706 3156 5829 2797 
Q 5953 2438 5953 2053 
Q 5953 1231 5456 756 
Q 4959 281 4084 263 
L 4084 744 
z
" transform="scale(0.015625)"/>
      <path id="DejaVuSans-47" d="M 3809 666 
L 3809 1919 
L 2778 1919 
L 2778 2438 
L 4434 2438 
L 4434 434 
Q 4069 175 3628 42 
Q 3188 -91 2688 -91 
Q 1594 -91 976 548 
Q 359 1188 359 2328 
Q 359 3472 976 4111 
Q 1594 4750 2688 4750 
Q 3144 4750 3555 4637 
Q 3966 4525 4313 4306 
L 4313 3634 
Q 3963 3931 3569 4081 
Q 3175 4231 2741 4231 
Q 1884 4231 1454 3753 
Q 1025 3275 1025 2328 
Q 1025 1384 1454 906 
Q 1884 428 2741 428 
Q 3075 428 3337 486 
Q 3600 544 3809 666 
z
" transform="scale(0.015625)"/>
      <path id="DejaVuSans-7a" d="M 353 3500 
L 3084 3500 
L 3084 2975 
L 922 459 
L 3084 459 
L 3084 0 
L 275 0 
L 275 525 
L 2438 3041 
L 353 3041 
L 353 3500 
z
" transform="scale(0.015625)"/>
      <path id="DejaVuSans-29" d="M 513 4856 
L 1013 4856 
Q 1481 4119 1714 3412 
Q 1947 2706 1947 2009 
Q 1947 1309 1714 600 
Q 1481 -109 1013 -844 
L 513 -844 
Q 928 -128 1133 580 
Q 1338 1288 1338 2009 
Q 1338 2731 1133 3434 
Q 928 4138 513 4856 
z
" transform="scale(0.015625)"/>
     </defs>
     <use xlink:href="#DejaVuSans-4c"/>
     <use xlink:href="#DejaVuSans-61" transform="translate(55.712891 0)"/>
     <use xlink:href="#DejaVuSans-70" transform="translate(116.992188 0)"/>
     <use xlink:href="#DejaVuSans-74" transform="translate(180.46875 0)"/>
     <use xlink:href="#DejaVuSans-6f" transform="translate(219.677734 0)"/>
     <use xlink:href="#DejaVuSans-70" transform="translate(280.859375 0)"/>
     <use xlink:href="#DejaVuSans-20" transform="translate(344.335938 0)"/>
     <use xlink:href="#DejaVuSans-28" transform="translate(376.123047 0)"/>
     <use xlink:href="#DejaVuSans-69" transform="translate(415.136719 0)"/>
     <use xlink:href="#DejaVuSans-37" transform="translate(442.919922 0)"/>
     <use xlink:href="#DejaVuSans-2d" transform="translate(506.542969 0)"/>
     <use xlink:href="#DejaVuSans-31" transform="translate(542.626953 0)"/>
     <use xlink:href="#DejaVuSans-30" transform="translate(606.25 0)"/>
     <use xlink:href="#DejaVuSans-37" transform="translate(669.873047 0)"/>
     <use xlink:href="#DejaVuSans-35" transform="translate(733.496094 0)"/>
     <use xlink:href="#DejaVuSans-30" transform="translate(797.119141 0)"/>
     <use xlink:href="#DejaVuSans-48" transform="translate(860.742188 0)"/>
     <use xlink:href="#DejaVuSans-20" transform="translate(935.9375 0)"/>
     <use xlink:href="#DejaVuSans-40" transform="translate(967.724609 0)"/>
     <use xlink:href="#DejaVuSans-20" transform="translate(1067.724609 0)"/>
     <use xlink:href="#DejaVuSans-33" transform="translate(1099.511719 0)"/>
     <use xlink:href="#DejaVuSans-2e" transform="translate(1163.134766 0)"/>
     <use xlink:href="#DejaVuSans-30" transform="translate(1194.921875 0)"/>
     <use xlink:href="#DejaVuSans-20" transform="translate(1258.544922 0)"/>
     <use xlink:href="#DejaVuSans-47" transform="translate(1290.332031 0)"/>
     <use xlink:href="#DejaVuSans-48" transform="translate(1367.822266 0)"/>
     <use xlink:href="#DejaVuSans-7a" transform="translate(1443.017578 0)"/>
     <use xlink:href="#DejaVuSans-29" transform="translate(1495.507812 0)"/>
    </g>
   </g>
  </g>
  <g id="axes_2">
   <g id="patch_7">
    <path d="M 378.120625 202.2776 
L 669.708125 202.2776 
L 669.708125 43.5576 
L 378.120625 43.5576 
z
" style="fill: #ffffff"/>
   </g>
   <g id="matplotlib.axis_3">
    <g id="xtick_7">
     <g id="line2d_21">
      <g>
       <use xlink:href="#m1c1bd35903" x="608.565475" y="202.2776" style="stroke: #000000; stroke-width: 0.8"/>
      </g>
     </g>
     <g id="text_14">
      <!-- 50 -->
      <g transform="translate(602.202975 216.876037) scale(0.1 -0.1)">
       <use xlink:href="#DejaVuSans-35"/>
       <use xlink:href="#DejaVuSans-30" transform="translate(63.623047 0)"/>
      </g>
     </g>
    </g>
    <g id="xtick_8">
     <g id="line2d_22">
      <g>
       <use xlink:href="#m1c1bd35903" x="564.827999" y="202.2776" style="stroke: #000000; stroke-width: 0.8"/>
      </g>
     </g>
     <g id="text_15">
      <!-- 25 -->
      <g transform="translate(558.465499 216.876037) scale(0.1 -0.1)">
       <use xlink:href="#DejaVuSans-32"/>
       <use xlink:href="#DejaVuSans-35" transform="translate(63.623047 0)"/>
      </g>
     </g>
    </g>
    <g id="xtick_9">
     <g id="line2d_23">
      <g>
       <use xlink:href="#m1c1bd35903" x="521.090523" y="202.2776" style="stroke: #000000; stroke-width: 0.8"/>
      </g>
     </g>
     <g id="text_16">
      <!-- 12.5 -->
      <g transform="translate(509.95771 216.876037) scale(0.1 -0.1)">
       <use xlink:href="#DejaVuSans-31"/>
       <use xlink:href="#DejaVuSans-32" transform="translate(63.623047 0)"/>
       <use xlink:href="#DejaVuSans-2e" transform="translate(127.246094 0)"/>
       <use xlink:href="#DejaVuSans-35" transform="translate(159.033203 0)"/>
      </g>
     </g>
    </g>
    <g id="xtick_10">
     <g id="line2d_24">
      <g>
       <use xlink:href="#m1c1bd35903" x="477.353046" y="202.2776" style="stroke: #000000; stroke-width: 0.8"/>
      </g>
     </g>
     <g id="text_17">
      <!-- 6.25 -->
      <g transform="translate(466.220234 216.876037) scale(0.1 -0.1)">
       <use xlink:href="#DejaVuSans-36"/>
       <use xlink:href="#DejaVuSans-2e" transform="translate(63.623047 0)"/>
       <use xlink:href="#DejaVuSans-32" transform="translate(95.410156 0)"/>
       <use xlink:href="#DejaVuSans-35" transform="translate(159.033203 0)"/>
      </g>
     </g>
    </g>
    <g id="xtick_11">
     <g id="line2d_25">
      <g>
       <use xlink:href="#m1c1bd35903" x="433.61557" y="202.2776" style="stroke: #000000; stroke-width: 0.8"/>
      </g>
     </g>
     <g id="text_18">
      <!-- 3.12 -->
      <g transform="translate(422.482757 216.876037) scale(0.1 -0.1)">
       <use xlink:href="#DejaVuSans-33"/>
       <use xlink:href="#DejaVuSans-2e" transform="translate(63.623047 0)"/>
       <use xlink:href="#DejaVuSans-31" transform="translate(95.410156 0)"/>
       <use xlink:href="#DejaVuSans-32" transform="translate(159.033203 0)"/>
      </g>
     </g>
    </g>
    <g id="xtick_12">
     <g id="line2d_26">
      <g>
       <use xlink:href="#m1c1bd35903" x="389.878093" y="202.2776" style="stroke: #000000; stroke-width: 0.8"/>
      </g>
     </g>
     <g id="text_19">
      <!-- 1.56 -->
      <g transform="translate(378.745281 216.876037) scale(0.1 -0.1)">
       <use xlink:href="#DejaVuSans-31"/>
       <use xlink:href="#DejaVuSans-2e" transform="translate(63.623047 0)"/>
       <use xlink:href="#DejaVuSans-35" transform="translate(95.410156 0)"/>
       <use xlink:href="#DejaVuSans-36" transform="translate(159.033203 0)"/>
      </g>
     </g>
    </g>
    <g id="text_20">
     <!-- Overhead [%] -->
     <g transform="translate(489.249531 230.554162) scale(0.1 -0.1)">
      <use xlink:href="#DejaVuSans-4f"/>
      <use xlink:href="#DejaVuSans-76" transform="translate(78.710938 0)"/>
      <use xlink:href="#DejaVuSans-65" transform="translate(137.890625 0)"/>
      <use xlink:href="#DejaVuSans-72" transform="translate(199.414062 0)"/>
      <use xlink:href="#DejaVuSans-68" transform="translate(238.777344 0)"/>
      <use xlink:href="#DejaVuSans-65" transform="translate(302.15625 0)"/>
      <use xlink:href="#DejaVuSans-61" transform="translate(363.679688 0)"/>
      <use xlink:href="#DejaVuSans-64" transform="translate(424.958984 0)"/>
      <use xlink:href="#DejaVuSans-20" transform="translate(488.435547 0)"/>
      <use xlink:href="#DejaVuSans-5b" transform="translate(520.222656 0)"/>
      <use xlink:href="#DejaVuSans-25" transform="translate(559.236328 0)"/>
      <use xlink:href="#DejaVuSans-5d" transform="translate(654.255859 0)"/>
     </g>
    </g>
   </g>
   <g id="matplotlib.axis_4">
    <g id="ytick_8">
     <g id="line2d_27">
      <path d="M 378.120625 182.965426 
L 669.708125 182.965426 
" clip-path="url(#pafa1f15280)" style="fill: none; stroke: #000000; stroke-opacity: 0.5; stroke-width: 0.5; stroke-linecap: square"/>
     </g>
     <g id="line2d_28">
      <g>
       <use xlink:href="#m212e5c034f" x="378.120625" y="182.965426" style="stroke: #000000; stroke-width: 0.8"/>
      </g>
     </g>
     <g id="text_21">
      <!-- 2 -->
      <g transform="translate(364.758125 186.764645) scale(0.1 -0.1)">
       <use xlink:href="#DejaVuSans-32"/>
      </g>
     </g>
    </g>
    <g id="ytick_9">
     <g id="line2d_29">
      <path d="M 378.120625 139.983187 
L 669.708125 139.983187 
" clip-path="url(#pafa1f15280)" style="fill: none; stroke: #000000; stroke-opacity: 0.5; stroke-width: 0.5; stroke-linecap: square"/>
     </g>
     <g id="line2d_30">
      <g>
       <use xlink:href="#m212e5c034f" x="378.120625" y="139.983187" style="stroke: #000000; stroke-width: 0.8"/>
      </g>
     </g>
     <g id="text_22">
      <!-- 4 -->
      <g transform="translate(364.758125 143.782405) scale(0.1 -0.1)">
       <use xlink:href="#DejaVuSans-34"/>
      </g>
     </g>
    </g>
    <g id="ytick_10">
     <g id="line2d_31">
      <path d="M 378.120625 97.000947 
L 669.708125 97.000947 
" clip-path="url(#pafa1f15280)" style="fill: none; stroke: #000000; stroke-opacity: 0.5; stroke-width: 0.5; stroke-linecap: square"/>
     </g>
     <g id="line2d_32">
      <g>
       <use xlink:href="#m212e5c034f" x="378.120625" y="97.000947" style="stroke: #000000; stroke-width: 0.8"/>
      </g>
     </g>
     <g id="text_23">
      <!-- 8 -->
      <g transform="translate(364.758125 100.800166) scale(0.1 -0.1)">
       <use xlink:href="#DejaVuSans-38"/>
      </g>
     </g>
    </g>
    <g id="ytick_11">
     <g id="line2d_33">
      <path d="M 378.120625 54.018707 
L 669.708125 54.018707 
" clip-path="url(#pafa1f15280)" style="fill: none; stroke: #000000; stroke-opacity: 0.5; stroke-width: 0.5; stroke-linecap: square"/>
     </g>
     <g id="line2d_34">
      <g>
       <use xlink:href="#m212e5c034f" x="378.120625" y="54.018707" style="stroke: #000000; stroke-width: 0.8"/>
      </g>
     </g>
     <g id="text_24">
      <!-- 16 -->
      <g transform="translate(358.395625 57.817926) scale(0.1 -0.1)">
       <use xlink:href="#DejaVuSans-31"/>
       <use xlink:href="#DejaVuSans-36" transform="translate(63.623047 0)"/>
      </g>
     </g>
    </g>
    <g id="ytick_12">
     <g id="line2d_35">
      <path d="M 378.120625 161.474307 
L 669.708125 161.474307 
" clip-path="url(#pafa1f15280)" style="fill: none; stroke-dasharray: 1.85,0.8; stroke-dashoffset: 0; stroke: #000000; stroke-opacity: 0.3; stroke-width: 0.5"/>
     </g>
     <g id="line2d_36">
      <g>
       <use xlink:href="#md5d5c276ea" x="378.120625" y="161.474307" style="stroke: #000000; stroke-width: 0.6"/>
      </g>
     </g>
    </g>
    <g id="ytick_13">
     <g id="line2d_37">
      <path d="M 378.120625 118.492067 
L 669.708125 118.492067 
" clip-path="url(#pafa1f15280)" style="fill: none; stroke-dasharray: 1.85,0.8; stroke-dashoffset: 0; stroke: #000000; stroke-opacity: 0.3; stroke-width: 0.5"/>
     </g>
     <g id="line2d_38">
      <g>
       <use xlink:href="#md5d5c276ea" x="378.120625" y="118.492067" style="stroke: #000000; stroke-width: 0.6"/>
      </g>
     </g>
    </g>
    <g id="ytick_14">
     <g id="line2d_39">
      <path d="M 378.120625 75.509827 
L 669.708125 75.509827 
" clip-path="url(#pafa1f15280)" style="fill: none; stroke-dasharray: 1.85,0.8; stroke-dashoffset: 0; stroke: #000000; stroke-opacity: 0.3; stroke-width: 0.5"/>
     </g>
     <g id="line2d_40">
      <g>
       <use xlink:href="#md5d5c276ea" x="378.120625" y="75.509827" style="stroke: #000000; stroke-width: 0.6"/>
      </g>
     </g>
    </g>
    <g id="text_25">
     <!-- ns/query -->
     <g transform="translate(352.315938 144.809787) rotate(-90) scale(0.1 -0.1)">
      <use xlink:href="#DejaVuSans-6e"/>
      <use xlink:href="#DejaVuSans-73" transform="translate(63.378906 0)"/>
      <use xlink:href="#DejaVuSans-2f" transform="translate(115.478516 0)"/>
      <use xlink:href="#DejaVuSans-71" transform="translate(149.169922 0)"/>
      <use xlink:href="#DejaVuSans-75" transform="translate(212.646484 0)"/>
      <use xlink:href="#DejaVuSans-65" transform="translate(276.025391 0)"/>
      <use xlink:href="#DejaVuSans-72" transform="translate(337.548828 0)"/>
      <use xlink:href="#DejaVuSans-79" transform="translate(378.662109 0)"/>
     </g>
    </g>
   </g>
   <g id="PathCollection_17">
    <g clip-path="url(#pafa1f15280)">
     <use xlink:href="#m7818ecf962" x="391.374602" y="74.225694" style="fill: #0000ff; stroke: #0000ff; stroke-width: 1.5"/>
    </g>
   </g>
   <g id="PathCollection_18">
    <g clip-path="url(#pafa1f15280)">
     <use xlink:href="#m83b4b9f158" x="437.053765" y="168.315545" style="fill: #fcc007; stroke: #fcc007"/>
    </g>
   </g>
   <g id="PathCollection_19">
    <g clip-path="url(#pafa1f15280)">
     <use xlink:href="#mf020372322" x="435.112079" y="89.492893" style="fill: #0000ff; stroke: #0000ff"/>
    </g>
   </g>
   <g id="PathCollection_20">
    <g clip-path="url(#pafa1f15280)">
     <use xlink:href="#m66bfab4cf6" x="437.053765" y="83.243677" style="fill: #800080; stroke: #800080"/>
    </g>
   </g>
   <g id="PathCollection_21">
    <g clip-path="url(#pafa1f15280)">
     <use xlink:href="#mfac720e453" x="435.112079" y="99.348187" style="fill: #008080; stroke: #008080"/>
    </g>
   </g>
   <g id="PathCollection_22">
    <g clip-path="url(#pafa1f15280)">
     <use xlink:href="#ma4ade05583" x="435.112079" y="141.013473" style="fill: #ff0000; stroke: #ff0000"/>
    </g>
   </g>
   <g id="PathCollection_23">
    <g clip-path="url(#pafa1f15280)">
     <use xlink:href="#ma2f9aabc3d" x="481.74013" y="175.602994" style="fill: #fcc007; stroke: #fcc007; stroke-width: 1.5"/>
    </g>
   </g>
   <g id="PathCollection_24">
    <g clip-path="url(#pafa1f15280)">
     <use xlink:href="#m75b1458d2b" x="477.855836" y="99.771627" style="fill: #0000ff; stroke: #0000ff; stroke-width: 1.5"/>
    </g>
   </g>
   <g id="PathCollection_25">
    <g clip-path="url(#pafa1f15280)">
     <use xlink:href="#mbec44e0b9d" x="480.791242" y="149.764091" style="stroke: #000000; stroke-width: 1.5"/>
    </g>
   </g>
   <g id="PathCollection_26">
    <g clip-path="url(#pafa1f15280)">
     <use xlink:href="#m89e9b931e6" x="521.593313" y="127.63867" style="fill: #0000ff; stroke: #0000ff"/>
    </g>
   </g>
   <g id="PathCollection_27">
    <g clip-path="url(#pafa1f15280)">
     <use xlink:href="#m17f74a672f" x="529.5794" y="171.419021" style="fill: #fcc007; stroke: #fcc007"/>
    </g>
   </g>
   <g id="PathCollection_28">
    <g clip-path="url(#pafa1f15280)">
     <use xlink:href="#me1ca091743" x="546.843348" y="188.436949" style="fill: #0000ff; stroke: #0000ff"/>
    </g>
   </g>
   <g id="PathCollection_29">
    <g clip-path="url(#pafa1f15280)">
     <use xlink:href="#m45a0cdb3a2" x="564.827999" y="195.063055" style="fill: #008000; stroke: #008000"/>
    </g>
   </g>
   <g id="PathCollection_30">
    <g clip-path="url(#pafa1f15280)">
     <use xlink:href="#mef8f112256" x="565.079895" y="177.909773" style="fill: #ff0000; stroke: #ff0000"/>
    </g>
   </g>
   <g id="PathCollection_31">
    <g clip-path="url(#pafa1f15280)">
     <use xlink:href="#m563fd273d9" x="583.106765" y="178.126484" style="fill: #fcc007; stroke: #fcc007"/>
    </g>
   </g>
   <g id="PathCollection_32">
    <g clip-path="url(#pafa1f15280)">
     <use xlink:href="#mbcadb10cb6" x="608.942943" y="183.060064" style="stroke: #000000"/>
    </g>
   </g>
   <g id="PathCollection_33">
    <g clip-path="url(#pafa1f15280)">
     <use xlink:href="#mbec44e0b9d" x="656.454148" y="159.374798" style="stroke: #000000; stroke-width: 1.5"/>
    </g>
   </g>
   <g id="patch_8">
    <path d="M 378.120625 202.2776 
L 378.120625 43.5576 
" style="fill: none; stroke: #000000; stroke-width: 0.8; stroke-linejoin: miter; stroke-linecap: square"/>
   </g>
   <g id="patch_9">
    <path d="M 669.708125 202.2776 
L 669.708125 43.5576 
" style="fill: none; stroke: #000000; stroke-width: 0.8; stroke-linejoin: miter; stroke-linecap: square"/>
   </g>
   <g id="patch_10">
    <path d="M 378.120625 202.2776 
L 669.708125 202.2776 
" style="fill: none; stroke: #000000; stroke-width: 0.8; stroke-linejoin: miter; stroke-linecap: square"/>
   </g>
   <g id="patch_11">
    <path d="M 378.120625 43.5576 
L 669.708125 43.5576 
" style="fill: none; stroke: #000000; stroke-width: 0.8; stroke-linejoin: miter; stroke-linecap: square"/>
   </g>
   <g id="text_26">
    <!-- Server (EPYC 9684X @ 3.6 GHz) -->
    <g transform="translate(427.990313 37.5576) scale(0.12 -0.12)">
     <defs>
      <path id="DejaVuSans-53" d="M 3425 4513 
L 3425 3897 
Q 3066 4069 2747 4153 
Q 2428 4238 2131 4238 
Q 1616 4238 1336 4038 
Q 1056 3838 1056 3469 
Q 1056 3159 1242 3001 
Q 1428 2844 1947 2747 
L 2328 2669 
Q 3034 2534 3370 2195 
Q 3706 1856 3706 1288 
Q 3706 609 3251 259 
Q 2797 -91 1919 -91 
Q 1588 -91 1214 -16 
Q 841 59 441 206 
L 441 856 
Q 825 641 1194 531 
Q 1563 422 1919 422 
Q 2459 422 2753 634 
Q 3047 847 3047 1241 
Q 3047 1584 2836 1778 
Q 2625 1972 2144 2069 
L 1759 2144 
Q 1053 2284 737 2584 
Q 422 2884 422 3419 
Q 422 4038 858 4394 
Q 1294 4750 2059 4750 
Q 2388 4750 2728 4690 
Q 3069 4631 3425 4513 
z
" transform="scale(0.015625)"/>
      <path id="DejaVuSans-45" d="M 628 4666 
L 3578 4666 
L 3578 4134 
L 1259 4134 
L 1259 2753 
L 3481 2753 
L 3481 2222 
L 1259 2222 
L 1259 531 
L 3634 531 
L 3634 0 
L 628 0 
L 628 4666 
z
" transform="scale(0.015625)"/>
      <path id="DejaVuSans-50" d="M 1259 4147 
L 1259 2394 
L 2053 2394 
Q 2494 2394 2734 2622 
Q 2975 2850 2975 3272 
Q 2975 3691 2734 3919 
Q 2494 4147 2053 4147 
L 1259 4147 
z
M 628 4666 
L 2053 4666 
Q 2838 4666 3239 4311 
Q 3641 3956 3641 3272 
Q 3641 2581 3239 2228 
Q 2838 1875 2053 1875 
L 1259 1875 
L 1259 0 
L 628 0 
L 628 4666 
z
" transform="scale(0.015625)"/>
      <path id="DejaVuSans-59" d="M -13 4666 
L 666 4666 
L 1959 2747 
L 3244 4666 
L 3922 4666 
L 2272 2222 
L 2272 0 
L 1638 0 
L 1638 2222 
L -13 4666 
z
" transform="scale(0.015625)"/>
      <path id="DejaVuSans-43" d="M 4122 4306 
L 4122 3641 
Q 3803 3938 3442 4084 
Q 3081 4231 2675 4231 
Q 1875 4231 1450 3742 
Q 1025 3253 1025 2328 
Q 1025 1406 1450 917 
Q 1875 428 2675 428 
Q 3081 428 3442 575 
Q 3803 722 4122 1019 
L 4122 359 
Q 3791 134 3420 21 
Q 3050 -91 2638 -91 
Q 1578 -91 968 557 
Q 359 1206 359 2328 
Q 359 3453 968 4101 
Q 1578 4750 2638 4750 
Q 3056 4750 3426 4639 
Q 3797 4528 4122 4306 
z
" transform="scale(0.015625)"/>
      <path id="DejaVuSans-39" d="M 703 97 
L 703 672 
Q 941 559 1184 500 
Q 1428 441 1663 441 
Q 2288 441 2617 861 
Q 2947 1281 2994 2138 
Q 2813 1869 2534 1725 
Q 2256 1581 1919 1581 
Q 1219 1581 811 2004 
Q 403 2428 403 3163 
Q 403 3881 828 4315 
Q 1253 4750 1959 4750 
Q 2769 4750 3195 4129 
Q 3622 3509 3622 2328 
Q 3622 1225 3098 567 
Q 2575 -91 1691 -91 
Q 1453 -91 1209 -44 
Q 966 3 703 97 
z
M 1959 2075 
Q 2384 2075 2632 2365 
Q 2881 2656 2881 3163 
Q 2881 3666 2632 3958 
Q 2384 4250 1959 4250 
Q 1534 4250 1286 3958 
Q 1038 3666 1038 3163 
Q 1038 2656 1286 2365 
Q 1534 2075 1959 2075 
z
" transform="scale(0.015625)"/>
      <path id="DejaVuSans-58" d="M 403 4666 
L 1081 4666 
L 2241 2931 
L 3406 4666 
L 4084 4666 
L 2584 2425 
L 4184 0 
L 3506 0 
L 2194 1984 
L 872 0 
L 191 0 
L 1856 2491 
L 403 4666 
z
" transform="scale(0.015625)"/>
     </defs>
     <use xlink:href="#DejaVuSans-53"/>
     <use xlink:href="#DejaVuSans-65" transform="translate(63.476562 0)"/>
     <use xlink:href="#DejaVuSans-72" transform="translate(125 0)"/>
     <use xlink:href="#DejaVuSans-76" transform="translate(166.113281 0)"/>
     <use xlink:href="#DejaVuSans-65" transform="translate(225.292969 0)"/>
     <use xlink:href="#DejaVuSans-72" transform="translate(286.816406 0)"/>
     <use xlink:href="#DejaVuSans-20" transform="translate(327.929688 0)"/>
     <use xlink:href="#DejaVuSans-28" transform="translate(359.716797 0)"/>
     <use xlink:href="#DejaVuSans-45" transform="translate(398.730469 0)"/>
     <use xlink:href="#DejaVuSans-50" transform="translate(461.914062 0)"/>
     <use xlink:href="#DejaVuSans-59" transform="translate(519.966797 0)"/>
     <use xlink:href="#DejaVuSans-43" transform="translate(575.550781 0)"/>
     <use xlink:href="#DejaVuSans-20" transform="translate(645.375 0)"/>
     <use xlink:href="#DejaVuSans-39" transform="translate(677.162109 0)"/>
     <use xlink:href="#DejaVuSans-36" transform="translate(740.785156 0)"/>
     <use xlink:href="#DejaVuSans-38" transform="translate(804.408203 0)"/>
     <use xlink:href="#DejaVuSans-34" transform="translate(868.03125 0)"/>
     <use xlink:href="#DejaVuSans-58" transform="translate(931.654297 0)"/>
     <use xlink:href="#DejaVuSans-20" transform="translate(1000.160156 0)"/>
     <use xlink:href="#DejaVuSans-40" transform="translate(1031.947266 0)"/>
     <use xlink:href="#DejaVuSans-20" transform="translate(1131.947266 0)"/>
     <use xlink:href="#DejaVuSans-33" transform="translate(1163.734375 0)"/>
     <use xlink:href="#DejaVuSans-2e" transform="translate(1227.357422 0)"/>
     <use xlink:href="#DejaVuSans-36" transform="translate(1259.144531 0)"/>
     <use xlink:href="#DejaVuSans-20" transform="translate(1322.767578 0)"/>
     <use xlink:href="#DejaVuSans-47" transform="translate(1354.554688 0)"/>
     <use xlink:href="#DejaVuSans-48" transform="translate(1432.044922 0)"/>
     <use xlink:href="#DejaVuSans-7a" transform="translate(1507.240234 0)"/>
     <use xlink:href="#DejaVuSans-29" transform="translate(1559.730469 0)"/>
    </g>
   </g>
  </g>
  <g id="text_27">
   <!-- σ=2, n=1 Mib, size=128 KiB, loop, 1 thread -->
   <g transform="translate(183.853203 18.597656) scale(0.15 -0.15)">
    <defs>
     <path id="DejaVuSans-3c3" d="M 1959 3044 
Q 1484 3044 1228 2700 
Q 959 2341 959 1747 
Q 959 1119 1226 758 
Q 1494 397 1959 397 
Q 2419 397 2687 759 
Q 2956 1122 2956 1747 
Q 2956 2319 2688 2700 
Q 2441 3044 1959 3044 
z
M 1959 3500 
L 3869 3500 
L 3869 2925 
L 3225 2925 
Q 3566 2438 3566 1747 
Q 3566 888 3138 400 
Q 2709 -91 1959 -91 
Q 1206 -91 781 400 
Q 353 888 353 1747 
Q 353 2613 781 3097 
Q 1134 3500 1959 3500 
z
" transform="scale(0.015625)"/>
     <path id="DejaVuSans-3d" d="M 678 2906 
L 4684 2906 
L 4684 2381 
L 678 2381 
L 678 2906 
z
M 678 1631 
L 4684 1631 
L 4684 1100 
L 678 1100 
L 678 1631 
z
" transform="scale(0.015625)"/>
     <path id="DejaVuSans-2c" d="M 750 794 
L 1409 794 
L 1409 256 
L 897 -744 
L 494 -744 
L 750 256 
L 750 794 
z
" transform="scale(0.015625)"/>
     <path id="DejaVuSans-4d" d="M 628 4666 
L 1569 4666 
L 2759 1491 
L 3956 4666 
L 4897 4666 
L 4897 0 
L 4281 0 
L 4281 4097 
L 3078 897 
L 2444 897 
L 1241 4097 
L 1241 0 
L 628 0 
L 628 4666 
z
" transform="scale(0.015625)"/>
     <path id="DejaVuSans-62" d="M 3116 1747 
Q 3116 2381 2855 2742 
Q 2594 3103 2138 3103 
Q 1681 3103 1420 2742 
Q 1159 2381 1159 1747 
Q 1159 1113 1420 752 
Q 1681 391 2138 391 
Q 2594 391 2855 752 
Q 3116 1113 3116 1747 
z
M 1159 2969 
Q 1341 3281 1617 3432 
Q 1894 3584 2278 3584 
Q 2916 3584 3314 3078 
Q 3713 2572 3713 1747 
Q 3713 922 3314 415 
Q 2916 -91 2278 -91 
Q 1894 -91 1617 61 
Q 1341 213 1159 525 
L 1159 0 
L 581 0 
L 581 4863 
L 1159 4863 
L 1159 2969 
z
" transform="scale(0.015625)"/>
     <path id="DejaVuSans-4b" d="M 628 4666 
L 1259 4666 
L 1259 2694 
L 3353 4666 
L 4166 4666 
L 1850 2491 
L 4331 0 
L 3500 0 
L 1259 2247 
L 1259 0 
L 628 0 
L 628 4666 
z
" transform="scale(0.015625)"/>
     <path id="DejaVuSans-42" d="M 1259 2228 
L 1259 519 
L 2272 519 
Q 2781 519 3026 730 
Q 3272 941 3272 1375 
Q 3272 1813 3026 2020 
Q 2781 2228 2272 2228 
L 1259 2228 
z
M 1259 4147 
L 1259 2741 
L 2194 2741 
Q 2656 2741 2882 2914 
Q 3109 3088 3109 3444 
Q 3109 3797 2882 3972 
Q 2656 4147 2194 4147 
L 1259 4147 
z
M 628 4666 
L 2241 4666 
Q 2963 4666 3353 4366 
Q 3744 4066 3744 3513 
Q 3744 3084 3544 2831 
Q 3344 2578 2956 2516 
Q 3422 2416 3680 2098 
Q 3938 1781 3938 1306 
Q 3938 681 3513 340 
Q 3088 0 2303 0 
L 628 0 
L 628 4666 
z
" transform="scale(0.015625)"/>
     <path id="DejaVuSans-6c" d="M 603 4863 
L 1178 4863 
L 1178 0 
L 603 0 
L 603 4863 
z
" transform="scale(0.015625)"/>
    </defs>
    <use xlink:href="#DejaVuSans-3c3"/>
    <use xlink:href="#DejaVuSans-3d" transform="translate(63.378906 0)"/>
    <use xlink:href="#DejaVuSans-32" transform="translate(147.167969 0)"/>
    <use xlink:href="#DejaVuSans-2c" transform="translate(210.791016 0)"/>
    <use xlink:href="#DejaVuSans-20" transform="translate(242.578125 0)"/>
    <use xlink:href="#DejaVuSans-6e" transform="translate(274.365234 0)"/>
    <use xlink:href="#DejaVuSans-3d" transform="translate(337.744141 0)"/>
    <use xlink:href="#DejaVuSans-31" transform="translate(421.533203 0)"/>
    <use xlink:href="#DejaVuSans-20" transform="translate(485.15625 0)"/>
    <use xlink:href="#DejaVuSans-4d" transform="translate(516.943359 0)"/>
    <use xlink:href="#DejaVuSans-69" transform="translate(603.222656 0)"/>
    <use xlink:href="#DejaVuSans-62" transform="translate(631.005859 0)"/>
    <use xlink:href="#DejaVuSans-2c" transform="translate(694.482422 0)"/>
    <use xlink:href="#DejaVuSans-20" transform="translate(726.269531 0)"/>
    <use xlink:href="#DejaVuSans-73" transform="translate(758.056641 0)"/>
    <use xlink:href="#DejaVuSans-69" transform="translate(810.15625 0)"/>
    <use xlink:href="#DejaVuSans-7a" transform="translate(837.939453 0)"/>
    <use xlink:href="#DejaVuSans-65" transform="translate(890.429688 0)"/>
    <use xlink:href="#DejaVuSans-3d" transform="translate(951.953125 0)"/>
    <use xlink:href="#DejaVuSans-31" transform="translate(1035.742188 0)"/>
    <use xlink:href="#DejaVuSans-32" transform="translate(1099.365234 0)"/>
    <use xlink:href="#DejaVuSans-38" transform="translate(1162.988281 0)"/>
    <use xlink:href="#DejaVuSans-20" transform="translate(1226.611328 0)"/>
    <use xlink:href="#DejaVuSans-4b" transform="translate(1258.398438 0)"/>
    <use xlink:href="#DejaVuSans-69" transform="translate(1323.974609 0)"/>
    <use xlink:href="#DejaVuSans-42" transform="translate(1351.757812 0)"/>
    <use xlink:href="#DejaVuSans-2c" transform="translate(1420.361328 0)"/>
    <use xlink:href="#DejaVuSans-20" transform="translate(1452.148438 0)"/>
    <use xlink:href="#DejaVuSans-6c" transform="translate(1483.935547 0)"/>
    <use xlink:href="#DejaVuSans-6f" transform="translate(1511.71875 0)"/>
    <use xlink:href="#DejaVuSans-6f" transform="translate(1572.900391 0)"/>
    <use xlink:href="#DejaVuSans-70" transform="translate(1634.082031 0)"/>
    <use xlink:href="#DejaVuSans-2c" transform="translate(1697.558594 0)"/>
    <use xlink:href="#DejaVuSans-20" transform="translate(1729.345703 0)"/>
    <use xlink:href="#DejaVuSans-31" transform="translate(1761.132812 0)"/>
    <use xlink:href="#DejaVuSans-20" transform="translate(1824.755859 0)"/>
    <use xlink:href="#DejaVuSans-74" transform="translate(1856.542969 0)"/>
    <use xlink:href="#DejaVuSans-68" transform="translate(1895.751953 0)"/>
    <use xlink:href="#DejaVuSans-72" transform="translate(1959.130859 0)"/>
    <use xlink:href="#DejaVuSans-65" transform="translate(1997.994141 0)"/>
    <use xlink:href="#DejaVuSans-61" transform="translate(2059.517578 0)"/>
    <use xlink:href="#DejaVuSans-64" transform="translate(2120.796875 0)"/>
   </g>
  </g>
  <g id="legend_1">
   <g id="patch_12">
    <path d="M 34.377813 304.2976 
L 660.968438 304.2976 
Q 662.968438 304.2976 662.968438 302.2976 
L 662.968438 244.5851 
Q 662.968438 242.5851 660.968438 242.5851 
L 34.377813 242.5851 
Q 32.377813 242.5851 32.377813 244.5851 
L 32.377813 302.2976 
Q 32.377813 304.2976 34.377813 304.2976 
z
" style="fill: #ffffff; opacity: 0.8; stroke: #cccccc; stroke-linejoin: miter"/>
   </g>
   <g id="PathCollection_34">
    <g>
     <use xlink:href="#m7818ecf962" x="46.377813" y="251.558537" style="fill: #0000ff; stroke: #0000ff; stroke-width: 1.5"/>
    </g>
   </g>
   <g id="text_28">
    <!-- sux::RankSmall4 -->
    <g transform="translate(64.377813 254.183537) scale(0.1 -0.1)">
     <defs>
      <path id="DejaVuSans-78" d="M 3513 3500 
L 2247 1797 
L 3578 0 
L 2900 0 
L 1881 1375 
L 863 0 
L 184 0 
L 1544 1831 
L 300 3500 
L 978 3500 
L 1906 2253 
L 2834 3500 
L 3513 3500 
z
" transform="scale(0.015625)"/>
      <path id="DejaVuSans-3a" d="M 750 794 
L 1409 794 
L 1409 0 
L 750 0 
L 750 794 
z
M 750 3309 
L 1409 3309 
L 1409 2516 
L 750 2516 
L 750 3309 
z
" transform="scale(0.015625)"/>
      <path id="DejaVuSans-52" d="M 2841 2188 
Q 3044 2119 3236 1894 
Q 3428 1669 3622 1275 
L 4263 0 
L 3584 0 
L 2988 1197 
Q 2756 1666 2539 1819 
Q 2322 1972 1947 1972 
L 1259 1972 
L 1259 0 
L 628 0 
L 628 4666 
L 2053 4666 
Q 2853 4666 3247 4331 
Q 3641 3997 3641 3322 
Q 3641 2881 3436 2590 
Q 3231 2300 2841 2188 
z
M 1259 4147 
L 1259 2491 
L 2053 2491 
Q 2509 2491 2742 2702 
Q 2975 2913 2975 3322 
Q 2975 3731 2742 3939 
Q 2509 4147 2053 4147 
L 1259 4147 
z
" transform="scale(0.015625)"/>
      <path id="DejaVuSans-6b" d="M 581 4863 
L 1159 4863 
L 1159 1991 
L 2875 3500 
L 3609 3500 
L 1753 1863 
L 3688 0 
L 2938 0 
L 1159 1709 
L 1159 0 
L 581 0 
L 581 4863 
z
" transform="scale(0.015625)"/>
      <path id="DejaVuSans-6d" d="M 3328 2828 
Q 3544 3216 3844 3400 
Q 4144 3584 4550 3584 
Q 5097 3584 5394 3201 
Q 5691 2819 5691 2113 
L 5691 0 
L 5113 0 
L 5113 2094 
Q 5113 2597 4934 2840 
Q 4756 3084 4391 3084 
Q 3944 3084 3684 2787 
Q 3425 2491 3425 1978 
L 3425 0 
L 2847 0 
L 2847 2094 
Q 2847 2600 2669 2842 
Q 2491 3084 2119 3084 
Q 1678 3084 1418 2786 
Q 1159 2488 1159 1978 
L 1159 0 
L 581 0 
L 581 3500 
L 1159 3500 
L 1159 2956 
Q 1356 3278 1631 3431 
Q 1906 3584 2284 3584 
Q 2666 3584 2933 3390 
Q 3200 3197 3328 2828 
z
" transform="scale(0.015625)"/>
     </defs>
     <use xlink:href="#DejaVuSans-73"/>
     <use xlink:href="#DejaVuSans-75" transform="translate(52.099609 0)"/>
     <use xlink:href="#DejaVuSans-78" transform="translate(115.478516 0)"/>
     <use xlink:href="#DejaVuSans-3a" transform="translate(174.658203 0)"/>
     <use xlink:href="#DejaVuSans-3a" transform="translate(208.349609 0)"/>
     <use xlink:href="#DejaVuSans-52" transform="translate(242.041016 0)"/>
     <use xlink:href="#DejaVuSans-61" transform="translate(309.273438 0)"/>
     <use xlink:href="#DejaVuSans-6e" transform="translate(370.552734 0)"/>
     <use xlink:href="#DejaVuSans-6b" transform="translate(433.931641 0)"/>
     <use xlink:href="#DejaVuSans-53" transform="translate(491.841797 0)"/>
     <use xlink:href="#DejaVuSans-6d" transform="translate(555.318359 0)"/>
     <use xlink:href="#DejaVuSans-61" transform="translate(652.730469 0)"/>
     <use xlink:href="#DejaVuSans-6c" transform="translate(714.009766 0)"/>
     <use xlink:href="#DejaVuSans-6c" transform="translate(741.792969 0)"/>
     <use xlink:href="#DejaVuSans-34" transform="translate(769.576172 0)"/>
    </g>
   </g>
   <g id="PathCollection_35">
    <g>
     <use xlink:href="#m83b4b9f158" x="46.377813" y="266.236662" style="fill: #fcc007; stroke: #fcc007"/>
    </g>
   </g>
   <g id="text_29">
    <!-- BiRank16 -->
    <g transform="translate(64.377813 268.861662) scale(0.1 -0.1)">
     <use xlink:href="#DejaVuSans-42"/>
     <use xlink:href="#DejaVuSans-69" transform="translate(68.603516 0)"/>
     <use xlink:href="#DejaVuSans-52" transform="translate(96.386719 0)"/>
     <use xlink:href="#DejaVuSans-61" transform="translate(163.619141 0)"/>
     <use xlink:href="#DejaVuSans-6e" transform="translate(224.898438 0)"/>
     <use xlink:href="#DejaVuSans-6b" transform="translate(288.277344 0)"/>
     <use xlink:href="#DejaVuSans-31" transform="translate(346.1875 0)"/>
     <use xlink:href="#DejaVuSans-36" transform="translate(409.810547 0)"/>
    </g>
   </g>
   <g id="PathCollection_36">
    <g>
     <use xlink:href="#mf020372322" x="46.377813" y="280.914787" style="fill: #0000ff; stroke: #0000ff"/>
    </g>
   </g>
   <g id="text_30">
    <!-- sux::RankSmall3 -->
    <g transform="translate(64.377813 283.539787) scale(0.1 -0.1)">
     <use xlink:href="#DejaVuSans-73"/>
     <use xlink:href="#DejaVuSans-75" transform="translate(52.099609 0)"/>
     <use xlink:href="#DejaVuSans-78" transform="translate(115.478516 0)"/>
     <use xlink:href="#DejaVuSans-3a" transform="translate(174.658203 0)"/>
     <use xlink:href="#DejaVuSans-3a" transform="translate(208.349609 0)"/>
     <use xlink:href="#DejaVuSans-52" transform="translate(242.041016 0)"/>
     <use xlink:href="#DejaVuSans-61" transform="translate(309.273438 0)"/>
     <use xlink:href="#DejaVuSans-6e" transform="translate(370.552734 0)"/>
     <use xlink:href="#DejaVuSans-6b" transform="translate(433.931641 0)"/>
     <use xlink:href="#DejaVuSans-53" transform="translate(491.841797 0)"/>
     <use xlink:href="#DejaVuSans-6d" transform="translate(555.318359 0)"/>
     <use xlink:href="#DejaVuSans-61" transform="translate(652.730469 0)"/>
     <use xlink:href="#DejaVuSans-6c" transform="translate(714.009766 0)"/>
     <use xlink:href="#DejaVuSans-6c" transform="translate(741.792969 0)"/>
     <use xlink:href="#DejaVuSans-33" transform="translate(769.576172 0)"/>
    </g>
   </g>
   <g id="PathCollection_37">
    <g>
     <use xlink:href="#m66bfab4cf6" x="46.377813" y="295.592912" style="fill: #800080; stroke: #800080"/>
    </g>
   </g>
   <g id="text_31">
    <!-- birank::Spider -->
    <g transform="translate(64.377813 298.217912) scale(0.1 -0.1)">
     <use xlink:href="#DejaVuSans-62"/>
     <use xlink:href="#DejaVuSans-69" transform="translate(63.476562 0)"/>
     <use xlink:href="#DejaVuSans-72" transform="translate(91.259766 0)"/>
     <use xlink:href="#DejaVuSans-61" transform="translate(132.373047 0)"/>
     <use xlink:href="#DejaVuSans-6e" transform="translate(193.652344 0)"/>
     <use xlink:href="#DejaVuSans-6b" transform="translate(257.03125 0)"/>
     <use xlink:href="#DejaVuSans-3a" transform="translate(314.941406 0)"/>
     <use xlink:href="#DejaVuSans-3a" transform="translate(348.632812 0)"/>
     <use xlink:href="#DejaVuSans-53" transform="translate(382.324219 0)"/>
     <use xlink:href="#DejaVuSans-70" transform="translate(445.800781 0)"/>
     <use xlink:href="#DejaVuSans-69" transform="translate(509.277344 0)"/>
     <use xlink:href="#DejaVuSans-64" transform="translate(537.060547 0)"/>
     <use xlink:href="#DejaVuSans-65" transform="translate(600.537109 0)"/>
     <use xlink:href="#DejaVuSans-72" transform="translate(662.060547 0)"/>
    </g>
   </g>
   <g id="PathCollection_38">
    <g>
     <use xlink:href="#mfac720e453" x="177.696563" y="251.558537" style="fill: #008080; stroke: #008080"/>
    </g>
   </g>
   <g id="text_32">
    <!-- bitm::RankSelect101111 -->
    <g transform="translate(195.696563 254.183537) scale(0.1 -0.1)">
     <defs>
      <path id="DejaVuSans-63" d="M 3122 3366 
L 3122 2828 
Q 2878 2963 2633 3030 
Q 2388 3097 2138 3097 
Q 1578 3097 1268 2742 
Q 959 2388 959 1747 
Q 959 1106 1268 751 
Q 1578 397 2138 397 
Q 2388 397 2633 464 
Q 2878 531 3122 666 
L 3122 134 
Q 2881 22 2623 -34 
Q 2366 -91 2075 -91 
Q 1284 -91 818 406 
Q 353 903 353 1747 
Q 353 2603 823 3093 
Q 1294 3584 2113 3584 
Q 2378 3584 2631 3529 
Q 2884 3475 3122 3366 
z
" transform="scale(0.015625)"/>
     </defs>
     <use xlink:href="#DejaVuSans-62"/>
     <use xlink:href="#DejaVuSans-69" transform="translate(63.476562 0)"/>
     <use xlink:href="#DejaVuSans-74" transform="translate(91.259766 0)"/>
     <use xlink:href="#DejaVuSans-6d" transform="translate(130.46875 0)"/>
     <use xlink:href="#DejaVuSans-3a" transform="translate(227.880859 0)"/>
     <use xlink:href="#DejaVuSans-3a" transform="translate(261.572266 0)"/>
     <use xlink:href="#DejaVuSans-52" transform="translate(295.263672 0)"/>
     <use xlink:href="#DejaVuSans-61" transform="translate(362.496094 0)"/>
     <use xlink:href="#DejaVuSans-6e" transform="translate(423.775391 0)"/>
     <use xlink:href="#DejaVuSans-6b" transform="translate(487.154297 0)"/>
     <use xlink:href="#DejaVuSans-53" transform="translate(545.064453 0)"/>
     <use xlink:href="#DejaVuSans-65" transform="translate(608.541016 0)"/>
     <use xlink:href="#DejaVuSans-6c" transform="translate(670.064453 0)"/>
     <use xlink:href="#DejaVuSans-65" transform="translate(697.847656 0)"/>
     <use xlink:href="#DejaVuSans-63" transform="translate(759.371094 0)"/>
     <use xlink:href="#DejaVuSans-74" transform="translate(814.351562 0)"/>
     <use xlink:href="#DejaVuSans-31" transform="translate(853.560547 0)"/>
     <use xlink:href="#DejaVuSans-30" transform="translate(917.183594 0)"/>
     <use xlink:href="#DejaVuSans-31" transform="translate(980.806641 0)"/>
     <use xlink:href="#DejaVuSans-31" transform="translate(1044.429688 0)"/>
     <use xlink:href="#DejaVuSans-31" transform="translate(1108.052734 0)"/>
     <use xlink:href="#DejaVuSans-31" transform="translate(1171.675781 0)"/>
    </g>
   </g>
   <g id="PathCollection_39">
    <g>
     <use xlink:href="#ma4ade05583" x="177.696563" y="266.236662" style="fill: #ff0000; stroke: #ff0000"/>
    </g>
   </g>
   <g id="text_33">
    <!-- qwt::RSWide -->
    <g transform="translate(195.696563 268.861662) scale(0.1 -0.1)">
     <defs>
      <path id="DejaVuSans-77" d="M 269 3500 
L 844 3500 
L 1563 769 
L 2278 3500 
L 2956 3500 
L 3675 769 
L 4391 3500 
L 4966 3500 
L 4050 0 
L 3372 0 
L 2619 2869 
L 1863 0 
L 1184 0 
L 269 3500 
z
" transform="scale(0.015625)"/>
      <path id="DejaVuSans-57" d="M 213 4666 
L 850 4666 
L 1831 722 
L 2809 4666 
L 3519 4666 
L 4500 722 
L 5478 4666 
L 6119 4666 
L 4947 0 
L 4153 0 
L 3169 4050 
L 2175 0 
L 1381 0 
L 213 4666 
z
" transform="scale(0.015625)"/>
     </defs>
     <use xlink:href="#DejaVuSans-71"/>
     <use xlink:href="#DejaVuSans-77" transform="translate(63.476562 0)"/>
     <use xlink:href="#DejaVuSans-74" transform="translate(145.263672 0)"/>
     <use xlink:href="#DejaVuSans-3a" transform="translate(184.472656 0)"/>
     <use xlink:href="#DejaVuSans-3a" transform="translate(218.164062 0)"/>
     <use xlink:href="#DejaVuSans-52" transform="translate(251.855469 0)"/>
     <use xlink:href="#DejaVuSans-53" transform="translate(321.337891 0)"/>
     <use xlink:href="#DejaVuSans-57" transform="translate(384.814453 0)"/>
     <use xlink:href="#DejaVuSans-69" transform="translate(481.441406 0)"/>
     <use xlink:href="#DejaVuSans-64" transform="translate(509.224609 0)"/>
     <use xlink:href="#DejaVuSans-65" transform="translate(572.701172 0)"/>
    </g>
   </g>
   <g id="PathCollection_40">
    <g>
     <use xlink:href="#ma2f9aabc3d" x="177.696563" y="280.914787" style="fill: #fcc007; stroke: #fcc007; stroke-width: 1.5"/>
    </g>
   </g>
   <g id="text_34">
    <!-- BiRank16x2 -->
    <g transform="translate(195.696563 283.539787) scale(0.1 -0.1)">
     <use xlink:href="#DejaVuSans-42"/>
     <use xlink:href="#DejaVuSans-69" transform="translate(68.603516 0)"/>
     <use xlink:href="#DejaVuSans-52" transform="translate(96.386719 0)"/>
     <use xlink:href="#DejaVuSans-61" transform="translate(163.619141 0)"/>
     <use xlink:href="#DejaVuSans-6e" transform="translate(224.898438 0)"/>
     <use xlink:href="#DejaVuSans-6b" transform="translate(288.277344 0)"/>
     <use xlink:href="#DejaVuSans-31" transform="translate(346.1875 0)"/>
     <use xlink:href="#DejaVuSans-36" transform="translate(409.810547 0)"/>
     <use xlink:href="#DejaVuSans-78" transform="translate(473.433594 0)"/>
     <use xlink:href="#DejaVuSans-32" transform="translate(532.613281 0)"/>
    </g>
   </g>
   <g id="PathCollection_41">
    <g>
     <use xlink:href="#m75b1458d2b" x="177.696563" y="295.592912" style="fill: #0000ff; stroke: #0000ff; stroke-width: 1.5"/>
    </g>
   </g>
   <g id="text_35">
    <!-- sux::RankSmall2 -->
    <g transform="translate(195.696563 298.217912) scale(0.1 -0.1)">
     <use xlink:href="#DejaVuSans-73"/>
     <use xlink:href="#DejaVuSans-75" transform="translate(52.099609 0)"/>
     <use xlink:href="#DejaVuSans-78" transform="translate(115.478516 0)"/>
     <use xlink:href="#DejaVuSans-3a" transform="translate(174.658203 0)"/>
     <use xlink:href="#DejaVuSans-3a" transform="translate(208.349609 0)"/>
     <use xlink:href="#DejaVuSans-52" transform="translate(242.041016 0)"/>
     <use xlink:href="#DejaVuSans-61" transform="translate(309.273438 0)"/>
     <use xlink:href="#DejaVuSans-6e" transform="translate(370.552734 0)"/>
     <use xlink:href="#DejaVuSans-6b" transform="translate(433.931641 0)"/>
     <use xlink:href="#DejaVuSans-53" transform="translate(491.841797 0)"/>
     <use xlink:href="#DejaVuSans-6d" transform="translate(555.318359 0)"/>
     <use xlink:href="#DejaVuSans-61" transform="translate(652.730469 0)"/>
     <use xlink:href="#DejaVuSans-6c" transform="translate(714.009766 0)"/>
     <use xlink:href="#DejaVuSans-6c" transform="translate(741.792969 0)"/>
     <use xlink:href="#DejaVuSans-32" transform="translate(769.576172 0)"/>
    </g>
   </g>
   <g id="PathCollection_42">
    <g>
     <use xlink:href="#mbec44e0b9d" x="349.227813" y="251.558537" style="stroke: #000000; stroke-width: 1.5"/>
    </g>
   </g>
   <g id="text_36">
    <!-- genedex::Condensed512 -->
    <g transform="translate(367.227813 254.183537) scale(0.1 -0.1)">
     <defs>
      <path id="DejaVuSans-67" d="M 2906 1791 
Q 2906 2416 2648 2759 
Q 2391 3103 1925 3103 
Q 1463 3103 1205 2759 
Q 947 2416 947 1791 
Q 947 1169 1205 825 
Q 1463 481 1925 481 
Q 2391 481 2648 825 
Q 2906 1169 2906 1791 
z
M 3481 434 
Q 3481 -459 3084 -895 
Q 2688 -1331 1869 -1331 
Q 1566 -1331 1297 -1286 
Q 1028 -1241 775 -1147 
L 775 -588 
Q 1028 -725 1275 -790 
Q 1522 -856 1778 -856 
Q 2344 -856 2625 -561 
Q 2906 -266 2906 331 
L 2906 616 
Q 2728 306 2450 153 
Q 2172 0 1784 0 
Q 1141 0 747 490 
Q 353 981 353 1791 
Q 353 2603 747 3093 
Q 1141 3584 1784 3584 
Q 2172 3584 2450 3431 
Q 2728 3278 2906 2969 
L 2906 3500 
L 3481 3500 
L 3481 434 
z
" transform="scale(0.015625)"/>
     </defs>
     <use xlink:href="#DejaVuSans-67"/>
     <use xlink:href="#DejaVuSans-65" transform="translate(63.476562 0)"/>
     <use xlink:href="#DejaVuSans-6e" transform="translate(125 0)"/>
     <use xlink:href="#DejaVuSans-65" transform="translate(188.378906 0)"/>
     <use xlink:href="#DejaVuSans-64" transform="translate(249.902344 0)"/>
     <use xlink:href="#DejaVuSans-65" transform="translate(313.378906 0)"/>
     <use xlink:href="#DejaVuSans-78" transform="translate(373.152344 0)"/>
     <use xlink:href="#DejaVuSans-3a" transform="translate(432.332031 0)"/>
     <use xlink:href="#DejaVuSans-3a" transform="translate(466.023438 0)"/>
     <use xlink:href="#DejaVuSans-43" transform="translate(499.714844 0)"/>
     <use xlink:href="#DejaVuSans-6f" transform="translate(569.539062 0)"/>
     <use xlink:href="#DejaVuSans-6e" transform="translate(630.720703 0)"/>
     <use xlink:href="#DejaVuSans-64" transform="translate(694.099609 0)"/>
     <use xlink:href="#DejaVuSans-65" transform="translate(757.576172 0)"/>
     <use xlink:href="#DejaVuSans-6e" transform="translate(819.099609 0)"/>
     <use xlink:href="#DejaVuSans-73" transform="translate(882.478516 0)"/>
     <use xlink:href="#DejaVuSans-65" transform="translate(934.578125 0)"/>
     <use xlink:href="#DejaVuSans-64" transform="translate(996.101562 0)"/>
     <use xlink:href="#DejaVuSans-35" transform="translate(1059.578125 0)"/>
     <use xlink:href="#DejaVuSans-31" transform="translate(1123.201172 0)"/>
     <use xlink:href="#DejaVuSans-32" transform="translate(1186.824219 0)"/>
    </g>
   </g>
   <g id="PathCollection_43">
    <g>
     <use xlink:href="#m89e9b931e6" x="349.227813" y="266.236662" style="fill: #0000ff; stroke: #0000ff"/>
    </g>
   </g>
   <g id="text_37">
    <!-- sux::RankSmall1 -->
    <g transform="translate(367.227813 268.861662) scale(0.1 -0.1)">
     <use xlink:href="#DejaVuSans-73"/>
     <use xlink:href="#DejaVuSans-75" transform="translate(52.099609 0)"/>
     <use xlink:href="#DejaVuSans-78" transform="translate(115.478516 0)"/>
     <use xlink:href="#DejaVuSans-3a" transform="translate(174.658203 0)"/>
     <use xlink:href="#DejaVuSans-3a" transform="translate(208.349609 0)"/>
     <use xlink:href="#DejaVuSans-52" transform="translate(242.041016 0)"/>
     <use xlink:href="#DejaVuSans-61" transform="translate(309.273438 0)"/>
     <use xlink:href="#DejaVuSans-6e" transform="translate(370.552734 0)"/>
     <use xlink:href="#DejaVuSans-6b" transform="translate(433.931641 0)"/>
     <use xlink:href="#DejaVuSans-53" transform="translate(491.841797 0)"/>
     <use xlink:href="#DejaVuSans-6d" transform="translate(555.318359 0)"/>
     <use xlink:href="#DejaVuSans-61" transform="translate(652.730469 0)"/>
     <use xlink:href="#DejaVuSans-6c" transform="translate(714.009766 0)"/>
     <use xlink:href="#DejaVuSans-6c" transform="translate(741.792969 0)"/>
     <use xlink:href="#DejaVuSans-31" transform="translate(769.576172 0)"/>
    </g>
   </g>
   <g id="PathCollection_44">
    <g>
     <use xlink:href="#m17f74a672f" x="349.227813" y="280.914787" style="fill: #fcc007; stroke: #fcc007"/>
    </g>
   </g>
   <g id="text_38">
    <!-- BiRank32x2 -->
    <g transform="translate(367.227813 283.539787) scale(0.1 -0.1)">
     <use xlink:href="#DejaVuSans-42"/>
     <use xlink:href="#DejaVuSans-69" transform="translate(68.603516 0)"/>
     <use xlink:href="#DejaVuSans-52" transform="translate(96.386719 0)"/>
     <use xlink:href="#DejaVuSans-61" transform="translate(163.619141 0)"/>
     <use xlink:href="#DejaVuSans-6e" transform="translate(224.898438 0)"/>
     <use xlink:href="#DejaVuSans-6b" transform="translate(288.277344 0)"/>
     <use xlink:href="#DejaVuSans-33" transform="translate(346.1875 0)"/>
     <use xlink:href="#DejaVuSans-32" transform="translate(409.810547 0)"/>
     <use xlink:href="#DejaVuSans-78" transform="translate(473.433594 0)"/>
     <use xlink:href="#DejaVuSans-32" transform="translate(532.613281 0)"/>
    </g>
   </g>
   <g id="PathCollection_45">
    <g>
     <use xlink:href="#me1ca091743" x="349.227813" y="295.592912" style="fill: #0000ff; stroke: #0000ff"/>
    </g>
   </g>
   <g id="text_39">
    <!-- sux::RankSmall0 -->
    <g transform="translate(367.227813 298.217912) scale(0.1 -0.1)">
     <use xlink:href="#DejaVuSans-73"/>
     <use xlink:href="#DejaVuSans-75" transform="translate(52.099609 0)"/>
     <use xlink:href="#DejaVuSans-78" transform="translate(115.478516 0)"/>
     <use xlink:href="#DejaVuSans-3a" transform="translate(174.658203 0)"/>
     <use xlink:href="#DejaVuSans-3a" transform="translate(208.349609 0)"/>
     <use xlink:href="#DejaVuSans-52" transform="translate(242.041016 0)"/>
     <use xlink:href="#DejaVuSans-61" transform="translate(309.273438 0)"/>
     <use xlink:href="#DejaVuSans-6e" transform="translate(370.552734 0)"/>
     <use xlink:href="#DejaVuSans-6b" transform="translate(433.931641 0)"/>
     <use xlink:href="#DejaVuSans-53" transform="translate(491.841797 0)"/>
     <use xlink:href="#DejaVuSans-6d" transform="translate(555.318359 0)"/>
     <use xlink:href="#DejaVuSans-61" transform="translate(652.730469 0)"/>
     <use xlink:href="#DejaVuSans-6c" transform="translate(714.009766 0)"/>
     <use xlink:href="#DejaVuSans-6c" transform="translate(741.792969 0)"/>
     <use xlink:href="#DejaVuSans-30" transform="translate(769.576172 0)"/>
    </g>
   </g>
   <g id="PathCollection_46">
    <g>
     <use xlink:href="#m45a0cdb3a2" x="522.279375" y="251.558537" style="fill: #008000; stroke: #008000"/>
    </g>
   </g>
   <g id="text_40">
    <!-- sux::Rank9 -->
    <g transform="translate(540.279375 254.183537) scale(0.1 -0.1)">
     <use xlink:href="#DejaVuSans-73"/>
     <use xlink:href="#DejaVuSans-75" transform="translate(52.099609 0)"/>
     <use xlink:href="#DejaVuSans-78" transform="translate(115.478516 0)"/>
     <use xlink:href="#DejaVuSans-3a" transform="translate(174.658203 0)"/>
     <use xlink:href="#DejaVuSans-3a" transform="translate(208.349609 0)"/>
     <use xlink:href="#DejaVuSans-52" transform="translate(242.041016 0)"/>
     <use xlink:href="#DejaVuSans-61" transform="translate(309.273438 0)"/>
     <use xlink:href="#DejaVuSans-6e" transform="translate(370.552734 0)"/>
     <use xlink:href="#DejaVuSans-6b" transform="translate(433.931641 0)"/>
     <use xlink:href="#DejaVuSans-39" transform="translate(491.841797 0)"/>
    </g>
   </g>
   <g id="PathCollection_47">
    <g>
     <use xlink:href="#mef8f112256" x="522.279375" y="266.236662" style="fill: #ff0000; stroke: #ff0000"/>
    </g>
   </g>
   <g id="text_41">
    <!-- qwt::RSNarrow -->
    <g transform="translate(540.279375 268.861662) scale(0.1 -0.1)">
     <defs>
      <path id="DejaVuSans-4e" d="M 628 4666 
L 1478 4666 
L 3547 763 
L 3547 4666 
L 4159 4666 
L 4159 0 
L 3309 0 
L 1241 3903 
L 1241 0 
L 628 0 
L 628 4666 
z
" transform="scale(0.015625)"/>
     </defs>
     <use xlink:href="#DejaVuSans-71"/>
     <use xlink:href="#DejaVuSans-77" transform="translate(63.476562 0)"/>
     <use xlink:href="#DejaVuSans-74" transform="translate(145.263672 0)"/>
     <use xlink:href="#DejaVuSans-3a" transform="translate(184.472656 0)"/>
     <use xlink:href="#DejaVuSans-3a" transform="translate(218.164062 0)"/>
     <use xlink:href="#DejaVuSans-52" transform="translate(251.855469 0)"/>
     <use xlink:href="#DejaVuSans-53" transform="translate(321.337891 0)"/>
     <use xlink:href="#DejaVuSans-4e" transform="translate(384.814453 0)"/>
     <use xlink:href="#DejaVuSans-61" transform="translate(459.619141 0)"/>
     <use xlink:href="#DejaVuSans-72" transform="translate(520.898438 0)"/>
     <use xlink:href="#DejaVuSans-72" transform="translate(560.261719 0)"/>
     <use xlink:href="#DejaVuSans-6f" transform="translate(599.125 0)"/>
     <use xlink:href="#DejaVuSans-77" transform="translate(660.306641 0)"/>
    </g>
   </g>
   <g id="PathCollection_48">
    <g>
     <use xlink:href="#m563fd273d9" x="522.279375" y="280.914787" style="fill: #fcc007; stroke: #fcc007"/>
    </g>
   </g>
   <g id="text_42">
    <!-- BiRank64x2 -->
    <g transform="translate(540.279375 283.539787) scale(0.1 -0.1)">
     <use xlink:href="#DejaVuSans-42"/>
     <use xlink:href="#DejaVuSans-69" transform="translate(68.603516 0)"/>
     <use xlink:href="#DejaVuSans-52" transform="translate(96.386719 0)"/>
     <use xlink:href="#DejaVuSans-61" transform="translate(163.619141 0)"/>
     <use xlink:href="#DejaVuSans-6e" transform="translate(224.898438 0)"/>
     <use xlink:href="#DejaVuSans-6b" transform="translate(288.277344 0)"/>
     <use xlink:href="#DejaVuSans-36" transform="translate(346.1875 0)"/>
     <use xlink:href="#DejaVuSans-34" transform="translate(409.810547 0)"/>
     <use xlink:href="#DejaVuSans-78" transform="translate(473.433594 0)"/>
     <use xlink:href="#DejaVuSans-32" transform="translate(532.613281 0)"/>
    </g>
   </g>
   <g id="PathCollection_49">
    <g>
     <use xlink:href="#mbcadb10cb6" x="522.279375" y="295.592912" style="stroke: #000000"/>
    </g>
   </g>
   <g id="text_43">
    <!-- genedex::Condensed64 -->
    <g transform="translate(540.279375 298.217912) scale(0.1 -0.1)">
     <use xlink:href="#DejaVuSans-67"/>
     <use xlink:href="#DejaVuSans-65" transform="translate(63.476562 0)"/>
     <use xlink:href="#DejaVuSans-6e" transform="translate(125 0)"/>
     <use xlink:href="#DejaVuSans-65" transform="translate(188.378906 0)"/>
     <use xlink:href="#DejaVuSans-64" transform="translate(249.902344 0)"/>
     <use xlink:href="#DejaVuSans-65" transform="translate(313.378906 0)"/>
     <use xlink:href="#DejaVuSans-78" transform="translate(373.152344 0)"/>
     <use xlink:href="#DejaVuSans-3a" transform="translate(432.332031 0)"/>
     <use xlink:href="#DejaVuSans-3a" transform="translate(466.023438 0)"/>
     <use xlink:href="#DejaVuSans-43" transform="translate(499.714844 0)"/>
     <use xlink:href="#DejaVuSans-6f" transform="translate(569.539062 0)"/>
     <use xlink:href="#DejaVuSans-6e" transform="translate(630.720703 0)"/>
     <use xlink:href="#DejaVuSans-64" transform="translate(694.099609 0)"/>
     <use xlink:href="#DejaVuSans-65" transform="translate(757.576172 0)"/>
     <use xlink:href="#DejaVuSans-6e" transform="translate(819.099609 0)"/>
     <use xlink:href="#DejaVuSans-73" transform="translate(882.478516 0)"/>
     <use xlink:href="#DejaVuSans-65" transform="translate(934.578125 0)"/>
     <use xlink:href="#DejaVuSans-64" transform="translate(996.101562 0)"/>
     <use xlink:href="#DejaVuSans-36" transform="translate(1059.578125 0)"/>
     <use xlink:href="#DejaVuSans-34" transform="translate(1123.201172 0)"/>
    </g>
   </g>
  </g>
 </g>
 <defs>
  <clipPath id="pb90d132fd6">
   <rect x="40.603125" y="43.5576" width="291.5875" height="158.72"/>
  </clipPath>
  <clipPath id="pafa1f15280">
   <rect x="378.120625" y="43.5576" width="291.5875" height="158.72"/>
  </clipPath>
 </defs>
</svg>
