<?xml version="1.0" encoding="utf-8" standalone="no"?>
<!DOCTYPE svg PUBLIC "-//W3C//DTD SVG 1.1//EN"
  "http://www.w3.org/Graphics/SVG/1.1/DTD/svg11.dtd">
<svg xmlns:xlink="http://www.w3.org/1999/xlink" width="310.032813pt" height="214.875469pt" viewBox="0 0 310.032813 214.875469" xmlns="http://www.w3.org/2000/svg" version="1.1">
 <metadata>
  <rdf:RDF xmlns:dc="http://purl.org/dc/elements/1.1/" xmlns:cc="http://creativecommons.org/ns#" xmlns:rdf="http://www.w3.org/1999/02/22-rdf-syntax-ns#">
   <cc:Work>
    <dc:type rdf:resource="http://purl.org/dc/dcmitype/StillImage"/>
    <dc:date>2024-12-04T11:31:38.042555</dc:date>
    <dc:format>image/svg+xml</dc:format>
    <dc:creator>
     <cc:Agent>
      <dc:title>Matplotlib v3.9.2, https://matplotlib.org/</dc:title>
     </cc:Agent>
    </dc:creator>
   </cc:Work>
  </rdf:RDF>
 </metadata>
 <defs>
  <style type="text/css">*{stroke-linejoin: round; stroke-linecap: butt}</style>
 </defs>
 <g id="figure_1">
  <g id="patch_1">
   <path d="M 0 214.875469 
L 310.032813 214.875469 
L 310.032813 0 
L 0 0 
z
" style="fill: #ffffff"/>
  </g>
  <g id="axes_1">
   <g id="patch_2">
    <path d="M 43.78125 177.319219 
L 294.88125 177.319219 
L 294.88125 10.999219 
L 43.78125 10.999219 
z
" style="fill: #ffffff"/>
   </g>
   <g id="matplotlib.axis_1">
    <g id="xtick_1">
     <g id="line2d_1">
      <defs>
       <path id="m84f3c204d1" d="M 0 0 
L 0 3.5 
" style="stroke: #000000; stroke-width: 0.8"/>
      </defs>
      <g>
       <use xlink:href="#m84f3c204d1" x="43.78125" y="177.319219" style="stroke: #000000; stroke-width: 0.8"/>
      </g>
     </g>
     <g id="text_1">
      <!-- 0.0 -->
      <g transform="translate(35.829688 191.917656) scale(0.1 -0.1)">
       <defs>
        <path id="DejaVuSans-30" d="M 2034 4250 
Q 1547 4250 1301 3770 
Q 1056 3291 1056 2328 
Q 1056 1369 1301 889 
Q 1547 409 2034 409 
Q 2525 409 2770 889 
Q 3016 1369 3016 2328 
Q 3016 3291 2770 3770 
Q 2525 4250 2034 4250 
z
M 2034 4750 
Q 2819 4750 3233 4129 
Q 3647 3509 3647 2328 
Q 3647 1150 3233 529 
Q 2819 -91 2034 -91 
Q 1250 -91 836 529 
Q 422 1150 422 2328 
Q 422 3509 836 4129 
Q 1250 4750 2034 4750 
z
" transform="scale(0.015625)"/>
        <path id="DejaVuSans-2e" d="M 684 794 
L 1344 794 
L 1344 0 
L 684 0 
L 684 794 
z
" transform="scale(0.015625)"/>
       </defs>
       <use xlink:href="#DejaVuSans-30"/>
       <use xlink:href="#DejaVuSans-2e" x="63.623047"/>
       <use xlink:href="#DejaVuSans-30" x="95.410156"/>
      </g>
     </g>
    </g>
    <g id="xtick_2">
     <g id="line2d_2">
      <g>
       <use xlink:href="#m84f3c204d1" x="94.00125" y="177.319219" style="stroke: #000000; stroke-width: 0.8"/>
      </g>
     </g>
     <g id="text_2">
      <!-- 0.2 -->
      <g transform="translate(86.049688 191.917656) scale(0.1 -0.1)">
       <defs>
        <path id="DejaVuSans-32" d="M 1228 531 
L 3431 531 
L 3431 0 
L 469 0 
L 469 531 
Q 828 903 1448 1529 
Q 2069 2156 2228 2338 
Q 2531 2678 2651 2914 
Q 2772 3150 2772 3378 
Q 2772 3750 2511 3984 
Q 2250 4219 1831 4219 
Q 1534 4219 1204 4116 
Q 875 4013 500 3803 
L 500 4441 
Q 881 4594 1212 4672 
Q 1544 4750 1819 4750 
Q 2544 4750 2975 4387 
Q 3406 4025 3406 3419 
Q 3406 3131 3298 2873 
Q 3191 2616 2906 2266 
Q 2828 2175 2409 1742 
Q 1991 1309 1228 531 
z
" transform="scale(0.015625)"/>
       </defs>
       <use xlink:href="#DejaVuSans-30"/>
       <use xlink:href="#DejaVuSans-2e" x="63.623047"/>
       <use xlink:href="#DejaVuSans-32" x="95.410156"/>
      </g>
     </g>
    </g>
    <g id="xtick_3">
     <g id="line2d_3">
      <g>
       <use xlink:href="#m84f3c204d1" x="144.22125" y="177.319219" style="stroke: #000000; stroke-width: 0.8"/>
      </g>
     </g>
     <g id="text_3">
      <!-- 0.4 -->
      <g transform="translate(136.269688 191.917656) scale(0.1 -0.1)">
       <defs>
        <path id="DejaVuSans-34" d="M 2419 4116 
L 825 1625 
L 2419 1625 
L 2419 4116 
z
M 2253 4666 
L 3047 4666 
L 3047 1625 
L 3713 1625 
L 3713 1100 
L 3047 1100 
L 3047 0 
L 2419 0 
L 2419 1100 
L 313 1100 
L 313 1709 
L 2253 4666 
z
" transform="scale(0.015625)"/>
       </defs>
       <use xlink:href="#DejaVuSans-30"/>
       <use xlink:href="#DejaVuSans-2e" x="63.623047"/>
       <use xlink:href="#DejaVuSans-34" x="95.410156"/>
      </g>
     </g>
    </g>
    <g id="xtick_4">
     <g id="line2d_4">
      <g>
       <use xlink:href="#m84f3c204d1" x="194.44125" y="177.319219" style="stroke: #000000; stroke-width: 0.8"/>
      </g>
     </g>
     <g id="text_4">
      <!-- 0.6 -->
      <g transform="translate(186.489688 191.917656) scale(0.1 -0.1)">
       <defs>
        <path id="DejaVuSans-36" d="M 2113 2584 
Q 1688 2584 1439 2293 
Q 1191 2003 1191 1497 
Q 1191 994 1439 701 
Q 1688 409 2113 409 
Q 2538 409 2786 701 
Q 3034 994 3034 1497 
Q 3034 2003 2786 2293 
Q 2538 2584 2113 2584 
z
M 3366 4563 
L 3366 3988 
Q 3128 4100 2886 4159 
Q 2644 4219 2406 4219 
Q 1781 4219 1451 3797 
Q 1122 3375 1075 2522 
Q 1259 2794 1537 2939 
Q 1816 3084 2150 3084 
Q 2853 3084 3261 2657 
Q 3669 2231 3669 1497 
Q 3669 778 3244 343 
Q 2819 -91 2113 -91 
Q 1303 -91 875 529 
Q 447 1150 447 2328 
Q 447 3434 972 4092 
Q 1497 4750 2381 4750 
Q 2619 4750 2861 4703 
Q 3103 4656 3366 4563 
z
" transform="scale(0.015625)"/>
       </defs>
       <use xlink:href="#DejaVuSans-30"/>
       <use xlink:href="#DejaVuSans-2e" x="63.623047"/>
       <use xlink:href="#DejaVuSans-36" x="95.410156"/>
      </g>
     </g>
    </g>
    <g id="xtick_5">
     <g id="line2d_5">
      <g>
       <use xlink:href="#m84f3c204d1" x="244.66125" y="177.319219" style="stroke: #000000; stroke-width: 0.8"/>
      </g>
     </g>
     <g id="text_5">
      <!-- 0.8 -->
      <g transform="translate(236.709688 191.917656) scale(0.1 -0.1)">
       <defs>
        <path id="DejaVuSans-38" d="M 2034 2216 
Q 1584 2216 1326 1975 
Q 1069 1734 1069 1313 
Q 1069 891 1326 650 
Q 1584 409 2034 409 
Q 2484 409 2743 651 
Q 3003 894 3003 1313 
Q 3003 1734 2745 1975 
Q 2488 2216 2034 2216 
z
M 1403 2484 
Q 997 2584 770 2862 
Q 544 3141 544 3541 
Q 544 4100 942 4425 
Q 1341 4750 2034 4750 
Q 2731 4750 3128 4425 
Q 3525 4100 3525 3541 
Q 3525 3141 3298 2862 
Q 3072 2584 2669 2484 
Q 3125 2378 3379 2068 
Q 3634 1759 3634 1313 
Q 3634 634 3220 271 
Q 2806 -91 2034 -91 
Q 1263 -91 848 271 
Q 434 634 434 1313 
Q 434 1759 690 2068 
Q 947 2378 1403 2484 
z
M 1172 3481 
Q 1172 3119 1398 2916 
Q 1625 2713 2034 2713 
Q 2441 2713 2670 2916 
Q 2900 3119 2900 3481 
Q 2900 3844 2670 4047 
Q 2441 4250 2034 4250 
Q 1625 4250 1398 4047 
Q 1172 3844 1172 3481 
z
" transform="scale(0.015625)"/>
       </defs>
       <use xlink:href="#DejaVuSans-30"/>
       <use xlink:href="#DejaVuSans-2e" x="63.623047"/>
       <use xlink:href="#DejaVuSans-38" x="95.410156"/>
      </g>
     </g>
    </g>
    <g id="xtick_6">
     <g id="line2d_6">
      <g>
       <use xlink:href="#m84f3c204d1" x="294.88125" y="177.319219" style="stroke: #000000; stroke-width: 0.8"/>
      </g>
     </g>
     <g id="text_6">
      <!-- 1.0 -->
      <g transform="translate(286.929688 191.917656) scale(0.1 -0.1)">
       <defs>
        <path id="DejaVuSans-31" d="M 794 531 
L 1825 531 
L 1825 4091 
L 703 3866 
L 703 4441 
L 1819 4666 
L 2450 4666 
L 2450 531 
L 3481 531 
L 3481 0 
L 794 0 
L 794 531 
z
" transform="scale(0.015625)"/>
       </defs>
       <use xlink:href="#DejaVuSans-31"/>
       <use xlink:href="#DejaVuSans-2e" x="63.623047"/>
       <use xlink:href="#DejaVuSans-30" x="95.410156"/>
      </g>
     </g>
    </g>
    <g id="text_7">
     <!-- Normalized bucket index -->
     <g transform="translate(107.274219 205.595781) scale(0.1 -0.1)">
      <defs>
       <path id="DejaVuSans-4e" d="M 628 4666 
L 1478 4666 
L 3547 763 
L 3547 4666 
L 4159 4666 
L 4159 0 
L 3309 0 
L 1241 3903 
L 1241 0 
L 628 0 
L 628 4666 
z
" transform="scale(0.015625)"/>
       <path id="DejaVuSans-6f" d="M 1959 3097 
Q 1497 3097 1228 2736 
Q 959 2375 959 1747 
Q 959 1119 1226 758 
Q 1494 397 1959 397 
Q 2419 397 2687 759 
Q 2956 1122 2956 1747 
Q 2956 2369 2687 2733 
Q 2419 3097 1959 3097 
z
M 1959 3584 
Q 2709 3584 3137 3096 
Q 3566 2609 3566 1747 
Q 3566 888 3137 398 
Q 2709 -91 1959 -91 
Q 1206 -91 779 398 
Q 353 888 353 1747 
Q 353 2609 779 3096 
Q 1206 3584 1959 3584 
z
" transform="scale(0.015625)"/>
       <path id="DejaVuSans-72" d="M 2631 2963 
Q 2534 3019 2420 3045 
Q 2306 3072 2169 3072 
Q 1681 3072 1420 2755 
Q 1159 2438 1159 1844 
L 1159 0 
L 581 0 
L 581 3500 
L 1159 3500 
L 1159 2956 
Q 1341 3275 1631 3429 
Q 1922 3584 2338 3584 
Q 2397 3584 2469 3576 
Q 2541 3569 2628 3553 
L 2631 2963 
z
" transform="scale(0.015625)"/>
       <path id="DejaVuSans-6d" d="M 3328 2828 
Q 3544 3216 3844 3400 
Q 4144 3584 4550 3584 
Q 5097 3584 5394 3201 
Q 5691 2819 5691 2113 
L 5691 0 
L 5113 0 
L 5113 2094 
Q 5113 2597 4934 2840 
Q 4756 3084 4391 3084 
Q 3944 3084 3684 2787 
Q 3425 2491 3425 1978 
L 3425 0 
L 2847 0 
L 2847 2094 
Q 2847 2600 2669 2842 
Q 2491 3084 2119 3084 
Q 1678 3084 1418 2786 
Q 1159 2488 1159 1978 
L 1159 0 
L 581 0 
L 581 3500 
L 1159 3500 
L 1159 2956 
Q 1356 3278 1631 3431 
Q 1906 3584 2284 3584 
Q 2666 3584 2933 3390 
Q 3200 3197 3328 2828 
z
" transform="scale(0.015625)"/>
       <path id="DejaVuSans-61" d="M 2194 1759 
Q 1497 1759 1228 1600 
Q 959 1441 959 1056 
Q 959 750 1161 570 
Q 1363 391 1709 391 
Q 2188 391 2477 730 
Q 2766 1069 2766 1631 
L 2766 1759 
L 2194 1759 
z
M 3341 1997 
L 3341 0 
L 2766 0 
L 2766 531 
Q 2569 213 2275 61 
Q 1981 -91 1556 -91 
Q 1019 -91 701 211 
Q 384 513 384 1019 
Q 384 1609 779 1909 
Q 1175 2209 1959 2209 
L 2766 2209 
L 2766 2266 
Q 2766 2663 2505 2880 
Q 2244 3097 1772 3097 
Q 1472 3097 1187 3025 
Q 903 2953 641 2809 
L 641 3341 
Q 956 3463 1253 3523 
Q 1550 3584 1831 3584 
Q 2591 3584 2966 3190 
Q 3341 2797 3341 1997 
z
" transform="scale(0.015625)"/>
       <path id="DejaVuSans-6c" d="M 603 4863 
L 1178 4863 
L 1178 0 
L 603 0 
L 603 4863 
z
" transform="scale(0.015625)"/>
       <path id="DejaVuSans-69" d="M 603 3500 
L 1178 3500 
L 1178 0 
L 603 0 
L 603 3500 
z
M 603 4863 
L 1178 4863 
L 1178 4134 
L 603 4134 
L 603 4863 
z
" transform="scale(0.015625)"/>
       <path id="DejaVuSans-7a" d="M 353 3500 
L 3084 3500 
L 3084 2975 
L 922 459 
L 3084 459 
L 3084 0 
L 275 0 
L 275 525 
L 2438 3041 
L 353 3041 
L 353 3500 
z
" transform="scale(0.015625)"/>
       <path id="DejaVuSans-65" d="M 3597 1894 
L 3597 1613 
L 953 1613 
Q 991 1019 1311 708 
Q 1631 397 2203 397 
Q 2534 397 2845 478 
Q 3156 559 3463 722 
L 3463 178 
Q 3153 47 2828 -22 
Q 2503 -91 2169 -91 
Q 1331 -91 842 396 
Q 353 884 353 1716 
Q 353 2575 817 3079 
Q 1281 3584 2069 3584 
Q 2775 3584 3186 3129 
Q 3597 2675 3597 1894 
z
M 3022 2063 
Q 3016 2534 2758 2815 
Q 2500 3097 2075 3097 
Q 1594 3097 1305 2825 
Q 1016 2553 972 2059 
L 3022 2063 
z
" transform="scale(0.015625)"/>
       <path id="DejaVuSans-64" d="M 2906 2969 
L 2906 4863 
L 3481 4863 
L 3481 0 
L 2906 0 
L 2906 525 
Q 2725 213 2448 61 
Q 2172 -91 1784 -91 
Q 1150 -91 751 415 
Q 353 922 353 1747 
Q 353 2572 751 3078 
Q 1150 3584 1784 3584 
Q 2172 3584 2448 3432 
Q 2725 3281 2906 2969 
z
M 947 1747 
Q 947 1113 1208 752 
Q 1469 391 1925 391 
Q 2381 391 2643 752 
Q 2906 1113 2906 1747 
Q 2906 2381 2643 2742 
Q 2381 3103 1925 3103 
Q 1469 3103 1208 2742 
Q 947 2381 947 1747 
z
" transform="scale(0.015625)"/>
       <path id="DejaVuSans-20" transform="scale(0.015625)"/>
       <path id="DejaVuSans-62" d="M 3116 1747 
Q 3116 2381 2855 2742 
Q 2594 3103 2138 3103 
Q 1681 3103 1420 2742 
Q 1159 2381 1159 1747 
Q 1159 1113 1420 752 
Q 1681 391 2138 391 
Q 2594 391 2855 752 
Q 3116 1113 3116 1747 
z
M 1159 2969 
Q 1341 3281 1617 3432 
Q 1894 3584 2278 3584 
Q 2916 3584 3314 3078 
Q 3713 2572 3713 1747 
Q 3713 922 3314 415 
Q 2916 -91 2278 -91 
Q 1894 -91 1617 61 
Q 1341 213 1159 525 
L 1159 0 
L 581 0 
L 581 4863 
L 1159 4863 
L 1159 2969 
z
" transform="scale(0.015625)"/>
       <path id="DejaVuSans-75" d="M 544 1381 
L 544 3500 
L 1119 3500 
L 1119 1403 
Q 1119 906 1312 657 
Q 1506 409 1894 409 
Q 2359 409 2629 706 
Q 2900 1003 2900 1516 
L 2900 3500 
L 3475 3500 
L 3475 0 
L 2900 0 
L 2900 538 
Q 2691 219 2414 64 
Q 2138 -91 1772 -91 
Q 1169 -91 856 284 
Q 544 659 544 1381 
z
M 1991 3584 
L 1991 3584 
z
" transform="scale(0.015625)"/>
       <path id="DejaVuSans-63" d="M 3122 3366 
L 3122 2828 
Q 2878 2963 2633 3030 
Q 2388 3097 2138 3097 
Q 1578 3097 1268 2742 
Q 959 2388 959 1747 
Q 959 1106 1268 751 
Q 1578 397 2138 397 
Q 2388 397 2633 464 
Q 2878 531 3122 666 
L 3122 134 
Q 2881 22 2623 -34 
Q 2366 -91 2075 -91 
Q 1284 -91 818 406 
Q 353 903 353 1747 
Q 353 2603 823 3093 
Q 1294 3584 2113 3584 
Q 2378 3584 2631 3529 
Q 2884 3475 3122 3366 
z
" transform="scale(0.015625)"/>
       <path id="DejaVuSans-6b" d="M 581 4863 
L 1159 4863 
L 1159 1991 
L 2875 3500 
L 3609 3500 
L 1753 1863 
L 3688 0 
L 2938 0 
L 1159 1709 
L 1159 0 
L 581 0 
L 581 4863 
z
" transform="scale(0.015625)"/>
       <path id="DejaVuSans-74" d="M 1172 4494 
L 1172 3500 
L 2356 3500 
L 2356 3053 
L 1172 3053 
L 1172 1153 
Q 1172 725 1289 603 
Q 1406 481 1766 481 
L 2356 481 
L 2356 0 
L 1766 0 
Q 1100 0 847 248 
Q 594 497 594 1153 
L 594 3053 
L 172 3053 
L 172 3500 
L 594 3500 
L 594 4494 
L 1172 4494 
z
" transform="scale(0.015625)"/>
       <path id="DejaVuSans-6e" d="M 3513 2113 
L 3513 0 
L 2938 0 
L 2938 2094 
Q 2938 2591 2744 2837 
Q 2550 3084 2163 3084 
Q 1697 3084 1428 2787 
Q 1159 2491 1159 1978 
L 1159 0 
L 581 0 
L 581 3500 
L 1159 3500 
L 1159 2956 
Q 1366 3272 1645 3428 
Q 1925 3584 2291 3584 
Q 2894 3584 3203 3211 
Q 3513 2838 3513 2113 
z
" transform="scale(0.015625)"/>
       <path id="DejaVuSans-78" d="M 3513 3500 
L 2247 1797 
L 3578 0 
L 2900 0 
L 1881 1375 
L 863 0 
L 184 0 
L 1544 1831 
L 300 3500 
L 978 3500 
L 1906 2253 
L 2834 3500 
L 3513 3500 
z
" transform="scale(0.015625)"/>
      </defs>
      <use xlink:href="#DejaVuSans-4e"/>
      <use xlink:href="#DejaVuSans-6f" x="74.804688"/>
      <use xlink:href="#DejaVuSans-72" x="135.986328"/>
      <use xlink:href="#DejaVuSans-6d" x="175.349609"/>
      <use xlink:href="#DejaVuSans-61" x="272.761719"/>
      <use xlink:href="#DejaVuSans-6c" x="334.041016"/>
      <use xlink:href="#DejaVuSans-69" x="361.824219"/>
      <use xlink:href="#DejaVuSans-7a" x="389.607422"/>
      <use xlink:href="#DejaVuSans-65" x="442.097656"/>
      <use xlink:href="#DejaVuSans-64" x="503.621094"/>
      <use xlink:href="#DejaVuSans-20" x="567.097656"/>
      <use xlink:href="#DejaVuSans-62" x="598.884766"/>
      <use xlink:href="#DejaVuSans-75" x="662.361328"/>
      <use xlink:href="#DejaVuSans-63" x="725.740234"/>
      <use xlink:href="#DejaVuSans-6b" x="780.720703"/>
      <use xlink:href="#DejaVuSans-65" x="835.005859"/>
      <use xlink:href="#DejaVuSans-74" x="896.529297"/>
      <use xlink:href="#DejaVuSans-20" x="935.738281"/>
      <use xlink:href="#DejaVuSans-69" x="967.525391"/>
      <use xlink:href="#DejaVuSans-6e" x="995.308594"/>
      <use xlink:href="#DejaVuSans-64" x="1058.6875"/>
      <use xlink:href="#DejaVuSans-65" x="1122.164062"/>
      <use xlink:href="#DejaVuSans-78" x="1181.9375"/>
     </g>
    </g>
   </g>
   <g id="matplotlib.axis_2">
    <g id="ytick_1">
     <g id="line2d_7">
      <path d="M 43.78125 177.319219 
L 294.88125 177.319219 
" clip-path="url(#p8c49e52526)" style="fill: none; stroke: #b0b0b0; stroke-width: 0.5; stroke-linecap: square"/>
     </g>
     <g id="line2d_8">
      <defs>
       <path id="mae5cc5a03f" d="M 0 0 
L -3.5 0 
" style="stroke: #000000; stroke-width: 0.8"/>
      </defs>
      <g>
       <use xlink:href="#mae5cc5a03f" x="43.78125" y="177.319219" style="stroke: #000000; stroke-width: 0.8"/>
      </g>
     </g>
     <g id="text_8">
      <!-- 0.0 -->
      <g transform="translate(20.878125 181.118438) scale(0.1 -0.1)">
       <use xlink:href="#DejaVuSans-30"/>
       <use xlink:href="#DejaVuSans-2e" x="63.623047"/>
       <use xlink:href="#DejaVuSans-30" x="95.410156"/>
      </g>
     </g>
    </g>
    <g id="ytick_2">
     <g id="line2d_9">
      <path d="M 43.78125 149.599219 
L 294.88125 149.599219 
" clip-path="url(#p8c49e52526)" style="fill: none; stroke: #b0b0b0; stroke-width: 0.5; stroke-linecap: square"/>
     </g>
     <g id="line2d_10">
      <g>
       <use xlink:href="#mae5cc5a03f" x="43.78125" y="149.599219" style="stroke: #000000; stroke-width: 0.8"/>
      </g>
     </g>
     <g id="text_9">
      <!-- 0.5 -->
      <g transform="translate(20.878125 153.398438) scale(0.1 -0.1)">
       <defs>
        <path id="DejaVuSans-35" d="M 691 4666 
L 3169 4666 
L 3169 4134 
L 1269 4134 
L 1269 2991 
Q 1406 3038 1543 3061 
Q 1681 3084 1819 3084 
Q 2600 3084 3056 2656 
Q 3513 2228 3513 1497 
Q 3513 744 3044 326 
Q 2575 -91 1722 -91 
Q 1428 -91 1123 -41 
Q 819 9 494 109 
L 494 744 
Q 775 591 1075 516 
Q 1375 441 1709 441 
Q 2250 441 2565 725 
Q 2881 1009 2881 1497 
Q 2881 1984 2565 2268 
Q 2250 2553 1709 2553 
Q 1456 2553 1204 2497 
Q 953 2441 691 2322 
L 691 4666 
z
" transform="scale(0.015625)"/>
       </defs>
       <use xlink:href="#DejaVuSans-30"/>
       <use xlink:href="#DejaVuSans-2e" x="63.623047"/>
       <use xlink:href="#DejaVuSans-35" x="95.410156"/>
      </g>
     </g>
    </g>
    <g id="ytick_3">
     <g id="line2d_11">
      <path d="M 43.78125 121.879219 
L 294.88125 121.879219 
" clip-path="url(#p8c49e52526)" style="fill: none; stroke: #b0b0b0; stroke-width: 0.5; stroke-linecap: square"/>
     </g>
     <g id="line2d_12">
      <g>
       <use xlink:href="#mae5cc5a03f" x="43.78125" y="121.879219" style="stroke: #000000; stroke-width: 0.8"/>
      </g>
     </g>
     <g id="text_10">
      <!-- 1.0 -->
      <g transform="translate(20.878125 125.678438) scale(0.1 -0.1)">
       <use xlink:href="#DejaVuSans-31"/>
       <use xlink:href="#DejaVuSans-2e" x="63.623047"/>
       <use xlink:href="#DejaVuSans-30" x="95.410156"/>
      </g>
     </g>
    </g>
    <g id="ytick_4">
     <g id="line2d_13">
      <path d="M 43.78125 94.159219 
L 294.88125 94.159219 
" clip-path="url(#p8c49e52526)" style="fill: none; stroke: #b0b0b0; stroke-width: 0.5; stroke-linecap: square"/>
     </g>
     <g id="line2d_14">
      <g>
       <use xlink:href="#mae5cc5a03f" x="43.78125" y="94.159219" style="stroke: #000000; stroke-width: 0.8"/>
      </g>
     </g>
     <g id="text_11">
      <!-- 1.5 -->
      <g transform="translate(20.878125 97.958438) scale(0.1 -0.1)">
       <use xlink:href="#DejaVuSans-31"/>
       <use xlink:href="#DejaVuSans-2e" x="63.623047"/>
       <use xlink:href="#DejaVuSans-35" x="95.410156"/>
      </g>
     </g>
    </g>
    <g id="ytick_5">
     <g id="line2d_15">
      <path d="M 43.78125 66.439219 
L 294.88125 66.439219 
" clip-path="url(#p8c49e52526)" style="fill: none; stroke: #b0b0b0; stroke-width: 0.5; stroke-linecap: square"/>
     </g>
     <g id="line2d_16">
      <g>
       <use xlink:href="#mae5cc5a03f" x="43.78125" y="66.439219" style="stroke: #000000; stroke-width: 0.8"/>
      </g>
     </g>
     <g id="text_12">
      <!-- 2.0 -->
      <g transform="translate(20.878125 70.238438) scale(0.1 -0.1)">
       <use xlink:href="#DejaVuSans-32"/>
       <use xlink:href="#DejaVuSans-2e" x="63.623047"/>
       <use xlink:href="#DejaVuSans-30" x="95.410156"/>
      </g>
     </g>
    </g>
    <g id="ytick_6">
     <g id="line2d_17">
      <path d="M 43.78125 38.719219 
L 294.88125 38.719219 
" clip-path="url(#p8c49e52526)" style="fill: none; stroke: #b0b0b0; stroke-width: 0.5; stroke-linecap: square"/>
     </g>
     <g id="line2d_18">
      <g>
       <use xlink:href="#mae5cc5a03f" x="43.78125" y="38.719219" style="stroke: #000000; stroke-width: 0.8"/>
      </g>
     </g>
     <g id="text_13">
      <!-- 2.5 -->
      <g transform="translate(20.878125 42.518438) scale(0.1 -0.1)">
       <use xlink:href="#DejaVuSans-32"/>
       <use xlink:href="#DejaVuSans-2e" x="63.623047"/>
       <use xlink:href="#DejaVuSans-35" x="95.410156"/>
      </g>
     </g>
    </g>
    <g id="ytick_7">
     <g id="line2d_19">
      <path d="M 43.78125 10.999219 
L 294.88125 10.999219 
" clip-path="url(#p8c49e52526)" style="fill: none; stroke: #b0b0b0; stroke-width: 0.5; stroke-linecap: square"/>
     </g>
     <g id="line2d_20">
      <g>
       <use xlink:href="#mae5cc5a03f" x="43.78125" y="10.999219" style="stroke: #000000; stroke-width: 0.8"/>
      </g>
     </g>
     <g id="text_14">
      <!-- 3.0 -->
      <g transform="translate(20.878125 14.798438) scale(0.1 -0.1)">
       <defs>
        <path id="DejaVuSans-33" d="M 2597 2516 
Q 3050 2419 3304 2112 
Q 3559 1806 3559 1356 
Q 3559 666 3084 287 
Q 2609 -91 1734 -91 
Q 1441 -91 1130 -33 
Q 819 25 488 141 
L 488 750 
Q 750 597 1062 519 
Q 1375 441 1716 441 
Q 2309 441 2620 675 
Q 2931 909 2931 1356 
Q 2931 1769 2642 2001 
Q 2353 2234 1838 2234 
L 1294 2234 
L 1294 2753 
L 1863 2753 
Q 2328 2753 2575 2939 
Q 2822 3125 2822 3475 
Q 2822 3834 2567 4026 
Q 2313 4219 1838 4219 
Q 1578 4219 1281 4162 
Q 984 4106 628 3988 
L 628 4550 
Q 988 4650 1302 4700 
Q 1616 4750 1894 4750 
Q 2613 4750 3031 4423 
Q 3450 4097 3450 3541 
Q 3450 3153 3228 2886 
Q 3006 2619 2597 2516 
z
" transform="scale(0.015625)"/>
       </defs>
       <use xlink:href="#DejaVuSans-33"/>
       <use xlink:href="#DejaVuSans-2e" x="63.623047"/>
       <use xlink:href="#DejaVuSans-30" x="95.410156"/>
      </g>
     </g>
    </g>
    <g id="text_15">
     <!-- Relative expected bucket size -->
     <g transform="translate(14.798437 168.787344) rotate(-90) scale(0.1 -0.1)">
      <defs>
       <path id="DejaVuSans-52" d="M 2841 2188 
Q 3044 2119 3236 1894 
Q 3428 1669 3622 1275 
L 4263 0 
L 3584 0 
L 2988 1197 
Q 2756 1666 2539 1819 
Q 2322 1972 1947 1972 
L 1259 1972 
L 1259 0 
L 628 0 
L 628 4666 
L 2053 4666 
Q 2853 4666 3247 4331 
Q 3641 3997 3641 3322 
Q 3641 2881 3436 2590 
Q 3231 2300 2841 2188 
z
M 1259 4147 
L 1259 2491 
L 2053 2491 
Q 2509 2491 2742 2702 
Q 2975 2913 2975 3322 
Q 2975 3731 2742 3939 
Q 2509 4147 2053 4147 
L 1259 4147 
z
" transform="scale(0.015625)"/>
       <path id="DejaVuSans-76" d="M 191 3500 
L 800 3500 
L 1894 563 
L 2988 3500 
L 3597 3500 
L 2284 0 
L 1503 0 
L 191 3500 
z
" transform="scale(0.015625)"/>
       <path id="DejaVuSans-70" d="M 1159 525 
L 1159 -1331 
L 581 -1331 
L 581 3500 
L 1159 3500 
L 1159 2969 
Q 1341 3281 1617 3432 
Q 1894 3584 2278 3584 
Q 2916 3584 3314 3078 
Q 3713 2572 3713 1747 
Q 3713 922 3314 415 
Q 2916 -91 2278 -91 
Q 1894 -91 1617 61 
Q 1341 213 1159 525 
z
M 3116 1747 
Q 3116 2381 2855 2742 
Q 2594 3103 2138 3103 
Q 1681 3103 1420 2742 
Q 1159 2381 1159 1747 
Q 1159 1113 1420 752 
Q 1681 391 2138 391 
Q 2594 391 2855 752 
Q 3116 1113 3116 1747 
z
" transform="scale(0.015625)"/>
       <path id="DejaVuSans-73" d="M 2834 3397 
L 2834 2853 
Q 2591 2978 2328 3040 
Q 2066 3103 1784 3103 
Q 1356 3103 1142 2972 
Q 928 2841 928 2578 
Q 928 2378 1081 2264 
Q 1234 2150 1697 2047 
L 1894 2003 
Q 2506 1872 2764 1633 
Q 3022 1394 3022 966 
Q 3022 478 2636 193 
Q 2250 -91 1575 -91 
Q 1294 -91 989 -36 
Q 684 19 347 128 
L 347 722 
Q 666 556 975 473 
Q 1284 391 1588 391 
Q 1994 391 2212 530 
Q 2431 669 2431 922 
Q 2431 1156 2273 1281 
Q 2116 1406 1581 1522 
L 1381 1569 
Q 847 1681 609 1914 
Q 372 2147 372 2553 
Q 372 3047 722 3315 
Q 1072 3584 1716 3584 
Q 2034 3584 2315 3537 
Q 2597 3491 2834 3397 
z
" transform="scale(0.015625)"/>
      </defs>
      <use xlink:href="#DejaVuSans-52"/>
      <use xlink:href="#DejaVuSans-65" x="64.982422"/>
      <use xlink:href="#DejaVuSans-6c" x="126.505859"/>
      <use xlink:href="#DejaVuSans-61" x="154.289062"/>
      <use xlink:href="#DejaVuSans-74" x="215.568359"/>
      <use xlink:href="#DejaVuSans-69" x="254.777344"/>
      <use xlink:href="#DejaVuSans-76" x="282.560547"/>
      <use xlink:href="#DejaVuSans-65" x="341.740234"/>
      <use xlink:href="#DejaVuSans-20" x="403.263672"/>
      <use xlink:href="#DejaVuSans-65" x="435.050781"/>
      <use xlink:href="#DejaVuSans-78" x="494.824219"/>
      <use xlink:href="#DejaVuSans-70" x="554.003906"/>
      <use xlink:href="#DejaVuSans-65" x="617.480469"/>
      <use xlink:href="#DejaVuSans-63" x="679.003906"/>
      <use xlink:href="#DejaVuSans-74" x="733.984375"/>
      <use xlink:href="#DejaVuSans-65" x="773.193359"/>
      <use xlink:href="#DejaVuSans-64" x="834.716797"/>
      <use xlink:href="#DejaVuSans-20" x="898.193359"/>
      <use xlink:href="#DejaVuSans-62" x="929.980469"/>
      <use xlink:href="#DejaVuSans-75" x="993.457031"/>
      <use xlink:href="#DejaVuSans-63" x="1056.835938"/>
      <use xlink:href="#DejaVuSans-6b" x="1111.816406"/>
      <use xlink:href="#DejaVuSans-65" x="1166.101562"/>
      <use xlink:href="#DejaVuSans-74" x="1227.625"/>
      <use xlink:href="#DejaVuSans-20" x="1266.833984"/>
      <use xlink:href="#DejaVuSans-73" x="1298.621094"/>
      <use xlink:href="#DejaVuSans-69" x="1350.720703"/>
      <use xlink:href="#DejaVuSans-7a" x="1378.503906"/>
      <use xlink:href="#DejaVuSans-65" x="1430.994141"/>
     </g>
    </g>
   </g>
   <g id="line2d_21">
    <path d="M 43.78125 121.909673 
L 44.53455 121.856801 
L 45.03675 121.856801 
L 294.63015 121.909673 
L 294.63015 121.909673 
" clip-path="url(#p8c49e52526)" style="fill: none; stroke: #1f77b4; stroke-width: 1.5; stroke-linecap: square"/>
   </g>
   <g id="line2d_22">
    <path d="M 43.78125 66.447255 
L 118.86015 66.447255 
L 119.11125 145.649068 
L 294.63015 145.649068 
L 294.63015 145.649068 
" clip-path="url(#p8c49e52526)" style="fill: none; stroke: #ff7f0e; stroke-width: 1.5; stroke-linecap: square"/>
   </g>
   <g id="line2d_23">
    <path d="M 53.545055 -1 
L 54.57855 8.605611 
L 56.08515 20.396001 
L 57.34065 28.74973 
L 58.84725 37.367818 
L 60.85605 46.990468 
L 62.36265 53.229329 
L 64.37145 60.419881 
L 66.88245 68.086278 
L 69.14235 74.007909 
L 72.40665 81.304204 
L 76.67535 89.182088 
L 78.68415 92.35439 
L 82.19955 97.377202 
L 86.46825 102.611501 
L 92.74575 109.061849 
L 95.25675 111.28246 
L 96.01005 111.916921 
L 99.52545 114.771993 
L 100.52985 115.512197 
L 101.78535 116.463887 
L 103.54305 117.679937 
L 104.29635 118.261525 
L 104.79855 118.578755 
L 112.33155 123.284337 
L 112.58265 123.337209 
L 113.08485 123.654439 
L 114.84255 124.659001 
L 116.09805 125.293462 
L 117.35355 125.980794 
L 118.60905 126.615255 
L 119.61345 127.143972 
L 120.11565 127.355458 
L 121.12005 127.884175 
L 121.62225 128.095662 
L 124.88655 129.57607 
L 125.38875 129.840428 
L 125.89095 130.051915 
L 135.68385 134.070165 
L 136.43715 134.334523 
L 138.44595 135.074727 
L 139.19925 135.339086 
L 140.70585 135.920674 
L 140.95695 135.920674 
L 141.45915 136.132161 
L 142.96575 136.660878 
L 143.97015 136.978109 
L 145.47675 137.506826 
L 146.48115 137.824056 
L 147.48555 138.141286 
L 148.23885 138.352773 
L 148.48995 138.511388 
L 148.74105 138.511388 
L 149.24325 138.722875 
L 150.49875 139.092977 
L 151.50315 139.410207 
L 153.00975 139.833181 
L 154.01415 140.150411 
L 155.52075 140.573384 
L 156.77625 140.996358 
L 158.78505 141.525075 
L 159.53835 141.736562 
L 161.29605 142.212407 
L 162.04935 142.423894 
L 164.05815 142.952611 
L 165.06255 143.269841 
L 165.56475 143.375585 
L 168.82905 144.16866 
L 169.58235 144.380147 
L 172.59555 145.120351 
L 173.09775 145.226094 
L 177.11535 146.177785 
L 177.86865 146.389272 
L 178.37085 146.495015 
L 204.98745 151.993672 
L 205.74075 152.099416 
L 206.24295 152.205159 
L 211.01385 153.103978 
L 211.76715 153.209722 
L 212.26935 153.315465 
L 216.03585 154.002797 
L 216.78915 154.108541 
L 217.29135 154.214284 
L 217.79355 154.320027 
L 220.55565 154.795873 
L 221.30895 154.901616 
L 224.57325 155.483205 
L 225.32655 155.588948 
L 228.84195 156.223409 
L 229.84635 156.329152 
L 230.59965 156.540639 
L 231.60405 156.646382 
L 232.10625 156.752126 
L 232.85955 156.857869 
L 236.12385 157.439458 
L 236.87715 157.545201 
L 239.38815 157.968175 
L 240.14145 158.073918 
L 243.15465 158.602635 
L 243.90795 158.708379 
L 246.16785 159.078481 
L 246.92115 159.184224 
L 249.93435 159.712941 
L 250.68765 159.818685 
L 253.19865 160.241658 
L 253.95195 160.347402 
L 256.96515 160.876119 
L 257.46735 160.92899 
L 257.71845 161.034734 
L 257.96955 160.981862 
L 258.47175 161.140477 
L 259.47615 161.246221 
L 259.97835 161.351964 
L 263.49375 161.986425 
L 264.24705 162.092168 
L 268.26465 162.832372 
L 269.01795 162.938115 
L 274.29105 163.995549 
L 274.54215 163.942678 
L 275.29545 164.154164 
L 284.58615 166.216161 
L 285.59055 166.533391 
L 286.09275 166.639135 
L 287.59935 167.062108 
L 289.35705 167.696569 
L 290.11035 167.960927 
L 292.11915 168.859746 
L 292.87245 169.388463 
L 293.37465 169.705693 
L 294.37905 171.027486 
L 294.63015 171.926305 
L 294.63015 171.926305 
" clip-path="url(#p8c49e52526)" style="fill: none; stroke: #2ca02c; stroke-width: 1.5; stroke-linecap: square"/>
   </g>
   <g id="line2d_24">
    <path d="M 49.726302 -1 
L 50.56095 10.13889 
L 51.56535 21.136205 
L 52.82085 32.239263 
L 54.32745 42.866475 
L 55.83405 51.431691 
L 57.08955 57.459066 
L 58.09395 61.741674 
L 60.10275 68.985097 
L 61.35825 72.950475 
L 64.12035 80.193898 
L 65.12475 82.520253 
L 67.63575 87.595937 
L 69.39345 90.768239 
L 70.64895 92.777364 
L 71.90445 94.680745 
L 72.90885 96.108281 
L 74.16435 97.800176 
L 77.17755 101.448323 
L 82.19955 106.576879 
L 88.22595 111.546819 
L 89.48145 112.392766 
L 89.98365 112.762868 
L 90.73695 113.291585 
L 97.51665 117.46845 
L 98.26995 117.838552 
L 98.77215 118.155782 
L 100.02765 118.790242 
L 101.03205 119.371831 
L 101.53425 119.583318 
L 103.29195 120.429265 
L 104.04525 120.799367 
L 115.34475 125.452077 
L 116.09805 125.663564 
L 116.60025 125.875051 
L 118.10685 126.456639 
L 118.35795 126.456639 
L 118.86015 126.668126 
L 119.61345 126.879613 
L 119.86455 127.038228 
L 120.11565 127.038228 
L 120.61785 127.249715 
L 121.62225 127.566945 
L 122.62665 127.884175 
L 123.88215 128.254277 
L 124.88655 128.624379 
L 125.38875 128.730123 
L 126.14205 128.941609 
L 127.64865 129.364583 
L 128.65305 129.681813 
L 130.66185 130.21053 
L 131.41515 130.474889 
L 131.91735 130.580632 
L 134.93055 131.320836 
L 135.68385 131.532323 
L 139.70145 132.484014 
L 140.45475 132.6955 
L 140.95695 132.801244 
L 157.27845 136.132161 
L 158.03175 136.237905 
L 158.28285 136.343648 
L 158.53395 136.290776 
L 159.03615 136.449391 
L 159.78945 136.555135 
L 163.30485 137.189595 
L 164.30925 137.295339 
L 164.81145 137.401082 
L 167.32245 137.824056 
L 168.07575 137.929799 
L 170.58675 138.352773 
L 171.59115 138.458516 
L 172.09335 138.56426 
L 173.09775 138.670003 
L 173.59995 138.775746 
L 175.60875 139.092977 
L 176.36205 139.19872 
L 178.11975 139.463079 
L 178.87305 139.51595 
L 179.37525 139.621694 
L 180.12855 139.727437 
L 181.63515 139.938924 
L 182.63955 140.044667 
L 184.39725 140.309026 
L 185.40165 140.414769 
L 186.90825 140.626256 
L 187.91265 140.732 
L 189.41925 140.943486 
L 190.42365 141.04923 
L 191.93025 141.260717 
L 192.93465 141.36646 
L 194.19015 141.525075 
L 195.19455 141.630818 
L 196.45005 141.789434 
L 197.45445 141.895177 
L 198.70995 142.053792 
L 199.71435 142.159536 
L 200.96985 142.318151 
L 202.22535 142.423894 
L 203.48085 142.582509 
L 204.73635 142.688253 
L 205.99185 142.846868 
L 206.99625 142.899739 
L 207.49845 143.005483 
L 208.75395 143.111226 
L 209.75835 143.269841 
L 210.00945 143.21697 
L 210.51165 143.322713 
L 211.76715 143.428456 
L 212.77155 143.5342 
L 213.77595 143.639943 
L 214.78035 143.745687 
L 216.03585 143.85143 
L 217.04025 143.957173 
L 218.29575 144.062917 
L 219.30015 144.16866 
L 220.55565 144.274404 
L 221.81115 144.433019 
L 223.31775 144.538762 
L 224.57325 144.697377 
L 224.82435 144.644506 
L 225.07545 144.750249 
L 225.57765 144.750249 
L 226.58205 144.855992 
L 228.08865 144.961736 
L 229.09305 145.067479 
L 230.59965 145.173223 
L 231.60405 145.278966 
L 233.11065 145.384709 
L 234.11505 145.490453 
L 235.62165 145.596196 
L 236.37495 145.70194 
L 236.62605 145.649068 
L 237.12825 145.754811 
L 238.88595 145.860555 
L 239.89035 145.966298 
L 241.39695 146.072042 
L 242.40135 146.177785 
L 244.15905 146.283528 
L 245.16345 146.389272 
L 246.92115 146.495015 
L 247.92555 146.600759 
L 249.93435 146.706502 
L 250.93875 146.812245 
L 252.69645 146.917989 
L 253.44975 147.023732 
L 253.95195 147.023732 
L 254.70525 147.076604 
L 256.46295 147.182347 
L 257.46735 147.288091 
L 258.97395 147.340963 
L 259.22505 147.446706 
L 259.72725 147.446706 
L 261.73605 147.552449 
L 262.74045 147.658193 
L 264.74925 147.763936 
L 265.75365 147.86968 
L 266.00475 147.816808 
L 266.25585 147.922551 
L 266.75805 147.922551 
L 268.76685 148.028295 
L 269.52015 148.081166 
L 271.27785 148.18691 
L 272.03115 148.239781 
L 273.28665 148.292653 
L 273.53775 148.398397 
L 274.29105 148.345525 
L 274.54215 148.451268 
L 275.04435 148.451268 
L 277.05315 148.557012 
L 277.80645 148.609883 
L 279.56415 148.715627 
L 280.56855 148.82137 
L 281.07075 148.82137 
L 283.33065 148.927114 
L 284.08395 148.979985 
L 286.09275 149.085729 
L 287.09715 149.191472 
L 289.60815 149.297216 
L 290.36145 149.350087 
L 292.62135 149.455831 
L 293.62575 149.561574 
L 294.63015 149.614446 
L 294.63015 149.614446 
" clip-path="url(#p8c49e52526)" style="fill: none; stroke: #d62728; stroke-width: 1.5; stroke-linecap: square"/>
   </g>
   <g id="line2d_25">
    <path d="M 51.898684 -1 
L 52.82085 9.610173 
L 54.32745 23.726918 
L 55.58295 33.349568 
L 56.83845 41.544683 
L 58.84725 52.33051 
L 59.85165 56.98322 
L 61.35825 63.16921 
L 63.61815 70.994222 
L 66.63135 79.559438 
L 70.39785 88.071782 
L 71.40225 89.975164 
L 73.41105 93.570439 
L 75.92205 97.588689 
L 78.18195 100.813863 
L 78.68415 101.448323 
L 79.68855 102.770116 
L 80.69295 103.933293 
L 81.44625 104.884984 
L 87.97485 111.599691 
L 88.22595 111.758306 
L 88.72815 112.234151 
L 93.49905 116.146657 
L 94.50345 116.886861 
L 95.50785 117.627065 
L 99.52545 120.27065 
L 100.02765 120.58788 
L 103.04085 122.385518 
L 104.04525 122.914235 
L 104.54745 123.231465 
L 105.55185 123.760182 
L 106.80735 124.447515 
L 108.06285 125.029103 
L 108.31395 125.24059 
L 108.81615 125.452077 
L 110.57385 126.245153 
L 110.82495 126.456639 
L 111.32715 126.615255 
L 112.33155 127.143972 
L 112.83375 127.302587 
L 113.58705 127.672689 
L 121.12005 130.739247 
L 121.87335 131.003606 
L 123.88215 131.74381 
L 124.88655 132.06104 
L 126.64425 132.6955 
L 127.64865 133.012731 
L 128.65305 133.329961 
L 129.65745 133.647191 
L 130.91295 134.070165 
L 132.41955 134.493138 
L 133.42395 134.810369 
L 134.93055 135.233342 
L 135.93495 135.550573 
L 137.94375 136.07929 
L 138.69705 136.290776 
L 140.95695 136.872365 
L 141.96135 137.189595 
L 142.46355 137.295339 
L 145.72785 138.088414 
L 146.23005 138.194158 
L 151.75425 139.463079 
L 152.50755 139.674565 
L 153.00975 139.727437 
L 153.76305 139.938924 
L 154.51635 140.044667 
L 155.01855 140.203282 
L 155.77185 140.309026 
L 156.27405 140.414769 
L 165.06255 142.159536 
L 165.81585 142.265279 
L 169.58235 142.952611 
L 170.33565 143.058354 
L 173.59995 143.639943 
L 174.60435 143.745687 
L 175.10655 143.85143 
L 177.61755 144.274404 
L 178.37085 144.327275 
L 178.87305 144.433019 
L 181.13295 144.803121 
L 181.88625 144.855992 
L 182.38845 144.961736 
L 184.64835 145.331838 
L 185.40165 145.384709 
L 185.65275 145.490453 
L 185.90385 145.437581 
L 186.40605 145.543325 
L 188.16375 145.807683 
L 188.91705 145.913427 
L 190.42365 146.124913 
L 191.42805 146.230657 
L 192.93465 146.442144 
L 193.93905 146.547887 
L 195.69675 146.812245 
L 196.45005 146.865117 
L 196.70115 146.970861 
L 196.95225 146.917989 
L 197.45445 147.023732 
L 198.45885 147.129476 
L 200.21655 147.393834 
L 201.47205 147.499578 
L 202.72755 147.658193 
L 203.73195 147.763936 
L 205.23855 147.975423 
L 206.24295 148.028295 
L 206.49405 148.134038 
L 206.74515 148.081166 
L 207.24735 148.18691 
L 208.50285 148.292653 
L 210.00945 148.50414 
L 211.26495 148.609883 
L 212.52045 148.768499 
L 213.52485 148.874242 
L 214.78035 149.032857 
L 215.03145 148.979985 
L 215.53365 149.085729 
L 216.53805 149.1386 
L 217.04025 149.244344 
L 218.29575 149.350087 
L 219.55125 149.508702 
L 221.05785 149.614446 
L 222.31335 149.773061 
L 223.56885 149.878804 
L 224.57325 149.984548 
L 225.82875 150.090291 
L 227.08425 150.248906 
L 228.33975 150.301778 
L 228.59085 150.407521 
L 229.09305 150.407521 
L 230.09745 150.513265 
L 231.60405 150.619008 
L 232.85955 150.777623 
L 233.11065 150.724752 
L 233.61285 150.830495 
L 235.11945 150.936238 
L 236.12385 151.041982 
L 237.63045 151.147725 
L 238.88595 151.30634 
L 240.64365 151.412084 
L 241.89915 151.570699 
L 242.40135 151.570699 
L 243.15465 151.676442 
L 243.65685 151.676442 
L 244.41015 151.782186 
L 244.91235 151.782186 
L 246.16785 151.835057 
L 246.41895 151.940801 
L 246.92115 151.940801 
L 248.67885 152.046544 
L 249.93435 152.205159 
L 251.69205 152.310903 
L 252.69645 152.416646 
L 254.45415 152.52239 
L 255.45855 152.628133 
L 255.70965 152.575261 
L 255.96075 152.681005 
L 256.46295 152.681005 
L 258.22065 152.786748 
L 259.22505 152.892491 
L 260.98275 152.998235 
L 261.73605 153.103978 
L 262.23825 153.103978 
L 264.24705 153.209722 
L 265.25145 153.315465 
L 267.26025 153.421208 
L 268.26465 153.526952 
L 268.51575 153.47408 
L 268.76685 153.579824 
L 269.26905 153.579824 
L 271.27785 153.685567 
L 272.03115 153.79131 
L 272.53335 153.79131 
L 274.54215 153.897054 
L 275.54655 154.002797 
L 277.55535 154.108541 
L 278.55975 154.214284 
L 279.06195 154.214284 
L 281.07075 154.320027 
L 282.07515 154.425771 
L 284.58615 154.531514 
L 285.33945 154.584386 
L 287.09715 154.690129 
L 288.10155 154.795873 
L 288.60375 154.795873 
L 290.86365 154.901616 
L 291.86805 155.00736 
L 292.37025 155.00736 
L 293.12355 155.060231 
L 294.63015 155.165975 
L 294.63015 155.165975 
" clip-path="url(#p8c49e52526)" style="fill: none; stroke: #9467bd; stroke-width: 1.5; stroke-linecap: square"/>
   </g>
   <g id="patch_3">
    <path d="M 43.78125 177.319219 
L 43.78125 10.999219 
" style="fill: none; stroke: #000000; stroke-width: 0.8; stroke-linejoin: miter; stroke-linecap: square"/>
   </g>
   <g id="patch_4">
    <path d="M 43.78125 177.319219 
L 294.88125 177.319219 
" style="fill: none; stroke: #000000; stroke-width: 0.8; stroke-linejoin: miter; stroke-linecap: square"/>
   </g>
   <g id="legend_1">
    <g id="patch_5">
     <path d="M 128.88125 94.755469 
L 287.88125 94.755469 
Q 289.88125 94.755469 289.88125 92.755469 
L 289.88125 17.999219 
Q 289.88125 15.999219 287.88125 15.999219 
L 128.88125 15.999219 
Q 126.88125 15.999219 126.88125 17.999219 
L 126.88125 92.755469 
Q 126.88125 94.755469 128.88125 94.755469 
z
" style="fill: #ffffff; opacity: 0.8; stroke: #cccccc; stroke-linejoin: miter"/>
    </g>
    <g id="line2d_26">
     <path d="M 130.88125 24.097656 
L 140.88125 24.097656 
L 150.88125 24.097656 
" style="fill: none; stroke: #1f77b4; stroke-width: 1.5; stroke-linecap: square"/>
    </g>
    <g id="text_16">
     <!-- Linear   $\,x$ -->
     <g transform="translate(158.88125 27.597656) scale(0.1 -0.1)">
      <defs>
       <path id="DejaVuSans-4c" d="M 628 4666 
L 1259 4666 
L 1259 531 
L 3531 531 
L 3531 0 
L 628 0 
L 628 4666 
z
" transform="scale(0.015625)"/>
       <path id="DejaVuSans-Oblique-78" d="M 3841 3500 
L 2234 1784 
L 3219 0 
L 2559 0 
L 1819 1388 
L 531 0 
L -166 0 
L 1556 1844 
L 641 3500 
L 1300 3500 
L 1972 2234 
L 3144 3500 
L 3841 3500 
z
" transform="scale(0.015625)"/>
      </defs>
      <use xlink:href="#DejaVuSans-4c" transform="translate(0 0.015625)"/>
      <use xlink:href="#DejaVuSans-69" transform="translate(55.712891 0.015625)"/>
      <use xlink:href="#DejaVuSans-6e" transform="translate(83.496094 0.015625)"/>
      <use xlink:href="#DejaVuSans-65" transform="translate(146.875 0.015625)"/>
      <use xlink:href="#DejaVuSans-61" transform="translate(208.398438 0.015625)"/>
      <use xlink:href="#DejaVuSans-72" transform="translate(269.677734 0.015625)"/>
      <use xlink:href="#DejaVuSans-20" transform="translate(310.791016 0.015625)"/>
      <use xlink:href="#DejaVuSans-20" transform="translate(342.578125 0.015625)"/>
      <use xlink:href="#DejaVuSans-20" transform="translate(374.365234 0.015625)"/>
      <use xlink:href="#DejaVuSans-Oblique-78" transform="translate(422.38802 0.015625)"/>
     </g>
    </g>
    <g id="line2d_27">
     <path d="M 130.88125 38.775781 
L 140.88125 38.775781 
L 150.88125 38.775781 
" style="fill: none; stroke: #ff7f0e; stroke-width: 1.5; stroke-linecap: square"/>
    </g>
    <g id="text_17">
     <!-- Skewed $0.6\mapsto0.3$ -->
     <g transform="translate(158.88125 42.275781) scale(0.1 -0.1)">
      <defs>
       <path id="DejaVuSans-53" d="M 3425 4513 
L 3425 3897 
Q 3066 4069 2747 4153 
Q 2428 4238 2131 4238 
Q 1616 4238 1336 4038 
Q 1056 3838 1056 3469 
Q 1056 3159 1242 3001 
Q 1428 2844 1947 2747 
L 2328 2669 
Q 3034 2534 3370 2195 
Q 3706 1856 3706 1288 
Q 3706 609 3251 259 
Q 2797 -91 1919 -91 
Q 1588 -91 1214 -16 
Q 841 59 441 206 
L 441 856 
Q 825 641 1194 531 
Q 1563 422 1919 422 
Q 2459 422 2753 634 
Q 3047 847 3047 1241 
Q 3047 1584 2836 1778 
Q 2625 1972 2144 2069 
L 1759 2144 
Q 1053 2284 737 2584 
Q 422 2884 422 3419 
Q 422 4038 858 4394 
Q 1294 4750 2059 4750 
Q 2388 4750 2728 4690 
Q 3069 4631 3425 4513 
z
" transform="scale(0.015625)"/>
       <path id="DejaVuSans-77" d="M 269 3500 
L 844 3500 
L 1563 769 
L 2278 3500 
L 2956 3500 
L 3675 769 
L 4391 3500 
L 4966 3500 
L 4050 0 
L 3372 0 
L 2619 2869 
L 1863 0 
L 1184 0 
L 269 3500 
z
" transform="scale(0.015625)"/>
       <path id="DejaVuSans-21a6" d="M 4175 1741 
L 897 1741 
L 897 663 
L 366 663 
L 366 3350 
L 897 3350 
L 897 2272 
L 4175 2272 
L 3447 3000 
L 3822 3375 
L 5050 2147 
L 5050 1866 
L 3822 638 
L 3447 1013 
L 4175 1741 
z
" transform="scale(0.015625)"/>
      </defs>
      <use xlink:href="#DejaVuSans-53" transform="translate(0 0.015625)"/>
      <use xlink:href="#DejaVuSans-6b" transform="translate(63.476562 0.015625)"/>
      <use xlink:href="#DejaVuSans-65" transform="translate(121.386719 0.015625)"/>
      <use xlink:href="#DejaVuSans-77" transform="translate(182.910156 0.015625)"/>
      <use xlink:href="#DejaVuSans-65" transform="translate(264.697266 0.015625)"/>
      <use xlink:href="#DejaVuSans-64" transform="translate(326.220703 0.015625)"/>
      <use xlink:href="#DejaVuSans-20" transform="translate(389.697266 0.015625)"/>
      <use xlink:href="#DejaVuSans-30" transform="translate(421.484375 0.015625)"/>
      <use xlink:href="#DejaVuSans-2e" transform="translate(485.107422 0.015625)"/>
      <use xlink:href="#DejaVuSans-36" transform="translate(516.894531 0.015625)"/>
      <use xlink:href="#DejaVuSans-21a6" transform="translate(600 0.015625)"/>
      <use xlink:href="#DejaVuSans-30" transform="translate(703.271484 0.015625)"/>
      <use xlink:href="#DejaVuSans-2e" transform="translate(766.894531 0.015625)"/>
      <use xlink:href="#DejaVuSans-33" transform="translate(798.681641 0.015625)"/>
     </g>
    </g>
    <g id="line2d_28">
     <path d="M 130.88125 53.455469 
L 140.88125 53.455469 
L 150.88125 53.455469 
" style="fill: none; stroke: #2ca02c; stroke-width: 1.5; stroke-linecap: square"/>
    </g>
    <g id="text_18">
     <!-- Optimal $x + (1{-}x)\ln(1{-}x)$ -->
     <g transform="translate(158.88125 56.955469) scale(0.1 -0.1)">
      <defs>
       <path id="DejaVuSans-4f" d="M 2522 4238 
Q 1834 4238 1429 3725 
Q 1025 3213 1025 2328 
Q 1025 1447 1429 934 
Q 1834 422 2522 422 
Q 3209 422 3611 934 
Q 4013 1447 4013 2328 
Q 4013 3213 3611 3725 
Q 3209 4238 2522 4238 
z
M 2522 4750 
Q 3503 4750 4090 4092 
Q 4678 3434 4678 2328 
Q 4678 1225 4090 567 
Q 3503 -91 2522 -91 
Q 1538 -91 948 565 
Q 359 1222 359 2328 
Q 359 3434 948 4092 
Q 1538 4750 2522 4750 
z
" transform="scale(0.015625)"/>
       <path id="DejaVuSans-2b" d="M 2944 4013 
L 2944 2272 
L 4684 2272 
L 4684 1741 
L 2944 1741 
L 2944 0 
L 2419 0 
L 2419 1741 
L 678 1741 
L 678 2272 
L 2419 2272 
L 2419 4013 
L 2944 4013 
z
" transform="scale(0.015625)"/>
       <path id="DejaVuSans-28" d="M 1984 4856 
Q 1566 4138 1362 3434 
Q 1159 2731 1159 2009 
Q 1159 1288 1364 580 
Q 1569 -128 1984 -844 
L 1484 -844 
Q 1016 -109 783 600 
Q 550 1309 550 2009 
Q 550 2706 781 3412 
Q 1013 4119 1484 4856 
L 1984 4856 
z
" transform="scale(0.015625)"/>
       <path id="DejaVuSans-2212" d="M 678 2272 
L 4684 2272 
L 4684 1741 
L 678 1741 
L 678 2272 
z
" transform="scale(0.015625)"/>
       <path id="DejaVuSans-29" d="M 513 4856 
L 1013 4856 
Q 1481 4119 1714 3412 
Q 1947 2706 1947 2009 
Q 1947 1309 1714 600 
Q 1481 -109 1013 -844 
L 513 -844 
Q 928 -128 1133 580 
Q 1338 1288 1338 2009 
Q 1338 2731 1133 3434 
Q 928 4138 513 4856 
z
" transform="scale(0.015625)"/>
      </defs>
      <use xlink:href="#DejaVuSans-4f" transform="translate(0 0.015625)"/>
      <use xlink:href="#DejaVuSans-70" transform="translate(78.710938 0.015625)"/>
      <use xlink:href="#DejaVuSans-74" transform="translate(142.1875 0.015625)"/>
      <use xlink:href="#DejaVuSans-69" transform="translate(181.396484 0.015625)"/>
      <use xlink:href="#DejaVuSans-6d" transform="translate(209.179688 0.015625)"/>
      <use xlink:href="#DejaVuSans-61" transform="translate(306.591797 0.015625)"/>
      <use xlink:href="#DejaVuSans-6c" transform="translate(367.871094 0.015625)"/>
      <use xlink:href="#DejaVuSans-20" transform="translate(395.654297 0.015625)"/>
      <use xlink:href="#DejaVuSans-Oblique-78" transform="translate(427.441406 0.015625)"/>
      <use xlink:href="#DejaVuSans-2b" transform="translate(506.103516 0.015625)"/>
      <use xlink:href="#DejaVuSans-28" transform="translate(609.375 0.015625)"/>
      <use xlink:href="#DejaVuSans-31" transform="translate(648.388672 0.015625)"/>
      <use xlink:href="#DejaVuSans-2212" transform="translate(712.011719 0.015625)"/>
      <use xlink:href="#DejaVuSans-Oblique-78" transform="translate(795.800781 0.015625)"/>
      <use xlink:href="#DejaVuSans-29" transform="translate(854.980469 0.015625)"/>
      <use xlink:href="#DejaVuSans-6c" transform="translate(893.994141 0.015625)"/>
      <use xlink:href="#DejaVuSans-6e" transform="translate(921.777344 0.015625)"/>
      <use xlink:href="#DejaVuSans-28" transform="translate(985.15625 0.015625)"/>
      <use xlink:href="#DejaVuSans-31" transform="translate(1024.169922 0.015625)"/>
      <use xlink:href="#DejaVuSans-2212" transform="translate(1087.792969 0.015625)"/>
      <use xlink:href="#DejaVuSans-Oblique-78" transform="translate(1171.582031 0.015625)"/>
      <use xlink:href="#DejaVuSans-29" transform="translate(1230.761719 0.015625)"/>
     </g>
    </g>
    <g id="line2d_29">
     <path d="M 130.88125 69.655469 
L 140.88125 69.655469 
L 150.88125 69.655469 
" style="fill: none; stroke: #d62728; stroke-width: 1.5; stroke-linecap: square"/>
    </g>
    <g id="text_19">
     <!-- Square  $x^2$ -->
     <g transform="translate(158.88125 73.155469) scale(0.1 -0.1)">
      <defs>
       <path id="DejaVuSans-71" d="M 947 1747 
Q 947 1113 1208 752 
Q 1469 391 1925 391 
Q 2381 391 2643 752 
Q 2906 1113 2906 1747 
Q 2906 2381 2643 2742 
Q 2381 3103 1925 3103 
Q 1469 3103 1208 2742 
Q 947 2381 947 1747 
z
M 2906 525 
Q 2725 213 2448 61 
Q 2172 -91 1784 -91 
Q 1150 -91 751 415 
Q 353 922 353 1747 
Q 353 2572 751 3078 
Q 1150 3584 1784 3584 
Q 2172 3584 2448 3432 
Q 2725 3281 2906 2969 
L 2906 3500 
L 3481 3500 
L 3481 -1331 
L 2906 -1331 
L 2906 525 
z
" transform="scale(0.015625)"/>
      </defs>
      <use xlink:href="#DejaVuSans-53" transform="translate(0 0.765625)"/>
      <use xlink:href="#DejaVuSans-71" transform="translate(63.476562 0.765625)"/>
      <use xlink:href="#DejaVuSans-75" transform="translate(126.953125 0.765625)"/>
      <use xlink:href="#DejaVuSans-61" transform="translate(190.332031 0.765625)"/>
      <use xlink:href="#DejaVuSans-72" transform="translate(251.611328 0.765625)"/>
      <use xlink:href="#DejaVuSans-65" transform="translate(292.724609 0.765625)"/>
      <use xlink:href="#DejaVuSans-20" transform="translate(354.248047 0.765625)"/>
      <use xlink:href="#DejaVuSans-20" transform="translate(386.035156 0.765625)"/>
      <use xlink:href="#DejaVuSans-Oblique-78" transform="translate(417.822266 0.765625)"/>
      <use xlink:href="#DejaVuSans-32" transform="translate(481.468099 39.046875) scale(0.7)"/>
     </g>
    </g>
    <g id="line2d_30">
     <path d="M 130.88125 85.175781 
L 140.88125 85.175781 
L 150.88125 85.175781 
" style="fill: none; stroke: #9467bd; stroke-width: 1.5; stroke-linecap: square"/>
    </g>
    <g id="text_20">
     <!-- Cubic    $(x^3+x^2)/2$ -->
     <g transform="translate(158.88125 88.675781) scale(0.1 -0.1)">
      <defs>
       <path id="DejaVuSans-43" d="M 4122 4306 
L 4122 3641 
Q 3803 3938 3442 4084 
Q 3081 4231 2675 4231 
Q 1875 4231 1450 3742 
Q 1025 3253 1025 2328 
Q 1025 1406 1450 917 
Q 1875 428 2675 428 
Q 3081 428 3442 575 
Q 3803 722 4122 1019 
L 4122 359 
Q 3791 134 3420 21 
Q 3050 -91 2638 -91 
Q 1578 -91 968 557 
Q 359 1206 359 2328 
Q 359 3453 968 4101 
Q 1578 4750 2638 4750 
Q 3056 4750 3426 4639 
Q 3797 4528 4122 4306 
z
" transform="scale(0.015625)"/>
       <path id="DejaVuSans-2f" d="M 1625 4666 
L 2156 4666 
L 531 -594 
L 0 -594 
L 1625 4666 
z
" transform="scale(0.015625)"/>
      </defs>
      <use xlink:href="#DejaVuSans-43" transform="translate(0 0.765625)"/>
      <use xlink:href="#DejaVuSans-75" transform="translate(69.824219 0.765625)"/>
      <use xlink:href="#DejaVuSans-62" transform="translate(133.203125 0.765625)"/>
      <use xlink:href="#DejaVuSans-69" transform="translate(196.679688 0.765625)"/>
      <use xlink:href="#DejaVuSans-63" transform="translate(224.462891 0.765625)"/>
      <use xlink:href="#DejaVuSans-20" transform="translate(279.443359 0.765625)"/>
      <use xlink:href="#DejaVuSans-20" transform="translate(311.230469 0.765625)"/>
      <use xlink:href="#DejaVuSans-20" transform="translate(343.017578 0.765625)"/>
      <use xlink:href="#DejaVuSans-20" transform="translate(374.804688 0.765625)"/>
      <use xlink:href="#DejaVuSans-28" transform="translate(406.591797 0.765625)"/>
      <use xlink:href="#DejaVuSans-Oblique-78" transform="translate(445.605469 0.765625)"/>
      <use xlink:href="#DejaVuSans-33" transform="translate(509.251302 39.046875) scale(0.7)"/>
      <use xlink:href="#DejaVuSans-2b" transform="translate(576.004232 0.765625)"/>
      <use xlink:href="#DejaVuSans-Oblique-78" transform="translate(679.275716 0.765625)"/>
      <use xlink:href="#DejaVuSans-32" transform="translate(742.921549 39.046875) scale(0.7)"/>
      <use xlink:href="#DejaVuSans-29" transform="translate(790.192057 0.765625)"/>
      <use xlink:href="#DejaVuSans-2f" transform="translate(829.205729 0.765625)"/>
      <use xlink:href="#DejaVuSans-32" transform="translate(859.272135 0.765625)"/>
     </g>
    </g>
   </g>
  </g>
 </g>
 <defs>
  <clipPath id="p8c49e52526">
   <rect x="43.78125" y="10.999219" width="251.1" height="166.32"/>
  </clipPath>
 </defs>
</svg>
