<?xml version="1.0" encoding="UTF-8" standalone="no"?>
<svg
   id="Ebene_1"
   viewBox="0 0 312 49"
   version="1.1"
   sodipodi:docname="bmilab.svg"
   inkscape:version="1.4 (e7c3feb100, 2024-10-09)"
   xmlns:inkscape="http://www.inkscape.org/namespaces/inkscape"
   xmlns:sodipodi="http://sodipodi.sourceforge.net/DTD/sodipodi-0.dtd"
   xmlns="http://www.w3.org/2000/svg"
   xmlns:svg="http://www.w3.org/2000/svg">
  <defs
     id="defs2" />
  <sodipodi:namedview
     id="namedview2"
     pagecolor="#505050"
     bordercolor="#eeeeee"
     borderopacity="1"
     inkscape:showpageshadow="0"
     inkscape:pageopacity="0"
     inkscape:pagecheckerboard="0"
     inkscape:deskcolor="#d1d1d1"
     inkscape:zoom="3.9678488"
     inkscape:cx="121.4764"
     inkscape:cy="29.234985"
     inkscape:window-width="1920"
     inkscape:window-height="1060"
     inkscape:window-x="0"
     inkscape:window-y="0"
     inkscape:window-maximized="0"
     inkscape:current-layer="Ebene_1" />
  <style
     id="style1">.st0{fill:#fff}.st1{fill:#3ab49a}</style>
  <path
     class="st0"
     d="M132.2 17.1c0-1.3-.3-2.3-.9-3.1-.6-.8-1.5-1.4-2.8-1.7v-.1c1-.2 1.8-.8 2.4-1.6.6-.8.9-1.8.9-3 0-1.8-.7-3.1-2-3.9-1.4-.8-3.5-1.3-6.3-1.3h-7.2v20.8h8.1c2.4 0 4.4-.5 5.8-1.6 1.3-1.1 2-2.6 2-4.5zM121.9 6.7h1.6c1.8 0 2.6.6 2.6 1.7 0 .7-.2 1.1-.7 1.5-.4.3-1.1.5-1.9.5h-1.7V6.7zm1.9 12.2h-2v-4.4h1.9c.9 0 1.6.2 2 .6.5.4.7.9.7 1.6.1 1.4-.8 2.2-2.6 2.2zm17.3-16.5h-5.6v20.8h5.6V2.4zM162 20.8c1.7-1.8 2.6-4.5 2.6-8s-.9-6.2-2.6-8c-1.7-1.8-4.2-2.7-7.5-2.7s-5.8.9-7.5 2.7c-1.7 1.8-2.6 4.5-2.6 7.9 0 3.5.9 6.2 2.6 8 1.7 1.8 4.2 2.7 7.5 2.7 3.3.1 5.8-.8 7.5-2.6zm-11.7-8c0-4.1 1.4-6.1 4.2-6.1 1.4 0 2.4.5 3.1 1.5.7 1 1 2.5 1 4.6 0 2.1-.3 3.6-1 4.6-.7 1-1.7 1.5-3.2 1.5-2.7-.1-4.1-2.1-4.1-6.1zm36 1.3v9.1h5.1V2.4H184l-4.2 14.8h-.1l-4.3-14.8h-7.5v20.8h5v-9c0-1.4-.1-3.4-.3-5.9h.1l4.2 15h5.3l4.2-15h.1c-.1 2.3-.2 3.7-.2 4.3v1.5zm21.5 4.5h-6.7v-3.9h6.2v-4.5h-6.2V6.9h6.7V2.4h-12.3v20.8h12.3v-4.6zm18.3 1.8c1.9-1.9 2.9-4.6 2.9-8 0-3.2-.9-5.7-2.7-7.4-1.8-1.7-4.4-2.6-7.7-2.6h-7.2v20.8h6.7c3.4 0 6.1-.9 8-2.8zM216.9 7h1.6c1.5 0 2.7.5 3.4 1.4.8.9 1.1 2.3 1.1 4.2 0 2-.4 3.6-1.2 4.5-.8 1-2 1.5-3.7 1.5h-1.2V7zm20.9-4.6h-5.6v20.8h5.6V2.4zm12.9 21.1c2.2 0 4.1-.4 5.9-1.2v-4.8c-.9.4-1.7.7-2.6.9-.9.3-1.7.4-2.7.4-3 0-4.6-2-4.6-6 0-1.9.4-3.4 1.1-4.5.7-1.1 1.8-1.6 3.1-1.6.9 0 1.7.1 2.5.4.8.2 1.5.6 2.3.9l1.7-4.4c-2-1-4.2-1.5-6.4-1.5-2.1 0-3.8.4-5.4 1.3-1.5.9-2.7 2.1-3.5 3.8-.8 1.6-1.2 3.5-1.2 5.7 0 3.4.8 6.1 2.5 7.9 1.8 1.8 4.2 2.7 7.3 2.7zm14.9-4.2h6.7l1 3.9h6.1l-6.9-20.9H265l-6.8 20.9h6.2l1.2-3.9zm2.8-11.1c.3-1.1.4-1.9.5-2.4.1.5.3 1.4.6 2.6.3 1.2.6 2.2.8 2.9l.9 3.4h-4.4c.8-3.3 1.3-5.4 1.6-6.5zm26.7 10.5h-8V2.4h-5.6v20.8h13.6v-4.5zm-178.8 30h5.6V27.9h-5.6v20.8zm24.4-11.4c0 1.3.1 3 .2 5.1h-.1l-7.5-14.5H126v20.8h5v-9.4c0-1.2-.1-3-.3-5.3h.1l7.6 14.7h7.3V27.9h-5v9.4zm9 11.4h5.5v-7.8h6.2v-4.5h-6.2v-4h6.7v-4.5h-12.3v20.8zM174 27.6c-3.3 0-5.8.9-7.5 2.7-1.7 1.8-2.6 4.5-2.6 7.9 0 3.5.9 6.2 2.6 8 1.7 1.8 4.2 2.7 7.5 2.7s5.8-.9 7.5-2.7c1.7-1.8 2.6-4.5 2.6-8s-.9-6.2-2.6-8c-1.7-1.7-4.2-2.6-7.5-2.6zm3.2 15.3c-.7 1-1.7 1.5-3.2 1.5-2.8 0-4.2-2-4.2-6 0-4.1 1.4-6.1 4.2-6.1 1.4 0 2.4.5 3.1 1.5.7 1 1 2.5 1 4.6.1 2-.2 3.5-.9 4.5zm25.4-8.8c0-4.1-2.8-6.1-8.5-6.1h-6.8v20.8h5.6v-7.6h1.4l4.4 7.6h6.4l-6-9.1c2.3-1.4 3.5-3.2 3.5-5.6zm-8.6 2.8h-1v-4.8h1.1c1.9 0 2.9.7 2.9 2.1 0 1.9-1 2.7-3 2.7zm24.9 5.8h-.1l-4.3-14.8H207v20.8h5v-9c0-1.4-.1-3.4-.3-5.9h.1l4.2 15h5.3l4.2-15h.1c-.1 2.3-.2 3.7-.2 4.3v10.7h5.1V27.9H223l-4.1 14.8zm20.5-14.9l-6.8 20.9h6.2l1-3.9h6.7l1 3.9h6.1l-6.9-20.9h-7.3zm1.6 12.4c.9-3.3 1.4-5.4 1.7-6.6.3-1.1.4-1.9.5-2.4.1.5.3 1.4.6 2.6.3 1.2.6 2.2.8 2.9l.9 3.4H241zm11.4-7.7h5.1v16.2h5.6V32.5h5v-4.6h-15.7v4.6zm18 16.2h5.6V27.9h-5.6v20.8zm18.9-16.5c.9 0 1.7.1 2.5.4.8.2 1.5.6 2.3.9l1.7-4.4c-2-1-4.2-1.5-6.4-1.5-2.1 0-3.8.4-5.4 1.3-1.5.9-2.7 2.1-3.5 3.8-.8 1.6-1.2 3.5-1.2 5.7 0 3.4.8 6.1 2.5 7.9 1.7 1.8 4.1 2.7 7.2 2.7 2.2 0 4.1-.4 5.9-1.2V43c-.9.4-1.7.7-2.6.9-.9.3-1.7.4-2.7.4-3 0-4.6-2-4.6-6 0-1.9.4-3.4 1.1-4.5.8-1 1.9-1.6 3.2-1.6zm17.9 4.1c-1.9-.9-3-1.4-3.4-1.8-.4-.3-.6-.7-.6-1.1 0-.4.2-.7.5-1 .3-.3.9-.4 1.6-.4 1.4 0 3.1.4 5 1.3L312 29c-2.2-1-4.4-1.5-6.6-1.5-2.4 0-4.3.5-5.7 1.6-1.4 1.1-2.1 2.6-2.1 4.5 0 1 .2 1.9.5 2.7.3.7.8 1.4 1.5 2 .7.6 1.7 1.2 3 1.8 1.5.7 2.4 1.1 2.8 1.3.3.2.6.4.8.6.2.2.2.5.2.7 0 .5-.2.8-.6 1.1-.4.3-1 .4-1.8.4-1 0-2-.2-3.2-.5-1.2-.3-2.3-.7-3.3-1.3v5c1 .5 2 .8 2.9 1 .9.2 2.1.3 3.5.3 1.7 0 3.1-.3 4.3-.8 1.2-.6 2.2-1.3 2.8-2.3.7-1 1-2.1 1-3.4 0-1.4-.3-2.6-1-3.5-.7-.7-2-1.6-3.8-2.4zM87.8 1.9c-2.3 0-4.2 1.9-4.2 4.2s1.9 4.2 4.2 4.2c2.3 0 4.2-1.9 4.2-4.2s-1.9-4.2-4.2-4.2z"
     id="path1"
     style="fill:#000000;fill-opacity:1" />
  <path
     class="st1"
     d="M100.1 41.4c-2.8 0-5.3-.5-7.5-1.4-1.1-.5-1.8-1.6-1.8-2.8V16.1c0-1.7-1.4-3-3-3-1.7 0-3 1.4-3 3v10.3c-.1 1.6-1.4 2.8-3 2.8-1 0-1.8-.5-2.4-1.2-.4-.6-.9-1.2-1.3-1.7-3.1-4.1-6.3-8.4-10.4-11.7-4.8-3.8-10.1-5.7-16.2-5.7-6.2 0-11.5 1.9-16.3 5.7-4.2 3.4-7.4 7.7-10.4 11.8-.4.5-.8 1.1-1.2 1.6-.6.7-1.4 1.2-2.4 1.2-1.6 0-3-1.3-3-2.9v-5.6c0-5.8-3.6-8.8-5.7-9.7-1.6-.6-3.3.1-3.9 1.7-.6 1.6.1 3.3 1.7 3.9 0 0 1.9.9 1.9 4v16.6c0 1.7-1.4 3-3 3s-3-1.4-3-3V3c0-1.7-1.4-3-3-3C1.4 0 0 1.4 0 3v41.3c0 1.7 1.4 3 3 3 6.1 0 11.4-1.9 16.2-5.7 4.1-3.3 7.3-7.6 10.3-11.7.5-.6.9-1.2 1.3-1.8.6-.7 1.4-1.1 2.3-1.1 1.7 0 3 1.4 3 3v10.9c0 1.7 1.4 3 3 3 1.7 0 3-1.4 3-3V19.1c0-1.7 1.4-3 3-3 1.7 0 3 1.4 3 3v25.3c0 1.7 1.4 3 3 3s3-1.4 3-3V19.1c0-1.7 1.4-3 3-3 1.7 0 3 1.4 3 3V41c0 1.7 1.4 3 3 3s3-1.4 3-3V30.2c0-1.7 1.4-3 3-3 .9 0 1.7.4 2.3 1.1.4.6.9 1.1 1.3 1.7 3.1 4.2 6.3 8.5 10.5 11.8 4.9 3.9 10.2 5.8 16.5 5.8 1.7 0 3-1.4 3-3 .4-1.8-.9-3.2-2.6-3.2z"
     id="path2" />
</svg>
