<?xml version="1.0" encoding="UTF-8"?>
<svg xmlns="http://www.w3.org/2000/svg" xmlns:xlink="http://www.w3.org/1999/xlink" width="262" height="68" viewBox="0 0 262 68">
<path fill-rule="evenodd" fill="rgb(0%, 0%, 0%)" fill-opacity="1" d="M 68.800781 33 C 68.800781 30.601562 65.199219 30.601562 65.199219 33 C 65.199219 35.398438 68.800781 35.398438 68.800781 33 Z M 68.800781 33 "/>
<path fill-rule="evenodd" fill="rgb(0%, 0%, 0%)" fill-opacity="1" d="M 100.800781 9 C 100.800781 6.601562 97.199219 6.601562 97.199219 9 C 97.199219 11.398438 100.800781 11.398438 100.800781 9 Z M 100.800781 9 "/>
<path fill-rule="evenodd" fill="rgb(0%, 0%, 0%)" fill-opacity="1" d="M 100.800781 57 C 100.800781 54.601562 97.199219 54.601562 97.199219 57 C 97.199219 59.398438 100.800781 59.398438 100.800781 57 Z M 100.800781 57 "/>
<path fill-rule="evenodd" fill="rgb(0%, 0%, 0%)" fill-opacity="1" d="M 132.800781 57 C 132.800781 54.601562 129.199219 54.601562 129.199219 57 C 129.199219 59.398438 132.800781 59.398438 132.800781 57 Z M 132.800781 57 "/>
<path fill-rule="evenodd" fill="rgb(0%, 0%, 0%)" fill-opacity="1" d="M 164.800781 57 C 164.800781 54.601562 161.199219 54.601562 161.199219 57 C 161.199219 59.398438 164.800781 59.398438 164.800781 57 Z M 164.800781 57 "/>
<path fill-rule="evenodd" fill="rgb(0%, 0%, 0%)" fill-opacity="1" d="M 36.800781 33.082031 C 36.800781 30.679688 33.199219 30.679688 33.199219 33.082031 C 33.199219 35.480469 36.800781 35.480469 36.800781 33.082031 Z M 36.800781 33.082031 "/>
<path fill-rule="evenodd" fill="rgb(0%, 0%, 0%)" fill-opacity="1" d="M 4.796875 32.992188 C 4.796875 30.59375 1.199219 30.59375 1.199219 32.992188 C 1.199219 35.394531 4.796875 35.394531 4.796875 32.992188 Z M 4.796875 32.992188 "/>
<path fill-rule="evenodd" fill="rgb(0%, 0%, 0%)" fill-opacity="1" d="M 196.800781 33 C 196.800781 30.601562 193.199219 30.601562 193.199219 33 C 193.199219 35.398438 196.800781 35.398438 196.800781 33 Z M 196.800781 33 "/>
<path fill-rule="evenodd" fill="rgb(0%, 0%, 0%)" fill-opacity="1" d="M 228.800781 33 C 228.800781 30.601562 225.199219 30.601562 225.199219 33 C 225.199219 35.398438 228.800781 35.398438 228.800781 33 Z M 228.800781 33 "/>
<path fill-rule="evenodd" fill="rgb(0%, 0%, 0%)" fill-opacity="1" d="M 260.800781 9 C 260.800781 6.601562 257.199219 6.601562 257.199219 9 C 257.199219 11.398438 260.800781 11.398438 260.800781 9 Z M 260.800781 9 "/>
<path fill-rule="evenodd" fill="rgb(0%, 0%, 0%)" fill-opacity="1" d="M 164.800781 9 C 164.800781 6.601562 161.199219 6.601562 161.199219 9 C 161.199219 11.398438 164.800781 11.398438 164.800781 9 Z M 164.800781 9 "/>
<path fill="none" stroke-width="1" stroke-linecap="butt" stroke-linejoin="round" stroke="rgb(0%, 0%, 0%)" stroke-opacity="1" stroke-miterlimit="10" d="M 64 608 L 128 608 L 160 584 L 224 584 L 256 608 L 288 608 L 320 632 " transform="matrix(1, 0, 0, -1, -61, 641)"/>
<path fill-rule="evenodd" fill="rgb(0%, 0%, 0%)" fill-opacity="1" stroke-width="1" stroke-linecap="butt" stroke-linejoin="round" stroke="rgb(0%, 0%, 0%)" stroke-opacity="1" stroke-miterlimit="10" d="M 320 632 L 313 629.664062 L 315.796875 625.933594 Z M 320 632 " transform="matrix(1, 0, 0, -1, -61, 641)"/>
<path fill="none" stroke-width="1" stroke-linecap="butt" stroke-linejoin="round" stroke="rgb(0%, 0%, 0%)" stroke-opacity="1" stroke-miterlimit="10" d="M 128 608 L 160 632 " transform="matrix(1, 0, 0, -1, -61, 641)"/>
<path fill-rule="evenodd" fill="rgb(0%, 0%, 0%)" fill-opacity="1" stroke-width="1" stroke-linecap="butt" stroke-linejoin="round" stroke="rgb(0%, 0%, 0%)" stroke-opacity="1" stroke-miterlimit="10" d="M 160 632 L 153 629.664062 L 155.796875 625.933594 Z M 160 632 " transform="matrix(1, 0, 0, -1, -61, 641)"/>
<path fill="none" stroke-width="1" stroke-linecap="butt" stroke-linejoin="round" stroke="rgb(0%, 0%, 0%)" stroke-opacity="1" stroke-miterlimit="10" d="M 224 632 L 256 608 " transform="matrix(1, 0, 0, -1, -61, 641)"/>
<path fill="none" stroke-width="1" stroke-linecap="butt" stroke-linejoin="round" stroke="rgb(99%, 75.4%, 2.7%)" stroke-opacity="1" stroke-miterlimit="10" d="M 124 616 L 152 636 " transform="matrix(1, 0, 0, -1, -61, 641)"/>
<path fill-rule="evenodd" fill="rgb(99%, 75.4%, 2.7%)" fill-opacity="1" stroke-width="1" stroke-linecap="butt" stroke-linejoin="round" stroke="rgb(99%, 75.4%, 2.7%)" stroke-opacity="1" stroke-miterlimit="10" d="M 152 636 L 144.949219 633.828125 L 147.660156 630.035156 Z M 152 636 " transform="matrix(1, 0, 0, -1, -61, 641)"/>
<path fill="none" stroke-width="1" stroke-linecap="butt" stroke-linejoin="round" stroke="rgb(100%, 78.4%, 0%)" stroke-opacity="1" stroke-miterlimit="10" d="M 232 636 L 260 616 " transform="matrix(1, 0, 0, -1, -61, 641)"/>
<path fill-rule="evenodd" fill="rgb(100%, 78.4%, 0%)" fill-opacity="1" stroke-width="1" stroke-linecap="butt" stroke-linejoin="round" stroke="rgb(100%, 78.4%, 0%)" stroke-opacity="1" stroke-miterlimit="10" d="M 260 616 L 255.660156 621.964844 L 252.949219 618.171875 Z M 260 616 " transform="matrix(1, 0, 0, -1, -61, 641)"/>
<path fill-rule="evenodd" fill="rgb(0%, 0%, 0%)" fill-opacity="1" d="M 260.800781 57 C 260.800781 54.601562 257.199219 54.601562 257.199219 57 C 257.199219 59.398438 260.800781 59.398438 260.800781 57 Z M 260.800781 57 "/>
<path fill="none" stroke-width="1" stroke-linecap="butt" stroke-linejoin="round" stroke="rgb(0%, 0%, 0%)" stroke-opacity="1" stroke-miterlimit="10" d="M 288 608 L 320 584 " transform="matrix(1, 0, 0, -1, -61, 641)"/>
<path fill-rule="evenodd" fill="rgb(0%, 0%, 0%)" fill-opacity="1" stroke-width="1" stroke-linecap="butt" stroke-linejoin="round" stroke="rgb(0%, 0%, 0%)" stroke-opacity="1" stroke-miterlimit="10" d="M 320 584 L 315.796875 590.066406 L 313 586.335938 Z M 320 584 " transform="matrix(1, 0, 0, -1, -61, 641)"/>
<path fill="none" stroke-width="1" stroke-linecap="butt" stroke-linejoin="round" stroke="rgb(100%, 78.4%, 0%)" stroke-opacity="1" stroke-miterlimit="10" d="M 284 616 L 312 636 " transform="matrix(1, 0, 0, -1, -61, 641)"/>
<path fill-rule="evenodd" fill="rgb(100%, 78.4%, 0%)" fill-opacity="1" stroke-width="1" stroke-linecap="butt" stroke-linejoin="round" stroke="rgb(100%, 78.4%, 0%)" stroke-opacity="1" stroke-miterlimit="10" d="M 312 636 L 304.949219 633.828125 L 307.660156 630.035156 Z M 312 636 " transform="matrix(1, 0, 0, -1, -61, 641)"/>
<path fill="none" stroke-width="1" stroke-linecap="butt" stroke-linejoin="round" stroke="rgb(99%, 75.4%, 2.7%)" stroke-opacity="1" stroke-miterlimit="10" d="M 68 600 L 92 600 " transform="matrix(1, 0, 0, -1, -61, 641)"/>
<path fill-rule="evenodd" fill="rgb(99%, 75.4%, 2.7%)" fill-opacity="1" stroke-width="1" stroke-linecap="butt" stroke-linejoin="round" stroke="rgb(99%, 75.4%, 2.7%)" stroke-opacity="1" stroke-miterlimit="10" d="M 92 600 L 85 602.332031 L 85 597.667969 Z M 92 600 " transform="matrix(1, 0, 0, -1, -61, 641)"/>
<path fill="none" stroke-width="1" stroke-linecap="butt" stroke-linejoin="round" stroke="rgb(99%, 75.4%, 2.7%)" stroke-opacity="1" stroke-miterlimit="10" d="M 264 600 L 280 600 " transform="matrix(1, 0, 0, -1, -61, 641)"/>
<path fill-rule="evenodd" fill="rgb(99%, 75.4%, 2.7%)" fill-opacity="1" stroke-width="1" stroke-linecap="butt" stroke-linejoin="round" stroke="rgb(99%, 75.4%, 2.7%)" stroke-opacity="1" stroke-miterlimit="10" d="M 280 600 L 273 602.332031 L 273 597.667969 Z M 280 600 " transform="matrix(1, 0, 0, -1, -61, 641)"/>
<path fill="none" stroke-width="1" stroke-linecap="butt" stroke-linejoin="round" stroke="rgb(100%, 78.4%, 0%)" stroke-opacity="1" stroke-miterlimit="10" d="M 284 600 L 312 580 " transform="matrix(1, 0, 0, -1, -61, 641)"/>
<path fill-rule="evenodd" fill="rgb(100%, 78.4%, 0%)" fill-opacity="1" stroke-width="1" stroke-linecap="butt" stroke-linejoin="round" stroke="rgb(100%, 78.4%, 0%)" stroke-opacity="1" stroke-miterlimit="10" d="M 312 580 L 307.660156 585.964844 L 304.949219 582.171875 Z M 312 580 " transform="matrix(1, 0, 0, -1, -61, 641)"/>
<path fill="none" stroke-width="1" stroke-linecap="butt" stroke-linejoin="round" stroke="rgb(99%, 75.4%, 2.7%)" stroke-opacity="1" stroke-miterlimit="10" d="M 100 600 L 120 600 " transform="matrix(1, 0, 0, -1, -61, 641)"/>
<path fill-rule="evenodd" fill="rgb(99%, 75.4%, 2.7%)" fill-opacity="1" stroke-width="1" stroke-linecap="butt" stroke-linejoin="round" stroke="rgb(99%, 75.4%, 2.7%)" stroke-opacity="1" stroke-miterlimit="10" d="M 120 600 L 113 602.332031 L 113 597.667969 Z M 120 600 " transform="matrix(1, 0, 0, -1, -61, 641)"/>
<path fill="none" stroke-width="1" stroke-linecap="butt" stroke-linejoin="round" stroke="rgb(99%, 75.4%, 2.7%)" stroke-opacity="1" stroke-miterlimit="10" d="M 164 576 L 188 576 " transform="matrix(1, 0, 0, -1, -61, 641)"/>
<path fill-rule="evenodd" fill="rgb(99%, 75.4%, 2.7%)" fill-opacity="1" stroke-width="1" stroke-linecap="butt" stroke-linejoin="round" stroke="rgb(99%, 75.4%, 2.7%)" stroke-opacity="1" stroke-miterlimit="10" d="M 188 576 L 181 578.332031 L 181 573.667969 Z M 188 576 " transform="matrix(1, 0, 0, -1, -61, 641)"/>
<path fill="none" stroke-width="1" stroke-linecap="butt" stroke-linejoin="round" stroke="rgb(99%, 75.4%, 2.7%)" stroke-opacity="1" stroke-miterlimit="10" d="M 196 576 L 220 576 " transform="matrix(1, 0, 0, -1, -61, 641)"/>
<path fill-rule="evenodd" fill="rgb(99%, 75.4%, 2.7%)" fill-opacity="1" stroke-width="1" stroke-linecap="butt" stroke-linejoin="round" stroke="rgb(99%, 75.4%, 2.7%)" stroke-opacity="1" stroke-miterlimit="10" d="M 220 576 L 213 578.332031 L 213 573.667969 Z M 220 576 " transform="matrix(1, 0, 0, -1, -61, 641)"/>
<path fill="none" stroke-width="1" stroke-linecap="butt" stroke-linejoin="round" stroke="rgb(100%, 78.4%, 0%)" stroke-opacity="1" stroke-miterlimit="10" d="M 124 600 L 152 580 " transform="matrix(1, 0, 0, -1, -61, 641)"/>
<path fill-rule="evenodd" fill="rgb(100%, 78.4%, 0%)" fill-opacity="1" stroke-width="1" stroke-linecap="butt" stroke-linejoin="round" stroke="rgb(100%, 78.4%, 0%)" stroke-opacity="1" stroke-miterlimit="10" d="M 152 580 L 147.660156 585.964844 L 144.949219 582.171875 Z M 152 580 " transform="matrix(1, 0, 0, -1, -61, 641)"/>
<path fill="none" stroke-width="1" stroke-linecap="butt" stroke-linejoin="round" stroke="rgb(99%, 75.4%, 2.7%)" stroke-opacity="1" stroke-miterlimit="10" d="M 232 580 L 260 600 " transform="matrix(1, 0, 0, -1, -61, 641)"/>
<path fill-rule="evenodd" fill="rgb(99%, 75.4%, 2.7%)" fill-opacity="1" stroke-width="1" stroke-linecap="butt" stroke-linejoin="round" stroke="rgb(99%, 75.4%, 2.7%)" stroke-opacity="1" stroke-miterlimit="10" d="M 260 600 L 252.949219 597.828125 L 255.660156 594.035156 Z M 260 600 " transform="matrix(1, 0, 0, -1, -61, 641)"/>
</svg>
