<?xml version="1.0" encoding="utf-8" standalone="no"?>
<!DOCTYPE svg PUBLIC "-//W3C//DTD SVG 1.1//EN"
  "http://www.w3.org/Graphics/SVG/1.1/DTD/svg11.dtd">
<svg xmlns:xlink="http://www.w3.org/1999/xlink" width="620.913369pt" height="214.875469pt" viewBox="0 0 620.913369 214.875469" xmlns="http://www.w3.org/2000/svg" version="1.1">
 <metadata>
  <rdf:RDF xmlns:dc="http://purl.org/dc/elements/1.1/" xmlns:cc="http://creativecommons.org/ns#" xmlns:rdf="http://www.w3.org/1999/02/22-rdf-syntax-ns#">
   <cc:Work>
    <dc:type rdf:resource="http://purl.org/dc/dcmitype/StillImage"/>
    <dc:date>2025-03-31T04:21:32.937319</dc:date>
    <dc:format>image/svg+xml</dc:format>
    <dc:creator>
     <cc:Agent>
      <dc:title>Matplotlib v3.10.0, https://matplotlib.org/</dc:title>
     </cc:Agent>
    </dc:creator>
   </cc:Work>
  </rdf:RDF>
 </metadata>
 <defs>
  <style type="text/css">*{stroke-linejoin: round; stroke-linecap: butt}</style>
 </defs>
 <g id="figure_1">
  <g id="patch_1">
   <path d="M 0 214.875469 
L 620.913369 214.875469 
L 620.913369 0 
L 0 0 
z
" style="fill: #ffffff"/>
  </g>
  <g id="axes_1">
   <g id="patch_2">
    <path d="M 46.965625 177.319219 
L 604.965625 177.319219 
L 604.965625 10.999219 
L 46.965625 10.999219 
z
" style="fill: #ffffff"/>
   </g>
   <g id="line2d_1">
    <path d="M 46.965625 177.319219 
L 48.557636 173.992819 
L 49.353642 173.992819 
L 50.149648 172.329619 
L 50.945654 172.329619 
L 51.741659 173.992819 
L 52.537665 173.992819 
L 54.129676 170.666419 
L 54.925682 170.666419 
L 58.905711 162.350419 
L 61.293728 162.350419 
L 62.885739 159.024019 
L 63.681745 159.024019 
L 68.457779 149.044819 
L 69.253785 149.044819 
L 70.845796 152.371219 
L 73.233813 147.381619 
L 85.969905 173.992819 
L 127.362201 87.506419 
L 128.954213 87.506419 
L 129.750218 89.169619 
L 132.138236 89.169619 
L 132.934241 87.506419 
L 133.730247 87.506419 
L 134.526253 85.843219 
L 135.322258 87.506419 
L 136.91427 87.506419 
L 137.710275 89.169619 
L 140.098293 84.180019 
L 140.894298 85.843219 
L 142.48631 85.843219 
L 143.282315 87.506419 
L 145.670333 87.506419 
L 146.466338 89.169619 
L 148.05835 89.169619 
L 148.854355 87.506419 
L 150.446367 87.506419 
L 151.242373 89.169619 
L 152.038378 89.169619 
L 152.834384 90.832819 
L 153.63039 90.832819 
L 154.426395 92.496019 
L 155.222401 92.496019 
L 156.018407 94.159219 
L 156.814412 92.496019 
L 157.610418 94.159219 
L 159.20243 94.159219 
L 159.998435 92.496019 
L 161.590447 92.496019 
L 162.386452 94.159219 
L 163.182458 92.496019 
L 163.978464 94.159219 
L 164.77447 94.159219 
L 165.570475 92.496019 
L 166.366481 92.496019 
L 167.162487 90.832819 
L 168.754498 94.159219 
L 169.550504 92.496019 
L 171.142515 95.822419 
L 171.938521 94.159219 
L 172.734527 95.822419 
L 174.326538 95.822419 
L 175.918549 92.496019 
L 177.510561 92.496019 
L 178.306567 90.832819 
L 179.898578 94.159219 
L 180.694584 92.496019 
L 181.490589 92.496019 
L 182.286595 90.832819 
L 185.470618 97.485619 
L 187.062629 97.485619 
L 187.858635 99.148819 
L 188.654641 97.485619 
L 190.246652 100.812019 
L 191.838664 100.812019 
L 192.634669 99.148819 
L 193.430675 100.812019 
L 194.226681 100.812019 
L 195.022686 99.148819 
L 195.818692 100.812019 
L 197.410703 97.485619 
L 198.206709 99.148819 
L 199.002715 99.148819 
L 199.798721 97.485619 
L 200.594726 99.148819 
L 201.390732 97.485619 
L 202.186738 97.485619 
L 203.778749 94.159219 
L 204.574755 95.822419 
L 205.370761 95.822419 
L 206.962772 92.496019 
L 208.554783 92.496019 
L 209.350789 94.159219 
L 211.738806 89.169619 
L 212.534812 89.169619 
L 213.330818 90.832819 
L 215.718835 85.843219 
L 216.51484 87.506419 
L 218.106852 87.506419 
L 218.902858 85.843219 
L 222.882886 94.159219 
L 223.678892 94.159219 
L 224.474897 92.496019 
L 225.270903 94.159219 
L 226.066909 94.159219 
L 226.862915 95.822419 
L 230.046937 95.822419 
L 230.842943 97.485619 
L 231.638949 97.485619 
L 232.434955 95.822419 
L 234.822972 95.822419 
L 235.618977 94.159219 
L 236.414983 94.159219 
L 238.006994 90.832819 
L 238.803 92.496019 
L 239.599006 90.832819 
L 240.395012 92.496019 
L 244.37504 84.180019 
L 245.171046 85.843219 
L 245.967052 85.843219 
L 256.315126 107.464819 
L 257.111131 107.464819 
L 258.703143 110.791219 
L 259.499149 110.791219 
L 262.683171 117.444019 
L 263.479177 117.444019 
L 265.071188 120.770419 
L 265.867194 120.770419 
L 267.459206 124.096819 
L 269.051217 124.096819 
L 271.439234 129.086419 
L 272.23524 129.086419 
L 276.215268 137.402419 
L 277.011274 137.402419 
L 279.399291 142.392019 
L 280.195297 140.728819 
L 281.787308 144.055219 
L 282.583314 144.055219 
L 286.563343 152.371219 
L 293.727394 137.402419 
L 294.5234 137.402419 
L 297.707422 130.749619 
L 298.503428 130.749619 
L 308.851502 109.128019 
L 309.647508 109.128019 
L 315.219548 97.485619 
L 316.015554 97.485619 
L 321.587594 85.843219 
L 323.179605 85.843219 
L 324.771616 89.169619 
L 325.567622 87.506419 
L 326.363628 89.169619 
L 327.159634 87.506419 
L 327.955639 89.169619 
L 328.751645 87.506419 
L 329.547651 89.169619 
L 330.343656 87.506419 
L 331.139662 89.169619 
L 331.935668 87.506419 
L 332.731674 89.169619 
L 333.527679 87.506419 
L 334.323685 89.169619 
L 335.915696 89.169619 
L 337.507708 85.843219 
L 339.895725 90.832819 
L 340.691731 89.169619 
L 341.487736 90.832819 
L 342.283742 89.169619 
L 343.875753 89.169619 
L 344.671759 90.832819 
L 345.467765 90.832819 
L 346.263771 92.496019 
L 347.059776 92.496019 
L 347.855782 90.832819 
L 349.447793 90.832819 
L 350.243799 92.496019 
L 351.83581 92.496019 
L 352.631816 94.159219 
L 353.427822 92.496019 
L 354.223828 92.496019 
L 355.019833 90.832819 
L 355.815839 92.496019 
L 356.611845 92.496019 
L 358.203856 95.822419 
L 359.795868 95.822419 
L 362.183885 90.832819 
L 362.97989 90.832819 
L 363.775896 92.496019 
L 366.163913 92.496019 
L 367.755925 95.822419 
L 368.55193 94.159219 
L 369.347936 94.159219 
L 370.143942 92.496019 
L 370.939947 94.159219 
L 371.735953 94.159219 
L 372.531959 95.822419 
L 373.327965 94.159219 
L 374.12397 95.822419 
L 375.715982 92.496019 
L 376.511987 92.496019 
L 377.307993 94.159219 
L 378.900004 94.159219 
L 380.492016 90.832819 
L 382.084027 94.159219 
L 383.676039 90.832819 
L 384.472044 90.832819 
L 385.26805 89.169619 
L 387.656067 89.169619 
L 388.452073 87.506419 
L 389.248079 89.169619 
L 390.044084 89.169619 
L 390.84009 87.506419 
L 391.636096 89.169619 
L 393.228107 89.169619 
L 395.616124 84.180019 
L 397.208136 87.506419 
L 398.004141 87.506419 
L 398.800147 89.169619 
L 400.392159 89.169619 
L 401.188164 90.832819 
L 401.98417 90.832819 
L 402.780176 92.496019 
L 403.576181 92.496019 
L 404.372187 94.159219 
L 405.964198 90.832819 
L 407.55621 94.159219 
L 409.148221 94.159219 
L 409.944227 92.496019 
L 410.740233 94.159219 
L 411.536238 94.159219 
L 412.332244 95.822419 
L 413.12825 95.822419 
L 413.924256 97.485619 
L 414.720261 95.822419 
L 415.516267 95.822419 
L 417.904284 90.832819 
L 420.292301 95.822419 
L 421.088307 94.159219 
L 421.884313 94.159219 
L 424.27233 89.169619 
L 425.864341 89.169619 
L 426.660347 87.506419 
L 427.456353 87.506419 
L 428.252358 85.843219 
L 430.640375 90.832819 
L 431.436381 90.832819 
L 432.232387 92.496019 
L 433.028392 90.832819 
L 434.620404 90.832819 
L 435.41641 89.169619 
L 437.008421 89.169619 
L 437.804427 90.832819 
L 439.396438 90.832819 
L 440.192444 89.169619 
L 440.98845 90.832819 
L 443.376467 85.843219 
L 444.172472 87.506419 
L 444.968478 85.843219 
L 446.560489 85.843219 
L 447.356495 87.506419 
L 449.744512 87.506419 
L 450.540518 89.169619 
L 451.336524 87.506419 
L 452.928535 87.506419 
L 453.724541 89.169619 
L 454.520547 87.506419 
L 456.112558 90.832819 
L 457.704569 90.832819 
L 458.500575 92.496019 
L 460.092586 89.169619 
L 463.276609 89.169619 
L 464.072615 90.832819 
L 464.868621 90.832819 
L 465.664626 92.496019 
L 466.460632 92.496019 
L 467.256638 94.159219 
L 468.848649 94.159219 
L 471.236666 99.148819 
L 472.032672 99.148819 
L 472.828678 100.812019 
L 473.624683 99.148819 
L 474.420689 100.812019 
L 476.808706 95.822419 
L 477.604712 97.485619 
L 478.400718 97.485619 
L 479.196723 95.822419 
L 482.380746 95.822419 
L 483.972758 92.496019 
L 484.768763 92.496019 
L 485.564769 90.832819 
L 487.15678 90.832819 
L 488.748792 87.506419 
L 489.544798 87.506419 
L 490.340803 89.169619 
L 491.136809 87.506419 
L 491.932815 87.506419 
L 492.72882 89.169619 
L 494.320832 89.169619 
L 495.912843 92.496019 
L 497.504855 92.496019 
L 498.30086 94.159219 
L 499.096866 94.159219 
L 499.892872 92.496019 
L 501.484883 92.496019 
L 502.280889 94.159219 
L 503.8729 90.832819 
L 504.668906 90.832819 
L 505.464912 89.169619 
L 506.260917 90.832819 
L 507.056923 90.832819 
L 507.852929 89.169619 
L 508.648935 90.832819 
L 509.44494 90.832819 
L 510.240946 92.496019 
L 511.832957 89.169619 
L 512.628963 90.832819 
L 513.424969 90.832819 
L 514.220975 89.169619 
L 515.01698 90.832819 
L 515.812986 89.169619 
L 516.608992 89.169619 
L 517.404997 90.832819 
L 518.997009 90.832819 
L 519.793014 89.169619 
L 520.58902 89.169619 
L 522.181032 92.496019 
L 522.977037 90.832819 
L 523.773043 90.832819 
L 538.101146 120.770419 
L 538.897151 120.770419 
L 551.633243 147.381619 
L 552.429248 147.381619 
L 554.02126 150.708019 
L 554.817266 150.708019 
L 555.613271 152.371219 
L 556.409277 152.371219 
L 557.205283 154.034419 
L 558.001288 154.034419 
L 561.981317 162.350419 
L 562.777323 162.350419 
L 569.145368 149.044819 
L 571.533385 149.044819 
L 572.329391 147.381619 
L 573.921402 147.381619 
L 574.717408 145.718419 
L 575.513414 145.718419 
L 576.30942 147.381619 
L 577.105425 147.381619 
L 578.697437 150.708019 
L 581.085454 150.708019 
L 582.677465 154.034419 
L 584.269477 154.034419 
L 585.861488 157.360819 
L 587.453499 157.360819 
L 588.249505 159.024019 
L 589.045511 159.024019 
L 589.841517 160.687219 
L 591.433528 160.687219 
L 593.821545 165.676819 
L 594.617551 165.676819 
L 595.413557 167.340019 
L 596.209562 165.676819 
L 597.005568 167.340019 
L 597.801574 167.340019 
L 599.393585 170.666419 
L 600.985596 170.666419 
L 604.169619 177.319219 
L 604.169619 177.319219 
" clip-path="url(#p555815d8c8)" style="fill: none; stroke: #000000; stroke-width: 1.5; stroke-linecap: square"/>
   </g>
   <g id="line2d_2">
    <path d="M 46.965625 94.159219 
L 47.761631 92.496019 
L 48.557636 92.496019 
L 49.353642 94.159219 
L 50.945654 94.159219 
L 51.741659 95.822419 
L 52.537665 95.822419 
L 54.129676 92.496019 
L 54.925682 92.496019 
L 55.721688 90.832819 
L 57.313699 90.832819 
L 58.905711 94.159219 
L 61.293728 94.159219 
L 62.885739 90.832819 
L 63.681745 90.832819 
L 64.477751 89.169619 
L 70.845796 102.475219 
L 71.641802 102.475219 
L 85.969905 132.412819 
L 104.278036 94.159219 
L 105.074042 95.822419 
L 106.666053 92.496019 
L 107.462059 94.159219 
L 108.258064 92.496019 
L 109.05407 92.496019 
L 109.850076 94.159219 
L 110.646081 94.159219 
L 111.442087 92.496019 
L 113.034099 92.496019 
L 113.830104 90.832819 
L 114.62611 92.496019 
L 119.402144 82.516819 
L 120.19815 82.516819 
L 121.790161 85.843219 
L 122.586167 85.843219 
L 123.382173 84.180019 
L 124.178178 85.843219 
L 124.974184 84.180019 
L 126.566196 87.506419 
L 127.362201 85.843219 
L 128.158207 87.506419 
L 128.954213 87.506419 
L 129.750218 89.169619 
L 132.138236 89.169619 
L 132.934241 87.506419 
L 133.730247 87.506419 
L 134.526253 85.843219 
L 135.322258 87.506419 
L 136.91427 87.506419 
L 137.710275 89.169619 
L 140.098293 84.180019 
L 140.894298 85.843219 
L 142.48631 85.843219 
L 143.282315 87.506419 
L 145.670333 87.506419 
L 146.466338 89.169619 
L 148.05835 89.169619 
L 148.854355 87.506419 
L 150.446367 87.506419 
L 151.242373 89.169619 
L 152.038378 89.169619 
L 152.834384 90.832819 
L 153.63039 90.832819 
L 154.426395 92.496019 
L 155.222401 92.496019 
L 156.018407 94.159219 
L 156.814412 92.496019 
L 157.610418 94.159219 
L 159.20243 94.159219 
L 159.998435 92.496019 
L 161.590447 92.496019 
L 162.386452 94.159219 
L 163.182458 92.496019 
L 163.978464 94.159219 
L 164.77447 94.159219 
L 165.570475 92.496019 
L 166.366481 92.496019 
L 167.162487 90.832819 
L 168.754498 94.159219 
L 169.550504 92.496019 
L 171.142515 95.822419 
L 171.938521 94.159219 
L 172.734527 95.822419 
L 174.326538 95.822419 
L 175.918549 92.496019 
L 177.510561 92.496019 
L 178.306567 90.832819 
L 179.898578 94.159219 
L 180.694584 92.496019 
L 181.490589 92.496019 
L 182.286595 90.832819 
L 185.470618 97.485619 
L 187.062629 97.485619 
L 187.858635 99.148819 
L 188.654641 97.485619 
L 190.246652 100.812019 
L 191.838664 100.812019 
L 192.634669 99.148819 
L 193.430675 100.812019 
L 194.226681 100.812019 
L 195.022686 99.148819 
L 195.818692 100.812019 
L 197.410703 97.485619 
L 198.206709 99.148819 
L 199.002715 99.148819 
L 199.798721 97.485619 
L 200.594726 99.148819 
L 201.390732 97.485619 
L 202.186738 97.485619 
L 203.778749 94.159219 
L 204.574755 95.822419 
L 205.370761 95.822419 
L 206.962772 92.496019 
L 208.554783 92.496019 
L 209.350789 94.159219 
L 211.738806 89.169619 
L 212.534812 89.169619 
L 213.330818 90.832819 
L 215.718835 85.843219 
L 216.51484 87.506419 
L 218.106852 87.506419 
L 218.902858 85.843219 
L 222.882886 94.159219 
L 223.678892 94.159219 
L 224.474897 92.496019 
L 225.270903 94.159219 
L 226.066909 94.159219 
L 226.862915 95.822419 
L 230.046937 95.822419 
L 230.842943 97.485619 
L 231.638949 97.485619 
L 232.434955 95.822419 
L 234.822972 95.822419 
L 235.618977 94.159219 
L 236.414983 94.159219 
L 238.006994 90.832819 
L 238.803 92.496019 
L 239.599006 90.832819 
L 240.395012 92.496019 
L 244.37504 84.180019 
L 245.171046 85.843219 
L 245.967052 85.843219 
L 256.315126 107.464819 
L 257.111131 107.464819 
L 258.703143 110.791219 
L 259.499149 110.791219 
L 262.683171 117.444019 
L 263.479177 117.444019 
L 265.071188 120.770419 
L 265.867194 120.770419 
L 267.459206 124.096819 
L 269.051217 124.096819 
L 271.439234 129.086419 
L 272.23524 129.086419 
L 276.215268 137.402419 
L 277.011274 137.402419 
L 279.399291 142.392019 
L 280.195297 140.728819 
L 281.787308 144.055219 
L 282.583314 144.055219 
L 286.563343 152.371219 
L 293.727394 137.402419 
L 294.5234 137.402419 
L 297.707422 130.749619 
L 298.503428 130.749619 
L 308.851502 109.128019 
L 309.647508 109.128019 
L 315.219548 97.485619 
L 316.015554 97.485619 
L 321.587594 85.843219 
L 323.179605 85.843219 
L 324.771616 89.169619 
L 325.567622 87.506419 
L 326.363628 89.169619 
L 327.159634 87.506419 
L 327.955639 89.169619 
L 328.751645 87.506419 
L 329.547651 89.169619 
L 330.343656 87.506419 
L 331.139662 89.169619 
L 331.935668 87.506419 
L 332.731674 89.169619 
L 333.527679 87.506419 
L 334.323685 89.169619 
L 335.915696 89.169619 
L 337.507708 85.843219 
L 339.895725 90.832819 
L 340.691731 89.169619 
L 341.487736 90.832819 
L 342.283742 89.169619 
L 343.875753 89.169619 
L 344.671759 90.832819 
L 345.467765 90.832819 
L 346.263771 92.496019 
L 347.059776 92.496019 
L 347.855782 90.832819 
L 349.447793 90.832819 
L 350.243799 92.496019 
L 351.83581 92.496019 
L 352.631816 94.159219 
L 353.427822 92.496019 
L 354.223828 92.496019 
L 355.019833 90.832819 
L 355.815839 92.496019 
L 356.611845 92.496019 
L 358.203856 95.822419 
L 359.795868 95.822419 
L 362.183885 90.832819 
L 362.97989 90.832819 
L 363.775896 92.496019 
L 366.163913 92.496019 
L 367.755925 95.822419 
L 368.55193 94.159219 
L 369.347936 94.159219 
L 370.143942 92.496019 
L 370.939947 94.159219 
L 371.735953 94.159219 
L 372.531959 95.822419 
L 373.327965 94.159219 
L 374.12397 95.822419 
L 375.715982 92.496019 
L 376.511987 92.496019 
L 377.307993 94.159219 
L 378.900004 94.159219 
L 380.492016 90.832819 
L 382.084027 94.159219 
L 383.676039 90.832819 
L 384.472044 90.832819 
L 385.26805 89.169619 
L 387.656067 89.169619 
L 388.452073 87.506419 
L 389.248079 89.169619 
L 390.044084 89.169619 
L 390.84009 87.506419 
L 391.636096 89.169619 
L 393.228107 89.169619 
L 395.616124 84.180019 
L 397.208136 87.506419 
L 398.004141 87.506419 
L 398.800147 89.169619 
L 400.392159 89.169619 
L 401.188164 90.832819 
L 401.98417 90.832819 
L 402.780176 92.496019 
L 403.576181 92.496019 
L 404.372187 94.159219 
L 405.964198 90.832819 
L 407.55621 94.159219 
L 409.148221 94.159219 
L 409.944227 92.496019 
L 410.740233 94.159219 
L 411.536238 94.159219 
L 412.332244 95.822419 
L 413.12825 95.822419 
L 413.924256 97.485619 
L 414.720261 95.822419 
L 415.516267 95.822419 
L 417.904284 90.832819 
L 420.292301 95.822419 
L 421.088307 94.159219 
L 421.884313 94.159219 
L 424.27233 89.169619 
L 425.864341 89.169619 
L 426.660347 87.506419 
L 427.456353 87.506419 
L 428.252358 85.843219 
L 430.640375 90.832819 
L 431.436381 90.832819 
L 432.232387 92.496019 
L 433.028392 90.832819 
L 434.620404 90.832819 
L 435.41641 89.169619 
L 437.008421 89.169619 
L 437.804427 90.832819 
L 439.396438 90.832819 
L 440.192444 89.169619 
L 440.98845 90.832819 
L 443.376467 85.843219 
L 444.172472 87.506419 
L 444.968478 85.843219 
L 446.560489 85.843219 
L 447.356495 87.506419 
L 449.744512 87.506419 
L 450.540518 89.169619 
L 451.336524 87.506419 
L 452.928535 87.506419 
L 453.724541 89.169619 
L 454.520547 87.506419 
L 456.112558 90.832819 
L 457.704569 90.832819 
L 458.500575 92.496019 
L 460.092586 89.169619 
L 463.276609 89.169619 
L 464.072615 90.832819 
L 464.868621 90.832819 
L 465.664626 92.496019 
L 466.460632 92.496019 
L 467.256638 94.159219 
L 468.848649 94.159219 
L 471.236666 99.148819 
L 472.032672 99.148819 
L 472.828678 100.812019 
L 473.624683 99.148819 
L 474.420689 100.812019 
L 476.808706 95.822419 
L 477.604712 97.485619 
L 478.400718 97.485619 
L 479.196723 95.822419 
L 482.380746 95.822419 
L 483.972758 92.496019 
L 484.768763 92.496019 
L 485.564769 90.832819 
L 487.15678 90.832819 
L 488.748792 87.506419 
L 489.544798 87.506419 
L 490.340803 89.169619 
L 491.136809 87.506419 
L 491.932815 87.506419 
L 492.72882 89.169619 
L 494.320832 89.169619 
L 495.912843 92.496019 
L 497.504855 92.496019 
L 498.30086 94.159219 
L 499.096866 94.159219 
L 499.892872 92.496019 
L 501.484883 92.496019 
L 502.280889 94.159219 
L 503.8729 90.832819 
L 504.668906 90.832819 
L 505.464912 89.169619 
L 506.260917 90.832819 
L 507.056923 90.832819 
L 507.852929 89.169619 
L 508.648935 90.832819 
L 509.44494 90.832819 
L 510.240946 92.496019 
L 511.832957 89.169619 
L 512.628963 90.832819 
L 513.424969 90.832819 
L 514.220975 89.169619 
L 515.01698 90.832819 
L 515.812986 89.169619 
L 516.608992 89.169619 
L 517.404997 90.832819 
L 518.997009 90.832819 
L 519.793014 89.169619 
L 520.58902 89.169619 
L 522.181032 92.496019 
L 522.977037 90.832819 
L 523.773043 90.832819 
L 525.365054 94.159219 
L 526.16106 94.159219 
L 526.957066 95.822419 
L 527.753072 95.822419 
L 528.549077 97.485619 
L 529.345083 97.485619 
L 530.141089 99.148819 
L 530.937094 99.148819 
L 531.7331 100.812019 
L 532.529106 100.812019 
L 533.325111 102.475219 
L 534.121117 102.475219 
L 534.917123 104.138419 
L 535.713129 104.138419 
L 536.509134 105.801619 
L 537.30514 105.801619 
L 538.101146 107.464819 
L 538.897151 105.801619 
L 539.693157 107.464819 
L 540.489163 107.464819 
L 541.285169 109.128019 
L 542.081174 109.128019 
L 542.87718 110.791219 
L 543.673186 110.791219 
L 544.469191 112.454419 
L 545.265197 112.454419 
L 546.061203 114.117619 
L 546.857208 114.117619 
L 547.653214 115.780819 
L 548.44922 115.780819 
L 549.245226 117.444019 
L 550.041231 117.444019 
L 550.837237 119.107219 
L 553.225254 119.107219 
L 554.02126 120.770419 
L 554.817266 119.107219 
L 555.613271 120.770419 
L 556.409277 119.107219 
L 557.205283 120.770419 
L 558.001288 119.107219 
L 558.797294 120.770419 
L 559.5933 120.770419 
L 560.389305 122.433619 
L 561.185311 122.433619 
L 561.981317 124.096819 
L 563.573328 120.770419 
L 564.369334 117.444019 
L 565.16534 115.780819 
L 565.961345 112.454419 
L 566.757351 110.791219 
L 567.553357 107.464819 
L 568.349363 105.801619 
L 569.145368 102.475219 
L 569.941374 102.475219 
L 570.73738 100.812019 
L 571.533385 100.812019 
L 572.329391 97.485619 
L 573.125397 97.485619 
L 575.513414 92.496019 
L 576.30942 94.159219 
L 577.105425 92.496019 
L 577.901431 94.159219 
L 579.493442 94.159219 
L 580.289448 92.496019 
L 581.88146 92.496019 
L 582.677465 94.159219 
L 583.473471 92.496019 
L 585.065482 92.496019 
L 585.861488 94.159219 
L 586.657494 92.496019 
L 590.637522 92.496019 
L 591.433528 90.832819 
L 592.229534 92.496019 
L 593.025539 92.496019 
L 593.821545 94.159219 
L 594.617551 92.496019 
L 595.413557 94.159219 
L 596.209562 90.832819 
L 597.005568 92.496019 
L 597.801574 90.832819 
L 598.597579 92.496019 
L 600.189591 92.496019 
L 600.985596 90.832819 
L 601.781602 92.496019 
L 602.577608 92.496019 
L 603.373614 94.159219 
L 604.169619 94.159219 
L 604.169619 94.159219 
" clip-path="url(#p555815d8c8)" style="fill: none; stroke: #ffc107; stroke-width: 2; stroke-linecap: square"/>
   </g>
   <g id="line2d_3">
    <path d="M 46.965625 10.999219 
L 70.845796 60.895219 
L 71.641802 60.895219 
L 85.969905 90.832819 
L 89.153927 84.180019 
L 91.541945 84.180019 
L 92.33795 82.516819 
L 94.725967 82.516819 
L 95.521973 84.180019 
L 97.113984 84.180019 
L 97.90999 82.516819 
L 98.705996 82.516819 
L 101.094013 87.506419 
L 101.890019 87.506419 
L 102.686024 85.843219 
L 104.278036 85.843219 
L 105.074042 87.506419 
L 106.666053 84.180019 
L 107.462059 85.843219 
L 108.258064 84.180019 
L 109.05407 84.180019 
L 109.850076 85.843219 
L 110.646081 85.843219 
L 111.442087 84.180019 
L 113.034099 84.180019 
L 113.830104 82.516819 
L 114.62611 84.180019 
L 115.422116 82.516819 
L 116.218121 82.516819 
L 117.014127 80.853619 
L 117.810133 82.516819 
L 120.19815 82.516819 
L 121.790161 85.843219 
L 122.586167 85.843219 
L 123.382173 84.180019 
L 124.178178 85.843219 
L 124.974184 84.180019 
L 126.566196 87.506419 
L 127.362201 85.843219 
L 128.158207 87.506419 
L 128.954213 87.506419 
L 129.750218 89.169619 
L 132.138236 89.169619 
L 132.934241 87.506419 
L 133.730247 87.506419 
L 134.526253 85.843219 
L 135.322258 87.506419 
L 136.91427 87.506419 
L 137.710275 89.169619 
L 140.098293 84.180019 
L 140.894298 85.843219 
L 142.48631 85.843219 
L 143.282315 87.506419 
L 145.670333 87.506419 
L 146.466338 89.169619 
L 148.05835 89.169619 
L 148.854355 87.506419 
L 150.446367 87.506419 
L 151.242373 89.169619 
L 152.038378 89.169619 
L 152.834384 90.832819 
L 153.63039 90.832819 
L 154.426395 92.496019 
L 155.222401 92.496019 
L 156.018407 94.159219 
L 156.814412 92.496019 
L 157.610418 94.159219 
L 159.20243 94.159219 
L 159.998435 92.496019 
L 161.590447 92.496019 
L 162.386452 94.159219 
L 163.182458 92.496019 
L 163.978464 94.159219 
L 164.77447 94.159219 
L 165.570475 92.496019 
L 166.366481 92.496019 
L 167.162487 90.832819 
L 168.754498 94.159219 
L 169.550504 92.496019 
L 171.142515 95.822419 
L 171.938521 94.159219 
L 172.734527 95.822419 
L 174.326538 95.822419 
L 175.918549 92.496019 
L 177.510561 92.496019 
L 178.306567 90.832819 
L 179.898578 94.159219 
L 180.694584 92.496019 
L 181.490589 92.496019 
L 182.286595 90.832819 
L 185.470618 97.485619 
L 187.062629 97.485619 
L 187.858635 99.148819 
L 188.654641 97.485619 
L 190.246652 100.812019 
L 191.838664 100.812019 
L 192.634669 99.148819 
L 193.430675 100.812019 
L 194.226681 100.812019 
L 195.022686 99.148819 
L 195.818692 100.812019 
L 197.410703 97.485619 
L 198.206709 99.148819 
L 199.002715 99.148819 
L 199.798721 97.485619 
L 200.594726 99.148819 
L 201.390732 97.485619 
L 202.186738 97.485619 
L 203.778749 94.159219 
L 204.574755 95.822419 
L 205.370761 95.822419 
L 206.962772 92.496019 
L 208.554783 92.496019 
L 209.350789 94.159219 
L 211.738806 89.169619 
L 212.534812 89.169619 
L 213.330818 90.832819 
L 215.718835 85.843219 
L 216.51484 87.506419 
L 218.106852 87.506419 
L 218.902858 85.843219 
L 222.882886 94.159219 
L 223.678892 94.159219 
L 224.474897 92.496019 
L 225.270903 94.159219 
L 226.066909 94.159219 
L 226.862915 95.822419 
L 230.046937 95.822419 
L 230.842943 97.485619 
L 231.638949 97.485619 
L 232.434955 95.822419 
L 234.822972 95.822419 
L 235.618977 94.159219 
L 236.414983 94.159219 
L 238.006994 90.832819 
L 238.803 92.496019 
L 239.599006 90.832819 
L 240.395012 92.496019 
L 244.37504 84.180019 
L 245.171046 85.843219 
L 245.967052 85.843219 
L 256.315126 107.464819 
L 257.111131 107.464819 
L 258.703143 110.791219 
L 259.499149 110.791219 
L 262.683171 117.444019 
L 263.479177 117.444019 
L 265.071188 120.770419 
L 265.867194 120.770419 
L 267.459206 124.096819 
L 269.051217 124.096819 
L 271.439234 129.086419 
L 272.23524 129.086419 
L 276.215268 137.402419 
L 277.011274 137.402419 
L 279.399291 142.392019 
L 280.195297 140.728819 
L 281.787308 144.055219 
L 282.583314 144.055219 
L 286.563343 152.371219 
L 293.727394 137.402419 
L 294.5234 137.402419 
L 297.707422 130.749619 
L 298.503428 130.749619 
L 308.851502 109.128019 
L 309.647508 109.128019 
L 315.219548 97.485619 
L 316.015554 97.485619 
L 321.587594 85.843219 
L 323.179605 85.843219 
L 324.771616 89.169619 
L 325.567622 87.506419 
L 326.363628 89.169619 
L 327.159634 87.506419 
L 327.955639 89.169619 
L 328.751645 87.506419 
L 329.547651 89.169619 
L 330.343656 87.506419 
L 331.139662 89.169619 
L 331.935668 87.506419 
L 332.731674 89.169619 
L 333.527679 87.506419 
L 334.323685 89.169619 
L 335.915696 89.169619 
L 337.507708 85.843219 
L 339.895725 90.832819 
L 340.691731 89.169619 
L 341.487736 90.832819 
L 342.283742 89.169619 
L 343.875753 89.169619 
L 344.671759 90.832819 
L 345.467765 90.832819 
L 346.263771 92.496019 
L 347.059776 92.496019 
L 347.855782 90.832819 
L 349.447793 90.832819 
L 350.243799 92.496019 
L 351.83581 92.496019 
L 352.631816 94.159219 
L 353.427822 92.496019 
L 354.223828 92.496019 
L 355.019833 90.832819 
L 355.815839 92.496019 
L 356.611845 92.496019 
L 358.203856 95.822419 
L 359.795868 95.822419 
L 362.183885 90.832819 
L 362.97989 90.832819 
L 363.775896 92.496019 
L 366.163913 92.496019 
L 367.755925 95.822419 
L 368.55193 94.159219 
L 369.347936 94.159219 
L 370.143942 92.496019 
L 370.939947 94.159219 
L 371.735953 94.159219 
L 372.531959 95.822419 
L 373.327965 94.159219 
L 374.12397 95.822419 
L 375.715982 92.496019 
L 376.511987 92.496019 
L 377.307993 94.159219 
L 378.900004 94.159219 
L 380.492016 90.832819 
L 382.084027 94.159219 
L 383.676039 90.832819 
L 384.472044 90.832819 
L 385.26805 89.169619 
L 387.656067 89.169619 
L 388.452073 87.506419 
L 389.248079 89.169619 
L 390.044084 89.169619 
L 390.84009 87.506419 
L 391.636096 89.169619 
L 393.228107 89.169619 
L 395.616124 84.180019 
L 397.208136 87.506419 
L 398.004141 87.506419 
L 398.800147 89.169619 
L 400.392159 89.169619 
L 401.188164 90.832819 
L 401.98417 90.832819 
L 402.780176 92.496019 
L 403.576181 92.496019 
L 404.372187 94.159219 
L 405.964198 90.832819 
L 407.55621 94.159219 
L 409.148221 94.159219 
L 409.944227 92.496019 
L 410.740233 94.159219 
L 411.536238 94.159219 
L 412.332244 95.822419 
L 413.12825 95.822419 
L 413.924256 97.485619 
L 414.720261 95.822419 
L 415.516267 95.822419 
L 417.904284 90.832819 
L 420.292301 95.822419 
L 421.088307 94.159219 
L 421.884313 94.159219 
L 424.27233 89.169619 
L 425.864341 89.169619 
L 426.660347 87.506419 
L 427.456353 87.506419 
L 428.252358 85.843219 
L 430.640375 90.832819 
L 431.436381 90.832819 
L 432.232387 92.496019 
L 433.028392 90.832819 
L 434.620404 90.832819 
L 435.41641 89.169619 
L 437.008421 89.169619 
L 437.804427 90.832819 
L 439.396438 90.832819 
L 440.192444 89.169619 
L 440.98845 90.832819 
L 443.376467 85.843219 
L 444.172472 87.506419 
L 444.968478 85.843219 
L 446.560489 85.843219 
L 447.356495 87.506419 
L 449.744512 87.506419 
L 450.540518 89.169619 
L 451.336524 87.506419 
L 452.928535 87.506419 
L 453.724541 89.169619 
L 454.520547 87.506419 
L 456.112558 90.832819 
L 457.704569 90.832819 
L 458.500575 92.496019 
L 460.092586 89.169619 
L 463.276609 89.169619 
L 464.072615 90.832819 
L 464.868621 90.832819 
L 465.664626 92.496019 
L 466.460632 92.496019 
L 467.256638 94.159219 
L 468.848649 94.159219 
L 471.236666 99.148819 
L 472.032672 99.148819 
L 472.828678 100.812019 
L 473.624683 99.148819 
L 474.420689 100.812019 
L 476.808706 95.822419 
L 477.604712 97.485619 
L 478.400718 97.485619 
L 479.196723 95.822419 
L 482.380746 95.822419 
L 483.972758 92.496019 
L 484.768763 92.496019 
L 485.564769 90.832819 
L 487.15678 90.832819 
L 488.748792 87.506419 
L 489.544798 87.506419 
L 490.340803 89.169619 
L 491.136809 87.506419 
L 491.932815 87.506419 
L 492.72882 89.169619 
L 494.320832 89.169619 
L 495.912843 92.496019 
L 497.504855 92.496019 
L 498.30086 94.159219 
L 499.096866 94.159219 
L 499.892872 92.496019 
L 501.484883 92.496019 
L 502.280889 94.159219 
L 503.8729 90.832819 
L 504.668906 90.832819 
L 505.464912 89.169619 
L 506.260917 90.832819 
L 507.056923 90.832819 
L 507.852929 89.169619 
L 508.648935 90.832819 
L 509.44494 90.832819 
L 510.240946 92.496019 
L 511.832957 89.169619 
L 512.628963 90.832819 
L 513.424969 90.832819 
L 514.220975 89.169619 
L 515.01698 90.832819 
L 515.812986 89.169619 
L 516.608992 89.169619 
L 517.404997 90.832819 
L 518.997009 90.832819 
L 519.793014 89.169619 
L 520.58902 89.169619 
L 522.181032 92.496019 
L 522.977037 90.832819 
L 523.773043 90.832819 
L 524.569049 92.496019 
L 538.101146 92.496019 
L 538.897151 90.832819 
L 551.633243 90.832819 
L 552.429248 89.169619 
L 554.02126 89.169619 
L 554.817266 87.506419 
L 555.613271 87.506419 
L 556.409277 85.843219 
L 557.205283 85.843219 
L 558.001288 84.180019 
L 561.981317 84.180019 
L 562.777323 82.516819 
L 569.145368 55.905619 
L 571.533385 50.916019 
L 572.329391 47.589619 
L 573.921402 44.263219 
L 574.717408 40.936819 
L 575.513414 39.273619 
L 576.30942 39.273619 
L 577.105425 37.610419 
L 578.697437 37.610419 
L 581.085454 32.620819 
L 582.677465 32.620819 
L 584.269477 29.294419 
L 585.861488 29.294419 
L 587.453499 25.968019 
L 588.249505 25.968019 
L 589.045511 24.304819 
L 589.841517 24.304819 
L 591.433528 20.978419 
L 593.821545 20.978419 
L 594.617551 19.315219 
L 595.413557 19.315219 
L 596.209562 15.988819 
L 597.005568 15.988819 
L 597.801574 14.325619 
L 599.393585 14.325619 
L 600.985596 10.999219 
L 604.169619 10.999219 
L 604.169619 10.999219 
" clip-path="url(#p555815d8c8)" style="fill: none; stroke: #000000; stroke-width: 0.5; stroke-linecap: square"/>
   </g>
   <g id="matplotlib.axis_1">
    <g id="xtick_1">
     <g id="line2d_4">
      <defs>
       <path id="m6d2f30abd8" d="M 0 0 
L 0 3.5 
" style="stroke: #000000; stroke-width: 0.8"/>
      </defs>
      <g>
       <use xlink:href="#m6d2f30abd8" x="46.965625" y="177.319219" style="stroke: #000000; stroke-width: 0.8"/>
      </g>
     </g>
     <g id="text_1">
      <!-- 0 -->
      <g transform="translate(43.784375 191.917656) scale(0.1 -0.1)">
       <defs>
        <path id="DejaVuSans-30" d="M 2034 4250 
Q 1547 4250 1301 3770 
Q 1056 3291 1056 2328 
Q 1056 1369 1301 889 
Q 1547 409 2034 409 
Q 2525 409 2770 889 
Q 3016 1369 3016 2328 
Q 3016 3291 2770 3770 
Q 2525 4250 2034 4250 
z
M 2034 4750 
Q 2819 4750 3233 4129 
Q 3647 3509 3647 2328 
Q 3647 1150 3233 529 
Q 2819 -91 2034 -91 
Q 1250 -91 836 529 
Q 422 1150 422 2328 
Q 422 3509 836 4129 
Q 1250 4750 2034 4750 
z
" transform="scale(0.015625)"/>
       </defs>
       <use xlink:href="#DejaVuSans-30"/>
      </g>
     </g>
    </g>
    <g id="xtick_2">
     <g id="line2d_5">
      <g>
       <use xlink:href="#m6d2f30abd8" x="126.566196" y="177.319219" style="stroke: #000000; stroke-width: 0.8"/>
      </g>
     </g>
     <g id="text_2">
      <!-- 100 -->
      <g transform="translate(117.022446 191.917656) scale(0.1 -0.1)">
       <defs>
        <path id="DejaVuSans-31" d="M 794 531 
L 1825 531 
L 1825 4091 
L 703 3866 
L 703 4441 
L 1819 4666 
L 2450 4666 
L 2450 531 
L 3481 531 
L 3481 0 
L 794 0 
L 794 531 
z
" transform="scale(0.015625)"/>
       </defs>
       <use xlink:href="#DejaVuSans-31"/>
       <use xlink:href="#DejaVuSans-30" transform="translate(63.623047 0)"/>
       <use xlink:href="#DejaVuSans-30" transform="translate(127.246094 0)"/>
      </g>
     </g>
    </g>
    <g id="xtick_3">
     <g id="line2d_6">
      <g>
       <use xlink:href="#m6d2f30abd8" x="206.166766" y="177.319219" style="stroke: #000000; stroke-width: 0.8"/>
      </g>
     </g>
     <g id="text_3">
      <!-- 200 -->
      <g transform="translate(196.623016 191.917656) scale(0.1 -0.1)">
       <defs>
        <path id="DejaVuSans-32" d="M 1228 531 
L 3431 531 
L 3431 0 
L 469 0 
L 469 531 
Q 828 903 1448 1529 
Q 2069 2156 2228 2338 
Q 2531 2678 2651 2914 
Q 2772 3150 2772 3378 
Q 2772 3750 2511 3984 
Q 2250 4219 1831 4219 
Q 1534 4219 1204 4116 
Q 875 4013 500 3803 
L 500 4441 
Q 881 4594 1212 4672 
Q 1544 4750 1819 4750 
Q 2544 4750 2975 4387 
Q 3406 4025 3406 3419 
Q 3406 3131 3298 2873 
Q 3191 2616 2906 2266 
Q 2828 2175 2409 1742 
Q 1991 1309 1228 531 
z
" transform="scale(0.015625)"/>
       </defs>
       <use xlink:href="#DejaVuSans-32"/>
       <use xlink:href="#DejaVuSans-30" transform="translate(63.623047 0)"/>
       <use xlink:href="#DejaVuSans-30" transform="translate(127.246094 0)"/>
      </g>
     </g>
    </g>
    <g id="xtick_4">
     <g id="line2d_7">
      <g>
       <use xlink:href="#m6d2f30abd8" x="285.767337" y="177.319219" style="stroke: #000000; stroke-width: 0.8"/>
      </g>
     </g>
     <g id="text_4">
      <!-- 300 -->
      <g transform="translate(276.223587 191.917656) scale(0.1 -0.1)">
       <defs>
        <path id="DejaVuSans-33" d="M 2597 2516 
Q 3050 2419 3304 2112 
Q 3559 1806 3559 1356 
Q 3559 666 3084 287 
Q 2609 -91 1734 -91 
Q 1441 -91 1130 -33 
Q 819 25 488 141 
L 488 750 
Q 750 597 1062 519 
Q 1375 441 1716 441 
Q 2309 441 2620 675 
Q 2931 909 2931 1356 
Q 2931 1769 2642 2001 
Q 2353 2234 1838 2234 
L 1294 2234 
L 1294 2753 
L 1863 2753 
Q 2328 2753 2575 2939 
Q 2822 3125 2822 3475 
Q 2822 3834 2567 4026 
Q 2313 4219 1838 4219 
Q 1578 4219 1281 4162 
Q 984 4106 628 3988 
L 628 4550 
Q 988 4650 1302 4700 
Q 1616 4750 1894 4750 
Q 2613 4750 3031 4423 
Q 3450 4097 3450 3541 
Q 3450 3153 3228 2886 
Q 3006 2619 2597 2516 
z
" transform="scale(0.015625)"/>
       </defs>
       <use xlink:href="#DejaVuSans-33"/>
       <use xlink:href="#DejaVuSans-30" transform="translate(63.623047 0)"/>
       <use xlink:href="#DejaVuSans-30" transform="translate(127.246094 0)"/>
      </g>
     </g>
    </g>
    <g id="xtick_5">
     <g id="line2d_8">
      <g>
       <use xlink:href="#m6d2f30abd8" x="365.367907" y="177.319219" style="stroke: #000000; stroke-width: 0.8"/>
      </g>
     </g>
     <g id="text_5">
      <!-- 400 -->
      <g transform="translate(355.824157 191.917656) scale(0.1 -0.1)">
       <defs>
        <path id="DejaVuSans-34" d="M 2419 4116 
L 825 1625 
L 2419 1625 
L 2419 4116 
z
M 2253 4666 
L 3047 4666 
L 3047 1625 
L 3713 1625 
L 3713 1100 
L 3047 1100 
L 3047 0 
L 2419 0 
L 2419 1100 
L 313 1100 
L 313 1709 
L 2253 4666 
z
" transform="scale(0.015625)"/>
       </defs>
       <use xlink:href="#DejaVuSans-34"/>
       <use xlink:href="#DejaVuSans-30" transform="translate(63.623047 0)"/>
       <use xlink:href="#DejaVuSans-30" transform="translate(127.246094 0)"/>
      </g>
     </g>
    </g>
    <g id="xtick_6">
     <g id="line2d_9">
      <g>
       <use xlink:href="#m6d2f30abd8" x="444.968478" y="177.319219" style="stroke: #000000; stroke-width: 0.8"/>
      </g>
     </g>
     <g id="text_6">
      <!-- 500 -->
      <g transform="translate(435.424728 191.917656) scale(0.1 -0.1)">
       <defs>
        <path id="DejaVuSans-35" d="M 691 4666 
L 3169 4666 
L 3169 4134 
L 1269 4134 
L 1269 2991 
Q 1406 3038 1543 3061 
Q 1681 3084 1819 3084 
Q 2600 3084 3056 2656 
Q 3513 2228 3513 1497 
Q 3513 744 3044 326 
Q 2575 -91 1722 -91 
Q 1428 -91 1123 -41 
Q 819 9 494 109 
L 494 744 
Q 775 591 1075 516 
Q 1375 441 1709 441 
Q 2250 441 2565 725 
Q 2881 1009 2881 1497 
Q 2881 1984 2565 2268 
Q 2250 2553 1709 2553 
Q 1456 2553 1204 2497 
Q 953 2441 691 2322 
L 691 4666 
z
" transform="scale(0.015625)"/>
       </defs>
       <use xlink:href="#DejaVuSans-35"/>
       <use xlink:href="#DejaVuSans-30" transform="translate(63.623047 0)"/>
       <use xlink:href="#DejaVuSans-30" transform="translate(127.246094 0)"/>
      </g>
     </g>
    </g>
    <g id="xtick_7">
     <g id="line2d_10">
      <g>
       <use xlink:href="#m6d2f30abd8" x="524.569049" y="177.319219" style="stroke: #000000; stroke-width: 0.8"/>
      </g>
     </g>
     <g id="text_7">
      <!-- 600 -->
      <g transform="translate(515.025299 191.917656) scale(0.1 -0.1)">
       <defs>
        <path id="DejaVuSans-36" d="M 2113 2584 
Q 1688 2584 1439 2293 
Q 1191 2003 1191 1497 
Q 1191 994 1439 701 
Q 1688 409 2113 409 
Q 2538 409 2786 701 
Q 3034 994 3034 1497 
Q 3034 2003 2786 2293 
Q 2538 2584 2113 2584 
z
M 3366 4563 
L 3366 3988 
Q 3128 4100 2886 4159 
Q 2644 4219 2406 4219 
Q 1781 4219 1451 3797 
Q 1122 3375 1075 2522 
Q 1259 2794 1537 2939 
Q 1816 3084 2150 3084 
Q 2853 3084 3261 2657 
Q 3669 2231 3669 1497 
Q 3669 778 3244 343 
Q 2819 -91 2113 -91 
Q 1303 -91 875 529 
Q 447 1150 447 2328 
Q 447 3434 972 4092 
Q 1497 4750 2381 4750 
Q 2619 4750 2861 4703 
Q 3103 4656 3366 4563 
z
" transform="scale(0.015625)"/>
       </defs>
       <use xlink:href="#DejaVuSans-36"/>
       <use xlink:href="#DejaVuSans-30" transform="translate(63.623047 0)"/>
       <use xlink:href="#DejaVuSans-30" transform="translate(127.246094 0)"/>
      </g>
     </g>
    </g>
    <g id="xtick_8">
     <g id="line2d_11">
      <g>
       <use xlink:href="#m6d2f30abd8" x="604.169619" y="177.319219" style="stroke: #000000; stroke-width: 0.8"/>
      </g>
     </g>
     <g id="text_8">
      <!-- 700 -->
      <g transform="translate(594.625869 191.917656) scale(0.1 -0.1)">
       <defs>
        <path id="DejaVuSans-37" d="M 525 4666 
L 3525 4666 
L 3525 4397 
L 1831 0 
L 1172 0 
L 2766 4134 
L 525 4134 
L 525 4666 
z
" transform="scale(0.015625)"/>
       </defs>
       <use xlink:href="#DejaVuSans-37"/>
       <use xlink:href="#DejaVuSans-30" transform="translate(63.623047 0)"/>
       <use xlink:href="#DejaVuSans-30" transform="translate(127.246094 0)"/>
      </g>
     </g>
    </g>
    <g id="text_9">
     <!-- Position -->
     <g transform="translate(306.501562 205.595781) scale(0.1 -0.1)">
      <defs>
       <path id="DejaVuSans-50" d="M 1259 4147 
L 1259 2394 
L 2053 2394 
Q 2494 2394 2734 2622 
Q 2975 2850 2975 3272 
Q 2975 3691 2734 3919 
Q 2494 4147 2053 4147 
L 1259 4147 
z
M 628 4666 
L 2053 4666 
Q 2838 4666 3239 4311 
Q 3641 3956 3641 3272 
Q 3641 2581 3239 2228 
Q 2838 1875 2053 1875 
L 1259 1875 
L 1259 0 
L 628 0 
L 628 4666 
z
" transform="scale(0.015625)"/>
       <path id="DejaVuSans-6f" d="M 1959 3097 
Q 1497 3097 1228 2736 
Q 959 2375 959 1747 
Q 959 1119 1226 758 
Q 1494 397 1959 397 
Q 2419 397 2687 759 
Q 2956 1122 2956 1747 
Q 2956 2369 2687 2733 
Q 2419 3097 1959 3097 
z
M 1959 3584 
Q 2709 3584 3137 3096 
Q 3566 2609 3566 1747 
Q 3566 888 3137 398 
Q 2709 -91 1959 -91 
Q 1206 -91 779 398 
Q 353 888 353 1747 
Q 353 2609 779 3096 
Q 1206 3584 1959 3584 
z
" transform="scale(0.015625)"/>
       <path id="DejaVuSans-73" d="M 2834 3397 
L 2834 2853 
Q 2591 2978 2328 3040 
Q 2066 3103 1784 3103 
Q 1356 3103 1142 2972 
Q 928 2841 928 2578 
Q 928 2378 1081 2264 
Q 1234 2150 1697 2047 
L 1894 2003 
Q 2506 1872 2764 1633 
Q 3022 1394 3022 966 
Q 3022 478 2636 193 
Q 2250 -91 1575 -91 
Q 1294 -91 989 -36 
Q 684 19 347 128 
L 347 722 
Q 666 556 975 473 
Q 1284 391 1588 391 
Q 1994 391 2212 530 
Q 2431 669 2431 922 
Q 2431 1156 2273 1281 
Q 2116 1406 1581 1522 
L 1381 1569 
Q 847 1681 609 1914 
Q 372 2147 372 2553 
Q 372 3047 722 3315 
Q 1072 3584 1716 3584 
Q 2034 3584 2315 3537 
Q 2597 3491 2834 3397 
z
" transform="scale(0.015625)"/>
       <path id="DejaVuSans-69" d="M 603 3500 
L 1178 3500 
L 1178 0 
L 603 0 
L 603 3500 
z
M 603 4863 
L 1178 4863 
L 1178 4134 
L 603 4134 
L 603 4863 
z
" transform="scale(0.015625)"/>
       <path id="DejaVuSans-74" d="M 1172 4494 
L 1172 3500 
L 2356 3500 
L 2356 3053 
L 1172 3053 
L 1172 1153 
Q 1172 725 1289 603 
Q 1406 481 1766 481 
L 2356 481 
L 2356 0 
L 1766 0 
Q 1100 0 847 248 
Q 594 497 594 1153 
L 594 3053 
L 172 3053 
L 172 3500 
L 594 3500 
L 594 4494 
L 1172 4494 
z
" transform="scale(0.015625)"/>
       <path id="DejaVuSans-6e" d="M 3513 2113 
L 3513 0 
L 2938 0 
L 2938 2094 
Q 2938 2591 2744 2837 
Q 2550 3084 2163 3084 
Q 1697 3084 1428 2787 
Q 1159 2491 1159 1978 
L 1159 0 
L 581 0 
L 581 3500 
L 1159 3500 
L 1159 2956 
Q 1366 3272 1645 3428 
Q 1925 3584 2291 3584 
Q 2894 3584 3203 3211 
Q 3513 2838 3513 2113 
z
" transform="scale(0.015625)"/>
      </defs>
      <use xlink:href="#DejaVuSans-50"/>
      <use xlink:href="#DejaVuSans-6f" transform="translate(56.677734 0)"/>
      <use xlink:href="#DejaVuSans-73" transform="translate(117.859375 0)"/>
      <use xlink:href="#DejaVuSans-69" transform="translate(169.958984 0)"/>
      <use xlink:href="#DejaVuSans-74" transform="translate(197.742188 0)"/>
      <use xlink:href="#DejaVuSans-69" transform="translate(236.951172 0)"/>
      <use xlink:href="#DejaVuSans-6f" transform="translate(264.734375 0)"/>
      <use xlink:href="#DejaVuSans-6e" transform="translate(325.916016 0)"/>
     </g>
    </g>
   </g>
   <g id="matplotlib.axis_2">
    <g id="ytick_1">
     <g id="line2d_12">
      <defs>
       <path id="me9868e48fb" d="M 0 0 
L -3.5 0 
" style="stroke: #000000; stroke-width: 0.8"/>
      </defs>
      <g>
       <use xlink:href="#me9868e48fb" x="46.965625" y="177.319219" style="stroke: #000000; stroke-width: 0.8"/>
      </g>
     </g>
     <g id="text_10">
      <!-- 0 -->
      <g transform="translate(33.603125 181.118438) scale(0.1 -0.1)">
       <use xlink:href="#DejaVuSans-30"/>
      </g>
     </g>
    </g>
    <g id="ytick_2">
     <g id="line2d_13">
      <g>
       <use xlink:href="#me9868e48fb" x="46.965625" y="144.055219" style="stroke: #000000; stroke-width: 0.8"/>
      </g>
     </g>
     <g id="text_11">
      <!-- 20 -->
      <g transform="translate(27.240625 147.854438) scale(0.1 -0.1)">
       <use xlink:href="#DejaVuSans-32"/>
       <use xlink:href="#DejaVuSans-30" transform="translate(63.623047 0)"/>
      </g>
     </g>
    </g>
    <g id="ytick_3">
     <g id="line2d_14">
      <g>
       <use xlink:href="#me9868e48fb" x="46.965625" y="110.791219" style="stroke: #000000; stroke-width: 0.8"/>
      </g>
     </g>
     <g id="text_12">
      <!-- 40 -->
      <g transform="translate(27.240625 114.590438) scale(0.1 -0.1)">
       <use xlink:href="#DejaVuSans-34"/>
       <use xlink:href="#DejaVuSans-30" transform="translate(63.623047 0)"/>
      </g>
     </g>
    </g>
    <g id="ytick_4">
     <g id="line2d_15">
      <g>
       <use xlink:href="#me9868e48fb" x="46.965625" y="77.527219" style="stroke: #000000; stroke-width: 0.8"/>
      </g>
     </g>
     <g id="text_13">
      <!-- 60 -->
      <g transform="translate(27.240625 81.326438) scale(0.1 -0.1)">
       <use xlink:href="#DejaVuSans-36"/>
       <use xlink:href="#DejaVuSans-30" transform="translate(63.623047 0)"/>
      </g>
     </g>
    </g>
    <g id="ytick_5">
     <g id="line2d_16">
      <g>
       <use xlink:href="#me9868e48fb" x="46.965625" y="44.263219" style="stroke: #000000; stroke-width: 0.8"/>
      </g>
     </g>
     <g id="text_14">
      <!-- 80 -->
      <g transform="translate(27.240625 48.062438) scale(0.1 -0.1)">
       <defs>
        <path id="DejaVuSans-38" d="M 2034 2216 
Q 1584 2216 1326 1975 
Q 1069 1734 1069 1313 
Q 1069 891 1326 650 
Q 1584 409 2034 409 
Q 2484 409 2743 651 
Q 3003 894 3003 1313 
Q 3003 1734 2745 1975 
Q 2488 2216 2034 2216 
z
M 1403 2484 
Q 997 2584 770 2862 
Q 544 3141 544 3541 
Q 544 4100 942 4425 
Q 1341 4750 2034 4750 
Q 2731 4750 3128 4425 
Q 3525 4100 3525 3541 
Q 3525 3141 3298 2862 
Q 3072 2584 2669 2484 
Q 3125 2378 3379 2068 
Q 3634 1759 3634 1313 
Q 3634 634 3220 271 
Q 2806 -91 2034 -91 
Q 1263 -91 848 271 
Q 434 634 434 1313 
Q 434 1759 690 2068 
Q 947 2378 1403 2484 
z
M 1172 3481 
Q 1172 3119 1398 2916 
Q 1625 2713 2034 2713 
Q 2441 2713 2670 2916 
Q 2900 3119 2900 3481 
Q 2900 3844 2670 4047 
Q 2441 4250 2034 4250 
Q 1625 4250 1398 4047 
Q 1172 3844 1172 3481 
z
" transform="scale(0.015625)"/>
       </defs>
       <use xlink:href="#DejaVuSans-38"/>
       <use xlink:href="#DejaVuSans-30" transform="translate(63.623047 0)"/>
      </g>
     </g>
    </g>
    <g id="ytick_6">
     <g id="line2d_17">
      <g>
       <use xlink:href="#me9868e48fb" x="46.965625" y="10.999219" style="stroke: #000000; stroke-width: 0.8"/>
      </g>
     </g>
     <g id="text_15">
      <!-- 100 -->
      <g transform="translate(20.878125 14.798438) scale(0.1 -0.1)">
       <use xlink:href="#DejaVuSans-31"/>
       <use xlink:href="#DejaVuSans-30" transform="translate(63.623047 0)"/>
       <use xlink:href="#DejaVuSans-30" transform="translate(127.246094 0)"/>
      </g>
     </g>
    </g>
    <g id="text_16">
     <!-- Cost -->
     <g transform="translate(14.798438 105.274844) rotate(-90) scale(0.1 -0.1)">
      <defs>
       <path id="DejaVuSans-43" d="M 4122 4306 
L 4122 3641 
Q 3803 3938 3442 4084 
Q 3081 4231 2675 4231 
Q 1875 4231 1450 3742 
Q 1025 3253 1025 2328 
Q 1025 1406 1450 917 
Q 1875 428 2675 428 
Q 3081 428 3442 575 
Q 3803 722 4122 1019 
L 4122 359 
Q 3791 134 3420 21 
Q 3050 -91 2638 -91 
Q 1578 -91 968 557 
Q 359 1206 359 2328 
Q 359 3453 968 4101 
Q 1578 4750 2638 4750 
Q 3056 4750 3426 4639 
Q 3797 4528 4122 4306 
z
" transform="scale(0.015625)"/>
      </defs>
      <use xlink:href="#DejaVuSans-43"/>
      <use xlink:href="#DejaVuSans-6f" transform="translate(69.824219 0)"/>
      <use xlink:href="#DejaVuSans-73" transform="translate(131.005859 0)"/>
      <use xlink:href="#DejaVuSans-74" transform="translate(183.105469 0)"/>
     </g>
    </g>
   </g>
   <g id="line2d_18">
    <path d="M 126.566196 177.319219 
L 126.566196 10.999219 
" clip-path="url(#p555815d8c8)" style="fill: none; stroke: #000000; stroke-width: 0.5; stroke-linecap: square"/>
   </g>
   <g id="line2d_19">
    <path d="M 525.365054 177.319219 
L 525.365054 10.999219 
" clip-path="url(#p555815d8c8)" style="fill: none; stroke: #000000; stroke-width: 0.5; stroke-linecap: square"/>
   </g>
   <g id="patch_3">
    <path d="M 46.965625 177.319219 
L 46.965625 10.999219 
" style="fill: none; stroke: #000000; stroke-width: 0.8; stroke-linejoin: miter; stroke-linecap: square"/>
   </g>
   <g id="patch_4">
    <path d="M 604.965625 177.319219 
L 604.965625 10.999219 
" style="fill: none; stroke: #000000; stroke-width: 0.8; stroke-linejoin: miter; stroke-linecap: square"/>
   </g>
   <g id="patch_5">
    <path d="M 46.965625 177.319219 
L 604.965625 177.319219 
" style="fill: none; stroke: #000000; stroke-width: 0.8; stroke-linejoin: miter; stroke-linecap: square"/>
   </g>
   <g id="patch_6">
    <path d="M 46.965625 10.999219 
L 604.965625 10.999219 
" style="fill: none; stroke: #000000; stroke-width: 0.8; stroke-linejoin: miter; stroke-linecap: square"/>
   </g>
   <g id="legend_1">
    <g id="patch_7">
     <path d="M 243.410937 63.033594 
L 408.520312 63.033594 
Q 410.520312 63.033594 410.520312 61.033594 
L 410.520312 17.999219 
Q 410.520312 15.999219 408.520312 15.999219 
L 243.410937 15.999219 
Q 241.410937 15.999219 241.410937 17.999219 
L 241.410937 61.033594 
Q 241.410937 63.033594 243.410937 63.033594 
z
" style="fill: #ffffff; opacity: 0.8; stroke: #cccccc; stroke-linejoin: miter"/>
    </g>
    <g id="line2d_20">
     <path d="M 245.410937 24.097656 
L 255.410937 24.097656 
L 265.410937 24.097656 
" style="fill: none; stroke: #000000; stroke-width: 0.5; stroke-linecap: square"/>
    </g>
    <g id="text_17">
     <!-- skip-cost=1.0, semi-global -->
     <g transform="translate(273.410937 27.597656) scale(0.1 -0.1)">
      <defs>
       <path id="DejaVuSans-6b" d="M 581 4863 
L 1159 4863 
L 1159 1991 
L 2875 3500 
L 3609 3500 
L 1753 1863 
L 3688 0 
L 2938 0 
L 1159 1709 
L 1159 0 
L 581 0 
L 581 4863 
z
" transform="scale(0.015625)"/>
       <path id="DejaVuSans-70" d="M 1159 525 
L 1159 -1331 
L 581 -1331 
L 581 3500 
L 1159 3500 
L 1159 2969 
Q 1341 3281 1617 3432 
Q 1894 3584 2278 3584 
Q 2916 3584 3314 3078 
Q 3713 2572 3713 1747 
Q 3713 922 3314 415 
Q 2916 -91 2278 -91 
Q 1894 -91 1617 61 
Q 1341 213 1159 525 
z
M 3116 1747 
Q 3116 2381 2855 2742 
Q 2594 3103 2138 3103 
Q 1681 3103 1420 2742 
Q 1159 2381 1159 1747 
Q 1159 1113 1420 752 
Q 1681 391 2138 391 
Q 2594 391 2855 752 
Q 3116 1113 3116 1747 
z
" transform="scale(0.015625)"/>
       <path id="DejaVuSans-2d" d="M 313 2009 
L 1997 2009 
L 1997 1497 
L 313 1497 
L 313 2009 
z
" transform="scale(0.015625)"/>
       <path id="DejaVuSans-63" d="M 3122 3366 
L 3122 2828 
Q 2878 2963 2633 3030 
Q 2388 3097 2138 3097 
Q 1578 3097 1268 2742 
Q 959 2388 959 1747 
Q 959 1106 1268 751 
Q 1578 397 2138 397 
Q 2388 397 2633 464 
Q 2878 531 3122 666 
L 3122 134 
Q 2881 22 2623 -34 
Q 2366 -91 2075 -91 
Q 1284 -91 818 406 
Q 353 903 353 1747 
Q 353 2603 823 3093 
Q 1294 3584 2113 3584 
Q 2378 3584 2631 3529 
Q 2884 3475 3122 3366 
z
" transform="scale(0.015625)"/>
       <path id="DejaVuSans-3d" d="M 678 2906 
L 4684 2906 
L 4684 2381 
L 678 2381 
L 678 2906 
z
M 678 1631 
L 4684 1631 
L 4684 1100 
L 678 1100 
L 678 1631 
z
" transform="scale(0.015625)"/>
       <path id="DejaVuSans-2e" d="M 684 794 
L 1344 794 
L 1344 0 
L 684 0 
L 684 794 
z
" transform="scale(0.015625)"/>
       <path id="DejaVuSans-2c" d="M 750 794 
L 1409 794 
L 1409 256 
L 897 -744 
L 494 -744 
L 750 256 
L 750 794 
z
" transform="scale(0.015625)"/>
       <path id="DejaVuSans-20" transform="scale(0.015625)"/>
       <path id="DejaVuSans-65" d="M 3597 1894 
L 3597 1613 
L 953 1613 
Q 991 1019 1311 708 
Q 1631 397 2203 397 
Q 2534 397 2845 478 
Q 3156 559 3463 722 
L 3463 178 
Q 3153 47 2828 -22 
Q 2503 -91 2169 -91 
Q 1331 -91 842 396 
Q 353 884 353 1716 
Q 353 2575 817 3079 
Q 1281 3584 2069 3584 
Q 2775 3584 3186 3129 
Q 3597 2675 3597 1894 
z
M 3022 2063 
Q 3016 2534 2758 2815 
Q 2500 3097 2075 3097 
Q 1594 3097 1305 2825 
Q 1016 2553 972 2059 
L 3022 2063 
z
" transform="scale(0.015625)"/>
       <path id="DejaVuSans-6d" d="M 3328 2828 
Q 3544 3216 3844 3400 
Q 4144 3584 4550 3584 
Q 5097 3584 5394 3201 
Q 5691 2819 5691 2113 
L 5691 0 
L 5113 0 
L 5113 2094 
Q 5113 2597 4934 2840 
Q 4756 3084 4391 3084 
Q 3944 3084 3684 2787 
Q 3425 2491 3425 1978 
L 3425 0 
L 2847 0 
L 2847 2094 
Q 2847 2600 2669 2842 
Q 2491 3084 2119 3084 
Q 1678 3084 1418 2786 
Q 1159 2488 1159 1978 
L 1159 0 
L 581 0 
L 581 3500 
L 1159 3500 
L 1159 2956 
Q 1356 3278 1631 3431 
Q 1906 3584 2284 3584 
Q 2666 3584 2933 3390 
Q 3200 3197 3328 2828 
z
" transform="scale(0.015625)"/>
       <path id="DejaVuSans-67" d="M 2906 1791 
Q 2906 2416 2648 2759 
Q 2391 3103 1925 3103 
Q 1463 3103 1205 2759 
Q 947 2416 947 1791 
Q 947 1169 1205 825 
Q 1463 481 1925 481 
Q 2391 481 2648 825 
Q 2906 1169 2906 1791 
z
M 3481 434 
Q 3481 -459 3084 -895 
Q 2688 -1331 1869 -1331 
Q 1566 -1331 1297 -1286 
Q 1028 -1241 775 -1147 
L 775 -588 
Q 1028 -725 1275 -790 
Q 1522 -856 1778 -856 
Q 2344 -856 2625 -561 
Q 2906 -266 2906 331 
L 2906 616 
Q 2728 306 2450 153 
Q 2172 0 1784 0 
Q 1141 0 747 490 
Q 353 981 353 1791 
Q 353 2603 747 3093 
Q 1141 3584 1784 3584 
Q 2172 3584 2450 3431 
Q 2728 3278 2906 2969 
L 2906 3500 
L 3481 3500 
L 3481 434 
z
" transform="scale(0.015625)"/>
       <path id="DejaVuSans-6c" d="M 603 4863 
L 1178 4863 
L 1178 0 
L 603 0 
L 603 4863 
z
" transform="scale(0.015625)"/>
       <path id="DejaVuSans-62" d="M 3116 1747 
Q 3116 2381 2855 2742 
Q 2594 3103 2138 3103 
Q 1681 3103 1420 2742 
Q 1159 2381 1159 1747 
Q 1159 1113 1420 752 
Q 1681 391 2138 391 
Q 2594 391 2855 752 
Q 3116 1113 3116 1747 
z
M 1159 2969 
Q 1341 3281 1617 3432 
Q 1894 3584 2278 3584 
Q 2916 3584 3314 3078 
Q 3713 2572 3713 1747 
Q 3713 922 3314 415 
Q 2916 -91 2278 -91 
Q 1894 -91 1617 61 
Q 1341 213 1159 525 
L 1159 0 
L 581 0 
L 581 4863 
L 1159 4863 
L 1159 2969 
z
" transform="scale(0.015625)"/>
       <path id="DejaVuSans-61" d="M 2194 1759 
Q 1497 1759 1228 1600 
Q 959 1441 959 1056 
Q 959 750 1161 570 
Q 1363 391 1709 391 
Q 2188 391 2477 730 
Q 2766 1069 2766 1631 
L 2766 1759 
L 2194 1759 
z
M 3341 1997 
L 3341 0 
L 2766 0 
L 2766 531 
Q 2569 213 2275 61 
Q 1981 -91 1556 -91 
Q 1019 -91 701 211 
Q 384 513 384 1019 
Q 384 1609 779 1909 
Q 1175 2209 1959 2209 
L 2766 2209 
L 2766 2266 
Q 2766 2663 2505 2880 
Q 2244 3097 1772 3097 
Q 1472 3097 1187 3025 
Q 903 2953 641 2809 
L 641 3341 
Q 956 3463 1253 3523 
Q 1550 3584 1831 3584 
Q 2591 3584 2966 3190 
Q 3341 2797 3341 1997 
z
" transform="scale(0.015625)"/>
      </defs>
      <use xlink:href="#DejaVuSans-73"/>
      <use xlink:href="#DejaVuSans-6b" transform="translate(52.099609 0)"/>
      <use xlink:href="#DejaVuSans-69" transform="translate(110.009766 0)"/>
      <use xlink:href="#DejaVuSans-70" transform="translate(137.792969 0)"/>
      <use xlink:href="#DejaVuSans-2d" transform="translate(201.269531 0)"/>
      <use xlink:href="#DejaVuSans-63" transform="translate(237.353516 0)"/>
      <use xlink:href="#DejaVuSans-6f" transform="translate(292.333984 0)"/>
      <use xlink:href="#DejaVuSans-73" transform="translate(353.515625 0)"/>
      <use xlink:href="#DejaVuSans-74" transform="translate(405.615234 0)"/>
      <use xlink:href="#DejaVuSans-3d" transform="translate(444.824219 0)"/>
      <use xlink:href="#DejaVuSans-31" transform="translate(528.613281 0)"/>
      <use xlink:href="#DejaVuSans-2e" transform="translate(592.236328 0)"/>
      <use xlink:href="#DejaVuSans-30" transform="translate(624.023438 0)"/>
      <use xlink:href="#DejaVuSans-2c" transform="translate(687.646484 0)"/>
      <use xlink:href="#DejaVuSans-20" transform="translate(719.433594 0)"/>
      <use xlink:href="#DejaVuSans-73" transform="translate(751.220703 0)"/>
      <use xlink:href="#DejaVuSans-65" transform="translate(803.320312 0)"/>
      <use xlink:href="#DejaVuSans-6d" transform="translate(864.84375 0)"/>
      <use xlink:href="#DejaVuSans-69" transform="translate(962.255859 0)"/>
      <use xlink:href="#DejaVuSans-2d" transform="translate(990.039062 0)"/>
      <use xlink:href="#DejaVuSans-67" transform="translate(1026.123047 0)"/>
      <use xlink:href="#DejaVuSans-6c" transform="translate(1089.599609 0)"/>
      <use xlink:href="#DejaVuSans-6f" transform="translate(1117.382812 0)"/>
      <use xlink:href="#DejaVuSans-62" transform="translate(1178.564453 0)"/>
      <use xlink:href="#DejaVuSans-61" transform="translate(1242.041016 0)"/>
      <use xlink:href="#DejaVuSans-6c" transform="translate(1303.320312 0)"/>
     </g>
    </g>
    <g id="line2d_21">
     <path d="M 245.410937 38.775781 
L 255.410937 38.775781 
L 265.410937 38.775781 
" style="fill: none; stroke: #ffc107; stroke-width: 2; stroke-linecap: square"/>
    </g>
    <g id="text_18">
     <!-- skip-cost=0.5, skip-cost -->
     <g transform="translate(273.410937 42.275781) scale(0.1 -0.1)">
      <use xlink:href="#DejaVuSans-73"/>
      <use xlink:href="#DejaVuSans-6b" transform="translate(52.099609 0)"/>
      <use xlink:href="#DejaVuSans-69" transform="translate(110.009766 0)"/>
      <use xlink:href="#DejaVuSans-70" transform="translate(137.792969 0)"/>
      <use xlink:href="#DejaVuSans-2d" transform="translate(201.269531 0)"/>
      <use xlink:href="#DejaVuSans-63" transform="translate(237.353516 0)"/>
      <use xlink:href="#DejaVuSans-6f" transform="translate(292.333984 0)"/>
      <use xlink:href="#DejaVuSans-73" transform="translate(353.515625 0)"/>
      <use xlink:href="#DejaVuSans-74" transform="translate(405.615234 0)"/>
      <use xlink:href="#DejaVuSans-3d" transform="translate(444.824219 0)"/>
      <use xlink:href="#DejaVuSans-30" transform="translate(528.613281 0)"/>
      <use xlink:href="#DejaVuSans-2e" transform="translate(592.236328 0)"/>
      <use xlink:href="#DejaVuSans-35" transform="translate(624.023438 0)"/>
      <use xlink:href="#DejaVuSans-2c" transform="translate(687.646484 0)"/>
      <use xlink:href="#DejaVuSans-20" transform="translate(719.433594 0)"/>
      <use xlink:href="#DejaVuSans-73" transform="translate(751.220703 0)"/>
      <use xlink:href="#DejaVuSans-6b" transform="translate(803.320312 0)"/>
      <use xlink:href="#DejaVuSans-69" transform="translate(861.230469 0)"/>
      <use xlink:href="#DejaVuSans-70" transform="translate(889.013672 0)"/>
      <use xlink:href="#DejaVuSans-2d" transform="translate(952.490234 0)"/>
      <use xlink:href="#DejaVuSans-63" transform="translate(988.574219 0)"/>
      <use xlink:href="#DejaVuSans-6f" transform="translate(1043.554688 0)"/>
      <use xlink:href="#DejaVuSans-73" transform="translate(1104.736328 0)"/>
      <use xlink:href="#DejaVuSans-74" transform="translate(1156.835938 0)"/>
     </g>
    </g>
    <g id="line2d_22">
     <path d="M 245.410937 53.453906 
L 255.410937 53.453906 
L 265.410937 53.453906 
" style="fill: none; stroke: #000000; stroke-width: 1.5; stroke-linecap: square"/>
    </g>
    <g id="text_19">
     <!-- skip-cost=0.0, overlap -->
     <g transform="translate(273.410937 56.953906) scale(0.1 -0.1)">
      <defs>
       <path id="DejaVuSans-76" d="M 191 3500 
L 800 3500 
L 1894 563 
L 2988 3500 
L 3597 3500 
L 2284 0 
L 1503 0 
L 191 3500 
z
" transform="scale(0.015625)"/>
       <path id="DejaVuSans-72" d="M 2631 2963 
Q 2534 3019 2420 3045 
Q 2306 3072 2169 3072 
Q 1681 3072 1420 2755 
Q 1159 2438 1159 1844 
L 1159 0 
L 581 0 
L 581 3500 
L 1159 3500 
L 1159 2956 
Q 1341 3275 1631 3429 
Q 1922 3584 2338 3584 
Q 2397 3584 2469 3576 
Q 2541 3569 2628 3553 
L 2631 2963 
z
" transform="scale(0.015625)"/>
      </defs>
      <use xlink:href="#DejaVuSans-73"/>
      <use xlink:href="#DejaVuSans-6b" transform="translate(52.099609 0)"/>
      <use xlink:href="#DejaVuSans-69" transform="translate(110.009766 0)"/>
      <use xlink:href="#DejaVuSans-70" transform="translate(137.792969 0)"/>
      <use xlink:href="#DejaVuSans-2d" transform="translate(201.269531 0)"/>
      <use xlink:href="#DejaVuSans-63" transform="translate(237.353516 0)"/>
      <use xlink:href="#DejaVuSans-6f" transform="translate(292.333984 0)"/>
      <use xlink:href="#DejaVuSans-73" transform="translate(353.515625 0)"/>
      <use xlink:href="#DejaVuSans-74" transform="translate(405.615234 0)"/>
      <use xlink:href="#DejaVuSans-3d" transform="translate(444.824219 0)"/>
      <use xlink:href="#DejaVuSans-30" transform="translate(528.613281 0)"/>
      <use xlink:href="#DejaVuSans-2e" transform="translate(592.236328 0)"/>
      <use xlink:href="#DejaVuSans-30" transform="translate(624.023438 0)"/>
      <use xlink:href="#DejaVuSans-2c" transform="translate(687.646484 0)"/>
      <use xlink:href="#DejaVuSans-20" transform="translate(719.433594 0)"/>
      <use xlink:href="#DejaVuSans-6f" transform="translate(751.220703 0)"/>
      <use xlink:href="#DejaVuSans-76" transform="translate(812.402344 0)"/>
      <use xlink:href="#DejaVuSans-65" transform="translate(871.582031 0)"/>
      <use xlink:href="#DejaVuSans-72" transform="translate(933.105469 0)"/>
      <use xlink:href="#DejaVuSans-6c" transform="translate(974.21875 0)"/>
      <use xlink:href="#DejaVuSans-61" transform="translate(1002.001953 0)"/>
      <use xlink:href="#DejaVuSans-70" transform="translate(1063.28125 0)"/>
     </g>
    </g>
   </g>
  </g>
 </g>
 <defs>
  <clipPath id="p555815d8c8">
   <rect x="46.965625" y="10.999219" width="558" height="166.32"/>
  </clipPath>
 </defs>
</svg>
