<?xml version="1.0" encoding="utf-8" standalone="no"?>
<!DOCTYPE svg PUBLIC "-//W3C//DTD SVG 1.1//EN"
  "http://www.w3.org/Graphics/SVG/1.1/DTD/svg11.dtd">
<svg xmlns:xlink="http://www.w3.org/1999/xlink" width="388.965625pt" height="281.634375pt" viewBox="0 0 388.965625 281.634375" xmlns="http://www.w3.org/2000/svg" version="1.1">
 <metadata>
  <rdf:RDF xmlns:dc="http://purl.org/dc/elements/1.1/" xmlns:cc="http://creativecommons.org/ns#" xmlns:rdf="http://www.w3.org/1999/02/22-rdf-syntax-ns#">
   <cc:Work>
    <dc:type rdf:resource="http://purl.org/dc/dcmitype/StillImage"/>
    <dc:date>2025-10-03T14:22:58.350594</dc:date>
    <dc:format>image/svg+xml</dc:format>
    <dc:creator>
     <cc:Agent>
      <dc:title>Matplotlib v3.10.6, https://matplotlib.org/</dc:title>
     </cc:Agent>
    </dc:creator>
   </cc:Work>
  </rdf:RDF>
 </metadata>
 <defs>
  <style type="text/css">*{stroke-linejoin: round; stroke-linecap: butt}</style>
 </defs>
 <g id="figure_1">
  <g id="patch_1">
   <path d="M 0 281.634375 
L 388.965625 281.634375 
L 388.965625 0 
L 0 0 
z
" style="fill: #ffffff"/>
  </g>
  <g id="axes_1">
   <g id="patch_2">
    <path d="M 46.965625 244.078125 
L 381.765625 244.078125 
L 381.765625 22.318125 
L 46.965625 22.318125 
z
" style="fill: #ffffff"/>
   </g>
   <g id="matplotlib.axis_1">
    <g id="xtick_1">
     <g id="line2d_1">
      <defs>
       <path id="m90e7a51df1" d="M 0 0 
L 0 3.5 
" style="stroke: #000000; stroke-width: 0.8"/>
      </defs>
      <g>
       <use xlink:href="#m90e7a51df1" x="89.249164" y="244.078125" style="stroke: #000000; stroke-width: 0.8"/>
      </g>
     </g>
     <g id="text_1">
      <!-- 16K -->
      <g transform="translate(79.607758 258.676562) scale(0.1 -0.1)">
       <defs>
        <path id="DejaVuSans-31" d="M 794 531 
L 1825 531 
L 1825 4091 
L 703 3866 
L 703 4441 
L 1819 4666 
L 2450 4666 
L 2450 531 
L 3481 531 
L 3481 0 
L 794 0 
L 794 531 
z
" transform="scale(0.015625)"/>
        <path id="DejaVuSans-36" d="M 2113 2584 
Q 1688 2584 1439 2293 
Q 1191 2003 1191 1497 
Q 1191 994 1439 701 
Q 1688 409 2113 409 
Q 2538 409 2786 701 
Q 3034 994 3034 1497 
Q 3034 2003 2786 2293 
Q 2538 2584 2113 2584 
z
M 3366 4563 
L 3366 3988 
Q 3128 4100 2886 4159 
Q 2644 4219 2406 4219 
Q 1781 4219 1451 3797 
Q 1122 3375 1075 2522 
Q 1259 2794 1537 2939 
Q 1816 3084 2150 3084 
Q 2853 3084 3261 2657 
Q 3669 2231 3669 1497 
Q 3669 778 3244 343 
Q 2819 -91 2113 -91 
Q 1303 -91 875 529 
Q 447 1150 447 2328 
Q 447 3434 972 4092 
Q 1497 4750 2381 4750 
Q 2619 4750 2861 4703 
Q 3103 4656 3366 4563 
z
" transform="scale(0.015625)"/>
        <path id="DejaVuSans-4b" d="M 628 4666 
L 1259 4666 
L 1259 2694 
L 3353 4666 
L 4166 4666 
L 1850 2491 
L 4331 0 
L 3500 0 
L 1259 2247 
L 1259 0 
L 628 0 
L 628 4666 
z
" transform="scale(0.015625)"/>
       </defs>
       <use xlink:href="#DejaVuSans-31"/>
       <use xlink:href="#DejaVuSans-36" transform="translate(63.623047 0)"/>
       <use xlink:href="#DejaVuSans-4b" transform="translate(127.246094 0)"/>
      </g>
     </g>
    </g>
    <g id="xtick_2">
     <g id="line2d_2">
      <g>
       <use xlink:href="#m90e7a51df1" x="120.522807" y="244.078125" style="stroke: #000000; stroke-width: 0.8"/>
      </g>
     </g>
     <g id="text_2">
      <!-- 64K -->
      <g transform="translate(110.881401 258.676562) scale(0.1 -0.1)">
       <defs>
        <path id="DejaVuSans-34" d="M 2419 4116 
L 825 1625 
L 2419 1625 
L 2419 4116 
z
M 2253 4666 
L 3047 4666 
L 3047 1625 
L 3713 1625 
L 3713 1100 
L 3047 1100 
L 3047 0 
L 2419 0 
L 2419 1100 
L 313 1100 
L 313 1709 
L 2253 4666 
z
" transform="scale(0.015625)"/>
       </defs>
       <use xlink:href="#DejaVuSans-36"/>
       <use xlink:href="#DejaVuSans-34" transform="translate(63.623047 0)"/>
       <use xlink:href="#DejaVuSans-4b" transform="translate(127.246094 0)"/>
      </g>
     </g>
    </g>
    <g id="xtick_3">
     <g id="line2d_3">
      <g>
       <use xlink:href="#m90e7a51df1" x="151.796451" y="244.078125" style="stroke: #000000; stroke-width: 0.8"/>
      </g>
     </g>
     <g id="text_3">
      <!-- 256K -->
      <g transform="translate(138.973794 258.676562) scale(0.1 -0.1)">
       <defs>
        <path id="DejaVuSans-32" d="M 1228 531 
L 3431 531 
L 3431 0 
L 469 0 
L 469 531 
Q 828 903 1448 1529 
Q 2069 2156 2228 2338 
Q 2531 2678 2651 2914 
Q 2772 3150 2772 3378 
Q 2772 3750 2511 3984 
Q 2250 4219 1831 4219 
Q 1534 4219 1204 4116 
Q 875 4013 500 3803 
L 500 4441 
Q 881 4594 1212 4672 
Q 1544 4750 1819 4750 
Q 2544 4750 2975 4387 
Q 3406 4025 3406 3419 
Q 3406 3131 3298 2873 
Q 3191 2616 2906 2266 
Q 2828 2175 2409 1742 
Q 1991 1309 1228 531 
z
" transform="scale(0.015625)"/>
        <path id="DejaVuSans-35" d="M 691 4666 
L 3169 4666 
L 3169 4134 
L 1269 4134 
L 1269 2991 
Q 1406 3038 1543 3061 
Q 1681 3084 1819 3084 
Q 2600 3084 3056 2656 
Q 3513 2228 3513 1497 
Q 3513 744 3044 326 
Q 2575 -91 1722 -91 
Q 1428 -91 1123 -41 
Q 819 9 494 109 
L 494 744 
Q 775 591 1075 516 
Q 1375 441 1709 441 
Q 2250 441 2565 725 
Q 2881 1009 2881 1497 
Q 2881 1984 2565 2268 
Q 2250 2553 1709 2553 
Q 1456 2553 1204 2497 
Q 953 2441 691 2322 
L 691 4666 
z
" transform="scale(0.015625)"/>
       </defs>
       <use xlink:href="#DejaVuSans-32"/>
       <use xlink:href="#DejaVuSans-35" transform="translate(63.623047 0)"/>
       <use xlink:href="#DejaVuSans-36" transform="translate(127.246094 0)"/>
       <use xlink:href="#DejaVuSans-4b" transform="translate(190.869141 0)"/>
      </g>
     </g>
    </g>
    <g id="xtick_4">
     <g id="line2d_4">
      <g>
       <use xlink:href="#m90e7a51df1" x="183.070094" y="244.078125" style="stroke: #000000; stroke-width: 0.8"/>
      </g>
     </g>
     <g id="text_4">
      <!-- 1M -->
      <g transform="translate(175.574781 258.676562) scale(0.1 -0.1)">
       <defs>
        <path id="DejaVuSans-4d" d="M 628 4666 
L 1569 4666 
L 2759 1491 
L 3956 4666 
L 4897 4666 
L 4897 0 
L 4281 0 
L 4281 4097 
L 3078 897 
L 2444 897 
L 1241 4097 
L 1241 0 
L 628 0 
L 628 4666 
z
" transform="scale(0.015625)"/>
       </defs>
       <use xlink:href="#DejaVuSans-31"/>
       <use xlink:href="#DejaVuSans-4d" transform="translate(63.623047 0)"/>
      </g>
     </g>
    </g>
    <g id="xtick_5">
     <g id="line2d_5">
      <g>
       <use xlink:href="#m90e7a51df1" x="214.343737" y="244.078125" style="stroke: #000000; stroke-width: 0.8"/>
      </g>
     </g>
     <g id="text_5">
      <!-- 4M -->
      <g transform="translate(206.848425 258.676562) scale(0.1 -0.1)">
       <use xlink:href="#DejaVuSans-34"/>
       <use xlink:href="#DejaVuSans-4d" transform="translate(63.623047 0)"/>
      </g>
     </g>
    </g>
    <g id="xtick_6">
     <g id="line2d_6">
      <g>
       <use xlink:href="#m90e7a51df1" x="245.61738" y="244.078125" style="stroke: #000000; stroke-width: 0.8"/>
      </g>
     </g>
     <g id="text_6">
      <!-- 16M -->
      <g transform="translate(234.940818 258.676562) scale(0.1 -0.1)">
       <use xlink:href="#DejaVuSans-31"/>
       <use xlink:href="#DejaVuSans-36" transform="translate(63.623047 0)"/>
       <use xlink:href="#DejaVuSans-4d" transform="translate(127.246094 0)"/>
      </g>
     </g>
    </g>
    <g id="xtick_7">
     <g id="line2d_7">
      <g>
       <use xlink:href="#m90e7a51df1" x="276.891024" y="244.078125" style="stroke: #000000; stroke-width: 0.8"/>
      </g>
     </g>
     <g id="text_7">
      <!-- 64M -->
      <g transform="translate(266.214461 258.676562) scale(0.1 -0.1)">
       <use xlink:href="#DejaVuSans-36"/>
       <use xlink:href="#DejaVuSans-34" transform="translate(63.623047 0)"/>
       <use xlink:href="#DejaVuSans-4d" transform="translate(127.246094 0)"/>
      </g>
     </g>
    </g>
    <g id="xtick_8">
     <g id="line2d_8">
      <g>
       <use xlink:href="#m90e7a51df1" x="308.164667" y="244.078125" style="stroke: #000000; stroke-width: 0.8"/>
      </g>
     </g>
     <g id="text_8">
      <!-- 256M -->
      <g transform="translate(294.306854 258.676562) scale(0.1 -0.1)">
       <use xlink:href="#DejaVuSans-32"/>
       <use xlink:href="#DejaVuSans-35" transform="translate(63.623047 0)"/>
       <use xlink:href="#DejaVuSans-36" transform="translate(127.246094 0)"/>
       <use xlink:href="#DejaVuSans-4d" transform="translate(190.869141 0)"/>
      </g>
     </g>
    </g>
    <g id="xtick_9">
     <g id="line2d_9">
      <g>
       <use xlink:href="#m90e7a51df1" x="339.43831" y="244.078125" style="stroke: #000000; stroke-width: 0.8"/>
      </g>
     </g>
     <g id="text_9">
      <!-- 1G -->
      <g transform="translate(332.382841 258.676562) scale(0.1 -0.1)">
       <defs>
        <path id="DejaVuSans-47" d="M 3809 666 
L 3809 1919 
L 2778 1919 
L 2778 2438 
L 4434 2438 
L 4434 434 
Q 4069 175 3628 42 
Q 3188 -91 2688 -91 
Q 1594 -91 976 548 
Q 359 1188 359 2328 
Q 359 3472 976 4111 
Q 1594 4750 2688 4750 
Q 3144 4750 3555 4637 
Q 3966 4525 4313 4306 
L 4313 3634 
Q 3963 3931 3569 4081 
Q 3175 4231 2741 4231 
Q 1884 4231 1454 3753 
Q 1025 3275 1025 2328 
Q 1025 1384 1454 906 
Q 1884 428 2741 428 
Q 3075 428 3337 486 
Q 3600 544 3809 666 
z
" transform="scale(0.015625)"/>
       </defs>
       <use xlink:href="#DejaVuSans-31"/>
       <use xlink:href="#DejaVuSans-47" transform="translate(63.623047 0)"/>
      </g>
     </g>
    </g>
    <g id="xtick_10">
     <g id="line2d_10">
      <g>
       <use xlink:href="#m90e7a51df1" x="370.711953" y="244.078125" style="stroke: #000000; stroke-width: 0.8"/>
      </g>
     </g>
     <g id="text_10">
      <!-- 4G -->
      <g transform="translate(363.656485 258.676562) scale(0.1 -0.1)">
       <use xlink:href="#DejaVuSans-34"/>
       <use xlink:href="#DejaVuSans-47" transform="translate(63.623047 0)"/>
      </g>
     </g>
    </g>
    <g id="xtick_11">
     <g id="line2d_11">
      <defs>
       <path id="m96a4680b11" d="M 0 0 
L 0 2 
" style="stroke: #000000; stroke-width: 0.6"/>
      </defs>
      <g>
       <use xlink:href="#m96a4680b11" x="104.885986" y="244.078125" style="stroke: #000000; stroke-width: 0.6"/>
      </g>
     </g>
    </g>
    <g id="xtick_12">
     <g id="line2d_12">
      <g>
       <use xlink:href="#m96a4680b11" x="136.159629" y="244.078125" style="stroke: #000000; stroke-width: 0.6"/>
      </g>
     </g>
    </g>
    <g id="xtick_13">
     <g id="line2d_13">
      <g>
       <use xlink:href="#m96a4680b11" x="167.433272" y="244.078125" style="stroke: #000000; stroke-width: 0.6"/>
      </g>
     </g>
    </g>
    <g id="xtick_14">
     <g id="line2d_14">
      <g>
       <use xlink:href="#m96a4680b11" x="198.706916" y="244.078125" style="stroke: #000000; stroke-width: 0.6"/>
      </g>
     </g>
    </g>
    <g id="xtick_15">
     <g id="line2d_15">
      <g>
       <use xlink:href="#m96a4680b11" x="229.980559" y="244.078125" style="stroke: #000000; stroke-width: 0.6"/>
      </g>
     </g>
    </g>
    <g id="xtick_16">
     <g id="line2d_16">
      <g>
       <use xlink:href="#m96a4680b11" x="261.254202" y="244.078125" style="stroke: #000000; stroke-width: 0.6"/>
      </g>
     </g>
    </g>
    <g id="xtick_17">
     <g id="line2d_17">
      <g>
       <use xlink:href="#m96a4680b11" x="292.527845" y="244.078125" style="stroke: #000000; stroke-width: 0.6"/>
      </g>
     </g>
    </g>
    <g id="xtick_18">
     <g id="line2d_18">
      <g>
       <use xlink:href="#m96a4680b11" x="323.801489" y="244.078125" style="stroke: #000000; stroke-width: 0.6"/>
      </g>
     </g>
    </g>
    <g id="text_11">
     <!-- Array size (B) -->
     <g transform="translate(180.69375 272.354687) scale(0.1 -0.1)">
      <defs>
       <path id="DejaVuSans-41" d="M 2188 4044 
L 1331 1722 
L 3047 1722 
L 2188 4044 
z
M 1831 4666 
L 2547 4666 
L 4325 0 
L 3669 0 
L 3244 1197 
L 1141 1197 
L 716 0 
L 50 0 
L 1831 4666 
z
" transform="scale(0.015625)"/>
       <path id="DejaVuSans-72" d="M 2631 2963 
Q 2534 3019 2420 3045 
Q 2306 3072 2169 3072 
Q 1681 3072 1420 2755 
Q 1159 2438 1159 1844 
L 1159 0 
L 581 0 
L 581 3500 
L 1159 3500 
L 1159 2956 
Q 1341 3275 1631 3429 
Q 1922 3584 2338 3584 
Q 2397 3584 2469 3576 
Q 2541 3569 2628 3553 
L 2631 2963 
z
" transform="scale(0.015625)"/>
       <path id="DejaVuSans-61" d="M 2194 1759 
Q 1497 1759 1228 1600 
Q 959 1441 959 1056 
Q 959 750 1161 570 
Q 1363 391 1709 391 
Q 2188 391 2477 730 
Q 2766 1069 2766 1631 
L 2766 1759 
L 2194 1759 
z
M 3341 1997 
L 3341 0 
L 2766 0 
L 2766 531 
Q 2569 213 2275 61 
Q 1981 -91 1556 -91 
Q 1019 -91 701 211 
Q 384 513 384 1019 
Q 384 1609 779 1909 
Q 1175 2209 1959 2209 
L 2766 2209 
L 2766 2266 
Q 2766 2663 2505 2880 
Q 2244 3097 1772 3097 
Q 1472 3097 1187 3025 
Q 903 2953 641 2809 
L 641 3341 
Q 956 3463 1253 3523 
Q 1550 3584 1831 3584 
Q 2591 3584 2966 3190 
Q 3341 2797 3341 1997 
z
" transform="scale(0.015625)"/>
       <path id="DejaVuSans-79" d="M 2059 -325 
Q 1816 -950 1584 -1140 
Q 1353 -1331 966 -1331 
L 506 -1331 
L 506 -850 
L 844 -850 
Q 1081 -850 1212 -737 
Q 1344 -625 1503 -206 
L 1606 56 
L 191 3500 
L 800 3500 
L 1894 763 
L 2988 3500 
L 3597 3500 
L 2059 -325 
z
" transform="scale(0.015625)"/>
       <path id="DejaVuSans-20" transform="scale(0.015625)"/>
       <path id="DejaVuSans-73" d="M 2834 3397 
L 2834 2853 
Q 2591 2978 2328 3040 
Q 2066 3103 1784 3103 
Q 1356 3103 1142 2972 
Q 928 2841 928 2578 
Q 928 2378 1081 2264 
Q 1234 2150 1697 2047 
L 1894 2003 
Q 2506 1872 2764 1633 
Q 3022 1394 3022 966 
Q 3022 478 2636 193 
Q 2250 -91 1575 -91 
Q 1294 -91 989 -36 
Q 684 19 347 128 
L 347 722 
Q 666 556 975 473 
Q 1284 391 1588 391 
Q 1994 391 2212 530 
Q 2431 669 2431 922 
Q 2431 1156 2273 1281 
Q 2116 1406 1581 1522 
L 1381 1569 
Q 847 1681 609 1914 
Q 372 2147 372 2553 
Q 372 3047 722 3315 
Q 1072 3584 1716 3584 
Q 2034 3584 2315 3537 
Q 2597 3491 2834 3397 
z
" transform="scale(0.015625)"/>
       <path id="DejaVuSans-69" d="M 603 3500 
L 1178 3500 
L 1178 0 
L 603 0 
L 603 3500 
z
M 603 4863 
L 1178 4863 
L 1178 4134 
L 603 4134 
L 603 4863 
z
" transform="scale(0.015625)"/>
       <path id="DejaVuSans-7a" d="M 353 3500 
L 3084 3500 
L 3084 2975 
L 922 459 
L 3084 459 
L 3084 0 
L 275 0 
L 275 525 
L 2438 3041 
L 353 3041 
L 353 3500 
z
" transform="scale(0.015625)"/>
       <path id="DejaVuSans-65" d="M 3597 1894 
L 3597 1613 
L 953 1613 
Q 991 1019 1311 708 
Q 1631 397 2203 397 
Q 2534 397 2845 478 
Q 3156 559 3463 722 
L 3463 178 
Q 3153 47 2828 -22 
Q 2503 -91 2169 -91 
Q 1331 -91 842 396 
Q 353 884 353 1716 
Q 353 2575 817 3079 
Q 1281 3584 2069 3584 
Q 2775 3584 3186 3129 
Q 3597 2675 3597 1894 
z
M 3022 2063 
Q 3016 2534 2758 2815 
Q 2500 3097 2075 3097 
Q 1594 3097 1305 2825 
Q 1016 2553 972 2059 
L 3022 2063 
z
" transform="scale(0.015625)"/>
       <path id="DejaVuSans-28" d="M 1984 4856 
Q 1566 4138 1362 3434 
Q 1159 2731 1159 2009 
Q 1159 1288 1364 580 
Q 1569 -128 1984 -844 
L 1484 -844 
Q 1016 -109 783 600 
Q 550 1309 550 2009 
Q 550 2706 781 3412 
Q 1013 4119 1484 4856 
L 1984 4856 
z
" transform="scale(0.015625)"/>
       <path id="DejaVuSans-42" d="M 1259 2228 
L 1259 519 
L 2272 519 
Q 2781 519 3026 730 
Q 3272 941 3272 1375 
Q 3272 1813 3026 2020 
Q 2781 2228 2272 2228 
L 1259 2228 
z
M 1259 4147 
L 1259 2741 
L 2194 2741 
Q 2656 2741 2882 2914 
Q 3109 3088 3109 3444 
Q 3109 3797 2882 3972 
Q 2656 4147 2194 4147 
L 1259 4147 
z
M 628 4666 
L 2241 4666 
Q 2963 4666 3353 4366 
Q 3744 4066 3744 3513 
Q 3744 3084 3544 2831 
Q 3344 2578 2956 2516 
Q 3422 2416 3680 2098 
Q 3938 1781 3938 1306 
Q 3938 681 3513 340 
Q 3088 0 2303 0 
L 628 0 
L 628 4666 
z
" transform="scale(0.015625)"/>
       <path id="DejaVuSans-29" d="M 513 4856 
L 1013 4856 
Q 1481 4119 1714 3412 
Q 1947 2706 1947 2009 
Q 1947 1309 1714 600 
Q 1481 -109 1013 -844 
L 513 -844 
Q 928 -128 1133 580 
Q 1338 1288 1338 2009 
Q 1338 2731 1133 3434 
Q 928 4138 513 4856 
z
" transform="scale(0.015625)"/>
      </defs>
      <use xlink:href="#DejaVuSans-41"/>
      <use xlink:href="#DejaVuSans-72" transform="translate(68.408203 0)"/>
      <use xlink:href="#DejaVuSans-72" transform="translate(107.771484 0)"/>
      <use xlink:href="#DejaVuSans-61" transform="translate(148.884766 0)"/>
      <use xlink:href="#DejaVuSans-79" transform="translate(210.164062 0)"/>
      <use xlink:href="#DejaVuSans-20" transform="translate(269.34375 0)"/>
      <use xlink:href="#DejaVuSans-73" transform="translate(301.130859 0)"/>
      <use xlink:href="#DejaVuSans-69" transform="translate(353.230469 0)"/>
      <use xlink:href="#DejaVuSans-7a" transform="translate(381.013672 0)"/>
      <use xlink:href="#DejaVuSans-65" transform="translate(433.503906 0)"/>
      <use xlink:href="#DejaVuSans-20" transform="translate(495.027344 0)"/>
      <use xlink:href="#DejaVuSans-28" transform="translate(526.814453 0)"/>
      <use xlink:href="#DejaVuSans-42" transform="translate(565.828125 0)"/>
      <use xlink:href="#DejaVuSans-29" transform="translate(634.431641 0)"/>
     </g>
    </g>
   </g>
   <g id="matplotlib.axis_2">
    <g id="ytick_1">
     <g id="line2d_19">
      <path d="M 46.965625 244.078125 
L 381.765625 244.078125 
" clip-path="url(#p7b95c43b9c)" style="fill: none; stroke: #b0b0b0; stroke-width: 0.8; stroke-linecap: square"/>
     </g>
     <g id="line2d_20">
      <defs>
       <path id="m9a65aca0b6" d="M 0 0 
L -3.5 0 
" style="stroke: #000000; stroke-width: 0.8"/>
      </defs>
      <g>
       <use xlink:href="#m9a65aca0b6" x="46.965625" y="244.078125" style="stroke: #000000; stroke-width: 0.8"/>
      </g>
     </g>
     <g id="text_12">
      <!-- 0 -->
      <g transform="translate(33.603125 247.877344) scale(0.1 -0.1)">
       <defs>
        <path id="DejaVuSans-30" d="M 2034 4250 
Q 1547 4250 1301 3770 
Q 1056 3291 1056 2328 
Q 1056 1369 1301 889 
Q 1547 409 2034 409 
Q 2525 409 2770 889 
Q 3016 1369 3016 2328 
Q 3016 3291 2770 3770 
Q 2525 4250 2034 4250 
z
M 2034 4750 
Q 2819 4750 3233 4129 
Q 3647 3509 3647 2328 
Q 3647 1150 3233 529 
Q 2819 -91 2034 -91 
Q 1250 -91 836 529 
Q 422 1150 422 2328 
Q 422 3509 836 4129 
Q 1250 4750 2034 4750 
z
" transform="scale(0.015625)"/>
       </defs>
       <use xlink:href="#DejaVuSans-30"/>
      </g>
     </g>
    </g>
    <g id="ytick_2">
     <g id="line2d_21">
      <path d="M 46.965625 212.398125 
L 381.765625 212.398125 
" clip-path="url(#p7b95c43b9c)" style="fill: none; stroke: #b0b0b0; stroke-width: 0.8; stroke-linecap: square"/>
     </g>
     <g id="line2d_22">
      <g>
       <use xlink:href="#m9a65aca0b6" x="46.965625" y="212.398125" style="stroke: #000000; stroke-width: 0.8"/>
      </g>
     </g>
     <g id="text_13">
      <!-- 50 -->
      <g transform="translate(27.240625 216.197344) scale(0.1 -0.1)">
       <use xlink:href="#DejaVuSans-35"/>
       <use xlink:href="#DejaVuSans-30" transform="translate(63.623047 0)"/>
      </g>
     </g>
    </g>
    <g id="ytick_3">
     <g id="line2d_23">
      <path d="M 46.965625 180.718125 
L 381.765625 180.718125 
" clip-path="url(#p7b95c43b9c)" style="fill: none; stroke: #b0b0b0; stroke-width: 0.8; stroke-linecap: square"/>
     </g>
     <g id="line2d_24">
      <g>
       <use xlink:href="#m9a65aca0b6" x="46.965625" y="180.718125" style="stroke: #000000; stroke-width: 0.8"/>
      </g>
     </g>
     <g id="text_14">
      <!-- 100 -->
      <g transform="translate(20.878125 184.517344) scale(0.1 -0.1)">
       <use xlink:href="#DejaVuSans-31"/>
       <use xlink:href="#DejaVuSans-30" transform="translate(63.623047 0)"/>
       <use xlink:href="#DejaVuSans-30" transform="translate(127.246094 0)"/>
      </g>
     </g>
    </g>
    <g id="ytick_4">
     <g id="line2d_25">
      <path d="M 46.965625 149.038125 
L 381.765625 149.038125 
" clip-path="url(#p7b95c43b9c)" style="fill: none; stroke: #b0b0b0; stroke-width: 0.8; stroke-linecap: square"/>
     </g>
     <g id="line2d_26">
      <g>
       <use xlink:href="#m9a65aca0b6" x="46.965625" y="149.038125" style="stroke: #000000; stroke-width: 0.8"/>
      </g>
     </g>
     <g id="text_15">
      <!-- 150 -->
      <g transform="translate(20.878125 152.837344) scale(0.1 -0.1)">
       <use xlink:href="#DejaVuSans-31"/>
       <use xlink:href="#DejaVuSans-35" transform="translate(63.623047 0)"/>
       <use xlink:href="#DejaVuSans-30" transform="translate(127.246094 0)"/>
      </g>
     </g>
    </g>
    <g id="ytick_5">
     <g id="line2d_27">
      <path d="M 46.965625 117.358125 
L 381.765625 117.358125 
" clip-path="url(#p7b95c43b9c)" style="fill: none; stroke: #b0b0b0; stroke-width: 0.8; stroke-linecap: square"/>
     </g>
     <g id="line2d_28">
      <g>
       <use xlink:href="#m9a65aca0b6" x="46.965625" y="117.358125" style="stroke: #000000; stroke-width: 0.8"/>
      </g>
     </g>
     <g id="text_16">
      <!-- 200 -->
      <g transform="translate(20.878125 121.157344) scale(0.1 -0.1)">
       <use xlink:href="#DejaVuSans-32"/>
       <use xlink:href="#DejaVuSans-30" transform="translate(63.623047 0)"/>
       <use xlink:href="#DejaVuSans-30" transform="translate(127.246094 0)"/>
      </g>
     </g>
    </g>
    <g id="ytick_6">
     <g id="line2d_29">
      <path d="M 46.965625 85.678125 
L 381.765625 85.678125 
" clip-path="url(#p7b95c43b9c)" style="fill: none; stroke: #b0b0b0; stroke-width: 0.8; stroke-linecap: square"/>
     </g>
     <g id="line2d_30">
      <g>
       <use xlink:href="#m9a65aca0b6" x="46.965625" y="85.678125" style="stroke: #000000; stroke-width: 0.8"/>
      </g>
     </g>
     <g id="text_17">
      <!-- 250 -->
      <g transform="translate(20.878125 89.477344) scale(0.1 -0.1)">
       <use xlink:href="#DejaVuSans-32"/>
       <use xlink:href="#DejaVuSans-35" transform="translate(63.623047 0)"/>
       <use xlink:href="#DejaVuSans-30" transform="translate(127.246094 0)"/>
      </g>
     </g>
    </g>
    <g id="ytick_7">
     <g id="line2d_31">
      <path d="M 46.965625 53.998125 
L 381.765625 53.998125 
" clip-path="url(#p7b95c43b9c)" style="fill: none; stroke: #b0b0b0; stroke-width: 0.8; stroke-linecap: square"/>
     </g>
     <g id="line2d_32">
      <g>
       <use xlink:href="#m9a65aca0b6" x="46.965625" y="53.998125" style="stroke: #000000; stroke-width: 0.8"/>
      </g>
     </g>
     <g id="text_18">
      <!-- 300 -->
      <g transform="translate(20.878125 57.797344) scale(0.1 -0.1)">
       <defs>
        <path id="DejaVuSans-33" d="M 2597 2516 
Q 3050 2419 3304 2112 
Q 3559 1806 3559 1356 
Q 3559 666 3084 287 
Q 2609 -91 1734 -91 
Q 1441 -91 1130 -33 
Q 819 25 488 141 
L 488 750 
Q 750 597 1062 519 
Q 1375 441 1716 441 
Q 2309 441 2620 675 
Q 2931 909 2931 1356 
Q 2931 1769 2642 2001 
Q 2353 2234 1838 2234 
L 1294 2234 
L 1294 2753 
L 1863 2753 
Q 2328 2753 2575 2939 
Q 2822 3125 2822 3475 
Q 2822 3834 2567 4026 
Q 2313 4219 1838 4219 
Q 1578 4219 1281 4162 
Q 984 4106 628 3988 
L 628 4550 
Q 988 4650 1302 4700 
Q 1616 4750 1894 4750 
Q 2613 4750 3031 4423 
Q 3450 4097 3450 3541 
Q 3450 3153 3228 2886 
Q 3006 2619 2597 2516 
z
" transform="scale(0.015625)"/>
       </defs>
       <use xlink:href="#DejaVuSans-33"/>
       <use xlink:href="#DejaVuSans-30" transform="translate(63.623047 0)"/>
       <use xlink:href="#DejaVuSans-30" transform="translate(127.246094 0)"/>
      </g>
     </g>
    </g>
    <g id="ytick_8">
     <g id="line2d_33">
      <path d="M 46.965625 22.318125 
L 381.765625 22.318125 
" clip-path="url(#p7b95c43b9c)" style="fill: none; stroke: #b0b0b0; stroke-width: 0.8; stroke-linecap: square"/>
     </g>
     <g id="line2d_34">
      <g>
       <use xlink:href="#m9a65aca0b6" x="46.965625" y="22.318125" style="stroke: #000000; stroke-width: 0.8"/>
      </g>
     </g>
     <g id="text_19">
      <!-- 350 -->
      <g transform="translate(20.878125 26.117344) scale(0.1 -0.1)">
       <use xlink:href="#DejaVuSans-33"/>
       <use xlink:href="#DejaVuSans-35" transform="translate(63.623047 0)"/>
       <use xlink:href="#DejaVuSans-30" transform="translate(127.246094 0)"/>
      </g>
     </g>
    </g>
    <g id="text_20">
     <!-- Latency (ns) -->
     <g transform="translate(14.798438 164.22625) rotate(-90) scale(0.1 -0.1)">
      <defs>
       <path id="DejaVuSans-4c" d="M 628 4666 
L 1259 4666 
L 1259 531 
L 3531 531 
L 3531 0 
L 628 0 
L 628 4666 
z
" transform="scale(0.015625)"/>
       <path id="DejaVuSans-74" d="M 1172 4494 
L 1172 3500 
L 2356 3500 
L 2356 3053 
L 1172 3053 
L 1172 1153 
Q 1172 725 1289 603 
Q 1406 481 1766 481 
L 2356 481 
L 2356 0 
L 1766 0 
Q 1100 0 847 248 
Q 594 497 594 1153 
L 594 3053 
L 172 3053 
L 172 3500 
L 594 3500 
L 594 4494 
L 1172 4494 
z
" transform="scale(0.015625)"/>
       <path id="DejaVuSans-6e" d="M 3513 2113 
L 3513 0 
L 2938 0 
L 2938 2094 
Q 2938 2591 2744 2837 
Q 2550 3084 2163 3084 
Q 1697 3084 1428 2787 
Q 1159 2491 1159 1978 
L 1159 0 
L 581 0 
L 581 3500 
L 1159 3500 
L 1159 2956 
Q 1366 3272 1645 3428 
Q 1925 3584 2291 3584 
Q 2894 3584 3203 3211 
Q 3513 2838 3513 2113 
z
" transform="scale(0.015625)"/>
       <path id="DejaVuSans-63" d="M 3122 3366 
L 3122 2828 
Q 2878 2963 2633 3030 
Q 2388 3097 2138 3097 
Q 1578 3097 1268 2742 
Q 959 2388 959 1747 
Q 959 1106 1268 751 
Q 1578 397 2138 397 
Q 2388 397 2633 464 
Q 2878 531 3122 666 
L 3122 134 
Q 2881 22 2623 -34 
Q 2366 -91 2075 -91 
Q 1284 -91 818 406 
Q 353 903 353 1747 
Q 353 2603 823 3093 
Q 1294 3584 2113 3584 
Q 2378 3584 2631 3529 
Q 2884 3475 3122 3366 
z
" transform="scale(0.015625)"/>
      </defs>
      <use xlink:href="#DejaVuSans-4c"/>
      <use xlink:href="#DejaVuSans-61" transform="translate(55.712891 0)"/>
      <use xlink:href="#DejaVuSans-74" transform="translate(116.992188 0)"/>
      <use xlink:href="#DejaVuSans-65" transform="translate(156.201172 0)"/>
      <use xlink:href="#DejaVuSans-6e" transform="translate(217.724609 0)"/>
      <use xlink:href="#DejaVuSans-63" transform="translate(281.103516 0)"/>
      <use xlink:href="#DejaVuSans-79" transform="translate(336.083984 0)"/>
      <use xlink:href="#DejaVuSans-20" transform="translate(395.263672 0)"/>
      <use xlink:href="#DejaVuSans-28" transform="translate(427.050781 0)"/>
      <use xlink:href="#DejaVuSans-6e" transform="translate(466.064453 0)"/>
      <use xlink:href="#DejaVuSans-73" transform="translate(529.443359 0)"/>
      <use xlink:href="#DejaVuSans-29" transform="translate(581.542969 0)"/>
     </g>
    </g>
   </g>
   <g id="line2d_35">
    <path d="M 62.183807 206.422643 
L 66.284638 204.626387 
L 70.39766 203.679155 
L 74.519149 202.853575 
L 78.628644 201.658605 
L 82.744605 199.868051 
L 86.857627 199.378279 
L 90.976772 198.822611 
L 95.088093 197.411584 
L 99.20395 195.954938 
L 103.312248 195.655879 
L 107.42527 194.615507 
L 111.539112 192.895283 
L 115.651451 191.467149 
L 119.766751 190.991315 
L 123.878824 189.017651 
L 127.991451 187.540096 
L 132.105462 186.742394 
L 136.218758 186.118298 
L 140.331323 184.383501 
L 144.443963 182.078464 
L 148.557144 180.979802 
L 152.670166 179.008672 
L 156.78352 175.727258 
L 160.896542 172.540883 
L 165.00918 170.531738 
L 169.122266 167.77241 
L 173.235501 164.550554 
L 177.34839 161.486464 
L 181.46145 159.483655 
L 185.574441 157.327514 
L 189.687437 154.405984 
L 193.800502 153.075424 
L 197.913542 151.85321 
L 202.026564 149.474675 
L 206.139561 143.788749 
L 210.252614 140.916007 
L 214.365628 139.248371 
L 218.478636 136.309101 
L 222.591682 133.694234 
L 226.704689 130.521165 
L 230.817715 124.458247 
L 234.930741 119.662528 
L 239.043754 111.270496 
L 243.156776 107.578509 
L 247.269804 89.608346 
L 251.382825 96.423347 
L 255.495851 89.065984 
L 259.608867 81.483059 
L 263.721889 73.701184 
L 267.834914 63.144775 
L 271.947938 61.254746 
L 276.060957 51.931955 
L 280.17398 43.802234 
L 284.287 35.497639 
L 288.400026 33.018995 
L 292.513044 20.810791 
L 296.626066 20.133472 
L 300.739087 10.372864 
L 304.852113 7.88345 
L 308.965132 -0.516185 
L 309.280146 -1 
" clip-path="url(#p7b95c43b9c)" style="fill: none; stroke: #000000; stroke-opacity: 0.6; stroke-width: 1.5; stroke-linecap: square"/>
    <defs>
     <path id="mf8ef482963" d="M 0 1.25 
C 0.331504 1.25 0.649475 1.118292 0.883883 0.883883 
C 1.118292 0.649475 1.25 0.331504 1.25 0 
C 1.25 -0.331504 1.118292 -0.649475 0.883883 -0.883883 
C 0.649475 -1.118292 0.331504 -1.25 0 -1.25 
C -0.331504 -1.25 -0.649475 -1.118292 -0.883883 -0.883883 
C -1.118292 -0.649475 -1.25 -0.331504 -1.25 0 
C -1.25 0.331504 -1.118292 0.649475 -0.883883 0.883883 
C -0.649475 1.118292 -0.331504 1.25 0 1.25 
z
" style="stroke: #000000; stroke-opacity: 0.6"/>
    </defs>
    <g clip-path="url(#p7b95c43b9c)">
     <use xlink:href="#mf8ef482963" x="62.183807" y="206.422643" style="fill-opacity: 0.6; stroke: #000000; stroke-opacity: 0.6"/>
     <use xlink:href="#mf8ef482963" x="66.284638" y="204.626387" style="fill-opacity: 0.6; stroke: #000000; stroke-opacity: 0.6"/>
     <use xlink:href="#mf8ef482963" x="70.39766" y="203.679155" style="fill-opacity: 0.6; stroke: #000000; stroke-opacity: 0.6"/>
     <use xlink:href="#mf8ef482963" x="74.519149" y="202.853575" style="fill-opacity: 0.6; stroke: #000000; stroke-opacity: 0.6"/>
     <use xlink:href="#mf8ef482963" x="78.628644" y="201.658605" style="fill-opacity: 0.6; stroke: #000000; stroke-opacity: 0.6"/>
     <use xlink:href="#mf8ef482963" x="82.744605" y="199.868051" style="fill-opacity: 0.6; stroke: #000000; stroke-opacity: 0.6"/>
     <use xlink:href="#mf8ef482963" x="86.857627" y="199.378279" style="fill-opacity: 0.6; stroke: #000000; stroke-opacity: 0.6"/>
     <use xlink:href="#mf8ef482963" x="90.976772" y="198.822611" style="fill-opacity: 0.6; stroke: #000000; stroke-opacity: 0.6"/>
     <use xlink:href="#mf8ef482963" x="95.088093" y="197.411584" style="fill-opacity: 0.6; stroke: #000000; stroke-opacity: 0.6"/>
     <use xlink:href="#mf8ef482963" x="99.20395" y="195.954938" style="fill-opacity: 0.6; stroke: #000000; stroke-opacity: 0.6"/>
     <use xlink:href="#mf8ef482963" x="103.312248" y="195.655879" style="fill-opacity: 0.6; stroke: #000000; stroke-opacity: 0.6"/>
     <use xlink:href="#mf8ef482963" x="107.42527" y="194.615507" style="fill-opacity: 0.6; stroke: #000000; stroke-opacity: 0.6"/>
     <use xlink:href="#mf8ef482963" x="111.539112" y="192.895283" style="fill-opacity: 0.6; stroke: #000000; stroke-opacity: 0.6"/>
     <use xlink:href="#mf8ef482963" x="115.651451" y="191.467149" style="fill-opacity: 0.6; stroke: #000000; stroke-opacity: 0.6"/>
     <use xlink:href="#mf8ef482963" x="119.766751" y="190.991315" style="fill-opacity: 0.6; stroke: #000000; stroke-opacity: 0.6"/>
     <use xlink:href="#mf8ef482963" x="123.878824" y="189.017651" style="fill-opacity: 0.6; stroke: #000000; stroke-opacity: 0.6"/>
     <use xlink:href="#mf8ef482963" x="127.991451" y="187.540096" style="fill-opacity: 0.6; stroke: #000000; stroke-opacity: 0.6"/>
     <use xlink:href="#mf8ef482963" x="132.105462" y="186.742394" style="fill-opacity: 0.6; stroke: #000000; stroke-opacity: 0.6"/>
     <use xlink:href="#mf8ef482963" x="136.218758" y="186.118298" style="fill-opacity: 0.6; stroke: #000000; stroke-opacity: 0.6"/>
     <use xlink:href="#mf8ef482963" x="140.331323" y="184.383501" style="fill-opacity: 0.6; stroke: #000000; stroke-opacity: 0.6"/>
     <use xlink:href="#mf8ef482963" x="144.443963" y="182.078464" style="fill-opacity: 0.6; stroke: #000000; stroke-opacity: 0.6"/>
     <use xlink:href="#mf8ef482963" x="148.557144" y="180.979802" style="fill-opacity: 0.6; stroke: #000000; stroke-opacity: 0.6"/>
     <use xlink:href="#mf8ef482963" x="152.670166" y="179.008672" style="fill-opacity: 0.6; stroke: #000000; stroke-opacity: 0.6"/>
     <use xlink:href="#mf8ef482963" x="156.78352" y="175.727258" style="fill-opacity: 0.6; stroke: #000000; stroke-opacity: 0.6"/>
     <use xlink:href="#mf8ef482963" x="160.896542" y="172.540883" style="fill-opacity: 0.6; stroke: #000000; stroke-opacity: 0.6"/>
     <use xlink:href="#mf8ef482963" x="165.00918" y="170.531738" style="fill-opacity: 0.6; stroke: #000000; stroke-opacity: 0.6"/>
     <use xlink:href="#mf8ef482963" x="169.122266" y="167.77241" style="fill-opacity: 0.6; stroke: #000000; stroke-opacity: 0.6"/>
     <use xlink:href="#mf8ef482963" x="173.235501" y="164.550554" style="fill-opacity: 0.6; stroke: #000000; stroke-opacity: 0.6"/>
     <use xlink:href="#mf8ef482963" x="177.34839" y="161.486464" style="fill-opacity: 0.6; stroke: #000000; stroke-opacity: 0.6"/>
     <use xlink:href="#mf8ef482963" x="181.46145" y="159.483655" style="fill-opacity: 0.6; stroke: #000000; stroke-opacity: 0.6"/>
     <use xlink:href="#mf8ef482963" x="185.574441" y="157.327514" style="fill-opacity: 0.6; stroke: #000000; stroke-opacity: 0.6"/>
     <use xlink:href="#mf8ef482963" x="189.687437" y="154.405984" style="fill-opacity: 0.6; stroke: #000000; stroke-opacity: 0.6"/>
     <use xlink:href="#mf8ef482963" x="193.800502" y="153.075424" style="fill-opacity: 0.6; stroke: #000000; stroke-opacity: 0.6"/>
     <use xlink:href="#mf8ef482963" x="197.913542" y="151.85321" style="fill-opacity: 0.6; stroke: #000000; stroke-opacity: 0.6"/>
     <use xlink:href="#mf8ef482963" x="202.026564" y="149.474675" style="fill-opacity: 0.6; stroke: #000000; stroke-opacity: 0.6"/>
     <use xlink:href="#mf8ef482963" x="206.139561" y="143.788749" style="fill-opacity: 0.6; stroke: #000000; stroke-opacity: 0.6"/>
     <use xlink:href="#mf8ef482963" x="210.252614" y="140.916007" style="fill-opacity: 0.6; stroke: #000000; stroke-opacity: 0.6"/>
     <use xlink:href="#mf8ef482963" x="214.365628" y="139.248371" style="fill-opacity: 0.6; stroke: #000000; stroke-opacity: 0.6"/>
     <use xlink:href="#mf8ef482963" x="218.478636" y="136.309101" style="fill-opacity: 0.6; stroke: #000000; stroke-opacity: 0.6"/>
     <use xlink:href="#mf8ef482963" x="222.591682" y="133.694234" style="fill-opacity: 0.6; stroke: #000000; stroke-opacity: 0.6"/>
     <use xlink:href="#mf8ef482963" x="226.704689" y="130.521165" style="fill-opacity: 0.6; stroke: #000000; stroke-opacity: 0.6"/>
     <use xlink:href="#mf8ef482963" x="230.817715" y="124.458247" style="fill-opacity: 0.6; stroke: #000000; stroke-opacity: 0.6"/>
     <use xlink:href="#mf8ef482963" x="234.930741" y="119.662528" style="fill-opacity: 0.6; stroke: #000000; stroke-opacity: 0.6"/>
     <use xlink:href="#mf8ef482963" x="239.043754" y="111.270496" style="fill-opacity: 0.6; stroke: #000000; stroke-opacity: 0.6"/>
     <use xlink:href="#mf8ef482963" x="243.156776" y="107.578509" style="fill-opacity: 0.6; stroke: #000000; stroke-opacity: 0.6"/>
     <use xlink:href="#mf8ef482963" x="247.269804" y="89.608346" style="fill-opacity: 0.6; stroke: #000000; stroke-opacity: 0.6"/>
     <use xlink:href="#mf8ef482963" x="251.382825" y="96.423347" style="fill-opacity: 0.6; stroke: #000000; stroke-opacity: 0.6"/>
     <use xlink:href="#mf8ef482963" x="255.495851" y="89.065984" style="fill-opacity: 0.6; stroke: #000000; stroke-opacity: 0.6"/>
     <use xlink:href="#mf8ef482963" x="259.608867" y="81.483059" style="fill-opacity: 0.6; stroke: #000000; stroke-opacity: 0.6"/>
     <use xlink:href="#mf8ef482963" x="263.721889" y="73.701184" style="fill-opacity: 0.6; stroke: #000000; stroke-opacity: 0.6"/>
     <use xlink:href="#mf8ef482963" x="267.834914" y="63.144775" style="fill-opacity: 0.6; stroke: #000000; stroke-opacity: 0.6"/>
     <use xlink:href="#mf8ef482963" x="271.947938" y="61.254746" style="fill-opacity: 0.6; stroke: #000000; stroke-opacity: 0.6"/>
     <use xlink:href="#mf8ef482963" x="276.060957" y="51.931955" style="fill-opacity: 0.6; stroke: #000000; stroke-opacity: 0.6"/>
     <use xlink:href="#mf8ef482963" x="280.17398" y="43.802234" style="fill-opacity: 0.6; stroke: #000000; stroke-opacity: 0.6"/>
     <use xlink:href="#mf8ef482963" x="284.287" y="35.497639" style="fill-opacity: 0.6; stroke: #000000; stroke-opacity: 0.6"/>
     <use xlink:href="#mf8ef482963" x="288.400026" y="33.018995" style="fill-opacity: 0.6; stroke: #000000; stroke-opacity: 0.6"/>
     <use xlink:href="#mf8ef482963" x="292.513044" y="20.810791" style="fill-opacity: 0.6; stroke: #000000; stroke-opacity: 0.6"/>
     <use xlink:href="#mf8ef482963" x="296.626066" y="20.133472" style="fill-opacity: 0.6; stroke: #000000; stroke-opacity: 0.6"/>
     <use xlink:href="#mf8ef482963" x="300.739087" y="10.372864" style="fill-opacity: 0.6; stroke: #000000; stroke-opacity: 0.6"/>
     <use xlink:href="#mf8ef482963" x="304.852113" y="7.88345" style="fill-opacity: 0.6; stroke: #000000; stroke-opacity: 0.6"/>
     <use xlink:href="#mf8ef482963" x="308.965132" y="-0.516185" style="fill-opacity: 0.6; stroke: #000000; stroke-opacity: 0.6"/>
     <use xlink:href="#mf8ef482963" x="309.280146" y="-1" style="fill-opacity: 0.6; stroke: #000000; stroke-opacity: 0.6"/>
    </g>
   </g>
   <g id="line2d_36">
    <path d="M 62.183807 242.559386 
L 66.284638 242.179859 
L 70.39766 242.531507 
L 74.519149 242.534675 
L 78.628644 242.525171 
L 82.744605 242.518835 
L 86.857627 242.509965 
L 90.976772 242.490323 
L 95.088093 242.468781 
L 99.20395 242.392749 
L 103.312248 242.266663 
L 107.42527 242.089255 
L 111.539112 241.955565 
L 115.651451 241.81744 
L 119.766751 241.641299 
L 123.878824 241.592512 
L 127.991451 241.468327 
L 132.105462 241.257971 
L 136.218758 241.068525 
L 140.331323 240.784039 
L 144.443963 240.348755 
L 148.557144 240.035123 
L 152.670166 239.398989 
L 156.78352 238.393466 
L 160.896542 237.719949 
L 165.00918 237.0496 
L 169.122266 236.493933 
L 173.235501 235.973114 
L 177.34839 235.499815 
L 181.46145 235.122189 
L 185.574441 235.10128 
L 189.687437 235.176045 
L 193.800502 235.12409 
L 197.913542 235.125357 
L 202.026564 234.921338 
L 206.139561 234.528506 
L 210.252614 234.346029 
L 214.365628 234.244019 
L 218.478636 233.739674 
L 222.591682 233.3272 
L 226.704689 232.77977 
L 230.817715 230.945498 
L 234.930741 228.457984 
L 239.043754 223.765543 
L 243.156776 219.889811 
L 247.269804 215.454611 
L 251.382825 215.224615 
L 255.495851 212.596442 
L 259.608867 209.948627 
L 263.721889 206.198983 
L 267.834914 205.427258 
L 271.947938 204.567463 
L 276.060957 202.598867 
L 280.17398 201.35321 
L 284.287 199.905434 
L 288.400026 200.955943 
L 292.513044 200.09488 
L 296.626066 198.828314 
L 300.739087 197.697971 
L 304.852113 198.395565 
L 308.965132 198.009069 
L 313.078156 197.760698 
L 317.191178 196.887597 
L 321.304203 196.645562 
L 325.417222 196.748205 
L 329.530244 196.729197 
L 333.643267 196.081024 
L 337.75629 196.623386 
L 341.869309 195.112883 
L 345.982333 196.125376 
L 350.095354 196.427603 
L 354.208378 194.768205 
L 358.321397 195.903616 
L 362.434422 194.628813 
L 366.547443 195.608359 
" clip-path="url(#p7b95c43b9c)" style="fill: none; stroke: #008000; stroke-opacity: 0.6; stroke-width: 1.5; stroke-linecap: square"/>
    <defs>
     <path id="m4d69a25fa3" d="M 0 1.25 
C 0.331504 1.25 0.649475 1.118292 0.883883 0.883883 
C 1.118292 0.649475 1.25 0.331504 1.25 0 
C 1.25 -0.331504 1.118292 -0.649475 0.883883 -0.883883 
C 0.649475 -1.118292 0.331504 -1.25 0 -1.25 
C -0.331504 -1.25 -0.649475 -1.118292 -0.883883 -0.883883 
C -1.118292 -0.649475 -1.25 -0.331504 -1.25 0 
C -1.25 0.331504 -1.118292 0.649475 -0.883883 0.883883 
C -0.649475 1.118292 -0.331504 1.25 0 1.25 
z
" style="stroke: #008000; stroke-opacity: 0.6"/>
    </defs>
    <g clip-path="url(#p7b95c43b9c)">
     <use xlink:href="#m4d69a25fa3" x="62.183807" y="242.559386" style="fill: #008000; fill-opacity: 0.6; stroke: #008000; stroke-opacity: 0.6"/>
     <use xlink:href="#m4d69a25fa3" x="66.284638" y="242.179859" style="fill: #008000; fill-opacity: 0.6; stroke: #008000; stroke-opacity: 0.6"/>
     <use xlink:href="#m4d69a25fa3" x="70.39766" y="242.531507" style="fill: #008000; fill-opacity: 0.6; stroke: #008000; stroke-opacity: 0.6"/>
     <use xlink:href="#m4d69a25fa3" x="74.519149" y="242.534675" style="fill: #008000; fill-opacity: 0.6; stroke: #008000; stroke-opacity: 0.6"/>
     <use xlink:href="#m4d69a25fa3" x="78.628644" y="242.525171" style="fill: #008000; fill-opacity: 0.6; stroke: #008000; stroke-opacity: 0.6"/>
     <use xlink:href="#m4d69a25fa3" x="82.744605" y="242.518835" style="fill: #008000; fill-opacity: 0.6; stroke: #008000; stroke-opacity: 0.6"/>
     <use xlink:href="#m4d69a25fa3" x="86.857627" y="242.509965" style="fill: #008000; fill-opacity: 0.6; stroke: #008000; stroke-opacity: 0.6"/>
     <use xlink:href="#m4d69a25fa3" x="90.976772" y="242.490323" style="fill: #008000; fill-opacity: 0.6; stroke: #008000; stroke-opacity: 0.6"/>
     <use xlink:href="#m4d69a25fa3" x="95.088093" y="242.468781" style="fill: #008000; fill-opacity: 0.6; stroke: #008000; stroke-opacity: 0.6"/>
     <use xlink:href="#m4d69a25fa3" x="99.20395" y="242.392749" style="fill: #008000; fill-opacity: 0.6; stroke: #008000; stroke-opacity: 0.6"/>
     <use xlink:href="#m4d69a25fa3" x="103.312248" y="242.266663" style="fill: #008000; fill-opacity: 0.6; stroke: #008000; stroke-opacity: 0.6"/>
     <use xlink:href="#m4d69a25fa3" x="107.42527" y="242.089255" style="fill: #008000; fill-opacity: 0.6; stroke: #008000; stroke-opacity: 0.6"/>
     <use xlink:href="#m4d69a25fa3" x="111.539112" y="241.955565" style="fill: #008000; fill-opacity: 0.6; stroke: #008000; stroke-opacity: 0.6"/>
     <use xlink:href="#m4d69a25fa3" x="115.651451" y="241.81744" style="fill: #008000; fill-opacity: 0.6; stroke: #008000; stroke-opacity: 0.6"/>
     <use xlink:href="#m4d69a25fa3" x="119.766751" y="241.641299" style="fill: #008000; fill-opacity: 0.6; stroke: #008000; stroke-opacity: 0.6"/>
     <use xlink:href="#m4d69a25fa3" x="123.878824" y="241.592512" style="fill: #008000; fill-opacity: 0.6; stroke: #008000; stroke-opacity: 0.6"/>
     <use xlink:href="#m4d69a25fa3" x="127.991451" y="241.468327" style="fill: #008000; fill-opacity: 0.6; stroke: #008000; stroke-opacity: 0.6"/>
     <use xlink:href="#m4d69a25fa3" x="132.105462" y="241.257971" style="fill: #008000; fill-opacity: 0.6; stroke: #008000; stroke-opacity: 0.6"/>
     <use xlink:href="#m4d69a25fa3" x="136.218758" y="241.068525" style="fill: #008000; fill-opacity: 0.6; stroke: #008000; stroke-opacity: 0.6"/>
     <use xlink:href="#m4d69a25fa3" x="140.331323" y="240.784039" style="fill: #008000; fill-opacity: 0.6; stroke: #008000; stroke-opacity: 0.6"/>
     <use xlink:href="#m4d69a25fa3" x="144.443963" y="240.348755" style="fill: #008000; fill-opacity: 0.6; stroke: #008000; stroke-opacity: 0.6"/>
     <use xlink:href="#m4d69a25fa3" x="148.557144" y="240.035123" style="fill: #008000; fill-opacity: 0.6; stroke: #008000; stroke-opacity: 0.6"/>
     <use xlink:href="#m4d69a25fa3" x="152.670166" y="239.398989" style="fill: #008000; fill-opacity: 0.6; stroke: #008000; stroke-opacity: 0.6"/>
     <use xlink:href="#m4d69a25fa3" x="156.78352" y="238.393466" style="fill: #008000; fill-opacity: 0.6; stroke: #008000; stroke-opacity: 0.6"/>
     <use xlink:href="#m4d69a25fa3" x="160.896542" y="237.719949" style="fill: #008000; fill-opacity: 0.6; stroke: #008000; stroke-opacity: 0.6"/>
     <use xlink:href="#m4d69a25fa3" x="165.00918" y="237.0496" style="fill: #008000; fill-opacity: 0.6; stroke: #008000; stroke-opacity: 0.6"/>
     <use xlink:href="#m4d69a25fa3" x="169.122266" y="236.493933" style="fill: #008000; fill-opacity: 0.6; stroke: #008000; stroke-opacity: 0.6"/>
     <use xlink:href="#m4d69a25fa3" x="173.235501" y="235.973114" style="fill: #008000; fill-opacity: 0.6; stroke: #008000; stroke-opacity: 0.6"/>
     <use xlink:href="#m4d69a25fa3" x="177.34839" y="235.499815" style="fill: #008000; fill-opacity: 0.6; stroke: #008000; stroke-opacity: 0.6"/>
     <use xlink:href="#m4d69a25fa3" x="181.46145" y="235.122189" style="fill: #008000; fill-opacity: 0.6; stroke: #008000; stroke-opacity: 0.6"/>
     <use xlink:href="#m4d69a25fa3" x="185.574441" y="235.10128" style="fill: #008000; fill-opacity: 0.6; stroke: #008000; stroke-opacity: 0.6"/>
     <use xlink:href="#m4d69a25fa3" x="189.687437" y="235.176045" style="fill: #008000; fill-opacity: 0.6; stroke: #008000; stroke-opacity: 0.6"/>
     <use xlink:href="#m4d69a25fa3" x="193.800502" y="235.12409" style="fill: #008000; fill-opacity: 0.6; stroke: #008000; stroke-opacity: 0.6"/>
     <use xlink:href="#m4d69a25fa3" x="197.913542" y="235.125357" style="fill: #008000; fill-opacity: 0.6; stroke: #008000; stroke-opacity: 0.6"/>
     <use xlink:href="#m4d69a25fa3" x="202.026564" y="234.921338" style="fill: #008000; fill-opacity: 0.6; stroke: #008000; stroke-opacity: 0.6"/>
     <use xlink:href="#m4d69a25fa3" x="206.139561" y="234.528506" style="fill: #008000; fill-opacity: 0.6; stroke: #008000; stroke-opacity: 0.6"/>
     <use xlink:href="#m4d69a25fa3" x="210.252614" y="234.346029" style="fill: #008000; fill-opacity: 0.6; stroke: #008000; stroke-opacity: 0.6"/>
     <use xlink:href="#m4d69a25fa3" x="214.365628" y="234.244019" style="fill: #008000; fill-opacity: 0.6; stroke: #008000; stroke-opacity: 0.6"/>
     <use xlink:href="#m4d69a25fa3" x="218.478636" y="233.739674" style="fill: #008000; fill-opacity: 0.6; stroke: #008000; stroke-opacity: 0.6"/>
     <use xlink:href="#m4d69a25fa3" x="222.591682" y="233.3272" style="fill: #008000; fill-opacity: 0.6; stroke: #008000; stroke-opacity: 0.6"/>
     <use xlink:href="#m4d69a25fa3" x="226.704689" y="232.77977" style="fill: #008000; fill-opacity: 0.6; stroke: #008000; stroke-opacity: 0.6"/>
     <use xlink:href="#m4d69a25fa3" x="230.817715" y="230.945498" style="fill: #008000; fill-opacity: 0.6; stroke: #008000; stroke-opacity: 0.6"/>
     <use xlink:href="#m4d69a25fa3" x="234.930741" y="228.457984" style="fill: #008000; fill-opacity: 0.6; stroke: #008000; stroke-opacity: 0.6"/>
     <use xlink:href="#m4d69a25fa3" x="239.043754" y="223.765543" style="fill: #008000; fill-opacity: 0.6; stroke: #008000; stroke-opacity: 0.6"/>
     <use xlink:href="#m4d69a25fa3" x="243.156776" y="219.889811" style="fill: #008000; fill-opacity: 0.6; stroke: #008000; stroke-opacity: 0.6"/>
     <use xlink:href="#m4d69a25fa3" x="247.269804" y="215.454611" style="fill: #008000; fill-opacity: 0.6; stroke: #008000; stroke-opacity: 0.6"/>
     <use xlink:href="#m4d69a25fa3" x="251.382825" y="215.224615" style="fill: #008000; fill-opacity: 0.6; stroke: #008000; stroke-opacity: 0.6"/>
     <use xlink:href="#m4d69a25fa3" x="255.495851" y="212.596442" style="fill: #008000; fill-opacity: 0.6; stroke: #008000; stroke-opacity: 0.6"/>
     <use xlink:href="#m4d69a25fa3" x="259.608867" y="209.948627" style="fill: #008000; fill-opacity: 0.6; stroke: #008000; stroke-opacity: 0.6"/>
     <use xlink:href="#m4d69a25fa3" x="263.721889" y="206.198983" style="fill: #008000; fill-opacity: 0.6; stroke: #008000; stroke-opacity: 0.6"/>
     <use xlink:href="#m4d69a25fa3" x="267.834914" y="205.427258" style="fill: #008000; fill-opacity: 0.6; stroke: #008000; stroke-opacity: 0.6"/>
     <use xlink:href="#m4d69a25fa3" x="271.947938" y="204.567463" style="fill: #008000; fill-opacity: 0.6; stroke: #008000; stroke-opacity: 0.6"/>
     <use xlink:href="#m4d69a25fa3" x="276.060957" y="202.598867" style="fill: #008000; fill-opacity: 0.6; stroke: #008000; stroke-opacity: 0.6"/>
     <use xlink:href="#m4d69a25fa3" x="280.17398" y="201.35321" style="fill: #008000; fill-opacity: 0.6; stroke: #008000; stroke-opacity: 0.6"/>
     <use xlink:href="#m4d69a25fa3" x="284.287" y="199.905434" style="fill: #008000; fill-opacity: 0.6; stroke: #008000; stroke-opacity: 0.6"/>
     <use xlink:href="#m4d69a25fa3" x="288.400026" y="200.955943" style="fill: #008000; fill-opacity: 0.6; stroke: #008000; stroke-opacity: 0.6"/>
     <use xlink:href="#m4d69a25fa3" x="292.513044" y="200.09488" style="fill: #008000; fill-opacity: 0.6; stroke: #008000; stroke-opacity: 0.6"/>
     <use xlink:href="#m4d69a25fa3" x="296.626066" y="198.828314" style="fill: #008000; fill-opacity: 0.6; stroke: #008000; stroke-opacity: 0.6"/>
     <use xlink:href="#m4d69a25fa3" x="300.739087" y="197.697971" style="fill: #008000; fill-opacity: 0.6; stroke: #008000; stroke-opacity: 0.6"/>
     <use xlink:href="#m4d69a25fa3" x="304.852113" y="198.395565" style="fill: #008000; fill-opacity: 0.6; stroke: #008000; stroke-opacity: 0.6"/>
     <use xlink:href="#m4d69a25fa3" x="308.965132" y="198.009069" style="fill: #008000; fill-opacity: 0.6; stroke: #008000; stroke-opacity: 0.6"/>
     <use xlink:href="#m4d69a25fa3" x="313.078156" y="197.760698" style="fill: #008000; fill-opacity: 0.6; stroke: #008000; stroke-opacity: 0.6"/>
     <use xlink:href="#m4d69a25fa3" x="317.191178" y="196.887597" style="fill: #008000; fill-opacity: 0.6; stroke: #008000; stroke-opacity: 0.6"/>
     <use xlink:href="#m4d69a25fa3" x="321.304203" y="196.645562" style="fill: #008000; fill-opacity: 0.6; stroke: #008000; stroke-opacity: 0.6"/>
     <use xlink:href="#m4d69a25fa3" x="325.417222" y="196.748205" style="fill: #008000; fill-opacity: 0.6; stroke: #008000; stroke-opacity: 0.6"/>
     <use xlink:href="#m4d69a25fa3" x="329.530244" y="196.729197" style="fill: #008000; fill-opacity: 0.6; stroke: #008000; stroke-opacity: 0.6"/>
     <use xlink:href="#m4d69a25fa3" x="333.643267" y="196.081024" style="fill: #008000; fill-opacity: 0.6; stroke: #008000; stroke-opacity: 0.6"/>
     <use xlink:href="#m4d69a25fa3" x="337.75629" y="196.623386" style="fill: #008000; fill-opacity: 0.6; stroke: #008000; stroke-opacity: 0.6"/>
     <use xlink:href="#m4d69a25fa3" x="341.869309" y="195.112883" style="fill: #008000; fill-opacity: 0.6; stroke: #008000; stroke-opacity: 0.6"/>
     <use xlink:href="#m4d69a25fa3" x="345.982333" y="196.125376" style="fill: #008000; fill-opacity: 0.6; stroke: #008000; stroke-opacity: 0.6"/>
     <use xlink:href="#m4d69a25fa3" x="350.095354" y="196.427603" style="fill: #008000; fill-opacity: 0.6; stroke: #008000; stroke-opacity: 0.6"/>
     <use xlink:href="#m4d69a25fa3" x="354.208378" y="194.768205" style="fill: #008000; fill-opacity: 0.6; stroke: #008000; stroke-opacity: 0.6"/>
     <use xlink:href="#m4d69a25fa3" x="358.321397" y="195.903616" style="fill: #008000; fill-opacity: 0.6; stroke: #008000; stroke-opacity: 0.6"/>
     <use xlink:href="#m4d69a25fa3" x="362.434422" y="194.628813" style="fill: #008000; fill-opacity: 0.6; stroke: #008000; stroke-opacity: 0.6"/>
     <use xlink:href="#m4d69a25fa3" x="366.547443" y="195.608359" style="fill: #008000; fill-opacity: 0.6; stroke: #008000; stroke-opacity: 0.6"/>
    </g>
   </g>
   <g id="line2d_37">
    <path d="M 62.183807 206.422643 
L 66.284638 205.617751 
L 70.39766 204.810465 
L 74.519149 204.001518 
L 78.628644 203.194925 
L 82.744605 202.387063 
L 86.857627 201.579777 
L 90.976772 200.77129 
L 95.088093 199.964338 
L 99.20395 199.156497 
L 103.312248 198.350138 
L 107.42527 197.542853 
L 111.539112 196.735407 
L 115.651451 195.928255 
L 119.766751 195.120523 
L 123.878824 194.313424 
L 127.991451 193.506216 
L 132.105462 192.698736 
L 136.218758 191.891397 
L 140.331323 191.084201 
L 144.443963 190.276991 
L 148.557144 189.469674 
L 152.670166 188.662389 
L 156.78352 187.855038 
L 160.896542 187.047753 
L 165.00918 186.240543 
L 169.122266 185.433245 
L 173.235501 184.625917 
L 177.34839 183.818658 
L 181.46145 183.011365 
L 185.574441 182.204086 
L 189.687437 181.396806 
L 193.800502 180.589512 
L 197.913542 179.782223 
L 202.026564 178.974937 
L 206.139561 178.167657 
L 210.252614 177.360365 
L 214.365628 176.553082 
L 218.478636 175.745799 
L 222.591682 174.938509 
L 226.704689 174.131226 
L 230.817715 173.32394 
L 234.930741 172.516654 
L 239.043754 171.70937 
L 243.156776 170.902085 
L 247.269804 170.094798 
L 251.382825 169.287513 
L 255.495851 168.480227 
L 259.608867 167.672943 
L 263.721889 166.865657 
L 267.834914 166.058371 
L 271.947938 165.251085 
L 276.060957 164.443801 
L 280.17398 163.636515 
L 284.287 162.82923 
L 288.400026 162.021944 
L 292.513044 161.214659 
L 296.626066 160.407374 
L 300.739087 159.600088 
L 304.852113 158.792802 
L 308.965132 157.985518 
L 313.078156 157.178232 
L 317.191178 156.370946 
L 321.304203 155.56366 
L 325.417222 154.756375 
L 329.530244 153.94909 
L 333.643267 153.141804 
L 337.75629 152.334519 
L 341.869309 151.527234 
L 345.982333 150.719948 
L 350.095354 149.912663 
L 354.208378 149.105377 
L 358.321397 148.298092 
L 362.434422 147.490806 
L 366.547443 146.683521 
" clip-path="url(#p7b95c43b9c)" style="fill: none; stroke: #0000ff; stroke-width: 0.7; stroke-linecap: square"/>
   </g>
   <g id="line2d_38">
    <path d="M 62.183807 243.037322 
L 66.284638 242.96895 
L 70.39766 242.895864 
L 74.519149 242.817796 
L 78.628644 242.734823 
L 82.744605 242.646245 
L 86.857627 242.551894 
L 90.976772 242.451172 
L 95.088093 242.344014 
L 99.20395 242.229668 
L 103.312248 242.108013 
L 107.42527 241.978197 
L 111.539112 241.839799 
L 115.651451 241.692335 
L 119.766751 241.535039 
L 123.878824 241.367509 
L 127.991451 241.188917 
L 132.105462 240.998492 
L 136.218758 240.795553 
L 140.331323 240.579281 
L 144.443963 240.348755 
L 148.557144 240.103008 
L 152.670166 239.841077 
L 156.78352 239.561864 
L 160.896542 239.264276 
L 165.00918 238.947109 
L 169.122266 238.609008 
L 173.235501 238.248615 
L 177.34839 237.864506 
L 181.46145 237.455071 
L 185.574441 237.018664 
L 189.687437 236.553501 
L 193.800502 236.057679 
L 197.913542 235.529189 
L 202.026564 234.965878 
L 206.139561 234.365452 
L 210.252614 233.725454 
L 214.365628 233.043291 
L 218.478636 232.31618 
L 222.591682 231.541151 
L 226.704689 230.715061 
L 230.817715 229.834533 
L 234.930741 228.895985 
L 239.043754 227.895597 
L 243.156776 226.829289 
L 247.269804 225.692717 
L 251.382825 224.481256 
L 255.495851 223.189966 
L 259.608867 221.813593 
L 263.721889 220.346526 
L 267.834914 218.782789 
L 271.947938 217.116013 
L 276.060957 215.339412 
L 280.17398 213.445744 
L 284.287 211.427298 
L 288.400026 209.275849 
L 292.513044 206.98264 
L 296.626066 204.538323 
L 300.739087 201.932945 
L 304.852113 199.155887 
L 308.965132 196.195848 
L 313.078156 193.04076 
L 317.191178 189.677777 
L 321.304203 186.093196 
L 325.417222 182.272422 
L 329.530244 178.199885 
L 333.643267 173.858997 
L 337.75629 169.232077 
L 341.869309 164.300282 
L 345.982333 159.043513 
L 350.095354 153.440366 
L 354.208378 147.468007 
L 358.321397 141.102123 
L 362.434422 134.316763 
L 366.547443 127.084307 
" clip-path="url(#p7b95c43b9c)" style="fill: none; stroke-dasharray: 3.7,1.6; stroke-dashoffset: 0; stroke: #0000ff"/>
   </g>
   <g id="line2d_39">
    <path d="M 104.885986 244.078125 
L 104.885986 22.318125 
" clip-path="url(#p7b95c43b9c)" style="fill: none; stroke: #ff0000; stroke-width: 0.3; stroke-linecap: square"/>
   </g>
   <g id="line2d_40">
    <path d="M 151.796451 244.078125 
L 151.796451 22.318125 
" clip-path="url(#p7b95c43b9c)" style="fill: none; stroke: #ff0000; stroke-width: 0.3; stroke-linecap: square"/>
   </g>
   <g id="line2d_41">
    <path d="M 239.127513 244.078125 
L 239.127513 22.318125 
" clip-path="url(#p7b95c43b9c)" style="fill: none; stroke: #ff0000; stroke-width: 0.3; stroke-linecap: square"/>
   </g>
   <g id="patch_3">
    <path d="M 46.965625 244.078125 
L 46.965625 22.318125 
" style="fill: none; stroke: #000000; stroke-width: 0.8; stroke-linejoin: miter; stroke-linecap: square"/>
   </g>
   <g id="patch_4">
    <path d="M 381.765625 244.078125 
L 381.765625 22.318125 
" style="fill: none; stroke: #000000; stroke-width: 0.8; stroke-linejoin: miter; stroke-linecap: square"/>
   </g>
   <g id="patch_5">
    <path d="M 46.965625 244.078125 
L 381.765625 244.078125 
" style="fill: none; stroke: #000000; stroke-width: 0.8; stroke-linejoin: miter; stroke-linecap: square"/>
   </g>
   <g id="patch_6">
    <path d="M 46.965625 22.318125 
L 381.765625 22.318125 
" style="fill: none; stroke: #000000; stroke-width: 0.8; stroke-linejoin: miter; stroke-linecap: square"/>
   </g>
   <g id="text_21">
    <!-- L1  -->
    <g style="fill: #ff0000; opacity: 0.5" transform="translate(86.750986 243.412845) scale(0.12 -0.12)">
     <use xlink:href="#DejaVuSans-4c"/>
     <use xlink:href="#DejaVuSans-31" transform="translate(55.712891 0)"/>
     <use xlink:href="#DejaVuSans-20" transform="translate(119.335938 0)"/>
    </g>
   </g>
   <g id="text_22">
    <!-- L2  -->
    <g style="fill: #ff0000; opacity: 0.5" transform="translate(133.661451 243.412845) scale(0.12 -0.12)">
     <use xlink:href="#DejaVuSans-4c"/>
     <use xlink:href="#DejaVuSans-32" transform="translate(55.712891 0)"/>
     <use xlink:href="#DejaVuSans-20" transform="translate(119.335938 0)"/>
    </g>
   </g>
   <g id="text_23">
    <!-- L3  -->
    <g style="fill: #ff0000; opacity: 0.5" transform="translate(220.992513 243.412845) scale(0.12 -0.12)">
     <use xlink:href="#DejaVuSans-4c"/>
     <use xlink:href="#DejaVuSans-33" transform="translate(55.712891 0)"/>
     <use xlink:href="#DejaVuSans-20" transform="translate(119.335938 0)"/>
    </g>
   </g>
   <g id="text_24">
    <!-- RAM -->
    <g style="fill: #ff0000; opacity: 0.5" transform="translate(340.126818 243.412845) scale(0.12 -0.12)">
     <defs>
      <path id="DejaVuSans-52" d="M 2841 2188 
Q 3044 2119 3236 1894 
Q 3428 1669 3622 1275 
L 4263 0 
L 3584 0 
L 2988 1197 
Q 2756 1666 2539 1819 
Q 2322 1972 1947 1972 
L 1259 1972 
L 1259 0 
L 628 0 
L 628 4666 
L 2053 4666 
Q 2853 4666 3247 4331 
Q 3641 3997 3641 3322 
Q 3641 2881 3436 2590 
Q 3231 2300 2841 2188 
z
M 1259 4147 
L 1259 2491 
L 2053 2491 
Q 2509 2491 2742 2702 
Q 2975 2913 2975 3322 
Q 2975 3731 2742 3939 
Q 2509 4147 2053 4147 
L 1259 4147 
z
" transform="scale(0.015625)"/>
     </defs>
     <use xlink:href="#DejaVuSans-52"/>
     <use xlink:href="#DejaVuSans-41" transform="translate(65.482422 0)"/>
     <use xlink:href="#DejaVuSans-4d" transform="translate(133.890625 0)"/>
    </g>
   </g>
   <g id="text_25">
    <!-- Latency of binary search vs random array indexing -->
    <g transform="translate(61.240938 16.318125) scale(0.12 -0.12)">
     <defs>
      <path id="DejaVuSans-6f" d="M 1959 3097 
Q 1497 3097 1228 2736 
Q 959 2375 959 1747 
Q 959 1119 1226 758 
Q 1494 397 1959 397 
Q 2419 397 2687 759 
Q 2956 1122 2956 1747 
Q 2956 2369 2687 2733 
Q 2419 3097 1959 3097 
z
M 1959 3584 
Q 2709 3584 3137 3096 
Q 3566 2609 3566 1747 
Q 3566 888 3137 398 
Q 2709 -91 1959 -91 
Q 1206 -91 779 398 
Q 353 888 353 1747 
Q 353 2609 779 3096 
Q 1206 3584 1959 3584 
z
" transform="scale(0.015625)"/>
      <path id="DejaVuSans-66" d="M 2375 4863 
L 2375 4384 
L 1825 4384 
Q 1516 4384 1395 4259 
Q 1275 4134 1275 3809 
L 1275 3500 
L 2222 3500 
L 2222 3053 
L 1275 3053 
L 1275 0 
L 697 0 
L 697 3053 
L 147 3053 
L 147 3500 
L 697 3500 
L 697 3744 
Q 697 4328 969 4595 
Q 1241 4863 1831 4863 
L 2375 4863 
z
" transform="scale(0.015625)"/>
      <path id="DejaVuSans-62" d="M 3116 1747 
Q 3116 2381 2855 2742 
Q 2594 3103 2138 3103 
Q 1681 3103 1420 2742 
Q 1159 2381 1159 1747 
Q 1159 1113 1420 752 
Q 1681 391 2138 391 
Q 2594 391 2855 752 
Q 3116 1113 3116 1747 
z
M 1159 2969 
Q 1341 3281 1617 3432 
Q 1894 3584 2278 3584 
Q 2916 3584 3314 3078 
Q 3713 2572 3713 1747 
Q 3713 922 3314 415 
Q 2916 -91 2278 -91 
Q 1894 -91 1617 61 
Q 1341 213 1159 525 
L 1159 0 
L 581 0 
L 581 4863 
L 1159 4863 
L 1159 2969 
z
" transform="scale(0.015625)"/>
      <path id="DejaVuSans-68" d="M 3513 2113 
L 3513 0 
L 2938 0 
L 2938 2094 
Q 2938 2591 2744 2837 
Q 2550 3084 2163 3084 
Q 1697 3084 1428 2787 
Q 1159 2491 1159 1978 
L 1159 0 
L 581 0 
L 581 4863 
L 1159 4863 
L 1159 2956 
Q 1366 3272 1645 3428 
Q 1925 3584 2291 3584 
Q 2894 3584 3203 3211 
Q 3513 2838 3513 2113 
z
" transform="scale(0.015625)"/>
      <path id="DejaVuSans-76" d="M 191 3500 
L 800 3500 
L 1894 563 
L 2988 3500 
L 3597 3500 
L 2284 0 
L 1503 0 
L 191 3500 
z
" transform="scale(0.015625)"/>
      <path id="DejaVuSans-64" d="M 2906 2969 
L 2906 4863 
L 3481 4863 
L 3481 0 
L 2906 0 
L 2906 525 
Q 2725 213 2448 61 
Q 2172 -91 1784 -91 
Q 1150 -91 751 415 
Q 353 922 353 1747 
Q 353 2572 751 3078 
Q 1150 3584 1784 3584 
Q 2172 3584 2448 3432 
Q 2725 3281 2906 2969 
z
M 947 1747 
Q 947 1113 1208 752 
Q 1469 391 1925 391 
Q 2381 391 2643 752 
Q 2906 1113 2906 1747 
Q 2906 2381 2643 2742 
Q 2381 3103 1925 3103 
Q 1469 3103 1208 2742 
Q 947 2381 947 1747 
z
" transform="scale(0.015625)"/>
      <path id="DejaVuSans-6d" d="M 3328 2828 
Q 3544 3216 3844 3400 
Q 4144 3584 4550 3584 
Q 5097 3584 5394 3201 
Q 5691 2819 5691 2113 
L 5691 0 
L 5113 0 
L 5113 2094 
Q 5113 2597 4934 2840 
Q 4756 3084 4391 3084 
Q 3944 3084 3684 2787 
Q 3425 2491 3425 1978 
L 3425 0 
L 2847 0 
L 2847 2094 
Q 2847 2600 2669 2842 
Q 2491 3084 2119 3084 
Q 1678 3084 1418 2786 
Q 1159 2488 1159 1978 
L 1159 0 
L 581 0 
L 581 3500 
L 1159 3500 
L 1159 2956 
Q 1356 3278 1631 3431 
Q 1906 3584 2284 3584 
Q 2666 3584 2933 3390 
Q 3200 3197 3328 2828 
z
" transform="scale(0.015625)"/>
      <path id="DejaVuSans-78" d="M 3513 3500 
L 2247 1797 
L 3578 0 
L 2900 0 
L 1881 1375 
L 863 0 
L 184 0 
L 1544 1831 
L 300 3500 
L 978 3500 
L 1906 2253 
L 2834 3500 
L 3513 3500 
z
" transform="scale(0.015625)"/>
      <path id="DejaVuSans-67" d="M 2906 1791 
Q 2906 2416 2648 2759 
Q 2391 3103 1925 3103 
Q 1463 3103 1205 2759 
Q 947 2416 947 1791 
Q 947 1169 1205 825 
Q 1463 481 1925 481 
Q 2391 481 2648 825 
Q 2906 1169 2906 1791 
z
M 3481 434 
Q 3481 -459 3084 -895 
Q 2688 -1331 1869 -1331 
Q 1566 -1331 1297 -1286 
Q 1028 -1241 775 -1147 
L 775 -588 
Q 1028 -725 1275 -790 
Q 1522 -856 1778 -856 
Q 2344 -856 2625 -561 
Q 2906 -266 2906 331 
L 2906 616 
Q 2728 306 2450 153 
Q 2172 0 1784 0 
Q 1141 0 747 490 
Q 353 981 353 1791 
Q 353 2603 747 3093 
Q 1141 3584 1784 3584 
Q 2172 3584 2450 3431 
Q 2728 3278 2906 2969 
L 2906 3500 
L 3481 3500 
L 3481 434 
z
" transform="scale(0.015625)"/>
     </defs>
     <use xlink:href="#DejaVuSans-4c"/>
     <use xlink:href="#DejaVuSans-61" transform="translate(55.712891 0)"/>
     <use xlink:href="#DejaVuSans-74" transform="translate(116.992188 0)"/>
     <use xlink:href="#DejaVuSans-65" transform="translate(156.201172 0)"/>
     <use xlink:href="#DejaVuSans-6e" transform="translate(217.724609 0)"/>
     <use xlink:href="#DejaVuSans-63" transform="translate(281.103516 0)"/>
     <use xlink:href="#DejaVuSans-79" transform="translate(336.083984 0)"/>
     <use xlink:href="#DejaVuSans-20" transform="translate(395.263672 0)"/>
     <use xlink:href="#DejaVuSans-6f" transform="translate(427.050781 0)"/>
     <use xlink:href="#DejaVuSans-66" transform="translate(488.232422 0)"/>
     <use xlink:href="#DejaVuSans-20" transform="translate(523.4375 0)"/>
     <use xlink:href="#DejaVuSans-62" transform="translate(555.224609 0)"/>
     <use xlink:href="#DejaVuSans-69" transform="translate(618.701172 0)"/>
     <use xlink:href="#DejaVuSans-6e" transform="translate(646.484375 0)"/>
     <use xlink:href="#DejaVuSans-61" transform="translate(709.863281 0)"/>
     <use xlink:href="#DejaVuSans-72" transform="translate(771.142578 0)"/>
     <use xlink:href="#DejaVuSans-79" transform="translate(812.255859 0)"/>
     <use xlink:href="#DejaVuSans-20" transform="translate(871.435547 0)"/>
     <use xlink:href="#DejaVuSans-73" transform="translate(903.222656 0)"/>
     <use xlink:href="#DejaVuSans-65" transform="translate(955.322266 0)"/>
     <use xlink:href="#DejaVuSans-61" transform="translate(1016.845703 0)"/>
     <use xlink:href="#DejaVuSans-72" transform="translate(1078.125 0)"/>
     <use xlink:href="#DejaVuSans-63" transform="translate(1116.988281 0)"/>
     <use xlink:href="#DejaVuSans-68" transform="translate(1171.96875 0)"/>
     <use xlink:href="#DejaVuSans-20" transform="translate(1235.347656 0)"/>
     <use xlink:href="#DejaVuSans-76" transform="translate(1267.134766 0)"/>
     <use xlink:href="#DejaVuSans-73" transform="translate(1326.314453 0)"/>
     <use xlink:href="#DejaVuSans-20" transform="translate(1378.414062 0)"/>
     <use xlink:href="#DejaVuSans-72" transform="translate(1410.201172 0)"/>
     <use xlink:href="#DejaVuSans-61" transform="translate(1451.314453 0)"/>
     <use xlink:href="#DejaVuSans-6e" transform="translate(1512.59375 0)"/>
     <use xlink:href="#DejaVuSans-64" transform="translate(1575.972656 0)"/>
     <use xlink:href="#DejaVuSans-6f" transform="translate(1639.449219 0)"/>
     <use xlink:href="#DejaVuSans-6d" transform="translate(1700.630859 0)"/>
     <use xlink:href="#DejaVuSans-20" transform="translate(1798.042969 0)"/>
     <use xlink:href="#DejaVuSans-61" transform="translate(1829.830078 0)"/>
     <use xlink:href="#DejaVuSans-72" transform="translate(1891.109375 0)"/>
     <use xlink:href="#DejaVuSans-72" transform="translate(1930.472656 0)"/>
     <use xlink:href="#DejaVuSans-61" transform="translate(1971.585938 0)"/>
     <use xlink:href="#DejaVuSans-79" transform="translate(2032.865234 0)"/>
     <use xlink:href="#DejaVuSans-20" transform="translate(2092.044922 0)"/>
     <use xlink:href="#DejaVuSans-69" transform="translate(2123.832031 0)"/>
     <use xlink:href="#DejaVuSans-6e" transform="translate(2151.615234 0)"/>
     <use xlink:href="#DejaVuSans-64" transform="translate(2214.994141 0)"/>
     <use xlink:href="#DejaVuSans-65" transform="translate(2278.470703 0)"/>
     <use xlink:href="#DejaVuSans-78" transform="translate(2338.244141 0)"/>
     <use xlink:href="#DejaVuSans-69" transform="translate(2397.423828 0)"/>
     <use xlink:href="#DejaVuSans-6e" transform="translate(2425.207031 0)"/>
     <use xlink:href="#DejaVuSans-67" transform="translate(2488.585938 0)"/>
    </g>
   </g>
   <g id="legend_1">
    <g id="patch_7">
     <path d="M 53.965625 89.030625 
L 158.903125 89.030625 
Q 160.903125 89.030625 160.903125 87.030625 
L 160.903125 29.318125 
Q 160.903125 27.318125 158.903125 27.318125 
L 53.965625 27.318125 
Q 51.965625 27.318125 51.965625 29.318125 
L 51.965625 87.030625 
Q 51.965625 89.030625 53.965625 89.030625 
z
" style="fill: #ffffff; opacity: 0.8; stroke: #cccccc; stroke-linejoin: miter"/>
    </g>
    <g id="line2d_42">
     <path d="M 55.965625 35.416562 
L 65.965625 35.416562 
L 75.965625 35.416562 
" style="fill: none; stroke: #000000; stroke-opacity: 0.6; stroke-width: 1.5; stroke-linecap: square"/>
     <g>
      <use xlink:href="#mf8ef482963" x="65.965625" y="35.416562" style="fill-opacity: 0.6; stroke: #000000; stroke-opacity: 0.6"/>
     </g>
    </g>
    <g id="text_26">
     <!-- Binary Search -->
     <g transform="translate(83.965625 38.916562) scale(0.1 -0.1)">
      <defs>
       <path id="DejaVuSans-53" d="M 3425 4513 
L 3425 3897 
Q 3066 4069 2747 4153 
Q 2428 4238 2131 4238 
Q 1616 4238 1336 4038 
Q 1056 3838 1056 3469 
Q 1056 3159 1242 3001 
Q 1428 2844 1947 2747 
L 2328 2669 
Q 3034 2534 3370 2195 
Q 3706 1856 3706 1288 
Q 3706 609 3251 259 
Q 2797 -91 1919 -91 
Q 1588 -91 1214 -16 
Q 841 59 441 206 
L 441 856 
Q 825 641 1194 531 
Q 1563 422 1919 422 
Q 2459 422 2753 634 
Q 3047 847 3047 1241 
Q 3047 1584 2836 1778 
Q 2625 1972 2144 2069 
L 1759 2144 
Q 1053 2284 737 2584 
Q 422 2884 422 3419 
Q 422 4038 858 4394 
Q 1294 4750 2059 4750 
Q 2388 4750 2728 4690 
Q 3069 4631 3425 4513 
z
" transform="scale(0.015625)"/>
      </defs>
      <use xlink:href="#DejaVuSans-42"/>
      <use xlink:href="#DejaVuSans-69" transform="translate(68.603516 0)"/>
      <use xlink:href="#DejaVuSans-6e" transform="translate(96.386719 0)"/>
      <use xlink:href="#DejaVuSans-61" transform="translate(159.765625 0)"/>
      <use xlink:href="#DejaVuSans-72" transform="translate(221.044922 0)"/>
      <use xlink:href="#DejaVuSans-79" transform="translate(262.158203 0)"/>
      <use xlink:href="#DejaVuSans-20" transform="translate(321.337891 0)"/>
      <use xlink:href="#DejaVuSans-53" transform="translate(353.125 0)"/>
      <use xlink:href="#DejaVuSans-65" transform="translate(416.601562 0)"/>
      <use xlink:href="#DejaVuSans-61" transform="translate(478.125 0)"/>
      <use xlink:href="#DejaVuSans-72" transform="translate(539.404297 0)"/>
      <use xlink:href="#DejaVuSans-63" transform="translate(578.267578 0)"/>
      <use xlink:href="#DejaVuSans-68" transform="translate(633.248047 0)"/>
     </g>
    </g>
    <g id="line2d_43">
     <path d="M 55.965625 50.094687 
L 65.965625 50.094687 
L 75.965625 50.094687 
" style="fill: none; stroke: #008000; stroke-opacity: 0.6; stroke-width: 1.5; stroke-linecap: square"/>
     <g>
      <use xlink:href="#m4d69a25fa3" x="65.965625" y="50.094687" style="fill: #008000; fill-opacity: 0.6; stroke: #008000; stroke-opacity: 0.6"/>
     </g>
    </g>
    <g id="text_27">
     <!-- Array indexing -->
     <g transform="translate(83.965625 53.594687) scale(0.1 -0.1)">
      <use xlink:href="#DejaVuSans-41"/>
      <use xlink:href="#DejaVuSans-72" transform="translate(68.408203 0)"/>
      <use xlink:href="#DejaVuSans-72" transform="translate(107.771484 0)"/>
      <use xlink:href="#DejaVuSans-61" transform="translate(148.884766 0)"/>
      <use xlink:href="#DejaVuSans-79" transform="translate(210.164062 0)"/>
      <use xlink:href="#DejaVuSans-20" transform="translate(269.34375 0)"/>
      <use xlink:href="#DejaVuSans-69" transform="translate(301.130859 0)"/>
      <use xlink:href="#DejaVuSans-6e" transform="translate(328.914062 0)"/>
      <use xlink:href="#DejaVuSans-64" transform="translate(392.292969 0)"/>
      <use xlink:href="#DejaVuSans-65" transform="translate(455.769531 0)"/>
      <use xlink:href="#DejaVuSans-78" transform="translate(515.542969 0)"/>
      <use xlink:href="#DejaVuSans-69" transform="translate(574.722656 0)"/>
      <use xlink:href="#DejaVuSans-6e" transform="translate(602.505859 0)"/>
      <use xlink:href="#DejaVuSans-67" transform="translate(665.884766 0)"/>
     </g>
    </g>
    <g id="line2d_44">
     <path d="M 55.965625 64.772812 
L 65.965625 64.772812 
L 75.965625 64.772812 
" style="fill: none; stroke: #0000ff; stroke-width: 0.7; stroke-linecap: square"/>
    </g>
    <g id="text_28">
     <!-- ~lg(n) -->
     <g transform="translate(83.965625 68.272812) scale(0.1 -0.1)">
      <defs>
       <path id="DejaVuSans-7e" d="M 4684 2553 
L 4684 1997 
Q 4356 1750 4076 1644 
Q 3797 1538 3494 1538 
Q 3150 1538 2694 1722 
Q 2659 1734 2644 1741 
Q 2622 1750 2575 1766 
Q 2091 1959 1797 1959 
Q 1522 1959 1253 1839 
Q 984 1719 678 1459 
L 678 2016 
Q 1006 2263 1286 2370 
Q 1566 2478 1869 2478 
Q 2213 2478 2672 2291 
Q 2703 2278 2719 2272 
Q 2744 2263 2788 2247 
Q 3272 2053 3566 2053 
Q 3834 2053 4098 2172 
Q 4363 2291 4684 2553 
z
" transform="scale(0.015625)"/>
       <path id="DejaVuSans-6c" d="M 603 4863 
L 1178 4863 
L 1178 0 
L 603 0 
L 603 4863 
z
" transform="scale(0.015625)"/>
      </defs>
      <use xlink:href="#DejaVuSans-7e"/>
      <use xlink:href="#DejaVuSans-6c" transform="translate(83.789062 0)"/>
      <use xlink:href="#DejaVuSans-67" transform="translate(111.572266 0)"/>
      <use xlink:href="#DejaVuSans-28" transform="translate(175.048828 0)"/>
      <use xlink:href="#DejaVuSans-6e" transform="translate(214.0625 0)"/>
      <use xlink:href="#DejaVuSans-29" transform="translate(277.441406 0)"/>
     </g>
    </g>
    <g id="line2d_45">
     <path d="M 55.965625 79.450937 
L 65.965625 79.450937 
L 75.965625 79.450937 
" style="fill: none; stroke-dasharray: 3.7,1.6; stroke-dashoffset: 0; stroke: #0000ff"/>
    </g>
    <g id="text_29">
     <!-- ~n^0.35 -->
     <g transform="translate(83.965625 82.950937) scale(0.1 -0.1)">
      <defs>
       <path id="DejaVuSans-5e" d="M 2988 4666 
L 4684 2925 
L 4056 2925 
L 2681 4159 
L 1306 2925 
L 678 2925 
L 2375 4666 
L 2988 4666 
z
" transform="scale(0.015625)"/>
       <path id="DejaVuSans-2e" d="M 684 794 
L 1344 794 
L 1344 0 
L 684 0 
L 684 794 
z
" transform="scale(0.015625)"/>
      </defs>
      <use xlink:href="#DejaVuSans-7e"/>
      <use xlink:href="#DejaVuSans-6e" transform="translate(83.789062 0)"/>
      <use xlink:href="#DejaVuSans-5e" transform="translate(147.167969 0)"/>
      <use xlink:href="#DejaVuSans-30" transform="translate(230.957031 0)"/>
      <use xlink:href="#DejaVuSans-2e" transform="translate(294.580078 0)"/>
      <use xlink:href="#DejaVuSans-33" transform="translate(326.367188 0)"/>
      <use xlink:href="#DejaVuSans-35" transform="translate(389.990234 0)"/>
     </g>
    </g>
   </g>
  </g>
 </g>
 <defs>
  <clipPath id="p7b95c43b9c">
   <rect x="46.965625" y="22.318125" width="334.8" height="221.76"/>
  </clipPath>
 </defs>
</svg>
