<?xml version="1.0" encoding="UTF-8"?>
<svg xmlns="http://www.w3.org/2000/svg" xmlns:xlink="http://www.w3.org/1999/xlink" width="86" height="102" viewBox="0 0 86 102">
<path fill="none" stroke-width="0.4" stroke-linecap="round" stroke-linejoin="round" stroke="rgb(99%, 75.4%, 2.7%)" stroke-opacity="1" stroke-miterlimit="10" d="M 64 800.023438 L 144 704.023438 " transform="matrix(1, 0, 0, -1, -61, 803)"/>
<path fill="none" stroke-width="0.4" stroke-linecap="round" stroke-linejoin="round" stroke="rgb(99%, 75.4%, 2.7%)" stroke-opacity="1" stroke-miterlimit="10" d="M 71.785156 747.355469 L 64 800 L 114.886719 791.359375 " transform="matrix(1, 0, 0, -1, -61, 803)"/>
<path fill="none" stroke-width="0.4" stroke-linecap="round" stroke-linejoin="round" stroke="rgb(0%, 0%, 0%)" stroke-opacity="1" stroke-miterlimit="10" d="M 64 800.023438 L 64 704.023438 L 144 704.023438 L 144 800.023438 L 64 800.023438 " transform="matrix(1, 0, 0, -1, -61, 803)"/>
<path fill-rule="evenodd" fill="rgb(0%, 0%, 0%)" fill-opacity="1" d="M 4.800781 2.976562 C 4.800781 0.574219 1.199219 0.574219 1.199219 2.976562 C 1.199219 5.375 4.800781 5.375 4.800781 2.976562 Z M 4.800781 2.976562 "/>
<path fill-rule="evenodd" fill="rgb(0%, 0%, 0%)" fill-opacity="1" d="M 84.800781 98.976562 C 84.800781 96.574219 81.199219 96.574219 81.199219 98.976562 C 81.199219 101.375 84.800781 101.375 84.800781 98.976562 Z M 84.800781 98.976562 "/>
<path fill="none" stroke-width="0.4" stroke-linecap="round" stroke-linejoin="round" stroke="rgb(99%, 75.4%, 2.7%)" stroke-opacity="1" stroke-miterlimit="10" d="M 117.414062 783.777344 L 70.972656 791.65625 L 79.652344 742.632812 " transform="matrix(1, 0, 0, -1, -61, 803)"/>
<path fill="none" stroke-width="0.4" stroke-linecap="round" stroke-linejoin="round" stroke="rgb(99%, 75.4%, 2.7%)" stroke-opacity="1" stroke-miterlimit="10" d="M 87.484375 737.933594 L 80.089844 780.714844 L 120.675781 773.996094 " transform="matrix(1, 0, 0, -1, -61, 803)"/>
<path fill="none" stroke-width="0.4" stroke-linecap="round" stroke-linejoin="round" stroke="rgb(99%, 75.4%, 2.7%)" stroke-opacity="1" stroke-miterlimit="10" d="M 123.703125 764.914062 L 87.480469 771.84375 L 95.039062 733.398438 " transform="matrix(1, 0, 0, -1, -61, 803)"/>
<path fill="none" stroke-width="0.4" stroke-linecap="round" stroke-linejoin="round" stroke="rgb(99%, 75.4%, 2.7%)" stroke-opacity="1" stroke-miterlimit="10" d="M 102.921875 728.671875 L 95.953125 761.679688 L 126.757812 755.746094 " transform="matrix(1, 0, 0, -1, -61, 803)"/>
<path fill="none" stroke-width="0.4" stroke-linecap="round" stroke-linejoin="round" stroke="rgb(99%, 75.4%, 2.7%)" stroke-opacity="1" stroke-miterlimit="10" d="M 130.058594 745.851562 L 104.726562 751.148438 L 110.359375 724.210938 " transform="matrix(1, 0, 0, -1, -61, 803)"/>
<path fill="none" stroke-width="0.4" stroke-linecap="round" stroke-linejoin="round" stroke="rgb(99%, 75.4%, 2.7%)" stroke-opacity="1" stroke-miterlimit="10" d="M 117.988281 719.628906 L 114.148438 739.847656 L 133.316406 736.070312 " transform="matrix(1, 0, 0, -1, -61, 803)"/>
<path fill="none" stroke-width="0.4" stroke-linecap="round" stroke-linejoin="round" stroke="rgb(99%, 75.4%, 2.7%)" stroke-opacity="1" stroke-miterlimit="10" d="M 136.03125 727.925781 L 121.605469 730.894531 L 124.402344 715.78125 " transform="matrix(1, 0, 0, -1, -61, 803)"/>
<path fill="none" stroke-width="0.4" stroke-linecap="round" stroke-linejoin="round" stroke="rgb(99%, 75.4%, 2.7%)" stroke-opacity="1" stroke-miterlimit="10" d="M 132.0625 711.1875 L 129.449219 721.484375 L 138.867188 719.417969 " transform="matrix(1, 0, 0, -1, -61, 803)"/>
</svg>
