<?xml version="1.0" encoding="UTF-8"?>
<svg xmlns="http://www.w3.org/2000/svg" xmlns:xlink="http://www.w3.org/1999/xlink" width="86" height="102" viewBox="0 0 86 102">
<path fill="none" stroke-width="0.4" stroke-linecap="round" stroke-linejoin="round" stroke="rgb(0%, 0%, 0%)" stroke-opacity="1" stroke-miterlimit="10" d="M 64 800 L 64 704 L 144 704 L 144 800 L 64 800 " transform="matrix(1, 0, 0, -1, -61, 803)"/>
<path fill-rule="evenodd" fill="rgb(0%, 0%, 0%)" fill-opacity="1" d="M 4.800781 3 C 4.800781 0.601562 1.199219 0.601562 1.199219 3 C 1.199219 5.398438 4.800781 5.398438 4.800781 3 Z M 4.800781 3 "/>
<path fill-rule="evenodd" fill="rgb(0%, 0%, 0%)" fill-opacity="1" d="M 84.800781 99 C 84.800781 96.601562 81.199219 96.601562 81.199219 99 C 81.199219 101.398438 84.800781 101.398438 84.800781 99 Z M 84.800781 99 "/>
<path fill-rule="evenodd" fill="rgb(99%, 75.4%, 2.7%)" fill-opacity="0.3" stroke-width="0.1" stroke-linecap="round" stroke-linejoin="round" stroke="rgb(0%, 0%, 0%)" stroke-opacity="1" stroke-miterlimit="10" d="M 64 800 L 104 748 L 64 784 Z M 64 800 " transform="matrix(1, 0, 0, -1, -61, 803)"/>
<path fill-rule="evenodd" fill="rgb(99%, 75.4%, 2.7%)" fill-opacity="0.3" stroke-width="0.1" stroke-linecap="round" stroke-linejoin="round" stroke="rgb(0%, 0%, 0%)" stroke-opacity="1" stroke-miterlimit="10" d="M 84 800 L 144 712 L 144 704 L 136 704 L 64 764 L 64 800 Z M 84 800 " transform="matrix(1, 0, 0, -1, -61, 803)"/>
</svg>
