<?xml version="1.0" encoding="UTF-8"?>
<svg xmlns="http://www.w3.org/2000/svg" xmlns:xlink="http://www.w3.org/1999/xlink" width="278" height="38" viewBox="0 0 278 38">
<defs>
<g>
<g id="glyph-0-0">
<path d="M 2.3125 -2.21875 L 1.890625 -2.21875 L 1.890625 -0.765625 C 1.890625 -0.375 1.546875 -0.25 1.25 -0.25 C 0.890625 -0.25 0.84375 -0.34375 0.84375 -0.578125 L 0.84375 -2.21875 L 0.40625 -2.21875 L 0.40625 -0.546875 C 0.40625 -0.09375 0.609375 0.046875 0.953125 0.046875 C 1.15625 0.046875 1.59375 0.015625 1.90625 -0.234375 L 1.90625 0 L 2.3125 0 Z M 2.3125 -2.21875 "/>
</g>
<g id="glyph-0-1">
<path d="M 2.1875 -3.28125 C 1.921875 -3.375 1.734375 -3.375 1.640625 -3.375 C 0.875 -3.375 0.21875 -2.65625 0.21875 -1.609375 C 0.21875 -0.265625 0.828125 0.109375 1.328125 0.109375 C 1.734375 0.109375 1.9375 -0.078125 2.09375 -0.25 C 2.421875 -0.578125 2.421875 -0.9375 2.421875 -1.109375 C 2.421875 -1.765625 2.0625 -2.3125 1.578125 -2.3125 C 1.09375 -2.3125 0.828125 -2.046875 0.6875 -1.90625 C 0.75 -2.59375 1.09375 -3.0625 1.640625 -3.0625 C 1.734375 -3.0625 1.9375 -3.0625 2.1875 -2.953125 Z M 0.6875 -1.09375 C 0.6875 -1.125 0.6875 -1.203125 0.703125 -1.21875 C 0.703125 -1.5625 0.90625 -1.984375 1.359375 -1.984375 C 1.96875 -1.984375 1.96875 -1.28125 1.96875 -1.109375 C 1.96875 -0.921875 1.96875 -0.71875 1.828125 -0.5 C 1.703125 -0.328125 1.5625 -0.21875 1.328125 -0.21875 C 0.796875 -0.21875 0.71875 -0.875 0.6875 -1.09375 Z M 0.6875 -1.09375 "/>
</g>
<g id="glyph-0-2">
<path d="M 1.96875 -0.828125 L 2.5 -0.828125 L 2.5 -1.15625 L 1.96875 -1.15625 L 1.96875 -3.265625 L 1.484375 -3.265625 L 0.15625 -1.15625 L 0.15625 -0.828125 L 1.546875 -0.828125 L 1.546875 0 L 1.96875 0 Z M 0.578125 -1.15625 C 0.71875 -1.390625 1.578125 -2.71875 1.578125 -3.03125 L 1.578125 -1.15625 Z M 0.578125 -1.15625 "/>
</g>
<g id="glyph-0-3">
<path d="M 2.5 -1.09375 C 2.5 -1.75 1.96875 -2.28125 1.328125 -2.28125 C 0.671875 -2.28125 0.15625 -1.75 0.15625 -1.09375 C 0.15625 -0.453125 0.671875 0.046875 1.328125 0.046875 C 1.96875 0.046875 2.5 -0.453125 2.5 -1.09375 Z M 1.328125 -0.296875 C 0.921875 -0.296875 0.578125 -0.578125 0.578125 -1.140625 C 0.578125 -1.703125 0.953125 -1.953125 1.328125 -1.953125 C 1.6875 -1.953125 2.0625 -1.703125 2.0625 -1.140625 C 2.0625 -0.578125 1.703125 -0.296875 1.328125 -0.296875 Z M 1.328125 -0.296875 "/>
</g>
<g id="glyph-0-4">
<path d="M 0.953125 -1.90625 L 1.515625 -1.90625 L 1.515625 -2.21875 L 0.9375 -2.21875 L 0.9375 -2.78125 C 0.9375 -3.140625 1.265625 -3.1875 1.40625 -3.1875 C 1.53125 -3.1875 1.671875 -3.171875 1.84375 -3.09375 L 1.84375 -3.453125 C 1.703125 -3.484375 1.5625 -3.515625 1.421875 -3.515625 C 0.90625 -3.515625 0.53125 -3.140625 0.53125 -2.640625 L 0.53125 -2.21875 L 0.140625 -2.21875 L 0.140625 -1.90625 L 0.53125 -1.90625 L 0.53125 0 L 0.953125 0 Z M 2.40625 -1.90625 L 2.984375 -1.90625 L 2.984375 -2.21875 L 2.390625 -2.21875 L 2.390625 -2.78125 C 2.390625 -3.140625 2.734375 -3.1875 2.875 -3.1875 C 3 -3.1875 3.125 -3.171875 3.296875 -3.09375 L 3.296875 -3.453125 C 3.171875 -3.484375 3.015625 -3.515625 2.890625 -3.515625 C 2.375 -3.515625 2 -3.140625 2 -2.640625 L 2 0 L 2.40625 0 Z M 2.40625 -1.90625 "/>
</g>
<g id="glyph-0-5">
<path d="M 1.8125 -2.140625 C 1.484375 -2.265625 1.234375 -2.28125 1.046875 -2.28125 C 0.921875 -2.28125 0.171875 -2.28125 0.171875 -1.625 C 0.171875 -1.390625 0.296875 -1.265625 0.375 -1.203125 C 0.546875 -1.03125 0.75 -0.984375 1.015625 -0.9375 C 1.25 -0.890625 1.515625 -0.84375 1.515625 -0.609375 C 1.515625 -0.296875 1.109375 -0.296875 1.03125 -0.296875 C 0.71875 -0.296875 0.421875 -0.40625 0.21875 -0.546875 L 0.15625 -0.171875 C 0.3125 -0.078125 0.625 0.046875 1.03125 0.046875 C 1.265625 0.046875 1.484375 0.015625 1.671875 -0.125 C 1.84375 -0.265625 1.90625 -0.484375 1.90625 -0.640625 C 1.90625 -0.734375 1.90625 -0.9375 1.6875 -1.125 C 1.5 -1.28125 1.328125 -1.328125 1.09375 -1.359375 C 0.796875 -1.421875 0.5625 -1.46875 0.5625 -1.6875 C 0.5625 -1.96875 0.921875 -1.96875 1 -1.96875 C 1.28125 -1.96875 1.5 -1.90625 1.75 -1.78125 Z M 1.8125 -2.140625 "/>
</g>
<g id="glyph-0-6">
<path d="M 2.140625 -0.546875 C 1.859375 -0.34375 1.546875 -0.28125 1.328125 -0.28125 C 0.90625 -0.28125 0.578125 -0.640625 0.5625 -1.09375 L 2.1875 -1.09375 C 2.1875 -1.328125 2.171875 -1.65625 1.96875 -1.9375 C 1.796875 -2.1875 1.5 -2.28125 1.25 -2.28125 C 0.640625 -2.28125 0.171875 -1.75 0.171875 -1.125 C 0.171875 -0.484375 0.671875 0.046875 1.328125 0.046875 C 1.625 0.046875 1.921875 -0.03125 2.171875 -0.1875 Z M 0.59375 -1.390625 C 0.703125 -1.796875 1 -1.953125 1.25 -1.953125 C 1.46875 -1.953125 1.796875 -1.859375 1.890625 -1.390625 Z M 0.59375 -1.390625 "/>
</g>
<g id="glyph-0-7">
<path d="M 0.9375 -1.90625 L 1.671875 -1.90625 L 1.671875 -2.21875 L 0.9375 -2.21875 L 0.9375 -2.84375 L 0.546875 -2.84375 L 0.546875 -2.21875 L 0.09375 -2.21875 L 0.09375 -1.90625 L 0.53125 -1.90625 L 0.53125 -0.640625 C 0.53125 -0.296875 0.625 0.046875 0.984375 0.046875 C 1.34375 0.046875 1.609375 -0.0625 1.765625 -0.140625 L 1.6875 -0.453125 C 1.515625 -0.328125 1.34375 -0.296875 1.203125 -0.296875 C 0.984375 -0.296875 0.9375 -0.5 0.9375 -0.734375 Z M 0.9375 -1.90625 "/>
</g>
<g id="glyph-1-0">
<path d="M 2.3125 -2.21875 L 1.890625 -2.21875 L 1.890625 -0.765625 C 1.890625 -0.375 1.546875 -0.25 1.25 -0.25 C 0.890625 -0.25 0.84375 -0.34375 0.84375 -0.578125 L 0.84375 -2.21875 L 0.40625 -2.21875 L 0.40625 -0.546875 C 0.40625 -0.09375 0.609375 0.046875 0.953125 0.046875 C 1.15625 0.046875 1.59375 0.015625 1.90625 -0.234375 L 1.90625 0 L 2.3125 0 Z M 2.3125 -2.21875 "/>
</g>
<g id="glyph-1-1">
<path d="M 0.8125 -2.921875 L 2.203125 -2.921875 L 2.203125 -3.265625 L 0.421875 -3.265625 L 0.421875 -1.40625 L 0.78125 -1.40625 C 0.90625 -1.671875 1.140625 -1.796875 1.359375 -1.796875 C 1.5625 -1.796875 1.875 -1.65625 1.875 -1.015625 C 1.875 -0.375 1.453125 -0.21875 1.203125 -0.21875 C 0.875 -0.21875 0.5625 -0.40625 0.390625 -0.6875 L 0.203125 -0.390625 C 0.4375 -0.078125 0.8125 0.109375 1.203125 0.109375 C 1.859375 0.109375 2.375 -0.40625 2.375 -1.015625 C 2.375 -1.625 1.921875 -2.125 1.375 -2.125 C 1.15625 -2.125 0.96875 -2.046875 0.8125 -1.921875 Z M 0.8125 -2.921875 "/>
</g>
<g id="glyph-1-2">
<path d="M 1.59375 -3.375 L 1.484375 -3.375 C 1.171875 -3.078125 0.75 -3.0625 0.453125 -3.046875 L 0.453125 -2.734375 C 0.65625 -2.734375 0.90625 -2.75 1.15625 -2.84375 L 1.15625 -0.3125 L 0.484375 -0.3125 L 0.484375 0 L 2.265625 0 L 2.265625 -0.3125 L 1.59375 -0.3125 Z M 1.59375 -3.375 "/>
</g>
<g id="glyph-1-3">
<path d="M 1.40625 -0.390625 C 1.34375 -0.390625 1.296875 -0.375 1.234375 -0.375 L 0.65625 -0.375 L 1.4375 -1.0625 C 1.53125 -1.140625 1.765625 -1.328125 1.859375 -1.40625 C 2.078125 -1.609375 2.375 -1.859375 2.375 -2.296875 C 2.375 -2.859375 1.953125 -3.375 1.25 -3.375 C 0.71875 -3.375 0.390625 -3.09375 0.21875 -2.578125 L 0.453125 -2.28125 C 0.5625 -2.703125 0.75 -3.03125 1.171875 -3.03125 C 1.59375 -3.03125 1.90625 -2.734375 1.90625 -2.28125 C 1.90625 -1.875 1.671875 -1.640625 1.375 -1.359375 C 1.265625 -1.25 1 -1.03125 0.890625 -0.9375 C 0.75 -0.796875 0.40625 -0.46875 0.265625 -0.34375 L 0.265625 0 L 2.375 0 L 2.375 -0.390625 Z M 1.40625 -0.390625 "/>
</g>
<g id="glyph-2-0">
<path d="M 0.984375 -3.453125 L 0.484375 -3.453125 L 0.484375 0 L 2.65625 0 L 2.65625 -0.359375 C 2.1875 -0.359375 1.703125 -0.34375 1.234375 -0.34375 L 0.984375 -0.34375 Z M 0.984375 -3.453125 "/>
</g>
<g id="glyph-2-1">
<path d="M 1.59375 -3.375 L 1.484375 -3.375 C 1.171875 -3.078125 0.75 -3.0625 0.453125 -3.046875 L 0.453125 -2.734375 C 0.65625 -2.734375 0.90625 -2.75 1.15625 -2.84375 L 1.15625 -0.3125 L 0.484375 -0.3125 L 0.484375 0 L 2.265625 0 L 2.265625 -0.3125 L 1.59375 -0.3125 Z M 1.59375 -3.375 "/>
</g>
<g id="glyph-2-2">
<path d="M 0.953125 -2.21875 L 0.515625 -2.21875 L 0.515625 -1.765625 L 0.953125 -1.765625 Z M 0.515625 -0.453125 L 0.515625 0 L 0.953125 0 L 0.953125 -0.453125 Z M 0.515625 -0.453125 "/>
</g>
<g id="glyph-2-3">
<path d="M 1.40625 -0.390625 C 1.34375 -0.390625 1.296875 -0.375 1.234375 -0.375 L 0.65625 -0.375 L 1.4375 -1.0625 C 1.53125 -1.140625 1.765625 -1.328125 1.859375 -1.40625 C 2.078125 -1.609375 2.375 -1.859375 2.375 -2.296875 C 2.375 -2.859375 1.953125 -3.375 1.25 -3.375 C 0.71875 -3.375 0.390625 -3.09375 0.21875 -2.578125 L 0.453125 -2.28125 C 0.5625 -2.703125 0.75 -3.03125 1.171875 -3.03125 C 1.59375 -3.03125 1.90625 -2.734375 1.90625 -2.28125 C 1.90625 -1.875 1.671875 -1.640625 1.375 -1.359375 C 1.265625 -1.25 1 -1.03125 0.890625 -0.9375 C 0.75 -0.796875 0.40625 -0.46875 0.265625 -0.34375 L 0.265625 0 L 2.375 0 L 2.375 -0.390625 Z M 1.40625 -0.390625 "/>
</g>
<g id="glyph-2-4">
<path d="M 0.953125 -0.453125 L 0.515625 -0.453125 L 0.515625 0 L 0.953125 0 Z M 0.953125 -0.453125 "/>
</g>
<g id="glyph-2-5">
<path d="M 0.8125 -2.921875 L 2.203125 -2.921875 L 2.203125 -3.265625 L 0.421875 -3.265625 L 0.421875 -1.40625 L 0.78125 -1.40625 C 0.90625 -1.671875 1.140625 -1.796875 1.359375 -1.796875 C 1.5625 -1.796875 1.875 -1.65625 1.875 -1.015625 C 1.875 -0.375 1.453125 -0.21875 1.203125 -0.21875 C 0.875 -0.21875 0.5625 -0.40625 0.390625 -0.6875 L 0.203125 -0.390625 C 0.4375 -0.078125 0.8125 0.109375 1.203125 0.109375 C 1.859375 0.109375 2.375 -0.40625 2.375 -1.015625 C 2.375 -1.625 1.921875 -2.125 1.375 -2.125 C 1.15625 -2.125 0.96875 -2.046875 0.8125 -1.921875 Z M 0.8125 -2.921875 "/>
</g>
<g id="glyph-2-6">
<path d="M 3.453125 -3.515625 C 3.5 -3.578125 3.5 -3.59375 3.5 -3.625 C 3.5 -3.6875 3.453125 -3.734375 3.390625 -3.734375 C 3.328125 -3.734375 3.3125 -3.703125 3.265625 -3.640625 L 0.96875 0.0625 C 0.9375 0.109375 0.921875 0.125 0.921875 0.171875 C 0.921875 0.234375 0.96875 0.28125 1.03125 0.28125 C 1.09375 0.28125 1.109375 0.25 1.140625 0.203125 Z M 4.109375 -0.71875 C 4.109375 -1.296875 3.765625 -1.734375 3.390625 -1.734375 C 3.015625 -1.734375 2.640625 -1.3125 2.640625 -0.734375 C 2.640625 -0.125 3.015625 0.28125 3.390625 0.28125 C 3.78125 0.28125 4.109375 -0.15625 4.109375 -0.71875 Z M 3.390625 -0.046875 C 3.28125 -0.046875 3.171875 -0.140625 3.109375 -0.28125 C 3.0625 -0.421875 3.046875 -0.578125 3.046875 -0.71875 C 3.046875 -1.359375 3.3125 -1.40625 3.390625 -1.40625 C 3.59375 -1.40625 3.75 -1.078125 3.75 -0.734375 C 3.75 -0.359375 3.59375 -0.046875 3.390625 -0.046875 Z M 1.765625 -2.734375 C 1.765625 -3.3125 1.421875 -3.734375 1.03125 -3.734375 C 0.671875 -3.734375 0.296875 -3.34375 0.296875 -2.734375 C 0.296875 -2.140625 0.65625 -1.734375 1.03125 -1.734375 C 1.421875 -1.734375 1.765625 -2.171875 1.765625 -2.734375 Z M 1.03125 -2.0625 C 0.921875 -2.0625 0.828125 -2.140625 0.765625 -2.28125 C 0.703125 -2.421875 0.703125 -2.578125 0.703125 -2.734375 C 0.703125 -3.359375 0.953125 -3.40625 1.03125 -3.40625 C 1.25 -3.40625 1.390625 -3.09375 1.390625 -2.734375 C 1.390625 -2.359375 1.234375 -2.0625 1.03125 -2.0625 Z M 1.03125 -2.0625 "/>
</g>
<g id="glyph-2-7">
<path d="M 2.5 -1.09375 C 2.5 -1.75 1.96875 -2.28125 1.328125 -2.28125 C 0.671875 -2.28125 0.15625 -1.75 0.15625 -1.09375 C 0.15625 -0.453125 0.671875 0.046875 1.328125 0.046875 C 1.96875 0.046875 2.5 -0.453125 2.5 -1.09375 Z M 1.328125 -0.296875 C 0.921875 -0.296875 0.578125 -0.578125 0.578125 -1.140625 C 0.578125 -1.703125 0.953125 -1.953125 1.328125 -1.953125 C 1.6875 -1.953125 2.0625 -1.703125 2.0625 -1.140625 C 2.0625 -0.578125 1.703125 -0.296875 1.328125 -0.296875 Z M 1.328125 -0.296875 "/>
</g>
<g id="glyph-2-8">
<path d="M 2.359375 -2.21875 L 1.96875 -2.21875 C 1.28125 -0.546875 1.25 -0.40625 1.234375 -0.296875 L 1.21875 -0.296875 C 1.1875 -0.484375 1.046875 -0.84375 0.890625 -1.21875 L 0.5 -2.21875 L 0.078125 -2.21875 L 0.984375 0 L 1.453125 0 Z M 2.359375 -2.21875 "/>
</g>
<g id="glyph-2-9">
<path d="M 2.140625 -0.546875 C 1.859375 -0.34375 1.546875 -0.28125 1.328125 -0.28125 C 0.90625 -0.28125 0.578125 -0.640625 0.5625 -1.09375 L 2.1875 -1.09375 C 2.1875 -1.328125 2.171875 -1.65625 1.96875 -1.9375 C 1.796875 -2.1875 1.5 -2.28125 1.25 -2.28125 C 0.640625 -2.28125 0.171875 -1.75 0.171875 -1.125 C 0.171875 -0.484375 0.671875 0.046875 1.328125 0.046875 C 1.625 0.046875 1.921875 -0.03125 2.171875 -0.1875 Z M 0.59375 -1.390625 C 0.703125 -1.796875 1 -1.953125 1.25 -1.953125 C 1.46875 -1.953125 1.796875 -1.859375 1.890625 -1.390625 Z M 0.59375 -1.390625 "/>
</g>
<g id="glyph-2-10">
<path d="M 0.84375 -1.0625 C 0.84375 -1.59375 1.296875 -1.890625 1.734375 -1.890625 L 1.734375 -2.265625 C 1.3125 -2.265625 1 -2.046875 0.8125 -1.796875 L 0.8125 -2.25 L 0.421875 -2.25 L 0.421875 0 L 0.84375 0 Z M 0.84375 -1.0625 "/>
</g>
<g id="glyph-2-11">
<path d="M 2.3125 -1.46875 C 2.3125 -1.859375 2.203125 -2.265625 1.59375 -2.265625 C 1.15625 -2.265625 0.9375 -2.015625 0.828125 -1.90625 L 0.828125 -3.453125 L 0.40625 -3.453125 L 0.40625 0 L 0.84375 0 L 0.84375 -1.21875 C 0.84375 -1.546875 0.984375 -1.9375 1.375 -1.9375 C 1.890625 -1.9375 1.890625 -1.578125 1.890625 -1.4375 L 1.890625 0 L 2.3125 0 Z M 2.3125 -1.46875 "/>
</g>
<g id="glyph-2-12">
<path d="M 2.125 -1.4375 C 2.125 -1.9375 1.734375 -2.28125 1.234375 -2.28125 C 0.921875 -2.28125 0.6875 -2.21875 0.40625 -2.078125 L 0.4375 -1.703125 C 0.609375 -1.8125 0.84375 -1.96875 1.234375 -1.96875 C 1.453125 -1.96875 1.6875 -1.796875 1.6875 -1.4375 L 1.6875 -1.234375 C 0.953125 -1.203125 0.21875 -1.046875 0.21875 -0.59375 C 0.21875 -0.34375 0.390625 0.046875 0.828125 0.046875 C 1.046875 0.046875 1.4375 0 1.703125 -0.1875 L 1.703125 0 L 2.125 0 Z M 1.6875 -0.703125 C 1.6875 -0.609375 1.6875 -0.484375 1.515625 -0.375 C 1.359375 -0.28125 1.15625 -0.28125 1.109375 -0.28125 C 0.828125 -0.28125 0.625 -0.40625 0.625 -0.59375 C 0.625 -0.90625 1.46875 -0.9375 1.6875 -0.953125 Z M 1.6875 -0.703125 "/>
</g>
<g id="glyph-2-13">
<path d="M 2.3125 -3.453125 L 1.890625 -3.453125 L 1.890625 -2 C 1.5625 -2.234375 1.25 -2.265625 1.09375 -2.265625 C 0.578125 -2.265625 0.171875 -1.734375 0.171875 -1.109375 C 0.171875 -0.46875 0.578125 0.046875 1.09375 0.046875 C 1.390625 0.046875 1.6875 -0.09375 1.875 -0.265625 L 1.875 0 L 2.3125 0 Z M 1.875 -0.625 C 1.75 -0.40625 1.5625 -0.28125 1.328125 -0.28125 C 0.96875 -0.28125 0.609375 -0.515625 0.609375 -1.09375 C 0.609375 -1.71875 1.03125 -1.9375 1.375 -1.9375 C 1.578125 -1.9375 1.75 -1.84375 1.875 -1.6875 Z M 1.875 -0.625 "/>
</g>
</g>
<clipPath id="clip-0">
<path clip-rule="nonzero" d="M 7 5.539062 L 30.84375 5.539062 L 30.84375 9 L 7 9 Z M 7 5.539062 "/>
</clipPath>
<clipPath id="clip-1">
<path clip-rule="nonzero" d="M 143 9.730469 L 153.671875 9.730469 L 153.671875 13 L 143 13 Z M 143 9.730469 "/>
</clipPath>
<clipPath id="clip-2">
<path clip-rule="nonzero" d="M 159 9.730469 L 169.671875 9.730469 L 169.671875 13 L 159 13 Z M 159 9.730469 "/>
</clipPath>
<clipPath id="clip-3">
<path clip-rule="nonzero" d="M 175 9.730469 L 185.671875 9.730469 L 185.671875 13 L 175 13 Z M 175 9.730469 "/>
</clipPath>
<clipPath id="clip-4">
<path clip-rule="nonzero" d="M 191 9.730469 L 201.671875 9.730469 L 201.671875 13 L 191 13 Z M 191 9.730469 "/>
</clipPath>
<clipPath id="clip-5">
<path clip-rule="nonzero" d="M 207 9.730469 L 217.671875 9.730469 L 217.671875 13 L 207 13 Z M 207 9.730469 "/>
</clipPath>
<clipPath id="clip-6">
<path clip-rule="nonzero" d="M 223 9.730469 L 233.671875 9.730469 L 233.671875 13 L 223 13 Z M 223 9.730469 "/>
</clipPath>
<clipPath id="clip-7">
<path clip-rule="nonzero" d="M 239 9.730469 L 249.671875 9.730469 L 249.671875 13 L 239 13 Z M 239 9.730469 "/>
</clipPath>
<clipPath id="clip-8">
<path clip-rule="nonzero" d="M 255 9.730469 L 265.671875 9.730469 L 265.671875 13 L 255 13 Z M 255 9.730469 "/>
</clipPath>
<clipPath id="clip-9">
<path clip-rule="nonzero" d="M 5 23.257812 L 49.539062 23.257812 L 49.539062 27.269531 L 5 27.269531 Z M 5 23.257812 "/>
</clipPath>
</defs>
<path fill="none" stroke-width="1" stroke-linecap="round" stroke-linejoin="round" stroke="rgb(0%, 54.5%, 54.5%)" stroke-opacity="1" stroke-miterlimit="10" d="M 120 692 L 136 692 " transform="matrix(1, 0, 0, -1, -3, 711)"/>
<g clip-path="url(#clip-0)">
<g fill="rgb(0%, 54.5%, 54.5%)" fill-opacity="1">
<use xlink:href="#glyph-0-0" x="7" y="9"/>
<use xlink:href="#glyph-0-1" x="9.729752" y="9"/>
<use xlink:href="#glyph-0-2" x="12.374823" y="9"/>
<use xlink:href="#glyph-0-3" x="16.783273" y="9"/>
<use xlink:href="#glyph-0-4" x="19.428344" y="9"/>
<use xlink:href="#glyph-0-5" x="22.511768" y="9"/>
<use xlink:href="#glyph-0-6" x="24.539157" y="9"/>
<use xlink:href="#glyph-0-7" x="26.890331" y="9"/>
<use xlink:href="#glyph-0-5" x="28.798169" y="9"/>
</g>
</g>
<path fill="none" stroke-width="0.5" stroke-linecap="round" stroke-linejoin="round" stroke="rgb(0%, 0%, 0%)" stroke-opacity="1" stroke-miterlimit="10" d="M 120 700 L 120 692 " transform="matrix(1, 0, 0, -1, -3, 711)"/>
<path fill="none" stroke-width="1" stroke-linecap="round" stroke-linejoin="round" stroke="rgb(0%, 54.5%, 54.5%)" stroke-opacity="1" stroke-miterlimit="10" d="M 104 692 L 120 692 " transform="matrix(1, 0, 0, -1, -3, 711)"/>
<path fill="none" stroke-width="0.5" stroke-linecap="round" stroke-linejoin="round" stroke="rgb(0%, 0%, 0%)" stroke-opacity="1" stroke-miterlimit="10" d="M 104 700 L 104 692 " transform="matrix(1, 0, 0, -1, -3, 711)"/>
<path fill="none" stroke-width="1" stroke-linecap="round" stroke-linejoin="round" stroke="rgb(0%, 54.5%, 54.5%)" stroke-opacity="1" stroke-miterlimit="10" d="M 88 692 L 104 692 " transform="matrix(1, 0, 0, -1, -3, 711)"/>
<path fill="none" stroke-width="0.5" stroke-linecap="round" stroke-linejoin="round" stroke="rgb(0%, 0%, 0%)" stroke-opacity="1" stroke-miterlimit="10" d="M 88 700 L 88 692 " transform="matrix(1, 0, 0, -1, -3, 711)"/>
<path fill="none" stroke-width="1" stroke-linecap="round" stroke-linejoin="round" stroke="rgb(0%, 54.5%, 54.5%)" stroke-opacity="1" stroke-miterlimit="10" d="M 72 692 L 88 692 " transform="matrix(1, 0, 0, -1, -3, 711)"/>
<path fill="none" stroke-width="0.5" stroke-linecap="round" stroke-linejoin="round" stroke="rgb(0%, 0%, 0%)" stroke-opacity="1" stroke-miterlimit="10" d="M 72 700 L 72 692 " transform="matrix(1, 0, 0, -1, -3, 711)"/>
<path fill="none" stroke-width="1" stroke-linecap="round" stroke-linejoin="round" stroke="rgb(0%, 54.5%, 54.5%)" stroke-opacity="1" stroke-miterlimit="10" d="M 56 692 L 72 692 " transform="matrix(1, 0, 0, -1, -3, 711)"/>
<path fill="none" stroke-width="0.5" stroke-linecap="round" stroke-linejoin="round" stroke="rgb(0%, 0%, 0%)" stroke-opacity="1" stroke-miterlimit="10" d="M 56 700 L 56 692 " transform="matrix(1, 0, 0, -1, -3, 711)"/>
<path fill="none" stroke-width="1" stroke-linecap="round" stroke-linejoin="round" stroke="rgb(0%, 54.5%, 54.5%)" stroke-opacity="1" stroke-miterlimit="10" d="M 40 692 L 56 692 " transform="matrix(1, 0, 0, -1, -3, 711)"/>
<path fill="none" stroke-width="0.5" stroke-linecap="round" stroke-linejoin="round" stroke="rgb(0%, 0%, 0%)" stroke-opacity="1" stroke-miterlimit="10" d="M 40 700 L 40 692 " transform="matrix(1, 0, 0, -1, -3, 711)"/>
<path fill="none" stroke-width="1" stroke-linecap="round" stroke-linejoin="round" stroke="rgb(0%, 54.5%, 54.5%)" stroke-opacity="1" stroke-miterlimit="10" d="M 24 692 L 40 692 " transform="matrix(1, 0, 0, -1, -3, 711)"/>
<path fill="none" stroke-width="0.5" stroke-linecap="round" stroke-linejoin="round" stroke="rgb(0%, 0%, 0%)" stroke-opacity="1" stroke-miterlimit="10" d="M 24 700 L 24 692 " transform="matrix(1, 0, 0, -1, -3, 711)"/>
<path fill="none" stroke-width="1" stroke-linecap="round" stroke-linejoin="round" stroke="rgb(0%, 54.5%, 54.5%)" stroke-opacity="1" stroke-miterlimit="10" d="M 8 692 L 24 692 " transform="matrix(1, 0, 0, -1, -3, 711)"/>
<path fill="none" stroke-width="0.5" stroke-linecap="round" stroke-linejoin="round" stroke="rgb(0%, 0%, 0%)" stroke-opacity="1" stroke-miterlimit="10" d="M 8 700 L 8 692 " transform="matrix(1, 0, 0, -1, -3, 711)"/>
<path fill="none" stroke-width="0.5" stroke-linecap="round" stroke-linejoin="round" stroke="rgb(0%, 0%, 0%)" stroke-opacity="1" stroke-miterlimit="10" d="M 136 700 L 136 692 " transform="matrix(1, 0, 0, -1, -3, 711)"/>
<path fill="none" stroke-width="0.5" stroke-linecap="round" stroke-linejoin="round" stroke="rgb(0%, 0%, 0%)" stroke-opacity="1" stroke-miterlimit="10" d="M 120 700 L 120 692 " transform="matrix(1, 0, 0, -1, -3, 711)"/>
<path fill="none" stroke-width="0.5" stroke-linecap="round" stroke-linejoin="round" stroke="rgb(0%, 0%, 0%)" stroke-opacity="1" stroke-miterlimit="10" d="M 104 700 L 104 692 " transform="matrix(1, 0, 0, -1, -3, 711)"/>
<path fill="none" stroke-width="0.5" stroke-linecap="round" stroke-linejoin="round" stroke="rgb(0%, 0%, 0%)" stroke-opacity="1" stroke-miterlimit="10" d="M 88 700 L 88 692 " transform="matrix(1, 0, 0, -1, -3, 711)"/>
<path fill="none" stroke-width="0.5" stroke-linecap="round" stroke-linejoin="round" stroke="rgb(0%, 0%, 0%)" stroke-opacity="1" stroke-miterlimit="10" d="M 72 700 L 72 692 " transform="matrix(1, 0, 0, -1, -3, 711)"/>
<path fill="none" stroke-width="0.5" stroke-linecap="round" stroke-linejoin="round" stroke="rgb(0%, 0%, 0%)" stroke-opacity="1" stroke-miterlimit="10" d="M 56 700 L 56 692 " transform="matrix(1, 0, 0, -1, -3, 711)"/>
<path fill="none" stroke-width="0.5" stroke-linecap="round" stroke-linejoin="round" stroke="rgb(0%, 0%, 0%)" stroke-opacity="1" stroke-miterlimit="10" d="M 40 700 L 40 692 " transform="matrix(1, 0, 0, -1, -3, 711)"/>
<path fill="none" stroke-width="0.5" stroke-linecap="round" stroke-linejoin="round" stroke="rgb(0%, 0%, 0%)" stroke-opacity="1" stroke-miterlimit="10" d="M 24 700 L 24 692 " transform="matrix(1, 0, 0, -1, -3, 711)"/>
<path fill="none" stroke-width="0.5" stroke-linecap="round" stroke-linejoin="round" stroke="rgb(0%, 0%, 0%)" stroke-opacity="1" stroke-miterlimit="10" d="M 144 700 L 144 692 " transform="matrix(1, 0, 0, -1, -3, 711)"/>
<path fill="none" stroke-width="0.5" stroke-linecap="round" stroke-linejoin="round" stroke="rgb(0%, 0%, 0%)" stroke-opacity="1" stroke-miterlimit="10" d="M 144 692 L 272 692 " transform="matrix(1, 0, 0, -1, -3, 711)"/>
<path fill="none" stroke-width="0.3" stroke-linecap="round" stroke-linejoin="round" stroke="rgb(0%, 0%, 0%)" stroke-opacity="1" stroke-miterlimit="10" d="M 272 696 L 272 692 " transform="matrix(1, 0, 0, -1, -3, 711)"/>
<path fill="none" stroke-width="0.3" stroke-linecap="round" stroke-linejoin="round" stroke="rgb(0%, 0%, 0%)" stroke-opacity="1" stroke-miterlimit="10" d="M 256 696 L 256 692 " transform="matrix(1, 0, 0, -1, -3, 711)"/>
<path fill="none" stroke-width="0.3" stroke-linecap="round" stroke-linejoin="round" stroke="rgb(0%, 0%, 0%)" stroke-opacity="1" stroke-miterlimit="10" d="M 240 696 L 240 692 " transform="matrix(1, 0, 0, -1, -3, 711)"/>
<path fill="none" stroke-width="0.3" stroke-linecap="round" stroke-linejoin="round" stroke="rgb(0%, 0%, 0%)" stroke-opacity="1" stroke-miterlimit="10" d="M 224 696 L 224 692 " transform="matrix(1, 0, 0, -1, -3, 711)"/>
<path fill="none" stroke-width="0.3" stroke-linecap="round" stroke-linejoin="round" stroke="rgb(0%, 0%, 0%)" stroke-opacity="1" stroke-miterlimit="10" d="M 208 696 L 208 692 " transform="matrix(1, 0, 0, -1, -3, 711)"/>
<path fill="none" stroke-width="0.3" stroke-linecap="round" stroke-linejoin="round" stroke="rgb(0%, 0%, 0%)" stroke-opacity="1" stroke-miterlimit="10" d="M 192 696 L 192 692 " transform="matrix(1, 0, 0, -1, -3, 711)"/>
<path fill="none" stroke-width="0.3" stroke-linecap="round" stroke-linejoin="round" stroke="rgb(0%, 0%, 0%)" stroke-opacity="1" stroke-miterlimit="10" d="M 176 696 L 176 692 " transform="matrix(1, 0, 0, -1, -3, 711)"/>
<path fill="none" stroke-width="0.3" stroke-linecap="round" stroke-linejoin="round" stroke="rgb(0%, 0%, 0%)" stroke-opacity="1" stroke-miterlimit="10" d="M 160 696 L 160 692 " transform="matrix(1, 0, 0, -1, -3, 711)"/>
<g clip-path="url(#clip-1)">
<g fill="rgb(0%, 0%, 0%)" fill-opacity="1">
<use xlink:href="#glyph-1-0" x="143" y="13"/>
<use xlink:href="#glyph-1-1" x="145.729752" y="13"/>
<use xlink:href="#glyph-1-2" x="148.374823" y="13"/>
<use xlink:href="#glyph-1-3" x="151.019893" y="13"/>
</g>
</g>
<g clip-path="url(#clip-2)">
<g fill="rgb(0%, 0%, 0%)" fill-opacity="1">
<use xlink:href="#glyph-1-0" x="159" y="13"/>
<use xlink:href="#glyph-1-1" x="161.729752" y="13"/>
<use xlink:href="#glyph-1-2" x="164.374823" y="13"/>
<use xlink:href="#glyph-1-3" x="167.019893" y="13"/>
</g>
</g>
<g clip-path="url(#clip-3)">
<g fill="rgb(0%, 0%, 0%)" fill-opacity="1">
<use xlink:href="#glyph-1-0" x="175" y="13"/>
<use xlink:href="#glyph-1-1" x="177.729752" y="13"/>
<use xlink:href="#glyph-1-2" x="180.374823" y="13"/>
<use xlink:href="#glyph-1-3" x="183.019893" y="13"/>
</g>
</g>
<g clip-path="url(#clip-4)">
<g fill="rgb(0%, 0%, 0%)" fill-opacity="1">
<use xlink:href="#glyph-1-0" x="191" y="13"/>
<use xlink:href="#glyph-1-1" x="193.729752" y="13"/>
<use xlink:href="#glyph-1-2" x="196.374823" y="13"/>
<use xlink:href="#glyph-1-3" x="199.019893" y="13"/>
</g>
</g>
<g clip-path="url(#clip-5)">
<g fill="rgb(0%, 0%, 0%)" fill-opacity="1">
<use xlink:href="#glyph-1-0" x="207" y="13"/>
<use xlink:href="#glyph-1-1" x="209.729752" y="13"/>
<use xlink:href="#glyph-1-2" x="212.374823" y="13"/>
<use xlink:href="#glyph-1-3" x="215.019893" y="13"/>
</g>
</g>
<g clip-path="url(#clip-6)">
<g fill="rgb(0%, 0%, 0%)" fill-opacity="1">
<use xlink:href="#glyph-1-0" x="223" y="13"/>
<use xlink:href="#glyph-1-1" x="225.729752" y="13"/>
<use xlink:href="#glyph-1-2" x="228.374823" y="13"/>
<use xlink:href="#glyph-1-3" x="231.019893" y="13"/>
</g>
</g>
<g clip-path="url(#clip-7)">
<g fill="rgb(0%, 0%, 0%)" fill-opacity="1">
<use xlink:href="#glyph-1-0" x="239" y="13"/>
<use xlink:href="#glyph-1-1" x="241.729752" y="13"/>
<use xlink:href="#glyph-1-2" x="244.374823" y="13"/>
<use xlink:href="#glyph-1-3" x="247.019893" y="13"/>
</g>
</g>
<g clip-path="url(#clip-8)">
<g fill="rgb(0%, 0%, 0%)" fill-opacity="1">
<use xlink:href="#glyph-1-0" x="255" y="13"/>
<use xlink:href="#glyph-1-1" x="257.729752" y="13"/>
<use xlink:href="#glyph-1-2" x="260.374823" y="13"/>
<use xlink:href="#glyph-1-3" x="263.019893" y="13"/>
</g>
</g>
<path fill-rule="evenodd" fill="rgb(0%, 54.5%, 54.5%)" fill-opacity="1" d="M 254.800781 19 C 254.800781 16.601562 251.199219 16.601562 251.199219 19 C 251.199219 21.398438 254.800781 21.398438 254.800781 19 Z M 254.800781 19 "/>
<path fill-rule="evenodd" fill="rgb(0%, 54.5%, 54.5%)" fill-opacity="1" d="M 238.800781 19 C 238.800781 16.601562 235.199219 16.601562 235.199219 19 C 235.199219 21.398438 238.800781 21.398438 238.800781 19 Z M 238.800781 19 "/>
<path fill-rule="evenodd" fill="rgb(0%, 54.5%, 54.5%)" fill-opacity="1" d="M 222.800781 19 C 222.800781 16.601562 219.199219 16.601562 219.199219 19 C 219.199219 21.398438 222.800781 21.398438 222.800781 19 Z M 222.800781 19 "/>
<path fill-rule="evenodd" fill="rgb(0%, 54.5%, 54.5%)" fill-opacity="1" d="M 206.800781 19 C 206.800781 16.601562 203.199219 16.601562 203.199219 19 C 203.199219 21.398438 206.800781 21.398438 206.800781 19 Z M 206.800781 19 "/>
<path fill-rule="evenodd" fill="rgb(0%, 54.5%, 54.5%)" fill-opacity="1" d="M 190.800781 19 C 190.800781 16.601562 187.199219 16.601562 187.199219 19 C 187.199219 21.398438 190.800781 21.398438 190.800781 19 Z M 190.800781 19 "/>
<path fill-rule="evenodd" fill="rgb(0%, 54.5%, 54.5%)" fill-opacity="1" d="M 174.800781 19 C 174.800781 16.601562 171.199219 16.601562 171.199219 19 C 171.199219 21.398438 174.800781 21.398438 174.800781 19 Z M 174.800781 19 "/>
<path fill-rule="evenodd" fill="rgb(0%, 54.5%, 54.5%)" fill-opacity="1" d="M 158.800781 19 C 158.800781 16.601562 155.199219 16.601562 155.199219 19 C 155.199219 21.398438 158.800781 21.398438 158.800781 19 Z M 158.800781 19 "/>
<path fill-rule="evenodd" fill="rgb(0%, 54.5%, 54.5%)" fill-opacity="1" d="M 142.800781 19 C 142.800781 16.601562 139.199219 16.601562 139.199219 19 C 139.199219 21.398438 142.800781 21.398438 142.800781 19 Z M 142.800781 19 "/>
<g clip-path="url(#clip-9)">
<g fill="rgb(0%, 0%, 0%)" fill-opacity="1">
<use xlink:href="#glyph-2-0" x="5" y="26.993"/>
<use xlink:href="#glyph-2-1" x="7.879191" y="26.993"/>
<use xlink:href="#glyph-2-2" x="10.524262" y="26.993"/>
<use xlink:href="#glyph-2-1" x="14.344919" y="26.993"/>
<use xlink:href="#glyph-2-3" x="16.989989" y="26.993"/>
<use xlink:href="#glyph-2-4" x="19.635059" y="26.993"/>
<use xlink:href="#glyph-2-5" x="21.104543" y="26.993"/>
<use xlink:href="#glyph-2-6" x="23.749613" y="26.993"/>
<use xlink:href="#glyph-2-7" x="29.921444" y="26.993"/>
<use xlink:href="#glyph-2-8" x="32.566514" y="26.993"/>
<use xlink:href="#glyph-2-9" x="35.00237" y="26.993"/>
<use xlink:href="#glyph-2-10" x="37.353544" y="26.993"/>
<use xlink:href="#glyph-2-11" x="39.156774" y="26.993"/>
<use xlink:href="#glyph-2-9" x="41.886527" y="26.993"/>
<use xlink:href="#glyph-2-12" x="44.2377" y="26.993"/>
<use xlink:href="#glyph-2-13" x="46.778163" y="26.993"/>
</g>
</g>
</svg>
