<?xml version="1.0" encoding="UTF-8"?>
<svg xmlns="http://www.w3.org/2000/svg" xmlns:xlink="http://www.w3.org/1999/xlink" width="66" height="50" viewBox="0 0 66 50">
<path fill="none" stroke-width="1" stroke-linecap="butt" stroke-linejoin="round" stroke="rgb(0%, 0%, 0%)" stroke-opacity="1" stroke-miterlimit="10" d="M 112 720 L 96 736 " transform="matrix(1, 0, 0, -1, -95, 737)"/>
<path fill="none" stroke-width="1" stroke-linecap="butt" stroke-linejoin="round" stroke="rgb(0%, 0%, 0%)" stroke-opacity="1" stroke-miterlimit="10" d="M 144 704 L 160 688 " transform="matrix(1, 0, 0, -1, -95, 737)"/>
<path fill="none" stroke-width="0.2" stroke-linecap="butt" stroke-linejoin="round" stroke="rgb(0%, 0%, 0%)" stroke-opacity="1" stroke-dasharray="2 1" stroke-miterlimit="10" d="M 112 728 L 112 696 " transform="matrix(1, 0, 0, -1, -95, 737)"/>
<path fill="none" stroke-width="0.2" stroke-linecap="butt" stroke-linejoin="round" stroke="rgb(0%, 0%, 0%)" stroke-opacity="1" stroke-dasharray="2 1" stroke-miterlimit="10" d="M 128 728 L 128 696 " transform="matrix(1, 0, 0, -1, -95, 737)"/>
<path fill="none" stroke-width="0.2" stroke-linecap="butt" stroke-linejoin="round" stroke="rgb(0%, 0%, 0%)" stroke-opacity="1" stroke-dasharray="2 1" stroke-miterlimit="10" d="M 144 728 L 144 696 " transform="matrix(1, 0, 0, -1, -95, 737)"/>
<path fill="none" stroke-width="1" stroke-linecap="butt" stroke-linejoin="round" stroke="rgb(99%, 75.4%, 2.7%)" stroke-opacity="1" stroke-miterlimit="10" d="M 127 704 L 113 704 " transform="matrix(1, 0, 0, -1, -95, 737)"/>
<path fill="none" stroke-width="1" stroke-linecap="butt" stroke-linejoin="round" stroke="rgb(99%, 75.4%, 2.7%)" stroke-opacity="1" stroke-miterlimit="10" d="M 143 704 L 129 704 " transform="matrix(1, 0, 0, -1, -95, 737)"/>
</svg>
