<?xml version="1.0" encoding="UTF-8"?>
<svg xmlns="http://www.w3.org/2000/svg" xmlns:xlink="http://www.w3.org/1999/xlink" width="66" height="50" viewBox="0 0 66 50">
<path fill="none" stroke-width="1" stroke-linecap="butt" stroke-linejoin="round" stroke="rgb(0%, 0%, 0%)" stroke-opacity="1" stroke-miterlimit="10" d="M 112 720 L 96 736 " transform="matrix(1, 0, 0, -1, -95, 737)"/>
<path fill="none" stroke-width="1" stroke-linecap="butt" stroke-linejoin="round" stroke="rgb(0%, 0%, 0%)" stroke-opacity="1" stroke-miterlimit="10" d="M 144 704 L 160 688 " transform="matrix(1, 0, 0, -1, -95, 737)"/>
<path fill="none" stroke-width="0.2" stroke-linecap="butt" stroke-linejoin="round" stroke="rgb(0%, 0%, 0%)" stroke-opacity="1" stroke-dasharray="2 1" stroke-miterlimit="10" d="M 112 720 L 128 704 " transform="matrix(1, 0, 0, -1, -95, 737)"/>
<path fill="none" stroke-width="0.2" stroke-linecap="butt" stroke-linejoin="round" stroke="rgb(0%, 0%, 0%)" stroke-opacity="1" stroke-dasharray="2 1" stroke-miterlimit="10" d="M 128 720 L 144 704 " transform="matrix(1, 0, 0, -1, -95, 737)"/>
<path fill="none" stroke-width="1" stroke-linecap="butt" stroke-linejoin="round" stroke="rgb(99%, 75.4%, 2.7%)" stroke-opacity="1" stroke-miterlimit="10" d="M 135 712 L 121 712 " transform="matrix(1, 0, 0, -1, -95, 737)"/>
<path fill-rule="evenodd" fill="rgb(99%, 75.4%, 2.7%)" fill-opacity="1" stroke-width="1" stroke-linecap="butt" stroke-linejoin="round" stroke="rgb(99%, 75.4%, 2.7%)" stroke-opacity="1" stroke-miterlimit="10" d="M 121 712 L 124 711 L 124 713 Z M 121 712 " transform="matrix(1, 0, 0, -1, -95, 737)"/>
<path fill-rule="evenodd" fill="rgb(99%, 75.4%, 2.7%)" fill-opacity="1" stroke-width="1" stroke-linecap="butt" stroke-linejoin="round" stroke="rgb(99%, 75.4%, 2.7%)" stroke-opacity="1" stroke-miterlimit="10" d="M 135 712 L 132 713 L 132 711 Z M 135 712 " transform="matrix(1, 0, 0, -1, -95, 737)"/>
</svg>
