<?xml version="1.0" encoding="UTF-8"?>
<svg xmlns="http://www.w3.org/2000/svg" xmlns:xlink="http://www.w3.org/1999/xlink" width="210" height="76" viewBox="0 0 210 76">
<path fill="none" stroke-width="1" stroke-linecap="butt" stroke-linejoin="round" stroke="rgb(99%, 75.4%, 2.7%)" stroke-opacity="1" stroke-miterlimit="10" d="M 112 736 L 128 720 L 128 712 L 144 696 L 152 696 L 176 672 " transform="matrix(1, 0, 0, -1, -79, 745)"/>
<path fill="none" stroke-width="0.4" stroke-linecap="butt" stroke-linejoin="round" stroke="rgb(31%, 31%, 33%)" stroke-opacity="1" stroke-miterlimit="10" d="M 112 736 L 112 672 L 176 672 L 176 736 L 112 736 " transform="matrix(1, 0, 0, -1, -79, 745)"/>
<path fill-rule="evenodd" fill="rgb(0%, 0%, 0%)" fill-opacity="1" d="M 34.800781 9 C 34.800781 6.601562 31.199219 6.601562 31.199219 9 C 31.199219 11.398438 34.800781 11.398438 34.800781 9 Z M 34.800781 9 "/>
<path fill-rule="evenodd" fill="rgb(0%, 0%, 0%)" fill-opacity="1" d="M 98.800781 73 C 98.800781 70.601562 95.199219 70.601562 95.199219 73 C 95.199219 75.398438 98.800781 75.398438 98.800781 73 Z M 98.800781 73 "/>
</svg>
