<?xml version="1.0" encoding="UTF-8"?>
<svg xmlns="http://www.w3.org/2000/svg" xmlns:xlink="http://www.w3.org/1999/xlink" width="210" height="76" viewBox="0 0 210 76">
<path fill="none" stroke-width="1" stroke-linecap="butt" stroke-linejoin="round" stroke="rgb(99%, 75.4%, 2.7%)" stroke-opacity="1" stroke-miterlimit="10" d="M 112 736 L 128 720 L 128 712 L 144 696 L 152 696 L 176 672 " transform="matrix(1, 0, 0, -1, -79, 745)"/>
<path fill="none" stroke-width="1" stroke-linecap="butt" stroke-linejoin="round" stroke="rgb(99%, 75.4%, 2.7%)" stroke-opacity="1" stroke-miterlimit="10" d="M 112 736 L 128 720 L 128 712 L 144 696 L 152 696 L 176 672 " transform="matrix(1, 0, 0, -1, -79, 745)"/>
<path fill="none" stroke-width="0.4" stroke-linecap="butt" stroke-linejoin="round" stroke="rgb(31%, 31%, 33%)" stroke-opacity="1" stroke-miterlimit="10" d="M 80 672 L 80 736 " transform="matrix(1, 0, 0, -1, -79, 745)"/>
<path fill="none" stroke-width="0.4" stroke-linecap="butt" stroke-linejoin="round" stroke="rgb(31%, 31%, 33%)" stroke-opacity="1" stroke-miterlimit="10" d="M 288 672 L 288 736 " transform="matrix(1, 0, 0, -1, -79, 745)"/>
<path fill="none" stroke-width="1" stroke-linecap="butt" stroke-linejoin="round" stroke="rgb(99%, 75.4%, 2.7%)" stroke-opacity="1" stroke-miterlimit="10" d="M 200 736 L 224 712 L 232 712 L 272 672 " transform="matrix(1, 0, 0, -1, -79, 745)"/>
<path fill="none" stroke-width="0.6" stroke-linecap="butt" stroke-linejoin="round" stroke="rgb(0%, 0%, 0%)" stroke-opacity="1" stroke-miterlimit="10" d="M 120 728 L 128 720 " transform="matrix(1, 0, 0, -1, -79, 745)"/>
<path fill="none" stroke-width="0.6" stroke-linecap="butt" stroke-linejoin="round" stroke="rgb(0%, 0%, 0%)" stroke-opacity="1" stroke-miterlimit="10" d="M 132 708 L 140 700 " transform="matrix(1, 0, 0, -1, -79, 745)"/>
<path fill="none" stroke-width="0.6" stroke-linecap="butt" stroke-linejoin="round" stroke="rgb(0%, 0%, 0%)" stroke-opacity="1" stroke-miterlimit="10" d="M 156 692 L 168 680 " transform="matrix(1, 0, 0, -1, -79, 745)"/>
<path fill="none" stroke-width="0.6" stroke-linecap="butt" stroke-linejoin="round" stroke="rgb(0%, 0%, 0%)" stroke-opacity="1" stroke-miterlimit="10" d="M 200 736 L 208 728 " transform="matrix(1, 0, 0, -1, -79, 745)"/>
<path fill="none" stroke-width="0.6" stroke-linecap="butt" stroke-linejoin="round" stroke="rgb(0%, 0%, 0%)" stroke-opacity="1" stroke-miterlimit="10" d="M 216 720 L 224 712 " transform="matrix(1, 0, 0, -1, -79, 745)"/>
<path fill="none" stroke-width="0.6" stroke-linecap="butt" stroke-linejoin="round" stroke="rgb(0%, 0%, 0%)" stroke-opacity="1" stroke-miterlimit="10" d="M 232 712 L 244 700 " transform="matrix(1, 0, 0, -1, -79, 745)"/>
<path fill="none" stroke-width="0.6" stroke-linecap="butt" stroke-linejoin="round" stroke="rgb(0%, 0%, 0%)" stroke-opacity="1" stroke-miterlimit="10" d="M 260 684 L 268 676 " transform="matrix(1, 0, 0, -1, -79, 745)"/>
<path fill="none" stroke-width="0.6" stroke-linecap="butt" stroke-linejoin="round" stroke="rgb(0%, 0%, 0%)" stroke-opacity="1" stroke-miterlimit="10" d="M 188 696 L 196 688 " transform="matrix(1, 0, 0, -1, -79, 745)"/>
<path fill="none" stroke-width="0.6" stroke-linecap="butt" stroke-linejoin="round" stroke="rgb(0%, 0%, 0%)" stroke-opacity="1" stroke-miterlimit="10" d="M 168 728 L 176 720 " transform="matrix(1, 0, 0, -1, -79, 745)"/>
<path fill="none" stroke-width="0.6" stroke-linecap="butt" stroke-linejoin="round" stroke="rgb(0%, 0%, 0%)" stroke-opacity="1" stroke-miterlimit="10" d="M 260 724 L 272 712 " transform="matrix(1, 0, 0, -1, -79, 745)"/>
<path fill="none" stroke-width="0.6" stroke-linecap="butt" stroke-linejoin="round" stroke="rgb(0%, 0%, 0%)" stroke-opacity="1" stroke-miterlimit="10" d="M 100 700 L 108 692 " transform="matrix(1, 0, 0, -1, -79, 745)"/>
<path fill="none" stroke-width="1" stroke-linecap="butt" stroke-linejoin="round" stroke="rgb(0%, 0%, 0%)" stroke-opacity="1" stroke-miterlimit="10" d="M 80 672 L 288 672 " transform="matrix(1, 0, 0, -1, -79, 745)"/>
<path fill="none" stroke-width="1" stroke-linecap="butt" stroke-linejoin="round" stroke="rgb(0%, 0%, 0%)" stroke-opacity="1" stroke-miterlimit="10" d="M 80 736 L 288 736 " transform="matrix(1, 0, 0, -1, -79, 745)"/>
</svg>
