<?xml version="1.0" encoding="UTF-8"?>
<svg xmlns="http://www.w3.org/2000/svg" xmlns:xlink="http://www.w3.org/1999/xlink" width="210" height="76" viewBox="0 0 210 76">
<path fill-rule="evenodd" fill="rgb(99%, 75.4%, 2.7%)" fill-opacity="0.5" d="M 189 69 L 189 73 L 193 73 L 193 69 Z M 189 69 "/>
<path fill-rule="evenodd" fill="rgb(99%, 75.4%, 2.7%)" fill-opacity="0.5" d="M 61 45 L 61 53 L 77 53 L 77 45 Z M 61 45 "/>
<path fill-rule="evenodd" fill="rgb(99%, 75.4%, 2.7%)" fill-opacity="0.5" d="M 129 17 L 129 25 L 137 25 L 137 17 Z M 129 17 "/>
<path fill-rule="evenodd" fill="rgb(99%, 75.4%, 2.7%)" fill-opacity="0.5" d="M 165 45 L 165 61 L 181 61 L 181 45 Z M 165 45 "/>
<path fill-rule="evenodd" fill="rgb(99%, 75.4%, 2.7%)" fill-opacity="0.5" d="M 25 9 L 25 17 L 41 17 L 41 9 Z M 25 9 "/>
<path fill-rule="evenodd" fill="rgb(99%, 75.4%, 2.7%)" fill-opacity="0.5" d="M 49 25 L 49 37 L 53 37 L 53 25 Z M 49 25 "/>
<path fill-rule="evenodd" fill="rgb(99%, 75.4%, 2.7%)" fill-opacity="0.5" d="M 89 65 L 89 73 L 105 73 L 105 65 Z M 89 65 "/>
<path fill="none" stroke-width="1" stroke-linecap="butt" stroke-linejoin="round" stroke="rgb(99%, 75.4%, 2.7%)" stroke-opacity="1" stroke-miterlimit="10" d="M 112 736 L 128 720 L 128 712 L 144 696 L 152 696 L 176 672 " transform="matrix(1, 0, 0, -1, -79, 745)"/>
<path fill="none" stroke-width="1" stroke-linecap="butt" stroke-linejoin="round" stroke="rgb(99%, 75.4%, 2.7%)" stroke-opacity="1" stroke-miterlimit="10" d="M 112 736 L 128 720 L 128 712 L 144 696 L 152 696 L 176 672 " transform="matrix(1, 0, 0, -1, -79, 745)"/>
<path fill="none" stroke-width="0.4" stroke-linecap="butt" stroke-linejoin="round" stroke="rgb(31%, 31%, 33%)" stroke-opacity="1" stroke-miterlimit="10" d="M 80 672 L 80 736 " transform="matrix(1, 0, 0, -1, -79, 745)"/>
<path fill="none" stroke-width="0.4" stroke-linecap="butt" stroke-linejoin="round" stroke="rgb(31%, 31%, 33%)" stroke-opacity="1" stroke-miterlimit="10" d="M 288 672 L 288 736 " transform="matrix(1, 0, 0, -1, -79, 745)"/>
<path fill="none" stroke-width="1" stroke-linecap="butt" stroke-linejoin="round" stroke="rgb(99%, 75.4%, 2.7%)" stroke-opacity="1" stroke-miterlimit="10" d="M 200 736 L 224 712 L 232 712 L 272 672 " transform="matrix(1, 0, 0, -1, -79, 745)"/>
<path fill="none" stroke-width="0.6" stroke-linecap="butt" stroke-linejoin="round" stroke="rgb(0%, 0%, 0%)" stroke-opacity="1" stroke-miterlimit="10" d="M 120 728 L 128 720 " transform="matrix(1, 0, 0, -1, -79, 745)"/>
<path fill="none" stroke-width="0.6" stroke-linecap="butt" stroke-linejoin="round" stroke="rgb(0%, 0%, 0%)" stroke-opacity="1" stroke-miterlimit="10" d="M 132 708 L 140 700 " transform="matrix(1, 0, 0, -1, -79, 745)"/>
<path fill="none" stroke-width="0.6" stroke-linecap="butt" stroke-linejoin="round" stroke="rgb(0%, 0%, 0%)" stroke-opacity="1" stroke-miterlimit="10" d="M 156 692 L 168 680 " transform="matrix(1, 0, 0, -1, -79, 745)"/>
<path fill="none" stroke-width="0.6" stroke-linecap="butt" stroke-linejoin="round" stroke="rgb(0%, 0%, 0%)" stroke-opacity="1" stroke-miterlimit="10" d="M 200 736 L 208 728 " transform="matrix(1, 0, 0, -1, -79, 745)"/>
<path fill="none" stroke-width="0.6" stroke-linecap="butt" stroke-linejoin="round" stroke="rgb(0%, 0%, 0%)" stroke-opacity="1" stroke-miterlimit="10" d="M 216 720 L 224 712 " transform="matrix(1, 0, 0, -1, -79, 745)"/>
<path fill="none" stroke-width="0.6" stroke-linecap="butt" stroke-linejoin="round" stroke="rgb(0%, 0%, 0%)" stroke-opacity="1" stroke-miterlimit="10" d="M 232 712 L 244 700 " transform="matrix(1, 0, 0, -1, -79, 745)"/>
<path fill="none" stroke-width="0.6" stroke-linecap="butt" stroke-linejoin="round" stroke="rgb(0%, 0%, 0%)" stroke-opacity="1" stroke-miterlimit="10" d="M 260 684 L 268 676 " transform="matrix(1, 0, 0, -1, -79, 745)"/>
<path fill="none" stroke-width="0.6" stroke-linecap="butt" stroke-linejoin="round" stroke="rgb(0%, 0%, 0%)" stroke-opacity="1" stroke-miterlimit="10" d="M 188 696 L 196 688 " transform="matrix(1, 0, 0, -1, -79, 745)"/>
<path fill="none" stroke-width="0.6" stroke-linecap="butt" stroke-linejoin="round" stroke="rgb(0%, 0%, 0%)" stroke-opacity="1" stroke-miterlimit="10" d="M 168 728 L 176 720 " transform="matrix(1, 0, 0, -1, -79, 745)"/>
<path fill="none" stroke-width="0.6" stroke-linecap="butt" stroke-linejoin="round" stroke="rgb(0%, 0%, 0%)" stroke-opacity="1" stroke-miterlimit="10" d="M 260 724 L 272 712 " transform="matrix(1, 0, 0, -1, -79, 745)"/>
<path fill="none" stroke-width="0.6" stroke-linecap="butt" stroke-linejoin="round" stroke="rgb(0%, 0%, 0%)" stroke-opacity="1" stroke-miterlimit="10" d="M 100 700 L 108 692 " transform="matrix(1, 0, 0, -1, -79, 745)"/>
<path fill="none" stroke-width="1" stroke-linecap="butt" stroke-linejoin="round" stroke="rgb(0%, 0%, 0%)" stroke-opacity="1" stroke-miterlimit="10" d="M 80 672 L 288 672 " transform="matrix(1, 0, 0, -1, -79, 745)"/>
<path fill="none" stroke-width="1" stroke-linecap="butt" stroke-linejoin="round" stroke="rgb(0%, 0%, 0%)" stroke-opacity="1" stroke-miterlimit="10" d="M 80 736 L 288 736 " transform="matrix(1, 0, 0, -1, -79, 745)"/>
<path fill="none" stroke-width="0.2" stroke-linecap="butt" stroke-linejoin="round" stroke="rgb(0%, 0%, 0%)" stroke-opacity="1" stroke-dasharray="2 1" stroke-miterlimit="10" d="M 128 672 L 100 700 L 80 736 " transform="matrix(1, 0, 0, -1, -79, 745)"/>
<path fill="none" stroke-width="0.2" stroke-linecap="butt" stroke-linejoin="round" stroke="rgb(0%, 0%, 0%)" stroke-opacity="1" stroke-dasharray="2 1" stroke-miterlimit="10" d="M 176 672 L 156 692 L 140 700 L 132 708 L 128 720 L 112 736 " transform="matrix(1, 0, 0, -1, -79, 745)"/>
<path fill="none" stroke-width="0.2" stroke-linecap="butt" stroke-linejoin="round" stroke="rgb(0%, 0%, 0%)" stroke-opacity="1" stroke-dasharray="2 1" stroke-miterlimit="10" d="M 272 672 L 232 712 L 224 712 L 200 736 " transform="matrix(1, 0, 0, -1, -79, 745)"/>
<path fill="none" stroke-width="0.2" stroke-linecap="butt" stroke-linejoin="round" stroke="rgb(0%, 0%, 0%)" stroke-opacity="1" stroke-dasharray="2 1" stroke-miterlimit="10" d="M 160 736 L 176 720 L 188 696 L 212 672 " transform="matrix(1, 0, 0, -1, -79, 745)"/>
<path fill="none" stroke-width="0.2" stroke-linecap="butt" stroke-linejoin="round" stroke="rgb(0%, 0%, 0%)" stroke-opacity="1" stroke-dasharray="2 1" stroke-miterlimit="10" d="M 288 672 L 272 712 L 248 736 " transform="matrix(1, 0, 0, -1, -79, 745)"/>
</svg>
