<?xml version="1.0" encoding="UTF-8"?>
<svg xmlns="http://www.w3.org/2000/svg" xmlns:xlink="http://www.w3.org/1999/xlink" width="210" height="76" viewBox="0 0 210 76">
<path fill="none" stroke-width="1" stroke-linecap="butt" stroke-linejoin="round" stroke="rgb(99%, 75.4%, 2.7%)" stroke-opacity="1" stroke-miterlimit="10" d="M 112 736 L 128 720 L 128 712 L 144 696 L 152 696 L 176 672 " transform="matrix(1, 0, 0, -1, -79, 745)"/>
<path fill="none" stroke-width="1" stroke-linecap="butt" stroke-linejoin="round" stroke="rgb(99%, 75.4%, 2.7%)" stroke-opacity="1" stroke-miterlimit="10" d="M 112 736 L 128 720 L 128 712 L 144 696 L 152 696 L 176 672 " transform="matrix(1, 0, 0, -1, -79, 745)"/>
<path fill="none" stroke-width="0.4" stroke-linecap="butt" stroke-linejoin="round" stroke="rgb(31%, 31%, 33%)" stroke-opacity="1" stroke-miterlimit="10" d="M 80 672 L 80 736 " transform="matrix(1, 0, 0, -1, -79, 745)"/>
<path fill="none" stroke-width="0.4" stroke-linecap="butt" stroke-linejoin="round" stroke="rgb(31%, 31%, 33%)" stroke-opacity="1" stroke-miterlimit="10" d="M 288 672 L 288 736 " transform="matrix(1, 0, 0, -1, -79, 745)"/>
<path fill="none" stroke-width="1" stroke-linecap="butt" stroke-linejoin="round" stroke="rgb(99%, 75.4%, 2.7%)" stroke-opacity="1" stroke-miterlimit="10" d="M 200 736 L 224 712 L 232 712 L 272 672 " transform="matrix(1, 0, 0, -1, -79, 745)"/>
<path fill="none" stroke-width="1" stroke-linecap="butt" stroke-linejoin="round" stroke="rgb(0%, 0%, 0%)" stroke-opacity="1" stroke-miterlimit="10" d="M 80 736 L 288 736 " transform="matrix(1, 0, 0, -1, -79, 745)"/>
<path fill="none" stroke-width="1" stroke-linecap="butt" stroke-linejoin="round" stroke="rgb(0%, 0%, 0%)" stroke-opacity="1" stroke-miterlimit="10" d="M 80 672 L 288 672 " transform="matrix(1, 0, 0, -1, -79, 745)"/>
<path fill-rule="evenodd" fill="rgb(99%, 75.4%, 2.7%)" fill-opacity="0.5" d="M 1 9 L 1 41 L 9 49 L 17 49 L 25 41 L 33 41 L 41 49 L 49 49 L 57 57 L 65 57 L 73 65 L 89 65 L 89 57 L 81 49 L 81 41 L 97 41 L 105 49 L 113 49 L 121 57 L 129 57 L 129 49 L 137 41 L 145 41 L 161 57 L 169 57 L 185 73 L 201 73 L 201 65 L 193 57 L 193 49 L 201 41 L 209 41 L 209 9 Z M 1 9 "/>
</svg>
