<?xml version="1.0" encoding="utf-8" standalone="no"?>
<!DOCTYPE svg PUBLIC "-//W3C//DTD SVG 1.1//EN"
  "http://www.w3.org/Graphics/SVG/1.1/DTD/svg11.dtd">
<svg xmlns:xlink="http://www.w3.org/1999/xlink" width="420.82625pt" height="325.986375pt" viewBox="0 0 420.82625 325.986375" xmlns="http://www.w3.org/2000/svg" version="1.1">
 <metadata>
  <rdf:RDF xmlns:dc="http://purl.org/dc/elements/1.1/" xmlns:cc="http://creativecommons.org/ns#" xmlns:rdf="http://www.w3.org/1999/02/22-rdf-syntax-ns#">
   <cc:Work>
    <dc:type rdf:resource="http://purl.org/dc/dcmitype/StillImage"/>
    <dc:date>2024-10-24T13:40:30.290864</dc:date>
    <dc:format>image/svg+xml</dc:format>
    <dc:creator>
     <cc:Agent>
      <dc:title>Matplotlib v3.9.2, https://matplotlib.org/</dc:title>
     </cc:Agent>
    </dc:creator>
   </cc:Work>
  </rdf:RDF>
 </metadata>
 <defs>
  <style type="text/css">*{stroke-linejoin: round; stroke-linecap: butt}</style>
 </defs>
 <g id="figure_1">
  <g id="patch_1">
   <path d="M 0 325.986375 
L 420.82625 325.986375 
L 420.82625 0 
L 0 0 
z
" style="fill: #ffffff"/>
  </g>
  <g id="axes_1">
   <g id="patch_2">
    <path d="M 56.50625 288.430125 
L 413.62625 288.430125 
L 413.62625 22.318125 
L 56.50625 22.318125 
z
" style="fill: #ffffff"/>
   </g>
   <g id="matplotlib.axis_1">
    <g id="xtick_1">
     <g id="line2d_1">
      <path d="M 92.700845 288.430125 
L 92.700845 22.318125 
" clip-path="url(#p85ac609d12)" style="fill: none; stroke: #cccccc; stroke-width: 0.5; stroke-linecap: square"/>
     </g>
     <g id="line2d_2">
      <defs>
       <path id="ma134025061" d="M 0 0 
L 0 3.5 
" style="stroke: #000000; stroke-width: 0.8"/>
      </defs>
      <g>
       <use xlink:href="#ma134025061" x="92.700845" y="288.430125" style="stroke: #000000; stroke-width: 0.8"/>
      </g>
     </g>
     <g id="text_1">
      <!-- 8 -->
      <g transform="translate(89.519595 303.028562) scale(0.1 -0.1)">
       <defs>
        <path id="DejaVuSans-38" d="M 2034 2216 
Q 1584 2216 1326 1975 
Q 1069 1734 1069 1313 
Q 1069 891 1326 650 
Q 1584 409 2034 409 
Q 2484 409 2743 651 
Q 3003 894 3003 1313 
Q 3003 1734 2745 1975 
Q 2488 2216 2034 2216 
z
M 1403 2484 
Q 997 2584 770 2862 
Q 544 3141 544 3541 
Q 544 4100 942 4425 
Q 1341 4750 2034 4750 
Q 2731 4750 3128 4425 
Q 3525 4100 3525 3541 
Q 3525 3141 3298 2862 
Q 3072 2584 2669 2484 
Q 3125 2378 3379 2068 
Q 3634 1759 3634 1313 
Q 3634 634 3220 271 
Q 2806 -91 2034 -91 
Q 1263 -91 848 271 
Q 434 634 434 1313 
Q 434 1759 690 2068 
Q 947 2378 1403 2484 
z
M 1172 3481 
Q 1172 3119 1398 2916 
Q 1625 2713 2034 2713 
Q 2441 2713 2670 2916 
Q 2900 3119 2900 3481 
Q 2900 3844 2670 4047 
Q 2441 4250 2034 4250 
Q 1625 4250 1398 4047 
Q 1172 3844 1172 3481 
z
" transform="scale(0.015625)"/>
       </defs>
       <use xlink:href="#DejaVuSans-38"/>
      </g>
     </g>
    </g>
    <g id="xtick_2">
     <g id="line2d_3">
      <path d="M 131.308412 288.430125 
L 131.308412 22.318125 
" clip-path="url(#p85ac609d12)" style="fill: none; stroke: #cccccc; stroke-width: 0.5; stroke-linecap: square"/>
     </g>
     <g id="line2d_4">
      <g>
       <use xlink:href="#ma134025061" x="131.308412" y="288.430125" style="stroke: #000000; stroke-width: 0.8"/>
      </g>
     </g>
     <g id="text_2">
      <!-- 16 -->
      <g transform="translate(124.945912 303.028562) scale(0.1 -0.1)">
       <defs>
        <path id="DejaVuSans-31" d="M 794 531 
L 1825 531 
L 1825 4091 
L 703 3866 
L 703 4441 
L 1819 4666 
L 2450 4666 
L 2450 531 
L 3481 531 
L 3481 0 
L 794 0 
L 794 531 
z
" transform="scale(0.015625)"/>
        <path id="DejaVuSans-36" d="M 2113 2584 
Q 1688 2584 1439 2293 
Q 1191 2003 1191 1497 
Q 1191 994 1439 701 
Q 1688 409 2113 409 
Q 2538 409 2786 701 
Q 3034 994 3034 1497 
Q 3034 2003 2786 2293 
Q 2538 2584 2113 2584 
z
M 3366 4563 
L 3366 3988 
Q 3128 4100 2886 4159 
Q 2644 4219 2406 4219 
Q 1781 4219 1451 3797 
Q 1122 3375 1075 2522 
Q 1259 2794 1537 2939 
Q 1816 3084 2150 3084 
Q 2853 3084 3261 2657 
Q 3669 2231 3669 1497 
Q 3669 778 3244 343 
Q 2819 -91 2113 -91 
Q 1303 -91 875 529 
Q 447 1150 447 2328 
Q 447 3434 972 4092 
Q 1497 4750 2381 4750 
Q 2619 4750 2861 4703 
Q 3103 4656 3366 4563 
z
" transform="scale(0.015625)"/>
       </defs>
       <use xlink:href="#DejaVuSans-31"/>
       <use xlink:href="#DejaVuSans-36" x="63.623047"/>
      </g>
     </g>
    </g>
    <g id="xtick_3">
     <g id="line2d_5">
      <path d="M 169.91598 288.430125 
L 169.91598 22.318125 
" clip-path="url(#p85ac609d12)" style="fill: none; stroke: #cccccc; stroke-width: 0.5; stroke-linecap: square"/>
     </g>
     <g id="line2d_6">
      <g>
       <use xlink:href="#ma134025061" x="169.91598" y="288.430125" style="stroke: #000000; stroke-width: 0.8"/>
      </g>
     </g>
     <g id="text_3">
      <!-- 24 -->
      <g transform="translate(163.55348 303.028562) scale(0.1 -0.1)">
       <defs>
        <path id="DejaVuSans-32" d="M 1228 531 
L 3431 531 
L 3431 0 
L 469 0 
L 469 531 
Q 828 903 1448 1529 
Q 2069 2156 2228 2338 
Q 2531 2678 2651 2914 
Q 2772 3150 2772 3378 
Q 2772 3750 2511 3984 
Q 2250 4219 1831 4219 
Q 1534 4219 1204 4116 
Q 875 4013 500 3803 
L 500 4441 
Q 881 4594 1212 4672 
Q 1544 4750 1819 4750 
Q 2544 4750 2975 4387 
Q 3406 4025 3406 3419 
Q 3406 3131 3298 2873 
Q 3191 2616 2906 2266 
Q 2828 2175 2409 1742 
Q 1991 1309 1228 531 
z
" transform="scale(0.015625)"/>
        <path id="DejaVuSans-34" d="M 2419 4116 
L 825 1625 
L 2419 1625 
L 2419 4116 
z
M 2253 4666 
L 3047 4666 
L 3047 1625 
L 3713 1625 
L 3713 1100 
L 3047 1100 
L 3047 0 
L 2419 0 
L 2419 1100 
L 313 1100 
L 313 1709 
L 2253 4666 
z
" transform="scale(0.015625)"/>
       </defs>
       <use xlink:href="#DejaVuSans-32"/>
       <use xlink:href="#DejaVuSans-34" x="63.623047"/>
      </g>
     </g>
    </g>
    <g id="xtick_4">
     <g id="line2d_7">
      <path d="M 208.523547 288.430125 
L 208.523547 22.318125 
" clip-path="url(#p85ac609d12)" style="fill: none; stroke: #cccccc; stroke-width: 0.5; stroke-linecap: square"/>
     </g>
     <g id="line2d_8">
      <g>
       <use xlink:href="#ma134025061" x="208.523547" y="288.430125" style="stroke: #000000; stroke-width: 0.8"/>
      </g>
     </g>
     <g id="text_4">
      <!-- 32 -->
      <g transform="translate(202.161047 303.028562) scale(0.1 -0.1)">
       <defs>
        <path id="DejaVuSans-33" d="M 2597 2516 
Q 3050 2419 3304 2112 
Q 3559 1806 3559 1356 
Q 3559 666 3084 287 
Q 2609 -91 1734 -91 
Q 1441 -91 1130 -33 
Q 819 25 488 141 
L 488 750 
Q 750 597 1062 519 
Q 1375 441 1716 441 
Q 2309 441 2620 675 
Q 2931 909 2931 1356 
Q 2931 1769 2642 2001 
Q 2353 2234 1838 2234 
L 1294 2234 
L 1294 2753 
L 1863 2753 
Q 2328 2753 2575 2939 
Q 2822 3125 2822 3475 
Q 2822 3834 2567 4026 
Q 2313 4219 1838 4219 
Q 1578 4219 1281 4162 
Q 984 4106 628 3988 
L 628 4550 
Q 988 4650 1302 4700 
Q 1616 4750 1894 4750 
Q 2613 4750 3031 4423 
Q 3450 4097 3450 3541 
Q 3450 3153 3228 2886 
Q 3006 2619 2597 2516 
z
" transform="scale(0.015625)"/>
       </defs>
       <use xlink:href="#DejaVuSans-33"/>
       <use xlink:href="#DejaVuSans-32" x="63.623047"/>
      </g>
     </g>
    </g>
    <g id="xtick_5">
     <g id="line2d_9">
      <path d="M 247.131115 288.430125 
L 247.131115 22.318125 
" clip-path="url(#p85ac609d12)" style="fill: none; stroke: #cccccc; stroke-width: 0.5; stroke-linecap: square"/>
     </g>
     <g id="line2d_10">
      <g>
       <use xlink:href="#ma134025061" x="247.131115" y="288.430125" style="stroke: #000000; stroke-width: 0.8"/>
      </g>
     </g>
     <g id="text_5">
      <!-- 40 -->
      <g transform="translate(240.768615 303.028562) scale(0.1 -0.1)">
       <defs>
        <path id="DejaVuSans-30" d="M 2034 4250 
Q 1547 4250 1301 3770 
Q 1056 3291 1056 2328 
Q 1056 1369 1301 889 
Q 1547 409 2034 409 
Q 2525 409 2770 889 
Q 3016 1369 3016 2328 
Q 3016 3291 2770 3770 
Q 2525 4250 2034 4250 
z
M 2034 4750 
Q 2819 4750 3233 4129 
Q 3647 3509 3647 2328 
Q 3647 1150 3233 529 
Q 2819 -91 2034 -91 
Q 1250 -91 836 529 
Q 422 1150 422 2328 
Q 422 3509 836 4129 
Q 1250 4750 2034 4750 
z
" transform="scale(0.015625)"/>
       </defs>
       <use xlink:href="#DejaVuSans-34"/>
       <use xlink:href="#DejaVuSans-30" x="63.623047"/>
      </g>
     </g>
    </g>
    <g id="xtick_6">
     <g id="line2d_11">
      <path d="M 285.738682 288.430125 
L 285.738682 22.318125 
" clip-path="url(#p85ac609d12)" style="fill: none; stroke: #cccccc; stroke-width: 0.5; stroke-linecap: square"/>
     </g>
     <g id="line2d_12">
      <g>
       <use xlink:href="#ma134025061" x="285.738682" y="288.430125" style="stroke: #000000; stroke-width: 0.8"/>
      </g>
     </g>
     <g id="text_6">
      <!-- 48 -->
      <g transform="translate(279.376182 303.028562) scale(0.1 -0.1)">
       <use xlink:href="#DejaVuSans-34"/>
       <use xlink:href="#DejaVuSans-38" x="63.623047"/>
      </g>
     </g>
    </g>
    <g id="xtick_7">
     <g id="line2d_13">
      <path d="M 324.34625 288.430125 
L 324.34625 22.318125 
" clip-path="url(#p85ac609d12)" style="fill: none; stroke: #cccccc; stroke-width: 0.5; stroke-linecap: square"/>
     </g>
     <g id="line2d_14">
      <g>
       <use xlink:href="#ma134025061" x="324.34625" y="288.430125" style="stroke: #000000; stroke-width: 0.8"/>
      </g>
     </g>
     <g id="text_7">
      <!-- 56 -->
      <g transform="translate(317.98375 303.028562) scale(0.1 -0.1)">
       <defs>
        <path id="DejaVuSans-35" d="M 691 4666 
L 3169 4666 
L 3169 4134 
L 1269 4134 
L 1269 2991 
Q 1406 3038 1543 3061 
Q 1681 3084 1819 3084 
Q 2600 3084 3056 2656 
Q 3513 2228 3513 1497 
Q 3513 744 3044 326 
Q 2575 -91 1722 -91 
Q 1428 -91 1123 -41 
Q 819 9 494 109 
L 494 744 
Q 775 591 1075 516 
Q 1375 441 1709 441 
Q 2250 441 2565 725 
Q 2881 1009 2881 1497 
Q 2881 1984 2565 2268 
Q 2250 2553 1709 2553 
Q 1456 2553 1204 2497 
Q 953 2441 691 2322 
L 691 4666 
z
" transform="scale(0.015625)"/>
       </defs>
       <use xlink:href="#DejaVuSans-35"/>
       <use xlink:href="#DejaVuSans-36" x="63.623047"/>
      </g>
     </g>
    </g>
    <g id="xtick_8">
     <g id="line2d_15">
      <path d="M 362.953818 288.430125 
L 362.953818 22.318125 
" clip-path="url(#p85ac609d12)" style="fill: none; stroke: #cccccc; stroke-width: 0.5; stroke-linecap: square"/>
     </g>
     <g id="line2d_16">
      <g>
       <use xlink:href="#ma134025061" x="362.953818" y="288.430125" style="stroke: #000000; stroke-width: 0.8"/>
      </g>
     </g>
     <g id="text_8">
      <!-- 64 -->
      <g transform="translate(356.591318 303.028562) scale(0.1 -0.1)">
       <use xlink:href="#DejaVuSans-36"/>
       <use xlink:href="#DejaVuSans-34" x="63.623047"/>
      </g>
     </g>
    </g>
    <g id="xtick_9">
     <g id="line2d_17">
      <path d="M 401.561385 288.430125 
L 401.561385 22.318125 
" clip-path="url(#p85ac609d12)" style="fill: none; stroke: #cccccc; stroke-width: 0.5; stroke-linecap: square"/>
     </g>
     <g id="line2d_18">
      <g>
       <use xlink:href="#ma134025061" x="401.561385" y="288.430125" style="stroke: #000000; stroke-width: 0.8"/>
      </g>
     </g>
     <g id="text_9">
      <!-- 72 -->
      <g transform="translate(395.198885 303.028562) scale(0.1 -0.1)">
       <defs>
        <path id="DejaVuSans-37" d="M 525 4666 
L 3525 4666 
L 3525 4397 
L 1831 0 
L 1172 0 
L 2766 4134 
L 525 4134 
L 525 4666 
z
" transform="scale(0.015625)"/>
       </defs>
       <use xlink:href="#DejaVuSans-37"/>
       <use xlink:href="#DejaVuSans-32" x="63.623047"/>
      </g>
     </g>
    </g>
    <g id="text_10">
     <!-- k -->
     <g transform="translate(232.170938 316.706687) scale(0.1 -0.1)">
      <defs>
       <path id="DejaVuSans-6b" d="M 581 4863 
L 1159 4863 
L 1159 1991 
L 2875 3500 
L 3609 3500 
L 1753 1863 
L 3688 0 
L 2938 0 
L 1159 1709 
L 1159 0 
L 581 0 
L 581 4863 
z
" transform="scale(0.015625)"/>
      </defs>
      <use xlink:href="#DejaVuSans-6b"/>
     </g>
    </g>
   </g>
   <g id="matplotlib.axis_2">
    <g id="ytick_1">
     <g id="line2d_19">
      <path d="M 56.50625 271.798125 
L 413.62625 271.798125 
" clip-path="url(#p85ac609d12)" style="fill: none; stroke: #cccccc; stroke-width: 0.5; stroke-linecap: square"/>
     </g>
     <g id="line2d_20">
      <defs>
       <path id="m0a565cfad1" d="M 0 0 
L -3.5 0 
" style="stroke: #000000; stroke-width: 0.8"/>
      </defs>
      <g>
       <use xlink:href="#m0a565cfad1" x="56.50625" y="271.798125" style="stroke: #000000; stroke-width: 0.8"/>
      </g>
     </g>
     <g id="text_11">
      <!-- 0.052 -->
      <g transform="translate(20.878125 275.597344) scale(0.1 -0.1)">
       <defs>
        <path id="DejaVuSans-2e" d="M 684 794 
L 1344 794 
L 1344 0 
L 684 0 
L 684 794 
z
" transform="scale(0.015625)"/>
       </defs>
       <use xlink:href="#DejaVuSans-30"/>
       <use xlink:href="#DejaVuSans-2e" x="63.623047"/>
       <use xlink:href="#DejaVuSans-30" x="95.410156"/>
       <use xlink:href="#DejaVuSans-35" x="159.033203"/>
       <use xlink:href="#DejaVuSans-32" x="222.65625"/>
      </g>
     </g>
    </g>
    <g id="ytick_2">
     <g id="line2d_21">
      <path d="M 56.50625 238.534125 
L 413.62625 238.534125 
" clip-path="url(#p85ac609d12)" style="fill: none; stroke: #cccccc; stroke-width: 0.5; stroke-linecap: square"/>
     </g>
     <g id="line2d_22">
      <g>
       <use xlink:href="#m0a565cfad1" x="56.50625" y="238.534125" style="stroke: #000000; stroke-width: 0.8"/>
      </g>
     </g>
     <g id="text_12">
      <!-- 0.056 -->
      <g transform="translate(20.878125 242.333344) scale(0.1 -0.1)">
       <use xlink:href="#DejaVuSans-30"/>
       <use xlink:href="#DejaVuSans-2e" x="63.623047"/>
       <use xlink:href="#DejaVuSans-30" x="95.410156"/>
       <use xlink:href="#DejaVuSans-35" x="159.033203"/>
       <use xlink:href="#DejaVuSans-36" x="222.65625"/>
      </g>
     </g>
    </g>
    <g id="ytick_3">
     <g id="line2d_23">
      <path d="M 56.50625 205.270125 
L 413.62625 205.270125 
" clip-path="url(#p85ac609d12)" style="fill: none; stroke: #cccccc; stroke-width: 0.5; stroke-linecap: square"/>
     </g>
     <g id="line2d_24">
      <g>
       <use xlink:href="#m0a565cfad1" x="56.50625" y="205.270125" style="stroke: #000000; stroke-width: 0.8"/>
      </g>
     </g>
     <g id="text_13">
      <!-- 0.060 -->
      <g transform="translate(20.878125 209.069344) scale(0.1 -0.1)">
       <use xlink:href="#DejaVuSans-30"/>
       <use xlink:href="#DejaVuSans-2e" x="63.623047"/>
       <use xlink:href="#DejaVuSans-30" x="95.410156"/>
       <use xlink:href="#DejaVuSans-36" x="159.033203"/>
       <use xlink:href="#DejaVuSans-30" x="222.65625"/>
      </g>
     </g>
    </g>
    <g id="ytick_4">
     <g id="line2d_25">
      <path d="M 56.50625 172.006125 
L 413.62625 172.006125 
" clip-path="url(#p85ac609d12)" style="fill: none; stroke: #cccccc; stroke-width: 0.5; stroke-linecap: square"/>
     </g>
     <g id="line2d_26">
      <g>
       <use xlink:href="#m0a565cfad1" x="56.50625" y="172.006125" style="stroke: #000000; stroke-width: 0.8"/>
      </g>
     </g>
     <g id="text_14">
      <!-- 0.064 -->
      <g transform="translate(20.878125 175.805344) scale(0.1 -0.1)">
       <use xlink:href="#DejaVuSans-30"/>
       <use xlink:href="#DejaVuSans-2e" x="63.623047"/>
       <use xlink:href="#DejaVuSans-30" x="95.410156"/>
       <use xlink:href="#DejaVuSans-36" x="159.033203"/>
       <use xlink:href="#DejaVuSans-34" x="222.65625"/>
      </g>
     </g>
    </g>
    <g id="ytick_5">
     <g id="line2d_27">
      <path d="M 56.50625 138.742125 
L 413.62625 138.742125 
" clip-path="url(#p85ac609d12)" style="fill: none; stroke: #cccccc; stroke-width: 0.5; stroke-linecap: square"/>
     </g>
     <g id="line2d_28">
      <g>
       <use xlink:href="#m0a565cfad1" x="56.50625" y="138.742125" style="stroke: #000000; stroke-width: 0.8"/>
      </g>
     </g>
     <g id="text_15">
      <!-- 0.068 -->
      <g transform="translate(20.878125 142.541344) scale(0.1 -0.1)">
       <use xlink:href="#DejaVuSans-30"/>
       <use xlink:href="#DejaVuSans-2e" x="63.623047"/>
       <use xlink:href="#DejaVuSans-30" x="95.410156"/>
       <use xlink:href="#DejaVuSans-36" x="159.033203"/>
       <use xlink:href="#DejaVuSans-38" x="222.65625"/>
      </g>
     </g>
    </g>
    <g id="ytick_6">
     <g id="line2d_29">
      <path d="M 56.50625 105.478125 
L 413.62625 105.478125 
" clip-path="url(#p85ac609d12)" style="fill: none; stroke: #cccccc; stroke-width: 0.5; stroke-linecap: square"/>
     </g>
     <g id="line2d_30">
      <g>
       <use xlink:href="#m0a565cfad1" x="56.50625" y="105.478125" style="stroke: #000000; stroke-width: 0.8"/>
      </g>
     </g>
     <g id="text_16">
      <!-- 0.072 -->
      <g transform="translate(20.878125 109.277344) scale(0.1 -0.1)">
       <use xlink:href="#DejaVuSans-30"/>
       <use xlink:href="#DejaVuSans-2e" x="63.623047"/>
       <use xlink:href="#DejaVuSans-30" x="95.410156"/>
       <use xlink:href="#DejaVuSans-37" x="159.033203"/>
       <use xlink:href="#DejaVuSans-32" x="222.65625"/>
      </g>
     </g>
    </g>
    <g id="ytick_7">
     <g id="line2d_31">
      <path d="M 56.50625 72.214125 
L 413.62625 72.214125 
" clip-path="url(#p85ac609d12)" style="fill: none; stroke: #cccccc; stroke-width: 0.5; stroke-linecap: square"/>
     </g>
     <g id="line2d_32">
      <g>
       <use xlink:href="#m0a565cfad1" x="56.50625" y="72.214125" style="stroke: #000000; stroke-width: 0.8"/>
      </g>
     </g>
     <g id="text_17">
      <!-- 0.076 -->
      <g transform="translate(20.878125 76.013344) scale(0.1 -0.1)">
       <use xlink:href="#DejaVuSans-30"/>
       <use xlink:href="#DejaVuSans-2e" x="63.623047"/>
       <use xlink:href="#DejaVuSans-30" x="95.410156"/>
       <use xlink:href="#DejaVuSans-37" x="159.033203"/>
       <use xlink:href="#DejaVuSans-36" x="222.65625"/>
      </g>
     </g>
    </g>
    <g id="ytick_8">
     <g id="line2d_33">
      <path d="M 56.50625 38.950125 
L 413.62625 38.950125 
" clip-path="url(#p85ac609d12)" style="fill: none; stroke: #cccccc; stroke-width: 0.5; stroke-linecap: square"/>
     </g>
     <g id="line2d_34">
      <g>
       <use xlink:href="#m0a565cfad1" x="56.50625" y="38.950125" style="stroke: #000000; stroke-width: 0.8"/>
      </g>
     </g>
     <g id="text_18">
      <!-- 0.080 -->
      <g transform="translate(20.878125 42.749344) scale(0.1 -0.1)">
       <use xlink:href="#DejaVuSans-30"/>
       <use xlink:href="#DejaVuSans-2e" x="63.623047"/>
       <use xlink:href="#DejaVuSans-30" x="95.410156"/>
       <use xlink:href="#DejaVuSans-38" x="159.033203"/>
       <use xlink:href="#DejaVuSans-30" x="222.65625"/>
      </g>
     </g>
    </g>
    <g id="text_19">
     <!-- Density -->
     <g transform="translate(14.798437 174.382719) rotate(-90) scale(0.1 -0.1)">
      <defs>
       <path id="DejaVuSans-44" d="M 1259 4147 
L 1259 519 
L 2022 519 
Q 2988 519 3436 956 
Q 3884 1394 3884 2338 
Q 3884 3275 3436 3711 
Q 2988 4147 2022 4147 
L 1259 4147 
z
M 628 4666 
L 1925 4666 
Q 3281 4666 3915 4102 
Q 4550 3538 4550 2338 
Q 4550 1131 3912 565 
Q 3275 0 1925 0 
L 628 0 
L 628 4666 
z
" transform="scale(0.015625)"/>
       <path id="DejaVuSans-65" d="M 3597 1894 
L 3597 1613 
L 953 1613 
Q 991 1019 1311 708 
Q 1631 397 2203 397 
Q 2534 397 2845 478 
Q 3156 559 3463 722 
L 3463 178 
Q 3153 47 2828 -22 
Q 2503 -91 2169 -91 
Q 1331 -91 842 396 
Q 353 884 353 1716 
Q 353 2575 817 3079 
Q 1281 3584 2069 3584 
Q 2775 3584 3186 3129 
Q 3597 2675 3597 1894 
z
M 3022 2063 
Q 3016 2534 2758 2815 
Q 2500 3097 2075 3097 
Q 1594 3097 1305 2825 
Q 1016 2553 972 2059 
L 3022 2063 
z
" transform="scale(0.015625)"/>
       <path id="DejaVuSans-6e" d="M 3513 2113 
L 3513 0 
L 2938 0 
L 2938 2094 
Q 2938 2591 2744 2837 
Q 2550 3084 2163 3084 
Q 1697 3084 1428 2787 
Q 1159 2491 1159 1978 
L 1159 0 
L 581 0 
L 581 3500 
L 1159 3500 
L 1159 2956 
Q 1366 3272 1645 3428 
Q 1925 3584 2291 3584 
Q 2894 3584 3203 3211 
Q 3513 2838 3513 2113 
z
" transform="scale(0.015625)"/>
       <path id="DejaVuSans-73" d="M 2834 3397 
L 2834 2853 
Q 2591 2978 2328 3040 
Q 2066 3103 1784 3103 
Q 1356 3103 1142 2972 
Q 928 2841 928 2578 
Q 928 2378 1081 2264 
Q 1234 2150 1697 2047 
L 1894 2003 
Q 2506 1872 2764 1633 
Q 3022 1394 3022 966 
Q 3022 478 2636 193 
Q 2250 -91 1575 -91 
Q 1294 -91 989 -36 
Q 684 19 347 128 
L 347 722 
Q 666 556 975 473 
Q 1284 391 1588 391 
Q 1994 391 2212 530 
Q 2431 669 2431 922 
Q 2431 1156 2273 1281 
Q 2116 1406 1581 1522 
L 1381 1569 
Q 847 1681 609 1914 
Q 372 2147 372 2553 
Q 372 3047 722 3315 
Q 1072 3584 1716 3584 
Q 2034 3584 2315 3537 
Q 2597 3491 2834 3397 
z
" transform="scale(0.015625)"/>
       <path id="DejaVuSans-69" d="M 603 3500 
L 1178 3500 
L 1178 0 
L 603 0 
L 603 3500 
z
M 603 4863 
L 1178 4863 
L 1178 4134 
L 603 4134 
L 603 4863 
z
" transform="scale(0.015625)"/>
       <path id="DejaVuSans-74" d="M 1172 4494 
L 1172 3500 
L 2356 3500 
L 2356 3053 
L 1172 3053 
L 1172 1153 
Q 1172 725 1289 603 
Q 1406 481 1766 481 
L 2356 481 
L 2356 0 
L 1766 0 
Q 1100 0 847 248 
Q 594 497 594 1153 
L 594 3053 
L 172 3053 
L 172 3500 
L 594 3500 
L 594 4494 
L 1172 4494 
z
" transform="scale(0.015625)"/>
       <path id="DejaVuSans-79" d="M 2059 -325 
Q 1816 -950 1584 -1140 
Q 1353 -1331 966 -1331 
L 506 -1331 
L 506 -850 
L 844 -850 
Q 1081 -850 1212 -737 
Q 1344 -625 1503 -206 
L 1606 56 
L 191 3500 
L 800 3500 
L 1894 763 
L 2988 3500 
L 3597 3500 
L 2059 -325 
z
" transform="scale(0.015625)"/>
      </defs>
      <use xlink:href="#DejaVuSans-44"/>
      <use xlink:href="#DejaVuSans-65" x="77.001953"/>
      <use xlink:href="#DejaVuSans-6e" x="138.525391"/>
      <use xlink:href="#DejaVuSans-73" x="201.904297"/>
      <use xlink:href="#DejaVuSans-69" x="254.003906"/>
      <use xlink:href="#DejaVuSans-74" x="281.787109"/>
      <use xlink:href="#DejaVuSans-79" x="320.996094"/>
     </g>
    </g>
   </g>
   <g id="line2d_35">
    <path d="M 58.919223 38.144785 
L 63.745169 40.248117 
L 68.571115 38.542631 
L 73.397061 39.930773 
L 78.223007 40.246125 
L 83.048953 39.455419 
L 87.874899 39.363276 
L 92.700845 38.92185 
L 97.526791 38.630115 
L 102.352736 38.770826 
L 107.178682 38.786793 
L 112.004628 37.006443 
L 116.830574 38.203322 
L 121.65652 38.884593 
L 126.482466 39.840303 
L 131.308412 38.899894 
L 136.134358 38.30877 
L 140.960304 39.297748 
L 145.78625 41.409433 
L 150.612196 39.579174 
L 155.438142 38.888251 
L 160.264088 37.307476 
L 165.090034 39.57718 
L 169.91598 38.137781 
L 174.741926 38.79411 
L 179.567872 39.458756 
L 184.393818 39.316712 
L 189.219764 38.043636 
L 194.045709 39.373597 
L 198.871655 38.200315 
L 203.697601 37.742245 
L 208.523547 38.115819 
L 213.349493 39.919824 
L 218.175439 39.178994 
L 223.001385 38.962101 
L 227.827331 38.329383 
L 232.653277 39.642722 
L 237.479223 37.263539 
L 242.305169 38.76816 
L 247.131115 40.680293 
L 251.957061 39.548582 
L 256.783007 39.988694 
L 261.608953 38.848663 
L 266.434899 38.789782 
L 271.260845 40.577176 
L 276.086791 40.235533 
L 280.912736 38.554921 
L 285.738682 38.504356 
L 290.564628 37.538966 
L 295.390574 39.309735 
L 300.21652 39.716584 
L 305.042466 40.880245 
L 309.868412 38.218262 
L 314.694358 37.020001 
L 319.520304 39.081861 
L 324.34625 39.189312 
L 329.172196 39.40488 
L 333.998142 41.125765 
L 338.824088 40.351651 
L 343.650034 37.648065 
L 348.47598 36.325045 
L 353.301926 40.449459 
L 358.127872 37.8623 
L 362.953818 37.088179 
L 367.779764 37.836017 
L 372.605709 35.756167 
L 377.431655 38.242204 
L 382.257601 41.293785 
L 387.083547 39.737888 
L 391.909493 40.302764 
L 396.735439 38.197956 
L 401.561385 39.744211 
L 406.387331 40.475424 
L 411.213277 40.399909 
" clip-path="url(#p85ac609d12)" style="fill: none"/>
    <defs>
     <path id="m8bef2a7869" d="M 0 1 
C 0.265203 1 0.51958 0.894634 0.707107 0.707107 
C 0.894634 0.51958 1 0.265203 1 0 
C 1 -0.265203 0.894634 -0.51958 0.707107 -0.707107 
C 0.51958 -0.894634 0.265203 -1 0 -1 
C -0.265203 -1 -0.51958 -0.894634 -0.707107 -0.707107 
C -0.894634 -0.51958 -1 -0.265203 -1 0 
C -1 0.265203 -0.894634 0.51958 -0.707107 0.707107 
C -0.51958 0.894634 -0.265203 1 0 1 
z
" style="stroke: #ffa500"/>
    </defs>
    <g clip-path="url(#p85ac609d12)">
     <use xlink:href="#m8bef2a7869" x="58.919223" y="38.144785" style="fill: #ffa500; stroke: #ffa500"/>
     <use xlink:href="#m8bef2a7869" x="63.745169" y="40.248117" style="fill: #ffa500; stroke: #ffa500"/>
     <use xlink:href="#m8bef2a7869" x="68.571115" y="38.542631" style="fill: #ffa500; stroke: #ffa500"/>
     <use xlink:href="#m8bef2a7869" x="73.397061" y="39.930773" style="fill: #ffa500; stroke: #ffa500"/>
     <use xlink:href="#m8bef2a7869" x="78.223007" y="40.246125" style="fill: #ffa500; stroke: #ffa500"/>
     <use xlink:href="#m8bef2a7869" x="83.048953" y="39.455419" style="fill: #ffa500; stroke: #ffa500"/>
     <use xlink:href="#m8bef2a7869" x="87.874899" y="39.363276" style="fill: #ffa500; stroke: #ffa500"/>
     <use xlink:href="#m8bef2a7869" x="92.700845" y="38.92185" style="fill: #ffa500; stroke: #ffa500"/>
     <use xlink:href="#m8bef2a7869" x="97.526791" y="38.630115" style="fill: #ffa500; stroke: #ffa500"/>
     <use xlink:href="#m8bef2a7869" x="102.352736" y="38.770826" style="fill: #ffa500; stroke: #ffa500"/>
     <use xlink:href="#m8bef2a7869" x="107.178682" y="38.786793" style="fill: #ffa500; stroke: #ffa500"/>
     <use xlink:href="#m8bef2a7869" x="112.004628" y="37.006443" style="fill: #ffa500; stroke: #ffa500"/>
     <use xlink:href="#m8bef2a7869" x="116.830574" y="38.203322" style="fill: #ffa500; stroke: #ffa500"/>
     <use xlink:href="#m8bef2a7869" x="121.65652" y="38.884593" style="fill: #ffa500; stroke: #ffa500"/>
     <use xlink:href="#m8bef2a7869" x="126.482466" y="39.840303" style="fill: #ffa500; stroke: #ffa500"/>
     <use xlink:href="#m8bef2a7869" x="131.308412" y="38.899894" style="fill: #ffa500; stroke: #ffa500"/>
     <use xlink:href="#m8bef2a7869" x="136.134358" y="38.30877" style="fill: #ffa500; stroke: #ffa500"/>
     <use xlink:href="#m8bef2a7869" x="140.960304" y="39.297748" style="fill: #ffa500; stroke: #ffa500"/>
     <use xlink:href="#m8bef2a7869" x="145.78625" y="41.409433" style="fill: #ffa500; stroke: #ffa500"/>
     <use xlink:href="#m8bef2a7869" x="150.612196" y="39.579174" style="fill: #ffa500; stroke: #ffa500"/>
     <use xlink:href="#m8bef2a7869" x="155.438142" y="38.888251" style="fill: #ffa500; stroke: #ffa500"/>
     <use xlink:href="#m8bef2a7869" x="160.264088" y="37.307476" style="fill: #ffa500; stroke: #ffa500"/>
     <use xlink:href="#m8bef2a7869" x="165.090034" y="39.57718" style="fill: #ffa500; stroke: #ffa500"/>
     <use xlink:href="#m8bef2a7869" x="169.91598" y="38.137781" style="fill: #ffa500; stroke: #ffa500"/>
     <use xlink:href="#m8bef2a7869" x="174.741926" y="38.79411" style="fill: #ffa500; stroke: #ffa500"/>
     <use xlink:href="#m8bef2a7869" x="179.567872" y="39.458756" style="fill: #ffa500; stroke: #ffa500"/>
     <use xlink:href="#m8bef2a7869" x="184.393818" y="39.316712" style="fill: #ffa500; stroke: #ffa500"/>
     <use xlink:href="#m8bef2a7869" x="189.219764" y="38.043636" style="fill: #ffa500; stroke: #ffa500"/>
     <use xlink:href="#m8bef2a7869" x="194.045709" y="39.373597" style="fill: #ffa500; stroke: #ffa500"/>
     <use xlink:href="#m8bef2a7869" x="198.871655" y="38.200315" style="fill: #ffa500; stroke: #ffa500"/>
     <use xlink:href="#m8bef2a7869" x="203.697601" y="37.742245" style="fill: #ffa500; stroke: #ffa500"/>
     <use xlink:href="#m8bef2a7869" x="208.523547" y="38.115819" style="fill: #ffa500; stroke: #ffa500"/>
     <use xlink:href="#m8bef2a7869" x="213.349493" y="39.919824" style="fill: #ffa500; stroke: #ffa500"/>
     <use xlink:href="#m8bef2a7869" x="218.175439" y="39.178994" style="fill: #ffa500; stroke: #ffa500"/>
     <use xlink:href="#m8bef2a7869" x="223.001385" y="38.962101" style="fill: #ffa500; stroke: #ffa500"/>
     <use xlink:href="#m8bef2a7869" x="227.827331" y="38.329383" style="fill: #ffa500; stroke: #ffa500"/>
     <use xlink:href="#m8bef2a7869" x="232.653277" y="39.642722" style="fill: #ffa500; stroke: #ffa500"/>
     <use xlink:href="#m8bef2a7869" x="237.479223" y="37.263539" style="fill: #ffa500; stroke: #ffa500"/>
     <use xlink:href="#m8bef2a7869" x="242.305169" y="38.76816" style="fill: #ffa500; stroke: #ffa500"/>
     <use xlink:href="#m8bef2a7869" x="247.131115" y="40.680293" style="fill: #ffa500; stroke: #ffa500"/>
     <use xlink:href="#m8bef2a7869" x="251.957061" y="39.548582" style="fill: #ffa500; stroke: #ffa500"/>
     <use xlink:href="#m8bef2a7869" x="256.783007" y="39.988694" style="fill: #ffa500; stroke: #ffa500"/>
     <use xlink:href="#m8bef2a7869" x="261.608953" y="38.848663" style="fill: #ffa500; stroke: #ffa500"/>
     <use xlink:href="#m8bef2a7869" x="266.434899" y="38.789782" style="fill: #ffa500; stroke: #ffa500"/>
     <use xlink:href="#m8bef2a7869" x="271.260845" y="40.577176" style="fill: #ffa500; stroke: #ffa500"/>
     <use xlink:href="#m8bef2a7869" x="276.086791" y="40.235533" style="fill: #ffa500; stroke: #ffa500"/>
     <use xlink:href="#m8bef2a7869" x="280.912736" y="38.554921" style="fill: #ffa500; stroke: #ffa500"/>
     <use xlink:href="#m8bef2a7869" x="285.738682" y="38.504356" style="fill: #ffa500; stroke: #ffa500"/>
     <use xlink:href="#m8bef2a7869" x="290.564628" y="37.538966" style="fill: #ffa500; stroke: #ffa500"/>
     <use xlink:href="#m8bef2a7869" x="295.390574" y="39.309735" style="fill: #ffa500; stroke: #ffa500"/>
     <use xlink:href="#m8bef2a7869" x="300.21652" y="39.716584" style="fill: #ffa500; stroke: #ffa500"/>
     <use xlink:href="#m8bef2a7869" x="305.042466" y="40.880245" style="fill: #ffa500; stroke: #ffa500"/>
     <use xlink:href="#m8bef2a7869" x="309.868412" y="38.218262" style="fill: #ffa500; stroke: #ffa500"/>
     <use xlink:href="#m8bef2a7869" x="314.694358" y="37.020001" style="fill: #ffa500; stroke: #ffa500"/>
     <use xlink:href="#m8bef2a7869" x="319.520304" y="39.081861" style="fill: #ffa500; stroke: #ffa500"/>
     <use xlink:href="#m8bef2a7869" x="324.34625" y="39.189312" style="fill: #ffa500; stroke: #ffa500"/>
     <use xlink:href="#m8bef2a7869" x="329.172196" y="39.40488" style="fill: #ffa500; stroke: #ffa500"/>
     <use xlink:href="#m8bef2a7869" x="333.998142" y="41.125765" style="fill: #ffa500; stroke: #ffa500"/>
     <use xlink:href="#m8bef2a7869" x="338.824088" y="40.351651" style="fill: #ffa500; stroke: #ffa500"/>
     <use xlink:href="#m8bef2a7869" x="343.650034" y="37.648065" style="fill: #ffa500; stroke: #ffa500"/>
     <use xlink:href="#m8bef2a7869" x="348.47598" y="36.325045" style="fill: #ffa500; stroke: #ffa500"/>
     <use xlink:href="#m8bef2a7869" x="353.301926" y="40.449459" style="fill: #ffa500; stroke: #ffa500"/>
     <use xlink:href="#m8bef2a7869" x="358.127872" y="37.8623" style="fill: #ffa500; stroke: #ffa500"/>
     <use xlink:href="#m8bef2a7869" x="362.953818" y="37.088179" style="fill: #ffa500; stroke: #ffa500"/>
     <use xlink:href="#m8bef2a7869" x="367.779764" y="37.836017" style="fill: #ffa500; stroke: #ffa500"/>
     <use xlink:href="#m8bef2a7869" x="372.605709" y="35.756167" style="fill: #ffa500; stroke: #ffa500"/>
     <use xlink:href="#m8bef2a7869" x="377.431655" y="38.242204" style="fill: #ffa500; stroke: #ffa500"/>
     <use xlink:href="#m8bef2a7869" x="382.257601" y="41.293785" style="fill: #ffa500; stroke: #ffa500"/>
     <use xlink:href="#m8bef2a7869" x="387.083547" y="39.737888" style="fill: #ffa500; stroke: #ffa500"/>
     <use xlink:href="#m8bef2a7869" x="391.909493" y="40.302764" style="fill: #ffa500; stroke: #ffa500"/>
     <use xlink:href="#m8bef2a7869" x="396.735439" y="38.197956" style="fill: #ffa500; stroke: #ffa500"/>
     <use xlink:href="#m8bef2a7869" x="401.561385" y="39.744211" style="fill: #ffa500; stroke: #ffa500"/>
     <use xlink:href="#m8bef2a7869" x="406.387331" y="40.475424" style="fill: #ffa500; stroke: #ffa500"/>
     <use xlink:href="#m8bef2a7869" x="411.213277" y="40.399909" style="fill: #ffa500; stroke: #ffa500"/>
    </g>
   </g>
   <g id="line2d_36">
    <path d="M 58.919223 38.144785 
L 63.745169 40.248117 
L 68.571115 40.248117 
L 73.397061 40.248117 
L 78.223007 40.248117 
L 83.048953 40.248117 
L 87.874899 40.248117 
L 92.700845 40.248117 
L 97.526791 40.248117 
L 102.352736 40.248117 
L 107.178682 40.248117 
L 112.004628 40.248117 
L 116.830574 40.248117 
L 121.65652 40.248117 
L 126.482466 40.248117 
L 131.308412 40.248117 
L 136.134358 40.248117 
L 140.960304 40.248117 
L 145.78625 41.409433 
L 150.612196 41.409433 
L 155.438142 41.409433 
L 160.264088 41.409433 
L 165.090034 41.409433 
L 169.91598 41.409433 
L 174.741926 41.409433 
L 179.567872 41.409433 
L 184.393818 41.409433 
L 189.219764 41.409433 
L 194.045709 41.409433 
L 198.871655 41.409433 
L 203.697601 41.409433 
L 208.523547 41.409433 
L 213.349493 41.409433 
L 218.175439 41.409433 
L 223.001385 41.409433 
L 227.827331 41.409433 
L 232.653277 41.409433 
L 237.479223 41.409433 
L 242.305169 41.409433 
L 247.131115 41.409433 
L 251.957061 41.409433 
L 256.783007 41.409433 
L 261.608953 41.409433 
L 266.434899 41.409433 
L 271.260845 41.409433 
L 276.086791 41.409433 
L 280.912736 41.409433 
L 285.738682 41.409433 
L 290.564628 41.409433 
L 295.390574 41.409433 
L 300.21652 41.409433 
L 305.042466 41.409433 
L 309.868412 41.409433 
L 314.694358 41.409433 
L 319.520304 41.409433 
L 324.34625 41.409433 
L 329.172196 41.409433 
L 333.998142 41.409433 
L 338.824088 41.409433 
L 343.650034 41.409433 
L 348.47598 41.409433 
L 353.301926 41.409433 
L 358.127872 41.409433 
L 362.953818 41.409433 
L 367.779764 41.409433 
L 372.605709 41.409433 
L 377.431655 41.409433 
L 382.257601 41.409433 
L 387.083547 41.409433 
L 391.909493 41.409433 
L 396.735439 41.409433 
L 401.561385 41.409433 
L 406.387331 41.409433 
L 411.213277 41.409433 
" clip-path="url(#p85ac609d12)" style="fill: none; stroke: #ffa500; stroke-linecap: square"/>
   </g>
   <g id="line2d_37"/>
   <g id="line2d_38">
    <path d="M 58.919223 38.144785 
L 63.745169 45.054881 
L 68.571115 60.36436 
L 73.397061 70.318227 
L 78.223007 78.392647 
L 83.048953 87.7561 
L 87.874899 98.358691 
L 92.700845 110.308535 
L 97.526791 117.66783 
L 102.352736 123.62169 
L 107.178682 132.236769 
L 112.004628 140.793652 
L 116.830574 148.685249 
L 121.65652 156.560229 
L 126.482466 163.054718 
L 131.308412 168.883914 
L 136.134358 173.523887 
L 140.960304 176.359226 
L 145.78625 178.471049 
L 150.612196 179.626496 
L 155.438142 181.073017 
L 160.264088 181.804334 
L 165.090034 181.953507 
L 169.91598 180.738792 
L 174.741926 179.058358 
L 179.567872 176.637761 
L 184.393818 173.460365 
L 189.219764 169.917041 
L 194.045709 165.392372 
L 198.871655 162.530981 
L 203.697601 160.176886 
L 208.523547 157.889319 
L 213.349493 156.383493 
L 218.175439 155.043995 
L 223.001385 153.163922 
L 227.827331 152.00738 
L 232.653277 150.293631 
L 237.479223 147.033009 
L 242.305169 146.857805 
L 247.131115 142.990068 
L 251.957061 140.602664 
L 256.783007 136.493734 
L 261.608953 134.048103 
L 266.434899 128.575244 
L 271.260845 125.64724 
L 276.086791 122.195287 
L 280.912736 117.096645 
L 285.738682 113.012616 
L 290.564628 108.396317 
L 295.390574 104.744734 
L 300.21652 100.73553 
L 305.042466 98.140142 
L 309.868412 92.018501 
L 314.694358 88.192238 
L 319.520304 84.499034 
L 324.34625 81.462837 
L 329.172196 81.187765 
L 333.998142 78.783625 
L 338.824088 74.766046 
L 343.650034 70.382525 
L 348.47598 68.760137 
L 353.301926 68.351983 
L 358.127872 65.182682 
L 362.953818 65.065609 
L 367.779764 62.777871 
L 372.605709 60.157459 
L 377.431655 61.271258 
L 382.257601 58.201734 
L 387.083547 56.546054 
L 391.909493 57.934306 
L 396.735439 54.756652 
L 401.561385 53.275615 
L 406.387331 54.663868 
L 411.213277 52.974908 
" clip-path="url(#p85ac609d12)" style="fill: none"/>
    <defs>
     <path id="m12a3a5c612" d="M 0 1 
C 0.265203 1 0.51958 0.894634 0.707107 0.707107 
C 0.894634 0.51958 1 0.265203 1 0 
C 1 -0.265203 0.894634 -0.51958 0.707107 -0.707107 
C 0.51958 -0.894634 0.265203 -1 0 -1 
C -0.265203 -1 -0.51958 -0.894634 -0.707107 -0.707107 
C -0.894634 -0.51958 -1 -0.265203 -1 0 
C -1 0.265203 -0.894634 0.51958 -0.707107 0.707107 
C -0.51958 0.894634 -0.265203 1 0 1 
z
" style="stroke: #000000"/>
    </defs>
    <g clip-path="url(#p85ac609d12)">
     <use xlink:href="#m12a3a5c612" x="58.919223" y="38.144785" style="stroke: #000000"/>
     <use xlink:href="#m12a3a5c612" x="63.745169" y="45.054881" style="stroke: #000000"/>
     <use xlink:href="#m12a3a5c612" x="68.571115" y="60.36436" style="stroke: #000000"/>
     <use xlink:href="#m12a3a5c612" x="73.397061" y="70.318227" style="stroke: #000000"/>
     <use xlink:href="#m12a3a5c612" x="78.223007" y="78.392647" style="stroke: #000000"/>
     <use xlink:href="#m12a3a5c612" x="83.048953" y="87.7561" style="stroke: #000000"/>
     <use xlink:href="#m12a3a5c612" x="87.874899" y="98.358691" style="stroke: #000000"/>
     <use xlink:href="#m12a3a5c612" x="92.700845" y="110.308535" style="stroke: #000000"/>
     <use xlink:href="#m12a3a5c612" x="97.526791" y="117.66783" style="stroke: #000000"/>
     <use xlink:href="#m12a3a5c612" x="102.352736" y="123.62169" style="stroke: #000000"/>
     <use xlink:href="#m12a3a5c612" x="107.178682" y="132.236769" style="stroke: #000000"/>
     <use xlink:href="#m12a3a5c612" x="112.004628" y="140.793652" style="stroke: #000000"/>
     <use xlink:href="#m12a3a5c612" x="116.830574" y="148.685249" style="stroke: #000000"/>
     <use xlink:href="#m12a3a5c612" x="121.65652" y="156.560229" style="stroke: #000000"/>
     <use xlink:href="#m12a3a5c612" x="126.482466" y="163.054718" style="stroke: #000000"/>
     <use xlink:href="#m12a3a5c612" x="131.308412" y="168.883914" style="stroke: #000000"/>
     <use xlink:href="#m12a3a5c612" x="136.134358" y="173.523887" style="stroke: #000000"/>
     <use xlink:href="#m12a3a5c612" x="140.960304" y="176.359226" style="stroke: #000000"/>
     <use xlink:href="#m12a3a5c612" x="145.78625" y="178.471049" style="stroke: #000000"/>
     <use xlink:href="#m12a3a5c612" x="150.612196" y="179.626496" style="stroke: #000000"/>
     <use xlink:href="#m12a3a5c612" x="155.438142" y="181.073017" style="stroke: #000000"/>
     <use xlink:href="#m12a3a5c612" x="160.264088" y="181.804334" style="stroke: #000000"/>
     <use xlink:href="#m12a3a5c612" x="165.090034" y="181.953507" style="stroke: #000000"/>
     <use xlink:href="#m12a3a5c612" x="169.91598" y="180.738792" style="stroke: #000000"/>
     <use xlink:href="#m12a3a5c612" x="174.741926" y="179.058358" style="stroke: #000000"/>
     <use xlink:href="#m12a3a5c612" x="179.567872" y="176.637761" style="stroke: #000000"/>
     <use xlink:href="#m12a3a5c612" x="184.393818" y="173.460365" style="stroke: #000000"/>
     <use xlink:href="#m12a3a5c612" x="189.219764" y="169.917041" style="stroke: #000000"/>
     <use xlink:href="#m12a3a5c612" x="194.045709" y="165.392372" style="stroke: #000000"/>
     <use xlink:href="#m12a3a5c612" x="198.871655" y="162.530981" style="stroke: #000000"/>
     <use xlink:href="#m12a3a5c612" x="203.697601" y="160.176886" style="stroke: #000000"/>
     <use xlink:href="#m12a3a5c612" x="208.523547" y="157.889319" style="stroke: #000000"/>
     <use xlink:href="#m12a3a5c612" x="213.349493" y="156.383493" style="stroke: #000000"/>
     <use xlink:href="#m12a3a5c612" x="218.175439" y="155.043995" style="stroke: #000000"/>
     <use xlink:href="#m12a3a5c612" x="223.001385" y="153.163922" style="stroke: #000000"/>
     <use xlink:href="#m12a3a5c612" x="227.827331" y="152.00738" style="stroke: #000000"/>
     <use xlink:href="#m12a3a5c612" x="232.653277" y="150.293631" style="stroke: #000000"/>
     <use xlink:href="#m12a3a5c612" x="237.479223" y="147.033009" style="stroke: #000000"/>
     <use xlink:href="#m12a3a5c612" x="242.305169" y="146.857805" style="stroke: #000000"/>
     <use xlink:href="#m12a3a5c612" x="247.131115" y="142.990068" style="stroke: #000000"/>
     <use xlink:href="#m12a3a5c612" x="251.957061" y="140.602664" style="stroke: #000000"/>
     <use xlink:href="#m12a3a5c612" x="256.783007" y="136.493734" style="stroke: #000000"/>
     <use xlink:href="#m12a3a5c612" x="261.608953" y="134.048103" style="stroke: #000000"/>
     <use xlink:href="#m12a3a5c612" x="266.434899" y="128.575244" style="stroke: #000000"/>
     <use xlink:href="#m12a3a5c612" x="271.260845" y="125.64724" style="stroke: #000000"/>
     <use xlink:href="#m12a3a5c612" x="276.086791" y="122.195287" style="stroke: #000000"/>
     <use xlink:href="#m12a3a5c612" x="280.912736" y="117.096645" style="stroke: #000000"/>
     <use xlink:href="#m12a3a5c612" x="285.738682" y="113.012616" style="stroke: #000000"/>
     <use xlink:href="#m12a3a5c612" x="290.564628" y="108.396317" style="stroke: #000000"/>
     <use xlink:href="#m12a3a5c612" x="295.390574" y="104.744734" style="stroke: #000000"/>
     <use xlink:href="#m12a3a5c612" x="300.21652" y="100.73553" style="stroke: #000000"/>
     <use xlink:href="#m12a3a5c612" x="305.042466" y="98.140142" style="stroke: #000000"/>
     <use xlink:href="#m12a3a5c612" x="309.868412" y="92.018501" style="stroke: #000000"/>
     <use xlink:href="#m12a3a5c612" x="314.694358" y="88.192238" style="stroke: #000000"/>
     <use xlink:href="#m12a3a5c612" x="319.520304" y="84.499034" style="stroke: #000000"/>
     <use xlink:href="#m12a3a5c612" x="324.34625" y="81.462837" style="stroke: #000000"/>
     <use xlink:href="#m12a3a5c612" x="329.172196" y="81.187765" style="stroke: #000000"/>
     <use xlink:href="#m12a3a5c612" x="333.998142" y="78.783625" style="stroke: #000000"/>
     <use xlink:href="#m12a3a5c612" x="338.824088" y="74.766046" style="stroke: #000000"/>
     <use xlink:href="#m12a3a5c612" x="343.650034" y="70.382525" style="stroke: #000000"/>
     <use xlink:href="#m12a3a5c612" x="348.47598" y="68.760137" style="stroke: #000000"/>
     <use xlink:href="#m12a3a5c612" x="353.301926" y="68.351983" style="stroke: #000000"/>
     <use xlink:href="#m12a3a5c612" x="358.127872" y="65.182682" style="stroke: #000000"/>
     <use xlink:href="#m12a3a5c612" x="362.953818" y="65.065609" style="stroke: #000000"/>
     <use xlink:href="#m12a3a5c612" x="367.779764" y="62.777871" style="stroke: #000000"/>
     <use xlink:href="#m12a3a5c612" x="372.605709" y="60.157459" style="stroke: #000000"/>
     <use xlink:href="#m12a3a5c612" x="377.431655" y="61.271258" style="stroke: #000000"/>
     <use xlink:href="#m12a3a5c612" x="382.257601" y="58.201734" style="stroke: #000000"/>
     <use xlink:href="#m12a3a5c612" x="387.083547" y="56.546054" style="stroke: #000000"/>
     <use xlink:href="#m12a3a5c612" x="391.909493" y="57.934306" style="stroke: #000000"/>
     <use xlink:href="#m12a3a5c612" x="396.735439" y="54.756652" style="stroke: #000000"/>
     <use xlink:href="#m12a3a5c612" x="401.561385" y="53.275615" style="stroke: #000000"/>
     <use xlink:href="#m12a3a5c612" x="406.387331" y="54.663868" style="stroke: #000000"/>
     <use xlink:href="#m12a3a5c612" x="411.213277" y="52.974908" style="stroke: #000000"/>
    </g>
   </g>
   <g id="line2d_39">
    <path d="M 58.919223 38.144785 
L 63.745169 45.054881 
L 68.571115 60.36436 
L 73.397061 70.318227 
L 78.223007 78.392647 
L 83.048953 87.7561 
L 87.874899 98.358691 
L 92.700845 110.308535 
L 97.526791 117.66783 
L 102.352736 123.62169 
L 107.178682 132.236769 
L 112.004628 140.793652 
L 116.830574 148.685249 
L 121.65652 156.560229 
L 126.482466 163.054718 
L 131.308412 168.883914 
L 136.134358 173.523887 
L 140.960304 176.359226 
L 145.78625 178.471049 
L 150.612196 179.626496 
L 155.438142 181.073017 
L 160.264088 181.804334 
L 165.090034 181.953507 
L 169.91598 181.953507 
L 174.741926 181.953507 
L 179.567872 181.953507 
L 184.393818 181.953507 
L 189.219764 181.953507 
L 194.045709 181.953507 
L 198.871655 181.953507 
L 203.697601 181.953507 
L 208.523547 181.953507 
L 213.349493 181.953507 
L 218.175439 181.953507 
L 223.001385 181.953507 
L 227.827331 181.953507 
L 232.653277 181.953507 
L 237.479223 181.953507 
L 242.305169 181.953507 
L 247.131115 181.953507 
L 251.957061 181.953507 
L 256.783007 181.953507 
L 261.608953 181.953507 
L 266.434899 181.953507 
L 271.260845 181.953507 
L 276.086791 181.953507 
L 280.912736 181.953507 
L 285.738682 181.953507 
L 290.564628 181.953507 
L 295.390574 181.953507 
L 300.21652 181.953507 
L 305.042466 181.953507 
L 309.868412 181.953507 
L 314.694358 181.953507 
L 319.520304 181.953507 
L 324.34625 181.953507 
L 329.172196 181.953507 
L 333.998142 181.953507 
L 338.824088 181.953507 
L 343.650034 181.953507 
L 348.47598 181.953507 
L 353.301926 181.953507 
L 358.127872 181.953507 
L 362.953818 181.953507 
L 367.779764 181.953507 
L 372.605709 181.953507 
L 377.431655 181.953507 
L 382.257601 181.953507 
L 387.083547 181.953507 
L 391.909493 181.953507 
L 396.735439 181.953507 
L 401.561385 181.953507 
L 406.387331 181.953507 
L 411.213277 181.953507 
" clip-path="url(#p85ac609d12)" style="fill: none; stroke: #000000; stroke-linecap: square"/>
   </g>
   <g id="line2d_40"/>
   <g id="line2d_41"/>
   <g id="line2d_42"/>
   <g id="line2d_43"/>
   <g id="line2d_44"/>
   <g id="line2d_45"/>
   <g id="line2d_46"/>
   <g id="line2d_47"/>
   <g id="line2d_48"/>
   <g id="line2d_49"/>
   <g id="line2d_50">
    <path clip-path="url(#p85ac609d12)" style="fill: none; stroke: #000000; stroke-width: 1.5; stroke-linecap: square"/>
   </g>
   <g id="patch_3">
    <path d="M 56.50625 288.430125 
L 56.50625 22.318125 
" style="fill: none; stroke: #000000; stroke-width: 0.8; stroke-linejoin: miter; stroke-linecap: square"/>
   </g>
   <g id="text_20">
    <!-- Densities and lower bounds (σ=256, w=24, t=1) -->
    <g transform="translate(88.624063 16.318125) scale(0.12 -0.12)">
     <defs>
      <path id="DejaVuSans-20" transform="scale(0.015625)"/>
      <path id="DejaVuSans-61" d="M 2194 1759 
Q 1497 1759 1228 1600 
Q 959 1441 959 1056 
Q 959 750 1161 570 
Q 1363 391 1709 391 
Q 2188 391 2477 730 
Q 2766 1069 2766 1631 
L 2766 1759 
L 2194 1759 
z
M 3341 1997 
L 3341 0 
L 2766 0 
L 2766 531 
Q 2569 213 2275 61 
Q 1981 -91 1556 -91 
Q 1019 -91 701 211 
Q 384 513 384 1019 
Q 384 1609 779 1909 
Q 1175 2209 1959 2209 
L 2766 2209 
L 2766 2266 
Q 2766 2663 2505 2880 
Q 2244 3097 1772 3097 
Q 1472 3097 1187 3025 
Q 903 2953 641 2809 
L 641 3341 
Q 956 3463 1253 3523 
Q 1550 3584 1831 3584 
Q 2591 3584 2966 3190 
Q 3341 2797 3341 1997 
z
" transform="scale(0.015625)"/>
      <path id="DejaVuSans-64" d="M 2906 2969 
L 2906 4863 
L 3481 4863 
L 3481 0 
L 2906 0 
L 2906 525 
Q 2725 213 2448 61 
Q 2172 -91 1784 -91 
Q 1150 -91 751 415 
Q 353 922 353 1747 
Q 353 2572 751 3078 
Q 1150 3584 1784 3584 
Q 2172 3584 2448 3432 
Q 2725 3281 2906 2969 
z
M 947 1747 
Q 947 1113 1208 752 
Q 1469 391 1925 391 
Q 2381 391 2643 752 
Q 2906 1113 2906 1747 
Q 2906 2381 2643 2742 
Q 2381 3103 1925 3103 
Q 1469 3103 1208 2742 
Q 947 2381 947 1747 
z
" transform="scale(0.015625)"/>
      <path id="DejaVuSans-6c" d="M 603 4863 
L 1178 4863 
L 1178 0 
L 603 0 
L 603 4863 
z
" transform="scale(0.015625)"/>
      <path id="DejaVuSans-6f" d="M 1959 3097 
Q 1497 3097 1228 2736 
Q 959 2375 959 1747 
Q 959 1119 1226 758 
Q 1494 397 1959 397 
Q 2419 397 2687 759 
Q 2956 1122 2956 1747 
Q 2956 2369 2687 2733 
Q 2419 3097 1959 3097 
z
M 1959 3584 
Q 2709 3584 3137 3096 
Q 3566 2609 3566 1747 
Q 3566 888 3137 398 
Q 2709 -91 1959 -91 
Q 1206 -91 779 398 
Q 353 888 353 1747 
Q 353 2609 779 3096 
Q 1206 3584 1959 3584 
z
" transform="scale(0.015625)"/>
      <path id="DejaVuSans-77" d="M 269 3500 
L 844 3500 
L 1563 769 
L 2278 3500 
L 2956 3500 
L 3675 769 
L 4391 3500 
L 4966 3500 
L 4050 0 
L 3372 0 
L 2619 2869 
L 1863 0 
L 1184 0 
L 269 3500 
z
" transform="scale(0.015625)"/>
      <path id="DejaVuSans-72" d="M 2631 2963 
Q 2534 3019 2420 3045 
Q 2306 3072 2169 3072 
Q 1681 3072 1420 2755 
Q 1159 2438 1159 1844 
L 1159 0 
L 581 0 
L 581 3500 
L 1159 3500 
L 1159 2956 
Q 1341 3275 1631 3429 
Q 1922 3584 2338 3584 
Q 2397 3584 2469 3576 
Q 2541 3569 2628 3553 
L 2631 2963 
z
" transform="scale(0.015625)"/>
      <path id="DejaVuSans-62" d="M 3116 1747 
Q 3116 2381 2855 2742 
Q 2594 3103 2138 3103 
Q 1681 3103 1420 2742 
Q 1159 2381 1159 1747 
Q 1159 1113 1420 752 
Q 1681 391 2138 391 
Q 2594 391 2855 752 
Q 3116 1113 3116 1747 
z
M 1159 2969 
Q 1341 3281 1617 3432 
Q 1894 3584 2278 3584 
Q 2916 3584 3314 3078 
Q 3713 2572 3713 1747 
Q 3713 922 3314 415 
Q 2916 -91 2278 -91 
Q 1894 -91 1617 61 
Q 1341 213 1159 525 
L 1159 0 
L 581 0 
L 581 4863 
L 1159 4863 
L 1159 2969 
z
" transform="scale(0.015625)"/>
      <path id="DejaVuSans-75" d="M 544 1381 
L 544 3500 
L 1119 3500 
L 1119 1403 
Q 1119 906 1312 657 
Q 1506 409 1894 409 
Q 2359 409 2629 706 
Q 2900 1003 2900 1516 
L 2900 3500 
L 3475 3500 
L 3475 0 
L 2900 0 
L 2900 538 
Q 2691 219 2414 64 
Q 2138 -91 1772 -91 
Q 1169 -91 856 284 
Q 544 659 544 1381 
z
M 1991 3584 
L 1991 3584 
z
" transform="scale(0.015625)"/>
      <path id="DejaVuSans-28" d="M 1984 4856 
Q 1566 4138 1362 3434 
Q 1159 2731 1159 2009 
Q 1159 1288 1364 580 
Q 1569 -128 1984 -844 
L 1484 -844 
Q 1016 -109 783 600 
Q 550 1309 550 2009 
Q 550 2706 781 3412 
Q 1013 4119 1484 4856 
L 1984 4856 
z
" transform="scale(0.015625)"/>
      <path id="DejaVuSans-3c3" d="M 1959 3044 
Q 1484 3044 1228 2700 
Q 959 2341 959 1747 
Q 959 1119 1226 758 
Q 1494 397 1959 397 
Q 2419 397 2687 759 
Q 2956 1122 2956 1747 
Q 2956 2319 2688 2700 
Q 2441 3044 1959 3044 
z
M 1959 3500 
L 3869 3500 
L 3869 2925 
L 3225 2925 
Q 3566 2438 3566 1747 
Q 3566 888 3138 400 
Q 2709 -91 1959 -91 
Q 1206 -91 781 400 
Q 353 888 353 1747 
Q 353 2613 781 3097 
Q 1134 3500 1959 3500 
z
" transform="scale(0.015625)"/>
      <path id="DejaVuSans-3d" d="M 678 2906 
L 4684 2906 
L 4684 2381 
L 678 2381 
L 678 2906 
z
M 678 1631 
L 4684 1631 
L 4684 1100 
L 678 1100 
L 678 1631 
z
" transform="scale(0.015625)"/>
      <path id="DejaVuSans-2c" d="M 750 794 
L 1409 794 
L 1409 256 
L 897 -744 
L 494 -744 
L 750 256 
L 750 794 
z
" transform="scale(0.015625)"/>
      <path id="DejaVuSans-29" d="M 513 4856 
L 1013 4856 
Q 1481 4119 1714 3412 
Q 1947 2706 1947 2009 
Q 1947 1309 1714 600 
Q 1481 -109 1013 -844 
L 513 -844 
Q 928 -128 1133 580 
Q 1338 1288 1338 2009 
Q 1338 2731 1133 3434 
Q 928 4138 513 4856 
z
" transform="scale(0.015625)"/>
     </defs>
     <use xlink:href="#DejaVuSans-44"/>
     <use xlink:href="#DejaVuSans-65" x="77.001953"/>
     <use xlink:href="#DejaVuSans-6e" x="138.525391"/>
     <use xlink:href="#DejaVuSans-73" x="201.904297"/>
     <use xlink:href="#DejaVuSans-69" x="254.003906"/>
     <use xlink:href="#DejaVuSans-74" x="281.787109"/>
     <use xlink:href="#DejaVuSans-69" x="320.996094"/>
     <use xlink:href="#DejaVuSans-65" x="348.779297"/>
     <use xlink:href="#DejaVuSans-73" x="410.302734"/>
     <use xlink:href="#DejaVuSans-20" x="462.402344"/>
     <use xlink:href="#DejaVuSans-61" x="494.189453"/>
     <use xlink:href="#DejaVuSans-6e" x="555.46875"/>
     <use xlink:href="#DejaVuSans-64" x="618.847656"/>
     <use xlink:href="#DejaVuSans-20" x="682.324219"/>
     <use xlink:href="#DejaVuSans-6c" x="714.111328"/>
     <use xlink:href="#DejaVuSans-6f" x="741.894531"/>
     <use xlink:href="#DejaVuSans-77" x="803.076172"/>
     <use xlink:href="#DejaVuSans-65" x="884.863281"/>
     <use xlink:href="#DejaVuSans-72" x="946.386719"/>
     <use xlink:href="#DejaVuSans-20" x="987.5"/>
     <use xlink:href="#DejaVuSans-62" x="1019.287109"/>
     <use xlink:href="#DejaVuSans-6f" x="1082.763672"/>
     <use xlink:href="#DejaVuSans-75" x="1143.945312"/>
     <use xlink:href="#DejaVuSans-6e" x="1207.324219"/>
     <use xlink:href="#DejaVuSans-64" x="1270.703125"/>
     <use xlink:href="#DejaVuSans-73" x="1334.179688"/>
     <use xlink:href="#DejaVuSans-20" x="1386.279297"/>
     <use xlink:href="#DejaVuSans-28" x="1418.066406"/>
     <use xlink:href="#DejaVuSans-3c3" x="1457.080078"/>
     <use xlink:href="#DejaVuSans-3d" x="1520.458984"/>
     <use xlink:href="#DejaVuSans-32" x="1604.248047"/>
     <use xlink:href="#DejaVuSans-35" x="1667.871094"/>
     <use xlink:href="#DejaVuSans-36" x="1731.494141"/>
     <use xlink:href="#DejaVuSans-2c" x="1795.117188"/>
     <use xlink:href="#DejaVuSans-20" x="1826.904297"/>
     <use xlink:href="#DejaVuSans-77" x="1858.691406"/>
     <use xlink:href="#DejaVuSans-3d" x="1940.478516"/>
     <use xlink:href="#DejaVuSans-32" x="2024.267578"/>
     <use xlink:href="#DejaVuSans-34" x="2087.890625"/>
     <use xlink:href="#DejaVuSans-2c" x="2151.513672"/>
     <use xlink:href="#DejaVuSans-20" x="2183.300781"/>
     <use xlink:href="#DejaVuSans-74" x="2215.087891"/>
     <use xlink:href="#DejaVuSans-3d" x="2254.296875"/>
     <use xlink:href="#DejaVuSans-31" x="2338.085938"/>
     <use xlink:href="#DejaVuSans-29" x="2401.708984"/>
    </g>
   </g>
   <g id="legend_1">
    <g id="patch_4">
     <path d="M 60.70625 277.446765 
L 409.42625 277.446765 
Q 410.62625 277.446765 410.62625 276.246765 
L 410.62625 250.42614 
Q 410.62625 249.22614 409.42625 249.22614 
L 60.70625 249.22614 
Q 59.50625 249.22614 59.50625 250.42614 
L 59.50625 276.246765 
Q 59.50625 277.446765 60.70625 277.446765 
z
" style="fill: #ffffff; opacity: 0.8; stroke: #cccccc; stroke-linejoin: miter"/>
    </g>
    <g id="line2d_51">
     <path d="M 61.90625 254.085202 
L 67.90625 254.085202 
L 73.90625 254.085202 
" style="fill: none; stroke: #ffa500; stroke-linecap: square"/>
     <g>
      <use xlink:href="#m8bef2a7869" x="67.90625" y="254.085202" style="fill: #ffa500; stroke: #ffa500"/>
     </g>
    </g>
    <g id="text_21">
     <!-- Random minimizer -->
     <g transform="translate(78.70625 256.185202) scale(0.06 -0.06)">
      <defs>
       <path id="DejaVuSans-52" d="M 2841 2188 
Q 3044 2119 3236 1894 
Q 3428 1669 3622 1275 
L 4263 0 
L 3584 0 
L 2988 1197 
Q 2756 1666 2539 1819 
Q 2322 1972 1947 1972 
L 1259 1972 
L 1259 0 
L 628 0 
L 628 4666 
L 2053 4666 
Q 2853 4666 3247 4331 
Q 3641 3997 3641 3322 
Q 3641 2881 3436 2590 
Q 3231 2300 2841 2188 
z
M 1259 4147 
L 1259 2491 
L 2053 2491 
Q 2509 2491 2742 2702 
Q 2975 2913 2975 3322 
Q 2975 3731 2742 3939 
Q 2509 4147 2053 4147 
L 1259 4147 
z
" transform="scale(0.015625)"/>
       <path id="DejaVuSans-6d" d="M 3328 2828 
Q 3544 3216 3844 3400 
Q 4144 3584 4550 3584 
Q 5097 3584 5394 3201 
Q 5691 2819 5691 2113 
L 5691 0 
L 5113 0 
L 5113 2094 
Q 5113 2597 4934 2840 
Q 4756 3084 4391 3084 
Q 3944 3084 3684 2787 
Q 3425 2491 3425 1978 
L 3425 0 
L 2847 0 
L 2847 2094 
Q 2847 2600 2669 2842 
Q 2491 3084 2119 3084 
Q 1678 3084 1418 2786 
Q 1159 2488 1159 1978 
L 1159 0 
L 581 0 
L 581 3500 
L 1159 3500 
L 1159 2956 
Q 1356 3278 1631 3431 
Q 1906 3584 2284 3584 
Q 2666 3584 2933 3390 
Q 3200 3197 3328 2828 
z
" transform="scale(0.015625)"/>
       <path id="DejaVuSans-7a" d="M 353 3500 
L 3084 3500 
L 3084 2975 
L 922 459 
L 3084 459 
L 3084 0 
L 275 0 
L 275 525 
L 2438 3041 
L 353 3041 
L 353 3500 
z
" transform="scale(0.015625)"/>
      </defs>
      <use xlink:href="#DejaVuSans-52"/>
      <use xlink:href="#DejaVuSans-61" x="67.232422"/>
      <use xlink:href="#DejaVuSans-6e" x="128.511719"/>
      <use xlink:href="#DejaVuSans-64" x="191.890625"/>
      <use xlink:href="#DejaVuSans-6f" x="255.367188"/>
      <use xlink:href="#DejaVuSans-6d" x="316.548828"/>
      <use xlink:href="#DejaVuSans-20" x="413.960938"/>
      <use xlink:href="#DejaVuSans-6d" x="445.748047"/>
      <use xlink:href="#DejaVuSans-69" x="543.160156"/>
      <use xlink:href="#DejaVuSans-6e" x="570.943359"/>
      <use xlink:href="#DejaVuSans-69" x="634.322266"/>
      <use xlink:href="#DejaVuSans-6d" x="662.105469"/>
      <use xlink:href="#DejaVuSans-69" x="759.517578"/>
      <use xlink:href="#DejaVuSans-7a" x="787.300781"/>
      <use xlink:href="#DejaVuSans-65" x="839.791016"/>
      <use xlink:href="#DejaVuSans-72" x="901.314453"/>
     </g>
    </g>
    <g id="line2d_52">
     <path d="M 61.90625 262.892077 
L 67.90625 262.892077 
L 73.90625 262.892077 
" style="fill: none; stroke: #000000; stroke-linecap: square"/>
     <g>
      <use xlink:href="#m12a3a5c612" x="67.90625" y="262.892077" style="stroke: #000000"/>
     </g>
    </g>
    <g id="text_22">
     <!-- Double Decycling -->
     <g transform="translate(78.70625 264.992077) scale(0.06 -0.06)">
      <defs>
       <path id="DejaVuSans-63" d="M 3122 3366 
L 3122 2828 
Q 2878 2963 2633 3030 
Q 2388 3097 2138 3097 
Q 1578 3097 1268 2742 
Q 959 2388 959 1747 
Q 959 1106 1268 751 
Q 1578 397 2138 397 
Q 2388 397 2633 464 
Q 2878 531 3122 666 
L 3122 134 
Q 2881 22 2623 -34 
Q 2366 -91 2075 -91 
Q 1284 -91 818 406 
Q 353 903 353 1747 
Q 353 2603 823 3093 
Q 1294 3584 2113 3584 
Q 2378 3584 2631 3529 
Q 2884 3475 3122 3366 
z
" transform="scale(0.015625)"/>
       <path id="DejaVuSans-67" d="M 2906 1791 
Q 2906 2416 2648 2759 
Q 2391 3103 1925 3103 
Q 1463 3103 1205 2759 
Q 947 2416 947 1791 
Q 947 1169 1205 825 
Q 1463 481 1925 481 
Q 2391 481 2648 825 
Q 2906 1169 2906 1791 
z
M 3481 434 
Q 3481 -459 3084 -895 
Q 2688 -1331 1869 -1331 
Q 1566 -1331 1297 -1286 
Q 1028 -1241 775 -1147 
L 775 -588 
Q 1028 -725 1275 -790 
Q 1522 -856 1778 -856 
Q 2344 -856 2625 -561 
Q 2906 -266 2906 331 
L 2906 616 
Q 2728 306 2450 153 
Q 2172 0 1784 0 
Q 1141 0 747 490 
Q 353 981 353 1791 
Q 353 2603 747 3093 
Q 1141 3584 1784 3584 
Q 2172 3584 2450 3431 
Q 2728 3278 2906 2969 
L 2906 3500 
L 3481 3500 
L 3481 434 
z
" transform="scale(0.015625)"/>
      </defs>
      <use xlink:href="#DejaVuSans-44"/>
      <use xlink:href="#DejaVuSans-6f" x="77.001953"/>
      <use xlink:href="#DejaVuSans-75" x="138.183594"/>
      <use xlink:href="#DejaVuSans-62" x="201.5625"/>
      <use xlink:href="#DejaVuSans-6c" x="265.039062"/>
      <use xlink:href="#DejaVuSans-65" x="292.822266"/>
      <use xlink:href="#DejaVuSans-20" x="354.345703"/>
      <use xlink:href="#DejaVuSans-44" x="386.132812"/>
      <use xlink:href="#DejaVuSans-65" x="463.134766"/>
      <use xlink:href="#DejaVuSans-63" x="524.658203"/>
      <use xlink:href="#DejaVuSans-79" x="579.638672"/>
      <use xlink:href="#DejaVuSans-63" x="638.818359"/>
      <use xlink:href="#DejaVuSans-6c" x="693.798828"/>
      <use xlink:href="#DejaVuSans-69" x="721.582031"/>
      <use xlink:href="#DejaVuSans-6e" x="749.365234"/>
      <use xlink:href="#DejaVuSans-67" x="812.744141"/>
     </g>
    </g>
    <g id="line2d_53">
     <path d="M 61.90625 271.698952 
L 67.90625 271.698952 
L 73.90625 271.698952 
" style="fill: none; stroke: #1f77b4; stroke-opacity: 0; stroke-width: 1.5; stroke-linecap: square"/>
    </g>
    <g id="text_23">
     <!--   -->
     <g transform="translate(78.70625 273.798952) scale(0.06 -0.06)">
      <use xlink:href="#DejaVuSans-20"/>
     </g>
    </g>
    <g id="line2d_54">
     <path d="M 204.589375 254.085202 
L 210.589375 254.085202 
L 216.589375 254.085202 
" style="fill: none; stroke: #ff7f0e; stroke-opacity: 0; stroke-width: 1.5; stroke-linecap: square"/>
    </g>
    <g id="text_24">
     <!--   -->
     <g transform="translate(221.389375 256.185202) scale(0.06 -0.06)">
      <use xlink:href="#DejaVuSans-20"/>
     </g>
    </g>
    <g id="line2d_55">
     <path d="M 204.589375 262.892077 
L 210.589375 262.892077 
L 216.589375 262.892077 
" style="fill: none; stroke: #2ca02c; stroke-opacity: 0; stroke-width: 1.5; stroke-linecap: square"/>
    </g>
    <g id="text_25">
     <!--   -->
     <g transform="translate(221.389375 264.992077) scale(0.06 -0.06)">
      <use xlink:href="#DejaVuSans-20"/>
     </g>
    </g>
    <g id="line2d_56">
     <path d="M 204.589375 271.698952 
L 210.589375 271.698952 
L 216.589375 271.698952 
" style="fill: none; stroke: #d62728; stroke-opacity: 0; stroke-width: 1.5; stroke-linecap: square"/>
    </g>
    <g id="text_26">
     <!--   -->
     <g transform="translate(221.389375 273.798952) scale(0.06 -0.06)">
      <use xlink:href="#DejaVuSans-20"/>
     </g>
    </g>
    <g id="line2d_57">
     <path d="M 292.635 254.085202 
L 298.635 254.085202 
L 304.635 254.085202 
" style="fill: none; stroke: #9467bd; stroke-opacity: 0; stroke-width: 1.5; stroke-linecap: square"/>
    </g>
    <g id="text_27">
     <!--   -->
     <g transform="translate(309.435 256.185202) scale(0.06 -0.06)">
      <use xlink:href="#DejaVuSans-20"/>
     </g>
    </g>
    <g id="line2d_58">
     <path d="M 292.635 262.892077 
L 298.635 262.892077 
L 304.635 262.892077 
" style="fill: none; stroke: #8c564b; stroke-opacity: 0; stroke-width: 1.5; stroke-linecap: square"/>
    </g>
    <g id="text_28">
     <!--   -->
     <g transform="translate(309.435 264.992077) scale(0.06 -0.06)">
      <use xlink:href="#DejaVuSans-20"/>
     </g>
    </g>
    <g id="line2d_59">
     <path d="M 292.635 271.698952 
L 298.635 271.698952 
L 304.635 271.698952 
" style="fill: none; stroke: #e377c2; stroke-opacity: 0; stroke-width: 1.5; stroke-linecap: square"/>
    </g>
    <g id="text_29">
     <!--   -->
     <g transform="translate(309.435 273.798952) scale(0.06 -0.06)">
      <use xlink:href="#DejaVuSans-20"/>
     </g>
    </g>
    <g id="line2d_60">
     <path d="M 380.680625 254.085202 
L 386.680625 254.085202 
L 392.680625 254.085202 
" style="fill: none; stroke: #7f7f7f; stroke-opacity: 0; stroke-width: 1.5; stroke-linecap: square"/>
    </g>
    <g id="text_30">
     <!--   -->
     <g transform="translate(397.480625 256.185202) scale(0.06 -0.06)">
      <use xlink:href="#DejaVuSans-20"/>
     </g>
    </g>
    <g id="line2d_61">
     <path d="M 380.680625 262.892077 
L 386.680625 262.892077 
L 392.680625 262.892077 
" style="fill: none; stroke: #bcbd22; stroke-opacity: 0; stroke-width: 1.5; stroke-linecap: square"/>
    </g>
    <g id="text_31">
     <!--   -->
     <g transform="translate(397.480625 264.992077) scale(0.06 -0.06)">
      <use xlink:href="#DejaVuSans-20"/>
     </g>
    </g>
    <g id="line2d_62">
     <path d="M 380.680625 271.698952 
L 386.680625 271.698952 
L 392.680625 271.698952 
" style="fill: none; stroke: #000000; stroke-width: 1.5; stroke-linecap: square"/>
    </g>
    <g id="text_32">
     <!-- 1/w -->
     <g transform="translate(397.480625 273.798952) scale(0.06 -0.06)">
      <defs>
       <path id="DejaVuSans-2f" d="M 1625 4666 
L 2156 4666 
L 531 -594 
L 0 -594 
L 1625 4666 
z
" transform="scale(0.015625)"/>
      </defs>
      <use xlink:href="#DejaVuSans-31"/>
      <use xlink:href="#DejaVuSans-2f" x="63.623047"/>
      <use xlink:href="#DejaVuSans-77" x="97.314453"/>
     </g>
    </g>
   </g>
  </g>
 </g>
 <defs>
  <clipPath id="p85ac609d12">
   <rect x="56.50625" y="22.318125" width="357.12" height="266.112"/>
  </clipPath>
 </defs>
</svg>
