<?xml version="1.0" encoding="utf-8" standalone="no"?>
<!DOCTYPE svg PUBLIC "-//W3C//DTD SVG 1.1//EN"
  "http://www.w3.org/Graphics/SVG/1.1/DTD/svg11.dtd">
<svg xmlns:xlink="http://www.w3.org/1999/xlink" width="420.82625pt" height="199.98825pt" viewBox="0 0 420.82625 199.98825" xmlns="http://www.w3.org/2000/svg" version="1.1">
 <metadata>
  <rdf:RDF xmlns:dc="http://purl.org/dc/elements/1.1/" xmlns:cc="http://creativecommons.org/ns#" xmlns:rdf="http://www.w3.org/1999/02/22-rdf-syntax-ns#">
   <cc:Work>
    <dc:type rdf:resource="http://purl.org/dc/dcmitype/StillImage"/>
    <dc:date>2025-02-18T22:24:03.697650</dc:date>
    <dc:format>image/svg+xml</dc:format>
    <dc:creator>
     <cc:Agent>
      <dc:title>Matplotlib v3.10.0, https://matplotlib.org/</dc:title>
     </cc:Agent>
    </dc:creator>
   </cc:Work>
  </rdf:RDF>
 </metadata>
 <defs>
  <style type="text/css">*{stroke-linejoin: round; stroke-linecap: butt}</style>
 </defs>
 <g id="figure_1">
  <g id="patch_1">
   <path d="M 0 199.98825 
L 420.82625 199.98825 
L 420.82625 -0 
L 0 -0 
z
" style="fill: #ffffff"/>
  </g>
  <g id="axes_1">
   <g id="patch_2">
    <path d="M 56.50625 162.432 
L 413.62625 162.432 
L 413.62625 7.2 
L 56.50625 7.2 
z
" style="fill: #ffffff"/>
   </g>
   <g id="matplotlib.axis_1">
    <g id="xtick_1">
     <g id="line2d_1">
      <path d="M 67.236358 162.432 
L 67.236358 7.2 
" clip-path="url(#pbcce171741)" style="fill: none; stroke: #cccccc; stroke-width: 0.5; stroke-linecap: square"/>
     </g>
     <g id="line2d_2">
      <defs>
       <path id="mace0ef41b7" d="M 0 0 
L 0 3.5 
" style="stroke: #000000; stroke-width: 0.8"/>
      </defs>
      <g>
       <use xlink:href="#mace0ef41b7" x="67.236358" y="162.432" style="stroke: #000000; stroke-width: 0.8"/>
      </g>
     </g>
     <g id="text_1">
      <!-- 0 -->
      <g transform="translate(64.055108 177.030437) scale(0.1 -0.1)">
       <defs>
        <path id="DejaVuSans-30" d="M 2034 4250 
Q 1547 4250 1301 3770 
Q 1056 3291 1056 2328 
Q 1056 1369 1301 889 
Q 1547 409 2034 409 
Q 2525 409 2770 889 
Q 3016 1369 3016 2328 
Q 3016 3291 2770 3770 
Q 2525 4250 2034 4250 
z
M 2034 4750 
Q 2819 4750 3233 4129 
Q 3647 3509 3647 2328 
Q 3647 1150 3233 529 
Q 2819 -91 2034 -91 
Q 1250 -91 836 529 
Q 422 1150 422 2328 
Q 422 3509 836 4129 
Q 1250 4750 2034 4750 
z
" transform="scale(0.015625)"/>
       </defs>
       <use xlink:href="#DejaVuSans-30"/>
      </g>
     </g>
    </g>
    <g id="xtick_2">
     <g id="line2d_3">
      <path d="M 111.257313 162.432 
L 111.257313 7.2 
" clip-path="url(#pbcce171741)" style="fill: none; stroke: #cccccc; stroke-width: 0.5; stroke-linecap: square"/>
     </g>
     <g id="line2d_4">
      <g>
       <use xlink:href="#mace0ef41b7" x="111.257313" y="162.432" style="stroke: #000000; stroke-width: 0.8"/>
      </g>
     </g>
     <g id="text_2">
      <!-- 8 -->
      <g transform="translate(108.076063 177.030437) scale(0.1 -0.1)">
       <defs>
        <path id="DejaVuSans-38" d="M 2034 2216 
Q 1584 2216 1326 1975 
Q 1069 1734 1069 1313 
Q 1069 891 1326 650 
Q 1584 409 2034 409 
Q 2484 409 2743 651 
Q 3003 894 3003 1313 
Q 3003 1734 2745 1975 
Q 2488 2216 2034 2216 
z
M 1403 2484 
Q 997 2584 770 2862 
Q 544 3141 544 3541 
Q 544 4100 942 4425 
Q 1341 4750 2034 4750 
Q 2731 4750 3128 4425 
Q 3525 4100 3525 3541 
Q 3525 3141 3298 2862 
Q 3072 2584 2669 2484 
Q 3125 2378 3379 2068 
Q 3634 1759 3634 1313 
Q 3634 634 3220 271 
Q 2806 -91 2034 -91 
Q 1263 -91 848 271 
Q 434 634 434 1313 
Q 434 1759 690 2068 
Q 947 2378 1403 2484 
z
M 1172 3481 
Q 1172 3119 1398 2916 
Q 1625 2713 2034 2713 
Q 2441 2713 2670 2916 
Q 2900 3119 2900 3481 
Q 2900 3844 2670 4047 
Q 2441 4250 2034 4250 
Q 1625 4250 1398 4047 
Q 1172 3844 1172 3481 
z
" transform="scale(0.015625)"/>
       </defs>
       <use xlink:href="#DejaVuSans-38"/>
      </g>
     </g>
    </g>
    <g id="xtick_3">
     <g id="line2d_5">
      <path d="M 155.278268 162.432 
L 155.278268 7.2 
" clip-path="url(#pbcce171741)" style="fill: none; stroke: #cccccc; stroke-width: 0.5; stroke-linecap: square"/>
     </g>
     <g id="line2d_6">
      <g>
       <use xlink:href="#mace0ef41b7" x="155.278268" y="162.432" style="stroke: #000000; stroke-width: 0.8"/>
      </g>
     </g>
     <g id="text_3">
      <!-- 16 -->
      <g transform="translate(148.915768 177.030437) scale(0.1 -0.1)">
       <defs>
        <path id="DejaVuSans-31" d="M 794 531 
L 1825 531 
L 1825 4091 
L 703 3866 
L 703 4441 
L 1819 4666 
L 2450 4666 
L 2450 531 
L 3481 531 
L 3481 0 
L 794 0 
L 794 531 
z
" transform="scale(0.015625)"/>
        <path id="DejaVuSans-36" d="M 2113 2584 
Q 1688 2584 1439 2293 
Q 1191 2003 1191 1497 
Q 1191 994 1439 701 
Q 1688 409 2113 409 
Q 2538 409 2786 701 
Q 3034 994 3034 1497 
Q 3034 2003 2786 2293 
Q 2538 2584 2113 2584 
z
M 3366 4563 
L 3366 3988 
Q 3128 4100 2886 4159 
Q 2644 4219 2406 4219 
Q 1781 4219 1451 3797 
Q 1122 3375 1075 2522 
Q 1259 2794 1537 2939 
Q 1816 3084 2150 3084 
Q 2853 3084 3261 2657 
Q 3669 2231 3669 1497 
Q 3669 778 3244 343 
Q 2819 -91 2113 -91 
Q 1303 -91 875 529 
Q 447 1150 447 2328 
Q 447 3434 972 4092 
Q 1497 4750 2381 4750 
Q 2619 4750 2861 4703 
Q 3103 4656 3366 4563 
z
" transform="scale(0.015625)"/>
       </defs>
       <use xlink:href="#DejaVuSans-31"/>
       <use xlink:href="#DejaVuSans-36" transform="translate(63.623047 0)"/>
      </g>
     </g>
    </g>
    <g id="xtick_4">
     <g id="line2d_7">
      <path d="M 199.299224 162.432 
L 199.299224 7.2 
" clip-path="url(#pbcce171741)" style="fill: none; stroke: #cccccc; stroke-width: 0.5; stroke-linecap: square"/>
     </g>
     <g id="line2d_8">
      <g>
       <use xlink:href="#mace0ef41b7" x="199.299224" y="162.432" style="stroke: #000000; stroke-width: 0.8"/>
      </g>
     </g>
     <g id="text_4">
      <!-- 24 -->
      <g transform="translate(192.936724 177.030437) scale(0.1 -0.1)">
       <defs>
        <path id="DejaVuSans-32" d="M 1228 531 
L 3431 531 
L 3431 0 
L 469 0 
L 469 531 
Q 828 903 1448 1529 
Q 2069 2156 2228 2338 
Q 2531 2678 2651 2914 
Q 2772 3150 2772 3378 
Q 2772 3750 2511 3984 
Q 2250 4219 1831 4219 
Q 1534 4219 1204 4116 
Q 875 4013 500 3803 
L 500 4441 
Q 881 4594 1212 4672 
Q 1544 4750 1819 4750 
Q 2544 4750 2975 4387 
Q 3406 4025 3406 3419 
Q 3406 3131 3298 2873 
Q 3191 2616 2906 2266 
Q 2828 2175 2409 1742 
Q 1991 1309 1228 531 
z
" transform="scale(0.015625)"/>
        <path id="DejaVuSans-34" d="M 2419 4116 
L 825 1625 
L 2419 1625 
L 2419 4116 
z
M 2253 4666 
L 3047 4666 
L 3047 1625 
L 3713 1625 
L 3713 1100 
L 3047 1100 
L 3047 0 
L 2419 0 
L 2419 1100 
L 313 1100 
L 313 1709 
L 2253 4666 
z
" transform="scale(0.015625)"/>
       </defs>
       <use xlink:href="#DejaVuSans-32"/>
       <use xlink:href="#DejaVuSans-34" transform="translate(63.623047 0)"/>
      </g>
     </g>
    </g>
    <g id="xtick_5">
     <g id="line2d_9">
      <path d="M 243.320179 162.432 
L 243.320179 7.2 
" clip-path="url(#pbcce171741)" style="fill: none; stroke: #cccccc; stroke-width: 0.5; stroke-linecap: square"/>
     </g>
     <g id="line2d_10">
      <g>
       <use xlink:href="#mace0ef41b7" x="243.320179" y="162.432" style="stroke: #000000; stroke-width: 0.8"/>
      </g>
     </g>
     <g id="text_5">
      <!-- 32 -->
      <g transform="translate(236.957679 177.030437) scale(0.1 -0.1)">
       <defs>
        <path id="DejaVuSans-33" d="M 2597 2516 
Q 3050 2419 3304 2112 
Q 3559 1806 3559 1356 
Q 3559 666 3084 287 
Q 2609 -91 1734 -91 
Q 1441 -91 1130 -33 
Q 819 25 488 141 
L 488 750 
Q 750 597 1062 519 
Q 1375 441 1716 441 
Q 2309 441 2620 675 
Q 2931 909 2931 1356 
Q 2931 1769 2642 2001 
Q 2353 2234 1838 2234 
L 1294 2234 
L 1294 2753 
L 1863 2753 
Q 2328 2753 2575 2939 
Q 2822 3125 2822 3475 
Q 2822 3834 2567 4026 
Q 2313 4219 1838 4219 
Q 1578 4219 1281 4162 
Q 984 4106 628 3988 
L 628 4550 
Q 988 4650 1302 4700 
Q 1616 4750 1894 4750 
Q 2613 4750 3031 4423 
Q 3450 4097 3450 3541 
Q 3450 3153 3228 2886 
Q 3006 2619 2597 2516 
z
" transform="scale(0.015625)"/>
       </defs>
       <use xlink:href="#DejaVuSans-33"/>
       <use xlink:href="#DejaVuSans-32" transform="translate(63.623047 0)"/>
      </g>
     </g>
    </g>
    <g id="xtick_6">
     <g id="line2d_11">
      <path d="M 287.341134 162.432 
L 287.341134 7.2 
" clip-path="url(#pbcce171741)" style="fill: none; stroke: #cccccc; stroke-width: 0.5; stroke-linecap: square"/>
     </g>
     <g id="line2d_12">
      <g>
       <use xlink:href="#mace0ef41b7" x="287.341134" y="162.432" style="stroke: #000000; stroke-width: 0.8"/>
      </g>
     </g>
     <g id="text_6">
      <!-- 40 -->
      <g transform="translate(280.978634 177.030437) scale(0.1 -0.1)">
       <use xlink:href="#DejaVuSans-34"/>
       <use xlink:href="#DejaVuSans-30" transform="translate(63.623047 0)"/>
      </g>
     </g>
    </g>
    <g id="xtick_7">
     <g id="line2d_13">
      <path d="M 331.36209 162.432 
L 331.36209 7.2 
" clip-path="url(#pbcce171741)" style="fill: none; stroke: #cccccc; stroke-width: 0.5; stroke-linecap: square"/>
     </g>
     <g id="line2d_14">
      <g>
       <use xlink:href="#mace0ef41b7" x="331.36209" y="162.432" style="stroke: #000000; stroke-width: 0.8"/>
      </g>
     </g>
     <g id="text_7">
      <!-- 48 -->
      <g transform="translate(324.99959 177.030437) scale(0.1 -0.1)">
       <use xlink:href="#DejaVuSans-34"/>
       <use xlink:href="#DejaVuSans-38" transform="translate(63.623047 0)"/>
      </g>
     </g>
    </g>
    <g id="xtick_8">
     <g id="line2d_15">
      <path d="M 375.383045 162.432 
L 375.383045 7.2 
" clip-path="url(#pbcce171741)" style="fill: none; stroke: #cccccc; stroke-width: 0.5; stroke-linecap: square"/>
     </g>
     <g id="line2d_16">
      <g>
       <use xlink:href="#mace0ef41b7" x="375.383045" y="162.432" style="stroke: #000000; stroke-width: 0.8"/>
      </g>
     </g>
     <g id="text_8">
      <!-- 56 -->
      <g transform="translate(369.020545 177.030437) scale(0.1 -0.1)">
       <defs>
        <path id="DejaVuSans-35" d="M 691 4666 
L 3169 4666 
L 3169 4134 
L 1269 4134 
L 1269 2991 
Q 1406 3038 1543 3061 
Q 1681 3084 1819 3084 
Q 2600 3084 3056 2656 
Q 3513 2228 3513 1497 
Q 3513 744 3044 326 
Q 2575 -91 1722 -91 
Q 1428 -91 1123 -41 
Q 819 9 494 109 
L 494 744 
Q 775 591 1075 516 
Q 1375 441 1709 441 
Q 2250 441 2565 725 
Q 2881 1009 2881 1497 
Q 2881 1984 2565 2268 
Q 2250 2553 1709 2553 
Q 1456 2553 1204 2497 
Q 953 2441 691 2322 
L 691 4666 
z
" transform="scale(0.015625)"/>
       </defs>
       <use xlink:href="#DejaVuSans-35"/>
       <use xlink:href="#DejaVuSans-36" transform="translate(63.623047 0)"/>
      </g>
     </g>
    </g>
    <g id="text_9">
     <!-- t -->
     <g transform="translate(233.106094 190.708562) scale(0.1 -0.1)">
      <defs>
       <path id="DejaVuSans-74" d="M 1172 4494 
L 1172 3500 
L 2356 3500 
L 2356 3053 
L 1172 3053 
L 1172 1153 
Q 1172 725 1289 603 
Q 1406 481 1766 481 
L 2356 481 
L 2356 0 
L 1766 0 
Q 1100 0 847 248 
Q 594 497 594 1153 
L 594 3053 
L 172 3053 
L 172 3500 
L 594 3500 
L 594 4494 
L 1172 4494 
z
" transform="scale(0.015625)"/>
      </defs>
      <use xlink:href="#DejaVuSans-74"/>
     </g>
    </g>
   </g>
   <g id="matplotlib.axis_2">
    <g id="ytick_1">
     <g id="line2d_17">
      <path d="M 56.50625 158.4 
L 413.62625 158.4 
" clip-path="url(#pbcce171741)" style="fill: none; stroke: #cccccc; stroke-width: 0.5; stroke-linecap: square"/>
     </g>
     <g id="line2d_18">
      <defs>
       <path id="mfb719432ab" d="M 0 0 
L -3.5 0 
" style="stroke: #000000; stroke-width: 0.8"/>
      </defs>
      <g>
       <use xlink:href="#mfb719432ab" x="56.50625" y="158.4" style="stroke: #000000; stroke-width: 0.8"/>
      </g>
     </g>
     <g id="text_10">
      <!-- 0.040 -->
      <g transform="translate(20.878125 162.199219) scale(0.1 -0.1)">
       <defs>
        <path id="DejaVuSans-2e" d="M 684 794 
L 1344 794 
L 1344 0 
L 684 0 
L 684 794 
z
" transform="scale(0.015625)"/>
       </defs>
       <use xlink:href="#DejaVuSans-30"/>
       <use xlink:href="#DejaVuSans-2e" transform="translate(63.623047 0)"/>
       <use xlink:href="#DejaVuSans-30" transform="translate(95.410156 0)"/>
       <use xlink:href="#DejaVuSans-34" transform="translate(159.033203 0)"/>
       <use xlink:href="#DejaVuSans-30" transform="translate(222.65625 0)"/>
      </g>
     </g>
    </g>
    <g id="ytick_2">
     <g id="line2d_19">
      <path d="M 56.50625 142.272 
L 413.62625 142.272 
" clip-path="url(#pbcce171741)" style="fill: none; stroke: #cccccc; stroke-width: 0.5; stroke-linecap: square"/>
     </g>
     <g id="line2d_20">
      <g>
       <use xlink:href="#mfb719432ab" x="56.50625" y="142.272" style="stroke: #000000; stroke-width: 0.8"/>
      </g>
     </g>
     <g id="text_11">
      <!-- 0.048 -->
      <g transform="translate(20.878125 146.071219) scale(0.1 -0.1)">
       <use xlink:href="#DejaVuSans-30"/>
       <use xlink:href="#DejaVuSans-2e" transform="translate(63.623047 0)"/>
       <use xlink:href="#DejaVuSans-30" transform="translate(95.410156 0)"/>
       <use xlink:href="#DejaVuSans-34" transform="translate(159.033203 0)"/>
       <use xlink:href="#DejaVuSans-38" transform="translate(222.65625 0)"/>
      </g>
     </g>
    </g>
    <g id="ytick_3">
     <g id="line2d_21">
      <path d="M 56.50625 126.144 
L 413.62625 126.144 
" clip-path="url(#pbcce171741)" style="fill: none; stroke: #cccccc; stroke-width: 0.5; stroke-linecap: square"/>
     </g>
     <g id="line2d_22">
      <g>
       <use xlink:href="#mfb719432ab" x="56.50625" y="126.144" style="stroke: #000000; stroke-width: 0.8"/>
      </g>
     </g>
     <g id="text_12">
      <!-- 0.056 -->
      <g transform="translate(20.878125 129.943219) scale(0.1 -0.1)">
       <use xlink:href="#DejaVuSans-30"/>
       <use xlink:href="#DejaVuSans-2e" transform="translate(63.623047 0)"/>
       <use xlink:href="#DejaVuSans-30" transform="translate(95.410156 0)"/>
       <use xlink:href="#DejaVuSans-35" transform="translate(159.033203 0)"/>
       <use xlink:href="#DejaVuSans-36" transform="translate(222.65625 0)"/>
      </g>
     </g>
    </g>
    <g id="ytick_4">
     <g id="line2d_23">
      <path d="M 56.50625 110.016 
L 413.62625 110.016 
" clip-path="url(#pbcce171741)" style="fill: none; stroke: #cccccc; stroke-width: 0.5; stroke-linecap: square"/>
     </g>
     <g id="line2d_24">
      <g>
       <use xlink:href="#mfb719432ab" x="56.50625" y="110.016" style="stroke: #000000; stroke-width: 0.8"/>
      </g>
     </g>
     <g id="text_13">
      <!-- 0.064 -->
      <g transform="translate(20.878125 113.815219) scale(0.1 -0.1)">
       <use xlink:href="#DejaVuSans-30"/>
       <use xlink:href="#DejaVuSans-2e" transform="translate(63.623047 0)"/>
       <use xlink:href="#DejaVuSans-30" transform="translate(95.410156 0)"/>
       <use xlink:href="#DejaVuSans-36" transform="translate(159.033203 0)"/>
       <use xlink:href="#DejaVuSans-34" transform="translate(222.65625 0)"/>
      </g>
     </g>
    </g>
    <g id="ytick_5">
     <g id="line2d_25">
      <path d="M 56.50625 93.888 
L 413.62625 93.888 
" clip-path="url(#pbcce171741)" style="fill: none; stroke: #cccccc; stroke-width: 0.5; stroke-linecap: square"/>
     </g>
     <g id="line2d_26">
      <g>
       <use xlink:href="#mfb719432ab" x="56.50625" y="93.888" style="stroke: #000000; stroke-width: 0.8"/>
      </g>
     </g>
     <g id="text_14">
      <!-- 0.072 -->
      <g transform="translate(20.878125 97.687219) scale(0.1 -0.1)">
       <defs>
        <path id="DejaVuSans-37" d="M 525 4666 
L 3525 4666 
L 3525 4397 
L 1831 0 
L 1172 0 
L 2766 4134 
L 525 4134 
L 525 4666 
z
" transform="scale(0.015625)"/>
       </defs>
       <use xlink:href="#DejaVuSans-30"/>
       <use xlink:href="#DejaVuSans-2e" transform="translate(63.623047 0)"/>
       <use xlink:href="#DejaVuSans-30" transform="translate(95.410156 0)"/>
       <use xlink:href="#DejaVuSans-37" transform="translate(159.033203 0)"/>
       <use xlink:href="#DejaVuSans-32" transform="translate(222.65625 0)"/>
      </g>
     </g>
    </g>
    <g id="ytick_6">
     <g id="line2d_27">
      <path d="M 56.50625 77.76 
L 413.62625 77.76 
" clip-path="url(#pbcce171741)" style="fill: none; stroke: #cccccc; stroke-width: 0.5; stroke-linecap: square"/>
     </g>
     <g id="line2d_28">
      <g>
       <use xlink:href="#mfb719432ab" x="56.50625" y="77.76" style="stroke: #000000; stroke-width: 0.8"/>
      </g>
     </g>
     <g id="text_15">
      <!-- 0.080 -->
      <g transform="translate(20.878125 81.559219) scale(0.1 -0.1)">
       <use xlink:href="#DejaVuSans-30"/>
       <use xlink:href="#DejaVuSans-2e" transform="translate(63.623047 0)"/>
       <use xlink:href="#DejaVuSans-30" transform="translate(95.410156 0)"/>
       <use xlink:href="#DejaVuSans-38" transform="translate(159.033203 0)"/>
       <use xlink:href="#DejaVuSans-30" transform="translate(222.65625 0)"/>
      </g>
     </g>
    </g>
    <g id="ytick_7">
     <g id="line2d_29">
      <path d="M 56.50625 61.632 
L 413.62625 61.632 
" clip-path="url(#pbcce171741)" style="fill: none; stroke: #cccccc; stroke-width: 0.5; stroke-linecap: square"/>
     </g>
     <g id="line2d_30">
      <g>
       <use xlink:href="#mfb719432ab" x="56.50625" y="61.632" style="stroke: #000000; stroke-width: 0.8"/>
      </g>
     </g>
     <g id="text_16">
      <!-- 0.088 -->
      <g transform="translate(20.878125 65.431219) scale(0.1 -0.1)">
       <use xlink:href="#DejaVuSans-30"/>
       <use xlink:href="#DejaVuSans-2e" transform="translate(63.623047 0)"/>
       <use xlink:href="#DejaVuSans-30" transform="translate(95.410156 0)"/>
       <use xlink:href="#DejaVuSans-38" transform="translate(159.033203 0)"/>
       <use xlink:href="#DejaVuSans-38" transform="translate(222.65625 0)"/>
      </g>
     </g>
    </g>
    <g id="ytick_8">
     <g id="line2d_31">
      <path d="M 56.50625 45.504 
L 413.62625 45.504 
" clip-path="url(#pbcce171741)" style="fill: none; stroke: #cccccc; stroke-width: 0.5; stroke-linecap: square"/>
     </g>
     <g id="line2d_32">
      <g>
       <use xlink:href="#mfb719432ab" x="56.50625" y="45.504" style="stroke: #000000; stroke-width: 0.8"/>
      </g>
     </g>
     <g id="text_17">
      <!-- 0.096 -->
      <g transform="translate(20.878125 49.303219) scale(0.1 -0.1)">
       <defs>
        <path id="DejaVuSans-39" d="M 703 97 
L 703 672 
Q 941 559 1184 500 
Q 1428 441 1663 441 
Q 2288 441 2617 861 
Q 2947 1281 2994 2138 
Q 2813 1869 2534 1725 
Q 2256 1581 1919 1581 
Q 1219 1581 811 2004 
Q 403 2428 403 3163 
Q 403 3881 828 4315 
Q 1253 4750 1959 4750 
Q 2769 4750 3195 4129 
Q 3622 3509 3622 2328 
Q 3622 1225 3098 567 
Q 2575 -91 1691 -91 
Q 1453 -91 1209 -44 
Q 966 3 703 97 
z
M 1959 2075 
Q 2384 2075 2632 2365 
Q 2881 2656 2881 3163 
Q 2881 3666 2632 3958 
Q 2384 4250 1959 4250 
Q 1534 4250 1286 3958 
Q 1038 3666 1038 3163 
Q 1038 2656 1286 2365 
Q 1534 2075 1959 2075 
z
" transform="scale(0.015625)"/>
       </defs>
       <use xlink:href="#DejaVuSans-30"/>
       <use xlink:href="#DejaVuSans-2e" transform="translate(63.623047 0)"/>
       <use xlink:href="#DejaVuSans-30" transform="translate(95.410156 0)"/>
       <use xlink:href="#DejaVuSans-39" transform="translate(159.033203 0)"/>
       <use xlink:href="#DejaVuSans-36" transform="translate(222.65625 0)"/>
      </g>
     </g>
    </g>
    <g id="ytick_9">
     <g id="line2d_33">
      <path d="M 56.50625 29.376 
L 413.62625 29.376 
" clip-path="url(#pbcce171741)" style="fill: none; stroke: #cccccc; stroke-width: 0.5; stroke-linecap: square"/>
     </g>
     <g id="line2d_34">
      <g>
       <use xlink:href="#mfb719432ab" x="56.50625" y="29.376" style="stroke: #000000; stroke-width: 0.8"/>
      </g>
     </g>
     <g id="text_18">
      <!-- 0.104 -->
      <g transform="translate(20.878125 33.175219) scale(0.1 -0.1)">
       <use xlink:href="#DejaVuSans-30"/>
       <use xlink:href="#DejaVuSans-2e" transform="translate(63.623047 0)"/>
       <use xlink:href="#DejaVuSans-31" transform="translate(95.410156 0)"/>
       <use xlink:href="#DejaVuSans-30" transform="translate(159.033203 0)"/>
       <use xlink:href="#DejaVuSans-34" transform="translate(222.65625 0)"/>
      </g>
     </g>
    </g>
    <g id="ytick_10">
     <g id="line2d_35">
      <path d="M 56.50625 13.248 
L 413.62625 13.248 
" clip-path="url(#pbcce171741)" style="fill: none; stroke: #cccccc; stroke-width: 0.5; stroke-linecap: square"/>
     </g>
     <g id="line2d_36">
      <g>
       <use xlink:href="#mfb719432ab" x="56.50625" y="13.248" style="stroke: #000000; stroke-width: 0.8"/>
      </g>
     </g>
     <g id="text_19">
      <!-- 0.112 -->
      <g transform="translate(20.878125 17.047219) scale(0.1 -0.1)">
       <use xlink:href="#DejaVuSans-30"/>
       <use xlink:href="#DejaVuSans-2e" transform="translate(63.623047 0)"/>
       <use xlink:href="#DejaVuSans-31" transform="translate(95.410156 0)"/>
       <use xlink:href="#DejaVuSans-31" transform="translate(159.033203 0)"/>
       <use xlink:href="#DejaVuSans-32" transform="translate(222.65625 0)"/>
      </g>
     </g>
    </g>
    <g id="text_20">
     <!-- Density -->
     <g transform="translate(14.798437 103.824594) rotate(-90) scale(0.1 -0.1)">
      <defs>
       <path id="DejaVuSans-44" d="M 1259 4147 
L 1259 519 
L 2022 519 
Q 2988 519 3436 956 
Q 3884 1394 3884 2338 
Q 3884 3275 3436 3711 
Q 2988 4147 2022 4147 
L 1259 4147 
z
M 628 4666 
L 1925 4666 
Q 3281 4666 3915 4102 
Q 4550 3538 4550 2338 
Q 4550 1131 3912 565 
Q 3275 0 1925 0 
L 628 0 
L 628 4666 
z
" transform="scale(0.015625)"/>
       <path id="DejaVuSans-65" d="M 3597 1894 
L 3597 1613 
L 953 1613 
Q 991 1019 1311 708 
Q 1631 397 2203 397 
Q 2534 397 2845 478 
Q 3156 559 3463 722 
L 3463 178 
Q 3153 47 2828 -22 
Q 2503 -91 2169 -91 
Q 1331 -91 842 396 
Q 353 884 353 1716 
Q 353 2575 817 3079 
Q 1281 3584 2069 3584 
Q 2775 3584 3186 3129 
Q 3597 2675 3597 1894 
z
M 3022 2063 
Q 3016 2534 2758 2815 
Q 2500 3097 2075 3097 
Q 1594 3097 1305 2825 
Q 1016 2553 972 2059 
L 3022 2063 
z
" transform="scale(0.015625)"/>
       <path id="DejaVuSans-6e" d="M 3513 2113 
L 3513 0 
L 2938 0 
L 2938 2094 
Q 2938 2591 2744 2837 
Q 2550 3084 2163 3084 
Q 1697 3084 1428 2787 
Q 1159 2491 1159 1978 
L 1159 0 
L 581 0 
L 581 3500 
L 1159 3500 
L 1159 2956 
Q 1366 3272 1645 3428 
Q 1925 3584 2291 3584 
Q 2894 3584 3203 3211 
Q 3513 2838 3513 2113 
z
" transform="scale(0.015625)"/>
       <path id="DejaVuSans-73" d="M 2834 3397 
L 2834 2853 
Q 2591 2978 2328 3040 
Q 2066 3103 1784 3103 
Q 1356 3103 1142 2972 
Q 928 2841 928 2578 
Q 928 2378 1081 2264 
Q 1234 2150 1697 2047 
L 1894 2003 
Q 2506 1872 2764 1633 
Q 3022 1394 3022 966 
Q 3022 478 2636 193 
Q 2250 -91 1575 -91 
Q 1294 -91 989 -36 
Q 684 19 347 128 
L 347 722 
Q 666 556 975 473 
Q 1284 391 1588 391 
Q 1994 391 2212 530 
Q 2431 669 2431 922 
Q 2431 1156 2273 1281 
Q 2116 1406 1581 1522 
L 1381 1569 
Q 847 1681 609 1914 
Q 372 2147 372 2553 
Q 372 3047 722 3315 
Q 1072 3584 1716 3584 
Q 2034 3584 2315 3537 
Q 2597 3491 2834 3397 
z
" transform="scale(0.015625)"/>
       <path id="DejaVuSans-69" d="M 603 3500 
L 1178 3500 
L 1178 0 
L 603 0 
L 603 3500 
z
M 603 4863 
L 1178 4863 
L 1178 4134 
L 603 4134 
L 603 4863 
z
" transform="scale(0.015625)"/>
       <path id="DejaVuSans-79" d="M 2059 -325 
Q 1816 -950 1584 -1140 
Q 1353 -1331 966 -1331 
L 506 -1331 
L 506 -850 
L 844 -850 
Q 1081 -850 1212 -737 
Q 1344 -625 1503 -206 
L 1606 56 
L 191 3500 
L 800 3500 
L 1894 763 
L 2988 3500 
L 3597 3500 
L 2059 -325 
z
" transform="scale(0.015625)"/>
      </defs>
      <use xlink:href="#DejaVuSans-44"/>
      <use xlink:href="#DejaVuSans-65" transform="translate(77.001953 0)"/>
      <use xlink:href="#DejaVuSans-6e" transform="translate(138.525391 0)"/>
      <use xlink:href="#DejaVuSans-73" transform="translate(201.904297 0)"/>
      <use xlink:href="#DejaVuSans-69" transform="translate(254.003906 0)"/>
      <use xlink:href="#DejaVuSans-74" transform="translate(281.787109 0)"/>
      <use xlink:href="#DejaVuSans-79" transform="translate(320.996094 0)"/>
     </g>
    </g>
   </g>
   <g id="line2d_37">
    <path d="M 72.738977 77.633281 
L 78.241597 77.633281 
L 83.744216 77.633281 
L 89.246836 77.633281 
L 94.749455 77.633281 
L 100.252074 77.633281 
L 105.754694 77.633281 
L 111.257313 77.633281 
L 116.759933 77.633281 
L 122.262552 77.633281 
L 127.765171 77.633281 
L 133.267791 77.633281 
L 138.77041 77.633281 
L 144.27303 77.633281 
L 149.775649 77.633281 
L 155.278268 77.633281 
L 160.780888 77.633281 
L 166.283507 77.633281 
L 171.786127 77.633281 
L 177.288746 77.633281 
L 182.791366 77.633281 
L 188.293985 77.633281 
L 193.796604 77.633281 
L 199.299224 77.633281 
L 204.801843 77.633281 
L 210.304463 77.633281 
L 215.807082 77.633281 
L 221.309701 77.633281 
L 226.812321 77.633281 
L 232.31494 77.633281 
L 237.81756 77.633281 
L 243.320179 77.633281 
L 248.822799 77.633281 
L 254.325418 77.633281 
L 259.828037 77.633281 
L 265.330657 77.633281 
L 270.833276 77.633281 
L 276.335896 77.633281 
L 281.838515 77.633281 
L 287.341134 77.633281 
L 292.843754 77.633281 
L 298.346373 77.633281 
L 303.848993 77.633281 
L 309.351612 77.633281 
L 314.854232 77.633281 
L 320.356851 77.633281 
L 325.85947 77.633281 
L 331.36209 77.633281 
L 336.864709 77.633281 
L 342.367329 77.633281 
L 347.869948 77.633281 
L 353.372567 77.633281 
L 358.875187 77.633281 
L 364.377806 77.633281 
L 369.880426 77.633281 
L 375.383045 77.633281 
L 380.885664 77.633281 
L 386.388284 77.633281 
L 391.890903 77.633281 
L 397.393523 77.633281 
" clip-path="url(#pbcce171741)" style="fill: none"/>
    <defs>
     <path id="mffd6ddc39c" d="M 0 1 
C 0.265203 1 0.51958 0.894634 0.707107 0.707107 
C 0.894634 0.51958 1 0.265203 1 0 
C 1 -0.265203 0.894634 -0.51958 0.707107 -0.707107 
C 0.51958 -0.894634 0.265203 -1 0 -1 
C -0.265203 -1 -0.51958 -0.894634 -0.707107 -0.707107 
C -0.894634 -0.51958 -1 -0.265203 -1 0 
C -1 0.265203 -0.894634 0.51958 -0.707107 0.707107 
C -0.51958 0.894634 -0.265203 1 0 1 
z
" style="stroke: #ffa500"/>
    </defs>
    <g clip-path="url(#pbcce171741)">
     <use xlink:href="#mffd6ddc39c" x="72.738977" y="77.633281" style="fill: #ffa500; stroke: #ffa500"/>
     <use xlink:href="#mffd6ddc39c" x="78.241597" y="77.633281" style="fill: #ffa500; stroke: #ffa500"/>
     <use xlink:href="#mffd6ddc39c" x="83.744216" y="77.633281" style="fill: #ffa500; stroke: #ffa500"/>
     <use xlink:href="#mffd6ddc39c" x="89.246836" y="77.633281" style="fill: #ffa500; stroke: #ffa500"/>
     <use xlink:href="#mffd6ddc39c" x="94.749455" y="77.633281" style="fill: #ffa500; stroke: #ffa500"/>
     <use xlink:href="#mffd6ddc39c" x="100.252074" y="77.633281" style="fill: #ffa500; stroke: #ffa500"/>
     <use xlink:href="#mffd6ddc39c" x="105.754694" y="77.633281" style="fill: #ffa500; stroke: #ffa500"/>
     <use xlink:href="#mffd6ddc39c" x="111.257313" y="77.633281" style="fill: #ffa500; stroke: #ffa500"/>
     <use xlink:href="#mffd6ddc39c" x="116.759933" y="77.633281" style="fill: #ffa500; stroke: #ffa500"/>
     <use xlink:href="#mffd6ddc39c" x="122.262552" y="77.633281" style="fill: #ffa500; stroke: #ffa500"/>
     <use xlink:href="#mffd6ddc39c" x="127.765171" y="77.633281" style="fill: #ffa500; stroke: #ffa500"/>
     <use xlink:href="#mffd6ddc39c" x="133.267791" y="77.633281" style="fill: #ffa500; stroke: #ffa500"/>
     <use xlink:href="#mffd6ddc39c" x="138.77041" y="77.633281" style="fill: #ffa500; stroke: #ffa500"/>
     <use xlink:href="#mffd6ddc39c" x="144.27303" y="77.633281" style="fill: #ffa500; stroke: #ffa500"/>
     <use xlink:href="#mffd6ddc39c" x="149.775649" y="77.633281" style="fill: #ffa500; stroke: #ffa500"/>
     <use xlink:href="#mffd6ddc39c" x="155.278268" y="77.633281" style="fill: #ffa500; stroke: #ffa500"/>
     <use xlink:href="#mffd6ddc39c" x="160.780888" y="77.633281" style="fill: #ffa500; stroke: #ffa500"/>
     <use xlink:href="#mffd6ddc39c" x="166.283507" y="77.633281" style="fill: #ffa500; stroke: #ffa500"/>
     <use xlink:href="#mffd6ddc39c" x="171.786127" y="77.633281" style="fill: #ffa500; stroke: #ffa500"/>
     <use xlink:href="#mffd6ddc39c" x="177.288746" y="77.633281" style="fill: #ffa500; stroke: #ffa500"/>
     <use xlink:href="#mffd6ddc39c" x="182.791366" y="77.633281" style="fill: #ffa500; stroke: #ffa500"/>
     <use xlink:href="#mffd6ddc39c" x="188.293985" y="77.633281" style="fill: #ffa500; stroke: #ffa500"/>
     <use xlink:href="#mffd6ddc39c" x="193.796604" y="77.633281" style="fill: #ffa500; stroke: #ffa500"/>
     <use xlink:href="#mffd6ddc39c" x="199.299224" y="77.633281" style="fill: #ffa500; stroke: #ffa500"/>
     <use xlink:href="#mffd6ddc39c" x="204.801843" y="77.633281" style="fill: #ffa500; stroke: #ffa500"/>
     <use xlink:href="#mffd6ddc39c" x="210.304463" y="77.633281" style="fill: #ffa500; stroke: #ffa500"/>
     <use xlink:href="#mffd6ddc39c" x="215.807082" y="77.633281" style="fill: #ffa500; stroke: #ffa500"/>
     <use xlink:href="#mffd6ddc39c" x="221.309701" y="77.633281" style="fill: #ffa500; stroke: #ffa500"/>
     <use xlink:href="#mffd6ddc39c" x="226.812321" y="77.633281" style="fill: #ffa500; stroke: #ffa500"/>
     <use xlink:href="#mffd6ddc39c" x="232.31494" y="77.633281" style="fill: #ffa500; stroke: #ffa500"/>
     <use xlink:href="#mffd6ddc39c" x="237.81756" y="77.633281" style="fill: #ffa500; stroke: #ffa500"/>
     <use xlink:href="#mffd6ddc39c" x="243.320179" y="77.633281" style="fill: #ffa500; stroke: #ffa500"/>
     <use xlink:href="#mffd6ddc39c" x="248.822799" y="77.633281" style="fill: #ffa500; stroke: #ffa500"/>
     <use xlink:href="#mffd6ddc39c" x="254.325418" y="77.633281" style="fill: #ffa500; stroke: #ffa500"/>
     <use xlink:href="#mffd6ddc39c" x="259.828037" y="77.633281" style="fill: #ffa500; stroke: #ffa500"/>
     <use xlink:href="#mffd6ddc39c" x="265.330657" y="77.633281" style="fill: #ffa500; stroke: #ffa500"/>
     <use xlink:href="#mffd6ddc39c" x="270.833276" y="77.633281" style="fill: #ffa500; stroke: #ffa500"/>
     <use xlink:href="#mffd6ddc39c" x="276.335896" y="77.633281" style="fill: #ffa500; stroke: #ffa500"/>
     <use xlink:href="#mffd6ddc39c" x="281.838515" y="77.633281" style="fill: #ffa500; stroke: #ffa500"/>
     <use xlink:href="#mffd6ddc39c" x="287.341134" y="77.633281" style="fill: #ffa500; stroke: #ffa500"/>
     <use xlink:href="#mffd6ddc39c" x="292.843754" y="77.633281" style="fill: #ffa500; stroke: #ffa500"/>
     <use xlink:href="#mffd6ddc39c" x="298.346373" y="77.633281" style="fill: #ffa500; stroke: #ffa500"/>
     <use xlink:href="#mffd6ddc39c" x="303.848993" y="77.633281" style="fill: #ffa500; stroke: #ffa500"/>
     <use xlink:href="#mffd6ddc39c" x="309.351612" y="77.633281" style="fill: #ffa500; stroke: #ffa500"/>
     <use xlink:href="#mffd6ddc39c" x="314.854232" y="77.633281" style="fill: #ffa500; stroke: #ffa500"/>
     <use xlink:href="#mffd6ddc39c" x="320.356851" y="77.633281" style="fill: #ffa500; stroke: #ffa500"/>
     <use xlink:href="#mffd6ddc39c" x="325.85947" y="77.633281" style="fill: #ffa500; stroke: #ffa500"/>
     <use xlink:href="#mffd6ddc39c" x="331.36209" y="77.633281" style="fill: #ffa500; stroke: #ffa500"/>
     <use xlink:href="#mffd6ddc39c" x="336.864709" y="77.633281" style="fill: #ffa500; stroke: #ffa500"/>
     <use xlink:href="#mffd6ddc39c" x="342.367329" y="77.633281" style="fill: #ffa500; stroke: #ffa500"/>
     <use xlink:href="#mffd6ddc39c" x="347.869948" y="77.633281" style="fill: #ffa500; stroke: #ffa500"/>
     <use xlink:href="#mffd6ddc39c" x="353.372567" y="77.633281" style="fill: #ffa500; stroke: #ffa500"/>
     <use xlink:href="#mffd6ddc39c" x="358.875187" y="77.633281" style="fill: #ffa500; stroke: #ffa500"/>
     <use xlink:href="#mffd6ddc39c" x="364.377806" y="77.633281" style="fill: #ffa500; stroke: #ffa500"/>
     <use xlink:href="#mffd6ddc39c" x="369.880426" y="77.633281" style="fill: #ffa500; stroke: #ffa500"/>
     <use xlink:href="#mffd6ddc39c" x="375.383045" y="77.633281" style="fill: #ffa500; stroke: #ffa500"/>
     <use xlink:href="#mffd6ddc39c" x="380.885664" y="77.633281" style="fill: #ffa500; stroke: #ffa500"/>
     <use xlink:href="#mffd6ddc39c" x="386.388284" y="77.633281" style="fill: #ffa500; stroke: #ffa500"/>
     <use xlink:href="#mffd6ddc39c" x="391.890903" y="77.633281" style="fill: #ffa500; stroke: #ffa500"/>
     <use xlink:href="#mffd6ddc39c" x="397.393523" y="77.633281" style="fill: #ffa500; stroke: #ffa500"/>
    </g>
   </g>
   <g id="line2d_38">
    <path d="M 72.738977 77.633281 
L 78.241597 77.633281 
L 83.744216 77.633281 
L 89.246836 77.633281 
L 94.749455 77.633281 
L 100.252074 77.633281 
L 105.754694 77.633281 
L 111.257313 77.633281 
L 116.759933 77.633281 
L 122.262552 77.633281 
L 127.765171 77.633281 
L 133.267791 77.633281 
L 138.77041 77.633281 
L 144.27303 77.633281 
L 149.775649 77.633281 
L 155.278268 77.633281 
L 160.780888 77.633281 
L 166.283507 77.633281 
L 171.786127 77.633281 
L 177.288746 77.633281 
L 182.791366 77.633281 
L 188.293985 77.633281 
L 193.796604 77.633281 
L 199.299224 77.633281 
L 204.801843 77.633281 
L 210.304463 77.633281 
L 215.807082 77.633281 
L 221.309701 77.633281 
L 226.812321 77.633281 
L 232.31494 77.633281 
L 237.81756 77.633281 
L 243.320179 77.633281 
L 248.822799 77.633281 
L 254.325418 77.633281 
L 259.828037 77.633281 
L 265.330657 77.633281 
L 270.833276 77.633281 
L 276.335896 77.633281 
L 281.838515 77.633281 
L 287.341134 77.633281 
L 292.843754 77.633281 
L 298.346373 77.633281 
L 303.848993 77.633281 
L 309.351612 77.633281 
L 314.854232 77.633281 
L 320.356851 77.633281 
L 325.85947 77.633281 
L 331.36209 77.633281 
L 336.864709 77.633281 
L 342.367329 77.633281 
L 347.869948 77.633281 
L 353.372567 77.633281 
L 358.875187 77.633281 
L 364.377806 77.633281 
L 369.880426 77.633281 
L 375.383045 77.633281 
L 380.885664 77.633281 
L 386.388284 77.633281 
L 391.890903 77.633281 
L 397.393523 77.633281 
" clip-path="url(#pbcce171741)" style="fill: none; stroke: #ffa500; stroke-linecap: square"/>
   </g>
   <g id="line2d_39"/>
   <g id="line2d_40">
    <path d="M 77.066532 -1 
L 78.241597 70.899786 
L 83.744216 120.640357 
L 89.246836 118.21892 
L 94.749455 114.51711 
L 100.252074 112.741604 
L 105.754694 110.812277 
L 111.257313 109.121242 
L 116.759933 107.4796 
L 122.262552 105.790178 
L 127.765171 103.958425 
L 133.267791 128.597978 
L 138.77041 127.818787 
L 144.27303 126.248915 
L 149.775649 124.671987 
L 155.278268 122.978533 
L 160.780888 121.343342 
L 166.283507 119.639405 
L 171.786127 117.835473 
L 177.288746 115.904734 
L 182.791366 114.06653 
L 188.293985 111.993259 
L 193.796604 110.029054 
L 199.299224 107.866272 
L 204.801843 105.801669 
L 210.304463 103.462283 
L 215.807082 101.281357 
L 221.309701 98.767586 
L 226.812321 96.285063 
L 232.31494 93.725932 
L 237.81756 91.189984 
L 243.320179 88.319983 
L 248.822799 85.506431 
L 254.325418 82.575143 
L 259.828037 79.47088 
L 265.330657 115.627734 
L 270.833276 114.005848 
L 276.335896 111.2054 
L 281.838515 108.551112 
L 287.341134 105.555513 
L 292.843754 102.556286 
L 298.346373 99.410695 
L 303.848993 96.298772 
L 309.351612 92.674377 
L 314.854232 89.169331 
L 320.356851 85.305837 
L 325.85947 81.302028 
L 331.36209 77.090368 
L 336.864709 72.525703 
L 342.367329 67.976159 
L 347.869948 62.887733 
L 353.372567 57.620487 
L 358.875187 52.065353 
L 364.377806 46.203785 
L 369.880426 39.682778 
L 375.383045 33.016416 
L 380.885664 25.606144 
L 386.388284 17.92371 
L 391.890903 9.721345 
L 397.393523 77.633281 
" clip-path="url(#pbcce171741)" style="fill: none"/>
    <defs>
     <path id="m79af84d2bd" d="M 0 1 
C 0.265203 1 0.51958 0.894634 0.707107 0.707107 
C 0.894634 0.51958 1 0.265203 1 0 
C 1 -0.265203 0.894634 -0.51958 0.707107 -0.707107 
C 0.51958 -0.894634 0.265203 -1 0 -1 
C -0.265203 -1 -0.51958 -0.894634 -0.707107 -0.707107 
C -0.894634 -0.51958 -1 -0.265203 -1 0 
C -1 0.265203 -0.894634 0.51958 -0.707107 0.707107 
C -0.51958 0.894634 -0.265203 1 0 1 
z
" style="stroke: #0000ff"/>
    </defs>
    <g clip-path="url(#pbcce171741)">
     <use xlink:href="#m79af84d2bd" x="77.066532" y="-1" style="fill: #0000ff; stroke: #0000ff"/>
     <use xlink:href="#m79af84d2bd" x="78.241597" y="70.899786" style="fill: #0000ff; stroke: #0000ff"/>
     <use xlink:href="#m79af84d2bd" x="83.744216" y="120.640357" style="fill: #0000ff; stroke: #0000ff"/>
     <use xlink:href="#m79af84d2bd" x="89.246836" y="118.21892" style="fill: #0000ff; stroke: #0000ff"/>
     <use xlink:href="#m79af84d2bd" x="94.749455" y="114.51711" style="fill: #0000ff; stroke: #0000ff"/>
     <use xlink:href="#m79af84d2bd" x="100.252074" y="112.741604" style="fill: #0000ff; stroke: #0000ff"/>
     <use xlink:href="#m79af84d2bd" x="105.754694" y="110.812277" style="fill: #0000ff; stroke: #0000ff"/>
     <use xlink:href="#m79af84d2bd" x="111.257313" y="109.121242" style="fill: #0000ff; stroke: #0000ff"/>
     <use xlink:href="#m79af84d2bd" x="116.759933" y="107.4796" style="fill: #0000ff; stroke: #0000ff"/>
     <use xlink:href="#m79af84d2bd" x="122.262552" y="105.790178" style="fill: #0000ff; stroke: #0000ff"/>
     <use xlink:href="#m79af84d2bd" x="127.765171" y="103.958425" style="fill: #0000ff; stroke: #0000ff"/>
     <use xlink:href="#m79af84d2bd" x="133.267791" y="128.597978" style="fill: #0000ff; stroke: #0000ff"/>
     <use xlink:href="#m79af84d2bd" x="138.77041" y="127.818787" style="fill: #0000ff; stroke: #0000ff"/>
     <use xlink:href="#m79af84d2bd" x="144.27303" y="126.248915" style="fill: #0000ff; stroke: #0000ff"/>
     <use xlink:href="#m79af84d2bd" x="149.775649" y="124.671987" style="fill: #0000ff; stroke: #0000ff"/>
     <use xlink:href="#m79af84d2bd" x="155.278268" y="122.978533" style="fill: #0000ff; stroke: #0000ff"/>
     <use xlink:href="#m79af84d2bd" x="160.780888" y="121.343342" style="fill: #0000ff; stroke: #0000ff"/>
     <use xlink:href="#m79af84d2bd" x="166.283507" y="119.639405" style="fill: #0000ff; stroke: #0000ff"/>
     <use xlink:href="#m79af84d2bd" x="171.786127" y="117.835473" style="fill: #0000ff; stroke: #0000ff"/>
     <use xlink:href="#m79af84d2bd" x="177.288746" y="115.904734" style="fill: #0000ff; stroke: #0000ff"/>
     <use xlink:href="#m79af84d2bd" x="182.791366" y="114.06653" style="fill: #0000ff; stroke: #0000ff"/>
     <use xlink:href="#m79af84d2bd" x="188.293985" y="111.993259" style="fill: #0000ff; stroke: #0000ff"/>
     <use xlink:href="#m79af84d2bd" x="193.796604" y="110.029054" style="fill: #0000ff; stroke: #0000ff"/>
     <use xlink:href="#m79af84d2bd" x="199.299224" y="107.866272" style="fill: #0000ff; stroke: #0000ff"/>
     <use xlink:href="#m79af84d2bd" x="204.801843" y="105.801669" style="fill: #0000ff; stroke: #0000ff"/>
     <use xlink:href="#m79af84d2bd" x="210.304463" y="103.462283" style="fill: #0000ff; stroke: #0000ff"/>
     <use xlink:href="#m79af84d2bd" x="215.807082" y="101.281357" style="fill: #0000ff; stroke: #0000ff"/>
     <use xlink:href="#m79af84d2bd" x="221.309701" y="98.767586" style="fill: #0000ff; stroke: #0000ff"/>
     <use xlink:href="#m79af84d2bd" x="226.812321" y="96.285063" style="fill: #0000ff; stroke: #0000ff"/>
     <use xlink:href="#m79af84d2bd" x="232.31494" y="93.725932" style="fill: #0000ff; stroke: #0000ff"/>
     <use xlink:href="#m79af84d2bd" x="237.81756" y="91.189984" style="fill: #0000ff; stroke: #0000ff"/>
     <use xlink:href="#m79af84d2bd" x="243.320179" y="88.319983" style="fill: #0000ff; stroke: #0000ff"/>
     <use xlink:href="#m79af84d2bd" x="248.822799" y="85.506431" style="fill: #0000ff; stroke: #0000ff"/>
     <use xlink:href="#m79af84d2bd" x="254.325418" y="82.575143" style="fill: #0000ff; stroke: #0000ff"/>
     <use xlink:href="#m79af84d2bd" x="259.828037" y="79.47088" style="fill: #0000ff; stroke: #0000ff"/>
     <use xlink:href="#m79af84d2bd" x="265.330657" y="115.627734" style="fill: #0000ff; stroke: #0000ff"/>
     <use xlink:href="#m79af84d2bd" x="270.833276" y="114.005848" style="fill: #0000ff; stroke: #0000ff"/>
     <use xlink:href="#m79af84d2bd" x="276.335896" y="111.2054" style="fill: #0000ff; stroke: #0000ff"/>
     <use xlink:href="#m79af84d2bd" x="281.838515" y="108.551112" style="fill: #0000ff; stroke: #0000ff"/>
     <use xlink:href="#m79af84d2bd" x="287.341134" y="105.555513" style="fill: #0000ff; stroke: #0000ff"/>
     <use xlink:href="#m79af84d2bd" x="292.843754" y="102.556286" style="fill: #0000ff; stroke: #0000ff"/>
     <use xlink:href="#m79af84d2bd" x="298.346373" y="99.410695" style="fill: #0000ff; stroke: #0000ff"/>
     <use xlink:href="#m79af84d2bd" x="303.848993" y="96.298772" style="fill: #0000ff; stroke: #0000ff"/>
     <use xlink:href="#m79af84d2bd" x="309.351612" y="92.674377" style="fill: #0000ff; stroke: #0000ff"/>
     <use xlink:href="#m79af84d2bd" x="314.854232" y="89.169331" style="fill: #0000ff; stroke: #0000ff"/>
     <use xlink:href="#m79af84d2bd" x="320.356851" y="85.305837" style="fill: #0000ff; stroke: #0000ff"/>
     <use xlink:href="#m79af84d2bd" x="325.85947" y="81.302028" style="fill: #0000ff; stroke: #0000ff"/>
     <use xlink:href="#m79af84d2bd" x="331.36209" y="77.090368" style="fill: #0000ff; stroke: #0000ff"/>
     <use xlink:href="#m79af84d2bd" x="336.864709" y="72.525703" style="fill: #0000ff; stroke: #0000ff"/>
     <use xlink:href="#m79af84d2bd" x="342.367329" y="67.976159" style="fill: #0000ff; stroke: #0000ff"/>
     <use xlink:href="#m79af84d2bd" x="347.869948" y="62.887733" style="fill: #0000ff; stroke: #0000ff"/>
     <use xlink:href="#m79af84d2bd" x="353.372567" y="57.620487" style="fill: #0000ff; stroke: #0000ff"/>
     <use xlink:href="#m79af84d2bd" x="358.875187" y="52.065353" style="fill: #0000ff; stroke: #0000ff"/>
     <use xlink:href="#m79af84d2bd" x="364.377806" y="46.203785" style="fill: #0000ff; stroke: #0000ff"/>
     <use xlink:href="#m79af84d2bd" x="369.880426" y="39.682778" style="fill: #0000ff; stroke: #0000ff"/>
     <use xlink:href="#m79af84d2bd" x="375.383045" y="33.016416" style="fill: #0000ff; stroke: #0000ff"/>
     <use xlink:href="#m79af84d2bd" x="380.885664" y="25.606144" style="fill: #0000ff; stroke: #0000ff"/>
     <use xlink:href="#m79af84d2bd" x="386.388284" y="17.92371" style="fill: #0000ff; stroke: #0000ff"/>
     <use xlink:href="#m79af84d2bd" x="391.890903" y="9.721345" style="fill: #0000ff; stroke: #0000ff"/>
     <use xlink:href="#m79af84d2bd" x="397.393523" y="77.633281" style="fill: #0000ff; stroke: #0000ff"/>
    </g>
   </g>
   <g id="line2d_41">
    <path d="M 77.066532 -1 
L 78.241597 70.899786 
L 83.744216 120.640357 
L 89.246836 118.21892 
L 94.749455 114.51711 
L 100.252074 112.741604 
L 105.754694 110.812277 
L 111.257313 109.121242 
L 116.759933 107.4796 
L 122.262552 105.790178 
L 127.765171 103.958425 
L 133.267791 128.597978 
L 138.77041 127.818787 
L 144.27303 126.248915 
L 149.775649 124.671987 
L 155.278268 122.978533 
L 160.780888 121.343342 
L 166.283507 119.639405 
L 171.786127 117.835473 
L 177.288746 115.904734 
L 182.791366 114.06653 
L 188.293985 111.993259 
L 193.796604 110.029054 
L 199.299224 107.866272 
L 204.801843 105.801669 
L 210.304463 103.462283 
L 215.807082 101.281357 
L 221.309701 98.767586 
L 226.812321 96.285063 
L 232.31494 93.725932 
L 237.81756 91.189984 
L 243.320179 88.319983 
L 248.822799 85.506431 
L 254.325418 82.575143 
L 259.828037 79.47088 
L 265.330657 115.627734 
L 270.833276 114.005848 
L 276.335896 111.2054 
L 281.838515 108.551112 
L 287.341134 105.555513 
L 292.843754 102.556286 
L 298.346373 99.410695 
L 303.848993 96.298772 
L 309.351612 92.674377 
L 314.854232 89.169331 
L 320.356851 85.305837 
L 325.85947 81.302028 
L 331.36209 77.090368 
L 336.864709 72.525703 
L 342.367329 67.976159 
L 347.869948 62.887733 
L 353.372567 57.620487 
L 358.875187 52.065353 
L 364.377806 46.203785 
L 369.880426 39.682778 
L 375.383045 33.016416 
L 380.885664 25.606144 
L 386.388284 17.92371 
L 391.890903 9.721345 
L 397.393523 77.633281 
" clip-path="url(#pbcce171741)" style="fill: none; stroke: #0000ff; stroke-linecap: square"/>
   </g>
   <g id="line2d_42"/>
   <g id="line2d_43">
    <path d="M 72.738977 135.122474 
L 78.241597 135.122474 
L 83.744216 135.122474 
L 89.246836 135.122474 
L 94.749455 135.122474 
L 100.252074 135.122474 
L 105.754694 135.122474 
L 111.257313 135.122474 
L 116.759933 135.122474 
L 122.262552 135.122474 
L 127.765171 135.122474 
L 133.267791 135.122474 
L 138.77041 135.122474 
L 144.27303 135.122474 
L 149.775649 135.122474 
L 155.278268 135.122474 
L 160.780888 135.122474 
L 166.283507 135.122474 
L 171.786127 135.122474 
L 177.288746 135.122474 
L 182.791366 135.122474 
L 188.293985 135.122474 
L 193.796604 135.122474 
L 199.299224 135.122474 
L 204.801843 135.122474 
L 210.304463 135.122474 
L 215.807082 135.122474 
L 221.309701 135.122474 
L 226.812321 135.122474 
L 232.31494 135.122474 
L 237.81756 135.122474 
L 243.320179 135.122474 
L 248.822799 135.122474 
L 254.325418 135.122474 
L 259.828037 135.122474 
L 265.330657 135.122474 
L 270.833276 135.122474 
L 276.335896 135.122474 
L 281.838515 135.122474 
L 287.341134 135.122474 
L 292.843754 135.122474 
L 298.346373 135.122474 
L 303.848993 135.122474 
L 309.351612 135.122474 
L 314.854232 135.122474 
L 320.356851 135.122474 
L 325.85947 135.122474 
L 331.36209 135.122474 
L 336.864709 135.122474 
L 342.367329 135.122474 
L 347.869948 135.122474 
L 353.372567 135.122474 
L 358.875187 135.122474 
L 364.377806 135.122474 
L 369.880426 135.122474 
L 375.383045 135.122474 
L 380.885664 135.122474 
L 386.388284 135.122474 
L 391.890903 135.122474 
L 397.393523 135.122474 
" clip-path="url(#pbcce171741)" style="fill: none; stroke: #ff0000; stroke-width: 1.5; stroke-linecap: square"/>
   </g>
   <g id="line2d_44">
    <path d="M 72.738977 155.04 
L 78.241597 155.04 
L 83.744216 155.04 
L 89.246836 155.04 
L 94.749455 155.04 
L 100.252074 155.04 
L 105.754694 155.04 
L 111.257313 155.04 
L 116.759933 155.04 
L 122.262552 155.04 
L 127.765171 155.04 
L 133.267791 155.04 
L 138.77041 155.04 
L 144.27303 155.04 
L 149.775649 155.04 
L 155.278268 155.04 
L 160.780888 155.04 
L 166.283507 155.04 
L 171.786127 155.04 
L 177.288746 155.04 
L 182.791366 155.04 
L 188.293985 155.04 
L 193.796604 155.04 
L 199.299224 155.04 
L 204.801843 155.04 
L 210.304463 155.04 
L 215.807082 155.04 
L 221.309701 155.04 
L 226.812321 155.04 
L 232.31494 155.04 
L 237.81756 155.04 
L 243.320179 155.04 
L 248.822799 155.04 
L 254.325418 155.04 
L 259.828037 155.04 
L 265.330657 155.04 
L 270.833276 155.04 
L 276.335896 155.04 
L 281.838515 155.04 
L 287.341134 155.04 
L 292.843754 155.04 
L 298.346373 155.04 
L 303.848993 155.04 
L 309.351612 155.04 
L 314.854232 155.04 
L 320.356851 155.04 
L 325.85947 155.04 
L 331.36209 155.04 
L 336.864709 155.04 
L 342.367329 155.04 
L 347.869948 155.04 
L 353.372567 155.04 
L 358.875187 155.04 
L 364.377806 155.04 
L 369.880426 155.04 
L 375.383045 155.04 
L 380.885664 155.04 
L 386.388284 155.04 
L 391.890903 155.04 
L 397.393523 155.04 
" clip-path="url(#pbcce171741)" style="fill: none; stroke: #000000; stroke-width: 1.5; stroke-linecap: square"/>
   </g>
   <g id="patch_3">
    <path d="M 56.50625 162.432 
L 56.50625 7.2 
" style="fill: none; stroke: #000000; stroke-width: 0.8; stroke-linejoin: miter; stroke-linecap: square"/>
   </g>
   <g id="legend_1">
    <g id="patch_4">
     <path d="M 62.80625 153.27504 
L 407.32625 153.27504 
Q 409.12625 153.27504 409.12625 151.47504 
L 409.12625 139.164727 
Q 409.12625 137.364727 407.32625 137.364727 
L 62.80625 137.364727 
Q 61.00625 137.364727 61.00625 139.164727 
L 61.00625 151.47504 
Q 61.00625 153.27504 62.80625 153.27504 
z
" style="fill: #ffffff; opacity: 0.8; stroke: #cccccc; stroke-linejoin: miter"/>
    </g>
    <g id="line2d_45">
     <path d="M 64.60625 144.653321 
L 73.60625 144.653321 
L 82.60625 144.653321 
" style="fill: none; stroke: #ffa500; stroke-linecap: square"/>
     <g>
      <use xlink:href="#mffd6ddc39c" x="73.60625" y="144.653321" style="fill: #ffa500; stroke: #ffa500"/>
     </g>
    </g>
    <g id="text_21">
     <!-- Random -->
     <g transform="translate(89.80625 147.803321) scale(0.09 -0.09)">
      <defs>
       <path id="DejaVuSans-52" d="M 2841 2188 
Q 3044 2119 3236 1894 
Q 3428 1669 3622 1275 
L 4263 0 
L 3584 0 
L 2988 1197 
Q 2756 1666 2539 1819 
Q 2322 1972 1947 1972 
L 1259 1972 
L 1259 0 
L 628 0 
L 628 4666 
L 2053 4666 
Q 2853 4666 3247 4331 
Q 3641 3997 3641 3322 
Q 3641 2881 3436 2590 
Q 3231 2300 2841 2188 
z
M 1259 4147 
L 1259 2491 
L 2053 2491 
Q 2509 2491 2742 2702 
Q 2975 2913 2975 3322 
Q 2975 3731 2742 3939 
Q 2509 4147 2053 4147 
L 1259 4147 
z
" transform="scale(0.015625)"/>
       <path id="DejaVuSans-61" d="M 2194 1759 
Q 1497 1759 1228 1600 
Q 959 1441 959 1056 
Q 959 750 1161 570 
Q 1363 391 1709 391 
Q 2188 391 2477 730 
Q 2766 1069 2766 1631 
L 2766 1759 
L 2194 1759 
z
M 3341 1997 
L 3341 0 
L 2766 0 
L 2766 531 
Q 2569 213 2275 61 
Q 1981 -91 1556 -91 
Q 1019 -91 701 211 
Q 384 513 384 1019 
Q 384 1609 779 1909 
Q 1175 2209 1959 2209 
L 2766 2209 
L 2766 2266 
Q 2766 2663 2505 2880 
Q 2244 3097 1772 3097 
Q 1472 3097 1187 3025 
Q 903 2953 641 2809 
L 641 3341 
Q 956 3463 1253 3523 
Q 1550 3584 1831 3584 
Q 2591 3584 2966 3190 
Q 3341 2797 3341 1997 
z
" transform="scale(0.015625)"/>
       <path id="DejaVuSans-64" d="M 2906 2969 
L 2906 4863 
L 3481 4863 
L 3481 0 
L 2906 0 
L 2906 525 
Q 2725 213 2448 61 
Q 2172 -91 1784 -91 
Q 1150 -91 751 415 
Q 353 922 353 1747 
Q 353 2572 751 3078 
Q 1150 3584 1784 3584 
Q 2172 3584 2448 3432 
Q 2725 3281 2906 2969 
z
M 947 1747 
Q 947 1113 1208 752 
Q 1469 391 1925 391 
Q 2381 391 2643 752 
Q 2906 1113 2906 1747 
Q 2906 2381 2643 2742 
Q 2381 3103 1925 3103 
Q 1469 3103 1208 2742 
Q 947 2381 947 1747 
z
" transform="scale(0.015625)"/>
       <path id="DejaVuSans-6f" d="M 1959 3097 
Q 1497 3097 1228 2736 
Q 959 2375 959 1747 
Q 959 1119 1226 758 
Q 1494 397 1959 397 
Q 2419 397 2687 759 
Q 2956 1122 2956 1747 
Q 2956 2369 2687 2733 
Q 2419 3097 1959 3097 
z
M 1959 3584 
Q 2709 3584 3137 3096 
Q 3566 2609 3566 1747 
Q 3566 888 3137 398 
Q 2709 -91 1959 -91 
Q 1206 -91 779 398 
Q 353 888 353 1747 
Q 353 2609 779 3096 
Q 1206 3584 1959 3584 
z
" transform="scale(0.015625)"/>
       <path id="DejaVuSans-6d" d="M 3328 2828 
Q 3544 3216 3844 3400 
Q 4144 3584 4550 3584 
Q 5097 3584 5394 3201 
Q 5691 2819 5691 2113 
L 5691 0 
L 5113 0 
L 5113 2094 
Q 5113 2597 4934 2840 
Q 4756 3084 4391 3084 
Q 3944 3084 3684 2787 
Q 3425 2491 3425 1978 
L 3425 0 
L 2847 0 
L 2847 2094 
Q 2847 2600 2669 2842 
Q 2491 3084 2119 3084 
Q 1678 3084 1418 2786 
Q 1159 2488 1159 1978 
L 1159 0 
L 581 0 
L 581 3500 
L 1159 3500 
L 1159 2956 
Q 1356 3278 1631 3431 
Q 1906 3584 2284 3584 
Q 2666 3584 2933 3390 
Q 3200 3197 3328 2828 
z
" transform="scale(0.015625)"/>
      </defs>
      <use xlink:href="#DejaVuSans-52"/>
      <use xlink:href="#DejaVuSans-61" transform="translate(67.232422 0)"/>
      <use xlink:href="#DejaVuSans-6e" transform="translate(128.511719 0)"/>
      <use xlink:href="#DejaVuSans-64" transform="translate(191.890625 0)"/>
      <use xlink:href="#DejaVuSans-6f" transform="translate(255.367188 0)"/>
      <use xlink:href="#DejaVuSans-6d" transform="translate(316.548828 0)"/>
     </g>
    </g>
    <g id="line2d_46">
     <path d="M 158.975 144.653321 
L 167.975 144.653321 
L 176.975 144.653321 
" style="fill: none; stroke: #0000ff; stroke-linecap: square"/>
     <g>
      <use xlink:href="#m79af84d2bd" x="167.975" y="144.653321" style="fill: #0000ff; stroke: #0000ff"/>
     </g>
    </g>
    <g id="text_22">
     <!-- Random mod-mini -->
     <g transform="translate(184.175 147.803321) scale(0.09 -0.09)">
      <defs>
       <path id="DejaVuSans-20" transform="scale(0.015625)"/>
       <path id="DejaVuSans-2d" d="M 313 2009 
L 1997 2009 
L 1997 1497 
L 313 1497 
L 313 2009 
z
" transform="scale(0.015625)"/>
      </defs>
      <use xlink:href="#DejaVuSans-52"/>
      <use xlink:href="#DejaVuSans-61" transform="translate(67.232422 0)"/>
      <use xlink:href="#DejaVuSans-6e" transform="translate(128.511719 0)"/>
      <use xlink:href="#DejaVuSans-64" transform="translate(191.890625 0)"/>
      <use xlink:href="#DejaVuSans-6f" transform="translate(255.367188 0)"/>
      <use xlink:href="#DejaVuSans-6d" transform="translate(316.548828 0)"/>
      <use xlink:href="#DejaVuSans-20" transform="translate(413.960938 0)"/>
      <use xlink:href="#DejaVuSans-6d" transform="translate(445.748047 0)"/>
      <use xlink:href="#DejaVuSans-6f" transform="translate(543.160156 0)"/>
      <use xlink:href="#DejaVuSans-64" transform="translate(604.341797 0)"/>
      <use xlink:href="#DejaVuSans-2d" transform="translate(667.818359 0)"/>
      <use xlink:href="#DejaVuSans-6d" transform="translate(703.902344 0)"/>
      <use xlink:href="#DejaVuSans-69" transform="translate(801.314453 0)"/>
      <use xlink:href="#DejaVuSans-6e" transform="translate(829.097656 0)"/>
      <use xlink:href="#DejaVuSans-69" transform="translate(892.476562 0)"/>
     </g>
    </g>
    <g id="line2d_47">
     <path d="M 298.909063 144.653321 
L 307.909063 144.653321 
L 316.909063 144.653321 
" style="fill: none; stroke: #ff0000; stroke-width: 1.5; stroke-linecap: square"/>
    </g>
    <g id="text_23">
     <!-- g' -->
     <g transform="translate(324.109062 147.803321) scale(0.09 -0.09)">
      <defs>
       <path id="DejaVuSans-67" d="M 2906 1791 
Q 2906 2416 2648 2759 
Q 2391 3103 1925 3103 
Q 1463 3103 1205 2759 
Q 947 2416 947 1791 
Q 947 1169 1205 825 
Q 1463 481 1925 481 
Q 2391 481 2648 825 
Q 2906 1169 2906 1791 
z
M 3481 434 
Q 3481 -459 3084 -895 
Q 2688 -1331 1869 -1331 
Q 1566 -1331 1297 -1286 
Q 1028 -1241 775 -1147 
L 775 -588 
Q 1028 -725 1275 -790 
Q 1522 -856 1778 -856 
Q 2344 -856 2625 -561 
Q 2906 -266 2906 331 
L 2906 616 
Q 2728 306 2450 153 
Q 2172 0 1784 0 
Q 1141 0 747 490 
Q 353 981 353 1791 
Q 353 2603 747 3093 
Q 1141 3584 1784 3584 
Q 2172 3584 2450 3431 
Q 2728 3278 2906 2969 
L 2906 3500 
L 3481 3500 
L 3481 434 
z
" transform="scale(0.015625)"/>
       <path id="DejaVuSans-27" d="M 1147 4666 
L 1147 2931 
L 616 2931 
L 616 4666 
L 1147 4666 
z
" transform="scale(0.015625)"/>
      </defs>
      <use xlink:href="#DejaVuSans-67"/>
      <use xlink:href="#DejaVuSans-27" transform="translate(63.476562 0)"/>
     </g>
    </g>
    <g id="line2d_48">
     <path d="M 364.207812 144.653321 
L 373.207812 144.653321 
L 382.207812 144.653321 
" style="fill: none; stroke: #000000; stroke-width: 1.5; stroke-linecap: square"/>
    </g>
    <g id="text_24">
     <!-- 1/w -->
     <g transform="translate(389.407812 147.803321) scale(0.09 -0.09)">
      <defs>
       <path id="DejaVuSans-2f" d="M 1625 4666 
L 2156 4666 
L 531 -594 
L 0 -594 
L 1625 4666 
z
" transform="scale(0.015625)"/>
       <path id="DejaVuSans-77" d="M 269 3500 
L 844 3500 
L 1563 769 
L 2278 3500 
L 2956 3500 
L 3675 769 
L 4391 3500 
L 4966 3500 
L 4050 0 
L 3372 0 
L 2619 2869 
L 1863 0 
L 1184 0 
L 269 3500 
z
" transform="scale(0.015625)"/>
      </defs>
      <use xlink:href="#DejaVuSans-31"/>
      <use xlink:href="#DejaVuSans-2f" transform="translate(63.623047 0)"/>
      <use xlink:href="#DejaVuSans-77" transform="translate(97.314453 0)"/>
     </g>
    </g>
   </g>
  </g>
 </g>
 <defs>
  <clipPath id="pbcce171741">
   <rect x="56.50625" y="7.2" width="357.12" height="155.232"/>
  </clipPath>
 </defs>
</svg>
