<?xml version="1.0" encoding="utf-8" standalone="no"?>
<!DOCTYPE svg PUBLIC "-//W3C//DTD SVG 1.1//EN"
  "http://www.w3.org/Graphics/SVG/1.1/DTD/svg11.dtd">
<svg xmlns:xlink="http://www.w3.org/1999/xlink" width="420.82625pt" height="325.986375pt" viewBox="0 0 420.82625 325.986375" xmlns="http://www.w3.org/2000/svg" version="1.1">
 <metadata>
  <rdf:RDF xmlns:dc="http://purl.org/dc/elements/1.1/" xmlns:cc="http://creativecommons.org/ns#" xmlns:rdf="http://www.w3.org/1999/02/22-rdf-syntax-ns#">
   <cc:Work>
    <dc:type rdf:resource="http://purl.org/dc/dcmitype/StillImage"/>
    <dc:date>2025-02-18T12:56:09.336299</dc:date>
    <dc:format>image/svg+xml</dc:format>
    <dc:creator>
     <cc:Agent>
      <dc:title>Matplotlib v3.10.0, https://matplotlib.org/</dc:title>
     </cc:Agent>
    </dc:creator>
   </cc:Work>
  </rdf:RDF>
 </metadata>
 <defs>
  <style type="text/css">*{stroke-linejoin: round; stroke-linecap: butt}</style>
 </defs>
 <g id="figure_1">
  <g id="patch_1">
   <path d="M 0 325.986375 
L 420.82625 325.986375 
L 420.82625 0 
L 0 0 
z
" style="fill: #ffffff"/>
  </g>
  <g id="axes_1">
   <g id="patch_2">
    <path d="M 56.50625 288.430125 
L 413.62625 288.430125 
L 413.62625 22.318125 
L 56.50625 22.318125 
z
" style="fill: #ffffff"/>
   </g>
   <g id="matplotlib.axis_1">
    <g id="xtick_1">
     <g id="line2d_1">
      <path d="M 96.82625 288.430125 
L 96.82625 22.318125 
" clip-path="url(#p9a7abcf13a)" style="fill: none; stroke: #cccccc; stroke-width: 0.5; stroke-linecap: square"/>
     </g>
     <g id="line2d_2">
      <defs>
       <path id="m2d83ef9a2a" d="M 0 0 
L 0 3.5 
" style="stroke: #000000; stroke-width: 0.8"/>
      </defs>
      <g>
       <use xlink:href="#m2d83ef9a2a" x="96.82625" y="288.430125" style="stroke: #000000; stroke-width: 0.8"/>
      </g>
     </g>
     <g id="text_1">
      <!-- 4 -->
      <g transform="translate(93.645 303.028562) scale(0.1 -0.1)">
       <defs>
        <path id="DejaVuSans-34" d="M 2419 4116 
L 825 1625 
L 2419 1625 
L 2419 4116 
z
M 2253 4666 
L 3047 4666 
L 3047 1625 
L 3713 1625 
L 3713 1100 
L 3047 1100 
L 3047 0 
L 2419 0 
L 2419 1100 
L 313 1100 
L 313 1709 
L 2253 4666 
z
" transform="scale(0.015625)"/>
       </defs>
       <use xlink:href="#DejaVuSans-34"/>
      </g>
     </g>
    </g>
    <g id="xtick_2">
     <g id="line2d_3">
      <path d="M 142.90625 288.430125 
L 142.90625 22.318125 
" clip-path="url(#p9a7abcf13a)" style="fill: none; stroke: #cccccc; stroke-width: 0.5; stroke-linecap: square"/>
     </g>
     <g id="line2d_4">
      <g>
       <use xlink:href="#m2d83ef9a2a" x="142.90625" y="288.430125" style="stroke: #000000; stroke-width: 0.8"/>
      </g>
     </g>
     <g id="text_2">
      <!-- 8 -->
      <g transform="translate(139.725 303.028562) scale(0.1 -0.1)">
       <defs>
        <path id="DejaVuSans-38" d="M 2034 2216 
Q 1584 2216 1326 1975 
Q 1069 1734 1069 1313 
Q 1069 891 1326 650 
Q 1584 409 2034 409 
Q 2484 409 2743 651 
Q 3003 894 3003 1313 
Q 3003 1734 2745 1975 
Q 2488 2216 2034 2216 
z
M 1403 2484 
Q 997 2584 770 2862 
Q 544 3141 544 3541 
Q 544 4100 942 4425 
Q 1341 4750 2034 4750 
Q 2731 4750 3128 4425 
Q 3525 4100 3525 3541 
Q 3525 3141 3298 2862 
Q 3072 2584 2669 2484 
Q 3125 2378 3379 2068 
Q 3634 1759 3634 1313 
Q 3634 634 3220 271 
Q 2806 -91 2034 -91 
Q 1263 -91 848 271 
Q 434 634 434 1313 
Q 434 1759 690 2068 
Q 947 2378 1403 2484 
z
M 1172 3481 
Q 1172 3119 1398 2916 
Q 1625 2713 2034 2713 
Q 2441 2713 2670 2916 
Q 2900 3119 2900 3481 
Q 2900 3844 2670 4047 
Q 2441 4250 2034 4250 
Q 1625 4250 1398 4047 
Q 1172 3844 1172 3481 
z
" transform="scale(0.015625)"/>
       </defs>
       <use xlink:href="#DejaVuSans-38"/>
      </g>
     </g>
    </g>
    <g id="xtick_3">
     <g id="line2d_5">
      <path d="M 188.98625 288.430125 
L 188.98625 22.318125 
" clip-path="url(#p9a7abcf13a)" style="fill: none; stroke: #cccccc; stroke-width: 0.5; stroke-linecap: square"/>
     </g>
     <g id="line2d_6">
      <g>
       <use xlink:href="#m2d83ef9a2a" x="188.98625" y="288.430125" style="stroke: #000000; stroke-width: 0.8"/>
      </g>
     </g>
     <g id="text_3">
      <!-- 12 -->
      <g transform="translate(182.62375 303.028562) scale(0.1 -0.1)">
       <defs>
        <path id="DejaVuSans-31" d="M 794 531 
L 1825 531 
L 1825 4091 
L 703 3866 
L 703 4441 
L 1819 4666 
L 2450 4666 
L 2450 531 
L 3481 531 
L 3481 0 
L 794 0 
L 794 531 
z
" transform="scale(0.015625)"/>
        <path id="DejaVuSans-32" d="M 1228 531 
L 3431 531 
L 3431 0 
L 469 0 
L 469 531 
Q 828 903 1448 1529 
Q 2069 2156 2228 2338 
Q 2531 2678 2651 2914 
Q 2772 3150 2772 3378 
Q 2772 3750 2511 3984 
Q 2250 4219 1831 4219 
Q 1534 4219 1204 4116 
Q 875 4013 500 3803 
L 500 4441 
Q 881 4594 1212 4672 
Q 1544 4750 1819 4750 
Q 2544 4750 2975 4387 
Q 3406 4025 3406 3419 
Q 3406 3131 3298 2873 
Q 3191 2616 2906 2266 
Q 2828 2175 2409 1742 
Q 1991 1309 1228 531 
z
" transform="scale(0.015625)"/>
       </defs>
       <use xlink:href="#DejaVuSans-31"/>
       <use xlink:href="#DejaVuSans-32" transform="translate(63.623047 0)"/>
      </g>
     </g>
    </g>
    <g id="xtick_4">
     <g id="line2d_7">
      <path d="M 235.06625 288.430125 
L 235.06625 22.318125 
" clip-path="url(#p9a7abcf13a)" style="fill: none; stroke: #cccccc; stroke-width: 0.5; stroke-linecap: square"/>
     </g>
     <g id="line2d_8">
      <g>
       <use xlink:href="#m2d83ef9a2a" x="235.06625" y="288.430125" style="stroke: #000000; stroke-width: 0.8"/>
      </g>
     </g>
     <g id="text_4">
      <!-- 16 -->
      <g transform="translate(228.70375 303.028562) scale(0.1 -0.1)">
       <defs>
        <path id="DejaVuSans-36" d="M 2113 2584 
Q 1688 2584 1439 2293 
Q 1191 2003 1191 1497 
Q 1191 994 1439 701 
Q 1688 409 2113 409 
Q 2538 409 2786 701 
Q 3034 994 3034 1497 
Q 3034 2003 2786 2293 
Q 2538 2584 2113 2584 
z
M 3366 4563 
L 3366 3988 
Q 3128 4100 2886 4159 
Q 2644 4219 2406 4219 
Q 1781 4219 1451 3797 
Q 1122 3375 1075 2522 
Q 1259 2794 1537 2939 
Q 1816 3084 2150 3084 
Q 2853 3084 3261 2657 
Q 3669 2231 3669 1497 
Q 3669 778 3244 343 
Q 2819 -91 2113 -91 
Q 1303 -91 875 529 
Q 447 1150 447 2328 
Q 447 3434 972 4092 
Q 1497 4750 2381 4750 
Q 2619 4750 2861 4703 
Q 3103 4656 3366 4563 
z
" transform="scale(0.015625)"/>
       </defs>
       <use xlink:href="#DejaVuSans-31"/>
       <use xlink:href="#DejaVuSans-36" transform="translate(63.623047 0)"/>
      </g>
     </g>
    </g>
    <g id="xtick_5">
     <g id="line2d_9">
      <path d="M 281.14625 288.430125 
L 281.14625 22.318125 
" clip-path="url(#p9a7abcf13a)" style="fill: none; stroke: #cccccc; stroke-width: 0.5; stroke-linecap: square"/>
     </g>
     <g id="line2d_10">
      <g>
       <use xlink:href="#m2d83ef9a2a" x="281.14625" y="288.430125" style="stroke: #000000; stroke-width: 0.8"/>
      </g>
     </g>
     <g id="text_5">
      <!-- 20 -->
      <g transform="translate(274.78375 303.028562) scale(0.1 -0.1)">
       <defs>
        <path id="DejaVuSans-30" d="M 2034 4250 
Q 1547 4250 1301 3770 
Q 1056 3291 1056 2328 
Q 1056 1369 1301 889 
Q 1547 409 2034 409 
Q 2525 409 2770 889 
Q 3016 1369 3016 2328 
Q 3016 3291 2770 3770 
Q 2525 4250 2034 4250 
z
M 2034 4750 
Q 2819 4750 3233 4129 
Q 3647 3509 3647 2328 
Q 3647 1150 3233 529 
Q 2819 -91 2034 -91 
Q 1250 -91 836 529 
Q 422 1150 422 2328 
Q 422 3509 836 4129 
Q 1250 4750 2034 4750 
z
" transform="scale(0.015625)"/>
       </defs>
       <use xlink:href="#DejaVuSans-32"/>
       <use xlink:href="#DejaVuSans-30" transform="translate(63.623047 0)"/>
      </g>
     </g>
    </g>
    <g id="xtick_6">
     <g id="line2d_11">
      <path d="M 327.22625 288.430125 
L 327.22625 22.318125 
" clip-path="url(#p9a7abcf13a)" style="fill: none; stroke: #cccccc; stroke-width: 0.5; stroke-linecap: square"/>
     </g>
     <g id="line2d_12">
      <g>
       <use xlink:href="#m2d83ef9a2a" x="327.22625" y="288.430125" style="stroke: #000000; stroke-width: 0.8"/>
      </g>
     </g>
     <g id="text_6">
      <!-- 24 -->
      <g transform="translate(320.86375 303.028562) scale(0.1 -0.1)">
       <use xlink:href="#DejaVuSans-32"/>
       <use xlink:href="#DejaVuSans-34" transform="translate(63.623047 0)"/>
      </g>
     </g>
    </g>
    <g id="xtick_7">
     <g id="line2d_13">
      <path d="M 373.30625 288.430125 
L 373.30625 22.318125 
" clip-path="url(#p9a7abcf13a)" style="fill: none; stroke: #cccccc; stroke-width: 0.5; stroke-linecap: square"/>
     </g>
     <g id="line2d_14">
      <g>
       <use xlink:href="#m2d83ef9a2a" x="373.30625" y="288.430125" style="stroke: #000000; stroke-width: 0.8"/>
      </g>
     </g>
     <g id="text_7">
      <!-- 28 -->
      <g transform="translate(366.94375 303.028562) scale(0.1 -0.1)">
       <use xlink:href="#DejaVuSans-32"/>
       <use xlink:href="#DejaVuSans-38" transform="translate(63.623047 0)"/>
      </g>
     </g>
    </g>
    <g id="text_8">
     <!-- k -->
     <g transform="translate(232.170938 316.706687) scale(0.1 -0.1)">
      <defs>
       <path id="DejaVuSans-6b" d="M 581 4863 
L 1159 4863 
L 1159 1991 
L 2875 3500 
L 3609 3500 
L 1753 1863 
L 3688 0 
L 2938 0 
L 1159 1709 
L 1159 0 
L 581 0 
L 581 4863 
z
" transform="scale(0.015625)"/>
      </defs>
      <use xlink:href="#DejaVuSans-6b"/>
     </g>
    </g>
   </g>
   <g id="matplotlib.axis_2">
    <g id="ytick_1">
     <g id="line2d_15">
      <path d="M 56.50625 264.238125 
L 413.62625 264.238125 
" clip-path="url(#p9a7abcf13a)" style="fill: none; stroke: #cccccc; stroke-width: 0.5; stroke-linecap: square"/>
     </g>
     <g id="line2d_16">
      <defs>
       <path id="m0962496d2c" d="M 0 0 
L -3.5 0 
" style="stroke: #000000; stroke-width: 0.8"/>
      </defs>
      <g>
       <use xlink:href="#m0962496d2c" x="56.50625" y="264.238125" style="stroke: #000000; stroke-width: 0.8"/>
      </g>
     </g>
     <g id="text_9">
      <!-- 0.045 -->
      <g transform="translate(20.878125 268.037344) scale(0.1 -0.1)">
       <defs>
        <path id="DejaVuSans-2e" d="M 684 794 
L 1344 794 
L 1344 0 
L 684 0 
L 684 794 
z
" transform="scale(0.015625)"/>
        <path id="DejaVuSans-35" d="M 691 4666 
L 3169 4666 
L 3169 4134 
L 1269 4134 
L 1269 2991 
Q 1406 3038 1543 3061 
Q 1681 3084 1819 3084 
Q 2600 3084 3056 2656 
Q 3513 2228 3513 1497 
Q 3513 744 3044 326 
Q 2575 -91 1722 -91 
Q 1428 -91 1123 -41 
Q 819 9 494 109 
L 494 744 
Q 775 591 1075 516 
Q 1375 441 1709 441 
Q 2250 441 2565 725 
Q 2881 1009 2881 1497 
Q 2881 1984 2565 2268 
Q 2250 2553 1709 2553 
Q 1456 2553 1204 2497 
Q 953 2441 691 2322 
L 691 4666 
z
" transform="scale(0.015625)"/>
       </defs>
       <use xlink:href="#DejaVuSans-30"/>
       <use xlink:href="#DejaVuSans-2e" transform="translate(63.623047 0)"/>
       <use xlink:href="#DejaVuSans-30" transform="translate(95.410156 0)"/>
       <use xlink:href="#DejaVuSans-34" transform="translate(159.033203 0)"/>
       <use xlink:href="#DejaVuSans-35" transform="translate(222.65625 0)"/>
      </g>
     </g>
    </g>
    <g id="ytick_2">
     <g id="line2d_17">
      <path d="M 56.50625 237.358125 
L 413.62625 237.358125 
" clip-path="url(#p9a7abcf13a)" style="fill: none; stroke: #cccccc; stroke-width: 0.5; stroke-linecap: square"/>
     </g>
     <g id="line2d_18">
      <g>
       <use xlink:href="#m0962496d2c" x="56.50625" y="237.358125" style="stroke: #000000; stroke-width: 0.8"/>
      </g>
     </g>
     <g id="text_10">
      <!-- 0.050 -->
      <g transform="translate(20.878125 241.157344) scale(0.1 -0.1)">
       <use xlink:href="#DejaVuSans-30"/>
       <use xlink:href="#DejaVuSans-2e" transform="translate(63.623047 0)"/>
       <use xlink:href="#DejaVuSans-30" transform="translate(95.410156 0)"/>
       <use xlink:href="#DejaVuSans-35" transform="translate(159.033203 0)"/>
       <use xlink:href="#DejaVuSans-30" transform="translate(222.65625 0)"/>
      </g>
     </g>
    </g>
    <g id="ytick_3">
     <g id="line2d_19">
      <path d="M 56.50625 210.478125 
L 413.62625 210.478125 
" clip-path="url(#p9a7abcf13a)" style="fill: none; stroke: #cccccc; stroke-width: 0.5; stroke-linecap: square"/>
     </g>
     <g id="line2d_20">
      <g>
       <use xlink:href="#m0962496d2c" x="56.50625" y="210.478125" style="stroke: #000000; stroke-width: 0.8"/>
      </g>
     </g>
     <g id="text_11">
      <!-- 0.055 -->
      <g transform="translate(20.878125 214.277344) scale(0.1 -0.1)">
       <use xlink:href="#DejaVuSans-30"/>
       <use xlink:href="#DejaVuSans-2e" transform="translate(63.623047 0)"/>
       <use xlink:href="#DejaVuSans-30" transform="translate(95.410156 0)"/>
       <use xlink:href="#DejaVuSans-35" transform="translate(159.033203 0)"/>
       <use xlink:href="#DejaVuSans-35" transform="translate(222.65625 0)"/>
      </g>
     </g>
    </g>
    <g id="ytick_4">
     <g id="line2d_21">
      <path d="M 56.50625 183.598125 
L 413.62625 183.598125 
" clip-path="url(#p9a7abcf13a)" style="fill: none; stroke: #cccccc; stroke-width: 0.5; stroke-linecap: square"/>
     </g>
     <g id="line2d_22">
      <g>
       <use xlink:href="#m0962496d2c" x="56.50625" y="183.598125" style="stroke: #000000; stroke-width: 0.8"/>
      </g>
     </g>
     <g id="text_12">
      <!-- 0.060 -->
      <g transform="translate(20.878125 187.397344) scale(0.1 -0.1)">
       <use xlink:href="#DejaVuSans-30"/>
       <use xlink:href="#DejaVuSans-2e" transform="translate(63.623047 0)"/>
       <use xlink:href="#DejaVuSans-30" transform="translate(95.410156 0)"/>
       <use xlink:href="#DejaVuSans-36" transform="translate(159.033203 0)"/>
       <use xlink:href="#DejaVuSans-30" transform="translate(222.65625 0)"/>
      </g>
     </g>
    </g>
    <g id="ytick_5">
     <g id="line2d_23">
      <path d="M 56.50625 156.718125 
L 413.62625 156.718125 
" clip-path="url(#p9a7abcf13a)" style="fill: none; stroke: #cccccc; stroke-width: 0.5; stroke-linecap: square"/>
     </g>
     <g id="line2d_24">
      <g>
       <use xlink:href="#m0962496d2c" x="56.50625" y="156.718125" style="stroke: #000000; stroke-width: 0.8"/>
      </g>
     </g>
     <g id="text_13">
      <!-- 0.065 -->
      <g transform="translate(20.878125 160.517344) scale(0.1 -0.1)">
       <use xlink:href="#DejaVuSans-30"/>
       <use xlink:href="#DejaVuSans-2e" transform="translate(63.623047 0)"/>
       <use xlink:href="#DejaVuSans-30" transform="translate(95.410156 0)"/>
       <use xlink:href="#DejaVuSans-36" transform="translate(159.033203 0)"/>
       <use xlink:href="#DejaVuSans-35" transform="translate(222.65625 0)"/>
      </g>
     </g>
    </g>
    <g id="ytick_6">
     <g id="line2d_25">
      <path d="M 56.50625 129.838125 
L 413.62625 129.838125 
" clip-path="url(#p9a7abcf13a)" style="fill: none; stroke: #cccccc; stroke-width: 0.5; stroke-linecap: square"/>
     </g>
     <g id="line2d_26">
      <g>
       <use xlink:href="#m0962496d2c" x="56.50625" y="129.838125" style="stroke: #000000; stroke-width: 0.8"/>
      </g>
     </g>
     <g id="text_14">
      <!-- 0.070 -->
      <g transform="translate(20.878125 133.637344) scale(0.1 -0.1)">
       <defs>
        <path id="DejaVuSans-37" d="M 525 4666 
L 3525 4666 
L 3525 4397 
L 1831 0 
L 1172 0 
L 2766 4134 
L 525 4134 
L 525 4666 
z
" transform="scale(0.015625)"/>
       </defs>
       <use xlink:href="#DejaVuSans-30"/>
       <use xlink:href="#DejaVuSans-2e" transform="translate(63.623047 0)"/>
       <use xlink:href="#DejaVuSans-30" transform="translate(95.410156 0)"/>
       <use xlink:href="#DejaVuSans-37" transform="translate(159.033203 0)"/>
       <use xlink:href="#DejaVuSans-30" transform="translate(222.65625 0)"/>
      </g>
     </g>
    </g>
    <g id="ytick_7">
     <g id="line2d_27">
      <path d="M 56.50625 102.958125 
L 413.62625 102.958125 
" clip-path="url(#p9a7abcf13a)" style="fill: none; stroke: #cccccc; stroke-width: 0.5; stroke-linecap: square"/>
     </g>
     <g id="line2d_28">
      <g>
       <use xlink:href="#m0962496d2c" x="56.50625" y="102.958125" style="stroke: #000000; stroke-width: 0.8"/>
      </g>
     </g>
     <g id="text_15">
      <!-- 0.075 -->
      <g transform="translate(20.878125 106.757344) scale(0.1 -0.1)">
       <use xlink:href="#DejaVuSans-30"/>
       <use xlink:href="#DejaVuSans-2e" transform="translate(63.623047 0)"/>
       <use xlink:href="#DejaVuSans-30" transform="translate(95.410156 0)"/>
       <use xlink:href="#DejaVuSans-37" transform="translate(159.033203 0)"/>
       <use xlink:href="#DejaVuSans-35" transform="translate(222.65625 0)"/>
      </g>
     </g>
    </g>
    <g id="ytick_8">
     <g id="line2d_29">
      <path d="M 56.50625 76.078125 
L 413.62625 76.078125 
" clip-path="url(#p9a7abcf13a)" style="fill: none; stroke: #cccccc; stroke-width: 0.5; stroke-linecap: square"/>
     </g>
     <g id="line2d_30">
      <g>
       <use xlink:href="#m0962496d2c" x="56.50625" y="76.078125" style="stroke: #000000; stroke-width: 0.8"/>
      </g>
     </g>
     <g id="text_16">
      <!-- 0.080 -->
      <g transform="translate(20.878125 79.877344) scale(0.1 -0.1)">
       <use xlink:href="#DejaVuSans-30"/>
       <use xlink:href="#DejaVuSans-2e" transform="translate(63.623047 0)"/>
       <use xlink:href="#DejaVuSans-30" transform="translate(95.410156 0)"/>
       <use xlink:href="#DejaVuSans-38" transform="translate(159.033203 0)"/>
       <use xlink:href="#DejaVuSans-30" transform="translate(222.65625 0)"/>
      </g>
     </g>
    </g>
    <g id="ytick_9">
     <g id="line2d_31">
      <path d="M 56.50625 49.198125 
L 413.62625 49.198125 
" clip-path="url(#p9a7abcf13a)" style="fill: none; stroke: #cccccc; stroke-width: 0.5; stroke-linecap: square"/>
     </g>
     <g id="line2d_32">
      <g>
       <use xlink:href="#m0962496d2c" x="56.50625" y="49.198125" style="stroke: #000000; stroke-width: 0.8"/>
      </g>
     </g>
     <g id="text_17">
      <!-- 0.085 -->
      <g transform="translate(20.878125 52.997344) scale(0.1 -0.1)">
       <use xlink:href="#DejaVuSans-30"/>
       <use xlink:href="#DejaVuSans-2e" transform="translate(63.623047 0)"/>
       <use xlink:href="#DejaVuSans-30" transform="translate(95.410156 0)"/>
       <use xlink:href="#DejaVuSans-38" transform="translate(159.033203 0)"/>
       <use xlink:href="#DejaVuSans-35" transform="translate(222.65625 0)"/>
      </g>
     </g>
    </g>
    <g id="ytick_10">
     <g id="line2d_33">
      <path d="M 56.50625 22.318125 
L 413.62625 22.318125 
" clip-path="url(#p9a7abcf13a)" style="fill: none; stroke: #cccccc; stroke-width: 0.5; stroke-linecap: square"/>
     </g>
     <g id="line2d_34">
      <g>
       <use xlink:href="#m0962496d2c" x="56.50625" y="22.318125" style="stroke: #000000; stroke-width: 0.8"/>
      </g>
     </g>
     <g id="text_18">
      <!-- 0.090 -->
      <g transform="translate(20.878125 26.117344) scale(0.1 -0.1)">
       <defs>
        <path id="DejaVuSans-39" d="M 703 97 
L 703 672 
Q 941 559 1184 500 
Q 1428 441 1663 441 
Q 2288 441 2617 861 
Q 2947 1281 2994 2138 
Q 2813 1869 2534 1725 
Q 2256 1581 1919 1581 
Q 1219 1581 811 2004 
Q 403 2428 403 3163 
Q 403 3881 828 4315 
Q 1253 4750 1959 4750 
Q 2769 4750 3195 4129 
Q 3622 3509 3622 2328 
Q 3622 1225 3098 567 
Q 2575 -91 1691 -91 
Q 1453 -91 1209 -44 
Q 966 3 703 97 
z
M 1959 2075 
Q 2384 2075 2632 2365 
Q 2881 2656 2881 3163 
Q 2881 3666 2632 3958 
Q 2384 4250 1959 4250 
Q 1534 4250 1286 3958 
Q 1038 3666 1038 3163 
Q 1038 2656 1286 2365 
Q 1534 2075 1959 2075 
z
" transform="scale(0.015625)"/>
       </defs>
       <use xlink:href="#DejaVuSans-30"/>
       <use xlink:href="#DejaVuSans-2e" transform="translate(63.623047 0)"/>
       <use xlink:href="#DejaVuSans-30" transform="translate(95.410156 0)"/>
       <use xlink:href="#DejaVuSans-39" transform="translate(159.033203 0)"/>
       <use xlink:href="#DejaVuSans-30" transform="translate(222.65625 0)"/>
      </g>
     </g>
    </g>
    <g id="text_19">
     <!-- Density -->
     <g transform="translate(14.798437 174.382719) rotate(-90) scale(0.1 -0.1)">
      <defs>
       <path id="DejaVuSans-44" d="M 1259 4147 
L 1259 519 
L 2022 519 
Q 2988 519 3436 956 
Q 3884 1394 3884 2338 
Q 3884 3275 3436 3711 
Q 2988 4147 2022 4147 
L 1259 4147 
z
M 628 4666 
L 1925 4666 
Q 3281 4666 3915 4102 
Q 4550 3538 4550 2338 
Q 4550 1131 3912 565 
Q 3275 0 1925 0 
L 628 0 
L 628 4666 
z
" transform="scale(0.015625)"/>
       <path id="DejaVuSans-65" d="M 3597 1894 
L 3597 1613 
L 953 1613 
Q 991 1019 1311 708 
Q 1631 397 2203 397 
Q 2534 397 2845 478 
Q 3156 559 3463 722 
L 3463 178 
Q 3153 47 2828 -22 
Q 2503 -91 2169 -91 
Q 1331 -91 842 396 
Q 353 884 353 1716 
Q 353 2575 817 3079 
Q 1281 3584 2069 3584 
Q 2775 3584 3186 3129 
Q 3597 2675 3597 1894 
z
M 3022 2063 
Q 3016 2534 2758 2815 
Q 2500 3097 2075 3097 
Q 1594 3097 1305 2825 
Q 1016 2553 972 2059 
L 3022 2063 
z
" transform="scale(0.015625)"/>
       <path id="DejaVuSans-6e" d="M 3513 2113 
L 3513 0 
L 2938 0 
L 2938 2094 
Q 2938 2591 2744 2837 
Q 2550 3084 2163 3084 
Q 1697 3084 1428 2787 
Q 1159 2491 1159 1978 
L 1159 0 
L 581 0 
L 581 3500 
L 1159 3500 
L 1159 2956 
Q 1366 3272 1645 3428 
Q 1925 3584 2291 3584 
Q 2894 3584 3203 3211 
Q 3513 2838 3513 2113 
z
" transform="scale(0.015625)"/>
       <path id="DejaVuSans-73" d="M 2834 3397 
L 2834 2853 
Q 2591 2978 2328 3040 
Q 2066 3103 1784 3103 
Q 1356 3103 1142 2972 
Q 928 2841 928 2578 
Q 928 2378 1081 2264 
Q 1234 2150 1697 2047 
L 1894 2003 
Q 2506 1872 2764 1633 
Q 3022 1394 3022 966 
Q 3022 478 2636 193 
Q 2250 -91 1575 -91 
Q 1294 -91 989 -36 
Q 684 19 347 128 
L 347 722 
Q 666 556 975 473 
Q 1284 391 1588 391 
Q 1994 391 2212 530 
Q 2431 669 2431 922 
Q 2431 1156 2273 1281 
Q 2116 1406 1581 1522 
L 1381 1569 
Q 847 1681 609 1914 
Q 372 2147 372 2553 
Q 372 3047 722 3315 
Q 1072 3584 1716 3584 
Q 2034 3584 2315 3537 
Q 2597 3491 2834 3397 
z
" transform="scale(0.015625)"/>
       <path id="DejaVuSans-69" d="M 603 3500 
L 1178 3500 
L 1178 0 
L 603 0 
L 603 3500 
z
M 603 4863 
L 1178 4863 
L 1178 4134 
L 603 4134 
L 603 4863 
z
" transform="scale(0.015625)"/>
       <path id="DejaVuSans-74" d="M 1172 4494 
L 1172 3500 
L 2356 3500 
L 2356 3053 
L 1172 3053 
L 1172 1153 
Q 1172 725 1289 603 
Q 1406 481 1766 481 
L 2356 481 
L 2356 0 
L 1766 0 
Q 1100 0 847 248 
Q 594 497 594 1153 
L 594 3053 
L 172 3053 
L 172 3500 
L 594 3500 
L 594 4494 
L 1172 4494 
z
" transform="scale(0.015625)"/>
       <path id="DejaVuSans-79" d="M 2059 -325 
Q 1816 -950 1584 -1140 
Q 1353 -1331 966 -1331 
L 506 -1331 
L 506 -850 
L 844 -850 
Q 1081 -850 1212 -737 
Q 1344 -625 1503 -206 
L 1606 56 
L 191 3500 
L 800 3500 
L 1894 763 
L 2988 3500 
L 3597 3500 
L 2059 -325 
z
" transform="scale(0.015625)"/>
      </defs>
      <use xlink:href="#DejaVuSans-44"/>
      <use xlink:href="#DejaVuSans-65" transform="translate(77.001953 0)"/>
      <use xlink:href="#DejaVuSans-6e" transform="translate(138.525391 0)"/>
      <use xlink:href="#DejaVuSans-73" transform="translate(201.904297 0)"/>
      <use xlink:href="#DejaVuSans-69" transform="translate(254.003906 0)"/>
      <use xlink:href="#DejaVuSans-74" transform="translate(281.787109 0)"/>
      <use xlink:href="#DejaVuSans-79" transform="translate(320.996094 0)"/>
     </g>
    </g>
   </g>
   <g id="line2d_35">
    <path d="M 77.658719 -1 
L 85.30625 68.444014 
L 96.82625 80.996863 
L 108.34625 75.383742 
L 119.86625 77.910102 
L 131.38625 76.146295 
L 142.90625 76.592086 
L 154.42625 76.623913 
L 165.94625 74.682686 
L 177.46625 76.811221 
L 188.98625 76.343063 
L 200.50625 76.783481 
L 212.02625 75.858346 
L 223.54625 74.422471 
L 235.06625 74.400534 
L 246.58625 75.647383 
L 258.10625 75.802863 
L 269.62625 75.737918 
L 281.14625 76.43102 
L 292.66625 77.048857 
L 304.18625 75.742003 
L 315.70625 76.451236 
L 327.22625 75.993825 
L 338.74625 77.729925 
L 350.26625 75.939202 
L 361.78625 75.809742 
L 373.30625 75.29319 
L 384.82625 75.679851 
L 396.34625 75.034267 
L 407.86625 76.539195 
" clip-path="url(#p9a7abcf13a)" style="fill: none"/>
    <defs>
     <path id="m03d736afa5" d="M 0 1 
C 0.265203 1 0.51958 0.894634 0.707107 0.707107 
C 0.894634 0.51958 1 0.265203 1 0 
C 1 -0.265203 0.894634 -0.51958 0.707107 -0.707107 
C 0.51958 -0.894634 0.265203 -1 0 -1 
C -0.265203 -1 -0.51958 -0.894634 -0.707107 -0.707107 
C -0.894634 -0.51958 -1 -0.265203 -1 0 
C -1 0.265203 -0.894634 0.51958 -0.707107 0.707107 
C -0.51958 0.894634 -0.265203 1 0 1 
z
" style="stroke: #ffa500"/>
    </defs>
    <g clip-path="url(#p9a7abcf13a)">
     <use xlink:href="#m03d736afa5" x="77.658719" y="-1" style="fill: #ffa500; stroke: #ffa500"/>
     <use xlink:href="#m03d736afa5" x="85.30625" y="68.444014" style="fill: #ffa500; stroke: #ffa500"/>
     <use xlink:href="#m03d736afa5" x="96.82625" y="80.996863" style="fill: #ffa500; stroke: #ffa500"/>
     <use xlink:href="#m03d736afa5" x="108.34625" y="75.383742" style="fill: #ffa500; stroke: #ffa500"/>
     <use xlink:href="#m03d736afa5" x="119.86625" y="77.910102" style="fill: #ffa500; stroke: #ffa500"/>
     <use xlink:href="#m03d736afa5" x="131.38625" y="76.146295" style="fill: #ffa500; stroke: #ffa500"/>
     <use xlink:href="#m03d736afa5" x="142.90625" y="76.592086" style="fill: #ffa500; stroke: #ffa500"/>
     <use xlink:href="#m03d736afa5" x="154.42625" y="76.623913" style="fill: #ffa500; stroke: #ffa500"/>
     <use xlink:href="#m03d736afa5" x="165.94625" y="74.682686" style="fill: #ffa500; stroke: #ffa500"/>
     <use xlink:href="#m03d736afa5" x="177.46625" y="76.811221" style="fill: #ffa500; stroke: #ffa500"/>
     <use xlink:href="#m03d736afa5" x="188.98625" y="76.343063" style="fill: #ffa500; stroke: #ffa500"/>
     <use xlink:href="#m03d736afa5" x="200.50625" y="76.783481" style="fill: #ffa500; stroke: #ffa500"/>
     <use xlink:href="#m03d736afa5" x="212.02625" y="75.858346" style="fill: #ffa500; stroke: #ffa500"/>
     <use xlink:href="#m03d736afa5" x="223.54625" y="74.422471" style="fill: #ffa500; stroke: #ffa500"/>
     <use xlink:href="#m03d736afa5" x="235.06625" y="74.400534" style="fill: #ffa500; stroke: #ffa500"/>
     <use xlink:href="#m03d736afa5" x="246.58625" y="75.647383" style="fill: #ffa500; stroke: #ffa500"/>
     <use xlink:href="#m03d736afa5" x="258.10625" y="75.802863" style="fill: #ffa500; stroke: #ffa500"/>
     <use xlink:href="#m03d736afa5" x="269.62625" y="75.737918" style="fill: #ffa500; stroke: #ffa500"/>
     <use xlink:href="#m03d736afa5" x="281.14625" y="76.43102" style="fill: #ffa500; stroke: #ffa500"/>
     <use xlink:href="#m03d736afa5" x="292.66625" y="77.048857" style="fill: #ffa500; stroke: #ffa500"/>
     <use xlink:href="#m03d736afa5" x="304.18625" y="75.742003" style="fill: #ffa500; stroke: #ffa500"/>
     <use xlink:href="#m03d736afa5" x="315.70625" y="76.451236" style="fill: #ffa500; stroke: #ffa500"/>
     <use xlink:href="#m03d736afa5" x="327.22625" y="75.993825" style="fill: #ffa500; stroke: #ffa500"/>
     <use xlink:href="#m03d736afa5" x="338.74625" y="77.729925" style="fill: #ffa500; stroke: #ffa500"/>
     <use xlink:href="#m03d736afa5" x="350.26625" y="75.939202" style="fill: #ffa500; stroke: #ffa500"/>
     <use xlink:href="#m03d736afa5" x="361.78625" y="75.809742" style="fill: #ffa500; stroke: #ffa500"/>
     <use xlink:href="#m03d736afa5" x="373.30625" y="75.29319" style="fill: #ffa500; stroke: #ffa500"/>
     <use xlink:href="#m03d736afa5" x="384.82625" y="75.679851" style="fill: #ffa500; stroke: #ffa500"/>
     <use xlink:href="#m03d736afa5" x="396.34625" y="75.034267" style="fill: #ffa500; stroke: #ffa500"/>
     <use xlink:href="#m03d736afa5" x="407.86625" y="76.539195" style="fill: #ffa500; stroke: #ffa500"/>
    </g>
   </g>
   <g id="line2d_36">
    <path d="M 77.658719 -1 
L 85.30625 68.444014 
L 96.82625 80.996863 
L 108.34625 80.996863 
L 119.86625 80.996863 
L 131.38625 80.996863 
L 142.90625 80.996863 
L 154.42625 80.996863 
L 165.94625 80.996863 
L 177.46625 80.996863 
L 188.98625 80.996863 
L 200.50625 80.996863 
L 212.02625 80.996863 
L 223.54625 80.996863 
L 235.06625 80.996863 
L 246.58625 80.996863 
L 258.10625 80.996863 
L 269.62625 80.996863 
L 281.14625 80.996863 
L 292.66625 80.996863 
L 304.18625 80.996863 
L 315.70625 80.996863 
L 327.22625 80.996863 
L 338.74625 80.996863 
L 350.26625 80.996863 
L 361.78625 80.996863 
L 373.30625 80.996863 
L 384.82625 80.996863 
L 396.34625 80.996863 
L 407.86625 80.996863 
" clip-path="url(#p9a7abcf13a)" style="fill: none; stroke: #ffa500; stroke-linecap: square"/>
   </g>
   <g id="line2d_37"/>
   <g id="line2d_38">
    <path d="M 82.055883 -1 
L 85.30625 19.376035 
L 96.82625 26.445172 
L 108.34625 28.030656 
L 119.86625 28.331242 
L 131.38625 28.438287 
L 142.90625 28.480819 
L 154.42625 28.480341 
L 165.94625 28.485239 
L 177.46625 28.484762 
L 188.98625 28.484284 
L 200.50625 28.483806 
L 212.02625 28.483329 
L 223.54625 28.482851 
L 235.06625 28.482373 
L 246.58625 28.481896 
L 258.10625 28.481418 
L 269.62625 28.486316 
L 281.14625 28.485839 
L 292.66625 28.485361 
L 304.18625 28.484883 
L 315.70625 28.484406 
L 327.22625 28.483928 
L 338.74625 28.48345 
L 350.26625 28.482973 
L 361.78625 28.482495 
L 373.30625 28.482017 
L 384.82625 28.481539 
L 396.34625 28.481062 
L 407.86625 28.480584 
" clip-path="url(#p9a7abcf13a)" style="fill: none"/>
    <defs>
     <path id="m1caf886cb1" d="M 0 1 
C 0.265203 1 0.51958 0.894634 0.707107 0.707107 
C 0.894634 0.51958 1 0.265203 1 0 
C 1 -0.265203 0.894634 -0.51958 0.707107 -0.707107 
C 0.51958 -0.894634 0.265203 -1 0 -1 
C -0.265203 -1 -0.51958 -0.894634 -0.707107 -0.707107 
C -0.894634 -0.51958 -1 -0.265203 -1 0 
C -1 0.265203 -0.894634 0.51958 -0.707107 0.707107 
C -0.51958 0.894634 -0.265203 1 0 1 
z
" style="stroke: #1f77b4"/>
    </defs>
    <g clip-path="url(#p9a7abcf13a)">
     <use xlink:href="#m1caf886cb1" x="82.055883" y="-1" style="fill: #1f77b4; stroke: #1f77b4"/>
     <use xlink:href="#m1caf886cb1" x="85.30625" y="19.376035" style="fill: #1f77b4; stroke: #1f77b4"/>
     <use xlink:href="#m1caf886cb1" x="96.82625" y="26.445172" style="fill: #1f77b4; stroke: #1f77b4"/>
     <use xlink:href="#m1caf886cb1" x="108.34625" y="28.030656" style="fill: #1f77b4; stroke: #1f77b4"/>
     <use xlink:href="#m1caf886cb1" x="119.86625" y="28.331242" style="fill: #1f77b4; stroke: #1f77b4"/>
     <use xlink:href="#m1caf886cb1" x="131.38625" y="28.438287" style="fill: #1f77b4; stroke: #1f77b4"/>
     <use xlink:href="#m1caf886cb1" x="142.90625" y="28.480819" style="fill: #1f77b4; stroke: #1f77b4"/>
     <use xlink:href="#m1caf886cb1" x="154.42625" y="28.480341" style="fill: #1f77b4; stroke: #1f77b4"/>
     <use xlink:href="#m1caf886cb1" x="165.94625" y="28.485239" style="fill: #1f77b4; stroke: #1f77b4"/>
     <use xlink:href="#m1caf886cb1" x="177.46625" y="28.484762" style="fill: #1f77b4; stroke: #1f77b4"/>
     <use xlink:href="#m1caf886cb1" x="188.98625" y="28.484284" style="fill: #1f77b4; stroke: #1f77b4"/>
     <use xlink:href="#m1caf886cb1" x="200.50625" y="28.483806" style="fill: #1f77b4; stroke: #1f77b4"/>
     <use xlink:href="#m1caf886cb1" x="212.02625" y="28.483329" style="fill: #1f77b4; stroke: #1f77b4"/>
     <use xlink:href="#m1caf886cb1" x="223.54625" y="28.482851" style="fill: #1f77b4; stroke: #1f77b4"/>
     <use xlink:href="#m1caf886cb1" x="235.06625" y="28.482373" style="fill: #1f77b4; stroke: #1f77b4"/>
     <use xlink:href="#m1caf886cb1" x="246.58625" y="28.481896" style="fill: #1f77b4; stroke: #1f77b4"/>
     <use xlink:href="#m1caf886cb1" x="258.10625" y="28.481418" style="fill: #1f77b4; stroke: #1f77b4"/>
     <use xlink:href="#m1caf886cb1" x="269.62625" y="28.486316" style="fill: #1f77b4; stroke: #1f77b4"/>
     <use xlink:href="#m1caf886cb1" x="281.14625" y="28.485839" style="fill: #1f77b4; stroke: #1f77b4"/>
     <use xlink:href="#m1caf886cb1" x="292.66625" y="28.485361" style="fill: #1f77b4; stroke: #1f77b4"/>
     <use xlink:href="#m1caf886cb1" x="304.18625" y="28.484883" style="fill: #1f77b4; stroke: #1f77b4"/>
     <use xlink:href="#m1caf886cb1" x="315.70625" y="28.484406" style="fill: #1f77b4; stroke: #1f77b4"/>
     <use xlink:href="#m1caf886cb1" x="327.22625" y="28.483928" style="fill: #1f77b4; stroke: #1f77b4"/>
     <use xlink:href="#m1caf886cb1" x="338.74625" y="28.48345" style="fill: #1f77b4; stroke: #1f77b4"/>
     <use xlink:href="#m1caf886cb1" x="350.26625" y="28.482973" style="fill: #1f77b4; stroke: #1f77b4"/>
     <use xlink:href="#m1caf886cb1" x="361.78625" y="28.482495" style="fill: #1f77b4; stroke: #1f77b4"/>
     <use xlink:href="#m1caf886cb1" x="373.30625" y="28.482017" style="fill: #1f77b4; stroke: #1f77b4"/>
     <use xlink:href="#m1caf886cb1" x="384.82625" y="28.481539" style="fill: #1f77b4; stroke: #1f77b4"/>
     <use xlink:href="#m1caf886cb1" x="396.34625" y="28.481062" style="fill: #1f77b4; stroke: #1f77b4"/>
     <use xlink:href="#m1caf886cb1" x="407.86625" y="28.480584" style="fill: #1f77b4; stroke: #1f77b4"/>
    </g>
   </g>
   <g id="line2d_39">
    <path d="M 82.055883 -1 
L 85.30625 19.376035 
L 96.82625 26.445172 
L 108.34625 28.030656 
L 119.86625 28.331242 
L 131.38625 28.438287 
L 142.90625 28.480819 
L 154.42625 28.480819 
L 165.94625 28.485239 
L 177.46625 28.485239 
L 188.98625 28.485239 
L 200.50625 28.485239 
L 212.02625 28.485239 
L 223.54625 28.485239 
L 235.06625 28.485239 
L 246.58625 28.485239 
L 258.10625 28.485239 
L 269.62625 28.486316 
L 281.14625 28.486316 
L 292.66625 28.486316 
L 304.18625 28.486316 
L 315.70625 28.486316 
L 327.22625 28.486316 
L 338.74625 28.486316 
L 350.26625 28.486316 
L 361.78625 28.486316 
L 373.30625 28.486316 
L 384.82625 28.486316 
L 396.34625 28.486316 
L 407.86625 28.486316 
" clip-path="url(#p9a7abcf13a)" style="fill: none; stroke: #1f77b4; stroke-linecap: square"/>
   </g>
   <g id="line2d_40"/>
   <g id="line2d_41">
    <path d="M 73.608631 -1 
L 73.78625 12.140253 
L 85.30625 79.217787 
L 96.82625 85.308527 
L 108.34625 85.619922 
L 119.86625 85.791539 
L 131.38625 85.855632 
L 142.90625 85.882093 
L 154.42625 85.881672 
L 165.94625 85.881252 
L 177.46625 85.880832 
L 188.98625 85.880412 
L 200.50625 85.879991 
L 212.02625 85.879571 
L 223.54625 85.879151 
L 235.06625 85.87873 
L 246.58625 85.87831 
L 258.10625 85.87789 
L 269.62625 85.877469 
L 281.14625 85.877049 
L 292.66625 85.876629 
L 304.18625 85.876209 
L 315.70625 85.875788 
L 327.22625 85.875368 
L 338.74625 85.874948 
L 350.26625 85.879904 
L 361.78625 85.879483 
L 373.30625 85.879063 
L 384.82625 85.878643 
L 396.34625 85.883599 
L 407.86625 85.883178 
" clip-path="url(#p9a7abcf13a)" style="fill: none"/>
    <defs>
     <path id="m8bffa5fa34" d="M 0 1 
C 0.265203 1 0.51958 0.894634 0.707107 0.707107 
C 0.894634 0.51958 1 0.265203 1 0 
C 1 -0.265203 0.894634 -0.51958 0.707107 -0.707107 
C 0.51958 -0.894634 0.265203 -1 0 -1 
C -0.265203 -1 -0.51958 -0.894634 -0.707107 -0.707107 
C -0.894634 -0.51958 -1 -0.265203 -1 0 
C -1 0.265203 -0.894634 0.51958 -0.707107 0.707107 
C -0.51958 0.894634 -0.265203 1 0 1 
z
" style="stroke: #ff7f0e"/>
    </defs>
    <g clip-path="url(#p9a7abcf13a)">
     <use xlink:href="#m8bffa5fa34" x="73.608631" y="-1" style="fill: #ff7f0e; stroke: #ff7f0e"/>
     <use xlink:href="#m8bffa5fa34" x="73.78625" y="12.140253" style="fill: #ff7f0e; stroke: #ff7f0e"/>
     <use xlink:href="#m8bffa5fa34" x="85.30625" y="79.217787" style="fill: #ff7f0e; stroke: #ff7f0e"/>
     <use xlink:href="#m8bffa5fa34" x="96.82625" y="85.308527" style="fill: #ff7f0e; stroke: #ff7f0e"/>
     <use xlink:href="#m8bffa5fa34" x="108.34625" y="85.619922" style="fill: #ff7f0e; stroke: #ff7f0e"/>
     <use xlink:href="#m8bffa5fa34" x="119.86625" y="85.791539" style="fill: #ff7f0e; stroke: #ff7f0e"/>
     <use xlink:href="#m8bffa5fa34" x="131.38625" y="85.855632" style="fill: #ff7f0e; stroke: #ff7f0e"/>
     <use xlink:href="#m8bffa5fa34" x="142.90625" y="85.882093" style="fill: #ff7f0e; stroke: #ff7f0e"/>
     <use xlink:href="#m8bffa5fa34" x="154.42625" y="85.881672" style="fill: #ff7f0e; stroke: #ff7f0e"/>
     <use xlink:href="#m8bffa5fa34" x="165.94625" y="85.881252" style="fill: #ff7f0e; stroke: #ff7f0e"/>
     <use xlink:href="#m8bffa5fa34" x="177.46625" y="85.880832" style="fill: #ff7f0e; stroke: #ff7f0e"/>
     <use xlink:href="#m8bffa5fa34" x="188.98625" y="85.880412" style="fill: #ff7f0e; stroke: #ff7f0e"/>
     <use xlink:href="#m8bffa5fa34" x="200.50625" y="85.879991" style="fill: #ff7f0e; stroke: #ff7f0e"/>
     <use xlink:href="#m8bffa5fa34" x="212.02625" y="85.879571" style="fill: #ff7f0e; stroke: #ff7f0e"/>
     <use xlink:href="#m8bffa5fa34" x="223.54625" y="85.879151" style="fill: #ff7f0e; stroke: #ff7f0e"/>
     <use xlink:href="#m8bffa5fa34" x="235.06625" y="85.87873" style="fill: #ff7f0e; stroke: #ff7f0e"/>
     <use xlink:href="#m8bffa5fa34" x="246.58625" y="85.87831" style="fill: #ff7f0e; stroke: #ff7f0e"/>
     <use xlink:href="#m8bffa5fa34" x="258.10625" y="85.87789" style="fill: #ff7f0e; stroke: #ff7f0e"/>
     <use xlink:href="#m8bffa5fa34" x="269.62625" y="85.877469" style="fill: #ff7f0e; stroke: #ff7f0e"/>
     <use xlink:href="#m8bffa5fa34" x="281.14625" y="85.877049" style="fill: #ff7f0e; stroke: #ff7f0e"/>
     <use xlink:href="#m8bffa5fa34" x="292.66625" y="85.876629" style="fill: #ff7f0e; stroke: #ff7f0e"/>
     <use xlink:href="#m8bffa5fa34" x="304.18625" y="85.876209" style="fill: #ff7f0e; stroke: #ff7f0e"/>
     <use xlink:href="#m8bffa5fa34" x="315.70625" y="85.875788" style="fill: #ff7f0e; stroke: #ff7f0e"/>
     <use xlink:href="#m8bffa5fa34" x="327.22625" y="85.875368" style="fill: #ff7f0e; stroke: #ff7f0e"/>
     <use xlink:href="#m8bffa5fa34" x="338.74625" y="85.874948" style="fill: #ff7f0e; stroke: #ff7f0e"/>
     <use xlink:href="#m8bffa5fa34" x="350.26625" y="85.879904" style="fill: #ff7f0e; stroke: #ff7f0e"/>
     <use xlink:href="#m8bffa5fa34" x="361.78625" y="85.879483" style="fill: #ff7f0e; stroke: #ff7f0e"/>
     <use xlink:href="#m8bffa5fa34" x="373.30625" y="85.879063" style="fill: #ff7f0e; stroke: #ff7f0e"/>
     <use xlink:href="#m8bffa5fa34" x="384.82625" y="85.878643" style="fill: #ff7f0e; stroke: #ff7f0e"/>
     <use xlink:href="#m8bffa5fa34" x="396.34625" y="85.883599" style="fill: #ff7f0e; stroke: #ff7f0e"/>
     <use xlink:href="#m8bffa5fa34" x="407.86625" y="85.883178" style="fill: #ff7f0e; stroke: #ff7f0e"/>
    </g>
   </g>
   <g id="line2d_42">
    <path d="M 73.608631 -1 
L 73.78625 12.140253 
L 85.30625 79.217787 
L 96.82625 85.308527 
L 108.34625 85.619922 
L 119.86625 85.791539 
L 131.38625 85.855632 
L 142.90625 85.882093 
L 154.42625 85.882093 
L 165.94625 85.882093 
L 177.46625 85.882093 
L 188.98625 85.882093 
L 200.50625 85.882093 
L 212.02625 85.882093 
L 223.54625 85.882093 
L 235.06625 85.882093 
L 246.58625 85.882093 
L 258.10625 85.882093 
L 269.62625 85.882093 
L 281.14625 85.882093 
L 292.66625 85.882093 
L 304.18625 85.882093 
L 315.70625 85.882093 
L 327.22625 85.882093 
L 338.74625 85.882093 
L 350.26625 85.882093 
L 361.78625 85.882093 
L 373.30625 85.882093 
L 384.82625 85.882093 
L 396.34625 85.883599 
L 407.86625 85.883599 
" clip-path="url(#p9a7abcf13a)" style="fill: none; stroke: #ff7f0e; stroke-linecap: square"/>
   </g>
   <g id="line2d_43"/>
   <g id="line2d_44">
    <path d="M 103.786446 -1 
L 108.34625 45.008522 
L 119.86625 103.618854 
L 131.38625 126.929463 
L 142.90625 135.020207 
L 154.42625 135.019836 
L 165.94625 135.019465 
L 177.46625 135.019093 
L 188.98625 135.018722 
L 200.50625 135.018351 
L 212.02625 135.01798 
L 223.54625 135.017609 
L 235.06625 135.017238 
L 246.58625 135.016866 
L 258.10625 135.021872 
L 269.62625 135.0215 
L 281.14625 135.021129 
L 292.66625 135.020758 
L 304.18625 135.020387 
L 315.70625 135.020016 
L 327.22625 135.019645 
L 338.74625 135.019273 
L 350.26625 135.018902 
L 361.78625 135.018531 
L 373.30625 135.01816 
L 384.82625 135.017789 
L 396.34625 135.017418 
L 407.86625 135.017047 
" clip-path="url(#p9a7abcf13a)" style="fill: none"/>
    <defs>
     <path id="m26cf038fa2" d="M 0 1 
C 0.265203 1 0.51958 0.894634 0.707107 0.707107 
C 0.894634 0.51958 1 0.265203 1 0 
C 1 -0.265203 0.894634 -0.51958 0.707107 -0.707107 
C 0.51958 -0.894634 0.265203 -1 0 -1 
C -0.265203 -1 -0.51958 -0.894634 -0.707107 -0.707107 
C -0.894634 -0.51958 -1 -0.265203 -1 0 
C -1 0.265203 -0.894634 0.51958 -0.707107 0.707107 
C -0.51958 0.894634 -0.265203 1 0 1 
z
" style="stroke: #2ca02c"/>
    </defs>
    <g clip-path="url(#p9a7abcf13a)">
     <use xlink:href="#m26cf038fa2" x="103.786446" y="-1" style="fill: #2ca02c; stroke: #2ca02c"/>
     <use xlink:href="#m26cf038fa2" x="108.34625" y="45.008522" style="fill: #2ca02c; stroke: #2ca02c"/>
     <use xlink:href="#m26cf038fa2" x="119.86625" y="103.618854" style="fill: #2ca02c; stroke: #2ca02c"/>
     <use xlink:href="#m26cf038fa2" x="131.38625" y="126.929463" style="fill: #2ca02c; stroke: #2ca02c"/>
     <use xlink:href="#m26cf038fa2" x="142.90625" y="135.020207" style="fill: #2ca02c; stroke: #2ca02c"/>
     <use xlink:href="#m26cf038fa2" x="154.42625" y="135.019836" style="fill: #2ca02c; stroke: #2ca02c"/>
     <use xlink:href="#m26cf038fa2" x="165.94625" y="135.019465" style="fill: #2ca02c; stroke: #2ca02c"/>
     <use xlink:href="#m26cf038fa2" x="177.46625" y="135.019093" style="fill: #2ca02c; stroke: #2ca02c"/>
     <use xlink:href="#m26cf038fa2" x="188.98625" y="135.018722" style="fill: #2ca02c; stroke: #2ca02c"/>
     <use xlink:href="#m26cf038fa2" x="200.50625" y="135.018351" style="fill: #2ca02c; stroke: #2ca02c"/>
     <use xlink:href="#m26cf038fa2" x="212.02625" y="135.01798" style="fill: #2ca02c; stroke: #2ca02c"/>
     <use xlink:href="#m26cf038fa2" x="223.54625" y="135.017609" style="fill: #2ca02c; stroke: #2ca02c"/>
     <use xlink:href="#m26cf038fa2" x="235.06625" y="135.017238" style="fill: #2ca02c; stroke: #2ca02c"/>
     <use xlink:href="#m26cf038fa2" x="246.58625" y="135.016866" style="fill: #2ca02c; stroke: #2ca02c"/>
     <use xlink:href="#m26cf038fa2" x="258.10625" y="135.021872" style="fill: #2ca02c; stroke: #2ca02c"/>
     <use xlink:href="#m26cf038fa2" x="269.62625" y="135.0215" style="fill: #2ca02c; stroke: #2ca02c"/>
     <use xlink:href="#m26cf038fa2" x="281.14625" y="135.021129" style="fill: #2ca02c; stroke: #2ca02c"/>
     <use xlink:href="#m26cf038fa2" x="292.66625" y="135.020758" style="fill: #2ca02c; stroke: #2ca02c"/>
     <use xlink:href="#m26cf038fa2" x="304.18625" y="135.020387" style="fill: #2ca02c; stroke: #2ca02c"/>
     <use xlink:href="#m26cf038fa2" x="315.70625" y="135.020016" style="fill: #2ca02c; stroke: #2ca02c"/>
     <use xlink:href="#m26cf038fa2" x="327.22625" y="135.019645" style="fill: #2ca02c; stroke: #2ca02c"/>
     <use xlink:href="#m26cf038fa2" x="338.74625" y="135.019273" style="fill: #2ca02c; stroke: #2ca02c"/>
     <use xlink:href="#m26cf038fa2" x="350.26625" y="135.018902" style="fill: #2ca02c; stroke: #2ca02c"/>
     <use xlink:href="#m26cf038fa2" x="361.78625" y="135.018531" style="fill: #2ca02c; stroke: #2ca02c"/>
     <use xlink:href="#m26cf038fa2" x="373.30625" y="135.01816" style="fill: #2ca02c; stroke: #2ca02c"/>
     <use xlink:href="#m26cf038fa2" x="384.82625" y="135.017789" style="fill: #2ca02c; stroke: #2ca02c"/>
     <use xlink:href="#m26cf038fa2" x="396.34625" y="135.017418" style="fill: #2ca02c; stroke: #2ca02c"/>
     <use xlink:href="#m26cf038fa2" x="407.86625" y="135.017047" style="fill: #2ca02c; stroke: #2ca02c"/>
    </g>
   </g>
   <g id="line2d_45">
    <path d="M 103.786446 -1 
L 108.34625 45.008522 
L 119.86625 103.618854 
L 131.38625 126.929463 
L 142.90625 135.020207 
L 154.42625 135.020207 
L 165.94625 135.020207 
L 177.46625 135.020207 
L 188.98625 135.020207 
L 200.50625 135.020207 
L 212.02625 135.020207 
L 223.54625 135.020207 
L 235.06625 135.020207 
L 246.58625 135.020207 
L 258.10625 135.021872 
L 269.62625 135.021872 
L 281.14625 135.021872 
L 292.66625 135.021872 
L 304.18625 135.021872 
L 315.70625 135.021872 
L 327.22625 135.021872 
L 338.74625 135.021872 
L 350.26625 135.021872 
L 361.78625 135.021872 
L 373.30625 135.021872 
L 384.82625 135.021872 
L 396.34625 135.021872 
L 407.86625 135.021872 
" clip-path="url(#p9a7abcf13a)" style="fill: none; stroke: #2ca02c; stroke-linecap: square"/>
   </g>
   <g id="line2d_46"/>
   <g id="line2d_47">
    <path d="M 73.602553 -1 
L 73.78625 12.597224 
L 85.30625 101.206177 
L 96.82625 118.807254 
L 108.34625 129.091432 
L 119.86625 134.354306 
L 131.38625 136.601168 
L 142.90625 137.272818 
L 154.42625 137.27245 
L 165.94625 137.272081 
L 177.46625 137.271712 
L 188.98625 137.271343 
L 200.50625 137.270974 
L 212.02625 137.270605 
L 223.54625 137.270236 
L 235.06625 137.269867 
L 246.58625 137.269498 
L 258.10625 137.274506 
L 269.62625 137.274137 
L 281.14625 137.273768 
L 292.66625 137.273399 
L 304.18625 137.27303 
L 315.70625 137.272661 
L 327.22625 137.272292 
L 338.74625 137.271923 
L 350.26625 137.271554 
L 361.78625 137.271186 
L 373.30625 137.270817 
L 384.82625 137.270448 
L 396.34625 137.270079 
L 407.86625 137.26971 
" clip-path="url(#p9a7abcf13a)" style="fill: none"/>
    <defs>
     <path id="mc2be8ad855" d="M 0 1 
C 0.265203 1 0.51958 0.894634 0.707107 0.707107 
C 0.894634 0.51958 1 0.265203 1 0 
C 1 -0.265203 0.894634 -0.51958 0.707107 -0.707107 
C 0.51958 -0.894634 0.265203 -1 0 -1 
C -0.265203 -1 -0.51958 -0.894634 -0.707107 -0.707107 
C -0.894634 -0.51958 -1 -0.265203 -1 0 
C -1 0.265203 -0.894634 0.51958 -0.707107 0.707107 
C -0.51958 0.894634 -0.265203 1 0 1 
z
" style="stroke: #d62728"/>
    </defs>
    <g clip-path="url(#p9a7abcf13a)">
     <use xlink:href="#mc2be8ad855" x="73.602553" y="-1" style="fill: #d62728; stroke: #d62728"/>
     <use xlink:href="#mc2be8ad855" x="73.78625" y="12.597224" style="fill: #d62728; stroke: #d62728"/>
     <use xlink:href="#mc2be8ad855" x="85.30625" y="101.206177" style="fill: #d62728; stroke: #d62728"/>
     <use xlink:href="#mc2be8ad855" x="96.82625" y="118.807254" style="fill: #d62728; stroke: #d62728"/>
     <use xlink:href="#mc2be8ad855" x="108.34625" y="129.091432" style="fill: #d62728; stroke: #d62728"/>
     <use xlink:href="#mc2be8ad855" x="119.86625" y="134.354306" style="fill: #d62728; stroke: #d62728"/>
     <use xlink:href="#mc2be8ad855" x="131.38625" y="136.601168" style="fill: #d62728; stroke: #d62728"/>
     <use xlink:href="#mc2be8ad855" x="142.90625" y="137.272818" style="fill: #d62728; stroke: #d62728"/>
     <use xlink:href="#mc2be8ad855" x="154.42625" y="137.27245" style="fill: #d62728; stroke: #d62728"/>
     <use xlink:href="#mc2be8ad855" x="165.94625" y="137.272081" style="fill: #d62728; stroke: #d62728"/>
     <use xlink:href="#mc2be8ad855" x="177.46625" y="137.271712" style="fill: #d62728; stroke: #d62728"/>
     <use xlink:href="#mc2be8ad855" x="188.98625" y="137.271343" style="fill: #d62728; stroke: #d62728"/>
     <use xlink:href="#mc2be8ad855" x="200.50625" y="137.270974" style="fill: #d62728; stroke: #d62728"/>
     <use xlink:href="#mc2be8ad855" x="212.02625" y="137.270605" style="fill: #d62728; stroke: #d62728"/>
     <use xlink:href="#mc2be8ad855" x="223.54625" y="137.270236" style="fill: #d62728; stroke: #d62728"/>
     <use xlink:href="#mc2be8ad855" x="235.06625" y="137.269867" style="fill: #d62728; stroke: #d62728"/>
     <use xlink:href="#mc2be8ad855" x="246.58625" y="137.269498" style="fill: #d62728; stroke: #d62728"/>
     <use xlink:href="#mc2be8ad855" x="258.10625" y="137.274506" style="fill: #d62728; stroke: #d62728"/>
     <use xlink:href="#mc2be8ad855" x="269.62625" y="137.274137" style="fill: #d62728; stroke: #d62728"/>
     <use xlink:href="#mc2be8ad855" x="281.14625" y="137.273768" style="fill: #d62728; stroke: #d62728"/>
     <use xlink:href="#mc2be8ad855" x="292.66625" y="137.273399" style="fill: #d62728; stroke: #d62728"/>
     <use xlink:href="#mc2be8ad855" x="304.18625" y="137.27303" style="fill: #d62728; stroke: #d62728"/>
     <use xlink:href="#mc2be8ad855" x="315.70625" y="137.272661" style="fill: #d62728; stroke: #d62728"/>
     <use xlink:href="#mc2be8ad855" x="327.22625" y="137.272292" style="fill: #d62728; stroke: #d62728"/>
     <use xlink:href="#mc2be8ad855" x="338.74625" y="137.271923" style="fill: #d62728; stroke: #d62728"/>
     <use xlink:href="#mc2be8ad855" x="350.26625" y="137.271554" style="fill: #d62728; stroke: #d62728"/>
     <use xlink:href="#mc2be8ad855" x="361.78625" y="137.271186" style="fill: #d62728; stroke: #d62728"/>
     <use xlink:href="#mc2be8ad855" x="373.30625" y="137.270817" style="fill: #d62728; stroke: #d62728"/>
     <use xlink:href="#mc2be8ad855" x="384.82625" y="137.270448" style="fill: #d62728; stroke: #d62728"/>
     <use xlink:href="#mc2be8ad855" x="396.34625" y="137.270079" style="fill: #d62728; stroke: #d62728"/>
     <use xlink:href="#mc2be8ad855" x="407.86625" y="137.26971" style="fill: #d62728; stroke: #d62728"/>
    </g>
   </g>
   <g id="line2d_48">
    <path d="M 73.602553 -1 
L 73.78625 12.597224 
L 85.30625 101.206177 
L 96.82625 118.807254 
L 108.34625 129.091432 
L 119.86625 134.354306 
L 131.38625 136.601168 
L 142.90625 137.272818 
L 154.42625 137.272818 
L 165.94625 137.272818 
L 177.46625 137.272818 
L 188.98625 137.272818 
L 200.50625 137.272818 
L 212.02625 137.272818 
L 223.54625 137.272818 
L 235.06625 137.272818 
L 246.58625 137.272818 
L 258.10625 137.274506 
L 269.62625 137.274506 
L 281.14625 137.274506 
L 292.66625 137.274506 
L 304.18625 137.274506 
L 315.70625 137.274506 
L 327.22625 137.274506 
L 338.74625 137.274506 
L 350.26625 137.274506 
L 361.78625 137.274506 
L 373.30625 137.274506 
L 384.82625 137.274506 
L 396.34625 137.274506 
L 407.86625 137.274506 
" clip-path="url(#p9a7abcf13a)" style="fill: none; stroke: #d62728; stroke-linecap: square"/>
   </g>
   <g id="line2d_49"/>
   <g id="line2d_50">
    <path d="M 73.608631 -1 
L 73.78625 12.140253 
L 85.30625 92.254913 
L 96.82625 96.297357 
L 108.34625 96.103406 
L 119.86625 96.049234 
L 131.38625 96.091833 
L 142.90625 96.102175 
L 154.42625 96.101765 
L 165.94625 96.101355 
L 177.46625 96.100945 
L 188.98625 96.100535 
L 200.50625 96.100125 
L 212.02625 96.099715 
L 223.54625 96.099305 
L 235.06625 96.098895 
L 246.58625 96.098485 
L 258.10625 96.098075 
L 269.62625 96.097665 
L 281.14625 96.097254 
L 292.66625 96.096844 
L 304.18625 96.096434 
L 315.70625 96.096024 
L 327.22625 96.095614 
L 338.74625 96.095204 
L 350.26625 96.094794 
L 361.78625 96.094384 
L 373.30625 96.093974 
L 384.82625 96.093564 
L 396.34625 96.09853 
L 407.86625 96.09812 
" clip-path="url(#p9a7abcf13a)" style="fill: none"/>
    <defs>
     <path id="m6563ba9cc3" d="M 0 1 
C 0.265203 1 0.51958 0.894634 0.707107 0.707107 
C 0.894634 0.51958 1 0.265203 1 0 
C 1 -0.265203 0.894634 -0.51958 0.707107 -0.707107 
C 0.51958 -0.894634 0.265203 -1 0 -1 
C -0.265203 -1 -0.51958 -0.894634 -0.707107 -0.707107 
C -0.894634 -0.51958 -1 -0.265203 -1 0 
C -1 0.265203 -0.894634 0.51958 -0.707107 0.707107 
C -0.51958 0.894634 -0.265203 1 0 1 
z
" style="stroke: #9467bd"/>
    </defs>
    <g clip-path="url(#p9a7abcf13a)">
     <use xlink:href="#m6563ba9cc3" x="73.608631" y="-1" style="fill: #9467bd; stroke: #9467bd"/>
     <use xlink:href="#m6563ba9cc3" x="73.78625" y="12.140253" style="fill: #9467bd; stroke: #9467bd"/>
     <use xlink:href="#m6563ba9cc3" x="85.30625" y="92.254913" style="fill: #9467bd; stroke: #9467bd"/>
     <use xlink:href="#m6563ba9cc3" x="96.82625" y="96.297357" style="fill: #9467bd; stroke: #9467bd"/>
     <use xlink:href="#m6563ba9cc3" x="108.34625" y="96.103406" style="fill: #9467bd; stroke: #9467bd"/>
     <use xlink:href="#m6563ba9cc3" x="119.86625" y="96.049234" style="fill: #9467bd; stroke: #9467bd"/>
     <use xlink:href="#m6563ba9cc3" x="131.38625" y="96.091833" style="fill: #9467bd; stroke: #9467bd"/>
     <use xlink:href="#m6563ba9cc3" x="142.90625" y="96.102175" style="fill: #9467bd; stroke: #9467bd"/>
     <use xlink:href="#m6563ba9cc3" x="154.42625" y="96.101765" style="fill: #9467bd; stroke: #9467bd"/>
     <use xlink:href="#m6563ba9cc3" x="165.94625" y="96.101355" style="fill: #9467bd; stroke: #9467bd"/>
     <use xlink:href="#m6563ba9cc3" x="177.46625" y="96.100945" style="fill: #9467bd; stroke: #9467bd"/>
     <use xlink:href="#m6563ba9cc3" x="188.98625" y="96.100535" style="fill: #9467bd; stroke: #9467bd"/>
     <use xlink:href="#m6563ba9cc3" x="200.50625" y="96.100125" style="fill: #9467bd; stroke: #9467bd"/>
     <use xlink:href="#m6563ba9cc3" x="212.02625" y="96.099715" style="fill: #9467bd; stroke: #9467bd"/>
     <use xlink:href="#m6563ba9cc3" x="223.54625" y="96.099305" style="fill: #9467bd; stroke: #9467bd"/>
     <use xlink:href="#m6563ba9cc3" x="235.06625" y="96.098895" style="fill: #9467bd; stroke: #9467bd"/>
     <use xlink:href="#m6563ba9cc3" x="246.58625" y="96.098485" style="fill: #9467bd; stroke: #9467bd"/>
     <use xlink:href="#m6563ba9cc3" x="258.10625" y="96.098075" style="fill: #9467bd; stroke: #9467bd"/>
     <use xlink:href="#m6563ba9cc3" x="269.62625" y="96.097665" style="fill: #9467bd; stroke: #9467bd"/>
     <use xlink:href="#m6563ba9cc3" x="281.14625" y="96.097254" style="fill: #9467bd; stroke: #9467bd"/>
     <use xlink:href="#m6563ba9cc3" x="292.66625" y="96.096844" style="fill: #9467bd; stroke: #9467bd"/>
     <use xlink:href="#m6563ba9cc3" x="304.18625" y="96.096434" style="fill: #9467bd; stroke: #9467bd"/>
     <use xlink:href="#m6563ba9cc3" x="315.70625" y="96.096024" style="fill: #9467bd; stroke: #9467bd"/>
     <use xlink:href="#m6563ba9cc3" x="327.22625" y="96.095614" style="fill: #9467bd; stroke: #9467bd"/>
     <use xlink:href="#m6563ba9cc3" x="338.74625" y="96.095204" style="fill: #9467bd; stroke: #9467bd"/>
     <use xlink:href="#m6563ba9cc3" x="350.26625" y="96.094794" style="fill: #9467bd; stroke: #9467bd"/>
     <use xlink:href="#m6563ba9cc3" x="361.78625" y="96.094384" style="fill: #9467bd; stroke: #9467bd"/>
     <use xlink:href="#m6563ba9cc3" x="373.30625" y="96.093974" style="fill: #9467bd; stroke: #9467bd"/>
     <use xlink:href="#m6563ba9cc3" x="384.82625" y="96.093564" style="fill: #9467bd; stroke: #9467bd"/>
     <use xlink:href="#m6563ba9cc3" x="396.34625" y="96.09853" style="fill: #9467bd; stroke: #9467bd"/>
     <use xlink:href="#m6563ba9cc3" x="407.86625" y="96.09812" style="fill: #9467bd; stroke: #9467bd"/>
    </g>
   </g>
   <g id="line2d_51">
    <path d="M 73.608631 -1 
L 73.78625 12.140253 
L 85.30625 92.254913 
L 96.82625 96.297357 
L 108.34625 96.297357 
L 119.86625 96.297357 
L 131.38625 96.297357 
L 142.90625 96.297357 
L 154.42625 96.297357 
L 165.94625 96.297357 
L 177.46625 96.297357 
L 188.98625 96.297357 
L 200.50625 96.297357 
L 212.02625 96.297357 
L 223.54625 96.297357 
L 235.06625 96.297357 
L 246.58625 96.297357 
L 258.10625 96.297357 
L 269.62625 96.297357 
L 281.14625 96.297357 
L 292.66625 96.297357 
L 304.18625 96.297357 
L 315.70625 96.297357 
L 327.22625 96.297357 
L 338.74625 96.297357 
L 350.26625 96.297357 
L 361.78625 96.297357 
L 373.30625 96.297357 
L 384.82625 96.297357 
L 396.34625 96.297357 
L 407.86625 96.297357 
" clip-path="url(#p9a7abcf13a)" style="fill: none; stroke: #9467bd; stroke-linecap: square"/>
   </g>
   <g id="line2d_52"/>
   <g id="line2d_53">
    <path d="M 62.26625 76.078125 
L 73.78625 92.619663 
L 85.30625 107.935903 
L 96.82625 122.158125 
L 108.34625 135.399504 
L 119.86625 147.758125 
L 131.38625 159.319415 
L 142.90625 170.158125 
L 154.42625 177.015268 
L 165.94625 177.015268 
L 177.46625 177.015268 
L 188.98625 177.015268 
L 200.50625 177.015268 
L 212.02625 177.015268 
L 223.54625 177.015268 
L 235.06625 177.015268 
L 246.58625 177.015268 
L 258.10625 177.015268 
L 269.62625 177.015268 
L 281.14625 177.015268 
L 292.66625 177.015268 
L 304.18625 177.015268 
L 315.70625 177.015268 
L 327.22625 177.015268 
L 338.74625 177.015268 
L 350.26625 183.598125 
L 361.78625 189.922831 
L 373.30625 196.004279 
L 384.82625 201.856238 
L 396.34625 207.491458 
L 407.86625 211.582783 
" clip-path="url(#p9a7abcf13a)" style="fill: none; stroke: #ff0000; stroke-width: 1.5; stroke-linecap: square"/>
   </g>
   <g id="line2d_54">
    <path d="M 62.26625 282.158125 
L 73.78625 282.158125 
L 85.30625 282.158125 
L 96.82625 282.158125 
L 108.34625 282.158125 
L 119.86625 282.158125 
L 131.38625 282.158125 
L 142.90625 282.158125 
L 154.42625 282.158125 
L 165.94625 282.158125 
L 177.46625 282.158125 
L 188.98625 282.158125 
L 200.50625 282.158125 
L 212.02625 282.158125 
L 223.54625 282.158125 
L 235.06625 282.158125 
L 246.58625 282.158125 
L 258.10625 282.158125 
L 269.62625 282.158125 
L 281.14625 282.158125 
L 292.66625 282.158125 
L 304.18625 282.158125 
L 315.70625 282.158125 
L 327.22625 282.158125 
L 338.74625 282.158125 
L 350.26625 282.158125 
L 361.78625 282.158125 
L 373.30625 282.158125 
L 384.82625 282.158125 
L 396.34625 282.158125 
L 407.86625 282.158125 
" clip-path="url(#p9a7abcf13a)" style="fill: none; stroke: #000000; stroke-width: 1.5; stroke-linecap: square"/>
   </g>
   <g id="patch_3">
    <path d="M 56.50625 288.430125 
L 56.50625 22.318125 
" style="fill: none; stroke: #000000; stroke-width: 0.8; stroke-linejoin: miter; stroke-linecap: square"/>
   </g>
   <g id="text_20">
    <!-- Densities and lower bounds (=4, w=24) -->
    <g transform="translate(111.270313 16.318125) scale(0.12 -0.12)">
     <defs>
      <path id="DejaVuSans-20" transform="scale(0.015625)"/>
      <path id="DejaVuSans-61" d="M 2194 1759 
Q 1497 1759 1228 1600 
Q 959 1441 959 1056 
Q 959 750 1161 570 
Q 1363 391 1709 391 
Q 2188 391 2477 730 
Q 2766 1069 2766 1631 
L 2766 1759 
L 2194 1759 
z
M 3341 1997 
L 3341 0 
L 2766 0 
L 2766 531 
Q 2569 213 2275 61 
Q 1981 -91 1556 -91 
Q 1019 -91 701 211 
Q 384 513 384 1019 
Q 384 1609 779 1909 
Q 1175 2209 1959 2209 
L 2766 2209 
L 2766 2266 
Q 2766 2663 2505 2880 
Q 2244 3097 1772 3097 
Q 1472 3097 1187 3025 
Q 903 2953 641 2809 
L 641 3341 
Q 956 3463 1253 3523 
Q 1550 3584 1831 3584 
Q 2591 3584 2966 3190 
Q 3341 2797 3341 1997 
z
" transform="scale(0.015625)"/>
      <path id="DejaVuSans-64" d="M 2906 2969 
L 2906 4863 
L 3481 4863 
L 3481 0 
L 2906 0 
L 2906 525 
Q 2725 213 2448 61 
Q 2172 -91 1784 -91 
Q 1150 -91 751 415 
Q 353 922 353 1747 
Q 353 2572 751 3078 
Q 1150 3584 1784 3584 
Q 2172 3584 2448 3432 
Q 2725 3281 2906 2969 
z
M 947 1747 
Q 947 1113 1208 752 
Q 1469 391 1925 391 
Q 2381 391 2643 752 
Q 2906 1113 2906 1747 
Q 2906 2381 2643 2742 
Q 2381 3103 1925 3103 
Q 1469 3103 1208 2742 
Q 947 2381 947 1747 
z
" transform="scale(0.015625)"/>
      <path id="DejaVuSans-6c" d="M 603 4863 
L 1178 4863 
L 1178 0 
L 603 0 
L 603 4863 
z
" transform="scale(0.015625)"/>
      <path id="DejaVuSans-6f" d="M 1959 3097 
Q 1497 3097 1228 2736 
Q 959 2375 959 1747 
Q 959 1119 1226 758 
Q 1494 397 1959 397 
Q 2419 397 2687 759 
Q 2956 1122 2956 1747 
Q 2956 2369 2687 2733 
Q 2419 3097 1959 3097 
z
M 1959 3584 
Q 2709 3584 3137 3096 
Q 3566 2609 3566 1747 
Q 3566 888 3137 398 
Q 2709 -91 1959 -91 
Q 1206 -91 779 398 
Q 353 888 353 1747 
Q 353 2609 779 3096 
Q 1206 3584 1959 3584 
z
" transform="scale(0.015625)"/>
      <path id="DejaVuSans-77" d="M 269 3500 
L 844 3500 
L 1563 769 
L 2278 3500 
L 2956 3500 
L 3675 769 
L 4391 3500 
L 4966 3500 
L 4050 0 
L 3372 0 
L 2619 2869 
L 1863 0 
L 1184 0 
L 269 3500 
z
" transform="scale(0.015625)"/>
      <path id="DejaVuSans-72" d="M 2631 2963 
Q 2534 3019 2420 3045 
Q 2306 3072 2169 3072 
Q 1681 3072 1420 2755 
Q 1159 2438 1159 1844 
L 1159 0 
L 581 0 
L 581 3500 
L 1159 3500 
L 1159 2956 
Q 1341 3275 1631 3429 
Q 1922 3584 2338 3584 
Q 2397 3584 2469 3576 
Q 2541 3569 2628 3553 
L 2631 2963 
z
" transform="scale(0.015625)"/>
      <path id="DejaVuSans-62" d="M 3116 1747 
Q 3116 2381 2855 2742 
Q 2594 3103 2138 3103 
Q 1681 3103 1420 2742 
Q 1159 2381 1159 1747 
Q 1159 1113 1420 752 
Q 1681 391 2138 391 
Q 2594 391 2855 752 
Q 3116 1113 3116 1747 
z
M 1159 2969 
Q 1341 3281 1617 3432 
Q 1894 3584 2278 3584 
Q 2916 3584 3314 3078 
Q 3713 2572 3713 1747 
Q 3713 922 3314 415 
Q 2916 -91 2278 -91 
Q 1894 -91 1617 61 
Q 1341 213 1159 525 
L 1159 0 
L 581 0 
L 581 4863 
L 1159 4863 
L 1159 2969 
z
" transform="scale(0.015625)"/>
      <path id="DejaVuSans-75" d="M 544 1381 
L 544 3500 
L 1119 3500 
L 1119 1403 
Q 1119 906 1312 657 
Q 1506 409 1894 409 
Q 2359 409 2629 706 
Q 2900 1003 2900 1516 
L 2900 3500 
L 3475 3500 
L 3475 0 
L 2900 0 
L 2900 538 
Q 2691 219 2414 64 
Q 2138 -91 1772 -91 
Q 1169 -91 856 284 
Q 544 659 544 1381 
z
M 1991 3584 
L 1991 3584 
z
" transform="scale(0.015625)"/>
      <path id="DejaVuSans-28" d="M 1984 4856 
Q 1566 4138 1362 3434 
Q 1159 2731 1159 2009 
Q 1159 1288 1364 580 
Q 1569 -128 1984 -844 
L 1484 -844 
Q 1016 -109 783 600 
Q 550 1309 550 2009 
Q 550 2706 781 3412 
Q 1013 4119 1484 4856 
L 1984 4856 
z
" transform="scale(0.015625)"/>
      <path id="DejaVuSans-3c3" d="M 1959 3044 
Q 1484 3044 1228 2700 
Q 959 2341 959 1747 
Q 959 1119 1226 758 
Q 1494 397 1959 397 
Q 2419 397 2687 759 
Q 2956 1122 2956 1747 
Q 2956 2319 2688 2700 
Q 2441 3044 1959 3044 
z
M 1959 3500 
L 3869 3500 
L 3869 2925 
L 3225 2925 
Q 3566 2438 3566 1747 
Q 3566 888 3138 400 
Q 2709 -91 1959 -91 
Q 1206 -91 781 400 
Q 353 888 353 1747 
Q 353 2613 781 3097 
Q 1134 3500 1959 3500 
z
" transform="scale(0.015625)"/>
      <path id="DejaVuSans-3d" d="M 678 2906 
L 4684 2906 
L 4684 2381 
L 678 2381 
L 678 2906 
z
M 678 1631 
L 4684 1631 
L 4684 1100 
L 678 1100 
L 678 1631 
z
" transform="scale(0.015625)"/>
      <path id="DejaVuSans-2c" d="M 750 794 
L 1409 794 
L 1409 256 
L 897 -744 
L 494 -744 
L 750 256 
L 750 794 
z
" transform="scale(0.015625)"/>
      <path id="DejaVuSans-29" d="M 513 4856 
L 1013 4856 
Q 1481 4119 1714 3412 
Q 1947 2706 1947 2009 
Q 1947 1309 1714 600 
Q 1481 -109 1013 -844 
L 513 -844 
Q 928 -128 1133 580 
Q 1338 1288 1338 2009 
Q 1338 2731 1133 3434 
Q 928 4138 513 4856 
z
" transform="scale(0.015625)"/>
     </defs>
     <use xlink:href="#DejaVuSans-44"/>
     <use xlink:href="#DejaVuSans-65" transform="translate(77.001953 0)"/>
     <use xlink:href="#DejaVuSans-6e" transform="translate(138.525391 0)"/>
     <use xlink:href="#DejaVuSans-73" transform="translate(201.904297 0)"/>
     <use xlink:href="#DejaVuSans-69" transform="translate(254.003906 0)"/>
     <use xlink:href="#DejaVuSans-74" transform="translate(281.787109 0)"/>
     <use xlink:href="#DejaVuSans-69" transform="translate(320.996094 0)"/>
     <use xlink:href="#DejaVuSans-65" transform="translate(348.779297 0)"/>
     <use xlink:href="#DejaVuSans-73" transform="translate(410.302734 0)"/>
     <use xlink:href="#DejaVuSans-20" transform="translate(462.402344 0)"/>
     <use xlink:href="#DejaVuSans-61" transform="translate(494.189453 0)"/>
     <use xlink:href="#DejaVuSans-6e" transform="translate(555.46875 0)"/>
     <use xlink:href="#DejaVuSans-64" transform="translate(618.847656 0)"/>
     <use xlink:href="#DejaVuSans-20" transform="translate(682.324219 0)"/>
     <use xlink:href="#DejaVuSans-6c" transform="translate(714.111328 0)"/>
     <use xlink:href="#DejaVuSans-6f" transform="translate(741.894531 0)"/>
     <use xlink:href="#DejaVuSans-77" transform="translate(803.076172 0)"/>
     <use xlink:href="#DejaVuSans-65" transform="translate(884.863281 0)"/>
     <use xlink:href="#DejaVuSans-72" transform="translate(946.386719 0)"/>
     <use xlink:href="#DejaVuSans-20" transform="translate(987.5 0)"/>
     <use xlink:href="#DejaVuSans-62" transform="translate(1019.287109 0)"/>
     <use xlink:href="#DejaVuSans-6f" transform="translate(1082.763672 0)"/>
     <use xlink:href="#DejaVuSans-75" transform="translate(1143.945312 0)"/>
     <use xlink:href="#DejaVuSans-6e" transform="translate(1207.324219 0)"/>
     <use xlink:href="#DejaVuSans-64" transform="translate(1270.703125 0)"/>
     <use xlink:href="#DejaVuSans-73" transform="translate(1334.179688 0)"/>
     <use xlink:href="#DejaVuSans-20" transform="translate(1386.279297 0)"/>
     <use xlink:href="#DejaVuSans-28" transform="translate(1418.066406 0)"/>
     <use xlink:href="#DejaVuSans-3c3" transform="translate(1457.080078 0)"/>
     <use xlink:href="#DejaVuSans-3d" transform="translate(1520.458984 0)"/>
     <use xlink:href="#DejaVuSans-34" transform="translate(1604.248047 0)"/>
     <use xlink:href="#DejaVuSans-2c" transform="translate(1667.871094 0)"/>
     <use xlink:href="#DejaVuSans-20" transform="translate(1699.658203 0)"/>
     <use xlink:href="#DejaVuSans-77" transform="translate(1731.445312 0)"/>
     <use xlink:href="#DejaVuSans-3d" transform="translate(1813.232422 0)"/>
     <use xlink:href="#DejaVuSans-32" transform="translate(1897.021484 0)"/>
     <use xlink:href="#DejaVuSans-34" transform="translate(1960.644531 0)"/>
     <use xlink:href="#DejaVuSans-29" transform="translate(2024.267578 0)"/>
    </g>
   </g>
   <g id="legend_1">
    <g id="patch_4">
     <path d="M 60.70625 277.446765 
L 409.42625 277.446765 
Q 410.62625 277.446765 410.62625 276.246765 
L 410.62625 259.233015 
Q 410.62625 258.033015 409.42625 258.033015 
L 60.70625 258.033015 
Q 59.50625 258.033015 59.50625 259.233015 
L 59.50625 276.246765 
Q 59.50625 277.446765 60.70625 277.446765 
z
" style="fill: #ffffff; opacity: 0.8; stroke: #cccccc; stroke-linejoin: miter"/>
    </g>
    <g id="line2d_55">
     <path d="M 61.90625 262.892077 
L 67.90625 262.892077 
L 73.90625 262.892077 
" style="fill: none; stroke: #ffa500; stroke-linecap: square"/>
     <g>
      <use xlink:href="#m03d736afa5" x="67.90625" y="262.892077" style="fill: #ffa500; stroke: #ffa500"/>
     </g>
    </g>
    <g id="text_21">
     <!-- Random minimizer -->
     <g transform="translate(78.70625 264.992077) scale(0.06 -0.06)">
      <defs>
       <path id="DejaVuSans-52" d="M 2841 2188 
Q 3044 2119 3236 1894 
Q 3428 1669 3622 1275 
L 4263 0 
L 3584 0 
L 2988 1197 
Q 2756 1666 2539 1819 
Q 2322 1972 1947 1972 
L 1259 1972 
L 1259 0 
L 628 0 
L 628 4666 
L 2053 4666 
Q 2853 4666 3247 4331 
Q 3641 3997 3641 3322 
Q 3641 2881 3436 2590 
Q 3231 2300 2841 2188 
z
M 1259 4147 
L 1259 2491 
L 2053 2491 
Q 2509 2491 2742 2702 
Q 2975 2913 2975 3322 
Q 2975 3731 2742 3939 
Q 2509 4147 2053 4147 
L 1259 4147 
z
" transform="scale(0.015625)"/>
       <path id="DejaVuSans-6d" d="M 3328 2828 
Q 3544 3216 3844 3400 
Q 4144 3584 4550 3584 
Q 5097 3584 5394 3201 
Q 5691 2819 5691 2113 
L 5691 0 
L 5113 0 
L 5113 2094 
Q 5113 2597 4934 2840 
Q 4756 3084 4391 3084 
Q 3944 3084 3684 2787 
Q 3425 2491 3425 1978 
L 3425 0 
L 2847 0 
L 2847 2094 
Q 2847 2600 2669 2842 
Q 2491 3084 2119 3084 
Q 1678 3084 1418 2786 
Q 1159 2488 1159 1978 
L 1159 0 
L 581 0 
L 581 3500 
L 1159 3500 
L 1159 2956 
Q 1356 3278 1631 3431 
Q 1906 3584 2284 3584 
Q 2666 3584 2933 3390 
Q 3200 3197 3328 2828 
z
" transform="scale(0.015625)"/>
       <path id="DejaVuSans-7a" d="M 353 3500 
L 3084 3500 
L 3084 2975 
L 922 459 
L 3084 459 
L 3084 0 
L 275 0 
L 275 525 
L 2438 3041 
L 353 3041 
L 353 3500 
z
" transform="scale(0.015625)"/>
      </defs>
      <use xlink:href="#DejaVuSans-52"/>
      <use xlink:href="#DejaVuSans-61" transform="translate(67.232422 0)"/>
      <use xlink:href="#DejaVuSans-6e" transform="translate(128.511719 0)"/>
      <use xlink:href="#DejaVuSans-64" transform="translate(191.890625 0)"/>
      <use xlink:href="#DejaVuSans-6f" transform="translate(255.367188 0)"/>
      <use xlink:href="#DejaVuSans-6d" transform="translate(316.548828 0)"/>
      <use xlink:href="#DejaVuSans-20" transform="translate(413.960938 0)"/>
      <use xlink:href="#DejaVuSans-6d" transform="translate(445.748047 0)"/>
      <use xlink:href="#DejaVuSans-69" transform="translate(543.160156 0)"/>
      <use xlink:href="#DejaVuSans-6e" transform="translate(570.943359 0)"/>
      <use xlink:href="#DejaVuSans-69" transform="translate(634.322266 0)"/>
      <use xlink:href="#DejaVuSans-6d" transform="translate(662.105469 0)"/>
      <use xlink:href="#DejaVuSans-69" transform="translate(759.517578 0)"/>
      <use xlink:href="#DejaVuSans-7a" transform="translate(787.300781 0)"/>
      <use xlink:href="#DejaVuSans-65" transform="translate(839.791016 0)"/>
      <use xlink:href="#DejaVuSans-72" transform="translate(901.314453 0)"/>
     </g>
    </g>
    <g id="line2d_56">
     <path d="M 61.90625 271.698952 
L 67.90625 271.698952 
L 73.90625 271.698952 
" style="fill: none; stroke: #1f77b4; stroke-linecap: square"/>
     <g>
      <use xlink:href="#m1caf886cb1" x="67.90625" y="271.698952" style="fill: #1f77b4; stroke: #1f77b4"/>
     </g>
    </g>
    <g id="text_22">
     <!-- Lex -->
     <g transform="translate(78.70625 273.798952) scale(0.06 -0.06)">
      <defs>
       <path id="DejaVuSans-4c" d="M 628 4666 
L 1259 4666 
L 1259 531 
L 3531 531 
L 3531 0 
L 628 0 
L 628 4666 
z
" transform="scale(0.015625)"/>
       <path id="DejaVuSans-78" d="M 3513 3500 
L 2247 1797 
L 3578 0 
L 2900 0 
L 1881 1375 
L 863 0 
L 184 0 
L 1544 1831 
L 300 3500 
L 978 3500 
L 1906 2253 
L 2834 3500 
L 3513 3500 
z
" transform="scale(0.015625)"/>
      </defs>
      <use xlink:href="#DejaVuSans-4c"/>
      <use xlink:href="#DejaVuSans-65" transform="translate(53.962891 0)"/>
      <use xlink:href="#DejaVuSans-78" transform="translate(113.736328 0)"/>
     </g>
    </g>
    <g id="line2d_57">
     <path d="M 180.745 262.892077 
L 186.745 262.892077 
L 192.745 262.892077 
" style="fill: none; stroke: #ff7f0e; stroke-linecap: square"/>
     <g>
      <use xlink:href="#m8bffa5fa34" x="186.745" y="262.892077" style="fill: #ff7f0e; stroke: #ff7f0e"/>
     </g>
    </g>
    <g id="text_23">
     <!-- Alternating -->
     <g transform="translate(197.545 264.992077) scale(0.06 -0.06)">
      <defs>
       <path id="DejaVuSans-41" d="M 2188 4044 
L 1331 1722 
L 3047 1722 
L 2188 4044 
z
M 1831 4666 
L 2547 4666 
L 4325 0 
L 3669 0 
L 3244 1197 
L 1141 1197 
L 716 0 
L 50 0 
L 1831 4666 
z
" transform="scale(0.015625)"/>
       <path id="DejaVuSans-67" d="M 2906 1791 
Q 2906 2416 2648 2759 
Q 2391 3103 1925 3103 
Q 1463 3103 1205 2759 
Q 947 2416 947 1791 
Q 947 1169 1205 825 
Q 1463 481 1925 481 
Q 2391 481 2648 825 
Q 2906 1169 2906 1791 
z
M 3481 434 
Q 3481 -459 3084 -895 
Q 2688 -1331 1869 -1331 
Q 1566 -1331 1297 -1286 
Q 1028 -1241 775 -1147 
L 775 -588 
Q 1028 -725 1275 -790 
Q 1522 -856 1778 -856 
Q 2344 -856 2625 -561 
Q 2906 -266 2906 331 
L 2906 616 
Q 2728 306 2450 153 
Q 2172 0 1784 0 
Q 1141 0 747 490 
Q 353 981 353 1791 
Q 353 2603 747 3093 
Q 1141 3584 1784 3584 
Q 2172 3584 2450 3431 
Q 2728 3278 2906 2969 
L 2906 3500 
L 3481 3500 
L 3481 434 
z
" transform="scale(0.015625)"/>
      </defs>
      <use xlink:href="#DejaVuSans-41"/>
      <use xlink:href="#DejaVuSans-6c" transform="translate(68.408203 0)"/>
      <use xlink:href="#DejaVuSans-74" transform="translate(96.191406 0)"/>
      <use xlink:href="#DejaVuSans-65" transform="translate(135.400391 0)"/>
      <use xlink:href="#DejaVuSans-72" transform="translate(196.923828 0)"/>
      <use xlink:href="#DejaVuSans-6e" transform="translate(236.287109 0)"/>
      <use xlink:href="#DejaVuSans-61" transform="translate(299.666016 0)"/>
      <use xlink:href="#DejaVuSans-74" transform="translate(360.945312 0)"/>
      <use xlink:href="#DejaVuSans-69" transform="translate(400.154297 0)"/>
      <use xlink:href="#DejaVuSans-6e" transform="translate(427.9375 0)"/>
      <use xlink:href="#DejaVuSans-67" transform="translate(491.316406 0)"/>
     </g>
    </g>
    <g id="line2d_58">
     <path d="M 180.745 271.698952 
L 186.745 271.698952 
L 192.745 271.698952 
" style="fill: none; stroke: #2ca02c; stroke-linecap: square"/>
     <g>
      <use xlink:href="#m26cf038fa2" x="186.745" y="271.698952" style="fill: #2ca02c; stroke: #2ca02c"/>
     </g>
    </g>
    <g id="text_24">
     <!-- ABB -->
     <g transform="translate(197.545 273.798952) scale(0.06 -0.06)">
      <defs>
       <path id="DejaVuSans-42" d="M 1259 2228 
L 1259 519 
L 2272 519 
Q 2781 519 3026 730 
Q 3272 941 3272 1375 
Q 3272 1813 3026 2020 
Q 2781 2228 2272 2228 
L 1259 2228 
z
M 1259 4147 
L 1259 2741 
L 2194 2741 
Q 2656 2741 2882 2914 
Q 3109 3088 3109 3444 
Q 3109 3797 2882 3972 
Q 2656 4147 2194 4147 
L 1259 4147 
z
M 628 4666 
L 2241 4666 
Q 2963 4666 3353 4366 
Q 3744 4066 3744 3513 
Q 3744 3084 3544 2831 
Q 3344 2578 2956 2516 
Q 3422 2416 3680 2098 
Q 3938 1781 3938 1306 
Q 3938 681 3513 340 
Q 3088 0 2303 0 
L 628 0 
L 628 4666 
z
" transform="scale(0.015625)"/>
      </defs>
      <use xlink:href="#DejaVuSans-41"/>
      <use xlink:href="#DejaVuSans-42" transform="translate(68.408203 0)"/>
      <use xlink:href="#DejaVuSans-42" transform="translate(137.011719 0)"/>
     </g>
    </g>
    <g id="line2d_59">
     <path d="M 276.32625 262.892077 
L 282.32625 262.892077 
L 288.32625 262.892077 
" style="fill: none; stroke: #d62728; stroke-linecap: square"/>
     <g>
      <use xlink:href="#mc2be8ad855" x="282.32625" y="262.892077" style="fill: #d62728; stroke: #d62728"/>
     </g>
    </g>
    <g id="text_25">
     <!-- ABB+tiebreak -->
     <g transform="translate(293.12625 264.992077) scale(0.06 -0.06)">
      <defs>
       <path id="DejaVuSans-2b" d="M 2944 4013 
L 2944 2272 
L 4684 2272 
L 4684 1741 
L 2944 1741 
L 2944 0 
L 2419 0 
L 2419 1741 
L 678 1741 
L 678 2272 
L 2419 2272 
L 2419 4013 
L 2944 4013 
z
" transform="scale(0.015625)"/>
      </defs>
      <use xlink:href="#DejaVuSans-41"/>
      <use xlink:href="#DejaVuSans-42" transform="translate(68.408203 0)"/>
      <use xlink:href="#DejaVuSans-42" transform="translate(137.011719 0)"/>
      <use xlink:href="#DejaVuSans-2b" transform="translate(205.615234 0)"/>
      <use xlink:href="#DejaVuSans-74" transform="translate(289.404297 0)"/>
      <use xlink:href="#DejaVuSans-69" transform="translate(328.613281 0)"/>
      <use xlink:href="#DejaVuSans-65" transform="translate(356.396484 0)"/>
      <use xlink:href="#DejaVuSans-62" transform="translate(417.919922 0)"/>
      <use xlink:href="#DejaVuSans-72" transform="translate(481.396484 0)"/>
      <use xlink:href="#DejaVuSans-65" transform="translate(520.259766 0)"/>
      <use xlink:href="#DejaVuSans-61" transform="translate(581.783203 0)"/>
      <use xlink:href="#DejaVuSans-6b" transform="translate(643.0625 0)"/>
     </g>
    </g>
    <g id="line2d_60">
     <path d="M 276.32625 271.698952 
L 282.32625 271.698952 
L 288.32625 271.698952 
" style="fill: none; stroke: #9467bd; stroke-linecap: square"/>
     <g>
      <use xlink:href="#m6563ba9cc3" x="282.32625" y="271.698952" style="fill: #9467bd; stroke: #9467bd"/>
     </g>
    </g>
    <g id="text_26">
     <!-- AntiLex -->
     <g transform="translate(293.12625 273.798952) scale(0.06 -0.06)">
      <use xlink:href="#DejaVuSans-41"/>
      <use xlink:href="#DejaVuSans-6e" transform="translate(68.408203 0)"/>
      <use xlink:href="#DejaVuSans-74" transform="translate(131.787109 0)"/>
      <use xlink:href="#DejaVuSans-69" transform="translate(170.996094 0)"/>
      <use xlink:href="#DejaVuSans-4c" transform="translate(198.779297 0)"/>
      <use xlink:href="#DejaVuSans-65" transform="translate(252.742188 0)"/>
      <use xlink:href="#DejaVuSans-78" transform="translate(312.515625 0)"/>
     </g>
    </g>
    <g id="line2d_61">
     <path d="M 380.680625 262.892077 
L 386.680625 262.892077 
L 392.680625 262.892077 
" style="fill: none; stroke: #ff0000; stroke-width: 1.5; stroke-linecap: square"/>
    </g>
    <g id="text_27">
     <!-- g' -->
     <g transform="translate(397.480625 264.992077) scale(0.06 -0.06)">
      <defs>
       <path id="DejaVuSans-27" d="M 1147 4666 
L 1147 2931 
L 616 2931 
L 616 4666 
L 1147 4666 
z
" transform="scale(0.015625)"/>
      </defs>
      <use xlink:href="#DejaVuSans-67"/>
      <use xlink:href="#DejaVuSans-27" transform="translate(63.476562 0)"/>
     </g>
    </g>
    <g id="line2d_62">
     <path d="M 380.680625 271.698952 
L 386.680625 271.698952 
L 392.680625 271.698952 
" style="fill: none; stroke: #000000; stroke-width: 1.5; stroke-linecap: square"/>
    </g>
    <g id="text_28">
     <!-- 1/w -->
     <g transform="translate(397.480625 273.798952) scale(0.06 -0.06)">
      <defs>
       <path id="DejaVuSans-2f" d="M 1625 4666 
L 2156 4666 
L 531 -594 
L 0 -594 
L 1625 4666 
z
" transform="scale(0.015625)"/>
      </defs>
      <use xlink:href="#DejaVuSans-31"/>
      <use xlink:href="#DejaVuSans-2f" transform="translate(63.623047 0)"/>
      <use xlink:href="#DejaVuSans-77" transform="translate(97.314453 0)"/>
     </g>
    </g>
   </g>
  </g>
 </g>
 <defs>
  <clipPath id="p9a7abcf13a">
   <rect x="56.50625" y="22.318125" width="357.12" height="266.112"/>
  </clipPath>
 </defs>
</svg>
