<?xml version="1.0" encoding="utf-8" standalone="no"?>
<!DOCTYPE svg PUBLIC "-//W3C//DTD SVG 1.1//EN"
  "http://www.w3.org/Graphics/SVG/1.1/DTD/svg11.dtd">
<svg xmlns:xlink="http://www.w3.org/1999/xlink" width="494.203125pt" height="392.514375pt" viewBox="0 0 494.203125 392.514375" xmlns="http://www.w3.org/2000/svg" version="1.1">
 <metadata>
  <rdf:RDF xmlns:dc="http://purl.org/dc/elements/1.1/" xmlns:cc="http://creativecommons.org/ns#" xmlns:rdf="http://www.w3.org/1999/02/22-rdf-syntax-ns#">
   <cc:Work>
    <dc:type rdf:resource="http://purl.org/dc/dcmitype/StillImage"/>
    <dc:date>2024-12-18T05:45:12.478734</dc:date>
    <dc:format>image/svg+xml</dc:format>
    <dc:creator>
     <cc:Agent>
      <dc:title>Matplotlib v3.9.3, https://matplotlib.org/</dc:title>
     </cc:Agent>
    </dc:creator>
   </cc:Work>
  </rdf:RDF>
 </metadata>
 <defs>
  <style type="text/css">*{stroke-linejoin: round; stroke-linecap: butt}</style>
 </defs>
 <g id="figure_1">
  <g id="patch_1">
   <path d="M 0 392.514375 
L 494.203125 392.514375 
L 494.203125 0 
L 0 0 
z
" style="fill: #ffffff"/>
  </g>
  <g id="axes_1">
   <g id="patch_2">
    <path d="M 40.603125 354.958125 
L 487.003125 354.958125 
L 487.003125 22.318125 
L 40.603125 22.318125 
z
" style="fill: #ffffff"/>
   </g>
   <g id="line2d_1">
    <path d="M 112.239523 354.958125 
L 112.239523 22.318125 
" clip-path="url(#p2b0ee9aed4)" style="fill: none; stroke-dasharray: 5.55,2.4; stroke-dashoffset: 0; stroke: #ff0000; stroke-width: 1.5"/>
   </g>
   <g id="line2d_2">
    <path d="M 189.257756 354.958125 
L 189.257756 22.318125 
" clip-path="url(#p2b0ee9aed4)" style="fill: none; stroke-dasharray: 5.55,2.4; stroke-dashoffset: 0; stroke: #ff0000; stroke-width: 1.5"/>
   </g>
   <g id="line2d_3">
    <path d="M 332.63907 354.958125 
L 332.63907 22.318125 
" clip-path="url(#p2b0ee9aed4)" style="fill: none; stroke-dasharray: 5.55,2.4; stroke-dashoffset: 0; stroke: #ff0000; stroke-width: 1.5"/>
   </g>
   <g id="PolyCollection_1">
    <defs>
     <path id="m2ddbf099bc" d="M 60.894034 -43.620568 
L 60.894034 -43.598865 
L 69.158812 -43.600135 
L 75.911627 -43.601456 
L 81.621051 -43.600644 
L 86.566778 -43.599309 
L 94.831556 -43.602938 
L 101.584371 -43.602391 
L 107.293795 -43.600914 
L 112.239523 -43.604138 
L 120.5043 -55.677295 
L 127.257116 -55.67694 
L 132.966539 -55.683422 
L 137.912267 -55.677263 
L 146.177045 -55.680271 
L 152.92986 -55.678905 
L 158.639284 -55.683657 
L 163.585012 -55.681176 
L 171.849789 -55.688253 
L 178.602604 -55.682435 
L 184.312028 -55.72368 
L 189.257756 -55.757853 
L 197.522534 -79.005946 
L 204.275349 -83.220744 
L 209.984772 -85.22128 
L 214.9305 -87.316551 
L 223.195278 -89.598615 
L 229.948093 -91.110328 
L 235.657517 -92.493531 
L 240.603245 -93.447514 
L 248.868022 -94.433001 
L 255.620837 -95.118541 
L 261.330261 -95.582543 
L 266.275989 -95.934125 
L 274.540767 -96.56879 
L 281.293582 -96.784042 
L 287.003005 -97.005617 
L 291.948733 -97.204314 
L 300.213511 -97.546343 
L 306.966326 -99.48699 
L 312.67575 -100.122976 
L 317.621478 -101.89422 
L 325.886255 -104.609422 
L 332.63907 -172.948414 
L 338.348494 -198.671239 
L 343.294222 -231.582559 
L 351.559 -266.935041 
L 358.311815 -290.347997 
L 364.021238 -304.540373 
L 368.966966 -313.164551 
L 377.231744 -320.204315 
L 383.984559 -321.796927 
L 389.693983 -321.39823 
L 394.639711 -322.88856 
L 402.904488 -325.981585 
L 409.657303 -329.284296 
L 415.366727 -332.618869 
L 420.312455 -333.93947 
L 428.577233 -336.246007 
L 435.330048 -338.800776 
L 441.039472 -339.899392 
L 445.985199 -341.19962 
L 454.249977 -343.536951 
L 461.002792 -344.248794 
L 466.712216 -344.726841 
L 466.712216 -345.513753 
L 466.712216 -345.513753 
L 461.002792 -345.224948 
L 454.249977 -344.154224 
L 445.985199 -343.009691 
L 441.039472 -340.224849 
L 435.330048 -339.555278 
L 428.577233 -336.825984 
L 420.312455 -334.709002 
L 415.366727 -333.541902 
L 409.657303 -330.508722 
L 402.904488 -327.427562 
L 394.639711 -324.309223 
L 389.693983 -322.42029 
L 383.984559 -322.146158 
L 377.231744 -321.086086 
L 368.966966 -313.556485 
L 364.021238 -305.027313 
L 358.311815 -291.69786 
L 351.559 -280.999656 
L 343.294222 -238.218815 
L 338.348494 -217.750745 
L 332.63907 -176.543928 
L 325.886255 -167.409546 
L 317.621478 -106.593989 
L 312.67575 -106.44553 
L 306.966326 -107.501486 
L 300.213511 -98.914409 
L 291.948733 -98.058132 
L 287.003005 -97.809043 
L 281.293582 -97.232011 
L 274.540767 -97.714814 
L 266.275989 -96.378957 
L 261.330261 -95.854399 
L 255.620837 -95.326555 
L 248.868022 -95.686767 
L 240.603245 -93.52182 
L 235.657517 -92.535989 
L 229.948093 -92.412492 
L 223.195278 -89.670025 
L 214.9305 -87.419822 
L 209.984772 -85.348106 
L 204.275349 -83.287353 
L 197.522534 -79.119157 
L 189.257756 -55.887682 
L 184.312028 -55.83531 
L 178.602604 -55.785471 
L 171.849789 -55.776859 
L 163.585012 -55.747213 
L 158.639284 -55.744762 
L 152.92986 -55.740843 
L 146.177045 -55.743098 
L 137.912267 -55.721832 
L 132.966539 -56.941129 
L 127.257116 -55.724643 
L 120.5043 -55.72373 
L 112.239523 -43.636256 
L 107.293795 -43.634705 
L 101.584371 -43.632304 
L 94.831556 -43.693331 
L 86.566778 -43.620247 
L 81.621051 -43.625915 
L 75.911627 -43.621758 
L 69.158812 -43.623654 
L 60.894034 -43.620568 
z
" style="stroke: #000000; stroke-opacity: 0.2"/>
    </defs>
    <g clip-path="url(#p2b0ee9aed4)">
     <use xlink:href="#m2ddbf099bc" x="0" y="392.514375" style="fill-opacity: 0.2; stroke: #000000; stroke-opacity: 0.2"/>
    </g>
   </g>
   <g id="PolyCollection_2">
    <defs>
     <path id="m3481d634c1" d="M 60.894034 -43.62407 
L 60.894034 -43.610685 
L 69.158812 -43.610852 
L 75.911627 -43.614926 
L 81.621051 -43.615944 
L 86.566778 -43.613826 
L 94.831556 -43.619171 
L 101.584371 -43.624463 
L 107.293795 -43.623303 
L 112.239523 -43.625545 
L 120.5043 -55.707217 
L 127.257116 -55.70395 
L 132.966539 -55.707852 
L 137.912267 -55.710852 
L 146.177045 -55.720269 
L 152.92986 -55.732595 
L 158.639284 -55.716896 
L 163.585012 -55.724717 
L 171.849789 -55.751973 
L 178.602604 -55.759808 
L 184.312028 -55.819951 
L 189.257756 -55.87345 
L 197.522534 -80.259445 
L 204.275349 -84.519933 
L 209.984772 -86.628115 
L 214.9305 -88.32512 
L 223.195278 -91.162096 
L 229.948093 -93.165067 
L 235.657517 -94.015144 
L 240.603245 -95.072341 
L 248.868022 -96.479198 
L 255.620837 -97.070201 
L 261.330261 -97.607615 
L 266.275989 -98.045482 
L 274.540767 -98.67824 
L 281.293582 -99.226291 
L 287.003005 -99.770476 
L 291.948733 -99.966108 
L 300.213511 -100.194714 
L 306.966326 -99.94319 
L 312.67575 -100.032517 
L 317.621478 -100.060192 
L 325.886255 -113.660767 
L 332.63907 -131.033236 
L 338.348494 -204.836845 
L 343.294222 -238.108219 
L 351.559 -270.886389 
L 358.311815 -295.647662 
L 364.021238 -310.773633 
L 368.966966 -319.344554 
L 377.231744 -326.518566 
L 383.984559 -327.635595 
L 389.693983 -329.551059 
L 394.639711 -329.790693 
L 402.904488 -333.203686 
L 409.657303 -335.674962 
L 415.366727 -337.624217 
L 420.312455 -339.999389 
L 428.577233 -341.969217 
L 435.330048 -345.10617 
L 441.039472 -346.976015 
L 445.985199 -347.983822 
L 454.249977 -348.653152 
L 461.002792 -349.546568 
L 466.712216 -350.192963 
L 466.712216 -350.304757 
L 466.712216 -350.304757 
L 461.002792 -350.374666 
L 454.249977 -349.225764 
L 445.985199 -348.650191 
L 441.039472 -347.758404 
L 435.330048 -345.796938 
L 428.577233 -342.38325 
L 420.312455 -341.557419 
L 415.366727 -338.16711 
L 409.657303 -336.406395 
L 402.904488 -334.27914 
L 394.639711 -331.119992 
L 389.693983 -330.365425 
L 383.984559 -329.435806 
L 377.231744 -327.155097 
L 368.966966 -320.546383 
L 364.021238 -312.229106 
L 358.311815 -296.342231 
L 351.559 -286.490839 
L 343.294222 -263.46256 
L 338.348494 -219.843096 
L 332.63907 -185.346996 
L 325.886255 -116.351632 
L 317.621478 -102.77067 
L 312.67575 -102.247564 
L 306.966326 -101.520377 
L 300.213511 -102.134186 
L 291.948733 -100.026575 
L 287.003005 -100.957843 
L 281.293582 -99.604267 
L 274.540767 -99.010099 
L 266.275989 -99.475912 
L 261.330261 -97.862276 
L 255.620837 -97.185093 
L 248.868022 -96.581992 
L 240.603245 -95.121759 
L 235.657517 -94.058937 
L 229.948093 -93.280791 
L 223.195278 -91.337105 
L 214.9305 -88.429217 
L 209.984772 -87.849145 
L 204.275349 -84.595147 
L 197.522534 -80.36766 
L 189.257756 -57.07974 
L 184.312028 -55.840195 
L 178.602604 -55.794991 
L 171.849789 -55.847619 
L 163.585012 -55.755639 
L 158.639284 -55.750319 
L 152.92986 -55.738728 
L 146.177045 -55.727794 
L 137.912267 -55.718864 
L 132.966539 -55.712407 
L 127.257116 -55.71315 
L 120.5043 -55.723491 
L 112.239523 -43.640902 
L 107.293795 -43.633546 
L 101.584371 -43.630145 
L 94.831556 -43.623686 
L 86.566778 -44.87451 
L 81.621051 -43.619262 
L 75.911627 -43.732894 
L 69.158812 -43.61909 
L 60.894034 -43.62407 
z
" style="stroke: #bcbd22; stroke-opacity: 0.2"/>
    </defs>
    <g clip-path="url(#p2b0ee9aed4)">
     <use xlink:href="#m3481d634c1" x="0" y="392.514375" style="fill: #bcbd22; fill-opacity: 0.2; stroke: #bcbd22; stroke-opacity: 0.2"/>
    </g>
   </g>
   <g id="PolyCollection_3">
    <defs>
     <path id="m04a17e25ab" d="M 60.894034 -40.60534 
L 60.894034 -40.593108 
L 69.158812 -40.577755 
L 75.911627 -40.577911 
L 81.621051 -40.594464 
L 86.566778 -40.57724 
L 94.831556 -40.580148 
L 101.584371 -40.577701 
L 107.293795 -40.599219 
L 112.239523 -40.577501 
L 120.5043 -46.898069 
L 127.257116 -47.065652 
L 132.966539 -47.05656 
L 137.912267 -46.962354 
L 146.177045 -47.072651 
L 152.92986 -47.194755 
L 158.639284 -47.153987 
L 163.585012 -47.199724 
L 171.849789 -47.209936 
L 178.602604 -47.07201 
L 184.312028 -47.202297 
L 189.257756 -47.015639 
L 197.522534 -59.35583 
L 204.275349 -61.463752 
L 209.984772 -62.524724 
L 214.9305 -63.473191 
L 223.195278 -64.777325 
L 229.948093 -65.764842 
L 235.657517 -66.379497 
L 240.603245 -66.872026 
L 248.868022 -67.415145 
L 255.620837 -67.882287 
L 261.330261 -68.118887 
L 266.275989 -68.290468 
L 274.540767 -68.686353 
L 281.293582 -68.777455 
L 287.003005 -69.05666 
L 291.948733 -69.240896 
L 300.213511 -69.757952 
L 306.966326 -70.163137 
L 312.67575 -70.533865 
L 317.621478 -70.712929 
L 325.886255 -76.047875 
L 332.63907 -85.735193 
L 338.348494 -122.956128 
L 343.294222 -144.561411 
L 351.559 -152.182208 
L 358.311815 -164.00577 
L 364.021238 -169.848233 
L 368.966966 -172.024486 
L 377.231744 -179.949319 
L 383.984559 -180.132963 
L 389.693983 -181.528101 
L 394.639711 -181.883241 
L 402.904488 -183.872133 
L 409.657303 -185.393461 
L 415.366727 -186.130644 
L 420.312455 -187.308934 
L 428.577233 -188.856864 
L 435.330048 -189.755578 
L 441.039472 -190.471332 
L 445.985199 -191.104427 
L 454.249977 -191.884885 
L 461.002792 -192.451154 
L 466.712216 -192.743737 
L 466.712216 -193.010655 
L 466.712216 -193.010655 
L 461.002792 -193.482074 
L 454.249977 -192.73879 
L 445.985199 -191.283089 
L 441.039472 -190.5501 
L 435.330048 -190.589484 
L 428.577233 -189.66234 
L 420.312455 -187.397035 
L 415.366727 -186.787335 
L 409.657303 -186.293117 
L 402.904488 -184.527721 
L 394.639711 -183.59585 
L 389.693983 -182.441693 
L 383.984559 -182.032324 
L 377.231744 -180.492266 
L 368.966966 -177.021432 
L 364.021238 -174.627237 
L 358.311815 -166.714774 
L 351.559 -160.892011 
L 343.294222 -149.288096 
L 338.348494 -151.52446 
L 332.63907 -147.686164 
L 325.886255 -135.808247 
L 317.621478 -104.794767 
L 312.67575 -89.97405 
L 306.966326 -75.782596 
L 300.213511 -70.089985 
L 291.948733 -69.45575 
L 287.003005 -69.132884 
L 281.293582 -68.813263 
L 274.540767 -69.798447 
L 266.275989 -68.383899 
L 261.330261 -69.337845 
L 255.620837 -67.897579 
L 248.868022 -67.551868 
L 240.603245 -66.905377 
L 235.657517 -66.438199 
L 229.948093 -65.798074 
L 223.195278 -64.796525 
L 214.9305 -63.542277 
L 209.984772 -62.582965 
L 204.275349 -61.511563 
L 197.522534 -59.362118 
L 189.257756 -47.082551 
L 184.312028 -47.231563 
L 178.602604 -47.156752 
L 171.849789 -47.489745 
L 163.585012 -47.284743 
L 158.639284 -47.371318 
L 152.92986 -47.302971 
L 146.177045 -47.154461 
L 137.912267 -47.286312 
L 132.966539 -47.174824 
L 127.257116 -47.132488 
L 120.5043 -46.939245 
L 112.239523 -40.580352 
L 107.293795 -40.607295 
L 101.584371 -40.586666 
L 94.831556 -40.603126 
L 86.566778 -40.589219 
L 81.621051 -40.601699 
L 75.911627 -40.594774 
L 69.158812 -40.594019 
L 60.894034 -40.60534 
z
" style="stroke: #17becf; stroke-opacity: 0.2"/>
    </defs>
    <g clip-path="url(#p2b0ee9aed4)">
     <use xlink:href="#m04a17e25ab" x="0" y="392.514375" style="fill: #17becf; fill-opacity: 0.2; stroke: #17becf; stroke-opacity: 0.2"/>
    </g>
   </g>
   <g id="PolyCollection_4">
    <defs>
     <path id="m86a313d4bb" d="M 60.894034 -39.093653 
L 60.894034 -39.077726 
L 69.158812 -39.069621 
L 75.911627 -39.067525 
L 81.621051 -39.066729 
L 86.566778 -39.067133 
L 94.831556 -39.068969 
L 101.584371 -39.066896 
L 107.293795 -39.068143 
L 112.239523 -39.067104 
L 120.5043 -42.653036 
L 127.257116 -42.735163 
L 132.966539 -42.712177 
L 137.912267 -42.440587 
L 146.177045 -42.881055 
L 152.92986 -42.84539 
L 158.639284 -42.807349 
L 163.585012 -42.798595 
L 171.849789 -42.884272 
L 178.602604 -42.835777 
L 184.312028 -42.807406 
L 189.257756 -42.737733 
L 197.522534 -49.008147 
L 204.275349 -50.079991 
L 209.984772 -50.574606 
L 214.9305 -51.183448 
L 223.195278 -51.855059 
L 229.948093 -52.310421 
L 235.657517 -52.661193 
L 240.603245 -52.922845 
L 248.868022 -53.239944 
L 255.620837 -53.388157 
L 261.330261 -53.540299 
L 266.275989 -53.587767 
L 274.540767 -53.771466 
L 281.293582 -53.831589 
L 287.003005 -53.93115 
L 291.948733 -53.960401 
L 300.213511 -54.204837 
L 306.966326 -54.505314 
L 312.67575 -54.787436 
L 317.621478 -54.9563 
L 325.886255 -57.995498 
L 332.63907 -64.143276 
L 338.348494 -79.920865 
L 343.294222 -88.109671 
L 351.559 -97.176289 
L 358.311815 -101.102922 
L 364.021238 -103.86476 
L 368.966966 -107.614183 
L 377.231744 -109.16735 
L 383.984559 -109.256398 
L 389.693983 -109.466987 
L 394.639711 -109.751244 
L 402.904488 -110.738009 
L 409.657303 -111.534532 
L 415.366727 -111.955858 
L 420.312455 -112.503862 
L 428.577233 -113.289272 
L 435.330048 -113.817761 
L 441.039472 -114.106302 
L 445.985199 -114.422409 
L 454.249977 -114.824829 
L 461.002792 -115.068302 
L 466.712216 -115.230842 
L 466.712216 -115.258109 
L 466.712216 -115.258109 
L 461.002792 -115.08671 
L 454.249977 -115.675945 
L 445.985199 -114.463444 
L 441.039472 -114.1469 
L 435.330048 -114.575841 
L 428.577233 -113.759736 
L 420.312455 -113.310053 
L 415.366727 -112.027635 
L 409.657303 -111.858919 
L 402.904488 -111.098712 
L 394.639711 -110.712081 
L 389.693983 -109.820174 
L 383.984559 -109.31679 
L 377.231744 -109.273803 
L 368.966966 -107.667607 
L 364.021238 -105.99005 
L 358.311815 -102.361838 
L 351.559 -100.383157 
L 343.294222 -91.83545 
L 338.348494 -95.418899 
L 332.63907 -93.367393 
L 325.886255 -87.558766 
L 317.621478 -71.557959 
L 312.67575 -65.111246 
L 306.966326 -57.727167 
L 300.213511 -54.600111 
L 291.948733 -54.06615 
L 287.003005 -53.938281 
L 281.293582 -53.841207 
L 274.540767 -53.844994 
L 266.275989 -53.60097 
L 261.330261 -54.751428 
L 255.620837 -53.450247 
L 248.868022 -53.309012 
L 240.603245 -52.925434 
L 235.657517 -52.670507 
L 229.948093 -52.317612 
L 223.195278 -51.861164 
L 214.9305 -51.202293 
L 209.984772 -50.587836 
L 204.275349 -50.090405 
L 197.522534 -49.08575 
L 189.257756 -42.754209 
L 184.312028 -42.859105 
L 178.602604 -42.906323 
L 171.849789 -42.958027 
L 163.585012 -42.892435 
L 158.639284 -42.933776 
L 152.92986 -44.333983 
L 146.177045 -42.945156 
L 137.912267 -42.891063 
L 132.966539 -42.868742 
L 127.257116 -42.862049 
L 120.5043 -42.833954 
L 112.239523 -39.071305 
L 107.293795 -39.101621 
L 101.584371 -39.097908 
L 94.831556 -39.072 
L 86.566778 -39.069339 
L 81.621051 -39.087913 
L 75.911627 -39.068345 
L 69.158812 -39.083144 
L 60.894034 -39.093653 
z
" style="stroke: #ff7f0e; stroke-opacity: 0.2"/>
    </defs>
    <g clip-path="url(#p2b0ee9aed4)">
     <use xlink:href="#m86a313d4bb" x="0" y="392.514375" style="fill: #ff7f0e; fill-opacity: 0.2; stroke: #ff7f0e; stroke-opacity: 0.2"/>
    </g>
   </g>
   <g id="PolyCollection_5">
    <defs>
     <path id="mb97a080e83" d="M 60.894034 -38.329218 
L 60.894034 -38.325264 
L 69.158812 -38.312433 
L 75.911627 -38.311194 
L 81.621051 -38.311316 
L 86.566778 -38.310619 
L 94.831556 -38.312859 
L 101.584371 -38.310646 
L 107.293795 -38.310672 
L 112.239523 -38.310714 
L 120.5043 -40.600684 
L 127.257116 -40.753585 
L 132.966539 -40.947972 
L 137.912267 -40.45284 
L 146.177045 -40.93045 
L 152.92986 -40.807568 
L 158.639284 -40.949412 
L 163.585012 -40.833857 
L 171.849789 -40.92655 
L 178.602604 -40.82795 
L 184.312028 -40.807795 
L 189.257756 -40.676879 
L 197.522534 -43.933892 
L 204.275349 -44.699861 
L 209.984772 -45.050186 
L 214.9305 -45.348313 
L 223.195278 -45.68209 
L 229.948093 -45.923013 
L 235.657517 -46.039547 
L 240.603245 -46.146907 
L 248.868022 -46.27744 
L 255.620837 -46.353415 
L 261.330261 -46.410631 
L 266.275989 -46.442627 
L 274.540767 -46.511535 
L 281.293582 -46.538 
L 287.003005 -46.575852 
L 291.948733 -46.59095 
L 300.213511 -46.666155 
L 306.966326 -46.998931 
L 312.67575 -47.173808 
L 317.621478 -47.299014 
L 325.886255 -49.930694 
L 332.63907 -53.623 
L 338.348494 -63.386855 
L 343.294222 -66.920061 
L 351.559 -67.339252 
L 358.311815 -68.4543 
L 364.021238 -68.766684 
L 368.966966 -69.179607 
L 377.231744 -70.595361 
L 383.984559 -71.530605 
L 389.693983 -72.193893 
L 394.639711 -72.69649 
L 402.904488 -73.844962 
L 409.657303 -74.549404 
L 415.366727 -75.045227 
L 420.312455 -75.442126 
L 428.577233 -75.980298 
L 435.330048 -76.303088 
L 441.039472 -76.555819 
L 445.985199 -76.733374 
L 454.249977 -76.99398 
L 461.002792 -77.130636 
L 466.712216 -77.256705 
L 466.712216 -77.26622 
L 466.712216 -77.26622 
L 461.002792 -77.985027 
L 454.249977 -77.020012 
L 445.985199 -76.766441 
L 441.039472 -76.709755 
L 435.330048 -77.150678 
L 428.577233 -75.998894 
L 420.312455 -75.836815 
L 415.366727 -75.076922 
L 409.657303 -74.574993 
L 402.904488 -73.878642 
L 394.639711 -73.26265 
L 389.693983 -73.563407 
L 383.984559 -72.334694 
L 377.231744 -70.662847 
L 368.966966 -69.568136 
L 364.021238 -69.077033 
L 358.311815 -70.150872 
L 351.559 -72.342953 
L 343.294222 -69.474985 
L 338.348494 -67.985679 
L 332.63907 -68.780162 
L 325.886255 -66.509205 
L 317.621478 -57.443065 
L 312.67575 -54.959128 
L 306.966326 -50.338574 
L 300.213511 -47.043483 
L 291.948733 -46.604255 
L 287.003005 -46.633944 
L 281.293582 -46.543108 
L 274.540767 -46.529399 
L 266.275989 -46.460927 
L 261.330261 -46.439362 
L 255.620837 -46.357688 
L 248.868022 -46.296796 
L 240.603245 -46.154276 
L 235.657517 -46.04586 
L 229.948093 -45.945964 
L 223.195278 -45.687782 
L 214.9305 -45.35154 
L 209.984772 -45.058622 
L 204.275349 -44.706595 
L 197.522534 -45.268896 
L 189.257756 -40.689724 
L 184.312028 -40.858708 
L 178.602604 -40.90412 
L 171.849789 -41.050162 
L 163.585012 -41.007818 
L 158.639284 -41.070708 
L 152.92986 -40.911351 
L 146.177045 -41.123549 
L 137.912267 -40.902235 
L 132.966539 -41.155573 
L 127.257116 -41.141942 
L 120.5043 -40.823773 
L 112.239523 -38.321977 
L 107.293795 -38.312823 
L 101.584371 -38.316157 
L 94.831556 -38.313869 
L 86.566778 -38.312745 
L 81.621051 -38.312924 
L 75.911627 -38.323294 
L 69.158812 -38.326905 
L 60.894034 -38.329218 
z
" style="stroke: #2ca02c; stroke-opacity: 0.2"/>
    </defs>
    <g clip-path="url(#p2b0ee9aed4)">
     <use xlink:href="#mb97a080e83" x="0" y="392.514375" style="fill: #2ca02c; fill-opacity: 0.2; stroke: #2ca02c; stroke-opacity: 0.2"/>
    </g>
   </g>
   <g id="PolyCollection_6">
    <defs>
     <path id="mc3be4a8caa" d="M 60.894034 -38.497446 
L 60.894034 -38.495201 
L 69.158812 -38.489277 
L 75.911627 -38.483907 
L 81.621051 -38.483648 
L 86.566778 -38.485633 
L 94.831556 -38.483688 
L 101.584371 -38.485581 
L 107.293795 -38.483716 
L 112.239523 -38.498208 
L 120.5043 -40.47186 
L 127.257116 -40.198175 
L 132.966539 -40.668764 
L 137.912267 -40.463578 
L 146.177045 -40.600334 
L 152.92986 -40.528724 
L 158.639284 -40.582874 
L 163.585012 -40.484089 
L 171.849789 -40.583596 
L 178.602604 -40.427396 
L 184.312028 -40.46977 
L 189.257756 -40.327288 
L 197.522534 -42.468891 
L 204.275349 -43.394953 
L 209.984772 -43.731462 
L 214.9305 -43.947516 
L 223.195278 -44.20757 
L 229.948093 -44.350747 
L 235.657517 -44.462756 
L 240.603245 -44.531201 
L 248.868022 -44.621269 
L 255.620837 -44.677385 
L 261.330261 -44.713519 
L 266.275989 -44.746587 
L 274.540767 -44.779932 
L 281.293582 -44.797137 
L 287.003005 -44.820883 
L 291.948733 -44.835138 
L 300.213511 -44.876761 
L 306.966326 -44.980655 
L 312.67575 -45.294382 
L 317.621478 -45.488256 
L 325.886255 -47.630279 
L 332.63907 -52.893168 
L 338.348494 -53.182713 
L 343.294222 -54.777012 
L 351.559 -56.70422 
L 358.311815 -58.475936 
L 364.021238 -59.778676 
L 368.966966 -60.821874 
L 377.231744 -62.297736 
L 383.984559 -63.293242 
L 389.693983 -63.993828 
L 394.639711 -64.536617 
L 402.904488 -65.211406 
L 409.657303 -65.681331 
L 415.366727 -65.98392 
L 420.312455 -66.245252 
L 428.577233 -66.646189 
L 435.330048 -66.824203 
L 441.039472 -66.983041 
L 445.985199 -67.078985 
L 454.249977 -67.245007 
L 461.002792 -67.327496 
L 466.712216 -67.407024 
L 466.712216 -67.436212 
L 466.712216 -67.436212 
L 461.002792 -67.348192 
L 454.249977 -68.419561 
L 445.985199 -67.11374 
L 441.039472 -66.993374 
L 435.330048 -66.863845 
L 428.577233 -67.528343 
L 420.312455 -66.2544 
L 415.366727 -66.064079 
L 409.657303 -65.701801 
L 402.904488 -65.239328 
L 394.639711 -65.695487 
L 389.693983 -64.900478 
L 383.984559 -63.349531 
L 377.231744 -62.34441 
L 368.966966 -60.99636 
L 364.021238 -59.861298 
L 358.311815 -58.737888 
L 351.559 -57.453298 
L 343.294222 -54.936327 
L 338.348494 -53.427959 
L 332.63907 -54.008077 
L 325.886255 -53.816115 
L 317.621478 -47.825893 
L 312.67575 -48.068559 
L 306.966326 -48.321666 
L 300.213511 -45.171243 
L 291.948733 -44.857378 
L 287.003005 -44.831821 
L 281.293582 -44.810661 
L 274.540767 -44.78397 
L 266.275989 -44.761574 
L 261.330261 -44.723946 
L 255.620837 -44.79237 
L 248.868022 -44.741937 
L 240.603245 -44.53417 
L 235.657517 -44.572946 
L 229.948093 -44.366622 
L 223.195278 -44.212523 
L 214.9305 -43.962051 
L 209.984772 -44.947875 
L 204.275349 -43.402894 
L 197.522534 -42.471892 
L 189.257756 -40.341366 
L 184.312028 -40.515907 
L 178.602604 -40.602223 
L 171.849789 -40.742193 
L 163.585012 -40.774673 
L 158.639284 -40.803302 
L 152.92986 -40.718895 
L 146.177045 -40.812626 
L 137.912267 -40.659245 
L 132.966539 -40.85338 
L 127.257116 -40.465093 
L 120.5043 -40.840216 
L 112.239523 -38.500287 
L 107.293795 -38.486879 
L 101.584371 -38.485862 
L 94.831556 -38.48558 
L 86.566778 -38.486338 
L 81.621051 -38.486534 
L 75.911627 -38.487693 
L 69.158812 -38.500732 
L 60.894034 -38.497446 
z
" style="stroke: #7f7f7f; stroke-opacity: 0.2"/>
    </defs>
    <g clip-path="url(#p2b0ee9aed4)">
     <use xlink:href="#mc3be4a8caa" x="0" y="392.514375" style="fill: #7f7f7f; fill-opacity: 0.2; stroke: #7f7f7f; stroke-opacity: 0.2"/>
    </g>
   </g>
   <g id="PolyCollection_7">
    <defs>
     <path id="m527fda8883" d="M 60.894034 -38.924286 
L 60.894034 -38.912902 
L 69.158812 -38.891083 
L 75.911627 -38.893225 
L 81.621051 -38.887983 
L 86.566778 -38.895761 
L 94.831556 -38.889509 
L 101.584371 -38.892098 
L 107.293795 -38.927045 
L 112.239523 -38.961602 
L 120.5043 -40.198826 
L 127.257116 -40.659574 
L 132.966539 -40.422113 
L 137.912267 -40.655204 
L 146.177045 -40.278606 
L 152.92986 -40.700088 
L 158.639284 -40.499482 
L 163.585012 -40.629596 
L 171.849789 -40.49757 
L 178.602604 -40.484377 
L 184.312028 -40.411852 
L 189.257756 -40.376288 
L 197.522534 -42.42972 
L 204.275349 -43.383445 
L 209.984772 -43.750188 
L 214.9305 -43.962675 
L 223.195278 -44.207318 
L 229.948093 -44.383555 
L 235.657517 -44.480744 
L 240.603245 -44.554692 
L 248.868022 -44.649136 
L 255.620837 -44.699424 
L 261.330261 -44.730911 
L 266.275989 -44.75267 
L 274.540767 -44.793619 
L 281.293582 -44.813061 
L 287.003005 -44.83377 
L 291.948733 -44.847562 
L 300.213511 -44.966162 
L 306.966326 -45.160636 
L 312.67575 -45.315267 
L 317.621478 -45.537312 
L 325.886255 -47.908499 
L 332.63907 -53.092252 
L 338.348494 -53.034352 
L 343.294222 -54.178279 
L 351.559 -56.723452 
L 358.311815 -58.551889 
L 364.021238 -59.824908 
L 368.966966 -60.916014 
L 377.231744 -62.383772 
L 383.984559 -63.343431 
L 389.693983 -64.003279 
L 394.639711 -64.515881 
L 402.904488 -65.195227 
L 409.657303 -65.706675 
L 415.366727 -66.023806 
L 420.312455 -66.245328 
L 428.577233 -66.617927 
L 435.330048 -66.795079 
L 441.039472 -66.931407 
L 445.985199 -67.085562 
L 454.249977 -67.252749 
L 461.002792 -67.339384 
L 466.712216 -67.372 
L 466.712216 -67.401311 
L 466.712216 -67.401311 
L 461.002792 -67.35581 
L 454.249977 -67.269507 
L 445.985199 -67.103064 
L 441.039472 -67.857086 
L 435.330048 -66.838101 
L 428.577233 -66.642703 
L 420.312455 -66.259879 
L 415.366727 -66.811051 
L 409.657303 -66.620978 
L 402.904488 -65.303679 
L 394.639711 -65.49876 
L 389.693983 -64.080789 
L 383.984559 -63.349783 
L 377.231744 -62.442941 
L 368.966966 -60.984294 
L 364.021238 -59.923057 
L 358.311815 -58.625972 
L 351.559 -56.87661 
L 343.294222 -54.677403 
L 338.348494 -54.765708 
L 332.63907 -55.419056 
L 325.886255 -54.149172 
L 317.621478 -52.630815 
L 312.67575 -51.196363 
L 306.966326 -48.684142 
L 300.213511 -45.213217 
L 291.948733 -44.881825 
L 287.003005 -44.844599 
L 281.293582 -44.888627 
L 274.540767 -44.80009 
L 266.275989 -44.763951 
L 261.330261 -44.736059 
L 255.620837 -44.70449 
L 248.868022 -44.652226 
L 240.603245 -44.619552 
L 235.657517 -44.487746 
L 229.948093 -44.493493 
L 223.195278 -44.321418 
L 214.9305 -44.080516 
L 209.984772 -43.859997 
L 204.275349 -43.488131 
L 197.522534 -42.540427 
L 189.257756 -40.437967 
L 184.312028 -40.517599 
L 178.602604 -40.572087 
L 171.849789 -40.703429 
L 163.585012 -40.814211 
L 158.639284 -40.78206 
L 152.92986 -40.820336 
L 146.177045 -40.389461 
L 137.912267 -40.837795 
L 132.966539 -40.542735 
L 127.257116 -40.939011 
L 120.5043 -40.759425 
L 112.239523 -38.965947 
L 107.293795 -38.935741 
L 101.584371 -38.900813 
L 94.831556 -38.896444 
L 86.566778 -38.896344 
L 81.621051 -38.89135 
L 75.911627 -38.898694 
L 69.158812 -38.90261 
L 60.894034 -38.924286 
z
" style="stroke: #1f77b4; stroke-opacity: 0.2"/>
    </defs>
    <g clip-path="url(#p2b0ee9aed4)">
     <use xlink:href="#m527fda8883" x="0" y="392.514375" style="fill: #1f77b4; fill-opacity: 0.2; stroke: #1f77b4; stroke-opacity: 0.2"/>
    </g>
   </g>
   <g id="matplotlib.axis_1">
    <g id="xtick_1">
     <g id="line2d_4">
      <path d="M 86.566778 354.958125 
L 86.566778 22.318125 
" clip-path="url(#p2b0ee9aed4)" style="fill: none; stroke: #b0b0b0; stroke-opacity: 0.4; stroke-width: 0.8; stroke-linecap: square"/>
     </g>
     <g id="line2d_5">
      <defs>
       <path id="m2767a8c210" d="M 0 0 
L 0 3.5 
" style="stroke: #000000; stroke-width: 0.8"/>
      </defs>
      <g>
       <use xlink:href="#m2767a8c210" x="86.566778" y="354.958125" style="stroke: #000000; stroke-width: 0.8"/>
      </g>
     </g>
     <g id="text_1">
      <!-- $\mathdefault{2^{14}}$ -->
      <g transform="translate(78.716778 369.556562) scale(0.1 -0.1)">
       <defs>
        <path id="DejaVuSans-32" d="M 1228 531 
L 3431 531 
L 3431 0 
L 469 0 
L 469 531 
Q 828 903 1448 1529 
Q 2069 2156 2228 2338 
Q 2531 2678 2651 2914 
Q 2772 3150 2772 3378 
Q 2772 3750 2511 3984 
Q 2250 4219 1831 4219 
Q 1534 4219 1204 4116 
Q 875 4013 500 3803 
L 500 4441 
Q 881 4594 1212 4672 
Q 1544 4750 1819 4750 
Q 2544 4750 2975 4387 
Q 3406 4025 3406 3419 
Q 3406 3131 3298 2873 
Q 3191 2616 2906 2266 
Q 2828 2175 2409 1742 
Q 1991 1309 1228 531 
z
" transform="scale(0.015625)"/>
        <path id="DejaVuSans-31" d="M 794 531 
L 1825 531 
L 1825 4091 
L 703 3866 
L 703 4441 
L 1819 4666 
L 2450 4666 
L 2450 531 
L 3481 531 
L 3481 0 
L 794 0 
L 794 531 
z
" transform="scale(0.015625)"/>
        <path id="DejaVuSans-34" d="M 2419 4116 
L 825 1625 
L 2419 1625 
L 2419 4116 
z
M 2253 4666 
L 3047 4666 
L 3047 1625 
L 3713 1625 
L 3713 1100 
L 3047 1100 
L 3047 0 
L 2419 0 
L 2419 1100 
L 313 1100 
L 313 1709 
L 2253 4666 
z
" transform="scale(0.015625)"/>
       </defs>
       <use xlink:href="#DejaVuSans-32" transform="translate(0 0.684375)"/>
       <use xlink:href="#DejaVuSans-31" transform="translate(64.580078 38.965625) scale(0.7)"/>
       <use xlink:href="#DejaVuSans-34" transform="translate(109.116211 38.965625) scale(0.7)"/>
      </g>
     </g>
    </g>
    <g id="xtick_2">
     <g id="line2d_6">
      <path d="M 137.912267 354.958125 
L 137.912267 22.318125 
" clip-path="url(#p2b0ee9aed4)" style="fill: none; stroke: #b0b0b0; stroke-opacity: 0.4; stroke-width: 0.8; stroke-linecap: square"/>
     </g>
     <g id="line2d_7">
      <g>
       <use xlink:href="#m2767a8c210" x="137.912267" y="354.958125" style="stroke: #000000; stroke-width: 0.8"/>
      </g>
     </g>
     <g id="text_2">
      <!-- $\mathdefault{2^{16}}$ -->
      <g transform="translate(130.062267 369.556562) scale(0.1 -0.1)">
       <defs>
        <path id="DejaVuSans-36" d="M 2113 2584 
Q 1688 2584 1439 2293 
Q 1191 2003 1191 1497 
Q 1191 994 1439 701 
Q 1688 409 2113 409 
Q 2538 409 2786 701 
Q 3034 994 3034 1497 
Q 3034 2003 2786 2293 
Q 2538 2584 2113 2584 
z
M 3366 4563 
L 3366 3988 
Q 3128 4100 2886 4159 
Q 2644 4219 2406 4219 
Q 1781 4219 1451 3797 
Q 1122 3375 1075 2522 
Q 1259 2794 1537 2939 
Q 1816 3084 2150 3084 
Q 2853 3084 3261 2657 
Q 3669 2231 3669 1497 
Q 3669 778 3244 343 
Q 2819 -91 2113 -91 
Q 1303 -91 875 529 
Q 447 1150 447 2328 
Q 447 3434 972 4092 
Q 1497 4750 2381 4750 
Q 2619 4750 2861 4703 
Q 3103 4656 3366 4563 
z
" transform="scale(0.015625)"/>
       </defs>
       <use xlink:href="#DejaVuSans-32" transform="translate(0 0.765625)"/>
       <use xlink:href="#DejaVuSans-31" transform="translate(64.580078 39.046875) scale(0.7)"/>
       <use xlink:href="#DejaVuSans-36" transform="translate(109.116211 39.046875) scale(0.7)"/>
      </g>
     </g>
    </g>
    <g id="xtick_3">
     <g id="line2d_8">
      <path d="M 189.257756 354.958125 
L 189.257756 22.318125 
" clip-path="url(#p2b0ee9aed4)" style="fill: none; stroke: #b0b0b0; stroke-opacity: 0.4; stroke-width: 0.8; stroke-linecap: square"/>
     </g>
     <g id="line2d_9">
      <g>
       <use xlink:href="#m2767a8c210" x="189.257756" y="354.958125" style="stroke: #000000; stroke-width: 0.8"/>
      </g>
     </g>
     <g id="text_3">
      <!-- $\mathdefault{2^{18}}$ -->
      <g transform="translate(181.407756 369.556562) scale(0.1 -0.1)">
       <defs>
        <path id="DejaVuSans-38" d="M 2034 2216 
Q 1584 2216 1326 1975 
Q 1069 1734 1069 1313 
Q 1069 891 1326 650 
Q 1584 409 2034 409 
Q 2484 409 2743 651 
Q 3003 894 3003 1313 
Q 3003 1734 2745 1975 
Q 2488 2216 2034 2216 
z
M 1403 2484 
Q 997 2584 770 2862 
Q 544 3141 544 3541 
Q 544 4100 942 4425 
Q 1341 4750 2034 4750 
Q 2731 4750 3128 4425 
Q 3525 4100 3525 3541 
Q 3525 3141 3298 2862 
Q 3072 2584 2669 2484 
Q 3125 2378 3379 2068 
Q 3634 1759 3634 1313 
Q 3634 634 3220 271 
Q 2806 -91 2034 -91 
Q 1263 -91 848 271 
Q 434 634 434 1313 
Q 434 1759 690 2068 
Q 947 2378 1403 2484 
z
M 1172 3481 
Q 1172 3119 1398 2916 
Q 1625 2713 2034 2713 
Q 2441 2713 2670 2916 
Q 2900 3119 2900 3481 
Q 2900 3844 2670 4047 
Q 2441 4250 2034 4250 
Q 1625 4250 1398 4047 
Q 1172 3844 1172 3481 
z
" transform="scale(0.015625)"/>
       </defs>
       <use xlink:href="#DejaVuSans-32" transform="translate(0 0.765625)"/>
       <use xlink:href="#DejaVuSans-31" transform="translate(64.580078 39.046875) scale(0.7)"/>
       <use xlink:href="#DejaVuSans-38" transform="translate(109.116211 39.046875) scale(0.7)"/>
      </g>
     </g>
    </g>
    <g id="xtick_4">
     <g id="line2d_10">
      <path d="M 240.603245 354.958125 
L 240.603245 22.318125 
" clip-path="url(#p2b0ee9aed4)" style="fill: none; stroke: #b0b0b0; stroke-opacity: 0.4; stroke-width: 0.8; stroke-linecap: square"/>
     </g>
     <g id="line2d_11">
      <g>
       <use xlink:href="#m2767a8c210" x="240.603245" y="354.958125" style="stroke: #000000; stroke-width: 0.8"/>
      </g>
     </g>
     <g id="text_4">
      <!-- $\mathdefault{2^{20}}$ -->
      <g transform="translate(232.753245 369.556562) scale(0.1 -0.1)">
       <defs>
        <path id="DejaVuSans-30" d="M 2034 4250 
Q 1547 4250 1301 3770 
Q 1056 3291 1056 2328 
Q 1056 1369 1301 889 
Q 1547 409 2034 409 
Q 2525 409 2770 889 
Q 3016 1369 3016 2328 
Q 3016 3291 2770 3770 
Q 2525 4250 2034 4250 
z
M 2034 4750 
Q 2819 4750 3233 4129 
Q 3647 3509 3647 2328 
Q 3647 1150 3233 529 
Q 2819 -91 2034 -91 
Q 1250 -91 836 529 
Q 422 1150 422 2328 
Q 422 3509 836 4129 
Q 1250 4750 2034 4750 
z
" transform="scale(0.015625)"/>
       </defs>
       <use xlink:href="#DejaVuSans-32" transform="translate(0 0.765625)"/>
       <use xlink:href="#DejaVuSans-32" transform="translate(64.580078 39.046875) scale(0.7)"/>
       <use xlink:href="#DejaVuSans-30" transform="translate(109.116211 39.046875) scale(0.7)"/>
      </g>
     </g>
    </g>
    <g id="xtick_5">
     <g id="line2d_12">
      <path d="M 291.948733 354.958125 
L 291.948733 22.318125 
" clip-path="url(#p2b0ee9aed4)" style="fill: none; stroke: #b0b0b0; stroke-opacity: 0.4; stroke-width: 0.8; stroke-linecap: square"/>
     </g>
     <g id="line2d_13">
      <g>
       <use xlink:href="#m2767a8c210" x="291.948733" y="354.958125" style="stroke: #000000; stroke-width: 0.8"/>
      </g>
     </g>
     <g id="text_5">
      <!-- $\mathdefault{2^{22}}$ -->
      <g transform="translate(284.098733 369.556562) scale(0.1 -0.1)">
       <use xlink:href="#DejaVuSans-32" transform="translate(0 0.765625)"/>
       <use xlink:href="#DejaVuSans-32" transform="translate(64.580078 39.046875) scale(0.7)"/>
       <use xlink:href="#DejaVuSans-32" transform="translate(109.116211 39.046875) scale(0.7)"/>
      </g>
     </g>
    </g>
    <g id="xtick_6">
     <g id="line2d_14">
      <path d="M 343.294222 354.958125 
L 343.294222 22.318125 
" clip-path="url(#p2b0ee9aed4)" style="fill: none; stroke: #b0b0b0; stroke-opacity: 0.4; stroke-width: 0.8; stroke-linecap: square"/>
     </g>
     <g id="line2d_15">
      <g>
       <use xlink:href="#m2767a8c210" x="343.294222" y="354.958125" style="stroke: #000000; stroke-width: 0.8"/>
      </g>
     </g>
     <g id="text_6">
      <!-- $\mathdefault{2^{24}}$ -->
      <g transform="translate(335.444222 369.556562) scale(0.1 -0.1)">
       <use xlink:href="#DejaVuSans-32" transform="translate(0 0.765625)"/>
       <use xlink:href="#DejaVuSans-32" transform="translate(64.580078 39.046875) scale(0.7)"/>
       <use xlink:href="#DejaVuSans-34" transform="translate(109.116211 39.046875) scale(0.7)"/>
      </g>
     </g>
    </g>
    <g id="xtick_7">
     <g id="line2d_16">
      <path d="M 394.639711 354.958125 
L 394.639711 22.318125 
" clip-path="url(#p2b0ee9aed4)" style="fill: none; stroke: #b0b0b0; stroke-opacity: 0.4; stroke-width: 0.8; stroke-linecap: square"/>
     </g>
     <g id="line2d_17">
      <g>
       <use xlink:href="#m2767a8c210" x="394.639711" y="354.958125" style="stroke: #000000; stroke-width: 0.8"/>
      </g>
     </g>
     <g id="text_7">
      <!-- $\mathdefault{2^{26}}$ -->
      <g transform="translate(386.789711 369.556562) scale(0.1 -0.1)">
       <use xlink:href="#DejaVuSans-32" transform="translate(0 0.765625)"/>
       <use xlink:href="#DejaVuSans-32" transform="translate(64.580078 39.046875) scale(0.7)"/>
       <use xlink:href="#DejaVuSans-36" transform="translate(109.116211 39.046875) scale(0.7)"/>
      </g>
     </g>
    </g>
    <g id="xtick_8">
     <g id="line2d_18">
      <path d="M 445.985199 354.958125 
L 445.985199 22.318125 
" clip-path="url(#p2b0ee9aed4)" style="fill: none; stroke: #b0b0b0; stroke-opacity: 0.4; stroke-width: 0.8; stroke-linecap: square"/>
     </g>
     <g id="line2d_19">
      <g>
       <use xlink:href="#m2767a8c210" x="445.985199" y="354.958125" style="stroke: #000000; stroke-width: 0.8"/>
      </g>
     </g>
     <g id="text_8">
      <!-- $\mathdefault{2^{28}}$ -->
      <g transform="translate(438.135199 369.556562) scale(0.1 -0.1)">
       <use xlink:href="#DejaVuSans-32" transform="translate(0 0.765625)"/>
       <use xlink:href="#DejaVuSans-32" transform="translate(64.580078 39.046875) scale(0.7)"/>
       <use xlink:href="#DejaVuSans-38" transform="translate(109.116211 39.046875) scale(0.7)"/>
      </g>
     </g>
    </g>
    <g id="text_9">
     <!-- Array Size (bytes) -->
     <g transform="translate(219.217188 383.234687) scale(0.1 -0.1)">
      <defs>
       <path id="DejaVuSans-41" d="M 2188 4044 
L 1331 1722 
L 3047 1722 
L 2188 4044 
z
M 1831 4666 
L 2547 4666 
L 4325 0 
L 3669 0 
L 3244 1197 
L 1141 1197 
L 716 0 
L 50 0 
L 1831 4666 
z
" transform="scale(0.015625)"/>
       <path id="DejaVuSans-72" d="M 2631 2963 
Q 2534 3019 2420 3045 
Q 2306 3072 2169 3072 
Q 1681 3072 1420 2755 
Q 1159 2438 1159 1844 
L 1159 0 
L 581 0 
L 581 3500 
L 1159 3500 
L 1159 2956 
Q 1341 3275 1631 3429 
Q 1922 3584 2338 3584 
Q 2397 3584 2469 3576 
Q 2541 3569 2628 3553 
L 2631 2963 
z
" transform="scale(0.015625)"/>
       <path id="DejaVuSans-61" d="M 2194 1759 
Q 1497 1759 1228 1600 
Q 959 1441 959 1056 
Q 959 750 1161 570 
Q 1363 391 1709 391 
Q 2188 391 2477 730 
Q 2766 1069 2766 1631 
L 2766 1759 
L 2194 1759 
z
M 3341 1997 
L 3341 0 
L 2766 0 
L 2766 531 
Q 2569 213 2275 61 
Q 1981 -91 1556 -91 
Q 1019 -91 701 211 
Q 384 513 384 1019 
Q 384 1609 779 1909 
Q 1175 2209 1959 2209 
L 2766 2209 
L 2766 2266 
Q 2766 2663 2505 2880 
Q 2244 3097 1772 3097 
Q 1472 3097 1187 3025 
Q 903 2953 641 2809 
L 641 3341 
Q 956 3463 1253 3523 
Q 1550 3584 1831 3584 
Q 2591 3584 2966 3190 
Q 3341 2797 3341 1997 
z
" transform="scale(0.015625)"/>
       <path id="DejaVuSans-79" d="M 2059 -325 
Q 1816 -950 1584 -1140 
Q 1353 -1331 966 -1331 
L 506 -1331 
L 506 -850 
L 844 -850 
Q 1081 -850 1212 -737 
Q 1344 -625 1503 -206 
L 1606 56 
L 191 3500 
L 800 3500 
L 1894 763 
L 2988 3500 
L 3597 3500 
L 2059 -325 
z
" transform="scale(0.015625)"/>
       <path id="DejaVuSans-20" transform="scale(0.015625)"/>
       <path id="DejaVuSans-53" d="M 3425 4513 
L 3425 3897 
Q 3066 4069 2747 4153 
Q 2428 4238 2131 4238 
Q 1616 4238 1336 4038 
Q 1056 3838 1056 3469 
Q 1056 3159 1242 3001 
Q 1428 2844 1947 2747 
L 2328 2669 
Q 3034 2534 3370 2195 
Q 3706 1856 3706 1288 
Q 3706 609 3251 259 
Q 2797 -91 1919 -91 
Q 1588 -91 1214 -16 
Q 841 59 441 206 
L 441 856 
Q 825 641 1194 531 
Q 1563 422 1919 422 
Q 2459 422 2753 634 
Q 3047 847 3047 1241 
Q 3047 1584 2836 1778 
Q 2625 1972 2144 2069 
L 1759 2144 
Q 1053 2284 737 2584 
Q 422 2884 422 3419 
Q 422 4038 858 4394 
Q 1294 4750 2059 4750 
Q 2388 4750 2728 4690 
Q 3069 4631 3425 4513 
z
" transform="scale(0.015625)"/>
       <path id="DejaVuSans-69" d="M 603 3500 
L 1178 3500 
L 1178 0 
L 603 0 
L 603 3500 
z
M 603 4863 
L 1178 4863 
L 1178 4134 
L 603 4134 
L 603 4863 
z
" transform="scale(0.015625)"/>
       <path id="DejaVuSans-7a" d="M 353 3500 
L 3084 3500 
L 3084 2975 
L 922 459 
L 3084 459 
L 3084 0 
L 275 0 
L 275 525 
L 2438 3041 
L 353 3041 
L 353 3500 
z
" transform="scale(0.015625)"/>
       <path id="DejaVuSans-65" d="M 3597 1894 
L 3597 1613 
L 953 1613 
Q 991 1019 1311 708 
Q 1631 397 2203 397 
Q 2534 397 2845 478 
Q 3156 559 3463 722 
L 3463 178 
Q 3153 47 2828 -22 
Q 2503 -91 2169 -91 
Q 1331 -91 842 396 
Q 353 884 353 1716 
Q 353 2575 817 3079 
Q 1281 3584 2069 3584 
Q 2775 3584 3186 3129 
Q 3597 2675 3597 1894 
z
M 3022 2063 
Q 3016 2534 2758 2815 
Q 2500 3097 2075 3097 
Q 1594 3097 1305 2825 
Q 1016 2553 972 2059 
L 3022 2063 
z
" transform="scale(0.015625)"/>
       <path id="DejaVuSans-28" d="M 1984 4856 
Q 1566 4138 1362 3434 
Q 1159 2731 1159 2009 
Q 1159 1288 1364 580 
Q 1569 -128 1984 -844 
L 1484 -844 
Q 1016 -109 783 600 
Q 550 1309 550 2009 
Q 550 2706 781 3412 
Q 1013 4119 1484 4856 
L 1984 4856 
z
" transform="scale(0.015625)"/>
       <path id="DejaVuSans-62" d="M 3116 1747 
Q 3116 2381 2855 2742 
Q 2594 3103 2138 3103 
Q 1681 3103 1420 2742 
Q 1159 2381 1159 1747 
Q 1159 1113 1420 752 
Q 1681 391 2138 391 
Q 2594 391 2855 752 
Q 3116 1113 3116 1747 
z
M 1159 2969 
Q 1341 3281 1617 3432 
Q 1894 3584 2278 3584 
Q 2916 3584 3314 3078 
Q 3713 2572 3713 1747 
Q 3713 922 3314 415 
Q 2916 -91 2278 -91 
Q 1894 -91 1617 61 
Q 1341 213 1159 525 
L 1159 0 
L 581 0 
L 581 4863 
L 1159 4863 
L 1159 2969 
z
" transform="scale(0.015625)"/>
       <path id="DejaVuSans-74" d="M 1172 4494 
L 1172 3500 
L 2356 3500 
L 2356 3053 
L 1172 3053 
L 1172 1153 
Q 1172 725 1289 603 
Q 1406 481 1766 481 
L 2356 481 
L 2356 0 
L 1766 0 
Q 1100 0 847 248 
Q 594 497 594 1153 
L 594 3053 
L 172 3053 
L 172 3500 
L 594 3500 
L 594 4494 
L 1172 4494 
z
" transform="scale(0.015625)"/>
       <path id="DejaVuSans-73" d="M 2834 3397 
L 2834 2853 
Q 2591 2978 2328 3040 
Q 2066 3103 1784 3103 
Q 1356 3103 1142 2972 
Q 928 2841 928 2578 
Q 928 2378 1081 2264 
Q 1234 2150 1697 2047 
L 1894 2003 
Q 2506 1872 2764 1633 
Q 3022 1394 3022 966 
Q 3022 478 2636 193 
Q 2250 -91 1575 -91 
Q 1294 -91 989 -36 
Q 684 19 347 128 
L 347 722 
Q 666 556 975 473 
Q 1284 391 1588 391 
Q 1994 391 2212 530 
Q 2431 669 2431 922 
Q 2431 1156 2273 1281 
Q 2116 1406 1581 1522 
L 1381 1569 
Q 847 1681 609 1914 
Q 372 2147 372 2553 
Q 372 3047 722 3315 
Q 1072 3584 1716 3584 
Q 2034 3584 2315 3537 
Q 2597 3491 2834 3397 
z
" transform="scale(0.015625)"/>
       <path id="DejaVuSans-29" d="M 513 4856 
L 1013 4856 
Q 1481 4119 1714 3412 
Q 1947 2706 1947 2009 
Q 1947 1309 1714 600 
Q 1481 -109 1013 -844 
L 513 -844 
Q 928 -128 1133 580 
Q 1338 1288 1338 2009 
Q 1338 2731 1133 3434 
Q 928 4138 513 4856 
z
" transform="scale(0.015625)"/>
      </defs>
      <use xlink:href="#DejaVuSans-41"/>
      <use xlink:href="#DejaVuSans-72" x="68.408203"/>
      <use xlink:href="#DejaVuSans-72" x="107.771484"/>
      <use xlink:href="#DejaVuSans-61" x="148.884766"/>
      <use xlink:href="#DejaVuSans-79" x="210.164062"/>
      <use xlink:href="#DejaVuSans-20" x="269.34375"/>
      <use xlink:href="#DejaVuSans-53" x="301.130859"/>
      <use xlink:href="#DejaVuSans-69" x="364.607422"/>
      <use xlink:href="#DejaVuSans-7a" x="392.390625"/>
      <use xlink:href="#DejaVuSans-65" x="444.880859"/>
      <use xlink:href="#DejaVuSans-20" x="506.404297"/>
      <use xlink:href="#DejaVuSans-28" x="538.191406"/>
      <use xlink:href="#DejaVuSans-62" x="577.205078"/>
      <use xlink:href="#DejaVuSans-79" x="640.681641"/>
      <use xlink:href="#DejaVuSans-74" x="699.861328"/>
      <use xlink:href="#DejaVuSans-65" x="739.070312"/>
      <use xlink:href="#DejaVuSans-73" x="800.59375"/>
      <use xlink:href="#DejaVuSans-29" x="852.693359"/>
     </g>
    </g>
   </g>
   <g id="matplotlib.axis_2">
    <g id="ytick_1">
     <g id="line2d_20">
      <path d="M 40.603125 354.958125 
L 487.003125 354.958125 
" clip-path="url(#p2b0ee9aed4)" style="fill: none; stroke: #b0b0b0; stroke-opacity: 0.4; stroke-width: 0.8; stroke-linecap: square"/>
     </g>
     <g id="line2d_21">
      <defs>
       <path id="maaeb57f39b" d="M 0 0 
L -3.5 0 
" style="stroke: #000000; stroke-width: 0.8"/>
      </defs>
      <g>
       <use xlink:href="#maaeb57f39b" x="40.603125" y="354.958125" style="stroke: #000000; stroke-width: 0.8"/>
      </g>
     </g>
     <g id="text_10">
      <!-- 0 -->
      <g transform="translate(27.240625 358.757344) scale(0.1 -0.1)">
       <use xlink:href="#DejaVuSans-30"/>
      </g>
     </g>
    </g>
    <g id="ytick_2">
     <g id="line2d_22">
      <path d="M 40.603125 315.824007 
L 487.003125 315.824007 
" clip-path="url(#p2b0ee9aed4)" style="fill: none; stroke: #b0b0b0; stroke-opacity: 0.4; stroke-width: 0.8; stroke-linecap: square"/>
     </g>
     <g id="line2d_23">
      <g>
       <use xlink:href="#maaeb57f39b" x="40.603125" y="315.824007" style="stroke: #000000; stroke-width: 0.8"/>
      </g>
     </g>
     <g id="text_11">
      <!-- 10 -->
      <g transform="translate(20.878125 319.623226) scale(0.1 -0.1)">
       <use xlink:href="#DejaVuSans-31"/>
       <use xlink:href="#DejaVuSans-30" x="63.623047"/>
      </g>
     </g>
    </g>
    <g id="ytick_3">
     <g id="line2d_24">
      <path d="M 40.603125 276.68989 
L 487.003125 276.68989 
" clip-path="url(#p2b0ee9aed4)" style="fill: none; stroke: #b0b0b0; stroke-opacity: 0.4; stroke-width: 0.8; stroke-linecap: square"/>
     </g>
     <g id="line2d_25">
      <g>
       <use xlink:href="#maaeb57f39b" x="40.603125" y="276.68989" style="stroke: #000000; stroke-width: 0.8"/>
      </g>
     </g>
     <g id="text_12">
      <!-- 20 -->
      <g transform="translate(20.878125 280.489108) scale(0.1 -0.1)">
       <use xlink:href="#DejaVuSans-32"/>
       <use xlink:href="#DejaVuSans-30" x="63.623047"/>
      </g>
     </g>
    </g>
    <g id="ytick_4">
     <g id="line2d_26">
      <path d="M 40.603125 237.555772 
L 487.003125 237.555772 
" clip-path="url(#p2b0ee9aed4)" style="fill: none; stroke: #b0b0b0; stroke-opacity: 0.4; stroke-width: 0.8; stroke-linecap: square"/>
     </g>
     <g id="line2d_27">
      <g>
       <use xlink:href="#maaeb57f39b" x="40.603125" y="237.555772" style="stroke: #000000; stroke-width: 0.8"/>
      </g>
     </g>
     <g id="text_13">
      <!-- 30 -->
      <g transform="translate(20.878125 241.354991) scale(0.1 -0.1)">
       <defs>
        <path id="DejaVuSans-33" d="M 2597 2516 
Q 3050 2419 3304 2112 
Q 3559 1806 3559 1356 
Q 3559 666 3084 287 
Q 2609 -91 1734 -91 
Q 1441 -91 1130 -33 
Q 819 25 488 141 
L 488 750 
Q 750 597 1062 519 
Q 1375 441 1716 441 
Q 2309 441 2620 675 
Q 2931 909 2931 1356 
Q 2931 1769 2642 2001 
Q 2353 2234 1838 2234 
L 1294 2234 
L 1294 2753 
L 1863 2753 
Q 2328 2753 2575 2939 
Q 2822 3125 2822 3475 
Q 2822 3834 2567 4026 
Q 2313 4219 1838 4219 
Q 1578 4219 1281 4162 
Q 984 4106 628 3988 
L 628 4550 
Q 988 4650 1302 4700 
Q 1616 4750 1894 4750 
Q 2613 4750 3031 4423 
Q 3450 4097 3450 3541 
Q 3450 3153 3228 2886 
Q 3006 2619 2597 2516 
z
" transform="scale(0.015625)"/>
       </defs>
       <use xlink:href="#DejaVuSans-33"/>
       <use xlink:href="#DejaVuSans-30" x="63.623047"/>
      </g>
     </g>
    </g>
    <g id="ytick_5">
     <g id="line2d_28">
      <path d="M 40.603125 198.421654 
L 487.003125 198.421654 
" clip-path="url(#p2b0ee9aed4)" style="fill: none; stroke: #b0b0b0; stroke-opacity: 0.4; stroke-width: 0.8; stroke-linecap: square"/>
     </g>
     <g id="line2d_29">
      <g>
       <use xlink:href="#maaeb57f39b" x="40.603125" y="198.421654" style="stroke: #000000; stroke-width: 0.8"/>
      </g>
     </g>
     <g id="text_14">
      <!-- 40 -->
      <g transform="translate(20.878125 202.220873) scale(0.1 -0.1)">
       <use xlink:href="#DejaVuSans-34"/>
       <use xlink:href="#DejaVuSans-30" x="63.623047"/>
      </g>
     </g>
    </g>
    <g id="ytick_6">
     <g id="line2d_30">
      <path d="M 40.603125 159.287537 
L 487.003125 159.287537 
" clip-path="url(#p2b0ee9aed4)" style="fill: none; stroke: #b0b0b0; stroke-opacity: 0.4; stroke-width: 0.8; stroke-linecap: square"/>
     </g>
     <g id="line2d_31">
      <g>
       <use xlink:href="#maaeb57f39b" x="40.603125" y="159.287537" style="stroke: #000000; stroke-width: 0.8"/>
      </g>
     </g>
     <g id="text_15">
      <!-- 50 -->
      <g transform="translate(20.878125 163.086756) scale(0.1 -0.1)">
       <defs>
        <path id="DejaVuSans-35" d="M 691 4666 
L 3169 4666 
L 3169 4134 
L 1269 4134 
L 1269 2991 
Q 1406 3038 1543 3061 
Q 1681 3084 1819 3084 
Q 2600 3084 3056 2656 
Q 3513 2228 3513 1497 
Q 3513 744 3044 326 
Q 2575 -91 1722 -91 
Q 1428 -91 1123 -41 
Q 819 9 494 109 
L 494 744 
Q 775 591 1075 516 
Q 1375 441 1709 441 
Q 2250 441 2565 725 
Q 2881 1009 2881 1497 
Q 2881 1984 2565 2268 
Q 2250 2553 1709 2553 
Q 1456 2553 1204 2497 
Q 953 2441 691 2322 
L 691 4666 
z
" transform="scale(0.015625)"/>
       </defs>
       <use xlink:href="#DejaVuSans-35"/>
       <use xlink:href="#DejaVuSans-30" x="63.623047"/>
      </g>
     </g>
    </g>
    <g id="ytick_7">
     <g id="line2d_32">
      <path d="M 40.603125 120.153419 
L 487.003125 120.153419 
" clip-path="url(#p2b0ee9aed4)" style="fill: none; stroke: #b0b0b0; stroke-opacity: 0.4; stroke-width: 0.8; stroke-linecap: square"/>
     </g>
     <g id="line2d_33">
      <g>
       <use xlink:href="#maaeb57f39b" x="40.603125" y="120.153419" style="stroke: #000000; stroke-width: 0.8"/>
      </g>
     </g>
     <g id="text_16">
      <!-- 60 -->
      <g transform="translate(20.878125 123.952638) scale(0.1 -0.1)">
       <use xlink:href="#DejaVuSans-36"/>
       <use xlink:href="#DejaVuSans-30" x="63.623047"/>
      </g>
     </g>
    </g>
    <g id="ytick_8">
     <g id="line2d_34">
      <path d="M 40.603125 81.019301 
L 487.003125 81.019301 
" clip-path="url(#p2b0ee9aed4)" style="fill: none; stroke: #b0b0b0; stroke-opacity: 0.4; stroke-width: 0.8; stroke-linecap: square"/>
     </g>
     <g id="line2d_35">
      <g>
       <use xlink:href="#maaeb57f39b" x="40.603125" y="81.019301" style="stroke: #000000; stroke-width: 0.8"/>
      </g>
     </g>
     <g id="text_17">
      <!-- 70 -->
      <g transform="translate(20.878125 84.81852) scale(0.1 -0.1)">
       <defs>
        <path id="DejaVuSans-37" d="M 525 4666 
L 3525 4666 
L 3525 4397 
L 1831 0 
L 1172 0 
L 2766 4134 
L 525 4134 
L 525 4666 
z
" transform="scale(0.015625)"/>
       </defs>
       <use xlink:href="#DejaVuSans-37"/>
       <use xlink:href="#DejaVuSans-30" x="63.623047"/>
      </g>
     </g>
    </g>
    <g id="ytick_9">
     <g id="line2d_36">
      <path d="M 40.603125 41.885184 
L 487.003125 41.885184 
" clip-path="url(#p2b0ee9aed4)" style="fill: none; stroke: #b0b0b0; stroke-opacity: 0.4; stroke-width: 0.8; stroke-linecap: square"/>
     </g>
     <g id="line2d_37">
      <g>
       <use xlink:href="#maaeb57f39b" x="40.603125" y="41.885184" style="stroke: #000000; stroke-width: 0.8"/>
      </g>
     </g>
     <g id="text_18">
      <!-- 80 -->
      <g transform="translate(20.878125 45.684403) scale(0.1 -0.1)">
       <use xlink:href="#DejaVuSans-38"/>
       <use xlink:href="#DejaVuSans-30" x="63.623047"/>
      </g>
     </g>
    </g>
    <g id="text_19">
     <!-- Inverse throughput (ns) -->
     <g transform="translate(14.798438 247.85375) rotate(-90) scale(0.1 -0.1)">
      <defs>
       <path id="DejaVuSans-49" d="M 628 4666 
L 1259 4666 
L 1259 0 
L 628 0 
L 628 4666 
z
" transform="scale(0.015625)"/>
       <path id="DejaVuSans-6e" d="M 3513 2113 
L 3513 0 
L 2938 0 
L 2938 2094 
Q 2938 2591 2744 2837 
Q 2550 3084 2163 3084 
Q 1697 3084 1428 2787 
Q 1159 2491 1159 1978 
L 1159 0 
L 581 0 
L 581 3500 
L 1159 3500 
L 1159 2956 
Q 1366 3272 1645 3428 
Q 1925 3584 2291 3584 
Q 2894 3584 3203 3211 
Q 3513 2838 3513 2113 
z
" transform="scale(0.015625)"/>
       <path id="DejaVuSans-76" d="M 191 3500 
L 800 3500 
L 1894 563 
L 2988 3500 
L 3597 3500 
L 2284 0 
L 1503 0 
L 191 3500 
z
" transform="scale(0.015625)"/>
       <path id="DejaVuSans-68" d="M 3513 2113 
L 3513 0 
L 2938 0 
L 2938 2094 
Q 2938 2591 2744 2837 
Q 2550 3084 2163 3084 
Q 1697 3084 1428 2787 
Q 1159 2491 1159 1978 
L 1159 0 
L 581 0 
L 581 4863 
L 1159 4863 
L 1159 2956 
Q 1366 3272 1645 3428 
Q 1925 3584 2291 3584 
Q 2894 3584 3203 3211 
Q 3513 2838 3513 2113 
z
" transform="scale(0.015625)"/>
       <path id="DejaVuSans-6f" d="M 1959 3097 
Q 1497 3097 1228 2736 
Q 959 2375 959 1747 
Q 959 1119 1226 758 
Q 1494 397 1959 397 
Q 2419 397 2687 759 
Q 2956 1122 2956 1747 
Q 2956 2369 2687 2733 
Q 2419 3097 1959 3097 
z
M 1959 3584 
Q 2709 3584 3137 3096 
Q 3566 2609 3566 1747 
Q 3566 888 3137 398 
Q 2709 -91 1959 -91 
Q 1206 -91 779 398 
Q 353 888 353 1747 
Q 353 2609 779 3096 
Q 1206 3584 1959 3584 
z
" transform="scale(0.015625)"/>
       <path id="DejaVuSans-75" d="M 544 1381 
L 544 3500 
L 1119 3500 
L 1119 1403 
Q 1119 906 1312 657 
Q 1506 409 1894 409 
Q 2359 409 2629 706 
Q 2900 1003 2900 1516 
L 2900 3500 
L 3475 3500 
L 3475 0 
L 2900 0 
L 2900 538 
Q 2691 219 2414 64 
Q 2138 -91 1772 -91 
Q 1169 -91 856 284 
Q 544 659 544 1381 
z
M 1991 3584 
L 1991 3584 
z
" transform="scale(0.015625)"/>
       <path id="DejaVuSans-67" d="M 2906 1791 
Q 2906 2416 2648 2759 
Q 2391 3103 1925 3103 
Q 1463 3103 1205 2759 
Q 947 2416 947 1791 
Q 947 1169 1205 825 
Q 1463 481 1925 481 
Q 2391 481 2648 825 
Q 2906 1169 2906 1791 
z
M 3481 434 
Q 3481 -459 3084 -895 
Q 2688 -1331 1869 -1331 
Q 1566 -1331 1297 -1286 
Q 1028 -1241 775 -1147 
L 775 -588 
Q 1028 -725 1275 -790 
Q 1522 -856 1778 -856 
Q 2344 -856 2625 -561 
Q 2906 -266 2906 331 
L 2906 616 
Q 2728 306 2450 153 
Q 2172 0 1784 0 
Q 1141 0 747 490 
Q 353 981 353 1791 
Q 353 2603 747 3093 
Q 1141 3584 1784 3584 
Q 2172 3584 2450 3431 
Q 2728 3278 2906 2969 
L 2906 3500 
L 3481 3500 
L 3481 434 
z
" transform="scale(0.015625)"/>
       <path id="DejaVuSans-70" d="M 1159 525 
L 1159 -1331 
L 581 -1331 
L 581 3500 
L 1159 3500 
L 1159 2969 
Q 1341 3281 1617 3432 
Q 1894 3584 2278 3584 
Q 2916 3584 3314 3078 
Q 3713 2572 3713 1747 
Q 3713 922 3314 415 
Q 2916 -91 2278 -91 
Q 1894 -91 1617 61 
Q 1341 213 1159 525 
z
M 3116 1747 
Q 3116 2381 2855 2742 
Q 2594 3103 2138 3103 
Q 1681 3103 1420 2742 
Q 1159 2381 1159 1747 
Q 1159 1113 1420 752 
Q 1681 391 2138 391 
Q 2594 391 2855 752 
Q 3116 1113 3116 1747 
z
" transform="scale(0.015625)"/>
      </defs>
      <use xlink:href="#DejaVuSans-49"/>
      <use xlink:href="#DejaVuSans-6e" x="29.492188"/>
      <use xlink:href="#DejaVuSans-76" x="92.871094"/>
      <use xlink:href="#DejaVuSans-65" x="152.050781"/>
      <use xlink:href="#DejaVuSans-72" x="213.574219"/>
      <use xlink:href="#DejaVuSans-73" x="254.6875"/>
      <use xlink:href="#DejaVuSans-65" x="306.787109"/>
      <use xlink:href="#DejaVuSans-20" x="368.310547"/>
      <use xlink:href="#DejaVuSans-74" x="400.097656"/>
      <use xlink:href="#DejaVuSans-68" x="439.306641"/>
      <use xlink:href="#DejaVuSans-72" x="502.685547"/>
      <use xlink:href="#DejaVuSans-6f" x="541.548828"/>
      <use xlink:href="#DejaVuSans-75" x="602.730469"/>
      <use xlink:href="#DejaVuSans-67" x="666.109375"/>
      <use xlink:href="#DejaVuSans-68" x="729.585938"/>
      <use xlink:href="#DejaVuSans-70" x="792.964844"/>
      <use xlink:href="#DejaVuSans-75" x="856.441406"/>
      <use xlink:href="#DejaVuSans-74" x="919.820312"/>
      <use xlink:href="#DejaVuSans-20" x="959.029297"/>
      <use xlink:href="#DejaVuSans-28" x="990.816406"/>
      <use xlink:href="#DejaVuSans-6e" x="1029.830078"/>
      <use xlink:href="#DejaVuSans-73" x="1093.208984"/>
      <use xlink:href="#DejaVuSans-29" x="1145.308594"/>
     </g>
    </g>
   </g>
   <g id="line2d_38">
    <path d="M 60.894034 348.914626 
L 69.158812 348.913374 
L 75.911627 348.912643 
L 81.621051 348.909674 
L 86.566778 348.914918 
L 94.831556 348.911174 
L 101.584371 348.911863 
L 107.293795 348.912863 
L 112.239523 348.910228 
L 120.5043 336.833147 
L 127.257116 336.836545 
L 132.966539 336.787579 
L 137.912267 336.836372 
L 146.177045 336.83376 
L 152.92986 336.82888 
L 158.639284 336.825717 
L 163.585012 336.832397 
L 171.849789 336.825795 
L 178.602604 336.83084 
L 184.312028 336.787287 
L 189.257756 336.742552 
L 197.522534 313.418231 
L 204.275349 309.284476 
L 209.984772 307.191552 
L 214.9305 305.179994 
L 223.195278 302.911593 
L 229.948093 301.390671 
L 235.657517 300.01293 
L 240.603245 299.049352 
L 248.868022 297.919205 
L 255.620837 297.38576 
L 261.330261 296.917642 
L 266.275989 296.563869 
L 274.540767 295.477148 
L 281.293582 295.725985 
L 287.003005 295.50272 
L 291.948733 295.290986 
L 300.213511 294.91713 
L 306.966326 285.479648 
L 312.67575 286.116484 
L 317.621478 286.232218 
L 325.886255 283.854409 
L 332.63907 218.317765 
L 338.348494 187.554697 
L 343.294222 158.295652 
L 351.559 113.582998 
L 358.311815 101.959573 
L 364.021238 87.725044 
L 368.966966 79.185069 
L 377.231744 71.594747 
L 383.984559 70.469757 
L 389.693983 70.63666 
L 394.639711 69.166155 
L 402.904488 65.670735 
L 409.657303 62.225268 
L 415.366727 59.321401 
L 420.312455 58.072146 
L 428.577233 56.054034 
L 435.330048 53.241202 
L 441.039472 52.51838 
L 445.985199 49.59372 
L 454.249977 48.843525 
L 461.002792 48.052809 
L 466.712216 47.7488 
" clip-path="url(#p2b0ee9aed4)" style="fill: none; stroke-dasharray: 1.5,1.5; stroke-dashoffset: 0; stroke: #000000; stroke-width: 1.5"/>
   </g>
   <g id="line2d_39">
    <path d="M 60.894034 348.900645 
L 69.158812 348.899216 
L 75.911627 348.898118 
L 81.621051 348.895247 
L 86.566778 348.894551 
L 94.831556 348.89283 
L 101.584371 348.886373 
L 107.293795 348.882672 
L 112.239523 348.88192 
L 120.5043 336.806222 
L 127.257116 336.805198 
L 132.966539 336.802587 
L 137.912267 336.797118 
L 146.177045 336.789054 
L 152.92986 336.781045 
L 158.639284 336.777877 
L 163.585012 336.759177 
L 171.849789 336.748296 
L 178.602604 336.721656 
L 184.312028 336.678366 
L 189.257756 336.637014 
L 197.522534 312.244757 
L 204.275349 307.927057 
L 209.984772 305.81285 
L 214.9305 304.104343 
L 223.195278 301.32394 
L 229.948093 299.337865 
L 235.657517 298.469388 
L 240.603245 297.404549 
L 248.868022 296.005604 
L 255.620837 295.334107 
L 261.330261 294.683453 
L 266.275989 294.102887 
L 274.540767 293.595661 
L 281.293582 293.245361 
L 287.003005 292.737326 
L 291.948733 292.510948 
L 300.213511 291.65438 
L 306.966326 291.003002 
L 312.67575 290.291234 
L 317.621478 289.796337 
L 325.886255 278.841742 
L 332.63907 255.628988 
L 338.348494 182.28084 
L 343.294222 129.502751 
L 351.559 120.735053 
L 358.311815 96.175964 
L 364.021238 80.750461 
L 368.966966 72.821291 
L 377.231744 65.684251 
L 383.984559 64.474779 
L 389.693983 62.667979 
L 394.639711 62.570758 
L 402.904488 58.528537 
L 409.657303 56.528499 
L 415.366727 54.819719 
L 420.312455 51.779158 
L 428.577233 50.222891 
L 435.330048 47.335422 
L 441.039472 45.094657 
L 445.985199 43.867676 
L 454.249977 43.470454 
L 461.002792 42.873494 
L 466.712216 42.284807 
" clip-path="url(#p2b0ee9aed4)" style="fill: none; stroke: #bcbd22; stroke-width: 1.5; stroke-linecap: square"/>
   </g>
   <g id="line2d_40">
    <path d="M 60.894034 351.920093 
L 69.158812 351.924626 
L 75.911627 351.9359 
L 81.621051 351.915033 
L 86.566778 351.936597 
L 94.831556 351.914831 
L 101.584371 351.935977 
L 107.293795 351.91212 
L 112.239523 351.935641 
L 120.5043 345.592678 
L 127.257116 345.432744 
L 132.966539 345.435959 
L 137.912267 345.43765 
L 146.177045 345.400261 
L 152.92986 345.299921 
L 158.639284 345.269753 
L 163.585012 345.261777 
L 171.849789 345.214226 
L 178.602604 345.418769 
L 184.312028 345.309087 
L 189.257756 345.481858 
L 197.522534 333.15327 
L 204.275349 331.037102 
L 209.984772 329.940096 
L 214.9305 329.013278 
L 223.195278 327.735417 
L 229.948093 326.737357 
L 235.657517 326.096976 
L 240.603245 325.623967 
L 248.868022 325.033579 
L 255.620837 324.625363 
L 261.330261 324.337516 
L 266.275989 324.135119 
L 274.540767 322.719004 
L 281.293582 323.713887 
L 287.003005 323.44791 
L 291.948733 323.27144 
L 300.213511 322.729367 
L 306.966326 322.300794 
L 312.67575 321.946726 
L 317.621478 316.138074 
L 325.886255 316.09943 
L 332.63907 283.412774 
L 338.348494 268.864323 
L 343.294222 244.608262 
L 351.559 231.794505 
L 358.311815 226.670564 
L 364.021238 219.003261 
L 368.966966 215.507335 
L 377.231744 212.098238 
L 383.984559 211.422309 
L 389.693983 210.122053 
L 394.639711 209.45052 
L 402.904488 208.618632 
L 409.657303 207.029026 
L 415.366727 206.188318 
L 420.312455 205.149606 
L 428.577233 202.938893 
L 435.330048 202.6715 
L 441.039472 202.040281 
L 445.985199 201.388114 
L 454.249977 200.378926 
L 461.002792 199.205689 
L 466.712216 199.599201 
" clip-path="url(#p2b0ee9aed4)" style="fill: none; stroke: #17becf; stroke-width: 1.5; stroke-linecap: square"/>
   </g>
   <g id="line2d_41">
    <path d="M 60.894034 353.436052 
L 69.158812 353.433738 
L 75.911627 353.446629 
L 81.621051 353.44757 
L 86.566778 353.447086 
L 94.831556 353.445269 
L 101.584371 353.427311 
L 107.293795 353.44542 
L 112.239523 353.447021 
L 120.5043 349.6902 
L 127.257116 349.772947 
L 132.966539 349.780879 
L 137.912267 350.049391 
L 146.177045 349.59196 
L 152.92986 349.566734 
L 158.639284 349.658518 
L 163.585012 349.650933 
L 171.849789 349.612221 
L 178.602604 349.628019 
L 184.312028 349.705651 
L 189.257756 349.760902 
L 197.522534 343.499493 
L 204.275349 342.433205 
L 209.984772 341.929143 
L 214.9305 341.325164 
L 223.195278 340.654516 
L 229.948093 340.20098 
L 235.657517 339.85205 
L 240.603245 339.591043 
L 248.868022 339.261889 
L 255.620837 339.107083 
L 261.330261 338.971155 
L 266.275989 338.921869 
L 274.540767 338.736879 
L 281.293582 338.682118 
L 287.003005 338.576641 
L 291.948733 338.524965 
L 300.213511 338.213447 
L 306.966326 337.890896 
L 312.67575 337.638764 
L 317.621478 334.339658 
L 325.886255 334.506726 
L 332.63907 316.983245 
L 338.348494 312.333831 
L 343.294222 303.279569 
L 351.559 292.857887 
L 358.311815 290.266802 
L 364.021238 286.803959 
L 368.966966 284.88035 
L 377.231744 283.276286 
L 383.984559 283.228678 
L 389.693983 282.793328 
L 394.639711 282.457066 
L 402.904488 281.722578 
L 409.657303 280.971556 
L 415.366727 280.526585 
L 420.312455 279.970446 
L 428.577233 278.906629 
L 435.330048 278.382343 
L 441.039472 278.37092 
L 445.985199 278.077883 
L 454.249977 277.403407 
L 461.002792 277.439587 
L 466.712216 277.279527 
" clip-path="url(#p2b0ee9aed4)" style="fill: none; stroke: #ff7f0e; stroke-width: 1.5; stroke-linecap: square"/>
   </g>
   <g id="line2d_42">
    <path d="M 60.894034 354.188047 
L 69.158812 354.198589 
L 75.911627 354.195286 
L 81.621051 354.201612 
L 86.566778 354.20375 
L 94.831556 354.20102 
L 101.584371 354.200813 
L 107.293795 354.203675 
L 112.239523 354.201362 
L 120.5043 351.84682 
L 127.257116 351.709058 
L 132.966539 351.555598 
L 137.912267 352.058495 
L 146.177045 351.514091 
L 152.92986 351.608699 
L 158.639284 351.519724 
L 163.585012 351.620546 
L 171.849789 351.50284 
L 178.602604 351.663187 
L 184.312028 351.682557 
L 189.257756 351.835846 
L 197.522534 348.572003 
L 204.275349 347.807962 
L 209.984772 347.459806 
L 214.9305 347.164507 
L 223.195278 346.828296 
L 229.948093 346.586963 
L 235.657517 346.469354 
L 240.603245 346.366756 
L 248.868022 346.231003 
L 255.620837 346.158312 
L 261.330261 346.095878 
L 266.275989 346.067281 
L 274.540767 345.986368 
L 281.293582 345.971333 
L 287.003005 345.936568 
L 291.948733 345.920227 
L 300.213511 345.837418 
L 306.966326 345.502812 
L 312.67575 345.318246 
L 317.621478 345.203644 
L 325.886255 342.116949 
L 332.63907 337.374395 
L 338.348494 328.765777 
L 343.294222 323.145697 
L 351.559 320.30189 
L 358.311815 322.723282 
L 364.021238 323.602292 
L 368.966966 323.083466 
L 377.231744 321.906079 
L 383.984559 320.963632 
L 389.693983 320.259069 
L 394.639711 319.764372 
L 402.904488 318.645393 
L 409.657303 317.944296 
L 415.366727 317.461532 
L 420.312455 317.06317 
L 428.577233 316.516197 
L 435.330048 316.178355 
L 441.039472 315.950884 
L 445.985199 315.758655 
L 454.249977 315.500505 
L 461.002792 315.310417 
L 466.712216 315.253531 
" clip-path="url(#p2b0ee9aed4)" style="fill: none; stroke: #2ca02c; stroke-width: 1.5; stroke-linecap: square"/>
   </g>
   <g id="line2d_43">
    <path d="M 60.894034 354.017245 
L 69.158812 354.023162 
L 75.911627 354.029949 
L 81.621051 354.028139 
L 86.566778 354.028168 
L 94.831556 354.028917 
L 101.584371 354.028779 
L 107.293795 354.030657 
L 112.239523 354.014694 
L 120.5043 351.785335 
L 127.257116 352.17967 
L 132.966539 351.712335 
L 137.912267 352.008623 
L 146.177045 351.716004 
L 152.92986 351.977324 
L 158.639284 351.736043 
L 163.585012 351.826574 
L 171.849789 351.79395 
L 178.602604 351.915668 
L 184.312028 352.026927 
L 189.257756 352.182845 
L 197.522534 350.044972 
L 204.275349 349.112359 
L 209.984772 348.774295 
L 214.9305 348.553658 
L 223.195278 348.303989 
L 229.948093 348.155694 
L 235.657517 348.049407 
L 240.603245 347.982593 
L 248.868022 347.890134 
L 255.620837 347.828323 
L 261.330261 347.792919 
L 266.275989 347.761154 
L 274.540767 347.734379 
L 281.293582 347.71604 
L 287.003005 347.689919 
L 291.948733 347.659817 
L 300.213511 347.601209 
L 306.966326 347.409667 
L 312.67575 347.154905 
L 317.621478 344.879068 
L 325.886255 344.859243 
L 332.63907 338.594544 
L 338.348494 339.162524 
L 343.294222 337.584123 
L 351.559 335.766465 
L 358.311815 333.947312 
L 364.021238 332.689224 
L 368.966966 331.678008 
L 377.231744 330.171955 
L 383.984559 329.183155 
L 389.693983 328.513694 
L 394.639711 327.960098 
L 402.904488 327.28387 
L 409.657303 326.830202 
L 415.366727 326.510398 
L 420.312455 326.260231 
L 428.577233 325.847892 
L 435.330048 325.679876 
L 441.039472 325.529942 
L 445.985199 325.42451 
L 454.249977 325.25031 
L 461.002792 325.183414 
L 466.712216 325.096829 
" clip-path="url(#p2b0ee9aed4)" style="fill: none; stroke: #7f7f7f; stroke-width: 1.5; stroke-linecap: square"/>
   </g>
   <g id="line2d_44">
    <path d="M 60.894034 353.599469 
L 69.158812 353.61522 
L 75.911627 353.617658 
L 81.621051 353.623134 
L 86.566778 353.618506 
L 94.831556 353.618651 
L 101.584371 353.616489 
L 107.293795 353.585576 
L 112.239523 353.551132 
L 120.5043 352.039845 
L 127.257116 351.629152 
L 132.966539 351.977142 
L 137.912267 351.758498 
L 146.177045 352.230737 
L 152.92986 351.7321 
L 158.639284 351.996383 
L 163.585012 351.766555 
L 171.849789 351.981505 
L 178.602604 351.96372 
L 184.312028 352.095301 
L 189.257756 352.123397 
L 197.522534 350.080852 
L 204.275349 349.124093 
L 209.984772 348.755243 
L 214.9305 348.440637 
L 223.195278 348.298587 
L 229.948093 348.118369 
L 235.657517 348.029833 
L 240.603245 347.958021 
L 248.868022 347.863477 
L 255.620837 347.813592 
L 261.330261 347.78271 
L 266.275989 347.75198 
L 274.540767 347.716438 
L 281.293582 347.690432 
L 287.003005 347.670518 
L 291.948733 347.659157 
L 300.213511 347.310799 
L 306.966326 343.945888 
L 312.67575 344.172918 
L 317.621478 344.323089 
L 325.886255 339.010265 
L 332.63907 339.357238 
L 338.348494 339.07114 
L 343.294222 338.156689 
L 351.559 335.7642 
L 358.311815 333.92559 
L 364.021238 332.671072 
L 368.966966 331.544112 
L 377.231744 330.085285 
L 383.984559 329.170343 
L 389.693983 328.505491 
L 394.639711 327.986981 
L 402.904488 327.301954 
L 409.657303 326.789343 
L 415.366727 326.4612 
L 420.312455 326.261356 
L 428.577233 325.887793 
L 435.330048 325.678813 
L 441.039472 325.53246 
L 445.985199 325.427744 
L 454.249977 325.258383 
L 461.002792 325.172768 
L 466.712216 325.115897 
" clip-path="url(#p2b0ee9aed4)" style="fill: none; stroke: #1f77b4; stroke-width: 1.5; stroke-linecap: square"/>
   </g>
   <g id="line2d_45"/>
   <g id="line2d_46"/>
   <g id="line2d_47"/>
   <g id="line2d_48"/>
   <g id="line2d_49"/>
   <g id="line2d_50"/>
   <g id="line2d_51"/>
   <g id="line2d_52"/>
   <g id="line2d_53"/>
   <g id="patch_3">
    <path d="M 40.603125 354.958125 
L 40.603125 22.318125 
" style="fill: none; stroke: #000000; stroke-width: 0.8; stroke-linejoin: miter; stroke-linecap: square"/>
   </g>
   <g id="patch_4">
    <path d="M 487.003125 354.958125 
L 487.003125 22.318125 
" style="fill: none; stroke: #000000; stroke-width: 0.8; stroke-linejoin: miter; stroke-linecap: square"/>
   </g>
   <g id="patch_5">
    <path d="M 40.603125 354.958125 
L 487.003125 354.958125 
" style="fill: none; stroke: #000000; stroke-width: 0.8; stroke-linejoin: miter; stroke-linecap: square"/>
   </g>
   <g id="patch_6">
    <path d="M 40.603125 22.318125 
L 487.003125 22.318125 
" style="fill: none; stroke: #000000; stroke-width: 0.8; stroke-linejoin: miter; stroke-linecap: square"/>
   </g>
   <g id="text_20">
    <!-- L1  -->
    <g style="fill: #ff0000" transform="translate(97.127023 352.878437) scale(0.1 -0.1)">
     <defs>
      <path id="DejaVuSans-4c" d="M 628 4666 
L 1259 4666 
L 1259 531 
L 3531 531 
L 3531 0 
L 628 0 
L 628 4666 
z
" transform="scale(0.015625)"/>
     </defs>
     <use xlink:href="#DejaVuSans-4c"/>
     <use xlink:href="#DejaVuSans-31" x="55.712891"/>
     <use xlink:href="#DejaVuSans-20" x="119.335938"/>
    </g>
   </g>
   <g id="text_21">
    <!-- L2  -->
    <g style="fill: #ff0000" transform="translate(174.145256 352.878437) scale(0.1 -0.1)">
     <use xlink:href="#DejaVuSans-4c"/>
     <use xlink:href="#DejaVuSans-32" x="55.712891"/>
     <use xlink:href="#DejaVuSans-20" x="119.335938"/>
    </g>
   </g>
   <g id="text_22">
    <!-- L3  -->
    <g style="fill: #ff0000" transform="translate(317.52657 352.878437) scale(0.1 -0.1)">
     <use xlink:href="#DejaVuSans-4c"/>
     <use xlink:href="#DejaVuSans-33" x="55.712891"/>
     <use xlink:href="#DejaVuSans-20" x="119.335938"/>
    </g>
   </g>
   <g id="text_23">
    <!-- RAM -->
    <g style="fill: #ff0000" transform="translate(444.695028 352.878437) scale(0.1 -0.1)">
     <defs>
      <path id="DejaVuSans-52" d="M 2841 2188 
Q 3044 2119 3236 1894 
Q 3428 1669 3622 1275 
L 4263 0 
L 3584 0 
L 2988 1197 
Q 2756 1666 2539 1819 
Q 2322 1972 1947 1972 
L 1259 1972 
L 1259 0 
L 628 0 
L 628 4666 
L 2053 4666 
Q 2853 4666 3247 4331 
Q 3641 3997 3641 3322 
Q 3641 2881 3436 2590 
Q 3231 2300 2841 2188 
z
M 1259 4147 
L 1259 2491 
L 2053 2491 
Q 2509 2491 2742 2702 
Q 2975 2913 2975 3322 
Q 2975 3731 2742 3939 
Q 2509 4147 2053 4147 
L 1259 4147 
z
" transform="scale(0.015625)"/>
      <path id="DejaVuSans-4d" d="M 628 4666 
L 1569 4666 
L 2759 1491 
L 3956 4666 
L 4897 4666 
L 4897 0 
L 4281 0 
L 4281 4097 
L 3078 897 
L 2444 897 
L 1241 4097 
L 1241 0 
L 628 0 
L 628 4666 
z
" transform="scale(0.015625)"/>
     </defs>
     <use xlink:href="#DejaVuSans-52"/>
     <use xlink:href="#DejaVuSans-41" x="65.482422"/>
     <use xlink:href="#DejaVuSans-4d" x="133.890625"/>
    </g>
   </g>
   <g id="text_24">
    <!-- Batch -->
    <g transform="translate(246.555938 16.318125) scale(0.12 -0.12)">
     <defs>
      <path id="DejaVuSans-42" d="M 1259 2228 
L 1259 519 
L 2272 519 
Q 2781 519 3026 730 
Q 3272 941 3272 1375 
Q 3272 1813 3026 2020 
Q 2781 2228 2272 2228 
L 1259 2228 
z
M 1259 4147 
L 1259 2741 
L 2194 2741 
Q 2656 2741 2882 2914 
Q 3109 3088 3109 3444 
Q 3109 3797 2882 3972 
Q 2656 4147 2194 4147 
L 1259 4147 
z
M 628 4666 
L 2241 4666 
Q 2963 4666 3353 4366 
Q 3744 4066 3744 3513 
Q 3744 3084 3544 2831 
Q 3344 2578 2956 2516 
Q 3422 2416 3680 2098 
Q 3938 1781 3938 1306 
Q 3938 681 3513 340 
Q 3088 0 2303 0 
L 628 0 
L 628 4666 
z
" transform="scale(0.015625)"/>
      <path id="DejaVuSans-63" d="M 3122 3366 
L 3122 2828 
Q 2878 2963 2633 3030 
Q 2388 3097 2138 3097 
Q 1578 3097 1268 2742 
Q 959 2388 959 1747 
Q 959 1106 1268 751 
Q 1578 397 2138 397 
Q 2388 397 2633 464 
Q 2878 531 3122 666 
L 3122 134 
Q 2881 22 2623 -34 
Q 2366 -91 2075 -91 
Q 1284 -91 818 406 
Q 353 903 353 1747 
Q 353 2603 823 3093 
Q 1294 3584 2113 3584 
Q 2378 3584 2631 3529 
Q 2884 3475 3122 3366 
z
" transform="scale(0.015625)"/>
     </defs>
     <use xlink:href="#DejaVuSans-42"/>
     <use xlink:href="#DejaVuSans-61" x="68.603516"/>
     <use xlink:href="#DejaVuSans-74" x="129.882812"/>
     <use xlink:href="#DejaVuSans-63" x="169.091797"/>
     <use xlink:href="#DejaVuSans-68" x="224.072266"/>
    </g>
   </g>
   <g id="legend_1">
    <g id="patch_7">
     <path d="M 47.603125 147.743125 
L 137.832813 147.743125 
Q 139.832813 147.743125 139.832813 145.743125 
L 139.832813 29.318125 
Q 139.832813 27.318125 137.832813 27.318125 
L 47.603125 27.318125 
Q 45.603125 27.318125 45.603125 29.318125 
L 45.603125 145.743125 
Q 45.603125 147.743125 47.603125 147.743125 
z
" style="fill: #ffffff; opacity: 0.8; stroke: #cccccc; stroke-linejoin: miter"/>
    </g>
    <g id="line2d_54">
     <path d="M 49.603125 35.416562 
L 59.603125 35.416562 
L 69.603125 35.416562 
" style="fill: none; stroke: #000000; stroke-width: 1.5; stroke-linecap: square"/>
    </g>
    <g id="text_25">
     <!-- Latency -->
     <g transform="translate(77.603125 38.916562) scale(0.1 -0.1)">
      <use xlink:href="#DejaVuSans-4c"/>
      <use xlink:href="#DejaVuSans-61" x="55.712891"/>
      <use xlink:href="#DejaVuSans-74" x="116.992188"/>
      <use xlink:href="#DejaVuSans-65" x="156.201172"/>
      <use xlink:href="#DejaVuSans-6e" x="217.724609"/>
      <use xlink:href="#DejaVuSans-63" x="281.103516"/>
      <use xlink:href="#DejaVuSans-79" x="336.083984"/>
     </g>
    </g>
    <g id="line2d_55">
     <path d="M 49.603125 50.094688 
L 59.603125 50.094688 
L 69.603125 50.094688 
" style="fill: none; stroke: #bcbd22; stroke-width: 1.5; stroke-linecap: square"/>
    </g>
    <g id="text_26">
     <!-- Batch&lt;1&gt; -->
     <g transform="translate(77.603125 53.594688) scale(0.1 -0.1)">
      <defs>
       <path id="DejaVuSans-3c" d="M 4684 3150 
L 1459 2003 
L 4684 863 
L 4684 294 
L 678 1747 
L 678 2266 
L 4684 3719 
L 4684 3150 
z
" transform="scale(0.015625)"/>
       <path id="DejaVuSans-3e" d="M 678 3150 
L 678 3719 
L 4684 2266 
L 4684 1747 
L 678 294 
L 678 863 
L 3897 2003 
L 678 3150 
z
" transform="scale(0.015625)"/>
      </defs>
      <use xlink:href="#DejaVuSans-42"/>
      <use xlink:href="#DejaVuSans-61" x="68.603516"/>
      <use xlink:href="#DejaVuSans-74" x="129.882812"/>
      <use xlink:href="#DejaVuSans-63" x="169.091797"/>
      <use xlink:href="#DejaVuSans-68" x="224.072266"/>
      <use xlink:href="#DejaVuSans-3c" x="287.451172"/>
      <use xlink:href="#DejaVuSans-31" x="371.240234"/>
      <use xlink:href="#DejaVuSans-3e" x="434.863281"/>
     </g>
    </g>
    <g id="line2d_56">
     <path d="M 49.603125 64.772812 
L 59.603125 64.772812 
L 69.603125 64.772812 
" style="fill: none; stroke: #17becf; stroke-width: 1.5; stroke-linecap: square"/>
    </g>
    <g id="text_27">
     <!-- Batch&lt;2&gt; -->
     <g transform="translate(77.603125 68.272812) scale(0.1 -0.1)">
      <use xlink:href="#DejaVuSans-42"/>
      <use xlink:href="#DejaVuSans-61" x="68.603516"/>
      <use xlink:href="#DejaVuSans-74" x="129.882812"/>
      <use xlink:href="#DejaVuSans-63" x="169.091797"/>
      <use xlink:href="#DejaVuSans-68" x="224.072266"/>
      <use xlink:href="#DejaVuSans-3c" x="287.451172"/>
      <use xlink:href="#DejaVuSans-32" x="371.240234"/>
      <use xlink:href="#DejaVuSans-3e" x="434.863281"/>
     </g>
    </g>
    <g id="line2d_57">
     <path d="M 49.603125 79.450938 
L 59.603125 79.450938 
L 69.603125 79.450938 
" style="fill: none; stroke: #ff7f0e; stroke-width: 1.5; stroke-linecap: square"/>
    </g>
    <g id="text_28">
     <!-- Batch&lt;4&gt; -->
     <g transform="translate(77.603125 82.950938) scale(0.1 -0.1)">
      <use xlink:href="#DejaVuSans-42"/>
      <use xlink:href="#DejaVuSans-61" x="68.603516"/>
      <use xlink:href="#DejaVuSans-74" x="129.882812"/>
      <use xlink:href="#DejaVuSans-63" x="169.091797"/>
      <use xlink:href="#DejaVuSans-68" x="224.072266"/>
      <use xlink:href="#DejaVuSans-3c" x="287.451172"/>
      <use xlink:href="#DejaVuSans-34" x="371.240234"/>
      <use xlink:href="#DejaVuSans-3e" x="434.863281"/>
     </g>
    </g>
    <g id="line2d_58">
     <path d="M 49.603125 94.129063 
L 59.603125 94.129063 
L 69.603125 94.129063 
" style="fill: none; stroke: #2ca02c; stroke-width: 1.5; stroke-linecap: square"/>
    </g>
    <g id="text_29">
     <!-- Batch&lt;8&gt; -->
     <g transform="translate(77.603125 97.629063) scale(0.1 -0.1)">
      <use xlink:href="#DejaVuSans-42"/>
      <use xlink:href="#DejaVuSans-61" x="68.603516"/>
      <use xlink:href="#DejaVuSans-74" x="129.882812"/>
      <use xlink:href="#DejaVuSans-63" x="169.091797"/>
      <use xlink:href="#DejaVuSans-68" x="224.072266"/>
      <use xlink:href="#DejaVuSans-3c" x="287.451172"/>
      <use xlink:href="#DejaVuSans-38" x="371.240234"/>
      <use xlink:href="#DejaVuSans-3e" x="434.863281"/>
     </g>
    </g>
    <g id="line2d_59">
     <path d="M 49.603125 108.807187 
L 59.603125 108.807187 
L 69.603125 108.807187 
" style="fill: none; stroke: #7f7f7f; stroke-width: 1.5; stroke-linecap: square"/>
    </g>
    <g id="text_30">
     <!-- Batch&lt;16&gt; -->
     <g transform="translate(77.603125 112.307187) scale(0.1 -0.1)">
      <use xlink:href="#DejaVuSans-42"/>
      <use xlink:href="#DejaVuSans-61" x="68.603516"/>
      <use xlink:href="#DejaVuSans-74" x="129.882812"/>
      <use xlink:href="#DejaVuSans-63" x="169.091797"/>
      <use xlink:href="#DejaVuSans-68" x="224.072266"/>
      <use xlink:href="#DejaVuSans-3c" x="287.451172"/>
      <use xlink:href="#DejaVuSans-31" x="371.240234"/>
      <use xlink:href="#DejaVuSans-36" x="434.863281"/>
      <use xlink:href="#DejaVuSans-3e" x="498.486328"/>
     </g>
    </g>
    <g id="line2d_60">
     <path d="M 49.603125 123.485312 
L 59.603125 123.485312 
L 69.603125 123.485312 
" style="fill: none; stroke: #1f77b4; stroke-width: 1.5; stroke-linecap: square"/>
    </g>
    <g id="text_31">
     <!-- Batch&lt;32&gt; -->
     <g transform="translate(77.603125 126.985312) scale(0.1 -0.1)">
      <use xlink:href="#DejaVuSans-42"/>
      <use xlink:href="#DejaVuSans-61" x="68.603516"/>
      <use xlink:href="#DejaVuSans-74" x="129.882812"/>
      <use xlink:href="#DejaVuSans-63" x="169.091797"/>
      <use xlink:href="#DejaVuSans-68" x="224.072266"/>
      <use xlink:href="#DejaVuSans-3c" x="287.451172"/>
      <use xlink:href="#DejaVuSans-33" x="371.240234"/>
      <use xlink:href="#DejaVuSans-32" x="434.863281"/>
      <use xlink:href="#DejaVuSans-3e" x="498.486328"/>
     </g>
    </g>
    <g id="line2d_61">
     <path d="M 49.603125 138.163437 
L 59.603125 138.163437 
L 69.603125 138.163437 
" style="fill: none; stroke-dasharray: 1.5,1.5; stroke-dashoffset: 0; stroke: #333333; stroke-width: 1.5"/>
    </g>
    <g id="text_32">
     <!-- Latency -->
     <g transform="translate(77.603125 141.663437) scale(0.1 -0.1)">
      <use xlink:href="#DejaVuSans-4c"/>
      <use xlink:href="#DejaVuSans-61" x="55.712891"/>
      <use xlink:href="#DejaVuSans-74" x="116.992188"/>
      <use xlink:href="#DejaVuSans-65" x="156.201172"/>
      <use xlink:href="#DejaVuSans-6e" x="217.724609"/>
      <use xlink:href="#DejaVuSans-63" x="281.103516"/>
      <use xlink:href="#DejaVuSans-79" x="336.083984"/>
     </g>
    </g>
   </g>
  </g>
 </g>
 <defs>
  <clipPath id="p2b0ee9aed4">
   <rect x="40.603125" y="22.318125" width="446.4" height="332.64"/>
  </clipPath>
 </defs>
</svg>
