<?xml version="1.0" encoding="utf-8" standalone="no"?>
<!DOCTYPE svg PUBLIC "-//W3C//DTD SVG 1.1//EN"
  "http://www.w3.org/Graphics/SVG/1.1/DTD/svg11.dtd">
<svg xmlns:xlink="http://www.w3.org/1999/xlink" width="621.536166pt" height="452.198125pt" viewBox="0 0 621.536166 452.198125" xmlns="http://www.w3.org/2000/svg" version="1.1">
 <metadata>
  <rdf:RDF xmlns:dc="http://purl.org/dc/elements/1.1/" xmlns:cc="http://creativecommons.org/ns#" xmlns:rdf="http://www.w3.org/1999/02/22-rdf-syntax-ns#">
   <cc:Work>
    <dc:type rdf:resource="http://purl.org/dc/dcmitype/StillImage"/>
    <dc:date>2025-08-12T00:36:33.290268</dc:date>
    <dc:format>image/svg+xml</dc:format>
    <dc:creator>
     <cc:Agent>
      <dc:title>Matplotlib v3.10.3, https://matplotlib.org/</dc:title>
     </cc:Agent>
    </dc:creator>
   </cc:Work>
  </rdf:RDF>
 </metadata>
 <defs>
  <style type="text/css">*{stroke-linejoin: round; stroke-linecap: butt}</style>
 </defs>
 <g id="figure_1">
  <g id="patch_1">
   <path d="M 0 452.198125 
L 621.536166 452.198125 
L 621.536166 0 
L 0 0 
z
" style="fill: #ffffff"/>
  </g>
  <g id="axes_1">
   <g id="patch_2">
    <path d="M 54 173.518125 
L 175.304348 173.518125 
L 175.304348 22.318125 
L 54 22.318125 
z
" style="fill: #ffffff"/>
   </g>
   <g id="matplotlib.axis_1">
    <g id="xtick_1">
     <g id="line2d_1">
      <defs>
       <path id="mb5403e5aa2" d="M 0 0 
L 0 3.5 
" style="stroke: #000000; stroke-width: 0.8"/>
      </defs>
      <g>
       <use xlink:href="#mb5403e5aa2" x="59.513834" y="173.518125" style="stroke: #000000; stroke-width: 0.8"/>
      </g>
     </g>
    </g>
    <g id="xtick_2">
     <g id="line2d_2">
      <g>
       <use xlink:href="#mb5403e5aa2" x="96.272727" y="173.518125" style="stroke: #000000; stroke-width: 0.8"/>
      </g>
     </g>
    </g>
    <g id="xtick_3">
     <g id="line2d_3">
      <g>
       <use xlink:href="#mb5403e5aa2" x="133.031621" y="173.518125" style="stroke: #000000; stroke-width: 0.8"/>
      </g>
     </g>
    </g>
    <g id="xtick_4">
     <g id="line2d_4">
      <g>
       <use xlink:href="#mb5403e5aa2" x="169.790514" y="173.518125" style="stroke: #000000; stroke-width: 0.8"/>
      </g>
     </g>
    </g>
   </g>
   <g id="matplotlib.axis_2">
    <g id="ytick_1">
     <g id="line2d_5">
      <path d="M 54 171.42169 
L 175.304348 171.42169 
" clip-path="url(#p2e74a051c4)" style="fill: none; stroke: #b0b0b0; stroke-width: 0.8; stroke-linecap: square"/>
     </g>
     <g id="line2d_6">
      <defs>
       <path id="mb08a0a552c" d="M 0 0 
L -3.5 0 
" style="stroke: #000000; stroke-width: 0.8"/>
      </defs>
      <g>
       <use xlink:href="#mb08a0a552c" x="54" y="171.42169" style="stroke: #000000; stroke-width: 0.8"/>
      </g>
     </g>
     <g id="text_1">
      <!-- $\mathdefault{2^{4}}$ -->
      <g transform="translate(35.8 175.220909) scale(0.1 -0.1)">
       <defs>
        <path id="DejaVuSans-32" d="M 1228 531 
L 3431 531 
L 3431 0 
L 469 0 
L 469 531 
Q 828 903 1448 1529 
Q 2069 2156 2228 2338 
Q 2531 2678 2651 2914 
Q 2772 3150 2772 3378 
Q 2772 3750 2511 3984 
Q 2250 4219 1831 4219 
Q 1534 4219 1204 4116 
Q 875 4013 500 3803 
L 500 4441 
Q 881 4594 1212 4672 
Q 1544 4750 1819 4750 
Q 2544 4750 2975 4387 
Q 3406 4025 3406 3419 
Q 3406 3131 3298 2873 
Q 3191 2616 2906 2266 
Q 2828 2175 2409 1742 
Q 1991 1309 1228 531 
z
" transform="scale(0.015625)"/>
        <path id="DejaVuSans-34" d="M 2419 4116 
L 825 1625 
L 2419 1625 
L 2419 4116 
z
M 2253 4666 
L 3047 4666 
L 3047 1625 
L 3713 1625 
L 3713 1100 
L 3047 1100 
L 3047 0 
L 2419 0 
L 2419 1100 
L 313 1100 
L 313 1709 
L 2253 4666 
z
" transform="scale(0.015625)"/>
       </defs>
       <use xlink:href="#DejaVuSans-32" transform="translate(0 0.684375)"/>
       <use xlink:href="#DejaVuSans-34" transform="translate(64.580078 38.965625) scale(0.7)"/>
      </g>
     </g>
    </g>
    <g id="ytick_2">
     <g id="line2d_7">
      <path d="M 54 126.008963 
L 175.304348 126.008963 
" clip-path="url(#p2e74a051c4)" style="fill: none; stroke: #b0b0b0; stroke-width: 0.8; stroke-linecap: square"/>
     </g>
     <g id="line2d_8">
      <g>
       <use xlink:href="#mb08a0a552c" x="54" y="126.008963" style="stroke: #000000; stroke-width: 0.8"/>
      </g>
     </g>
     <g id="text_2">
      <!-- $\mathdefault{2^{5}}$ -->
      <g transform="translate(35.8 129.808181) scale(0.1 -0.1)">
       <defs>
        <path id="DejaVuSans-35" d="M 691 4666 
L 3169 4666 
L 3169 4134 
L 1269 4134 
L 1269 2991 
Q 1406 3038 1543 3061 
Q 1681 3084 1819 3084 
Q 2600 3084 3056 2656 
Q 3513 2228 3513 1497 
Q 3513 744 3044 326 
Q 2575 -91 1722 -91 
Q 1428 -91 1123 -41 
Q 819 9 494 109 
L 494 744 
Q 775 591 1075 516 
Q 1375 441 1709 441 
Q 2250 441 2565 725 
Q 2881 1009 2881 1497 
Q 2881 1984 2565 2268 
Q 2250 2553 1709 2553 
Q 1456 2553 1204 2497 
Q 953 2441 691 2322 
L 691 4666 
z
" transform="scale(0.015625)"/>
       </defs>
       <use xlink:href="#DejaVuSans-32" transform="translate(0 0.684375)"/>
       <use xlink:href="#DejaVuSans-35" transform="translate(64.580078 38.965625) scale(0.7)"/>
      </g>
     </g>
    </g>
    <g id="ytick_3">
     <g id="line2d_9">
      <path d="M 54 80.596235 
L 175.304348 80.596235 
" clip-path="url(#p2e74a051c4)" style="fill: none; stroke: #b0b0b0; stroke-width: 0.8; stroke-linecap: square"/>
     </g>
     <g id="line2d_10">
      <g>
       <use xlink:href="#mb08a0a552c" x="54" y="80.596235" style="stroke: #000000; stroke-width: 0.8"/>
      </g>
     </g>
     <g id="text_3">
      <!-- $\mathdefault{2^{6}}$ -->
      <g transform="translate(35.8 84.395454) scale(0.1 -0.1)">
       <defs>
        <path id="DejaVuSans-36" d="M 2113 2584 
Q 1688 2584 1439 2293 
Q 1191 2003 1191 1497 
Q 1191 994 1439 701 
Q 1688 409 2113 409 
Q 2538 409 2786 701 
Q 3034 994 3034 1497 
Q 3034 2003 2786 2293 
Q 2538 2584 2113 2584 
z
M 3366 4563 
L 3366 3988 
Q 3128 4100 2886 4159 
Q 2644 4219 2406 4219 
Q 1781 4219 1451 3797 
Q 1122 3375 1075 2522 
Q 1259 2794 1537 2939 
Q 1816 3084 2150 3084 
Q 2853 3084 3261 2657 
Q 3669 2231 3669 1497 
Q 3669 778 3244 343 
Q 2819 -91 2113 -91 
Q 1303 -91 875 529 
Q 447 1150 447 2328 
Q 447 3434 972 4092 
Q 1497 4750 2381 4750 
Q 2619 4750 2861 4703 
Q 3103 4656 3366 4563 
z
" transform="scale(0.015625)"/>
       </defs>
       <use xlink:href="#DejaVuSans-32" transform="translate(0 0.765625)"/>
       <use xlink:href="#DejaVuSans-36" transform="translate(64.580078 39.046875) scale(0.7)"/>
      </g>
     </g>
    </g>
    <g id="ytick_4">
     <g id="line2d_11">
      <path d="M 54 35.183508 
L 175.304348 35.183508 
" clip-path="url(#p2e74a051c4)" style="fill: none; stroke: #b0b0b0; stroke-width: 0.8; stroke-linecap: square"/>
     </g>
     <g id="line2d_12">
      <g>
       <use xlink:href="#mb08a0a552c" x="54" y="35.183508" style="stroke: #000000; stroke-width: 0.8"/>
      </g>
     </g>
     <g id="text_4">
      <!-- $\mathdefault{2^{7}}$ -->
      <g transform="translate(35.8 38.982726) scale(0.1 -0.1)">
       <defs>
        <path id="DejaVuSans-37" d="M 525 4666 
L 3525 4666 
L 3525 4397 
L 1831 0 
L 1172 0 
L 2766 4134 
L 525 4134 
L 525 4666 
z
" transform="scale(0.015625)"/>
       </defs>
       <use xlink:href="#DejaVuSans-32" transform="translate(0 0.684375)"/>
       <use xlink:href="#DejaVuSans-37" transform="translate(64.580078 38.965625) scale(0.7)"/>
      </g>
     </g>
    </g>
    <g id="text_5">
     <!-- u32 -->
     <g transform="translate(29.720313 107.449375) rotate(-90) scale(0.1 -0.1)">
      <defs>
       <path id="DejaVuSans-75" d="M 544 1381 
L 544 3500 
L 1119 3500 
L 1119 1403 
Q 1119 906 1312 657 
Q 1506 409 1894 409 
Q 2359 409 2629 706 
Q 2900 1003 2900 1516 
L 2900 3500 
L 3475 3500 
L 3475 0 
L 2900 0 
L 2900 538 
Q 2691 219 2414 64 
Q 2138 -91 1772 -91 
Q 1169 -91 856 284 
Q 544 659 544 1381 
z
M 1991 3584 
L 1991 3584 
z
" transform="scale(0.015625)"/>
       <path id="DejaVuSans-33" d="M 2597 2516 
Q 3050 2419 3304 2112 
Q 3559 1806 3559 1356 
Q 3559 666 3084 287 
Q 2609 -91 1734 -91 
Q 1441 -91 1130 -33 
Q 819 25 488 141 
L 488 750 
Q 750 597 1062 519 
Q 1375 441 1716 441 
Q 2309 441 2620 675 
Q 2931 909 2931 1356 
Q 2931 1769 2642 2001 
Q 2353 2234 1838 2234 
L 1294 2234 
L 1294 2753 
L 1863 2753 
Q 2328 2753 2575 2939 
Q 2822 3125 2822 3475 
Q 2822 3834 2567 4026 
Q 2313 4219 1838 4219 
Q 1578 4219 1281 4162 
Q 984 4106 628 3988 
L 628 4550 
Q 988 4650 1302 4700 
Q 1616 4750 1894 4750 
Q 2613 4750 3031 4423 
Q 3450 4097 3450 3541 
Q 3450 3153 3228 2886 
Q 3006 2619 2597 2516 
z
" transform="scale(0.015625)"/>
      </defs>
      <use xlink:href="#DejaVuSans-75"/>
      <use xlink:href="#DejaVuSans-33" transform="translate(63.378906 0)"/>
      <use xlink:href="#DejaVuSans-32" transform="translate(127.001953 0)"/>
     </g>
    </g>
   </g>
   <g id="line2d_13">
    <path d="M 59.513834 131.918457 
L 66.865613 129.477377 
L 74.217391 124.351247 
L 81.56917 121.346977 
L 88.920949 117.352622 
L 96.272727 109.420938 
L 103.624506 101.735976 
L 110.976285 91.364488 
L 118.328063 80.066063 
L 125.679842 69.457971 
L 133.031621 58.764075 
L 140.383399 51.488134 
L 147.735178 31.148985 
" clip-path="url(#p2e74a051c4)" style="fill: none; stroke: #1f77b4; stroke-width: 1.5; stroke-linecap: square"/>
   </g>
   <g id="line2d_14">
    <path d="M 59.513834 91.412768 
L 66.865613 81.141055 
L 74.217391 78.026623 
L 81.56917 74.856305 
L 88.920949 69.899921 
L 96.272727 62.074084 
L 103.624506 59.435064 
L 110.976285 53.990557 
L 118.328063 47.32341 
" clip-path="url(#p2e74a051c4)" style="fill: none; stroke: #ff7f0e; stroke-width: 1.5; stroke-linecap: square"/>
   </g>
   <g id="line2d_15">
    <path d="M 59.513834 134.780904 
L 66.865613 134.244739 
L 74.217391 127.562792 
L 81.56917 127.228202 
L 88.920949 118.456202 
L 96.272727 118.09232 
L 103.624506 111.99818 
L 110.976285 105.758279 
L 118.328063 95.794244 
L 125.679842 85.82587 
L 133.031621 75.83898 
L 140.383399 63.226124 
L 147.735178 51.049762 
" clip-path="url(#p2e74a051c4)" style="fill: none; stroke: #2ca02c; stroke-width: 1.5; stroke-linecap: square"/>
   </g>
   <g id="line2d_16">
    <path d="M 59.513834 139.060772 
L 66.865613 142.603079 
L 74.217391 137.774149 
L 81.56917 144.367406 
L 88.920949 138.192002 
L 96.272727 138.538129 
L 103.624506 133.276834 
L 110.976285 137.091677 
L 118.328063 134.430734 
L 125.679842 134.8746 
L 133.031621 133.002896 
L 140.383399 133.048473 
L 147.735178 129.218843 
L 155.086957 128.300719 
L 162.438735 126.999159 
L 169.790514 125.397605 
" clip-path="url(#p2e74a051c4)" style="fill: none; stroke: #d62728; stroke-width: 1.5; stroke-linecap: square"/>
   </g>
   <g id="line2d_17">
    <path d="M 59.513834 90.157048 
L 66.865613 93.398647 
L 74.217391 92.068062 
L 81.56917 94.137118 
L 88.920949 98.253958 
L 96.272727 97.999784 
L 103.624506 97.773197 
L 110.976285 97.388467 
L 118.328063 96.691124 
L 125.679842 95.910534 
L 133.031621 95.485142 
L 140.383399 94.909476 
L 147.735178 92.915035 
L 155.086957 92.729977 
L 162.438735 93.72305 
L 169.790514 93.150195 
" clip-path="url(#p2e74a051c4)" style="fill: none; stroke: #9467bd; stroke-width: 1.5; stroke-linecap: square"/>
   </g>
   <g id="patch_3">
    <path d="M 54 173.518125 
L 54 22.318125 
" style="fill: none; stroke: #000000; stroke-width: 0.8; stroke-linejoin: miter; stroke-linecap: square"/>
   </g>
   <g id="patch_4">
    <path d="M 175.304348 173.518125 
L 175.304348 22.318125 
" style="fill: none; stroke: #000000; stroke-width: 0.8; stroke-linejoin: miter; stroke-linecap: square"/>
   </g>
   <g id="patch_5">
    <path d="M 54 173.518125 
L 175.304348 173.518125 
" style="fill: none; stroke: #000000; stroke-width: 0.8; stroke-linejoin: miter; stroke-linecap: square"/>
   </g>
   <g id="patch_6">
    <path d="M 54 22.318125 
L 175.304348 22.318125 
" style="fill: none; stroke: #000000; stroke-width: 0.8; stroke-linejoin: miter; stroke-linecap: square"/>
   </g>
   <g id="text_6">
    <!-- Heapsort -->
    <g transform="translate(87.346549 16.318125) scale(0.12 -0.12)">
     <defs>
      <path id="DejaVuSans-48" d="M 628 4666 
L 1259 4666 
L 1259 2753 
L 3553 2753 
L 3553 4666 
L 4184 4666 
L 4184 0 
L 3553 0 
L 3553 2222 
L 1259 2222 
L 1259 0 
L 628 0 
L 628 4666 
z
" transform="scale(0.015625)"/>
      <path id="DejaVuSans-65" d="M 3597 1894 
L 3597 1613 
L 953 1613 
Q 991 1019 1311 708 
Q 1631 397 2203 397 
Q 2534 397 2845 478 
Q 3156 559 3463 722 
L 3463 178 
Q 3153 47 2828 -22 
Q 2503 -91 2169 -91 
Q 1331 -91 842 396 
Q 353 884 353 1716 
Q 353 2575 817 3079 
Q 1281 3584 2069 3584 
Q 2775 3584 3186 3129 
Q 3597 2675 3597 1894 
z
M 3022 2063 
Q 3016 2534 2758 2815 
Q 2500 3097 2075 3097 
Q 1594 3097 1305 2825 
Q 1016 2553 972 2059 
L 3022 2063 
z
" transform="scale(0.015625)"/>
      <path id="DejaVuSans-61" d="M 2194 1759 
Q 1497 1759 1228 1600 
Q 959 1441 959 1056 
Q 959 750 1161 570 
Q 1363 391 1709 391 
Q 2188 391 2477 730 
Q 2766 1069 2766 1631 
L 2766 1759 
L 2194 1759 
z
M 3341 1997 
L 3341 0 
L 2766 0 
L 2766 531 
Q 2569 213 2275 61 
Q 1981 -91 1556 -91 
Q 1019 -91 701 211 
Q 384 513 384 1019 
Q 384 1609 779 1909 
Q 1175 2209 1959 2209 
L 2766 2209 
L 2766 2266 
Q 2766 2663 2505 2880 
Q 2244 3097 1772 3097 
Q 1472 3097 1187 3025 
Q 903 2953 641 2809 
L 641 3341 
Q 956 3463 1253 3523 
Q 1550 3584 1831 3584 
Q 2591 3584 2966 3190 
Q 3341 2797 3341 1997 
z
" transform="scale(0.015625)"/>
      <path id="DejaVuSans-70" d="M 1159 525 
L 1159 -1331 
L 581 -1331 
L 581 3500 
L 1159 3500 
L 1159 2969 
Q 1341 3281 1617 3432 
Q 1894 3584 2278 3584 
Q 2916 3584 3314 3078 
Q 3713 2572 3713 1747 
Q 3713 922 3314 415 
Q 2916 -91 2278 -91 
Q 1894 -91 1617 61 
Q 1341 213 1159 525 
z
M 3116 1747 
Q 3116 2381 2855 2742 
Q 2594 3103 2138 3103 
Q 1681 3103 1420 2742 
Q 1159 2381 1159 1747 
Q 1159 1113 1420 752 
Q 1681 391 2138 391 
Q 2594 391 2855 752 
Q 3116 1113 3116 1747 
z
" transform="scale(0.015625)"/>
      <path id="DejaVuSans-73" d="M 2834 3397 
L 2834 2853 
Q 2591 2978 2328 3040 
Q 2066 3103 1784 3103 
Q 1356 3103 1142 2972 
Q 928 2841 928 2578 
Q 928 2378 1081 2264 
Q 1234 2150 1697 2047 
L 1894 2003 
Q 2506 1872 2764 1633 
Q 3022 1394 3022 966 
Q 3022 478 2636 193 
Q 2250 -91 1575 -91 
Q 1294 -91 989 -36 
Q 684 19 347 128 
L 347 722 
Q 666 556 975 473 
Q 1284 391 1588 391 
Q 1994 391 2212 530 
Q 2431 669 2431 922 
Q 2431 1156 2273 1281 
Q 2116 1406 1581 1522 
L 1381 1569 
Q 847 1681 609 1914 
Q 372 2147 372 2553 
Q 372 3047 722 3315 
Q 1072 3584 1716 3584 
Q 2034 3584 2315 3537 
Q 2597 3491 2834 3397 
z
" transform="scale(0.015625)"/>
      <path id="DejaVuSans-6f" d="M 1959 3097 
Q 1497 3097 1228 2736 
Q 959 2375 959 1747 
Q 959 1119 1226 758 
Q 1494 397 1959 397 
Q 2419 397 2687 759 
Q 2956 1122 2956 1747 
Q 2956 2369 2687 2733 
Q 2419 3097 1959 3097 
z
M 1959 3584 
Q 2709 3584 3137 3096 
Q 3566 2609 3566 1747 
Q 3566 888 3137 398 
Q 2709 -91 1959 -91 
Q 1206 -91 779 398 
Q 353 888 353 1747 
Q 353 2609 779 3096 
Q 1206 3584 1959 3584 
z
" transform="scale(0.015625)"/>
      <path id="DejaVuSans-72" d="M 2631 2963 
Q 2534 3019 2420 3045 
Q 2306 3072 2169 3072 
Q 1681 3072 1420 2755 
Q 1159 2438 1159 1844 
L 1159 0 
L 581 0 
L 581 3500 
L 1159 3500 
L 1159 2956 
Q 1341 3275 1631 3429 
Q 1922 3584 2338 3584 
Q 2397 3584 2469 3576 
Q 2541 3569 2628 3553 
L 2631 2963 
z
" transform="scale(0.015625)"/>
      <path id="DejaVuSans-74" d="M 1172 4494 
L 1172 3500 
L 2356 3500 
L 2356 3053 
L 1172 3053 
L 1172 1153 
Q 1172 725 1289 603 
Q 1406 481 1766 481 
L 2356 481 
L 2356 0 
L 1766 0 
Q 1100 0 847 248 
Q 594 497 594 1153 
L 594 3053 
L 172 3053 
L 172 3500 
L 594 3500 
L 594 4494 
L 1172 4494 
z
" transform="scale(0.015625)"/>
     </defs>
     <use xlink:href="#DejaVuSans-48"/>
     <use xlink:href="#DejaVuSans-65" transform="translate(75.195312 0)"/>
     <use xlink:href="#DejaVuSans-61" transform="translate(136.71875 0)"/>
     <use xlink:href="#DejaVuSans-70" transform="translate(197.998047 0)"/>
     <use xlink:href="#DejaVuSans-73" transform="translate(261.474609 0)"/>
     <use xlink:href="#DejaVuSans-6f" transform="translate(313.574219 0)"/>
     <use xlink:href="#DejaVuSans-72" transform="translate(374.755859 0)"/>
     <use xlink:href="#DejaVuSans-74" transform="translate(415.869141 0)"/>
    </g>
   </g>
  </g>
  <g id="axes_2">
   <g id="patch_7">
    <path d="M 199.565217 173.518125 
L 320.869565 173.518125 
L 320.869565 22.318125 
L 199.565217 22.318125 
z
" style="fill: #ffffff"/>
   </g>
   <g id="matplotlib.axis_3">
    <g id="xtick_5">
     <g id="line2d_18">
      <g>
       <use xlink:href="#mb5403e5aa2" x="205.079051" y="173.518125" style="stroke: #000000; stroke-width: 0.8"/>
      </g>
     </g>
    </g>
    <g id="xtick_6">
     <g id="line2d_19">
      <g>
       <use xlink:href="#mb5403e5aa2" x="241.837945" y="173.518125" style="stroke: #000000; stroke-width: 0.8"/>
      </g>
     </g>
    </g>
    <g id="xtick_7">
     <g id="line2d_20">
      <g>
       <use xlink:href="#mb5403e5aa2" x="278.596838" y="173.518125" style="stroke: #000000; stroke-width: 0.8"/>
      </g>
     </g>
    </g>
    <g id="xtick_8">
     <g id="line2d_21">
      <g>
       <use xlink:href="#mb5403e5aa2" x="315.355731" y="173.518125" style="stroke: #000000; stroke-width: 0.8"/>
      </g>
     </g>
    </g>
   </g>
   <g id="matplotlib.axis_4">
    <g id="ytick_5">
     <g id="line2d_22">
      <path d="M 199.565217 171.42169 
L 320.869565 171.42169 
" clip-path="url(#p4353f5e18d)" style="fill: none; stroke: #b0b0b0; stroke-width: 0.8; stroke-linecap: square"/>
     </g>
     <g id="line2d_23">
      <g>
       <use xlink:href="#mb08a0a552c" x="199.565217" y="171.42169" style="stroke: #000000; stroke-width: 0.8"/>
      </g>
     </g>
    </g>
    <g id="ytick_6">
     <g id="line2d_24">
      <path d="M 199.565217 126.008963 
L 320.869565 126.008963 
" clip-path="url(#p4353f5e18d)" style="fill: none; stroke: #b0b0b0; stroke-width: 0.8; stroke-linecap: square"/>
     </g>
     <g id="line2d_25">
      <g>
       <use xlink:href="#mb08a0a552c" x="199.565217" y="126.008963" style="stroke: #000000; stroke-width: 0.8"/>
      </g>
     </g>
    </g>
    <g id="ytick_7">
     <g id="line2d_26">
      <path d="M 199.565217 80.596235 
L 320.869565 80.596235 
" clip-path="url(#p4353f5e18d)" style="fill: none; stroke: #b0b0b0; stroke-width: 0.8; stroke-linecap: square"/>
     </g>
     <g id="line2d_27">
      <g>
       <use xlink:href="#mb08a0a552c" x="199.565217" y="80.596235" style="stroke: #000000; stroke-width: 0.8"/>
      </g>
     </g>
    </g>
    <g id="ytick_8">
     <g id="line2d_28">
      <path d="M 199.565217 35.183508 
L 320.869565 35.183508 
" clip-path="url(#p4353f5e18d)" style="fill: none; stroke: #b0b0b0; stroke-width: 0.8; stroke-linecap: square"/>
     </g>
     <g id="line2d_29">
      <g>
       <use xlink:href="#mb08a0a552c" x="199.565217" y="35.183508" style="stroke: #000000; stroke-width: 0.8"/>
      </g>
     </g>
    </g>
   </g>
   <g id="line2d_30">
    <path d="M 205.079051 139.839994 
L 212.43083 133.368402 
L 219.782609 126.564105 
L 227.134387 121.366047 
L 234.486166 117.030496 
L 241.837945 110.818552 
L 249.189723 104.83297 
L 256.541502 98.401563 
L 263.893281 92.165703 
L 271.245059 85.792615 
L 278.596838 80.412228 
L 285.948617 74.221666 
L 293.300395 65.886579 
L 300.652174 57.557498 
L 308.003953 45.584786 
" clip-path="url(#p4353f5e18d)" style="fill: none; stroke: #1f77b4; stroke-width: 1.5; stroke-linecap: square"/>
   </g>
   <g id="line2d_31">
    <path d="M 205.079051 114.012688 
L 212.43083 108.364575 
L 219.782609 106.712092 
L 227.134387 105.999204 
L 234.486166 104.096157 
L 241.837945 99.226194 
L 249.189723 99.022452 
L 256.541502 97.124446 
L 263.893281 93.535698 
L 271.245059 91.691074 
L 278.596838 90.287476 
L 285.948617 87.419538 
L 293.300395 84.563043 
L 300.652174 80.852661 
L 308.003953 74.743863 
L 315.355731 71.270577 
" clip-path="url(#p4353f5e18d)" style="fill: none; stroke: #ff7f0e; stroke-width: 1.5; stroke-linecap: square"/>
   </g>
   <g id="line2d_32">
    <path d="M 205.079051 138.562922 
L 212.43083 133.368402 
L 219.782609 131.382895 
L 227.134387 126.978376 
L 234.486166 122.210693 
L 241.837945 117.658313 
L 249.189723 113.638694 
L 256.541502 108.930055 
L 263.893281 104.008294 
L 271.245059 98.805823 
L 278.596838 94.794947 
L 285.948617 88.84362 
L 293.300395 82.898594 
L 300.652174 74.184525 
L 308.003953 65.049579 
L 315.355731 59.672659 
" clip-path="url(#p4353f5e18d)" style="fill: none; stroke: #2ca02c; stroke-width: 1.5; stroke-linecap: square"/>
   </g>
   <g id="line2d_33">
    <path d="M 205.079051 151.427019 
L 212.43083 151.517616 
L 219.782609 148.765776 
L 227.134387 153.139173 
L 234.486166 149.085299 
L 241.837945 151.66889 
L 249.189723 150.915989 
L 256.541502 149.143562 
L 263.893281 147.191123 
L 271.245059 145.432742 
L 278.596838 145.570584 
L 285.948617 142.97338 
L 293.300395 144.884252 
L 300.652174 142.339854 
L 308.003953 139.336211 
L 315.355731 138.935955 
" clip-path="url(#p4353f5e18d)" style="fill: none; stroke: #d62728; stroke-width: 1.5; stroke-linecap: square"/>
   </g>
   <g id="line2d_34">
    <path clip-path="url(#p4353f5e18d)" style="fill: none; stroke: #9467bd; stroke-width: 1.5; stroke-linecap: square"/>
   </g>
   <g id="patch_8">
    <path d="M 199.565217 173.518125 
L 199.565217 22.318125 
" style="fill: none; stroke: #000000; stroke-width: 0.8; stroke-linejoin: miter; stroke-linecap: square"/>
   </g>
   <g id="patch_9">
    <path d="M 320.869565 173.518125 
L 320.869565 22.318125 
" style="fill: none; stroke: #000000; stroke-width: 0.8; stroke-linejoin: miter; stroke-linecap: square"/>
   </g>
   <g id="patch_10">
    <path d="M 199.565217 173.518125 
L 320.869565 173.518125 
" style="fill: none; stroke: #000000; stroke-width: 0.8; stroke-linejoin: miter; stroke-linecap: square"/>
   </g>
   <g id="patch_11">
    <path d="M 199.565217 22.318125 
L 320.869565 22.318125 
" style="fill: none; stroke: #000000; stroke-width: 0.8; stroke-linejoin: miter; stroke-linecap: square"/>
   </g>
   <g id="text_7">
    <!-- Random -->
    <g transform="translate(235.379266 16.318125) scale(0.12 -0.12)">
     <defs>
      <path id="DejaVuSans-52" d="M 2841 2188 
Q 3044 2119 3236 1894 
Q 3428 1669 3622 1275 
L 4263 0 
L 3584 0 
L 2988 1197 
Q 2756 1666 2539 1819 
Q 2322 1972 1947 1972 
L 1259 1972 
L 1259 0 
L 628 0 
L 628 4666 
L 2053 4666 
Q 2853 4666 3247 4331 
Q 3641 3997 3641 3322 
Q 3641 2881 3436 2590 
Q 3231 2300 2841 2188 
z
M 1259 4147 
L 1259 2491 
L 2053 2491 
Q 2509 2491 2742 2702 
Q 2975 2913 2975 3322 
Q 2975 3731 2742 3939 
Q 2509 4147 2053 4147 
L 1259 4147 
z
" transform="scale(0.015625)"/>
      <path id="DejaVuSans-6e" d="M 3513 2113 
L 3513 0 
L 2938 0 
L 2938 2094 
Q 2938 2591 2744 2837 
Q 2550 3084 2163 3084 
Q 1697 3084 1428 2787 
Q 1159 2491 1159 1978 
L 1159 0 
L 581 0 
L 581 3500 
L 1159 3500 
L 1159 2956 
Q 1366 3272 1645 3428 
Q 1925 3584 2291 3584 
Q 2894 3584 3203 3211 
Q 3513 2838 3513 2113 
z
" transform="scale(0.015625)"/>
      <path id="DejaVuSans-64" d="M 2906 2969 
L 2906 4863 
L 3481 4863 
L 3481 0 
L 2906 0 
L 2906 525 
Q 2725 213 2448 61 
Q 2172 -91 1784 -91 
Q 1150 -91 751 415 
Q 353 922 353 1747 
Q 353 2572 751 3078 
Q 1150 3584 1784 3584 
Q 2172 3584 2448 3432 
Q 2725 3281 2906 2969 
z
M 947 1747 
Q 947 1113 1208 752 
Q 1469 391 1925 391 
Q 2381 391 2643 752 
Q 2906 1113 2906 1747 
Q 2906 2381 2643 2742 
Q 2381 3103 1925 3103 
Q 1469 3103 1208 2742 
Q 947 2381 947 1747 
z
" transform="scale(0.015625)"/>
      <path id="DejaVuSans-6d" d="M 3328 2828 
Q 3544 3216 3844 3400 
Q 4144 3584 4550 3584 
Q 5097 3584 5394 3201 
Q 5691 2819 5691 2113 
L 5691 0 
L 5113 0 
L 5113 2094 
Q 5113 2597 4934 2840 
Q 4756 3084 4391 3084 
Q 3944 3084 3684 2787 
Q 3425 2491 3425 1978 
L 3425 0 
L 2847 0 
L 2847 2094 
Q 2847 2600 2669 2842 
Q 2491 3084 2119 3084 
Q 1678 3084 1418 2786 
Q 1159 2488 1159 1978 
L 1159 0 
L 581 0 
L 581 3500 
L 1159 3500 
L 1159 2956 
Q 1356 3278 1631 3431 
Q 1906 3584 2284 3584 
Q 2666 3584 2933 3390 
Q 3200 3197 3328 2828 
z
" transform="scale(0.015625)"/>
     </defs>
     <use xlink:href="#DejaVuSans-52"/>
     <use xlink:href="#DejaVuSans-61" transform="translate(67.232422 0)"/>
     <use xlink:href="#DejaVuSans-6e" transform="translate(128.511719 0)"/>
     <use xlink:href="#DejaVuSans-64" transform="translate(191.890625 0)"/>
     <use xlink:href="#DejaVuSans-6f" transform="translate(255.367188 0)"/>
     <use xlink:href="#DejaVuSans-6d" transform="translate(316.548828 0)"/>
    </g>
   </g>
  </g>
  <g id="axes_3">
   <g id="patch_12">
    <path d="M 345.130435 173.518125 
L 466.434783 173.518125 
L 466.434783 22.318125 
L 345.130435 22.318125 
z
" style="fill: #ffffff"/>
   </g>
   <g id="matplotlib.axis_5">
    <g id="xtick_9">
     <g id="line2d_35">
      <g>
       <use xlink:href="#mb5403e5aa2" x="350.644269" y="173.518125" style="stroke: #000000; stroke-width: 0.8"/>
      </g>
     </g>
    </g>
    <g id="xtick_10">
     <g id="line2d_36">
      <g>
       <use xlink:href="#mb5403e5aa2" x="387.403162" y="173.518125" style="stroke: #000000; stroke-width: 0.8"/>
      </g>
     </g>
    </g>
    <g id="xtick_11">
     <g id="line2d_37">
      <g>
       <use xlink:href="#mb5403e5aa2" x="424.162055" y="173.518125" style="stroke: #000000; stroke-width: 0.8"/>
      </g>
     </g>
    </g>
    <g id="xtick_12">
     <g id="line2d_38">
      <g>
       <use xlink:href="#mb5403e5aa2" x="460.920949" y="173.518125" style="stroke: #000000; stroke-width: 0.8"/>
      </g>
     </g>
    </g>
   </g>
   <g id="matplotlib.axis_6">
    <g id="ytick_9">
     <g id="line2d_39">
      <path d="M 345.130435 171.42169 
L 466.434783 171.42169 
" clip-path="url(#p472555dddc)" style="fill: none; stroke: #b0b0b0; stroke-width: 0.8; stroke-linecap: square"/>
     </g>
     <g id="line2d_40">
      <g>
       <use xlink:href="#mb08a0a552c" x="345.130435" y="171.42169" style="stroke: #000000; stroke-width: 0.8"/>
      </g>
     </g>
    </g>
    <g id="ytick_10">
     <g id="line2d_41">
      <path d="M 345.130435 126.008963 
L 466.434783 126.008963 
" clip-path="url(#p472555dddc)" style="fill: none; stroke: #b0b0b0; stroke-width: 0.8; stroke-linecap: square"/>
     </g>
     <g id="line2d_42">
      <g>
       <use xlink:href="#mb08a0a552c" x="345.130435" y="126.008963" style="stroke: #000000; stroke-width: 0.8"/>
      </g>
     </g>
    </g>
    <g id="ytick_11">
     <g id="line2d_43">
      <path d="M 345.130435 80.596235 
L 466.434783 80.596235 
" clip-path="url(#p472555dddc)" style="fill: none; stroke: #b0b0b0; stroke-width: 0.8; stroke-linecap: square"/>
     </g>
     <g id="line2d_44">
      <g>
       <use xlink:href="#mb08a0a552c" x="345.130435" y="80.596235" style="stroke: #000000; stroke-width: 0.8"/>
      </g>
     </g>
    </g>
    <g id="ytick_12">
     <g id="line2d_45">
      <path d="M 345.130435 35.183508 
L 466.434783 35.183508 
" clip-path="url(#p472555dddc)" style="fill: none; stroke: #b0b0b0; stroke-width: 0.8; stroke-linecap: square"/>
     </g>
     <g id="line2d_46">
      <g>
       <use xlink:href="#mb08a0a552c" x="345.130435" y="35.183508" style="stroke: #000000; stroke-width: 0.8"/>
      </g>
     </g>
    </g>
   </g>
   <g id="line2d_47">
    <path d="M 350.644269 133.208242 
L 357.996047 158.595328 
L 365.347826 153.046307 
L 372.699605 147.276044 
L 380.051383 141.194063 
L 387.403162 133.897415 
L 394.754941 128.406819 
L 402.106719 121.385123 
L 409.458498 114.046793 
L 416.810277 106.059575 
L 424.162055 95.331135 
L 431.513834 91.861058 
L 438.865613 79.853165 
L 446.217391 74.444955 
L 453.56917 61.352763 
L 460.920949 51.278397 
" clip-path="url(#p472555dddc)" style="fill: none; stroke: #1f77b4; stroke-width: 1.5; stroke-linecap: square"/>
   </g>
   <g id="line2d_48">
    <path d="M 350.644269 104.096157 
L 357.996047 101.088962 
L 365.347826 93.848249 
L 372.699605 91.824596 
L 380.051383 89.333075 
L 387.403162 84.129443 
L 394.754941 83.495076 
L 402.106719 84.584799 
L 409.458498 79.903792 
L 416.810277 77.702598 
L 424.162055 76.287955 
L 431.513834 76.010565 
L 438.865613 72.724967 
L 446.217391 71.778634 
L 453.56917 67.694165 
L 460.920949 69.113417 
" clip-path="url(#p472555dddc)" style="fill: none; stroke: #ff7f0e; stroke-width: 1.5; stroke-linecap: square"/>
   </g>
   <g id="line2d_49">
    <path d="M 350.644269 158.058853 
L 357.996047 157.958751 
L 365.347826 148.36135 
L 372.699605 146.180563 
L 380.051383 135.345099 
L 387.403162 135.67647 
L 394.754941 129.498968 
L 402.106719 127.458049 
L 409.458498 120.853082 
L 416.810277 117.532268 
L 424.162055 110.672581 
L 431.513834 107.386579 
L 438.865613 99.978718 
L 446.217391 93.535698 
L 453.56917 84.671893 
L 460.920949 81.596825 
" clip-path="url(#p472555dddc)" style="fill: none; stroke: #2ca02c; stroke-width: 1.5; stroke-linecap: square"/>
   </g>
   <g id="line2d_50">
    <path d="M 350.644269 134.96843 
L 357.996047 141.400904 
L 365.347826 140.731045 
L 372.699605 137.505186 
L 380.051383 138.216665 
L 387.403162 135.771456 
L 394.754941 133.368402 
L 402.106719 132.957351 
L 409.458498 131.183183 
L 416.810277 130.763556 
L 424.162055 128.939912 
L 431.513834 127.520874 
L 438.865613 125.499102 
L 446.217391 124.231581 
L 453.56917 122.01777 
L 460.920949 121.423292 
" clip-path="url(#p472555dddc)" style="fill: none; stroke: #d62728; stroke-width: 1.5; stroke-linecap: square"/>
   </g>
   <g id="line2d_51">
    <path d="M 350.644269 141.03936 
L 357.996047 143.319116 
L 365.347826 142.077681 
L 372.699605 138.48857 
L 380.051383 138.290709 
L 387.403162 134.687342 
L 394.754941 133.460098 
L 402.106719 131.784156 
L 409.458498 129.326442 
L 416.810277 127.899099 
L 424.162055 124.391184 
L 431.513834 123.597032 
L 438.865613 121.883061 
L 446.217391 119.820414 
L 453.56917 118.110466 
L 460.920949 116.302624 
" clip-path="url(#p472555dddc)" style="fill: none; stroke: #9467bd; stroke-width: 1.5; stroke-linecap: square"/>
   </g>
   <g id="patch_13">
    <path d="M 345.130435 173.518125 
L 345.130435 22.318125 
" style="fill: none; stroke: #000000; stroke-width: 0.8; stroke-linejoin: miter; stroke-linecap: square"/>
   </g>
   <g id="patch_14">
    <path d="M 466.434783 173.518125 
L 466.434783 22.318125 
" style="fill: none; stroke: #000000; stroke-width: 0.8; stroke-linejoin: miter; stroke-linecap: square"/>
   </g>
   <g id="patch_15">
    <path d="M 345.130435 173.518125 
L 466.434783 173.518125 
" style="fill: none; stroke: #000000; stroke-width: 0.8; stroke-linejoin: miter; stroke-linecap: square"/>
   </g>
   <g id="patch_16">
    <path d="M 345.130435 22.318125 
L 466.434783 22.318125 
" style="fill: none; stroke: #000000; stroke-width: 0.8; stroke-linejoin: miter; stroke-linecap: square"/>
   </g>
   <g id="text_8">
    <!-- Linear -->
    <g transform="translate(387.134796 16.318125) scale(0.12 -0.12)">
     <defs>
      <path id="DejaVuSans-4c" d="M 628 4666 
L 1259 4666 
L 1259 531 
L 3531 531 
L 3531 0 
L 628 0 
L 628 4666 
z
" transform="scale(0.015625)"/>
      <path id="DejaVuSans-69" d="M 603 3500 
L 1178 3500 
L 1178 0 
L 603 0 
L 603 3500 
z
M 603 4863 
L 1178 4863 
L 1178 4134 
L 603 4134 
L 603 4863 
z
" transform="scale(0.015625)"/>
     </defs>
     <use xlink:href="#DejaVuSans-4c"/>
     <use xlink:href="#DejaVuSans-69" transform="translate(55.712891 0)"/>
     <use xlink:href="#DejaVuSans-6e" transform="translate(83.496094 0)"/>
     <use xlink:href="#DejaVuSans-65" transform="translate(146.875 0)"/>
     <use xlink:href="#DejaVuSans-61" transform="translate(208.398438 0)"/>
     <use xlink:href="#DejaVuSans-72" transform="translate(269.677734 0)"/>
    </g>
   </g>
  </g>
  <g id="axes_4">
   <g id="patch_17">
    <path d="M 490.695652 173.518125 
L 612 173.518125 
L 612 22.318125 
L 490.695652 22.318125 
z
" style="fill: #ffffff"/>
   </g>
   <g id="matplotlib.axis_7">
    <g id="xtick_13">
     <g id="line2d_52">
      <g>
       <use xlink:href="#mb5403e5aa2" x="496.209486" y="173.518125" style="stroke: #000000; stroke-width: 0.8"/>
      </g>
     </g>
    </g>
    <g id="xtick_14">
     <g id="line2d_53">
      <g>
       <use xlink:href="#mb5403e5aa2" x="532.968379" y="173.518125" style="stroke: #000000; stroke-width: 0.8"/>
      </g>
     </g>
    </g>
    <g id="xtick_15">
     <g id="line2d_54">
      <g>
       <use xlink:href="#mb5403e5aa2" x="569.727273" y="173.518125" style="stroke: #000000; stroke-width: 0.8"/>
      </g>
     </g>
    </g>
    <g id="xtick_16">
     <g id="line2d_55">
      <g>
       <use xlink:href="#mb5403e5aa2" x="606.486166" y="173.518125" style="stroke: #000000; stroke-width: 0.8"/>
      </g>
     </g>
    </g>
   </g>
   <g id="matplotlib.axis_8">
    <g id="ytick_13">
     <g id="line2d_56">
      <path d="M 490.695652 171.42169 
L 612 171.42169 
" clip-path="url(#pdaadc73683)" style="fill: none; stroke: #b0b0b0; stroke-width: 0.8; stroke-linecap: square"/>
     </g>
     <g id="line2d_57">
      <g>
       <use xlink:href="#mb08a0a552c" x="490.695652" y="171.42169" style="stroke: #000000; stroke-width: 0.8"/>
      </g>
     </g>
    </g>
    <g id="ytick_14">
     <g id="line2d_58">
      <path d="M 490.695652 126.008963 
L 612 126.008963 
" clip-path="url(#pdaadc73683)" style="fill: none; stroke: #b0b0b0; stroke-width: 0.8; stroke-linecap: square"/>
     </g>
     <g id="line2d_59">
      <g>
       <use xlink:href="#mb08a0a552c" x="490.695652" y="126.008963" style="stroke: #000000; stroke-width: 0.8"/>
      </g>
     </g>
    </g>
    <g id="ytick_15">
     <g id="line2d_60">
      <path d="M 490.695652 80.596235 
L 612 80.596235 
" clip-path="url(#pdaadc73683)" style="fill: none; stroke: #b0b0b0; stroke-width: 0.8; stroke-linecap: square"/>
     </g>
     <g id="line2d_61">
      <g>
       <use xlink:href="#mb08a0a552c" x="490.695652" y="80.596235" style="stroke: #000000; stroke-width: 0.8"/>
      </g>
     </g>
    </g>
    <g id="ytick_16">
     <g id="line2d_62">
      <path d="M 490.695652 35.183508 
L 612 35.183508 
" clip-path="url(#pdaadc73683)" style="fill: none; stroke: #b0b0b0; stroke-width: 0.8; stroke-linecap: square"/>
     </g>
     <g id="line2d_63">
      <g>
       <use xlink:href="#mb08a0a552c" x="490.695652" y="35.183508" style="stroke: #000000; stroke-width: 0.8"/>
      </g>
     </g>
    </g>
   </g>
   <g id="line2d_64">
    <path d="M 496.209486 139.411532 
L 503.561265 136.248464 
L 510.913043 130.984077 
L 518.264822 128.406819 
L 525.616601 122.481744 
L 532.968379 114.046793 
L 540.320158 106.377434 
L 547.671937 96.286658 
L 555.023715 87.476365 
L 562.375494 80.596235 
L 569.727273 76.278371 
L 577.079051 72.833995 
L 584.43083 57.752242 
L 591.782609 38.146581 
" clip-path="url(#pdaadc73683)" style="fill: none; stroke: #1f77b4; stroke-width: 1.5; stroke-linecap: square"/>
   </g>
   <g id="line2d_65">
    <path d="M 496.209486 91.739596 
L 503.561265 86.21509 
L 510.913043 78.858718 
L 518.264822 73.180453 
L 525.616601 67.5514 
L 532.968379 63.030095 
L 540.320158 60.120485 
L 547.671937 55.886516 
L 555.023715 52.353817 
L 562.375494 49.656149 
" clip-path="url(#pdaadc73683)" style="fill: none; stroke: #ff7f0e; stroke-width: 1.5; stroke-linecap: square"/>
   </g>
   <g id="line2d_66">
    <path d="M 496.209486 145.708718 
L 503.561265 143.399161 
L 510.913043 137.334601 
L 518.264822 135.368713 
L 525.616601 129.780295 
L 532.968379 126.978376 
L 540.320158 122.11416 
L 547.671937 115.078303 
L 555.023715 107.803934 
L 562.375494 101.158981 
L 569.727273 96.06591 
L 577.079051 92.141279 
L 584.43083 85.131047 
L 591.782609 61.147035 
L 599.134387 48.642624 
" clip-path="url(#pdaadc73683)" style="fill: none; stroke: #2ca02c; stroke-width: 1.5; stroke-linecap: square"/>
   </g>
   <g id="line2d_67">
    <path d="M 496.209486 130.041059 
L 503.561265 134.012985 
L 510.913043 133.231098 
L 518.264822 132.843627 
L 525.616601 132.57149 
L 532.968379 132.008145 
L 540.320158 132.752789 
L 547.671937 133.782048 
L 555.023715 132.120427 
L 562.375494 130.807601 
L 569.727273 130.390366 
L 577.079051 128.961326 
L 584.43083 127.207347 
L 591.782609 126.64675 
L 599.134387 124.993179 
L 606.486166 123.755094 
" clip-path="url(#pdaadc73683)" style="fill: none; stroke: #d62728; stroke-width: 1.5; stroke-linecap: square"/>
   </g>
   <g id="line2d_68">
    <path d="M 496.209486 117.155579 
L 503.561265 129.261862 
L 510.913043 136.368261 
L 518.264822 145.570584 
L 525.616601 153.636692 
L 532.968379 158.427207 
L 540.320158 161.415906 
L 547.671937 164.695128 
L 555.023715 165.850787 
L 562.375494 166.455329 
L 569.727273 166.645398 
L 577.079051 163.269604 
L 584.43083 165.77561 
L 591.782609 165.513168 
L 599.134387 165.550596 
L 606.486166 165.363672 
" clip-path="url(#pdaadc73683)" style="fill: none; stroke: #9467bd; stroke-width: 1.5; stroke-linecap: square"/>
   </g>
   <g id="patch_18">
    <path d="M 490.695652 173.518125 
L 490.695652 22.318125 
" style="fill: none; stroke: #000000; stroke-width: 0.8; stroke-linejoin: miter; stroke-linecap: square"/>
   </g>
   <g id="patch_19">
    <path d="M 612 173.518125 
L 612 22.318125 
" style="fill: none; stroke: #000000; stroke-width: 0.8; stroke-linejoin: miter; stroke-linecap: square"/>
   </g>
   <g id="patch_20">
    <path d="M 490.695652 173.518125 
L 612 173.518125 
" style="fill: none; stroke: #000000; stroke-width: 0.8; stroke-linejoin: miter; stroke-linecap: square"/>
   </g>
   <g id="patch_21">
    <path d="M 490.695652 22.318125 
L 612 22.318125 
" style="fill: none; stroke: #000000; stroke-width: 0.8; stroke-linejoin: miter; stroke-linecap: square"/>
   </g>
   <g id="text_9">
    <!-- Increasing -->
    <g transform="translate(520.371889 16.318125) scale(0.12 -0.12)">
     <defs>
      <path id="DejaVuSans-49" d="M 628 4666 
L 1259 4666 
L 1259 0 
L 628 0 
L 628 4666 
z
" transform="scale(0.015625)"/>
      <path id="DejaVuSans-63" d="M 3122 3366 
L 3122 2828 
Q 2878 2963 2633 3030 
Q 2388 3097 2138 3097 
Q 1578 3097 1268 2742 
Q 959 2388 959 1747 
Q 959 1106 1268 751 
Q 1578 397 2138 397 
Q 2388 397 2633 464 
Q 2878 531 3122 666 
L 3122 134 
Q 2881 22 2623 -34 
Q 2366 -91 2075 -91 
Q 1284 -91 818 406 
Q 353 903 353 1747 
Q 353 2603 823 3093 
Q 1294 3584 2113 3584 
Q 2378 3584 2631 3529 
Q 2884 3475 3122 3366 
z
" transform="scale(0.015625)"/>
      <path id="DejaVuSans-67" d="M 2906 1791 
Q 2906 2416 2648 2759 
Q 2391 3103 1925 3103 
Q 1463 3103 1205 2759 
Q 947 2416 947 1791 
Q 947 1169 1205 825 
Q 1463 481 1925 481 
Q 2391 481 2648 825 
Q 2906 1169 2906 1791 
z
M 3481 434 
Q 3481 -459 3084 -895 
Q 2688 -1331 1869 -1331 
Q 1566 -1331 1297 -1286 
Q 1028 -1241 775 -1147 
L 775 -588 
Q 1028 -725 1275 -790 
Q 1522 -856 1778 -856 
Q 2344 -856 2625 -561 
Q 2906 -266 2906 331 
L 2906 616 
Q 2728 306 2450 153 
Q 2172 0 1784 0 
Q 1141 0 747 490 
Q 353 981 353 1791 
Q 353 2603 747 3093 
Q 1141 3584 1784 3584 
Q 2172 3584 2450 3431 
Q 2728 3278 2906 2969 
L 2906 3500 
L 3481 3500 
L 3481 434 
z
" transform="scale(0.015625)"/>
     </defs>
     <use xlink:href="#DejaVuSans-49"/>
     <use xlink:href="#DejaVuSans-6e" transform="translate(29.492188 0)"/>
     <use xlink:href="#DejaVuSans-63" transform="translate(92.871094 0)"/>
     <use xlink:href="#DejaVuSans-72" transform="translate(147.851562 0)"/>
     <use xlink:href="#DejaVuSans-65" transform="translate(186.714844 0)"/>
     <use xlink:href="#DejaVuSans-61" transform="translate(248.238281 0)"/>
     <use xlink:href="#DejaVuSans-73" transform="translate(309.517578 0)"/>
     <use xlink:href="#DejaVuSans-69" transform="translate(361.617188 0)"/>
     <use xlink:href="#DejaVuSans-6e" transform="translate(389.400391 0)"/>
     <use xlink:href="#DejaVuSans-67" transform="translate(452.779297 0)"/>
    </g>
   </g>
  </g>
  <g id="axes_5">
   <g id="patch_22">
    <path d="M 54 354.958125 
L 175.304348 354.958125 
L 175.304348 203.758125 
L 54 203.758125 
z
" style="fill: #ffffff"/>
   </g>
   <g id="matplotlib.axis_9">
    <g id="xtick_17">
     <g id="line2d_69">
      <g>
       <use xlink:href="#mb5403e5aa2" x="59.513834" y="354.958125" style="stroke: #000000; stroke-width: 0.8"/>
      </g>
     </g>
     <g id="text_10">
      <!-- $\mathdefault{2^{10}}$ -->
      <g transform="translate(51.663834 369.556562) scale(0.1 -0.1)">
       <defs>
        <path id="DejaVuSans-31" d="M 794 531 
L 1825 531 
L 1825 4091 
L 703 3866 
L 703 4441 
L 1819 4666 
L 2450 4666 
L 2450 531 
L 3481 531 
L 3481 0 
L 794 0 
L 794 531 
z
" transform="scale(0.015625)"/>
        <path id="DejaVuSans-30" d="M 2034 4250 
Q 1547 4250 1301 3770 
Q 1056 3291 1056 2328 
Q 1056 1369 1301 889 
Q 1547 409 2034 409 
Q 2525 409 2770 889 
Q 3016 1369 3016 2328 
Q 3016 3291 2770 3770 
Q 2525 4250 2034 4250 
z
M 2034 4750 
Q 2819 4750 3233 4129 
Q 3647 3509 3647 2328 
Q 3647 1150 3233 529 
Q 2819 -91 2034 -91 
Q 1250 -91 836 529 
Q 422 1150 422 2328 
Q 422 3509 836 4129 
Q 1250 4750 2034 4750 
z
" transform="scale(0.015625)"/>
       </defs>
       <use xlink:href="#DejaVuSans-32" transform="translate(0 0.765625)"/>
       <use xlink:href="#DejaVuSans-31" transform="translate(64.580078 39.046875) scale(0.7)"/>
       <use xlink:href="#DejaVuSans-30" transform="translate(109.116211 39.046875) scale(0.7)"/>
      </g>
     </g>
    </g>
    <g id="xtick_18">
     <g id="line2d_70">
      <g>
       <use xlink:href="#mb5403e5aa2" x="96.272727" y="354.958125" style="stroke: #000000; stroke-width: 0.8"/>
      </g>
     </g>
     <g id="text_11">
      <!-- $\mathdefault{2^{15}}$ -->
      <g transform="translate(88.422727 369.556562) scale(0.1 -0.1)">
       <use xlink:href="#DejaVuSans-32" transform="translate(0 0.684375)"/>
       <use xlink:href="#DejaVuSans-31" transform="translate(64.580078 38.965625) scale(0.7)"/>
       <use xlink:href="#DejaVuSans-35" transform="translate(109.116211 38.965625) scale(0.7)"/>
      </g>
     </g>
    </g>
    <g id="xtick_19">
     <g id="line2d_71">
      <g>
       <use xlink:href="#mb5403e5aa2" x="133.031621" y="354.958125" style="stroke: #000000; stroke-width: 0.8"/>
      </g>
     </g>
     <g id="text_12">
      <!-- $\mathdefault{2^{20}}$ -->
      <g transform="translate(125.181621 369.556562) scale(0.1 -0.1)">
       <use xlink:href="#DejaVuSans-32" transform="translate(0 0.765625)"/>
       <use xlink:href="#DejaVuSans-32" transform="translate(64.580078 39.046875) scale(0.7)"/>
       <use xlink:href="#DejaVuSans-30" transform="translate(109.116211 39.046875) scale(0.7)"/>
      </g>
     </g>
    </g>
    <g id="xtick_20">
     <g id="line2d_72">
      <g>
       <use xlink:href="#mb5403e5aa2" x="169.790514" y="354.958125" style="stroke: #000000; stroke-width: 0.8"/>
      </g>
     </g>
     <g id="text_13">
      <!-- $\mathdefault{2^{25}}$ -->
      <g transform="translate(161.940514 369.556562) scale(0.1 -0.1)">
       <use xlink:href="#DejaVuSans-32" transform="translate(0 0.765625)"/>
       <use xlink:href="#DejaVuSans-32" transform="translate(64.580078 39.046875) scale(0.7)"/>
       <use xlink:href="#DejaVuSans-35" transform="translate(109.116211 39.046875) scale(0.7)"/>
      </g>
     </g>
    </g>
   </g>
   <g id="matplotlib.axis_10">
    <g id="ytick_17">
     <g id="line2d_73">
      <path d="M 54 352.86169 
L 175.304348 352.86169 
" clip-path="url(#p3218099ee6)" style="fill: none; stroke: #b0b0b0; stroke-width: 0.8; stroke-linecap: square"/>
     </g>
     <g id="line2d_74">
      <g>
       <use xlink:href="#mb08a0a552c" x="54" y="352.86169" style="stroke: #000000; stroke-width: 0.8"/>
      </g>
     </g>
     <g id="text_14">
      <!-- $\mathdefault{2^{4}}$ -->
      <g transform="translate(35.8 356.660909) scale(0.1 -0.1)">
       <use xlink:href="#DejaVuSans-32" transform="translate(0 0.684375)"/>
       <use xlink:href="#DejaVuSans-34" transform="translate(64.580078 38.965625) scale(0.7)"/>
      </g>
     </g>
    </g>
    <g id="ytick_18">
     <g id="line2d_75">
      <path d="M 54 307.448963 
L 175.304348 307.448963 
" clip-path="url(#p3218099ee6)" style="fill: none; stroke: #b0b0b0; stroke-width: 0.8; stroke-linecap: square"/>
     </g>
     <g id="line2d_76">
      <g>
       <use xlink:href="#mb08a0a552c" x="54" y="307.448963" style="stroke: #000000; stroke-width: 0.8"/>
      </g>
     </g>
     <g id="text_15">
      <!-- $\mathdefault{2^{5}}$ -->
      <g transform="translate(35.8 311.248181) scale(0.1 -0.1)">
       <use xlink:href="#DejaVuSans-32" transform="translate(0 0.684375)"/>
       <use xlink:href="#DejaVuSans-35" transform="translate(64.580078 38.965625) scale(0.7)"/>
      </g>
     </g>
    </g>
    <g id="ytick_19">
     <g id="line2d_77">
      <path d="M 54 262.036235 
L 175.304348 262.036235 
" clip-path="url(#p3218099ee6)" style="fill: none; stroke: #b0b0b0; stroke-width: 0.8; stroke-linecap: square"/>
     </g>
     <g id="line2d_78">
      <g>
       <use xlink:href="#mb08a0a552c" x="54" y="262.036235" style="stroke: #000000; stroke-width: 0.8"/>
      </g>
     </g>
     <g id="text_16">
      <!-- $\mathdefault{2^{6}}$ -->
      <g transform="translate(35.8 265.835454) scale(0.1 -0.1)">
       <use xlink:href="#DejaVuSans-32" transform="translate(0 0.765625)"/>
       <use xlink:href="#DejaVuSans-36" transform="translate(64.580078 39.046875) scale(0.7)"/>
      </g>
     </g>
    </g>
    <g id="ytick_20">
     <g id="line2d_79">
      <path d="M 54 216.623508 
L 175.304348 216.623508 
" clip-path="url(#p3218099ee6)" style="fill: none; stroke: #b0b0b0; stroke-width: 0.8; stroke-linecap: square"/>
     </g>
     <g id="line2d_80">
      <g>
       <use xlink:href="#mb08a0a552c" x="54" y="216.623508" style="stroke: #000000; stroke-width: 0.8"/>
      </g>
     </g>
     <g id="text_17">
      <!-- $\mathdefault{2^{7}}$ -->
      <g transform="translate(35.8 220.422726) scale(0.1 -0.1)">
       <use xlink:href="#DejaVuSans-32" transform="translate(0 0.684375)"/>
       <use xlink:href="#DejaVuSans-37" transform="translate(64.580078 38.965625) scale(0.7)"/>
      </g>
     </g>
    </g>
    <g id="text_18">
     <!-- u64 -->
     <g transform="translate(29.720313 288.889375) rotate(-90) scale(0.1 -0.1)">
      <use xlink:href="#DejaVuSans-75"/>
      <use xlink:href="#DejaVuSans-36" transform="translate(63.378906 0)"/>
      <use xlink:href="#DejaVuSans-34" transform="translate(127.001953 0)"/>
     </g>
    </g>
   </g>
   <g id="line2d_81">
    <path d="M 59.513834 309.170729 
L 66.865613 306.837605 
L 74.217391 301.840461 
L 81.56917 295.726031 
L 88.920949 290.433188 
L 96.272727 282.514967 
L 103.624506 272.359571 
L 110.976285 259.69341 
L 118.328063 246.780908 
L 125.679842 227.024786 
" clip-path="url(#p3218099ee6)" style="fill: none; stroke: #1f77b4; stroke-width: 1.5; stroke-linecap: square"/>
   </g>
   <g id="line2d_82">
    <path d="M 59.513834 269.878516 
L 66.865613 265.645116 
L 74.217391 259.240618 
L 81.56917 254.647883 
L 88.920949 249.58973 
L 96.272727 243.068076 
L 103.624506 237.431911 
L 110.976285 231.821517 
" clip-path="url(#p3218099ee6)" style="fill: none; stroke: #ff7f0e; stroke-width: 1.5; stroke-linecap: square"/>
   </g>
   <g id="line2d_83">
    <path d="M 59.513834 315.198999 
L 66.865613 313.605394 
L 74.217391 310.358504 
L 81.56917 306.37273 
L 88.920949 301.727792 
L 96.272727 296.017712 
L 103.624506 287.696163 
L 110.976285 278.656732 
L 118.328063 268.610079 
L 125.679842 254.465232 
L 133.031621 245.894772 
L 140.383399 231.512414 
" clip-path="url(#p3218099ee6)" style="fill: none; stroke: #2ca02c; stroke-width: 1.5; stroke-linecap: square"/>
   </g>
   <g id="line2d_84">
    <path d="M 59.513834 307.142571 
L 66.865613 306.716015 
L 74.217391 308.898049 
L 81.56917 296.379827 
L 88.920949 295.537985 
L 96.272727 296.483657 
L 103.624506 294.45448 
L 110.976285 287.469383 
L 118.328063 291.757126 
L 125.679842 291.291498 
L 133.031621 287.18325 
L 140.383399 285.477569 
L 147.735178 283.317481 
L 155.086957 276.057189 
L 162.438735 275.438804 
L 169.790514 275.138038 
" clip-path="url(#p3218099ee6)" style="fill: none; stroke: #d62728; stroke-width: 1.5; stroke-linecap: square"/>
   </g>
   <g id="line2d_85">
    <path d="M 59.513834 252.303419 
L 66.865613 253.631537 
L 74.217391 255.38362 
L 81.56917 255.940896 
L 88.920949 256.390155 
L 96.272727 255.950224 
L 103.624506 255.838373 
L 110.976285 255.513228 
L 118.328063 255.079127 
L 125.679842 254.137739 
L 133.031621 253.775767 
L 140.383399 251.06227 
L 147.735178 251.06227 
L 155.086957 250.785792 
L 162.438735 251.426928 
L 169.790514 250.304744 
" clip-path="url(#p3218099ee6)" style="fill: none; stroke: #9467bd; stroke-width: 1.5; stroke-linecap: square"/>
   </g>
   <g id="patch_23">
    <path d="M 54 354.958125 
L 54 203.758125 
" style="fill: none; stroke: #000000; stroke-width: 0.8; stroke-linejoin: miter; stroke-linecap: square"/>
   </g>
   <g id="patch_24">
    <path d="M 175.304348 354.958125 
L 175.304348 203.758125 
" style="fill: none; stroke: #000000; stroke-width: 0.8; stroke-linejoin: miter; stroke-linecap: square"/>
   </g>
   <g id="patch_25">
    <path d="M 54 354.958125 
L 175.304348 354.958125 
" style="fill: none; stroke: #000000; stroke-width: 0.8; stroke-linejoin: miter; stroke-linecap: square"/>
   </g>
   <g id="patch_26">
    <path d="M 54 203.758125 
L 175.304348 203.758125 
" style="fill: none; stroke: #000000; stroke-width: 0.8; stroke-linejoin: miter; stroke-linecap: square"/>
   </g>
  </g>
  <g id="axes_6">
   <g id="patch_27">
    <path d="M 199.565217 354.958125 
L 320.869565 354.958125 
L 320.869565 203.758125 
L 199.565217 203.758125 
z
" style="fill: #ffffff"/>
   </g>
   <g id="matplotlib.axis_11">
    <g id="xtick_21">
     <g id="line2d_86">
      <g>
       <use xlink:href="#mb5403e5aa2" x="205.079051" y="354.958125" style="stroke: #000000; stroke-width: 0.8"/>
      </g>
     </g>
     <g id="text_19">
      <!-- $\mathdefault{2^{10}}$ -->
      <g transform="translate(197.229051 369.556562) scale(0.1 -0.1)">
       <use xlink:href="#DejaVuSans-32" transform="translate(0 0.765625)"/>
       <use xlink:href="#DejaVuSans-31" transform="translate(64.580078 39.046875) scale(0.7)"/>
       <use xlink:href="#DejaVuSans-30" transform="translate(109.116211 39.046875) scale(0.7)"/>
      </g>
     </g>
    </g>
    <g id="xtick_22">
     <g id="line2d_87">
      <g>
       <use xlink:href="#mb5403e5aa2" x="241.837945" y="354.958125" style="stroke: #000000; stroke-width: 0.8"/>
      </g>
     </g>
     <g id="text_20">
      <!-- $\mathdefault{2^{15}}$ -->
      <g transform="translate(233.987945 369.556562) scale(0.1 -0.1)">
       <use xlink:href="#DejaVuSans-32" transform="translate(0 0.684375)"/>
       <use xlink:href="#DejaVuSans-31" transform="translate(64.580078 38.965625) scale(0.7)"/>
       <use xlink:href="#DejaVuSans-35" transform="translate(109.116211 38.965625) scale(0.7)"/>
      </g>
     </g>
    </g>
    <g id="xtick_23">
     <g id="line2d_88">
      <g>
       <use xlink:href="#mb5403e5aa2" x="278.596838" y="354.958125" style="stroke: #000000; stroke-width: 0.8"/>
      </g>
     </g>
     <g id="text_21">
      <!-- $\mathdefault{2^{20}}$ -->
      <g transform="translate(270.746838 369.556562) scale(0.1 -0.1)">
       <use xlink:href="#DejaVuSans-32" transform="translate(0 0.765625)"/>
       <use xlink:href="#DejaVuSans-32" transform="translate(64.580078 39.046875) scale(0.7)"/>
       <use xlink:href="#DejaVuSans-30" transform="translate(109.116211 39.046875) scale(0.7)"/>
      </g>
     </g>
    </g>
    <g id="xtick_24">
     <g id="line2d_89">
      <g>
       <use xlink:href="#mb5403e5aa2" x="315.355731" y="354.958125" style="stroke: #000000; stroke-width: 0.8"/>
      </g>
     </g>
     <g id="text_22">
      <!-- $\mathdefault{2^{25}}$ -->
      <g transform="translate(307.505731 369.556562) scale(0.1 -0.1)">
       <use xlink:href="#DejaVuSans-32" transform="translate(0 0.765625)"/>
       <use xlink:href="#DejaVuSans-32" transform="translate(64.580078 39.046875) scale(0.7)"/>
       <use xlink:href="#DejaVuSans-35" transform="translate(109.116211 39.046875) scale(0.7)"/>
      </g>
     </g>
    </g>
   </g>
   <g id="matplotlib.axis_12">
    <g id="ytick_21">
     <g id="line2d_90">
      <path d="M 199.565217 352.86169 
L 320.869565 352.86169 
" clip-path="url(#p6db9c0ee43)" style="fill: none; stroke: #b0b0b0; stroke-width: 0.8; stroke-linecap: square"/>
     </g>
     <g id="line2d_91">
      <g>
       <use xlink:href="#mb08a0a552c" x="199.565217" y="352.86169" style="stroke: #000000; stroke-width: 0.8"/>
      </g>
     </g>
    </g>
    <g id="ytick_22">
     <g id="line2d_92">
      <path d="M 199.565217 307.448963 
L 320.869565 307.448963 
" clip-path="url(#p6db9c0ee43)" style="fill: none; stroke: #b0b0b0; stroke-width: 0.8; stroke-linecap: square"/>
     </g>
     <g id="line2d_93">
      <g>
       <use xlink:href="#mb08a0a552c" x="199.565217" y="307.448963" style="stroke: #000000; stroke-width: 0.8"/>
      </g>
     </g>
    </g>
    <g id="ytick_23">
     <g id="line2d_94">
      <path d="M 199.565217 262.036235 
L 320.869565 262.036235 
" clip-path="url(#p6db9c0ee43)" style="fill: none; stroke: #b0b0b0; stroke-width: 0.8; stroke-linecap: square"/>
     </g>
     <g id="line2d_95">
      <g>
       <use xlink:href="#mb08a0a552c" x="199.565217" y="262.036235" style="stroke: #000000; stroke-width: 0.8"/>
      </g>
     </g>
    </g>
    <g id="ytick_24">
     <g id="line2d_96">
      <path d="M 199.565217 216.623508 
L 320.869565 216.623508 
" clip-path="url(#p6db9c0ee43)" style="fill: none; stroke: #b0b0b0; stroke-width: 0.8; stroke-linecap: square"/>
     </g>
     <g id="line2d_97">
      <g>
       <use xlink:href="#mb08a0a552c" x="199.565217" y="216.623508" style="stroke: #000000; stroke-width: 0.8"/>
      </g>
     </g>
    </g>
   </g>
   <g id="line2d_98">
    <path d="M 205.079051 322.094193 
L 212.43083 315.568759 
L 219.782609 309.381259 
L 227.134387 303.496309 
L 234.486166 297.408039 
L 241.837945 291.131701 
L 249.189723 283.772362 
L 256.541502 276.52803 
L 263.893281 269.77475 
L 271.245059 263.495788 
L 278.596838 258.180029 
L 285.948617 249.818706 
L 293.300395 240.557147 
L 300.652174 227.542755 
" clip-path="url(#p6db9c0ee43)" style="fill: none; stroke: #1f77b4; stroke-width: 1.5; stroke-linecap: square"/>
   </g>
   <g id="line2d_99">
    <path d="M 205.079051 292.633074 
L 212.43083 292.047809 
L 219.782609 287.243385 
L 227.134387 285.477569 
L 234.486166 283.701078 
L 241.837945 280.137776 
L 249.189723 277.948153 
L 256.541502 275.892558 
L 263.893281 272.623752 
L 271.245059 269.878516 
L 278.596838 268.42925 
L 285.948617 264.317391 
L 293.300395 260.328632 
L 300.652174 255.180467 
L 308.003953 250.94981 
L 315.355731 246.635082 
" clip-path="url(#p6db9c0ee43)" style="fill: none; stroke: #ff7f0e; stroke-width: 1.5; stroke-linecap: square"/>
   </g>
   <g id="line2d_100">
    <path d="M 205.079051 320.17674 
L 212.43083 315.661526 
L 219.782609 313.067818 
L 227.134387 307.839128 
L 234.486166 303.786078 
L 241.837945 298.864421 
L 249.189723 293.869431 
L 256.541502 288.35065 
L 263.893281 282.907956 
L 271.245059 277.88293 
L 278.596838 272.539579 
L 285.948617 265.591055 
L 293.300395 255.411371 
L 300.652174 247.163216 
L 308.003953 239.80913 
L 315.355731 232.21645 
" clip-path="url(#p6db9c0ee43)" style="fill: none; stroke: #2ca02c; stroke-width: 1.5; stroke-linecap: square"/>
   </g>
   <g id="line2d_101">
    <path d="M 205.079051 328.489832 
L 212.43083 329.686257 
L 219.782609 329.170826 
L 227.134387 328.292535 
L 234.486166 332.6862 
L 241.837945 328.46161 
L 249.189723 327.204053 
L 256.541502 327.038188 
L 263.893281 327.204053 
L 271.245059 321.940758 
L 278.596838 321.330586 
L 285.948617 325.026313 
L 293.300395 321.103229 
L 300.652174 318.386353 
L 308.003953 319.042863 
L 315.355731 319.140686 
" clip-path="url(#p6db9c0ee43)" style="fill: none; stroke: #d62728; stroke-width: 1.5; stroke-linecap: square"/>
   </g>
   <g id="line2d_102">
    <path clip-path="url(#p6db9c0ee43)" style="fill: none; stroke: #9467bd; stroke-width: 1.5; stroke-linecap: square"/>
   </g>
   <g id="patch_28">
    <path d="M 199.565217 354.958125 
L 199.565217 203.758125 
" style="fill: none; stroke: #000000; stroke-width: 0.8; stroke-linejoin: miter; stroke-linecap: square"/>
   </g>
   <g id="patch_29">
    <path d="M 320.869565 354.958125 
L 320.869565 203.758125 
" style="fill: none; stroke: #000000; stroke-width: 0.8; stroke-linejoin: miter; stroke-linecap: square"/>
   </g>
   <g id="patch_30">
    <path d="M 199.565217 354.958125 
L 320.869565 354.958125 
" style="fill: none; stroke: #000000; stroke-width: 0.8; stroke-linejoin: miter; stroke-linecap: square"/>
   </g>
   <g id="patch_31">
    <path d="M 199.565217 203.758125 
L 320.869565 203.758125 
" style="fill: none; stroke: #000000; stroke-width: 0.8; stroke-linejoin: miter; stroke-linecap: square"/>
   </g>
  </g>
  <g id="axes_7">
   <g id="patch_32">
    <path d="M 345.130435 354.958125 
L 466.434783 354.958125 
L 466.434783 203.758125 
L 345.130435 203.758125 
z
" style="fill: #ffffff"/>
   </g>
   <g id="matplotlib.axis_13">
    <g id="xtick_25">
     <g id="line2d_103">
      <g>
       <use xlink:href="#mb5403e5aa2" x="350.644269" y="354.958125" style="stroke: #000000; stroke-width: 0.8"/>
      </g>
     </g>
     <g id="text_23">
      <!-- $\mathdefault{2^{10}}$ -->
      <g transform="translate(342.794269 369.556562) scale(0.1 -0.1)">
       <use xlink:href="#DejaVuSans-32" transform="translate(0 0.765625)"/>
       <use xlink:href="#DejaVuSans-31" transform="translate(64.580078 39.046875) scale(0.7)"/>
       <use xlink:href="#DejaVuSans-30" transform="translate(109.116211 39.046875) scale(0.7)"/>
      </g>
     </g>
    </g>
    <g id="xtick_26">
     <g id="line2d_104">
      <g>
       <use xlink:href="#mb5403e5aa2" x="387.403162" y="354.958125" style="stroke: #000000; stroke-width: 0.8"/>
      </g>
     </g>
     <g id="text_24">
      <!-- $\mathdefault{2^{15}}$ -->
      <g transform="translate(379.553162 369.556562) scale(0.1 -0.1)">
       <use xlink:href="#DejaVuSans-32" transform="translate(0 0.684375)"/>
       <use xlink:href="#DejaVuSans-31" transform="translate(64.580078 38.965625) scale(0.7)"/>
       <use xlink:href="#DejaVuSans-35" transform="translate(109.116211 38.965625) scale(0.7)"/>
      </g>
     </g>
    </g>
    <g id="xtick_27">
     <g id="line2d_105">
      <g>
       <use xlink:href="#mb5403e5aa2" x="424.162055" y="354.958125" style="stroke: #000000; stroke-width: 0.8"/>
      </g>
     </g>
     <g id="text_25">
      <!-- $\mathdefault{2^{20}}$ -->
      <g transform="translate(416.312055 369.556562) scale(0.1 -0.1)">
       <use xlink:href="#DejaVuSans-32" transform="translate(0 0.765625)"/>
       <use xlink:href="#DejaVuSans-32" transform="translate(64.580078 39.046875) scale(0.7)"/>
       <use xlink:href="#DejaVuSans-30" transform="translate(109.116211 39.046875) scale(0.7)"/>
      </g>
     </g>
    </g>
    <g id="xtick_28">
     <g id="line2d_106">
      <g>
       <use xlink:href="#mb5403e5aa2" x="460.920949" y="354.958125" style="stroke: #000000; stroke-width: 0.8"/>
      </g>
     </g>
     <g id="text_26">
      <!-- $\mathdefault{2^{25}}$ -->
      <g transform="translate(453.070949 369.556562) scale(0.1 -0.1)">
       <use xlink:href="#DejaVuSans-32" transform="translate(0 0.765625)"/>
       <use xlink:href="#DejaVuSans-32" transform="translate(64.580078 39.046875) scale(0.7)"/>
       <use xlink:href="#DejaVuSans-35" transform="translate(109.116211 39.046875) scale(0.7)"/>
      </g>
     </g>
    </g>
   </g>
   <g id="matplotlib.axis_14">
    <g id="ytick_25">
     <g id="line2d_107">
      <path d="M 345.130435 352.86169 
L 466.434783 352.86169 
" clip-path="url(#pc6ebbab18c)" style="fill: none; stroke: #b0b0b0; stroke-width: 0.8; stroke-linecap: square"/>
     </g>
     <g id="line2d_108">
      <g>
       <use xlink:href="#mb08a0a552c" x="345.130435" y="352.86169" style="stroke: #000000; stroke-width: 0.8"/>
      </g>
     </g>
    </g>
    <g id="ytick_26">
     <g id="line2d_109">
      <path d="M 345.130435 307.448963 
L 466.434783 307.448963 
" clip-path="url(#pc6ebbab18c)" style="fill: none; stroke: #b0b0b0; stroke-width: 0.8; stroke-linecap: square"/>
     </g>
     <g id="line2d_110">
      <g>
       <use xlink:href="#mb08a0a552c" x="345.130435" y="307.448963" style="stroke: #000000; stroke-width: 0.8"/>
      </g>
     </g>
    </g>
    <g id="ytick_27">
     <g id="line2d_111">
      <path d="M 345.130435 262.036235 
L 466.434783 262.036235 
" clip-path="url(#pc6ebbab18c)" style="fill: none; stroke: #b0b0b0; stroke-width: 0.8; stroke-linecap: square"/>
     </g>
     <g id="line2d_112">
      <g>
       <use xlink:href="#mb08a0a552c" x="345.130435" y="262.036235" style="stroke: #000000; stroke-width: 0.8"/>
      </g>
     </g>
    </g>
    <g id="ytick_28">
     <g id="line2d_113">
      <path d="M 345.130435 216.623508 
L 466.434783 216.623508 
" clip-path="url(#pc6ebbab18c)" style="fill: none; stroke: #b0b0b0; stroke-width: 0.8; stroke-linecap: square"/>
     </g>
     <g id="line2d_114">
      <g>
       <use xlink:href="#mb08a0a552c" x="345.130435" y="216.623508" style="stroke: #000000; stroke-width: 0.8"/>
      </g>
     </g>
    </g>
   </g>
   <g id="line2d_115">
    <path d="M 350.644269 343.314437 
L 357.996047 340.542295 
L 365.347826 334.362691 
L 372.699605 327.509234 
L 380.051383 320.500772 
L 387.403162 313.493034 
L 394.754941 305.413054 
L 402.106719 297.005289 
L 409.458498 286.988193 
L 416.810277 278.749149 
L 424.162055 267.822609 
L 431.513834 259.713168 
L 438.865613 255.578128 
L 446.217391 236.628186 
L 453.56917 224.177955 
" clip-path="url(#pc6ebbab18c)" style="fill: none; stroke: #1f77b4; stroke-width: 1.5; stroke-linecap: square"/>
   </g>
   <g id="line2d_116">
    <path d="M 350.644269 283.929459 
L 357.996047 281.501337 
L 365.347826 274.925828 
L 372.699605 271.810612 
L 380.051383 268.996007 
L 387.403162 265.063603 
L 394.754941 262.964103 
L 402.106719 263.485321 
L 409.458498 258.09322 
L 416.810277 255.272731 
L 424.162055 253.33506 
L 431.513834 252.462441 
L 438.865613 250.24486 
L 446.217391 247.473955 
L 453.56917 244.626871 
L 460.920949 246.328287 
" clip-path="url(#pc6ebbab18c)" style="fill: none; stroke: #ff7f0e; stroke-width: 1.5; stroke-linecap: square"/>
   </g>
   <g id="line2d_117">
    <path d="M 350.644269 340.91658 
L 357.996047 338.07847 
L 365.347826 329.342186 
L 372.699605 327.537049 
L 380.051383 320.901794 
L 387.403162 317.592784 
L 394.754941 310.723381 
L 402.106719 307.020414 
L 409.458498 298.399127 
L 416.810277 294.92631 
L 424.162055 286.793714 
L 431.513834 283.558743 
L 438.865613 269.246942 
L 446.217391 264.700096 
L 453.56917 256.361986 
L 460.920949 251.08825 
" clip-path="url(#pc6ebbab18c)" style="fill: none; stroke: #2ca02c; stroke-width: 1.5; stroke-linecap: square"/>
   </g>
   <g id="line2d_118">
    <path d="M 350.644269 297.707324 
L 357.996047 305.254466 
L 365.347826 302.293082 
L 372.699605 298.702984 
L 380.051383 299.750406 
L 387.403162 296.813542 
L 394.754941 294.45448 
L 402.106719 293.60371 
L 409.458498 290.16529 
L 416.810277 287.847787 
L 424.162055 285.565471 
L 431.513834 283.133584 
L 438.865613 281.680702 
L 446.217391 276.464205 
L 453.56917 276.51526 
L 460.920949 273.434927 
" clip-path="url(#pc6ebbab18c)" style="fill: none; stroke: #d62728; stroke-width: 1.5; stroke-linecap: square"/>
   </g>
   <g id="line2d_119">
    <path d="M 350.644269 322.556666 
L 357.996047 324.043079 
L 365.347826 321.002434 
L 372.699605 320.301178 
L 380.051383 318.000392 
L 387.403162 315.707959 
L 394.754941 313.650391 
L 402.106719 311.198612 
L 409.458498 309.02376 
L 416.810277 307.122195 
L 424.162055 304.428118 
L 431.513834 302.066381 
L 438.865613 299.714008 
L 446.217391 297.566314 
L 453.56917 295.708913 
L 460.920949 294.036055 
" clip-path="url(#pc6ebbab18c)" style="fill: none; stroke: #9467bd; stroke-width: 1.5; stroke-linecap: square"/>
   </g>
   <g id="patch_33">
    <path d="M 345.130435 354.958125 
L 345.130435 203.758125 
" style="fill: none; stroke: #000000; stroke-width: 0.8; stroke-linejoin: miter; stroke-linecap: square"/>
   </g>
   <g id="patch_34">
    <path d="M 466.434783 354.958125 
L 466.434783 203.758125 
" style="fill: none; stroke: #000000; stroke-width: 0.8; stroke-linejoin: miter; stroke-linecap: square"/>
   </g>
   <g id="patch_35">
    <path d="M 345.130435 354.958125 
L 466.434783 354.958125 
" style="fill: none; stroke: #000000; stroke-width: 0.8; stroke-linejoin: miter; stroke-linecap: square"/>
   </g>
   <g id="patch_36">
    <path d="M 345.130435 203.758125 
L 466.434783 203.758125 
" style="fill: none; stroke: #000000; stroke-width: 0.8; stroke-linejoin: miter; stroke-linecap: square"/>
   </g>
  </g>
  <g id="axes_8">
   <g id="patch_37">
    <path d="M 490.695652 354.958125 
L 612 354.958125 
L 612 203.758125 
L 490.695652 203.758125 
z
" style="fill: #ffffff"/>
   </g>
   <g id="matplotlib.axis_15">
    <g id="xtick_29">
     <g id="line2d_120">
      <g>
       <use xlink:href="#mb5403e5aa2" x="496.209486" y="354.958125" style="stroke: #000000; stroke-width: 0.8"/>
      </g>
     </g>
     <g id="text_27">
      <!-- $\mathdefault{2^{10}}$ -->
      <g transform="translate(488.359486 369.556562) scale(0.1 -0.1)">
       <use xlink:href="#DejaVuSans-32" transform="translate(0 0.765625)"/>
       <use xlink:href="#DejaVuSans-31" transform="translate(64.580078 39.046875) scale(0.7)"/>
       <use xlink:href="#DejaVuSans-30" transform="translate(109.116211 39.046875) scale(0.7)"/>
      </g>
     </g>
    </g>
    <g id="xtick_30">
     <g id="line2d_121">
      <g>
       <use xlink:href="#mb5403e5aa2" x="532.968379" y="354.958125" style="stroke: #000000; stroke-width: 0.8"/>
      </g>
     </g>
     <g id="text_28">
      <!-- $\mathdefault{2^{15}}$ -->
      <g transform="translate(525.118379 369.556562) scale(0.1 -0.1)">
       <use xlink:href="#DejaVuSans-32" transform="translate(0 0.684375)"/>
       <use xlink:href="#DejaVuSans-31" transform="translate(64.580078 38.965625) scale(0.7)"/>
       <use xlink:href="#DejaVuSans-35" transform="translate(109.116211 38.965625) scale(0.7)"/>
      </g>
     </g>
    </g>
    <g id="xtick_31">
     <g id="line2d_122">
      <g>
       <use xlink:href="#mb5403e5aa2" x="569.727273" y="354.958125" style="stroke: #000000; stroke-width: 0.8"/>
      </g>
     </g>
     <g id="text_29">
      <!-- $\mathdefault{2^{20}}$ -->
      <g transform="translate(561.877273 369.556562) scale(0.1 -0.1)">
       <use xlink:href="#DejaVuSans-32" transform="translate(0 0.765625)"/>
       <use xlink:href="#DejaVuSans-32" transform="translate(64.580078 39.046875) scale(0.7)"/>
       <use xlink:href="#DejaVuSans-30" transform="translate(109.116211 39.046875) scale(0.7)"/>
      </g>
     </g>
    </g>
    <g id="xtick_32">
     <g id="line2d_123">
      <g>
       <use xlink:href="#mb5403e5aa2" x="606.486166" y="354.958125" style="stroke: #000000; stroke-width: 0.8"/>
      </g>
     </g>
     <g id="text_30">
      <!-- $\mathdefault{2^{25}}$ -->
      <g transform="translate(598.636166 369.556562) scale(0.1 -0.1)">
       <use xlink:href="#DejaVuSans-32" transform="translate(0 0.765625)"/>
       <use xlink:href="#DejaVuSans-32" transform="translate(64.580078 39.046875) scale(0.7)"/>
       <use xlink:href="#DejaVuSans-35" transform="translate(109.116211 39.046875) scale(0.7)"/>
      </g>
     </g>
    </g>
   </g>
   <g id="matplotlib.axis_16">
    <g id="ytick_29">
     <g id="line2d_124">
      <path d="M 490.695652 352.86169 
L 612 352.86169 
" clip-path="url(#pc5fe07509d)" style="fill: none; stroke: #b0b0b0; stroke-width: 0.8; stroke-linecap: square"/>
     </g>
     <g id="line2d_125">
      <g>
       <use xlink:href="#mb08a0a552c" x="490.695652" y="352.86169" style="stroke: #000000; stroke-width: 0.8"/>
      </g>
     </g>
    </g>
    <g id="ytick_30">
     <g id="line2d_126">
      <path d="M 490.695652 307.448963 
L 612 307.448963 
" clip-path="url(#pc5fe07509d)" style="fill: none; stroke: #b0b0b0; stroke-width: 0.8; stroke-linecap: square"/>
     </g>
     <g id="line2d_127">
      <g>
       <use xlink:href="#mb08a0a552c" x="490.695652" y="307.448963" style="stroke: #000000; stroke-width: 0.8"/>
      </g>
     </g>
    </g>
    <g id="ytick_31">
     <g id="line2d_128">
      <path d="M 490.695652 262.036235 
L 612 262.036235 
" clip-path="url(#pc5fe07509d)" style="fill: none; stroke: #b0b0b0; stroke-width: 0.8; stroke-linecap: square"/>
     </g>
     <g id="line2d_129">
      <g>
       <use xlink:href="#mb08a0a552c" x="490.695652" y="262.036235" style="stroke: #000000; stroke-width: 0.8"/>
      </g>
     </g>
    </g>
    <g id="ytick_32">
     <g id="line2d_130">
      <path d="M 490.695652 216.623508 
L 612 216.623508 
" clip-path="url(#pc5fe07509d)" style="fill: none; stroke: #b0b0b0; stroke-width: 0.8; stroke-linecap: square"/>
     </g>
     <g id="line2d_131">
      <g>
       <use xlink:href="#mb08a0a552c" x="490.695652" y="216.623508" style="stroke: #000000; stroke-width: 0.8"/>
      </g>
     </g>
    </g>
   </g>
   <g id="line2d_132">
    <path d="M 496.209486 318.60446 
L 503.561265 315.037883 
L 510.913043 311.047028 
L 518.264822 304.800652 
L 525.616601 296.952939 
L 532.968379 288.060652 
L 540.320158 276.489728 
L 547.671937 263.005649 
L 555.023715 249.302524 
L 562.375494 235.621807 
L 569.727273 224.436948 
" clip-path="url(#pc5fe07509d)" style="fill: none; stroke: #1f77b4; stroke-width: 1.5; stroke-linecap: square"/>
   </g>
   <g id="line2d_133">
    <path d="M 496.209486 273.434927 
L 503.561265 267.610491 
L 510.913043 260.980146 
L 518.264822 255.652378 
L 525.616601 250.279073 
L 532.968379 243.869985 
L 540.320158 238.082066 
L 547.671937 232.346457 
" clip-path="url(#pc5fe07509d)" style="fill: none; stroke: #ff7f0e; stroke-width: 1.5; stroke-linecap: square"/>
   </g>
   <g id="line2d_134">
    <path d="M 496.209486 327.259435 
L 503.561265 325.753237 
L 510.913043 319.829565 
L 518.264822 316.690728 
L 525.616601 309.825585 
L 532.968379 304.310914 
L 540.320158 293.836156 
L 547.671937 283.958063 
L 555.023715 271.443239 
L 562.375494 259.802151 
L 569.727273 249.285669 
L 577.079051 233.105624 
L 584.43083 210.630852 
" clip-path="url(#pc5fe07509d)" style="fill: none; stroke: #2ca02c; stroke-width: 1.5; stroke-linecap: square"/>
   </g>
   <g id="line2d_135">
    <path d="M 496.209486 301.59659 
L 503.561265 301.87806 
L 510.913043 299.550466 
L 518.264822 298.90035 
L 525.616601 293.42165 
L 532.968379 293.753045 
L 540.320158 290.259717 
L 547.671937 288.27421 
L 555.023715 287.063146 
L 562.375494 283.800897 
L 569.727273 280.707019 
L 577.079051 279.106839 
L 584.43083 276.438692 
L 591.782609 274.726727 
L 599.134387 271.834384 
L 606.486166 269.913141 
" clip-path="url(#pc5fe07509d)" style="fill: none; stroke: #d62728; stroke-width: 1.5; stroke-linecap: square"/>
   </g>
   <g id="line2d_136">
    <path d="M 496.209486 277.260068 
L 503.561265 277.804747 
L 510.913043 276.950844 
L 518.264822 277.467032 
L 525.616601 278.078794 
L 532.968379 277.454077 
L 540.320158 277.20843 
L 547.671937 276.51526 
L 555.023715 275.652685 
L 562.375494 274.938292 
L 569.727273 274.305635 
L 577.079051 272.383544 
L 584.43083 272.299678 
L 591.782609 271.834384 
L 599.134387 271.703743 
L 606.486166 270.913594 
" clip-path="url(#pc5fe07509d)" style="fill: none; stroke: #9467bd; stroke-width: 1.5; stroke-linecap: square"/>
   </g>
   <g id="patch_38">
    <path d="M 490.695652 354.958125 
L 490.695652 203.758125 
" style="fill: none; stroke: #000000; stroke-width: 0.8; stroke-linejoin: miter; stroke-linecap: square"/>
   </g>
   <g id="patch_39">
    <path d="M 612 354.958125 
L 612 203.758125 
" style="fill: none; stroke: #000000; stroke-width: 0.8; stroke-linejoin: miter; stroke-linecap: square"/>
   </g>
   <g id="patch_40">
    <path d="M 490.695652 354.958125 
L 612 354.958125 
" style="fill: none; stroke: #000000; stroke-width: 0.8; stroke-linejoin: miter; stroke-linecap: square"/>
   </g>
   <g id="patch_41">
    <path d="M 490.695652 203.758125 
L 612 203.758125 
" style="fill: none; stroke: #000000; stroke-width: 0.8; stroke-linejoin: miter; stroke-linecap: square"/>
   </g>
  </g>
  <g id="text_31">
   <!-- n = max #elements in heap -->
   <g transform="translate(239.218125 387.0225) scale(0.12 -0.12)">
    <defs>
     <path id="DejaVuSans-20" transform="scale(0.015625)"/>
     <path id="DejaVuSans-3d" d="M 678 2906 
L 4684 2906 
L 4684 2381 
L 678 2381 
L 678 2906 
z
M 678 1631 
L 4684 1631 
L 4684 1100 
L 678 1100 
L 678 1631 
z
" transform="scale(0.015625)"/>
     <path id="DejaVuSans-78" d="M 3513 3500 
L 2247 1797 
L 3578 0 
L 2900 0 
L 1881 1375 
L 863 0 
L 184 0 
L 1544 1831 
L 300 3500 
L 978 3500 
L 1906 2253 
L 2834 3500 
L 3513 3500 
z
" transform="scale(0.015625)"/>
     <path id="DejaVuSans-23" d="M 3272 2816 
L 2363 2816 
L 2100 1772 
L 3016 1772 
L 3272 2816 
z
M 2803 4594 
L 2478 3297 
L 3391 3297 
L 3719 4594 
L 4219 4594 
L 3897 3297 
L 4872 3297 
L 4872 2816 
L 3775 2816 
L 3519 1772 
L 4513 1772 
L 4513 1294 
L 3397 1294 
L 3072 0 
L 2572 0 
L 2894 1294 
L 1978 1294 
L 1656 0 
L 1153 0 
L 1478 1294 
L 494 1294 
L 494 1772 
L 1594 1772 
L 1856 2816 
L 850 2816 
L 850 3297 
L 1978 3297 
L 2297 4594 
L 2803 4594 
z
" transform="scale(0.015625)"/>
     <path id="DejaVuSans-6c" d="M 603 4863 
L 1178 4863 
L 1178 0 
L 603 0 
L 603 4863 
z
" transform="scale(0.015625)"/>
     <path id="DejaVuSans-68" d="M 3513 2113 
L 3513 0 
L 2938 0 
L 2938 2094 
Q 2938 2591 2744 2837 
Q 2550 3084 2163 3084 
Q 1697 3084 1428 2787 
Q 1159 2491 1159 1978 
L 1159 0 
L 581 0 
L 581 4863 
L 1159 4863 
L 1159 2956 
Q 1366 3272 1645 3428 
Q 1925 3584 2291 3584 
Q 2894 3584 3203 3211 
Q 3513 2838 3513 2113 
z
" transform="scale(0.015625)"/>
    </defs>
    <use xlink:href="#DejaVuSans-6e"/>
    <use xlink:href="#DejaVuSans-20" transform="translate(63.378906 0)"/>
    <use xlink:href="#DejaVuSans-3d" transform="translate(95.166016 0)"/>
    <use xlink:href="#DejaVuSans-20" transform="translate(178.955078 0)"/>
    <use xlink:href="#DejaVuSans-6d" transform="translate(210.742188 0)"/>
    <use xlink:href="#DejaVuSans-61" transform="translate(308.154297 0)"/>
    <use xlink:href="#DejaVuSans-78" transform="translate(369.433594 0)"/>
    <use xlink:href="#DejaVuSans-20" transform="translate(428.613281 0)"/>
    <use xlink:href="#DejaVuSans-23" transform="translate(460.400391 0)"/>
    <use xlink:href="#DejaVuSans-65" transform="translate(544.189453 0)"/>
    <use xlink:href="#DejaVuSans-6c" transform="translate(605.712891 0)"/>
    <use xlink:href="#DejaVuSans-65" transform="translate(633.496094 0)"/>
    <use xlink:href="#DejaVuSans-6d" transform="translate(695.019531 0)"/>
    <use xlink:href="#DejaVuSans-65" transform="translate(792.431641 0)"/>
    <use xlink:href="#DejaVuSans-6e" transform="translate(853.955078 0)"/>
    <use xlink:href="#DejaVuSans-74" transform="translate(917.333984 0)"/>
    <use xlink:href="#DejaVuSans-73" transform="translate(956.542969 0)"/>
    <use xlink:href="#DejaVuSans-20" transform="translate(1008.642578 0)"/>
    <use xlink:href="#DejaVuSans-69" transform="translate(1040.429688 0)"/>
    <use xlink:href="#DejaVuSans-6e" transform="translate(1068.212891 0)"/>
    <use xlink:href="#DejaVuSans-20" transform="translate(1131.591797 0)"/>
    <use xlink:href="#DejaVuSans-68" transform="translate(1163.378906 0)"/>
    <use xlink:href="#DejaVuSans-65" transform="translate(1226.757812 0)"/>
    <use xlink:href="#DejaVuSans-61" transform="translate(1288.28125 0)"/>
    <use xlink:href="#DejaVuSans-70" transform="translate(1349.560547 0)"/>
   </g>
  </g>
  <g id="text_32">
   <!-- ns / ($\mathsf{push}\circ\mathsf{pop}$) -->
   <g transform="translate(16.32 235.858125) rotate(-90) scale(0.12 -0.12)">
    <defs>
     <path id="DejaVuSans-2f" d="M 1625 4666 
L 2156 4666 
L 531 -594 
L 0 -594 
L 1625 4666 
z
" transform="scale(0.015625)"/>
     <path id="DejaVuSans-28" d="M 1984 4856 
Q 1566 4138 1362 3434 
Q 1159 2731 1159 2009 
Q 1159 1288 1364 580 
Q 1569 -128 1984 -844 
L 1484 -844 
Q 1016 -109 783 600 
Q 550 1309 550 2009 
Q 550 2706 781 3412 
Q 1013 4119 1484 4856 
L 1984 4856 
z
" transform="scale(0.015625)"/>
     <path id="DejaVuSans-2218" d="M 2003 2603 
Q 1753 2603 1581 2429 
Q 1409 2256 1409 2006 
Q 1409 1759 1581 1589 
Q 1753 1419 2003 1419 
Q 2253 1419 2425 1589 
Q 2597 1759 2597 2006 
Q 2597 2253 2423 2428 
Q 2250 2603 2003 2603 
z
M 2003 3006 
Q 2203 3006 2387 2929 
Q 2572 2853 2706 2709 
Q 2850 2569 2922 2390 
Q 2994 2212 2994 2006 
Q 2994 1594 2705 1308 
Q 2416 1022 1997 1022 
Q 1575 1022 1294 1303 
Q 1013 1584 1013 2006 
Q 1013 2425 1300 2715 
Q 1588 3006 2003 3006 
z
" transform="scale(0.015625)"/>
     <path id="DejaVuSans-29" d="M 513 4856 
L 1013 4856 
Q 1481 4119 1714 3412 
Q 1947 2706 1947 2009 
Q 1947 1309 1714 600 
Q 1481 -109 1013 -844 
L 513 -844 
Q 928 -128 1133 580 
Q 1338 1288 1338 2009 
Q 1338 2731 1133 3434 
Q 928 4138 513 4856 
z
" transform="scale(0.015625)"/>
    </defs>
    <use xlink:href="#DejaVuSans-6e" transform="translate(0 0.015625)"/>
    <use xlink:href="#DejaVuSans-73" transform="translate(63.378906 0.015625)"/>
    <use xlink:href="#DejaVuSans-20" transform="translate(115.478516 0.015625)"/>
    <use xlink:href="#DejaVuSans-2f" transform="translate(147.265625 0.015625)"/>
    <use xlink:href="#DejaVuSans-20" transform="translate(180.957031 0.015625)"/>
    <use xlink:href="#DejaVuSans-28" transform="translate(212.744141 0.015625)"/>
    <use xlink:href="#DejaVuSans-70" transform="translate(251.757812 0.015625)"/>
    <use xlink:href="#DejaVuSans-75" transform="translate(315.234375 0.015625)"/>
    <use xlink:href="#DejaVuSans-73" transform="translate(378.613281 0.015625)"/>
    <use xlink:href="#DejaVuSans-68" transform="translate(430.712891 0.015625)"/>
    <use xlink:href="#DejaVuSans-2218" transform="translate(513.574219 0.015625)"/>
    <use xlink:href="#DejaVuSans-70" transform="translate(595.654297 0.015625)"/>
    <use xlink:href="#DejaVuSans-6f" transform="translate(659.130859 0.015625)"/>
    <use xlink:href="#DejaVuSans-70" transform="translate(720.3125 0.015625)"/>
    <use xlink:href="#DejaVuSans-29" transform="translate(783.789062 0.015625)"/>
   </g>
  </g>
  <g id="legend_1">
   <g id="patch_42">
    <path d="M 169.214844 444.998125 
L 478.785156 444.998125 
Q 480.785156 444.998125 480.785156 442.998125 
L 480.785156 399.96375 
Q 480.785156 397.96375 478.785156 397.96375 
L 169.214844 397.96375 
Q 167.214844 397.96375 167.214844 399.96375 
L 167.214844 442.998125 
Q 167.214844 444.998125 169.214844 444.998125 
z
" style="fill: #ffffff; opacity: 0.8; stroke: #cccccc; stroke-linejoin: miter"/>
   </g>
   <g id="line2d_137">
    <path d="M 171.214844 406.062187 
L 181.214844 406.062187 
L 191.214844 406.062187 
" style="fill: none; stroke: #1f77b4; stroke-width: 1.5; stroke-linecap: square"/>
   </g>
   <g id="text_33">
    <!-- BinaryHeap&lt;T&gt; -->
    <g transform="translate(199.214844 409.562187) scale(0.1 -0.1)">
     <defs>
      <path id="DejaVuSans-42" d="M 1259 2228 
L 1259 519 
L 2272 519 
Q 2781 519 3026 730 
Q 3272 941 3272 1375 
Q 3272 1813 3026 2020 
Q 2781 2228 2272 2228 
L 1259 2228 
z
M 1259 4147 
L 1259 2741 
L 2194 2741 
Q 2656 2741 2882 2914 
Q 3109 3088 3109 3444 
Q 3109 3797 2882 3972 
Q 2656 4147 2194 4147 
L 1259 4147 
z
M 628 4666 
L 2241 4666 
Q 2963 4666 3353 4366 
Q 3744 4066 3744 3513 
Q 3744 3084 3544 2831 
Q 3344 2578 2956 2516 
Q 3422 2416 3680 2098 
Q 3938 1781 3938 1306 
Q 3938 681 3513 340 
Q 3088 0 2303 0 
L 628 0 
L 628 4666 
z
" transform="scale(0.015625)"/>
      <path id="DejaVuSans-79" d="M 2059 -325 
Q 1816 -950 1584 -1140 
Q 1353 -1331 966 -1331 
L 506 -1331 
L 506 -850 
L 844 -850 
Q 1081 -850 1212 -737 
Q 1344 -625 1503 -206 
L 1606 56 
L 191 3500 
L 800 3500 
L 1894 763 
L 2988 3500 
L 3597 3500 
L 2059 -325 
z
" transform="scale(0.015625)"/>
      <path id="DejaVuSans-3c" d="M 4684 3150 
L 1459 2003 
L 4684 863 
L 4684 294 
L 678 1747 
L 678 2266 
L 4684 3719 
L 4684 3150 
z
" transform="scale(0.015625)"/>
      <path id="DejaVuSans-54" d="M -19 4666 
L 3928 4666 
L 3928 4134 
L 2272 4134 
L 2272 0 
L 1638 0 
L 1638 4134 
L -19 4134 
L -19 4666 
z
" transform="scale(0.015625)"/>
      <path id="DejaVuSans-3e" d="M 678 3150 
L 678 3719 
L 4684 2266 
L 4684 1747 
L 678 294 
L 678 863 
L 3897 2003 
L 678 3150 
z
" transform="scale(0.015625)"/>
     </defs>
     <use xlink:href="#DejaVuSans-42"/>
     <use xlink:href="#DejaVuSans-69" transform="translate(68.603516 0)"/>
     <use xlink:href="#DejaVuSans-6e" transform="translate(96.386719 0)"/>
     <use xlink:href="#DejaVuSans-61" transform="translate(159.765625 0)"/>
     <use xlink:href="#DejaVuSans-72" transform="translate(221.044922 0)"/>
     <use xlink:href="#DejaVuSans-79" transform="translate(262.158203 0)"/>
     <use xlink:href="#DejaVuSans-48" transform="translate(321.337891 0)"/>
     <use xlink:href="#DejaVuSans-65" transform="translate(396.533203 0)"/>
     <use xlink:href="#DejaVuSans-61" transform="translate(458.056641 0)"/>
     <use xlink:href="#DejaVuSans-70" transform="translate(519.335938 0)"/>
     <use xlink:href="#DejaVuSans-3c" transform="translate(582.8125 0)"/>
     <use xlink:href="#DejaVuSans-54" transform="translate(666.601562 0)"/>
     <use xlink:href="#DejaVuSans-3e" transform="translate(727.685547 0)"/>
    </g>
   </g>
   <g id="line2d_138">
    <path d="M 171.214844 420.740312 
L 181.214844 420.740312 
L 191.214844 420.740312 
" style="fill: none; stroke: #ff7f0e; stroke-width: 1.5; stroke-linecap: square"/>
   </g>
   <g id="text_34">
    <!-- DaryHeap&lt;T, 8&gt; -->
    <g transform="translate(199.214844 424.240312) scale(0.1 -0.1)">
     <defs>
      <path id="DejaVuSans-44" d="M 1259 4147 
L 1259 519 
L 2022 519 
Q 2988 519 3436 956 
Q 3884 1394 3884 2338 
Q 3884 3275 3436 3711 
Q 2988 4147 2022 4147 
L 1259 4147 
z
M 628 4666 
L 1925 4666 
Q 3281 4666 3915 4102 
Q 4550 3538 4550 2338 
Q 4550 1131 3912 565 
Q 3275 0 1925 0 
L 628 0 
L 628 4666 
z
" transform="scale(0.015625)"/>
      <path id="DejaVuSans-2c" d="M 750 794 
L 1409 794 
L 1409 256 
L 897 -744 
L 494 -744 
L 750 256 
L 750 794 
z
" transform="scale(0.015625)"/>
      <path id="DejaVuSans-38" d="M 2034 2216 
Q 1584 2216 1326 1975 
Q 1069 1734 1069 1313 
Q 1069 891 1326 650 
Q 1584 409 2034 409 
Q 2484 409 2743 651 
Q 3003 894 3003 1313 
Q 3003 1734 2745 1975 
Q 2488 2216 2034 2216 
z
M 1403 2484 
Q 997 2584 770 2862 
Q 544 3141 544 3541 
Q 544 4100 942 4425 
Q 1341 4750 2034 4750 
Q 2731 4750 3128 4425 
Q 3525 4100 3525 3541 
Q 3525 3141 3298 2862 
Q 3072 2584 2669 2484 
Q 3125 2378 3379 2068 
Q 3634 1759 3634 1313 
Q 3634 634 3220 271 
Q 2806 -91 2034 -91 
Q 1263 -91 848 271 
Q 434 634 434 1313 
Q 434 1759 690 2068 
Q 947 2378 1403 2484 
z
M 1172 3481 
Q 1172 3119 1398 2916 
Q 1625 2713 2034 2713 
Q 2441 2713 2670 2916 
Q 2900 3119 2900 3481 
Q 2900 3844 2670 4047 
Q 2441 4250 2034 4250 
Q 1625 4250 1398 4047 
Q 1172 3844 1172 3481 
z
" transform="scale(0.015625)"/>
     </defs>
     <use xlink:href="#DejaVuSans-44"/>
     <use xlink:href="#DejaVuSans-61" transform="translate(77.001953 0)"/>
     <use xlink:href="#DejaVuSans-72" transform="translate(138.28125 0)"/>
     <use xlink:href="#DejaVuSans-79" transform="translate(179.394531 0)"/>
     <use xlink:href="#DejaVuSans-48" transform="translate(238.574219 0)"/>
     <use xlink:href="#DejaVuSans-65" transform="translate(313.769531 0)"/>
     <use xlink:href="#DejaVuSans-61" transform="translate(375.292969 0)"/>
     <use xlink:href="#DejaVuSans-70" transform="translate(436.572266 0)"/>
     <use xlink:href="#DejaVuSans-3c" transform="translate(500.048828 0)"/>
     <use xlink:href="#DejaVuSans-54" transform="translate(583.837891 0)"/>
     <use xlink:href="#DejaVuSans-2c" transform="translate(644.921875 0)"/>
     <use xlink:href="#DejaVuSans-20" transform="translate(676.708984 0)"/>
     <use xlink:href="#DejaVuSans-38" transform="translate(708.496094 0)"/>
     <use xlink:href="#DejaVuSans-3e" transform="translate(772.119141 0)"/>
    </g>
   </g>
   <g id="line2d_139">
    <path d="M 171.214844 435.418437 
L 181.214844 435.418437 
L 191.214844 435.418437 
" style="fill: none; stroke: #2ca02c; stroke-width: 1.5; stroke-linecap: square"/>
   </g>
   <g id="text_35">
    <!-- DaryHeapOrx&lt;(), T, 4&gt; -->
    <g transform="translate(199.214844 438.918437) scale(0.1 -0.1)">
     <defs>
      <path id="DejaVuSans-4f" d="M 2522 4238 
Q 1834 4238 1429 3725 
Q 1025 3213 1025 2328 
Q 1025 1447 1429 934 
Q 1834 422 2522 422 
Q 3209 422 3611 934 
Q 4013 1447 4013 2328 
Q 4013 3213 3611 3725 
Q 3209 4238 2522 4238 
z
M 2522 4750 
Q 3503 4750 4090 4092 
Q 4678 3434 4678 2328 
Q 4678 1225 4090 567 
Q 3503 -91 2522 -91 
Q 1538 -91 948 565 
Q 359 1222 359 2328 
Q 359 3434 948 4092 
Q 1538 4750 2522 4750 
z
" transform="scale(0.015625)"/>
     </defs>
     <use xlink:href="#DejaVuSans-44"/>
     <use xlink:href="#DejaVuSans-61" transform="translate(77.001953 0)"/>
     <use xlink:href="#DejaVuSans-72" transform="translate(138.28125 0)"/>
     <use xlink:href="#DejaVuSans-79" transform="translate(179.394531 0)"/>
     <use xlink:href="#DejaVuSans-48" transform="translate(238.574219 0)"/>
     <use xlink:href="#DejaVuSans-65" transform="translate(313.769531 0)"/>
     <use xlink:href="#DejaVuSans-61" transform="translate(375.292969 0)"/>
     <use xlink:href="#DejaVuSans-70" transform="translate(436.572266 0)"/>
     <use xlink:href="#DejaVuSans-4f" transform="translate(500.048828 0)"/>
     <use xlink:href="#DejaVuSans-72" transform="translate(578.759766 0)"/>
     <use xlink:href="#DejaVuSans-78" transform="translate(617.248047 0)"/>
     <use xlink:href="#DejaVuSans-3c" transform="translate(676.427734 0)"/>
     <use xlink:href="#DejaVuSans-28" transform="translate(760.216797 0)"/>
     <use xlink:href="#DejaVuSans-29" transform="translate(799.230469 0)"/>
     <use xlink:href="#DejaVuSans-2c" transform="translate(838.244141 0)"/>
     <use xlink:href="#DejaVuSans-20" transform="translate(870.03125 0)"/>
     <use xlink:href="#DejaVuSans-54" transform="translate(901.818359 0)"/>
     <use xlink:href="#DejaVuSans-2c" transform="translate(962.902344 0)"/>
     <use xlink:href="#DejaVuSans-20" transform="translate(994.689453 0)"/>
     <use xlink:href="#DejaVuSans-34" transform="translate(1026.476562 0)"/>
     <use xlink:href="#DejaVuSans-3e" transform="translate(1090.099609 0)"/>
    </g>
   </g>
   <g id="line2d_140">
    <path d="M 336.607031 406.062187 
L 346.607031 406.062187 
L 356.607031 406.062187 
" style="fill: none; stroke: #d62728; stroke-width: 1.5; stroke-linecap: square"/>
   </g>
   <g id="text_36">
    <!-- QuickHeap&lt;16, 3&gt; -->
    <g transform="translate(364.607031 409.562187) scale(0.1 -0.1)">
     <defs>
      <path id="DejaVuSans-51" d="M 2522 4238 
Q 1834 4238 1429 3725 
Q 1025 3213 1025 2328 
Q 1025 1447 1429 934 
Q 1834 422 2522 422 
Q 3209 422 3611 934 
Q 4013 1447 4013 2328 
Q 4013 3213 3611 3725 
Q 3209 4238 2522 4238 
z
M 3406 84 
L 4238 -825 
L 3475 -825 
L 2784 -78 
Q 2681 -84 2626 -87 
Q 2572 -91 2522 -91 
Q 1538 -91 948 567 
Q 359 1225 359 2328 
Q 359 3434 948 4092 
Q 1538 4750 2522 4750 
Q 3503 4750 4090 4092 
Q 4678 3434 4678 2328 
Q 4678 1516 4351 937 
Q 4025 359 3406 84 
z
" transform="scale(0.015625)"/>
      <path id="DejaVuSans-6b" d="M 581 4863 
L 1159 4863 
L 1159 1991 
L 2875 3500 
L 3609 3500 
L 1753 1863 
L 3688 0 
L 2938 0 
L 1159 1709 
L 1159 0 
L 581 0 
L 581 4863 
z
" transform="scale(0.015625)"/>
     </defs>
     <use xlink:href="#DejaVuSans-51"/>
     <use xlink:href="#DejaVuSans-75" transform="translate(78.710938 0)"/>
     <use xlink:href="#DejaVuSans-69" transform="translate(142.089844 0)"/>
     <use xlink:href="#DejaVuSans-63" transform="translate(169.873047 0)"/>
     <use xlink:href="#DejaVuSans-6b" transform="translate(224.853516 0)"/>
     <use xlink:href="#DejaVuSans-48" transform="translate(282.763672 0)"/>
     <use xlink:href="#DejaVuSans-65" transform="translate(357.958984 0)"/>
     <use xlink:href="#DejaVuSans-61" transform="translate(419.482422 0)"/>
     <use xlink:href="#DejaVuSans-70" transform="translate(480.761719 0)"/>
     <use xlink:href="#DejaVuSans-3c" transform="translate(544.238281 0)"/>
     <use xlink:href="#DejaVuSans-31" transform="translate(628.027344 0)"/>
     <use xlink:href="#DejaVuSans-36" transform="translate(691.650391 0)"/>
     <use xlink:href="#DejaVuSans-2c" transform="translate(755.273438 0)"/>
     <use xlink:href="#DejaVuSans-20" transform="translate(787.060547 0)"/>
     <use xlink:href="#DejaVuSans-33" transform="translate(818.847656 0)"/>
     <use xlink:href="#DejaVuSans-3e" transform="translate(882.470703 0)"/>
    </g>
   </g>
   <g id="line2d_141">
    <path d="M 336.607031 420.740312 
L 346.607031 420.740312 
L 356.607031 420.740312 
" style="fill: none; stroke: #9467bd; stroke-width: 1.5; stroke-linecap: square"/>
   </g>
   <g id="text_37">
    <!-- RadixHeapMap&lt;T, ()&gt; -->
    <g transform="translate(364.607031 424.240312) scale(0.1 -0.1)">
     <defs>
      <path id="DejaVuSans-4d" d="M 628 4666 
L 1569 4666 
L 2759 1491 
L 3956 4666 
L 4897 4666 
L 4897 0 
L 4281 0 
L 4281 4097 
L 3078 897 
L 2444 897 
L 1241 4097 
L 1241 0 
L 628 0 
L 628 4666 
z
" transform="scale(0.015625)"/>
     </defs>
     <use xlink:href="#DejaVuSans-52"/>
     <use xlink:href="#DejaVuSans-61" transform="translate(67.232422 0)"/>
     <use xlink:href="#DejaVuSans-64" transform="translate(128.511719 0)"/>
     <use xlink:href="#DejaVuSans-69" transform="translate(191.988281 0)"/>
     <use xlink:href="#DejaVuSans-78" transform="translate(219.771484 0)"/>
     <use xlink:href="#DejaVuSans-48" transform="translate(278.951172 0)"/>
     <use xlink:href="#DejaVuSans-65" transform="translate(354.146484 0)"/>
     <use xlink:href="#DejaVuSans-61" transform="translate(415.669922 0)"/>
     <use xlink:href="#DejaVuSans-70" transform="translate(476.949219 0)"/>
     <use xlink:href="#DejaVuSans-4d" transform="translate(540.425781 0)"/>
     <use xlink:href="#DejaVuSans-61" transform="translate(626.705078 0)"/>
     <use xlink:href="#DejaVuSans-70" transform="translate(687.984375 0)"/>
     <use xlink:href="#DejaVuSans-3c" transform="translate(751.460938 0)"/>
     <use xlink:href="#DejaVuSans-54" transform="translate(835.25 0)"/>
     <use xlink:href="#DejaVuSans-2c" transform="translate(896.333984 0)"/>
     <use xlink:href="#DejaVuSans-20" transform="translate(928.121094 0)"/>
     <use xlink:href="#DejaVuSans-28" transform="translate(959.908203 0)"/>
     <use xlink:href="#DejaVuSans-29" transform="translate(998.921875 0)"/>
     <use xlink:href="#DejaVuSans-3e" transform="translate(1037.935547 0)"/>
    </g>
   </g>
  </g>
 </g>
 <defs>
  <clipPath id="p2e74a051c4">
   <rect x="54" y="22.318125" width="121.304348" height="151.2"/>
  </clipPath>
  <clipPath id="p4353f5e18d">
   <rect x="199.565217" y="22.318125" width="121.304348" height="151.2"/>
  </clipPath>
  <clipPath id="p472555dddc">
   <rect x="345.130435" y="22.318125" width="121.304348" height="151.2"/>
  </clipPath>
  <clipPath id="pdaadc73683">
   <rect x="490.695652" y="22.318125" width="121.304348" height="151.2"/>
  </clipPath>
  <clipPath id="p3218099ee6">
   <rect x="54" y="203.758125" width="121.304348" height="151.2"/>
  </clipPath>
  <clipPath id="p6db9c0ee43">
   <rect x="199.565217" y="203.758125" width="121.304348" height="151.2"/>
  </clipPath>
  <clipPath id="pc6ebbab18c">
   <rect x="345.130435" y="203.758125" width="121.304348" height="151.2"/>
  </clipPath>
  <clipPath id="pc5fe07509d">
   <rect x="490.695652" y="203.758125" width="121.304348" height="151.2"/>
  </clipPath>
 </defs>
</svg>
