<?xml version="1.0" encoding="utf-8" standalone="no"?>
<!DOCTYPE svg PUBLIC "-//W3C//DTD SVG 1.1//EN"
  "http://www.w3.org/Graphics/SVG/1.1/DTD/svg11.dtd">
<svg xmlns:xlink="http://www.w3.org/1999/xlink" width="284.556563pt" height="194.44425pt" viewBox="0 0 284.556563 194.44425" xmlns="http://www.w3.org/2000/svg" version="1.1">
 <metadata>
  <rdf:RDF xmlns:dc="http://purl.org/dc/elements/1.1/" xmlns:cc="http://creativecommons.org/ns#" xmlns:rdf="http://www.w3.org/1999/02/22-rdf-syntax-ns#">
   <cc:Work>
    <dc:type rdf:resource="http://purl.org/dc/dcmitype/StillImage"/>
    <dc:date>2025-02-03T01:41:40.967901</dc:date>
    <dc:format>image/svg+xml</dc:format>
    <dc:creator>
     <cc:Agent>
      <dc:title>Matplotlib v3.10.0, https://matplotlib.org/</dc:title>
     </cc:Agent>
    </dc:creator>
   </cc:Work>
  </rdf:RDF>
 </metadata>
 <defs>
  <style type="text/css">*{stroke-linejoin: round; stroke-linecap: butt}</style>
 </defs>
 <g id="figure_1">
  <g id="patch_1">
   <path d="M 0 194.44425 
L 284.556563 194.44425 
L 284.556563 0 
L 0 0 
z
" style="fill: #ffffff"/>
  </g>
  <g id="axes_1">
   <g id="patch_2">
    <path d="M 40.625 156.888 
L 269.405 156.888 
L 269.405 7.2 
L 40.625 7.2 
z
" style="fill: #ffffff"/>
   </g>
   <g id="matplotlib.axis_1">
    <g id="xtick_1">
     <g id="line2d_1">
      <defs>
       <path id="m6986a4079a" d="M 0 0 
L 0 3.5 
" style="stroke: #000000; stroke-width: 0.8"/>
      </defs>
      <g>
       <use xlink:href="#m6986a4079a" x="40.625" y="156.888" style="stroke: #000000; stroke-width: 0.8"/>
      </g>
     </g>
     <g id="text_1">
      <!-- 0.0 -->
      <g transform="translate(32.673438 171.486438) scale(0.1 -0.1)">
       <defs>
        <path id="DejaVuSans-30" d="M 2034 4250 
Q 1547 4250 1301 3770 
Q 1056 3291 1056 2328 
Q 1056 1369 1301 889 
Q 1547 409 2034 409 
Q 2525 409 2770 889 
Q 3016 1369 3016 2328 
Q 3016 3291 2770 3770 
Q 2525 4250 2034 4250 
z
M 2034 4750 
Q 2819 4750 3233 4129 
Q 3647 3509 3647 2328 
Q 3647 1150 3233 529 
Q 2819 -91 2034 -91 
Q 1250 -91 836 529 
Q 422 1150 422 2328 
Q 422 3509 836 4129 
Q 1250 4750 2034 4750 
z
" transform="scale(0.015625)"/>
        <path id="DejaVuSans-2e" d="M 684 794 
L 1344 794 
L 1344 0 
L 684 0 
L 684 794 
z
" transform="scale(0.015625)"/>
       </defs>
       <use xlink:href="#DejaVuSans-30"/>
       <use xlink:href="#DejaVuSans-2e" transform="translate(63.623047 0)"/>
       <use xlink:href="#DejaVuSans-30" transform="translate(95.410156 0)"/>
      </g>
     </g>
    </g>
    <g id="xtick_2">
     <g id="line2d_2">
      <g>
       <use xlink:href="#m6986a4079a" x="86.381" y="156.888" style="stroke: #000000; stroke-width: 0.8"/>
      </g>
     </g>
     <g id="text_2">
      <!-- 0.2 -->
      <g transform="translate(78.429438 171.486438) scale(0.1 -0.1)">
       <defs>
        <path id="DejaVuSans-32" d="M 1228 531 
L 3431 531 
L 3431 0 
L 469 0 
L 469 531 
Q 828 903 1448 1529 
Q 2069 2156 2228 2338 
Q 2531 2678 2651 2914 
Q 2772 3150 2772 3378 
Q 2772 3750 2511 3984 
Q 2250 4219 1831 4219 
Q 1534 4219 1204 4116 
Q 875 4013 500 3803 
L 500 4441 
Q 881 4594 1212 4672 
Q 1544 4750 1819 4750 
Q 2544 4750 2975 4387 
Q 3406 4025 3406 3419 
Q 3406 3131 3298 2873 
Q 3191 2616 2906 2266 
Q 2828 2175 2409 1742 
Q 1991 1309 1228 531 
z
" transform="scale(0.015625)"/>
       </defs>
       <use xlink:href="#DejaVuSans-30"/>
       <use xlink:href="#DejaVuSans-2e" transform="translate(63.623047 0)"/>
       <use xlink:href="#DejaVuSans-32" transform="translate(95.410156 0)"/>
      </g>
     </g>
    </g>
    <g id="xtick_3">
     <g id="line2d_3">
      <g>
       <use xlink:href="#m6986a4079a" x="132.137" y="156.888" style="stroke: #000000; stroke-width: 0.8"/>
      </g>
     </g>
     <g id="text_3">
      <!-- 0.4 -->
      <g transform="translate(124.185438 171.486438) scale(0.1 -0.1)">
       <defs>
        <path id="DejaVuSans-34" d="M 2419 4116 
L 825 1625 
L 2419 1625 
L 2419 4116 
z
M 2253 4666 
L 3047 4666 
L 3047 1625 
L 3713 1625 
L 3713 1100 
L 3047 1100 
L 3047 0 
L 2419 0 
L 2419 1100 
L 313 1100 
L 313 1709 
L 2253 4666 
z
" transform="scale(0.015625)"/>
       </defs>
       <use xlink:href="#DejaVuSans-30"/>
       <use xlink:href="#DejaVuSans-2e" transform="translate(63.623047 0)"/>
       <use xlink:href="#DejaVuSans-34" transform="translate(95.410156 0)"/>
      </g>
     </g>
    </g>
    <g id="xtick_4">
     <g id="line2d_4">
      <g>
       <use xlink:href="#m6986a4079a" x="177.893" y="156.888" style="stroke: #000000; stroke-width: 0.8"/>
      </g>
     </g>
     <g id="text_4">
      <!-- 0.6 -->
      <g transform="translate(169.941438 171.486438) scale(0.1 -0.1)">
       <defs>
        <path id="DejaVuSans-36" d="M 2113 2584 
Q 1688 2584 1439 2293 
Q 1191 2003 1191 1497 
Q 1191 994 1439 701 
Q 1688 409 2113 409 
Q 2538 409 2786 701 
Q 3034 994 3034 1497 
Q 3034 2003 2786 2293 
Q 2538 2584 2113 2584 
z
M 3366 4563 
L 3366 3988 
Q 3128 4100 2886 4159 
Q 2644 4219 2406 4219 
Q 1781 4219 1451 3797 
Q 1122 3375 1075 2522 
Q 1259 2794 1537 2939 
Q 1816 3084 2150 3084 
Q 2853 3084 3261 2657 
Q 3669 2231 3669 1497 
Q 3669 778 3244 343 
Q 2819 -91 2113 -91 
Q 1303 -91 875 529 
Q 447 1150 447 2328 
Q 447 3434 972 4092 
Q 1497 4750 2381 4750 
Q 2619 4750 2861 4703 
Q 3103 4656 3366 4563 
z
" transform="scale(0.015625)"/>
       </defs>
       <use xlink:href="#DejaVuSans-30"/>
       <use xlink:href="#DejaVuSans-2e" transform="translate(63.623047 0)"/>
       <use xlink:href="#DejaVuSans-36" transform="translate(95.410156 0)"/>
      </g>
     </g>
    </g>
    <g id="xtick_5">
     <g id="line2d_5">
      <g>
       <use xlink:href="#m6986a4079a" x="223.649" y="156.888" style="stroke: #000000; stroke-width: 0.8"/>
      </g>
     </g>
     <g id="text_5">
      <!-- 0.8 -->
      <g transform="translate(215.697438 171.486438) scale(0.1 -0.1)">
       <defs>
        <path id="DejaVuSans-38" d="M 2034 2216 
Q 1584 2216 1326 1975 
Q 1069 1734 1069 1313 
Q 1069 891 1326 650 
Q 1584 409 2034 409 
Q 2484 409 2743 651 
Q 3003 894 3003 1313 
Q 3003 1734 2745 1975 
Q 2488 2216 2034 2216 
z
M 1403 2484 
Q 997 2584 770 2862 
Q 544 3141 544 3541 
Q 544 4100 942 4425 
Q 1341 4750 2034 4750 
Q 2731 4750 3128 4425 
Q 3525 4100 3525 3541 
Q 3525 3141 3298 2862 
Q 3072 2584 2669 2484 
Q 3125 2378 3379 2068 
Q 3634 1759 3634 1313 
Q 3634 634 3220 271 
Q 2806 -91 2034 -91 
Q 1263 -91 848 271 
Q 434 634 434 1313 
Q 434 1759 690 2068 
Q 947 2378 1403 2484 
z
M 1172 3481 
Q 1172 3119 1398 2916 
Q 1625 2713 2034 2713 
Q 2441 2713 2670 2916 
Q 2900 3119 2900 3481 
Q 2900 3844 2670 4047 
Q 2441 4250 2034 4250 
Q 1625 4250 1398 4047 
Q 1172 3844 1172 3481 
z
" transform="scale(0.015625)"/>
       </defs>
       <use xlink:href="#DejaVuSans-30"/>
       <use xlink:href="#DejaVuSans-2e" transform="translate(63.623047 0)"/>
       <use xlink:href="#DejaVuSans-38" transform="translate(95.410156 0)"/>
      </g>
     </g>
    </g>
    <g id="xtick_6">
     <g id="line2d_6">
      <g>
       <use xlink:href="#m6986a4079a" x="269.405" y="156.888" style="stroke: #000000; stroke-width: 0.8"/>
      </g>
     </g>
     <g id="text_6">
      <!-- 1.0 -->
      <g transform="translate(261.453438 171.486438) scale(0.1 -0.1)">
       <defs>
        <path id="DejaVuSans-31" d="M 794 531 
L 1825 531 
L 1825 4091 
L 703 3866 
L 703 4441 
L 1819 4666 
L 2450 4666 
L 2450 531 
L 3481 531 
L 3481 0 
L 794 0 
L 794 531 
z
" transform="scale(0.015625)"/>
       </defs>
       <use xlink:href="#DejaVuSans-31"/>
       <use xlink:href="#DejaVuSans-2e" transform="translate(63.623047 0)"/>
       <use xlink:href="#DejaVuSans-30" transform="translate(95.410156 0)"/>
      </g>
     </g>
    </g>
    <g id="text_7">
     <!-- Normalized bucket index -->
     <g transform="translate(92.957969 185.164563) scale(0.1 -0.1)">
      <defs>
       <path id="DejaVuSans-4e" d="M 628 4666 
L 1478 4666 
L 3547 763 
L 3547 4666 
L 4159 4666 
L 4159 0 
L 3309 0 
L 1241 3903 
L 1241 0 
L 628 0 
L 628 4666 
z
" transform="scale(0.015625)"/>
       <path id="DejaVuSans-6f" d="M 1959 3097 
Q 1497 3097 1228 2736 
Q 959 2375 959 1747 
Q 959 1119 1226 758 
Q 1494 397 1959 397 
Q 2419 397 2687 759 
Q 2956 1122 2956 1747 
Q 2956 2369 2687 2733 
Q 2419 3097 1959 3097 
z
M 1959 3584 
Q 2709 3584 3137 3096 
Q 3566 2609 3566 1747 
Q 3566 888 3137 398 
Q 2709 -91 1959 -91 
Q 1206 -91 779 398 
Q 353 888 353 1747 
Q 353 2609 779 3096 
Q 1206 3584 1959 3584 
z
" transform="scale(0.015625)"/>
       <path id="DejaVuSans-72" d="M 2631 2963 
Q 2534 3019 2420 3045 
Q 2306 3072 2169 3072 
Q 1681 3072 1420 2755 
Q 1159 2438 1159 1844 
L 1159 0 
L 581 0 
L 581 3500 
L 1159 3500 
L 1159 2956 
Q 1341 3275 1631 3429 
Q 1922 3584 2338 3584 
Q 2397 3584 2469 3576 
Q 2541 3569 2628 3553 
L 2631 2963 
z
" transform="scale(0.015625)"/>
       <path id="DejaVuSans-6d" d="M 3328 2828 
Q 3544 3216 3844 3400 
Q 4144 3584 4550 3584 
Q 5097 3584 5394 3201 
Q 5691 2819 5691 2113 
L 5691 0 
L 5113 0 
L 5113 2094 
Q 5113 2597 4934 2840 
Q 4756 3084 4391 3084 
Q 3944 3084 3684 2787 
Q 3425 2491 3425 1978 
L 3425 0 
L 2847 0 
L 2847 2094 
Q 2847 2600 2669 2842 
Q 2491 3084 2119 3084 
Q 1678 3084 1418 2786 
Q 1159 2488 1159 1978 
L 1159 0 
L 581 0 
L 581 3500 
L 1159 3500 
L 1159 2956 
Q 1356 3278 1631 3431 
Q 1906 3584 2284 3584 
Q 2666 3584 2933 3390 
Q 3200 3197 3328 2828 
z
" transform="scale(0.015625)"/>
       <path id="DejaVuSans-61" d="M 2194 1759 
Q 1497 1759 1228 1600 
Q 959 1441 959 1056 
Q 959 750 1161 570 
Q 1363 391 1709 391 
Q 2188 391 2477 730 
Q 2766 1069 2766 1631 
L 2766 1759 
L 2194 1759 
z
M 3341 1997 
L 3341 0 
L 2766 0 
L 2766 531 
Q 2569 213 2275 61 
Q 1981 -91 1556 -91 
Q 1019 -91 701 211 
Q 384 513 384 1019 
Q 384 1609 779 1909 
Q 1175 2209 1959 2209 
L 2766 2209 
L 2766 2266 
Q 2766 2663 2505 2880 
Q 2244 3097 1772 3097 
Q 1472 3097 1187 3025 
Q 903 2953 641 2809 
L 641 3341 
Q 956 3463 1253 3523 
Q 1550 3584 1831 3584 
Q 2591 3584 2966 3190 
Q 3341 2797 3341 1997 
z
" transform="scale(0.015625)"/>
       <path id="DejaVuSans-6c" d="M 603 4863 
L 1178 4863 
L 1178 0 
L 603 0 
L 603 4863 
z
" transform="scale(0.015625)"/>
       <path id="DejaVuSans-69" d="M 603 3500 
L 1178 3500 
L 1178 0 
L 603 0 
L 603 3500 
z
M 603 4863 
L 1178 4863 
L 1178 4134 
L 603 4134 
L 603 4863 
z
" transform="scale(0.015625)"/>
       <path id="DejaVuSans-7a" d="M 353 3500 
L 3084 3500 
L 3084 2975 
L 922 459 
L 3084 459 
L 3084 0 
L 275 0 
L 275 525 
L 2438 3041 
L 353 3041 
L 353 3500 
z
" transform="scale(0.015625)"/>
       <path id="DejaVuSans-65" d="M 3597 1894 
L 3597 1613 
L 953 1613 
Q 991 1019 1311 708 
Q 1631 397 2203 397 
Q 2534 397 2845 478 
Q 3156 559 3463 722 
L 3463 178 
Q 3153 47 2828 -22 
Q 2503 -91 2169 -91 
Q 1331 -91 842 396 
Q 353 884 353 1716 
Q 353 2575 817 3079 
Q 1281 3584 2069 3584 
Q 2775 3584 3186 3129 
Q 3597 2675 3597 1894 
z
M 3022 2063 
Q 3016 2534 2758 2815 
Q 2500 3097 2075 3097 
Q 1594 3097 1305 2825 
Q 1016 2553 972 2059 
L 3022 2063 
z
" transform="scale(0.015625)"/>
       <path id="DejaVuSans-64" d="M 2906 2969 
L 2906 4863 
L 3481 4863 
L 3481 0 
L 2906 0 
L 2906 525 
Q 2725 213 2448 61 
Q 2172 -91 1784 -91 
Q 1150 -91 751 415 
Q 353 922 353 1747 
Q 353 2572 751 3078 
Q 1150 3584 1784 3584 
Q 2172 3584 2448 3432 
Q 2725 3281 2906 2969 
z
M 947 1747 
Q 947 1113 1208 752 
Q 1469 391 1925 391 
Q 2381 391 2643 752 
Q 2906 1113 2906 1747 
Q 2906 2381 2643 2742 
Q 2381 3103 1925 3103 
Q 1469 3103 1208 2742 
Q 947 2381 947 1747 
z
" transform="scale(0.015625)"/>
       <path id="DejaVuSans-20" transform="scale(0.015625)"/>
       <path id="DejaVuSans-62" d="M 3116 1747 
Q 3116 2381 2855 2742 
Q 2594 3103 2138 3103 
Q 1681 3103 1420 2742 
Q 1159 2381 1159 1747 
Q 1159 1113 1420 752 
Q 1681 391 2138 391 
Q 2594 391 2855 752 
Q 3116 1113 3116 1747 
z
M 1159 2969 
Q 1341 3281 1617 3432 
Q 1894 3584 2278 3584 
Q 2916 3584 3314 3078 
Q 3713 2572 3713 1747 
Q 3713 922 3314 415 
Q 2916 -91 2278 -91 
Q 1894 -91 1617 61 
Q 1341 213 1159 525 
L 1159 0 
L 581 0 
L 581 4863 
L 1159 4863 
L 1159 2969 
z
" transform="scale(0.015625)"/>
       <path id="DejaVuSans-75" d="M 544 1381 
L 544 3500 
L 1119 3500 
L 1119 1403 
Q 1119 906 1312 657 
Q 1506 409 1894 409 
Q 2359 409 2629 706 
Q 2900 1003 2900 1516 
L 2900 3500 
L 3475 3500 
L 3475 0 
L 2900 0 
L 2900 538 
Q 2691 219 2414 64 
Q 2138 -91 1772 -91 
Q 1169 -91 856 284 
Q 544 659 544 1381 
z
M 1991 3584 
L 1991 3584 
z
" transform="scale(0.015625)"/>
       <path id="DejaVuSans-63" d="M 3122 3366 
L 3122 2828 
Q 2878 2963 2633 3030 
Q 2388 3097 2138 3097 
Q 1578 3097 1268 2742 
Q 959 2388 959 1747 
Q 959 1106 1268 751 
Q 1578 397 2138 397 
Q 2388 397 2633 464 
Q 2878 531 3122 666 
L 3122 134 
Q 2881 22 2623 -34 
Q 2366 -91 2075 -91 
Q 1284 -91 818 406 
Q 353 903 353 1747 
Q 353 2603 823 3093 
Q 1294 3584 2113 3584 
Q 2378 3584 2631 3529 
Q 2884 3475 3122 3366 
z
" transform="scale(0.015625)"/>
       <path id="DejaVuSans-6b" d="M 581 4863 
L 1159 4863 
L 1159 1991 
L 2875 3500 
L 3609 3500 
L 1753 1863 
L 3688 0 
L 2938 0 
L 1159 1709 
L 1159 0 
L 581 0 
L 581 4863 
z
" transform="scale(0.015625)"/>
       <path id="DejaVuSans-74" d="M 1172 4494 
L 1172 3500 
L 2356 3500 
L 2356 3053 
L 1172 3053 
L 1172 1153 
Q 1172 725 1289 603 
Q 1406 481 1766 481 
L 2356 481 
L 2356 0 
L 1766 0 
Q 1100 0 847 248 
Q 594 497 594 1153 
L 594 3053 
L 172 3053 
L 172 3500 
L 594 3500 
L 594 4494 
L 1172 4494 
z
" transform="scale(0.015625)"/>
       <path id="DejaVuSans-6e" d="M 3513 2113 
L 3513 0 
L 2938 0 
L 2938 2094 
Q 2938 2591 2744 2837 
Q 2550 3084 2163 3084 
Q 1697 3084 1428 2787 
Q 1159 2491 1159 1978 
L 1159 0 
L 581 0 
L 581 3500 
L 1159 3500 
L 1159 2956 
Q 1366 3272 1645 3428 
Q 1925 3584 2291 3584 
Q 2894 3584 3203 3211 
Q 3513 2838 3513 2113 
z
" transform="scale(0.015625)"/>
       <path id="DejaVuSans-78" d="M 3513 3500 
L 2247 1797 
L 3578 0 
L 2900 0 
L 1881 1375 
L 863 0 
L 184 0 
L 1544 1831 
L 300 3500 
L 978 3500 
L 1906 2253 
L 2834 3500 
L 3513 3500 
z
" transform="scale(0.015625)"/>
      </defs>
      <use xlink:href="#DejaVuSans-4e"/>
      <use xlink:href="#DejaVuSans-6f" transform="translate(74.804688 0)"/>
      <use xlink:href="#DejaVuSans-72" transform="translate(135.986328 0)"/>
      <use xlink:href="#DejaVuSans-6d" transform="translate(175.349609 0)"/>
      <use xlink:href="#DejaVuSans-61" transform="translate(272.761719 0)"/>
      <use xlink:href="#DejaVuSans-6c" transform="translate(334.041016 0)"/>
      <use xlink:href="#DejaVuSans-69" transform="translate(361.824219 0)"/>
      <use xlink:href="#DejaVuSans-7a" transform="translate(389.607422 0)"/>
      <use xlink:href="#DejaVuSans-65" transform="translate(442.097656 0)"/>
      <use xlink:href="#DejaVuSans-64" transform="translate(503.621094 0)"/>
      <use xlink:href="#DejaVuSans-20" transform="translate(567.097656 0)"/>
      <use xlink:href="#DejaVuSans-62" transform="translate(598.884766 0)"/>
      <use xlink:href="#DejaVuSans-75" transform="translate(662.361328 0)"/>
      <use xlink:href="#DejaVuSans-63" transform="translate(725.740234 0)"/>
      <use xlink:href="#DejaVuSans-6b" transform="translate(780.720703 0)"/>
      <use xlink:href="#DejaVuSans-65" transform="translate(835.005859 0)"/>
      <use xlink:href="#DejaVuSans-74" transform="translate(896.529297 0)"/>
      <use xlink:href="#DejaVuSans-20" transform="translate(935.738281 0)"/>
      <use xlink:href="#DejaVuSans-69" transform="translate(967.525391 0)"/>
      <use xlink:href="#DejaVuSans-6e" transform="translate(995.308594 0)"/>
      <use xlink:href="#DejaVuSans-64" transform="translate(1058.6875 0)"/>
      <use xlink:href="#DejaVuSans-65" transform="translate(1122.164062 0)"/>
      <use xlink:href="#DejaVuSans-78" transform="translate(1181.9375 0)"/>
     </g>
    </g>
   </g>
   <g id="matplotlib.axis_2">
    <g id="ytick_1">
     <g id="line2d_7">
      <path d="M 40.625 156.888 
L 269.405 156.888 
" clip-path="url(#p0161836177)" style="fill: none; stroke: #b0b0b0; stroke-width: 0.5; stroke-linecap: square"/>
     </g>
     <g id="line2d_8">
      <defs>
       <path id="mcf8d870bb7" d="M 0 0 
L -3.5 0 
" style="stroke: #000000; stroke-width: 0.8"/>
      </defs>
      <g>
       <use xlink:href="#mcf8d870bb7" x="40.625" y="156.888" style="stroke: #000000; stroke-width: 0.8"/>
      </g>
     </g>
     <g id="text_8">
      <!-- 0 -->
      <g transform="translate(27.2625 160.687219) scale(0.1 -0.1)">
       <use xlink:href="#DejaVuSans-30"/>
      </g>
     </g>
    </g>
    <g id="ytick_2">
     <g id="line2d_9">
      <path d="M 40.625 130.855304 
L 269.405 130.855304 
" clip-path="url(#p0161836177)" style="fill: none; stroke: #b0b0b0; stroke-width: 0.5; stroke-linecap: square"/>
     </g>
     <g id="line2d_10">
      <g>
       <use xlink:href="#mcf8d870bb7" x="40.625" y="130.855304" style="stroke: #000000; stroke-width: 0.8"/>
      </g>
     </g>
     <g id="text_9">
      <!-- 2 -->
      <g transform="translate(27.2625 134.654523) scale(0.1 -0.1)">
       <use xlink:href="#DejaVuSans-32"/>
      </g>
     </g>
    </g>
    <g id="ytick_3">
     <g id="line2d_11">
      <path d="M 40.625 104.822609 
L 269.405 104.822609 
" clip-path="url(#p0161836177)" style="fill: none; stroke: #b0b0b0; stroke-width: 0.5; stroke-linecap: square"/>
     </g>
     <g id="line2d_12">
      <g>
       <use xlink:href="#mcf8d870bb7" x="40.625" y="104.822609" style="stroke: #000000; stroke-width: 0.8"/>
      </g>
     </g>
     <g id="text_10">
      <!-- 4 -->
      <g transform="translate(27.2625 108.621827) scale(0.1 -0.1)">
       <use xlink:href="#DejaVuSans-34"/>
      </g>
     </g>
    </g>
    <g id="ytick_4">
     <g id="line2d_13">
      <path d="M 40.625 78.789913 
L 269.405 78.789913 
" clip-path="url(#p0161836177)" style="fill: none; stroke: #b0b0b0; stroke-width: 0.5; stroke-linecap: square"/>
     </g>
     <g id="line2d_14">
      <g>
       <use xlink:href="#mcf8d870bb7" x="40.625" y="78.789913" style="stroke: #000000; stroke-width: 0.8"/>
      </g>
     </g>
     <g id="text_11">
      <!-- 6 -->
      <g transform="translate(27.2625 82.589132) scale(0.1 -0.1)">
       <use xlink:href="#DejaVuSans-36"/>
      </g>
     </g>
    </g>
    <g id="ytick_5">
     <g id="line2d_15">
      <path d="M 40.625 52.757217 
L 269.405 52.757217 
" clip-path="url(#p0161836177)" style="fill: none; stroke: #b0b0b0; stroke-width: 0.5; stroke-linecap: square"/>
     </g>
     <g id="line2d_16">
      <g>
       <use xlink:href="#mcf8d870bb7" x="40.625" y="52.757217" style="stroke: #000000; stroke-width: 0.8"/>
      </g>
     </g>
     <g id="text_12">
      <!-- 8 -->
      <g transform="translate(27.2625 56.556436) scale(0.1 -0.1)">
       <use xlink:href="#DejaVuSans-38"/>
      </g>
     </g>
    </g>
    <g id="ytick_6">
     <g id="line2d_17">
      <path d="M 40.625 26.724522 
L 269.405 26.724522 
" clip-path="url(#p0161836177)" style="fill: none; stroke: #b0b0b0; stroke-width: 0.5; stroke-linecap: square"/>
     </g>
     <g id="line2d_18">
      <g>
       <use xlink:href="#mcf8d870bb7" x="40.625" y="26.724522" style="stroke: #000000; stroke-width: 0.8"/>
      </g>
     </g>
     <g id="text_13">
      <!-- 10 -->
      <g transform="translate(20.9 30.52374) scale(0.1 -0.1)">
       <use xlink:href="#DejaVuSans-31"/>
       <use xlink:href="#DejaVuSans-30" transform="translate(63.623047 0)"/>
      </g>
     </g>
    </g>
    <g id="ytick_7">
     <g id="line2d_19">
      <path d="M 40.625 143.871652 
L 269.405 143.871652 
" clip-path="url(#p0161836177)" style="fill: none; stroke: #b0b0b0; stroke-opacity: 0.4; stroke-width: 0.5; stroke-linecap: square"/>
     </g>
     <g id="line2d_20">
      <defs>
       <path id="m6e0acd6422" d="M 0 0 
L -2 0 
" style="stroke: #000000; stroke-width: 0.6"/>
      </defs>
      <g>
       <use xlink:href="#m6e0acd6422" x="40.625" y="143.871652" style="stroke: #000000; stroke-width: 0.6"/>
      </g>
     </g>
    </g>
    <g id="ytick_8">
     <g id="line2d_21">
      <path d="M 40.625 117.838957 
L 269.405 117.838957 
" clip-path="url(#p0161836177)" style="fill: none; stroke: #b0b0b0; stroke-opacity: 0.4; stroke-width: 0.5; stroke-linecap: square"/>
     </g>
     <g id="line2d_22">
      <g>
       <use xlink:href="#m6e0acd6422" x="40.625" y="117.838957" style="stroke: #000000; stroke-width: 0.6"/>
      </g>
     </g>
    </g>
    <g id="ytick_9">
     <g id="line2d_23">
      <path d="M 40.625 91.806261 
L 269.405 91.806261 
" clip-path="url(#p0161836177)" style="fill: none; stroke: #b0b0b0; stroke-opacity: 0.4; stroke-width: 0.5; stroke-linecap: square"/>
     </g>
     <g id="line2d_24">
      <g>
       <use xlink:href="#m6e0acd6422" x="40.625" y="91.806261" style="stroke: #000000; stroke-width: 0.6"/>
      </g>
     </g>
    </g>
    <g id="ytick_10">
     <g id="line2d_25">
      <path d="M 40.625 65.773565 
L 269.405 65.773565 
" clip-path="url(#p0161836177)" style="fill: none; stroke: #b0b0b0; stroke-opacity: 0.4; stroke-width: 0.5; stroke-linecap: square"/>
     </g>
     <g id="line2d_26">
      <g>
       <use xlink:href="#m6e0acd6422" x="40.625" y="65.773565" style="stroke: #000000; stroke-width: 0.6"/>
      </g>
     </g>
    </g>
    <g id="ytick_11">
     <g id="line2d_27">
      <path d="M 40.625 39.74087 
L 269.405 39.74087 
" clip-path="url(#p0161836177)" style="fill: none; stroke: #b0b0b0; stroke-opacity: 0.4; stroke-width: 0.5; stroke-linecap: square"/>
     </g>
     <g id="line2d_28">
      <g>
       <use xlink:href="#m6e0acd6422" x="40.625" y="39.74087" style="stroke: #000000; stroke-width: 0.6"/>
      </g>
     </g>
    </g>
    <g id="ytick_12">
     <g id="line2d_29">
      <path d="M 40.625 13.708174 
L 269.405 13.708174 
" clip-path="url(#p0161836177)" style="fill: none; stroke: #b0b0b0; stroke-opacity: 0.4; stroke-width: 0.5; stroke-linecap: square"/>
     </g>
     <g id="line2d_30">
      <g>
       <use xlink:href="#m6e0acd6422" x="40.625" y="13.708174" style="stroke: #000000; stroke-width: 0.6"/>
      </g>
     </g>
    </g>
    <g id="text_14">
     <!-- Expected bucket size for $\lambda = 4$ -->
     <g transform="translate(14.8 157.644) rotate(-90) scale(0.1 -0.1)">
      <defs>
       <path id="DejaVuSans-45" d="M 628 4666 
L 3578 4666 
L 3578 4134 
L 1259 4134 
L 1259 2753 
L 3481 2753 
L 3481 2222 
L 1259 2222 
L 1259 531 
L 3634 531 
L 3634 0 
L 628 0 
L 628 4666 
z
" transform="scale(0.015625)"/>
       <path id="DejaVuSans-70" d="M 1159 525 
L 1159 -1331 
L 581 -1331 
L 581 3500 
L 1159 3500 
L 1159 2969 
Q 1341 3281 1617 3432 
Q 1894 3584 2278 3584 
Q 2916 3584 3314 3078 
Q 3713 2572 3713 1747 
Q 3713 922 3314 415 
Q 2916 -91 2278 -91 
Q 1894 -91 1617 61 
Q 1341 213 1159 525 
z
M 3116 1747 
Q 3116 2381 2855 2742 
Q 2594 3103 2138 3103 
Q 1681 3103 1420 2742 
Q 1159 2381 1159 1747 
Q 1159 1113 1420 752 
Q 1681 391 2138 391 
Q 2594 391 2855 752 
Q 3116 1113 3116 1747 
z
" transform="scale(0.015625)"/>
       <path id="DejaVuSans-73" d="M 2834 3397 
L 2834 2853 
Q 2591 2978 2328 3040 
Q 2066 3103 1784 3103 
Q 1356 3103 1142 2972 
Q 928 2841 928 2578 
Q 928 2378 1081 2264 
Q 1234 2150 1697 2047 
L 1894 2003 
Q 2506 1872 2764 1633 
Q 3022 1394 3022 966 
Q 3022 478 2636 193 
Q 2250 -91 1575 -91 
Q 1294 -91 989 -36 
Q 684 19 347 128 
L 347 722 
Q 666 556 975 473 
Q 1284 391 1588 391 
Q 1994 391 2212 530 
Q 2431 669 2431 922 
Q 2431 1156 2273 1281 
Q 2116 1406 1581 1522 
L 1381 1569 
Q 847 1681 609 1914 
Q 372 2147 372 2553 
Q 372 3047 722 3315 
Q 1072 3584 1716 3584 
Q 2034 3584 2315 3537 
Q 2597 3491 2834 3397 
z
" transform="scale(0.015625)"/>
       <path id="DejaVuSans-66" d="M 2375 4863 
L 2375 4384 
L 1825 4384 
Q 1516 4384 1395 4259 
Q 1275 4134 1275 3809 
L 1275 3500 
L 2222 3500 
L 2222 3053 
L 1275 3053 
L 1275 0 
L 697 0 
L 697 3053 
L 147 3053 
L 147 3500 
L 697 3500 
L 697 3744 
Q 697 4328 969 4595 
Q 1241 4863 1831 4863 
L 2375 4863 
z
" transform="scale(0.015625)"/>
       <path id="DejaVuSans-Oblique-3bb" d="M 2350 4316 
L 3125 0 
L 2516 0 
L 2038 2588 
L 328 0 
L -281 0 
L 1903 3356 
L 1794 3975 
Q 1725 4369 1391 4369 
L 1091 4369 
L 1184 4863 
L 1550 4856 
Q 2253 4847 2350 4316 
z
" transform="scale(0.015625)"/>
       <path id="DejaVuSans-3d" d="M 678 2906 
L 4684 2906 
L 4684 2381 
L 678 2381 
L 678 2906 
z
M 678 1631 
L 4684 1631 
L 4684 1100 
L 678 1100 
L 678 1631 
z
" transform="scale(0.015625)"/>
      </defs>
      <use xlink:href="#DejaVuSans-45" transform="translate(0 0.015625)"/>
      <use xlink:href="#DejaVuSans-78" transform="translate(63.183594 0.015625)"/>
      <use xlink:href="#DejaVuSans-70" transform="translate(122.363281 0.015625)"/>
      <use xlink:href="#DejaVuSans-65" transform="translate(185.839844 0.015625)"/>
      <use xlink:href="#DejaVuSans-63" transform="translate(247.363281 0.015625)"/>
      <use xlink:href="#DejaVuSans-74" transform="translate(302.34375 0.015625)"/>
      <use xlink:href="#DejaVuSans-65" transform="translate(341.552734 0.015625)"/>
      <use xlink:href="#DejaVuSans-64" transform="translate(403.076172 0.015625)"/>
      <use xlink:href="#DejaVuSans-20" transform="translate(466.552734 0.015625)"/>
      <use xlink:href="#DejaVuSans-62" transform="translate(498.339844 0.015625)"/>
      <use xlink:href="#DejaVuSans-75" transform="translate(561.816406 0.015625)"/>
      <use xlink:href="#DejaVuSans-63" transform="translate(625.195312 0.015625)"/>
      <use xlink:href="#DejaVuSans-6b" transform="translate(680.175781 0.015625)"/>
      <use xlink:href="#DejaVuSans-65" transform="translate(738.085938 0.015625)"/>
      <use xlink:href="#DejaVuSans-74" transform="translate(799.609375 0.015625)"/>
      <use xlink:href="#DejaVuSans-20" transform="translate(838.818359 0.015625)"/>
      <use xlink:href="#DejaVuSans-73" transform="translate(870.605469 0.015625)"/>
      <use xlink:href="#DejaVuSans-69" transform="translate(922.705078 0.015625)"/>
      <use xlink:href="#DejaVuSans-7a" transform="translate(950.488281 0.015625)"/>
      <use xlink:href="#DejaVuSans-65" transform="translate(1002.978516 0.015625)"/>
      <use xlink:href="#DejaVuSans-20" transform="translate(1064.501953 0.015625)"/>
      <use xlink:href="#DejaVuSans-66" transform="translate(1096.289062 0.015625)"/>
      <use xlink:href="#DejaVuSans-6f" transform="translate(1131.494141 0.015625)"/>
      <use xlink:href="#DejaVuSans-72" transform="translate(1192.675781 0.015625)"/>
      <use xlink:href="#DejaVuSans-20" transform="translate(1233.789062 0.015625)"/>
      <use xlink:href="#DejaVuSans-Oblique-3bb" transform="translate(1265.576172 0.015625)"/>
      <use xlink:href="#DejaVuSans-3d" transform="translate(1344.238281 0.015625)"/>
      <use xlink:href="#DejaVuSans-34" transform="translate(1447.509766 0.015625)"/>
     </g>
    </g>
   </g>
   <g id="line2d_31">
    <path d="M 40.625 104.851209 
L 41.31134 104.801556 
L 41.7689 104.801556 
L 269.17622 104.851209 
L 269.17622 104.851209 
" clip-path="url(#p0161836177)" style="fill: none; stroke: #1f77b4; stroke-width: 1.5; stroke-linecap: square"/>
   </g>
   <g id="line2d_32">
    <path d="M 40.625 52.764765 
L 109.03022 52.764765 
L 109.259 127.145598 
L 269.17622 127.145598 
L 269.17622 127.145598 
" clip-path="url(#p0161836177)" style="fill: none; stroke: #ff7f0e; stroke-width: 1.5; stroke-linecap: square"/>
   </g>
   <g id="line2d_33">
    <path d="M 50.526594 -1 
L 51.83522 9.51663 
L 52.97912 17.361872 
L 54.3518 25.45538 
L 56.18204 34.492304 
L 57.55472 40.351408 
L 59.38496 47.104274 
L 61.90154 54.949515 
L 63.73178 59.865205 
L 66.70592 66.717378 
L 70.59518 74.115738 
L 72.42542 77.094944 
L 75.85712 82.10994 
L 79.5176 86.727708 
L 85.2371 92.785426 
L 87.5249 94.87087 
L 88.21124 95.466711 
L 91.41416 98.147996 
L 92.32928 98.843144 
L 93.47318 99.736906 
L 95.07464 100.878935 
L 95.76098 101.425123 
L 96.21854 101.723043 
L 103.08194 106.142198 
L 103.31072 106.191852 
L 103.76828 106.489772 
L 105.36974 107.433187 
L 106.51364 108.029028 
L 107.65754 108.674523 
L 108.80144 109.270364 
L 109.71656 109.766898 
L 110.17412 109.965512 
L 111.08924 110.462046 
L 111.5468 110.66066 
L 114.52094 112.050956 
L 114.9785 112.299223 
L 115.43606 112.497837 
L 124.35848 116.271497 
L 125.04482 116.519764 
L 126.87506 117.214912 
L 127.5614 117.463179 
L 128.93408 118.009367 
L 129.16286 118.009367 
L 129.62042 118.207981 
L 130.9931 118.704515 
L 131.90822 119.002436 
L 133.2809 119.49897 
L 134.19602 119.79689 
L 135.11114 120.094811 
L 135.79748 120.293425 
L 136.02626 120.442385 
L 136.25504 120.442385 
L 136.7126 120.640999 
L 137.8565 120.988573 
L 138.77162 121.286493 
L 140.1443 121.683721 
L 141.05942 121.981641 
L 142.4321 122.378869 
L 143.576 122.776096 
L 145.40624 123.27263 
L 146.09258 123.471244 
L 147.69404 123.918125 
L 148.38038 124.116739 
L 150.21062 124.613273 
L 151.12574 124.911193 
L 151.5833 125.0105 
L 154.55744 125.755302 
L 155.24378 125.953915 
L 157.98914 126.649063 
L 158.4467 126.74837 
L 162.10718 127.642132 
L 162.79352 127.840746 
L 163.25108 127.940052 
L 187.50176 133.104009 
L 188.1881 133.203316 
L 188.64566 133.302622 
L 192.99248 134.146731 
L 193.67882 134.246038 
L 194.13638 134.345344 
L 197.56808 134.990839 
L 198.25442 135.090146 
L 198.71198 135.189453 
L 199.16954 135.288759 
L 201.68612 135.73564 
L 202.37246 135.834947 
L 205.3466 136.381135 
L 206.03294 136.480442 
L 209.23586 137.076283 
L 210.15098 137.17559 
L 210.83732 137.374203 
L 211.75244 137.47351 
L 212.21 137.572817 
L 212.89634 137.672124 
L 215.87048 138.218312 
L 216.55682 138.317619 
L 218.84462 138.714846 
L 219.53096 138.814153 
L 222.27632 139.310687 
L 222.96266 139.409994 
L 225.02168 139.757568 
L 225.70802 139.856875 
L 228.45338 140.353409 
L 229.13972 140.452716 
L 231.42752 140.849943 
L 232.11386 140.94925 
L 234.85922 141.445784 
L 235.31678 141.495438 
L 235.54556 141.594745 
L 235.77434 141.545091 
L 236.2319 141.694052 
L 237.14702 141.793358 
L 237.60458 141.892665 
L 240.8075 142.488506 
L 241.49384 142.587813 
L 245.15432 143.282961 
L 245.84066 143.382268 
L 250.64504 144.375337 
L 250.87382 144.325683 
L 251.56016 144.524297 
L 260.02502 146.46078 
L 260.94014 146.758701 
L 261.3977 146.858008 
L 262.77038 147.255235 
L 264.37184 147.851076 
L 265.05818 148.099344 
L 266.88842 148.943452 
L 267.57476 149.439986 
L 268.03232 149.737907 
L 268.94744 150.979242 
L 269.17622 151.823351 
L 269.17622 151.823351 
" clip-path="url(#p0161836177)" style="fill: none; stroke: #2ca02c; stroke-width: 1.5; stroke-linecap: square"/>
   </g>
   <g id="line2d_34">
    <path d="M 46.733036 -1 
L 47.71718 10.211778 
L 48.86108 20.638998 
L 50.23376 30.619337 
L 51.60644 38.663192 
L 52.75034 44.323682 
L 53.66546 48.34561 
L 55.72448 55.942584 
L 57.32594 60.858273 
L 58.9274 65.178121 
L 63.27422 74.364005 
L 66.01958 78.93212 
L 68.30738 82.209247 
L 71.05274 85.635333 
L 75.62834 90.451715 
L 81.11906 95.119137 
L 82.26296 95.913592 
L 82.72052 96.261166 
L 83.40686 96.757701 
L 89.58392 100.680321 
L 90.27026 101.027895 
L 90.72782 101.325816 
L 91.87172 101.921657 
L 92.78684 102.467845 
L 93.2444 102.666458 
L 94.84586 103.460913 
L 95.5322 103.808487 
L 105.8273 108.177989 
L 106.51364 108.376602 
L 106.9712 108.575216 
L 108.34388 109.121404 
L 108.57266 109.121404 
L 109.03022 109.320017 
L 109.71656 109.518631 
L 109.94534 109.667591 
L 110.17412 109.667591 
L 110.63168 109.866205 
L 111.5468 110.164126 
L 112.46192 110.462046 
L 113.60582 110.80962 
L 114.52094 111.157194 
L 114.9785 111.256501 
L 115.66484 111.455115 
L 117.03752 111.852342 
L 117.95264 112.150263 
L 119.78288 112.646797 
L 120.46922 112.895064 
L 120.92678 112.994371 
L 123.67214 113.689519 
L 124.35848 113.888133 
L 128.01896 114.781894 
L 128.7053 114.980508 
L 129.16286 115.079815 
L 144.03356 118.207981 
L 144.7199 118.307288 
L 144.94868 118.406594 
L 145.17746 118.356941 
L 145.63502 118.505901 
L 146.32136 118.605208 
L 149.52428 119.201049 
L 150.4394 119.300356 
L 150.89696 119.399663 
L 153.18476 119.79689 
L 153.8711 119.896197 
L 156.1589 120.293425 
L 157.07402 120.392732 
L 157.53158 120.492038 
L 158.4467 120.591345 
L 158.90426 120.690652 
L 160.7345 120.988573 
L 161.42084 121.08788 
L 163.0223 121.336147 
L 163.70864 121.3858 
L 164.1662 121.485107 
L 164.85254 121.584414 
L 166.22522 121.783027 
L 167.14034 121.882334 
L 168.7418 122.130601 
L 169.65692 122.229908 
L 171.0296 122.428522 
L 171.94472 122.527829 
L 173.3174 122.726443 
L 174.23252 122.825749 
L 175.6052 123.024363 
L 176.52032 123.12367 
L 177.66422 123.27263 
L 178.57934 123.371937 
L 179.72324 123.520897 
L 180.63836 123.620204 
L 181.78226 123.769165 
L 182.69738 123.868471 
L 183.84128 124.017432 
L 184.98518 124.116739 
L 186.12908 124.265699 
L 187.27298 124.365006 
L 188.41688 124.513966 
L 189.332 124.563619 
L 189.78956 124.662926 
L 190.93346 124.762233 
L 191.84858 124.911193 
L 192.07736 124.86154 
L 192.53492 124.960847 
L 193.67882 125.060154 
L 194.59394 125.15946 
L 195.50906 125.258767 
L 196.42418 125.358074 
L 197.56808 125.457381 
L 198.4832 125.556688 
L 199.6271 125.655995 
L 200.54222 125.755302 
L 201.68612 125.854608 
L 202.83002 126.003569 
L 204.2027 126.102876 
L 205.3466 126.251836 
L 205.57538 126.202182 
L 205.80416 126.301489 
L 206.26172 126.301489 
L 207.17684 126.400796 
L 208.54952 126.500103 
L 209.46464 126.59941 
L 210.83732 126.698717 
L 211.75244 126.798024 
L 213.12512 126.89733 
L 214.04024 126.996637 
L 215.41292 127.095944 
L 216.09926 127.195251 
L 216.32804 127.145598 
L 216.7856 127.244904 
L 218.38706 127.344211 
L 219.30218 127.443518 
L 220.67486 127.542825 
L 221.58998 127.642132 
L 223.19144 127.741439 
L 224.10656 127.840746 
L 225.70802 127.940052 
L 226.62314 128.039359 
L 228.45338 128.138666 
L 229.3685 128.237973 
L 230.96996 128.33728 
L 231.6563 128.436587 
L 232.11386 128.436587 
L 232.8002 128.48624 
L 234.40166 128.585547 
L 235.31678 128.684854 
L 236.68946 128.734507 
L 236.91824 128.833814 
L 237.3758 128.833814 
L 239.20604 128.933121 
L 240.12116 129.032428 
L 241.9514 129.131735 
L 242.86652 129.231041 
L 243.0953 129.181388 
L 243.32408 129.280695 
L 243.78164 129.280695 
L 245.61188 129.380002 
L 246.29822 129.429655 
L 247.89968 129.528962 
L 248.58602 129.578615 
L 249.72992 129.628269 
L 249.9587 129.727576 
L 250.64504 129.677922 
L 250.87382 129.777229 
L 251.33138 129.777229 
L 253.16162 129.876536 
L 253.84796 129.926189 
L 255.44942 130.025496 
L 256.36454 130.124803 
L 256.8221 130.124803 
L 258.88112 130.22411 
L 259.56746 130.273763 
L 261.3977 130.37307 
L 262.31282 130.472377 
L 264.60062 130.571684 
L 265.28696 130.621337 
L 267.34598 130.720644 
L 268.2611 130.819951 
L 269.17622 130.869605 
L 269.17622 130.869605 
" clip-path="url(#p0161836177)" style="fill: none; stroke: #d62728; stroke-width: 1.5; stroke-linecap: square"/>
   </g>
   <g id="line2d_35">
    <path d="M 48.82676 -1 
L 49.7762 8.573215 
L 50.9201 18.255633 
L 52.29278 27.938051 
L 53.66546 35.981907 
L 55.26692 43.876801 
L 56.6396 49.686252 
L 58.9274 57.730107 
L 59.84252 60.560353 
L 61.44398 65.078814 
L 64.87568 73.073016 
L 65.7908 74.860539 
L 67.62104 78.236972 
L 69.90884 82.010633 
L 72.6542 85.982907 
L 73.56932 87.124936 
L 74.48444 88.316618 
L 76.77224 90.94825 
L 77.45858 91.693051 
L 79.97516 94.275029 
L 81.11906 95.317751 
L 81.57662 95.764632 
L 85.92344 99.438986 
L 86.83856 100.134134 
L 87.75368 100.829282 
L 91.41416 103.311953 
L 91.87172 103.609873 
L 94.61708 105.29809 
L 95.5322 105.794624 
L 95.98976 106.092545 
L 96.90488 106.589079 
L 98.04878 107.234574 
L 99.19268 107.780761 
L 99.42146 107.979375 
L 99.87902 108.177989 
L 101.48048 108.92279 
L 101.70926 109.121404 
L 102.16682 109.270364 
L 103.08194 109.766898 
L 103.5395 109.915859 
L 104.22584 110.263433 
L 111.08924 113.143331 
L 111.77558 113.391598 
L 113.60582 114.086746 
L 114.52094 114.384667 
L 116.1224 114.980508 
L 117.03752 115.278429 
L 117.95264 115.576349 
L 118.86776 115.87427 
L 120.01166 116.271497 
L 121.38434 116.668725 
L 122.29946 116.966645 
L 123.67214 117.363873 
L 124.58726 117.661793 
L 126.4175 118.158327 
L 127.10384 118.356941 
L 129.16286 118.903129 
L 130.07798 119.201049 
L 130.53554 119.300356 
L 133.50968 120.045158 
L 133.96724 120.144464 
L 139.0004 121.336147 
L 139.68674 121.53476 
L 140.1443 121.584414 
L 140.83064 121.783027 
L 141.51698 121.882334 
L 141.97454 122.031295 
L 142.66088 122.130601 
L 143.11844 122.229908 
L 151.12574 123.868471 
L 151.81208 123.967778 
L 155.24378 124.613273 
L 155.93012 124.71258 
L 158.90426 125.258767 
L 159.81938 125.358074 
L 160.27694 125.457381 
L 162.56474 125.854608 
L 163.25108 125.904262 
L 163.70864 126.003569 
L 165.76766 126.351143 
L 166.454 126.400796 
L 166.91156 126.500103 
L 168.97058 126.847677 
L 169.65692 126.89733 
L 169.8857 126.996637 
L 170.11448 126.946984 
L 170.57204 127.046291 
L 172.1735 127.294558 
L 172.85984 127.393865 
L 174.23252 127.592478 
L 175.14764 127.691785 
L 176.52032 127.890399 
L 177.43544 127.989706 
L 179.0369 128.237973 
L 179.72324 128.287626 
L 179.95202 128.386933 
L 180.1808 128.33728 
L 180.63836 128.436587 
L 181.55348 128.535893 
L 183.15494 128.784161 
L 184.29884 128.883467 
L 185.44274 129.032428 
L 186.35786 129.131735 
L 187.73054 129.330348 
L 188.64566 129.380002 
L 188.87444 129.479309 
L 189.10322 129.429655 
L 189.56078 129.528962 
L 190.70468 129.628269 
L 192.07736 129.826883 
L 193.22126 129.926189 
L 194.36516 130.07515 
L 195.28028 130.174457 
L 196.42418 130.323417 
L 196.65296 130.273763 
L 197.11052 130.37307 
L 198.02564 130.422724 
L 198.4832 130.522031 
L 199.6271 130.621337 
L 200.771 130.770298 
L 202.14368 130.869605 
L 203.28758 131.018565 
L 204.43148 131.117872 
L 205.3466 131.217179 
L 206.4905 131.316485 
L 207.6344 131.465446 
L 208.7783 131.515099 
L 209.00708 131.614406 
L 209.46464 131.614406 
L 210.37976 131.713713 
L 211.75244 131.81302 
L 212.89634 131.96198 
L 213.12512 131.912326 
L 213.58268 132.011633 
L 214.95536 132.11094 
L 215.87048 132.210247 
L 217.24316 132.309554 
L 218.38706 132.458514 
L 219.98852 132.557821 
L 221.13242 132.706781 
L 221.58998 132.706781 
L 222.27632 132.806088 
L 222.73388 132.806088 
L 223.42022 132.905395 
L 223.87778 132.905395 
L 225.02168 132.955048 
L 225.25046 133.054355 
L 225.70802 133.054355 
L 227.30948 133.153662 
L 228.45338 133.302622 
L 230.05484 133.401929 
L 230.96996 133.501236 
L 232.57142 133.600543 
L 233.48654 133.69985 
L 233.71532 133.650196 
L 233.9441 133.749503 
L 234.40166 133.749503 
L 236.00312 133.84881 
L 236.91824 133.948117 
L 238.5197 134.047424 
L 239.20604 134.146731 
L 239.6636 134.146731 
L 241.49384 134.246038 
L 242.40896 134.345344 
L 244.2392 134.444651 
L 245.15432 134.543958 
L 245.3831 134.494305 
L 245.61188 134.593612 
L 246.06944 134.593612 
L 247.89968 134.692918 
L 248.58602 134.792225 
L 249.04358 134.792225 
L 250.87382 134.891532 
L 251.78894 134.990839 
L 253.61918 135.090146 
L 254.5343 135.189453 
L 254.99186 135.189453 
L 256.8221 135.288759 
L 257.73722 135.388066 
L 260.02502 135.487373 
L 260.71136 135.537027 
L 262.31282 135.636333 
L 263.22794 135.73564 
L 263.6855 135.73564 
L 265.74452 135.834947 
L 266.65964 135.934254 
L 267.1172 135.934254 
L 267.80354 135.983907 
L 269.17622 136.083214 
L 269.17622 136.083214 
" clip-path="url(#p0161836177)" style="fill: none; stroke: #9467bd; stroke-width: 1.5; stroke-linecap: square"/>
   </g>
   <g id="patch_3">
    <path d="M 40.625 156.888 
L 40.625 7.2 
" style="fill: none; stroke: #000000; stroke-width: 0.8; stroke-linejoin: miter; stroke-linecap: square"/>
   </g>
   <g id="patch_4">
    <path d="M 40.625 156.888 
L 269.405 156.888 
" style="fill: none; stroke: #000000; stroke-width: 0.8; stroke-linejoin: miter; stroke-linecap: square"/>
   </g>
   <g id="legend_1">
    <g id="patch_5">
     <path d="M 103.405 90.95625 
L 262.405 90.95625 
Q 264.405 90.95625 264.405 88.95625 
L 264.405 14.2 
Q 264.405 12.2 262.405 12.2 
L 103.405 12.2 
Q 101.405 12.2 101.405 14.2 
L 101.405 88.95625 
Q 101.405 90.95625 103.405 90.95625 
z
" style="fill: #ffffff; opacity: 0.8; stroke: #cccccc; stroke-linejoin: miter"/>
    </g>
    <g id="line2d_36">
     <path d="M 105.405 20.298438 
L 115.405 20.298438 
L 125.405 20.298438 
" style="fill: none; stroke: #1f77b4; stroke-width: 1.5; stroke-linecap: square"/>
    </g>
    <g id="text_15">
     <!-- Linear   $\,x$ -->
     <g transform="translate(133.405 23.798438) scale(0.1 -0.1)">
      <defs>
       <path id="DejaVuSans-4c" d="M 628 4666 
L 1259 4666 
L 1259 531 
L 3531 531 
L 3531 0 
L 628 0 
L 628 4666 
z
" transform="scale(0.015625)"/>
       <path id="DejaVuSans-Oblique-78" d="M 3841 3500 
L 2234 1784 
L 3219 0 
L 2559 0 
L 1819 1388 
L 531 0 
L -166 0 
L 1556 1844 
L 641 3500 
L 1300 3500 
L 1972 2234 
L 3144 3500 
L 3841 3500 
z
" transform="scale(0.015625)"/>
      </defs>
      <use xlink:href="#DejaVuSans-4c" transform="translate(0 0.015625)"/>
      <use xlink:href="#DejaVuSans-69" transform="translate(55.712891 0.015625)"/>
      <use xlink:href="#DejaVuSans-6e" transform="translate(83.496094 0.015625)"/>
      <use xlink:href="#DejaVuSans-65" transform="translate(146.875 0.015625)"/>
      <use xlink:href="#DejaVuSans-61" transform="translate(208.398438 0.015625)"/>
      <use xlink:href="#DejaVuSans-72" transform="translate(269.677734 0.015625)"/>
      <use xlink:href="#DejaVuSans-20" transform="translate(310.791016 0.015625)"/>
      <use xlink:href="#DejaVuSans-20" transform="translate(342.578125 0.015625)"/>
      <use xlink:href="#DejaVuSans-20" transform="translate(374.365234 0.015625)"/>
      <use xlink:href="#DejaVuSans-Oblique-78" transform="translate(422.38802 0.015625)"/>
     </g>
    </g>
    <g id="line2d_37">
     <path d="M 105.405 34.976563 
L 115.405 34.976563 
L 125.405 34.976563 
" style="fill: none; stroke: #ff7f0e; stroke-width: 1.5; stroke-linecap: square"/>
    </g>
    <g id="text_16">
     <!-- Skewed $0.6\mapsto0.3$ -->
     <g transform="translate(133.405 38.476563) scale(0.1 -0.1)">
      <defs>
       <path id="DejaVuSans-53" d="M 3425 4513 
L 3425 3897 
Q 3066 4069 2747 4153 
Q 2428 4238 2131 4238 
Q 1616 4238 1336 4038 
Q 1056 3838 1056 3469 
Q 1056 3159 1242 3001 
Q 1428 2844 1947 2747 
L 2328 2669 
Q 3034 2534 3370 2195 
Q 3706 1856 3706 1288 
Q 3706 609 3251 259 
Q 2797 -91 1919 -91 
Q 1588 -91 1214 -16 
Q 841 59 441 206 
L 441 856 
Q 825 641 1194 531 
Q 1563 422 1919 422 
Q 2459 422 2753 634 
Q 3047 847 3047 1241 
Q 3047 1584 2836 1778 
Q 2625 1972 2144 2069 
L 1759 2144 
Q 1053 2284 737 2584 
Q 422 2884 422 3419 
Q 422 4038 858 4394 
Q 1294 4750 2059 4750 
Q 2388 4750 2728 4690 
Q 3069 4631 3425 4513 
z
" transform="scale(0.015625)"/>
       <path id="DejaVuSans-77" d="M 269 3500 
L 844 3500 
L 1563 769 
L 2278 3500 
L 2956 3500 
L 3675 769 
L 4391 3500 
L 4966 3500 
L 4050 0 
L 3372 0 
L 2619 2869 
L 1863 0 
L 1184 0 
L 269 3500 
z
" transform="scale(0.015625)"/>
       <path id="DejaVuSans-21a6" d="M 4175 1741 
L 897 1741 
L 897 663 
L 366 663 
L 366 3350 
L 897 3350 
L 897 2272 
L 4175 2272 
L 3447 3000 
L 3822 3375 
L 5050 2147 
L 5050 1866 
L 3822 638 
L 3447 1013 
L 4175 1741 
z
" transform="scale(0.015625)"/>
       <path id="DejaVuSans-33" d="M 2597 2516 
Q 3050 2419 3304 2112 
Q 3559 1806 3559 1356 
Q 3559 666 3084 287 
Q 2609 -91 1734 -91 
Q 1441 -91 1130 -33 
Q 819 25 488 141 
L 488 750 
Q 750 597 1062 519 
Q 1375 441 1716 441 
Q 2309 441 2620 675 
Q 2931 909 2931 1356 
Q 2931 1769 2642 2001 
Q 2353 2234 1838 2234 
L 1294 2234 
L 1294 2753 
L 1863 2753 
Q 2328 2753 2575 2939 
Q 2822 3125 2822 3475 
Q 2822 3834 2567 4026 
Q 2313 4219 1838 4219 
Q 1578 4219 1281 4162 
Q 984 4106 628 3988 
L 628 4550 
Q 988 4650 1302 4700 
Q 1616 4750 1894 4750 
Q 2613 4750 3031 4423 
Q 3450 4097 3450 3541 
Q 3450 3153 3228 2886 
Q 3006 2619 2597 2516 
z
" transform="scale(0.015625)"/>
      </defs>
      <use xlink:href="#DejaVuSans-53" transform="translate(0 0.015625)"/>
      <use xlink:href="#DejaVuSans-6b" transform="translate(63.476562 0.015625)"/>
      <use xlink:href="#DejaVuSans-65" transform="translate(121.386719 0.015625)"/>
      <use xlink:href="#DejaVuSans-77" transform="translate(182.910156 0.015625)"/>
      <use xlink:href="#DejaVuSans-65" transform="translate(264.697266 0.015625)"/>
      <use xlink:href="#DejaVuSans-64" transform="translate(326.220703 0.015625)"/>
      <use xlink:href="#DejaVuSans-20" transform="translate(389.697266 0.015625)"/>
      <use xlink:href="#DejaVuSans-30" transform="translate(421.484375 0.015625)"/>
      <use xlink:href="#DejaVuSans-2e" transform="translate(485.107422 0.015625)"/>
      <use xlink:href="#DejaVuSans-36" transform="translate(516.894531 0.015625)"/>
      <use xlink:href="#DejaVuSans-21a6" transform="translate(600 0.015625)"/>
      <use xlink:href="#DejaVuSans-30" transform="translate(703.271484 0.015625)"/>
      <use xlink:href="#DejaVuSans-2e" transform="translate(766.894531 0.015625)"/>
      <use xlink:href="#DejaVuSans-33" transform="translate(798.681641 0.015625)"/>
     </g>
    </g>
    <g id="line2d_38">
     <path d="M 105.405 49.65625 
L 115.405 49.65625 
L 125.405 49.65625 
" style="fill: none; stroke: #2ca02c; stroke-width: 1.5; stroke-linecap: square"/>
    </g>
    <g id="text_17">
     <!-- Optimal $x + (1{-}x)\ln(1{-}x)$ -->
     <g transform="translate(133.405 53.15625) scale(0.1 -0.1)">
      <defs>
       <path id="DejaVuSans-4f" d="M 2522 4238 
Q 1834 4238 1429 3725 
Q 1025 3213 1025 2328 
Q 1025 1447 1429 934 
Q 1834 422 2522 422 
Q 3209 422 3611 934 
Q 4013 1447 4013 2328 
Q 4013 3213 3611 3725 
Q 3209 4238 2522 4238 
z
M 2522 4750 
Q 3503 4750 4090 4092 
Q 4678 3434 4678 2328 
Q 4678 1225 4090 567 
Q 3503 -91 2522 -91 
Q 1538 -91 948 565 
Q 359 1222 359 2328 
Q 359 3434 948 4092 
Q 1538 4750 2522 4750 
z
" transform="scale(0.015625)"/>
       <path id="DejaVuSans-2b" d="M 2944 4013 
L 2944 2272 
L 4684 2272 
L 4684 1741 
L 2944 1741 
L 2944 0 
L 2419 0 
L 2419 1741 
L 678 1741 
L 678 2272 
L 2419 2272 
L 2419 4013 
L 2944 4013 
z
" transform="scale(0.015625)"/>
       <path id="DejaVuSans-28" d="M 1984 4856 
Q 1566 4138 1362 3434 
Q 1159 2731 1159 2009 
Q 1159 1288 1364 580 
Q 1569 -128 1984 -844 
L 1484 -844 
Q 1016 -109 783 600 
Q 550 1309 550 2009 
Q 550 2706 781 3412 
Q 1013 4119 1484 4856 
L 1984 4856 
z
" transform="scale(0.015625)"/>
       <path id="DejaVuSans-2212" d="M 678 2272 
L 4684 2272 
L 4684 1741 
L 678 1741 
L 678 2272 
z
" transform="scale(0.015625)"/>
       <path id="DejaVuSans-29" d="M 513 4856 
L 1013 4856 
Q 1481 4119 1714 3412 
Q 1947 2706 1947 2009 
Q 1947 1309 1714 600 
Q 1481 -109 1013 -844 
L 513 -844 
Q 928 -128 1133 580 
Q 1338 1288 1338 2009 
Q 1338 2731 1133 3434 
Q 928 4138 513 4856 
z
" transform="scale(0.015625)"/>
      </defs>
      <use xlink:href="#DejaVuSans-4f" transform="translate(0 0.015625)"/>
      <use xlink:href="#DejaVuSans-70" transform="translate(78.710938 0.015625)"/>
      <use xlink:href="#DejaVuSans-74" transform="translate(142.1875 0.015625)"/>
      <use xlink:href="#DejaVuSans-69" transform="translate(181.396484 0.015625)"/>
      <use xlink:href="#DejaVuSans-6d" transform="translate(209.179688 0.015625)"/>
      <use xlink:href="#DejaVuSans-61" transform="translate(306.591797 0.015625)"/>
      <use xlink:href="#DejaVuSans-6c" transform="translate(367.871094 0.015625)"/>
      <use xlink:href="#DejaVuSans-20" transform="translate(395.654297 0.015625)"/>
      <use xlink:href="#DejaVuSans-Oblique-78" transform="translate(427.441406 0.015625)"/>
      <use xlink:href="#DejaVuSans-2b" transform="translate(506.103516 0.015625)"/>
      <use xlink:href="#DejaVuSans-28" transform="translate(609.375 0.015625)"/>
      <use xlink:href="#DejaVuSans-31" transform="translate(648.388672 0.015625)"/>
      <use xlink:href="#DejaVuSans-2212" transform="translate(712.011719 0.015625)"/>
      <use xlink:href="#DejaVuSans-Oblique-78" transform="translate(795.800781 0.015625)"/>
      <use xlink:href="#DejaVuSans-29" transform="translate(854.980469 0.015625)"/>
      <use xlink:href="#DejaVuSans-6c" transform="translate(893.994141 0.015625)"/>
      <use xlink:href="#DejaVuSans-6e" transform="translate(921.777344 0.015625)"/>
      <use xlink:href="#DejaVuSans-28" transform="translate(985.15625 0.015625)"/>
      <use xlink:href="#DejaVuSans-31" transform="translate(1024.169922 0.015625)"/>
      <use xlink:href="#DejaVuSans-2212" transform="translate(1087.792969 0.015625)"/>
      <use xlink:href="#DejaVuSans-Oblique-78" transform="translate(1171.582031 0.015625)"/>
      <use xlink:href="#DejaVuSans-29" transform="translate(1230.761719 0.015625)"/>
     </g>
    </g>
    <g id="line2d_39">
     <path d="M 105.405 65.85625 
L 115.405 65.85625 
L 125.405 65.85625 
" style="fill: none; stroke: #d62728; stroke-width: 1.5; stroke-linecap: square"/>
    </g>
    <g id="text_18">
     <!-- Square  $x^2$ -->
     <g transform="translate(133.405 69.35625) scale(0.1 -0.1)">
      <defs>
       <path id="DejaVuSans-71" d="M 947 1747 
Q 947 1113 1208 752 
Q 1469 391 1925 391 
Q 2381 391 2643 752 
Q 2906 1113 2906 1747 
Q 2906 2381 2643 2742 
Q 2381 3103 1925 3103 
Q 1469 3103 1208 2742 
Q 947 2381 947 1747 
z
M 2906 525 
Q 2725 213 2448 61 
Q 2172 -91 1784 -91 
Q 1150 -91 751 415 
Q 353 922 353 1747 
Q 353 2572 751 3078 
Q 1150 3584 1784 3584 
Q 2172 3584 2448 3432 
Q 2725 3281 2906 2969 
L 2906 3500 
L 3481 3500 
L 3481 -1331 
L 2906 -1331 
L 2906 525 
z
" transform="scale(0.015625)"/>
      </defs>
      <use xlink:href="#DejaVuSans-53" transform="translate(0 0.765625)"/>
      <use xlink:href="#DejaVuSans-71" transform="translate(63.476562 0.765625)"/>
      <use xlink:href="#DejaVuSans-75" transform="translate(126.953125 0.765625)"/>
      <use xlink:href="#DejaVuSans-61" transform="translate(190.332031 0.765625)"/>
      <use xlink:href="#DejaVuSans-72" transform="translate(251.611328 0.765625)"/>
      <use xlink:href="#DejaVuSans-65" transform="translate(292.724609 0.765625)"/>
      <use xlink:href="#DejaVuSans-20" transform="translate(354.248047 0.765625)"/>
      <use xlink:href="#DejaVuSans-20" transform="translate(386.035156 0.765625)"/>
      <use xlink:href="#DejaVuSans-Oblique-78" transform="translate(417.822266 0.765625)"/>
      <use xlink:href="#DejaVuSans-32" transform="translate(481.468099 39.046875) scale(0.7)"/>
     </g>
    </g>
    <g id="line2d_40">
     <path d="M 105.405 81.376563 
L 115.405 81.376563 
L 125.405 81.376563 
" style="fill: none; stroke: #9467bd; stroke-width: 1.5; stroke-linecap: square"/>
    </g>
    <g id="text_19">
     <!-- Cubic    $(x^3+x^2)/2$ -->
     <g transform="translate(133.405 84.876563) scale(0.1 -0.1)">
      <defs>
       <path id="DejaVuSans-43" d="M 4122 4306 
L 4122 3641 
Q 3803 3938 3442 4084 
Q 3081 4231 2675 4231 
Q 1875 4231 1450 3742 
Q 1025 3253 1025 2328 
Q 1025 1406 1450 917 
Q 1875 428 2675 428 
Q 3081 428 3442 575 
Q 3803 722 4122 1019 
L 4122 359 
Q 3791 134 3420 21 
Q 3050 -91 2638 -91 
Q 1578 -91 968 557 
Q 359 1206 359 2328 
Q 359 3453 968 4101 
Q 1578 4750 2638 4750 
Q 3056 4750 3426 4639 
Q 3797 4528 4122 4306 
z
" transform="scale(0.015625)"/>
       <path id="DejaVuSans-2f" d="M 1625 4666 
L 2156 4666 
L 531 -594 
L 0 -594 
L 1625 4666 
z
" transform="scale(0.015625)"/>
      </defs>
      <use xlink:href="#DejaVuSans-43" transform="translate(0 0.765625)"/>
      <use xlink:href="#DejaVuSans-75" transform="translate(69.824219 0.765625)"/>
      <use xlink:href="#DejaVuSans-62" transform="translate(133.203125 0.765625)"/>
      <use xlink:href="#DejaVuSans-69" transform="translate(196.679688 0.765625)"/>
      <use xlink:href="#DejaVuSans-63" transform="translate(224.462891 0.765625)"/>
      <use xlink:href="#DejaVuSans-20" transform="translate(279.443359 0.765625)"/>
      <use xlink:href="#DejaVuSans-20" transform="translate(311.230469 0.765625)"/>
      <use xlink:href="#DejaVuSans-20" transform="translate(343.017578 0.765625)"/>
      <use xlink:href="#DejaVuSans-20" transform="translate(374.804688 0.765625)"/>
      <use xlink:href="#DejaVuSans-28" transform="translate(406.591797 0.765625)"/>
      <use xlink:href="#DejaVuSans-Oblique-78" transform="translate(445.605469 0.765625)"/>
      <use xlink:href="#DejaVuSans-33" transform="translate(509.251302 39.046875) scale(0.7)"/>
      <use xlink:href="#DejaVuSans-2b" transform="translate(576.004232 0.765625)"/>
      <use xlink:href="#DejaVuSans-Oblique-78" transform="translate(679.275716 0.765625)"/>
      <use xlink:href="#DejaVuSans-32" transform="translate(742.921549 39.046875) scale(0.7)"/>
      <use xlink:href="#DejaVuSans-29" transform="translate(790.192057 0.765625)"/>
      <use xlink:href="#DejaVuSans-2f" transform="translate(829.205729 0.765625)"/>
      <use xlink:href="#DejaVuSans-32" transform="translate(859.272135 0.765625)"/>
     </g>
    </g>
   </g>
  </g>
 </g>
 <defs>
  <clipPath id="p0161836177">
   <rect x="40.625" y="7.2" width="228.78" height="149.688"/>
  </clipPath>
 </defs>
</svg>
