<?xml version="1.0" encoding="utf-8" standalone="no"?>
<!DOCTYPE svg PUBLIC "-//W3C//DTD SVG 1.1//EN"
  "http://www.w3.org/Graphics/SVG/1.1/DTD/svg11.dtd">
<svg xmlns:xlink="http://www.w3.org/1999/xlink" width="306.876563pt" height="211.07625pt" viewBox="0 0 306.876563 211.07625" xmlns="http://www.w3.org/2000/svg" version="1.1">
 <metadata>
  <rdf:RDF xmlns:dc="http://purl.org/dc/elements/1.1/" xmlns:cc="http://creativecommons.org/ns#" xmlns:rdf="http://www.w3.org/1999/02/22-rdf-syntax-ns#">
   <cc:Work>
    <dc:type rdf:resource="http://purl.org/dc/dcmitype/StillImage"/>
    <dc:date>2025-01-31T18:31:14.356925</dc:date>
    <dc:format>image/svg+xml</dc:format>
    <dc:creator>
     <cc:Agent>
      <dc:title>Matplotlib v3.10.0, https://matplotlib.org/</dc:title>
     </cc:Agent>
    </dc:creator>
   </cc:Work>
  </rdf:RDF>
 </metadata>
 <defs>
  <style type="text/css">*{stroke-linejoin: round; stroke-linecap: butt}</style>
 </defs>
 <g id="figure_1">
  <g id="patch_1">
   <path d="M 0 211.07625 
L 306.876563 211.07625 
L 306.876563 0 
L 0 0 
z
" style="fill: #ffffff"/>
  </g>
  <g id="axes_1">
   <g id="patch_2">
    <path d="M 40.625 173.52 
L 291.725 173.52 
L 291.725 7.2 
L 40.625 7.2 
z
" style="fill: #ffffff"/>
   </g>
   <g id="matplotlib.axis_1">
    <g id="xtick_1">
     <g id="line2d_1">
      <defs>
       <path id="m6226db2be6" d="M 0 0 
L 0 3.5 
" style="stroke: #000000; stroke-width: 0.8"/>
      </defs>
      <g>
       <use xlink:href="#m6226db2be6" x="40.625" y="173.52" style="stroke: #000000; stroke-width: 0.8"/>
      </g>
     </g>
     <g id="text_1">
      <!-- 0.0 -->
      <g transform="translate(32.673438 188.118438) scale(0.1 -0.1)">
       <defs>
        <path id="DejaVuSans-30" d="M 2034 4250 
Q 1547 4250 1301 3770 
Q 1056 3291 1056 2328 
Q 1056 1369 1301 889 
Q 1547 409 2034 409 
Q 2525 409 2770 889 
Q 3016 1369 3016 2328 
Q 3016 3291 2770 3770 
Q 2525 4250 2034 4250 
z
M 2034 4750 
Q 2819 4750 3233 4129 
Q 3647 3509 3647 2328 
Q 3647 1150 3233 529 
Q 2819 -91 2034 -91 
Q 1250 -91 836 529 
Q 422 1150 422 2328 
Q 422 3509 836 4129 
Q 1250 4750 2034 4750 
z
" transform="scale(0.015625)"/>
        <path id="DejaVuSans-2e" d="M 684 794 
L 1344 794 
L 1344 0 
L 684 0 
L 684 794 
z
" transform="scale(0.015625)"/>
       </defs>
       <use xlink:href="#DejaVuSans-30"/>
       <use xlink:href="#DejaVuSans-2e" transform="translate(63.623047 0)"/>
       <use xlink:href="#DejaVuSans-30" transform="translate(95.410156 0)"/>
      </g>
     </g>
    </g>
    <g id="xtick_2">
     <g id="line2d_2">
      <g>
       <use xlink:href="#m6226db2be6" x="90.845" y="173.52" style="stroke: #000000; stroke-width: 0.8"/>
      </g>
     </g>
     <g id="text_2">
      <!-- 0.2 -->
      <g transform="translate(82.893438 188.118438) scale(0.1 -0.1)">
       <defs>
        <path id="DejaVuSans-32" d="M 1228 531 
L 3431 531 
L 3431 0 
L 469 0 
L 469 531 
Q 828 903 1448 1529 
Q 2069 2156 2228 2338 
Q 2531 2678 2651 2914 
Q 2772 3150 2772 3378 
Q 2772 3750 2511 3984 
Q 2250 4219 1831 4219 
Q 1534 4219 1204 4116 
Q 875 4013 500 3803 
L 500 4441 
Q 881 4594 1212 4672 
Q 1544 4750 1819 4750 
Q 2544 4750 2975 4387 
Q 3406 4025 3406 3419 
Q 3406 3131 3298 2873 
Q 3191 2616 2906 2266 
Q 2828 2175 2409 1742 
Q 1991 1309 1228 531 
z
" transform="scale(0.015625)"/>
       </defs>
       <use xlink:href="#DejaVuSans-30"/>
       <use xlink:href="#DejaVuSans-2e" transform="translate(63.623047 0)"/>
       <use xlink:href="#DejaVuSans-32" transform="translate(95.410156 0)"/>
      </g>
     </g>
    </g>
    <g id="xtick_3">
     <g id="line2d_3">
      <g>
       <use xlink:href="#m6226db2be6" x="141.065" y="173.52" style="stroke: #000000; stroke-width: 0.8"/>
      </g>
     </g>
     <g id="text_3">
      <!-- 0.4 -->
      <g transform="translate(133.113438 188.118438) scale(0.1 -0.1)">
       <defs>
        <path id="DejaVuSans-34" d="M 2419 4116 
L 825 1625 
L 2419 1625 
L 2419 4116 
z
M 2253 4666 
L 3047 4666 
L 3047 1625 
L 3713 1625 
L 3713 1100 
L 3047 1100 
L 3047 0 
L 2419 0 
L 2419 1100 
L 313 1100 
L 313 1709 
L 2253 4666 
z
" transform="scale(0.015625)"/>
       </defs>
       <use xlink:href="#DejaVuSans-30"/>
       <use xlink:href="#DejaVuSans-2e" transform="translate(63.623047 0)"/>
       <use xlink:href="#DejaVuSans-34" transform="translate(95.410156 0)"/>
      </g>
     </g>
    </g>
    <g id="xtick_4">
     <g id="line2d_4">
      <g>
       <use xlink:href="#m6226db2be6" x="191.285" y="173.52" style="stroke: #000000; stroke-width: 0.8"/>
      </g>
     </g>
     <g id="text_4">
      <!-- 0.6 -->
      <g transform="translate(183.333438 188.118438) scale(0.1 -0.1)">
       <defs>
        <path id="DejaVuSans-36" d="M 2113 2584 
Q 1688 2584 1439 2293 
Q 1191 2003 1191 1497 
Q 1191 994 1439 701 
Q 1688 409 2113 409 
Q 2538 409 2786 701 
Q 3034 994 3034 1497 
Q 3034 2003 2786 2293 
Q 2538 2584 2113 2584 
z
M 3366 4563 
L 3366 3988 
Q 3128 4100 2886 4159 
Q 2644 4219 2406 4219 
Q 1781 4219 1451 3797 
Q 1122 3375 1075 2522 
Q 1259 2794 1537 2939 
Q 1816 3084 2150 3084 
Q 2853 3084 3261 2657 
Q 3669 2231 3669 1497 
Q 3669 778 3244 343 
Q 2819 -91 2113 -91 
Q 1303 -91 875 529 
Q 447 1150 447 2328 
Q 447 3434 972 4092 
Q 1497 4750 2381 4750 
Q 2619 4750 2861 4703 
Q 3103 4656 3366 4563 
z
" transform="scale(0.015625)"/>
       </defs>
       <use xlink:href="#DejaVuSans-30"/>
       <use xlink:href="#DejaVuSans-2e" transform="translate(63.623047 0)"/>
       <use xlink:href="#DejaVuSans-36" transform="translate(95.410156 0)"/>
      </g>
     </g>
    </g>
    <g id="xtick_5">
     <g id="line2d_5">
      <g>
       <use xlink:href="#m6226db2be6" x="241.505" y="173.52" style="stroke: #000000; stroke-width: 0.8"/>
      </g>
     </g>
     <g id="text_5">
      <!-- 0.8 -->
      <g transform="translate(233.553438 188.118438) scale(0.1 -0.1)">
       <defs>
        <path id="DejaVuSans-38" d="M 2034 2216 
Q 1584 2216 1326 1975 
Q 1069 1734 1069 1313 
Q 1069 891 1326 650 
Q 1584 409 2034 409 
Q 2484 409 2743 651 
Q 3003 894 3003 1313 
Q 3003 1734 2745 1975 
Q 2488 2216 2034 2216 
z
M 1403 2484 
Q 997 2584 770 2862 
Q 544 3141 544 3541 
Q 544 4100 942 4425 
Q 1341 4750 2034 4750 
Q 2731 4750 3128 4425 
Q 3525 4100 3525 3541 
Q 3525 3141 3298 2862 
Q 3072 2584 2669 2484 
Q 3125 2378 3379 2068 
Q 3634 1759 3634 1313 
Q 3634 634 3220 271 
Q 2806 -91 2034 -91 
Q 1263 -91 848 271 
Q 434 634 434 1313 
Q 434 1759 690 2068 
Q 947 2378 1403 2484 
z
M 1172 3481 
Q 1172 3119 1398 2916 
Q 1625 2713 2034 2713 
Q 2441 2713 2670 2916 
Q 2900 3119 2900 3481 
Q 2900 3844 2670 4047 
Q 2441 4250 2034 4250 
Q 1625 4250 1398 4047 
Q 1172 3844 1172 3481 
z
" transform="scale(0.015625)"/>
       </defs>
       <use xlink:href="#DejaVuSans-30"/>
       <use xlink:href="#DejaVuSans-2e" transform="translate(63.623047 0)"/>
       <use xlink:href="#DejaVuSans-38" transform="translate(95.410156 0)"/>
      </g>
     </g>
    </g>
    <g id="xtick_6">
     <g id="line2d_6">
      <g>
       <use xlink:href="#m6226db2be6" x="291.725" y="173.52" style="stroke: #000000; stroke-width: 0.8"/>
      </g>
     </g>
     <g id="text_6">
      <!-- 1.0 -->
      <g transform="translate(283.773438 188.118438) scale(0.1 -0.1)">
       <defs>
        <path id="DejaVuSans-31" d="M 794 531 
L 1825 531 
L 1825 4091 
L 703 3866 
L 703 4441 
L 1819 4666 
L 2450 4666 
L 2450 531 
L 3481 531 
L 3481 0 
L 794 0 
L 794 531 
z
" transform="scale(0.015625)"/>
       </defs>
       <use xlink:href="#DejaVuSans-31"/>
       <use xlink:href="#DejaVuSans-2e" transform="translate(63.623047 0)"/>
       <use xlink:href="#DejaVuSans-30" transform="translate(95.410156 0)"/>
      </g>
     </g>
    </g>
    <g id="text_7">
     <!-- Normalized bucket index -->
     <g transform="translate(104.117969 201.796563) scale(0.1 -0.1)">
      <defs>
       <path id="DejaVuSans-4e" d="M 628 4666 
L 1478 4666 
L 3547 763 
L 3547 4666 
L 4159 4666 
L 4159 0 
L 3309 0 
L 1241 3903 
L 1241 0 
L 628 0 
L 628 4666 
z
" transform="scale(0.015625)"/>
       <path id="DejaVuSans-6f" d="M 1959 3097 
Q 1497 3097 1228 2736 
Q 959 2375 959 1747 
Q 959 1119 1226 758 
Q 1494 397 1959 397 
Q 2419 397 2687 759 
Q 2956 1122 2956 1747 
Q 2956 2369 2687 2733 
Q 2419 3097 1959 3097 
z
M 1959 3584 
Q 2709 3584 3137 3096 
Q 3566 2609 3566 1747 
Q 3566 888 3137 398 
Q 2709 -91 1959 -91 
Q 1206 -91 779 398 
Q 353 888 353 1747 
Q 353 2609 779 3096 
Q 1206 3584 1959 3584 
z
" transform="scale(0.015625)"/>
       <path id="DejaVuSans-72" d="M 2631 2963 
Q 2534 3019 2420 3045 
Q 2306 3072 2169 3072 
Q 1681 3072 1420 2755 
Q 1159 2438 1159 1844 
L 1159 0 
L 581 0 
L 581 3500 
L 1159 3500 
L 1159 2956 
Q 1341 3275 1631 3429 
Q 1922 3584 2338 3584 
Q 2397 3584 2469 3576 
Q 2541 3569 2628 3553 
L 2631 2963 
z
" transform="scale(0.015625)"/>
       <path id="DejaVuSans-6d" d="M 3328 2828 
Q 3544 3216 3844 3400 
Q 4144 3584 4550 3584 
Q 5097 3584 5394 3201 
Q 5691 2819 5691 2113 
L 5691 0 
L 5113 0 
L 5113 2094 
Q 5113 2597 4934 2840 
Q 4756 3084 4391 3084 
Q 3944 3084 3684 2787 
Q 3425 2491 3425 1978 
L 3425 0 
L 2847 0 
L 2847 2094 
Q 2847 2600 2669 2842 
Q 2491 3084 2119 3084 
Q 1678 3084 1418 2786 
Q 1159 2488 1159 1978 
L 1159 0 
L 581 0 
L 581 3500 
L 1159 3500 
L 1159 2956 
Q 1356 3278 1631 3431 
Q 1906 3584 2284 3584 
Q 2666 3584 2933 3390 
Q 3200 3197 3328 2828 
z
" transform="scale(0.015625)"/>
       <path id="DejaVuSans-61" d="M 2194 1759 
Q 1497 1759 1228 1600 
Q 959 1441 959 1056 
Q 959 750 1161 570 
Q 1363 391 1709 391 
Q 2188 391 2477 730 
Q 2766 1069 2766 1631 
L 2766 1759 
L 2194 1759 
z
M 3341 1997 
L 3341 0 
L 2766 0 
L 2766 531 
Q 2569 213 2275 61 
Q 1981 -91 1556 -91 
Q 1019 -91 701 211 
Q 384 513 384 1019 
Q 384 1609 779 1909 
Q 1175 2209 1959 2209 
L 2766 2209 
L 2766 2266 
Q 2766 2663 2505 2880 
Q 2244 3097 1772 3097 
Q 1472 3097 1187 3025 
Q 903 2953 641 2809 
L 641 3341 
Q 956 3463 1253 3523 
Q 1550 3584 1831 3584 
Q 2591 3584 2966 3190 
Q 3341 2797 3341 1997 
z
" transform="scale(0.015625)"/>
       <path id="DejaVuSans-6c" d="M 603 4863 
L 1178 4863 
L 1178 0 
L 603 0 
L 603 4863 
z
" transform="scale(0.015625)"/>
       <path id="DejaVuSans-69" d="M 603 3500 
L 1178 3500 
L 1178 0 
L 603 0 
L 603 3500 
z
M 603 4863 
L 1178 4863 
L 1178 4134 
L 603 4134 
L 603 4863 
z
" transform="scale(0.015625)"/>
       <path id="DejaVuSans-7a" d="M 353 3500 
L 3084 3500 
L 3084 2975 
L 922 459 
L 3084 459 
L 3084 0 
L 275 0 
L 275 525 
L 2438 3041 
L 353 3041 
L 353 3500 
z
" transform="scale(0.015625)"/>
       <path id="DejaVuSans-65" d="M 3597 1894 
L 3597 1613 
L 953 1613 
Q 991 1019 1311 708 
Q 1631 397 2203 397 
Q 2534 397 2845 478 
Q 3156 559 3463 722 
L 3463 178 
Q 3153 47 2828 -22 
Q 2503 -91 2169 -91 
Q 1331 -91 842 396 
Q 353 884 353 1716 
Q 353 2575 817 3079 
Q 1281 3584 2069 3584 
Q 2775 3584 3186 3129 
Q 3597 2675 3597 1894 
z
M 3022 2063 
Q 3016 2534 2758 2815 
Q 2500 3097 2075 3097 
Q 1594 3097 1305 2825 
Q 1016 2553 972 2059 
L 3022 2063 
z
" transform="scale(0.015625)"/>
       <path id="DejaVuSans-64" d="M 2906 2969 
L 2906 4863 
L 3481 4863 
L 3481 0 
L 2906 0 
L 2906 525 
Q 2725 213 2448 61 
Q 2172 -91 1784 -91 
Q 1150 -91 751 415 
Q 353 922 353 1747 
Q 353 2572 751 3078 
Q 1150 3584 1784 3584 
Q 2172 3584 2448 3432 
Q 2725 3281 2906 2969 
z
M 947 1747 
Q 947 1113 1208 752 
Q 1469 391 1925 391 
Q 2381 391 2643 752 
Q 2906 1113 2906 1747 
Q 2906 2381 2643 2742 
Q 2381 3103 1925 3103 
Q 1469 3103 1208 2742 
Q 947 2381 947 1747 
z
" transform="scale(0.015625)"/>
       <path id="DejaVuSans-20" transform="scale(0.015625)"/>
       <path id="DejaVuSans-62" d="M 3116 1747 
Q 3116 2381 2855 2742 
Q 2594 3103 2138 3103 
Q 1681 3103 1420 2742 
Q 1159 2381 1159 1747 
Q 1159 1113 1420 752 
Q 1681 391 2138 391 
Q 2594 391 2855 752 
Q 3116 1113 3116 1747 
z
M 1159 2969 
Q 1341 3281 1617 3432 
Q 1894 3584 2278 3584 
Q 2916 3584 3314 3078 
Q 3713 2572 3713 1747 
Q 3713 922 3314 415 
Q 2916 -91 2278 -91 
Q 1894 -91 1617 61 
Q 1341 213 1159 525 
L 1159 0 
L 581 0 
L 581 4863 
L 1159 4863 
L 1159 2969 
z
" transform="scale(0.015625)"/>
       <path id="DejaVuSans-75" d="M 544 1381 
L 544 3500 
L 1119 3500 
L 1119 1403 
Q 1119 906 1312 657 
Q 1506 409 1894 409 
Q 2359 409 2629 706 
Q 2900 1003 2900 1516 
L 2900 3500 
L 3475 3500 
L 3475 0 
L 2900 0 
L 2900 538 
Q 2691 219 2414 64 
Q 2138 -91 1772 -91 
Q 1169 -91 856 284 
Q 544 659 544 1381 
z
M 1991 3584 
L 1991 3584 
z
" transform="scale(0.015625)"/>
       <path id="DejaVuSans-63" d="M 3122 3366 
L 3122 2828 
Q 2878 2963 2633 3030 
Q 2388 3097 2138 3097 
Q 1578 3097 1268 2742 
Q 959 2388 959 1747 
Q 959 1106 1268 751 
Q 1578 397 2138 397 
Q 2388 397 2633 464 
Q 2878 531 3122 666 
L 3122 134 
Q 2881 22 2623 -34 
Q 2366 -91 2075 -91 
Q 1284 -91 818 406 
Q 353 903 353 1747 
Q 353 2603 823 3093 
Q 1294 3584 2113 3584 
Q 2378 3584 2631 3529 
Q 2884 3475 3122 3366 
z
" transform="scale(0.015625)"/>
       <path id="DejaVuSans-6b" d="M 581 4863 
L 1159 4863 
L 1159 1991 
L 2875 3500 
L 3609 3500 
L 1753 1863 
L 3688 0 
L 2938 0 
L 1159 1709 
L 1159 0 
L 581 0 
L 581 4863 
z
" transform="scale(0.015625)"/>
       <path id="DejaVuSans-74" d="M 1172 4494 
L 1172 3500 
L 2356 3500 
L 2356 3053 
L 1172 3053 
L 1172 1153 
Q 1172 725 1289 603 
Q 1406 481 1766 481 
L 2356 481 
L 2356 0 
L 1766 0 
Q 1100 0 847 248 
Q 594 497 594 1153 
L 594 3053 
L 172 3053 
L 172 3500 
L 594 3500 
L 594 4494 
L 1172 4494 
z
" transform="scale(0.015625)"/>
       <path id="DejaVuSans-6e" d="M 3513 2113 
L 3513 0 
L 2938 0 
L 2938 2094 
Q 2938 2591 2744 2837 
Q 2550 3084 2163 3084 
Q 1697 3084 1428 2787 
Q 1159 2491 1159 1978 
L 1159 0 
L 581 0 
L 581 3500 
L 1159 3500 
L 1159 2956 
Q 1366 3272 1645 3428 
Q 1925 3584 2291 3584 
Q 2894 3584 3203 3211 
Q 3513 2838 3513 2113 
z
" transform="scale(0.015625)"/>
       <path id="DejaVuSans-78" d="M 3513 3500 
L 2247 1797 
L 3578 0 
L 2900 0 
L 1881 1375 
L 863 0 
L 184 0 
L 1544 1831 
L 300 3500 
L 978 3500 
L 1906 2253 
L 2834 3500 
L 3513 3500 
z
" transform="scale(0.015625)"/>
      </defs>
      <use xlink:href="#DejaVuSans-4e"/>
      <use xlink:href="#DejaVuSans-6f" transform="translate(74.804688 0)"/>
      <use xlink:href="#DejaVuSans-72" transform="translate(135.986328 0)"/>
      <use xlink:href="#DejaVuSans-6d" transform="translate(175.349609 0)"/>
      <use xlink:href="#DejaVuSans-61" transform="translate(272.761719 0)"/>
      <use xlink:href="#DejaVuSans-6c" transform="translate(334.041016 0)"/>
      <use xlink:href="#DejaVuSans-69" transform="translate(361.824219 0)"/>
      <use xlink:href="#DejaVuSans-7a" transform="translate(389.607422 0)"/>
      <use xlink:href="#DejaVuSans-65" transform="translate(442.097656 0)"/>
      <use xlink:href="#DejaVuSans-64" transform="translate(503.621094 0)"/>
      <use xlink:href="#DejaVuSans-20" transform="translate(567.097656 0)"/>
      <use xlink:href="#DejaVuSans-62" transform="translate(598.884766 0)"/>
      <use xlink:href="#DejaVuSans-75" transform="translate(662.361328 0)"/>
      <use xlink:href="#DejaVuSans-63" transform="translate(725.740234 0)"/>
      <use xlink:href="#DejaVuSans-6b" transform="translate(780.720703 0)"/>
      <use xlink:href="#DejaVuSans-65" transform="translate(835.005859 0)"/>
      <use xlink:href="#DejaVuSans-74" transform="translate(896.529297 0)"/>
      <use xlink:href="#DejaVuSans-20" transform="translate(935.738281 0)"/>
      <use xlink:href="#DejaVuSans-69" transform="translate(967.525391 0)"/>
      <use xlink:href="#DejaVuSans-6e" transform="translate(995.308594 0)"/>
      <use xlink:href="#DejaVuSans-64" transform="translate(1058.6875 0)"/>
      <use xlink:href="#DejaVuSans-65" transform="translate(1122.164062 0)"/>
      <use xlink:href="#DejaVuSans-78" transform="translate(1181.9375 0)"/>
     </g>
    </g>
   </g>
   <g id="matplotlib.axis_2">
    <g id="ytick_1">
     <g id="line2d_7">
      <path d="M 40.625 173.52 
L 291.725 173.52 
" clip-path="url(#p112a56dd1e)" style="fill: none; stroke: #b0b0b0; stroke-width: 0.5; stroke-linecap: square"/>
     </g>
     <g id="line2d_8">
      <defs>
       <path id="m2a6f3a30d3" d="M 0 0 
L -3.5 0 
" style="stroke: #000000; stroke-width: 0.8"/>
      </defs>
      <g>
       <use xlink:href="#m2a6f3a30d3" x="40.625" y="173.52" style="stroke: #000000; stroke-width: 0.8"/>
      </g>
     </g>
     <g id="text_8">
      <!-- 0 -->
      <g transform="translate(27.2625 177.319219) scale(0.1 -0.1)">
       <use xlink:href="#DejaVuSans-30"/>
      </g>
     </g>
    </g>
    <g id="ytick_2">
     <g id="line2d_9">
      <path d="M 40.625 144.594783 
L 291.725 144.594783 
" clip-path="url(#p112a56dd1e)" style="fill: none; stroke: #b0b0b0; stroke-width: 0.5; stroke-linecap: square"/>
     </g>
     <g id="line2d_10">
      <g>
       <use xlink:href="#m2a6f3a30d3" x="40.625" y="144.594783" style="stroke: #000000; stroke-width: 0.8"/>
      </g>
     </g>
     <g id="text_9">
      <!-- 2 -->
      <g transform="translate(27.2625 148.394001) scale(0.1 -0.1)">
       <use xlink:href="#DejaVuSans-32"/>
      </g>
     </g>
    </g>
    <g id="ytick_3">
     <g id="line2d_11">
      <path d="M 40.625 115.669565 
L 291.725 115.669565 
" clip-path="url(#p112a56dd1e)" style="fill: none; stroke: #b0b0b0; stroke-width: 0.5; stroke-linecap: square"/>
     </g>
     <g id="line2d_12">
      <g>
       <use xlink:href="#m2a6f3a30d3" x="40.625" y="115.669565" style="stroke: #000000; stroke-width: 0.8"/>
      </g>
     </g>
     <g id="text_10">
      <!-- 4 -->
      <g transform="translate(27.2625 119.468784) scale(0.1 -0.1)">
       <use xlink:href="#DejaVuSans-34"/>
      </g>
     </g>
    </g>
    <g id="ytick_4">
     <g id="line2d_13">
      <path d="M 40.625 86.744348 
L 291.725 86.744348 
" clip-path="url(#p112a56dd1e)" style="fill: none; stroke: #b0b0b0; stroke-width: 0.5; stroke-linecap: square"/>
     </g>
     <g id="line2d_14">
      <g>
       <use xlink:href="#m2a6f3a30d3" x="40.625" y="86.744348" style="stroke: #000000; stroke-width: 0.8"/>
      </g>
     </g>
     <g id="text_11">
      <!-- 6 -->
      <g transform="translate(27.2625 90.543567) scale(0.1 -0.1)">
       <use xlink:href="#DejaVuSans-36"/>
      </g>
     </g>
    </g>
    <g id="ytick_5">
     <g id="line2d_15">
      <path d="M 40.625 57.81913 
L 291.725 57.81913 
" clip-path="url(#p112a56dd1e)" style="fill: none; stroke: #b0b0b0; stroke-width: 0.5; stroke-linecap: square"/>
     </g>
     <g id="line2d_16">
      <g>
       <use xlink:href="#m2a6f3a30d3" x="40.625" y="57.81913" style="stroke: #000000; stroke-width: 0.8"/>
      </g>
     </g>
     <g id="text_12">
      <!-- 8 -->
      <g transform="translate(27.2625 61.618349) scale(0.1 -0.1)">
       <use xlink:href="#DejaVuSans-38"/>
      </g>
     </g>
    </g>
    <g id="ytick_6">
     <g id="line2d_17">
      <path d="M 40.625 28.893913 
L 291.725 28.893913 
" clip-path="url(#p112a56dd1e)" style="fill: none; stroke: #b0b0b0; stroke-width: 0.5; stroke-linecap: square"/>
     </g>
     <g id="line2d_18">
      <g>
       <use xlink:href="#m2a6f3a30d3" x="40.625" y="28.893913" style="stroke: #000000; stroke-width: 0.8"/>
      </g>
     </g>
     <g id="text_13">
      <!-- 10 -->
      <g transform="translate(20.9 32.693132) scale(0.1 -0.1)">
       <use xlink:href="#DejaVuSans-31"/>
       <use xlink:href="#DejaVuSans-30" transform="translate(63.623047 0)"/>
      </g>
     </g>
    </g>
    <g id="ytick_7">
     <g id="line2d_19">
      <path d="M 40.625 159.057391 
L 291.725 159.057391 
" clip-path="url(#p112a56dd1e)" style="fill: none; stroke: #b0b0b0; stroke-opacity: 0.4; stroke-width: 0.5; stroke-linecap: square"/>
     </g>
     <g id="line2d_20">
      <defs>
       <path id="m9b7878726f" d="M 0 0 
L -2 0 
" style="stroke: #000000; stroke-width: 0.6"/>
      </defs>
      <g>
       <use xlink:href="#m9b7878726f" x="40.625" y="159.057391" style="stroke: #000000; stroke-width: 0.6"/>
      </g>
     </g>
    </g>
    <g id="ytick_8">
     <g id="line2d_21">
      <path d="M 40.625 130.132174 
L 291.725 130.132174 
" clip-path="url(#p112a56dd1e)" style="fill: none; stroke: #b0b0b0; stroke-opacity: 0.4; stroke-width: 0.5; stroke-linecap: square"/>
     </g>
     <g id="line2d_22">
      <g>
       <use xlink:href="#m9b7878726f" x="40.625" y="130.132174" style="stroke: #000000; stroke-width: 0.6"/>
      </g>
     </g>
    </g>
    <g id="ytick_9">
     <g id="line2d_23">
      <path d="M 40.625 101.206957 
L 291.725 101.206957 
" clip-path="url(#p112a56dd1e)" style="fill: none; stroke: #b0b0b0; stroke-opacity: 0.4; stroke-width: 0.5; stroke-linecap: square"/>
     </g>
     <g id="line2d_24">
      <g>
       <use xlink:href="#m9b7878726f" x="40.625" y="101.206957" style="stroke: #000000; stroke-width: 0.6"/>
      </g>
     </g>
    </g>
    <g id="ytick_10">
     <g id="line2d_25">
      <path d="M 40.625 72.281739 
L 291.725 72.281739 
" clip-path="url(#p112a56dd1e)" style="fill: none; stroke: #b0b0b0; stroke-opacity: 0.4; stroke-width: 0.5; stroke-linecap: square"/>
     </g>
     <g id="line2d_26">
      <g>
       <use xlink:href="#m9b7878726f" x="40.625" y="72.281739" style="stroke: #000000; stroke-width: 0.6"/>
      </g>
     </g>
    </g>
    <g id="ytick_11">
     <g id="line2d_27">
      <path d="M 40.625 43.356522 
L 291.725 43.356522 
" clip-path="url(#p112a56dd1e)" style="fill: none; stroke: #b0b0b0; stroke-opacity: 0.4; stroke-width: 0.5; stroke-linecap: square"/>
     </g>
     <g id="line2d_28">
      <g>
       <use xlink:href="#m9b7878726f" x="40.625" y="43.356522" style="stroke: #000000; stroke-width: 0.6"/>
      </g>
     </g>
    </g>
    <g id="ytick_12">
     <g id="line2d_29">
      <path d="M 40.625 14.431304 
L 291.725 14.431304 
" clip-path="url(#p112a56dd1e)" style="fill: none; stroke: #b0b0b0; stroke-opacity: 0.4; stroke-width: 0.5; stroke-linecap: square"/>
     </g>
     <g id="line2d_30">
      <g>
       <use xlink:href="#m9b7878726f" x="40.625" y="14.431304" style="stroke: #000000; stroke-width: 0.6"/>
      </g>
     </g>
    </g>
    <g id="text_14">
     <!-- Expected bucket size for $\lambda = 4$ -->
     <g transform="translate(14.8 165.96) rotate(-90) scale(0.1 -0.1)">
      <defs>
       <path id="DejaVuSans-45" d="M 628 4666 
L 3578 4666 
L 3578 4134 
L 1259 4134 
L 1259 2753 
L 3481 2753 
L 3481 2222 
L 1259 2222 
L 1259 531 
L 3634 531 
L 3634 0 
L 628 0 
L 628 4666 
z
" transform="scale(0.015625)"/>
       <path id="DejaVuSans-70" d="M 1159 525 
L 1159 -1331 
L 581 -1331 
L 581 3500 
L 1159 3500 
L 1159 2969 
Q 1341 3281 1617 3432 
Q 1894 3584 2278 3584 
Q 2916 3584 3314 3078 
Q 3713 2572 3713 1747 
Q 3713 922 3314 415 
Q 2916 -91 2278 -91 
Q 1894 -91 1617 61 
Q 1341 213 1159 525 
z
M 3116 1747 
Q 3116 2381 2855 2742 
Q 2594 3103 2138 3103 
Q 1681 3103 1420 2742 
Q 1159 2381 1159 1747 
Q 1159 1113 1420 752 
Q 1681 391 2138 391 
Q 2594 391 2855 752 
Q 3116 1113 3116 1747 
z
" transform="scale(0.015625)"/>
       <path id="DejaVuSans-73" d="M 2834 3397 
L 2834 2853 
Q 2591 2978 2328 3040 
Q 2066 3103 1784 3103 
Q 1356 3103 1142 2972 
Q 928 2841 928 2578 
Q 928 2378 1081 2264 
Q 1234 2150 1697 2047 
L 1894 2003 
Q 2506 1872 2764 1633 
Q 3022 1394 3022 966 
Q 3022 478 2636 193 
Q 2250 -91 1575 -91 
Q 1294 -91 989 -36 
Q 684 19 347 128 
L 347 722 
Q 666 556 975 473 
Q 1284 391 1588 391 
Q 1994 391 2212 530 
Q 2431 669 2431 922 
Q 2431 1156 2273 1281 
Q 2116 1406 1581 1522 
L 1381 1569 
Q 847 1681 609 1914 
Q 372 2147 372 2553 
Q 372 3047 722 3315 
Q 1072 3584 1716 3584 
Q 2034 3584 2315 3537 
Q 2597 3491 2834 3397 
z
" transform="scale(0.015625)"/>
       <path id="DejaVuSans-66" d="M 2375 4863 
L 2375 4384 
L 1825 4384 
Q 1516 4384 1395 4259 
Q 1275 4134 1275 3809 
L 1275 3500 
L 2222 3500 
L 2222 3053 
L 1275 3053 
L 1275 0 
L 697 0 
L 697 3053 
L 147 3053 
L 147 3500 
L 697 3500 
L 697 3744 
Q 697 4328 969 4595 
Q 1241 4863 1831 4863 
L 2375 4863 
z
" transform="scale(0.015625)"/>
       <path id="DejaVuSans-Oblique-3bb" d="M 2350 4316 
L 3125 0 
L 2516 0 
L 2038 2588 
L 328 0 
L -281 0 
L 1903 3356 
L 1794 3975 
Q 1725 4369 1391 4369 
L 1091 4369 
L 1184 4863 
L 1550 4856 
Q 2253 4847 2350 4316 
z
" transform="scale(0.015625)"/>
       <path id="DejaVuSans-3d" d="M 678 2906 
L 4684 2906 
L 4684 2381 
L 678 2381 
L 678 2906 
z
M 678 1631 
L 4684 1631 
L 4684 1100 
L 678 1100 
L 678 1631 
z
" transform="scale(0.015625)"/>
      </defs>
      <use xlink:href="#DejaVuSans-45" transform="translate(0 0.015625)"/>
      <use xlink:href="#DejaVuSans-78" transform="translate(63.183594 0.015625)"/>
      <use xlink:href="#DejaVuSans-70" transform="translate(122.363281 0.015625)"/>
      <use xlink:href="#DejaVuSans-65" transform="translate(185.839844 0.015625)"/>
      <use xlink:href="#DejaVuSans-63" transform="translate(247.363281 0.015625)"/>
      <use xlink:href="#DejaVuSans-74" transform="translate(302.34375 0.015625)"/>
      <use xlink:href="#DejaVuSans-65" transform="translate(341.552734 0.015625)"/>
      <use xlink:href="#DejaVuSans-64" transform="translate(403.076172 0.015625)"/>
      <use xlink:href="#DejaVuSans-20" transform="translate(466.552734 0.015625)"/>
      <use xlink:href="#DejaVuSans-62" transform="translate(498.339844 0.015625)"/>
      <use xlink:href="#DejaVuSans-75" transform="translate(561.816406 0.015625)"/>
      <use xlink:href="#DejaVuSans-63" transform="translate(625.195312 0.015625)"/>
      <use xlink:href="#DejaVuSans-6b" transform="translate(680.175781 0.015625)"/>
      <use xlink:href="#DejaVuSans-65" transform="translate(738.085938 0.015625)"/>
      <use xlink:href="#DejaVuSans-74" transform="translate(799.609375 0.015625)"/>
      <use xlink:href="#DejaVuSans-20" transform="translate(838.818359 0.015625)"/>
      <use xlink:href="#DejaVuSans-73" transform="translate(870.605469 0.015625)"/>
      <use xlink:href="#DejaVuSans-69" transform="translate(922.705078 0.015625)"/>
      <use xlink:href="#DejaVuSans-7a" transform="translate(950.488281 0.015625)"/>
      <use xlink:href="#DejaVuSans-65" transform="translate(1002.978516 0.015625)"/>
      <use xlink:href="#DejaVuSans-20" transform="translate(1064.501953 0.015625)"/>
      <use xlink:href="#DejaVuSans-66" transform="translate(1096.289062 0.015625)"/>
      <use xlink:href="#DejaVuSans-6f" transform="translate(1131.494141 0.015625)"/>
      <use xlink:href="#DejaVuSans-72" transform="translate(1192.675781 0.015625)"/>
      <use xlink:href="#DejaVuSans-20" transform="translate(1233.789062 0.015625)"/>
      <use xlink:href="#DejaVuSans-Oblique-3bb" transform="translate(1265.576172 0.015625)"/>
      <use xlink:href="#DejaVuSans-3d" transform="translate(1344.238281 0.015625)"/>
      <use xlink:href="#DejaVuSans-34" transform="translate(1447.509766 0.015625)"/>
     </g>
    </g>
   </g>
   <g id="line2d_31">
    <path d="M 40.625 115.701343 
L 41.3783 115.646173 
L 41.8805 115.646173 
L 291.4739 115.701343 
L 291.4739 115.701343 
" clip-path="url(#p112a56dd1e)" style="fill: none; stroke: #1f77b4; stroke-width: 1.5; stroke-linecap: square"/>
   </g>
   <g id="line2d_32">
    <path d="M 40.625 57.827516 
L 115.7039 57.827516 
L 115.955 140.472886 
L 291.4739 140.472886 
L 291.4739 140.472886 
" clip-path="url(#p112a56dd1e)" style="fill: none; stroke: #ff7f0e; stroke-width: 1.5; stroke-linecap: square"/>
   </g>
   <g id="line2d_33">
    <path d="M 51.596273 -1 
L 52.9289 9.774034 
L 54.1844 18.490968 
L 55.691 27.483756 
L 57.6998 37.524782 
L 59.2064 44.034898 
L 61.2152 51.538082 
L 63.7262 59.537801 
L 65.9861 65.716894 
L 69.2504 73.330419 
L 73.5191 81.55082 
L 75.5279 84.861049 
L 79.0433 90.102244 
L 83.312 95.56412 
L 89.0873 101.798384 
L 90.5939 103.232816 
L 91.3472 103.950032 
L 91.8494 104.391396 
L 96.3692 108.253329 
L 97.3736 109.025716 
L 98.6291 110.018785 
L 100.3868 111.287706 
L 101.1401 111.894581 
L 101.6423 112.225604 
L 109.1753 117.135776 
L 109.4264 117.190946 
L 109.9286 117.521969 
L 111.6863 118.570208 
L 112.9418 119.232254 
L 114.1973 119.94947 
L 115.4528 120.611516 
L 116.4572 121.16322 
L 116.9594 121.383902 
L 117.9638 121.935607 
L 118.466 122.156289 
L 121.7303 123.701062 
L 122.2325 123.976914 
L 122.7347 124.197596 
L 132.5276 128.390552 
L 133.2809 128.666405 
L 135.2897 129.438791 
L 136.043 129.714644 
L 137.5496 130.321519 
L 137.8007 130.321519 
L 138.3029 130.542201 
L 139.8095 131.093906 
L 140.8139 131.424928 
L 142.3205 131.976633 
L 143.3249 132.307656 
L 144.3293 132.638679 
L 145.0826 132.859361 
L 145.3337 133.024872 
L 145.5848 133.024872 
L 146.087 133.245554 
L 147.3425 133.631747 
L 148.3469 133.96277 
L 149.8535 134.404134 
L 150.8579 134.735157 
L 152.3645 135.176521 
L 153.62 135.617884 
L 155.6288 136.169589 
L 156.3821 136.390271 
L 158.1398 136.886805 
L 158.8931 137.107487 
L 160.9019 137.659192 
L 161.9063 137.990215 
L 162.4085 138.100556 
L 165.6728 138.928113 
L 166.4261 139.148795 
L 169.4393 139.921181 
L 169.9415 140.031522 
L 173.9591 141.024591 
L 174.7124 141.245273 
L 175.2146 141.355614 
L 201.8312 147.093343 
L 202.5845 147.203684 
L 203.0867 147.314025 
L 207.8576 148.251923 
L 208.6109 148.362264 
L 209.1131 148.472605 
L 212.8796 149.189821 
L 213.6329 149.300162 
L 214.1351 149.410503 
L 214.6373 149.520844 
L 217.3994 150.017378 
L 218.1527 150.127719 
L 221.417 150.734594 
L 222.1703 150.844935 
L 225.6857 151.506981 
L 226.6901 151.617322 
L 227.4434 151.838004 
L 228.4478 151.948345 
L 228.95 152.058686 
L 229.7033 152.169027 
L 232.9676 152.775902 
L 233.7209 152.886243 
L 236.2319 153.327607 
L 236.9852 153.437948 
L 239.9984 153.989652 
L 240.7517 154.099993 
L 243.0116 154.486187 
L 243.7649 154.596527 
L 246.7781 155.148232 
L 247.5314 155.258573 
L 250.0424 155.699937 
L 250.7957 155.810278 
L 253.8089 156.361983 
L 254.3111 156.417153 
L 254.5622 156.527494 
L 254.8133 156.472324 
L 255.3155 156.637835 
L 256.3199 156.748176 
L 256.8221 156.858517 
L 260.3375 157.520563 
L 261.0908 157.630904 
L 265.1084 158.40329 
L 265.8617 158.513631 
L 271.1348 159.617041 
L 271.3859 159.56187 
L 272.1392 159.782552 
L 281.4299 161.9342 
L 282.4343 162.265223 
L 282.9365 162.375564 
L 284.4431 162.816928 
L 286.2008 163.478974 
L 286.9541 163.754826 
L 288.9629 164.692724 
L 289.7162 165.244429 
L 290.2184 165.575452 
L 291.2228 166.954714 
L 291.4739 167.892612 
L 291.4739 167.892612 
" clip-path="url(#p112a56dd1e)" style="fill: none; stroke: #2ca02c; stroke-width: 1.5; stroke-linecap: square"/>
   </g>
   <g id="line2d_34">
    <path d="M 47.399226 -1 
L 48.158 7.898238 
L 49.4135 19.980571 
L 50.669 29.800916 
L 52.1756 39.400578 
L 53.9333 48.448536 
L 54.9377 52.917344 
L 56.9465 60.475699 
L 58.202 64.613485 
L 60.9641 72.17184 
L 61.9685 74.59934 
L 64.4795 79.895706 
L 66.2372 83.205934 
L 67.4927 85.302412 
L 68.7482 87.288549 
L 69.7526 88.778152 
L 71.0081 90.543607 
L 74.0213 94.35037 
L 78.7922 99.481224 
L 85.0697 104.887931 
L 86.3252 105.770658 
L 86.5763 106.04651 
L 87.0785 106.377533 
L 94.3604 111.067024 
L 95.1137 111.453217 
L 95.6159 111.78424 
L 96.8714 112.446285 
L 97.8758 113.053161 
L 98.378 113.273843 
L 100.1357 114.15657 
L 100.889 114.542763 
L 112.1885 119.397765 
L 112.9418 119.618447 
L 113.444 119.839129 
L 114.9506 120.446004 
L 115.2017 120.446004 
L 115.7039 120.666686 
L 116.4572 120.887368 
L 116.7083 121.052879 
L 116.9594 121.052879 
L 117.4616 121.273561 
L 118.466 121.604584 
L 119.4704 121.935607 
L 120.7259 122.3218 
L 121.7303 122.707994 
L 122.2325 122.818335 
L 122.9858 123.039016 
L 124.4924 123.48038 
L 125.4968 123.811403 
L 127.5056 124.363108 
L 128.2589 124.63896 
L 128.7611 124.749301 
L 131.7743 125.521688 
L 132.5276 125.74237 
L 136.5452 126.735438 
L 137.2985 126.95612 
L 137.8007 127.066461 
L 154.1222 130.542201 
L 154.8755 130.652542 
L 155.1266 130.762883 
L 155.3777 130.707712 
L 155.8799 130.873224 
L 156.6332 130.983565 
L 160.1486 131.64561 
L 161.153 131.755951 
L 161.6552 131.866292 
L 164.1662 132.307656 
L 164.9195 132.417997 
L 167.4305 132.859361 
L 168.4349 132.969702 
L 168.9371 133.080043 
L 169.9415 133.190384 
L 170.4437 133.300725 
L 172.4525 133.631747 
L 173.2058 133.742088 
L 174.9635 134.017941 
L 175.7168 134.073111 
L 176.219 134.183452 
L 176.9723 134.293793 
L 178.4789 134.514475 
L 179.4833 134.624816 
L 181.241 134.900668 
L 182.2454 135.011009 
L 183.752 135.231691 
L 184.7564 135.342032 
L 186.263 135.562714 
L 187.2674 135.673055 
L 188.774 135.893737 
L 189.7784 136.004078 
L 191.0339 136.169589 
L 192.0383 136.27993 
L 193.2938 136.445442 
L 194.2982 136.555783 
L 195.5537 136.721294 
L 196.5581 136.831635 
L 197.8136 136.997146 
L 199.0691 137.107487 
L 200.3246 137.272999 
L 201.5801 137.38334 
L 202.8356 137.548851 
L 203.84 137.604022 
L 204.3422 137.714362 
L 205.5977 137.824703 
L 206.6021 137.990215 
L 206.8532 137.935044 
L 207.3554 138.045385 
L 208.6109 138.155726 
L 209.6153 138.266067 
L 210.6197 138.376408 
L 211.6241 138.486749 
L 212.8796 138.59709 
L 213.884 138.707431 
L 215.1395 138.817772 
L 216.1439 138.928113 
L 217.3994 139.038454 
L 218.6549 139.203965 
L 220.1615 139.314306 
L 221.417 139.479818 
L 221.6681 139.424647 
L 221.9192 139.534988 
L 222.4214 139.534988 
L 223.4258 139.645329 
L 224.9324 139.75567 
L 225.9368 139.866011 
L 227.4434 139.976352 
L 228.4478 140.086693 
L 229.9544 140.197034 
L 230.9588 140.307375 
L 232.4654 140.417716 
L 233.2187 140.528057 
L 233.4698 140.472886 
L 233.972 140.583227 
L 235.7297 140.693568 
L 236.7341 140.803909 
L 238.2407 140.91425 
L 239.2451 141.024591 
L 241.0028 141.134932 
L 242.0072 141.245273 
L 243.7649 141.355614 
L 244.7693 141.465955 
L 246.7781 141.576296 
L 247.7825 141.686637 
L 249.5402 141.796978 
L 250.2935 141.907318 
L 250.7957 141.907318 
L 251.549 141.962489 
L 253.3067 142.07283 
L 254.3111 142.183171 
L 255.8177 142.238341 
L 256.0688 142.348682 
L 256.571 142.348682 
L 258.5798 142.459023 
L 259.5842 142.569364 
L 261.593 142.679705 
L 262.5974 142.790046 
L 262.8485 142.734876 
L 263.0996 142.845217 
L 263.6018 142.845217 
L 265.6106 142.955557 
L 266.3639 143.010728 
L 268.1216 143.121069 
L 268.8749 143.176239 
L 270.1304 143.23141 
L 270.3815 143.341751 
L 271.1348 143.28658 
L 271.3859 143.396921 
L 271.8881 143.396921 
L 273.8969 143.507262 
L 274.6502 143.562433 
L 276.4079 143.672774 
L 277.4123 143.783115 
L 277.9145 143.783115 
L 280.1744 143.893456 
L 280.9277 143.948626 
L 282.9365 144.058967 
L 283.9409 144.169308 
L 286.4519 144.279649 
L 287.2052 144.334819 
L 289.4651 144.44516 
L 290.4695 144.555501 
L 291.4739 144.610672 
L 291.4739 144.610672 
" clip-path="url(#p112a56dd1e)" style="fill: none; stroke: #d62728; stroke-width: 1.5; stroke-linecap: square"/>
   </g>
   <g id="line2d_35">
    <path d="M 49.710184 -1 
L 51.1712 13.249773 
L 52.4267 23.2908 
L 53.6822 31.842223 
L 55.691 43.097 
L 56.6954 47.952002 
L 58.202 54.406947 
L 60.4619 62.572177 
L 63.4751 71.509794 
L 67.2416 80.39224 
L 68.246 82.378377 
L 70.2548 86.129969 
L 72.7658 90.322925 
L 75.0257 93.688324 
L 75.5279 94.35037 
L 76.5323 95.729632 
L 77.5367 96.943382 
L 78.29 97.936451 
L 80.2988 100.253611 
L 81.0521 101.081168 
L 83.0609 103.232816 
L 83.312 103.398328 
L 83.8142 103.950032 
L 85.0697 105.108612 
L 85.5719 105.605147 
L 90.3428 109.687762 
L 91.3472 110.460148 
L 92.3516 111.232535 
L 96.3692 113.991059 
L 96.8714 114.322082 
L 99.8846 116.197878 
L 100.889 116.749582 
L 101.3912 117.080605 
L 102.3956 117.63231 
L 103.6511 118.349526 
L 104.9066 118.956401 
L 105.1577 119.177083 
L 105.6599 119.397765 
L 107.4176 120.225322 
L 107.6687 120.446004 
L 108.1709 120.611516 
L 109.1753 121.16322 
L 109.6775 121.328732 
L 110.4308 121.714925 
L 117.9638 124.914813 
L 118.7171 125.190665 
L 120.7259 125.963052 
L 121.7303 126.294074 
L 123.488 126.95612 
L 124.4924 127.287143 
L 125.4968 127.618166 
L 126.5012 127.949189 
L 127.7567 128.390552 
L 129.2633 128.831916 
L 130.2677 129.162939 
L 131.7743 129.604303 
L 132.7787 129.935326 
L 134.7875 130.48703 
L 135.5408 130.707712 
L 137.8007 131.314588 
L 138.8051 131.64561 
L 139.3073 131.755951 
L 142.5716 132.583508 
L 143.0738 132.693849 
L 148.598 134.017941 
L 149.3513 134.238623 
L 149.8535 134.293793 
L 150.6068 134.514475 
L 151.3601 134.624816 
L 151.8623 134.790327 
L 152.6156 134.900668 
L 153.1178 135.011009 
L 161.9063 136.831635 
L 162.6596 136.941976 
L 166.4261 137.659192 
L 167.1794 137.769533 
L 170.4437 138.376408 
L 171.4481 138.486749 
L 171.9503 138.59709 
L 174.4613 139.038454 
L 175.2146 139.093624 
L 175.7168 139.203965 
L 177.9767 139.590159 
L 178.73 139.645329 
L 179.2322 139.75567 
L 181.4921 140.141863 
L 182.2454 140.197034 
L 182.4965 140.307375 
L 182.7476 140.252204 
L 183.2498 140.362545 
L 185.0075 140.638398 
L 185.7608 140.748739 
L 187.2674 140.96942 
L 188.2718 141.079761 
L 189.7784 141.300443 
L 190.7828 141.410784 
L 192.5405 141.686637 
L 193.2938 141.741807 
L 193.5449 141.852148 
L 193.796 141.796978 
L 194.2982 141.907318 
L 195.3026 142.017659 
L 197.0603 142.293512 
L 198.3158 142.403853 
L 199.5713 142.569364 
L 200.5757 142.679705 
L 202.0823 142.900387 
L 203.0867 142.955557 
L 203.3378 143.065898 
L 203.5889 143.010728 
L 204.0911 143.121069 
L 205.3466 143.23141 
L 206.8532 143.452092 
L 208.1087 143.562433 
L 209.3642 143.727944 
L 210.3686 143.838285 
L 211.6241 144.003796 
L 211.8752 143.948626 
L 212.3774 144.058967 
L 213.3818 144.114137 
L 213.884 144.224478 
L 215.1395 144.334819 
L 216.395 144.500331 
L 217.9016 144.610672 
L 219.1571 144.776183 
L 220.4126 144.886524 
L 221.417 144.996865 
L 222.6725 145.107206 
L 223.928 145.272717 
L 225.1835 145.327888 
L 225.4346 145.438229 
L 225.9368 145.438229 
L 226.9412 145.54857 
L 228.4478 145.658911 
L 229.7033 145.824422 
L 229.9544 145.769252 
L 230.4566 145.879593 
L 231.9632 145.989934 
L 232.9676 146.100274 
L 234.4742 146.210615 
L 235.7297 146.376127 
L 237.4874 146.486468 
L 238.7429 146.651979 
L 239.2451 146.651979 
L 239.9984 146.76232 
L 240.5006 146.76232 
L 241.2539 146.872661 
L 241.7561 146.872661 
L 243.0116 146.927832 
L 243.2627 147.038173 
L 243.7649 147.038173 
L 245.5226 147.148514 
L 246.7781 147.314025 
L 248.5358 147.424366 
L 249.5402 147.534707 
L 251.2979 147.645048 
L 252.3023 147.755389 
L 252.5534 147.700218 
L 252.8045 147.810559 
L 253.3067 147.810559 
L 255.0644 147.9209 
L 256.0688 148.031241 
L 257.8265 148.141582 
L 258.5798 148.251923 
L 259.082 148.251923 
L 261.0908 148.362264 
L 262.0952 148.472605 
L 264.104 148.582946 
L 265.1084 148.693287 
L 265.3595 148.638116 
L 265.6106 148.748457 
L 266.1128 148.748457 
L 268.1216 148.858798 
L 268.8749 148.969139 
L 269.3771 148.969139 
L 271.3859 149.07948 
L 272.3903 149.189821 
L 274.3991 149.300162 
L 275.4035 149.410503 
L 275.9057 149.410503 
L 277.9145 149.520844 
L 278.9189 149.631185 
L 281.4299 149.741526 
L 282.1832 149.796696 
L 283.9409 149.907037 
L 284.9453 150.017378 
L 285.4475 150.017378 
L 287.7074 150.127719 
L 288.7118 150.23806 
L 289.214 150.23806 
L 289.9673 150.293231 
L 291.4739 150.403571 
L 291.4739 150.403571 
" clip-path="url(#p112a56dd1e)" style="fill: none; stroke: #9467bd; stroke-width: 1.5; stroke-linecap: square"/>
   </g>
   <g id="patch_3">
    <path d="M 40.625 173.52 
L 40.625 7.2 
" style="fill: none; stroke: #000000; stroke-width: 0.8; stroke-linejoin: miter; stroke-linecap: square"/>
   </g>
   <g id="patch_4">
    <path d="M 40.625 173.52 
L 291.725 173.52 
" style="fill: none; stroke: #000000; stroke-width: 0.8; stroke-linejoin: miter; stroke-linecap: square"/>
   </g>
   <g id="legend_1">
    <g id="patch_5">
     <path d="M 125.725 90.95625 
L 284.725 90.95625 
Q 286.725 90.95625 286.725 88.95625 
L 286.725 14.2 
Q 286.725 12.2 284.725 12.2 
L 125.725 12.2 
Q 123.725 12.2 123.725 14.2 
L 123.725 88.95625 
Q 123.725 90.95625 125.725 90.95625 
z
" style="fill: #ffffff; opacity: 0.8; stroke: #cccccc; stroke-linejoin: miter"/>
    </g>
    <g id="line2d_36">
     <path d="M 127.725 20.298438 
L 137.725 20.298438 
L 147.725 20.298438 
" style="fill: none; stroke: #1f77b4; stroke-width: 1.5; stroke-linecap: square"/>
    </g>
    <g id="text_15">
     <!-- Linear   $\,x$ -->
     <g transform="translate(155.725 23.798438) scale(0.1 -0.1)">
      <defs>
       <path id="DejaVuSans-4c" d="M 628 4666 
L 1259 4666 
L 1259 531 
L 3531 531 
L 3531 0 
L 628 0 
L 628 4666 
z
" transform="scale(0.015625)"/>
       <path id="DejaVuSans-Oblique-78" d="M 3841 3500 
L 2234 1784 
L 3219 0 
L 2559 0 
L 1819 1388 
L 531 0 
L -166 0 
L 1556 1844 
L 641 3500 
L 1300 3500 
L 1972 2234 
L 3144 3500 
L 3841 3500 
z
" transform="scale(0.015625)"/>
      </defs>
      <use xlink:href="#DejaVuSans-4c" transform="translate(0 0.015625)"/>
      <use xlink:href="#DejaVuSans-69" transform="translate(55.712891 0.015625)"/>
      <use xlink:href="#DejaVuSans-6e" transform="translate(83.496094 0.015625)"/>
      <use xlink:href="#DejaVuSans-65" transform="translate(146.875 0.015625)"/>
      <use xlink:href="#DejaVuSans-61" transform="translate(208.398438 0.015625)"/>
      <use xlink:href="#DejaVuSans-72" transform="translate(269.677734 0.015625)"/>
      <use xlink:href="#DejaVuSans-20" transform="translate(310.791016 0.015625)"/>
      <use xlink:href="#DejaVuSans-20" transform="translate(342.578125 0.015625)"/>
      <use xlink:href="#DejaVuSans-20" transform="translate(374.365234 0.015625)"/>
      <use xlink:href="#DejaVuSans-Oblique-78" transform="translate(422.38802 0.015625)"/>
     </g>
    </g>
    <g id="line2d_37">
     <path d="M 127.725 34.976562 
L 137.725 34.976562 
L 147.725 34.976562 
" style="fill: none; stroke: #ff7f0e; stroke-width: 1.5; stroke-linecap: square"/>
    </g>
    <g id="text_16">
     <!-- Skewed $0.6\mapsto0.3$ -->
     <g transform="translate(155.725 38.476562) scale(0.1 -0.1)">
      <defs>
       <path id="DejaVuSans-53" d="M 3425 4513 
L 3425 3897 
Q 3066 4069 2747 4153 
Q 2428 4238 2131 4238 
Q 1616 4238 1336 4038 
Q 1056 3838 1056 3469 
Q 1056 3159 1242 3001 
Q 1428 2844 1947 2747 
L 2328 2669 
Q 3034 2534 3370 2195 
Q 3706 1856 3706 1288 
Q 3706 609 3251 259 
Q 2797 -91 1919 -91 
Q 1588 -91 1214 -16 
Q 841 59 441 206 
L 441 856 
Q 825 641 1194 531 
Q 1563 422 1919 422 
Q 2459 422 2753 634 
Q 3047 847 3047 1241 
Q 3047 1584 2836 1778 
Q 2625 1972 2144 2069 
L 1759 2144 
Q 1053 2284 737 2584 
Q 422 2884 422 3419 
Q 422 4038 858 4394 
Q 1294 4750 2059 4750 
Q 2388 4750 2728 4690 
Q 3069 4631 3425 4513 
z
" transform="scale(0.015625)"/>
       <path id="DejaVuSans-77" d="M 269 3500 
L 844 3500 
L 1563 769 
L 2278 3500 
L 2956 3500 
L 3675 769 
L 4391 3500 
L 4966 3500 
L 4050 0 
L 3372 0 
L 2619 2869 
L 1863 0 
L 1184 0 
L 269 3500 
z
" transform="scale(0.015625)"/>
       <path id="DejaVuSans-21a6" d="M 4175 1741 
L 897 1741 
L 897 663 
L 366 663 
L 366 3350 
L 897 3350 
L 897 2272 
L 4175 2272 
L 3447 3000 
L 3822 3375 
L 5050 2147 
L 5050 1866 
L 3822 638 
L 3447 1013 
L 4175 1741 
z
" transform="scale(0.015625)"/>
       <path id="DejaVuSans-33" d="M 2597 2516 
Q 3050 2419 3304 2112 
Q 3559 1806 3559 1356 
Q 3559 666 3084 287 
Q 2609 -91 1734 -91 
Q 1441 -91 1130 -33 
Q 819 25 488 141 
L 488 750 
Q 750 597 1062 519 
Q 1375 441 1716 441 
Q 2309 441 2620 675 
Q 2931 909 2931 1356 
Q 2931 1769 2642 2001 
Q 2353 2234 1838 2234 
L 1294 2234 
L 1294 2753 
L 1863 2753 
Q 2328 2753 2575 2939 
Q 2822 3125 2822 3475 
Q 2822 3834 2567 4026 
Q 2313 4219 1838 4219 
Q 1578 4219 1281 4162 
Q 984 4106 628 3988 
L 628 4550 
Q 988 4650 1302 4700 
Q 1616 4750 1894 4750 
Q 2613 4750 3031 4423 
Q 3450 4097 3450 3541 
Q 3450 3153 3228 2886 
Q 3006 2619 2597 2516 
z
" transform="scale(0.015625)"/>
      </defs>
      <use xlink:href="#DejaVuSans-53" transform="translate(0 0.015625)"/>
      <use xlink:href="#DejaVuSans-6b" transform="translate(63.476562 0.015625)"/>
      <use xlink:href="#DejaVuSans-65" transform="translate(121.386719 0.015625)"/>
      <use xlink:href="#DejaVuSans-77" transform="translate(182.910156 0.015625)"/>
      <use xlink:href="#DejaVuSans-65" transform="translate(264.697266 0.015625)"/>
      <use xlink:href="#DejaVuSans-64" transform="translate(326.220703 0.015625)"/>
      <use xlink:href="#DejaVuSans-20" transform="translate(389.697266 0.015625)"/>
      <use xlink:href="#DejaVuSans-30" transform="translate(421.484375 0.015625)"/>
      <use xlink:href="#DejaVuSans-2e" transform="translate(485.107422 0.015625)"/>
      <use xlink:href="#DejaVuSans-36" transform="translate(516.894531 0.015625)"/>
      <use xlink:href="#DejaVuSans-21a6" transform="translate(600 0.015625)"/>
      <use xlink:href="#DejaVuSans-30" transform="translate(703.271484 0.015625)"/>
      <use xlink:href="#DejaVuSans-2e" transform="translate(766.894531 0.015625)"/>
      <use xlink:href="#DejaVuSans-33" transform="translate(798.681641 0.015625)"/>
     </g>
    </g>
    <g id="line2d_38">
     <path d="M 127.725 49.65625 
L 137.725 49.65625 
L 147.725 49.65625 
" style="fill: none; stroke: #2ca02c; stroke-width: 1.5; stroke-linecap: square"/>
    </g>
    <g id="text_17">
     <!-- Optimal $x + (1{-}x)\ln(1{-}x)$ -->
     <g transform="translate(155.725 53.15625) scale(0.1 -0.1)">
      <defs>
       <path id="DejaVuSans-4f" d="M 2522 4238 
Q 1834 4238 1429 3725 
Q 1025 3213 1025 2328 
Q 1025 1447 1429 934 
Q 1834 422 2522 422 
Q 3209 422 3611 934 
Q 4013 1447 4013 2328 
Q 4013 3213 3611 3725 
Q 3209 4238 2522 4238 
z
M 2522 4750 
Q 3503 4750 4090 4092 
Q 4678 3434 4678 2328 
Q 4678 1225 4090 567 
Q 3503 -91 2522 -91 
Q 1538 -91 948 565 
Q 359 1222 359 2328 
Q 359 3434 948 4092 
Q 1538 4750 2522 4750 
z
" transform="scale(0.015625)"/>
       <path id="DejaVuSans-2b" d="M 2944 4013 
L 2944 2272 
L 4684 2272 
L 4684 1741 
L 2944 1741 
L 2944 0 
L 2419 0 
L 2419 1741 
L 678 1741 
L 678 2272 
L 2419 2272 
L 2419 4013 
L 2944 4013 
z
" transform="scale(0.015625)"/>
       <path id="DejaVuSans-28" d="M 1984 4856 
Q 1566 4138 1362 3434 
Q 1159 2731 1159 2009 
Q 1159 1288 1364 580 
Q 1569 -128 1984 -844 
L 1484 -844 
Q 1016 -109 783 600 
Q 550 1309 550 2009 
Q 550 2706 781 3412 
Q 1013 4119 1484 4856 
L 1984 4856 
z
" transform="scale(0.015625)"/>
       <path id="DejaVuSans-2212" d="M 678 2272 
L 4684 2272 
L 4684 1741 
L 678 1741 
L 678 2272 
z
" transform="scale(0.015625)"/>
       <path id="DejaVuSans-29" d="M 513 4856 
L 1013 4856 
Q 1481 4119 1714 3412 
Q 1947 2706 1947 2009 
Q 1947 1309 1714 600 
Q 1481 -109 1013 -844 
L 513 -844 
Q 928 -128 1133 580 
Q 1338 1288 1338 2009 
Q 1338 2731 1133 3434 
Q 928 4138 513 4856 
z
" transform="scale(0.015625)"/>
      </defs>
      <use xlink:href="#DejaVuSans-4f" transform="translate(0 0.015625)"/>
      <use xlink:href="#DejaVuSans-70" transform="translate(78.710938 0.015625)"/>
      <use xlink:href="#DejaVuSans-74" transform="translate(142.1875 0.015625)"/>
      <use xlink:href="#DejaVuSans-69" transform="translate(181.396484 0.015625)"/>
      <use xlink:href="#DejaVuSans-6d" transform="translate(209.179688 0.015625)"/>
      <use xlink:href="#DejaVuSans-61" transform="translate(306.591797 0.015625)"/>
      <use xlink:href="#DejaVuSans-6c" transform="translate(367.871094 0.015625)"/>
      <use xlink:href="#DejaVuSans-20" transform="translate(395.654297 0.015625)"/>
      <use xlink:href="#DejaVuSans-Oblique-78" transform="translate(427.441406 0.015625)"/>
      <use xlink:href="#DejaVuSans-2b" transform="translate(506.103516 0.015625)"/>
      <use xlink:href="#DejaVuSans-28" transform="translate(609.375 0.015625)"/>
      <use xlink:href="#DejaVuSans-31" transform="translate(648.388672 0.015625)"/>
      <use xlink:href="#DejaVuSans-2212" transform="translate(712.011719 0.015625)"/>
      <use xlink:href="#DejaVuSans-Oblique-78" transform="translate(795.800781 0.015625)"/>
      <use xlink:href="#DejaVuSans-29" transform="translate(854.980469 0.015625)"/>
      <use xlink:href="#DejaVuSans-6c" transform="translate(893.994141 0.015625)"/>
      <use xlink:href="#DejaVuSans-6e" transform="translate(921.777344 0.015625)"/>
      <use xlink:href="#DejaVuSans-28" transform="translate(985.15625 0.015625)"/>
      <use xlink:href="#DejaVuSans-31" transform="translate(1024.169922 0.015625)"/>
      <use xlink:href="#DejaVuSans-2212" transform="translate(1087.792969 0.015625)"/>
      <use xlink:href="#DejaVuSans-Oblique-78" transform="translate(1171.582031 0.015625)"/>
      <use xlink:href="#DejaVuSans-29" transform="translate(1230.761719 0.015625)"/>
     </g>
    </g>
    <g id="line2d_39">
     <path d="M 127.725 65.85625 
L 137.725 65.85625 
L 147.725 65.85625 
" style="fill: none; stroke: #d62728; stroke-width: 1.5; stroke-linecap: square"/>
    </g>
    <g id="text_18">
     <!-- Square  $x^2$ -->
     <g transform="translate(155.725 69.35625) scale(0.1 -0.1)">
      <defs>
       <path id="DejaVuSans-71" d="M 947 1747 
Q 947 1113 1208 752 
Q 1469 391 1925 391 
Q 2381 391 2643 752 
Q 2906 1113 2906 1747 
Q 2906 2381 2643 2742 
Q 2381 3103 1925 3103 
Q 1469 3103 1208 2742 
Q 947 2381 947 1747 
z
M 2906 525 
Q 2725 213 2448 61 
Q 2172 -91 1784 -91 
Q 1150 -91 751 415 
Q 353 922 353 1747 
Q 353 2572 751 3078 
Q 1150 3584 1784 3584 
Q 2172 3584 2448 3432 
Q 2725 3281 2906 2969 
L 2906 3500 
L 3481 3500 
L 3481 -1331 
L 2906 -1331 
L 2906 525 
z
" transform="scale(0.015625)"/>
      </defs>
      <use xlink:href="#DejaVuSans-53" transform="translate(0 0.765625)"/>
      <use xlink:href="#DejaVuSans-71" transform="translate(63.476562 0.765625)"/>
      <use xlink:href="#DejaVuSans-75" transform="translate(126.953125 0.765625)"/>
      <use xlink:href="#DejaVuSans-61" transform="translate(190.332031 0.765625)"/>
      <use xlink:href="#DejaVuSans-72" transform="translate(251.611328 0.765625)"/>
      <use xlink:href="#DejaVuSans-65" transform="translate(292.724609 0.765625)"/>
      <use xlink:href="#DejaVuSans-20" transform="translate(354.248047 0.765625)"/>
      <use xlink:href="#DejaVuSans-20" transform="translate(386.035156 0.765625)"/>
      <use xlink:href="#DejaVuSans-Oblique-78" transform="translate(417.822266 0.765625)"/>
      <use xlink:href="#DejaVuSans-32" transform="translate(481.468099 39.046875) scale(0.7)"/>
     </g>
    </g>
    <g id="line2d_40">
     <path d="M 127.725 81.376563 
L 137.725 81.376563 
L 147.725 81.376563 
" style="fill: none; stroke: #9467bd; stroke-width: 1.5; stroke-linecap: square"/>
    </g>
    <g id="text_19">
     <!-- Cubic    $(x^3+x^2)/2$ -->
     <g transform="translate(155.725 84.876563) scale(0.1 -0.1)">
      <defs>
       <path id="DejaVuSans-43" d="M 4122 4306 
L 4122 3641 
Q 3803 3938 3442 4084 
Q 3081 4231 2675 4231 
Q 1875 4231 1450 3742 
Q 1025 3253 1025 2328 
Q 1025 1406 1450 917 
Q 1875 428 2675 428 
Q 3081 428 3442 575 
Q 3803 722 4122 1019 
L 4122 359 
Q 3791 134 3420 21 
Q 3050 -91 2638 -91 
Q 1578 -91 968 557 
Q 359 1206 359 2328 
Q 359 3453 968 4101 
Q 1578 4750 2638 4750 
Q 3056 4750 3426 4639 
Q 3797 4528 4122 4306 
z
" transform="scale(0.015625)"/>
       <path id="DejaVuSans-2f" d="M 1625 4666 
L 2156 4666 
L 531 -594 
L 0 -594 
L 1625 4666 
z
" transform="scale(0.015625)"/>
      </defs>
      <use xlink:href="#DejaVuSans-43" transform="translate(0 0.765625)"/>
      <use xlink:href="#DejaVuSans-75" transform="translate(69.824219 0.765625)"/>
      <use xlink:href="#DejaVuSans-62" transform="translate(133.203125 0.765625)"/>
      <use xlink:href="#DejaVuSans-69" transform="translate(196.679688 0.765625)"/>
      <use xlink:href="#DejaVuSans-63" transform="translate(224.462891 0.765625)"/>
      <use xlink:href="#DejaVuSans-20" transform="translate(279.443359 0.765625)"/>
      <use xlink:href="#DejaVuSans-20" transform="translate(311.230469 0.765625)"/>
      <use xlink:href="#DejaVuSans-20" transform="translate(343.017578 0.765625)"/>
      <use xlink:href="#DejaVuSans-20" transform="translate(374.804688 0.765625)"/>
      <use xlink:href="#DejaVuSans-28" transform="translate(406.591797 0.765625)"/>
      <use xlink:href="#DejaVuSans-Oblique-78" transform="translate(445.605469 0.765625)"/>
      <use xlink:href="#DejaVuSans-33" transform="translate(509.251302 39.046875) scale(0.7)"/>
      <use xlink:href="#DejaVuSans-2b" transform="translate(576.004232 0.765625)"/>
      <use xlink:href="#DejaVuSans-Oblique-78" transform="translate(679.275716 0.765625)"/>
      <use xlink:href="#DejaVuSans-32" transform="translate(742.921549 39.046875) scale(0.7)"/>
      <use xlink:href="#DejaVuSans-29" transform="translate(790.192057 0.765625)"/>
      <use xlink:href="#DejaVuSans-2f" transform="translate(829.205729 0.765625)"/>
      <use xlink:href="#DejaVuSans-32" transform="translate(859.272135 0.765625)"/>
     </g>
    </g>
   </g>
  </g>
 </g>
 <defs>
  <clipPath id="p112a56dd1e">
   <rect x="40.625" y="7.2" width="251.1" height="166.32"/>
  </clipPath>
 </defs>
</svg>
