<?xml version="1.0" encoding="utf-8" standalone="no"?>
<!DOCTYPE svg PUBLIC "-//W3C//DTD SVG 1.1//EN"
  "http://www.w3.org/Graphics/SVG/1.1/DTD/svg11.dtd">
<svg xmlns:xlink="http://www.w3.org/1999/xlink" width="512.39952pt" height="224.39952pt" viewBox="0 0 512.39952 224.39952" xmlns="http://www.w3.org/2000/svg" version="1.1">
 <metadata>
  <rdf:RDF xmlns:dc="http://purl.org/dc/elements/1.1/" xmlns:cc="http://creativecommons.org/ns#" xmlns:rdf="http://www.w3.org/1999/02/22-rdf-syntax-ns#">
   <cc:Work>
    <dc:type rdf:resource="http://purl.org/dc/dcmitype/StillImage"/>
    <dc:date>2024-12-10T20:37:51.490263</dc:date>
    <dc:format>image/svg+xml</dc:format>
    <dc:creator>
     <cc:Agent>
      <dc:title>Matplotlib v3.9.2, https://matplotlib.org/</dc:title>
     </cc:Agent>
    </dc:creator>
   </cc:Work>
  </rdf:RDF>
 </metadata>
 <defs>
  <style type="text/css">*{stroke-linejoin: round; stroke-linecap: butt}</style>
 </defs>
 <g id="figure_1">
  <g id="patch_1">
   <path d="M 0 224.39952 
L 512.39952 224.39952 
L 512.39952 0 
L 0 0 
z
" style="fill: #ffffff"/>
  </g>
  <g id="axes_1">
   <g id="patch_2">
    <path d="M 40.603125 186.84327 
L 260.038583 186.84327 
L 260.038583 7.2 
L 40.603125 7.2 
z
" style="fill: #ffffff"/>
   </g>
   <g id="PolyCollection_1">
    <path d="M 48.730364 97.753903 
L 48.730364 156.42952 
L 89.36656 171.636395 
L 130.002756 176.705353 
L 170.638952 179.239833 
L 211.275147 180.76052 
L 251.911343 181.774312 
L 292.547539 182.498449 
L 292.547539 174.116218 
L 292.547539 174.116218 
L 251.911343 171.995042 
L 211.275147 169.025397 
L 170.638952 164.570928 
L 130.002756 157.146814 
L 89.36656 142.298587 
L 48.730364 97.753903 
z
" clip-path="url(#p068b1d71eb)" style="fill: #808080; fill-opacity: 0.1"/>
   </g>
   <g id="matplotlib.axis_1">
    <g id="xtick_1">
     <g id="line2d_1">
      <defs>
       <path id="mbd9cfb114d" d="M 0 0 
L 0 3.5 
" style="stroke: #000000; stroke-width: 0.8"/>
      </defs>
      <g>
       <use xlink:href="#mbd9cfb114d" x="48.730364" y="186.84327" style="stroke: #000000; stroke-width: 0.8"/>
      </g>
     </g>
     <g id="text_1">
      <!-- 1 -->
      <g transform="translate(45.549114 201.441708) scale(0.1 -0.1)">
       <defs>
        <path id="DejaVuSans-31" d="M 794 531 
L 1825 531 
L 1825 4091 
L 703 3866 
L 703 4441 
L 1819 4666 
L 2450 4666 
L 2450 531 
L 3481 531 
L 3481 0 
L 794 0 
L 794 531 
z
" transform="scale(0.015625)"/>
       </defs>
       <use xlink:href="#DejaVuSans-31"/>
      </g>
     </g>
    </g>
    <g id="xtick_2">
     <g id="line2d_2">
      <g>
       <use xlink:href="#mbd9cfb114d" x="89.36656" y="186.84327" style="stroke: #000000; stroke-width: 0.8"/>
      </g>
     </g>
     <g id="text_2">
      <!-- 2 -->
      <g transform="translate(86.18531 201.441708) scale(0.1 -0.1)">
       <defs>
        <path id="DejaVuSans-32" d="M 1228 531 
L 3431 531 
L 3431 0 
L 469 0 
L 469 531 
Q 828 903 1448 1529 
Q 2069 2156 2228 2338 
Q 2531 2678 2651 2914 
Q 2772 3150 2772 3378 
Q 2772 3750 2511 3984 
Q 2250 4219 1831 4219 
Q 1534 4219 1204 4116 
Q 875 4013 500 3803 
L 500 4441 
Q 881 4594 1212 4672 
Q 1544 4750 1819 4750 
Q 2544 4750 2975 4387 
Q 3406 4025 3406 3419 
Q 3406 3131 3298 2873 
Q 3191 2616 2906 2266 
Q 2828 2175 2409 1742 
Q 1991 1309 1228 531 
z
" transform="scale(0.015625)"/>
       </defs>
       <use xlink:href="#DejaVuSans-32"/>
      </g>
     </g>
    </g>
    <g id="xtick_3">
     <g id="line2d_3">
      <g>
       <use xlink:href="#mbd9cfb114d" x="130.002756" y="186.84327" style="stroke: #000000; stroke-width: 0.8"/>
      </g>
     </g>
     <g id="text_3">
      <!-- 3 -->
      <g transform="translate(126.821506 201.441708) scale(0.1 -0.1)">
       <defs>
        <path id="DejaVuSans-33" d="M 2597 2516 
Q 3050 2419 3304 2112 
Q 3559 1806 3559 1356 
Q 3559 666 3084 287 
Q 2609 -91 1734 -91 
Q 1441 -91 1130 -33 
Q 819 25 488 141 
L 488 750 
Q 750 597 1062 519 
Q 1375 441 1716 441 
Q 2309 441 2620 675 
Q 2931 909 2931 1356 
Q 2931 1769 2642 2001 
Q 2353 2234 1838 2234 
L 1294 2234 
L 1294 2753 
L 1863 2753 
Q 2328 2753 2575 2939 
Q 2822 3125 2822 3475 
Q 2822 3834 2567 4026 
Q 2313 4219 1838 4219 
Q 1578 4219 1281 4162 
Q 984 4106 628 3988 
L 628 4550 
Q 988 4650 1302 4700 
Q 1616 4750 1894 4750 
Q 2613 4750 3031 4423 
Q 3450 4097 3450 3541 
Q 3450 3153 3228 2886 
Q 3006 2619 2597 2516 
z
" transform="scale(0.015625)"/>
       </defs>
       <use xlink:href="#DejaVuSans-33"/>
      </g>
     </g>
    </g>
    <g id="xtick_4">
     <g id="line2d_4">
      <g>
       <use xlink:href="#mbd9cfb114d" x="170.638952" y="186.84327" style="stroke: #000000; stroke-width: 0.8"/>
      </g>
     </g>
     <g id="text_4">
      <!-- 4 -->
      <g transform="translate(167.457702 201.441708) scale(0.1 -0.1)">
       <defs>
        <path id="DejaVuSans-34" d="M 2419 4116 
L 825 1625 
L 2419 1625 
L 2419 4116 
z
M 2253 4666 
L 3047 4666 
L 3047 1625 
L 3713 1625 
L 3713 1100 
L 3047 1100 
L 3047 0 
L 2419 0 
L 2419 1100 
L 313 1100 
L 313 1709 
L 2253 4666 
z
" transform="scale(0.015625)"/>
       </defs>
       <use xlink:href="#DejaVuSans-34"/>
      </g>
     </g>
    </g>
    <g id="xtick_5">
     <g id="line2d_5">
      <g>
       <use xlink:href="#mbd9cfb114d" x="211.275147" y="186.84327" style="stroke: #000000; stroke-width: 0.8"/>
      </g>
     </g>
     <g id="text_5">
      <!-- 5 -->
      <g transform="translate(208.093897 201.441708) scale(0.1 -0.1)">
       <defs>
        <path id="DejaVuSans-35" d="M 691 4666 
L 3169 4666 
L 3169 4134 
L 1269 4134 
L 1269 2991 
Q 1406 3038 1543 3061 
Q 1681 3084 1819 3084 
Q 2600 3084 3056 2656 
Q 3513 2228 3513 1497 
Q 3513 744 3044 326 
Q 2575 -91 1722 -91 
Q 1428 -91 1123 -41 
Q 819 9 494 109 
L 494 744 
Q 775 591 1075 516 
Q 1375 441 1709 441 
Q 2250 441 2565 725 
Q 2881 1009 2881 1497 
Q 2881 1984 2565 2268 
Q 2250 2553 1709 2553 
Q 1456 2553 1204 2497 
Q 953 2441 691 2322 
L 691 4666 
z
" transform="scale(0.015625)"/>
       </defs>
       <use xlink:href="#DejaVuSans-35"/>
      </g>
     </g>
    </g>
    <g id="xtick_6">
     <g id="line2d_6">
      <g>
       <use xlink:href="#mbd9cfb114d" x="251.911343" y="186.84327" style="stroke: #000000; stroke-width: 0.8"/>
      </g>
     </g>
     <g id="text_6">
      <!-- 6 -->
      <g transform="translate(248.730093 201.441708) scale(0.1 -0.1)">
       <defs>
        <path id="DejaVuSans-36" d="M 2113 2584 
Q 1688 2584 1439 2293 
Q 1191 2003 1191 1497 
Q 1191 994 1439 701 
Q 1688 409 2113 409 
Q 2538 409 2786 701 
Q 3034 994 3034 1497 
Q 3034 2003 2786 2293 
Q 2538 2584 2113 2584 
z
M 3366 4563 
L 3366 3988 
Q 3128 4100 2886 4159 
Q 2644 4219 2406 4219 
Q 1781 4219 1451 3797 
Q 1122 3375 1075 2522 
Q 1259 2794 1537 2939 
Q 1816 3084 2150 3084 
Q 2853 3084 3261 2657 
Q 3669 2231 3669 1497 
Q 3669 778 3244 343 
Q 2819 -91 2113 -91 
Q 1303 -91 875 529 
Q 447 1150 447 2328 
Q 447 3434 972 4092 
Q 1497 4750 2381 4750 
Q 2619 4750 2861 4703 
Q 3103 4656 3366 4563 
z
" transform="scale(0.015625)"/>
       </defs>
       <use xlink:href="#DejaVuSans-36"/>
      </g>
     </g>
    </g>
    <g id="text_7">
     <!-- #threads -->
     <g transform="translate(127.139604 215.119833) scale(0.1 -0.1)">
      <defs>
       <path id="DejaVuSans-23" d="M 3272 2816 
L 2363 2816 
L 2100 1772 
L 3016 1772 
L 3272 2816 
z
M 2803 4594 
L 2478 3297 
L 3391 3297 
L 3719 4594 
L 4219 4594 
L 3897 3297 
L 4872 3297 
L 4872 2816 
L 3775 2816 
L 3519 1772 
L 4513 1772 
L 4513 1294 
L 3397 1294 
L 3072 0 
L 2572 0 
L 2894 1294 
L 1978 1294 
L 1656 0 
L 1153 0 
L 1478 1294 
L 494 1294 
L 494 1772 
L 1594 1772 
L 1856 2816 
L 850 2816 
L 850 3297 
L 1978 3297 
L 2297 4594 
L 2803 4594 
z
" transform="scale(0.015625)"/>
       <path id="DejaVuSans-74" d="M 1172 4494 
L 1172 3500 
L 2356 3500 
L 2356 3053 
L 1172 3053 
L 1172 1153 
Q 1172 725 1289 603 
Q 1406 481 1766 481 
L 2356 481 
L 2356 0 
L 1766 0 
Q 1100 0 847 248 
Q 594 497 594 1153 
L 594 3053 
L 172 3053 
L 172 3500 
L 594 3500 
L 594 4494 
L 1172 4494 
z
" transform="scale(0.015625)"/>
       <path id="DejaVuSans-68" d="M 3513 2113 
L 3513 0 
L 2938 0 
L 2938 2094 
Q 2938 2591 2744 2837 
Q 2550 3084 2163 3084 
Q 1697 3084 1428 2787 
Q 1159 2491 1159 1978 
L 1159 0 
L 581 0 
L 581 4863 
L 1159 4863 
L 1159 2956 
Q 1366 3272 1645 3428 
Q 1925 3584 2291 3584 
Q 2894 3584 3203 3211 
Q 3513 2838 3513 2113 
z
" transform="scale(0.015625)"/>
       <path id="DejaVuSans-72" d="M 2631 2963 
Q 2534 3019 2420 3045 
Q 2306 3072 2169 3072 
Q 1681 3072 1420 2755 
Q 1159 2438 1159 1844 
L 1159 0 
L 581 0 
L 581 3500 
L 1159 3500 
L 1159 2956 
Q 1341 3275 1631 3429 
Q 1922 3584 2338 3584 
Q 2397 3584 2469 3576 
Q 2541 3569 2628 3553 
L 2631 2963 
z
" transform="scale(0.015625)"/>
       <path id="DejaVuSans-65" d="M 3597 1894 
L 3597 1613 
L 953 1613 
Q 991 1019 1311 708 
Q 1631 397 2203 397 
Q 2534 397 2845 478 
Q 3156 559 3463 722 
L 3463 178 
Q 3153 47 2828 -22 
Q 2503 -91 2169 -91 
Q 1331 -91 842 396 
Q 353 884 353 1716 
Q 353 2575 817 3079 
Q 1281 3584 2069 3584 
Q 2775 3584 3186 3129 
Q 3597 2675 3597 1894 
z
M 3022 2063 
Q 3016 2534 2758 2815 
Q 2500 3097 2075 3097 
Q 1594 3097 1305 2825 
Q 1016 2553 972 2059 
L 3022 2063 
z
" transform="scale(0.015625)"/>
       <path id="DejaVuSans-61" d="M 2194 1759 
Q 1497 1759 1228 1600 
Q 959 1441 959 1056 
Q 959 750 1161 570 
Q 1363 391 1709 391 
Q 2188 391 2477 730 
Q 2766 1069 2766 1631 
L 2766 1759 
L 2194 1759 
z
M 3341 1997 
L 3341 0 
L 2766 0 
L 2766 531 
Q 2569 213 2275 61 
Q 1981 -91 1556 -91 
Q 1019 -91 701 211 
Q 384 513 384 1019 
Q 384 1609 779 1909 
Q 1175 2209 1959 2209 
L 2766 2209 
L 2766 2266 
Q 2766 2663 2505 2880 
Q 2244 3097 1772 3097 
Q 1472 3097 1187 3025 
Q 903 2953 641 2809 
L 641 3341 
Q 956 3463 1253 3523 
Q 1550 3584 1831 3584 
Q 2591 3584 2966 3190 
Q 3341 2797 3341 1997 
z
" transform="scale(0.015625)"/>
       <path id="DejaVuSans-64" d="M 2906 2969 
L 2906 4863 
L 3481 4863 
L 3481 0 
L 2906 0 
L 2906 525 
Q 2725 213 2448 61 
Q 2172 -91 1784 -91 
Q 1150 -91 751 415 
Q 353 922 353 1747 
Q 353 2572 751 3078 
Q 1150 3584 1784 3584 
Q 2172 3584 2448 3432 
Q 2725 3281 2906 2969 
z
M 947 1747 
Q 947 1113 1208 752 
Q 1469 391 1925 391 
Q 2381 391 2643 752 
Q 2906 1113 2906 1747 
Q 2906 2381 2643 2742 
Q 2381 3103 1925 3103 
Q 1469 3103 1208 2742 
Q 947 2381 947 1747 
z
" transform="scale(0.015625)"/>
       <path id="DejaVuSans-73" d="M 2834 3397 
L 2834 2853 
Q 2591 2978 2328 3040 
Q 2066 3103 1784 3103 
Q 1356 3103 1142 2972 
Q 928 2841 928 2578 
Q 928 2378 1081 2264 
Q 1234 2150 1697 2047 
L 1894 2003 
Q 2506 1872 2764 1633 
Q 3022 1394 3022 966 
Q 3022 478 2636 193 
Q 2250 -91 1575 -91 
Q 1294 -91 989 -36 
Q 684 19 347 128 
L 347 722 
Q 666 556 975 473 
Q 1284 391 1588 391 
Q 1994 391 2212 530 
Q 2431 669 2431 922 
Q 2431 1156 2273 1281 
Q 2116 1406 1581 1522 
L 1381 1569 
Q 847 1681 609 1914 
Q 372 2147 372 2553 
Q 372 3047 722 3315 
Q 1072 3584 1716 3584 
Q 2034 3584 2315 3537 
Q 2597 3491 2834 3397 
z
" transform="scale(0.015625)"/>
      </defs>
      <use xlink:href="#DejaVuSans-23"/>
      <use xlink:href="#DejaVuSans-74" x="83.789062"/>
      <use xlink:href="#DejaVuSans-68" x="122.998047"/>
      <use xlink:href="#DejaVuSans-72" x="186.376953"/>
      <use xlink:href="#DejaVuSans-65" x="225.240234"/>
      <use xlink:href="#DejaVuSans-61" x="286.763672"/>
      <use xlink:href="#DejaVuSans-64" x="348.042969"/>
      <use xlink:href="#DejaVuSans-73" x="411.519531"/>
     </g>
    </g>
   </g>
   <g id="matplotlib.axis_2">
    <g id="ytick_1">
     <g id="line2d_7">
      <path d="M 40.603125 186.84327 
L 260.038583 186.84327 
" clip-path="url(#p068b1d71eb)" style="fill: none; stroke: #b0b0b0; stroke-width: 0.4; stroke-linecap: square"/>
     </g>
     <g id="line2d_8">
      <defs>
       <path id="md62919dfbe" d="M 0 0 
L -3.5 0 
" style="stroke: #000000; stroke-width: 0.8"/>
      </defs>
      <g>
       <use xlink:href="#md62919dfbe" x="40.603125" y="186.84327" style="stroke: #000000; stroke-width: 0.8"/>
      </g>
     </g>
     <g id="text_8">
      <!-- 0 -->
      <g transform="translate(27.240625 190.642489) scale(0.1 -0.1)">
       <defs>
        <path id="DejaVuSans-30" d="M 2034 4250 
Q 1547 4250 1301 3770 
Q 1056 3291 1056 2328 
Q 1056 1369 1301 889 
Q 1547 409 2034 409 
Q 2525 409 2770 889 
Q 3016 1369 3016 2328 
Q 3016 3291 2770 3770 
Q 2525 4250 2034 4250 
z
M 2034 4750 
Q 2819 4750 3233 4129 
Q 3647 3509 3647 2328 
Q 3647 1150 3233 529 
Q 2819 -91 2034 -91 
Q 1250 -91 836 529 
Q 422 1150 422 2328 
Q 422 3509 836 4129 
Q 1250 4750 2034 4750 
z
" transform="scale(0.015625)"/>
       </defs>
       <use xlink:href="#DejaVuSans-30"/>
      </g>
     </g>
    </g>
    <g id="ytick_2">
     <g id="line2d_9">
      <path d="M 40.603125 170.132268 
L 260.038583 170.132268 
" clip-path="url(#p068b1d71eb)" style="fill: none; stroke: #b0b0b0; stroke-width: 0.4; stroke-linecap: square"/>
     </g>
     <g id="line2d_10">
      <g>
       <use xlink:href="#md62919dfbe" x="40.603125" y="170.132268" style="stroke: #000000; stroke-width: 0.8"/>
      </g>
     </g>
     <g id="text_9">
      <!-- 2 -->
      <g transform="translate(27.240625 173.931487) scale(0.1 -0.1)">
       <use xlink:href="#DejaVuSans-32"/>
      </g>
     </g>
    </g>
    <g id="ytick_3">
     <g id="line2d_11">
      <path d="M 40.603125 153.421266 
L 260.038583 153.421266 
" clip-path="url(#p068b1d71eb)" style="fill: none; stroke: #b0b0b0; stroke-width: 0.4; stroke-linecap: square"/>
     </g>
     <g id="line2d_12">
      <g>
       <use xlink:href="#md62919dfbe" x="40.603125" y="153.421266" style="stroke: #000000; stroke-width: 0.8"/>
      </g>
     </g>
     <g id="text_10">
      <!-- 4 -->
      <g transform="translate(27.240625 157.220485) scale(0.1 -0.1)">
       <use xlink:href="#DejaVuSans-34"/>
      </g>
     </g>
    </g>
    <g id="ytick_4">
     <g id="line2d_13">
      <path d="M 40.603125 136.710264 
L 260.038583 136.710264 
" clip-path="url(#p068b1d71eb)" style="fill: none; stroke: #b0b0b0; stroke-width: 0.4; stroke-linecap: square"/>
     </g>
     <g id="line2d_14">
      <g>
       <use xlink:href="#md62919dfbe" x="40.603125" y="136.710264" style="stroke: #000000; stroke-width: 0.8"/>
      </g>
     </g>
     <g id="text_11">
      <!-- 6 -->
      <g transform="translate(27.240625 140.509483) scale(0.1 -0.1)">
       <use xlink:href="#DejaVuSans-36"/>
      </g>
     </g>
    </g>
    <g id="ytick_5">
     <g id="line2d_15">
      <path d="M 40.603125 119.999263 
L 260.038583 119.999263 
" clip-path="url(#p068b1d71eb)" style="fill: none; stroke: #b0b0b0; stroke-width: 0.4; stroke-linecap: square"/>
     </g>
     <g id="line2d_16">
      <g>
       <use xlink:href="#md62919dfbe" x="40.603125" y="119.999263" style="stroke: #000000; stroke-width: 0.8"/>
      </g>
     </g>
     <g id="text_12">
      <!-- 8 -->
      <g transform="translate(27.240625 123.798481) scale(0.1 -0.1)">
       <defs>
        <path id="DejaVuSans-38" d="M 2034 2216 
Q 1584 2216 1326 1975 
Q 1069 1734 1069 1313 
Q 1069 891 1326 650 
Q 1584 409 2034 409 
Q 2484 409 2743 651 
Q 3003 894 3003 1313 
Q 3003 1734 2745 1975 
Q 2488 2216 2034 2216 
z
M 1403 2484 
Q 997 2584 770 2862 
Q 544 3141 544 3541 
Q 544 4100 942 4425 
Q 1341 4750 2034 4750 
Q 2731 4750 3128 4425 
Q 3525 4100 3525 3541 
Q 3525 3141 3298 2862 
Q 3072 2584 2669 2484 
Q 3125 2378 3379 2068 
Q 3634 1759 3634 1313 
Q 3634 634 3220 271 
Q 2806 -91 2034 -91 
Q 1263 -91 848 271 
Q 434 634 434 1313 
Q 434 1759 690 2068 
Q 947 2378 1403 2484 
z
M 1172 3481 
Q 1172 3119 1398 2916 
Q 1625 2713 2034 2713 
Q 2441 2713 2670 2916 
Q 2900 3119 2900 3481 
Q 2900 3844 2670 4047 
Q 2441 4250 2034 4250 
Q 1625 4250 1398 4047 
Q 1172 3844 1172 3481 
z
" transform="scale(0.015625)"/>
       </defs>
       <use xlink:href="#DejaVuSans-38"/>
      </g>
     </g>
    </g>
    <g id="ytick_6">
     <g id="line2d_17">
      <path d="M 40.603125 103.288261 
L 260.038583 103.288261 
" clip-path="url(#p068b1d71eb)" style="fill: none; stroke: #b0b0b0; stroke-width: 0.4; stroke-linecap: square"/>
     </g>
     <g id="line2d_18">
      <g>
       <use xlink:href="#md62919dfbe" x="40.603125" y="103.288261" style="stroke: #000000; stroke-width: 0.8"/>
      </g>
     </g>
     <g id="text_13">
      <!-- 10 -->
      <g transform="translate(20.878125 107.087479) scale(0.1 -0.1)">
       <use xlink:href="#DejaVuSans-31"/>
       <use xlink:href="#DejaVuSans-30" x="63.623047"/>
      </g>
     </g>
    </g>
    <g id="ytick_7">
     <g id="line2d_19">
      <path d="M 40.603125 86.577259 
L 260.038583 86.577259 
" clip-path="url(#p068b1d71eb)" style="fill: none; stroke: #b0b0b0; stroke-width: 0.4; stroke-linecap: square"/>
     </g>
     <g id="line2d_20">
      <g>
       <use xlink:href="#md62919dfbe" x="40.603125" y="86.577259" style="stroke: #000000; stroke-width: 0.8"/>
      </g>
     </g>
     <g id="text_14">
      <!-- 12 -->
      <g transform="translate(20.878125 90.376478) scale(0.1 -0.1)">
       <use xlink:href="#DejaVuSans-31"/>
       <use xlink:href="#DejaVuSans-32" x="63.623047"/>
      </g>
     </g>
    </g>
    <g id="ytick_8">
     <g id="line2d_21">
      <path d="M 40.603125 69.866257 
L 260.038583 69.866257 
" clip-path="url(#p068b1d71eb)" style="fill: none; stroke: #b0b0b0; stroke-width: 0.4; stroke-linecap: square"/>
     </g>
     <g id="line2d_22">
      <g>
       <use xlink:href="#md62919dfbe" x="40.603125" y="69.866257" style="stroke: #000000; stroke-width: 0.8"/>
      </g>
     </g>
     <g id="text_15">
      <!-- 14 -->
      <g transform="translate(20.878125 73.665476) scale(0.1 -0.1)">
       <use xlink:href="#DejaVuSans-31"/>
       <use xlink:href="#DejaVuSans-34" x="63.623047"/>
      </g>
     </g>
    </g>
    <g id="ytick_9">
     <g id="line2d_23">
      <path d="M 40.603125 53.155255 
L 260.038583 53.155255 
" clip-path="url(#p068b1d71eb)" style="fill: none; stroke: #b0b0b0; stroke-width: 0.4; stroke-linecap: square"/>
     </g>
     <g id="line2d_24">
      <g>
       <use xlink:href="#md62919dfbe" x="40.603125" y="53.155255" style="stroke: #000000; stroke-width: 0.8"/>
      </g>
     </g>
     <g id="text_16">
      <!-- 16 -->
      <g transform="translate(20.878125 56.954474) scale(0.1 -0.1)">
       <use xlink:href="#DejaVuSans-31"/>
       <use xlink:href="#DejaVuSans-36" x="63.623047"/>
      </g>
     </g>
    </g>
    <g id="ytick_10">
     <g id="line2d_25">
      <path d="M 40.603125 36.444253 
L 260.038583 36.444253 
" clip-path="url(#p068b1d71eb)" style="fill: none; stroke: #b0b0b0; stroke-width: 0.4; stroke-linecap: square"/>
     </g>
     <g id="line2d_26">
      <g>
       <use xlink:href="#md62919dfbe" x="40.603125" y="36.444253" style="stroke: #000000; stroke-width: 0.8"/>
      </g>
     </g>
     <g id="text_17">
      <!-- 18 -->
      <g transform="translate(20.878125 40.243472) scale(0.1 -0.1)">
       <use xlink:href="#DejaVuSans-31"/>
       <use xlink:href="#DejaVuSans-38" x="63.623047"/>
      </g>
     </g>
    </g>
    <g id="ytick_11">
     <g id="line2d_27">
      <path d="M 40.603125 19.733251 
L 260.038583 19.733251 
" clip-path="url(#p068b1d71eb)" style="fill: none; stroke: #b0b0b0; stroke-width: 0.4; stroke-linecap: square"/>
     </g>
     <g id="line2d_28">
      <g>
       <use xlink:href="#md62919dfbe" x="40.603125" y="19.733251" style="stroke: #000000; stroke-width: 0.8"/>
      </g>
     </g>
     <g id="text_18">
      <!-- 20 -->
      <g transform="translate(20.878125 23.53247) scale(0.1 -0.1)">
       <use xlink:href="#DejaVuSans-32"/>
       <use xlink:href="#DejaVuSans-30" x="63.623047"/>
      </g>
     </g>
    </g>
    <g id="text_19">
     <!-- Query throughput (ns/key) -->
     <g transform="translate(14.798438 163.451323) rotate(-90) scale(0.1 -0.1)">
      <defs>
       <path id="DejaVuSans-51" d="M 2522 4238 
Q 1834 4238 1429 3725 
Q 1025 3213 1025 2328 
Q 1025 1447 1429 934 
Q 1834 422 2522 422 
Q 3209 422 3611 934 
Q 4013 1447 4013 2328 
Q 4013 3213 3611 3725 
Q 3209 4238 2522 4238 
z
M 3406 84 
L 4238 -825 
L 3475 -825 
L 2784 -78 
Q 2681 -84 2626 -87 
Q 2572 -91 2522 -91 
Q 1538 -91 948 567 
Q 359 1225 359 2328 
Q 359 3434 948 4092 
Q 1538 4750 2522 4750 
Q 3503 4750 4090 4092 
Q 4678 3434 4678 2328 
Q 4678 1516 4351 937 
Q 4025 359 3406 84 
z
" transform="scale(0.015625)"/>
       <path id="DejaVuSans-75" d="M 544 1381 
L 544 3500 
L 1119 3500 
L 1119 1403 
Q 1119 906 1312 657 
Q 1506 409 1894 409 
Q 2359 409 2629 706 
Q 2900 1003 2900 1516 
L 2900 3500 
L 3475 3500 
L 3475 0 
L 2900 0 
L 2900 538 
Q 2691 219 2414 64 
Q 2138 -91 1772 -91 
Q 1169 -91 856 284 
Q 544 659 544 1381 
z
M 1991 3584 
L 1991 3584 
z
" transform="scale(0.015625)"/>
       <path id="DejaVuSans-79" d="M 2059 -325 
Q 1816 -950 1584 -1140 
Q 1353 -1331 966 -1331 
L 506 -1331 
L 506 -850 
L 844 -850 
Q 1081 -850 1212 -737 
Q 1344 -625 1503 -206 
L 1606 56 
L 191 3500 
L 800 3500 
L 1894 763 
L 2988 3500 
L 3597 3500 
L 2059 -325 
z
" transform="scale(0.015625)"/>
       <path id="DejaVuSans-20" transform="scale(0.015625)"/>
       <path id="DejaVuSans-6f" d="M 1959 3097 
Q 1497 3097 1228 2736 
Q 959 2375 959 1747 
Q 959 1119 1226 758 
Q 1494 397 1959 397 
Q 2419 397 2687 759 
Q 2956 1122 2956 1747 
Q 2956 2369 2687 2733 
Q 2419 3097 1959 3097 
z
M 1959 3584 
Q 2709 3584 3137 3096 
Q 3566 2609 3566 1747 
Q 3566 888 3137 398 
Q 2709 -91 1959 -91 
Q 1206 -91 779 398 
Q 353 888 353 1747 
Q 353 2609 779 3096 
Q 1206 3584 1959 3584 
z
" transform="scale(0.015625)"/>
       <path id="DejaVuSans-67" d="M 2906 1791 
Q 2906 2416 2648 2759 
Q 2391 3103 1925 3103 
Q 1463 3103 1205 2759 
Q 947 2416 947 1791 
Q 947 1169 1205 825 
Q 1463 481 1925 481 
Q 2391 481 2648 825 
Q 2906 1169 2906 1791 
z
M 3481 434 
Q 3481 -459 3084 -895 
Q 2688 -1331 1869 -1331 
Q 1566 -1331 1297 -1286 
Q 1028 -1241 775 -1147 
L 775 -588 
Q 1028 -725 1275 -790 
Q 1522 -856 1778 -856 
Q 2344 -856 2625 -561 
Q 2906 -266 2906 331 
L 2906 616 
Q 2728 306 2450 153 
Q 2172 0 1784 0 
Q 1141 0 747 490 
Q 353 981 353 1791 
Q 353 2603 747 3093 
Q 1141 3584 1784 3584 
Q 2172 3584 2450 3431 
Q 2728 3278 2906 2969 
L 2906 3500 
L 3481 3500 
L 3481 434 
z
" transform="scale(0.015625)"/>
       <path id="DejaVuSans-70" d="M 1159 525 
L 1159 -1331 
L 581 -1331 
L 581 3500 
L 1159 3500 
L 1159 2969 
Q 1341 3281 1617 3432 
Q 1894 3584 2278 3584 
Q 2916 3584 3314 3078 
Q 3713 2572 3713 1747 
Q 3713 922 3314 415 
Q 2916 -91 2278 -91 
Q 1894 -91 1617 61 
Q 1341 213 1159 525 
z
M 3116 1747 
Q 3116 2381 2855 2742 
Q 2594 3103 2138 3103 
Q 1681 3103 1420 2742 
Q 1159 2381 1159 1747 
Q 1159 1113 1420 752 
Q 1681 391 2138 391 
Q 2594 391 2855 752 
Q 3116 1113 3116 1747 
z
" transform="scale(0.015625)"/>
       <path id="DejaVuSans-28" d="M 1984 4856 
Q 1566 4138 1362 3434 
Q 1159 2731 1159 2009 
Q 1159 1288 1364 580 
Q 1569 -128 1984 -844 
L 1484 -844 
Q 1016 -109 783 600 
Q 550 1309 550 2009 
Q 550 2706 781 3412 
Q 1013 4119 1484 4856 
L 1984 4856 
z
" transform="scale(0.015625)"/>
       <path id="DejaVuSans-6e" d="M 3513 2113 
L 3513 0 
L 2938 0 
L 2938 2094 
Q 2938 2591 2744 2837 
Q 2550 3084 2163 3084 
Q 1697 3084 1428 2787 
Q 1159 2491 1159 1978 
L 1159 0 
L 581 0 
L 581 3500 
L 1159 3500 
L 1159 2956 
Q 1366 3272 1645 3428 
Q 1925 3584 2291 3584 
Q 2894 3584 3203 3211 
Q 3513 2838 3513 2113 
z
" transform="scale(0.015625)"/>
       <path id="DejaVuSans-2f" d="M 1625 4666 
L 2156 4666 
L 531 -594 
L 0 -594 
L 1625 4666 
z
" transform="scale(0.015625)"/>
       <path id="DejaVuSans-6b" d="M 581 4863 
L 1159 4863 
L 1159 1991 
L 2875 3500 
L 3609 3500 
L 1753 1863 
L 3688 0 
L 2938 0 
L 1159 1709 
L 1159 0 
L 581 0 
L 581 4863 
z
" transform="scale(0.015625)"/>
       <path id="DejaVuSans-29" d="M 513 4856 
L 1013 4856 
Q 1481 4119 1714 3412 
Q 1947 2706 1947 2009 
Q 1947 1309 1714 600 
Q 1481 -109 1013 -844 
L 513 -844 
Q 928 -128 1133 580 
Q 1338 1288 1338 2009 
Q 1338 2731 1133 3434 
Q 928 4138 513 4856 
z
" transform="scale(0.015625)"/>
      </defs>
      <use xlink:href="#DejaVuSans-51"/>
      <use xlink:href="#DejaVuSans-75" x="78.710938"/>
      <use xlink:href="#DejaVuSans-65" x="142.089844"/>
      <use xlink:href="#DejaVuSans-72" x="203.613281"/>
      <use xlink:href="#DejaVuSans-79" x="244.726562"/>
      <use xlink:href="#DejaVuSans-20" x="303.90625"/>
      <use xlink:href="#DejaVuSans-74" x="335.693359"/>
      <use xlink:href="#DejaVuSans-68" x="374.902344"/>
      <use xlink:href="#DejaVuSans-72" x="438.28125"/>
      <use xlink:href="#DejaVuSans-6f" x="477.144531"/>
      <use xlink:href="#DejaVuSans-75" x="538.326172"/>
      <use xlink:href="#DejaVuSans-67" x="601.705078"/>
      <use xlink:href="#DejaVuSans-68" x="665.181641"/>
      <use xlink:href="#DejaVuSans-70" x="728.560547"/>
      <use xlink:href="#DejaVuSans-75" x="792.037109"/>
      <use xlink:href="#DejaVuSans-74" x="855.416016"/>
      <use xlink:href="#DejaVuSans-20" x="894.625"/>
      <use xlink:href="#DejaVuSans-28" x="926.412109"/>
      <use xlink:href="#DejaVuSans-6e" x="965.425781"/>
      <use xlink:href="#DejaVuSans-73" x="1028.804688"/>
      <use xlink:href="#DejaVuSans-2f" x="1080.904297"/>
      <use xlink:href="#DejaVuSans-6b" x="1114.595703"/>
      <use xlink:href="#DejaVuSans-65" x="1168.880859"/>
      <use xlink:href="#DejaVuSans-79" x="1230.404297"/>
      <use xlink:href="#DejaVuSans-29" x="1289.583984"/>
     </g>
    </g>
   </g>
   <g id="line2d_29">
    <path d="M 48.730364 97.753903 
L 89.36656 140.900604 
L 130.002756 156.234192 
L 170.638952 163.876018 
L 211.275147 168.43457 
L 251.911343 171.578294 
" clip-path="url(#p068b1d71eb)" style="fill: none; stroke: #ff0000; stroke-width: 1.5; stroke-linecap: square"/>
   </g>
   <g id="line2d_30">
    <path d="M 48.730364 105.895968 
L 89.36656 146.736266 
L 130.002756 160.334378 
L 170.638952 166.737098 
L 211.275147 170.704441 
L 251.911343 173.251288 
" clip-path="url(#p068b1d71eb)" style="fill: none; stroke: #ff0000; stroke-opacity: 0.4; stroke-width: 2; stroke-linecap: square"/>
   </g>
   <g id="line2d_31">
    <path d="M 48.730364 132.841929 
L 89.36656 159.637242 
L 130.002756 168.698943 
L 170.638952 173.182052 
L 211.275147 175.929037 
L 251.911343 177.7192 
" clip-path="url(#p068b1d71eb)" style="fill: none; stroke-dasharray: 5.55,2.4; stroke-dashoffset: 0; stroke: #ff0000; stroke-width: 1.5"/>
   </g>
   <g id="line2d_32">
    <path d="M 48.730364 127.243279 
L 89.36656 156.758538 
L 130.002756 166.720468 
L 170.638952 171.749187 
L 211.275147 174.694309 
L 251.911343 176.71444 
" clip-path="url(#p068b1d71eb)" style="fill: none; stroke-dasharray: 7.4,3.2; stroke-dashoffset: 0; stroke: #ff0000; stroke-opacity: 0.4; stroke-width: 2"/>
   </g>
   <g id="line2d_33">
    <path d="M 48.730364 150.564284 
L 89.36656 168.324276 
L 130.002756 173.84522 
L 170.638952 177.192831 
L 211.275147 178.69458 
L 251.911343 180.182455 
" clip-path="url(#p068b1d71eb)" style="fill: none; stroke: #0000ff; stroke-width: 1.5; stroke-linecap: square"/>
   </g>
   <g id="line2d_34">
    <path d="M 48.730364 146.42806 
L 89.36656 165.162372 
L 130.002756 172.878444 
L 170.638952 176.194946 
L 211.275147 178.21766 
L 251.911343 179.181916 
" clip-path="url(#p068b1d71eb)" style="fill: none; stroke: #0000ff; stroke-opacity: 0.4; stroke-width: 2; stroke-linecap: square"/>
   </g>
   <g id="line2d_35">
    <path d="M 48.730364 156.42952 
L 89.36656 171.411801 
L 130.002756 176.559493 
L 170.638952 179.020576 
L 211.275147 180.465646 
L 251.911343 181.539392 
" clip-path="url(#p068b1d71eb)" style="fill: none; stroke-dasharray: 5.55,2.4; stroke-dashoffset: 0; stroke: #0000ff; stroke-width: 1.5"/>
   </g>
   <g id="line2d_36">
    <path d="M 48.730364 152.958632 
L 89.36656 170.268211 
L 130.002756 175.793238 
L 170.638952 178.572585 
L 211.275147 180.119606 
L 251.911343 181.167709 
" clip-path="url(#p068b1d71eb)" style="fill: none; stroke-dasharray: 7.4,3.2; stroke-dashoffset: 0; stroke: #0000ff; stroke-opacity: 0.4; stroke-width: 2"/>
   </g>
   <g id="patch_3">
    <path d="M 40.603125 186.84327 
L 260.038583 186.84327 
" style="fill: none; stroke: #000000; stroke-width: 0.8; stroke-linejoin: miter; stroke-linecap: square"/>
   </g>
   <g id="legend_1">
    <g id="patch_4">
     <path d="M 55.021395 73.9125 
L 253.038583 73.9125 
Q 255.038583 73.9125 255.038583 71.9125 
L 255.038583 14.2 
Q 255.038583 12.2 253.038583 12.2 
L 55.021395 12.2 
Q 53.021395 12.2 53.021395 14.2 
L 53.021395 71.9125 
Q 53.021395 73.9125 55.021395 73.9125 
z
" style="fill: #ffffff; opacity: 0.8; stroke: #cccccc; stroke-linejoin: miter"/>
    </g>
    <g id="PatchCollection_1">
     <path d="M 57.021395 23.798438 
L 67.021395 23.798438 
L 67.021395 16.798438 
L 57.021395 16.798438 
z
" style="fill: #ff0000"/>
     <path d="M 67.021395 23.798438 
L 77.021395 23.798438 
L 77.021395 16.798438 
L 67.021395 16.798438 
z
" style="fill: #ff0000; fill-opacity: 0.4"/>
    </g>
    <g id="text_20">
     <!-- Compact -->
     <g transform="translate(85.021395 23.798438) scale(0.1 -0.1)">
      <defs>
       <path id="DejaVuSans-43" d="M 4122 4306 
L 4122 3641 
Q 3803 3938 3442 4084 
Q 3081 4231 2675 4231 
Q 1875 4231 1450 3742 
Q 1025 3253 1025 2328 
Q 1025 1406 1450 917 
Q 1875 428 2675 428 
Q 3081 428 3442 575 
Q 3803 722 4122 1019 
L 4122 359 
Q 3791 134 3420 21 
Q 3050 -91 2638 -91 
Q 1578 -91 968 557 
Q 359 1206 359 2328 
Q 359 3453 968 4101 
Q 1578 4750 2638 4750 
Q 3056 4750 3426 4639 
Q 3797 4528 4122 4306 
z
" transform="scale(0.015625)"/>
       <path id="DejaVuSans-6d" d="M 3328 2828 
Q 3544 3216 3844 3400 
Q 4144 3584 4550 3584 
Q 5097 3584 5394 3201 
Q 5691 2819 5691 2113 
L 5691 0 
L 5113 0 
L 5113 2094 
Q 5113 2597 4934 2840 
Q 4756 3084 4391 3084 
Q 3944 3084 3684 2787 
Q 3425 2491 3425 1978 
L 3425 0 
L 2847 0 
L 2847 2094 
Q 2847 2600 2669 2842 
Q 2491 3084 2119 3084 
Q 1678 3084 1418 2786 
Q 1159 2488 1159 1978 
L 1159 0 
L 581 0 
L 581 3500 
L 1159 3500 
L 1159 2956 
Q 1356 3278 1631 3431 
Q 1906 3584 2284 3584 
Q 2666 3584 2933 3390 
Q 3200 3197 3328 2828 
z
" transform="scale(0.015625)"/>
       <path id="DejaVuSans-63" d="M 3122 3366 
L 3122 2828 
Q 2878 2963 2633 3030 
Q 2388 3097 2138 3097 
Q 1578 3097 1268 2742 
Q 959 2388 959 1747 
Q 959 1106 1268 751 
Q 1578 397 2138 397 
Q 2388 397 2633 464 
Q 2878 531 3122 666 
L 3122 134 
Q 2881 22 2623 -34 
Q 2366 -91 2075 -91 
Q 1284 -91 818 406 
Q 353 903 353 1747 
Q 353 2603 823 3093 
Q 1294 3584 2113 3584 
Q 2378 3584 2631 3529 
Q 2884 3475 3122 3366 
z
" transform="scale(0.015625)"/>
      </defs>
      <use xlink:href="#DejaVuSans-43"/>
      <use xlink:href="#DejaVuSans-6f" x="69.824219"/>
      <use xlink:href="#DejaVuSans-6d" x="131.005859"/>
      <use xlink:href="#DejaVuSans-70" x="228.417969"/>
      <use xlink:href="#DejaVuSans-61" x="291.894531"/>
      <use xlink:href="#DejaVuSans-63" x="353.173828"/>
      <use xlink:href="#DejaVuSans-74" x="408.154297"/>
     </g>
    </g>
    <g id="PatchCollection_2">
     <path d="M 57.021395 38.476562 
L 67.021395 38.476562 
L 67.021395 31.476562 
L 57.021395 31.476562 
z
" style="fill: #0000ff"/>
     <path d="M 67.021395 38.476562 
L 77.021395 38.476562 
L 77.021395 31.476562 
L 67.021395 31.476562 
z
" style="fill: #0000ff; fill-opacity: 0.4"/>
    </g>
    <g id="text_21">
     <!-- Simple -->
     <g transform="translate(85.021395 38.476562) scale(0.1 -0.1)">
      <defs>
       <path id="DejaVuSans-53" d="M 3425 4513 
L 3425 3897 
Q 3066 4069 2747 4153 
Q 2428 4238 2131 4238 
Q 1616 4238 1336 4038 
Q 1056 3838 1056 3469 
Q 1056 3159 1242 3001 
Q 1428 2844 1947 2747 
L 2328 2669 
Q 3034 2534 3370 2195 
Q 3706 1856 3706 1288 
Q 3706 609 3251 259 
Q 2797 -91 1919 -91 
Q 1588 -91 1214 -16 
Q 841 59 441 206 
L 441 856 
Q 825 641 1194 531 
Q 1563 422 1919 422 
Q 2459 422 2753 634 
Q 3047 847 3047 1241 
Q 3047 1584 2836 1778 
Q 2625 1972 2144 2069 
L 1759 2144 
Q 1053 2284 737 2584 
Q 422 2884 422 3419 
Q 422 4038 858 4394 
Q 1294 4750 2059 4750 
Q 2388 4750 2728 4690 
Q 3069 4631 3425 4513 
z
" transform="scale(0.015625)"/>
       <path id="DejaVuSans-69" d="M 603 3500 
L 1178 3500 
L 1178 0 
L 603 0 
L 603 3500 
z
M 603 4863 
L 1178 4863 
L 1178 4134 
L 603 4134 
L 603 4863 
z
" transform="scale(0.015625)"/>
       <path id="DejaVuSans-6c" d="M 603 4863 
L 1178 4863 
L 1178 0 
L 603 0 
L 603 4863 
z
" transform="scale(0.015625)"/>
      </defs>
      <use xlink:href="#DejaVuSans-53"/>
      <use xlink:href="#DejaVuSans-69" x="63.476562"/>
      <use xlink:href="#DejaVuSans-6d" x="91.259766"/>
      <use xlink:href="#DejaVuSans-70" x="188.671875"/>
      <use xlink:href="#DejaVuSans-6c" x="252.148438"/>
      <use xlink:href="#DejaVuSans-65" x="279.931641"/>
     </g>
    </g>
    <g id="PatchCollection_3">
     <path d="M 57.021395 53.154687 
L 67.021395 53.154687 
L 67.021395 46.154687 
L 57.021395 46.154687 
z
" style="fill: #ff0000"/>
     <path d="M 67.021395 53.154687 
L 77.021395 53.154687 
L 77.021395 46.154687 
L 67.021395 46.154687 
z
" style="fill: #0000ff"/>
    </g>
    <g id="text_22">
     <!-- PHF -->
     <g transform="translate(85.021395 53.154687) scale(0.1 -0.1)">
      <defs>
       <path id="DejaVuSans-50" d="M 1259 4147 
L 1259 2394 
L 2053 2394 
Q 2494 2394 2734 2622 
Q 2975 2850 2975 3272 
Q 2975 3691 2734 3919 
Q 2494 4147 2053 4147 
L 1259 4147 
z
M 628 4666 
L 2053 4666 
Q 2838 4666 3239 4311 
Q 3641 3956 3641 3272 
Q 3641 2581 3239 2228 
Q 2838 1875 2053 1875 
L 1259 1875 
L 1259 0 
L 628 0 
L 628 4666 
z
" transform="scale(0.015625)"/>
       <path id="DejaVuSans-48" d="M 628 4666 
L 1259 4666 
L 1259 2753 
L 3553 2753 
L 3553 4666 
L 4184 4666 
L 4184 0 
L 3553 0 
L 3553 2222 
L 1259 2222 
L 1259 0 
L 628 0 
L 628 4666 
z
" transform="scale(0.015625)"/>
       <path id="DejaVuSans-46" d="M 628 4666 
L 3309 4666 
L 3309 4134 
L 1259 4134 
L 1259 2759 
L 3109 2759 
L 3109 2228 
L 1259 2228 
L 1259 0 
L 628 0 
L 628 4666 
z
" transform="scale(0.015625)"/>
      </defs>
      <use xlink:href="#DejaVuSans-50"/>
      <use xlink:href="#DejaVuSans-48" x="60.302734"/>
      <use xlink:href="#DejaVuSans-46" x="135.498047"/>
     </g>
    </g>
    <g id="PatchCollection_4">
     <path d="M 57.021395 67.832813 
L 67.021395 67.832813 
L 67.021395 60.832813 
L 57.021395 60.832813 
z
" style="fill: #ff0000; fill-opacity: 0.4"/>
     <path d="M 67.021395 67.832813 
L 77.021395 67.832813 
L 77.021395 60.832813 
L 67.021395 60.832813 
z
" style="fill: #0000ff; fill-opacity: 0.4"/>
    </g>
    <g id="text_23">
     <!-- MPHF -->
     <g transform="translate(85.021395 67.832813) scale(0.1 -0.1)">
      <defs>
       <path id="DejaVuSans-4d" d="M 628 4666 
L 1569 4666 
L 2759 1491 
L 3956 4666 
L 4897 4666 
L 4897 0 
L 4281 0 
L 4281 4097 
L 3078 897 
L 2444 897 
L 1241 4097 
L 1241 0 
L 628 0 
L 628 4666 
z
" transform="scale(0.015625)"/>
      </defs>
      <use xlink:href="#DejaVuSans-4d"/>
      <use xlink:href="#DejaVuSans-50" x="86.279297"/>
      <use xlink:href="#DejaVuSans-48" x="146.582031"/>
      <use xlink:href="#DejaVuSans-46" x="221.777344"/>
     </g>
    </g>
    <g id="line2d_37">
     <path d="M 149.758895 20.298438 
L 159.758895 20.298438 
L 169.758895 20.298438 
" style="fill: none; stroke: #000000; stroke-width: 1.5; stroke-linecap: square"/>
    </g>
    <g id="text_24">
     <!-- Looping -->
     <g transform="translate(177.758895 23.798438) scale(0.1 -0.1)">
      <defs>
       <path id="DejaVuSans-4c" d="M 628 4666 
L 1259 4666 
L 1259 531 
L 3531 531 
L 3531 0 
L 628 0 
L 628 4666 
z
" transform="scale(0.015625)"/>
      </defs>
      <use xlink:href="#DejaVuSans-4c"/>
      <use xlink:href="#DejaVuSans-6f" x="53.962891"/>
      <use xlink:href="#DejaVuSans-6f" x="115.144531"/>
      <use xlink:href="#DejaVuSans-70" x="176.326172"/>
      <use xlink:href="#DejaVuSans-69" x="239.802734"/>
      <use xlink:href="#DejaVuSans-6e" x="267.585938"/>
      <use xlink:href="#DejaVuSans-67" x="330.964844"/>
     </g>
    </g>
    <g id="line2d_38">
     <path d="M 149.758895 34.976562 
L 159.758895 34.976562 
L 169.758895 34.976562 
" style="fill: none; stroke-dasharray: 7.4,3.2; stroke-dashoffset: 0; stroke: #000000; stroke-width: 2"/>
    </g>
    <g id="text_25">
     <!-- Streaming -->
     <g transform="translate(177.758895 38.476562) scale(0.1 -0.1)">
      <use xlink:href="#DejaVuSans-53"/>
      <use xlink:href="#DejaVuSans-74" x="63.476562"/>
      <use xlink:href="#DejaVuSans-72" x="102.685547"/>
      <use xlink:href="#DejaVuSans-65" x="141.548828"/>
      <use xlink:href="#DejaVuSans-61" x="203.072266"/>
      <use xlink:href="#DejaVuSans-6d" x="264.351562"/>
      <use xlink:href="#DejaVuSans-69" x="361.763672"/>
      <use xlink:href="#DejaVuSans-6e" x="389.546875"/>
      <use xlink:href="#DejaVuSans-67" x="452.925781"/>
     </g>
    </g>
    <g id="patch_5">
     <path d="M 149.758895 53.154687 
L 169.758895 53.154687 
L 169.758895 46.154687 
L 149.758895 46.154687 
z
" style="opacity: 0.1"/>
    </g>
    <g id="text_26">
     <!-- Perfect scaling -->
     <g transform="translate(177.758895 53.154687) scale(0.1 -0.1)">
      <defs>
       <path id="DejaVuSans-66" d="M 2375 4863 
L 2375 4384 
L 1825 4384 
Q 1516 4384 1395 4259 
Q 1275 4134 1275 3809 
L 1275 3500 
L 2222 3500 
L 2222 3053 
L 1275 3053 
L 1275 0 
L 697 0 
L 697 3053 
L 147 3053 
L 147 3500 
L 697 3500 
L 697 3744 
Q 697 4328 969 4595 
Q 1241 4863 1831 4863 
L 2375 4863 
z
" transform="scale(0.015625)"/>
      </defs>
      <use xlink:href="#DejaVuSans-50"/>
      <use xlink:href="#DejaVuSans-65" x="56.677734"/>
      <use xlink:href="#DejaVuSans-72" x="118.201172"/>
      <use xlink:href="#DejaVuSans-66" x="159.314453"/>
      <use xlink:href="#DejaVuSans-65" x="194.519531"/>
      <use xlink:href="#DejaVuSans-63" x="256.042969"/>
      <use xlink:href="#DejaVuSans-74" x="311.023438"/>
      <use xlink:href="#DejaVuSans-20" x="350.232422"/>
      <use xlink:href="#DejaVuSans-73" x="382.019531"/>
      <use xlink:href="#DejaVuSans-63" x="434.119141"/>
      <use xlink:href="#DejaVuSans-61" x="489.099609"/>
      <use xlink:href="#DejaVuSans-6c" x="550.378906"/>
      <use xlink:href="#DejaVuSans-69" x="578.162109"/>
      <use xlink:href="#DejaVuSans-6e" x="605.945312"/>
      <use xlink:href="#DejaVuSans-67" x="669.324219"/>
     </g>
    </g>
   </g>
  </g>
  <g id="axes_2">
   <g id="patch_6">
    <path d="M 285.764063 186.84327 
L 505.19952 186.84327 
L 505.19952 7.2 
L 285.764063 7.2 
z
" style="fill: #ffffff"/>
   </g>
   <g id="line2d_39">
    <path d="M 285.764063 165.954518 
L 505.19952 165.954518 
" clip-path="url(#p59ecad4ab8)" style="fill: none; stroke-dasharray: 1,1.65; stroke-dashoffset: 0; stroke: #000000"/>
   </g>
   <g id="line2d_40">
    <path d="M 285.764063 165.954518 
L 505.19952 165.954518 
" clip-path="url(#p59ecad4ab8)" style="fill: none; stroke-dasharray: 1,1.65; stroke-dashoffset: 0; stroke: #000000"/>
   </g>
   <g id="PolyCollection_2">
    <path d="M 293.891302 10.450765 
L 293.891302 120.177476 
L 334.527498 153.510373 
L 375.163693 164.621339 
L 415.799889 170.176822 
L 456.436085 173.510111 
L 497.072281 175.732304 
L 537.708477 177.319585 
L 537.708477 161.644341 
L 537.708477 161.644341 
L 497.072281 157.444519 
L 456.436085 151.564769 
L 415.799889 142.745144 
L 375.163693 128.045768 
L 334.527498 98.647018 
L 293.891302 10.450765 
z
" clip-path="url(#p59ecad4ab8)" style="fill: #808080; fill-opacity: 0.1"/>
   </g>
   <g id="matplotlib.axis_3">
    <g id="xtick_7">
     <g id="line2d_41">
      <g>
       <use xlink:href="#mbd9cfb114d" x="293.891302" y="186.84327" style="stroke: #000000; stroke-width: 0.8"/>
      </g>
     </g>
     <g id="text_27">
      <!-- 1 -->
      <g transform="translate(290.710052 201.441708) scale(0.1 -0.1)">
       <use xlink:href="#DejaVuSans-31"/>
      </g>
     </g>
    </g>
    <g id="xtick_8">
     <g id="line2d_42">
      <g>
       <use xlink:href="#mbd9cfb114d" x="334.527498" y="186.84327" style="stroke: #000000; stroke-width: 0.8"/>
      </g>
     </g>
     <g id="text_28">
      <!-- 2 -->
      <g transform="translate(331.346248 201.441708) scale(0.1 -0.1)">
       <use xlink:href="#DejaVuSans-32"/>
      </g>
     </g>
    </g>
    <g id="xtick_9">
     <g id="line2d_43">
      <g>
       <use xlink:href="#mbd9cfb114d" x="375.163693" y="186.84327" style="stroke: #000000; stroke-width: 0.8"/>
      </g>
     </g>
     <g id="text_29">
      <!-- 3 -->
      <g transform="translate(371.982443 201.441708) scale(0.1 -0.1)">
       <use xlink:href="#DejaVuSans-33"/>
      </g>
     </g>
    </g>
    <g id="xtick_10">
     <g id="line2d_44">
      <g>
       <use xlink:href="#mbd9cfb114d" x="415.799889" y="186.84327" style="stroke: #000000; stroke-width: 0.8"/>
      </g>
     </g>
     <g id="text_30">
      <!-- 4 -->
      <g transform="translate(412.618639 201.441708) scale(0.1 -0.1)">
       <use xlink:href="#DejaVuSans-34"/>
      </g>
     </g>
    </g>
    <g id="xtick_11">
     <g id="line2d_45">
      <g>
       <use xlink:href="#mbd9cfb114d" x="456.436085" y="186.84327" style="stroke: #000000; stroke-width: 0.8"/>
      </g>
     </g>
     <g id="text_31">
      <!-- 5 -->
      <g transform="translate(453.254835 201.441708) scale(0.1 -0.1)">
       <use xlink:href="#DejaVuSans-35"/>
      </g>
     </g>
    </g>
    <g id="xtick_12">
     <g id="line2d_46">
      <g>
       <use xlink:href="#mbd9cfb114d" x="497.072281" y="186.84327" style="stroke: #000000; stroke-width: 0.8"/>
      </g>
     </g>
     <g id="text_32">
      <!-- 6 -->
      <g transform="translate(493.891031 201.441708) scale(0.1 -0.1)">
       <use xlink:href="#DejaVuSans-36"/>
      </g>
     </g>
    </g>
    <g id="text_33">
     <!-- #threads -->
     <g transform="translate(372.300541 215.119833) scale(0.1 -0.1)">
      <use xlink:href="#DejaVuSans-23"/>
      <use xlink:href="#DejaVuSans-74" x="83.789062"/>
      <use xlink:href="#DejaVuSans-68" x="122.998047"/>
      <use xlink:href="#DejaVuSans-72" x="186.376953"/>
      <use xlink:href="#DejaVuSans-65" x="225.240234"/>
      <use xlink:href="#DejaVuSans-61" x="286.763672"/>
      <use xlink:href="#DejaVuSans-64" x="348.042969"/>
      <use xlink:href="#DejaVuSans-73" x="411.519531"/>
     </g>
    </g>
   </g>
   <g id="matplotlib.axis_4">
    <g id="ytick_12">
     <g id="line2d_47">
      <path d="M 285.764063 186.84327 
L 505.19952 186.84327 
" clip-path="url(#p59ecad4ab8)" style="fill: none; stroke: #b0b0b0; stroke-width: 0.4; stroke-linecap: square"/>
     </g>
     <g id="line2d_48">
      <g>
       <use xlink:href="#md62919dfbe" x="285.764063" y="186.84327" style="stroke: #000000; stroke-width: 0.8"/>
      </g>
     </g>
     <g id="text_34">
      <!-- 0 -->
      <g transform="translate(272.401563 190.642489) scale(0.1 -0.1)">
       <use xlink:href="#DejaVuSans-30"/>
      </g>
     </g>
    </g>
    <g id="ytick_13">
     <g id="line2d_49">
      <path d="M 285.764063 170.132268 
L 505.19952 170.132268 
" clip-path="url(#p59ecad4ab8)" style="fill: none; stroke: #b0b0b0; stroke-width: 0.4; stroke-linecap: square"/>
     </g>
     <g id="line2d_50">
      <g>
       <use xlink:href="#md62919dfbe" x="285.764063" y="170.132268" style="stroke: #000000; stroke-width: 0.8"/>
      </g>
     </g>
     <g id="text_35">
      <!-- 2 -->
      <g transform="translate(272.401563 173.931487) scale(0.1 -0.1)">
       <use xlink:href="#DejaVuSans-32"/>
      </g>
     </g>
    </g>
    <g id="ytick_14">
     <g id="line2d_51">
      <path d="M 285.764063 153.421266 
L 505.19952 153.421266 
" clip-path="url(#p59ecad4ab8)" style="fill: none; stroke: #b0b0b0; stroke-width: 0.4; stroke-linecap: square"/>
     </g>
     <g id="line2d_52">
      <g>
       <use xlink:href="#md62919dfbe" x="285.764063" y="153.421266" style="stroke: #000000; stroke-width: 0.8"/>
      </g>
     </g>
     <g id="text_36">
      <!-- 4 -->
      <g transform="translate(272.401563 157.220485) scale(0.1 -0.1)">
       <use xlink:href="#DejaVuSans-34"/>
      </g>
     </g>
    </g>
    <g id="ytick_15">
     <g id="line2d_53">
      <path d="M 285.764063 136.710264 
L 505.19952 136.710264 
" clip-path="url(#p59ecad4ab8)" style="fill: none; stroke: #b0b0b0; stroke-width: 0.4; stroke-linecap: square"/>
     </g>
     <g id="line2d_54">
      <g>
       <use xlink:href="#md62919dfbe" x="285.764063" y="136.710264" style="stroke: #000000; stroke-width: 0.8"/>
      </g>
     </g>
     <g id="text_37">
      <!-- 6 -->
      <g transform="translate(272.401563 140.509483) scale(0.1 -0.1)">
       <use xlink:href="#DejaVuSans-36"/>
      </g>
     </g>
    </g>
    <g id="ytick_16">
     <g id="line2d_55">
      <path d="M 285.764063 119.999263 
L 505.19952 119.999263 
" clip-path="url(#p59ecad4ab8)" style="fill: none; stroke: #b0b0b0; stroke-width: 0.4; stroke-linecap: square"/>
     </g>
     <g id="line2d_56">
      <g>
       <use xlink:href="#md62919dfbe" x="285.764063" y="119.999263" style="stroke: #000000; stroke-width: 0.8"/>
      </g>
     </g>
     <g id="text_38">
      <!-- 8 -->
      <g transform="translate(272.401563 123.798481) scale(0.1 -0.1)">
       <use xlink:href="#DejaVuSans-38"/>
      </g>
     </g>
    </g>
    <g id="ytick_17">
     <g id="line2d_57">
      <path d="M 285.764063 103.288261 
L 505.19952 103.288261 
" clip-path="url(#p59ecad4ab8)" style="fill: none; stroke: #b0b0b0; stroke-width: 0.4; stroke-linecap: square"/>
     </g>
     <g id="line2d_58">
      <g>
       <use xlink:href="#md62919dfbe" x="285.764063" y="103.288261" style="stroke: #000000; stroke-width: 0.8"/>
      </g>
     </g>
     <g id="text_39">
      <!-- 10 -->
      <g transform="translate(266.039062 107.087479) scale(0.1 -0.1)">
       <use xlink:href="#DejaVuSans-31"/>
       <use xlink:href="#DejaVuSans-30" x="63.623047"/>
      </g>
     </g>
    </g>
    <g id="ytick_18">
     <g id="line2d_59">
      <path d="M 285.764063 86.577259 
L 505.19952 86.577259 
" clip-path="url(#p59ecad4ab8)" style="fill: none; stroke: #b0b0b0; stroke-width: 0.4; stroke-linecap: square"/>
     </g>
     <g id="line2d_60">
      <g>
       <use xlink:href="#md62919dfbe" x="285.764063" y="86.577259" style="stroke: #000000; stroke-width: 0.8"/>
      </g>
     </g>
     <g id="text_40">
      <!-- 12 -->
      <g transform="translate(266.039062 90.376478) scale(0.1 -0.1)">
       <use xlink:href="#DejaVuSans-31"/>
       <use xlink:href="#DejaVuSans-32" x="63.623047"/>
      </g>
     </g>
    </g>
    <g id="ytick_19">
     <g id="line2d_61">
      <path d="M 285.764063 69.866257 
L 505.19952 69.866257 
" clip-path="url(#p59ecad4ab8)" style="fill: none; stroke: #b0b0b0; stroke-width: 0.4; stroke-linecap: square"/>
     </g>
     <g id="line2d_62">
      <g>
       <use xlink:href="#md62919dfbe" x="285.764063" y="69.866257" style="stroke: #000000; stroke-width: 0.8"/>
      </g>
     </g>
     <g id="text_41">
      <!-- 14 -->
      <g transform="translate(266.039062 73.665476) scale(0.1 -0.1)">
       <use xlink:href="#DejaVuSans-31"/>
       <use xlink:href="#DejaVuSans-34" x="63.623047"/>
      </g>
     </g>
    </g>
    <g id="ytick_20">
     <g id="line2d_63">
      <path d="M 285.764063 53.155255 
L 505.19952 53.155255 
" clip-path="url(#p59ecad4ab8)" style="fill: none; stroke: #b0b0b0; stroke-width: 0.4; stroke-linecap: square"/>
     </g>
     <g id="line2d_64">
      <g>
       <use xlink:href="#md62919dfbe" x="285.764063" y="53.155255" style="stroke: #000000; stroke-width: 0.8"/>
      </g>
     </g>
     <g id="text_42">
      <!-- 16 -->
      <g transform="translate(266.039062 56.954474) scale(0.1 -0.1)">
       <use xlink:href="#DejaVuSans-31"/>
       <use xlink:href="#DejaVuSans-36" x="63.623047"/>
      </g>
     </g>
    </g>
    <g id="ytick_21">
     <g id="line2d_65">
      <path d="M 285.764063 36.444253 
L 505.19952 36.444253 
" clip-path="url(#p59ecad4ab8)" style="fill: none; stroke: #b0b0b0; stroke-width: 0.4; stroke-linecap: square"/>
     </g>
     <g id="line2d_66">
      <g>
       <use xlink:href="#md62919dfbe" x="285.764063" y="36.444253" style="stroke: #000000; stroke-width: 0.8"/>
      </g>
     </g>
     <g id="text_43">
      <!-- 18 -->
      <g transform="translate(266.039062 40.243472) scale(0.1 -0.1)">
       <use xlink:href="#DejaVuSans-31"/>
       <use xlink:href="#DejaVuSans-38" x="63.623047"/>
      </g>
     </g>
    </g>
    <g id="ytick_22">
     <g id="line2d_67">
      <path d="M 285.764063 19.733251 
L 505.19952 19.733251 
" clip-path="url(#p59ecad4ab8)" style="fill: none; stroke: #b0b0b0; stroke-width: 0.4; stroke-linecap: square"/>
     </g>
     <g id="line2d_68">
      <g>
       <use xlink:href="#md62919dfbe" x="285.764063" y="19.733251" style="stroke: #000000; stroke-width: 0.8"/>
      </g>
     </g>
     <g id="text_44">
      <!-- 20 -->
      <g transform="translate(266.039062 23.53247) scale(0.1 -0.1)">
       <use xlink:href="#DejaVuSans-32"/>
       <use xlink:href="#DejaVuSans-30" x="63.623047"/>
      </g>
     </g>
    </g>
   </g>
   <g id="line2d_69">
    <path d="M 293.891302 38.826577 
L 334.527498 111.263701 
L 375.163693 133.486687 
L 415.799889 144.424745 
L 456.436085 150.794723 
L 497.072281 154.718627 
" clip-path="url(#p59ecad4ab8)" style="fill: none; stroke: #ff0000; stroke-width: 1.5; stroke-linecap: square"/>
   </g>
   <g id="line2d_70">
    <path d="M 293.891302 10.450765 
L 334.527498 94.199347 
L 375.163693 123.304517 
L 415.799889 137.405514 
L 456.436085 144.99612 
L 497.072281 149.884556 
" clip-path="url(#p59ecad4ab8)" style="fill: none; stroke: #ff0000; stroke-opacity: 0.4; stroke-width: 2; stroke-linecap: square"/>
   </g>
   <g id="line2d_71">
    <path d="M 293.891302 120.177476 
L 334.527498 151.811947 
L 375.163693 161.29078 
L 415.799889 164.880618 
L 456.436085 166.711222 
L 497.072281 167.131524 
" clip-path="url(#p59ecad4ab8)" style="fill: none; stroke-dasharray: 5.55,2.4; stroke-dashoffset: 0; stroke: #ff0000; stroke-width: 1.5"/>
   </g>
   <g id="line2d_72">
    <path d="M 293.891302 114.318589 
L 334.527498 148.05912 
L 375.163693 159.446741 
L 415.799889 164.297731 
L 456.436085 166.008148 
L 497.072281 166.580572 
" clip-path="url(#p59ecad4ab8)" style="fill: none; stroke-dasharray: 7.4,3.2; stroke-dashoffset: 0; stroke: #ff0000; stroke-opacity: 0.4; stroke-width: 2"/>
   </g>
   <g id="line2d_73">
    <path d="M 293.891302 89.195752 
L 334.527498 133.486633 
L 375.163693 148.299323 
L 415.799889 154.990448 
L 456.436085 158.819048 
L 497.072281 160.134375 
" clip-path="url(#p59ecad4ab8)" style="fill: none; stroke: #0000ff; stroke-width: 1.5; stroke-linecap: square"/>
   </g>
   <g id="line2d_74">
    <path d="M 293.891302 82.307244 
L 334.527498 130.964612 
L 375.163693 146.595669 
L 415.799889 154.169771 
L 456.436085 157.834165 
L 497.072281 159.460532 
" clip-path="url(#p59ecad4ab8)" style="fill: none; stroke: #0000ff; stroke-opacity: 0.4; stroke-width: 2; stroke-linecap: square"/>
   </g>
   <g id="line2d_75">
    <path d="M 293.891302 114.551746 
L 334.527498 147.981802 
L 375.163693 158.235944 
L 415.799889 162.523052 
L 456.436085 163.745503 
L 497.072281 163.766772 
" clip-path="url(#p59ecad4ab8)" style="fill: none; stroke-dasharray: 5.55,2.4; stroke-dashoffset: 0; stroke: #0000ff; stroke-width: 1.5"/>
   </g>
   <g id="line2d_76">
    <path d="M 293.891302 113.475279 
L 334.527498 147.593365 
L 375.163693 157.974204 
L 415.799889 162.272378 
L 456.436085 163.611104 
L 497.072281 163.651481 
" clip-path="url(#p59ecad4ab8)" style="fill: none; stroke-dasharray: 7.4,3.2; stroke-dashoffset: 0; stroke: #0000ff; stroke-opacity: 0.4; stroke-width: 2"/>
   </g>
   <g id="line2d_77">
    <path d="M 293.891302 124.177013 
L 334.527498 155.510142 
L 375.163693 165.954518 
L 415.799889 171.176706 
L 456.436085 174.310019 
L 497.072281 176.398894 
L 513.39952 176.998387 
" clip-path="url(#p59ecad4ab8)" style="fill: none; stroke: #000000; stroke-width: 0.5; stroke-linecap: square"/>
   </g>
   <g id="patch_7">
    <path d="M 285.764063 186.84327 
L 505.19952 186.84327 
" style="fill: none; stroke: #000000; stroke-width: 0.8; stroke-linejoin: miter; stroke-linecap: square"/>
   </g>
   <g id="legend_2">
    <g id="patch_8">
     <path d="M 325.926083 44.55625 
L 498.19952 44.55625 
Q 500.19952 44.55625 500.19952 42.55625 
L 500.19952 14.2 
Q 500.19952 12.2 498.19952 12.2 
L 325.926083 12.2 
Q 323.926083 12.2 323.926083 14.2 
L 323.926083 42.55625 
Q 323.926083 44.55625 325.926083 44.55625 
z
" style="fill: #ffffff; opacity: 0.8; stroke: #cccccc; stroke-linejoin: miter"/>
    </g>
    <g id="line2d_78">
     <path d="M 327.926083 20.298438 
L 337.926083 20.298438 
L 347.926083 20.298438 
" style="fill: none; stroke: #000000; stroke-width: 0.5; stroke-linecap: square"/>
    </g>
    <g id="text_45">
     <!-- Single-core RAM throughput -->
     <g transform="translate(355.926083 23.798438) scale(0.1 -0.1)">
      <defs>
       <path id="DejaVuSans-2d" d="M 313 2009 
L 1997 2009 
L 1997 1497 
L 313 1497 
L 313 2009 
z
" transform="scale(0.015625)"/>
       <path id="DejaVuSans-52" d="M 2841 2188 
Q 3044 2119 3236 1894 
Q 3428 1669 3622 1275 
L 4263 0 
L 3584 0 
L 2988 1197 
Q 2756 1666 2539 1819 
Q 2322 1972 1947 1972 
L 1259 1972 
L 1259 0 
L 628 0 
L 628 4666 
L 2053 4666 
Q 2853 4666 3247 4331 
Q 3641 3997 3641 3322 
Q 3641 2881 3436 2590 
Q 3231 2300 2841 2188 
z
M 1259 4147 
L 1259 2491 
L 2053 2491 
Q 2509 2491 2742 2702 
Q 2975 2913 2975 3322 
Q 2975 3731 2742 3939 
Q 2509 4147 2053 4147 
L 1259 4147 
z
" transform="scale(0.015625)"/>
       <path id="DejaVuSans-41" d="M 2188 4044 
L 1331 1722 
L 3047 1722 
L 2188 4044 
z
M 1831 4666 
L 2547 4666 
L 4325 0 
L 3669 0 
L 3244 1197 
L 1141 1197 
L 716 0 
L 50 0 
L 1831 4666 
z
" transform="scale(0.015625)"/>
      </defs>
      <use xlink:href="#DejaVuSans-53"/>
      <use xlink:href="#DejaVuSans-69" x="63.476562"/>
      <use xlink:href="#DejaVuSans-6e" x="91.259766"/>
      <use xlink:href="#DejaVuSans-67" x="154.638672"/>
      <use xlink:href="#DejaVuSans-6c" x="218.115234"/>
      <use xlink:href="#DejaVuSans-65" x="245.898438"/>
      <use xlink:href="#DejaVuSans-2d" x="307.421875"/>
      <use xlink:href="#DejaVuSans-63" x="343.505859"/>
      <use xlink:href="#DejaVuSans-6f" x="398.486328"/>
      <use xlink:href="#DejaVuSans-72" x="459.667969"/>
      <use xlink:href="#DejaVuSans-65" x="498.53125"/>
      <use xlink:href="#DejaVuSans-20" x="560.054688"/>
      <use xlink:href="#DejaVuSans-52" x="591.841797"/>
      <use xlink:href="#DejaVuSans-41" x="657.324219"/>
      <use xlink:href="#DejaVuSans-4d" x="725.732422"/>
      <use xlink:href="#DejaVuSans-20" x="812.011719"/>
      <use xlink:href="#DejaVuSans-74" x="843.798828"/>
      <use xlink:href="#DejaVuSans-68" x="883.007812"/>
      <use xlink:href="#DejaVuSans-72" x="946.386719"/>
      <use xlink:href="#DejaVuSans-6f" x="985.25"/>
      <use xlink:href="#DejaVuSans-75" x="1046.431641"/>
      <use xlink:href="#DejaVuSans-67" x="1109.810547"/>
      <use xlink:href="#DejaVuSans-68" x="1173.287109"/>
      <use xlink:href="#DejaVuSans-70" x="1236.666016"/>
      <use xlink:href="#DejaVuSans-75" x="1300.142578"/>
      <use xlink:href="#DejaVuSans-74" x="1363.521484"/>
     </g>
    </g>
    <g id="line2d_79">
     <path d="M 327.926083 34.976563 
L 337.926083 34.976563 
L 347.926083 34.976563 
" style="fill: none; stroke-dasharray: 1,1.65; stroke-dashoffset: 0; stroke: #000000"/>
    </g>
    <g id="text_46">
     <!-- Total RAM throughput -->
     <g transform="translate(355.926083 38.476563) scale(0.1 -0.1)">
      <defs>
       <path id="DejaVuSans-54" d="M -19 4666 
L 3928 4666 
L 3928 4134 
L 2272 4134 
L 2272 0 
L 1638 0 
L 1638 4134 
L -19 4134 
L -19 4666 
z
" transform="scale(0.015625)"/>
      </defs>
      <use xlink:href="#DejaVuSans-54"/>
      <use xlink:href="#DejaVuSans-6f" x="44.083984"/>
      <use xlink:href="#DejaVuSans-74" x="105.265625"/>
      <use xlink:href="#DejaVuSans-61" x="144.474609"/>
      <use xlink:href="#DejaVuSans-6c" x="205.753906"/>
      <use xlink:href="#DejaVuSans-20" x="233.537109"/>
      <use xlink:href="#DejaVuSans-52" x="265.324219"/>
      <use xlink:href="#DejaVuSans-41" x="330.806641"/>
      <use xlink:href="#DejaVuSans-4d" x="399.214844"/>
      <use xlink:href="#DejaVuSans-20" x="485.494141"/>
      <use xlink:href="#DejaVuSans-74" x="517.28125"/>
      <use xlink:href="#DejaVuSans-68" x="556.490234"/>
      <use xlink:href="#DejaVuSans-72" x="619.869141"/>
      <use xlink:href="#DejaVuSans-6f" x="658.732422"/>
      <use xlink:href="#DejaVuSans-75" x="719.914062"/>
      <use xlink:href="#DejaVuSans-67" x="783.292969"/>
      <use xlink:href="#DejaVuSans-68" x="846.769531"/>
      <use xlink:href="#DejaVuSans-70" x="910.148438"/>
      <use xlink:href="#DejaVuSans-75" x="973.625"/>
      <use xlink:href="#DejaVuSans-74" x="1037.003906"/>
     </g>
    </g>
   </g>
  </g>
 </g>
 <defs>
  <clipPath id="p068b1d71eb">
   <rect x="40.603125" y="7.2" width="219.435458" height="179.64327"/>
  </clipPath>
  <clipPath id="p59ecad4ab8">
   <rect x="285.764063" y="7.2" width="219.435458" height="179.64327"/>
  </clipPath>
 </defs>
</svg>
