<?xml version="1.0" encoding="utf-8" standalone="no"?>
<!DOCTYPE svg PUBLIC "-//W3C//DTD SVG 1.1//EN"
  "http://www.w3.org/Graphics/SVG/1.1/DTD/svg11.dtd">
<svg xmlns:xlink="http://www.w3.org/1999/xlink" width="627.59952pt" height="368.39952pt" viewBox="0 0 627.59952 368.39952" xmlns="http://www.w3.org/2000/svg" version="1.1">
 <metadata>
  <rdf:RDF xmlns:dc="http://purl.org/dc/elements/1.1/" xmlns:cc="http://creativecommons.org/ns#" xmlns:rdf="http://www.w3.org/1999/02/22-rdf-syntax-ns#">
   <cc:Work>
    <dc:type rdf:resource="http://purl.org/dc/dcmitype/StillImage"/>
    <dc:date>2025-02-21T01:20:34.823763</dc:date>
    <dc:format>image/svg+xml</dc:format>
    <dc:creator>
     <cc:Agent>
      <dc:title>Matplotlib v3.10.0, https://matplotlib.org/</dc:title>
     </cc:Agent>
    </dc:creator>
   </cc:Work>
  </rdf:RDF>
 </metadata>
 <defs>
  <style type="text/css">*{stroke-linejoin: round; stroke-linecap: butt}</style>
 </defs>
 <g id="figure_1">
  <g id="patch_1">
   <path d="M 0 368.39952 
L 627.59952 368.39952 
L 627.59952 0 
L 0 0 
z
" style="fill: #ffffff"/>
  </g>
  <g id="axes_1">
   <g id="patch_2">
    <path d="M 46.965625 330.84327 
L 583.81827 330.84327 
L 583.81827 10.999219 
L 46.965625 10.999219 
z
" style="fill: #ffffff"/>
   </g>
   <g id="matplotlib.axis_1">
    <g id="xtick_1">
     <g id="line2d_1">
      <path d="M 82.755801 330.84327 
L 82.755801 10.999219 
" clip-path="url(#pad265c127f)" style="fill: none; stroke: #b0b0b0; stroke-width: 0.5; stroke-linecap: square"/>
     </g>
     <g id="line2d_2">
      <defs>
       <path id="m1e220bb45b" d="M 0 0 
L 0 3.5 
" style="stroke: #000000; stroke-width: 0.8"/>
      </defs>
      <g>
       <use xlink:href="#m1e220bb45b" x="82.755801" y="330.84327" style="stroke: #000000; stroke-width: 0.8"/>
      </g>
     </g>
     <g id="text_1">
      <!-- 2.8 -->
      <g transform="translate(74.804239 345.441707) scale(0.1 -0.1)">
       <defs>
        <path id="DejaVuSans-32" d="M 1228 531 
L 3431 531 
L 3431 0 
L 469 0 
L 469 531 
Q 828 903 1448 1529 
Q 2069 2156 2228 2338 
Q 2531 2678 2651 2914 
Q 2772 3150 2772 3378 
Q 2772 3750 2511 3984 
Q 2250 4219 1831 4219 
Q 1534 4219 1204 4116 
Q 875 4013 500 3803 
L 500 4441 
Q 881 4594 1212 4672 
Q 1544 4750 1819 4750 
Q 2544 4750 2975 4387 
Q 3406 4025 3406 3419 
Q 3406 3131 3298 2873 
Q 3191 2616 2906 2266 
Q 2828 2175 2409 1742 
Q 1991 1309 1228 531 
z
" transform="scale(0.015625)"/>
        <path id="DejaVuSans-2e" d="M 684 794 
L 1344 794 
L 1344 0 
L 684 0 
L 684 794 
z
" transform="scale(0.015625)"/>
        <path id="DejaVuSans-38" d="M 2034 2216 
Q 1584 2216 1326 1975 
Q 1069 1734 1069 1313 
Q 1069 891 1326 650 
Q 1584 409 2034 409 
Q 2484 409 2743 651 
Q 3003 894 3003 1313 
Q 3003 1734 2745 1975 
Q 2488 2216 2034 2216 
z
M 1403 2484 
Q 997 2584 770 2862 
Q 544 3141 544 3541 
Q 544 4100 942 4425 
Q 1341 4750 2034 4750 
Q 2731 4750 3128 4425 
Q 3525 4100 3525 3541 
Q 3525 3141 3298 2862 
Q 3072 2584 2669 2484 
Q 3125 2378 3379 2068 
Q 3634 1759 3634 1313 
Q 3634 634 3220 271 
Q 2806 -91 2034 -91 
Q 1263 -91 848 271 
Q 434 634 434 1313 
Q 434 1759 690 2068 
Q 947 2378 1403 2484 
z
M 1172 3481 
Q 1172 3119 1398 2916 
Q 1625 2713 2034 2713 
Q 2441 2713 2670 2916 
Q 2900 3119 2900 3481 
Q 2900 3844 2670 4047 
Q 2441 4250 2034 4250 
Q 1625 4250 1398 4047 
Q 1172 3844 1172 3481 
z
" transform="scale(0.015625)"/>
       </defs>
       <use xlink:href="#DejaVuSans-32"/>
       <use xlink:href="#DejaVuSans-2e" transform="translate(63.623047 0)"/>
       <use xlink:href="#DejaVuSans-38" transform="translate(95.410156 0)"/>
      </g>
     </g>
    </g>
    <g id="xtick_2">
     <g id="line2d_3">
      <path d="M 154.336154 330.84327 
L 154.336154 10.999219 
" clip-path="url(#pad265c127f)" style="fill: none; stroke: #b0b0b0; stroke-width: 0.5; stroke-linecap: square"/>
     </g>
     <g id="line2d_4">
      <g>
       <use xlink:href="#m1e220bb45b" x="154.336154" y="330.84327" style="stroke: #000000; stroke-width: 0.8"/>
      </g>
     </g>
     <g id="text_2">
      <!-- 3.0 -->
      <g transform="translate(146.384591 345.441707) scale(0.1 -0.1)">
       <defs>
        <path id="DejaVuSans-33" d="M 2597 2516 
Q 3050 2419 3304 2112 
Q 3559 1806 3559 1356 
Q 3559 666 3084 287 
Q 2609 -91 1734 -91 
Q 1441 -91 1130 -33 
Q 819 25 488 141 
L 488 750 
Q 750 597 1062 519 
Q 1375 441 1716 441 
Q 2309 441 2620 675 
Q 2931 909 2931 1356 
Q 2931 1769 2642 2001 
Q 2353 2234 1838 2234 
L 1294 2234 
L 1294 2753 
L 1863 2753 
Q 2328 2753 2575 2939 
Q 2822 3125 2822 3475 
Q 2822 3834 2567 4026 
Q 2313 4219 1838 4219 
Q 1578 4219 1281 4162 
Q 984 4106 628 3988 
L 628 4550 
Q 988 4650 1302 4700 
Q 1616 4750 1894 4750 
Q 2613 4750 3031 4423 
Q 3450 4097 3450 3541 
Q 3450 3153 3228 2886 
Q 3006 2619 2597 2516 
z
" transform="scale(0.015625)"/>
        <path id="DejaVuSans-30" d="M 2034 4250 
Q 1547 4250 1301 3770 
Q 1056 3291 1056 2328 
Q 1056 1369 1301 889 
Q 1547 409 2034 409 
Q 2525 409 2770 889 
Q 3016 1369 3016 2328 
Q 3016 3291 2770 3770 
Q 2525 4250 2034 4250 
z
M 2034 4750 
Q 2819 4750 3233 4129 
Q 3647 3509 3647 2328 
Q 3647 1150 3233 529 
Q 2819 -91 2034 -91 
Q 1250 -91 836 529 
Q 422 1150 422 2328 
Q 422 3509 836 4129 
Q 1250 4750 2034 4750 
z
" transform="scale(0.015625)"/>
       </defs>
       <use xlink:href="#DejaVuSans-33"/>
       <use xlink:href="#DejaVuSans-2e" transform="translate(63.623047 0)"/>
       <use xlink:href="#DejaVuSans-30" transform="translate(95.410156 0)"/>
      </g>
     </g>
    </g>
    <g id="xtick_3">
     <g id="line2d_5">
      <path d="M 225.916507 330.84327 
L 225.916507 10.999219 
" clip-path="url(#pad265c127f)" style="fill: none; stroke: #b0b0b0; stroke-width: 0.5; stroke-linecap: square"/>
     </g>
     <g id="line2d_6">
      <g>
       <use xlink:href="#m1e220bb45b" x="225.916507" y="330.84327" style="stroke: #000000; stroke-width: 0.8"/>
      </g>
     </g>
     <g id="text_3">
      <!-- 3.2 -->
      <g transform="translate(217.964944 345.441707) scale(0.1 -0.1)">
       <use xlink:href="#DejaVuSans-33"/>
       <use xlink:href="#DejaVuSans-2e" transform="translate(63.623047 0)"/>
       <use xlink:href="#DejaVuSans-32" transform="translate(95.410156 0)"/>
      </g>
     </g>
    </g>
    <g id="xtick_4">
     <g id="line2d_7">
      <path d="M 297.496859 330.84327 
L 297.496859 10.999219 
" clip-path="url(#pad265c127f)" style="fill: none; stroke: #b0b0b0; stroke-width: 0.5; stroke-linecap: square"/>
     </g>
     <g id="line2d_8">
      <g>
       <use xlink:href="#m1e220bb45b" x="297.496859" y="330.84327" style="stroke: #000000; stroke-width: 0.8"/>
      </g>
     </g>
     <g id="text_4">
      <!-- 3.4 -->
      <g transform="translate(289.545297 345.441707) scale(0.1 -0.1)">
       <defs>
        <path id="DejaVuSans-34" d="M 2419 4116 
L 825 1625 
L 2419 1625 
L 2419 4116 
z
M 2253 4666 
L 3047 4666 
L 3047 1625 
L 3713 1625 
L 3713 1100 
L 3047 1100 
L 3047 0 
L 2419 0 
L 2419 1100 
L 313 1100 
L 313 1709 
L 2253 4666 
z
" transform="scale(0.015625)"/>
       </defs>
       <use xlink:href="#DejaVuSans-33"/>
       <use xlink:href="#DejaVuSans-2e" transform="translate(63.623047 0)"/>
       <use xlink:href="#DejaVuSans-34" transform="translate(95.410156 0)"/>
      </g>
     </g>
    </g>
    <g id="xtick_5">
     <g id="line2d_9">
      <path d="M 369.077212 330.84327 
L 369.077212 10.999219 
" clip-path="url(#pad265c127f)" style="fill: none; stroke: #b0b0b0; stroke-width: 0.5; stroke-linecap: square"/>
     </g>
     <g id="line2d_10">
      <g>
       <use xlink:href="#m1e220bb45b" x="369.077212" y="330.84327" style="stroke: #000000; stroke-width: 0.8"/>
      </g>
     </g>
     <g id="text_5">
      <!-- 3.6 -->
      <g transform="translate(361.125649 345.441707) scale(0.1 -0.1)">
       <defs>
        <path id="DejaVuSans-36" d="M 2113 2584 
Q 1688 2584 1439 2293 
Q 1191 2003 1191 1497 
Q 1191 994 1439 701 
Q 1688 409 2113 409 
Q 2538 409 2786 701 
Q 3034 994 3034 1497 
Q 3034 2003 2786 2293 
Q 2538 2584 2113 2584 
z
M 3366 4563 
L 3366 3988 
Q 3128 4100 2886 4159 
Q 2644 4219 2406 4219 
Q 1781 4219 1451 3797 
Q 1122 3375 1075 2522 
Q 1259 2794 1537 2939 
Q 1816 3084 2150 3084 
Q 2853 3084 3261 2657 
Q 3669 2231 3669 1497 
Q 3669 778 3244 343 
Q 2819 -91 2113 -91 
Q 1303 -91 875 529 
Q 447 1150 447 2328 
Q 447 3434 972 4092 
Q 1497 4750 2381 4750 
Q 2619 4750 2861 4703 
Q 3103 4656 3366 4563 
z
" transform="scale(0.015625)"/>
       </defs>
       <use xlink:href="#DejaVuSans-33"/>
       <use xlink:href="#DejaVuSans-2e" transform="translate(63.623047 0)"/>
       <use xlink:href="#DejaVuSans-36" transform="translate(95.410156 0)"/>
      </g>
     </g>
    </g>
    <g id="xtick_6">
     <g id="line2d_11">
      <path d="M 440.657565 330.84327 
L 440.657565 10.999219 
" clip-path="url(#pad265c127f)" style="fill: none; stroke: #b0b0b0; stroke-width: 0.5; stroke-linecap: square"/>
     </g>
     <g id="line2d_12">
      <g>
       <use xlink:href="#m1e220bb45b" x="440.657565" y="330.84327" style="stroke: #000000; stroke-width: 0.8"/>
      </g>
     </g>
     <g id="text_6">
      <!-- 3.8 -->
      <g transform="translate(432.706002 345.441707) scale(0.1 -0.1)">
       <use xlink:href="#DejaVuSans-33"/>
       <use xlink:href="#DejaVuSans-2e" transform="translate(63.623047 0)"/>
       <use xlink:href="#DejaVuSans-38" transform="translate(95.410156 0)"/>
      </g>
     </g>
    </g>
    <g id="xtick_7">
     <g id="line2d_13">
      <path d="M 512.237917 330.84327 
L 512.237917 10.999219 
" clip-path="url(#pad265c127f)" style="fill: none; stroke: #b0b0b0; stroke-width: 0.5; stroke-linecap: square"/>
     </g>
     <g id="line2d_14">
      <g>
       <use xlink:href="#m1e220bb45b" x="512.237917" y="330.84327" style="stroke: #000000; stroke-width: 0.8"/>
      </g>
     </g>
     <g id="text_7">
      <!-- 4.0 -->
      <g transform="translate(504.286355 345.441707) scale(0.1 -0.1)">
       <use xlink:href="#DejaVuSans-34"/>
       <use xlink:href="#DejaVuSans-2e" transform="translate(63.623047 0)"/>
       <use xlink:href="#DejaVuSans-30" transform="translate(95.410156 0)"/>
      </g>
     </g>
    </g>
    <g id="xtick_8">
     <g id="line2d_15">
      <path d="M 583.81827 330.84327 
L 583.81827 10.999219 
" clip-path="url(#pad265c127f)" style="fill: none; stroke: #b0b0b0; stroke-width: 0.5; stroke-linecap: square"/>
     </g>
     <g id="line2d_16">
      <g>
       <use xlink:href="#m1e220bb45b" x="583.81827" y="330.84327" style="stroke: #000000; stroke-width: 0.8"/>
      </g>
     </g>
     <g id="text_8">
      <!-- 4.2 -->
      <g transform="translate(575.866707 345.441707) scale(0.1 -0.1)">
       <use xlink:href="#DejaVuSans-34"/>
       <use xlink:href="#DejaVuSans-2e" transform="translate(63.623047 0)"/>
       <use xlink:href="#DejaVuSans-32" transform="translate(95.410156 0)"/>
      </g>
     </g>
    </g>
    <g id="xtick_9">
     <g id="line2d_17">
      <defs>
       <path id="me8e1e28add" d="M 0 0 
L 0 2 
" style="stroke: #000000; stroke-width: 0.6"/>
      </defs>
      <g>
       <use xlink:href="#me8e1e28add" x="46.965625" y="330.84327" style="stroke: #000000; stroke-width: 0.6"/>
      </g>
     </g>
    </g>
    <g id="xtick_10">
     <g id="line2d_18">
      <g>
       <use xlink:href="#me8e1e28add" x="118.545978" y="330.84327" style="stroke: #000000; stroke-width: 0.6"/>
      </g>
     </g>
    </g>
    <g id="xtick_11">
     <g id="line2d_19">
      <g>
       <use xlink:href="#me8e1e28add" x="190.12633" y="330.84327" style="stroke: #000000; stroke-width: 0.6"/>
      </g>
     </g>
    </g>
    <g id="xtick_12">
     <g id="line2d_20">
      <g>
       <use xlink:href="#me8e1e28add" x="261.706683" y="330.84327" style="stroke: #000000; stroke-width: 0.6"/>
      </g>
     </g>
    </g>
    <g id="xtick_13">
     <g id="line2d_21">
      <g>
       <use xlink:href="#me8e1e28add" x="333.287036" y="330.84327" style="stroke: #000000; stroke-width: 0.6"/>
      </g>
     </g>
    </g>
    <g id="xtick_14">
     <g id="line2d_22">
      <g>
       <use xlink:href="#me8e1e28add" x="404.867388" y="330.84327" style="stroke: #000000; stroke-width: 0.6"/>
      </g>
     </g>
    </g>
    <g id="xtick_15">
     <g id="line2d_23">
      <g>
       <use xlink:href="#me8e1e28add" x="476.447741" y="330.84327" style="stroke: #000000; stroke-width: 0.6"/>
      </g>
     </g>
    </g>
    <g id="xtick_16">
     <g id="line2d_24">
      <g>
       <use xlink:href="#me8e1e28add" x="548.028094" y="330.84327" style="stroke: #000000; stroke-width: 0.6"/>
      </g>
     </g>
    </g>
    <g id="text_9">
     <!-- $\lambda$ -->
     <g transform="translate(312.391947 359.119832) scale(0.1 -0.1)">
      <defs>
       <path id="DejaVuSans-Oblique-3bb" d="M 2350 4316 
L 3125 0 
L 2516 0 
L 2038 2588 
L 328 0 
L -281 0 
L 1903 3356 
L 1794 3975 
Q 1725 4369 1391 4369 
L 1091 4369 
L 1184 4863 
L 1550 4856 
Q 2253 4847 2350 4316 
z
" transform="scale(0.015625)"/>
      </defs>
      <use xlink:href="#DejaVuSans-Oblique-3bb" transform="translate(0 0.015625)"/>
     </g>
    </g>
   </g>
   <g id="matplotlib.axis_2">
    <g id="ytick_1">
     <g id="line2d_25">
      <path d="M 46.965625 330.84327 
L 583.81827 330.84327 
" clip-path="url(#pad265c127f)" style="fill: none; stroke: #b0b0b0; stroke-width: 0.5; stroke-linecap: square"/>
     </g>
     <g id="line2d_26">
      <defs>
       <path id="m512ad17960" d="M 0 0 
L -3.5 0 
" style="stroke: #000000; stroke-width: 0.8"/>
      </defs>
      <g>
       <use xlink:href="#m512ad17960" x="46.965625" y="330.84327" style="stroke: #000000; stroke-width: 0.8"/>
      </g>
     </g>
     <g id="text_10">
      <!-- 0 -->
      <g transform="translate(33.603125 334.642489) scale(0.1 -0.1)">
       <use xlink:href="#DejaVuSans-30"/>
      </g>
     </g>
    </g>
    <g id="ytick_2">
     <g id="line2d_27">
      <path d="M 46.965625 285.151263 
L 583.81827 285.151263 
" clip-path="url(#pad265c127f)" style="fill: none; stroke: #b0b0b0; stroke-width: 0.5; stroke-linecap: square"/>
     </g>
     <g id="line2d_28">
      <g>
       <use xlink:href="#m512ad17960" x="46.965625" y="285.151263" style="stroke: #000000; stroke-width: 0.8"/>
      </g>
     </g>
     <g id="text_11">
      <!-- 20 -->
      <g transform="translate(27.240625 288.950481) scale(0.1 -0.1)">
       <use xlink:href="#DejaVuSans-32"/>
       <use xlink:href="#DejaVuSans-30" transform="translate(63.623047 0)"/>
      </g>
     </g>
    </g>
    <g id="ytick_3">
     <g id="line2d_29">
      <path d="M 46.965625 239.459255 
L 583.81827 239.459255 
" clip-path="url(#pad265c127f)" style="fill: none; stroke: #b0b0b0; stroke-width: 0.5; stroke-linecap: square"/>
     </g>
     <g id="line2d_30">
      <g>
       <use xlink:href="#m512ad17960" x="46.965625" y="239.459255" style="stroke: #000000; stroke-width: 0.8"/>
      </g>
     </g>
     <g id="text_12">
      <!-- 40 -->
      <g transform="translate(27.240625 243.258474) scale(0.1 -0.1)">
       <use xlink:href="#DejaVuSans-34"/>
       <use xlink:href="#DejaVuSans-30" transform="translate(63.623047 0)"/>
      </g>
     </g>
    </g>
    <g id="ytick_4">
     <g id="line2d_31">
      <path d="M 46.965625 193.767248 
L 583.81827 193.767248 
" clip-path="url(#pad265c127f)" style="fill: none; stroke: #b0b0b0; stroke-width: 0.5; stroke-linecap: square"/>
     </g>
     <g id="line2d_32">
      <g>
       <use xlink:href="#m512ad17960" x="46.965625" y="193.767248" style="stroke: #000000; stroke-width: 0.8"/>
      </g>
     </g>
     <g id="text_13">
      <!-- 60 -->
      <g transform="translate(27.240625 197.566467) scale(0.1 -0.1)">
       <use xlink:href="#DejaVuSans-36"/>
       <use xlink:href="#DejaVuSans-30" transform="translate(63.623047 0)"/>
      </g>
     </g>
    </g>
    <g id="ytick_5">
     <g id="line2d_33">
      <path d="M 46.965625 148.075241 
L 583.81827 148.075241 
" clip-path="url(#pad265c127f)" style="fill: none; stroke: #b0b0b0; stroke-width: 0.5; stroke-linecap: square"/>
     </g>
     <g id="line2d_34">
      <g>
       <use xlink:href="#m512ad17960" x="46.965625" y="148.075241" style="stroke: #000000; stroke-width: 0.8"/>
      </g>
     </g>
     <g id="text_14">
      <!-- 80 -->
      <g transform="translate(27.240625 151.874459) scale(0.1 -0.1)">
       <use xlink:href="#DejaVuSans-38"/>
       <use xlink:href="#DejaVuSans-30" transform="translate(63.623047 0)"/>
      </g>
     </g>
    </g>
    <g id="ytick_6">
     <g id="line2d_35">
      <path d="M 46.965625 102.383233 
L 583.81827 102.383233 
" clip-path="url(#pad265c127f)" style="fill: none; stroke: #b0b0b0; stroke-width: 0.5; stroke-linecap: square"/>
     </g>
     <g id="line2d_36">
      <g>
       <use xlink:href="#m512ad17960" x="46.965625" y="102.383233" style="stroke: #000000; stroke-width: 0.8"/>
      </g>
     </g>
     <g id="text_15">
      <!-- 100 -->
      <g transform="translate(20.878125 106.182452) scale(0.1 -0.1)">
       <defs>
        <path id="DejaVuSans-31" d="M 794 531 
L 1825 531 
L 1825 4091 
L 703 3866 
L 703 4441 
L 1819 4666 
L 2450 4666 
L 2450 531 
L 3481 531 
L 3481 0 
L 794 0 
L 794 531 
z
" transform="scale(0.015625)"/>
       </defs>
       <use xlink:href="#DejaVuSans-31"/>
       <use xlink:href="#DejaVuSans-30" transform="translate(63.623047 0)"/>
       <use xlink:href="#DejaVuSans-30" transform="translate(127.246094 0)"/>
      </g>
     </g>
    </g>
    <g id="ytick_7">
     <g id="line2d_37">
      <path d="M 46.965625 56.691226 
L 583.81827 56.691226 
" clip-path="url(#pad265c127f)" style="fill: none; stroke: #b0b0b0; stroke-width: 0.5; stroke-linecap: square"/>
     </g>
     <g id="line2d_38">
      <g>
       <use xlink:href="#m512ad17960" x="46.965625" y="56.691226" style="stroke: #000000; stroke-width: 0.8"/>
      </g>
     </g>
     <g id="text_16">
      <!-- 120 -->
      <g transform="translate(20.878125 60.490445) scale(0.1 -0.1)">
       <use xlink:href="#DejaVuSans-31"/>
       <use xlink:href="#DejaVuSans-32" transform="translate(63.623047 0)"/>
       <use xlink:href="#DejaVuSans-30" transform="translate(127.246094 0)"/>
      </g>
     </g>
    </g>
    <g id="ytick_8">
     <g id="line2d_39">
      <path d="M 46.965625 10.999219 
L 583.81827 10.999219 
" clip-path="url(#pad265c127f)" style="fill: none; stroke: #b0b0b0; stroke-width: 0.5; stroke-linecap: square"/>
     </g>
     <g id="line2d_40">
      <g>
       <use xlink:href="#m512ad17960" x="46.965625" y="10.999219" style="stroke: #000000; stroke-width: 0.8"/>
      </g>
     </g>
     <g id="text_17">
      <!-- 140 -->
      <g transform="translate(20.878125 14.798437) scale(0.1 -0.1)">
       <use xlink:href="#DejaVuSans-31"/>
       <use xlink:href="#DejaVuSans-34" transform="translate(63.623047 0)"/>
       <use xlink:href="#DejaVuSans-30" transform="translate(127.246094 0)"/>
      </g>
     </g>
    </g>
    <g id="text_18">
     <!-- Construction time (ns/key) -->
     <g transform="translate(14.798438 237.339994) rotate(-90) scale(0.1 -0.1)">
      <defs>
       <path id="DejaVuSans-43" d="M 4122 4306 
L 4122 3641 
Q 3803 3938 3442 4084 
Q 3081 4231 2675 4231 
Q 1875 4231 1450 3742 
Q 1025 3253 1025 2328 
Q 1025 1406 1450 917 
Q 1875 428 2675 428 
Q 3081 428 3442 575 
Q 3803 722 4122 1019 
L 4122 359 
Q 3791 134 3420 21 
Q 3050 -91 2638 -91 
Q 1578 -91 968 557 
Q 359 1206 359 2328 
Q 359 3453 968 4101 
Q 1578 4750 2638 4750 
Q 3056 4750 3426 4639 
Q 3797 4528 4122 4306 
z
" transform="scale(0.015625)"/>
       <path id="DejaVuSans-6f" d="M 1959 3097 
Q 1497 3097 1228 2736 
Q 959 2375 959 1747 
Q 959 1119 1226 758 
Q 1494 397 1959 397 
Q 2419 397 2687 759 
Q 2956 1122 2956 1747 
Q 2956 2369 2687 2733 
Q 2419 3097 1959 3097 
z
M 1959 3584 
Q 2709 3584 3137 3096 
Q 3566 2609 3566 1747 
Q 3566 888 3137 398 
Q 2709 -91 1959 -91 
Q 1206 -91 779 398 
Q 353 888 353 1747 
Q 353 2609 779 3096 
Q 1206 3584 1959 3584 
z
" transform="scale(0.015625)"/>
       <path id="DejaVuSans-6e" d="M 3513 2113 
L 3513 0 
L 2938 0 
L 2938 2094 
Q 2938 2591 2744 2837 
Q 2550 3084 2163 3084 
Q 1697 3084 1428 2787 
Q 1159 2491 1159 1978 
L 1159 0 
L 581 0 
L 581 3500 
L 1159 3500 
L 1159 2956 
Q 1366 3272 1645 3428 
Q 1925 3584 2291 3584 
Q 2894 3584 3203 3211 
Q 3513 2838 3513 2113 
z
" transform="scale(0.015625)"/>
       <path id="DejaVuSans-73" d="M 2834 3397 
L 2834 2853 
Q 2591 2978 2328 3040 
Q 2066 3103 1784 3103 
Q 1356 3103 1142 2972 
Q 928 2841 928 2578 
Q 928 2378 1081 2264 
Q 1234 2150 1697 2047 
L 1894 2003 
Q 2506 1872 2764 1633 
Q 3022 1394 3022 966 
Q 3022 478 2636 193 
Q 2250 -91 1575 -91 
Q 1294 -91 989 -36 
Q 684 19 347 128 
L 347 722 
Q 666 556 975 473 
Q 1284 391 1588 391 
Q 1994 391 2212 530 
Q 2431 669 2431 922 
Q 2431 1156 2273 1281 
Q 2116 1406 1581 1522 
L 1381 1569 
Q 847 1681 609 1914 
Q 372 2147 372 2553 
Q 372 3047 722 3315 
Q 1072 3584 1716 3584 
Q 2034 3584 2315 3537 
Q 2597 3491 2834 3397 
z
" transform="scale(0.015625)"/>
       <path id="DejaVuSans-74" d="M 1172 4494 
L 1172 3500 
L 2356 3500 
L 2356 3053 
L 1172 3053 
L 1172 1153 
Q 1172 725 1289 603 
Q 1406 481 1766 481 
L 2356 481 
L 2356 0 
L 1766 0 
Q 1100 0 847 248 
Q 594 497 594 1153 
L 594 3053 
L 172 3053 
L 172 3500 
L 594 3500 
L 594 4494 
L 1172 4494 
z
" transform="scale(0.015625)"/>
       <path id="DejaVuSans-72" d="M 2631 2963 
Q 2534 3019 2420 3045 
Q 2306 3072 2169 3072 
Q 1681 3072 1420 2755 
Q 1159 2438 1159 1844 
L 1159 0 
L 581 0 
L 581 3500 
L 1159 3500 
L 1159 2956 
Q 1341 3275 1631 3429 
Q 1922 3584 2338 3584 
Q 2397 3584 2469 3576 
Q 2541 3569 2628 3553 
L 2631 2963 
z
" transform="scale(0.015625)"/>
       <path id="DejaVuSans-75" d="M 544 1381 
L 544 3500 
L 1119 3500 
L 1119 1403 
Q 1119 906 1312 657 
Q 1506 409 1894 409 
Q 2359 409 2629 706 
Q 2900 1003 2900 1516 
L 2900 3500 
L 3475 3500 
L 3475 0 
L 2900 0 
L 2900 538 
Q 2691 219 2414 64 
Q 2138 -91 1772 -91 
Q 1169 -91 856 284 
Q 544 659 544 1381 
z
M 1991 3584 
L 1991 3584 
z
" transform="scale(0.015625)"/>
       <path id="DejaVuSans-63" d="M 3122 3366 
L 3122 2828 
Q 2878 2963 2633 3030 
Q 2388 3097 2138 3097 
Q 1578 3097 1268 2742 
Q 959 2388 959 1747 
Q 959 1106 1268 751 
Q 1578 397 2138 397 
Q 2388 397 2633 464 
Q 2878 531 3122 666 
L 3122 134 
Q 2881 22 2623 -34 
Q 2366 -91 2075 -91 
Q 1284 -91 818 406 
Q 353 903 353 1747 
Q 353 2603 823 3093 
Q 1294 3584 2113 3584 
Q 2378 3584 2631 3529 
Q 2884 3475 3122 3366 
z
" transform="scale(0.015625)"/>
       <path id="DejaVuSans-69" d="M 603 3500 
L 1178 3500 
L 1178 0 
L 603 0 
L 603 3500 
z
M 603 4863 
L 1178 4863 
L 1178 4134 
L 603 4134 
L 603 4863 
z
" transform="scale(0.015625)"/>
       <path id="DejaVuSans-20" transform="scale(0.015625)"/>
       <path id="DejaVuSans-6d" d="M 3328 2828 
Q 3544 3216 3844 3400 
Q 4144 3584 4550 3584 
Q 5097 3584 5394 3201 
Q 5691 2819 5691 2113 
L 5691 0 
L 5113 0 
L 5113 2094 
Q 5113 2597 4934 2840 
Q 4756 3084 4391 3084 
Q 3944 3084 3684 2787 
Q 3425 2491 3425 1978 
L 3425 0 
L 2847 0 
L 2847 2094 
Q 2847 2600 2669 2842 
Q 2491 3084 2119 3084 
Q 1678 3084 1418 2786 
Q 1159 2488 1159 1978 
L 1159 0 
L 581 0 
L 581 3500 
L 1159 3500 
L 1159 2956 
Q 1356 3278 1631 3431 
Q 1906 3584 2284 3584 
Q 2666 3584 2933 3390 
Q 3200 3197 3328 2828 
z
" transform="scale(0.015625)"/>
       <path id="DejaVuSans-65" d="M 3597 1894 
L 3597 1613 
L 953 1613 
Q 991 1019 1311 708 
Q 1631 397 2203 397 
Q 2534 397 2845 478 
Q 3156 559 3463 722 
L 3463 178 
Q 3153 47 2828 -22 
Q 2503 -91 2169 -91 
Q 1331 -91 842 396 
Q 353 884 353 1716 
Q 353 2575 817 3079 
Q 1281 3584 2069 3584 
Q 2775 3584 3186 3129 
Q 3597 2675 3597 1894 
z
M 3022 2063 
Q 3016 2534 2758 2815 
Q 2500 3097 2075 3097 
Q 1594 3097 1305 2825 
Q 1016 2553 972 2059 
L 3022 2063 
z
" transform="scale(0.015625)"/>
       <path id="DejaVuSans-28" d="M 1984 4856 
Q 1566 4138 1362 3434 
Q 1159 2731 1159 2009 
Q 1159 1288 1364 580 
Q 1569 -128 1984 -844 
L 1484 -844 
Q 1016 -109 783 600 
Q 550 1309 550 2009 
Q 550 2706 781 3412 
Q 1013 4119 1484 4856 
L 1984 4856 
z
" transform="scale(0.015625)"/>
       <path id="DejaVuSans-2f" d="M 1625 4666 
L 2156 4666 
L 531 -594 
L 0 -594 
L 1625 4666 
z
" transform="scale(0.015625)"/>
       <path id="DejaVuSans-6b" d="M 581 4863 
L 1159 4863 
L 1159 1991 
L 2875 3500 
L 3609 3500 
L 1753 1863 
L 3688 0 
L 2938 0 
L 1159 1709 
L 1159 0 
L 581 0 
L 581 4863 
z
" transform="scale(0.015625)"/>
       <path id="DejaVuSans-79" d="M 2059 -325 
Q 1816 -950 1584 -1140 
Q 1353 -1331 966 -1331 
L 506 -1331 
L 506 -850 
L 844 -850 
Q 1081 -850 1212 -737 
Q 1344 -625 1503 -206 
L 1606 56 
L 191 3500 
L 800 3500 
L 1894 763 
L 2988 3500 
L 3597 3500 
L 2059 -325 
z
" transform="scale(0.015625)"/>
       <path id="DejaVuSans-29" d="M 513 4856 
L 1013 4856 
Q 1481 4119 1714 3412 
Q 1947 2706 1947 2009 
Q 1947 1309 1714 600 
Q 1481 -109 1013 -844 
L 513 -844 
Q 928 -128 1133 580 
Q 1338 1288 1338 2009 
Q 1338 2731 1133 3434 
Q 928 4138 513 4856 
z
" transform="scale(0.015625)"/>
      </defs>
      <use xlink:href="#DejaVuSans-43"/>
      <use xlink:href="#DejaVuSans-6f" transform="translate(69.824219 0)"/>
      <use xlink:href="#DejaVuSans-6e" transform="translate(131.005859 0)"/>
      <use xlink:href="#DejaVuSans-73" transform="translate(194.384766 0)"/>
      <use xlink:href="#DejaVuSans-74" transform="translate(246.484375 0)"/>
      <use xlink:href="#DejaVuSans-72" transform="translate(285.693359 0)"/>
      <use xlink:href="#DejaVuSans-75" transform="translate(326.806641 0)"/>
      <use xlink:href="#DejaVuSans-63" transform="translate(390.185547 0)"/>
      <use xlink:href="#DejaVuSans-74" transform="translate(445.166016 0)"/>
      <use xlink:href="#DejaVuSans-69" transform="translate(484.375 0)"/>
      <use xlink:href="#DejaVuSans-6f" transform="translate(512.158203 0)"/>
      <use xlink:href="#DejaVuSans-6e" transform="translate(573.339844 0)"/>
      <use xlink:href="#DejaVuSans-20" transform="translate(636.71875 0)"/>
      <use xlink:href="#DejaVuSans-74" transform="translate(668.505859 0)"/>
      <use xlink:href="#DejaVuSans-69" transform="translate(707.714844 0)"/>
      <use xlink:href="#DejaVuSans-6d" transform="translate(735.498047 0)"/>
      <use xlink:href="#DejaVuSans-65" transform="translate(832.910156 0)"/>
      <use xlink:href="#DejaVuSans-20" transform="translate(894.433594 0)"/>
      <use xlink:href="#DejaVuSans-28" transform="translate(926.220703 0)"/>
      <use xlink:href="#DejaVuSans-6e" transform="translate(965.234375 0)"/>
      <use xlink:href="#DejaVuSans-73" transform="translate(1028.613281 0)"/>
      <use xlink:href="#DejaVuSans-2f" transform="translate(1080.712891 0)"/>
      <use xlink:href="#DejaVuSans-6b" transform="translate(1114.404297 0)"/>
      <use xlink:href="#DejaVuSans-65" transform="translate(1168.689453 0)"/>
      <use xlink:href="#DejaVuSans-79" transform="translate(1230.212891 0)"/>
      <use xlink:href="#DejaVuSans-29" transform="translate(1289.392578 0)"/>
     </g>
    </g>
   </g>
   <g id="line2d_41">
    <path d="M 46.965625 289.196055 
L 82.755801 287.230355 
L 118.545978 287.24774 
L 154.336154 285.678862 
L 190.12633 284.648997 
L 225.916507 282.8819 
L 261.706683 280.49138 
L 297.496859 279.113964 
L 333.287036 274.399725 
L 369.077212 271.183041 
L 404.867388 268.051792 
L 440.657565 263.16317 
L 476.447741 255.340471 
L 512.237917 245.895859 
L 548.028094 226.317484 
L 583.81827 182.247312 
" clip-path="url(#pad265c127f)" style="fill: none; stroke: #ff0000; stroke-opacity: 0.8; stroke-width: 2.6; stroke-linecap: square"/>
   </g>
   <g id="line2d_42">
    <path d="M 46.965625 288.559557 
L 82.755801 288.537614 
L 118.545978 287.313576 
L 154.336154 284.138179 
L 190.12633 281.819308 
L 225.916507 276.259047 
L 261.706683 271.719019 
L 297.496859 262.914044 
L 333.287036 246.398322 
L 369.077212 200.105334 
" clip-path="url(#pad265c127f)" style="fill: none; stroke: #0000ff; stroke-opacity: 0.8; stroke-width: 2.6; stroke-linecap: square"/>
   </g>
   <g id="line2d_43">
    <path d="M 46.965625 287.935811 
L 82.755801 286.702633 
L 118.545978 284.96466 
L 154.336154 283.911426 
L 190.12633 282.476899 
L 225.916507 279.221222 
L 261.706683 277.441126 
L 297.496859 273.193954 
L 333.287036 270.392694 
L 369.077212 264.172565 
L 404.867388 259.001526 
L 440.657565 251.57689 
L 476.447741 239.588848 
L 512.237917 216.891077 
" clip-path="url(#pad265c127f)" style="fill: none; stroke: #ff0000; stroke-opacity: 0.8; stroke-width: 2; stroke-linecap: square"/>
   </g>
   <g id="line2d_44">
    <path d="M 46.965625 290.26519 
L 82.755801 287.353839 
L 118.545978 285.388382 
L 154.336154 281.724972 
L 190.12633 276.253943 
L 225.916507 268.718934 
L 261.706683 257.722007 
L 297.496859 232.925913 
L 333.287036 139.941677 
" clip-path="url(#pad265c127f)" style="fill: none; stroke: #0000ff; stroke-opacity: 0.8; stroke-width: 2; stroke-linecap: square"/>
   </g>
   <g id="line2d_45">
    <path d="M 46.965625 283.425418 
L 82.755801 281.762089 
L 118.545978 280.346503 
L 154.336154 277.578739 
L 190.12633 275.02338 
L 225.916507 272.223315 
L 261.706683 268.427639 
L 297.496859 263.187264 
L 333.287036 257.469563 
L 369.077212 248.40501 
L 404.867388 237.512142 
L 440.657565 218.49634 
L 476.447741 189.876414 
" clip-path="url(#pad265c127f)" style="fill: none; stroke: #ff0000; stroke-opacity: 0.8; stroke-width: 1.4; stroke-linecap: square"/>
   </g>
   <g id="line2d_46">
    <path d="M 46.965625 285.317135 
L 82.755801 281.700234 
L 118.545978 276.741129 
L 154.336154 265.737709 
L 190.12633 259.1754 
L 225.916507 241.649207 
L 261.706683 206.655056 
L 297.496859 97.965693 
" clip-path="url(#pad265c127f)" style="fill: none; stroke: #0000ff; stroke-opacity: 0.8; stroke-width: 1.4; stroke-linecap: square"/>
   </g>
   <g id="line2d_47">
    <path d="M 46.965625 273.763811 
L 82.755801 270.756892 
L 118.545978 267.602931 
L 154.336154 265.953605 
L 190.12633 261.429811 
L 225.916507 257.214424 
L 261.706683 250.223512 
L 297.496859 237.694311 
L 333.287036 234.069371 
L 369.077212 221.856639 
L 404.867388 202.361753 
L 440.657565 173.82139 
L 476.447741 117.920551 
" clip-path="url(#pad265c127f)" style="fill: none; stroke: #ff0000; stroke-opacity: 0.8; stroke-width: 0.8; stroke-linecap: square"/>
   </g>
   <g id="line2d_48">
    <path d="M 46.965625 272.579115 
L 82.755801 266.324838 
L 118.545978 259.136707 
L 154.336154 247.481351 
L 190.12633 228.807048 
L 225.916507 196.993657 
L 261.706683 119.42261 
L 274.444208 -1 
" clip-path="url(#pad265c127f)" style="fill: none; stroke: #0000ff; stroke-opacity: 0.8; stroke-width: 0.8; stroke-linecap: square"/>
   </g>
   <g id="line2d_49">
    <defs>
     <path id="mdc26d598c0" d="M 0 5.5 
C 1.458617 5.5 2.857689 4.920485 3.889087 3.889087 
C 4.920485 2.857689 5.5 1.458617 5.5 0 
C 5.5 -1.458617 4.920485 -2.857689 3.889087 -3.889087 
C 2.857689 -4.920485 1.458617 -5.5 0 -5.5 
C -1.458617 -5.5 -2.857689 -4.920485 -3.889087 -3.889087 
C -4.920485 -2.857689 -5.5 -1.458617 -5.5 0 
C -5.5 1.458617 -4.920485 2.857689 -3.889087 3.889087 
C -2.857689 4.920485 -1.458617 5.5 0 5.5 
z
" style="stroke: #0000ff"/>
    </defs>
    <g clip-path="url(#pad265c127f)">
     <use xlink:href="#mdc26d598c0" x="154.336154" y="281.724972" style="fill: #0000ff; stroke: #0000ff"/>
    </g>
   </g>
   <g id="line2d_50">
    <defs>
     <path id="m1a21cfeec8" d="M 0 5.5 
C 1.458617 5.5 2.857689 4.920485 3.889087 3.889087 
C 4.920485 2.857689 5.5 1.458617 5.5 0 
C 5.5 -1.458617 4.920485 -2.857689 3.889087 -3.889087 
C 2.857689 -4.920485 1.458617 -5.5 0 -5.5 
C -1.458617 -5.5 -2.857689 -4.920485 -3.889087 -3.889087 
C -4.920485 -2.857689 -5.5 -1.458617 -5.5 0 
C -5.5 1.458617 -4.920485 2.857689 -3.889087 3.889087 
C -2.857689 4.920485 -1.458617 5.5 0 5.5 
z
" style="stroke: #000000"/>
    </defs>
    <g clip-path="url(#pad265c127f)">
     <use xlink:href="#m1a21cfeec8" x="333.287036" y="270.392694" style="stroke: #000000"/>
    </g>
   </g>
   <g id="line2d_51">
    <defs>
     <path id="m6bc530c7a8" d="M 0 5.5 
C 1.458617 5.5 2.857689 4.920485 3.889087 3.889087 
C 4.920485 2.857689 5.5 1.458617 5.5 0 
C 5.5 -1.458617 4.920485 -2.857689 3.889087 -3.889087 
C 2.857689 -4.920485 1.458617 -5.5 0 -5.5 
C -1.458617 -5.5 -2.857689 -4.920485 -3.889087 -3.889087 
C -4.920485 -2.857689 -5.5 -1.458617 -5.5 0 
C -5.5 1.458617 -4.920485 2.857689 -3.889087 3.889087 
C -2.857689 4.920485 -1.458617 5.5 0 5.5 
z
" style="stroke: #ff0000"/>
    </defs>
    <g clip-path="url(#pad265c127f)">
     <use xlink:href="#m6bc530c7a8" x="512.237917" y="216.891077" style="fill: #ff0000; stroke: #ff0000"/>
    </g>
   </g>
   <g id="patch_3">
    <path d="M 46.965625 330.84327 
L 583.81827 330.84327 
" style="fill: none; stroke: #000000; stroke-width: 0.8; stroke-linejoin: miter; stroke-linecap: square"/>
   </g>
  </g>
  <g id="axes_2">
   <g id="matplotlib.axis_3">
    <g id="ytick_9">
     <g id="line2d_52">
      <path d="M 46.965625 330.84327 
L 583.81827 330.84327 
" clip-path="url(#pad265c127f)" style="fill: none; stroke: #b0b0b0; stroke-width: 0.5; stroke-linecap: square"/>
     </g>
     <g id="line2d_53">
      <defs>
       <path id="mb7c213147f" d="M 0 0 
L 3.5 0 
" style="stroke: #000000; stroke-width: 0.8"/>
      </defs>
      <g>
       <use xlink:href="#mb7c213147f" x="583.81827" y="330.84327" style="stroke: #000000; stroke-width: 0.8"/>
      </g>
     </g>
     <g id="text_19">
      <!-- 0.0 -->
      <g transform="translate(590.81827 334.642489) scale(0.1 -0.1)">
       <use xlink:href="#DejaVuSans-30"/>
       <use xlink:href="#DejaVuSans-2e" transform="translate(63.623047 0)"/>
       <use xlink:href="#DejaVuSans-30" transform="translate(95.410156 0)"/>
      </g>
     </g>
    </g>
    <g id="ytick_10">
     <g id="line2d_54">
      <path d="M 46.965625 148.075241 
L 583.81827 148.075241 
" clip-path="url(#pad265c127f)" style="fill: none; stroke: #b0b0b0; stroke-width: 0.5; stroke-linecap: square"/>
     </g>
     <g id="line2d_55">
      <g>
       <use xlink:href="#mb7c213147f" x="583.81827" y="148.075241" style="stroke: #000000; stroke-width: 0.8"/>
      </g>
     </g>
     <g id="text_20">
      <!-- 2.0 -->
      <g transform="translate(590.81827 151.874459) scale(0.1 -0.1)">
       <use xlink:href="#DejaVuSans-32"/>
       <use xlink:href="#DejaVuSans-2e" transform="translate(63.623047 0)"/>
       <use xlink:href="#DejaVuSans-30" transform="translate(95.410156 0)"/>
      </g>
     </g>
    </g>
    <g id="ytick_11">
     <g id="line2d_56">
      <path d="M 46.965625 102.383233 
L 583.81827 102.383233 
" clip-path="url(#pad265c127f)" style="fill: none; stroke: #b0b0b0; stroke-width: 0.5; stroke-linecap: square"/>
     </g>
     <g id="line2d_57">
      <g>
       <use xlink:href="#mb7c213147f" x="583.81827" y="102.383233" style="stroke: #000000; stroke-width: 0.8"/>
      </g>
     </g>
     <g id="text_21">
      <!-- 2.5 -->
      <g transform="translate(590.81827 106.182452) scale(0.1 -0.1)">
       <defs>
        <path id="DejaVuSans-35" d="M 691 4666 
L 3169 4666 
L 3169 4134 
L 1269 4134 
L 1269 2991 
Q 1406 3038 1543 3061 
Q 1681 3084 1819 3084 
Q 2600 3084 3056 2656 
Q 3513 2228 3513 1497 
Q 3513 744 3044 326 
Q 2575 -91 1722 -91 
Q 1428 -91 1123 -41 
Q 819 9 494 109 
L 494 744 
Q 775 591 1075 516 
Q 1375 441 1709 441 
Q 2250 441 2565 725 
Q 2881 1009 2881 1497 
Q 2881 1984 2565 2268 
Q 2250 2553 1709 2553 
Q 1456 2553 1204 2497 
Q 953 2441 691 2322 
L 691 4666 
z
" transform="scale(0.015625)"/>
       </defs>
       <use xlink:href="#DejaVuSans-32"/>
       <use xlink:href="#DejaVuSans-2e" transform="translate(63.623047 0)"/>
       <use xlink:href="#DejaVuSans-35" transform="translate(95.410156 0)"/>
      </g>
     </g>
    </g>
    <g id="ytick_12">
     <g id="line2d_58">
      <path d="M 46.965625 56.691226 
L 583.81827 56.691226 
" clip-path="url(#pad265c127f)" style="fill: none; stroke: #b0b0b0; stroke-width: 0.5; stroke-linecap: square"/>
     </g>
     <g id="line2d_59">
      <g>
       <use xlink:href="#mb7c213147f" x="583.81827" y="56.691226" style="stroke: #000000; stroke-width: 0.8"/>
      </g>
     </g>
     <g id="text_22">
      <!-- 3.0 -->
      <g transform="translate(590.81827 60.490445) scale(0.1 -0.1)">
       <use xlink:href="#DejaVuSans-33"/>
       <use xlink:href="#DejaVuSans-2e" transform="translate(63.623047 0)"/>
       <use xlink:href="#DejaVuSans-30" transform="translate(95.410156 0)"/>
      </g>
     </g>
    </g>
    <g id="ytick_13">
     <g id="line2d_60">
      <path d="M 46.965625 138.936839 
L 583.81827 138.936839 
" clip-path="url(#pad265c127f)" style="fill: none; stroke: #b0b0b0; stroke-opacity: 0.4; stroke-width: 0.5; stroke-linecap: square"/>
     </g>
     <g id="line2d_61">
      <defs>
       <path id="m8b4991a840" d="M 0 0 
L 2 0 
" style="stroke: #000000; stroke-width: 0.6"/>
      </defs>
      <g>
       <use xlink:href="#m8b4991a840" x="583.81827" y="138.936839" style="stroke: #000000; stroke-width: 0.6"/>
      </g>
     </g>
    </g>
    <g id="ytick_14">
     <g id="line2d_62">
      <path d="M 46.965625 129.798438 
L 583.81827 129.798438 
" clip-path="url(#pad265c127f)" style="fill: none; stroke: #b0b0b0; stroke-opacity: 0.4; stroke-width: 0.5; stroke-linecap: square"/>
     </g>
     <g id="line2d_63">
      <g>
       <use xlink:href="#m8b4991a840" x="583.81827" y="129.798438" style="stroke: #000000; stroke-width: 0.6"/>
      </g>
     </g>
    </g>
    <g id="ytick_15">
     <g id="line2d_64">
      <path d="M 46.965625 120.660036 
L 583.81827 120.660036 
" clip-path="url(#pad265c127f)" style="fill: none; stroke: #b0b0b0; stroke-opacity: 0.4; stroke-width: 0.5; stroke-linecap: square"/>
     </g>
     <g id="line2d_65">
      <g>
       <use xlink:href="#m8b4991a840" x="583.81827" y="120.660036" style="stroke: #000000; stroke-width: 0.6"/>
      </g>
     </g>
    </g>
    <g id="ytick_16">
     <g id="line2d_66">
      <path d="M 46.965625 111.521635 
L 583.81827 111.521635 
" clip-path="url(#pad265c127f)" style="fill: none; stroke: #b0b0b0; stroke-opacity: 0.4; stroke-width: 0.5; stroke-linecap: square"/>
     </g>
     <g id="line2d_67">
      <g>
       <use xlink:href="#m8b4991a840" x="583.81827" y="111.521635" style="stroke: #000000; stroke-width: 0.6"/>
      </g>
     </g>
    </g>
    <g id="ytick_17">
     <g id="line2d_68">
      <path d="M 46.965625 93.244832 
L 583.81827 93.244832 
" clip-path="url(#pad265c127f)" style="fill: none; stroke: #b0b0b0; stroke-opacity: 0.4; stroke-width: 0.5; stroke-linecap: square"/>
     </g>
     <g id="line2d_69">
      <g>
       <use xlink:href="#m8b4991a840" x="583.81827" y="93.244832" style="stroke: #000000; stroke-width: 0.6"/>
      </g>
     </g>
    </g>
    <g id="ytick_18">
     <g id="line2d_70">
      <path d="M 46.965625 84.10643 
L 583.81827 84.10643 
" clip-path="url(#pad265c127f)" style="fill: none; stroke: #b0b0b0; stroke-opacity: 0.4; stroke-width: 0.5; stroke-linecap: square"/>
     </g>
     <g id="line2d_71">
      <g>
       <use xlink:href="#m8b4991a840" x="583.81827" y="84.10643" style="stroke: #000000; stroke-width: 0.6"/>
      </g>
     </g>
    </g>
    <g id="ytick_19">
     <g id="line2d_72">
      <path d="M 46.965625 74.968029 
L 583.81827 74.968029 
" clip-path="url(#pad265c127f)" style="fill: none; stroke: #b0b0b0; stroke-opacity: 0.4; stroke-width: 0.5; stroke-linecap: square"/>
     </g>
     <g id="line2d_73">
      <g>
       <use xlink:href="#m8b4991a840" x="583.81827" y="74.968029" style="stroke: #000000; stroke-width: 0.6"/>
      </g>
     </g>
    </g>
    <g id="ytick_20">
     <g id="line2d_74">
      <path d="M 46.965625 65.829628 
L 583.81827 65.829628 
" clip-path="url(#pad265c127f)" style="fill: none; stroke: #b0b0b0; stroke-opacity: 0.4; stroke-width: 0.5; stroke-linecap: square"/>
     </g>
     <g id="line2d_75">
      <g>
       <use xlink:href="#m8b4991a840" x="583.81827" y="65.829628" style="stroke: #000000; stroke-width: 0.6"/>
      </g>
     </g>
    </g>
    <g id="text_23">
     <!-- Size (bits/key) -->
     <g transform="translate(618.319832 206.238432) rotate(-90) scale(0.1 -0.1)">
      <defs>
       <path id="DejaVuSans-53" d="M 3425 4513 
L 3425 3897 
Q 3066 4069 2747 4153 
Q 2428 4238 2131 4238 
Q 1616 4238 1336 4038 
Q 1056 3838 1056 3469 
Q 1056 3159 1242 3001 
Q 1428 2844 1947 2747 
L 2328 2669 
Q 3034 2534 3370 2195 
Q 3706 1856 3706 1288 
Q 3706 609 3251 259 
Q 2797 -91 1919 -91 
Q 1588 -91 1214 -16 
Q 841 59 441 206 
L 441 856 
Q 825 641 1194 531 
Q 1563 422 1919 422 
Q 2459 422 2753 634 
Q 3047 847 3047 1241 
Q 3047 1584 2836 1778 
Q 2625 1972 2144 2069 
L 1759 2144 
Q 1053 2284 737 2584 
Q 422 2884 422 3419 
Q 422 4038 858 4394 
Q 1294 4750 2059 4750 
Q 2388 4750 2728 4690 
Q 3069 4631 3425 4513 
z
" transform="scale(0.015625)"/>
       <path id="DejaVuSans-7a" d="M 353 3500 
L 3084 3500 
L 3084 2975 
L 922 459 
L 3084 459 
L 3084 0 
L 275 0 
L 275 525 
L 2438 3041 
L 353 3041 
L 353 3500 
z
" transform="scale(0.015625)"/>
       <path id="DejaVuSans-62" d="M 3116 1747 
Q 3116 2381 2855 2742 
Q 2594 3103 2138 3103 
Q 1681 3103 1420 2742 
Q 1159 2381 1159 1747 
Q 1159 1113 1420 752 
Q 1681 391 2138 391 
Q 2594 391 2855 752 
Q 3116 1113 3116 1747 
z
M 1159 2969 
Q 1341 3281 1617 3432 
Q 1894 3584 2278 3584 
Q 2916 3584 3314 3078 
Q 3713 2572 3713 1747 
Q 3713 922 3314 415 
Q 2916 -91 2278 -91 
Q 1894 -91 1617 61 
Q 1341 213 1159 525 
L 1159 0 
L 581 0 
L 581 4863 
L 1159 4863 
L 1159 2969 
z
" transform="scale(0.015625)"/>
      </defs>
      <use xlink:href="#DejaVuSans-53"/>
      <use xlink:href="#DejaVuSans-69" transform="translate(63.476562 0)"/>
      <use xlink:href="#DejaVuSans-7a" transform="translate(91.259766 0)"/>
      <use xlink:href="#DejaVuSans-65" transform="translate(143.75 0)"/>
      <use xlink:href="#DejaVuSans-20" transform="translate(205.273438 0)"/>
      <use xlink:href="#DejaVuSans-28" transform="translate(237.060547 0)"/>
      <use xlink:href="#DejaVuSans-62" transform="translate(276.074219 0)"/>
      <use xlink:href="#DejaVuSans-69" transform="translate(339.550781 0)"/>
      <use xlink:href="#DejaVuSans-74" transform="translate(367.333984 0)"/>
      <use xlink:href="#DejaVuSans-73" transform="translate(406.542969 0)"/>
      <use xlink:href="#DejaVuSans-2f" transform="translate(458.642578 0)"/>
      <use xlink:href="#DejaVuSans-6b" transform="translate(492.333984 0)"/>
      <use xlink:href="#DejaVuSans-65" transform="translate(546.619141 0)"/>
      <use xlink:href="#DejaVuSans-79" transform="translate(608.142578 0)"/>
      <use xlink:href="#DejaVuSans-29" transform="translate(667.322266 0)"/>
     </g>
    </g>
   </g>
   <g id="line2d_76">
    <path d="M 46.965625 60.075819 
L 82.755801 69.746085 
L 118.545978 78.749437 
L 154.336154 87.152564 
L 190.12633 95.013555 
L 225.916507 102.383233 
L 261.706683 109.306265 
L 297.496859 115.822059 
L 333.287036 121.965522 
L 369.077212 127.767682 
L 404.867388 133.256211 
L 440.657565 138.455871 
L 476.447741 143.388881 
L 512.237917 148.075241 
L 548.028094 152.532998 
L 583.81827 156.77848 
" clip-path="url(#pad265c127f)" style="fill: none; stroke: #000000; stroke-linecap: square"/>
   </g>
   <g id="line2d_77">
    <path d="M 46.965625 0.396463 
L 82.755801 10.066729 
L 118.545978 19.07008 
L 154.336154 27.473208 
L 190.12633 35.334198 
L 225.916507 42.703877 
L 261.706683 49.626908 
L 297.496859 56.142703 
L 333.287036 62.286166 
L 369.077212 68.088325 
L 404.867388 73.576855 
L 440.657565 78.776514 
L 476.447741 83.709524 
L 512.237917 88.395884 
L 548.028094 92.853641 
L 583.81827 97.099124 
" clip-path="url(#pad265c127f)" style="fill: none; stroke: #008000; stroke-opacity: 0.9; stroke-width: 2.6; stroke-linecap: square"/>
   </g>
   <g id="line2d_78">
    <path d="M 46.965625 38.374235 
L 82.755801 48.044501 
L 118.545978 57.047852 
L 154.336154 65.45098 
L 190.12633 73.311971 
L 225.916507 80.681649 
L 261.706683 87.604681 
L 297.496859 94.120475 
L 333.287036 100.263938 
L 369.077212 106.066098 
L 404.867388 111.554627 
L 440.657565 116.754287 
L 476.447741 121.687297 
L 512.237917 126.373657 
L 548.028094 130.831413 
L 583.81827 135.076896 
" clip-path="url(#pad265c127f)" style="fill: none; stroke: #ffa500; stroke-opacity: 0.9; stroke-width: 2.6; stroke-linecap: square"/>
   </g>
   <g id="line2d_79">
    <path d="M 46.965625 30.537552 
L 82.755801 40.207818 
L 118.545978 49.211169 
L 154.336154 57.614297 
L 190.12633 65.475287 
L 225.916507 72.844966 
L 261.706683 79.767997 
L 297.496859 86.283792 
L 333.287036 92.427255 
L 369.077212 98.229415 
L 404.867388 103.717944 
L 440.657565 108.917603 
L 476.447741 113.850614 
L 512.237917 118.536973 
L 548.028094 122.99473 
L 583.81827 127.240213 
" clip-path="url(#pad265c127f)" style="fill: none; stroke: #008000; stroke-opacity: 0.9; stroke-width: 2; stroke-linecap: square"/>
   </g>
   <g id="line2d_80">
    <path d="M 46.965625 49.334631 
L 82.755801 59.004897 
L 118.545978 68.008248 
L 154.336154 76.411376 
L 190.12633 84.272367 
L 225.916507 91.642045 
L 261.706683 98.565077 
L 297.496859 105.080871 
L 333.287036 111.224334 
L 369.077212 117.026494 
L 404.867388 122.515023 
L 440.657565 127.714683 
L 476.447741 132.647693 
L 512.237917 137.334053 
L 548.028094 141.791809 
L 583.81827 146.037292 
" clip-path="url(#pad265c127f)" style="fill: none; stroke: #ffa500; stroke-opacity: 0.9; stroke-width: 2; stroke-linecap: square"/>
   </g>
   <g id="line2d_81">
    <path d="M 46.965625 45.380902 
L 82.755801 55.051168 
L 118.545978 64.05452 
L 154.336154 72.457647 
L 190.12633 80.318638 
L 225.916507 87.688316 
L 261.706683 94.611348 
L 297.496859 101.127142 
L 333.287036 107.270605 
L 369.077212 113.072765 
L 404.867388 118.561294 
L 440.657565 123.760954 
L 476.447741 128.693964 
L 512.237917 133.380324 
L 548.028094 137.838081 
L 583.81827 142.083563 
" clip-path="url(#pad265c127f)" style="fill: none; stroke: #008000; stroke-opacity: 0.9; stroke-width: 1.4; stroke-linecap: square"/>
   </g>
   <g id="line2d_82">
    <path d="M 46.965625 54.215522 
L 82.755801 63.885788 
L 118.545978 72.889139 
L 154.336154 81.292267 
L 190.12633 89.153257 
L 225.916507 96.522936 
L 261.706683 103.445967 
L 297.496859 109.961762 
L 333.287036 116.105225 
L 369.077212 121.907384 
L 404.867388 127.395914 
L 440.657565 132.595573 
L 476.447741 137.528583 
L 512.237917 142.214943 
L 548.028094 146.6727 
L 583.81827 150.918183 
" clip-path="url(#pad265c127f)" style="fill: none; stroke: #008000; stroke-opacity: 0.9; stroke-width: 0.8; stroke-linecap: square"/>
   </g>
   <g id="line2d_83">
    <g clip-path="url(#pad265c127f)">
     <use xlink:href="#mdc26d598c0" x="154.336154" y="57.614297" style="fill: #0000ff; stroke: #0000ff"/>
    </g>
   </g>
   <g id="line2d_84">
    <g clip-path="url(#pad265c127f)">
     <use xlink:href="#m1a21cfeec8" x="333.287036" y="111.224334" style="stroke: #000000"/>
    </g>
   </g>
   <g id="line2d_85">
    <g clip-path="url(#pad265c127f)">
     <use xlink:href="#m6bc530c7a8" x="512.237917" y="137.334053" style="fill: #ff0000; stroke: #ff0000"/>
    </g>
   </g>
   <g id="patch_4">
    <path d="M 46.965625 330.84327 
L 583.81827 330.84327 
" style="fill: none; stroke: #000000; stroke-width: 0.8; stroke-linejoin: miter; stroke-linecap: square"/>
   </g>
   <g id="legend_1">
    <g id="patch_5">
     <path d="M 49.029207 325.84327 
L 576.81827 325.84327 
Q 578.81827 325.84327 578.81827 323.84327 
L 578.81827 295.44327 
Q 578.81827 293.44327 576.81827 293.44327 
L 49.029207 293.44327 
Q 47.029207 293.44327 47.029207 295.44327 
L 47.029207 323.84327 
Q 47.029207 325.84327 49.029207 325.84327 
z
" style="fill: #ffffff; opacity: 0.8; stroke: #cccccc; stroke-linejoin: miter"/>
    </g>
    <g id="patch_6">
     <path d="M 51.029207 305.04327 
L 71.029207 305.04327 
L 71.029207 298.04327 
L 51.029207 298.04327 
z
" style="fill: #0000ff; stroke: #0000ff; stroke-linejoin: miter"/>
    </g>
    <g id="text_24">
     <!-- Linear $\gamma$ -->
     <g transform="translate(79.029207 305.04327) scale(0.1 -0.1)">
      <defs>
       <path id="DejaVuSans-4c" d="M 628 4666 
L 1259 4666 
L 1259 531 
L 3531 531 
L 3531 0 
L 628 0 
L 628 4666 
z
" transform="scale(0.015625)"/>
       <path id="DejaVuSans-61" d="M 2194 1759 
Q 1497 1759 1228 1600 
Q 959 1441 959 1056 
Q 959 750 1161 570 
Q 1363 391 1709 391 
Q 2188 391 2477 730 
Q 2766 1069 2766 1631 
L 2766 1759 
L 2194 1759 
z
M 3341 1997 
L 3341 0 
L 2766 0 
L 2766 531 
Q 2569 213 2275 61 
Q 1981 -91 1556 -91 
Q 1019 -91 701 211 
Q 384 513 384 1019 
Q 384 1609 779 1909 
Q 1175 2209 1959 2209 
L 2766 2209 
L 2766 2266 
Q 2766 2663 2505 2880 
Q 2244 3097 1772 3097 
Q 1472 3097 1187 3025 
Q 903 2953 641 2809 
L 641 3341 
Q 956 3463 1253 3523 
Q 1550 3584 1831 3584 
Q 2591 3584 2966 3190 
Q 3341 2797 3341 1997 
z
" transform="scale(0.015625)"/>
       <path id="DejaVuSans-Oblique-3b3" d="M 1491 2950 
L 1838 788 
L 3456 3500 
L 4066 3500 
L 1972 0 
L 1713 -1331 
L 1138 -1331 
L 1397 0 
L 988 2613 
Q 925 3006 628 3006 
L 475 3006 
L 569 3500 
L 788 3500 
Q 1403 3500 1491 2950 
z
" transform="scale(0.015625)"/>
      </defs>
      <use xlink:href="#DejaVuSans-4c" transform="translate(0 0.015625)"/>
      <use xlink:href="#DejaVuSans-69" transform="translate(55.712891 0.015625)"/>
      <use xlink:href="#DejaVuSans-6e" transform="translate(83.496094 0.015625)"/>
      <use xlink:href="#DejaVuSans-65" transform="translate(146.875 0.015625)"/>
      <use xlink:href="#DejaVuSans-61" transform="translate(208.398438 0.015625)"/>
      <use xlink:href="#DejaVuSans-72" transform="translate(269.677734 0.015625)"/>
      <use xlink:href="#DejaVuSans-20" transform="translate(310.791016 0.015625)"/>
      <use xlink:href="#DejaVuSans-Oblique-3b3" transform="translate(342.578125 0.015625)"/>
     </g>
    </g>
    <g id="patch_7">
     <path d="M 51.029207 319.74327 
L 71.029207 319.74327 
L 71.029207 312.74327 
L 51.029207 312.74327 
z
" style="fill: #ff0000; stroke: #ff0000; stroke-linejoin: miter"/>
    </g>
    <g id="text_25">
     <!-- Cubic $\gamma$ -->
     <g transform="translate(79.029207 319.74327) scale(0.1 -0.1)">
      <use xlink:href="#DejaVuSans-43" transform="translate(0 0.015625)"/>
      <use xlink:href="#DejaVuSans-75" transform="translate(69.824219 0.015625)"/>
      <use xlink:href="#DejaVuSans-62" transform="translate(133.203125 0.015625)"/>
      <use xlink:href="#DejaVuSans-69" transform="translate(196.679688 0.015625)"/>
      <use xlink:href="#DejaVuSans-63" transform="translate(224.462891 0.015625)"/>
      <use xlink:href="#DejaVuSans-20" transform="translate(279.443359 0.015625)"/>
      <use xlink:href="#DejaVuSans-Oblique-3b3" transform="translate(311.230469 0.015625)"/>
     </g>
    </g>
    <g id="line2d_86">
     <path d="M 139.229207 301.54327 
L 149.229207 301.54327 
L 159.229207 301.54327 
" style="fill: none"/>
    </g>
    <g id="line2d_87">
     <path d="M 139.229207 316.221395 
L 149.229207 316.221395 
L 159.229207 316.221395 
" style="fill: none; stroke: #000000; stroke-width: 2; stroke-linecap: square"/>
    </g>
    <g id="text_26">
     <!-- Pilots space -->
     <g transform="translate(167.229207 319.721395) scale(0.1 -0.1)">
      <defs>
       <path id="DejaVuSans-50" d="M 1259 4147 
L 1259 2394 
L 2053 2394 
Q 2494 2394 2734 2622 
Q 2975 2850 2975 3272 
Q 2975 3691 2734 3919 
Q 2494 4147 2053 4147 
L 1259 4147 
z
M 628 4666 
L 2053 4666 
Q 2838 4666 3239 4311 
Q 3641 3956 3641 3272 
Q 3641 2581 3239 2228 
Q 2838 1875 2053 1875 
L 1259 1875 
L 1259 0 
L 628 0 
L 628 4666 
z
" transform="scale(0.015625)"/>
       <path id="DejaVuSans-6c" d="M 603 4863 
L 1178 4863 
L 1178 0 
L 603 0 
L 603 4863 
z
" transform="scale(0.015625)"/>
       <path id="DejaVuSans-70" d="M 1159 525 
L 1159 -1331 
L 581 -1331 
L 581 3500 
L 1159 3500 
L 1159 2969 
Q 1341 3281 1617 3432 
Q 1894 3584 2278 3584 
Q 2916 3584 3314 3078 
Q 3713 2572 3713 1747 
Q 3713 922 3314 415 
Q 2916 -91 2278 -91 
Q 1894 -91 1617 61 
Q 1341 213 1159 525 
z
M 3116 1747 
Q 3116 2381 2855 2742 
Q 2594 3103 2138 3103 
Q 1681 3103 1420 2742 
Q 1159 2381 1159 1747 
Q 1159 1113 1420 752 
Q 1681 391 2138 391 
Q 2594 391 2855 752 
Q 3116 1113 3116 1747 
z
" transform="scale(0.015625)"/>
      </defs>
      <use xlink:href="#DejaVuSans-50"/>
      <use xlink:href="#DejaVuSans-69" transform="translate(58.052734 0)"/>
      <use xlink:href="#DejaVuSans-6c" transform="translate(85.835938 0)"/>
      <use xlink:href="#DejaVuSans-6f" transform="translate(113.619141 0)"/>
      <use xlink:href="#DejaVuSans-74" transform="translate(174.800781 0)"/>
      <use xlink:href="#DejaVuSans-73" transform="translate(214.009766 0)"/>
      <use xlink:href="#DejaVuSans-20" transform="translate(266.109375 0)"/>
      <use xlink:href="#DejaVuSans-73" transform="translate(297.896484 0)"/>
      <use xlink:href="#DejaVuSans-70" transform="translate(349.996094 0)"/>
      <use xlink:href="#DejaVuSans-61" transform="translate(413.472656 0)"/>
      <use xlink:href="#DejaVuSans-63" transform="translate(474.751953 0)"/>
      <use xlink:href="#DejaVuSans-65" transform="translate(529.732422 0)"/>
     </g>
    </g>
    <g id="line2d_88">
     <path d="M 246.354207 301.54327 
L 256.354207 301.54327 
L 266.354207 301.54327 
" style="fill: none; stroke: #008000; stroke-width: 2; stroke-linecap: square"/>
    </g>
    <g id="text_27">
     <!-- Total space, Vec&lt;u32&gt; -->
     <g transform="translate(274.354207 305.04327) scale(0.1 -0.1)">
      <defs>
       <path id="DejaVuSans-54" d="M -19 4666 
L 3928 4666 
L 3928 4134 
L 2272 4134 
L 2272 0 
L 1638 0 
L 1638 4134 
L -19 4134 
L -19 4666 
z
" transform="scale(0.015625)"/>
       <path id="DejaVuSans-2c" d="M 750 794 
L 1409 794 
L 1409 256 
L 897 -744 
L 494 -744 
L 750 256 
L 750 794 
z
" transform="scale(0.015625)"/>
       <path id="DejaVuSans-56" d="M 1831 0 
L 50 4666 
L 709 4666 
L 2188 738 
L 3669 4666 
L 4325 4666 
L 2547 0 
L 1831 0 
z
" transform="scale(0.015625)"/>
       <path id="DejaVuSans-3c" d="M 4684 3150 
L 1459 2003 
L 4684 863 
L 4684 294 
L 678 1747 
L 678 2266 
L 4684 3719 
L 4684 3150 
z
" transform="scale(0.015625)"/>
       <path id="DejaVuSans-3e" d="M 678 3150 
L 678 3719 
L 4684 2266 
L 4684 1747 
L 678 294 
L 678 863 
L 3897 2003 
L 678 3150 
z
" transform="scale(0.015625)"/>
      </defs>
      <use xlink:href="#DejaVuSans-54"/>
      <use xlink:href="#DejaVuSans-6f" transform="translate(44.083984 0)"/>
      <use xlink:href="#DejaVuSans-74" transform="translate(105.265625 0)"/>
      <use xlink:href="#DejaVuSans-61" transform="translate(144.474609 0)"/>
      <use xlink:href="#DejaVuSans-6c" transform="translate(205.753906 0)"/>
      <use xlink:href="#DejaVuSans-20" transform="translate(233.537109 0)"/>
      <use xlink:href="#DejaVuSans-73" transform="translate(265.324219 0)"/>
      <use xlink:href="#DejaVuSans-70" transform="translate(317.423828 0)"/>
      <use xlink:href="#DejaVuSans-61" transform="translate(380.900391 0)"/>
      <use xlink:href="#DejaVuSans-63" transform="translate(442.179688 0)"/>
      <use xlink:href="#DejaVuSans-65" transform="translate(497.160156 0)"/>
      <use xlink:href="#DejaVuSans-2c" transform="translate(558.683594 0)"/>
      <use xlink:href="#DejaVuSans-20" transform="translate(590.470703 0)"/>
      <use xlink:href="#DejaVuSans-56" transform="translate(622.257812 0)"/>
      <use xlink:href="#DejaVuSans-65" transform="translate(682.916016 0)"/>
      <use xlink:href="#DejaVuSans-63" transform="translate(744.439453 0)"/>
      <use xlink:href="#DejaVuSans-3c" transform="translate(799.419922 0)"/>
      <use xlink:href="#DejaVuSans-75" transform="translate(883.208984 0)"/>
      <use xlink:href="#DejaVuSans-33" transform="translate(946.587891 0)"/>
      <use xlink:href="#DejaVuSans-32" transform="translate(1010.210938 0)"/>
      <use xlink:href="#DejaVuSans-3e" transform="translate(1073.833984 0)"/>
     </g>
    </g>
    <g id="line2d_89">
     <path d="M 246.354207 316.221395 
L 256.354207 316.221395 
L 266.354207 316.221395 
" style="fill: none; stroke: #ffa500; stroke-width: 2; stroke-linecap: square"/>
    </g>
    <g id="text_28">
     <!-- Total space, CLEF -->
     <g transform="translate(274.354207 319.721395) scale(0.1 -0.1)">
      <defs>
       <path id="DejaVuSans-45" d="M 628 4666 
L 3578 4666 
L 3578 4134 
L 1259 4134 
L 1259 2753 
L 3481 2753 
L 3481 2222 
L 1259 2222 
L 1259 531 
L 3634 531 
L 3634 0 
L 628 0 
L 628 4666 
z
" transform="scale(0.015625)"/>
       <path id="DejaVuSans-46" d="M 628 4666 
L 3309 4666 
L 3309 4134 
L 1259 4134 
L 1259 2759 
L 3109 2759 
L 3109 2228 
L 1259 2228 
L 1259 0 
L 628 0 
L 628 4666 
z
" transform="scale(0.015625)"/>
      </defs>
      <use xlink:href="#DejaVuSans-54"/>
      <use xlink:href="#DejaVuSans-6f" transform="translate(44.083984 0)"/>
      <use xlink:href="#DejaVuSans-74" transform="translate(105.265625 0)"/>
      <use xlink:href="#DejaVuSans-61" transform="translate(144.474609 0)"/>
      <use xlink:href="#DejaVuSans-6c" transform="translate(205.753906 0)"/>
      <use xlink:href="#DejaVuSans-20" transform="translate(233.537109 0)"/>
      <use xlink:href="#DejaVuSans-73" transform="translate(265.324219 0)"/>
      <use xlink:href="#DejaVuSans-70" transform="translate(317.423828 0)"/>
      <use xlink:href="#DejaVuSans-61" transform="translate(380.900391 0)"/>
      <use xlink:href="#DejaVuSans-63" transform="translate(442.179688 0)"/>
      <use xlink:href="#DejaVuSans-65" transform="translate(497.160156 0)"/>
      <use xlink:href="#DejaVuSans-2c" transform="translate(558.683594 0)"/>
      <use xlink:href="#DejaVuSans-20" transform="translate(590.470703 0)"/>
      <use xlink:href="#DejaVuSans-43" transform="translate(622.257812 0)"/>
      <use xlink:href="#DejaVuSans-4c" transform="translate(692.082031 0)"/>
      <use xlink:href="#DejaVuSans-45" transform="translate(747.794922 0)"/>
      <use xlink:href="#DejaVuSans-46" transform="translate(810.978516 0)"/>
     </g>
    </g>
    <g id="line2d_90">
     <path d="M 410.11827 301.54327 
L 420.11827 301.54327 
L 430.11827 301.54327 
" style="fill: none; stroke: #000000; stroke-width: 0.8; stroke-linecap: square"/>
    </g>
    <g id="text_29">
     <!-- $\alpha = 0.998$ -->
     <g transform="translate(438.11827 305.04327) scale(0.1 -0.1)">
      <defs>
       <path id="DejaVuSans-Oblique-3b1" d="M 2619 1628 
L 2622 2350 
Q 2625 3088 2069 3091 
Q 1653 3094 1394 2747 
Q 1069 2319 959 1747 
Q 825 1059 994 731 
Q 1169 397 1547 397 
Q 1966 397 2319 1063 
L 2619 1628 
z
M 2166 3578 
Q 3141 3594 3128 2584 
Q 3128 2584 3616 3500 
L 4128 3500 
L 3119 1603 
L 3109 919 
Q 3109 766 3194 638 
Q 3291 488 3391 488 
L 3669 488 
L 3575 0 
L 3228 0 
Q 2934 0 2722 263 
Q 2622 394 2619 669 
Q 2416 334 2066 50 
Q 1900 -81 1453 -78 
Q 722 -72 456 397 
Q 184 884 353 1747 
Q 534 2675 1009 3097 
Q 1544 3569 2166 3578 
z
" transform="scale(0.015625)"/>
       <path id="DejaVuSans-3d" d="M 678 2906 
L 4684 2906 
L 4684 2381 
L 678 2381 
L 678 2906 
z
M 678 1631 
L 4684 1631 
L 4684 1100 
L 678 1100 
L 678 1631 
z
" transform="scale(0.015625)"/>
       <path id="DejaVuSans-39" d="M 703 97 
L 703 672 
Q 941 559 1184 500 
Q 1428 441 1663 441 
Q 2288 441 2617 861 
Q 2947 1281 2994 2138 
Q 2813 1869 2534 1725 
Q 2256 1581 1919 1581 
Q 1219 1581 811 2004 
Q 403 2428 403 3163 
Q 403 3881 828 4315 
Q 1253 4750 1959 4750 
Q 2769 4750 3195 4129 
Q 3622 3509 3622 2328 
Q 3622 1225 3098 567 
Q 2575 -91 1691 -91 
Q 1453 -91 1209 -44 
Q 966 3 703 97 
z
M 1959 2075 
Q 2384 2075 2632 2365 
Q 2881 2656 2881 3163 
Q 2881 3666 2632 3958 
Q 2384 4250 1959 4250 
Q 1534 4250 1286 3958 
Q 1038 3666 1038 3163 
Q 1038 2656 1286 2365 
Q 1534 2075 1959 2075 
z
" transform="scale(0.015625)"/>
      </defs>
      <use xlink:href="#DejaVuSans-Oblique-3b1" transform="translate(0 0.78125)"/>
      <use xlink:href="#DejaVuSans-3d" transform="translate(85.400391 0.78125)"/>
      <use xlink:href="#DejaVuSans-30" transform="translate(188.671875 0.78125)"/>
      <use xlink:href="#DejaVuSans-2e" transform="translate(252.294922 0.78125)"/>
      <use xlink:href="#DejaVuSans-39" transform="translate(284.082031 0.78125)"/>
      <use xlink:href="#DejaVuSans-39" transform="translate(347.705078 0.78125)"/>
      <use xlink:href="#DejaVuSans-38" transform="translate(411.328125 0.78125)"/>
     </g>
    </g>
    <g id="line2d_91">
     <path d="M 410.11827 316.221395 
L 420.11827 316.221395 
L 430.11827 316.221395 
" style="fill: none; stroke: #000000; stroke-width: 1.4; stroke-linecap: square"/>
    </g>
    <g id="text_30">
     <!-- $\alpha = 0.995$ -->
     <g transform="translate(438.11827 319.721395) scale(0.1 -0.1)">
      <use xlink:href="#DejaVuSans-Oblique-3b1" transform="translate(0 0.78125)"/>
      <use xlink:href="#DejaVuSans-3d" transform="translate(85.400391 0.78125)"/>
      <use xlink:href="#DejaVuSans-30" transform="translate(188.671875 0.78125)"/>
      <use xlink:href="#DejaVuSans-2e" transform="translate(252.294922 0.78125)"/>
      <use xlink:href="#DejaVuSans-39" transform="translate(284.082031 0.78125)"/>
      <use xlink:href="#DejaVuSans-39" transform="translate(347.705078 0.78125)"/>
      <use xlink:href="#DejaVuSans-35" transform="translate(411.328125 0.78125)"/>
     </g>
    </g>
    <g id="line2d_92">
     <path d="M 505.61827 301.54327 
L 515.61827 301.54327 
L 525.61827 301.54327 
" style="fill: none; stroke: #000000; stroke-width: 2; stroke-linecap: square"/>
    </g>
    <g id="text_31">
     <!-- $\alpha = 0.99$ -->
     <g transform="translate(533.61827 305.04327) scale(0.1 -0.1)">
      <use xlink:href="#DejaVuSans-Oblique-3b1" transform="translate(0 0.78125)"/>
      <use xlink:href="#DejaVuSans-3d" transform="translate(85.400391 0.78125)"/>
      <use xlink:href="#DejaVuSans-30" transform="translate(188.671875 0.78125)"/>
      <use xlink:href="#DejaVuSans-2e" transform="translate(252.294922 0.78125)"/>
      <use xlink:href="#DejaVuSans-39" transform="translate(284.082031 0.78125)"/>
      <use xlink:href="#DejaVuSans-39" transform="translate(347.705078 0.78125)"/>
     </g>
    </g>
    <g id="line2d_93">
     <path d="M 505.61827 316.221395 
L 515.61827 316.221395 
L 525.61827 316.221395 
" style="fill: none; stroke: #000000; stroke-width: 2.6; stroke-linecap: square"/>
    </g>
    <g id="text_32">
     <!-- $\alpha = 0.98$ -->
     <g transform="translate(533.61827 319.721395) scale(0.1 -0.1)">
      <use xlink:href="#DejaVuSans-Oblique-3b1" transform="translate(0 0.78125)"/>
      <use xlink:href="#DejaVuSans-3d" transform="translate(85.400391 0.78125)"/>
      <use xlink:href="#DejaVuSans-30" transform="translate(188.671875 0.78125)"/>
      <use xlink:href="#DejaVuSans-2e" transform="translate(252.294922 0.78125)"/>
      <use xlink:href="#DejaVuSans-39" transform="translate(284.082031 0.78125)"/>
      <use xlink:href="#DejaVuSans-38" transform="translate(347.705078 0.78125)"/>
     </g>
    </g>
   </g>
  </g>
 </g>
 <defs>
  <clipPath id="pad265c127f">
   <rect x="46.965625" y="10.999219" width="536.852645" height="319.844051"/>
  </clipPath>
 </defs>
</svg>
