<?xml version="1.0" encoding="utf-8" standalone="no"?>
<!DOCTYPE svg PUBLIC "-//W3C//DTD SVG 1.1//EN"
  "http://www.w3.org/Graphics/SVG/1.1/DTD/svg11.dtd">
<svg xmlns:xlink="http://www.w3.org/1999/xlink" width="420.82625pt" height="325.986375pt" viewBox="0 0 420.82625 325.986375" xmlns="http://www.w3.org/2000/svg" version="1.1">
 <metadata>
  <rdf:RDF xmlns:dc="http://purl.org/dc/elements/1.1/" xmlns:cc="http://creativecommons.org/ns#" xmlns:rdf="http://www.w3.org/1999/02/22-rdf-syntax-ns#">
   <cc:Work>
    <dc:type rdf:resource="http://purl.org/dc/dcmitype/StillImage"/>
    <dc:date>2024-09-13T00:28:29.551667</dc:date>
    <dc:format>image/svg+xml</dc:format>
    <dc:creator>
     <cc:Agent>
      <dc:title>Matplotlib v3.9.2, https://matplotlib.org/</dc:title>
     </cc:Agent>
    </dc:creator>
   </cc:Work>
  </rdf:RDF>
 </metadata>
 <defs>
  <style type="text/css">*{stroke-linejoin: round; stroke-linecap: butt}</style>
 </defs>
 <g id="figure_1">
  <g id="patch_1">
   <path d="M 0 325.986375 
L 420.82625 325.986375 
L 420.82625 0 
L 0 0 
z
" style="fill: #ffffff"/>
  </g>
  <g id="axes_1">
   <g id="patch_2">
    <path d="M 56.50625 288.430125 
L 413.62625 288.430125 
L 413.62625 22.318125 
L 56.50625 22.318125 
z
" style="fill: #ffffff"/>
   </g>
   <g id="matplotlib.axis_1">
    <g id="xtick_1">
     <g id="line2d_1">
      <path d="M 72.738977 288.430125 
L 72.738977 22.318125 
" clip-path="url(#p22545b713d)" style="fill: none; stroke: #cccccc; stroke-width: 0.5; stroke-linecap: square"/>
     </g>
     <g id="line2d_2">
      <defs>
       <path id="m4ffa30d2a0" d="M 0 0 
L 0 3.5 
" style="stroke: #000000; stroke-width: 0.8"/>
      </defs>
      <g>
       <use xlink:href="#m4ffa30d2a0" x="72.738977" y="288.430125" style="stroke: #000000; stroke-width: 0.8"/>
      </g>
     </g>
     <g id="text_1">
      <!-- 2 -->
      <g transform="translate(69.557727 303.028562) scale(0.1 -0.1)">
       <defs>
        <path id="DejaVuSans-32" d="M 1228 531 
L 3431 531 
L 3431 0 
L 469 0 
L 469 531 
Q 828 903 1448 1529 
Q 2069 2156 2228 2338 
Q 2531 2678 2651 2914 
Q 2772 3150 2772 3378 
Q 2772 3750 2511 3984 
Q 2250 4219 1831 4219 
Q 1534 4219 1204 4116 
Q 875 4013 500 3803 
L 500 4441 
Q 881 4594 1212 4672 
Q 1544 4750 1819 4750 
Q 2544 4750 2975 4387 
Q 3406 4025 3406 3419 
Q 3406 3131 3298 2873 
Q 3191 2616 2906 2266 
Q 2828 2175 2409 1742 
Q 1991 1309 1228 531 
z
" transform="scale(0.015625)"/>
       </defs>
       <use xlink:href="#DejaVuSans-32"/>
      </g>
     </g>
    </g>
    <g id="xtick_2">
     <g id="line2d_3">
      <path d="M 108.811705 288.430125 
L 108.811705 22.318125 
" clip-path="url(#p22545b713d)" style="fill: none; stroke: #cccccc; stroke-width: 0.5; stroke-linecap: square"/>
     </g>
     <g id="line2d_4">
      <g>
       <use xlink:href="#m4ffa30d2a0" x="108.811705" y="288.430125" style="stroke: #000000; stroke-width: 0.8"/>
      </g>
     </g>
     <g id="text_2">
      <!-- 4 -->
      <g transform="translate(105.630455 303.028562) scale(0.1 -0.1)">
       <defs>
        <path id="DejaVuSans-34" d="M 2419 4116 
L 825 1625 
L 2419 1625 
L 2419 4116 
z
M 2253 4666 
L 3047 4666 
L 3047 1625 
L 3713 1625 
L 3713 1100 
L 3047 1100 
L 3047 0 
L 2419 0 
L 2419 1100 
L 313 1100 
L 313 1709 
L 2253 4666 
z
" transform="scale(0.015625)"/>
       </defs>
       <use xlink:href="#DejaVuSans-34"/>
      </g>
     </g>
    </g>
    <g id="xtick_3">
     <g id="line2d_5">
      <path d="M 144.884432 288.430125 
L 144.884432 22.318125 
" clip-path="url(#p22545b713d)" style="fill: none; stroke: #cccccc; stroke-width: 0.5; stroke-linecap: square"/>
     </g>
     <g id="line2d_6">
      <g>
       <use xlink:href="#m4ffa30d2a0" x="144.884432" y="288.430125" style="stroke: #000000; stroke-width: 0.8"/>
      </g>
     </g>
     <g id="text_3">
      <!-- 6 -->
      <g transform="translate(141.703182 303.028562) scale(0.1 -0.1)">
       <defs>
        <path id="DejaVuSans-36" d="M 2113 2584 
Q 1688 2584 1439 2293 
Q 1191 2003 1191 1497 
Q 1191 994 1439 701 
Q 1688 409 2113 409 
Q 2538 409 2786 701 
Q 3034 994 3034 1497 
Q 3034 2003 2786 2293 
Q 2538 2584 2113 2584 
z
M 3366 4563 
L 3366 3988 
Q 3128 4100 2886 4159 
Q 2644 4219 2406 4219 
Q 1781 4219 1451 3797 
Q 1122 3375 1075 2522 
Q 1259 2794 1537 2939 
Q 1816 3084 2150 3084 
Q 2853 3084 3261 2657 
Q 3669 2231 3669 1497 
Q 3669 778 3244 343 
Q 2819 -91 2113 -91 
Q 1303 -91 875 529 
Q 447 1150 447 2328 
Q 447 3434 972 4092 
Q 1497 4750 2381 4750 
Q 2619 4750 2861 4703 
Q 3103 4656 3366 4563 
z
" transform="scale(0.015625)"/>
       </defs>
       <use xlink:href="#DejaVuSans-36"/>
      </g>
     </g>
    </g>
    <g id="xtick_4">
     <g id="line2d_7">
      <path d="M 180.957159 288.430125 
L 180.957159 22.318125 
" clip-path="url(#p22545b713d)" style="fill: none; stroke: #cccccc; stroke-width: 0.5; stroke-linecap: square"/>
     </g>
     <g id="line2d_8">
      <g>
       <use xlink:href="#m4ffa30d2a0" x="180.957159" y="288.430125" style="stroke: #000000; stroke-width: 0.8"/>
      </g>
     </g>
     <g id="text_4">
      <!-- 8 -->
      <g transform="translate(177.775909 303.028562) scale(0.1 -0.1)">
       <defs>
        <path id="DejaVuSans-38" d="M 2034 2216 
Q 1584 2216 1326 1975 
Q 1069 1734 1069 1313 
Q 1069 891 1326 650 
Q 1584 409 2034 409 
Q 2484 409 2743 651 
Q 3003 894 3003 1313 
Q 3003 1734 2745 1975 
Q 2488 2216 2034 2216 
z
M 1403 2484 
Q 997 2584 770 2862 
Q 544 3141 544 3541 
Q 544 4100 942 4425 
Q 1341 4750 2034 4750 
Q 2731 4750 3128 4425 
Q 3525 4100 3525 3541 
Q 3525 3141 3298 2862 
Q 3072 2584 2669 2484 
Q 3125 2378 3379 2068 
Q 3634 1759 3634 1313 
Q 3634 634 3220 271 
Q 2806 -91 2034 -91 
Q 1263 -91 848 271 
Q 434 634 434 1313 
Q 434 1759 690 2068 
Q 947 2378 1403 2484 
z
M 1172 3481 
Q 1172 3119 1398 2916 
Q 1625 2713 2034 2713 
Q 2441 2713 2670 2916 
Q 2900 3119 2900 3481 
Q 2900 3844 2670 4047 
Q 2441 4250 2034 4250 
Q 1625 4250 1398 4047 
Q 1172 3844 1172 3481 
z
" transform="scale(0.015625)"/>
       </defs>
       <use xlink:href="#DejaVuSans-38"/>
      </g>
     </g>
    </g>
    <g id="xtick_5">
     <g id="line2d_9">
      <path d="M 217.029886 288.430125 
L 217.029886 22.318125 
" clip-path="url(#p22545b713d)" style="fill: none; stroke: #cccccc; stroke-width: 0.5; stroke-linecap: square"/>
     </g>
     <g id="line2d_10">
      <g>
       <use xlink:href="#m4ffa30d2a0" x="217.029886" y="288.430125" style="stroke: #000000; stroke-width: 0.8"/>
      </g>
     </g>
     <g id="text_5">
      <!-- 10 -->
      <g transform="translate(210.667386 303.028562) scale(0.1 -0.1)">
       <defs>
        <path id="DejaVuSans-31" d="M 794 531 
L 1825 531 
L 1825 4091 
L 703 3866 
L 703 4441 
L 1819 4666 
L 2450 4666 
L 2450 531 
L 3481 531 
L 3481 0 
L 794 0 
L 794 531 
z
" transform="scale(0.015625)"/>
        <path id="DejaVuSans-30" d="M 2034 4250 
Q 1547 4250 1301 3770 
Q 1056 3291 1056 2328 
Q 1056 1369 1301 889 
Q 1547 409 2034 409 
Q 2525 409 2770 889 
Q 3016 1369 3016 2328 
Q 3016 3291 2770 3770 
Q 2525 4250 2034 4250 
z
M 2034 4750 
Q 2819 4750 3233 4129 
Q 3647 3509 3647 2328 
Q 3647 1150 3233 529 
Q 2819 -91 2034 -91 
Q 1250 -91 836 529 
Q 422 1150 422 2328 
Q 422 3509 836 4129 
Q 1250 4750 2034 4750 
z
" transform="scale(0.015625)"/>
       </defs>
       <use xlink:href="#DejaVuSans-31"/>
       <use xlink:href="#DejaVuSans-30" x="63.623047"/>
      </g>
     </g>
    </g>
    <g id="xtick_6">
     <g id="line2d_11">
      <path d="M 253.102614 288.430125 
L 253.102614 22.318125 
" clip-path="url(#p22545b713d)" style="fill: none; stroke: #cccccc; stroke-width: 0.5; stroke-linecap: square"/>
     </g>
     <g id="line2d_12">
      <g>
       <use xlink:href="#m4ffa30d2a0" x="253.102614" y="288.430125" style="stroke: #000000; stroke-width: 0.8"/>
      </g>
     </g>
     <g id="text_6">
      <!-- 12 -->
      <g transform="translate(246.740114 303.028562) scale(0.1 -0.1)">
       <use xlink:href="#DejaVuSans-31"/>
       <use xlink:href="#DejaVuSans-32" x="63.623047"/>
      </g>
     </g>
    </g>
    <g id="xtick_7">
     <g id="line2d_13">
      <path d="M 289.175341 288.430125 
L 289.175341 22.318125 
" clip-path="url(#p22545b713d)" style="fill: none; stroke: #cccccc; stroke-width: 0.5; stroke-linecap: square"/>
     </g>
     <g id="line2d_14">
      <g>
       <use xlink:href="#m4ffa30d2a0" x="289.175341" y="288.430125" style="stroke: #000000; stroke-width: 0.8"/>
      </g>
     </g>
     <g id="text_7">
      <!-- 14 -->
      <g transform="translate(282.812841 303.028562) scale(0.1 -0.1)">
       <use xlink:href="#DejaVuSans-31"/>
       <use xlink:href="#DejaVuSans-34" x="63.623047"/>
      </g>
     </g>
    </g>
    <g id="xtick_8">
     <g id="line2d_15">
      <path d="M 325.248068 288.430125 
L 325.248068 22.318125 
" clip-path="url(#p22545b713d)" style="fill: none; stroke: #cccccc; stroke-width: 0.5; stroke-linecap: square"/>
     </g>
     <g id="line2d_16">
      <g>
       <use xlink:href="#m4ffa30d2a0" x="325.248068" y="288.430125" style="stroke: #000000; stroke-width: 0.8"/>
      </g>
     </g>
     <g id="text_8">
      <!-- 16 -->
      <g transform="translate(318.885568 303.028562) scale(0.1 -0.1)">
       <use xlink:href="#DejaVuSans-31"/>
       <use xlink:href="#DejaVuSans-36" x="63.623047"/>
      </g>
     </g>
    </g>
    <g id="xtick_9">
     <g id="line2d_17">
      <path d="M 361.320795 288.430125 
L 361.320795 22.318125 
" clip-path="url(#p22545b713d)" style="fill: none; stroke: #cccccc; stroke-width: 0.5; stroke-linecap: square"/>
     </g>
     <g id="line2d_18">
      <g>
       <use xlink:href="#m4ffa30d2a0" x="361.320795" y="288.430125" style="stroke: #000000; stroke-width: 0.8"/>
      </g>
     </g>
     <g id="text_9">
      <!-- 18 -->
      <g transform="translate(354.958295 303.028562) scale(0.1 -0.1)">
       <use xlink:href="#DejaVuSans-31"/>
       <use xlink:href="#DejaVuSans-38" x="63.623047"/>
      </g>
     </g>
    </g>
    <g id="xtick_10">
     <g id="line2d_19">
      <path d="M 397.393523 288.430125 
L 397.393523 22.318125 
" clip-path="url(#p22545b713d)" style="fill: none; stroke: #cccccc; stroke-width: 0.5; stroke-linecap: square"/>
     </g>
     <g id="line2d_20">
      <g>
       <use xlink:href="#m4ffa30d2a0" x="397.393523" y="288.430125" style="stroke: #000000; stroke-width: 0.8"/>
      </g>
     </g>
     <g id="text_10">
      <!-- 20 -->
      <g transform="translate(391.031023 303.028562) scale(0.1 -0.1)">
       <use xlink:href="#DejaVuSans-32"/>
       <use xlink:href="#DejaVuSans-30" x="63.623047"/>
      </g>
     </g>
    </g>
    <g id="text_11">
     <!-- w -->
     <g transform="translate(230.977187 316.706687) scale(0.1 -0.1)">
      <defs>
       <path id="DejaVuSans-77" d="M 269 3500 
L 844 3500 
L 1563 769 
L 2278 3500 
L 2956 3500 
L 3675 769 
L 4391 3500 
L 4966 3500 
L 4050 0 
L 3372 0 
L 2619 2869 
L 1863 0 
L 1184 0 
L 269 3500 
z
" transform="scale(0.015625)"/>
      </defs>
      <use xlink:href="#DejaVuSans-77"/>
     </g>
    </g>
   </g>
   <g id="matplotlib.axis_2">
    <g id="ytick_1">
     <g id="line2d_21">
      <defs>
       <path id="mc103082b14" d="M 0 0 
L -3.5 0 
" style="stroke: #000000; stroke-width: 0.8"/>
      </defs>
      <g>
       <use xlink:href="#mc103082b14" x="56.50625" y="238.135828" style="stroke: #000000; stroke-width: 0.8"/>
      </g>
     </g>
     <g id="text_12">
      <!-- 0.200 -->
      <g transform="translate(20.878125 241.935047) scale(0.1 -0.1)">
       <defs>
        <path id="DejaVuSans-2e" d="M 684 794 
L 1344 794 
L 1344 0 
L 684 0 
L 684 794 
z
" transform="scale(0.015625)"/>
       </defs>
       <use xlink:href="#DejaVuSans-30"/>
       <use xlink:href="#DejaVuSans-2e" x="63.623047"/>
       <use xlink:href="#DejaVuSans-32" x="95.410156"/>
       <use xlink:href="#DejaVuSans-30" x="159.033203"/>
       <use xlink:href="#DejaVuSans-30" x="222.65625"/>
      </g>
     </g>
    </g>
    <g id="ytick_2">
     <g id="line2d_22">
      <g>
       <use xlink:href="#mc103082b14" x="56.50625" y="187.204766" style="stroke: #000000; stroke-width: 0.8"/>
      </g>
     </g>
     <g id="text_13">
      <!-- 0.400 -->
      <g transform="translate(20.878125 191.003984) scale(0.1 -0.1)">
       <use xlink:href="#DejaVuSans-30"/>
       <use xlink:href="#DejaVuSans-2e" x="63.623047"/>
       <use xlink:href="#DejaVuSans-34" x="95.410156"/>
       <use xlink:href="#DejaVuSans-30" x="159.033203"/>
       <use xlink:href="#DejaVuSans-30" x="222.65625"/>
      </g>
     </g>
    </g>
    <g id="ytick_3">
     <g id="line2d_23">
      <g>
       <use xlink:href="#mc103082b14" x="56.50625" y="136.273703" style="stroke: #000000; stroke-width: 0.8"/>
      </g>
     </g>
     <g id="text_14">
      <!-- 0.600 -->
      <g transform="translate(20.878125 140.072922) scale(0.1 -0.1)">
       <use xlink:href="#DejaVuSans-30"/>
       <use xlink:href="#DejaVuSans-2e" x="63.623047"/>
       <use xlink:href="#DejaVuSans-36" x="95.410156"/>
       <use xlink:href="#DejaVuSans-30" x="159.033203"/>
       <use xlink:href="#DejaVuSans-30" x="222.65625"/>
      </g>
     </g>
    </g>
    <g id="ytick_4">
     <g id="line2d_24">
      <g>
       <use xlink:href="#mc103082b14" x="56.50625" y="85.342641" style="stroke: #000000; stroke-width: 0.8"/>
      </g>
     </g>
     <g id="text_15">
      <!-- 0.800 -->
      <g transform="translate(20.878125 89.14186) scale(0.1 -0.1)">
       <use xlink:href="#DejaVuSans-30"/>
       <use xlink:href="#DejaVuSans-2e" x="63.623047"/>
       <use xlink:href="#DejaVuSans-38" x="95.410156"/>
       <use xlink:href="#DejaVuSans-30" x="159.033203"/>
       <use xlink:href="#DejaVuSans-30" x="222.65625"/>
      </g>
     </g>
    </g>
    <g id="ytick_5">
     <g id="line2d_25">
      <g>
       <use xlink:href="#mc103082b14" x="56.50625" y="34.411578" style="stroke: #000000; stroke-width: 0.8"/>
      </g>
     </g>
     <g id="text_16">
      <!-- 1.000 -->
      <g transform="translate(20.878125 38.210797) scale(0.1 -0.1)">
       <use xlink:href="#DejaVuSans-31"/>
       <use xlink:href="#DejaVuSans-2e" x="63.623047"/>
       <use xlink:href="#DejaVuSans-30" x="95.410156"/>
       <use xlink:href="#DejaVuSans-30" x="159.033203"/>
       <use xlink:href="#DejaVuSans-30" x="222.65625"/>
      </g>
     </g>
    </g>
    <g id="text_17">
     <!-- Density -->
     <g transform="translate(14.798437 174.382719) rotate(-90) scale(0.1 -0.1)">
      <defs>
       <path id="DejaVuSans-44" d="M 1259 4147 
L 1259 519 
L 2022 519 
Q 2988 519 3436 956 
Q 3884 1394 3884 2338 
Q 3884 3275 3436 3711 
Q 2988 4147 2022 4147 
L 1259 4147 
z
M 628 4666 
L 1925 4666 
Q 3281 4666 3915 4102 
Q 4550 3538 4550 2338 
Q 4550 1131 3912 565 
Q 3275 0 1925 0 
L 628 0 
L 628 4666 
z
" transform="scale(0.015625)"/>
       <path id="DejaVuSans-65" d="M 3597 1894 
L 3597 1613 
L 953 1613 
Q 991 1019 1311 708 
Q 1631 397 2203 397 
Q 2534 397 2845 478 
Q 3156 559 3463 722 
L 3463 178 
Q 3153 47 2828 -22 
Q 2503 -91 2169 -91 
Q 1331 -91 842 396 
Q 353 884 353 1716 
Q 353 2575 817 3079 
Q 1281 3584 2069 3584 
Q 2775 3584 3186 3129 
Q 3597 2675 3597 1894 
z
M 3022 2063 
Q 3016 2534 2758 2815 
Q 2500 3097 2075 3097 
Q 1594 3097 1305 2825 
Q 1016 2553 972 2059 
L 3022 2063 
z
" transform="scale(0.015625)"/>
       <path id="DejaVuSans-6e" d="M 3513 2113 
L 3513 0 
L 2938 0 
L 2938 2094 
Q 2938 2591 2744 2837 
Q 2550 3084 2163 3084 
Q 1697 3084 1428 2787 
Q 1159 2491 1159 1978 
L 1159 0 
L 581 0 
L 581 3500 
L 1159 3500 
L 1159 2956 
Q 1366 3272 1645 3428 
Q 1925 3584 2291 3584 
Q 2894 3584 3203 3211 
Q 3513 2838 3513 2113 
z
" transform="scale(0.015625)"/>
       <path id="DejaVuSans-73" d="M 2834 3397 
L 2834 2853 
Q 2591 2978 2328 3040 
Q 2066 3103 1784 3103 
Q 1356 3103 1142 2972 
Q 928 2841 928 2578 
Q 928 2378 1081 2264 
Q 1234 2150 1697 2047 
L 1894 2003 
Q 2506 1872 2764 1633 
Q 3022 1394 3022 966 
Q 3022 478 2636 193 
Q 2250 -91 1575 -91 
Q 1294 -91 989 -36 
Q 684 19 347 128 
L 347 722 
Q 666 556 975 473 
Q 1284 391 1588 391 
Q 1994 391 2212 530 
Q 2431 669 2431 922 
Q 2431 1156 2273 1281 
Q 2116 1406 1581 1522 
L 1381 1569 
Q 847 1681 609 1914 
Q 372 2147 372 2553 
Q 372 3047 722 3315 
Q 1072 3584 1716 3584 
Q 2034 3584 2315 3537 
Q 2597 3491 2834 3397 
z
" transform="scale(0.015625)"/>
       <path id="DejaVuSans-69" d="M 603 3500 
L 1178 3500 
L 1178 0 
L 603 0 
L 603 3500 
z
M 603 4863 
L 1178 4863 
L 1178 4134 
L 603 4134 
L 603 4863 
z
" transform="scale(0.015625)"/>
       <path id="DejaVuSans-74" d="M 1172 4494 
L 1172 3500 
L 2356 3500 
L 2356 3053 
L 1172 3053 
L 1172 1153 
Q 1172 725 1289 603 
Q 1406 481 1766 481 
L 2356 481 
L 2356 0 
L 1766 0 
Q 1100 0 847 248 
Q 594 497 594 1153 
L 594 3053 
L 172 3053 
L 172 3500 
L 594 3500 
L 594 4494 
L 1172 4494 
z
" transform="scale(0.015625)"/>
       <path id="DejaVuSans-79" d="M 2059 -325 
Q 1816 -950 1584 -1140 
Q 1353 -1331 966 -1331 
L 506 -1331 
L 506 -850 
L 844 -850 
Q 1081 -850 1212 -737 
Q 1344 -625 1503 -206 
L 1606 56 
L 191 3500 
L 800 3500 
L 1894 763 
L 2988 3500 
L 3597 3500 
L 2059 -325 
z
" transform="scale(0.015625)"/>
      </defs>
      <use xlink:href="#DejaVuSans-44"/>
      <use xlink:href="#DejaVuSans-65" x="77.001953"/>
      <use xlink:href="#DejaVuSans-6e" x="138.525391"/>
      <use xlink:href="#DejaVuSans-73" x="201.904297"/>
      <use xlink:href="#DejaVuSans-69" x="254.003906"/>
      <use xlink:href="#DejaVuSans-74" x="281.787109"/>
      <use xlink:href="#DejaVuSans-79" x="320.996094"/>
     </g>
    </g>
   </g>
   <g id="line2d_26">
    <path d="M 72.738977 110.072975 
L 90.775341 157.381995 
L 108.811705 175.76989 
L 126.848068 194.614004 
L 144.884432 202.81337 
L 162.920795 210.577414 
L 180.957159 215.894204 
L 198.993523 220.042139 
L 217.029886 223.820874 
L 235.06625 227.686276 
L 253.102614 230.499913 
L 271.138977 233.565745 
L 289.175341 235.421868 
L 307.211705 237.988617 
L 325.248068 239.526455 
L 343.284432 241.11781 
L 361.320795 243.503856 
L 379.357159 244.853317 
L 397.393523 246.577218 
" clip-path="url(#p22545b713d)" style="fill: none; stroke: #00ee00; stroke-linecap: square"/>
    <defs>
     <path id="m7996ad0437" d="M 0 1 
C 0.265203 1 0.51958 0.894634 0.707107 0.707107 
C 0.894634 0.51958 1 0.265203 1 0 
C 1 -0.265203 0.894634 -0.51958 0.707107 -0.707107 
C 0.51958 -0.894634 0.265203 -1 0 -1 
C -0.265203 -1 -0.51958 -0.894634 -0.707107 -0.707107 
C -0.894634 -0.51958 -1 -0.265203 -1 0 
C -1 0.265203 -0.894634 0.51958 -0.707107 0.707107 
C -0.51958 0.894634 -0.265203 1 0 1 
z
" style="stroke: #00ee00"/>
    </defs>
    <g clip-path="url(#p22545b713d)">
     <use xlink:href="#m7996ad0437" x="72.738977" y="110.072975" style="fill: #00ee00; stroke: #00ee00"/>
     <use xlink:href="#m7996ad0437" x="90.775341" y="157.381995" style="fill: #00ee00; stroke: #00ee00"/>
     <use xlink:href="#m7996ad0437" x="108.811705" y="175.76989" style="fill: #00ee00; stroke: #00ee00"/>
     <use xlink:href="#m7996ad0437" x="126.848068" y="194.614004" style="fill: #00ee00; stroke: #00ee00"/>
     <use xlink:href="#m7996ad0437" x="144.884432" y="202.81337" style="fill: #00ee00; stroke: #00ee00"/>
     <use xlink:href="#m7996ad0437" x="162.920795" y="210.577414" style="fill: #00ee00; stroke: #00ee00"/>
     <use xlink:href="#m7996ad0437" x="180.957159" y="215.894204" style="fill: #00ee00; stroke: #00ee00"/>
     <use xlink:href="#m7996ad0437" x="198.993523" y="220.042139" style="fill: #00ee00; stroke: #00ee00"/>
     <use xlink:href="#m7996ad0437" x="217.029886" y="223.820874" style="fill: #00ee00; stroke: #00ee00"/>
     <use xlink:href="#m7996ad0437" x="235.06625" y="227.686276" style="fill: #00ee00; stroke: #00ee00"/>
     <use xlink:href="#m7996ad0437" x="253.102614" y="230.499913" style="fill: #00ee00; stroke: #00ee00"/>
     <use xlink:href="#m7996ad0437" x="271.138977" y="233.565745" style="fill: #00ee00; stroke: #00ee00"/>
     <use xlink:href="#m7996ad0437" x="289.175341" y="235.421868" style="fill: #00ee00; stroke: #00ee00"/>
     <use xlink:href="#m7996ad0437" x="307.211705" y="237.988617" style="fill: #00ee00; stroke: #00ee00"/>
     <use xlink:href="#m7996ad0437" x="325.248068" y="239.526455" style="fill: #00ee00; stroke: #00ee00"/>
     <use xlink:href="#m7996ad0437" x="343.284432" y="241.11781" style="fill: #00ee00; stroke: #00ee00"/>
     <use xlink:href="#m7996ad0437" x="361.320795" y="243.503856" style="fill: #00ee00; stroke: #00ee00"/>
     <use xlink:href="#m7996ad0437" x="379.357159" y="244.853317" style="fill: #00ee00; stroke: #00ee00"/>
     <use xlink:href="#m7996ad0437" x="397.393523" y="246.577218" style="fill: #00ee00; stroke: #00ee00"/>
    </g>
   </g>
   <g id="line2d_27">
    <path d="M 72.738977 34.414125 
L 90.775341 106.834451 
L 108.811705 148.829096 
L 126.848068 177.26619 
L 144.884432 193.495066 
L 162.920795 206.380443 
L 180.957159 215.395045 
L 198.993523 222.133027 
L 217.029886 227.414384 
L 235.06625 232.22214 
L 253.102614 236.087665 
L 271.138977 239.436254 
L 289.175341 242.11508 
L 307.211705 244.633504 
L 325.248068 246.716453 
L 343.284432 248.453056 
L 361.320795 250.334873 
L 379.357159 251.824487 
L 397.393523 253.135839 
" clip-path="url(#p22545b713d)" style="fill: none; stroke: #00cc00; stroke-linecap: square"/>
    <defs>
     <path id="m0a378f3b69" d="M 0 1 
C 0.265203 1 0.51958 0.894634 0.707107 0.707107 
C 0.894634 0.51958 1 0.265203 1 0 
C 1 -0.265203 0.894634 -0.51958 0.707107 -0.707107 
C 0.51958 -0.894634 0.265203 -1 0 -1 
C -0.265203 -1 -0.51958 -0.894634 -0.707107 -0.707107 
C -0.894634 -0.51958 -1 -0.265203 -1 0 
C -1 0.265203 -0.894634 0.51958 -0.707107 0.707107 
C -0.51958 0.894634 -0.265203 1 0 1 
z
" style="stroke: #00cc00"/>
    </defs>
    <g clip-path="url(#p22545b713d)">
     <use xlink:href="#m0a378f3b69" x="72.738977" y="34.414125" style="fill: #00cc00; stroke: #00cc00"/>
     <use xlink:href="#m0a378f3b69" x="90.775341" y="106.834451" style="fill: #00cc00; stroke: #00cc00"/>
     <use xlink:href="#m0a378f3b69" x="108.811705" y="148.829096" style="fill: #00cc00; stroke: #00cc00"/>
     <use xlink:href="#m0a378f3b69" x="126.848068" y="177.26619" style="fill: #00cc00; stroke: #00cc00"/>
     <use xlink:href="#m0a378f3b69" x="144.884432" y="193.495066" style="fill: #00cc00; stroke: #00cc00"/>
     <use xlink:href="#m0a378f3b69" x="162.920795" y="206.380443" style="fill: #00cc00; stroke: #00cc00"/>
     <use xlink:href="#m0a378f3b69" x="180.957159" y="215.395045" style="fill: #00cc00; stroke: #00cc00"/>
     <use xlink:href="#m0a378f3b69" x="198.993523" y="222.133027" style="fill: #00cc00; stroke: #00cc00"/>
     <use xlink:href="#m0a378f3b69" x="217.029886" y="227.414384" style="fill: #00cc00; stroke: #00cc00"/>
     <use xlink:href="#m0a378f3b69" x="235.06625" y="232.22214" style="fill: #00cc00; stroke: #00cc00"/>
     <use xlink:href="#m0a378f3b69" x="253.102614" y="236.087665" style="fill: #00cc00; stroke: #00cc00"/>
     <use xlink:href="#m0a378f3b69" x="271.138977" y="239.436254" style="fill: #00cc00; stroke: #00cc00"/>
     <use xlink:href="#m0a378f3b69" x="289.175341" y="242.11508" style="fill: #00cc00; stroke: #00cc00"/>
     <use xlink:href="#m0a378f3b69" x="307.211705" y="244.633504" style="fill: #00cc00; stroke: #00cc00"/>
     <use xlink:href="#m0a378f3b69" x="325.248068" y="246.716453" style="fill: #00cc00; stroke: #00cc00"/>
     <use xlink:href="#m0a378f3b69" x="343.284432" y="248.453056" style="fill: #00cc00; stroke: #00cc00"/>
     <use xlink:href="#m0a378f3b69" x="361.320795" y="250.334873" style="fill: #00cc00; stroke: #00cc00"/>
     <use xlink:href="#m0a378f3b69" x="379.357159" y="251.824487" style="fill: #00cc00; stroke: #00cc00"/>
     <use xlink:href="#m0a378f3b69" x="397.393523" y="253.135839" style="fill: #00cc00; stroke: #00cc00"/>
    </g>
   </g>
   <g id="line2d_28">
    <path d="M 72.738977 34.414125 
L 90.775341 34.414125 
L 108.811705 105.887829 
L 126.848068 150.039902 
L 144.884432 174.522297 
L 162.920795 194.207188 
L 180.957159 206.817654 
L 198.993523 216.904535 
L 217.029886 224.006789 
L 235.06625 230.011511 
L 253.102614 235.000167 
L 271.138977 239.268162 
L 289.175341 242.746707 
L 307.211705 245.718488 
L 325.248068 248.484026 
L 343.284432 250.584862 
L 361.320795 252.662818 
L 379.357159 254.363858 
L 397.393523 256.039461 
" clip-path="url(#p22545b713d)" style="fill: none; stroke: #009900; stroke-linecap: square"/>
    <defs>
     <path id="m2ba43227ff" d="M 0 1 
C 0.265203 1 0.51958 0.894634 0.707107 0.707107 
C 0.894634 0.51958 1 0.265203 1 0 
C 1 -0.265203 0.894634 -0.51958 0.707107 -0.707107 
C 0.51958 -0.894634 0.265203 -1 0 -1 
C -0.265203 -1 -0.51958 -0.894634 -0.707107 -0.707107 
C -0.894634 -0.51958 -1 -0.265203 -1 0 
C -1 0.265203 -0.894634 0.51958 -0.707107 0.707107 
C -0.51958 0.894634 -0.265203 1 0 1 
z
" style="stroke: #009900"/>
    </defs>
    <g clip-path="url(#p22545b713d)">
     <use xlink:href="#m2ba43227ff" x="72.738977" y="34.414125" style="fill: #009900; stroke: #009900"/>
     <use xlink:href="#m2ba43227ff" x="90.775341" y="34.414125" style="fill: #009900; stroke: #009900"/>
     <use xlink:href="#m2ba43227ff" x="108.811705" y="105.887829" style="fill: #009900; stroke: #009900"/>
     <use xlink:href="#m2ba43227ff" x="126.848068" y="150.039902" style="fill: #009900; stroke: #009900"/>
     <use xlink:href="#m2ba43227ff" x="144.884432" y="174.522297" style="fill: #009900; stroke: #009900"/>
     <use xlink:href="#m2ba43227ff" x="162.920795" y="194.207188" style="fill: #009900; stroke: #009900"/>
     <use xlink:href="#m2ba43227ff" x="180.957159" y="206.817654" style="fill: #009900; stroke: #009900"/>
     <use xlink:href="#m2ba43227ff" x="198.993523" y="216.904535" style="fill: #009900; stroke: #009900"/>
     <use xlink:href="#m2ba43227ff" x="217.029886" y="224.006789" style="fill: #009900; stroke: #009900"/>
     <use xlink:href="#m2ba43227ff" x="235.06625" y="230.011511" style="fill: #009900; stroke: #009900"/>
     <use xlink:href="#m2ba43227ff" x="253.102614" y="235.000167" style="fill: #009900; stroke: #009900"/>
     <use xlink:href="#m2ba43227ff" x="271.138977" y="239.268162" style="fill: #009900; stroke: #009900"/>
     <use xlink:href="#m2ba43227ff" x="289.175341" y="242.746707" style="fill: #009900; stroke: #009900"/>
     <use xlink:href="#m2ba43227ff" x="307.211705" y="245.718488" style="fill: #009900; stroke: #009900"/>
     <use xlink:href="#m2ba43227ff" x="325.248068" y="248.484026" style="fill: #009900; stroke: #009900"/>
     <use xlink:href="#m2ba43227ff" x="343.284432" y="250.584862" style="fill: #009900; stroke: #009900"/>
     <use xlink:href="#m2ba43227ff" x="361.320795" y="252.662818" style="fill: #009900; stroke: #009900"/>
     <use xlink:href="#m2ba43227ff" x="379.357159" y="254.363858" style="fill: #009900; stroke: #009900"/>
     <use xlink:href="#m2ba43227ff" x="397.393523" y="256.039461" style="fill: #009900; stroke: #009900"/>
    </g>
   </g>
   <g id="line2d_29">
    <path d="M 72.738977 34.414125 
L 90.775341 34.414125 
L 108.811705 34.414125 
L 126.848068 105.567665 
L 144.884432 149.136986 
L 162.920795 175.152735 
L 180.957159 193.908272 
L 198.993523 207.06896 
L 217.029886 217.094822 
L 235.06625 224.665762 
L 253.102614 230.859016 
L 271.138977 235.868105 
L 289.175341 240.232933 
L 307.211705 243.871978 
L 325.248068 246.994069 
L 343.284432 249.576266 
L 361.320795 251.852877 
L 379.357159 253.823891 
L 397.393523 255.695611 
" clip-path="url(#p22545b713d)" style="fill: none; stroke: #006600; stroke-linecap: square"/>
    <defs>
     <path id="mbd9270b488" d="M 0 1 
C 0.265203 1 0.51958 0.894634 0.707107 0.707107 
C 0.894634 0.51958 1 0.265203 1 0 
C 1 -0.265203 0.894634 -0.51958 0.707107 -0.707107 
C 0.51958 -0.894634 0.265203 -1 0 -1 
C -0.265203 -1 -0.51958 -0.894634 -0.707107 -0.707107 
C -0.894634 -0.51958 -1 -0.265203 -1 0 
C -1 0.265203 -0.894634 0.51958 -0.707107 0.707107 
C -0.51958 0.894634 -0.265203 1 0 1 
z
" style="stroke: #006600"/>
    </defs>
    <g clip-path="url(#p22545b713d)">
     <use xlink:href="#mbd9270b488" x="72.738977" y="34.414125" style="fill: #006600; stroke: #006600"/>
     <use xlink:href="#mbd9270b488" x="90.775341" y="34.414125" style="fill: #006600; stroke: #006600"/>
     <use xlink:href="#mbd9270b488" x="108.811705" y="34.414125" style="fill: #006600; stroke: #006600"/>
     <use xlink:href="#mbd9270b488" x="126.848068" y="105.567665" style="fill: #006600; stroke: #006600"/>
     <use xlink:href="#mbd9270b488" x="144.884432" y="149.136986" style="fill: #006600; stroke: #006600"/>
     <use xlink:href="#mbd9270b488" x="162.920795" y="175.152735" style="fill: #006600; stroke: #006600"/>
     <use xlink:href="#mbd9270b488" x="180.957159" y="193.908272" style="fill: #006600; stroke: #006600"/>
     <use xlink:href="#mbd9270b488" x="198.993523" y="207.06896" style="fill: #006600; stroke: #006600"/>
     <use xlink:href="#mbd9270b488" x="217.029886" y="217.094822" style="fill: #006600; stroke: #006600"/>
     <use xlink:href="#mbd9270b488" x="235.06625" y="224.665762" style="fill: #006600; stroke: #006600"/>
     <use xlink:href="#mbd9270b488" x="253.102614" y="230.859016" style="fill: #006600; stroke: #006600"/>
     <use xlink:href="#mbd9270b488" x="271.138977" y="235.868105" style="fill: #006600; stroke: #006600"/>
     <use xlink:href="#mbd9270b488" x="289.175341" y="240.232933" style="fill: #006600; stroke: #006600"/>
     <use xlink:href="#mbd9270b488" x="307.211705" y="243.871978" style="fill: #006600; stroke: #006600"/>
     <use xlink:href="#mbd9270b488" x="325.248068" y="246.994069" style="fill: #006600; stroke: #006600"/>
     <use xlink:href="#mbd9270b488" x="343.284432" y="249.576266" style="fill: #006600; stroke: #006600"/>
     <use xlink:href="#mbd9270b488" x="361.320795" y="251.852877" style="fill: #006600; stroke: #006600"/>
     <use xlink:href="#mbd9270b488" x="379.357159" y="253.823891" style="fill: #006600; stroke: #006600"/>
     <use xlink:href="#mbd9270b488" x="397.393523" y="255.695611" style="fill: #006600; stroke: #006600"/>
    </g>
   </g>
   <g id="line2d_30">
    <path d="M 72.738977 110.072975 
L 90.775341 147.473159 
L 108.811705 172.561137 
L 126.848068 189.365348 
L 144.884432 202.102846 
L 162.920795 212.105438 
L 180.957159 219.974068 
L 198.993523 226.100874 
L 217.029886 231.537625 
L 235.06625 236.108569 
L 253.102614 240.328142 
L 271.138977 243.722618 
L 289.175341 246.786066 
L 307.211705 249.398772 
L 325.248068 251.62185 
L 343.284432 253.613199 
L 361.320795 255.46705 
L 379.357159 257.124818 
L 397.393523 258.731679 
" clip-path="url(#p22545b713d)" style="fill: none; stroke: #0000aa; stroke-linecap: square"/>
    <defs>
     <path id="m6b51393480" d="M 0 1 
C 0.265203 1 0.51958 0.894634 0.707107 0.707107 
C 0.894634 0.51958 1 0.265203 1 0 
C 1 -0.265203 0.894634 -0.51958 0.707107 -0.707107 
C 0.51958 -0.894634 0.265203 -1 0 -1 
C -0.265203 -1 -0.51958 -0.894634 -0.707107 -0.707107 
C -0.894634 -0.51958 -1 -0.265203 -1 0 
C -1 0.265203 -0.894634 0.51958 -0.707107 0.707107 
C -0.51958 0.894634 -0.265203 1 0 1 
z
" style="stroke: #0000aa"/>
    </defs>
    <g clip-path="url(#p22545b713d)">
     <use xlink:href="#m6b51393480" x="72.738977" y="110.072975" style="fill: #0000aa; stroke: #0000aa"/>
     <use xlink:href="#m6b51393480" x="90.775341" y="147.473159" style="fill: #0000aa; stroke: #0000aa"/>
     <use xlink:href="#m6b51393480" x="108.811705" y="172.561137" style="fill: #0000aa; stroke: #0000aa"/>
     <use xlink:href="#m6b51393480" x="126.848068" y="189.365348" style="fill: #0000aa; stroke: #0000aa"/>
     <use xlink:href="#m6b51393480" x="144.884432" y="202.102846" style="fill: #0000aa; stroke: #0000aa"/>
     <use xlink:href="#m6b51393480" x="162.920795" y="212.105438" style="fill: #0000aa; stroke: #0000aa"/>
     <use xlink:href="#m6b51393480" x="180.957159" y="219.974068" style="fill: #0000aa; stroke: #0000aa"/>
     <use xlink:href="#m6b51393480" x="198.993523" y="226.100874" style="fill: #0000aa; stroke: #0000aa"/>
     <use xlink:href="#m6b51393480" x="217.029886" y="231.537625" style="fill: #0000aa; stroke: #0000aa"/>
     <use xlink:href="#m6b51393480" x="235.06625" y="236.108569" style="fill: #0000aa; stroke: #0000aa"/>
     <use xlink:href="#m6b51393480" x="253.102614" y="240.328142" style="fill: #0000aa; stroke: #0000aa"/>
     <use xlink:href="#m6b51393480" x="271.138977" y="243.722618" style="fill: #0000aa; stroke: #0000aa"/>
     <use xlink:href="#m6b51393480" x="289.175341" y="246.786066" style="fill: #0000aa; stroke: #0000aa"/>
     <use xlink:href="#m6b51393480" x="307.211705" y="249.398772" style="fill: #0000aa; stroke: #0000aa"/>
     <use xlink:href="#m6b51393480" x="325.248068" y="251.62185" style="fill: #0000aa; stroke: #0000aa"/>
     <use xlink:href="#m6b51393480" x="343.284432" y="253.613199" style="fill: #0000aa; stroke: #0000aa"/>
     <use xlink:href="#m6b51393480" x="361.320795" y="255.46705" style="fill: #0000aa; stroke: #0000aa"/>
     <use xlink:href="#m6b51393480" x="379.357159" y="257.124818" style="fill: #0000aa; stroke: #0000aa"/>
     <use xlink:href="#m6b51393480" x="397.393523" y="258.731679" style="fill: #0000aa; stroke: #0000aa"/>
    </g>
   </g>
   <g id="line2d_31">
    <path d="M 72.738977 110.060242 
L 90.775341 157.31069 
L 108.811705 185.579507 
L 126.848068 203.168218 
L 144.884432 215.518759 
L 162.920795 224.762566 
L 180.957159 232.037935 
L 198.993523 237.64787 
L 217.029886 242.254485 
L 235.06625 246.109883 
L 253.102614 249.333745 
L 271.138977 252.262235 
L 289.175341 254.813845 
L 307.211705 256.945266 
L 325.248068 258.778738 
L 343.284432 260.426318 
L 361.320795 261.916019 
L 379.357159 263.237646 
L 397.393523 264.409025 
" clip-path="url(#p22545b713d)" style="fill: none; stroke: #0000ff; stroke-width: 2.5; stroke-linecap: square"/>
    <defs>
     <path id="m96040462f6" d="M 0 1.75 
C 0.464105 1.75 0.909265 1.565609 1.237437 1.237437 
C 1.565609 0.909265 1.75 0.464105 1.75 0 
C 1.75 -0.464105 1.565609 -0.909265 1.237437 -1.237437 
C 0.909265 -1.565609 0.464105 -1.75 0 -1.75 
C -0.464105 -1.75 -0.909265 -1.565609 -1.237437 -1.237437 
C -1.565609 -0.909265 -1.75 -0.464105 -1.75 0 
C -1.75 0.464105 -1.565609 0.909265 -1.237437 1.237437 
C -0.909265 1.565609 -0.464105 1.75 0 1.75 
z
" style="stroke: #0000ff"/>
    </defs>
    <g clip-path="url(#p22545b713d)">
     <use xlink:href="#m96040462f6" x="72.738977" y="110.060242" style="fill: #0000ff; stroke: #0000ff"/>
     <use xlink:href="#m96040462f6" x="90.775341" y="157.31069" style="fill: #0000ff; stroke: #0000ff"/>
     <use xlink:href="#m96040462f6" x="108.811705" y="185.579507" style="fill: #0000ff; stroke: #0000ff"/>
     <use xlink:href="#m96040462f6" x="126.848068" y="203.168218" style="fill: #0000ff; stroke: #0000ff"/>
     <use xlink:href="#m96040462f6" x="144.884432" y="215.518759" style="fill: #0000ff; stroke: #0000ff"/>
     <use xlink:href="#m96040462f6" x="162.920795" y="224.762566" style="fill: #0000ff; stroke: #0000ff"/>
     <use xlink:href="#m96040462f6" x="180.957159" y="232.037935" style="fill: #0000ff; stroke: #0000ff"/>
     <use xlink:href="#m96040462f6" x="198.993523" y="237.64787" style="fill: #0000ff; stroke: #0000ff"/>
     <use xlink:href="#m96040462f6" x="217.029886" y="242.254485" style="fill: #0000ff; stroke: #0000ff"/>
     <use xlink:href="#m96040462f6" x="235.06625" y="246.109883" style="fill: #0000ff; stroke: #0000ff"/>
     <use xlink:href="#m96040462f6" x="253.102614" y="249.333745" style="fill: #0000ff; stroke: #0000ff"/>
     <use xlink:href="#m96040462f6" x="271.138977" y="252.262235" style="fill: #0000ff; stroke: #0000ff"/>
     <use xlink:href="#m96040462f6" x="289.175341" y="254.813845" style="fill: #0000ff; stroke: #0000ff"/>
     <use xlink:href="#m96040462f6" x="307.211705" y="256.945266" style="fill: #0000ff; stroke: #0000ff"/>
     <use xlink:href="#m96040462f6" x="325.248068" y="258.778738" style="fill: #0000ff; stroke: #0000ff"/>
     <use xlink:href="#m96040462f6" x="343.284432" y="260.426318" style="fill: #0000ff; stroke: #0000ff"/>
     <use xlink:href="#m96040462f6" x="361.320795" y="261.916019" style="fill: #0000ff; stroke: #0000ff"/>
     <use xlink:href="#m96040462f6" x="379.357159" y="263.237646" style="fill: #0000ff; stroke: #0000ff"/>
     <use xlink:href="#m96040462f6" x="397.393523" y="264.409025" style="fill: #0000ff; stroke: #0000ff"/>
    </g>
   </g>
   <g id="line2d_32"/>
   <g id="line2d_33">
    <path d="M 72.738977 109.865004 
L 90.775341 157.023395 
L 108.811705 185.31843 
L 126.848068 203.133822 
L 144.884432 216.058715 
L 162.920795 225.257512 
L 180.957159 232.412132 
L 198.993523 238.117715 
L 217.029886 242.762396 
L 235.06625 246.61739 
L 253.102614 249.888745 
L 271.138977 252.687309 
L 289.175341 255.112434 
L 307.211705 257.234895 
L 325.248068 259.107437 
L 343.284432 260.771824 
L 361.320795 262.261068 
L 379.357159 263.601356 
L 397.393523 264.814001 
" clip-path="url(#p22545b713d)" style="fill: none; stroke: #ff0000; stroke-width: 1.5; stroke-linecap: square"/>
   </g>
   <g id="line2d_34">
    <path d="M 72.738977 161.739235 
L 90.775341 204.181787 
L 108.811705 225.403063 
L 126.848068 238.135828 
L 144.884432 246.624339 
L 162.920795 252.68756 
L 180.957159 257.234977 
L 198.993523 260.771856 
L 217.029886 263.601359 
L 235.06625 265.916408 
L 253.102614 267.845615 
L 271.138977 269.47802 
L 289.175341 270.877225 
L 307.211705 272.08987 
L 325.248068 273.150934 
L 343.284432 274.087166 
L 361.320795 274.919373 
L 379.357159 275.663979 
L 397.393523 276.334125 
" clip-path="url(#p22545b713d)" style="fill: none; stroke: #000000; stroke-width: 1.5; stroke-linecap: square"/>
   </g>
   <g id="patch_3">
    <path d="M 56.50625 288.430125 
L 56.50625 22.318125 
" style="fill: none; stroke: #000000; stroke-width: 0.8; stroke-linejoin: miter; stroke-linecap: square"/>
   </g>
   <g id="text_18">
    <!-- Densities and lower bounds (σ=3) -->
    <g transform="translate(132.65375 16.318125) scale(0.12 -0.12)">
     <defs>
      <path id="DejaVuSans-20" transform="scale(0.015625)"/>
      <path id="DejaVuSans-61" d="M 2194 1759 
Q 1497 1759 1228 1600 
Q 959 1441 959 1056 
Q 959 750 1161 570 
Q 1363 391 1709 391 
Q 2188 391 2477 730 
Q 2766 1069 2766 1631 
L 2766 1759 
L 2194 1759 
z
M 3341 1997 
L 3341 0 
L 2766 0 
L 2766 531 
Q 2569 213 2275 61 
Q 1981 -91 1556 -91 
Q 1019 -91 701 211 
Q 384 513 384 1019 
Q 384 1609 779 1909 
Q 1175 2209 1959 2209 
L 2766 2209 
L 2766 2266 
Q 2766 2663 2505 2880 
Q 2244 3097 1772 3097 
Q 1472 3097 1187 3025 
Q 903 2953 641 2809 
L 641 3341 
Q 956 3463 1253 3523 
Q 1550 3584 1831 3584 
Q 2591 3584 2966 3190 
Q 3341 2797 3341 1997 
z
" transform="scale(0.015625)"/>
      <path id="DejaVuSans-64" d="M 2906 2969 
L 2906 4863 
L 3481 4863 
L 3481 0 
L 2906 0 
L 2906 525 
Q 2725 213 2448 61 
Q 2172 -91 1784 -91 
Q 1150 -91 751 415 
Q 353 922 353 1747 
Q 353 2572 751 3078 
Q 1150 3584 1784 3584 
Q 2172 3584 2448 3432 
Q 2725 3281 2906 2969 
z
M 947 1747 
Q 947 1113 1208 752 
Q 1469 391 1925 391 
Q 2381 391 2643 752 
Q 2906 1113 2906 1747 
Q 2906 2381 2643 2742 
Q 2381 3103 1925 3103 
Q 1469 3103 1208 2742 
Q 947 2381 947 1747 
z
" transform="scale(0.015625)"/>
      <path id="DejaVuSans-6c" d="M 603 4863 
L 1178 4863 
L 1178 0 
L 603 0 
L 603 4863 
z
" transform="scale(0.015625)"/>
      <path id="DejaVuSans-6f" d="M 1959 3097 
Q 1497 3097 1228 2736 
Q 959 2375 959 1747 
Q 959 1119 1226 758 
Q 1494 397 1959 397 
Q 2419 397 2687 759 
Q 2956 1122 2956 1747 
Q 2956 2369 2687 2733 
Q 2419 3097 1959 3097 
z
M 1959 3584 
Q 2709 3584 3137 3096 
Q 3566 2609 3566 1747 
Q 3566 888 3137 398 
Q 2709 -91 1959 -91 
Q 1206 -91 779 398 
Q 353 888 353 1747 
Q 353 2609 779 3096 
Q 1206 3584 1959 3584 
z
" transform="scale(0.015625)"/>
      <path id="DejaVuSans-72" d="M 2631 2963 
Q 2534 3019 2420 3045 
Q 2306 3072 2169 3072 
Q 1681 3072 1420 2755 
Q 1159 2438 1159 1844 
L 1159 0 
L 581 0 
L 581 3500 
L 1159 3500 
L 1159 2956 
Q 1341 3275 1631 3429 
Q 1922 3584 2338 3584 
Q 2397 3584 2469 3576 
Q 2541 3569 2628 3553 
L 2631 2963 
z
" transform="scale(0.015625)"/>
      <path id="DejaVuSans-62" d="M 3116 1747 
Q 3116 2381 2855 2742 
Q 2594 3103 2138 3103 
Q 1681 3103 1420 2742 
Q 1159 2381 1159 1747 
Q 1159 1113 1420 752 
Q 1681 391 2138 391 
Q 2594 391 2855 752 
Q 3116 1113 3116 1747 
z
M 1159 2969 
Q 1341 3281 1617 3432 
Q 1894 3584 2278 3584 
Q 2916 3584 3314 3078 
Q 3713 2572 3713 1747 
Q 3713 922 3314 415 
Q 2916 -91 2278 -91 
Q 1894 -91 1617 61 
Q 1341 213 1159 525 
L 1159 0 
L 581 0 
L 581 4863 
L 1159 4863 
L 1159 2969 
z
" transform="scale(0.015625)"/>
      <path id="DejaVuSans-75" d="M 544 1381 
L 544 3500 
L 1119 3500 
L 1119 1403 
Q 1119 906 1312 657 
Q 1506 409 1894 409 
Q 2359 409 2629 706 
Q 2900 1003 2900 1516 
L 2900 3500 
L 3475 3500 
L 3475 0 
L 2900 0 
L 2900 538 
Q 2691 219 2414 64 
Q 2138 -91 1772 -91 
Q 1169 -91 856 284 
Q 544 659 544 1381 
z
M 1991 3584 
L 1991 3584 
z
" transform="scale(0.015625)"/>
      <path id="DejaVuSans-28" d="M 1984 4856 
Q 1566 4138 1362 3434 
Q 1159 2731 1159 2009 
Q 1159 1288 1364 580 
Q 1569 -128 1984 -844 
L 1484 -844 
Q 1016 -109 783 600 
Q 550 1309 550 2009 
Q 550 2706 781 3412 
Q 1013 4119 1484 4856 
L 1984 4856 
z
" transform="scale(0.015625)"/>
      <path id="DejaVuSans-3c3" d="M 1959 3044 
Q 1484 3044 1228 2700 
Q 959 2341 959 1747 
Q 959 1119 1226 758 
Q 1494 397 1959 397 
Q 2419 397 2687 759 
Q 2956 1122 2956 1747 
Q 2956 2319 2688 2700 
Q 2441 3044 1959 3044 
z
M 1959 3500 
L 3869 3500 
L 3869 2925 
L 3225 2925 
Q 3566 2438 3566 1747 
Q 3566 888 3138 400 
Q 2709 -91 1959 -91 
Q 1206 -91 781 400 
Q 353 888 353 1747 
Q 353 2613 781 3097 
Q 1134 3500 1959 3500 
z
" transform="scale(0.015625)"/>
      <path id="DejaVuSans-3d" d="M 678 2906 
L 4684 2906 
L 4684 2381 
L 678 2381 
L 678 2906 
z
M 678 1631 
L 4684 1631 
L 4684 1100 
L 678 1100 
L 678 1631 
z
" transform="scale(0.015625)"/>
      <path id="DejaVuSans-33" d="M 2597 2516 
Q 3050 2419 3304 2112 
Q 3559 1806 3559 1356 
Q 3559 666 3084 287 
Q 2609 -91 1734 -91 
Q 1441 -91 1130 -33 
Q 819 25 488 141 
L 488 750 
Q 750 597 1062 519 
Q 1375 441 1716 441 
Q 2309 441 2620 675 
Q 2931 909 2931 1356 
Q 2931 1769 2642 2001 
Q 2353 2234 1838 2234 
L 1294 2234 
L 1294 2753 
L 1863 2753 
Q 2328 2753 2575 2939 
Q 2822 3125 2822 3475 
Q 2822 3834 2567 4026 
Q 2313 4219 1838 4219 
Q 1578 4219 1281 4162 
Q 984 4106 628 3988 
L 628 4550 
Q 988 4650 1302 4700 
Q 1616 4750 1894 4750 
Q 2613 4750 3031 4423 
Q 3450 4097 3450 3541 
Q 3450 3153 3228 2886 
Q 3006 2619 2597 2516 
z
" transform="scale(0.015625)"/>
      <path id="DejaVuSans-29" d="M 513 4856 
L 1013 4856 
Q 1481 4119 1714 3412 
Q 1947 2706 1947 2009 
Q 1947 1309 1714 600 
Q 1481 -109 1013 -844 
L 513 -844 
Q 928 -128 1133 580 
Q 1338 1288 1338 2009 
Q 1338 2731 1133 3434 
Q 928 4138 513 4856 
z
" transform="scale(0.015625)"/>
     </defs>
     <use xlink:href="#DejaVuSans-44"/>
     <use xlink:href="#DejaVuSans-65" x="77.001953"/>
     <use xlink:href="#DejaVuSans-6e" x="138.525391"/>
     <use xlink:href="#DejaVuSans-73" x="201.904297"/>
     <use xlink:href="#DejaVuSans-69" x="254.003906"/>
     <use xlink:href="#DejaVuSans-74" x="281.787109"/>
     <use xlink:href="#DejaVuSans-69" x="320.996094"/>
     <use xlink:href="#DejaVuSans-65" x="348.779297"/>
     <use xlink:href="#DejaVuSans-73" x="410.302734"/>
     <use xlink:href="#DejaVuSans-20" x="462.402344"/>
     <use xlink:href="#DejaVuSans-61" x="494.189453"/>
     <use xlink:href="#DejaVuSans-6e" x="555.46875"/>
     <use xlink:href="#DejaVuSans-64" x="618.847656"/>
     <use xlink:href="#DejaVuSans-20" x="682.324219"/>
     <use xlink:href="#DejaVuSans-6c" x="714.111328"/>
     <use xlink:href="#DejaVuSans-6f" x="741.894531"/>
     <use xlink:href="#DejaVuSans-77" x="803.076172"/>
     <use xlink:href="#DejaVuSans-65" x="884.863281"/>
     <use xlink:href="#DejaVuSans-72" x="946.386719"/>
     <use xlink:href="#DejaVuSans-20" x="987.5"/>
     <use xlink:href="#DejaVuSans-62" x="1019.287109"/>
     <use xlink:href="#DejaVuSans-6f" x="1082.763672"/>
     <use xlink:href="#DejaVuSans-75" x="1143.945312"/>
     <use xlink:href="#DejaVuSans-6e" x="1207.324219"/>
     <use xlink:href="#DejaVuSans-64" x="1270.703125"/>
     <use xlink:href="#DejaVuSans-73" x="1334.179688"/>
     <use xlink:href="#DejaVuSans-20" x="1386.279297"/>
     <use xlink:href="#DejaVuSans-28" x="1418.066406"/>
     <use xlink:href="#DejaVuSans-3c3" x="1457.080078"/>
     <use xlink:href="#DejaVuSans-3d" x="1520.458984"/>
     <use xlink:href="#DejaVuSans-33" x="1604.248047"/>
     <use xlink:href="#DejaVuSans-29" x="1667.871094"/>
    </g>
   </g>
   <g id="legend_1">
    <g id="patch_4">
     <path d="M 62.33725 57.679399 
L 407.79525 57.679399 
Q 409.46125 57.679399 409.46125 56.013399 
L 409.46125 20.165765 
Q 409.46125 18.499765 407.79525 18.499765 
L 62.33725 18.499765 
Q 60.67125 18.499765 60.67125 20.165765 
L 60.67125 56.013399 
Q 60.67125 57.679399 62.33725 57.679399 
z
" style="fill: #ffffff; opacity: 0.8; stroke: #cccccc; stroke-linejoin: miter"/>
    </g>
    <g id="line2d_35">
     <path d="M 64.00325 25.245763 
L 72.33325 25.245763 
L 80.66325 25.245763 
" style="fill: none; stroke: #00ee00; stroke-linecap: square"/>
     <g>
      <use xlink:href="#m7996ad0437" x="72.33325" y="25.245763" style="fill: #00ee00; stroke: #00ee00"/>
     </g>
    </g>
    <g id="text_19">
     <!-- Bd-anchor r=0 -->
     <g transform="translate(87.32725 28.161263) scale(0.0833 -0.0833)">
      <defs>
       <path id="DejaVuSans-42" d="M 1259 2228 
L 1259 519 
L 2272 519 
Q 2781 519 3026 730 
Q 3272 941 3272 1375 
Q 3272 1813 3026 2020 
Q 2781 2228 2272 2228 
L 1259 2228 
z
M 1259 4147 
L 1259 2741 
L 2194 2741 
Q 2656 2741 2882 2914 
Q 3109 3088 3109 3444 
Q 3109 3797 2882 3972 
Q 2656 4147 2194 4147 
L 1259 4147 
z
M 628 4666 
L 2241 4666 
Q 2963 4666 3353 4366 
Q 3744 4066 3744 3513 
Q 3744 3084 3544 2831 
Q 3344 2578 2956 2516 
Q 3422 2416 3680 2098 
Q 3938 1781 3938 1306 
Q 3938 681 3513 340 
Q 3088 0 2303 0 
L 628 0 
L 628 4666 
z
" transform="scale(0.015625)"/>
       <path id="DejaVuSans-2d" d="M 313 2009 
L 1997 2009 
L 1997 1497 
L 313 1497 
L 313 2009 
z
" transform="scale(0.015625)"/>
       <path id="DejaVuSans-63" d="M 3122 3366 
L 3122 2828 
Q 2878 2963 2633 3030 
Q 2388 3097 2138 3097 
Q 1578 3097 1268 2742 
Q 959 2388 959 1747 
Q 959 1106 1268 751 
Q 1578 397 2138 397 
Q 2388 397 2633 464 
Q 2878 531 3122 666 
L 3122 134 
Q 2881 22 2623 -34 
Q 2366 -91 2075 -91 
Q 1284 -91 818 406 
Q 353 903 353 1747 
Q 353 2603 823 3093 
Q 1294 3584 2113 3584 
Q 2378 3584 2631 3529 
Q 2884 3475 3122 3366 
z
" transform="scale(0.015625)"/>
       <path id="DejaVuSans-68" d="M 3513 2113 
L 3513 0 
L 2938 0 
L 2938 2094 
Q 2938 2591 2744 2837 
Q 2550 3084 2163 3084 
Q 1697 3084 1428 2787 
Q 1159 2491 1159 1978 
L 1159 0 
L 581 0 
L 581 4863 
L 1159 4863 
L 1159 2956 
Q 1366 3272 1645 3428 
Q 1925 3584 2291 3584 
Q 2894 3584 3203 3211 
Q 3513 2838 3513 2113 
z
" transform="scale(0.015625)"/>
      </defs>
      <use xlink:href="#DejaVuSans-42"/>
      <use xlink:href="#DejaVuSans-64" x="68.603516"/>
      <use xlink:href="#DejaVuSans-2d" x="132.080078"/>
      <use xlink:href="#DejaVuSans-61" x="168.164062"/>
      <use xlink:href="#DejaVuSans-6e" x="229.443359"/>
      <use xlink:href="#DejaVuSans-63" x="292.822266"/>
      <use xlink:href="#DejaVuSans-68" x="347.802734"/>
      <use xlink:href="#DejaVuSans-6f" x="411.181641"/>
      <use xlink:href="#DejaVuSans-72" x="472.363281"/>
      <use xlink:href="#DejaVuSans-20" x="513.476562"/>
      <use xlink:href="#DejaVuSans-72" x="545.263672"/>
      <use xlink:href="#DejaVuSans-3d" x="586.376953"/>
      <use xlink:href="#DejaVuSans-30" x="670.166016"/>
     </g>
    </g>
    <g id="line2d_36">
     <path d="M 64.00325 37.472642 
L 72.33325 37.472642 
L 80.66325 37.472642 
" style="fill: none; stroke: #00cc00; stroke-linecap: square"/>
     <g>
      <use xlink:href="#m0a378f3b69" x="72.33325" y="37.472642" style="fill: #00cc00; stroke: #00cc00"/>
     </g>
    </g>
    <g id="text_20">
     <!-- Bd-anchor r=1 -->
     <g transform="translate(87.32725 40.388142) scale(0.0833 -0.0833)">
      <use xlink:href="#DejaVuSans-42"/>
      <use xlink:href="#DejaVuSans-64" x="68.603516"/>
      <use xlink:href="#DejaVuSans-2d" x="132.080078"/>
      <use xlink:href="#DejaVuSans-61" x="168.164062"/>
      <use xlink:href="#DejaVuSans-6e" x="229.443359"/>
      <use xlink:href="#DejaVuSans-63" x="292.822266"/>
      <use xlink:href="#DejaVuSans-68" x="347.802734"/>
      <use xlink:href="#DejaVuSans-6f" x="411.181641"/>
      <use xlink:href="#DejaVuSans-72" x="472.363281"/>
      <use xlink:href="#DejaVuSans-20" x="513.476562"/>
      <use xlink:href="#DejaVuSans-72" x="545.263672"/>
      <use xlink:href="#DejaVuSans-3d" x="586.376953"/>
      <use xlink:href="#DejaVuSans-31" x="670.166016"/>
     </g>
    </g>
    <g id="line2d_37">
     <path d="M 64.00325 49.69952 
L 72.33325 49.69952 
L 80.66325 49.69952 
" style="fill: none; stroke: #009900; stroke-linecap: square"/>
     <g>
      <use xlink:href="#m2ba43227ff" x="72.33325" y="49.69952" style="fill: #009900; stroke: #009900"/>
     </g>
    </g>
    <g id="text_21">
     <!-- Bd-anchor r=2 -->
     <g transform="translate(87.32725 52.61502) scale(0.0833 -0.0833)">
      <use xlink:href="#DejaVuSans-42"/>
      <use xlink:href="#DejaVuSans-64" x="68.603516"/>
      <use xlink:href="#DejaVuSans-2d" x="132.080078"/>
      <use xlink:href="#DejaVuSans-61" x="168.164062"/>
      <use xlink:href="#DejaVuSans-6e" x="229.443359"/>
      <use xlink:href="#DejaVuSans-63" x="292.822266"/>
      <use xlink:href="#DejaVuSans-68" x="347.802734"/>
      <use xlink:href="#DejaVuSans-6f" x="411.181641"/>
      <use xlink:href="#DejaVuSans-72" x="472.363281"/>
      <use xlink:href="#DejaVuSans-20" x="513.476562"/>
      <use xlink:href="#DejaVuSans-72" x="545.263672"/>
      <use xlink:href="#DejaVuSans-3d" x="586.376953"/>
      <use xlink:href="#DejaVuSans-32" x="670.166016"/>
     </g>
    </g>
    <g id="line2d_38">
     <path d="M 200.056171 25.245763 
L 208.386171 25.245763 
L 216.716171 25.245763 
" style="fill: none; stroke: #006600; stroke-linecap: square"/>
     <g>
      <use xlink:href="#mbd9270b488" x="208.386171" y="25.245763" style="fill: #006600; stroke: #006600"/>
     </g>
    </g>
    <g id="text_22">
     <!-- Bd-anchor r=3 -->
     <g transform="translate(223.380171 28.161263) scale(0.0833 -0.0833)">
      <use xlink:href="#DejaVuSans-42"/>
      <use xlink:href="#DejaVuSans-64" x="68.603516"/>
      <use xlink:href="#DejaVuSans-2d" x="132.080078"/>
      <use xlink:href="#DejaVuSans-61" x="168.164062"/>
      <use xlink:href="#DejaVuSans-6e" x="229.443359"/>
      <use xlink:href="#DejaVuSans-63" x="292.822266"/>
      <use xlink:href="#DejaVuSans-68" x="347.802734"/>
      <use xlink:href="#DejaVuSans-6f" x="411.181641"/>
      <use xlink:href="#DejaVuSans-72" x="472.363281"/>
      <use xlink:href="#DejaVuSans-20" x="513.476562"/>
      <use xlink:href="#DejaVuSans-72" x="545.263672"/>
      <use xlink:href="#DejaVuSans-3d" x="586.376953"/>
      <use xlink:href="#DejaVuSans-33" x="670.166016"/>
     </g>
    </g>
    <g id="line2d_39">
     <path d="M 200.056171 37.472642 
L 208.386171 37.472642 
L 216.716171 37.472642 
" style="fill: none; stroke: #0000aa; stroke-linecap: square"/>
     <g>
      <use xlink:href="#m6b51393480" x="208.386171" y="37.472642" style="fill: #0000aa; stroke: #0000aa"/>
     </g>
    </g>
    <g id="text_23">
     <!-- Sus-anchor -->
     <g transform="translate(223.380171 40.388142) scale(0.0833 -0.0833)">
      <defs>
       <path id="DejaVuSans-53" d="M 3425 4513 
L 3425 3897 
Q 3066 4069 2747 4153 
Q 2428 4238 2131 4238 
Q 1616 4238 1336 4038 
Q 1056 3838 1056 3469 
Q 1056 3159 1242 3001 
Q 1428 2844 1947 2747 
L 2328 2669 
Q 3034 2534 3370 2195 
Q 3706 1856 3706 1288 
Q 3706 609 3251 259 
Q 2797 -91 1919 -91 
Q 1588 -91 1214 -16 
Q 841 59 441 206 
L 441 856 
Q 825 641 1194 531 
Q 1563 422 1919 422 
Q 2459 422 2753 634 
Q 3047 847 3047 1241 
Q 3047 1584 2836 1778 
Q 2625 1972 2144 2069 
L 1759 2144 
Q 1053 2284 737 2584 
Q 422 2884 422 3419 
Q 422 4038 858 4394 
Q 1294 4750 2059 4750 
Q 2388 4750 2728 4690 
Q 3069 4631 3425 4513 
z
" transform="scale(0.015625)"/>
      </defs>
      <use xlink:href="#DejaVuSans-53"/>
      <use xlink:href="#DejaVuSans-75" x="63.476562"/>
      <use xlink:href="#DejaVuSans-73" x="126.855469"/>
      <use xlink:href="#DejaVuSans-2d" x="178.955078"/>
      <use xlink:href="#DejaVuSans-61" x="215.039062"/>
      <use xlink:href="#DejaVuSans-6e" x="276.318359"/>
      <use xlink:href="#DejaVuSans-63" x="339.697266"/>
      <use xlink:href="#DejaVuSans-68" x="394.677734"/>
      <use xlink:href="#DejaVuSans-6f" x="458.056641"/>
      <use xlink:href="#DejaVuSans-72" x="519.238281"/>
     </g>
    </g>
    <g id="line2d_40">
     <path d="M 200.056171 49.69952 
L 208.386171 49.69952 
L 216.716171 49.69952 
" style="fill: none; stroke: #0000ff; stroke-width: 2.5; stroke-linecap: square"/>
     <g>
      <use xlink:href="#m96040462f6" x="208.386171" y="49.69952" style="fill: #0000ff; stroke: #0000ff"/>
     </g>
    </g>
    <g id="text_24">
     <!-- Sus-anchor scrambled -->
     <g transform="translate(223.380171 52.61502) scale(0.0833 -0.0833)">
      <defs>
       <path id="DejaVuSans-6d" d="M 3328 2828 
Q 3544 3216 3844 3400 
Q 4144 3584 4550 3584 
Q 5097 3584 5394 3201 
Q 5691 2819 5691 2113 
L 5691 0 
L 5113 0 
L 5113 2094 
Q 5113 2597 4934 2840 
Q 4756 3084 4391 3084 
Q 3944 3084 3684 2787 
Q 3425 2491 3425 1978 
L 3425 0 
L 2847 0 
L 2847 2094 
Q 2847 2600 2669 2842 
Q 2491 3084 2119 3084 
Q 1678 3084 1418 2786 
Q 1159 2488 1159 1978 
L 1159 0 
L 581 0 
L 581 3500 
L 1159 3500 
L 1159 2956 
Q 1356 3278 1631 3431 
Q 1906 3584 2284 3584 
Q 2666 3584 2933 3390 
Q 3200 3197 3328 2828 
z
" transform="scale(0.015625)"/>
      </defs>
      <use xlink:href="#DejaVuSans-53"/>
      <use xlink:href="#DejaVuSans-75" x="63.476562"/>
      <use xlink:href="#DejaVuSans-73" x="126.855469"/>
      <use xlink:href="#DejaVuSans-2d" x="178.955078"/>
      <use xlink:href="#DejaVuSans-61" x="215.039062"/>
      <use xlink:href="#DejaVuSans-6e" x="276.318359"/>
      <use xlink:href="#DejaVuSans-63" x="339.697266"/>
      <use xlink:href="#DejaVuSans-68" x="394.677734"/>
      <use xlink:href="#DejaVuSans-6f" x="458.056641"/>
      <use xlink:href="#DejaVuSans-72" x="519.238281"/>
      <use xlink:href="#DejaVuSans-20" x="560.351562"/>
      <use xlink:href="#DejaVuSans-73" x="592.138672"/>
      <use xlink:href="#DejaVuSans-63" x="644.238281"/>
      <use xlink:href="#DejaVuSans-72" x="699.21875"/>
      <use xlink:href="#DejaVuSans-61" x="740.332031"/>
      <use xlink:href="#DejaVuSans-6d" x="801.611328"/>
      <use xlink:href="#DejaVuSans-62" x="899.023438"/>
      <use xlink:href="#DejaVuSans-6c" x="962.5"/>
      <use xlink:href="#DejaVuSans-65" x="990.283203"/>
      <use xlink:href="#DejaVuSans-64" x="1051.806641"/>
     </g>
    </g>
    <g id="line2d_41">
     <path d="M 367.886741 25.245763 
L 376.216741 25.245763 
L 384.546741 25.245763 
" style="fill: none; stroke: #1f77b4; stroke-opacity: 0; stroke-width: 1.5; stroke-linecap: square"/>
    </g>
    <g id="text_25">
     <!--   -->
     <g transform="translate(391.210741 28.161263) scale(0.0833 -0.0833)">
      <use xlink:href="#DejaVuSans-20"/>
     </g>
    </g>
    <g id="line2d_42">
     <path d="M 367.886741 37.472642 
L 376.216741 37.472642 
L 384.546741 37.472642 
" style="fill: none; stroke: #ff0000; stroke-width: 1.5; stroke-linecap: square"/>
    </g>
    <g id="text_26">
     <!-- g' -->
     <g transform="translate(391.210741 40.388142) scale(0.0833 -0.0833)">
      <defs>
       <path id="DejaVuSans-67" d="M 2906 1791 
Q 2906 2416 2648 2759 
Q 2391 3103 1925 3103 
Q 1463 3103 1205 2759 
Q 947 2416 947 1791 
Q 947 1169 1205 825 
Q 1463 481 1925 481 
Q 2391 481 2648 825 
Q 2906 1169 2906 1791 
z
M 3481 434 
Q 3481 -459 3084 -895 
Q 2688 -1331 1869 -1331 
Q 1566 -1331 1297 -1286 
Q 1028 -1241 775 -1147 
L 775 -588 
Q 1028 -725 1275 -790 
Q 1522 -856 1778 -856 
Q 2344 -856 2625 -561 
Q 2906 -266 2906 331 
L 2906 616 
Q 2728 306 2450 153 
Q 2172 0 1784 0 
Q 1141 0 747 490 
Q 353 981 353 1791 
Q 353 2603 747 3093 
Q 1141 3584 1784 3584 
Q 2172 3584 2450 3431 
Q 2728 3278 2906 2969 
L 2906 3500 
L 3481 3500 
L 3481 434 
z
" transform="scale(0.015625)"/>
       <path id="DejaVuSans-27" d="M 1147 4666 
L 1147 2931 
L 616 2931 
L 616 4666 
L 1147 4666 
z
" transform="scale(0.015625)"/>
      </defs>
      <use xlink:href="#DejaVuSans-67"/>
      <use xlink:href="#DejaVuSans-27" x="63.476562"/>
     </g>
    </g>
    <g id="line2d_43">
     <path d="M 367.886741 49.69952 
L 376.216741 49.69952 
L 384.546741 49.69952 
" style="fill: none; stroke: #000000; stroke-width: 1.5; stroke-linecap: square"/>
    </g>
    <g id="text_27">
     <!-- 1/w -->
     <g transform="translate(391.210741 52.61502) scale(0.0833 -0.0833)">
      <defs>
       <path id="DejaVuSans-2f" d="M 1625 4666 
L 2156 4666 
L 531 -594 
L 0 -594 
L 1625 4666 
z
" transform="scale(0.015625)"/>
      </defs>
      <use xlink:href="#DejaVuSans-31"/>
      <use xlink:href="#DejaVuSans-2f" x="63.623047"/>
      <use xlink:href="#DejaVuSans-77" x="97.314453"/>
     </g>
    </g>
   </g>
  </g>
 </g>
 <defs>
  <clipPath id="p22545b713d">
   <rect x="56.50625" y="22.318125" width="357.12" height="266.112"/>
  </clipPath>
 </defs>
</svg>
