<?xml version="1.0" encoding="utf-8" standalone="no"?>
<!DOCTYPE svg PUBLIC "-//W3C//DTD SVG 1.1//EN"
  "http://www.w3.org/Graphics/SVG/1.1/DTD/svg11.dtd">
<svg xmlns:xlink="http://www.w3.org/1999/xlink" width="420.82625pt" height="325.986375pt" viewBox="0 0 420.82625 325.986375" xmlns="http://www.w3.org/2000/svg" version="1.1">
 <metadata>
  <rdf:RDF xmlns:dc="http://purl.org/dc/elements/1.1/" xmlns:cc="http://creativecommons.org/ns#" xmlns:rdf="http://www.w3.org/1999/02/22-rdf-syntax-ns#">
   <cc:Work>
    <dc:type rdf:resource="http://purl.org/dc/dcmitype/StillImage"/>
    <dc:date>2024-09-12T19:36:51.211309</dc:date>
    <dc:format>image/svg+xml</dc:format>
    <dc:creator>
     <cc:Agent>
      <dc:title>Matplotlib v3.9.2, https://matplotlib.org/</dc:title>
     </cc:Agent>
    </dc:creator>
   </cc:Work>
  </rdf:RDF>
 </metadata>
 <defs>
  <style type="text/css">*{stroke-linejoin: round; stroke-linecap: butt}</style>
 </defs>
 <g id="figure_1">
  <g id="patch_1">
   <path d="M 0 325.986375 
L 420.82625 325.986375 
L 420.82625 0 
L 0 0 
z
" style="fill: #ffffff"/>
  </g>
  <g id="axes_1">
   <g id="patch_2">
    <path d="M 56.50625 288.430125 
L 413.62625 288.430125 
L 413.62625 22.318125 
L 56.50625 22.318125 
z
" style="fill: #ffffff"/>
   </g>
   <g id="matplotlib.axis_1">
    <g id="xtick_1">
     <g id="line2d_1">
      <path d="M 77.651513 288.430125 
L 77.651513 22.318125 
" clip-path="url(#p5f1450bc2a)" style="fill: none; stroke: #cccccc; stroke-width: 0.5; stroke-linecap: square"/>
     </g>
     <g id="line2d_2">
      <defs>
       <path id="mce61263c8d" d="M 0 0 
L 0 3.5 
" style="stroke: #000000; stroke-width: 0.8"/>
      </defs>
      <g>
       <use xlink:href="#mce61263c8d" x="77.651513" y="288.430125" style="stroke: #000000; stroke-width: 0.8"/>
      </g>
     </g>
     <g id="text_1">
      <!-- 8 -->
      <g transform="translate(74.470263 303.028562) scale(0.1 -0.1)">
       <defs>
        <path id="DejaVuSans-38" d="M 2034 2216 
Q 1584 2216 1326 1975 
Q 1069 1734 1069 1313 
Q 1069 891 1326 650 
Q 1584 409 2034 409 
Q 2484 409 2743 651 
Q 3003 894 3003 1313 
Q 3003 1734 2745 1975 
Q 2488 2216 2034 2216 
z
M 1403 2484 
Q 997 2584 770 2862 
Q 544 3141 544 3541 
Q 544 4100 942 4425 
Q 1341 4750 2034 4750 
Q 2731 4750 3128 4425 
Q 3525 4100 3525 3541 
Q 3525 3141 3298 2862 
Q 3072 2584 2669 2484 
Q 3125 2378 3379 2068 
Q 3634 1759 3634 1313 
Q 3634 634 3220 271 
Q 2806 -91 2034 -91 
Q 1263 -91 848 271 
Q 434 634 434 1313 
Q 434 1759 690 2068 
Q 947 2378 1403 2484 
z
M 1172 3481 
Q 1172 3119 1398 2916 
Q 1625 2713 2034 2713 
Q 2441 2713 2670 2916 
Q 2900 3119 2900 3481 
Q 2900 3844 2670 4047 
Q 2441 4250 2034 4250 
Q 1625 4250 1398 4047 
Q 1172 3844 1172 3481 
z
" transform="scale(0.015625)"/>
       </defs>
       <use xlink:href="#DejaVuSans-38"/>
      </g>
     </g>
    </g>
    <g id="xtick_2">
     <g id="line2d_3">
      <path d="M 115.243092 288.430125 
L 115.243092 22.318125 
" clip-path="url(#p5f1450bc2a)" style="fill: none; stroke: #cccccc; stroke-width: 0.5; stroke-linecap: square"/>
     </g>
     <g id="line2d_4">
      <g>
       <use xlink:href="#mce61263c8d" x="115.243092" y="288.430125" style="stroke: #000000; stroke-width: 0.8"/>
      </g>
     </g>
     <g id="text_2">
      <!-- 16 -->
      <g transform="translate(108.880592 303.028562) scale(0.1 -0.1)">
       <defs>
        <path id="DejaVuSans-31" d="M 794 531 
L 1825 531 
L 1825 4091 
L 703 3866 
L 703 4441 
L 1819 4666 
L 2450 4666 
L 2450 531 
L 3481 531 
L 3481 0 
L 794 0 
L 794 531 
z
" transform="scale(0.015625)"/>
        <path id="DejaVuSans-36" d="M 2113 2584 
Q 1688 2584 1439 2293 
Q 1191 2003 1191 1497 
Q 1191 994 1439 701 
Q 1688 409 2113 409 
Q 2538 409 2786 701 
Q 3034 994 3034 1497 
Q 3034 2003 2786 2293 
Q 2538 2584 2113 2584 
z
M 3366 4563 
L 3366 3988 
Q 3128 4100 2886 4159 
Q 2644 4219 2406 4219 
Q 1781 4219 1451 3797 
Q 1122 3375 1075 2522 
Q 1259 2794 1537 2939 
Q 1816 3084 2150 3084 
Q 2853 3084 3261 2657 
Q 3669 2231 3669 1497 
Q 3669 778 3244 343 
Q 2819 -91 2113 -91 
Q 1303 -91 875 529 
Q 447 1150 447 2328 
Q 447 3434 972 4092 
Q 1497 4750 2381 4750 
Q 2619 4750 2861 4703 
Q 3103 4656 3366 4563 
z
" transform="scale(0.015625)"/>
       </defs>
       <use xlink:href="#DejaVuSans-31"/>
       <use xlink:href="#DejaVuSans-36" x="63.623047"/>
      </g>
     </g>
    </g>
    <g id="xtick_3">
     <g id="line2d_5">
      <path d="M 152.834671 288.430125 
L 152.834671 22.318125 
" clip-path="url(#p5f1450bc2a)" style="fill: none; stroke: #cccccc; stroke-width: 0.5; stroke-linecap: square"/>
     </g>
     <g id="line2d_6">
      <g>
       <use xlink:href="#mce61263c8d" x="152.834671" y="288.430125" style="stroke: #000000; stroke-width: 0.8"/>
      </g>
     </g>
     <g id="text_3">
      <!-- 24 -->
      <g transform="translate(146.472171 303.028562) scale(0.1 -0.1)">
       <defs>
        <path id="DejaVuSans-32" d="M 1228 531 
L 3431 531 
L 3431 0 
L 469 0 
L 469 531 
Q 828 903 1448 1529 
Q 2069 2156 2228 2338 
Q 2531 2678 2651 2914 
Q 2772 3150 2772 3378 
Q 2772 3750 2511 3984 
Q 2250 4219 1831 4219 
Q 1534 4219 1204 4116 
Q 875 4013 500 3803 
L 500 4441 
Q 881 4594 1212 4672 
Q 1544 4750 1819 4750 
Q 2544 4750 2975 4387 
Q 3406 4025 3406 3419 
Q 3406 3131 3298 2873 
Q 3191 2616 2906 2266 
Q 2828 2175 2409 1742 
Q 1991 1309 1228 531 
z
" transform="scale(0.015625)"/>
        <path id="DejaVuSans-34" d="M 2419 4116 
L 825 1625 
L 2419 1625 
L 2419 4116 
z
M 2253 4666 
L 3047 4666 
L 3047 1625 
L 3713 1625 
L 3713 1100 
L 3047 1100 
L 3047 0 
L 2419 0 
L 2419 1100 
L 313 1100 
L 313 1709 
L 2253 4666 
z
" transform="scale(0.015625)"/>
       </defs>
       <use xlink:href="#DejaVuSans-32"/>
       <use xlink:href="#DejaVuSans-34" x="63.623047"/>
      </g>
     </g>
    </g>
    <g id="xtick_4">
     <g id="line2d_7">
      <path d="M 190.42625 288.430125 
L 190.42625 22.318125 
" clip-path="url(#p5f1450bc2a)" style="fill: none; stroke: #cccccc; stroke-width: 0.5; stroke-linecap: square"/>
     </g>
     <g id="line2d_8">
      <g>
       <use xlink:href="#mce61263c8d" x="190.42625" y="288.430125" style="stroke: #000000; stroke-width: 0.8"/>
      </g>
     </g>
     <g id="text_4">
      <!-- 32 -->
      <g transform="translate(184.06375 303.028562) scale(0.1 -0.1)">
       <defs>
        <path id="DejaVuSans-33" d="M 2597 2516 
Q 3050 2419 3304 2112 
Q 3559 1806 3559 1356 
Q 3559 666 3084 287 
Q 2609 -91 1734 -91 
Q 1441 -91 1130 -33 
Q 819 25 488 141 
L 488 750 
Q 750 597 1062 519 
Q 1375 441 1716 441 
Q 2309 441 2620 675 
Q 2931 909 2931 1356 
Q 2931 1769 2642 2001 
Q 2353 2234 1838 2234 
L 1294 2234 
L 1294 2753 
L 1863 2753 
Q 2328 2753 2575 2939 
Q 2822 3125 2822 3475 
Q 2822 3834 2567 4026 
Q 2313 4219 1838 4219 
Q 1578 4219 1281 4162 
Q 984 4106 628 3988 
L 628 4550 
Q 988 4650 1302 4700 
Q 1616 4750 1894 4750 
Q 2613 4750 3031 4423 
Q 3450 4097 3450 3541 
Q 3450 3153 3228 2886 
Q 3006 2619 2597 2516 
z
" transform="scale(0.015625)"/>
       </defs>
       <use xlink:href="#DejaVuSans-33"/>
       <use xlink:href="#DejaVuSans-32" x="63.623047"/>
      </g>
     </g>
    </g>
    <g id="xtick_5">
     <g id="line2d_9">
      <path d="M 228.017829 288.430125 
L 228.017829 22.318125 
" clip-path="url(#p5f1450bc2a)" style="fill: none; stroke: #cccccc; stroke-width: 0.5; stroke-linecap: square"/>
     </g>
     <g id="line2d_10">
      <g>
       <use xlink:href="#mce61263c8d" x="228.017829" y="288.430125" style="stroke: #000000; stroke-width: 0.8"/>
      </g>
     </g>
     <g id="text_5">
      <!-- 40 -->
      <g transform="translate(221.655329 303.028562) scale(0.1 -0.1)">
       <defs>
        <path id="DejaVuSans-30" d="M 2034 4250 
Q 1547 4250 1301 3770 
Q 1056 3291 1056 2328 
Q 1056 1369 1301 889 
Q 1547 409 2034 409 
Q 2525 409 2770 889 
Q 3016 1369 3016 2328 
Q 3016 3291 2770 3770 
Q 2525 4250 2034 4250 
z
M 2034 4750 
Q 2819 4750 3233 4129 
Q 3647 3509 3647 2328 
Q 3647 1150 3233 529 
Q 2819 -91 2034 -91 
Q 1250 -91 836 529 
Q 422 1150 422 2328 
Q 422 3509 836 4129 
Q 1250 4750 2034 4750 
z
" transform="scale(0.015625)"/>
       </defs>
       <use xlink:href="#DejaVuSans-34"/>
       <use xlink:href="#DejaVuSans-30" x="63.623047"/>
      </g>
     </g>
    </g>
    <g id="xtick_6">
     <g id="line2d_11">
      <path d="M 265.609408 288.430125 
L 265.609408 22.318125 
" clip-path="url(#p5f1450bc2a)" style="fill: none; stroke: #cccccc; stroke-width: 0.5; stroke-linecap: square"/>
     </g>
     <g id="line2d_12">
      <g>
       <use xlink:href="#mce61263c8d" x="265.609408" y="288.430125" style="stroke: #000000; stroke-width: 0.8"/>
      </g>
     </g>
     <g id="text_6">
      <!-- 48 -->
      <g transform="translate(259.246908 303.028562) scale(0.1 -0.1)">
       <use xlink:href="#DejaVuSans-34"/>
       <use xlink:href="#DejaVuSans-38" x="63.623047"/>
      </g>
     </g>
    </g>
    <g id="xtick_7">
     <g id="line2d_13">
      <path d="M 303.200987 288.430125 
L 303.200987 22.318125 
" clip-path="url(#p5f1450bc2a)" style="fill: none; stroke: #cccccc; stroke-width: 0.5; stroke-linecap: square"/>
     </g>
     <g id="line2d_14">
      <g>
       <use xlink:href="#mce61263c8d" x="303.200987" y="288.430125" style="stroke: #000000; stroke-width: 0.8"/>
      </g>
     </g>
     <g id="text_7">
      <!-- 56 -->
      <g transform="translate(296.838487 303.028562) scale(0.1 -0.1)">
       <defs>
        <path id="DejaVuSans-35" d="M 691 4666 
L 3169 4666 
L 3169 4134 
L 1269 4134 
L 1269 2991 
Q 1406 3038 1543 3061 
Q 1681 3084 1819 3084 
Q 2600 3084 3056 2656 
Q 3513 2228 3513 1497 
Q 3513 744 3044 326 
Q 2575 -91 1722 -91 
Q 1428 -91 1123 -41 
Q 819 9 494 109 
L 494 744 
Q 775 591 1075 516 
Q 1375 441 1709 441 
Q 2250 441 2565 725 
Q 2881 1009 2881 1497 
Q 2881 1984 2565 2268 
Q 2250 2553 1709 2553 
Q 1456 2553 1204 2497 
Q 953 2441 691 2322 
L 691 4666 
z
" transform="scale(0.015625)"/>
       </defs>
       <use xlink:href="#DejaVuSans-35"/>
       <use xlink:href="#DejaVuSans-36" x="63.623047"/>
      </g>
     </g>
    </g>
    <g id="xtick_8">
     <g id="line2d_15">
      <path d="M 340.792566 288.430125 
L 340.792566 22.318125 
" clip-path="url(#p5f1450bc2a)" style="fill: none; stroke: #cccccc; stroke-width: 0.5; stroke-linecap: square"/>
     </g>
     <g id="line2d_16">
      <g>
       <use xlink:href="#mce61263c8d" x="340.792566" y="288.430125" style="stroke: #000000; stroke-width: 0.8"/>
      </g>
     </g>
     <g id="text_8">
      <!-- 64 -->
      <g transform="translate(334.430066 303.028562) scale(0.1 -0.1)">
       <use xlink:href="#DejaVuSans-36"/>
       <use xlink:href="#DejaVuSans-34" x="63.623047"/>
      </g>
     </g>
    </g>
    <g id="xtick_9">
     <g id="line2d_17">
      <path d="M 378.384145 288.430125 
L 378.384145 22.318125 
" clip-path="url(#p5f1450bc2a)" style="fill: none; stroke: #cccccc; stroke-width: 0.5; stroke-linecap: square"/>
     </g>
     <g id="line2d_18">
      <g>
       <use xlink:href="#mce61263c8d" x="378.384145" y="288.430125" style="stroke: #000000; stroke-width: 0.8"/>
      </g>
     </g>
     <g id="text_9">
      <!-- 72 -->
      <g transform="translate(372.021645 303.028562) scale(0.1 -0.1)">
       <defs>
        <path id="DejaVuSans-37" d="M 525 4666 
L 3525 4666 
L 3525 4397 
L 1831 0 
L 1172 0 
L 2766 4134 
L 525 4134 
L 525 4666 
z
" transform="scale(0.015625)"/>
       </defs>
       <use xlink:href="#DejaVuSans-37"/>
       <use xlink:href="#DejaVuSans-32" x="63.623047"/>
      </g>
     </g>
    </g>
    <g id="text_10">
     <!-- k -->
     <g transform="translate(232.170938 316.706687) scale(0.1 -0.1)">
      <defs>
       <path id="DejaVuSans-6b" d="M 581 4863 
L 1159 4863 
L 1159 1991 
L 2875 3500 
L 3609 3500 
L 1753 1863 
L 3688 0 
L 2938 0 
L 1159 1709 
L 1159 0 
L 581 0 
L 581 4863 
z
" transform="scale(0.015625)"/>
      </defs>
      <use xlink:href="#DejaVuSans-6b"/>
     </g>
    </g>
   </g>
   <g id="matplotlib.axis_2">
    <g id="ytick_1">
     <g id="line2d_19">
      <defs>
       <path id="m48fcdefc7e" d="M 0 0 
L -3.5 0 
" style="stroke: #000000; stroke-width: 0.8"/>
      </defs>
      <g>
       <use xlink:href="#m48fcdefc7e" x="56.50625" y="282.990387" style="stroke: #000000; stroke-width: 0.8"/>
      </g>
     </g>
     <g id="text_11">
      <!-- 0.042 -->
      <g transform="translate(20.878125 286.789605) scale(0.1 -0.1)">
       <defs>
        <path id="DejaVuSans-2e" d="M 684 794 
L 1344 794 
L 1344 0 
L 684 0 
L 684 794 
z
" transform="scale(0.015625)"/>
       </defs>
       <use xlink:href="#DejaVuSans-30"/>
       <use xlink:href="#DejaVuSans-2e" x="63.623047"/>
       <use xlink:href="#DejaVuSans-30" x="95.410156"/>
       <use xlink:href="#DejaVuSans-34" x="159.033203"/>
       <use xlink:href="#DejaVuSans-32" x="222.65625"/>
      </g>
     </g>
    </g>
    <g id="ytick_2">
     <g id="line2d_20">
      <g>
       <use xlink:href="#m48fcdefc7e" x="56.50625" y="155.323058" style="stroke: #000000; stroke-width: 0.8"/>
      </g>
     </g>
     <g id="text_12">
      <!-- 0.061 -->
      <g transform="translate(20.878125 159.122277) scale(0.1 -0.1)">
       <use xlink:href="#DejaVuSans-30"/>
       <use xlink:href="#DejaVuSans-2e" x="63.623047"/>
       <use xlink:href="#DejaVuSans-30" x="95.410156"/>
       <use xlink:href="#DejaVuSans-36" x="159.033203"/>
       <use xlink:href="#DejaVuSans-31" x="222.65625"/>
      </g>
     </g>
    </g>
    <g id="ytick_3">
     <g id="line2d_21">
      <g>
       <use xlink:href="#m48fcdefc7e" x="56.50625" y="32.762423" style="stroke: #000000; stroke-width: 0.8"/>
      </g>
     </g>
     <g id="text_13">
      <!-- 0.080 -->
      <g transform="translate(20.878125 36.561641) scale(0.1 -0.1)">
       <use xlink:href="#DejaVuSans-30"/>
       <use xlink:href="#DejaVuSans-2e" x="63.623047"/>
       <use xlink:href="#DejaVuSans-30" x="95.410156"/>
       <use xlink:href="#DejaVuSans-38" x="159.033203"/>
       <use xlink:href="#DejaVuSans-30" x="222.65625"/>
      </g>
     </g>
    </g>
    <g id="text_14">
     <!-- Density -->
     <g transform="translate(14.798437 174.382719) rotate(-90) scale(0.1 -0.1)">
      <defs>
       <path id="DejaVuSans-44" d="M 1259 4147 
L 1259 519 
L 2022 519 
Q 2988 519 3436 956 
Q 3884 1394 3884 2338 
Q 3884 3275 3436 3711 
Q 2988 4147 2022 4147 
L 1259 4147 
z
M 628 4666 
L 1925 4666 
Q 3281 4666 3915 4102 
Q 4550 3538 4550 2338 
Q 4550 1131 3912 565 
Q 3275 0 1925 0 
L 628 0 
L 628 4666 
z
" transform="scale(0.015625)"/>
       <path id="DejaVuSans-65" d="M 3597 1894 
L 3597 1613 
L 953 1613 
Q 991 1019 1311 708 
Q 1631 397 2203 397 
Q 2534 397 2845 478 
Q 3156 559 3463 722 
L 3463 178 
Q 3153 47 2828 -22 
Q 2503 -91 2169 -91 
Q 1331 -91 842 396 
Q 353 884 353 1716 
Q 353 2575 817 3079 
Q 1281 3584 2069 3584 
Q 2775 3584 3186 3129 
Q 3597 2675 3597 1894 
z
M 3022 2063 
Q 3016 2534 2758 2815 
Q 2500 3097 2075 3097 
Q 1594 3097 1305 2825 
Q 1016 2553 972 2059 
L 3022 2063 
z
" transform="scale(0.015625)"/>
       <path id="DejaVuSans-6e" d="M 3513 2113 
L 3513 0 
L 2938 0 
L 2938 2094 
Q 2938 2591 2744 2837 
Q 2550 3084 2163 3084 
Q 1697 3084 1428 2787 
Q 1159 2491 1159 1978 
L 1159 0 
L 581 0 
L 581 3500 
L 1159 3500 
L 1159 2956 
Q 1366 3272 1645 3428 
Q 1925 3584 2291 3584 
Q 2894 3584 3203 3211 
Q 3513 2838 3513 2113 
z
" transform="scale(0.015625)"/>
       <path id="DejaVuSans-73" d="M 2834 3397 
L 2834 2853 
Q 2591 2978 2328 3040 
Q 2066 3103 1784 3103 
Q 1356 3103 1142 2972 
Q 928 2841 928 2578 
Q 928 2378 1081 2264 
Q 1234 2150 1697 2047 
L 1894 2003 
Q 2506 1872 2764 1633 
Q 3022 1394 3022 966 
Q 3022 478 2636 193 
Q 2250 -91 1575 -91 
Q 1294 -91 989 -36 
Q 684 19 347 128 
L 347 722 
Q 666 556 975 473 
Q 1284 391 1588 391 
Q 1994 391 2212 530 
Q 2431 669 2431 922 
Q 2431 1156 2273 1281 
Q 2116 1406 1581 1522 
L 1381 1569 
Q 847 1681 609 1914 
Q 372 2147 372 2553 
Q 372 3047 722 3315 
Q 1072 3584 1716 3584 
Q 2034 3584 2315 3537 
Q 2597 3491 2834 3397 
z
" transform="scale(0.015625)"/>
       <path id="DejaVuSans-69" d="M 603 3500 
L 1178 3500 
L 1178 0 
L 603 0 
L 603 3500 
z
M 603 4863 
L 1178 4863 
L 1178 4134 
L 603 4134 
L 603 4863 
z
" transform="scale(0.015625)"/>
       <path id="DejaVuSans-74" d="M 1172 4494 
L 1172 3500 
L 2356 3500 
L 2356 3053 
L 1172 3053 
L 1172 1153 
Q 1172 725 1289 603 
Q 1406 481 1766 481 
L 2356 481 
L 2356 0 
L 1766 0 
Q 1100 0 847 248 
Q 594 497 594 1153 
L 594 3053 
L 172 3053 
L 172 3500 
L 594 3500 
L 594 4494 
L 1172 4494 
z
" transform="scale(0.015625)"/>
       <path id="DejaVuSans-79" d="M 2059 -325 
Q 1816 -950 1584 -1140 
Q 1353 -1331 966 -1331 
L 506 -1331 
L 506 -850 
L 844 -850 
Q 1081 -850 1212 -737 
Q 1344 -625 1503 -206 
L 1606 56 
L 191 3500 
L 800 3500 
L 1894 763 
L 2988 3500 
L 3597 3500 
L 2059 -325 
z
" transform="scale(0.015625)"/>
      </defs>
      <use xlink:href="#DejaVuSans-44"/>
      <use xlink:href="#DejaVuSans-65" x="77.001953"/>
      <use xlink:href="#DejaVuSans-6e" x="138.525391"/>
      <use xlink:href="#DejaVuSans-73" x="201.904297"/>
      <use xlink:href="#DejaVuSans-69" x="254.003906"/>
      <use xlink:href="#DejaVuSans-74" x="281.787109"/>
      <use xlink:href="#DejaVuSans-79" x="320.996094"/>
     </g>
    </g>
   </g>
   <g id="line2d_22">
    <path d="M 58.855724 39.975181 
L 63.554671 31.109829 
L 68.253618 33.988095 
L 72.952566 32.290327 
L 77.651513 34.554979 
L 82.350461 31.858441 
L 87.049408 34.025179 
L 91.748355 33.182558 
L 96.447303 31.993957 
L 101.14625 32.522195 
L 105.845197 32.854597 
L 110.544145 32.201282 
L 115.243092 32.553268 
L 119.942039 33.231651 
L 124.640987 34.360464 
L 129.339934 32.767123 
L 134.038882 31.754767 
L 138.737829 32.537599 
L 143.436776 32.935283 
L 148.135724 31.563886 
L 152.834671 32.777568 
L 157.533618 32.613846 
L 162.232566 34.650059 
L 166.931513 32.736833 
L 171.630461 33.141047 
L 176.329408 33.597487 
L 181.028355 33.002915 
L 185.727303 32.630295 
L 190.42625 32.17281 
L 195.125197 31.826301 
L 199.824145 34.032259 
L 204.523092 32.771823 
L 209.222039 33.267434 
L 213.920987 31.758928 
L 218.619934 31.014203 
L 223.318882 32.560835 
L 228.017829 33.865931 
L 232.716776 31.071384 
L 237.415724 32.559268 
L 242.114671 33.178916 
L 246.813618 33.067416 
L 251.512566 33.040782 
L 256.211513 31.662824 
L 260.910461 32.01482 
L 265.609408 31.668306 
L 270.308355 31.622085 
L 275.007303 31.549752 
L 279.70625 31.033504 
L 284.405197 33.069769 
L 289.104145 32.096549 
L 293.803092 33.029556 
L 298.502039 32.239123 
L 303.200987 32.930589 
L 307.899934 32.322944 
L 312.598882 33.445273 
L 317.297829 31.897565 
L 321.996776 33.561738 
L 326.695724 33.665668 
L 331.394671 32.979682 
L 336.093618 33.971453 
L 340.792566 33.200599 
L 345.491513 31.424392 
L 350.190461 33.447629 
L 354.889408 33.035826 
L 359.588355 33.812169 
L 364.287303 32.584331 
L 368.98625 33.1126 
L 373.685197 31.865174 
L 378.384145 31.309745 
L 383.083092 31.864128 
L 387.782039 32.61436 
L 392.480987 31.419156 
L 397.179934 33.670904 
L 401.878882 33.938045 
L 406.577829 31.541623 
L 411.276776 33.662812 
" clip-path="url(#p5f1450bc2a)" style="fill: none; stroke: #ffa500; stroke-linecap: square"/>
    <defs>
     <path id="m8a2cb9881a" d="M 0 1 
C 0.265203 1 0.51958 0.894634 0.707107 0.707107 
C 0.894634 0.51958 1 0.265203 1 0 
C 1 -0.265203 0.894634 -0.51958 0.707107 -0.707107 
C 0.51958 -0.894634 0.265203 -1 0 -1 
C -0.265203 -1 -0.51958 -0.894634 -0.707107 -0.707107 
C -0.894634 -0.51958 -1 -0.265203 -1 0 
C -1 0.265203 -0.894634 0.51958 -0.707107 0.707107 
C -0.51958 0.894634 -0.265203 1 0 1 
z
" style="stroke: #ffa500"/>
    </defs>
    <g clip-path="url(#p5f1450bc2a)">
     <use xlink:href="#m8a2cb9881a" x="58.855724" y="39.975181" style="fill: #ffa500; stroke: #ffa500"/>
     <use xlink:href="#m8a2cb9881a" x="63.554671" y="31.109829" style="fill: #ffa500; stroke: #ffa500"/>
     <use xlink:href="#m8a2cb9881a" x="68.253618" y="33.988095" style="fill: #ffa500; stroke: #ffa500"/>
     <use xlink:href="#m8a2cb9881a" x="72.952566" y="32.290327" style="fill: #ffa500; stroke: #ffa500"/>
     <use xlink:href="#m8a2cb9881a" x="77.651513" y="34.554979" style="fill: #ffa500; stroke: #ffa500"/>
     <use xlink:href="#m8a2cb9881a" x="82.350461" y="31.858441" style="fill: #ffa500; stroke: #ffa500"/>
     <use xlink:href="#m8a2cb9881a" x="87.049408" y="34.025179" style="fill: #ffa500; stroke: #ffa500"/>
     <use xlink:href="#m8a2cb9881a" x="91.748355" y="33.182558" style="fill: #ffa500; stroke: #ffa500"/>
     <use xlink:href="#m8a2cb9881a" x="96.447303" y="31.993957" style="fill: #ffa500; stroke: #ffa500"/>
     <use xlink:href="#m8a2cb9881a" x="101.14625" y="32.522195" style="fill: #ffa500; stroke: #ffa500"/>
     <use xlink:href="#m8a2cb9881a" x="105.845197" y="32.854597" style="fill: #ffa500; stroke: #ffa500"/>
     <use xlink:href="#m8a2cb9881a" x="110.544145" y="32.201282" style="fill: #ffa500; stroke: #ffa500"/>
     <use xlink:href="#m8a2cb9881a" x="115.243092" y="32.553268" style="fill: #ffa500; stroke: #ffa500"/>
     <use xlink:href="#m8a2cb9881a" x="119.942039" y="33.231651" style="fill: #ffa500; stroke: #ffa500"/>
     <use xlink:href="#m8a2cb9881a" x="124.640987" y="34.360464" style="fill: #ffa500; stroke: #ffa500"/>
     <use xlink:href="#m8a2cb9881a" x="129.339934" y="32.767123" style="fill: #ffa500; stroke: #ffa500"/>
     <use xlink:href="#m8a2cb9881a" x="134.038882" y="31.754767" style="fill: #ffa500; stroke: #ffa500"/>
     <use xlink:href="#m8a2cb9881a" x="138.737829" y="32.537599" style="fill: #ffa500; stroke: #ffa500"/>
     <use xlink:href="#m8a2cb9881a" x="143.436776" y="32.935283" style="fill: #ffa500; stroke: #ffa500"/>
     <use xlink:href="#m8a2cb9881a" x="148.135724" y="31.563886" style="fill: #ffa500; stroke: #ffa500"/>
     <use xlink:href="#m8a2cb9881a" x="152.834671" y="32.777568" style="fill: #ffa500; stroke: #ffa500"/>
     <use xlink:href="#m8a2cb9881a" x="157.533618" y="32.613846" style="fill: #ffa500; stroke: #ffa500"/>
     <use xlink:href="#m8a2cb9881a" x="162.232566" y="34.650059" style="fill: #ffa500; stroke: #ffa500"/>
     <use xlink:href="#m8a2cb9881a" x="166.931513" y="32.736833" style="fill: #ffa500; stroke: #ffa500"/>
     <use xlink:href="#m8a2cb9881a" x="171.630461" y="33.141047" style="fill: #ffa500; stroke: #ffa500"/>
     <use xlink:href="#m8a2cb9881a" x="176.329408" y="33.597487" style="fill: #ffa500; stroke: #ffa500"/>
     <use xlink:href="#m8a2cb9881a" x="181.028355" y="33.002915" style="fill: #ffa500; stroke: #ffa500"/>
     <use xlink:href="#m8a2cb9881a" x="185.727303" y="32.630295" style="fill: #ffa500; stroke: #ffa500"/>
     <use xlink:href="#m8a2cb9881a" x="190.42625" y="32.17281" style="fill: #ffa500; stroke: #ffa500"/>
     <use xlink:href="#m8a2cb9881a" x="195.125197" y="31.826301" style="fill: #ffa500; stroke: #ffa500"/>
     <use xlink:href="#m8a2cb9881a" x="199.824145" y="34.032259" style="fill: #ffa500; stroke: #ffa500"/>
     <use xlink:href="#m8a2cb9881a" x="204.523092" y="32.771823" style="fill: #ffa500; stroke: #ffa500"/>
     <use xlink:href="#m8a2cb9881a" x="209.222039" y="33.267434" style="fill: #ffa500; stroke: #ffa500"/>
     <use xlink:href="#m8a2cb9881a" x="213.920987" y="31.758928" style="fill: #ffa500; stroke: #ffa500"/>
     <use xlink:href="#m8a2cb9881a" x="218.619934" y="31.014203" style="fill: #ffa500; stroke: #ffa500"/>
     <use xlink:href="#m8a2cb9881a" x="223.318882" y="32.560835" style="fill: #ffa500; stroke: #ffa500"/>
     <use xlink:href="#m8a2cb9881a" x="228.017829" y="33.865931" style="fill: #ffa500; stroke: #ffa500"/>
     <use xlink:href="#m8a2cb9881a" x="232.716776" y="31.071384" style="fill: #ffa500; stroke: #ffa500"/>
     <use xlink:href="#m8a2cb9881a" x="237.415724" y="32.559268" style="fill: #ffa500; stroke: #ffa500"/>
     <use xlink:href="#m8a2cb9881a" x="242.114671" y="33.178916" style="fill: #ffa500; stroke: #ffa500"/>
     <use xlink:href="#m8a2cb9881a" x="246.813618" y="33.067416" style="fill: #ffa500; stroke: #ffa500"/>
     <use xlink:href="#m8a2cb9881a" x="251.512566" y="33.040782" style="fill: #ffa500; stroke: #ffa500"/>
     <use xlink:href="#m8a2cb9881a" x="256.211513" y="31.662824" style="fill: #ffa500; stroke: #ffa500"/>
     <use xlink:href="#m8a2cb9881a" x="260.910461" y="32.01482" style="fill: #ffa500; stroke: #ffa500"/>
     <use xlink:href="#m8a2cb9881a" x="265.609408" y="31.668306" style="fill: #ffa500; stroke: #ffa500"/>
     <use xlink:href="#m8a2cb9881a" x="270.308355" y="31.622085" style="fill: #ffa500; stroke: #ffa500"/>
     <use xlink:href="#m8a2cb9881a" x="275.007303" y="31.549752" style="fill: #ffa500; stroke: #ffa500"/>
     <use xlink:href="#m8a2cb9881a" x="279.70625" y="31.033504" style="fill: #ffa500; stroke: #ffa500"/>
     <use xlink:href="#m8a2cb9881a" x="284.405197" y="33.069769" style="fill: #ffa500; stroke: #ffa500"/>
     <use xlink:href="#m8a2cb9881a" x="289.104145" y="32.096549" style="fill: #ffa500; stroke: #ffa500"/>
     <use xlink:href="#m8a2cb9881a" x="293.803092" y="33.029556" style="fill: #ffa500; stroke: #ffa500"/>
     <use xlink:href="#m8a2cb9881a" x="298.502039" y="32.239123" style="fill: #ffa500; stroke: #ffa500"/>
     <use xlink:href="#m8a2cb9881a" x="303.200987" y="32.930589" style="fill: #ffa500; stroke: #ffa500"/>
     <use xlink:href="#m8a2cb9881a" x="307.899934" y="32.322944" style="fill: #ffa500; stroke: #ffa500"/>
     <use xlink:href="#m8a2cb9881a" x="312.598882" y="33.445273" style="fill: #ffa500; stroke: #ffa500"/>
     <use xlink:href="#m8a2cb9881a" x="317.297829" y="31.897565" style="fill: #ffa500; stroke: #ffa500"/>
     <use xlink:href="#m8a2cb9881a" x="321.996776" y="33.561738" style="fill: #ffa500; stroke: #ffa500"/>
     <use xlink:href="#m8a2cb9881a" x="326.695724" y="33.665668" style="fill: #ffa500; stroke: #ffa500"/>
     <use xlink:href="#m8a2cb9881a" x="331.394671" y="32.979682" style="fill: #ffa500; stroke: #ffa500"/>
     <use xlink:href="#m8a2cb9881a" x="336.093618" y="33.971453" style="fill: #ffa500; stroke: #ffa500"/>
     <use xlink:href="#m8a2cb9881a" x="340.792566" y="33.200599" style="fill: #ffa500; stroke: #ffa500"/>
     <use xlink:href="#m8a2cb9881a" x="345.491513" y="31.424392" style="fill: #ffa500; stroke: #ffa500"/>
     <use xlink:href="#m8a2cb9881a" x="350.190461" y="33.447629" style="fill: #ffa500; stroke: #ffa500"/>
     <use xlink:href="#m8a2cb9881a" x="354.889408" y="33.035826" style="fill: #ffa500; stroke: #ffa500"/>
     <use xlink:href="#m8a2cb9881a" x="359.588355" y="33.812169" style="fill: #ffa500; stroke: #ffa500"/>
     <use xlink:href="#m8a2cb9881a" x="364.287303" y="32.584331" style="fill: #ffa500; stroke: #ffa500"/>
     <use xlink:href="#m8a2cb9881a" x="368.98625" y="33.1126" style="fill: #ffa500; stroke: #ffa500"/>
     <use xlink:href="#m8a2cb9881a" x="373.685197" y="31.865174" style="fill: #ffa500; stroke: #ffa500"/>
     <use xlink:href="#m8a2cb9881a" x="378.384145" y="31.309745" style="fill: #ffa500; stroke: #ffa500"/>
     <use xlink:href="#m8a2cb9881a" x="383.083092" y="31.864128" style="fill: #ffa500; stroke: #ffa500"/>
     <use xlink:href="#m8a2cb9881a" x="387.782039" y="32.61436" style="fill: #ffa500; stroke: #ffa500"/>
     <use xlink:href="#m8a2cb9881a" x="392.480987" y="31.419156" style="fill: #ffa500; stroke: #ffa500"/>
     <use xlink:href="#m8a2cb9881a" x="397.179934" y="33.670904" style="fill: #ffa500; stroke: #ffa500"/>
     <use xlink:href="#m8a2cb9881a" x="401.878882" y="33.938045" style="fill: #ffa500; stroke: #ffa500"/>
     <use xlink:href="#m8a2cb9881a" x="406.577829" y="31.541623" style="fill: #ffa500; stroke: #ffa500"/>
     <use xlink:href="#m8a2cb9881a" x="411.276776" y="33.662812" style="fill: #ffa500; stroke: #ffa500"/>
    </g>
   </g>
   <g id="line2d_23">
    <path d="M 58.855724 52.319356 
L 63.554671 59.819367 
L 68.253618 60.079987 
L 72.952566 78.337959 
L 77.651513 84.095074 
L 82.350461 92.35891 
L 87.049408 96.418798 
L 91.748355 105.93602 
L 96.447303 109.800092 
L 101.14625 119.761245 
L 105.845197 124.728557 
L 110.544145 130.087556 
L 115.243092 135.198503 
L 119.942039 138.070377 
L 124.640987 139.486525 
L 129.339934 142.377993 
L 134.038882 143.11524 
L 138.737829 144.61626 
L 143.436776 145.275175 
L 148.135724 145.575052 
L 152.834671 143.629303 
L 157.533618 142.571357 
L 162.232566 140.651713 
L 166.931513 137.942176 
L 171.630461 135.115129 
L 176.329408 132.144461 
L 181.028355 129.154202 
L 185.727303 127.698025 
L 190.42625 126.032948 
L 195.125197 124.877055 
L 199.824145 124.236876 
L 204.523092 122.47387 
L 209.222039 120.77614 
L 213.920987 120.325269 
L 218.619934 118.040007 
L 223.318882 116.649088 
L 228.017829 115.682493 
L 232.716776 112.920668 
L 237.415724 109.284072 
L 242.114671 107.044485 
L 246.813618 102.839929 
L 251.512566 100.541578 
L 256.211513 95.534048 
L 260.910461 92.674264 
L 265.609408 90.023376 
L 270.308355 86.589104 
L 275.007303 84.728112 
L 279.70625 80.438638 
L 284.405197 78.257755 
L 289.104145 74.027021 
L 293.803092 70.338117 
L 298.502039 67.987484 
L 303.200987 66.824979 
L 307.899934 65.401342 
L 312.598882 63.122508 
L 317.297829 60.863254 
L 321.996776 59.237233 
L 326.695724 55.646211 
L 331.394671 54.398819 
L 336.093618 53.281989 
L 340.792566 51.655954 
L 345.491513 50.114783 
L 350.190461 50.662652 
L 354.889408 48.227104 
L 359.588355 48.637878 
L 364.287303 47.077113 
L 368.98625 44.778648 
L 373.685197 45.045798 
L 378.384145 44.464269 
L 383.083092 42.740286 
L 387.782039 42.681019 
L 392.480987 40.127934 
L 397.179934 42.105501 
L 401.878882 41.576194 
L 406.577829 39.64982 
L 411.276776 40.824407 
" clip-path="url(#p5f1450bc2a)" style="fill: none; stroke: #000000; stroke-linecap: square"/>
    <defs>
     <path id="m04091eb896" d="M 0 1 
C 0.265203 1 0.51958 0.894634 0.707107 0.707107 
C 0.894634 0.51958 1 0.265203 1 0 
C 1 -0.265203 0.894634 -0.51958 0.707107 -0.707107 
C 0.51958 -0.894634 0.265203 -1 0 -1 
C -0.265203 -1 -0.51958 -0.894634 -0.707107 -0.707107 
C -0.894634 -0.51958 -1 -0.265203 -1 0 
C -1 0.265203 -0.894634 0.51958 -0.707107 0.707107 
C -0.51958 0.894634 -0.265203 1 0 1 
z
" style="stroke: #000000"/>
    </defs>
    <g clip-path="url(#p5f1450bc2a)">
     <use xlink:href="#m04091eb896" x="58.855724" y="52.319356" style="stroke: #000000"/>
     <use xlink:href="#m04091eb896" x="63.554671" y="59.819367" style="stroke: #000000"/>
     <use xlink:href="#m04091eb896" x="68.253618" y="60.079987" style="stroke: #000000"/>
     <use xlink:href="#m04091eb896" x="72.952566" y="78.337959" style="stroke: #000000"/>
     <use xlink:href="#m04091eb896" x="77.651513" y="84.095074" style="stroke: #000000"/>
     <use xlink:href="#m04091eb896" x="82.350461" y="92.35891" style="stroke: #000000"/>
     <use xlink:href="#m04091eb896" x="87.049408" y="96.418798" style="stroke: #000000"/>
     <use xlink:href="#m04091eb896" x="91.748355" y="105.93602" style="stroke: #000000"/>
     <use xlink:href="#m04091eb896" x="96.447303" y="109.800092" style="stroke: #000000"/>
     <use xlink:href="#m04091eb896" x="101.14625" y="119.761245" style="stroke: #000000"/>
     <use xlink:href="#m04091eb896" x="105.845197" y="124.728557" style="stroke: #000000"/>
     <use xlink:href="#m04091eb896" x="110.544145" y="130.087556" style="stroke: #000000"/>
     <use xlink:href="#m04091eb896" x="115.243092" y="135.198503" style="stroke: #000000"/>
     <use xlink:href="#m04091eb896" x="119.942039" y="138.070377" style="stroke: #000000"/>
     <use xlink:href="#m04091eb896" x="124.640987" y="139.486525" style="stroke: #000000"/>
     <use xlink:href="#m04091eb896" x="129.339934" y="142.377993" style="stroke: #000000"/>
     <use xlink:href="#m04091eb896" x="134.038882" y="143.11524" style="stroke: #000000"/>
     <use xlink:href="#m04091eb896" x="138.737829" y="144.61626" style="stroke: #000000"/>
     <use xlink:href="#m04091eb896" x="143.436776" y="145.275175" style="stroke: #000000"/>
     <use xlink:href="#m04091eb896" x="148.135724" y="145.575052" style="stroke: #000000"/>
     <use xlink:href="#m04091eb896" x="152.834671" y="143.629303" style="stroke: #000000"/>
     <use xlink:href="#m04091eb896" x="157.533618" y="142.571357" style="stroke: #000000"/>
     <use xlink:href="#m04091eb896" x="162.232566" y="140.651713" style="stroke: #000000"/>
     <use xlink:href="#m04091eb896" x="166.931513" y="137.942176" style="stroke: #000000"/>
     <use xlink:href="#m04091eb896" x="171.630461" y="135.115129" style="stroke: #000000"/>
     <use xlink:href="#m04091eb896" x="176.329408" y="132.144461" style="stroke: #000000"/>
     <use xlink:href="#m04091eb896" x="181.028355" y="129.154202" style="stroke: #000000"/>
     <use xlink:href="#m04091eb896" x="185.727303" y="127.698025" style="stroke: #000000"/>
     <use xlink:href="#m04091eb896" x="190.42625" y="126.032948" style="stroke: #000000"/>
     <use xlink:href="#m04091eb896" x="195.125197" y="124.877055" style="stroke: #000000"/>
     <use xlink:href="#m04091eb896" x="199.824145" y="124.236876" style="stroke: #000000"/>
     <use xlink:href="#m04091eb896" x="204.523092" y="122.47387" style="stroke: #000000"/>
     <use xlink:href="#m04091eb896" x="209.222039" y="120.77614" style="stroke: #000000"/>
     <use xlink:href="#m04091eb896" x="213.920987" y="120.325269" style="stroke: #000000"/>
     <use xlink:href="#m04091eb896" x="218.619934" y="118.040007" style="stroke: #000000"/>
     <use xlink:href="#m04091eb896" x="223.318882" y="116.649088" style="stroke: #000000"/>
     <use xlink:href="#m04091eb896" x="228.017829" y="115.682493" style="stroke: #000000"/>
     <use xlink:href="#m04091eb896" x="232.716776" y="112.920668" style="stroke: #000000"/>
     <use xlink:href="#m04091eb896" x="237.415724" y="109.284072" style="stroke: #000000"/>
     <use xlink:href="#m04091eb896" x="242.114671" y="107.044485" style="stroke: #000000"/>
     <use xlink:href="#m04091eb896" x="246.813618" y="102.839929" style="stroke: #000000"/>
     <use xlink:href="#m04091eb896" x="251.512566" y="100.541578" style="stroke: #000000"/>
     <use xlink:href="#m04091eb896" x="256.211513" y="95.534048" style="stroke: #000000"/>
     <use xlink:href="#m04091eb896" x="260.910461" y="92.674264" style="stroke: #000000"/>
     <use xlink:href="#m04091eb896" x="265.609408" y="90.023376" style="stroke: #000000"/>
     <use xlink:href="#m04091eb896" x="270.308355" y="86.589104" style="stroke: #000000"/>
     <use xlink:href="#m04091eb896" x="275.007303" y="84.728112" style="stroke: #000000"/>
     <use xlink:href="#m04091eb896" x="279.70625" y="80.438638" style="stroke: #000000"/>
     <use xlink:href="#m04091eb896" x="284.405197" y="78.257755" style="stroke: #000000"/>
     <use xlink:href="#m04091eb896" x="289.104145" y="74.027021" style="stroke: #000000"/>
     <use xlink:href="#m04091eb896" x="293.803092" y="70.338117" style="stroke: #000000"/>
     <use xlink:href="#m04091eb896" x="298.502039" y="67.987484" style="stroke: #000000"/>
     <use xlink:href="#m04091eb896" x="303.200987" y="66.824979" style="stroke: #000000"/>
     <use xlink:href="#m04091eb896" x="307.899934" y="65.401342" style="stroke: #000000"/>
     <use xlink:href="#m04091eb896" x="312.598882" y="63.122508" style="stroke: #000000"/>
     <use xlink:href="#m04091eb896" x="317.297829" y="60.863254" style="stroke: #000000"/>
     <use xlink:href="#m04091eb896" x="321.996776" y="59.237233" style="stroke: #000000"/>
     <use xlink:href="#m04091eb896" x="326.695724" y="55.646211" style="stroke: #000000"/>
     <use xlink:href="#m04091eb896" x="331.394671" y="54.398819" style="stroke: #000000"/>
     <use xlink:href="#m04091eb896" x="336.093618" y="53.281989" style="stroke: #000000"/>
     <use xlink:href="#m04091eb896" x="340.792566" y="51.655954" style="stroke: #000000"/>
     <use xlink:href="#m04091eb896" x="345.491513" y="50.114783" style="stroke: #000000"/>
     <use xlink:href="#m04091eb896" x="350.190461" y="50.662652" style="stroke: #000000"/>
     <use xlink:href="#m04091eb896" x="354.889408" y="48.227104" style="stroke: #000000"/>
     <use xlink:href="#m04091eb896" x="359.588355" y="48.637878" style="stroke: #000000"/>
     <use xlink:href="#m04091eb896" x="364.287303" y="47.077113" style="stroke: #000000"/>
     <use xlink:href="#m04091eb896" x="368.98625" y="44.778648" style="stroke: #000000"/>
     <use xlink:href="#m04091eb896" x="373.685197" y="45.045798" style="stroke: #000000"/>
     <use xlink:href="#m04091eb896" x="378.384145" y="44.464269" style="stroke: #000000"/>
     <use xlink:href="#m04091eb896" x="383.083092" y="42.740286" style="stroke: #000000"/>
     <use xlink:href="#m04091eb896" x="387.782039" y="42.681019" style="stroke: #000000"/>
     <use xlink:href="#m04091eb896" x="392.480987" y="40.127934" style="stroke: #000000"/>
     <use xlink:href="#m04091eb896" x="397.179934" y="42.105501" style="stroke: #000000"/>
     <use xlink:href="#m04091eb896" x="401.878882" y="41.576194" style="stroke: #000000"/>
     <use xlink:href="#m04091eb896" x="406.577829" y="39.64982" style="stroke: #000000"/>
     <use xlink:href="#m04091eb896" x="411.276776" y="40.824407" style="stroke: #000000"/>
    </g>
   </g>
   <g id="line2d_24">
    <path d="M 58.855724 39.975181 
L 63.554671 31.109829 
L 68.253618 40.639994 
L 72.952566 39.183763 
L 77.651513 44.862504 
L 82.350461 48.263024 
L 87.049408 51.892027 
L 91.748355 54.091427 
L 96.447303 58.484208 
L 101.14625 59.704431 
L 105.845197 63.705552 
L 110.544145 65.643855 
L 115.243092 69.827771 
L 119.942039 70.205907 
L 124.640987 70.512235 
L 129.339934 73.925871 
L 134.038882 77.881333 
L 138.737829 81.190535 
L 143.436776 85.531164 
L 148.135724 91.39282 
L 152.834671 97.567832 
L 157.533618 101.58209 
L 162.232566 106.216516 
L 166.931513 110.491911 
L 171.630461 118.59273 
L 176.329408 114.05532 
L 181.028355 115.615077 
L 185.727303 115.085867 
L 190.42625 115.783928 
L 195.125197 115.607231 
L 199.824145 115.437063 
L 204.523092 116.030676 
L 209.222039 115.370903 
L 213.920987 114.436949 
L 218.619934 114.802081 
L 223.318882 115.206382 
L 228.017829 114.677167 
L 232.716776 115.479682 
L 237.415724 115.577164 
L 242.114671 114.865161 
L 246.813618 115.204183 
L 251.512566 115.308193 
L 256.211513 115.373035 
L 260.910461 113.982102 
L 265.609408 114.40599 
L 270.308355 114.242346 
L 275.007303 115.743381 
L 279.70625 114.580929 
L 284.405197 115.546657 
L 289.104145 114.958682 
L 293.803092 115.147559 
L 298.502039 114.60528 
L 303.200987 114.448163 
L 307.899934 113.990748 
L 312.598882 115.446097 
L 317.297829 114.773252 
L 321.996776 115.32771 
L 326.695724 114.099964 
L 331.394671 114.021184 
L 336.093618 115.163185 
L 340.792566 115.417347 
L 345.491513 113.647751 
L 350.190461 113.751761 
L 354.889408 114.032036 
L 359.588355 114.488574 
L 364.287303 116.28341 
L 368.98625 114.833692 
L 373.685197 114.924648 
L 378.384145 115.655377 
L 383.083092 113.996748 
L 387.782039 114.107288 
L 392.480987 114.146017 
L 397.179934 115.758073 
L 401.878882 114.314872 
L 406.577829 115.574401 
L 411.276776 113.935347 
" clip-path="url(#p5f1450bc2a)" style="fill: none; stroke: #00dd00; stroke-linecap: square"/>
    <defs>
     <path id="m0f288f5bb3" d="M 0 1 
C 0.265203 1 0.51958 0.894634 0.707107 0.707107 
C 0.894634 0.51958 1 0.265203 1 0 
C 1 -0.265203 0.894634 -0.51958 0.707107 -0.707107 
C 0.51958 -0.894634 0.265203 -1 0 -1 
C -0.265203 -1 -0.51958 -0.894634 -0.707107 -0.707107 
C -0.894634 -0.51958 -1 -0.265203 -1 0 
C -1 0.265203 -0.894634 0.51958 -0.707107 0.707107 
C -0.51958 0.894634 -0.265203 1 0 1 
z
" style="stroke: #00dd00"/>
    </defs>
    <g clip-path="url(#p5f1450bc2a)">
     <use xlink:href="#m0f288f5bb3" x="58.855724" y="39.975181" style="fill: #00dd00; stroke: #00dd00"/>
     <use xlink:href="#m0f288f5bb3" x="63.554671" y="31.109829" style="fill: #00dd00; stroke: #00dd00"/>
     <use xlink:href="#m0f288f5bb3" x="68.253618" y="40.639994" style="fill: #00dd00; stroke: #00dd00"/>
     <use xlink:href="#m0f288f5bb3" x="72.952566" y="39.183763" style="fill: #00dd00; stroke: #00dd00"/>
     <use xlink:href="#m0f288f5bb3" x="77.651513" y="44.862504" style="fill: #00dd00; stroke: #00dd00"/>
     <use xlink:href="#m0f288f5bb3" x="82.350461" y="48.263024" style="fill: #00dd00; stroke: #00dd00"/>
     <use xlink:href="#m0f288f5bb3" x="87.049408" y="51.892027" style="fill: #00dd00; stroke: #00dd00"/>
     <use xlink:href="#m0f288f5bb3" x="91.748355" y="54.091427" style="fill: #00dd00; stroke: #00dd00"/>
     <use xlink:href="#m0f288f5bb3" x="96.447303" y="58.484208" style="fill: #00dd00; stroke: #00dd00"/>
     <use xlink:href="#m0f288f5bb3" x="101.14625" y="59.704431" style="fill: #00dd00; stroke: #00dd00"/>
     <use xlink:href="#m0f288f5bb3" x="105.845197" y="63.705552" style="fill: #00dd00; stroke: #00dd00"/>
     <use xlink:href="#m0f288f5bb3" x="110.544145" y="65.643855" style="fill: #00dd00; stroke: #00dd00"/>
     <use xlink:href="#m0f288f5bb3" x="115.243092" y="69.827771" style="fill: #00dd00; stroke: #00dd00"/>
     <use xlink:href="#m0f288f5bb3" x="119.942039" y="70.205907" style="fill: #00dd00; stroke: #00dd00"/>
     <use xlink:href="#m0f288f5bb3" x="124.640987" y="70.512235" style="fill: #00dd00; stroke: #00dd00"/>
     <use xlink:href="#m0f288f5bb3" x="129.339934" y="73.925871" style="fill: #00dd00; stroke: #00dd00"/>
     <use xlink:href="#m0f288f5bb3" x="134.038882" y="77.881333" style="fill: #00dd00; stroke: #00dd00"/>
     <use xlink:href="#m0f288f5bb3" x="138.737829" y="81.190535" style="fill: #00dd00; stroke: #00dd00"/>
     <use xlink:href="#m0f288f5bb3" x="143.436776" y="85.531164" style="fill: #00dd00; stroke: #00dd00"/>
     <use xlink:href="#m0f288f5bb3" x="148.135724" y="91.39282" style="fill: #00dd00; stroke: #00dd00"/>
     <use xlink:href="#m0f288f5bb3" x="152.834671" y="97.567832" style="fill: #00dd00; stroke: #00dd00"/>
     <use xlink:href="#m0f288f5bb3" x="157.533618" y="101.58209" style="fill: #00dd00; stroke: #00dd00"/>
     <use xlink:href="#m0f288f5bb3" x="162.232566" y="106.216516" style="fill: #00dd00; stroke: #00dd00"/>
     <use xlink:href="#m0f288f5bb3" x="166.931513" y="110.491911" style="fill: #00dd00; stroke: #00dd00"/>
     <use xlink:href="#m0f288f5bb3" x="171.630461" y="118.59273" style="fill: #00dd00; stroke: #00dd00"/>
     <use xlink:href="#m0f288f5bb3" x="176.329408" y="114.05532" style="fill: #00dd00; stroke: #00dd00"/>
     <use xlink:href="#m0f288f5bb3" x="181.028355" y="115.615077" style="fill: #00dd00; stroke: #00dd00"/>
     <use xlink:href="#m0f288f5bb3" x="185.727303" y="115.085867" style="fill: #00dd00; stroke: #00dd00"/>
     <use xlink:href="#m0f288f5bb3" x="190.42625" y="115.783928" style="fill: #00dd00; stroke: #00dd00"/>
     <use xlink:href="#m0f288f5bb3" x="195.125197" y="115.607231" style="fill: #00dd00; stroke: #00dd00"/>
     <use xlink:href="#m0f288f5bb3" x="199.824145" y="115.437063" style="fill: #00dd00; stroke: #00dd00"/>
     <use xlink:href="#m0f288f5bb3" x="204.523092" y="116.030676" style="fill: #00dd00; stroke: #00dd00"/>
     <use xlink:href="#m0f288f5bb3" x="209.222039" y="115.370903" style="fill: #00dd00; stroke: #00dd00"/>
     <use xlink:href="#m0f288f5bb3" x="213.920987" y="114.436949" style="fill: #00dd00; stroke: #00dd00"/>
     <use xlink:href="#m0f288f5bb3" x="218.619934" y="114.802081" style="fill: #00dd00; stroke: #00dd00"/>
     <use xlink:href="#m0f288f5bb3" x="223.318882" y="115.206382" style="fill: #00dd00; stroke: #00dd00"/>
     <use xlink:href="#m0f288f5bb3" x="228.017829" y="114.677167" style="fill: #00dd00; stroke: #00dd00"/>
     <use xlink:href="#m0f288f5bb3" x="232.716776" y="115.479682" style="fill: #00dd00; stroke: #00dd00"/>
     <use xlink:href="#m0f288f5bb3" x="237.415724" y="115.577164" style="fill: #00dd00; stroke: #00dd00"/>
     <use xlink:href="#m0f288f5bb3" x="242.114671" y="114.865161" style="fill: #00dd00; stroke: #00dd00"/>
     <use xlink:href="#m0f288f5bb3" x="246.813618" y="115.204183" style="fill: #00dd00; stroke: #00dd00"/>
     <use xlink:href="#m0f288f5bb3" x="251.512566" y="115.308193" style="fill: #00dd00; stroke: #00dd00"/>
     <use xlink:href="#m0f288f5bb3" x="256.211513" y="115.373035" style="fill: #00dd00; stroke: #00dd00"/>
     <use xlink:href="#m0f288f5bb3" x="260.910461" y="113.982102" style="fill: #00dd00; stroke: #00dd00"/>
     <use xlink:href="#m0f288f5bb3" x="265.609408" y="114.40599" style="fill: #00dd00; stroke: #00dd00"/>
     <use xlink:href="#m0f288f5bb3" x="270.308355" y="114.242346" style="fill: #00dd00; stroke: #00dd00"/>
     <use xlink:href="#m0f288f5bb3" x="275.007303" y="115.743381" style="fill: #00dd00; stroke: #00dd00"/>
     <use xlink:href="#m0f288f5bb3" x="279.70625" y="114.580929" style="fill: #00dd00; stroke: #00dd00"/>
     <use xlink:href="#m0f288f5bb3" x="284.405197" y="115.546657" style="fill: #00dd00; stroke: #00dd00"/>
     <use xlink:href="#m0f288f5bb3" x="289.104145" y="114.958682" style="fill: #00dd00; stroke: #00dd00"/>
     <use xlink:href="#m0f288f5bb3" x="293.803092" y="115.147559" style="fill: #00dd00; stroke: #00dd00"/>
     <use xlink:href="#m0f288f5bb3" x="298.502039" y="114.60528" style="fill: #00dd00; stroke: #00dd00"/>
     <use xlink:href="#m0f288f5bb3" x="303.200987" y="114.448163" style="fill: #00dd00; stroke: #00dd00"/>
     <use xlink:href="#m0f288f5bb3" x="307.899934" y="113.990748" style="fill: #00dd00; stroke: #00dd00"/>
     <use xlink:href="#m0f288f5bb3" x="312.598882" y="115.446097" style="fill: #00dd00; stroke: #00dd00"/>
     <use xlink:href="#m0f288f5bb3" x="317.297829" y="114.773252" style="fill: #00dd00; stroke: #00dd00"/>
     <use xlink:href="#m0f288f5bb3" x="321.996776" y="115.32771" style="fill: #00dd00; stroke: #00dd00"/>
     <use xlink:href="#m0f288f5bb3" x="326.695724" y="114.099964" style="fill: #00dd00; stroke: #00dd00"/>
     <use xlink:href="#m0f288f5bb3" x="331.394671" y="114.021184" style="fill: #00dd00; stroke: #00dd00"/>
     <use xlink:href="#m0f288f5bb3" x="336.093618" y="115.163185" style="fill: #00dd00; stroke: #00dd00"/>
     <use xlink:href="#m0f288f5bb3" x="340.792566" y="115.417347" style="fill: #00dd00; stroke: #00dd00"/>
     <use xlink:href="#m0f288f5bb3" x="345.491513" y="113.647751" style="fill: #00dd00; stroke: #00dd00"/>
     <use xlink:href="#m0f288f5bb3" x="350.190461" y="113.751761" style="fill: #00dd00; stroke: #00dd00"/>
     <use xlink:href="#m0f288f5bb3" x="354.889408" y="114.032036" style="fill: #00dd00; stroke: #00dd00"/>
     <use xlink:href="#m0f288f5bb3" x="359.588355" y="114.488574" style="fill: #00dd00; stroke: #00dd00"/>
     <use xlink:href="#m0f288f5bb3" x="364.287303" y="116.28341" style="fill: #00dd00; stroke: #00dd00"/>
     <use xlink:href="#m0f288f5bb3" x="368.98625" y="114.833692" style="fill: #00dd00; stroke: #00dd00"/>
     <use xlink:href="#m0f288f5bb3" x="373.685197" y="114.924648" style="fill: #00dd00; stroke: #00dd00"/>
     <use xlink:href="#m0f288f5bb3" x="378.384145" y="115.655377" style="fill: #00dd00; stroke: #00dd00"/>
     <use xlink:href="#m0f288f5bb3" x="383.083092" y="113.996748" style="fill: #00dd00; stroke: #00dd00"/>
     <use xlink:href="#m0f288f5bb3" x="387.782039" y="114.107288" style="fill: #00dd00; stroke: #00dd00"/>
     <use xlink:href="#m0f288f5bb3" x="392.480987" y="114.146017" style="fill: #00dd00; stroke: #00dd00"/>
     <use xlink:href="#m0f288f5bb3" x="397.179934" y="115.758073" style="fill: #00dd00; stroke: #00dd00"/>
     <use xlink:href="#m0f288f5bb3" x="401.878882" y="114.314872" style="fill: #00dd00; stroke: #00dd00"/>
     <use xlink:href="#m0f288f5bb3" x="406.577829" y="115.574401" style="fill: #00dd00; stroke: #00dd00"/>
     <use xlink:href="#m0f288f5bb3" x="411.276776" y="113.935347" style="fill: #00dd00; stroke: #00dd00"/>
    </g>
   </g>
   <g id="line2d_25">
    <path d="M 58.855724 39.975181 
L 63.554671 31.109829 
L 68.253618 33.988095 
L 72.952566 32.290327 
L 77.651513 34.554979 
L 82.350461 31.858441 
L 87.049408 34.025179 
L 91.748355 33.182558 
L 96.447303 31.993957 
L 101.14625 32.522195 
L 105.845197 32.854597 
L 110.544145 32.201282 
L 115.243092 32.553268 
L 119.942039 33.231651 
L 124.640987 34.360464 
L 129.339934 32.767123 
L 134.038882 31.754767 
L 138.737829 32.537599 
L 143.436776 32.935283 
L 148.135724 31.563886 
L 152.834671 32.777568 
L 157.533618 32.613846 
L 162.232566 34.650059 
L 166.931513 32.736833 
L 171.630461 158.348326 
L 176.329408 155.273232 
L 181.028355 156.565381 
L 185.727303 154.697966 
L 190.42625 155.454818 
L 195.125197 155.630676 
L 199.824145 155.205953 
L 204.523092 155.401395 
L 209.222039 155.884072 
L 213.920987 155.132945 
L 218.619934 155.987723 
L 223.318882 154.897134 
L 228.017829 154.90979 
L 232.716776 155.523031 
L 237.415724 155.816396 
L 242.114671 154.934702 
L 246.813618 154.94083 
L 251.512566 155.070993 
L 256.211513 154.443892 
L 260.910461 155.468409 
L 265.609408 155.565932 
L 270.308355 155.617757 
L 275.007303 156.022104 
L 279.70625 156.093514 
L 284.405197 198.885264 
L 289.104145 197.461766 
L 293.803092 198.74746 
L 298.502039 196.762534 
L 303.200987 197.454165 
L 307.899934 197.532146 
L 312.598882 196.918137 
L 317.297829 197.910067 
L 321.996776 197.72692 
L 326.695724 197.217361 
L 331.394671 198.046089 
L 336.093618 196.962044 
L 340.792566 198.110657 
L 345.491513 197.339966 
L 350.190461 197.320024 
L 354.889408 196.529746 
L 359.588355 196.620783 
L 364.287303 196.946839 
L 368.98625 198.036705 
L 373.685197 197.442273 
L 378.384145 197.513727 
L 383.083092 196.873595 
L 387.782039 197.499955 
L 392.480987 197.963108 
L 397.179934 219.160225 
L 401.878882 219.296984 
L 406.577829 218.957175 
L 411.276776 217.331281 
" clip-path="url(#p5f1450bc2a)" style="fill: none; stroke: #0000ff; stroke-linecap: square"/>
    <defs>
     <path id="md3176b9699" d="M 0 1 
C 0.265203 1 0.51958 0.894634 0.707107 0.707107 
C 0.894634 0.51958 1 0.265203 1 0 
C 1 -0.265203 0.894634 -0.51958 0.707107 -0.707107 
C 0.51958 -0.894634 0.265203 -1 0 -1 
C -0.265203 -1 -0.51958 -0.894634 -0.707107 -0.707107 
C -0.894634 -0.51958 -1 -0.265203 -1 0 
C -1 0.265203 -0.894634 0.51958 -0.707107 0.707107 
C -0.51958 0.894634 -0.265203 1 0 1 
z
" style="stroke: #0000ff"/>
    </defs>
    <g clip-path="url(#p5f1450bc2a)">
     <use xlink:href="#md3176b9699" x="58.855724" y="39.975181" style="fill: #0000ff; stroke: #0000ff"/>
     <use xlink:href="#md3176b9699" x="63.554671" y="31.109829" style="fill: #0000ff; stroke: #0000ff"/>
     <use xlink:href="#md3176b9699" x="68.253618" y="33.988095" style="fill: #0000ff; stroke: #0000ff"/>
     <use xlink:href="#md3176b9699" x="72.952566" y="32.290327" style="fill: #0000ff; stroke: #0000ff"/>
     <use xlink:href="#md3176b9699" x="77.651513" y="34.554979" style="fill: #0000ff; stroke: #0000ff"/>
     <use xlink:href="#md3176b9699" x="82.350461" y="31.858441" style="fill: #0000ff; stroke: #0000ff"/>
     <use xlink:href="#md3176b9699" x="87.049408" y="34.025179" style="fill: #0000ff; stroke: #0000ff"/>
     <use xlink:href="#md3176b9699" x="91.748355" y="33.182558" style="fill: #0000ff; stroke: #0000ff"/>
     <use xlink:href="#md3176b9699" x="96.447303" y="31.993957" style="fill: #0000ff; stroke: #0000ff"/>
     <use xlink:href="#md3176b9699" x="101.14625" y="32.522195" style="fill: #0000ff; stroke: #0000ff"/>
     <use xlink:href="#md3176b9699" x="105.845197" y="32.854597" style="fill: #0000ff; stroke: #0000ff"/>
     <use xlink:href="#md3176b9699" x="110.544145" y="32.201282" style="fill: #0000ff; stroke: #0000ff"/>
     <use xlink:href="#md3176b9699" x="115.243092" y="32.553268" style="fill: #0000ff; stroke: #0000ff"/>
     <use xlink:href="#md3176b9699" x="119.942039" y="33.231651" style="fill: #0000ff; stroke: #0000ff"/>
     <use xlink:href="#md3176b9699" x="124.640987" y="34.360464" style="fill: #0000ff; stroke: #0000ff"/>
     <use xlink:href="#md3176b9699" x="129.339934" y="32.767123" style="fill: #0000ff; stroke: #0000ff"/>
     <use xlink:href="#md3176b9699" x="134.038882" y="31.754767" style="fill: #0000ff; stroke: #0000ff"/>
     <use xlink:href="#md3176b9699" x="138.737829" y="32.537599" style="fill: #0000ff; stroke: #0000ff"/>
     <use xlink:href="#md3176b9699" x="143.436776" y="32.935283" style="fill: #0000ff; stroke: #0000ff"/>
     <use xlink:href="#md3176b9699" x="148.135724" y="31.563886" style="fill: #0000ff; stroke: #0000ff"/>
     <use xlink:href="#md3176b9699" x="152.834671" y="32.777568" style="fill: #0000ff; stroke: #0000ff"/>
     <use xlink:href="#md3176b9699" x="157.533618" y="32.613846" style="fill: #0000ff; stroke: #0000ff"/>
     <use xlink:href="#md3176b9699" x="162.232566" y="34.650059" style="fill: #0000ff; stroke: #0000ff"/>
     <use xlink:href="#md3176b9699" x="166.931513" y="32.736833" style="fill: #0000ff; stroke: #0000ff"/>
     <use xlink:href="#md3176b9699" x="171.630461" y="158.348326" style="fill: #0000ff; stroke: #0000ff"/>
     <use xlink:href="#md3176b9699" x="176.329408" y="155.273232" style="fill: #0000ff; stroke: #0000ff"/>
     <use xlink:href="#md3176b9699" x="181.028355" y="156.565381" style="fill: #0000ff; stroke: #0000ff"/>
     <use xlink:href="#md3176b9699" x="185.727303" y="154.697966" style="fill: #0000ff; stroke: #0000ff"/>
     <use xlink:href="#md3176b9699" x="190.42625" y="155.454818" style="fill: #0000ff; stroke: #0000ff"/>
     <use xlink:href="#md3176b9699" x="195.125197" y="155.630676" style="fill: #0000ff; stroke: #0000ff"/>
     <use xlink:href="#md3176b9699" x="199.824145" y="155.205953" style="fill: #0000ff; stroke: #0000ff"/>
     <use xlink:href="#md3176b9699" x="204.523092" y="155.401395" style="fill: #0000ff; stroke: #0000ff"/>
     <use xlink:href="#md3176b9699" x="209.222039" y="155.884072" style="fill: #0000ff; stroke: #0000ff"/>
     <use xlink:href="#md3176b9699" x="213.920987" y="155.132945" style="fill: #0000ff; stroke: #0000ff"/>
     <use xlink:href="#md3176b9699" x="218.619934" y="155.987723" style="fill: #0000ff; stroke: #0000ff"/>
     <use xlink:href="#md3176b9699" x="223.318882" y="154.897134" style="fill: #0000ff; stroke: #0000ff"/>
     <use xlink:href="#md3176b9699" x="228.017829" y="154.90979" style="fill: #0000ff; stroke: #0000ff"/>
     <use xlink:href="#md3176b9699" x="232.716776" y="155.523031" style="fill: #0000ff; stroke: #0000ff"/>
     <use xlink:href="#md3176b9699" x="237.415724" y="155.816396" style="fill: #0000ff; stroke: #0000ff"/>
     <use xlink:href="#md3176b9699" x="242.114671" y="154.934702" style="fill: #0000ff; stroke: #0000ff"/>
     <use xlink:href="#md3176b9699" x="246.813618" y="154.94083" style="fill: #0000ff; stroke: #0000ff"/>
     <use xlink:href="#md3176b9699" x="251.512566" y="155.070993" style="fill: #0000ff; stroke: #0000ff"/>
     <use xlink:href="#md3176b9699" x="256.211513" y="154.443892" style="fill: #0000ff; stroke: #0000ff"/>
     <use xlink:href="#md3176b9699" x="260.910461" y="155.468409" style="fill: #0000ff; stroke: #0000ff"/>
     <use xlink:href="#md3176b9699" x="265.609408" y="155.565932" style="fill: #0000ff; stroke: #0000ff"/>
     <use xlink:href="#md3176b9699" x="270.308355" y="155.617757" style="fill: #0000ff; stroke: #0000ff"/>
     <use xlink:href="#md3176b9699" x="275.007303" y="156.022104" style="fill: #0000ff; stroke: #0000ff"/>
     <use xlink:href="#md3176b9699" x="279.70625" y="156.093514" style="fill: #0000ff; stroke: #0000ff"/>
     <use xlink:href="#md3176b9699" x="284.405197" y="198.885264" style="fill: #0000ff; stroke: #0000ff"/>
     <use xlink:href="#md3176b9699" x="289.104145" y="197.461766" style="fill: #0000ff; stroke: #0000ff"/>
     <use xlink:href="#md3176b9699" x="293.803092" y="198.74746" style="fill: #0000ff; stroke: #0000ff"/>
     <use xlink:href="#md3176b9699" x="298.502039" y="196.762534" style="fill: #0000ff; stroke: #0000ff"/>
     <use xlink:href="#md3176b9699" x="303.200987" y="197.454165" style="fill: #0000ff; stroke: #0000ff"/>
     <use xlink:href="#md3176b9699" x="307.899934" y="197.532146" style="fill: #0000ff; stroke: #0000ff"/>
     <use xlink:href="#md3176b9699" x="312.598882" y="196.918137" style="fill: #0000ff; stroke: #0000ff"/>
     <use xlink:href="#md3176b9699" x="317.297829" y="197.910067" style="fill: #0000ff; stroke: #0000ff"/>
     <use xlink:href="#md3176b9699" x="321.996776" y="197.72692" style="fill: #0000ff; stroke: #0000ff"/>
     <use xlink:href="#md3176b9699" x="326.695724" y="197.217361" style="fill: #0000ff; stroke: #0000ff"/>
     <use xlink:href="#md3176b9699" x="331.394671" y="198.046089" style="fill: #0000ff; stroke: #0000ff"/>
     <use xlink:href="#md3176b9699" x="336.093618" y="196.962044" style="fill: #0000ff; stroke: #0000ff"/>
     <use xlink:href="#md3176b9699" x="340.792566" y="198.110657" style="fill: #0000ff; stroke: #0000ff"/>
     <use xlink:href="#md3176b9699" x="345.491513" y="197.339966" style="fill: #0000ff; stroke: #0000ff"/>
     <use xlink:href="#md3176b9699" x="350.190461" y="197.320024" style="fill: #0000ff; stroke: #0000ff"/>
     <use xlink:href="#md3176b9699" x="354.889408" y="196.529746" style="fill: #0000ff; stroke: #0000ff"/>
     <use xlink:href="#md3176b9699" x="359.588355" y="196.620783" style="fill: #0000ff; stroke: #0000ff"/>
     <use xlink:href="#md3176b9699" x="364.287303" y="196.946839" style="fill: #0000ff; stroke: #0000ff"/>
     <use xlink:href="#md3176b9699" x="368.98625" y="198.036705" style="fill: #0000ff; stroke: #0000ff"/>
     <use xlink:href="#md3176b9699" x="373.685197" y="197.442273" style="fill: #0000ff; stroke: #0000ff"/>
     <use xlink:href="#md3176b9699" x="378.384145" y="197.513727" style="fill: #0000ff; stroke: #0000ff"/>
     <use xlink:href="#md3176b9699" x="383.083092" y="196.873595" style="fill: #0000ff; stroke: #0000ff"/>
     <use xlink:href="#md3176b9699" x="387.782039" y="197.499955" style="fill: #0000ff; stroke: #0000ff"/>
     <use xlink:href="#md3176b9699" x="392.480987" y="197.963108" style="fill: #0000ff; stroke: #0000ff"/>
     <use xlink:href="#md3176b9699" x="397.179934" y="219.160225" style="fill: #0000ff; stroke: #0000ff"/>
     <use xlink:href="#md3176b9699" x="401.878882" y="219.296984" style="fill: #0000ff; stroke: #0000ff"/>
     <use xlink:href="#md3176b9699" x="406.577829" y="218.957175" style="fill: #0000ff; stroke: #0000ff"/>
     <use xlink:href="#md3176b9699" x="411.276776" y="217.331281" style="fill: #0000ff; stroke: #0000ff"/>
    </g>
   </g>
   <g id="line2d_26"/>
   <g id="line2d_27"/>
   <g id="line2d_28"/>
   <g id="line2d_29">
    <path d="M 58.855724 88.714017 
L 63.554671 104.792061 
L 68.253618 119.798236 
L 72.952566 133.836271 
L 77.651513 146.996928 
L 82.350461 155.323058 
L 87.049408 155.323058 
L 91.748355 155.323058 
L 96.447303 155.323058 
L 101.14625 155.323058 
L 105.845197 155.323058 
L 110.544145 155.323058 
L 115.243092 155.323058 
L 119.942039 155.323058 
L 124.640987 155.323058 
L 129.339934 155.323058 
L 134.038882 155.323058 
L 138.737829 155.323058 
L 143.436776 155.323058 
L 148.135724 155.323058 
L 152.834671 155.323058 
L 157.533618 155.323058 
L 162.232566 163.316143 
L 166.931513 170.995774 
L 171.630461 178.380034 
L 176.329408 185.485643 
L 181.028355 192.328081 
L 185.727303 197.295878 
L 190.42625 197.295878 
L 195.125197 197.295878 
L 199.824145 197.295878 
L 204.523092 197.295878 
L 209.222039 197.295878 
L 213.920987 197.295878 
L 218.619934 197.295878 
L 223.318882 197.295878 
L 228.017829 197.295878 
L 232.716776 197.295878 
L 237.415724 197.295878 
L 242.114671 197.295878 
L 246.813618 197.295878 
L 251.512566 197.295878 
L 256.211513 197.295878 
L 260.910461 197.295878 
L 265.609408 197.295878 
L 270.308355 197.295878 
L 275.007303 202.129411 
L 279.70625 206.83405 
L 284.405197 211.414882 
L 289.104145 215.876732 
L 293.803092 218.498643 
L 298.502039 218.498643 
L 303.200987 218.498643 
L 307.899934 218.498643 
L 312.598882 218.498643 
L 317.297829 218.498643 
L 321.996776 218.498643 
L 326.695724 218.498643 
L 331.394671 218.498643 
L 336.093618 218.498643 
L 340.792566 218.498643 
L 345.491513 218.498643 
L 350.190461 218.498643 
L 354.889408 218.498643 
L 359.588355 218.498643 
L 364.287303 218.498643 
L 368.98625 218.498643 
L 373.685197 218.498643 
L 378.384145 218.498643 
L 383.083092 218.498643 
L 387.782039 221.932099 
L 392.480987 225.296192 
L 397.179934 228.593003 
L 401.878882 231.290394 
L 406.577829 231.290394 
L 411.276776 231.290394 
" clip-path="url(#p5f1450bc2a)" style="fill: none; stroke: #ff0000; stroke-width: 1.5; stroke-linecap: square"/>
   </g>
   <g id="line2d_30">
    <path d="M 58.855724 282.990387 
L 63.554671 282.990387 
L 68.253618 282.990387 
L 72.952566 282.990387 
L 77.651513 282.990387 
L 82.350461 282.990387 
L 87.049408 282.990387 
L 91.748355 282.990387 
L 96.447303 282.990387 
L 101.14625 282.990387 
L 105.845197 282.990387 
L 110.544145 282.990387 
L 115.243092 282.990387 
L 119.942039 282.990387 
L 124.640987 282.990387 
L 129.339934 282.990387 
L 134.038882 282.990387 
L 138.737829 282.990387 
L 143.436776 282.990387 
L 148.135724 282.990387 
L 152.834671 282.990387 
L 157.533618 282.990387 
L 162.232566 282.990387 
L 166.931513 282.990387 
L 171.630461 282.990387 
L 176.329408 282.990387 
L 181.028355 282.990387 
L 185.727303 282.990387 
L 190.42625 282.990387 
L 195.125197 282.990387 
L 199.824145 282.990387 
L 204.523092 282.990387 
L 209.222039 282.990387 
L 213.920987 282.990387 
L 218.619934 282.990387 
L 223.318882 282.990387 
L 228.017829 282.990387 
L 232.716776 282.990387 
L 237.415724 282.990387 
L 242.114671 282.990387 
L 246.813618 282.990387 
L 251.512566 282.990387 
L 256.211513 282.990387 
L 260.910461 282.990387 
L 265.609408 282.990387 
L 270.308355 282.990387 
L 275.007303 282.990387 
L 279.70625 282.990387 
L 284.405197 282.990387 
L 289.104145 282.990387 
L 293.803092 282.990387 
L 298.502039 282.990387 
L 303.200987 282.990387 
L 307.899934 282.990387 
L 312.598882 282.990387 
L 317.297829 282.990387 
L 321.996776 282.990387 
L 326.695724 282.990387 
L 331.394671 282.990387 
L 336.093618 282.990387 
L 340.792566 282.990387 
L 345.491513 282.990387 
L 350.190461 282.990387 
L 354.889408 282.990387 
L 359.588355 282.990387 
L 364.287303 282.990387 
L 368.98625 282.990387 
L 373.685197 282.990387 
L 378.384145 282.990387 
L 383.083092 282.990387 
L 387.782039 282.990387 
L 392.480987 282.990387 
L 397.179934 282.990387 
L 401.878882 282.990387 
L 406.577829 282.990387 
L 411.276776 282.990387 
" clip-path="url(#p5f1450bc2a)" style="fill: none; stroke: #000000; stroke-width: 1.5; stroke-linecap: square"/>
   </g>
   <g id="patch_3">
    <path d="M 56.50625 288.430125 
L 56.50625 22.318125 
" style="fill: none; stroke: #000000; stroke-width: 0.8; stroke-linejoin: miter; stroke-linecap: square"/>
   </g>
   <g id="text_15">
    <!-- Densities and lower bounds (=4, w=24, t=4) -->
    <g transform="translate(96.259062 16.318125) scale(0.12 -0.12)">
     <defs>
      <path id="DejaVuSans-20" transform="scale(0.015625)"/>
      <path id="DejaVuSans-61" d="M 2194 1759 
Q 1497 1759 1228 1600 
Q 959 1441 959 1056 
Q 959 750 1161 570 
Q 1363 391 1709 391 
Q 2188 391 2477 730 
Q 2766 1069 2766 1631 
L 2766 1759 
L 2194 1759 
z
M 3341 1997 
L 3341 0 
L 2766 0 
L 2766 531 
Q 2569 213 2275 61 
Q 1981 -91 1556 -91 
Q 1019 -91 701 211 
Q 384 513 384 1019 
Q 384 1609 779 1909 
Q 1175 2209 1959 2209 
L 2766 2209 
L 2766 2266 
Q 2766 2663 2505 2880 
Q 2244 3097 1772 3097 
Q 1472 3097 1187 3025 
Q 903 2953 641 2809 
L 641 3341 
Q 956 3463 1253 3523 
Q 1550 3584 1831 3584 
Q 2591 3584 2966 3190 
Q 3341 2797 3341 1997 
z
" transform="scale(0.015625)"/>
      <path id="DejaVuSans-64" d="M 2906 2969 
L 2906 4863 
L 3481 4863 
L 3481 0 
L 2906 0 
L 2906 525 
Q 2725 213 2448 61 
Q 2172 -91 1784 -91 
Q 1150 -91 751 415 
Q 353 922 353 1747 
Q 353 2572 751 3078 
Q 1150 3584 1784 3584 
Q 2172 3584 2448 3432 
Q 2725 3281 2906 2969 
z
M 947 1747 
Q 947 1113 1208 752 
Q 1469 391 1925 391 
Q 2381 391 2643 752 
Q 2906 1113 2906 1747 
Q 2906 2381 2643 2742 
Q 2381 3103 1925 3103 
Q 1469 3103 1208 2742 
Q 947 2381 947 1747 
z
" transform="scale(0.015625)"/>
      <path id="DejaVuSans-6c" d="M 603 4863 
L 1178 4863 
L 1178 0 
L 603 0 
L 603 4863 
z
" transform="scale(0.015625)"/>
      <path id="DejaVuSans-6f" d="M 1959 3097 
Q 1497 3097 1228 2736 
Q 959 2375 959 1747 
Q 959 1119 1226 758 
Q 1494 397 1959 397 
Q 2419 397 2687 759 
Q 2956 1122 2956 1747 
Q 2956 2369 2687 2733 
Q 2419 3097 1959 3097 
z
M 1959 3584 
Q 2709 3584 3137 3096 
Q 3566 2609 3566 1747 
Q 3566 888 3137 398 
Q 2709 -91 1959 -91 
Q 1206 -91 779 398 
Q 353 888 353 1747 
Q 353 2609 779 3096 
Q 1206 3584 1959 3584 
z
" transform="scale(0.015625)"/>
      <path id="DejaVuSans-77" d="M 269 3500 
L 844 3500 
L 1563 769 
L 2278 3500 
L 2956 3500 
L 3675 769 
L 4391 3500 
L 4966 3500 
L 4050 0 
L 3372 0 
L 2619 2869 
L 1863 0 
L 1184 0 
L 269 3500 
z
" transform="scale(0.015625)"/>
      <path id="DejaVuSans-72" d="M 2631 2963 
Q 2534 3019 2420 3045 
Q 2306 3072 2169 3072 
Q 1681 3072 1420 2755 
Q 1159 2438 1159 1844 
L 1159 0 
L 581 0 
L 581 3500 
L 1159 3500 
L 1159 2956 
Q 1341 3275 1631 3429 
Q 1922 3584 2338 3584 
Q 2397 3584 2469 3576 
Q 2541 3569 2628 3553 
L 2631 2963 
z
" transform="scale(0.015625)"/>
      <path id="DejaVuSans-62" d="M 3116 1747 
Q 3116 2381 2855 2742 
Q 2594 3103 2138 3103 
Q 1681 3103 1420 2742 
Q 1159 2381 1159 1747 
Q 1159 1113 1420 752 
Q 1681 391 2138 391 
Q 2594 391 2855 752 
Q 3116 1113 3116 1747 
z
M 1159 2969 
Q 1341 3281 1617 3432 
Q 1894 3584 2278 3584 
Q 2916 3584 3314 3078 
Q 3713 2572 3713 1747 
Q 3713 922 3314 415 
Q 2916 -91 2278 -91 
Q 1894 -91 1617 61 
Q 1341 213 1159 525 
L 1159 0 
L 581 0 
L 581 4863 
L 1159 4863 
L 1159 2969 
z
" transform="scale(0.015625)"/>
      <path id="DejaVuSans-75" d="M 544 1381 
L 544 3500 
L 1119 3500 
L 1119 1403 
Q 1119 906 1312 657 
Q 1506 409 1894 409 
Q 2359 409 2629 706 
Q 2900 1003 2900 1516 
L 2900 3500 
L 3475 3500 
L 3475 0 
L 2900 0 
L 2900 538 
Q 2691 219 2414 64 
Q 2138 -91 1772 -91 
Q 1169 -91 856 284 
Q 544 659 544 1381 
z
M 1991 3584 
L 1991 3584 
z
" transform="scale(0.015625)"/>
      <path id="DejaVuSans-28" d="M 1984 4856 
Q 1566 4138 1362 3434 
Q 1159 2731 1159 2009 
Q 1159 1288 1364 580 
Q 1569 -128 1984 -844 
L 1484 -844 
Q 1016 -109 783 600 
Q 550 1309 550 2009 
Q 550 2706 781 3412 
Q 1013 4119 1484 4856 
L 1984 4856 
z
" transform="scale(0.015625)"/>
      <path id="DejaVuSans-3c3" d="M 1959 3044 
Q 1484 3044 1228 2700 
Q 959 2341 959 1747 
Q 959 1119 1226 758 
Q 1494 397 1959 397 
Q 2419 397 2687 759 
Q 2956 1122 2956 1747 
Q 2956 2319 2688 2700 
Q 2441 3044 1959 3044 
z
M 1959 3500 
L 3869 3500 
L 3869 2925 
L 3225 2925 
Q 3566 2438 3566 1747 
Q 3566 888 3138 400 
Q 2709 -91 1959 -91 
Q 1206 -91 781 400 
Q 353 888 353 1747 
Q 353 2613 781 3097 
Q 1134 3500 1959 3500 
z
" transform="scale(0.015625)"/>
      <path id="DejaVuSans-3d" d="M 678 2906 
L 4684 2906 
L 4684 2381 
L 678 2381 
L 678 2906 
z
M 678 1631 
L 4684 1631 
L 4684 1100 
L 678 1100 
L 678 1631 
z
" transform="scale(0.015625)"/>
      <path id="DejaVuSans-2c" d="M 750 794 
L 1409 794 
L 1409 256 
L 897 -744 
L 494 -744 
L 750 256 
L 750 794 
z
" transform="scale(0.015625)"/>
      <path id="DejaVuSans-29" d="M 513 4856 
L 1013 4856 
Q 1481 4119 1714 3412 
Q 1947 2706 1947 2009 
Q 1947 1309 1714 600 
Q 1481 -109 1013 -844 
L 513 -844 
Q 928 -128 1133 580 
Q 1338 1288 1338 2009 
Q 1338 2731 1133 3434 
Q 928 4138 513 4856 
z
" transform="scale(0.015625)"/>
     </defs>
     <use xlink:href="#DejaVuSans-44"/>
     <use xlink:href="#DejaVuSans-65" x="77.001953"/>
     <use xlink:href="#DejaVuSans-6e" x="138.525391"/>
     <use xlink:href="#DejaVuSans-73" x="201.904297"/>
     <use xlink:href="#DejaVuSans-69" x="254.003906"/>
     <use xlink:href="#DejaVuSans-74" x="281.787109"/>
     <use xlink:href="#DejaVuSans-69" x="320.996094"/>
     <use xlink:href="#DejaVuSans-65" x="348.779297"/>
     <use xlink:href="#DejaVuSans-73" x="410.302734"/>
     <use xlink:href="#DejaVuSans-20" x="462.402344"/>
     <use xlink:href="#DejaVuSans-61" x="494.189453"/>
     <use xlink:href="#DejaVuSans-6e" x="555.46875"/>
     <use xlink:href="#DejaVuSans-64" x="618.847656"/>
     <use xlink:href="#DejaVuSans-20" x="682.324219"/>
     <use xlink:href="#DejaVuSans-6c" x="714.111328"/>
     <use xlink:href="#DejaVuSans-6f" x="741.894531"/>
     <use xlink:href="#DejaVuSans-77" x="803.076172"/>
     <use xlink:href="#DejaVuSans-65" x="884.863281"/>
     <use xlink:href="#DejaVuSans-72" x="946.386719"/>
     <use xlink:href="#DejaVuSans-20" x="987.5"/>
     <use xlink:href="#DejaVuSans-62" x="1019.287109"/>
     <use xlink:href="#DejaVuSans-6f" x="1082.763672"/>
     <use xlink:href="#DejaVuSans-75" x="1143.945312"/>
     <use xlink:href="#DejaVuSans-6e" x="1207.324219"/>
     <use xlink:href="#DejaVuSans-64" x="1270.703125"/>
     <use xlink:href="#DejaVuSans-73" x="1334.179688"/>
     <use xlink:href="#DejaVuSans-20" x="1386.279297"/>
     <use xlink:href="#DejaVuSans-28" x="1418.066406"/>
     <use xlink:href="#DejaVuSans-3c3" x="1457.080078"/>
     <use xlink:href="#DejaVuSans-3d" x="1520.458984"/>
     <use xlink:href="#DejaVuSans-34" x="1604.248047"/>
     <use xlink:href="#DejaVuSans-2c" x="1667.871094"/>
     <use xlink:href="#DejaVuSans-20" x="1699.658203"/>
     <use xlink:href="#DejaVuSans-77" x="1731.445312"/>
     <use xlink:href="#DejaVuSans-3d" x="1813.232422"/>
     <use xlink:href="#DejaVuSans-32" x="1897.021484"/>
     <use xlink:href="#DejaVuSans-34" x="1960.644531"/>
     <use xlink:href="#DejaVuSans-2c" x="2024.267578"/>
     <use xlink:href="#DejaVuSans-20" x="2056.054688"/>
     <use xlink:href="#DejaVuSans-74" x="2087.841797"/>
     <use xlink:href="#DejaVuSans-3d" x="2127.050781"/>
     <use xlink:href="#DejaVuSans-34" x="2210.839844"/>
     <use xlink:href="#DejaVuSans-29" x="2274.462891"/>
    </g>
   </g>
   <g id="legend_1">
    <g id="patch_4">
     <path d="M 62.33725 276.281765 
L 407.79525 276.281765 
Q 409.46125 276.281765 409.46125 274.615765 
L 409.46125 238.768131 
Q 409.46125 237.102131 407.79525 237.102131 
L 62.33725 237.102131 
Q 60.67125 237.102131 60.67125 238.768131 
L 60.67125 274.615765 
Q 60.67125 276.281765 62.33725 276.281765 
z
" style="fill: #ffffff; opacity: 0.8; stroke: #cccccc; stroke-linejoin: miter"/>
    </g>
    <g id="line2d_31">
     <path d="M 64.00325 243.848129 
L 72.33325 243.848129 
L 80.66325 243.848129 
" style="fill: none; stroke: #ffa500; stroke-linecap: square"/>
     <g>
      <use xlink:href="#m8a2cb9881a" x="72.33325" y="243.848129" style="fill: #ffa500; stroke: #ffa500"/>
     </g>
    </g>
    <g id="text_16">
     <!-- Random minimizer -->
     <g transform="translate(87.32725 246.763629) scale(0.0833 -0.0833)">
      <defs>
       <path id="DejaVuSans-52" d="M 2841 2188 
Q 3044 2119 3236 1894 
Q 3428 1669 3622 1275 
L 4263 0 
L 3584 0 
L 2988 1197 
Q 2756 1666 2539 1819 
Q 2322 1972 1947 1972 
L 1259 1972 
L 1259 0 
L 628 0 
L 628 4666 
L 2053 4666 
Q 2853 4666 3247 4331 
Q 3641 3997 3641 3322 
Q 3641 2881 3436 2590 
Q 3231 2300 2841 2188 
z
M 1259 4147 
L 1259 2491 
L 2053 2491 
Q 2509 2491 2742 2702 
Q 2975 2913 2975 3322 
Q 2975 3731 2742 3939 
Q 2509 4147 2053 4147 
L 1259 4147 
z
" transform="scale(0.015625)"/>
       <path id="DejaVuSans-6d" d="M 3328 2828 
Q 3544 3216 3844 3400 
Q 4144 3584 4550 3584 
Q 5097 3584 5394 3201 
Q 5691 2819 5691 2113 
L 5691 0 
L 5113 0 
L 5113 2094 
Q 5113 2597 4934 2840 
Q 4756 3084 4391 3084 
Q 3944 3084 3684 2787 
Q 3425 2491 3425 1978 
L 3425 0 
L 2847 0 
L 2847 2094 
Q 2847 2600 2669 2842 
Q 2491 3084 2119 3084 
Q 1678 3084 1418 2786 
Q 1159 2488 1159 1978 
L 1159 0 
L 581 0 
L 581 3500 
L 1159 3500 
L 1159 2956 
Q 1356 3278 1631 3431 
Q 1906 3584 2284 3584 
Q 2666 3584 2933 3390 
Q 3200 3197 3328 2828 
z
" transform="scale(0.015625)"/>
       <path id="DejaVuSans-7a" d="M 353 3500 
L 3084 3500 
L 3084 2975 
L 922 459 
L 3084 459 
L 3084 0 
L 275 0 
L 275 525 
L 2438 3041 
L 353 3041 
L 353 3500 
z
" transform="scale(0.015625)"/>
      </defs>
      <use xlink:href="#DejaVuSans-52"/>
      <use xlink:href="#DejaVuSans-61" x="67.232422"/>
      <use xlink:href="#DejaVuSans-6e" x="128.511719"/>
      <use xlink:href="#DejaVuSans-64" x="191.890625"/>
      <use xlink:href="#DejaVuSans-6f" x="255.367188"/>
      <use xlink:href="#DejaVuSans-6d" x="316.548828"/>
      <use xlink:href="#DejaVuSans-20" x="413.960938"/>
      <use xlink:href="#DejaVuSans-6d" x="445.748047"/>
      <use xlink:href="#DejaVuSans-69" x="543.160156"/>
      <use xlink:href="#DejaVuSans-6e" x="570.943359"/>
      <use xlink:href="#DejaVuSans-69" x="634.322266"/>
      <use xlink:href="#DejaVuSans-6d" x="662.105469"/>
      <use xlink:href="#DejaVuSans-69" x="759.517578"/>
      <use xlink:href="#DejaVuSans-7a" x="787.300781"/>
      <use xlink:href="#DejaVuSans-65" x="839.791016"/>
      <use xlink:href="#DejaVuSans-72" x="901.314453"/>
     </g>
    </g>
    <g id="line2d_32">
     <path d="M 64.00325 256.075007 
L 72.33325 256.075007 
L 80.66325 256.075007 
" style="fill: none; stroke: #000000; stroke-linecap: square"/>
     <g>
      <use xlink:href="#m04091eb896" x="72.33325" y="256.075007" style="stroke: #000000"/>
     </g>
    </g>
    <g id="text_17">
     <!-- Double Decycling -->
     <g transform="translate(87.32725 258.990507) scale(0.0833 -0.0833)">
      <defs>
       <path id="DejaVuSans-63" d="M 3122 3366 
L 3122 2828 
Q 2878 2963 2633 3030 
Q 2388 3097 2138 3097 
Q 1578 3097 1268 2742 
Q 959 2388 959 1747 
Q 959 1106 1268 751 
Q 1578 397 2138 397 
Q 2388 397 2633 464 
Q 2878 531 3122 666 
L 3122 134 
Q 2881 22 2623 -34 
Q 2366 -91 2075 -91 
Q 1284 -91 818 406 
Q 353 903 353 1747 
Q 353 2603 823 3093 
Q 1294 3584 2113 3584 
Q 2378 3584 2631 3529 
Q 2884 3475 3122 3366 
z
" transform="scale(0.015625)"/>
       <path id="DejaVuSans-67" d="M 2906 1791 
Q 2906 2416 2648 2759 
Q 2391 3103 1925 3103 
Q 1463 3103 1205 2759 
Q 947 2416 947 1791 
Q 947 1169 1205 825 
Q 1463 481 1925 481 
Q 2391 481 2648 825 
Q 2906 1169 2906 1791 
z
M 3481 434 
Q 3481 -459 3084 -895 
Q 2688 -1331 1869 -1331 
Q 1566 -1331 1297 -1286 
Q 1028 -1241 775 -1147 
L 775 -588 
Q 1028 -725 1275 -790 
Q 1522 -856 1778 -856 
Q 2344 -856 2625 -561 
Q 2906 -266 2906 331 
L 2906 616 
Q 2728 306 2450 153 
Q 2172 0 1784 0 
Q 1141 0 747 490 
Q 353 981 353 1791 
Q 353 2603 747 3093 
Q 1141 3584 1784 3584 
Q 2172 3584 2450 3431 
Q 2728 3278 2906 2969 
L 2906 3500 
L 3481 3500 
L 3481 434 
z
" transform="scale(0.015625)"/>
      </defs>
      <use xlink:href="#DejaVuSans-44"/>
      <use xlink:href="#DejaVuSans-6f" x="77.001953"/>
      <use xlink:href="#DejaVuSans-75" x="138.183594"/>
      <use xlink:href="#DejaVuSans-62" x="201.5625"/>
      <use xlink:href="#DejaVuSans-6c" x="265.039062"/>
      <use xlink:href="#DejaVuSans-65" x="292.822266"/>
      <use xlink:href="#DejaVuSans-20" x="354.345703"/>
      <use xlink:href="#DejaVuSans-44" x="386.132812"/>
      <use xlink:href="#DejaVuSans-65" x="463.134766"/>
      <use xlink:href="#DejaVuSans-63" x="524.658203"/>
      <use xlink:href="#DejaVuSans-79" x="579.638672"/>
      <use xlink:href="#DejaVuSans-63" x="638.818359"/>
      <use xlink:href="#DejaVuSans-6c" x="693.798828"/>
      <use xlink:href="#DejaVuSans-69" x="721.582031"/>
      <use xlink:href="#DejaVuSans-6e" x="749.365234"/>
      <use xlink:href="#DejaVuSans-67" x="812.744141"/>
     </g>
    </g>
    <g id="line2d_33">
     <path d="M 64.00325 268.301885 
L 72.33325 268.301885 
L 80.66325 268.301885 
" style="fill: none; stroke: #00dd00; stroke-linecap: square"/>
     <g>
      <use xlink:href="#m0f288f5bb3" x="72.33325" y="268.301885" style="fill: #00dd00; stroke: #00dd00"/>
     </g>
    </g>
    <g id="text_18">
     <!-- Miniception -->
     <g transform="translate(87.32725 271.217385) scale(0.0833 -0.0833)">
      <defs>
       <path id="DejaVuSans-4d" d="M 628 4666 
L 1569 4666 
L 2759 1491 
L 3956 4666 
L 4897 4666 
L 4897 0 
L 4281 0 
L 4281 4097 
L 3078 897 
L 2444 897 
L 1241 4097 
L 1241 0 
L 628 0 
L 628 4666 
z
" transform="scale(0.015625)"/>
       <path id="DejaVuSans-70" d="M 1159 525 
L 1159 -1331 
L 581 -1331 
L 581 3500 
L 1159 3500 
L 1159 2969 
Q 1341 3281 1617 3432 
Q 1894 3584 2278 3584 
Q 2916 3584 3314 3078 
Q 3713 2572 3713 1747 
Q 3713 922 3314 415 
Q 2916 -91 2278 -91 
Q 1894 -91 1617 61 
Q 1341 213 1159 525 
z
M 3116 1747 
Q 3116 2381 2855 2742 
Q 2594 3103 2138 3103 
Q 1681 3103 1420 2742 
Q 1159 2381 1159 1747 
Q 1159 1113 1420 752 
Q 1681 391 2138 391 
Q 2594 391 2855 752 
Q 3116 1113 3116 1747 
z
" transform="scale(0.015625)"/>
      </defs>
      <use xlink:href="#DejaVuSans-4d"/>
      <use xlink:href="#DejaVuSans-69" x="86.279297"/>
      <use xlink:href="#DejaVuSans-6e" x="114.0625"/>
      <use xlink:href="#DejaVuSans-69" x="177.441406"/>
      <use xlink:href="#DejaVuSans-63" x="205.224609"/>
      <use xlink:href="#DejaVuSans-65" x="260.205078"/>
      <use xlink:href="#DejaVuSans-70" x="321.728516"/>
      <use xlink:href="#DejaVuSans-74" x="385.205078"/>
      <use xlink:href="#DejaVuSans-69" x="424.414062"/>
      <use xlink:href="#DejaVuSans-6f" x="452.197266"/>
      <use xlink:href="#DejaVuSans-6e" x="513.378906"/>
     </g>
    </g>
    <g id="line2d_34">
     <path d="M 197.102275 243.848129 
L 205.432275 243.848129 
L 213.762275 243.848129 
" style="fill: none; stroke: #0000ff; stroke-linecap: square"/>
     <g>
      <use xlink:href="#md3176b9699" x="205.432275" y="243.848129" style="fill: #0000ff; stroke: #0000ff"/>
     </g>
    </g>
    <g id="text_19">
     <!-- Mod-minimizer -->
     <g transform="translate(220.426275 246.763629) scale(0.0833 -0.0833)">
      <defs>
       <path id="DejaVuSans-2d" d="M 313 2009 
L 1997 2009 
L 1997 1497 
L 313 1497 
L 313 2009 
z
" transform="scale(0.015625)"/>
      </defs>
      <use xlink:href="#DejaVuSans-4d"/>
      <use xlink:href="#DejaVuSans-6f" x="86.279297"/>
      <use xlink:href="#DejaVuSans-64" x="147.460938"/>
      <use xlink:href="#DejaVuSans-2d" x="210.9375"/>
      <use xlink:href="#DejaVuSans-6d" x="247.021484"/>
      <use xlink:href="#DejaVuSans-69" x="344.433594"/>
      <use xlink:href="#DejaVuSans-6e" x="372.216797"/>
      <use xlink:href="#DejaVuSans-69" x="435.595703"/>
      <use xlink:href="#DejaVuSans-6d" x="463.378906"/>
      <use xlink:href="#DejaVuSans-69" x="560.791016"/>
      <use xlink:href="#DejaVuSans-7a" x="588.574219"/>
      <use xlink:href="#DejaVuSans-65" x="641.064453"/>
      <use xlink:href="#DejaVuSans-72" x="702.587891"/>
     </g>
    </g>
    <g id="line2d_35">
     <path d="M 197.102275 256.075007 
L 205.432275 256.075007 
L 213.762275 256.075007 
" style="fill: none; stroke: #1f77b4; stroke-opacity: 0; stroke-width: 1.5; stroke-linecap: square"/>
    </g>
    <g id="text_20">
     <!--   -->
     <g transform="translate(220.426275 258.990507) scale(0.0833 -0.0833)">
      <use xlink:href="#DejaVuSans-20"/>
     </g>
    </g>
    <g id="line2d_36">
     <path d="M 197.102275 268.301885 
L 205.432275 268.301885 
L 213.762275 268.301885 
" style="fill: none; stroke: #ff7f0e; stroke-opacity: 0; stroke-width: 1.5; stroke-linecap: square"/>
    </g>
    <g id="text_21">
     <!--   -->
     <g transform="translate(220.426275 271.217385) scale(0.0833 -0.0833)">
      <use xlink:href="#DejaVuSans-20"/>
     </g>
    </g>
    <g id="line2d_37">
     <path d="M 313.648028 243.848129 
L 321.978028 243.848129 
L 330.308028 243.848129 
" style="fill: none; stroke: #2ca02c; stroke-opacity: 0; stroke-width: 1.5; stroke-linecap: square"/>
    </g>
    <g id="text_22">
     <!--   -->
     <g transform="translate(336.972028 246.763629) scale(0.0833 -0.0833)">
      <use xlink:href="#DejaVuSans-20"/>
     </g>
    </g>
    <g id="line2d_38">
     <path d="M 313.648028 256.075007 
L 321.978028 256.075007 
L 330.308028 256.075007 
" style="fill: none; stroke: #ff0000; stroke-width: 1.5; stroke-linecap: square"/>
    </g>
    <g id="text_23">
     <!-- (w+k)/w/(w+k) -->
     <g transform="translate(336.972028 258.990507) scale(0.0833 -0.0833)">
      <defs>
       <path id="DejaVuSans-2308" d="M 550 4863 
L 1875 4863 
L 1875 4416 
L 1125 4416 
L 1125 -844 
L 550 -844 
L 550 4863 
z
" transform="scale(0.015625)"/>
       <path id="DejaVuSans-2b" d="M 2944 4013 
L 2944 2272 
L 4684 2272 
L 4684 1741 
L 2944 1741 
L 2944 0 
L 2419 0 
L 2419 1741 
L 678 1741 
L 678 2272 
L 2419 2272 
L 2419 4013 
L 2944 4013 
z
" transform="scale(0.015625)"/>
       <path id="DejaVuSans-2f" d="M 1625 4666 
L 2156 4666 
L 531 -594 
L 0 -594 
L 1625 4666 
z
" transform="scale(0.015625)"/>
       <path id="DejaVuSans-2309" d="M 1947 4863 
L 1947 -844 
L 1372 -844 
L 1372 4416 
L 622 4416 
L 622 4863 
L 1947 4863 
z
" transform="scale(0.015625)"/>
      </defs>
      <use xlink:href="#DejaVuSans-2308"/>
      <use xlink:href="#DejaVuSans-28" x="39.013672"/>
      <use xlink:href="#DejaVuSans-77" x="78.027344"/>
      <use xlink:href="#DejaVuSans-2b" x="159.814453"/>
      <use xlink:href="#DejaVuSans-6b" x="243.603516"/>
      <use xlink:href="#DejaVuSans-29" x="301.513672"/>
      <use xlink:href="#DejaVuSans-2f" x="340.527344"/>
      <use xlink:href="#DejaVuSans-77" x="374.21875"/>
      <use xlink:href="#DejaVuSans-2309" x="456.005859"/>
      <use xlink:href="#DejaVuSans-2f" x="495.019531"/>
      <use xlink:href="#DejaVuSans-28" x="528.710938"/>
      <use xlink:href="#DejaVuSans-77" x="567.724609"/>
      <use xlink:href="#DejaVuSans-2b" x="649.511719"/>
      <use xlink:href="#DejaVuSans-6b" x="733.300781"/>
      <use xlink:href="#DejaVuSans-29" x="791.210938"/>
     </g>
    </g>
    <g id="line2d_39">
     <path d="M 313.648028 268.301885 
L 321.978028 268.301885 
L 330.308028 268.301885 
" style="fill: none; stroke: #000000; stroke-width: 1.5; stroke-linecap: square"/>
    </g>
    <g id="text_24">
     <!-- 1/w -->
     <g transform="translate(336.972028 271.217385) scale(0.0833 -0.0833)">
      <use xlink:href="#DejaVuSans-31"/>
      <use xlink:href="#DejaVuSans-2f" x="63.623047"/>
      <use xlink:href="#DejaVuSans-77" x="97.314453"/>
     </g>
    </g>
   </g>
  </g>
 </g>
 <defs>
  <clipPath id="p5f1450bc2a">
   <rect x="56.50625" y="22.318125" width="357.12" height="266.112"/>
  </clipPath>
 </defs>
</svg>
