<?xml version="1.0" encoding="utf-8" standalone="no"?>
<!DOCTYPE svg PUBLIC "-//W3C//DTD SVG 1.1//EN"
  "http://www.w3.org/Graphics/SVG/1.1/DTD/svg11.dtd">
<svg xmlns:xlink="http://www.w3.org/1999/xlink" width="289.185625pt" height="220.92235pt" viewBox="0 0 289.185625 220.92235" xmlns="http://www.w3.org/2000/svg" version="1.1">
 <metadata>
  <rdf:RDF xmlns:dc="http://purl.org/dc/elements/1.1/" xmlns:cc="http://creativecommons.org/ns#" xmlns:rdf="http://www.w3.org/1999/02/22-rdf-syntax-ns#">
   <cc:Work>
    <dc:type rdf:resource="http://purl.org/dc/dcmitype/StillImage"/>
    <dc:date>2024-03-08T02:09:27.144946</dc:date>
    <dc:format>image/svg+xml</dc:format>
    <dc:creator>
     <cc:Agent>
      <dc:title>Matplotlib v3.8.2, https://matplotlib.org/</dc:title>
     </cc:Agent>
    </dc:creator>
   </cc:Work>
  </rdf:RDF>
 </metadata>
 <defs>
  <style type="text/css">*{stroke-linejoin: round; stroke-linecap: butt}</style>
 </defs>
 <g id="figure_1">
  <g id="patch_1">
   <path d="M 0 220.92235 
L 289.185625 220.92235 
L 289.185625 -0 
L 0 -0 
z
" style="fill: #ffffff"/>
  </g>
  <g id="axes_1">
   <g id="patch_2">
    <path d="M 36.465625 183.3661 
L 281.985625 183.3661 
L 281.985625 17.0461 
L 36.465625 17.0461 
z
" style="fill: #f8f8f8"/>
   </g>
   <g id="matplotlib.axis_1">
    <g id="xtick_1">
     <g id="line2d_1">
      <defs>
       <path id="m371606e695" d="M 0 0 
L 0 3.5 
" style="stroke: #000000; stroke-width: 0.8"/>
      </defs>
      <g>
       <use xlink:href="#m371606e695" x="36.465625" y="183.3661" style="stroke: #000000; stroke-width: 0.8"/>
      </g>
     </g>
     <g id="text_1">
      <!-- 0% -->
      <g transform="translate(28.533594 197.964538) scale(0.1 -0.1)">
       <defs>
        <path id="DejaVuSans-30" d="M 2034 4250 
Q 1547 4250 1301 3770 
Q 1056 3291 1056 2328 
Q 1056 1369 1301 889 
Q 1547 409 2034 409 
Q 2525 409 2770 889 
Q 3016 1369 3016 2328 
Q 3016 3291 2770 3770 
Q 2525 4250 2034 4250 
z
M 2034 4750 
Q 2819 4750 3233 4129 
Q 3647 3509 3647 2328 
Q 3647 1150 3233 529 
Q 2819 -91 2034 -91 
Q 1250 -91 836 529 
Q 422 1150 422 2328 
Q 422 3509 836 4129 
Q 1250 4750 2034 4750 
z
" transform="scale(0.015625)"/>
        <path id="DejaVuSans-25" d="M 4653 2053 
Q 4381 2053 4226 1822 
Q 4072 1591 4072 1178 
Q 4072 772 4226 539 
Q 4381 306 4653 306 
Q 4919 306 5073 539 
Q 5228 772 5228 1178 
Q 5228 1588 5073 1820 
Q 4919 2053 4653 2053 
z
M 4653 2450 
Q 5147 2450 5437 2106 
Q 5728 1763 5728 1178 
Q 5728 594 5436 251 
Q 5144 -91 4653 -91 
Q 4153 -91 3862 251 
Q 3572 594 3572 1178 
Q 3572 1766 3864 2108 
Q 4156 2450 4653 2450 
z
M 1428 4353 
Q 1159 4353 1004 4120 
Q 850 3888 850 3481 
Q 850 3069 1003 2837 
Q 1156 2606 1428 2606 
Q 1700 2606 1854 2837 
Q 2009 3069 2009 3481 
Q 2009 3884 1853 4118 
Q 1697 4353 1428 4353 
z
M 4250 4750 
L 4750 4750 
L 1831 -91 
L 1331 -91 
L 4250 4750 
z
M 1428 4750 
Q 1922 4750 2215 4408 
Q 2509 4066 2509 3481 
Q 2509 2891 2217 2550 
Q 1925 2209 1428 2209 
Q 931 2209 642 2551 
Q 353 2894 353 3481 
Q 353 4063 643 4406 
Q 934 4750 1428 4750 
z
" transform="scale(0.015625)"/>
       </defs>
       <use xlink:href="#DejaVuSans-30"/>
       <use xlink:href="#DejaVuSans-25" x="63.623047"/>
      </g>
     </g>
    </g>
    <g id="xtick_2">
     <g id="line2d_2">
      <g>
       <use xlink:href="#m371606e695" x="105.995494" y="183.3661" style="stroke: #000000; stroke-width: 0.8"/>
      </g>
     </g>
     <g id="text_2">
      <!-- 5% -->
      <g transform="translate(98.063463 197.964538) scale(0.1 -0.1)">
       <defs>
        <path id="DejaVuSans-35" d="M 691 4666 
L 3169 4666 
L 3169 4134 
L 1269 4134 
L 1269 2991 
Q 1406 3038 1543 3061 
Q 1681 3084 1819 3084 
Q 2600 3084 3056 2656 
Q 3513 2228 3513 1497 
Q 3513 744 3044 326 
Q 2575 -91 1722 -91 
Q 1428 -91 1123 -41 
Q 819 9 494 109 
L 494 744 
Q 775 591 1075 516 
Q 1375 441 1709 441 
Q 2250 441 2565 725 
Q 2881 1009 2881 1497 
Q 2881 1984 2565 2268 
Q 2250 2553 1709 2553 
Q 1456 2553 1204 2497 
Q 953 2441 691 2322 
L 691 4666 
z
" transform="scale(0.015625)"/>
       </defs>
       <use xlink:href="#DejaVuSans-35"/>
       <use xlink:href="#DejaVuSans-25" x="63.623047"/>
      </g>
     </g>
    </g>
    <g id="xtick_3">
     <g id="line2d_3">
      <g>
       <use xlink:href="#m371606e695" x="175.525363" y="183.3661" style="stroke: #000000; stroke-width: 0.8"/>
      </g>
     </g>
     <g id="text_3">
      <!-- 10% -->
      <g transform="translate(164.412081 197.964538) scale(0.1 -0.1)">
       <defs>
        <path id="DejaVuSans-31" d="M 794 531 
L 1825 531 
L 1825 4091 
L 703 3866 
L 703 4441 
L 1819 4666 
L 2450 4666 
L 2450 531 
L 3481 531 
L 3481 0 
L 794 0 
L 794 531 
z
" transform="scale(0.015625)"/>
       </defs>
       <use xlink:href="#DejaVuSans-31"/>
       <use xlink:href="#DejaVuSans-30" x="63.623047"/>
       <use xlink:href="#DejaVuSans-25" x="127.246094"/>
      </g>
     </g>
    </g>
    <g id="xtick_4">
     <g id="line2d_4">
      <g>
       <use xlink:href="#m371606e695" x="245.055231" y="183.3661" style="stroke: #000000; stroke-width: 0.8"/>
      </g>
     </g>
     <g id="text_4">
      <!-- 15% -->
      <g transform="translate(233.94195 197.964538) scale(0.1 -0.1)">
       <use xlink:href="#DejaVuSans-31"/>
       <use xlink:href="#DejaVuSans-35" x="63.623047"/>
       <use xlink:href="#DejaVuSans-25" x="127.246094"/>
      </g>
     </g>
    </g>
    <g id="text_5">
     <!-- Divergence -->
     <g transform="translate(130.737344 211.642663) scale(0.1 -0.1)">
      <defs>
       <path id="DejaVuSans-44" d="M 1259 4147 
L 1259 519 
L 2022 519 
Q 2988 519 3436 956 
Q 3884 1394 3884 2338 
Q 3884 3275 3436 3711 
Q 2988 4147 2022 4147 
L 1259 4147 
z
M 628 4666 
L 1925 4666 
Q 3281 4666 3915 4102 
Q 4550 3538 4550 2338 
Q 4550 1131 3912 565 
Q 3275 0 1925 0 
L 628 0 
L 628 4666 
z
" transform="scale(0.015625)"/>
       <path id="DejaVuSans-69" d="M 603 3500 
L 1178 3500 
L 1178 0 
L 603 0 
L 603 3500 
z
M 603 4863 
L 1178 4863 
L 1178 4134 
L 603 4134 
L 603 4863 
z
" transform="scale(0.015625)"/>
       <path id="DejaVuSans-76" d="M 191 3500 
L 800 3500 
L 1894 563 
L 2988 3500 
L 3597 3500 
L 2284 0 
L 1503 0 
L 191 3500 
z
" transform="scale(0.015625)"/>
       <path id="DejaVuSans-65" d="M 3597 1894 
L 3597 1613 
L 953 1613 
Q 991 1019 1311 708 
Q 1631 397 2203 397 
Q 2534 397 2845 478 
Q 3156 559 3463 722 
L 3463 178 
Q 3153 47 2828 -22 
Q 2503 -91 2169 -91 
Q 1331 -91 842 396 
Q 353 884 353 1716 
Q 353 2575 817 3079 
Q 1281 3584 2069 3584 
Q 2775 3584 3186 3129 
Q 3597 2675 3597 1894 
z
M 3022 2063 
Q 3016 2534 2758 2815 
Q 2500 3097 2075 3097 
Q 1594 3097 1305 2825 
Q 1016 2553 972 2059 
L 3022 2063 
z
" transform="scale(0.015625)"/>
       <path id="DejaVuSans-72" d="M 2631 2963 
Q 2534 3019 2420 3045 
Q 2306 3072 2169 3072 
Q 1681 3072 1420 2755 
Q 1159 2438 1159 1844 
L 1159 0 
L 581 0 
L 581 3500 
L 1159 3500 
L 1159 2956 
Q 1341 3275 1631 3429 
Q 1922 3584 2338 3584 
Q 2397 3584 2469 3576 
Q 2541 3569 2628 3553 
L 2631 2963 
z
" transform="scale(0.015625)"/>
       <path id="DejaVuSans-67" d="M 2906 1791 
Q 2906 2416 2648 2759 
Q 2391 3103 1925 3103 
Q 1463 3103 1205 2759 
Q 947 2416 947 1791 
Q 947 1169 1205 825 
Q 1463 481 1925 481 
Q 2391 481 2648 825 
Q 2906 1169 2906 1791 
z
M 3481 434 
Q 3481 -459 3084 -895 
Q 2688 -1331 1869 -1331 
Q 1566 -1331 1297 -1286 
Q 1028 -1241 775 -1147 
L 775 -588 
Q 1028 -725 1275 -790 
Q 1522 -856 1778 -856 
Q 2344 -856 2625 -561 
Q 2906 -266 2906 331 
L 2906 616 
Q 2728 306 2450 153 
Q 2172 0 1784 0 
Q 1141 0 747 490 
Q 353 981 353 1791 
Q 353 2603 747 3093 
Q 1141 3584 1784 3584 
Q 2172 3584 2450 3431 
Q 2728 3278 2906 2969 
L 2906 3500 
L 3481 3500 
L 3481 434 
z
" transform="scale(0.015625)"/>
       <path id="DejaVuSans-6e" d="M 3513 2113 
L 3513 0 
L 2938 0 
L 2938 2094 
Q 2938 2591 2744 2837 
Q 2550 3084 2163 3084 
Q 1697 3084 1428 2787 
Q 1159 2491 1159 1978 
L 1159 0 
L 581 0 
L 581 3500 
L 1159 3500 
L 1159 2956 
Q 1366 3272 1645 3428 
Q 1925 3584 2291 3584 
Q 2894 3584 3203 3211 
Q 3513 2838 3513 2113 
z
" transform="scale(0.015625)"/>
       <path id="DejaVuSans-63" d="M 3122 3366 
L 3122 2828 
Q 2878 2963 2633 3030 
Q 2388 3097 2138 3097 
Q 1578 3097 1268 2742 
Q 959 2388 959 1747 
Q 959 1106 1268 751 
Q 1578 397 2138 397 
Q 2388 397 2633 464 
Q 2878 531 3122 666 
L 3122 134 
Q 2881 22 2623 -34 
Q 2366 -91 2075 -91 
Q 1284 -91 818 406 
Q 353 903 353 1747 
Q 353 2603 823 3093 
Q 1294 3584 2113 3584 
Q 2378 3584 2631 3529 
Q 2884 3475 3122 3366 
z
" transform="scale(0.015625)"/>
      </defs>
      <use xlink:href="#DejaVuSans-44"/>
      <use xlink:href="#DejaVuSans-69" x="77.001953"/>
      <use xlink:href="#DejaVuSans-76" x="104.785156"/>
      <use xlink:href="#DejaVuSans-65" x="163.964844"/>
      <use xlink:href="#DejaVuSans-72" x="225.488281"/>
      <use xlink:href="#DejaVuSans-67" x="264.851562"/>
      <use xlink:href="#DejaVuSans-65" x="328.328125"/>
      <use xlink:href="#DejaVuSans-6e" x="389.851562"/>
      <use xlink:href="#DejaVuSans-63" x="453.230469"/>
      <use xlink:href="#DejaVuSans-65" x="508.210938"/>
     </g>
    </g>
   </g>
   <g id="matplotlib.axis_2">
    <g id="ytick_1">
     <g id="line2d_5">
      <path d="M 36.465625 183.3661 
L 281.985625 183.3661 
" clip-path="url(#paf79684fc0)" style="fill: none; stroke: #ffffff; stroke-width: 0.8; stroke-linecap: square"/>
     </g>
     <g id="line2d_6">
      <defs>
       <path id="m4e5c01d23a" d="M 0 0 
L -3.5 0 
" style="stroke: #000000; stroke-width: 0.8"/>
      </defs>
      <g>
       <use xlink:href="#m4e5c01d23a" x="36.465625" y="183.3661" style="stroke: #000000; stroke-width: 0.8"/>
      </g>
     </g>
     <g id="text_6">
      <!-- 0.00 -->
      <g transform="translate(7.2 187.165319) scale(0.1 -0.1)">
       <defs>
        <path id="DejaVuSans-2e" d="M 684 794 
L 1344 794 
L 1344 0 
L 684 0 
L 684 794 
z
" transform="scale(0.015625)"/>
       </defs>
       <use xlink:href="#DejaVuSans-30"/>
       <use xlink:href="#DejaVuSans-2e" x="63.623047"/>
       <use xlink:href="#DejaVuSans-30" x="95.410156"/>
       <use xlink:href="#DejaVuSans-30" x="159.033203"/>
      </g>
     </g>
    </g>
    <g id="ytick_2">
     <g id="line2d_7">
      <path d="M 36.465625 153.6661 
L 281.985625 153.6661 
" clip-path="url(#paf79684fc0)" style="fill: none; stroke: #ffffff; stroke-width: 0.8; stroke-linecap: square"/>
     </g>
     <g id="line2d_8">
      <g>
       <use xlink:href="#m4e5c01d23a" x="36.465625" y="153.6661" style="stroke: #000000; stroke-width: 0.8"/>
      </g>
     </g>
     <g id="text_7">
      <!-- 0.05 -->
      <g transform="translate(7.2 157.465319) scale(0.1 -0.1)">
       <use xlink:href="#DejaVuSans-30"/>
       <use xlink:href="#DejaVuSans-2e" x="63.623047"/>
       <use xlink:href="#DejaVuSans-30" x="95.410156"/>
       <use xlink:href="#DejaVuSans-35" x="159.033203"/>
      </g>
     </g>
    </g>
    <g id="ytick_3">
     <g id="line2d_9">
      <path d="M 36.465625 123.9661 
L 281.985625 123.9661 
" clip-path="url(#paf79684fc0)" style="fill: none; stroke: #ffffff; stroke-width: 0.8; stroke-linecap: square"/>
     </g>
     <g id="line2d_10">
      <g>
       <use xlink:href="#m4e5c01d23a" x="36.465625" y="123.9661" style="stroke: #000000; stroke-width: 0.8"/>
      </g>
     </g>
     <g id="text_8">
      <!-- 0.10 -->
      <g transform="translate(7.2 127.765319) scale(0.1 -0.1)">
       <use xlink:href="#DejaVuSans-30"/>
       <use xlink:href="#DejaVuSans-2e" x="63.623047"/>
       <use xlink:href="#DejaVuSans-31" x="95.410156"/>
       <use xlink:href="#DejaVuSans-30" x="159.033203"/>
      </g>
     </g>
    </g>
    <g id="ytick_4">
     <g id="line2d_11">
      <path d="M 36.465625 94.2661 
L 281.985625 94.2661 
" clip-path="url(#paf79684fc0)" style="fill: none; stroke: #ffffff; stroke-width: 0.8; stroke-linecap: square"/>
     </g>
     <g id="line2d_12">
      <g>
       <use xlink:href="#m4e5c01d23a" x="36.465625" y="94.2661" style="stroke: #000000; stroke-width: 0.8"/>
      </g>
     </g>
     <g id="text_9">
      <!-- 0.15 -->
      <g transform="translate(7.2 98.065319) scale(0.1 -0.1)">
       <use xlink:href="#DejaVuSans-30"/>
       <use xlink:href="#DejaVuSans-2e" x="63.623047"/>
       <use xlink:href="#DejaVuSans-31" x="95.410156"/>
       <use xlink:href="#DejaVuSans-35" x="159.033203"/>
      </g>
     </g>
    </g>
    <g id="ytick_5">
     <g id="line2d_13">
      <path d="M 36.465625 64.5661 
L 281.985625 64.5661 
" clip-path="url(#paf79684fc0)" style="fill: none; stroke: #ffffff; stroke-width: 0.8; stroke-linecap: square"/>
     </g>
     <g id="line2d_14">
      <g>
       <use xlink:href="#m4e5c01d23a" x="36.465625" y="64.5661" style="stroke: #000000; stroke-width: 0.8"/>
      </g>
     </g>
     <g id="text_10">
      <!-- 0.20 -->
      <g transform="translate(7.2 68.365319) scale(0.1 -0.1)">
       <defs>
        <path id="DejaVuSans-32" d="M 1228 531 
L 3431 531 
L 3431 0 
L 469 0 
L 469 531 
Q 828 903 1448 1529 
Q 2069 2156 2228 2338 
Q 2531 2678 2651 2914 
Q 2772 3150 2772 3378 
Q 2772 3750 2511 3984 
Q 2250 4219 1831 4219 
Q 1534 4219 1204 4116 
Q 875 4013 500 3803 
L 500 4441 
Q 881 4594 1212 4672 
Q 1544 4750 1819 4750 
Q 2544 4750 2975 4387 
Q 3406 4025 3406 3419 
Q 3406 3131 3298 2873 
Q 3191 2616 2906 2266 
Q 2828 2175 2409 1742 
Q 1991 1309 1228 531 
z
" transform="scale(0.015625)"/>
       </defs>
       <use xlink:href="#DejaVuSans-30"/>
       <use xlink:href="#DejaVuSans-2e" x="63.623047"/>
       <use xlink:href="#DejaVuSans-32" x="95.410156"/>
       <use xlink:href="#DejaVuSans-30" x="159.033203"/>
      </g>
     </g>
    </g>
    <g id="ytick_6">
     <g id="line2d_15">
      <path d="M 36.465625 34.8661 
L 281.985625 34.8661 
" clip-path="url(#paf79684fc0)" style="fill: none; stroke: #ffffff; stroke-width: 0.8; stroke-linecap: square"/>
     </g>
     <g id="line2d_16">
      <g>
       <use xlink:href="#m4e5c01d23a" x="36.465625" y="34.8661" style="stroke: #000000; stroke-width: 0.8"/>
      </g>
     </g>
     <g id="text_11">
      <!-- 0.25 -->
      <g transform="translate(7.2 38.665319) scale(0.1 -0.1)">
       <use xlink:href="#DejaVuSans-30"/>
       <use xlink:href="#DejaVuSans-2e" x="63.623047"/>
       <use xlink:href="#DejaVuSans-32" x="95.410156"/>
       <use xlink:href="#DejaVuSans-35" x="159.033203"/>
      </g>
     </g>
    </g>
    <g id="text_12">
     <!-- Avg. runtime per alignment [s] -->
     <g transform="translate(8.565625 14.966413) scale(0.1 -0.1)">
      <defs>
       <path id="DejaVuSans-41" d="M 2188 4044 
L 1331 1722 
L 3047 1722 
L 2188 4044 
z
M 1831 4666 
L 2547 4666 
L 4325 0 
L 3669 0 
L 3244 1197 
L 1141 1197 
L 716 0 
L 50 0 
L 1831 4666 
z
" transform="scale(0.015625)"/>
       <path id="DejaVuSans-20" transform="scale(0.015625)"/>
       <path id="DejaVuSans-75" d="M 544 1381 
L 544 3500 
L 1119 3500 
L 1119 1403 
Q 1119 906 1312 657 
Q 1506 409 1894 409 
Q 2359 409 2629 706 
Q 2900 1003 2900 1516 
L 2900 3500 
L 3475 3500 
L 3475 0 
L 2900 0 
L 2900 538 
Q 2691 219 2414 64 
Q 2138 -91 1772 -91 
Q 1169 -91 856 284 
Q 544 659 544 1381 
z
M 1991 3584 
L 1991 3584 
z
" transform="scale(0.015625)"/>
       <path id="DejaVuSans-74" d="M 1172 4494 
L 1172 3500 
L 2356 3500 
L 2356 3053 
L 1172 3053 
L 1172 1153 
Q 1172 725 1289 603 
Q 1406 481 1766 481 
L 2356 481 
L 2356 0 
L 1766 0 
Q 1100 0 847 248 
Q 594 497 594 1153 
L 594 3053 
L 172 3053 
L 172 3500 
L 594 3500 
L 594 4494 
L 1172 4494 
z
" transform="scale(0.015625)"/>
       <path id="DejaVuSans-6d" d="M 3328 2828 
Q 3544 3216 3844 3400 
Q 4144 3584 4550 3584 
Q 5097 3584 5394 3201 
Q 5691 2819 5691 2113 
L 5691 0 
L 5113 0 
L 5113 2094 
Q 5113 2597 4934 2840 
Q 4756 3084 4391 3084 
Q 3944 3084 3684 2787 
Q 3425 2491 3425 1978 
L 3425 0 
L 2847 0 
L 2847 2094 
Q 2847 2600 2669 2842 
Q 2491 3084 2119 3084 
Q 1678 3084 1418 2786 
Q 1159 2488 1159 1978 
L 1159 0 
L 581 0 
L 581 3500 
L 1159 3500 
L 1159 2956 
Q 1356 3278 1631 3431 
Q 1906 3584 2284 3584 
Q 2666 3584 2933 3390 
Q 3200 3197 3328 2828 
z
" transform="scale(0.015625)"/>
       <path id="DejaVuSans-70" d="M 1159 525 
L 1159 -1331 
L 581 -1331 
L 581 3500 
L 1159 3500 
L 1159 2969 
Q 1341 3281 1617 3432 
Q 1894 3584 2278 3584 
Q 2916 3584 3314 3078 
Q 3713 2572 3713 1747 
Q 3713 922 3314 415 
Q 2916 -91 2278 -91 
Q 1894 -91 1617 61 
Q 1341 213 1159 525 
z
M 3116 1747 
Q 3116 2381 2855 2742 
Q 2594 3103 2138 3103 
Q 1681 3103 1420 2742 
Q 1159 2381 1159 1747 
Q 1159 1113 1420 752 
Q 1681 391 2138 391 
Q 2594 391 2855 752 
Q 3116 1113 3116 1747 
z
" transform="scale(0.015625)"/>
       <path id="DejaVuSans-61" d="M 2194 1759 
Q 1497 1759 1228 1600 
Q 959 1441 959 1056 
Q 959 750 1161 570 
Q 1363 391 1709 391 
Q 2188 391 2477 730 
Q 2766 1069 2766 1631 
L 2766 1759 
L 2194 1759 
z
M 3341 1997 
L 3341 0 
L 2766 0 
L 2766 531 
Q 2569 213 2275 61 
Q 1981 -91 1556 -91 
Q 1019 -91 701 211 
Q 384 513 384 1019 
Q 384 1609 779 1909 
Q 1175 2209 1959 2209 
L 2766 2209 
L 2766 2266 
Q 2766 2663 2505 2880 
Q 2244 3097 1772 3097 
Q 1472 3097 1187 3025 
Q 903 2953 641 2809 
L 641 3341 
Q 956 3463 1253 3523 
Q 1550 3584 1831 3584 
Q 2591 3584 2966 3190 
Q 3341 2797 3341 1997 
z
" transform="scale(0.015625)"/>
       <path id="DejaVuSans-6c" d="M 603 4863 
L 1178 4863 
L 1178 0 
L 603 0 
L 603 4863 
z
" transform="scale(0.015625)"/>
       <path id="DejaVuSans-5b" d="M 550 4863 
L 1875 4863 
L 1875 4416 
L 1125 4416 
L 1125 -397 
L 1875 -397 
L 1875 -844 
L 550 -844 
L 550 4863 
z
" transform="scale(0.015625)"/>
       <path id="DejaVuSans-73" d="M 2834 3397 
L 2834 2853 
Q 2591 2978 2328 3040 
Q 2066 3103 1784 3103 
Q 1356 3103 1142 2972 
Q 928 2841 928 2578 
Q 928 2378 1081 2264 
Q 1234 2150 1697 2047 
L 1894 2003 
Q 2506 1872 2764 1633 
Q 3022 1394 3022 966 
Q 3022 478 2636 193 
Q 2250 -91 1575 -91 
Q 1294 -91 989 -36 
Q 684 19 347 128 
L 347 722 
Q 666 556 975 473 
Q 1284 391 1588 391 
Q 1994 391 2212 530 
Q 2431 669 2431 922 
Q 2431 1156 2273 1281 
Q 2116 1406 1581 1522 
L 1381 1569 
Q 847 1681 609 1914 
Q 372 2147 372 2553 
Q 372 3047 722 3315 
Q 1072 3584 1716 3584 
Q 2034 3584 2315 3537 
Q 2597 3491 2834 3397 
z
" transform="scale(0.015625)"/>
       <path id="DejaVuSans-5d" d="M 1947 4863 
L 1947 -844 
L 622 -844 
L 622 -397 
L 1369 -397 
L 1369 4416 
L 622 4416 
L 622 4863 
L 1947 4863 
z
" transform="scale(0.015625)"/>
      </defs>
      <use xlink:href="#DejaVuSans-41"/>
      <use xlink:href="#DejaVuSans-76" x="62.533203"/>
      <use xlink:href="#DejaVuSans-67" x="121.712891"/>
      <use xlink:href="#DejaVuSans-2e" x="185.189453"/>
      <use xlink:href="#DejaVuSans-20" x="216.976562"/>
      <use xlink:href="#DejaVuSans-72" x="248.763672"/>
      <use xlink:href="#DejaVuSans-75" x="289.876953"/>
      <use xlink:href="#DejaVuSans-6e" x="353.255859"/>
      <use xlink:href="#DejaVuSans-74" x="416.634766"/>
      <use xlink:href="#DejaVuSans-69" x="455.84375"/>
      <use xlink:href="#DejaVuSans-6d" x="483.626953"/>
      <use xlink:href="#DejaVuSans-65" x="581.039062"/>
      <use xlink:href="#DejaVuSans-20" x="642.5625"/>
      <use xlink:href="#DejaVuSans-70" x="674.349609"/>
      <use xlink:href="#DejaVuSans-65" x="737.826172"/>
      <use xlink:href="#DejaVuSans-72" x="799.349609"/>
      <use xlink:href="#DejaVuSans-20" x="840.462891"/>
      <use xlink:href="#DejaVuSans-61" x="872.25"/>
      <use xlink:href="#DejaVuSans-6c" x="933.529297"/>
      <use xlink:href="#DejaVuSans-69" x="961.3125"/>
      <use xlink:href="#DejaVuSans-67" x="989.095703"/>
      <use xlink:href="#DejaVuSans-6e" x="1052.572266"/>
      <use xlink:href="#DejaVuSans-6d" x="1115.951172"/>
      <use xlink:href="#DejaVuSans-65" x="1213.363281"/>
      <use xlink:href="#DejaVuSans-6e" x="1274.886719"/>
      <use xlink:href="#DejaVuSans-74" x="1338.265625"/>
      <use xlink:href="#DejaVuSans-20" x="1377.474609"/>
      <use xlink:href="#DejaVuSans-5b" x="1409.261719"/>
      <use xlink:href="#DejaVuSans-73" x="1448.275391"/>
      <use xlink:href="#DejaVuSans-5d" x="1500.375"/>
     </g>
    </g>
   </g>
   <g id="line2d_17">
    <path d="M 44.828698 144.844897 
L 53.221417 137.804444 
L 61.396678 136.733816 
L 69.440796 123.862465 
L 77.415128 122.389304 
L 85.275435 121.777448 
L 93.036167 101.897759 
L 100.703423 96.485249 
L 108.074405 95.979113 
L 115.610412 94.045216 
L 122.737601 93.160934 
L 130.0007 91.954288 
L 136.951968 90.171902 
L 143.926044 88.57125 
L 150.926213 42.727631 
L 157.704557 41.996684 
L 164.498216 41.167252 
L 170.994366 39.436414 
L 177.331524 38.879301 
L 184.0864 37.377592 
L 189.991182 36.163598 
L 196.575438 35.873786 
L 202.680283 34.555557 
L 208.882277 33.107302 
L 214.689644 31.688218 
L 220.785309 29.796108 
L 226.340541 29.179958 
L 232.077496 27.488799 
L 237.707742 26.259219 
L 243.688726 24.968053 
L 248.616488 23.769883 
L 250.157678 -1 
" clip-path="url(#paf79684fc0)" style="fill: none; stroke: #de4aff; stroke-width: 0.75; stroke-linecap: square"/>
    <defs>
     <path id="m1a6ff00477" d="M 0 2 
C 0.530406 2 1.03916 1.789267 1.414214 1.414214 
C 1.789267 1.03916 2 0.530406 2 0 
C 2 -0.530406 1.789267 -1.03916 1.414214 -1.414214 
C 1.03916 -1.789267 0.530406 -2 0 -2 
C -0.530406 -2 -1.03916 -1.789267 -1.414214 -1.414214 
C -1.789267 -1.03916 -2 -0.530406 -2 0 
C -2 0.530406 -1.789267 1.03916 -1.414214 1.414214 
C -1.03916 1.789267 -0.530406 2 0 2 
z
" style="stroke: #de4aff"/>
    </defs>
    <g clip-path="url(#paf79684fc0)">
     <use xlink:href="#m1a6ff00477" x="44.828698" y="144.844897" style="fill: #de4aff; stroke: #de4aff"/>
     <use xlink:href="#m1a6ff00477" x="53.221417" y="137.804444" style="fill: #de4aff; stroke: #de4aff"/>
     <use xlink:href="#m1a6ff00477" x="61.396678" y="136.733816" style="fill: #de4aff; stroke: #de4aff"/>
     <use xlink:href="#m1a6ff00477" x="69.440796" y="123.862465" style="fill: #de4aff; stroke: #de4aff"/>
     <use xlink:href="#m1a6ff00477" x="77.415128" y="122.389304" style="fill: #de4aff; stroke: #de4aff"/>
     <use xlink:href="#m1a6ff00477" x="85.275435" y="121.777448" style="fill: #de4aff; stroke: #de4aff"/>
     <use xlink:href="#m1a6ff00477" x="93.036167" y="101.897759" style="fill: #de4aff; stroke: #de4aff"/>
     <use xlink:href="#m1a6ff00477" x="100.703423" y="96.485249" style="fill: #de4aff; stroke: #de4aff"/>
     <use xlink:href="#m1a6ff00477" x="108.074405" y="95.979113" style="fill: #de4aff; stroke: #de4aff"/>
     <use xlink:href="#m1a6ff00477" x="115.610412" y="94.045216" style="fill: #de4aff; stroke: #de4aff"/>
     <use xlink:href="#m1a6ff00477" x="122.737601" y="93.160934" style="fill: #de4aff; stroke: #de4aff"/>
     <use xlink:href="#m1a6ff00477" x="130.0007" y="91.954288" style="fill: #de4aff; stroke: #de4aff"/>
     <use xlink:href="#m1a6ff00477" x="136.951968" y="90.171902" style="fill: #de4aff; stroke: #de4aff"/>
     <use xlink:href="#m1a6ff00477" x="143.926044" y="88.57125" style="fill: #de4aff; stroke: #de4aff"/>
     <use xlink:href="#m1a6ff00477" x="150.926213" y="42.727631" style="fill: #de4aff; stroke: #de4aff"/>
     <use xlink:href="#m1a6ff00477" x="157.704557" y="41.996684" style="fill: #de4aff; stroke: #de4aff"/>
     <use xlink:href="#m1a6ff00477" x="164.498216" y="41.167252" style="fill: #de4aff; stroke: #de4aff"/>
     <use xlink:href="#m1a6ff00477" x="170.994366" y="39.436414" style="fill: #de4aff; stroke: #de4aff"/>
     <use xlink:href="#m1a6ff00477" x="177.331524" y="38.879301" style="fill: #de4aff; stroke: #de4aff"/>
     <use xlink:href="#m1a6ff00477" x="184.0864" y="37.377592" style="fill: #de4aff; stroke: #de4aff"/>
     <use xlink:href="#m1a6ff00477" x="189.991182" y="36.163598" style="fill: #de4aff; stroke: #de4aff"/>
     <use xlink:href="#m1a6ff00477" x="196.575438" y="35.873786" style="fill: #de4aff; stroke: #de4aff"/>
     <use xlink:href="#m1a6ff00477" x="202.680283" y="34.555557" style="fill: #de4aff; stroke: #de4aff"/>
     <use xlink:href="#m1a6ff00477" x="208.882277" y="33.107302" style="fill: #de4aff; stroke: #de4aff"/>
     <use xlink:href="#m1a6ff00477" x="214.689644" y="31.688218" style="fill: #de4aff; stroke: #de4aff"/>
     <use xlink:href="#m1a6ff00477" x="220.785309" y="29.796108" style="fill: #de4aff; stroke: #de4aff"/>
     <use xlink:href="#m1a6ff00477" x="226.340541" y="29.179958" style="fill: #de4aff; stroke: #de4aff"/>
     <use xlink:href="#m1a6ff00477" x="232.077496" y="27.488799" style="fill: #de4aff; stroke: #de4aff"/>
     <use xlink:href="#m1a6ff00477" x="237.707742" y="26.259219" style="fill: #de4aff; stroke: #de4aff"/>
     <use xlink:href="#m1a6ff00477" x="243.688726" y="24.968053" style="fill: #de4aff; stroke: #de4aff"/>
     <use xlink:href="#m1a6ff00477" x="248.616488" y="23.769883" style="fill: #de4aff; stroke: #de4aff"/>
     <use xlink:href="#m1a6ff00477" x="250.157678" y="-1" style="fill: #de4aff; stroke: #de4aff"/>
    </g>
   </g>
   <g id="line2d_18">
    <path d="M 44.828698 182.064281 
L 53.221417 179.401566 
L 61.396678 175.356625 
L 69.440796 169.684103 
L 77.415128 162.787747 
L 85.275435 154.393775 
L 93.036167 144.89787 
L 100.703423 134.407676 
L 108.074405 122.776538 
L 115.610412 109.458809 
L 122.737601 95.656292 
L 130.0007 79.16352 
L 136.951968 63.870004 
L 143.926044 46.434708 
L 150.926213 26.056926 
L 157.704557 8.276148 
L 160.75289 -1 
" clip-path="url(#paf79684fc0)" style="fill: none; stroke: #625aff; stroke-width: 0.75; stroke-linecap: square"/>
    <defs>
     <path id="m4ee88d805a" d="M 0 2 
C 0.530406 2 1.03916 1.789267 1.414214 1.414214 
C 1.789267 1.03916 2 0.530406 2 0 
C 2 -0.530406 1.789267 -1.03916 1.414214 -1.414214 
C 1.03916 -1.789267 0.530406 -2 0 -2 
C -0.530406 -2 -1.03916 -1.789267 -1.414214 -1.414214 
C -1.789267 -1.03916 -2 -0.530406 -2 0 
C -2 0.530406 -1.789267 1.03916 -1.414214 1.414214 
C -1.03916 1.789267 -0.530406 2 0 2 
z
" style="stroke: #625aff"/>
    </defs>
    <g clip-path="url(#paf79684fc0)">
     <use xlink:href="#m4ee88d805a" x="44.828698" y="182.064281" style="fill: #625aff; stroke: #625aff"/>
     <use xlink:href="#m4ee88d805a" x="53.221417" y="179.401566" style="fill: #625aff; stroke: #625aff"/>
     <use xlink:href="#m4ee88d805a" x="61.396678" y="175.356625" style="fill: #625aff; stroke: #625aff"/>
     <use xlink:href="#m4ee88d805a" x="69.440796" y="169.684103" style="fill: #625aff; stroke: #625aff"/>
     <use xlink:href="#m4ee88d805a" x="77.415128" y="162.787747" style="fill: #625aff; stroke: #625aff"/>
     <use xlink:href="#m4ee88d805a" x="85.275435" y="154.393775" style="fill: #625aff; stroke: #625aff"/>
     <use xlink:href="#m4ee88d805a" x="93.036167" y="144.89787" style="fill: #625aff; stroke: #625aff"/>
     <use xlink:href="#m4ee88d805a" x="100.703423" y="134.407676" style="fill: #625aff; stroke: #625aff"/>
     <use xlink:href="#m4ee88d805a" x="108.074405" y="122.776538" style="fill: #625aff; stroke: #625aff"/>
     <use xlink:href="#m4ee88d805a" x="115.610412" y="109.458809" style="fill: #625aff; stroke: #625aff"/>
     <use xlink:href="#m4ee88d805a" x="122.737601" y="95.656292" style="fill: #625aff; stroke: #625aff"/>
     <use xlink:href="#m4ee88d805a" x="130.0007" y="79.16352" style="fill: #625aff; stroke: #625aff"/>
     <use xlink:href="#m4ee88d805a" x="136.951968" y="63.870004" style="fill: #625aff; stroke: #625aff"/>
     <use xlink:href="#m4ee88d805a" x="143.926044" y="46.434708" style="fill: #625aff; stroke: #625aff"/>
     <use xlink:href="#m4ee88d805a" x="150.926213" y="26.056926" style="fill: #625aff; stroke: #625aff"/>
     <use xlink:href="#m4ee88d805a" x="157.704557" y="8.276148" style="fill: #625aff; stroke: #625aff"/>
     <use xlink:href="#m4ee88d805a" x="160.75289" y="-1" style="fill: #625aff; stroke: #625aff"/>
    </g>
   </g>
   <g id="line2d_19">
    <path d="M 44.828698 158.205989 
L 53.221417 159.258092 
L 61.396678 159.877075 
L 69.440796 159.556412 
L 77.415128 160.642154 
L 85.275435 160.678805 
L 93.036167 161.845499 
L 100.703423 161.832216 
L 108.074405 162.082671 
L 115.610412 161.920822 
L 122.737601 161.242048 
L 130.0007 160.204241 
L 136.951968 159.753513 
L 143.926044 158.492496 
L 150.926213 156.519381 
L 157.704557 155.249982 
L 164.498216 153.966908 
L 170.994366 150.189769 
L 177.331524 148.98972 
L 184.0864 146.10342 
L 189.991182 142.614331 
L 196.575438 133.772939 
L 202.680283 114.905319 
L 208.882277 46.725726 
" clip-path="url(#paf79684fc0)" style="fill: none; stroke: #0f7a10; stroke-width: 0.75; stroke-linecap: square"/>
    <defs>
     <path id="m0192331620" d="M 0 2 
C 0.530406 2 1.03916 1.789267 1.414214 1.414214 
C 1.789267 1.03916 2 0.530406 2 0 
C 2 -0.530406 1.789267 -1.03916 1.414214 -1.414214 
C 1.03916 -1.789267 0.530406 -2 0 -2 
C -0.530406 -2 -1.03916 -1.789267 -1.414214 -1.414214 
C -1.789267 -1.03916 -2 -0.530406 -2 0 
C -2 0.530406 -1.789267 1.03916 -1.414214 1.414214 
C -1.03916 1.789267 -0.530406 2 0 2 
z
" style="stroke: #0f7a10"/>
    </defs>
    <g clip-path="url(#paf79684fc0)">
     <use xlink:href="#m0192331620" x="44.828698" y="158.205989" style="fill: #0f7a10; stroke: #0f7a10"/>
     <use xlink:href="#m0192331620" x="53.221417" y="159.258092" style="fill: #0f7a10; stroke: #0f7a10"/>
     <use xlink:href="#m0192331620" x="61.396678" y="159.877075" style="fill: #0f7a10; stroke: #0f7a10"/>
     <use xlink:href="#m0192331620" x="69.440796" y="159.556412" style="fill: #0f7a10; stroke: #0f7a10"/>
     <use xlink:href="#m0192331620" x="77.415128" y="160.642154" style="fill: #0f7a10; stroke: #0f7a10"/>
     <use xlink:href="#m0192331620" x="85.275435" y="160.678805" style="fill: #0f7a10; stroke: #0f7a10"/>
     <use xlink:href="#m0192331620" x="93.036167" y="161.845499" style="fill: #0f7a10; stroke: #0f7a10"/>
     <use xlink:href="#m0192331620" x="100.703423" y="161.832216" style="fill: #0f7a10; stroke: #0f7a10"/>
     <use xlink:href="#m0192331620" x="108.074405" y="162.082671" style="fill: #0f7a10; stroke: #0f7a10"/>
     <use xlink:href="#m0192331620" x="115.610412" y="161.920822" style="fill: #0f7a10; stroke: #0f7a10"/>
     <use xlink:href="#m0192331620" x="122.737601" y="161.242048" style="fill: #0f7a10; stroke: #0f7a10"/>
     <use xlink:href="#m0192331620" x="130.0007" y="160.204241" style="fill: #0f7a10; stroke: #0f7a10"/>
     <use xlink:href="#m0192331620" x="136.951968" y="159.753513" style="fill: #0f7a10; stroke: #0f7a10"/>
     <use xlink:href="#m0192331620" x="143.926044" y="158.492496" style="fill: #0f7a10; stroke: #0f7a10"/>
     <use xlink:href="#m0192331620" x="150.926213" y="156.519381" style="fill: #0f7a10; stroke: #0f7a10"/>
     <use xlink:href="#m0192331620" x="157.704557" y="155.249982" style="fill: #0f7a10; stroke: #0f7a10"/>
     <use xlink:href="#m0192331620" x="164.498216" y="153.966908" style="fill: #0f7a10; stroke: #0f7a10"/>
     <use xlink:href="#m0192331620" x="170.994366" y="150.189769" style="fill: #0f7a10; stroke: #0f7a10"/>
     <use xlink:href="#m0192331620" x="177.331524" y="148.98972" style="fill: #0f7a10; stroke: #0f7a10"/>
     <use xlink:href="#m0192331620" x="184.0864" y="146.10342" style="fill: #0f7a10; stroke: #0f7a10"/>
     <use xlink:href="#m0192331620" x="189.991182" y="142.614331" style="fill: #0f7a10; stroke: #0f7a10"/>
     <use xlink:href="#m0192331620" x="196.575438" y="133.772939" style="fill: #0f7a10; stroke: #0f7a10"/>
     <use xlink:href="#m0192331620" x="202.680283" y="114.905319" style="fill: #0f7a10; stroke: #0f7a10"/>
     <use xlink:href="#m0192331620" x="208.882277" y="46.725726" style="fill: #0f7a10; stroke: #0f7a10"/>
    </g>
   </g>
   <g id="line2d_20">
    <path d="M 44.828698 179.461315 
L 53.221417 179.425518 
L 61.396678 179.335263 
L 69.440796 179.346555 
L 77.415128 179.232356 
L 85.275435 178.384574 
L 93.036167 177.885036 
L 100.703423 176.532348 
L 108.074405 174.231087 
L 115.610412 169.656465 
L 122.737601 153.972417 
L 125.871692 -1 
" clip-path="url(#paf79684fc0)" style="fill: none; stroke: #0f7a10; stroke-width: 0.75; stroke-linecap: square"/>
    <g clip-path="url(#paf79684fc0)">
     <use xlink:href="#m0192331620" x="44.828698" y="179.461315" style="fill: #0f7a10; stroke: #0f7a10"/>
     <use xlink:href="#m0192331620" x="53.221417" y="179.425518" style="fill: #0f7a10; stroke: #0f7a10"/>
     <use xlink:href="#m0192331620" x="61.396678" y="179.335263" style="fill: #0f7a10; stroke: #0f7a10"/>
     <use xlink:href="#m0192331620" x="69.440796" y="179.346555" style="fill: #0f7a10; stroke: #0f7a10"/>
     <use xlink:href="#m0192331620" x="77.415128" y="179.232356" style="fill: #0f7a10; stroke: #0f7a10"/>
     <use xlink:href="#m0192331620" x="85.275435" y="178.384574" style="fill: #0f7a10; stroke: #0f7a10"/>
     <use xlink:href="#m0192331620" x="93.036167" y="177.885036" style="fill: #0f7a10; stroke: #0f7a10"/>
     <use xlink:href="#m0192331620" x="100.703423" y="176.532348" style="fill: #0f7a10; stroke: #0f7a10"/>
     <use xlink:href="#m0192331620" x="108.074405" y="174.231087" style="fill: #0f7a10; stroke: #0f7a10"/>
     <use xlink:href="#m0192331620" x="115.610412" y="169.656465" style="fill: #0f7a10; stroke: #0f7a10"/>
     <use xlink:href="#m0192331620" x="122.737601" y="153.972417" style="fill: #0f7a10; stroke: #0f7a10"/>
     <use xlink:href="#m0192331620" x="125.871692" y="-1" style="fill: #0f7a10; stroke: #0f7a10"/>
    </g>
   </g>
   <g id="line2d_21">
    <path d="M 44.828698 178.807171 
L 53.221417 178.378074 
L 61.396678 179.473583 
L 69.440796 176.64772 
L 77.415128 177.44566 
L 85.275435 177.819224 
L 93.036167 177.049835 
L 100.703423 172.437978 
L 108.074405 172.809972 
L 115.610412 173.075514 
L 122.737601 172.933446 
L 130.0007 172.63481 
L 136.951968 172.329929 
L 143.926044 171.813502 
L 150.926213 153.812747 
L 157.704557 153.270591 
L 164.498216 152.897409 
L 170.994366 152.503919 
L 177.331524 152.532796 
L 184.0864 152.879413 
L 189.991182 153.024622 
L 196.575438 153.77259 
L 202.680283 153.985672 
L 208.882277 154.496454 
L 214.689644 155.003196 
L 220.785309 155.60132 
L 226.340541 156.08748 
L 232.077496 156.390485 
L 237.707742 157.169152 
L 243.688726 157.449563 
L 248.616488 158.232681 
L 254.052724 131.118829 
L 259.59421 118.862114 
L 265.18123 120.083604 
L 270.692438 120.667535 
" clip-path="url(#paf79684fc0)" style="fill: none; stroke: #aa0000; stroke-width: 0.75; stroke-linecap: square"/>
    <defs>
     <path id="m7a6d339c0f" d="M 0 2 
C 0.530406 2 1.03916 1.789267 1.414214 1.414214 
C 1.789267 1.03916 2 0.530406 2 0 
C 2 -0.530406 1.789267 -1.03916 1.414214 -1.414214 
C 1.03916 -1.789267 0.530406 -2 0 -2 
C -0.530406 -2 -1.03916 -1.789267 -1.414214 -1.414214 
C -1.789267 -1.03916 -2 -0.530406 -2 0 
C -2 0.530406 -1.789267 1.03916 -1.414214 1.414214 
C -1.03916 1.789267 -0.530406 2 0 2 
z
" style="stroke: #aa0000"/>
    </defs>
    <g clip-path="url(#paf79684fc0)">
     <use xlink:href="#m7a6d339c0f" x="44.828698" y="178.807171" style="fill: #aa0000; stroke: #aa0000"/>
     <use xlink:href="#m7a6d339c0f" x="53.221417" y="178.378074" style="fill: #aa0000; stroke: #aa0000"/>
     <use xlink:href="#m7a6d339c0f" x="61.396678" y="179.473583" style="fill: #aa0000; stroke: #aa0000"/>
     <use xlink:href="#m7a6d339c0f" x="69.440796" y="176.64772" style="fill: #aa0000; stroke: #aa0000"/>
     <use xlink:href="#m7a6d339c0f" x="77.415128" y="177.44566" style="fill: #aa0000; stroke: #aa0000"/>
     <use xlink:href="#m7a6d339c0f" x="85.275435" y="177.819224" style="fill: #aa0000; stroke: #aa0000"/>
     <use xlink:href="#m7a6d339c0f" x="93.036167" y="177.049835" style="fill: #aa0000; stroke: #aa0000"/>
     <use xlink:href="#m7a6d339c0f" x="100.703423" y="172.437978" style="fill: #aa0000; stroke: #aa0000"/>
     <use xlink:href="#m7a6d339c0f" x="108.074405" y="172.809972" style="fill: #aa0000; stroke: #aa0000"/>
     <use xlink:href="#m7a6d339c0f" x="115.610412" y="173.075514" style="fill: #aa0000; stroke: #aa0000"/>
     <use xlink:href="#m7a6d339c0f" x="122.737601" y="172.933446" style="fill: #aa0000; stroke: #aa0000"/>
     <use xlink:href="#m7a6d339c0f" x="130.0007" y="172.63481" style="fill: #aa0000; stroke: #aa0000"/>
     <use xlink:href="#m7a6d339c0f" x="136.951968" y="172.329929" style="fill: #aa0000; stroke: #aa0000"/>
     <use xlink:href="#m7a6d339c0f" x="143.926044" y="171.813502" style="fill: #aa0000; stroke: #aa0000"/>
     <use xlink:href="#m7a6d339c0f" x="150.926213" y="153.812747" style="fill: #aa0000; stroke: #aa0000"/>
     <use xlink:href="#m7a6d339c0f" x="157.704557" y="153.270591" style="fill: #aa0000; stroke: #aa0000"/>
     <use xlink:href="#m7a6d339c0f" x="164.498216" y="152.897409" style="fill: #aa0000; stroke: #aa0000"/>
     <use xlink:href="#m7a6d339c0f" x="170.994366" y="152.503919" style="fill: #aa0000; stroke: #aa0000"/>
     <use xlink:href="#m7a6d339c0f" x="177.331524" y="152.532796" style="fill: #aa0000; stroke: #aa0000"/>
     <use xlink:href="#m7a6d339c0f" x="184.0864" y="152.879413" style="fill: #aa0000; stroke: #aa0000"/>
     <use xlink:href="#m7a6d339c0f" x="189.991182" y="153.024622" style="fill: #aa0000; stroke: #aa0000"/>
     <use xlink:href="#m7a6d339c0f" x="196.575438" y="153.77259" style="fill: #aa0000; stroke: #aa0000"/>
     <use xlink:href="#m7a6d339c0f" x="202.680283" y="153.985672" style="fill: #aa0000; stroke: #aa0000"/>
     <use xlink:href="#m7a6d339c0f" x="208.882277" y="154.496454" style="fill: #aa0000; stroke: #aa0000"/>
     <use xlink:href="#m7a6d339c0f" x="214.689644" y="155.003196" style="fill: #aa0000; stroke: #aa0000"/>
     <use xlink:href="#m7a6d339c0f" x="220.785309" y="155.60132" style="fill: #aa0000; stroke: #aa0000"/>
     <use xlink:href="#m7a6d339c0f" x="226.340541" y="156.08748" style="fill: #aa0000; stroke: #aa0000"/>
     <use xlink:href="#m7a6d339c0f" x="232.077496" y="156.390485" style="fill: #aa0000; stroke: #aa0000"/>
     <use xlink:href="#m7a6d339c0f" x="237.707742" y="157.169152" style="fill: #aa0000; stroke: #aa0000"/>
     <use xlink:href="#m7a6d339c0f" x="243.688726" y="157.449563" style="fill: #aa0000; stroke: #aa0000"/>
     <use xlink:href="#m7a6d339c0f" x="248.616488" y="158.232681" style="fill: #aa0000; stroke: #aa0000"/>
     <use xlink:href="#m7a6d339c0f" x="254.052724" y="131.118829" style="fill: #aa0000; stroke: #aa0000"/>
     <use xlink:href="#m7a6d339c0f" x="259.59421" y="118.862114" style="fill: #aa0000; stroke: #aa0000"/>
     <use xlink:href="#m7a6d339c0f" x="265.18123" y="120.083604" style="fill: #aa0000; stroke: #aa0000"/>
     <use xlink:href="#m7a6d339c0f" x="270.692438" y="120.667535" style="fill: #aa0000; stroke: #aa0000"/>
    </g>
   </g>
   <g id="line2d_22">
    <path d="M 44.828698 179.43999 
L 53.221417 179.871134 
L 61.396678 179.958006 
L 69.440796 180.037402 
L 77.415128 180.005667 
L 85.275435 179.984465 
L 93.036167 180.03659 
L 100.703423 179.913392 
L 108.074405 178.933005 
L 115.610412 178.401851 
L 122.737601 176.643107 
L 130.0007 174.701451 
L 136.951968 175.712802 
L 143.926044 173.343487 
L 150.926213 174.028923 
L 157.704557 169.631122 
L 164.498216 170.327833 
L 170.994366 171.260223 
L 177.331524 161.44302 
L 184.0864 163.482307 
L 189.991182 164.287696 
L 196.575438 165.776152 
L 202.680283 152.271155 
L 208.882277 152.90245 
L 214.689644 153.779965 
L 220.785309 154.505896 
L 226.340541 154.994659 
L 232.077496 155.901192 
L 237.707742 156.547285 
L 243.688726 157.154073 
L 248.616488 157.915466 
L 254.052724 144.553142 
L 259.59421 138.261093 
L 265.18123 139.688585 
L 270.692438 140.265365 
" clip-path="url(#paf79684fc0)" style="fill: none; stroke: #00aaaa; stroke-width: 0.75; stroke-linecap: square"/>
    <defs>
     <path id="m97cb891e92" d="M 0 2 
C 0.530406 2 1.03916 1.789267 1.414214 1.414214 
C 1.789267 1.03916 2 0.530406 2 0 
C 2 -0.530406 1.789267 -1.03916 1.414214 -1.414214 
C 1.03916 -1.789267 0.530406 -2 0 -2 
C -0.530406 -2 -1.03916 -1.789267 -1.414214 -1.414214 
C -1.789267 -1.03916 -2 -0.530406 -2 0 
C -2 0.530406 -1.789267 1.03916 -1.414214 1.414214 
C -1.03916 1.789267 -0.530406 2 0 2 
z
" style="stroke: #00aaaa"/>
    </defs>
    <g clip-path="url(#paf79684fc0)">
     <use xlink:href="#m97cb891e92" x="44.828698" y="179.43999" style="fill: #00aaaa; stroke: #00aaaa"/>
     <use xlink:href="#m97cb891e92" x="53.221417" y="179.871134" style="fill: #00aaaa; stroke: #00aaaa"/>
     <use xlink:href="#m97cb891e92" x="61.396678" y="179.958006" style="fill: #00aaaa; stroke: #00aaaa"/>
     <use xlink:href="#m97cb891e92" x="69.440796" y="180.037402" style="fill: #00aaaa; stroke: #00aaaa"/>
     <use xlink:href="#m97cb891e92" x="77.415128" y="180.005667" style="fill: #00aaaa; stroke: #00aaaa"/>
     <use xlink:href="#m97cb891e92" x="85.275435" y="179.984465" style="fill: #00aaaa; stroke: #00aaaa"/>
     <use xlink:href="#m97cb891e92" x="93.036167" y="180.03659" style="fill: #00aaaa; stroke: #00aaaa"/>
     <use xlink:href="#m97cb891e92" x="100.703423" y="179.913392" style="fill: #00aaaa; stroke: #00aaaa"/>
     <use xlink:href="#m97cb891e92" x="108.074405" y="178.933005" style="fill: #00aaaa; stroke: #00aaaa"/>
     <use xlink:href="#m97cb891e92" x="115.610412" y="178.401851" style="fill: #00aaaa; stroke: #00aaaa"/>
     <use xlink:href="#m97cb891e92" x="122.737601" y="176.643107" style="fill: #00aaaa; stroke: #00aaaa"/>
     <use xlink:href="#m97cb891e92" x="130.0007" y="174.701451" style="fill: #00aaaa; stroke: #00aaaa"/>
     <use xlink:href="#m97cb891e92" x="136.951968" y="175.712802" style="fill: #00aaaa; stroke: #00aaaa"/>
     <use xlink:href="#m97cb891e92" x="143.926044" y="173.343487" style="fill: #00aaaa; stroke: #00aaaa"/>
     <use xlink:href="#m97cb891e92" x="150.926213" y="174.028923" style="fill: #00aaaa; stroke: #00aaaa"/>
     <use xlink:href="#m97cb891e92" x="157.704557" y="169.631122" style="fill: #00aaaa; stroke: #00aaaa"/>
     <use xlink:href="#m97cb891e92" x="164.498216" y="170.327833" style="fill: #00aaaa; stroke: #00aaaa"/>
     <use xlink:href="#m97cb891e92" x="170.994366" y="171.260223" style="fill: #00aaaa; stroke: #00aaaa"/>
     <use xlink:href="#m97cb891e92" x="177.331524" y="161.44302" style="fill: #00aaaa; stroke: #00aaaa"/>
     <use xlink:href="#m97cb891e92" x="184.0864" y="163.482307" style="fill: #00aaaa; stroke: #00aaaa"/>
     <use xlink:href="#m97cb891e92" x="189.991182" y="164.287696" style="fill: #00aaaa; stroke: #00aaaa"/>
     <use xlink:href="#m97cb891e92" x="196.575438" y="165.776152" style="fill: #00aaaa; stroke: #00aaaa"/>
     <use xlink:href="#m97cb891e92" x="202.680283" y="152.271155" style="fill: #00aaaa; stroke: #00aaaa"/>
     <use xlink:href="#m97cb891e92" x="208.882277" y="152.90245" style="fill: #00aaaa; stroke: #00aaaa"/>
     <use xlink:href="#m97cb891e92" x="214.689644" y="153.779965" style="fill: #00aaaa; stroke: #00aaaa"/>
     <use xlink:href="#m97cb891e92" x="220.785309" y="154.505896" style="fill: #00aaaa; stroke: #00aaaa"/>
     <use xlink:href="#m97cb891e92" x="226.340541" y="154.994659" style="fill: #00aaaa; stroke: #00aaaa"/>
     <use xlink:href="#m97cb891e92" x="232.077496" y="155.901192" style="fill: #00aaaa; stroke: #00aaaa"/>
     <use xlink:href="#m97cb891e92" x="237.707742" y="156.547285" style="fill: #00aaaa; stroke: #00aaaa"/>
     <use xlink:href="#m97cb891e92" x="243.688726" y="157.154073" style="fill: #00aaaa; stroke: #00aaaa"/>
     <use xlink:href="#m97cb891e92" x="248.616488" y="157.915466" style="fill: #00aaaa; stroke: #00aaaa"/>
     <use xlink:href="#m97cb891e92" x="254.052724" y="144.553142" style="fill: #00aaaa; stroke: #00aaaa"/>
     <use xlink:href="#m97cb891e92" x="259.59421" y="138.261093" style="fill: #00aaaa; stroke: #00aaaa"/>
     <use xlink:href="#m97cb891e92" x="265.18123" y="139.688585" style="fill: #00aaaa; stroke: #00aaaa"/>
     <use xlink:href="#m97cb891e92" x="270.692438" y="140.265365" style="fill: #00aaaa; stroke: #00aaaa"/>
    </g>
   </g>
   <g id="patch_3">
    <path d="M 36.465625 183.3661 
L 36.465625 17.0461 
" style="fill: none; stroke: #000000; stroke-width: 0.8; stroke-linejoin: miter; stroke-linecap: square"/>
   </g>
   <g id="patch_4">
    <path d="M 36.465625 183.3661 
L 281.985625 183.3661 
" style="fill: none; stroke: #000000; stroke-width: 0.8; stroke-linejoin: miter; stroke-linecap: square"/>
   </g>
   <g id="text_13">
    <!-- Edlib -->
    <g style="fill: #de4aff" transform="translate(246.135375 14.798259) rotate(-359.60779) scale(0.1 -0.1)">
     <defs>
      <path id="DejaVuSans-45" d="M 628 4666 
L 3578 4666 
L 3578 4134 
L 1259 4134 
L 1259 2753 
L 3481 2753 
L 3481 2222 
L 1259 2222 
L 1259 531 
L 3634 531 
L 3634 0 
L 628 0 
L 628 4666 
z
" transform="scale(0.015625)"/>
      <path id="DejaVuSans-64" d="M 2906 2969 
L 2906 4863 
L 3481 4863 
L 3481 0 
L 2906 0 
L 2906 525 
Q 2725 213 2448 61 
Q 2172 -91 1784 -91 
Q 1150 -91 751 415 
Q 353 922 353 1747 
Q 353 2572 751 3078 
Q 1150 3584 1784 3584 
Q 2172 3584 2448 3432 
Q 2725 3281 2906 2969 
z
M 947 1747 
Q 947 1113 1208 752 
Q 1469 391 1925 391 
Q 2381 391 2643 752 
Q 2906 1113 2906 1747 
Q 2906 2381 2643 2742 
Q 2381 3103 1925 3103 
Q 1469 3103 1208 2742 
Q 947 2381 947 1747 
z
" transform="scale(0.015625)"/>
      <path id="DejaVuSans-62" d="M 3116 1747 
Q 3116 2381 2855 2742 
Q 2594 3103 2138 3103 
Q 1681 3103 1420 2742 
Q 1159 2381 1159 1747 
Q 1159 1113 1420 752 
Q 1681 391 2138 391 
Q 2594 391 2855 752 
Q 3116 1113 3116 1747 
z
M 1159 2969 
Q 1341 3281 1617 3432 
Q 1894 3584 2278 3584 
Q 2916 3584 3314 3078 
Q 3713 2572 3713 1747 
Q 3713 922 3314 415 
Q 2916 -91 2278 -91 
Q 1894 -91 1617 61 
Q 1341 213 1159 525 
L 1159 0 
L 581 0 
L 581 4863 
L 1159 4863 
L 1159 2969 
z
" transform="scale(0.015625)"/>
     </defs>
     <use xlink:href="#DejaVuSans-45"/>
     <use xlink:href="#DejaVuSans-64" x="63.183594"/>
     <use xlink:href="#DejaVuSans-6c" x="126.660156"/>
     <use xlink:href="#DejaVuSans-69" x="154.443359"/>
     <use xlink:href="#DejaVuSans-62" x="182.226562"/>
    </g>
   </g>
   <g id="text_14">
    <!-- BiWFA -->
    <g style="fill: #625aff" transform="translate(246.069481 47.285528) rotate(-79.024004) scale(0.1 -0.1)">
     <defs>
      <path id="DejaVuSans-42" d="M 1259 2228 
L 1259 519 
L 2272 519 
Q 2781 519 3026 730 
Q 3272 941 3272 1375 
Q 3272 1813 3026 2020 
Q 2781 2228 2272 2228 
L 1259 2228 
z
M 1259 4147 
L 1259 2741 
L 2194 2741 
Q 2656 2741 2882 2914 
Q 3109 3088 3109 3444 
Q 3109 3797 2882 3972 
Q 2656 4147 2194 4147 
L 1259 4147 
z
M 628 4666 
L 2241 4666 
Q 2963 4666 3353 4366 
Q 3744 4066 3744 3513 
Q 3744 3084 3544 2831 
Q 3344 2578 2956 2516 
Q 3422 2416 3680 2098 
Q 3938 1781 3938 1306 
Q 3938 681 3513 340 
Q 3088 0 2303 0 
L 628 0 
L 628 4666 
z
" transform="scale(0.015625)"/>
      <path id="DejaVuSans-57" d="M 213 4666 
L 850 4666 
L 1831 722 
L 2809 4666 
L 3519 4666 
L 4500 722 
L 5478 4666 
L 6119 4666 
L 4947 0 
L 4153 0 
L 3169 4050 
L 2175 0 
L 1381 0 
L 213 4666 
z
" transform="scale(0.015625)"/>
      <path id="DejaVuSans-46" d="M 628 4666 
L 3309 4666 
L 3309 4134 
L 1259 4134 
L 1259 2759 
L 3109 2759 
L 3109 2228 
L 1259 2228 
L 1259 0 
L 628 0 
L 628 4666 
z
" transform="scale(0.015625)"/>
     </defs>
     <use xlink:href="#DejaVuSans-42"/>
     <use xlink:href="#DejaVuSans-69" x="68.603516"/>
     <use xlink:href="#DejaVuSans-57" x="96.386719"/>
     <use xlink:href="#DejaVuSans-46" x="195.263672"/>
     <use xlink:href="#DejaVuSans-41" x="243.658203"/>
    </g>
   </g>
   <g id="text_15">
    <!-- A*PA (r=2) -->
    <g style="fill: #0f7a10" transform="translate(199.276566 99.811578) rotate(-81.952789) scale(0.1 -0.1)">
     <defs>
      <path id="DejaVuSans-2a" d="M 3009 3897 
L 1888 3291 
L 3009 2681 
L 2828 2375 
L 1778 3009 
L 1778 1831 
L 1422 1831 
L 1422 3009 
L 372 2375 
L 191 2681 
L 1313 3291 
L 191 3897 
L 372 4206 
L 1422 3572 
L 1422 4750 
L 1778 4750 
L 1778 3572 
L 2828 4206 
L 3009 3897 
z
" transform="scale(0.015625)"/>
      <path id="DejaVuSans-50" d="M 1259 4147 
L 1259 2394 
L 2053 2394 
Q 2494 2394 2734 2622 
Q 2975 2850 2975 3272 
Q 2975 3691 2734 3919 
Q 2494 4147 2053 4147 
L 1259 4147 
z
M 628 4666 
L 2053 4666 
Q 2838 4666 3239 4311 
Q 3641 3956 3641 3272 
Q 3641 2581 3239 2228 
Q 2838 1875 2053 1875 
L 1259 1875 
L 1259 0 
L 628 0 
L 628 4666 
z
" transform="scale(0.015625)"/>
      <path id="DejaVuSans-28" d="M 1984 4856 
Q 1566 4138 1362 3434 
Q 1159 2731 1159 2009 
Q 1159 1288 1364 580 
Q 1569 -128 1984 -844 
L 1484 -844 
Q 1016 -109 783 600 
Q 550 1309 550 2009 
Q 550 2706 781 3412 
Q 1013 4119 1484 4856 
L 1984 4856 
z
" transform="scale(0.015625)"/>
      <path id="DejaVuSans-3d" d="M 678 2906 
L 4684 2906 
L 4684 2381 
L 678 2381 
L 678 2906 
z
M 678 1631 
L 4684 1631 
L 4684 1100 
L 678 1100 
L 678 1631 
z
" transform="scale(0.015625)"/>
      <path id="DejaVuSans-29" d="M 513 4856 
L 1013 4856 
Q 1481 4119 1714 3412 
Q 1947 2706 1947 2009 
Q 1947 1309 1714 600 
Q 1481 -109 1013 -844 
L 513 -844 
Q 928 -128 1133 580 
Q 1338 1288 1338 2009 
Q 1338 2731 1133 3434 
Q 928 4138 513 4856 
z
" transform="scale(0.015625)"/>
     </defs>
     <use xlink:href="#DejaVuSans-41"/>
     <use xlink:href="#DejaVuSans-2a" x="68.408203"/>
     <use xlink:href="#DejaVuSans-50" x="118.408203"/>
     <use xlink:href="#DejaVuSans-41" x="172.335938"/>
     <use xlink:href="#DejaVuSans-20" x="240.744141"/>
     <use xlink:href="#DejaVuSans-28" x="272.53125"/>
     <use xlink:href="#DejaVuSans-72" x="311.544922"/>
     <use xlink:href="#DejaVuSans-3d" x="352.658203"/>
     <use xlink:href="#DejaVuSans-32" x="436.447266"/>
     <use xlink:href="#DejaVuSans-29" x="500.070312"/>
    </g>
   </g>
   <g id="text_16">
    <!-- A*PA (r=1) (r=1) -->
    <g style="fill: #0f7a10" transform="translate(124.709878 100.646856) rotate(-87.801379) scale(0.1 -0.1)">
     <use xlink:href="#DejaVuSans-41"/>
     <use xlink:href="#DejaVuSans-2a" x="68.408203"/>
     <use xlink:href="#DejaVuSans-50" x="118.408203"/>
     <use xlink:href="#DejaVuSans-41" x="172.335938"/>
     <use xlink:href="#DejaVuSans-20" x="240.744141"/>
     <use xlink:href="#DejaVuSans-28" x="272.53125"/>
     <use xlink:href="#DejaVuSans-72" x="311.544922"/>
     <use xlink:href="#DejaVuSans-3d" x="352.658203"/>
     <use xlink:href="#DejaVuSans-31" x="436.447266"/>
     <use xlink:href="#DejaVuSans-29" x="500.070312"/>
     <use xlink:href="#DejaVuSans-20" x="539.083984"/>
     <use xlink:href="#DejaVuSans-28" x="570.871094"/>
     <use xlink:href="#DejaVuSans-72" x="609.884766"/>
     <use xlink:href="#DejaVuSans-3d" x="650.998047"/>
     <use xlink:href="#DejaVuSans-31" x="734.787109"/>
     <use xlink:href="#DejaVuSans-29" x="798.410156"/>
    </g>
   </g>
   <g id="text_17">
    <!-- A*PA2 simple -->
    <g style="fill: #aa0000" transform="translate(205.2689 107.917634) rotate(-350.760259) scale(0.1 -0.1)">
     <use xlink:href="#DejaVuSans-41"/>
     <use xlink:href="#DejaVuSans-2a" x="68.408203"/>
     <use xlink:href="#DejaVuSans-50" x="118.408203"/>
     <use xlink:href="#DejaVuSans-41" x="172.335938"/>
     <use xlink:href="#DejaVuSans-32" x="240.744141"/>
     <use xlink:href="#DejaVuSans-20" x="304.367188"/>
     <use xlink:href="#DejaVuSans-73" x="336.154297"/>
     <use xlink:href="#DejaVuSans-69" x="388.253906"/>
     <use xlink:href="#DejaVuSans-6d" x="416.037109"/>
     <use xlink:href="#DejaVuSans-70" x="513.449219"/>
     <use xlink:href="#DejaVuSans-6c" x="576.925781"/>
     <use xlink:href="#DejaVuSans-65" x="604.708984"/>
    </g>
   </g>
   <g id="text_18">
    <!-- A*PA2 full -->
    <g style="fill: #00aaaa" transform="translate(222.814379 129.50555) rotate(-349.763069) scale(0.1 -0.1)">
     <defs>
      <path id="DejaVuSans-66" d="M 2375 4863 
L 2375 4384 
L 1825 4384 
Q 1516 4384 1395 4259 
Q 1275 4134 1275 3809 
L 1275 3500 
L 2222 3500 
L 2222 3053 
L 1275 3053 
L 1275 0 
L 697 0 
L 697 3053 
L 147 3053 
L 147 3500 
L 697 3500 
L 697 3744 
Q 697 4328 969 4595 
Q 1241 4863 1831 4863 
L 2375 4863 
z
" transform="scale(0.015625)"/>
     </defs>
     <use xlink:href="#DejaVuSans-41"/>
     <use xlink:href="#DejaVuSans-2a" x="68.408203"/>
     <use xlink:href="#DejaVuSans-50" x="118.408203"/>
     <use xlink:href="#DejaVuSans-41" x="172.335938"/>
     <use xlink:href="#DejaVuSans-32" x="240.744141"/>
     <use xlink:href="#DejaVuSans-20" x="304.367188"/>
     <use xlink:href="#DejaVuSans-66" x="336.154297"/>
     <use xlink:href="#DejaVuSans-75" x="371.359375"/>
     <use xlink:href="#DejaVuSans-6c" x="434.738281"/>
     <use xlink:href="#DejaVuSans-6c" x="462.521484"/>
    </g>
   </g>
  </g>
 </g>
 <defs>
  <clipPath id="paf79684fc0">
   <rect x="36.465625" y="17.0461" width="245.52" height="166.32"/>
  </clipPath>
 </defs>
</svg>
