<?xml version="1.0" encoding="utf-8" standalone="no"?>
<!DOCTYPE svg PUBLIC "-//W3C//DTD SVG 1.1//EN"
  "http://www.w3.org/Graphics/SVG/1.1/DTD/svg11.dtd">
<svg xmlns:xlink="http://www.w3.org/1999/xlink" width="672.378125pt" height="309.354375pt" viewBox="0 0 672.378125 309.354375" xmlns="http://www.w3.org/2000/svg" version="1.1">
 <metadata>
  <rdf:RDF xmlns:dc="http://purl.org/dc/elements/1.1/" xmlns:cc="http://creativecommons.org/ns#" xmlns:rdf="http://www.w3.org/1999/02/22-rdf-syntax-ns#">
   <cc:Work>
    <dc:type rdf:resource="http://purl.org/dc/dcmitype/StillImage"/>
    <dc:date>2025-03-13T23:14:44.591121</dc:date>
    <dc:format>image/svg+xml</dc:format>
    <dc:creator>
     <cc:Agent>
      <dc:title>Matplotlib v3.10.0, https://matplotlib.org/</dc:title>
     </cc:Agent>
    </dc:creator>
   </cc:Work>
  </rdf:RDF>
 </metadata>
 <defs>
  <style type="text/css">*{stroke-linejoin: round; stroke-linecap: butt}</style>
 </defs>
 <g id="figure_1">
  <g id="patch_1">
   <path d="M 0 309.354375 
L 672.378125 309.354375 
L 672.378125 0 
L 0 0 
z
" style="fill: #ffffff"/>
  </g>
  <g id="axes_1">
   <g id="patch_2">
    <path d="M 51.378125 271.798125 
L 665.178125 271.798125 
L 665.178125 22.318125 
L 51.378125 22.318125 
z
" style="fill: #ffffff"/>
   </g>
   <g id="PathCollection_1">
    <path d="M 337.084341 226.721005 
C 337.677353 226.721005 338.246157 226.485399 338.66548 226.066076 
C 339.084803 225.646753 339.320409 225.077949 339.320409 224.484937 
C 339.320409 223.891925 339.084803 223.323121 338.66548 222.903798 
C 338.246157 222.484476 337.677353 222.248869 337.084341 222.248869 
C 336.491329 222.248869 335.922525 222.484476 335.503202 222.903798 
C 335.083879 223.323121 334.848273 223.891925 334.848273 224.484937 
C 334.848273 225.077949 335.083879 225.646753 335.503202 226.066076 
C 335.922525 226.485399 336.491329 226.721005 337.084341 226.721005 
z
" clip-path="url(#p2e3f583d66)" style="fill: #add8e6; stroke: #ffffff; stroke-width: 0.357771"/>
    <path d="M 214.290667 161.284563 
C 215.476691 161.284563 216.614299 160.81335 217.452945 159.974704 
C 218.29159 159.136059 218.762803 157.998451 218.762803 156.812427 
C 218.762803 155.626402 218.29159 154.488795 217.452945 153.650149 
C 216.614299 152.811503 215.476691 152.340291 214.290667 152.340291 
C 213.104643 152.340291 211.967035 152.811503 211.128389 153.650149 
C 210.289743 154.488795 209.818531 155.626402 209.818531 156.812427 
C 209.818531 157.998451 210.289743 159.136059 211.128389 159.974704 
C 211.967035 160.81335 213.104643 161.284563 214.290667 161.284563 
z
" clip-path="url(#p2e3f583d66)" style="fill: #add8e6; stroke: #ffffff; stroke-width: 0.357771"/>
    <path d="M 79.278125 141.564115 
C 80.902156 141.564115 82.459889 140.918881 83.608252 139.770518 
C 84.756615 138.622155 85.401849 137.064421 85.401849 135.440391 
C 85.401849 133.81636 84.756615 132.258627 83.608252 131.110264 
C 82.459889 129.961901 80.902156 129.316666 79.278125 129.316666 
C 77.654094 129.316666 76.096361 129.961901 74.947998 131.110264 
C 73.799635 132.258627 73.154401 133.81636 73.154401 135.440391 
C 73.154401 137.064421 73.799635 138.622155 74.947998 139.770518 
C 76.096361 140.918881 77.654094 141.564115 79.278125 141.564115 
z
" clip-path="url(#p2e3f583d66)" style="fill: #add8e6; stroke: #ffffff; stroke-width: 0.357771"/>
    <path d="M 385.731778 217.496156 
C 386.32479 217.496156 386.893594 217.26055 387.312916 216.841227 
C 387.732239 216.421904 387.967846 215.8531 387.967846 215.260088 
C 387.967846 214.667076 387.732239 214.098272 387.312916 213.678949 
C 386.893594 213.259626 386.32479 213.02402 385.731778 213.02402 
C 385.138765 213.02402 384.569962 213.259626 384.150639 213.678949 
C 383.731316 214.098272 383.49571 214.667076 383.49571 215.260088 
C 383.49571 215.8531 383.731316 216.421904 384.150639 216.841227 
C 384.569962 217.26055 385.138765 217.496156 385.731778 217.496156 
z
" clip-path="url(#p2e3f583d66)" style="fill: #ffc0cb; stroke: #ffffff; stroke-width: 0.357771"/>
    <path d="M 256.706881 121.364261 
C 257.892905 121.364261 259.030513 120.893049 259.869158 120.054403 
C 260.707804 119.215757 261.179017 118.07815 261.179017 116.892125 
C 261.179017 115.706101 260.707804 114.568494 259.869158 113.729848 
C 259.030513 112.891202 257.892905 112.419989 256.706881 112.419989 
C 255.520856 112.419989 254.383249 112.891202 253.544603 113.729848 
C 252.705957 114.568494 252.234745 115.706101 252.234745 116.892125 
C 252.234745 118.07815 252.705957 119.215757 253.544603 120.054403 
C 254.383249 120.893049 255.520856 121.364261 256.706881 121.364261 
z
" clip-path="url(#p2e3f583d66)" style="fill: #ffc0cb; stroke: #ffffff; stroke-width: 0.357771"/>
    <path d="M 126.09583 54.174051 
C 127.719861 54.174051 129.277594 53.528816 130.425957 52.380453 
C 131.57432 51.23209 132.219554 49.674357 132.219554 48.050326 
C 132.219554 46.426295 131.57432 44.868562 130.425957 43.720199 
C 129.277594 42.571836 127.719861 41.926602 126.09583 41.926602 
C 124.471799 41.926602 122.914066 42.571836 121.765703 43.720199 
C 120.61734 44.868562 119.972106 46.426295 119.972106 48.050326 
C 119.972106 49.674357 120.61734 51.23209 121.765703 52.380453 
C 122.914066 53.528816 124.471799 54.174051 126.09583 54.174051 
z
" clip-path="url(#p2e3f583d66)" style="fill: #ffc0cb; stroke: #ffffff; stroke-width: 0.357771"/>
    <path d="M 379.239852 258.222057 
L 378.737824 259.767142 
L 377.113225 259.767142 
L 378.427553 260.722057 
L 377.925524 262.267142 
L 379.239852 261.312227 
L 380.55418 262.267142 
L 380.052151 260.722057 
L 381.366479 259.767142 
L 379.741881 259.767142 
z
" clip-path="url(#p2e3f583d66)" style="fill: #0000ff; stroke: #ffffff; stroke-width: 0.357771"/>
    <path d="M 384.050153 213.268443 
L 383.548125 214.813528 
L 381.923526 214.813527 
L 383.237854 215.768443 
L 382.735826 217.313527 
L 384.050153 216.358612 
L 385.364481 217.313527 
L 384.862453 215.768443 
L 386.17678 214.813527 
L 384.552182 214.813528 
z
" clip-path="url(#p2e3f583d66)" style="fill: #0000ff; stroke: #ffffff; stroke-width: 0.357771"/>
    <path d="M 386.601653 213.146406 
L 386.099625 214.691491 
L 384.475026 214.691491 
L 385.789354 215.646406 
L 385.287326 217.191491 
L 386.601653 216.236576 
L 387.915981 217.191491 
L 387.413953 215.646406 
L 388.72828 214.691491 
L 387.103682 214.691491 
z
" clip-path="url(#p2e3f583d66)" style="fill: #0000ff; stroke: #ffffff; stroke-width: 0.357771"/>
    <path d="M 381.598738 170.47718 
L 380.594681 173.56735 
L 377.345484 173.56735 
L 379.97414 175.47718 
L 378.970083 178.56735 
L 381.598738 176.65752 
L 384.227394 178.56735 
L 383.223337 175.47718 
L 385.851992 173.56735 
L 382.602795 173.56735 
z
" clip-path="url(#p2e3f583d66)" style="fill: #0000ff; stroke: #ffffff; stroke-width: 0.357771"/>
    <path d="M 372.654496 119.187834 
L 371.650439 122.278004 
L 368.401242 122.278004 
L 371.029898 124.187834 
L 370.025841 127.278004 
L 372.654496 125.368174 
L 375.283152 127.278004 
L 374.279095 124.187834 
L 376.90775 122.278004 
L 373.658553 122.278004 
z
" clip-path="url(#p2e3f583d66)" style="fill: #0000ff; stroke: #ffffff; stroke-width: 0.357771"/>
    <path d="M 363.019606 119.187834 
L 362.015549 122.278004 
L 358.766352 122.278004 
L 361.395007 124.187834 
L 360.39095 127.278004 
L 363.019606 125.368174 
L 365.648261 127.278004 
L 364.644204 124.187834 
L 367.27286 122.278004 
L 364.023663 122.278004 
z
" clip-path="url(#p2e3f583d66)" style="fill: #0000ff; stroke: #ffffff; stroke-width: 0.357771"/>
    <path d="M 359.546319 90.908279 
L 358.171458 95.139668 
L 353.722311 95.139668 
L 357.321746 97.754811 
L 355.946884 101.9862 
L 359.546319 99.371058 
L 363.145754 101.9862 
L 361.770892 97.754811 
L 365.370327 95.139668 
L 360.921181 95.139668 
z
" clip-path="url(#p2e3f583d66)" style="fill: #0000ff; stroke: #ffffff; stroke-width: 0.357771"/>
    <path d="M 329.33067 35.332989 
L 327.955808 39.564379 
L 323.506662 39.564379 
L 327.106097 42.179521 
L 325.731235 46.410911 
L 329.33067 43.795768 
L 332.930104 46.410911 
L 331.555243 42.179521 
L 335.154678 39.564379 
L 330.705531 39.564379 
z
" clip-path="url(#p2e3f583d66)" style="fill: #0000ff; stroke: #ffffff; stroke-width: 0.357771"/>
    <path d="M 262.78298 35.332989 
L 261.408118 39.564379 
L 256.958972 39.564379 
L 260.558407 42.179521 
L 259.183545 46.410911 
L 262.78298 43.795768 
L 266.382415 46.410911 
L 265.007553 42.179521 
L 268.606988 39.564379 
L 264.157842 39.564379 
z
" clip-path="url(#p2e3f583d66)" style="fill: #0000ff; stroke: #ffffff; stroke-width: 0.357771"/>
    <path d="M 385.112607 220.843031 
L 384.610578 222.388116 
L 382.98598 222.388116 
L 384.300307 223.343031 
L 383.798279 224.888116 
L 385.112607 223.9332 
L 386.426934 224.888116 
L 385.924906 223.343031 
L 387.239234 222.388116 
L 385.614635 222.388116 
z
" clip-path="url(#p2e3f583d66)" style="stroke: #ffffff; stroke-width: 0.357771"/>
    <path d="M 362.43699 142.67527 
L 361.432933 145.76544 
L 358.183736 145.76544 
L 360.812392 147.67527 
L 359.808334 150.76544 
L 362.43699 148.855609 
L 365.065646 150.76544 
L 364.061588 147.67527 
L 366.690244 145.76544 
L 363.441047 145.76544 
z
" clip-path="url(#p2e3f583d66)" style="stroke: #ffffff; stroke-width: 0.357771"/>
    <path d="M 254.802932 64.981538 
L 253.42807 69.212928 
L 248.978924 69.212928 
L 252.578359 71.82807 
L 251.203497 76.05946 
L 254.802932 73.444317 
L 258.402367 76.05946 
L 257.027505 71.82807 
L 260.62694 69.212928 
L 256.177794 69.212928 
z
" clip-path="url(#p2e3f583d66)" style="stroke: #ffffff; stroke-width: 0.357771"/>
    <path d="M 637.278125 246.425007 
L 636.776096 247.970092 
L 635.151498 247.970092 
L 636.465826 248.925007 
L 635.963797 250.470092 
L 637.278125 249.515177 
L 638.592453 250.470092 
L 638.090424 248.925007 
L 639.404752 247.970092 
L 637.780154 247.970092 
z
" clip-path="url(#p2e3f583d66)" style="fill: #ff0000; stroke: #ffffff; stroke-width: 0.357771"/>
    <path d="M 586.619899 210.107935 
L 586.11787 211.65302 
L 584.493272 211.65302 
L 585.807599 212.607935 
L 585.305571 214.15302 
L 586.619899 213.198105 
L 587.934226 214.15302 
L 587.432198 212.607935 
L 588.746526 211.65302 
L 587.121927 211.65302 
z
" clip-path="url(#p2e3f583d66)" style="fill: #ff0000; stroke: #ffffff; stroke-width: 0.357771"/>
    <path d="M 581.042465 209.976525 
L 580.540436 211.52161 
L 578.915838 211.52161 
L 580.230165 212.476525 
L 579.728137 214.02161 
L 581.042465 213.066695 
L 582.356792 214.02161 
L 581.854764 212.476525 
L 583.169092 211.52161 
L 581.544493 211.52161 
z
" clip-path="url(#p2e3f583d66)" style="fill: #ff0000; stroke: #ffffff; stroke-width: 0.357771"/>
    <path d="M 593.967614 171.717088 
L 592.963557 174.807258 
L 589.71436 174.807258 
L 592.343016 176.717088 
L 591.338959 179.807258 
L 593.967614 177.897428 
L 596.59627 179.807258 
L 595.592213 176.717088 
L 598.220868 174.807258 
L 594.971671 174.807258 
z
" clip-path="url(#p2e3f583d66)" style="fill: #ff0000; stroke: #ffffff; stroke-width: 0.357771"/>
    <path d="M 482.845473 132.523838 
L 481.841416 135.614008 
L 478.592219 135.614008 
L 481.220874 137.523838 
L 480.216817 140.614008 
L 482.845473 138.704178 
L 485.474128 140.614008 
L 484.470071 137.523838 
L 487.098727 135.614008 
L 483.84953 135.614008 
z
" clip-path="url(#p2e3f583d66)" style="fill: #ff0000; stroke: #ffffff; stroke-width: 0.357771"/>
    <path d="M 456.964642 133.280916 
L 455.960585 136.371086 
L 452.711388 136.371086 
L 455.340044 138.280916 
L 454.335987 141.371086 
L 456.964642 139.461256 
L 459.593298 141.371086 
L 458.589241 138.280916 
L 461.217896 136.371086 
L 457.968699 136.371086 
z
" clip-path="url(#p2e3f583d66)" style="fill: #ff0000; stroke: #ffffff; stroke-width: 0.357771"/>
    <path d="M 502.310857 94.630087 
L 500.935995 98.861477 
L 496.486849 98.861477 
L 500.086284 101.476619 
L 498.711422 105.708009 
L 502.310857 103.092866 
L 505.910292 105.708009 
L 504.53543 101.476619 
L 508.134865 98.861477 
L 503.685719 98.861477 
z
" clip-path="url(#p2e3f583d66)" style="fill: #ff0000; stroke: #ffffff; stroke-width: 0.357771"/>
    <path d="M 361.173844 35.332989 
L 359.798983 39.564379 
L 355.349836 39.564379 
L 358.949271 42.179521 
L 357.574409 46.410911 
L 361.173844 43.795768 
L 364.773279 46.410911 
L 363.398417 42.179521 
L 366.997852 39.564379 
L 362.548706 39.564379 
z
" clip-path="url(#p2e3f583d66)" style="fill: #ff0000; stroke: #ffffff; stroke-width: 0.357771"/>
    <path d="M 302.479203 35.332989 
L 301.104341 39.564379 
L 296.655195 39.564379 
L 300.25463 42.179521 
L 298.879768 46.410911 
L 302.479203 43.795768 
L 306.078637 46.410911 
L 304.703776 42.179521 
L 308.303211 39.564379 
L 303.854064 39.564379 
z
" clip-path="url(#p2e3f583d66)" style="fill: #ff0000; stroke: #ffffff; stroke-width: 0.357771"/>
    <path d="M 466.287245 56.235606 
L 464.699692 61.121594 
L 459.56226 61.121594 
L 463.71853 64.1413 
L 462.130976 69.027288 
L 466.287245 66.007582 
L 470.443515 69.027288 
L 468.855961 64.1413 
L 473.01223 61.121594 
L 467.874799 61.121594 
z
" clip-path="url(#p2e3f583d66)" style="fill: #ff0000; stroke: #ffffff; stroke-width: 0.357771"/>
    <path d="M 424.573806 25.752431 
L 422.798868 31.215131 
L 417.055045 31.215131 
L 421.701895 34.591266 
L 419.926956 40.053966 
L 424.573806 36.677831 
L 429.220657 40.053966 
L 427.445718 34.591266 
L 432.092568 31.215131 
L 426.348745 31.215131 
z
" clip-path="url(#p2e3f583d66)" style="fill: #ff0000; stroke: #ffffff; stroke-width: 0.357771"/>
   </g>
   <g id="matplotlib.axis_1">
    <g id="xtick_1">
     <g id="line2d_1">
      <defs>
       <path id="m4f6603c6ab" d="M 0 0 
L 0 3.5 
" style="stroke: #000000; stroke-width: 0.8"/>
      </defs>
      <g>
       <use xlink:href="#m4f6603c6ab" x="52.951586" y="271.798125" style="stroke: #000000; stroke-width: 0.8"/>
      </g>
     </g>
     <g id="text_1">
      <!-- $\mathdefault{10^{-2}}$ -->
      <g transform="translate(41.201586 286.396562) scale(0.1 -0.1)">
       <defs>
        <path id="DejaVuSans-31" d="M 794 531 
L 1825 531 
L 1825 4091 
L 703 3866 
L 703 4441 
L 1819 4666 
L 2450 4666 
L 2450 531 
L 3481 531 
L 3481 0 
L 794 0 
L 794 531 
z
" transform="scale(0.015625)"/>
        <path id="DejaVuSans-30" d="M 2034 4250 
Q 1547 4250 1301 3770 
Q 1056 3291 1056 2328 
Q 1056 1369 1301 889 
Q 1547 409 2034 409 
Q 2525 409 2770 889 
Q 3016 1369 3016 2328 
Q 3016 3291 2770 3770 
Q 2525 4250 2034 4250 
z
M 2034 4750 
Q 2819 4750 3233 4129 
Q 3647 3509 3647 2328 
Q 3647 1150 3233 529 
Q 2819 -91 2034 -91 
Q 1250 -91 836 529 
Q 422 1150 422 2328 
Q 422 3509 836 4129 
Q 1250 4750 2034 4750 
z
" transform="scale(0.015625)"/>
        <path id="DejaVuSans-2212" d="M 678 2272 
L 4684 2272 
L 4684 1741 
L 678 1741 
L 678 2272 
z
" transform="scale(0.015625)"/>
        <path id="DejaVuSans-32" d="M 1228 531 
L 3431 531 
L 3431 0 
L 469 0 
L 469 531 
Q 828 903 1448 1529 
Q 2069 2156 2228 2338 
Q 2531 2678 2651 2914 
Q 2772 3150 2772 3378 
Q 2772 3750 2511 3984 
Q 2250 4219 1831 4219 
Q 1534 4219 1204 4116 
Q 875 4013 500 3803 
L 500 4441 
Q 881 4594 1212 4672 
Q 1544 4750 1819 4750 
Q 2544 4750 2975 4387 
Q 3406 4025 3406 3419 
Q 3406 3131 3298 2873 
Q 3191 2616 2906 2266 
Q 2828 2175 2409 1742 
Q 1991 1309 1228 531 
z
" transform="scale(0.015625)"/>
       </defs>
       <use xlink:href="#DejaVuSans-31" transform="translate(0 0.765625)"/>
       <use xlink:href="#DejaVuSans-30" transform="translate(63.623047 0.765625)"/>
       <use xlink:href="#DejaVuSans-2212" transform="translate(128.203125 39.046875) scale(0.7)"/>
       <use xlink:href="#DejaVuSans-32" transform="translate(186.855469 39.046875) scale(0.7)"/>
      </g>
     </g>
    </g>
    <g id="xtick_2">
     <g id="line2d_2">
      <g>
       <use xlink:href="#m4f6603c6ab" x="196.870224" y="271.798125" style="stroke: #000000; stroke-width: 0.8"/>
      </g>
     </g>
     <g id="text_2">
      <!-- $\mathdefault{10^{-1}}$ -->
      <g transform="translate(185.120224 286.396562) scale(0.1 -0.1)">
       <use xlink:href="#DejaVuSans-31" transform="translate(0 0.684375)"/>
       <use xlink:href="#DejaVuSans-30" transform="translate(63.623047 0.684375)"/>
       <use xlink:href="#DejaVuSans-2212" transform="translate(128.203125 38.965625) scale(0.7)"/>
       <use xlink:href="#DejaVuSans-31" transform="translate(186.855469 38.965625) scale(0.7)"/>
      </g>
     </g>
    </g>
    <g id="xtick_3">
     <g id="line2d_3">
      <g>
       <use xlink:href="#m4f6603c6ab" x="340.788861" y="271.798125" style="stroke: #000000; stroke-width: 0.8"/>
      </g>
     </g>
     <g id="text_3">
      <!-- $\mathdefault{10^{0}}$ -->
      <g transform="translate(331.988861 286.396562) scale(0.1 -0.1)">
       <use xlink:href="#DejaVuSans-31" transform="translate(0 0.765625)"/>
       <use xlink:href="#DejaVuSans-30" transform="translate(63.623047 0.765625)"/>
       <use xlink:href="#DejaVuSans-30" transform="translate(128.203125 39.046875) scale(0.7)"/>
      </g>
     </g>
    </g>
    <g id="xtick_4">
     <g id="line2d_4">
      <g>
       <use xlink:href="#m4f6603c6ab" x="484.707498" y="271.798125" style="stroke: #000000; stroke-width: 0.8"/>
      </g>
     </g>
     <g id="text_4">
      <!-- $\mathdefault{10^{1}}$ -->
      <g transform="translate(475.907498 286.396562) scale(0.1 -0.1)">
       <use xlink:href="#DejaVuSans-31" transform="translate(0 0.684375)"/>
       <use xlink:href="#DejaVuSans-30" transform="translate(63.623047 0.684375)"/>
       <use xlink:href="#DejaVuSans-31" transform="translate(128.203125 38.965625) scale(0.7)"/>
      </g>
     </g>
    </g>
    <g id="xtick_5">
     <g id="line2d_5">
      <g>
       <use xlink:href="#m4f6603c6ab" x="628.626136" y="271.798125" style="stroke: #000000; stroke-width: 0.8"/>
      </g>
     </g>
     <g id="text_5">
      <!-- $\mathdefault{10^{2}}$ -->
      <g transform="translate(619.826136 286.396562) scale(0.1 -0.1)">
       <use xlink:href="#DejaVuSans-31" transform="translate(0 0.765625)"/>
       <use xlink:href="#DejaVuSans-30" transform="translate(63.623047 0.765625)"/>
       <use xlink:href="#DejaVuSans-32" transform="translate(128.203125 39.046875) scale(0.7)"/>
      </g>
     </g>
    </g>
    <g id="xtick_6">
     <g id="line2d_6">
      <defs>
       <path id="mf85db5080f" d="M 0 0 
L 0 2 
" style="stroke: #000000; stroke-width: 0.6"/>
      </defs>
      <g>
       <use xlink:href="#mf85db5080f" x="96.275413" y="271.798125" style="stroke: #000000; stroke-width: 0.6"/>
      </g>
     </g>
    </g>
    <g id="xtick_7">
     <g id="line2d_7">
      <g>
       <use xlink:href="#mf85db5080f" x="121.618227" y="271.798125" style="stroke: #000000; stroke-width: 0.6"/>
      </g>
     </g>
    </g>
    <g id="xtick_8">
     <g id="line2d_8">
      <g>
       <use xlink:href="#mf85db5080f" x="139.59924" y="271.798125" style="stroke: #000000; stroke-width: 0.6"/>
      </g>
     </g>
    </g>
    <g id="xtick_9">
     <g id="line2d_9">
      <g>
       <use xlink:href="#mf85db5080f" x="153.546397" y="271.798125" style="stroke: #000000; stroke-width: 0.6"/>
      </g>
     </g>
    </g>
    <g id="xtick_10">
     <g id="line2d_10">
      <g>
       <use xlink:href="#mf85db5080f" x="164.942054" y="271.798125" style="stroke: #000000; stroke-width: 0.6"/>
      </g>
     </g>
    </g>
    <g id="xtick_11">
     <g id="line2d_11">
      <g>
       <use xlink:href="#mf85db5080f" x="174.576945" y="271.798125" style="stroke: #000000; stroke-width: 0.6"/>
      </g>
     </g>
    </g>
    <g id="xtick_12">
     <g id="line2d_12">
      <g>
       <use xlink:href="#mf85db5080f" x="182.923067" y="271.798125" style="stroke: #000000; stroke-width: 0.6"/>
      </g>
     </g>
    </g>
    <g id="xtick_13">
     <g id="line2d_13">
      <g>
       <use xlink:href="#mf85db5080f" x="190.284868" y="271.798125" style="stroke: #000000; stroke-width: 0.6"/>
      </g>
     </g>
    </g>
    <g id="xtick_14">
     <g id="line2d_14">
      <g>
       <use xlink:href="#mf85db5080f" x="240.19405" y="271.798125" style="stroke: #000000; stroke-width: 0.6"/>
      </g>
     </g>
    </g>
    <g id="xtick_15">
     <g id="line2d_15">
      <g>
       <use xlink:href="#mf85db5080f" x="265.536864" y="271.798125" style="stroke: #000000; stroke-width: 0.6"/>
      </g>
     </g>
    </g>
    <g id="xtick_16">
     <g id="line2d_16">
      <g>
       <use xlink:href="#mf85db5080f" x="283.517877" y="271.798125" style="stroke: #000000; stroke-width: 0.6"/>
      </g>
     </g>
    </g>
    <g id="xtick_17">
     <g id="line2d_17">
      <g>
       <use xlink:href="#mf85db5080f" x="297.465034" y="271.798125" style="stroke: #000000; stroke-width: 0.6"/>
      </g>
     </g>
    </g>
    <g id="xtick_18">
     <g id="line2d_18">
      <g>
       <use xlink:href="#mf85db5080f" x="308.860691" y="271.798125" style="stroke: #000000; stroke-width: 0.6"/>
      </g>
     </g>
    </g>
    <g id="xtick_19">
     <g id="line2d_19">
      <g>
       <use xlink:href="#mf85db5080f" x="318.495582" y="271.798125" style="stroke: #000000; stroke-width: 0.6"/>
      </g>
     </g>
    </g>
    <g id="xtick_20">
     <g id="line2d_20">
      <g>
       <use xlink:href="#mf85db5080f" x="326.841704" y="271.798125" style="stroke: #000000; stroke-width: 0.6"/>
      </g>
     </g>
    </g>
    <g id="xtick_21">
     <g id="line2d_21">
      <g>
       <use xlink:href="#mf85db5080f" x="334.203505" y="271.798125" style="stroke: #000000; stroke-width: 0.6"/>
      </g>
     </g>
    </g>
    <g id="xtick_22">
     <g id="line2d_22">
      <g>
       <use xlink:href="#mf85db5080f" x="384.112688" y="271.798125" style="stroke: #000000; stroke-width: 0.6"/>
      </g>
     </g>
    </g>
    <g id="xtick_23">
     <g id="line2d_23">
      <g>
       <use xlink:href="#mf85db5080f" x="409.455502" y="271.798125" style="stroke: #000000; stroke-width: 0.6"/>
      </g>
     </g>
    </g>
    <g id="xtick_24">
     <g id="line2d_24">
      <g>
       <use xlink:href="#mf85db5080f" x="427.436515" y="271.798125" style="stroke: #000000; stroke-width: 0.6"/>
      </g>
     </g>
    </g>
    <g id="xtick_25">
     <g id="line2d_25">
      <g>
       <use xlink:href="#mf85db5080f" x="441.383672" y="271.798125" style="stroke: #000000; stroke-width: 0.6"/>
      </g>
     </g>
    </g>
    <g id="xtick_26">
     <g id="line2d_26">
      <g>
       <use xlink:href="#mf85db5080f" x="452.779329" y="271.798125" style="stroke: #000000; stroke-width: 0.6"/>
      </g>
     </g>
    </g>
    <g id="xtick_27">
     <g id="line2d_27">
      <g>
       <use xlink:href="#mf85db5080f" x="462.414219" y="271.798125" style="stroke: #000000; stroke-width: 0.6"/>
      </g>
     </g>
    </g>
    <g id="xtick_28">
     <g id="line2d_28">
      <g>
       <use xlink:href="#mf85db5080f" x="470.760341" y="271.798125" style="stroke: #000000; stroke-width: 0.6"/>
      </g>
     </g>
    </g>
    <g id="xtick_29">
     <g id="line2d_29">
      <g>
       <use xlink:href="#mf85db5080f" x="478.122143" y="271.798125" style="stroke: #000000; stroke-width: 0.6"/>
      </g>
     </g>
    </g>
    <g id="xtick_30">
     <g id="line2d_30">
      <g>
       <use xlink:href="#mf85db5080f" x="528.031325" y="271.798125" style="stroke: #000000; stroke-width: 0.6"/>
      </g>
     </g>
    </g>
    <g id="xtick_31">
     <g id="line2d_31">
      <g>
       <use xlink:href="#mf85db5080f" x="553.374139" y="271.798125" style="stroke: #000000; stroke-width: 0.6"/>
      </g>
     </g>
    </g>
    <g id="xtick_32">
     <g id="line2d_32">
      <g>
       <use xlink:href="#mf85db5080f" x="571.355152" y="271.798125" style="stroke: #000000; stroke-width: 0.6"/>
      </g>
     </g>
    </g>
    <g id="xtick_33">
     <g id="line2d_33">
      <g>
       <use xlink:href="#mf85db5080f" x="585.302309" y="271.798125" style="stroke: #000000; stroke-width: 0.6"/>
      </g>
     </g>
    </g>
    <g id="xtick_34">
     <g id="line2d_34">
      <g>
       <use xlink:href="#mf85db5080f" x="596.697966" y="271.798125" style="stroke: #000000; stroke-width: 0.6"/>
      </g>
     </g>
    </g>
    <g id="xtick_35">
     <g id="line2d_35">
      <g>
       <use xlink:href="#mf85db5080f" x="606.332857" y="271.798125" style="stroke: #000000; stroke-width: 0.6"/>
      </g>
     </g>
    </g>
    <g id="xtick_36">
     <g id="line2d_36">
      <g>
       <use xlink:href="#mf85db5080f" x="614.678979" y="271.798125" style="stroke: #000000; stroke-width: 0.6"/>
      </g>
     </g>
    </g>
    <g id="xtick_37">
     <g id="line2d_37">
      <g>
       <use xlink:href="#mf85db5080f" x="622.04078" y="271.798125" style="stroke: #000000; stroke-width: 0.6"/>
      </g>
     </g>
    </g>
    <g id="text_6">
     <!-- Comparison throughput (M/s) -->
     <g transform="translate(284.7125 300.074687) scale(0.1 -0.1)">
      <defs>
       <path id="DejaVuSans-43" d="M 4122 4306 
L 4122 3641 
Q 3803 3938 3442 4084 
Q 3081 4231 2675 4231 
Q 1875 4231 1450 3742 
Q 1025 3253 1025 2328 
Q 1025 1406 1450 917 
Q 1875 428 2675 428 
Q 3081 428 3442 575 
Q 3803 722 4122 1019 
L 4122 359 
Q 3791 134 3420 21 
Q 3050 -91 2638 -91 
Q 1578 -91 968 557 
Q 359 1206 359 2328 
Q 359 3453 968 4101 
Q 1578 4750 2638 4750 
Q 3056 4750 3426 4639 
Q 3797 4528 4122 4306 
z
" transform="scale(0.015625)"/>
       <path id="DejaVuSans-6f" d="M 1959 3097 
Q 1497 3097 1228 2736 
Q 959 2375 959 1747 
Q 959 1119 1226 758 
Q 1494 397 1959 397 
Q 2419 397 2687 759 
Q 2956 1122 2956 1747 
Q 2956 2369 2687 2733 
Q 2419 3097 1959 3097 
z
M 1959 3584 
Q 2709 3584 3137 3096 
Q 3566 2609 3566 1747 
Q 3566 888 3137 398 
Q 2709 -91 1959 -91 
Q 1206 -91 779 398 
Q 353 888 353 1747 
Q 353 2609 779 3096 
Q 1206 3584 1959 3584 
z
" transform="scale(0.015625)"/>
       <path id="DejaVuSans-6d" d="M 3328 2828 
Q 3544 3216 3844 3400 
Q 4144 3584 4550 3584 
Q 5097 3584 5394 3201 
Q 5691 2819 5691 2113 
L 5691 0 
L 5113 0 
L 5113 2094 
Q 5113 2597 4934 2840 
Q 4756 3084 4391 3084 
Q 3944 3084 3684 2787 
Q 3425 2491 3425 1978 
L 3425 0 
L 2847 0 
L 2847 2094 
Q 2847 2600 2669 2842 
Q 2491 3084 2119 3084 
Q 1678 3084 1418 2786 
Q 1159 2488 1159 1978 
L 1159 0 
L 581 0 
L 581 3500 
L 1159 3500 
L 1159 2956 
Q 1356 3278 1631 3431 
Q 1906 3584 2284 3584 
Q 2666 3584 2933 3390 
Q 3200 3197 3328 2828 
z
" transform="scale(0.015625)"/>
       <path id="DejaVuSans-70" d="M 1159 525 
L 1159 -1331 
L 581 -1331 
L 581 3500 
L 1159 3500 
L 1159 2969 
Q 1341 3281 1617 3432 
Q 1894 3584 2278 3584 
Q 2916 3584 3314 3078 
Q 3713 2572 3713 1747 
Q 3713 922 3314 415 
Q 2916 -91 2278 -91 
Q 1894 -91 1617 61 
Q 1341 213 1159 525 
z
M 3116 1747 
Q 3116 2381 2855 2742 
Q 2594 3103 2138 3103 
Q 1681 3103 1420 2742 
Q 1159 2381 1159 1747 
Q 1159 1113 1420 752 
Q 1681 391 2138 391 
Q 2594 391 2855 752 
Q 3116 1113 3116 1747 
z
" transform="scale(0.015625)"/>
       <path id="DejaVuSans-61" d="M 2194 1759 
Q 1497 1759 1228 1600 
Q 959 1441 959 1056 
Q 959 750 1161 570 
Q 1363 391 1709 391 
Q 2188 391 2477 730 
Q 2766 1069 2766 1631 
L 2766 1759 
L 2194 1759 
z
M 3341 1997 
L 3341 0 
L 2766 0 
L 2766 531 
Q 2569 213 2275 61 
Q 1981 -91 1556 -91 
Q 1019 -91 701 211 
Q 384 513 384 1019 
Q 384 1609 779 1909 
Q 1175 2209 1959 2209 
L 2766 2209 
L 2766 2266 
Q 2766 2663 2505 2880 
Q 2244 3097 1772 3097 
Q 1472 3097 1187 3025 
Q 903 2953 641 2809 
L 641 3341 
Q 956 3463 1253 3523 
Q 1550 3584 1831 3584 
Q 2591 3584 2966 3190 
Q 3341 2797 3341 1997 
z
" transform="scale(0.015625)"/>
       <path id="DejaVuSans-72" d="M 2631 2963 
Q 2534 3019 2420 3045 
Q 2306 3072 2169 3072 
Q 1681 3072 1420 2755 
Q 1159 2438 1159 1844 
L 1159 0 
L 581 0 
L 581 3500 
L 1159 3500 
L 1159 2956 
Q 1341 3275 1631 3429 
Q 1922 3584 2338 3584 
Q 2397 3584 2469 3576 
Q 2541 3569 2628 3553 
L 2631 2963 
z
" transform="scale(0.015625)"/>
       <path id="DejaVuSans-69" d="M 603 3500 
L 1178 3500 
L 1178 0 
L 603 0 
L 603 3500 
z
M 603 4863 
L 1178 4863 
L 1178 4134 
L 603 4134 
L 603 4863 
z
" transform="scale(0.015625)"/>
       <path id="DejaVuSans-73" d="M 2834 3397 
L 2834 2853 
Q 2591 2978 2328 3040 
Q 2066 3103 1784 3103 
Q 1356 3103 1142 2972 
Q 928 2841 928 2578 
Q 928 2378 1081 2264 
Q 1234 2150 1697 2047 
L 1894 2003 
Q 2506 1872 2764 1633 
Q 3022 1394 3022 966 
Q 3022 478 2636 193 
Q 2250 -91 1575 -91 
Q 1294 -91 989 -36 
Q 684 19 347 128 
L 347 722 
Q 666 556 975 473 
Q 1284 391 1588 391 
Q 1994 391 2212 530 
Q 2431 669 2431 922 
Q 2431 1156 2273 1281 
Q 2116 1406 1581 1522 
L 1381 1569 
Q 847 1681 609 1914 
Q 372 2147 372 2553 
Q 372 3047 722 3315 
Q 1072 3584 1716 3584 
Q 2034 3584 2315 3537 
Q 2597 3491 2834 3397 
z
" transform="scale(0.015625)"/>
       <path id="DejaVuSans-6e" d="M 3513 2113 
L 3513 0 
L 2938 0 
L 2938 2094 
Q 2938 2591 2744 2837 
Q 2550 3084 2163 3084 
Q 1697 3084 1428 2787 
Q 1159 2491 1159 1978 
L 1159 0 
L 581 0 
L 581 3500 
L 1159 3500 
L 1159 2956 
Q 1366 3272 1645 3428 
Q 1925 3584 2291 3584 
Q 2894 3584 3203 3211 
Q 3513 2838 3513 2113 
z
" transform="scale(0.015625)"/>
       <path id="DejaVuSans-20" transform="scale(0.015625)"/>
       <path id="DejaVuSans-74" d="M 1172 4494 
L 1172 3500 
L 2356 3500 
L 2356 3053 
L 1172 3053 
L 1172 1153 
Q 1172 725 1289 603 
Q 1406 481 1766 481 
L 2356 481 
L 2356 0 
L 1766 0 
Q 1100 0 847 248 
Q 594 497 594 1153 
L 594 3053 
L 172 3053 
L 172 3500 
L 594 3500 
L 594 4494 
L 1172 4494 
z
" transform="scale(0.015625)"/>
       <path id="DejaVuSans-68" d="M 3513 2113 
L 3513 0 
L 2938 0 
L 2938 2094 
Q 2938 2591 2744 2837 
Q 2550 3084 2163 3084 
Q 1697 3084 1428 2787 
Q 1159 2491 1159 1978 
L 1159 0 
L 581 0 
L 581 4863 
L 1159 4863 
L 1159 2956 
Q 1366 3272 1645 3428 
Q 1925 3584 2291 3584 
Q 2894 3584 3203 3211 
Q 3513 2838 3513 2113 
z
" transform="scale(0.015625)"/>
       <path id="DejaVuSans-75" d="M 544 1381 
L 544 3500 
L 1119 3500 
L 1119 1403 
Q 1119 906 1312 657 
Q 1506 409 1894 409 
Q 2359 409 2629 706 
Q 2900 1003 2900 1516 
L 2900 3500 
L 3475 3500 
L 3475 0 
L 2900 0 
L 2900 538 
Q 2691 219 2414 64 
Q 2138 -91 1772 -91 
Q 1169 -91 856 284 
Q 544 659 544 1381 
z
M 1991 3584 
L 1991 3584 
z
" transform="scale(0.015625)"/>
       <path id="DejaVuSans-67" d="M 2906 1791 
Q 2906 2416 2648 2759 
Q 2391 3103 1925 3103 
Q 1463 3103 1205 2759 
Q 947 2416 947 1791 
Q 947 1169 1205 825 
Q 1463 481 1925 481 
Q 2391 481 2648 825 
Q 2906 1169 2906 1791 
z
M 3481 434 
Q 3481 -459 3084 -895 
Q 2688 -1331 1869 -1331 
Q 1566 -1331 1297 -1286 
Q 1028 -1241 775 -1147 
L 775 -588 
Q 1028 -725 1275 -790 
Q 1522 -856 1778 -856 
Q 2344 -856 2625 -561 
Q 2906 -266 2906 331 
L 2906 616 
Q 2728 306 2450 153 
Q 2172 0 1784 0 
Q 1141 0 747 490 
Q 353 981 353 1791 
Q 353 2603 747 3093 
Q 1141 3584 1784 3584 
Q 2172 3584 2450 3431 
Q 2728 3278 2906 2969 
L 2906 3500 
L 3481 3500 
L 3481 434 
z
" transform="scale(0.015625)"/>
       <path id="DejaVuSans-28" d="M 1984 4856 
Q 1566 4138 1362 3434 
Q 1159 2731 1159 2009 
Q 1159 1288 1364 580 
Q 1569 -128 1984 -844 
L 1484 -844 
Q 1016 -109 783 600 
Q 550 1309 550 2009 
Q 550 2706 781 3412 
Q 1013 4119 1484 4856 
L 1984 4856 
z
" transform="scale(0.015625)"/>
       <path id="DejaVuSans-4d" d="M 628 4666 
L 1569 4666 
L 2759 1491 
L 3956 4666 
L 4897 4666 
L 4897 0 
L 4281 0 
L 4281 4097 
L 3078 897 
L 2444 897 
L 1241 4097 
L 1241 0 
L 628 0 
L 628 4666 
z
" transform="scale(0.015625)"/>
       <path id="DejaVuSans-2f" d="M 1625 4666 
L 2156 4666 
L 531 -594 
L 0 -594 
L 1625 4666 
z
" transform="scale(0.015625)"/>
       <path id="DejaVuSans-29" d="M 513 4856 
L 1013 4856 
Q 1481 4119 1714 3412 
Q 1947 2706 1947 2009 
Q 1947 1309 1714 600 
Q 1481 -109 1013 -844 
L 513 -844 
Q 928 -128 1133 580 
Q 1338 1288 1338 2009 
Q 1338 2731 1133 3434 
Q 928 4138 513 4856 
z
" transform="scale(0.015625)"/>
      </defs>
      <use xlink:href="#DejaVuSans-43"/>
      <use xlink:href="#DejaVuSans-6f" transform="translate(69.824219 0)"/>
      <use xlink:href="#DejaVuSans-6d" transform="translate(131.005859 0)"/>
      <use xlink:href="#DejaVuSans-70" transform="translate(228.417969 0)"/>
      <use xlink:href="#DejaVuSans-61" transform="translate(291.894531 0)"/>
      <use xlink:href="#DejaVuSans-72" transform="translate(353.173828 0)"/>
      <use xlink:href="#DejaVuSans-69" transform="translate(394.287109 0)"/>
      <use xlink:href="#DejaVuSans-73" transform="translate(422.070312 0)"/>
      <use xlink:href="#DejaVuSans-6f" transform="translate(474.169922 0)"/>
      <use xlink:href="#DejaVuSans-6e" transform="translate(535.351562 0)"/>
      <use xlink:href="#DejaVuSans-20" transform="translate(598.730469 0)"/>
      <use xlink:href="#DejaVuSans-74" transform="translate(630.517578 0)"/>
      <use xlink:href="#DejaVuSans-68" transform="translate(669.726562 0)"/>
      <use xlink:href="#DejaVuSans-72" transform="translate(733.105469 0)"/>
      <use xlink:href="#DejaVuSans-6f" transform="translate(771.96875 0)"/>
      <use xlink:href="#DejaVuSans-75" transform="translate(833.150391 0)"/>
      <use xlink:href="#DejaVuSans-67" transform="translate(896.529297 0)"/>
      <use xlink:href="#DejaVuSans-68" transform="translate(960.005859 0)"/>
      <use xlink:href="#DejaVuSans-70" transform="translate(1023.384766 0)"/>
      <use xlink:href="#DejaVuSans-75" transform="translate(1086.861328 0)"/>
      <use xlink:href="#DejaVuSans-74" transform="translate(1150.240234 0)"/>
      <use xlink:href="#DejaVuSans-20" transform="translate(1189.449219 0)"/>
      <use xlink:href="#DejaVuSans-28" transform="translate(1221.236328 0)"/>
      <use xlink:href="#DejaVuSans-4d" transform="translate(1260.25 0)"/>
      <use xlink:href="#DejaVuSans-2f" transform="translate(1346.529297 0)"/>
      <use xlink:href="#DejaVuSans-73" transform="translate(1380.220703 0)"/>
      <use xlink:href="#DejaVuSans-29" transform="translate(1432.320312 0)"/>
     </g>
    </g>
   </g>
   <g id="matplotlib.axis_2">
    <g id="ytick_1">
     <g id="line2d_38">
      <defs>
       <path id="ma0d5f38a80" d="M 0 0 
L -3.5 0 
" style="stroke: #000000; stroke-width: 0.8"/>
      </defs>
      <g>
       <use xlink:href="#ma0d5f38a80" x="51.378125" y="63.306674" style="stroke: #000000; stroke-width: 0.8"/>
      </g>
     </g>
     <g id="text_7">
      <!-- $\mathdefault{10^{-3}}$ -->
      <g transform="translate(20.878125 67.105893) scale(0.1 -0.1)">
       <defs>
        <path id="DejaVuSans-33" d="M 2597 2516 
Q 3050 2419 3304 2112 
Q 3559 1806 3559 1356 
Q 3559 666 3084 287 
Q 2609 -91 1734 -91 
Q 1441 -91 1130 -33 
Q 819 25 488 141 
L 488 750 
Q 750 597 1062 519 
Q 1375 441 1716 441 
Q 2309 441 2620 675 
Q 2931 909 2931 1356 
Q 2931 1769 2642 2001 
Q 2353 2234 1838 2234 
L 1294 2234 
L 1294 2753 
L 1863 2753 
Q 2328 2753 2575 2939 
Q 2822 3125 2822 3475 
Q 2822 3834 2567 4026 
Q 2313 4219 1838 4219 
Q 1578 4219 1281 4162 
Q 984 4106 628 3988 
L 628 4550 
Q 988 4650 1302 4700 
Q 1616 4750 1894 4750 
Q 2613 4750 3031 4423 
Q 3450 4097 3450 3541 
Q 3450 3153 3228 2886 
Q 3006 2619 2597 2516 
z
" transform="scale(0.015625)"/>
       </defs>
       <use xlink:href="#DejaVuSans-31" transform="translate(0 0.765625)"/>
       <use xlink:href="#DejaVuSans-30" transform="translate(63.623047 0.765625)"/>
       <use xlink:href="#DejaVuSans-2212" transform="translate(128.203125 39.046875) scale(0.7)"/>
       <use xlink:href="#DejaVuSans-33" transform="translate(186.855469 39.046875) scale(0.7)"/>
      </g>
     </g>
    </g>
    <g id="ytick_2">
     <g id="line2d_39">
      <g>
       <use xlink:href="#ma0d5f38a80" x="51.378125" y="161.797023" style="stroke: #000000; stroke-width: 0.8"/>
      </g>
     </g>
     <g id="text_8">
      <!-- $\mathdefault{10^{-2}}$ -->
      <g transform="translate(20.878125 165.596241) scale(0.1 -0.1)">
       <use xlink:href="#DejaVuSans-31" transform="translate(0 0.765625)"/>
       <use xlink:href="#DejaVuSans-30" transform="translate(63.623047 0.765625)"/>
       <use xlink:href="#DejaVuSans-2212" transform="translate(128.203125 39.046875) scale(0.7)"/>
       <use xlink:href="#DejaVuSans-32" transform="translate(186.855469 39.046875) scale(0.7)"/>
      </g>
     </g>
    </g>
    <g id="ytick_3">
     <g id="line2d_40">
      <g>
       <use xlink:href="#ma0d5f38a80" x="51.378125" y="260.287371" style="stroke: #000000; stroke-width: 0.8"/>
      </g>
     </g>
     <g id="text_9">
      <!-- $\mathdefault{10^{-1}}$ -->
      <g transform="translate(20.878125 264.08659) scale(0.1 -0.1)">
       <use xlink:href="#DejaVuSans-31" transform="translate(0 0.684375)"/>
       <use xlink:href="#DejaVuSans-30" transform="translate(63.623047 0.684375)"/>
       <use xlink:href="#DejaVuSans-2212" transform="translate(128.203125 38.965625) scale(0.7)"/>
       <use xlink:href="#DejaVuSans-31" transform="translate(186.855469 38.965625) scale(0.7)"/>
      </g>
     </g>
    </g>
    <g id="ytick_4">
     <g id="line2d_41">
      <defs>
       <path id="md01f471b7a" d="M 0 0 
L -2 0 
" style="stroke: #000000; stroke-width: 0.6"/>
      </defs>
      <g>
       <use xlink:href="#md01f471b7a" x="51.378125" y="24.113424" style="stroke: #000000; stroke-width: 0.6"/>
      </g>
     </g>
    </g>
    <g id="ytick_5">
     <g id="line2d_42">
      <g>
       <use xlink:href="#md01f471b7a" x="51.378125" y="33.658125" style="stroke: #000000; stroke-width: 0.6"/>
      </g>
     </g>
    </g>
    <g id="ytick_6">
     <g id="line2d_43">
      <g>
       <use xlink:href="#md01f471b7a" x="51.378125" y="41.456714" style="stroke: #000000; stroke-width: 0.6"/>
      </g>
     </g>
    </g>
    <g id="ytick_7">
     <g id="line2d_44">
      <g>
       <use xlink:href="#md01f471b7a" x="51.378125" y="48.050326" style="stroke: #000000; stroke-width: 0.6"/>
      </g>
     </g>
    </g>
    <g id="ytick_8">
     <g id="line2d_45">
      <g>
       <use xlink:href="#md01f471b7a" x="51.378125" y="53.761973" style="stroke: #000000; stroke-width: 0.6"/>
      </g>
     </g>
    </g>
    <g id="ytick_9">
     <g id="line2d_46">
      <g>
       <use xlink:href="#md01f471b7a" x="51.378125" y="58.800003" style="stroke: #000000; stroke-width: 0.6"/>
      </g>
     </g>
    </g>
    <g id="ytick_10">
     <g id="line2d_47">
      <g>
       <use xlink:href="#md01f471b7a" x="51.378125" y="92.955223" style="stroke: #000000; stroke-width: 0.6"/>
      </g>
     </g>
    </g>
    <g id="ytick_11">
     <g id="line2d_48">
      <g>
       <use xlink:href="#md01f471b7a" x="51.378125" y="110.298513" style="stroke: #000000; stroke-width: 0.6"/>
      </g>
     </g>
    </g>
    <g id="ytick_12">
     <g id="line2d_49">
      <g>
       <use xlink:href="#md01f471b7a" x="51.378125" y="122.603772" style="stroke: #000000; stroke-width: 0.6"/>
      </g>
     </g>
    </g>
    <g id="ytick_13">
     <g id="line2d_50">
      <g>
       <use xlink:href="#md01f471b7a" x="51.378125" y="132.148473" style="stroke: #000000; stroke-width: 0.6"/>
      </g>
     </g>
    </g>
    <g id="ytick_14">
     <g id="line2d_51">
      <g>
       <use xlink:href="#md01f471b7a" x="51.378125" y="139.947062" style="stroke: #000000; stroke-width: 0.6"/>
      </g>
     </g>
    </g>
    <g id="ytick_15">
     <g id="line2d_52">
      <g>
       <use xlink:href="#md01f471b7a" x="51.378125" y="146.540675" style="stroke: #000000; stroke-width: 0.6"/>
      </g>
     </g>
    </g>
    <g id="ytick_16">
     <g id="line2d_53">
      <g>
       <use xlink:href="#md01f471b7a" x="51.378125" y="152.252322" style="stroke: #000000; stroke-width: 0.6"/>
      </g>
     </g>
    </g>
    <g id="ytick_17">
     <g id="line2d_54">
      <g>
       <use xlink:href="#md01f471b7a" x="51.378125" y="157.290351" style="stroke: #000000; stroke-width: 0.6"/>
      </g>
     </g>
    </g>
    <g id="ytick_18">
     <g id="line2d_55">
      <g>
       <use xlink:href="#md01f471b7a" x="51.378125" y="191.445572" style="stroke: #000000; stroke-width: 0.6"/>
      </g>
     </g>
    </g>
    <g id="ytick_19">
     <g id="line2d_56">
      <g>
       <use xlink:href="#md01f471b7a" x="51.378125" y="208.788861" style="stroke: #000000; stroke-width: 0.6"/>
      </g>
     </g>
    </g>
    <g id="ytick_20">
     <g id="line2d_57">
      <g>
       <use xlink:href="#md01f471b7a" x="51.378125" y="221.094121" style="stroke: #000000; stroke-width: 0.6"/>
      </g>
     </g>
    </g>
    <g id="ytick_21">
     <g id="line2d_58">
      <g>
       <use xlink:href="#md01f471b7a" x="51.378125" y="230.638822" style="stroke: #000000; stroke-width: 0.6"/>
      </g>
     </g>
    </g>
    <g id="ytick_22">
     <g id="line2d_59">
      <g>
       <use xlink:href="#md01f471b7a" x="51.378125" y="238.43741" style="stroke: #000000; stroke-width: 0.6"/>
      </g>
     </g>
    </g>
    <g id="ytick_23">
     <g id="line2d_60">
      <g>
       <use xlink:href="#md01f471b7a" x="51.378125" y="245.031023" style="stroke: #000000; stroke-width: 0.6"/>
      </g>
     </g>
    </g>
    <g id="ytick_24">
     <g id="line2d_61">
      <g>
       <use xlink:href="#md01f471b7a" x="51.378125" y="250.74267" style="stroke: #000000; stroke-width: 0.6"/>
      </g>
     </g>
    </g>
    <g id="ytick_25">
     <g id="line2d_62">
      <g>
       <use xlink:href="#md01f471b7a" x="51.378125" y="255.7807" style="stroke: #000000; stroke-width: 0.6"/>
      </g>
     </g>
    </g>
    <g id="text_10">
     <!-- 1-correlation -->
     <g transform="translate(14.798437 178.869844) rotate(-90) scale(0.1 -0.1)">
      <defs>
       <path id="DejaVuSans-2d" d="M 313 2009 
L 1997 2009 
L 1997 1497 
L 313 1497 
L 313 2009 
z
" transform="scale(0.015625)"/>
       <path id="DejaVuSans-63" d="M 3122 3366 
L 3122 2828 
Q 2878 2963 2633 3030 
Q 2388 3097 2138 3097 
Q 1578 3097 1268 2742 
Q 959 2388 959 1747 
Q 959 1106 1268 751 
Q 1578 397 2138 397 
Q 2388 397 2633 464 
Q 2878 531 3122 666 
L 3122 134 
Q 2881 22 2623 -34 
Q 2366 -91 2075 -91 
Q 1284 -91 818 406 
Q 353 903 353 1747 
Q 353 2603 823 3093 
Q 1294 3584 2113 3584 
Q 2378 3584 2631 3529 
Q 2884 3475 3122 3366 
z
" transform="scale(0.015625)"/>
       <path id="DejaVuSans-65" d="M 3597 1894 
L 3597 1613 
L 953 1613 
Q 991 1019 1311 708 
Q 1631 397 2203 397 
Q 2534 397 2845 478 
Q 3156 559 3463 722 
L 3463 178 
Q 3153 47 2828 -22 
Q 2503 -91 2169 -91 
Q 1331 -91 842 396 
Q 353 884 353 1716 
Q 353 2575 817 3079 
Q 1281 3584 2069 3584 
Q 2775 3584 3186 3129 
Q 3597 2675 3597 1894 
z
M 3022 2063 
Q 3016 2534 2758 2815 
Q 2500 3097 2075 3097 
Q 1594 3097 1305 2825 
Q 1016 2553 972 2059 
L 3022 2063 
z
" transform="scale(0.015625)"/>
       <path id="DejaVuSans-6c" d="M 603 4863 
L 1178 4863 
L 1178 0 
L 603 0 
L 603 4863 
z
" transform="scale(0.015625)"/>
      </defs>
      <use xlink:href="#DejaVuSans-31"/>
      <use xlink:href="#DejaVuSans-2d" transform="translate(63.623047 0)"/>
      <use xlink:href="#DejaVuSans-63" transform="translate(99.707031 0)"/>
      <use xlink:href="#DejaVuSans-6f" transform="translate(154.6875 0)"/>
      <use xlink:href="#DejaVuSans-72" transform="translate(215.869141 0)"/>
      <use xlink:href="#DejaVuSans-72" transform="translate(255.232422 0)"/>
      <use xlink:href="#DejaVuSans-65" transform="translate(294.095703 0)"/>
      <use xlink:href="#DejaVuSans-6c" transform="translate(355.619141 0)"/>
      <use xlink:href="#DejaVuSans-61" transform="translate(383.402344 0)"/>
      <use xlink:href="#DejaVuSans-74" transform="translate(444.681641 0)"/>
      <use xlink:href="#DejaVuSans-69" transform="translate(483.890625 0)"/>
      <use xlink:href="#DejaVuSans-6f" transform="translate(511.673828 0)"/>
      <use xlink:href="#DejaVuSans-6e" transform="translate(572.855469 0)"/>
     </g>
    </g>
   </g>
   <g id="line2d_63">
    <path d="M 337.084341 224.484937 
L 214.290667 156.812427 
L 79.278125 135.440391 
" clip-path="url(#p2e3f583d66)" style="fill: none; stroke: #add8e6; stroke-width: 0.7; stroke-linecap: square"/>
   </g>
   <g id="line2d_64">
    <path d="M 379.239852 260.458125 
L 381.598738 174.949316 
L 359.546319 97.032003 
" clip-path="url(#p2e3f583d66)" style="fill: none; stroke: #0000ff; stroke-width: 0.7; stroke-linecap: square"/>
   </g>
   <g id="line2d_65">
    <path d="M 384.050153 215.50451 
L 372.654496 123.65997 
L 329.33067 41.456714 
" clip-path="url(#p2e3f583d66)" style="fill: none; stroke: #0000ff; stroke-width: 0.7; stroke-linecap: square"/>
   </g>
   <g id="line2d_66">
    <path d="M 386.601653 215.382474 
L 363.019606 123.65997 
L 262.78298 41.456714 
" clip-path="url(#p2e3f583d66)" style="fill: none; stroke: #0000ff; stroke-width: 0.7; stroke-linecap: square"/>
   </g>
   <g id="line2d_67">
    <path d="M 385.112607 223.079099 
L 362.43699 147.147406 
L 254.802932 71.105263 
" clip-path="url(#p2e3f583d66)" style="fill: none; stroke: #000000; stroke-width: 0.7; stroke-linecap: square"/>
   </g>
   <g id="line2d_68">
    <path d="M 385.731778 215.260088 
L 256.706881 116.892125 
L 126.09583 48.050326 
" clip-path="url(#p2e3f583d66)" style="fill: none; stroke: #ffc0cb; stroke-width: 0.7; stroke-linecap: square"/>
   </g>
   <g id="line2d_69">
    <path d="M 637.278125 248.661075 
L 593.967614 176.189224 
L 502.310857 100.753812 
L 466.287245 63.306674 
L 424.573806 33.658125 
" clip-path="url(#p2e3f583d66)" style="fill: none; stroke: #ff0000; stroke-width: 0.7; stroke-linecap: square"/>
   </g>
   <g id="line2d_70">
    <path d="M 586.619899 212.344003 
L 482.845473 136.995974 
L 361.173844 41.456714 
" clip-path="url(#p2e3f583d66)" style="fill: none; stroke: #ff0000; stroke-width: 0.7; stroke-linecap: square"/>
   </g>
   <g id="line2d_71">
    <path d="M 581.042465 212.212593 
L 456.964642 137.753052 
L 302.479203 41.456714 
" clip-path="url(#p2e3f583d66)" style="fill: none; stroke: #ff0000; stroke-width: 0.7; stroke-linecap: square"/>
   </g>
   <g id="line2d_72">
    <path d="M 337.084341 224.484937 
" clip-path="url(#p2e3f583d66)" style="fill: none; stroke-dasharray: 3.7,1.6; stroke-dashoffset: 0; stroke: #add8e6"/>
   </g>
   <g id="line2d_73">
    <path d="M 214.290667 156.812427 
" clip-path="url(#p2e3f583d66)" style="fill: none; stroke-dasharray: 3.7,1.6; stroke-dashoffset: 0; stroke: #add8e6"/>
   </g>
   <g id="line2d_74">
    <path d="M 79.278125 135.440391 
" clip-path="url(#p2e3f583d66)" style="fill: none; stroke-dasharray: 3.7,1.6; stroke-dashoffset: 0; stroke: #add8e6"/>
   </g>
   <g id="line2d_75">
    <path d="M 379.239852 260.458125 
L 384.050153 215.50451 
L 386.601653 215.382474 
" clip-path="url(#p2e3f583d66)" style="fill: none; stroke-dasharray: 3.7,1.6; stroke-dashoffset: 0; stroke: #0000ff"/>
   </g>
   <g id="line2d_76">
    <path d="M 381.598738 174.949316 
L 372.654496 123.65997 
L 363.019606 123.65997 
" clip-path="url(#p2e3f583d66)" style="fill: none; stroke-dasharray: 3.7,1.6; stroke-dashoffset: 0; stroke: #0000ff"/>
   </g>
   <g id="line2d_77">
    <path d="M 359.546319 97.032003 
L 329.33067 41.456714 
L 262.78298 41.456714 
" clip-path="url(#p2e3f583d66)" style="fill: none; stroke-dasharray: 3.7,1.6; stroke-dashoffset: 0; stroke: #0000ff"/>
   </g>
   <g id="line2d_78">
    <path d="M 385.112607 223.079099 
" clip-path="url(#p2e3f583d66)" style="fill: none; stroke-dasharray: 3.7,1.6; stroke-dashoffset: 0; stroke: #000000"/>
   </g>
   <g id="line2d_79">
    <path d="M 362.43699 147.147406 
" clip-path="url(#p2e3f583d66)" style="fill: none; stroke-dasharray: 3.7,1.6; stroke-dashoffset: 0; stroke: #000000"/>
   </g>
   <g id="line2d_80">
    <path d="M 254.802932 71.105263 
" clip-path="url(#p2e3f583d66)" style="fill: none; stroke-dasharray: 3.7,1.6; stroke-dashoffset: 0; stroke: #000000"/>
   </g>
   <g id="line2d_81">
    <path d="M 385.731778 215.260088 
" clip-path="url(#p2e3f583d66)" style="fill: none; stroke-dasharray: 3.7,1.6; stroke-dashoffset: 0; stroke: #ffc0cb"/>
   </g>
   <g id="line2d_82">
    <path d="M 256.706881 116.892125 
" clip-path="url(#p2e3f583d66)" style="fill: none; stroke-dasharray: 3.7,1.6; stroke-dashoffset: 0; stroke: #ffc0cb"/>
   </g>
   <g id="line2d_83">
    <path d="M 126.09583 48.050326 
" clip-path="url(#p2e3f583d66)" style="fill: none; stroke-dasharray: 3.7,1.6; stroke-dashoffset: 0; stroke: #ffc0cb"/>
   </g>
   <g id="line2d_84">
    <path d="M 637.278125 248.661075 
L 586.619899 212.344003 
L 581.042465 212.212593 
" clip-path="url(#p2e3f583d66)" style="fill: none; stroke-dasharray: 3.7,1.6; stroke-dashoffset: 0; stroke: #ff0000"/>
   </g>
   <g id="line2d_85">
    <path d="M 593.967614 176.189224 
L 482.845473 136.995974 
L 456.964642 137.753052 
" clip-path="url(#p2e3f583d66)" style="fill: none; stroke-dasharray: 3.7,1.6; stroke-dashoffset: 0; stroke: #ff0000"/>
   </g>
   <g id="line2d_86">
    <path d="M 502.310857 100.753812 
L 361.173844 41.456714 
L 302.479203 41.456714 
" clip-path="url(#p2e3f583d66)" style="fill: none; stroke-dasharray: 3.7,1.6; stroke-dashoffset: 0; stroke: #ff0000"/>
   </g>
   <g id="line2d_87">
    <path d="M 466.287245 63.306674 
" clip-path="url(#p2e3f583d66)" style="fill: none; stroke-dasharray: 3.7,1.6; stroke-dashoffset: 0; stroke: #ff0000"/>
   </g>
   <g id="line2d_88">
    <path d="M 424.573806 33.658125 
" clip-path="url(#p2e3f583d66)" style="fill: none; stroke-dasharray: 3.7,1.6; stroke-dashoffset: 0; stroke: #ff0000"/>
   </g>
   <g id="line2d_89"/>
   <g id="line2d_90"/>
   <g id="line2d_91"/>
   <g id="line2d_92"/>
   <g id="line2d_93"/>
   <g id="line2d_94"/>
   <g id="line2d_95"/>
   <g id="line2d_96"/>
   <g id="line2d_97"/>
   <g id="line2d_98"/>
   <g id="line2d_99"/>
   <g id="line2d_100"/>
   <g id="line2d_101"/>
   <g id="line2d_102"/>
   <g id="line2d_103"/>
   <g id="patch_3">
    <path d="M 51.378125 271.798125 
L 51.378125 22.318125 
" style="fill: none; stroke: #000000; stroke-width: 0.8; stroke-linejoin: miter; stroke-linecap: square"/>
   </g>
   <g id="patch_4">
    <path d="M 665.178125 271.798125 
L 665.178125 22.318125 
" style="fill: none; stroke: #000000; stroke-width: 0.8; stroke-linejoin: miter; stroke-linecap: square"/>
   </g>
   <g id="patch_5">
    <path d="M 51.378125 271.798125 
L 665.178125 271.798125 
" style="fill: none; stroke: #000000; stroke-width: 0.8; stroke-linejoin: miter; stroke-linecap: square"/>
   </g>
   <g id="patch_6">
    <path d="M 51.378125 22.318125 
L 665.178125 22.318125 
" style="fill: none; stroke: #000000; stroke-width: 0.8; stroke-linejoin: miter; stroke-linecap: square"/>
   </g>
   <g id="text_11">
    <!-- Correlation vs comparison throughput -->
    <g transform="translate(244.229375 16.318125) scale(0.12 -0.12)">
     <defs>
      <path id="DejaVuSans-76" d="M 191 3500 
L 800 3500 
L 1894 563 
L 2988 3500 
L 3597 3500 
L 2284 0 
L 1503 0 
L 191 3500 
z
" transform="scale(0.015625)"/>
     </defs>
     <use xlink:href="#DejaVuSans-43"/>
     <use xlink:href="#DejaVuSans-6f" transform="translate(69.824219 0)"/>
     <use xlink:href="#DejaVuSans-72" transform="translate(131.005859 0)"/>
     <use xlink:href="#DejaVuSans-72" transform="translate(170.369141 0)"/>
     <use xlink:href="#DejaVuSans-65" transform="translate(209.232422 0)"/>
     <use xlink:href="#DejaVuSans-6c" transform="translate(270.755859 0)"/>
     <use xlink:href="#DejaVuSans-61" transform="translate(298.539062 0)"/>
     <use xlink:href="#DejaVuSans-74" transform="translate(359.818359 0)"/>
     <use xlink:href="#DejaVuSans-69" transform="translate(399.027344 0)"/>
     <use xlink:href="#DejaVuSans-6f" transform="translate(426.810547 0)"/>
     <use xlink:href="#DejaVuSans-6e" transform="translate(487.992188 0)"/>
     <use xlink:href="#DejaVuSans-20" transform="translate(551.371094 0)"/>
     <use xlink:href="#DejaVuSans-76" transform="translate(583.158203 0)"/>
     <use xlink:href="#DejaVuSans-73" transform="translate(642.337891 0)"/>
     <use xlink:href="#DejaVuSans-20" transform="translate(694.4375 0)"/>
     <use xlink:href="#DejaVuSans-63" transform="translate(726.224609 0)"/>
     <use xlink:href="#DejaVuSans-6f" transform="translate(781.205078 0)"/>
     <use xlink:href="#DejaVuSans-6d" transform="translate(842.386719 0)"/>
     <use xlink:href="#DejaVuSans-70" transform="translate(939.798828 0)"/>
     <use xlink:href="#DejaVuSans-61" transform="translate(1003.275391 0)"/>
     <use xlink:href="#DejaVuSans-72" transform="translate(1064.554688 0)"/>
     <use xlink:href="#DejaVuSans-69" transform="translate(1105.667969 0)"/>
     <use xlink:href="#DejaVuSans-73" transform="translate(1133.451172 0)"/>
     <use xlink:href="#DejaVuSans-6f" transform="translate(1185.550781 0)"/>
     <use xlink:href="#DejaVuSans-6e" transform="translate(1246.732422 0)"/>
     <use xlink:href="#DejaVuSans-20" transform="translate(1310.111328 0)"/>
     <use xlink:href="#DejaVuSans-74" transform="translate(1341.898438 0)"/>
     <use xlink:href="#DejaVuSans-68" transform="translate(1381.107422 0)"/>
     <use xlink:href="#DejaVuSans-72" transform="translate(1444.486328 0)"/>
     <use xlink:href="#DejaVuSans-6f" transform="translate(1483.349609 0)"/>
     <use xlink:href="#DejaVuSans-75" transform="translate(1544.53125 0)"/>
     <use xlink:href="#DejaVuSans-67" transform="translate(1607.910156 0)"/>
     <use xlink:href="#DejaVuSans-68" transform="translate(1671.386719 0)"/>
     <use xlink:href="#DejaVuSans-70" transform="translate(1734.765625 0)"/>
     <use xlink:href="#DejaVuSans-75" transform="translate(1798.242188 0)"/>
     <use xlink:href="#DejaVuSans-74" transform="translate(1861.621094 0)"/>
    </g>
   </g>
   <g id="legend_1">
    <g id="patch_7">
     <path d="M 58.378125 250.49 
L 188.625 250.49 
Q 190.625 250.49 190.625 248.49 
L 190.625 29.318125 
Q 190.625 27.318125 188.625 27.318125 
L 58.378125 27.318125 
Q 56.378125 27.318125 56.378125 29.318125 
L 56.378125 248.49 
Q 56.378125 250.49 58.378125 250.49 
z
" style="fill: #ffffff; opacity: 0.8; stroke: #cccccc; stroke-linejoin: miter"/>
    </g>
    <g id="line2d_104"/>
    <g id="text_12">
     <!-- variant -->
     <g transform="translate(88.378125 38.916562) scale(0.1 -0.1)">
      <use xlink:href="#DejaVuSans-76"/>
      <use xlink:href="#DejaVuSans-61" transform="translate(59.179688 0)"/>
      <use xlink:href="#DejaVuSans-72" transform="translate(120.458984 0)"/>
      <use xlink:href="#DejaVuSans-69" transform="translate(161.572266 0)"/>
      <use xlink:href="#DejaVuSans-61" transform="translate(189.355469 0)"/>
      <use xlink:href="#DejaVuSans-6e" transform="translate(250.634766 0)"/>
      <use xlink:href="#DejaVuSans-74" transform="translate(314.013672 0)"/>
     </g>
    </g>
    <g id="line2d_105">
     <defs>
      <path id="mcde3453182" d="M 0 3 
C 0.795609 3 1.55874 2.683901 2.12132 2.12132 
C 2.683901 1.55874 3 0.795609 3 0 
C 3 -0.795609 2.683901 -1.55874 2.12132 -2.12132 
C 1.55874 -2.683901 0.795609 -3 0 -3 
C -0.795609 -3 -1.55874 -2.683901 -2.12132 -2.12132 
C -2.683901 -1.55874 -3 -0.795609 -3 0 
C -3 0.795609 -2.683901 1.55874 -2.12132 2.12132 
C -1.55874 2.683901 -0.795609 3 0 3 
z
" style="stroke: #ffffff; stroke-width: 0.357771"/>
     </defs>
     <g>
      <use xlink:href="#mcde3453182" x="70.378125" y="50.094687" style="fill: #add8e6; stroke: #ffffff; stroke-width: 0.357771"/>
     </g>
    </g>
    <g id="text_13">
     <!-- BinDash bottom -->
     <g transform="translate(88.378125 53.594687) scale(0.1 -0.1)">
      <defs>
       <path id="DejaVuSans-42" d="M 1259 2228 
L 1259 519 
L 2272 519 
Q 2781 519 3026 730 
Q 3272 941 3272 1375 
Q 3272 1813 3026 2020 
Q 2781 2228 2272 2228 
L 1259 2228 
z
M 1259 4147 
L 1259 2741 
L 2194 2741 
Q 2656 2741 2882 2914 
Q 3109 3088 3109 3444 
Q 3109 3797 2882 3972 
Q 2656 4147 2194 4147 
L 1259 4147 
z
M 628 4666 
L 2241 4666 
Q 2963 4666 3353 4366 
Q 3744 4066 3744 3513 
Q 3744 3084 3544 2831 
Q 3344 2578 2956 2516 
Q 3422 2416 3680 2098 
Q 3938 1781 3938 1306 
Q 3938 681 3513 340 
Q 3088 0 2303 0 
L 628 0 
L 628 4666 
z
" transform="scale(0.015625)"/>
       <path id="DejaVuSans-44" d="M 1259 4147 
L 1259 519 
L 2022 519 
Q 2988 519 3436 956 
Q 3884 1394 3884 2338 
Q 3884 3275 3436 3711 
Q 2988 4147 2022 4147 
L 1259 4147 
z
M 628 4666 
L 1925 4666 
Q 3281 4666 3915 4102 
Q 4550 3538 4550 2338 
Q 4550 1131 3912 565 
Q 3275 0 1925 0 
L 628 0 
L 628 4666 
z
" transform="scale(0.015625)"/>
       <path id="DejaVuSans-62" d="M 3116 1747 
Q 3116 2381 2855 2742 
Q 2594 3103 2138 3103 
Q 1681 3103 1420 2742 
Q 1159 2381 1159 1747 
Q 1159 1113 1420 752 
Q 1681 391 2138 391 
Q 2594 391 2855 752 
Q 3116 1113 3116 1747 
z
M 1159 2969 
Q 1341 3281 1617 3432 
Q 1894 3584 2278 3584 
Q 2916 3584 3314 3078 
Q 3713 2572 3713 1747 
Q 3713 922 3314 415 
Q 2916 -91 2278 -91 
Q 1894 -91 1617 61 
Q 1341 213 1159 525 
L 1159 0 
L 581 0 
L 581 4863 
L 1159 4863 
L 1159 2969 
z
" transform="scale(0.015625)"/>
      </defs>
      <use xlink:href="#DejaVuSans-42"/>
      <use xlink:href="#DejaVuSans-69" transform="translate(68.603516 0)"/>
      <use xlink:href="#DejaVuSans-6e" transform="translate(96.386719 0)"/>
      <use xlink:href="#DejaVuSans-44" transform="translate(159.765625 0)"/>
      <use xlink:href="#DejaVuSans-61" transform="translate(236.767578 0)"/>
      <use xlink:href="#DejaVuSans-73" transform="translate(298.046875 0)"/>
      <use xlink:href="#DejaVuSans-68" transform="translate(350.146484 0)"/>
      <use xlink:href="#DejaVuSans-20" transform="translate(413.525391 0)"/>
      <use xlink:href="#DejaVuSans-62" transform="translate(445.3125 0)"/>
      <use xlink:href="#DejaVuSans-6f" transform="translate(508.789062 0)"/>
      <use xlink:href="#DejaVuSans-74" transform="translate(569.970703 0)"/>
      <use xlink:href="#DejaVuSans-74" transform="translate(609.179688 0)"/>
      <use xlink:href="#DejaVuSans-6f" transform="translate(648.388672 0)"/>
      <use xlink:href="#DejaVuSans-6d" transform="translate(709.570312 0)"/>
     </g>
    </g>
    <g id="line2d_106">
     <defs>
      <path id="ma16197ee82" d="M 0 3 
C 0.795609 3 1.55874 2.683901 2.12132 2.12132 
C 2.683901 1.55874 3 0.795609 3 0 
C 3 -0.795609 2.683901 -1.55874 2.12132 -2.12132 
C 1.55874 -2.683901 0.795609 -3 0 -3 
C -0.795609 -3 -1.55874 -2.683901 -2.12132 -2.12132 
C -2.683901 -1.55874 -3 -0.795609 -3 0 
C -3 0.795609 -2.683901 1.55874 -2.12132 2.12132 
C -1.55874 2.683901 -0.795609 3 0 3 
z
" style="stroke: #ffffff; stroke-width: 0.357771"/>
     </defs>
     <g>
      <use xlink:href="#ma16197ee82" x="70.378125" y="64.772812" style="fill: #ffc0cb; stroke: #ffffff; stroke-width: 0.357771"/>
     </g>
    </g>
    <g id="text_14">
     <!-- SimdSketch bottom -->
     <g transform="translate(88.378125 68.272812) scale(0.1 -0.1)">
      <defs>
       <path id="DejaVuSans-53" d="M 3425 4513 
L 3425 3897 
Q 3066 4069 2747 4153 
Q 2428 4238 2131 4238 
Q 1616 4238 1336 4038 
Q 1056 3838 1056 3469 
Q 1056 3159 1242 3001 
Q 1428 2844 1947 2747 
L 2328 2669 
Q 3034 2534 3370 2195 
Q 3706 1856 3706 1288 
Q 3706 609 3251 259 
Q 2797 -91 1919 -91 
Q 1588 -91 1214 -16 
Q 841 59 441 206 
L 441 856 
Q 825 641 1194 531 
Q 1563 422 1919 422 
Q 2459 422 2753 634 
Q 3047 847 3047 1241 
Q 3047 1584 2836 1778 
Q 2625 1972 2144 2069 
L 1759 2144 
Q 1053 2284 737 2584 
Q 422 2884 422 3419 
Q 422 4038 858 4394 
Q 1294 4750 2059 4750 
Q 2388 4750 2728 4690 
Q 3069 4631 3425 4513 
z
" transform="scale(0.015625)"/>
       <path id="DejaVuSans-64" d="M 2906 2969 
L 2906 4863 
L 3481 4863 
L 3481 0 
L 2906 0 
L 2906 525 
Q 2725 213 2448 61 
Q 2172 -91 1784 -91 
Q 1150 -91 751 415 
Q 353 922 353 1747 
Q 353 2572 751 3078 
Q 1150 3584 1784 3584 
Q 2172 3584 2448 3432 
Q 2725 3281 2906 2969 
z
M 947 1747 
Q 947 1113 1208 752 
Q 1469 391 1925 391 
Q 2381 391 2643 752 
Q 2906 1113 2906 1747 
Q 2906 2381 2643 2742 
Q 2381 3103 1925 3103 
Q 1469 3103 1208 2742 
Q 947 2381 947 1747 
z
" transform="scale(0.015625)"/>
       <path id="DejaVuSans-6b" d="M 581 4863 
L 1159 4863 
L 1159 1991 
L 2875 3500 
L 3609 3500 
L 1753 1863 
L 3688 0 
L 2938 0 
L 1159 1709 
L 1159 0 
L 581 0 
L 581 4863 
z
" transform="scale(0.015625)"/>
      </defs>
      <use xlink:href="#DejaVuSans-53"/>
      <use xlink:href="#DejaVuSans-69" transform="translate(63.476562 0)"/>
      <use xlink:href="#DejaVuSans-6d" transform="translate(91.259766 0)"/>
      <use xlink:href="#DejaVuSans-64" transform="translate(188.671875 0)"/>
      <use xlink:href="#DejaVuSans-53" transform="translate(252.148438 0)"/>
      <use xlink:href="#DejaVuSans-6b" transform="translate(315.625 0)"/>
      <use xlink:href="#DejaVuSans-65" transform="translate(369.910156 0)"/>
      <use xlink:href="#DejaVuSans-74" transform="translate(431.433594 0)"/>
      <use xlink:href="#DejaVuSans-63" transform="translate(470.642578 0)"/>
      <use xlink:href="#DejaVuSans-68" transform="translate(525.623047 0)"/>
      <use xlink:href="#DejaVuSans-20" transform="translate(589.001953 0)"/>
      <use xlink:href="#DejaVuSans-62" transform="translate(620.789062 0)"/>
      <use xlink:href="#DejaVuSans-6f" transform="translate(684.265625 0)"/>
      <use xlink:href="#DejaVuSans-74" transform="translate(745.447266 0)"/>
      <use xlink:href="#DejaVuSans-74" transform="translate(784.65625 0)"/>
      <use xlink:href="#DejaVuSans-6f" transform="translate(823.865234 0)"/>
      <use xlink:href="#DejaVuSans-6d" transform="translate(885.046875 0)"/>
     </g>
    </g>
    <g id="line2d_107">
     <defs>
      <path id="m256110b55a" d="M 0 3 
C 0.795609 3 1.55874 2.683901 2.12132 2.12132 
C 2.683901 1.55874 3 0.795609 3 0 
C 3 -0.795609 2.683901 -1.55874 2.12132 -2.12132 
C 1.55874 -2.683901 0.795609 -3 0 -3 
C -0.795609 -3 -1.55874 -2.683901 -2.12132 -2.12132 
C -2.683901 -1.55874 -3 -0.795609 -3 0 
C -3 0.795609 -2.683901 1.55874 -2.12132 2.12132 
C -1.55874 2.683901 -0.795609 3 0 3 
z
" style="stroke: #ffffff; stroke-width: 0.357771"/>
     </defs>
     <g>
      <use xlink:href="#m256110b55a" x="70.378125" y="79.450937" style="fill: #0000ff; stroke: #ffffff; stroke-width: 0.357771"/>
     </g>
    </g>
    <g id="text_15">
     <!-- BinDash bucket -->
     <g transform="translate(88.378125 82.950937) scale(0.1 -0.1)">
      <use xlink:href="#DejaVuSans-42"/>
      <use xlink:href="#DejaVuSans-69" transform="translate(68.603516 0)"/>
      <use xlink:href="#DejaVuSans-6e" transform="translate(96.386719 0)"/>
      <use xlink:href="#DejaVuSans-44" transform="translate(159.765625 0)"/>
      <use xlink:href="#DejaVuSans-61" transform="translate(236.767578 0)"/>
      <use xlink:href="#DejaVuSans-73" transform="translate(298.046875 0)"/>
      <use xlink:href="#DejaVuSans-68" transform="translate(350.146484 0)"/>
      <use xlink:href="#DejaVuSans-20" transform="translate(413.525391 0)"/>
      <use xlink:href="#DejaVuSans-62" transform="translate(445.3125 0)"/>
      <use xlink:href="#DejaVuSans-75" transform="translate(508.789062 0)"/>
      <use xlink:href="#DejaVuSans-63" transform="translate(572.167969 0)"/>
      <use xlink:href="#DejaVuSans-6b" transform="translate(627.148438 0)"/>
      <use xlink:href="#DejaVuSans-65" transform="translate(681.433594 0)"/>
      <use xlink:href="#DejaVuSans-74" transform="translate(742.957031 0)"/>
     </g>
    </g>
    <g id="line2d_108">
     <defs>
      <path id="m42ef5cd881" d="M 0 3 
C 0.795609 3 1.55874 2.683901 2.12132 2.12132 
C 2.683901 1.55874 3 0.795609 3 0 
C 3 -0.795609 2.683901 -1.55874 2.12132 -2.12132 
C 1.55874 -2.683901 0.795609 -3 0 -3 
C -0.795609 -3 -1.55874 -2.683901 -2.12132 -2.12132 
C -2.683901 -1.55874 -3 -0.795609 -3 0 
C -3 0.795609 -2.683901 1.55874 -2.12132 2.12132 
C -1.55874 2.683901 -0.795609 3 0 3 
z
" style="stroke: #ffffff; stroke-width: 0.357771"/>
     </defs>
     <g>
      <use xlink:href="#m42ef5cd881" x="70.378125" y="94.129062" style="stroke: #ffffff; stroke-width: 0.357771"/>
     </g>
    </g>
    <g id="text_16">
     <!-- BinDash-rs bucket -->
     <g transform="translate(88.378125 97.629062) scale(0.1 -0.1)">
      <use xlink:href="#DejaVuSans-42"/>
      <use xlink:href="#DejaVuSans-69" transform="translate(68.603516 0)"/>
      <use xlink:href="#DejaVuSans-6e" transform="translate(96.386719 0)"/>
      <use xlink:href="#DejaVuSans-44" transform="translate(159.765625 0)"/>
      <use xlink:href="#DejaVuSans-61" transform="translate(236.767578 0)"/>
      <use xlink:href="#DejaVuSans-73" transform="translate(298.046875 0)"/>
      <use xlink:href="#DejaVuSans-68" transform="translate(350.146484 0)"/>
      <use xlink:href="#DejaVuSans-2d" transform="translate(413.525391 0)"/>
      <use xlink:href="#DejaVuSans-72" transform="translate(449.609375 0)"/>
      <use xlink:href="#DejaVuSans-73" transform="translate(490.722656 0)"/>
      <use xlink:href="#DejaVuSans-20" transform="translate(542.822266 0)"/>
      <use xlink:href="#DejaVuSans-62" transform="translate(574.609375 0)"/>
      <use xlink:href="#DejaVuSans-75" transform="translate(638.085938 0)"/>
      <use xlink:href="#DejaVuSans-63" transform="translate(701.464844 0)"/>
      <use xlink:href="#DejaVuSans-6b" transform="translate(756.445312 0)"/>
      <use xlink:href="#DejaVuSans-65" transform="translate(810.730469 0)"/>
      <use xlink:href="#DejaVuSans-74" transform="translate(872.253906 0)"/>
     </g>
    </g>
    <g id="line2d_109">
     <defs>
      <path id="m7d0d7457cf" d="M 0 3 
C 0.795609 3 1.55874 2.683901 2.12132 2.12132 
C 2.683901 1.55874 3 0.795609 3 0 
C 3 -0.795609 2.683901 -1.55874 2.12132 -2.12132 
C 1.55874 -2.683901 0.795609 -3 0 -3 
C -0.795609 -3 -1.55874 -2.683901 -2.12132 -2.12132 
C -2.683901 -1.55874 -3 -0.795609 -3 0 
C -3 0.795609 -2.683901 1.55874 -2.12132 2.12132 
C -1.55874 2.683901 -0.795609 3 0 3 
z
" style="stroke: #ffffff; stroke-width: 0.357771"/>
     </defs>
     <g>
      <use xlink:href="#m7d0d7457cf" x="70.378125" y="108.807187" style="fill: #ff0000; stroke: #ffffff; stroke-width: 0.357771"/>
     </g>
    </g>
    <g id="text_17">
     <!-- SimdSketch bucket -->
     <g transform="translate(88.378125 112.307187) scale(0.1 -0.1)">
      <use xlink:href="#DejaVuSans-53"/>
      <use xlink:href="#DejaVuSans-69" transform="translate(63.476562 0)"/>
      <use xlink:href="#DejaVuSans-6d" transform="translate(91.259766 0)"/>
      <use xlink:href="#DejaVuSans-64" transform="translate(188.671875 0)"/>
      <use xlink:href="#DejaVuSans-53" transform="translate(252.148438 0)"/>
      <use xlink:href="#DejaVuSans-6b" transform="translate(315.625 0)"/>
      <use xlink:href="#DejaVuSans-65" transform="translate(369.910156 0)"/>
      <use xlink:href="#DejaVuSans-74" transform="translate(431.433594 0)"/>
      <use xlink:href="#DejaVuSans-63" transform="translate(470.642578 0)"/>
      <use xlink:href="#DejaVuSans-68" transform="translate(525.623047 0)"/>
      <use xlink:href="#DejaVuSans-20" transform="translate(589.001953 0)"/>
      <use xlink:href="#DejaVuSans-62" transform="translate(620.789062 0)"/>
      <use xlink:href="#DejaVuSans-75" transform="translate(684.265625 0)"/>
      <use xlink:href="#DejaVuSans-63" transform="translate(747.644531 0)"/>
      <use xlink:href="#DejaVuSans-6b" transform="translate(802.625 0)"/>
      <use xlink:href="#DejaVuSans-65" transform="translate(856.910156 0)"/>
      <use xlink:href="#DejaVuSans-74" transform="translate(918.433594 0)"/>
     </g>
    </g>
    <g id="line2d_110"/>
    <g id="text_18">
     <!-- s -->
     <g transform="translate(88.378125 126.985312) scale(0.1 -0.1)">
      <use xlink:href="#DejaVuSans-73"/>
     </g>
    </g>
    <g id="line2d_111">
     <defs>
      <path id="m14db53954d" d="M 0 2.236068 
C 0.593012 2.236068 1.161816 2.000462 1.581139 1.581139 
C 2.000462 1.161816 2.236068 0.593012 2.236068 0 
C 2.236068 -0.593012 2.000462 -1.161816 1.581139 -1.581139 
C 1.161816 -2.000462 0.593012 -2.236068 0 -2.236068 
C -0.593012 -2.236068 -1.161816 -2.000462 -1.581139 -1.581139 
C -2.000462 -1.161816 -2.236068 -0.593012 -2.236068 0 
C -2.236068 0.593012 -2.000462 1.161816 -1.581139 1.581139 
C -1.161816 2.000462 -0.593012 2.236068 0 2.236068 
z
" style="stroke: #ffffff; stroke-width: 0.357771"/>
     </defs>
     <g>
      <use xlink:href="#m14db53954d" x="70.378125" y="138.163437" style="fill: #333333; stroke: #ffffff; stroke-width: 0.357771"/>
     </g>
    </g>
    <g id="text_19">
     <!-- 128 -->
     <g transform="translate(88.378125 141.663437) scale(0.1 -0.1)">
      <defs>
       <path id="DejaVuSans-38" d="M 2034 2216 
Q 1584 2216 1326 1975 
Q 1069 1734 1069 1313 
Q 1069 891 1326 650 
Q 1584 409 2034 409 
Q 2484 409 2743 651 
Q 3003 894 3003 1313 
Q 3003 1734 2745 1975 
Q 2488 2216 2034 2216 
z
M 1403 2484 
Q 997 2584 770 2862 
Q 544 3141 544 3541 
Q 544 4100 942 4425 
Q 1341 4750 2034 4750 
Q 2731 4750 3128 4425 
Q 3525 4100 3525 3541 
Q 3525 3141 3298 2862 
Q 3072 2584 2669 2484 
Q 3125 2378 3379 2068 
Q 3634 1759 3634 1313 
Q 3634 634 3220 271 
Q 2806 -91 2034 -91 
Q 1263 -91 848 271 
Q 434 634 434 1313 
Q 434 1759 690 2068 
Q 947 2378 1403 2484 
z
M 1172 3481 
Q 1172 3119 1398 2916 
Q 1625 2713 2034 2713 
Q 2441 2713 2670 2916 
Q 2900 3119 2900 3481 
Q 2900 3844 2670 4047 
Q 2441 4250 2034 4250 
Q 1625 4250 1398 4047 
Q 1172 3844 1172 3481 
z
" transform="scale(0.015625)"/>
      </defs>
      <use xlink:href="#DejaVuSans-31"/>
      <use xlink:href="#DejaVuSans-32" transform="translate(63.623047 0)"/>
      <use xlink:href="#DejaVuSans-38" transform="translate(127.246094 0)"/>
     </g>
    </g>
    <g id="line2d_112">
     <defs>
      <path id="m0cc13c9ce0" d="M 0 4.472136 
C 1.186024 4.472136 2.323632 4.000923 3.162278 3.162278 
C 4.000923 2.323632 4.472136 1.186024 4.472136 0 
C 4.472136 -1.186024 4.000923 -2.323632 3.162278 -3.162278 
C 2.323632 -4.000923 1.186024 -4.472136 0 -4.472136 
C -1.186024 -4.472136 -2.323632 -4.000923 -3.162278 -3.162278 
C -4.000923 -2.323632 -4.472136 -1.186024 -4.472136 0 
C -4.472136 1.186024 -4.000923 2.323632 -3.162278 3.162278 
C -2.323632 4.000923 -1.186024 4.472136 0 4.472136 
z
" style="stroke: #ffffff; stroke-width: 0.357771"/>
     </defs>
     <g>
      <use xlink:href="#m0cc13c9ce0" x="70.378125" y="152.841562" style="fill: #333333; stroke: #ffffff; stroke-width: 0.357771"/>
     </g>
    </g>
    <g id="text_20">
     <!-- 1024 -->
     <g transform="translate(88.378125 156.341562) scale(0.1 -0.1)">
      <defs>
       <path id="DejaVuSans-34" d="M 2419 4116 
L 825 1625 
L 2419 1625 
L 2419 4116 
z
M 2253 4666 
L 3047 4666 
L 3047 1625 
L 3713 1625 
L 3713 1100 
L 3047 1100 
L 3047 0 
L 2419 0 
L 2419 1100 
L 313 1100 
L 313 1709 
L 2253 4666 
z
" transform="scale(0.015625)"/>
      </defs>
      <use xlink:href="#DejaVuSans-31"/>
      <use xlink:href="#DejaVuSans-30" transform="translate(63.623047 0)"/>
      <use xlink:href="#DejaVuSans-32" transform="translate(127.246094 0)"/>
      <use xlink:href="#DejaVuSans-34" transform="translate(190.869141 0)"/>
     </g>
    </g>
    <g id="line2d_113">
     <defs>
      <path id="m9826404e41" d="M 0 6.123724 
C 1.624031 6.123724 3.181764 5.47849 4.330127 4.330127 
C 5.47849 3.181764 6.123724 1.624031 6.123724 0 
C 6.123724 -1.624031 5.47849 -3.181764 4.330127 -4.330127 
C 3.181764 -5.47849 1.624031 -6.123724 0 -6.123724 
C -1.624031 -6.123724 -3.181764 -5.47849 -4.330127 -4.330127 
C -5.47849 -3.181764 -6.123724 -1.624031 -6.123724 0 
C -6.123724 1.624031 -5.47849 3.181764 -4.330127 4.330127 
C -3.181764 5.47849 -1.624031 6.123724 0 6.123724 
z
" style="stroke: #ffffff; stroke-width: 0.357771"/>
     </defs>
     <g>
      <use xlink:href="#m9826404e41" x="70.378125" y="167.519687" style="fill: #333333; stroke: #ffffff; stroke-width: 0.357771"/>
     </g>
    </g>
    <g id="text_21">
     <!-- 8192 -->
     <g transform="translate(88.378125 171.019687) scale(0.1 -0.1)">
      <defs>
       <path id="DejaVuSans-39" d="M 703 97 
L 703 672 
Q 941 559 1184 500 
Q 1428 441 1663 441 
Q 2288 441 2617 861 
Q 2947 1281 2994 2138 
Q 2813 1869 2534 1725 
Q 2256 1581 1919 1581 
Q 1219 1581 811 2004 
Q 403 2428 403 3163 
Q 403 3881 828 4315 
Q 1253 4750 1959 4750 
Q 2769 4750 3195 4129 
Q 3622 3509 3622 2328 
Q 3622 1225 3098 567 
Q 2575 -91 1691 -91 
Q 1453 -91 1209 -44 
Q 966 3 703 97 
z
M 1959 2075 
Q 2384 2075 2632 2365 
Q 2881 2656 2881 3163 
Q 2881 3666 2632 3958 
Q 2384 4250 1959 4250 
Q 1534 4250 1286 3958 
Q 1038 3666 1038 3163 
Q 1038 2656 1286 2365 
Q 1534 2075 1959 2075 
z
" transform="scale(0.015625)"/>
      </defs>
      <use xlink:href="#DejaVuSans-38"/>
      <use xlink:href="#DejaVuSans-31" transform="translate(63.623047 0)"/>
      <use xlink:href="#DejaVuSans-39" transform="translate(127.246094 0)"/>
      <use xlink:href="#DejaVuSans-32" transform="translate(190.869141 0)"/>
     </g>
    </g>
    <g id="line2d_114">
     <defs>
      <path id="m5bc6b1625c" d="M 0 7.071068 
C 1.875269 7.071068 3.673985 6.326016 5 5 
C 6.326016 3.673985 7.071068 1.875269 7.071068 0 
C 7.071068 -1.875269 6.326016 -3.673985 5 -5 
C 3.673985 -6.326016 1.875269 -7.071068 0 -7.071068 
C -1.875269 -7.071068 -3.673985 -6.326016 -5 -5 
C -6.326016 -3.673985 -7.071068 -1.875269 -7.071068 0 
C -7.071068 1.875269 -6.326016 3.673985 -5 5 
C -3.673985 6.326016 -1.875269 7.071068 0 7.071068 
z
" style="stroke: #ffffff; stroke-width: 0.357771"/>
     </defs>
     <g>
      <use xlink:href="#m5bc6b1625c" x="70.378125" y="182.197812" style="fill: #333333; stroke: #ffffff; stroke-width: 0.357771"/>
     </g>
    </g>
    <g id="text_22">
     <!-- 16384 -->
     <g transform="translate(88.378125 185.697812) scale(0.1 -0.1)">
      <defs>
       <path id="DejaVuSans-36" d="M 2113 2584 
Q 1688 2584 1439 2293 
Q 1191 2003 1191 1497 
Q 1191 994 1439 701 
Q 1688 409 2113 409 
Q 2538 409 2786 701 
Q 3034 994 3034 1497 
Q 3034 2003 2786 2293 
Q 2538 2584 2113 2584 
z
M 3366 4563 
L 3366 3988 
Q 3128 4100 2886 4159 
Q 2644 4219 2406 4219 
Q 1781 4219 1451 3797 
Q 1122 3375 1075 2522 
Q 1259 2794 1537 2939 
Q 1816 3084 2150 3084 
Q 2853 3084 3261 2657 
Q 3669 2231 3669 1497 
Q 3669 778 3244 343 
Q 2819 -91 2113 -91 
Q 1303 -91 875 529 
Q 447 1150 447 2328 
Q 447 3434 972 4092 
Q 1497 4750 2381 4750 
Q 2619 4750 2861 4703 
Q 3103 4656 3366 4563 
z
" transform="scale(0.015625)"/>
      </defs>
      <use xlink:href="#DejaVuSans-31"/>
      <use xlink:href="#DejaVuSans-36" transform="translate(63.623047 0)"/>
      <use xlink:href="#DejaVuSans-33" transform="translate(127.246094 0)"/>
      <use xlink:href="#DejaVuSans-38" transform="translate(190.869141 0)"/>
      <use xlink:href="#DejaVuSans-34" transform="translate(254.492188 0)"/>
     </g>
    </g>
    <g id="line2d_115">
     <defs>
      <path id="m42f4016faf" d="M 0 7.905694 
C 2.096615 7.905694 4.10764 7.0727 5.59017 5.59017 
C 7.0727 4.10764 7.905694 2.096615 7.905694 0 
C 7.905694 -2.096615 7.0727 -4.10764 5.59017 -5.59017 
C 4.10764 -7.0727 2.096615 -7.905694 0 -7.905694 
C -2.096615 -7.905694 -4.10764 -7.0727 -5.59017 -5.59017 
C -7.0727 -4.10764 -7.905694 -2.096615 -7.905694 0 
C -7.905694 2.096615 -7.0727 4.10764 -5.59017 5.59017 
C -4.10764 7.0727 -2.096615 7.905694 0 7.905694 
z
" style="stroke: #ffffff; stroke-width: 0.357771"/>
     </defs>
     <g>
      <use xlink:href="#m42f4016faf" x="70.378125" y="196.875937" style="fill: #333333; stroke: #ffffff; stroke-width: 0.357771"/>
     </g>
    </g>
    <g id="text_23">
     <!-- 32768 -->
     <g transform="translate(88.378125 200.375937) scale(0.1 -0.1)">
      <defs>
       <path id="DejaVuSans-37" d="M 525 4666 
L 3525 4666 
L 3525 4397 
L 1831 0 
L 1172 0 
L 2766 4134 
L 525 4134 
L 525 4666 
z
" transform="scale(0.015625)"/>
      </defs>
      <use xlink:href="#DejaVuSans-33"/>
      <use xlink:href="#DejaVuSans-32" transform="translate(63.623047 0)"/>
      <use xlink:href="#DejaVuSans-37" transform="translate(127.246094 0)"/>
      <use xlink:href="#DejaVuSans-36" transform="translate(190.869141 0)"/>
      <use xlink:href="#DejaVuSans-38" transform="translate(254.492188 0)"/>
     </g>
    </g>
    <g id="line2d_116"/>
    <g id="text_24">
     <!-- type -->
     <g transform="translate(88.378125 215.054062) scale(0.1 -0.1)">
      <defs>
       <path id="DejaVuSans-79" d="M 2059 -325 
Q 1816 -950 1584 -1140 
Q 1353 -1331 966 -1331 
L 506 -1331 
L 506 -850 
L 844 -850 
Q 1081 -850 1212 -737 
Q 1344 -625 1503 -206 
L 1606 56 
L 191 3500 
L 800 3500 
L 1894 763 
L 2988 3500 
L 3597 3500 
L 2059 -325 
z
" transform="scale(0.015625)"/>
      </defs>
      <use xlink:href="#DejaVuSans-74"/>
      <use xlink:href="#DejaVuSans-79" transform="translate(39.208984 0)"/>
      <use xlink:href="#DejaVuSans-70" transform="translate(98.388672 0)"/>
      <use xlink:href="#DejaVuSans-65" transform="translate(161.865234 0)"/>
     </g>
    </g>
    <g id="line2d_117">
     <defs>
      <path id="m7503da21c3" d="M 0 3 
C 0.795609 3 1.55874 2.683901 2.12132 2.12132 
C 2.683901 1.55874 3 0.795609 3 0 
C 3 -0.795609 2.683901 -1.55874 2.12132 -2.12132 
C 1.55874 -2.683901 0.795609 -3 0 -3 
C -0.795609 -3 -1.55874 -2.683901 -2.12132 -2.12132 
C -2.683901 -1.55874 -3 -0.795609 -3 0 
C -3 0.795609 -2.683901 1.55874 -2.12132 2.12132 
C -1.55874 2.683901 -0.795609 3 0 3 
z
" style="stroke: #ffffff; stroke-width: 0.357771"/>
     </defs>
     <g>
      <use xlink:href="#m7503da21c3" x="70.378125" y="226.232187" style="fill: #333333; stroke: #ffffff; stroke-width: 0.357771"/>
     </g>
    </g>
    <g id="text_25">
     <!-- bottom -->
     <g transform="translate(88.378125 229.732187) scale(0.1 -0.1)">
      <use xlink:href="#DejaVuSans-62"/>
      <use xlink:href="#DejaVuSans-6f" transform="translate(63.476562 0)"/>
      <use xlink:href="#DejaVuSans-74" transform="translate(124.658203 0)"/>
      <use xlink:href="#DejaVuSans-74" transform="translate(163.867188 0)"/>
      <use xlink:href="#DejaVuSans-6f" transform="translate(203.076172 0)"/>
      <use xlink:href="#DejaVuSans-6d" transform="translate(264.257812 0)"/>
     </g>
    </g>
    <g id="line2d_118">
     <defs>
      <path id="mcdd0295ef4" d="M 0 -3 
L -0.673542 -0.927051 
L -2.85317 -0.927051 
L -1.089814 0.354102 
L -1.763356 2.427051 
L -0 1.145898 
L 1.763356 2.427051 
L 1.089814 0.354102 
L 2.85317 -0.927051 
L 0.673542 -0.927051 
z
" style="stroke: #ffffff; stroke-width: 0.357771; stroke-linejoin: bevel"/>
     </defs>
     <g>
      <use xlink:href="#mcdd0295ef4" x="70.378125" y="240.910312" style="fill: #333333; stroke: #ffffff; stroke-width: 0.357771; stroke-linejoin: bevel"/>
     </g>
    </g>
    <g id="text_26">
     <!-- bucket -->
     <g transform="translate(88.378125 244.410312) scale(0.1 -0.1)">
      <use xlink:href="#DejaVuSans-62"/>
      <use xlink:href="#DejaVuSans-75" transform="translate(63.476562 0)"/>
      <use xlink:href="#DejaVuSans-63" transform="translate(126.855469 0)"/>
      <use xlink:href="#DejaVuSans-6b" transform="translate(181.835938 0)"/>
      <use xlink:href="#DejaVuSans-65" transform="translate(236.121094 0)"/>
      <use xlink:href="#DejaVuSans-74" transform="translate(297.644531 0)"/>
     </g>
    </g>
   </g>
  </g>
 </g>
 <defs>
  <clipPath id="p2e3f583d66">
   <rect x="51.378125" y="22.318125" width="613.8" height="249.48"/>
  </clipPath>
 </defs>
</svg>
