<?xml version="1.0" encoding="UTF-8" standalone="no"?>
<!DOCTYPE svg PUBLIC "-//W3C//DTD SVG 1.1//EN"
 "http://www.w3.org/Graphics/SVG/1.1/DTD/svg11.dtd">
<!-- Generated by graphviz version 14.1.5 (0)
 -->
<!-- Pages: 1 -->
<svg width="562pt" height="260pt"
 viewBox="0.00 0.00 562.00 260.00" xmlns="http://www.w3.org/2000/svg" xmlns:xlink="http://www.w3.org/1999/xlink">
<g id="graph0" class="graph" transform="scale(1 1) rotate(0) translate(4 256)">
<polygon fill="white" stroke="none" points="-4,4 -4,-256 558.14,-256 558.14,4 -4,4"/>
<!-- Barbell -->
<g id="node1" class="node">
<title>Barbell</title>
<ellipse fill="none" stroke="black" cx="67.1" cy="-234" rx="38.59" ry="18"/>
<text xml:space="preserve" text-anchor="middle" x="67.1" y="-228.57" font-family="Helvetica,sans-Serif" font-size="14.00">Barbell</text>
</g>
<!-- Sassy -->
<g id="node2" class="node">
<title>Sassy</title>
<ellipse fill="none" stroke="black" cx="35.1" cy="-162" rx="35.1" ry="18"/>
<text xml:space="preserve" text-anchor="middle" x="35.1" y="-156.57" font-family="Helvetica,sans-Serif" font-size="14.00">Sassy</text>
</g>
<!-- Barbell&#45;&gt;Sassy -->
<g id="edge1" class="edge">
<title>Barbell&#45;&gt;Sassy</title>
<path fill="none" stroke="black" d="M59.35,-216.05C55.77,-208.23 51.44,-198.75 47.43,-189.98"/>
<polygon fill="black" stroke="black" points="50.74,-188.81 43.4,-181.17 44.37,-191.72 50.74,-188.81"/>
</g>
<!-- pa_types -->
<g id="node3" class="node">
<title>pa_types</title>
<ellipse fill="none" stroke="black" cx="98.1" cy="-90" rx="47.07" ry="18"/>
<text xml:space="preserve" text-anchor="middle" x="98.1" y="-84.58" font-family="Helvetica,sans-Serif" font-size="14.00">pa_types</text>
</g>
<!-- Barbell&#45;&gt;pa_types -->
<g id="edge2" class="edge">
<title>Barbell&#45;&gt;pa_types</title>
<path fill="none" stroke="black" d="M71.04,-215.83C73.41,-205.46 76.46,-191.98 79.1,-180 83.54,-159.81 88.4,-137.02 92.09,-119.55"/>
<polygon fill="black" stroke="black" points="95.49,-120.4 94.13,-109.89 88.64,-118.95 95.49,-120.4"/>
</g>
<!-- Sassy&#45;&gt;pa_types -->
<g id="edge3" class="edge">
<title>Sassy&#45;&gt;pa_types</title>
<path fill="none" stroke="black" d="M49.39,-145.12C57.17,-136.47 66.98,-125.58 75.75,-115.83"/>
<polygon fill="black" stroke="black" points="78.32,-118.21 82.41,-108.43 73.12,-113.52 78.32,-118.21"/>
</g>
<!-- Deacon -->
<g id="node4" class="node">
<title>Deacon</title>
<ellipse fill="none" stroke="black" cx="281.1" cy="-234" rx="41.58" ry="18"/>
<text xml:space="preserve" text-anchor="middle" x="281.1" y="-228.57" font-family="Helvetica,sans-Serif" font-size="14.00">Deacon</text>
</g>
<!-- simd_minimizers -->
<g id="node5" class="node">
<title>simd_minimizers</title>
<ellipse fill="none" stroke="black" cx="335.1" cy="-162" rx="79.01" ry="18"/>
<text xml:space="preserve" text-anchor="middle" x="335.1" y="-156.57" font-family="Helvetica,sans-Serif" font-size="14.00">simd_minimizers</text>
</g>
<!-- Deacon&#45;&gt;simd_minimizers -->
<g id="edge4" class="edge">
<title>Deacon&#45;&gt;simd_minimizers</title>
<path fill="none" stroke="black" d="M293.89,-216.41C300.19,-208.25 307.93,-198.22 314.99,-189.07"/>
<polygon fill="black" stroke="black" points="317.75,-191.21 321.09,-181.15 312.21,-186.93 317.75,-191.21"/>
</g>
<!-- packed_seq -->
<g id="node6" class="node">
<title>packed_seq</title>
<ellipse fill="none" stroke="black" cx="374.1" cy="-18" rx="59.05" ry="18"/>
<text xml:space="preserve" text-anchor="middle" x="374.1" y="-12.57" font-family="Helvetica,sans-Serif" font-size="14.00">packed_seq</text>
</g>
<!-- Deacon&#45;&gt;packed_seq -->
<g id="edge5" class="edge">
<title>Deacon&#45;&gt;packed_seq</title>
<path fill="none" stroke="black" d="M267.26,-216.8C253.72,-198.87 236.55,-169.17 247.1,-144 265.73,-99.52 308.75,-62.86 339.56,-40.99"/>
<polygon fill="black" stroke="black" points="341.2,-44.11 347.44,-35.55 337.23,-38.35 341.2,-44.11"/>
</g>
<!-- simd_minimizers&#45;&gt;packed_seq -->
<g id="edge7" class="edge">
<title>simd_minimizers&#45;&gt;packed_seq</title>
<path fill="none" stroke="black" d="M337.98,-143.75C341.19,-125.68 346.89,-96.56 354.1,-72 356.57,-63.57 359.76,-54.56 362.85,-46.41"/>
<polygon fill="black" stroke="black" points="366.01,-47.96 366.4,-37.37 359.49,-45.41 366.01,-47.96"/>
</g>
<!-- seq_hash -->
<g id="node7" class="node">
<title>seq_hash</title>
<ellipse fill="none" stroke="black" cx="413.1" cy="-90" rx="49.57" ry="18"/>
<text xml:space="preserve" text-anchor="middle" x="413.1" y="-84.58" font-family="Helvetica,sans-Serif" font-size="14.00">seq_hash</text>
</g>
<!-- simd_minimizers&#45;&gt;seq_hash -->
<g id="edge6" class="edge">
<title>simd_minimizers&#45;&gt;seq_hash</title>
<path fill="none" stroke="black" d="M353.98,-144.05C363.87,-135.18 376.13,-124.17 386.93,-114.49"/>
<polygon fill="black" stroke="black" points="388.96,-117.36 394.07,-108.08 384.29,-112.15 388.96,-117.36"/>
</g>
<!-- seq_hash&#45;&gt;packed_seq -->
<g id="edge8" class="edge">
<title>seq_hash&#45;&gt;packed_seq</title>
<path fill="none" stroke="black" d="M403.66,-72.05C399.25,-64.14 393.9,-54.54 388.96,-45.69"/>
<polygon fill="black" stroke="black" points="392.11,-44.14 384.19,-37.11 386,-47.55 392.11,-44.14"/>
</g>
<!-- simd_sketch -->
<g id="node8" class="node">
<title>simd_sketch</title>
<ellipse fill="none" stroke="black" cx="493.1" cy="-162" rx="61.04" ry="18"/>
<text xml:space="preserve" text-anchor="middle" x="493.1" y="-156.57" font-family="Helvetica,sans-Serif" font-size="14.00">simd_sketch</text>
</g>
<!-- simd_sketch&#45;&gt;packed_seq -->
<g id="edge9" class="edge">
<title>simd_sketch&#45;&gt;packed_seq</title>
<path fill="none" stroke="black" d="M493.09,-143.84C492.24,-124.51 488.21,-93.05 472.1,-72 459.91,-56.08 441.52,-44.36 423.96,-36.05"/>
<polygon fill="black" stroke="black" points="425.71,-33 415.15,-32.16 422.88,-39.41 425.71,-33"/>
</g>
<!-- simd_sketch&#45;&gt;seq_hash -->
<g id="edge10" class="edge">
<title>simd_sketch&#45;&gt;seq_hash</title>
<path fill="none" stroke="black" d="M474.14,-144.41C463.93,-135.48 451.16,-124.31 439.95,-114.5"/>
<polygon fill="black" stroke="black" points="442.34,-111.94 432.51,-107.98 437.73,-117.2 442.34,-111.94"/>
</g>
<!-- A*PA2 -->
<g id="node9" class="node">
<title>A*PA2</title>
<ellipse fill="none" stroke="black" cx="163.1" cy="-162" rx="37.09" ry="18"/>
<text xml:space="preserve" text-anchor="middle" x="163.1" y="-156.57" font-family="Helvetica,sans-Serif" font-size="14.00">A*PA2</text>
</g>
<!-- A*PA2&#45;&gt;pa_types -->
<g id="edge11" class="edge">
<title>A*PA2&#45;&gt;pa_types</title>
<path fill="none" stroke="black" d="M148.35,-145.12C140.23,-136.38 130,-125.35 120.88,-115.54"/>
<polygon fill="black" stroke="black" points="123.64,-113.36 114.27,-108.42 118.51,-118.13 123.64,-113.36"/>
</g>
</g>
</svg>
