<?xml version="1.0" encoding="utf-8" standalone="no"?>
<!DOCTYPE svg PUBLIC "-//W3C//DTD SVG 1.1//EN"
  "http://www.w3.org/Graphics/SVG/1.1/DTD/svg11.dtd">
<svg xmlns:xlink="http://www.w3.org/1999/xlink" width="494.203125pt" height="392.514375pt" viewBox="0 0 494.203125 392.514375" xmlns="http://www.w3.org/2000/svg" version="1.1">
 <metadata>
  <rdf:RDF xmlns:dc="http://purl.org/dc/elements/1.1/" xmlns:cc="http://creativecommons.org/ns#" xmlns:rdf="http://www.w3.org/1999/02/22-rdf-syntax-ns#">
   <cc:Work>
    <dc:type rdf:resource="http://purl.org/dc/dcmitype/StillImage"/>
    <dc:date>2024-12-18T05:45:16.028150</dc:date>
    <dc:format>image/svg+xml</dc:format>
    <dc:creator>
     <cc:Agent>
      <dc:title>Matplotlib v3.9.3, https://matplotlib.org/</dc:title>
     </cc:Agent>
    </dc:creator>
   </cc:Work>
  </rdf:RDF>
 </metadata>
 <defs>
  <style type="text/css">*{stroke-linejoin: round; stroke-linecap: butt}</style>
 </defs>
 <g id="figure_1">
  <g id="patch_1">
   <path d="M 0 392.514375 
L 494.203125 392.514375 
L 494.203125 0 
L 0 0 
z
" style="fill: #ffffff"/>
  </g>
  <g id="axes_1">
   <g id="patch_2">
    <path d="M 40.603125 354.958125 
L 487.003125 354.958125 
L 487.003125 22.318125 
L 40.603125 22.318125 
z
" style="fill: #ffffff"/>
   </g>
   <g id="line2d_1">
    <path d="M 112.239523 354.958125 
L 112.239523 22.318125 
" clip-path="url(#p597a77b227)" style="fill: none; stroke-dasharray: 5.55,2.4; stroke-dashoffset: 0; stroke: #ff0000; stroke-width: 1.5"/>
   </g>
   <g id="line2d_2">
    <path d="M 189.257756 354.958125 
L 189.257756 22.318125 
" clip-path="url(#p597a77b227)" style="fill: none; stroke-dasharray: 5.55,2.4; stroke-dashoffset: 0; stroke: #ff0000; stroke-width: 1.5"/>
   </g>
   <g id="line2d_3">
    <path d="M 332.63907 354.958125 
L 332.63907 22.318125 
" clip-path="url(#p597a77b227)" style="fill: none; stroke-dasharray: 5.55,2.4; stroke-dashoffset: 0; stroke: #ff0000; stroke-width: 1.5"/>
   </g>
   <g id="PolyCollection_1">
    <defs>
     <path id="m5109da9834" d="M 60.894034 -43.620568 
L 60.894034 -43.598865 
L 69.158812 -43.600135 
L 75.911627 -43.601456 
L 81.621051 -43.600644 
L 86.566778 -43.599309 
L 94.831556 -43.602938 
L 101.584371 -43.602391 
L 107.293795 -43.600914 
L 112.239523 -43.604138 
L 120.5043 -55.677295 
L 127.257116 -55.67694 
L 132.966539 -55.683422 
L 137.912267 -55.677263 
L 146.177045 -55.680271 
L 152.92986 -55.678905 
L 158.639284 -55.683657 
L 163.585012 -55.681176 
L 171.849789 -55.688253 
L 178.602604 -55.682435 
L 184.312028 -55.72368 
L 189.257756 -55.757853 
L 197.522534 -79.005946 
L 204.275349 -83.220744 
L 209.984772 -85.22128 
L 214.9305 -87.316551 
L 223.195278 -89.598615 
L 229.948093 -91.110328 
L 235.657517 -92.493531 
L 240.603245 -93.447514 
L 248.868022 -94.433001 
L 255.620837 -95.118541 
L 261.330261 -95.582543 
L 266.275989 -95.934125 
L 274.540767 -96.56879 
L 281.293582 -96.784042 
L 287.003005 -97.005617 
L 291.948733 -97.204314 
L 300.213511 -97.546343 
L 306.966326 -99.48699 
L 312.67575 -100.122976 
L 317.621478 -101.89422 
L 325.886255 -104.609422 
L 332.63907 -172.948414 
L 338.348494 -198.671239 
L 343.294222 -231.582559 
L 351.559 -266.935041 
L 358.311815 -290.347997 
L 364.021238 -304.540373 
L 368.966966 -313.164551 
L 377.231744 -320.204315 
L 383.984559 -321.796927 
L 389.693983 -321.39823 
L 394.639711 -322.88856 
L 402.904488 -325.981585 
L 409.657303 -329.284296 
L 415.366727 -332.618869 
L 420.312455 -333.93947 
L 428.577233 -336.246007 
L 435.330048 -338.800776 
L 441.039472 -339.899392 
L 445.985199 -341.19962 
L 454.249977 -343.536951 
L 461.002792 -344.248794 
L 466.712216 -344.726841 
L 466.712216 -345.513753 
L 466.712216 -345.513753 
L 461.002792 -345.224948 
L 454.249977 -344.154224 
L 445.985199 -343.009691 
L 441.039472 -340.224849 
L 435.330048 -339.555278 
L 428.577233 -336.825984 
L 420.312455 -334.709002 
L 415.366727 -333.541902 
L 409.657303 -330.508722 
L 402.904488 -327.427562 
L 394.639711 -324.309223 
L 389.693983 -322.42029 
L 383.984559 -322.146158 
L 377.231744 -321.086086 
L 368.966966 -313.556485 
L 364.021238 -305.027313 
L 358.311815 -291.69786 
L 351.559 -280.999656 
L 343.294222 -238.218815 
L 338.348494 -217.750745 
L 332.63907 -176.543928 
L 325.886255 -167.409546 
L 317.621478 -106.593989 
L 312.67575 -106.44553 
L 306.966326 -107.501486 
L 300.213511 -98.914409 
L 291.948733 -98.058132 
L 287.003005 -97.809043 
L 281.293582 -97.232011 
L 274.540767 -97.714814 
L 266.275989 -96.378957 
L 261.330261 -95.854399 
L 255.620837 -95.326555 
L 248.868022 -95.686767 
L 240.603245 -93.52182 
L 235.657517 -92.535989 
L 229.948093 -92.412492 
L 223.195278 -89.670025 
L 214.9305 -87.419822 
L 209.984772 -85.348106 
L 204.275349 -83.287353 
L 197.522534 -79.119157 
L 189.257756 -55.887682 
L 184.312028 -55.83531 
L 178.602604 -55.785471 
L 171.849789 -55.776859 
L 163.585012 -55.747213 
L 158.639284 -55.744762 
L 152.92986 -55.740843 
L 146.177045 -55.743098 
L 137.912267 -55.721832 
L 132.966539 -56.941129 
L 127.257116 -55.724643 
L 120.5043 -55.72373 
L 112.239523 -43.636256 
L 107.293795 -43.634705 
L 101.584371 -43.632304 
L 94.831556 -43.693331 
L 86.566778 -43.620247 
L 81.621051 -43.625915 
L 75.911627 -43.621758 
L 69.158812 -43.623654 
L 60.894034 -43.620568 
z
" style="stroke: #000000; stroke-opacity: 0.2"/>
    </defs>
    <g clip-path="url(#p597a77b227)">
     <use xlink:href="#m5109da9834" x="0" y="392.514375" style="fill-opacity: 0.2; stroke: #000000; stroke-opacity: 0.2"/>
    </g>
   </g>
   <g id="PolyCollection_2">
    <defs>
     <path id="m14e836aa81" d="M 60.894034 -38.497446 
L 60.894034 -38.495201 
L 69.158812 -38.489277 
L 75.911627 -38.483907 
L 81.621051 -38.483648 
L 86.566778 -38.485633 
L 94.831556 -38.483688 
L 101.584371 -38.485581 
L 107.293795 -38.483716 
L 112.239523 -38.498208 
L 120.5043 -40.47186 
L 127.257116 -40.198175 
L 132.966539 -40.668764 
L 137.912267 -40.463578 
L 146.177045 -40.600334 
L 152.92986 -40.528724 
L 158.639284 -40.582874 
L 163.585012 -40.484089 
L 171.849789 -40.583596 
L 178.602604 -40.427396 
L 184.312028 -40.46977 
L 189.257756 -40.327288 
L 197.522534 -42.468891 
L 204.275349 -43.394953 
L 209.984772 -43.731462 
L 214.9305 -43.947516 
L 223.195278 -44.20757 
L 229.948093 -44.350747 
L 235.657517 -44.462756 
L 240.603245 -44.531201 
L 248.868022 -44.621269 
L 255.620837 -44.677385 
L 261.330261 -44.713519 
L 266.275989 -44.746587 
L 274.540767 -44.779932 
L 281.293582 -44.797137 
L 287.003005 -44.820883 
L 291.948733 -44.835138 
L 300.213511 -44.876761 
L 306.966326 -44.980655 
L 312.67575 -45.294382 
L 317.621478 -45.488256 
L 325.886255 -47.630279 
L 332.63907 -52.893168 
L 338.348494 -53.182713 
L 343.294222 -54.777012 
L 351.559 -56.70422 
L 358.311815 -58.475936 
L 364.021238 -59.778676 
L 368.966966 -60.821874 
L 377.231744 -62.297736 
L 383.984559 -63.293242 
L 389.693983 -63.993828 
L 394.639711 -64.536617 
L 402.904488 -65.211406 
L 409.657303 -65.681331 
L 415.366727 -65.98392 
L 420.312455 -66.245252 
L 428.577233 -66.646189 
L 435.330048 -66.824203 
L 441.039472 -66.983041 
L 445.985199 -67.078985 
L 454.249977 -67.245007 
L 461.002792 -67.327496 
L 466.712216 -67.407024 
L 466.712216 -67.436212 
L 466.712216 -67.436212 
L 461.002792 -67.348192 
L 454.249977 -68.419561 
L 445.985199 -67.11374 
L 441.039472 -66.993374 
L 435.330048 -66.863845 
L 428.577233 -67.528343 
L 420.312455 -66.2544 
L 415.366727 -66.064079 
L 409.657303 -65.701801 
L 402.904488 -65.239328 
L 394.639711 -65.695487 
L 389.693983 -64.900478 
L 383.984559 -63.349531 
L 377.231744 -62.34441 
L 368.966966 -60.99636 
L 364.021238 -59.861298 
L 358.311815 -58.737888 
L 351.559 -57.453298 
L 343.294222 -54.936327 
L 338.348494 -53.427959 
L 332.63907 -54.008077 
L 325.886255 -53.816115 
L 317.621478 -47.825893 
L 312.67575 -48.068559 
L 306.966326 -48.321666 
L 300.213511 -45.171243 
L 291.948733 -44.857378 
L 287.003005 -44.831821 
L 281.293582 -44.810661 
L 274.540767 -44.78397 
L 266.275989 -44.761574 
L 261.330261 -44.723946 
L 255.620837 -44.79237 
L 248.868022 -44.741937 
L 240.603245 -44.53417 
L 235.657517 -44.572946 
L 229.948093 -44.366622 
L 223.195278 -44.212523 
L 214.9305 -43.962051 
L 209.984772 -44.947875 
L 204.275349 -43.402894 
L 197.522534 -42.471892 
L 189.257756 -40.341366 
L 184.312028 -40.515907 
L 178.602604 -40.602223 
L 171.849789 -40.742193 
L 163.585012 -40.774673 
L 158.639284 -40.803302 
L 152.92986 -40.718895 
L 146.177045 -40.812626 
L 137.912267 -40.659245 
L 132.966539 -40.85338 
L 127.257116 -40.465093 
L 120.5043 -40.840216 
L 112.239523 -38.500287 
L 107.293795 -38.486879 
L 101.584371 -38.485862 
L 94.831556 -38.48558 
L 86.566778 -38.486338 
L 81.621051 -38.486534 
L 75.911627 -38.487693 
L 69.158812 -38.500732 
L 60.894034 -38.497446 
z
" style="stroke: #7f7f7f; stroke-opacity: 0.2"/>
    </defs>
    <g clip-path="url(#p597a77b227)">
     <use xlink:href="#m14e836aa81" x="0" y="392.514375" style="fill: #7f7f7f; fill-opacity: 0.2; stroke: #7f7f7f; stroke-opacity: 0.2"/>
    </g>
   </g>
   <g id="PolyCollection_3">
    <defs>
     <path id="m052b1bb6f0" d="M 60.894034 -52.799905 
L 60.894034 -52.783753 
L 69.158812 -52.776601 
L 75.911627 -52.77638 
L 81.621051 -52.781609 
L 86.566778 -52.779972 
L 94.831556 -52.823662 
L 101.584371 -52.813743 
L 107.293795 -52.834994 
L 112.239523 -52.826479 
L 120.5043 -54.279215 
L 127.257116 -54.301226 
L 132.966539 -54.31028 
L 137.912267 -54.295466 
L 146.177045 -54.301498 
L 152.92986 -54.312819 
L 158.639284 -54.326833 
L 163.585012 -54.327276 
L 171.849789 -54.371078 
L 178.602604 -54.372861 
L 184.312028 -54.356927 
L 189.257756 -54.355715 
L 197.522534 -61.299474 
L 204.275349 -62.552349 
L 209.984772 -62.966463 
L 214.9305 -63.571584 
L 223.195278 -64.298548 
L 229.948093 -64.800698 
L 235.657517 -65.168653 
L 240.603245 -65.382144 
L 248.868022 -65.695226 
L 255.620837 -65.928875 
L 261.330261 -66.014499 
L 266.275989 -66.184204 
L 274.540767 -66.3567 
L 281.293582 -66.460401 
L 287.003005 -66.620083 
L 291.948733 -66.74404 
L 300.213511 -67.092921 
L 306.966326 -67.292329 
L 312.67575 -67.495797 
L 317.621478 -67.663047 
L 325.886255 -72.078153 
L 332.63907 -84.410211 
L 338.348494 -102.409878 
L 343.294222 -110.711872 
L 351.559 -119.363296 
L 358.311815 -123.844568 
L 364.021238 -125.847103 
L 368.966966 -127.546567 
L 377.231744 -130.139011 
L 383.984559 -130.372412 
L 389.693983 -131.640455 
L 394.639711 -132.021639 
L 402.904488 -133.622954 
L 409.657303 -134.431618 
L 415.366727 -135.114844 
L 420.312455 -135.841258 
L 428.577233 -136.719124 
L 435.330048 -137.211804 
L 441.039472 -137.587594 
L 445.985199 -138.156365 
L 454.249977 -139.467348 
L 461.002792 -138.821817 
L 466.712216 -139.005785 
L 466.712216 -139.27132 
L 466.712216 -139.27132 
L 461.002792 -139.286724 
L 454.249977 -139.833084 
L 445.985199 -138.347287 
L 441.039472 -137.917238 
L 435.330048 -137.332393 
L 428.577233 -137.14744 
L 420.312455 -135.949508 
L 415.366727 -135.57069 
L 409.657303 -135.771268 
L 402.904488 -133.81796 
L 394.639711 -132.827641 
L 389.693983 -132.523488 
L 383.984559 -132.185273 
L 377.231744 -131.892835 
L 368.966966 -130.383318 
L 364.021238 -127.456402 
L 358.311815 -124.964991 
L 351.559 -122.219737 
L 343.294222 -112.917723 
L 338.348494 -110.59921 
L 332.63907 -107.156469 
L 325.886255 -108.600301 
L 317.621478 -92.216067 
L 312.67575 -85.197015 
L 306.966326 -75.528005 
L 300.213511 -67.336381 
L 291.948733 -66.885419 
L 287.003005 -66.711678 
L 281.293582 -66.52274 
L 274.540767 -66.381644 
L 266.275989 -66.202922 
L 261.330261 -66.105986 
L 255.620837 -65.997263 
L 248.868022 -65.724393 
L 240.603245 -66.91949 
L 235.657517 -65.221631 
L 229.948093 -64.843653 
L 223.195278 -65.670148 
L 214.9305 -63.655742 
L 209.984772 -63.00352 
L 204.275349 -62.577093 
L 197.522534 -62.534397 
L 189.257756 -54.403278 
L 184.312028 -54.407639 
L 178.602604 -54.424299 
L 171.849789 -54.389894 
L 163.585012 -54.360407 
L 158.639284 -54.354377 
L 152.92986 -54.340844 
L 146.177045 -54.329337 
L 137.912267 -54.395035 
L 132.966539 -54.384437 
L 127.257116 -54.32179 
L 120.5043 -54.295159 
L 112.239523 -52.84467 
L 107.293795 -52.844735 
L 101.584371 -52.827489 
L 94.831556 -52.839113 
L 86.566778 -52.793502 
L 81.621051 -52.832388 
L 75.911627 -52.785867 
L 69.158812 -52.784998 
L 60.894034 -52.799905 
z
" style="stroke: #ff7f0e; stroke-opacity: 0.2"/>
    </defs>
    <g clip-path="url(#p597a77b227)">
     <use xlink:href="#m052b1bb6f0" x="0" y="392.514375" style="fill: #ff7f0e; fill-opacity: 0.2; stroke: #ff7f0e; stroke-opacity: 0.2"/>
    </g>
   </g>
   <g id="PolyCollection_4">
    <defs>
     <path id="m8a067ab954" d="M 60.894034 -63.111477 
L 60.894034 -63.086575 
L 69.158812 -63.031459 
L 75.911627 -63.091801 
L 81.621051 -63.054087 
L 86.566778 -63.041868 
L 94.831556 -63.10546 
L 101.584371 -63.175768 
L 107.293795 -63.185048 
L 112.239523 -63.130523 
L 120.5043 -66.176533 
L 127.257116 -66.147141 
L 132.966539 -66.187631 
L 137.912267 -66.169049 
L 146.177045 -66.228175 
L 152.92986 -66.171426 
L 158.639284 -66.143465 
L 163.585012 -66.25236 
L 171.849789 -66.211619 
L 178.602604 -66.262076 
L 184.312028 -66.292744 
L 189.257756 -66.267628 
L 197.522534 -77.57881 
L 204.275349 -79.721459 
L 209.984772 -80.320738 
L 214.9305 -81.540752 
L 223.195278 -82.606942 
L 229.948093 -83.359167 
L 235.657517 -83.910151 
L 240.603245 -84.259119 
L 248.868022 -84.763001 
L 255.620837 -84.985566 
L 261.330261 -85.220862 
L 266.275989 -85.382005 
L 274.540767 -85.648759 
L 281.293582 -85.809786 
L 287.003005 -86.074795 
L 291.948733 -86.347365 
L 300.213511 -86.741359 
L 306.966326 -86.971611 
L 312.67575 -87.256471 
L 317.621478 -87.563996 
L 325.886255 -93.569342 
L 332.63907 -109.950919 
L 338.348494 -145.054404 
L 343.294222 -158.08105 
L 351.559 -178.256224 
L 358.311815 -183.992282 
L 364.021238 -190.103506 
L 368.966966 -195.832379 
L 377.231744 -198.851823 
L 383.984559 -199.555896 
L 389.693983 -200.60058 
L 394.639711 -200.242831 
L 402.904488 -201.929101 
L 409.657303 -203.352828 
L 415.366727 -204.789117 
L 420.312455 -205.78745 
L 428.577233 -207.16902 
L 435.330048 -208.073508 
L 441.039472 -209.005183 
L 445.985199 -209.437265 
L 454.249977 -210.473339 
L 461.002792 -211.198353 
L 466.712216 -211.300955 
L 466.712216 -212.31414 
L 466.712216 -212.31414 
L 461.002792 -211.898819 
L 454.249977 -210.553793 
L 445.985199 -211.171329 
L 441.039472 -209.888417 
L 435.330048 -208.71193 
L 428.577233 -207.436644 
L 420.312455 -206.919952 
L 415.366727 -205.466581 
L 409.657303 -204.804741 
L 402.904488 -203.124083 
L 394.639711 -200.98974 
L 389.693983 -200.978214 
L 383.984559 -200.439083 
L 377.231744 -199.125781 
L 368.966966 -196.478329 
L 364.021238 -190.345939 
L 358.311815 -184.714838 
L 351.559 -178.632839 
L 343.294222 -167.477757 
L 338.348494 -148.248673 
L 332.63907 -151.176426 
L 325.886255 -124.782638 
L 317.621478 -94.588906 
L 312.67575 -95.082491 
L 306.966326 -96.720188 
L 300.213511 -86.951176 
L 291.948733 -86.493175 
L 287.003005 -86.233045 
L 281.293582 -85.911486 
L 274.540767 -85.760317 
L 266.275989 -85.524764 
L 261.330261 -85.330794 
L 255.620837 -86.329606 
L 248.868022 -84.787189 
L 240.603245 -84.298629 
L 235.657517 -84.014987 
L 229.948093 -83.417776 
L 223.195278 -82.670719 
L 214.9305 -82.75713 
L 209.984772 -80.413794 
L 204.275349 -79.793733 
L 197.522534 -77.699872 
L 189.257756 -66.307248 
L 184.312028 -67.620956 
L 178.602604 -66.380221 
L 171.849789 -66.331953 
L 163.585012 -66.338751 
L 158.639284 -66.255181 
L 152.92986 -66.278422 
L 146.177045 -66.260049 
L 137.912267 -66.255279 
L 132.966539 -66.239398 
L 127.257116 -66.309873 
L 120.5043 -66.248621 
L 112.239523 -63.234416 
L 107.293795 -63.221546 
L 101.584371 -64.461568 
L 94.831556 -63.184536 
L 86.566778 -63.098028 
L 81.621051 -63.107267 
L 75.911627 -63.104946 
L 69.158812 -63.093786 
L 60.894034 -63.111477 
z
" style="stroke: #2ca02c; stroke-opacity: 0.2"/>
    </defs>
    <g clip-path="url(#p597a77b227)">
     <use xlink:href="#m8a067ab954" x="0" y="392.514375" style="fill: #2ca02c; fill-opacity: 0.2; stroke: #2ca02c; stroke-opacity: 0.2"/>
    </g>
   </g>
   <g id="PolyCollection_5">
    <defs>
     <path id="ma4106a38a4" d="M 60.894034 -85.771739 
L 60.894034 -85.528956 
L 69.158812 -85.504934 
L 75.911627 -85.507174 
L 81.621051 -85.495691 
L 86.566778 -85.736871 
L 94.831556 -85.721888 
L 101.584371 -85.755833 
L 107.293795 -85.782224 
L 112.239523 -85.636881 
L 120.5043 -91.870269 
L 127.257116 -91.810463 
L 132.966539 -91.833707 
L 137.912267 -92.006728 
L 146.177045 -91.805004 
L 152.92986 -92.030778 
L 158.639284 -91.893415 
L 163.585012 -91.905079 
L 171.849789 -91.836326 
L 178.602604 -91.817357 
L 184.312028 -91.939859 
L 189.257756 -91.978972 
L 197.522534 -110.516768 
L 204.275349 -114.09262 
L 209.984772 -115.073204 
L 214.9305 -116.89027 
L 223.195278 -118.78182 
L 229.948093 -120.184134 
L 235.657517 -121.09374 
L 240.603245 -121.565633 
L 248.868022 -122.596678 
L 255.620837 -123.351915 
L 261.330261 -123.868608 
L 266.275989 -124.018008 
L 274.540767 -124.382782 
L 281.293582 -124.614641 
L 287.003005 -124.619932 
L 291.948733 -125.098116 
L 300.213511 -125.139178 
L 306.966326 -125.335704 
L 312.67575 -125.483551 
L 317.621478 -125.557145 
L 325.886255 -136.356987 
L 332.63907 -161.022054 
L 338.348494 -227.966204 
L 343.294222 -287.650147 
L 351.559 -300.049737 
L 358.311815 -320.914178 
L 364.021238 -332.942191 
L 368.966966 -343.018632 
L 377.231744 -345.300087 
L 383.984559 -347.94505 
L 389.693983 -350.932353 
L 394.639711 -354.15549 
L 402.904488 -359.916153 
L 409.657303 -362.802262 
L 415.366727 -366.030454 
L 420.312455 -367.92347 
L 428.577233 -372.35058 
L 435.330048 -374.794201 
L 441.039472 -375.296086 
L 445.985199 -376.998536 
L 454.249977 -378.791693 
L 461.002792 -380.338678 
L 466.712216 -381.088665 
L 466.712216 -381.771369 
L 466.712216 -381.771369 
L 461.002792 -381.457405 
L 454.249977 -379.746619 
L 445.985199 -378.135911 
L 441.039472 -376.569541 
L 435.330048 -375.589473 
L 428.577233 -373.315793 
L 420.312455 -369.601838 
L 415.366727 -366.71493 
L 409.657303 -363.318752 
L 402.904488 -360.49188 
L 394.639711 -355.211459 
L 389.693983 -355.193836 
L 383.984559 -354.424983 
L 377.231744 -352.16656 
L 368.966966 -348.059309 
L 364.021238 -336.869098 
L 358.311815 -323.452794 
L 351.559 -312.052882 
L 343.294222 -305.55712 
L 338.348494 -293.091618 
L 332.63907 -284.857753 
L 325.886255 -262.42654 
L 317.621478 -196.6777 
L 312.67575 -170.529183 
L 306.966326 -141.632118 
L 300.213511 -127.284686 
L 291.948733 -126.419648 
L 287.003005 -125.844108 
L 281.293582 -125.51152 
L 274.540767 -126.320805 
L 266.275989 -125.346341 
L 261.330261 -125.055769 
L 255.620837 -123.58705 
L 248.868022 -122.881578 
L 240.603245 -121.86128 
L 235.657517 -121.229269 
L 229.948093 -120.251162 
L 223.195278 -118.848812 
L 214.9305 -116.959085 
L 209.984772 -116.591445 
L 204.275349 -115.176429 
L 197.522534 -110.716407 
L 189.257756 -93.358388 
L 184.312028 -92.229762 
L 178.602604 -91.996984 
L 171.849789 -92.140189 
L 163.585012 -92.006282 
L 158.639284 -92.191108 
L 152.92986 -92.092759 
L 146.177045 -92.077181 
L 137.912267 -92.092679 
L 132.966539 -91.964419 
L 127.257116 -92.011398 
L 120.5043 -93.216714 
L 112.239523 -85.895024 
L 107.293795 -86.701082 
L 101.584371 -85.980508 
L 94.831556 -86.979921 
L 86.566778 -85.777642 
L 81.621051 -85.636099 
L 75.911627 -85.746132 
L 69.158812 -85.669702 
L 60.894034 -85.771739 
z
" style="stroke: #1f77b4; stroke-opacity: 0.2"/>
    </defs>
    <g clip-path="url(#p597a77b227)">
     <use xlink:href="#ma4106a38a4" x="0" y="392.514375" style="fill: #1f77b4; fill-opacity: 0.2; stroke: #1f77b4; stroke-opacity: 0.2"/>
    </g>
   </g>
   <g id="matplotlib.axis_1">
    <g id="xtick_1">
     <g id="line2d_4">
      <path d="M 86.566778 354.958125 
L 86.566778 22.318125 
" clip-path="url(#p597a77b227)" style="fill: none; stroke: #b0b0b0; stroke-opacity: 0.4; stroke-width: 0.8; stroke-linecap: square"/>
     </g>
     <g id="line2d_5">
      <defs>
       <path id="mc326e0e9e6" d="M 0 0 
L 0 3.5 
" style="stroke: #000000; stroke-width: 0.8"/>
      </defs>
      <g>
       <use xlink:href="#mc326e0e9e6" x="86.566778" y="354.958125" style="stroke: #000000; stroke-width: 0.8"/>
      </g>
     </g>
     <g id="text_1">
      <!-- $\mathdefault{2^{14}}$ -->
      <g transform="translate(78.716778 369.556562) scale(0.1 -0.1)">
       <defs>
        <path id="DejaVuSans-32" d="M 1228 531 
L 3431 531 
L 3431 0 
L 469 0 
L 469 531 
Q 828 903 1448 1529 
Q 2069 2156 2228 2338 
Q 2531 2678 2651 2914 
Q 2772 3150 2772 3378 
Q 2772 3750 2511 3984 
Q 2250 4219 1831 4219 
Q 1534 4219 1204 4116 
Q 875 4013 500 3803 
L 500 4441 
Q 881 4594 1212 4672 
Q 1544 4750 1819 4750 
Q 2544 4750 2975 4387 
Q 3406 4025 3406 3419 
Q 3406 3131 3298 2873 
Q 3191 2616 2906 2266 
Q 2828 2175 2409 1742 
Q 1991 1309 1228 531 
z
" transform="scale(0.015625)"/>
        <path id="DejaVuSans-31" d="M 794 531 
L 1825 531 
L 1825 4091 
L 703 3866 
L 703 4441 
L 1819 4666 
L 2450 4666 
L 2450 531 
L 3481 531 
L 3481 0 
L 794 0 
L 794 531 
z
" transform="scale(0.015625)"/>
        <path id="DejaVuSans-34" d="M 2419 4116 
L 825 1625 
L 2419 1625 
L 2419 4116 
z
M 2253 4666 
L 3047 4666 
L 3047 1625 
L 3713 1625 
L 3713 1100 
L 3047 1100 
L 3047 0 
L 2419 0 
L 2419 1100 
L 313 1100 
L 313 1709 
L 2253 4666 
z
" transform="scale(0.015625)"/>
       </defs>
       <use xlink:href="#DejaVuSans-32" transform="translate(0 0.684375)"/>
       <use xlink:href="#DejaVuSans-31" transform="translate(64.580078 38.965625) scale(0.7)"/>
       <use xlink:href="#DejaVuSans-34" transform="translate(109.116211 38.965625) scale(0.7)"/>
      </g>
     </g>
    </g>
    <g id="xtick_2">
     <g id="line2d_6">
      <path d="M 137.912267 354.958125 
L 137.912267 22.318125 
" clip-path="url(#p597a77b227)" style="fill: none; stroke: #b0b0b0; stroke-opacity: 0.4; stroke-width: 0.8; stroke-linecap: square"/>
     </g>
     <g id="line2d_7">
      <g>
       <use xlink:href="#mc326e0e9e6" x="137.912267" y="354.958125" style="stroke: #000000; stroke-width: 0.8"/>
      </g>
     </g>
     <g id="text_2">
      <!-- $\mathdefault{2^{16}}$ -->
      <g transform="translate(130.062267 369.556562) scale(0.1 -0.1)">
       <defs>
        <path id="DejaVuSans-36" d="M 2113 2584 
Q 1688 2584 1439 2293 
Q 1191 2003 1191 1497 
Q 1191 994 1439 701 
Q 1688 409 2113 409 
Q 2538 409 2786 701 
Q 3034 994 3034 1497 
Q 3034 2003 2786 2293 
Q 2538 2584 2113 2584 
z
M 3366 4563 
L 3366 3988 
Q 3128 4100 2886 4159 
Q 2644 4219 2406 4219 
Q 1781 4219 1451 3797 
Q 1122 3375 1075 2522 
Q 1259 2794 1537 2939 
Q 1816 3084 2150 3084 
Q 2853 3084 3261 2657 
Q 3669 2231 3669 1497 
Q 3669 778 3244 343 
Q 2819 -91 2113 -91 
Q 1303 -91 875 529 
Q 447 1150 447 2328 
Q 447 3434 972 4092 
Q 1497 4750 2381 4750 
Q 2619 4750 2861 4703 
Q 3103 4656 3366 4563 
z
" transform="scale(0.015625)"/>
       </defs>
       <use xlink:href="#DejaVuSans-32" transform="translate(0 0.765625)"/>
       <use xlink:href="#DejaVuSans-31" transform="translate(64.580078 39.046875) scale(0.7)"/>
       <use xlink:href="#DejaVuSans-36" transform="translate(109.116211 39.046875) scale(0.7)"/>
      </g>
     </g>
    </g>
    <g id="xtick_3">
     <g id="line2d_8">
      <path d="M 189.257756 354.958125 
L 189.257756 22.318125 
" clip-path="url(#p597a77b227)" style="fill: none; stroke: #b0b0b0; stroke-opacity: 0.4; stroke-width: 0.8; stroke-linecap: square"/>
     </g>
     <g id="line2d_9">
      <g>
       <use xlink:href="#mc326e0e9e6" x="189.257756" y="354.958125" style="stroke: #000000; stroke-width: 0.8"/>
      </g>
     </g>
     <g id="text_3">
      <!-- $\mathdefault{2^{18}}$ -->
      <g transform="translate(181.407756 369.556562) scale(0.1 -0.1)">
       <defs>
        <path id="DejaVuSans-38" d="M 2034 2216 
Q 1584 2216 1326 1975 
Q 1069 1734 1069 1313 
Q 1069 891 1326 650 
Q 1584 409 2034 409 
Q 2484 409 2743 651 
Q 3003 894 3003 1313 
Q 3003 1734 2745 1975 
Q 2488 2216 2034 2216 
z
M 1403 2484 
Q 997 2584 770 2862 
Q 544 3141 544 3541 
Q 544 4100 942 4425 
Q 1341 4750 2034 4750 
Q 2731 4750 3128 4425 
Q 3525 4100 3525 3541 
Q 3525 3141 3298 2862 
Q 3072 2584 2669 2484 
Q 3125 2378 3379 2068 
Q 3634 1759 3634 1313 
Q 3634 634 3220 271 
Q 2806 -91 2034 -91 
Q 1263 -91 848 271 
Q 434 634 434 1313 
Q 434 1759 690 2068 
Q 947 2378 1403 2484 
z
M 1172 3481 
Q 1172 3119 1398 2916 
Q 1625 2713 2034 2713 
Q 2441 2713 2670 2916 
Q 2900 3119 2900 3481 
Q 2900 3844 2670 4047 
Q 2441 4250 2034 4250 
Q 1625 4250 1398 4047 
Q 1172 3844 1172 3481 
z
" transform="scale(0.015625)"/>
       </defs>
       <use xlink:href="#DejaVuSans-32" transform="translate(0 0.765625)"/>
       <use xlink:href="#DejaVuSans-31" transform="translate(64.580078 39.046875) scale(0.7)"/>
       <use xlink:href="#DejaVuSans-38" transform="translate(109.116211 39.046875) scale(0.7)"/>
      </g>
     </g>
    </g>
    <g id="xtick_4">
     <g id="line2d_10">
      <path d="M 240.603245 354.958125 
L 240.603245 22.318125 
" clip-path="url(#p597a77b227)" style="fill: none; stroke: #b0b0b0; stroke-opacity: 0.4; stroke-width: 0.8; stroke-linecap: square"/>
     </g>
     <g id="line2d_11">
      <g>
       <use xlink:href="#mc326e0e9e6" x="240.603245" y="354.958125" style="stroke: #000000; stroke-width: 0.8"/>
      </g>
     </g>
     <g id="text_4">
      <!-- $\mathdefault{2^{20}}$ -->
      <g transform="translate(232.753245 369.556562) scale(0.1 -0.1)">
       <defs>
        <path id="DejaVuSans-30" d="M 2034 4250 
Q 1547 4250 1301 3770 
Q 1056 3291 1056 2328 
Q 1056 1369 1301 889 
Q 1547 409 2034 409 
Q 2525 409 2770 889 
Q 3016 1369 3016 2328 
Q 3016 3291 2770 3770 
Q 2525 4250 2034 4250 
z
M 2034 4750 
Q 2819 4750 3233 4129 
Q 3647 3509 3647 2328 
Q 3647 1150 3233 529 
Q 2819 -91 2034 -91 
Q 1250 -91 836 529 
Q 422 1150 422 2328 
Q 422 3509 836 4129 
Q 1250 4750 2034 4750 
z
" transform="scale(0.015625)"/>
       </defs>
       <use xlink:href="#DejaVuSans-32" transform="translate(0 0.765625)"/>
       <use xlink:href="#DejaVuSans-32" transform="translate(64.580078 39.046875) scale(0.7)"/>
       <use xlink:href="#DejaVuSans-30" transform="translate(109.116211 39.046875) scale(0.7)"/>
      </g>
     </g>
    </g>
    <g id="xtick_5">
     <g id="line2d_12">
      <path d="M 291.948733 354.958125 
L 291.948733 22.318125 
" clip-path="url(#p597a77b227)" style="fill: none; stroke: #b0b0b0; stroke-opacity: 0.4; stroke-width: 0.8; stroke-linecap: square"/>
     </g>
     <g id="line2d_13">
      <g>
       <use xlink:href="#mc326e0e9e6" x="291.948733" y="354.958125" style="stroke: #000000; stroke-width: 0.8"/>
      </g>
     </g>
     <g id="text_5">
      <!-- $\mathdefault{2^{22}}$ -->
      <g transform="translate(284.098733 369.556562) scale(0.1 -0.1)">
       <use xlink:href="#DejaVuSans-32" transform="translate(0 0.765625)"/>
       <use xlink:href="#DejaVuSans-32" transform="translate(64.580078 39.046875) scale(0.7)"/>
       <use xlink:href="#DejaVuSans-32" transform="translate(109.116211 39.046875) scale(0.7)"/>
      </g>
     </g>
    </g>
    <g id="xtick_6">
     <g id="line2d_14">
      <path d="M 343.294222 354.958125 
L 343.294222 22.318125 
" clip-path="url(#p597a77b227)" style="fill: none; stroke: #b0b0b0; stroke-opacity: 0.4; stroke-width: 0.8; stroke-linecap: square"/>
     </g>
     <g id="line2d_15">
      <g>
       <use xlink:href="#mc326e0e9e6" x="343.294222" y="354.958125" style="stroke: #000000; stroke-width: 0.8"/>
      </g>
     </g>
     <g id="text_6">
      <!-- $\mathdefault{2^{24}}$ -->
      <g transform="translate(335.444222 369.556562) scale(0.1 -0.1)">
       <use xlink:href="#DejaVuSans-32" transform="translate(0 0.765625)"/>
       <use xlink:href="#DejaVuSans-32" transform="translate(64.580078 39.046875) scale(0.7)"/>
       <use xlink:href="#DejaVuSans-34" transform="translate(109.116211 39.046875) scale(0.7)"/>
      </g>
     </g>
    </g>
    <g id="xtick_7">
     <g id="line2d_16">
      <path d="M 394.639711 354.958125 
L 394.639711 22.318125 
" clip-path="url(#p597a77b227)" style="fill: none; stroke: #b0b0b0; stroke-opacity: 0.4; stroke-width: 0.8; stroke-linecap: square"/>
     </g>
     <g id="line2d_17">
      <g>
       <use xlink:href="#mc326e0e9e6" x="394.639711" y="354.958125" style="stroke: #000000; stroke-width: 0.8"/>
      </g>
     </g>
     <g id="text_7">
      <!-- $\mathdefault{2^{26}}$ -->
      <g transform="translate(386.789711 369.556562) scale(0.1 -0.1)">
       <use xlink:href="#DejaVuSans-32" transform="translate(0 0.765625)"/>
       <use xlink:href="#DejaVuSans-32" transform="translate(64.580078 39.046875) scale(0.7)"/>
       <use xlink:href="#DejaVuSans-36" transform="translate(109.116211 39.046875) scale(0.7)"/>
      </g>
     </g>
    </g>
    <g id="xtick_8">
     <g id="line2d_18">
      <path d="M 445.985199 354.958125 
L 445.985199 22.318125 
" clip-path="url(#p597a77b227)" style="fill: none; stroke: #b0b0b0; stroke-opacity: 0.4; stroke-width: 0.8; stroke-linecap: square"/>
     </g>
     <g id="line2d_19">
      <g>
       <use xlink:href="#mc326e0e9e6" x="445.985199" y="354.958125" style="stroke: #000000; stroke-width: 0.8"/>
      </g>
     </g>
     <g id="text_8">
      <!-- $\mathdefault{2^{28}}$ -->
      <g transform="translate(438.135199 369.556562) scale(0.1 -0.1)">
       <use xlink:href="#DejaVuSans-32" transform="translate(0 0.765625)"/>
       <use xlink:href="#DejaVuSans-32" transform="translate(64.580078 39.046875) scale(0.7)"/>
       <use xlink:href="#DejaVuSans-38" transform="translate(109.116211 39.046875) scale(0.7)"/>
      </g>
     </g>
    </g>
    <g id="text_9">
     <!-- Array Size (bytes) -->
     <g transform="translate(219.217188 383.234687) scale(0.1 -0.1)">
      <defs>
       <path id="DejaVuSans-41" d="M 2188 4044 
L 1331 1722 
L 3047 1722 
L 2188 4044 
z
M 1831 4666 
L 2547 4666 
L 4325 0 
L 3669 0 
L 3244 1197 
L 1141 1197 
L 716 0 
L 50 0 
L 1831 4666 
z
" transform="scale(0.015625)"/>
       <path id="DejaVuSans-72" d="M 2631 2963 
Q 2534 3019 2420 3045 
Q 2306 3072 2169 3072 
Q 1681 3072 1420 2755 
Q 1159 2438 1159 1844 
L 1159 0 
L 581 0 
L 581 3500 
L 1159 3500 
L 1159 2956 
Q 1341 3275 1631 3429 
Q 1922 3584 2338 3584 
Q 2397 3584 2469 3576 
Q 2541 3569 2628 3553 
L 2631 2963 
z
" transform="scale(0.015625)"/>
       <path id="DejaVuSans-61" d="M 2194 1759 
Q 1497 1759 1228 1600 
Q 959 1441 959 1056 
Q 959 750 1161 570 
Q 1363 391 1709 391 
Q 2188 391 2477 730 
Q 2766 1069 2766 1631 
L 2766 1759 
L 2194 1759 
z
M 3341 1997 
L 3341 0 
L 2766 0 
L 2766 531 
Q 2569 213 2275 61 
Q 1981 -91 1556 -91 
Q 1019 -91 701 211 
Q 384 513 384 1019 
Q 384 1609 779 1909 
Q 1175 2209 1959 2209 
L 2766 2209 
L 2766 2266 
Q 2766 2663 2505 2880 
Q 2244 3097 1772 3097 
Q 1472 3097 1187 3025 
Q 903 2953 641 2809 
L 641 3341 
Q 956 3463 1253 3523 
Q 1550 3584 1831 3584 
Q 2591 3584 2966 3190 
Q 3341 2797 3341 1997 
z
" transform="scale(0.015625)"/>
       <path id="DejaVuSans-79" d="M 2059 -325 
Q 1816 -950 1584 -1140 
Q 1353 -1331 966 -1331 
L 506 -1331 
L 506 -850 
L 844 -850 
Q 1081 -850 1212 -737 
Q 1344 -625 1503 -206 
L 1606 56 
L 191 3500 
L 800 3500 
L 1894 763 
L 2988 3500 
L 3597 3500 
L 2059 -325 
z
" transform="scale(0.015625)"/>
       <path id="DejaVuSans-20" transform="scale(0.015625)"/>
       <path id="DejaVuSans-53" d="M 3425 4513 
L 3425 3897 
Q 3066 4069 2747 4153 
Q 2428 4238 2131 4238 
Q 1616 4238 1336 4038 
Q 1056 3838 1056 3469 
Q 1056 3159 1242 3001 
Q 1428 2844 1947 2747 
L 2328 2669 
Q 3034 2534 3370 2195 
Q 3706 1856 3706 1288 
Q 3706 609 3251 259 
Q 2797 -91 1919 -91 
Q 1588 -91 1214 -16 
Q 841 59 441 206 
L 441 856 
Q 825 641 1194 531 
Q 1563 422 1919 422 
Q 2459 422 2753 634 
Q 3047 847 3047 1241 
Q 3047 1584 2836 1778 
Q 2625 1972 2144 2069 
L 1759 2144 
Q 1053 2284 737 2584 
Q 422 2884 422 3419 
Q 422 4038 858 4394 
Q 1294 4750 2059 4750 
Q 2388 4750 2728 4690 
Q 3069 4631 3425 4513 
z
" transform="scale(0.015625)"/>
       <path id="DejaVuSans-69" d="M 603 3500 
L 1178 3500 
L 1178 0 
L 603 0 
L 603 3500 
z
M 603 4863 
L 1178 4863 
L 1178 4134 
L 603 4134 
L 603 4863 
z
" transform="scale(0.015625)"/>
       <path id="DejaVuSans-7a" d="M 353 3500 
L 3084 3500 
L 3084 2975 
L 922 459 
L 3084 459 
L 3084 0 
L 275 0 
L 275 525 
L 2438 3041 
L 353 3041 
L 353 3500 
z
" transform="scale(0.015625)"/>
       <path id="DejaVuSans-65" d="M 3597 1894 
L 3597 1613 
L 953 1613 
Q 991 1019 1311 708 
Q 1631 397 2203 397 
Q 2534 397 2845 478 
Q 3156 559 3463 722 
L 3463 178 
Q 3153 47 2828 -22 
Q 2503 -91 2169 -91 
Q 1331 -91 842 396 
Q 353 884 353 1716 
Q 353 2575 817 3079 
Q 1281 3584 2069 3584 
Q 2775 3584 3186 3129 
Q 3597 2675 3597 1894 
z
M 3022 2063 
Q 3016 2534 2758 2815 
Q 2500 3097 2075 3097 
Q 1594 3097 1305 2825 
Q 1016 2553 972 2059 
L 3022 2063 
z
" transform="scale(0.015625)"/>
       <path id="DejaVuSans-28" d="M 1984 4856 
Q 1566 4138 1362 3434 
Q 1159 2731 1159 2009 
Q 1159 1288 1364 580 
Q 1569 -128 1984 -844 
L 1484 -844 
Q 1016 -109 783 600 
Q 550 1309 550 2009 
Q 550 2706 781 3412 
Q 1013 4119 1484 4856 
L 1984 4856 
z
" transform="scale(0.015625)"/>
       <path id="DejaVuSans-62" d="M 3116 1747 
Q 3116 2381 2855 2742 
Q 2594 3103 2138 3103 
Q 1681 3103 1420 2742 
Q 1159 2381 1159 1747 
Q 1159 1113 1420 752 
Q 1681 391 2138 391 
Q 2594 391 2855 752 
Q 3116 1113 3116 1747 
z
M 1159 2969 
Q 1341 3281 1617 3432 
Q 1894 3584 2278 3584 
Q 2916 3584 3314 3078 
Q 3713 2572 3713 1747 
Q 3713 922 3314 415 
Q 2916 -91 2278 -91 
Q 1894 -91 1617 61 
Q 1341 213 1159 525 
L 1159 0 
L 581 0 
L 581 4863 
L 1159 4863 
L 1159 2969 
z
" transform="scale(0.015625)"/>
       <path id="DejaVuSans-74" d="M 1172 4494 
L 1172 3500 
L 2356 3500 
L 2356 3053 
L 1172 3053 
L 1172 1153 
Q 1172 725 1289 603 
Q 1406 481 1766 481 
L 2356 481 
L 2356 0 
L 1766 0 
Q 1100 0 847 248 
Q 594 497 594 1153 
L 594 3053 
L 172 3053 
L 172 3500 
L 594 3500 
L 594 4494 
L 1172 4494 
z
" transform="scale(0.015625)"/>
       <path id="DejaVuSans-73" d="M 2834 3397 
L 2834 2853 
Q 2591 2978 2328 3040 
Q 2066 3103 1784 3103 
Q 1356 3103 1142 2972 
Q 928 2841 928 2578 
Q 928 2378 1081 2264 
Q 1234 2150 1697 2047 
L 1894 2003 
Q 2506 1872 2764 1633 
Q 3022 1394 3022 966 
Q 3022 478 2636 193 
Q 2250 -91 1575 -91 
Q 1294 -91 989 -36 
Q 684 19 347 128 
L 347 722 
Q 666 556 975 473 
Q 1284 391 1588 391 
Q 1994 391 2212 530 
Q 2431 669 2431 922 
Q 2431 1156 2273 1281 
Q 2116 1406 1581 1522 
L 1381 1569 
Q 847 1681 609 1914 
Q 372 2147 372 2553 
Q 372 3047 722 3315 
Q 1072 3584 1716 3584 
Q 2034 3584 2315 3537 
Q 2597 3491 2834 3397 
z
" transform="scale(0.015625)"/>
       <path id="DejaVuSans-29" d="M 513 4856 
L 1013 4856 
Q 1481 4119 1714 3412 
Q 1947 2706 1947 2009 
Q 1947 1309 1714 600 
Q 1481 -109 1013 -844 
L 513 -844 
Q 928 -128 1133 580 
Q 1338 1288 1338 2009 
Q 1338 2731 1133 3434 
Q 928 4138 513 4856 
z
" transform="scale(0.015625)"/>
      </defs>
      <use xlink:href="#DejaVuSans-41"/>
      <use xlink:href="#DejaVuSans-72" x="68.408203"/>
      <use xlink:href="#DejaVuSans-72" x="107.771484"/>
      <use xlink:href="#DejaVuSans-61" x="148.884766"/>
      <use xlink:href="#DejaVuSans-79" x="210.164062"/>
      <use xlink:href="#DejaVuSans-20" x="269.34375"/>
      <use xlink:href="#DejaVuSans-53" x="301.130859"/>
      <use xlink:href="#DejaVuSans-69" x="364.607422"/>
      <use xlink:href="#DejaVuSans-7a" x="392.390625"/>
      <use xlink:href="#DejaVuSans-65" x="444.880859"/>
      <use xlink:href="#DejaVuSans-20" x="506.404297"/>
      <use xlink:href="#DejaVuSans-28" x="538.191406"/>
      <use xlink:href="#DejaVuSans-62" x="577.205078"/>
      <use xlink:href="#DejaVuSans-79" x="640.681641"/>
      <use xlink:href="#DejaVuSans-74" x="699.861328"/>
      <use xlink:href="#DejaVuSans-65" x="739.070312"/>
      <use xlink:href="#DejaVuSans-73" x="800.59375"/>
      <use xlink:href="#DejaVuSans-29" x="852.693359"/>
     </g>
    </g>
   </g>
   <g id="matplotlib.axis_2">
    <g id="ytick_1">
     <g id="line2d_20">
      <path d="M 40.603125 354.958125 
L 487.003125 354.958125 
" clip-path="url(#p597a77b227)" style="fill: none; stroke: #b0b0b0; stroke-opacity: 0.4; stroke-width: 0.8; stroke-linecap: square"/>
     </g>
     <g id="line2d_21">
      <defs>
       <path id="me21898682e" d="M 0 0 
L -3.5 0 
" style="stroke: #000000; stroke-width: 0.8"/>
      </defs>
      <g>
       <use xlink:href="#me21898682e" x="40.603125" y="354.958125" style="stroke: #000000; stroke-width: 0.8"/>
      </g>
     </g>
     <g id="text_10">
      <!-- 0 -->
      <g transform="translate(27.240625 358.757344) scale(0.1 -0.1)">
       <use xlink:href="#DejaVuSans-30"/>
      </g>
     </g>
    </g>
    <g id="ytick_2">
     <g id="line2d_22">
      <path d="M 40.603125 315.824007 
L 487.003125 315.824007 
" clip-path="url(#p597a77b227)" style="fill: none; stroke: #b0b0b0; stroke-opacity: 0.4; stroke-width: 0.8; stroke-linecap: square"/>
     </g>
     <g id="line2d_23">
      <g>
       <use xlink:href="#me21898682e" x="40.603125" y="315.824007" style="stroke: #000000; stroke-width: 0.8"/>
      </g>
     </g>
     <g id="text_11">
      <!-- 10 -->
      <g transform="translate(20.878125 319.623226) scale(0.1 -0.1)">
       <use xlink:href="#DejaVuSans-31"/>
       <use xlink:href="#DejaVuSans-30" x="63.623047"/>
      </g>
     </g>
    </g>
    <g id="ytick_3">
     <g id="line2d_24">
      <path d="M 40.603125 276.68989 
L 487.003125 276.68989 
" clip-path="url(#p597a77b227)" style="fill: none; stroke: #b0b0b0; stroke-opacity: 0.4; stroke-width: 0.8; stroke-linecap: square"/>
     </g>
     <g id="line2d_25">
      <g>
       <use xlink:href="#me21898682e" x="40.603125" y="276.68989" style="stroke: #000000; stroke-width: 0.8"/>
      </g>
     </g>
     <g id="text_12">
      <!-- 20 -->
      <g transform="translate(20.878125 280.489108) scale(0.1 -0.1)">
       <use xlink:href="#DejaVuSans-32"/>
       <use xlink:href="#DejaVuSans-30" x="63.623047"/>
      </g>
     </g>
    </g>
    <g id="ytick_4">
     <g id="line2d_26">
      <path d="M 40.603125 237.555772 
L 487.003125 237.555772 
" clip-path="url(#p597a77b227)" style="fill: none; stroke: #b0b0b0; stroke-opacity: 0.4; stroke-width: 0.8; stroke-linecap: square"/>
     </g>
     <g id="line2d_27">
      <g>
       <use xlink:href="#me21898682e" x="40.603125" y="237.555772" style="stroke: #000000; stroke-width: 0.8"/>
      </g>
     </g>
     <g id="text_13">
      <!-- 30 -->
      <g transform="translate(20.878125 241.354991) scale(0.1 -0.1)">
       <defs>
        <path id="DejaVuSans-33" d="M 2597 2516 
Q 3050 2419 3304 2112 
Q 3559 1806 3559 1356 
Q 3559 666 3084 287 
Q 2609 -91 1734 -91 
Q 1441 -91 1130 -33 
Q 819 25 488 141 
L 488 750 
Q 750 597 1062 519 
Q 1375 441 1716 441 
Q 2309 441 2620 675 
Q 2931 909 2931 1356 
Q 2931 1769 2642 2001 
Q 2353 2234 1838 2234 
L 1294 2234 
L 1294 2753 
L 1863 2753 
Q 2328 2753 2575 2939 
Q 2822 3125 2822 3475 
Q 2822 3834 2567 4026 
Q 2313 4219 1838 4219 
Q 1578 4219 1281 4162 
Q 984 4106 628 3988 
L 628 4550 
Q 988 4650 1302 4700 
Q 1616 4750 1894 4750 
Q 2613 4750 3031 4423 
Q 3450 4097 3450 3541 
Q 3450 3153 3228 2886 
Q 3006 2619 2597 2516 
z
" transform="scale(0.015625)"/>
       </defs>
       <use xlink:href="#DejaVuSans-33"/>
       <use xlink:href="#DejaVuSans-30" x="63.623047"/>
      </g>
     </g>
    </g>
    <g id="ytick_5">
     <g id="line2d_28">
      <path d="M 40.603125 198.421654 
L 487.003125 198.421654 
" clip-path="url(#p597a77b227)" style="fill: none; stroke: #b0b0b0; stroke-opacity: 0.4; stroke-width: 0.8; stroke-linecap: square"/>
     </g>
     <g id="line2d_29">
      <g>
       <use xlink:href="#me21898682e" x="40.603125" y="198.421654" style="stroke: #000000; stroke-width: 0.8"/>
      </g>
     </g>
     <g id="text_14">
      <!-- 40 -->
      <g transform="translate(20.878125 202.220873) scale(0.1 -0.1)">
       <use xlink:href="#DejaVuSans-34"/>
       <use xlink:href="#DejaVuSans-30" x="63.623047"/>
      </g>
     </g>
    </g>
    <g id="ytick_6">
     <g id="line2d_30">
      <path d="M 40.603125 159.287537 
L 487.003125 159.287537 
" clip-path="url(#p597a77b227)" style="fill: none; stroke: #b0b0b0; stroke-opacity: 0.4; stroke-width: 0.8; stroke-linecap: square"/>
     </g>
     <g id="line2d_31">
      <g>
       <use xlink:href="#me21898682e" x="40.603125" y="159.287537" style="stroke: #000000; stroke-width: 0.8"/>
      </g>
     </g>
     <g id="text_15">
      <!-- 50 -->
      <g transform="translate(20.878125 163.086756) scale(0.1 -0.1)">
       <defs>
        <path id="DejaVuSans-35" d="M 691 4666 
L 3169 4666 
L 3169 4134 
L 1269 4134 
L 1269 2991 
Q 1406 3038 1543 3061 
Q 1681 3084 1819 3084 
Q 2600 3084 3056 2656 
Q 3513 2228 3513 1497 
Q 3513 744 3044 326 
Q 2575 -91 1722 -91 
Q 1428 -91 1123 -41 
Q 819 9 494 109 
L 494 744 
Q 775 591 1075 516 
Q 1375 441 1709 441 
Q 2250 441 2565 725 
Q 2881 1009 2881 1497 
Q 2881 1984 2565 2268 
Q 2250 2553 1709 2553 
Q 1456 2553 1204 2497 
Q 953 2441 691 2322 
L 691 4666 
z
" transform="scale(0.015625)"/>
       </defs>
       <use xlink:href="#DejaVuSans-35"/>
       <use xlink:href="#DejaVuSans-30" x="63.623047"/>
      </g>
     </g>
    </g>
    <g id="ytick_7">
     <g id="line2d_32">
      <path d="M 40.603125 120.153419 
L 487.003125 120.153419 
" clip-path="url(#p597a77b227)" style="fill: none; stroke: #b0b0b0; stroke-opacity: 0.4; stroke-width: 0.8; stroke-linecap: square"/>
     </g>
     <g id="line2d_33">
      <g>
       <use xlink:href="#me21898682e" x="40.603125" y="120.153419" style="stroke: #000000; stroke-width: 0.8"/>
      </g>
     </g>
     <g id="text_16">
      <!-- 60 -->
      <g transform="translate(20.878125 123.952638) scale(0.1 -0.1)">
       <use xlink:href="#DejaVuSans-36"/>
       <use xlink:href="#DejaVuSans-30" x="63.623047"/>
      </g>
     </g>
    </g>
    <g id="ytick_8">
     <g id="line2d_34">
      <path d="M 40.603125 81.019301 
L 487.003125 81.019301 
" clip-path="url(#p597a77b227)" style="fill: none; stroke: #b0b0b0; stroke-opacity: 0.4; stroke-width: 0.8; stroke-linecap: square"/>
     </g>
     <g id="line2d_35">
      <g>
       <use xlink:href="#me21898682e" x="40.603125" y="81.019301" style="stroke: #000000; stroke-width: 0.8"/>
      </g>
     </g>
     <g id="text_17">
      <!-- 70 -->
      <g transform="translate(20.878125 84.81852) scale(0.1 -0.1)">
       <defs>
        <path id="DejaVuSans-37" d="M 525 4666 
L 3525 4666 
L 3525 4397 
L 1831 0 
L 1172 0 
L 2766 4134 
L 525 4134 
L 525 4666 
z
" transform="scale(0.015625)"/>
       </defs>
       <use xlink:href="#DejaVuSans-37"/>
       <use xlink:href="#DejaVuSans-30" x="63.623047"/>
      </g>
     </g>
    </g>
    <g id="ytick_9">
     <g id="line2d_36">
      <path d="M 40.603125 41.885184 
L 487.003125 41.885184 
" clip-path="url(#p597a77b227)" style="fill: none; stroke: #b0b0b0; stroke-opacity: 0.4; stroke-width: 0.8; stroke-linecap: square"/>
     </g>
     <g id="line2d_37">
      <g>
       <use xlink:href="#me21898682e" x="40.603125" y="41.885184" style="stroke: #000000; stroke-width: 0.8"/>
      </g>
     </g>
     <g id="text_18">
      <!-- 80 -->
      <g transform="translate(20.878125 45.684403) scale(0.1 -0.1)">
       <use xlink:href="#DejaVuSans-38"/>
       <use xlink:href="#DejaVuSans-30" x="63.623047"/>
      </g>
     </g>
    </g>
    <g id="text_19">
     <!-- Inverse throughput (ns) -->
     <g transform="translate(14.798438 247.85375) rotate(-90) scale(0.1 -0.1)">
      <defs>
       <path id="DejaVuSans-49" d="M 628 4666 
L 1259 4666 
L 1259 0 
L 628 0 
L 628 4666 
z
" transform="scale(0.015625)"/>
       <path id="DejaVuSans-6e" d="M 3513 2113 
L 3513 0 
L 2938 0 
L 2938 2094 
Q 2938 2591 2744 2837 
Q 2550 3084 2163 3084 
Q 1697 3084 1428 2787 
Q 1159 2491 1159 1978 
L 1159 0 
L 581 0 
L 581 3500 
L 1159 3500 
L 1159 2956 
Q 1366 3272 1645 3428 
Q 1925 3584 2291 3584 
Q 2894 3584 3203 3211 
Q 3513 2838 3513 2113 
z
" transform="scale(0.015625)"/>
       <path id="DejaVuSans-76" d="M 191 3500 
L 800 3500 
L 1894 563 
L 2988 3500 
L 3597 3500 
L 2284 0 
L 1503 0 
L 191 3500 
z
" transform="scale(0.015625)"/>
       <path id="DejaVuSans-68" d="M 3513 2113 
L 3513 0 
L 2938 0 
L 2938 2094 
Q 2938 2591 2744 2837 
Q 2550 3084 2163 3084 
Q 1697 3084 1428 2787 
Q 1159 2491 1159 1978 
L 1159 0 
L 581 0 
L 581 4863 
L 1159 4863 
L 1159 2956 
Q 1366 3272 1645 3428 
Q 1925 3584 2291 3584 
Q 2894 3584 3203 3211 
Q 3513 2838 3513 2113 
z
" transform="scale(0.015625)"/>
       <path id="DejaVuSans-6f" d="M 1959 3097 
Q 1497 3097 1228 2736 
Q 959 2375 959 1747 
Q 959 1119 1226 758 
Q 1494 397 1959 397 
Q 2419 397 2687 759 
Q 2956 1122 2956 1747 
Q 2956 2369 2687 2733 
Q 2419 3097 1959 3097 
z
M 1959 3584 
Q 2709 3584 3137 3096 
Q 3566 2609 3566 1747 
Q 3566 888 3137 398 
Q 2709 -91 1959 -91 
Q 1206 -91 779 398 
Q 353 888 353 1747 
Q 353 2609 779 3096 
Q 1206 3584 1959 3584 
z
" transform="scale(0.015625)"/>
       <path id="DejaVuSans-75" d="M 544 1381 
L 544 3500 
L 1119 3500 
L 1119 1403 
Q 1119 906 1312 657 
Q 1506 409 1894 409 
Q 2359 409 2629 706 
Q 2900 1003 2900 1516 
L 2900 3500 
L 3475 3500 
L 3475 0 
L 2900 0 
L 2900 538 
Q 2691 219 2414 64 
Q 2138 -91 1772 -91 
Q 1169 -91 856 284 
Q 544 659 544 1381 
z
M 1991 3584 
L 1991 3584 
z
" transform="scale(0.015625)"/>
       <path id="DejaVuSans-67" d="M 2906 1791 
Q 2906 2416 2648 2759 
Q 2391 3103 1925 3103 
Q 1463 3103 1205 2759 
Q 947 2416 947 1791 
Q 947 1169 1205 825 
Q 1463 481 1925 481 
Q 2391 481 2648 825 
Q 2906 1169 2906 1791 
z
M 3481 434 
Q 3481 -459 3084 -895 
Q 2688 -1331 1869 -1331 
Q 1566 -1331 1297 -1286 
Q 1028 -1241 775 -1147 
L 775 -588 
Q 1028 -725 1275 -790 
Q 1522 -856 1778 -856 
Q 2344 -856 2625 -561 
Q 2906 -266 2906 331 
L 2906 616 
Q 2728 306 2450 153 
Q 2172 0 1784 0 
Q 1141 0 747 490 
Q 353 981 353 1791 
Q 353 2603 747 3093 
Q 1141 3584 1784 3584 
Q 2172 3584 2450 3431 
Q 2728 3278 2906 2969 
L 2906 3500 
L 3481 3500 
L 3481 434 
z
" transform="scale(0.015625)"/>
       <path id="DejaVuSans-70" d="M 1159 525 
L 1159 -1331 
L 581 -1331 
L 581 3500 
L 1159 3500 
L 1159 2969 
Q 1341 3281 1617 3432 
Q 1894 3584 2278 3584 
Q 2916 3584 3314 3078 
Q 3713 2572 3713 1747 
Q 3713 922 3314 415 
Q 2916 -91 2278 -91 
Q 1894 -91 1617 61 
Q 1341 213 1159 525 
z
M 3116 1747 
Q 3116 2381 2855 2742 
Q 2594 3103 2138 3103 
Q 1681 3103 1420 2742 
Q 1159 2381 1159 1747 
Q 1159 1113 1420 752 
Q 1681 391 2138 391 
Q 2594 391 2855 752 
Q 3116 1113 3116 1747 
z
" transform="scale(0.015625)"/>
      </defs>
      <use xlink:href="#DejaVuSans-49"/>
      <use xlink:href="#DejaVuSans-6e" x="29.492188"/>
      <use xlink:href="#DejaVuSans-76" x="92.871094"/>
      <use xlink:href="#DejaVuSans-65" x="152.050781"/>
      <use xlink:href="#DejaVuSans-72" x="213.574219"/>
      <use xlink:href="#DejaVuSans-73" x="254.6875"/>
      <use xlink:href="#DejaVuSans-65" x="306.787109"/>
      <use xlink:href="#DejaVuSans-20" x="368.310547"/>
      <use xlink:href="#DejaVuSans-74" x="400.097656"/>
      <use xlink:href="#DejaVuSans-68" x="439.306641"/>
      <use xlink:href="#DejaVuSans-72" x="502.685547"/>
      <use xlink:href="#DejaVuSans-6f" x="541.548828"/>
      <use xlink:href="#DejaVuSans-75" x="602.730469"/>
      <use xlink:href="#DejaVuSans-67" x="666.109375"/>
      <use xlink:href="#DejaVuSans-68" x="729.585938"/>
      <use xlink:href="#DejaVuSans-70" x="792.964844"/>
      <use xlink:href="#DejaVuSans-75" x="856.441406"/>
      <use xlink:href="#DejaVuSans-74" x="919.820312"/>
      <use xlink:href="#DejaVuSans-20" x="959.029297"/>
      <use xlink:href="#DejaVuSans-28" x="990.816406"/>
      <use xlink:href="#DejaVuSans-6e" x="1029.830078"/>
      <use xlink:href="#DejaVuSans-73" x="1093.208984"/>
      <use xlink:href="#DejaVuSans-29" x="1145.308594"/>
     </g>
    </g>
   </g>
   <g id="line2d_38">
    <path d="M 60.894034 348.914626 
L 69.158812 348.913374 
L 75.911627 348.912643 
L 81.621051 348.909674 
L 86.566778 348.914918 
L 94.831556 348.911174 
L 101.584371 348.911863 
L 107.293795 348.912863 
L 112.239523 348.910228 
L 120.5043 336.833147 
L 127.257116 336.836545 
L 132.966539 336.787579 
L 137.912267 336.836372 
L 146.177045 336.83376 
L 152.92986 336.82888 
L 158.639284 336.825717 
L 163.585012 336.832397 
L 171.849789 336.825795 
L 178.602604 336.83084 
L 184.312028 336.787287 
L 189.257756 336.742552 
L 197.522534 313.418231 
L 204.275349 309.284476 
L 209.984772 307.191552 
L 214.9305 305.179994 
L 223.195278 302.911593 
L 229.948093 301.390671 
L 235.657517 300.01293 
L 240.603245 299.049352 
L 248.868022 297.919205 
L 255.620837 297.38576 
L 261.330261 296.917642 
L 266.275989 296.563869 
L 274.540767 295.477148 
L 281.293582 295.725985 
L 287.003005 295.50272 
L 291.948733 295.290986 
L 300.213511 294.91713 
L 306.966326 285.479648 
L 312.67575 286.116484 
L 317.621478 286.232218 
L 325.886255 283.854409 
L 332.63907 218.317765 
L 338.348494 187.554697 
L 343.294222 158.295652 
L 351.559 113.582998 
L 358.311815 101.959573 
L 364.021238 87.725044 
L 368.966966 79.185069 
L 377.231744 71.594747 
L 383.984559 70.469757 
L 389.693983 70.63666 
L 394.639711 69.166155 
L 402.904488 65.670735 
L 409.657303 62.225268 
L 415.366727 59.321401 
L 420.312455 58.072146 
L 428.577233 56.054034 
L 435.330048 53.241202 
L 441.039472 52.51838 
L 445.985199 49.59372 
L 454.249977 48.843525 
L 461.002792 48.052809 
L 466.712216 47.7488 
" clip-path="url(#p597a77b227)" style="fill: none; stroke-dasharray: 1.5,1.5; stroke-dashoffset: 0; stroke: #000000; stroke-width: 1.5"/>
   </g>
   <g id="line2d_39">
    <path d="M 60.894034 354.017245 
L 69.158812 354.023162 
L 75.911627 354.029949 
L 81.621051 354.028139 
L 86.566778 354.028168 
L 94.831556 354.028917 
L 101.584371 354.028779 
L 107.293795 354.030657 
L 112.239523 354.014694 
L 120.5043 351.785335 
L 127.257116 352.17967 
L 132.966539 351.712335 
L 137.912267 352.008623 
L 146.177045 351.716004 
L 152.92986 351.977324 
L 158.639284 351.736043 
L 163.585012 351.826574 
L 171.849789 351.79395 
L 178.602604 351.915668 
L 184.312028 352.026927 
L 189.257756 352.182845 
L 197.522534 350.044972 
L 204.275349 349.112359 
L 209.984772 348.774295 
L 214.9305 348.553658 
L 223.195278 348.303989 
L 229.948093 348.155694 
L 235.657517 348.049407 
L 240.603245 347.982593 
L 248.868022 347.890134 
L 255.620837 347.828323 
L 261.330261 347.792919 
L 266.275989 347.761154 
L 274.540767 347.734379 
L 281.293582 347.71604 
L 287.003005 347.689919 
L 291.948733 347.659817 
L 300.213511 347.601209 
L 306.966326 347.409667 
L 312.67575 347.154905 
L 317.621478 344.879068 
L 325.886255 344.859243 
L 332.63907 338.594544 
L 338.348494 339.162524 
L 343.294222 337.584123 
L 351.559 335.766465 
L 358.311815 333.947312 
L 364.021238 332.689224 
L 368.966966 331.678008 
L 377.231744 330.171955 
L 383.984559 329.183155 
L 389.693983 328.513694 
L 394.639711 327.960098 
L 402.904488 327.28387 
L 409.657303 326.830202 
L 415.366727 326.510398 
L 420.312455 326.260231 
L 428.577233 325.847892 
L 435.330048 325.679876 
L 441.039472 325.529942 
L 445.985199 325.42451 
L 454.249977 325.25031 
L 461.002792 325.183414 
L 466.712216 325.096829 
" clip-path="url(#p597a77b227)" style="fill: none; stroke: #7f7f7f; stroke-width: 1.5; stroke-linecap: square"/>
   </g>
   <g id="line2d_40">
    <path d="M 60.894034 339.722676 
L 69.158812 339.737737 
L 75.911627 339.729541 
L 81.621051 339.72535 
L 86.566778 339.728616 
L 94.831556 339.689418 
L 101.584371 339.687325 
L 107.293795 339.672675 
L 112.239523 339.686708 
L 120.5043 338.226861 
L 127.257116 338.196487 
L 132.966539 338.179502 
L 137.912267 338.2176 
L 146.177045 338.201981 
L 152.92986 338.192345 
L 158.639284 338.17642 
L 163.585012 338.185972 
L 171.849789 338.128675 
L 178.602604 338.123707 
L 184.312028 338.14925 
L 189.257756 338.13865 
L 197.522534 331.175873 
L 204.275349 329.948824 
L 209.984772 329.520047 
L 214.9305 328.860857 
L 223.195278 328.191931 
L 229.948093 327.682651 
L 235.657517 327.325571 
L 240.603245 327.112559 
L 248.868022 326.799277 
L 255.620837 326.569591 
L 261.330261 326.445127 
L 266.275989 326.319532 
L 274.540767 326.13678 
L 281.293582 325.997952 
L 287.003005 325.804574 
L 291.948733 325.688153 
L 300.213511 325.402353 
L 306.966326 325.197204 
L 312.67575 324.559736 
L 317.621478 320.158788 
L 325.886255 319.235913 
L 332.63907 297.860892 
L 338.348494 288.744682 
L 343.294222 281.401013 
L 351.559 271.295391 
L 358.311815 267.995758 
L 364.021238 265.096266 
L 368.966966 262.212631 
L 377.231744 260.704734 
L 383.984559 260.356545 
L 389.693983 260.025323 
L 394.639711 259.938279 
L 402.904488 258.765146 
L 409.657303 256.939526 
L 415.366727 257.185122 
L 420.312455 256.640005 
L 428.577233 255.414154 
L 435.330048 255.204226 
L 441.039472 254.865108 
L 445.985199 254.353642 
L 454.249977 252.988211 
L 461.002792 253.617667 
L 466.712216 253.312515 
" clip-path="url(#p597a77b227)" style="fill: none; stroke: #ff7f0e; stroke-width: 1.5; stroke-linecap: square"/>
   </g>
   <g id="line2d_41">
    <path d="M 60.894034 329.421779 
L 69.158812 329.451647 
L 75.911627 329.41053 
L 81.621051 329.421312 
L 86.566778 329.420745 
L 94.831556 329.387728 
L 101.584371 329.325207 
L 107.293795 329.315097 
L 112.239523 329.295996 
L 120.5043 326.325421 
L 127.257116 326.275788 
L 132.966539 326.313128 
L 137.912267 326.281559 
L 146.177045 326.27685 
L 152.92986 326.28487 
L 158.639284 326.314365 
L 163.585012 326.219431 
L 171.849789 326.254485 
L 178.602604 326.233564 
L 184.312028 326.205207 
L 189.257756 326.23767 
L 197.522534 314.823569 
L 204.275349 312.746276 
L 209.984772 312.100911 
L 214.9305 310.972766 
L 223.195278 309.899174 
L 229.948093 309.126132 
L 235.657517 308.576749 
L 240.603245 308.236101 
L 248.868022 307.735941 
L 255.620837 307.415713 
L 261.330261 307.230779 
L 266.275989 307.10158 
L 274.540767 306.75535 
L 281.293582 306.658759 
L 287.003005 306.38172 
L 291.948733 306.160612 
L 300.213511 305.751134 
L 306.966326 305.483782 
L 312.67575 305.210606 
L 317.621478 299.692099 
L 325.886255 297.979999 
L 332.63907 260.424061 
L 338.348494 246.987775 
L 343.294222 225.991686 
L 351.559 213.881911 
L 358.311815 208.210691 
L 364.021238 202.302669 
L 368.966966 196.671288 
L 377.231744 193.474551 
L 383.984559 192.883645 
L 389.693983 191.903765 
L 394.639711 192.070297 
L 402.904488 189.732949 
L 409.657303 189.107329 
L 415.366727 187.542736 
L 420.312455 186.577856 
L 428.577233 185.246081 
L 435.330048 184.171159 
L 441.039472 183.441607 
L 445.985199 182.839509 
L 454.249977 181.984136 
L 461.002792 181.210003 
L 466.712216 180.787911 
" clip-path="url(#p597a77b227)" style="fill: none; stroke: #2ca02c; stroke-width: 1.5; stroke-linecap: square"/>
   </g>
   <g id="line2d_42">
    <path d="M 60.894034 306.821094 
L 69.158812 306.939976 
L 75.911627 307.000533 
L 81.621051 306.949531 
L 86.566778 306.755628 
L 94.831556 306.556718 
L 101.584371 306.753194 
L 107.293795 306.615019 
L 112.239523 306.620858 
L 120.5043 300.589567 
L 127.257116 300.545386 
L 132.966539 300.620969 
L 137.912267 300.488174 
L 146.177045 300.526624 
L 152.92986 300.45077 
L 158.639284 300.479339 
L 163.585012 300.586768 
L 171.849789 300.511199 
L 178.602604 300.559101 
L 184.312028 300.370688 
L 189.257756 300.254655 
L 197.522534 281.801952 
L 204.275349 278.275031 
L 209.984772 277.194492 
L 214.9305 275.574913 
L 223.195278 273.723731 
L 229.948093 272.281033 
L 235.657517 271.356519 
L 240.603245 270.706875 
L 248.868022 269.840747 
L 255.620837 269.12936 
L 261.330261 268.427285 
L 266.275989 268.454373 
L 274.540767 267.813523 
L 281.293582 267.796098 
L 287.003005 267.645342 
L 291.948733 267.413628 
L 300.213511 267.37508 
L 306.966326 253.107447 
L 312.67575 254.834137 
L 317.621478 255.223651 
L 325.886255 198.412848 
L 332.63907 194.694856 
L 338.348494 159.417499 
L 343.294222 104.321346 
L 351.559 80.632133 
L 358.311815 69.36763 
L 364.021238 57.203277 
L 368.966966 44.927553 
L 377.231744 40.353149 
L 383.984559 39.688402 
L 389.693983 37.47122 
L 394.639711 37.65388 
L 402.904488 32.308811 
L 409.657303 29.432789 
L 415.366727 25.936222 
L 420.312455 23.787903 
L 428.577233 20.134294 
L 435.330048 17.252311 
L 441.039472 17.12537 
L 445.985199 14.889183 
L 454.249977 13.345104 
L 461.002792 11.347144 
L 466.712216 11.042124 
" clip-path="url(#p597a77b227)" style="fill: none; stroke: #1f77b4; stroke-width: 1.5; stroke-linecap: square"/>
   </g>
   <g id="line2d_43"/>
   <g id="line2d_44"/>
   <g id="line2d_45"/>
   <g id="line2d_46"/>
   <g id="line2d_47"/>
   <g id="line2d_48"/>
   <g id="line2d_49"/>
   <g id="patch_3">
    <path d="M 40.603125 354.958125 
L 40.603125 22.318125 
" style="fill: none; stroke: #000000; stroke-width: 0.8; stroke-linejoin: miter; stroke-linecap: square"/>
   </g>
   <g id="patch_4">
    <path d="M 487.003125 354.958125 
L 487.003125 22.318125 
" style="fill: none; stroke: #000000; stroke-width: 0.8; stroke-linejoin: miter; stroke-linecap: square"/>
   </g>
   <g id="patch_5">
    <path d="M 40.603125 354.958125 
L 487.003125 354.958125 
" style="fill: none; stroke: #000000; stroke-width: 0.8; stroke-linejoin: miter; stroke-linecap: square"/>
   </g>
   <g id="patch_6">
    <path d="M 40.603125 22.318125 
L 487.003125 22.318125 
" style="fill: none; stroke: #000000; stroke-width: 0.8; stroke-linejoin: miter; stroke-linecap: square"/>
   </g>
   <g id="text_20">
    <!-- L1  -->
    <g style="fill: #ff0000" transform="translate(97.127023 352.878437) scale(0.1 -0.1)">
     <defs>
      <path id="DejaVuSans-4c" d="M 628 4666 
L 1259 4666 
L 1259 531 
L 3531 531 
L 3531 0 
L 628 0 
L 628 4666 
z
" transform="scale(0.015625)"/>
     </defs>
     <use xlink:href="#DejaVuSans-4c"/>
     <use xlink:href="#DejaVuSans-31" x="55.712891"/>
     <use xlink:href="#DejaVuSans-20" x="119.335938"/>
    </g>
   </g>
   <g id="text_21">
    <!-- L2  -->
    <g style="fill: #ff0000" transform="translate(174.145256 352.878437) scale(0.1 -0.1)">
     <use xlink:href="#DejaVuSans-4c"/>
     <use xlink:href="#DejaVuSans-32" x="55.712891"/>
     <use xlink:href="#DejaVuSans-20" x="119.335938"/>
    </g>
   </g>
   <g id="text_22">
    <!-- L3  -->
    <g style="fill: #ff0000" transform="translate(317.52657 352.878437) scale(0.1 -0.1)">
     <use xlink:href="#DejaVuSans-4c"/>
     <use xlink:href="#DejaVuSans-33" x="55.712891"/>
     <use xlink:href="#DejaVuSans-20" x="119.335938"/>
    </g>
   </g>
   <g id="text_23">
    <!-- RAM -->
    <g style="fill: #ff0000" transform="translate(444.695028 352.878437) scale(0.1 -0.1)">
     <defs>
      <path id="DejaVuSans-52" d="M 2841 2188 
Q 3044 2119 3236 1894 
Q 3428 1669 3622 1275 
L 4263 0 
L 3584 0 
L 2988 1197 
Q 2756 1666 2539 1819 
Q 2322 1972 1947 1972 
L 1259 1972 
L 1259 0 
L 628 0 
L 628 4666 
L 2053 4666 
Q 2853 4666 3247 4331 
Q 3641 3997 3641 3322 
Q 3641 2881 3436 2590 
Q 3231 2300 2841 2188 
z
M 1259 4147 
L 1259 2491 
L 2053 2491 
Q 2509 2491 2742 2702 
Q 2975 2913 2975 3322 
Q 2975 3731 2742 3939 
Q 2509 4147 2053 4147 
L 1259 4147 
z
" transform="scale(0.015625)"/>
      <path id="DejaVuSans-4d" d="M 628 4666 
L 1569 4666 
L 2759 1491 
L 3956 4666 
L 4897 4666 
L 4897 0 
L 4281 0 
L 4281 4097 
L 3078 897 
L 2444 897 
L 1241 4097 
L 1241 0 
L 628 0 
L 628 4666 
z
" transform="scale(0.015625)"/>
     </defs>
     <use xlink:href="#DejaVuSans-52"/>
     <use xlink:href="#DejaVuSans-41" x="65.482422"/>
     <use xlink:href="#DejaVuSans-4d" x="133.890625"/>
    </g>
   </g>
   <g id="text_24">
    <!-- Batching with work -->
    <g transform="translate(206.21625 16.318125) scale(0.12 -0.12)">
     <defs>
      <path id="DejaVuSans-42" d="M 1259 2228 
L 1259 519 
L 2272 519 
Q 2781 519 3026 730 
Q 3272 941 3272 1375 
Q 3272 1813 3026 2020 
Q 2781 2228 2272 2228 
L 1259 2228 
z
M 1259 4147 
L 1259 2741 
L 2194 2741 
Q 2656 2741 2882 2914 
Q 3109 3088 3109 3444 
Q 3109 3797 2882 3972 
Q 2656 4147 2194 4147 
L 1259 4147 
z
M 628 4666 
L 2241 4666 
Q 2963 4666 3353 4366 
Q 3744 4066 3744 3513 
Q 3744 3084 3544 2831 
Q 3344 2578 2956 2516 
Q 3422 2416 3680 2098 
Q 3938 1781 3938 1306 
Q 3938 681 3513 340 
Q 3088 0 2303 0 
L 628 0 
L 628 4666 
z
" transform="scale(0.015625)"/>
      <path id="DejaVuSans-63" d="M 3122 3366 
L 3122 2828 
Q 2878 2963 2633 3030 
Q 2388 3097 2138 3097 
Q 1578 3097 1268 2742 
Q 959 2388 959 1747 
Q 959 1106 1268 751 
Q 1578 397 2138 397 
Q 2388 397 2633 464 
Q 2878 531 3122 666 
L 3122 134 
Q 2881 22 2623 -34 
Q 2366 -91 2075 -91 
Q 1284 -91 818 406 
Q 353 903 353 1747 
Q 353 2603 823 3093 
Q 1294 3584 2113 3584 
Q 2378 3584 2631 3529 
Q 2884 3475 3122 3366 
z
" transform="scale(0.015625)"/>
      <path id="DejaVuSans-77" d="M 269 3500 
L 844 3500 
L 1563 769 
L 2278 3500 
L 2956 3500 
L 3675 769 
L 4391 3500 
L 4966 3500 
L 4050 0 
L 3372 0 
L 2619 2869 
L 1863 0 
L 1184 0 
L 269 3500 
z
" transform="scale(0.015625)"/>
      <path id="DejaVuSans-6b" d="M 581 4863 
L 1159 4863 
L 1159 1991 
L 2875 3500 
L 3609 3500 
L 1753 1863 
L 3688 0 
L 2938 0 
L 1159 1709 
L 1159 0 
L 581 0 
L 581 4863 
z
" transform="scale(0.015625)"/>
     </defs>
     <use xlink:href="#DejaVuSans-42"/>
     <use xlink:href="#DejaVuSans-61" x="68.603516"/>
     <use xlink:href="#DejaVuSans-74" x="129.882812"/>
     <use xlink:href="#DejaVuSans-63" x="169.091797"/>
     <use xlink:href="#DejaVuSans-68" x="224.072266"/>
     <use xlink:href="#DejaVuSans-69" x="287.451172"/>
     <use xlink:href="#DejaVuSans-6e" x="315.234375"/>
     <use xlink:href="#DejaVuSans-67" x="378.613281"/>
     <use xlink:href="#DejaVuSans-20" x="442.089844"/>
     <use xlink:href="#DejaVuSans-77" x="473.876953"/>
     <use xlink:href="#DejaVuSans-69" x="555.664062"/>
     <use xlink:href="#DejaVuSans-74" x="583.447266"/>
     <use xlink:href="#DejaVuSans-68" x="622.65625"/>
     <use xlink:href="#DejaVuSans-20" x="686.035156"/>
     <use xlink:href="#DejaVuSans-77" x="717.822266"/>
     <use xlink:href="#DejaVuSans-6f" x="799.609375"/>
     <use xlink:href="#DejaVuSans-72" x="860.791016"/>
     <use xlink:href="#DejaVuSans-6b" x="901.904297"/>
    </g>
   </g>
   <g id="legend_1">
    <g id="patch_7">
     <path d="M 47.603125 118.386875 
L 179.05625 118.386875 
Q 181.05625 118.386875 181.05625 116.386875 
L 181.05625 29.318125 
Q 181.05625 27.318125 179.05625 27.318125 
L 47.603125 27.318125 
Q 45.603125 27.318125 45.603125 29.318125 
L 45.603125 116.386875 
Q 45.603125 118.386875 47.603125 118.386875 
z
" style="fill: #ffffff; opacity: 0.8; stroke: #cccccc; stroke-linejoin: miter"/>
    </g>
    <g id="line2d_50">
     <path d="M 49.603125 35.416562 
L 59.603125 35.416562 
L 69.603125 35.416562 
" style="fill: none; stroke: #000000; stroke-width: 1.5; stroke-linecap: square"/>
    </g>
    <g id="text_25">
     <!-- Latency -->
     <g transform="translate(77.603125 38.916562) scale(0.1 -0.1)">
      <use xlink:href="#DejaVuSans-4c"/>
      <use xlink:href="#DejaVuSans-61" x="55.712891"/>
      <use xlink:href="#DejaVuSans-74" x="116.992188"/>
      <use xlink:href="#DejaVuSans-65" x="156.201172"/>
      <use xlink:href="#DejaVuSans-6e" x="217.724609"/>
      <use xlink:href="#DejaVuSans-63" x="281.103516"/>
      <use xlink:href="#DejaVuSans-79" x="336.083984"/>
     </g>
    </g>
    <g id="line2d_51">
     <path d="M 49.603125 50.094688 
L 59.603125 50.094688 
L 69.603125 50.094688 
" style="fill: none; stroke: #7f7f7f; stroke-width: 1.5; stroke-linecap: square"/>
    </g>
    <g id="text_26">
     <!-- Batch&lt;16&gt; -->
     <g transform="translate(77.603125 53.594688) scale(0.1 -0.1)">
      <defs>
       <path id="DejaVuSans-3c" d="M 4684 3150 
L 1459 2003 
L 4684 863 
L 4684 294 
L 678 1747 
L 678 2266 
L 4684 3719 
L 4684 3150 
z
" transform="scale(0.015625)"/>
       <path id="DejaVuSans-3e" d="M 678 3150 
L 678 3719 
L 4684 2266 
L 4684 1747 
L 678 294 
L 678 863 
L 3897 2003 
L 678 3150 
z
" transform="scale(0.015625)"/>
      </defs>
      <use xlink:href="#DejaVuSans-42"/>
      <use xlink:href="#DejaVuSans-61" x="68.603516"/>
      <use xlink:href="#DejaVuSans-74" x="129.882812"/>
      <use xlink:href="#DejaVuSans-63" x="169.091797"/>
      <use xlink:href="#DejaVuSans-68" x="224.072266"/>
      <use xlink:href="#DejaVuSans-3c" x="287.451172"/>
      <use xlink:href="#DejaVuSans-31" x="371.240234"/>
      <use xlink:href="#DejaVuSans-36" x="434.863281"/>
      <use xlink:href="#DejaVuSans-3e" x="498.486328"/>
     </g>
    </g>
    <g id="line2d_52">
     <path d="M 49.603125 64.772812 
L 59.603125 64.772812 
L 69.603125 64.772812 
" style="fill: none; stroke: #ff7f0e; stroke-width: 1.5; stroke-linecap: square"/>
    </g>
    <g id="text_27">
     <!-- Batch Work3&lt;16&gt; -->
     <g transform="translate(77.603125 68.272812) scale(0.1 -0.1)">
      <defs>
       <path id="DejaVuSans-57" d="M 213 4666 
L 850 4666 
L 1831 722 
L 2809 4666 
L 3519 4666 
L 4500 722 
L 5478 4666 
L 6119 4666 
L 4947 0 
L 4153 0 
L 3169 4050 
L 2175 0 
L 1381 0 
L 213 4666 
z
" transform="scale(0.015625)"/>
      </defs>
      <use xlink:href="#DejaVuSans-42"/>
      <use xlink:href="#DejaVuSans-61" x="68.603516"/>
      <use xlink:href="#DejaVuSans-74" x="129.882812"/>
      <use xlink:href="#DejaVuSans-63" x="169.091797"/>
      <use xlink:href="#DejaVuSans-68" x="224.072266"/>
      <use xlink:href="#DejaVuSans-20" x="287.451172"/>
      <use xlink:href="#DejaVuSans-57" x="319.238281"/>
      <use xlink:href="#DejaVuSans-6f" x="412.240234"/>
      <use xlink:href="#DejaVuSans-72" x="473.421875"/>
      <use xlink:href="#DejaVuSans-6b" x="514.535156"/>
      <use xlink:href="#DejaVuSans-33" x="572.445312"/>
      <use xlink:href="#DejaVuSans-3c" x="636.068359"/>
      <use xlink:href="#DejaVuSans-31" x="719.857422"/>
      <use xlink:href="#DejaVuSans-36" x="783.480469"/>
      <use xlink:href="#DejaVuSans-3e" x="847.103516"/>
     </g>
    </g>
    <g id="line2d_53">
     <path d="M 49.603125 79.450938 
L 59.603125 79.450938 
L 69.603125 79.450938 
" style="fill: none; stroke: #2ca02c; stroke-width: 1.5; stroke-linecap: square"/>
    </g>
    <g id="text_28">
     <!-- Batch Work6&lt;16&gt; -->
     <g transform="translate(77.603125 82.950938) scale(0.1 -0.1)">
      <use xlink:href="#DejaVuSans-42"/>
      <use xlink:href="#DejaVuSans-61" x="68.603516"/>
      <use xlink:href="#DejaVuSans-74" x="129.882812"/>
      <use xlink:href="#DejaVuSans-63" x="169.091797"/>
      <use xlink:href="#DejaVuSans-68" x="224.072266"/>
      <use xlink:href="#DejaVuSans-20" x="287.451172"/>
      <use xlink:href="#DejaVuSans-57" x="319.238281"/>
      <use xlink:href="#DejaVuSans-6f" x="412.240234"/>
      <use xlink:href="#DejaVuSans-72" x="473.421875"/>
      <use xlink:href="#DejaVuSans-6b" x="514.535156"/>
      <use xlink:href="#DejaVuSans-36" x="572.445312"/>
      <use xlink:href="#DejaVuSans-3c" x="636.068359"/>
      <use xlink:href="#DejaVuSans-31" x="719.857422"/>
      <use xlink:href="#DejaVuSans-36" x="783.480469"/>
      <use xlink:href="#DejaVuSans-3e" x="847.103516"/>
     </g>
    </g>
    <g id="line2d_54">
     <path d="M 49.603125 94.129063 
L 59.603125 94.129063 
L 69.603125 94.129063 
" style="fill: none; stroke: #1f77b4; stroke-width: 1.5; stroke-linecap: square"/>
    </g>
    <g id="text_29">
     <!-- Batch Work12&lt;16&gt; -->
     <g transform="translate(77.603125 97.629063) scale(0.1 -0.1)">
      <use xlink:href="#DejaVuSans-42"/>
      <use xlink:href="#DejaVuSans-61" x="68.603516"/>
      <use xlink:href="#DejaVuSans-74" x="129.882812"/>
      <use xlink:href="#DejaVuSans-63" x="169.091797"/>
      <use xlink:href="#DejaVuSans-68" x="224.072266"/>
      <use xlink:href="#DejaVuSans-20" x="287.451172"/>
      <use xlink:href="#DejaVuSans-57" x="319.238281"/>
      <use xlink:href="#DejaVuSans-6f" x="412.240234"/>
      <use xlink:href="#DejaVuSans-72" x="473.421875"/>
      <use xlink:href="#DejaVuSans-6b" x="514.535156"/>
      <use xlink:href="#DejaVuSans-31" x="572.445312"/>
      <use xlink:href="#DejaVuSans-32" x="636.068359"/>
      <use xlink:href="#DejaVuSans-3c" x="699.691406"/>
      <use xlink:href="#DejaVuSans-31" x="783.480469"/>
      <use xlink:href="#DejaVuSans-36" x="847.103516"/>
      <use xlink:href="#DejaVuSans-3e" x="910.726562"/>
     </g>
    </g>
    <g id="line2d_55">
     <path d="M 49.603125 108.807187 
L 59.603125 108.807187 
L 69.603125 108.807187 
" style="fill: none; stroke-dasharray: 1.5,1.5; stroke-dashoffset: 0; stroke: #333333; stroke-width: 1.5"/>
    </g>
    <g id="text_30">
     <!-- Latency -->
     <g transform="translate(77.603125 112.307187) scale(0.1 -0.1)">
      <use xlink:href="#DejaVuSans-4c"/>
      <use xlink:href="#DejaVuSans-61" x="55.712891"/>
      <use xlink:href="#DejaVuSans-74" x="116.992188"/>
      <use xlink:href="#DejaVuSans-65" x="156.201172"/>
      <use xlink:href="#DejaVuSans-6e" x="217.724609"/>
      <use xlink:href="#DejaVuSans-63" x="281.103516"/>
      <use xlink:href="#DejaVuSans-79" x="336.083984"/>
     </g>
    </g>
   </g>
  </g>
 </g>
 <defs>
  <clipPath id="p597a77b227">
   <rect x="40.603125" y="22.318125" width="446.4" height="332.64"/>
  </clipPath>
 </defs>
</svg>
