<?xml version="1.0" encoding="utf-8" standalone="no"?>
<!DOCTYPE svg PUBLIC "-//W3C//DTD SVG 1.1//EN"
  "http://www.w3.org/Graphics/SVG/1.1/DTD/svg11.dtd">
<svg xmlns:xlink="http://www.w3.org/1999/xlink" width="494.203125pt" height="392.514375pt" viewBox="0 0 494.203125 392.514375" xmlns="http://www.w3.org/2000/svg" version="1.1">
 <metadata>
  <rdf:RDF xmlns:dc="http://purl.org/dc/elements/1.1/" xmlns:cc="http://creativecommons.org/ns#" xmlns:rdf="http://www.w3.org/1999/02/22-rdf-syntax-ns#">
   <cc:Work>
    <dc:type rdf:resource="http://purl.org/dc/dcmitype/StillImage"/>
    <dc:date>2024-12-18T05:45:10.519792</dc:date>
    <dc:format>image/svg+xml</dc:format>
    <dc:creator>
     <cc:Agent>
      <dc:title>Matplotlib v3.9.3, https://matplotlib.org/</dc:title>
     </cc:Agent>
    </dc:creator>
   </cc:Work>
  </rdf:RDF>
 </metadata>
 <defs>
  <style type="text/css">*{stroke-linejoin: round; stroke-linecap: butt}</style>
 </defs>
 <g id="figure_1">
  <g id="patch_1">
   <path d="M 0 392.514375 
L 494.203125 392.514375 
L 494.203125 0 
L 0 0 
z
" style="fill: #ffffff"/>
  </g>
  <g id="axes_1">
   <g id="patch_2">
    <path d="M 40.603125 354.958125 
L 487.003125 354.958125 
L 487.003125 22.318125 
L 40.603125 22.318125 
z
" style="fill: #ffffff"/>
   </g>
   <g id="line2d_1">
    <path d="M 112.239523 354.958125 
L 112.239523 22.318125 
" clip-path="url(#p33eff8a1dc)" style="fill: none; stroke-dasharray: 5.55,2.4; stroke-dashoffset: 0; stroke: #ff0000; stroke-width: 1.5"/>
   </g>
   <g id="line2d_2">
    <path d="M 189.257756 354.958125 
L 189.257756 22.318125 
" clip-path="url(#p33eff8a1dc)" style="fill: none; stroke-dasharray: 5.55,2.4; stroke-dashoffset: 0; stroke: #ff0000; stroke-width: 1.5"/>
   </g>
   <g id="line2d_3">
    <path d="M 332.63907 354.958125 
L 332.63907 22.318125 
" clip-path="url(#p33eff8a1dc)" style="fill: none; stroke-dasharray: 5.55,2.4; stroke-dashoffset: 0; stroke: #ff0000; stroke-width: 1.5"/>
   </g>
   <g id="PolyCollection_1">
    <defs>
     <path id="m76c9b9adbc" d="M 60.894034 -46.785017 
L 60.894034 -46.66408 
L 69.158812 -46.673074 
L 75.911627 -46.668727 
L 81.621051 -46.670711 
L 86.566778 -46.669842 
L 94.831556 -46.67238 
L 101.584371 -46.684477 
L 107.293795 -46.686812 
L 112.239523 -46.689286 
L 120.5043 -57.252238 
L 127.257116 -57.254118 
L 132.966539 -57.259068 
L 137.912267 -57.277447 
L 146.177045 -57.274605 
L 152.92986 -61.920482 
L 158.639284 -61.485854 
L 163.585012 -57.328543 
L 171.849789 -60.246196 
L 178.602604 -64.413494 
L 184.312028 -69.701375 
L 189.257756 -71.528835 
L 197.522534 -82.898601 
L 204.275349 -88.971182 
L 209.984772 -92.796708 
L 214.9305 -97.131853 
L 223.195278 -102.315249 
L 229.948093 -105.6991 
L 235.657517 -107.592087 
L 240.603245 -109.05927 
L 248.868022 -110.880134 
L 255.620837 -112.106611 
L 261.330261 -113.164899 
L 266.275989 -114.016181 
L 274.540767 -114.992256 
L 281.293582 -115.730476 
L 287.003005 -116.411351 
L 291.948733 -116.841545 
L 300.213511 -117.92305 
L 306.966326 -120.411623 
L 312.67575 -126.084481 
L 317.621478 -132.630003 
L 325.886255 -159.069055 
L 332.63907 -200.5545 
L 338.348494 -242.362176 
L 343.294222 -278.23831 
L 351.559 -302.493052 
L 358.311815 -318.810988 
L 364.021238 -331.927671 
L 368.966966 -314.057265 
L 377.231744 -318.099351 
L 383.984559 -321.026796 
L 389.693983 -322.25212 
L 394.639711 -322.854878 
L 402.904488 -324.477639 
L 409.657303 -328.72428 
L 415.366727 -330.473234 
L 420.312455 -332.702405 
L 428.577233 -336.044673 
L 435.330048 -337.633862 
L 441.039472 -339.263633 
L 445.985199 -341.033221 
L 454.249977 -341.845085 
L 461.002792 -343.677895 
L 466.712216 -343.633523 
L 466.712216 -344.698639 
L 466.712216 -344.698639 
L 461.002792 -344.428753 
L 454.249977 -344.594342 
L 445.985199 -341.977592 
L 441.039472 -341.730825 
L 435.330048 -340.37096 
L 428.577233 -336.281817 
L 420.312455 -336.250491 
L 415.366727 -333.19891 
L 409.657303 -329.843726 
L 402.904488 -327.795696 
L 394.639711 -323.473593 
L 389.693983 -325.01467 
L 383.984559 -321.895811 
L 377.231744 -320.125364 
L 368.966966 -317.299485 
L 364.021238 -332.675786 
L 358.311815 -321.418277 
L 351.559 -306.464162 
L 343.294222 -282.986269 
L 338.348494 -245.103627 
L 332.63907 -201.565177 
L 325.886255 -161.505832 
L 317.621478 -137.028203 
L 312.67575 -128.678789 
L 306.966326 -123.975389 
L 300.213511 -118.065239 
L 291.948733 -116.930501 
L 287.003005 -116.422405 
L 281.293582 -116.973344 
L 274.540767 -116.366132 
L 266.275989 -115.225201 
L 261.330261 -115.216777 
L 255.620837 -112.32835 
L 248.868022 -110.942808 
L 240.603245 -109.527851 
L 235.657517 -107.682255 
L 229.948093 -105.766422 
L 223.195278 -103.202676 
L 214.9305 -99.756238 
L 209.984772 -94.671533 
L 204.275349 -91.29318 
L 197.522534 -85.130609 
L 189.257756 -71.861897 
L 184.312028 -70.937564 
L 178.602604 -66.762163 
L 171.849789 -64.058149 
L 163.585012 -63.616925 
L 158.639284 -62.714903 
L 152.92986 -62.037267 
L 146.177045 -57.281913 
L 137.912267 -57.397969 
L 132.966539 -57.268876 
L 127.257116 -57.281121 
L 120.5043 -57.274487 
L 112.239523 -46.70224 
L 107.293795 -46.694648 
L 101.584371 -46.685374 
L 94.831556 -46.743656 
L 86.566778 -46.673437 
L 81.621051 -46.678606 
L 75.911627 -46.679418 
L 69.158812 -46.77062 
L 60.894034 -46.785017 
z
" style="stroke: #d62728; stroke-opacity: 0.2"/>
    </defs>
    <g clip-path="url(#p33eff8a1dc)">
     <use xlink:href="#m76c9b9adbc" x="0" y="392.514375" style="fill: #d62728; fill-opacity: 0.2; stroke: #d62728; stroke-opacity: 0.2"/>
    </g>
   </g>
   <g id="PolyCollection_2">
    <defs>
     <path id="mc77e5b478b" d="M 60.894034 -43.66204 
L 60.894034 -43.614587 
L 69.158812 -43.621321 
L 75.911627 -43.617773 
L 81.621051 -43.622509 
L 86.566778 -43.62174 
L 94.831556 -43.627192 
L 101.584371 -43.635116 
L 107.293795 -43.630006 
L 112.239523 -43.630564 
L 120.5043 -55.705058 
L 127.257116 -55.703534 
L 132.966539 -55.703291 
L 137.912267 -55.703006 
L 146.177045 -55.706779 
L 152.92986 -55.719457 
L 158.639284 -55.716275 
L 163.585012 -55.724611 
L 171.849789 -55.736773 
L 178.602604 -55.733828 
L 184.312028 -55.77524 
L 189.257756 -63.359311 
L 197.522534 -76.856828 
L 204.275349 -83.450632 
L 209.984772 -88.587134 
L 214.9305 -92.751765 
L 223.195278 -97.341823 
L 229.948093 -100.486233 
L 235.657517 -102.207521 
L 240.603245 -103.541652 
L 248.868022 -105.274431 
L 255.620837 -106.537146 
L 261.330261 -107.487014 
L 266.275989 -108.138178 
L 274.540767 -109.233729 
L 281.293582 -109.847231 
L 287.003005 -110.450566 
L 291.948733 -110.87103 
L 300.213511 -111.853487 
L 306.966326 -114.899634 
L 312.67575 -119.668303 
L 317.621478 -127.052087 
L 325.886255 -152.54736 
L 332.63907 -196.563157 
L 338.348494 -239.349853 
L 343.294222 -275.973288 
L 351.559 -305.125396 
L 358.311815 -318.496253 
L 364.021238 -332.380613 
L 368.966966 -315.454252 
L 377.231744 -320.173396 
L 383.984559 -322.071372 
L 389.693983 -323.332097 
L 394.639711 -323.923597 
L 402.904488 -325.81813 
L 409.657303 -329.537851 
L 415.366727 -332.023667 
L 420.312455 -333.653884 
L 428.577233 -336.802068 
L 435.330048 -338.69146 
L 441.039472 -340.258524 
L 445.985199 -341.749507 
L 454.249977 -343.521165 
L 461.002792 -344.082639 
L 466.712216 -344.805943 
L 466.712216 -345.055319 
L 466.712216 -345.055319 
L 461.002792 -345.294222 
L 454.249977 -344.396104 
L 445.985199 -342.674423 
L 441.039472 -341.04737 
L 435.330048 -339.640063 
L 428.577233 -337.602919 
L 420.312455 -335.673019 
L 415.366727 -332.931019 
L 409.657303 -330.6387 
L 402.904488 -327.596901 
L 394.639711 -324.925601 
L 389.693983 -324.664185 
L 383.984559 -323.473673 
L 377.231744 -320.620892 
L 368.966966 -316.752605 
L 364.021238 -335.23394 
L 358.311815 -320.159162 
L 351.559 -306.108777 
L 343.294222 -278.785913 
L 338.348494 -241.543992 
L 332.63907 -199.320576 
L 325.886255 -155.11135 
L 317.621478 -130.498237 
L 312.67575 -120.59822 
L 306.966326 -115.500281 
L 300.213511 -111.884336 
L 291.948733 -110.961944 
L 287.003005 -110.503573 
L 281.293582 -111.116977 
L 274.540767 -109.2508 
L 266.275989 -109.432297 
L 261.330261 -107.514658 
L 255.620837 -106.609644 
L 248.868022 -106.582342 
L 240.603245 -103.721082 
L 235.657517 -102.356912 
L 229.948093 -100.622684 
L 223.195278 -98.099822 
L 214.9305 -94.192875 
L 209.984772 -90.898282 
L 204.275349 -86.807026 
L 197.522534 -79.476922 
L 189.257756 -67.375089 
L 184.312028 -55.789177 
L 178.602604 -55.742514 
L 171.849789 -55.751087 
L 163.585012 -55.729583 
L 158.639284 -55.736418 
L 152.92986 -55.722377 
L 146.177045 -55.714111 
L 137.912267 -55.709725 
L 132.966539 -56.989558 
L 127.257116 -55.707915 
L 120.5043 -55.709427 
L 112.239523 -43.63848 
L 107.293795 -43.743189 
L 101.584371 -43.729335 
L 94.831556 -43.630602 
L 86.566778 -43.63026 
L 81.621051 -43.730793 
L 75.911627 -43.623275 
L 69.158812 -43.623237 
L 60.894034 -43.66204 
z
" style="stroke: #e377c2; stroke-opacity: 0.2"/>
    </defs>
    <g clip-path="url(#p33eff8a1dc)">
     <use xlink:href="#mc77e5b478b" x="0" y="392.514375" style="fill: #e377c2; fill-opacity: 0.2; stroke: #e377c2; stroke-opacity: 0.2"/>
    </g>
   </g>
   <g id="PolyCollection_3">
    <defs>
     <path id="m68018fed00" d="M 60.894034 -46.622347 
L 60.894034 -46.62042 
L 69.158812 -46.619906 
L 75.911627 -46.619525 
L 81.621051 -46.619644 
L 86.566778 -46.620018 
L 94.831556 -46.620736 
L 101.584371 -46.621544 
L 107.293795 -46.622408 
L 112.239523 -46.62315 
L 120.5043 -57.186741 
L 127.257116 -57.18713 
L 132.966539 -57.186878 
L 137.912267 -57.187303 
L 146.177045 -57.189177 
L 152.92986 -57.18911 
L 158.639284 -57.190072 
L 163.585012 -57.19231 
L 171.849789 -57.19928 
L 178.602604 -57.18729 
L 184.312028 -57.235198 
L 189.257756 -57.273231 
L 197.522534 -80.429733 
L 204.275349 -84.55222 
L 209.984772 -86.598384 
L 214.9305 -88.612889 
L 223.195278 -90.92314 
L 229.948093 -92.441585 
L 235.657517 -93.763278 
L 240.603245 -94.747639 
L 248.868022 -95.750541 
L 255.620837 -96.398352 
L 261.330261 -96.87891 
L 266.275989 -97.260744 
L 274.540767 -97.775881 
L 281.293582 -98.065154 
L 287.003005 -98.297541 
L 291.948733 -98.503522 
L 300.213511 -98.736915 
L 306.966326 -98.854987 
L 312.67575 -99.329462 
L 317.621478 -106.937844 
L 325.886255 -105.49517 
L 332.63907 -125.765508 
L 338.348494 -199.79214 
L 343.294222 -235.454549 
L 351.559 -268.859213 
L 358.311815 -286.669591 
L 364.021238 -300.2593 
L 368.966966 -311.914671 
L 377.231744 -316.946125 
L 383.984559 -320.838721 
L 389.693983 -321.898714 
L 394.639711 -323.069757 
L 402.904488 -327.595286 
L 409.657303 -331.378588 
L 415.366727 -333.014999 
L 420.312455 -335.187081 
L 428.577233 -337.550958 
L 435.330048 -340.067613 
L 441.039472 -341.438067 
L 445.985199 -342.388109 
L 454.249977 -344.30859 
L 461.002792 -345.812867 
L 466.712216 -345.875396 
L 466.712216 -346.079051 
L 466.712216 -346.079051 
L 461.002792 -346.126895 
L 454.249977 -345.474754 
L 445.985199 -343.959367 
L 441.039472 -342.359809 
L 435.330048 -340.228212 
L 428.577233 -338.538026 
L 420.312455 -336.13054 
L 415.366727 -333.26804 
L 409.657303 -332.818601 
L 402.904488 -329.264236 
L 394.639711 -324.986078 
L 389.693983 -323.772014 
L 383.984559 -323.877944 
L 377.231744 -321.819388 
L 368.966966 -315.195934 
L 364.021238 -306.527114 
L 358.311815 -292.033147 
L 351.559 -281.817255 
L 343.294222 -238.709001 
L 338.348494 -208.719853 
L 332.63907 -134.910585 
L 325.886255 -110.700878 
L 317.621478 -110.530281 
L 312.67575 -110.774125 
L 306.966326 -113.166194 
L 300.213511 -98.919031 
L 291.948733 -99.726972 
L 287.003005 -98.300939 
L 281.293582 -99.291583 
L 274.540767 -97.806206 
L 266.275989 -97.269185 
L 261.330261 -96.894594 
L 255.620837 -96.459165 
L 248.868022 -95.785361 
L 240.603245 -94.788863 
L 235.657517 -93.864178 
L 229.948093 -92.456569 
L 223.195278 -90.96381 
L 214.9305 -89.896782 
L 209.984772 -86.609796 
L 204.275349 -84.662857 
L 197.522534 -81.703341 
L 189.257756 -57.282007 
L 184.312028 -57.245237 
L 178.602604 -57.189254 
L 171.849789 -57.204087 
L 163.585012 -58.495558 
L 158.639284 -57.191273 
L 152.92986 -57.191482 
L 146.177045 -57.190292 
L 137.912267 -57.188105 
L 132.966539 -57.195853 
L 127.257116 -57.251077 
L 120.5043 -57.190263 
L 112.239523 -46.623601 
L 107.293795 -46.623323 
L 101.584371 -46.62391 
L 94.831556 -46.621275 
L 86.566778 -46.622635 
L 81.621051 -46.619861 
L 75.911627 -46.620351 
L 69.158812 -46.669045 
L 60.894034 -46.622347 
z
" style="stroke: #9467bd; stroke-opacity: 0.2"/>
    </defs>
    <g clip-path="url(#p33eff8a1dc)">
     <use xlink:href="#m68018fed00" x="0" y="392.514375" style="fill: #9467bd; fill-opacity: 0.2; stroke: #9467bd; stroke-opacity: 0.2"/>
    </g>
   </g>
   <g id="PolyCollection_4">
    <defs>
     <path id="m01af7ef388" d="M 60.894034 -43.620568 
L 60.894034 -43.598865 
L 69.158812 -43.600135 
L 75.911627 -43.601456 
L 81.621051 -43.600644 
L 86.566778 -43.599309 
L 94.831556 -43.602938 
L 101.584371 -43.602391 
L 107.293795 -43.600914 
L 112.239523 -43.604138 
L 120.5043 -55.677295 
L 127.257116 -55.67694 
L 132.966539 -55.683422 
L 137.912267 -55.677263 
L 146.177045 -55.680271 
L 152.92986 -55.678905 
L 158.639284 -55.683657 
L 163.585012 -55.681176 
L 171.849789 -55.688253 
L 178.602604 -55.682435 
L 184.312028 -55.72368 
L 189.257756 -55.757853 
L 197.522534 -79.005946 
L 204.275349 -83.220744 
L 209.984772 -85.22128 
L 214.9305 -87.316551 
L 223.195278 -89.598615 
L 229.948093 -91.110328 
L 235.657517 -92.493531 
L 240.603245 -93.447514 
L 248.868022 -94.433001 
L 255.620837 -95.118541 
L 261.330261 -95.582543 
L 266.275989 -95.934125 
L 274.540767 -96.56879 
L 281.293582 -96.784042 
L 287.003005 -97.005617 
L 291.948733 -97.204314 
L 300.213511 -97.546343 
L 306.966326 -99.48699 
L 312.67575 -100.122976 
L 317.621478 -101.89422 
L 325.886255 -104.609422 
L 332.63907 -172.948414 
L 338.348494 -198.671239 
L 343.294222 -231.582559 
L 351.559 -266.935041 
L 358.311815 -290.347997 
L 364.021238 -304.540373 
L 368.966966 -313.164551 
L 377.231744 -320.204315 
L 383.984559 -321.796927 
L 389.693983 -321.39823 
L 394.639711 -322.88856 
L 402.904488 -325.981585 
L 409.657303 -329.284296 
L 415.366727 -332.618869 
L 420.312455 -333.93947 
L 428.577233 -336.246007 
L 435.330048 -338.800776 
L 441.039472 -339.899392 
L 445.985199 -341.19962 
L 454.249977 -343.536951 
L 461.002792 -344.248794 
L 466.712216 -344.726841 
L 466.712216 -345.513753 
L 466.712216 -345.513753 
L 461.002792 -345.224948 
L 454.249977 -344.154224 
L 445.985199 -343.009691 
L 441.039472 -340.224849 
L 435.330048 -339.555278 
L 428.577233 -336.825984 
L 420.312455 -334.709002 
L 415.366727 -333.541902 
L 409.657303 -330.508722 
L 402.904488 -327.427562 
L 394.639711 -324.309223 
L 389.693983 -322.42029 
L 383.984559 -322.146158 
L 377.231744 -321.086086 
L 368.966966 -313.556485 
L 364.021238 -305.027313 
L 358.311815 -291.69786 
L 351.559 -280.999656 
L 343.294222 -238.218815 
L 338.348494 -217.750745 
L 332.63907 -176.543928 
L 325.886255 -167.409546 
L 317.621478 -106.593989 
L 312.67575 -106.44553 
L 306.966326 -107.501486 
L 300.213511 -98.914409 
L 291.948733 -98.058132 
L 287.003005 -97.809043 
L 281.293582 -97.232011 
L 274.540767 -97.714814 
L 266.275989 -96.378957 
L 261.330261 -95.854399 
L 255.620837 -95.326555 
L 248.868022 -95.686767 
L 240.603245 -93.52182 
L 235.657517 -92.535989 
L 229.948093 -92.412492 
L 223.195278 -89.670025 
L 214.9305 -87.419822 
L 209.984772 -85.348106 
L 204.275349 -83.287353 
L 197.522534 -79.119157 
L 189.257756 -55.887682 
L 184.312028 -55.83531 
L 178.602604 -55.785471 
L 171.849789 -55.776859 
L 163.585012 -55.747213 
L 158.639284 -55.744762 
L 152.92986 -55.740843 
L 146.177045 -55.743098 
L 137.912267 -55.721832 
L 132.966539 -56.941129 
L 127.257116 -55.724643 
L 120.5043 -55.72373 
L 112.239523 -43.636256 
L 107.293795 -43.634705 
L 101.584371 -43.632304 
L 94.831556 -43.693331 
L 86.566778 -43.620247 
L 81.621051 -43.625915 
L 75.911627 -43.621758 
L 69.158812 -43.623654 
L 60.894034 -43.620568 
z
" style="stroke: #7f7f7f; stroke-opacity: 0.2"/>
    </defs>
    <g clip-path="url(#p33eff8a1dc)">
     <use xlink:href="#m01af7ef388" x="0" y="392.514375" style="fill: #7f7f7f; fill-opacity: 0.2; stroke: #7f7f7f; stroke-opacity: 0.2"/>
    </g>
   </g>
   <g id="matplotlib.axis_1">
    <g id="xtick_1">
     <g id="line2d_4">
      <path d="M 86.566778 354.958125 
L 86.566778 22.318125 
" clip-path="url(#p33eff8a1dc)" style="fill: none; stroke: #b0b0b0; stroke-opacity: 0.4; stroke-width: 0.8; stroke-linecap: square"/>
     </g>
     <g id="line2d_5">
      <defs>
       <path id="md5f5a0021a" d="M 0 0 
L 0 3.5 
" style="stroke: #000000; stroke-width: 0.8"/>
      </defs>
      <g>
       <use xlink:href="#md5f5a0021a" x="86.566778" y="354.958125" style="stroke: #000000; stroke-width: 0.8"/>
      </g>
     </g>
     <g id="text_1">
      <!-- $\mathdefault{2^{14}}$ -->
      <g transform="translate(78.716778 369.556562) scale(0.1 -0.1)">
       <defs>
        <path id="DejaVuSans-32" d="M 1228 531 
L 3431 531 
L 3431 0 
L 469 0 
L 469 531 
Q 828 903 1448 1529 
Q 2069 2156 2228 2338 
Q 2531 2678 2651 2914 
Q 2772 3150 2772 3378 
Q 2772 3750 2511 3984 
Q 2250 4219 1831 4219 
Q 1534 4219 1204 4116 
Q 875 4013 500 3803 
L 500 4441 
Q 881 4594 1212 4672 
Q 1544 4750 1819 4750 
Q 2544 4750 2975 4387 
Q 3406 4025 3406 3419 
Q 3406 3131 3298 2873 
Q 3191 2616 2906 2266 
Q 2828 2175 2409 1742 
Q 1991 1309 1228 531 
z
" transform="scale(0.015625)"/>
        <path id="DejaVuSans-31" d="M 794 531 
L 1825 531 
L 1825 4091 
L 703 3866 
L 703 4441 
L 1819 4666 
L 2450 4666 
L 2450 531 
L 3481 531 
L 3481 0 
L 794 0 
L 794 531 
z
" transform="scale(0.015625)"/>
        <path id="DejaVuSans-34" d="M 2419 4116 
L 825 1625 
L 2419 1625 
L 2419 4116 
z
M 2253 4666 
L 3047 4666 
L 3047 1625 
L 3713 1625 
L 3713 1100 
L 3047 1100 
L 3047 0 
L 2419 0 
L 2419 1100 
L 313 1100 
L 313 1709 
L 2253 4666 
z
" transform="scale(0.015625)"/>
       </defs>
       <use xlink:href="#DejaVuSans-32" transform="translate(0 0.684375)"/>
       <use xlink:href="#DejaVuSans-31" transform="translate(64.580078 38.965625) scale(0.7)"/>
       <use xlink:href="#DejaVuSans-34" transform="translate(109.116211 38.965625) scale(0.7)"/>
      </g>
     </g>
    </g>
    <g id="xtick_2">
     <g id="line2d_6">
      <path d="M 137.912267 354.958125 
L 137.912267 22.318125 
" clip-path="url(#p33eff8a1dc)" style="fill: none; stroke: #b0b0b0; stroke-opacity: 0.4; stroke-width: 0.8; stroke-linecap: square"/>
     </g>
     <g id="line2d_7">
      <g>
       <use xlink:href="#md5f5a0021a" x="137.912267" y="354.958125" style="stroke: #000000; stroke-width: 0.8"/>
      </g>
     </g>
     <g id="text_2">
      <!-- $\mathdefault{2^{16}}$ -->
      <g transform="translate(130.062267 369.556562) scale(0.1 -0.1)">
       <defs>
        <path id="DejaVuSans-36" d="M 2113 2584 
Q 1688 2584 1439 2293 
Q 1191 2003 1191 1497 
Q 1191 994 1439 701 
Q 1688 409 2113 409 
Q 2538 409 2786 701 
Q 3034 994 3034 1497 
Q 3034 2003 2786 2293 
Q 2538 2584 2113 2584 
z
M 3366 4563 
L 3366 3988 
Q 3128 4100 2886 4159 
Q 2644 4219 2406 4219 
Q 1781 4219 1451 3797 
Q 1122 3375 1075 2522 
Q 1259 2794 1537 2939 
Q 1816 3084 2150 3084 
Q 2853 3084 3261 2657 
Q 3669 2231 3669 1497 
Q 3669 778 3244 343 
Q 2819 -91 2113 -91 
Q 1303 -91 875 529 
Q 447 1150 447 2328 
Q 447 3434 972 4092 
Q 1497 4750 2381 4750 
Q 2619 4750 2861 4703 
Q 3103 4656 3366 4563 
z
" transform="scale(0.015625)"/>
       </defs>
       <use xlink:href="#DejaVuSans-32" transform="translate(0 0.765625)"/>
       <use xlink:href="#DejaVuSans-31" transform="translate(64.580078 39.046875) scale(0.7)"/>
       <use xlink:href="#DejaVuSans-36" transform="translate(109.116211 39.046875) scale(0.7)"/>
      </g>
     </g>
    </g>
    <g id="xtick_3">
     <g id="line2d_8">
      <path d="M 189.257756 354.958125 
L 189.257756 22.318125 
" clip-path="url(#p33eff8a1dc)" style="fill: none; stroke: #b0b0b0; stroke-opacity: 0.4; stroke-width: 0.8; stroke-linecap: square"/>
     </g>
     <g id="line2d_9">
      <g>
       <use xlink:href="#md5f5a0021a" x="189.257756" y="354.958125" style="stroke: #000000; stroke-width: 0.8"/>
      </g>
     </g>
     <g id="text_3">
      <!-- $\mathdefault{2^{18}}$ -->
      <g transform="translate(181.407756 369.556562) scale(0.1 -0.1)">
       <defs>
        <path id="DejaVuSans-38" d="M 2034 2216 
Q 1584 2216 1326 1975 
Q 1069 1734 1069 1313 
Q 1069 891 1326 650 
Q 1584 409 2034 409 
Q 2484 409 2743 651 
Q 3003 894 3003 1313 
Q 3003 1734 2745 1975 
Q 2488 2216 2034 2216 
z
M 1403 2484 
Q 997 2584 770 2862 
Q 544 3141 544 3541 
Q 544 4100 942 4425 
Q 1341 4750 2034 4750 
Q 2731 4750 3128 4425 
Q 3525 4100 3525 3541 
Q 3525 3141 3298 2862 
Q 3072 2584 2669 2484 
Q 3125 2378 3379 2068 
Q 3634 1759 3634 1313 
Q 3634 634 3220 271 
Q 2806 -91 2034 -91 
Q 1263 -91 848 271 
Q 434 634 434 1313 
Q 434 1759 690 2068 
Q 947 2378 1403 2484 
z
M 1172 3481 
Q 1172 3119 1398 2916 
Q 1625 2713 2034 2713 
Q 2441 2713 2670 2916 
Q 2900 3119 2900 3481 
Q 2900 3844 2670 4047 
Q 2441 4250 2034 4250 
Q 1625 4250 1398 4047 
Q 1172 3844 1172 3481 
z
" transform="scale(0.015625)"/>
       </defs>
       <use xlink:href="#DejaVuSans-32" transform="translate(0 0.765625)"/>
       <use xlink:href="#DejaVuSans-31" transform="translate(64.580078 39.046875) scale(0.7)"/>
       <use xlink:href="#DejaVuSans-38" transform="translate(109.116211 39.046875) scale(0.7)"/>
      </g>
     </g>
    </g>
    <g id="xtick_4">
     <g id="line2d_10">
      <path d="M 240.603245 354.958125 
L 240.603245 22.318125 
" clip-path="url(#p33eff8a1dc)" style="fill: none; stroke: #b0b0b0; stroke-opacity: 0.4; stroke-width: 0.8; stroke-linecap: square"/>
     </g>
     <g id="line2d_11">
      <g>
       <use xlink:href="#md5f5a0021a" x="240.603245" y="354.958125" style="stroke: #000000; stroke-width: 0.8"/>
      </g>
     </g>
     <g id="text_4">
      <!-- $\mathdefault{2^{20}}$ -->
      <g transform="translate(232.753245 369.556562) scale(0.1 -0.1)">
       <defs>
        <path id="DejaVuSans-30" d="M 2034 4250 
Q 1547 4250 1301 3770 
Q 1056 3291 1056 2328 
Q 1056 1369 1301 889 
Q 1547 409 2034 409 
Q 2525 409 2770 889 
Q 3016 1369 3016 2328 
Q 3016 3291 2770 3770 
Q 2525 4250 2034 4250 
z
M 2034 4750 
Q 2819 4750 3233 4129 
Q 3647 3509 3647 2328 
Q 3647 1150 3233 529 
Q 2819 -91 2034 -91 
Q 1250 -91 836 529 
Q 422 1150 422 2328 
Q 422 3509 836 4129 
Q 1250 4750 2034 4750 
z
" transform="scale(0.015625)"/>
       </defs>
       <use xlink:href="#DejaVuSans-32" transform="translate(0 0.765625)"/>
       <use xlink:href="#DejaVuSans-32" transform="translate(64.580078 39.046875) scale(0.7)"/>
       <use xlink:href="#DejaVuSans-30" transform="translate(109.116211 39.046875) scale(0.7)"/>
      </g>
     </g>
    </g>
    <g id="xtick_5">
     <g id="line2d_12">
      <path d="M 291.948733 354.958125 
L 291.948733 22.318125 
" clip-path="url(#p33eff8a1dc)" style="fill: none; stroke: #b0b0b0; stroke-opacity: 0.4; stroke-width: 0.8; stroke-linecap: square"/>
     </g>
     <g id="line2d_13">
      <g>
       <use xlink:href="#md5f5a0021a" x="291.948733" y="354.958125" style="stroke: #000000; stroke-width: 0.8"/>
      </g>
     </g>
     <g id="text_5">
      <!-- $\mathdefault{2^{22}}$ -->
      <g transform="translate(284.098733 369.556562) scale(0.1 -0.1)">
       <use xlink:href="#DejaVuSans-32" transform="translate(0 0.765625)"/>
       <use xlink:href="#DejaVuSans-32" transform="translate(64.580078 39.046875) scale(0.7)"/>
       <use xlink:href="#DejaVuSans-32" transform="translate(109.116211 39.046875) scale(0.7)"/>
      </g>
     </g>
    </g>
    <g id="xtick_6">
     <g id="line2d_14">
      <path d="M 343.294222 354.958125 
L 343.294222 22.318125 
" clip-path="url(#p33eff8a1dc)" style="fill: none; stroke: #b0b0b0; stroke-opacity: 0.4; stroke-width: 0.8; stroke-linecap: square"/>
     </g>
     <g id="line2d_15">
      <g>
       <use xlink:href="#md5f5a0021a" x="343.294222" y="354.958125" style="stroke: #000000; stroke-width: 0.8"/>
      </g>
     </g>
     <g id="text_6">
      <!-- $\mathdefault{2^{24}}$ -->
      <g transform="translate(335.444222 369.556562) scale(0.1 -0.1)">
       <use xlink:href="#DejaVuSans-32" transform="translate(0 0.765625)"/>
       <use xlink:href="#DejaVuSans-32" transform="translate(64.580078 39.046875) scale(0.7)"/>
       <use xlink:href="#DejaVuSans-34" transform="translate(109.116211 39.046875) scale(0.7)"/>
      </g>
     </g>
    </g>
    <g id="xtick_7">
     <g id="line2d_16">
      <path d="M 394.639711 354.958125 
L 394.639711 22.318125 
" clip-path="url(#p33eff8a1dc)" style="fill: none; stroke: #b0b0b0; stroke-opacity: 0.4; stroke-width: 0.8; stroke-linecap: square"/>
     </g>
     <g id="line2d_17">
      <g>
       <use xlink:href="#md5f5a0021a" x="394.639711" y="354.958125" style="stroke: #000000; stroke-width: 0.8"/>
      </g>
     </g>
     <g id="text_7">
      <!-- $\mathdefault{2^{26}}$ -->
      <g transform="translate(386.789711 369.556562) scale(0.1 -0.1)">
       <use xlink:href="#DejaVuSans-32" transform="translate(0 0.765625)"/>
       <use xlink:href="#DejaVuSans-32" transform="translate(64.580078 39.046875) scale(0.7)"/>
       <use xlink:href="#DejaVuSans-36" transform="translate(109.116211 39.046875) scale(0.7)"/>
      </g>
     </g>
    </g>
    <g id="xtick_8">
     <g id="line2d_18">
      <path d="M 445.985199 354.958125 
L 445.985199 22.318125 
" clip-path="url(#p33eff8a1dc)" style="fill: none; stroke: #b0b0b0; stroke-opacity: 0.4; stroke-width: 0.8; stroke-linecap: square"/>
     </g>
     <g id="line2d_19">
      <g>
       <use xlink:href="#md5f5a0021a" x="445.985199" y="354.958125" style="stroke: #000000; stroke-width: 0.8"/>
      </g>
     </g>
     <g id="text_8">
      <!-- $\mathdefault{2^{28}}$ -->
      <g transform="translate(438.135199 369.556562) scale(0.1 -0.1)">
       <use xlink:href="#DejaVuSans-32" transform="translate(0 0.765625)"/>
       <use xlink:href="#DejaVuSans-32" transform="translate(64.580078 39.046875) scale(0.7)"/>
       <use xlink:href="#DejaVuSans-38" transform="translate(109.116211 39.046875) scale(0.7)"/>
      </g>
     </g>
    </g>
    <g id="text_9">
     <!-- Array Size (bytes) -->
     <g transform="translate(219.217188 383.234687) scale(0.1 -0.1)">
      <defs>
       <path id="DejaVuSans-41" d="M 2188 4044 
L 1331 1722 
L 3047 1722 
L 2188 4044 
z
M 1831 4666 
L 2547 4666 
L 4325 0 
L 3669 0 
L 3244 1197 
L 1141 1197 
L 716 0 
L 50 0 
L 1831 4666 
z
" transform="scale(0.015625)"/>
       <path id="DejaVuSans-72" d="M 2631 2963 
Q 2534 3019 2420 3045 
Q 2306 3072 2169 3072 
Q 1681 3072 1420 2755 
Q 1159 2438 1159 1844 
L 1159 0 
L 581 0 
L 581 3500 
L 1159 3500 
L 1159 2956 
Q 1341 3275 1631 3429 
Q 1922 3584 2338 3584 
Q 2397 3584 2469 3576 
Q 2541 3569 2628 3553 
L 2631 2963 
z
" transform="scale(0.015625)"/>
       <path id="DejaVuSans-61" d="M 2194 1759 
Q 1497 1759 1228 1600 
Q 959 1441 959 1056 
Q 959 750 1161 570 
Q 1363 391 1709 391 
Q 2188 391 2477 730 
Q 2766 1069 2766 1631 
L 2766 1759 
L 2194 1759 
z
M 3341 1997 
L 3341 0 
L 2766 0 
L 2766 531 
Q 2569 213 2275 61 
Q 1981 -91 1556 -91 
Q 1019 -91 701 211 
Q 384 513 384 1019 
Q 384 1609 779 1909 
Q 1175 2209 1959 2209 
L 2766 2209 
L 2766 2266 
Q 2766 2663 2505 2880 
Q 2244 3097 1772 3097 
Q 1472 3097 1187 3025 
Q 903 2953 641 2809 
L 641 3341 
Q 956 3463 1253 3523 
Q 1550 3584 1831 3584 
Q 2591 3584 2966 3190 
Q 3341 2797 3341 1997 
z
" transform="scale(0.015625)"/>
       <path id="DejaVuSans-79" d="M 2059 -325 
Q 1816 -950 1584 -1140 
Q 1353 -1331 966 -1331 
L 506 -1331 
L 506 -850 
L 844 -850 
Q 1081 -850 1212 -737 
Q 1344 -625 1503 -206 
L 1606 56 
L 191 3500 
L 800 3500 
L 1894 763 
L 2988 3500 
L 3597 3500 
L 2059 -325 
z
" transform="scale(0.015625)"/>
       <path id="DejaVuSans-20" transform="scale(0.015625)"/>
       <path id="DejaVuSans-53" d="M 3425 4513 
L 3425 3897 
Q 3066 4069 2747 4153 
Q 2428 4238 2131 4238 
Q 1616 4238 1336 4038 
Q 1056 3838 1056 3469 
Q 1056 3159 1242 3001 
Q 1428 2844 1947 2747 
L 2328 2669 
Q 3034 2534 3370 2195 
Q 3706 1856 3706 1288 
Q 3706 609 3251 259 
Q 2797 -91 1919 -91 
Q 1588 -91 1214 -16 
Q 841 59 441 206 
L 441 856 
Q 825 641 1194 531 
Q 1563 422 1919 422 
Q 2459 422 2753 634 
Q 3047 847 3047 1241 
Q 3047 1584 2836 1778 
Q 2625 1972 2144 2069 
L 1759 2144 
Q 1053 2284 737 2584 
Q 422 2884 422 3419 
Q 422 4038 858 4394 
Q 1294 4750 2059 4750 
Q 2388 4750 2728 4690 
Q 3069 4631 3425 4513 
z
" transform="scale(0.015625)"/>
       <path id="DejaVuSans-69" d="M 603 3500 
L 1178 3500 
L 1178 0 
L 603 0 
L 603 3500 
z
M 603 4863 
L 1178 4863 
L 1178 4134 
L 603 4134 
L 603 4863 
z
" transform="scale(0.015625)"/>
       <path id="DejaVuSans-7a" d="M 353 3500 
L 3084 3500 
L 3084 2975 
L 922 459 
L 3084 459 
L 3084 0 
L 275 0 
L 275 525 
L 2438 3041 
L 353 3041 
L 353 3500 
z
" transform="scale(0.015625)"/>
       <path id="DejaVuSans-65" d="M 3597 1894 
L 3597 1613 
L 953 1613 
Q 991 1019 1311 708 
Q 1631 397 2203 397 
Q 2534 397 2845 478 
Q 3156 559 3463 722 
L 3463 178 
Q 3153 47 2828 -22 
Q 2503 -91 2169 -91 
Q 1331 -91 842 396 
Q 353 884 353 1716 
Q 353 2575 817 3079 
Q 1281 3584 2069 3584 
Q 2775 3584 3186 3129 
Q 3597 2675 3597 1894 
z
M 3022 2063 
Q 3016 2534 2758 2815 
Q 2500 3097 2075 3097 
Q 1594 3097 1305 2825 
Q 1016 2553 972 2059 
L 3022 2063 
z
" transform="scale(0.015625)"/>
       <path id="DejaVuSans-28" d="M 1984 4856 
Q 1566 4138 1362 3434 
Q 1159 2731 1159 2009 
Q 1159 1288 1364 580 
Q 1569 -128 1984 -844 
L 1484 -844 
Q 1016 -109 783 600 
Q 550 1309 550 2009 
Q 550 2706 781 3412 
Q 1013 4119 1484 4856 
L 1984 4856 
z
" transform="scale(0.015625)"/>
       <path id="DejaVuSans-62" d="M 3116 1747 
Q 3116 2381 2855 2742 
Q 2594 3103 2138 3103 
Q 1681 3103 1420 2742 
Q 1159 2381 1159 1747 
Q 1159 1113 1420 752 
Q 1681 391 2138 391 
Q 2594 391 2855 752 
Q 3116 1113 3116 1747 
z
M 1159 2969 
Q 1341 3281 1617 3432 
Q 1894 3584 2278 3584 
Q 2916 3584 3314 3078 
Q 3713 2572 3713 1747 
Q 3713 922 3314 415 
Q 2916 -91 2278 -91 
Q 1894 -91 1617 61 
Q 1341 213 1159 525 
L 1159 0 
L 581 0 
L 581 4863 
L 1159 4863 
L 1159 2969 
z
" transform="scale(0.015625)"/>
       <path id="DejaVuSans-74" d="M 1172 4494 
L 1172 3500 
L 2356 3500 
L 2356 3053 
L 1172 3053 
L 1172 1153 
Q 1172 725 1289 603 
Q 1406 481 1766 481 
L 2356 481 
L 2356 0 
L 1766 0 
Q 1100 0 847 248 
Q 594 497 594 1153 
L 594 3053 
L 172 3053 
L 172 3500 
L 594 3500 
L 594 4494 
L 1172 4494 
z
" transform="scale(0.015625)"/>
       <path id="DejaVuSans-73" d="M 2834 3397 
L 2834 2853 
Q 2591 2978 2328 3040 
Q 2066 3103 1784 3103 
Q 1356 3103 1142 2972 
Q 928 2841 928 2578 
Q 928 2378 1081 2264 
Q 1234 2150 1697 2047 
L 1894 2003 
Q 2506 1872 2764 1633 
Q 3022 1394 3022 966 
Q 3022 478 2636 193 
Q 2250 -91 1575 -91 
Q 1294 -91 989 -36 
Q 684 19 347 128 
L 347 722 
Q 666 556 975 473 
Q 1284 391 1588 391 
Q 1994 391 2212 530 
Q 2431 669 2431 922 
Q 2431 1156 2273 1281 
Q 2116 1406 1581 1522 
L 1381 1569 
Q 847 1681 609 1914 
Q 372 2147 372 2553 
Q 372 3047 722 3315 
Q 1072 3584 1716 3584 
Q 2034 3584 2315 3537 
Q 2597 3491 2834 3397 
z
" transform="scale(0.015625)"/>
       <path id="DejaVuSans-29" d="M 513 4856 
L 1013 4856 
Q 1481 4119 1714 3412 
Q 1947 2706 1947 2009 
Q 1947 1309 1714 600 
Q 1481 -109 1013 -844 
L 513 -844 
Q 928 -128 1133 580 
Q 1338 1288 1338 2009 
Q 1338 2731 1133 3434 
Q 928 4138 513 4856 
z
" transform="scale(0.015625)"/>
      </defs>
      <use xlink:href="#DejaVuSans-41"/>
      <use xlink:href="#DejaVuSans-72" x="68.408203"/>
      <use xlink:href="#DejaVuSans-72" x="107.771484"/>
      <use xlink:href="#DejaVuSans-61" x="148.884766"/>
      <use xlink:href="#DejaVuSans-79" x="210.164062"/>
      <use xlink:href="#DejaVuSans-20" x="269.34375"/>
      <use xlink:href="#DejaVuSans-53" x="301.130859"/>
      <use xlink:href="#DejaVuSans-69" x="364.607422"/>
      <use xlink:href="#DejaVuSans-7a" x="392.390625"/>
      <use xlink:href="#DejaVuSans-65" x="444.880859"/>
      <use xlink:href="#DejaVuSans-20" x="506.404297"/>
      <use xlink:href="#DejaVuSans-28" x="538.191406"/>
      <use xlink:href="#DejaVuSans-62" x="577.205078"/>
      <use xlink:href="#DejaVuSans-79" x="640.681641"/>
      <use xlink:href="#DejaVuSans-74" x="699.861328"/>
      <use xlink:href="#DejaVuSans-65" x="739.070312"/>
      <use xlink:href="#DejaVuSans-73" x="800.59375"/>
      <use xlink:href="#DejaVuSans-29" x="852.693359"/>
     </g>
    </g>
   </g>
   <g id="matplotlib.axis_2">
    <g id="ytick_1">
     <g id="line2d_20">
      <path d="M 40.603125 354.958125 
L 487.003125 354.958125 
" clip-path="url(#p33eff8a1dc)" style="fill: none; stroke: #b0b0b0; stroke-opacity: 0.4; stroke-width: 0.8; stroke-linecap: square"/>
     </g>
     <g id="line2d_21">
      <defs>
       <path id="m19f7f2e33c" d="M 0 0 
L -3.5 0 
" style="stroke: #000000; stroke-width: 0.8"/>
      </defs>
      <g>
       <use xlink:href="#m19f7f2e33c" x="40.603125" y="354.958125" style="stroke: #000000; stroke-width: 0.8"/>
      </g>
     </g>
     <g id="text_10">
      <!-- 0 -->
      <g transform="translate(27.240625 358.757344) scale(0.1 -0.1)">
       <use xlink:href="#DejaVuSans-30"/>
      </g>
     </g>
    </g>
    <g id="ytick_2">
     <g id="line2d_22">
      <path d="M 40.603125 315.824007 
L 487.003125 315.824007 
" clip-path="url(#p33eff8a1dc)" style="fill: none; stroke: #b0b0b0; stroke-opacity: 0.4; stroke-width: 0.8; stroke-linecap: square"/>
     </g>
     <g id="line2d_23">
      <g>
       <use xlink:href="#m19f7f2e33c" x="40.603125" y="315.824007" style="stroke: #000000; stroke-width: 0.8"/>
      </g>
     </g>
     <g id="text_11">
      <!-- 10 -->
      <g transform="translate(20.878125 319.623226) scale(0.1 -0.1)">
       <use xlink:href="#DejaVuSans-31"/>
       <use xlink:href="#DejaVuSans-30" x="63.623047"/>
      </g>
     </g>
    </g>
    <g id="ytick_3">
     <g id="line2d_24">
      <path d="M 40.603125 276.68989 
L 487.003125 276.68989 
" clip-path="url(#p33eff8a1dc)" style="fill: none; stroke: #b0b0b0; stroke-opacity: 0.4; stroke-width: 0.8; stroke-linecap: square"/>
     </g>
     <g id="line2d_25">
      <g>
       <use xlink:href="#m19f7f2e33c" x="40.603125" y="276.68989" style="stroke: #000000; stroke-width: 0.8"/>
      </g>
     </g>
     <g id="text_12">
      <!-- 20 -->
      <g transform="translate(20.878125 280.489108) scale(0.1 -0.1)">
       <use xlink:href="#DejaVuSans-32"/>
       <use xlink:href="#DejaVuSans-30" x="63.623047"/>
      </g>
     </g>
    </g>
    <g id="ytick_4">
     <g id="line2d_26">
      <path d="M 40.603125 237.555772 
L 487.003125 237.555772 
" clip-path="url(#p33eff8a1dc)" style="fill: none; stroke: #b0b0b0; stroke-opacity: 0.4; stroke-width: 0.8; stroke-linecap: square"/>
     </g>
     <g id="line2d_27">
      <g>
       <use xlink:href="#m19f7f2e33c" x="40.603125" y="237.555772" style="stroke: #000000; stroke-width: 0.8"/>
      </g>
     </g>
     <g id="text_13">
      <!-- 30 -->
      <g transform="translate(20.878125 241.354991) scale(0.1 -0.1)">
       <defs>
        <path id="DejaVuSans-33" d="M 2597 2516 
Q 3050 2419 3304 2112 
Q 3559 1806 3559 1356 
Q 3559 666 3084 287 
Q 2609 -91 1734 -91 
Q 1441 -91 1130 -33 
Q 819 25 488 141 
L 488 750 
Q 750 597 1062 519 
Q 1375 441 1716 441 
Q 2309 441 2620 675 
Q 2931 909 2931 1356 
Q 2931 1769 2642 2001 
Q 2353 2234 1838 2234 
L 1294 2234 
L 1294 2753 
L 1863 2753 
Q 2328 2753 2575 2939 
Q 2822 3125 2822 3475 
Q 2822 3834 2567 4026 
Q 2313 4219 1838 4219 
Q 1578 4219 1281 4162 
Q 984 4106 628 3988 
L 628 4550 
Q 988 4650 1302 4700 
Q 1616 4750 1894 4750 
Q 2613 4750 3031 4423 
Q 3450 4097 3450 3541 
Q 3450 3153 3228 2886 
Q 3006 2619 2597 2516 
z
" transform="scale(0.015625)"/>
       </defs>
       <use xlink:href="#DejaVuSans-33"/>
       <use xlink:href="#DejaVuSans-30" x="63.623047"/>
      </g>
     </g>
    </g>
    <g id="ytick_5">
     <g id="line2d_28">
      <path d="M 40.603125 198.421654 
L 487.003125 198.421654 
" clip-path="url(#p33eff8a1dc)" style="fill: none; stroke: #b0b0b0; stroke-opacity: 0.4; stroke-width: 0.8; stroke-linecap: square"/>
     </g>
     <g id="line2d_29">
      <g>
       <use xlink:href="#m19f7f2e33c" x="40.603125" y="198.421654" style="stroke: #000000; stroke-width: 0.8"/>
      </g>
     </g>
     <g id="text_14">
      <!-- 40 -->
      <g transform="translate(20.878125 202.220873) scale(0.1 -0.1)">
       <use xlink:href="#DejaVuSans-34"/>
       <use xlink:href="#DejaVuSans-30" x="63.623047"/>
      </g>
     </g>
    </g>
    <g id="ytick_6">
     <g id="line2d_30">
      <path d="M 40.603125 159.287537 
L 487.003125 159.287537 
" clip-path="url(#p33eff8a1dc)" style="fill: none; stroke: #b0b0b0; stroke-opacity: 0.4; stroke-width: 0.8; stroke-linecap: square"/>
     </g>
     <g id="line2d_31">
      <g>
       <use xlink:href="#m19f7f2e33c" x="40.603125" y="159.287537" style="stroke: #000000; stroke-width: 0.8"/>
      </g>
     </g>
     <g id="text_15">
      <!-- 50 -->
      <g transform="translate(20.878125 163.086756) scale(0.1 -0.1)">
       <defs>
        <path id="DejaVuSans-35" d="M 691 4666 
L 3169 4666 
L 3169 4134 
L 1269 4134 
L 1269 2991 
Q 1406 3038 1543 3061 
Q 1681 3084 1819 3084 
Q 2600 3084 3056 2656 
Q 3513 2228 3513 1497 
Q 3513 744 3044 326 
Q 2575 -91 1722 -91 
Q 1428 -91 1123 -41 
Q 819 9 494 109 
L 494 744 
Q 775 591 1075 516 
Q 1375 441 1709 441 
Q 2250 441 2565 725 
Q 2881 1009 2881 1497 
Q 2881 1984 2565 2268 
Q 2250 2553 1709 2553 
Q 1456 2553 1204 2497 
Q 953 2441 691 2322 
L 691 4666 
z
" transform="scale(0.015625)"/>
       </defs>
       <use xlink:href="#DejaVuSans-35"/>
       <use xlink:href="#DejaVuSans-30" x="63.623047"/>
      </g>
     </g>
    </g>
    <g id="ytick_7">
     <g id="line2d_32">
      <path d="M 40.603125 120.153419 
L 487.003125 120.153419 
" clip-path="url(#p33eff8a1dc)" style="fill: none; stroke: #b0b0b0; stroke-opacity: 0.4; stroke-width: 0.8; stroke-linecap: square"/>
     </g>
     <g id="line2d_33">
      <g>
       <use xlink:href="#m19f7f2e33c" x="40.603125" y="120.153419" style="stroke: #000000; stroke-width: 0.8"/>
      </g>
     </g>
     <g id="text_16">
      <!-- 60 -->
      <g transform="translate(20.878125 123.952638) scale(0.1 -0.1)">
       <use xlink:href="#DejaVuSans-36"/>
       <use xlink:href="#DejaVuSans-30" x="63.623047"/>
      </g>
     </g>
    </g>
    <g id="ytick_8">
     <g id="line2d_34">
      <path d="M 40.603125 81.019301 
L 487.003125 81.019301 
" clip-path="url(#p33eff8a1dc)" style="fill: none; stroke: #b0b0b0; stroke-opacity: 0.4; stroke-width: 0.8; stroke-linecap: square"/>
     </g>
     <g id="line2d_35">
      <g>
       <use xlink:href="#m19f7f2e33c" x="40.603125" y="81.019301" style="stroke: #000000; stroke-width: 0.8"/>
      </g>
     </g>
     <g id="text_17">
      <!-- 70 -->
      <g transform="translate(20.878125 84.81852) scale(0.1 -0.1)">
       <defs>
        <path id="DejaVuSans-37" d="M 525 4666 
L 3525 4666 
L 3525 4397 
L 1831 0 
L 1172 0 
L 2766 4134 
L 525 4134 
L 525 4666 
z
" transform="scale(0.015625)"/>
       </defs>
       <use xlink:href="#DejaVuSans-37"/>
       <use xlink:href="#DejaVuSans-30" x="63.623047"/>
      </g>
     </g>
    </g>
    <g id="ytick_9">
     <g id="line2d_36">
      <path d="M 40.603125 41.885184 
L 487.003125 41.885184 
" clip-path="url(#p33eff8a1dc)" style="fill: none; stroke: #b0b0b0; stroke-opacity: 0.4; stroke-width: 0.8; stroke-linecap: square"/>
     </g>
     <g id="line2d_37">
      <g>
       <use xlink:href="#m19f7f2e33c" x="40.603125" y="41.885184" style="stroke: #000000; stroke-width: 0.8"/>
      </g>
     </g>
     <g id="text_18">
      <!-- 80 -->
      <g transform="translate(20.878125 45.684403) scale(0.1 -0.1)">
       <use xlink:href="#DejaVuSans-38"/>
       <use xlink:href="#DejaVuSans-30" x="63.623047"/>
      </g>
     </g>
    </g>
    <g id="text_19">
     <!-- Latency (ns) -->
     <g transform="translate(14.798438 219.66625) rotate(-90) scale(0.1 -0.1)">
      <defs>
       <path id="DejaVuSans-4c" d="M 628 4666 
L 1259 4666 
L 1259 531 
L 3531 531 
L 3531 0 
L 628 0 
L 628 4666 
z
" transform="scale(0.015625)"/>
       <path id="DejaVuSans-6e" d="M 3513 2113 
L 3513 0 
L 2938 0 
L 2938 2094 
Q 2938 2591 2744 2837 
Q 2550 3084 2163 3084 
Q 1697 3084 1428 2787 
Q 1159 2491 1159 1978 
L 1159 0 
L 581 0 
L 581 3500 
L 1159 3500 
L 1159 2956 
Q 1366 3272 1645 3428 
Q 1925 3584 2291 3584 
Q 2894 3584 3203 3211 
Q 3513 2838 3513 2113 
z
" transform="scale(0.015625)"/>
       <path id="DejaVuSans-63" d="M 3122 3366 
L 3122 2828 
Q 2878 2963 2633 3030 
Q 2388 3097 2138 3097 
Q 1578 3097 1268 2742 
Q 959 2388 959 1747 
Q 959 1106 1268 751 
Q 1578 397 2138 397 
Q 2388 397 2633 464 
Q 2878 531 3122 666 
L 3122 134 
Q 2881 22 2623 -34 
Q 2366 -91 2075 -91 
Q 1284 -91 818 406 
Q 353 903 353 1747 
Q 353 2603 823 3093 
Q 1294 3584 2113 3584 
Q 2378 3584 2631 3529 
Q 2884 3475 3122 3366 
z
" transform="scale(0.015625)"/>
      </defs>
      <use xlink:href="#DejaVuSans-4c"/>
      <use xlink:href="#DejaVuSans-61" x="55.712891"/>
      <use xlink:href="#DejaVuSans-74" x="116.992188"/>
      <use xlink:href="#DejaVuSans-65" x="156.201172"/>
      <use xlink:href="#DejaVuSans-6e" x="217.724609"/>
      <use xlink:href="#DejaVuSans-63" x="281.103516"/>
      <use xlink:href="#DejaVuSans-79" x="336.083984"/>
      <use xlink:href="#DejaVuSans-20" x="395.263672"/>
      <use xlink:href="#DejaVuSans-28" x="427.050781"/>
      <use xlink:href="#DejaVuSans-6e" x="466.064453"/>
      <use xlink:href="#DejaVuSans-73" x="529.443359"/>
      <use xlink:href="#DejaVuSans-29" x="581.542969"/>
     </g>
    </g>
   </g>
   <g id="line2d_38">
    <path d="M 60.894034 345.847984 
L 69.158812 345.841152 
L 75.911627 345.845465 
L 81.621051 345.841511 
L 86.566778 345.841161 
L 94.831556 345.838442 
L 101.584371 345.829287 
L 107.293795 345.82608 
L 112.239523 345.823645 
L 120.5043 335.261901 
L 127.257116 335.245911 
L 132.966539 335.246997 
L 137.912267 335.208267 
L 146.177045 335.236724 
L 152.92986 330.586866 
L 158.639284 329.81424 
L 163.585012 328.900587 
L 171.849789 328.997657 
L 178.602604 325.757214 
L 184.312028 322.785111 
L 189.257756 320.92016 
L 197.522534 309.079008 
L 204.275349 301.41805 
L 209.984772 298.104293 
L 214.9305 293.905459 
L 223.195278 289.523663 
L 229.948093 286.781201 
L 235.657517 284.8946 
L 240.603245 283.252945 
L 248.868022 281.597488 
L 255.620837 280.339077 
L 261.330261 279.320019 
L 266.275989 278.477624 
L 274.540767 277.424334 
L 281.293582 276.714479 
L 287.003005 276.098589 
L 291.948733 275.643643 
L 300.213511 274.573762 
L 306.966326 271.715531 
L 312.67575 264.26533 
L 317.621478 256.097407 
L 325.886255 233.442621 
L 332.63907 191.21934 
L 338.348494 149.621194 
L 343.294222 113.794242 
L 351.559 86.273259 
L 358.311815 73.62657 
L 364.021238 60.536192 
L 368.966966 77.031293 
L 377.231744 72.817986 
L 383.984559 70.810534 
L 389.693983 69.569352 
L 394.639711 69.145202 
L 402.904488 67.000504 
L 409.657303 62.899374 
L 415.366727 60.838534 
L 420.312455 59.701965 
L 428.577233 56.267547 
L 435.330048 53.984393 
L 441.039472 53.144312 
L 445.985199 50.957592 
L 454.249977 49.753917 
L 461.002792 48.620144 
L 466.712216 48.725122 
" clip-path="url(#p33eff8a1dc)" style="fill: none; stroke: #d62728; stroke-width: 1.5; stroke-linecap: square"/>
   </g>
   <g id="line2d_39">
    <path d="M 60.894034 348.886814 
L 69.158812 348.892527 
L 75.911627 348.892325 
L 81.621051 348.889776 
L 86.566778 348.889568 
L 94.831556 348.884807 
L 101.584371 348.877192 
L 107.293795 348.883563 
L 112.239523 348.876797 
L 120.5043 336.808823 
L 127.257116 336.808309 
L 132.966539 336.806119 
L 137.912267 336.805189 
L 146.177045 336.801783 
L 152.92986 336.793643 
L 158.639284 336.796514 
L 163.585012 336.785091 
L 171.849789 336.770541 
L 178.602604 336.780098 
L 184.312028 336.734317 
L 189.257756 325.373852 
L 197.522534 315.587147 
L 204.275349 306.752739 
L 209.984772 302.370772 
L 214.9305 298.598581 
L 223.195278 294.61356 
L 229.948093 292.025148 
L 235.657517 290.173915 
L 240.603245 288.938546 
L 248.868022 287.145631 
L 255.620837 285.974165 
L 261.330261 285.026368 
L 266.275989 284.320254 
L 274.540767 283.271205 
L 281.293582 282.60275 
L 287.003005 282.048166 
L 291.948733 281.611536 
L 300.213511 280.651705 
L 306.966326 277.381541 
L 312.67575 272.075483 
L 317.621478 262.758634 
L 325.886255 238.448507 
L 332.63907 193.80469 
L 338.348494 152.748275 
L 343.294222 115.110656 
L 351.559 86.702907 
L 358.311815 73.852269 
L 364.021238 59.982147 
L 368.966966 76.155283 
L 377.231744 71.933956 
L 383.984559 69.79468 
L 389.693983 67.912642 
L 394.639711 68.289286 
L 402.904488 66.531745 
L 409.657303 62.525688 
L 415.366727 59.851687 
L 420.312455 57.573546 
L 428.577233 54.933519 
L 435.330048 53.572127 
L 441.039472 52.102737 
L 445.985199 50.007982 
L 454.249977 48.560175 
L 461.002792 47.896553 
L 466.712216 47.686328 
" clip-path="url(#p33eff8a1dc)" style="fill: none; stroke: #e377c2; stroke-width: 1.5; stroke-linecap: square"/>
   </g>
   <g id="line2d_40">
    <path d="M 60.894034 345.893681 
L 69.158812 345.891497 
L 75.911627 345.894336 
L 81.621051 345.894616 
L 86.566778 345.891972 
L 94.831556 345.893383 
L 101.584371 345.892027 
L 107.293795 345.891374 
L 112.239523 345.89103 
L 120.5043 335.327224 
L 127.257116 335.325147 
L 132.966539 335.326017 
L 137.912267 335.327061 
L 146.177045 335.324996 
L 152.92986 335.325138 
L 158.639284 335.323406 
L 163.585012 335.320138 
L 171.849789 335.314687 
L 178.602604 335.325839 
L 184.312028 335.278551 
L 189.257756 335.240915 
L 197.522534 312.061555 
L 204.275349 307.91533 
L 209.984772 305.905948 
L 214.9305 303.842776 
L 223.195278 301.589012 
L 229.948093 300.068467 
L 235.657517 298.714856 
L 240.603245 297.753464 
L 248.868022 296.754308 
L 255.620837 296.089603 
L 261.330261 295.630312 
L 266.275989 295.249502 
L 274.540767 294.732966 
L 281.293582 294.427587 
L 287.003005 294.21492 
L 291.948733 294.009792 
L 300.213511 293.774771 
L 306.966326 293.635228 
L 312.67575 291.884202 
L 317.621478 283.53236 
L 325.886255 285.958541 
L 332.63907 261.237929 
L 338.348494 190.583009 
L 343.294222 154.377269 
L 351.559 111.92186 
L 358.311815 101.076793 
L 364.021238 87.053225 
L 368.966966 77.823519 
L 377.231744 70.863752 
L 383.984559 70.174791 
L 389.693983 69.139317 
L 394.639711 67.609134 
L 402.904488 64.176729 
L 409.657303 60.802834 
L 415.366727 59.387417 
L 420.312455 56.863287 
L 428.577233 54.713944 
L 435.330048 52.444248 
L 441.039472 50.196618 
L 445.985199 49.496633 
L 454.249977 47.852373 
L 461.002792 46.445067 
L 466.712216 46.443817 
" clip-path="url(#p33eff8a1dc)" style="fill: none; stroke: #9467bd; stroke-width: 1.5; stroke-linecap: square"/>
   </g>
   <g id="line2d_41">
    <path d="M 60.894034 348.914626 
L 69.158812 348.913374 
L 75.911627 348.912643 
L 81.621051 348.909674 
L 86.566778 348.914918 
L 94.831556 348.911174 
L 101.584371 348.911863 
L 107.293795 348.912863 
L 112.239523 348.910228 
L 120.5043 336.833147 
L 127.257116 336.836545 
L 132.966539 336.787579 
L 137.912267 336.836372 
L 146.177045 336.83376 
L 152.92986 336.82888 
L 158.639284 336.825717 
L 163.585012 336.832397 
L 171.849789 336.825795 
L 178.602604 336.83084 
L 184.312028 336.787287 
L 189.257756 336.742552 
L 197.522534 313.418231 
L 204.275349 309.284476 
L 209.984772 307.191552 
L 214.9305 305.179994 
L 223.195278 302.911593 
L 229.948093 301.390671 
L 235.657517 300.01293 
L 240.603245 299.049352 
L 248.868022 297.919205 
L 255.620837 297.38576 
L 261.330261 296.917642 
L 266.275989 296.563869 
L 274.540767 295.477148 
L 281.293582 295.725985 
L 287.003005 295.50272 
L 291.948733 295.290986 
L 300.213511 294.91713 
L 306.966326 285.479648 
L 312.67575 286.116484 
L 317.621478 286.232218 
L 325.886255 283.854409 
L 332.63907 218.317765 
L 338.348494 187.554697 
L 343.294222 158.295652 
L 351.559 113.582998 
L 358.311815 101.959573 
L 364.021238 87.725044 
L 368.966966 79.185069 
L 377.231744 71.594747 
L 383.984559 70.469757 
L 389.693983 70.63666 
L 394.639711 69.166155 
L 402.904488 65.670735 
L 409.657303 62.225268 
L 415.366727 59.321401 
L 420.312455 58.072146 
L 428.577233 56.054034 
L 435.330048 53.241202 
L 441.039472 52.51838 
L 445.985199 49.59372 
L 454.249977 48.843525 
L 461.002792 48.052809 
L 466.712216 47.7488 
" clip-path="url(#p33eff8a1dc)" style="fill: none; stroke: #7f7f7f; stroke-width: 1.5; stroke-linecap: square"/>
   </g>
   <g id="line2d_42"/>
   <g id="line2d_43"/>
   <g id="line2d_44"/>
   <g id="line2d_45"/>
   <g id="line2d_46"/>
   <g id="patch_3">
    <path d="M 40.603125 354.958125 
L 40.603125 22.318125 
" style="fill: none; stroke: #000000; stroke-width: 0.8; stroke-linejoin: miter; stroke-linecap: square"/>
   </g>
   <g id="patch_4">
    <path d="M 487.003125 354.958125 
L 487.003125 22.318125 
" style="fill: none; stroke: #000000; stroke-width: 0.8; stroke-linejoin: miter; stroke-linecap: square"/>
   </g>
   <g id="patch_5">
    <path d="M 40.603125 354.958125 
L 487.003125 354.958125 
" style="fill: none; stroke: #000000; stroke-width: 0.8; stroke-linejoin: miter; stroke-linecap: square"/>
   </g>
   <g id="patch_6">
    <path d="M 40.603125 22.318125 
L 487.003125 22.318125 
" style="fill: none; stroke: #000000; stroke-width: 0.8; stroke-linejoin: miter; stroke-linecap: square"/>
   </g>
   <g id="text_20">
    <!-- L1  -->
    <g style="fill: #ff0000" transform="translate(97.127023 352.878437) scale(0.1 -0.1)">
     <use xlink:href="#DejaVuSans-4c"/>
     <use xlink:href="#DejaVuSans-31" x="55.712891"/>
     <use xlink:href="#DejaVuSans-20" x="119.335938"/>
    </g>
   </g>
   <g id="text_21">
    <!-- L2  -->
    <g style="fill: #ff0000" transform="translate(174.145256 352.878437) scale(0.1 -0.1)">
     <use xlink:href="#DejaVuSans-4c"/>
     <use xlink:href="#DejaVuSans-32" x="55.712891"/>
     <use xlink:href="#DejaVuSans-20" x="119.335938"/>
    </g>
   </g>
   <g id="text_22">
    <!-- L3  -->
    <g style="fill: #ff0000" transform="translate(317.52657 352.878437) scale(0.1 -0.1)">
     <use xlink:href="#DejaVuSans-4c"/>
     <use xlink:href="#DejaVuSans-33" x="55.712891"/>
     <use xlink:href="#DejaVuSans-20" x="119.335938"/>
    </g>
   </g>
   <g id="text_23">
    <!-- RAM -->
    <g style="fill: #ff0000" transform="translate(444.695028 352.878437) scale(0.1 -0.1)">
     <defs>
      <path id="DejaVuSans-52" d="M 2841 2188 
Q 3044 2119 3236 1894 
Q 3428 1669 3622 1275 
L 4263 0 
L 3584 0 
L 2988 1197 
Q 2756 1666 2539 1819 
Q 2322 1972 1947 1972 
L 1259 1972 
L 1259 0 
L 628 0 
L 628 4666 
L 2053 4666 
Q 2853 4666 3247 4331 
Q 3641 3997 3641 3322 
Q 3641 2881 3436 2590 
Q 3231 2300 2841 2188 
z
M 1259 4147 
L 1259 2491 
L 2053 2491 
Q 2509 2491 2742 2702 
Q 2975 2913 2975 3322 
Q 2975 3731 2742 3939 
Q 2509 4147 2053 4147 
L 1259 4147 
z
" transform="scale(0.015625)"/>
      <path id="DejaVuSans-4d" d="M 628 4666 
L 1569 4666 
L 2759 1491 
L 3956 4666 
L 4897 4666 
L 4897 0 
L 4281 0 
L 4281 4097 
L 3078 897 
L 2444 897 
L 1241 4097 
L 1241 0 
L 628 0 
L 628 4666 
z
" transform="scale(0.015625)"/>
     </defs>
     <use xlink:href="#DejaVuSans-52"/>
     <use xlink:href="#DejaVuSans-41" x="65.482422"/>
     <use xlink:href="#DejaVuSans-4d" x="133.890625"/>
    </g>
   </g>
   <g id="text_24">
    <!-- 2MB aligned hugepages -->
    <g transform="translate(191.536875 16.318125) scale(0.12 -0.12)">
     <defs>
      <path id="DejaVuSans-42" d="M 1259 2228 
L 1259 519 
L 2272 519 
Q 2781 519 3026 730 
Q 3272 941 3272 1375 
Q 3272 1813 3026 2020 
Q 2781 2228 2272 2228 
L 1259 2228 
z
M 1259 4147 
L 1259 2741 
L 2194 2741 
Q 2656 2741 2882 2914 
Q 3109 3088 3109 3444 
Q 3109 3797 2882 3972 
Q 2656 4147 2194 4147 
L 1259 4147 
z
M 628 4666 
L 2241 4666 
Q 2963 4666 3353 4366 
Q 3744 4066 3744 3513 
Q 3744 3084 3544 2831 
Q 3344 2578 2956 2516 
Q 3422 2416 3680 2098 
Q 3938 1781 3938 1306 
Q 3938 681 3513 340 
Q 3088 0 2303 0 
L 628 0 
L 628 4666 
z
" transform="scale(0.015625)"/>
      <path id="DejaVuSans-6c" d="M 603 4863 
L 1178 4863 
L 1178 0 
L 603 0 
L 603 4863 
z
" transform="scale(0.015625)"/>
      <path id="DejaVuSans-67" d="M 2906 1791 
Q 2906 2416 2648 2759 
Q 2391 3103 1925 3103 
Q 1463 3103 1205 2759 
Q 947 2416 947 1791 
Q 947 1169 1205 825 
Q 1463 481 1925 481 
Q 2391 481 2648 825 
Q 2906 1169 2906 1791 
z
M 3481 434 
Q 3481 -459 3084 -895 
Q 2688 -1331 1869 -1331 
Q 1566 -1331 1297 -1286 
Q 1028 -1241 775 -1147 
L 775 -588 
Q 1028 -725 1275 -790 
Q 1522 -856 1778 -856 
Q 2344 -856 2625 -561 
Q 2906 -266 2906 331 
L 2906 616 
Q 2728 306 2450 153 
Q 2172 0 1784 0 
Q 1141 0 747 490 
Q 353 981 353 1791 
Q 353 2603 747 3093 
Q 1141 3584 1784 3584 
Q 2172 3584 2450 3431 
Q 2728 3278 2906 2969 
L 2906 3500 
L 3481 3500 
L 3481 434 
z
" transform="scale(0.015625)"/>
      <path id="DejaVuSans-64" d="M 2906 2969 
L 2906 4863 
L 3481 4863 
L 3481 0 
L 2906 0 
L 2906 525 
Q 2725 213 2448 61 
Q 2172 -91 1784 -91 
Q 1150 -91 751 415 
Q 353 922 353 1747 
Q 353 2572 751 3078 
Q 1150 3584 1784 3584 
Q 2172 3584 2448 3432 
Q 2725 3281 2906 2969 
z
M 947 1747 
Q 947 1113 1208 752 
Q 1469 391 1925 391 
Q 2381 391 2643 752 
Q 2906 1113 2906 1747 
Q 2906 2381 2643 2742 
Q 2381 3103 1925 3103 
Q 1469 3103 1208 2742 
Q 947 2381 947 1747 
z
" transform="scale(0.015625)"/>
      <path id="DejaVuSans-68" d="M 3513 2113 
L 3513 0 
L 2938 0 
L 2938 2094 
Q 2938 2591 2744 2837 
Q 2550 3084 2163 3084 
Q 1697 3084 1428 2787 
Q 1159 2491 1159 1978 
L 1159 0 
L 581 0 
L 581 4863 
L 1159 4863 
L 1159 2956 
Q 1366 3272 1645 3428 
Q 1925 3584 2291 3584 
Q 2894 3584 3203 3211 
Q 3513 2838 3513 2113 
z
" transform="scale(0.015625)"/>
      <path id="DejaVuSans-75" d="M 544 1381 
L 544 3500 
L 1119 3500 
L 1119 1403 
Q 1119 906 1312 657 
Q 1506 409 1894 409 
Q 2359 409 2629 706 
Q 2900 1003 2900 1516 
L 2900 3500 
L 3475 3500 
L 3475 0 
L 2900 0 
L 2900 538 
Q 2691 219 2414 64 
Q 2138 -91 1772 -91 
Q 1169 -91 856 284 
Q 544 659 544 1381 
z
M 1991 3584 
L 1991 3584 
z
" transform="scale(0.015625)"/>
      <path id="DejaVuSans-70" d="M 1159 525 
L 1159 -1331 
L 581 -1331 
L 581 3500 
L 1159 3500 
L 1159 2969 
Q 1341 3281 1617 3432 
Q 1894 3584 2278 3584 
Q 2916 3584 3314 3078 
Q 3713 2572 3713 1747 
Q 3713 922 3314 415 
Q 2916 -91 2278 -91 
Q 1894 -91 1617 61 
Q 1341 213 1159 525 
z
M 3116 1747 
Q 3116 2381 2855 2742 
Q 2594 3103 2138 3103 
Q 1681 3103 1420 2742 
Q 1159 2381 1159 1747 
Q 1159 1113 1420 752 
Q 1681 391 2138 391 
Q 2594 391 2855 752 
Q 3116 1113 3116 1747 
z
" transform="scale(0.015625)"/>
     </defs>
     <use xlink:href="#DejaVuSans-32"/>
     <use xlink:href="#DejaVuSans-4d" x="63.623047"/>
     <use xlink:href="#DejaVuSans-42" x="149.902344"/>
     <use xlink:href="#DejaVuSans-20" x="218.505859"/>
     <use xlink:href="#DejaVuSans-61" x="250.292969"/>
     <use xlink:href="#DejaVuSans-6c" x="311.572266"/>
     <use xlink:href="#DejaVuSans-69" x="339.355469"/>
     <use xlink:href="#DejaVuSans-67" x="367.138672"/>
     <use xlink:href="#DejaVuSans-6e" x="430.615234"/>
     <use xlink:href="#DejaVuSans-65" x="493.994141"/>
     <use xlink:href="#DejaVuSans-64" x="555.517578"/>
     <use xlink:href="#DejaVuSans-20" x="618.994141"/>
     <use xlink:href="#DejaVuSans-68" x="650.78125"/>
     <use xlink:href="#DejaVuSans-75" x="714.160156"/>
     <use xlink:href="#DejaVuSans-67" x="777.539062"/>
     <use xlink:href="#DejaVuSans-65" x="841.015625"/>
     <use xlink:href="#DejaVuSans-70" x="902.539062"/>
     <use xlink:href="#DejaVuSans-61" x="966.015625"/>
     <use xlink:href="#DejaVuSans-67" x="1027.294922"/>
     <use xlink:href="#DejaVuSans-65" x="1090.771484"/>
     <use xlink:href="#DejaVuSans-73" x="1152.294922"/>
    </g>
   </g>
   <g id="legend_1">
    <g id="patch_7">
     <path d="M 47.603125 89.030625 
L 263.04375 89.030625 
Q 265.04375 89.030625 265.04375 87.030625 
L 265.04375 29.318125 
Q 265.04375 27.318125 263.04375 27.318125 
L 47.603125 27.318125 
Q 45.603125 27.318125 45.603125 29.318125 
L 45.603125 87.030625 
Q 45.603125 89.030625 47.603125 89.030625 
z
" style="fill: #ffffff; opacity: 0.8; stroke: #cccccc; stroke-linejoin: miter"/>
    </g>
    <g id="line2d_47">
     <path d="M 49.603125 35.416562 
L 59.603125 35.416562 
L 69.603125 35.416562 
" style="fill: none; stroke: #d62728; stroke-width: 1.5; stroke-linecap: square"/>
    </g>
    <g id="text_25">
     <!-- Pointer Chasing Padded -->
     <g transform="translate(77.603125 38.916562) scale(0.1 -0.1)">
      <defs>
       <path id="DejaVuSans-50" d="M 1259 4147 
L 1259 2394 
L 2053 2394 
Q 2494 2394 2734 2622 
Q 2975 2850 2975 3272 
Q 2975 3691 2734 3919 
Q 2494 4147 2053 4147 
L 1259 4147 
z
M 628 4666 
L 2053 4666 
Q 2838 4666 3239 4311 
Q 3641 3956 3641 3272 
Q 3641 2581 3239 2228 
Q 2838 1875 2053 1875 
L 1259 1875 
L 1259 0 
L 628 0 
L 628 4666 
z
" transform="scale(0.015625)"/>
       <path id="DejaVuSans-6f" d="M 1959 3097 
Q 1497 3097 1228 2736 
Q 959 2375 959 1747 
Q 959 1119 1226 758 
Q 1494 397 1959 397 
Q 2419 397 2687 759 
Q 2956 1122 2956 1747 
Q 2956 2369 2687 2733 
Q 2419 3097 1959 3097 
z
M 1959 3584 
Q 2709 3584 3137 3096 
Q 3566 2609 3566 1747 
Q 3566 888 3137 398 
Q 2709 -91 1959 -91 
Q 1206 -91 779 398 
Q 353 888 353 1747 
Q 353 2609 779 3096 
Q 1206 3584 1959 3584 
z
" transform="scale(0.015625)"/>
       <path id="DejaVuSans-43" d="M 4122 4306 
L 4122 3641 
Q 3803 3938 3442 4084 
Q 3081 4231 2675 4231 
Q 1875 4231 1450 3742 
Q 1025 3253 1025 2328 
Q 1025 1406 1450 917 
Q 1875 428 2675 428 
Q 3081 428 3442 575 
Q 3803 722 4122 1019 
L 4122 359 
Q 3791 134 3420 21 
Q 3050 -91 2638 -91 
Q 1578 -91 968 557 
Q 359 1206 359 2328 
Q 359 3453 968 4101 
Q 1578 4750 2638 4750 
Q 3056 4750 3426 4639 
Q 3797 4528 4122 4306 
z
" transform="scale(0.015625)"/>
      </defs>
      <use xlink:href="#DejaVuSans-50"/>
      <use xlink:href="#DejaVuSans-6f" x="56.677734"/>
      <use xlink:href="#DejaVuSans-69" x="117.859375"/>
      <use xlink:href="#DejaVuSans-6e" x="145.642578"/>
      <use xlink:href="#DejaVuSans-74" x="209.021484"/>
      <use xlink:href="#DejaVuSans-65" x="248.230469"/>
      <use xlink:href="#DejaVuSans-72" x="309.753906"/>
      <use xlink:href="#DejaVuSans-20" x="350.867188"/>
      <use xlink:href="#DejaVuSans-43" x="382.654297"/>
      <use xlink:href="#DejaVuSans-68" x="452.478516"/>
      <use xlink:href="#DejaVuSans-61" x="515.857422"/>
      <use xlink:href="#DejaVuSans-73" x="577.136719"/>
      <use xlink:href="#DejaVuSans-69" x="629.236328"/>
      <use xlink:href="#DejaVuSans-6e" x="657.019531"/>
      <use xlink:href="#DejaVuSans-67" x="720.398438"/>
      <use xlink:href="#DejaVuSans-20" x="783.875"/>
      <use xlink:href="#DejaVuSans-50" x="815.662109"/>
      <use xlink:href="#DejaVuSans-61" x="871.464844"/>
      <use xlink:href="#DejaVuSans-64" x="932.744141"/>
      <use xlink:href="#DejaVuSans-64" x="996.220703"/>
      <use xlink:href="#DejaVuSans-65" x="1059.697266"/>
      <use xlink:href="#DejaVuSans-64" x="1121.220703"/>
     </g>
    </g>
    <g id="line2d_48">
     <path d="M 49.603125 50.094688 
L 59.603125 50.094688 
L 69.603125 50.094688 
" style="fill: none; stroke: #e377c2; stroke-width: 1.5; stroke-linecap: square"/>
    </g>
    <g id="text_26">
     <!-- Raw Pointer Chasing Padded -->
     <g transform="translate(77.603125 53.594688) scale(0.1 -0.1)">
      <defs>
       <path id="DejaVuSans-77" d="M 269 3500 
L 844 3500 
L 1563 769 
L 2278 3500 
L 2956 3500 
L 3675 769 
L 4391 3500 
L 4966 3500 
L 4050 0 
L 3372 0 
L 2619 2869 
L 1863 0 
L 1184 0 
L 269 3500 
z
" transform="scale(0.015625)"/>
      </defs>
      <use xlink:href="#DejaVuSans-52"/>
      <use xlink:href="#DejaVuSans-61" x="67.232422"/>
      <use xlink:href="#DejaVuSans-77" x="128.511719"/>
      <use xlink:href="#DejaVuSans-20" x="210.298828"/>
      <use xlink:href="#DejaVuSans-50" x="242.085938"/>
      <use xlink:href="#DejaVuSans-6f" x="298.763672"/>
      <use xlink:href="#DejaVuSans-69" x="359.945312"/>
      <use xlink:href="#DejaVuSans-6e" x="387.728516"/>
      <use xlink:href="#DejaVuSans-74" x="451.107422"/>
      <use xlink:href="#DejaVuSans-65" x="490.316406"/>
      <use xlink:href="#DejaVuSans-72" x="551.839844"/>
      <use xlink:href="#DejaVuSans-20" x="592.953125"/>
      <use xlink:href="#DejaVuSans-43" x="624.740234"/>
      <use xlink:href="#DejaVuSans-68" x="694.564453"/>
      <use xlink:href="#DejaVuSans-61" x="757.943359"/>
      <use xlink:href="#DejaVuSans-73" x="819.222656"/>
      <use xlink:href="#DejaVuSans-69" x="871.322266"/>
      <use xlink:href="#DejaVuSans-6e" x="899.105469"/>
      <use xlink:href="#DejaVuSans-67" x="962.484375"/>
      <use xlink:href="#DejaVuSans-20" x="1025.960938"/>
      <use xlink:href="#DejaVuSans-50" x="1057.748047"/>
      <use xlink:href="#DejaVuSans-61" x="1113.550781"/>
      <use xlink:href="#DejaVuSans-64" x="1174.830078"/>
      <use xlink:href="#DejaVuSans-64" x="1238.306641"/>
      <use xlink:href="#DejaVuSans-65" x="1301.783203"/>
      <use xlink:href="#DejaVuSans-64" x="1363.306641"/>
     </g>
    </g>
    <g id="line2d_49">
     <path d="M 49.603125 64.772812 
L 59.603125 64.772812 
L 69.603125 64.772812 
" style="fill: none; stroke: #9467bd; stroke-width: 1.5; stroke-linecap: square"/>
    </g>
    <g id="text_27">
     <!-- Pointer Chasing Padded Aligned -->
     <g transform="translate(77.603125 68.272812) scale(0.1 -0.1)">
      <use xlink:href="#DejaVuSans-50"/>
      <use xlink:href="#DejaVuSans-6f" x="56.677734"/>
      <use xlink:href="#DejaVuSans-69" x="117.859375"/>
      <use xlink:href="#DejaVuSans-6e" x="145.642578"/>
      <use xlink:href="#DejaVuSans-74" x="209.021484"/>
      <use xlink:href="#DejaVuSans-65" x="248.230469"/>
      <use xlink:href="#DejaVuSans-72" x="309.753906"/>
      <use xlink:href="#DejaVuSans-20" x="350.867188"/>
      <use xlink:href="#DejaVuSans-43" x="382.654297"/>
      <use xlink:href="#DejaVuSans-68" x="452.478516"/>
      <use xlink:href="#DejaVuSans-61" x="515.857422"/>
      <use xlink:href="#DejaVuSans-73" x="577.136719"/>
      <use xlink:href="#DejaVuSans-69" x="629.236328"/>
      <use xlink:href="#DejaVuSans-6e" x="657.019531"/>
      <use xlink:href="#DejaVuSans-67" x="720.398438"/>
      <use xlink:href="#DejaVuSans-20" x="783.875"/>
      <use xlink:href="#DejaVuSans-50" x="815.662109"/>
      <use xlink:href="#DejaVuSans-61" x="871.464844"/>
      <use xlink:href="#DejaVuSans-64" x="932.744141"/>
      <use xlink:href="#DejaVuSans-64" x="996.220703"/>
      <use xlink:href="#DejaVuSans-65" x="1059.697266"/>
      <use xlink:href="#DejaVuSans-64" x="1121.220703"/>
      <use xlink:href="#DejaVuSans-20" x="1184.697266"/>
      <use xlink:href="#DejaVuSans-41" x="1216.484375"/>
      <use xlink:href="#DejaVuSans-6c" x="1284.892578"/>
      <use xlink:href="#DejaVuSans-69" x="1312.675781"/>
      <use xlink:href="#DejaVuSans-67" x="1340.458984"/>
      <use xlink:href="#DejaVuSans-6e" x="1403.935547"/>
      <use xlink:href="#DejaVuSans-65" x="1467.314453"/>
      <use xlink:href="#DejaVuSans-64" x="1528.837891"/>
     </g>
    </g>
    <g id="line2d_50">
     <path d="M 49.603125 79.450938 
L 59.603125 79.450938 
L 69.603125 79.450938 
" style="fill: none; stroke: #7f7f7f; stroke-width: 1.5; stroke-linecap: square"/>
    </g>
    <g id="text_28">
     <!-- Raw Pointer Chasing Padded Aligned -->
     <g transform="translate(77.603125 82.950938) scale(0.1 -0.1)">
      <use xlink:href="#DejaVuSans-52"/>
      <use xlink:href="#DejaVuSans-61" x="67.232422"/>
      <use xlink:href="#DejaVuSans-77" x="128.511719"/>
      <use xlink:href="#DejaVuSans-20" x="210.298828"/>
      <use xlink:href="#DejaVuSans-50" x="242.085938"/>
      <use xlink:href="#DejaVuSans-6f" x="298.763672"/>
      <use xlink:href="#DejaVuSans-69" x="359.945312"/>
      <use xlink:href="#DejaVuSans-6e" x="387.728516"/>
      <use xlink:href="#DejaVuSans-74" x="451.107422"/>
      <use xlink:href="#DejaVuSans-65" x="490.316406"/>
      <use xlink:href="#DejaVuSans-72" x="551.839844"/>
      <use xlink:href="#DejaVuSans-20" x="592.953125"/>
      <use xlink:href="#DejaVuSans-43" x="624.740234"/>
      <use xlink:href="#DejaVuSans-68" x="694.564453"/>
      <use xlink:href="#DejaVuSans-61" x="757.943359"/>
      <use xlink:href="#DejaVuSans-73" x="819.222656"/>
      <use xlink:href="#DejaVuSans-69" x="871.322266"/>
      <use xlink:href="#DejaVuSans-6e" x="899.105469"/>
      <use xlink:href="#DejaVuSans-67" x="962.484375"/>
      <use xlink:href="#DejaVuSans-20" x="1025.960938"/>
      <use xlink:href="#DejaVuSans-50" x="1057.748047"/>
      <use xlink:href="#DejaVuSans-61" x="1113.550781"/>
      <use xlink:href="#DejaVuSans-64" x="1174.830078"/>
      <use xlink:href="#DejaVuSans-64" x="1238.306641"/>
      <use xlink:href="#DejaVuSans-65" x="1301.783203"/>
      <use xlink:href="#DejaVuSans-64" x="1363.306641"/>
      <use xlink:href="#DejaVuSans-20" x="1426.783203"/>
      <use xlink:href="#DejaVuSans-41" x="1458.570312"/>
      <use xlink:href="#DejaVuSans-6c" x="1526.978516"/>
      <use xlink:href="#DejaVuSans-69" x="1554.761719"/>
      <use xlink:href="#DejaVuSans-67" x="1582.544922"/>
      <use xlink:href="#DejaVuSans-6e" x="1646.021484"/>
      <use xlink:href="#DejaVuSans-65" x="1709.400391"/>
      <use xlink:href="#DejaVuSans-64" x="1770.923828"/>
     </g>
    </g>
   </g>
  </g>
 </g>
 <defs>
  <clipPath id="p33eff8a1dc">
   <rect x="40.603125" y="22.318125" width="446.4" height="332.64"/>
  </clipPath>
 </defs>
</svg>
