<?xml version="1.0" encoding="utf-8" standalone="no"?>
<!DOCTYPE svg PUBLIC "-//W3C//DTD SVG 1.1//EN"
  "http://www.w3.org/Graphics/SVG/1.1/DTD/svg11.dtd">
<svg xmlns:xlink="http://www.w3.org/1999/xlink" width="494.203125pt" height="392.514375pt" viewBox="0 0 494.203125 392.514375" xmlns="http://www.w3.org/2000/svg" version="1.1">
 <metadata>
  <rdf:RDF xmlns:dc="http://purl.org/dc/elements/1.1/" xmlns:cc="http://creativecommons.org/ns#" xmlns:rdf="http://www.w3.org/1999/02/22-rdf-syntax-ns#">
   <cc:Work>
    <dc:type rdf:resource="http://purl.org/dc/dcmitype/StillImage"/>
    <dc:date>2024-12-18T05:45:07.343174</dc:date>
    <dc:format>image/svg+xml</dc:format>
    <dc:creator>
     <cc:Agent>
      <dc:title>Matplotlib v3.9.3, https://matplotlib.org/</dc:title>
     </cc:Agent>
    </dc:creator>
   </cc:Work>
  </rdf:RDF>
 </metadata>
 <defs>
  <style type="text/css">*{stroke-linejoin: round; stroke-linecap: butt}</style>
 </defs>
 <g id="figure_1">
  <g id="patch_1">
   <path d="M 0 392.514375 
L 494.203125 392.514375 
L 494.203125 0 
L 0 0 
z
" style="fill: #ffffff"/>
  </g>
  <g id="axes_1">
   <g id="patch_2">
    <path d="M 40.603125 354.958125 
L 487.003125 354.958125 
L 487.003125 22.318125 
L 40.603125 22.318125 
z
" style="fill: #ffffff"/>
   </g>
   <g id="line2d_1">
    <path d="M 112.239523 354.958125 
L 112.239523 22.318125 
" clip-path="url(#p81f901bf4f)" style="fill: none; stroke-dasharray: 5.55,2.4; stroke-dashoffset: 0; stroke: #ff0000; stroke-width: 1.5"/>
   </g>
   <g id="line2d_2">
    <path d="M 189.257756 354.958125 
L 189.257756 22.318125 
" clip-path="url(#p81f901bf4f)" style="fill: none; stroke-dasharray: 5.55,2.4; stroke-dashoffset: 0; stroke: #ff0000; stroke-width: 1.5"/>
   </g>
   <g id="line2d_3">
    <path d="M 332.63907 354.958125 
L 332.63907 22.318125 
" clip-path="url(#p81f901bf4f)" style="fill: none; stroke-dasharray: 5.55,2.4; stroke-dashoffset: 0; stroke: #ff0000; stroke-width: 1.5"/>
   </g>
   <g id="PolyCollection_1">
    <defs>
     <path id="m532ccac55b" d="M 60.894034 -45.299412 
L 60.894034 -45.154342 
L 69.158812 -45.152914 
L 75.911627 -45.150181 
L 81.621051 -45.150349 
L 86.566778 -45.154242 
L 94.831556 -45.157097 
L 101.584371 -45.157261 
L 107.293795 -45.167386 
L 112.239523 -45.2043 
L 120.5043 -47.708669 
L 127.257116 -49.129027 
L 132.966539 -50.206055 
L 137.912267 -50.874751 
L 146.177045 -51.900157 
L 152.92986 -52.581878 
L 158.639284 -56.349225 
L 163.585012 -58.060148 
L 171.849789 -58.698518 
L 178.602604 -61.199699 
L 184.312028 -62.405799 
L 189.257756 -62.563119 
L 197.522534 -72.159943 
L 204.275349 -77.913462 
L 209.984772 -83.415319 
L 214.9305 -86.870706 
L 223.195278 -93.034953 
L 229.948093 -96.989502 
L 235.657517 -99.79429 
L 240.603245 -101.874698 
L 248.868022 -104.900121 
L 255.620837 -106.854775 
L 261.330261 -108.405279 
L 266.275989 -109.522041 
L 274.540767 -111.203679 
L 281.293582 -112.38986 
L 287.003005 -113.377855 
L 291.948733 -114.143561 
L 300.213511 -115.204863 
L 306.966326 -116.497683 
L 312.67575 -122.649622 
L 317.621478 -128.346221 
L 325.886255 -142.712657 
L 332.63907 -163.370535 
L 338.348494 -186.32847 
L 343.294222 -208.621588 
L 351.559 -239.575277 
L 358.311815 -260.915379 
L 364.021238 -275.937439 
L 368.966966 -259.404799 
L 377.231744 -273.783424 
L 383.984559 -287.153181 
L 389.693983 -291.378554 
L 394.639711 -296.975275 
L 402.904488 -306.623259 
L 409.657303 -314.831077 
L 415.366727 -319.275187 
L 420.312455 -322.788167 
L 428.577233 -327.2384 
L 435.330048 -330.734585 
L 441.039472 -332.937974 
L 445.985199 -334.747164 
L 454.249977 -337.804964 
L 461.002792 -339.702786 
L 466.712216 -339.992691 
L 466.712216 -341.448383 
L 466.712216 -341.448383 
L 461.002792 -341.584875 
L 454.249977 -340.451051 
L 445.985199 -335.667866 
L 441.039472 -332.958796 
L 435.330048 -331.639156 
L 428.577233 -330.932795 
L 420.312455 -323.65968 
L 415.366727 -319.841339 
L 409.657303 -315.470455 
L 402.904488 -307.368364 
L 394.639711 -297.54598 
L 389.693983 -291.487231 
L 383.984559 -287.937056 
L 377.231744 -274.64487 
L 368.966966 -259.594175 
L 364.021238 -278.989943 
L 358.311815 -262.942369 
L 351.559 -240.610073 
L 343.294222 -208.858397 
L 338.348494 -186.920901 
L 332.63907 -166.091526 
L 325.886255 -143.173671 
L 317.621478 -131.748849 
L 312.67575 -125.288149 
L 306.966326 -119.804263 
L 300.213511 -115.656317 
L 291.948733 -114.433401 
L 287.003005 -113.466456 
L 281.293582 -112.515759 
L 274.540767 -111.275957 
L 266.275989 -110.750942 
L 261.330261 -108.42075 
L 255.620837 -106.946649 
L 248.868022 -106.086648 
L 240.603245 -102.477314 
L 235.657517 -100.297279 
L 229.948093 -98.211967 
L 223.195278 -93.269941 
L 214.9305 -87.869857 
L 209.984772 -83.825966 
L 204.275349 -79.110462 
L 197.522534 -72.827956 
L 189.257756 -65.046623 
L 184.312028 -62.421123 
L 178.602604 -61.207968 
L 171.849789 -58.722846 
L 163.585012 -58.086058 
L 158.639284 -56.357593 
L 152.92986 -52.618422 
L 146.177045 -51.924682 
L 137.912267 -50.894488 
L 132.966539 -50.275998 
L 127.257116 -50.570135 
L 120.5043 -47.763525 
L 112.239523 -45.211608 
L 107.293795 -45.172353 
L 101.584371 -45.163757 
L 94.831556 -45.16169 
L 86.566778 -45.212174 
L 81.621051 -45.250941 
L 75.911627 -45.267435 
L 69.158812 -45.291056 
L 60.894034 -45.299412 
z
" style="stroke: #ff7f0e; stroke-opacity: 0.2"/>
    </defs>
    <g clip-path="url(#p81f901bf4f)">
     <use xlink:href="#m532ccac55b" x="0" y="392.514375" style="fill: #ff7f0e; fill-opacity: 0.2; stroke: #ff7f0e; stroke-opacity: 0.2"/>
    </g>
   </g>
   <g id="PolyCollection_2">
    <defs>
     <path id="m5e62223774" d="M 60.894034 -46.785017 
L 60.894034 -46.66408 
L 69.158812 -46.673074 
L 75.911627 -46.668727 
L 81.621051 -46.670711 
L 86.566778 -46.669842 
L 94.831556 -46.67238 
L 101.584371 -46.684477 
L 107.293795 -46.686812 
L 112.239523 -46.689286 
L 120.5043 -57.252238 
L 127.257116 -57.254118 
L 132.966539 -57.259068 
L 137.912267 -57.277447 
L 146.177045 -57.274605 
L 152.92986 -61.920482 
L 158.639284 -61.485854 
L 163.585012 -57.328543 
L 171.849789 -60.246196 
L 178.602604 -64.413494 
L 184.312028 -69.701375 
L 189.257756 -71.528835 
L 197.522534 -82.898601 
L 204.275349 -88.971182 
L 209.984772 -92.796708 
L 214.9305 -97.131853 
L 223.195278 -102.315249 
L 229.948093 -105.6991 
L 235.657517 -107.592087 
L 240.603245 -109.05927 
L 248.868022 -110.880134 
L 255.620837 -112.106611 
L 261.330261 -113.164899 
L 266.275989 -114.016181 
L 274.540767 -114.992256 
L 281.293582 -115.730476 
L 287.003005 -116.411351 
L 291.948733 -116.841545 
L 300.213511 -117.92305 
L 306.966326 -120.411623 
L 312.67575 -126.084481 
L 317.621478 -132.630003 
L 325.886255 -159.069055 
L 332.63907 -200.5545 
L 338.348494 -242.362176 
L 343.294222 -278.23831 
L 351.559 -302.493052 
L 358.311815 -318.810988 
L 364.021238 -331.927671 
L 368.966966 -314.057265 
L 377.231744 -318.099351 
L 383.984559 -321.026796 
L 389.693983 -322.25212 
L 394.639711 -322.854878 
L 402.904488 -324.477639 
L 409.657303 -328.72428 
L 415.366727 -330.473234 
L 420.312455 -332.702405 
L 428.577233 -336.044673 
L 435.330048 -337.633862 
L 441.039472 -339.263633 
L 445.985199 -341.033221 
L 454.249977 -341.845085 
L 461.002792 -343.677895 
L 466.712216 -343.633523 
L 466.712216 -344.698639 
L 466.712216 -344.698639 
L 461.002792 -344.428753 
L 454.249977 -344.594342 
L 445.985199 -341.977592 
L 441.039472 -341.730825 
L 435.330048 -340.37096 
L 428.577233 -336.281817 
L 420.312455 -336.250491 
L 415.366727 -333.19891 
L 409.657303 -329.843726 
L 402.904488 -327.795696 
L 394.639711 -323.473593 
L 389.693983 -325.01467 
L 383.984559 -321.895811 
L 377.231744 -320.125364 
L 368.966966 -317.299485 
L 364.021238 -332.675786 
L 358.311815 -321.418277 
L 351.559 -306.464162 
L 343.294222 -282.986269 
L 338.348494 -245.103627 
L 332.63907 -201.565177 
L 325.886255 -161.505832 
L 317.621478 -137.028203 
L 312.67575 -128.678789 
L 306.966326 -123.975389 
L 300.213511 -118.065239 
L 291.948733 -116.930501 
L 287.003005 -116.422405 
L 281.293582 -116.973344 
L 274.540767 -116.366132 
L 266.275989 -115.225201 
L 261.330261 -115.216777 
L 255.620837 -112.32835 
L 248.868022 -110.942808 
L 240.603245 -109.527851 
L 235.657517 -107.682255 
L 229.948093 -105.766422 
L 223.195278 -103.202676 
L 214.9305 -99.756238 
L 209.984772 -94.671533 
L 204.275349 -91.29318 
L 197.522534 -85.130609 
L 189.257756 -71.861897 
L 184.312028 -70.937564 
L 178.602604 -66.762163 
L 171.849789 -64.058149 
L 163.585012 -63.616925 
L 158.639284 -62.714903 
L 152.92986 -62.037267 
L 146.177045 -57.281913 
L 137.912267 -57.397969 
L 132.966539 -57.268876 
L 127.257116 -57.281121 
L 120.5043 -57.274487 
L 112.239523 -46.70224 
L 107.293795 -46.694648 
L 101.584371 -46.685374 
L 94.831556 -46.743656 
L 86.566778 -46.673437 
L 81.621051 -46.678606 
L 75.911627 -46.679418 
L 69.158812 -46.77062 
L 60.894034 -46.785017 
z
" style="stroke: #d62728; stroke-opacity: 0.2"/>
    </defs>
    <g clip-path="url(#p81f901bf4f)">
     <use xlink:href="#m5e62223774" x="0" y="392.514375" style="fill: #d62728; fill-opacity: 0.2; stroke: #d62728; stroke-opacity: 0.2"/>
    </g>
   </g>
   <g id="matplotlib.axis_1">
    <g id="xtick_1">
     <g id="line2d_4">
      <path d="M 86.566778 354.958125 
L 86.566778 22.318125 
" clip-path="url(#p81f901bf4f)" style="fill: none; stroke: #b0b0b0; stroke-opacity: 0.4; stroke-width: 0.8; stroke-linecap: square"/>
     </g>
     <g id="line2d_5">
      <defs>
       <path id="m1f0f51c5e3" d="M 0 0 
L 0 3.5 
" style="stroke: #000000; stroke-width: 0.8"/>
      </defs>
      <g>
       <use xlink:href="#m1f0f51c5e3" x="86.566778" y="354.958125" style="stroke: #000000; stroke-width: 0.8"/>
      </g>
     </g>
     <g id="text_1">
      <!-- $\mathdefault{2^{14}}$ -->
      <g transform="translate(78.716778 369.556562) scale(0.1 -0.1)">
       <defs>
        <path id="DejaVuSans-32" d="M 1228 531 
L 3431 531 
L 3431 0 
L 469 0 
L 469 531 
Q 828 903 1448 1529 
Q 2069 2156 2228 2338 
Q 2531 2678 2651 2914 
Q 2772 3150 2772 3378 
Q 2772 3750 2511 3984 
Q 2250 4219 1831 4219 
Q 1534 4219 1204 4116 
Q 875 4013 500 3803 
L 500 4441 
Q 881 4594 1212 4672 
Q 1544 4750 1819 4750 
Q 2544 4750 2975 4387 
Q 3406 4025 3406 3419 
Q 3406 3131 3298 2873 
Q 3191 2616 2906 2266 
Q 2828 2175 2409 1742 
Q 1991 1309 1228 531 
z
" transform="scale(0.015625)"/>
        <path id="DejaVuSans-31" d="M 794 531 
L 1825 531 
L 1825 4091 
L 703 3866 
L 703 4441 
L 1819 4666 
L 2450 4666 
L 2450 531 
L 3481 531 
L 3481 0 
L 794 0 
L 794 531 
z
" transform="scale(0.015625)"/>
        <path id="DejaVuSans-34" d="M 2419 4116 
L 825 1625 
L 2419 1625 
L 2419 4116 
z
M 2253 4666 
L 3047 4666 
L 3047 1625 
L 3713 1625 
L 3713 1100 
L 3047 1100 
L 3047 0 
L 2419 0 
L 2419 1100 
L 313 1100 
L 313 1709 
L 2253 4666 
z
" transform="scale(0.015625)"/>
       </defs>
       <use xlink:href="#DejaVuSans-32" transform="translate(0 0.684375)"/>
       <use xlink:href="#DejaVuSans-31" transform="translate(64.580078 38.965625) scale(0.7)"/>
       <use xlink:href="#DejaVuSans-34" transform="translate(109.116211 38.965625) scale(0.7)"/>
      </g>
     </g>
    </g>
    <g id="xtick_2">
     <g id="line2d_6">
      <path d="M 137.912267 354.958125 
L 137.912267 22.318125 
" clip-path="url(#p81f901bf4f)" style="fill: none; stroke: #b0b0b0; stroke-opacity: 0.4; stroke-width: 0.8; stroke-linecap: square"/>
     </g>
     <g id="line2d_7">
      <g>
       <use xlink:href="#m1f0f51c5e3" x="137.912267" y="354.958125" style="stroke: #000000; stroke-width: 0.8"/>
      </g>
     </g>
     <g id="text_2">
      <!-- $\mathdefault{2^{16}}$ -->
      <g transform="translate(130.062267 369.556562) scale(0.1 -0.1)">
       <defs>
        <path id="DejaVuSans-36" d="M 2113 2584 
Q 1688 2584 1439 2293 
Q 1191 2003 1191 1497 
Q 1191 994 1439 701 
Q 1688 409 2113 409 
Q 2538 409 2786 701 
Q 3034 994 3034 1497 
Q 3034 2003 2786 2293 
Q 2538 2584 2113 2584 
z
M 3366 4563 
L 3366 3988 
Q 3128 4100 2886 4159 
Q 2644 4219 2406 4219 
Q 1781 4219 1451 3797 
Q 1122 3375 1075 2522 
Q 1259 2794 1537 2939 
Q 1816 3084 2150 3084 
Q 2853 3084 3261 2657 
Q 3669 2231 3669 1497 
Q 3669 778 3244 343 
Q 2819 -91 2113 -91 
Q 1303 -91 875 529 
Q 447 1150 447 2328 
Q 447 3434 972 4092 
Q 1497 4750 2381 4750 
Q 2619 4750 2861 4703 
Q 3103 4656 3366 4563 
z
" transform="scale(0.015625)"/>
       </defs>
       <use xlink:href="#DejaVuSans-32" transform="translate(0 0.765625)"/>
       <use xlink:href="#DejaVuSans-31" transform="translate(64.580078 39.046875) scale(0.7)"/>
       <use xlink:href="#DejaVuSans-36" transform="translate(109.116211 39.046875) scale(0.7)"/>
      </g>
     </g>
    </g>
    <g id="xtick_3">
     <g id="line2d_8">
      <path d="M 189.257756 354.958125 
L 189.257756 22.318125 
" clip-path="url(#p81f901bf4f)" style="fill: none; stroke: #b0b0b0; stroke-opacity: 0.4; stroke-width: 0.8; stroke-linecap: square"/>
     </g>
     <g id="line2d_9">
      <g>
       <use xlink:href="#m1f0f51c5e3" x="189.257756" y="354.958125" style="stroke: #000000; stroke-width: 0.8"/>
      </g>
     </g>
     <g id="text_3">
      <!-- $\mathdefault{2^{18}}$ -->
      <g transform="translate(181.407756 369.556562) scale(0.1 -0.1)">
       <defs>
        <path id="DejaVuSans-38" d="M 2034 2216 
Q 1584 2216 1326 1975 
Q 1069 1734 1069 1313 
Q 1069 891 1326 650 
Q 1584 409 2034 409 
Q 2484 409 2743 651 
Q 3003 894 3003 1313 
Q 3003 1734 2745 1975 
Q 2488 2216 2034 2216 
z
M 1403 2484 
Q 997 2584 770 2862 
Q 544 3141 544 3541 
Q 544 4100 942 4425 
Q 1341 4750 2034 4750 
Q 2731 4750 3128 4425 
Q 3525 4100 3525 3541 
Q 3525 3141 3298 2862 
Q 3072 2584 2669 2484 
Q 3125 2378 3379 2068 
Q 3634 1759 3634 1313 
Q 3634 634 3220 271 
Q 2806 -91 2034 -91 
Q 1263 -91 848 271 
Q 434 634 434 1313 
Q 434 1759 690 2068 
Q 947 2378 1403 2484 
z
M 1172 3481 
Q 1172 3119 1398 2916 
Q 1625 2713 2034 2713 
Q 2441 2713 2670 2916 
Q 2900 3119 2900 3481 
Q 2900 3844 2670 4047 
Q 2441 4250 2034 4250 
Q 1625 4250 1398 4047 
Q 1172 3844 1172 3481 
z
" transform="scale(0.015625)"/>
       </defs>
       <use xlink:href="#DejaVuSans-32" transform="translate(0 0.765625)"/>
       <use xlink:href="#DejaVuSans-31" transform="translate(64.580078 39.046875) scale(0.7)"/>
       <use xlink:href="#DejaVuSans-38" transform="translate(109.116211 39.046875) scale(0.7)"/>
      </g>
     </g>
    </g>
    <g id="xtick_4">
     <g id="line2d_10">
      <path d="M 240.603245 354.958125 
L 240.603245 22.318125 
" clip-path="url(#p81f901bf4f)" style="fill: none; stroke: #b0b0b0; stroke-opacity: 0.4; stroke-width: 0.8; stroke-linecap: square"/>
     </g>
     <g id="line2d_11">
      <g>
       <use xlink:href="#m1f0f51c5e3" x="240.603245" y="354.958125" style="stroke: #000000; stroke-width: 0.8"/>
      </g>
     </g>
     <g id="text_4">
      <!-- $\mathdefault{2^{20}}$ -->
      <g transform="translate(232.753245 369.556562) scale(0.1 -0.1)">
       <defs>
        <path id="DejaVuSans-30" d="M 2034 4250 
Q 1547 4250 1301 3770 
Q 1056 3291 1056 2328 
Q 1056 1369 1301 889 
Q 1547 409 2034 409 
Q 2525 409 2770 889 
Q 3016 1369 3016 2328 
Q 3016 3291 2770 3770 
Q 2525 4250 2034 4250 
z
M 2034 4750 
Q 2819 4750 3233 4129 
Q 3647 3509 3647 2328 
Q 3647 1150 3233 529 
Q 2819 -91 2034 -91 
Q 1250 -91 836 529 
Q 422 1150 422 2328 
Q 422 3509 836 4129 
Q 1250 4750 2034 4750 
z
" transform="scale(0.015625)"/>
       </defs>
       <use xlink:href="#DejaVuSans-32" transform="translate(0 0.765625)"/>
       <use xlink:href="#DejaVuSans-32" transform="translate(64.580078 39.046875) scale(0.7)"/>
       <use xlink:href="#DejaVuSans-30" transform="translate(109.116211 39.046875) scale(0.7)"/>
      </g>
     </g>
    </g>
    <g id="xtick_5">
     <g id="line2d_12">
      <path d="M 291.948733 354.958125 
L 291.948733 22.318125 
" clip-path="url(#p81f901bf4f)" style="fill: none; stroke: #b0b0b0; stroke-opacity: 0.4; stroke-width: 0.8; stroke-linecap: square"/>
     </g>
     <g id="line2d_13">
      <g>
       <use xlink:href="#m1f0f51c5e3" x="291.948733" y="354.958125" style="stroke: #000000; stroke-width: 0.8"/>
      </g>
     </g>
     <g id="text_5">
      <!-- $\mathdefault{2^{22}}$ -->
      <g transform="translate(284.098733 369.556562) scale(0.1 -0.1)">
       <use xlink:href="#DejaVuSans-32" transform="translate(0 0.765625)"/>
       <use xlink:href="#DejaVuSans-32" transform="translate(64.580078 39.046875) scale(0.7)"/>
       <use xlink:href="#DejaVuSans-32" transform="translate(109.116211 39.046875) scale(0.7)"/>
      </g>
     </g>
    </g>
    <g id="xtick_6">
     <g id="line2d_14">
      <path d="M 343.294222 354.958125 
L 343.294222 22.318125 
" clip-path="url(#p81f901bf4f)" style="fill: none; stroke: #b0b0b0; stroke-opacity: 0.4; stroke-width: 0.8; stroke-linecap: square"/>
     </g>
     <g id="line2d_15">
      <g>
       <use xlink:href="#m1f0f51c5e3" x="343.294222" y="354.958125" style="stroke: #000000; stroke-width: 0.8"/>
      </g>
     </g>
     <g id="text_6">
      <!-- $\mathdefault{2^{24}}$ -->
      <g transform="translate(335.444222 369.556562) scale(0.1 -0.1)">
       <use xlink:href="#DejaVuSans-32" transform="translate(0 0.765625)"/>
       <use xlink:href="#DejaVuSans-32" transform="translate(64.580078 39.046875) scale(0.7)"/>
       <use xlink:href="#DejaVuSans-34" transform="translate(109.116211 39.046875) scale(0.7)"/>
      </g>
     </g>
    </g>
    <g id="xtick_7">
     <g id="line2d_16">
      <path d="M 394.639711 354.958125 
L 394.639711 22.318125 
" clip-path="url(#p81f901bf4f)" style="fill: none; stroke: #b0b0b0; stroke-opacity: 0.4; stroke-width: 0.8; stroke-linecap: square"/>
     </g>
     <g id="line2d_17">
      <g>
       <use xlink:href="#m1f0f51c5e3" x="394.639711" y="354.958125" style="stroke: #000000; stroke-width: 0.8"/>
      </g>
     </g>
     <g id="text_7">
      <!-- $\mathdefault{2^{26}}$ -->
      <g transform="translate(386.789711 369.556562) scale(0.1 -0.1)">
       <use xlink:href="#DejaVuSans-32" transform="translate(0 0.765625)"/>
       <use xlink:href="#DejaVuSans-32" transform="translate(64.580078 39.046875) scale(0.7)"/>
       <use xlink:href="#DejaVuSans-36" transform="translate(109.116211 39.046875) scale(0.7)"/>
      </g>
     </g>
    </g>
    <g id="xtick_8">
     <g id="line2d_18">
      <path d="M 445.985199 354.958125 
L 445.985199 22.318125 
" clip-path="url(#p81f901bf4f)" style="fill: none; stroke: #b0b0b0; stroke-opacity: 0.4; stroke-width: 0.8; stroke-linecap: square"/>
     </g>
     <g id="line2d_19">
      <g>
       <use xlink:href="#m1f0f51c5e3" x="445.985199" y="354.958125" style="stroke: #000000; stroke-width: 0.8"/>
      </g>
     </g>
     <g id="text_8">
      <!-- $\mathdefault{2^{28}}$ -->
      <g transform="translate(438.135199 369.556562) scale(0.1 -0.1)">
       <use xlink:href="#DejaVuSans-32" transform="translate(0 0.765625)"/>
       <use xlink:href="#DejaVuSans-32" transform="translate(64.580078 39.046875) scale(0.7)"/>
       <use xlink:href="#DejaVuSans-38" transform="translate(109.116211 39.046875) scale(0.7)"/>
      </g>
     </g>
    </g>
    <g id="text_9">
     <!-- Array Size (bytes) -->
     <g transform="translate(219.217188 383.234687) scale(0.1 -0.1)">
      <defs>
       <path id="DejaVuSans-41" d="M 2188 4044 
L 1331 1722 
L 3047 1722 
L 2188 4044 
z
M 1831 4666 
L 2547 4666 
L 4325 0 
L 3669 0 
L 3244 1197 
L 1141 1197 
L 716 0 
L 50 0 
L 1831 4666 
z
" transform="scale(0.015625)"/>
       <path id="DejaVuSans-72" d="M 2631 2963 
Q 2534 3019 2420 3045 
Q 2306 3072 2169 3072 
Q 1681 3072 1420 2755 
Q 1159 2438 1159 1844 
L 1159 0 
L 581 0 
L 581 3500 
L 1159 3500 
L 1159 2956 
Q 1341 3275 1631 3429 
Q 1922 3584 2338 3584 
Q 2397 3584 2469 3576 
Q 2541 3569 2628 3553 
L 2631 2963 
z
" transform="scale(0.015625)"/>
       <path id="DejaVuSans-61" d="M 2194 1759 
Q 1497 1759 1228 1600 
Q 959 1441 959 1056 
Q 959 750 1161 570 
Q 1363 391 1709 391 
Q 2188 391 2477 730 
Q 2766 1069 2766 1631 
L 2766 1759 
L 2194 1759 
z
M 3341 1997 
L 3341 0 
L 2766 0 
L 2766 531 
Q 2569 213 2275 61 
Q 1981 -91 1556 -91 
Q 1019 -91 701 211 
Q 384 513 384 1019 
Q 384 1609 779 1909 
Q 1175 2209 1959 2209 
L 2766 2209 
L 2766 2266 
Q 2766 2663 2505 2880 
Q 2244 3097 1772 3097 
Q 1472 3097 1187 3025 
Q 903 2953 641 2809 
L 641 3341 
Q 956 3463 1253 3523 
Q 1550 3584 1831 3584 
Q 2591 3584 2966 3190 
Q 3341 2797 3341 1997 
z
" transform="scale(0.015625)"/>
       <path id="DejaVuSans-79" d="M 2059 -325 
Q 1816 -950 1584 -1140 
Q 1353 -1331 966 -1331 
L 506 -1331 
L 506 -850 
L 844 -850 
Q 1081 -850 1212 -737 
Q 1344 -625 1503 -206 
L 1606 56 
L 191 3500 
L 800 3500 
L 1894 763 
L 2988 3500 
L 3597 3500 
L 2059 -325 
z
" transform="scale(0.015625)"/>
       <path id="DejaVuSans-20" transform="scale(0.015625)"/>
       <path id="DejaVuSans-53" d="M 3425 4513 
L 3425 3897 
Q 3066 4069 2747 4153 
Q 2428 4238 2131 4238 
Q 1616 4238 1336 4038 
Q 1056 3838 1056 3469 
Q 1056 3159 1242 3001 
Q 1428 2844 1947 2747 
L 2328 2669 
Q 3034 2534 3370 2195 
Q 3706 1856 3706 1288 
Q 3706 609 3251 259 
Q 2797 -91 1919 -91 
Q 1588 -91 1214 -16 
Q 841 59 441 206 
L 441 856 
Q 825 641 1194 531 
Q 1563 422 1919 422 
Q 2459 422 2753 634 
Q 3047 847 3047 1241 
Q 3047 1584 2836 1778 
Q 2625 1972 2144 2069 
L 1759 2144 
Q 1053 2284 737 2584 
Q 422 2884 422 3419 
Q 422 4038 858 4394 
Q 1294 4750 2059 4750 
Q 2388 4750 2728 4690 
Q 3069 4631 3425 4513 
z
" transform="scale(0.015625)"/>
       <path id="DejaVuSans-69" d="M 603 3500 
L 1178 3500 
L 1178 0 
L 603 0 
L 603 3500 
z
M 603 4863 
L 1178 4863 
L 1178 4134 
L 603 4134 
L 603 4863 
z
" transform="scale(0.015625)"/>
       <path id="DejaVuSans-7a" d="M 353 3500 
L 3084 3500 
L 3084 2975 
L 922 459 
L 3084 459 
L 3084 0 
L 275 0 
L 275 525 
L 2438 3041 
L 353 3041 
L 353 3500 
z
" transform="scale(0.015625)"/>
       <path id="DejaVuSans-65" d="M 3597 1894 
L 3597 1613 
L 953 1613 
Q 991 1019 1311 708 
Q 1631 397 2203 397 
Q 2534 397 2845 478 
Q 3156 559 3463 722 
L 3463 178 
Q 3153 47 2828 -22 
Q 2503 -91 2169 -91 
Q 1331 -91 842 396 
Q 353 884 353 1716 
Q 353 2575 817 3079 
Q 1281 3584 2069 3584 
Q 2775 3584 3186 3129 
Q 3597 2675 3597 1894 
z
M 3022 2063 
Q 3016 2534 2758 2815 
Q 2500 3097 2075 3097 
Q 1594 3097 1305 2825 
Q 1016 2553 972 2059 
L 3022 2063 
z
" transform="scale(0.015625)"/>
       <path id="DejaVuSans-28" d="M 1984 4856 
Q 1566 4138 1362 3434 
Q 1159 2731 1159 2009 
Q 1159 1288 1364 580 
Q 1569 -128 1984 -844 
L 1484 -844 
Q 1016 -109 783 600 
Q 550 1309 550 2009 
Q 550 2706 781 3412 
Q 1013 4119 1484 4856 
L 1984 4856 
z
" transform="scale(0.015625)"/>
       <path id="DejaVuSans-62" d="M 3116 1747 
Q 3116 2381 2855 2742 
Q 2594 3103 2138 3103 
Q 1681 3103 1420 2742 
Q 1159 2381 1159 1747 
Q 1159 1113 1420 752 
Q 1681 391 2138 391 
Q 2594 391 2855 752 
Q 3116 1113 3116 1747 
z
M 1159 2969 
Q 1341 3281 1617 3432 
Q 1894 3584 2278 3584 
Q 2916 3584 3314 3078 
Q 3713 2572 3713 1747 
Q 3713 922 3314 415 
Q 2916 -91 2278 -91 
Q 1894 -91 1617 61 
Q 1341 213 1159 525 
L 1159 0 
L 581 0 
L 581 4863 
L 1159 4863 
L 1159 2969 
z
" transform="scale(0.015625)"/>
       <path id="DejaVuSans-74" d="M 1172 4494 
L 1172 3500 
L 2356 3500 
L 2356 3053 
L 1172 3053 
L 1172 1153 
Q 1172 725 1289 603 
Q 1406 481 1766 481 
L 2356 481 
L 2356 0 
L 1766 0 
Q 1100 0 847 248 
Q 594 497 594 1153 
L 594 3053 
L 172 3053 
L 172 3500 
L 594 3500 
L 594 4494 
L 1172 4494 
z
" transform="scale(0.015625)"/>
       <path id="DejaVuSans-73" d="M 2834 3397 
L 2834 2853 
Q 2591 2978 2328 3040 
Q 2066 3103 1784 3103 
Q 1356 3103 1142 2972 
Q 928 2841 928 2578 
Q 928 2378 1081 2264 
Q 1234 2150 1697 2047 
L 1894 2003 
Q 2506 1872 2764 1633 
Q 3022 1394 3022 966 
Q 3022 478 2636 193 
Q 2250 -91 1575 -91 
Q 1294 -91 989 -36 
Q 684 19 347 128 
L 347 722 
Q 666 556 975 473 
Q 1284 391 1588 391 
Q 1994 391 2212 530 
Q 2431 669 2431 922 
Q 2431 1156 2273 1281 
Q 2116 1406 1581 1522 
L 1381 1569 
Q 847 1681 609 1914 
Q 372 2147 372 2553 
Q 372 3047 722 3315 
Q 1072 3584 1716 3584 
Q 2034 3584 2315 3537 
Q 2597 3491 2834 3397 
z
" transform="scale(0.015625)"/>
       <path id="DejaVuSans-29" d="M 513 4856 
L 1013 4856 
Q 1481 4119 1714 3412 
Q 1947 2706 1947 2009 
Q 1947 1309 1714 600 
Q 1481 -109 1013 -844 
L 513 -844 
Q 928 -128 1133 580 
Q 1338 1288 1338 2009 
Q 1338 2731 1133 3434 
Q 928 4138 513 4856 
z
" transform="scale(0.015625)"/>
      </defs>
      <use xlink:href="#DejaVuSans-41"/>
      <use xlink:href="#DejaVuSans-72" x="68.408203"/>
      <use xlink:href="#DejaVuSans-72" x="107.771484"/>
      <use xlink:href="#DejaVuSans-61" x="148.884766"/>
      <use xlink:href="#DejaVuSans-79" x="210.164062"/>
      <use xlink:href="#DejaVuSans-20" x="269.34375"/>
      <use xlink:href="#DejaVuSans-53" x="301.130859"/>
      <use xlink:href="#DejaVuSans-69" x="364.607422"/>
      <use xlink:href="#DejaVuSans-7a" x="392.390625"/>
      <use xlink:href="#DejaVuSans-65" x="444.880859"/>
      <use xlink:href="#DejaVuSans-20" x="506.404297"/>
      <use xlink:href="#DejaVuSans-28" x="538.191406"/>
      <use xlink:href="#DejaVuSans-62" x="577.205078"/>
      <use xlink:href="#DejaVuSans-79" x="640.681641"/>
      <use xlink:href="#DejaVuSans-74" x="699.861328"/>
      <use xlink:href="#DejaVuSans-65" x="739.070312"/>
      <use xlink:href="#DejaVuSans-73" x="800.59375"/>
      <use xlink:href="#DejaVuSans-29" x="852.693359"/>
     </g>
    </g>
   </g>
   <g id="matplotlib.axis_2">
    <g id="ytick_1">
     <g id="line2d_20">
      <path d="M 40.603125 354.958125 
L 487.003125 354.958125 
" clip-path="url(#p81f901bf4f)" style="fill: none; stroke: #b0b0b0; stroke-opacity: 0.4; stroke-width: 0.8; stroke-linecap: square"/>
     </g>
     <g id="line2d_21">
      <defs>
       <path id="m27e04273dd" d="M 0 0 
L -3.5 0 
" style="stroke: #000000; stroke-width: 0.8"/>
      </defs>
      <g>
       <use xlink:href="#m27e04273dd" x="40.603125" y="354.958125" style="stroke: #000000; stroke-width: 0.8"/>
      </g>
     </g>
     <g id="text_10">
      <!-- 0 -->
      <g transform="translate(27.240625 358.757344) scale(0.1 -0.1)">
       <use xlink:href="#DejaVuSans-30"/>
      </g>
     </g>
    </g>
    <g id="ytick_2">
     <g id="line2d_22">
      <path d="M 40.603125 315.824007 
L 487.003125 315.824007 
" clip-path="url(#p81f901bf4f)" style="fill: none; stroke: #b0b0b0; stroke-opacity: 0.4; stroke-width: 0.8; stroke-linecap: square"/>
     </g>
     <g id="line2d_23">
      <g>
       <use xlink:href="#m27e04273dd" x="40.603125" y="315.824007" style="stroke: #000000; stroke-width: 0.8"/>
      </g>
     </g>
     <g id="text_11">
      <!-- 10 -->
      <g transform="translate(20.878125 319.623226) scale(0.1 -0.1)">
       <use xlink:href="#DejaVuSans-31"/>
       <use xlink:href="#DejaVuSans-30" x="63.623047"/>
      </g>
     </g>
    </g>
    <g id="ytick_3">
     <g id="line2d_24">
      <path d="M 40.603125 276.68989 
L 487.003125 276.68989 
" clip-path="url(#p81f901bf4f)" style="fill: none; stroke: #b0b0b0; stroke-opacity: 0.4; stroke-width: 0.8; stroke-linecap: square"/>
     </g>
     <g id="line2d_25">
      <g>
       <use xlink:href="#m27e04273dd" x="40.603125" y="276.68989" style="stroke: #000000; stroke-width: 0.8"/>
      </g>
     </g>
     <g id="text_12">
      <!-- 20 -->
      <g transform="translate(20.878125 280.489108) scale(0.1 -0.1)">
       <use xlink:href="#DejaVuSans-32"/>
       <use xlink:href="#DejaVuSans-30" x="63.623047"/>
      </g>
     </g>
    </g>
    <g id="ytick_4">
     <g id="line2d_26">
      <path d="M 40.603125 237.555772 
L 487.003125 237.555772 
" clip-path="url(#p81f901bf4f)" style="fill: none; stroke: #b0b0b0; stroke-opacity: 0.4; stroke-width: 0.8; stroke-linecap: square"/>
     </g>
     <g id="line2d_27">
      <g>
       <use xlink:href="#m27e04273dd" x="40.603125" y="237.555772" style="stroke: #000000; stroke-width: 0.8"/>
      </g>
     </g>
     <g id="text_13">
      <!-- 30 -->
      <g transform="translate(20.878125 241.354991) scale(0.1 -0.1)">
       <defs>
        <path id="DejaVuSans-33" d="M 2597 2516 
Q 3050 2419 3304 2112 
Q 3559 1806 3559 1356 
Q 3559 666 3084 287 
Q 2609 -91 1734 -91 
Q 1441 -91 1130 -33 
Q 819 25 488 141 
L 488 750 
Q 750 597 1062 519 
Q 1375 441 1716 441 
Q 2309 441 2620 675 
Q 2931 909 2931 1356 
Q 2931 1769 2642 2001 
Q 2353 2234 1838 2234 
L 1294 2234 
L 1294 2753 
L 1863 2753 
Q 2328 2753 2575 2939 
Q 2822 3125 2822 3475 
Q 2822 3834 2567 4026 
Q 2313 4219 1838 4219 
Q 1578 4219 1281 4162 
Q 984 4106 628 3988 
L 628 4550 
Q 988 4650 1302 4700 
Q 1616 4750 1894 4750 
Q 2613 4750 3031 4423 
Q 3450 4097 3450 3541 
Q 3450 3153 3228 2886 
Q 3006 2619 2597 2516 
z
" transform="scale(0.015625)"/>
       </defs>
       <use xlink:href="#DejaVuSans-33"/>
       <use xlink:href="#DejaVuSans-30" x="63.623047"/>
      </g>
     </g>
    </g>
    <g id="ytick_5">
     <g id="line2d_28">
      <path d="M 40.603125 198.421654 
L 487.003125 198.421654 
" clip-path="url(#p81f901bf4f)" style="fill: none; stroke: #b0b0b0; stroke-opacity: 0.4; stroke-width: 0.8; stroke-linecap: square"/>
     </g>
     <g id="line2d_29">
      <g>
       <use xlink:href="#m27e04273dd" x="40.603125" y="198.421654" style="stroke: #000000; stroke-width: 0.8"/>
      </g>
     </g>
     <g id="text_14">
      <!-- 40 -->
      <g transform="translate(20.878125 202.220873) scale(0.1 -0.1)">
       <use xlink:href="#DejaVuSans-34"/>
       <use xlink:href="#DejaVuSans-30" x="63.623047"/>
      </g>
     </g>
    </g>
    <g id="ytick_6">
     <g id="line2d_30">
      <path d="M 40.603125 159.287537 
L 487.003125 159.287537 
" clip-path="url(#p81f901bf4f)" style="fill: none; stroke: #b0b0b0; stroke-opacity: 0.4; stroke-width: 0.8; stroke-linecap: square"/>
     </g>
     <g id="line2d_31">
      <g>
       <use xlink:href="#m27e04273dd" x="40.603125" y="159.287537" style="stroke: #000000; stroke-width: 0.8"/>
      </g>
     </g>
     <g id="text_15">
      <!-- 50 -->
      <g transform="translate(20.878125 163.086756) scale(0.1 -0.1)">
       <defs>
        <path id="DejaVuSans-35" d="M 691 4666 
L 3169 4666 
L 3169 4134 
L 1269 4134 
L 1269 2991 
Q 1406 3038 1543 3061 
Q 1681 3084 1819 3084 
Q 2600 3084 3056 2656 
Q 3513 2228 3513 1497 
Q 3513 744 3044 326 
Q 2575 -91 1722 -91 
Q 1428 -91 1123 -41 
Q 819 9 494 109 
L 494 744 
Q 775 591 1075 516 
Q 1375 441 1709 441 
Q 2250 441 2565 725 
Q 2881 1009 2881 1497 
Q 2881 1984 2565 2268 
Q 2250 2553 1709 2553 
Q 1456 2553 1204 2497 
Q 953 2441 691 2322 
L 691 4666 
z
" transform="scale(0.015625)"/>
       </defs>
       <use xlink:href="#DejaVuSans-35"/>
       <use xlink:href="#DejaVuSans-30" x="63.623047"/>
      </g>
     </g>
    </g>
    <g id="ytick_7">
     <g id="line2d_32">
      <path d="M 40.603125 120.153419 
L 487.003125 120.153419 
" clip-path="url(#p81f901bf4f)" style="fill: none; stroke: #b0b0b0; stroke-opacity: 0.4; stroke-width: 0.8; stroke-linecap: square"/>
     </g>
     <g id="line2d_33">
      <g>
       <use xlink:href="#m27e04273dd" x="40.603125" y="120.153419" style="stroke: #000000; stroke-width: 0.8"/>
      </g>
     </g>
     <g id="text_16">
      <!-- 60 -->
      <g transform="translate(20.878125 123.952638) scale(0.1 -0.1)">
       <use xlink:href="#DejaVuSans-36"/>
       <use xlink:href="#DejaVuSans-30" x="63.623047"/>
      </g>
     </g>
    </g>
    <g id="ytick_8">
     <g id="line2d_34">
      <path d="M 40.603125 81.019301 
L 487.003125 81.019301 
" clip-path="url(#p81f901bf4f)" style="fill: none; stroke: #b0b0b0; stroke-opacity: 0.4; stroke-width: 0.8; stroke-linecap: square"/>
     </g>
     <g id="line2d_35">
      <g>
       <use xlink:href="#m27e04273dd" x="40.603125" y="81.019301" style="stroke: #000000; stroke-width: 0.8"/>
      </g>
     </g>
     <g id="text_17">
      <!-- 70 -->
      <g transform="translate(20.878125 84.81852) scale(0.1 -0.1)">
       <defs>
        <path id="DejaVuSans-37" d="M 525 4666 
L 3525 4666 
L 3525 4397 
L 1831 0 
L 1172 0 
L 2766 4134 
L 525 4134 
L 525 4666 
z
" transform="scale(0.015625)"/>
       </defs>
       <use xlink:href="#DejaVuSans-37"/>
       <use xlink:href="#DejaVuSans-30" x="63.623047"/>
      </g>
     </g>
    </g>
    <g id="ytick_9">
     <g id="line2d_36">
      <path d="M 40.603125 41.885184 
L 487.003125 41.885184 
" clip-path="url(#p81f901bf4f)" style="fill: none; stroke: #b0b0b0; stroke-opacity: 0.4; stroke-width: 0.8; stroke-linecap: square"/>
     </g>
     <g id="line2d_37">
      <g>
       <use xlink:href="#m27e04273dd" x="40.603125" y="41.885184" style="stroke: #000000; stroke-width: 0.8"/>
      </g>
     </g>
     <g id="text_18">
      <!-- 80 -->
      <g transform="translate(20.878125 45.684403) scale(0.1 -0.1)">
       <use xlink:href="#DejaVuSans-38"/>
       <use xlink:href="#DejaVuSans-30" x="63.623047"/>
      </g>
     </g>
    </g>
    <g id="text_19">
     <!-- Latency (ns) -->
     <g transform="translate(14.798438 219.66625) rotate(-90) scale(0.1 -0.1)">
      <defs>
       <path id="DejaVuSans-4c" d="M 628 4666 
L 1259 4666 
L 1259 531 
L 3531 531 
L 3531 0 
L 628 0 
L 628 4666 
z
" transform="scale(0.015625)"/>
       <path id="DejaVuSans-6e" d="M 3513 2113 
L 3513 0 
L 2938 0 
L 2938 2094 
Q 2938 2591 2744 2837 
Q 2550 3084 2163 3084 
Q 1697 3084 1428 2787 
Q 1159 2491 1159 1978 
L 1159 0 
L 581 0 
L 581 3500 
L 1159 3500 
L 1159 2956 
Q 1366 3272 1645 3428 
Q 1925 3584 2291 3584 
Q 2894 3584 3203 3211 
Q 3513 2838 3513 2113 
z
" transform="scale(0.015625)"/>
       <path id="DejaVuSans-63" d="M 3122 3366 
L 3122 2828 
Q 2878 2963 2633 3030 
Q 2388 3097 2138 3097 
Q 1578 3097 1268 2742 
Q 959 2388 959 1747 
Q 959 1106 1268 751 
Q 1578 397 2138 397 
Q 2388 397 2633 464 
Q 2878 531 3122 666 
L 3122 134 
Q 2881 22 2623 -34 
Q 2366 -91 2075 -91 
Q 1284 -91 818 406 
Q 353 903 353 1747 
Q 353 2603 823 3093 
Q 1294 3584 2113 3584 
Q 2378 3584 2631 3529 
Q 2884 3475 3122 3366 
z
" transform="scale(0.015625)"/>
      </defs>
      <use xlink:href="#DejaVuSans-4c"/>
      <use xlink:href="#DejaVuSans-61" x="55.712891"/>
      <use xlink:href="#DejaVuSans-74" x="116.992188"/>
      <use xlink:href="#DejaVuSans-65" x="156.201172"/>
      <use xlink:href="#DejaVuSans-6e" x="217.724609"/>
      <use xlink:href="#DejaVuSans-63" x="281.103516"/>
      <use xlink:href="#DejaVuSans-79" x="336.083984"/>
      <use xlink:href="#DejaVuSans-20" x="395.263672"/>
      <use xlink:href="#DejaVuSans-28" x="427.050781"/>
      <use xlink:href="#DejaVuSans-6e" x="466.064453"/>
      <use xlink:href="#DejaVuSans-73" x="529.443359"/>
      <use xlink:href="#DejaVuSans-29" x="581.542969"/>
     </g>
    </g>
   </g>
   <g id="line2d_38">
    <path d="M 60.894034 347.358094 
L 69.158812 347.357111 
L 75.911627 347.363323 
L 81.621051 347.358772 
L 86.566778 347.35798 
L 94.831556 347.353449 
L 101.584371 347.353766 
L 107.293795 347.34575 
L 112.239523 347.308552 
L 120.5043 344.791634 
L 127.257116 343.383738 
L 132.966539 342.306326 
L 137.912267 341.63523 
L 146.177045 340.609566 
L 152.92986 339.912588 
L 158.639284 336.161155 
L 163.585012 334.433011 
L 171.849789 333.794434 
L 178.602604 331.309159 
L 184.312028 330.107561 
L 189.257756 328.339816 
L 197.522534 320.333745 
L 204.275349 314.591722 
L 209.984772 309.033894 
L 214.9305 305.612949 
L 223.195278 299.44257 
L 229.948093 295.436653 
L 235.657517 292.645762 
L 240.603245 290.617469 
L 248.868022 287.120622 
L 255.620837 285.625234 
L 261.330261 284.108572 
L 266.275989 282.928229 
L 274.540767 281.239898 
L 281.293582 280.022972 
L 287.003005 279.116129 
L 291.948733 278.354283 
L 300.213511 276.967688 
L 306.966326 274.87167 
L 312.67575 269.474673 
L 317.621478 263.515029 
L 325.886255 249.799755 
L 332.63907 228.300753 
L 338.348494 206.097732 
L 343.294222 183.676698 
L 351.559 152.463533 
L 358.311815 130.503482 
L 364.021238 115.909149 
L 368.966966 133.031019 
L 377.231744 117.883477 
L 383.984559 105.317564 
L 389.693983 101.113376 
L 394.639711 95.04436 
L 402.904488 85.769635 
L 409.657303 77.659048 
L 415.366727 73.085902 
L 420.312455 69.526111 
L 428.577233 62.389314 
L 435.330048 60.91531 
L 441.039472 59.57045 
L 445.985199 56.931023 
L 454.249977 53.669763 
L 461.002792 51.411827 
L 466.712216 52.412421 
" clip-path="url(#p81f901bf4f)" style="fill: none; stroke: #ff7f0e; stroke-width: 1.5; stroke-linecap: square"/>
   </g>
   <g id="line2d_39">
    <path d="M 60.894034 345.847984 
L 69.158812 345.841152 
L 75.911627 345.845465 
L 81.621051 345.841511 
L 86.566778 345.841161 
L 94.831556 345.838442 
L 101.584371 345.829287 
L 107.293795 345.82608 
L 112.239523 345.823645 
L 120.5043 335.261901 
L 127.257116 335.245911 
L 132.966539 335.246997 
L 137.912267 335.208267 
L 146.177045 335.236724 
L 152.92986 330.586866 
L 158.639284 329.81424 
L 163.585012 328.900587 
L 171.849789 328.997657 
L 178.602604 325.757214 
L 184.312028 322.785111 
L 189.257756 320.92016 
L 197.522534 309.079008 
L 204.275349 301.41805 
L 209.984772 298.104293 
L 214.9305 293.905459 
L 223.195278 289.523663 
L 229.948093 286.781201 
L 235.657517 284.8946 
L 240.603245 283.252945 
L 248.868022 281.597488 
L 255.620837 280.339077 
L 261.330261 279.320019 
L 266.275989 278.477624 
L 274.540767 277.424334 
L 281.293582 276.714479 
L 287.003005 276.098589 
L 291.948733 275.643643 
L 300.213511 274.573762 
L 306.966326 271.715531 
L 312.67575 264.26533 
L 317.621478 256.097407 
L 325.886255 233.442621 
L 332.63907 191.21934 
L 338.348494 149.621194 
L 343.294222 113.794242 
L 351.559 86.273259 
L 358.311815 73.62657 
L 364.021238 60.536192 
L 368.966966 77.031293 
L 377.231744 72.817986 
L 383.984559 70.810534 
L 389.693983 69.569352 
L 394.639711 69.145202 
L 402.904488 67.000504 
L 409.657303 62.899374 
L 415.366727 60.838534 
L 420.312455 59.701965 
L 428.577233 56.267547 
L 435.330048 53.984393 
L 441.039472 53.144312 
L 445.985199 50.957592 
L 454.249977 49.753917 
L 461.002792 48.620144 
L 466.712216 48.725122 
" clip-path="url(#p81f901bf4f)" style="fill: none; stroke: #d62728; stroke-width: 1.5; stroke-linecap: square"/>
   </g>
   <g id="line2d_40"/>
   <g id="line2d_41"/>
   <g id="line2d_42"/>
   <g id="patch_3">
    <path d="M 40.603125 354.958125 
L 40.603125 22.318125 
" style="fill: none; stroke: #000000; stroke-width: 0.8; stroke-linejoin: miter; stroke-linecap: square"/>
   </g>
   <g id="patch_4">
    <path d="M 487.003125 354.958125 
L 487.003125 22.318125 
" style="fill: none; stroke: #000000; stroke-width: 0.8; stroke-linejoin: miter; stroke-linecap: square"/>
   </g>
   <g id="patch_5">
    <path d="M 40.603125 354.958125 
L 487.003125 354.958125 
" style="fill: none; stroke: #000000; stroke-width: 0.8; stroke-linejoin: miter; stroke-linecap: square"/>
   </g>
   <g id="patch_6">
    <path d="M 40.603125 22.318125 
L 487.003125 22.318125 
" style="fill: none; stroke: #000000; stroke-width: 0.8; stroke-linejoin: miter; stroke-linecap: square"/>
   </g>
   <g id="text_20">
    <!-- L1  -->
    <g style="fill: #ff0000" transform="translate(97.127023 352.878437) scale(0.1 -0.1)">
     <use xlink:href="#DejaVuSans-4c"/>
     <use xlink:href="#DejaVuSans-31" x="55.712891"/>
     <use xlink:href="#DejaVuSans-20" x="119.335938"/>
    </g>
   </g>
   <g id="text_21">
    <!-- L2  -->
    <g style="fill: #ff0000" transform="translate(174.145256 352.878437) scale(0.1 -0.1)">
     <use xlink:href="#DejaVuSans-4c"/>
     <use xlink:href="#DejaVuSans-32" x="55.712891"/>
     <use xlink:href="#DejaVuSans-20" x="119.335938"/>
    </g>
   </g>
   <g id="text_22">
    <!-- L3  -->
    <g style="fill: #ff0000" transform="translate(317.52657 352.878437) scale(0.1 -0.1)">
     <use xlink:href="#DejaVuSans-4c"/>
     <use xlink:href="#DejaVuSans-33" x="55.712891"/>
     <use xlink:href="#DejaVuSans-20" x="119.335938"/>
    </g>
   </g>
   <g id="text_23">
    <!-- RAM -->
    <g style="fill: #ff0000" transform="translate(444.695028 352.878437) scale(0.1 -0.1)">
     <defs>
      <path id="DejaVuSans-52" d="M 2841 2188 
Q 3044 2119 3236 1894 
Q 3428 1669 3622 1275 
L 4263 0 
L 3584 0 
L 2988 1197 
Q 2756 1666 2539 1819 
Q 2322 1972 1947 1972 
L 1259 1972 
L 1259 0 
L 628 0 
L 628 4666 
L 2053 4666 
Q 2853 4666 3247 4331 
Q 3641 3997 3641 3322 
Q 3641 2881 3436 2590 
Q 3231 2300 2841 2188 
z
M 1259 4147 
L 1259 2491 
L 2053 2491 
Q 2509 2491 2742 2702 
Q 2975 2913 2975 3322 
Q 2975 3731 2742 3939 
Q 2509 4147 2053 4147 
L 1259 4147 
z
" transform="scale(0.015625)"/>
      <path id="DejaVuSans-4d" d="M 628 4666 
L 1569 4666 
L 2759 1491 
L 3956 4666 
L 4897 4666 
L 4897 0 
L 4281 0 
L 4281 4097 
L 3078 897 
L 2444 897 
L 1241 4097 
L 1241 0 
L 628 0 
L 628 4666 
z
" transform="scale(0.015625)"/>
     </defs>
     <use xlink:href="#DejaVuSans-52"/>
     <use xlink:href="#DejaVuSans-41" x="65.482422"/>
     <use xlink:href="#DejaVuSans-4d" x="133.890625"/>
    </g>
   </g>
   <g id="text_24">
    <!-- Padding to 64 bytes cachelines -->
    <g transform="translate(170.342813 16.318125) scale(0.12 -0.12)">
     <defs>
      <path id="DejaVuSans-50" d="M 1259 4147 
L 1259 2394 
L 2053 2394 
Q 2494 2394 2734 2622 
Q 2975 2850 2975 3272 
Q 2975 3691 2734 3919 
Q 2494 4147 2053 4147 
L 1259 4147 
z
M 628 4666 
L 2053 4666 
Q 2838 4666 3239 4311 
Q 3641 3956 3641 3272 
Q 3641 2581 3239 2228 
Q 2838 1875 2053 1875 
L 1259 1875 
L 1259 0 
L 628 0 
L 628 4666 
z
" transform="scale(0.015625)"/>
      <path id="DejaVuSans-64" d="M 2906 2969 
L 2906 4863 
L 3481 4863 
L 3481 0 
L 2906 0 
L 2906 525 
Q 2725 213 2448 61 
Q 2172 -91 1784 -91 
Q 1150 -91 751 415 
Q 353 922 353 1747 
Q 353 2572 751 3078 
Q 1150 3584 1784 3584 
Q 2172 3584 2448 3432 
Q 2725 3281 2906 2969 
z
M 947 1747 
Q 947 1113 1208 752 
Q 1469 391 1925 391 
Q 2381 391 2643 752 
Q 2906 1113 2906 1747 
Q 2906 2381 2643 2742 
Q 2381 3103 1925 3103 
Q 1469 3103 1208 2742 
Q 947 2381 947 1747 
z
" transform="scale(0.015625)"/>
      <path id="DejaVuSans-67" d="M 2906 1791 
Q 2906 2416 2648 2759 
Q 2391 3103 1925 3103 
Q 1463 3103 1205 2759 
Q 947 2416 947 1791 
Q 947 1169 1205 825 
Q 1463 481 1925 481 
Q 2391 481 2648 825 
Q 2906 1169 2906 1791 
z
M 3481 434 
Q 3481 -459 3084 -895 
Q 2688 -1331 1869 -1331 
Q 1566 -1331 1297 -1286 
Q 1028 -1241 775 -1147 
L 775 -588 
Q 1028 -725 1275 -790 
Q 1522 -856 1778 -856 
Q 2344 -856 2625 -561 
Q 2906 -266 2906 331 
L 2906 616 
Q 2728 306 2450 153 
Q 2172 0 1784 0 
Q 1141 0 747 490 
Q 353 981 353 1791 
Q 353 2603 747 3093 
Q 1141 3584 1784 3584 
Q 2172 3584 2450 3431 
Q 2728 3278 2906 2969 
L 2906 3500 
L 3481 3500 
L 3481 434 
z
" transform="scale(0.015625)"/>
      <path id="DejaVuSans-6f" d="M 1959 3097 
Q 1497 3097 1228 2736 
Q 959 2375 959 1747 
Q 959 1119 1226 758 
Q 1494 397 1959 397 
Q 2419 397 2687 759 
Q 2956 1122 2956 1747 
Q 2956 2369 2687 2733 
Q 2419 3097 1959 3097 
z
M 1959 3584 
Q 2709 3584 3137 3096 
Q 3566 2609 3566 1747 
Q 3566 888 3137 398 
Q 2709 -91 1959 -91 
Q 1206 -91 779 398 
Q 353 888 353 1747 
Q 353 2609 779 3096 
Q 1206 3584 1959 3584 
z
" transform="scale(0.015625)"/>
      <path id="DejaVuSans-68" d="M 3513 2113 
L 3513 0 
L 2938 0 
L 2938 2094 
Q 2938 2591 2744 2837 
Q 2550 3084 2163 3084 
Q 1697 3084 1428 2787 
Q 1159 2491 1159 1978 
L 1159 0 
L 581 0 
L 581 4863 
L 1159 4863 
L 1159 2956 
Q 1366 3272 1645 3428 
Q 1925 3584 2291 3584 
Q 2894 3584 3203 3211 
Q 3513 2838 3513 2113 
z
" transform="scale(0.015625)"/>
      <path id="DejaVuSans-6c" d="M 603 4863 
L 1178 4863 
L 1178 0 
L 603 0 
L 603 4863 
z
" transform="scale(0.015625)"/>
     </defs>
     <use xlink:href="#DejaVuSans-50"/>
     <use xlink:href="#DejaVuSans-61" x="55.802734"/>
     <use xlink:href="#DejaVuSans-64" x="117.082031"/>
     <use xlink:href="#DejaVuSans-64" x="180.558594"/>
     <use xlink:href="#DejaVuSans-69" x="244.035156"/>
     <use xlink:href="#DejaVuSans-6e" x="271.818359"/>
     <use xlink:href="#DejaVuSans-67" x="335.197266"/>
     <use xlink:href="#DejaVuSans-20" x="398.673828"/>
     <use xlink:href="#DejaVuSans-74" x="430.460938"/>
     <use xlink:href="#DejaVuSans-6f" x="469.669922"/>
     <use xlink:href="#DejaVuSans-20" x="530.851562"/>
     <use xlink:href="#DejaVuSans-36" x="562.638672"/>
     <use xlink:href="#DejaVuSans-34" x="626.261719"/>
     <use xlink:href="#DejaVuSans-20" x="689.884766"/>
     <use xlink:href="#DejaVuSans-62" x="721.671875"/>
     <use xlink:href="#DejaVuSans-79" x="785.148438"/>
     <use xlink:href="#DejaVuSans-74" x="844.328125"/>
     <use xlink:href="#DejaVuSans-65" x="883.537109"/>
     <use xlink:href="#DejaVuSans-73" x="945.060547"/>
     <use xlink:href="#DejaVuSans-20" x="997.160156"/>
     <use xlink:href="#DejaVuSans-63" x="1028.947266"/>
     <use xlink:href="#DejaVuSans-61" x="1083.927734"/>
     <use xlink:href="#DejaVuSans-63" x="1145.207031"/>
     <use xlink:href="#DejaVuSans-68" x="1200.1875"/>
     <use xlink:href="#DejaVuSans-65" x="1263.566406"/>
     <use xlink:href="#DejaVuSans-6c" x="1325.089844"/>
     <use xlink:href="#DejaVuSans-69" x="1352.873047"/>
     <use xlink:href="#DejaVuSans-6e" x="1380.65625"/>
     <use xlink:href="#DejaVuSans-65" x="1444.035156"/>
     <use xlink:href="#DejaVuSans-73" x="1505.558594"/>
    </g>
   </g>
   <g id="legend_1">
    <g id="patch_7">
     <path d="M 47.603125 59.674375 
L 198.073438 59.674375 
Q 200.073438 59.674375 200.073438 57.674375 
L 200.073438 29.318125 
Q 200.073438 27.318125 198.073438 27.318125 
L 47.603125 27.318125 
Q 45.603125 27.318125 45.603125 29.318125 
L 45.603125 57.674375 
Q 45.603125 59.674375 47.603125 59.674375 
z
" style="fill: #ffffff; opacity: 0.8; stroke: #cccccc; stroke-linejoin: miter"/>
    </g>
    <g id="line2d_43">
     <path d="M 49.603125 35.416562 
L 59.603125 35.416562 
L 69.603125 35.416562 
" style="fill: none; stroke: #ff7f0e; stroke-width: 1.5; stroke-linecap: square"/>
    </g>
    <g id="text_25">
     <!-- Pointer Chasing -->
     <g transform="translate(77.603125 38.916562) scale(0.1 -0.1)">
      <defs>
       <path id="DejaVuSans-43" d="M 4122 4306 
L 4122 3641 
Q 3803 3938 3442 4084 
Q 3081 4231 2675 4231 
Q 1875 4231 1450 3742 
Q 1025 3253 1025 2328 
Q 1025 1406 1450 917 
Q 1875 428 2675 428 
Q 3081 428 3442 575 
Q 3803 722 4122 1019 
L 4122 359 
Q 3791 134 3420 21 
Q 3050 -91 2638 -91 
Q 1578 -91 968 557 
Q 359 1206 359 2328 
Q 359 3453 968 4101 
Q 1578 4750 2638 4750 
Q 3056 4750 3426 4639 
Q 3797 4528 4122 4306 
z
" transform="scale(0.015625)"/>
      </defs>
      <use xlink:href="#DejaVuSans-50"/>
      <use xlink:href="#DejaVuSans-6f" x="56.677734"/>
      <use xlink:href="#DejaVuSans-69" x="117.859375"/>
      <use xlink:href="#DejaVuSans-6e" x="145.642578"/>
      <use xlink:href="#DejaVuSans-74" x="209.021484"/>
      <use xlink:href="#DejaVuSans-65" x="248.230469"/>
      <use xlink:href="#DejaVuSans-72" x="309.753906"/>
      <use xlink:href="#DejaVuSans-20" x="350.867188"/>
      <use xlink:href="#DejaVuSans-43" x="382.654297"/>
      <use xlink:href="#DejaVuSans-68" x="452.478516"/>
      <use xlink:href="#DejaVuSans-61" x="515.857422"/>
      <use xlink:href="#DejaVuSans-73" x="577.136719"/>
      <use xlink:href="#DejaVuSans-69" x="629.236328"/>
      <use xlink:href="#DejaVuSans-6e" x="657.019531"/>
      <use xlink:href="#DejaVuSans-67" x="720.398438"/>
     </g>
    </g>
    <g id="line2d_44">
     <path d="M 49.603125 50.094687 
L 59.603125 50.094687 
L 69.603125 50.094687 
" style="fill: none; stroke: #d62728; stroke-width: 1.5; stroke-linecap: square"/>
    </g>
    <g id="text_26">
     <!-- Pointer Chasing Padded -->
     <g transform="translate(77.603125 53.594687) scale(0.1 -0.1)">
      <use xlink:href="#DejaVuSans-50"/>
      <use xlink:href="#DejaVuSans-6f" x="56.677734"/>
      <use xlink:href="#DejaVuSans-69" x="117.859375"/>
      <use xlink:href="#DejaVuSans-6e" x="145.642578"/>
      <use xlink:href="#DejaVuSans-74" x="209.021484"/>
      <use xlink:href="#DejaVuSans-65" x="248.230469"/>
      <use xlink:href="#DejaVuSans-72" x="309.753906"/>
      <use xlink:href="#DejaVuSans-20" x="350.867188"/>
      <use xlink:href="#DejaVuSans-43" x="382.654297"/>
      <use xlink:href="#DejaVuSans-68" x="452.478516"/>
      <use xlink:href="#DejaVuSans-61" x="515.857422"/>
      <use xlink:href="#DejaVuSans-73" x="577.136719"/>
      <use xlink:href="#DejaVuSans-69" x="629.236328"/>
      <use xlink:href="#DejaVuSans-6e" x="657.019531"/>
      <use xlink:href="#DejaVuSans-67" x="720.398438"/>
      <use xlink:href="#DejaVuSans-20" x="783.875"/>
      <use xlink:href="#DejaVuSans-50" x="815.662109"/>
      <use xlink:href="#DejaVuSans-61" x="871.464844"/>
      <use xlink:href="#DejaVuSans-64" x="932.744141"/>
      <use xlink:href="#DejaVuSans-64" x="996.220703"/>
      <use xlink:href="#DejaVuSans-65" x="1059.697266"/>
      <use xlink:href="#DejaVuSans-64" x="1121.220703"/>
     </g>
    </g>
   </g>
  </g>
 </g>
 <defs>
  <clipPath id="p81f901bf4f">
   <rect x="40.603125" y="22.318125" width="446.4" height="332.64"/>
  </clipPath>
 </defs>
</svg>
