<?xml version="1.0" encoding="utf-8" standalone="no"?>
<!DOCTYPE svg PUBLIC "-//W3C//DTD SVG 1.1//EN"
  "http://www.w3.org/Graphics/SVG/1.1/DTD/svg11.dtd">
<svg xmlns:xlink="http://www.w3.org/1999/xlink" width="420.82625pt" height="314.35161pt" viewBox="0 0 420.82625 314.35161" xmlns="http://www.w3.org/2000/svg" version="1.1">
 <metadata>
  <rdf:RDF xmlns:dc="http://purl.org/dc/elements/1.1/" xmlns:cc="http://creativecommons.org/ns#" xmlns:rdf="http://www.w3.org/1999/02/22-rdf-syntax-ns#">
   <cc:Work>
    <dc:type rdf:resource="http://purl.org/dc/dcmitype/StillImage"/>
    <dc:date>2025-02-27T10:15:27.129328</dc:date>
    <dc:format>image/svg+xml</dc:format>
    <dc:creator>
     <cc:Agent>
      <dc:title>Matplotlib v3.10.0, https://matplotlib.org/</dc:title>
     </cc:Agent>
    </dc:creator>
   </cc:Work>
  </rdf:RDF>
 </metadata>
 <defs>
  <style type="text/css">*{stroke-linejoin: round; stroke-linecap: butt}</style>
 </defs>
 <g id="figure_1">
  <g id="patch_1">
   <path d="M 0 314.35161 
L 420.82625 314.35161 
L 420.82625 0 
L 0 0 
z
" style="fill: #ffffff"/>
  </g>
  <g id="axes_1">
   <g id="patch_2">
    <path d="M 56.50625 276.79536 
L 413.62625 276.79536 
L 413.62625 10.68336 
L 56.50625 10.68336 
z
" style="fill: #ffffff"/>
   </g>
   <g id="matplotlib.axis_1">
    <g id="xtick_1">
     <g id="line2d_1">
      <path d="M 72.738977 276.79536 
L 72.738977 10.68336 
" clip-path="url(#p90e5017551)" style="fill: none; stroke: #cccccc; stroke-width: 0.5; stroke-linecap: square"/>
     </g>
     <g id="line2d_2">
      <defs>
       <path id="m06c5be2a3c" d="M 0 0 
L 0 3.5 
" style="stroke: #000000; stroke-width: 0.8"/>
      </defs>
      <g>
       <use xlink:href="#m06c5be2a3c" x="72.738977" y="276.79536" style="stroke: #000000; stroke-width: 0.8"/>
      </g>
     </g>
     <g id="text_1">
      <!-- 2 -->
      <g transform="translate(69.557727 291.393798) scale(0.1 -0.1)">
       <defs>
        <path id="DejaVuSans-32" d="M 1228 531 
L 3431 531 
L 3431 0 
L 469 0 
L 469 531 
Q 828 903 1448 1529 
Q 2069 2156 2228 2338 
Q 2531 2678 2651 2914 
Q 2772 3150 2772 3378 
Q 2772 3750 2511 3984 
Q 2250 4219 1831 4219 
Q 1534 4219 1204 4116 
Q 875 4013 500 3803 
L 500 4441 
Q 881 4594 1212 4672 
Q 1544 4750 1819 4750 
Q 2544 4750 2975 4387 
Q 3406 4025 3406 3419 
Q 3406 3131 3298 2873 
Q 3191 2616 2906 2266 
Q 2828 2175 2409 1742 
Q 1991 1309 1228 531 
z
" transform="scale(0.015625)"/>
       </defs>
       <use xlink:href="#DejaVuSans-32"/>
      </g>
     </g>
    </g>
    <g id="xtick_2">
     <g id="line2d_3">
      <path d="M 108.811705 276.79536 
L 108.811705 10.68336 
" clip-path="url(#p90e5017551)" style="fill: none; stroke: #cccccc; stroke-width: 0.5; stroke-linecap: square"/>
     </g>
     <g id="line2d_4">
      <g>
       <use xlink:href="#m06c5be2a3c" x="108.811705" y="276.79536" style="stroke: #000000; stroke-width: 0.8"/>
      </g>
     </g>
     <g id="text_2">
      <!-- 4 -->
      <g transform="translate(105.630455 291.393798) scale(0.1 -0.1)">
       <defs>
        <path id="DejaVuSans-34" d="M 2419 4116 
L 825 1625 
L 2419 1625 
L 2419 4116 
z
M 2253 4666 
L 3047 4666 
L 3047 1625 
L 3713 1625 
L 3713 1100 
L 3047 1100 
L 3047 0 
L 2419 0 
L 2419 1100 
L 313 1100 
L 313 1709 
L 2253 4666 
z
" transform="scale(0.015625)"/>
       </defs>
       <use xlink:href="#DejaVuSans-34"/>
      </g>
     </g>
    </g>
    <g id="xtick_3">
     <g id="line2d_5">
      <path d="M 144.884432 276.79536 
L 144.884432 10.68336 
" clip-path="url(#p90e5017551)" style="fill: none; stroke: #cccccc; stroke-width: 0.5; stroke-linecap: square"/>
     </g>
     <g id="line2d_6">
      <g>
       <use xlink:href="#m06c5be2a3c" x="144.884432" y="276.79536" style="stroke: #000000; stroke-width: 0.8"/>
      </g>
     </g>
     <g id="text_3">
      <!-- 6 -->
      <g transform="translate(141.703182 291.393798) scale(0.1 -0.1)">
       <defs>
        <path id="DejaVuSans-36" d="M 2113 2584 
Q 1688 2584 1439 2293 
Q 1191 2003 1191 1497 
Q 1191 994 1439 701 
Q 1688 409 2113 409 
Q 2538 409 2786 701 
Q 3034 994 3034 1497 
Q 3034 2003 2786 2293 
Q 2538 2584 2113 2584 
z
M 3366 4563 
L 3366 3988 
Q 3128 4100 2886 4159 
Q 2644 4219 2406 4219 
Q 1781 4219 1451 3797 
Q 1122 3375 1075 2522 
Q 1259 2794 1537 2939 
Q 1816 3084 2150 3084 
Q 2853 3084 3261 2657 
Q 3669 2231 3669 1497 
Q 3669 778 3244 343 
Q 2819 -91 2113 -91 
Q 1303 -91 875 529 
Q 447 1150 447 2328 
Q 447 3434 972 4092 
Q 1497 4750 2381 4750 
Q 2619 4750 2861 4703 
Q 3103 4656 3366 4563 
z
" transform="scale(0.015625)"/>
       </defs>
       <use xlink:href="#DejaVuSans-36"/>
      </g>
     </g>
    </g>
    <g id="xtick_4">
     <g id="line2d_7">
      <path d="M 180.957159 276.79536 
L 180.957159 10.68336 
" clip-path="url(#p90e5017551)" style="fill: none; stroke: #cccccc; stroke-width: 0.5; stroke-linecap: square"/>
     </g>
     <g id="line2d_8">
      <g>
       <use xlink:href="#m06c5be2a3c" x="180.957159" y="276.79536" style="stroke: #000000; stroke-width: 0.8"/>
      </g>
     </g>
     <g id="text_4">
      <!-- 8 -->
      <g transform="translate(177.775909 291.393798) scale(0.1 -0.1)">
       <defs>
        <path id="DejaVuSans-38" d="M 2034 2216 
Q 1584 2216 1326 1975 
Q 1069 1734 1069 1313 
Q 1069 891 1326 650 
Q 1584 409 2034 409 
Q 2484 409 2743 651 
Q 3003 894 3003 1313 
Q 3003 1734 2745 1975 
Q 2488 2216 2034 2216 
z
M 1403 2484 
Q 997 2584 770 2862 
Q 544 3141 544 3541 
Q 544 4100 942 4425 
Q 1341 4750 2034 4750 
Q 2731 4750 3128 4425 
Q 3525 4100 3525 3541 
Q 3525 3141 3298 2862 
Q 3072 2584 2669 2484 
Q 3125 2378 3379 2068 
Q 3634 1759 3634 1313 
Q 3634 634 3220 271 
Q 2806 -91 2034 -91 
Q 1263 -91 848 271 
Q 434 634 434 1313 
Q 434 1759 690 2068 
Q 947 2378 1403 2484 
z
M 1172 3481 
Q 1172 3119 1398 2916 
Q 1625 2713 2034 2713 
Q 2441 2713 2670 2916 
Q 2900 3119 2900 3481 
Q 2900 3844 2670 4047 
Q 2441 4250 2034 4250 
Q 1625 4250 1398 4047 
Q 1172 3844 1172 3481 
z
" transform="scale(0.015625)"/>
       </defs>
       <use xlink:href="#DejaVuSans-38"/>
      </g>
     </g>
    </g>
    <g id="xtick_5">
     <g id="line2d_9">
      <path d="M 217.029886 276.79536 
L 217.029886 10.68336 
" clip-path="url(#p90e5017551)" style="fill: none; stroke: #cccccc; stroke-width: 0.5; stroke-linecap: square"/>
     </g>
     <g id="line2d_10">
      <g>
       <use xlink:href="#m06c5be2a3c" x="217.029886" y="276.79536" style="stroke: #000000; stroke-width: 0.8"/>
      </g>
     </g>
     <g id="text_5">
      <!-- 10 -->
      <g transform="translate(210.667386 291.393798) scale(0.1 -0.1)">
       <defs>
        <path id="DejaVuSans-31" d="M 794 531 
L 1825 531 
L 1825 4091 
L 703 3866 
L 703 4441 
L 1819 4666 
L 2450 4666 
L 2450 531 
L 3481 531 
L 3481 0 
L 794 0 
L 794 531 
z
" transform="scale(0.015625)"/>
        <path id="DejaVuSans-30" d="M 2034 4250 
Q 1547 4250 1301 3770 
Q 1056 3291 1056 2328 
Q 1056 1369 1301 889 
Q 1547 409 2034 409 
Q 2525 409 2770 889 
Q 3016 1369 3016 2328 
Q 3016 3291 2770 3770 
Q 2525 4250 2034 4250 
z
M 2034 4750 
Q 2819 4750 3233 4129 
Q 3647 3509 3647 2328 
Q 3647 1150 3233 529 
Q 2819 -91 2034 -91 
Q 1250 -91 836 529 
Q 422 1150 422 2328 
Q 422 3509 836 4129 
Q 1250 4750 2034 4750 
z
" transform="scale(0.015625)"/>
       </defs>
       <use xlink:href="#DejaVuSans-31"/>
       <use xlink:href="#DejaVuSans-30" transform="translate(63.623047 0)"/>
      </g>
     </g>
    </g>
    <g id="xtick_6">
     <g id="line2d_11">
      <path d="M 253.102614 276.79536 
L 253.102614 10.68336 
" clip-path="url(#p90e5017551)" style="fill: none; stroke: #cccccc; stroke-width: 0.5; stroke-linecap: square"/>
     </g>
     <g id="line2d_12">
      <g>
       <use xlink:href="#m06c5be2a3c" x="253.102614" y="276.79536" style="stroke: #000000; stroke-width: 0.8"/>
      </g>
     </g>
     <g id="text_6">
      <!-- 12 -->
      <g transform="translate(246.740114 291.393798) scale(0.1 -0.1)">
       <use xlink:href="#DejaVuSans-31"/>
       <use xlink:href="#DejaVuSans-32" transform="translate(63.623047 0)"/>
      </g>
     </g>
    </g>
    <g id="xtick_7">
     <g id="line2d_13">
      <path d="M 289.175341 276.79536 
L 289.175341 10.68336 
" clip-path="url(#p90e5017551)" style="fill: none; stroke: #cccccc; stroke-width: 0.5; stroke-linecap: square"/>
     </g>
     <g id="line2d_14">
      <g>
       <use xlink:href="#m06c5be2a3c" x="289.175341" y="276.79536" style="stroke: #000000; stroke-width: 0.8"/>
      </g>
     </g>
     <g id="text_7">
      <!-- 14 -->
      <g transform="translate(282.812841 291.393798) scale(0.1 -0.1)">
       <use xlink:href="#DejaVuSans-31"/>
       <use xlink:href="#DejaVuSans-34" transform="translate(63.623047 0)"/>
      </g>
     </g>
    </g>
    <g id="xtick_8">
     <g id="line2d_15">
      <path d="M 325.248068 276.79536 
L 325.248068 10.68336 
" clip-path="url(#p90e5017551)" style="fill: none; stroke: #cccccc; stroke-width: 0.5; stroke-linecap: square"/>
     </g>
     <g id="line2d_16">
      <g>
       <use xlink:href="#m06c5be2a3c" x="325.248068" y="276.79536" style="stroke: #000000; stroke-width: 0.8"/>
      </g>
     </g>
     <g id="text_8">
      <!-- 16 -->
      <g transform="translate(318.885568 291.393798) scale(0.1 -0.1)">
       <use xlink:href="#DejaVuSans-31"/>
       <use xlink:href="#DejaVuSans-36" transform="translate(63.623047 0)"/>
      </g>
     </g>
    </g>
    <g id="xtick_9">
     <g id="line2d_17">
      <path d="M 361.320795 276.79536 
L 361.320795 10.68336 
" clip-path="url(#p90e5017551)" style="fill: none; stroke: #cccccc; stroke-width: 0.5; stroke-linecap: square"/>
     </g>
     <g id="line2d_18">
      <g>
       <use xlink:href="#m06c5be2a3c" x="361.320795" y="276.79536" style="stroke: #000000; stroke-width: 0.8"/>
      </g>
     </g>
     <g id="text_9">
      <!-- 18 -->
      <g transform="translate(354.958295 291.393798) scale(0.1 -0.1)">
       <use xlink:href="#DejaVuSans-31"/>
       <use xlink:href="#DejaVuSans-38" transform="translate(63.623047 0)"/>
      </g>
     </g>
    </g>
    <g id="xtick_10">
     <g id="line2d_19">
      <path d="M 397.393523 276.79536 
L 397.393523 10.68336 
" clip-path="url(#p90e5017551)" style="fill: none; stroke: #cccccc; stroke-width: 0.5; stroke-linecap: square"/>
     </g>
     <g id="line2d_20">
      <g>
       <use xlink:href="#m06c5be2a3c" x="397.393523" y="276.79536" style="stroke: #000000; stroke-width: 0.8"/>
      </g>
     </g>
     <g id="text_10">
      <!-- 20 -->
      <g transform="translate(391.031023 291.393798) scale(0.1 -0.1)">
       <use xlink:href="#DejaVuSans-32"/>
       <use xlink:href="#DejaVuSans-30" transform="translate(63.623047 0)"/>
      </g>
     </g>
    </g>
    <g id="text_11">
     <!-- w -->
     <g transform="translate(230.977187 305.071922) scale(0.1 -0.1)">
      <defs>
       <path id="DejaVuSans-77" d="M 269 3500 
L 844 3500 
L 1563 769 
L 2278 3500 
L 2956 3500 
L 3675 769 
L 4391 3500 
L 4966 3500 
L 4050 0 
L 3372 0 
L 2619 2869 
L 1863 0 
L 1184 0 
L 269 3500 
z
" transform="scale(0.015625)"/>
      </defs>
      <use xlink:href="#DejaVuSans-77"/>
     </g>
    </g>
   </g>
   <g id="matplotlib.axis_2">
    <g id="ytick_1">
     <g id="line2d_21">
      <path d="M 56.50625 276.79536 
L 413.62625 276.79536 
" clip-path="url(#p90e5017551)" style="fill: none; stroke: #cccccc; stroke-width: 0.5; stroke-linecap: square"/>
     </g>
     <g id="line2d_22">
      <defs>
       <path id="m3dce58c78e" d="M 0 0 
L -3.5 0 
" style="stroke: #000000; stroke-width: 0.8"/>
      </defs>
      <g>
       <use xlink:href="#m3dce58c78e" x="56.50625" y="276.79536" style="stroke: #000000; stroke-width: 0.8"/>
      </g>
     </g>
     <g id="text_12">
      <!-- 0.000 -->
      <g transform="translate(20.878125 280.594579) scale(0.1 -0.1)">
       <defs>
        <path id="DejaVuSans-2e" d="M 684 794 
L 1344 794 
L 1344 0 
L 684 0 
L 684 794 
z
" transform="scale(0.015625)"/>
       </defs>
       <use xlink:href="#DejaVuSans-30"/>
       <use xlink:href="#DejaVuSans-2e" transform="translate(63.623047 0)"/>
       <use xlink:href="#DejaVuSans-30" transform="translate(95.410156 0)"/>
       <use xlink:href="#DejaVuSans-30" transform="translate(159.033203 0)"/>
       <use xlink:href="#DejaVuSans-30" transform="translate(222.65625 0)"/>
      </g>
     </g>
    </g>
    <g id="ytick_2">
     <g id="line2d_23">
      <path d="M 56.50625 245.488066 
L 413.62625 245.488066 
" clip-path="url(#p90e5017551)" style="fill: none; stroke: #cccccc; stroke-width: 0.5; stroke-linecap: square"/>
     </g>
     <g id="line2d_24">
      <g>
       <use xlink:href="#m3dce58c78e" x="56.50625" y="245.488066" style="stroke: #000000; stroke-width: 0.8"/>
      </g>
     </g>
     <g id="text_13">
      <!-- 0.100 -->
      <g transform="translate(20.878125 249.287285) scale(0.1 -0.1)">
       <use xlink:href="#DejaVuSans-30"/>
       <use xlink:href="#DejaVuSans-2e" transform="translate(63.623047 0)"/>
       <use xlink:href="#DejaVuSans-31" transform="translate(95.410156 0)"/>
       <use xlink:href="#DejaVuSans-30" transform="translate(159.033203 0)"/>
       <use xlink:href="#DejaVuSans-30" transform="translate(222.65625 0)"/>
      </g>
     </g>
    </g>
    <g id="ytick_3">
     <g id="line2d_25">
      <path d="M 56.50625 214.180772 
L 413.62625 214.180772 
" clip-path="url(#p90e5017551)" style="fill: none; stroke: #cccccc; stroke-width: 0.5; stroke-linecap: square"/>
     </g>
     <g id="line2d_26">
      <g>
       <use xlink:href="#m3dce58c78e" x="56.50625" y="214.180772" style="stroke: #000000; stroke-width: 0.8"/>
      </g>
     </g>
     <g id="text_14">
      <!-- 0.200 -->
      <g transform="translate(20.878125 217.979991) scale(0.1 -0.1)">
       <use xlink:href="#DejaVuSans-30"/>
       <use xlink:href="#DejaVuSans-2e" transform="translate(63.623047 0)"/>
       <use xlink:href="#DejaVuSans-32" transform="translate(95.410156 0)"/>
       <use xlink:href="#DejaVuSans-30" transform="translate(159.033203 0)"/>
       <use xlink:href="#DejaVuSans-30" transform="translate(222.65625 0)"/>
      </g>
     </g>
    </g>
    <g id="ytick_4">
     <g id="line2d_27">
      <path d="M 56.50625 182.873478 
L 413.62625 182.873478 
" clip-path="url(#p90e5017551)" style="fill: none; stroke: #cccccc; stroke-width: 0.5; stroke-linecap: square"/>
     </g>
     <g id="line2d_28">
      <g>
       <use xlink:href="#m3dce58c78e" x="56.50625" y="182.873478" style="stroke: #000000; stroke-width: 0.8"/>
      </g>
     </g>
     <g id="text_15">
      <!-- 0.300 -->
      <g transform="translate(20.878125 186.672696) scale(0.1 -0.1)">
       <defs>
        <path id="DejaVuSans-33" d="M 2597 2516 
Q 3050 2419 3304 2112 
Q 3559 1806 3559 1356 
Q 3559 666 3084 287 
Q 2609 -91 1734 -91 
Q 1441 -91 1130 -33 
Q 819 25 488 141 
L 488 750 
Q 750 597 1062 519 
Q 1375 441 1716 441 
Q 2309 441 2620 675 
Q 2931 909 2931 1356 
Q 2931 1769 2642 2001 
Q 2353 2234 1838 2234 
L 1294 2234 
L 1294 2753 
L 1863 2753 
Q 2328 2753 2575 2939 
Q 2822 3125 2822 3475 
Q 2822 3834 2567 4026 
Q 2313 4219 1838 4219 
Q 1578 4219 1281 4162 
Q 984 4106 628 3988 
L 628 4550 
Q 988 4650 1302 4700 
Q 1616 4750 1894 4750 
Q 2613 4750 3031 4423 
Q 3450 4097 3450 3541 
Q 3450 3153 3228 2886 
Q 3006 2619 2597 2516 
z
" transform="scale(0.015625)"/>
       </defs>
       <use xlink:href="#DejaVuSans-30"/>
       <use xlink:href="#DejaVuSans-2e" transform="translate(63.623047 0)"/>
       <use xlink:href="#DejaVuSans-33" transform="translate(95.410156 0)"/>
       <use xlink:href="#DejaVuSans-30" transform="translate(159.033203 0)"/>
       <use xlink:href="#DejaVuSans-30" transform="translate(222.65625 0)"/>
      </g>
     </g>
    </g>
    <g id="ytick_5">
     <g id="line2d_29">
      <path d="M 56.50625 151.566184 
L 413.62625 151.566184 
" clip-path="url(#p90e5017551)" style="fill: none; stroke: #cccccc; stroke-width: 0.5; stroke-linecap: square"/>
     </g>
     <g id="line2d_30">
      <g>
       <use xlink:href="#m3dce58c78e" x="56.50625" y="151.566184" style="stroke: #000000; stroke-width: 0.8"/>
      </g>
     </g>
     <g id="text_16">
      <!-- 0.400 -->
      <g transform="translate(20.878125 155.365402) scale(0.1 -0.1)">
       <use xlink:href="#DejaVuSans-30"/>
       <use xlink:href="#DejaVuSans-2e" transform="translate(63.623047 0)"/>
       <use xlink:href="#DejaVuSans-34" transform="translate(95.410156 0)"/>
       <use xlink:href="#DejaVuSans-30" transform="translate(159.033203 0)"/>
       <use xlink:href="#DejaVuSans-30" transform="translate(222.65625 0)"/>
      </g>
     </g>
    </g>
    <g id="ytick_6">
     <g id="line2d_31">
      <path d="M 56.50625 120.258889 
L 413.62625 120.258889 
" clip-path="url(#p90e5017551)" style="fill: none; stroke: #cccccc; stroke-width: 0.5; stroke-linecap: square"/>
     </g>
     <g id="line2d_32">
      <g>
       <use xlink:href="#m3dce58c78e" x="56.50625" y="120.258889" style="stroke: #000000; stroke-width: 0.8"/>
      </g>
     </g>
     <g id="text_17">
      <!-- 0.500 -->
      <g transform="translate(20.878125 124.058108) scale(0.1 -0.1)">
       <defs>
        <path id="DejaVuSans-35" d="M 691 4666 
L 3169 4666 
L 3169 4134 
L 1269 4134 
L 1269 2991 
Q 1406 3038 1543 3061 
Q 1681 3084 1819 3084 
Q 2600 3084 3056 2656 
Q 3513 2228 3513 1497 
Q 3513 744 3044 326 
Q 2575 -91 1722 -91 
Q 1428 -91 1123 -41 
Q 819 9 494 109 
L 494 744 
Q 775 591 1075 516 
Q 1375 441 1709 441 
Q 2250 441 2565 725 
Q 2881 1009 2881 1497 
Q 2881 1984 2565 2268 
Q 2250 2553 1709 2553 
Q 1456 2553 1204 2497 
Q 953 2441 691 2322 
L 691 4666 
z
" transform="scale(0.015625)"/>
       </defs>
       <use xlink:href="#DejaVuSans-30"/>
       <use xlink:href="#DejaVuSans-2e" transform="translate(63.623047 0)"/>
       <use xlink:href="#DejaVuSans-35" transform="translate(95.410156 0)"/>
       <use xlink:href="#DejaVuSans-30" transform="translate(159.033203 0)"/>
       <use xlink:href="#DejaVuSans-30" transform="translate(222.65625 0)"/>
      </g>
     </g>
    </g>
    <g id="ytick_7">
     <g id="line2d_33">
      <path d="M 56.50625 88.951595 
L 413.62625 88.951595 
" clip-path="url(#p90e5017551)" style="fill: none; stroke: #cccccc; stroke-width: 0.5; stroke-linecap: square"/>
     </g>
     <g id="line2d_34">
      <g>
       <use xlink:href="#m3dce58c78e" x="56.50625" y="88.951595" style="stroke: #000000; stroke-width: 0.8"/>
      </g>
     </g>
     <g id="text_18">
      <!-- 0.600 -->
      <g transform="translate(20.878125 92.750814) scale(0.1 -0.1)">
       <use xlink:href="#DejaVuSans-30"/>
       <use xlink:href="#DejaVuSans-2e" transform="translate(63.623047 0)"/>
       <use xlink:href="#DejaVuSans-36" transform="translate(95.410156 0)"/>
       <use xlink:href="#DejaVuSans-30" transform="translate(159.033203 0)"/>
       <use xlink:href="#DejaVuSans-30" transform="translate(222.65625 0)"/>
      </g>
     </g>
    </g>
    <g id="ytick_8">
     <g id="line2d_35">
      <path d="M 56.50625 57.644301 
L 413.62625 57.644301 
" clip-path="url(#p90e5017551)" style="fill: none; stroke: #cccccc; stroke-width: 0.5; stroke-linecap: square"/>
     </g>
     <g id="line2d_36">
      <g>
       <use xlink:href="#m3dce58c78e" x="56.50625" y="57.644301" style="stroke: #000000; stroke-width: 0.8"/>
      </g>
     </g>
     <g id="text_19">
      <!-- 0.700 -->
      <g transform="translate(20.878125 61.44352) scale(0.1 -0.1)">
       <defs>
        <path id="DejaVuSans-37" d="M 525 4666 
L 3525 4666 
L 3525 4397 
L 1831 0 
L 1172 0 
L 2766 4134 
L 525 4134 
L 525 4666 
z
" transform="scale(0.015625)"/>
       </defs>
       <use xlink:href="#DejaVuSans-30"/>
       <use xlink:href="#DejaVuSans-2e" transform="translate(63.623047 0)"/>
       <use xlink:href="#DejaVuSans-37" transform="translate(95.410156 0)"/>
       <use xlink:href="#DejaVuSans-30" transform="translate(159.033203 0)"/>
       <use xlink:href="#DejaVuSans-30" transform="translate(222.65625 0)"/>
      </g>
     </g>
    </g>
    <g id="ytick_9">
     <g id="line2d_37">
      <path d="M 56.50625 26.337007 
L 413.62625 26.337007 
" clip-path="url(#p90e5017551)" style="fill: none; stroke: #cccccc; stroke-width: 0.5; stroke-linecap: square"/>
     </g>
     <g id="line2d_38">
      <g>
       <use xlink:href="#m3dce58c78e" x="56.50625" y="26.337007" style="stroke: #000000; stroke-width: 0.8"/>
      </g>
     </g>
     <g id="text_20">
      <!-- 0.800 -->
      <g transform="translate(20.878125 30.136226) scale(0.1 -0.1)">
       <use xlink:href="#DejaVuSans-30"/>
       <use xlink:href="#DejaVuSans-2e" transform="translate(63.623047 0)"/>
       <use xlink:href="#DejaVuSans-38" transform="translate(95.410156 0)"/>
       <use xlink:href="#DejaVuSans-30" transform="translate(159.033203 0)"/>
       <use xlink:href="#DejaVuSans-30" transform="translate(222.65625 0)"/>
      </g>
     </g>
    </g>
    <g id="text_21">
     <!-- Density -->
     <g transform="translate(14.798437 162.747954) rotate(-90) scale(0.1 -0.1)">
      <defs>
       <path id="DejaVuSans-44" d="M 1259 4147 
L 1259 519 
L 2022 519 
Q 2988 519 3436 956 
Q 3884 1394 3884 2338 
Q 3884 3275 3436 3711 
Q 2988 4147 2022 4147 
L 1259 4147 
z
M 628 4666 
L 1925 4666 
Q 3281 4666 3915 4102 
Q 4550 3538 4550 2338 
Q 4550 1131 3912 565 
Q 3275 0 1925 0 
L 628 0 
L 628 4666 
z
" transform="scale(0.015625)"/>
       <path id="DejaVuSans-65" d="M 3597 1894 
L 3597 1613 
L 953 1613 
Q 991 1019 1311 708 
Q 1631 397 2203 397 
Q 2534 397 2845 478 
Q 3156 559 3463 722 
L 3463 178 
Q 3153 47 2828 -22 
Q 2503 -91 2169 -91 
Q 1331 -91 842 396 
Q 353 884 353 1716 
Q 353 2575 817 3079 
Q 1281 3584 2069 3584 
Q 2775 3584 3186 3129 
Q 3597 2675 3597 1894 
z
M 3022 2063 
Q 3016 2534 2758 2815 
Q 2500 3097 2075 3097 
Q 1594 3097 1305 2825 
Q 1016 2553 972 2059 
L 3022 2063 
z
" transform="scale(0.015625)"/>
       <path id="DejaVuSans-6e" d="M 3513 2113 
L 3513 0 
L 2938 0 
L 2938 2094 
Q 2938 2591 2744 2837 
Q 2550 3084 2163 3084 
Q 1697 3084 1428 2787 
Q 1159 2491 1159 1978 
L 1159 0 
L 581 0 
L 581 3500 
L 1159 3500 
L 1159 2956 
Q 1366 3272 1645 3428 
Q 1925 3584 2291 3584 
Q 2894 3584 3203 3211 
Q 3513 2838 3513 2113 
z
" transform="scale(0.015625)"/>
       <path id="DejaVuSans-73" d="M 2834 3397 
L 2834 2853 
Q 2591 2978 2328 3040 
Q 2066 3103 1784 3103 
Q 1356 3103 1142 2972 
Q 928 2841 928 2578 
Q 928 2378 1081 2264 
Q 1234 2150 1697 2047 
L 1894 2003 
Q 2506 1872 2764 1633 
Q 3022 1394 3022 966 
Q 3022 478 2636 193 
Q 2250 -91 1575 -91 
Q 1294 -91 989 -36 
Q 684 19 347 128 
L 347 722 
Q 666 556 975 473 
Q 1284 391 1588 391 
Q 1994 391 2212 530 
Q 2431 669 2431 922 
Q 2431 1156 2273 1281 
Q 2116 1406 1581 1522 
L 1381 1569 
Q 847 1681 609 1914 
Q 372 2147 372 2553 
Q 372 3047 722 3315 
Q 1072 3584 1716 3584 
Q 2034 3584 2315 3537 
Q 2597 3491 2834 3397 
z
" transform="scale(0.015625)"/>
       <path id="DejaVuSans-69" d="M 603 3500 
L 1178 3500 
L 1178 0 
L 603 0 
L 603 3500 
z
M 603 4863 
L 1178 4863 
L 1178 4134 
L 603 4134 
L 603 4863 
z
" transform="scale(0.015625)"/>
       <path id="DejaVuSans-74" d="M 1172 4494 
L 1172 3500 
L 2356 3500 
L 2356 3053 
L 1172 3053 
L 1172 1153 
Q 1172 725 1289 603 
Q 1406 481 1766 481 
L 2356 481 
L 2356 0 
L 1766 0 
Q 1100 0 847 248 
Q 594 497 594 1153 
L 594 3053 
L 172 3053 
L 172 3500 
L 594 3500 
L 594 4494 
L 1172 4494 
z
" transform="scale(0.015625)"/>
       <path id="DejaVuSans-79" d="M 2059 -325 
Q 1816 -950 1584 -1140 
Q 1353 -1331 966 -1331 
L 506 -1331 
L 506 -850 
L 844 -850 
Q 1081 -850 1212 -737 
Q 1344 -625 1503 -206 
L 1606 56 
L 191 3500 
L 800 3500 
L 1894 763 
L 2988 3500 
L 3597 3500 
L 2059 -325 
z
" transform="scale(0.015625)"/>
      </defs>
      <use xlink:href="#DejaVuSans-44"/>
      <use xlink:href="#DejaVuSans-65" transform="translate(77.001953 0)"/>
      <use xlink:href="#DejaVuSans-6e" transform="translate(138.525391 0)"/>
      <use xlink:href="#DejaVuSans-73" transform="translate(201.904297 0)"/>
      <use xlink:href="#DejaVuSans-69" transform="translate(254.003906 0)"/>
      <use xlink:href="#DejaVuSans-74" transform="translate(281.787109 0)"/>
      <use xlink:href="#DejaVuSans-79" transform="translate(320.996094 0)"/>
     </g>
    </g>
   </g>
   <g id="line2d_39">
    <path d="M 72.738977 61.564235 
L 90.775341 117.829318 
L 108.811705 142.847907 
L 126.848068 163.177168 
L 144.884432 174.620354 
L 162.920795 183.996947 
L 180.957159 191.016727 
L 198.993523 196.810576 
L 217.029886 201.583056 
L 235.06625 205.682492 
L 253.102614 209.277819 
L 271.138977 212.460484 
L 289.175341 215.291819 
L 307.211705 217.842359 
L 325.248068 220.21307 
L 343.284432 222.370047 
L 361.320795 224.307622 
L 379.357159 226.083463 
L 397.393523 227.740807 
" clip-path="url(#p90e5017551)" style="fill: none"/>
    <defs>
     <path id="mfc677e6005" d="M 0 1 
C 0.265203 1 0.51958 0.894634 0.707107 0.707107 
C 0.894634 0.51958 1 0.265203 1 0 
C 1 -0.265203 0.894634 -0.51958 0.707107 -0.707107 
C 0.51958 -0.894634 0.265203 -1 0 -1 
C -0.265203 -1 -0.51958 -0.894634 -0.707107 -0.707107 
C -0.894634 -0.51958 -1 -0.265203 -1 0 
C -1 0.265203 -0.894634 0.51958 -0.707107 0.707107 
C -0.51958 0.894634 -0.265203 1 0 1 
z
" style="stroke: #00ff00"/>
    </defs>
    <g clip-path="url(#p90e5017551)">
     <use xlink:href="#mfc677e6005" x="72.738977" y="61.564235" style="fill: #00ff00; stroke: #00ff00"/>
     <use xlink:href="#mfc677e6005" x="90.775341" y="117.829318" style="fill: #00ff00; stroke: #00ff00"/>
     <use xlink:href="#mfc677e6005" x="108.811705" y="142.847907" style="fill: #00ff00; stroke: #00ff00"/>
     <use xlink:href="#mfc677e6005" x="126.848068" y="163.177168" style="fill: #00ff00; stroke: #00ff00"/>
     <use xlink:href="#mfc677e6005" x="144.884432" y="174.620354" style="fill: #00ff00; stroke: #00ff00"/>
     <use xlink:href="#mfc677e6005" x="162.920795" y="183.996947" style="fill: #00ff00; stroke: #00ff00"/>
     <use xlink:href="#mfc677e6005" x="180.957159" y="191.016727" style="fill: #00ff00; stroke: #00ff00"/>
     <use xlink:href="#mfc677e6005" x="198.993523" y="196.810576" style="fill: #00ff00; stroke: #00ff00"/>
     <use xlink:href="#mfc677e6005" x="217.029886" y="201.583056" style="fill: #00ff00; stroke: #00ff00"/>
     <use xlink:href="#mfc677e6005" x="235.06625" y="205.682492" style="fill: #00ff00; stroke: #00ff00"/>
     <use xlink:href="#mfc677e6005" x="253.102614" y="209.277819" style="fill: #00ff00; stroke: #00ff00"/>
     <use xlink:href="#mfc677e6005" x="271.138977" y="212.460484" style="fill: #00ff00; stroke: #00ff00"/>
     <use xlink:href="#mfc677e6005" x="289.175341" y="215.291819" style="fill: #00ff00; stroke: #00ff00"/>
     <use xlink:href="#mfc677e6005" x="307.211705" y="217.842359" style="fill: #00ff00; stroke: #00ff00"/>
     <use xlink:href="#mfc677e6005" x="325.248068" y="220.21307" style="fill: #00ff00; stroke: #00ff00"/>
     <use xlink:href="#mfc677e6005" x="343.284432" y="222.370047" style="fill: #00ff00; stroke: #00ff00"/>
     <use xlink:href="#mfc677e6005" x="361.320795" y="224.307622" style="fill: #00ff00; stroke: #00ff00"/>
     <use xlink:href="#mfc677e6005" x="379.357159" y="226.083463" style="fill: #00ff00; stroke: #00ff00"/>
     <use xlink:href="#mfc677e6005" x="397.393523" y="227.740807" style="fill: #00ff00; stroke: #00ff00"/>
    </g>
   </g>
   <g id="line2d_40">
    <path d="M 72.738977 61.564235 
L 90.775341 117.829318 
L 108.811705 142.847907 
L 126.848068 163.177168 
L 144.884432 174.620354 
L 162.920795 183.996947 
L 180.957159 191.016727 
L 198.993523 196.810576 
L 217.029886 201.583056 
L 235.06625 205.682492 
L 253.102614 209.277819 
L 271.138977 212.460484 
L 289.175341 215.291819 
L 307.211705 217.842359 
L 325.248068 220.21307 
L 343.284432 222.370047 
L 361.320795 224.307622 
L 379.357159 226.083463 
L 397.393523 227.740807 
" clip-path="url(#p90e5017551)" style="fill: none; stroke: #00ff00; stroke-linecap: square"/>
   </g>
   <g id="line2d_41"/>
   <g id="line2d_42">
    <path d="M 79.58459 -1 
L 90.775341 56.669379 
L 108.811705 108.929575 
L 126.848068 142.675672 
L 144.884432 163.535219 
L 162.920795 178.947703 
L 180.957159 190.127912 
L 198.993523 199.020372 
L 217.029886 206.000613 
L 235.06625 211.704206 
L 253.102614 216.49948 
L 271.138977 220.502993 
L 289.175341 223.9838 
L 307.211705 226.976525 
L 325.248068 229.6306 
L 343.284432 231.985847 
L 361.320795 234.064807 
L 379.357159 235.871362 
L 397.393523 237.586938 
" clip-path="url(#p90e5017551)" style="fill: none"/>
    <defs>
     <path id="m130b5948a8" d="M 0 1 
C 0.265203 1 0.51958 0.894634 0.707107 0.707107 
C 0.894634 0.51958 1 0.265203 1 0 
C 1 -0.265203 0.894634 -0.51958 0.707107 -0.707107 
C 0.51958 -0.894634 0.265203 -1 0 -1 
C -0.265203 -1 -0.51958 -0.894634 -0.707107 -0.707107 
C -0.894634 -0.51958 -1 -0.265203 -1 0 
C -1 0.265203 -0.894634 0.51958 -0.707107 0.707107 
C -0.51958 0.894634 -0.265203 1 0 1 
z
" style="stroke: #00dd00"/>
    </defs>
    <g clip-path="url(#p90e5017551)">
     <use xlink:href="#m130b5948a8" x="79.58459" y="-1" style="fill: #00dd00; stroke: #00dd00"/>
     <use xlink:href="#m130b5948a8" x="90.775341" y="56.669379" style="fill: #00dd00; stroke: #00dd00"/>
     <use xlink:href="#m130b5948a8" x="108.811705" y="108.929575" style="fill: #00dd00; stroke: #00dd00"/>
     <use xlink:href="#m130b5948a8" x="126.848068" y="142.675672" style="fill: #00dd00; stroke: #00dd00"/>
     <use xlink:href="#m130b5948a8" x="144.884432" y="163.535219" style="fill: #00dd00; stroke: #00dd00"/>
     <use xlink:href="#m130b5948a8" x="162.920795" y="178.947703" style="fill: #00dd00; stroke: #00dd00"/>
     <use xlink:href="#m130b5948a8" x="180.957159" y="190.127912" style="fill: #00dd00; stroke: #00dd00"/>
     <use xlink:href="#m130b5948a8" x="198.993523" y="199.020372" style="fill: #00dd00; stroke: #00dd00"/>
     <use xlink:href="#m130b5948a8" x="217.029886" y="206.000613" style="fill: #00dd00; stroke: #00dd00"/>
     <use xlink:href="#m130b5948a8" x="235.06625" y="211.704206" style="fill: #00dd00; stroke: #00dd00"/>
     <use xlink:href="#m130b5948a8" x="253.102614" y="216.49948" style="fill: #00dd00; stroke: #00dd00"/>
     <use xlink:href="#m130b5948a8" x="271.138977" y="220.502993" style="fill: #00dd00; stroke: #00dd00"/>
     <use xlink:href="#m130b5948a8" x="289.175341" y="223.9838" style="fill: #00dd00; stroke: #00dd00"/>
     <use xlink:href="#m130b5948a8" x="307.211705" y="226.976525" style="fill: #00dd00; stroke: #00dd00"/>
     <use xlink:href="#m130b5948a8" x="325.248068" y="229.6306" style="fill: #00dd00; stroke: #00dd00"/>
     <use xlink:href="#m130b5948a8" x="343.284432" y="231.985847" style="fill: #00dd00; stroke: #00dd00"/>
     <use xlink:href="#m130b5948a8" x="361.320795" y="234.064807" style="fill: #00dd00; stroke: #00dd00"/>
     <use xlink:href="#m130b5948a8" x="379.357159" y="235.871362" style="fill: #00dd00; stroke: #00dd00"/>
     <use xlink:href="#m130b5948a8" x="397.393523" y="237.586938" style="fill: #00dd00; stroke: #00dd00"/>
    </g>
   </g>
   <g id="line2d_43">
    <path d="M 79.58459 -1 
L 90.775341 56.669379 
L 108.811705 108.929575 
L 126.848068 142.675672 
L 144.884432 163.535219 
L 162.920795 178.947703 
L 180.957159 190.127912 
L 198.993523 199.020372 
L 217.029886 206.000613 
L 235.06625 211.704206 
L 253.102614 216.49948 
L 271.138977 220.502993 
L 289.175341 223.9838 
L 307.211705 226.976525 
L 325.248068 229.6306 
L 343.284432 231.985847 
L 361.320795 234.064807 
L 379.357159 235.871362 
L 397.393523 237.586938 
" clip-path="url(#p90e5017551)" style="fill: none; stroke: #00dd00; stroke-linecap: square"/>
   </g>
   <g id="line2d_44"/>
   <g id="line2d_45">
    <path d="M 97.712652 -1 
L 108.811705 55.440796 
L 126.848068 109.381416 
L 144.884432 140.875489 
L 162.920795 163.805984 
L 180.957159 179.437434 
L 198.993523 191.455803 
L 217.029886 200.679057 
L 235.06625 208.098792 
L 253.102614 214.096831 
L 271.138977 219.132515 
L 289.175341 223.344629 
L 307.211705 226.969919 
L 325.248068 230.126039 
L 343.284432 232.886904 
L 361.320795 235.310683 
L 379.357159 237.478149 
L 397.393523 239.402201 
" clip-path="url(#p90e5017551)" style="fill: none"/>
    <defs>
     <path id="m70eec8c58f" d="M 0 1 
C 0.265203 1 0.51958 0.894634 0.707107 0.707107 
C 0.894634 0.51958 1 0.265203 1 0 
C 1 -0.265203 0.894634 -0.51958 0.707107 -0.707107 
C 0.51958 -0.894634 0.265203 -1 0 -1 
C -0.265203 -1 -0.51958 -0.894634 -0.707107 -0.707107 
C -0.894634 -0.51958 -1 -0.265203 -1 0 
C -1 0.265203 -0.894634 0.51958 -0.707107 0.707107 
C -0.51958 0.894634 -0.265203 1 0 1 
z
" style="stroke: #00bb00"/>
    </defs>
    <g clip-path="url(#p90e5017551)">
     <use xlink:href="#m70eec8c58f" x="97.712652" y="-1" style="fill: #00bb00; stroke: #00bb00"/>
     <use xlink:href="#m70eec8c58f" x="108.811705" y="55.440796" style="fill: #00bb00; stroke: #00bb00"/>
     <use xlink:href="#m70eec8c58f" x="126.848068" y="109.381416" style="fill: #00bb00; stroke: #00bb00"/>
     <use xlink:href="#m70eec8c58f" x="144.884432" y="140.875489" style="fill: #00bb00; stroke: #00bb00"/>
     <use xlink:href="#m70eec8c58f" x="162.920795" y="163.805984" style="fill: #00bb00; stroke: #00bb00"/>
     <use xlink:href="#m70eec8c58f" x="180.957159" y="179.437434" style="fill: #00bb00; stroke: #00bb00"/>
     <use xlink:href="#m70eec8c58f" x="198.993523" y="191.455803" style="fill: #00bb00; stroke: #00bb00"/>
     <use xlink:href="#m70eec8c58f" x="217.029886" y="200.679057" style="fill: #00bb00; stroke: #00bb00"/>
     <use xlink:href="#m70eec8c58f" x="235.06625" y="208.098792" style="fill: #00bb00; stroke: #00bb00"/>
     <use xlink:href="#m70eec8c58f" x="253.102614" y="214.096831" style="fill: #00bb00; stroke: #00bb00"/>
     <use xlink:href="#m70eec8c58f" x="271.138977" y="219.132515" style="fill: #00bb00; stroke: #00bb00"/>
     <use xlink:href="#m70eec8c58f" x="289.175341" y="223.344629" style="fill: #00bb00; stroke: #00bb00"/>
     <use xlink:href="#m70eec8c58f" x="307.211705" y="226.969919" style="fill: #00bb00; stroke: #00bb00"/>
     <use xlink:href="#m70eec8c58f" x="325.248068" y="230.126039" style="fill: #00bb00; stroke: #00bb00"/>
     <use xlink:href="#m70eec8c58f" x="343.284432" y="232.886904" style="fill: #00bb00; stroke: #00bb00"/>
     <use xlink:href="#m70eec8c58f" x="361.320795" y="235.310683" style="fill: #00bb00; stroke: #00bb00"/>
     <use xlink:href="#m70eec8c58f" x="379.357159" y="237.478149" style="fill: #00bb00; stroke: #00bb00"/>
     <use xlink:href="#m70eec8c58f" x="397.393523" y="239.402201" style="fill: #00bb00; stroke: #00bb00"/>
    </g>
   </g>
   <g id="line2d_46">
    <path d="M 97.712652 -1 
L 108.811705 55.440796 
L 126.848068 109.381416 
L 144.884432 140.875489 
L 162.920795 163.805984 
L 180.957159 179.437434 
L 198.993523 191.455803 
L 217.029886 200.679057 
L 235.06625 208.098792 
L 253.102614 214.096831 
L 271.138977 219.132515 
L 289.175341 223.344629 
L 307.211705 226.969919 
L 325.248068 230.126039 
L 343.284432 232.886904 
L 361.320795 235.310683 
L 379.357159 237.478149 
L 397.393523 239.402201 
" clip-path="url(#p90e5017551)" style="fill: none; stroke: #00bb00; stroke-linecap: square"/>
   </g>
   <g id="line2d_47"/>
   <g id="line2d_48">
    <path d="M 115.772349 -1 
L 126.848068 55.133336 
L 144.884432 108.826884 
L 162.920795 141.178279 
L 180.957159 163.722727 
L 198.993523 179.679837 
L 217.029886 191.735432 
L 235.06625 201.135792 
L 253.102614 208.61617 
L 271.138977 214.69398 
L 289.175341 219.780633 
L 307.211705 224.040836 
L 325.248068 227.720007 
L 343.284432 230.90374 
L 361.320795 233.688148 
L 379.357159 236.151594 
L 397.393523 238.329016 
" clip-path="url(#p90e5017551)" style="fill: none"/>
    <defs>
     <path id="m791aa02aff" d="M 0 1 
C 0.265203 1 0.51958 0.894634 0.707107 0.707107 
C 0.894634 0.51958 1 0.265203 1 0 
C 1 -0.265203 0.894634 -0.51958 0.707107 -0.707107 
C 0.51958 -0.894634 0.265203 -1 0 -1 
C -0.265203 -1 -0.51958 -0.894634 -0.707107 -0.707107 
C -0.894634 -0.51958 -1 -0.265203 -1 0 
C -1 0.265203 -0.894634 0.51958 -0.707107 0.707107 
C -0.51958 0.894634 -0.265203 1 0 1 
z
" style="stroke: #009900"/>
    </defs>
    <g clip-path="url(#p90e5017551)">
     <use xlink:href="#m791aa02aff" x="115.772349" y="-1" style="fill: #009900; stroke: #009900"/>
     <use xlink:href="#m791aa02aff" x="126.848068" y="55.133336" style="fill: #009900; stroke: #009900"/>
     <use xlink:href="#m791aa02aff" x="144.884432" y="108.826884" style="fill: #009900; stroke: #009900"/>
     <use xlink:href="#m791aa02aff" x="162.920795" y="141.178279" style="fill: #009900; stroke: #009900"/>
     <use xlink:href="#m791aa02aff" x="180.957159" y="163.722727" style="fill: #009900; stroke: #009900"/>
     <use xlink:href="#m791aa02aff" x="198.993523" y="179.679837" style="fill: #009900; stroke: #009900"/>
     <use xlink:href="#m791aa02aff" x="217.029886" y="191.735432" style="fill: #009900; stroke: #009900"/>
     <use xlink:href="#m791aa02aff" x="235.06625" y="201.135792" style="fill: #009900; stroke: #009900"/>
     <use xlink:href="#m791aa02aff" x="253.102614" y="208.61617" style="fill: #009900; stroke: #009900"/>
     <use xlink:href="#m791aa02aff" x="271.138977" y="214.69398" style="fill: #009900; stroke: #009900"/>
     <use xlink:href="#m791aa02aff" x="289.175341" y="219.780633" style="fill: #009900; stroke: #009900"/>
     <use xlink:href="#m791aa02aff" x="307.211705" y="224.040836" style="fill: #009900; stroke: #009900"/>
     <use xlink:href="#m791aa02aff" x="325.248068" y="227.720007" style="fill: #009900; stroke: #009900"/>
     <use xlink:href="#m791aa02aff" x="343.284432" y="230.90374" style="fill: #009900; stroke: #009900"/>
     <use xlink:href="#m791aa02aff" x="361.320795" y="233.688148" style="fill: #009900; stroke: #009900"/>
     <use xlink:href="#m791aa02aff" x="379.357159" y="236.151594" style="fill: #009900; stroke: #009900"/>
     <use xlink:href="#m791aa02aff" x="397.393523" y="238.329016" style="fill: #009900; stroke: #009900"/>
    </g>
   </g>
   <g id="line2d_49">
    <path d="M 115.772349 -1 
L 126.848068 55.133336 
L 144.884432 108.826884 
L 162.920795 141.178279 
L 180.957159 163.722727 
L 198.993523 179.679837 
L 217.029886 191.735432 
L 235.06625 201.135792 
L 253.102614 208.61617 
L 271.138977 214.69398 
L 289.175341 219.780633 
L 307.211705 224.040836 
L 325.248068 227.720007 
L 343.284432 230.90374 
L 361.320795 233.688148 
L 379.357159 236.151594 
L 397.393523 238.329016 
" clip-path="url(#p90e5017551)" style="fill: none; stroke: #009900; stroke-linecap: square"/>
   </g>
   <g id="line2d_50"/>
   <g id="line2d_51">
    <path d="M 72.738977 61.564235 
L 90.775341 110.466498 
L 108.811705 141.621193 
L 126.848068 162.423946 
L 144.884432 177.656568 
L 162.920795 189.173423 
L 180.957159 198.315057 
L 198.993523 205.677591 
L 217.029886 211.77384 
L 235.06625 216.917376 
L 253.102614 221.29736 
L 271.138977 225.09246 
L 289.175341 228.411158 
L 307.211705 231.343148 
L 325.248068 233.963849 
L 343.284432 236.290075 
L 361.320795 238.387506 
L 379.357159 240.276431 
L 397.393523 241.998896 
" clip-path="url(#p90e5017551)" style="fill: none"/>
    <defs>
     <path id="m4449567384" d="M 0 1 
C 0.265203 1 0.51958 0.894634 0.707107 0.707107 
C 0.894634 0.51958 1 0.265203 1 0 
C 1 -0.265203 0.894634 -0.51958 0.707107 -0.707107 
C 0.51958 -0.894634 0.265203 -1 0 -1 
C -0.265203 -1 -0.51958 -0.894634 -0.707107 -0.707107 
C -0.894634 -0.51958 -1 -0.265203 -1 0 
C -1 0.265203 -0.894634 0.51958 -0.707107 0.707107 
C -0.51958 0.894634 -0.265203 1 0 1 
z
" style="stroke: #a00080"/>
    </defs>
    <g clip-path="url(#p90e5017551)">
     <use xlink:href="#m4449567384" x="72.738977" y="61.564235" style="fill: #a00080; stroke: #a00080"/>
     <use xlink:href="#m4449567384" x="90.775341" y="110.466498" style="fill: #a00080; stroke: #a00080"/>
     <use xlink:href="#m4449567384" x="108.811705" y="141.621193" style="fill: #a00080; stroke: #a00080"/>
     <use xlink:href="#m4449567384" x="126.848068" y="162.423946" style="fill: #a00080; stroke: #a00080"/>
     <use xlink:href="#m4449567384" x="144.884432" y="177.656568" style="fill: #a00080; stroke: #a00080"/>
     <use xlink:href="#m4449567384" x="162.920795" y="189.173423" style="fill: #a00080; stroke: #a00080"/>
     <use xlink:href="#m4449567384" x="180.957159" y="198.315057" style="fill: #a00080; stroke: #a00080"/>
     <use xlink:href="#m4449567384" x="198.993523" y="205.677591" style="fill: #a00080; stroke: #a00080"/>
     <use xlink:href="#m4449567384" x="217.029886" y="211.77384" style="fill: #a00080; stroke: #a00080"/>
     <use xlink:href="#m4449567384" x="235.06625" y="216.917376" style="fill: #a00080; stroke: #a00080"/>
     <use xlink:href="#m4449567384" x="253.102614" y="221.29736" style="fill: #a00080; stroke: #a00080"/>
     <use xlink:href="#m4449567384" x="271.138977" y="225.09246" style="fill: #a00080; stroke: #a00080"/>
     <use xlink:href="#m4449567384" x="289.175341" y="228.411158" style="fill: #a00080; stroke: #a00080"/>
     <use xlink:href="#m4449567384" x="307.211705" y="231.343148" style="fill: #a00080; stroke: #a00080"/>
     <use xlink:href="#m4449567384" x="325.248068" y="233.963849" style="fill: #a00080; stroke: #a00080"/>
     <use xlink:href="#m4449567384" x="343.284432" y="236.290075" style="fill: #a00080; stroke: #a00080"/>
     <use xlink:href="#m4449567384" x="361.320795" y="238.387506" style="fill: #a00080; stroke: #a00080"/>
     <use xlink:href="#m4449567384" x="379.357159" y="240.276431" style="fill: #a00080; stroke: #a00080"/>
     <use xlink:href="#m4449567384" x="397.393523" y="241.998896" style="fill: #a00080; stroke: #a00080"/>
    </g>
   </g>
   <g id="line2d_52">
    <path d="M 72.738977 61.564235 
L 90.775341 110.466498 
L 108.811705 141.621193 
L 126.848068 162.423946 
L 144.884432 177.656568 
L 162.920795 189.173423 
L 180.957159 198.315057 
L 198.993523 205.677591 
L 217.029886 211.77384 
L 235.06625 216.917376 
L 253.102614 221.29736 
L 271.138977 225.09246 
L 289.175341 228.411158 
L 307.211705 231.343148 
L 325.248068 233.963849 
L 343.284432 236.290075 
L 361.320795 238.387506 
L 379.357159 240.276431 
L 397.393523 241.998896 
" clip-path="url(#p90e5017551)" style="fill: none; stroke: #a00080; stroke-linecap: square"/>
   </g>
   <g id="line2d_53"/>
   <g id="line2d_54">
    <path d="M 72.738977 61.564235 
L 90.775341 117.815135 
L 108.811705 150.823599 
L 126.848068 172.088887 
L 144.884432 187.20464 
L 162.920795 198.359678 
L 180.957159 207.102645 
L 198.993523 214.047133 
L 217.029886 219.737765 
L 235.06625 224.477814 
L 253.102614 228.476255 
L 271.138977 231.922812 
L 289.175341 234.893936 
L 307.211705 237.511194 
L 325.248068 239.811153 
L 343.284432 241.843872 
L 361.320795 243.665643 
L 379.357159 245.311655 
L 397.393523 246.810304 
" clip-path="url(#p90e5017551)" style="fill: none"/>
    <defs>
     <path id="mb3c0869d2b" d="M 0 1.75 
C 0.464105 1.75 0.909265 1.565609 1.237437 1.237437 
C 1.565609 0.909265 1.75 0.464105 1.75 0 
C 1.75 -0.464105 1.565609 -0.909265 1.237437 -1.237437 
C 0.909265 -1.565609 0.464105 -1.75 0 -1.75 
C -0.464105 -1.75 -0.909265 -1.565609 -1.237437 -1.237437 
C -1.565609 -0.909265 -1.75 -0.464105 -1.75 0 
C -1.75 0.464105 -1.565609 0.909265 -1.237437 1.237437 
C -0.909265 1.565609 -0.464105 1.75 0 1.75 
z
" style="stroke: #0000ff"/>
    </defs>
    <g clip-path="url(#p90e5017551)">
     <use xlink:href="#mb3c0869d2b" x="72.738977" y="61.564235" style="fill: #0000ff; stroke: #0000ff"/>
     <use xlink:href="#mb3c0869d2b" x="90.775341" y="117.815135" style="fill: #0000ff; stroke: #0000ff"/>
     <use xlink:href="#mb3c0869d2b" x="108.811705" y="150.823599" style="fill: #0000ff; stroke: #0000ff"/>
     <use xlink:href="#mb3c0869d2b" x="126.848068" y="172.088887" style="fill: #0000ff; stroke: #0000ff"/>
     <use xlink:href="#mb3c0869d2b" x="144.884432" y="187.20464" style="fill: #0000ff; stroke: #0000ff"/>
     <use xlink:href="#mb3c0869d2b" x="162.920795" y="198.359678" style="fill: #0000ff; stroke: #0000ff"/>
     <use xlink:href="#mb3c0869d2b" x="180.957159" y="207.102645" style="fill: #0000ff; stroke: #0000ff"/>
     <use xlink:href="#mb3c0869d2b" x="198.993523" y="214.047133" style="fill: #0000ff; stroke: #0000ff"/>
     <use xlink:href="#mb3c0869d2b" x="217.029886" y="219.737765" style="fill: #0000ff; stroke: #0000ff"/>
     <use xlink:href="#mb3c0869d2b" x="235.06625" y="224.477814" style="fill: #0000ff; stroke: #0000ff"/>
     <use xlink:href="#mb3c0869d2b" x="253.102614" y="228.476255" style="fill: #0000ff; stroke: #0000ff"/>
     <use xlink:href="#mb3c0869d2b" x="271.138977" y="231.922812" style="fill: #0000ff; stroke: #0000ff"/>
     <use xlink:href="#mb3c0869d2b" x="289.175341" y="234.893936" style="fill: #0000ff; stroke: #0000ff"/>
     <use xlink:href="#mb3c0869d2b" x="307.211705" y="237.511194" style="fill: #0000ff; stroke: #0000ff"/>
     <use xlink:href="#mb3c0869d2b" x="325.248068" y="239.811153" style="fill: #0000ff; stroke: #0000ff"/>
     <use xlink:href="#mb3c0869d2b" x="343.284432" y="241.843872" style="fill: #0000ff; stroke: #0000ff"/>
     <use xlink:href="#mb3c0869d2b" x="361.320795" y="243.665643" style="fill: #0000ff; stroke: #0000ff"/>
     <use xlink:href="#mb3c0869d2b" x="379.357159" y="245.311655" style="fill: #0000ff; stroke: #0000ff"/>
     <use xlink:href="#mb3c0869d2b" x="397.393523" y="246.810304" style="fill: #0000ff; stroke: #0000ff"/>
    </g>
   </g>
   <g id="line2d_55">
    <path d="M 72.738977 61.564235 
L 90.775341 117.815135 
L 108.811705 150.823599 
L 126.848068 172.088887 
L 144.884432 187.20464 
L 162.920795 198.359678 
L 180.957159 207.102645 
L 198.993523 214.047133 
L 217.029886 219.737765 
L 235.06625 224.477814 
L 253.102614 228.476255 
L 271.138977 231.922812 
L 289.175341 234.893936 
L 307.211705 237.511194 
L 325.248068 239.811153 
L 343.284432 241.843872 
L 361.320795 243.665643 
L 379.357159 245.311655 
L 397.393523 246.810304 
" clip-path="url(#p90e5017551)" style="fill: none; stroke: #0000ff; stroke-width: 2.5; stroke-linecap: square"/>
   </g>
   <g id="line2d_56"/>
   <g id="line2d_57"/>
   <g id="line2d_58">
    <path d="M 72.738977 61.557713 
L 90.775341 117.813007 
L 108.811705 150.832419 
L 126.848068 172.081022 
L 144.884432 187.291353 
L 162.920795 198.498462 
L 180.957159 207.211918 
L 198.993523 214.178741 
L 217.029886 219.872763 
L 235.06625 224.61584 
L 253.102614 228.630276 
L 271.138977 232.070645 
L 289.175341 235.052277 
L 307.211705 237.66124 
L 325.248068 239.963249 
L 343.284432 242.009477 
L 361.320795 243.840314 
L 379.357159 245.488066 
L 397.393523 246.978889 
" clip-path="url(#p90e5017551)" style="fill: none; stroke: #ff0000; stroke-width: 1.5; stroke-linecap: square"/>
   </g>
   <g id="line2d_59">
    <path d="M 72.738977 120.258889 
L 90.775341 172.437713 
L 108.811705 198.527125 
L 126.848068 214.180772 
L 144.884432 224.616536 
L 162.920795 232.070654 
L 180.957159 237.661242 
L 198.993523 242.009478 
L 217.029886 245.488066 
L 235.06625 248.334184 
L 253.102614 250.705948 
L 271.138977 252.712826 
L 289.175341 254.433007 
L 307.211705 255.923831 
L 325.248068 257.228301 
L 343.284432 258.379305 
L 361.320795 259.402419 
L 379.357159 260.317837 
L 397.393523 261.141713 
" clip-path="url(#p90e5017551)" style="fill: none; stroke: #000000; stroke-width: 1.5; stroke-linecap: square"/>
   </g>
   <g id="patch_3">
    <path d="M 56.50625 276.79536 
L 56.50625 10.68336 
" style="fill: none; stroke: #000000; stroke-width: 0.8; stroke-linejoin: miter; stroke-linecap: square"/>
   </g>
   <g id="patch_4">
    <path d="M 56.50625 276.79536 
L 413.62625 276.79536 
" style="fill: none; stroke: #000000; stroke-width: 0.8; stroke-linejoin: miter; stroke-linecap: square"/>
   </g>
   <g id="legend_1">
    <g id="patch_5">
     <path d="M 62.80625 49.530937 
L 407.32625 49.530937 
Q 409.12625 49.530937 409.12625 47.730937 
L 409.12625 9 
Q 409.12625 7.2 407.32625 7.2 
L 62.80625 7.2 
Q 61.00625 7.2 61.00625 9 
L 61.00625 47.730937 
Q 61.00625 49.530937 62.80625 49.530937 
z
" style="fill: #ffffff; opacity: 0.8; stroke: #cccccc; stroke-linejoin: miter"/>
    </g>
    <g id="line2d_60">
     <path d="M 64.60625 14.488594 
L 73.60625 14.488594 
L 82.60625 14.488594 
" style="fill: none; stroke: #00ff00; stroke-linecap: square"/>
     <g>
      <use xlink:href="#mfc677e6005" x="73.60625" y="14.488594" style="fill: #00ff00; stroke: #00ff00"/>
     </g>
    </g>
    <g id="text_22">
     <!-- Bd-anchor r=0 -->
     <g transform="translate(89.80625 17.638594) scale(0.09 -0.09)">
      <defs>
       <path id="DejaVuSans-42" d="M 1259 2228 
L 1259 519 
L 2272 519 
Q 2781 519 3026 730 
Q 3272 941 3272 1375 
Q 3272 1813 3026 2020 
Q 2781 2228 2272 2228 
L 1259 2228 
z
M 1259 4147 
L 1259 2741 
L 2194 2741 
Q 2656 2741 2882 2914 
Q 3109 3088 3109 3444 
Q 3109 3797 2882 3972 
Q 2656 4147 2194 4147 
L 1259 4147 
z
M 628 4666 
L 2241 4666 
Q 2963 4666 3353 4366 
Q 3744 4066 3744 3513 
Q 3744 3084 3544 2831 
Q 3344 2578 2956 2516 
Q 3422 2416 3680 2098 
Q 3938 1781 3938 1306 
Q 3938 681 3513 340 
Q 3088 0 2303 0 
L 628 0 
L 628 4666 
z
" transform="scale(0.015625)"/>
       <path id="DejaVuSans-64" d="M 2906 2969 
L 2906 4863 
L 3481 4863 
L 3481 0 
L 2906 0 
L 2906 525 
Q 2725 213 2448 61 
Q 2172 -91 1784 -91 
Q 1150 -91 751 415 
Q 353 922 353 1747 
Q 353 2572 751 3078 
Q 1150 3584 1784 3584 
Q 2172 3584 2448 3432 
Q 2725 3281 2906 2969 
z
M 947 1747 
Q 947 1113 1208 752 
Q 1469 391 1925 391 
Q 2381 391 2643 752 
Q 2906 1113 2906 1747 
Q 2906 2381 2643 2742 
Q 2381 3103 1925 3103 
Q 1469 3103 1208 2742 
Q 947 2381 947 1747 
z
" transform="scale(0.015625)"/>
       <path id="DejaVuSans-2d" d="M 313 2009 
L 1997 2009 
L 1997 1497 
L 313 1497 
L 313 2009 
z
" transform="scale(0.015625)"/>
       <path id="DejaVuSans-61" d="M 2194 1759 
Q 1497 1759 1228 1600 
Q 959 1441 959 1056 
Q 959 750 1161 570 
Q 1363 391 1709 391 
Q 2188 391 2477 730 
Q 2766 1069 2766 1631 
L 2766 1759 
L 2194 1759 
z
M 3341 1997 
L 3341 0 
L 2766 0 
L 2766 531 
Q 2569 213 2275 61 
Q 1981 -91 1556 -91 
Q 1019 -91 701 211 
Q 384 513 384 1019 
Q 384 1609 779 1909 
Q 1175 2209 1959 2209 
L 2766 2209 
L 2766 2266 
Q 2766 2663 2505 2880 
Q 2244 3097 1772 3097 
Q 1472 3097 1187 3025 
Q 903 2953 641 2809 
L 641 3341 
Q 956 3463 1253 3523 
Q 1550 3584 1831 3584 
Q 2591 3584 2966 3190 
Q 3341 2797 3341 1997 
z
" transform="scale(0.015625)"/>
       <path id="DejaVuSans-63" d="M 3122 3366 
L 3122 2828 
Q 2878 2963 2633 3030 
Q 2388 3097 2138 3097 
Q 1578 3097 1268 2742 
Q 959 2388 959 1747 
Q 959 1106 1268 751 
Q 1578 397 2138 397 
Q 2388 397 2633 464 
Q 2878 531 3122 666 
L 3122 134 
Q 2881 22 2623 -34 
Q 2366 -91 2075 -91 
Q 1284 -91 818 406 
Q 353 903 353 1747 
Q 353 2603 823 3093 
Q 1294 3584 2113 3584 
Q 2378 3584 2631 3529 
Q 2884 3475 3122 3366 
z
" transform="scale(0.015625)"/>
       <path id="DejaVuSans-68" d="M 3513 2113 
L 3513 0 
L 2938 0 
L 2938 2094 
Q 2938 2591 2744 2837 
Q 2550 3084 2163 3084 
Q 1697 3084 1428 2787 
Q 1159 2491 1159 1978 
L 1159 0 
L 581 0 
L 581 4863 
L 1159 4863 
L 1159 2956 
Q 1366 3272 1645 3428 
Q 1925 3584 2291 3584 
Q 2894 3584 3203 3211 
Q 3513 2838 3513 2113 
z
" transform="scale(0.015625)"/>
       <path id="DejaVuSans-6f" d="M 1959 3097 
Q 1497 3097 1228 2736 
Q 959 2375 959 1747 
Q 959 1119 1226 758 
Q 1494 397 1959 397 
Q 2419 397 2687 759 
Q 2956 1122 2956 1747 
Q 2956 2369 2687 2733 
Q 2419 3097 1959 3097 
z
M 1959 3584 
Q 2709 3584 3137 3096 
Q 3566 2609 3566 1747 
Q 3566 888 3137 398 
Q 2709 -91 1959 -91 
Q 1206 -91 779 398 
Q 353 888 353 1747 
Q 353 2609 779 3096 
Q 1206 3584 1959 3584 
z
" transform="scale(0.015625)"/>
       <path id="DejaVuSans-72" d="M 2631 2963 
Q 2534 3019 2420 3045 
Q 2306 3072 2169 3072 
Q 1681 3072 1420 2755 
Q 1159 2438 1159 1844 
L 1159 0 
L 581 0 
L 581 3500 
L 1159 3500 
L 1159 2956 
Q 1341 3275 1631 3429 
Q 1922 3584 2338 3584 
Q 2397 3584 2469 3576 
Q 2541 3569 2628 3553 
L 2631 2963 
z
" transform="scale(0.015625)"/>
       <path id="DejaVuSans-20" transform="scale(0.015625)"/>
       <path id="DejaVuSans-3d" d="M 678 2906 
L 4684 2906 
L 4684 2381 
L 678 2381 
L 678 2906 
z
M 678 1631 
L 4684 1631 
L 4684 1100 
L 678 1100 
L 678 1631 
z
" transform="scale(0.015625)"/>
      </defs>
      <use xlink:href="#DejaVuSans-42"/>
      <use xlink:href="#DejaVuSans-64" transform="translate(68.603516 0)"/>
      <use xlink:href="#DejaVuSans-2d" transform="translate(132.080078 0)"/>
      <use xlink:href="#DejaVuSans-61" transform="translate(168.164062 0)"/>
      <use xlink:href="#DejaVuSans-6e" transform="translate(229.443359 0)"/>
      <use xlink:href="#DejaVuSans-63" transform="translate(292.822266 0)"/>
      <use xlink:href="#DejaVuSans-68" transform="translate(347.802734 0)"/>
      <use xlink:href="#DejaVuSans-6f" transform="translate(411.181641 0)"/>
      <use xlink:href="#DejaVuSans-72" transform="translate(472.363281 0)"/>
      <use xlink:href="#DejaVuSans-20" transform="translate(513.476562 0)"/>
      <use xlink:href="#DejaVuSans-72" transform="translate(545.263672 0)"/>
      <use xlink:href="#DejaVuSans-3d" transform="translate(586.376953 0)"/>
      <use xlink:href="#DejaVuSans-30" transform="translate(670.166016 0)"/>
     </g>
    </g>
    <g id="line2d_61">
     <path d="M 64.60625 27.698906 
L 73.60625 27.698906 
L 82.60625 27.698906 
" style="fill: none; stroke: #00dd00; stroke-linecap: square"/>
     <g>
      <use xlink:href="#m130b5948a8" x="73.60625" y="27.698906" style="fill: #00dd00; stroke: #00dd00"/>
     </g>
    </g>
    <g id="text_23">
     <!-- Bd-anchor r=1 -->
     <g transform="translate(89.80625 30.848906) scale(0.09 -0.09)">
      <use xlink:href="#DejaVuSans-42"/>
      <use xlink:href="#DejaVuSans-64" transform="translate(68.603516 0)"/>
      <use xlink:href="#DejaVuSans-2d" transform="translate(132.080078 0)"/>
      <use xlink:href="#DejaVuSans-61" transform="translate(168.164062 0)"/>
      <use xlink:href="#DejaVuSans-6e" transform="translate(229.443359 0)"/>
      <use xlink:href="#DejaVuSans-63" transform="translate(292.822266 0)"/>
      <use xlink:href="#DejaVuSans-68" transform="translate(347.802734 0)"/>
      <use xlink:href="#DejaVuSans-6f" transform="translate(411.181641 0)"/>
      <use xlink:href="#DejaVuSans-72" transform="translate(472.363281 0)"/>
      <use xlink:href="#DejaVuSans-20" transform="translate(513.476562 0)"/>
      <use xlink:href="#DejaVuSans-72" transform="translate(545.263672 0)"/>
      <use xlink:href="#DejaVuSans-3d" transform="translate(586.376953 0)"/>
      <use xlink:href="#DejaVuSans-31" transform="translate(670.166016 0)"/>
     </g>
    </g>
    <g id="line2d_62">
     <path d="M 64.60625 40.909219 
L 73.60625 40.909219 
L 82.60625 40.909219 
" style="fill: none; stroke: #00bb00; stroke-linecap: square"/>
     <g>
      <use xlink:href="#m70eec8c58f" x="73.60625" y="40.909219" style="fill: #00bb00; stroke: #00bb00"/>
     </g>
    </g>
    <g id="text_24">
     <!-- Bd-anchor r=2 -->
     <g transform="translate(89.80625 44.059219) scale(0.09 -0.09)">
      <use xlink:href="#DejaVuSans-42"/>
      <use xlink:href="#DejaVuSans-64" transform="translate(68.603516 0)"/>
      <use xlink:href="#DejaVuSans-2d" transform="translate(132.080078 0)"/>
      <use xlink:href="#DejaVuSans-61" transform="translate(168.164062 0)"/>
      <use xlink:href="#DejaVuSans-6e" transform="translate(229.443359 0)"/>
      <use xlink:href="#DejaVuSans-63" transform="translate(292.822266 0)"/>
      <use xlink:href="#DejaVuSans-68" transform="translate(347.802734 0)"/>
      <use xlink:href="#DejaVuSans-6f" transform="translate(411.181641 0)"/>
      <use xlink:href="#DejaVuSans-72" transform="translate(472.363281 0)"/>
      <use xlink:href="#DejaVuSans-20" transform="translate(513.476562 0)"/>
      <use xlink:href="#DejaVuSans-72" transform="translate(545.263672 0)"/>
      <use xlink:href="#DejaVuSans-3d" transform="translate(586.376953 0)"/>
      <use xlink:href="#DejaVuSans-32" transform="translate(670.166016 0)"/>
     </g>
    </g>
    <g id="line2d_63">
     <path d="M 204.055625 14.488594 
L 213.055625 14.488594 
L 222.055625 14.488594 
" style="fill: none; stroke: #009900; stroke-linecap: square"/>
     <g>
      <use xlink:href="#m791aa02aff" x="213.055625" y="14.488594" style="fill: #009900; stroke: #009900"/>
     </g>
    </g>
    <g id="text_25">
     <!-- Bd-anchor r=3 -->
     <g transform="translate(229.255625 17.638594) scale(0.09 -0.09)">
      <use xlink:href="#DejaVuSans-42"/>
      <use xlink:href="#DejaVuSans-64" transform="translate(68.603516 0)"/>
      <use xlink:href="#DejaVuSans-2d" transform="translate(132.080078 0)"/>
      <use xlink:href="#DejaVuSans-61" transform="translate(168.164062 0)"/>
      <use xlink:href="#DejaVuSans-6e" transform="translate(229.443359 0)"/>
      <use xlink:href="#DejaVuSans-63" transform="translate(292.822266 0)"/>
      <use xlink:href="#DejaVuSans-68" transform="translate(347.802734 0)"/>
      <use xlink:href="#DejaVuSans-6f" transform="translate(411.181641 0)"/>
      <use xlink:href="#DejaVuSans-72" transform="translate(472.363281 0)"/>
      <use xlink:href="#DejaVuSans-20" transform="translate(513.476562 0)"/>
      <use xlink:href="#DejaVuSans-72" transform="translate(545.263672 0)"/>
      <use xlink:href="#DejaVuSans-3d" transform="translate(586.376953 0)"/>
      <use xlink:href="#DejaVuSans-33" transform="translate(670.166016 0)"/>
     </g>
    </g>
    <g id="line2d_64">
     <path d="M 204.055625 27.698906 
L 213.055625 27.698906 
L 222.055625 27.698906 
" style="fill: none; stroke: #a00080; stroke-linecap: square"/>
     <g>
      <use xlink:href="#m4449567384" x="213.055625" y="27.698906" style="fill: #a00080; stroke: #a00080"/>
     </g>
    </g>
    <g id="text_26">
     <!-- Sus-anchor Lex -->
     <g transform="translate(229.255625 30.848906) scale(0.09 -0.09)">
      <defs>
       <path id="DejaVuSans-53" d="M 3425 4513 
L 3425 3897 
Q 3066 4069 2747 4153 
Q 2428 4238 2131 4238 
Q 1616 4238 1336 4038 
Q 1056 3838 1056 3469 
Q 1056 3159 1242 3001 
Q 1428 2844 1947 2747 
L 2328 2669 
Q 3034 2534 3370 2195 
Q 3706 1856 3706 1288 
Q 3706 609 3251 259 
Q 2797 -91 1919 -91 
Q 1588 -91 1214 -16 
Q 841 59 441 206 
L 441 856 
Q 825 641 1194 531 
Q 1563 422 1919 422 
Q 2459 422 2753 634 
Q 3047 847 3047 1241 
Q 3047 1584 2836 1778 
Q 2625 1972 2144 2069 
L 1759 2144 
Q 1053 2284 737 2584 
Q 422 2884 422 3419 
Q 422 4038 858 4394 
Q 1294 4750 2059 4750 
Q 2388 4750 2728 4690 
Q 3069 4631 3425 4513 
z
" transform="scale(0.015625)"/>
       <path id="DejaVuSans-75" d="M 544 1381 
L 544 3500 
L 1119 3500 
L 1119 1403 
Q 1119 906 1312 657 
Q 1506 409 1894 409 
Q 2359 409 2629 706 
Q 2900 1003 2900 1516 
L 2900 3500 
L 3475 3500 
L 3475 0 
L 2900 0 
L 2900 538 
Q 2691 219 2414 64 
Q 2138 -91 1772 -91 
Q 1169 -91 856 284 
Q 544 659 544 1381 
z
M 1991 3584 
L 1991 3584 
z
" transform="scale(0.015625)"/>
       <path id="DejaVuSans-4c" d="M 628 4666 
L 1259 4666 
L 1259 531 
L 3531 531 
L 3531 0 
L 628 0 
L 628 4666 
z
" transform="scale(0.015625)"/>
       <path id="DejaVuSans-78" d="M 3513 3500 
L 2247 1797 
L 3578 0 
L 2900 0 
L 1881 1375 
L 863 0 
L 184 0 
L 1544 1831 
L 300 3500 
L 978 3500 
L 1906 2253 
L 2834 3500 
L 3513 3500 
z
" transform="scale(0.015625)"/>
      </defs>
      <use xlink:href="#DejaVuSans-53"/>
      <use xlink:href="#DejaVuSans-75" transform="translate(63.476562 0)"/>
      <use xlink:href="#DejaVuSans-73" transform="translate(126.855469 0)"/>
      <use xlink:href="#DejaVuSans-2d" transform="translate(178.955078 0)"/>
      <use xlink:href="#DejaVuSans-61" transform="translate(215.039062 0)"/>
      <use xlink:href="#DejaVuSans-6e" transform="translate(276.318359 0)"/>
      <use xlink:href="#DejaVuSans-63" transform="translate(339.697266 0)"/>
      <use xlink:href="#DejaVuSans-68" transform="translate(394.677734 0)"/>
      <use xlink:href="#DejaVuSans-6f" transform="translate(458.056641 0)"/>
      <use xlink:href="#DejaVuSans-72" transform="translate(519.238281 0)"/>
      <use xlink:href="#DejaVuSans-20" transform="translate(560.351562 0)"/>
      <use xlink:href="#DejaVuSans-4c" transform="translate(592.138672 0)"/>
      <use xlink:href="#DejaVuSans-65" transform="translate(646.101562 0)"/>
      <use xlink:href="#DejaVuSans-78" transform="translate(705.875 0)"/>
     </g>
    </g>
    <g id="line2d_65">
     <path d="M 204.055625 40.909219 
L 213.055625 40.909219 
L 222.055625 40.909219 
" style="fill: none; stroke: #0000ff; stroke-width: 2.5; stroke-linecap: square"/>
     <g>
      <use xlink:href="#mb3c0869d2b" x="213.055625" y="40.909219" style="fill: #0000ff; stroke: #0000ff"/>
     </g>
    </g>
    <g id="text_27">
     <!-- Sus-anchor AntiLex -->
     <g transform="translate(229.255625 44.059219) scale(0.09 -0.09)">
      <defs>
       <path id="DejaVuSans-41" d="M 2188 4044 
L 1331 1722 
L 3047 1722 
L 2188 4044 
z
M 1831 4666 
L 2547 4666 
L 4325 0 
L 3669 0 
L 3244 1197 
L 1141 1197 
L 716 0 
L 50 0 
L 1831 4666 
z
" transform="scale(0.015625)"/>
      </defs>
      <use xlink:href="#DejaVuSans-53"/>
      <use xlink:href="#DejaVuSans-75" transform="translate(63.476562 0)"/>
      <use xlink:href="#DejaVuSans-73" transform="translate(126.855469 0)"/>
      <use xlink:href="#DejaVuSans-2d" transform="translate(178.955078 0)"/>
      <use xlink:href="#DejaVuSans-61" transform="translate(215.039062 0)"/>
      <use xlink:href="#DejaVuSans-6e" transform="translate(276.318359 0)"/>
      <use xlink:href="#DejaVuSans-63" transform="translate(339.697266 0)"/>
      <use xlink:href="#DejaVuSans-68" transform="translate(394.677734 0)"/>
      <use xlink:href="#DejaVuSans-6f" transform="translate(458.056641 0)"/>
      <use xlink:href="#DejaVuSans-72" transform="translate(519.238281 0)"/>
      <use xlink:href="#DejaVuSans-20" transform="translate(560.351562 0)"/>
      <use xlink:href="#DejaVuSans-41" transform="translate(592.138672 0)"/>
      <use xlink:href="#DejaVuSans-6e" transform="translate(660.546875 0)"/>
      <use xlink:href="#DejaVuSans-74" transform="translate(723.925781 0)"/>
      <use xlink:href="#DejaVuSans-69" transform="translate(763.134766 0)"/>
      <use xlink:href="#DejaVuSans-4c" transform="translate(790.917969 0)"/>
      <use xlink:href="#DejaVuSans-65" transform="translate(844.880859 0)"/>
      <use xlink:href="#DejaVuSans-78" transform="translate(904.654297 0)"/>
     </g>
    </g>
    <g id="line2d_66">
     <path d="M 364.207813 14.488594 
L 373.207813 14.488594 
L 382.207813 14.488594 
" style="fill: none; stroke: #1f77b4; stroke-opacity: 0; stroke-width: 1.5; stroke-linecap: square"/>
    </g>
    <g id="text_28">
     <!--   -->
     <g transform="translate(389.407813 17.638594) scale(0.09 -0.09)">
      <use xlink:href="#DejaVuSans-20"/>
     </g>
    </g>
    <g id="line2d_67">
     <path d="M 364.207813 27.698906 
L 373.207813 27.698906 
L 382.207813 27.698906 
" style="fill: none; stroke: #ff0000; stroke-width: 1.5; stroke-linecap: square"/>
    </g>
    <g id="text_29">
     <!-- g' -->
     <g transform="translate(389.407813 30.848906) scale(0.09 -0.09)">
      <defs>
       <path id="DejaVuSans-67" d="M 2906 1791 
Q 2906 2416 2648 2759 
Q 2391 3103 1925 3103 
Q 1463 3103 1205 2759 
Q 947 2416 947 1791 
Q 947 1169 1205 825 
Q 1463 481 1925 481 
Q 2391 481 2648 825 
Q 2906 1169 2906 1791 
z
M 3481 434 
Q 3481 -459 3084 -895 
Q 2688 -1331 1869 -1331 
Q 1566 -1331 1297 -1286 
Q 1028 -1241 775 -1147 
L 775 -588 
Q 1028 -725 1275 -790 
Q 1522 -856 1778 -856 
Q 2344 -856 2625 -561 
Q 2906 -266 2906 331 
L 2906 616 
Q 2728 306 2450 153 
Q 2172 0 1784 0 
Q 1141 0 747 490 
Q 353 981 353 1791 
Q 353 2603 747 3093 
Q 1141 3584 1784 3584 
Q 2172 3584 2450 3431 
Q 2728 3278 2906 2969 
L 2906 3500 
L 3481 3500 
L 3481 434 
z
" transform="scale(0.015625)"/>
       <path id="DejaVuSans-27" d="M 1147 4666 
L 1147 2931 
L 616 2931 
L 616 4666 
L 1147 4666 
z
" transform="scale(0.015625)"/>
      </defs>
      <use xlink:href="#DejaVuSans-67"/>
      <use xlink:href="#DejaVuSans-27" transform="translate(63.476562 0)"/>
     </g>
    </g>
    <g id="line2d_68">
     <path d="M 364.207813 40.909219 
L 373.207813 40.909219 
L 382.207813 40.909219 
" style="fill: none; stroke: #000000; stroke-width: 1.5; stroke-linecap: square"/>
    </g>
    <g id="text_30">
     <!-- 1/w -->
     <g transform="translate(389.407813 44.059219) scale(0.09 -0.09)">
      <defs>
       <path id="DejaVuSans-2f" d="M 1625 4666 
L 2156 4666 
L 531 -594 
L 0 -594 
L 1625 4666 
z
" transform="scale(0.015625)"/>
      </defs>
      <use xlink:href="#DejaVuSans-31"/>
      <use xlink:href="#DejaVuSans-2f" transform="translate(63.623047 0)"/>
      <use xlink:href="#DejaVuSans-77" transform="translate(97.314453 0)"/>
     </g>
    </g>
   </g>
  </g>
 </g>
 <defs>
  <clipPath id="p90e5017551">
   <rect x="56.50625" y="10.68336" width="357.12" height="266.112"/>
  </clipPath>
 </defs>
</svg>
